<?xml version="1.0" encoding="UTF-8" standalone="no"?>
<!DOCTYPE svg PUBLIC "-//W3C//DTD SVG 1.1//EN"
 "http://www.w3.org/Graphics/SVG/1.1/DTD/svg11.dtd">
<!-- Generated by graphviz version 9.0.0 (20230911.1827)
 -->
<!-- Title: include/yaclib/async/future.hpp Pages: 1 -->
<!--zoomable 305 -->

<svg id="main" version="1.1" xmlns="http://www.w3.org/2000/svg" xmlns:xlink="http://www.w3.org/1999/xlink" xml:space="preserve" onload="init(evt)">
<style type="text/css"><![CDATA[
.node, .edge {opacity: 0.7;}
.node.selected, .edge.selected {opacity: 1;}
.edge:hover path { stroke: red; }
.edge:hover polygon { stroke: red; fill: red; }
]]></style>

<defs>
  <circle id="rim" cx="0" cy="0" r="7"/>
  <circle id="rim2" cx="0" cy="0" r="3.5"/>
  <g id="zoomPlus">
    <use xlink:href="#rim" fill="#404040"><set attributeName="fill" to="#808080" begin="zoomplus.mouseover" end="zoomplus.mouseout"/></use>
    <path d="M-4,0h8M0,-4v8" fill="none" stroke="white" stroke-width="1.5" pointer-events="none"/>
  </g>
  <g id="zoomMin">
    <use xlink:href="#rim" fill="#404040"><set attributeName="fill" to="#808080" begin="zoomminus.mouseover" end="zoomminus.mouseout"/></use>
    <path d="M-4,0h8" fill="none" stroke="white" stroke-width="1.5" pointer-events="none"/>
  </g>
  <g id="arrowUp" transform="translate(30 24)">
    <use xlink:href="#rim"/>
    <path pointer-events="none" fill="none" stroke="white" stroke-width="1.5" d="M0,-3.0v7 M-2.5,-0.5L0,-3.0L2.5,-0.5"/>
  </g>
  <g id="arrowRight" transform="rotate(90) translate(36 -43)">
    <use xlink:href="#rim"/>
    <path pointer-events="none" fill="none" stroke="white" stroke-width="1.5" d="M0,-3.0v7 M-2.5,-0.5L0,-3.0L2.5,-0.5"/>
  </g>
  <g id="arrowDown" transform="rotate(180) translate(-30 -48)">
    <use xlink:href="#rim"/>
    <path pointer-events="none" fill="none" stroke="white" stroke-width="1.5" d="M0,-3.0v7 M-2.5,-0.5L0,-3.0L2.5,-0.5"/>
  </g>
  <g id="arrowLeft" transform="rotate(270) translate(-36 17)">
    <use xlink:href="#rim"/>
    <path pointer-events="none" fill="none" stroke="white" stroke-width="1.5" d="M0,-3.0v7 M-2.5,-0.5L0,-3.0L2.5,-0.5"/>
  </g>
  <g id="resetDef">
    <use xlink:href="#rim2" fill="#404040"><set attributeName="fill" to="#808080" begin="reset.mouseover" end="reset.mouseout"/></use>
  </g>
</defs>
<script type="application/ecmascript">
var viewWidth = 2424;
var viewHeight = 305;
var sectionId = 'dynsection-1';
</script>
<script type="application/ecmascript" xlink:href="svg.min.js"/>
<svg id="graph" class="graph">
<g id="viewport">
<title>include/yaclib/async/future.hpp</title>
<!-- Node1 -->
<g id="Node000001" class="node">
<title>Node1</title>
<g id="a_Node000001"><a xlink:title=" ">
<polygon fill="#999999" stroke="#666666" points="1213.88,-296.5 1110.88,-296.5 1110.88,-266 1213.88,-266 1213.88,-296.5"/>
<text text-anchor="start" x="1118.88" y="-283" font-family="Helvetica,sans-Serif" font-size="10.00">include/yaclib/async</text>
<text text-anchor="middle" x="1162.38" y="-271.75" font-family="Helvetica,sans-Serif" font-size="10.00">/future.hpp</text>
</a>
</g>
</g>
<!-- Node2 -->
<g id="Node000002" class="node">
<title>Node2</title>
<g id="a_Node000002"><a xlink:href="wait__group_8hpp.html" target="_top" xlink:title=" ">
<polygon fill="white" stroke="#666666" points="113.12,-230 17.62,-230 17.62,-199.5 113.12,-199.5 113.12,-230"/>
<text text-anchor="start" x="25.62" y="-216.5" font-family="Helvetica,sans-Serif" font-size="10.00">include/yaclib/algo</text>
<text text-anchor="middle" x="65.38" y="-205.25" font-family="Helvetica,sans-Serif" font-size="10.00">/wait_group.hpp</text>
</a>
</g>
</g>
<!-- Node1&#45;&gt;Node2 -->
<g id="edge1_Node000001_Node000002" class="edge">
<title>Node1&#45;&gt;Node2</title>
<g id="a_edge1_Node000001_Node000002"><a xlink:title=" ">
<path fill="none" stroke="#63b8ff" d="M1099.26,-280.69C937.69,-281.06 496.26,-277.26 132.38,-230 126.24,-229.2 119.84,-228.14 113.52,-226.96"/>
<polygon fill="#63b8ff" stroke="#63b8ff" points="1098.9,-284.19 1108.89,-280.66 1098.88,-277.19 1098.9,-284.19"/>
</a>
</g>
</g>
<!-- Node4 -->
<g id="Node000004" class="node">
<title>Node4</title>
<g id="a_Node000004"><a xlink:href="connect_8hpp.html" target="_top" xlink:title=" ">
<polygon fill="white" stroke="#666666" points="398.88,-97 295.88,-97 295.88,-66.5 398.88,-66.5 398.88,-97"/>
<text text-anchor="start" x="303.88" y="-83.5" font-family="Helvetica,sans-Serif" font-size="10.00">include/yaclib/async</text>
<text text-anchor="middle" x="347.38" y="-72.25" font-family="Helvetica,sans-Serif" font-size="10.00">/connect.hpp</text>
</a>
</g>
</g>
<!-- Node1&#45;&gt;Node4 -->
<g id="edge3_Node000001_Node000004" class="edge">
<title>Node1&#45;&gt;Node4</title>
<g id="a_edge3_Node000001_Node000004"><a xlink:title=" ">
<path fill="none" stroke="#63b8ff" d="M1099.09,-279.12C1008.96,-276.22 839.08,-265.99 699.38,-230 573,-197.44 432.68,-127.79 374.71,-97.42"/>
<polygon fill="#63b8ff" stroke="#63b8ff" points="1098.86,-282.61 1108.96,-279.41 1099.06,-275.62 1098.86,-282.61"/>
</a>
</g>
</g>
<!-- Node6 -->
<g id="Node000006" class="node">
<title>Node6</title>
<g id="a_Node000006"><a xlink:href="split_8hpp.html" target="_top" xlink:title=" ">
<polygon fill="white" stroke="#666666" points="812.88,-30.5 709.88,-30.5 709.88,0 812.88,0 812.88,-30.5"/>
<text text-anchor="start" x="717.88" y="-17" font-family="Helvetica,sans-Serif" font-size="10.00">include/yaclib/async</text>
<text text-anchor="middle" x="761.38" y="-5.75" font-family="Helvetica,sans-Serif" font-size="10.00">/split.hpp</text>
</a>
</g>
</g>
<!-- Node1&#45;&gt;Node6 -->
<g id="edge23_Node000001_Node000006" class="edge">
<title>Node1&#45;&gt;Node6</title>
<g id="a_edge23_Node000001_Node000006"><a xlink:title=" ">
<path fill="none" stroke="#63b8ff" d="M1099.15,-274.12C1033.72,-266.69 937,-252.31 907.38,-230 842.11,-180.86 874.88,-129.91 823.38,-66.5 812.11,-52.63 796.45,-39.98 783.69,-30.84"/>
<polygon fill="#63b8ff" stroke="#63b8ff" points="1098.75,-277.6 1109.08,-275.22 1099.52,-270.64 1098.75,-277.6"/>
</a>
</g>
</g>
<!-- Node7 -->
<g id="Node000007" class="node">
<title>Node7</title>
<g id="a_Node000007"><a xlink:href="contract_8hpp.html" target="_top" xlink:title=" ">
<polygon fill="white" stroke="#666666" points="277.88,-97 174.88,-97 174.88,-66.5 277.88,-66.5 277.88,-97"/>
<text text-anchor="start" x="182.88" y="-83.5" font-family="Helvetica,sans-Serif" font-size="10.00">include/yaclib/async</text>
<text text-anchor="middle" x="226.38" y="-72.25" font-family="Helvetica,sans-Serif" font-size="10.00">/contract.hpp</text>
</a>
</g>
</g>
<!-- Node1&#45;&gt;Node7 -->
<g id="edge6_Node000001_Node000007" class="edge">
<title>Node1&#45;&gt;Node7</title>
<g id="a_edge6_Node000001_Node000007"><a xlink:title=" ">
<path fill="none" stroke="#63b8ff" d="M1099.46,-280.34C995.01,-279.22 779.82,-271.5 603.38,-230 468.28,-198.23 317.25,-127.84 255.27,-97.33"/>
<polygon fill="#63b8ff" stroke="#63b8ff" points="1099.19,-283.84 1109.22,-280.43 1099.25,-276.84 1099.19,-283.84"/>
</a>
</g>
</g>
<!-- Node8 -->
<g id="Node000008" class="node">
<title>Node8</title>
<g id="a_Node000008"><a xlink:href="simple_8cpp.html" target="_top" xlink:title=" ">
<polygon fill="white" stroke="#666666" points="276.38,-30.5 176.38,-30.5 176.38,0 276.38,0 276.38,-30.5"/>
<text text-anchor="start" x="184.38" y="-17" font-family="Helvetica,sans-Serif" font-size="10.00">test/example/async</text>
<text text-anchor="middle" x="226.38" y="-5.75" font-family="Helvetica,sans-Serif" font-size="10.00">/simple.cpp</text>
</a>
</g>
</g>
<!-- Node1&#45;&gt;Node8 -->
<g id="edge60_Node000001_Node000008" class="edge">
<title>Node1&#45;&gt;Node8</title>
<g id="a_edge60_Node000001_Node000008"><a xlink:title=" ">
<path fill="none" stroke="#63b8ff" d="M1099.68,-277.89C957.48,-272.14 614.12,-255.97 501.38,-230 344.87,-193.95 255.65,-229.83 165.38,-97 149.18,-73.17 178.77,-46.73 202.13,-30.81"/>
<polygon fill="#63b8ff" stroke="#63b8ff" points="1099.14,-281.37 1109.27,-278.27 1099.42,-274.37 1099.14,-281.37"/>
</a>
</g>
</g>
<!-- Node9 -->
<g id="Node000009" class="node">
<title>Node9</title>
<g id="a_Node000009"><a xlink:href="when__impl_8hpp.html" target="_top" xlink:title=" ">
<polygon fill="white" stroke="#666666" points="1054.25,-230 944.5,-230 944.5,-199.5 1054.25,-199.5 1054.25,-230"/>
<text text-anchor="start" x="952.5" y="-216.5" font-family="Helvetica,sans-Serif" font-size="10.00">include/yaclib/async</text>
<text text-anchor="middle" x="999.38" y="-205.25" font-family="Helvetica,sans-Serif" font-size="10.00">/detail/when_impl.hpp</text>
</a>
</g>
</g>
<!-- Node1&#45;&gt;Node9 -->
<g id="edge9_Node000001_Node000009" class="edge">
<title>Node1&#45;&gt;Node9</title>
<g id="a_edge9_Node000001_Node000009"><a xlink:title=" ">
<path fill="none" stroke="#63b8ff" d="M1114.69,-261.38C1089.75,-251.51 1059.68,-239.61 1036.5,-230.44"/>
<polygon fill="#63b8ff" stroke="#63b8ff" points="1113.39,-264.63 1123.98,-265.06 1115.97,-258.12 1113.39,-264.63"/>
</a>
</g>
</g>
<!-- Node11 -->
<g id="Node000011" class="node">
<title>Node11</title>
<g id="a_Node000011"><a xlink:href="when__all_8hpp.html" target="_top" xlink:title=" ">
<polygon fill="white" stroke="#666666" points="1094.88,-97 991.88,-97 991.88,-66.5 1094.88,-66.5 1094.88,-97"/>
<text text-anchor="start" x="999.88" y="-83.5" font-family="Helvetica,sans-Serif" font-size="10.00">include/yaclib/async</text>
<text text-anchor="middle" x="1043.38" y="-72.25" font-family="Helvetica,sans-Serif" font-size="10.00">/when_all.hpp</text>
</a>
</g>
</g>
<!-- Node1&#45;&gt;Node11 -->
<g id="edge36_Node000001_Node000011" class="edge">
<title>Node1&#45;&gt;Node11</title>
<g id="a_edge36_Node000001_Node000011"><a xlink:title=" ">
<path fill="none" stroke="#63b8ff" d="M1099.28,-274.99C1039.39,-268.54 955.61,-255.21 935.38,-230 913.36,-202.58 958.29,-141.22 965.38,-133 978.2,-118.11 996.52,-106 1012.18,-97.4"/>
<polygon fill="#63b8ff" stroke="#63b8ff" points="1098.72,-278.46 1109.03,-276 1099.44,-271.49 1098.72,-278.46"/>
</a>
</g>
</g>
<!-- Node14 -->
<g id="Node000014" class="node">
<title>Node14</title>
<g id="a_Node000014"><a xlink:href="when__any_8hpp.html" target="_top" xlink:title=" ">
<polygon fill="white" stroke="#666666" points="1247.88,-97 1144.88,-97 1144.88,-66.5 1247.88,-66.5 1247.88,-97"/>
<text text-anchor="start" x="1152.88" y="-83.5" font-family="Helvetica,sans-Serif" font-size="10.00">include/yaclib/async</text>
<text text-anchor="middle" x="1196.38" y="-72.25" font-family="Helvetica,sans-Serif" font-size="10.00">/when_any.hpp</text>
</a>
</g>
</g>
<!-- Node1&#45;&gt;Node14 -->
<g id="edge37_Node000001_Node000014" class="edge">
<title>Node1&#45;&gt;Node14</title>
<g id="a_edge37_Node000001_Node000014"><a xlink:title=" ">
<path fill="none" stroke="#63b8ff" d="M1128.81,-258.98C1106.85,-242.44 1085.01,-219.08 1101.38,-199.5 1159.31,-130.21 1243.44,-232.79 1301.38,-163.5 1324.39,-135.98 1280.36,-112.01 1242.46,-97.49"/>
<polygon fill="#63b8ff" stroke="#63b8ff" points="1126.72,-261.78 1136.89,-264.74 1130.78,-256.09 1126.72,-261.78"/>
</a>
</g>
</g>
<!-- Node16 -->
<g id="Node000016" class="node">
<title>Node16</title>
<g id="a_Node000016"><a xlink:href="async_2make_8hpp.html" target="_top" xlink:title=" ">
<polygon fill="white" stroke="#666666" points="1213.88,-230 1110.88,-230 1110.88,-199.5 1213.88,-199.5 1213.88,-230"/>
<text text-anchor="start" x="1118.88" y="-216.5" font-family="Helvetica,sans-Serif" font-size="10.00">include/yaclib/async</text>
<text text-anchor="middle" x="1162.38" y="-205.25" font-family="Helvetica,sans-Serif" font-size="10.00">/make.hpp</text>
</a>
</g>
</g>
<!-- Node1&#45;&gt;Node16 -->
<g id="edge18_Node000001_Node000016" class="edge">
<title>Node1&#45;&gt;Node16</title>
<g id="a_edge18_Node000001_Node000016"><a xlink:title=" ">
<path fill="none" stroke="#63b8ff" d="M1162.38,-254.31C1162.38,-246.14 1162.38,-237.41 1162.38,-230.33"/>
<polygon fill="#63b8ff" stroke="#63b8ff" points="1158.88,-254.1 1162.38,-264.1 1165.88,-254.1 1158.88,-254.1"/>
</a>
</g>
</g>
<!-- Node17 -->
<g id="Node000017" class="node">
<title>Node17</title>
<g id="a_Node000017"><a xlink:href="run_8hpp.html" target="_top" xlink:title=" ">
<polygon fill="white" stroke="#666666" points="973.88,-97 870.88,-97 870.88,-66.5 973.88,-66.5 973.88,-97"/>
<text text-anchor="start" x="878.88" y="-83.5" font-family="Helvetica,sans-Serif" font-size="10.00">include/yaclib/async</text>
<text text-anchor="middle" x="922.38" y="-72.25" font-family="Helvetica,sans-Serif" font-size="10.00">/run.hpp</text>
</a>
</g>
</g>
<!-- Node1&#45;&gt;Node17 -->
<g id="edge19_Node000001_Node000017" class="edge">
<title>Node1&#45;&gt;Node17</title>
<g id="a_edge19_Node000001_Node000017"><a xlink:title=" ">
<path fill="none" stroke="#63b8ff" d="M1099.22,-275.56C1036.66,-269.46 947.14,-256.31 925.38,-230 893.59,-191.58 908.49,-126.25 917.39,-97.3"/>
<polygon fill="#63b8ff" stroke="#63b8ff" points="1098.77,-279.04 1109.05,-276.48 1099.42,-272.07 1098.77,-279.04"/>
</a>
</g>
</g>
<!-- Node18 -->
<g id="Node000018" class="node">
<title>Node18</title>
<g id="a_Node000018"><a xlink:href="wait_8hpp.html" target="_top" xlink:title=" ">
<polygon fill="white" stroke="#666666" points="811.88,-230 708.88,-230 708.88,-199.5 811.88,-199.5 811.88,-230"/>
<text text-anchor="start" x="716.88" y="-216.5" font-family="Helvetica,sans-Serif" font-size="10.00">include/yaclib/async</text>
<text text-anchor="middle" x="760.38" y="-205.25" font-family="Helvetica,sans-Serif" font-size="10.00">/wait.hpp</text>
</a>
</g>
</g>
<!-- Node1&#45;&gt;Node18 -->
<g id="edge24_Node000001_Node000018" class="edge">
<title>Node1&#45;&gt;Node18</title>
<g id="a_edge24_Node000001_Node000018"><a xlink:title=" ">
<path fill="none" stroke="#63b8ff" d="M1099.42,-272.92C1029.93,-263.99 915.21,-247.86 817.38,-230 815.65,-229.68 813.89,-229.36 812.12,-229.02"/>
<polygon fill="#63b8ff" stroke="#63b8ff" points="1098.73,-276.36 1109.09,-274.16 1099.62,-269.42 1098.73,-276.36"/>
</a>
</g>
</g>
<!-- Node23 -->
<g id="Node000023" class="node">
<title>Node23</title>
<g id="a_Node000023"><a xlink:href="wait__for_8hpp.html" target="_top" xlink:title=" ">
<polygon fill="white" stroke="#666666" points="1334.88,-230 1231.88,-230 1231.88,-199.5 1334.88,-199.5 1334.88,-230"/>
<text text-anchor="start" x="1239.88" y="-216.5" font-family="Helvetica,sans-Serif" font-size="10.00">include/yaclib/async</text>
<text text-anchor="middle" x="1283.38" y="-205.25" font-family="Helvetica,sans-Serif" font-size="10.00">/wait_for.hpp</text>
</a>
</g>
</g>
<!-- Node1&#45;&gt;Node23 -->
<g id="edge34_Node000001_Node000023" class="edge">
<title>Node1&#45;&gt;Node23</title>
<g id="a_edge34_Node000001_Node000023"><a xlink:title=" ">
<path fill="none" stroke="#63b8ff" d="M1199.81,-260.29C1217.98,-250.61 1239.42,-239.18 1256.03,-230.33"/>
<polygon fill="#63b8ff" stroke="#63b8ff" points="1198.35,-257.11 1191.17,-264.9 1201.64,-263.29 1198.35,-257.11"/>
</a>
</g>
</g>
<!-- Node24 -->
<g id="Node000024" class="node">
<title>Node24</title>
<g id="a_Node000024"><a xlink:href="wait__until_8hpp.html" target="_top" xlink:title=" ">
<polygon fill="white" stroke="#666666" points="1455.88,-230 1352.88,-230 1352.88,-199.5 1455.88,-199.5 1455.88,-230"/>
<text text-anchor="start" x="1360.88" y="-216.5" font-family="Helvetica,sans-Serif" font-size="10.00">include/yaclib/async</text>
<text text-anchor="middle" x="1404.38" y="-205.25" font-family="Helvetica,sans-Serif" font-size="10.00">/wait_until.hpp</text>
</a>
</g>
</g>
<!-- Node1&#45;&gt;Node24 -->
<g id="edge35_Node000001_Node000024" class="edge">
<title>Node1&#45;&gt;Node24</title>
<g id="a_edge35_Node000001_Node000024"><a xlink:title=" ">
<path fill="none" stroke="#63b8ff" d="M1225.4,-263.45C1264.95,-252.91 1315.32,-239.48 1352.55,-229.56"/>
<polygon fill="#63b8ff" stroke="#63b8ff" points="1224.51,-260.07 1215.75,-266.02 1226.32,-266.83 1224.51,-260.07"/>
</a>
</g>
</g>
<!-- Node25 -->
<g id="Node000025" class="node">
<title>Node25</title>
<g id="a_Node000025"><a xlink:href="await_8hpp.html" target="_top" xlink:title=" ">
<polygon fill="white" stroke="#666666" points="1684.5,-30.5 1588.25,-30.5 1588.25,0 1684.5,0 1684.5,-30.5"/>
<text text-anchor="start" x="1596.25" y="-17" font-family="Helvetica,sans-Serif" font-size="10.00">include/yaclib/coro</text>
<text text-anchor="middle" x="1636.38" y="-5.75" font-family="Helvetica,sans-Serif" font-size="10.00">/await.hpp</text>
</a>
</g>
</g>
<!-- Node1&#45;&gt;Node25 -->
<g id="edge38_Node000001_Node000025" class="edge">
<title>Node1&#45;&gt;Node25</title>
<g id="a_edge38_Node000001_Node000025"><a xlink:title=" ">
<path fill="none" stroke="#63b8ff" d="M1225.47,-277.77C1303.63,-273.38 1430.62,-261.49 1464.38,-230 1519,-179.04 1454.01,-122.57 1503.38,-66.5 1524.82,-42.14 1559.33,-29.54 1587.82,-23.06"/>
<polygon fill="#63b8ff" stroke="#63b8ff" points="1225.62,-274.26 1215.82,-278.29 1225.99,-281.25 1225.62,-274.26"/>
</a>
</g>
</g>
<!-- Node26 -->
<g id="Node000026" class="node">
<title>Node26</title>
<g id="a_Node000026"><a xlink:href="await__inline_8hpp.html" target="_top" xlink:title=" ">
<polygon fill="white" stroke="#666666" points="1760.5,-97 1664.25,-97 1664.25,-66.5 1760.5,-66.5 1760.5,-97"/>
<text text-anchor="start" x="1672.25" y="-83.5" font-family="Helvetica,sans-Serif" font-size="10.00">include/yaclib/coro</text>
<text text-anchor="middle" x="1712.38" y="-72.25" font-family="Helvetica,sans-Serif" font-size="10.00">/await_inline.hpp</text>
</a>
</g>
</g>
<!-- Node1&#45;&gt;Node26 -->
<g id="edge39_Node000001_Node000026" class="edge">
<title>Node1&#45;&gt;Node26</title>
<g id="a_edge39_Node000001_Node000026"><a xlink:title=" ">
<path fill="none" stroke="#63b8ff" d="M1225.35,-280.27C1306.85,-278.55 1452.28,-269.52 1569.38,-230 1624.95,-211.24 1645.87,-208.6 1683.38,-163.5 1699.57,-144.03 1707.04,-114.81 1710.24,-97.37"/>
<polygon fill="#63b8ff" stroke="#63b8ff" points="1225.74,-276.76 1215.8,-280.44 1225.86,-283.76 1225.74,-276.76"/>
</a>
</g>
</g>
<!-- Node27 -->
<g id="Node000027" class="node">
<title>Node27</title>
<g id="a_Node000027"><a xlink:href="await__on_8hpp.html" target="_top" xlink:title=" ">
<polygon fill="white" stroke="#666666" points="1880.5,-97 1784.25,-97 1784.25,-66.5 1880.5,-66.5 1880.5,-97"/>
<text text-anchor="start" x="1792.25" y="-83.5" font-family="Helvetica,sans-Serif" font-size="10.00">include/yaclib/coro</text>
<text text-anchor="middle" x="1832.38" y="-72.25" font-family="Helvetica,sans-Serif" font-size="10.00">/await_on.hpp</text>
</a>
</g>
</g>
<!-- Node1&#45;&gt;Node27 -->
<g id="edge41_Node000001_Node000027" class="edge">
<title>Node1&#45;&gt;Node27</title>
<g id="a_edge41_Node000001_Node000027"><a xlink:title=" ">
<path fill="none" stroke="#63b8ff" d="M1225.49,-277.23C1333.84,-271.41 1550.46,-256.76 1621.38,-230 1691.52,-203.53 1697.83,-175.81 1759.38,-133 1776.68,-120.96 1796.37,-107.42 1810.94,-97.43"/>
<polygon fill="#63b8ff" stroke="#63b8ff" points="1225.4,-273.73 1215.6,-277.75 1225.77,-280.72 1225.4,-273.73"/>
</a>
</g>
</g>
<!-- Node28 -->
<g id="Node000028" class="node">
<title>Node28</title>
<g id="a_Node000028"><a xlink:href="await__sticky_8hpp.html" target="_top" xlink:title=" ">
<polygon fill="white" stroke="#666666" points="1608.5,-97 1512.25,-97 1512.25,-66.5 1608.5,-66.5 1608.5,-97"/>
<text text-anchor="start" x="1520.25" y="-83.5" font-family="Helvetica,sans-Serif" font-size="10.00">include/yaclib/coro</text>
<text text-anchor="middle" x="1560.38" y="-72.25" font-family="Helvetica,sans-Serif" font-size="10.00">/await_sticky.hpp</text>
</a>
</g>
</g>
<!-- Node1&#45;&gt;Node28 -->
<g id="edge42_Node000001_Node000028" class="edge">
<title>Node1&#45;&gt;Node28</title>
<g id="a_edge42_Node000001_Node000028"><a xlink:title=" ">
<path fill="none" stroke="#63b8ff" d="M1225.65,-278.05C1310.95,-273.89 1456.96,-262.17 1498.38,-230 1503.99,-225.64 1540.37,-133.84 1554.64,-97.43"/>
<polygon fill="#63b8ff" stroke="#63b8ff" points="1225.62,-274.55 1215.8,-278.51 1225.95,-281.54 1225.62,-274.55"/>
</a>
</g>
</g>
<!-- Node29 -->
<g id="Node000029" class="node">
<title>Node29</title>
<g id="a_Node000029"><a xlink:href="await__awaiter_8hpp.html" target="_top" xlink:title=" ">
<polygon fill="white" stroke="#666666" points="1674,-163.5 1550.75,-163.5 1550.75,-133 1674,-133 1674,-163.5"/>
<text text-anchor="start" x="1558.75" y="-150" font-family="Helvetica,sans-Serif" font-size="10.00">include/yaclib/coro</text>
<text text-anchor="middle" x="1612.38" y="-138.75" font-family="Helvetica,sans-Serif" font-size="10.00">/detail/await_awaiter.hpp</text>
</a>
</g>
</g>
<!-- Node1&#45;&gt;Node29 -->
<g id="edge43_Node000001_Node000029" class="edge">
<title>Node1&#45;&gt;Node29</title>
<g id="a_edge43_Node000001_Node000029"><a xlink:title=" ">
<path fill="none" stroke="#63b8ff" d="M1225.54,-276.86C1317.62,-271.07 1483.5,-257.17 1536.38,-230 1566.34,-214.6 1590.85,-182.52 1603.36,-163.76"/>
<polygon fill="#63b8ff" stroke="#63b8ff" points="1225.43,-273.36 1215.66,-277.47 1225.86,-280.35 1225.43,-273.36"/>
</a>
</g>
</g>
<!-- Node30 -->
<g id="Node000030" class="node">
<title>Node30</title>
<g id="a_Node000030"><a xlink:href="await__on__awaiter_8hpp.html" target="_top" xlink:title=" ">
<polygon fill="white" stroke="#666666" points="1907.88,-163.5 1768.88,-163.5 1768.88,-133 1907.88,-133 1907.88,-163.5"/>
<text text-anchor="start" x="1776.88" y="-150" font-family="Helvetica,sans-Serif" font-size="10.00">include/yaclib/coro</text>
<text text-anchor="middle" x="1838.38" y="-138.75" font-family="Helvetica,sans-Serif" font-size="10.00">/detail/await_on_awaiter.hpp</text>
</a>
</g>
</g>
<!-- Node1&#45;&gt;Node30 -->
<g id="edge47_Node000001_Node000030" class="edge">
<title>Node1&#45;&gt;Node30</title>
<g id="a_edge47_Node000001_Node000030"><a xlink:title=" ">
<path fill="none" stroke="#63b8ff" d="M1225.48,-280.17C1358.15,-279.14 1661.36,-272.12 1754.38,-230 1786.81,-215.31 1814.35,-182.65 1828.39,-163.68"/>
<polygon fill="#63b8ff" stroke="#63b8ff" points="1225.82,-276.66 1215.84,-280.23 1225.87,-283.66 1225.82,-276.66"/>
</a>
</g>
</g>
<!-- Node31 -->
<g id="Node000031" class="node">
<title>Node31</title>
<g id="a_Node000031"><a xlink:href="coro_2future_8hpp.html" target="_top" xlink:title=" ">
<polygon fill="white" stroke="#666666" points="2022.5,-163.5 1926.25,-163.5 1926.25,-133 2022.5,-133 2022.5,-163.5"/>
<text text-anchor="start" x="1934.25" y="-150" font-family="Helvetica,sans-Serif" font-size="10.00">include/yaclib/coro</text>
<text text-anchor="middle" x="1974.38" y="-138.75" font-family="Helvetica,sans-Serif" font-size="10.00">/future.hpp</text>
</a>
</g>
</g>
<!-- Node1&#45;&gt;Node31 -->
<g id="edge49_Node000001_Node000031" class="edge">
<title>Node1&#45;&gt;Node31</title>
<g id="a_edge49_Node000001_Node000031"><a xlink:title=" ">
<path fill="none" stroke="#63b8ff" d="M1225.29,-277.85C1362.3,-272.2 1683.77,-256.49 1789.38,-230 1848.86,-215.08 1913.47,-182.82 1948.4,-163.91"/>
<polygon fill="#63b8ff" stroke="#63b8ff" points="1225.55,-274.34 1215.7,-278.24 1225.83,-281.33 1225.55,-274.34"/>
</a>
</g>
</g>
<!-- Node32 -->
<g id="Node000032" class="node">
<title>Node32</title>
<g id="a_Node000032"><a xlink:href="lazy_2task_8hpp.html" target="_top" xlink:title=" ">
<polygon fill="white" stroke="#666666" points="2021.38,-230 1927.38,-230 1927.38,-199.5 2021.38,-199.5 2021.38,-230"/>
<text text-anchor="start" x="1935.38" y="-216.5" font-family="Helvetica,sans-Serif" font-size="10.00">include/yaclib/lazy</text>
<text text-anchor="middle" x="1974.38" y="-205.25" font-family="Helvetica,sans-Serif" font-size="10.00">/task.hpp</text>
</a>
</g>
</g>
<!-- Node1&#45;&gt;Node32 -->
<g id="edge50_Node000001_Node000032" class="edge">
<title>Node1&#45;&gt;Node32</title>
<g id="a_edge50_Node000001_Node000032"><a xlink:title=" ">
<path fill="none" stroke="#63b8ff" d="M1225.26,-277.87C1351.24,-272.65 1643.4,-258.37 1887.38,-230 1900.3,-228.5 1914.23,-226.42 1927.08,-224.32"/>
<polygon fill="#63b8ff" stroke="#63b8ff" points="1225.31,-274.36 1215.46,-278.27 1225.6,-281.35 1225.31,-274.36"/>
</a>
</g>
</g>
<!-- Node37 -->
<g id="Node000037" class="node">
<title>Node37</title>
<g id="a_Node000037"><a xlink:href="future__impl_8cpp.html" target="_top" xlink:title=" ">
<polygon fill="white" stroke="#666666" points="2166.88,-224.38 2039.88,-224.38 2039.88,-205.12 2166.88,-205.12 2166.88,-224.38"/>
<text text-anchor="middle" x="2103.38" y="-210.88" font-family="Helvetica,sans-Serif" font-size="10.00">src/async/future_impl.cpp</text>
</a>
</g>
</g>
<!-- Node1&#45;&gt;Node37 -->
<g id="edge59_Node000001_Node000037" class="edge">
<title>Node1&#45;&gt;Node37</title>
<g id="a_edge59_Node000001_Node000037"><a xlink:title=" ">
<path fill="none" stroke="#63b8ff" d="M1225.11,-279.52C1368.37,-277.21 1730.36,-267.79 2030.38,-230 2040.62,-228.71 2051.6,-226.83 2061.84,-224.86"/>
<polygon fill="#63b8ff" stroke="#63b8ff" points="1225.42,-276.01 1215.47,-279.66 1225.53,-283.01 1225.42,-276.01"/>
</a>
</g>
</g>
<!-- Node3 -->
<g id="Node000003" class="node">
<title>Node3</title>
<g id="a_Node000003"><a xlink:href="wait__group_8cpp.html" target="_top" xlink:title=" ">
<polygon fill="white" stroke="#666666" points="118.75,-157.88 0,-157.88 0,-138.62 118.75,-138.62 118.75,-157.88"/>
<text text-anchor="middle" x="59.38" y="-144.38" font-family="Helvetica,sans-Serif" font-size="10.00">src/algo/wait_group.cpp</text>
</a>
</g>
</g>
<!-- Node2&#45;&gt;Node3 -->
<g id="edge2_Node000002_Node000003" class="edge">
<title>Node2&#45;&gt;Node3</title>
<g id="a_edge2_Node000002_Node000003"><a xlink:title=" ">
<path fill="none" stroke="#63b8ff" d="M62.96,-187.84C61.98,-177.26 60.91,-165.75 60.2,-158.07"/>
<polygon fill="#63b8ff" stroke="#63b8ff" points="59.46,-187.97 63.87,-197.61 66.43,-187.33 59.46,-187.97"/>
</a>
</g>
</g>
<!-- Node5 -->
<g id="Node000005" class="node">
<title>Node5</title>
<g id="a_Node000005"><a xlink:href="share_8hpp.html" target="_top" xlink:title=" ">
<polygon fill="white" stroke="#666666" points="398.88,-30.5 295.88,-30.5 295.88,0 398.88,0 398.88,-30.5"/>
<text text-anchor="start" x="303.88" y="-17" font-family="Helvetica,sans-Serif" font-size="10.00">include/yaclib/async</text>
<text text-anchor="middle" x="347.38" y="-5.75" font-family="Helvetica,sans-Serif" font-size="10.00">/share.hpp</text>
</a>
</g>
</g>
<!-- Node4&#45;&gt;Node5 -->
<g id="edge4_Node000004_Node000005" class="edge">
<title>Node4&#45;&gt;Node5</title>
<g id="a_edge4_Node000004_Node000005"><a xlink:title=" ">
<path fill="none" stroke="#63b8ff" d="M347.38,-54.81C347.38,-46.64 347.38,-37.91 347.38,-30.83"/>
<polygon fill="#63b8ff" stroke="#63b8ff" points="343.88,-54.6 347.38,-64.6 350.88,-54.6 343.88,-54.6"/>
</a>
</g>
</g>
<!-- Node4&#45;&gt;Node6 -->
<g id="edge5_Node000004_Node000006" class="edge">
<title>Node4&#45;&gt;Node6</title>
<g id="a_edge5_Node000004_Node000006"><a xlink:title=" ">
<path fill="none" stroke="#63b8ff" d="M410.1,-70.98C491.87,-58.24 633.4,-36.19 709.45,-24.34"/>
<polygon fill="#63b8ff" stroke="#63b8ff" points="409.81,-67.48 400.47,-72.48 410.89,-74.4 409.81,-67.48"/>
</a>
</g>
</g>
<!-- Node7&#45;&gt;Node5 -->
<g id="edge7_Node000007_Node000005" class="edge">
<title>Node7&#45;&gt;Node5</title>
<g id="a_edge7_Node000007_Node000005"><a xlink:title=" ">
<path fill="none" stroke="#63b8ff" d="M263.81,-60.79C281.98,-51.11 303.42,-39.68 320.03,-30.83"/>
<polygon fill="#63b8ff" stroke="#63b8ff" points="262.35,-57.61 255.17,-65.4 265.64,-63.79 262.35,-57.61"/>
</a>
</g>
</g>
<!-- Node7&#45;&gt;Node8 -->
<g id="edge8_Node000007_Node000008" class="edge">
<title>Node7&#45;&gt;Node8</title>
<g id="a_edge8_Node000007_Node000008"><a xlink:title=" ">
<path fill="none" stroke="#63b8ff" d="M226.38,-54.81C226.38,-46.64 226.38,-37.91 226.38,-30.83"/>
<polygon fill="#63b8ff" stroke="#63b8ff" points="222.88,-54.6 226.38,-64.6 229.88,-54.6 222.88,-54.6"/>
</a>
</g>
</g>
<!-- Node10 -->
<g id="Node000010" class="node">
<title>Node10</title>
<g id="a_Node000010"><a xlink:href="when__all__impl_8hpp.html" target="_top" xlink:title=" ">
<polygon fill="white" stroke="#666666" points="1106.75,-163.5 982,-163.5 982,-133 1106.75,-133 1106.75,-163.5"/>
<text text-anchor="start" x="990" y="-150" font-family="Helvetica,sans-Serif" font-size="10.00">include/yaclib/async</text>
<text text-anchor="middle" x="1044.38" y="-138.75" font-family="Helvetica,sans-Serif" font-size="10.00">/detail/when_all_impl.hpp</text>
</a>
</g>
</g>
<!-- Node9&#45;&gt;Node10 -->
<g id="edge10_Node000009_Node000010" class="edge">
<title>Node9&#45;&gt;Node10</title>
<g id="a_edge10_Node000009_Node000010"><a xlink:title=" ">
<path fill="none" stroke="#63b8ff" d="M1016.09,-189.79C1022.17,-181.07 1028.86,-171.49 1034.2,-163.83"/>
<polygon fill="#63b8ff" stroke="#63b8ff" points="1013.3,-187.67 1010.45,-197.87 1019.04,-191.67 1013.3,-187.67"/>
</a>
</g>
</g>
<!-- Node9&#45;&gt;Node11 -->
<g id="edge16_Node000009_Node000011" class="edge">
<title>Node9&#45;&gt;Node11</title>
<g id="a_edge16_Node000009_Node000011"><a xlink:title=" ">
<path fill="none" stroke="#63b8ff" d="M982.04,-189.73C972.41,-173.23 964.08,-151.12 973.38,-133 981.37,-117.43 996.67,-105.59 1010.94,-97.33"/>
<polygon fill="#63b8ff" stroke="#63b8ff" points="978.93,-191.35 987.25,-197.91 984.84,-187.6 978.93,-191.35"/>
</a>
</g>
</g>
<!-- Node13 -->
<g id="Node000013" class="node">
<title>Node13</title>
<g id="a_Node000013"><a xlink:href="when__any__impl_8hpp.html" target="_top" xlink:title=" ">
<polygon fill="white" stroke="#666666" points="1292.38,-163.5 1162.38,-163.5 1162.38,-133 1292.38,-133 1292.38,-163.5"/>
<text text-anchor="start" x="1170.38" y="-150" font-family="Helvetica,sans-Serif" font-size="10.00">include/yaclib/async</text>
<text text-anchor="middle" x="1227.38" y="-138.75" font-family="Helvetica,sans-Serif" font-size="10.00">/detail/when_any_impl.hpp</text>
</a>
</g>
</g>
<!-- Node9&#45;&gt;Node13 -->
<g id="edge13_Node000009_Node000013" class="edge">
<title>Node9&#45;&gt;Node13</title>
<g id="a_edge13_Node000009_Node000013"><a xlink:title=" ">
<path fill="none" stroke="#63b8ff" d="M1062.17,-195.99C1097.83,-185.9 1141.91,-173.43 1175.58,-163.9"/>
<polygon fill="#63b8ff" stroke="#63b8ff" points="1061.52,-192.53 1052.85,-198.62 1063.43,-199.27 1061.52,-192.53"/>
</a>
</g>
</g>
<!-- Node9&#45;&gt;Node14 -->
<g id="edge17_Node000009_Node000014" class="edge">
<title>Node9&#45;&gt;Node14</title>
<g id="a_edge17_Node000009_Node000014"><a xlink:title=" ">
<path fill="none" stroke="#63b8ff" d="M1054.36,-194.86C1074.43,-186.72 1096.75,-176.14 1115.38,-163.5 1143.47,-144.43 1170.17,-114.81 1184.81,-97.24"/>
<polygon fill="#63b8ff" stroke="#63b8ff" points="1053.23,-191.54 1045.21,-198.46 1055.79,-198.06 1053.23,-191.54"/>
</a>
</g>
</g>
<!-- Node10&#45;&gt;Node11 -->
<g id="edge11_Node000010_Node000011" class="edge">
<title>Node10&#45;&gt;Node11</title>
<g id="a_edge11_Node000010_Node000011"><a xlink:title=" ">
<path fill="none" stroke="#63b8ff" d="M1043.97,-121.31C1043.85,-113.14 1043.71,-104.41 1043.6,-97.33"/>
<polygon fill="#63b8ff" stroke="#63b8ff" points="1040.47,-121.16 1044.12,-131.1 1047.47,-121.05 1040.47,-121.16"/>
</a>
</g>
</g>
<!-- Node12 -->
<g id="Node000012" class="node">
<title>Node12</title>
<g id="a_Node000012"><a xlink:href="when__all_8cpp.html" target="_top" xlink:title=" ">
<polygon fill="white" stroke="#666666" points="1032.38,-30.5 932.38,-30.5 932.38,0 1032.38,0 1032.38,-30.5"/>
<text text-anchor="start" x="940.38" y="-17" font-family="Helvetica,sans-Serif" font-size="10.00">test/example/async</text>
<text text-anchor="middle" x="982.38" y="-5.75" font-family="Helvetica,sans-Serif" font-size="10.00">/when_all.cpp</text>
</a>
</g>
</g>
<!-- Node11&#45;&gt;Node12 -->
<g id="edge12_Node000011_Node000012" class="edge">
<title>Node11&#45;&gt;Node12</title>
<g id="a_edge12_Node000011_Node000012"><a xlink:title=" ">
<path fill="none" stroke="#63b8ff" d="M1021.77,-57.91C1013.25,-48.9 1003.72,-38.82 996.16,-30.83"/>
<polygon fill="#63b8ff" stroke="#63b8ff" points="1019.08,-60.15 1028.49,-65.01 1024.16,-55.34 1019.08,-60.15"/>
</a>
</g>
</g>
<!-- Node13&#45;&gt;Node14 -->
<g id="edge14_Node000013_Node000014" class="edge">
<title>Node13&#45;&gt;Node14</title>
<g id="a_edge14_Node000013_Node000014"><a xlink:title=" ">
<path fill="none" stroke="#63b8ff" d="M1215.45,-122.44C1211.37,-113.96 1206.94,-104.74 1203.38,-97.33"/>
<polygon fill="#63b8ff" stroke="#63b8ff" points="1212.2,-123.75 1219.68,-131.25 1218.51,-120.72 1212.2,-123.75"/>
</a>
</g>
</g>
<!-- Node15 -->
<g id="Node000015" class="node">
<title>Node15</title>
<g id="a_Node000015"><a xlink:href="when__any_8cpp.html" target="_top" xlink:title=" ">
<polygon fill="white" stroke="#666666" points="1198.38,-30.5 1098.38,-30.5 1098.38,0 1198.38,0 1198.38,-30.5"/>
<text text-anchor="start" x="1106.38" y="-17" font-family="Helvetica,sans-Serif" font-size="10.00">test/example/async</text>
<text text-anchor="middle" x="1148.38" y="-5.75" font-family="Helvetica,sans-Serif" font-size="10.00">/when_any.cpp</text>
</a>
</g>
</g>
<!-- Node14&#45;&gt;Node15 -->
<g id="edge15_Node000014_Node000015" class="edge">
<title>Node14&#45;&gt;Node15</title>
<g id="a_edge15_Node000014_Node000015"><a xlink:title=" ">
<path fill="none" stroke="#63b8ff" d="M1178.75,-57.07C1172.21,-48.28 1164.99,-38.57 1159.22,-30.83"/>
<polygon fill="#63b8ff" stroke="#63b8ff" points="1175.8,-58.97 1184.58,-64.9 1181.42,-54.79 1175.8,-58.97"/>
</a>
</g>
</g>
<!-- Node17&#45;&gt;Node8 -->
<g id="edge20_Node000017_Node000008" class="edge">
<title>Node17&#45;&gt;Node8</title>
<g id="a_edge20_Node000017_Node000008"><a xlink:title=" ">
<path fill="none" stroke="#63b8ff" d="M859.32,-70.94C847.4,-69.3 835.02,-67.73 823.38,-66.5 585.49,-41.44 522.89,-66.26 286.38,-30.5 283.2,-30.02 279.94,-29.46 276.67,-28.84"/>
<polygon fill="#63b8ff" stroke="#63b8ff" points="858.68,-74.39 869.08,-72.32 859.66,-67.46 858.68,-74.39"/>
</a>
</g>
</g>
<!-- Node17&#45;&gt;Node12 -->
<g id="edge21_Node000017_Node000012" class="edge">
<title>Node17&#45;&gt;Node12</title>
<g id="a_edge21_Node000017_Node000012"><a xlink:title=" ">
<path fill="none" stroke="#63b8ff" d="M943.62,-57.91C952,-48.9 961.38,-38.82 968.81,-30.83"/>
<polygon fill="#63b8ff" stroke="#63b8ff" points="941.27,-55.3 937.02,-65.01 946.39,-60.07 941.27,-55.3"/>
</a>
</g>
</g>
<!-- Node17&#45;&gt;Node15 -->
<g id="edge22_Node000017_Node000015" class="edge">
<title>Node17&#45;&gt;Node15</title>
<g id="a_edge22_Node000017_Node000015"><a xlink:title=" ">
<path fill="none" stroke="#63b8ff" d="M984.74,-62.95C1020.47,-52.75 1064.72,-40.12 1098.2,-30.57"/>
<polygon fill="#63b8ff" stroke="#63b8ff" points="984.05,-59.51 975.4,-65.62 985.97,-66.24 984.05,-59.51"/>
</a>
</g>
</g>
<!-- Node18&#45;&gt;Node1 -->
<g id="edge25_Node000018_Node000001" class="edge">
<title>Node18&#45;&gt;Node1</title>
<g id="a_edge25_Node000018_Node000001"><a xlink:title=" ">
<path fill="none" stroke="#63b8ff" d="M823.13,-227.66C827.28,-228.48 831.39,-229.27 835.38,-230 932.27,-247.69 1045.74,-263.68 1110.42,-272.67"/>
<polygon fill="#63b8ff" stroke="#63b8ff" points="824.09,-224.28 813.59,-225.73 822.7,-231.14 824.09,-224.28"/>
</a>
</g>
</g>
<!-- Node19 -->
<g id="Node000019" class="node">
<title>Node19</title>
<g id="a_Node000019"><a xlink:href="async_2shared__future_8hpp.html" target="_top" xlink:title=" ">
<polygon fill="white" stroke="#666666" points="680.88,-163.5 577.88,-163.5 577.88,-133 680.88,-133 680.88,-163.5"/>
<text text-anchor="start" x="585.88" y="-150" font-family="Helvetica,sans-Serif" font-size="10.00">include/yaclib/async</text>
<text text-anchor="middle" x="629.38" y="-138.75" font-family="Helvetica,sans-Serif" font-size="10.00">/shared_future.hpp</text>
</a>
</g>
</g>
<!-- Node18&#45;&gt;Node19 -->
<g id="edge26_Node000018_Node000019" class="edge">
<title>Node18&#45;&gt;Node19</title>
<g id="a_edge26_Node000018_Node000019"><a xlink:title=" ">
<path fill="none" stroke="#63b8ff" d="M720.39,-194.06C700.6,-184.32 677.13,-172.76 658.98,-163.83"/>
<polygon fill="#63b8ff" stroke="#63b8ff" points="718.77,-197.17 729.29,-198.45 721.87,-190.89 718.77,-197.17"/>
</a>
</g>
</g>
<!-- Node19&#45;&gt;Node4 -->
<g id="edge27_Node000019_Node000004" class="edge">
<title>Node19&#45;&gt;Node4</title>
<g id="a_edge27_Node000019_Node000004"><a xlink:title=" ">
<path fill="none" stroke="#63b8ff" d="M566.58,-132.89C516.24,-121.37 446.45,-105.41 399.25,-94.61"/>
<polygon fill="#63b8ff" stroke="#63b8ff" points="565.65,-136.26 576.18,-135.08 567.21,-129.44 565.65,-136.26"/>
</a>
</g>
</g>
<!-- Node19&#45;&gt;Node5 -->
<g id="edge29_Node000019_Node000005" class="edge">
<title>Node19&#45;&gt;Node5</title>
<g id="a_edge29_Node000019_Node000005"><a xlink:title=" ">
<path fill="none" stroke="#63b8ff" d="M566.57,-136.75C530.1,-129.03 484.06,-116.43 446.38,-97 441.82,-94.65 392.15,-53.53 364.94,-30.9"/>
<polygon fill="#63b8ff" stroke="#63b8ff" points="565.58,-140.12 576.08,-138.68 566.98,-133.26 565.58,-140.12"/>
</a>
</g>
</g>
<!-- Node19&#45;&gt;Node17 -->
<g id="edge28_Node000019_Node000017" class="edge">
<title>Node19&#45;&gt;Node17</title>
<g id="a_edge28_Node000019_Node000017"><a xlink:title=" ">
<path fill="none" stroke="#63b8ff" d="M692.09,-133.44C745.35,-121.72 820.85,-105.1 870.69,-94.13"/>
<polygon fill="#63b8ff" stroke="#63b8ff" points="691.57,-129.97 682.56,-135.54 693.08,-136.81 691.57,-129.97"/>
</a>
</g>
</g>
<!-- Node20 -->
<g id="Node000020" class="node">
<title>Node20</title>
<g id="a_Node000020"><a xlink:href="shared__contract_8hpp.html" target="_top" xlink:title=" ">
<polygon fill="white" stroke="#666666" points="814.75,-97 708,-97 708,-66.5 814.75,-66.5 814.75,-97"/>
<text text-anchor="start" x="716" y="-83.5" font-family="Helvetica,sans-Serif" font-size="10.00">include/yaclib/async</text>
<text text-anchor="middle" x="761.38" y="-72.25" font-family="Helvetica,sans-Serif" font-size="10.00">/shared_contract.hpp</text>
</a>
</g>
</g>
<!-- Node19&#45;&gt;Node20 -->
<g id="edge30_Node000019_Node000020" class="edge">
<title>Node19&#45;&gt;Node20</title>
<g id="a_edge30_Node000019_Node000020"><a xlink:title=" ">
<path fill="none" stroke="#63b8ff" d="M669.67,-127.56C689.6,-117.82 713.25,-106.26 731.54,-97.33"/>
<polygon fill="#63b8ff" stroke="#63b8ff" points="668.14,-124.41 660.69,-131.95 671.21,-130.7 668.14,-124.41"/>
</a>
</g>
</g>
<!-- Node21 -->
<g id="Node000021" class="node">
<title>Node21</title>
<g id="a_Node000021"><a xlink:href="coro_2shared__future_8hpp.html" target="_top" xlink:title=" ">
<polygon fill="white" stroke="#666666" points="551.5,-97 455.25,-97 455.25,-66.5 551.5,-66.5 551.5,-97"/>
<text text-anchor="start" x="463.25" y="-83.5" font-family="Helvetica,sans-Serif" font-size="10.00">include/yaclib/coro</text>
<text text-anchor="middle" x="503.38" y="-72.25" font-family="Helvetica,sans-Serif" font-size="10.00">/shared_future.hpp</text>
</a>
</g>
</g>
<!-- Node19&#45;&gt;Node21 -->
<g id="edge32_Node000019_Node000021" class="edge">
<title>Node19&#45;&gt;Node21</title>
<g id="a_edge32_Node000019_Node000021"><a xlink:title=" ">
<path fill="none" stroke="#63b8ff" d="M590.65,-127.43C571.68,-117.71 549.23,-106.22 531.85,-97.33"/>
<polygon fill="#63b8ff" stroke="#63b8ff" points="588.94,-130.48 599.44,-131.92 592.13,-124.25 588.94,-130.48"/>
</a>
</g>
</g>
<!-- Node22 -->
<g id="Node000022" class="node">
<title>Node22</title>
<g id="a_Node000022"><a xlink:href="shared__future__impl_8cpp.html" target="_top" xlink:title=" ">
<polygon fill="white" stroke="#666666" points="689.5,-97 569.25,-97 569.25,-66.5 689.5,-66.5 689.5,-97"/>
<text text-anchor="start" x="577.25" y="-83.5" font-family="Helvetica,sans-Serif" font-size="10.00">src/async/shared_future</text>
<text text-anchor="middle" x="629.38" y="-72.25" font-family="Helvetica,sans-Serif" font-size="10.00">_impl.cpp</text>
</a>
</g>
</g>
<!-- Node19&#45;&gt;Node22 -->
<g id="edge33_Node000019_Node000022" class="edge">
<title>Node19&#45;&gt;Node22</title>
<g id="a_edge33_Node000019_Node000022"><a xlink:title=" ">
<path fill="none" stroke="#63b8ff" d="M629.38,-121.31C629.38,-113.14 629.38,-104.41 629.38,-97.33"/>
<polygon fill="#63b8ff" stroke="#63b8ff" points="625.88,-121.1 629.38,-131.1 632.88,-121.1 625.88,-121.1"/>
</a>
</g>
</g>
<!-- Node20&#45;&gt;Node6 -->
<g id="edge31_Node000020_Node000006" class="edge">
<title>Node20&#45;&gt;Node6</title>
<g id="a_edge31_Node000020_Node000006"><a xlink:title=" ">
<path fill="none" stroke="#63b8ff" d="M761.38,-54.81C761.38,-46.64 761.38,-37.91 761.38,-30.83"/>
<polygon fill="#63b8ff" stroke="#63b8ff" points="757.88,-54.6 761.38,-64.6 764.88,-54.6 757.88,-54.6"/>
</a>
</g>
</g>
<!-- Node26&#45;&gt;Node25 -->
<g id="edge40_Node000026_Node000025" class="edge">
<title>Node26&#45;&gt;Node25</title>
<g id="a_edge40_Node000026_Node000025"><a xlink:title=" ">
<path fill="none" stroke="#63b8ff" d="M1686.44,-58.74C1675.58,-49.53 1663.26,-39.06 1653.55,-30.83"/>
<polygon fill="#63b8ff" stroke="#63b8ff" points="1684.09,-61.33 1693.98,-65.13 1688.62,-56 1684.09,-61.33"/>
</a>
</g>
</g>
<!-- Node29&#45;&gt;Node25 -->
<g id="edge44_Node000029_Node000025" class="edge">
<title>Node29&#45;&gt;Node25</title>
<g id="a_edge44_Node000029_Node000025"><a xlink:title=" ">
<path fill="none" stroke="#63b8ff" d="M1617.11,-121.43C1622.07,-94.34 1629.7,-52.71 1633.7,-30.83"/>
<polygon fill="#63b8ff" stroke="#63b8ff" points="1613.67,-120.77 1615.31,-131.24 1620.55,-122.04 1613.67,-120.77"/>
</a>
</g>
</g>
<!-- Node29&#45;&gt;Node26 -->
<g id="edge45_Node000029_Node000026" class="edge">
<title>Node29&#45;&gt;Node26</title>
<g id="a_edge45_Node000029_Node000026"><a xlink:title=" ">
<path fill="none" stroke="#63b8ff" d="M1644.37,-126.61C1659.15,-117.08 1676.37,-105.98 1689.77,-97.33"/>
<polygon fill="#63b8ff" stroke="#63b8ff" points="1642.84,-123.43 1636.34,-131.79 1646.64,-129.31 1642.84,-123.43"/>
</a>
</g>
</g>
<!-- Node29&#45;&gt;Node28 -->
<g id="edge46_Node000029_Node000028" class="edge">
<title>Node29&#45;&gt;Node28</title>
<g id="a_edge46_Node000029_Node000028"><a xlink:title=" ">
<path fill="none" stroke="#63b8ff" d="M1593.51,-123.85C1586.36,-114.98 1578.44,-105.15 1572.13,-97.33"/>
<polygon fill="#63b8ff" stroke="#63b8ff" points="1590.62,-125.85 1599.63,-131.44 1596.07,-121.45 1590.62,-125.85"/>
</a>
</g>
</g>
<!-- Node30&#45;&gt;Node27 -->
<g id="edge48_Node000030_Node000027" class="edge">
<title>Node30&#45;&gt;Node27</title>
<g id="a_edge48_Node000030_Node000027"><a xlink:title=" ">
<path fill="none" stroke="#63b8ff" d="M1835.96,-121.31C1835.2,-113.14 1834.39,-104.41 1833.73,-97.33"/>
<polygon fill="#63b8ff" stroke="#63b8ff" points="1832.46,-121.47 1836.87,-131.11 1839.43,-120.83 1832.46,-121.47"/>
</a>
</g>
</g>
<!-- Node32&#45;&gt;Node29 -->
<g id="edge51_Node000032_Node000029" class="edge">
<title>Node32&#45;&gt;Node29</title>
<g id="a_edge51_Node000032_Node000029"><a xlink:title=" ">
<path fill="none" stroke="#63b8ff" d="M1915.97,-203.34C1849.68,-191.53 1741.97,-172.34 1674.26,-160.28"/>
<polygon fill="#63b8ff" stroke="#63b8ff" points="1915.1,-206.74 1925.56,-205.05 1916.33,-199.85 1915.1,-206.74"/>
</a>
</g>
</g>
<!-- Node32&#45;&gt;Node30 -->
<g id="edge52_Node000032_Node000030" class="edge">
<title>Node32&#45;&gt;Node30</title>
<g id="a_edge52_Node000032_Node000030"><a xlink:title=" ">
<path fill="none" stroke="#63b8ff" d="M1933.15,-194.2C1912.55,-184.43 1888.04,-172.81 1869.11,-163.83"/>
<polygon fill="#63b8ff" stroke="#63b8ff" points="1931.61,-197.34 1942.15,-198.47 1934.61,-191.02 1931.61,-197.34"/>
</a>
</g>
</g>
<!-- Node32&#45;&gt;Node31 -->
<g id="edge53_Node000032_Node000031" class="edge">
<title>Node32&#45;&gt;Node31</title>
<g id="a_edge53_Node000032_Node000031"><a xlink:title=" ">
<path fill="none" stroke="#63b8ff" d="M1974.38,-187.81C1974.38,-179.64 1974.38,-170.91 1974.38,-163.83"/>
<polygon fill="#63b8ff" stroke="#63b8ff" points="1970.88,-187.6 1974.38,-197.6 1977.88,-187.6 1970.88,-187.6"/>
</a>
</g>
</g>
<!-- Node33 -->
<g id="Node000033" class="node">
<title>Node33</title>
<g id="a_Node000033"><a xlink:href="coro_2task_8hpp.html" target="_top" xlink:title=" ">
<polygon fill="white" stroke="#666666" points="2136.5,-163.5 2040.25,-163.5 2040.25,-133 2136.5,-133 2136.5,-163.5"/>
<text text-anchor="start" x="2048.25" y="-150" font-family="Helvetica,sans-Serif" font-size="10.00">include/yaclib/coro</text>
<text text-anchor="middle" x="2088.38" y="-138.75" font-family="Helvetica,sans-Serif" font-size="10.00">/task.hpp</text>
</a>
</g>
</g>
<!-- Node32&#45;&gt;Node33 -->
<g id="edge54_Node000032_Node000033" class="edge">
<title>Node32&#45;&gt;Node33</title>
<g id="a_edge54_Node000032_Node000033"><a xlink:title=" ">
<path fill="none" stroke="#63b8ff" d="M2009.89,-193.66C2026.95,-184 2047.03,-172.64 2062.61,-163.83"/>
<polygon fill="#63b8ff" stroke="#63b8ff" points="2008.54,-190.4 2001.56,-198.37 2011.99,-196.49 2008.54,-190.4"/>
</a>
</g>
</g>
<!-- Node34 -->
<g id="Node000034" class="node">
<title>Node34</title>
<g id="a_Node000034"><a xlink:href="lazy_2make_8hpp.html" target="_top" xlink:title=" ">
<polygon fill="white" stroke="#666666" points="2249.38,-97 2155.38,-97 2155.38,-66.5 2249.38,-66.5 2249.38,-97"/>
<text text-anchor="start" x="2163.38" y="-83.5" font-family="Helvetica,sans-Serif" font-size="10.00">include/yaclib/lazy</text>
<text text-anchor="middle" x="2202.38" y="-72.25" font-family="Helvetica,sans-Serif" font-size="10.00">/make.hpp</text>
</a>
</g>
</g>
<!-- Node32&#45;&gt;Node34 -->
<g id="edge55_Node000032_Node000034" class="edge">
<title>Node32&#45;&gt;Node34</title>
<g id="a_edge55_Node000032_Node000034"><a xlink:title=" ">
<path fill="none" stroke="#63b8ff" d="M2032.66,-198.65C2078.41,-186.47 2135.9,-170.28 2145.38,-163.5 2169.52,-146.23 2187.06,-115.42 2195.9,-97.26"/>
<polygon fill="#63b8ff" stroke="#63b8ff" points="2031.85,-195.25 2023.08,-201.19 2033.65,-202.01 2031.85,-195.25"/>
</a>
</g>
</g>
<!-- Node35 -->
<g id="Node000035" class="node">
<title>Node35</title>
<g id="a_Node000035"><a xlink:href="schedule_8hpp.html" target="_top" xlink:title=" ">
<polygon fill="white" stroke="#666666" points="2286.38,-163.5 2192.38,-163.5 2192.38,-133 2286.38,-133 2286.38,-163.5"/>
<text text-anchor="start" x="2200.38" y="-150" font-family="Helvetica,sans-Serif" font-size="10.00">include/yaclib/lazy</text>
<text text-anchor="middle" x="2239.38" y="-138.75" font-family="Helvetica,sans-Serif" font-size="10.00">/schedule.hpp</text>
</a>
</g>
</g>
<!-- Node32&#45;&gt;Node35 -->
<g id="edge56_Node000032_Node000035" class="edge">
<title>Node32&#45;&gt;Node35</title>
<g id="a_edge56_Node000032_Node000035"><a xlink:title=" ">
<path fill="none" stroke="#63b8ff" d="M2032.6,-198.97C2092.96,-184.07 2152.03,-169.94 2192.02,-160.45"/>
<polygon fill="#63b8ff" stroke="#63b8ff" points="2032.06,-195.49 2023.19,-201.29 2033.74,-202.29 2032.06,-195.49"/>
</a>
</g>
</g>
<!-- Node36 -->
<g id="Node000036" class="node">
<title>Node36</title>
<g id="a_Node000036"><a xlink:href="task__impl_8cpp.html" target="_top" xlink:title=" ">
<polygon fill="white" stroke="#666666" points="2416.38,-157.88 2304.38,-157.88 2304.38,-138.62 2416.38,-138.62 2416.38,-157.88"/>
<text text-anchor="middle" x="2360.38" y="-144.38" font-family="Helvetica,sans-Serif" font-size="10.00">src/lazy/task_impl.cpp</text>
</a>
</g>
</g>
<!-- Node32&#45;&gt;Node36 -->
<g id="edge58_Node000032_Node000036" class="edge">
<title>Node32&#45;&gt;Node36</title>
<g id="a_edge58_Node000032_Node000036"><a xlink:title=" ">
<path fill="none" stroke="#63b8ff" d="M2032.78,-199.18C2149.02,-177.23 2181.88,-183.62 2295.38,-163.5 2303.79,-162.01 2312.78,-160.19 2321.29,-158.35"/>
<polygon fill="#63b8ff" stroke="#63b8ff" points="2032.29,-195.71 2023.13,-201.03 2033.61,-202.58 2032.29,-195.71"/>
</a>
</g>
</g>
<!-- Node35&#45;&gt;Node34 -->
<g id="edge57_Node000035_Node000034" class="edge">
<title>Node35&#45;&gt;Node34</title>
<g id="a_edge57_Node000035_Node000034"><a xlink:title=" ">
<path fill="none" stroke="#63b8ff" d="M2225.31,-122.73C2220.39,-114.16 2215.04,-104.82 2210.74,-97.33"/>
<polygon fill="#63b8ff" stroke="#63b8ff" points="2222.21,-124.37 2230.23,-131.3 2228.29,-120.89 2222.21,-124.37"/>
</a>
</g>
</g>
</g>
</svg>

<g id="navigator" transform="translate(0 0)" fill="#404254">
  <rect fill="#f2f5e9" fill-opacity="0.5" stroke="#606060" stroke-width=".5" x="0" y="0" width="60" height="60"/>
  <use id="zoomplus" xlink:href="#zoomPlus" x="17" y="9" onmousedown="handleZoom(evt,'in')"/>
  <use id="zoomminus" xlink:href="#zoomMin" x="42" y="9" onmousedown="handleZoom(evt,'out')"/>
  <use id="reset" xlink:href="#resetDef" x="30" y="36" onmousedown="handleReset()"/>
   <use id="arrowup" xlink:href="#arrowUp" x="0" y="0" onmousedown="handlePan(0,-1)"/>
  <use id="arrowright" xlink:href="#arrowRight" x="0" y="0" onmousedown="handlePan(1,0)"/>
  <use id="arrowdown" xlink:href="#arrowDown" x="0" y="0" onmousedown="handlePan(0,1)"/>
  <use id="arrowleft" xlink:href="#arrowLeft" x="0" y="0" onmousedown="handlePan(-1,0)"/>
</g>
<svg viewBox="0 0 15 15" width="100%" height="30px" preserveAspectRatio="xMaxYMin meet">
 <g id="arrow_out" transform="scale(0.3 0.3)">
  <a xlink:href="async_2future_8hpp__dep__incl_org.svg" target="_base">
   <rect id="button" ry="5" rx="5" y="6" x="6" height="38" width="38"
        fill="#f2f5e9" fill-opacity="0.5" stroke="#606060" stroke-width="1.0"/>
   <path id="arrow"
     d="M 11.500037,31.436501 C 11.940474,20.09759 22.043105,11.32322 32.158766,21.979434 L 37.068811,17.246167 C 37.068811,17.246167 37.088388,32 37.088388,32 L 22.160133,31.978069 C 22.160133,31.978069 26.997745,27.140456 26.997745,27.140456 C 18.528582,18.264221 13.291696,25.230495 11.500037,31.436501 z"
     style="fill:#404040;"/>
  </a>
 </g>
</svg>

<style type='text/css'>
<![CDATA[
[data-mouse-over-selected='false'] { opacity: 0.7; }
[data-mouse-over-selected='true']  { opacity: 1.0; }
]]>
</style>
<script type="application/ecmascript"><![CDATA[
document.addEventListener('DOMContentLoaded', (event) => {
  highlightEdges();
  highlightAdjacentNodes();
});
]]></script>
</svg>
