<?xml version="1.0" encoding="UTF-8" standalone="no"?>
<!DOCTYPE svg PUBLIC "-//W3C//DTD SVG 1.1//EN"
 "http://www.w3.org/Graphics/SVG/1.1/DTD/svg11.dtd">
<!-- Generated by graphviz version 9.0.0 (20230911.1827)
 -->
<!-- Title: include/yaclib/async/future.hpp Pages: 1 -->
<svg width="2259pt" height="305pt"
 viewBox="0.00 0.00 2259.38 304.50" xmlns="http://www.w3.org/2000/svg" xmlns:xlink="http://www.w3.org/1999/xlink">
<g id="graph0" class="graph" transform="scale(1 1) rotate(0) translate(4 300.5)">
<title>include/yaclib/async/future.hpp</title>
<!-- Node1 -->
<g id="Node000001" class="node">
<title>Node1</title>
<g id="a_Node000001"><a xlink:title=" ">
<polygon fill="#999999" stroke="#666666" points="1169.88,-296.5 1066.88,-296.5 1066.88,-266 1169.88,-266 1169.88,-296.5"/>
<text text-anchor="start" x="1074.88" y="-283" font-family="Helvetica,sans-Serif" font-size="10.00">include/yaclib/async</text>
<text text-anchor="middle" x="1118.38" y="-271.75" font-family="Helvetica,sans-Serif" font-size="10.00">/future.hpp</text>
</a>
</g>
</g>
<!-- Node2 -->
<g id="Node000002" class="node">
<title>Node2</title>
<g id="a_Node000002"><a xlink:href="wait__group_8hpp.html" target="_top" xlink:title=" ">
<polygon fill="white" stroke="#666666" points="113.12,-230 17.62,-230 17.62,-199.5 113.12,-199.5 113.12,-230"/>
<text text-anchor="start" x="25.62" y="-216.5" font-family="Helvetica,sans-Serif" font-size="10.00">include/yaclib/algo</text>
<text text-anchor="middle" x="65.38" y="-205.25" font-family="Helvetica,sans-Serif" font-size="10.00">/wait_group.hpp</text>
</a>
</g>
</g>
<!-- Node1&#45;&gt;Node2 -->
<g id="edge1_Node000001_Node000002" class="edge">
<title>Node1&#45;&gt;Node2</title>
<g id="a_edge1_Node000001_Node000002"><a xlink:title=" ">
<path fill="none" stroke="#63b8ff" d="M1055.25,-280.49C898.42,-280.35 478.69,-275.36 132.38,-230 126.24,-229.2 119.84,-228.13 113.52,-226.95"/>
<polygon fill="#63b8ff" stroke="#63b8ff" points="1055.01,-283.99 1065.01,-280.5 1055.02,-276.99 1055.01,-283.99"/>
</a>
</g>
</g>
<!-- Node4 -->
<g id="Node000004" class="node">
<title>Node4</title>
<g id="a_Node000004"><a xlink:href="connect_8hpp.html" target="_top" xlink:title=" ">
<polygon fill="white" stroke="#666666" points="401.88,-97 298.88,-97 298.88,-66.5 401.88,-66.5 401.88,-97"/>
<text text-anchor="start" x="306.88" y="-83.5" font-family="Helvetica,sans-Serif" font-size="10.00">include/yaclib/async</text>
<text text-anchor="middle" x="350.38" y="-72.25" font-family="Helvetica,sans-Serif" font-size="10.00">/connect.hpp</text>
</a>
</g>
</g>
<!-- Node1&#45;&gt;Node4 -->
<g id="edge3_Node000001_Node000004" class="edge">
<title>Node1&#45;&gt;Node4</title>
<g id="a_edge3_Node000001_Node000004"><a xlink:title=" ">
<path fill="none" stroke="#63b8ff" d="M1055.18,-280.89C916.11,-281.38 588.1,-277.32 489.38,-230 426.61,-199.91 377.78,-128.28 358.88,-97.37"/>
<polygon fill="#63b8ff" stroke="#63b8ff" points="1054.95,-284.39 1064.94,-280.84 1054.92,-277.39 1054.95,-284.39"/>
</a>
</g>
</g>
<!-- Node6 -->
<g id="Node000006" class="node">
<title>Node6</title>
<g id="a_Node000006"><a xlink:href="split_8hpp.html" target="_top" xlink:title=" ">
<polygon fill="white" stroke="#666666" points="278.88,-30.5 175.88,-30.5 175.88,0 278.88,0 278.88,-30.5"/>
<text text-anchor="start" x="183.88" y="-17" font-family="Helvetica,sans-Serif" font-size="10.00">include/yaclib/async</text>
<text text-anchor="middle" x="227.38" y="-5.75" font-family="Helvetica,sans-Serif" font-size="10.00">/split.hpp</text>
</a>
</g>
</g>
<!-- Node1&#45;&gt;Node6 -->
<g id="edge21_Node000001_Node000006" class="edge">
<title>Node1&#45;&gt;Node6</title>
<g id="a_edge21_Node000001_Node000006"><a xlink:title=" ">
<path fill="none" stroke="#63b8ff" d="M1055.51,-278.6C910.33,-274.3 555.39,-260.87 440.38,-230 309.25,-194.81 237.51,-212.02 165.38,-97 158.17,-85.52 159.54,-78.74 165.38,-66.5 172.59,-51.37 186.83,-39.31 199.85,-30.81"/>
<polygon fill="#63b8ff" stroke="#63b8ff" points="1055.22,-282.09 1065.32,-278.88 1055.42,-275.09 1055.22,-282.09"/>
</a>
</g>
</g>
<!-- Node7 -->
<g id="Node000007" class="node">
<title>Node7</title>
<g id="a_Node000007"><a xlink:href="contract_8hpp.html" target="_top" xlink:title=" ">
<polygon fill="white" stroke="#666666" points="1009.88,-230 906.88,-230 906.88,-199.5 1009.88,-199.5 1009.88,-230"/>
<text text-anchor="start" x="914.88" y="-216.5" font-family="Helvetica,sans-Serif" font-size="10.00">include/yaclib/async</text>
<text text-anchor="middle" x="958.38" y="-205.25" font-family="Helvetica,sans-Serif" font-size="10.00">/contract.hpp</text>
</a>
</g>
</g>
<!-- Node1&#45;&gt;Node7 -->
<g id="edge6_Node000001_Node000007" class="edge">
<title>Node1&#45;&gt;Node7</title>
<g id="a_edge6_Node000001_Node000007"><a xlink:title=" ">
<path fill="none" stroke="#63b8ff" d="M1071.57,-261.38C1047.09,-251.51 1017.57,-239.61 994.81,-230.44"/>
<polygon fill="#63b8ff" stroke="#63b8ff" points="1070.08,-264.56 1080.66,-265.05 1072.7,-258.06 1070.08,-264.56"/>
</a>
</g>
</g>
<!-- Node14 -->
<g id="Node000014" class="node">
<title>Node14</title>
<g id="a_Node000014"><a xlink:href="simple_8cpp.html" target="_top" xlink:title=" ">
<polygon fill="white" stroke="#666666" points="846.38,-30.5 746.38,-30.5 746.38,0 846.38,0 846.38,-30.5"/>
<text text-anchor="start" x="754.38" y="-17" font-family="Helvetica,sans-Serif" font-size="10.00">test/example/async</text>
<text text-anchor="middle" x="796.38" y="-5.75" font-family="Helvetica,sans-Serif" font-size="10.00">/simple.cpp</text>
</a>
</g>
</g>
<!-- Node1&#45;&gt;Node14 -->
<g id="edge56_Node000001_Node000014" class="edge">
<title>Node1&#45;&gt;Node14</title>
<g id="a_edge56_Node000001_Node000014"><a xlink:title=" ">
<path fill="none" stroke="#63b8ff" d="M1055.2,-278.09C933.47,-273.27 676.02,-259.65 649.38,-230 617.69,-194.74 737.5,-72.95 781.09,-30.77"/>
<polygon fill="#63b8ff" stroke="#63b8ff" points="1054.9,-281.58 1065.03,-278.47 1055.17,-274.58 1054.9,-281.58"/>
</a>
</g>
</g>
<!-- Node15 -->
<g id="Node000015" class="node">
<title>Node15</title>
<g id="a_Node000015"><a xlink:href="when__impl_8hpp.html" target="_top" xlink:title=" ">
<polygon fill="white" stroke="#666666" points="768.25,-230 658.5,-230 658.5,-199.5 768.25,-199.5 768.25,-230"/>
<text text-anchor="start" x="666.5" y="-216.5" font-family="Helvetica,sans-Serif" font-size="10.00">include/yaclib/async</text>
<text text-anchor="middle" x="713.38" y="-205.25" font-family="Helvetica,sans-Serif" font-size="10.00">/detail/when_impl.hpp</text>
</a>
</g>
</g>
<!-- Node1&#45;&gt;Node15 -->
<g id="edge15_Node000001_Node000015" class="edge">
<title>Node1&#45;&gt;Node15</title>
<g id="a_edge15_Node000001_Node000015"><a xlink:title=" ">
<path fill="none" stroke="#63b8ff" d="M1055.54,-272.49C986.76,-263.64 873.34,-248.06 776.38,-230 773.84,-229.53 771.25,-229.03 768.64,-228.5"/>
<polygon fill="#63b8ff" stroke="#63b8ff" points="1054.74,-275.91 1065.1,-273.71 1055.63,-268.97 1054.74,-275.91"/>
</a>
</g>
</g>
<!-- Node16 -->
<g id="Node000016" class="node">
<title>Node16</title>
<g id="a_Node000016"><a xlink:href="async_2make_8hpp.html" target="_top" xlink:title=" ">
<polygon fill="white" stroke="#666666" points="888.88,-230 785.88,-230 785.88,-199.5 888.88,-199.5 888.88,-230"/>
<text text-anchor="start" x="793.88" y="-216.5" font-family="Helvetica,sans-Serif" font-size="10.00">include/yaclib/async</text>
<text text-anchor="middle" x="837.38" y="-205.25" font-family="Helvetica,sans-Serif" font-size="10.00">/make.hpp</text>
</a>
</g>
</g>
<!-- Node1&#45;&gt;Node16 -->
<g id="edge16_Node000001_Node000016" class="edge">
<title>Node1&#45;&gt;Node16</title>
<g id="a_edge16_Node000001_Node000016"><a xlink:title=" ">
<path fill="none" stroke="#63b8ff" d="M1055.38,-266.1C1011.14,-256.11 950.61,-242.37 897.38,-230 894.66,-229.37 891.88,-228.72 889.08,-228.06"/>
<polygon fill="#63b8ff" stroke="#63b8ff" points="1054.54,-269.49 1065.07,-268.28 1056.08,-262.67 1054.54,-269.49"/>
</a>
</g>
</g>
<!-- Node17 -->
<g id="Node000017" class="node">
<title>Node17</title>
<g id="a_Node000017"><a xlink:href="run_8hpp.html" target="_top" xlink:title=" ">
<polygon fill="white" stroke="#666666" points="927.88,-97 824.88,-97 824.88,-66.5 927.88,-66.5 927.88,-97"/>
<text text-anchor="start" x="832.88" y="-83.5" font-family="Helvetica,sans-Serif" font-size="10.00">include/yaclib/async</text>
<text text-anchor="middle" x="876.38" y="-72.25" font-family="Helvetica,sans-Serif" font-size="10.00">/run.hpp</text>
</a>
</g>
</g>
<!-- Node1&#45;&gt;Node17 -->
<g id="edge17_Node000001_Node000017" class="edge">
<title>Node1&#45;&gt;Node17</title>
<g id="a_edge17_Node000001_Node000017"><a xlink:title=" ">
<path fill="none" stroke="#63b8ff" d="M1091.69,-258.47C1041.94,-217.87 936.27,-131.63 894.2,-97.29"/>
<polygon fill="#63b8ff" stroke="#63b8ff" points="1089.45,-261.16 1099.41,-264.77 1093.87,-255.74 1089.45,-261.16"/>
</a>
</g>
</g>
<!-- Node18 -->
<g id="Node000018" class="node">
<title>Node18</title>
<g id="a_Node000018"><a xlink:href="wait_8hpp.html" target="_top" xlink:title=" ">
<polygon fill="white" stroke="#666666" points="601.88,-230 498.88,-230 498.88,-199.5 601.88,-199.5 601.88,-230"/>
<text text-anchor="start" x="506.88" y="-216.5" font-family="Helvetica,sans-Serif" font-size="10.00">include/yaclib/async</text>
<text text-anchor="middle" x="550.38" y="-205.25" font-family="Helvetica,sans-Serif" font-size="10.00">/wait.hpp</text>
</a>
</g>
</g>
<!-- Node1&#45;&gt;Node18 -->
<g id="edge22_Node000001_Node000018" class="edge">
<title>Node1&#45;&gt;Node18</title>
<g id="a_edge22_Node000001_Node000018"><a xlink:title=" ">
<path fill="none" stroke="#63b8ff" d="M1055.25,-276.61C958.28,-270.22 767.42,-255.21 607.38,-230 605.64,-229.73 603.88,-229.44 602.11,-229.13"/>
<polygon fill="#63b8ff" stroke="#63b8ff" points="1054.89,-280.1 1065.1,-277.25 1055.34,-273.11 1054.89,-280.1"/>
</a>
</g>
</g>
<!-- Node23 -->
<g id="Node000023" class="node">
<title>Node23</title>
<g id="a_Node000023"><a xlink:href="wait__for_8hpp.html" target="_top" xlink:title=" ">
<polygon fill="white" stroke="#666666" points="1169.88,-230 1066.88,-230 1066.88,-199.5 1169.88,-199.5 1169.88,-230"/>
<text text-anchor="start" x="1074.88" y="-216.5" font-family="Helvetica,sans-Serif" font-size="10.00">include/yaclib/async</text>
<text text-anchor="middle" x="1118.38" y="-205.25" font-family="Helvetica,sans-Serif" font-size="10.00">/wait_for.hpp</text>
</a>
</g>
</g>
<!-- Node1&#45;&gt;Node23 -->
<g id="edge32_Node000001_Node000023" class="edge">
<title>Node1&#45;&gt;Node23</title>
<g id="a_edge32_Node000001_Node000023"><a xlink:title=" ">
<path fill="none" stroke="#63b8ff" d="M1118.38,-254.31C1118.38,-246.14 1118.38,-237.41 1118.38,-230.33"/>
<polygon fill="#63b8ff" stroke="#63b8ff" points="1114.88,-254.1 1118.38,-264.1 1121.88,-254.1 1114.88,-254.1"/>
</a>
</g>
</g>
<!-- Node24 -->
<g id="Node000024" class="node">
<title>Node24</title>
<g id="a_Node000024"><a xlink:href="wait__until_8hpp.html" target="_top" xlink:title=" ">
<polygon fill="white" stroke="#666666" points="1290.88,-230 1187.88,-230 1187.88,-199.5 1290.88,-199.5 1290.88,-230"/>
<text text-anchor="start" x="1195.88" y="-216.5" font-family="Helvetica,sans-Serif" font-size="10.00">include/yaclib/async</text>
<text text-anchor="middle" x="1239.38" y="-205.25" font-family="Helvetica,sans-Serif" font-size="10.00">/wait_until.hpp</text>
</a>
</g>
</g>
<!-- Node1&#45;&gt;Node24 -->
<g id="edge33_Node000001_Node000024" class="edge">
<title>Node1&#45;&gt;Node24</title>
<g id="a_edge33_Node000001_Node000024"><a xlink:title=" ">
<path fill="none" stroke="#63b8ff" d="M1155.81,-260.29C1173.98,-250.61 1195.42,-239.18 1212.03,-230.33"/>
<polygon fill="#63b8ff" stroke="#63b8ff" points="1154.35,-257.11 1147.17,-264.9 1157.64,-263.29 1154.35,-257.11"/>
</a>
</g>
</g>
<!-- Node25 -->
<g id="Node000025" class="node">
<title>Node25</title>
<g id="a_Node000025"><a xlink:href="await_8hpp.html" target="_top" xlink:title=" ">
<polygon fill="white" stroke="#666666" points="1519.5,-30.5 1423.25,-30.5 1423.25,0 1519.5,0 1519.5,-30.5"/>
<text text-anchor="start" x="1431.25" y="-17" font-family="Helvetica,sans-Serif" font-size="10.00">include/yaclib/coro</text>
<text text-anchor="middle" x="1471.38" y="-5.75" font-family="Helvetica,sans-Serif" font-size="10.00">/await.hpp</text>
</a>
</g>
</g>
<!-- Node1&#45;&gt;Node25 -->
<g id="edge34_Node000001_Node000025" class="edge">
<title>Node1&#45;&gt;Node25</title>
<g id="a_edge34_Node000001_Node000025"><a xlink:title=" ">
<path fill="none" stroke="#63b8ff" d="M1181.64,-278.35C1220.7,-273.8 1268.99,-261.52 1299.38,-230 1351.22,-176.22 1289.01,-122.57 1338.38,-66.5 1359.82,-42.14 1394.33,-29.54 1422.82,-23.06"/>
<polygon fill="#63b8ff" stroke="#63b8ff" points="1181.47,-274.85 1171.87,-279.33 1182.17,-281.82 1181.47,-274.85"/>
</a>
</g>
</g>
<!-- Node26 -->
<g id="Node000026" class="node">
<title>Node26</title>
<g id="a_Node000026"><a xlink:href="await__inline_8hpp.html" target="_top" xlink:title=" ">
<polygon fill="white" stroke="#666666" points="1595.5,-97 1499.25,-97 1499.25,-66.5 1595.5,-66.5 1595.5,-97"/>
<text text-anchor="start" x="1507.25" y="-83.5" font-family="Helvetica,sans-Serif" font-size="10.00">include/yaclib/coro</text>
<text text-anchor="middle" x="1547.38" y="-72.25" font-family="Helvetica,sans-Serif" font-size="10.00">/await_inline.hpp</text>
</a>
</g>
</g>
<!-- Node1&#45;&gt;Node26 -->
<g id="edge35_Node000001_Node000026" class="edge">
<title>Node1&#45;&gt;Node26</title>
<g id="a_edge35_Node000001_Node000026"><a xlink:title=" ">
<path fill="none" stroke="#63b8ff" d="M1181.56,-275.6C1240.64,-269.76 1330.59,-257.02 1404.38,-230 1459.46,-209.83 1480.87,-208.6 1518.38,-163.5 1534.57,-144.03 1542.04,-114.81 1545.24,-97.37"/>
<polygon fill="#63b8ff" stroke="#63b8ff" points="1181.3,-272.11 1171.67,-276.54 1181.96,-279.08 1181.3,-272.11"/>
</a>
</g>
</g>
<!-- Node27 -->
<g id="Node000027" class="node">
<title>Node27</title>
<g id="a_Node000027"><a xlink:href="await__on_8hpp.html" target="_top" xlink:title=" ">
<polygon fill="white" stroke="#666666" points="1715.5,-97 1619.25,-97 1619.25,-66.5 1715.5,-66.5 1715.5,-97"/>
<text text-anchor="start" x="1627.25" y="-83.5" font-family="Helvetica,sans-Serif" font-size="10.00">include/yaclib/coro</text>
<text text-anchor="middle" x="1667.38" y="-72.25" font-family="Helvetica,sans-Serif" font-size="10.00">/await_on.hpp</text>
</a>
</g>
</g>
<!-- Node1&#45;&gt;Node27 -->
<g id="edge37_Node000001_Node000027" class="edge">
<title>Node1&#45;&gt;Node27</title>
<g id="a_edge37_Node000001_Node000027"><a xlink:title=" ">
<path fill="none" stroke="#63b8ff" d="M1181.3,-279.5C1250.93,-276.73 1365.31,-266.39 1456.38,-230 1525.99,-202.18 1532.83,-175.81 1594.38,-133 1611.68,-120.96 1631.37,-107.42 1645.94,-97.43"/>
<polygon fill="#63b8ff" stroke="#63b8ff" points="1181.49,-275.99 1171.62,-279.84 1181.73,-282.99 1181.49,-275.99"/>
</a>
</g>
</g>
<!-- Node28 -->
<g id="Node000028" class="node">
<title>Node28</title>
<g id="a_Node000028"><a xlink:href="await__sticky_8hpp.html" target="_top" xlink:title=" ">
<polygon fill="white" stroke="#666666" points="1443.5,-97 1347.25,-97 1347.25,-66.5 1443.5,-66.5 1443.5,-97"/>
<text text-anchor="start" x="1355.25" y="-83.5" font-family="Helvetica,sans-Serif" font-size="10.00">include/yaclib/coro</text>
<text text-anchor="middle" x="1395.38" y="-72.25" font-family="Helvetica,sans-Serif" font-size="10.00">/await_sticky.hpp</text>
</a>
</g>
</g>
<!-- Node1&#45;&gt;Node28 -->
<g id="edge38_Node000001_Node000028" class="edge">
<title>Node1&#45;&gt;Node28</title>
<g id="a_edge38_Node000001_Node000028"><a xlink:title=" ">
<path fill="none" stroke="#63b8ff" d="M1180.95,-272.03C1235.91,-263.68 1310.56,-249.25 1333.38,-230 1338.81,-225.42 1375.3,-133.75 1389.62,-97.41"/>
<polygon fill="#63b8ff" stroke="#63b8ff" points="1180.77,-268.52 1171.39,-273.44 1181.8,-275.44 1180.77,-268.52"/>
</a>
</g>
</g>
<!-- Node29 -->
<g id="Node000029" class="node">
<title>Node29</title>
<g id="a_Node000029"><a xlink:href="await__awaiter_8hpp.html" target="_top" xlink:title=" ">
<polygon fill="white" stroke="#666666" points="1509,-163.5 1385.75,-163.5 1385.75,-133 1509,-133 1509,-163.5"/>
<text text-anchor="start" x="1393.75" y="-150" font-family="Helvetica,sans-Serif" font-size="10.00">include/yaclib/coro</text>
<text text-anchor="middle" x="1447.38" y="-138.75" font-family="Helvetica,sans-Serif" font-size="10.00">/detail/await_awaiter.hpp</text>
</a>
</g>
</g>
<!-- Node1&#45;&gt;Node29 -->
<g id="edge39_Node000001_Node000029" class="edge">
<title>Node1&#45;&gt;Node29</title>
<g id="a_edge39_Node000001_Node000029"><a xlink:title=" ">
<path fill="none" stroke="#63b8ff" d="M1181.37,-278.36C1234.91,-274.35 1312.25,-262.75 1371.38,-230 1400.68,-213.77 1425.26,-182.3 1438,-163.8"/>
<polygon fill="#63b8ff" stroke="#63b8ff" points="1181.24,-274.86 1171.5,-279.02 1181.71,-281.84 1181.24,-274.86"/>
</a>
</g>
</g>
<!-- Node30 -->
<g id="Node000030" class="node">
<title>Node30</title>
<g id="a_Node000030"><a xlink:href="await__on__awaiter_8hpp.html" target="_top" xlink:title=" ">
<polygon fill="white" stroke="#666666" points="1742.88,-163.5 1603.88,-163.5 1603.88,-133 1742.88,-133 1742.88,-163.5"/>
<text text-anchor="start" x="1611.88" y="-150" font-family="Helvetica,sans-Serif" font-size="10.00">include/yaclib/coro</text>
<text text-anchor="middle" x="1673.38" y="-138.75" font-family="Helvetica,sans-Serif" font-size="10.00">/detail/await_on_awaiter.hpp</text>
</a>
</g>
</g>
<!-- Node1&#45;&gt;Node30 -->
<g id="edge43_Node000001_Node000030" class="edge">
<title>Node1&#45;&gt;Node30</title>
<g id="a_edge43_Node000001_Node000030"><a xlink:title=" ">
<path fill="none" stroke="#63b8ff" d="M1181.56,-278.55C1292.78,-274.72 1518.46,-263.04 1589.38,-230 1621.46,-215.05 1648.93,-182.81 1663.11,-163.9"/>
<polygon fill="#63b8ff" stroke="#63b8ff" points="1181.59,-275.04 1171.71,-278.87 1181.82,-282.04 1181.59,-275.04"/>
</a>
</g>
</g>
<!-- Node31 -->
<g id="Node000031" class="node">
<title>Node31</title>
<g id="a_Node000031"><a xlink:href="coro_2future_8hpp.html" target="_top" xlink:title=" ">
<polygon fill="white" stroke="#666666" points="1857.5,-163.5 1761.25,-163.5 1761.25,-133 1857.5,-133 1857.5,-163.5"/>
<text text-anchor="start" x="1769.25" y="-150" font-family="Helvetica,sans-Serif" font-size="10.00">include/yaclib/coro</text>
<text text-anchor="middle" x="1809.38" y="-138.75" font-family="Helvetica,sans-Serif" font-size="10.00">/future.hpp</text>
</a>
</g>
</g>
<!-- Node1&#45;&gt;Node31 -->
<g id="edge45_Node000001_Node000031" class="edge">
<title>Node1&#45;&gt;Node31</title>
<g id="a_edge45_Node000001_Node000031"><a xlink:title=" ">
<path fill="none" stroke="#63b8ff" d="M1181.65,-280.25C1278.55,-278.86 1468.83,-270.59 1624.38,-230 1683.55,-214.56 1748.01,-182.65 1783.05,-163.9"/>
<polygon fill="#63b8ff" stroke="#63b8ff" points="1181.77,-276.75 1171.81,-280.37 1181.86,-283.75 1181.77,-276.75"/>
</a>
</g>
</g>
<!-- Node32 -->
<g id="Node000032" class="node">
<title>Node32</title>
<g id="a_Node000032"><a xlink:href="lazy_2task_8hpp.html" target="_top" xlink:title=" ">
<polygon fill="white" stroke="#666666" points="1856.38,-230 1762.38,-230 1762.38,-199.5 1856.38,-199.5 1856.38,-230"/>
<text text-anchor="start" x="1770.38" y="-216.5" font-family="Helvetica,sans-Serif" font-size="10.00">include/yaclib/lazy</text>
<text text-anchor="middle" x="1809.38" y="-205.25" font-family="Helvetica,sans-Serif" font-size="10.00">/task.hpp</text>
</a>
</g>
</g>
<!-- Node1&#45;&gt;Node32 -->
<g id="edge46_Node000001_Node000032" class="edge">
<title>Node1&#45;&gt;Node32</title>
<g id="a_edge46_Node000001_Node000032"><a xlink:title=" ">
<path fill="none" stroke="#63b8ff" d="M1181.8,-277.5C1294.18,-272.09 1535.48,-258.08 1737.38,-230 1745.45,-228.88 1753.99,-227.42 1762.26,-225.88"/>
<polygon fill="#63b8ff" stroke="#63b8ff" points="1181.69,-274 1171.87,-277.97 1182.03,-280.99 1181.69,-274"/>
</a>
</g>
</g>
<!-- Node37 -->
<g id="Node000037" class="node">
<title>Node37</title>
<g id="a_Node000037"><a xlink:href="future__impl_8cpp.html" target="_top" xlink:title=" ">
<polygon fill="white" stroke="#666666" points="2001.88,-224.38 1874.88,-224.38 1874.88,-205.12 2001.88,-205.12 2001.88,-224.38"/>
<text text-anchor="middle" x="1938.38" y="-210.88" font-family="Helvetica,sans-Serif" font-size="10.00">src/async/future_impl.cpp</text>
</a>
</g>
</g>
<!-- Node1&#45;&gt;Node37 -->
<g id="edge55_Node000001_Node000037" class="edge">
<title>Node1&#45;&gt;Node37</title>
<g id="a_edge55_Node000001_Node000037"><a xlink:title=" ">
<path fill="none" stroke="#63b8ff" d="M1181.41,-278.68C1310.33,-274.88 1613.28,-262.95 1865.38,-230 1875.49,-228.68 1886.31,-226.81 1896.45,-224.87"/>
<polygon fill="#63b8ff" stroke="#63b8ff" points="1181.62,-275.17 1171.73,-278.96 1181.83,-282.17 1181.62,-275.17"/>
</a>
</g>
</g>
<!-- Node3 -->
<g id="Node000003" class="node">
<title>Node3</title>
<g id="a_Node000003"><a xlink:href="wait__group_8cpp.html" target="_top" xlink:title=" ">
<polygon fill="white" stroke="#666666" points="118.75,-157.88 0,-157.88 0,-138.62 118.75,-138.62 118.75,-157.88"/>
<text text-anchor="middle" x="59.38" y="-144.38" font-family="Helvetica,sans-Serif" font-size="10.00">src/algo/wait_group.cpp</text>
</a>
</g>
</g>
<!-- Node2&#45;&gt;Node3 -->
<g id="edge2_Node000002_Node000003" class="edge">
<title>Node2&#45;&gt;Node3</title>
<g id="a_edge2_Node000002_Node000003"><a xlink:title=" ">
<path fill="none" stroke="#63b8ff" d="M62.96,-187.84C61.98,-177.26 60.91,-165.75 60.2,-158.07"/>
<polygon fill="#63b8ff" stroke="#63b8ff" points="59.46,-187.97 63.87,-197.61 66.43,-187.33 59.46,-187.97"/>
</a>
</g>
</g>
<!-- Node5 -->
<g id="Node000005" class="node">
<title>Node5</title>
<g id="a_Node000005"><a xlink:href="share_8hpp.html" target="_top" xlink:title=" ">
<polygon fill="white" stroke="#666666" points="481.88,-30.5 378.88,-30.5 378.88,0 481.88,0 481.88,-30.5"/>
<text text-anchor="start" x="386.88" y="-17" font-family="Helvetica,sans-Serif" font-size="10.00">include/yaclib/async</text>
<text text-anchor="middle" x="430.38" y="-5.75" font-family="Helvetica,sans-Serif" font-size="10.00">/share.hpp</text>
</a>
</g>
</g>
<!-- Node4&#45;&gt;Node5 -->
<g id="edge4_Node000004_Node000005" class="edge">
<title>Node4&#45;&gt;Node5</title>
<g id="a_edge4_Node000004_Node000005"><a xlink:title=" ">
<path fill="none" stroke="#63b8ff" d="M377.33,-59.02C388.84,-49.73 401.98,-39.15 412.29,-30.83"/>
<polygon fill="#63b8ff" stroke="#63b8ff" points="375.29,-56.16 369.71,-65.16 379.69,-61.61 375.29,-56.16"/>
</a>
</g>
</g>
<!-- Node4&#45;&gt;Node6 -->
<g id="edge5_Node000004_Node000006" class="edge">
<title>Node4&#45;&gt;Node6</title>
<g id="a_edge5_Node000004_Node000006"><a xlink:title=" ">
<path fill="none" stroke="#63b8ff" d="M312.32,-60.79C293.85,-51.11 272.06,-39.68 255.18,-30.83"/>
<polygon fill="#63b8ff" stroke="#63b8ff" points="310.64,-63.87 321.12,-65.41 313.89,-57.67 310.64,-63.87"/>
</a>
</g>
</g>
<!-- Node7&#45;&gt;Node5 -->
<g id="edge7_Node000007_Node000005" class="edge">
<title>Node7&#45;&gt;Node5</title>
<g id="a_edge7_Node000007_Node000005"><a xlink:title=" ">
<path fill="none" stroke="#63b8ff" d="M908.04,-194.72C886.98,-186.1 862.54,-175.22 841.38,-163.5 775.16,-126.82 771.25,-95.6 701.38,-66.5 628.93,-36.33 538.09,-24.19 482.15,-19.37"/>
<polygon fill="#63b8ff" stroke="#63b8ff" points="906.72,-197.96 917.31,-198.45 909.34,-191.47 906.72,-197.96"/>
</a>
</g>
</g>
<!-- Node8 -->
<g id="Node000008" class="node">
<title>Node8</title>
<g id="a_Node000008"><a xlink:href="when_8hpp.html" target="_top" xlink:title=" ">
<polygon fill="white" stroke="#666666" points="1169.88,-163.5 1066.88,-163.5 1066.88,-133 1169.88,-133 1169.88,-163.5"/>
<text text-anchor="start" x="1074.88" y="-150" font-family="Helvetica,sans-Serif" font-size="10.00">include/yaclib/async</text>
<text text-anchor="middle" x="1118.38" y="-138.75" font-family="Helvetica,sans-Serif" font-size="10.00">/when/when.hpp</text>
</a>
</g>
</g>
<!-- Node7&#45;&gt;Node8 -->
<g id="edge8_Node000007_Node000008" class="edge">
<title>Node7&#45;&gt;Node8</title>
<g id="a_edge8_Node000007_Node000008"><a xlink:title=" ">
<path fill="none" stroke="#63b8ff" d="M1005.18,-194.88C1029.66,-185.01 1059.18,-173.11 1081.94,-163.94"/>
<polygon fill="#63b8ff" stroke="#63b8ff" points="1004.05,-191.56 996.09,-198.55 1006.67,-198.06 1004.05,-191.56"/>
</a>
</g>
</g>
<!-- Node7&#45;&gt;Node14 -->
<g id="edge14_Node000007_Node000014" class="edge">
<title>Node7&#45;&gt;Node14</title>
<g id="a_edge14_Node000007_Node000014"><a xlink:title=" ">
<path fill="none" stroke="#63b8ff" d="M921.44,-193.23C888.55,-173.03 841.7,-139.12 815.38,-97 802.48,-76.36 798.33,-47.78 797,-30.74"/>
<polygon fill="#63b8ff" stroke="#63b8ff" points="919.48,-196.14 929.86,-198.28 923.08,-190.13 919.48,-196.14"/>
</a>
</g>
</g>
<!-- Node9 -->
<g id="Node000009" class="node">
<title>Node9</title>
<g id="a_Node000009"><a xlink:href="join_8hpp.html" target="_top" xlink:title=" ">
<polygon fill="white" stroke="#666666" points="1048.88,-97 945.88,-97 945.88,-66.5 1048.88,-66.5 1048.88,-97"/>
<text text-anchor="start" x="953.88" y="-83.5" font-family="Helvetica,sans-Serif" font-size="10.00">include/yaclib/async</text>
<text text-anchor="middle" x="997.38" y="-72.25" font-family="Helvetica,sans-Serif" font-size="10.00">/join.hpp</text>
</a>
</g>
</g>
<!-- Node8&#45;&gt;Node9 -->
<g id="edge9_Node000008_Node000009" class="edge">
<title>Node8&#45;&gt;Node9</title>
<g id="a_edge9_Node000008_Node000009"><a xlink:title=" ">
<path fill="none" stroke="#63b8ff" d="M1080.94,-127.29C1062.77,-117.61 1041.33,-106.18 1024.72,-97.33"/>
<polygon fill="#63b8ff" stroke="#63b8ff" points="1079.11,-130.29 1089.58,-131.9 1082.4,-124.11 1079.11,-130.29"/>
</a>
</g>
</g>
<!-- Node10 -->
<g id="Node000010" class="node">
<title>Node10</title>
<g id="a_Node000010"><a xlink:href="when__all_8hpp.html" target="_top" xlink:title=" ">
<polygon fill="white" stroke="#666666" points="1169.88,-97 1066.88,-97 1066.88,-66.5 1169.88,-66.5 1169.88,-97"/>
<text text-anchor="start" x="1074.88" y="-83.5" font-family="Helvetica,sans-Serif" font-size="10.00">include/yaclib/async</text>
<text text-anchor="middle" x="1118.38" y="-72.25" font-family="Helvetica,sans-Serif" font-size="10.00">/when_all.hpp</text>
</a>
</g>
</g>
<!-- Node8&#45;&gt;Node10 -->
<g id="edge10_Node000008_Node000010" class="edge">
<title>Node8&#45;&gt;Node10</title>
<g id="a_edge10_Node000008_Node000010"><a xlink:title=" ">
<path fill="none" stroke="#63b8ff" d="M1118.38,-121.31C1118.38,-113.14 1118.38,-104.41 1118.38,-97.33"/>
<polygon fill="#63b8ff" stroke="#63b8ff" points="1114.88,-121.1 1118.38,-131.1 1121.88,-121.1 1114.88,-121.1"/>
</a>
</g>
</g>
<!-- Node12 -->
<g id="Node000012" class="node">
<title>Node12</title>
<g id="a_Node000012"><a xlink:href="when__any_8hpp.html" target="_top" xlink:title=" ">
<polygon fill="white" stroke="#666666" points="1290.88,-97 1187.88,-97 1187.88,-66.5 1290.88,-66.5 1290.88,-97"/>
<text text-anchor="start" x="1195.88" y="-83.5" font-family="Helvetica,sans-Serif" font-size="10.00">include/yaclib/async</text>
<text text-anchor="middle" x="1239.38" y="-72.25" font-family="Helvetica,sans-Serif" font-size="10.00">/when_any.hpp</text>
</a>
</g>
</g>
<!-- Node8&#45;&gt;Node12 -->
<g id="edge12_Node000008_Node000012" class="edge">
<title>Node8&#45;&gt;Node12</title>
<g id="a_edge12_Node000008_Node000012"><a xlink:title=" ">
<path fill="none" stroke="#63b8ff" d="M1155.81,-127.29C1173.98,-117.61 1195.42,-106.18 1212.03,-97.33"/>
<polygon fill="#63b8ff" stroke="#63b8ff" points="1154.35,-124.11 1147.17,-131.9 1157.64,-130.29 1154.35,-124.11"/>
</a>
</g>
</g>
<!-- Node11 -->
<g id="Node000011" class="node">
<title>Node11</title>
<g id="a_Node000011"><a xlink:href="when__all_8cpp.html" target="_top" xlink:title=" ">
<polygon fill="white" stroke="#666666" points="1066.38,-30.5 966.38,-30.5 966.38,0 1066.38,0 1066.38,-30.5"/>
<text text-anchor="start" x="974.38" y="-17" font-family="Helvetica,sans-Serif" font-size="10.00">test/example/async</text>
<text text-anchor="middle" x="1016.38" y="-5.75" font-family="Helvetica,sans-Serif" font-size="10.00">/when_all.cpp</text>
</a>
</g>
</g>
<!-- Node10&#45;&gt;Node11 -->
<g id="edge11_Node000010_Node000011" class="edge">
<title>Node10&#45;&gt;Node11</title>
<g id="a_edge11_Node000010_Node000011"><a xlink:title=" ">
<path fill="none" stroke="#63b8ff" d="M1085.74,-60.11C1070.66,-50.58 1053.1,-39.48 1039.43,-30.83"/>
<polygon fill="#63b8ff" stroke="#63b8ff" points="1083.63,-62.92 1093.95,-65.31 1087.37,-57 1083.63,-62.92"/>
</a>
</g>
</g>
<!-- Node13 -->
<g id="Node000013" class="node">
<title>Node13</title>
<g id="a_Node000013"><a xlink:href="when__any_8cpp.html" target="_top" xlink:title=" ">
<polygon fill="white" stroke="#666666" points="1288.38,-30.5 1188.38,-30.5 1188.38,0 1288.38,0 1288.38,-30.5"/>
<text text-anchor="start" x="1196.38" y="-17" font-family="Helvetica,sans-Serif" font-size="10.00">test/example/async</text>
<text text-anchor="middle" x="1238.38" y="-5.75" font-family="Helvetica,sans-Serif" font-size="10.00">/when_any.cpp</text>
</a>
</g>
</g>
<!-- Node12&#45;&gt;Node13 -->
<g id="edge13_Node000012_Node000013" class="edge">
<title>Node12&#45;&gt;Node13</title>
<g id="a_edge13_Node000012_Node000013"><a xlink:title=" ">
<path fill="none" stroke="#63b8ff" d="M1238.97,-54.81C1238.85,-46.64 1238.71,-37.91 1238.6,-30.83"/>
<polygon fill="#63b8ff" stroke="#63b8ff" points="1235.47,-54.66 1239.12,-64.6 1242.47,-54.55 1235.47,-54.66"/>
</a>
</g>
</g>
<!-- Node17&#45;&gt;Node11 -->
<g id="edge19_Node000017_Node000011" class="edge">
<title>Node17&#45;&gt;Node11</title>
<g id="a_edge19_Node000017_Node000011"><a xlink:title=" ">
<path fill="none" stroke="#63b8ff" d="M918.52,-61.33C939.79,-51.53 965.16,-39.85 984.73,-30.83"/>
<polygon fill="#63b8ff" stroke="#63b8ff" points="917.14,-58.12 909.52,-65.48 920.06,-64.48 917.14,-58.12"/>
</a>
</g>
</g>
<!-- Node17&#45;&gt;Node13 -->
<g id="edge20_Node000017_Node000013" class="edge">
<title>Node17&#45;&gt;Node13</title>
<g id="a_edge20_Node000017_Node000013"><a xlink:title=" ">
<path fill="none" stroke="#63b8ff" d="M939.65,-65.91C1032.44,-47.48 1130.19,-32.18 1187.95,-23.56"/>
<polygon fill="#63b8ff" stroke="#63b8ff" points="938.96,-62.48 929.85,-67.88 940.34,-69.34 938.96,-62.48"/>
</a>
</g>
</g>
<!-- Node17&#45;&gt;Node14 -->
<g id="edge18_Node000017_Node000014" class="edge">
<title>Node17&#45;&gt;Node14</title>
<g id="a_edge18_Node000017_Node000014"><a xlink:title=" ">
<path fill="none" stroke="#63b8ff" d="M849.42,-59.02C837.91,-49.73 824.77,-39.15 814.46,-30.83"/>
<polygon fill="#63b8ff" stroke="#63b8ff" points="847.06,-61.61 857.04,-65.16 851.46,-56.16 847.06,-61.61"/>
</a>
</g>
</g>
<!-- Node18&#45;&gt;Node1 -->
<g id="edge23_Node000018_Node000001" class="edge">
<title>Node18&#45;&gt;Node1</title>
<g id="a_edge23_Node000018_Node000001"><a xlink:title=" ">
<path fill="none" stroke="#63b8ff" d="M613.1,-227.88C617.26,-228.65 621.38,-229.37 625.38,-230 785.44,-255.21 976.32,-270.23 1066.49,-276.62"/>
<polygon fill="#63b8ff" stroke="#63b8ff" points="614.02,-224.49 603.54,-226.02 612.69,-231.36 614.02,-224.49"/>
</a>
</g>
</g>
<!-- Node19 -->
<g id="Node000019" class="node">
<title>Node19</title>
<g id="a_Node000019"><a xlink:href="async_2shared__future_8hpp.html" target="_top" xlink:title=" ">
<polygon fill="white" stroke="#666666" points="569.88,-163.5 466.88,-163.5 466.88,-133 569.88,-133 569.88,-163.5"/>
<text text-anchor="start" x="474.88" y="-150" font-family="Helvetica,sans-Serif" font-size="10.00">include/yaclib/async</text>
<text text-anchor="middle" x="518.38" y="-138.75" font-family="Helvetica,sans-Serif" font-size="10.00">/shared_future.hpp</text>
</a>
</g>
</g>
<!-- Node18&#45;&gt;Node19 -->
<g id="edge24_Node000018_Node000019" class="edge">
<title>Node18&#45;&gt;Node19</title>
<g id="a_edge24_Node000018_Node000019"><a xlink:title=" ">
<path fill="none" stroke="#63b8ff" d="M538.07,-188.94C533.86,-180.46 529.29,-171.24 525.61,-163.83"/>
<polygon fill="#63b8ff" stroke="#63b8ff" points="534.86,-190.36 542.44,-197.76 541.13,-187.24 534.86,-190.36"/>
</a>
</g>
</g>
<!-- Node19&#45;&gt;Node4 -->
<g id="edge25_Node000019_Node000004" class="edge">
<title>Node19&#45;&gt;Node4</title>
<g id="a_edge25_Node000019_Node000004"><a xlink:title=" ">
<path fill="none" stroke="#63b8ff" d="M469.58,-128.51C443.8,-118.62 412.64,-106.65 388.64,-97.44"/>
<polygon fill="#63b8ff" stroke="#63b8ff" points="468.25,-131.75 478.84,-132.07 470.76,-125.22 468.25,-131.75"/>
</a>
</g>
</g>
<!-- Node19&#45;&gt;Node5 -->
<g id="edge27_Node000019_Node000005" class="edge">
<title>Node19&#45;&gt;Node5</title>
<g id="a_edge27_Node000019_Node000005"><a xlink:title=" ">
<path fill="none" stroke="#63b8ff" d="M479.9,-126.42C468.56,-118.57 457.12,-108.67 449.38,-97 435.91,-76.72 431.94,-48.03 430.8,-30.86"/>
<polygon fill="#63b8ff" stroke="#63b8ff" points="477.76,-129.2 488.05,-131.7 481.56,-123.33 477.76,-129.2"/>
</a>
</g>
</g>
<!-- Node19&#45;&gt;Node17 -->
<g id="edge26_Node000019_Node000017" class="edge">
<title>Node19&#45;&gt;Node17</title>
<g id="a_edge26_Node000019_Node000017"><a xlink:title=" ">
<path fill="none" stroke="#63b8ff" d="M581.19,-135.93C650.28,-123.49 760.01,-103.72 824.43,-92.11"/>
<polygon fill="#63b8ff" stroke="#63b8ff" points="580.76,-132.45 571.54,-137.67 582,-139.34 580.76,-132.45"/>
</a>
</g>
</g>
<!-- Node20 -->
<g id="Node000020" class="node">
<title>Node20</title>
<g id="a_Node000020"><a xlink:href="shared__contract_8hpp.html" target="_top" xlink:title=" ">
<polygon fill="white" stroke="#666666" points="280.75,-97 174,-97 174,-66.5 280.75,-66.5 280.75,-97"/>
<text text-anchor="start" x="182" y="-83.5" font-family="Helvetica,sans-Serif" font-size="10.00">include/yaclib/async</text>
<text text-anchor="middle" x="227.38" y="-72.25" font-family="Helvetica,sans-Serif" font-size="10.00">/shared_contract.hpp</text>
</a>
</g>
</g>
<!-- Node19&#45;&gt;Node20 -->
<g id="edge28_Node000019_Node000020" class="edge">
<title>Node19&#45;&gt;Node20</title>
<g id="a_edge28_Node000019_Node000020"><a xlink:title=" ">
<path fill="none" stroke="#63b8ff" d="M455.5,-133.63C409.47,-123.61 345.51,-109.61 289.38,-97 286.68,-96.39 283.92,-95.77 281.14,-95.14"/>
<polygon fill="#63b8ff" stroke="#63b8ff" points="454.51,-136.99 465.02,-135.7 455.99,-130.15 454.51,-136.99"/>
</a>
</g>
</g>
<!-- Node21 -->
<g id="Node000021" class="node">
<title>Node21</title>
<g id="a_Node000021"><a xlink:href="coro_2shared__future_8hpp.html" target="_top" xlink:title=" ">
<polygon fill="white" stroke="#666666" points="692.5,-97 596.25,-97 596.25,-66.5 692.5,-66.5 692.5,-97"/>
<text text-anchor="start" x="604.25" y="-83.5" font-family="Helvetica,sans-Serif" font-size="10.00">include/yaclib/coro</text>
<text text-anchor="middle" x="644.38" y="-72.25" font-family="Helvetica,sans-Serif" font-size="10.00">/shared_future.hpp</text>
</a>
</g>
</g>
<!-- Node19&#45;&gt;Node21 -->
<g id="edge30_Node000019_Node000021" class="edge">
<title>Node19&#45;&gt;Node21</title>
<g id="a_edge30_Node000019_Node000021"><a xlink:title=" ">
<path fill="none" stroke="#63b8ff" d="M557.1,-127.43C576.07,-117.71 598.52,-106.22 615.9,-97.33"/>
<polygon fill="#63b8ff" stroke="#63b8ff" points="555.62,-124.25 548.31,-131.92 558.81,-130.48 555.62,-124.25"/>
</a>
</g>
</g>
<!-- Node22 -->
<g id="Node000022" class="node">
<title>Node22</title>
<g id="a_Node000022"><a xlink:href="shared__future__impl_8cpp.html" target="_top" xlink:title=" ">
<polygon fill="white" stroke="#666666" points="578.5,-97 458.25,-97 458.25,-66.5 578.5,-66.5 578.5,-97"/>
<text text-anchor="start" x="466.25" y="-83.5" font-family="Helvetica,sans-Serif" font-size="10.00">src/async/shared_future</text>
<text text-anchor="middle" x="518.38" y="-72.25" font-family="Helvetica,sans-Serif" font-size="10.00">_impl.cpp</text>
</a>
</g>
</g>
<!-- Node19&#45;&gt;Node22 -->
<g id="edge31_Node000019_Node000022" class="edge">
<title>Node19&#45;&gt;Node22</title>
<g id="a_edge31_Node000019_Node000022"><a xlink:title=" ">
<path fill="none" stroke="#63b8ff" d="M518.38,-121.31C518.38,-113.14 518.38,-104.41 518.38,-97.33"/>
<polygon fill="#63b8ff" stroke="#63b8ff" points="514.88,-121.1 518.38,-131.1 521.88,-121.1 514.88,-121.1"/>
</a>
</g>
</g>
<!-- Node20&#45;&gt;Node6 -->
<g id="edge29_Node000020_Node000006" class="edge">
<title>Node20&#45;&gt;Node6</title>
<g id="a_edge29_Node000020_Node000006"><a xlink:title=" ">
<path fill="none" stroke="#63b8ff" d="M227.38,-54.81C227.38,-46.64 227.38,-37.91 227.38,-30.83"/>
<polygon fill="#63b8ff" stroke="#63b8ff" points="223.88,-54.6 227.38,-64.6 230.88,-54.6 223.88,-54.6"/>
</a>
</g>
</g>
<!-- Node26&#45;&gt;Node25 -->
<g id="edge36_Node000026_Node000025" class="edge">
<title>Node26&#45;&gt;Node25</title>
<g id="a_edge36_Node000026_Node000025"><a xlink:title=" ">
<path fill="none" stroke="#63b8ff" d="M1521.44,-58.74C1510.58,-49.53 1498.26,-39.06 1488.55,-30.83"/>
<polygon fill="#63b8ff" stroke="#63b8ff" points="1519.09,-61.33 1528.98,-65.13 1523.62,-56 1519.09,-61.33"/>
</a>
</g>
</g>
<!-- Node29&#45;&gt;Node25 -->
<g id="edge40_Node000029_Node000025" class="edge">
<title>Node29&#45;&gt;Node25</title>
<g id="a_edge40_Node000029_Node000025"><a xlink:title=" ">
<path fill="none" stroke="#63b8ff" d="M1452.11,-121.43C1457.07,-94.34 1464.7,-52.71 1468.7,-30.83"/>
<polygon fill="#63b8ff" stroke="#63b8ff" points="1448.67,-120.77 1450.31,-131.24 1455.55,-122.04 1448.67,-120.77"/>
</a>
</g>
</g>
<!-- Node29&#45;&gt;Node26 -->
<g id="edge41_Node000029_Node000026" class="edge">
<title>Node29&#45;&gt;Node26</title>
<g id="a_edge41_Node000029_Node000026"><a xlink:title=" ">
<path fill="none" stroke="#63b8ff" d="M1479.37,-126.61C1494.15,-117.08 1511.37,-105.98 1524.77,-97.33"/>
<polygon fill="#63b8ff" stroke="#63b8ff" points="1477.84,-123.43 1471.34,-131.79 1481.64,-129.31 1477.84,-123.43"/>
</a>
</g>
</g>
<!-- Node29&#45;&gt;Node28 -->
<g id="edge42_Node000029_Node000028" class="edge">
<title>Node29&#45;&gt;Node28</title>
<g id="a_edge42_Node000029_Node000028"><a xlink:title=" ">
<path fill="none" stroke="#63b8ff" d="M1428.51,-123.85C1421.36,-114.98 1413.44,-105.15 1407.13,-97.33"/>
<polygon fill="#63b8ff" stroke="#63b8ff" points="1425.62,-125.85 1434.63,-131.44 1431.07,-121.45 1425.62,-125.85"/>
</a>
</g>
</g>
<!-- Node30&#45;&gt;Node27 -->
<g id="edge44_Node000030_Node000027" class="edge">
<title>Node30&#45;&gt;Node27</title>
<g id="a_edge44_Node000030_Node000027"><a xlink:title=" ">
<path fill="none" stroke="#63b8ff" d="M1670.96,-121.31C1670.2,-113.14 1669.39,-104.41 1668.73,-97.33"/>
<polygon fill="#63b8ff" stroke="#63b8ff" points="1667.46,-121.47 1671.87,-131.11 1674.43,-120.83 1667.46,-121.47"/>
</a>
</g>
</g>
<!-- Node32&#45;&gt;Node29 -->
<g id="edge47_Node000032_Node000029" class="edge">
<title>Node32&#45;&gt;Node29</title>
<g id="a_edge47_Node000032_Node000029"><a xlink:title=" ">
<path fill="none" stroke="#63b8ff" d="M1750.97,-203.34C1684.68,-191.53 1576.97,-172.34 1509.26,-160.28"/>
<polygon fill="#63b8ff" stroke="#63b8ff" points="1750.1,-206.74 1760.56,-205.05 1751.33,-199.85 1750.1,-206.74"/>
</a>
</g>
</g>
<!-- Node32&#45;&gt;Node30 -->
<g id="edge48_Node000032_Node000030" class="edge">
<title>Node32&#45;&gt;Node30</title>
<g id="a_edge48_Node000032_Node000030"><a xlink:title=" ">
<path fill="none" stroke="#63b8ff" d="M1768.15,-194.2C1747.55,-184.43 1723.04,-172.81 1704.11,-163.83"/>
<polygon fill="#63b8ff" stroke="#63b8ff" points="1766.61,-197.34 1777.15,-198.47 1769.61,-191.02 1766.61,-197.34"/>
</a>
</g>
</g>
<!-- Node32&#45;&gt;Node31 -->
<g id="edge49_Node000032_Node000031" class="edge">
<title>Node32&#45;&gt;Node31</title>
<g id="a_edge49_Node000032_Node000031"><a xlink:title=" ">
<path fill="none" stroke="#63b8ff" d="M1809.38,-187.81C1809.38,-179.64 1809.38,-170.91 1809.38,-163.83"/>
<polygon fill="#63b8ff" stroke="#63b8ff" points="1805.88,-187.6 1809.38,-197.6 1812.88,-187.6 1805.88,-187.6"/>
</a>
</g>
</g>
<!-- Node33 -->
<g id="Node000033" class="node">
<title>Node33</title>
<g id="a_Node000033"><a xlink:href="coro_2task_8hpp.html" target="_top" xlink:title=" ">
<polygon fill="white" stroke="#666666" points="1971.5,-163.5 1875.25,-163.5 1875.25,-133 1971.5,-133 1971.5,-163.5"/>
<text text-anchor="start" x="1883.25" y="-150" font-family="Helvetica,sans-Serif" font-size="10.00">include/yaclib/coro</text>
<text text-anchor="middle" x="1923.38" y="-138.75" font-family="Helvetica,sans-Serif" font-size="10.00">/task.hpp</text>
</a>
</g>
</g>
<!-- Node32&#45;&gt;Node33 -->
<g id="edge50_Node000032_Node000033" class="edge">
<title>Node32&#45;&gt;Node33</title>
<g id="a_edge50_Node000032_Node000033"><a xlink:title=" ">
<path fill="none" stroke="#63b8ff" d="M1844.89,-193.66C1861.95,-184 1882.03,-172.64 1897.61,-163.83"/>
<polygon fill="#63b8ff" stroke="#63b8ff" points="1843.54,-190.4 1836.56,-198.37 1846.99,-196.49 1843.54,-190.4"/>
</a>
</g>
</g>
<!-- Node34 -->
<g id="Node000034" class="node">
<title>Node34</title>
<g id="a_Node000034"><a xlink:href="lazy_2make_8hpp.html" target="_top" xlink:title=" ">
<polygon fill="white" stroke="#666666" points="2084.38,-97 1990.38,-97 1990.38,-66.5 2084.38,-66.5 2084.38,-97"/>
<text text-anchor="start" x="1998.38" y="-83.5" font-family="Helvetica,sans-Serif" font-size="10.00">include/yaclib/lazy</text>
<text text-anchor="middle" x="2037.38" y="-72.25" font-family="Helvetica,sans-Serif" font-size="10.00">/make.hpp</text>
</a>
</g>
</g>
<!-- Node32&#45;&gt;Node34 -->
<g id="edge51_Node000032_Node000034" class="edge">
<title>Node32&#45;&gt;Node34</title>
<g id="a_edge51_Node000032_Node000034"><a xlink:title=" ">
<path fill="none" stroke="#63b8ff" d="M1867.66,-198.65C1913.41,-186.47 1970.9,-170.28 1980.38,-163.5 2004.52,-146.23 2022.06,-115.42 2030.9,-97.26"/>
<polygon fill="#63b8ff" stroke="#63b8ff" points="1866.85,-195.25 1858.08,-201.19 1868.65,-202.01 1866.85,-195.25"/>
</a>
</g>
</g>
<!-- Node35 -->
<g id="Node000035" class="node">
<title>Node35</title>
<g id="a_Node000035"><a xlink:href="schedule_8hpp.html" target="_top" xlink:title=" ">
<polygon fill="white" stroke="#666666" points="2121.38,-163.5 2027.38,-163.5 2027.38,-133 2121.38,-133 2121.38,-163.5"/>
<text text-anchor="start" x="2035.38" y="-150" font-family="Helvetica,sans-Serif" font-size="10.00">include/yaclib/lazy</text>
<text text-anchor="middle" x="2074.38" y="-138.75" font-family="Helvetica,sans-Serif" font-size="10.00">/schedule.hpp</text>
</a>
</g>
</g>
<!-- Node32&#45;&gt;Node35 -->
<g id="edge52_Node000032_Node000035" class="edge">
<title>Node32&#45;&gt;Node35</title>
<g id="a_edge52_Node000032_Node000035"><a xlink:title=" ">
<path fill="none" stroke="#63b8ff" d="M1867.6,-198.97C1927.96,-184.07 1987.03,-169.94 2027.02,-160.45"/>
<polygon fill="#63b8ff" stroke="#63b8ff" points="1867.06,-195.49 1858.19,-201.29 1868.74,-202.29 1867.06,-195.49"/>
</a>
</g>
</g>
<!-- Node36 -->
<g id="Node000036" class="node">
<title>Node36</title>
<g id="a_Node000036"><a xlink:href="task__impl_8cpp.html" target="_top" xlink:title=" ">
<polygon fill="white" stroke="#666666" points="2251.38,-157.88 2139.38,-157.88 2139.38,-138.62 2251.38,-138.62 2251.38,-157.88"/>
<text text-anchor="middle" x="2195.38" y="-144.38" font-family="Helvetica,sans-Serif" font-size="10.00">src/lazy/task_impl.cpp</text>
</a>
</g>
</g>
<!-- Node32&#45;&gt;Node36 -->
<g id="edge54_Node000032_Node000036" class="edge">
<title>Node32&#45;&gt;Node36</title>
<g id="a_edge54_Node000032_Node000036"><a xlink:title=" ">
<path fill="none" stroke="#63b8ff" d="M1867.78,-199.18C1984.02,-177.23 2016.88,-183.62 2130.38,-163.5 2138.79,-162.01 2147.78,-160.19 2156.29,-158.35"/>
<polygon fill="#63b8ff" stroke="#63b8ff" points="1867.29,-195.71 1858.13,-201.03 1868.61,-202.58 1867.29,-195.71"/>
</a>
</g>
</g>
<!-- Node35&#45;&gt;Node34 -->
<g id="edge53_Node000035_Node000034" class="edge">
<title>Node35&#45;&gt;Node34</title>
<g id="a_edge53_Node000035_Node000034"><a xlink:title=" ">
<path fill="none" stroke="#63b8ff" d="M2060.31,-122.73C2055.39,-114.16 2050.04,-104.82 2045.74,-97.33"/>
<polygon fill="#63b8ff" stroke="#63b8ff" points="2057.21,-124.37 2065.23,-131.3 2063.29,-120.89 2057.21,-124.37"/>
</a>
</g>
</g>
</g>
</svg>
