<?xml version="1.0" encoding="UTF-8" standalone="no"?>
<!DOCTYPE svg PUBLIC "-//W3C//DTD SVG 1.1//EN"
 "http://www.w3.org/Graphics/SVG/1.1/DTD/svg11.dtd">
<!-- Generated by graphviz version 3.0.0 (20221109.1736)
 -->
<!-- Title: src/fault/atomic.cpp Pages: 1 -->
<svg width="361pt" height="274pt"
 viewBox="0.00 0.00 360.79 274.00" xmlns="http://www.w3.org/2000/svg" xmlns:xlink="http://www.w3.org/1999/xlink">
<g id="graph0" class="graph" transform="scale(1 1) rotate(0) translate(4 270)">
<title>src/fault/atomic.cpp</title>
<!-- Node1 -->
<g id="node1" class="node">
<title>Node1</title>
<g id="a_node1"><a xlink:title=" ">
<polygon fill="#bfbfbf" stroke="black" points="52.79,-246.5 52.79,-265.5 154.79,-265.5 154.79,-246.5 52.79,-246.5"/>
<text text-anchor="middle" x="103.79" y="-253.5" font-family="Helvetica,sans-Serif" font-size="10.00">src/fault/atomic.cpp</text>
</a>
</g>
</g>
<!-- Node2 -->
<g id="node2" class="node">
<title>Node2</title>
<g id="a_node2"><a xlink:href="util_8hpp.html" target="_top" xlink:title=" ">
<polygon fill="none" stroke="black" points="5.29,-185 5.29,-204 74.29,-204 74.29,-185 5.29,-185"/>
<text text-anchor="middle" x="39.79" y="-192" font-family="Helvetica,sans-Serif" font-size="10.00">fault/util.hpp</text>
</a>
</g>
</g>
<!-- Node1&#45;&gt;Node2 -->
<g id="edge1" class="edge">
<title>Node1&#45;&gt;Node2</title>
<path fill="none" stroke="midnightblue" d="M94.62,-246.48C84.64,-237.2 68.48,-222.17 56.28,-210.83"/>
<polygon fill="midnightblue" stroke="midnightblue" points="58.65,-208.25 48.95,-204.01 53.89,-213.38 58.65,-208.25"/>
</g>
<!-- Node4 -->
<g id="node4" class="node">
<title>Node4</title>
<g id="a_node4"><a xlink:title=" ">
<polygon fill="none" stroke="#bfbfbf" points="80.79,-118 80.79,-137 126.79,-137 126.79,-118 80.79,-118"/>
<text text-anchor="middle" x="103.79" y="-125" font-family="Helvetica,sans-Serif" font-size="10.00">atomic</text>
</a>
</g>
</g>
<!-- Node1&#45;&gt;Node4 -->
<g id="edge12" class="edge">
<title>Node1&#45;&gt;Node4</title>
<path fill="none" stroke="midnightblue" d="M103.79,-246.31C103.79,-225.99 103.79,-175.05 103.79,-147.28"/>
<polygon fill="midnightblue" stroke="midnightblue" points="107.29,-147.26 103.79,-137.26 100.29,-147.26 107.29,-147.26"/>
</g>
<!-- Node6 -->
<g id="node6" class="node">
<title>Node6</title>
<g id="a_node6"><a xlink:href="fault_2detail_2atomic_8hpp.html" target="_top" xlink:title=" ">
<polygon fill="none" stroke="black" points="181.29,-179.5 181.29,-209.5 270.29,-209.5 270.29,-179.5 181.29,-179.5"/>
<text text-anchor="start" x="189.29" y="-197.5" font-family="Helvetica,sans-Serif" font-size="10.00">yaclib/fault/detail</text>
<text text-anchor="middle" x="225.79" y="-186.5" font-family="Helvetica,sans-Serif" font-size="10.00">/atomic.hpp</text>
</a>
</g>
</g>
<!-- Node1&#45;&gt;Node6 -->
<g id="edge5" class="edge">
<title>Node1&#45;&gt;Node6</title>
<path fill="none" stroke="midnightblue" d="M121.27,-246.48C138.57,-238.04 165.6,-224.86 187.84,-214.01"/>
<polygon fill="midnightblue" stroke="midnightblue" points="189.59,-217.05 197.04,-209.52 186.52,-210.76 189.59,-217.05"/>
</g>
<!-- Node3 -->
<g id="node3" class="node">
<title>Node3</title>
<g id="a_node3"><a xlink:title=" ">
<polygon fill="none" stroke="#bfbfbf" points="21.79,-56.5 21.79,-75.5 109.79,-75.5 109.79,-56.5 21.79,-56.5"/>
<text text-anchor="middle" x="65.79" y="-63.5" font-family="Helvetica,sans-Serif" font-size="10.00">yaclib/config.hpp</text>
</a>
</g>
</g>
<!-- Node2&#45;&gt;Node3 -->
<g id="edge2" class="edge">
<title>Node2&#45;&gt;Node3</title>
<path fill="none" stroke="midnightblue" d="M30.73,-184.79C16.19,-169.72 -9.42,-137.91 3.79,-112 10.79,-98.27 24.16,-87.75 36.69,-80.35"/>
<polygon fill="midnightblue" stroke="midnightblue" points="38.47,-83.37 45.57,-75.51 35.12,-77.22 38.47,-83.37"/>
</g>
<!-- Node2&#45;&gt;Node4 -->
<g id="edge3" class="edge">
<title>Node2&#45;&gt;Node4</title>
<path fill="none" stroke="midnightblue" d="M48.42,-184.73C58.6,-174.4 75.7,-157.04 88.21,-144.33"/>
<polygon fill="midnightblue" stroke="midnightblue" points="90.78,-146.71 95.3,-137.13 85.79,-141.8 90.78,-146.71"/>
</g>
<!-- Node5 -->
<g id="node5" class="node">
<title>Node5</title>
<g id="a_node5"><a xlink:title=" ">
<polygon fill="none" stroke="#bfbfbf" points="13.29,-118 13.29,-137 62.29,-137 62.29,-118 13.29,-118"/>
<text text-anchor="middle" x="37.79" y="-125" font-family="Helvetica,sans-Serif" font-size="10.00">random</text>
</a>
</g>
</g>
<!-- Node2&#45;&gt;Node5 -->
<g id="edge4" class="edge">
<title>Node2&#45;&gt;Node5</title>
<path fill="none" stroke="midnightblue" d="M39.52,-184.73C39.23,-175.18 38.75,-159.62 38.37,-147.28"/>
<polygon fill="midnightblue" stroke="midnightblue" points="41.86,-147.01 38.06,-137.13 34.87,-147.23 41.86,-147.01"/>
</g>
<!-- Node7 -->
<g id="node7" class="node">
<title>Node7</title>
<g id="a_node7"><a xlink:href="atomic__wait_8hpp.html" target="_top" xlink:title=" ">
<polygon fill="none" stroke="black" points="144.79,-112.5 144.79,-142.5 234.79,-142.5 234.79,-112.5 144.79,-112.5"/>
<text text-anchor="start" x="152.79" y="-130.5" font-family="Helvetica,sans-Serif" font-size="10.00">yaclib/fault/detail</text>
<text text-anchor="middle" x="189.79" y="-119.5" font-family="Helvetica,sans-Serif" font-size="10.00">/atomic_wait.hpp</text>
</a>
</g>
</g>
<!-- Node6&#45;&gt;Node7 -->
<g id="edge6" class="edge">
<title>Node6&#45;&gt;Node7</title>
<path fill="none" stroke="midnightblue" d="M217.98,-179.4C213.45,-171.22 207.64,-160.73 202.47,-151.39"/>
<polygon fill="midnightblue" stroke="midnightblue" points="205.5,-149.63 197.59,-142.58 199.37,-153.02 205.5,-149.63"/>
</g>
<!-- Node8 -->
<g id="node8" class="node">
<title>Node8</title>
<g id="a_node8"><a xlink:href="inject_8hpp.html" target="_top" xlink:title=" ">
<polygon fill="none" stroke="black" points="172.29,-56.5 172.29,-75.5 279.29,-75.5 279.29,-56.5 172.29,-56.5"/>
<text text-anchor="middle" x="225.79" y="-63.5" font-family="Helvetica,sans-Serif" font-size="10.00">yaclib/fault/inject.hpp</text>
</a>
</g>
</g>
<!-- Node6&#45;&gt;Node8 -->
<g id="edge10" class="edge">
<title>Node6&#45;&gt;Node8</title>
<path fill="none" stroke="midnightblue" d="M232.35,-179.27C236.55,-169.34 241.6,-155.66 243.79,-143 246.14,-129.42 246.4,-125.53 243.79,-112 242,-102.7 238.31,-92.89 234.73,-84.8"/>
<polygon fill="midnightblue" stroke="midnightblue" points="237.85,-83.21 230.41,-75.66 231.52,-86.2 237.85,-83.21"/>
</g>
<!-- Node10 -->
<g id="node10" class="node">
<title>Node10</title>
<g id="a_node10"><a xlink:title=" ">
<polygon fill="none" stroke="#bfbfbf" points="290.79,-118 290.79,-137 352.79,-137 352.79,-118 290.79,-118"/>
<text text-anchor="middle" x="321.79" y="-125" font-family="Helvetica,sans-Serif" font-size="10.00">type_traits</text>
</a>
</g>
</g>
<!-- Node6&#45;&gt;Node10 -->
<g id="edge11" class="edge">
<title>Node6&#45;&gt;Node10</title>
<path fill="none" stroke="midnightblue" d="M246.62,-179.4C262.57,-168.6 284.49,-153.76 300.54,-142.89"/>
<polygon fill="midnightblue" stroke="midnightblue" points="302.91,-145.51 309.23,-137.01 298.99,-139.72 302.91,-145.51"/>
</g>
<!-- Node7&#45;&gt;Node3 -->
<g id="edge7" class="edge">
<title>Node7&#45;&gt;Node3</title>
<path fill="none" stroke="midnightblue" d="M160.41,-112.4C139.97,-102.59 112.93,-89.62 92.99,-80.05"/>
<polygon fill="midnightblue" stroke="midnightblue" points="94.37,-76.83 83.84,-75.66 91.34,-83.14 94.37,-76.83"/>
</g>
<!-- Node7&#45;&gt;Node8 -->
<g id="edge8" class="edge">
<title>Node7&#45;&gt;Node8</title>
<path fill="none" stroke="midnightblue" d="M198.32,-112.4C203.39,-104.02 209.86,-93.33 215.25,-84.42"/>
<polygon fill="midnightblue" stroke="midnightblue" points="218.37,-86.03 220.55,-75.66 212.38,-82.4 218.37,-86.03"/>
</g>
<!-- Node9 -->
<g id="node9" class="node">
<title>Node9</title>
<g id="a_node9"><a xlink:title=" ">
<polygon fill="none" stroke="#bfbfbf" points="202.79,-0.5 202.79,-19.5 248.79,-19.5 248.79,-0.5 202.79,-0.5"/>
<text text-anchor="middle" x="225.79" y="-7.5" font-family="Helvetica,sans-Serif" font-size="10.00">cstdint</text>
</a>
</g>
</g>
<!-- Node8&#45;&gt;Node9 -->
<g id="edge9" class="edge">
<title>Node8&#45;&gt;Node9</title>
<path fill="none" stroke="midnightblue" d="M225.79,-56.08C225.79,-49.01 225.79,-38.86 225.79,-29.99"/>
<polygon fill="midnightblue" stroke="midnightblue" points="229.29,-29.75 225.79,-19.75 222.29,-29.75 229.29,-29.75"/>
</g>
</g>
</svg>
