<?xml version="1.0" encoding="UTF-8" standalone="no"?>
<!DOCTYPE svg PUBLIC "-//W3C//DTD SVG 1.1//EN"
 "http://www.w3.org/Graphics/SVG/1.1/DTD/svg11.dtd">
<!-- Generated by graphviz version 9.0.0 (20230911.1827)
 -->
<!-- Title: src/fault/atomic.cpp Pages: 1 -->
<svg width="357pt" height="271pt"
 viewBox="0.00 0.00 357.26 270.75" xmlns="http://www.w3.org/2000/svg" xmlns:xlink="http://www.w3.org/1999/xlink">

<svg id="main" version="1.1" xmlns="http://www.w3.org/2000/svg" xmlns:xlink="http://www.w3.org/1999/xlink" xml:space="preserve" onload="init(evt)">
<style type="text/css"><![CDATA[
.node, .edge {opacity: 0.7;}
.node.selected, .edge.selected {opacity: 1;}
.edge:hover path { stroke: red; }
.edge:hover polygon { stroke: red; fill: red; }
]]></style>
<script type="application/ecmascript" xlink:href="svg.min.js"/>
<svg id="graph" class="graph">
<g id="graph0" class="graph" transform="scale(1 1) rotate(0) translate(4 266.75)">
<title>src/fault/atomic.cpp</title>
<!-- Node1 -->
<g id="Node000001" class="node">
<title>Node1</title>
<g id="a_Node000001"><a xlink:title=" ">
<polygon fill="#999999" stroke="#666666" points="152.51,-262.75 51.01,-262.75 51.01,-243.5 152.51,-243.5 152.51,-262.75"/>
<text text-anchor="middle" x="101.76" y="-249.25" font-family="Helvetica,sans-Serif" font-size="10.00">src/fault/atomic.cpp</text>
</a>
</g>
</g>
<!-- Node2 -->
<g id="Node000002" class="node">
<title>Node2</title>
<g id="a_Node000002"><a xlink:href="util_8hpp.html" target="_top" xlink:title=" ">
<polygon fill="white" stroke="#666666" points="73.01,-201.88 4.51,-201.88 4.51,-182.62 73.01,-182.62 73.01,-201.88"/>
<text text-anchor="middle" x="38.76" y="-188.38" font-family="Helvetica,sans-Serif" font-size="10.00">fault/util.hpp</text>
</a>
</g>
</g>
<!-- Node1&#45;&gt;Node2 -->
<g id="edge1_Node000001_Node000002" class="edge">
<title>Node1&#45;&gt;Node2</title>
<g id="a_edge1_Node000001_Node000002"><a xlink:title=" ">
<path fill="none" stroke="#63b8ff" d="M92.19,-243.18C82.76,-234.37 68.11,-220.68 56.53,-209.86"/>
<polygon fill="#63b8ff" stroke="#63b8ff" points="59.22,-207.58 49.52,-203.31 54.44,-212.69 59.22,-207.58"/>
</a>
</g>
</g>
<!-- Node4 -->
<g id="Node000004" class="node">
<title>Node4</title>
<g id="a_Node000004"><a xlink:title=" ">
<polygon fill="#e0e0e0" stroke="#999999" points="124.38,-135.38 79.13,-135.38 79.13,-116.12 124.38,-116.12 124.38,-135.38"/>
<text text-anchor="middle" x="101.76" y="-121.88" font-family="Helvetica,sans-Serif" font-size="10.00">atomic</text>
</a>
</g>
</g>
<!-- Node1&#45;&gt;Node4 -->
<g id="edge12_Node000001_Node000004" class="edge">
<title>Node1&#45;&gt;Node4</title>
<g id="a_edge12_Node000001_Node000004"><a xlink:title=" ">
<path fill="none" stroke="#63b8ff" d="M101.76,-243.11C101.76,-223.14 101.76,-174.76 101.76,-147.08"/>
<polygon fill="#63b8ff" stroke="#63b8ff" points="105.26,-147.2 101.76,-137.2 98.26,-147.2 105.26,-147.2"/>
</a>
</g>
</g>
<!-- Node6 -->
<g id="Node000006" class="node">
<title>Node6</title>
<g id="a_Node000006"><a xlink:href="fault_2detail_2atomic_8hpp.html" target="_top" xlink:title=" ">
<polygon fill="white" stroke="#666666" points="267.13,-207.5 178.38,-207.5 178.38,-177 267.13,-177 267.13,-207.5"/>
<text text-anchor="start" x="186.38" y="-194" font-family="Helvetica,sans-Serif" font-size="10.00">yaclib/fault/detail</text>
<text text-anchor="middle" x="222.76" y="-182.75" font-family="Helvetica,sans-Serif" font-size="10.00">/atomic.hpp</text>
</a>
</g>
</g>
<!-- Node1&#45;&gt;Node6 -->
<g id="edge5_Node000001_Node000006" class="edge">
<title>Node1&#45;&gt;Node6</title>
<g id="a_edge5_Node000001_Node000006"><a xlink:title=" ">
<path fill="none" stroke="#63b8ff" d="M120.4,-243.05C136.85,-235.05 161.39,-223.11 182.32,-212.93"/>
<polygon fill="#63b8ff" stroke="#63b8ff" points="183.74,-216.13 191.2,-208.61 180.67,-209.84 183.74,-216.13"/>
</a>
</g>
</g>
<!-- Node3 -->
<g id="Node000003" class="node">
<title>Node3</title>
<g id="a_Node000003"><a xlink:title=" ">
<polygon fill="#e0e0e0" stroke="#999999" points="108.38,-74.5 21.13,-74.5 21.13,-55.25 108.38,-55.25 108.38,-74.5"/>
<text text-anchor="middle" x="64.76" y="-61" font-family="Helvetica,sans-Serif" font-size="10.00">yaclib/config.hpp</text>
</a>
</g>
</g>
<!-- Node2&#45;&gt;Node3 -->
<g id="edge2_Node000002_Node000003" class="edge">
<title>Node2&#45;&gt;Node3</title>
<g id="a_edge2_Node000002_Node000003"><a xlink:title=" ">
<path fill="none" stroke="#63b8ff" d="M29.91,-182.61C15.73,-167.66 -9.24,-136.12 3.76,-110.5 10.19,-97.83 22.09,-87.89 33.69,-80.65"/>
<polygon fill="#63b8ff" stroke="#63b8ff" points="35.39,-83.71 42.34,-75.72 31.92,-77.63 35.39,-83.71"/>
</a>
</g>
</g>
<!-- Node2&#45;&gt;Node4 -->
<g id="edge3_Node000002_Node000004" class="edge">
<title>Node2&#45;&gt;Node4</title>
<g id="a_edge3_Node000002_Node000004"><a xlink:title=" ">
<path fill="none" stroke="#63b8ff" d="M47.52,-182.28C57.2,-172.37 73.03,-156.16 85.1,-143.81"/>
<polygon fill="#63b8ff" stroke="#63b8ff" points="87.53,-146.32 92.02,-136.73 82.52,-141.43 87.53,-146.32"/>
</a>
</g>
</g>
<!-- Node5 -->
<g id="Node000005" class="node">
<title>Node5</title>
<g id="a_Node000005"><a xlink:title=" ">
<polygon fill="#e0e0e0" stroke="#999999" points="60.88,-135.38 12.63,-135.38 12.63,-116.12 60.88,-116.12 60.88,-135.38"/>
<text text-anchor="middle" x="36.76" y="-121.88" font-family="Helvetica,sans-Serif" font-size="10.00">random</text>
</a>
</g>
</g>
<!-- Node2&#45;&gt;Node5 -->
<g id="edge4_Node000002_Node000005" class="edge">
<title>Node2&#45;&gt;Node5</title>
<g id="a_edge4_Node000002_Node000005"><a xlink:title=" ">
<path fill="none" stroke="#63b8ff" d="M38.48,-182.28C38.2,-173.23 37.76,-158.95 37.39,-147.13"/>
<polygon fill="#63b8ff" stroke="#63b8ff" points="40.89,-147.04 37.08,-137.16 33.89,-147.26 40.89,-147.04"/>
</a>
</g>
</g>
<!-- Node7 -->
<g id="Node000007" class="node">
<title>Node7</title>
<g id="a_Node000007"><a xlink:href="atomic__wait_8hpp.html" target="_top" xlink:title=" ">
<polygon fill="white" stroke="#666666" points="231.51,-141 142.01,-141 142.01,-110.5 231.51,-110.5 231.51,-141"/>
<text text-anchor="start" x="150.01" y="-127.5" font-family="Helvetica,sans-Serif" font-size="10.00">yaclib/fault/detail</text>
<text text-anchor="middle" x="186.76" y="-116.25" font-family="Helvetica,sans-Serif" font-size="10.00">/atomic_wait.hpp</text>
</a>
</g>
</g>
<!-- Node6&#45;&gt;Node7 -->
<g id="edge6_Node000006_Node000007" class="edge">
<title>Node6&#45;&gt;Node7</title>
<g id="a_edge6_Node000006_Node000007"><a xlink:title=" ">
<path fill="none" stroke="#63b8ff" d="M214.59,-176.61C210.4,-169.11 205.19,-159.77 200.41,-151.21"/>
<polygon fill="#63b8ff" stroke="#63b8ff" points="203.56,-149.68 195.63,-142.65 197.45,-153.09 203.56,-149.68"/>
</a>
</g>
</g>
<!-- Node8 -->
<g id="Node000008" class="node">
<title>Node8</title>
<g id="a_Node000008"><a xlink:href="inject_8hpp.html" target="_top" xlink:title=" ">
<polygon fill="white" stroke="#666666" points="276.13,-74.5 169.38,-74.5 169.38,-55.25 276.13,-55.25 276.13,-74.5"/>
<text text-anchor="middle" x="222.76" y="-61" font-family="Helvetica,sans-Serif" font-size="10.00">yaclib/fault/inject.hpp</text>
</a>
</g>
</g>
<!-- Node6&#45;&gt;Node8 -->
<g id="edge10_Node000006_Node000008" class="edge">
<title>Node6&#45;&gt;Node8</title>
<g id="a_edge10_Node000006_Node000008"><a xlink:title=" ">
<path fill="none" stroke="#63b8ff" d="M229.49,-176.66C233.66,-166.82 238.6,-153.42 240.76,-141 243.08,-127.64 243.34,-123.81 240.76,-110.5 239.09,-101.9 235.76,-92.85 232.42,-85.17"/>
<polygon fill="#63b8ff" stroke="#63b8ff" points="235.61,-83.72 228.19,-76.16 229.28,-86.7 235.61,-83.72"/>
</a>
</g>
</g>
<!-- Node10 -->
<g id="Node000010" class="node">
<title>Node10</title>
<g id="a_Node000010"><a xlink:title=" ">
<polygon fill="#e0e0e0" stroke="#999999" points="349.26,-135.38 288.26,-135.38 288.26,-116.12 349.26,-116.12 349.26,-135.38"/>
<text text-anchor="middle" x="318.76" y="-121.88" font-family="Helvetica,sans-Serif" font-size="10.00">type_traits</text>
</a>
</g>
</g>
<!-- Node6&#45;&gt;Node10 -->
<g id="edge11_Node000006_Node000010" class="edge">
<title>Node6&#45;&gt;Node10</title>
<g id="a_edge11_Node000006_Node000010"><a xlink:title=" ">
<path fill="none" stroke="#63b8ff" d="M244.54,-176.61C259.88,-166.31 280.37,-152.54 295.94,-142.08"/>
<polygon fill="#63b8ff" stroke="#63b8ff" points="297.74,-145.09 304.09,-136.6 293.84,-139.28 297.74,-145.09"/>
</a>
</g>
</g>
<!-- Node7&#45;&gt;Node3 -->
<g id="edge7_Node000007_Node000003" class="edge">
<title>Node7&#45;&gt;Node3</title>
<g id="a_edge7_Node000007_Node000003"><a xlink:title=" ">
<path fill="none" stroke="#63b8ff" d="M156.29,-110.05C137.17,-100.82 112.67,-89 93.83,-79.9"/>
<polygon fill="#63b8ff" stroke="#63b8ff" points="95.36,-76.76 84.83,-75.56 92.32,-83.06 95.36,-76.76"/>
</a>
</g>
</g>
<!-- Node7&#45;&gt;Node8 -->
<g id="edge8_Node000007_Node000008" class="edge">
<title>Node7&#45;&gt;Node8</title>
<g id="a_edge8_Node000007_Node000008"><a xlink:title=" ">
<path fill="none" stroke="#63b8ff" d="M195.66,-110.2C200.4,-102.44 206.29,-92.81 211.36,-84.51"/>
<polygon fill="#63b8ff" stroke="#63b8ff" points="214.19,-86.6 216.42,-76.24 208.22,-82.95 214.19,-86.6"/>
</a>
</g>
</g>
<!-- Node9 -->
<g id="Node000009" class="node">
<title>Node9</title>
<g id="a_Node000009"><a xlink:title=" ">
<polygon fill="#e0e0e0" stroke="#999999" points="245.38,-19.25 200.13,-19.25 200.13,0 245.38,0 245.38,-19.25"/>
<text text-anchor="middle" x="222.76" y="-5.75" font-family="Helvetica,sans-Serif" font-size="10.00">cstdint</text>
</a>
</g>
</g>
<!-- Node8&#45;&gt;Node9 -->
<g id="edge9_Node000008_Node000009" class="edge">
<title>Node8&#45;&gt;Node9</title>
<g id="a_edge9_Node000008_Node000009"><a xlink:title=" ">
<path fill="none" stroke="#63b8ff" d="M222.76,-55.08C222.76,-48.57 222.76,-39.42 222.76,-31.12"/>
<polygon fill="#63b8ff" stroke="#63b8ff" points="226.26,-31.12 222.76,-21.12 219.26,-31.12 226.26,-31.12"/>
</a>
</g>
</g>
</g>
</svg>
</svg>

<style type='text/css'>
<![CDATA[
[data-mouse-over-selected='false'] { opacity: 0.7; }
[data-mouse-over-selected='true']  { opacity: 1.0; }
]]>
</style>
<script type="application/ecmascript"><![CDATA[
document.addEventListener('DOMContentLoaded', (event) => {
  highlightEdges();
  highlightAdjacentNodes();
});
]]></script>
</svg>
