<?xml version="1.0" encoding="UTF-8" standalone="no"?>
<!DOCTYPE svg PUBLIC "-//W3C//DTD SVG 1.1//EN"
 "http://www.w3.org/Graphics/SVG/1.1/DTD/svg11.dtd">
<!-- Generated by graphviz version 3.0.0 (20220413.0242)
 -->
<!-- Title: src/async/base_core.cpp Pages: 1 -->
<svg width="814pt" height="408pt"
 viewBox="0.00 0.00 813.50 408.00" xmlns="http://www.w3.org/2000/svg" xmlns:xlink="http://www.w3.org/1999/xlink">
<g id="graph0" class="graph" transform="scale(1 1) rotate(0) translate(4 404)">
<title>src/async/base_core.cpp</title>
<!-- Node1 -->
<g id="node1" class="node">
<title>Node1</title>
<g id="a_node1"><a xlink:title=" ">
<polygon fill="#bfbfbf" stroke="black" points="289,-380.5 289,-399.5 414,-399.5 414,-380.5 289,-380.5"/>
<text text-anchor="middle" x="351.5" y="-387.5" font-family="Helvetica,sans-Serif" font-size="10.00">src/async/base_core.cpp</text>
</a>
</g>
</g>
<!-- Node2 -->
<g id="node2" class="node">
<title>Node2</title>
<g id="a_node2"><a xlink:href="base__core_8hpp.html" target="_top" xlink:title=" ">
<polygon fill="none" stroke="black" points="341.5,-313.5 341.5,-343.5 437.5,-343.5 437.5,-313.5 341.5,-313.5"/>
<text text-anchor="start" x="349.5" y="-331.5" font-family="Helvetica,sans-Serif" font-size="10.00">yaclib/async/detail</text>
<text text-anchor="middle" x="389.5" y="-320.5" font-family="Helvetica,sans-Serif" font-size="10.00">/base_core.hpp</text>
</a>
</g>
</g>
<!-- Node1&#45;&gt;Node2 -->
<g id="edge1" class="edge">
<title>Node1&#45;&gt;Node2</title>
<path fill="none" stroke="midnightblue" d="M356.94,-380.48C361.66,-373.09 368.69,-362.08 375.02,-352.17"/>
<polygon fill="midnightblue" stroke="midnightblue" points="378.11,-353.83 380.54,-343.52 372.21,-350.07 378.11,-353.83"/>
</g>
<!-- Node3 -->
<g id="node3" class="node">
<title>Node3</title>
<g id="a_node3"><a xlink:href="inline__core_8hpp.html" target="_top" xlink:title=" ">
<polygon fill="none" stroke="black" points="69.5,-246.5 69.5,-276.5 165.5,-276.5 165.5,-246.5 69.5,-246.5"/>
<text text-anchor="start" x="77.5" y="-264.5" font-family="Helvetica,sans-Serif" font-size="10.00">yaclib/async/detail</text>
<text text-anchor="middle" x="117.5" y="-253.5" font-family="Helvetica,sans-Serif" font-size="10.00">/inline_core.hpp</text>
</a>
</g>
</g>
<!-- Node1&#45;&gt;Node3 -->
<g id="edge22" class="edge">
<title>Node1&#45;&gt;Node3</title>
<path fill="none" stroke="midnightblue" d="M288.93,-382.74C254.36,-376.91 211.98,-365.66 179.5,-344 157.46,-329.3 140.07,-304.1 129.38,-285.6"/>
<polygon fill="midnightblue" stroke="midnightblue" points="132.32,-283.68 124.42,-276.63 126.2,-287.07 132.32,-283.68"/>
</g>
<!-- Node4 -->
<g id="node4" class="node">
<title>Node4</title>
<g id="a_node4"><a xlink:href="job_8hpp.html" target="_top" xlink:title=" ">
<polygon fill="none" stroke="black" points="98,-185 98,-204 213,-204 213,-185 98,-185"/>
<text text-anchor="middle" x="155.5" y="-192" font-family="Helvetica,sans-Serif" font-size="10.00">yaclib/executor/job.hpp</text>
</a>
</g>
</g>
<!-- Node1&#45;&gt;Node4 -->
<g id="edge24" class="edge">
<title>Node1&#45;&gt;Node4</title>
<path fill="none" stroke="midnightblue" d="M338.74,-380.43C313.19,-362.89 254.68,-320.87 213.5,-277 194.62,-256.89 176.84,-230.36 166.07,-213.12"/>
<polygon fill="midnightblue" stroke="midnightblue" points="168.78,-210.86 160.57,-204.16 162.82,-214.52 168.78,-210.86"/>
</g>
<!-- Node12 -->
<g id="node12" class="node">
<title>Node12</title>
<g id="a_node12"><a xlink:href="executor_8hpp.html" target="_top" xlink:title=" ">
<polygon fill="none" stroke="black" points="222,-252 222,-271 361,-271 361,-252 222,-252"/>
<text text-anchor="middle" x="291.5" y="-259" font-family="Helvetica,sans-Serif" font-size="10.00">yaclib/executor/executor.hpp</text>
</a>
</g>
</g>
<!-- Node1&#45;&gt;Node12 -->
<g id="edge23" class="edge">
<title>Node1&#45;&gt;Node12</title>
<path fill="none" stroke="midnightblue" d="M347.38,-380.31C337.66,-359.81 313.15,-308.15 300.06,-280.54"/>
<polygon fill="midnightblue" stroke="midnightblue" points="303.1,-278.79 295.65,-271.26 296.78,-281.79 303.1,-278.79"/>
</g>
<!-- Node15 -->
<g id="node15" class="node">
<title>Node15</title>
<g id="a_node15"><a xlink:href="log_8hpp.html" target="_top" xlink:title=" ">
<polygon fill="none" stroke="black" points="505,-56.5 505,-75.5 580,-75.5 580,-56.5 505,-56.5"/>
<text text-anchor="middle" x="542.5" y="-63.5" font-family="Helvetica,sans-Serif" font-size="10.00">yaclib/log.hpp</text>
</a>
</g>
</g>
<!-- Node1&#45;&gt;Node15 -->
<g id="edge25" class="edge">
<title>Node1&#45;&gt;Node15</title>
<path fill="none" stroke="midnightblue" d="M401.98,-380.48C494.42,-363.43 681.5,-321.63 681.5,-262.5 681.5,-262.5 681.5,-262.5 681.5,-193.5 681.5,-136.11 615.88,-97.86 574.81,-79.55"/>
<polygon fill="midnightblue" stroke="midnightblue" points="576.02,-76.26 565.45,-75.53 573.26,-82.69 576.02,-76.26"/>
</g>
<!-- Node18 -->
<g id="node18" class="node">
<title>Node18</title>
<g id="a_node18"><a xlink:href="nope__counter_8hpp.html" target="_top" xlink:title=" ">
<polygon fill="none" stroke="black" points="709.5,-313.5 709.5,-343.5 805.5,-343.5 805.5,-313.5 709.5,-313.5"/>
<text text-anchor="start" x="717.5" y="-331.5" font-family="Helvetica,sans-Serif" font-size="10.00">yaclib/util/detail</text>
<text text-anchor="middle" x="757.5" y="-320.5" font-family="Helvetica,sans-Serif" font-size="10.00">/nope_counter.hpp</text>
</a>
</g>
</g>
<!-- Node1&#45;&gt;Node18 -->
<g id="edge26" class="edge">
<title>Node1&#45;&gt;Node18</title>
<path fill="none" stroke="midnightblue" d="M414.25,-382.69C483.43,-375.3 597.87,-361.76 695.5,-344 696.75,-343.77 698.02,-343.53 699.3,-343.29"/>
<polygon fill="midnightblue" stroke="midnightblue" points="700.09,-346.7 709.2,-341.29 698.7,-339.84 700.09,-346.7"/>
</g>
<!-- Node2&#45;&gt;Node3 -->
<g id="edge2" class="edge">
<title>Node2&#45;&gt;Node3</title>
<path fill="none" stroke="midnightblue" d="M341.5,-316.03C295.27,-304.98 225.27,-288.25 175.84,-276.44"/>
<polygon fill="midnightblue" stroke="midnightblue" points="176.48,-273 165.94,-274.08 174.85,-279.8 176.48,-273"/>
</g>
<!-- Node7 -->
<g id="node7" class="node">
<title>Node7</title>
<g id="a_node7"><a xlink:href="ref_8hpp.html" target="_top" xlink:title=" ">
<polygon fill="none" stroke="black" points="243,-56.5 243,-75.5 332,-75.5 332,-56.5 243,-56.5"/>
<text text-anchor="middle" x="287.5" y="-63.5" font-family="Helvetica,sans-Serif" font-size="10.00">yaclib/util/ref.hpp</text>
</a>
</g>
</g>
<!-- Node2&#45;&gt;Node7 -->
<g id="edge20" class="edge">
<title>Node2&#45;&gt;Node7</title>
<path fill="none" stroke="midnightblue" d="M397.22,-313.3C416.19,-276.29 460.38,-175.34 415.5,-112 398.84,-88.48 368.86,-77.16 342.1,-71.76"/>
<polygon fill="midnightblue" stroke="midnightblue" points="342.5,-68.27 332.04,-69.96 341.27,-75.16 342.5,-68.27"/>
</g>
<!-- Node11 -->
<g id="node11" class="node">
<title>Node11</title>
<g id="a_node11"><a xlink:title=" ">
<polygon fill="none" stroke="#bfbfbf" points="455.5,-252 455.5,-271 543.5,-271 543.5,-252 455.5,-252"/>
<text text-anchor="middle" x="499.5" y="-259" font-family="Helvetica,sans-Serif" font-size="10.00">yaclib/config.hpp</text>
</a>
</g>
</g>
<!-- Node2&#45;&gt;Node11 -->
<g id="edge10" class="edge">
<title>Node2&#45;&gt;Node11</title>
<path fill="none" stroke="midnightblue" d="M413.37,-313.4C432.07,-302.34 457.94,-287.06 476.43,-276.13"/>
<polygon fill="midnightblue" stroke="midnightblue" points="478.27,-279.11 485.1,-271.01 474.71,-273.08 478.27,-279.11"/>
</g>
<!-- Node2&#45;&gt;Node12 -->
<g id="edge11" class="edge">
<title>Node2&#45;&gt;Node12</title>
<path fill="none" stroke="midnightblue" d="M368.24,-313.4C351.8,-302.5 329.16,-287.48 312.73,-276.58"/>
<polygon fill="midnightblue" stroke="midnightblue" points="314.59,-273.62 304.33,-271.01 310.72,-279.45 314.59,-273.62"/>
</g>
<!-- Node13 -->
<g id="node13" class="node">
<title>Node13</title>
<g id="a_node13"><a xlink:href="intrusive__ptr_8hpp.html" target="_top" xlink:title=" ">
<polygon fill="none" stroke="black" points="243,-179.5 243,-209.5 340,-209.5 340,-179.5 243,-179.5"/>
<text text-anchor="start" x="251" y="-197.5" font-family="Helvetica,sans-Serif" font-size="10.00">yaclib/util/intrusive</text>
<text text-anchor="middle" x="291.5" y="-186.5" font-family="Helvetica,sans-Serif" font-size="10.00">_ptr.hpp</text>
</a>
</g>
</g>
<!-- Node2&#45;&gt;Node13 -->
<g id="edge19" class="edge">
<title>Node2&#45;&gt;Node13</title>
<path fill="none" stroke="midnightblue" d="M389.35,-313.22C388.5,-295.83 384.84,-266.28 370.5,-246 361.25,-232.92 347.43,-222.43 333.93,-214.47"/>
<polygon fill="midnightblue" stroke="midnightblue" points="335.59,-211.4 325.15,-209.61 332.2,-217.52 335.59,-211.4"/>
</g>
<!-- Node17 -->
<g id="node17" class="node">
<title>Node17</title>
<g id="a_node17"><a xlink:title=" ">
<polygon fill="none" stroke="#bfbfbf" points="561.5,-252 561.5,-271 653.5,-271 653.5,-252 561.5,-252"/>
<text text-anchor="middle" x="607.5" y="-259" font-family="Helvetica,sans-Serif" font-size="10.00">yaclib_std/atomic</text>
</a>
</g>
</g>
<!-- Node2&#45;&gt;Node17 -->
<g id="edge21" class="edge">
<title>Node2&#45;&gt;Node17</title>
<path fill="none" stroke="midnightblue" d="M436.53,-313.48C476.12,-301.67 532.04,-285 569,-273.98"/>
<polygon fill="midnightblue" stroke="midnightblue" points="570.31,-277.24 578.9,-271.03 568.31,-270.53 570.31,-277.24"/>
</g>
<!-- Node3&#45;&gt;Node4 -->
<g id="edge3" class="edge">
<title>Node3&#45;&gt;Node4</title>
<path fill="none" stroke="midnightblue" d="M125.75,-246.4C131.49,-236.56 139.2,-223.38 145.33,-212.89"/>
<polygon fill="midnightblue" stroke="midnightblue" points="148.39,-214.59 150.42,-204.19 142.35,-211.06 148.39,-214.59"/>
</g>
<!-- Node10 -->
<g id="node10" class="node">
<title>Node10</title>
<g id="a_node10"><a xlink:title=" ">
<polygon fill="none" stroke="#bfbfbf" points="33.5,-185 33.5,-204 79.5,-204 79.5,-185 33.5,-185"/>
<text text-anchor="middle" x="56.5" y="-192" font-family="Helvetica,sans-Serif" font-size="10.00">cstdint</text>
</a>
</g>
</g>
<!-- Node3&#45;&gt;Node10 -->
<g id="edge9" class="edge">
<title>Node3&#45;&gt;Node10</title>
<path fill="none" stroke="midnightblue" d="M104.26,-246.4C94.66,-236.16 81.65,-222.3 71.63,-211.62"/>
<polygon fill="midnightblue" stroke="midnightblue" points="74.05,-209.09 64.66,-204.19 68.95,-213.88 74.05,-209.09"/>
</g>
<!-- Node5 -->
<g id="node5" class="node">
<title>Node5</title>
<g id="a_node5"><a xlink:href="node_8hpp.html" target="_top" xlink:title=" ">
<polygon fill="none" stroke="black" points="0,-112.5 0,-142.5 83,-142.5 83,-112.5 0,-112.5"/>
<text text-anchor="start" x="8" y="-130.5" font-family="Helvetica,sans-Serif" font-size="10.00">yaclib/util/detail</text>
<text text-anchor="middle" x="41.5" y="-119.5" font-family="Helvetica,sans-Serif" font-size="10.00">/node.hpp</text>
</a>
</g>
</g>
<!-- Node4&#45;&gt;Node5 -->
<g id="edge4" class="edge">
<title>Node4&#45;&gt;Node5</title>
<path fill="none" stroke="midnightblue" d="M140.13,-184.73C123.53,-175.27 96.6,-159.91 75.06,-147.64"/>
<polygon fill="midnightblue" stroke="midnightblue" points="76.63,-144.5 66.21,-142.59 73.16,-150.58 76.63,-144.5"/>
</g>
<!-- Node6 -->
<g id="node6" class="node">
<title>Node6</title>
<g id="a_node6"><a xlink:href="func_8hpp.html" target="_top" xlink:title=" ">
<polygon fill="none" stroke="black" points="101,-118 101,-137 198,-137 198,-118 101,-118"/>
<text text-anchor="middle" x="149.5" y="-125" font-family="Helvetica,sans-Serif" font-size="10.00">yaclib/util/func.hpp</text>
</a>
</g>
</g>
<!-- Node4&#45;&gt;Node6 -->
<g id="edge5" class="edge">
<title>Node4&#45;&gt;Node6</title>
<path fill="none" stroke="midnightblue" d="M154.69,-184.73C153.81,-175.18 152.37,-159.62 151.23,-147.28"/>
<polygon fill="midnightblue" stroke="midnightblue" points="154.7,-146.76 150.3,-137.13 147.73,-147.41 154.7,-146.76"/>
</g>
<!-- Node6&#45;&gt;Node7 -->
<g id="edge6" class="edge">
<title>Node6&#45;&gt;Node7</title>
<path fill="none" stroke="midnightblue" d="M169.27,-117.98C192.64,-107.9 231.71,-91.05 258.5,-79.5"/>
<polygon fill="midnightblue" stroke="midnightblue" points="259.97,-82.68 267.76,-75.51 257.2,-76.25 259.97,-82.68"/>
</g>
<!-- Node8 -->
<g id="node8" class="node">
<title>Node8</title>
<g id="a_node8"><a xlink:title=" ">
<polygon fill="none" stroke="#bfbfbf" points="163.5,-56.5 163.5,-75.5 225.5,-75.5 225.5,-56.5 163.5,-56.5"/>
<text text-anchor="middle" x="194.5" y="-63.5" font-family="Helvetica,sans-Serif" font-size="10.00">type_traits</text>
</a>
</g>
</g>
<!-- Node6&#45;&gt;Node8 -->
<g id="edge7" class="edge">
<title>Node6&#45;&gt;Node8</title>
<path fill="none" stroke="midnightblue" d="M155.95,-117.98C162.7,-109.05 173.47,-94.81 181.91,-83.64"/>
<polygon fill="midnightblue" stroke="midnightblue" points="184.82,-85.6 188.06,-75.51 179.24,-81.37 184.82,-85.6"/>
</g>
<!-- Node9 -->
<g id="node9" class="node">
<title>Node9</title>
<g id="a_node9"><a xlink:title=" ">
<polygon fill="none" stroke="#bfbfbf" points="106,-56.5 106,-75.5 145,-75.5 145,-56.5 106,-56.5"/>
<text text-anchor="middle" x="125.5" y="-63.5" font-family="Helvetica,sans-Serif" font-size="10.00">utility</text>
</a>
</g>
</g>
<!-- Node6&#45;&gt;Node9 -->
<g id="edge8" class="edge">
<title>Node6&#45;&gt;Node9</title>
<path fill="none" stroke="midnightblue" d="M146.06,-117.98C142.6,-109.4 137.17,-95.93 132.75,-84.98"/>
<polygon fill="midnightblue" stroke="midnightblue" points="135.92,-83.47 128.93,-75.51 129.43,-86.09 135.92,-83.47"/>
</g>
<!-- Node12&#45;&gt;Node4 -->
<g id="edge12" class="edge">
<title>Node12&#45;&gt;Node4</title>
<path fill="none" stroke="midnightblue" d="M273.44,-251.87C250.27,-240.8 209.87,-221.49 182.9,-208.6"/>
<polygon fill="midnightblue" stroke="midnightblue" points="184.17,-205.32 173.63,-204.17 181.15,-211.64 184.17,-205.32"/>
</g>
<!-- Node12&#45;&gt;Node13 -->
<g id="edge13" class="edge">
<title>Node12&#45;&gt;Node13</title>
<path fill="none" stroke="midnightblue" d="M291.5,-251.73C291.5,-243.54 291.5,-230.92 291.5,-219.71"/>
<polygon fill="midnightblue" stroke="midnightblue" points="295,-219.59 291.5,-209.59 288,-219.59 295,-219.59"/>
</g>
<!-- Node13&#45;&gt;Node7 -->
<g id="edge14" class="edge">
<title>Node13&#45;&gt;Node7</title>
<path fill="none" stroke="midnightblue" d="M288.66,-179.42C286.78,-169.33 284.48,-155.39 283.5,-143 282.42,-129.26 282.89,-125.76 283.5,-112 283.88,-103.37 284.68,-93.84 285.46,-85.78"/>
<polygon fill="midnightblue" stroke="midnightblue" points="288.96,-85.92 286.51,-75.61 282,-85.2 288.96,-85.92"/>
</g>
<!-- Node13&#45;&gt;Node8 -->
<g id="edge15" class="edge">
<title>Node13&#45;&gt;Node8</title>
<path fill="none" stroke="midnightblue" d="M280.75,-179.48C262.82,-156.1 226.9,-109.25 207.55,-84.02"/>
<polygon fill="midnightblue" stroke="midnightblue" points="210.1,-81.59 201.24,-75.79 204.55,-85.85 210.1,-81.59"/>
</g>
<!-- Node14 -->
<g id="node14" class="node">
<title>Node14</title>
<g id="a_node14"><a xlink:href="intrusive__ptr__impl_8hpp.html" target="_top" xlink:title=" ">
<polygon fill="none" stroke="black" points="292.5,-112.5 292.5,-142.5 406.5,-142.5 406.5,-112.5 292.5,-112.5"/>
<text text-anchor="start" x="300.5" y="-130.5" font-family="Helvetica,sans-Serif" font-size="10.00">yaclib/util/detail</text>
<text text-anchor="middle" x="349.5" y="-119.5" font-family="Helvetica,sans-Serif" font-size="10.00">/intrusive_ptr_impl.hpp</text>
</a>
</g>
</g>
<!-- Node13&#45;&gt;Node14 -->
<g id="edge16" class="edge">
<title>Node13&#45;&gt;Node14</title>
<path fill="none" stroke="midnightblue" d="M304.09,-179.4C311.69,-170.88 321.53,-159.85 330.11,-150.23"/>
<polygon fill="midnightblue" stroke="midnightblue" points="332.89,-152.37 336.94,-142.58 327.67,-147.71 332.89,-152.37"/>
</g>
<!-- Node14&#45;&gt;Node15 -->
<g id="edge17" class="edge">
<title>Node14&#45;&gt;Node15</title>
<path fill="none" stroke="midnightblue" d="M395.24,-112.4C428.73,-102.07 473.63,-88.23 505.02,-78.56"/>
<polygon fill="midnightblue" stroke="midnightblue" points="506.17,-81.86 514.7,-75.57 504.11,-75.17 506.17,-81.86"/>
</g>
<!-- Node16 -->
<g id="node16" class="node">
<title>Node16</title>
<g id="a_node16"><a xlink:title=" ">
<polygon fill="none" stroke="#bfbfbf" points="509.5,-0.5 509.5,-19.5 575.5,-19.5 575.5,-0.5 509.5,-0.5"/>
<text text-anchor="middle" x="542.5" y="-7.5" font-family="Helvetica,sans-Serif" font-size="10.00">string_view</text>
</a>
</g>
</g>
<!-- Node15&#45;&gt;Node16 -->
<g id="edge18" class="edge">
<title>Node15&#45;&gt;Node16</title>
<path fill="none" stroke="midnightblue" d="M542.5,-56.08C542.5,-49.01 542.5,-38.86 542.5,-29.99"/>
<polygon fill="midnightblue" stroke="midnightblue" points="546,-29.75 542.5,-19.75 539,-29.75 546,-29.75"/>
</g>
</g>
</svg>
