<?xml version="1.0" encoding="UTF-8" standalone="no"?>
<!DOCTYPE svg PUBLIC "-//W3C//DTD SVG 1.1//EN"
 "http://www.w3.org/Graphics/SVG/1.1/DTD/svg11.dtd">
<!-- Generated by graphviz version 9.0.0 (20230911.1827)
 -->
<!-- Title: include/yaclib/algo/detail/base_core.hpp Pages: 1 -->
<!--zoomable 459 -->

<svg id="main" version="1.1" xmlns="http://www.w3.org/2000/svg" xmlns:xlink="http://www.w3.org/1999/xlink" xml:space="preserve" onload="init(evt)">
<style type="text/css"><![CDATA[
.node, .edge {opacity: 0.7;}
.node.selected, .edge.selected {opacity: 1;}
.edge:hover path { stroke: red; }
.edge:hover polygon { stroke: red; fill: red; }
]]></style>

<defs>
  <circle id="rim" cx="0" cy="0" r="7"/>
  <circle id="rim2" cx="0" cy="0" r="3.5"/>
  <g id="zoomPlus">
    <use xlink:href="#rim" fill="#404040"><set attributeName="fill" to="#808080" begin="zoomplus.mouseover" end="zoomplus.mouseout"/></use>
    <path d="M-4,0h8M0,-4v8" fill="none" stroke="white" stroke-width="1.5" pointer-events="none"/>
  </g>
  <g id="zoomMin">
    <use xlink:href="#rim" fill="#404040"><set attributeName="fill" to="#808080" begin="zoomminus.mouseover" end="zoomminus.mouseout"/></use>
    <path d="M-4,0h8" fill="none" stroke="white" stroke-width="1.5" pointer-events="none"/>
  </g>
  <g id="arrowUp" transform="translate(30 24)">
    <use xlink:href="#rim"/>
    <path pointer-events="none" fill="none" stroke="white" stroke-width="1.5" d="M0,-3.0v7 M-2.5,-0.5L0,-3.0L2.5,-0.5"/>
  </g>
  <g id="arrowRight" transform="rotate(90) translate(36 -43)">
    <use xlink:href="#rim"/>
    <path pointer-events="none" fill="none" stroke="white" stroke-width="1.5" d="M0,-3.0v7 M-2.5,-0.5L0,-3.0L2.5,-0.5"/>
  </g>
  <g id="arrowDown" transform="rotate(180) translate(-30 -48)">
    <use xlink:href="#rim"/>
    <path pointer-events="none" fill="none" stroke="white" stroke-width="1.5" d="M0,-3.0v7 M-2.5,-0.5L0,-3.0L2.5,-0.5"/>
  </g>
  <g id="arrowLeft" transform="rotate(270) translate(-36 17)">
    <use xlink:href="#rim"/>
    <path pointer-events="none" fill="none" stroke="white" stroke-width="1.5" d="M0,-3.0v7 M-2.5,-0.5L0,-3.0L2.5,-0.5"/>
  </g>
  <g id="resetDef">
    <use xlink:href="#rim2" fill="#404040"><set attributeName="fill" to="#808080" begin="reset.mouseover" end="reset.mouseout"/></use>
  </g>
</defs>
<script type="application/ecmascript">
var viewWidth = 915;
var viewHeight = 459;
var sectionId = 'dynsection-0';
</script>
<script type="application/ecmascript" xlink:href="svg.min.js"/>
<svg id="graph" class="graph">
<g id="viewport">
<title>include/yaclib/algo/detail/base_core.hpp</title>
<!-- Node1 -->
<g id="Node000001" class="node">
<title>Node1</title>
<g id="a_Node000001"><a xlink:title=" ">
<polygon fill="#999999" stroke="#666666" points="648.75,-451 540.5,-451 540.5,-420.5 648.75,-420.5 648.75,-451"/>
<text text-anchor="start" x="548.5" y="-437.5" font-family="Helvetica,sans-Serif" font-size="10.00">include/yaclib/algo</text>
<text text-anchor="middle" x="594.62" y="-426.25" font-family="Helvetica,sans-Serif" font-size="10.00">/detail/base_core.hpp</text>
</a>
</g>
</g>
<!-- Node2 -->
<g id="Node000002" class="node">
<title>Node2</title>
<g id="a_Node000002"><a xlink:href="inline__core_8hpp.html" target="_top" xlink:title=" ">
<polygon fill="white" stroke="#666666" points="213.62,-329.25 125.62,-329.25 125.62,-298.75 213.62,-298.75 213.62,-329.25"/>
<text text-anchor="start" x="133.62" y="-315.75" font-family="Helvetica,sans-Serif" font-size="10.00">yaclib/algo/detail</text>
<text text-anchor="middle" x="169.62" y="-304.5" font-family="Helvetica,sans-Serif" font-size="10.00">/inline_core.hpp</text>
</a>
</g>
</g>
<!-- Node1&#45;&gt;Node2 -->
<g id="edge1_Node000001_Node000002" class="edge">
<title>Node1&#45;&gt;Node2</title>
<g id="a_edge1_Node000001_Node000002"><a xlink:title=" ">
<path fill="none" stroke="#63b8ff" d="M542.51,-420.07C461.88,-397.35 307.59,-353.87 225.01,-330.61"/>
<polygon fill="#63b8ff" stroke="#63b8ff" points="226.12,-327.28 215.55,-327.94 224.22,-334.02 226.12,-327.28"/>
</a>
</g>
</g>
<!-- Node13 -->
<g id="Node000013" class="node">
<title>Node13</title>
<g id="a_Node000013"><a xlink:href="executor_8hpp.html" target="_top" xlink:title=" ">
<polygon fill="white" stroke="#666666" points="440.88,-323.62 324.38,-323.62 324.38,-304.38 440.88,-304.38 440.88,-323.62"/>
<text text-anchor="middle" x="382.62" y="-310.12" font-family="Helvetica,sans-Serif" font-size="10.00">yaclib/exe/executor.hpp</text>
</a>
</g>
</g>
<!-- Node1&#45;&gt;Node13 -->
<g id="edge14_Node000001_Node000013" class="edge">
<title>Node1&#45;&gt;Node13</title>
<g id="a_edge14_Node000001_Node000013"><a xlink:title=" ">
<path fill="none" stroke="#63b8ff" d="M564.4,-420.21C544.62,-410.49 518.33,-397.22 495.62,-384.5 463.91,-366.74 428.35,-344.46 405.74,-329.99"/>
<polygon fill="#63b8ff" stroke="#63b8ff" points="407.9,-327.21 397.6,-324.75 404.11,-333.1 407.9,-327.21"/>
</a>
</g>
</g>
<!-- Node16 -->
<g id="Node000016" class="node">
<title>Node16</title>
<g id="a_Node000016"><a xlink:href="inline_8hpp.html" target="_top" xlink:title=" ">
<polygon fill="white" stroke="#666666" points="606.75,-384.5 504.5,-384.5 504.5,-365.25 606.75,-365.25 606.75,-384.5"/>
<text text-anchor="middle" x="555.62" y="-371" font-family="Helvetica,sans-Serif" font-size="10.00">yaclib/exe/inline.hpp</text>
</a>
</g>
</g>
<!-- Node1&#45;&gt;Node16 -->
<g id="edge21_Node000001_Node000016" class="edge">
<title>Node1&#45;&gt;Node16</title>
<g id="a_edge21_Node000001_Node000016"><a xlink:title=" ">
<path fill="none" stroke="#63b8ff" d="M584.98,-420.2C579.85,-412.44 573.47,-402.81 567.97,-394.51"/>
<polygon fill="#63b8ff" stroke="#63b8ff" points="570.91,-392.62 562.47,-386.21 565.08,-396.48 570.91,-392.62"/>
</a>
</g>
</g>
<!-- Node18 -->
<g id="Node000018" class="node">
<title>Node18</title>
<g id="a_Node000018"><a xlink:href="type__traits_8hpp.html" target="_top" xlink:title=" ">
<polygon fill="white" stroke="#666666" points="746.88,-262.75 624.38,-262.75 624.38,-243.5 746.88,-243.5 746.88,-262.75"/>
<text text-anchor="middle" x="685.62" y="-249.25" font-family="Helvetica,sans-Serif" font-size="10.00">yaclib/util/type_traits.hpp</text>
</a>
</g>
</g>
<!-- Node1&#45;&gt;Node18 -->
<g id="edge24_Node000001_Node000018" class="edge">
<title>Node1&#45;&gt;Node18</title>
<g id="a_edge24_Node000001_Node000018"><a xlink:title=" ">
<path fill="none" stroke="#63b8ff" d="M601.92,-420.27C618.21,-387.94 657.55,-309.85 675.9,-273.43"/>
<polygon fill="#63b8ff" stroke="#63b8ff" points="679.01,-275.04 680.38,-264.53 672.76,-271.89 679.01,-275.04"/>
</a>
</g>
</g>
<!-- Node22 -->
<g id="Node000022" class="node">
<title>Node22</title>
<g id="a_Node000022"><a xlink:title=" ">
<polygon fill="#e0e0e0" stroke="#999999" points="702.25,-384.5 663,-384.5 663,-365.25 702.25,-365.25 702.25,-384.5"/>
<text text-anchor="middle" x="682.62" y="-371" font-family="Helvetica,sans-Serif" font-size="10.00">limits</text>
</a>
</g>
</g>
<!-- Node1&#45;&gt;Node22 -->
<g id="edge33_Node000001_Node000022" class="edge">
<title>Node1&#45;&gt;Node22</title>
<g id="a_edge33_Node000001_Node000022"><a xlink:title=" ">
<path fill="none" stroke="#63b8ff" d="M616.38,-420.2C629.52,-411.4 646.25,-400.21 659.61,-391.27"/>
<polygon fill="#63b8ff" stroke="#63b8ff" points="661.44,-394.26 667.8,-385.79 657.54,-388.44 661.44,-394.26"/>
</a>
</g>
</g>
<!-- Node23 -->
<g id="Node000023" class="node">
<title>Node23</title>
<g id="a_Node000023"><a xlink:title=" ">
<polygon fill="#e0e0e0" stroke="#999999" points="812.5,-384.5 720.75,-384.5 720.75,-365.25 812.5,-365.25 812.5,-384.5"/>
<text text-anchor="middle" x="766.62" y="-371" font-family="Helvetica,sans-Serif" font-size="10.00">yaclib_std/atomic</text>
</a>
</g>
</g>
<!-- Node1&#45;&gt;Node23 -->
<g id="edge34_Node000001_Node000023" class="edge">
<title>Node1&#45;&gt;Node23</title>
<g id="a_edge34_Node000001_Node000023"><a xlink:title=" ">
<path fill="none" stroke="#63b8ff" d="M637.58,-420.05C665.83,-410.38 702.43,-397.85 729.43,-388.61"/>
<polygon fill="#63b8ff" stroke="#63b8ff" points="730.23,-392.03 738.56,-385.48 727.97,-385.41 730.23,-392.03"/>
</a>
</g>
</g>
<!-- Node3 -->
<g id="Node000003" class="node">
<title>Node3</title>
<g id="a_Node000003"><a xlink:title=" ">
<polygon fill="#e0e0e0" stroke="#999999" points="87.25,-262.75 0,-262.75 0,-243.5 87.25,-243.5 87.25,-262.75"/>
<text text-anchor="middle" x="43.62" y="-249.25" font-family="Helvetica,sans-Serif" font-size="10.00">yaclib/config.hpp</text>
</a>
</g>
</g>
<!-- Node2&#45;&gt;Node3 -->
<g id="edge2_Node000002_Node000003" class="edge">
<title>Node2&#45;&gt;Node3</title>
<g id="a_edge2_Node000002_Node000003"><a xlink:title=" ">
<path fill="none" stroke="#63b8ff" d="M138.15,-298.3C118.32,-289.03 92.87,-277.13 73.37,-268.02"/>
<polygon fill="#63b8ff" stroke="#63b8ff" points="74.86,-264.86 64.32,-263.79 71.9,-271.2 74.86,-264.86"/>
</a>
</g>
</g>
<!-- Node4 -->
<g id="Node000004" class="node">
<title>Node4</title>
<g id="a_Node000004"><a xlink:href="job_8hpp.html" target="_top" xlink:title=" ">
<polygon fill="white" stroke="#666666" points="268.88,-262.75 176.38,-262.75 176.38,-243.5 268.88,-243.5 268.88,-262.75"/>
<text text-anchor="middle" x="222.62" y="-249.25" font-family="Helvetica,sans-Serif" font-size="10.00">yaclib/exe/job.hpp</text>
</a>
</g>
</g>
<!-- Node2&#45;&gt;Node4 -->
<g id="edge3_Node000002_Node000004" class="edge">
<title>Node2&#45;&gt;Node4</title>
<g id="a_edge3_Node000002_Node000004"><a xlink:title=" ">
<path fill="none" stroke="#63b8ff" d="M182.73,-298.45C190.02,-290.34 199.15,-280.2 206.84,-271.66"/>
<polygon fill="#63b8ff" stroke="#63b8ff" points="209.35,-274.1 213.44,-264.33 204.15,-269.42 209.35,-274.1"/>
</a>
</g>
</g>
<!-- Node5 -->
<g id="Node000005" class="node">
<title>Node5</title>
<g id="a_Node000005"><a xlink:href="log_8hpp.html" target="_top" xlink:title=" ">
<polygon fill="white" stroke="#666666" points="233.88,-74.5 159.38,-74.5 159.38,-55.25 233.88,-55.25 233.88,-74.5"/>
<text text-anchor="middle" x="196.62" y="-61" font-family="Helvetica,sans-Serif" font-size="10.00">yaclib/log.hpp</text>
</a>
</g>
</g>
<!-- Node2&#45;&gt;Node5 -->
<g id="edge13_Node000002_Node000005" class="edge">
<title>Node2&#45;&gt;Node5</title>
<g id="a_edge13_Node000002_Node000005"><a xlink:title=" ">
<path fill="none" stroke="#63b8ff" d="M165.41,-298.44C156.3,-264.34 137.48,-177.16 161.62,-110.5 165.3,-100.36 172.23,-90.74 178.96,-83.04"/>
<polygon fill="#63b8ff" stroke="#63b8ff" points="181.48,-85.47 185.8,-75.79 176.39,-80.66 181.48,-85.47"/>
</a>
</g>
</g>
<!-- Node4&#45;&gt;Node5 -->
<g id="edge4_Node000004_Node000005" class="edge">
<title>Node4&#45;&gt;Node5</title>
<g id="a_edge4_Node000004_Node000005"><a xlink:title=" ">
<path fill="none" stroke="#63b8ff" d="M206.71,-243.08C194.85,-235.34 179.57,-223 172.62,-207.5 155,-168.15 162.1,-152.31 172.62,-110.5 174.9,-101.46 179.41,-92.25 183.91,-84.56"/>
<polygon fill="#63b8ff" stroke="#63b8ff" points="186.83,-86.49 189.22,-76.17 180.92,-82.75 186.83,-86.49"/>
</a>
</g>
</g>
<!-- Node7 -->
<g id="Node000007" class="node">
<title>Node7</title>
<g id="a_Node000007"><a xlink:href="node_8hpp.html" target="_top" xlink:title=" ">
<polygon fill="white" stroke="#666666" points="264,-207.5 181.25,-207.5 181.25,-177 264,-177 264,-207.5"/>
<text text-anchor="start" x="189.25" y="-194" font-family="Helvetica,sans-Serif" font-size="10.00">yaclib/util/detail</text>
<text text-anchor="middle" x="222.62" y="-182.75" font-family="Helvetica,sans-Serif" font-size="10.00">/node.hpp</text>
</a>
</g>
</g>
<!-- Node4&#45;&gt;Node7 -->
<g id="edge6_Node000004_Node000007" class="edge">
<title>Node4&#45;&gt;Node7</title>
<g id="a_edge6_Node000004_Node000007"><a xlink:title=" ">
<path fill="none" stroke="#63b8ff" d="M222.62,-243.18C222.62,-236.73 222.62,-227.66 222.62,-219.01"/>
<polygon fill="#63b8ff" stroke="#63b8ff" points="226.13,-219.3 222.63,-209.3 219.13,-219.3 226.13,-219.3"/>
</a>
</g>
</g>
<!-- Node8 -->
<g id="Node000008" class="node">
<title>Node8</title>
<g id="a_Node000008"><a xlink:href="func_8hpp.html" target="_top" xlink:title=" ">
<polygon fill="white" stroke="#666666" points="492.75,-201.88 396.5,-201.88 396.5,-182.62 492.75,-182.62 492.75,-201.88"/>
<text text-anchor="middle" x="444.62" y="-188.38" font-family="Helvetica,sans-Serif" font-size="10.00">yaclib/util/func.hpp</text>
</a>
</g>
</g>
<!-- Node4&#45;&gt;Node8 -->
<g id="edge7_Node000004_Node000008" class="edge">
<title>Node4&#45;&gt;Node8</title>
<g id="a_edge7_Node000004_Node000008"><a xlink:title=" ">
<path fill="none" stroke="#63b8ff" d="M256.83,-243.05C295.04,-232.92 357.07,-216.47 399.3,-205.27"/>
<polygon fill="#63b8ff" stroke="#63b8ff" points="400.15,-208.67 408.92,-202.72 398.36,-201.9 400.15,-208.67"/>
</a>
</g>
</g>
<!-- Node6 -->
<g id="Node000006" class="node">
<title>Node6</title>
<g id="a_Node000006"><a xlink:title=" ">
<polygon fill="#e0e0e0" stroke="#999999" points="229.38,-19.25 163.88,-19.25 163.88,0 229.38,0 229.38,-19.25"/>
<text text-anchor="middle" x="196.62" y="-5.75" font-family="Helvetica,sans-Serif" font-size="10.00">string_view</text>
</a>
</g>
</g>
<!-- Node5&#45;&gt;Node6 -->
<g id="edge5_Node000005_Node000006" class="edge">
<title>Node5&#45;&gt;Node6</title>
<g id="a_edge5_Node000005_Node000006"><a xlink:title=" ">
<path fill="none" stroke="#63b8ff" d="M196.62,-55.08C196.62,-48.57 196.62,-39.42 196.62,-31.12"/>
<polygon fill="#63b8ff" stroke="#63b8ff" points="200.13,-31.12 196.63,-21.12 193.13,-31.12 200.13,-31.12"/>
</a>
</g>
</g>
<!-- Node9 -->
<g id="Node000009" class="node">
<title>Node9</title>
<g id="a_Node000009"><a xlink:href="ref_8hpp.html" target="_top" xlink:title=" ">
<polygon fill="white" stroke="#666666" points="402,-135.38 313.25,-135.38 313.25,-116.12 402,-116.12 402,-135.38"/>
<text text-anchor="middle" x="357.62" y="-121.88" font-family="Helvetica,sans-Serif" font-size="10.00">yaclib/util/ref.hpp</text>
</a>
</g>
</g>
<!-- Node8&#45;&gt;Node9 -->
<g id="edge8_Node000008_Node000009" class="edge">
<title>Node8&#45;&gt;Node9</title>
<g id="a_edge8_Node000008_Node000009"><a xlink:title=" ">
<path fill="none" stroke="#63b8ff" d="M432.53,-182.28C418.71,-172.04 395.84,-155.09 379,-142.6"/>
<polygon fill="#63b8ff" stroke="#63b8ff" points="381.23,-139.9 371.12,-136.75 377.06,-145.52 381.23,-139.9"/>
</a>
</g>
</g>
<!-- Node11 -->
<g id="Node000011" class="node">
<title>Node11</title>
<g id="a_Node000011"><a xlink:title=" ">
<polygon fill="#e0e0e0" stroke="#999999" points="491.12,-135.38 430.12,-135.38 430.12,-116.12 491.12,-116.12 491.12,-135.38"/>
<text text-anchor="middle" x="460.62" y="-121.88" font-family="Helvetica,sans-Serif" font-size="10.00">type_traits</text>
</a>
</g>
</g>
<!-- Node8&#45;&gt;Node11 -->
<g id="edge11_Node000008_Node000011" class="edge">
<title>Node8&#45;&gt;Node11</title>
<g id="a_edge11_Node000008_Node000011"><a xlink:title=" ">
<path fill="none" stroke="#63b8ff" d="M446.85,-182.28C449.12,-173.14 452.71,-158.64 455.66,-146.75"/>
<polygon fill="#63b8ff" stroke="#63b8ff" points="459.04,-147.66 458.05,-137.11 452.25,-145.97 459.04,-147.66"/>
</a>
</g>
</g>
<!-- Node12 -->
<g id="Node000012" class="node">
<title>Node12</title>
<g id="a_Node000012"><a xlink:title=" ">
<polygon fill="#e0e0e0" stroke="#999999" points="567.88,-135.38 529.38,-135.38 529.38,-116.12 567.88,-116.12 567.88,-135.38"/>
<text text-anchor="middle" x="548.62" y="-121.88" font-family="Helvetica,sans-Serif" font-size="10.00">utility</text>
</a>
</g>
</g>
<!-- Node8&#45;&gt;Node12 -->
<g id="edge12_Node000008_Node000012" class="edge">
<title>Node8&#45;&gt;Node12</title>
<g id="a_edge12_Node000008_Node000012"><a xlink:title=" ">
<path fill="none" stroke="#63b8ff" d="M459.09,-182.28C475.91,-171.85 503.96,-154.45 524.19,-141.9"/>
<polygon fill="#63b8ff" stroke="#63b8ff" points="526.01,-144.89 532.67,-136.65 522.32,-138.94 526.01,-144.89"/>
</a>
</g>
</g>
<!-- Node9&#45;&gt;Node5 -->
<g id="edge9_Node000009_Node000005" class="edge">
<title>Node9&#45;&gt;Node5</title>
<g id="a_edge9_Node000009_Node000005"><a xlink:title=" ">
<path fill="none" stroke="#63b8ff" d="M332.82,-115.68C305.88,-105.83 262.6,-90 232.07,-78.84"/>
<polygon fill="#63b8ff" stroke="#63b8ff" points="233.47,-75.62 222.88,-75.48 231.07,-82.2 233.47,-75.62"/>
</a>
</g>
</g>
<!-- Node10 -->
<g id="Node000010" class="node">
<title>Node10</title>
<g id="a_Node000010"><a xlink:title=" ">
<polygon fill="#e0e0e0" stroke="#999999" points="381.75,-74.5 333.5,-74.5 333.5,-55.25 381.75,-55.25 381.75,-74.5"/>
<text text-anchor="middle" x="357.62" y="-61" font-family="Helvetica,sans-Serif" font-size="10.00">cstddef</text>
</a>
</g>
</g>
<!-- Node9&#45;&gt;Node10 -->
<g id="edge10_Node000009_Node000010" class="edge">
<title>Node9&#45;&gt;Node10</title>
<g id="a_edge10_Node000009_Node000010"><a xlink:title=" ">
<path fill="none" stroke="#63b8ff" d="M357.62,-115.81C357.62,-108.03 357.62,-96.45 357.62,-86.41"/>
<polygon fill="#63b8ff" stroke="#63b8ff" points="361.13,-86.41 357.63,-76.41 354.13,-86.41 361.13,-86.41"/>
</a>
</g>
</g>
<!-- Node13&#45;&gt;Node4 -->
<g id="edge15_Node000013_Node000004" class="edge">
<title>Node13&#45;&gt;Node4</title>
<g id="a_edge15_Node000013_Node000004"><a xlink:title=" ">
<path fill="none" stroke="#63b8ff" d="M357.98,-303.93C331.2,-294.08 288.19,-278.25 257.85,-267.09"/>
<polygon fill="#63b8ff" stroke="#63b8ff" points="259.32,-263.9 248.72,-263.73 256.9,-270.47 259.32,-263.9"/>
</a>
</g>
</g>
<!-- Node14 -->
<g id="Node000014" class="node">
<title>Node14</title>
<g id="a_Node000014"><a xlink:href="intrusive__ptr_8hpp.html" target="_top" xlink:title=" ">
<polygon fill="white" stroke="#666666" points="378.75,-207.5 282.5,-207.5 282.5,-177 378.75,-177 378.75,-207.5"/>
<text text-anchor="start" x="290.5" y="-194" font-family="Helvetica,sans-Serif" font-size="10.00">yaclib/util/intrusive</text>
<text text-anchor="middle" x="330.62" y="-182.75" font-family="Helvetica,sans-Serif" font-size="10.00">_ptr.hpp</text>
</a>
</g>
</g>
<!-- Node13&#45;&gt;Node14 -->
<g id="edge16_Node000013_Node000014" class="edge">
<title>Node13&#45;&gt;Node14</title>
<g id="a_edge16_Node000013_Node000014"><a xlink:title=" ">
<path fill="none" stroke="#63b8ff" d="M378.72,-304C370.9,-286.01 353.12,-245.04 341.5,-218.3"/>
<polygon fill="#63b8ff" stroke="#63b8ff" points="344.74,-216.98 337.55,-209.2 338.32,-219.77 344.74,-216.98"/>
</a>
</g>
</g>
<!-- Node14&#45;&gt;Node9 -->
<g id="edge17_Node000014_Node000009" class="edge">
<title>Node14&#45;&gt;Node9</title>
<g id="a_edge17_Node000014_Node000009"><a xlink:title=" ">
<path fill="none" stroke="#63b8ff" d="M336.75,-176.61C340.55,-167.53 345.48,-155.76 349.59,-145.93"/>
<polygon fill="#63b8ff" stroke="#63b8ff" points="352.71,-147.54 353.35,-136.97 346.26,-144.84 352.71,-147.54"/>
</a>
</g>
</g>
<!-- Node14&#45;&gt;Node11 -->
<g id="edge18_Node000014_Node000011" class="edge">
<title>Node14&#45;&gt;Node11</title>
<g id="a_edge18_Node000014_Node000011"><a xlink:title=" ">
<path fill="none" stroke="#63b8ff" d="M360.12,-176.61C381.78,-165.87 411.03,-151.36 432.39,-140.76"/>
<polygon fill="#63b8ff" stroke="#63b8ff" points="433.71,-144.01 441.11,-136.43 430.6,-137.74 433.71,-144.01"/>
</a>
</g>
</g>
<!-- Node15 -->
<g id="Node000015" class="node">
<title>Node15</title>
<g id="a_Node000015"><a xlink:href="intrusive__ptr__impl_8hpp.html" target="_top" xlink:title=" ">
<polygon fill="white" stroke="#666666" points="295.38,-141 181.88,-141 181.88,-110.5 295.38,-110.5 295.38,-141"/>
<text text-anchor="start" x="189.88" y="-127.5" font-family="Helvetica,sans-Serif" font-size="10.00">yaclib/util/detail</text>
<text text-anchor="middle" x="238.62" y="-116.25" font-family="Helvetica,sans-Serif" font-size="10.00">/intrusive_ptr_impl.hpp</text>
</a>
</g>
</g>
<!-- Node14&#45;&gt;Node15 -->
<g id="edge19_Node000014_Node000015" class="edge">
<title>Node14&#45;&gt;Node15</title>
<g id="a_edge19_Node000014_Node000015"><a xlink:title=" ">
<path fill="none" stroke="#63b8ff" d="M309.75,-176.61C297.63,-168.12 282.16,-157.27 268.75,-147.87"/>
<polygon fill="#63b8ff" stroke="#63b8ff" points="270.86,-145.07 260.66,-142.2 266.84,-150.8 270.86,-145.07"/>
</a>
</g>
</g>
<!-- Node15&#45;&gt;Node5 -->
<g id="edge20_Node000015_Node000005" class="edge">
<title>Node15&#45;&gt;Node5</title>
<g id="a_edge20_Node000015_Node000005"><a xlink:title=" ">
<path fill="none" stroke="#63b8ff" d="M228.24,-110.2C222.65,-102.35 215.69,-92.6 209.72,-84.24"/>
<polygon fill="#63b8ff" stroke="#63b8ff" points="212.64,-82.29 203.98,-76.18 206.94,-86.36 212.64,-82.29"/>
</a>
</g>
</g>
<!-- Node16&#45;&gt;Node13 -->
<g id="edge22_Node000016_Node000013" class="edge">
<title>Node16&#45;&gt;Node13</title>
<g id="a_edge22_Node000016_Node000013"><a xlink:title=" ">
<path fill="none" stroke="#63b8ff" d="M528.97,-364.8C499.76,-354.86 452.7,-338.85 419.85,-327.67"/>
<polygon fill="#63b8ff" stroke="#63b8ff" points="421.33,-324.48 410.74,-324.57 419.08,-331.1 421.33,-324.48"/>
</a>
</g>
</g>
<!-- Node17 -->
<g id="Node000017" class="node">
<title>Node17</title>
<g id="a_Node000017"><a xlink:href="fwd_8hpp.html" target="_top" xlink:title=" ">
<polygon fill="white" stroke="#666666" points="716.38,-135.38 638.88,-135.38 638.88,-116.12 716.38,-116.12 716.38,-135.38"/>
<text text-anchor="middle" x="677.62" y="-121.88" font-family="Helvetica,sans-Serif" font-size="10.00">yaclib/fwd.hpp</text>
</a>
</g>
</g>
<!-- Node16&#45;&gt;Node17 -->
<g id="edge23_Node000016_Node000017" class="edge">
<title>Node16&#45;&gt;Node17</title>
<g id="a_edge23_Node000016_Node000017"><a xlink:title=" ">
<path fill="none" stroke="#63b8ff" d="M556.49,-364.84C559.68,-335.38 572.91,-240.42 615.62,-177 625.09,-162.95 639.66,-150.85 652.3,-142.05"/>
<polygon fill="#63b8ff" stroke="#63b8ff" points="654.21,-144.99 660.63,-136.56 650.35,-139.14 654.21,-144.99"/>
</a>
</g>
</g>
<!-- Node18&#45;&gt;Node11 -->
<g id="edge30_Node000018_Node000011" class="edge">
<title>Node18&#45;&gt;Node11</title>
<g id="a_edge30_Node000018_Node000011"><a xlink:title=" ">
<path fill="none" stroke="#63b8ff" d="M662,-243.11C640.98,-234.78 609.63,-221.59 583.62,-207.5 546.48,-187.37 506,-159.55 481.99,-142.38"/>
<polygon fill="#63b8ff" stroke="#63b8ff" points="484.15,-139.62 474,-136.61 480.06,-145.3 484.15,-139.62"/>
</a>
</g>
</g>
<!-- Node18&#45;&gt;Node12 -->
<g id="edge31_Node000018_Node000012" class="edge">
<title>Node18&#45;&gt;Node12</title>
<g id="a_edge31_Node000018_Node000012"><a xlink:title=" ">
<path fill="none" stroke="#63b8ff" d="M668.19,-243.03C653.37,-234.84 631.94,-221.9 615.62,-207.5 594.04,-188.46 573.58,-162.17 561.08,-144.82"/>
<polygon fill="#63b8ff" stroke="#63b8ff" points="564.18,-143.16 555.56,-137 558.47,-147.19 564.18,-143.16"/>
</a>
</g>
</g>
<!-- Node18&#45;&gt;Node17 -->
<g id="edge25_Node000018_Node000017" class="edge">
<title>Node18&#45;&gt;Node17</title>
<g id="a_edge25_Node000018_Node000017"><a xlink:title=" ">
<path fill="none" stroke="#63b8ff" d="M703.3,-243.07C716.01,-235.48 732.16,-223.34 739.62,-207.5 745.4,-195.24 745.46,-189.24 739.62,-177 732.5,-162.05 718.51,-150.11 705.62,-141.62"/>
<polygon fill="#63b8ff" stroke="#63b8ff" points="707.76,-138.83 697.4,-136.6 704.11,-144.8 707.76,-138.83"/>
</a>
</g>
</g>
<!-- Node19 -->
<g id="Node000019" class="node">
<title>Node19</title>
<g id="a_Node000019"><a xlink:href="type__traits__impl_8hpp.html" target="_top" xlink:title=" ">
<polygon fill="white" stroke="#666666" points="730.25,-207.5 625,-207.5 625,-177 730.25,-177 730.25,-207.5"/>
<text text-anchor="start" x="633" y="-194" font-family="Helvetica,sans-Serif" font-size="10.00">yaclib/util/detail</text>
<text text-anchor="middle" x="677.62" y="-182.75" font-family="Helvetica,sans-Serif" font-size="10.00">/type_traits_impl.hpp</text>
</a>
</g>
</g>
<!-- Node18&#45;&gt;Node19 -->
<g id="edge26_Node000018_Node000019" class="edge">
<title>Node18&#45;&gt;Node19</title>
<g id="a_edge26_Node000018_Node000019"><a xlink:title=" ">
<path fill="none" stroke="#63b8ff" d="M684.41,-243.18C683.53,-236.73 682.3,-227.66 681.13,-219.01"/>
<polygon fill="#63b8ff" stroke="#63b8ff" points="684.62,-218.72 679.8,-209.28 677.68,-219.66 684.62,-218.72"/>
</a>
</g>
</g>
<!-- Node20 -->
<g id="Node000020" class="node">
<title>Node20</title>
<g id="a_Node000020"><a xlink:title=" ">
<polygon fill="#e0e0e0" stroke="#999999" points="844.25,-201.88 787,-201.88 787,-182.62 844.25,-182.62 844.25,-201.88"/>
<text text-anchor="middle" x="815.62" y="-188.38" font-family="Helvetica,sans-Serif" font-size="10.00">exception</text>
</a>
</g>
</g>
<!-- Node18&#45;&gt;Node20 -->
<g id="edge29_Node000018_Node000020" class="edge">
<title>Node18&#45;&gt;Node20</title>
<g id="a_edge29_Node000018_Node000020"><a xlink:title=" ">
<path fill="none" stroke="#63b8ff" d="M705.65,-243.05C726.99,-233.39 761.02,-217.98 785.58,-206.86"/>
<polygon fill="#63b8ff" stroke="#63b8ff" points="786.74,-210.17 794.41,-202.86 783.86,-203.8 786.74,-210.17"/>
</a>
</g>
</g>
<!-- Node21 -->
<g id="Node000021" class="node">
<title>Node21</title>
<g id="a_Node000021"><a xlink:title=" ">
<polygon fill="#e0e0e0" stroke="#999999" points="907.25,-201.88 862,-201.88 862,-182.62 907.25,-182.62 907.25,-201.88"/>
<text text-anchor="middle" x="884.62" y="-188.38" font-family="Helvetica,sans-Serif" font-size="10.00">variant</text>
</a>
</g>
</g>
<!-- Node18&#45;&gt;Node21 -->
<g id="edge32_Node000018_Node000021" class="edge">
<title>Node18&#45;&gt;Node21</title>
<g id="a_edge32_Node000018_Node000021"><a xlink:title=" ">
<path fill="none" stroke="#63b8ff" d="M727.66,-243.07C762.01,-235.17 811.6,-222.62 853.62,-207.5 854.27,-207.27 854.92,-207.03 855.57,-206.78"/>
<polygon fill="#63b8ff" stroke="#63b8ff" points="856.87,-210.03 864.76,-202.95 854.18,-203.57 856.87,-210.03"/>
</a>
</g>
</g>
<!-- Node19&#45;&gt;Node11 -->
<g id="edge28_Node000019_Node000011" class="edge">
<title>Node19&#45;&gt;Node11</title>
<g id="a_edge28_Node000019_Node000011"><a xlink:title=" ">
<path fill="none" stroke="#63b8ff" d="M628.11,-176.53C589.91,-165.18 537.69,-149.66 501.77,-138.98"/>
<polygon fill="#63b8ff" stroke="#63b8ff" points="503.21,-135.76 492.63,-136.26 501.21,-142.47 503.21,-135.76"/>
</a>
</g>
</g>
<!-- Node19&#45;&gt;Node17 -->
<g id="edge27_Node000019_Node000017" class="edge">
<title>Node19&#45;&gt;Node17</title>
<g id="a_edge27_Node000019_Node000017"><a xlink:title=" ">
<path fill="none" stroke="#63b8ff" d="M677.62,-176.61C677.62,-167.83 677.62,-156.52 677.62,-146.9"/>
<polygon fill="#63b8ff" stroke="#63b8ff" points="681.13,-147.09 677.63,-137.09 674.13,-147.09 681.13,-147.09"/>
</a>
</g>
</g>
</g>
</svg>

<g id="navigator" transform="translate(0 0)" fill="#404254">
  <rect fill="#f2f5e9" fill-opacity="0.5" stroke="#606060" stroke-width=".5" x="0" y="0" width="60" height="60"/>
  <use id="zoomplus" xlink:href="#zoomPlus" x="17" y="9" onmousedown="handleZoom(evt,'in')"/>
  <use id="zoomminus" xlink:href="#zoomMin" x="42" y="9" onmousedown="handleZoom(evt,'out')"/>
  <use id="reset" xlink:href="#resetDef" x="30" y="36" onmousedown="handleReset()"/>
   <use id="arrowup" xlink:href="#arrowUp" x="0" y="0" onmousedown="handlePan(0,-1)"/>
  <use id="arrowright" xlink:href="#arrowRight" x="0" y="0" onmousedown="handlePan(1,0)"/>
  <use id="arrowdown" xlink:href="#arrowDown" x="0" y="0" onmousedown="handlePan(0,1)"/>
  <use id="arrowleft" xlink:href="#arrowLeft" x="0" y="0" onmousedown="handlePan(-1,0)"/>
</g>
<svg viewBox="0 0 15 15" width="100%" height="30px" preserveAspectRatio="xMaxYMin meet">
 <g id="arrow_out" transform="scale(0.3 0.3)">
  <a xlink:href="base__core_8hpp__incl_org.svg" target="_base">
   <rect id="button" ry="5" rx="5" y="6" x="6" height="38" width="38"
        fill="#f2f5e9" fill-opacity="0.5" stroke="#606060" stroke-width="1.0"/>
   <path id="arrow"
     d="M 11.500037,31.436501 C 11.940474,20.09759 22.043105,11.32322 32.158766,21.979434 L 37.068811,17.246167 C 37.068811,17.246167 37.088388,32 37.088388,32 L 22.160133,31.978069 C 22.160133,31.978069 26.997745,27.140456 26.997745,27.140456 C 18.528582,18.264221 13.291696,25.230495 11.500037,31.436501 z"
     style="fill:#404040;"/>
  </a>
 </g>
</svg>

<style type='text/css'>
<![CDATA[
[data-mouse-over-selected='false'] { opacity: 0.7; }
[data-mouse-over-selected='true']  { opacity: 1.0; }
]]>
</style>
<script type="application/ecmascript"><![CDATA[
document.addEventListener('DOMContentLoaded', (event) => {
  highlightEdges();
  highlightAdjacentNodes();
});
]]></script>
</svg>
