<?xml version="1.0" encoding="UTF-8" standalone="no"?>
<!DOCTYPE svg PUBLIC "-//W3C//DTD SVG 1.1//EN"
 "http://www.w3.org/Graphics/SVG/1.1/DTD/svg11.dtd">
<!-- Generated by graphviz version 3.0.0 (20220413.0242)
 -->
<!-- Title: include/yaclib/async/detail/base_core.hpp Pages: 1 -->
<svg width="563pt" height="352pt"
 viewBox="0.00 0.00 562.65 352.00" xmlns="http://www.w3.org/2000/svg" xmlns:xlink="http://www.w3.org/1999/xlink">
<g id="graph0" class="graph" transform="scale(1 1) rotate(0) translate(4 348)">
<title>include/yaclib/async/detail/base_core.hpp</title>
<!-- Node1 -->
<g id="node1" class="node">
<title>Node1</title>
<g id="a_node1"><a xlink:title=" ">
<polygon fill="#bfbfbf" stroke="black" points="216.15,-313.5 216.15,-343.5 325.15,-343.5 325.15,-313.5 216.15,-313.5"/>
<text text-anchor="start" x="224.15" y="-331.5" font-family="Helvetica,sans-Serif" font-size="10.00">include/yaclib/async</text>
<text text-anchor="middle" x="270.65" y="-320.5" font-family="Helvetica,sans-Serif" font-size="10.00">/detail/base_core.hpp</text>
</a>
</g>
</g>
<!-- Node2 -->
<g id="node2" class="node">
<title>Node2</title>
<g id="a_node2"><a xlink:href="inline__core_8hpp.html" target="_top" xlink:title=" ">
<polygon fill="none" stroke="black" points="46.65,-246.5 46.65,-276.5 142.65,-276.5 142.65,-246.5 46.65,-246.5"/>
<text text-anchor="start" x="54.65" y="-264.5" font-family="Helvetica,sans-Serif" font-size="10.00">yaclib/async/detail</text>
<text text-anchor="middle" x="94.65" y="-253.5" font-family="Helvetica,sans-Serif" font-size="10.00">/inline_core.hpp</text>
</a>
</g>
</g>
<!-- Node1&#45;&gt;Node2 -->
<g id="edge1" class="edge">
<title>Node1&#45;&gt;Node2</title>
<path fill="none" stroke="midnightblue" d="M232.46,-313.4C206.05,-303.64 170.72,-290.59 142.45,-280.15"/>
<polygon fill="midnightblue" stroke="midnightblue" points="143.36,-276.76 132.77,-276.58 140.93,-283.32 143.36,-276.76"/>
</g>
<!-- Node6 -->
<g id="node6" class="node">
<title>Node6</title>
<g id="a_node6"><a xlink:href="ref_8hpp.html" target="_top" xlink:title=" ">
<polygon fill="none" stroke="black" points="123.15,-56.5 123.15,-75.5 212.15,-75.5 212.15,-56.5 123.15,-56.5"/>
<text text-anchor="middle" x="167.65" y="-63.5" font-family="Helvetica,sans-Serif" font-size="10.00">yaclib/util/ref.hpp</text>
</a>
</g>
</g>
<!-- Node1&#45;&gt;Node6 -->
<g id="edge19" class="edge">
<title>Node1&#45;&gt;Node6</title>
<path fill="none" stroke="midnightblue" d="M216.09,-323.43C154.4,-317.55 59.64,-304.26 37.65,-277 13.43,-246.96 -38.25,-228.13 49.65,-112 64.82,-91.96 90.06,-80.85 113.31,-74.68"/>
<polygon fill="midnightblue" stroke="midnightblue" points="114.21,-78.06 123.12,-72.33 112.58,-71.26 114.21,-78.06"/>
</g>
<!-- Node10 -->
<g id="node10" class="node">
<title>Node10</title>
<g id="a_node10"><a xlink:title=" ">
<polygon fill="none" stroke="#bfbfbf" points="160.65,-252 160.65,-271 248.65,-271 248.65,-252 160.65,-252"/>
<text text-anchor="middle" x="204.65" y="-259" font-family="Helvetica,sans-Serif" font-size="10.00">yaclib/config.hpp</text>
</a>
</g>
</g>
<!-- Node1&#45;&gt;Node10 -->
<g id="edge9" class="edge">
<title>Node1&#45;&gt;Node10</title>
<path fill="none" stroke="midnightblue" d="M256.33,-313.4C245.83,-303.06 231.58,-289.02 220.7,-278.31"/>
<polygon fill="midnightblue" stroke="midnightblue" points="223.06,-275.72 213.48,-271.19 218.15,-280.71 223.06,-275.72"/>
</g>
<!-- Node11 -->
<g id="node11" class="node">
<title>Node11</title>
<g id="a_node11"><a xlink:href="executor_8hpp.html" target="_top" xlink:title=" ">
<polygon fill="none" stroke="black" points="267.15,-252 267.15,-271 406.15,-271 406.15,-252 267.15,-252"/>
<text text-anchor="middle" x="336.65" y="-259" font-family="Helvetica,sans-Serif" font-size="10.00">yaclib/executor/executor.hpp</text>
</a>
</g>
</g>
<!-- Node1&#45;&gt;Node11 -->
<g id="edge10" class="edge">
<title>Node1&#45;&gt;Node11</title>
<path fill="none" stroke="midnightblue" d="M284.97,-313.4C295.47,-303.06 309.72,-289.02 320.6,-278.31"/>
<polygon fill="midnightblue" stroke="midnightblue" points="323.15,-280.71 327.82,-271.19 318.24,-275.72 323.15,-280.71"/>
</g>
<!-- Node12 -->
<g id="node12" class="node">
<title>Node12</title>
<g id="a_node12"><a xlink:href="intrusive__ptr_8hpp.html" target="_top" xlink:title=" ">
<polygon fill="none" stroke="black" points="288.15,-179.5 288.15,-209.5 385.15,-209.5 385.15,-179.5 288.15,-179.5"/>
<text text-anchor="start" x="296.15" y="-197.5" font-family="Helvetica,sans-Serif" font-size="10.00">yaclib/util/intrusive</text>
<text text-anchor="middle" x="336.65" y="-186.5" font-family="Helvetica,sans-Serif" font-size="10.00">_ptr.hpp</text>
</a>
</g>
</g>
<!-- Node1&#45;&gt;Node12 -->
<g id="edge18" class="edge">
<title>Node1&#45;&gt;Node12</title>
<path fill="none" stroke="midnightblue" d="M325.41,-323.62C357.35,-318.21 395.27,-305.68 415.65,-277 423.63,-265.77 422.27,-258.08 415.65,-246 408.34,-232.66 395.85,-222.33 382.92,-214.59"/>
<polygon fill="midnightblue" stroke="midnightblue" points="384.41,-211.41 373.96,-209.64 381.02,-217.54 384.41,-211.41"/>
</g>
<!-- Node16 -->
<g id="node16" class="node">
<title>Node16</title>
<g id="a_node16"><a xlink:title=" ">
<polygon fill="none" stroke="#bfbfbf" points="462.65,-252 462.65,-271 554.65,-271 554.65,-252 462.65,-252"/>
<text text-anchor="middle" x="508.65" y="-259" font-family="Helvetica,sans-Serif" font-size="10.00">yaclib_std/atomic</text>
</a>
</g>
</g>
<!-- Node1&#45;&gt;Node16 -->
<g id="edge20" class="edge">
<title>Node1&#45;&gt;Node16</title>
<path fill="none" stroke="midnightblue" d="M322,-313.48C365.59,-301.57 427.31,-284.72 467.65,-273.7"/>
<polygon fill="midnightblue" stroke="midnightblue" points="468.7,-277.04 477.42,-271.03 466.85,-270.29 468.7,-277.04"/>
</g>
<!-- Node3 -->
<g id="node3" class="node">
<title>Node3</title>
<g id="a_node3"><a xlink:href="job_8hpp.html" target="_top" xlink:title=" ">
<polygon fill="none" stroke="black" points="146.15,-185 146.15,-204 261.15,-204 261.15,-185 146.15,-185"/>
<text text-anchor="middle" x="203.65" y="-192" font-family="Helvetica,sans-Serif" font-size="10.00">yaclib/executor/job.hpp</text>
</a>
</g>
</g>
<!-- Node2&#45;&gt;Node3 -->
<g id="edge2" class="edge">
<title>Node2&#45;&gt;Node3</title>
<path fill="none" stroke="midnightblue" d="M118.3,-246.4C136.83,-235.34 162.46,-220.06 180.79,-209.13"/>
<polygon fill="midnightblue" stroke="midnightblue" points="182.59,-212.13 189.38,-204.01 179,-206.12 182.59,-212.13"/>
</g>
<!-- Node9 -->
<g id="node9" class="node">
<title>Node9</title>
<g id="a_node9"><a xlink:title=" ">
<polygon fill="none" stroke="#bfbfbf" points="71.65,-185 71.65,-204 117.65,-204 117.65,-185 71.65,-185"/>
<text text-anchor="middle" x="94.65" y="-192" font-family="Helvetica,sans-Serif" font-size="10.00">cstdint</text>
</a>
</g>
</g>
<!-- Node2&#45;&gt;Node9 -->
<g id="edge8" class="edge">
<title>Node2&#45;&gt;Node9</title>
<path fill="none" stroke="midnightblue" d="M94.65,-246.4C94.65,-237.06 94.65,-224.71 94.65,-214.52"/>
<polygon fill="midnightblue" stroke="midnightblue" points="98.15,-214.19 94.65,-204.19 91.15,-214.19 98.15,-214.19"/>
</g>
<!-- Node4 -->
<g id="node4" class="node">
<title>Node4</title>
<g id="a_node4"><a xlink:href="node_8hpp.html" target="_top" xlink:title=" ">
<polygon fill="none" stroke="black" points="59.15,-112.5 59.15,-142.5 142.15,-142.5 142.15,-112.5 59.15,-112.5"/>
<text text-anchor="start" x="67.15" y="-130.5" font-family="Helvetica,sans-Serif" font-size="10.00">yaclib/util/detail</text>
<text text-anchor="middle" x="100.65" y="-119.5" font-family="Helvetica,sans-Serif" font-size="10.00">/node.hpp</text>
</a>
</g>
</g>
<!-- Node3&#45;&gt;Node4 -->
<g id="edge3" class="edge">
<title>Node3&#45;&gt;Node4</title>
<path fill="none" stroke="midnightblue" d="M189.76,-184.73C174.9,-175.36 150.86,-160.19 131.5,-147.97"/>
<polygon fill="midnightblue" stroke="midnightblue" points="133.3,-144.97 122.98,-142.59 129.56,-150.89 133.3,-144.97"/>
</g>
<!-- Node5 -->
<g id="node5" class="node">
<title>Node5</title>
<g id="a_node5"><a xlink:href="func_8hpp.html" target="_top" xlink:title=" ">
<polygon fill="none" stroke="black" points="199.15,-118 199.15,-137 296.15,-137 296.15,-118 199.15,-118"/>
<text text-anchor="middle" x="247.65" y="-125" font-family="Helvetica,sans-Serif" font-size="10.00">yaclib/util/func.hpp</text>
</a>
</g>
</g>
<!-- Node3&#45;&gt;Node5 -->
<g id="edge4" class="edge">
<title>Node3&#45;&gt;Node5</title>
<path fill="none" stroke="midnightblue" d="M209.58,-184.73C216.38,-174.7 227.67,-158.01 236.2,-145.42"/>
<polygon fill="midnightblue" stroke="midnightblue" points="239.1,-147.37 241.81,-137.13 233.31,-143.45 239.1,-147.37"/>
</g>
<!-- Node5&#45;&gt;Node6 -->
<g id="edge5" class="edge">
<title>Node5&#45;&gt;Node6</title>
<path fill="none" stroke="midnightblue" d="M236.19,-117.98C223.48,-108.52 202.74,-93.1 187.4,-81.69"/>
<polygon fill="midnightblue" stroke="midnightblue" points="189.2,-78.67 179.09,-75.51 185.03,-84.29 189.2,-78.67"/>
</g>
<!-- Node7 -->
<g id="node7" class="node">
<title>Node7</title>
<g id="a_node7"><a xlink:title=" ">
<polygon fill="none" stroke="#bfbfbf" points="289.65,-56.5 289.65,-75.5 351.65,-75.5 351.65,-56.5 289.65,-56.5"/>
<text text-anchor="middle" x="320.65" y="-63.5" font-family="Helvetica,sans-Serif" font-size="10.00">type_traits</text>
</a>
</g>
</g>
<!-- Node5&#45;&gt;Node7 -->
<g id="edge6" class="edge">
<title>Node5&#45;&gt;Node7</title>
<path fill="none" stroke="midnightblue" d="M258.11,-117.98C269.6,-108.61 288.28,-93.38 302.24,-82.01"/>
<polygon fill="midnightblue" stroke="midnightblue" points="304.67,-84.54 310.21,-75.51 300.25,-79.11 304.67,-84.54"/>
</g>
<!-- Node8 -->
<g id="node8" class="node">
<title>Node8</title>
<g id="a_node8"><a xlink:title=" ">
<polygon fill="none" stroke="#bfbfbf" points="230.15,-56.5 230.15,-75.5 269.15,-75.5 269.15,-56.5 230.15,-56.5"/>
<text text-anchor="middle" x="249.65" y="-63.5" font-family="Helvetica,sans-Serif" font-size="10.00">utility</text>
</a>
</g>
</g>
<!-- Node5&#45;&gt;Node8 -->
<g id="edge7" class="edge">
<title>Node5&#45;&gt;Node8</title>
<path fill="none" stroke="midnightblue" d="M247.94,-117.98C248.22,-109.58 248.66,-96.48 249.02,-85.66"/>
<polygon fill="midnightblue" stroke="midnightblue" points="252.53,-85.62 249.36,-75.51 245.53,-85.39 252.53,-85.62"/>
</g>
<!-- Node11&#45;&gt;Node3 -->
<g id="edge11" class="edge">
<title>Node11&#45;&gt;Node3</title>
<path fill="none" stroke="midnightblue" d="M318.99,-251.87C296.33,-240.8 256.82,-221.49 230.45,-208.6"/>
<polygon fill="midnightblue" stroke="midnightblue" points="231.91,-205.41 221.38,-204.17 228.83,-211.7 231.91,-205.41"/>
</g>
<!-- Node11&#45;&gt;Node12 -->
<g id="edge12" class="edge">
<title>Node11&#45;&gt;Node12</title>
<path fill="none" stroke="midnightblue" d="M336.65,-251.73C336.65,-243.54 336.65,-230.92 336.65,-219.71"/>
<polygon fill="midnightblue" stroke="midnightblue" points="340.15,-219.59 336.65,-209.59 333.15,-219.59 340.15,-219.59"/>
</g>
<!-- Node12&#45;&gt;Node6 -->
<g id="edge13" class="edge">
<title>Node12&#45;&gt;Node6</title>
<path fill="none" stroke="midnightblue" d="M287.96,-181.94C250.72,-172.18 203.47,-157.51 189.65,-143 175.03,-127.64 170.04,-103.17 168.39,-86.16"/>
<polygon fill="midnightblue" stroke="midnightblue" points="171.85,-85.53 167.69,-75.78 164.87,-85.99 171.85,-85.53"/>
</g>
<!-- Node12&#45;&gt;Node7 -->
<g id="edge14" class="edge">
<title>Node12&#45;&gt;Node7</title>
<path fill="none" stroke="midnightblue" d="M334.88,-179.48C331.99,-156.62 326.25,-111.3 323.02,-85.71"/>
<polygon fill="midnightblue" stroke="midnightblue" points="326.49,-85.27 321.76,-75.79 319.54,-86.15 326.49,-85.27"/>
</g>
<!-- Node13 -->
<g id="node13" class="node">
<title>Node13</title>
<g id="a_node13"><a xlink:href="intrusive__ptr__impl_8hpp.html" target="_top" xlink:title=" ">
<polygon fill="none" stroke="black" points="352.65,-112.5 352.65,-142.5 466.65,-142.5 466.65,-112.5 352.65,-112.5"/>
<text text-anchor="start" x="360.65" y="-130.5" font-family="Helvetica,sans-Serif" font-size="10.00">yaclib/util/detail</text>
<text text-anchor="middle" x="409.65" y="-119.5" font-family="Helvetica,sans-Serif" font-size="10.00">/intrusive_ptr_impl.hpp</text>
</a>
</g>
</g>
<!-- Node12&#45;&gt;Node13 -->
<g id="edge15" class="edge">
<title>Node12&#45;&gt;Node13</title>
<path fill="none" stroke="midnightblue" d="M352.49,-179.4C362.34,-170.62 375.19,-159.18 386.21,-149.37"/>
<polygon fill="midnightblue" stroke="midnightblue" points="388.7,-151.84 393.84,-142.58 384.05,-146.61 388.7,-151.84"/>
</g>
<!-- Node14 -->
<g id="node14" class="node">
<title>Node14</title>
<g id="a_node14"><a xlink:href="log_8hpp.html" target="_top" xlink:title=" ">
<polygon fill="none" stroke="black" points="372.15,-56.5 372.15,-75.5 447.15,-75.5 447.15,-56.5 372.15,-56.5"/>
<text text-anchor="middle" x="409.65" y="-63.5" font-family="Helvetica,sans-Serif" font-size="10.00">yaclib/log.hpp</text>
</a>
</g>
</g>
<!-- Node13&#45;&gt;Node14 -->
<g id="edge16" class="edge">
<title>Node13&#45;&gt;Node14</title>
<path fill="none" stroke="midnightblue" d="M409.65,-112.4C409.65,-104.47 409.65,-94.46 409.65,-85.86"/>
<polygon fill="midnightblue" stroke="midnightblue" points="413.15,-85.66 409.65,-75.66 406.15,-85.66 413.15,-85.66"/>
</g>
<!-- Node15 -->
<g id="node15" class="node">
<title>Node15</title>
<g id="a_node15"><a xlink:title=" ">
<polygon fill="none" stroke="#bfbfbf" points="376.65,-0.5 376.65,-19.5 442.65,-19.5 442.65,-0.5 376.65,-0.5"/>
<text text-anchor="middle" x="409.65" y="-7.5" font-family="Helvetica,sans-Serif" font-size="10.00">string_view</text>
</a>
</g>
</g>
<!-- Node14&#45;&gt;Node15 -->
<g id="edge17" class="edge">
<title>Node14&#45;&gt;Node15</title>
<path fill="none" stroke="midnightblue" d="M409.65,-56.08C409.65,-49.01 409.65,-38.86 409.65,-29.99"/>
<polygon fill="midnightblue" stroke="midnightblue" points="413.15,-29.75 409.65,-19.75 406.15,-29.75 413.15,-29.75"/>
</g>
</g>
</svg>
