<?xml version="1.0" encoding="UTF-8" standalone="no"?>
<!DOCTYPE svg PUBLIC "-//W3C//DTD SVG 1.1//EN"
 "http://www.w3.org/Graphics/SVG/1.1/DTD/svg11.dtd">
<!-- Generated by graphviz version 3.0.0 (20220413.0242)
 -->
<!-- Title: src/fault/fiber/bidirectional_intrusive_list.cpp Pages: 1 -->
<svg width="191pt" height="229pt"
 viewBox="0.00 0.00 190.50 229.00" xmlns="http://www.w3.org/2000/svg" xmlns:xlink="http://www.w3.org/1999/xlink">
<g id="graph0" class="graph" transform="scale(1 1) rotate(0) translate(4 225)">
<title>src/fault/fiber/bidirectional_intrusive_list.cpp</title>
<!-- Node1 -->
<g id="node1" class="node">
<title>Node1</title>
<g id="a_node1"><a xlink:title=" ">
<polygon fill="#bfbfbf" stroke="black" points="54.5,-190.5 54.5,-220.5 182.5,-220.5 182.5,-190.5 54.5,-190.5"/>
<text text-anchor="start" x="62.5" y="-208.5" font-family="Helvetica,sans-Serif" font-size="10.00">src/fault/fiber/bidirectional</text>
<text text-anchor="middle" x="118.5" y="-197.5" font-family="Helvetica,sans-Serif" font-size="10.00">_intrusive_list.cpp</text>
</a>
</g>
</g>
<!-- Node2 -->
<g id="node2" class="node">
<title>Node2</title>
<g id="a_node2"><a xlink:href="bidirectional__intrusive__list_8hpp.html" target="_top" xlink:title=" ">
<polygon fill="none" stroke="black" points="29,-112.5 29,-153.5 124,-153.5 124,-112.5 29,-112.5"/>
<text text-anchor="start" x="37" y="-141.5" font-family="Helvetica,sans-Serif" font-size="10.00">yaclib/fault/detail</text>
<text text-anchor="start" x="37" y="-130.5" font-family="Helvetica,sans-Serif" font-size="10.00">/fiber/bidirectional</text>
<text text-anchor="middle" x="76.5" y="-119.5" font-family="Helvetica,sans-Serif" font-size="10.00">_intrusive_list.hpp</text>
</a>
</g>
</g>
<!-- Node1&#45;&gt;Node2 -->
<g id="edge1" class="edge">
<title>Node1&#45;&gt;Node2</title>
<path fill="none" stroke="midnightblue" d="M110,-190.23C105.24,-182.24 99.14,-172 93.44,-162.44"/>
<polygon fill="midnightblue" stroke="midnightblue" points="96.29,-160.39 88.17,-153.59 90.28,-163.97 96.29,-160.39"/>
</g>
<!-- Node6 -->
<g id="node6" class="node">
<title>Node6</title>
<g id="a_node6"><a xlink:title=" ">
<polygon fill="none" stroke="#bfbfbf" points="142,-123.5 142,-142.5 181,-142.5 181,-123.5 142,-123.5"/>
<text text-anchor="middle" x="161.5" y="-130.5" font-family="Helvetica,sans-Serif" font-size="10.00">utility</text>
</a>
</g>
</g>
<!-- Node1&#45;&gt;Node6 -->
<g id="edge5" class="edge">
<title>Node1&#45;&gt;Node6</title>
<path fill="none" stroke="midnightblue" d="M127.2,-190.23C134.02,-179.06 143.53,-163.46 150.81,-151.52"/>
<polygon fill="midnightblue" stroke="midnightblue" points="153.86,-153.25 156.08,-142.89 147.88,-149.61 153.86,-153.25"/>
</g>
<!-- Node3 -->
<g id="node3" class="node">
<title>Node3</title>
<g id="a_node3"><a xlink:href="log_8hpp.html" target="_top" xlink:title=" ">
<polygon fill="none" stroke="black" points="0,-56.5 0,-75.5 75,-75.5 75,-56.5 0,-56.5"/>
<text text-anchor="middle" x="37.5" y="-63.5" font-family="Helvetica,sans-Serif" font-size="10.00">yaclib/log.hpp</text>
</a>
</g>
</g>
<!-- Node2&#45;&gt;Node3 -->
<g id="edge2" class="edge">
<title>Node2&#45;&gt;Node3</title>
<path fill="none" stroke="midnightblue" d="M64.8,-112.5C59.45,-103.59 53.17,-93.11 47.98,-84.46"/>
<polygon fill="midnightblue" stroke="midnightblue" points="50.84,-82.43 42.69,-75.65 44.84,-86.03 50.84,-82.43"/>
</g>
<!-- Node5 -->
<g id="node5" class="node">
<title>Node5</title>
<g id="a_node5"><a xlink:title=" ">
<polygon fill="none" stroke="#bfbfbf" points="93.5,-56.5 93.5,-75.5 139.5,-75.5 139.5,-56.5 93.5,-56.5"/>
<text text-anchor="middle" x="116.5" y="-63.5" font-family="Helvetica,sans-Serif" font-size="10.00">cstdint</text>
</a>
</g>
</g>
<!-- Node2&#45;&gt;Node5 -->
<g id="edge4" class="edge">
<title>Node2&#45;&gt;Node5</title>
<path fill="none" stroke="midnightblue" d="M88.5,-112.5C94.04,-103.49 100.57,-92.89 105.92,-84.19"/>
<polygon fill="midnightblue" stroke="midnightblue" points="108.92,-86 111.18,-75.65 102.95,-82.33 108.92,-86"/>
</g>
<!-- Node4 -->
<g id="node4" class="node">
<title>Node4</title>
<g id="a_node4"><a xlink:title=" ">
<polygon fill="none" stroke="#bfbfbf" points="4.5,-0.5 4.5,-19.5 70.5,-19.5 70.5,-0.5 4.5,-0.5"/>
<text text-anchor="middle" x="37.5" y="-7.5" font-family="Helvetica,sans-Serif" font-size="10.00">string_view</text>
</a>
</g>
</g>
<!-- Node3&#45;&gt;Node4 -->
<g id="edge3" class="edge">
<title>Node3&#45;&gt;Node4</title>
<path fill="none" stroke="midnightblue" d="M37.5,-56.08C37.5,-49.01 37.5,-38.86 37.5,-29.99"/>
<polygon fill="midnightblue" stroke="midnightblue" points="41,-29.75 37.5,-19.75 34,-29.75 41,-29.75"/>
</g>
</g>
</svg>
