<?xml version="1.0" encoding="UTF-8" standalone="no"?>
<!DOCTYPE svg PUBLIC "-//W3C//DTD SVG 1.1//EN"
 "http://www.w3.org/Graphics/SVG/1.1/DTD/svg11.dtd">
<!-- Generated by graphviz version 9.0.0 (20230911.1827)
 -->
<!-- Title: src/fault/fiber/bidirectional_intrusive_list.cpp Pages: 1 -->
<svg width="190pt" height="227pt"
 viewBox="0.00 0.00 189.75 226.75" xmlns="http://www.w3.org/2000/svg" xmlns:xlink="http://www.w3.org/1999/xlink">
<g id="graph0" class="graph" transform="scale(1 1) rotate(0) translate(4 222.75)">
<title>src/fault/fiber/bidirectional_intrusive_list.cpp</title>
<!-- Node1 -->
<g id="Node000001" class="node">
<title>Node1</title>
<g id="a_Node000001"><a xlink:title=" ">
<polygon fill="#999999" stroke="#666666" points="181.75,-218.75 54.75,-218.75 54.75,-188.25 181.75,-188.25 181.75,-218.75"/>
<text text-anchor="start" x="62.75" y="-205.25" font-family="Helvetica,sans-Serif" font-size="10.00">src/fault/fiber/bidirectional</text>
<text text-anchor="middle" x="118.25" y="-194" font-family="Helvetica,sans-Serif" font-size="10.00">_intrusive_list.cpp</text>
</a>
</g>
</g>
<!-- Node2 -->
<g id="Node000002" class="node">
<title>Node2</title>
<g id="a_Node000002"><a xlink:href="bidirectional__intrusive__list_8hpp.html" target="_top" xlink:title=" ">
<polygon fill="white" stroke="#666666" points="123.25,-152.25 29.25,-152.25 29.25,-110.5 123.25,-110.5 123.25,-152.25"/>
<text text-anchor="start" x="37.25" y="-138.75" font-family="Helvetica,sans-Serif" font-size="10.00">yaclib/fault/detail</text>
<text text-anchor="start" x="37.25" y="-127.5" font-family="Helvetica,sans-Serif" font-size="10.00">/fiber/bidirectional</text>
<text text-anchor="middle" x="76.25" y="-116.25" font-family="Helvetica,sans-Serif" font-size="10.00">_intrusive_list.hpp</text>
</a>
</g>
</g>
<!-- Node1&#45;&gt;Node2 -->
<g id="edge1_Node000001_Node000002" class="edge">
<title>Node1&#45;&gt;Node2</title>
<g id="a_edge1_Node000001_Node000002"><a xlink:title=" ">
<path fill="none" stroke="#63b8ff" d="M109.55,-187.97C105.11,-180.57 99.55,-171.28 94.25,-162.42"/>
<polygon fill="#63b8ff" stroke="#63b8ff" points="97.36,-160.82 89.22,-154.03 91.36,-164.41 97.36,-160.82"/>
</a>
</g>
</g>
<!-- Node6 -->
<g id="Node000006" class="node">
<title>Node6</title>
<g id="a_Node000006"><a xlink:title=" ">
<polygon fill="#e0e0e0" stroke="#999999" points="179.5,-141 141,-141 141,-121.75 179.5,-121.75 179.5,-141"/>
<text text-anchor="middle" x="160.25" y="-127.5" font-family="Helvetica,sans-Serif" font-size="10.00">utility</text>
</a>
</g>
</g>
<!-- Node1&#45;&gt;Node6 -->
<g id="edge5_Node000001_Node000006" class="edge">
<title>Node1&#45;&gt;Node6</title>
<g id="a_edge5_Node000001_Node000006"><a xlink:title=" ">
<path fill="none" stroke="#63b8ff" d="M126.95,-187.97C133.43,-177.16 142.31,-162.33 149.27,-150.7"/>
<polygon fill="#63b8ff" stroke="#63b8ff" points="152.09,-152.81 154.23,-142.43 146.09,-149.21 152.09,-152.81"/>
</a>
</g>
</g>
<!-- Node3 -->
<g id="Node000003" class="node">
<title>Node3</title>
<g id="a_Node000003"><a xlink:href="log_8hpp.html" target="_top" xlink:title=" ">
<polygon fill="white" stroke="#666666" points="74.5,-74.5 0,-74.5 0,-55.25 74.5,-55.25 74.5,-74.5"/>
<text text-anchor="middle" x="37.25" y="-61" font-family="Helvetica,sans-Serif" font-size="10.00">yaclib/log.hpp</text>
</a>
</g>
</g>
<!-- Node2&#45;&gt;Node3 -->
<g id="edge2_Node000002_Node000003" class="edge">
<title>Node2&#45;&gt;Node3</title>
<g id="a_edge2_Node000002_Node000003"><a xlink:title=" ">
<path fill="none" stroke="#63b8ff" d="M64.12,-110.32C59.15,-102.09 53.42,-92.62 48.54,-84.54"/>
<polygon fill="#63b8ff" stroke="#63b8ff" points="51.69,-82.99 43.52,-76.24 45.7,-86.61 51.69,-82.99"/>
</a>
</g>
</g>
<!-- Node5 -->
<g id="Node000005" class="node">
<title>Node5</title>
<g id="a_Node000005"><a xlink:title=" ">
<polygon fill="#e0e0e0" stroke="#999999" points="137.88,-74.5 92.62,-74.5 92.62,-55.25 137.88,-55.25 137.88,-74.5"/>
<text text-anchor="middle" x="115.25" y="-61" font-family="Helvetica,sans-Serif" font-size="10.00">cstdint</text>
</a>
</g>
</g>
<!-- Node2&#45;&gt;Node5 -->
<g id="edge4_Node000002_Node000005" class="edge">
<title>Node2&#45;&gt;Node5</title>
<g id="a_edge4_Node000002_Node000005"><a xlink:title=" ">
<path fill="none" stroke="#63b8ff" d="M88.38,-110.32C93.35,-102.09 99.08,-92.62 103.96,-84.54"/>
<polygon fill="#63b8ff" stroke="#63b8ff" points="106.8,-86.61 108.98,-76.24 100.81,-82.99 106.8,-86.61"/>
</a>
</g>
</g>
<!-- Node4 -->
<g id="Node000004" class="node">
<title>Node4</title>
<g id="a_Node000004"><a xlink:title=" ">
<polygon fill="#e0e0e0" stroke="#999999" points="70,-19.25 4.5,-19.25 4.5,0 70,0 70,-19.25"/>
<text text-anchor="middle" x="37.25" y="-5.75" font-family="Helvetica,sans-Serif" font-size="10.00">string_view</text>
</a>
</g>
</g>
<!-- Node3&#45;&gt;Node4 -->
<g id="edge3_Node000003_Node000004" class="edge">
<title>Node3&#45;&gt;Node4</title>
<g id="a_edge3_Node000003_Node000004"><a xlink:title=" ">
<path fill="none" stroke="#63b8ff" d="M37.25,-55.08C37.25,-48.57 37.25,-39.42 37.25,-31.12"/>
<polygon fill="#63b8ff" stroke="#63b8ff" points="40.75,-31.12 37.25,-21.12 33.75,-31.12 40.75,-31.12"/>
</a>
</g>
</g>
</g>
</svg>
