<?xml version="1.0" encoding="UTF-8" standalone="no"?>
<!DOCTYPE svg PUBLIC "-//W3C//DTD SVG 1.1//EN"
 "http://www.w3.org/Graphics/SVG/1.1/DTD/svg11.dtd">
<!-- Generated by graphviz version 9.0.0 (20230911.1827)
 -->
<!-- Title: include/yaclib/util/cast.hpp Pages: 1 -->
<svg width="2123pt" height="438pt"
 viewBox="0.00 0.00 2123.22 437.50" xmlns="http://www.w3.org/2000/svg" xmlns:xlink="http://www.w3.org/1999/xlink">
<g id="graph0" class="graph" transform="scale(1 1) rotate(0) translate(4 433.5)">
<title>include/yaclib/util/cast.hpp</title>
<!-- Node1 -->
<g id="Node000001" class="node">
<title>Node1</title>
<g id="a_Node000001"><a xlink:title=" ">
<polygon fill="#999999" stroke="#666666" points="1549.47,-429.5 1459.22,-429.5 1459.22,-399 1549.47,-399 1549.47,-429.5"/>
<text text-anchor="start" x="1467.22" y="-416" font-family="Helvetica,sans-Serif" font-size="10.00">include/yaclib/util</text>
<text text-anchor="middle" x="1504.34" y="-404.75" font-family="Helvetica,sans-Serif" font-size="10.00">/cast.hpp</text>
</a>
</g>
</g>
<!-- Node2 -->
<g id="Node000002" class="node">
<title>Node2</title>
<g id="a_Node000002"><a xlink:href="core_8hpp.html" target="_top" xlink:title=" ">
<polygon fill="white" stroke="#666666" points="1019.09,-363 923.59,-363 923.59,-332.5 1019.09,-332.5 1019.09,-363"/>
<text text-anchor="start" x="931.59" y="-349.5" font-family="Helvetica,sans-Serif" font-size="10.00">include/yaclib/algo</text>
<text text-anchor="middle" x="971.34" y="-338.25" font-family="Helvetica,sans-Serif" font-size="10.00">/detail/core.hpp</text>
</a>
</g>
</g>
<!-- Node1&#45;&gt;Node2 -->
<g id="edge1_Node000001_Node000002" class="edge">
<title>Node1&#45;&gt;Node2</title>
<g id="a_edge1_Node000001_Node000002"><a xlink:title=" ">
<path fill="none" stroke="#63b8ff" d="M1447.55,-406.38C1342.09,-393.61 1117.78,-366.47 1019.34,-354.56"/>
<polygon fill="#63b8ff" stroke="#63b8ff" points="1447.05,-409.84 1457.4,-407.57 1447.89,-402.89 1447.05,-409.84"/>
</a>
</g>
</g>
<!-- Node32 -->
<g id="Node000032" class="node">
<title>Node32</title>
<g id="a_Node000032"><a xlink:href="wait__event_8hpp.html" target="_top" xlink:title=" ">
<polygon fill="white" stroke="#666666" points="1559.59,-363 1449.09,-363 1449.09,-332.5 1559.59,-332.5 1559.59,-363"/>
<text text-anchor="start" x="1457.09" y="-349.5" font-family="Helvetica,sans-Serif" font-size="10.00">include/yaclib/algo</text>
<text text-anchor="middle" x="1504.34" y="-338.25" font-family="Helvetica,sans-Serif" font-size="10.00">/detail/wait_event.hpp</text>
</a>
</g>
</g>
<!-- Node1&#45;&gt;Node32 -->
<g id="edge47_Node000001_Node000032" class="edge">
<title>Node1&#45;&gt;Node32</title>
<g id="a_edge47_Node000001_Node000032"><a xlink:title=" ">
<path fill="none" stroke="#63b8ff" d="M1504.34,-387.31C1504.34,-379.14 1504.34,-370.41 1504.34,-363.33"/>
<polygon fill="#63b8ff" stroke="#63b8ff" points="1500.84,-387.1 1504.34,-397.1 1507.84,-387.1 1500.84,-387.1"/>
</a>
</g>
</g>
<!-- Node35 -->
<g id="Node000035" class="node">
<title>Node35</title>
<g id="a_Node000035"><a xlink:href="promise__type_8hpp.html" target="_top" xlink:title=" ">
<polygon fill="white" stroke="#666666" points="2004.84,-230 1883.84,-230 1883.84,-199.5 2004.84,-199.5 2004.84,-230"/>
<text text-anchor="start" x="1891.84" y="-216.5" font-family="Helvetica,sans-Serif" font-size="10.00">include/yaclib/coro</text>
<text text-anchor="middle" x="1944.34" y="-205.25" font-family="Helvetica,sans-Serif" font-size="10.00">/detail/promise_type.hpp</text>
</a>
</g>
</g>
<!-- Node1&#45;&gt;Node35 -->
<g id="edge54_Node000001_Node000035" class="edge">
<title>Node1&#45;&gt;Node35</title>
<g id="a_edge54_Node000001_Node000035"><a xlink:title=" ">
<path fill="none" stroke="#63b8ff" d="M1547.46,-393.9C1635.35,-354.45 1833.51,-265.5 1911.71,-230.4"/>
<polygon fill="#63b8ff" stroke="#63b8ff" points="1546.13,-390.66 1538.44,-397.95 1548.99,-397.04 1546.13,-390.66"/>
</a>
</g>
</g>
<!-- Node3 -->
<g id="Node000003" class="node">
<title>Node3</title>
<g id="a_Node000003"><a xlink:href="async_2future_8hpp.html" target="_top" xlink:title=" ">
<polygon fill="white" stroke="#666666" points="957.84,-296.5 854.84,-296.5 854.84,-266 957.84,-266 957.84,-296.5"/>
<text text-anchor="start" x="862.84" y="-283" font-family="Helvetica,sans-Serif" font-size="10.00">include/yaclib/async</text>
<text text-anchor="middle" x="906.34" y="-271.75" font-family="Helvetica,sans-Serif" font-size="10.00">/future.hpp</text>
</a>
</g>
</g>
<!-- Node2&#45;&gt;Node3 -->
<g id="edge2_Node000002_Node000003" class="edge">
<title>Node2&#45;&gt;Node3</title>
<g id="a_edge2_Node000002_Node000003"><a xlink:title=" ">
<path fill="none" stroke="#63b8ff" d="M948.6,-324.19C939.46,-315.11 929.17,-304.9 921.03,-296.83"/>
<polygon fill="#63b8ff" stroke="#63b8ff" points="945.96,-326.49 955.52,-331.05 950.89,-321.52 945.96,-326.49"/>
</a>
</g>
</g>
<!-- Node16 -->
<g id="Node000016" class="node">
<title>Node16</title>
<g id="a_Node000016"><a xlink:href="run_8hpp.html" target="_top" xlink:title=" ">
<polygon fill="white" stroke="#666666" points="520.84,-230 417.84,-230 417.84,-199.5 520.84,-199.5 520.84,-230"/>
<text text-anchor="start" x="425.84" y="-216.5" font-family="Helvetica,sans-Serif" font-size="10.00">include/yaclib/async</text>
<text text-anchor="middle" x="469.34" y="-205.25" font-family="Helvetica,sans-Serif" font-size="10.00">/run.hpp</text>
</a>
</g>
</g>
<!-- Node2&#45;&gt;Node16 -->
<g id="edge45_Node000002_Node000016" class="edge">
<title>Node2&#45;&gt;Node16</title>
<g id="a_edge45_Node000002_Node000016"><a xlink:title=" ">
<path fill="none" stroke="#63b8ff" d="M912.2,-331.32C813.06,-305.45 615,-253.76 521.06,-229.25"/>
<polygon fill="#63b8ff" stroke="#63b8ff" points="911.18,-334.67 921.74,-333.81 912.95,-327.9 911.18,-334.67"/>
</a>
</g>
</g>
<!-- Node31 -->
<g id="Node000031" class="node">
<title>Node31</title>
<g id="a_Node000031"><a xlink:href="result__core_8cpp.html" target="_top" xlink:title=" ">
<polygon fill="white" stroke="#666666" points="1095.09,-290.88 975.59,-290.88 975.59,-271.62 1095.09,-271.62 1095.09,-290.88"/>
<text text-anchor="middle" x="1035.34" y="-277.38" font-family="Helvetica,sans-Serif" font-size="10.00">src/algo/result_core.cpp</text>
</a>
</g>
</g>
<!-- Node2&#45;&gt;Node31 -->
<g id="edge46_Node000002_Node000031" class="edge">
<title>Node2&#45;&gt;Node31</title>
<g id="a_edge46_Node000002_Node000031"><a xlink:title=" ">
<path fill="none" stroke="#63b8ff" d="M993.71,-324.21C1005.04,-312.78 1018.16,-299.57 1026.59,-291.07"/>
<polygon fill="#63b8ff" stroke="#63b8ff" points="991.49,-321.48 986.93,-331.04 996.46,-326.41 991.49,-321.48"/>
</a>
</g>
</g>
<!-- Node4 -->
<g id="Node000004" class="node">
<title>Node4</title>
<g id="a_Node000004"><a xlink:href="wait__group_8hpp.html" target="_top" xlink:title=" ">
<polygon fill="white" stroke="#666666" points="1485.09,-230 1389.59,-230 1389.59,-199.5 1485.09,-199.5 1485.09,-230"/>
<text text-anchor="start" x="1397.59" y="-216.5" font-family="Helvetica,sans-Serif" font-size="10.00">include/yaclib/algo</text>
<text text-anchor="middle" x="1437.34" y="-205.25" font-family="Helvetica,sans-Serif" font-size="10.00">/wait_group.hpp</text>
</a>
</g>
</g>
<!-- Node3&#45;&gt;Node4 -->
<g id="edge3_Node000003_Node000004" class="edge">
<title>Node3&#45;&gt;Node4</title>
<g id="a_edge3_Node000003_Node000004"><a xlink:title=" ">
<path fill="none" stroke="#63b8ff" d="M969.58,-265.63C1151.16,-237.49 1202.46,-260.31 1381.34,-230 1383.91,-229.56 1386.54,-229.07 1389.19,-228.53"/>
<polygon fill="#63b8ff" stroke="#63b8ff" points="969.11,-262.16 959.78,-267.18 970.2,-269.08 969.11,-262.16"/>
</a>
</g>
</g>
<!-- Node6 -->
<g id="Node000006" class="node">
<title>Node6</title>
<g id="a_Node000006"><a xlink:href="contract_8hpp.html" target="_top" xlink:title=" ">
<polygon fill="white" stroke="#666666" points="839.84,-230 736.84,-230 736.84,-199.5 839.84,-199.5 839.84,-230"/>
<text text-anchor="start" x="744.84" y="-216.5" font-family="Helvetica,sans-Serif" font-size="10.00">include/yaclib/async</text>
<text text-anchor="middle" x="788.34" y="-205.25" font-family="Helvetica,sans-Serif" font-size="10.00">/contract.hpp</text>
</a>
</g>
</g>
<!-- Node3&#45;&gt;Node6 -->
<g id="edge5_Node000003_Node000006" class="edge">
<title>Node3&#45;&gt;Node6</title>
<g id="a_edge5_Node000003_Node000006"><a xlink:title=" ">
<path fill="none" stroke="#63b8ff" d="M869.58,-260.16C851.92,-250.5 831.14,-239.14 815.01,-230.33"/>
<polygon fill="#63b8ff" stroke="#63b8ff" points="867.79,-263.16 878.24,-264.89 871.14,-257.02 867.79,-263.16"/>
</a>
</g>
</g>
<!-- Node7 -->
<g id="Node000007" class="node">
<title>Node7</title>
<g id="a_Node000007"><a xlink:href="simple_8cpp.html" target="_top" xlink:title=" ">
<polygon fill="white" stroke="#666666" points="720.34,-163.5 620.34,-163.5 620.34,-133 720.34,-133 720.34,-163.5"/>
<text text-anchor="start" x="628.34" y="-150" font-family="Helvetica,sans-Serif" font-size="10.00">test/example/async</text>
<text text-anchor="middle" x="670.34" y="-138.75" font-family="Helvetica,sans-Serif" font-size="10.00">/simple.cpp</text>
</a>
</g>
</g>
<!-- Node3&#45;&gt;Node7 -->
<g id="edge44_Node000003_Node000007" class="edge">
<title>Node3&#45;&gt;Node7</title>
<g id="a_edge44_Node000003_Node000007"><a xlink:title=" ">
<path fill="none" stroke="#63b8ff" d="M843.51,-273.24C806.96,-266.71 761.51,-254.13 727.34,-230 703.09,-212.87 685.59,-182.02 676.79,-163.81"/>
<polygon fill="#63b8ff" stroke="#63b8ff" points="842.61,-276.64 853.05,-274.84 843.76,-269.74 842.61,-276.64"/>
</a>
</g>
</g>
<!-- Node8 -->
<g id="Node000008" class="node">
<title>Node8</title>
<g id="a_Node000008"><a xlink:href="when__impl_8hpp.html" target="_top" xlink:title=" ">
<polygon fill="white" stroke="#666666" points="138.22,-230 28.47,-230 28.47,-199.5 138.22,-199.5 138.22,-230"/>
<text text-anchor="start" x="36.47" y="-216.5" font-family="Helvetica,sans-Serif" font-size="10.00">include/yaclib/async</text>
<text text-anchor="middle" x="83.34" y="-205.25" font-family="Helvetica,sans-Serif" font-size="10.00">/detail/when_impl.hpp</text>
</a>
</g>
</g>
<!-- Node3&#45;&gt;Node8 -->
<g id="edge7_Node000003_Node000008" class="edge">
<title>Node3&#45;&gt;Node8</title>
<g id="a_edge7_Node000003_Node000008"><a xlink:title=" ">
<path fill="none" stroke="#63b8ff" d="M843.17,-278.96C713.26,-275.67 406.93,-264.61 152.34,-230 147.86,-229.39 143.23,-228.66 138.59,-227.85"/>
<polygon fill="#63b8ff" stroke="#63b8ff" points="842.85,-282.46 852.93,-279.2 843.02,-275.46 842.85,-282.46"/>
</a>
</g>
</g>
<!-- Node10 -->
<g id="Node000010" class="node">
<title>Node10</title>
<g id="a_Node000010"><a xlink:href="when__all_8hpp.html" target="_top" xlink:title=" ">
<polygon fill="white" stroke="#666666" points="172.84,-97 69.84,-97 69.84,-66.5 172.84,-66.5 172.84,-97"/>
<text text-anchor="start" x="77.84" y="-83.5" font-family="Helvetica,sans-Serif" font-size="10.00">include/yaclib/async</text>
<text text-anchor="middle" x="121.34" y="-72.25" font-family="Helvetica,sans-Serif" font-size="10.00">/when_all.hpp</text>
</a>
</g>
</g>
<!-- Node3&#45;&gt;Node10 -->
<g id="edge25_Node000003_Node000010" class="edge">
<title>Node3&#45;&gt;Node10</title>
<g id="a_edge25_Node000003_Node000010"><a xlink:title=" ">
<path fill="none" stroke="#63b8ff" d="M843.05,-280.14C743.82,-278.64 546.24,-270.28 384.34,-230 309.21,-211.31 290.11,-202.68 223.34,-163.5 190.23,-144.07 156.11,-114.83 136.93,-97.39"/>
<polygon fill="#63b8ff" stroke="#63b8ff" points="842.81,-283.64 852.85,-280.27 842.9,-276.64 842.81,-283.64"/>
</a>
</g>
</g>
<!-- Node13 -->
<g id="Node000013" class="node">
<title>Node13</title>
<g id="a_Node000013"><a xlink:href="when__any_8hpp.html" target="_top" xlink:title=" ">
<polygon fill="white" stroke="#666666" points="374.84,-97 271.84,-97 271.84,-66.5 374.84,-66.5 374.84,-97"/>
<text text-anchor="start" x="279.84" y="-83.5" font-family="Helvetica,sans-Serif" font-size="10.00">include/yaclib/async</text>
<text text-anchor="middle" x="323.34" y="-72.25" font-family="Helvetica,sans-Serif" font-size="10.00">/when_any.hpp</text>
</a>
</g>
</g>
<!-- Node3&#45;&gt;Node13 -->
<g id="edge26_Node000003_Node000013" class="edge">
<title>Node3&#45;&gt;Node13</title>
<g id="a_edge26_Node000003_Node000013"><a xlink:title=" ">
<path fill="none" stroke="#63b8ff" d="M843.38,-277.56C717.14,-271.65 442.21,-255.94 408.34,-230 371.71,-201.95 395.99,-172.01 371.34,-133 362.84,-119.54 350.34,-106.6 340.23,-97.22"/>
<polygon fill="#63b8ff" stroke="#63b8ff" points="843.1,-281.05 853.25,-278.02 843.42,-274.06 843.1,-281.05"/>
</a>
</g>
</g>
<!-- Node15 -->
<g id="Node000015" class="node">
<title>Node15</title>
<g id="a_Node000015"><a xlink:href="async_2make_8hpp.html" target="_top" xlink:title=" ">
<polygon fill="white" stroke="#666666" points="641.84,-230 538.84,-230 538.84,-199.5 641.84,-199.5 641.84,-230"/>
<text text-anchor="start" x="546.84" y="-216.5" font-family="Helvetica,sans-Serif" font-size="10.00">include/yaclib/async</text>
<text text-anchor="middle" x="590.34" y="-205.25" font-family="Helvetica,sans-Serif" font-size="10.00">/make.hpp</text>
</a>
</g>
</g>
<!-- Node3&#45;&gt;Node15 -->
<g id="edge16_Node000003_Node000015" class="edge">
<title>Node3&#45;&gt;Node15</title>
<g id="a_edge16_Node000003_Node000015"><a xlink:title=" ">
<path fill="none" stroke="#63b8ff" d="M843.51,-267.88C792.92,-257.86 720,-243.27 656.34,-230 651.75,-229.04 646.99,-228.04 642.21,-227.02"/>
<polygon fill="#63b8ff" stroke="#63b8ff" points="842.61,-271.27 853.1,-269.78 843.97,-264.4 842.61,-271.27"/>
</a>
</g>
</g>
<!-- Node3&#45;&gt;Node16 -->
<g id="edge17_Node000003_Node000016" class="edge">
<title>Node3&#45;&gt;Node16</title>
<g id="a_edge17_Node000003_Node000016"><a xlink:title=" ">
<path fill="none" stroke="#63b8ff" d="M843.43,-273.82C768.33,-265.7 639.12,-250.3 529.34,-230 526.71,-229.51 524.02,-228.99 521.31,-228.43"/>
<polygon fill="#63b8ff" stroke="#63b8ff" points="842.73,-277.27 853.05,-274.86 843.48,-270.31 842.73,-277.27"/>
</a>
</g>
</g>
<!-- Node17 -->
<g id="Node000017" class="node">
<title>Node17</title>
<g id="a_Node000017"><a xlink:href="wait_8hpp.html" target="_top" xlink:title=" ">
<polygon fill="white" stroke="#666666" points="1371.84,-230 1268.84,-230 1268.84,-199.5 1371.84,-199.5 1371.84,-230"/>
<text text-anchor="start" x="1276.84" y="-216.5" font-family="Helvetica,sans-Serif" font-size="10.00">include/yaclib/async</text>
<text text-anchor="middle" x="1320.34" y="-205.25" font-family="Helvetica,sans-Serif" font-size="10.00">/wait.hpp</text>
</a>
</g>
</g>
<!-- Node3&#45;&gt;Node17 -->
<g id="edge21_Node000003_Node000017" class="edge">
<title>Node3&#45;&gt;Node17</title>
<g id="a_edge21_Node000003_Node000017"><a xlink:title=" ">
<path fill="none" stroke="#63b8ff" d="M969.31,-263.88C1086.56,-243.58 1122.26,-250.94 1245.34,-230 1252.85,-228.72 1260.81,-227.17 1268.64,-225.58"/>
<polygon fill="#63b8ff" stroke="#63b8ff" points="968.81,-260.42 959.58,-265.6 970.03,-267.31 968.81,-260.42"/>
</a>
</g>
</g>
<!-- Node18 -->
<g id="Node000018" class="node">
<title>Node18</title>
<g id="a_Node000018"><a xlink:href="wait__for_8hpp.html" target="_top" xlink:title=" ">
<polygon fill="white" stroke="#666666" points="1726.84,-230 1623.84,-230 1623.84,-199.5 1726.84,-199.5 1726.84,-230"/>
<text text-anchor="start" x="1631.84" y="-216.5" font-family="Helvetica,sans-Serif" font-size="10.00">include/yaclib/async</text>
<text text-anchor="middle" x="1675.34" y="-205.25" font-family="Helvetica,sans-Serif" font-size="10.00">/wait_for.hpp</text>
</a>
</g>
</g>
<!-- Node3&#45;&gt;Node18 -->
<g id="edge23_Node000003_Node000018" class="edge">
<title>Node3&#45;&gt;Node18</title>
<g id="a_edge23_Node000003_Node000018"><a xlink:title=" ">
<path fill="none" stroke="#63b8ff" d="M969.36,-265.73C1254.22,-225.64 1333.09,-271.01 1615.34,-230 1617.99,-229.62 1620.69,-229.17 1623.42,-228.68"/>
<polygon fill="#63b8ff" stroke="#63b8ff" points="969.17,-262.22 959.77,-267.11 970.16,-269.15 969.17,-262.22"/>
</a>
</g>
</g>
<!-- Node19 -->
<g id="Node000019" class="node">
<title>Node19</title>
<g id="a_Node000019"><a xlink:href="wait__until_8hpp.html" target="_top" xlink:title=" ">
<polygon fill="white" stroke="#666666" points="1605.84,-230 1502.84,-230 1502.84,-199.5 1605.84,-199.5 1605.84,-230"/>
<text text-anchor="start" x="1510.84" y="-216.5" font-family="Helvetica,sans-Serif" font-size="10.00">include/yaclib/async</text>
<text text-anchor="middle" x="1554.34" y="-205.25" font-family="Helvetica,sans-Serif" font-size="10.00">/wait_until.hpp</text>
</a>
</g>
</g>
<!-- Node3&#45;&gt;Node19 -->
<g id="edge24_Node000003_Node000019" class="edge">
<title>Node3&#45;&gt;Node19</title>
<g id="a_edge24_Node000003_Node000019"><a xlink:title=" ">
<path fill="none" stroke="#63b8ff" d="M969.42,-265.7C1200.9,-231.77 1265.43,-264.74 1494.34,-230 1496.99,-229.6 1499.69,-229.14 1502.41,-228.64"/>
<polygon fill="#63b8ff" stroke="#63b8ff" points="969.14,-262.2 959.77,-267.14 970.18,-269.12 969.14,-262.2"/>
</a>
</g>
</g>
<!-- Node20 -->
<g id="Node000020" class="node">
<title>Node20</title>
<g id="a_Node000020"><a xlink:href="await_8hpp.html" target="_top" xlink:title=" ">
<polygon fill="white" stroke="#666666" points="999.47,-97 903.22,-97 903.22,-66.5 999.47,-66.5 999.47,-97"/>
<text text-anchor="start" x="911.22" y="-83.5" font-family="Helvetica,sans-Serif" font-size="10.00">include/yaclib/coro</text>
<text text-anchor="middle" x="951.34" y="-72.25" font-family="Helvetica,sans-Serif" font-size="10.00">/await.hpp</text>
</a>
</g>
</g>
<!-- Node3&#45;&gt;Node20 -->
<g id="edge27_Node000003_Node000020" class="edge">
<title>Node3&#45;&gt;Node20</title>
<g id="a_edge27_Node000003_Node000020"><a xlink:title=" ">
<path fill="none" stroke="#63b8ff" d="M906.98,-254.2C908.32,-224.31 912.49,-174.12 925.34,-133 929.33,-120.25 936.42,-106.86 942.19,-97.12"/>
<polygon fill="#63b8ff" stroke="#63b8ff" points="903.48,-254.05 906.61,-264.17 910.47,-254.3 903.48,-254.05"/>
</a>
</g>
</g>
<!-- Node21 -->
<g id="Node000021" class="node">
<title>Node21</title>
<g id="a_Node000021"><a xlink:href="await__on_8hpp.html" target="_top" xlink:title=" ">
<polygon fill="white" stroke="#666666" points="785.47,-97 689.22,-97 689.22,-66.5 785.47,-66.5 785.47,-97"/>
<text text-anchor="start" x="697.22" y="-83.5" font-family="Helvetica,sans-Serif" font-size="10.00">include/yaclib/coro</text>
<text text-anchor="middle" x="737.34" y="-72.25" font-family="Helvetica,sans-Serif" font-size="10.00">/await_on.hpp</text>
</a>
</g>
</g>
<!-- Node3&#45;&gt;Node21 -->
<g id="edge28_Node000003_Node000021" class="edge">
<title>Node3&#45;&gt;Node21</title>
<g id="a_edge28_Node000003_Node000021"><a xlink:title=" ">
<path fill="none" stroke="#63b8ff" d="M843.13,-272.55C799.89,-265.54 742.15,-252.71 695.34,-230 684.63,-224.8 616.53,-174.22 611.34,-163.5 605.44,-151.3 603.74,-144.22 611.34,-133 628.65,-107.46 661.24,-94.9 688.94,-88.73"/>
<polygon fill="#63b8ff" stroke="#63b8ff" points="842.44,-275.98 852.86,-274.05 843.51,-269.06 842.44,-275.98"/>
</a>
</g>
</g>
<!-- Node22 -->
<g id="Node000022" class="node">
<title>Node22</title>
<g id="a_Node000022"><a xlink:href="await__awaiter_8hpp.html" target="_top" xlink:title=" ">
<polygon fill="white" stroke="#666666" points="1057.97,-163.5 934.72,-163.5 934.72,-133 1057.97,-133 1057.97,-163.5"/>
<text text-anchor="start" x="942.72" y="-150" font-family="Helvetica,sans-Serif" font-size="10.00">include/yaclib/coro</text>
<text text-anchor="middle" x="996.34" y="-138.75" font-family="Helvetica,sans-Serif" font-size="10.00">/detail/await_awaiter.hpp</text>
</a>
</g>
</g>
<!-- Node3&#45;&gt;Node22 -->
<g id="edge29_Node000003_Node000022" class="edge">
<title>Node3&#45;&gt;Node22</title>
<g id="a_edge29_Node000003_Node000022"><a xlink:title=" ">
<path fill="none" stroke="#63b8ff" d="M922.6,-256.59C941.14,-229.6 970.89,-186.3 986.32,-163.83"/>
<polygon fill="#63b8ff" stroke="#63b8ff" points="919.95,-254.26 917.18,-264.48 925.72,-258.22 919.95,-254.26"/>
</a>
</g>
</g>
<!-- Node23 -->
<g id="Node000023" class="node">
<title>Node23</title>
<g id="a_Node000023"><a xlink:href="await__on__awaiter_8hpp.html" target="_top" xlink:title=" ">
<polygon fill="white" stroke="#666666" points="877.84,-163.5 738.84,-163.5 738.84,-133 877.84,-133 877.84,-163.5"/>
<text text-anchor="start" x="746.84" y="-150" font-family="Helvetica,sans-Serif" font-size="10.00">include/yaclib/coro</text>
<text text-anchor="middle" x="808.34" y="-138.75" font-family="Helvetica,sans-Serif" font-size="10.00">/detail/await_on_awaiter.hpp</text>
</a>
</g>
</g>
<!-- Node3&#45;&gt;Node23 -->
<g id="edge31_Node000003_Node000023" class="edge">
<title>Node3&#45;&gt;Node23</title>
<g id="a_edge31_Node000003_Node000023"><a xlink:title=" ">
<path fill="none" stroke="#63b8ff" d="M889.55,-256.22C878.13,-240.05 862.57,-218.31 848.34,-199.5 839.06,-187.23 828.16,-173.58 820.09,-163.61"/>
<polygon fill="#63b8ff" stroke="#63b8ff" points="886.59,-258.1 895.21,-264.27 892.32,-254.07 886.59,-258.1"/>
</a>
</g>
</g>
<!-- Node24 -->
<g id="Node000024" class="node">
<title>Node24</title>
<g id="a_Node000024"><a xlink:href="coro_2future_8hpp.html" target="_top" xlink:title=" ">
<polygon fill="white" stroke="#666666" points="1566.47,-163.5 1470.22,-163.5 1470.22,-133 1566.47,-133 1566.47,-163.5"/>
<text text-anchor="start" x="1478.22" y="-150" font-family="Helvetica,sans-Serif" font-size="10.00">include/yaclib/coro</text>
<text text-anchor="middle" x="1518.34" y="-138.75" font-family="Helvetica,sans-Serif" font-size="10.00">/future.hpp</text>
</a>
</g>
</g>
<!-- Node3&#45;&gt;Node24 -->
<g id="edge33_Node000003_Node000024" class="edge">
<title>Node3&#45;&gt;Node24</title>
<g id="a_edge33_Node000003_Node000024"><a xlink:title=" ">
<path fill="none" stroke="#63b8ff" d="M969.37,-265.6C1081.2,-246.56 1119.3,-273.38 1221.34,-230 1241.59,-221.39 1240.25,-208.48 1260.34,-199.5 1343.19,-162.46 1372.6,-182.52 1461.34,-163.5 1464.14,-162.9 1467,-162.26 1469.88,-161.6"/>
<polygon fill="#63b8ff" stroke="#63b8ff" points="969.02,-262.11 959.8,-267.33 970.26,-269 969.02,-262.11"/>
</a>
</g>
</g>
<!-- Node25 -->
<g id="Node000025" class="node">
<title>Node25</title>
<g id="a_Node000025"><a xlink:href="lazy_2task_8hpp.html" target="_top" xlink:title=" ">
<polygon fill="white" stroke="#666666" points="1066.34,-230 972.34,-230 972.34,-199.5 1066.34,-199.5 1066.34,-230"/>
<text text-anchor="start" x="980.34" y="-216.5" font-family="Helvetica,sans-Serif" font-size="10.00">include/yaclib/lazy</text>
<text text-anchor="middle" x="1019.34" y="-205.25" font-family="Helvetica,sans-Serif" font-size="10.00">/task.hpp</text>
</a>
</g>
</g>
<!-- Node3&#45;&gt;Node25 -->
<g id="edge34_Node000003_Node000025" class="edge">
<title>Node3&#45;&gt;Node25</title>
<g id="a_edge34_Node000003_Node000025"><a xlink:title=" ">
<path fill="none" stroke="#63b8ff" d="M941.54,-260.16C958.46,-250.5 978.36,-239.14 993.8,-230.33"/>
<polygon fill="#63b8ff" stroke="#63b8ff" points="940.25,-256.87 933.3,-264.86 943.72,-262.95 940.25,-256.87"/>
</a>
</g>
</g>
<!-- Node30 -->
<g id="Node000030" class="node">
<title>Node30</title>
<g id="a_Node000030"><a xlink:href="future__impl_8cpp.html" target="_top" xlink:title=" ">
<polygon fill="white" stroke="#666666" points="1211.84,-224.38 1084.84,-224.38 1084.84,-205.12 1211.84,-205.12 1211.84,-224.38"/>
<text text-anchor="middle" x="1148.34" y="-210.88" font-family="Helvetica,sans-Serif" font-size="10.00">src/async/future_impl.cpp</text>
</a>
</g>
</g>
<!-- Node3&#45;&gt;Node30 -->
<g id="edge43_Node000003_Node000030" class="edge">
<title>Node3&#45;&gt;Node30</title>
<g id="a_edge43_Node000003_Node000030"><a xlink:title=" ">
<path fill="none" stroke="#63b8ff" d="M969.1,-263.52C1015.47,-251.17 1076.82,-234.81 1114.39,-224.8"/>
<polygon fill="#63b8ff" stroke="#63b8ff" points="968.48,-260.07 959.72,-266.02 970.28,-266.83 968.48,-260.07"/>
</a>
</g>
</g>
<!-- Node5 -->
<g id="Node000005" class="node">
<title>Node5</title>
<g id="a_Node000005"><a xlink:href="wait__group_8cpp.html" target="_top" xlink:title=" ">
<polygon fill="white" stroke="#666666" points="1703.72,-157.88 1584.97,-157.88 1584.97,-138.62 1703.72,-138.62 1703.72,-157.88"/>
<text text-anchor="middle" x="1644.34" y="-144.38" font-family="Helvetica,sans-Serif" font-size="10.00">src/algo/wait_group.cpp</text>
</a>
</g>
</g>
<!-- Node4&#45;&gt;Node5 -->
<g id="edge4_Node000004_Node000005" class="edge">
<title>Node4&#45;&gt;Node5</title>
<g id="a_edge4_Node000004_Node000005"><a xlink:title=" ">
<path fill="none" stroke="#63b8ff" d="M1495.53,-195.62C1534.54,-183.46 1584.26,-167.97 1615.2,-158.33"/>
<polygon fill="#63b8ff" stroke="#63b8ff" points="1494.52,-192.27 1486.02,-198.58 1496.61,-198.95 1494.52,-192.27"/>
</a>
</g>
</g>
<!-- Node6&#45;&gt;Node7 -->
<g id="edge6_Node000006_Node000007" class="edge">
<title>Node6&#45;&gt;Node7</title>
<g id="a_edge6_Node000006_Node000007"><a xlink:title=" ">
<path fill="none" stroke="#63b8ff" d="M751.58,-193.66C733.92,-184 713.14,-172.64 697.01,-163.83"/>
<polygon fill="#63b8ff" stroke="#63b8ff" points="749.79,-196.66 760.24,-198.39 753.14,-190.52 749.79,-196.66"/>
</a>
</g>
</g>
<!-- Node9 -->
<g id="Node000009" class="node">
<title>Node9</title>
<g id="a_Node000009"><a xlink:href="when__all__impl_8hpp.html" target="_top" xlink:title=" ">
<polygon fill="white" stroke="#666666" points="138.72,-163.5 13.97,-163.5 13.97,-133 138.72,-133 138.72,-163.5"/>
<text text-anchor="start" x="21.97" y="-150" font-family="Helvetica,sans-Serif" font-size="10.00">include/yaclib/async</text>
<text text-anchor="middle" x="76.34" y="-138.75" font-family="Helvetica,sans-Serif" font-size="10.00">/detail/when_all_impl.hpp</text>
</a>
</g>
</g>
<!-- Node8&#45;&gt;Node9 -->
<g id="edge8_Node000008_Node000009" class="edge">
<title>Node8&#45;&gt;Node9</title>
<g id="a_edge8_Node000008_Node000009"><a xlink:title=" ">
<path fill="none" stroke="#63b8ff" d="M80.53,-187.81C79.64,-179.64 78.69,-170.91 77.92,-163.83"/>
<polygon fill="#63b8ff" stroke="#63b8ff" points="77.03,-188.05 81.59,-197.61 83.99,-187.29 77.03,-188.05"/>
</a>
</g>
</g>
<!-- Node8&#45;&gt;Node10 -->
<g id="edge14_Node000008_Node000010" class="edge">
<title>Node8&#45;&gt;Node10</title>
<g id="a_edge14_Node000008_Node000010"><a xlink:title=" ">
<path fill="none" stroke="#63b8ff" d="M35.9,-193.61C23.77,-186.03 12.22,-176.11 5.34,-163.5 -1.15,-151.6 -2.1,-144.33 5.34,-133 19.68,-111.17 45.75,-98.78 69.55,-91.76"/>
<polygon fill="#63b8ff" stroke="#63b8ff" points="33.94,-196.52 44.36,-198.44 37.41,-190.44 33.94,-196.52"/>
</a>
</g>
</g>
<!-- Node12 -->
<g id="Node000012" class="node">
<title>Node12</title>
<g id="a_Node000012"><a xlink:href="when__any__impl_8hpp.html" target="_top" xlink:title=" ">
<polygon fill="white" stroke="#666666" points="362.34,-163.5 232.34,-163.5 232.34,-133 362.34,-133 362.34,-163.5"/>
<text text-anchor="start" x="240.34" y="-150" font-family="Helvetica,sans-Serif" font-size="10.00">include/yaclib/async</text>
<text text-anchor="middle" x="297.34" y="-138.75" font-family="Helvetica,sans-Serif" font-size="10.00">/detail/when_any_impl.hpp</text>
</a>
</g>
</g>
<!-- Node8&#45;&gt;Node12 -->
<g id="edge11_Node000008_Node000012" class="edge">
<title>Node8&#45;&gt;Node12</title>
<g id="a_edge11_Node000008_Node000012"><a xlink:title=" ">
<path fill="none" stroke="#63b8ff" d="M143.15,-195.72C176.46,-185.68 217.4,-173.34 248.72,-163.9"/>
<polygon fill="#63b8ff" stroke="#63b8ff" points="142.18,-192.36 133.62,-198.6 144.2,-199.06 142.18,-192.36"/>
</a>
</g>
</g>
<!-- Node8&#45;&gt;Node13 -->
<g id="edge15_Node000008_Node000013" class="edge">
<title>Node8&#45;&gt;Node13</title>
<g id="a_edge15_Node000008_Node000013"><a xlink:title=" ">
<path fill="none" stroke="#63b8ff" d="M117.64,-193.23C145.79,-176.56 186.83,-152.68 223.34,-133 246.43,-120.55 272.98,-107.26 292.91,-97.47"/>
<polygon fill="#63b8ff" stroke="#63b8ff" points="116,-190.13 109.19,-198.25 119.57,-196.15 116,-190.13"/>
</a>
</g>
</g>
<!-- Node9&#45;&gt;Node10 -->
<g id="edge9_Node000009_Node000010" class="edge">
<title>Node9&#45;&gt;Node10</title>
<g id="a_edge9_Node000009_Node000010"><a xlink:title=" ">
<path fill="none" stroke="#63b8ff" d="M93.06,-123.29C99.14,-114.57 105.83,-104.99 111.17,-97.33"/>
<polygon fill="#63b8ff" stroke="#63b8ff" points="90.27,-121.17 87.42,-131.37 96.01,-125.17 90.27,-121.17"/>
</a>
</g>
</g>
<!-- Node11 -->
<g id="Node000011" class="node">
<title>Node11</title>
<g id="a_Node000011"><a xlink:href="when__all_8cpp.html" target="_top" xlink:title=" ">
<polygon fill="white" stroke="#666666" points="322.34,-30.5 222.34,-30.5 222.34,0 322.34,0 322.34,-30.5"/>
<text text-anchor="start" x="230.34" y="-17" font-family="Helvetica,sans-Serif" font-size="10.00">test/example/async</text>
<text text-anchor="middle" x="272.34" y="-5.75" font-family="Helvetica,sans-Serif" font-size="10.00">/when_all.cpp</text>
</a>
</g>
</g>
<!-- Node10&#45;&gt;Node11 -->
<g id="edge10_Node000010_Node000011" class="edge">
<title>Node10&#45;&gt;Node11</title>
<g id="a_edge10_Node000010_Node000011"><a xlink:title=" ">
<path fill="none" stroke="#63b8ff" d="M166.14,-61.62C189.12,-51.8 216.67,-40.03 237.95,-30.94"/>
<polygon fill="#63b8ff" stroke="#63b8ff" points="164.82,-58.37 157,-65.52 167.57,-64.81 164.82,-58.37"/>
</a>
</g>
</g>
<!-- Node12&#45;&gt;Node13 -->
<g id="edge12_Node000012_Node000013" class="edge">
<title>Node12&#45;&gt;Node13</title>
<g id="a_edge12_Node000012_Node000013"><a xlink:title=" ">
<path fill="none" stroke="#63b8ff" d="M307.46,-122.16C310.85,-113.75 314.51,-104.66 317.47,-97.33"/>
<polygon fill="#63b8ff" stroke="#63b8ff" points="304.3,-120.63 303.81,-131.21 310.79,-123.24 304.3,-120.63"/>
</a>
</g>
</g>
<!-- Node14 -->
<g id="Node000014" class="node">
<title>Node14</title>
<g id="a_Node000014"><a xlink:href="when__any_8cpp.html" target="_top" xlink:title=" ">
<polygon fill="white" stroke="#666666" points="446.34,-30.5 346.34,-30.5 346.34,0 446.34,0 446.34,-30.5"/>
<text text-anchor="start" x="354.34" y="-17" font-family="Helvetica,sans-Serif" font-size="10.00">test/example/async</text>
<text text-anchor="middle" x="396.34" y="-5.75" font-family="Helvetica,sans-Serif" font-size="10.00">/when_any.cpp</text>
</a>
</g>
</g>
<!-- Node13&#45;&gt;Node14 -->
<g id="edge13_Node000013_Node000014" class="edge">
<title>Node13&#45;&gt;Node14</title>
<g id="a_edge13_Node000013_Node000014"><a xlink:title=" ">
<path fill="none" stroke="#63b8ff" d="M348.25,-58.74C358.68,-49.53 370.52,-39.06 379.84,-30.83"/>
<polygon fill="#63b8ff" stroke="#63b8ff" points="346.22,-55.87 341.04,-65.11 350.85,-61.11 346.22,-55.87"/>
</a>
</g>
</g>
<!-- Node16&#45;&gt;Node7 -->
<g id="edge18_Node000016_Node000007" class="edge">
<title>Node16&#45;&gt;Node7</title>
<g id="a_edge18_Node000016_Node000007"><a xlink:title=" ">
<path fill="none" stroke="#63b8ff" d="M525.92,-195.59C557.14,-185.58 595.39,-173.3 624.68,-163.9"/>
<polygon fill="#63b8ff" stroke="#63b8ff" points="525.1,-192.18 516.65,-198.57 527.24,-198.85 525.1,-192.18"/>
</a>
</g>
</g>
<!-- Node16&#45;&gt;Node11 -->
<g id="edge19_Node000016_Node000011" class="edge">
<title>Node16&#45;&gt;Node11</title>
<g id="a_edge19_Node000016_Node000011"><a xlink:title=" ">
<path fill="none" stroke="#63b8ff" d="M460.23,-188.54C447.48,-156.41 421.53,-100.93 383.34,-66.5 365.67,-50.57 342.09,-38.93 321.21,-30.9"/>
<polygon fill="#63b8ff" stroke="#63b8ff" points="456.94,-189.74 463.78,-197.82 463.48,-187.23 456.94,-189.74"/>
</a>
</g>
</g>
<!-- Node16&#45;&gt;Node14 -->
<g id="edge20_Node000016_Node000014" class="edge">
<title>Node16&#45;&gt;Node14</title>
<g id="a_edge20_Node000016_Node000014"><a xlink:title=" ">
<path fill="none" stroke="#63b8ff" d="M469.45,-187.72C468.59,-157.14 463.98,-105.6 444.34,-66.5 437.3,-52.48 425.04,-39.74 414.67,-30.6"/>
<polygon fill="#63b8ff" stroke="#63b8ff" points="465.95,-187.63 469.6,-197.57 472.95,-187.52 465.95,-187.63"/>
</a>
</g>
</g>
<!-- Node17&#45;&gt;Node3 -->
<g id="edge22_Node000017_Node000003" class="edge">
<title>Node17&#45;&gt;Node3</title>
<g id="a_edge22_Node000017_Node000003"><a xlink:title=" ">
<path fill="none" stroke="#63b8ff" d="M1257.58,-230.92C1134.18,-251.17 1098.69,-243.71 975.34,-266 969.76,-267.01 963.92,-268.21 958.08,-269.48"/>
<polygon fill="#63b8ff" stroke="#63b8ff" points="1257.82,-234.43 1267.11,-229.32 1256.67,-227.52 1257.82,-234.43"/>
</a>
</g>
</g>
<!-- Node22&#45;&gt;Node20 -->
<g id="edge30_Node000022_Node000020" class="edge">
<title>Node22&#45;&gt;Node20</title>
<g id="a_edge30_Node000022_Node000020"><a xlink:title=" ">
<path fill="none" stroke="#63b8ff" d="M979.63,-123.29C973.54,-114.57 966.86,-104.99 961.51,-97.33"/>
<polygon fill="#63b8ff" stroke="#63b8ff" points="976.67,-125.17 985.27,-131.37 982.41,-121.17 976.67,-125.17"/>
</a>
</g>
</g>
<!-- Node23&#45;&gt;Node21 -->
<g id="edge32_Node000023_Node000021" class="edge">
<title>Node23&#45;&gt;Node21</title>
<g id="a_edge32_Node000023_Node000021"><a xlink:title=" ">
<path fill="none" stroke="#63b8ff" d="M783.81,-124.96C773.74,-115.82 762.37,-105.48 753.39,-97.33"/>
<polygon fill="#63b8ff" stroke="#63b8ff" points="781.36,-127.46 791.11,-131.6 786.06,-122.28 781.36,-127.46"/>
</a>
</g>
</g>
<!-- Node25&#45;&gt;Node22 -->
<g id="edge35_Node000025_Node000022" class="edge">
<title>Node25&#45;&gt;Node22</title>
<g id="a_edge35_Node000025_Node000022"><a xlink:title=" ">
<path fill="none" stroke="#63b8ff" d="M1010.29,-188.38C1007.32,-180.05 1004.13,-171.08 1001.54,-163.83"/>
<polygon fill="#63b8ff" stroke="#63b8ff" points="1006.96,-189.44 1013.62,-197.69 1013.55,-187.09 1006.96,-189.44"/>
</a>
</g>
</g>
<!-- Node25&#45;&gt;Node23 -->
<g id="edge36_Node000025_Node000023" class="edge">
<title>Node25&#45;&gt;Node23</title>
<g id="a_edge36_Node000025_Node000023"><a xlink:title=" ">
<path fill="none" stroke="#63b8ff" d="M961.13,-195.95C928.15,-185.87 887.39,-173.41 856.27,-163.9"/>
<polygon fill="#63b8ff" stroke="#63b8ff" points="959.96,-199.26 970.54,-198.83 962,-192.56 959.96,-199.26"/>
</a>
</g>
</g>
<!-- Node25&#45;&gt;Node24 -->
<g id="edge37_Node000025_Node000024" class="edge">
<title>Node25&#45;&gt;Node24</title>
<g id="a_edge37_Node000025_Node000024"><a xlink:title=" ">
<path fill="none" stroke="#63b8ff" d="M1077.91,-199.25C1247.18,-171.1 1295.15,-191.86 1461.34,-163.5 1464.16,-163.02 1467.04,-162.47 1469.94,-161.88"/>
<polygon fill="#63b8ff" stroke="#63b8ff" points="1077.35,-195.8 1068.08,-200.92 1078.52,-202.7 1077.35,-195.8"/>
</a>
</g>
</g>
<!-- Node26 -->
<g id="Node000026" class="node">
<title>Node26</title>
<g id="a_Node000026"><a xlink:href="coro_2task_8hpp.html" target="_top" xlink:title=" ">
<polygon fill="white" stroke="#666666" points="1452.47,-163.5 1356.22,-163.5 1356.22,-133 1452.47,-133 1452.47,-163.5"/>
<text text-anchor="start" x="1364.22" y="-150" font-family="Helvetica,sans-Serif" font-size="10.00">include/yaclib/coro</text>
<text text-anchor="middle" x="1404.34" y="-138.75" font-family="Helvetica,sans-Serif" font-size="10.00">/task.hpp</text>
</a>
</g>
</g>
<!-- Node25&#45;&gt;Node26 -->
<g id="edge38_Node000025_Node000026" class="edge">
<title>Node25&#45;&gt;Node26</title>
<g id="a_edge38_Node000025_Node000026"><a xlink:title=" ">
<path fill="none" stroke="#63b8ff" d="M1077.66,-199.21C1197.06,-176.98 1231.06,-185.66 1347.34,-163.5 1350.15,-162.97 1353.02,-162.38 1355.92,-161.75"/>
<polygon fill="#63b8ff" stroke="#63b8ff" points="1077.27,-195.72 1068.1,-201.02 1078.58,-202.6 1077.27,-195.72"/>
</a>
</g>
</g>
<!-- Node27 -->
<g id="Node000027" class="node">
<title>Node27</title>
<g id="a_Node000027"><a xlink:href="lazy_2make_8hpp.html" target="_top" xlink:title=" ">
<polygon fill="white" stroke="#666666" points="1236.34,-97 1142.34,-97 1142.34,-66.5 1236.34,-66.5 1236.34,-97"/>
<text text-anchor="start" x="1150.34" y="-83.5" font-family="Helvetica,sans-Serif" font-size="10.00">include/yaclib/lazy</text>
<text text-anchor="middle" x="1189.34" y="-72.25" font-family="Helvetica,sans-Serif" font-size="10.00">/make.hpp</text>
</a>
</g>
</g>
<!-- Node25&#45;&gt;Node27 -->
<g id="edge39_Node000025_Node000027" class="edge">
<title>Node25&#45;&gt;Node27</title>
<g id="a_edge39_Node000025_Node000027"><a xlink:title=" ">
<path fill="none" stroke="#63b8ff" d="M1040.67,-191.24C1057.41,-174.22 1081.74,-150.81 1105.34,-133 1123.11,-119.59 1144.69,-106.75 1161.53,-97.4"/>
<polygon fill="#63b8ff" stroke="#63b8ff" points="1038.62,-188.33 1034.16,-197.95 1043.64,-193.21 1038.62,-188.33"/>
</a>
</g>
</g>
<!-- Node28 -->
<g id="Node000028" class="node">
<title>Node28</title>
<g id="a_Node000028"><a xlink:href="schedule_8hpp.html" target="_top" xlink:title=" ">
<polygon fill="white" stroke="#666666" points="1338.34,-163.5 1244.34,-163.5 1244.34,-133 1338.34,-133 1338.34,-163.5"/>
<text text-anchor="start" x="1252.34" y="-150" font-family="Helvetica,sans-Serif" font-size="10.00">include/yaclib/lazy</text>
<text text-anchor="middle" x="1291.34" y="-138.75" font-family="Helvetica,sans-Serif" font-size="10.00">/schedule.hpp</text>
</a>
</g>
</g>
<!-- Node25&#45;&gt;Node28 -->
<g id="edge40_Node000025_Node000028" class="edge">
<title>Node25&#45;&gt;Node28</title>
<g id="a_edge40_Node000025_Node000028"><a xlink:title=" ">
<path fill="none" stroke="#63b8ff" d="M1077.47,-199.03C1148.05,-182.29 1167.78,-179.69 1235.34,-163.5 1238.17,-162.82 1241.08,-162.11 1244.01,-161.39"/>
<polygon fill="#63b8ff" stroke="#63b8ff" points="1077.06,-195.53 1068.15,-201.26 1078.69,-202.34 1077.06,-195.53"/>
</a>
</g>
</g>
<!-- Node29 -->
<g id="Node000029" class="node">
<title>Node29</title>
<g id="a_Node000029"><a xlink:href="task__impl_8cpp.html" target="_top" xlink:title=" ">
<polygon fill="white" stroke="#666666" points="1226.34,-157.88 1114.34,-157.88 1114.34,-138.62 1226.34,-138.62 1226.34,-157.88"/>
<text text-anchor="middle" x="1170.34" y="-144.38" font-family="Helvetica,sans-Serif" font-size="10.00">src/lazy/task_impl.cpp</text>
</a>
</g>
</g>
<!-- Node25&#45;&gt;Node29 -->
<g id="edge42_Node000025_Node000029" class="edge">
<title>Node25&#45;&gt;Node29</title>
<g id="a_edge42_Node000025_Node000029"><a xlink:title=" ">
<path fill="none" stroke="#63b8ff" d="M1064.02,-194.66C1092.2,-182.63 1127.28,-167.65 1149.25,-158.26"/>
<polygon fill="#63b8ff" stroke="#63b8ff" points="1062.82,-191.37 1055,-198.52 1065.57,-197.81 1062.82,-191.37"/>
</a>
</g>
</g>
<!-- Node28&#45;&gt;Node27 -->
<g id="edge41_Node000028_Node000027" class="edge">
<title>Node28&#45;&gt;Node27</title>
<g id="a_edge41_Node000028_Node000027"><a xlink:title=" ">
<path fill="none" stroke="#63b8ff" d="M1258.71,-126.61C1243.63,-117.08 1226.07,-105.98 1212.4,-97.33"/>
<polygon fill="#63b8ff" stroke="#63b8ff" points="1256.6,-129.42 1266.92,-131.81 1260.34,-123.5 1256.6,-129.42"/>
</a>
</g>
</g>
<!-- Node32&#45;&gt;Node4 -->
<g id="edge48_Node000032_Node000004" class="edge">
<title>Node32&#45;&gt;Node4</title>
<g id="a_edge48_Node000032_Node000004"><a xlink:title=" ">
<path fill="none" stroke="#63b8ff" d="M1491.69,-322.02C1477.86,-294.96 1456.14,-252.51 1444.8,-230.33"/>
<polygon fill="#63b8ff" stroke="#63b8ff" points="1488.56,-323.57 1496.23,-330.88 1494.79,-320.39 1488.56,-323.57"/>
</a>
</g>
</g>
<!-- Node33 -->
<g id="Node000033" class="node">
<title>Node33</title>
<g id="a_Node000033"><a xlink:href="wait__impl_8hpp.html" target="_top" xlink:title=" ">
<polygon fill="white" stroke="#666666" points="1606.59,-296.5 1502.09,-296.5 1502.09,-266 1606.59,-266 1606.59,-296.5"/>
<text text-anchor="start" x="1510.09" y="-283" font-family="Helvetica,sans-Serif" font-size="10.00">include/yaclib/async</text>
<text text-anchor="middle" x="1554.34" y="-271.75" font-family="Helvetica,sans-Serif" font-size="10.00">/detail/wait_impl.hpp</text>
</a>
</g>
</g>
<!-- Node32&#45;&gt;Node33 -->
<g id="edge49_Node000032_Node000033" class="edge">
<title>Node32&#45;&gt;Node33</title>
<g id="a_edge49_Node000032_Node000033"><a xlink:title=" ">
<path fill="none" stroke="#63b8ff" d="M1522.7,-323.07C1529.51,-314.28 1537.04,-304.57 1543.04,-296.83"/>
<polygon fill="#63b8ff" stroke="#63b8ff" points="1519.98,-320.87 1516.62,-330.92 1525.51,-325.16 1519.98,-320.87"/>
</a>
</g>
</g>
<!-- Node33&#45;&gt;Node17 -->
<g id="edge50_Node000033_Node000017" class="edge">
<title>Node33&#45;&gt;Node17</title>
<g id="a_edge50_Node000033_Node000017"><a xlink:title=" ">
<path fill="none" stroke="#63b8ff" d="M1491.09,-262.82C1453.86,-252.55 1407.35,-239.73 1372.28,-230.07"/>
<polygon fill="#63b8ff" stroke="#63b8ff" points="1489.8,-266.09 1500.37,-265.37 1491.66,-259.34 1489.8,-266.09"/>
</a>
</g>
</g>
<!-- Node33&#45;&gt;Node18 -->
<g id="edge51_Node000033_Node000018" class="edge">
<title>Node33&#45;&gt;Node18</title>
<g id="a_edge51_Node000033_Node000018"><a xlink:title=" ">
<path fill="none" stroke="#63b8ff" d="M1591.78,-260.29C1609.95,-250.61 1631.38,-239.18 1647.99,-230.33"/>
<polygon fill="#63b8ff" stroke="#63b8ff" points="1590.31,-257.11 1583.13,-264.9 1593.61,-263.29 1590.31,-257.11"/>
</a>
</g>
</g>
<!-- Node33&#45;&gt;Node19 -->
<g id="edge52_Node000033_Node000019" class="edge">
<title>Node33&#45;&gt;Node19</title>
<g id="a_edge52_Node000033_Node000019"><a xlink:title=" ">
<path fill="none" stroke="#63b8ff" d="M1554.34,-254.31C1554.34,-246.14 1554.34,-237.41 1554.34,-230.33"/>
<polygon fill="#63b8ff" stroke="#63b8ff" points="1550.84,-254.1 1554.34,-264.1 1557.84,-254.1 1550.84,-254.1"/>
</a>
</g>
</g>
<!-- Node34 -->
<g id="Node000034" class="node">
<title>Node34</title>
<g id="a_Node000034"><a xlink:href="wait__impl_8cpp.html" target="_top" xlink:title=" ">
<polygon fill="white" stroke="#666666" points="1865.47,-224.38 1745.22,-224.38 1745.22,-205.12 1865.47,-205.12 1865.47,-224.38"/>
<text text-anchor="middle" x="1805.34" y="-210.88" font-family="Helvetica,sans-Serif" font-size="10.00">src/async/wait_impl.cpp</text>
</a>
</g>
</g>
<!-- Node33&#45;&gt;Node34 -->
<g id="edge53_Node000033_Node000034" class="edge">
<title>Node33&#45;&gt;Node34</title>
<g id="a_edge53_Node000033_Node000034"><a xlink:title=" ">
<path fill="none" stroke="#63b8ff" d="M1617.92,-263.91C1666.19,-251.51 1730.77,-234.91 1770.14,-224.8"/>
<polygon fill="#63b8ff" stroke="#63b8ff" points="1617.24,-260.47 1608.43,-266.35 1618.98,-267.25 1617.24,-260.47"/>
</a>
</g>
</g>
<!-- Node35&#45;&gt;Node24 -->
<g id="edge58_Node000035_Node000024" class="edge">
<title>Node35&#45;&gt;Node24</title>
<g id="a_edge58_Node000035_Node000024"><a xlink:title=" ">
<path fill="none" stroke="#63b8ff" d="M1872.35,-199.28C1740.66,-178.66 1703.99,-186.8 1576.34,-163.5 1573.18,-162.92 1569.93,-162.28 1566.67,-161.59"/>
<polygon fill="#63b8ff" stroke="#63b8ff" points="1871.77,-202.73 1882.2,-200.85 1872.87,-195.82 1871.77,-202.73"/>
</a>
</g>
</g>
<!-- Node35&#45;&gt;Node26 -->
<g id="edge61_Node000035_Node000026" class="edge">
<title>Node35&#45;&gt;Node26</title>
<g id="a_edge61_Node000035_Node000026"><a xlink:title=" ">
<path fill="none" stroke="#63b8ff" d="M1872.37,-199.35C1689.98,-173.89 1639.42,-193.33 1461.34,-163.5 1458.53,-163.03 1455.64,-162.49 1452.74,-161.9"/>
<polygon fill="#63b8ff" stroke="#63b8ff" points="1871.82,-202.81 1882.21,-200.75 1872.81,-195.88 1871.82,-202.81"/>
</a>
</g>
</g>
<!-- Node36 -->
<g id="Node000036" class="node">
<title>Node36</title>
<g id="a_Node000036"><a xlink:href="on__awaiter_8hpp.html" target="_top" xlink:title=" ">
<polygon fill="white" stroke="#666666" points="1999.59,-163.5 1889.09,-163.5 1889.09,-133 1999.59,-133 1999.59,-163.5"/>
<text text-anchor="start" x="1897.09" y="-150" font-family="Helvetica,sans-Serif" font-size="10.00">include/yaclib/coro</text>
<text text-anchor="middle" x="1944.34" y="-138.75" font-family="Helvetica,sans-Serif" font-size="10.00">/detail/on_awaiter.hpp</text>
</a>
</g>
</g>
<!-- Node35&#45;&gt;Node36 -->
<g id="edge55_Node000035_Node000036" class="edge">
<title>Node35&#45;&gt;Node36</title>
<g id="a_edge55_Node000035_Node000036"><a xlink:title=" ">
<path fill="none" stroke="#63b8ff" d="M1944.34,-187.81C1944.34,-179.64 1944.34,-170.91 1944.34,-163.83"/>
<polygon fill="#63b8ff" stroke="#63b8ff" points="1940.84,-187.6 1944.34,-197.6 1947.84,-187.6 1940.84,-187.6"/>
</a>
</g>
</g>
<!-- Node37 -->
<g id="Node000037" class="node">
<title>Node37</title>
<g id="a_Node000037"><a xlink:href="coro_2mutex_8hpp.html" target="_top" xlink:title=" ">
<polygon fill="white" stroke="#666666" points="1909.47,-97 1813.22,-97 1813.22,-66.5 1909.47,-66.5 1909.47,-97"/>
<text text-anchor="start" x="1821.22" y="-83.5" font-family="Helvetica,sans-Serif" font-size="10.00">include/yaclib/coro</text>
<text text-anchor="middle" x="1861.34" y="-72.25" font-family="Helvetica,sans-Serif" font-size="10.00">/mutex.hpp</text>
</a>
</g>
</g>
<!-- Node35&#45;&gt;Node37 -->
<g id="edge59_Node000035_Node000037" class="edge">
<title>Node35&#45;&gt;Node37</title>
<g id="a_edge59_Node000035_Node000037"><a xlink:title=" ">
<path fill="none" stroke="#63b8ff" d="M1908.85,-192.58C1898.27,-184.68 1887.57,-174.83 1880.34,-163.5 1867.25,-142.98 1863.16,-114.36 1861.9,-97.28"/>
<polygon fill="#63b8ff" stroke="#63b8ff" points="1906.6,-195.27 1916.8,-198.14 1910.62,-189.54 1906.6,-195.27"/>
</a>
</g>
</g>
<!-- Node39 -->
<g id="Node000039" class="node">
<title>Node39</title>
<g id="a_Node000039"><a xlink:href="coro_2shared__mutex_8hpp.html" target="_top" xlink:title=" ">
<polygon fill="white" stroke="#666666" points="2115.22,-163.5 2017.47,-163.5 2017.47,-133 2115.22,-133 2115.22,-163.5"/>
<text text-anchor="start" x="2025.47" y="-150" font-family="Helvetica,sans-Serif" font-size="10.00">include/yaclib/coro</text>
<text text-anchor="middle" x="2066.34" y="-138.75" font-family="Helvetica,sans-Serif" font-size="10.00">/shared_mutex.hpp</text>
</a>
</g>
</g>
<!-- Node35&#45;&gt;Node39 -->
<g id="edge60_Node000035_Node000039" class="edge">
<title>Node35&#45;&gt;Node39</title>
<g id="a_edge60_Node000035_Node000039"><a xlink:title=" ">
<path fill="none" stroke="#63b8ff" d="M1982.09,-193.79C2000.41,-184.11 2022.02,-172.68 2038.77,-163.83"/>
<polygon fill="#63b8ff" stroke="#63b8ff" points="1980.57,-190.64 1973.36,-198.41 1983.84,-196.83 1980.57,-190.64"/>
</a>
</g>
</g>
<!-- Node36&#45;&gt;Node37 -->
<g id="edge56_Node000036_Node000037" class="edge">
<title>Node36&#45;&gt;Node37</title>
<g id="a_edge56_Node000036_Node000037"><a xlink:title=" ">
<path fill="none" stroke="#63b8ff" d="M1916.73,-125.79C1904.7,-116.44 1890.91,-105.73 1880.1,-97.33"/>
<polygon fill="#63b8ff" stroke="#63b8ff" points="1914.27,-128.31 1924.31,-131.69 1918.57,-122.79 1914.27,-128.31"/>
</a>
</g>
</g>
<!-- Node38 -->
<g id="Node000038" class="node">
<title>Node38</title>
<g id="a_Node000038"><a xlink:href="on_8hpp.html" target="_top" xlink:title=" ">
<polygon fill="white" stroke="#666666" points="2023.47,-97 1927.22,-97 1927.22,-66.5 2023.47,-66.5 2023.47,-97"/>
<text text-anchor="start" x="1935.22" y="-83.5" font-family="Helvetica,sans-Serif" font-size="10.00">include/yaclib/coro</text>
<text text-anchor="middle" x="1975.34" y="-72.25" font-family="Helvetica,sans-Serif" font-size="10.00">/on.hpp</text>
</a>
</g>
</g>
<!-- Node36&#45;&gt;Node38 -->
<g id="edge57_Node000036_Node000038" class="edge">
<title>Node36&#45;&gt;Node38</title>
<g id="a_edge57_Node000036_Node000038"><a xlink:title=" ">
<path fill="none" stroke="#63b8ff" d="M1956.27,-122.44C1960.34,-113.96 1964.77,-104.74 1968.34,-97.33"/>
<polygon fill="#63b8ff" stroke="#63b8ff" points="1953.21,-120.72 1952.03,-131.25 1959.52,-123.75 1953.21,-120.72"/>
</a>
</g>
</g>
</g>
</svg>
