<?xml version="1.0" encoding="UTF-8" standalone="no"?>
<!DOCTYPE svg PUBLIC "-//W3C//DTD SVG 1.1//EN"
 "http://www.w3.org/Graphics/SVG/1.1/DTD/svg11.dtd">
<!-- Generated by graphviz version 9.0.0 (20230911.1827)
 -->
<!-- Title: yaclib::Job Pages: 1 -->
<!--zoomable 458 -->

<svg id="main" version="1.1" xmlns="http://www.w3.org/2000/svg" xmlns:xlink="http://www.w3.org/1999/xlink" xml:space="preserve" onload="init(evt)">
<style type="text/css"><![CDATA[
.node, .edge {opacity: 0.7;}
.node.selected, .edge.selected {opacity: 1;}
.edge:hover path { stroke: red; }
.edge:hover polygon { stroke: red; fill: red; }
]]></style>

<defs>
  <circle id="rim" cx="0" cy="0" r="7"/>
  <circle id="rim2" cx="0" cy="0" r="3.5"/>
  <g id="zoomPlus">
    <use xlink:href="#rim" fill="#404040"><set attributeName="fill" to="#808080" begin="zoomplus.mouseover" end="zoomplus.mouseout"/></use>
    <path d="M-4,0h8M0,-4v8" fill="none" stroke="white" stroke-width="1.5" pointer-events="none"/>
  </g>
  <g id="zoomMin">
    <use xlink:href="#rim" fill="#404040"><set attributeName="fill" to="#808080" begin="zoomminus.mouseover" end="zoomminus.mouseout"/></use>
    <path d="M-4,0h8" fill="none" stroke="white" stroke-width="1.5" pointer-events="none"/>
  </g>
  <g id="arrowUp" transform="translate(30 24)">
    <use xlink:href="#rim"/>
    <path pointer-events="none" fill="none" stroke="white" stroke-width="1.5" d="M0,-3.0v7 M-2.5,-0.5L0,-3.0L2.5,-0.5"/>
  </g>
  <g id="arrowRight" transform="rotate(90) translate(36 -43)">
    <use xlink:href="#rim"/>
    <path pointer-events="none" fill="none" stroke="white" stroke-width="1.5" d="M0,-3.0v7 M-2.5,-0.5L0,-3.0L2.5,-0.5"/>
  </g>
  <g id="arrowDown" transform="rotate(180) translate(-30 -48)">
    <use xlink:href="#rim"/>
    <path pointer-events="none" fill="none" stroke="white" stroke-width="1.5" d="M0,-3.0v7 M-2.5,-0.5L0,-3.0L2.5,-0.5"/>
  </g>
  <g id="arrowLeft" transform="rotate(270) translate(-36 17)">
    <use xlink:href="#rim"/>
    <path pointer-events="none" fill="none" stroke="white" stroke-width="1.5" d="M0,-3.0v7 M-2.5,-0.5L0,-3.0L2.5,-0.5"/>
  </g>
  <g id="resetDef">
    <use xlink:href="#rim2" fill="#404040"><set attributeName="fill" to="#808080" begin="reset.mouseover" end="reset.mouseout"/></use>
  </g>
</defs>
<script type="application/ecmascript">
var viewWidth = 1383;
var viewHeight = 458;
var sectionId = 'dynsection-0';
</script>
<script type="application/ecmascript" xlink:href="svg.min.js"/>
<svg id="graph" class="graph">
<g id="viewport">
<title>yaclib::Job</title>
<!-- Node1 -->
<g id="Node000001" class="node">
<title>Node1</title>
<g id="a_Node000001"><a xlink:title="Callable that can be executed in an IExecutor.">
<polygon fill="#999999" stroke="#666666" points="294.5,-268.88 233.5,-268.88 233.5,-249.62 294.5,-249.62 294.5,-268.88"/>
<text text-anchor="middle" x="264" y="-255.38" font-family="Helvetica,sans-Serif" font-size="10.00">yaclib::Job</text>
</a>
</g>
</g>
<!-- Node5 -->
<g id="Node000005" class="node">
<title>Node5</title>
<g id="a_Node000005"><a xlink:href="structyaclib_1_1OneShotEvent_1_1TimedWaiter.html" target="_top" xlink:title="Public only because Waiter is public.">
<polygon fill="white" stroke="#666666" points="445.38,-366.5 337.12,-366.5 337.12,-336 445.38,-336 445.38,-366.5"/>
<text text-anchor="start" x="345.12" y="-353" font-family="Helvetica,sans-Serif" font-size="10.00">yaclib::OneShotEvent</text>
<text text-anchor="middle" x="391.25" y="-341.75" font-family="Helvetica,sans-Serif" font-size="10.00">::TimedWaiter</text>
</a>
</g>
</g>
<!-- Node1&#45;&gt;Node5 -->
<g id="edge4_Node000001_Node000005" class="edge">
<title>Node1&#45;&gt;Node5</title>
<g id="a_edge4_Node000001_Node000005"><a xlink:title=" ">
<path fill="none" stroke="#63b8ff" d="M279.89,-277.8C292.42,-292.47 311.47,-312.67 331.5,-326.25 336.55,-329.67 342.14,-332.78 347.8,-335.54"/>
<polygon fill="#63b8ff" stroke="#63b8ff" points="282.7,-275.7 273.61,-270.25 277.31,-280.17 282.7,-275.7"/>
</a>
</g>
</g>
<!-- Node6 -->
<g id="Node000006" class="node">
<title>Node6</title>
<g id="a_Node000006"><a xlink:href="structyaclib_1_1OneShotEvent_1_1Waiter.html" target="_top" xlink:title="Waiter is public for advanced users.">
<polygon fill="white" stroke="#666666" points="445.38,-317.5 337.12,-317.5 337.12,-287 445.38,-287 445.38,-317.5"/>
<text text-anchor="start" x="345.12" y="-304" font-family="Helvetica,sans-Serif" font-size="10.00">yaclib::OneShotEvent</text>
<text text-anchor="middle" x="391.25" y="-292.75" font-family="Helvetica,sans-Serif" font-size="10.00">::Waiter</text>
</a>
</g>
</g>
<!-- Node1&#45;&gt;Node6 -->
<g id="edge5_Node000001_Node000006" class="edge">
<title>Node1&#45;&gt;Node6</title>
<g id="a_edge5_Node000001_Node000006"><a xlink:title=" ">
<path fill="none" stroke="#63b8ff" d="M304.97,-272.97C317.52,-277.28 331.48,-282.07 344.4,-286.51"/>
<polygon fill="#63b8ff" stroke="#63b8ff" points="306.39,-269.76 295.8,-269.82 304.12,-276.38 306.39,-269.76"/>
</a>
</g>
</g>
<!-- Node7 -->
<g id="Node000007" class="node">
<title>Node7</title>
<g id="a_Node000007"><a xlink:href="classyaclib_1_1Strand.html" target="_top" xlink:title=" ">
<polygon fill="white" stroke="#666666" points="428.12,-268.88 354.38,-268.88 354.38,-249.62 428.12,-249.62 428.12,-268.88"/>
<text text-anchor="middle" x="391.25" y="-255.38" font-family="Helvetica,sans-Serif" font-size="10.00">yaclib::Strand</text>
</a>
</g>
</g>
<!-- Node1&#45;&gt;Node7 -->
<g id="edge6_Node000001_Node000007" class="edge">
<title>Node1&#45;&gt;Node7</title>
<g id="a_edge6_Node000001_Node000007"><a xlink:title=" ">
<path fill="none" stroke="#8b1a1a" d="M306.07,-259.25C321.56,-259.25 339.06,-259.25 354.08,-259.25"/>
<polygon fill="#8b1a1a" stroke="#8b1a1a" points="306.2,-255.75 296.2,-259.25 306.2,-262.75 306.2,-255.75"/>
</a>
</g>
</g>
<!-- Node8 -->
<g id="Node000008" class="node">
<title>Node8</title>
<g id="a_Node000008"><a xlink:href="classyaclib_1_1detail_1_1InlineCore.html" target="_top" xlink:title=" ">
<polygon fill="white" stroke="#666666" points="449.5,-231.88 333,-231.88 333,-212.62 449.5,-212.62 449.5,-231.88"/>
<text text-anchor="middle" x="391.25" y="-218.38" font-family="Helvetica,sans-Serif" font-size="10.00">yaclib::detail::InlineCore</text>
</a>
</g>
</g>
<!-- Node1&#45;&gt;Node8 -->
<g id="edge7_Node000001_Node000008" class="edge">
<title>Node1&#45;&gt;Node8</title>
<g id="a_edge7_Node000001_Node000008"><a xlink:title=" ">
<path fill="none" stroke="#63b8ff" d="M305.6,-247.26C322,-242.41 340.71,-236.89 356.36,-232.26"/>
<polygon fill="#63b8ff" stroke="#63b8ff" points="304.73,-243.86 296.13,-250.05 306.72,-250.58 304.73,-243.86"/>
</a>
</g>
</g>
<!-- Node27 -->
<g id="Node000027" class="node">
<title>Node27</title>
<g id="a_Node000027"><a xlink:href="classyaclib_1_1detail_1_1UniqueJob.html" target="_top" xlink:title=" ">
<polygon fill="white" stroke="#666666" points="451,-194.5 331.5,-194.5 331.5,-164 451,-164 451,-194.5"/>
<text text-anchor="start" x="339.5" y="-181" font-family="Helvetica,sans-Serif" font-size="10.00">yaclib::detail::UniqueJob</text>
<text text-anchor="middle" x="391.25" y="-169.75" font-family="Helvetica,sans-Serif" font-size="10.00">&lt; Func &gt;</text>
</a>
</g>
</g>
<!-- Node1&#45;&gt;Node27 -->
<g id="edge28_Node000001_Node000027" class="edge">
<title>Node1&#45;&gt;Node27</title>
<g id="a_edge28_Node000001_Node000027"><a xlink:title=" ">
<path fill="none" stroke="#63b8ff" d="M282.89,-241.5C295.64,-229.55 313.62,-214.06 331.5,-203.25 336.5,-200.23 341.94,-197.43 347.44,-194.89"/>
<polygon fill="#63b8ff" stroke="#63b8ff" points="280.48,-238.96 275.7,-248.41 285.33,-244 280.48,-238.96"/>
</a>
</g>
</g>
<!-- Node2 -->
<g id="Node000002" class="node">
<title>Node2</title>
<g id="a_Node000002"><a xlink:href="classyaclib_1_1IFunc.html" target="_top" xlink:title="Callable interface.">
<polygon fill="white" stroke="#666666" points="183.38,-293.88 113.38,-293.88 113.38,-274.62 183.38,-274.62 183.38,-293.88"/>
<text text-anchor="middle" x="148.38" y="-280.38" font-family="Helvetica,sans-Serif" font-size="10.00">yaclib::IFunc</text>
</a>
</g>
</g>
<!-- Node2&#45;&gt;Node1 -->
<g id="edge1_Node000001_Node000002" class="edge">
<title>Node2&#45;&gt;Node1</title>
<g id="a_edge1_Node000001_Node000002"><a xlink:title=" ">
<path fill="none" stroke="#63b8ff" d="M194.87,-274.24C207.82,-271.39 221.59,-268.36 233.33,-265.78"/>
<polygon fill="#63b8ff" stroke="#63b8ff" points="194.27,-270.79 185.25,-276.36 195.77,-277.63 194.27,-270.79"/>
</a>
</g>
</g>
<!-- Node3 -->
<g id="Node000003" class="node">
<title>Node3</title>
<g id="a_Node000003"><a xlink:href="classyaclib_1_1IRef.html" target="_top" xlink:title="Reference counting interface.">
<polygon fill="white" stroke="#666666" points="63.25,-293.88 0,-293.88 0,-274.62 63.25,-274.62 63.25,-293.88"/>
<text text-anchor="middle" x="31.62" y="-280.38" font-family="Helvetica,sans-Serif" font-size="10.00">yaclib::IRef</text>
</a>
</g>
</g>
<!-- Node3&#45;&gt;Node2 -->
<g id="edge2_Node000002_Node000003" class="edge">
<title>Node3&#45;&gt;Node2</title>
<g id="a_edge2_Node000002_Node000003"><a xlink:title=" ">
<path fill="none" stroke="#63b8ff" d="M74.86,-284.25C87.44,-284.25 101.06,-284.25 113.07,-284.25"/>
<polygon fill="#63b8ff" stroke="#63b8ff" points="75.19,-280.75 65.19,-284.25 75.19,-287.75 75.19,-280.75"/>
</a>
</g>
</g>
<!-- Node4 -->
<g id="Node000004" class="node">
<title>Node4</title>
<g id="a_Node000004"><a xlink:href="structyaclib_1_1detail_1_1Node.html" target="_top" xlink:title="Node class, used in intrusive data structure.">
<polygon fill="white" stroke="#666666" points="196.5,-256.88 100.25,-256.88 100.25,-237.62 196.5,-237.62 196.5,-256.88"/>
<text text-anchor="middle" x="148.38" y="-243.38" font-family="Helvetica,sans-Serif" font-size="10.00">yaclib::detail::Node</text>
</a>
</g>
</g>
<!-- Node4&#45;&gt;Node1 -->
<g id="edge3_Node000001_Node000004" class="edge">
<title>Node4&#45;&gt;Node1</title>
<g id="a_edge3_Node000001_Node000004"><a xlink:title=" ">
<path fill="none" stroke="#63b8ff" d="M208.23,-253.47C216.87,-254.38 225.45,-255.28 233.16,-256.1"/>
<polygon fill="#63b8ff" stroke="#63b8ff" points="208.72,-250 198.41,-252.43 207.99,-256.96 208.72,-250"/>
</a>
</g>
</g>
<!-- Node9 -->
<g id="Node000009" class="node">
<title>Node9</title>
<g id="a_Node000009"><a xlink:href="classyaclib_1_1detail_1_1AwaitOnEvent.html" target="_top" xlink:title=" ">
<polygon fill="white" stroke="#666666" points="838,-427.5 702.75,-427.5 702.75,-397 838,-397 838,-427.5"/>
<text text-anchor="start" x="710.75" y="-414" font-family="Helvetica,sans-Serif" font-size="10.00">yaclib::detail::AwaitOnEvent</text>
<text text-anchor="middle" x="770.38" y="-402.75" font-family="Helvetica,sans-Serif" font-size="10.00">&lt; true &gt;</text>
</a>
</g>
</g>
<!-- Node8&#45;&gt;Node9 -->
<g id="edge8_Node000008_Node000009" class="edge">
<title>Node8&#45;&gt;Node9</title>
<g id="a_edge8_Node000008_Node000009"><a xlink:title=" ">
<path fill="none" stroke="#63b8ff" d="M449.9,-239.09C450.27,-239.47 450.64,-239.86 451,-240.25 477.83,-269.58 457.36,-389.92 488,-415.25 555.49,-471.04 666.42,-447.23 726.87,-427.94"/>
<polygon fill="#63b8ff" stroke="#63b8ff" points="452.28,-236.51 442.2,-233.26 448.05,-242.09 452.28,-236.51"/>
</a>
</g>
</g>
<!-- Node10 -->
<g id="Node000010" class="node">
<title>Node10</title>
<g id="a_Node000010"><a xlink:href="classyaclib_1_1detail_1_1AwaitOnEvent.html" target="_top" xlink:title=" ">
<polygon fill="white" stroke="#666666" points="838,-361.5 702.75,-361.5 702.75,-331 838,-331 838,-361.5"/>
<text text-anchor="start" x="710.75" y="-348" font-family="Helvetica,sans-Serif" font-size="10.00">yaclib::detail::AwaitOnEvent</text>
<text text-anchor="middle" x="770.38" y="-336.75" font-family="Helvetica,sans-Serif" font-size="10.00">&lt; false &gt;</text>
</a>
</g>
</g>
<!-- Node8&#45;&gt;Node10 -->
<g id="edge9_Node000008_Node000010" class="edge">
<title>Node8&#45;&gt;Node10</title>
<g id="a_edge9_Node000008_Node000010"><a xlink:title=" ">
<path fill="none" stroke="#63b8ff" d="M438.27,-208.37C442.62,-206.76 446.92,-205.04 451,-203.25 468.31,-195.63 469.72,-187.08 488,-182.25 547.73,-166.48 570.79,-156.61 627,-182.25 695.61,-213.54 743.92,-296.04 761.77,-330.63"/>
<polygon fill="#63b8ff" stroke="#63b8ff" points="437.19,-205.04 428.91,-211.65 439.5,-211.64 437.19,-205.04"/>
</a>
</g>
</g>
<!-- Node11 -->
<g id="Node000011" class="node">
<title>Node11</title>
<g id="a_Node000011"><a xlink:href="classyaclib_1_1detail_1_1AllCombinator.html" target="_top" xlink:title=" ">
<polygon fill="white" stroke="#666666" points="624.38,-357.5 490.62,-357.5 490.62,-327 624.38,-327 624.38,-357.5"/>
<text text-anchor="start" x="498.62" y="-344" font-family="Helvetica,sans-Serif" font-size="10.00">yaclib::detail::AllCombinator</text>
<text text-anchor="middle" x="557.5" y="-332.75" font-family="Helvetica,sans-Serif" font-size="10.00">&lt; O, R, E &gt;</text>
</a>
</g>
</g>
<!-- Node8&#45;&gt;Node11 -->
<g id="edge10_Node000008_Node000011" class="edge">
<title>Node8&#45;&gt;Node11</title>
<g id="a_edge10_Node000008_Node000011"><a xlink:title=" ">
<path fill="none" stroke="#63b8ff" d="M448.11,-237.96C449.1,-238.69 450.07,-239.45 451,-240.25 479.79,-265 459.87,-291.75 488,-317.25 491.94,-320.82 496.43,-323.89 501.18,-326.53"/>
<polygon fill="#63b8ff" stroke="#63b8ff" points="450.17,-235.11 439.78,-233.03 446.61,-241.13 450.17,-235.11"/>
</a>
</g>
</g>
<!-- Node12 -->
<g id="Node000012" class="node">
<title>Node12</title>
<g id="a_Node000012"><a xlink:href="classyaclib_1_1detail_1_1AllCombinator_3_01OrderPolicy_1_1Same_00_01R_00_01E_01_4.html" target="_top" xlink:title=" ">
<polygon fill="white" stroke="#666666" points="625.5,-308.5 489.5,-308.5 489.5,-278 625.5,-278 625.5,-308.5"/>
<text text-anchor="start" x="497.5" y="-295" font-family="Helvetica,sans-Serif" font-size="10.00">yaclib::detail::AllCombinator</text>
<text text-anchor="middle" x="557.5" y="-283.75" font-family="Helvetica,sans-Serif" font-size="10.00">&lt; OrderPolicy::Same, R, E &gt;</text>
</a>
</g>
</g>
<!-- Node8&#45;&gt;Node12 -->
<g id="edge11_Node000008_Node000012" class="edge">
<title>Node8&#45;&gt;Node12</title>
<g id="a_edge11_Node000008_Node000012"><a xlink:title=" ">
<path fill="none" stroke="#63b8ff" d="M442.55,-236.35C445.45,-237.56 448.29,-238.86 451,-240.25 469.36,-249.64 469.89,-258.38 488,-268.25 494.23,-271.64 501,-274.75 507.8,-277.53"/>
<polygon fill="#63b8ff" stroke="#63b8ff" points="443.88,-233.11 433.29,-232.84 441.4,-239.65 443.88,-233.11"/>
</a>
</g>
</g>
<!-- Node13 -->
<g id="Node000013" class="node">
<title>Node13</title>
<g id="a_Node000013"><a xlink:href="classyaclib_1_1detail_1_1AnyCombinator.html" target="_top" xlink:title=" ">
<polygon fill="white" stroke="#666666" points="627,-259.5 488,-259.5 488,-229 627,-229 627,-259.5"/>
<text text-anchor="start" x="496" y="-246" font-family="Helvetica,sans-Serif" font-size="10.00">yaclib::detail::AnyCombinator</text>
<text text-anchor="middle" x="557.5" y="-234.75" font-family="Helvetica,sans-Serif" font-size="10.00">&lt; V, E, P &gt;</text>
</a>
</g>
</g>
<!-- Node8&#45;&gt;Node13 -->
<g id="edge12_Node000008_Node000013" class="edge">
<title>Node8&#45;&gt;Node13</title>
<g id="a_edge12_Node000008_Node000013"><a xlink:title=" ">
<path fill="none" stroke="#63b8ff" d="M461.05,-231.46C469.8,-232.64 478.76,-233.84 487.51,-235.01"/>
<polygon fill="#63b8ff" stroke="#63b8ff" points="461.57,-228 451.2,-230.15 460.64,-234.94 461.57,-228"/>
</a>
</g>
</g>
<!-- Node14 -->
<g id="Node000014" class="node">
<title>Node14</title>
<g id="a_Node000014"><a xlink:href="classyaclib_1_1detail_1_1AwaitEvent.html" target="_top" xlink:title=" ">
<polygon fill="white" stroke="#666666" points="618.75,-210.88 496.25,-210.88 496.25,-191.62 618.75,-191.62 618.75,-210.88"/>
<text text-anchor="middle" x="557.5" y="-197.38" font-family="Helvetica,sans-Serif" font-size="10.00">yaclib::detail::AwaitEvent</text>
</a>
</g>
</g>
<!-- Node8&#45;&gt;Node14 -->
<g id="edge13_Node000008_Node000014" class="edge">
<title>Node8&#45;&gt;Node14</title>
<g id="a_edge13_Node000008_Node000014"><a xlink:title=" ">
<path fill="none" stroke="#63b8ff" d="M460.77,-213.49C472.47,-211.99 484.54,-210.45 496.02,-208.98"/>
<polygon fill="#63b8ff" stroke="#63b8ff" points="460.67,-209.97 451.2,-214.71 461.56,-216.92 460.67,-209.97"/>
</a>
</g>
</g>
<!-- Node15 -->
<g id="Node000015" class="node">
<title>Node15</title>
<g id="a_Node000015"><a xlink:href="classyaclib_1_1detail_1_1AwaitOnEvent.html" target="_top" xlink:title=" ">
<polygon fill="white" stroke="#666666" points="625.12,-406.5 489.88,-406.5 489.88,-376 625.12,-376 625.12,-406.5"/>
<text text-anchor="start" x="497.88" y="-393" font-family="Helvetica,sans-Serif" font-size="10.00">yaclib::detail::AwaitOnEvent</text>
<text text-anchor="middle" x="557.5" y="-381.75" font-family="Helvetica,sans-Serif" font-size="10.00">&lt; Single &gt;</text>
</a>
</g>
</g>
<!-- Node8&#45;&gt;Node15 -->
<g id="edge14_Node000008_Node000015" class="edge">
<title>Node8&#45;&gt;Node15</title>
<g id="a_edge14_Node000008_Node000015"><a xlink:title=" ">
<path fill="none" stroke="#63b8ff" d="M449.48,-238.8C450,-239.27 450.51,-239.75 451,-240.25 471.51,-261.01 468.04,-344.96 488,-366.25 491.38,-369.85 495.32,-372.94 499.56,-375.58"/>
<polygon fill="#63b8ff" stroke="#63b8ff" points="451.61,-236.01 441.41,-233.14 447.6,-241.75 451.61,-236.01"/>
</a>
</g>
</g>
<!-- Node16 -->
<g id="Node000016" class="node">
<title>Node16</title>
<g id="a_Node000016"><a xlink:href="classyaclib_1_1detail_1_1BaseCore.html" target="_top" xlink:title=" ">
<polygon fill="white" stroke="#666666" points="615.38,-134.88 499.62,-134.88 499.62,-115.62 615.38,-115.62 615.38,-134.88"/>
<text text-anchor="middle" x="557.5" y="-121.38" font-family="Helvetica,sans-Serif" font-size="10.00">yaclib::detail::BaseCore</text>
</a>
</g>
</g>
<!-- Node8&#45;&gt;Node16 -->
<g id="edge17_Node000008_Node000016" class="edge">
<title>Node8&#45;&gt;Node16</title>
<g id="a_edge17_Node000008_Node000016"><a xlink:title=" ">
<path fill="none" stroke="#63b8ff" d="M447.76,-206.15C448.89,-205.23 449.97,-204.27 451,-203.25 468.97,-185.44 450.63,-166.65 469,-149.25 477.46,-141.23 488.34,-135.85 499.54,-132.24"/>
<polygon fill="#63b8ff" stroke="#63b8ff" points="446.15,-203.02 439.61,-211.36 449.92,-208.92 446.15,-203.02"/>
</a>
</g>
</g>
<!-- Node25 -->
<g id="Node000025" class="node">
<title>Node25</title>
<g id="a_Node000025"><a xlink:href="structyaclib_1_1detail_1_1CallCallback.html" target="_top" xlink:title=" ">
<polygon fill="white" stroke="#666666" points="621,-97.5 494,-97.5 494,-67 621,-67 621,-97.5"/>
<text text-anchor="start" x="502" y="-84" font-family="Helvetica,sans-Serif" font-size="10.00">yaclib::detail::CallCallback</text>
<text text-anchor="middle" x="557.5" y="-72.75" font-family="Helvetica,sans-Serif" font-size="10.00">&lt; Derived &gt;</text>
</a>
</g>
</g>
<!-- Node8&#45;&gt;Node25 -->
<g id="edge26_Node000008_Node000025" class="edge">
<title>Node8&#45;&gt;Node25</title>
<g id="a_edge26_Node000008_Node000025"><a xlink:title=" ">
<path fill="none" stroke="#63b8ff" d="M447.79,-206.17C448.91,-205.25 449.98,-204.28 451,-203.25 469.97,-184.05 459.06,-170.34 469,-145.25 476.1,-127.32 473.6,-119.07 488,-106.25 491.58,-103.07 495.6,-100.3 499.86,-97.9"/>
<polygon fill="#63b8ff" stroke="#63b8ff" points="446.17,-203.05 439.69,-211.43 449.98,-208.92 446.17,-203.05"/>
</a>
</g>
</g>
<!-- Node26 -->
<g id="Node000026" class="node">
<title>Node26</title>
<g id="a_Node000026"><a xlink:href="structyaclib_1_1detail_1_1DropCallback.html" target="_top" xlink:title=" ">
<polygon fill="white" stroke="#666666" points="622.88,-48.5 492.12,-48.5 492.12,-18 622.88,-18 622.88,-48.5"/>
<text text-anchor="start" x="500.12" y="-35" font-family="Helvetica,sans-Serif" font-size="10.00">yaclib::detail::DropCallback</text>
<text text-anchor="middle" x="557.5" y="-23.75" font-family="Helvetica,sans-Serif" font-size="10.00">&lt; Derived &gt;</text>
</a>
</g>
</g>
<!-- Node8&#45;&gt;Node26 -->
<g id="edge27_Node000008_Node000026" class="edge">
<title>Node8&#45;&gt;Node26</title>
<g id="a_edge27_Node000008_Node000026"><a xlink:title=" ">
<path fill="none" stroke="#63b8ff" d="M448.35,-205.82C449.27,-205.01 450.16,-204.15 451,-203.25 473.76,-179.01 465.69,-82.91 488,-58.25 491.23,-54.68 495.01,-51.62 499.1,-49"/>
<polygon fill="#63b8ff" stroke="#63b8ff" points="446.68,-202.72 440.42,-211.27 450.65,-208.49 446.68,-202.72"/>
</a>
</g>
</g>
<!-- Node15&#45;&gt;Node9 -->
<g id="edge15_Node000015_Node000009" class="edge">
<title>Node15&#45;&gt;Node9</title>
<g id="a_edge15_Node000015_Node000009"><a xlink:title=" ">
<path fill="none" stroke="orange" stroke-dasharray="5,2" d="M636.96,-399.06C658.52,-401.21 681.7,-403.52 702.54,-405.59"/>
<polygon fill="orange" stroke="orange" points="637.32,-395.58 627.02,-398.07 636.62,-402.55 637.32,-395.58"/>
</a>
</g>
<text text-anchor="middle" x="664.88" y="-405" font-family="Helvetica,sans-Serif" font-size="10.00" fill="grey"> &lt; true &gt;</text>
</g>
<!-- Node15&#45;&gt;Node10 -->
<g id="edge16_Node000015_Node000010" class="edge">
<title>Node15&#45;&gt;Node10</title>
<g id="a_edge16_Node000015_Node000010"><a xlink:title=" ">
<path fill="none" stroke="orange" stroke-dasharray="5,2" d="M636.66,-374.57C658.31,-369.95 681.6,-364.98 702.54,-360.51"/>
<polygon fill="orange" stroke="orange" points="636.04,-371.12 626.99,-376.63 637.5,-377.97 636.04,-371.12"/>
</a>
</g>
<text text-anchor="middle" x="664.88" y="-374" font-family="Helvetica,sans-Serif" font-size="10.00" fill="grey"> &lt; false &gt;</text>
</g>
<!-- Node17 -->
<g id="Node000017" class="node">
<title>Node17</title>
<g id="a_Node000017"><a xlink:href="classyaclib_1_1detail_1_1NoResultCore.html" target="_top" xlink:title=" ">
<polygon fill="white" stroke="#666666" points="837.25,-140.88 703.5,-140.88 703.5,-121.62 837.25,-121.62 837.25,-140.88"/>
<text text-anchor="middle" x="770.38" y="-127.38" font-family="Helvetica,sans-Serif" font-size="10.00">yaclib::detail::NoResultCore</text>
</a>
</g>
</g>
<!-- Node16&#45;&gt;Node17 -->
<g id="edge18_Node000016_Node000017" class="edge">
<title>Node16&#45;&gt;Node17</title>
<g id="a_edge18_Node000016_Node000017"><a xlink:title=" ">
<path fill="none" stroke="#63b8ff" d="M627.17,-127.2C651.55,-127.9 678.92,-128.68 703.09,-129.36"/>
<polygon fill="#63b8ff" stroke="#63b8ff" points="627.45,-123.71 617.36,-126.92 627.25,-130.71 627.45,-123.71"/>
</a>
</g>
</g>
<!-- Node18 -->
<g id="Node000018" class="node">
<title>Node18</title>
<g id="a_Node000018"><a xlink:href="classyaclib_1_1detail_1_1ResultCore.html" target="_top" xlink:title=" ">
<polygon fill="white" stroke="#666666" points="830.88,-103.5 709.88,-103.5 709.88,-73 830.88,-73 830.88,-103.5"/>
<text text-anchor="start" x="717.88" y="-90" font-family="Helvetica,sans-Serif" font-size="10.00">yaclib::detail::ResultCore</text>
<text text-anchor="middle" x="770.38" y="-78.75" font-family="Helvetica,sans-Serif" font-size="10.00">&lt; V, E &gt;</text>
</a>
</g>
</g>
<!-- Node16&#45;&gt;Node18 -->
<g id="edge19_Node000016_Node000018" class="edge">
<title>Node16&#45;&gt;Node18</title>
<g id="a_edge19_Node000016_Node000018"><a xlink:title=" ">
<path fill="none" stroke="#63b8ff" d="M627,-113.23C653.58,-108.57 683.76,-103.27 709.47,-98.76"/>
<polygon fill="#63b8ff" stroke="#63b8ff" points="626.58,-109.75 617.33,-114.93 627.79,-116.65 626.58,-109.75"/>
</a>
</g>
</g>
<!-- Node19 -->
<g id="Node000019" class="node">
<title>Node19</title>
<g id="a_Node000019"><a xlink:href="classyaclib_1_1detail_1_1SharedCore.html" target="_top" xlink:title=" ">
<polygon fill="white" stroke="#666666" points="999,-128.5 875,-128.5 875,-98 999,-98 999,-128.5"/>
<text text-anchor="start" x="883" y="-115" font-family="Helvetica,sans-Serif" font-size="10.00">yaclib::detail::SharedCore</text>
<text text-anchor="middle" x="937" y="-103.75" font-family="Helvetica,sans-Serif" font-size="10.00">&lt; V, E &gt;</text>
</a>
</g>
</g>
<!-- Node18&#45;&gt;Node19 -->
<g id="edge20_Node000018_Node000019" class="edge">
<title>Node18&#45;&gt;Node19</title>
<g id="a_edge20_Node000018_Node000019"><a xlink:title=" ">
<path fill="none" stroke="#63b8ff" d="M842.38,-99.03C853.17,-100.67 864.21,-102.35 874.76,-103.95"/>
<polygon fill="#63b8ff" stroke="#63b8ff" points="843.18,-95.61 832.77,-97.57 842.13,-102.54 843.18,-95.61"/>
</a>
</g>
</g>
<!-- Node20 -->
<g id="Node000020" class="node">
<title>Node20</title>
<g id="a_Node000020"><a xlink:href="classyaclib_1_1detail_1_1UniqueCore.html" target="_top" xlink:title=" ">
<polygon fill="white" stroke="#666666" points="999,-79.5 875,-79.5 875,-49 999,-49 999,-79.5"/>
<text text-anchor="start" x="883" y="-66" font-family="Helvetica,sans-Serif" font-size="10.00">yaclib::detail::UniqueCore</text>
<text text-anchor="middle" x="937" y="-54.75" font-family="Helvetica,sans-Serif" font-size="10.00">&lt; V, E &gt;</text>
</a>
</g>
</g>
<!-- Node18&#45;&gt;Node20 -->
<g id="edge21_Node000018_Node000020" class="edge">
<title>Node18&#45;&gt;Node20</title>
<g id="a_edge21_Node000018_Node000020"><a xlink:title=" ">
<path fill="none" stroke="#63b8ff" d="M842.38,-77.9C853.17,-76.33 864.21,-74.72 874.76,-73.18"/>
<polygon fill="#63b8ff" stroke="#63b8ff" points="842.16,-74.39 832.77,-79.3 843.17,-81.32 842.16,-74.39"/>
</a>
</g>
</g>
<!-- Node21 -->
<g id="Node000021" class="node">
<title>Node21</title>
<g id="a_Node000021"><a xlink:href="structyaclib_1_1detail_1_1OneCounter.html" target="_top" xlink:title=" ">
<polygon fill="white" stroke="#666666" points="1208,-139.12 1036,-139.12 1036,-97.38 1208,-97.38 1208,-139.12"/>
<text text-anchor="start" x="1044" y="-125.62" font-family="Helvetica,sans-Serif" font-size="10.00">yaclib::detail::OneCounter</text>
<text text-anchor="start" x="1044" y="-114.38" font-family="Helvetica,sans-Serif" font-size="10.00">&lt; UniqueCore&lt; V, E &gt;, PromiseType</text>
<text text-anchor="middle" x="1122" y="-103.12" font-family="Helvetica,sans-Serif" font-size="10.00">Deleter&lt; Lazy &gt; &gt;</text>
</a>
</g>
</g>
<!-- Node20&#45;&gt;Node21 -->
<g id="edge22_Node000020_Node000021" class="edge">
<title>Node20&#45;&gt;Node21</title>
<g id="a_edge22_Node000020_Node000021"><a xlink:title=" ">
<path fill="none" stroke="#63b8ff" d="M1001.76,-83.06C1016.94,-87.55 1033.25,-92.36 1048.79,-96.94"/>
<polygon fill="#63b8ff" stroke="#63b8ff" points="1002.96,-79.77 992.38,-80.3 1000.98,-86.48 1002.96,-79.77"/>
</a>
</g>
</g>
<!-- Node23 -->
<g id="Node000023" class="node">
<title>Node23</title>
<g id="a_Node000023"><a xlink:href="classyaclib_1_1detail_1_1PromiseCore.html" target="_top" xlink:title=" ">
<polygon fill="white" stroke="#666666" points="1186.62,-79.5 1057.38,-79.5 1057.38,-49 1186.62,-49 1186.62,-79.5"/>
<text text-anchor="start" x="1065.38" y="-66" font-family="Helvetica,sans-Serif" font-size="10.00">yaclib::detail::PromiseCore</text>
<text text-anchor="middle" x="1122" y="-54.75" font-family="Helvetica,sans-Serif" font-size="10.00">&lt; V, E, Func &gt;</text>
</a>
</g>
</g>
<!-- Node20&#45;&gt;Node23 -->
<g id="edge24_Node000020_Node000023" class="edge">
<title>Node20&#45;&gt;Node23</title>
<g id="a_edge24_Node000020_Node000023"><a xlink:title=" ">
<path fill="none" stroke="#63b8ff" d="M1010.91,-64.25C1026.12,-64.25 1042.04,-64.25 1056.9,-64.25"/>
<polygon fill="#63b8ff" stroke="#63b8ff" points="1010.96,-60.75 1000.96,-64.25 1010.96,-67.75 1010.96,-60.75"/>
</a>
</g>
</g>
<!-- Node24 -->
<g id="Node000024" class="node">
<title>Node24</title>
<g id="a_Node000024"><a xlink:href="classyaclib_1_1detail_1_1ReadyCore.html" target="_top" xlink:title=" ">
<polygon fill="white" stroke="#666666" points="1182.12,-30.5 1061.88,-30.5 1061.88,0 1182.12,0 1182.12,-30.5"/>
<text text-anchor="start" x="1069.88" y="-17" font-family="Helvetica,sans-Serif" font-size="10.00">yaclib::detail::ReadyCore</text>
<text text-anchor="middle" x="1122" y="-5.75" font-family="Helvetica,sans-Serif" font-size="10.00">&lt; V, E &gt;</text>
</a>
</g>
</g>
<!-- Node20&#45;&gt;Node24 -->
<g id="edge25_Node000020_Node000024" class="edge">
<title>Node20&#45;&gt;Node24</title>
<g id="a_edge25_Node000020_Node000024"><a xlink:title=" ">
<path fill="none" stroke="#63b8ff" d="M1007.7,-45.59C1025.73,-40.76 1044.96,-35.61 1062.36,-30.95"/>
<polygon fill="#63b8ff" stroke="#63b8ff" points="1006.87,-42.18 998.12,-48.15 1008.68,-48.95 1006.87,-42.18"/>
</a>
</g>
</g>
<!-- Node22 -->
<g id="Node000022" class="node">
<title>Node22</title>
<g id="a_Node000022"><a xlink:href="classyaclib_1_1detail_1_1PromiseType.html" target="_top" xlink:title=" ">
<polygon fill="white" stroke="#666666" points="1375,-133.5 1245,-133.5 1245,-103 1375,-103 1375,-133.5"/>
<text text-anchor="start" x="1253" y="-120" font-family="Helvetica,sans-Serif" font-size="10.00">yaclib::detail::PromiseType</text>
<text text-anchor="middle" x="1310" y="-108.75" font-family="Helvetica,sans-Serif" font-size="10.00">&lt; V, E, Lazy &gt;</text>
</a>
</g>
</g>
<!-- Node21&#45;&gt;Node22 -->
<g id="edge23_Node000021_Node000022" class="edge">
<title>Node21&#45;&gt;Node22</title>
<g id="a_edge23_Node000021_Node000022"><a xlink:title=" ">
<path fill="none" stroke="#63b8ff" d="M1219.86,-118.25C1228.29,-118.25 1236.67,-118.25 1244.73,-118.25"/>
<polygon fill="#63b8ff" stroke="#63b8ff" points="1219.89,-114.75 1209.89,-118.25 1219.89,-121.75 1219.89,-114.75"/>
</a>
</g>
</g>
</g>
</svg>

<g id="navigator" transform="translate(0 0)" fill="#404254">
  <rect fill="#f2f5e9" fill-opacity="0.5" stroke="#606060" stroke-width=".5" x="0" y="0" width="60" height="60"/>
  <use id="zoomplus" xlink:href="#zoomPlus" x="17" y="9" onmousedown="handleZoom(evt,'in')"/>
  <use id="zoomminus" xlink:href="#zoomMin" x="42" y="9" onmousedown="handleZoom(evt,'out')"/>
  <use id="reset" xlink:href="#resetDef" x="30" y="36" onmousedown="handleReset()"/>
   <use id="arrowup" xlink:href="#arrowUp" x="0" y="0" onmousedown="handlePan(0,-1)"/>
  <use id="arrowright" xlink:href="#arrowRight" x="0" y="0" onmousedown="handlePan(1,0)"/>
  <use id="arrowdown" xlink:href="#arrowDown" x="0" y="0" onmousedown="handlePan(0,1)"/>
  <use id="arrowleft" xlink:href="#arrowLeft" x="0" y="0" onmousedown="handlePan(-1,0)"/>
</g>
<svg viewBox="0 0 15 15" width="100%" height="30px" preserveAspectRatio="xMaxYMin meet">
 <g id="arrow_out" transform="scale(0.3 0.3)">
  <a xlink:href="classyaclib_1_1Job__inherit__graph_org.svg" target="_base">
   <rect id="button" ry="5" rx="5" y="6" x="6" height="38" width="38"
        fill="#f2f5e9" fill-opacity="0.5" stroke="#606060" stroke-width="1.0"/>
   <path id="arrow"
     d="M 11.500037,31.436501 C 11.940474,20.09759 22.043105,11.32322 32.158766,21.979434 L 37.068811,17.246167 C 37.068811,17.246167 37.088388,32 37.088388,32 L 22.160133,31.978069 C 22.160133,31.978069 26.997745,27.140456 26.997745,27.140456 C 18.528582,18.264221 13.291696,25.230495 11.500037,31.436501 z"
     style="fill:#404040;"/>
  </a>
 </g>
</svg>

<style type='text/css'>
<![CDATA[
[data-mouse-over-selected='false'] { opacity: 0.7; }
[data-mouse-over-selected='true']  { opacity: 1.0; }
]]>
</style>
<script type="application/ecmascript"><![CDATA[
document.addEventListener('DOMContentLoaded', (event) => {
  highlightEdges();
  highlightAdjacentNodes();
});
]]></script>
</svg>
