<?xml version="1.0" encoding="UTF-8" standalone="no"?>
<!DOCTYPE svg PUBLIC "-//W3C//DTD SVG 1.1//EN"
 "http://www.w3.org/Graphics/SVG/1.1/DTD/svg11.dtd">
<!-- Generated by graphviz version 3.0.0 (20220413.0242)
 -->
<!-- Title: yaclib::detail::RecursiveTimedMutex&lt; Impl &gt; Pages: 1 -->
<svg width="135pt" height="229pt"
 viewBox="0.00 0.00 135.00 229.00" xmlns="http://www.w3.org/2000/svg" xmlns:xlink="http://www.w3.org/1999/xlink">
<g id="graph0" class="graph" transform="scale(1 1) rotate(0) translate(4 225)">
<title>yaclib::detail::RecursiveTimedMutex&lt; Impl &gt;</title>
<!-- Node1 -->
<g id="node1" class="node">
<title>Node1</title>
<g id="a_node1"><a xlink:title=" ">
<polygon fill="#bfbfbf" stroke="black" points="5,-0.5 5,-30.5 122,-30.5 122,-0.5 5,-0.5"/>
<text text-anchor="start" x="13" y="-18.5" font-family="Helvetica,sans-Serif" font-size="10.00">yaclib::detail::Recursive</text>
<text text-anchor="middle" x="63.5" y="-7.5" font-family="Helvetica,sans-Serif" font-size="10.00">TimedMutex&lt; Impl &gt;</text>
</a>
</g>
</g>
<!-- Node2 -->
<g id="node2" class="node">
<title>Node2</title>
<g id="a_node2"><a xlink:href="classyaclib_1_1detail_1_1TimedMutex.html" target="_top" xlink:title=" ">
<polygon fill="none" stroke="black" points="0,-67.5 0,-97.5 127,-97.5 127,-67.5 0,-67.5"/>
<text text-anchor="start" x="8" y="-85.5" font-family="Helvetica,sans-Serif" font-size="10.00">yaclib::detail::TimedMutex</text>
<text text-anchor="middle" x="63.5" y="-74.5" font-family="Helvetica,sans-Serif" font-size="10.00">&lt; Impl &gt;</text>
</a>
</g>
</g>
<!-- Node2&#45;&gt;Node1 -->
<g id="edge1" class="edge">
<title>Node2&#45;&gt;Node1</title>
<path fill="none" stroke="midnightblue" d="M63.5,-57.11C63.5,-48.15 63.5,-38.32 63.5,-30.58"/>
<polygon fill="midnightblue" stroke="midnightblue" points="60,-57.4 63.5,-67.4 67,-57.4 60,-57.4"/>
</g>
<!-- Node3 -->
<g id="node3" class="node">
<title>Node3</title>
<g id="a_node3"><a xlink:href="classyaclib_1_1detail_1_1Mutex.html" target="_top" xlink:title=" ">
<polygon fill="none" stroke="black" points="13.5,-134.5 13.5,-164.5 113.5,-164.5 113.5,-134.5 13.5,-134.5"/>
<text text-anchor="start" x="21.5" y="-152.5" font-family="Helvetica,sans-Serif" font-size="10.00">yaclib::detail::Mutex</text>
<text text-anchor="middle" x="63.5" y="-141.5" font-family="Helvetica,sans-Serif" font-size="10.00">&lt; Impl &gt;</text>
</a>
</g>
</g>
<!-- Node3&#45;&gt;Node2 -->
<g id="edge2" class="edge">
<title>Node3&#45;&gt;Node2</title>
<path fill="none" stroke="midnightblue" d="M63.5,-124.11C63.5,-115.15 63.5,-105.32 63.5,-97.58"/>
<polygon fill="midnightblue" stroke="midnightblue" points="60,-124.4 63.5,-134.4 67,-124.4 60,-124.4"/>
</g>
<!-- Node4 -->
<g id="node4" class="node">
<title>Node4</title>
<g id="a_node4"><a xlink:title=" ">
<polygon fill="none" stroke="black" points="46,-201.5 46,-220.5 81,-220.5 81,-201.5 46,-201.5"/>
<text text-anchor="middle" x="63.5" y="-208.5" font-family="Helvetica,sans-Serif" font-size="10.00">Impl</text>
</a>
</g>
</g>
<!-- Node4&#45;&gt;Node3 -->
<g id="edge3" class="edge">
<title>Node4&#45;&gt;Node3</title>
<path fill="none" stroke="darkgreen" d="M63.5,-191.23C63.5,-182.59 63.5,-172.5 63.5,-164.52"/>
<polygon fill="darkgreen" stroke="darkgreen" points="60,-191.48 63.5,-201.48 67,-191.48 60,-191.48"/>
</g>
</g>
</svg>
