<?xml version="1.0" encoding="UTF-8" standalone="no"?>
<!DOCTYPE svg PUBLIC "-//W3C//DTD SVG 1.1//EN"
 "http://www.w3.org/Graphics/SVG/1.1/DTD/svg11.dtd">
<!-- Generated by graphviz version 9.0.0 (20230911.1827)
 -->
<!-- Title: yaclib::detail::fiber::AtomicFlag Pages: 1 -->
<svg width="327pt" height="250pt"
 viewBox="0.00 0.00 327.00 250.25" xmlns="http://www.w3.org/2000/svg" xmlns:xlink="http://www.w3.org/1999/xlink">

<svg id="main" version="1.1" xmlns="http://www.w3.org/2000/svg" xmlns:xlink="http://www.w3.org/1999/xlink" xml:space="preserve" onload="init(evt)">
<style type="text/css"><![CDATA[
.node, .edge {opacity: 0.7;}
.node.selected, .edge.selected {opacity: 1;}
.edge:hover path { stroke: red; }
.edge:hover polygon { stroke: red; fill: red; }
]]></style>
<script type="application/ecmascript" xlink:href="svg.min.js"/>
<svg id="graph" class="graph">
<g id="graph0" class="graph" transform="scale(1 1) rotate(0) translate(4 246.25)">
<title>yaclib::detail::fiber::AtomicFlag</title>
<!-- Node1 -->
<g id="Node000001" class="node">
<title>Node1</title>
<g id="a_Node000001"><a xlink:title=" ">
<polygon fill="#999999" stroke="#666666" points="202.75,-30.5 111.75,-30.5 111.75,0 202.75,0 202.75,-30.5"/>
<text text-anchor="start" x="119.75" y="-17" font-family="Helvetica,sans-Serif" font-size="10.00">yaclib::detail::fiber</text>
<text text-anchor="middle" x="157.25" y="-5.75" font-family="Helvetica,sans-Serif" font-size="10.00">::AtomicFlag</text>
</a>
</g>
</g>
<!-- Node2 -->
<g id="Node000002" class="node">
<title>Node2</title>
<g id="a_Node000002"><a xlink:href="classyaclib_1_1detail_1_1fiber_1_1AtomicWait.html" target="_top" xlink:title=" ">
<polygon fill="white" stroke="#666666" points="209.88,-98 104.62,-98 104.62,-67.5 209.88,-67.5 209.88,-98"/>
<text text-anchor="start" x="112.62" y="-84.5" font-family="Helvetica,sans-Serif" font-size="10.00">yaclib::detail::fiber</text>
<text text-anchor="middle" x="157.25" y="-73.25" font-family="Helvetica,sans-Serif" font-size="10.00">::AtomicWait&lt; bool &gt;</text>
</a>
</g>
</g>
<!-- Node2&#45;&gt;Node1 -->
<g id="edge1_Node000001_Node000002" class="edge">
<title>Node2&#45;&gt;Node1</title>
<g id="a_edge1_Node000001_Node000002"><a xlink:title=" ">
<path fill="none" stroke="#63b8ff" d="M157.25,-55.84C157.25,-47.3 157.25,-38.12 157.25,-30.75"/>
<polygon fill="#63b8ff" stroke="#63b8ff" points="153.75,-55.7 157.25,-65.7 160.75,-55.7 153.75,-55.7"/>
</a>
</g>
</g>
<!-- Node3 -->
<g id="Node000003" class="node">
<title>Node3</title>
<g id="a_Node000003"><a xlink:href="classstatic_01constexpr_01bool.html" target="_top" xlink:title=" ">
<polygon fill="white" stroke="#666666" points="104.5,-170.12 0,-170.12 0,-150.88 104.5,-150.88 104.5,-170.12"/>
<text text-anchor="middle" x="52.25" y="-156.62" font-family="Helvetica,sans-Serif" font-size="10.00">static constexpr bool</text>
</a>
</g>
</g>
<!-- Node3&#45;&gt;Node2 -->
<g id="edge2_Node000002_Node000003" class="edge">
<title>Node3&#45;&gt;Node2</title>
<g id="a_edge2_Node000002_Node000003"><a xlink:title=" ">
<path fill="none" stroke="#9a32cd" stroke-dasharray="5,2" d="M47.93,-139.14C47.4,-131.21 48.35,-122.49 53.25,-116 65.26,-100.08 85.04,-91.81 104.14,-87.58"/>
<polygon fill="#9a32cd" stroke="#9a32cd" points="44.47,-139.65 49.43,-149.02 51.39,-138.61 44.47,-139.65"/>
</a>
</g>
<text text-anchor="middle" x="98.25" y="-117.75" font-family="Helvetica,sans-Serif" font-size="10.00" fill="grey"> is_always_lock_free</text>
</g>
<!-- Node4 -->
<g id="Node000004" class="node">
<title>Node4</title>
<g id="a_Node000004"><a xlink:href="classbool.html" target="_top" xlink:title=" ">
<polygon fill="white" stroke="#666666" points="190.25,-242.25 156.25,-242.25 156.25,-223 190.25,-223 190.25,-242.25"/>
<text text-anchor="middle" x="173.25" y="-228.75" font-family="Helvetica,sans-Serif" font-size="10.00">bool</text>
</a>
</g>
</g>
<!-- Node4&#45;&gt;Node2 -->
<g id="edge3_Node000002_Node000004" class="edge">
<title>Node4&#45;&gt;Node2</title>
<g id="a_edge3_Node000002_Node000004"><a xlink:title=" ">
<path fill="none" stroke="#9a32cd" stroke-dasharray="5,2" d="M170.17,-211.18C168.64,-200.62 166.84,-187.51 165.5,-175.75 162.39,-148.5 159.75,-116.61 158.35,-98.43"/>
<polygon fill="#9a32cd" stroke="#9a32cd" points="166.71,-211.67 171.63,-221.05 173.63,-210.64 166.71,-211.67"/>
</a>
</g>
<text text-anchor="middle" x="181.62" y="-156.62" font-family="Helvetica,sans-Serif" font-size="10.00" fill="grey"> _value</text>
</g>
<!-- Node5 -->
<g id="Node000005" class="node">
<title>Node5</title>
<g id="a_Node000005"><a xlink:href="classyaclib_1_1detail_1_1fiber_1_1AtomicWait.html" target="_top" xlink:title=" ">
<polygon fill="white" stroke="#666666" points="298.88,-175.75 205.62,-175.75 205.62,-145.25 298.88,-145.25 298.88,-175.75"/>
<text text-anchor="start" x="213.62" y="-162.25" font-family="Helvetica,sans-Serif" font-size="10.00">yaclib::detail::fiber</text>
<text text-anchor="middle" x="252.25" y="-151" font-family="Helvetica,sans-Serif" font-size="10.00">::AtomicWait&lt; T &gt;</text>
</a>
</g>
</g>
<!-- Node4&#45;&gt;Node5 -->
<g id="edge5_Node000005_Node000004" class="edge">
<title>Node4&#45;&gt;Node5</title>
<g id="a_edge5_Node000005_Node000004"><a xlink:title=" ">
<path fill="none" stroke="#9a32cd" stroke-dasharray="5,2" d="M177.61,-211.42C179.72,-205.2 182.8,-198.71 187.25,-193.75 193.73,-186.54 202.2,-180.74 210.86,-176.17"/>
<polygon fill="#9a32cd" stroke="#9a32cd" points="174.23,-210.5 175.03,-221.06 181,-212.31 174.23,-210.5"/>
</a>
</g>
<text text-anchor="middle" x="232.25" y="-195.5" font-family="Helvetica,sans-Serif" font-size="10.00" fill="grey"> is_always_lock_free</text>
</g>
<!-- Node5&#45;&gt;Node2 -->
<g id="edge4_Node000002_Node000005" class="edge">
<title>Node5&#45;&gt;Node2</title>
<g id="a_edge4_Node000002_Node000005"><a xlink:title=" ">
<path fill="none" stroke="orange" stroke-dasharray="5,2" d="M225.08,-137.84C209.19,-125.17 189.56,-109.51 175.51,-98.31"/>
<polygon fill="orange" stroke="orange" points="222.75,-140.45 232.75,-143.95 227.11,-134.98 222.75,-140.45"/>
</a>
</g>
<text text-anchor="middle" x="229.62" y="-117.75" font-family="Helvetica,sans-Serif" font-size="10.00" fill="grey"> &lt; bool &gt;</text>
</g>
<!-- Node6 -->
<g id="Node000006" class="node">
<title>Node6</title>
<g id="a_Node000006"><a xlink:title=" ">
<polygon fill="white" stroke="#666666" points="317.65,-242.25 288.85,-242.25 288.85,-223 317.65,-223 317.65,-242.25"/>
<text text-anchor="middle" x="303.25" y="-228.75" font-family="Helvetica,sans-Serif" font-size="10.00">T</text>
</a>
</g>
</g>
<!-- Node6&#45;&gt;Node5 -->
<g id="edge6_Node000005_Node000006" class="edge">
<title>Node6&#45;&gt;Node5</title>
<g id="a_edge6_Node000005_Node000006"><a xlink:title=" ">
<path fill="none" stroke="#9a32cd" stroke-dasharray="5,2" d="M293.4,-212.92C289.83,-206.65 285.61,-199.74 281.25,-193.75 276.82,-187.66 271.42,-181.41 266.49,-176.05"/>
<polygon fill="#9a32cd" stroke="#9a32cd" points="290.08,-214.15 297.95,-221.25 296.23,-210.8 290.08,-214.15"/>
</a>
</g>
<text text-anchor="middle" x="303.62" y="-195.5" font-family="Helvetica,sans-Serif" font-size="10.00" fill="grey"> _value</text>
</g>
</g>
</svg>
</svg>

<style type='text/css'>
<![CDATA[
[data-mouse-over-selected='false'] { opacity: 0.7; }
[data-mouse-over-selected='true']  { opacity: 1.0; }
]]>
</style>
<script type="application/ecmascript"><![CDATA[
document.addEventListener('DOMContentLoaded', (event) => {
  highlightEdges();
  highlightAdjacentNodes();
});
]]></script>
</svg>
