<?xml version="1.0" encoding="UTF-8" standalone="no"?>
<!DOCTYPE svg PUBLIC "-//W3C//DTD SVG 1.1//EN"
 "http://www.w3.org/Graphics/SVG/1.1/DTD/svg11.dtd">
<!-- Generated by graphviz version 3.0.0 (20220413.0242)
 -->
<!-- Title: yaclib::detail::PromiseType&lt; void, E &gt; Pages: 1 -->
<!--zoomable 295 -->
<svg id="main" version="1.1" xmlns="http://www.w3.org/2000/svg" xmlns:xlink="http://www.w3.org/1999/xlink" xml:space="preserve" onload="init(evt)">
<style type="text/css"><![CDATA[
.edge:hover path { stroke: red; }
.edge:hover polygon { stroke: red; fill: red; }
]]></style>
<script type="text/javascript"><![CDATA[
var edges = document.getElementsByTagName('g');
if (edges && edges.length) {
  for (var i=0;i<edges.length;i++) {
    if (edges[i].id.substr(0,4)=='edge') {
      edges[i].setAttribute('class','edge');
    }
  }
}
]]></script>
        <defs>
                <circle id="rim" cx="0" cy="0" r="7"/>
                <circle id="rim2" cx="0" cy="0" r="3.5"/>
                <g id="zoomPlus">
                        <use xlink:href="#rim" fill="#404040">
                                <set attributeName="fill" to="#808080" begin="zoomplus.mouseover" end="zoomplus.mouseout"/>
                        </use>
                        <path d="M-4,0h8M0,-4v8" fill="none" stroke="white" stroke-width="1.5" pointer-events="none"/>
                </g>
                <g id="zoomMin">
                        <use xlink:href="#rim" fill="#404040">
                                <set attributeName="fill" to="#808080" begin="zoomminus.mouseover" end="zoomminus.mouseout"/>
                        </use>
                        <path d="M-4,0h8" fill="none" stroke="white" stroke-width="1.5" pointer-events="none"/>
                </g>
                <g id="dirArrow">
                        <path fill="none" stroke="white" stroke-width="1.5" d="M0,-3.0v7 M-2.5,-0.5L0,-3.0L2.5,-0.5"/>
                </g>
               <g id="resetDef">
                       <use xlink:href="#rim2" fill="#404040">
                               <set attributeName="fill" to="#808080" begin="reset.mouseover" end="reset.mouseout"/>
                       </use>
               </g>
        </defs>

<script type="text/javascript">
var viewWidth = 1907;
var viewHeight = 295;
var sectionId = 'dynsection-1';
</script>
<script xlink:href="svgpan.js"/>
<svg id="graph" class="graph">
<g id="viewport">
<title>yaclib::detail::PromiseType&lt; void, E &gt;</title>
<!-- Node1 -->
<g id="node1" class="node">
<title>Node1</title>
<g id="a_node1"><a xlink:title=" ">
<polygon fill="#bfbfbf" stroke="black" points="1768,-227 1768,-257 1899,-257 1899,-227 1768,-227"/>
<text text-anchor="start" x="1776" y="-245" font-family="Helvetica,sans-Serif" font-size="10.00">yaclib::detail::PromiseType</text>
<text text-anchor="middle" x="1833.5" y="-234" font-family="Helvetica,sans-Serif" font-size="10.00">&lt; void, E &gt;</text>
</a>
</g>
</g>
<!-- Node2 -->
<g id="node2" class="node">
<title>Node2</title>
<g id="a_node2"><a xlink:href="classyaclib_1_1detail_1_1BasePromiseType.html" target="_top" xlink:title=" ">
<polygon fill="none" stroke="black" points="1599,-227 1599,-257 1731,-257 1731,-227 1599,-227"/>
<text text-anchor="start" x="1607" y="-245" font-family="Helvetica,sans-Serif" font-size="10.00">yaclib::detail::BasePromise</text>
<text text-anchor="middle" x="1665" y="-234" font-family="Helvetica,sans-Serif" font-size="10.00">Type&lt; void, E &gt;</text>
</a>
</g>
</g>
<!-- Node2&#45;&gt;Node1 -->
<g id="edge1" class="edge">
<title>Node2&#45;&gt;Node1</title>
<path fill="none" stroke="midnightblue" d="M1741.57,-242C1750.37,-242 1759.28,-242 1767.91,-242"/>
<polygon fill="midnightblue" stroke="midnightblue" points="1741.33,-238.5 1731.33,-242 1741.33,-245.5 1741.33,-238.5"/>
</g>
<!-- Node3 -->
<g id="node3" class="node">
<title>Node3</title>
<g id="a_node3"><a xlink:href="structyaclib_1_1detail_1_1UniqueCounter.html" target="_top" xlink:title=" ">
<polygon fill="none" stroke="black" points="1376,-245.5 1376,-286.5 1514,-286.5 1514,-245.5 1376,-245.5"/>
<text text-anchor="start" x="1384" y="-274.5" font-family="Helvetica,sans-Serif" font-size="10.00">yaclib::detail::UniqueCounter</text>
<text text-anchor="start" x="1384" y="-263.5" font-family="Helvetica,sans-Serif" font-size="10.00">&lt; ResultCore&lt; void, E &gt;,</text>
<text text-anchor="middle" x="1445" y="-252.5" font-family="Helvetica,sans-Serif" font-size="10.00"> PromiseTypeDeleter &gt;</text>
</a>
</g>
</g>
<!-- Node3&#45;&gt;Node2 -->
<g id="edge2" class="edge">
<title>Node3&#45;&gt;Node2</title>
<path fill="none" stroke="midnightblue" d="M1524.04,-257.41C1548.49,-254.72 1575.2,-251.78 1598.67,-249.19"/>
<polygon fill="midnightblue" stroke="midnightblue" points="1523.64,-253.93 1514.08,-258.5 1524.4,-260.89 1523.64,-253.93"/>
</g>
<!-- Node4 -->
<g id="node4" class="node">
<title>Node4</title>
<g id="a_node4"><a xlink:href="classyaclib_1_1detail_1_1ResultCore.html" target="_top" xlink:title=" ">
<polygon fill="none" stroke="black" points="1193,-138 1193,-168 1315,-168 1315,-138 1193,-138"/>
<text text-anchor="start" x="1201" y="-156" font-family="Helvetica,sans-Serif" font-size="10.00">yaclib::detail::ResultCore</text>
<text text-anchor="middle" x="1254" y="-145" font-family="Helvetica,sans-Serif" font-size="10.00">&lt; void, E &gt;</text>
</a>
</g>
</g>
<!-- Node4&#45;&gt;Node3 -->
<g id="edge3" class="edge">
<title>Node4&#45;&gt;Node3</title>
<path fill="none" stroke="midnightblue" d="M1323.7,-172.4C1329.12,-175.2 1334.3,-178.39 1339,-182 1362.35,-199.96 1353.29,-218.23 1376,-237 1379.76,-240.11 1383.9,-242.93 1388.23,-245.49"/>
<polygon fill="midnightblue" stroke="midnightblue" points="1324.96,-169.12 1314.42,-168.04 1321.98,-175.46 1324.96,-169.12"/>
</g>
<!-- Node5 -->
<g id="node5" class="node">
<title>Node5</title>
<g id="a_node5"><a xlink:href="classyaclib_1_1detail_1_1BaseCore.html" target="_top" xlink:title=" ">
<polygon fill="none" stroke="black" points="614,-72.5 614,-91.5 730,-91.5 730,-72.5 614,-72.5"/>
<text text-anchor="middle" x="672" y="-79.5" font-family="Helvetica,sans-Serif" font-size="10.00">yaclib::detail::BaseCore</text>
</a>
</g>
</g>
<!-- Node5&#45;&gt;Node4 -->
<g id="edge4" class="edge">
<title>Node5&#45;&gt;Node4</title>
<path fill="none" stroke="midnightblue" d="M740.14,-73.02C834.71,-62.97 1011.22,-53.81 1151,-102 1178.14,-111.36 1207.26,-126.48 1227.41,-137.83"/>
<polygon fill="midnightblue" stroke="midnightblue" points="739.69,-69.55 730.13,-74.12 740.45,-76.51 739.69,-69.55"/>
</g>
<!-- Node16 -->
<g id="node16" class="node">
<title>Node16</title>
<g id="a_node16"><a xlink:href="classyaclib_1_1detail_1_1ResultCore.html" target="_top" xlink:title=" ">
<polygon fill="none" stroke="black" points="893,-135 893,-165 1015,-165 1015,-135 893,-135"/>
<text text-anchor="start" x="901" y="-153" font-family="Helvetica,sans-Serif" font-size="10.00">yaclib::detail::ResultCore</text>
<text text-anchor="middle" x="954" y="-142" font-family="Helvetica,sans-Serif" font-size="10.00">&lt; V, E &gt;</text>
</a>
</g>
</g>
<!-- Node5&#45;&gt;Node16 -->
<g id="edge18" class="edge">
<title>Node5&#45;&gt;Node16</title>
<path fill="none" stroke="midnightblue" d="M740.62,-93.42C778.12,-100.29 825.45,-109.86 867,-121 881.76,-124.96 897.69,-130.08 911.77,-134.91"/>
<polygon fill="midnightblue" stroke="midnightblue" points="740.78,-89.89 730.32,-91.55 739.53,-96.78 740.78,-89.89"/>
</g>
<!-- Node22 -->
<g id="node22" class="node">
<title>Node22</title>
<g id="a_node22"><a xlink:href="classyaclib_1_1detail_1_1ResultCore.html" target="_top" xlink:title=" ">
<polygon fill="none" stroke="black" points="893,-86 893,-116 1015,-116 1015,-86 893,-86"/>
<text text-anchor="start" x="901" y="-104" font-family="Helvetica,sans-Serif" font-size="10.00">yaclib::detail::ResultCore</text>
<text text-anchor="middle" x="954" y="-93" font-family="Helvetica,sans-Serif" font-size="10.00">&lt; V, E &gt;</text>
</a>
</g>
</g>
<!-- Node5&#45;&gt;Node22 -->
<g id="edge26" class="edge">
<title>Node5&#45;&gt;Node22</title>
<path fill="none" stroke="midnightblue" d="M740.61,-86.59C787.03,-89.74 848.1,-93.88 892.84,-96.92"/>
<polygon fill="midnightblue" stroke="midnightblue" points="740.55,-83.08 730.34,-85.89 740.08,-90.06 740.55,-83.08"/>
</g>
<!-- Node6 -->
<g id="node6" class="node">
<title>Node6</title>
<g id="a_node6"><a xlink:href="classyaclib_1_1detail_1_1InlineCore.html" target="_top" xlink:title=" ">
<polygon fill="none" stroke="black" points="408.5,-76.5 408.5,-95.5 525.5,-95.5 525.5,-76.5 408.5,-76.5"/>
<text text-anchor="middle" x="467" y="-83.5" font-family="Helvetica,sans-Serif" font-size="10.00">yaclib::detail::InlineCore</text>
</a>
</g>
</g>
<!-- Node6&#45;&gt;Node5 -->
<g id="edge5" class="edge">
<title>Node6&#45;&gt;Node5</title>
<path fill="none" stroke="midnightblue" d="M535.9,-84.66C561.22,-84.16 589.68,-83.6 613.93,-83.12"/>
<polygon fill="midnightblue" stroke="midnightblue" points="535.56,-81.17 525.63,-84.86 535.7,-88.17 535.56,-81.17"/>
</g>
<!-- Node7 -->
<g id="node7" class="node">
<title>Node7</title>
<g id="a_node7"><a xlink:href="classyaclib_1_1Job.html" target="_top" xlink:title="Callable that can be executed in an IExecutor.">
<polygon fill="none" stroke="black" points="235,-76.5 235,-95.5 297,-95.5 297,-76.5 235,-76.5"/>
<text text-anchor="middle" x="266" y="-83.5" font-family="Helvetica,sans-Serif" font-size="10.00">yaclib::Job</text>
</a>
</g>
</g>
<!-- Node7&#45;&gt;Node6 -->
<g id="edge6" class="edge">
<title>Node7&#45;&gt;Node6</title>
<path fill="none" stroke="midnightblue" d="M307.4,-86C336.39,-86 375.88,-86 408.2,-86"/>
<polygon fill="midnightblue" stroke="midnightblue" points="307.22,-82.5 297.22,-86 307.22,-89.5 307.22,-82.5"/>
</g>
<!-- Node8 -->
<g id="node8" class="node">
<title>Node8</title>
<g id="a_node8"><a xlink:href="classyaclib_1_1IFunc.html" target="_top" xlink:title="Callable interface.">
<polygon fill="none" stroke="black" points="114,-84.5 114,-103.5 185,-103.5 185,-84.5 114,-84.5"/>
<text text-anchor="middle" x="149.5" y="-91.5" font-family="Helvetica,sans-Serif" font-size="10.00">yaclib::IFunc</text>
</a>
</g>
</g>
<!-- Node8&#45;&gt;Node7 -->
<g id="edge7" class="edge">
<title>Node8&#45;&gt;Node7</title>
<path fill="none" stroke="midnightblue" d="M195.47,-90.86C208.63,-89.94 222.7,-88.96 234.72,-88.12"/>
<polygon fill="midnightblue" stroke="midnightblue" points="194.9,-87.39 185.16,-91.58 195.38,-94.37 194.9,-87.39"/>
</g>
<!-- Node9 -->
<g id="node9" class="node">
<title>Node9</title>
<g id="a_node9"><a xlink:href="classyaclib_1_1IRef.html" target="_top" xlink:title="Reference counting interface.">
<polygon fill="none" stroke="black" points="0,-103.5 0,-122.5 64,-122.5 64,-103.5 0,-103.5"/>
<text text-anchor="middle" x="32" y="-110.5" font-family="Helvetica,sans-Serif" font-size="10.00">yaclib::IRef</text>
</a>
</g>
</g>
<!-- Node9&#45;&gt;Node5 -->
<g id="edge13" class="edge">
<title>Node9&#45;&gt;Node5</title>
<path fill="none" stroke="#9a32cd" stroke-dasharray="5,2" d="M74.11,-123.1C96.05,-127.64 123.59,-132 148.5,-132 148.5,-132 148.5,-132 468,-132 534.97,-132 610.85,-106.03 648.01,-91.52"/>
<polygon fill="#9a32cd" stroke="#9a32cd" points="74.66,-119.64 64.15,-120.95 73.18,-126.48 74.66,-119.64"/>
<text text-anchor="middle" x="266" y="-135" font-family="Helvetica,sans-Serif" font-size="10.00"> _caller</text>
</g>
<!-- Node9&#45;&gt;Node8 -->
<g id="edge8" class="edge">
<title>Node9&#45;&gt;Node8</title>
<path fill="none" stroke="midnightblue" d="M74.35,-106.2C87.33,-104.06 101.51,-101.73 113.97,-99.68"/>
<polygon fill="midnightblue" stroke="midnightblue" points="73.56,-102.78 64.26,-107.86 74.69,-109.69 73.56,-102.78"/>
</g>
<!-- Node10 -->
<g id="node10" class="node">
<title>Node10</title>
<g id="a_node10"><a xlink:href="structyaclib_1_1detail_1_1Node.html" target="_top" xlink:title="Node class, used in intrusive data structure.">
<polygon fill="none" stroke="black" points="101,-17.5 101,-36.5 198,-36.5 198,-17.5 101,-17.5"/>
<text text-anchor="middle" x="149.5" y="-24.5" font-family="Helvetica,sans-Serif" font-size="10.00">yaclib::detail::Node</text>
</a>
</g>
</g>
<!-- Node10&#45;&gt;Node7 -->
<g id="edge9" class="edge">
<title>Node10&#45;&gt;Node7</title>
<path fill="none" stroke="midnightblue" d="M178.28,-41.31C199.41,-52.2 227.9,-66.88 246.36,-76.39"/>
<polygon fill="midnightblue" stroke="midnightblue" points="179.64,-38.08 169.15,-36.61 176.44,-44.3 179.64,-38.08"/>
</g>
<!-- Node10&#45;&gt;Node10 -->
<g id="edge10" class="edge">
<title>Node10&#45;&gt;Node10</title>
<path fill="none" stroke="#9a32cd" stroke-dasharray="5,2" d="M137.35,-46.77C138.3,-51.5 142.35,-55 149.5,-55 161.23,-55 164.62,-45.57 159.67,-36.76"/>
<polygon fill="#9a32cd" stroke="#9a32cd" points="140.82,-47.25 139.33,-36.76 133.95,-45.89 140.82,-47.25"/>
<text text-anchor="middle" x="149.5" y="-58" font-family="Helvetica,sans-Serif" font-size="10.00"> next</text>
</g>
<!-- Node11 -->
<g id="node11" class="node">
<title>Node11</title>
<g id="a_node11"><a xlink:title=" ">
<polygon fill="none" stroke="black" points="409.5,-38.5 409.5,-57.5 524.5,-57.5 524.5,-38.5 409.5,-38.5"/>
<text text-anchor="middle" x="467" y="-45.5" font-family="Helvetica,sans-Serif" font-size="10.00">atomic&lt; std::uint64_t &gt;</text>
</a>
</g>
</g>
<!-- Node11&#45;&gt;Node5 -->
<g id="edge11" class="edge">
<title>Node11&#45;&gt;Node5</title>
<path fill="none" stroke="#9a32cd" stroke-dasharray="5,2" d="M534.84,-58.85C554.54,-62.08 576.15,-65.65 596,-69 602.65,-70.12 609.62,-71.31 616.53,-72.5"/>
<polygon fill="#9a32cd" stroke="#9a32cd" points="535.16,-55.36 524.73,-57.19 534.03,-62.26 535.16,-55.36"/>
<text text-anchor="middle" x="571.5" y="-72" font-family="Helvetica,sans-Serif" font-size="10.00"> _callback</text>
</g>
<!-- Node12 -->
<g id="node12" class="node">
<title>Node12</title>
<g id="a_node12"><a xlink:title=" ">
<polygon fill="none" stroke="black" points="243,-38.5 243,-57.5 289,-57.5 289,-38.5 243,-38.5"/>
<text text-anchor="middle" x="266" y="-45.5" font-family="Helvetica,sans-Serif" font-size="10.00">atomic</text>
</a>
</g>
</g>
<!-- Node12&#45;&gt;Node11 -->
<g id="edge12" class="edge">
<title>Node12&#45;&gt;Node11</title>
<path fill="none" stroke="orange" stroke-dasharray="5,2" d="M299.25,-48C328.88,-48 373.47,-48 409.08,-48"/>
<polygon fill="orange" stroke="orange" points="299.06,-44.5 289.06,-48 299.06,-51.5 299.06,-44.5"/>
<text text-anchor="middle" x="351" y="-51" font-family="Helvetica,sans-Serif" font-size="10.00"> &lt; std::uint64_t &gt;</text>
</g>
<!-- Node13 -->
<g id="node13" class="node">
<title>Node13</title>
<g id="a_node13"><a xlink:title=" ">
<polygon fill="none" stroke="black" points="405,-0.5 405,-19.5 529,-19.5 529,-0.5 405,-0.5"/>
<text text-anchor="middle" x="467" y="-7.5" font-family="Helvetica,sans-Serif" font-size="10.00">IntrusivePtr&lt; IExecutor &gt;</text>
</a>
</g>
</g>
<!-- Node13&#45;&gt;Node5 -->
<g id="edge14" class="edge">
<title>Node13&#45;&gt;Node5</title>
<path fill="none" stroke="#9a32cd" stroke-dasharray="5,2" d="M516.86,-22.21C540.97,-28.72 570.32,-37.36 596,-47 615.78,-54.42 637.57,-64.86 652.54,-72.4"/>
<polygon fill="#9a32cd" stroke="#9a32cd" points="517.44,-18.74 506.88,-19.56 515.64,-25.51 517.44,-18.74"/>
<text text-anchor="middle" x="571.5" y="-50" font-family="Helvetica,sans-Serif" font-size="10.00"> _executor</text>
</g>
<!-- Node14 -->
<g id="node14" class="node">
<title>Node14</title>
<g id="a_node14"><a xlink:href="classyaclib_1_1Result.html" target="_top" xlink:title=" ">
<polygon fill="none" stroke="black" points="748,-192.5 748,-211.5 867,-211.5 867,-192.5 748,-192.5"/>
<text text-anchor="middle" x="807.5" y="-199.5" font-family="Helvetica,sans-Serif" font-size="10.00">yaclib::Result&lt; void, E &gt;</text>
</a>
</g>
</g>
<!-- Node14&#45;&gt;Node4 -->
<g id="edge15" class="edge">
<title>Node14&#45;&gt;Node4</title>
<path fill="none" stroke="#9a32cd" stroke-dasharray="5,2" d="M877.35,-195.21C946.55,-188.29 1056.24,-177.02 1151,-166 1164.57,-164.42 1179.13,-162.63 1192.89,-160.88"/>
<polygon fill="#9a32cd" stroke="#9a32cd" points="876.63,-191.77 867.03,-196.24 877.32,-198.73 876.63,-191.77"/>
<text text-anchor="middle" x="954" y="-197" font-family="Helvetica,sans-Serif" font-size="10.00"> _result</text>
</g>
<!-- Node15 -->
<g id="node15" class="node">
<title>Node15</title>
<g id="a_node15"><a xlink:href="classyaclib_1_1Result.html" target="_top" xlink:title="Encapsulated return value from caller.">
<polygon fill="none" stroke="black" points="413,-174.5 413,-193.5 521,-193.5 521,-174.5 413,-174.5"/>
<text text-anchor="middle" x="467" y="-181.5" font-family="Helvetica,sans-Serif" font-size="10.00">yaclib::Result&lt; V, E &gt;</text>
</a>
</g>
</g>
<!-- Node15&#45;&gt;Node14 -->
<g id="edge16" class="edge">
<title>Node15&#45;&gt;Node14</title>
<path fill="none" stroke="orange" stroke-dasharray="5,2" d="M531.33,-187.37C593.46,-190.67 687.41,-195.67 747.87,-198.88"/>
<polygon fill="orange" stroke="orange" points="531.43,-183.87 521.26,-186.83 531.06,-190.86 531.43,-183.87"/>
<text text-anchor="middle" x="571.5" y="-193" font-family="Helvetica,sans-Serif" font-size="10.00"> &lt; void, E &gt;</text>
</g>
<!-- Node17 -->
<g id="node17" class="node">
<title>Node17</title>
<g id="a_node17"><a xlink:href="classyaclib_1_1Result.html" target="_top" xlink:title=" ">
<polygon fill="none" stroke="black" points="618,-154.5 618,-173.5 726,-173.5 726,-154.5 618,-154.5"/>
<text text-anchor="middle" x="672" y="-161.5" font-family="Helvetica,sans-Serif" font-size="10.00">yaclib::Result&lt; V, E &gt;</text>
</a>
</g>
</g>
<!-- Node15&#45;&gt;Node17 -->
<g id="edge20" class="edge">
<title>Node15&#45;&gt;Node17</title>
<path fill="none" stroke="orange" stroke-dasharray="5,2" d="M522.11,-172.64C530.41,-171.21 538.91,-169.93 547,-169 570.12,-166.35 595.8,-165.05 617.77,-164.43"/>
<polygon fill="orange" stroke="orange" points="521.34,-169.22 512.11,-174.44 522.58,-176.11 521.34,-169.22"/>
<text text-anchor="middle" x="571.5" y="-172" font-family="Helvetica,sans-Serif" font-size="10.00"> &lt; V, E &gt;</text>
</g>
<!-- Node16&#45;&gt;Node4 -->
<g id="edge17" class="edge">
<title>Node16&#45;&gt;Node4</title>
<path fill="none" stroke="orange" stroke-dasharray="5,2" d="M1025.57,-150.71C1076.47,-151.22 1144.44,-151.91 1192.78,-152.39"/>
<polygon fill="orange" stroke="orange" points="1025.34,-147.21 1015.3,-150.61 1025.27,-154.21 1025.34,-147.21"/>
<text text-anchor="middle" x="1096" y="-154" font-family="Helvetica,sans-Serif" font-size="10.00"> &lt; void, E &gt;</text>
</g>
<!-- Node17&#45;&gt;Node16 -->
<g id="edge19" class="edge">
<title>Node17&#45;&gt;Node16</title>
<path fill="none" stroke="#9a32cd" stroke-dasharray="5,2" d="M736.35,-160.83C783.15,-158.49 846.49,-155.33 892.58,-153.02"/>
<polygon fill="#9a32cd" stroke="#9a32cd" points="736.14,-157.34 726.32,-161.33 736.49,-164.33 736.14,-157.34"/>
<text text-anchor="middle" x="807.5" y="-163" font-family="Helvetica,sans-Serif" font-size="10.00"> _result</text>
</g>
<!-- Node17&#45;&gt;Node22 -->
<g id="edge27" class="edge">
<title>Node17&#45;&gt;Node22</title>
<path fill="none" stroke="#9a32cd" stroke-dasharray="5,2" d="M708.32,-151.11C720.75,-146.87 734.89,-142.38 748,-139 796.19,-126.57 851.75,-116.53 892.87,-109.9"/>
<polygon fill="#9a32cd" stroke="#9a32cd" points="707.06,-147.84 698.77,-154.43 709.36,-154.45 707.06,-147.84"/>
<text text-anchor="middle" x="807.5" y="-142" font-family="Helvetica,sans-Serif" font-size="10.00"> _result</text>
</g>
<!-- Node18 -->
<g id="node18" class="node">
<title>Node18</title>
<g id="a_node18"><a xlink:href="structyaclib_1_1detail_1_1UniqueCounter.html" target="_top" xlink:title=" ">
<polygon fill="none" stroke="black" points="885,-244 885,-274 1023,-274 1023,-244 885,-244"/>
<text text-anchor="start" x="893" y="-262" font-family="Helvetica,sans-Serif" font-size="10.00">yaclib::detail::UniqueCounter</text>
<text text-anchor="middle" x="954" y="-251" font-family="Helvetica,sans-Serif" font-size="10.00">&lt; CounterBase, Deleter &gt;</text>
</a>
</g>
</g>
<!-- Node18&#45;&gt;Node3 -->
<g id="edge21" class="edge">
<title>Node18&#45;&gt;Node3</title>
<path fill="none" stroke="orange" stroke-dasharray="5,2" d="M1033.35,-260.12C1128.08,-261.48 1285.98,-263.74 1375.88,-265.02"/>
<polygon fill="orange" stroke="orange" points="1033.3,-256.62 1023.25,-259.98 1033.2,-263.62 1033.3,-256.62"/>
<text text-anchor="start" x="1195" y="-278" font-family="Helvetica,sans-Serif" font-size="10.00"> &lt; ResultCore&lt; void,</text>
<text text-anchor="middle" x="1254" y="-267" font-family="Helvetica,sans-Serif" font-size="10.00"> E &gt;, PromiseTypeDeleter &gt;</text>
</g>
<!-- Node21 -->
<g id="node21" class="node">
<title>Node21</title>
<g id="a_node21"><a xlink:href="structyaclib_1_1detail_1_1UniqueCounter.html" target="_top" xlink:title=" ">
<polygon fill="none" stroke="black" points="1169,-191.5 1169,-232.5 1339,-232.5 1339,-191.5 1169,-191.5"/>
<text text-anchor="start" x="1177" y="-220.5" font-family="Helvetica,sans-Serif" font-size="10.00">yaclib::detail::UniqueCounter</text>
<text text-anchor="start" x="1177" y="-209.5" font-family="Helvetica,sans-Serif" font-size="10.00">&lt; ResultCore&lt; V, E &gt;, PromiseType</text>
<text text-anchor="middle" x="1254" y="-198.5" font-family="Helvetica,sans-Serif" font-size="10.00">Deleter &gt;</text>
</a>
</g>
</g>
<!-- Node18&#45;&gt;Node21 -->
<g id="edge28" class="edge">
<title>Node18&#45;&gt;Node21</title>
<path fill="none" stroke="orange" stroke-dasharray="5,2" d="M1015.86,-241.53C1024.26,-239.47 1032.81,-237.55 1041,-236 1082.85,-228.08 1129.89,-222.43 1169,-218.61"/>
<polygon fill="orange" stroke="orange" points="1014.94,-238.15 1006.1,-244 1016.65,-244.94 1014.94,-238.15"/>
<text text-anchor="start" x="1041" y="-250" font-family="Helvetica,sans-Serif" font-size="10.00"> &lt; ResultCore&lt; V, E</text>
<text text-anchor="middle" x="1096" y="-239" font-family="Helvetica,sans-Serif" font-size="10.00"> &gt;, PromiseTypeDeleter &gt;</text>
</g>
<!-- Node19 -->
<g id="node19" class="node">
<title>Node19</title>
<g id="a_node19"><a xlink:href="classCounterBase.html" target="_top" xlink:title=" ">
<polygon fill="none" stroke="black" points="635.5,-249.5 635.5,-268.5 708.5,-268.5 708.5,-249.5 635.5,-249.5"/>
<text text-anchor="middle" x="672" y="-256.5" font-family="Helvetica,sans-Serif" font-size="10.00">CounterBase</text>
</a>
</g>
</g>
<!-- Node19&#45;&gt;Node18 -->
<g id="edge22" class="edge">
<title>Node19&#45;&gt;Node18</title>
<path fill="none" stroke="midnightblue" d="M718.82,-259C763.89,-259 833.25,-259 884.8,-259"/>
<polygon fill="midnightblue" stroke="midnightblue" points="718.75,-255.5 708.75,-259 718.75,-262.5 718.75,-255.5"/>
</g>
<!-- Node20 -->
<g id="node20" class="node">
<title>Node20</title>
<g id="a_node20"><a xlink:href="classyaclib_1_1detail_1_1BasePromiseType.html" target="_top" xlink:title=" ">
<polygon fill="none" stroke="black" points="1379,-197 1379,-227 1511,-227 1511,-197 1379,-197"/>
<text text-anchor="start" x="1387" y="-215" font-family="Helvetica,sans-Serif" font-size="10.00">yaclib::detail::BasePromise</text>
<text text-anchor="middle" x="1445" y="-204" font-family="Helvetica,sans-Serif" font-size="10.00">Type&lt; V, E &gt;</text>
</a>
</g>
</g>
<!-- Node20&#45;&gt;Node2 -->
<g id="edge23" class="edge">
<title>Node20&#45;&gt;Node2</title>
<path fill="none" stroke="orange" stroke-dasharray="5,2" d="M1521.03,-222.33C1546.34,-225.81 1574.37,-229.66 1598.85,-233.03"/>
<polygon fill="orange" stroke="orange" points="1521.5,-218.86 1511.11,-220.96 1520.54,-225.79 1521.5,-218.86"/>
<text text-anchor="middle" x="1556.5" y="-233" font-family="Helvetica,sans-Serif" font-size="10.00"> &lt; void, E &gt;</text>
</g>
<!-- Node21&#45;&gt;Node20 -->
<g id="edge24" class="edge">
<title>Node21&#45;&gt;Node20</title>
<path fill="none" stroke="midnightblue" d="M1349.28,-212C1359.29,-212 1369.32,-212 1378.89,-212"/>
<polygon fill="midnightblue" stroke="midnightblue" points="1349.27,-208.5 1339.27,-212 1349.27,-215.5 1349.27,-208.5"/>
</g>
<!-- Node22&#45;&gt;Node21 -->
<g id="edge25" class="edge">
<title>Node22&#45;&gt;Node21</title>
<path fill="none" stroke="midnightblue" d="M1025.16,-103.32C1065.4,-107.8 1114.91,-119.02 1151,-146 1164.07,-155.77 1156.75,-167.22 1169,-178 1174.91,-183.2 1181.71,-187.66 1188.83,-191.48"/>
<polygon fill="midnightblue" stroke="midnightblue" points="1025.45,-99.83 1015.15,-102.32 1024.75,-106.79 1025.45,-99.83"/>
</g>
</g>
</svg>
        <g id="navigator" transform="translate(0 0)" fill="#404254">
                <rect fill="#f2f5e9" fill-opacity="0.5" stroke="#606060" stroke-width=".5" x="0" y="0" width="60" height="60"/>
                <use id="zoomplus" xlink:href="#zoomPlus" x="17" y="9" onmousedown="handleZoom(evt,'in')"/>
                <use id="zoomminus" xlink:href="#zoomMin" x="42" y="9" onmousedown="handleZoom(evt,'out')"/>
                <use id="reset" xlink:href="#resetDef" x="30" y="36" onmousedown="handleReset()"/>
                <g id="arrowUp" xlink:href="#dirArrow" transform="translate(30 24)" onmousedown="handlePan(0,-1)">
                  <use xlink:href="#rim" fill="#404040">
                        <set attributeName="fill" to="#808080" begin="arrowUp.mouseover" end="arrowUp.mouseout"/>
                  </use>
                  <path fill="none" stroke="white" stroke-width="1.5" d="M0,-3.0v7 M-2.5,-0.5L0,-3.0L2.5,-0.5"/>
                </g>
                <g id="arrowRight" xlink:href="#dirArrow" transform="rotate(90) translate(36 -43)" onmousedown="handlePan(1,0)">
                  <use xlink:href="#rim" fill="#404040">
                        <set attributeName="fill" to="#808080" begin="arrowRight.mouseover" end="arrowRight.mouseout"/>
                  </use>
                  <path fill="none" stroke="white" stroke-width="1.5" d="M0,-3.0v7 M-2.5,-0.5L0,-3.0L2.5,-0.5"/>
                </g>
                <g id="arrowDown" xlink:href="#dirArrow" transform="rotate(180) translate(-30 -48)" onmousedown="handlePan(0,1)">
                  <use xlink:href="#rim" fill="#404040">
                        <set attributeName="fill" to="#808080" begin="arrowDown.mouseover" end="arrowDown.mouseout"/>
                  </use>
                  <path fill="none" stroke="white" stroke-width="1.5" d="M0,-3.0v7 M-2.5,-0.5L0,-3.0L2.5,-0.5"/>
                </g>
                <g id="arrowLeft" xlink:href="#dirArrow" transform="rotate(270) translate(-36 17)" onmousedown="handlePan(-1,0)">
                  <use xlink:href="#rim" fill="#404040">
                        <set attributeName="fill" to="#808080" begin="arrowLeft.mouseover" end="arrowLeft.mouseout"/>
                  </use>
                  <path fill="none" stroke="white" stroke-width="1.5" d="M0,-3.0v7 M-2.5,-0.5L0,-3.0L2.5,-0.5"/>
                </g>
        </g>
        <svg viewBox="0 0 15 15" width="100%" height="30px" preserveAspectRatio="xMaxYMin meet">
         <g id="arrow_out" transform="scale(0.3 0.3)">
          <a xlink:href="classyaclib_1_1detail_1_1PromiseType_3_01void_00_01E_01_4__coll__graph_org.svg" target="_base">
           <rect id="button" ry="5" rx="5" y="6" x="6" height="38" width="38"
                fill="#f2f5e9" fill-opacity="0.5" stroke="#606060" stroke-width="1.0"/>
           <path id="arrow"
             d="M 11.500037,31.436501 C 11.940474,20.09759 22.043105,11.32322 32.158766,21.979434 L 37.068811,17.246167 C 37.068811,17.246167 37.088388,32 37.088388,32 L 22.160133,31.978069 C 22.160133,31.978069 26.997745,27.140456 26.997745,27.140456 C 18.528582,18.264221 13.291696,25.230495 11.500037,31.436501 z"
             style="fill:#404040;"/>
          </a>
         </g>
        </svg>
</svg>
