<?xml version="1.0" encoding="UTF-8" standalone="no"?>
<!DOCTYPE svg PUBLIC "-//W3C//DTD SVG 1.1//EN"
 "http://www.w3.org/Graphics/SVG/1.1/DTD/svg11.dtd">
<!-- Generated by graphviz version 9.0.0 (20230911.1827)
 -->
<!-- Title: Event Pages: 1 -->
<svg width="228pt" height="186pt"
 viewBox="0.00 0.00 228.25 185.50" xmlns="http://www.w3.org/2000/svg" xmlns:xlink="http://www.w3.org/1999/xlink">

<svg id="main" version="1.1" xmlns="http://www.w3.org/2000/svg" xmlns:xlink="http://www.w3.org/1999/xlink" xml:space="preserve" onload="init(evt)">
<style type="text/css"><![CDATA[
.node, .edge {opacity: 0.7;}
.node.selected, .edge.selected {opacity: 1;}
.edge:hover path { stroke: red; }
.edge:hover polygon { stroke: red; fill: red; }
]]></style>
<script type="application/ecmascript" xlink:href="svg.min.js"/>
<svg id="graph" class="graph">
<g id="graph0" class="graph" transform="scale(1 1) rotate(0) translate(4 181.5)">
<title>Event</title>
<!-- Node1 -->
<g id="Node000001" class="node">
<title>Node1</title>
<g id="a_Node000001"><a xlink:title=" ">
<polygon fill="#999999" stroke="#666666" points="40.75,-97.88 0,-97.88 0,-78.62 40.75,-78.62 40.75,-97.88"/>
<text text-anchor="middle" x="20.38" y="-84.38" font-family="Helvetica,sans-Serif" font-size="10.00">Event</text>
</a>
</g>
</g>
<!-- Node2 -->
<g id="Node000002" class="node">
<title>Node2</title>
<g id="a_Node000002"><a xlink:href="structyaclib_1_1detail_1_1DynamicSharedEvent.html" target="_top" xlink:title=" ">
<polygon fill="white" stroke="#666666" points="219.12,-177.5 77.88,-177.5 77.88,-147 219.12,-147 219.12,-177.5"/>
<text text-anchor="start" x="85.88" y="-164" font-family="Helvetica,sans-Serif" font-size="10.00">yaclib::detail::DynamicShared</text>
<text text-anchor="middle" x="148.5" y="-152.75" font-family="Helvetica,sans-Serif" font-size="10.00">Event&lt; Event &gt;</text>
</a>
</g>
</g>
<!-- Node1&#45;&gt;Node2 -->
<g id="edge1_Node000001_Node000002" class="edge">
<title>Node1&#45;&gt;Node2</title>
<g id="a_edge1_Node000001_Node000002"><a xlink:title=" ">
<path fill="none" stroke="#63b8ff" d="M38.04,-106.1C48.38,-116.34 62.4,-128.8 76.75,-137.25 82.7,-140.75 89.22,-143.88 95.82,-146.63"/>
<polygon fill="#63b8ff" stroke="#63b8ff" points="40.83,-103.95 31.34,-99.24 35.82,-108.84 40.83,-103.95"/>
</a>
</g>
</g>
<!-- Node3 -->
<g id="Node000003" class="node">
<title>Node3</title>
<g id="a_Node000003"><a xlink:href="classyaclib_1_1detail_1_1MultiAwaitAwaiter.html" target="_top" xlink:title=" ">
<polygon fill="white" stroke="#666666" points="207.88,-128.5 89.12,-128.5 89.12,-98 207.88,-98 207.88,-128.5"/>
<text text-anchor="start" x="97.12" y="-115" font-family="Helvetica,sans-Serif" font-size="10.00">yaclib::detail::MultiAwait</text>
<text text-anchor="middle" x="148.5" y="-103.75" font-family="Helvetica,sans-Serif" font-size="10.00">Awaiter&lt; Event &gt;</text>
</a>
</g>
</g>
<!-- Node1&#45;&gt;Node3 -->
<g id="edge2_Node000001_Node000003" class="edge">
<title>Node1&#45;&gt;Node3</title>
<g id="a_edge2_Node000001_Node000003"><a xlink:title=" ">
<path fill="none" stroke="#63b8ff" d="M52.25,-94.37C63.27,-96.55 76.09,-99.1 88.68,-101.59"/>
<polygon fill="#63b8ff" stroke="#63b8ff" points="53.06,-90.96 42.57,-92.45 51.7,-97.83 53.06,-90.96"/>
</a>
</g>
</g>
<!-- Node4 -->
<g id="Node000004" class="node">
<title>Node4</title>
<g id="a_Node000004"><a xlink:href="classyaclib_1_1detail_1_1MultiAwaitOnAwaiter.html" target="_top" xlink:title=" ">
<polygon fill="white" stroke="#666666" points="207.88,-79.5 89.12,-79.5 89.12,-49 207.88,-49 207.88,-79.5"/>
<text text-anchor="start" x="97.12" y="-66" font-family="Helvetica,sans-Serif" font-size="10.00">yaclib::detail::MultiAwait</text>
<text text-anchor="middle" x="148.5" y="-54.75" font-family="Helvetica,sans-Serif" font-size="10.00">OnAwaiter&lt; Event &gt;</text>
</a>
</g>
</g>
<!-- Node1&#45;&gt;Node4 -->
<g id="edge3_Node000001_Node000004" class="edge">
<title>Node1&#45;&gt;Node4</title>
<g id="a_edge3_Node000001_Node000004"><a xlink:title=" ">
<path fill="none" stroke="#63b8ff" d="M52.25,-82.38C63.27,-80.28 76.09,-77.84 88.68,-75.44"/>
<polygon fill="#63b8ff" stroke="#63b8ff" points="51.74,-78.91 42.57,-84.22 53.05,-85.79 51.74,-78.91"/>
</a>
</g>
</g>
<!-- Node5 -->
<g id="Node000005" class="node">
<title>Node5</title>
<g id="a_Node000005"><a xlink:href="structyaclib_1_1detail_1_1StaticSharedEvent.html" target="_top" xlink:title=" ">
<polygon fill="white" stroke="#666666" points="220.25,-30.5 76.75,-30.5 76.75,0 220.25,0 220.25,-30.5"/>
<text text-anchor="start" x="84.75" y="-17" font-family="Helvetica,sans-Serif" font-size="10.00">yaclib::detail::StaticShared</text>
<text text-anchor="middle" x="148.5" y="-5.75" font-family="Helvetica,sans-Serif" font-size="10.00">Event&lt; Event, SharedCount &gt;</text>
</a>
</g>
</g>
<!-- Node1&#45;&gt;Node5 -->
<g id="edge4_Node000001_Node000005" class="edge">
<title>Node1&#45;&gt;Node5</title>
<g id="a_edge4_Node000001_Node000005"><a xlink:title=" ">
<path fill="none" stroke="#63b8ff" d="M38.79,-70.12C49.08,-60.22 62.8,-48.37 76.75,-40.25 82.72,-36.78 89.25,-33.67 95.85,-30.93"/>
<polygon fill="#63b8ff" stroke="#63b8ff" points="36.39,-67.57 31.77,-77.11 41.33,-72.53 36.39,-67.57"/>
</a>
</g>
</g>
</g>
</svg>
</svg>

<style type='text/css'>
<![CDATA[
[data-mouse-over-selected='false'] { opacity: 0.7; }
[data-mouse-over-selected='true']  { opacity: 1.0; }
]]>
</style>
<script type="application/ecmascript"><![CDATA[
document.addEventListener('DOMContentLoaded', (event) => {
  highlightEdges();
  highlightAdjacentNodes();
});
]]></script>
</svg>
