<?xml version="1.0" encoding="UTF-8" standalone="no"?>
<!DOCTYPE svg PUBLIC "-//W3C//DTD SVG 1.1//EN"
 "http://www.w3.org/Graphics/SVG/1.1/DTD/svg11.dtd">
<!-- Generated by graphviz version 3.0.0 (20221109.1736)
 -->
<!-- Title: yaclib::Strand Pages: 1 -->
<svg width="266pt" height="196pt"
 viewBox="0.00 0.00 265.50 196.00" xmlns="http://www.w3.org/2000/svg" xmlns:xlink="http://www.w3.org/1999/xlink">
<g id="graph0" class="graph" transform="scale(1 1) rotate(0) translate(4 192)">
<title>yaclib::Strand</title>
<!-- Node1 -->
<g id="node1" class="node">
<title>Node1</title>
<g id="a_node1"><a xlink:title=" ">
<polygon fill="#bfbfbf" stroke="black" points="131.5,-0.5 131.5,-19.5 205.5,-19.5 205.5,-0.5 131.5,-0.5"/>
<text text-anchor="middle" x="168.5" y="-7.5" font-family="Helvetica,sans-Serif" font-size="10.00">yaclib::Strand</text>
</a>
</g>
</g>
<!-- Node2 -->
<g id="node2" class="node">
<title>Node2</title>
<g id="a_node2"><a xlink:href="classyaclib_1_1Job.html" target="_top" xlink:title="Callable that can be executed in an IExecutor.">
<polygon fill="none" stroke="black" points="91.5,-56.5 91.5,-75.5 153.5,-75.5 153.5,-56.5 91.5,-56.5"/>
<text text-anchor="middle" x="122.5" y="-63.5" font-family="Helvetica,sans-Serif" font-size="10.00">yaclib::Job</text>
</a>
</g>
</g>
<!-- Node2&#45;&gt;Node1 -->
<g id="edge1" class="edge">
<title>Node2&#45;&gt;Node1</title>
<path fill="none" stroke="#8b1a1a" d="M136.61,-48.43C144.68,-38.97 154.46,-27.48 161.05,-19.75"/>
<polygon fill="#8b1a1a" stroke="#8b1a1a" points="133.92,-46.2 130.1,-56.08 139.25,-50.74 133.92,-46.2"/>
</g>
<!-- Node3 -->
<g id="node3" class="node">
<title>Node3</title>
<g id="a_node3"><a xlink:href="classyaclib_1_1IFunc.html" target="_top" xlink:title="Callable interface.">
<polygon fill="none" stroke="black" points="0,-112.5 0,-131.5 71,-131.5 71,-112.5 0,-112.5"/>
<text text-anchor="middle" x="35.5" y="-119.5" font-family="Helvetica,sans-Serif" font-size="10.00">yaclib::IFunc</text>
</a>
</g>
</g>
<!-- Node3&#45;&gt;Node2 -->
<g id="edge2" class="edge">
<title>Node3&#45;&gt;Node2</title>
<path fill="none" stroke="midnightblue" d="M58.22,-106.9C74.17,-97 95,-84.07 108.56,-75.65"/>
<polygon fill="midnightblue" stroke="midnightblue" points="56.13,-104.08 49.48,-112.32 59.82,-110.02 56.13,-104.08"/>
</g>
<!-- Node4 -->
<g id="node4" class="node">
<title>Node4</title>
<g id="a_node4"><a xlink:href="classyaclib_1_1IRef.html" target="_top" xlink:title="Reference counting interface.">
<polygon fill="none" stroke="black" points="92.5,-168.5 92.5,-187.5 156.5,-187.5 156.5,-168.5 92.5,-168.5"/>
<text text-anchor="middle" x="124.5" y="-175.5" font-family="Helvetica,sans-Serif" font-size="10.00">yaclib::IRef</text>
</a>
</g>
</g>
<!-- Node4&#45;&gt;Node3 -->
<g id="edge3" class="edge">
<title>Node4&#45;&gt;Node3</title>
<path fill="none" stroke="midnightblue" d="M101.26,-162.9C84.94,-153 63.63,-140.07 49.76,-131.65"/>
<polygon fill="midnightblue" stroke="midnightblue" points="99.84,-166.13 110.2,-168.32 103.47,-160.14 99.84,-166.13"/>
</g>
<!-- Node6 -->
<g id="node6" class="node">
<title>Node6</title>
<g id="a_node6"><a xlink:href="classyaclib_1_1IExecutor.html" target="_top" xlink:title=" ">
<polygon fill="none" stroke="black" points="171.5,-56.5 171.5,-75.5 257.5,-75.5 257.5,-56.5 171.5,-56.5"/>
<text text-anchor="middle" x="214.5" y="-63.5" font-family="Helvetica,sans-Serif" font-size="10.00">yaclib::IExecutor</text>
</a>
</g>
</g>
<!-- Node4&#45;&gt;Node6 -->
<g id="edge6" class="edge">
<title>Node4&#45;&gt;Node6</title>
<path fill="none" stroke="midnightblue" d="M154.68,-163.67C168.57,-156.17 184.21,-145.56 194.5,-132 207.49,-114.88 212.12,-89.25 213.71,-75.86"/>
<polygon fill="midnightblue" stroke="midnightblue" points="152.76,-160.72 145.43,-168.37 155.93,-166.96 152.76,-160.72"/>
</g>
<!-- Node5 -->
<g id="node5" class="node">
<title>Node5</title>
<g id="a_node5"><a xlink:href="structyaclib_1_1detail_1_1Node.html" target="_top" xlink:title="Node class, used in intrusive data structure.">
<polygon fill="none" stroke="black" points="89,-112.5 89,-131.5 186,-131.5 186,-112.5 89,-112.5"/>
<text text-anchor="middle" x="137.5" y="-119.5" font-family="Helvetica,sans-Serif" font-size="10.00">yaclib::detail::Node</text>
</a>
</g>
</g>
<!-- Node5&#45;&gt;Node2 -->
<g id="edge4" class="edge">
<title>Node5&#45;&gt;Node2</title>
<path fill="none" stroke="midnightblue" d="M132.33,-102.4C129.82,-93.36 126.93,-82.94 124.93,-75.75"/>
<polygon fill="midnightblue" stroke="midnightblue" points="128.97,-103.38 135.02,-112.08 135.72,-101.51 128.97,-103.38"/>
</g>
<!-- Node6&#45;&gt;Node1 -->
<g id="edge5" class="edge">
<title>Node6&#45;&gt;Node1</title>
<path fill="none" stroke="midnightblue" d="M200.39,-48.43C192.32,-38.97 182.54,-27.48 175.95,-19.75"/>
<polygon fill="midnightblue" stroke="midnightblue" points="197.75,-50.74 206.9,-56.08 203.08,-46.2 197.75,-50.74"/>
</g>
</g>
</svg>
