<?xml version="1.0" encoding="UTF-8" standalone="no"?>
<!DOCTYPE svg PUBLIC "-//W3C//DTD SVG 1.1//EN"
 "http://www.w3.org/Graphics/SVG/1.1/DTD/svg11.dtd">
<!-- Generated by graphviz version 9.0.0 (20230911.1827)
 -->
<!-- Title: yaclib::IFunc Pages: 1 -->
<!--zoomable 462 -->

<svg id="main" version="1.1" xmlns="http://www.w3.org/2000/svg" xmlns:xlink="http://www.w3.org/1999/xlink" xml:space="preserve" onload="init(evt)">
<style type="text/css"><![CDATA[
.node, .edge {opacity: 0.7;}
.node.selected, .edge.selected {opacity: 1;}
.edge:hover path { stroke: red; }
.edge:hover polygon { stroke: red; fill: red; }
]]></style>

<defs>
  <circle id="rim" cx="0" cy="0" r="7"/>
  <circle id="rim2" cx="0" cy="0" r="3.5"/>
  <g id="zoomPlus">
    <use xlink:href="#rim" fill="#404040"><set attributeName="fill" to="#808080" begin="zoomplus.mouseover" end="zoomplus.mouseout"/></use>
    <path d="M-4,0h8M0,-4v8" fill="none" stroke="white" stroke-width="1.5" pointer-events="none"/>
  </g>
  <g id="zoomMin">
    <use xlink:href="#rim" fill="#404040"><set attributeName="fill" to="#808080" begin="zoomminus.mouseover" end="zoomminus.mouseout"/></use>
    <path d="M-4,0h8" fill="none" stroke="white" stroke-width="1.5" pointer-events="none"/>
  </g>
  <g id="arrowUp" transform="translate(30 24)">
    <use xlink:href="#rim"/>
    <path pointer-events="none" fill="none" stroke="white" stroke-width="1.5" d="M0,-3.0v7 M-2.5,-0.5L0,-3.0L2.5,-0.5"/>
  </g>
  <g id="arrowRight" transform="rotate(90) translate(36 -43)">
    <use xlink:href="#rim"/>
    <path pointer-events="none" fill="none" stroke="white" stroke-width="1.5" d="M0,-3.0v7 M-2.5,-0.5L0,-3.0L2.5,-0.5"/>
  </g>
  <g id="arrowDown" transform="rotate(180) translate(-30 -48)">
    <use xlink:href="#rim"/>
    <path pointer-events="none" fill="none" stroke="white" stroke-width="1.5" d="M0,-3.0v7 M-2.5,-0.5L0,-3.0L2.5,-0.5"/>
  </g>
  <g id="arrowLeft" transform="rotate(270) translate(-36 17)">
    <use xlink:href="#rim"/>
    <path pointer-events="none" fill="none" stroke="white" stroke-width="1.5" d="M0,-3.0v7 M-2.5,-0.5L0,-3.0L2.5,-0.5"/>
  </g>
  <g id="resetDef">
    <use xlink:href="#rim2" fill="#404040"><set attributeName="fill" to="#808080" begin="reset.mouseover" end="reset.mouseout"/></use>
  </g>
</defs>
<script type="application/ecmascript">
var viewWidth = 1233;
var viewHeight = 462;
var sectionId = 'dynsection-0';
</script>
<script type="application/ecmascript" xlink:href="svg.min.js"/>
<svg id="graph" class="graph">
<g id="viewport">
<title>yaclib::IFunc</title>
<!-- Node1 -->
<g id="Node000001" class="node">
<title>Node1</title>
<g id="a_Node000001"><a xlink:title="Callable interface.">
<polygon fill="#999999" stroke="#666666" points="170.25,-253.88 100.25,-253.88 100.25,-234.62 170.25,-234.62 170.25,-253.88"/>
<text text-anchor="middle" x="135.25" y="-240.38" font-family="Helvetica,sans-Serif" font-size="10.00">yaclib::IFunc</text>
</a>
</g>
</g>
<!-- Node3 -->
<g id="Node000003" class="node">
<title>Node3</title>
<g id="a_Node000003"><a xlink:href="classyaclib_1_1Job.html" target="_top" xlink:title="Callable that can be executed in an IExecutor.">
<polygon fill="white" stroke="#666666" points="300.5,-284.88 239.5,-284.88 239.5,-265.62 300.5,-265.62 300.5,-284.88"/>
<text text-anchor="middle" x="270" y="-271.38" font-family="Helvetica,sans-Serif" font-size="10.00">yaclib::Job</text>
</a>
</g>
</g>
<!-- Node1&#45;&gt;Node3 -->
<g id="edge2_Node000001_Node000003" class="edge">
<title>Node1&#45;&gt;Node3</title>
<g id="a_edge2_Node000001_Node000003"><a xlink:title=" ">
<path fill="none" stroke="#63b8ff" d="M181.63,-254.85C200.75,-259.31 222.45,-264.38 239.44,-268.35"/>
<polygon fill="#63b8ff" stroke="#63b8ff" points="182.44,-251.44 171.91,-252.58 180.85,-258.26 182.44,-251.44"/>
</a>
</g>
</g>
<!-- Node25 -->
<g id="Node000025" class="node">
<title>Node25</title>
<g id="a_Node000025"><a xlink:href="classyaclib_1_1detail_1_1SharedFunc.html" target="_top" xlink:title=" ">
<polygon fill="white" stroke="#666666" points="332.75,-247.5 207.25,-247.5 207.25,-217 332.75,-217 332.75,-247.5"/>
<text text-anchor="start" x="215.25" y="-234" font-family="Helvetica,sans-Serif" font-size="10.00">yaclib::detail::SharedFunc</text>
<text text-anchor="middle" x="270" y="-222.75" font-family="Helvetica,sans-Serif" font-size="10.00">&lt; Func &gt;</text>
</a>
</g>
</g>
<!-- Node1&#45;&gt;Node25 -->
<g id="edge25_Node000001_Node000025" class="edge">
<title>Node1&#45;&gt;Node25</title>
<g id="a_edge25_Node000001_Node000025"><a xlink:title=" ">
<path fill="none" stroke="#63b8ff" d="M181.85,-240.13C189.91,-239.4 198.42,-238.63 206.84,-237.87"/>
<polygon fill="#63b8ff" stroke="#63b8ff" points="181.59,-236.64 171.94,-241.02 182.22,-243.61 181.59,-236.64"/>
</a>
</g>
</g>
<!-- Node2 -->
<g id="Node000002" class="node">
<title>Node2</title>
<g id="a_Node000002"><a xlink:href="classyaclib_1_1IRef.html" target="_top" xlink:title="Reference counting interface.">
<polygon fill="white" stroke="#666666" points="63.25,-253.88 0,-253.88 0,-234.62 63.25,-234.62 63.25,-253.88"/>
<text text-anchor="middle" x="31.62" y="-240.38" font-family="Helvetica,sans-Serif" font-size="10.00">yaclib::IRef</text>
</a>
</g>
</g>
<!-- Node2&#45;&gt;Node1 -->
<g id="edge1_Node000001_Node000002" class="edge">
<title>Node2&#45;&gt;Node1</title>
<g id="a_edge1_Node000001_Node000002"><a xlink:title=" ">
<path fill="none" stroke="#63b8ff" d="M75.05,-244.25C83.32,-244.25 91.89,-244.25 99.85,-244.25"/>
<polygon fill="#63b8ff" stroke="#63b8ff" points="75.18,-240.75 65.18,-244.25 75.18,-247.75 75.18,-240.75"/>
</a>
</g>
</g>
<!-- Node4 -->
<g id="Node000004" class="node">
<title>Node4</title>
<g id="a_Node000004"><a xlink:href="structyaclib_1_1OneShotEvent_1_1TimedWaiter.html" target="_top" xlink:title="Public only because Waiter is public.">
<polygon fill="white" stroke="#666666" points="483.62,-382.5 375.38,-382.5 375.38,-352 483.62,-352 483.62,-382.5"/>
<text text-anchor="start" x="383.38" y="-369" font-family="Helvetica,sans-Serif" font-size="10.00">yaclib::OneShotEvent</text>
<text text-anchor="middle" x="429.5" y="-357.75" font-family="Helvetica,sans-Serif" font-size="10.00">::TimedWaiter</text>
</a>
</g>
</g>
<!-- Node3&#45;&gt;Node4 -->
<g id="edge3_Node000003_Node000004" class="edge">
<title>Node3&#45;&gt;Node4</title>
<g id="a_edge3_Node000003_Node000004"><a xlink:title=" ">
<path fill="none" stroke="#63b8ff" d="M292.86,-291.9C312.37,-306.31 342.05,-327.15 369.75,-342.25 375.78,-345.54 382.34,-348.7 388.81,-351.61"/>
<polygon fill="#63b8ff" stroke="#63b8ff" points="295.22,-289.29 285.11,-286.11 291.03,-294.9 295.22,-289.29"/>
</a>
</g>
</g>
<!-- Node5 -->
<g id="Node000005" class="node">
<title>Node5</title>
<g id="a_Node000005"><a xlink:href="structyaclib_1_1OneShotEvent_1_1Waiter.html" target="_top" xlink:title="Waiter is public for advanced users.">
<polygon fill="white" stroke="#666666" points="483.62,-333.5 375.38,-333.5 375.38,-303 483.62,-303 483.62,-333.5"/>
<text text-anchor="start" x="383.38" y="-320" font-family="Helvetica,sans-Serif" font-size="10.00">yaclib::OneShotEvent</text>
<text text-anchor="middle" x="429.5" y="-308.75" font-family="Helvetica,sans-Serif" font-size="10.00">::Waiter</text>
</a>
</g>
</g>
<!-- Node3&#45;&gt;Node5 -->
<g id="edge4_Node000003_Node000005" class="edge">
<title>Node3&#45;&gt;Node5</title>
<g id="a_edge4_Node000003_Node000005"><a xlink:title=" ">
<path fill="none" stroke="#63b8ff" d="M311.83,-286.4C331.11,-291.66 354.36,-298.01 375.02,-303.65"/>
<polygon fill="#63b8ff" stroke="#63b8ff" points="313.02,-283.1 302.46,-283.84 311.18,-289.85 313.02,-283.1"/>
</a>
</g>
</g>
<!-- Node6 -->
<g id="Node000006" class="node">
<title>Node6</title>
<g id="a_Node000006"><a xlink:href="classyaclib_1_1Strand.html" target="_top" xlink:title=" ">
<polygon fill="white" stroke="#666666" points="466.38,-284.88 392.62,-284.88 392.62,-265.62 466.38,-265.62 466.38,-284.88"/>
<text text-anchor="middle" x="429.5" y="-271.38" font-family="Helvetica,sans-Serif" font-size="10.00">yaclib::Strand</text>
</a>
</g>
</g>
<!-- Node3&#45;&gt;Node6 -->
<g id="edge5_Node000003_Node000006" class="edge">
<title>Node3&#45;&gt;Node6</title>
<g id="a_edge5_Node000003_Node000006"><a xlink:title=" ">
<path fill="none" stroke="#8b1a1a" d="M312.25,-275.25C337.07,-275.25 368.39,-275.25 392.26,-275.25"/>
<polygon fill="#8b1a1a" stroke="#8b1a1a" points="312.51,-271.75 302.51,-275.25 312.51,-278.75 312.51,-271.75"/>
</a>
</g>
</g>
<!-- Node7 -->
<g id="Node000007" class="node">
<title>Node7</title>
<g id="a_Node000007"><a xlink:href="classyaclib_1_1detail_1_1InlineCore.html" target="_top" xlink:title=" ">
<polygon fill="white" stroke="#666666" points="487.75,-247.88 371.25,-247.88 371.25,-228.62 487.75,-228.62 487.75,-247.88"/>
<text text-anchor="middle" x="429.5" y="-234.38" font-family="Helvetica,sans-Serif" font-size="10.00">yaclib::detail::InlineCore</text>
</a>
</g>
</g>
<!-- Node3&#45;&gt;Node7 -->
<g id="edge6_Node000003_Node000007" class="edge">
<title>Node3&#45;&gt;Node7</title>
<g id="a_edge6_Node000003_Node000007"><a xlink:title=" ">
<path fill="none" stroke="#63b8ff" d="M311.94,-265.63C334.54,-260.32 362.6,-253.73 385.52,-248.35"/>
<polygon fill="#63b8ff" stroke="#63b8ff" points="311.4,-262.16 302.47,-267.86 313,-268.98 311.4,-262.16"/>
</a>
</g>
</g>
<!-- Node24 -->
<g id="Node000024" class="node">
<title>Node24</title>
<g id="a_Node000024"><a xlink:href="classyaclib_1_1detail_1_1UniqueJob.html" target="_top" xlink:title=" ">
<polygon fill="white" stroke="#666666" points="489.25,-210.5 369.75,-210.5 369.75,-180 489.25,-180 489.25,-210.5"/>
<text text-anchor="start" x="377.75" y="-197" font-family="Helvetica,sans-Serif" font-size="10.00">yaclib::detail::UniqueJob</text>
<text text-anchor="middle" x="429.5" y="-185.75" font-family="Helvetica,sans-Serif" font-size="10.00">&lt; Func &gt;</text>
</a>
</g>
</g>
<!-- Node3&#45;&gt;Node24 -->
<g id="edge24_Node000003_Node000024" class="edge">
<title>Node3&#45;&gt;Node24</title>
<g id="a_edge24_Node000003_Node000024"><a xlink:title=" ">
<path fill="none" stroke="#63b8ff" d="M311.72,-265.82C319,-263.28 326.31,-260.13 332.75,-256.25 352.67,-244.25 350.38,-232.12 369.75,-219.25 374.34,-216.2 379.37,-213.43 384.51,-210.94"/>
<polygon fill="#63b8ff" stroke="#63b8ff" points="310.78,-262.45 302.27,-268.76 312.86,-269.13 310.78,-262.45"/>
</a>
</g>
</g>
<!-- Node8 -->
<g id="Node000008" class="node">
<title>Node8</title>
<g id="a_Node000008"><a xlink:href="classyaclib_1_1detail_1_1AwaitOnEvent.html" target="_top" xlink:title=" ">
<polygon fill="white" stroke="#666666" points="886.75,-330.5 751.5,-330.5 751.5,-300 886.75,-300 886.75,-330.5"/>
<text text-anchor="start" x="759.5" y="-317" font-family="Helvetica,sans-Serif" font-size="10.00">yaclib::detail::AwaitOnEvent</text>
<text text-anchor="middle" x="819.12" y="-305.75" font-family="Helvetica,sans-Serif" font-size="10.00">&lt; false &gt;</text>
</a>
</g>
</g>
<!-- Node7&#45;&gt;Node8 -->
<g id="edge7_Node000007_Node000008" class="edge">
<title>Node7&#45;&gt;Node8</title>
<g id="a_edge7_Node000007_Node000008"><a xlink:title=" ">
<path fill="none" stroke="#63b8ff" d="M488.14,-255.1C488.52,-255.47 488.89,-255.86 489.25,-256.25 515.82,-285.23 495.68,-404.53 526.25,-429.25 577.91,-471.03 613.06,-451.26 675.75,-429.25 731.92,-409.53 782.37,-357.29 805.21,-330.93"/>
<polygon fill="#63b8ff" stroke="#63b8ff" points="490.53,-252.51 480.44,-249.27 486.3,-258.09 490.53,-252.51"/>
</a>
</g>
</g>
<!-- Node10 -->
<g id="Node000010" class="node">
<title>Node10</title>
<g id="a_Node000010"><a xlink:href="structyaclib_1_1detail_1_1AwaitAwaiter_3_01Handle_00_01true_01_4.html" target="_top" xlink:title=" ">
<polygon fill="white" stroke="#666666" points="666.38,-420.5 535.62,-420.5 535.62,-390 666.38,-390 666.38,-420.5"/>
<text text-anchor="start" x="543.62" y="-407" font-family="Helvetica,sans-Serif" font-size="10.00">yaclib::detail::AwaitAwaiter</text>
<text text-anchor="middle" x="601" y="-395.75" font-family="Helvetica,sans-Serif" font-size="10.00">&lt; Handle, true &gt;</text>
</a>
</g>
</g>
<!-- Node7&#45;&gt;Node10 -->
<g id="edge9_Node000007_Node000010" class="edge">
<title>Node7&#45;&gt;Node10</title>
<g id="a_edge9_Node000007_Node000010"><a xlink:title=" ">
<path fill="none" stroke="#63b8ff" d="M487.73,-254.8C488.25,-255.27 488.76,-255.75 489.25,-256.25 509.51,-276.66 506.29,-359.55 526.25,-380.25 529.72,-383.85 533.73,-386.93 538.05,-389.57"/>
<polygon fill="#63b8ff" stroke="#63b8ff" points="489.85,-252.01 479.65,-249.16 485.84,-257.75 489.85,-252.01"/>
</a>
</g>
</g>
<!-- Node11 -->
<g id="Node000011" class="node">
<title>Node11</title>
<g id="a_Node000011"><a xlink:href="classyaclib_1_1detail_1_1AwaitEvent.html" target="_top" xlink:title=" ">
<polygon fill="white" stroke="#666666" points="662.25,-371.5 539.75,-371.5 539.75,-341 662.25,-341 662.25,-371.5"/>
<text text-anchor="start" x="547.75" y="-358" font-family="Helvetica,sans-Serif" font-size="10.00">yaclib::detail::AwaitEvent</text>
<text text-anchor="middle" x="601" y="-346.75" font-family="Helvetica,sans-Serif" font-size="10.00">&lt; Sticky &gt;</text>
</a>
</g>
</g>
<!-- Node7&#45;&gt;Node11 -->
<g id="edge10_Node000007_Node000011" class="edge">
<title>Node7&#45;&gt;Node11</title>
<g id="a_edge10_Node000007_Node000011"><a xlink:title=" ">
<path fill="none" stroke="#63b8ff" d="M486.35,-253.97C487.35,-254.7 488.32,-255.46 489.25,-256.25 517.56,-280.33 498.3,-306.75 526.25,-331.25 530.32,-334.81 534.91,-337.88 539.77,-340.5"/>
<polygon fill="#63b8ff" stroke="#63b8ff" points="488.4,-251.11 478,-249.06 484.85,-257.15 488.4,-251.11"/>
</a>
</g>
</g>
<!-- Node12 -->
<g id="Node000012" class="node">
<title>Node12</title>
<g id="a_Node000012"><a xlink:href="classyaclib_1_1detail_1_1AwaitOnEvent.html" target="_top" xlink:title=" ">
<polygon fill="white" stroke="#666666" points="668.62,-322.5 533.38,-322.5 533.38,-292 668.62,-292 668.62,-322.5"/>
<text text-anchor="start" x="541.38" y="-309" font-family="Helvetica,sans-Serif" font-size="10.00">yaclib::detail::AwaitOnEvent</text>
<text text-anchor="middle" x="601" y="-297.75" font-family="Helvetica,sans-Serif" font-size="10.00">&lt; Single &gt;</text>
</a>
</g>
</g>
<!-- Node7&#45;&gt;Node12 -->
<g id="edge11_Node000007_Node000012" class="edge">
<title>Node7&#45;&gt;Node12</title>
<g id="a_edge11_Node000007_Node000012"><a xlink:title=" ">
<path fill="none" stroke="#63b8ff" d="M480.33,-252.22C483.39,-253.47 486.39,-254.82 489.25,-256.25 507.46,-265.36 508.12,-273.98 526.25,-283.25 532.24,-286.31 538.71,-289.1 545.24,-291.59"/>
<polygon fill="#63b8ff" stroke="#63b8ff" points="481.78,-249.02 471.18,-248.81 479.33,-255.58 481.78,-249.02"/>
</a>
</g>
</g>
<!-- Node13 -->
<g id="Node000013" class="node">
<title>Node13</title>
<g id="a_Node000013"><a xlink:href="classyaclib_1_1detail_1_1BaseCore.html" target="_top" xlink:title=" ">
<polygon fill="white" stroke="#666666" points="658.88,-273.88 543.12,-273.88 543.12,-254.62 658.88,-254.62 658.88,-273.88"/>
<text text-anchor="middle" x="601" y="-260.38" font-family="Helvetica,sans-Serif" font-size="10.00">yaclib::detail::BaseCore</text>
</a>
</g>
</g>
<!-- Node7&#45;&gt;Node13 -->
<g id="edge13_Node000007_Node000013" class="edge">
<title>Node7&#45;&gt;Node13</title>
<g id="a_edge13_Node000007_Node000013"><a xlink:title=" ">
<path fill="none" stroke="#63b8ff" d="M498.84,-248.73C513.38,-250.96 528.6,-253.3 542.67,-255.46"/>
<polygon fill="#63b8ff" stroke="#63b8ff" points="499.8,-245.34 489.38,-247.28 498.73,-252.26 499.8,-245.34"/>
</a>
</g>
</g>
<!-- Node19 -->
<g id="Node000019" class="node">
<title>Node19</title>
<g id="a_Node000019"><a xlink:href="structyaclib_1_1detail_1_1CallCallback.html" target="_top" xlink:title=" ">
<polygon fill="white" stroke="#666666" points="664.5,-236.5 537.5,-236.5 537.5,-206 664.5,-206 664.5,-236.5"/>
<text text-anchor="start" x="545.5" y="-223" font-family="Helvetica,sans-Serif" font-size="10.00">yaclib::detail::CallCallback</text>
<text text-anchor="middle" x="601" y="-211.75" font-family="Helvetica,sans-Serif" font-size="10.00">&lt; Derived &gt;</text>
</a>
</g>
</g>
<!-- Node7&#45;&gt;Node19 -->
<g id="edge19_Node000007_Node000019" class="edge">
<title>Node7&#45;&gt;Node19</title>
<g id="a_edge19_Node000007_Node000019"><a xlink:title=" ">
<path fill="none" stroke="#63b8ff" d="M499.23,-231.36C511.77,-230.1 524.79,-228.79 537.15,-227.55"/>
<polygon fill="#63b8ff" stroke="#63b8ff" points="498.99,-227.86 489.39,-232.34 499.69,-234.83 498.99,-227.86"/>
</a>
</g>
</g>
<!-- Node20 -->
<g id="Node000020" class="node">
<title>Node20</title>
<g id="a_Node000020"><a xlink:href="structyaclib_1_1detail_1_1DropCallback.html" target="_top" xlink:title=" ">
<polygon fill="white" stroke="#666666" points="666.38,-187.5 535.62,-187.5 535.62,-157 666.38,-157 666.38,-187.5"/>
<text text-anchor="start" x="543.62" y="-174" font-family="Helvetica,sans-Serif" font-size="10.00">yaclib::detail::DropCallback</text>
<text text-anchor="middle" x="601" y="-162.75" font-family="Helvetica,sans-Serif" font-size="10.00">&lt; Derived &gt;</text>
</a>
</g>
</g>
<!-- Node7&#45;&gt;Node20 -->
<g id="edge20_Node000007_Node000020" class="edge">
<title>Node7&#45;&gt;Node20</title>
<g id="a_edge20_Node000007_Node000020"><a xlink:title=" ">
<path fill="none" stroke="#63b8ff" d="M476.73,-224.39C481.01,-222.78 485.24,-221.06 489.25,-219.25 506.68,-211.37 508.87,-205.25 526.25,-197.25 533.49,-193.91 541.32,-190.79 549.07,-187.95"/>
<polygon fill="#63b8ff" stroke="#63b8ff" points="475.78,-221.01 467.52,-227.65 478.11,-227.61 475.78,-221.01"/>
</a>
</g>
</g>
<!-- Node21 -->
<g id="Node000021" class="node">
<title>Node21</title>
<g id="a_Node000021"><a xlink:href="structyaclib_1_1detail_1_1EventHelperCallback.html" target="_top" xlink:title=" ">
<polygon fill="white" stroke="#666666" points="664.12,-138.5 537.88,-138.5 537.88,-108 664.12,-108 664.12,-138.5"/>
<text text-anchor="start" x="545.88" y="-125" font-family="Helvetica,sans-Serif" font-size="10.00">yaclib::detail::EventHelper</text>
<text text-anchor="middle" x="601" y="-113.75" font-family="Helvetica,sans-Serif" font-size="10.00">Callback&lt; Event &gt;</text>
</a>
</g>
</g>
<!-- Node7&#45;&gt;Node21 -->
<g id="edge21_Node000007_Node000021" class="edge">
<title>Node7&#45;&gt;Node21</title>
<g id="a_edge21_Node000007_Node000021"><a xlink:title=" ">
<path fill="none" stroke="#63b8ff" d="M484.63,-222.73C486.24,-221.64 487.79,-220.49 489.25,-219.25 516.43,-196.28 499.23,-171.41 526.25,-148.25 530.46,-144.64 535.21,-141.55 540.22,-138.9"/>
<polygon fill="#63b8ff" stroke="#63b8ff" points="483.23,-219.5 476.18,-227.4 486.62,-225.62 483.23,-219.5"/>
</a>
</g>
</g>
<!-- Node22 -->
<g id="Node000022" class="node">
<title>Node22</title>
<g id="a_Node000022"><a xlink:href="structyaclib_1_1when_1_1CombinatorCallback.html" target="_top" xlink:title=" ">
<polygon fill="white" stroke="#666666" points="662.25,-90.12 539.75,-90.12 539.75,-48.38 662.25,-48.38 662.25,-90.12"/>
<text text-anchor="start" x="547.75" y="-76.62" font-family="Helvetica,sans-Serif" font-size="10.00">yaclib::when::Combinator</text>
<text text-anchor="start" x="547.75" y="-65.38" font-family="Helvetica,sans-Serif" font-size="10.00">Callback&lt; Combinator,</text>
<text text-anchor="middle" x="601" y="-54.12" font-family="Helvetica,sans-Serif" font-size="10.00"> Core, Index &gt;</text>
</a>
</g>
</g>
<!-- Node7&#45;&gt;Node22 -->
<g id="edge22_Node000007_Node000022" class="edge">
<title>Node7&#45;&gt;Node22</title>
<g id="a_edge22_Node000007_Node000022"><a xlink:title=" ">
<path fill="none" stroke="#63b8ff" d="M486.04,-222.18C487.16,-221.25 488.23,-220.28 489.25,-219.25 508.85,-199.38 507.4,-119.82 526.25,-99.25 530.08,-95.07 534.57,-91.46 539.42,-88.35"/>
<polygon fill="#63b8ff" stroke="#63b8ff" points="484.42,-219.05 477.94,-227.43 488.23,-224.93 484.42,-219.05"/>
</a>
</g>
</g>
<!-- Node23 -->
<g id="Node000023" class="node">
<title>Node23</title>
<g id="a_Node000023"><a xlink:href="structyaclib_1_1when_1_1SingleCombinator.html" target="_top" xlink:title=" ">
<polygon fill="white" stroke="#666666" points="675.75,-30.5 526.25,-30.5 526.25,0 675.75,0 675.75,-30.5"/>
<text text-anchor="start" x="534.25" y="-17" font-family="Helvetica,sans-Serif" font-size="10.00">yaclib::when::SingleCombinator</text>
<text text-anchor="middle" x="601" y="-5.75" font-family="Helvetica,sans-Serif" font-size="10.00">&lt; Strategy, Core &gt;</text>
</a>
</g>
</g>
<!-- Node7&#45;&gt;Node23 -->
<g id="edge23_Node000007_Node000023" class="edge">
<title>Node7&#45;&gt;Node23</title>
<g id="a_edge23_Node000007_Node000023"><a xlink:title=" ">
<path fill="none" stroke="#63b8ff" d="M487.04,-221.51C487.81,-220.79 488.55,-220.04 489.25,-219.25 516.49,-188.83 499.03,-69.69 526.25,-39.25 529.12,-36.04 532.43,-33.25 536.01,-30.84"/>
<polygon fill="#63b8ff" stroke="#63b8ff" points="485.17,-218.55 479.11,-227.24 489.27,-224.22 485.17,-218.55"/>
</a>
</g>
</g>
<!-- Node9 -->
<g id="Node000009" class="node">
<title>Node9</title>
<g id="a_Node000009"><a xlink:href="structyaclib_1_1detail_1_1AwaitOnAwaiter.html" target="_top" xlink:title=" ">
<polygon fill="white" stroke="#666666" points="1067.25,-330.5 923.75,-330.5 923.75,-300 1067.25,-300 1067.25,-330.5"/>
<text text-anchor="start" x="931.75" y="-317" font-family="Helvetica,sans-Serif" font-size="10.00">yaclib::detail::AwaitOnAwaiter</text>
<text text-anchor="middle" x="995.5" y="-305.75" font-family="Helvetica,sans-Serif" font-size="10.00">&lt; Handle &gt;</text>
</a>
</g>
</g>
<!-- Node8&#45;&gt;Node9 -->
<g id="edge8_Node000008_Node000009" class="edge">
<title>Node8&#45;&gt;Node9</title>
<g id="a_edge8_Node000008_Node000009"><a xlink:title=" ">
<path fill="none" stroke="#63b8ff" d="M898.34,-315.25C906.69,-315.25 915.15,-315.25 923.42,-315.25"/>
<polygon fill="#63b8ff" stroke="#63b8ff" points="898.56,-311.75 888.56,-315.25 898.56,-318.75 898.56,-311.75"/>
</a>
</g>
</g>
<!-- Node12&#45;&gt;Node8 -->
<g id="edge12_Node000012_Node000008" class="edge">
<title>Node12&#45;&gt;Node8</title>
<g id="a_edge12_Node000012_Node000008"><a xlink:title=" ">
<path fill="none" stroke="orange" stroke-dasharray="5,2" d="M680.14,-310.14C703.41,-311 728.68,-311.94 751.17,-312.77"/>
<polygon fill="orange" stroke="orange" points="680.54,-306.65 670.42,-309.78 680.28,-313.65 680.54,-306.65"/>
</a>
</g>
<text text-anchor="middle" x="713.62" y="-313" font-family="Helvetica,sans-Serif" font-size="10.00" fill="grey"> &lt; false &gt;</text>
</g>
<!-- Node14 -->
<g id="Node000014" class="node">
<title>Node14</title>
<g id="a_Node000014"><a xlink:href="classyaclib_1_1detail_1_1NoResultCore.html" target="_top" xlink:title=" ">
<polygon fill="white" stroke="#666666" points="886,-278.88 752.25,-278.88 752.25,-259.62 886,-259.62 886,-278.88"/>
<text text-anchor="middle" x="819.12" y="-265.38" font-family="Helvetica,sans-Serif" font-size="10.00">yaclib::detail::NoResultCore</text>
</a>
</g>
</g>
<!-- Node13&#45;&gt;Node14 -->
<g id="edge14_Node000013_Node000014" class="edge">
<title>Node13&#45;&gt;Node14</title>
<g id="a_edge14_Node000013_Node000014"><a xlink:title=" ">
<path fill="none" stroke="#63b8ff" d="M670.66,-265.84C696.7,-266.44 726.28,-267.13 752.08,-267.72"/>
<polygon fill="#63b8ff" stroke="#63b8ff" points="670.94,-262.34 660.86,-265.61 670.78,-269.34 670.94,-262.34"/>
</a>
</g>
</g>
<!-- Node15 -->
<g id="Node000015" class="node">
<title>Node15</title>
<g id="a_Node000015"><a xlink:href="classyaclib_1_1detail_1_1ResultCore.html" target="_top" xlink:title=" ">
<polygon fill="white" stroke="#666666" points="879.62,-241.5 758.62,-241.5 758.62,-211 879.62,-211 879.62,-241.5"/>
<text text-anchor="start" x="766.62" y="-228" font-family="Helvetica,sans-Serif" font-size="10.00">yaclib::detail::ResultCore</text>
<text text-anchor="middle" x="819.12" y="-216.75" font-family="Helvetica,sans-Serif" font-size="10.00">&lt; V, E &gt;</text>
</a>
</g>
</g>
<!-- Node13&#45;&gt;Node15 -->
<g id="edge15_Node000013_Node000015" class="edge">
<title>Node13&#45;&gt;Node15</title>
<g id="a_edge15_Node000013_Node000015"><a xlink:title=" ">
<path fill="none" stroke="#63b8ff" d="M670.34,-252.23C698.56,-247.27 730.97,-241.57 758.24,-236.78"/>
<polygon fill="#63b8ff" stroke="#63b8ff" points="670.08,-248.73 660.84,-253.9 671.3,-255.62 670.08,-248.73"/>
</a>
</g>
</g>
<!-- Node16 -->
<g id="Node000016" class="node">
<title>Node16</title>
<g id="a_Node000016"><a xlink:href="classyaclib_1_1detail_1_1SharedCore.html" target="_top" xlink:title=" ">
<polygon fill="white" stroke="#666666" points="1057.5,-271.5 933.5,-271.5 933.5,-241 1057.5,-241 1057.5,-271.5"/>
<text text-anchor="start" x="941.5" y="-258" font-family="Helvetica,sans-Serif" font-size="10.00">yaclib::detail::SharedCore</text>
<text text-anchor="middle" x="995.5" y="-246.75" font-family="Helvetica,sans-Serif" font-size="10.00">&lt; V, E &gt;</text>
</a>
</g>
</g>
<!-- Node15&#45;&gt;Node16 -->
<g id="edge16_Node000015_Node000016" class="edge">
<title>Node15&#45;&gt;Node16</title>
<g id="a_edge16_Node000015_Node000016"><a xlink:title=" ">
<path fill="none" stroke="#63b8ff" d="M890.76,-238.4C904.81,-240.82 919.46,-243.34 933.17,-245.7"/>
<polygon fill="#63b8ff" stroke="#63b8ff" points="891.59,-234.99 881.14,-236.75 890.4,-241.89 891.59,-234.99"/>
</a>
</g>
</g>
<!-- Node17 -->
<g id="Node000017" class="node">
<title>Node17</title>
<g id="a_Node000017"><a xlink:href="classyaclib_1_1detail_1_1UniqueCore.html" target="_top" xlink:title=" ">
<polygon fill="white" stroke="#666666" points="1057.5,-222.5 933.5,-222.5 933.5,-192 1057.5,-192 1057.5,-222.5"/>
<text text-anchor="start" x="941.5" y="-209" font-family="Helvetica,sans-Serif" font-size="10.00">yaclib::detail::UniqueCore</text>
<text text-anchor="middle" x="995.5" y="-197.75" font-family="Helvetica,sans-Serif" font-size="10.00">&lt; V, E &gt;</text>
</a>
</g>
</g>
<!-- Node15&#45;&gt;Node17 -->
<g id="edge17_Node000015_Node000017" class="edge">
<title>Node15&#45;&gt;Node17</title>
<g id="a_edge17_Node000015_Node000017"><a xlink:title=" ">
<path fill="none" stroke="#63b8ff" d="M890.76,-218.55C904.81,-217.02 919.46,-215.43 933.17,-213.93"/>
<polygon fill="#63b8ff" stroke="#63b8ff" points="890.71,-215.04 881.15,-219.6 891.47,-222 890.71,-215.04"/>
</a>
</g>
</g>
<!-- Node18 -->
<g id="Node000018" class="node">
<title>Node18</title>
<g id="a_Node000018"><a xlink:href="classyaclib_1_1detail_1_1ReadyCore.html" target="_top" xlink:title=" ">
<polygon fill="white" stroke="#666666" points="1224.5,-222.5 1104.25,-222.5 1104.25,-192 1224.5,-192 1224.5,-222.5"/>
<text text-anchor="start" x="1112.25" y="-209" font-family="Helvetica,sans-Serif" font-size="10.00">yaclib::detail::ReadyCore</text>
<text text-anchor="middle" x="1164.38" y="-197.75" font-family="Helvetica,sans-Serif" font-size="10.00">&lt; V, E &gt;</text>
</a>
</g>
</g>
<!-- Node17&#45;&gt;Node18 -->
<g id="edge18_Node000017_Node000018" class="edge">
<title>Node17&#45;&gt;Node18</title>
<g id="a_edge18_Node000017_Node000018"><a xlink:title=" ">
<path fill="none" stroke="#63b8ff" d="M1069.15,-207.25C1080.75,-207.25 1092.62,-207.25 1103.86,-207.25"/>
<polygon fill="#63b8ff" stroke="#63b8ff" points="1069.2,-203.75 1059.2,-207.25 1069.2,-210.75 1069.2,-203.75"/>
</a>
</g>
</g>
</g>
</svg>

<g id="navigator" transform="translate(0 0)" fill="#404254">
  <rect fill="#f2f5e9" fill-opacity="0.5" stroke="#606060" stroke-width=".5" x="0" y="0" width="60" height="60"/>
  <use id="zoomplus" xlink:href="#zoomPlus" x="17" y="9" onmousedown="handleZoom(evt,'in')"/>
  <use id="zoomminus" xlink:href="#zoomMin" x="42" y="9" onmousedown="handleZoom(evt,'out')"/>
  <use id="reset" xlink:href="#resetDef" x="30" y="36" onmousedown="handleReset()"/>
   <use id="arrowup" xlink:href="#arrowUp" x="0" y="0" onmousedown="handlePan(0,-1)"/>
  <use id="arrowright" xlink:href="#arrowRight" x="0" y="0" onmousedown="handlePan(1,0)"/>
  <use id="arrowdown" xlink:href="#arrowDown" x="0" y="0" onmousedown="handlePan(0,1)"/>
  <use id="arrowleft" xlink:href="#arrowLeft" x="0" y="0" onmousedown="handlePan(-1,0)"/>
</g>
<svg viewBox="0 0 15 15" width="100%" height="30px" preserveAspectRatio="xMaxYMin meet">
 <g id="arrow_out" transform="scale(0.3 0.3)">
  <a xlink:href="classyaclib_1_1IFunc__inherit__graph_org.svg" target="_base">
   <rect id="button" ry="5" rx="5" y="6" x="6" height="38" width="38"
        fill="#f2f5e9" fill-opacity="0.5" stroke="#606060" stroke-width="1.0"/>
   <path id="arrow"
     d="M 11.500037,31.436501 C 11.940474,20.09759 22.043105,11.32322 32.158766,21.979434 L 37.068811,17.246167 C 37.068811,17.246167 37.088388,32 37.088388,32 L 22.160133,31.978069 C 22.160133,31.978069 26.997745,27.140456 26.997745,27.140456 C 18.528582,18.264221 13.291696,25.230495 11.500037,31.436501 z"
     style="fill:#404040;"/>
  </a>
 </g>
</svg>

<style type='text/css'>
<![CDATA[
[data-mouse-over-selected='false'] { opacity: 0.7; }
[data-mouse-over-selected='true']  { opacity: 1.0; }
]]>
</style>
<script type="application/ecmascript"><![CDATA[
document.addEventListener('DOMContentLoaded', (event) => {
  highlightEdges();
  highlightAdjacentNodes();
});
]]></script>
</svg>
