<?xml version="1.0" encoding="UTF-8" standalone="no"?>
<!DOCTYPE svg PUBLIC "-//W3C//DTD SVG 1.1//EN"
 "http://www.w3.org/Graphics/SVG/1.1/DTD/svg11.dtd">
<!-- Generated by graphviz version 3.0.0 (20220413.0242)
 -->
<!-- Title: yaclib::OneShotEventAwaiter Pages: 1 -->
<svg width="223pt" height="231pt"
 viewBox="0.00 0.00 222.50 231.00" xmlns="http://www.w3.org/2000/svg" xmlns:xlink="http://www.w3.org/1999/xlink">
<g id="graph0" class="graph" transform="scale(1 1) rotate(0) translate(4 227)">
<title>yaclib::OneShotEventAwaiter</title>
<!-- Node1 -->
<g id="node1" class="node">
<title>Node1</title>
<g id="a_node1"><a xlink:title=" ">
<polygon fill="#bfbfbf" stroke="black" points="0,-0.5 0,-19.5 142,-19.5 142,-0.5 0,-0.5"/>
<text text-anchor="middle" x="71" y="-7.5" font-family="Helvetica,sans-Serif" font-size="10.00">yaclib::OneShotEventAwaiter</text>
</a>
</g>
</g>
<!-- Node2 -->
<g id="node2" class="node">
<title>Node2</title>
<g id="a_node2"><a xlink:href="structyaclib_1_1detail_1_1NopeCounter.html" target="_top" xlink:title=" ">
<polygon fill="none" stroke="black" points="5.5,-57.5 5.5,-87.5 136.5,-87.5 136.5,-57.5 5.5,-57.5"/>
<text text-anchor="start" x="13.5" y="-75.5" font-family="Helvetica,sans-Serif" font-size="10.00">yaclib::detail::NopeCounter</text>
<text text-anchor="middle" x="71" y="-64.5" font-family="Helvetica,sans-Serif" font-size="10.00">&lt; Job &gt;</text>
</a>
</g>
</g>
<!-- Node2&#45;&gt;Node1 -->
<g id="edge1" class="edge">
<title>Node2&#45;&gt;Node1</title>
<path fill="none" stroke="midnightblue" d="M71,-47.35C71,-37.51 71,-26.78 71,-19.54"/>
<polygon fill="midnightblue" stroke="midnightblue" points="67.5,-47.47 71,-57.47 74.5,-47.47 67.5,-47.47"/>
</g>
<!-- Node3 -->
<g id="node3" class="node">
<title>Node3</title>
<g id="a_node3"><a xlink:title=" ">
<polygon fill="none" stroke="black" points="45,-203.5 45,-222.5 89,-222.5 89,-203.5 45,-203.5"/>
<text text-anchor="middle" x="67" y="-210.5" font-family="Helvetica,sans-Serif" font-size="10.00">Bases</text>
</a>
</g>
</g>
<!-- Node3&#45;&gt;Node2 -->
<g id="edge2" class="edge">
<title>Node3&#45;&gt;Node2</title>
<path fill="none" stroke="midnightblue" d="M67.54,-193.25C68.35,-165.19 69.86,-112.88 70.59,-87.73"/>
<polygon fill="midnightblue" stroke="midnightblue" points="64.04,-193.24 67.25,-203.34 71.04,-193.44 64.04,-193.24"/>
</g>
<!-- Node4 -->
<g id="node4" class="node">
<title>Node4</title>
<g id="a_node4"><a xlink:href="structyaclib_1_1detail_1_1NopeCounter.html" target="_top" xlink:title=" ">
<polygon fill="none" stroke="black" points="83.5,-135.5 83.5,-165.5 214.5,-165.5 214.5,-135.5 83.5,-135.5"/>
<text text-anchor="start" x="91.5" y="-153.5" font-family="Helvetica,sans-Serif" font-size="10.00">yaclib::detail::NopeCounter</text>
<text text-anchor="middle" x="149" y="-142.5" font-family="Helvetica,sans-Serif" font-size="10.00">&lt; Bases &gt;</text>
</a>
</g>
</g>
<!-- Node3&#45;&gt;Node4 -->
<g id="edge4" class="edge">
<title>Node3&#45;&gt;Node4</title>
<path fill="none" stroke="midnightblue" d="M87.09,-197.18C100.17,-187.53 117.13,-175.01 129.99,-165.53"/>
<polygon fill="midnightblue" stroke="midnightblue" points="84.72,-194.58 78.75,-203.33 88.87,-200.21 84.72,-194.58"/>
</g>
<!-- Node4&#45;&gt;Node2 -->
<g id="edge3" class="edge">
<title>Node4&#45;&gt;Node2</title>
<path fill="none" stroke="orange" stroke-dasharray="5,2" d="M126.97,-128.03C113.73,-115.13 97.24,-99.07 85.61,-87.73"/>
<polygon fill="orange" stroke="orange" points="124.72,-130.73 134.33,-135.2 129.61,-125.72 124.72,-130.73"/>
<text text-anchor="middle" x="131.5" y="-109" font-family="Helvetica,sans-Serif" font-size="10.00"> &lt; Job &gt;</text>
</g>
</g>
</svg>
