<?xml version="1.0" encoding="UTF-8" standalone="no"?>
<!DOCTYPE svg PUBLIC "-//W3C//DTD SVG 1.1//EN"
 "http://www.w3.org/Graphics/SVG/1.1/DTD/svg11.dtd">
<!-- Generated by graphviz version 9.0.0 (20230911.1827)
 -->
<!-- Title: yaclib::detail::ReadyCore&lt; V, E &gt; Pages: 1 -->
<!--zoomable 198 -->

<svg id="main" version="1.1" xmlns="http://www.w3.org/2000/svg" xmlns:xlink="http://www.w3.org/1999/xlink" xml:space="preserve" onload="init(evt)">
<style type="text/css"><![CDATA[
.node, .edge {opacity: 0.7;}
.node.selected, .edge.selected {opacity: 1;}
.edge:hover path { stroke: red; }
.edge:hover polygon { stroke: red; fill: red; }
]]></style>

<defs>
  <circle id="rim" cx="0" cy="0" r="7"/>
  <circle id="rim2" cx="0" cy="0" r="3.5"/>
  <g id="zoomPlus">
    <use xlink:href="#rim" fill="#404040"><set attributeName="fill" to="#808080" begin="zoomplus.mouseover" end="zoomplus.mouseout"/></use>
    <path d="M-4,0h8M0,-4v8" fill="none" stroke="white" stroke-width="1.5" pointer-events="none"/>
  </g>
  <g id="zoomMin">
    <use xlink:href="#rim" fill="#404040"><set attributeName="fill" to="#808080" begin="zoomminus.mouseover" end="zoomminus.mouseout"/></use>
    <path d="M-4,0h8" fill="none" stroke="white" stroke-width="1.5" pointer-events="none"/>
  </g>
  <g id="arrowUp" transform="translate(30 24)">
    <use xlink:href="#rim"/>
    <path pointer-events="none" fill="none" stroke="white" stroke-width="1.5" d="M0,-3.0v7 M-2.5,-0.5L0,-3.0L2.5,-0.5"/>
  </g>
  <g id="arrowRight" transform="rotate(90) translate(36 -43)">
    <use xlink:href="#rim"/>
    <path pointer-events="none" fill="none" stroke="white" stroke-width="1.5" d="M0,-3.0v7 M-2.5,-0.5L0,-3.0L2.5,-0.5"/>
  </g>
  <g id="arrowDown" transform="rotate(180) translate(-30 -48)">
    <use xlink:href="#rim"/>
    <path pointer-events="none" fill="none" stroke="white" stroke-width="1.5" d="M0,-3.0v7 M-2.5,-0.5L0,-3.0L2.5,-0.5"/>
  </g>
  <g id="arrowLeft" transform="rotate(270) translate(-36 17)">
    <use xlink:href="#rim"/>
    <path pointer-events="none" fill="none" stroke="white" stroke-width="1.5" d="M0,-3.0v7 M-2.5,-0.5L0,-3.0L2.5,-0.5"/>
  </g>
  <g id="resetDef">
    <use xlink:href="#rim2" fill="#404040"><set attributeName="fill" to="#808080" begin="reset.mouseover" end="reset.mouseout"/></use>
  </g>
</defs>
<script type="application/ecmascript">
var viewWidth = 1206;
var viewHeight = 198;
var sectionId = 'dynsection-1';
</script>
<script type="application/ecmascript" xlink:href="svg.min.js"/>
<svg id="graph" class="graph">
<g id="viewport">
<title>yaclib::detail::ReadyCore&lt; V, E &gt;</title>
<!-- Node1 -->
<g id="Node000001" class="node">
<title>Node1</title>
<g id="a_Node000001"><a xlink:title=" ">
<polygon fill="#999999" stroke="#666666" points="1197.75,-88.88 1077.5,-88.88 1077.5,-58.38 1197.75,-58.38 1197.75,-88.88"/>
<text text-anchor="start" x="1085.5" y="-75.38" font-family="Helvetica,sans-Serif" font-size="10.00">yaclib::detail::ReadyCore</text>
<text text-anchor="middle" x="1137.62" y="-64.12" font-family="Helvetica,sans-Serif" font-size="10.00">&lt; V, E &gt;</text>
</a>
</g>
</g>
<!-- Node2 -->
<g id="Node000002" class="node">
<title>Node2</title>
<g id="a_Node000002"><a xlink:href="classyaclib_1_1detail_1_1ResultCore.html" target="_top" xlink:title=" ">
<polygon fill="white" stroke="#666666" points="1040.5,-88.88 919.5,-88.88 919.5,-58.38 1040.5,-58.38 1040.5,-88.88"/>
<text text-anchor="start" x="927.5" y="-75.38" font-family="Helvetica,sans-Serif" font-size="10.00">yaclib::detail::ResultCore</text>
<text text-anchor="middle" x="980" y="-64.12" font-family="Helvetica,sans-Serif" font-size="10.00">&lt; V, E &gt;</text>
</a>
</g>
</g>
<!-- Node2&#45;&gt;Node1 -->
<g id="edge1_Node000001_Node000002" class="edge">
<title>Node2&#45;&gt;Node1</title>
<g id="a_edge1_Node000001_Node000002"><a xlink:title=" ">
<path fill="none" stroke="#63b8ff" d="M1052.03,-73.62C1060.4,-73.62 1068.87,-73.62 1077.06,-73.62"/>
<polygon fill="#63b8ff" stroke="#63b8ff" points="1052.24,-70.13 1042.24,-73.63 1052.24,-77.13 1052.24,-70.13"/>
</a>
</g>
</g>
<!-- Node3 -->
<g id="Node000003" class="node">
<title>Node3</title>
<g id="a_Node000003"><a xlink:href="classyaclib_1_1detail_1_1BaseCore.html" target="_top" xlink:title=" ">
<polygon fill="white" stroke="#666666" points="852,-99.25 736.25,-99.25 736.25,-80 852,-80 852,-99.25"/>
<text text-anchor="middle" x="794.12" y="-85.75" font-family="Helvetica,sans-Serif" font-size="10.00">yaclib::detail::BaseCore</text>
</a>
</g>
</g>
<!-- Node3&#45;&gt;Node2 -->
<g id="edge2_Node000002_Node000003" class="edge">
<title>Node3&#45;&gt;Node2</title>
<g id="a_edge2_Node000002_Node000003"><a xlink:title=" ">
<path fill="none" stroke="#63b8ff" d="M863.71,-83.66C881.87,-82.08 901.33,-80.38 919,-78.85"/>
<polygon fill="#63b8ff" stroke="#63b8ff" points="863.46,-80.17 853.8,-84.52 864.07,-87.14 863.46,-80.17"/>
</a>
</g>
</g>
<!-- Node4 -->
<g id="Node000004" class="node">
<title>Node4</title>
<g id="a_Node000004"><a xlink:href="classyaclib_1_1detail_1_1InlineCore.html" target="_top" xlink:title=" ">
<polygon fill="white" stroke="#666666" points="648.5,-56.25 532,-56.25 532,-37 648.5,-37 648.5,-56.25"/>
<text text-anchor="middle" x="590.25" y="-42.75" font-family="Helvetica,sans-Serif" font-size="10.00">yaclib::detail::InlineCore</text>
</a>
</g>
</g>
<!-- Node4&#45;&gt;Node3 -->
<g id="edge3_Node000003_Node000004" class="edge">
<title>Node4&#45;&gt;Node3</title>
<g id="a_edge3_Node000003_Node000004"><a xlink:title=" ">
<path fill="none" stroke="#63b8ff" d="M649.52,-59.04C680.05,-65.54 716.98,-73.41 745.74,-79.53"/>
<polygon fill="#63b8ff" stroke="#63b8ff" points="650.57,-55.68 640.06,-57.02 649.11,-62.53 650.57,-55.68"/>
</a>
</g>
</g>
<!-- Node5 -->
<g id="Node000005" class="node">
<title>Node5</title>
<g id="a_Node000005"><a xlink:href="classyaclib_1_1Job.html" target="_top" xlink:title="Callable that can be executed in an IExecutor.">
<polygon fill="white" stroke="#666666" points="388,-61.25 327,-61.25 327,-42 388,-42 388,-61.25"/>
<text text-anchor="middle" x="357.5" y="-47.75" font-family="Helvetica,sans-Serif" font-size="10.00">yaclib::Job</text>
</a>
</g>
</g>
<!-- Node5&#45;&gt;Node4 -->
<g id="edge4_Node000004_Node000005" class="edge">
<title>Node5&#45;&gt;Node4</title>
<g id="a_edge4_Node000004_Node000005"><a xlink:title=" ">
<path fill="none" stroke="#63b8ff" d="M399.48,-50.74C436.27,-49.94 490.66,-48.76 531.79,-47.87"/>
<polygon fill="#63b8ff" stroke="#63b8ff" points="399.63,-47.23 389.71,-50.95 399.78,-54.23 399.63,-47.23"/>
</a>
</g>
</g>
<!-- Node6 -->
<g id="Node000006" class="node">
<title>Node6</title>
<g id="a_Node000006"><a xlink:href="classyaclib_1_1IFunc.html" target="_top" xlink:title="Callable interface.">
<polygon fill="white" stroke="#666666" points="241.25,-61.25 171.25,-61.25 171.25,-42 241.25,-42 241.25,-61.25"/>
<text text-anchor="middle" x="206.25" y="-47.75" font-family="Helvetica,sans-Serif" font-size="10.00">yaclib::IFunc</text>
</a>
</g>
</g>
<!-- Node6&#45;&gt;Node5 -->
<g id="edge5_Node000005_Node000006" class="edge">
<title>Node6&#45;&gt;Node5</title>
<g id="a_edge5_Node000005_Node000006"><a xlink:title=" ">
<path fill="none" stroke="#63b8ff" d="M252.88,-51.62C276.96,-51.62 305.82,-51.62 326.95,-51.62"/>
<polygon fill="#63b8ff" stroke="#63b8ff" points="253,-48.13 243,-51.63 253,-55.13 253,-48.13"/>
</a>
</g>
</g>
<!-- Node7 -->
<g id="Node000007" class="node">
<title>Node7</title>
<g id="a_Node000007"><a xlink:href="classyaclib_1_1IRef.html" target="_top" xlink:title="Reference counting interface.">
<polygon fill="white" stroke="#666666" points="63.25,-124.25 0,-124.25 0,-105 63.25,-105 63.25,-124.25"/>
<text text-anchor="middle" x="31.62" y="-110.75" font-family="Helvetica,sans-Serif" font-size="10.00">yaclib::IRef</text>
</a>
</g>
</g>
<!-- Node7&#45;&gt;Node6 -->
<g id="edge6_Node000006_Node000007" class="edge">
<title>Node7&#45;&gt;Node6</title>
<g id="a_edge6_Node000006_Node000007"><a xlink:title=" ">
<path fill="none" stroke="#63b8ff" d="M68.39,-100.57C91.8,-91.49 123.1,-79.55 151,-69.62 158.48,-66.96 166.58,-64.21 174.19,-61.68"/>
<polygon fill="#63b8ff" stroke="#63b8ff" points="67.37,-97.21 59.32,-104.1 69.91,-103.74 67.37,-97.21"/>
</a>
</g>
</g>
<!-- Node15 -->
<g id="Node000015" class="node">
<title>Node15</title>
<g id="a_Node000015"><a xlink:href="structyaclib_1_1detail_1_1Callback.html" target="_top" xlink:title=" ">
<polygon fill="white" stroke="#666666" points="261.5,-176.25 151,-176.25 151,-157 261.5,-157 261.5,-176.25"/>
<text text-anchor="middle" x="206.25" y="-162.75" font-family="Helvetica,sans-Serif" font-size="10.00">yaclib::detail::Callback</text>
</a>
</g>
</g>
<!-- Node7&#45;&gt;Node15 -->
<g id="edge16_Node000015_Node000007" class="edge">
<title>Node7&#45;&gt;Node15</title>
<g id="a_edge16_Node000015_Node000007"><a xlink:title=" ">
<path fill="none" stroke="#9a32cd" stroke-dasharray="5,2" d="M74.41,-127.21C104.26,-136.2 143.91,-148.15 171.71,-156.52"/>
<polygon fill="#9a32cd" stroke="#9a32cd" points="75.52,-123.89 64.94,-124.36 73.5,-130.59 75.52,-123.89"/>
</a>
</g>
<text text-anchor="middle" x="107.12" y="-145.38" font-family="Helvetica,sans-Serif" font-size="10.00" fill="grey"> caller</text>
</g>
<!-- Node8 -->
<g id="Node000008" class="node">
<title>Node8</title>
<g id="a_Node000008"><a xlink:href="structyaclib_1_1detail_1_1Node.html" target="_top" xlink:title="Node class, used in intrusive data structure.">
<polygon fill="white" stroke="#666666" points="254.38,-98.25 158.12,-98.25 158.12,-79 254.38,-79 254.38,-98.25"/>
<text text-anchor="middle" x="206.25" y="-84.75" font-family="Helvetica,sans-Serif" font-size="10.00">yaclib::detail::Node</text>
</a>
</g>
</g>
<!-- Node8&#45;&gt;Node5 -->
<g id="edge7_Node000005_Node000008" class="edge">
<title>Node8&#45;&gt;Node5</title>
<g id="a_edge7_Node000005_Node000008"><a xlink:title=" ">
<path fill="none" stroke="#63b8ff" d="M259.16,-75.76C281.73,-70.16 307.36,-63.81 326.66,-59.02"/>
<polygon fill="#63b8ff" stroke="#63b8ff" points="258.37,-72.35 249.5,-78.15 260.05,-79.14 258.37,-72.35"/>
</a>
</g>
</g>
<!-- Node8&#45;&gt;Node8 -->
<g id="edge8_Node000008_Node000008" class="edge">
<title>Node8&#45;&gt;Node8</title>
<g id="a_edge8_Node000008_Node000008"><a xlink:title=" ">
<path fill="none" stroke="#9a32cd" stroke-dasharray="5,2" d="M193.16,-109.65C194.8,-113.53 199.16,-116.25 206.25,-116.25 219.21,-116.25 223.06,-107.15 217.8,-98.54"/>
<polygon fill="#9a32cd" stroke="#9a32cd" points="196.59,-110.42 194.5,-100.04 189.65,-109.46 196.59,-110.42"/>
</a>
</g>
<text text-anchor="middle" x="206.25" y="-118" font-family="Helvetica,sans-Serif" font-size="10.00" fill="grey"> next</text>
</g>
<!-- Node9 -->
<g id="Node000009" class="node">
<title>Node9</title>
<g id="a_Node000009"><a xlink:title=" ">
<polygon fill="white" stroke="#666666" points="647.75,-142.25 532.75,-142.25 532.75,-123 647.75,-123 647.75,-142.25"/>
<text text-anchor="middle" x="590.25" y="-128.75" font-family="Helvetica,sans-Serif" font-size="10.00">atomic&lt; std::uintptr_t &gt;</text>
</a>
</g>
</g>
<!-- Node9&#45;&gt;Node3 -->
<g id="edge9_Node000003_Node000009" class="edge">
<title>Node9&#45;&gt;Node3</title>
<g id="a_edge9_Node000003_Node000009"><a xlink:title=" ">
<path fill="none" stroke="#9a32cd" stroke-dasharray="5,2" d="M649.52,-120.21C680.05,-113.71 716.98,-105.84 745.74,-99.72"/>
<polygon fill="#9a32cd" stroke="#9a32cd" points="649.11,-116.72 640.06,-122.23 650.57,-123.57 649.11,-116.72"/>
</a>
</g>
<text text-anchor="middle" x="696.12" y="-116.38" font-family="Helvetica,sans-Serif" font-size="10.00" fill="grey"> _callback</text>
</g>
<!-- Node10 -->
<g id="Node000010" class="node">
<title>Node10</title>
<g id="a_Node000010"><a xlink:title=" ">
<polygon fill="white" stroke="#666666" points="380.12,-142.25 334.88,-142.25 334.88,-123 380.12,-123 380.12,-142.25"/>
<text text-anchor="middle" x="357.5" y="-128.75" font-family="Helvetica,sans-Serif" font-size="10.00">atomic</text>
</a>
</g>
</g>
<!-- Node10&#45;&gt;Node9 -->
<g id="edge10_Node000009_Node000010" class="edge">
<title>Node10&#45;&gt;Node9</title>
<g id="a_edge10_Node000009_Node000010"><a xlink:title=" ">
<path fill="none" stroke="orange" stroke-dasharray="5,2" d="M391.26,-132.62C427.98,-132.62 488.2,-132.62 532.59,-132.62"/>
<polygon fill="orange" stroke="orange" points="391.72,-129.13 381.72,-132.63 391.72,-136.13 391.72,-129.13"/>
</a>
</g>
<text text-anchor="middle" x="470.5" y="-134.38" font-family="Helvetica,sans-Serif" font-size="10.00" fill="grey"> &lt; std::uintptr_t &gt;</text>
</g>
<!-- Node11 -->
<g id="Node000011" class="node">
<title>Node11</title>
<g id="a_Node000011"><a xlink:href="classyaclib_1_1IntrusivePtr.html" target="_top" xlink:title=" ">
<polygon fill="white" stroke="#666666" points="638,-104.88 542.5,-104.88 542.5,-74.38 638,-74.38 638,-104.88"/>
<text text-anchor="start" x="550.5" y="-91.38" font-family="Helvetica,sans-Serif" font-size="10.00">yaclib::IntrusivePtr</text>
<text text-anchor="middle" x="590.25" y="-80.12" font-family="Helvetica,sans-Serif" font-size="10.00">&lt; IExecutor &gt;</text>
</a>
</g>
</g>
<!-- Node11&#45;&gt;Node3 -->
<g id="edge11_Node000003_Node000011" class="edge">
<title>Node11&#45;&gt;Node3</title>
<g id="a_edge11_Node000003_Node000011"><a xlink:title=" ">
<path fill="none" stroke="#9a32cd" stroke-dasharray="5,2" d="M649.62,-89.62C676.75,-89.62 708.9,-89.62 735.89,-89.62"/>
<polygon fill="#9a32cd" stroke="#9a32cd" points="649.84,-86.13 639.84,-89.63 649.84,-93.13 649.84,-86.13"/>
</a>
</g>
<text text-anchor="middle" x="696.12" y="-91.38" font-family="Helvetica,sans-Serif" font-size="10.00" fill="grey"> _executor</text>
</g>
<!-- Node12 -->
<g id="Node000012" class="node">
<title>Node12</title>
<g id="a_Node000012"><a xlink:href="classyaclib_1_1IntrusivePtr.html" target="_top" xlink:title="A intrusive pointer to objects with an embedded reference count.">
<polygon fill="white" stroke="#666666" points="416.5,-99.25 298.5,-99.25 298.5,-80 416.5,-80 416.5,-99.25"/>
<text text-anchor="middle" x="357.5" y="-85.75" font-family="Helvetica,sans-Serif" font-size="10.00">yaclib::IntrusivePtr&lt; T &gt;</text>
</a>
</g>
</g>
<!-- Node12&#45;&gt;Node11 -->
<g id="edge12_Node000011_Node000012" class="edge">
<title>Node12&#45;&gt;Node11</title>
<g id="a_edge12_Node000011_Node000012"><a xlink:title=" ">
<path fill="none" stroke="orange" stroke-dasharray="5,2" d="M427.94,-89.62C464.91,-89.62 509.4,-89.62 542.28,-89.62"/>
<polygon fill="orange" stroke="orange" points="428.24,-86.13 418.24,-89.63 428.24,-93.13 428.24,-86.13"/>
</a>
</g>
<text text-anchor="middle" x="470.5" y="-91.38" font-family="Helvetica,sans-Serif" font-size="10.00" fill="grey"> &lt; IExecutor &gt;</text>
</g>
<!-- Node13 -->
<g id="Node000013" class="node">
<title>Node13</title>
<g id="a_Node000013"><a xlink:href="classyaclib_1_1Result.html" target="_top" xlink:title=" ">
<polygon fill="white" stroke="#666666" points="847.88,-62.25 740.38,-62.25 740.38,-43 847.88,-43 847.88,-62.25"/>
<text text-anchor="middle" x="794.12" y="-48.75" font-family="Helvetica,sans-Serif" font-size="10.00">yaclib::Result&lt; V, E &gt;</text>
</a>
</g>
</g>
<!-- Node13&#45;&gt;Node2 -->
<g id="edge13_Node000002_Node000013" class="edge">
<title>Node13&#45;&gt;Node2</title>
<g id="a_edge13_Node000002_Node000013"><a xlink:title=" ">
<path fill="none" stroke="#9a32cd" stroke-dasharray="5,2" d="M859.49,-59.98C878.88,-62.19 900.07,-64.61 919.15,-66.79"/>
<polygon fill="#9a32cd" stroke="#9a32cd" points="860.15,-56.53 849.81,-58.87 859.35,-63.48 860.15,-56.53"/>
</a>
</g>
<text text-anchor="middle" x="885.75" y="-65.38" font-family="Helvetica,sans-Serif" font-size="10.00" fill="grey"> _result</text>
</g>
<!-- Node14 -->
<g id="Node000014" class="node">
<title>Node14</title>
<g id="a_Node000014"><a xlink:href="classyaclib_1_1Result.html" target="_top" xlink:title="Encapsulated return value from caller.">
<polygon fill="white" stroke="#666666" points="656,-19.25 524.5,-19.25 524.5,0 656,0 656,-19.25"/>
<text text-anchor="middle" x="590.25" y="-5.75" font-family="Helvetica,sans-Serif" font-size="10.00">yaclib::Result&lt; ValueT, E &gt;</text>
</a>
</g>
</g>
<!-- Node14&#45;&gt;Node13 -->
<g id="edge14_Node000013_Node000014" class="edge">
<title>Node14&#45;&gt;Node13</title>
<g id="a_edge14_Node000013_Node000014"><a xlink:title=" ">
<path fill="none" stroke="orange" stroke-dasharray="5,2" d="M649.52,-22.04C680.05,-28.54 716.98,-36.41 745.74,-42.53"/>
<polygon fill="orange" stroke="orange" points="650.57,-18.68 640.06,-20.02 649.11,-25.53 650.57,-18.68"/>
</a>
</g>
<text text-anchor="middle" x="696.12" y="-37.38" font-family="Helvetica,sans-Serif" font-size="10.00" fill="grey"> &lt; V, E &gt;</text>
</g>
<!-- Node15&#45;&gt;Node2 -->
<g id="edge15_Node000002_Node000015" class="edge">
<title>Node15&#45;&gt;Node2</title>
<g id="a_edge15_Node000002_Node000015"><a xlink:title=" ">
<path fill="none" stroke="#9a32cd" stroke-dasharray="5,2" d="M272.99,-174.2C298.96,-176.59 329.1,-178.62 356.5,-178.62 356.5,-178.62 356.5,-178.62 795.12,-178.62 866.44,-178.62 935.26,-118.33 964.42,-89.12"/>
<polygon fill="#9a32cd" stroke="#9a32cd" points="273.54,-170.74 263.26,-173.26 272.87,-177.7 273.54,-170.74"/>
</a>
</g>
<text text-anchor="middle" x="590.25" y="-180.38" font-family="Helvetica,sans-Serif" font-size="10.00" fill="grey"> _self</text>
</g>
<!-- Node16 -->
<g id="Node000016" class="node">
<title>Node16</title>
<g id="a_Node000016"><a xlink:title=" ">
<polygon fill="white" stroke="#666666" points="49,-176.25 14.25,-176.25 14.25,-157 49,-157 49,-176.25"/>
<text text-anchor="middle" x="31.62" y="-162.75" font-family="Helvetica,sans-Serif" font-size="10.00">char</text>
</a>
</g>
</g>
<!-- Node16&#45;&gt;Node15 -->
<g id="edge17_Node000015_Node000016" class="edge">
<title>Node16&#45;&gt;Node15</title>
<g id="a_edge17_Node000015_Node000016"><a xlink:title=" ">
<path fill="none" stroke="#9a32cd" stroke-dasharray="5,2" d="M60.72,-166.62C84.99,-166.62 120.76,-166.62 150.64,-166.62"/>
<polygon fill="#9a32cd" stroke="#9a32cd" points="61,-163.13 51,-166.63 61,-170.13 61,-163.13"/>
</a>
</g>
<text text-anchor="middle" x="107.12" y="-168.38" font-family="Helvetica,sans-Serif" font-size="10.00" fill="grey"> unwrapping</text>
</g>
<!-- Node17 -->
<g id="Node000017" class="node">
<title>Node17</title>
<g id="a_Node000017"><a xlink:title=" ">
<polygon fill="white" stroke="#666666" points="835.88,-25.25 752.38,-25.25 752.38,-6 835.88,-6 835.88,-25.25"/>
<text text-anchor="middle" x="794.12" y="-11.75" font-family="Helvetica,sans-Serif" font-size="10.00">anonymous:@1</text>
</a>
</g>
</g>
<!-- Node17&#45;&gt;Node2 -->
<g id="edge18_Node000002_Node000017" class="edge">
<title>Node17&#45;&gt;Node2</title>
<g id="a_edge18_Node000002_Node000017"><a xlink:title=" ">
<path fill="none" stroke="#9a32cd" stroke-dasharray="5,2" d="M844.85,-28.68C862.79,-33.62 883.14,-39.47 901.5,-45.38 913.36,-49.19 926.11,-53.67 937.78,-57.93"/>
<polygon fill="#9a32cd" stroke="#9a32cd" points="845.77,-25.3 835.2,-26.06 843.93,-32.06 845.77,-25.3"/>
</a>
</g>
<text text-anchor="middle" x="885.75" y="-46.38" font-family="Helvetica,sans-Serif" font-size="10.00" fill="grey"> @1</text>
</g>
</g>
</svg>

<g id="navigator" transform="translate(0 0)" fill="#404254">
  <rect fill="#f2f5e9" fill-opacity="0.5" stroke="#606060" stroke-width=".5" x="0" y="0" width="60" height="60"/>
  <use id="zoomplus" xlink:href="#zoomPlus" x="17" y="9" onmousedown="handleZoom(evt,'in')"/>
  <use id="zoomminus" xlink:href="#zoomMin" x="42" y="9" onmousedown="handleZoom(evt,'out')"/>
  <use id="reset" xlink:href="#resetDef" x="30" y="36" onmousedown="handleReset()"/>
   <use id="arrowup" xlink:href="#arrowUp" x="0" y="0" onmousedown="handlePan(0,-1)"/>
  <use id="arrowright" xlink:href="#arrowRight" x="0" y="0" onmousedown="handlePan(1,0)"/>
  <use id="arrowdown" xlink:href="#arrowDown" x="0" y="0" onmousedown="handlePan(0,1)"/>
  <use id="arrowleft" xlink:href="#arrowLeft" x="0" y="0" onmousedown="handlePan(-1,0)"/>
</g>
<svg viewBox="0 0 15 15" width="100%" height="30px" preserveAspectRatio="xMaxYMin meet">
 <g id="arrow_out" transform="scale(0.3 0.3)">
  <a xlink:href="classyaclib_1_1detail_1_1ReadyCore__coll__graph_org.svg" target="_base">
   <rect id="button" ry="5" rx="5" y="6" x="6" height="38" width="38"
        fill="#f2f5e9" fill-opacity="0.5" stroke="#606060" stroke-width="1.0"/>
   <path id="arrow"
     d="M 11.500037,31.436501 C 11.940474,20.09759 22.043105,11.32322 32.158766,21.979434 L 37.068811,17.246167 C 37.068811,17.246167 37.088388,32 37.088388,32 L 22.160133,31.978069 C 22.160133,31.978069 26.997745,27.140456 26.997745,27.140456 C 18.528582,18.264221 13.291696,25.230495 11.500037,31.436501 z"
     style="fill:#404040;"/>
  </a>
 </g>
</svg>

<style type='text/css'>
<![CDATA[
[data-mouse-over-selected='false'] { opacity: 0.7; }
[data-mouse-over-selected='true']  { opacity: 1.0; }
]]>
</style>
<script type="application/ecmascript"><![CDATA[
document.addEventListener('DOMContentLoaded', (event) => {
  highlightEdges();
  highlightAdjacentNodes();
});
]]></script>
</svg>
