<?xml version="1.0" encoding="UTF-8" standalone="no"?>
<!DOCTYPE svg PUBLIC "-//W3C//DTD SVG 1.1//EN"
 "http://www.w3.org/Graphics/SVG/1.1/DTD/svg11.dtd">
<!-- Generated by graphviz version 9.0.0 (20230911.1827)
 -->
<!-- Title: yaclib::IRef Pages: 1 -->
<svg width="1281pt" height="485pt"
 viewBox="0.00 0.00 1280.50 485.20" xmlns="http://www.w3.org/2000/svg" xmlns:xlink="http://www.w3.org/1999/xlink">
<g id="graph0" class="graph" transform="scale(1 1) rotate(0) translate(4 481.2)">
<title>yaclib::IRef</title>
<!-- Node1 -->
<g id="Node000001" class="node">
<title>Node1</title>
<g id="a_Node000001"><a xlink:title="Reference counting interface.">
<polygon fill="#999999" stroke="#666666" points="63.25,-327.88 0,-327.88 0,-308.62 63.25,-308.62 63.25,-327.88"/>
<text text-anchor="middle" x="31.62" y="-314.38" font-family="Helvetica,sans-Serif" font-size="10.00">yaclib::IRef</text>
</a>
</g>
</g>
<!-- Node2 -->
<g id="Node000002" class="node">
<title>Node2</title>
<g id="a_Node000002"><a xlink:href="classyaclib_1_1IExecutor.html" target="_top" xlink:title=" ">
<polygon fill="white" stroke="#666666" points="186,-393.88 100.25,-393.88 100.25,-374.62 186,-374.62 186,-393.88"/>
<text text-anchor="middle" x="143.12" y="-380.38" font-family="Helvetica,sans-Serif" font-size="10.00">yaclib::IExecutor</text>
</a>
</g>
</g>
<!-- Node1&#45;&gt;Node2 -->
<g id="edge1_Node000001_Node000002" class="edge">
<title>Node1&#45;&gt;Node2</title>
<g id="a_edge1_Node000001_Node000002"><a xlink:title=" ">
<path fill="none" stroke="#63b8ff" d="M58.99,-334.14C79.61,-346.57 107.67,-363.48 125.34,-374.13"/>
<polygon fill="#63b8ff" stroke="#63b8ff" points="60.92,-331.22 50.55,-329.06 57.31,-337.22 60.92,-331.22"/>
</a>
</g>
</g>
<!-- Node6 -->
<g id="Node000006" class="node">
<title>Node6</title>
<g id="a_Node000006"><a xlink:href="classyaclib_1_1IFunc.html" target="_top" xlink:title="Callable interface.">
<polygon fill="white" stroke="#666666" points="178.12,-303.88 108.12,-303.88 108.12,-284.62 178.12,-284.62 178.12,-303.88"/>
<text text-anchor="middle" x="143.12" y="-290.38" font-family="Helvetica,sans-Serif" font-size="10.00">yaclib::IFunc</text>
</a>
</g>
</g>
<!-- Node1&#45;&gt;Node6 -->
<g id="edge5_Node000001_Node000006" class="edge">
<title>Node1&#45;&gt;Node6</title>
<g id="a_edge5_Node000001_Node000006"><a xlink:title=" ">
<path fill="none" stroke="#63b8ff" d="M74.79,-309.01C85.74,-306.61 97.4,-304.05 107.89,-301.75"/>
<polygon fill="#63b8ff" stroke="#63b8ff" points="74.21,-305.55 65.19,-311.11 75.71,-312.39 74.21,-305.55"/>
</a>
</g>
</g>
<!-- Node3 -->
<g id="Node000003" class="node">
<title>Node3</title>
<g id="a_Node000003"><a xlink:href="classyaclib_1_1FairThreadPool.html" target="_top" xlink:title="TODO(kononovk) Doxygen docs.">
<polygon fill="white" stroke="#666666" points="341.38,-449.88 230.12,-449.88 230.12,-430.62 341.38,-430.62 341.38,-449.88"/>
<text text-anchor="middle" x="285.75" y="-436.38" font-family="Helvetica,sans-Serif" font-size="10.00">yaclib::FairThreadPool</text>
</a>
</g>
</g>
<!-- Node2&#45;&gt;Node3 -->
<g id="edge2_Node000002_Node000003" class="edge">
<title>Node2&#45;&gt;Node3</title>
<g id="a_edge2_Node000002_Node000003"><a xlink:title=" ">
<path fill="none" stroke="#63b8ff" d="M172.87,-399.52C187.61,-406.97 205.98,-415.72 223,-422.25 230.51,-425.13 238.68,-427.81 246.54,-430.18"/>
<polygon fill="#63b8ff" stroke="#63b8ff" points="174.7,-396.52 164.21,-395.06 171.5,-402.75 174.7,-396.52"/>
</a>
</g>
</g>
<!-- Node4 -->
<g id="Node000004" class="node">
<title>Node4</title>
<g id="a_Node000004"><a xlink:href="classyaclib_1_1ManualExecutor.html" target="_top" xlink:title="TODO(mkornaukhov03) Doxygen.">
<polygon fill="white" stroke="#666666" points="342.88,-412.88 228.62,-412.88 228.62,-393.62 342.88,-393.62 342.88,-412.88"/>
<text text-anchor="middle" x="285.75" y="-399.38" font-family="Helvetica,sans-Serif" font-size="10.00">yaclib::ManualExecutor</text>
</a>
</g>
</g>
<!-- Node2&#45;&gt;Node4 -->
<g id="edge3_Node000002_Node000004" class="edge">
<title>Node2&#45;&gt;Node4</title>
<g id="a_edge3_Node000002_Node000004"><a xlink:title=" ">
<path fill="none" stroke="#63b8ff" d="M197.44,-391.45C207.52,-392.82 218.1,-394.24 228.28,-395.62"/>
<polygon fill="#63b8ff" stroke="#63b8ff" points="198.2,-388.02 187.82,-390.15 197.26,-394.96 198.2,-388.02"/>
</a>
</g>
</g>
<!-- Node5 -->
<g id="Node000005" class="node">
<title>Node5</title>
<g id="a_Node000005"><a xlink:href="classyaclib_1_1Strand.html" target="_top" xlink:title=" ">
<polygon fill="white" stroke="#666666" points="482.12,-374.88 408.38,-374.88 408.38,-355.62 482.12,-355.62 482.12,-374.88"/>
<text text-anchor="middle" x="445.25" y="-361.38" font-family="Helvetica,sans-Serif" font-size="10.00">yaclib::Strand</text>
</a>
</g>
</g>
<!-- Node2&#45;&gt;Node5 -->
<g id="edge4_Node000002_Node000005" class="edge">
<title>Node2&#45;&gt;Node5</title>
<g id="a_edge4_Node000002_Node000005"><a xlink:title=" ">
<path fill="none" stroke="#63b8ff" d="M197.76,-380.85C258.53,-377.01 355.89,-370.84 408.21,-367.53"/>
<polygon fill="#63b8ff" stroke="#63b8ff" points="197.76,-377.35 188,-381.47 198.2,-384.33 197.76,-377.35"/>
</a>
</g>
</g>
<!-- Node7 -->
<g id="Node000007" class="node">
<title>Node7</title>
<g id="a_Node000007"><a xlink:href="classyaclib_1_1Job.html" target="_top" xlink:title="Callable that can be executed in an IExecutor.">
<polygon fill="white" stroke="#666666" points="316.25,-303.88 255.25,-303.88 255.25,-284.62 316.25,-284.62 316.25,-303.88"/>
<text text-anchor="middle" x="285.75" y="-290.38" font-family="Helvetica,sans-Serif" font-size="10.00">yaclib::Job</text>
</a>
</g>
</g>
<!-- Node6&#45;&gt;Node7 -->
<g id="edge6_Node000006_Node000007" class="edge">
<title>Node6&#45;&gt;Node7</title>
<g id="a_edge6_Node000006_Node000007"><a xlink:title=" ">
<path fill="none" stroke="#63b8ff" d="M189.98,-294.25C211.33,-294.25 236.12,-294.25 254.99,-294.25"/>
<polygon fill="#63b8ff" stroke="#63b8ff" points="190.04,-290.75 180.04,-294.25 190.04,-297.75 190.04,-290.75"/>
</a>
</g>
</g>
<!-- Node30 -->
<g id="Node000030" class="node">
<title>Node30</title>
<g id="a_Node000030"><a xlink:href="classyaclib_1_1detail_1_1SharedFunc.html" target="_top" xlink:title=" ">
<polygon fill="white" stroke="#666666" points="348.5,-266.5 223,-266.5 223,-236 348.5,-236 348.5,-266.5"/>
<text text-anchor="start" x="231" y="-253" font-family="Helvetica,sans-Serif" font-size="10.00">yaclib::detail::SharedFunc</text>
<text text-anchor="middle" x="285.75" y="-241.75" font-family="Helvetica,sans-Serif" font-size="10.00">&lt; Func &gt;</text>
</a>
</g>
</g>
<!-- Node6&#45;&gt;Node30 -->
<g id="edge32_Node000006_Node000030" class="edge">
<title>Node6&#45;&gt;Node30</title>
<g id="a_edge32_Node000006_Node000030"><a xlink:title=" ">
<path fill="none" stroke="#63b8ff" d="M187.73,-280.92C202.15,-276.51 218.32,-271.56 233.27,-266.99"/>
<polygon fill="#63b8ff" stroke="#63b8ff" points="187.08,-277.45 178.54,-283.73 189.13,-284.15 187.08,-277.45"/>
</a>
</g>
</g>
<!-- Node7&#45;&gt;Node5 -->
<g id="edge9_Node000007_Node000005" class="edge">
<title>Node7&#45;&gt;Node5</title>
<g id="a_edge9_Node000007_Node000005"><a xlink:title=" ">
<path fill="none" stroke="#8b1a1a" d="M313.43,-309.9C332.96,-320.97 360.34,-335.65 385.5,-346.25 393.21,-349.5 401.67,-352.53 409.71,-355.18"/>
<polygon fill="#8b1a1a" stroke="#8b1a1a" points="315.17,-306.87 304.76,-304.93 311.69,-312.94 315.17,-306.87"/>
</a>
</g>
</g>
<!-- Node8 -->
<g id="Node000008" class="node">
<title>Node8</title>
<g id="a_Node000008"><a xlink:href="structyaclib_1_1OneShotEvent_1_1TimedWaiter.html" target="_top" xlink:title="Public only because Waiter is public.">
<polygon fill="white" stroke="#666666" points="499.38,-337.5 391.12,-337.5 391.12,-307 499.38,-307 499.38,-337.5"/>
<text text-anchor="start" x="399.12" y="-324" font-family="Helvetica,sans-Serif" font-size="10.00">yaclib::OneShotEvent</text>
<text text-anchor="middle" x="445.25" y="-312.75" font-family="Helvetica,sans-Serif" font-size="10.00">::TimedWaiter</text>
</a>
</g>
</g>
<!-- Node7&#45;&gt;Node8 -->
<g id="edge7_Node000007_Node000008" class="edge">
<title>Node7&#45;&gt;Node8</title>
<g id="a_edge7_Node000007_Node000008"><a xlink:title=" ">
<path fill="none" stroke="#63b8ff" d="M327.85,-301.56C347.08,-304.97 370.21,-309.09 390.77,-312.74"/>
<polygon fill="#63b8ff" stroke="#63b8ff" points="328.69,-298.15 318.24,-299.85 327.47,-305.04 328.69,-298.15"/>
</a>
</g>
</g>
<!-- Node9 -->
<g id="Node000009" class="node">
<title>Node9</title>
<g id="a_Node000009"><a xlink:href="structyaclib_1_1OneShotEvent_1_1Waiter.html" target="_top" xlink:title="Waiter is public for advanced users.">
<polygon fill="white" stroke="#666666" points="499.38,-288.5 391.12,-288.5 391.12,-258 499.38,-258 499.38,-288.5"/>
<text text-anchor="start" x="399.12" y="-275" font-family="Helvetica,sans-Serif" font-size="10.00">yaclib::OneShotEvent</text>
<text text-anchor="middle" x="445.25" y="-263.75" font-family="Helvetica,sans-Serif" font-size="10.00">::Waiter</text>
</a>
</g>
</g>
<!-- Node7&#45;&gt;Node9 -->
<g id="edge8_Node000007_Node000009" class="edge">
<title>Node7&#45;&gt;Node9</title>
<g id="a_edge8_Node000007_Node000009"><a xlink:title=" ">
<path fill="none" stroke="#63b8ff" d="M328.13,-288.73C347.29,-286.18 370.31,-283.11 390.77,-280.38"/>
<polygon fill="#63b8ff" stroke="#63b8ff" points="327.7,-285.26 318.25,-290.05 328.62,-292.2 327.7,-285.26"/>
</a>
</g>
</g>
<!-- Node10 -->
<g id="Node000010" class="node">
<title>Node10</title>
<g id="a_Node000010"><a xlink:href="classyaclib_1_1detail_1_1InlineCore.html" target="_top" xlink:title=" ">
<polygon fill="white" stroke="#666666" points="503.5,-239.88 387,-239.88 387,-220.62 503.5,-220.62 503.5,-239.88"/>
<text text-anchor="middle" x="445.25" y="-226.38" font-family="Helvetica,sans-Serif" font-size="10.00">yaclib::detail::InlineCore</text>
</a>
</g>
</g>
<!-- Node7&#45;&gt;Node10 -->
<g id="edge10_Node000007_Node000010" class="edge">
<title>Node7&#45;&gt;Node10</title>
<g id="a_edge10_Node000007_Node000010"><a xlink:title=" ">
<path fill="none" stroke="#63b8ff" d="M327.66,-283.66C334.76,-281.26 341.96,-278.46 348.5,-275.25 366.55,-266.41 367.51,-258.22 385.5,-249.25 392.31,-245.85 399.86,-242.88 407.22,-240.35"/>
<polygon fill="#63b8ff" stroke="#63b8ff" points="326.63,-280.31 318.13,-286.64 328.72,-286.99 326.63,-280.31"/>
</a>
</g>
</g>
<!-- Node29 -->
<g id="Node000029" class="node">
<title>Node29</title>
<g id="a_Node000029"><a xlink:href="classyaclib_1_1detail_1_1UniqueJob.html" target="_top" xlink:title=" ">
<polygon fill="white" stroke="#666666" points="505,-202.5 385.5,-202.5 385.5,-172 505,-172 505,-202.5"/>
<text text-anchor="start" x="393.5" y="-189" font-family="Helvetica,sans-Serif" font-size="10.00">yaclib::detail::UniqueJob</text>
<text text-anchor="middle" x="445.25" y="-177.75" font-family="Helvetica,sans-Serif" font-size="10.00">&lt; Func &gt;</text>
</a>
</g>
</g>
<!-- Node7&#45;&gt;Node29 -->
<g id="edge31_Node000007_Node000029" class="edge">
<title>Node7&#45;&gt;Node29</title>
<g id="a_edge31_Node000007_Node000029"><a xlink:title=" ">
<path fill="none" stroke="#63b8ff" d="M327.49,-286.47C334.98,-283.77 342.37,-280.13 348.5,-275.25 374.2,-254.78 360.74,-232.85 385.5,-211.25 389.07,-208.14 393.1,-205.39 397.33,-202.98"/>
<polygon fill="#63b8ff" stroke="#63b8ff" points="326.55,-283.09 318,-289.35 328.59,-289.79 326.55,-283.09"/>
</a>
</g>
</g>
<!-- Node11 -->
<g id="Node000011" class="node">
<title>Node11</title>
<g id="a_Node000011"><a xlink:href="classyaclib_1_1detail_1_1AwaitOnEvent.html" target="_top" xlink:title=" ">
<polygon fill="white" stroke="#666666" points="899.5,-474.5 764.25,-474.5 764.25,-444 899.5,-444 899.5,-474.5"/>
<text text-anchor="start" x="772.25" y="-461" font-family="Helvetica,sans-Serif" font-size="10.00">yaclib::detail::AwaitOnEvent</text>
<text text-anchor="middle" x="831.88" y="-449.75" font-family="Helvetica,sans-Serif" font-size="10.00">&lt; true &gt;</text>
</a>
</g>
</g>
<!-- Node10&#45;&gt;Node11 -->
<g id="edge11_Node000010_Node000011" class="edge">
<title>Node10&#45;&gt;Node11</title>
<g id="a_edge11_Node000010_Node000011"><a xlink:title=" ">
<path fill="none" stroke="#63b8ff" d="M503.24,-247.27C503.85,-247.91 504.44,-248.57 505,-249.25 526.34,-275.17 513.52,-367.04 523,-399.25 528.45,-417.75 526.03,-427.44 542,-438.25 607.37,-482.51 701.21,-480.38 764.01,-472.11"/>
<polygon fill="#63b8ff" stroke="#63b8ff" points="505.46,-244.57 495.42,-241.2 501.17,-250.09 505.46,-244.57"/>
</a>
</g>
</g>
<!-- Node12 -->
<g id="Node000012" class="node">
<title>Node12</title>
<g id="a_Node000012"><a xlink:href="classyaclib_1_1detail_1_1AwaitOnEvent.html" target="_top" xlink:title=" ">
<polygon fill="white" stroke="#666666" points="899.5,-403.5 764.25,-403.5 764.25,-373 899.5,-373 899.5,-403.5"/>
<text text-anchor="start" x="772.25" y="-390" font-family="Helvetica,sans-Serif" font-size="10.00">yaclib::detail::AwaitOnEvent</text>
<text text-anchor="middle" x="831.88" y="-378.75" font-family="Helvetica,sans-Serif" font-size="10.00">&lt; false &gt;</text>
</a>
</g>
</g>
<!-- Node10&#45;&gt;Node12 -->
<g id="edge12_Node000010_Node000012" class="edge">
<title>Node10&#45;&gt;Node12</title>
<g id="a_edge12_Node000010_Node000012"><a xlink:title=" ">
<path fill="none" stroke="#63b8ff" d="M501.66,-246.33C502.82,-247.25 503.94,-248.22 505,-249.25 539.94,-283.09 504.02,-321.86 542,-352.25 575.19,-378.82 689.53,-386.01 764.02,-387.82"/>
<polygon fill="#63b8ff" stroke="#63b8ff" points="503.58,-243.41 493.25,-241.06 499.87,-249.34 503.58,-243.41"/>
</a>
</g>
</g>
<!-- Node13 -->
<g id="Node000013" class="node">
<title>Node13</title>
<g id="a_Node000013"><a xlink:href="classyaclib_1_1detail_1_1AllCombinator.html" target="_top" xlink:title=" ">
<polygon fill="white" stroke="#666666" points="682.12,-343.5 548.38,-343.5 548.38,-313 682.12,-313 682.12,-343.5"/>
<text text-anchor="start" x="556.38" y="-330" font-family="Helvetica,sans-Serif" font-size="10.00">yaclib::detail::AllCombinator</text>
<text text-anchor="middle" x="615.25" y="-318.75" font-family="Helvetica,sans-Serif" font-size="10.00">&lt; O, R, E &gt;</text>
</a>
</g>
</g>
<!-- Node10&#45;&gt;Node13 -->
<g id="edge13_Node000010_Node000013" class="edge">
<title>Node10&#45;&gt;Node13</title>
<g id="a_edge13_Node000010_Node000013"><a xlink:title=" ">
<path fill="none" stroke="#63b8ff" d="M498.82,-245.19C500.98,-246.44 503.05,-247.79 505,-249.25 528.31,-266.66 518.87,-285.61 542,-303.25 546.75,-306.87 552.06,-309.99 557.59,-312.68"/>
<polygon fill="#63b8ff" stroke="#63b8ff" points="500.86,-242.3 490.35,-241.01 497.77,-248.57 500.86,-242.3"/>
</a>
</g>
</g>
<!-- Node14 -->
<g id="Node000014" class="node">
<title>Node14</title>
<g id="a_Node000014"><a xlink:href="classyaclib_1_1detail_1_1AllCombinator_3_01OrderPolicy_1_1Same_00_01R_00_01E_01_4.html" target="_top" xlink:title=" ">
<polygon fill="white" stroke="#666666" points="683.25,-294.5 547.25,-294.5 547.25,-264 683.25,-264 683.25,-294.5"/>
<text text-anchor="start" x="555.25" y="-281" font-family="Helvetica,sans-Serif" font-size="10.00">yaclib::detail::AllCombinator</text>
<text text-anchor="middle" x="615.25" y="-269.75" font-family="Helvetica,sans-Serif" font-size="10.00">&lt; OrderPolicy::Same, R, E &gt;</text>
</a>
</g>
</g>
<!-- Node10&#45;&gt;Node14 -->
<g id="edge14_Node000010_Node000014" class="edge">
<title>Node10&#45;&gt;Node14</title>
<g id="a_edge14_Node000010_Node000014"><a xlink:title=" ">
<path fill="none" stroke="#63b8ff" d="M491.63,-243.49C512.83,-249.67 538.21,-257.07 560.38,-263.54"/>
<polygon fill="#63b8ff" stroke="#63b8ff" points="492.69,-240.15 482.11,-240.71 490.73,-246.87 492.69,-240.15"/>
</a>
</g>
</g>
<!-- Node15 -->
<g id="Node000015" class="node">
<title>Node15</title>
<g id="a_Node000015"><a xlink:href="classyaclib_1_1detail_1_1AnyCombinator.html" target="_top" xlink:title=" ">
<polygon fill="white" stroke="#666666" points="684.75,-245.5 545.75,-245.5 545.75,-215 684.75,-215 684.75,-245.5"/>
<text text-anchor="start" x="553.75" y="-232" font-family="Helvetica,sans-Serif" font-size="10.00">yaclib::detail::AnyCombinator</text>
<text text-anchor="middle" x="615.25" y="-220.75" font-family="Helvetica,sans-Serif" font-size="10.00">&lt; V, E, P &gt;</text>
</a>
</g>
</g>
<!-- Node10&#45;&gt;Node15 -->
<g id="edge15_Node000010_Node000015" class="edge">
<title>Node10&#45;&gt;Node15</title>
<g id="a_edge15_Node000010_Node000015"><a xlink:title=" ">
<path fill="none" stroke="#63b8ff" d="M515.11,-230.25C525.06,-230.25 535.31,-230.25 545.26,-230.25"/>
<polygon fill="#63b8ff" stroke="#63b8ff" points="515.11,-226.75 505.11,-230.25 515.11,-233.75 515.11,-226.75"/>
</a>
</g>
</g>
<!-- Node16 -->
<g id="Node000016" class="node">
<title>Node16</title>
<g id="a_Node000016"><a xlink:href="classyaclib_1_1detail_1_1AwaitEvent.html" target="_top" xlink:title=" ">
<polygon fill="white" stroke="#666666" points="676.5,-196.88 554,-196.88 554,-177.62 676.5,-177.62 676.5,-196.88"/>
<text text-anchor="middle" x="615.25" y="-183.38" font-family="Helvetica,sans-Serif" font-size="10.00">yaclib::detail::AwaitEvent</text>
</a>
</g>
</g>
<!-- Node10&#45;&gt;Node16 -->
<g id="edge16_Node000010_Node000016" class="edge">
<title>Node10&#45;&gt;Node16</title>
<g id="a_edge16_Node000010_Node000016"><a xlink:title=" ">
<path fill="none" stroke="#63b8ff" d="M496.76,-217.32C521.77,-210.92 551.51,-203.31 574.82,-197.34"/>
<polygon fill="#63b8ff" stroke="#63b8ff" points="495.92,-213.92 487.1,-219.79 497.66,-220.7 495.92,-213.92"/>
</a>
</g>
</g>
<!-- Node17 -->
<g id="Node000017" class="node">
<title>Node17</title>
<g id="a_Node000017"><a xlink:href="classyaclib_1_1detail_1_1AwaitOnEvent.html" target="_top" xlink:title=" ">
<polygon fill="white" stroke="#666666" points="682.88,-429.5 547.62,-429.5 547.62,-399 682.88,-399 682.88,-429.5"/>
<text text-anchor="start" x="555.62" y="-416" font-family="Helvetica,sans-Serif" font-size="10.00">yaclib::detail::AwaitOnEvent</text>
<text text-anchor="middle" x="615.25" y="-404.75" font-family="Helvetica,sans-Serif" font-size="10.00">&lt; Single &gt;</text>
</a>
</g>
</g>
<!-- Node10&#45;&gt;Node17 -->
<g id="edge17_Node000010_Node000017" class="edge">
<title>Node10&#45;&gt;Node17</title>
<g id="a_edge17_Node000010_Node000017"><a xlink:title=" ">
<path fill="none" stroke="#63b8ff" d="M503.23,-247.28C503.84,-247.92 504.43,-248.57 505,-249.25 544.04,-296.09 483.85,-338.51 523,-385.25 529.51,-393.02 538.1,-398.74 547.41,-402.93"/>
<polygon fill="#63b8ff" stroke="#63b8ff" points="505.43,-244.56 495.38,-241.23 501.16,-250.11 505.43,-244.56"/>
</a>
</g>
</g>
<!-- Node18 -->
<g id="Node000018" class="node">
<title>Node18</title>
<g id="a_Node000018"><a xlink:href="classyaclib_1_1detail_1_1BaseCore.html" target="_top" xlink:title=" ">
<polygon fill="white" stroke="#666666" points="673.12,-159.88 557.38,-159.88 557.38,-140.62 673.12,-140.62 673.12,-159.88"/>
<text text-anchor="middle" x="615.25" y="-146.38" font-family="Helvetica,sans-Serif" font-size="10.00">yaclib::detail::BaseCore</text>
</a>
</g>
</g>
<!-- Node10&#45;&gt;Node18 -->
<g id="edge20_Node000010_Node000018" class="edge">
<title>Node10&#45;&gt;Node18</title>
<g id="a_edge20_Node000010_Node000018"><a xlink:title=" ">
<path fill="none" stroke="#63b8ff" d="M497.89,-215.43C500.35,-214.14 502.74,-212.75 505,-211.25 526,-197.3 520.54,-181.48 542,-168.25 547.17,-165.06 552.88,-162.44 558.75,-160.28"/>
<polygon fill="#63b8ff" stroke="#63b8ff" points="496.47,-212.23 488.79,-219.53 499.35,-218.61 496.47,-212.23"/>
</a>
</g>
</g>
<!-- Node25 -->
<g id="Node000025" class="node">
<title>Node25</title>
<g id="a_Node000025"><a xlink:href="structyaclib_1_1detail_1_1CallCallback.html" target="_top" xlink:title=" ">
<polygon fill="white" stroke="#666666" points="678.75,-122.5 551.75,-122.5 551.75,-92 678.75,-92 678.75,-122.5"/>
<text text-anchor="start" x="559.75" y="-109" font-family="Helvetica,sans-Serif" font-size="10.00">yaclib::detail::CallCallback</text>
<text text-anchor="middle" x="615.25" y="-97.75" font-family="Helvetica,sans-Serif" font-size="10.00">&lt; Derived &gt;</text>
</a>
</g>
</g>
<!-- Node10&#45;&gt;Node25 -->
<g id="edge27_Node000010_Node000025" class="edge">
<title>Node10&#45;&gt;Node25</title>
<g id="a_edge27_Node000010_Node000025"><a xlink:title=" ">
<path fill="none" stroke="#63b8ff" d="M500.97,-214.45C502.37,-213.45 503.72,-212.38 505,-211.25 534.32,-185.27 512.79,-157.35 542,-131.25 545.55,-128.08 549.53,-125.33 553.75,-122.94"/>
<polygon fill="#63b8ff" stroke="#63b8ff" points="499.27,-211.39 492.37,-219.43 502.78,-217.45 499.27,-211.39"/>
</a>
</g>
</g>
<!-- Node26 -->
<g id="Node000026" class="node">
<title>Node26</title>
<g id="a_Node000026"><a xlink:href="structyaclib_1_1detail_1_1DropCallback.html" target="_top" xlink:title=" ">
<polygon fill="white" stroke="#666666" points="680.62,-73.5 549.88,-73.5 549.88,-43 680.62,-43 680.62,-73.5"/>
<text text-anchor="start" x="557.88" y="-60" font-family="Helvetica,sans-Serif" font-size="10.00">yaclib::detail::DropCallback</text>
<text text-anchor="middle" x="615.25" y="-48.75" font-family="Helvetica,sans-Serif" font-size="10.00">&lt; Derived &gt;</text>
</a>
</g>
</g>
<!-- Node10&#45;&gt;Node26 -->
<g id="edge28_Node000010_Node000026" class="edge">
<title>Node10&#45;&gt;Node26</title>
<g id="a_edge28_Node000010_Node000026"><a xlink:title=" ">
<path fill="none" stroke="#63b8ff" d="M502.25,-213.84C503.2,-213.02 504.12,-212.15 505,-211.25 525.61,-189.99 521.61,-104.72 542,-83.25 545.47,-79.59 549.51,-76.47 553.86,-73.8"/>
<polygon fill="#63b8ff" stroke="#63b8ff" points="500.4,-210.86 494.03,-219.33 504.29,-216.68 500.4,-210.86"/>
</a>
</g>
</g>
<!-- Node27 -->
<g id="Node000027" class="node">
<title>Node27</title>
<g id="a_Node000027"><a xlink:href="classyaclib_1_1detail_1_1SharedBaseCore.html" target="_top" xlink:title=" ">
<polygon fill="white" stroke="#666666" points="688.5,-24.88 542,-24.88 542,-5.62 688.5,-5.62 688.5,-24.88"/>
<text text-anchor="middle" x="615.25" y="-11.38" font-family="Helvetica,sans-Serif" font-size="10.00">yaclib::detail::SharedBaseCore</text>
</a>
</g>
</g>
<!-- Node10&#45;&gt;Node27 -->
<g id="edge29_Node000010_Node000027" class="edge">
<title>Node10&#45;&gt;Node27</title>
<g id="a_edge29_Node000010_Node000027"><a xlink:title=" ">
<path fill="none" stroke="#63b8ff" d="M502.4,-213.87C503.31,-213.04 504.18,-212.17 505,-211.25 531.86,-181.36 514.32,-63.38 542,-34.25 545.39,-30.68 549.37,-27.75 553.69,-25.35"/>
<polygon fill="#63b8ff" stroke="#63b8ff" points="500.72,-210.77 494.57,-219.4 504.76,-216.49 500.72,-210.77"/>
</a>
</g>
</g>
<!-- Node17&#45;&gt;Node11 -->
<g id="edge18_Node000017_Node000011" class="edge">
<title>Node17&#45;&gt;Node11</title>
<g id="a_edge18_Node000017_Node000011"><a xlink:title=" ">
<path fill="none" stroke="orange" stroke-dasharray="5,2" d="M694.29,-428.49C711.44,-431.79 729.48,-435.4 746.25,-439 752.9,-440.43 759.82,-441.98 766.72,-443.57"/>
<polygon fill="orange" stroke="orange" points="695.14,-425.09 684.66,-426.66 693.83,-431.97 695.14,-425.09"/>
</a>
</g>
<text text-anchor="middle" x="726.38" y="-440" font-family="Helvetica,sans-Serif" font-size="10.00" fill="grey"> &lt; true &gt;</text>
</g>
<!-- Node17&#45;&gt;Node12 -->
<g id="edge19_Node000017_Node000012" class="edge">
<title>Node17&#45;&gt;Node12</title>
<g id="a_edge19_Node000017_Node000012"><a xlink:title=" ">
<path fill="none" stroke="orange" stroke-dasharray="5,2" d="M694.63,-404.76C717.38,-402 742.01,-399.02 763.99,-396.35"/>
<polygon fill="orange" stroke="orange" points="694.28,-401.27 684.78,-405.95 695.13,-408.22 694.28,-401.27"/>
</a>
</g>
<text text-anchor="middle" x="726.38" y="-404" font-family="Helvetica,sans-Serif" font-size="10.00" fill="grey"> &lt; false &gt;</text>
</g>
<!-- Node19 -->
<g id="Node000019" class="node">
<title>Node19</title>
<g id="a_Node000019"><a xlink:href="classyaclib_1_1detail_1_1NoResultCore.html" target="_top" xlink:title=" ">
<polygon fill="white" stroke="#666666" points="898.75,-180.88 765,-180.88 765,-161.62 898.75,-161.62 898.75,-180.88"/>
<text text-anchor="middle" x="831.88" y="-167.38" font-family="Helvetica,sans-Serif" font-size="10.00">yaclib::detail::NoResultCore</text>
</a>
</g>
</g>
<!-- Node18&#45;&gt;Node19 -->
<g id="edge21_Node000018_Node000019" class="edge">
<title>Node18&#45;&gt;Node19</title>
<g id="a_edge21_Node000018_Node000019"><a xlink:title=" ">
<path fill="none" stroke="#63b8ff" d="M684.61,-156.94C710.22,-159.44 739.26,-162.29 764.68,-164.77"/>
<polygon fill="#63b8ff" stroke="#63b8ff" points="685.28,-153.49 674.99,-156 684.6,-160.45 685.28,-153.49"/>
</a>
</g>
</g>
<!-- Node20 -->
<g id="Node000020" class="node">
<title>Node20</title>
<g id="a_Node000020"><a xlink:href="classyaclib_1_1detail_1_1ResultCore.html" target="_top" xlink:title=" ">
<polygon fill="white" stroke="#666666" points="892.38,-143.5 771.38,-143.5 771.38,-113 892.38,-113 892.38,-143.5"/>
<text text-anchor="start" x="779.38" y="-130" font-family="Helvetica,sans-Serif" font-size="10.00">yaclib::detail::ResultCore</text>
<text text-anchor="middle" x="831.88" y="-118.75" font-family="Helvetica,sans-Serif" font-size="10.00">&lt; V, E &gt;</text>
</a>
</g>
</g>
<!-- Node18&#45;&gt;Node20 -->
<g id="edge22_Node000018_Node000020" class="edge">
<title>Node18&#45;&gt;Node20</title>
<g id="a_edge22_Node000018_Node000020"><a xlink:title=" ">
<path fill="none" stroke="#63b8ff" d="M684.72,-143.23C712.52,-140.38 744.34,-137.12 771.18,-134.37"/>
<polygon fill="#63b8ff" stroke="#63b8ff" points="684.58,-139.73 674.99,-144.23 685.29,-146.69 684.58,-139.73"/>
</a>
</g>
</g>
<!-- Node21 -->
<g id="Node000021" class="node">
<title>Node21</title>
<g id="a_Node000021"><a xlink:href="structyaclib_1_1detail_1_1OneCounter.html" target="_top" xlink:title=" ">
<polygon fill="white" stroke="#666666" points="1105.5,-203.12 936.5,-203.12 936.5,-161.38 1105.5,-161.38 1105.5,-203.12"/>
<text text-anchor="start" x="944.5" y="-189.62" font-family="Helvetica,sans-Serif" font-size="10.00">yaclib::detail::OneCounter</text>
<text text-anchor="start" x="944.5" y="-178.38" font-family="Helvetica,sans-Serif" font-size="10.00">&lt; ResultCore&lt; V, E &gt;, PromiseType</text>
<text text-anchor="middle" x="1021" y="-167.12" font-family="Helvetica,sans-Serif" font-size="10.00">Deleter&lt; Lazy &gt; &gt;</text>
</a>
</g>
</g>
<!-- Node20&#45;&gt;Node21 -->
<g id="edge23_Node000020_Node000021" class="edge">
<title>Node20&#45;&gt;Node21</title>
<g id="a_edge23_Node000020_Node000021"><a xlink:title=" ">
<path fill="none" stroke="#63b8ff" d="M898.25,-147.12C913.67,-151.57 930.22,-156.34 945.99,-160.89"/>
<polygon fill="#63b8ff" stroke="#63b8ff" points="899.28,-143.77 888.7,-144.36 897.34,-150.5 899.28,-143.77"/>
</a>
</g>
</g>
<!-- Node23 -->
<g id="Node000023" class="node">
<title>Node23</title>
<g id="a_Node000023"><a xlink:href="classyaclib_1_1detail_1_1PromiseCore.html" target="_top" xlink:title=" ">
<polygon fill="white" stroke="#666666" points="1085.62,-143.5 956.38,-143.5 956.38,-113 1085.62,-113 1085.62,-143.5"/>
<text text-anchor="start" x="964.38" y="-130" font-family="Helvetica,sans-Serif" font-size="10.00">yaclib::detail::PromiseCore</text>
<text text-anchor="middle" x="1021" y="-118.75" font-family="Helvetica,sans-Serif" font-size="10.00">&lt; V, E, Func &gt;</text>
</a>
</g>
</g>
<!-- Node20&#45;&gt;Node23 -->
<g id="edge25_Node000020_Node000023" class="edge">
<title>Node20&#45;&gt;Node23</title>
<g id="a_edge25_Node000020_Node000023"><a xlink:title=" ">
<path fill="none" stroke="#63b8ff" d="M903.95,-128.25C921.12,-128.25 939.35,-128.25 956.16,-128.25"/>
<polygon fill="#63b8ff" stroke="#63b8ff" points="904.37,-124.75 894.37,-128.25 904.37,-131.75 904.37,-124.75"/>
</a>
</g>
</g>
<!-- Node24 -->
<g id="Node000024" class="node">
<title>Node24</title>
<g id="a_Node000024"><a xlink:href="classyaclib_1_1detail_1_1ReadyCore.html" target="_top" xlink:title=" ">
<polygon fill="white" stroke="#666666" points="1081.12,-94.5 960.88,-94.5 960.88,-64 1081.12,-64 1081.12,-94.5"/>
<text text-anchor="start" x="968.88" y="-81" font-family="Helvetica,sans-Serif" font-size="10.00">yaclib::detail::ReadyCore</text>
<text text-anchor="middle" x="1021" y="-69.75" font-family="Helvetica,sans-Serif" font-size="10.00">&lt; V, E &gt;</text>
</a>
</g>
</g>
<!-- Node20&#45;&gt;Node24 -->
<g id="edge26_Node000020_Node000024" class="edge">
<title>Node20&#45;&gt;Node24</title>
<g id="a_edge26_Node000020_Node000024"><a xlink:title=" ">
<path fill="none" stroke="#63b8ff" d="M903.74,-109.69C922.51,-104.78 942.59,-99.52 960.68,-94.78"/>
<polygon fill="#63b8ff" stroke="#63b8ff" points="903.11,-106.24 894.32,-112.16 904.88,-113.01 903.11,-106.24"/>
</a>
</g>
</g>
<!-- Node22 -->
<g id="Node000022" class="node">
<title>Node22</title>
<g id="a_Node000022"><a xlink:href="classyaclib_1_1detail_1_1PromiseType.html" target="_top" xlink:title=" ">
<polygon fill="white" stroke="#666666" points="1272.5,-197.5 1142.5,-197.5 1142.5,-167 1272.5,-167 1272.5,-197.5"/>
<text text-anchor="start" x="1150.5" y="-184" font-family="Helvetica,sans-Serif" font-size="10.00">yaclib::detail::PromiseType</text>
<text text-anchor="middle" x="1207.5" y="-172.75" font-family="Helvetica,sans-Serif" font-size="10.00">&lt; V, E, Lazy &gt;</text>
</a>
</g>
</g>
<!-- Node21&#45;&gt;Node22 -->
<g id="edge24_Node000021_Node000022" class="edge">
<title>Node21&#45;&gt;Node22</title>
<g id="a_edge24_Node000021_Node000022"><a xlink:title=" ">
<path fill="none" stroke="#63b8ff" d="M1117.34,-182.25C1125.74,-182.25 1134.11,-182.25 1142.17,-182.25"/>
<polygon fill="#63b8ff" stroke="#63b8ff" points="1117.4,-178.75 1107.4,-182.25 1117.4,-185.75 1117.4,-178.75"/>
</a>
</g>
</g>
<!-- Node28 -->
<g id="Node000028" class="node">
<title>Node28</title>
<g id="a_Node000028"><a xlink:href="classyaclib_1_1detail_1_1SharedCore.html" target="_top" xlink:title=" ">
<polygon fill="white" stroke="#666666" points="893.88,-30.5 769.88,-30.5 769.88,0 893.88,0 893.88,-30.5"/>
<text text-anchor="start" x="777.88" y="-17" font-family="Helvetica,sans-Serif" font-size="10.00">yaclib::detail::SharedCore</text>
<text text-anchor="middle" x="831.88" y="-5.75" font-family="Helvetica,sans-Serif" font-size="10.00">&lt; V, E &gt;</text>
</a>
</g>
</g>
<!-- Node27&#45;&gt;Node28 -->
<g id="edge30_Node000027_Node000028" class="edge">
<title>Node27&#45;&gt;Node28</title>
<g id="a_edge30_Node000027_Node000028"><a xlink:title=" ">
<path fill="none" stroke="#63b8ff" d="M700.42,-15.25C723.42,-15.25 747.91,-15.25 769.38,-15.25"/>
<polygon fill="#63b8ff" stroke="#63b8ff" points="700.43,-11.75 690.43,-15.25 700.43,-18.75 700.43,-11.75"/>
</a>
</g>
</g>
</g>
</svg>
