<?xml version="1.0" encoding="UTF-8" standalone="no"?>
<!DOCTYPE svg PUBLIC "-//W3C//DTD SVG 1.1//EN"
 "http://www.w3.org/Graphics/SVG/1.1/DTD/svg11.dtd">
<!-- Generated by graphviz version 9.0.0 (20230911.1827)
 -->
<!-- Title: yaclib::IFunc Pages: 1 -->
<svg width="1265pt" height="485pt"
 viewBox="0.00 0.00 1264.75 485.20" xmlns="http://www.w3.org/2000/svg" xmlns:xlink="http://www.w3.org/1999/xlink">
<g id="graph0" class="graph" transform="scale(1 1) rotate(0) translate(4 481.2)">
<title>yaclib::IFunc</title>
<!-- Node1 -->
<g id="Node000001" class="node">
<title>Node1</title>
<g id="a_Node000001"><a xlink:title="Callable interface.">
<polygon fill="#999999" stroke="#666666" points="170.25,-245.88 100.25,-245.88 100.25,-226.62 170.25,-226.62 170.25,-245.88"/>
<text text-anchor="middle" x="135.25" y="-232.38" font-family="Helvetica,sans-Serif" font-size="10.00">yaclib::IFunc</text>
</a>
</g>
</g>
<!-- Node3 -->
<g id="Node000003" class="node">
<title>Node3</title>
<g id="a_Node000003"><a xlink:href="classyaclib_1_1Job.html" target="_top" xlink:title="Callable that can be executed in an IExecutor.">
<polygon fill="white" stroke="#666666" points="300.5,-276.88 239.5,-276.88 239.5,-257.62 300.5,-257.62 300.5,-276.88"/>
<text text-anchor="middle" x="270" y="-263.38" font-family="Helvetica,sans-Serif" font-size="10.00">yaclib::Job</text>
</a>
</g>
</g>
<!-- Node1&#45;&gt;Node3 -->
<g id="edge2_Node000001_Node000003" class="edge">
<title>Node1&#45;&gt;Node3</title>
<g id="a_edge2_Node000001_Node000003"><a xlink:title=" ">
<path fill="none" stroke="#63b8ff" d="M181.63,-246.85C200.75,-251.31 222.45,-256.38 239.44,-260.35"/>
<polygon fill="#63b8ff" stroke="#63b8ff" points="182.44,-243.44 171.91,-244.58 180.85,-250.26 182.44,-243.44"/>
</a>
</g>
</g>
<!-- Node27 -->
<g id="Node000027" class="node">
<title>Node27</title>
<g id="a_Node000027"><a xlink:href="classyaclib_1_1detail_1_1SharedFunc.html" target="_top" xlink:title=" ">
<polygon fill="white" stroke="#666666" points="332.75,-239.5 207.25,-239.5 207.25,-209 332.75,-209 332.75,-239.5"/>
<text text-anchor="start" x="215.25" y="-226" font-family="Helvetica,sans-Serif" font-size="10.00">yaclib::detail::SharedFunc</text>
<text text-anchor="middle" x="270" y="-214.75" font-family="Helvetica,sans-Serif" font-size="10.00">&lt; Func &gt;</text>
</a>
</g>
</g>
<!-- Node1&#45;&gt;Node27 -->
<g id="edge28_Node000001_Node000027" class="edge">
<title>Node1&#45;&gt;Node27</title>
<g id="a_edge28_Node000001_Node000027"><a xlink:title=" ">
<path fill="none" stroke="#63b8ff" d="M181.85,-232.13C189.91,-231.4 198.42,-230.63 206.84,-229.87"/>
<polygon fill="#63b8ff" stroke="#63b8ff" points="181.59,-228.64 171.94,-233.02 182.22,-235.61 181.59,-228.64"/>
</a>
</g>
</g>
<!-- Node2 -->
<g id="Node000002" class="node">
<title>Node2</title>
<g id="a_Node000002"><a xlink:href="classyaclib_1_1IRef.html" target="_top" xlink:title="Reference counting interface.">
<polygon fill="white" stroke="#666666" points="63.25,-245.88 0,-245.88 0,-226.62 63.25,-226.62 63.25,-245.88"/>
<text text-anchor="middle" x="31.62" y="-232.38" font-family="Helvetica,sans-Serif" font-size="10.00">yaclib::IRef</text>
</a>
</g>
</g>
<!-- Node2&#45;&gt;Node1 -->
<g id="edge1_Node000001_Node000002" class="edge">
<title>Node2&#45;&gt;Node1</title>
<g id="a_edge1_Node000001_Node000002"><a xlink:title=" ">
<path fill="none" stroke="#63b8ff" d="M75.05,-236.25C83.32,-236.25 91.89,-236.25 99.85,-236.25"/>
<polygon fill="#63b8ff" stroke="#63b8ff" points="75.18,-232.75 65.18,-236.25 75.18,-239.75 75.18,-232.75"/>
</a>
</g>
</g>
<!-- Node4 -->
<g id="Node000004" class="node">
<title>Node4</title>
<g id="a_Node000004"><a xlink:href="structyaclib_1_1OneShotEvent_1_1TimedWaiter.html" target="_top" xlink:title="Public only because Waiter is public.">
<polygon fill="white" stroke="#666666" points="483.62,-374.5 375.38,-374.5 375.38,-344 483.62,-344 483.62,-374.5"/>
<text text-anchor="start" x="383.38" y="-361" font-family="Helvetica,sans-Serif" font-size="10.00">yaclib::OneShotEvent</text>
<text text-anchor="middle" x="429.5" y="-349.75" font-family="Helvetica,sans-Serif" font-size="10.00">::TimedWaiter</text>
</a>
</g>
</g>
<!-- Node3&#45;&gt;Node4 -->
<g id="edge3_Node000003_Node000004" class="edge">
<title>Node3&#45;&gt;Node4</title>
<g id="a_edge3_Node000003_Node000004"><a xlink:title=" ">
<path fill="none" stroke="#63b8ff" d="M292.86,-283.9C312.37,-298.31 342.05,-319.15 369.75,-334.25 375.78,-337.54 382.34,-340.7 388.81,-343.61"/>
<polygon fill="#63b8ff" stroke="#63b8ff" points="295.22,-281.29 285.11,-278.11 291.03,-286.9 295.22,-281.29"/>
</a>
</g>
</g>
<!-- Node5 -->
<g id="Node000005" class="node">
<title>Node5</title>
<g id="a_Node000005"><a xlink:href="structyaclib_1_1OneShotEvent_1_1Waiter.html" target="_top" xlink:title="Waiter is public for advanced users.">
<polygon fill="white" stroke="#666666" points="483.62,-325.5 375.38,-325.5 375.38,-295 483.62,-295 483.62,-325.5"/>
<text text-anchor="start" x="383.38" y="-312" font-family="Helvetica,sans-Serif" font-size="10.00">yaclib::OneShotEvent</text>
<text text-anchor="middle" x="429.5" y="-300.75" font-family="Helvetica,sans-Serif" font-size="10.00">::Waiter</text>
</a>
</g>
</g>
<!-- Node3&#45;&gt;Node5 -->
<g id="edge4_Node000003_Node000005" class="edge">
<title>Node3&#45;&gt;Node5</title>
<g id="a_edge4_Node000003_Node000005"><a xlink:title=" ">
<path fill="none" stroke="#63b8ff" d="M311.83,-278.4C331.11,-283.66 354.36,-290.01 375.02,-295.65"/>
<polygon fill="#63b8ff" stroke="#63b8ff" points="313.02,-275.1 302.46,-275.84 311.18,-281.85 313.02,-275.1"/>
</a>
</g>
</g>
<!-- Node6 -->
<g id="Node000006" class="node">
<title>Node6</title>
<g id="a_Node000006"><a xlink:href="classyaclib_1_1Strand.html" target="_top" xlink:title=" ">
<polygon fill="white" stroke="#666666" points="466.38,-276.88 392.62,-276.88 392.62,-257.62 466.38,-257.62 466.38,-276.88"/>
<text text-anchor="middle" x="429.5" y="-263.38" font-family="Helvetica,sans-Serif" font-size="10.00">yaclib::Strand</text>
</a>
</g>
</g>
<!-- Node3&#45;&gt;Node6 -->
<g id="edge5_Node000003_Node000006" class="edge">
<title>Node3&#45;&gt;Node6</title>
<g id="a_edge5_Node000003_Node000006"><a xlink:title=" ">
<path fill="none" stroke="#8b1a1a" d="M312.25,-267.25C337.07,-267.25 368.39,-267.25 392.26,-267.25"/>
<polygon fill="#8b1a1a" stroke="#8b1a1a" points="312.51,-263.75 302.51,-267.25 312.51,-270.75 312.51,-263.75"/>
</a>
</g>
</g>
<!-- Node7 -->
<g id="Node000007" class="node">
<title>Node7</title>
<g id="a_Node000007"><a xlink:href="classyaclib_1_1detail_1_1InlineCore.html" target="_top" xlink:title=" ">
<polygon fill="white" stroke="#666666" points="487.75,-239.88 371.25,-239.88 371.25,-220.62 487.75,-220.62 487.75,-239.88"/>
<text text-anchor="middle" x="429.5" y="-226.38" font-family="Helvetica,sans-Serif" font-size="10.00">yaclib::detail::InlineCore</text>
</a>
</g>
</g>
<!-- Node3&#45;&gt;Node7 -->
<g id="edge6_Node000003_Node000007" class="edge">
<title>Node3&#45;&gt;Node7</title>
<g id="a_edge6_Node000003_Node000007"><a xlink:title=" ">
<path fill="none" stroke="#63b8ff" d="M311.94,-257.63C334.54,-252.32 362.6,-245.73 385.52,-240.35"/>
<polygon fill="#63b8ff" stroke="#63b8ff" points="311.4,-254.16 302.47,-259.86 313,-260.98 311.4,-254.16"/>
</a>
</g>
</g>
<!-- Node26 -->
<g id="Node000026" class="node">
<title>Node26</title>
<g id="a_Node000026"><a xlink:href="classyaclib_1_1detail_1_1UniqueJob.html" target="_top" xlink:title=" ">
<polygon fill="white" stroke="#666666" points="489.25,-202.5 369.75,-202.5 369.75,-172 489.25,-172 489.25,-202.5"/>
<text text-anchor="start" x="377.75" y="-189" font-family="Helvetica,sans-Serif" font-size="10.00">yaclib::detail::UniqueJob</text>
<text text-anchor="middle" x="429.5" y="-177.75" font-family="Helvetica,sans-Serif" font-size="10.00">&lt; Func &gt;</text>
</a>
</g>
</g>
<!-- Node3&#45;&gt;Node26 -->
<g id="edge27_Node000003_Node000026" class="edge">
<title>Node3&#45;&gt;Node26</title>
<g id="a_edge27_Node000003_Node000026"><a xlink:title=" ">
<path fill="none" stroke="#63b8ff" d="M311.72,-257.82C319,-255.28 326.31,-252.13 332.75,-248.25 352.67,-236.25 350.38,-224.12 369.75,-211.25 374.34,-208.2 379.37,-205.43 384.51,-202.94"/>
<polygon fill="#63b8ff" stroke="#63b8ff" points="310.78,-254.45 302.27,-260.76 312.86,-261.13 310.78,-254.45"/>
</a>
</g>
</g>
<!-- Node8 -->
<g id="Node000008" class="node">
<title>Node8</title>
<g id="a_Node000008"><a xlink:href="classyaclib_1_1detail_1_1AwaitOnEvent.html" target="_top" xlink:title=" ">
<polygon fill="white" stroke="#666666" points="883.75,-474.5 748.5,-474.5 748.5,-444 883.75,-444 883.75,-474.5"/>
<text text-anchor="start" x="756.5" y="-461" font-family="Helvetica,sans-Serif" font-size="10.00">yaclib::detail::AwaitOnEvent</text>
<text text-anchor="middle" x="816.12" y="-449.75" font-family="Helvetica,sans-Serif" font-size="10.00">&lt; true &gt;</text>
</a>
</g>
</g>
<!-- Node7&#45;&gt;Node8 -->
<g id="edge7_Node000007_Node000008" class="edge">
<title>Node7&#45;&gt;Node8</title>
<g id="a_edge7_Node000007_Node000008"><a xlink:title=" ">
<path fill="none" stroke="#63b8ff" d="M488.49,-247.37C488.74,-247.66 489,-247.95 489.25,-248.25 510.92,-274.18 497.72,-366.83 507.25,-399.25 512.69,-417.75 510.28,-427.44 526.25,-438.25 591.62,-482.51 685.46,-480.38 748.26,-472.11"/>
<polygon fill="#63b8ff" stroke="#63b8ff" points="490.94,-244.85 480.99,-241.2 486.49,-250.26 490.94,-244.85"/>
</a>
</g>
</g>
<!-- Node9 -->
<g id="Node000009" class="node">
<title>Node9</title>
<g id="a_Node000009"><a xlink:href="classyaclib_1_1detail_1_1AwaitOnEvent.html" target="_top" xlink:title=" ">
<polygon fill="white" stroke="#666666" points="883.75,-403.5 748.5,-403.5 748.5,-373 883.75,-373 883.75,-403.5"/>
<text text-anchor="start" x="756.5" y="-390" font-family="Helvetica,sans-Serif" font-size="10.00">yaclib::detail::AwaitOnEvent</text>
<text text-anchor="middle" x="816.12" y="-378.75" font-family="Helvetica,sans-Serif" font-size="10.00">&lt; false &gt;</text>
</a>
</g>
</g>
<!-- Node7&#45;&gt;Node9 -->
<g id="edge8_Node000007_Node000009" class="edge">
<title>Node7&#45;&gt;Node9</title>
<g id="a_edge8_Node000007_Node000009"><a xlink:title=" ">
<path fill="none" stroke="#63b8ff" d="M487.33,-246.52C487.99,-247.08 488.63,-247.66 489.25,-248.25 524.7,-282.16 487.99,-321.54 526.25,-352.25 559.4,-378.87 673.76,-386.05 748.26,-387.84"/>
<polygon fill="#63b8ff" stroke="#63b8ff" points="489.48,-243.75 479.21,-241.15 485.62,-249.59 489.48,-243.75"/>
</a>
</g>
</g>
<!-- Node10 -->
<g id="Node000010" class="node">
<title>Node10</title>
<g id="a_Node000010"><a xlink:href="classyaclib_1_1detail_1_1AllCombinator.html" target="_top" xlink:title=" ">
<polygon fill="white" stroke="#666666" points="666.38,-343.5 532.62,-343.5 532.62,-313 666.38,-313 666.38,-343.5"/>
<text text-anchor="start" x="540.62" y="-330" font-family="Helvetica,sans-Serif" font-size="10.00">yaclib::detail::AllCombinator</text>
<text text-anchor="middle" x="599.5" y="-318.75" font-family="Helvetica,sans-Serif" font-size="10.00">&lt; O, R, E &gt;</text>
</a>
</g>
</g>
<!-- Node7&#45;&gt;Node10 -->
<g id="edge9_Node000007_Node000010" class="edge">
<title>Node7&#45;&gt;Node10</title>
<g id="a_edge9_Node000007_Node000010"><a xlink:title=" ">
<path fill="none" stroke="#63b8ff" d="M485.08,-245.43C486.52,-246.32 487.91,-247.26 489.25,-248.25 512.92,-265.8 502.9,-285.28 526.25,-303.25 530.88,-306.81 536.05,-309.89 541.44,-312.54"/>
<polygon fill="#63b8ff" stroke="#63b8ff" points="486.92,-242.44 476.42,-240.98 483.72,-248.67 486.92,-242.44"/>
</a>
</g>
</g>
<!-- Node11 -->
<g id="Node000011" class="node">
<title>Node11</title>
<g id="a_Node000011"><a xlink:href="classyaclib_1_1detail_1_1AllCombinator_3_01OrderPolicy_1_1Same_00_01R_00_01E_01_4.html" target="_top" xlink:title=" ">
<polygon fill="white" stroke="#666666" points="667.5,-294.5 531.5,-294.5 531.5,-264 667.5,-264 667.5,-294.5"/>
<text text-anchor="start" x="539.5" y="-281" font-family="Helvetica,sans-Serif" font-size="10.00">yaclib::detail::AllCombinator</text>
<text text-anchor="middle" x="599.5" y="-269.75" font-family="Helvetica,sans-Serif" font-size="10.00">&lt; OrderPolicy::Same, R, E &gt;</text>
</a>
</g>
</g>
<!-- Node7&#45;&gt;Node11 -->
<g id="edge10_Node000007_Node000011" class="edge">
<title>Node7&#45;&gt;Node11</title>
<g id="a_edge10_Node000007_Node000011"><a xlink:title=" ">
<path fill="none" stroke="#63b8ff" d="M475.88,-243.49C497.08,-249.67 522.46,-257.07 544.63,-263.54"/>
<polygon fill="#63b8ff" stroke="#63b8ff" points="476.94,-240.15 466.36,-240.71 474.98,-246.87 476.94,-240.15"/>
</a>
</g>
</g>
<!-- Node12 -->
<g id="Node000012" class="node">
<title>Node12</title>
<g id="a_Node000012"><a xlink:href="classyaclib_1_1detail_1_1AnyCombinator.html" target="_top" xlink:title=" ">
<polygon fill="white" stroke="#666666" points="669,-245.5 530,-245.5 530,-215 669,-215 669,-245.5"/>
<text text-anchor="start" x="538" y="-232" font-family="Helvetica,sans-Serif" font-size="10.00">yaclib::detail::AnyCombinator</text>
<text text-anchor="middle" x="599.5" y="-220.75" font-family="Helvetica,sans-Serif" font-size="10.00">&lt; V, E, P &gt;</text>
</a>
</g>
</g>
<!-- Node7&#45;&gt;Node12 -->
<g id="edge11_Node000007_Node000012" class="edge">
<title>Node7&#45;&gt;Node12</title>
<g id="a_edge11_Node000007_Node000012"><a xlink:title=" ">
<path fill="none" stroke="#63b8ff" d="M499.36,-230.25C509.31,-230.25 519.56,-230.25 529.51,-230.25"/>
<polygon fill="#63b8ff" stroke="#63b8ff" points="499.36,-226.75 489.36,-230.25 499.36,-233.75 499.36,-226.75"/>
</a>
</g>
</g>
<!-- Node13 -->
<g id="Node000013" class="node">
<title>Node13</title>
<g id="a_Node000013"><a xlink:href="classyaclib_1_1detail_1_1AwaitEvent.html" target="_top" xlink:title=" ">
<polygon fill="white" stroke="#666666" points="660.75,-196.88 538.25,-196.88 538.25,-177.62 660.75,-177.62 660.75,-196.88"/>
<text text-anchor="middle" x="599.5" y="-183.38" font-family="Helvetica,sans-Serif" font-size="10.00">yaclib::detail::AwaitEvent</text>
</a>
</g>
</g>
<!-- Node7&#45;&gt;Node13 -->
<g id="edge12_Node000007_Node000013" class="edge">
<title>Node7&#45;&gt;Node13</title>
<g id="a_edge12_Node000007_Node000013"><a xlink:title=" ">
<path fill="none" stroke="#63b8ff" d="M481.01,-217.32C506.02,-210.92 535.76,-203.31 559.07,-197.34"/>
<polygon fill="#63b8ff" stroke="#63b8ff" points="480.17,-213.92 471.35,-219.79 481.91,-220.7 480.17,-213.92"/>
</a>
</g>
</g>
<!-- Node14 -->
<g id="Node000014" class="node">
<title>Node14</title>
<g id="a_Node000014"><a xlink:href="classyaclib_1_1detail_1_1AwaitOnEvent.html" target="_top" xlink:title=" ">
<polygon fill="white" stroke="#666666" points="667.12,-429.5 531.88,-429.5 531.88,-399 667.12,-399 667.12,-429.5"/>
<text text-anchor="start" x="539.88" y="-416" font-family="Helvetica,sans-Serif" font-size="10.00">yaclib::detail::AwaitOnEvent</text>
<text text-anchor="middle" x="599.5" y="-404.75" font-family="Helvetica,sans-Serif" font-size="10.00">&lt; Single &gt;</text>
</a>
</g>
</g>
<!-- Node7&#45;&gt;Node14 -->
<g id="edge13_Node000007_Node000014" class="edge">
<title>Node7&#45;&gt;Node14</title>
<g id="a_edge13_Node000007_Node000014"><a xlink:title=" ">
<path fill="none" stroke="#63b8ff" d="M488.48,-247.37C488.74,-247.66 489,-247.95 489.25,-248.25 528.91,-295.14 467.83,-338.16 507.25,-385.25 513.76,-393.03 522.35,-398.74 531.65,-402.94"/>
<polygon fill="#63b8ff" stroke="#63b8ff" points="490.92,-244.84 480.96,-241.23 486.49,-250.27 490.92,-244.84"/>
</a>
</g>
</g>
<!-- Node15 -->
<g id="Node000015" class="node">
<title>Node15</title>
<g id="a_Node000015"><a xlink:href="classyaclib_1_1detail_1_1BaseCore.html" target="_top" xlink:title=" ">
<polygon fill="white" stroke="#666666" points="657.38,-159.88 541.62,-159.88 541.62,-140.62 657.38,-140.62 657.38,-159.88"/>
<text text-anchor="middle" x="599.5" y="-146.38" font-family="Helvetica,sans-Serif" font-size="10.00">yaclib::detail::BaseCore</text>
</a>
</g>
</g>
<!-- Node7&#45;&gt;Node15 -->
<g id="edge16_Node000007_Node000015" class="edge">
<title>Node7&#45;&gt;Node15</title>
<g id="a_edge16_Node000007_Node000015"><a xlink:title=" ">
<path fill="none" stroke="#63b8ff" d="M482.14,-215.43C484.6,-214.14 486.99,-212.75 489.25,-211.25 510.25,-197.3 504.79,-181.48 526.25,-168.25 531.42,-165.06 537.13,-162.44 543,-160.28"/>
<polygon fill="#63b8ff" stroke="#63b8ff" points="480.72,-212.23 473.04,-219.53 483.6,-218.61 480.72,-212.23"/>
</a>
</g>
</g>
<!-- Node22 -->
<g id="Node000022" class="node">
<title>Node22</title>
<g id="a_Node000022"><a xlink:href="structyaclib_1_1detail_1_1CallCallback.html" target="_top" xlink:title=" ">
<polygon fill="white" stroke="#666666" points="663,-122.5 536,-122.5 536,-92 663,-92 663,-122.5"/>
<text text-anchor="start" x="544" y="-109" font-family="Helvetica,sans-Serif" font-size="10.00">yaclib::detail::CallCallback</text>
<text text-anchor="middle" x="599.5" y="-97.75" font-family="Helvetica,sans-Serif" font-size="10.00">&lt; Derived &gt;</text>
</a>
</g>
</g>
<!-- Node7&#45;&gt;Node22 -->
<g id="edge23_Node000007_Node000022" class="edge">
<title>Node7&#45;&gt;Node22</title>
<g id="a_edge23_Node000007_Node000022"><a xlink:title=" ">
<path fill="none" stroke="#63b8ff" d="M485.22,-214.45C486.62,-213.45 487.97,-212.38 489.25,-211.25 518.57,-185.27 497.04,-157.35 526.25,-131.25 529.8,-128.08 533.78,-125.33 538,-122.94"/>
<polygon fill="#63b8ff" stroke="#63b8ff" points="483.52,-211.39 476.62,-219.43 487.03,-217.45 483.52,-211.39"/>
</a>
</g>
</g>
<!-- Node23 -->
<g id="Node000023" class="node">
<title>Node23</title>
<g id="a_Node000023"><a xlink:href="structyaclib_1_1detail_1_1DropCallback.html" target="_top" xlink:title=" ">
<polygon fill="white" stroke="#666666" points="664.88,-73.5 534.12,-73.5 534.12,-43 664.88,-43 664.88,-73.5"/>
<text text-anchor="start" x="542.12" y="-60" font-family="Helvetica,sans-Serif" font-size="10.00">yaclib::detail::DropCallback</text>
<text text-anchor="middle" x="599.5" y="-48.75" font-family="Helvetica,sans-Serif" font-size="10.00">&lt; Derived &gt;</text>
</a>
</g>
</g>
<!-- Node7&#45;&gt;Node23 -->
<g id="edge24_Node000007_Node000023" class="edge">
<title>Node7&#45;&gt;Node23</title>
<g id="a_edge24_Node000007_Node000023"><a xlink:title=" ">
<path fill="none" stroke="#63b8ff" d="M486.5,-213.84C487.45,-213.02 488.37,-212.15 489.25,-211.25 509.86,-189.99 505.86,-104.72 526.25,-83.25 529.72,-79.59 533.76,-76.47 538.11,-73.8"/>
<polygon fill="#63b8ff" stroke="#63b8ff" points="484.65,-210.86 478.28,-219.33 488.54,-216.68 484.65,-210.86"/>
</a>
</g>
</g>
<!-- Node24 -->
<g id="Node000024" class="node">
<title>Node24</title>
<g id="a_Node000024"><a xlink:href="classyaclib_1_1detail_1_1SharedBaseCore.html" target="_top" xlink:title=" ">
<polygon fill="white" stroke="#666666" points="672.75,-24.88 526.25,-24.88 526.25,-5.62 672.75,-5.62 672.75,-24.88"/>
<text text-anchor="middle" x="599.5" y="-11.38" font-family="Helvetica,sans-Serif" font-size="10.00">yaclib::detail::SharedBaseCore</text>
</a>
</g>
</g>
<!-- Node7&#45;&gt;Node24 -->
<g id="edge25_Node000007_Node000024" class="edge">
<title>Node7&#45;&gt;Node24</title>
<g id="a_edge25_Node000007_Node000024"><a xlink:title=" ">
<path fill="none" stroke="#63b8ff" d="M486.65,-213.87C487.56,-213.04 488.43,-212.17 489.25,-211.25 516.11,-181.36 498.57,-63.38 526.25,-34.25 529.64,-30.68 533.62,-27.75 537.94,-25.35"/>
<polygon fill="#63b8ff" stroke="#63b8ff" points="484.97,-210.77 478.82,-219.4 489.01,-216.49 484.97,-210.77"/>
</a>
</g>
</g>
<!-- Node14&#45;&gt;Node8 -->
<g id="edge14_Node000014_Node000008" class="edge">
<title>Node14&#45;&gt;Node8</title>
<g id="a_edge14_Node000014_Node000008"><a xlink:title=" ">
<path fill="none" stroke="orange" stroke-dasharray="5,2" d="M678.54,-428.49C695.69,-431.79 713.73,-435.4 730.5,-439 737.15,-440.43 744.07,-441.98 750.97,-443.57"/>
<polygon fill="orange" stroke="orange" points="679.39,-425.09 668.91,-426.66 678.08,-431.97 679.39,-425.09"/>
</a>
</g>
<text text-anchor="middle" x="710.62" y="-440" font-family="Helvetica,sans-Serif" font-size="10.00" fill="grey"> &lt; true &gt;</text>
</g>
<!-- Node14&#45;&gt;Node9 -->
<g id="edge15_Node000014_Node000009" class="edge">
<title>Node14&#45;&gt;Node9</title>
<g id="a_edge15_Node000014_Node000009"><a xlink:title=" ">
<path fill="none" stroke="orange" stroke-dasharray="5,2" d="M678.88,-404.76C701.63,-402 726.26,-399.02 748.24,-396.35"/>
<polygon fill="orange" stroke="orange" points="678.53,-401.27 669.03,-405.95 679.38,-408.22 678.53,-401.27"/>
</a>
</g>
<text text-anchor="middle" x="710.62" y="-404" font-family="Helvetica,sans-Serif" font-size="10.00" fill="grey"> &lt; false &gt;</text>
</g>
<!-- Node16 -->
<g id="Node000016" class="node">
<title>Node16</title>
<g id="a_Node000016"><a xlink:href="classyaclib_1_1detail_1_1NoResultCore.html" target="_top" xlink:title=" ">
<polygon fill="white" stroke="#666666" points="883,-180.88 749.25,-180.88 749.25,-161.62 883,-161.62 883,-180.88"/>
<text text-anchor="middle" x="816.12" y="-167.38" font-family="Helvetica,sans-Serif" font-size="10.00">yaclib::detail::NoResultCore</text>
</a>
</g>
</g>
<!-- Node15&#45;&gt;Node16 -->
<g id="edge17_Node000015_Node000016" class="edge">
<title>Node15&#45;&gt;Node16</title>
<g id="a_edge17_Node000015_Node000016"><a xlink:title=" ">
<path fill="none" stroke="#63b8ff" d="M668.86,-156.94C694.47,-159.44 723.51,-162.29 748.93,-164.77"/>
<polygon fill="#63b8ff" stroke="#63b8ff" points="669.53,-153.49 659.24,-156 668.85,-160.45 669.53,-153.49"/>
</a>
</g>
</g>
<!-- Node17 -->
<g id="Node000017" class="node">
<title>Node17</title>
<g id="a_Node000017"><a xlink:href="classyaclib_1_1detail_1_1ResultCore.html" target="_top" xlink:title=" ">
<polygon fill="white" stroke="#666666" points="876.62,-143.5 755.62,-143.5 755.62,-113 876.62,-113 876.62,-143.5"/>
<text text-anchor="start" x="763.62" y="-130" font-family="Helvetica,sans-Serif" font-size="10.00">yaclib::detail::ResultCore</text>
<text text-anchor="middle" x="816.12" y="-118.75" font-family="Helvetica,sans-Serif" font-size="10.00">&lt; V, E &gt;</text>
</a>
</g>
</g>
<!-- Node15&#45;&gt;Node17 -->
<g id="edge18_Node000015_Node000017" class="edge">
<title>Node15&#45;&gt;Node17</title>
<g id="a_edge18_Node000015_Node000017"><a xlink:title=" ">
<path fill="none" stroke="#63b8ff" d="M668.97,-143.23C696.77,-140.38 728.59,-137.12 755.43,-134.37"/>
<polygon fill="#63b8ff" stroke="#63b8ff" points="668.83,-139.73 659.24,-144.23 669.54,-146.69 668.83,-139.73"/>
</a>
</g>
</g>
<!-- Node18 -->
<g id="Node000018" class="node">
<title>Node18</title>
<g id="a_Node000018"><a xlink:href="structyaclib_1_1detail_1_1OneCounter.html" target="_top" xlink:title=" ">
<polygon fill="white" stroke="#666666" points="1089.75,-203.12 920.75,-203.12 920.75,-161.38 1089.75,-161.38 1089.75,-203.12"/>
<text text-anchor="start" x="928.75" y="-189.62" font-family="Helvetica,sans-Serif" font-size="10.00">yaclib::detail::OneCounter</text>
<text text-anchor="start" x="928.75" y="-178.38" font-family="Helvetica,sans-Serif" font-size="10.00">&lt; ResultCore&lt; V, E &gt;, PromiseType</text>
<text text-anchor="middle" x="1005.25" y="-167.12" font-family="Helvetica,sans-Serif" font-size="10.00">Deleter&lt; Lazy &gt; &gt;</text>
</a>
</g>
</g>
<!-- Node17&#45;&gt;Node18 -->
<g id="edge19_Node000017_Node000018" class="edge">
<title>Node17&#45;&gt;Node18</title>
<g id="a_edge19_Node000017_Node000018"><a xlink:title=" ">
<path fill="none" stroke="#63b8ff" d="M882.5,-147.12C897.92,-151.57 914.47,-156.34 930.24,-160.89"/>
<polygon fill="#63b8ff" stroke="#63b8ff" points="883.53,-143.77 872.95,-144.36 881.59,-150.5 883.53,-143.77"/>
</a>
</g>
</g>
<!-- Node20 -->
<g id="Node000020" class="node">
<title>Node20</title>
<g id="a_Node000020"><a xlink:href="classyaclib_1_1detail_1_1PromiseCore.html" target="_top" xlink:title=" ">
<polygon fill="white" stroke="#666666" points="1069.88,-143.5 940.62,-143.5 940.62,-113 1069.88,-113 1069.88,-143.5"/>
<text text-anchor="start" x="948.62" y="-130" font-family="Helvetica,sans-Serif" font-size="10.00">yaclib::detail::PromiseCore</text>
<text text-anchor="middle" x="1005.25" y="-118.75" font-family="Helvetica,sans-Serif" font-size="10.00">&lt; V, E, Func &gt;</text>
</a>
</g>
</g>
<!-- Node17&#45;&gt;Node20 -->
<g id="edge21_Node000017_Node000020" class="edge">
<title>Node17&#45;&gt;Node20</title>
<g id="a_edge21_Node000017_Node000020"><a xlink:title=" ">
<path fill="none" stroke="#63b8ff" d="M888.2,-128.25C905.37,-128.25 923.6,-128.25 940.41,-128.25"/>
<polygon fill="#63b8ff" stroke="#63b8ff" points="888.62,-124.75 878.62,-128.25 888.62,-131.75 888.62,-124.75"/>
</a>
</g>
</g>
<!-- Node21 -->
<g id="Node000021" class="node">
<title>Node21</title>
<g id="a_Node000021"><a xlink:href="classyaclib_1_1detail_1_1ReadyCore.html" target="_top" xlink:title=" ">
<polygon fill="white" stroke="#666666" points="1065.38,-94.5 945.12,-94.5 945.12,-64 1065.38,-64 1065.38,-94.5"/>
<text text-anchor="start" x="953.12" y="-81" font-family="Helvetica,sans-Serif" font-size="10.00">yaclib::detail::ReadyCore</text>
<text text-anchor="middle" x="1005.25" y="-69.75" font-family="Helvetica,sans-Serif" font-size="10.00">&lt; V, E &gt;</text>
</a>
</g>
</g>
<!-- Node17&#45;&gt;Node21 -->
<g id="edge22_Node000017_Node000021" class="edge">
<title>Node17&#45;&gt;Node21</title>
<g id="a_edge22_Node000017_Node000021"><a xlink:title=" ">
<path fill="none" stroke="#63b8ff" d="M887.99,-109.69C906.76,-104.78 926.84,-99.52 944.93,-94.78"/>
<polygon fill="#63b8ff" stroke="#63b8ff" points="887.36,-106.24 878.57,-112.16 889.13,-113.01 887.36,-106.24"/>
</a>
</g>
</g>
<!-- Node19 -->
<g id="Node000019" class="node">
<title>Node19</title>
<g id="a_Node000019"><a xlink:href="classyaclib_1_1detail_1_1PromiseType.html" target="_top" xlink:title=" ">
<polygon fill="white" stroke="#666666" points="1256.75,-197.5 1126.75,-197.5 1126.75,-167 1256.75,-167 1256.75,-197.5"/>
<text text-anchor="start" x="1134.75" y="-184" font-family="Helvetica,sans-Serif" font-size="10.00">yaclib::detail::PromiseType</text>
<text text-anchor="middle" x="1191.75" y="-172.75" font-family="Helvetica,sans-Serif" font-size="10.00">&lt; V, E, Lazy &gt;</text>
</a>
</g>
</g>
<!-- Node18&#45;&gt;Node19 -->
<g id="edge20_Node000018_Node000019" class="edge">
<title>Node18&#45;&gt;Node19</title>
<g id="a_edge20_Node000018_Node000019"><a xlink:title=" ">
<path fill="none" stroke="#63b8ff" d="M1101.59,-182.25C1109.99,-182.25 1118.36,-182.25 1126.42,-182.25"/>
<polygon fill="#63b8ff" stroke="#63b8ff" points="1101.65,-178.75 1091.65,-182.25 1101.65,-185.75 1101.65,-178.75"/>
</a>
</g>
</g>
<!-- Node25 -->
<g id="Node000025" class="node">
<title>Node25</title>
<g id="a_Node000025"><a xlink:href="classyaclib_1_1detail_1_1SharedCore.html" target="_top" xlink:title=" ">
<polygon fill="white" stroke="#666666" points="878.12,-30.5 754.12,-30.5 754.12,0 878.12,0 878.12,-30.5"/>
<text text-anchor="start" x="762.12" y="-17" font-family="Helvetica,sans-Serif" font-size="10.00">yaclib::detail::SharedCore</text>
<text text-anchor="middle" x="816.12" y="-5.75" font-family="Helvetica,sans-Serif" font-size="10.00">&lt; V, E &gt;</text>
</a>
</g>
</g>
<!-- Node24&#45;&gt;Node25 -->
<g id="edge26_Node000024_Node000025" class="edge">
<title>Node24&#45;&gt;Node25</title>
<g id="a_edge26_Node000024_Node000025"><a xlink:title=" ">
<path fill="none" stroke="#63b8ff" d="M684.67,-15.25C707.67,-15.25 732.16,-15.25 753.63,-15.25"/>
<polygon fill="#63b8ff" stroke="#63b8ff" points="684.68,-11.75 674.68,-15.25 684.68,-18.75 684.68,-11.75"/>
</a>
</g>
</g>
</g>
</svg>
