<?xml version="1.0" encoding="UTF-8" standalone="no"?>
<!DOCTYPE svg PUBLIC "-//W3C//DTD SVG 1.1//EN"
 "http://www.w3.org/Graphics/SVG/1.1/DTD/svg11.dtd">
<!-- Generated by graphviz version 9.0.0 (20230911.1827)
 -->
<!-- Title: yaclib::detail::AwaitOnEvent&lt; Single &gt; Pages: 1 -->
<svg width="306pt" height="409pt"
 viewBox="0.00 0.00 306.38 408.75" xmlns="http://www.w3.org/2000/svg" xmlns:xlink="http://www.w3.org/1999/xlink">

<svg id="main" version="1.1" xmlns="http://www.w3.org/2000/svg" xmlns:xlink="http://www.w3.org/1999/xlink" xml:space="preserve" onload="init(evt)">
<style type="text/css"><![CDATA[
.node, .edge {opacity: 0.7;}
.node.selected, .edge.selected {opacity: 1;}
.edge:hover path { stroke: red; }
.edge:hover polygon { stroke: red; fill: red; }
]]></style>
<script type="application/ecmascript" xlink:href="svg.min.js"/>
<svg id="graph" class="graph">
<g id="graph0" class="graph" transform="scale(1 1) rotate(0) translate(4 404.75)">
<title>yaclib::detail::AwaitOnEvent&lt; Single &gt;</title>
<!-- Node1 -->
<g id="Node000001" class="node">
<title>Node1</title>
<g id="a_Node000001"><a xlink:title=" ">
<polygon fill="#999999" stroke="#666666" points="224.62,-175.75 89.38,-175.75 89.38,-145.25 224.62,-145.25 224.62,-175.75"/>
<text text-anchor="start" x="97.38" y="-162.25" font-family="Helvetica,sans-Serif" font-size="10.00">yaclib::detail::AwaitOnEvent</text>
<text text-anchor="middle" x="157" y="-151" font-family="Helvetica,sans-Serif" font-size="10.00">&lt; Single &gt;</text>
</a>
</g>
</g>
<!-- Node8 -->
<g id="Node000008" class="node">
<title>Node8</title>
<g id="a_Node000008"><a xlink:href="classyaclib_1_1detail_1_1AwaitOnEvent.html" target="_top" xlink:title=" ">
<polygon fill="white" stroke="#666666" points="224.62,-98 89.38,-98 89.38,-67.5 224.62,-67.5 224.62,-98"/>
<text text-anchor="start" x="97.38" y="-84.5" font-family="Helvetica,sans-Serif" font-size="10.00">yaclib::detail::AwaitOnEvent</text>
<text text-anchor="middle" x="157" y="-73.25" font-family="Helvetica,sans-Serif" font-size="10.00">&lt; false &gt;</text>
</a>
</g>
</g>
<!-- Node1&#45;&gt;Node8 -->
<g id="edge7_Node000001_Node000008" class="edge">
<title>Node1&#45;&gt;Node8</title>
<g id="a_edge7_Node000001_Node000008"><a xlink:title=" ">
<path fill="none" stroke="orange" stroke-dasharray="5,2" d="M157,-133.47C157,-121.71 157,-108.26 157,-98.31"/>
<polygon fill="orange" stroke="orange" points="153.5,-133.38 157,-143.38 160.5,-133.38 153.5,-133.38"/>
</a>
</g>
<text text-anchor="middle" x="176.88" y="-117.75" font-family="Helvetica,sans-Serif" font-size="10.00" fill="grey"> &lt; false &gt;</text>
</g>
<!-- Node2 -->
<g id="Node000002" class="node">
<title>Node2</title>
<g id="a_Node000002"><a xlink:href="classyaclib_1_1detail_1_1InlineCore.html" target="_top" xlink:title=" ">
<polygon fill="white" stroke="#666666" points="143.25,-232 26.75,-232 26.75,-212.75 143.25,-212.75 143.25,-232"/>
<text text-anchor="middle" x="85" y="-218.5" font-family="Helvetica,sans-Serif" font-size="10.00">yaclib::detail::InlineCore</text>
</a>
</g>
</g>
<!-- Node2&#45;&gt;Node1 -->
<g id="edge1_Node000001_Node000002" class="edge">
<title>Node2&#45;&gt;Node1</title>
<g id="a_edge1_Node000001_Node000002"><a xlink:title=" ">
<path fill="none" stroke="#63b8ff" d="M104.72,-204.98C115.6,-195.93 129,-184.79 139.51,-176.05"/>
<polygon fill="#63b8ff" stroke="#63b8ff" points="102.55,-202.23 97.1,-211.31 107.03,-207.61 102.55,-202.23"/>
</a>
</g>
</g>
<!-- Node3 -->
<g id="Node000003" class="node">
<title>Node3</title>
<g id="a_Node000003"><a xlink:href="classyaclib_1_1Job.html" target="_top" xlink:title="Callable that can be executed in an IExecutor.">
<polygon fill="white" stroke="#666666" points="115.5,-288.25 54.5,-288.25 54.5,-269 115.5,-269 115.5,-288.25"/>
<text text-anchor="middle" x="85" y="-274.75" font-family="Helvetica,sans-Serif" font-size="10.00">yaclib::Job</text>
</a>
</g>
</g>
<!-- Node3&#45;&gt;Node2 -->
<g id="edge2_Node000002_Node000003" class="edge">
<title>Node3&#45;&gt;Node2</title>
<g id="a_edge2_Node000002_Node000003"><a xlink:title=" ">
<path fill="none" stroke="#63b8ff" d="M85,-257.44C85,-248.73 85,-238.99 85,-232.17"/>
<polygon fill="#63b8ff" stroke="#63b8ff" points="81.5,-257.15 85,-267.15 88.5,-257.15 81.5,-257.15"/>
</a>
</g>
</g>
<!-- Node4 -->
<g id="Node000004" class="node">
<title>Node4</title>
<g id="a_Node000004"><a xlink:href="classyaclib_1_1IFunc.html" target="_top" xlink:title="Callable interface.">
<polygon fill="white" stroke="#666666" points="70,-344.5 0,-344.5 0,-325.25 70,-325.25 70,-344.5"/>
<text text-anchor="middle" x="35" y="-331" font-family="Helvetica,sans-Serif" font-size="10.00">yaclib::IFunc</text>
</a>
</g>
</g>
<!-- Node4&#45;&gt;Node3 -->
<g id="edge3_Node000003_Node000004" class="edge">
<title>Node4&#45;&gt;Node3</title>
<g id="a_edge3_Node000003_Node000004"><a xlink:title=" ">
<path fill="none" stroke="#63b8ff" d="M50.87,-316.65C59.53,-307.26 69.88,-296.03 76.9,-288.42"/>
<polygon fill="#63b8ff" stroke="#63b8ff" points="48.49,-314.08 44.28,-323.8 53.63,-318.82 48.49,-314.08"/>
</a>
</g>
</g>
<!-- Node5 -->
<g id="Node000005" class="node">
<title>Node5</title>
<g id="a_Node000005"><a xlink:href="classyaclib_1_1IRef.html" target="_top" xlink:title="Reference counting interface.">
<polygon fill="white" stroke="#666666" points="66.62,-400.75 3.38,-400.75 3.38,-381.5 66.62,-381.5 66.62,-400.75"/>
<text text-anchor="middle" x="35" y="-387.25" font-family="Helvetica,sans-Serif" font-size="10.00">yaclib::IRef</text>
</a>
</g>
</g>
<!-- Node5&#45;&gt;Node4 -->
<g id="edge4_Node000004_Node000005" class="edge">
<title>Node5&#45;&gt;Node4</title>
<g id="a_edge4_Node000004_Node000005"><a xlink:title=" ">
<path fill="none" stroke="#63b8ff" d="M35,-369.94C35,-361.23 35,-351.49 35,-344.67"/>
<polygon fill="#63b8ff" stroke="#63b8ff" points="31.5,-369.65 35,-379.65 38.5,-369.65 31.5,-369.65"/>
</a>
</g>
</g>
<!-- Node6 -->
<g id="Node000006" class="node">
<title>Node6</title>
<g id="a_Node000006"><a xlink:href="structyaclib_1_1detail_1_1Node.html" target="_top" xlink:title="Node class, used in intrusive data structure.">
<polygon fill="white" stroke="#666666" points="184.12,-344.5 87.88,-344.5 87.88,-325.25 184.12,-325.25 184.12,-344.5"/>
<text text-anchor="middle" x="136" y="-331" font-family="Helvetica,sans-Serif" font-size="10.00">yaclib::detail::Node</text>
</a>
</g>
</g>
<!-- Node6&#45;&gt;Node3 -->
<g id="edge5_Node000003_Node000006" class="edge">
<title>Node6&#45;&gt;Node3</title>
<g id="a_edge5_Node000003_Node000006"><a xlink:title=" ">
<path fill="none" stroke="#63b8ff" d="M119.81,-316.65C110.98,-307.26 100.42,-296.03 93.26,-288.42"/>
<polygon fill="#63b8ff" stroke="#63b8ff" points="117.14,-318.93 126.54,-323.81 122.24,-314.13 117.14,-318.93"/>
</a>
</g>
</g>
<!-- Node7 -->
<g id="Node000007" class="node">
<title>Node7</title>
<g id="a_Node000007"><a xlink:title=" ">
<polygon fill="white" stroke="#666666" points="298.38,-232 161.62,-232 161.62,-212.75 298.38,-212.75 298.38,-232"/>
<text text-anchor="middle" x="230" y="-218.5" font-family="Helvetica,sans-Serif" font-size="10.00">AwaitOnCounterT&lt; Single &gt;</text>
</a>
</g>
</g>
<!-- Node7&#45;&gt;Node1 -->
<g id="edge6_Node000001_Node000007" class="edge">
<title>Node7&#45;&gt;Node1</title>
<g id="a_edge6_Node000001_Node000007"><a xlink:title=" ">
<path fill="none" stroke="#63b8ff" d="M210.34,-205.25C199.25,-196.15 185.5,-184.88 174.74,-176.05"/>
<polygon fill="#63b8ff" stroke="#63b8ff" points="207.79,-207.69 217.74,-211.32 212.23,-202.27 207.79,-207.69"/>
</a>
</g>
</g>
<!-- Node9 -->
<g id="Node000009" class="node">
<title>Node9</title>
<g id="a_Node000009"><a xlink:href="structyaclib_1_1detail_1_1AwaitOnAwaiter.html" target="_top" xlink:title=" ">
<polygon fill="white" stroke="#666666" points="228.75,-30.5 85.25,-30.5 85.25,0 228.75,0 228.75,-30.5"/>
<text text-anchor="start" x="93.25" y="-17" font-family="Helvetica,sans-Serif" font-size="10.00">yaclib::detail::AwaitOnAwaiter</text>
<text text-anchor="middle" x="157" y="-5.75" font-family="Helvetica,sans-Serif" font-size="10.00">&lt; Handle &gt;</text>
</a>
</g>
</g>
<!-- Node8&#45;&gt;Node9 -->
<g id="edge8_Node000008_Node000009" class="edge">
<title>Node8&#45;&gt;Node9</title>
<g id="a_edge8_Node000008_Node000009"><a xlink:title=" ">
<path fill="none" stroke="#63b8ff" d="M157,-55.84C157,-47.3 157,-38.12 157,-30.75"/>
<polygon fill="#63b8ff" stroke="#63b8ff" points="153.5,-55.7 157,-65.7 160.5,-55.7 153.5,-55.7"/>
</a>
</g>
</g>
</g>
</svg>
</svg>

<style type='text/css'>
<![CDATA[
[data-mouse-over-selected='false'] { opacity: 0.7; }
[data-mouse-over-selected='true']  { opacity: 1.0; }
]]>
</style>
<script type="application/ecmascript"><![CDATA[
document.addEventListener('DOMContentLoaded', (event) => {
  highlightEdges();
  highlightAdjacentNodes();
});
]]></script>
</svg>
