<?xml version="1.0" encoding="UTF-8" standalone="no"?>
<!DOCTYPE svg PUBLIC "-//W3C//DTD SVG 1.1//EN"
 "http://www.w3.org/Graphics/SVG/1.1/DTD/svg11.dtd">
<!-- Generated by graphviz version 9.0.0 (20230911.1827)
 -->
<!-- Title: yaclib::detail::InlineCore Pages: 1 -->
<svg width="1216pt" height="434pt"
 viewBox="0.00 0.00 1216.00 434.48" xmlns="http://www.w3.org/2000/svg" xmlns:xlink="http://www.w3.org/1999/xlink">
<g id="graph0" class="graph" transform="scale(1 1) rotate(0) translate(4 430.48)">
<title>yaclib::detail::InlineCore</title>
<!-- Node1 -->
<g id="Node000001" class="node">
<title>Node1</title>
<g id="a_Node000001"><a xlink:title=" ">
<polygon fill="#999999" stroke="#666666" points="448,-213.88 331.5,-213.88 331.5,-194.62 448,-194.62 448,-213.88"/>
<text text-anchor="middle" x="389.75" y="-200.38" font-family="Helvetica,sans-Serif" font-size="10.00">yaclib::detail::InlineCore</text>
</a>
</g>
</g>
<!-- Node6 -->
<g id="Node000006" class="node">
<title>Node6</title>
<g id="a_Node000006"><a xlink:href="classyaclib_1_1detail_1_1AwaitOnEvent.html" target="_top" xlink:title=" ">
<polygon fill="white" stroke="#666666" points="835,-409.5 699.75,-409.5 699.75,-379 835,-379 835,-409.5"/>
<text text-anchor="start" x="707.75" y="-396" font-family="Helvetica,sans-Serif" font-size="10.00">yaclib::detail::AwaitOnEvent</text>
<text text-anchor="middle" x="767.38" y="-384.75" font-family="Helvetica,sans-Serif" font-size="10.00">&lt; true &gt;</text>
</a>
</g>
</g>
<!-- Node1&#45;&gt;Node6 -->
<g id="edge5_Node000001_Node000006" class="edge">
<title>Node1&#45;&gt;Node6</title>
<g id="a_edge5_Node000001_Node000006"><a xlink:title=" ">
<path fill="none" stroke="#63b8ff" d="M393.83,-225.34C401.14,-266.78 423.75,-358.18 485,-397.25 555.33,-442.11 657.02,-425.79 716.94,-409.95"/>
<polygon fill="#63b8ff" stroke="#63b8ff" points="397.32,-225 392.27,-215.69 390.41,-226.12 397.32,-225"/>
</a>
</g>
</g>
<!-- Node7 -->
<g id="Node000007" class="node">
<title>Node7</title>
<g id="a_Node000007"><a xlink:href="classyaclib_1_1detail_1_1AwaitOnEvent.html" target="_top" xlink:title=" ">
<polygon fill="white" stroke="#666666" points="835,-343.5 699.75,-343.5 699.75,-313 835,-313 835,-343.5"/>
<text text-anchor="start" x="707.75" y="-330" font-family="Helvetica,sans-Serif" font-size="10.00">yaclib::detail::AwaitOnEvent</text>
<text text-anchor="middle" x="767.38" y="-318.75" font-family="Helvetica,sans-Serif" font-size="10.00">&lt; false &gt;</text>
</a>
</g>
</g>
<!-- Node1&#45;&gt;Node7 -->
<g id="edge6_Node000001_Node000007" class="edge">
<title>Node1&#45;&gt;Node7</title>
<g id="a_edge6_Node000001_Node000007"><a xlink:title=" ">
<path fill="none" stroke="#63b8ff" d="M419.52,-189.04C464.97,-167.21 555.28,-132.9 624,-164.25 692.61,-195.54 740.92,-278.04 758.77,-312.63"/>
<polygon fill="#63b8ff" stroke="#63b8ff" points="417.99,-185.89 410.58,-193.47 421.1,-192.16 417.99,-185.89"/>
</a>
</g>
</g>
<!-- Node8 -->
<g id="Node000008" class="node">
<title>Node8</title>
<g id="a_Node000008"><a xlink:href="classyaclib_1_1detail_1_1AllCombinator.html" target="_top" xlink:title=" ">
<polygon fill="white" stroke="#666666" points="621.38,-339.5 487.62,-339.5 487.62,-309 621.38,-309 621.38,-339.5"/>
<text text-anchor="start" x="495.62" y="-326" font-family="Helvetica,sans-Serif" font-size="10.00">yaclib::detail::AllCombinator</text>
<text text-anchor="middle" x="554.5" y="-314.75" font-family="Helvetica,sans-Serif" font-size="10.00">&lt; O, R, E &gt;</text>
</a>
</g>
</g>
<!-- Node1&#45;&gt;Node8 -->
<g id="edge7_Node000001_Node000008" class="edge">
<title>Node1&#45;&gt;Node8</title>
<g id="a_edge7_Node000001_Node000008"><a xlink:title=" ">
<path fill="none" stroke="#63b8ff" d="M405.28,-223.27C422.31,-244.43 452.4,-278.37 485,-299.25 490.44,-302.73 496.43,-305.82 502.53,-308.53"/>
<polygon fill="#63b8ff" stroke="#63b8ff" points="408.07,-221.17 399.14,-215.47 402.57,-225.5 408.07,-221.17"/>
</a>
</g>
</g>
<!-- Node9 -->
<g id="Node000009" class="node">
<title>Node9</title>
<g id="a_Node000009"><a xlink:href="classyaclib_1_1detail_1_1AllCombinator_3_01OrderPolicy_1_1Same_00_01R_00_01E_01_4.html" target="_top" xlink:title=" ">
<polygon fill="white" stroke="#666666" points="622.5,-290.5 486.5,-290.5 486.5,-260 622.5,-260 622.5,-290.5"/>
<text text-anchor="start" x="494.5" y="-277" font-family="Helvetica,sans-Serif" font-size="10.00">yaclib::detail::AllCombinator</text>
<text text-anchor="middle" x="554.5" y="-265.75" font-family="Helvetica,sans-Serif" font-size="10.00">&lt; OrderPolicy::Same, R, E &gt;</text>
</a>
</g>
</g>
<!-- Node1&#45;&gt;Node9 -->
<g id="edge8_Node000001_Node000009" class="edge">
<title>Node1&#45;&gt;Node9</title>
<g id="a_edge8_Node000001_Node000009"><a xlink:title=" ">
<path fill="none" stroke="#63b8ff" d="M420.07,-219.54C438.49,-228.9 462.87,-240.84 485,-250.25 492.46,-253.42 500.47,-256.57 508.29,-259.51"/>
<polygon fill="#63b8ff" stroke="#63b8ff" points="421.81,-216.5 411.32,-215.05 418.62,-222.73 421.81,-216.5"/>
</a>
</g>
</g>
<!-- Node10 -->
<g id="Node000010" class="node">
<title>Node10</title>
<g id="a_Node000010"><a xlink:href="classyaclib_1_1detail_1_1AnyCombinator.html" target="_top" xlink:title=" ">
<polygon fill="white" stroke="#666666" points="624,-241.5 485,-241.5 485,-211 624,-211 624,-241.5"/>
<text text-anchor="start" x="493" y="-228" font-family="Helvetica,sans-Serif" font-size="10.00">yaclib::detail::AnyCombinator</text>
<text text-anchor="middle" x="554.5" y="-216.75" font-family="Helvetica,sans-Serif" font-size="10.00">&lt; V, E, P &gt;</text>
</a>
</g>
</g>
<!-- Node1&#45;&gt;Node10 -->
<g id="edge9_Node000001_Node000010" class="edge">
<title>Node1&#45;&gt;Node10</title>
<g id="a_edge9_Node000001_Node000010"><a xlink:title=" ">
<path fill="none" stroke="#63b8ff" d="M459.38,-213.53C467.74,-214.66 476.28,-215.81 484.64,-216.94"/>
<polygon fill="#63b8ff" stroke="#63b8ff" points="460.01,-210.08 449.63,-212.21 459.07,-217.02 460.01,-210.08"/>
</a>
</g>
</g>
<!-- Node11 -->
<g id="Node000011" class="node">
<title>Node11</title>
<g id="a_Node000011"><a xlink:href="classyaclib_1_1detail_1_1AwaitEvent.html" target="_top" xlink:title=" ">
<polygon fill="white" stroke="#666666" points="615.75,-192.88 493.25,-192.88 493.25,-173.62 615.75,-173.62 615.75,-192.88"/>
<text text-anchor="middle" x="554.5" y="-179.38" font-family="Helvetica,sans-Serif" font-size="10.00">yaclib::detail::AwaitEvent</text>
</a>
</g>
</g>
<!-- Node1&#45;&gt;Node11 -->
<g id="edge10_Node000001_Node000011" class="edge">
<title>Node1&#45;&gt;Node11</title>
<g id="a_edge10_Node000001_Node000011"><a xlink:title=" ">
<path fill="none" stroke="#63b8ff" d="M459.5,-195.38C470.55,-193.95 481.93,-192.49 492.78,-191.09"/>
<polygon fill="#63b8ff" stroke="#63b8ff" points="459.1,-191.9 449.63,-196.65 460,-198.84 459.1,-191.9"/>
</a>
</g>
</g>
<!-- Node12 -->
<g id="Node000012" class="node">
<title>Node12</title>
<g id="a_Node000012"><a xlink:href="classyaclib_1_1detail_1_1AwaitOnEvent.html" target="_top" xlink:title=" ">
<polygon fill="white" stroke="#666666" points="622.12,-388.5 486.88,-388.5 486.88,-358 622.12,-358 622.12,-388.5"/>
<text text-anchor="start" x="494.88" y="-375" font-family="Helvetica,sans-Serif" font-size="10.00">yaclib::detail::AwaitOnEvent</text>
<text text-anchor="middle" x="554.5" y="-363.75" font-family="Helvetica,sans-Serif" font-size="10.00">&lt; Single &gt;</text>
</a>
</g>
</g>
<!-- Node1&#45;&gt;Node12 -->
<g id="edge11_Node000001_Node000012" class="edge">
<title>Node1&#45;&gt;Node12</title>
<g id="a_edge11_Node000001_Node000012"><a xlink:title=" ">
<path fill="none" stroke="#63b8ff" d="M399,-224.58C412.52,-255.5 442.24,-314.33 485,-348.25 489.46,-351.79 494.47,-354.86 499.7,-357.51"/>
<polygon fill="#63b8ff" stroke="#63b8ff" points="402.32,-223.45 395.2,-215.6 395.87,-226.17 402.32,-223.45"/>
</a>
</g>
</g>
<!-- Node13 -->
<g id="Node000013" class="node">
<title>Node13</title>
<g id="a_Node000013"><a xlink:href="classyaclib_1_1detail_1_1BaseCore.html" target="_top" xlink:title=" ">
<polygon fill="white" stroke="#666666" points="612.38,-116.88 496.62,-116.88 496.62,-97.62 612.38,-97.62 612.38,-116.88"/>
<text text-anchor="middle" x="554.5" y="-103.38" font-family="Helvetica,sans-Serif" font-size="10.00">yaclib::detail::BaseCore</text>
</a>
</g>
</g>
<!-- Node1&#45;&gt;Node13 -->
<g id="edge14_Node000001_Node000013" class="edge">
<title>Node1&#45;&gt;Node13</title>
<g id="a_edge14_Node000001_Node000013"><a xlink:title=" ">
<path fill="none" stroke="#63b8ff" d="M405.08,-185.82C418.94,-169.2 441.43,-145.29 466,-131.25 476.4,-125.31 488.33,-120.78 499.97,-117.35"/>
<polygon fill="#63b8ff" stroke="#63b8ff" points="402.47,-183.47 398.91,-193.45 407.92,-187.87 402.47,-183.47"/>
</a>
</g>
</g>
<!-- Node20 -->
<g id="Node000020" class="node">
<title>Node20</title>
<g id="a_Node000020"><a xlink:href="structyaclib_1_1detail_1_1CallCallback.html" target="_top" xlink:title=" ">
<polygon fill="white" stroke="#666666" points="618,-79.5 491,-79.5 491,-49 618,-49 618,-79.5"/>
<text text-anchor="start" x="499" y="-66" font-family="Helvetica,sans-Serif" font-size="10.00">yaclib::detail::CallCallback</text>
<text text-anchor="middle" x="554.5" y="-54.75" font-family="Helvetica,sans-Serif" font-size="10.00">&lt; Derived &gt;</text>
</a>
</g>
</g>
<!-- Node1&#45;&gt;Node20 -->
<g id="edge21_Node000001_Node000020" class="edge">
<title>Node1&#45;&gt;Node20</title>
<g id="a_edge21_Node000001_Node000020"><a xlink:title=" ">
<path fill="none" stroke="#63b8ff" d="M401.93,-184.6C417.45,-158.98 447.85,-114.37 485,-88.25 489.43,-85.13 494.31,-82.39 499.35,-79.97"/>
<polygon fill="#63b8ff" stroke="#63b8ff" points="399.04,-182.61 396.98,-193.01 405.07,-186.17 399.04,-182.61"/>
</a>
</g>
</g>
<!-- Node21 -->
<g id="Node000021" class="node">
<title>Node21</title>
<g id="a_Node000021"><a xlink:href="structyaclib_1_1detail_1_1DropCallback.html" target="_top" xlink:title=" ">
<polygon fill="white" stroke="#666666" points="619.88,-30.5 489.12,-30.5 489.12,0 619.88,0 619.88,-30.5"/>
<text text-anchor="start" x="497.12" y="-17" font-family="Helvetica,sans-Serif" font-size="10.00">yaclib::detail::DropCallback</text>
<text text-anchor="middle" x="554.5" y="-5.75" font-family="Helvetica,sans-Serif" font-size="10.00">&lt; Derived &gt;</text>
</a>
</g>
</g>
<!-- Node1&#45;&gt;Node21 -->
<g id="edge22_Node000001_Node000021" class="edge">
<title>Node1&#45;&gt;Node21</title>
<g id="a_edge22_Node000001_Node000021"><a xlink:title=" ">
<path fill="none" stroke="#63b8ff" d="M397.37,-183.52C409.39,-149.04 438.03,-79.78 485,-40.25 489.26,-36.66 494.08,-33.57 499.14,-30.91"/>
<polygon fill="#63b8ff" stroke="#63b8ff" points="394.14,-182.14 394.28,-192.73 400.78,-184.36 394.14,-182.14"/>
</a>
</g>
</g>
<!-- Node2 -->
<g id="Node000002" class="node">
<title>Node2</title>
<g id="a_Node000002"><a xlink:href="classyaclib_1_1Job.html" target="_top" xlink:title="Callable that can be executed in an IExecutor.">
<polygon fill="white" stroke="#666666" points="294.5,-213.88 233.5,-213.88 233.5,-194.62 294.5,-194.62 294.5,-213.88"/>
<text text-anchor="middle" x="264" y="-200.38" font-family="Helvetica,sans-Serif" font-size="10.00">yaclib::Job</text>
</a>
</g>
</g>
<!-- Node2&#45;&gt;Node1 -->
<g id="edge1_Node000001_Node000002" class="edge">
<title>Node2&#45;&gt;Node1</title>
<g id="a_edge1_Node000001_Node000002"><a xlink:title=" ">
<path fill="none" stroke="#63b8ff" d="M306.33,-204.25C314.39,-204.25 322.99,-204.25 331.47,-204.25"/>
<polygon fill="#63b8ff" stroke="#63b8ff" points="306.47,-200.75 296.47,-204.25 306.47,-207.75 306.47,-200.75"/>
</a>
</g>
</g>
<!-- Node3 -->
<g id="Node000003" class="node">
<title>Node3</title>
<g id="a_Node000003"><a xlink:href="classyaclib_1_1IFunc.html" target="_top" xlink:title="Callable interface.">
<polygon fill="white" stroke="#666666" points="183.38,-238.88 113.38,-238.88 113.38,-219.62 183.38,-219.62 183.38,-238.88"/>
<text text-anchor="middle" x="148.38" y="-225.38" font-family="Helvetica,sans-Serif" font-size="10.00">yaclib::IFunc</text>
</a>
</g>
</g>
<!-- Node3&#45;&gt;Node2 -->
<g id="edge2_Node000002_Node000003" class="edge">
<title>Node3&#45;&gt;Node2</title>
<g id="a_edge2_Node000002_Node000003"><a xlink:title=" ">
<path fill="none" stroke="#63b8ff" d="M194.87,-219.24C207.82,-216.39 221.59,-213.36 233.33,-210.78"/>
<polygon fill="#63b8ff" stroke="#63b8ff" points="194.27,-215.79 185.25,-221.36 195.77,-222.63 194.27,-215.79"/>
</a>
</g>
</g>
<!-- Node4 -->
<g id="Node000004" class="node">
<title>Node4</title>
<g id="a_Node000004"><a xlink:href="classyaclib_1_1IRef.html" target="_top" xlink:title="Reference counting interface.">
<polygon fill="white" stroke="#666666" points="63.25,-238.88 0,-238.88 0,-219.62 63.25,-219.62 63.25,-238.88"/>
<text text-anchor="middle" x="31.62" y="-225.38" font-family="Helvetica,sans-Serif" font-size="10.00">yaclib::IRef</text>
</a>
</g>
</g>
<!-- Node4&#45;&gt;Node3 -->
<g id="edge3_Node000003_Node000004" class="edge">
<title>Node4&#45;&gt;Node3</title>
<g id="a_edge3_Node000003_Node000004"><a xlink:title=" ">
<path fill="none" stroke="#63b8ff" d="M74.86,-229.25C87.44,-229.25 101.06,-229.25 113.07,-229.25"/>
<polygon fill="#63b8ff" stroke="#63b8ff" points="75.19,-225.75 65.19,-229.25 75.19,-232.75 75.19,-225.75"/>
</a>
</g>
</g>
<!-- Node5 -->
<g id="Node000005" class="node">
<title>Node5</title>
<g id="a_Node000005"><a xlink:href="structyaclib_1_1detail_1_1Node.html" target="_top" xlink:title="Node class, used in intrusive data structure.">
<polygon fill="white" stroke="#666666" points="196.5,-201.88 100.25,-201.88 100.25,-182.62 196.5,-182.62 196.5,-201.88"/>
<text text-anchor="middle" x="148.38" y="-188.38" font-family="Helvetica,sans-Serif" font-size="10.00">yaclib::detail::Node</text>
</a>
</g>
</g>
<!-- Node5&#45;&gt;Node2 -->
<g id="edge4_Node000002_Node000005" class="edge">
<title>Node5&#45;&gt;Node2</title>
<g id="a_edge4_Node000002_Node000005"><a xlink:title=" ">
<path fill="none" stroke="#63b8ff" d="M208.23,-198.47C216.87,-199.38 225.45,-200.28 233.16,-201.1"/>
<polygon fill="#63b8ff" stroke="#63b8ff" points="208.72,-195 198.41,-197.43 207.99,-201.96 208.72,-195"/>
</a>
</g>
</g>
<!-- Node12&#45;&gt;Node6 -->
<g id="edge12_Node000012_Node000006" class="edge">
<title>Node12&#45;&gt;Node6</title>
<g id="a_edge12_Node000012_Node000006"><a xlink:title=" ">
<path fill="none" stroke="orange" stroke-dasharray="5,2" d="M633.96,-381.06C655.52,-383.21 678.7,-385.52 699.54,-387.59"/>
<polygon fill="orange" stroke="orange" points="634.32,-377.58 624.02,-380.07 633.62,-384.55 634.32,-377.58"/>
</a>
</g>
<text text-anchor="middle" x="661.88" y="-387" font-family="Helvetica,sans-Serif" font-size="10.00" fill="grey"> &lt; true &gt;</text>
</g>
<!-- Node12&#45;&gt;Node7 -->
<g id="edge13_Node000012_Node000007" class="edge">
<title>Node12&#45;&gt;Node7</title>
<g id="a_edge13_Node000012_Node000007"><a xlink:title=" ">
<path fill="none" stroke="orange" stroke-dasharray="5,2" d="M633.66,-356.57C655.31,-351.95 678.6,-346.98 699.54,-342.51"/>
<polygon fill="orange" stroke="orange" points="633.04,-353.12 623.99,-358.63 634.5,-359.97 633.04,-353.12"/>
</a>
</g>
<text text-anchor="middle" x="661.88" y="-356" font-family="Helvetica,sans-Serif" font-size="10.00" fill="grey"> &lt; false &gt;</text>
</g>
<!-- Node14 -->
<g id="Node000014" class="node">
<title>Node14</title>
<g id="a_Node000014"><a xlink:href="classyaclib_1_1detail_1_1NoResultCore.html" target="_top" xlink:title=" ">
<polygon fill="white" stroke="#666666" points="834.25,-122.88 700.5,-122.88 700.5,-103.62 834.25,-103.62 834.25,-122.88"/>
<text text-anchor="middle" x="767.38" y="-109.38" font-family="Helvetica,sans-Serif" font-size="10.00">yaclib::detail::NoResultCore</text>
</a>
</g>
</g>
<!-- Node13&#45;&gt;Node14 -->
<g id="edge15_Node000013_Node000014" class="edge">
<title>Node13&#45;&gt;Node14</title>
<g id="a_edge15_Node000013_Node000014"><a xlink:title=" ">
<path fill="none" stroke="#63b8ff" d="M624.17,-109.2C648.55,-109.9 675.92,-110.68 700.09,-111.36"/>
<polygon fill="#63b8ff" stroke="#63b8ff" points="624.45,-105.71 614.36,-108.92 624.25,-112.71 624.45,-105.71"/>
</a>
</g>
</g>
<!-- Node15 -->
<g id="Node000015" class="node">
<title>Node15</title>
<g id="a_Node000015"><a xlink:href="classyaclib_1_1detail_1_1ResultCore.html" target="_top" xlink:title=" ">
<polygon fill="white" stroke="#666666" points="827.88,-85.5 706.88,-85.5 706.88,-55 827.88,-55 827.88,-85.5"/>
<text text-anchor="start" x="714.88" y="-72" font-family="Helvetica,sans-Serif" font-size="10.00">yaclib::detail::ResultCore</text>
<text text-anchor="middle" x="767.38" y="-60.75" font-family="Helvetica,sans-Serif" font-size="10.00">&lt; V, E &gt;</text>
</a>
</g>
</g>
<!-- Node13&#45;&gt;Node15 -->
<g id="edge16_Node000013_Node000015" class="edge">
<title>Node13&#45;&gt;Node15</title>
<g id="a_edge16_Node000013_Node000015"><a xlink:title=" ">
<path fill="none" stroke="#63b8ff" d="M624,-95.23C650.58,-90.57 680.76,-85.27 706.47,-80.76"/>
<polygon fill="#63b8ff" stroke="#63b8ff" points="623.58,-91.75 614.33,-96.93 624.79,-98.65 623.58,-91.75"/>
</a>
</g>
</g>
<!-- Node16 -->
<g id="Node000016" class="node">
<title>Node16</title>
<g id="a_Node000016"><a xlink:href="structyaclib_1_1detail_1_1OneCounter.html" target="_top" xlink:title=" ">
<polygon fill="white" stroke="#666666" points="1041,-145.12 872,-145.12 872,-103.38 1041,-103.38 1041,-145.12"/>
<text text-anchor="start" x="880" y="-131.62" font-family="Helvetica,sans-Serif" font-size="10.00">yaclib::detail::OneCounter</text>
<text text-anchor="start" x="880" y="-120.38" font-family="Helvetica,sans-Serif" font-size="10.00">&lt; ResultCore&lt; V, E &gt;, PromiseType</text>
<text text-anchor="middle" x="956.5" y="-109.12" font-family="Helvetica,sans-Serif" font-size="10.00">Deleter&lt; Lazy &gt; &gt;</text>
</a>
</g>
</g>
<!-- Node15&#45;&gt;Node16 -->
<g id="edge17_Node000015_Node000016" class="edge">
<title>Node15&#45;&gt;Node16</title>
<g id="a_edge17_Node000015_Node000016"><a xlink:title=" ">
<path fill="none" stroke="#63b8ff" d="M833.75,-89.12C849.17,-93.57 865.72,-98.34 881.49,-102.89"/>
<polygon fill="#63b8ff" stroke="#63b8ff" points="834.78,-85.77 824.2,-86.36 832.84,-92.5 834.78,-85.77"/>
</a>
</g>
</g>
<!-- Node18 -->
<g id="Node000018" class="node">
<title>Node18</title>
<g id="a_Node000018"><a xlink:href="classyaclib_1_1detail_1_1PromiseCore.html" target="_top" xlink:title=" ">
<polygon fill="white" stroke="#666666" points="1021.12,-85.5 891.88,-85.5 891.88,-55 1021.12,-55 1021.12,-85.5"/>
<text text-anchor="start" x="899.88" y="-72" font-family="Helvetica,sans-Serif" font-size="10.00">yaclib::detail::PromiseCore</text>
<text text-anchor="middle" x="956.5" y="-60.75" font-family="Helvetica,sans-Serif" font-size="10.00">&lt; V, E, Func &gt;</text>
</a>
</g>
</g>
<!-- Node15&#45;&gt;Node18 -->
<g id="edge19_Node000015_Node000018" class="edge">
<title>Node15&#45;&gt;Node18</title>
<g id="a_edge19_Node000015_Node000018"><a xlink:title=" ">
<path fill="none" stroke="#63b8ff" d="M839.45,-70.25C856.62,-70.25 874.85,-70.25 891.66,-70.25"/>
<polygon fill="#63b8ff" stroke="#63b8ff" points="839.87,-66.75 829.87,-70.25 839.87,-73.75 839.87,-66.75"/>
</a>
</g>
</g>
<!-- Node19 -->
<g id="Node000019" class="node">
<title>Node19</title>
<g id="a_Node000019"><a xlink:href="classyaclib_1_1detail_1_1ReadyCore.html" target="_top" xlink:title=" ">
<polygon fill="white" stroke="#666666" points="1016.62,-36.5 896.38,-36.5 896.38,-6 1016.62,-6 1016.62,-36.5"/>
<text text-anchor="start" x="904.38" y="-23" font-family="Helvetica,sans-Serif" font-size="10.00">yaclib::detail::ReadyCore</text>
<text text-anchor="middle" x="956.5" y="-11.75" font-family="Helvetica,sans-Serif" font-size="10.00">&lt; V, E &gt;</text>
</a>
</g>
</g>
<!-- Node15&#45;&gt;Node19 -->
<g id="edge20_Node000015_Node000019" class="edge">
<title>Node15&#45;&gt;Node19</title>
<g id="a_edge20_Node000015_Node000019"><a xlink:title=" ">
<path fill="none" stroke="#63b8ff" d="M839.24,-51.69C858.01,-46.78 878.09,-41.52 896.18,-36.78"/>
<polygon fill="#63b8ff" stroke="#63b8ff" points="838.61,-48.24 829.82,-54.16 840.38,-55.01 838.61,-48.24"/>
</a>
</g>
</g>
<!-- Node17 -->
<g id="Node000017" class="node">
<title>Node17</title>
<g id="a_Node000017"><a xlink:href="classyaclib_1_1detail_1_1PromiseType.html" target="_top" xlink:title=" ">
<polygon fill="white" stroke="#666666" points="1208,-139.5 1078,-139.5 1078,-109 1208,-109 1208,-139.5"/>
<text text-anchor="start" x="1086" y="-126" font-family="Helvetica,sans-Serif" font-size="10.00">yaclib::detail::PromiseType</text>
<text text-anchor="middle" x="1143" y="-114.75" font-family="Helvetica,sans-Serif" font-size="10.00">&lt; V, E, Lazy &gt;</text>
</a>
</g>
</g>
<!-- Node16&#45;&gt;Node17 -->
<g id="edge18_Node000016_Node000017" class="edge">
<title>Node16&#45;&gt;Node17</title>
<g id="a_edge18_Node000016_Node000017"><a xlink:title=" ">
<path fill="none" stroke="#63b8ff" d="M1052.84,-124.25C1061.24,-124.25 1069.61,-124.25 1077.67,-124.25"/>
<polygon fill="#63b8ff" stroke="#63b8ff" points="1052.9,-120.75 1042.9,-124.25 1052.9,-127.75 1052.9,-120.75"/>
</a>
</g>
</g>
</g>
</svg>
