<?xml version="1.0" encoding="UTF-8" standalone="no"?>
<!DOCTYPE svg PUBLIC "-//W3C//DTD SVG 1.1//EN"
 "http://www.w3.org/Graphics/SVG/1.1/DTD/svg11.dtd">
<!-- Generated by graphviz version 9.0.0 (20230911.1827)
 -->
<!-- Title: yaclib::detail::PromiseCore&lt; V, E, Func, Shared &gt; Pages: 1 -->
<svg width="288pt" height="110pt"
 viewBox="0.00 0.00 288.25 109.75" xmlns="http://www.w3.org/2000/svg" xmlns:xlink="http://www.w3.org/1999/xlink">
<g id="graph0" class="graph" transform="scale(1 1) rotate(0) translate(4 105.75)">
<title>yaclib::detail::PromiseCore&lt; V, E, Func, Shared &gt;</title>
<!-- Node1 -->
<g id="Node000001" class="node">
<title>Node1</title>
<g id="a_Node000001"><a xlink:title=" ">
<polygon fill="#999999" stroke="#666666" points="280.25,-60.5 151,-60.5 151,-30 280.25,-30 280.25,-60.5"/>
<text text-anchor="start" x="159" y="-47" font-family="Helvetica,sans-Serif" font-size="10.00">yaclib::detail::PromiseCore</text>
<text text-anchor="middle" x="215.62" y="-35.75" font-family="Helvetica,sans-Serif" font-size="10.00">&lt; V, E, Func, Shared &gt;</text>
</a>
</g>
</g>
<!-- Node2 -->
<g id="Node000002" class="node">
<title>Node2</title>
<g id="a_Node000002"><a xlink:title=" ">
<polygon fill="white" stroke="#666666" points="113.12,-101.75 1.88,-101.75 1.88,-48.75 113.12,-48.75 113.12,-101.75"/>
<text text-anchor="start" x="9.88" y="-88.25" font-family="Helvetica,sans-Serif" font-size="10.00">std::conditional_t</text>
<text text-anchor="start" x="9.88" y="-77" font-family="Helvetica,sans-Serif" font-size="10.00">&lt; Shared, SharedCore</text>
<text text-anchor="start" x="9.88" y="-65.75" font-family="Helvetica,sans-Serif" font-size="10.00">&lt; V, E &gt;, UniqueCore</text>
<text text-anchor="middle" x="57.5" y="-54.5" font-family="Helvetica,sans-Serif" font-size="10.00">&lt; V, E &gt; &gt;</text>
</a>
</g>
</g>
<!-- Node2&#45;&gt;Node1 -->
<g id="edge1_Node000001_Node000002" class="edge">
<title>Node2&#45;&gt;Node1</title>
<g id="a_edge1_Node000001_Node000002"><a xlink:title=" ">
<path fill="none" stroke="#63b8ff" d="M124.72,-62.52C133.34,-60.87 142.16,-59.17 150.74,-57.53"/>
<polygon fill="#63b8ff" stroke="#63b8ff" points="124.19,-59.06 115.03,-64.39 125.51,-65.94 124.19,-59.06"/>
</a>
</g>
</g>
<!-- Node3 -->
<g id="Node000003" class="node">
<title>Node3</title>
<g id="a_Node000003"><a xlink:href="classyaclib_1_1detail_1_1FuncCore.html" target="_top" xlink:title=" ">
<polygon fill="white" stroke="#666666" points="115,-30.5 0,-30.5 0,0 115,0 115,-30.5"/>
<text text-anchor="start" x="8" y="-17" font-family="Helvetica,sans-Serif" font-size="10.00">yaclib::detail::FuncCore</text>
<text text-anchor="middle" x="57.5" y="-5.75" font-family="Helvetica,sans-Serif" font-size="10.00">&lt; Func &gt;</text>
</a>
</g>
</g>
<!-- Node3&#45;&gt;Node1 -->
<g id="edge2_Node000001_Node000003" class="edge">
<title>Node3&#45;&gt;Node1</title>
<g id="a_edge2_Node000001_Node000003"><a xlink:title=" ">
<path fill="none" stroke="#63b8ff" d="M126.53,-28.32C134.57,-29.87 142.75,-31.44 150.73,-32.97"/>
<polygon fill="#63b8ff" stroke="#63b8ff" points="127.27,-24.9 116.79,-26.45 125.95,-31.78 127.27,-24.9"/>
</a>
</g>
</g>
</g>
</svg>
