<?xml version="1.0" encoding="UTF-8" standalone="no"?>
<!DOCTYPE svg PUBLIC "-//W3C//DTD SVG 1.1//EN"
 "http://www.w3.org/Graphics/SVG/1.1/DTD/svg11.dtd">
<!-- Generated by graphviz version 9.0.0 (20230911.1827)
 -->
<!-- Title: yaclib::detail::InlineCore Pages: 1 -->
<!--zoomable 459 -->

<svg id="main" version="1.1" xmlns="http://www.w3.org/2000/svg" xmlns:xlink="http://www.w3.org/1999/xlink" xml:space="preserve" onload="init(evt)">
<style type="text/css"><![CDATA[
.node, .edge {opacity: 0.7;}
.node.selected, .edge.selected {opacity: 1;}
.edge:hover path { stroke: red; }
.edge:hover polygon { stroke: red; fill: red; }
]]></style>

<defs>
  <circle id="rim" cx="0" cy="0" r="7"/>
  <circle id="rim2" cx="0" cy="0" r="3.5"/>
  <g id="zoomPlus">
    <use xlink:href="#rim" fill="#404040"><set attributeName="fill" to="#808080" begin="zoomplus.mouseover" end="zoomplus.mouseout"/></use>
    <path d="M-4,0h8M0,-4v8" fill="none" stroke="white" stroke-width="1.5" pointer-events="none"/>
  </g>
  <g id="zoomMin">
    <use xlink:href="#rim" fill="#404040"><set attributeName="fill" to="#808080" begin="zoomminus.mouseover" end="zoomminus.mouseout"/></use>
    <path d="M-4,0h8" fill="none" stroke="white" stroke-width="1.5" pointer-events="none"/>
  </g>
  <g id="arrowUp" transform="translate(30 24)">
    <use xlink:href="#rim"/>
    <path pointer-events="none" fill="none" stroke="white" stroke-width="1.5" d="M0,-3.0v7 M-2.5,-0.5L0,-3.0L2.5,-0.5"/>
  </g>
  <g id="arrowRight" transform="rotate(90) translate(36 -43)">
    <use xlink:href="#rim"/>
    <path pointer-events="none" fill="none" stroke="white" stroke-width="1.5" d="M0,-3.0v7 M-2.5,-0.5L0,-3.0L2.5,-0.5"/>
  </g>
  <g id="arrowDown" transform="rotate(180) translate(-30 -48)">
    <use xlink:href="#rim"/>
    <path pointer-events="none" fill="none" stroke="white" stroke-width="1.5" d="M0,-3.0v7 M-2.5,-0.5L0,-3.0L2.5,-0.5"/>
  </g>
  <g id="arrowLeft" transform="rotate(270) translate(-36 17)">
    <use xlink:href="#rim"/>
    <path pointer-events="none" fill="none" stroke="white" stroke-width="1.5" d="M0,-3.0v7 M-2.5,-0.5L0,-3.0L2.5,-0.5"/>
  </g>
  <g id="resetDef">
    <use xlink:href="#rim2" fill="#404040"><set attributeName="fill" to="#808080" begin="reset.mouseover" end="reset.mouseout"/></use>
  </g>
</defs>
<script type="application/ecmascript">
var viewWidth = 1191;
var viewHeight = 459;
var sectionId = 'dynsection-0';
</script>
<script type="application/ecmascript" xlink:href="svg.min.js"/>
<svg id="graph" class="graph">
<g id="viewport">
<title>yaclib::detail::InlineCore</title>
<!-- Node1 -->
<g id="Node000001" class="node">
<title>Node1</title>
<g id="a_Node000001"><a xlink:title=" ">
<polygon fill="#999999" stroke="#666666" points="448,-251.88 331.5,-251.88 331.5,-232.62 448,-232.62 448,-251.88"/>
<text text-anchor="middle" x="389.75" y="-238.38" font-family="Helvetica,sans-Serif" font-size="10.00">yaclib::detail::InlineCore</text>
</a>
</g>
</g>
<!-- Node6 -->
<g id="Node000006" class="node">
<title>Node6</title>
<g id="a_Node000006"><a xlink:href="classyaclib_1_1detail_1_1AwaitOnEvent.html" target="_top" xlink:title=" ">
<polygon fill="white" stroke="#666666" points="845.5,-330.5 710.25,-330.5 710.25,-300 845.5,-300 845.5,-330.5"/>
<text text-anchor="start" x="718.25" y="-317" font-family="Helvetica,sans-Serif" font-size="10.00">yaclib::detail::AwaitOnEvent</text>
<text text-anchor="middle" x="777.88" y="-305.75" font-family="Helvetica,sans-Serif" font-size="10.00">&lt; false &gt;</text>
</a>
</g>
</g>
<!-- Node1&#45;&gt;Node6 -->
<g id="edge5_Node000001_Node000006" class="edge">
<title>Node1&#45;&gt;Node6</title>
<g id="a_edge5_Node000001_Node000006"><a xlink:title=" ">
<path fill="none" stroke="#63b8ff" d="M394.04,-263.07C401.68,-303.56 424.81,-392.19 485,-429.25 541.58,-464.09 571.81,-451.26 634.5,-429.25 690.67,-409.53 741.12,-357.29 763.96,-330.93"/>
<polygon fill="#63b8ff" stroke="#63b8ff" points="397.53,-262.69 392.37,-253.44 390.63,-263.89 397.53,-262.69"/>
</a>
</g>
</g>
<!-- Node8 -->
<g id="Node000008" class="node">
<title>Node8</title>
<g id="a_Node000008"><a xlink:href="structyaclib_1_1detail_1_1AwaitAwaiter_3_01Handle_00_01true_01_4.html" target="_top" xlink:title=" ">
<polygon fill="white" stroke="#666666" points="625.12,-420.5 494.38,-420.5 494.38,-390 625.12,-390 625.12,-420.5"/>
<text text-anchor="start" x="502.38" y="-407" font-family="Helvetica,sans-Serif" font-size="10.00">yaclib::detail::AwaitAwaiter</text>
<text text-anchor="middle" x="559.75" y="-395.75" font-family="Helvetica,sans-Serif" font-size="10.00">&lt; Handle, true &gt;</text>
</a>
</g>
</g>
<!-- Node1&#45;&gt;Node8 -->
<g id="edge7_Node000001_Node000008" class="edge">
<title>Node1&#45;&gt;Node8</title>
<g id="a_edge7_Node000001_Node000008"><a xlink:title=" ">
<path fill="none" stroke="#63b8ff" d="M399.51,-262.68C413.38,-292.68 443.18,-348.51 485,-380.25 489.74,-383.85 495.03,-386.94 500.54,-389.61"/>
<polygon fill="#63b8ff" stroke="#63b8ff" points="402.73,-261.3 395.46,-253.6 396.34,-264.16 402.73,-261.3"/>
</a>
</g>
</g>
<!-- Node9 -->
<g id="Node000009" class="node">
<title>Node9</title>
<g id="a_Node000009"><a xlink:href="classyaclib_1_1detail_1_1AwaitEvent.html" target="_top" xlink:title=" ">
<polygon fill="white" stroke="#666666" points="621,-371.5 498.5,-371.5 498.5,-341 621,-341 621,-371.5"/>
<text text-anchor="start" x="506.5" y="-358" font-family="Helvetica,sans-Serif" font-size="10.00">yaclib::detail::AwaitEvent</text>
<text text-anchor="middle" x="559.75" y="-346.75" font-family="Helvetica,sans-Serif" font-size="10.00">&lt; Sticky &gt;</text>
</a>
</g>
</g>
<!-- Node1&#45;&gt;Node9 -->
<g id="edge8_Node000001_Node000009" class="edge">
<title>Node1&#45;&gt;Node9</title>
<g id="a_edge8_Node000001_Node000009"><a xlink:title=" ">
<path fill="none" stroke="#63b8ff" d="M405.99,-260.77C423.27,-280.71 453.21,-312.11 485,-331.25 490.79,-334.74 497.13,-337.81 503.59,-340.51"/>
<polygon fill="#63b8ff" stroke="#63b8ff" points="408.88,-258.78 399.75,-253.42 403.55,-263.31 408.88,-258.78"/>
</a>
</g>
</g>
<!-- Node10 -->
<g id="Node000010" class="node">
<title>Node10</title>
<g id="a_Node000010"><a xlink:href="classyaclib_1_1detail_1_1AwaitOnEvent.html" target="_top" xlink:title=" ">
<polygon fill="white" stroke="#666666" points="627.38,-322.5 492.12,-322.5 492.12,-292 627.38,-292 627.38,-322.5"/>
<text text-anchor="start" x="500.12" y="-309" font-family="Helvetica,sans-Serif" font-size="10.00">yaclib::detail::AwaitOnEvent</text>
<text text-anchor="middle" x="559.75" y="-297.75" font-family="Helvetica,sans-Serif" font-size="10.00">&lt; Single &gt;</text>
</a>
</g>
</g>
<!-- Node1&#45;&gt;Node10 -->
<g id="edge9_Node000001_Node000010" class="edge">
<title>Node1&#45;&gt;Node10</title>
<g id="a_edge9_Node000001_Node000010"><a xlink:title=" ">
<path fill="none" stroke="#63b8ff" d="M422.51,-256.97C440.64,-265.15 463.9,-275.25 485,-283.25 492.55,-286.11 500.62,-288.95 508.54,-291.62"/>
<polygon fill="#63b8ff" stroke="#63b8ff" points="424.15,-253.87 413.6,-252.92 421.25,-260.24 424.15,-253.87"/>
</a>
</g>
</g>
<!-- Node11 -->
<g id="Node000011" class="node">
<title>Node11</title>
<g id="a_Node000011"><a xlink:href="classyaclib_1_1detail_1_1BaseCore.html" target="_top" xlink:title=" ">
<polygon fill="white" stroke="#666666" points="617.62,-273.88 501.88,-273.88 501.88,-254.62 617.62,-254.62 617.62,-273.88"/>
<text text-anchor="middle" x="559.75" y="-260.38" font-family="Helvetica,sans-Serif" font-size="10.00">yaclib::detail::BaseCore</text>
</a>
</g>
</g>
<!-- Node1&#45;&gt;Node11 -->
<g id="edge11_Node000001_Node000011" class="edge">
<title>Node1&#45;&gt;Node11</title>
<g id="a_edge11_Node000001_Node000011"><a xlink:title=" ">
<path fill="none" stroke="#63b8ff" d="M459.17,-251.21C473.19,-253.05 487.8,-254.96 501.38,-256.74"/>
<polygon fill="#63b8ff" stroke="#63b8ff" points="459.97,-247.78 449.6,-249.96 459.06,-254.73 459.97,-247.78"/>
</a>
</g>
</g>
<!-- Node17 -->
<g id="Node000017" class="node">
<title>Node17</title>
<g id="a_Node000017"><a xlink:href="structyaclib_1_1detail_1_1CallCallback.html" target="_top" xlink:title=" ">
<polygon fill="white" stroke="#666666" points="623.25,-236.5 496.25,-236.5 496.25,-206 623.25,-206 623.25,-236.5"/>
<text text-anchor="start" x="504.25" y="-223" font-family="Helvetica,sans-Serif" font-size="10.00">yaclib::detail::CallCallback</text>
<text text-anchor="middle" x="559.75" y="-211.75" font-family="Helvetica,sans-Serif" font-size="10.00">&lt; Derived &gt;</text>
</a>
</g>
</g>
<!-- Node1&#45;&gt;Node17 -->
<g id="edge17_Node000001_Node000017" class="edge">
<title>Node1&#45;&gt;Node17</title>
<g id="a_edge17_Node000001_Node000017"><a xlink:title=" ">
<path fill="none" stroke="#63b8ff" d="M459.49,-233.66C471.54,-232.15 484.02,-230.59 495.91,-229.11"/>
<polygon fill="#63b8ff" stroke="#63b8ff" points="459.09,-230.18 449.6,-234.89 459.95,-237.13 459.09,-230.18"/>
</a>
</g>
</g>
<!-- Node18 -->
<g id="Node000018" class="node">
<title>Node18</title>
<g id="a_Node000018"><a xlink:href="structyaclib_1_1detail_1_1DropCallback.html" target="_top" xlink:title=" ">
<polygon fill="white" stroke="#666666" points="625.12,-187.5 494.38,-187.5 494.38,-157 625.12,-157 625.12,-187.5"/>
<text text-anchor="start" x="502.38" y="-174" font-family="Helvetica,sans-Serif" font-size="10.00">yaclib::detail::DropCallback</text>
<text text-anchor="middle" x="559.75" y="-162.75" font-family="Helvetica,sans-Serif" font-size="10.00">&lt; Derived &gt;</text>
</a>
</g>
</g>
<!-- Node1&#45;&gt;Node18 -->
<g id="edge18_Node000001_Node000018" class="edge">
<title>Node1&#45;&gt;Node18</title>
<g id="a_edge18_Node000001_Node000018"><a xlink:title=" ">
<path fill="none" stroke="#63b8ff" d="M420.03,-227.17C438.43,-217.96 462.81,-206.27 485,-197.25 492.89,-194.04 501.36,-190.9 509.65,-187.98"/>
<polygon fill="#63b8ff" stroke="#63b8ff" points="418.64,-223.94 411.29,-231.58 421.8,-230.19 418.64,-223.94"/>
</a>
</g>
</g>
<!-- Node19 -->
<g id="Node000019" class="node">
<title>Node19</title>
<g id="a_Node000019"><a xlink:href="structyaclib_1_1detail_1_1EventHelperCallback.html" target="_top" xlink:title=" ">
<polygon fill="white" stroke="#666666" points="622.88,-138.5 496.62,-138.5 496.62,-108 622.88,-108 622.88,-138.5"/>
<text text-anchor="start" x="504.62" y="-125" font-family="Helvetica,sans-Serif" font-size="10.00">yaclib::detail::EventHelper</text>
<text text-anchor="middle" x="559.75" y="-113.75" font-family="Helvetica,sans-Serif" font-size="10.00">Callback&lt; Event &gt;</text>
</a>
</g>
</g>
<!-- Node1&#45;&gt;Node19 -->
<g id="edge19_Node000001_Node000019" class="edge">
<title>Node1&#45;&gt;Node19</title>
<g id="a_edge19_Node000001_Node000019"><a xlink:title=" ">
<path fill="none" stroke="#63b8ff" d="M405.23,-223.3C422.23,-202.25 452.28,-168.55 485,-148.25 490.74,-144.69 497.06,-141.56 503.5,-138.84"/>
<polygon fill="#63b8ff" stroke="#63b8ff" points="402.56,-221.04 399.12,-231.06 408.06,-225.37 402.56,-221.04"/>
</a>
</g>
</g>
<!-- Node20 -->
<g id="Node000020" class="node">
<title>Node20</title>
<g id="a_Node000020"><a xlink:href="structyaclib_1_1when_1_1CombinatorCallback.html" target="_top" xlink:title=" ">
<polygon fill="white" stroke="#666666" points="621,-90.12 498.5,-90.12 498.5,-48.38 621,-48.38 621,-90.12"/>
<text text-anchor="start" x="506.5" y="-76.62" font-family="Helvetica,sans-Serif" font-size="10.00">yaclib::when::Combinator</text>
<text text-anchor="start" x="506.5" y="-65.38" font-family="Helvetica,sans-Serif" font-size="10.00">Callback&lt; Combinator,</text>
<text text-anchor="middle" x="559.75" y="-54.12" font-family="Helvetica,sans-Serif" font-size="10.00"> Core, Index &gt;</text>
</a>
</g>
</g>
<!-- Node1&#45;&gt;Node20 -->
<g id="edge20_Node000001_Node000020" class="edge">
<title>Node1&#45;&gt;Node20</title>
<g id="a_edge20_Node000001_Node000020"><a xlink:title=" ">
<path fill="none" stroke="#63b8ff" d="M399.19,-222.25C412.96,-191.8 443.01,-133.7 485,-99.25 489.06,-95.92 493.54,-92.91 498.23,-90.21"/>
<polygon fill="#63b8ff" stroke="#63b8ff" points="396.13,-220.51 395.32,-231.08 402.54,-223.32 396.13,-220.51"/>
</a>
</g>
</g>
<!-- Node21 -->
<g id="Node000021" class="node">
<title>Node21</title>
<g id="a_Node000021"><a xlink:href="structyaclib_1_1when_1_1SingleCombinator.html" target="_top" xlink:title=" ">
<polygon fill="white" stroke="#666666" points="634.5,-30.5 485,-30.5 485,0 634.5,0 634.5,-30.5"/>
<text text-anchor="start" x="493" y="-17" font-family="Helvetica,sans-Serif" font-size="10.00">yaclib::when::SingleCombinator</text>
<text text-anchor="middle" x="559.75" y="-5.75" font-family="Helvetica,sans-Serif" font-size="10.00">&lt; Strategy, Core &gt;</text>
</a>
</g>
</g>
<!-- Node1&#45;&gt;Node21 -->
<g id="edge21_Node000001_Node000021" class="edge">
<title>Node1&#45;&gt;Node21</title>
<g id="a_edge21_Node000001_Node000021"><a xlink:title=" ">
<path fill="none" stroke="#63b8ff" d="M394.67,-221.36C403.44,-180.45 428.47,-89.37 485,-39.25 488.63,-36.03 492.69,-33.25 497,-30.83"/>
<polygon fill="#63b8ff" stroke="#63b8ff" points="391.26,-220.58 392.72,-231.08 398.12,-221.97 391.26,-220.58"/>
</a>
</g>
</g>
<!-- Node2 -->
<g id="Node000002" class="node">
<title>Node2</title>
<g id="a_Node000002"><a xlink:href="classyaclib_1_1Job.html" target="_top" xlink:title="Callable that can be executed in an IExecutor.">
<polygon fill="white" stroke="#666666" points="294.5,-251.88 233.5,-251.88 233.5,-232.62 294.5,-232.62 294.5,-251.88"/>
<text text-anchor="middle" x="264" y="-238.38" font-family="Helvetica,sans-Serif" font-size="10.00">yaclib::Job</text>
</a>
</g>
</g>
<!-- Node2&#45;&gt;Node1 -->
<g id="edge1_Node000001_Node000002" class="edge">
<title>Node2&#45;&gt;Node1</title>
<g id="a_edge1_Node000001_Node000002"><a xlink:title=" ">
<path fill="none" stroke="#63b8ff" d="M306.33,-242.25C314.39,-242.25 322.99,-242.25 331.47,-242.25"/>
<polygon fill="#63b8ff" stroke="#63b8ff" points="306.47,-238.75 296.47,-242.25 306.47,-245.75 306.47,-238.75"/>
</a>
</g>
</g>
<!-- Node3 -->
<g id="Node000003" class="node">
<title>Node3</title>
<g id="a_Node000003"><a xlink:href="classyaclib_1_1IFunc.html" target="_top" xlink:title="Callable interface.">
<polygon fill="white" stroke="#666666" points="183.38,-276.88 113.38,-276.88 113.38,-257.62 183.38,-257.62 183.38,-276.88"/>
<text text-anchor="middle" x="148.38" y="-263.38" font-family="Helvetica,sans-Serif" font-size="10.00">yaclib::IFunc</text>
</a>
</g>
</g>
<!-- Node3&#45;&gt;Node2 -->
<g id="edge2_Node000002_Node000003" class="edge">
<title>Node3&#45;&gt;Node2</title>
<g id="a_edge2_Node000002_Node000003"><a xlink:title=" ">
<path fill="none" stroke="#63b8ff" d="M194.87,-257.24C207.82,-254.39 221.59,-251.36 233.33,-248.78"/>
<polygon fill="#63b8ff" stroke="#63b8ff" points="194.27,-253.79 185.25,-259.36 195.77,-260.63 194.27,-253.79"/>
</a>
</g>
</g>
<!-- Node4 -->
<g id="Node000004" class="node">
<title>Node4</title>
<g id="a_Node000004"><a xlink:href="classyaclib_1_1IRef.html" target="_top" xlink:title="Reference counting interface.">
<polygon fill="white" stroke="#666666" points="63.25,-276.88 0,-276.88 0,-257.62 63.25,-257.62 63.25,-276.88"/>
<text text-anchor="middle" x="31.62" y="-263.38" font-family="Helvetica,sans-Serif" font-size="10.00">yaclib::IRef</text>
</a>
</g>
</g>
<!-- Node4&#45;&gt;Node3 -->
<g id="edge3_Node000003_Node000004" class="edge">
<title>Node4&#45;&gt;Node3</title>
<g id="a_edge3_Node000003_Node000004"><a xlink:title=" ">
<path fill="none" stroke="#63b8ff" d="M74.86,-267.25C87.44,-267.25 101.06,-267.25 113.07,-267.25"/>
<polygon fill="#63b8ff" stroke="#63b8ff" points="75.19,-263.75 65.19,-267.25 75.19,-270.75 75.19,-263.75"/>
</a>
</g>
</g>
<!-- Node5 -->
<g id="Node000005" class="node">
<title>Node5</title>
<g id="a_Node000005"><a xlink:href="structyaclib_1_1detail_1_1Node.html" target="_top" xlink:title="Node class, used in intrusive data structure.">
<polygon fill="white" stroke="#666666" points="196.5,-239.88 100.25,-239.88 100.25,-220.62 196.5,-220.62 196.5,-239.88"/>
<text text-anchor="middle" x="148.38" y="-226.38" font-family="Helvetica,sans-Serif" font-size="10.00">yaclib::detail::Node</text>
</a>
</g>
</g>
<!-- Node5&#45;&gt;Node2 -->
<g id="edge4_Node000002_Node000005" class="edge">
<title>Node5&#45;&gt;Node2</title>
<g id="a_edge4_Node000002_Node000005"><a xlink:title=" ">
<path fill="none" stroke="#63b8ff" d="M208.23,-236.47C216.87,-237.38 225.45,-238.28 233.16,-239.1"/>
<polygon fill="#63b8ff" stroke="#63b8ff" points="208.72,-233 198.41,-235.43 207.99,-239.96 208.72,-233"/>
</a>
</g>
</g>
<!-- Node7 -->
<g id="Node000007" class="node">
<title>Node7</title>
<g id="a_Node000007"><a xlink:href="structyaclib_1_1detail_1_1AwaitOnAwaiter.html" target="_top" xlink:title=" ">
<polygon fill="white" stroke="#666666" points="1026,-330.5 882.5,-330.5 882.5,-300 1026,-300 1026,-330.5"/>
<text text-anchor="start" x="890.5" y="-317" font-family="Helvetica,sans-Serif" font-size="10.00">yaclib::detail::AwaitOnAwaiter</text>
<text text-anchor="middle" x="954.25" y="-305.75" font-family="Helvetica,sans-Serif" font-size="10.00">&lt; Handle &gt;</text>
</a>
</g>
</g>
<!-- Node6&#45;&gt;Node7 -->
<g id="edge6_Node000006_Node000007" class="edge">
<title>Node6&#45;&gt;Node7</title>
<g id="a_edge6_Node000006_Node000007"><a xlink:title=" ">
<path fill="none" stroke="#63b8ff" d="M857.09,-315.25C865.44,-315.25 873.9,-315.25 882.17,-315.25"/>
<polygon fill="#63b8ff" stroke="#63b8ff" points="857.31,-311.75 847.31,-315.25 857.31,-318.75 857.31,-311.75"/>
</a>
</g>
</g>
<!-- Node10&#45;&gt;Node6 -->
<g id="edge10_Node000010_Node000006" class="edge">
<title>Node10&#45;&gt;Node6</title>
<g id="a_edge10_Node000010_Node000006"><a xlink:title=" ">
<path fill="none" stroke="orange" stroke-dasharray="5,2" d="M638.89,-310.14C662.16,-311 687.43,-311.94 709.92,-312.77"/>
<polygon fill="orange" stroke="orange" points="639.29,-306.65 629.17,-309.78 639.03,-313.65 639.29,-306.65"/>
</a>
</g>
<text text-anchor="middle" x="672.38" y="-313" font-family="Helvetica,sans-Serif" font-size="10.00" fill="grey"> &lt; false &gt;</text>
</g>
<!-- Node12 -->
<g id="Node000012" class="node">
<title>Node12</title>
<g id="a_Node000012"><a xlink:href="classyaclib_1_1detail_1_1NoResultCore.html" target="_top" xlink:title=" ">
<polygon fill="white" stroke="#666666" points="844.75,-278.88 711,-278.88 711,-259.62 844.75,-259.62 844.75,-278.88"/>
<text text-anchor="middle" x="777.88" y="-265.38" font-family="Helvetica,sans-Serif" font-size="10.00">yaclib::detail::NoResultCore</text>
</a>
</g>
</g>
<!-- Node11&#45;&gt;Node12 -->
<g id="edge12_Node000011_Node000012" class="edge">
<title>Node11&#45;&gt;Node12</title>
<g id="a_edge12_Node000011_Node000012"><a xlink:title=" ">
<path fill="none" stroke="#63b8ff" d="M629.41,-265.84C655.45,-266.44 685.03,-267.13 710.83,-267.72"/>
<polygon fill="#63b8ff" stroke="#63b8ff" points="629.69,-262.34 619.61,-265.61 629.53,-269.34 629.69,-262.34"/>
</a>
</g>
</g>
<!-- Node13 -->
<g id="Node000013" class="node">
<title>Node13</title>
<g id="a_Node000013"><a xlink:href="classyaclib_1_1detail_1_1ResultCore.html" target="_top" xlink:title=" ">
<polygon fill="white" stroke="#666666" points="838.38,-241.5 717.38,-241.5 717.38,-211 838.38,-211 838.38,-241.5"/>
<text text-anchor="start" x="725.38" y="-228" font-family="Helvetica,sans-Serif" font-size="10.00">yaclib::detail::ResultCore</text>
<text text-anchor="middle" x="777.88" y="-216.75" font-family="Helvetica,sans-Serif" font-size="10.00">&lt; V, E &gt;</text>
</a>
</g>
</g>
<!-- Node11&#45;&gt;Node13 -->
<g id="edge13_Node000011_Node000013" class="edge">
<title>Node11&#45;&gt;Node13</title>
<g id="a_edge13_Node000011_Node000013"><a xlink:title=" ">
<path fill="none" stroke="#63b8ff" d="M629.09,-252.23C657.31,-247.27 689.72,-241.57 716.99,-236.78"/>
<polygon fill="#63b8ff" stroke="#63b8ff" points="628.83,-248.73 619.59,-253.9 630.05,-255.62 628.83,-248.73"/>
</a>
</g>
</g>
<!-- Node14 -->
<g id="Node000014" class="node">
<title>Node14</title>
<g id="a_Node000014"><a xlink:href="classyaclib_1_1detail_1_1SharedCore.html" target="_top" xlink:title=" ">
<polygon fill="white" stroke="#666666" points="1016.25,-271.5 892.25,-271.5 892.25,-241 1016.25,-241 1016.25,-271.5"/>
<text text-anchor="start" x="900.25" y="-258" font-family="Helvetica,sans-Serif" font-size="10.00">yaclib::detail::SharedCore</text>
<text text-anchor="middle" x="954.25" y="-246.75" font-family="Helvetica,sans-Serif" font-size="10.00">&lt; V, E &gt;</text>
</a>
</g>
</g>
<!-- Node13&#45;&gt;Node14 -->
<g id="edge14_Node000013_Node000014" class="edge">
<title>Node13&#45;&gt;Node14</title>
<g id="a_edge14_Node000013_Node000014"><a xlink:title=" ">
<path fill="none" stroke="#63b8ff" d="M849.51,-238.4C863.56,-240.82 878.21,-243.34 891.92,-245.7"/>
<polygon fill="#63b8ff" stroke="#63b8ff" points="850.34,-234.99 839.89,-236.75 849.15,-241.89 850.34,-234.99"/>
</a>
</g>
</g>
<!-- Node15 -->
<g id="Node000015" class="node">
<title>Node15</title>
<g id="a_Node000015"><a xlink:href="classyaclib_1_1detail_1_1UniqueCore.html" target="_top" xlink:title=" ">
<polygon fill="white" stroke="#666666" points="1016.25,-222.5 892.25,-222.5 892.25,-192 1016.25,-192 1016.25,-222.5"/>
<text text-anchor="start" x="900.25" y="-209" font-family="Helvetica,sans-Serif" font-size="10.00">yaclib::detail::UniqueCore</text>
<text text-anchor="middle" x="954.25" y="-197.75" font-family="Helvetica,sans-Serif" font-size="10.00">&lt; V, E &gt;</text>
</a>
</g>
</g>
<!-- Node13&#45;&gt;Node15 -->
<g id="edge15_Node000013_Node000015" class="edge">
<title>Node13&#45;&gt;Node15</title>
<g id="a_edge15_Node000013_Node000015"><a xlink:title=" ">
<path fill="none" stroke="#63b8ff" d="M849.51,-218.55C863.56,-217.02 878.21,-215.43 891.92,-213.93"/>
<polygon fill="#63b8ff" stroke="#63b8ff" points="849.46,-215.04 839.9,-219.6 850.22,-222 849.46,-215.04"/>
</a>
</g>
</g>
<!-- Node16 -->
<g id="Node000016" class="node">
<title>Node16</title>
<g id="a_Node000016"><a xlink:href="classyaclib_1_1detail_1_1ReadyCore.html" target="_top" xlink:title=" ">
<polygon fill="white" stroke="#666666" points="1183.25,-222.5 1063,-222.5 1063,-192 1183.25,-192 1183.25,-222.5"/>
<text text-anchor="start" x="1071" y="-209" font-family="Helvetica,sans-Serif" font-size="10.00">yaclib::detail::ReadyCore</text>
<text text-anchor="middle" x="1123.12" y="-197.75" font-family="Helvetica,sans-Serif" font-size="10.00">&lt; V, E &gt;</text>
</a>
</g>
</g>
<!-- Node15&#45;&gt;Node16 -->
<g id="edge16_Node000015_Node000016" class="edge">
<title>Node15&#45;&gt;Node16</title>
<g id="a_edge16_Node000015_Node000016"><a xlink:title=" ">
<path fill="none" stroke="#63b8ff" d="M1027.9,-207.25C1039.5,-207.25 1051.37,-207.25 1062.61,-207.25"/>
<polygon fill="#63b8ff" stroke="#63b8ff" points="1027.95,-203.75 1017.95,-207.25 1027.95,-210.75 1027.95,-203.75"/>
</a>
</g>
</g>
</g>
</svg>

<g id="navigator" transform="translate(0 0)" fill="#404254">
  <rect fill="#f2f5e9" fill-opacity="0.5" stroke="#606060" stroke-width=".5" x="0" y="0" width="60" height="60"/>
  <use id="zoomplus" xlink:href="#zoomPlus" x="17" y="9" onmousedown="handleZoom(evt,'in')"/>
  <use id="zoomminus" xlink:href="#zoomMin" x="42" y="9" onmousedown="handleZoom(evt,'out')"/>
  <use id="reset" xlink:href="#resetDef" x="30" y="36" onmousedown="handleReset()"/>
   <use id="arrowup" xlink:href="#arrowUp" x="0" y="0" onmousedown="handlePan(0,-1)"/>
  <use id="arrowright" xlink:href="#arrowRight" x="0" y="0" onmousedown="handlePan(1,0)"/>
  <use id="arrowdown" xlink:href="#arrowDown" x="0" y="0" onmousedown="handlePan(0,1)"/>
  <use id="arrowleft" xlink:href="#arrowLeft" x="0" y="0" onmousedown="handlePan(-1,0)"/>
</g>
<svg viewBox="0 0 15 15" width="100%" height="30px" preserveAspectRatio="xMaxYMin meet">
 <g id="arrow_out" transform="scale(0.3 0.3)">
  <a xlink:href="classyaclib_1_1detail_1_1InlineCore__inherit__graph_org.svg" target="_base">
   <rect id="button" ry="5" rx="5" y="6" x="6" height="38" width="38"
        fill="#f2f5e9" fill-opacity="0.5" stroke="#606060" stroke-width="1.0"/>
   <path id="arrow"
     d="M 11.500037,31.436501 C 11.940474,20.09759 22.043105,11.32322 32.158766,21.979434 L 37.068811,17.246167 C 37.068811,17.246167 37.088388,32 37.088388,32 L 22.160133,31.978069 C 22.160133,31.978069 26.997745,27.140456 26.997745,27.140456 C 18.528582,18.264221 13.291696,25.230495 11.500037,31.436501 z"
     style="fill:#404040;"/>
  </a>
 </g>
</svg>

<style type='text/css'>
<![CDATA[
[data-mouse-over-selected='false'] { opacity: 0.7; }
[data-mouse-over-selected='true']  { opacity: 1.0; }
]]>
</style>
<script type="application/ecmascript"><![CDATA[
document.addEventListener('DOMContentLoaded', (event) => {
  highlightEdges();
  highlightAdjacentNodes();
});
]]></script>
</svg>
