<?xml version="1.0" encoding="UTF-8" standalone="no"?>
<!DOCTYPE svg PUBLIC "-//W3C//DTD SVG 1.1//EN"
 "http://www.w3.org/Graphics/SVG/1.1/DTD/svg11.dtd">
<!-- Generated by graphviz version 9.0.0 (20230911.1827)
 -->
<!-- Title: yaclib::IFunc Pages: 1 -->
<!--zoomable 440 -->

<svg id="main" version="1.1" xmlns="http://www.w3.org/2000/svg" xmlns:xlink="http://www.w3.org/1999/xlink" xml:space="preserve" onload="init(evt)">
<style type="text/css"><![CDATA[
.node, .edge {opacity: 0.7;}
.node.selected, .edge.selected {opacity: 1;}
.edge:hover path { stroke: red; }
.edge:hover polygon { stroke: red; fill: red; }
]]></style>

<defs>
  <circle id="rim" cx="0" cy="0" r="7"/>
  <circle id="rim2" cx="0" cy="0" r="3.5"/>
  <g id="zoomPlus">
    <use xlink:href="#rim" fill="#404040"><set attributeName="fill" to="#808080" begin="zoomplus.mouseover" end="zoomplus.mouseout"/></use>
    <path d="M-4,0h8M0,-4v8" fill="none" stroke="white" stroke-width="1.5" pointer-events="none"/>
  </g>
  <g id="zoomMin">
    <use xlink:href="#rim" fill="#404040"><set attributeName="fill" to="#808080" begin="zoomminus.mouseover" end="zoomminus.mouseout"/></use>
    <path d="M-4,0h8" fill="none" stroke="white" stroke-width="1.5" pointer-events="none"/>
  </g>
  <g id="arrowUp" transform="translate(30 24)">
    <use xlink:href="#rim"/>
    <path pointer-events="none" fill="none" stroke="white" stroke-width="1.5" d="M0,-3.0v7 M-2.5,-0.5L0,-3.0L2.5,-0.5"/>
  </g>
  <g id="arrowRight" transform="rotate(90) translate(36 -43)">
    <use xlink:href="#rim"/>
    <path pointer-events="none" fill="none" stroke="white" stroke-width="1.5" d="M0,-3.0v7 M-2.5,-0.5L0,-3.0L2.5,-0.5"/>
  </g>
  <g id="arrowDown" transform="rotate(180) translate(-30 -48)">
    <use xlink:href="#rim"/>
    <path pointer-events="none" fill="none" stroke="white" stroke-width="1.5" d="M0,-3.0v7 M-2.5,-0.5L0,-3.0L2.5,-0.5"/>
  </g>
  <g id="arrowLeft" transform="rotate(270) translate(-36 17)">
    <use xlink:href="#rim"/>
    <path pointer-events="none" fill="none" stroke="white" stroke-width="1.5" d="M0,-3.0v7 M-2.5,-0.5L0,-3.0L2.5,-0.5"/>
  </g>
  <g id="resetDef">
    <use xlink:href="#rim2" fill="#404040"><set attributeName="fill" to="#808080" begin="reset.mouseover" end="reset.mouseout"/></use>
  </g>
</defs>
<script type="application/ecmascript">
var viewWidth = 1257;
var viewHeight = 440;
var sectionId = 'dynsection-0';
</script>
<script type="application/ecmascript" xlink:href="svg.min.js"/>
<svg id="graph" class="graph">
<g id="viewport">
<title>yaclib::IFunc</title>
<!-- Node1 -->
<g id="Node000001" class="node">
<title>Node1</title>
<g id="a_Node000001"><a xlink:title="Callable interface.">
<polygon fill="#999999" stroke="#666666" points="170.25,-219.88 100.25,-219.88 100.25,-200.62 170.25,-200.62 170.25,-219.88"/>
<text text-anchor="middle" x="135.25" y="-206.38" font-family="Helvetica,sans-Serif" font-size="10.00">yaclib::IFunc</text>
</a>
</g>
</g>
<!-- Node3 -->
<g id="Node000003" class="node">
<title>Node3</title>
<g id="a_Node000003"><a xlink:href="classyaclib_1_1Job.html" target="_top" xlink:title="Callable that can be executed in an IExecutor.">
<polygon fill="white" stroke="#666666" points="300.5,-250.88 239.5,-250.88 239.5,-231.62 300.5,-231.62 300.5,-250.88"/>
<text text-anchor="middle" x="270" y="-237.38" font-family="Helvetica,sans-Serif" font-size="10.00">yaclib::Job</text>
</a>
</g>
</g>
<!-- Node1&#45;&gt;Node3 -->
<g id="edge2_Node000001_Node000003" class="edge">
<title>Node1&#45;&gt;Node3</title>
<g id="a_edge2_Node000001_Node000003"><a xlink:title=" ">
<path fill="none" stroke="#63b8ff" d="M181.63,-220.85C200.75,-225.31 222.45,-230.38 239.44,-234.35"/>
<polygon fill="#63b8ff" stroke="#63b8ff" points="182.44,-217.44 171.91,-218.58 180.85,-224.26 182.44,-217.44"/>
</a>
</g>
</g>
<!-- Node25 -->
<g id="Node000025" class="node">
<title>Node25</title>
<g id="a_Node000025"><a xlink:href="classyaclib_1_1detail_1_1SharedFunc.html" target="_top" xlink:title=" ">
<polygon fill="white" stroke="#666666" points="332.75,-213.5 207.25,-213.5 207.25,-183 332.75,-183 332.75,-213.5"/>
<text text-anchor="start" x="215.25" y="-200" font-family="Helvetica,sans-Serif" font-size="10.00">yaclib::detail::SharedFunc</text>
<text text-anchor="middle" x="270" y="-188.75" font-family="Helvetica,sans-Serif" font-size="10.00">&lt; Func &gt;</text>
</a>
</g>
</g>
<!-- Node1&#45;&gt;Node25 -->
<g id="edge26_Node000001_Node000025" class="edge">
<title>Node1&#45;&gt;Node25</title>
<g id="a_edge26_Node000001_Node000025"><a xlink:title=" ">
<path fill="none" stroke="#63b8ff" d="M181.85,-206.13C189.91,-205.4 198.42,-204.63 206.84,-203.87"/>
<polygon fill="#63b8ff" stroke="#63b8ff" points="181.59,-202.64 171.94,-207.02 182.22,-209.61 181.59,-202.64"/>
</a>
</g>
</g>
<!-- Node2 -->
<g id="Node000002" class="node">
<title>Node2</title>
<g id="a_Node000002"><a xlink:href="classyaclib_1_1IRef.html" target="_top" xlink:title="Reference counting interface.">
<polygon fill="white" stroke="#666666" points="63.25,-219.88 0,-219.88 0,-200.62 63.25,-200.62 63.25,-219.88"/>
<text text-anchor="middle" x="31.62" y="-206.38" font-family="Helvetica,sans-Serif" font-size="10.00">yaclib::IRef</text>
</a>
</g>
</g>
<!-- Node2&#45;&gt;Node1 -->
<g id="edge1_Node000001_Node000002" class="edge">
<title>Node2&#45;&gt;Node1</title>
<g id="a_edge1_Node000001_Node000002"><a xlink:title=" ">
<path fill="none" stroke="#63b8ff" d="M75.05,-210.25C83.32,-210.25 91.89,-210.25 99.85,-210.25"/>
<polygon fill="#63b8ff" stroke="#63b8ff" points="75.18,-206.75 65.18,-210.25 75.18,-213.75 75.18,-206.75"/>
</a>
</g>
</g>
<!-- Node4 -->
<g id="Node000004" class="node">
<title>Node4</title>
<g id="a_Node000004"><a xlink:href="structyaclib_1_1OneShotEvent_1_1TimedWaiter.html" target="_top" xlink:title="Public only because Waiter is public.">
<polygon fill="white" stroke="#666666" points="483.62,-348.5 375.38,-348.5 375.38,-318 483.62,-318 483.62,-348.5"/>
<text text-anchor="start" x="383.38" y="-335" font-family="Helvetica,sans-Serif" font-size="10.00">yaclib::OneShotEvent</text>
<text text-anchor="middle" x="429.5" y="-323.75" font-family="Helvetica,sans-Serif" font-size="10.00">::TimedWaiter</text>
</a>
</g>
</g>
<!-- Node3&#45;&gt;Node4 -->
<g id="edge3_Node000003_Node000004" class="edge">
<title>Node3&#45;&gt;Node4</title>
<g id="a_edge3_Node000003_Node000004"><a xlink:title=" ">
<path fill="none" stroke="#63b8ff" d="M292.86,-257.9C312.37,-272.31 342.05,-293.15 369.75,-308.25 375.78,-311.54 382.34,-314.7 388.81,-317.61"/>
<polygon fill="#63b8ff" stroke="#63b8ff" points="295.22,-255.29 285.11,-252.11 291.03,-260.9 295.22,-255.29"/>
</a>
</g>
</g>
<!-- Node5 -->
<g id="Node000005" class="node">
<title>Node5</title>
<g id="a_Node000005"><a xlink:href="structyaclib_1_1OneShotEvent_1_1Waiter.html" target="_top" xlink:title="Waiter is public for advanced users.">
<polygon fill="white" stroke="#666666" points="483.62,-299.5 375.38,-299.5 375.38,-269 483.62,-269 483.62,-299.5"/>
<text text-anchor="start" x="383.38" y="-286" font-family="Helvetica,sans-Serif" font-size="10.00">yaclib::OneShotEvent</text>
<text text-anchor="middle" x="429.5" y="-274.75" font-family="Helvetica,sans-Serif" font-size="10.00">::Waiter</text>
</a>
</g>
</g>
<!-- Node3&#45;&gt;Node5 -->
<g id="edge4_Node000003_Node000005" class="edge">
<title>Node3&#45;&gt;Node5</title>
<g id="a_edge4_Node000003_Node000005"><a xlink:title=" ">
<path fill="none" stroke="#63b8ff" d="M311.83,-252.4C331.11,-257.66 354.36,-264.01 375.02,-269.65"/>
<polygon fill="#63b8ff" stroke="#63b8ff" points="313.02,-249.1 302.46,-249.84 311.18,-255.85 313.02,-249.1"/>
</a>
</g>
</g>
<!-- Node6 -->
<g id="Node000006" class="node">
<title>Node6</title>
<g id="a_Node000006"><a xlink:href="classyaclib_1_1Strand.html" target="_top" xlink:title=" ">
<polygon fill="white" stroke="#666666" points="466.38,-250.88 392.62,-250.88 392.62,-231.62 466.38,-231.62 466.38,-250.88"/>
<text text-anchor="middle" x="429.5" y="-237.38" font-family="Helvetica,sans-Serif" font-size="10.00">yaclib::Strand</text>
</a>
</g>
</g>
<!-- Node3&#45;&gt;Node6 -->
<g id="edge5_Node000003_Node000006" class="edge">
<title>Node3&#45;&gt;Node6</title>
<g id="a_edge5_Node000003_Node000006"><a xlink:title=" ">
<path fill="none" stroke="#8b1a1a" d="M312.25,-241.25C337.07,-241.25 368.39,-241.25 392.26,-241.25"/>
<polygon fill="#8b1a1a" stroke="#8b1a1a" points="312.51,-237.75 302.51,-241.25 312.51,-244.75 312.51,-237.75"/>
</a>
</g>
</g>
<!-- Node7 -->
<g id="Node000007" class="node">
<title>Node7</title>
<g id="a_Node000007"><a xlink:href="classyaclib_1_1detail_1_1InlineCore.html" target="_top" xlink:title=" ">
<polygon fill="white" stroke="#666666" points="487.75,-213.88 371.25,-213.88 371.25,-194.62 487.75,-194.62 487.75,-213.88"/>
<text text-anchor="middle" x="429.5" y="-200.38" font-family="Helvetica,sans-Serif" font-size="10.00">yaclib::detail::InlineCore</text>
</a>
</g>
</g>
<!-- Node3&#45;&gt;Node7 -->
<g id="edge6_Node000003_Node000007" class="edge">
<title>Node3&#45;&gt;Node7</title>
<g id="a_edge6_Node000003_Node000007"><a xlink:title=" ">
<path fill="none" stroke="#63b8ff" d="M311.94,-231.63C334.54,-226.32 362.6,-219.73 385.52,-214.35"/>
<polygon fill="#63b8ff" stroke="#63b8ff" points="311.4,-228.16 302.47,-233.86 313,-234.98 311.4,-228.16"/>
</a>
</g>
</g>
<!-- Node24 -->
<g id="Node000024" class="node">
<title>Node24</title>
<g id="a_Node000024"><a xlink:href="classyaclib_1_1detail_1_1UniqueJob.html" target="_top" xlink:title=" ">
<polygon fill="white" stroke="#666666" points="489.25,-176.5 369.75,-176.5 369.75,-146 489.25,-146 489.25,-176.5"/>
<text text-anchor="start" x="377.75" y="-163" font-family="Helvetica,sans-Serif" font-size="10.00">yaclib::detail::UniqueJob</text>
<text text-anchor="middle" x="429.5" y="-151.75" font-family="Helvetica,sans-Serif" font-size="10.00">&lt; Func &gt;</text>
</a>
</g>
</g>
<!-- Node3&#45;&gt;Node24 -->
<g id="edge25_Node000003_Node000024" class="edge">
<title>Node3&#45;&gt;Node24</title>
<g id="a_edge25_Node000003_Node000024"><a xlink:title=" ">
<path fill="none" stroke="#63b8ff" d="M311.72,-231.82C319,-229.28 326.31,-226.13 332.75,-222.25 352.67,-210.25 350.38,-198.12 369.75,-185.25 374.34,-182.2 379.37,-179.43 384.51,-176.94"/>
<polygon fill="#63b8ff" stroke="#63b8ff" points="310.78,-228.45 302.27,-234.76 312.86,-235.13 310.78,-228.45"/>
</a>
</g>
</g>
<!-- Node8 -->
<g id="Node000008" class="node">
<title>Node8</title>
<g id="a_Node000008"><a xlink:href="classyaclib_1_1detail_1_1AwaitOnEvent.html" target="_top" xlink:title=" ">
<polygon fill="white" stroke="#666666" points="876.25,-409.5 741,-409.5 741,-379 876.25,-379 876.25,-409.5"/>
<text text-anchor="start" x="749" y="-396" font-family="Helvetica,sans-Serif" font-size="10.00">yaclib::detail::AwaitOnEvent</text>
<text text-anchor="middle" x="808.62" y="-384.75" font-family="Helvetica,sans-Serif" font-size="10.00">&lt; true &gt;</text>
</a>
</g>
</g>
<!-- Node7&#45;&gt;Node8 -->
<g id="edge7_Node000007_Node000008" class="edge">
<title>Node7&#45;&gt;Node8</title>
<g id="a_edge7_Node000007_Node000008"><a xlink:title=" ">
<path fill="none" stroke="#63b8ff" d="M488.15,-221.09C488.52,-221.47 488.89,-221.86 489.25,-222.25 516.08,-251.58 495.61,-371.92 526.25,-397.25 593.74,-453.04 704.67,-429.23 765.12,-409.94"/>
<polygon fill="#63b8ff" stroke="#63b8ff" points="490.53,-218.51 480.45,-215.26 486.3,-224.09 490.53,-218.51"/>
</a>
</g>
</g>
<!-- Node9 -->
<g id="Node000009" class="node">
<title>Node9</title>
<g id="a_Node000009"><a xlink:href="classyaclib_1_1detail_1_1AwaitOnEvent.html" target="_top" xlink:title=" ">
<polygon fill="white" stroke="#666666" points="876.25,-343.5 741,-343.5 741,-313 876.25,-313 876.25,-343.5"/>
<text text-anchor="start" x="749" y="-330" font-family="Helvetica,sans-Serif" font-size="10.00">yaclib::detail::AwaitOnEvent</text>
<text text-anchor="middle" x="808.62" y="-318.75" font-family="Helvetica,sans-Serif" font-size="10.00">&lt; false &gt;</text>
</a>
</g>
</g>
<!-- Node7&#45;&gt;Node9 -->
<g id="edge8_Node000007_Node000009" class="edge">
<title>Node7&#45;&gt;Node9</title>
<g id="a_edge8_Node000007_Node000009"><a xlink:title=" ">
<path fill="none" stroke="#63b8ff" d="M476.52,-190.37C480.87,-188.76 485.17,-187.04 489.25,-185.25 506.56,-177.63 507.97,-169.08 526.25,-164.25 585.98,-148.48 609.04,-138.61 665.25,-164.25 733.86,-195.54 782.17,-278.04 800.02,-312.63"/>
<polygon fill="#63b8ff" stroke="#63b8ff" points="475.44,-187.04 467.16,-193.65 477.75,-193.64 475.44,-187.04"/>
</a>
</g>
</g>
<!-- Node10 -->
<g id="Node000010" class="node">
<title>Node10</title>
<g id="a_Node000010"><a xlink:href="classyaclib_1_1detail_1_1AllCombinator.html" target="_top" xlink:title=" ">
<polygon fill="white" stroke="#666666" points="662.62,-339.5 528.88,-339.5 528.88,-309 662.62,-309 662.62,-339.5"/>
<text text-anchor="start" x="536.88" y="-326" font-family="Helvetica,sans-Serif" font-size="10.00">yaclib::detail::AllCombinator</text>
<text text-anchor="middle" x="595.75" y="-314.75" font-family="Helvetica,sans-Serif" font-size="10.00">&lt; O, R, E &gt;</text>
</a>
</g>
</g>
<!-- Node7&#45;&gt;Node10 -->
<g id="edge9_Node000007_Node000010" class="edge">
<title>Node7&#45;&gt;Node10</title>
<g id="a_edge9_Node000007_Node000010"><a xlink:title=" ">
<path fill="none" stroke="#63b8ff" d="M486.36,-219.96C487.35,-220.69 488.32,-221.45 489.25,-222.25 518.04,-247 498.12,-273.75 526.25,-299.25 530.19,-302.82 534.68,-305.89 539.43,-308.53"/>
<polygon fill="#63b8ff" stroke="#63b8ff" points="488.42,-217.11 478.03,-215.03 484.86,-223.13 488.42,-217.11"/>
</a>
</g>
</g>
<!-- Node11 -->
<g id="Node000011" class="node">
<title>Node11</title>
<g id="a_Node000011"><a xlink:href="classyaclib_1_1detail_1_1AllCombinator_3_01OrderPolicy_1_1Same_00_01R_00_01E_01_4.html" target="_top" xlink:title=" ">
<polygon fill="white" stroke="#666666" points="663.75,-290.5 527.75,-290.5 527.75,-260 663.75,-260 663.75,-290.5"/>
<text text-anchor="start" x="535.75" y="-277" font-family="Helvetica,sans-Serif" font-size="10.00">yaclib::detail::AllCombinator</text>
<text text-anchor="middle" x="595.75" y="-265.75" font-family="Helvetica,sans-Serif" font-size="10.00">&lt; OrderPolicy::Same, R, E &gt;</text>
</a>
</g>
</g>
<!-- Node7&#45;&gt;Node11 -->
<g id="edge10_Node000007_Node000011" class="edge">
<title>Node7&#45;&gt;Node11</title>
<g id="a_edge10_Node000007_Node000011"><a xlink:title=" ">
<path fill="none" stroke="#63b8ff" d="M480.8,-218.35C483.7,-219.56 486.54,-220.86 489.25,-222.25 507.61,-231.64 508.14,-240.38 526.25,-250.25 532.48,-253.64 539.25,-256.75 546.05,-259.53"/>
<polygon fill="#63b8ff" stroke="#63b8ff" points="482.13,-215.11 471.54,-214.84 479.65,-221.65 482.13,-215.11"/>
</a>
</g>
</g>
<!-- Node12 -->
<g id="Node000012" class="node">
<title>Node12</title>
<g id="a_Node000012"><a xlink:href="classyaclib_1_1detail_1_1AnyCombinator.html" target="_top" xlink:title=" ">
<polygon fill="white" stroke="#666666" points="665.25,-241.5 526.25,-241.5 526.25,-211 665.25,-211 665.25,-241.5"/>
<text text-anchor="start" x="534.25" y="-228" font-family="Helvetica,sans-Serif" font-size="10.00">yaclib::detail::AnyCombinator</text>
<text text-anchor="middle" x="595.75" y="-216.75" font-family="Helvetica,sans-Serif" font-size="10.00">&lt; V, E, P &gt;</text>
</a>
</g>
</g>
<!-- Node7&#45;&gt;Node12 -->
<g id="edge11_Node000007_Node000012" class="edge">
<title>Node7&#45;&gt;Node12</title>
<g id="a_edge11_Node000007_Node000012"><a xlink:title=" ">
<path fill="none" stroke="#63b8ff" d="M499.3,-213.46C508.05,-214.64 517.01,-215.84 525.76,-217.01"/>
<polygon fill="#63b8ff" stroke="#63b8ff" points="499.82,-210 489.45,-212.15 498.89,-216.94 499.82,-210"/>
</a>
</g>
</g>
<!-- Node13 -->
<g id="Node000013" class="node">
<title>Node13</title>
<g id="a_Node000013"><a xlink:href="classyaclib_1_1detail_1_1AwaitEvent.html" target="_top" xlink:title=" ">
<polygon fill="white" stroke="#666666" points="657,-192.88 534.5,-192.88 534.5,-173.62 657,-173.62 657,-192.88"/>
<text text-anchor="middle" x="595.75" y="-179.38" font-family="Helvetica,sans-Serif" font-size="10.00">yaclib::detail::AwaitEvent</text>
</a>
</g>
</g>
<!-- Node7&#45;&gt;Node13 -->
<g id="edge12_Node000007_Node000013" class="edge">
<title>Node7&#45;&gt;Node13</title>
<g id="a_edge12_Node000007_Node000013"><a xlink:title=" ">
<path fill="none" stroke="#63b8ff" d="M499.02,-195.49C510.72,-193.99 522.79,-192.45 534.27,-190.98"/>
<polygon fill="#63b8ff" stroke="#63b8ff" points="498.92,-191.97 489.45,-196.71 499.81,-198.92 498.92,-191.97"/>
</a>
</g>
</g>
<!-- Node14 -->
<g id="Node000014" class="node">
<title>Node14</title>
<g id="a_Node000014"><a xlink:href="classyaclib_1_1detail_1_1AwaitOnEvent.html" target="_top" xlink:title=" ">
<polygon fill="white" stroke="#666666" points="663.38,-388.5 528.12,-388.5 528.12,-358 663.38,-358 663.38,-388.5"/>
<text text-anchor="start" x="536.12" y="-375" font-family="Helvetica,sans-Serif" font-size="10.00">yaclib::detail::AwaitOnEvent</text>
<text text-anchor="middle" x="595.75" y="-363.75" font-family="Helvetica,sans-Serif" font-size="10.00">&lt; Single &gt;</text>
</a>
</g>
</g>
<!-- Node7&#45;&gt;Node14 -->
<g id="edge13_Node000007_Node000014" class="edge">
<title>Node7&#45;&gt;Node14</title>
<g id="a_edge13_Node000007_Node000014"><a xlink:title=" ">
<path fill="none" stroke="#63b8ff" d="M487.73,-220.8C488.25,-221.27 488.76,-221.75 489.25,-222.25 509.76,-243.01 506.29,-326.96 526.25,-348.25 529.63,-351.85 533.57,-354.94 537.81,-357.58"/>
<polygon fill="#63b8ff" stroke="#63b8ff" points="489.86,-218.01 479.66,-215.14 485.85,-223.75 489.86,-218.01"/>
</a>
</g>
</g>
<!-- Node15 -->
<g id="Node000015" class="node">
<title>Node15</title>
<g id="a_Node000015"><a xlink:href="classyaclib_1_1detail_1_1BaseCore.html" target="_top" xlink:title=" ">
<polygon fill="white" stroke="#666666" points="653.62,-116.88 537.88,-116.88 537.88,-97.62 653.62,-97.62 653.62,-116.88"/>
<text text-anchor="middle" x="595.75" y="-103.38" font-family="Helvetica,sans-Serif" font-size="10.00">yaclib::detail::BaseCore</text>
</a>
</g>
</g>
<!-- Node7&#45;&gt;Node15 -->
<g id="edge16_Node000007_Node000015" class="edge">
<title>Node7&#45;&gt;Node15</title>
<g id="a_edge16_Node000007_Node000015"><a xlink:title=" ">
<path fill="none" stroke="#63b8ff" d="M486.01,-188.15C487.14,-187.23 488.22,-186.27 489.25,-185.25 507.22,-167.44 488.88,-148.65 507.25,-131.25 515.71,-123.23 526.59,-117.85 537.79,-114.24"/>
<polygon fill="#63b8ff" stroke="#63b8ff" points="484.4,-185.02 477.86,-193.36 488.17,-190.92 484.4,-185.02"/>
</a>
</g>
</g>
<!-- Node22 -->
<g id="Node000022" class="node">
<title>Node22</title>
<g id="a_Node000022"><a xlink:href="structyaclib_1_1detail_1_1CallCallback.html" target="_top" xlink:title=" ">
<polygon fill="white" stroke="#666666" points="659.25,-79.5 532.25,-79.5 532.25,-49 659.25,-49 659.25,-79.5"/>
<text text-anchor="start" x="540.25" y="-66" font-family="Helvetica,sans-Serif" font-size="10.00">yaclib::detail::CallCallback</text>
<text text-anchor="middle" x="595.75" y="-54.75" font-family="Helvetica,sans-Serif" font-size="10.00">&lt; Derived &gt;</text>
</a>
</g>
</g>
<!-- Node7&#45;&gt;Node22 -->
<g id="edge23_Node000007_Node000022" class="edge">
<title>Node7&#45;&gt;Node22</title>
<g id="a_edge23_Node000007_Node000022"><a xlink:title=" ">
<path fill="none" stroke="#63b8ff" d="M486.04,-188.17C487.16,-187.25 488.23,-186.28 489.25,-185.25 508.22,-166.05 497.31,-152.34 507.25,-127.25 514.35,-109.32 511.85,-101.07 526.25,-88.25 529.83,-85.07 533.85,-82.3 538.11,-79.9"/>
<polygon fill="#63b8ff" stroke="#63b8ff" points="484.42,-185.05 477.94,-193.43 488.23,-190.92 484.42,-185.05"/>
</a>
</g>
</g>
<!-- Node23 -->
<g id="Node000023" class="node">
<title>Node23</title>
<g id="a_Node000023"><a xlink:href="structyaclib_1_1detail_1_1DropCallback.html" target="_top" xlink:title=" ">
<polygon fill="white" stroke="#666666" points="661.12,-30.5 530.38,-30.5 530.38,0 661.12,0 661.12,-30.5"/>
<text text-anchor="start" x="538.38" y="-17" font-family="Helvetica,sans-Serif" font-size="10.00">yaclib::detail::DropCallback</text>
<text text-anchor="middle" x="595.75" y="-5.75" font-family="Helvetica,sans-Serif" font-size="10.00">&lt; Derived &gt;</text>
</a>
</g>
</g>
<!-- Node7&#45;&gt;Node23 -->
<g id="edge24_Node000007_Node000023" class="edge">
<title>Node7&#45;&gt;Node23</title>
<g id="a_edge24_Node000007_Node000023"><a xlink:title=" ">
<path fill="none" stroke="#63b8ff" d="M486.6,-187.82C487.52,-187.01 488.41,-186.15 489.25,-185.25 512.01,-161.01 503.94,-64.91 526.25,-40.25 529.48,-36.68 533.26,-33.62 537.35,-31"/>
<polygon fill="#63b8ff" stroke="#63b8ff" points="484.93,-184.72 478.67,-193.27 488.9,-190.49 484.93,-184.72"/>
</a>
</g>
</g>
<!-- Node14&#45;&gt;Node8 -->
<g id="edge14_Node000014_Node000008" class="edge">
<title>Node14&#45;&gt;Node8</title>
<g id="a_edge14_Node000014_Node000008"><a xlink:title=" ">
<path fill="none" stroke="orange" stroke-dasharray="5,2" d="M675.21,-381.06C696.77,-383.21 719.95,-385.52 740.79,-387.59"/>
<polygon fill="orange" stroke="orange" points="675.57,-377.58 665.27,-380.07 674.87,-384.55 675.57,-377.58"/>
</a>
</g>
<text text-anchor="middle" x="703.12" y="-387" font-family="Helvetica,sans-Serif" font-size="10.00" fill="grey"> &lt; true &gt;</text>
</g>
<!-- Node14&#45;&gt;Node9 -->
<g id="edge15_Node000014_Node000009" class="edge">
<title>Node14&#45;&gt;Node9</title>
<g id="a_edge15_Node000014_Node000009"><a xlink:title=" ">
<path fill="none" stroke="orange" stroke-dasharray="5,2" d="M674.91,-356.57C696.56,-351.95 719.85,-346.98 740.79,-342.51"/>
<polygon fill="orange" stroke="orange" points="674.29,-353.12 665.24,-358.63 675.75,-359.97 674.29,-353.12"/>
</a>
</g>
<text text-anchor="middle" x="703.12" y="-356" font-family="Helvetica,sans-Serif" font-size="10.00" fill="grey"> &lt; false &gt;</text>
</g>
<!-- Node16 -->
<g id="Node000016" class="node">
<title>Node16</title>
<g id="a_Node000016"><a xlink:href="classyaclib_1_1detail_1_1NoResultCore.html" target="_top" xlink:title=" ">
<polygon fill="white" stroke="#666666" points="875.5,-122.88 741.75,-122.88 741.75,-103.62 875.5,-103.62 875.5,-122.88"/>
<text text-anchor="middle" x="808.62" y="-109.38" font-family="Helvetica,sans-Serif" font-size="10.00">yaclib::detail::NoResultCore</text>
</a>
</g>
</g>
<!-- Node15&#45;&gt;Node16 -->
<g id="edge17_Node000015_Node000016" class="edge">
<title>Node15&#45;&gt;Node16</title>
<g id="a_edge17_Node000015_Node000016"><a xlink:title=" ">
<path fill="none" stroke="#63b8ff" d="M665.42,-109.2C689.8,-109.9 717.17,-110.68 741.34,-111.36"/>
<polygon fill="#63b8ff" stroke="#63b8ff" points="665.7,-105.71 655.61,-108.92 665.5,-112.71 665.7,-105.71"/>
</a>
</g>
</g>
<!-- Node17 -->
<g id="Node000017" class="node">
<title>Node17</title>
<g id="a_Node000017"><a xlink:href="classyaclib_1_1detail_1_1ResultCore.html" target="_top" xlink:title=" ">
<polygon fill="white" stroke="#666666" points="869.12,-85.5 748.12,-85.5 748.12,-55 869.12,-55 869.12,-85.5"/>
<text text-anchor="start" x="756.12" y="-72" font-family="Helvetica,sans-Serif" font-size="10.00">yaclib::detail::ResultCore</text>
<text text-anchor="middle" x="808.62" y="-60.75" font-family="Helvetica,sans-Serif" font-size="10.00">&lt; V, E &gt;</text>
</a>
</g>
</g>
<!-- Node15&#45;&gt;Node17 -->
<g id="edge18_Node000015_Node000017" class="edge">
<title>Node15&#45;&gt;Node17</title>
<g id="a_edge18_Node000015_Node000017"><a xlink:title=" ">
<path fill="none" stroke="#63b8ff" d="M665.25,-95.23C691.83,-90.57 722.01,-85.27 747.72,-80.76"/>
<polygon fill="#63b8ff" stroke="#63b8ff" points="664.83,-91.75 655.58,-96.93 666.04,-98.65 664.83,-91.75"/>
</a>
</g>
</g>
<!-- Node18 -->
<g id="Node000018" class="node">
<title>Node18</title>
<g id="a_Node000018"><a xlink:href="structyaclib_1_1detail_1_1OneCounter.html" target="_top" xlink:title=" ">
<polygon fill="white" stroke="#666666" points="1082.25,-145.12 913.25,-145.12 913.25,-103.38 1082.25,-103.38 1082.25,-145.12"/>
<text text-anchor="start" x="921.25" y="-131.62" font-family="Helvetica,sans-Serif" font-size="10.00">yaclib::detail::OneCounter</text>
<text text-anchor="start" x="921.25" y="-120.38" font-family="Helvetica,sans-Serif" font-size="10.00">&lt; ResultCore&lt; V, E &gt;, PromiseType</text>
<text text-anchor="middle" x="997.75" y="-109.12" font-family="Helvetica,sans-Serif" font-size="10.00">Deleter&lt; Lazy &gt; &gt;</text>
</a>
</g>
</g>
<!-- Node17&#45;&gt;Node18 -->
<g id="edge19_Node000017_Node000018" class="edge">
<title>Node17&#45;&gt;Node18</title>
<g id="a_edge19_Node000017_Node000018"><a xlink:title=" ">
<path fill="none" stroke="#63b8ff" d="M875,-89.12C890.42,-93.57 906.97,-98.34 922.74,-102.89"/>
<polygon fill="#63b8ff" stroke="#63b8ff" points="876.03,-85.77 865.45,-86.36 874.09,-92.5 876.03,-85.77"/>
</a>
</g>
</g>
<!-- Node20 -->
<g id="Node000020" class="node">
<title>Node20</title>
<g id="a_Node000020"><a xlink:href="classyaclib_1_1detail_1_1PromiseCore.html" target="_top" xlink:title=" ">
<polygon fill="white" stroke="#666666" points="1062.38,-85.5 933.12,-85.5 933.12,-55 1062.38,-55 1062.38,-85.5"/>
<text text-anchor="start" x="941.12" y="-72" font-family="Helvetica,sans-Serif" font-size="10.00">yaclib::detail::PromiseCore</text>
<text text-anchor="middle" x="997.75" y="-60.75" font-family="Helvetica,sans-Serif" font-size="10.00">&lt; V, E, Func &gt;</text>
</a>
</g>
</g>
<!-- Node17&#45;&gt;Node20 -->
<g id="edge21_Node000017_Node000020" class="edge">
<title>Node17&#45;&gt;Node20</title>
<g id="a_edge21_Node000017_Node000020"><a xlink:title=" ">
<path fill="none" stroke="#63b8ff" d="M880.7,-70.25C897.87,-70.25 916.1,-70.25 932.91,-70.25"/>
<polygon fill="#63b8ff" stroke="#63b8ff" points="881.12,-66.75 871.12,-70.25 881.12,-73.75 881.12,-66.75"/>
</a>
</g>
</g>
<!-- Node21 -->
<g id="Node000021" class="node">
<title>Node21</title>
<g id="a_Node000021"><a xlink:href="classyaclib_1_1detail_1_1ReadyCore.html" target="_top" xlink:title=" ">
<polygon fill="white" stroke="#666666" points="1057.88,-36.5 937.62,-36.5 937.62,-6 1057.88,-6 1057.88,-36.5"/>
<text text-anchor="start" x="945.62" y="-23" font-family="Helvetica,sans-Serif" font-size="10.00">yaclib::detail::ReadyCore</text>
<text text-anchor="middle" x="997.75" y="-11.75" font-family="Helvetica,sans-Serif" font-size="10.00">&lt; V, E &gt;</text>
</a>
</g>
</g>
<!-- Node17&#45;&gt;Node21 -->
<g id="edge22_Node000017_Node000021" class="edge">
<title>Node17&#45;&gt;Node21</title>
<g id="a_edge22_Node000017_Node000021"><a xlink:title=" ">
<path fill="none" stroke="#63b8ff" d="M880.49,-51.69C899.26,-46.78 919.34,-41.52 937.43,-36.78"/>
<polygon fill="#63b8ff" stroke="#63b8ff" points="879.86,-48.24 871.07,-54.16 881.63,-55.01 879.86,-48.24"/>
</a>
</g>
</g>
<!-- Node19 -->
<g id="Node000019" class="node">
<title>Node19</title>
<g id="a_Node000019"><a xlink:href="classyaclib_1_1detail_1_1PromiseType.html" target="_top" xlink:title=" ">
<polygon fill="white" stroke="#666666" points="1249.25,-139.5 1119.25,-139.5 1119.25,-109 1249.25,-109 1249.25,-139.5"/>
<text text-anchor="start" x="1127.25" y="-126" font-family="Helvetica,sans-Serif" font-size="10.00">yaclib::detail::PromiseType</text>
<text text-anchor="middle" x="1184.25" y="-114.75" font-family="Helvetica,sans-Serif" font-size="10.00">&lt; V, E, Lazy &gt;</text>
</a>
</g>
</g>
<!-- Node18&#45;&gt;Node19 -->
<g id="edge20_Node000018_Node000019" class="edge">
<title>Node18&#45;&gt;Node19</title>
<g id="a_edge20_Node000018_Node000019"><a xlink:title=" ">
<path fill="none" stroke="#63b8ff" d="M1094.09,-124.25C1102.49,-124.25 1110.86,-124.25 1118.92,-124.25"/>
<polygon fill="#63b8ff" stroke="#63b8ff" points="1094.15,-120.75 1084.15,-124.25 1094.15,-127.75 1094.15,-120.75"/>
</a>
</g>
</g>
</g>
</svg>

<g id="navigator" transform="translate(0 0)" fill="#404254">
  <rect fill="#f2f5e9" fill-opacity="0.5" stroke="#606060" stroke-width=".5" x="0" y="0" width="60" height="60"/>
  <use id="zoomplus" xlink:href="#zoomPlus" x="17" y="9" onmousedown="handleZoom(evt,'in')"/>
  <use id="zoomminus" xlink:href="#zoomMin" x="42" y="9" onmousedown="handleZoom(evt,'out')"/>
  <use id="reset" xlink:href="#resetDef" x="30" y="36" onmousedown="handleReset()"/>
   <use id="arrowup" xlink:href="#arrowUp" x="0" y="0" onmousedown="handlePan(0,-1)"/>
  <use id="arrowright" xlink:href="#arrowRight" x="0" y="0" onmousedown="handlePan(1,0)"/>
  <use id="arrowdown" xlink:href="#arrowDown" x="0" y="0" onmousedown="handlePan(0,1)"/>
  <use id="arrowleft" xlink:href="#arrowLeft" x="0" y="0" onmousedown="handlePan(-1,0)"/>
</g>
<svg viewBox="0 0 15 15" width="100%" height="30px" preserveAspectRatio="xMaxYMin meet">
 <g id="arrow_out" transform="scale(0.3 0.3)">
  <a xlink:href="classyaclib_1_1IFunc__inherit__graph_org.svg" target="_base">
   <rect id="button" ry="5" rx="5" y="6" x="6" height="38" width="38"
        fill="#f2f5e9" fill-opacity="0.5" stroke="#606060" stroke-width="1.0"/>
   <path id="arrow"
     d="M 11.500037,31.436501 C 11.940474,20.09759 22.043105,11.32322 32.158766,21.979434 L 37.068811,17.246167 C 37.068811,17.246167 37.088388,32 37.088388,32 L 22.160133,31.978069 C 22.160133,31.978069 26.997745,27.140456 26.997745,27.140456 C 18.528582,18.264221 13.291696,25.230495 11.500037,31.436501 z"
     style="fill:#404040;"/>
  </a>
 </g>
</svg>

<style type='text/css'>
<![CDATA[
[data-mouse-over-selected='false'] { opacity: 0.7; }
[data-mouse-over-selected='true']  { opacity: 1.0; }
]]>
</style>
<script type="application/ecmascript"><![CDATA[
document.addEventListener('DOMContentLoaded', (event) => {
  highlightEdges();
  highlightAdjacentNodes();
});
]]></script>
</svg>
