<?xml version="1.0" encoding="UTF-8" standalone="no"?>
<!DOCTYPE svg PUBLIC "-//W3C//DTD SVG 1.1//EN"
 "http://www.w3.org/Graphics/SVG/1.1/DTD/svg11.dtd">
<!-- Generated by graphviz version 9.0.0 (20230911.1827)
 -->
<!-- Title: yaclib::IRef Pages: 1 -->
<!--zoomable 500 -->

<svg id="main" version="1.1" xmlns="http://www.w3.org/2000/svg" xmlns:xlink="http://www.w3.org/1999/xlink" xml:space="preserve" onload="init(evt)">
<style type="text/css"><![CDATA[
.node, .edge {opacity: 0.7;}
.node.selected, .edge.selected {opacity: 1;}
.edge:hover path { stroke: red; }
.edge:hover polygon { stroke: red; fill: red; }
]]></style>

<defs>
  <circle id="rim" cx="0" cy="0" r="7"/>
  <circle id="rim2" cx="0" cy="0" r="3.5"/>
  <g id="zoomPlus">
    <use xlink:href="#rim" fill="#404040"><set attributeName="fill" to="#808080" begin="zoomplus.mouseover" end="zoomplus.mouseout"/></use>
    <path d="M-4,0h8M0,-4v8" fill="none" stroke="white" stroke-width="1.5" pointer-events="none"/>
  </g>
  <g id="zoomMin">
    <use xlink:href="#rim" fill="#404040"><set attributeName="fill" to="#808080" begin="zoomminus.mouseover" end="zoomminus.mouseout"/></use>
    <path d="M-4,0h8" fill="none" stroke="white" stroke-width="1.5" pointer-events="none"/>
  </g>
  <g id="arrowUp" transform="translate(30 24)">
    <use xlink:href="#rim"/>
    <path pointer-events="none" fill="none" stroke="white" stroke-width="1.5" d="M0,-3.0v7 M-2.5,-0.5L0,-3.0L2.5,-0.5"/>
  </g>
  <g id="arrowRight" transform="rotate(90) translate(36 -43)">
    <use xlink:href="#rim"/>
    <path pointer-events="none" fill="none" stroke="white" stroke-width="1.5" d="M0,-3.0v7 M-2.5,-0.5L0,-3.0L2.5,-0.5"/>
  </g>
  <g id="arrowDown" transform="rotate(180) translate(-30 -48)">
    <use xlink:href="#rim"/>
    <path pointer-events="none" fill="none" stroke="white" stroke-width="1.5" d="M0,-3.0v7 M-2.5,-0.5L0,-3.0L2.5,-0.5"/>
  </g>
  <g id="arrowLeft" transform="rotate(270) translate(-36 17)">
    <use xlink:href="#rim"/>
    <path pointer-events="none" fill="none" stroke="white" stroke-width="1.5" d="M0,-3.0v7 M-2.5,-0.5L0,-3.0L2.5,-0.5"/>
  </g>
  <g id="resetDef">
    <use xlink:href="#rim2" fill="#404040"><set attributeName="fill" to="#808080" begin="reset.mouseover" end="reset.mouseout"/></use>
  </g>
</defs>
<script type="application/ecmascript">
var viewWidth = 1238;
var viewHeight = 500;
var sectionId = 'dynsection-0';
</script>
<script type="application/ecmascript" xlink:href="svg.min.js"/>
<svg id="graph" class="graph">
<g id="viewport">
<title>yaclib::IRef</title>
<!-- Node1 -->
<g id="Node000001" class="node">
<title>Node1</title>
<g id="a_Node000001"><a xlink:title="Reference counting interface.">
<polygon fill="#999999" stroke="#666666" points="63.25,-345.88 0,-345.88 0,-326.62 63.25,-326.62 63.25,-345.88"/>
<text text-anchor="middle" x="31.62" y="-332.38" font-family="Helvetica,sans-Serif" font-size="10.00">yaclib::IRef</text>
</a>
</g>
</g>
<!-- Node2 -->
<g id="Node000002" class="node">
<title>Node2</title>
<g id="a_Node000002"><a xlink:href="classyaclib_1_1IExecutor.html" target="_top" xlink:title=" ">
<polygon fill="white" stroke="#666666" points="186,-411.88 100.25,-411.88 100.25,-392.62 186,-392.62 186,-411.88"/>
<text text-anchor="middle" x="143.12" y="-398.38" font-family="Helvetica,sans-Serif" font-size="10.00">yaclib::IExecutor</text>
</a>
</g>
</g>
<!-- Node1&#45;&gt;Node2 -->
<g id="edge1_Node000001_Node000002" class="edge">
<title>Node1&#45;&gt;Node2</title>
<g id="a_edge1_Node000001_Node000002"><a xlink:title=" ">
<path fill="none" stroke="#63b8ff" d="M58.99,-352.14C79.61,-364.57 107.67,-381.48 125.34,-392.13"/>
<polygon fill="#63b8ff" stroke="#63b8ff" points="60.92,-349.22 50.55,-347.06 57.31,-355.22 60.92,-349.22"/>
</a>
</g>
</g>
<!-- Node6 -->
<g id="Node000006" class="node">
<title>Node6</title>
<g id="a_Node000006"><a xlink:href="classyaclib_1_1IFunc.html" target="_top" xlink:title="Callable interface.">
<polygon fill="white" stroke="#666666" points="178.12,-321.88 108.12,-321.88 108.12,-302.62 178.12,-302.62 178.12,-321.88"/>
<text text-anchor="middle" x="143.12" y="-308.38" font-family="Helvetica,sans-Serif" font-size="10.00">yaclib::IFunc</text>
</a>
</g>
</g>
<!-- Node1&#45;&gt;Node6 -->
<g id="edge5_Node000001_Node000006" class="edge">
<title>Node1&#45;&gt;Node6</title>
<g id="a_edge5_Node000001_Node000006"><a xlink:title=" ">
<path fill="none" stroke="#63b8ff" d="M74.79,-327.01C85.74,-324.61 97.4,-322.05 107.89,-319.75"/>
<polygon fill="#63b8ff" stroke="#63b8ff" points="74.21,-323.55 65.19,-329.11 75.71,-330.39 74.21,-323.55"/>
</a>
</g>
</g>
<!-- Node3 -->
<g id="Node000003" class="node">
<title>Node3</title>
<g id="a_Node000003"><a xlink:href="classyaclib_1_1FairThreadPool.html" target="_top" xlink:title="TODO(kononovk) Doxygen docs.">
<polygon fill="white" stroke="#666666" points="341.38,-467.88 230.12,-467.88 230.12,-448.62 341.38,-448.62 341.38,-467.88"/>
<text text-anchor="middle" x="285.75" y="-454.38" font-family="Helvetica,sans-Serif" font-size="10.00">yaclib::FairThreadPool</text>
</a>
</g>
</g>
<!-- Node2&#45;&gt;Node3 -->
<g id="edge2_Node000002_Node000003" class="edge">
<title>Node2&#45;&gt;Node3</title>
<g id="a_edge2_Node000002_Node000003"><a xlink:title=" ">
<path fill="none" stroke="#63b8ff" d="M172.87,-417.52C187.61,-424.97 205.98,-433.72 223,-440.25 230.51,-443.13 238.68,-445.81 246.54,-448.18"/>
<polygon fill="#63b8ff" stroke="#63b8ff" points="174.7,-414.52 164.21,-413.06 171.5,-420.75 174.7,-414.52"/>
</a>
</g>
</g>
<!-- Node4 -->
<g id="Node000004" class="node">
<title>Node4</title>
<g id="a_Node000004"><a xlink:href="classyaclib_1_1ManualExecutor.html" target="_top" xlink:title="TODO(mkornaukhov03) Doxygen.">
<polygon fill="white" stroke="#666666" points="342.88,-430.88 228.62,-430.88 228.62,-411.62 342.88,-411.62 342.88,-430.88"/>
<text text-anchor="middle" x="285.75" y="-417.38" font-family="Helvetica,sans-Serif" font-size="10.00">yaclib::ManualExecutor</text>
</a>
</g>
</g>
<!-- Node2&#45;&gt;Node4 -->
<g id="edge3_Node000002_Node000004" class="edge">
<title>Node2&#45;&gt;Node4</title>
<g id="a_edge3_Node000002_Node000004"><a xlink:title=" ">
<path fill="none" stroke="#63b8ff" d="M197.44,-409.45C207.52,-410.82 218.1,-412.24 228.28,-413.62"/>
<polygon fill="#63b8ff" stroke="#63b8ff" points="198.2,-406.02 187.82,-408.15 197.26,-412.96 198.2,-406.02"/>
</a>
</g>
</g>
<!-- Node5 -->
<g id="Node000005" class="node">
<title>Node5</title>
<g id="a_Node000005"><a xlink:href="classyaclib_1_1Strand.html" target="_top" xlink:title=" ">
<polygon fill="white" stroke="#666666" points="482.12,-392.88 408.38,-392.88 408.38,-373.62 482.12,-373.62 482.12,-392.88"/>
<text text-anchor="middle" x="445.25" y="-379.38" font-family="Helvetica,sans-Serif" font-size="10.00">yaclib::Strand</text>
</a>
</g>
</g>
<!-- Node2&#45;&gt;Node5 -->
<g id="edge4_Node000002_Node000005" class="edge">
<title>Node2&#45;&gt;Node5</title>
<g id="a_edge4_Node000002_Node000005"><a xlink:title=" ">
<path fill="none" stroke="#63b8ff" d="M197.76,-398.85C258.53,-395.01 355.89,-388.84 408.21,-385.53"/>
<polygon fill="#63b8ff" stroke="#63b8ff" points="197.76,-395.35 188,-399.47 198.2,-402.33 197.76,-395.35"/>
</a>
</g>
</g>
<!-- Node7 -->
<g id="Node000007" class="node">
<title>Node7</title>
<g id="a_Node000007"><a xlink:href="classyaclib_1_1Job.html" target="_top" xlink:title="Callable that can be executed in an IExecutor.">
<polygon fill="white" stroke="#666666" points="316.25,-321.88 255.25,-321.88 255.25,-302.62 316.25,-302.62 316.25,-321.88"/>
<text text-anchor="middle" x="285.75" y="-308.38" font-family="Helvetica,sans-Serif" font-size="10.00">yaclib::Job</text>
</a>
</g>
</g>
<!-- Node6&#45;&gt;Node7 -->
<g id="edge6_Node000006_Node000007" class="edge">
<title>Node6&#45;&gt;Node7</title>
<g id="a_edge6_Node000006_Node000007"><a xlink:title=" ">
<path fill="none" stroke="#63b8ff" d="M189.98,-312.25C211.33,-312.25 236.12,-312.25 254.99,-312.25"/>
<polygon fill="#63b8ff" stroke="#63b8ff" points="190.04,-308.75 180.04,-312.25 190.04,-315.75 190.04,-308.75"/>
</a>
</g>
</g>
<!-- Node29 -->
<g id="Node000029" class="node">
<title>Node29</title>
<g id="a_Node000029"><a xlink:href="classyaclib_1_1detail_1_1SharedFunc.html" target="_top" xlink:title=" ">
<polygon fill="white" stroke="#666666" points="348.5,-284.5 223,-284.5 223,-254 348.5,-254 348.5,-284.5"/>
<text text-anchor="start" x="231" y="-271" font-family="Helvetica,sans-Serif" font-size="10.00">yaclib::detail::SharedFunc</text>
<text text-anchor="middle" x="285.75" y="-259.75" font-family="Helvetica,sans-Serif" font-size="10.00">&lt; Func &gt;</text>
</a>
</g>
</g>
<!-- Node6&#45;&gt;Node29 -->
<g id="edge30_Node000006_Node000029" class="edge">
<title>Node6&#45;&gt;Node29</title>
<g id="a_edge30_Node000006_Node000029"><a xlink:title=" ">
<path fill="none" stroke="#63b8ff" d="M187.73,-298.92C202.15,-294.51 218.32,-289.56 233.27,-284.99"/>
<polygon fill="#63b8ff" stroke="#63b8ff" points="187.08,-295.45 178.54,-301.73 189.13,-302.15 187.08,-295.45"/>
</a>
</g>
</g>
<!-- Node7&#45;&gt;Node5 -->
<g id="edge9_Node000007_Node000005" class="edge">
<title>Node7&#45;&gt;Node5</title>
<g id="a_edge9_Node000007_Node000005"><a xlink:title=" ">
<path fill="none" stroke="#8b1a1a" d="M313.43,-327.9C332.96,-338.97 360.34,-353.65 385.5,-364.25 393.21,-367.5 401.67,-370.53 409.71,-373.18"/>
<polygon fill="#8b1a1a" stroke="#8b1a1a" points="315.17,-324.87 304.76,-322.93 311.69,-330.94 315.17,-324.87"/>
</a>
</g>
</g>
<!-- Node8 -->
<g id="Node000008" class="node">
<title>Node8</title>
<g id="a_Node000008"><a xlink:href="structyaclib_1_1OneShotEvent_1_1TimedWaiter.html" target="_top" xlink:title="Public only because Waiter is public.">
<polygon fill="white" stroke="#666666" points="499.38,-355.5 391.12,-355.5 391.12,-325 499.38,-325 499.38,-355.5"/>
<text text-anchor="start" x="399.12" y="-342" font-family="Helvetica,sans-Serif" font-size="10.00">yaclib::OneShotEvent</text>
<text text-anchor="middle" x="445.25" y="-330.75" font-family="Helvetica,sans-Serif" font-size="10.00">::TimedWaiter</text>
</a>
</g>
</g>
<!-- Node7&#45;&gt;Node8 -->
<g id="edge7_Node000007_Node000008" class="edge">
<title>Node7&#45;&gt;Node8</title>
<g id="a_edge7_Node000007_Node000008"><a xlink:title=" ">
<path fill="none" stroke="#63b8ff" d="M327.85,-319.56C347.08,-322.97 370.21,-327.09 390.77,-330.74"/>
<polygon fill="#63b8ff" stroke="#63b8ff" points="328.69,-316.15 318.24,-317.85 327.47,-323.04 328.69,-316.15"/>
</a>
</g>
</g>
<!-- Node9 -->
<g id="Node000009" class="node">
<title>Node9</title>
<g id="a_Node000009"><a xlink:href="structyaclib_1_1OneShotEvent_1_1Waiter.html" target="_top" xlink:title="Waiter is public for advanced users.">
<polygon fill="white" stroke="#666666" points="499.38,-306.5 391.12,-306.5 391.12,-276 499.38,-276 499.38,-306.5"/>
<text text-anchor="start" x="399.12" y="-293" font-family="Helvetica,sans-Serif" font-size="10.00">yaclib::OneShotEvent</text>
<text text-anchor="middle" x="445.25" y="-281.75" font-family="Helvetica,sans-Serif" font-size="10.00">::Waiter</text>
</a>
</g>
</g>
<!-- Node7&#45;&gt;Node9 -->
<g id="edge8_Node000007_Node000009" class="edge">
<title>Node7&#45;&gt;Node9</title>
<g id="a_edge8_Node000007_Node000009"><a xlink:title=" ">
<path fill="none" stroke="#63b8ff" d="M328.13,-306.73C347.29,-304.18 370.31,-301.11 390.77,-298.38"/>
<polygon fill="#63b8ff" stroke="#63b8ff" points="327.7,-303.26 318.25,-308.05 328.62,-310.2 327.7,-303.26"/>
</a>
</g>
</g>
<!-- Node10 -->
<g id="Node000010" class="node">
<title>Node10</title>
<g id="a_Node000010"><a xlink:href="classyaclib_1_1detail_1_1InlineCore.html" target="_top" xlink:title=" ">
<polygon fill="white" stroke="#666666" points="503.5,-257.88 387,-257.88 387,-238.62 503.5,-238.62 503.5,-257.88"/>
<text text-anchor="middle" x="445.25" y="-244.38" font-family="Helvetica,sans-Serif" font-size="10.00">yaclib::detail::InlineCore</text>
</a>
</g>
</g>
<!-- Node7&#45;&gt;Node10 -->
<g id="edge10_Node000007_Node000010" class="edge">
<title>Node7&#45;&gt;Node10</title>
<g id="a_edge10_Node000007_Node000010"><a xlink:title=" ">
<path fill="none" stroke="#63b8ff" d="M327.66,-301.66C334.76,-299.26 341.96,-296.46 348.5,-293.25 366.55,-284.41 367.51,-276.22 385.5,-267.25 392.31,-263.85 399.86,-260.88 407.22,-258.35"/>
<polygon fill="#63b8ff" stroke="#63b8ff" points="326.63,-298.31 318.13,-304.64 328.72,-304.99 326.63,-298.31"/>
</a>
</g>
</g>
<!-- Node28 -->
<g id="Node000028" class="node">
<title>Node28</title>
<g id="a_Node000028"><a xlink:href="classyaclib_1_1detail_1_1UniqueJob.html" target="_top" xlink:title=" ">
<polygon fill="white" stroke="#666666" points="505,-220.5 385.5,-220.5 385.5,-190 505,-190 505,-220.5"/>
<text text-anchor="start" x="393.5" y="-207" font-family="Helvetica,sans-Serif" font-size="10.00">yaclib::detail::UniqueJob</text>
<text text-anchor="middle" x="445.25" y="-195.75" font-family="Helvetica,sans-Serif" font-size="10.00">&lt; Func &gt;</text>
</a>
</g>
</g>
<!-- Node7&#45;&gt;Node28 -->
<g id="edge29_Node000007_Node000028" class="edge">
<title>Node7&#45;&gt;Node28</title>
<g id="a_edge29_Node000007_Node000028"><a xlink:title=" ">
<path fill="none" stroke="#63b8ff" d="M327.49,-304.47C334.98,-301.77 342.37,-298.13 348.5,-293.25 374.2,-272.78 360.74,-250.85 385.5,-229.25 389.07,-226.14 393.1,-223.39 397.33,-220.98"/>
<polygon fill="#63b8ff" stroke="#63b8ff" points="326.55,-301.09 318,-307.35 328.59,-307.79 326.55,-301.09"/>
</a>
</g>
</g>
<!-- Node11 -->
<g id="Node000011" class="node">
<title>Node11</title>
<g id="a_Node000011"><a xlink:href="classyaclib_1_1detail_1_1AwaitOnEvent.html" target="_top" xlink:title=" ">
<polygon fill="white" stroke="#666666" points="892,-361.5 756.75,-361.5 756.75,-331 892,-331 892,-361.5"/>
<text text-anchor="start" x="764.75" y="-348" font-family="Helvetica,sans-Serif" font-size="10.00">yaclib::detail::AwaitOnEvent</text>
<text text-anchor="middle" x="824.38" y="-336.75" font-family="Helvetica,sans-Serif" font-size="10.00">&lt; false &gt;</text>
</a>
</g>
</g>
<!-- Node10&#45;&gt;Node11 -->
<g id="edge11_Node000010_Node000011" class="edge">
<title>Node10&#45;&gt;Node11</title>
<g id="a_edge11_Node000010_Node000011"><a xlink:title=" ">
<path fill="none" stroke="#63b8ff" d="M502.82,-264.97C503.58,-265.7 504.3,-266.46 505,-267.25 534.95,-301.39 507.1,-439.19 542,-468.25 589.47,-507.78 623.06,-489.68 681,-468.25 739.31,-446.68 789.87,-389.39 811.78,-361.68"/>
<polygon fill="#63b8ff" stroke="#63b8ff" points="505.07,-262.28 494.93,-259.2 500.93,-267.93 505.07,-262.28"/>
</a>
</g>
</g>
<!-- Node13 -->
<g id="Node000013" class="node">
<title>Node13</title>
<g id="a_Node000013"><a xlink:href="classyaclib_1_1detail_1_1AllCombinator.html" target="_top" xlink:title=" ">
<polygon fill="white" stroke="#666666" points="678.38,-459.5 544.62,-459.5 544.62,-429 678.38,-429 678.38,-459.5"/>
<text text-anchor="start" x="552.62" y="-446" font-family="Helvetica,sans-Serif" font-size="10.00">yaclib::detail::AllCombinator</text>
<text text-anchor="middle" x="611.5" y="-434.75" font-family="Helvetica,sans-Serif" font-size="10.00">&lt; O, R, E &gt;</text>
</a>
</g>
</g>
<!-- Node10&#45;&gt;Node13 -->
<g id="edge13_Node000010_Node000013" class="edge">
<title>Node10&#45;&gt;Node13</title>
<g id="a_edge13_Node000010_Node000013"><a xlink:title=" ">
<path fill="none" stroke="#63b8ff" d="M502.36,-264.67C503.28,-265.49 504.16,-266.35 505,-267.25 528.66,-292.72 518.82,-393.34 542,-419.25 545.21,-422.84 548.97,-425.91 553.06,-428.54"/>
<polygon fill="#63b8ff" stroke="#63b8ff" points="504.68,-262.01 494.46,-259.2 500.69,-267.77 504.68,-262.01"/>
</a>
</g>
</g>
<!-- Node14 -->
<g id="Node000014" class="node">
<title>Node14</title>
<g id="a_Node000014"><a xlink:href="classyaclib_1_1detail_1_1AllCombinator_3_01OrderPolicy_1_1Same_00_01R_00_01E_01_4.html" target="_top" xlink:title=" ">
<polygon fill="white" stroke="#666666" points="679.5,-410.5 543.5,-410.5 543.5,-380 679.5,-380 679.5,-410.5"/>
<text text-anchor="start" x="551.5" y="-397" font-family="Helvetica,sans-Serif" font-size="10.00">yaclib::detail::AllCombinator</text>
<text text-anchor="middle" x="611.5" y="-385.75" font-family="Helvetica,sans-Serif" font-size="10.00">&lt; OrderPolicy::Same, R, E &gt;</text>
</a>
</g>
</g>
<!-- Node10&#45;&gt;Node14 -->
<g id="edge14_Node000010_Node000014" class="edge">
<title>Node10&#45;&gt;Node14</title>
<g id="a_edge14_Node000010_Node000014"><a xlink:title=" ">
<path fill="none" stroke="#63b8ff" d="M501.66,-264.33C502.82,-265.25 503.94,-266.22 505,-267.25 522.47,-284.17 524.85,-353.01 542,-370.25 545.57,-373.84 549.7,-376.92 554.12,-379.56"/>
<polygon fill="#63b8ff" stroke="#63b8ff" points="503.58,-261.41 493.25,-259.06 499.87,-267.34 503.58,-261.41"/>
</a>
</g>
</g>
<!-- Node15 -->
<g id="Node000015" class="node">
<title>Node15</title>
<g id="a_Node000015"><a xlink:href="classyaclib_1_1detail_1_1AnyCombinator.html" target="_top" xlink:title=" ">
<polygon fill="white" stroke="#666666" points="681,-361.5 542,-361.5 542,-331 681,-331 681,-361.5"/>
<text text-anchor="start" x="550" y="-348" font-family="Helvetica,sans-Serif" font-size="10.00">yaclib::detail::AnyCombinator</text>
<text text-anchor="middle" x="611.5" y="-336.75" font-family="Helvetica,sans-Serif" font-size="10.00">&lt; V, E, P &gt;</text>
</a>
</g>
</g>
<!-- Node10&#45;&gt;Node15 -->
<g id="edge15_Node000010_Node000015" class="edge">
<title>Node10&#45;&gt;Node15</title>
<g id="a_edge15_Node000010_Node000015"><a xlink:title=" ">
<path fill="none" stroke="#63b8ff" d="M498.82,-263.19C500.98,-264.44 503.05,-265.79 505,-267.25 528.31,-284.66 519.02,-303.41 542,-321.25 546.6,-324.82 551.76,-327.92 557.13,-330.59"/>
<polygon fill="#63b8ff" stroke="#63b8ff" points="500.86,-260.3 490.35,-259.01 497.77,-266.57 500.86,-260.3"/>
</a>
</g>
</g>
<!-- Node16 -->
<g id="Node000016" class="node">
<title>Node16</title>
<g id="a_Node000016"><a xlink:href="structyaclib_1_1detail_1_1AwaitAwaiter_3_01Handle_00_01true_01_4.html" target="_top" xlink:title=" ">
<polygon fill="white" stroke="#666666" points="676.88,-312.5 546.12,-312.5 546.12,-282 676.88,-282 676.88,-312.5"/>
<text text-anchor="start" x="554.12" y="-299" font-family="Helvetica,sans-Serif" font-size="10.00">yaclib::detail::AwaitAwaiter</text>
<text text-anchor="middle" x="611.5" y="-287.75" font-family="Helvetica,sans-Serif" font-size="10.00">&lt; Handle, true &gt;</text>
</a>
</g>
</g>
<!-- Node10&#45;&gt;Node16 -->
<g id="edge16_Node000010_Node000016" class="edge">
<title>Node10&#45;&gt;Node16</title>
<g id="a_edge16_Node000010_Node000016"><a xlink:title=" ">
<path fill="none" stroke="#63b8ff" d="M490.9,-261.57C511.57,-267.74 536.26,-275.1 557.83,-281.54"/>
<polygon fill="#63b8ff" stroke="#63b8ff" points="491.92,-258.22 481.34,-258.72 489.92,-264.93 491.92,-258.22"/>
</a>
</g>
</g>
<!-- Node17 -->
<g id="Node000017" class="node">
<title>Node17</title>
<g id="a_Node000017"><a xlink:href="classyaclib_1_1detail_1_1AwaitEvent.html" target="_top" xlink:title=" ">
<polygon fill="white" stroke="#666666" points="672.75,-263.5 550.25,-263.5 550.25,-233 672.75,-233 672.75,-263.5"/>
<text text-anchor="start" x="558.25" y="-250" font-family="Helvetica,sans-Serif" font-size="10.00">yaclib::detail::AwaitEvent</text>
<text text-anchor="middle" x="611.5" y="-238.75" font-family="Helvetica,sans-Serif" font-size="10.00">&lt; Sticky &gt;</text>
</a>
</g>
</g>
<!-- Node10&#45;&gt;Node17 -->
<g id="edge17_Node000010_Node000017" class="edge">
<title>Node10&#45;&gt;Node17</title>
<g id="a_edge17_Node000010_Node000017"><a xlink:title=" ">
<path fill="none" stroke="#63b8ff" d="M515.13,-248.25C526.71,-248.25 538.66,-248.25 550.02,-248.25"/>
<polygon fill="#63b8ff" stroke="#63b8ff" points="515.21,-244.75 505.21,-248.25 515.21,-251.75 515.21,-244.75"/>
</a>
</g>
</g>
<!-- Node18 -->
<g id="Node000018" class="node">
<title>Node18</title>
<g id="a_Node000018"><a xlink:href="classyaclib_1_1detail_1_1AwaitOnEvent.html" target="_top" xlink:title=" ">
<polygon fill="white" stroke="#666666" points="679.12,-214.5 543.88,-214.5 543.88,-184 679.12,-184 679.12,-214.5"/>
<text text-anchor="start" x="551.88" y="-201" font-family="Helvetica,sans-Serif" font-size="10.00">yaclib::detail::AwaitOnEvent</text>
<text text-anchor="middle" x="611.5" y="-189.75" font-family="Helvetica,sans-Serif" font-size="10.00">&lt; Single &gt;</text>
</a>
</g>
</g>
<!-- Node10&#45;&gt;Node18 -->
<g id="edge18_Node000010_Node000018" class="edge">
<title>Node10&#45;&gt;Node18</title>
<g id="a_edge18_Node000010_Node000018"><a xlink:title=" ">
<path fill="none" stroke="#63b8ff" d="M490.9,-234.93C511.57,-228.76 536.26,-221.4 557.83,-214.96"/>
<polygon fill="#63b8ff" stroke="#63b8ff" points="489.92,-231.57 481.34,-237.78 491.92,-238.28 489.92,-231.57"/>
</a>
</g>
</g>
<!-- Node19 -->
<g id="Node000019" class="node">
<title>Node19</title>
<g id="a_Node000019"><a xlink:href="classyaclib_1_1detail_1_1BaseCore.html" target="_top" xlink:title=" ">
<polygon fill="white" stroke="#666666" points="669.38,-165.88 553.62,-165.88 553.62,-146.62 669.38,-146.62 669.38,-165.88"/>
<text text-anchor="middle" x="611.5" y="-152.38" font-family="Helvetica,sans-Serif" font-size="10.00">yaclib::detail::BaseCore</text>
</a>
</g>
</g>
<!-- Node10&#45;&gt;Node19 -->
<g id="edge20_Node000010_Node000019" class="edge">
<title>Node10&#45;&gt;Node19</title>
<g id="a_edge20_Node000010_Node000019"><a xlink:title=" ">
<path fill="none" stroke="#63b8ff" d="M498.82,-233.31C500.98,-232.06 503.05,-230.71 505,-229.25 528.31,-211.84 518.33,-192.16 542,-175.25 547.12,-171.59 552.92,-168.64 558.93,-166.25"/>
<polygon fill="#63b8ff" stroke="#63b8ff" points="497.77,-229.93 490.35,-237.49 500.86,-236.2 497.77,-229.93"/>
</a>
</g>
</g>
<!-- Node25 -->
<g id="Node000025" class="node">
<title>Node25</title>
<g id="a_Node000025"><a xlink:href="structyaclib_1_1detail_1_1CallCallback.html" target="_top" xlink:title=" ">
<polygon fill="white" stroke="#666666" points="675,-128.5 548,-128.5 548,-98 675,-98 675,-128.5"/>
<text text-anchor="start" x="556" y="-115" font-family="Helvetica,sans-Serif" font-size="10.00">yaclib::detail::CallCallback</text>
<text text-anchor="middle" x="611.5" y="-103.75" font-family="Helvetica,sans-Serif" font-size="10.00">&lt; Derived &gt;</text>
</a>
</g>
</g>
<!-- Node10&#45;&gt;Node25 -->
<g id="edge26_Node000010_Node000025" class="edge">
<title>Node10&#45;&gt;Node25</title>
<g id="a_edge26_Node000010_Node000025"><a xlink:title=" ">
<path fill="none" stroke="#63b8ff" d="M501.13,-232.48C502.48,-231.47 503.78,-230.39 505,-229.25 537.23,-199.19 510.14,-167.7 542,-137.25 545.37,-134.03 549.2,-131.24 553.28,-128.82"/>
<polygon fill="#63b8ff" stroke="#63b8ff" points="499.6,-229.31 492.84,-237.46 503.21,-235.31 499.6,-229.31"/>
</a>
</g>
</g>
<!-- Node26 -->
<g id="Node000026" class="node">
<title>Node26</title>
<g id="a_Node000026"><a xlink:href="structyaclib_1_1detail_1_1DropCallback.html" target="_top" xlink:title=" ">
<polygon fill="white" stroke="#666666" points="676.88,-79.5 546.12,-79.5 546.12,-49 676.88,-49 676.88,-79.5"/>
<text text-anchor="start" x="554.12" y="-66" font-family="Helvetica,sans-Serif" font-size="10.00">yaclib::detail::DropCallback</text>
<text text-anchor="middle" x="611.5" y="-54.75" font-family="Helvetica,sans-Serif" font-size="10.00">&lt; Derived &gt;</text>
</a>
</g>
</g>
<!-- Node10&#45;&gt;Node26 -->
<g id="edge27_Node000010_Node000026" class="edge">
<title>Node10&#45;&gt;Node26</title>
<g id="a_edge27_Node000010_Node000026"><a xlink:title=" ">
<path fill="none" stroke="#63b8ff" d="M502.27,-231.86C503.22,-231.04 504.13,-230.16 505,-229.25 527.13,-205.89 520.31,-113.02 542,-89.25 545.33,-85.6 549.23,-82.49 553.46,-79.82"/>
<polygon fill="#63b8ff" stroke="#63b8ff" points="500.42,-228.89 494.11,-237.4 504.35,-234.68 500.42,-228.89"/>
</a>
</g>
</g>
<!-- Node27 -->
<g id="Node000027" class="node">
<title>Node27</title>
<g id="a_Node000027"><a xlink:href="structyaclib_1_1detail_1_1EventHelperCallback.html" target="_top" xlink:title=" ">
<polygon fill="white" stroke="#666666" points="674.62,-30.5 548.38,-30.5 548.38,0 674.62,0 674.62,-30.5"/>
<text text-anchor="start" x="556.38" y="-17" font-family="Helvetica,sans-Serif" font-size="10.00">yaclib::detail::EventHelper</text>
<text text-anchor="middle" x="611.5" y="-5.75" font-family="Helvetica,sans-Serif" font-size="10.00">Callback&lt; Event &gt;</text>
</a>
</g>
</g>
<!-- Node10&#45;&gt;Node27 -->
<g id="edge28_Node000010_Node000027" class="edge">
<title>Node10&#45;&gt;Node27</title>
<g id="a_edge28_Node000010_Node000027"><a xlink:title=" ">
<path fill="none" stroke="#63b8ff" d="M502.8,-231.52C503.57,-230.8 504.3,-230.04 505,-229.25 533.4,-197.24 514.2,-72.79 542,-40.25 545.13,-36.59 548.83,-33.47 552.88,-30.8"/>
<polygon fill="#63b8ff" stroke="#63b8ff" points="500.93,-228.56 494.89,-237.27 505.04,-234.22 500.93,-228.56"/>
</a>
</g>
</g>
<!-- Node12 -->
<g id="Node000012" class="node">
<title>Node12</title>
<g id="a_Node000012"><a xlink:href="structyaclib_1_1detail_1_1AwaitOnAwaiter.html" target="_top" xlink:title=" ">
<polygon fill="white" stroke="#666666" points="1072.5,-361.5 929,-361.5 929,-331 1072.5,-331 1072.5,-361.5"/>
<text text-anchor="start" x="937" y="-348" font-family="Helvetica,sans-Serif" font-size="10.00">yaclib::detail::AwaitOnAwaiter</text>
<text text-anchor="middle" x="1000.75" y="-336.75" font-family="Helvetica,sans-Serif" font-size="10.00">&lt; Handle &gt;</text>
</a>
</g>
</g>
<!-- Node11&#45;&gt;Node12 -->
<g id="edge12_Node000011_Node000012" class="edge">
<title>Node11&#45;&gt;Node12</title>
<g id="a_edge12_Node000011_Node000012"><a xlink:title=" ">
<path fill="none" stroke="#63b8ff" d="M903.59,-346.25C911.94,-346.25 920.4,-346.25 928.67,-346.25"/>
<polygon fill="#63b8ff" stroke="#63b8ff" points="903.81,-342.75 893.81,-346.25 903.81,-349.75 903.81,-342.75"/>
</a>
</g>
</g>
<!-- Node18&#45;&gt;Node11 -->
<g id="edge19_Node000018_Node000011" class="edge">
<title>Node18&#45;&gt;Node11</title>
<g id="a_edge19_Node000018_Node000011"><a xlink:title=" ">
<path fill="none" stroke="orange" stroke-dasharray="5,2" d="M672.38,-219.62C675.35,-221.09 678.23,-222.63 681,-224.25 733.26,-254.82 784.74,-305.37 808.98,-330.73"/>
<polygon fill="orange" stroke="orange" points="674.05,-216.54 663.5,-215.56 671.14,-222.9 674.05,-216.54"/>
</a>
</g>
<text text-anchor="middle" x="718.88" y="-265" font-family="Helvetica,sans-Serif" font-size="10.00" fill="grey"> &lt; false &gt;</text>
</g>
<!-- Node20 -->
<g id="Node000020" class="node">
<title>Node20</title>
<g id="a_Node000020"><a xlink:href="classyaclib_1_1detail_1_1NoResultCore.html" target="_top" xlink:title=" ">
<polygon fill="white" stroke="#666666" points="891.25,-184.88 757.5,-184.88 757.5,-165.62 891.25,-165.62 891.25,-184.88"/>
<text text-anchor="middle" x="824.38" y="-171.38" font-family="Helvetica,sans-Serif" font-size="10.00">yaclib::detail::NoResultCore</text>
</a>
</g>
</g>
<!-- Node19&#45;&gt;Node20 -->
<g id="edge21_Node000019_Node000020" class="edge">
<title>Node19&#45;&gt;Node20</title>
<g id="a_edge21_Node000019_Node000020"><a xlink:title=" ">
<path fill="none" stroke="#63b8ff" d="M681.17,-162.44C705.55,-164.63 732.92,-167.1 757.09,-169.28"/>
<polygon fill="#63b8ff" stroke="#63b8ff" points="681.63,-158.96 671.35,-161.55 681,-165.94 681.63,-158.96"/>
</a>
</g>
</g>
<!-- Node21 -->
<g id="Node000021" class="node">
<title>Node21</title>
<g id="a_Node000021"><a xlink:href="classyaclib_1_1detail_1_1ResultCore.html" target="_top" xlink:title=" ">
<polygon fill="white" stroke="#666666" points="884.88,-147.5 763.88,-147.5 763.88,-117 884.88,-117 884.88,-147.5"/>
<text text-anchor="start" x="771.88" y="-134" font-family="Helvetica,sans-Serif" font-size="10.00">yaclib::detail::ResultCore</text>
<text text-anchor="middle" x="824.38" y="-122.75" font-family="Helvetica,sans-Serif" font-size="10.00">&lt; V, E &gt;</text>
</a>
</g>
</g>
<!-- Node19&#45;&gt;Node21 -->
<g id="edge22_Node000019_Node000021" class="edge">
<title>Node19&#45;&gt;Node21</title>
<g id="a_edge22_Node000019_Node000021"><a xlink:title=" ">
<path fill="none" stroke="#63b8ff" d="M681,-148.45C707.58,-145.43 737.76,-141.99 763.47,-139.07"/>
<polygon fill="#63b8ff" stroke="#63b8ff" points="680.89,-144.94 671.35,-149.55 681.68,-151.9 680.89,-144.94"/>
</a>
</g>
</g>
<!-- Node22 -->
<g id="Node000022" class="node">
<title>Node22</title>
<g id="a_Node000022"><a xlink:href="classyaclib_1_1detail_1_1SharedCore.html" target="_top" xlink:title=" ">
<polygon fill="white" stroke="#666666" points="1062.75,-166.5 938.75,-166.5 938.75,-136 1062.75,-136 1062.75,-166.5"/>
<text text-anchor="start" x="946.75" y="-153" font-family="Helvetica,sans-Serif" font-size="10.00">yaclib::detail::SharedCore</text>
<text text-anchor="middle" x="1000.75" y="-141.75" font-family="Helvetica,sans-Serif" font-size="10.00">&lt; V, E &gt;</text>
</a>
</g>
</g>
<!-- Node21&#45;&gt;Node22 -->
<g id="edge23_Node000021_Node000022" class="edge">
<title>Node21&#45;&gt;Node22</title>
<g id="a_edge23_Node000021_Node000022"><a xlink:title=" ">
<path fill="none" stroke="#63b8ff" d="M896.01,-139.95C910.06,-141.48 924.71,-143.07 938.42,-144.57"/>
<polygon fill="#63b8ff" stroke="#63b8ff" points="896.72,-136.5 886.4,-138.9 895.96,-143.46 896.72,-136.5"/>
</a>
</g>
</g>
<!-- Node23 -->
<g id="Node000023" class="node">
<title>Node23</title>
<g id="a_Node000023"><a xlink:href="classyaclib_1_1detail_1_1UniqueCore.html" target="_top" xlink:title=" ">
<polygon fill="white" stroke="#666666" points="1062.75,-117.5 938.75,-117.5 938.75,-87 1062.75,-87 1062.75,-117.5"/>
<text text-anchor="start" x="946.75" y="-104" font-family="Helvetica,sans-Serif" font-size="10.00">yaclib::detail::UniqueCore</text>
<text text-anchor="middle" x="1000.75" y="-92.75" font-family="Helvetica,sans-Serif" font-size="10.00">&lt; V, E &gt;</text>
</a>
</g>
</g>
<!-- Node21&#45;&gt;Node23 -->
<g id="edge24_Node000021_Node000023" class="edge">
<title>Node21&#45;&gt;Node23</title>
<g id="a_edge24_Node000021_Node000023"><a xlink:title=" ">
<path fill="none" stroke="#63b8ff" d="M896.01,-120.1C910.06,-117.68 924.71,-115.16 938.42,-112.8"/>
<polygon fill="#63b8ff" stroke="#63b8ff" points="895.65,-116.61 886.39,-121.75 896.84,-123.51 895.65,-116.61"/>
</a>
</g>
</g>
<!-- Node24 -->
<g id="Node000024" class="node">
<title>Node24</title>
<g id="a_Node000024"><a xlink:href="classyaclib_1_1detail_1_1ReadyCore.html" target="_top" xlink:title=" ">
<polygon fill="white" stroke="#666666" points="1229.75,-117.5 1109.5,-117.5 1109.5,-87 1229.75,-87 1229.75,-117.5"/>
<text text-anchor="start" x="1117.5" y="-104" font-family="Helvetica,sans-Serif" font-size="10.00">yaclib::detail::ReadyCore</text>
<text text-anchor="middle" x="1169.62" y="-92.75" font-family="Helvetica,sans-Serif" font-size="10.00">&lt; V, E &gt;</text>
</a>
</g>
</g>
<!-- Node23&#45;&gt;Node24 -->
<g id="edge25_Node000023_Node000024" class="edge">
<title>Node23&#45;&gt;Node24</title>
<g id="a_edge25_Node000023_Node000024"><a xlink:title=" ">
<path fill="none" stroke="#63b8ff" d="M1074.4,-102.25C1086,-102.25 1097.87,-102.25 1109.11,-102.25"/>
<polygon fill="#63b8ff" stroke="#63b8ff" points="1074.45,-98.75 1064.45,-102.25 1074.45,-105.75 1074.45,-98.75"/>
</a>
</g>
</g>
</g>
</svg>

<g id="navigator" transform="translate(0 0)" fill="#404254">
  <rect fill="#f2f5e9" fill-opacity="0.5" stroke="#606060" stroke-width=".5" x="0" y="0" width="60" height="60"/>
  <use id="zoomplus" xlink:href="#zoomPlus" x="17" y="9" onmousedown="handleZoom(evt,'in')"/>
  <use id="zoomminus" xlink:href="#zoomMin" x="42" y="9" onmousedown="handleZoom(evt,'out')"/>
  <use id="reset" xlink:href="#resetDef" x="30" y="36" onmousedown="handleReset()"/>
   <use id="arrowup" xlink:href="#arrowUp" x="0" y="0" onmousedown="handlePan(0,-1)"/>
  <use id="arrowright" xlink:href="#arrowRight" x="0" y="0" onmousedown="handlePan(1,0)"/>
  <use id="arrowdown" xlink:href="#arrowDown" x="0" y="0" onmousedown="handlePan(0,1)"/>
  <use id="arrowleft" xlink:href="#arrowLeft" x="0" y="0" onmousedown="handlePan(-1,0)"/>
</g>
<svg viewBox="0 0 15 15" width="100%" height="30px" preserveAspectRatio="xMaxYMin meet">
 <g id="arrow_out" transform="scale(0.3 0.3)">
  <a xlink:href="classyaclib_1_1IRef__inherit__graph_org.svg" target="_base">
   <rect id="button" ry="5" rx="5" y="6" x="6" height="38" width="38"
        fill="#f2f5e9" fill-opacity="0.5" stroke="#606060" stroke-width="1.0"/>
   <path id="arrow"
     d="M 11.500037,31.436501 C 11.940474,20.09759 22.043105,11.32322 32.158766,21.979434 L 37.068811,17.246167 C 37.068811,17.246167 37.088388,32 37.088388,32 L 22.160133,31.978069 C 22.160133,31.978069 26.997745,27.140456 26.997745,27.140456 C 18.528582,18.264221 13.291696,25.230495 11.500037,31.436501 z"
     style="fill:#404040;"/>
  </a>
 </g>
</svg>

<style type='text/css'>
<![CDATA[
[data-mouse-over-selected='false'] { opacity: 0.7; }
[data-mouse-over-selected='true']  { opacity: 1.0; }
]]>
</style>
<script type="application/ecmascript"><![CDATA[
document.addEventListener('DOMContentLoaded', (event) => {
  highlightEdges();
  highlightAdjacentNodes();
});
]]></script>
</svg>
