<?xml version="1.0" encoding="UTF-8" standalone="no"?>
<!DOCTYPE svg PUBLIC "-//W3C//DTD SVG 1.1//EN"
 "http://www.w3.org/Graphics/SVG/1.1/DTD/svg11.dtd">
<!-- Generated by graphviz version 3.0.0 (20221109.1736)
 -->
<!-- Title: yaclib::detail::Core&lt; Ret, Arg, E, Func, Type, kIsAsync, kIsCall &gt; Pages: 1 -->
<svg width="384pt" height="274pt"
 viewBox="0.00 0.00 384.00 274.00" xmlns="http://www.w3.org/2000/svg" xmlns:xlink="http://www.w3.org/1999/xlink">
<g id="graph0" class="graph" transform="scale(1 1) rotate(0) translate(4 270)">
<title>yaclib::detail::Core&lt; Ret, Arg, E, Func, Type, kIsAsync, kIsCall &gt;</title>
<!-- Node1 -->
<g id="node1" class="node">
<title>Node1</title>
<g id="a_node1"><a xlink:title=" ">
<polygon fill="#bfbfbf" stroke="black" points="12,-0.5 12,-41.5 141,-41.5 141,-0.5 12,-0.5"/>
<text text-anchor="start" x="20" y="-29.5" font-family="Helvetica,sans-Serif" font-size="10.00">yaclib::detail::Core</text>
<text text-anchor="start" x="20" y="-18.5" font-family="Helvetica,sans-Serif" font-size="10.00">&lt; Ret, Arg, E, Func,</text>
<text text-anchor="middle" x="76.5" y="-7.5" font-family="Helvetica,sans-Serif" font-size="10.00"> Type, kIsAsync, kIsCall &gt;</text>
</a>
</g>
</g>
<!-- Node2 -->
<g id="node2" class="node">
<title>Node2</title>
<g id="a_node2"><a xlink:href="classResultCoreT.html" target="_top" xlink:title=" ">
<polygon fill="none" stroke="black" points="13,-79.5 13,-109.5 116,-109.5 116,-79.5 13,-79.5"/>
<text text-anchor="start" x="21" y="-97.5" font-family="Helvetica,sans-Serif" font-size="10.00">ResultCoreT&lt; Type,</text>
<text text-anchor="middle" x="64.5" y="-86.5" font-family="Helvetica,sans-Serif" font-size="10.00"> Ret, E &gt;</text>
</a>
</g>
</g>
<!-- Node2&#45;&gt;Node1 -->
<g id="edge1" class="edge">
<title>Node2&#45;&gt;Node1</title>
<path fill="none" stroke="midnightblue" d="M68.55,-69.4C70.07,-60.32 71.78,-50.12 73.23,-41.51"/>
<polygon fill="midnightblue" stroke="midnightblue" points="65.07,-68.93 66.87,-79.37 71.98,-70.09 65.07,-68.93"/>
</g>
<!-- Node3 -->
<g id="node3" class="node">
<title>Node3</title>
<g id="a_node3"><a xlink:href="classyaclib_1_1detail_1_1FuncCore.html" target="_top" xlink:title=" ">
<polygon fill="none" stroke="black" points="134.5,-79.5 134.5,-109.5 250.5,-109.5 250.5,-79.5 134.5,-79.5"/>
<text text-anchor="start" x="142.5" y="-97.5" font-family="Helvetica,sans-Serif" font-size="10.00">yaclib::detail::FuncCore</text>
<text text-anchor="middle" x="192.5" y="-86.5" font-family="Helvetica,sans-Serif" font-size="10.00">&lt; Func &gt;</text>
</a>
</g>
</g>
<!-- Node3&#45;&gt;Node1 -->
<g id="edge2" class="edge">
<title>Node3&#45;&gt;Node1</title>
<path fill="none" stroke="midnightblue" d="M160.89,-74.02C144.5,-63.92 124.55,-51.61 108.15,-41.51"/>
<polygon fill="midnightblue" stroke="midnightblue" points="159.23,-77.11 169.58,-79.37 162.91,-71.15 159.23,-77.11"/>
</g>
<!-- Node4 -->
<g id="node4" class="node">
<title>Node4</title>
<g id="a_node4"><a xlink:href="unionyaclib_1_1detail_1_1FuncCore_1_1State.html" target="_top" xlink:title=" ">
<polygon fill="none" stroke="black" points="134.5,-157.5 134.5,-187.5 250.5,-187.5 250.5,-157.5 134.5,-157.5"/>
<text text-anchor="start" x="142.5" y="-175.5" font-family="Helvetica,sans-Serif" font-size="10.00">yaclib::detail::FuncCore</text>
<text text-anchor="middle" x="192.5" y="-164.5" font-family="Helvetica,sans-Serif" font-size="10.00">&lt; Func &gt;::State</text>
</a>
</g>
</g>
<!-- Node4&#45;&gt;Node3 -->
<g id="edge3" class="edge">
<title>Node4&#45;&gt;Node3</title>
<path fill="none" stroke="#9a32cd" stroke-dasharray="5,2" d="M192.5,-147.09C192.5,-134.76 192.5,-120.22 192.5,-109.73"/>
<polygon fill="#9a32cd" stroke="#9a32cd" points="189,-147.2 192.5,-157.2 196,-147.21 189,-147.2"/>
<text text-anchor="middle" x="206" y="-131" font-family="Helvetica,sans-Serif" font-size="10.00"> _func</text>
</g>
<!-- Node5 -->
<g id="node5" class="node">
<title>Node5</title>
<g id="a_node5"><a xlink:title=" ">
<polygon fill="none" stroke="black" points="0,-241 0,-260 189,-260 189,-241 0,-241"/>
<text text-anchor="middle" x="94.5" y="-248" font-family="Helvetica,sans-Serif" font-size="10.00">YACLIB_NO_UNIQUE_ADDRESS Unit</text>
</a>
</g>
</g>
<!-- Node5&#45;&gt;Node4 -->
<g id="edge4" class="edge">
<title>Node5&#45;&gt;Node4</title>
<path fill="none" stroke="#9a32cd" stroke-dasharray="5,2" d="M114.12,-234.28C131.72,-220.64 157.32,-200.78 174.42,-187.52"/>
<polygon fill="#9a32cd" stroke="#9a32cd" points="111.5,-231.89 105.74,-240.78 115.79,-237.42 111.5,-231.89"/>
<text text-anchor="middle" x="160.5" y="-209" font-family="Helvetica,sans-Serif" font-size="10.00"> stub</text>
</g>
<!-- Node6 -->
<g id="node6" class="node">
<title>Node6</title>
<g id="a_node6"><a xlink:title=" ">
<polygon fill="none" stroke="black" points="207,-235.5 207,-265.5 376,-265.5 376,-235.5 207,-235.5"/>
<text text-anchor="start" x="215" y="-253.5" font-family="Helvetica,sans-Serif" font-size="10.00">YACLIB_NO_UNIQUE_ADDRESS</text>
<text text-anchor="middle" x="291.5" y="-242.5" font-family="Helvetica,sans-Serif" font-size="10.00"> Storage</text>
</a>
</g>
</g>
<!-- Node6&#45;&gt;Node4 -->
<g id="edge5" class="edge">
<title>Node6&#45;&gt;Node4</title>
<path fill="none" stroke="#9a32cd" stroke-dasharray="5,2" d="M264.94,-229.11C247.91,-216.04 226.22,-199.39 211.04,-187.73"/>
<polygon fill="#9a32cd" stroke="#9a32cd" points="262.82,-231.89 272.88,-235.2 267.08,-226.34 262.82,-231.89"/>
<text text-anchor="middle" x="265" y="-209" font-family="Helvetica,sans-Serif" font-size="10.00"> storage</text>
</g>
</g>
</svg>
