<?xml version="1.0" encoding="UTF-8" standalone="no"?>
<!DOCTYPE svg PUBLIC "-//W3C//DTD SVG 1.1//EN"
 "http://www.w3.org/Graphics/SVG/1.1/DTD/svg11.dtd">
<!-- Generated by graphviz version 9.0.0 (20230911.1827)
 -->
<!-- Title: yaclib::detail::GuardAwaiter&lt; Guard, M, Shared &gt; Pages: 1 -->
<svg width="140pt" height="173pt"
 viewBox="0.00 0.00 140.25 172.50" xmlns="http://www.w3.org/2000/svg" xmlns:xlink="http://www.w3.org/1999/xlink">
<g id="graph0" class="graph" transform="scale(1 1) rotate(0) translate(4 168.5)">
<title>yaclib::detail::GuardAwaiter&lt; Guard, M, Shared &gt;</title>
<!-- Node1 -->
<g id="Node000001" class="node">
<title>Node1</title>
<g id="a_Node000001"><a xlink:title=" ">
<polygon fill="#999999" stroke="#666666" points="132.25,-30.5 0,-30.5 0,0 132.25,0 132.25,-30.5"/>
<text text-anchor="start" x="8" y="-17" font-family="Helvetica,sans-Serif" font-size="10.00">yaclib::detail::GuardAwaiter</text>
<text text-anchor="middle" x="66.12" y="-5.75" font-family="Helvetica,sans-Serif" font-size="10.00">&lt; Guard, M, Shared &gt;</text>
</a>
</g>
</g>
<!-- Node2 -->
<g id="Node000002" class="node">
<title>Node2</title>
<g id="a_Node000002"><a xlink:href="classyaclib_1_1detail_1_1LockAwaiter.html" target="_top" xlink:title=" ">
<polygon fill="white" stroke="#666666" points="130,-98 2.25,-98 2.25,-67.5 130,-67.5 130,-98"/>
<text text-anchor="start" x="10.25" y="-84.5" font-family="Helvetica,sans-Serif" font-size="10.00">yaclib::detail::LockAwaiter</text>
<text text-anchor="middle" x="66.12" y="-73.25" font-family="Helvetica,sans-Serif" font-size="10.00">&lt; M, Shared &gt;</text>
</a>
</g>
</g>
<!-- Node2&#45;&gt;Node1 -->
<g id="edge1_Node000001_Node000002" class="edge">
<title>Node2&#45;&gt;Node1</title>
<g id="a_edge1_Node000001_Node000002"><a xlink:title=" ">
<path fill="none" stroke="#63b8ff" d="M66.12,-55.84C66.12,-47.3 66.12,-38.12 66.12,-30.75"/>
<polygon fill="#63b8ff" stroke="#63b8ff" points="62.63,-55.7 66.13,-65.7 69.63,-55.7 62.63,-55.7"/>
</a>
</g>
</g>
<!-- Node3 -->
<g id="Node000003" class="node">
<title>Node3</title>
<g id="a_Node000003"><a xlink:title=" ">
<polygon fill="white" stroke="#666666" points="82.75,-164.5 49.5,-164.5 49.5,-145.25 82.75,-145.25 82.75,-164.5"/>
<text text-anchor="middle" x="66.12" y="-151" font-family="Helvetica,sans-Serif" font-size="10.00">M &amp;</text>
</a>
</g>
</g>
<!-- Node3&#45;&gt;Node2 -->
<g id="edge2_Node000002_Node000003" class="edge">
<title>Node3&#45;&gt;Node2</title>
<g id="a_edge2_Node000002_Node000003"><a xlink:title=" ">
<path fill="none" stroke="#9a32cd" stroke-dasharray="5,2" d="M66.12,-133.67C66.12,-122.41 66.12,-108.64 66.12,-98.42"/>
<polygon fill="#9a32cd" stroke="#9a32cd" points="62.63,-133.48 66.13,-143.48 69.63,-133.48 62.63,-133.48"/>
</a>
</g>
<text text-anchor="middle" x="83" y="-117.75" font-family="Helvetica,sans-Serif" font-size="10.00" fill="grey"> _mutex</text>
</g>
</g>
</svg>
