<?xml version="1.0" encoding="UTF-8" standalone="no"?>
<!DOCTYPE svg PUBLIC "-//W3C//DTD SVG 1.1//EN"
 "http://www.w3.org/Graphics/SVG/1.1/DTD/svg11.dtd">
<!-- Generated by graphviz version 9.0.0 (20230911.1827)
 -->
<!-- Title: yaclib::detail::fiber::SharedTimedMutex Pages: 1 -->
<svg width="351pt" height="195pt"
 viewBox="0.00 0.00 350.75 195.00" xmlns="http://www.w3.org/2000/svg" xmlns:xlink="http://www.w3.org/1999/xlink">

<svg id="main" version="1.1" xmlns="http://www.w3.org/2000/svg" xmlns:xlink="http://www.w3.org/1999/xlink" xml:space="preserve" onload="init(evt)">
<style type="text/css"><![CDATA[
.node, .edge {opacity: 0.7;}
.node.selected, .edge.selected {opacity: 1;}
.edge:hover path { stroke: red; }
.edge:hover polygon { stroke: red; fill: red; }
]]></style>
<script type="application/ecmascript" xlink:href="svg.min.js"/>
<svg id="graph" class="graph">
<g id="graph0" class="graph" transform="scale(1 1) rotate(0) translate(4 191)">
<title>yaclib::detail::fiber::SharedTimedMutex</title>
<!-- Node1 -->
<g id="Node000001" class="node">
<title>Node1</title>
<g id="a_Node000001"><a xlink:title=" ">
<polygon fill="#999999" stroke="#666666" points="200.75,-30.5 96.25,-30.5 96.25,0 200.75,0 200.75,-30.5"/>
<text text-anchor="start" x="104.25" y="-17" font-family="Helvetica,sans-Serif" font-size="10.00">yaclib::detail::fiber</text>
<text text-anchor="middle" x="148.5" y="-5.75" font-family="Helvetica,sans-Serif" font-size="10.00">::SharedTimedMutex</text>
</a>
</g>
</g>
<!-- Node2 -->
<g id="Node000002" class="node">
<title>Node2</title>
<g id="a_Node000002"><a xlink:href="classyaclib_1_1detail_1_1fiber_1_1SharedMutex.html" target="_top" xlink:title=" ">
<polygon fill="white" stroke="#666666" points="194,-98 103,-98 103,-67.5 194,-67.5 194,-98"/>
<text text-anchor="start" x="111" y="-84.5" font-family="Helvetica,sans-Serif" font-size="10.00">yaclib::detail::fiber</text>
<text text-anchor="middle" x="148.5" y="-73.25" font-family="Helvetica,sans-Serif" font-size="10.00">::SharedMutex</text>
</a>
</g>
</g>
<!-- Node2&#45;&gt;Node1 -->
<g id="edge1_Node000001_Node000002" class="edge">
<title>Node2&#45;&gt;Node1</title>
<g id="a_edge1_Node000001_Node000002"><a xlink:title=" ">
<path fill="none" stroke="#63b8ff" d="M148.5,-55.84C148.5,-47.3 148.5,-38.12 148.5,-30.75"/>
<polygon fill="#63b8ff" stroke="#63b8ff" points="145,-55.7 148.5,-65.7 152,-55.7 145,-55.7"/>
</a>
</g>
</g>
<!-- Node3 -->
<g id="Node000003" class="node">
<title>Node3</title>
<g id="a_Node000003"><a xlink:href="classyaclib_1_1detail_1_1fiber_1_1FiberQueue.html" target="_top" xlink:title=" ">
<polygon fill="white" stroke="#666666" points="91,-187 0,-187 0,-156.5 91,-156.5 91,-187"/>
<text text-anchor="start" x="8" y="-173.5" font-family="Helvetica,sans-Serif" font-size="10.00">yaclib::detail::fiber</text>
<text text-anchor="middle" x="45.5" y="-162.25" font-family="Helvetica,sans-Serif" font-size="10.00">::FiberQueue</text>
</a>
</g>
</g>
<!-- Node3&#45;&gt;Node2 -->
<g id="edge2_Node000002_Node000003" class="edge">
<title>Node3&#45;&gt;Node2</title>
<g id="a_edge2_Node000002_Node000003"><a xlink:title=" ">
<path fill="none" stroke="#9a32cd" stroke-dasharray="5,2" d="M49.7,-145.52C52.53,-135.27 57.23,-123.98 65,-116 75.19,-105.54 89.16,-98.41 102.75,-93.58"/>
<polygon fill="#9a32cd" stroke="#9a32cd" points="46.36,-144.42 47.58,-154.95 53.19,-145.96 46.36,-144.42"/>
</a>
</g>
<text text-anchor="middle" x="105.25" y="-129" font-family="Helvetica,sans-Serif" font-size="10.00" fill="grey"> _exclusive_queue</text>
<text text-anchor="middle" x="105.25" y="-117.75" font-family="Helvetica,sans-Serif" font-size="10.00" fill="grey">_shared_queue</text>
</g>
<!-- Node4 -->
<g id="Node000004" class="node">
<title>Node4</title>
<g id="a_Node000004"><a xlink:title=" ">
<polygon fill="white" stroke="#666666" points="173.75,-181.38 123.25,-181.38 123.25,-162.12 173.75,-162.12 173.75,-181.38"/>
<text text-anchor="middle" x="148.5" y="-167.88" font-family="Helvetica,sans-Serif" font-size="10.00">uint32_t</text>
</a>
</g>
</g>
<!-- Node4&#45;&gt;Node2 -->
<g id="edge3_Node000002_Node000004" class="edge">
<title>Node4&#45;&gt;Node2</title>
<g id="a_edge3_Node000002_Node000004"><a xlink:title=" ">
<path fill="none" stroke="#9a32cd" stroke-dasharray="5,2" d="M148.5,-150.47C148.5,-134.49 148.5,-112.58 148.5,-98.3"/>
<polygon fill="#9a32cd" stroke="#9a32cd" points="145,-150.25 148.5,-160.25 152,-150.25 145,-150.25"/>
</a>
</g>
<text text-anchor="middle" x="199.88" y="-123.38" font-family="Helvetica,sans-Serif" font-size="10.00" fill="grey"> _shared_owners_count</text>
</g>
<!-- Node5 -->
<g id="Node000005" class="node">
<title>Node5</title>
<g id="a_Node000005"><a xlink:href="classbool.html" target="_top" xlink:title=" ">
<polygon fill="white" stroke="#666666" points="291.5,-181.38 257.5,-181.38 257.5,-162.12 291.5,-162.12 291.5,-181.38"/>
<text text-anchor="middle" x="274.5" y="-167.88" font-family="Helvetica,sans-Serif" font-size="10.00">bool</text>
</a>
</g>
</g>
<!-- Node5&#45;&gt;Node2 -->
<g id="edge4_Node000002_Node000005" class="edge">
<title>Node5&#45;&gt;Node2</title>
<g id="a_edge4_Node000002_Node000005"><a xlink:title=" ">
<path fill="none" stroke="#9a32cd" stroke-dasharray="5,2" d="M270.92,-150.74C267.87,-139.14 262.34,-125.07 252.5,-116 236.65,-101.39 214.3,-93.4 194.37,-89.03"/>
<polygon fill="#9a32cd" stroke="#9a32cd" points="267.42,-151.12 272.96,-160.15 274.26,-149.64 267.42,-151.12"/>
</a>
</g>
<text text-anchor="middle" x="304.12" y="-129" font-family="Helvetica,sans-Serif" font-size="10.00" fill="grey"> _exclusive_mode</text>
<text text-anchor="middle" x="304.12" y="-117.75" font-family="Helvetica,sans-Serif" font-size="10.00" fill="grey">_occupied</text>
</g>
</g>
</svg>
</svg>

<style type='text/css'>
<![CDATA[
[data-mouse-over-selected='false'] { opacity: 0.7; }
[data-mouse-over-selected='true']  { opacity: 1.0; }
]]>
</style>
<script type="application/ecmascript"><![CDATA[
document.addEventListener('DOMContentLoaded', (event) => {
  highlightEdges();
  highlightAdjacentNodes();
});
]]></script>
</svg>
