<?xml version="1.0" encoding="UTF-8" standalone="no"?>
<!DOCTYPE svg PUBLIC "-//W3C//DTD SVG 1.1//EN"
 "http://www.w3.org/Graphics/SVG/1.1/DTD/svg11.dtd">
<!-- Generated by graphviz version 9.0.0 (20230911.1827)
 -->
<!-- Title: yaclib::IFunc Pages: 1 -->
<svg width="1222pt" height="503pt"
 viewBox="0.00 0.00 1222.00 503.16" xmlns="http://www.w3.org/2000/svg" xmlns:xlink="http://www.w3.org/1999/xlink">
<g id="graph0" class="graph" transform="scale(1 1) rotate(0) translate(4 499.16)">
<title>yaclib::IFunc</title>
<!-- Node1 -->
<g id="Node000001" class="node">
<title>Node1</title>
<g id="a_Node000001"><a xlink:title="Callable interface.">
<polygon fill="#999999" stroke="#666666" points="170.25,-263.88 100.25,-263.88 100.25,-244.62 170.25,-244.62 170.25,-263.88"/>
<text text-anchor="middle" x="135.25" y="-250.38" font-family="Helvetica,sans-Serif" font-size="10.00">yaclib::IFunc</text>
</a>
</g>
</g>
<!-- Node3 -->
<g id="Node000003" class="node">
<title>Node3</title>
<g id="a_Node000003"><a xlink:href="classyaclib_1_1Job.html" target="_top" xlink:title="Callable that can be executed in an IExecutor.">
<polygon fill="white" stroke="#666666" points="300.5,-294.88 239.5,-294.88 239.5,-275.62 300.5,-275.62 300.5,-294.88"/>
<text text-anchor="middle" x="270" y="-281.38" font-family="Helvetica,sans-Serif" font-size="10.00">yaclib::Job</text>
</a>
</g>
</g>
<!-- Node1&#45;&gt;Node3 -->
<g id="edge2_Node000001_Node000003" class="edge">
<title>Node1&#45;&gt;Node3</title>
<g id="a_edge2_Node000001_Node000003"><a xlink:title=" ">
<path fill="none" stroke="#63b8ff" d="M181.63,-264.85C200.75,-269.31 222.45,-274.38 239.44,-278.35"/>
<polygon fill="#63b8ff" stroke="#63b8ff" points="182.44,-261.44 171.91,-262.58 180.85,-268.26 182.44,-261.44"/>
</a>
</g>
</g>
<!-- Node26 -->
<g id="Node000026" class="node">
<title>Node26</title>
<g id="a_Node000026"><a xlink:href="classyaclib_1_1detail_1_1SharedFunc.html" target="_top" xlink:title=" ">
<polygon fill="white" stroke="#666666" points="332.75,-257.5 207.25,-257.5 207.25,-227 332.75,-227 332.75,-257.5"/>
<text text-anchor="start" x="215.25" y="-244" font-family="Helvetica,sans-Serif" font-size="10.00">yaclib::detail::SharedFunc</text>
<text text-anchor="middle" x="270" y="-232.75" font-family="Helvetica,sans-Serif" font-size="10.00">&lt; Func &gt;</text>
</a>
</g>
</g>
<!-- Node1&#45;&gt;Node26 -->
<g id="edge26_Node000001_Node000026" class="edge">
<title>Node1&#45;&gt;Node26</title>
<g id="a_edge26_Node000001_Node000026"><a xlink:title=" ">
<path fill="none" stroke="#63b8ff" d="M181.85,-250.13C189.91,-249.4 198.42,-248.63 206.84,-247.87"/>
<polygon fill="#63b8ff" stroke="#63b8ff" points="181.59,-246.64 171.94,-251.02 182.22,-253.61 181.59,-246.64"/>
</a>
</g>
</g>
<!-- Node2 -->
<g id="Node000002" class="node">
<title>Node2</title>
<g id="a_Node000002"><a xlink:href="classyaclib_1_1IRef.html" target="_top" xlink:title="Reference counting interface.">
<polygon fill="white" stroke="#666666" points="63.25,-263.88 0,-263.88 0,-244.62 63.25,-244.62 63.25,-263.88"/>
<text text-anchor="middle" x="31.62" y="-250.38" font-family="Helvetica,sans-Serif" font-size="10.00">yaclib::IRef</text>
</a>
</g>
</g>
<!-- Node2&#45;&gt;Node1 -->
<g id="edge1_Node000001_Node000002" class="edge">
<title>Node2&#45;&gt;Node1</title>
<g id="a_edge1_Node000001_Node000002"><a xlink:title=" ">
<path fill="none" stroke="#63b8ff" d="M75.05,-254.25C83.32,-254.25 91.89,-254.25 99.85,-254.25"/>
<polygon fill="#63b8ff" stroke="#63b8ff" points="75.18,-250.75 65.18,-254.25 75.18,-257.75 75.18,-250.75"/>
</a>
</g>
</g>
<!-- Node4 -->
<g id="Node000004" class="node">
<title>Node4</title>
<g id="a_Node000004"><a xlink:href="structyaclib_1_1OneShotEvent_1_1TimedWaiter.html" target="_top" xlink:title="Public only because Waiter is public.">
<polygon fill="white" stroke="#666666" points="483.62,-392.5 375.38,-392.5 375.38,-362 483.62,-362 483.62,-392.5"/>
<text text-anchor="start" x="383.38" y="-379" font-family="Helvetica,sans-Serif" font-size="10.00">yaclib::OneShotEvent</text>
<text text-anchor="middle" x="429.5" y="-367.75" font-family="Helvetica,sans-Serif" font-size="10.00">::TimedWaiter</text>
</a>
</g>
</g>
<!-- Node3&#45;&gt;Node4 -->
<g id="edge3_Node000003_Node000004" class="edge">
<title>Node3&#45;&gt;Node4</title>
<g id="a_edge3_Node000003_Node000004"><a xlink:title=" ">
<path fill="none" stroke="#63b8ff" d="M292.86,-301.9C312.37,-316.31 342.05,-337.15 369.75,-352.25 375.78,-355.54 382.34,-358.7 388.81,-361.61"/>
<polygon fill="#63b8ff" stroke="#63b8ff" points="295.22,-299.29 285.11,-296.11 291.03,-304.9 295.22,-299.29"/>
</a>
</g>
</g>
<!-- Node5 -->
<g id="Node000005" class="node">
<title>Node5</title>
<g id="a_Node000005"><a xlink:href="structyaclib_1_1OneShotEvent_1_1Waiter.html" target="_top" xlink:title="Waiter is public for advanced users.">
<polygon fill="white" stroke="#666666" points="483.62,-343.5 375.38,-343.5 375.38,-313 483.62,-313 483.62,-343.5"/>
<text text-anchor="start" x="383.38" y="-330" font-family="Helvetica,sans-Serif" font-size="10.00">yaclib::OneShotEvent</text>
<text text-anchor="middle" x="429.5" y="-318.75" font-family="Helvetica,sans-Serif" font-size="10.00">::Waiter</text>
</a>
</g>
</g>
<!-- Node3&#45;&gt;Node5 -->
<g id="edge4_Node000003_Node000005" class="edge">
<title>Node3&#45;&gt;Node5</title>
<g id="a_edge4_Node000003_Node000005"><a xlink:title=" ">
<path fill="none" stroke="#63b8ff" d="M311.83,-296.4C331.11,-301.66 354.36,-308.01 375.02,-313.65"/>
<polygon fill="#63b8ff" stroke="#63b8ff" points="313.02,-293.1 302.46,-293.84 311.18,-299.85 313.02,-293.1"/>
</a>
</g>
</g>
<!-- Node6 -->
<g id="Node000006" class="node">
<title>Node6</title>
<g id="a_Node000006"><a xlink:href="classyaclib_1_1Strand.html" target="_top" xlink:title=" ">
<polygon fill="white" stroke="#666666" points="466.38,-294.88 392.62,-294.88 392.62,-275.62 466.38,-275.62 466.38,-294.88"/>
<text text-anchor="middle" x="429.5" y="-281.38" font-family="Helvetica,sans-Serif" font-size="10.00">yaclib::Strand</text>
</a>
</g>
</g>
<!-- Node3&#45;&gt;Node6 -->
<g id="edge5_Node000003_Node000006" class="edge">
<title>Node3&#45;&gt;Node6</title>
<g id="a_edge5_Node000003_Node000006"><a xlink:title=" ">
<path fill="none" stroke="#8b1a1a" d="M312.25,-285.25C337.07,-285.25 368.39,-285.25 392.26,-285.25"/>
<polygon fill="#8b1a1a" stroke="#8b1a1a" points="312.51,-281.75 302.51,-285.25 312.51,-288.75 312.51,-281.75"/>
</a>
</g>
</g>
<!-- Node7 -->
<g id="Node000007" class="node">
<title>Node7</title>
<g id="a_Node000007"><a xlink:href="classyaclib_1_1detail_1_1InlineCore.html" target="_top" xlink:title=" ">
<polygon fill="white" stroke="#666666" points="487.75,-257.88 371.25,-257.88 371.25,-238.62 487.75,-238.62 487.75,-257.88"/>
<text text-anchor="middle" x="429.5" y="-244.38" font-family="Helvetica,sans-Serif" font-size="10.00">yaclib::detail::InlineCore</text>
</a>
</g>
</g>
<!-- Node3&#45;&gt;Node7 -->
<g id="edge6_Node000003_Node000007" class="edge">
<title>Node3&#45;&gt;Node7</title>
<g id="a_edge6_Node000003_Node000007"><a xlink:title=" ">
<path fill="none" stroke="#63b8ff" d="M311.94,-275.63C334.54,-270.32 362.6,-263.73 385.52,-258.35"/>
<polygon fill="#63b8ff" stroke="#63b8ff" points="311.4,-272.16 302.47,-277.86 313,-278.98 311.4,-272.16"/>
</a>
</g>
</g>
<!-- Node25 -->
<g id="Node000025" class="node">
<title>Node25</title>
<g id="a_Node000025"><a xlink:href="classyaclib_1_1detail_1_1UniqueJob.html" target="_top" xlink:title=" ">
<polygon fill="white" stroke="#666666" points="489.25,-220.5 369.75,-220.5 369.75,-190 489.25,-190 489.25,-220.5"/>
<text text-anchor="start" x="377.75" y="-207" font-family="Helvetica,sans-Serif" font-size="10.00">yaclib::detail::UniqueJob</text>
<text text-anchor="middle" x="429.5" y="-195.75" font-family="Helvetica,sans-Serif" font-size="10.00">&lt; Func &gt;</text>
</a>
</g>
</g>
<!-- Node3&#45;&gt;Node25 -->
<g id="edge25_Node000003_Node000025" class="edge">
<title>Node3&#45;&gt;Node25</title>
<g id="a_edge25_Node000003_Node000025"><a xlink:title=" ">
<path fill="none" stroke="#63b8ff" d="M311.72,-275.82C319,-273.28 326.31,-270.13 332.75,-266.25 352.67,-254.25 350.38,-242.12 369.75,-229.25 374.34,-226.2 379.37,-223.43 384.51,-220.94"/>
<polygon fill="#63b8ff" stroke="#63b8ff" points="310.78,-272.45 302.27,-278.76 312.86,-279.13 310.78,-272.45"/>
</a>
</g>
</g>
<!-- Node8 -->
<g id="Node000008" class="node">
<title>Node8</title>
<g id="a_Node000008"><a xlink:href="classyaclib_1_1detail_1_1AwaitOnEvent.html" target="_top" xlink:title=" ">
<polygon fill="white" stroke="#666666" points="876.25,-222.5 741,-222.5 741,-192 876.25,-192 876.25,-222.5"/>
<text text-anchor="start" x="749" y="-209" font-family="Helvetica,sans-Serif" font-size="10.00">yaclib::detail::AwaitOnEvent</text>
<text text-anchor="middle" x="808.62" y="-197.75" font-family="Helvetica,sans-Serif" font-size="10.00">&lt; false &gt;</text>
</a>
</g>
</g>
<!-- Node7&#45;&gt;Node8 -->
<g id="edge7_Node000007_Node000008" class="edge">
<title>Node7&#45;&gt;Node8</title>
<g id="a_edge7_Node000007_Node000008"><a xlink:title=" ">
<path fill="none" stroke="#63b8ff" d="M488.16,-265.08C488.53,-265.46 488.9,-265.85 489.25,-266.25 519.59,-300.34 491.19,-439.03 526.25,-468.25 573.71,-507.8 612.13,-499.78 665.25,-468.25 759.35,-412.39 795.23,-270.06 804.79,-222.78"/>
<polygon fill="#63b8ff" stroke="#63b8ff" points="490.59,-262.53 480.53,-259.19 486.31,-268.07 490.59,-262.53"/>
</a>
</g>
</g>
<!-- Node10 -->
<g id="Node000010" class="node">
<title>Node10</title>
<g id="a_Node000010"><a xlink:href="classyaclib_1_1detail_1_1AllCombinator.html" target="_top" xlink:title=" ">
<polygon fill="white" stroke="#666666" points="662.62,-459.5 528.88,-459.5 528.88,-429 662.62,-429 662.62,-459.5"/>
<text text-anchor="start" x="536.88" y="-446" font-family="Helvetica,sans-Serif" font-size="10.00">yaclib::detail::AllCombinator</text>
<text text-anchor="middle" x="595.75" y="-434.75" font-family="Helvetica,sans-Serif" font-size="10.00">&lt; O, R, E &gt;</text>
</a>
</g>
</g>
<!-- Node7&#45;&gt;Node10 -->
<g id="edge9_Node000007_Node000010" class="edge">
<title>Node7&#45;&gt;Node10</title>
<g id="a_edge9_Node000007_Node000010"><a xlink:title=" ">
<path fill="none" stroke="#63b8ff" d="M488.1,-265.08C488.49,-265.46 488.88,-265.85 489.25,-266.25 513.23,-291.72 502.95,-393.16 526.25,-419.25 529.45,-422.84 533.22,-425.91 537.3,-428.54"/>
<polygon fill="#63b8ff" stroke="#63b8ff" points="490.21,-262.29 480.09,-259.17 486.06,-267.92 490.21,-262.29"/>
</a>
</g>
</g>
<!-- Node11 -->
<g id="Node000011" class="node">
<title>Node11</title>
<g id="a_Node000011"><a xlink:href="classyaclib_1_1detail_1_1AllCombinator_3_01OrderPolicy_1_1Same_00_01R_00_01E_01_4.html" target="_top" xlink:title=" ">
<polygon fill="white" stroke="#666666" points="663.75,-410.5 527.75,-410.5 527.75,-380 663.75,-380 663.75,-410.5"/>
<text text-anchor="start" x="535.75" y="-397" font-family="Helvetica,sans-Serif" font-size="10.00">yaclib::detail::AllCombinator</text>
<text text-anchor="middle" x="595.75" y="-385.75" font-family="Helvetica,sans-Serif" font-size="10.00">&lt; OrderPolicy::Same, R, E &gt;</text>
</a>
</g>
</g>
<!-- Node7&#45;&gt;Node11 -->
<g id="edge10_Node000007_Node000011" class="edge">
<title>Node7&#45;&gt;Node11</title>
<g id="a_edge10_Node000007_Node000011"><a xlink:title=" ">
<path fill="none" stroke="#63b8ff" d="M487.33,-264.52C487.99,-265.08 488.63,-265.66 489.25,-266.25 506.98,-283.21 508.98,-352.83 526.25,-370.25 529.82,-373.85 533.94,-376.93 538.36,-379.57"/>
<polygon fill="#63b8ff" stroke="#63b8ff" points="489.48,-261.75 479.21,-259.15 485.62,-267.59 489.48,-261.75"/>
</a>
</g>
</g>
<!-- Node12 -->
<g id="Node000012" class="node">
<title>Node12</title>
<g id="a_Node000012"><a xlink:href="classyaclib_1_1detail_1_1AnyCombinator.html" target="_top" xlink:title=" ">
<polygon fill="white" stroke="#666666" points="665.25,-361.5 526.25,-361.5 526.25,-331 665.25,-331 665.25,-361.5"/>
<text text-anchor="start" x="534.25" y="-348" font-family="Helvetica,sans-Serif" font-size="10.00">yaclib::detail::AnyCombinator</text>
<text text-anchor="middle" x="595.75" y="-336.75" font-family="Helvetica,sans-Serif" font-size="10.00">&lt; V, E, P &gt;</text>
</a>
</g>
</g>
<!-- Node7&#45;&gt;Node12 -->
<g id="edge11_Node000007_Node000012" class="edge">
<title>Node7&#45;&gt;Node12</title>
<g id="a_edge11_Node000007_Node000012"><a xlink:title=" ">
<path fill="none" stroke="#63b8ff" d="M485.08,-263.43C486.52,-264.32 487.91,-265.26 489.25,-266.25 512.92,-283.8 503.05,-303.09 526.25,-321.25 530.84,-324.84 535.98,-327.95 541.35,-330.63"/>
<polygon fill="#63b8ff" stroke="#63b8ff" points="486.92,-260.44 476.42,-258.98 483.72,-266.67 486.92,-260.44"/>
</a>
</g>
</g>
<!-- Node13 -->
<g id="Node000013" class="node">
<title>Node13</title>
<g id="a_Node000013"><a xlink:href="structyaclib_1_1detail_1_1AwaitAwaiter_3_01Handle_00_01true_01_4.html" target="_top" xlink:title=" ">
<polygon fill="white" stroke="#666666" points="661.12,-312.5 530.38,-312.5 530.38,-282 661.12,-282 661.12,-312.5"/>
<text text-anchor="start" x="538.38" y="-299" font-family="Helvetica,sans-Serif" font-size="10.00">yaclib::detail::AwaitAwaiter</text>
<text text-anchor="middle" x="595.75" y="-287.75" font-family="Helvetica,sans-Serif" font-size="10.00">&lt; Handle, true &gt;</text>
</a>
</g>
</g>
<!-- Node7&#45;&gt;Node13 -->
<g id="edge12_Node000007_Node000013" class="edge">
<title>Node7&#45;&gt;Node13</title>
<g id="a_edge12_Node000007_Node000013"><a xlink:title=" ">
<path fill="none" stroke="#63b8ff" d="M475.15,-261.57C495.82,-267.74 520.51,-275.1 542.08,-281.54"/>
<polygon fill="#63b8ff" stroke="#63b8ff" points="476.17,-258.22 465.59,-258.72 474.17,-264.93 476.17,-258.22"/>
</a>
</g>
</g>
<!-- Node14 -->
<g id="Node000014" class="node">
<title>Node14</title>
<g id="a_Node000014"><a xlink:href="classyaclib_1_1detail_1_1AwaitEvent.html" target="_top" xlink:title=" ">
<polygon fill="white" stroke="#666666" points="657,-263.5 534.5,-263.5 534.5,-233 657,-233 657,-263.5"/>
<text text-anchor="start" x="542.5" y="-250" font-family="Helvetica,sans-Serif" font-size="10.00">yaclib::detail::AwaitEvent</text>
<text text-anchor="middle" x="595.75" y="-238.75" font-family="Helvetica,sans-Serif" font-size="10.00">&lt; Sticky &gt;</text>
</a>
</g>
</g>
<!-- Node7&#45;&gt;Node14 -->
<g id="edge13_Node000007_Node000014" class="edge">
<title>Node7&#45;&gt;Node14</title>
<g id="a_edge13_Node000007_Node000014"><a xlink:title=" ">
<path fill="none" stroke="#63b8ff" d="M499.38,-248.25C510.96,-248.25 522.91,-248.25 534.27,-248.25"/>
<polygon fill="#63b8ff" stroke="#63b8ff" points="499.46,-244.75 489.46,-248.25 499.46,-251.75 499.46,-244.75"/>
</a>
</g>
</g>
<!-- Node15 -->
<g id="Node000015" class="node">
<title>Node15</title>
<g id="a_Node000015"><a xlink:href="classyaclib_1_1detail_1_1AwaitOnEvent.html" target="_top" xlink:title=" ">
<polygon fill="white" stroke="#666666" points="663.38,-214.5 528.12,-214.5 528.12,-184 663.38,-184 663.38,-214.5"/>
<text text-anchor="start" x="536.12" y="-201" font-family="Helvetica,sans-Serif" font-size="10.00">yaclib::detail::AwaitOnEvent</text>
<text text-anchor="middle" x="595.75" y="-189.75" font-family="Helvetica,sans-Serif" font-size="10.00">&lt; Single &gt;</text>
</a>
</g>
</g>
<!-- Node7&#45;&gt;Node15 -->
<g id="edge14_Node000007_Node000015" class="edge">
<title>Node7&#45;&gt;Node15</title>
<g id="a_edge14_Node000007_Node000015"><a xlink:title=" ">
<path fill="none" stroke="#63b8ff" d="M475.15,-234.93C495.82,-228.76 520.51,-221.4 542.08,-214.96"/>
<polygon fill="#63b8ff" stroke="#63b8ff" points="474.17,-231.57 465.59,-237.78 476.17,-238.28 474.17,-231.57"/>
</a>
</g>
</g>
<!-- Node16 -->
<g id="Node000016" class="node">
<title>Node16</title>
<g id="a_Node000016"><a xlink:href="classyaclib_1_1detail_1_1BaseCore.html" target="_top" xlink:title=" ">
<polygon fill="white" stroke="#666666" points="653.62,-165.88 537.88,-165.88 537.88,-146.62 653.62,-146.62 653.62,-165.88"/>
<text text-anchor="middle" x="595.75" y="-152.38" font-family="Helvetica,sans-Serif" font-size="10.00">yaclib::detail::BaseCore</text>
</a>
</g>
</g>
<!-- Node7&#45;&gt;Node16 -->
<g id="edge16_Node000007_Node000016" class="edge">
<title>Node7&#45;&gt;Node16</title>
<g id="a_edge16_Node000007_Node000016"><a xlink:title=" ">
<path fill="none" stroke="#63b8ff" d="M483.07,-233.31C485.23,-232.06 487.3,-230.71 489.25,-229.25 512.56,-211.84 502.58,-192.16 526.25,-175.25 531.37,-171.59 537.17,-168.64 543.18,-166.25"/>
<polygon fill="#63b8ff" stroke="#63b8ff" points="482.02,-229.93 474.6,-237.49 485.11,-236.2 482.02,-229.93"/>
</a>
</g>
</g>
<!-- Node22 -->
<g id="Node000022" class="node">
<title>Node22</title>
<g id="a_Node000022"><a xlink:href="structyaclib_1_1detail_1_1CallCallback.html" target="_top" xlink:title=" ">
<polygon fill="white" stroke="#666666" points="659.25,-128.5 532.25,-128.5 532.25,-98 659.25,-98 659.25,-128.5"/>
<text text-anchor="start" x="540.25" y="-115" font-family="Helvetica,sans-Serif" font-size="10.00">yaclib::detail::CallCallback</text>
<text text-anchor="middle" x="595.75" y="-103.75" font-family="Helvetica,sans-Serif" font-size="10.00">&lt; Derived &gt;</text>
</a>
</g>
</g>
<!-- Node7&#45;&gt;Node22 -->
<g id="edge22_Node000007_Node000022" class="edge">
<title>Node7&#45;&gt;Node22</title>
<g id="a_edge22_Node000007_Node000022"><a xlink:title=" ">
<path fill="none" stroke="#63b8ff" d="M485.38,-232.48C486.73,-231.47 488.03,-230.39 489.25,-229.25 521.48,-199.19 494.39,-167.7 526.25,-137.25 529.62,-134.03 533.45,-131.24 537.53,-128.82"/>
<polygon fill="#63b8ff" stroke="#63b8ff" points="483.85,-229.31 477.09,-237.46 487.46,-235.31 483.85,-229.31"/>
</a>
</g>
</g>
<!-- Node23 -->
<g id="Node000023" class="node">
<title>Node23</title>
<g id="a_Node000023"><a xlink:href="structyaclib_1_1detail_1_1DropCallback.html" target="_top" xlink:title=" ">
<polygon fill="white" stroke="#666666" points="661.12,-79.5 530.38,-79.5 530.38,-49 661.12,-49 661.12,-79.5"/>
<text text-anchor="start" x="538.38" y="-66" font-family="Helvetica,sans-Serif" font-size="10.00">yaclib::detail::DropCallback</text>
<text text-anchor="middle" x="595.75" y="-54.75" font-family="Helvetica,sans-Serif" font-size="10.00">&lt; Derived &gt;</text>
</a>
</g>
</g>
<!-- Node7&#45;&gt;Node23 -->
<g id="edge23_Node000007_Node000023" class="edge">
<title>Node7&#45;&gt;Node23</title>
<g id="a_edge23_Node000007_Node000023"><a xlink:title=" ">
<path fill="none" stroke="#63b8ff" d="M486.52,-231.86C487.47,-231.04 488.38,-230.16 489.25,-229.25 511.38,-205.89 504.56,-113.02 526.25,-89.25 529.58,-85.6 533.48,-82.49 537.71,-79.82"/>
<polygon fill="#63b8ff" stroke="#63b8ff" points="484.67,-228.89 478.36,-237.4 488.6,-234.68 484.67,-228.89"/>
</a>
</g>
</g>
<!-- Node24 -->
<g id="Node000024" class="node">
<title>Node24</title>
<g id="a_Node000024"><a xlink:href="structyaclib_1_1detail_1_1EventHelperCallback.html" target="_top" xlink:title=" ">
<polygon fill="white" stroke="#666666" points="658.88,-30.5 532.62,-30.5 532.62,0 658.88,0 658.88,-30.5"/>
<text text-anchor="start" x="540.62" y="-17" font-family="Helvetica,sans-Serif" font-size="10.00">yaclib::detail::EventHelper</text>
<text text-anchor="middle" x="595.75" y="-5.75" font-family="Helvetica,sans-Serif" font-size="10.00">Callback&lt; Event &gt;</text>
</a>
</g>
</g>
<!-- Node7&#45;&gt;Node24 -->
<g id="edge24_Node000007_Node000024" class="edge">
<title>Node7&#45;&gt;Node24</title>
<g id="a_edge24_Node000007_Node000024"><a xlink:title=" ">
<path fill="none" stroke="#63b8ff" d="M487.05,-231.52C487.82,-230.8 488.55,-230.04 489.25,-229.25 517.65,-197.24 498.45,-72.79 526.25,-40.25 529.38,-36.59 533.08,-33.47 537.13,-30.8"/>
<polygon fill="#63b8ff" stroke="#63b8ff" points="485.18,-228.56 479.14,-237.27 489.29,-234.22 485.18,-228.56"/>
</a>
</g>
</g>
<!-- Node9 -->
<g id="Node000009" class="node">
<title>Node9</title>
<g id="a_Node000009"><a xlink:href="structyaclib_1_1detail_1_1AwaitOnAwaiter.html" target="_top" xlink:title=" ">
<polygon fill="white" stroke="#666666" points="1056.75,-222.5 913.25,-222.5 913.25,-192 1056.75,-192 1056.75,-222.5"/>
<text text-anchor="start" x="921.25" y="-209" font-family="Helvetica,sans-Serif" font-size="10.00">yaclib::detail::AwaitOnAwaiter</text>
<text text-anchor="middle" x="985" y="-197.75" font-family="Helvetica,sans-Serif" font-size="10.00">&lt; Handle &gt;</text>
</a>
</g>
</g>
<!-- Node8&#45;&gt;Node9 -->
<g id="edge8_Node000008_Node000009" class="edge">
<title>Node8&#45;&gt;Node9</title>
<g id="a_edge8_Node000008_Node000009"><a xlink:title=" ">
<path fill="none" stroke="#63b8ff" d="M887.84,-207.25C896.19,-207.25 904.65,-207.25 912.92,-207.25"/>
<polygon fill="#63b8ff" stroke="#63b8ff" points="888.06,-203.75 878.06,-207.25 888.06,-210.75 888.06,-203.75"/>
</a>
</g>
</g>
<!-- Node15&#45;&gt;Node8 -->
<g id="edge15_Node000015_Node000008" class="edge">
<title>Node15&#45;&gt;Node8</title>
<g id="a_edge15_Node000015_Node000008"><a xlink:title=" ">
<path fill="none" stroke="orange" stroke-dasharray="5,2" d="M675.21,-202.23C696.77,-203.04 719.95,-203.92 740.79,-204.71"/>
<polygon fill="orange" stroke="orange" points="675.4,-198.73 665.27,-201.85 675.13,-205.73 675.4,-198.73"/>
</a>
</g>
<text text-anchor="middle" x="703.12" y="-206" font-family="Helvetica,sans-Serif" font-size="10.00" fill="grey"> &lt; false &gt;</text>
</g>
<!-- Node17 -->
<g id="Node000017" class="node">
<title>Node17</title>
<g id="a_Node000017"><a xlink:href="classyaclib_1_1detail_1_1NoResultCore.html" target="_top" xlink:title=" ">
<polygon fill="white" stroke="#666666" points="875.5,-170.88 741.75,-170.88 741.75,-151.62 875.5,-151.62 875.5,-170.88"/>
<text text-anchor="middle" x="808.62" y="-157.38" font-family="Helvetica,sans-Serif" font-size="10.00">yaclib::detail::NoResultCore</text>
</a>
</g>
</g>
<!-- Node16&#45;&gt;Node17 -->
<g id="edge17_Node000016_Node000017" class="edge">
<title>Node16&#45;&gt;Node17</title>
<g id="a_edge17_Node000016_Node000017"><a xlink:title=" ">
<path fill="none" stroke="#63b8ff" d="M665.42,-157.88C689.8,-158.46 717.17,-159.11 741.34,-159.68"/>
<polygon fill="#63b8ff" stroke="#63b8ff" points="665.69,-154.38 655.61,-157.65 665.52,-161.38 665.69,-154.38"/>
</a>
</g>
</g>
<!-- Node18 -->
<g id="Node000018" class="node">
<title>Node18</title>
<g id="a_Node000018"><a xlink:href="classyaclib_1_1detail_1_1ResultCore.html" target="_top" xlink:title=" ">
<polygon fill="white" stroke="#666666" points="869.12,-133.5 748.12,-133.5 748.12,-103 869.12,-103 869.12,-133.5"/>
<text text-anchor="start" x="756.12" y="-120" font-family="Helvetica,sans-Serif" font-size="10.00">yaclib::detail::ResultCore</text>
<text text-anchor="middle" x="808.62" y="-108.75" font-family="Helvetica,sans-Serif" font-size="10.00">&lt; V, E &gt;</text>
</a>
</g>
</g>
<!-- Node16&#45;&gt;Node18 -->
<g id="edge18_Node000016_Node000018" class="edge">
<title>Node16&#45;&gt;Node18</title>
<g id="a_edge18_Node000016_Node000018"><a xlink:title=" ">
<path fill="none" stroke="#63b8ff" d="M663.97,-144.14C690.86,-139.29 721.59,-133.75 747.71,-129.05"/>
<polygon fill="#63b8ff" stroke="#63b8ff" points="663.42,-140.68 654.2,-145.9 664.66,-147.57 663.42,-140.68"/>
</a>
</g>
</g>
<!-- Node19 -->
<g id="Node000019" class="node">
<title>Node19</title>
<g id="a_Node000019"><a xlink:href="classyaclib_1_1detail_1_1SharedCore.html" target="_top" xlink:title=" ">
<polygon fill="white" stroke="#666666" points="1047,-163.5 923,-163.5 923,-133 1047,-133 1047,-163.5"/>
<text text-anchor="start" x="931" y="-150" font-family="Helvetica,sans-Serif" font-size="10.00">yaclib::detail::SharedCore</text>
<text text-anchor="middle" x="985" y="-138.75" font-family="Helvetica,sans-Serif" font-size="10.00">&lt; V, E &gt;</text>
</a>
</g>
</g>
<!-- Node18&#45;&gt;Node19 -->
<g id="edge19_Node000018_Node000019" class="edge">
<title>Node18&#45;&gt;Node19</title>
<g id="a_edge19_Node000018_Node000019"><a xlink:title=" ">
<path fill="none" stroke="#63b8ff" d="M880.26,-130.4C894.31,-132.82 908.96,-135.34 922.67,-137.7"/>
<polygon fill="#63b8ff" stroke="#63b8ff" points="881.09,-126.99 870.64,-128.75 879.9,-133.89 881.09,-126.99"/>
</a>
</g>
</g>
<!-- Node20 -->
<g id="Node000020" class="node">
<title>Node20</title>
<g id="a_Node000020"><a xlink:href="classyaclib_1_1detail_1_1UniqueCore.html" target="_top" xlink:title=" ">
<polygon fill="white" stroke="#666666" points="1047,-114.5 923,-114.5 923,-84 1047,-84 1047,-114.5"/>
<text text-anchor="start" x="931" y="-101" font-family="Helvetica,sans-Serif" font-size="10.00">yaclib::detail::UniqueCore</text>
<text text-anchor="middle" x="985" y="-89.75" font-family="Helvetica,sans-Serif" font-size="10.00">&lt; V, E &gt;</text>
</a>
</g>
</g>
<!-- Node18&#45;&gt;Node20 -->
<g id="edge20_Node000018_Node000020" class="edge">
<title>Node18&#45;&gt;Node20</title>
<g id="a_edge20_Node000018_Node000020"><a xlink:title=" ">
<path fill="none" stroke="#63b8ff" d="M880.26,-110.55C894.31,-109.02 908.96,-107.43 922.67,-105.93"/>
<polygon fill="#63b8ff" stroke="#63b8ff" points="880.21,-107.04 870.65,-111.6 880.97,-114 880.21,-107.04"/>
</a>
</g>
</g>
<!-- Node21 -->
<g id="Node000021" class="node">
<title>Node21</title>
<g id="a_Node000021"><a xlink:href="classyaclib_1_1detail_1_1ReadyCore.html" target="_top" xlink:title=" ">
<polygon fill="white" stroke="#666666" points="1214,-114.5 1093.75,-114.5 1093.75,-84 1214,-84 1214,-114.5"/>
<text text-anchor="start" x="1101.75" y="-101" font-family="Helvetica,sans-Serif" font-size="10.00">yaclib::detail::ReadyCore</text>
<text text-anchor="middle" x="1153.88" y="-89.75" font-family="Helvetica,sans-Serif" font-size="10.00">&lt; V, E &gt;</text>
</a>
</g>
</g>
<!-- Node20&#45;&gt;Node21 -->
<g id="edge21_Node000020_Node000021" class="edge">
<title>Node20&#45;&gt;Node21</title>
<g id="a_edge21_Node000020_Node000021"><a xlink:title=" ">
<path fill="none" stroke="#63b8ff" d="M1058.65,-99.25C1070.25,-99.25 1082.12,-99.25 1093.36,-99.25"/>
<polygon fill="#63b8ff" stroke="#63b8ff" points="1058.7,-95.75 1048.7,-99.25 1058.7,-102.75 1058.7,-95.75"/>
</a>
</g>
</g>
</g>
</svg>
