<?xml version="1.0" encoding="UTF-8" standalone="no"?>
<!DOCTYPE svg PUBLIC "-//W3C//DTD SVG 1.1//EN"
 "http://www.w3.org/Graphics/SVG/1.1/DTD/svg11.dtd">
<!-- Generated by graphviz version 3.0.0 (20221109.1736)
 -->
<!-- Title: yaclib::detail::AtomicWait&lt; Impl, T &gt; Pages: 1 -->
<!--zoomable 192 -->
<svg id="main" version="1.1" xmlns="http://www.w3.org/2000/svg" xmlns:xlink="http://www.w3.org/1999/xlink" xml:space="preserve" onload="init(evt)">
<style type="text/css"><![CDATA[
.edge:hover path { stroke: red; }
.edge:hover polygon { stroke: red; fill: red; }
]]></style>
<script type="text/javascript"><![CDATA[
var edges = document.getElementsByTagName('g');
if (edges && edges.length) {
  for (var i=0;i<edges.length;i++) {
    if (edges[i].id.substr(0,4)=='edge') {
      edges[i].setAttribute('class','edge');
    }
  }
}
]]></script>
        <defs>
                <circle id="rim" cx="0" cy="0" r="7"/>
                <circle id="rim2" cx="0" cy="0" r="3.5"/>
                <g id="zoomPlus">
                        <use xlink:href="#rim" fill="#404040">
                                <set attributeName="fill" to="#808080" begin="zoomplus.mouseover" end="zoomplus.mouseout"/>
                        </use>
                        <path d="M-4,0h8M0,-4v8" fill="none" stroke="white" stroke-width="1.5" pointer-events="none"/>
                </g>
                <g id="zoomMin">
                        <use xlink:href="#rim" fill="#404040">
                                <set attributeName="fill" to="#808080" begin="zoomminus.mouseover" end="zoomminus.mouseout"/>
                        </use>
                        <path d="M-4,0h8" fill="none" stroke="white" stroke-width="1.5" pointer-events="none"/>
                </g>
                <g id="dirArrow">
                        <path fill="none" stroke="white" stroke-width="1.5" d="M0,-3.0v7 M-2.5,-0.5L0,-3.0L2.5,-0.5"/>
                </g>
               <g id="resetDef">
                       <use xlink:href="#rim2" fill="#404040">
                               <set attributeName="fill" to="#808080" begin="reset.mouseover" end="reset.mouseout"/>
                       </use>
               </g>
        </defs>

<script type="text/javascript">
var viewWidth = 975;
var viewHeight = 192;
var sectionId = 'dynsection-0';
</script>
<script xlink:href="svgpan.js"/>
<svg id="graph" class="graph">
<g id="viewport">
<title>yaclib::detail::AtomicWait&lt; Impl, T &gt;</title>
<!-- Node1 -->
<g id="node1" class="node">
<title>Node1</title>
<g id="a_node1"><a xlink:title=" ">
<polygon fill="#bfbfbf" stroke="black" points="72,-49.5 72,-79.5 196,-79.5 196,-49.5 72,-49.5"/>
<text text-anchor="start" x="80" y="-67.5" font-family="Helvetica,sans-Serif" font-size="10.00">yaclib::detail::AtomicWait</text>
<text text-anchor="middle" x="134" y="-56.5" font-family="Helvetica,sans-Serif" font-size="10.00">&lt; Impl, T &gt;</text>
</a>
</g>
</g>
<!-- Node3 -->
<g id="node3" class="node">
<title>Node3</title>
<g id="a_node3"><a xlink:href="classyaclib_1_1detail_1_1AtomicBase.html" target="_top" xlink:title=" ">
<polygon fill="none" stroke="black" points="293,-101.5 293,-131.5 420,-131.5 420,-101.5 293,-101.5"/>
<text text-anchor="start" x="301" y="-119.5" font-family="Helvetica,sans-Serif" font-size="10.00">yaclib::detail::AtomicBase</text>
<text text-anchor="middle" x="356.5" y="-108.5" font-family="Helvetica,sans-Serif" font-size="10.00">&lt; Impl, T &gt;</text>
</a>
</g>
</g>
<!-- Node1&#45;&gt;Node3 -->
<g id="edge2" class="edge">
<title>Node1&#45;&gt;Node3</title>
<path fill="none" stroke="midnightblue" d="M206.2,-81.29C234.06,-87.86 265.73,-95.33 292.72,-101.69"/>
<polygon fill="midnightblue" stroke="midnightblue" points="206.67,-77.8 196.13,-78.92 205.06,-84.62 206.67,-77.8"/>
</g>
<!-- Node11 -->
<g id="node11" class="node">
<title>Node11</title>
<g id="a_node11"><a xlink:href="classyaclib_1_1detail_1_1AtomicWait.html" target="_top" xlink:title=" ">
<polygon fill="none" stroke="black" points="294.5,-49.5 294.5,-79.5 418.5,-79.5 418.5,-49.5 294.5,-49.5"/>
<text text-anchor="start" x="302.5" y="-67.5" font-family="Helvetica,sans-Serif" font-size="10.00">yaclib::detail::AtomicWait</text>
<text text-anchor="middle" x="356.5" y="-56.5" font-family="Helvetica,sans-Serif" font-size="10.00">&lt; Impl, U * &gt;</text>
</a>
</g>
</g>
<!-- Node1&#45;&gt;Node11 -->
<g id="edge10" class="edge">
<title>Node1&#45;&gt;Node11</title>
<path fill="none" stroke="orange" stroke-dasharray="5,2" d="M206.38,-64.5C234.72,-64.5 266.99,-64.5 294.25,-64.5"/>
<polygon fill="orange" stroke="orange" points="206.13,-61 196.13,-64.5 206.13,-68 206.13,-61"/>
<text text-anchor="middle" x="244.5" y="-67.5" font-family="Helvetica,sans-Serif" font-size="10.00"> &lt; Impl, U * &gt;</text>
</g>
<!-- Node12 -->
<g id="node12" class="node">
<title>Node12</title>
<g id="a_node12"><a xlink:href="classyaclib_1_1detail_1_1AtomicWait.html" target="_top" xlink:title=" ">
<polygon fill="none" stroke="black" points="294.5,-0.5 294.5,-30.5 418.5,-30.5 418.5,-0.5 294.5,-0.5"/>
<text text-anchor="start" x="302.5" y="-18.5" font-family="Helvetica,sans-Serif" font-size="10.00">yaclib::detail::AtomicWait</text>
<text text-anchor="middle" x="356.5" y="-7.5" font-family="Helvetica,sans-Serif" font-size="10.00">&lt; Impl, bool &gt;</text>
</a>
</g>
</g>
<!-- Node1&#45;&gt;Node12 -->
<g id="edge12" class="edge">
<title>Node1&#45;&gt;Node12</title>
<path fill="none" stroke="orange" stroke-dasharray="5,2" d="M206,-48.72C234.44,-42.4 266.88,-35.19 294.25,-29.11"/>
<polygon fill="orange" stroke="orange" points="205.13,-45.33 196.13,-50.92 206.65,-52.16 205.13,-45.33"/>
<text text-anchor="middle" x="244.5" y="-49.5" font-family="Helvetica,sans-Serif" font-size="10.00"> &lt; Impl, bool &gt;</text>
</g>
<!-- Node2 -->
<g id="node2" class="node">
<title>Node2</title>
<g id="a_node2"><a xlink:title=" ">
<polygon fill="none" stroke="black" points="0,-55 0,-74 35,-74 35,-55 0,-55"/>
<text text-anchor="middle" x="17.5" y="-62" font-family="Helvetica,sans-Serif" font-size="10.00">Impl</text>
</a>
</g>
</g>
<!-- Node2&#45;&gt;Node1 -->
<g id="edge1" class="edge">
<title>Node2&#45;&gt;Node1</title>
<path fill="none" stroke="darkgreen" d="M45.53,-64.5C53.54,-64.5 62.65,-64.5 71.89,-64.5"/>
<polygon fill="darkgreen" stroke="darkgreen" points="45.39,-61 35.39,-64.5 45.39,-68 45.39,-61"/>
</g>
<!-- Node4 -->
<g id="node4" class="node">
<title>Node4</title>
<g id="a_node4"><a xlink:href="classyaclib_1_1detail_1_1AtomicFloatingBase.html" target="_top" xlink:title=" ">
<polygon fill="none" stroke="black" points="513,-153.5 513,-183.5 652,-183.5 652,-153.5 513,-153.5"/>
<text text-anchor="start" x="521" y="-171.5" font-family="Helvetica,sans-Serif" font-size="10.00">yaclib::detail::AtomicFloating</text>
<text text-anchor="middle" x="582.5" y="-160.5" font-family="Helvetica,sans-Serif" font-size="10.00">Base&lt; Impl, T, IsFloating &gt;</text>
</a>
</g>
</g>
<!-- Node3&#45;&gt;Node4 -->
<g id="edge3" class="edge">
<title>Node3&#45;&gt;Node4</title>
<path fill="none" stroke="midnightblue" d="M430.29,-133.4C458.18,-139.87 489.79,-147.21 516.87,-153.5"/>
<polygon fill="midnightblue" stroke="midnightblue" points="430.73,-129.91 420.19,-131.05 429.14,-136.72 430.73,-129.91"/>
</g>
<!-- Node7 -->
<g id="node7" class="node">
<title>Node7</title>
<g id="a_node7"><a xlink:href="classyaclib_1_1detail_1_1AtomicFloatingBase_3_01Impl_00_01T_00_01true_01_4.html" target="_top" xlink:title=" ">
<polygon fill="none" stroke="black" points="513,-104.5 513,-134.5 652,-134.5 652,-104.5 513,-104.5"/>
<text text-anchor="start" x="521" y="-122.5" font-family="Helvetica,sans-Serif" font-size="10.00">yaclib::detail::AtomicFloating</text>
<text text-anchor="middle" x="582.5" y="-111.5" font-family="Helvetica,sans-Serif" font-size="10.00">Base&lt; Impl, T, true &gt;</text>
</a>
</g>
</g>
<!-- Node3&#45;&gt;Node7 -->
<g id="edge6" class="edge">
<title>Node3&#45;&gt;Node7</title>
<path fill="none" stroke="midnightblue" d="M430.2,-117.47C456.77,-117.83 486.72,-118.23 512.93,-118.58"/>
<polygon fill="midnightblue" stroke="midnightblue" points="430.24,-113.97 420.19,-117.34 430.15,-120.97 430.24,-113.97"/>
</g>
<!-- Node9 -->
<g id="node9" class="node">
<title>Node9</title>
<g id="a_node9"><a xlink:href="classyaclib_1_1detail_1_1AtomicBase.html" target="_top" xlink:title=" ">
<polygon fill="none" stroke="black" points="519,-54.5 519,-84.5 646,-84.5 646,-54.5 519,-54.5"/>
<text text-anchor="start" x="527" y="-72.5" font-family="Helvetica,sans-Serif" font-size="10.00">yaclib::detail::AtomicBase</text>
<text text-anchor="middle" x="582.5" y="-61.5" font-family="Helvetica,sans-Serif" font-size="10.00">&lt; Impl, U * &gt;</text>
</a>
</g>
</g>
<!-- Node3&#45;&gt;Node9 -->
<g id="edge8" class="edge">
<title>Node3&#45;&gt;Node9</title>
<path fill="none" stroke="orange" stroke-dasharray="5,2" d="M430.13,-101.26C458.74,-95.26 491.27,-88.43 518.82,-82.65"/>
<polygon fill="orange" stroke="orange" points="429.26,-97.87 420.19,-103.35 430.7,-104.72 429.26,-97.87"/>
<text text-anchor="middle" x="466.5" y="-102.5" font-family="Helvetica,sans-Serif" font-size="10.00"> &lt; Impl, U * &gt;</text>
</g>
<!-- Node5 -->
<g id="node5" class="node">
<title>Node5</title>
<g id="a_node5"><a xlink:href="classyaclib_1_1detail_1_1AtomicIntegralBase.html" target="_top" xlink:title=" ">
<polygon fill="none" stroke="black" points="689,-153.5 689,-183.5 826,-183.5 826,-153.5 689,-153.5"/>
<text text-anchor="start" x="697" y="-171.5" font-family="Helvetica,sans-Serif" font-size="10.00">yaclib::detail::AtomicIntegral</text>
<text text-anchor="middle" x="757.5" y="-160.5" font-family="Helvetica,sans-Serif" font-size="10.00">Base&lt; Impl, T, IsIntegral &gt;</text>
</a>
</g>
</g>
<!-- Node4&#45;&gt;Node5 -->
<g id="edge4" class="edge">
<title>Node4&#45;&gt;Node5</title>
<path fill="none" stroke="midnightblue" d="M662.64,-168.5C671.44,-168.5 680.35,-168.5 688.99,-168.5"/>
<polygon fill="midnightblue" stroke="midnightblue" points="662.37,-165 652.37,-168.5 662.37,-172 662.37,-165"/>
</g>
<!-- Node6 -->
<g id="node6" class="node">
<title>Node6</title>
<g id="a_node6"><a xlink:href="classyaclib_1_1detail_1_1Atomic.html" target="_top" xlink:title=" ">
<polygon fill="none" stroke="black" points="863,-153.5 863,-183.5 967,-183.5 967,-153.5 863,-153.5"/>
<text text-anchor="start" x="871" y="-171.5" font-family="Helvetica,sans-Serif" font-size="10.00">yaclib::detail::Atomic</text>
<text text-anchor="middle" x="915" y="-160.5" font-family="Helvetica,sans-Serif" font-size="10.00">&lt; Impl, T &gt;</text>
</a>
</g>
</g>
<!-- Node5&#45;&gt;Node6 -->
<g id="edge5" class="edge">
<title>Node5&#45;&gt;Node6</title>
<path fill="none" stroke="midnightblue" d="M836.37,-168.5C845.36,-168.5 854.34,-168.5 862.84,-168.5"/>
<polygon fill="midnightblue" stroke="midnightblue" points="836.25,-165 826.25,-168.5 836.25,-172 836.25,-165"/>
</g>
<!-- Node8 -->
<g id="node8" class="node">
<title>Node8</title>
<g id="a_node8"><a xlink:href="classyaclib_1_1detail_1_1AtomicIntegralBase_3_01Impl_00_01T_00_01true_01_4.html" target="_top" xlink:title=" ">
<polygon fill="none" stroke="black" points="689,-104.5 689,-134.5 826,-134.5 826,-104.5 689,-104.5"/>
<text text-anchor="start" x="697" y="-122.5" font-family="Helvetica,sans-Serif" font-size="10.00">yaclib::detail::AtomicIntegral</text>
<text text-anchor="middle" x="757.5" y="-111.5" font-family="Helvetica,sans-Serif" font-size="10.00">Base&lt; Impl, T, true &gt;</text>
</a>
</g>
</g>
<!-- Node7&#45;&gt;Node8 -->
<g id="edge7" class="edge">
<title>Node7&#45;&gt;Node8</title>
<path fill="none" stroke="midnightblue" d="M662.64,-119.5C671.44,-119.5 680.35,-119.5 688.99,-119.5"/>
<polygon fill="midnightblue" stroke="midnightblue" points="662.37,-116 652.37,-119.5 662.37,-123 662.37,-116"/>
</g>
<!-- Node10 -->
<g id="node10" class="node">
<title>Node10</title>
<g id="a_node10"><a xlink:href="classyaclib_1_1detail_1_1Atomic_3_01Impl_00_01U_01_5_01_4.html" target="_top" xlink:title=" ">
<polygon fill="none" stroke="black" points="705.5,-54.5 705.5,-84.5 809.5,-84.5 809.5,-54.5 705.5,-54.5"/>
<text text-anchor="start" x="713.5" y="-72.5" font-family="Helvetica,sans-Serif" font-size="10.00">yaclib::detail::Atomic</text>
<text text-anchor="middle" x="757.5" y="-61.5" font-family="Helvetica,sans-Serif" font-size="10.00">&lt; Impl, U * &gt;</text>
</a>
</g>
</g>
<!-- Node9&#45;&gt;Node10 -->
<g id="edge9" class="edge">
<title>Node9&#45;&gt;Node10</title>
<path fill="none" stroke="midnightblue" d="M656.54,-69.5C672.92,-69.5 689.96,-69.5 705.23,-69.5"/>
<polygon fill="midnightblue" stroke="midnightblue" points="656.45,-66 646.45,-69.5 656.45,-73 656.45,-66"/>
</g>
<!-- Node11&#45;&gt;Node9 -->
<g id="edge11" class="edge">
<title>Node11&#45;&gt;Node9</title>
<path fill="none" stroke="midnightblue" d="M428.75,-66.09C457.68,-66.74 490.81,-67.48 518.81,-68.1"/>
<polygon fill="midnightblue" stroke="midnightblue" points="428.78,-62.59 418.71,-65.87 428.63,-69.59 428.78,-62.59"/>
</g>
<!-- Node13 -->
<g id="node13" class="node">
<title>Node13</title>
<g id="a_node13"><a xlink:href="classyaclib_1_1detail_1_1AtomicFlag.html" target="_top" xlink:title=" ">
<polygon fill="none" stroke="black" points="521,-0.5 521,-30.5 644,-30.5 644,-0.5 521,-0.5"/>
<text text-anchor="start" x="529" y="-18.5" font-family="Helvetica,sans-Serif" font-size="10.00">yaclib::detail::AtomicFlag</text>
<text text-anchor="middle" x="582.5" y="-7.5" font-family="Helvetica,sans-Serif" font-size="10.00">&lt; Impl &gt;</text>
</a>
</g>
</g>
<!-- Node12&#45;&gt;Node13 -->
<g id="edge13" class="edge">
<title>Node12&#45;&gt;Node13</title>
<path fill="none" stroke="midnightblue" d="M428.96,-15.5C458.52,-15.5 492.42,-15.5 520.75,-15.5"/>
<polygon fill="midnightblue" stroke="midnightblue" points="428.71,-12 418.71,-15.5 428.71,-19 428.71,-12"/>
</g>
</g>
</svg>
        <g id="navigator" transform="translate(0 0)" fill="#404254">
                <rect fill="#f2f5e9" fill-opacity="0.5" stroke="#606060" stroke-width=".5" x="0" y="0" width="60" height="60"/>
                <use id="zoomplus" xlink:href="#zoomPlus" x="17" y="9" onmousedown="handleZoom(evt,'in')"/>
                <use id="zoomminus" xlink:href="#zoomMin" x="42" y="9" onmousedown="handleZoom(evt,'out')"/>
                <use id="reset" xlink:href="#resetDef" x="30" y="36" onmousedown="handleReset()"/>
                <g id="arrowUp" xlink:href="#dirArrow" transform="translate(30 24)" onmousedown="handlePan(0,-1)">
                  <use xlink:href="#rim" fill="#404040">
                        <set attributeName="fill" to="#808080" begin="arrowUp.mouseover" end="arrowUp.mouseout"/>
                  </use>
                  <path fill="none" stroke="white" stroke-width="1.5" d="M0,-3.0v7 M-2.5,-0.5L0,-3.0L2.5,-0.5"/>
                </g>
                <g id="arrowRight" xlink:href="#dirArrow" transform="rotate(90) translate(36 -43)" onmousedown="handlePan(1,0)">
                  <use xlink:href="#rim" fill="#404040">
                        <set attributeName="fill" to="#808080" begin="arrowRight.mouseover" end="arrowRight.mouseout"/>
                  </use>
                  <path fill="none" stroke="white" stroke-width="1.5" d="M0,-3.0v7 M-2.5,-0.5L0,-3.0L2.5,-0.5"/>
                </g>
                <g id="arrowDown" xlink:href="#dirArrow" transform="rotate(180) translate(-30 -48)" onmousedown="handlePan(0,1)">
                  <use xlink:href="#rim" fill="#404040">
                        <set attributeName="fill" to="#808080" begin="arrowDown.mouseover" end="arrowDown.mouseout"/>
                  </use>
                  <path fill="none" stroke="white" stroke-width="1.5" d="M0,-3.0v7 M-2.5,-0.5L0,-3.0L2.5,-0.5"/>
                </g>
                <g id="arrowLeft" xlink:href="#dirArrow" transform="rotate(270) translate(-36 17)" onmousedown="handlePan(-1,0)">
                  <use xlink:href="#rim" fill="#404040">
                        <set attributeName="fill" to="#808080" begin="arrowLeft.mouseover" end="arrowLeft.mouseout"/>
                  </use>
                  <path fill="none" stroke="white" stroke-width="1.5" d="M0,-3.0v7 M-2.5,-0.5L0,-3.0L2.5,-0.5"/>
                </g>
        </g>
        <svg viewBox="0 0 15 15" width="100%" height="30px" preserveAspectRatio="xMaxYMin meet">
         <g id="arrow_out" transform="scale(0.3 0.3)">
          <a xlink:href="classyaclib_1_1detail_1_1AtomicWait__inherit__graph_org.svg" target="_base">
           <rect id="button" ry="5" rx="5" y="6" x="6" height="38" width="38"
                fill="#f2f5e9" fill-opacity="0.5" stroke="#606060" stroke-width="1.0"/>
           <path id="arrow"
             d="M 11.500037,31.436501 C 11.940474,20.09759 22.043105,11.32322 32.158766,21.979434 L 37.068811,17.246167 C 37.068811,17.246167 37.088388,32 37.088388,32 L 22.160133,31.978069 C 22.160133,31.978069 26.997745,27.140456 26.997745,27.140456 C 18.528582,18.264221 13.291696,25.230495 11.500037,31.436501 z"
             style="fill:#404040;"/>
          </a>
         </g>
        </svg>
</svg>
