<?xml version="1.0" encoding="UTF-8" standalone="no"?>
<!DOCTYPE svg PUBLIC "-//W3C//DTD SVG 1.1//EN"
 "http://www.w3.org/Graphics/SVG/1.1/DTD/svg11.dtd">
<!-- Generated by graphviz version 9.0.0 (20230911.1827)
 -->
<!-- Title: CounterBase Pages: 1 -->
<svg width="751pt" height="101pt"
 viewBox="0.00 0.00 750.50 101.12" xmlns="http://www.w3.org/2000/svg" xmlns:xlink="http://www.w3.org/1999/xlink">
<g id="graph0" class="graph" transform="scale(1 1) rotate(0) translate(4 97.12)">
<title>CounterBase</title>
<!-- Node1 -->
<g id="Node000001" class="node">
<title>Node1</title>
<g id="a_Node000001"><a xlink:title=" ">
<polygon fill="#999999" stroke="#666666" points="72.25,-58.5 0,-58.5 0,-39.25 72.25,-39.25 72.25,-58.5"/>
<text text-anchor="middle" x="36.12" y="-45" font-family="Helvetica,sans-Serif" font-size="10.00">CounterBase</text>
</a>
</g>
</g>
<!-- Node2 -->
<g id="Node000002" class="node">
<title>Node2</title>
<g id="a_Node000002"><a xlink:href="structyaclib_1_1detail_1_1AtomicCounter.html" target="_top" xlink:title=" ">
<polygon fill="white" stroke="#666666" points="246.75,-91.12 109.25,-91.12 109.25,-60.62 246.75,-60.62 246.75,-91.12"/>
<text text-anchor="start" x="117.25" y="-77.62" font-family="Helvetica,sans-Serif" font-size="10.00">yaclib::detail::AtomicCounter</text>
<text text-anchor="middle" x="178" y="-66.38" font-family="Helvetica,sans-Serif" font-size="10.00">&lt; CounterBase, Deleter &gt;</text>
</a>
</g>
</g>
<!-- Node1&#45;&gt;Node2 -->
<g id="edge1_Node000001_Node000002" class="edge">
<title>Node1&#45;&gt;Node2</title>
<g id="a_edge1_Node000001_Node000002"><a xlink:title=" ">
<path fill="none" stroke="#63b8ff" d="M83.58,-57.84C91.75,-59.42 100.39,-61.09 109,-62.75"/>
<polygon fill="#63b8ff" stroke="#63b8ff" points="84.39,-54.43 73.91,-55.98 83.06,-61.31 84.39,-54.43"/>
</a>
</g>
</g>
<!-- Node5 -->
<g id="Node000005" class="node">
<title>Node5</title>
<g id="a_Node000005"><a xlink:href="structyaclib_1_1detail_1_1OneCounter.html" target="_top" xlink:title=" ">
<polygon fill="white" stroke="#666666" points="240.38,-40.12 115.62,-40.12 115.62,-9.62 240.38,-9.62 240.38,-40.12"/>
<text text-anchor="start" x="123.62" y="-26.62" font-family="Helvetica,sans-Serif" font-size="10.00">yaclib::detail::OneCounter</text>
<text text-anchor="middle" x="178" y="-15.38" font-family="Helvetica,sans-Serif" font-size="10.00">&lt; CounterBase, Deleter &gt;</text>
</a>
</g>
</g>
<!-- Node1&#45;&gt;Node5 -->
<g id="edge4_Node000001_Node000005" class="edge">
<title>Node1&#45;&gt;Node5</title>
<g id="a_edge4_Node000001_Node000005"><a xlink:title=" ">
<path fill="none" stroke="#63b8ff" d="M83.54,-40.91C93.71,-39.17 104.64,-37.29 115.31,-35.46"/>
<polygon fill="#63b8ff" stroke="#63b8ff" points="83.18,-37.42 73.91,-42.56 84.36,-44.32 83.18,-37.42"/>
</a>
</g>
</g>
<!-- Node3 -->
<g id="Node000003" class="node">
<title>Node3</title>
<g id="a_Node000003"><a xlink:href="structyaclib_1_1detail_1_1AtomicCounter.html" target="_top" xlink:title=" ">
<polygon fill="white" stroke="#666666" points="559.75,-93.12 422.25,-93.12 422.25,-62.62 559.75,-62.62 559.75,-93.12"/>
<text text-anchor="start" x="430.25" y="-79.62" font-family="Helvetica,sans-Serif" font-size="10.00">yaclib::detail::AtomicCounter</text>
<text text-anchor="middle" x="491" y="-68.38" font-family="Helvetica,sans-Serif" font-size="10.00">&lt; NopeBase, NopeDeleter &gt;</text>
</a>
</g>
</g>
<!-- Node2&#45;&gt;Node3 -->
<g id="edge2_Node000002_Node000003" class="edge">
<title>Node2&#45;&gt;Node3</title>
<g id="a_edge2_Node000002_Node000003"><a xlink:title=" ">
<path fill="none" stroke="orange" stroke-dasharray="5,2" d="M258.09,-76.38C308.71,-76.71 373.71,-77.13 422.01,-77.44"/>
<polygon fill="orange" stroke="orange" points="258.4,-72.89 248.38,-76.32 258.36,-79.89 258.4,-72.89"/>
</a>
</g>
<text text-anchor="middle" x="326.62" y="-78.62" font-family="Helvetica,sans-Serif" font-size="10.00" fill="grey"> &lt; NopeBase, NopeDeleter &gt;</text>
</g>
<!-- Node4 -->
<g id="Node000004" class="node">
<title>Node4</title>
<g id="a_Node000004"><a xlink:href="classyaclib_1_1detail_1_1AwaitEvent.html" target="_top" xlink:title=" ">
<polygon fill="white" stroke="#666666" points="738.75,-87.5 616.25,-87.5 616.25,-68.25 738.75,-68.25 738.75,-87.5"/>
<text text-anchor="middle" x="677.5" y="-74" font-family="Helvetica,sans-Serif" font-size="10.00">yaclib::detail::AwaitEvent</text>
</a>
</g>
</g>
<!-- Node3&#45;&gt;Node4 -->
<g id="edge3_Node000003_Node000004" class="edge">
<title>Node3&#45;&gt;Node4</title>
<g id="a_edge3_Node000003_Node000004"><a xlink:title=" ">
<path fill="none" stroke="#63b8ff" d="M571.45,-77.88C586.35,-77.88 601.7,-77.88 615.91,-77.88"/>
<polygon fill="#63b8ff" stroke="#63b8ff" points="571.69,-74.38 561.69,-77.88 571.69,-81.38 571.69,-74.38"/>
</a>
</g>
</g>
<!-- Node6 -->
<g id="Node000006" class="node">
<title>Node6</title>
<g id="a_Node000006"><a xlink:href="structyaclib_1_1detail_1_1OneCounter.html" target="_top" xlink:title=" ">
<polygon fill="white" stroke="#666666" points="575.5,-41.75 406.5,-41.75 406.5,0 575.5,0 575.5,-41.75"/>
<text text-anchor="start" x="414.5" y="-28.25" font-family="Helvetica,sans-Serif" font-size="10.00">yaclib::detail::OneCounter</text>
<text text-anchor="start" x="414.5" y="-17" font-family="Helvetica,sans-Serif" font-size="10.00">&lt; ResultCore&lt; V, E &gt;, PromiseType</text>
<text text-anchor="middle" x="491" y="-5.75" font-family="Helvetica,sans-Serif" font-size="10.00">Deleter&lt; Lazy &gt; &gt;</text>
</a>
</g>
</g>
<!-- Node5&#45;&gt;Node6 -->
<g id="edge5_Node000005_Node000006" class="edge">
<title>Node5&#45;&gt;Node6</title>
<g id="a_edge5_Node000005_Node000006"><a xlink:title=" ">
<path fill="none" stroke="orange" stroke-dasharray="5,2" d="M252.24,-23.93C298.41,-23.34 358.16,-22.57 406.22,-21.95"/>
<polygon fill="orange" stroke="orange" points="252.28,-20.43 242.33,-24.06 252.37,-27.43 252.28,-20.43"/>
</a>
</g>
<text text-anchor="start" x="276" y="-48.12" font-family="Helvetica,sans-Serif" font-size="10.00" fill="grey"> &lt; ResultCore&lt; V, E</text>
<text text-anchor="start" x="276" y="-36.88" font-family="Helvetica,sans-Serif" font-size="10.00" fill="grey"> &gt;, PromiseTypeDeleter</text>
<text text-anchor="middle" x="326.62" y="-25.62" font-family="Helvetica,sans-Serif" font-size="10.00" fill="grey">&lt; Lazy &gt; &gt;</text>
</g>
<!-- Node7 -->
<g id="Node000007" class="node">
<title>Node7</title>
<g id="a_Node000007"><a xlink:href="classyaclib_1_1detail_1_1PromiseType.html" target="_top" xlink:title=" ">
<polygon fill="white" stroke="#666666" points="742.5,-36.12 612.5,-36.12 612.5,-5.62 742.5,-5.62 742.5,-36.12"/>
<text text-anchor="start" x="620.5" y="-22.62" font-family="Helvetica,sans-Serif" font-size="10.00">yaclib::detail::PromiseType</text>
<text text-anchor="middle" x="677.5" y="-11.38" font-family="Helvetica,sans-Serif" font-size="10.00">&lt; V, E, Lazy &gt;</text>
</a>
</g>
</g>
<!-- Node6&#45;&gt;Node7 -->
<g id="edge6_Node000006_Node000007" class="edge">
<title>Node6&#45;&gt;Node7</title>
<g id="a_edge6_Node000006_Node000007"><a xlink:title=" ">
<path fill="none" stroke="#63b8ff" d="M587.34,-20.88C595.74,-20.88 604.11,-20.88 612.17,-20.88"/>
<polygon fill="#63b8ff" stroke="#63b8ff" points="587.4,-17.38 577.4,-20.88 587.4,-24.38 587.4,-17.38"/>
</a>
</g>
</g>
</g>
</svg>
