<?xml version="1.0" encoding="UTF-8" standalone="no"?>
<!DOCTYPE svg PUBLIC "-//W3C//DTD SVG 1.1//EN"
 "http://www.w3.org/Graphics/SVG/1.1/DTD/svg11.dtd">
<!-- Generated by graphviz version 9.0.0 (20230911.1827)
 -->
<!-- Title: yaclib::detail::AtomicWait&lt; Impl, T &gt; Pages: 1 -->
<!--zoomable 191 -->

<svg id="main" version="1.1" xmlns="http://www.w3.org/2000/svg" xmlns:xlink="http://www.w3.org/1999/xlink" xml:space="preserve" onload="init(evt)">
<style type="text/css"><![CDATA[
.node, .edge {opacity: 0.7;}
.node.selected, .edge.selected {opacity: 1;}
.edge:hover path { stroke: red; }
.edge:hover polygon { stroke: red; fill: red; }
]]></style>

<defs>
  <circle id="rim" cx="0" cy="0" r="7"/>
  <circle id="rim2" cx="0" cy="0" r="3.5"/>
  <g id="zoomPlus">
    <use xlink:href="#rim" fill="#404040"><set attributeName="fill" to="#808080" begin="zoomplus.mouseover" end="zoomplus.mouseout"/></use>
    <path d="M-4,0h8M0,-4v8" fill="none" stroke="white" stroke-width="1.5" pointer-events="none"/>
  </g>
  <g id="zoomMin">
    <use xlink:href="#rim" fill="#404040"><set attributeName="fill" to="#808080" begin="zoomminus.mouseover" end="zoomminus.mouseout"/></use>
    <path d="M-4,0h8" fill="none" stroke="white" stroke-width="1.5" pointer-events="none"/>
  </g>
  <g id="arrowUp" transform="translate(30 24)">
    <use xlink:href="#rim"/>
    <path pointer-events="none" fill="none" stroke="white" stroke-width="1.5" d="M0,-3.0v7 M-2.5,-0.5L0,-3.0L2.5,-0.5"/>
  </g>
  <g id="arrowRight" transform="rotate(90) translate(36 -43)">
    <use xlink:href="#rim"/>
    <path pointer-events="none" fill="none" stroke="white" stroke-width="1.5" d="M0,-3.0v7 M-2.5,-0.5L0,-3.0L2.5,-0.5"/>
  </g>
  <g id="arrowDown" transform="rotate(180) translate(-30 -48)">
    <use xlink:href="#rim"/>
    <path pointer-events="none" fill="none" stroke="white" stroke-width="1.5" d="M0,-3.0v7 M-2.5,-0.5L0,-3.0L2.5,-0.5"/>
  </g>
  <g id="arrowLeft" transform="rotate(270) translate(-36 17)">
    <use xlink:href="#rim"/>
    <path pointer-events="none" fill="none" stroke="white" stroke-width="1.5" d="M0,-3.0v7 M-2.5,-0.5L0,-3.0L2.5,-0.5"/>
  </g>
  <g id="resetDef">
    <use xlink:href="#rim2" fill="#404040"><set attributeName="fill" to="#808080" begin="reset.mouseover" end="reset.mouseout"/></use>
  </g>
</defs>
<script type="application/ecmascript">
var viewWidth = 970;
var viewHeight = 191;
var sectionId = 'dynsection-0';
</script>
<script type="application/ecmascript" xlink:href="svg.min.js"/>
<svg id="graph" class="graph">
<g id="viewport">
<title>yaclib::detail::AtomicWait&lt; Impl, T &gt;</title>
<!-- Node1 -->
<g id="Node000001" class="node">
<title>Node1</title>
<g id="a_Node000001"><a xlink:title=" ">
<polygon fill="#999999" stroke="#666666" points="195,-103.5 71.75,-103.5 71.75,-73 195,-73 195,-103.5"/>
<text text-anchor="start" x="79.75" y="-90" font-family="Helvetica,sans-Serif" font-size="10.00">yaclib::detail::AtomicWait</text>
<text text-anchor="middle" x="133.38" y="-78.75" font-family="Helvetica,sans-Serif" font-size="10.00">&lt; Impl, T &gt;</text>
</a>
</g>
</g>
<!-- Node3 -->
<g id="Node000003" class="node">
<title>Node3</title>
<g id="a_Node000003"><a xlink:href="classyaclib_1_1detail_1_1AtomicBase.html" target="_top" xlink:title=" ">
<polygon fill="white" stroke="#666666" points="642.5,-182.5 516.25,-182.5 516.25,-152 642.5,-152 642.5,-182.5"/>
<text text-anchor="start" x="524.25" y="-169" font-family="Helvetica,sans-Serif" font-size="10.00">yaclib::detail::AtomicBase</text>
<text text-anchor="middle" x="579.38" y="-157.75" font-family="Helvetica,sans-Serif" font-size="10.00">&lt; Impl, U * &gt;</text>
</a>
</g>
</g>
<!-- Node1&#45;&gt;Node3 -->
<g id="edge2_Node000001_Node000003" class="edge">
<title>Node1&#45;&gt;Node3</title>
<g id="a_edge2_Node000001_Node000003"><a xlink:title=" ">
<path fill="none" stroke="#63b8ff" d="M189.36,-107.59C197.27,-110.24 205.33,-112.86 213,-115.25 247.7,-126.04 256.12,-130.09 291.75,-137.25 355.09,-149.98 371.74,-148.54 436,-155.25 462.15,-157.98 491.06,-160.51 515.95,-162.53"/>
<polygon fill="#63b8ff" stroke="#63b8ff" points="190.75,-104.36 180.15,-104.47 188.5,-110.99 190.75,-104.36"/>
</a>
</g>
</g>
<!-- Node5 -->
<g id="Node000005" class="node">
<title>Node5</title>
<g id="a_Node000005"><a xlink:href="classyaclib_1_1detail_1_1AtomicBase.html" target="_top" xlink:title=" ">
<polygon fill="white" stroke="#666666" points="418,-128.5 291.75,-128.5 291.75,-98 418,-98 418,-128.5"/>
<text text-anchor="start" x="299.75" y="-115" font-family="Helvetica,sans-Serif" font-size="10.00">yaclib::detail::AtomicBase</text>
<text text-anchor="middle" x="354.88" y="-103.75" font-family="Helvetica,sans-Serif" font-size="10.00">&lt; Impl, T &gt;</text>
</a>
</g>
</g>
<!-- Node1&#45;&gt;Node5 -->
<g id="edge4_Node000001_Node000005" class="edge">
<title>Node1&#45;&gt;Node5</title>
<g id="a_edge4_Node000001_Node000005"><a xlink:title=" ">
<path fill="none" stroke="#63b8ff" d="M206.35,-96.45C233.81,-99.58 264.87,-103.11 291.38,-106.13"/>
<polygon fill="#63b8ff" stroke="#63b8ff" points="207.06,-93.01 196.73,-95.35 206.27,-99.96 207.06,-93.01"/>
</a>
</g>
</g>
<!-- Node11 -->
<g id="Node000011" class="node">
<title>Node11</title>
<g id="a_Node000011"><a xlink:href="classyaclib_1_1detail_1_1AtomicWait.html" target="_top" xlink:title=" ">
<polygon fill="white" stroke="#666666" points="416.5,-79.5 293.25,-79.5 293.25,-49 416.5,-49 416.5,-79.5"/>
<text text-anchor="start" x="301.25" y="-66" font-family="Helvetica,sans-Serif" font-size="10.00">yaclib::detail::AtomicWait</text>
<text text-anchor="middle" x="354.88" y="-54.75" font-family="Helvetica,sans-Serif" font-size="10.00">&lt; Impl, U * &gt;</text>
</a>
</g>
</g>
<!-- Node1&#45;&gt;Node11 -->
<g id="edge11_Node000001_Node000011" class="edge">
<title>Node1&#45;&gt;Node11</title>
<g id="a_edge11_Node000001_Node000011"><a xlink:title=" ">
<path fill="none" stroke="orange" stroke-dasharray="5,2" d="M206.44,-77.79C208.65,-77.52 210.84,-77.25 213,-77 239.1,-73.95 267.99,-71.23 292.78,-69.08"/>
<polygon fill="orange" stroke="orange" points="206.26,-74.28 196.79,-79.02 207.15,-81.23 206.26,-74.28"/>
</a>
</g>
<text text-anchor="middle" x="243.38" y="-79" font-family="Helvetica,sans-Serif" font-size="10.00" fill="grey"> &lt; Impl, U * &gt;</text>
</g>
<!-- Node12 -->
<g id="Node000012" class="node">
<title>Node12</title>
<g id="a_Node000012"><a xlink:href="classyaclib_1_1detail_1_1AtomicWait.html" target="_top" xlink:title=" ">
<polygon fill="white" stroke="#666666" points="416.5,-30.5 293.25,-30.5 293.25,0 416.5,0 416.5,-30.5"/>
<text text-anchor="start" x="301.25" y="-17" font-family="Helvetica,sans-Serif" font-size="10.00">yaclib::detail::AtomicWait</text>
<text text-anchor="middle" x="354.88" y="-5.75" font-family="Helvetica,sans-Serif" font-size="10.00">&lt; Impl, bool &gt;</text>
</a>
</g>
</g>
<!-- Node1&#45;&gt;Node12 -->
<g id="edge12_Node000001_Node000012" class="edge">
<title>Node1&#45;&gt;Node12</title>
<g id="a_edge12_Node000001_Node000012"><a xlink:title=" ">
<path fill="none" stroke="orange" stroke-dasharray="5,2" d="M180.41,-68.4C191.03,-64.09 202.34,-59.72 213,-56 239.33,-46.82 268.9,-38.04 294.14,-31"/>
<polygon fill="orange" stroke="orange" points="179.39,-65.04 171.47,-72.08 182.05,-71.51 179.39,-65.04"/>
</a>
</g>
<text text-anchor="middle" x="243.38" y="-58" font-family="Helvetica,sans-Serif" font-size="10.00" fill="grey"> &lt; Impl, bool &gt;</text>
</g>
<!-- Node2 -->
<g id="Node000002" class="node">
<title>Node2</title>
<g id="a_Node000002"><a xlink:title=" ">
<polygon fill="white" stroke="#666666" points="34.75,-97.88 0,-97.88 0,-78.62 34.75,-78.62 34.75,-97.88"/>
<text text-anchor="middle" x="17.38" y="-84.38" font-family="Helvetica,sans-Serif" font-size="10.00">Impl</text>
</a>
</g>
</g>
<!-- Node2&#45;&gt;Node1 -->
<g id="edge1_Node000001_Node000002" class="edge">
<title>Node2&#45;&gt;Node1</title>
<g id="a_edge1_Node000001_Node000002"><a xlink:title=" ">
<path fill="none" stroke="darkgreen" d="M46.58,-88.25C54.16,-88.25 62.66,-88.25 71.28,-88.25"/>
<polygon fill="darkgreen" stroke="darkgreen" points="46.71,-84.75 36.71,-88.25 46.71,-91.75 46.71,-84.75"/>
</a>
</g>
</g>
<!-- Node4 -->
<g id="Node000004" class="node">
<title>Node4</title>
<g id="a_Node000004"><a xlink:href="classyaclib_1_1detail_1_1Atomic_3_01Impl_00_01U_01_5_01_4.html" target="_top" xlink:title=" ">
<polygon fill="white" stroke="#666666" points="805.38,-182.5 701.62,-182.5 701.62,-152 805.38,-152 805.38,-182.5"/>
<text text-anchor="start" x="709.62" y="-169" font-family="Helvetica,sans-Serif" font-size="10.00">yaclib::detail::Atomic</text>
<text text-anchor="middle" x="753.5" y="-157.75" font-family="Helvetica,sans-Serif" font-size="10.00">&lt; Impl, U * &gt;</text>
</a>
</g>
</g>
<!-- Node3&#45;&gt;Node4 -->
<g id="edge3_Node000003_Node000004" class="edge">
<title>Node3&#45;&gt;Node4</title>
<g id="a_edge3_Node000003_Node000004"><a xlink:title=" ">
<path fill="none" stroke="#63b8ff" d="M653.97,-167.25C669.88,-167.25 686.37,-167.25 701.21,-167.25"/>
<polygon fill="#63b8ff" stroke="#63b8ff" points="654.03,-163.75 644.03,-167.25 654.03,-170.75 654.03,-163.75"/>
</a>
</g>
</g>
<!-- Node5&#45;&gt;Node3 -->
<g id="edge10_Node000005_Node000003" class="edge">
<title>Node5&#45;&gt;Node3</title>
<g id="a_edge10_Node000005_Node000003"><a xlink:title=" ">
<path fill="none" stroke="orange" stroke-dasharray="5,2" d="M429.57,-129.27C449.92,-133.86 471.97,-138.98 492.25,-144 501.72,-146.35 511.75,-148.94 521.48,-151.53"/>
<polygon fill="orange" stroke="orange" points="430.46,-125.89 419.94,-127.12 428.93,-132.72 430.46,-125.89"/>
</a>
</g>
<text text-anchor="middle" x="464.12" y="-145" font-family="Helvetica,sans-Serif" font-size="10.00" fill="grey"> &lt; Impl, U * &gt;</text>
</g>
<!-- Node6 -->
<g id="Node000006" class="node">
<title>Node6</title>
<g id="a_Node000006"><a xlink:href="classyaclib_1_1detail_1_1AtomicFloatingBase.html" target="_top" xlink:title=" ">
<polygon fill="white" stroke="#666666" points="648.5,-133.5 510.25,-133.5 510.25,-103 648.5,-103 648.5,-133.5"/>
<text text-anchor="start" x="518.25" y="-120" font-family="Helvetica,sans-Serif" font-size="10.00">yaclib::detail::AtomicFloating</text>
<text text-anchor="middle" x="579.38" y="-108.75" font-family="Helvetica,sans-Serif" font-size="10.00">Base&lt; Impl, T, IsFloating &gt;</text>
</a>
</g>
</g>
<!-- Node5&#45;&gt;Node6 -->
<g id="edge5_Node000005_Node000006" class="edge">
<title>Node5&#45;&gt;Node6</title>
<g id="a_edge5_Node000005_Node000006"><a xlink:title=" ">
<path fill="none" stroke="#63b8ff" d="M429.72,-114.91C455.63,-115.49 484.6,-116.14 510.04,-116.71"/>
<polygon fill="#63b8ff" stroke="#63b8ff" points="430.04,-111.42 419.96,-114.69 429.88,-118.41 430.04,-111.42"/>
</a>
</g>
</g>
<!-- Node9 -->
<g id="Node000009" class="node">
<title>Node9</title>
<g id="a_Node000009"><a xlink:href="classyaclib_1_1detail_1_1AtomicFloatingBase_3_01Impl_00_01T_00_01true_01_4.html" target="_top" xlink:title=" ">
<polygon fill="white" stroke="#666666" points="648.5,-84.5 510.25,-84.5 510.25,-54 648.5,-54 648.5,-84.5"/>
<text text-anchor="start" x="518.25" y="-71" font-family="Helvetica,sans-Serif" font-size="10.00">yaclib::detail::AtomicFloating</text>
<text text-anchor="middle" x="579.38" y="-59.75" font-family="Helvetica,sans-Serif" font-size="10.00">Base&lt; Impl, T, true &gt;</text>
</a>
</g>
</g>
<!-- Node5&#45;&gt;Node9 -->
<g id="edge8_Node000005_Node000009" class="edge">
<title>Node5&#45;&gt;Node9</title>
<g id="a_edge8_Node000005_Node000009"><a xlink:title=" ">
<path fill="none" stroke="#63b8ff" d="M429.72,-98.65C455.63,-93.52 484.6,-87.79 510.04,-82.76"/>
<polygon fill="#63b8ff" stroke="#63b8ff" points="429.06,-95.21 419.93,-100.58 430.42,-102.08 429.06,-95.21"/>
</a>
</g>
</g>
<!-- Node7 -->
<g id="Node000007" class="node">
<title>Node7</title>
<g id="a_Node000007"><a xlink:href="classyaclib_1_1detail_1_1AtomicIntegralBase.html" target="_top" xlink:title=" ">
<polygon fill="white" stroke="#666666" points="821.5,-133.5 685.5,-133.5 685.5,-103 821.5,-103 821.5,-133.5"/>
<text text-anchor="start" x="693.5" y="-120" font-family="Helvetica,sans-Serif" font-size="10.00">yaclib::detail::AtomicIntegral</text>
<text text-anchor="middle" x="753.5" y="-108.75" font-family="Helvetica,sans-Serif" font-size="10.00">Base&lt; Impl, T, IsIntegral &gt;</text>
</a>
</g>
</g>
<!-- Node6&#45;&gt;Node7 -->
<g id="edge6_Node000006_Node000007" class="edge">
<title>Node6&#45;&gt;Node7</title>
<g id="a_edge6_Node000006_Node000007"><a xlink:title=" ">
<path fill="none" stroke="#63b8ff" d="M660.17,-118.25C668.49,-118.25 676.89,-118.25 685.06,-118.25"/>
<polygon fill="#63b8ff" stroke="#63b8ff" points="660.41,-114.75 650.41,-118.25 660.41,-121.75 660.41,-114.75"/>
</a>
</g>
</g>
<!-- Node8 -->
<g id="Node000008" class="node">
<title>Node8</title>
<g id="a_Node000008"><a xlink:href="classyaclib_1_1detail_1_1Atomic.html" target="_top" xlink:title=" ">
<polygon fill="white" stroke="#666666" points="962.25,-133.5 858.5,-133.5 858.5,-103 962.25,-103 962.25,-133.5"/>
<text text-anchor="start" x="866.5" y="-120" font-family="Helvetica,sans-Serif" font-size="10.00">yaclib::detail::Atomic</text>
<text text-anchor="middle" x="910.38" y="-108.75" font-family="Helvetica,sans-Serif" font-size="10.00">&lt; Impl, T &gt;</text>
</a>
</g>
</g>
<!-- Node7&#45;&gt;Node8 -->
<g id="edge7_Node000007_Node000008" class="edge">
<title>Node7&#45;&gt;Node8</title>
<g id="a_edge7_Node000007_Node000008"><a xlink:title=" ">
<path fill="none" stroke="#63b8ff" d="M833.21,-118.25C841.78,-118.25 850.32,-118.25 858.43,-118.25"/>
<polygon fill="#63b8ff" stroke="#63b8ff" points="833.49,-114.75 823.49,-118.25 833.49,-121.75 833.49,-114.75"/>
</a>
</g>
</g>
<!-- Node10 -->
<g id="Node000010" class="node">
<title>Node10</title>
<g id="a_Node000010"><a xlink:href="classyaclib_1_1detail_1_1AtomicIntegralBase_3_01Impl_00_01T_00_01true_01_4.html" target="_top" xlink:title=" ">
<polygon fill="white" stroke="#666666" points="821.5,-84.5 685.5,-84.5 685.5,-54 821.5,-54 821.5,-84.5"/>
<text text-anchor="start" x="693.5" y="-71" font-family="Helvetica,sans-Serif" font-size="10.00">yaclib::detail::AtomicIntegral</text>
<text text-anchor="middle" x="753.5" y="-59.75" font-family="Helvetica,sans-Serif" font-size="10.00">Base&lt; Impl, T, true &gt;</text>
</a>
</g>
</g>
<!-- Node9&#45;&gt;Node10 -->
<g id="edge9_Node000009_Node000010" class="edge">
<title>Node9&#45;&gt;Node10</title>
<g id="a_edge9_Node000009_Node000010"><a xlink:title=" ">
<path fill="none" stroke="#63b8ff" d="M660.17,-69.25C668.49,-69.25 676.89,-69.25 685.06,-69.25"/>
<polygon fill="#63b8ff" stroke="#63b8ff" points="660.41,-65.75 650.41,-69.25 660.41,-72.75 660.41,-65.75"/>
</a>
</g>
</g>
<!-- Node13 -->
<g id="Node000013" class="node">
<title>Node13</title>
<g id="a_Node000013"><a xlink:href="classyaclib_1_1detail_1_1AtomicFlag.html" target="_top" xlink:title=" ">
<polygon fill="white" stroke="#666666" points="640.62,-30.5 518.12,-30.5 518.12,0 640.62,0 640.62,-30.5"/>
<text text-anchor="start" x="526.12" y="-17" font-family="Helvetica,sans-Serif" font-size="10.00">yaclib::detail::AtomicFlag</text>
<text text-anchor="middle" x="579.38" y="-5.75" font-family="Helvetica,sans-Serif" font-size="10.00">&lt; Impl &gt;</text>
</a>
</g>
</g>
<!-- Node12&#45;&gt;Node13 -->
<g id="edge13_Node000012_Node000013" class="edge">
<title>Node12&#45;&gt;Node13</title>
<g id="a_edge13_Node000012_Node000013"><a xlink:title=" ">
<path fill="none" stroke="#63b8ff" d="M428.26,-15.25C457.2,-15.25 490.16,-15.25 517.8,-15.25"/>
<polygon fill="#63b8ff" stroke="#63b8ff" points="428.48,-11.75 418.48,-15.25 428.48,-18.75 428.48,-11.75"/>
</a>
</g>
</g>
</g>
</svg>

<g id="navigator" transform="translate(0 0)" fill="#404254">
  <rect fill="#f2f5e9" fill-opacity="0.5" stroke="#606060" stroke-width=".5" x="0" y="0" width="60" height="60"/>
  <use id="zoomplus" xlink:href="#zoomPlus" x="17" y="9" onmousedown="handleZoom(evt,'in')"/>
  <use id="zoomminus" xlink:href="#zoomMin" x="42" y="9" onmousedown="handleZoom(evt,'out')"/>
  <use id="reset" xlink:href="#resetDef" x="30" y="36" onmousedown="handleReset()"/>
   <use id="arrowup" xlink:href="#arrowUp" x="0" y="0" onmousedown="handlePan(0,-1)"/>
  <use id="arrowright" xlink:href="#arrowRight" x="0" y="0" onmousedown="handlePan(1,0)"/>
  <use id="arrowdown" xlink:href="#arrowDown" x="0" y="0" onmousedown="handlePan(0,1)"/>
  <use id="arrowleft" xlink:href="#arrowLeft" x="0" y="0" onmousedown="handlePan(-1,0)"/>
</g>
<svg viewBox="0 0 15 15" width="100%" height="30px" preserveAspectRatio="xMaxYMin meet">
 <g id="arrow_out" transform="scale(0.3 0.3)">
  <a xlink:href="classyaclib_1_1detail_1_1AtomicWait__inherit__graph_org.svg" target="_base">
   <rect id="button" ry="5" rx="5" y="6" x="6" height="38" width="38"
        fill="#f2f5e9" fill-opacity="0.5" stroke="#606060" stroke-width="1.0"/>
   <path id="arrow"
     d="M 11.500037,31.436501 C 11.940474,20.09759 22.043105,11.32322 32.158766,21.979434 L 37.068811,17.246167 C 37.068811,17.246167 37.088388,32 37.088388,32 L 22.160133,31.978069 C 22.160133,31.978069 26.997745,27.140456 26.997745,27.140456 C 18.528582,18.264221 13.291696,25.230495 11.500037,31.436501 z"
     style="fill:#404040;"/>
  </a>
 </g>
</svg>

<style type='text/css'>
<![CDATA[
[data-mouse-over-selected='false'] { opacity: 0.7; }
[data-mouse-over-selected='true']  { opacity: 1.0; }
]]>
</style>
<script type="application/ecmascript"><![CDATA[
document.addEventListener('DOMContentLoaded', (event) => {
  highlightEdges();
  highlightAdjacentNodes();
});
]]></script>
</svg>
