<?xml version="1.0" encoding="UTF-8" standalone="no"?>
<!DOCTYPE svg PUBLIC "-//W3C//DTD SVG 1.1//EN"
 "http://www.w3.org/Graphics/SVG/1.1/DTD/svg11.dtd">
<!-- Generated by graphviz version 3.0.0 (20221109.1736)
 -->
<!-- Title: yaclib::detail::AwaitEvent Pages: 1 -->
<svg width="839pt" height="141pt"
 viewBox="0.00 0.00 839.00 140.50" xmlns="http://www.w3.org/2000/svg" xmlns:xlink="http://www.w3.org/1999/xlink">
<g id="graph0" class="graph" transform="scale(1 1) rotate(0) translate(4 136.5)">
<title>yaclib::detail::AwaitEvent</title>
<!-- Node1 -->
<g id="node1" class="node">
<title>Node1</title>
<g id="a_node1"><a xlink:title=" ">
<polygon fill="#bfbfbf" stroke="black" points="708,-68 708,-87 831,-87 831,-68 708,-68"/>
<text text-anchor="middle" x="769.5" y="-75" font-family="Helvetica,sans-Serif" font-size="10.00">yaclib::detail::AwaitEvent</text>
</a>
</g>
</g>
<!-- Node2 -->
<g id="node2" class="node">
<title>Node2</title>
<g id="a_node2"><a xlink:href="classyaclib_1_1detail_1_1InlineCore.html" target="_top" xlink:title=" ">
<polygon fill="none" stroke="black" points="543.5,-91 543.5,-110 660.5,-110 660.5,-91 543.5,-91"/>
<text text-anchor="middle" x="602" y="-98" font-family="Helvetica,sans-Serif" font-size="10.00">yaclib::detail::InlineCore</text>
</a>
</g>
</g>
<!-- Node2&#45;&gt;Node1 -->
<g id="edge1" class="edge">
<title>Node2&#45;&gt;Node1</title>
<path fill="none" stroke="midnightblue" d="M671.01,-91.05C683.21,-89.35 695.86,-87.6 707.84,-85.93"/>
<polygon fill="midnightblue" stroke="midnightblue" points="670.31,-87.61 660.88,-92.46 671.27,-94.55 670.31,-87.61"/>
</g>
<!-- Node3 -->
<g id="node3" class="node">
<title>Node3</title>
<g id="a_node3"><a xlink:href="classyaclib_1_1Job.html" target="_top" xlink:title="Callable that can be executed in an IExecutor.">
<polygon fill="none" stroke="black" points="273,-91 273,-110 335,-110 335,-91 273,-91"/>
<text text-anchor="middle" x="304" y="-98" font-family="Helvetica,sans-Serif" font-size="10.00">yaclib::Job</text>
</a>
</g>
</g>
<!-- Node3&#45;&gt;Node2 -->
<g id="edge2" class="edge">
<title>Node3&#45;&gt;Node2</title>
<path fill="none" stroke="midnightblue" d="M345.01,-100.5C396.11,-100.5 484.89,-100.5 543.3,-100.5"/>
<polygon fill="midnightblue" stroke="midnightblue" points="345.01,-97 335.01,-100.5 345.01,-104 345.01,-97"/>
</g>
<!-- Node4 -->
<g id="node4" class="node">
<title>Node4</title>
<g id="a_node4"><a xlink:href="classyaclib_1_1IFunc.html" target="_top" xlink:title="Callable interface.">
<polygon fill="none" stroke="black" points="114,-113 114,-132 185,-132 185,-113 114,-113"/>
<text text-anchor="middle" x="149.5" y="-120" font-family="Helvetica,sans-Serif" font-size="10.00">yaclib::IFunc</text>
</a>
</g>
</g>
<!-- Node4&#45;&gt;Node3 -->
<g id="edge3" class="edge">
<title>Node4&#45;&gt;Node3</title>
<path fill="none" stroke="midnightblue" d="M195.1,-116.07C220.14,-112.45 250.71,-108.04 272.91,-104.84"/>
<polygon fill="midnightblue" stroke="midnightblue" points="194.5,-112.62 185.1,-117.51 195.5,-119.54 194.5,-112.62"/>
</g>
<!-- Node5 -->
<g id="node5" class="node">
<title>Node5</title>
<g id="a_node5"><a xlink:href="classyaclib_1_1IRef.html" target="_top" xlink:title="Reference counting interface.">
<polygon fill="none" stroke="black" points="0,-113 0,-132 64,-132 64,-113 0,-113"/>
<text text-anchor="middle" x="32" y="-120" font-family="Helvetica,sans-Serif" font-size="10.00">yaclib::IRef</text>
</a>
</g>
</g>
<!-- Node5&#45;&gt;Node4 -->
<g id="edge4" class="edge">
<title>Node5&#45;&gt;Node4</title>
<path fill="none" stroke="midnightblue" d="M74.35,-122.5C87.33,-122.5 101.51,-122.5 113.97,-122.5"/>
<polygon fill="midnightblue" stroke="midnightblue" points="74.26,-119 64.26,-122.5 74.26,-126 74.26,-119"/>
</g>
<!-- Node6 -->
<g id="node6" class="node">
<title>Node6</title>
<g id="a_node6"><a xlink:href="structyaclib_1_1detail_1_1Node.html" target="_top" xlink:title="Node class, used in intrusive data structure.">
<polygon fill="none" stroke="black" points="101,-75 101,-94 198,-94 198,-75 101,-75"/>
<text text-anchor="middle" x="149.5" y="-82" font-family="Helvetica,sans-Serif" font-size="10.00">yaclib::detail::Node</text>
</a>
</g>
</g>
<!-- Node6&#45;&gt;Node3 -->
<g id="edge5" class="edge">
<title>Node6&#45;&gt;Node3</title>
<path fill="none" stroke="midnightblue" d="M208.51,-90.59C230.34,-92.88 254.29,-95.39 272.61,-97.31"/>
<polygon fill="midnightblue" stroke="midnightblue" points="208.64,-87.08 198.33,-89.52 207.91,-94.04 208.64,-87.08"/>
</g>
<!-- Node7 -->
<g id="node7" class="node">
<title>Node7</title>
<g id="a_node7"><a xlink:href="structyaclib_1_1detail_1_1AtomicCounter.html" target="_top" xlink:title=" ">
<polygon fill="none" stroke="black" points="533,-41.5 533,-71.5 671,-71.5 671,-41.5 533,-41.5"/>
<text text-anchor="start" x="541" y="-59.5" font-family="Helvetica,sans-Serif" font-size="10.00">yaclib::detail::AtomicCounter</text>
<text text-anchor="middle" x="602" y="-48.5" font-family="Helvetica,sans-Serif" font-size="10.00">&lt; NopeBase, NopeDeleter &gt;</text>
</a>
</g>
</g>
<!-- Node7&#45;&gt;Node1 -->
<g id="edge6" class="edge">
<title>Node7&#45;&gt;Node1</title>
<path fill="none" stroke="midnightblue" d="M681.28,-66.43C690.19,-67.56 699.17,-68.7 707.8,-69.8"/>
<polygon fill="midnightblue" stroke="midnightblue" points="681.63,-62.95 671.27,-65.16 680.75,-69.89 681.63,-62.95"/>
</g>
<!-- Node8 -->
<g id="node8" class="node">
<title>Node8</title>
<g id="a_node8"><a xlink:href="structyaclib_1_1detail_1_1NopeBase.html" target="_top" xlink:title=" ">
<polygon fill="none" stroke="black" points="244.5,-50 244.5,-69 363.5,-69 363.5,-50 244.5,-50"/>
<text text-anchor="middle" x="304" y="-57" font-family="Helvetica,sans-Serif" font-size="10.00">yaclib::detail::NopeBase</text>
</a>
</g>
</g>
<!-- Node8&#45;&gt;Node7 -->
<g id="edge7" class="edge">
<title>Node8&#45;&gt;Node7</title>
<path fill="none" stroke="midnightblue" d="M374.1,-58.8C421.95,-58.31 485.33,-57.67 532.95,-57.19"/>
<polygon fill="midnightblue" stroke="midnightblue" points="373.8,-55.3 363.83,-58.9 373.87,-62.3 373.8,-55.3"/>
</g>
<!-- Node9 -->
<g id="node9" class="node">
<title>Node9</title>
<g id="a_node9"><a xlink:href="structyaclib_1_1detail_1_1AtomicCounter.html" target="_top" xlink:title=" ">
<polygon fill="none" stroke="black" points="235,-0.5 235,-30.5 373,-30.5 373,-0.5 235,-0.5"/>
<text text-anchor="start" x="243" y="-18.5" font-family="Helvetica,sans-Serif" font-size="10.00">yaclib::detail::AtomicCounter</text>
<text text-anchor="middle" x="304" y="-7.5" font-family="Helvetica,sans-Serif" font-size="10.00">&lt; CounterBase, Deleter &gt;</text>
</a>
</g>
</g>
<!-- Node9&#45;&gt;Node7 -->
<g id="edge8" class="edge">
<title>Node9&#45;&gt;Node7</title>
<path fill="none" stroke="orange" stroke-dasharray="5,2" d="M383.32,-24.26C422.86,-28.93 471.55,-35.02 515,-41.5 520.85,-42.37 526.91,-43.33 532.98,-44.32"/>
<polygon fill="orange" stroke="orange" points="383.55,-20.77 373.21,-23.08 382.74,-27.72 383.55,-20.77"/>
<text text-anchor="middle" x="453" y="-44.5" font-family="Helvetica,sans-Serif" font-size="10.00"> &lt; NopeBase, NopeDeleter &gt;</text>
</g>
<!-- Node10 -->
<g id="node10" class="node">
<title>Node10</title>
<g id="a_node10"><a xlink:href="classCounterBase.html" target="_top" xlink:title=" ">
<polygon fill="none" stroke="black" points="113,-6 113,-25 186,-25 186,-6 113,-6"/>
<text text-anchor="middle" x="149.5" y="-13" font-family="Helvetica,sans-Serif" font-size="10.00">CounterBase</text>
</a>
</g>
</g>
<!-- Node10&#45;&gt;Node9 -->
<g id="edge9" class="edge">
<title>Node10&#45;&gt;Node9</title>
<path fill="none" stroke="midnightblue" d="M196.51,-15.5C208.59,-15.5 221.87,-15.5 234.83,-15.5"/>
<polygon fill="midnightblue" stroke="midnightblue" points="196.25,-12 186.25,-15.5 196.25,-19 196.25,-12"/>
</g>
</g>
</svg>
