<?xml version="1.0" encoding="UTF-8" standalone="no"?>
<!DOCTYPE svg PUBLIC "-//W3C//DTD SVG 1.1//EN"
 "http://www.w3.org/Graphics/SVG/1.1/DTD/svg11.dtd">
<!-- Generated by graphviz version 3.0.0 (20221109.1736)
 -->
<!-- Title: CounterBase Pages: 1 -->
<svg width="771pt" height="163pt"
 viewBox="0.00 0.00 771.00 162.50" xmlns="http://www.w3.org/2000/svg" xmlns:xlink="http://www.w3.org/1999/xlink">
<g id="graph0" class="graph" transform="scale(1 1) rotate(0) translate(4 158.5)">
<title>CounterBase</title>
<!-- Node1 -->
<g id="node1" class="node">
<title>Node1</title>
<g id="a_node1"><a xlink:title=" ">
<polygon fill="#bfbfbf" stroke="black" points="0,-46.5 0,-65.5 73,-65.5 73,-46.5 0,-46.5"/>
<text text-anchor="middle" x="36.5" y="-53.5" font-family="Helvetica,sans-Serif" font-size="10.00">CounterBase</text>
</a>
</g>
</g>
<!-- Node2 -->
<g id="node2" class="node">
<title>Node2</title>
<g id="a_node2"><a xlink:href="structyaclib_1_1detail_1_1AtomicCounter.html" target="_top" xlink:title=" ">
<polygon fill="none" stroke="black" points="110,-69 110,-99 248,-99 248,-69 110,-69"/>
<text text-anchor="start" x="118" y="-87" font-family="Helvetica,sans-Serif" font-size="10.00">yaclib::detail::AtomicCounter</text>
<text text-anchor="middle" x="179" y="-76" font-family="Helvetica,sans-Serif" font-size="10.00">&lt; CounterBase, Deleter &gt;</text>
</a>
</g>
</g>
<!-- Node1&#45;&gt;Node2 -->
<g id="edge1" class="edge">
<title>Node1&#45;&gt;Node2</title>
<path fill="none" stroke="midnightblue" d="M83.4,-65.15C91.92,-66.84 100.98,-68.65 109.99,-70.45"/>
<polygon fill="midnightblue" stroke="midnightblue" points="83.81,-61.66 73.32,-63.14 82.44,-68.53 83.81,-61.66"/>
</g>
<!-- Node7 -->
<g id="node7" class="node">
<title>Node7</title>
<g id="a_node7"><a xlink:href="structyaclib_1_1detail_1_1OneCounter.html" target="_top" xlink:title=" ">
<polygon fill="none" stroke="black" points="116.5,-17 116.5,-47 241.5,-47 241.5,-17 116.5,-17"/>
<text text-anchor="start" x="124.5" y="-35" font-family="Helvetica,sans-Serif" font-size="10.00">yaclib::detail::OneCounter</text>
<text text-anchor="middle" x="179" y="-24" font-family="Helvetica,sans-Serif" font-size="10.00">&lt; CounterBase, Deleter &gt;</text>
</a>
</g>
</g>
<!-- Node1&#45;&gt;Node7 -->
<g id="edge6" class="edge">
<title>Node1&#45;&gt;Node7</title>
<path fill="none" stroke="midnightblue" d="M83.49,-48.14C93.98,-46.35 105.29,-44.42 116.32,-42.54"/>
<polygon fill="midnightblue" stroke="midnightblue" points="82.59,-44.75 73.32,-49.88 83.76,-51.65 82.59,-44.75"/>
</g>
<!-- Node3 -->
<g id="node3" class="node">
<title>Node3</title>
<g id="a_node3"><a xlink:href="structyaclib_1_1detail_1_1AtomicCounter.html" target="_top" xlink:title=" ">
<polygon fill="none" stroke="black" points="433,-124 433,-154 571,-154 571,-124 433,-124"/>
<text text-anchor="start" x="441" y="-142" font-family="Helvetica,sans-Serif" font-size="10.00">yaclib::detail::AtomicCounter</text>
<text text-anchor="middle" x="502" y="-131" font-family="Helvetica,sans-Serif" font-size="10.00">&lt; NopeBase, NopeDeleter &gt;</text>
</a>
</g>
</g>
<!-- Node2&#45;&gt;Node3 -->
<g id="edge2" class="edge">
<title>Node2&#45;&gt;Node3</title>
<path fill="none" stroke="orange" stroke-dasharray="5,2" d="M257.96,-97.61C260.68,-98.08 263.36,-98.55 266,-99 322.18,-108.68 385.94,-119.52 432.86,-127.48"/>
<polygon fill="orange" stroke="orange" points="258.51,-94.16 248.06,-95.9 257.32,-101.05 258.51,-94.16"/>
<text text-anchor="middle" x="332.5" y="-123" font-family="Helvetica,sans-Serif" font-size="10.00"> &lt; NopeBase, NopeDeleter &gt;</text>
</g>
<!-- Node5 -->
<g id="node5" class="node">
<title>Node5</title>
<g id="a_node5"><a xlink:href="structyaclib_1_1detail_1_1AtomicCounter.html" target="_top" xlink:title=" ">
<polygon fill="none" stroke="black" points="428.5,-69 428.5,-99 575.5,-99 575.5,-69 428.5,-69"/>
<text text-anchor="start" x="436.5" y="-87" font-family="Helvetica,sans-Serif" font-size="10.00">yaclib::detail::AtomicCounter</text>
<text text-anchor="middle" x="502" y="-76" font-family="Helvetica,sans-Serif" font-size="10.00">&lt; OneShotEvent, SetDeleter &gt;</text>
</a>
</g>
</g>
<!-- Node2&#45;&gt;Node5 -->
<g id="edge4" class="edge">
<title>Node2&#45;&gt;Node5</title>
<path fill="none" stroke="orange" stroke-dasharray="5,2" d="M258.23,-84C310.07,-84 377.6,-84 428.28,-84"/>
<polygon fill="orange" stroke="orange" points="258.08,-80.5 248.08,-84 258.08,-87.5 258.08,-80.5"/>
<text text-anchor="middle" x="332.5" y="-87" font-family="Helvetica,sans-Serif" font-size="10.00"> &lt; OneShotEvent, SetDeleter &gt;</text>
</g>
<!-- Node4 -->
<g id="node4" class="node">
<title>Node4</title>
<g id="a_node4"><a xlink:href="classyaclib_1_1detail_1_1AwaitEvent.html" target="_top" xlink:title=" ">
<polygon fill="none" stroke="black" points="632,-134.5 632,-153.5 755,-153.5 755,-134.5 632,-134.5"/>
<text text-anchor="middle" x="693.5" y="-141.5" font-family="Helvetica,sans-Serif" font-size="10.00">yaclib::detail::AwaitEvent</text>
</a>
</g>
</g>
<!-- Node3&#45;&gt;Node4 -->
<g id="edge3" class="edge">
<title>Node3&#45;&gt;Node4</title>
<path fill="none" stroke="midnightblue" d="M581.51,-141.07C598.33,-141.52 615.85,-141.98 631.87,-142.4"/>
<polygon fill="midnightblue" stroke="midnightblue" points="581.23,-137.56 571.15,-140.8 581.05,-144.56 581.23,-137.56"/>
</g>
<!-- Node6 -->
<g id="node6" class="node">
<title>Node6</title>
<g id="a_node6"><a xlink:href="structyaclib_1_1detail_1_1MultiEvent.html" target="_top" xlink:title=" ">
<polygon fill="none" stroke="black" points="624,-52.5 624,-115.5 763,-115.5 763,-52.5 624,-52.5"/>
<text text-anchor="start" x="632" y="-103.5" font-family="Helvetica,sans-Serif" font-size="10.00">yaclib::detail::MultiEvent</text>
<text text-anchor="start" x="632" y="-92.5" font-family="Helvetica,sans-Serif" font-size="10.00">&lt; OneShotEvent, yaclib::</text>
<text text-anchor="start" x="632" y="-81.5" font-family="Helvetica,sans-Serif" font-size="10.00">detail::AtomicCounter, yaclib</text>
<text text-anchor="start" x="632" y="-70.5" font-family="Helvetica,sans-Serif" font-size="10.00">::detail::CallCallback, yaclib</text>
<text text-anchor="middle" x="693.5" y="-59.5" font-family="Helvetica,sans-Serif" font-size="10.00">::detail::DropCallback &gt;</text>
</a>
</g>
</g>
<!-- Node5&#45;&gt;Node6 -->
<g id="edge5" class="edge">
<title>Node5&#45;&gt;Node6</title>
<path fill="none" stroke="midnightblue" d="M585.79,-84C598.45,-84 611.4,-84 623.71,-84"/>
<polygon fill="midnightblue" stroke="midnightblue" points="585.72,-80.5 575.72,-84 585.72,-87.5 585.72,-80.5"/>
</g>
<!-- Node8 -->
<g id="node8" class="node">
<title>Node8</title>
<g id="a_node8"><a xlink:href="structyaclib_1_1detail_1_1OneCounter.html" target="_top" xlink:title=" ">
<polygon fill="none" stroke="black" points="417,-0.5 417,-41.5 587,-41.5 587,-0.5 417,-0.5"/>
<text text-anchor="start" x="425" y="-29.5" font-family="Helvetica,sans-Serif" font-size="10.00">yaclib::detail::OneCounter</text>
<text text-anchor="start" x="425" y="-18.5" font-family="Helvetica,sans-Serif" font-size="10.00">&lt; ResultCore&lt; V, E &gt;, PromiseType</text>
<text text-anchor="middle" x="502" y="-7.5" font-family="Helvetica,sans-Serif" font-size="10.00">Deleter&lt; Lazy &gt; &gt;</text>
</a>
</g>
</g>
<!-- Node7&#45;&gt;Node8 -->
<g id="edge7" class="edge">
<title>Node7&#45;&gt;Node8</title>
<path fill="none" stroke="orange" stroke-dasharray="5,2" d="M251.7,-29.54C300.61,-27.87 365.6,-25.64 416.95,-23.88"/>
<polygon fill="orange" stroke="orange" points="251.39,-26.05 241.51,-29.89 251.63,-33.05 251.39,-26.05"/>
<text text-anchor="start" x="281.5" y="-55" font-family="Helvetica,sans-Serif" font-size="10.00"> &lt; ResultCore&lt; V, E</text>
<text text-anchor="start" x="281.5" y="-44" font-family="Helvetica,sans-Serif" font-size="10.00"> &gt;, PromiseTypeDeleter</text>
<text text-anchor="middle" x="332.5" y="-33" font-family="Helvetica,sans-Serif" font-size="10.00">&lt; Lazy &gt; &gt;</text>
</g>
<!-- Node9 -->
<g id="node9" class="node">
<title>Node9</title>
<g id="a_node9"><a xlink:href="classyaclib_1_1detail_1_1PromiseType.html" target="_top" xlink:title=" ">
<polygon fill="none" stroke="black" points="628,-3 628,-33 759,-33 759,-3 628,-3"/>
<text text-anchor="start" x="636" y="-21" font-family="Helvetica,sans-Serif" font-size="10.00">yaclib::detail::PromiseType</text>
<text text-anchor="middle" x="693.5" y="-10" font-family="Helvetica,sans-Serif" font-size="10.00">&lt; V, E, Lazy &gt;</text>
</a>
</g>
</g>
<!-- Node8&#45;&gt;Node9 -->
<g id="edge8" class="edge">
<title>Node8&#45;&gt;Node9</title>
<path fill="none" stroke="midnightblue" d="M597.49,-19.5C607.78,-19.34 618.07,-19.18 627.88,-19.02"/>
<polygon fill="midnightblue" stroke="midnightblue" points="597.16,-16.01 587.22,-19.67 597.28,-23.01 597.16,-16.01"/>
</g>
</g>
</svg>
