<?xml version="1.0" encoding="UTF-8" standalone="no"?>
<!DOCTYPE svg PUBLIC "-//W3C//DTD SVG 1.1//EN"
 "http://www.w3.org/Graphics/SVG/1.1/DTD/svg11.dtd">
<!-- Generated by graphviz version 3.0.0 (20221109.1736)
 -->
<!-- Title: yaclib::detail::ReadyCore&lt; V, E &gt; Pages: 1 -->
<svg width="194pt" height="386pt"
 viewBox="0.00 0.00 194.00 386.00" xmlns="http://www.w3.org/2000/svg" xmlns:xlink="http://www.w3.org/1999/xlink">
<g id="graph0" class="graph" transform="scale(1 1) rotate(0) translate(4 382)">
<title>yaclib::detail::ReadyCore&lt; V, E &gt;</title>
<!-- Node1 -->
<g id="node1" class="node">
<title>Node1</title>
<g id="a_node1"><a xlink:title=" ">
<polygon fill="#bfbfbf" stroke="black" points="26,-0.5 26,-30.5 147,-30.5 147,-0.5 26,-0.5"/>
<text text-anchor="start" x="34" y="-18.5" font-family="Helvetica,sans-Serif" font-size="10.00">yaclib::detail::ReadyCore</text>
<text text-anchor="middle" x="86.5" y="-7.5" font-family="Helvetica,sans-Serif" font-size="10.00">&lt; V, E &gt;</text>
</a>
</g>
</g>
<!-- Node2 -->
<g id="node2" class="node">
<title>Node2</title>
<g id="a_node2"><a xlink:href="classyaclib_1_1detail_1_1ResultCore.html" target="_top" xlink:title=" ">
<polygon fill="none" stroke="black" points="25.5,-67.5 25.5,-97.5 147.5,-97.5 147.5,-67.5 25.5,-67.5"/>
<text text-anchor="start" x="33.5" y="-85.5" font-family="Helvetica,sans-Serif" font-size="10.00">yaclib::detail::ResultCore</text>
<text text-anchor="middle" x="86.5" y="-74.5" font-family="Helvetica,sans-Serif" font-size="10.00">&lt; V, E &gt;</text>
</a>
</g>
</g>
<!-- Node2&#45;&gt;Node1 -->
<g id="edge1" class="edge">
<title>Node2&#45;&gt;Node1</title>
<path fill="none" stroke="midnightblue" d="M86.5,-57.11C86.5,-48.15 86.5,-38.32 86.5,-30.58"/>
<polygon fill="midnightblue" stroke="midnightblue" points="83,-57.4 86.5,-67.4 90,-57.4 83,-57.4"/>
</g>
<!-- Node3 -->
<g id="node3" class="node">
<title>Node3</title>
<g id="a_node3"><a xlink:href="classyaclib_1_1detail_1_1BaseCore.html" target="_top" xlink:title=" ">
<polygon fill="none" stroke="black" points="28.5,-134.5 28.5,-153.5 144.5,-153.5 144.5,-134.5 28.5,-134.5"/>
<text text-anchor="middle" x="86.5" y="-141.5" font-family="Helvetica,sans-Serif" font-size="10.00">yaclib::detail::BaseCore</text>
</a>
</g>
</g>
<!-- Node3&#45;&gt;Node2 -->
<g id="edge2" class="edge">
<title>Node3&#45;&gt;Node2</title>
<path fill="none" stroke="midnightblue" d="M86.5,-124.23C86.5,-115.59 86.5,-105.5 86.5,-97.52"/>
<polygon fill="midnightblue" stroke="midnightblue" points="83,-124.48 86.5,-134.48 90,-124.48 83,-124.48"/>
</g>
<!-- Node4 -->
<g id="node4" class="node">
<title>Node4</title>
<g id="a_node4"><a xlink:href="classyaclib_1_1detail_1_1InlineCore.html" target="_top" xlink:title=" ">
<polygon fill="none" stroke="black" points="28,-190.5 28,-209.5 145,-209.5 145,-190.5 28,-190.5"/>
<text text-anchor="middle" x="86.5" y="-197.5" font-family="Helvetica,sans-Serif" font-size="10.00">yaclib::detail::InlineCore</text>
</a>
</g>
</g>
<!-- Node4&#45;&gt;Node3 -->
<g id="edge3" class="edge">
<title>Node4&#45;&gt;Node3</title>
<path fill="none" stroke="midnightblue" d="M86.5,-179.8C86.5,-170.91 86.5,-160.78 86.5,-153.75"/>
<polygon fill="midnightblue" stroke="midnightblue" points="83,-180.08 86.5,-190.08 90,-180.08 83,-180.08"/>
</g>
<!-- Node5 -->
<g id="node5" class="node">
<title>Node5</title>
<g id="a_node5"><a xlink:href="classyaclib_1_1Job.html" target="_top" xlink:title="Callable that can be executed in an IExecutor.">
<polygon fill="none" stroke="black" points="55.5,-246.5 55.5,-265.5 117.5,-265.5 117.5,-246.5 55.5,-246.5"/>
<text text-anchor="middle" x="86.5" y="-253.5" font-family="Helvetica,sans-Serif" font-size="10.00">yaclib::Job</text>
</a>
</g>
</g>
<!-- Node5&#45;&gt;Node4 -->
<g id="edge4" class="edge">
<title>Node5&#45;&gt;Node4</title>
<path fill="none" stroke="midnightblue" d="M86.5,-235.8C86.5,-226.91 86.5,-216.78 86.5,-209.75"/>
<polygon fill="midnightblue" stroke="midnightblue" points="83,-236.08 86.5,-246.08 90,-236.08 83,-236.08"/>
</g>
<!-- Node6 -->
<g id="node6" class="node">
<title>Node6</title>
<g id="a_node6"><a xlink:href="classyaclib_1_1IFunc.html" target="_top" xlink:title="Callable interface.">
<polygon fill="none" stroke="black" points="0,-302.5 0,-321.5 71,-321.5 71,-302.5 0,-302.5"/>
<text text-anchor="middle" x="35.5" y="-309.5" font-family="Helvetica,sans-Serif" font-size="10.00">yaclib::IFunc</text>
</a>
</g>
</g>
<!-- Node6&#45;&gt;Node5 -->
<g id="edge5" class="edge">
<title>Node6&#45;&gt;Node5</title>
<path fill="none" stroke="midnightblue" d="M50.88,-294.72C59.87,-285.2 70.86,-273.56 78.24,-265.75"/>
<polygon fill="midnightblue" stroke="midnightblue" points="48.24,-292.41 43.92,-302.08 53.33,-297.22 48.24,-292.41"/>
</g>
<!-- Node7 -->
<g id="node7" class="node">
<title>Node7</title>
<g id="a_node7"><a xlink:href="classyaclib_1_1IRef.html" target="_top" xlink:title="Reference counting interface.">
<polygon fill="none" stroke="black" points="3.5,-358.5 3.5,-377.5 67.5,-377.5 67.5,-358.5 3.5,-358.5"/>
<text text-anchor="middle" x="35.5" y="-365.5" font-family="Helvetica,sans-Serif" font-size="10.00">yaclib::IRef</text>
</a>
</g>
</g>
<!-- Node7&#45;&gt;Node6 -->
<g id="edge6" class="edge">
<title>Node7&#45;&gt;Node6</title>
<path fill="none" stroke="midnightblue" d="M35.5,-347.8C35.5,-338.91 35.5,-328.78 35.5,-321.75"/>
<polygon fill="midnightblue" stroke="midnightblue" points="32,-348.08 35.5,-358.08 39,-348.08 32,-348.08"/>
</g>
<!-- Node8 -->
<g id="node8" class="node">
<title>Node8</title>
<g id="a_node8"><a xlink:href="structyaclib_1_1detail_1_1Node.html" target="_top" xlink:title="Node class, used in intrusive data structure.">
<polygon fill="none" stroke="black" points="89,-302.5 89,-321.5 186,-321.5 186,-302.5 89,-302.5"/>
<text text-anchor="middle" x="137.5" y="-309.5" font-family="Helvetica,sans-Serif" font-size="10.00">yaclib::detail::Node</text>
</a>
</g>
</g>
<!-- Node8&#45;&gt;Node5 -->
<g id="edge7" class="edge">
<title>Node8&#45;&gt;Node5</title>
<path fill="none" stroke="midnightblue" d="M122.12,-294.72C113.13,-285.2 102.14,-273.56 94.76,-265.75"/>
<polygon fill="midnightblue" stroke="midnightblue" points="119.67,-297.22 129.08,-302.08 124.76,-292.41 119.67,-297.22"/>
</g>
</g>
</svg>
