<?xml version="1.0" encoding="UTF-8" standalone="no"?>
<!DOCTYPE svg PUBLIC "-//W3C//DTD SVG 1.1//EN"
 "http://www.w3.org/Graphics/SVG/1.1/DTD/svg11.dtd">
<!-- Generated by graphviz version 9.0.0 (20230911.1827)
 -->
<!-- Title: yaclib::detail::fiber::Atomic&lt; U * &gt; Pages: 1 -->
<svg width="301pt" height="318pt"
 viewBox="0.00 0.00 300.76 317.75" xmlns="http://www.w3.org/2000/svg" xmlns:xlink="http://www.w3.org/1999/xlink">

<svg id="main" version="1.1" xmlns="http://www.w3.org/2000/svg" xmlns:xlink="http://www.w3.org/1999/xlink" xml:space="preserve" onload="init(evt)">
<style type="text/css"><![CDATA[
.node, .edge {opacity: 0.7;}
.node.selected, .edge.selected {opacity: 1;}
.edge:hover path { stroke: red; }
.edge:hover polygon { stroke: red; fill: red; }
]]></style>
<script type="application/ecmascript" xlink:href="svg.min.js"/>
<svg id="graph" class="graph">
<g id="graph0" class="graph" transform="scale(1 1) rotate(0) translate(4 313.75)">
<title>yaclib::detail::fiber::Atomic&lt; U * &gt;</title>
<!-- Node1 -->
<g id="Node000001" class="node">
<title>Node1</title>
<g id="a_Node000001"><a xlink:title=" ">
<polygon fill="#999999" stroke="#666666" points="165.51,-30.5 74.51,-30.5 74.51,0 165.51,0 165.51,-30.5"/>
<text text-anchor="start" x="82.51" y="-17" font-family="Helvetica,sans-Serif" font-size="10.00">yaclib::detail::fiber</text>
<text text-anchor="middle" x="120.01" y="-5.75" font-family="Helvetica,sans-Serif" font-size="10.00">::Atomic&lt; U * &gt;</text>
</a>
</g>
</g>
<!-- Node2 -->
<g id="Node000002" class="node">
<title>Node2</title>
<g id="a_Node000002"><a xlink:href="classyaclib_1_1detail_1_1fiber_1_1AtomicBase.html" target="_top" xlink:title=" ">
<polygon fill="white" stroke="#666666" points="171.88,-98 68.13,-98 68.13,-67.5 171.88,-67.5 171.88,-98"/>
<text text-anchor="start" x="76.13" y="-84.5" font-family="Helvetica,sans-Serif" font-size="10.00">yaclib::detail::fiber</text>
<text text-anchor="middle" x="120.01" y="-73.25" font-family="Helvetica,sans-Serif" font-size="10.00">::AtomicBase&lt; U * &gt;</text>
</a>
</g>
</g>
<!-- Node2&#45;&gt;Node1 -->
<g id="edge1_Node000001_Node000002" class="edge">
<title>Node2&#45;&gt;Node1</title>
<g id="a_edge1_Node000001_Node000002"><a xlink:title=" ">
<path fill="none" stroke="#63b8ff" d="M120.01,-55.84C120.01,-47.3 120.01,-38.12 120.01,-30.75"/>
<polygon fill="#63b8ff" stroke="#63b8ff" points="116.51,-55.7 120.01,-65.7 123.51,-55.7 116.51,-55.7"/>
</a>
</g>
</g>
<!-- Node3 -->
<g id="Node000003" class="node">
<title>Node3</title>
<g id="a_Node000003"><a xlink:href="classyaclib_1_1detail_1_1fiber_1_1AtomicWait.html" target="_top" xlink:title=" ">
<polygon fill="white" stroke="#666666" points="133.63,-243.25 40.38,-243.25 40.38,-212.75 133.63,-212.75 133.63,-243.25"/>
<text text-anchor="start" x="48.38" y="-229.75" font-family="Helvetica,sans-Serif" font-size="10.00">yaclib::detail::fiber</text>
<text text-anchor="middle" x="87.01" y="-218.5" font-family="Helvetica,sans-Serif" font-size="10.00">::AtomicWait&lt; T &gt;</text>
</a>
</g>
</g>
<!-- Node3&#45;&gt;Node2 -->
<g id="edge2_Node000002_Node000003" class="edge">
<title>Node3&#45;&gt;Node2</title>
<g id="a_edge2_Node000002_Node000003"><a xlink:title=" ">
<path fill="none" stroke="#63b8ff" d="M92.85,-201.62C99.77,-171.58 111.06,-122.58 116.65,-98.31"/>
<polygon fill="#63b8ff" stroke="#63b8ff" points="89.53,-200.47 90.69,-211 96.35,-202.04 89.53,-200.47"/>
</a>
</g>
</g>
<!-- Node4 -->
<g id="Node000004" class="node">
<title>Node4</title>
<g id="a_Node000004"><a xlink:href="classbool.html" target="_top" xlink:title=" ">
<polygon fill="white" stroke="#666666" points="76.01,-309.75 42.01,-309.75 42.01,-290.5 76.01,-290.5 76.01,-309.75"/>
<text text-anchor="middle" x="59.01" y="-296.25" font-family="Helvetica,sans-Serif" font-size="10.00">bool</text>
</a>
</g>
</g>
<!-- Node4&#45;&gt;Node3 -->
<g id="edge3_Node000003_Node000004" class="edge">
<title>Node4&#45;&gt;Node3</title>
<g id="a_edge3_Node000003_Node000004"><a xlink:title=" ">
<path fill="none" stroke="#9a32cd" stroke-dasharray="5,2" d="M30.71,-291.71C12.33,-285.41 -6.56,-275.17 3.01,-261.25 11.59,-248.76 25.73,-241.11 39.98,-236.42"/>
<polygon fill="#9a32cd" stroke="#9a32cd" points="29.5,-295 40.09,-294.59 31.56,-288.31 29.5,-295"/>
</a>
</g>
<text text-anchor="middle" x="48.01" y="-263" font-family="Helvetica,sans-Serif" font-size="10.00" fill="grey"> is_always_lock_free</text>
</g>
<!-- Node7 -->
<g id="Node000007" class="node">
<title>Node7</title>
<g id="a_Node000007"><a xlink:href="classyaclib_1_1detail_1_1fiber_1_1AtomicWait.html" target="_top" xlink:title=" ">
<polygon fill="white" stroke="#666666" points="244.63,-243.25 151.38,-243.25 151.38,-212.75 244.63,-212.75 244.63,-243.25"/>
<text text-anchor="start" x="159.38" y="-229.75" font-family="Helvetica,sans-Serif" font-size="10.00">yaclib::detail::fiber</text>
<text text-anchor="middle" x="198.01" y="-218.5" font-family="Helvetica,sans-Serif" font-size="10.00">::AtomicWait&lt; T &gt;</text>
</a>
</g>
</g>
<!-- Node4&#45;&gt;Node7 -->
<g id="edge7_Node000007_Node000004" class="edge">
<title>Node4&#45;&gt;Node7</title>
<g id="a_edge7_Node000007_Node000004"><a xlink:title=" ">
<path fill="none" stroke="#9a32cd" stroke-dasharray="5,2" d="M79.94,-283.66C90.44,-276.32 103.55,-267.74 116.01,-261.25 128.48,-254.74 142.58,-248.75 155.53,-243.74"/>
<polygon fill="#9a32cd" stroke="#9a32cd" points="78.1,-280.68 72.01,-289.34 82.18,-286.37 78.1,-280.68"/>
</a>
</g>
<text text-anchor="middle" x="161.01" y="-263" font-family="Helvetica,sans-Serif" font-size="10.00" fill="grey"> is_always_lock_free</text>
</g>
<!-- Node5 -->
<g id="Node000005" class="node">
<title>Node5</title>
<g id="a_Node000005"><a xlink:title=" ">
<polygon fill="white" stroke="#666666" points="269.41,-309.75 240.61,-309.75 240.61,-290.5 269.41,-290.5 269.41,-309.75"/>
<text text-anchor="middle" x="255.01" y="-296.25" font-family="Helvetica,sans-Serif" font-size="10.00">T</text>
</a>
</g>
</g>
<!-- Node5&#45;&gt;Node3 -->
<g id="edge4_Node000003_Node000005" class="edge">
<title>Node5&#45;&gt;Node3</title>
<g id="a_edge4_Node000003_Node000005"><a xlink:title=" ">
<path fill="none" stroke="#9a32cd" stroke-dasharray="5,2" d="M237.1,-282.52C228.29,-275.1 217.18,-266.8 206.01,-261.25 202.58,-259.55 165.85,-249.68 134.09,-241.31"/>
<polygon fill="#9a32cd" stroke="#9a32cd" points="234.69,-285.07 244.51,-289.05 239.32,-279.81 234.69,-285.07"/>
</a>
</g>
<text text-anchor="middle" x="238.38" y="-263" font-family="Helvetica,sans-Serif" font-size="10.00" fill="grey"> _value</text>
</g>
<!-- Node5&#45;&gt;Node7 -->
<g id="edge8_Node000007_Node000005" class="edge">
<title>Node5&#45;&gt;Node7</title>
<g id="a_edge8_Node000007_Node000005"><a xlink:title=" ">
<path fill="none" stroke="#9a32cd" stroke-dasharray="5,2" d="M262.37,-279.19C263.43,-273.08 263.24,-266.57 260.01,-261.25 255.54,-253.89 248.78,-248.13 241.34,-243.65"/>
<polygon fill="#9a32cd" stroke="#9a32cd" points="259.07,-278 259.69,-288.58 265.8,-279.92 259.07,-278"/>
</a>
</g>
<text text-anchor="middle" x="277.38" y="-263" font-family="Helvetica,sans-Serif" font-size="10.00" fill="grey"> _value</text>
</g>
<!-- Node6 -->
<g id="Node000006" class="node">
<title>Node6</title>
<g id="a_Node000006"><a xlink:href="classyaclib_1_1detail_1_1fiber_1_1AtomicBase.html" target="_top" xlink:title=" ">
<polygon fill="white" stroke="#666666" points="237.13,-175.75 140.88,-175.75 140.88,-145.25 237.13,-145.25 237.13,-175.75"/>
<text text-anchor="start" x="148.88" y="-162.25" font-family="Helvetica,sans-Serif" font-size="10.00">yaclib::detail::fiber</text>
<text text-anchor="middle" x="189.01" y="-151" font-family="Helvetica,sans-Serif" font-size="10.00">::AtomicBase&lt; T &gt;</text>
</a>
</g>
</g>
<!-- Node6&#45;&gt;Node2 -->
<g id="edge5_Node000002_Node000006" class="edge">
<title>Node6&#45;&gt;Node2</title>
<g id="a_edge5_Node000002_Node000006"><a xlink:title=" ">
<path fill="none" stroke="orange" stroke-dasharray="5,2" d="M167.97,-136.4C156.67,-124 143.09,-109.09 133.27,-98.31"/>
<polygon fill="orange" stroke="orange" points="165.36,-138.74 174.68,-143.78 170.54,-134.03 165.36,-138.74"/>
</a>
</g>
<text text-anchor="middle" x="174.13" y="-117.75" font-family="Helvetica,sans-Serif" font-size="10.00" fill="grey"> &lt; U * &gt;</text>
</g>
<!-- Node7&#45;&gt;Node6 -->
<g id="edge6_Node000006_Node000007" class="edge">
<title>Node7&#45;&gt;Node6</title>
<g id="a_edge6_Node000006_Node000007"><a xlink:title=" ">
<path fill="none" stroke="#63b8ff" d="M194.44,-201.09C193.27,-192.55 192.01,-183.37 191,-176"/>
<polygon fill="#63b8ff" stroke="#63b8ff" points="190.97,-201.53 195.8,-210.96 197.91,-200.58 190.97,-201.53"/>
</a>
</g>
</g>
</g>
</svg>
</svg>

<style type='text/css'>
<![CDATA[
[data-mouse-over-selected='false'] { opacity: 0.7; }
[data-mouse-over-selected='true']  { opacity: 1.0; }
]]>
</style>
<script type="application/ecmascript"><![CDATA[
document.addEventListener('DOMContentLoaded', (event) => {
  highlightEdges();
  highlightAdjacentNodes();
});
]]></script>
</svg>
