<?xml version="1.0" encoding="UTF-8" standalone="no"?>
<!DOCTYPE svg PUBLIC "-//W3C//DTD SVG 1.1//EN"
 "http://www.w3.org/Graphics/SVG/1.1/DTD/svg11.dtd">
<!-- Generated by graphviz version 3.0.0 (20220413.0242)
 -->
<!-- Title: yaclib::detail::fiber::RecursiveTimedMutex Pages: 1 -->
<svg width="275pt" height="185pt"
 viewBox="0.00 0.00 275.00 185.00" xmlns="http://www.w3.org/2000/svg" xmlns:xlink="http://www.w3.org/1999/xlink">
<g id="graph0" class="graph" transform="scale(1 1) rotate(0) translate(4 181)">
<title>yaclib::detail::fiber::RecursiveTimedMutex</title>
<!-- Node1 -->
<g id="node1" class="node">
<title>Node1</title>
<g id="a_node1"><a xlink:title=" ">
<polygon fill="#bfbfbf" stroke="black" points="77,-0.5 77,-30.5 195,-30.5 195,-0.5 77,-0.5"/>
<text text-anchor="start" x="85" y="-18.5" font-family="Helvetica,sans-Serif" font-size="10.00">yaclib::detail::fiber</text>
<text text-anchor="middle" x="136" y="-7.5" font-family="Helvetica,sans-Serif" font-size="10.00">::RecursiveTimedMutex</text>
</a>
</g>
</g>
<!-- Node2 -->
<g id="node2" class="node">
<title>Node2</title>
<g id="a_node2"><a xlink:href="classyaclib_1_1detail_1_1fiber_1_1RecursiveMutex.html" target="_top" xlink:title=" ">
<polygon fill="none" stroke="black" points="90,-68.5 90,-98.5 182,-98.5 182,-68.5 90,-68.5"/>
<text text-anchor="start" x="98" y="-86.5" font-family="Helvetica,sans-Serif" font-size="10.00">yaclib::detail::fiber</text>
<text text-anchor="middle" x="136" y="-75.5" font-family="Helvetica,sans-Serif" font-size="10.00">::RecursiveMutex</text>
</a>
</g>
</g>
<!-- Node2&#45;&gt;Node1 -->
<g id="edge1" class="edge">
<title>Node2&#45;&gt;Node1</title>
<path fill="none" stroke="midnightblue" d="M136,-58.03C136,-48.86 136,-38.74 136,-30.79"/>
<polygon fill="midnightblue" stroke="midnightblue" points="132.5,-58.18 136,-68.18 139.5,-58.18 132.5,-58.18"/>
</g>
<!-- Node3 -->
<g id="node3" class="node">
<title>Node3</title>
<g id="a_node3"><a xlink:href="classyaclib_1_1detail_1_1fiber_1_1FiberQueue.html" target="_top" xlink:title=" ">
<polygon fill="none" stroke="black" points="0,-146.5 0,-176.5 92,-176.5 92,-146.5 0,-146.5"/>
<text text-anchor="start" x="8" y="-164.5" font-family="Helvetica,sans-Serif" font-size="10.00">yaclib::detail::fiber</text>
<text text-anchor="middle" x="46" y="-153.5" font-family="Helvetica,sans-Serif" font-size="10.00">::FiberQueue</text>
</a>
</g>
</g>
<!-- Node3&#45;&gt;Node2 -->
<g id="edge2" class="edge">
<title>Node3&#45;&gt;Node2</title>
<path fill="none" stroke="#9a32cd" stroke-dasharray="5,2" d="M70.99,-139.39C86.34,-126.43 105.59,-110.18 119.15,-98.73"/>
<polygon fill="#9a32cd" stroke="#9a32cd" points="68.31,-137.08 62.93,-146.2 72.83,-142.43 68.31,-137.08"/>
<text text-anchor="middle" x="113" y="-120" font-family="Helvetica,sans-Serif" font-size="10.00"> _queue</text>
</g>
<!-- Node4 -->
<g id="node4" class="node">
<title>Node4</title>
<g id="a_node4"><a xlink:title=" ">
<polygon fill="none" stroke="black" points="110.5,-152 110.5,-171 161.5,-171 161.5,-152 110.5,-152"/>
<text text-anchor="middle" x="136" y="-159" font-family="Helvetica,sans-Serif" font-size="10.00">uint64_t</text>
</a>
</g>
</g>
<!-- Node4&#45;&gt;Node2 -->
<g id="edge3" class="edge">
<title>Node4&#45;&gt;Node2</title>
<path fill="none" stroke="#9a32cd" stroke-dasharray="5,2" d="M136,-141.78C136,-128.4 136,-110.69 136,-98.52"/>
<polygon fill="#9a32cd" stroke="#9a32cd" points="132.5,-141.78 136,-151.78 139.5,-141.78 132.5,-141.78"/>
<text text-anchor="middle" x="159.5" y="-120" font-family="Helvetica,sans-Serif" font-size="10.00"> _owner_id</text>
</g>
<!-- Node5 -->
<g id="node5" class="node">
<title>Node5</title>
<g id="a_node5"><a xlink:title=" ">
<polygon fill="none" stroke="black" points="180.5,-152 180.5,-171 231.5,-171 231.5,-152 180.5,-152"/>
<text text-anchor="middle" x="206" y="-159" font-family="Helvetica,sans-Serif" font-size="10.00">uint32_t</text>
</a>
</g>
</g>
<!-- Node5&#45;&gt;Node2 -->
<g id="edge4" class="edge">
<title>Node5&#45;&gt;Node2</title>
<path fill="none" stroke="#9a32cd" stroke-dasharray="5,2" d="M199.33,-142.44C195.67,-134.09 190.52,-124.41 184,-117 177.75,-109.9 169.62,-103.63 161.83,-98.54"/>
<polygon fill="#9a32cd" stroke="#9a32cd" points="196.09,-143.75 203.07,-151.72 202.58,-141.14 196.09,-143.75"/>
<text text-anchor="middle" x="229" y="-120" font-family="Helvetica,sans-Serif" font-size="10.00"> _occupied_count</text>
</g>
</g>
</svg>
