<?xml version="1.0" encoding="UTF-8" standalone="no"?>
<!DOCTYPE svg PUBLIC "-//W3C//DTD SVG 1.1//EN"
 "http://www.w3.org/Graphics/SVG/1.1/DTD/svg11.dtd">
<!-- Generated by graphviz version 3.0.0 (20221109.1736)
 -->
<!-- Title: yaclib::detail::AwaitOnEvent&lt; Single &gt; Pages: 1 -->
<svg width="348pt" height="345pt"
 viewBox="0.00 0.00 347.50 345.00" xmlns="http://www.w3.org/2000/svg" xmlns:xlink="http://www.w3.org/1999/xlink">
<g id="graph0" class="graph" transform="scale(1 1) rotate(0) translate(4 341)">
<title>yaclib::detail::AwaitOnEvent&lt; Single &gt;</title>
<!-- Node1 -->
<g id="node1" class="node">
<title>Node1</title>
<g id="a_node1"><a xlink:title=" ">
<polygon fill="#bfbfbf" stroke="black" points="126.5,-78.5 126.5,-108.5 262.5,-108.5 262.5,-78.5 126.5,-78.5"/>
<text text-anchor="start" x="134.5" y="-96.5" font-family="Helvetica,sans-Serif" font-size="10.00">yaclib::detail::AwaitOnEvent</text>
<text text-anchor="middle" x="194.5" y="-85.5" font-family="Helvetica,sans-Serif" font-size="10.00">&lt; Single &gt;</text>
</a>
</g>
</g>
<!-- Node8 -->
<g id="node8" class="node">
<title>Node8</title>
<g id="a_node8"><a xlink:href="classyaclib_1_1detail_1_1AwaitOnEvent.html" target="_top" xlink:title=" ">
<polygon fill="none" stroke="black" points="49.5,-0.5 49.5,-30.5 185.5,-30.5 185.5,-0.5 49.5,-0.5"/>
<text text-anchor="start" x="57.5" y="-18.5" font-family="Helvetica,sans-Serif" font-size="10.00">yaclib::detail::AwaitOnEvent</text>
<text text-anchor="middle" x="117.5" y="-7.5" font-family="Helvetica,sans-Serif" font-size="10.00">&lt; true &gt;</text>
</a>
</g>
</g>
<!-- Node1&#45;&gt;Node8 -->
<g id="edge7" class="edge">
<title>Node1&#45;&gt;Node8</title>
<path fill="none" stroke="orange" stroke-dasharray="5,2" d="M172.75,-71.03C159.68,-58.13 143.41,-42.07 131.92,-30.73"/>
<polygon fill="orange" stroke="orange" points="170.44,-73.67 180.02,-78.2 175.36,-68.69 170.44,-73.67"/>
<text text-anchor="middle" x="179.5" y="-52" font-family="Helvetica,sans-Serif" font-size="10.00"> &lt; true &gt;</text>
</g>
<!-- Node9 -->
<g id="node9" class="node">
<title>Node9</title>
<g id="a_node9"><a xlink:href="classyaclib_1_1detail_1_1AwaitOnEvent.html" target="_top" xlink:title=" ">
<polygon fill="none" stroke="black" points="203.5,-0.5 203.5,-30.5 339.5,-30.5 339.5,-0.5 203.5,-0.5"/>
<text text-anchor="start" x="211.5" y="-18.5" font-family="Helvetica,sans-Serif" font-size="10.00">yaclib::detail::AwaitOnEvent</text>
<text text-anchor="middle" x="271.5" y="-7.5" font-family="Helvetica,sans-Serif" font-size="10.00">&lt; false &gt;</text>
</a>
</g>
</g>
<!-- Node1&#45;&gt;Node9 -->
<g id="edge8" class="edge">
<title>Node1&#45;&gt;Node9</title>
<path fill="none" stroke="orange" stroke-dasharray="5,2" d="M216.25,-71.03C229.32,-58.13 245.59,-42.07 257.08,-30.73"/>
<polygon fill="orange" stroke="orange" points="213.64,-68.69 208.98,-78.2 218.56,-73.67 213.64,-68.69"/>
<text text-anchor="middle" x="257.5" y="-52" font-family="Helvetica,sans-Serif" font-size="10.00"> &lt; false &gt;</text>
</g>
<!-- Node2 -->
<g id="node2" class="node">
<title>Node2</title>
<g id="a_node2"><a xlink:href="classyaclib_1_1detail_1_1InlineCore.html" target="_top" xlink:title=" ">
<polygon fill="none" stroke="black" points="28,-146.5 28,-165.5 145,-165.5 145,-146.5 28,-146.5"/>
<text text-anchor="middle" x="86.5" y="-153.5" font-family="Helvetica,sans-Serif" font-size="10.00">yaclib::detail::InlineCore</text>
</a>
</g>
</g>
<!-- Node2&#45;&gt;Node1 -->
<g id="edge1" class="edge">
<title>Node2&#45;&gt;Node1</title>
<path fill="none" stroke="midnightblue" d="M110.99,-141.28C128.46,-131.5 151.87,-118.38 169.46,-108.53"/>
<polygon fill="midnightblue" stroke="midnightblue" points="108.99,-138.39 101.97,-146.33 112.41,-144.5 108.99,-138.39"/>
</g>
<!-- Node3 -->
<g id="node3" class="node">
<title>Node3</title>
<g id="a_node3"><a xlink:href="classyaclib_1_1Job.html" target="_top" xlink:title="Callable that can be executed in an IExecutor.">
<polygon fill="none" stroke="black" points="55.5,-203.5 55.5,-222.5 117.5,-222.5 117.5,-203.5 55.5,-203.5"/>
<text text-anchor="middle" x="86.5" y="-210.5" font-family="Helvetica,sans-Serif" font-size="10.00">yaclib::Job</text>
</a>
</g>
</g>
<!-- Node3&#45;&gt;Node2 -->
<g id="edge2" class="edge">
<title>Node3&#45;&gt;Node2</title>
<path fill="none" stroke="midnightblue" d="M86.5,-193.12C86.5,-183.82 86.5,-173.06 86.5,-165.71"/>
<polygon fill="midnightblue" stroke="midnightblue" points="83,-193.41 86.5,-203.41 90,-193.41 83,-193.41"/>
</g>
<!-- Node4 -->
<g id="node4" class="node">
<title>Node4</title>
<g id="a_node4"><a xlink:href="classyaclib_1_1IFunc.html" target="_top" xlink:title="Callable interface.">
<polygon fill="none" stroke="black" points="0,-260.5 0,-279.5 71,-279.5 71,-260.5 0,-260.5"/>
<text text-anchor="middle" x="35.5" y="-267.5" font-family="Helvetica,sans-Serif" font-size="10.00">yaclib::IFunc</text>
</a>
</g>
</g>
<!-- Node4&#45;&gt;Node3 -->
<g id="edge3" class="edge">
<title>Node4&#45;&gt;Node3</title>
<path fill="none" stroke="midnightblue" d="M50.5,-252.83C59.63,-242.98 70.94,-230.78 78.42,-222.71"/>
<polygon fill="midnightblue" stroke="midnightblue" points="47.7,-250.69 43.47,-260.41 52.83,-255.45 47.7,-250.69"/>
</g>
<!-- Node5 -->
<g id="node5" class="node">
<title>Node5</title>
<g id="a_node5"><a xlink:href="classyaclib_1_1IRef.html" target="_top" xlink:title="Reference counting interface.">
<polygon fill="none" stroke="black" points="3.5,-317.5 3.5,-336.5 67.5,-336.5 67.5,-317.5 3.5,-317.5"/>
<text text-anchor="middle" x="35.5" y="-324.5" font-family="Helvetica,sans-Serif" font-size="10.00">yaclib::IRef</text>
</a>
</g>
</g>
<!-- Node5&#45;&gt;Node4 -->
<g id="edge4" class="edge">
<title>Node5&#45;&gt;Node4</title>
<path fill="none" stroke="midnightblue" d="M35.5,-307.12C35.5,-297.82 35.5,-287.06 35.5,-279.71"/>
<polygon fill="midnightblue" stroke="midnightblue" points="32,-307.41 35.5,-317.41 39,-307.41 32,-307.41"/>
</g>
<!-- Node6 -->
<g id="node6" class="node">
<title>Node6</title>
<g id="a_node6"><a xlink:href="structyaclib_1_1detail_1_1Node.html" target="_top" xlink:title="Node class, used in intrusive data structure.">
<polygon fill="none" stroke="black" points="89,-260.5 89,-279.5 186,-279.5 186,-260.5 89,-260.5"/>
<text text-anchor="middle" x="137.5" y="-267.5" font-family="Helvetica,sans-Serif" font-size="10.00">yaclib::detail::Node</text>
</a>
</g>
</g>
<!-- Node6&#45;&gt;Node3 -->
<g id="edge5" class="edge">
<title>Node6&#45;&gt;Node3</title>
<path fill="none" stroke="midnightblue" d="M122.5,-252.83C113.37,-242.98 102.06,-230.78 94.58,-222.71"/>
<polygon fill="midnightblue" stroke="midnightblue" points="120.17,-255.45 129.53,-260.41 125.3,-250.69 120.17,-255.45"/>
</g>
<!-- Node7 -->
<g id="node7" class="node">
<title>Node7</title>
<g id="a_node7"><a xlink:title=" ">
<polygon fill="none" stroke="black" points="163,-146.5 163,-165.5 300,-165.5 300,-146.5 163,-146.5"/>
<text text-anchor="middle" x="231.5" y="-153.5" font-family="Helvetica,sans-Serif" font-size="10.00">AwaitOnCounterT&lt; Single &gt;</text>
</a>
</g>
</g>
<!-- Node7&#45;&gt;Node1 -->
<g id="edge6" class="edge">
<title>Node7&#45;&gt;Node1</title>
<path fill="none" stroke="midnightblue" d="M220.91,-137.68C215.3,-128.52 208.51,-117.41 203.22,-108.76"/>
<polygon fill="midnightblue" stroke="midnightblue" points="218,-139.63 226.2,-146.33 223.97,-135.97 218,-139.63"/>
</g>
</g>
</svg>
