<?xml version="1.0" encoding="UTF-8" standalone="no"?>
<!DOCTYPE svg PUBLIC "-//W3C//DTD SVG 1.1//EN"
 "http://www.w3.org/Graphics/SVG/1.1/DTD/svg11.dtd">
<!-- Generated by graphviz version 3.0.0 (20221109.1736)
 -->
<!-- Title: yaclib::detail::LockStickyAwaiter&lt; M &gt; Pages: 1 -->
<svg width="157pt" height="163pt"
 viewBox="0.00 0.00 157.00 163.00" xmlns="http://www.w3.org/2000/svg" xmlns:xlink="http://www.w3.org/1999/xlink">
<g id="graph0" class="graph" transform="scale(1 1) rotate(0) translate(4 159)">
<title>yaclib::detail::LockStickyAwaiter&lt; M &gt;</title>
<!-- Node1 -->
<g id="node1" class="node">
<title>Node1</title>
<g id="a_node1"><a xlink:title=" ">
<polygon fill="#bfbfbf" stroke="black" points="0,-0.5 0,-30.5 122,-30.5 122,-0.5 0,-0.5"/>
<text text-anchor="start" x="8" y="-18.5" font-family="Helvetica,sans-Serif" font-size="10.00">yaclib::detail::LockSticky</text>
<text text-anchor="middle" x="61" y="-7.5" font-family="Helvetica,sans-Serif" font-size="10.00">Awaiter&lt; M &gt;</text>
</a>
</g>
</g>
<!-- Node2 -->
<g id="node2" class="node">
<title>Node2</title>
<g id="a_node2"><a xlink:title=" ">
<polygon fill="none" stroke="black" points="11,-78.5 11,-97.5 45,-97.5 45,-78.5 11,-78.5"/>
<text text-anchor="middle" x="28" y="-85.5" font-family="Helvetica,sans-Serif" font-size="10.00">M &amp;</text>
</a>
</g>
</g>
<!-- Node2&#45;&gt;Node1 -->
<g id="edge1" class="edge">
<title>Node2&#45;&gt;Node1</title>
<path fill="none" stroke="#9a32cd" stroke-dasharray="5,2" d="M32.1,-68.53C33.83,-62.18 36.12,-55.13 39,-49 41.95,-42.71 46.04,-36.27 49.9,-30.8"/>
<polygon fill="#9a32cd" stroke="#9a32cd" points="28.69,-67.72 29.71,-78.27 35.49,-69.39 28.69,-67.72"/>
<text text-anchor="middle" x="56" y="-52" font-family="Helvetica,sans-Serif" font-size="10.00"> _mutex</text>
</g>
<!-- Node3 -->
<g id="node3" class="node">
<title>Node3</title>
<g id="a_node3"><a xlink:href="classyaclib_1_1IExecutor.html" target="_top" xlink:title=" ">
<polygon fill="none" stroke="black" points="63,-78.5 63,-97.5 149,-97.5 149,-78.5 63,-78.5"/>
<text text-anchor="middle" x="106" y="-85.5" font-family="Helvetica,sans-Serif" font-size="10.00">yaclib::IExecutor</text>
</a>
</g>
</g>
<!-- Node3&#45;&gt;Node1 -->
<g id="edge2" class="edge">
<title>Node3&#45;&gt;Node1</title>
<path fill="none" stroke="#9a32cd" stroke-dasharray="5,2" d="M94.95,-69.68C87.27,-57.65 77.17,-41.83 69.98,-30.58"/>
<polygon fill="#9a32cd" stroke="#9a32cd" points="92.15,-71.81 100.48,-78.36 98.05,-68.04 92.15,-71.81"/>
<text text-anchor="middle" x="109.5" y="-52" font-family="Helvetica,sans-Serif" font-size="10.00"> _executor</text>
</g>
<!-- Node4 -->
<g id="node4" class="node">
<title>Node4</title>
<g id="a_node4"><a xlink:href="classyaclib_1_1IRef.html" target="_top" xlink:title="Reference counting interface.">
<polygon fill="none" stroke="black" points="74,-135.5 74,-154.5 138,-154.5 138,-135.5 74,-135.5"/>
<text text-anchor="middle" x="106" y="-142.5" font-family="Helvetica,sans-Serif" font-size="10.00">yaclib::IRef</text>
</a>
</g>
</g>
<!-- Node4&#45;&gt;Node3 -->
<g id="edge3" class="edge">
<title>Node4&#45;&gt;Node3</title>
<path fill="none" stroke="midnightblue" d="M106,-125.12C106,-115.82 106,-105.06 106,-97.71"/>
<polygon fill="midnightblue" stroke="midnightblue" points="102.5,-125.41 106,-135.41 109.5,-125.41 102.5,-125.41"/>
</g>
</g>
</svg>
