<?xml version="1.0" encoding="UTF-8" standalone="no"?>
<!DOCTYPE svg PUBLIC "-//W3C//DTD SVG 1.1//EN"
 "http://www.w3.org/Graphics/SVG/1.1/DTD/svg11.dtd">
<!-- Generated by graphviz version 3.0.0 (20221109.1736)
 -->
<!-- Title: yaclib::detail::Mutex&lt; Impl &gt; Pages: 1 -->
<svg width="513pt" height="137pt"
 viewBox="0.00 0.00 513.00 137.00" xmlns="http://www.w3.org/2000/svg" xmlns:xlink="http://www.w3.org/1999/xlink">
<g id="graph0" class="graph" transform="scale(1 1) rotate(0) translate(4 133)">
<title>yaclib::detail::Mutex&lt; Impl &gt;</title>
<!-- Node1 -->
<g id="node1" class="node">
<title>Node1</title>
<g id="a_node1"><a xlink:title=" ">
<polygon fill="#bfbfbf" stroke="black" points="71,-49.5 71,-79.5 171,-79.5 171,-49.5 71,-49.5"/>
<text text-anchor="start" x="79" y="-67.5" font-family="Helvetica,sans-Serif" font-size="10.00">yaclib::detail::Mutex</text>
<text text-anchor="middle" x="121" y="-56.5" font-family="Helvetica,sans-Serif" font-size="10.00">&lt; Impl &gt;</text>
</a>
</g>
</g>
<!-- Node3 -->
<g id="node3" class="node">
<title>Node3</title>
<g id="a_node3"><a xlink:href="classyaclib_1_1detail_1_1RecursiveMutex.html" target="_top" xlink:title=" ">
<polygon fill="none" stroke="black" points="214,-98.5 214,-128.5 331,-128.5 331,-98.5 214,-98.5"/>
<text text-anchor="start" x="222" y="-116.5" font-family="Helvetica,sans-Serif" font-size="10.00">yaclib::detail::Recursive</text>
<text text-anchor="middle" x="272.5" y="-105.5" font-family="Helvetica,sans-Serif" font-size="10.00">Mutex&lt; Impl &gt;</text>
</a>
</g>
</g>
<!-- Node1&#45;&gt;Node3 -->
<g id="edge2" class="edge">
<title>Node1&#45;&gt;Node3</title>
<path fill="none" stroke="midnightblue" d="M177.71,-82.76C193.48,-87.93 210.46,-93.49 225.58,-98.45"/>
<polygon fill="midnightblue" stroke="midnightblue" points="178.67,-79.39 168.07,-79.6 176.49,-86.04 178.67,-79.39"/>
</g>
<!-- Node4 -->
<g id="node4" class="node">
<title>Node4</title>
<g id="a_node4"><a xlink:href="classyaclib_1_1detail_1_1SharedMutex.html" target="_top" xlink:title=" ">
<polygon fill="none" stroke="black" points="207,-49.5 207,-79.5 338,-79.5 338,-49.5 207,-49.5"/>
<text text-anchor="start" x="215" y="-67.5" font-family="Helvetica,sans-Serif" font-size="10.00">yaclib::detail::SharedMutex</text>
<text text-anchor="middle" x="272.5" y="-56.5" font-family="Helvetica,sans-Serif" font-size="10.00">&lt; Impl &gt;</text>
</a>
</g>
</g>
<!-- Node1&#45;&gt;Node4 -->
<g id="edge3" class="edge">
<title>Node1&#45;&gt;Node4</title>
<path fill="none" stroke="midnightblue" d="M181.44,-64.5C189.84,-64.5 198.5,-64.5 206.99,-64.5"/>
<polygon fill="midnightblue" stroke="midnightblue" points="181.37,-61 171.37,-64.5 181.37,-68 181.37,-61"/>
</g>
<!-- Node6 -->
<g id="node6" class="node">
<title>Node6</title>
<g id="a_node6"><a xlink:href="classyaclib_1_1detail_1_1TimedMutex.html" target="_top" xlink:title=" ">
<polygon fill="none" stroke="black" points="209,-0.5 209,-30.5 336,-30.5 336,-0.5 209,-0.5"/>
<text text-anchor="start" x="217" y="-18.5" font-family="Helvetica,sans-Serif" font-size="10.00">yaclib::detail::TimedMutex</text>
<text text-anchor="middle" x="272.5" y="-7.5" font-family="Helvetica,sans-Serif" font-size="10.00">&lt; Impl &gt;</text>
</a>
</g>
</g>
<!-- Node1&#45;&gt;Node6 -->
<g id="edge5" class="edge">
<title>Node1&#45;&gt;Node6</title>
<path fill="none" stroke="midnightblue" d="M177.71,-46.24C193.48,-41.07 210.46,-35.51 225.58,-30.55"/>
<polygon fill="midnightblue" stroke="midnightblue" points="176.49,-42.96 168.07,-49.4 178.67,-49.61 176.49,-42.96"/>
</g>
<!-- Node2 -->
<g id="node2" class="node">
<title>Node2</title>
<g id="a_node2"><a xlink:title=" ">
<polygon fill="none" stroke="black" points="0,-55 0,-74 35,-74 35,-55 0,-55"/>
<text text-anchor="middle" x="17.5" y="-62" font-family="Helvetica,sans-Serif" font-size="10.00">Impl</text>
</a>
</g>
</g>
<!-- Node2&#45;&gt;Node1 -->
<g id="edge1" class="edge">
<title>Node2&#45;&gt;Node1</title>
<path fill="none" stroke="darkgreen" d="M45.26,-64.5C53.12,-64.5 61.98,-64.5 70.78,-64.5"/>
<polygon fill="darkgreen" stroke="darkgreen" points="45.26,-61 35.26,-64.5 45.26,-68 45.26,-61"/>
</g>
<!-- Node5 -->
<g id="node5" class="node">
<title>Node5</title>
<g id="a_node5"><a xlink:href="classyaclib_1_1detail_1_1SharedTimedMutex.html" target="_top" xlink:title=" ">
<polygon fill="none" stroke="black" points="374,-49.5 374,-79.5 505,-79.5 505,-49.5 374,-49.5"/>
<text text-anchor="start" x="382" y="-67.5" font-family="Helvetica,sans-Serif" font-size="10.00">yaclib::detail::SharedTimed</text>
<text text-anchor="middle" x="439.5" y="-56.5" font-family="Helvetica,sans-Serif" font-size="10.00">Mutex&lt; Impl &gt;</text>
</a>
</g>
</g>
<!-- Node4&#45;&gt;Node5 -->
<g id="edge4" class="edge">
<title>Node4&#45;&gt;Node5</title>
<path fill="none" stroke="midnightblue" d="M348.24,-64.5C356.82,-64.5 365.52,-64.5 373.95,-64.5"/>
<polygon fill="midnightblue" stroke="midnightblue" points="348.24,-61 338.24,-64.5 348.24,-68 348.24,-61"/>
</g>
<!-- Node7 -->
<g id="node7" class="node">
<title>Node7</title>
<g id="a_node7"><a xlink:href="classyaclib_1_1detail_1_1RecursiveTimedMutex.html" target="_top" xlink:title=" ">
<polygon fill="none" stroke="black" points="381,-0.5 381,-30.5 498,-30.5 498,-0.5 381,-0.5"/>
<text text-anchor="start" x="389" y="-18.5" font-family="Helvetica,sans-Serif" font-size="10.00">yaclib::detail::Recursive</text>
<text text-anchor="middle" x="439.5" y="-7.5" font-family="Helvetica,sans-Serif" font-size="10.00">TimedMutex&lt; Impl &gt;</text>
</a>
</g>
</g>
<!-- Node6&#45;&gt;Node7 -->
<g id="edge6" class="edge">
<title>Node6&#45;&gt;Node7</title>
<path fill="none" stroke="midnightblue" d="M346.43,-15.5C358,-15.5 369.82,-15.5 380.97,-15.5"/>
<polygon fill="midnightblue" stroke="midnightblue" points="346.35,-12 336.35,-15.5 346.35,-19 346.35,-12"/>
</g>
</g>
</svg>
