<?xml version="1.0" encoding="UTF-8" standalone="no"?>
<!DOCTYPE svg PUBLIC "-//W3C//DTD SVG 1.1//EN"
 "http://www.w3.org/Graphics/SVG/1.1/DTD/svg11.dtd">
<!-- Generated by graphviz version 9.0.0 (20230911.1827)
 -->
<!-- Title: yaclib::detail::ResultCore&lt; V, E &gt; Pages: 1 -->
<svg width="1133pt" height="147pt"
 viewBox="0.00 0.00 1132.75 147.12" xmlns="http://www.w3.org/2000/svg" xmlns:xlink="http://www.w3.org/1999/xlink">
<g id="graph0" class="graph" transform="scale(1 1) rotate(0) translate(4 143.12)">
<title>yaclib::detail::ResultCore&lt; V, E &gt;</title>
<!-- Node1 -->
<g id="Node000001" class="node">
<title>Node1</title>
<g id="a_Node000001"><a xlink:title=" ">
<polygon fill="#999999" stroke="#666666" points="753.75,-79.5 632.75,-79.5 632.75,-49 753.75,-49 753.75,-79.5"/>
<text text-anchor="start" x="640.75" y="-66" font-family="Helvetica,sans-Serif" font-size="10.00">yaclib::detail::ResultCore</text>
<text text-anchor="middle" x="693.25" y="-54.75" font-family="Helvetica,sans-Serif" font-size="10.00">&lt; V, E &gt;</text>
</a>
</g>
</g>
<!-- Node8 -->
<g id="Node000008" class="node">
<title>Node8</title>
<g id="a_Node000008"><a xlink:href="structyaclib_1_1detail_1_1OneCounter.html" target="_top" xlink:title=" ">
<polygon fill="white" stroke="#666666" points="958.75,-139.12 789.75,-139.12 789.75,-97.38 958.75,-97.38 958.75,-139.12"/>
<text text-anchor="start" x="797.75" y="-125.62" font-family="Helvetica,sans-Serif" font-size="10.00">yaclib::detail::OneCounter</text>
<text text-anchor="start" x="797.75" y="-114.38" font-family="Helvetica,sans-Serif" font-size="10.00">&lt; ResultCore&lt; V, E &gt;, PromiseType</text>
<text text-anchor="middle" x="874.25" y="-103.12" font-family="Helvetica,sans-Serif" font-size="10.00">Deleter&lt; Lazy &gt; &gt;</text>
</a>
</g>
</g>
<!-- Node1&#45;&gt;Node8 -->
<g id="edge7_Node000001_Node000008" class="edge">
<title>Node1&#45;&gt;Node8</title>
<g id="a_edge7_Node000001_Node000008"><a xlink:title=" ">
<path fill="none" stroke="#63b8ff" d="M756.62,-83.06C771.47,-87.55 787.42,-92.36 802.61,-96.94"/>
<polygon fill="#63b8ff" stroke="#63b8ff" points="758.06,-79.84 747.47,-80.31 756.04,-86.55 758.06,-79.84"/>
</a>
</g>
</g>
<!-- Node10 -->
<g id="Node000010" class="node">
<title>Node10</title>
<g id="a_Node000010"><a xlink:href="classyaclib_1_1detail_1_1PromiseCore.html" target="_top" xlink:title=" ">
<polygon fill="white" stroke="#666666" points="938.88,-79.5 809.62,-79.5 809.62,-49 938.88,-49 938.88,-79.5"/>
<text text-anchor="start" x="817.62" y="-66" font-family="Helvetica,sans-Serif" font-size="10.00">yaclib::detail::PromiseCore</text>
<text text-anchor="middle" x="874.25" y="-54.75" font-family="Helvetica,sans-Serif" font-size="10.00">&lt; V, E, Func &gt;</text>
</a>
</g>
</g>
<!-- Node1&#45;&gt;Node10 -->
<g id="edge9_Node000001_Node000010" class="edge">
<title>Node1&#45;&gt;Node10</title>
<g id="a_edge9_Node000001_Node000010"><a xlink:title=" ">
<path fill="none" stroke="#63b8ff" d="M765.32,-64.25C779.84,-64.25 795.04,-64.25 809.3,-64.25"/>
<polygon fill="#63b8ff" stroke="#63b8ff" points="765.37,-60.75 755.37,-64.25 765.37,-67.75 765.37,-60.75"/>
</a>
</g>
</g>
<!-- Node11 -->
<g id="Node000011" class="node">
<title>Node11</title>
<g id="a_Node000011"><a xlink:href="classyaclib_1_1detail_1_1ReadyCore.html" target="_top" xlink:title=" ">
<polygon fill="white" stroke="#666666" points="934.38,-30.5 814.12,-30.5 814.12,0 934.38,0 934.38,-30.5"/>
<text text-anchor="start" x="822.12" y="-17" font-family="Helvetica,sans-Serif" font-size="10.00">yaclib::detail::ReadyCore</text>
<text text-anchor="middle" x="874.25" y="-5.75" font-family="Helvetica,sans-Serif" font-size="10.00">&lt; V, E &gt;</text>
</a>
</g>
</g>
<!-- Node1&#45;&gt;Node11 -->
<g id="edge10_Node000001_Node000011" class="edge">
<title>Node1&#45;&gt;Node11</title>
<g id="a_edge10_Node000001_Node000011"><a xlink:title=" ">
<path fill="none" stroke="#63b8ff" d="M762.19,-45.65C779.84,-40.82 798.69,-35.66 815.74,-30.99"/>
<polygon fill="#63b8ff" stroke="#63b8ff" points="761.56,-42.2 752.84,-48.21 763.41,-48.95 761.56,-42.2"/>
</a>
</g>
</g>
<!-- Node2 -->
<g id="Node000002" class="node">
<title>Node2</title>
<g id="a_Node000002"><a xlink:href="classyaclib_1_1detail_1_1BaseCore.html" target="_top" xlink:title=" ">
<polygon fill="white" stroke="#666666" points="596.75,-73.88 481,-73.88 481,-54.62 596.75,-54.62 596.75,-73.88"/>
<text text-anchor="middle" x="538.88" y="-60.38" font-family="Helvetica,sans-Serif" font-size="10.00">yaclib::detail::BaseCore</text>
</a>
</g>
</g>
<!-- Node2&#45;&gt;Node1 -->
<g id="edge1_Node000001_Node000002" class="edge">
<title>Node2&#45;&gt;Node1</title>
<g id="a_edge1_Node000001_Node000002"><a xlink:title=" ">
<path fill="none" stroke="#63b8ff" d="M608.32,-64.25C616.37,-64.25 624.54,-64.25 632.47,-64.25"/>
<polygon fill="#63b8ff" stroke="#63b8ff" points="608.56,-60.75 598.56,-64.25 608.56,-67.75 608.56,-60.75"/>
</a>
</g>
</g>
<!-- Node3 -->
<g id="Node000003" class="node">
<title>Node3</title>
<g id="a_Node000003"><a xlink:href="classyaclib_1_1detail_1_1InlineCore.html" target="_top" xlink:title=" ">
<polygon fill="white" stroke="#666666" points="445,-73.88 328.5,-73.88 328.5,-54.62 445,-54.62 445,-73.88"/>
<text text-anchor="middle" x="386.75" y="-60.38" font-family="Helvetica,sans-Serif" font-size="10.00">yaclib::detail::InlineCore</text>
</a>
</g>
</g>
<!-- Node3&#45;&gt;Node2 -->
<g id="edge2_Node000002_Node000003" class="edge">
<title>Node3&#45;&gt;Node2</title>
<g id="a_edge2_Node000002_Node000003"><a xlink:title=" ">
<path fill="none" stroke="#63b8ff" d="M456.63,-64.25C464.67,-64.25 472.81,-64.25 480.66,-64.25"/>
<polygon fill="#63b8ff" stroke="#63b8ff" points="456.88,-60.75 446.88,-64.25 456.88,-67.75 456.88,-60.75"/>
</a>
</g>
</g>
<!-- Node4 -->
<g id="Node000004" class="node">
<title>Node4</title>
<g id="a_Node000004"><a xlink:href="classyaclib_1_1Job.html" target="_top" xlink:title="Callable that can be executed in an IExecutor.">
<polygon fill="white" stroke="#666666" points="292.5,-73.88 231.5,-73.88 231.5,-54.62 292.5,-54.62 292.5,-73.88"/>
<text text-anchor="middle" x="262" y="-60.38" font-family="Helvetica,sans-Serif" font-size="10.00">yaclib::Job</text>
</a>
</g>
</g>
<!-- Node4&#45;&gt;Node3 -->
<g id="edge3_Node000003_Node000004" class="edge">
<title>Node4&#45;&gt;Node3</title>
<g id="a_edge3_Node000003_Node000004"><a xlink:title=" ">
<path fill="none" stroke="#63b8ff" d="M304.12,-64.25C311.93,-64.25 320.23,-64.25 328.44,-64.25"/>
<polygon fill="#63b8ff" stroke="#63b8ff" points="304.23,-60.75 294.23,-64.25 304.23,-67.75 304.23,-60.75"/>
</a>
</g>
</g>
<!-- Node5 -->
<g id="Node000005" class="node">
<title>Node5</title>
<g id="a_Node000005"><a xlink:href="classyaclib_1_1IFunc.html" target="_top" xlink:title="Callable interface.">
<polygon fill="white" stroke="#666666" points="182.38,-92.88 112.38,-92.88 112.38,-73.62 182.38,-73.62 182.38,-92.88"/>
<text text-anchor="middle" x="147.38" y="-79.38" font-family="Helvetica,sans-Serif" font-size="10.00">yaclib::IFunc</text>
</a>
</g>
</g>
<!-- Node5&#45;&gt;Node4 -->
<g id="edge4_Node000004_Node000005" class="edge">
<title>Node5&#45;&gt;Node4</title>
<g id="a_edge4_Node000004_Node000005"><a xlink:title=" ">
<path fill="none" stroke="#63b8ff" d="M194.05,-75.54C206.64,-73.42 219.96,-71.17 231.37,-69.25"/>
<polygon fill="#63b8ff" stroke="#63b8ff" points="193.55,-72.08 184.27,-77.19 194.71,-78.98 193.55,-72.08"/>
</a>
</g>
</g>
<!-- Node6 -->
<g id="Node000006" class="node">
<title>Node6</title>
<g id="a_Node000006"><a xlink:href="classyaclib_1_1IRef.html" target="_top" xlink:title="Reference counting interface.">
<polygon fill="white" stroke="#666666" points="63.25,-92.88 0,-92.88 0,-73.62 63.25,-73.62 63.25,-92.88"/>
<text text-anchor="middle" x="31.62" y="-79.38" font-family="Helvetica,sans-Serif" font-size="10.00">yaclib::IRef</text>
</a>
</g>
</g>
<!-- Node6&#45;&gt;Node5 -->
<g id="edge5_Node000005_Node000006" class="edge">
<title>Node6&#45;&gt;Node5</title>
<g id="a_edge5_Node000005_Node000006"><a xlink:title=" ">
<path fill="none" stroke="#63b8ff" d="M75.06,-83.25C87.29,-83.25 100.47,-83.25 112.13,-83.25"/>
<polygon fill="#63b8ff" stroke="#63b8ff" points="75.22,-79.75 65.22,-83.25 75.22,-86.75 75.22,-79.75"/>
</a>
</g>
</g>
<!-- Node7 -->
<g id="Node000007" class="node">
<title>Node7</title>
<g id="a_Node000007"><a xlink:href="structyaclib_1_1detail_1_1Node.html" target="_top" xlink:title="Node class, used in intrusive data structure.">
<polygon fill="white" stroke="#666666" points="195.5,-55.88 99.25,-55.88 99.25,-36.62 195.5,-36.62 195.5,-55.88"/>
<text text-anchor="middle" x="147.38" y="-42.38" font-family="Helvetica,sans-Serif" font-size="10.00">yaclib::detail::Node</text>
</a>
</g>
</g>
<!-- Node7&#45;&gt;Node4 -->
<g id="edge6_Node000004_Node000007" class="edge">
<title>Node7&#45;&gt;Node4</title>
<g id="a_edge6_Node000004_Node000007"><a xlink:title=" ">
<path fill="none" stroke="#63b8ff" d="M207.18,-55.65C215.53,-56.98 223.81,-58.31 231.28,-59.5"/>
<polygon fill="#63b8ff" stroke="#63b8ff" points="207.73,-52.19 197.31,-54.07 206.63,-59.1 207.73,-52.19"/>
</a>
</g>
</g>
<!-- Node9 -->
<g id="Node000009" class="node">
<title>Node9</title>
<g id="a_Node000009"><a xlink:href="classyaclib_1_1detail_1_1PromiseType.html" target="_top" xlink:title=" ">
<polygon fill="white" stroke="#666666" points="1124.75,-133.5 994.75,-133.5 994.75,-103 1124.75,-103 1124.75,-133.5"/>
<text text-anchor="start" x="1002.75" y="-120" font-family="Helvetica,sans-Serif" font-size="10.00">yaclib::detail::PromiseType</text>
<text text-anchor="middle" x="1059.75" y="-108.75" font-family="Helvetica,sans-Serif" font-size="10.00">&lt; V, E, Lazy &gt;</text>
</a>
</g>
</g>
<!-- Node8&#45;&gt;Node9 -->
<g id="edge8_Node000008_Node000009" class="edge">
<title>Node8&#45;&gt;Node9</title>
<g id="a_edge8_Node000008_Node000009"><a xlink:title=" ">
<path fill="none" stroke="#63b8ff" d="M970.58,-118.25C978.61,-118.25 986.62,-118.25 994.33,-118.25"/>
<polygon fill="#63b8ff" stroke="#63b8ff" points="970.73,-114.75 960.73,-118.25 970.73,-121.75 970.73,-114.75"/>
</a>
</g>
</g>
</g>
</svg>
