<?xml version="1.0" encoding="UTF-8" standalone="no"?>
<!DOCTYPE svg PUBLIC "-//W3C//DTD SVG 1.1//EN"
 "http://www.w3.org/Graphics/SVG/1.1/DTD/svg11.dtd">
<!-- Generated by graphviz version 9.0.0 (20230911.1827)
 -->
<!-- Title: yaclib::detail::PromiseCore&lt; V, E, Func &gt; Pages: 1 -->
<svg width="287pt" height="381pt"
 viewBox="0.00 0.00 286.50 381.25" xmlns="http://www.w3.org/2000/svg" xmlns:xlink="http://www.w3.org/1999/xlink">
<g id="graph0" class="graph" transform="scale(1 1) rotate(0) translate(4 377.25)">
<title>yaclib::detail::PromiseCore&lt; V, E, Func &gt;</title>
<!-- Node1 -->
<g id="Node000001" class="node">
<title>Node1</title>
<g id="a_Node000001"><a xlink:title=" ">
<polygon fill="#999999" stroke="#666666" points="217.62,-30.5 88.38,-30.5 88.38,0 217.62,0 217.62,-30.5"/>
<text text-anchor="start" x="96.38" y="-17" font-family="Helvetica,sans-Serif" font-size="10.00">yaclib::detail::PromiseCore</text>
<text text-anchor="middle" x="153" y="-5.75" font-family="Helvetica,sans-Serif" font-size="10.00">&lt; V, E, Func &gt;</text>
</a>
</g>
</g>
<!-- Node2 -->
<g id="Node000002" class="node">
<title>Node2</title>
<g id="a_Node000002"><a xlink:href="classyaclib_1_1detail_1_1ResultCore.html" target="_top" xlink:title=" ">
<polygon fill="white" stroke="#666666" points="145.5,-97 24.5,-97 24.5,-66.5 145.5,-66.5 145.5,-97"/>
<text text-anchor="start" x="32.5" y="-83.5" font-family="Helvetica,sans-Serif" font-size="10.00">yaclib::detail::ResultCore</text>
<text text-anchor="middle" x="85" y="-72.25" font-family="Helvetica,sans-Serif" font-size="10.00">&lt; V, E &gt;</text>
</a>
</g>
</g>
<!-- Node2&#45;&gt;Node1 -->
<g id="edge1_Node000001_Node000002" class="edge">
<title>Node2&#45;&gt;Node1</title>
<g id="a_edge1_Node000001_Node000002"><a xlink:title=" ">
<path fill="none" stroke="#63b8ff" d="M108.49,-58.46C118.14,-49.32 129.03,-38.98 137.63,-30.83"/>
<polygon fill="#63b8ff" stroke="#63b8ff" points="106.38,-55.65 101.53,-65.07 111.19,-60.73 106.38,-55.65"/>
</a>
</g>
</g>
<!-- Node3 -->
<g id="Node000003" class="node">
<title>Node3</title>
<g id="a_Node000003"><a xlink:href="classyaclib_1_1detail_1_1BaseCore.html" target="_top" xlink:title=" ">
<polygon fill="white" stroke="#666666" points="142.88,-152.25 27.12,-152.25 27.12,-133 142.88,-133 142.88,-152.25"/>
<text text-anchor="middle" x="85" y="-138.75" font-family="Helvetica,sans-Serif" font-size="10.00">yaclib::detail::BaseCore</text>
</a>
</g>
</g>
<!-- Node3&#45;&gt;Node2 -->
<g id="edge2_Node000002_Node000003" class="edge">
<title>Node3&#45;&gt;Node2</title>
<g id="a_edge2_Node000002_Node000003"><a xlink:title=" ">
<path fill="none" stroke="#63b8ff" d="M85,-121.42C85,-113.49 85,-104.56 85,-97.28"/>
<polygon fill="#63b8ff" stroke="#63b8ff" points="81.5,-121.17 85,-131.17 88.5,-121.17 81.5,-121.17"/>
</a>
</g>
</g>
<!-- Node4 -->
<g id="Node000004" class="node">
<title>Node4</title>
<g id="a_Node000004"><a xlink:href="classyaclib_1_1detail_1_1InlineCore.html" target="_top" xlink:title=" ">
<polygon fill="white" stroke="#666666" points="143.25,-207.5 26.75,-207.5 26.75,-188.25 143.25,-188.25 143.25,-207.5"/>
<text text-anchor="middle" x="85" y="-194" font-family="Helvetica,sans-Serif" font-size="10.00">yaclib::detail::InlineCore</text>
</a>
</g>
</g>
<!-- Node4&#45;&gt;Node3 -->
<g id="edge3_Node000003_Node000004" class="edge">
<title>Node4&#45;&gt;Node3</title>
<g id="a_edge3_Node000003_Node000004"><a xlink:title=" ">
<path fill="none" stroke="#63b8ff" d="M85,-176.63C85,-168.34 85,-159.17 85,-152.61"/>
<polygon fill="#63b8ff" stroke="#63b8ff" points="81.5,-176.57 85,-186.57 88.5,-176.57 81.5,-176.57"/>
</a>
</g>
</g>
<!-- Node5 -->
<g id="Node000005" class="node">
<title>Node5</title>
<g id="a_Node000005"><a xlink:href="classyaclib_1_1Job.html" target="_top" xlink:title="Callable that can be executed in an IExecutor.">
<polygon fill="white" stroke="#666666" points="115.5,-262.75 54.5,-262.75 54.5,-243.5 115.5,-243.5 115.5,-262.75"/>
<text text-anchor="middle" x="85" y="-249.25" font-family="Helvetica,sans-Serif" font-size="10.00">yaclib::Job</text>
</a>
</g>
</g>
<!-- Node5&#45;&gt;Node4 -->
<g id="edge4_Node000004_Node000005" class="edge">
<title>Node5&#45;&gt;Node4</title>
<g id="a_edge4_Node000004_Node000005"><a xlink:title=" ">
<path fill="none" stroke="#63b8ff" d="M85,-231.88C85,-223.59 85,-214.42 85,-207.86"/>
<polygon fill="#63b8ff" stroke="#63b8ff" points="81.5,-231.82 85,-241.82 88.5,-231.82 81.5,-231.82"/>
</a>
</g>
</g>
<!-- Node6 -->
<g id="Node000006" class="node">
<title>Node6</title>
<g id="a_Node000006"><a xlink:href="classyaclib_1_1IFunc.html" target="_top" xlink:title="Callable interface.">
<polygon fill="white" stroke="#666666" points="70,-318 0,-318 0,-298.75 70,-298.75 70,-318"/>
<text text-anchor="middle" x="35" y="-304.5" font-family="Helvetica,sans-Serif" font-size="10.00">yaclib::IFunc</text>
</a>
</g>
</g>
<!-- Node6&#45;&gt;Node5 -->
<g id="edge5_Node000005_Node000006" class="edge">
<title>Node6&#45;&gt;Node5</title>
<g id="a_edge5_Node000005_Node000006"><a xlink:title=" ">
<path fill="none" stroke="#63b8ff" d="M51.04,-290.29C59.53,-281.25 69.6,-270.52 76.56,-263.11"/>
<polygon fill="#63b8ff" stroke="#63b8ff" points="48.59,-287.79 44.29,-297.48 53.69,-292.58 48.59,-287.79"/>
</a>
</g>
</g>
<!-- Node7 -->
<g id="Node000007" class="node">
<title>Node7</title>
<g id="a_Node000007"><a xlink:href="classyaclib_1_1IRef.html" target="_top" xlink:title="Reference counting interface.">
<polygon fill="white" stroke="#666666" points="66.62,-373.25 3.38,-373.25 3.38,-354 66.62,-354 66.62,-373.25"/>
<text text-anchor="middle" x="35" y="-359.75" font-family="Helvetica,sans-Serif" font-size="10.00">yaclib::IRef</text>
</a>
</g>
</g>
<!-- Node7&#45;&gt;Node6 -->
<g id="edge6_Node000006_Node000007" class="edge">
<title>Node7&#45;&gt;Node6</title>
<g id="a_edge6_Node000006_Node000007"><a xlink:title=" ">
<path fill="none" stroke="#63b8ff" d="M35,-342.38C35,-334.09 35,-324.92 35,-318.36"/>
<polygon fill="#63b8ff" stroke="#63b8ff" points="31.5,-342.32 35,-352.32 38.5,-342.32 31.5,-342.32"/>
</a>
</g>
</g>
<!-- Node8 -->
<g id="Node000008" class="node">
<title>Node8</title>
<g id="a_Node000008"><a xlink:href="structyaclib_1_1detail_1_1Node.html" target="_top" xlink:title="Node class, used in intrusive data structure.">
<polygon fill="white" stroke="#666666" points="184.12,-318 87.88,-318 87.88,-298.75 184.12,-298.75 184.12,-318"/>
<text text-anchor="middle" x="136" y="-304.5" font-family="Helvetica,sans-Serif" font-size="10.00">yaclib::detail::Node</text>
</a>
</g>
</g>
<!-- Node8&#45;&gt;Node5 -->
<g id="edge7_Node000005_Node000008" class="edge">
<title>Node8&#45;&gt;Node5</title>
<g id="a_edge7_Node000005_Node000008"><a xlink:title=" ">
<path fill="none" stroke="#63b8ff" d="M119.64,-290.29C110.98,-281.25 100.7,-270.52 93.6,-263.11"/>
<polygon fill="#63b8ff" stroke="#63b8ff" points="117.09,-292.69 126.53,-297.49 122.14,-287.85 117.09,-292.69"/>
</a>
</g>
</g>
<!-- Node9 -->
<g id="Node000009" class="node">
<title>Node9</title>
<g id="a_Node000009"><a xlink:href="classyaclib_1_1detail_1_1FuncCore.html" target="_top" xlink:title=" ">
<polygon fill="white" stroke="#666666" points="278.5,-97 163.5,-97 163.5,-66.5 278.5,-66.5 278.5,-97"/>
<text text-anchor="start" x="171.5" y="-83.5" font-family="Helvetica,sans-Serif" font-size="10.00">yaclib::detail::FuncCore</text>
<text text-anchor="middle" x="221" y="-72.25" font-family="Helvetica,sans-Serif" font-size="10.00">&lt; Func &gt;</text>
</a>
</g>
</g>
<!-- Node9&#45;&gt;Node1 -->
<g id="edge8_Node000001_Node000009" class="edge">
<title>Node9&#45;&gt;Node1</title>
<g id="a_edge8_Node000001_Node000009"><a xlink:title=" ">
<path fill="none" stroke="#63b8ff" d="M197.51,-58.46C187.86,-49.32 176.97,-38.98 168.37,-30.83"/>
<polygon fill="#63b8ff" stroke="#63b8ff" points="194.81,-60.73 204.47,-65.07 199.62,-55.65 194.81,-60.73"/>
</a>
</g>
</g>
</g>
</svg>
