<?xml version="1.0" encoding="UTF-8" standalone="no"?>
<!DOCTYPE svg PUBLIC "-//W3C//DTD SVG 1.1//EN"
 "http://www.w3.org/Graphics/SVG/1.1/DTD/svg11.dtd">
<!-- Generated by graphviz version 3.0.0 (20220413.0242)
 -->
<!-- Title: yaclib::detail::AtomicFloatingBase&lt; Impl, T, IsFloating &gt; Pages: 1 -->
<svg width="147pt" height="363pt"
 viewBox="0.00 0.00 147.00 363.00" xmlns="http://www.w3.org/2000/svg" xmlns:xlink="http://www.w3.org/1999/xlink">
<g id="graph0" class="graph" transform="scale(1 1) rotate(0) translate(4 359)">
<title>yaclib::detail::AtomicFloatingBase&lt; Impl, T, IsFloating &gt;</title>
<!-- Node1 -->
<g id="node1" class="node">
<title>Node1</title>
<g id="a_node1"><a xlink:title=" ">
<polygon fill="#bfbfbf" stroke="black" points="0,-134.5 0,-164.5 139,-164.5 139,-134.5 0,-134.5"/>
<text text-anchor="start" x="8" y="-152.5" font-family="Helvetica,sans-Serif" font-size="10.00">yaclib::detail::AtomicFloating</text>
<text text-anchor="middle" x="69.5" y="-141.5" font-family="Helvetica,sans-Serif" font-size="10.00">Base&lt; Impl, T, IsFloating &gt;</text>
</a>
</g>
</g>
<!-- Node5 -->
<g id="node5" class="node">
<title>Node5</title>
<g id="a_node5"><a xlink:href="classyaclib_1_1detail_1_1AtomicIntegralBase.html" target="_top" xlink:title=" ">
<polygon fill="none" stroke="black" points="1,-67.5 1,-97.5 138,-97.5 138,-67.5 1,-67.5"/>
<text text-anchor="start" x="9" y="-85.5" font-family="Helvetica,sans-Serif" font-size="10.00">yaclib::detail::AtomicIntegral</text>
<text text-anchor="middle" x="69.5" y="-74.5" font-family="Helvetica,sans-Serif" font-size="10.00">Base&lt; Impl, T, IsIntegral &gt;</text>
</a>
</g>
</g>
<!-- Node1&#45;&gt;Node5 -->
<g id="edge4" class="edge">
<title>Node1&#45;&gt;Node5</title>
<path fill="none" stroke="midnightblue" d="M69.5,-124.11C69.5,-115.15 69.5,-105.32 69.5,-97.58"/>
<polygon fill="midnightblue" stroke="midnightblue" points="66,-124.4 69.5,-134.4 73,-124.4 66,-124.4"/>
</g>
<!-- Node2 -->
<g id="node2" class="node">
<title>Node2</title>
<g id="a_node2"><a xlink:href="classyaclib_1_1detail_1_1AtomicBase.html" target="_top" xlink:title=" ">
<polygon fill="none" stroke="black" points="6,-201.5 6,-231.5 133,-231.5 133,-201.5 6,-201.5"/>
<text text-anchor="start" x="14" y="-219.5" font-family="Helvetica,sans-Serif" font-size="10.00">yaclib::detail::AtomicBase</text>
<text text-anchor="middle" x="69.5" y="-208.5" font-family="Helvetica,sans-Serif" font-size="10.00">&lt; Impl, T &gt;</text>
</a>
</g>
</g>
<!-- Node2&#45;&gt;Node1 -->
<g id="edge1" class="edge">
<title>Node2&#45;&gt;Node1</title>
<path fill="none" stroke="midnightblue" d="M69.5,-191.11C69.5,-182.15 69.5,-172.32 69.5,-164.58"/>
<polygon fill="midnightblue" stroke="midnightblue" points="66,-191.4 69.5,-201.4 73,-191.4 66,-191.4"/>
</g>
<!-- Node3 -->
<g id="node3" class="node">
<title>Node3</title>
<g id="a_node3"><a xlink:href="classyaclib_1_1detail_1_1AtomicWait.html" target="_top" xlink:title=" ">
<polygon fill="none" stroke="black" points="7.5,-268.5 7.5,-298.5 131.5,-298.5 131.5,-268.5 7.5,-268.5"/>
<text text-anchor="start" x="15.5" y="-286.5" font-family="Helvetica,sans-Serif" font-size="10.00">yaclib::detail::AtomicWait</text>
<text text-anchor="middle" x="69.5" y="-275.5" font-family="Helvetica,sans-Serif" font-size="10.00">&lt; Impl, T &gt;</text>
</a>
</g>
</g>
<!-- Node3&#45;&gt;Node2 -->
<g id="edge2" class="edge">
<title>Node3&#45;&gt;Node2</title>
<path fill="none" stroke="midnightblue" d="M69.5,-258.11C69.5,-249.15 69.5,-239.32 69.5,-231.58"/>
<polygon fill="midnightblue" stroke="midnightblue" points="66,-258.4 69.5,-268.4 73,-258.4 66,-258.4"/>
</g>
<!-- Node4 -->
<g id="node4" class="node">
<title>Node4</title>
<g id="a_node4"><a xlink:title=" ">
<polygon fill="none" stroke="black" points="52,-335.5 52,-354.5 87,-354.5 87,-335.5 52,-335.5"/>
<text text-anchor="middle" x="69.5" y="-342.5" font-family="Helvetica,sans-Serif" font-size="10.00">Impl</text>
</a>
</g>
</g>
<!-- Node4&#45;&gt;Node3 -->
<g id="edge3" class="edge">
<title>Node4&#45;&gt;Node3</title>
<path fill="none" stroke="darkgreen" d="M69.5,-325.23C69.5,-316.59 69.5,-306.5 69.5,-298.52"/>
<polygon fill="darkgreen" stroke="darkgreen" points="66,-325.48 69.5,-335.48 73,-325.48 66,-325.48"/>
</g>
<!-- Node6 -->
<g id="node6" class="node">
<title>Node6</title>
<g id="a_node6"><a xlink:href="classyaclib_1_1detail_1_1Atomic.html" target="_top" xlink:title=" ">
<polygon fill="none" stroke="black" points="17.5,-0.5 17.5,-30.5 121.5,-30.5 121.5,-0.5 17.5,-0.5"/>
<text text-anchor="start" x="25.5" y="-18.5" font-family="Helvetica,sans-Serif" font-size="10.00">yaclib::detail::Atomic</text>
<text text-anchor="middle" x="69.5" y="-7.5" font-family="Helvetica,sans-Serif" font-size="10.00">&lt; Impl, T &gt;</text>
</a>
</g>
</g>
<!-- Node5&#45;&gt;Node6 -->
<g id="edge5" class="edge">
<title>Node5&#45;&gt;Node6</title>
<path fill="none" stroke="midnightblue" d="M69.5,-57.11C69.5,-48.15 69.5,-38.32 69.5,-30.58"/>
<polygon fill="midnightblue" stroke="midnightblue" points="66,-57.4 69.5,-67.4 73,-57.4 66,-57.4"/>
</g>
</g>
</svg>
