<?xml version="1.0" encoding="UTF-8" standalone="no"?>
<!DOCTYPE svg PUBLIC "-//W3C//DTD SVG 1.1//EN"
 "http://www.w3.org/Graphics/SVG/1.1/DTD/svg11.dtd">
<!-- Generated by graphviz version 9.0.0 (20230911.1827)
 -->
<!-- Title: yaclib::detail::AllCombinator&lt; OrderPolicy::Same, R, E &gt; Pages: 1 -->
<svg width="906pt" height="170pt"
 viewBox="0.00 0.00 905.75 169.88" xmlns="http://www.w3.org/2000/svg" xmlns:xlink="http://www.w3.org/1999/xlink">
<g id="graph0" class="graph" transform="scale(1 1) rotate(0) translate(4 165.88)">
<title>yaclib::detail::AllCombinator&lt; OrderPolicy::Same, R, E &gt;</title>
<!-- Node1 -->
<g id="Node000001" class="node">
<title>Node1</title>
<g id="a_Node000001"><a xlink:title=" ">
<polygon fill="#999999" stroke="#666666" points="897.75,-100.5 761.75,-100.5 761.75,-70 897.75,-70 897.75,-100.5"/>
<text text-anchor="start" x="769.75" y="-87" font-family="Helvetica,sans-Serif" font-size="10.00">yaclib::detail::AllCombinator</text>
<text text-anchor="middle" x="829.75" y="-75.75" font-family="Helvetica,sans-Serif" font-size="10.00">&lt; OrderPolicy::Same, R, E &gt;</text>
</a>
</g>
</g>
<!-- Node2 -->
<g id="Node000002" class="node">
<title>Node2</title>
<g id="a_Node000002"><a xlink:href="classyaclib_1_1detail_1_1InlineCore.html" target="_top" xlink:title=" ">
<polygon fill="white" stroke="#666666" points="709.38,-116.88 592.88,-116.88 592.88,-97.62 709.38,-97.62 709.38,-116.88"/>
<text text-anchor="middle" x="651.12" y="-103.38" font-family="Helvetica,sans-Serif" font-size="10.00">yaclib::detail::InlineCore</text>
</a>
</g>
</g>
<!-- Node2&#45;&gt;Node1 -->
<g id="edge1_Node000001_Node000002" class="edge">
<title>Node2&#45;&gt;Node1</title>
<g id="a_edge1_Node000001_Node000002"><a xlink:title=" ">
<path fill="none" stroke="#63b8ff" d="M720.59,-98.72C734.04,-97.05 748.14,-95.29 761.55,-93.62"/>
<polygon fill="#63b8ff" stroke="#63b8ff" points="720.46,-95.21 710.97,-99.92 721.33,-102.16 720.46,-95.21"/>
</a>
</g>
</g>
<!-- Node3 -->
<g id="Node000003" class="node">
<title>Node3</title>
<g id="a_Node000003"><a xlink:href="classyaclib_1_1Job.html" target="_top" xlink:title="Callable that can be executed in an IExecutor.">
<polygon fill="white" stroke="#666666" points="394.12,-116.88 333.12,-116.88 333.12,-97.62 394.12,-97.62 394.12,-116.88"/>
<text text-anchor="middle" x="363.62" y="-103.38" font-family="Helvetica,sans-Serif" font-size="10.00">yaclib::Job</text>
</a>
</g>
</g>
<!-- Node3&#45;&gt;Node2 -->
<g id="edge2_Node000002_Node000003" class="edge">
<title>Node3&#45;&gt;Node2</title>
<g id="a_edge2_Node000002_Node000003"><a xlink:title=" ">
<path fill="none" stroke="#63b8ff" d="M405.81,-107.25C454.91,-107.25 537.29,-107.25 592.65,-107.25"/>
<polygon fill="#63b8ff" stroke="#63b8ff" points="405.88,-103.75 395.88,-107.25 405.88,-110.75 405.88,-103.75"/>
</a>
</g>
</g>
<!-- Node4 -->
<g id="Node000004" class="node">
<title>Node4</title>
<g id="a_Node000004"><a xlink:href="classyaclib_1_1IFunc.html" target="_top" xlink:title="Callable interface.">
<polygon fill="white" stroke="#666666" points="219.12,-161.88 149.12,-161.88 149.12,-142.62 219.12,-142.62 219.12,-161.88"/>
<text text-anchor="middle" x="184.12" y="-148.38" font-family="Helvetica,sans-Serif" font-size="10.00">yaclib::IFunc</text>
</a>
</g>
</g>
<!-- Node4&#45;&gt;Node3 -->
<g id="edge3_Node000003_Node000004" class="edge">
<title>Node4&#45;&gt;Node3</title>
<g id="a_edge3_Node000003_Node000004"><a xlink:title=" ">
<path fill="none" stroke="#63b8ff" d="M230.24,-140.81C262.35,-132.67 304.6,-121.96 332.64,-114.85"/>
<polygon fill="#63b8ff" stroke="#63b8ff" points="229.65,-137.35 220.82,-143.2 231.37,-144.14 229.65,-137.35"/>
</a>
</g>
</g>
<!-- Node5 -->
<g id="Node000005" class="node">
<title>Node5</title>
<g id="a_Node000005"><a xlink:href="classyaclib_1_1IRef.html" target="_top" xlink:title="Reference counting interface.">
<polygon fill="white" stroke="#666666" points="63.25,-161.88 0,-161.88 0,-142.62 63.25,-142.62 63.25,-161.88"/>
<text text-anchor="middle" x="31.62" y="-148.38" font-family="Helvetica,sans-Serif" font-size="10.00">yaclib::IRef</text>
</a>
</g>
</g>
<!-- Node5&#45;&gt;Node4 -->
<g id="edge4_Node000004_Node000005" class="edge">
<title>Node5&#45;&gt;Node4</title>
<g id="a_edge4_Node000004_Node000005"><a xlink:title=" ">
<path fill="none" stroke="#63b8ff" d="M74.75,-152.25C98.07,-152.25 126.7,-152.25 148.67,-152.25"/>
<polygon fill="#63b8ff" stroke="#63b8ff" points="74.96,-148.75 64.96,-152.25 74.96,-155.75 74.96,-148.75"/>
</a>
</g>
</g>
<!-- Node6 -->
<g id="Node000006" class="node">
<title>Node6</title>
<g id="a_Node000006"><a xlink:href="structyaclib_1_1detail_1_1Node.html" target="_top" xlink:title="Node class, used in intrusive data structure.">
<polygon fill="white" stroke="#666666" points="232.25,-94.88 136,-94.88 136,-75.62 232.25,-75.62 232.25,-94.88"/>
<text text-anchor="middle" x="184.12" y="-81.38" font-family="Helvetica,sans-Serif" font-size="10.00">yaclib::detail::Node</text>
</a>
</g>
</g>
<!-- Node6&#45;&gt;Node3 -->
<g id="edge5_Node000003_Node000006" class="edge">
<title>Node6&#45;&gt;Node3</title>
<g id="a_edge5_Node000003_Node000006"><a xlink:title=" ">
<path fill="none" stroke="#63b8ff" d="M243.83,-92.53C273.62,-96.22 308.54,-100.55 332.77,-103.55"/>
<polygon fill="#63b8ff" stroke="#63b8ff" points="244.55,-89.09 234.19,-91.33 243.69,-96.04 244.55,-89.09"/>
</a>
</g>
</g>
<!-- Node6&#45;&gt;Node6 -->
<g id="edge6_Node000006_Node000006" class="edge">
<title>Node6&#45;&gt;Node6</title>
<g id="a_edge6_Node000006_Node000006"><a xlink:title=" ">
<path fill="none" stroke="#9a32cd" stroke-dasharray="5,2" d="M169.86,-106.28C171.64,-110.15 176.4,-112.88 184.12,-112.88 198.25,-112.88 202.45,-103.77 196.71,-95.16"/>
<polygon fill="#9a32cd" stroke="#9a32cd" points="173.28,-107.07 171.32,-96.66 166.36,-106.02 173.28,-107.07"/>
</a>
</g>
<text text-anchor="middle" x="184.12" y="-114.62" font-family="Helvetica,sans-Serif" font-size="10.00" fill="grey"> next</text>
</g>
<!-- Node7 -->
<g id="Node000007" class="node">
<title>Node7</title>
<g id="a_Node000007"><a xlink:href="structyaclib_1_1detail_1_1AllCombinatorBase.html" target="_top" xlink:title=" ">
<polygon fill="white" stroke="#666666" points="724.75,-79.5 577.5,-79.5 577.5,-49 724.75,-49 724.75,-79.5"/>
<text text-anchor="start" x="585.5" y="-66" font-family="Helvetica,sans-Serif" font-size="10.00">yaclib::detail::AllCombinator</text>
<text text-anchor="middle" x="651.12" y="-54.75" font-family="Helvetica,sans-Serif" font-size="10.00">Base&lt; OrderPolicy::Same, R &gt;</text>
</a>
</g>
</g>
<!-- Node7&#45;&gt;Node1 -->
<g id="edge7_Node000001_Node000007" class="edge">
<title>Node7&#45;&gt;Node1</title>
<g id="a_edge7_Node000001_Node000007"><a xlink:title=" ">
<path fill="none" stroke="#63b8ff" d="M736.54,-74.29C744.86,-75.28 753.23,-76.27 761.35,-77.24"/>
<polygon fill="#63b8ff" stroke="#63b8ff" points="737.09,-70.83 726.74,-73.12 736.26,-77.78 737.09,-70.83"/>
</a>
</g>
</g>
<!-- Node8 -->
<g id="Node000008" class="node">
<title>Node8</title>
<g id="a_Node000008"><a xlink:title=" ">
<polygon fill="white" stroke="#666666" points="224,-44.88 144.25,-44.88 144.25,-25.62 224,-25.62 224,-44.88"/>
<text text-anchor="middle" x="184.12" y="-31.38" font-family="Helvetica,sans-Serif" font-size="10.00">atomic&lt; bool &gt;</text>
</a>
</g>
</g>
<!-- Node8&#45;&gt;Node7 -->
<g id="edge8_Node000007_Node000008" class="edge">
<title>Node8&#45;&gt;Node7</title>
<g id="a_edge8_Node000007_Node000008"><a xlink:title=" ">
<path fill="none" stroke="#9a32cd" stroke-dasharray="5,2" d="M235.71,-41.81C240.62,-42.35 245.53,-42.84 250.25,-43.25 364.17,-53.23 496.8,-59.05 577.05,-61.94"/>
<polygon fill="#9a32cd" stroke="#9a32cd" points="236.17,-38.34 225.84,-40.69 235.38,-45.3 236.17,-38.34"/>
</a>
</g>
<text text-anchor="middle" x="363.62" y="-58" font-family="Helvetica,sans-Serif" font-size="10.00" fill="grey"> _done</text>
</g>
<!-- Node10 -->
<g id="Node000010" class="node">
<title>Node10</title>
<g id="a_Node000010"><a xlink:href="structyaclib_1_1detail_1_1AllCombinatorBase.html" target="_top" xlink:title=" ">
<polygon fill="white" stroke="#666666" points="430.5,-30.5 296.75,-30.5 296.75,0 430.5,0 430.5,-30.5"/>
<text text-anchor="start" x="304.75" y="-17" font-family="Helvetica,sans-Serif" font-size="10.00">yaclib::detail::AllCombinator</text>
<text text-anchor="middle" x="363.62" y="-5.75" font-family="Helvetica,sans-Serif" font-size="10.00">Base&lt; O, V &gt;</text>
</a>
</g>
</g>
<!-- Node8&#45;&gt;Node10 -->
<g id="edge11_Node000010_Node000008" class="edge">
<title>Node8&#45;&gt;Node10</title>
<g id="a_edge11_Node000010_Node000008"><a xlink:title=" ">
<path fill="none" stroke="#9a32cd" stroke-dasharray="5,2" d="M235.48,-29.58C254.46,-27.44 276.34,-24.97 296.55,-22.7"/>
<polygon fill="#9a32cd" stroke="#9a32cd" points="235.13,-26.09 225.58,-30.69 235.91,-33.05 235.13,-26.09"/>
</a>
</g>
<text text-anchor="middle" x="264.5" y="-30" font-family="Helvetica,sans-Serif" font-size="10.00" fill="grey"> _done</text>
</g>
<!-- Node9 -->
<g id="Node000009" class="node">
<title>Node9</title>
<g id="a_Node000009"><a xlink:title=" ">
<polygon fill="white" stroke="#666666" points="54.25,-44.88 9,-44.88 9,-25.62 54.25,-25.62 54.25,-44.88"/>
<text text-anchor="middle" x="31.62" y="-31.38" font-family="Helvetica,sans-Serif" font-size="10.00">atomic</text>
</a>
</g>
</g>
<!-- Node9&#45;&gt;Node8 -->
<g id="edge9_Node000008_Node000009" class="edge">
<title>Node9&#45;&gt;Node8</title>
<g id="a_edge9_Node000008_Node000009"><a xlink:title=" ">
<path fill="none" stroke="orange" stroke-dasharray="5,2" d="M65.79,-35.25C88.86,-35.25 119.72,-35.25 144,-35.25"/>
<polygon fill="orange" stroke="orange" points="66.02,-31.75 56.02,-35.25 66.02,-38.75 66.02,-31.75"/>
</a>
</g>
<text text-anchor="middle" x="99.62" y="-37" font-family="Helvetica,sans-Serif" font-size="10.00" fill="grey"> &lt; bool &gt;</text>
</g>
<!-- Node10&#45;&gt;Node7 -->
<g id="edge10_Node000007_Node000010" class="edge">
<title>Node10&#45;&gt;Node7</title>
<g id="a_edge10_Node000007_Node000010"><a xlink:title=" ">
<path fill="none" stroke="orange" stroke-dasharray="5,2" d="M442.17,-23.34C478.03,-27.63 521.1,-33.57 559.5,-41 570.5,-43.13 582.16,-45.8 593.32,-48.57"/>
<polygon fill="orange" stroke="orange" points="442.63,-19.87 432.29,-22.18 441.82,-26.82 442.63,-19.87"/>
</a>
</g>
<text text-anchor="middle" x="504" y="-43" font-family="Helvetica,sans-Serif" font-size="10.00" fill="grey"> &lt; OrderPolicy::Same, R &gt;</text>
</g>
</g>
</svg>
