<?xml version="1.0" encoding="UTF-8" standalone="no"?>
<!DOCTYPE svg PUBLIC "-//W3C//DTD SVG 1.1//EN"
 "http://www.w3.org/Graphics/SVG/1.1/DTD/svg11.dtd">
<!-- Generated by graphviz version 3.0.0 (20221109.1736)
 -->
<!-- Title: yaclib::detail::Guard&lt; M, Shared &gt; Pages: 1 -->
<svg width="424pt" height="231pt"
 viewBox="0.00 0.00 424.00 231.00" xmlns="http://www.w3.org/2000/svg" xmlns:xlink="http://www.w3.org/1999/xlink">
<g id="graph0" class="graph" transform="scale(1 1) rotate(0) translate(4 227)">
<title>yaclib::detail::Guard&lt; M, Shared &gt;</title>
<!-- Node1 -->
<g id="node1" class="node">
<title>Node1</title>
<g id="a_node1"><a xlink:title=" ">
<polygon fill="#bfbfbf" stroke="black" points="86,-135.5 86,-165.5 186,-165.5 186,-135.5 86,-135.5"/>
<text text-anchor="start" x="94" y="-153.5" font-family="Helvetica,sans-Serif" font-size="10.00">yaclib::detail::Guard</text>
<text text-anchor="middle" x="136" y="-142.5" font-family="Helvetica,sans-Serif" font-size="10.00">&lt; M, Shared &gt;</text>
</a>
</g>
</g>
<!-- Node3 -->
<g id="node3" class="node">
<title>Node3</title>
<g id="a_node3"><a xlink:href="classyaclib_1_1detail_1_1Guard.html" target="_top" xlink:title=" ">
<polygon fill="none" stroke="black" points="27,-57.5 27,-87.5 127,-87.5 127,-57.5 27,-57.5"/>
<text text-anchor="start" x="35" y="-75.5" font-family="Helvetica,sans-Serif" font-size="10.00">yaclib::detail::Guard</text>
<text text-anchor="middle" x="77" y="-64.5" font-family="Helvetica,sans-Serif" font-size="10.00">&lt; M, true &gt;</text>
</a>
</g>
</g>
<!-- Node1&#45;&gt;Node3 -->
<g id="edge2" class="edge">
<title>Node1&#45;&gt;Node3</title>
<path fill="none" stroke="orange" stroke-dasharray="5,2" d="M118.49,-126.94C108.62,-114.23 96.6,-98.75 88.05,-87.73"/>
<polygon fill="orange" stroke="orange" points="116.01,-129.45 124.9,-135.2 121.54,-125.16 116.01,-129.45"/>
<text text-anchor="middle" x="135.5" y="-109" font-family="Helvetica,sans-Serif" font-size="10.00"> &lt; M, true &gt;</text>
</g>
<!-- Node5 -->
<g id="node5" class="node">
<title>Node5</title>
<g id="a_node5"><a xlink:href="classyaclib_1_1detail_1_1Guard.html" target="_top" xlink:title=" ">
<polygon fill="none" stroke="black" points="158,-57.5 158,-87.5 258,-87.5 258,-57.5 158,-57.5"/>
<text text-anchor="start" x="166" y="-75.5" font-family="Helvetica,sans-Serif" font-size="10.00">yaclib::detail::Guard</text>
<text text-anchor="middle" x="208" y="-64.5" font-family="Helvetica,sans-Serif" font-size="10.00">&lt; M, false &gt;</text>
</a>
</g>
</g>
<!-- Node1&#45;&gt;Node5 -->
<g id="edge4" class="edge">
<title>Node1&#45;&gt;Node5</title>
<path fill="none" stroke="orange" stroke-dasharray="5,2" d="M156.68,-127.67C168.84,-114.83 183.87,-98.97 194.52,-87.73"/>
<polygon fill="orange" stroke="orange" points="153.88,-125.54 149.54,-135.2 158.96,-130.35 153.88,-125.54"/>
<text text-anchor="middle" x="203" y="-109" font-family="Helvetica,sans-Serif" font-size="10.00"> &lt; M, false &gt;</text>
</g>
<!-- Node2 -->
<g id="node2" class="node">
<title>Node2</title>
<g id="a_node2"><a xlink:href="classyaclib_1_1detail_1_1GuardState.html" target="_top" xlink:title=" ">
<polygon fill="none" stroke="black" points="74.5,-203.5 74.5,-222.5 197.5,-222.5 197.5,-203.5 74.5,-203.5"/>
<text text-anchor="middle" x="136" y="-210.5" font-family="Helvetica,sans-Serif" font-size="10.00">yaclib::detail::GuardState</text>
</a>
</g>
</g>
<!-- Node2&#45;&gt;Node1 -->
<g id="edge1" class="edge">
<title>Node2&#45;&gt;Node1</title>
<path fill="none" stroke="darkgreen" d="M136,-193.22C136,-184.36 136,-173.96 136,-165.76"/>
<polygon fill="darkgreen" stroke="darkgreen" points="132.5,-193.33 136,-203.33 139.5,-193.33 132.5,-193.33"/>
</g>
<!-- Node4 -->
<g id="node4" class="node">
<title>Node4</title>
<g id="a_node4"><a xlink:href="classyaclib_1_1SharedGuard.html" target="_top" xlink:title=" ">
<polygon fill="none" stroke="black" points="0,-0.5 0,-19.5 128,-19.5 128,-0.5 0,-0.5"/>
<text text-anchor="middle" x="64" y="-7.5" font-family="Helvetica,sans-Serif" font-size="10.00">yaclib::SharedGuard&lt; M &gt;</text>
</a>
</g>
</g>
<!-- Node3&#45;&gt;Node4 -->
<g id="edge3" class="edge">
<title>Node3&#45;&gt;Node4</title>
<path fill="none" stroke="midnightblue" d="M71.88,-47.67C69.75,-37.74 67.41,-26.85 65.84,-19.54"/>
<polygon fill="midnightblue" stroke="midnightblue" points="68.46,-48.43 73.98,-57.47 75.31,-46.96 68.46,-48.43"/>
</g>
<!-- Node6 -->
<g id="node6" class="node">
<title>Node6</title>
<g id="a_node6"><a xlink:href="classyaclib_1_1StickyGuard.html" target="_top" xlink:title=" ">
<polygon fill="none" stroke="black" points="146,-0.5 146,-19.5 270,-19.5 270,-0.5 146,-0.5"/>
<text text-anchor="middle" x="208" y="-7.5" font-family="Helvetica,sans-Serif" font-size="10.00">yaclib::StickyGuard&lt; M &gt;</text>
</a>
</g>
</g>
<!-- Node5&#45;&gt;Node6 -->
<g id="edge5" class="edge">
<title>Node5&#45;&gt;Node6</title>
<path fill="none" stroke="midnightblue" d="M208,-47.35C208,-37.51 208,-26.78 208,-19.54"/>
<polygon fill="midnightblue" stroke="midnightblue" points="204.5,-47.47 208,-57.47 211.5,-47.47 204.5,-47.47"/>
</g>
<!-- Node7 -->
<g id="node7" class="node">
<title>Node7</title>
<g id="a_node7"><a xlink:href="classyaclib_1_1UniqueGuard.html" target="_top" xlink:title=" ">
<polygon fill="none" stroke="black" points="288,-0.5 288,-19.5 416,-19.5 416,-0.5 288,-0.5"/>
<text text-anchor="middle" x="352" y="-7.5" font-family="Helvetica,sans-Serif" font-size="10.00">yaclib::UniqueGuard&lt; M &gt;</text>
</a>
</g>
</g>
<!-- Node5&#45;&gt;Node7 -->
<g id="edge6" class="edge">
<title>Node5&#45;&gt;Node7</title>
<path fill="none" stroke="midnightblue" d="M250.92,-53.47C277.64,-42.24 310.79,-28.31 331.67,-19.54"/>
<polygon fill="midnightblue" stroke="midnightblue" points="249.26,-50.37 241.4,-57.47 251.97,-56.82 249.26,-50.37"/>
</g>
</g>
</svg>
