<?xml version="1.0" encoding="UTF-8" standalone="no"?>
<!DOCTYPE svg PUBLIC "-//W3C//DTD SVG 1.1//EN"
 "http://www.w3.org/Graphics/SVG/1.1/DTD/svg11.dtd">
<!-- Generated by graphviz version 9.0.0 (20230911.1827)
 -->
<!-- Title: yaclib::detail::BaseCore Pages: 1 -->
<svg width="1309pt" height="149pt"
 viewBox="0.00 0.00 1308.50 148.88" xmlns="http://www.w3.org/2000/svg" xmlns:xlink="http://www.w3.org/1999/xlink">
<g id="graph0" class="graph" transform="scale(1 1) rotate(0) translate(4 144.88)">
<title>yaclib::detail::BaseCore</title>
<!-- Node1 -->
<g id="Node000001" class="node">
<title>Node1</title>
<g id="a_Node000001"><a xlink:title=" ">
<polygon fill="#999999" stroke="#666666" points="596.75,-118.88 481,-118.88 481,-99.62 596.75,-99.62 596.75,-118.88"/>
<text text-anchor="middle" x="538.88" y="-105.38" font-family="Helvetica,sans-Serif" font-size="10.00">yaclib::detail::BaseCore</text>
</a>
</g>
</g>
<!-- Node7 -->
<g id="Node000007" class="node">
<title>Node7</title>
<g id="a_Node000007"><a xlink:href="classyaclib_1_1detail_1_1NoResultCore.html" target="_top" xlink:title=" ">
<polygon fill="white" stroke="#666666" points="766.5,-140.88 632.75,-140.88 632.75,-121.62 766.5,-121.62 766.5,-140.88"/>
<text text-anchor="middle" x="699.62" y="-127.38" font-family="Helvetica,sans-Serif" font-size="10.00">yaclib::detail::NoResultCore</text>
</a>
</g>
</g>
<!-- Node1&#45;&gt;Node7 -->
<g id="edge6_Node000001_Node000007" class="edge">
<title>Node1&#45;&gt;Node7</title>
<g id="a_edge6_Node000001_Node000007"><a xlink:title=" ">
<path fill="none" stroke="#63b8ff" d="M608.37,-118.74C616.37,-119.85 624.52,-120.98 632.49,-122.09"/>
<polygon fill="#63b8ff" stroke="#63b8ff" points="609.07,-115.31 598.69,-117.4 608.11,-122.24 609.07,-115.31"/>
</a>
</g>
</g>
<!-- Node8 -->
<g id="Node000008" class="node">
<title>Node8</title>
<g id="a_Node000008"><a xlink:href="classyaclib_1_1detail_1_1ResultCore.html" target="_top" xlink:title=" ">
<polygon fill="white" stroke="#666666" points="760.12,-103.5 639.12,-103.5 639.12,-73 760.12,-73 760.12,-103.5"/>
<text text-anchor="start" x="647.12" y="-90" font-family="Helvetica,sans-Serif" font-size="10.00">yaclib::detail::ResultCore</text>
<text text-anchor="middle" x="699.62" y="-78.75" font-family="Helvetica,sans-Serif" font-size="10.00">&lt; V, E &gt;</text>
</a>
</g>
</g>
<!-- Node1&#45;&gt;Node8 -->
<g id="edge7_Node000001_Node000008" class="edge">
<title>Node1&#45;&gt;Node8</title>
<g id="a_edge7_Node000001_Node000008"><a xlink:title=" ">
<path fill="none" stroke="#63b8ff" d="M608.43,-100.18C618.51,-98.85 628.83,-97.48 638.72,-96.17"/>
<polygon fill="#63b8ff" stroke="#63b8ff" points="608.14,-96.69 598.69,-101.47 609.06,-103.63 608.14,-96.69"/>
</a>
</g>
</g>
<!-- Node2 -->
<g id="Node000002" class="node">
<title>Node2</title>
<g id="a_Node000002"><a xlink:href="classyaclib_1_1detail_1_1InlineCore.html" target="_top" xlink:title=" ">
<polygon fill="white" stroke="#666666" points="445,-118.88 328.5,-118.88 328.5,-99.62 445,-99.62 445,-118.88"/>
<text text-anchor="middle" x="386.75" y="-105.38" font-family="Helvetica,sans-Serif" font-size="10.00">yaclib::detail::InlineCore</text>
</a>
</g>
</g>
<!-- Node2&#45;&gt;Node1 -->
<g id="edge1_Node000001_Node000002" class="edge">
<title>Node2&#45;&gt;Node1</title>
<g id="a_edge1_Node000001_Node000002"><a xlink:title=" ">
<path fill="none" stroke="#63b8ff" d="M456.63,-109.25C464.67,-109.25 472.81,-109.25 480.66,-109.25"/>
<polygon fill="#63b8ff" stroke="#63b8ff" points="456.88,-105.75 446.88,-109.25 456.88,-112.75 456.88,-105.75"/>
</a>
</g>
</g>
<!-- Node3 -->
<g id="Node000003" class="node">
<title>Node3</title>
<g id="a_Node000003"><a xlink:href="classyaclib_1_1Job.html" target="_top" xlink:title="Callable that can be executed in an IExecutor.">
<polygon fill="white" stroke="#666666" points="292.5,-118.88 231.5,-118.88 231.5,-99.62 292.5,-99.62 292.5,-118.88"/>
<text text-anchor="middle" x="262" y="-105.38" font-family="Helvetica,sans-Serif" font-size="10.00">yaclib::Job</text>
</a>
</g>
</g>
<!-- Node3&#45;&gt;Node2 -->
<g id="edge2_Node000002_Node000003" class="edge">
<title>Node3&#45;&gt;Node2</title>
<g id="a_edge2_Node000002_Node000003"><a xlink:title=" ">
<path fill="none" stroke="#63b8ff" d="M304.12,-109.25C311.93,-109.25 320.23,-109.25 328.44,-109.25"/>
<polygon fill="#63b8ff" stroke="#63b8ff" points="304.23,-105.75 294.23,-109.25 304.23,-112.75 304.23,-105.75"/>
</a>
</g>
</g>
<!-- Node4 -->
<g id="Node000004" class="node">
<title>Node4</title>
<g id="a_Node000004"><a xlink:href="classyaclib_1_1IFunc.html" target="_top" xlink:title="Callable interface.">
<polygon fill="white" stroke="#666666" points="182.38,-137.88 112.38,-137.88 112.38,-118.62 182.38,-118.62 182.38,-137.88"/>
<text text-anchor="middle" x="147.38" y="-124.38" font-family="Helvetica,sans-Serif" font-size="10.00">yaclib::IFunc</text>
</a>
</g>
</g>
<!-- Node4&#45;&gt;Node3 -->
<g id="edge3_Node000003_Node000004" class="edge">
<title>Node4&#45;&gt;Node3</title>
<g id="a_edge3_Node000003_Node000004"><a xlink:title=" ">
<path fill="none" stroke="#63b8ff" d="M194.05,-120.54C206.64,-118.42 219.96,-116.17 231.37,-114.25"/>
<polygon fill="#63b8ff" stroke="#63b8ff" points="193.55,-117.08 184.27,-122.19 194.71,-123.98 193.55,-117.08"/>
</a>
</g>
</g>
<!-- Node5 -->
<g id="Node000005" class="node">
<title>Node5</title>
<g id="a_Node000005"><a xlink:href="classyaclib_1_1IRef.html" target="_top" xlink:title="Reference counting interface.">
<polygon fill="white" stroke="#666666" points="63.25,-137.88 0,-137.88 0,-118.62 63.25,-118.62 63.25,-137.88"/>
<text text-anchor="middle" x="31.62" y="-124.38" font-family="Helvetica,sans-Serif" font-size="10.00">yaclib::IRef</text>
</a>
</g>
</g>
<!-- Node5&#45;&gt;Node4 -->
<g id="edge4_Node000004_Node000005" class="edge">
<title>Node5&#45;&gt;Node4</title>
<g id="a_edge4_Node000004_Node000005"><a xlink:title=" ">
<path fill="none" stroke="#63b8ff" d="M75.06,-128.25C87.29,-128.25 100.47,-128.25 112.13,-128.25"/>
<polygon fill="#63b8ff" stroke="#63b8ff" points="75.22,-124.75 65.22,-128.25 75.22,-131.75 75.22,-124.75"/>
</a>
</g>
</g>
<!-- Node6 -->
<g id="Node000006" class="node">
<title>Node6</title>
<g id="a_Node000006"><a xlink:href="structyaclib_1_1detail_1_1Node.html" target="_top" xlink:title="Node class, used in intrusive data structure.">
<polygon fill="white" stroke="#666666" points="195.5,-100.88 99.25,-100.88 99.25,-81.62 195.5,-81.62 195.5,-100.88"/>
<text text-anchor="middle" x="147.38" y="-87.38" font-family="Helvetica,sans-Serif" font-size="10.00">yaclib::detail::Node</text>
</a>
</g>
</g>
<!-- Node6&#45;&gt;Node3 -->
<g id="edge5_Node000003_Node000006" class="edge">
<title>Node6&#45;&gt;Node3</title>
<g id="a_edge5_Node000003_Node000006"><a xlink:title=" ">
<path fill="none" stroke="#63b8ff" d="M207.18,-100.65C215.53,-101.98 223.81,-103.31 231.28,-104.5"/>
<polygon fill="#63b8ff" stroke="#63b8ff" points="207.73,-97.19 197.31,-99.07 206.63,-104.1 207.73,-97.19"/>
</a>
</g>
</g>
<!-- Node9 -->
<g id="Node000009" class="node">
<title>Node9</title>
<g id="a_Node000009"><a xlink:href="classyaclib_1_1detail_1_1SharedCore.html" target="_top" xlink:title=" ">
<polygon fill="white" stroke="#666666" points="926.5,-128.5 802.5,-128.5 802.5,-98 926.5,-98 926.5,-128.5"/>
<text text-anchor="start" x="810.5" y="-115" font-family="Helvetica,sans-Serif" font-size="10.00">yaclib::detail::SharedCore</text>
<text text-anchor="middle" x="864.5" y="-103.75" font-family="Helvetica,sans-Serif" font-size="10.00">&lt; V, E &gt;</text>
</a>
</g>
</g>
<!-- Node8&#45;&gt;Node9 -->
<g id="edge8_Node000008_Node000009" class="edge">
<title>Node8&#45;&gt;Node9</title>
<g id="a_edge8_Node000008_Node000009"><a xlink:title=" ">
<path fill="none" stroke="#63b8ff" d="M771.68,-99.16C781.83,-100.71 792.2,-102.31 802.15,-103.83"/>
<polygon fill="#63b8ff" stroke="#63b8ff" points="772.26,-95.7 761.84,-97.65 771.2,-102.62 772.26,-95.7"/>
</a>
</g>
</g>
<!-- Node10 -->
<g id="Node000010" class="node">
<title>Node10</title>
<g id="a_Node000010"><a xlink:href="classyaclib_1_1detail_1_1UniqueCore.html" target="_top" xlink:title=" ">
<polygon fill="white" stroke="#666666" points="926.5,-79.5 802.5,-79.5 802.5,-49 926.5,-49 926.5,-79.5"/>
<text text-anchor="start" x="810.5" y="-66" font-family="Helvetica,sans-Serif" font-size="10.00">yaclib::detail::UniqueCore</text>
<text text-anchor="middle" x="864.5" y="-54.75" font-family="Helvetica,sans-Serif" font-size="10.00">&lt; V, E &gt;</text>
</a>
</g>
</g>
<!-- Node8&#45;&gt;Node10 -->
<g id="edge9_Node000008_Node000010" class="edge">
<title>Node8&#45;&gt;Node10</title>
<g id="a_edge9_Node000008_Node000010"><a xlink:title=" ">
<path fill="none" stroke="#63b8ff" d="M771.68,-77.78C781.83,-76.28 792.2,-74.76 802.15,-73.29"/>
<polygon fill="#63b8ff" stroke="#63b8ff" points="771.23,-74.31 761.85,-79.23 772.25,-81.23 771.23,-74.31"/>
</a>
</g>
</g>
<!-- Node11 -->
<g id="Node000011" class="node">
<title>Node11</title>
<g id="a_Node000011"><a xlink:href="structyaclib_1_1detail_1_1OneCounter.html" target="_top" xlink:title=" ">
<polygon fill="white" stroke="#666666" points="1134.5,-139.12 962.5,-139.12 962.5,-97.38 1134.5,-97.38 1134.5,-139.12"/>
<text text-anchor="start" x="970.5" y="-125.62" font-family="Helvetica,sans-Serif" font-size="10.00">yaclib::detail::OneCounter</text>
<text text-anchor="start" x="970.5" y="-114.38" font-family="Helvetica,sans-Serif" font-size="10.00">&lt; UniqueCore&lt; V, E &gt;, PromiseType</text>
<text text-anchor="middle" x="1048.5" y="-103.12" font-family="Helvetica,sans-Serif" font-size="10.00">Deleter&lt; Lazy &gt; &gt;</text>
</a>
</g>
</g>
<!-- Node10&#45;&gt;Node11 -->
<g id="edge10_Node000010_Node000011" class="edge">
<title>Node10&#45;&gt;Node11</title>
<g id="a_edge10_Node000010_Node000011"><a xlink:title=" ">
<path fill="none" stroke="#63b8ff" d="M928.91,-83.06C944.01,-87.55 960.23,-92.36 975.68,-96.94"/>
<polygon fill="#63b8ff" stroke="#63b8ff" points="930.18,-79.79 919.59,-80.3 928.18,-86.5 930.18,-79.79"/>
</a>
</g>
</g>
<!-- Node13 -->
<g id="Node000013" class="node">
<title>Node13</title>
<g id="a_Node000013"><a xlink:href="classyaclib_1_1detail_1_1PromiseCore.html" target="_top" xlink:title=" ">
<polygon fill="white" stroke="#666666" points="1113.12,-79.5 983.88,-79.5 983.88,-49 1113.12,-49 1113.12,-79.5"/>
<text text-anchor="start" x="991.88" y="-66" font-family="Helvetica,sans-Serif" font-size="10.00">yaclib::detail::PromiseCore</text>
<text text-anchor="middle" x="1048.5" y="-54.75" font-family="Helvetica,sans-Serif" font-size="10.00">&lt; V, E, Func &gt;</text>
</a>
</g>
</g>
<!-- Node10&#45;&gt;Node13 -->
<g id="edge12_Node000010_Node000013" class="edge">
<title>Node10&#45;&gt;Node13</title>
<g id="a_edge12_Node000010_Node000013"><a xlink:title=" ">
<path fill="none" stroke="#63b8ff" d="M938.19,-64.25C953.21,-64.25 968.93,-64.25 983.61,-64.25"/>
<polygon fill="#63b8ff" stroke="#63b8ff" points="938.38,-60.75 928.38,-64.25 938.38,-67.75 938.38,-60.75"/>
</a>
</g>
</g>
<!-- Node14 -->
<g id="Node000014" class="node">
<title>Node14</title>
<g id="a_Node000014"><a xlink:href="classyaclib_1_1detail_1_1ReadyCore.html" target="_top" xlink:title=" ">
<polygon fill="white" stroke="#666666" points="1108.62,-30.5 988.38,-30.5 988.38,0 1108.62,0 1108.62,-30.5"/>
<text text-anchor="start" x="996.38" y="-17" font-family="Helvetica,sans-Serif" font-size="10.00">yaclib::detail::ReadyCore</text>
<text text-anchor="middle" x="1048.5" y="-5.75" font-family="Helvetica,sans-Serif" font-size="10.00">&lt; V, E &gt;</text>
</a>
</g>
</g>
<!-- Node10&#45;&gt;Node14 -->
<g id="edge13_Node000010_Node000014" class="edge">
<title>Node10&#45;&gt;Node14</title>
<g id="a_edge13_Node000010_Node000014"><a xlink:title=" ">
<path fill="none" stroke="#63b8ff" d="M934.82,-45.59C952.75,-40.76 971.88,-35.61 989.18,-30.95"/>
<polygon fill="#63b8ff" stroke="#63b8ff" points="934.04,-42.17 925.3,-48.15 935.86,-48.93 934.04,-42.17"/>
</a>
</g>
</g>
<!-- Node12 -->
<g id="Node000012" class="node">
<title>Node12</title>
<g id="a_Node000012"><a xlink:href="classyaclib_1_1detail_1_1PromiseType.html" target="_top" xlink:title=" ">
<polygon fill="white" stroke="#666666" points="1300.5,-133.5 1170.5,-133.5 1170.5,-103 1300.5,-103 1300.5,-133.5"/>
<text text-anchor="start" x="1178.5" y="-120" font-family="Helvetica,sans-Serif" font-size="10.00">yaclib::detail::PromiseType</text>
<text text-anchor="middle" x="1235.5" y="-108.75" font-family="Helvetica,sans-Serif" font-size="10.00">&lt; V, E, Lazy &gt;</text>
</a>
</g>
</g>
<!-- Node11&#45;&gt;Node12 -->
<g id="edge11_Node000011_Node000012" class="edge">
<title>Node11&#45;&gt;Node12</title>
<g id="a_edge11_Node000011_Node000012"><a xlink:title=" ">
<path fill="none" stroke="#63b8ff" d="M1146.35,-118.25C1154.41,-118.25 1162.42,-118.25 1170.15,-118.25"/>
<polygon fill="#63b8ff" stroke="#63b8ff" points="1146.47,-114.75 1136.47,-118.25 1146.47,-121.75 1146.47,-114.75"/>
</a>
</g>
</g>
</g>
</svg>
