<?xml version="1.0" encoding="UTF-8" standalone="no"?>
<!DOCTYPE svg PUBLIC "-//W3C//DTD SVG 1.1//EN"
 "http://www.w3.org/Graphics/SVG/1.1/DTD/svg11.dtd">
<!-- Generated by graphviz version 3.0.0 (20221109.1736)
 -->
<!-- Title: yaclib::detail::GuardAwaiter&lt; Guard, M, Shared &gt; Pages: 1 -->
<svg width="156pt" height="185pt"
 viewBox="0.00 0.00 155.50 185.00" xmlns="http://www.w3.org/2000/svg" xmlns:xlink="http://www.w3.org/1999/xlink">
<g id="graph0" class="graph" transform="scale(1 1) rotate(0) translate(4 181)">
<title>yaclib::detail::GuardAwaiter&lt; Guard, M, Shared &gt;</title>
<!-- Node1 -->
<g id="node1" class="node">
<title>Node1</title>
<g id="a_node1"><a xlink:title=" ">
<polygon fill="#bfbfbf" stroke="black" points="0,-0.5 0,-30.5 133,-30.5 133,-0.5 0,-0.5"/>
<text text-anchor="start" x="8" y="-18.5" font-family="Helvetica,sans-Serif" font-size="10.00">yaclib::detail::GuardAwaiter</text>
<text text-anchor="middle" x="66.5" y="-7.5" font-family="Helvetica,sans-Serif" font-size="10.00">&lt; Guard, M, Shared &gt;</text>
</a>
</g>
</g>
<!-- Node2 -->
<g id="node2" class="node">
<title>Node2</title>
<g id="a_node2"><a xlink:href="classyaclib_1_1detail_1_1LockAwaiter.html" target="_top" xlink:title=" ">
<polygon fill="none" stroke="black" points="2.5,-68.5 2.5,-98.5 130.5,-98.5 130.5,-68.5 2.5,-68.5"/>
<text text-anchor="start" x="10.5" y="-86.5" font-family="Helvetica,sans-Serif" font-size="10.00">yaclib::detail::LockAwaiter</text>
<text text-anchor="middle" x="66.5" y="-75.5" font-family="Helvetica,sans-Serif" font-size="10.00">&lt; M::Base, false &gt;</text>
</a>
</g>
</g>
<!-- Node2&#45;&gt;Node1 -->
<g id="edge1" class="edge">
<title>Node2&#45;&gt;Node1</title>
<path fill="none" stroke="midnightblue" d="M66.5,-58.03C66.5,-48.86 66.5,-38.74 66.5,-30.79"/>
<polygon fill="midnightblue" stroke="midnightblue" points="63,-58.18 66.5,-68.18 70,-58.18 63,-58.18"/>
</g>
<!-- Node3 -->
<g id="node3" class="node">
<title>Node3</title>
<g id="a_node3"><a xlink:href="classyaclib_1_1detail_1_1LockAwaiter.html" target="_top" xlink:title=" ">
<polygon fill="none" stroke="black" points="2.5,-146.5 2.5,-176.5 130.5,-176.5 130.5,-146.5 2.5,-146.5"/>
<text text-anchor="start" x="10.5" y="-164.5" font-family="Helvetica,sans-Serif" font-size="10.00">yaclib::detail::LockAwaiter</text>
<text text-anchor="middle" x="66.5" y="-153.5" font-family="Helvetica,sans-Serif" font-size="10.00">&lt; M, Shared &gt;</text>
</a>
</g>
</g>
<!-- Node3&#45;&gt;Node2 -->
<g id="edge2" class="edge">
<title>Node3&#45;&gt;Node2</title>
<path fill="none" stroke="orange" stroke-dasharray="5,2" d="M66.5,-136.09C66.5,-123.76 66.5,-109.22 66.5,-98.73"/>
<polygon fill="orange" stroke="orange" points="63,-136.2 66.5,-146.2 70,-136.21 63,-136.2"/>
<text text-anchor="middle" x="107" y="-120" font-family="Helvetica,sans-Serif" font-size="10.00"> &lt; M::Base, false &gt;</text>
</g>
</g>
</svg>
