<?xml version="1.0" encoding="UTF-8" standalone="no"?>
<!DOCTYPE svg PUBLIC "-//W3C//DTD SVG 1.1//EN"
 "http://www.w3.org/Graphics/SVG/1.1/DTD/svg11.dtd">
<!-- Generated by graphviz version 3.0.0 (20221109.1736)
 -->
<!-- Title: yaclib::detail::InlineCore Pages: 1 -->
<svg width="1341pt" height="545pt"
 viewBox="0.00 0.00 1341.00 544.72" xmlns="http://www.w3.org/2000/svg" xmlns:xlink="http://www.w3.org/1999/xlink">
<g id="graph0" class="graph" transform="scale(1 1) rotate(0) translate(4 540.72)">
<title>yaclib::detail::InlineCore</title>
<!-- Node1 -->
<g id="node1" class="node">
<title>Node1</title>
<g id="a_node1"><a xlink:title=" ">
<polygon fill="#bfbfbf" stroke="black" points="334,-271 334,-290 451,-290 451,-271 334,-271"/>
<text text-anchor="middle" x="392.5" y="-278" font-family="Helvetica,sans-Serif" font-size="10.00">yaclib::detail::InlineCore</text>
</a>
</g>
</g>
<!-- Node6 -->
<g id="node6" class="node">
<title>Node6</title>
<g id="a_node6"><a xlink:href="classyaclib_1_1detail_1_1AwaitOnEvent.html" target="_top" xlink:title=" ">
<polygon fill="none" stroke="black" points="812.5,-481.5 812.5,-511.5 948.5,-511.5 948.5,-481.5 812.5,-481.5"/>
<text text-anchor="start" x="820.5" y="-499.5" font-family="Helvetica,sans-Serif" font-size="10.00">yaclib::detail::AwaitOnEvent</text>
<text text-anchor="middle" x="880.5" y="-488.5" font-family="Helvetica,sans-Serif" font-size="10.00">&lt; true &gt;</text>
</a>
</g>
</g>
<!-- Node1&#45;&gt;Node6 -->
<g id="edge5" class="edge">
<title>Node1&#45;&gt;Node6</title>
<path fill="none" stroke="midnightblue" d="M395.65,-300.39C401.5,-343.71 422.01,-446.35 488,-491.5 592.49,-562.99 752.16,-533.1 831.42,-511.51"/>
<polygon fill="midnightblue" stroke="midnightblue" points="399.1,-299.77 394.41,-290.27 392.15,-300.63 399.1,-299.77"/>
</g>
<!-- Node7 -->
<g id="node7" class="node">
<title>Node7</title>
<g id="a_node7"><a xlink:href="classyaclib_1_1detail_1_1AwaitOnEvent.html" target="_top" xlink:title=" ">
<polygon fill="none" stroke="black" points="812.5,-420.5 812.5,-450.5 948.5,-450.5 948.5,-420.5 812.5,-420.5"/>
<text text-anchor="start" x="820.5" y="-438.5" font-family="Helvetica,sans-Serif" font-size="10.00">yaclib::detail::AwaitOnEvent</text>
<text text-anchor="middle" x="880.5" y="-427.5" font-family="Helvetica,sans-Serif" font-size="10.00">&lt; false &gt;</text>
</a>
</g>
</g>
<!-- Node1&#45;&gt;Node7 -->
<g id="edge6" class="edge">
<title>Node1&#45;&gt;Node7</title>
<path fill="none" stroke="midnightblue" d="M401.71,-299.25C415.16,-327.45 444.82,-379.99 488,-403.5 542.2,-433.01 715.47,-436.79 812.34,-436.47"/>
<polygon fill="midnightblue" stroke="midnightblue" points="404.84,-297.68 397.48,-290.06 398.48,-300.6 404.84,-297.68"/>
</g>
<!-- Node8 -->
<g id="node8" class="node">
<title>Node8</title>
<g id="a_node8"><a xlink:href="structyaclib_1_1detail_1_1CallCallback.html" target="_top" xlink:title=" ">
<polygon fill="none" stroke="black" points="803,-169.5 803,-221.5 958,-221.5 958,-169.5 803,-169.5"/>
<text text-anchor="start" x="811" y="-209.5" font-family="Helvetica,sans-Serif" font-size="10.00">yaclib::detail::CallCallback</text>
<text text-anchor="start" x="811" y="-198.5" font-family="Helvetica,sans-Serif" font-size="10.00">&lt; MultiEvent&lt; OneShotEvent,</text>
<text text-anchor="start" x="811" y="-187.5" font-family="Helvetica,sans-Serif" font-size="10.00"> yaclib::detail::AtomicCounter,</text>
<text text-anchor="middle" x="880.5" y="-176.5" font-family="Helvetica,sans-Serif" font-size="10.00"> yaclib::detail::CallCallback ... &gt; &gt;</text>
</a>
</g>
</g>
<!-- Node1&#45;&gt;Node8 -->
<g id="edge7" class="edge">
<title>Node1&#45;&gt;Node8</title>
<path fill="none" stroke="midnightblue" d="M411.7,-264C429.65,-248.85 458.59,-227.32 488,-217.5 592.94,-182.48 722.4,-183.06 802.97,-188.15"/>
<polygon fill="midnightblue" stroke="midnightblue" points="409.08,-261.64 403.82,-270.84 413.67,-266.92 409.08,-261.64"/>
</g>
<!-- Node10 -->
<g id="node10" class="node">
<title>Node10</title>
<g id="a_node10"><a xlink:href="classyaclib_1_1detail_1_1AllCombinator.html" target="_top" xlink:title=" ">
<polygon fill="none" stroke="black" points="491,-363.5 491,-393.5 625,-393.5 625,-363.5 491,-363.5"/>
<text text-anchor="start" x="499" y="-381.5" font-family="Helvetica,sans-Serif" font-size="10.00">yaclib::detail::AllCombinator</text>
<text text-anchor="middle" x="558" y="-370.5" font-family="Helvetica,sans-Serif" font-size="10.00">&lt; O, R, E &gt;</text>
</a>
</g>
</g>
<!-- Node1&#45;&gt;Node10 -->
<g id="edge9" class="edge">
<title>Node1&#45;&gt;Node10</title>
<path fill="none" stroke="midnightblue" d="M410.91,-297.04C428.98,-313.48 458.65,-338.49 488,-354.5 494.01,-357.78 500.56,-360.75 507.14,-363.38"/>
<polygon fill="midnightblue" stroke="midnightblue" points="413.18,-294.38 403.47,-290.16 408.43,-299.52 413.18,-294.38"/>
</g>
<!-- Node11 -->
<g id="node11" class="node">
<title>Node11</title>
<g id="a_node11"><a xlink:href="classyaclib_1_1detail_1_1AllCombinator_3_01OrderPolicy_1_1Same_00_01R_00_01E_01_4.html" target="_top" xlink:title=" ">
<polygon fill="none" stroke="black" points="489.5,-314.5 489.5,-344.5 626.5,-344.5 626.5,-314.5 489.5,-314.5"/>
<text text-anchor="start" x="497.5" y="-332.5" font-family="Helvetica,sans-Serif" font-size="10.00">yaclib::detail::AllCombinator</text>
<text text-anchor="middle" x="558" y="-321.5" font-family="Helvetica,sans-Serif" font-size="10.00">&lt; OrderPolicy::Same, R, E &gt;</text>
</a>
</g>
</g>
<!-- Node1&#45;&gt;Node11 -->
<g id="edge10" class="edge">
<title>Node1&#45;&gt;Node11</title>
<path fill="none" stroke="midnightblue" d="M435.06,-292.95C456.9,-299.5 483.83,-307.57 506.83,-314.46"/>
<polygon fill="midnightblue" stroke="midnightblue" points="436,-289.58 425.41,-290.06 433.99,-296.29 436,-289.58"/>
</g>
<!-- Node12 -->
<g id="node12" class="node">
<title>Node12</title>
<g id="a_node12"><a xlink:href="classyaclib_1_1detail_1_1AnyCombinator.html" target="_top" xlink:title=" ">
<polygon fill="none" stroke="black" points="488,-265.5 488,-295.5 628,-295.5 628,-265.5 488,-265.5"/>
<text text-anchor="start" x="496" y="-283.5" font-family="Helvetica,sans-Serif" font-size="10.00">yaclib::detail::AnyCombinator</text>
<text text-anchor="middle" x="558" y="-272.5" font-family="Helvetica,sans-Serif" font-size="10.00">&lt; V, E, P &gt;</text>
</a>
</g>
</g>
<!-- Node1&#45;&gt;Node12 -->
<g id="edge11" class="edge">
<title>Node1&#45;&gt;Node12</title>
<path fill="none" stroke="midnightblue" d="M461.3,-280.5C470.06,-280.5 479.04,-280.5 487.83,-280.5"/>
<polygon fill="midnightblue" stroke="midnightblue" points="461.14,-277 451.14,-280.5 461.14,-284 461.14,-277"/>
</g>
<!-- Node13 -->
<g id="node13" class="node">
<title>Node13</title>
<g id="a_node13"><a xlink:href="classyaclib_1_1detail_1_1AwaitEvent.html" target="_top" xlink:title=" ">
<polygon fill="none" stroke="black" points="496.5,-227 496.5,-246 619.5,-246 619.5,-227 496.5,-227"/>
<text text-anchor="middle" x="558" y="-234" font-family="Helvetica,sans-Serif" font-size="10.00">yaclib::detail::AwaitEvent</text>
</a>
</g>
</g>
<!-- Node1&#45;&gt;Node13 -->
<g id="edge12" class="edge">
<title>Node1&#45;&gt;Node13</title>
<path fill="none" stroke="midnightblue" d="M438.67,-268.35C464.83,-261.3 497.29,-252.57 521.59,-246.03"/>
<polygon fill="midnightblue" stroke="midnightblue" points="437.72,-264.97 428.98,-270.95 439.54,-271.73 437.72,-264.97"/>
</g>
<!-- Node14 -->
<g id="node14" class="node">
<title>Node14</title>
<g id="a_node14"><a xlink:href="classyaclib_1_1detail_1_1AwaitOnEvent.html" target="_top" xlink:title=" ">
<polygon fill="none" stroke="black" points="490,-451.5 490,-481.5 626,-481.5 626,-451.5 490,-451.5"/>
<text text-anchor="start" x="498" y="-469.5" font-family="Helvetica,sans-Serif" font-size="10.00">yaclib::detail::AwaitOnEvent</text>
<text text-anchor="middle" x="558" y="-458.5" font-family="Helvetica,sans-Serif" font-size="10.00">&lt; Single &gt;</text>
</a>
</g>
</g>
<!-- Node1&#45;&gt;Node14 -->
<g id="edge13" class="edge">
<title>Node1&#45;&gt;Node14</title>
<path fill="none" stroke="midnightblue" d="M397.82,-300.29C406.01,-333.19 426.87,-399.23 469,-436.5 475.89,-442.6 484.08,-447.47 492.64,-451.35"/>
<polygon fill="midnightblue" stroke="midnightblue" points="401.13,-299.07 395.44,-290.13 394.31,-300.67 401.13,-299.07"/>
</g>
<!-- Node15 -->
<g id="node15" class="node">
<title>Node15</title>
<g id="a_node15"><a xlink:href="classyaclib_1_1detail_1_1BaseCore.html" target="_top" xlink:title=" ">
<polygon fill="none" stroke="black" points="500,-101 500,-120 616,-120 616,-101 500,-101"/>
<text text-anchor="middle" x="558" y="-108" font-family="Helvetica,sans-Serif" font-size="10.00">yaclib::detail::BaseCore</text>
</a>
</g>
</g>
<!-- Node1&#45;&gt;Node15 -->
<g id="edge16" class="edge">
<title>Node1&#45;&gt;Node15</title>
<path fill="none" stroke="midnightblue" d="M400.31,-260.97C412.61,-228.61 441.65,-164.02 488,-129.5 493.18,-125.64 499.11,-122.57 505.26,-120.11"/>
<polygon fill="midnightblue" stroke="midnightblue" points="396.93,-260.02 396.78,-270.62 403.5,-262.43 396.93,-260.02"/>
</g>
<!-- Node22 -->
<g id="node22" class="node">
<title>Node22</title>
<g id="a_node22"><a xlink:href="structyaclib_1_1detail_1_1CallCallback.html" target="_top" xlink:title=" ">
<polygon fill="none" stroke="black" points="494,-139.5 494,-169.5 622,-169.5 622,-139.5 494,-139.5"/>
<text text-anchor="start" x="502" y="-157.5" font-family="Helvetica,sans-Serif" font-size="10.00">yaclib::detail::CallCallback</text>
<text text-anchor="middle" x="558" y="-146.5" font-family="Helvetica,sans-Serif" font-size="10.00">&lt; Derived &gt;</text>
</a>
</g>
</g>
<!-- Node1&#45;&gt;Node22 -->
<g id="edge23" class="edge">
<title>Node1&#45;&gt;Node22</title>
<path fill="none" stroke="midnightblue" d="M403.58,-261.99C416.2,-240.46 439.74,-205.23 469,-184.5 477.56,-178.43 487.45,-173.51 497.43,-169.55"/>
<polygon fill="midnightblue" stroke="midnightblue" points="400.46,-260.39 398.57,-270.82 406.55,-263.85 400.46,-260.39"/>
</g>
<!-- Node23 -->
<g id="node23" class="node">
<title>Node23</title>
<g id="a_node23"><a xlink:href="structyaclib_1_1detail_1_1DropCallback.html" target="_top" xlink:title=" ">
<polygon fill="none" stroke="black" points="492.5,-51.5 492.5,-81.5 623.5,-81.5 623.5,-51.5 492.5,-51.5"/>
<text text-anchor="start" x="500.5" y="-69.5" font-family="Helvetica,sans-Serif" font-size="10.00">yaclib::detail::DropCallback</text>
<text text-anchor="middle" x="558" y="-58.5" font-family="Helvetica,sans-Serif" font-size="10.00">&lt; Derived &gt;</text>
</a>
</g>
</g>
<!-- Node1&#45;&gt;Node23 -->
<g id="edge25" class="edge">
<title>Node1&#45;&gt;Node23</title>
<path fill="none" stroke="midnightblue" d="M398.11,-260.86C408.02,-222.84 434.88,-138.79 488,-91.5 492.38,-87.6 497.41,-84.3 502.72,-81.5"/>
<polygon fill="midnightblue" stroke="midnightblue" points="394.68,-260.14 395.66,-270.69 401.48,-261.83 394.68,-260.14"/>
</g>
<!-- Node2 -->
<g id="node2" class="node">
<title>Node2</title>
<g id="a_node2"><a xlink:href="classyaclib_1_1Job.html" target="_top" xlink:title="Callable that can be executed in an IExecutor.">
<polygon fill="none" stroke="black" points="235,-271 235,-290 297,-290 297,-271 235,-271"/>
<text text-anchor="middle" x="266" y="-278" font-family="Helvetica,sans-Serif" font-size="10.00">yaclib::Job</text>
</a>
</g>
</g>
<!-- Node2&#45;&gt;Node1 -->
<g id="edge1" class="edge">
<title>Node2&#45;&gt;Node1</title>
<path fill="none" stroke="midnightblue" d="M307.17,-280.5C315.69,-280.5 324.84,-280.5 333.87,-280.5"/>
<polygon fill="midnightblue" stroke="midnightblue" points="307.14,-277 297.14,-280.5 307.14,-284 307.14,-277"/>
</g>
<!-- Node3 -->
<g id="node3" class="node">
<title>Node3</title>
<g id="a_node3"><a xlink:href="classyaclib_1_1IFunc.html" target="_top" xlink:title="Callable interface.">
<polygon fill="none" stroke="black" points="114,-297 114,-316 185,-316 185,-297 114,-297"/>
<text text-anchor="middle" x="149.5" y="-304" font-family="Helvetica,sans-Serif" font-size="10.00">yaclib::IFunc</text>
</a>
</g>
</g>
<!-- Node3&#45;&gt;Node2 -->
<g id="edge2" class="edge">
<title>Node3&#45;&gt;Node2</title>
<path fill="none" stroke="midnightblue" d="M195.08,-296.38C208.35,-293.36 222.58,-290.13 234.72,-287.38"/>
<polygon fill="midnightblue" stroke="midnightblue" points="194.14,-293 185.16,-298.63 195.69,-299.83 194.14,-293"/>
</g>
<!-- Node4 -->
<g id="node4" class="node">
<title>Node4</title>
<g id="a_node4"><a xlink:href="classyaclib_1_1IRef.html" target="_top" xlink:title="Reference counting interface.">
<polygon fill="none" stroke="black" points="0,-297 0,-316 64,-316 64,-297 0,-297"/>
<text text-anchor="middle" x="32" y="-304" font-family="Helvetica,sans-Serif" font-size="10.00">yaclib::IRef</text>
</a>
</g>
</g>
<!-- Node4&#45;&gt;Node3 -->
<g id="edge3" class="edge">
<title>Node4&#45;&gt;Node3</title>
<path fill="none" stroke="midnightblue" d="M74.35,-306.5C87.33,-306.5 101.51,-306.5 113.97,-306.5"/>
<polygon fill="midnightblue" stroke="midnightblue" points="74.26,-303 64.26,-306.5 74.26,-310 74.26,-303"/>
</g>
<!-- Node5 -->
<g id="node5" class="node">
<title>Node5</title>
<g id="a_node5"><a xlink:href="structyaclib_1_1detail_1_1Node.html" target="_top" xlink:title="Node class, used in intrusive data structure.">
<polygon fill="none" stroke="black" points="101,-259 101,-278 198,-278 198,-259 101,-259"/>
<text text-anchor="middle" x="149.5" y="-266" font-family="Helvetica,sans-Serif" font-size="10.00">yaclib::detail::Node</text>
</a>
</g>
</g>
<!-- Node5&#45;&gt;Node2 -->
<g id="edge4" class="edge">
<title>Node5&#45;&gt;Node2</title>
<path fill="none" stroke="midnightblue" d="M208.04,-274.53C217.27,-275.5 226.5,-276.46 234.75,-277.33"/>
<polygon fill="midnightblue" stroke="midnightblue" points="208.37,-271.05 198.06,-273.48 207.64,-278.01 208.37,-271.05"/>
</g>
<!-- Node9 -->
<g id="node9" class="node">
<title>Node9</title>
<g id="a_node9"><a xlink:href="structyaclib_1_1detail_1_1MultiEvent.html" target="_top" xlink:title=" ">
<polygon fill="none" stroke="black" points="1010.5,-164 1010.5,-227 1149.5,-227 1149.5,-164 1010.5,-164"/>
<text text-anchor="start" x="1018.5" y="-215" font-family="Helvetica,sans-Serif" font-size="10.00">yaclib::detail::MultiEvent</text>
<text text-anchor="start" x="1018.5" y="-204" font-family="Helvetica,sans-Serif" font-size="10.00">&lt; OneShotEvent, yaclib::</text>
<text text-anchor="start" x="1018.5" y="-193" font-family="Helvetica,sans-Serif" font-size="10.00">detail::AtomicCounter, yaclib</text>
<text text-anchor="start" x="1018.5" y="-182" font-family="Helvetica,sans-Serif" font-size="10.00">::detail::CallCallback, yaclib</text>
<text text-anchor="middle" x="1080" y="-171" font-family="Helvetica,sans-Serif" font-size="10.00">::detail::DropCallback &gt;</text>
</a>
</g>
</g>
<!-- Node8&#45;&gt;Node9 -->
<g id="edge8" class="edge">
<title>Node8&#45;&gt;Node9</title>
<path fill="none" stroke="midnightblue" d="M968.33,-195.5C982.44,-195.5 996.87,-195.5 1010.45,-195.5"/>
<polygon fill="midnightblue" stroke="midnightblue" points="968.14,-192 958.14,-195.5 968.14,-199 968.14,-192"/>
</g>
<!-- Node14&#45;&gt;Node6 -->
<g id="edge14" class="edge">
<title>Node14&#45;&gt;Node6</title>
<path fill="none" stroke="orange" stroke-dasharray="5,2" d="M636.36,-473.74C690.11,-478.77 761.04,-485.41 812.4,-490.22"/>
<polygon fill="orange" stroke="orange" points="636.47,-470.24 626.19,-472.79 635.82,-477.21 636.47,-470.24"/>
<text text-anchor="middle" x="715.5" y="-490.5" font-family="Helvetica,sans-Serif" font-size="10.00"> &lt; true &gt;</text>
</g>
<!-- Node14&#45;&gt;Node7 -->
<g id="edge15" class="edge">
<title>Node14&#45;&gt;Node7</title>
<path fill="none" stroke="orange" stroke-dasharray="5,2" d="M636.36,-459.02C690.11,-453.82 761.04,-446.96 812.4,-441.99"/>
<polygon fill="orange" stroke="orange" points="635.8,-455.55 626.19,-460 636.48,-462.52 635.8,-455.55"/>
<text text-anchor="middle" x="715.5" y="-459.5" font-family="Helvetica,sans-Serif" font-size="10.00"> &lt; false &gt;</text>
</g>
<!-- Node16 -->
<g id="node16" class="node">
<title>Node16</title>
<g id="a_node16"><a xlink:href="classyaclib_1_1detail_1_1NoResultCore.html" target="_top" xlink:title=" ">
<polygon fill="none" stroke="black" points="813.5,-104 813.5,-123 947.5,-123 947.5,-104 813.5,-104"/>
<text text-anchor="middle" x="880.5" y="-111" font-family="Helvetica,sans-Serif" font-size="10.00">yaclib::detail::NoResultCore</text>
</a>
</g>
</g>
<!-- Node15&#45;&gt;Node16 -->
<g id="edge17" class="edge">
<title>Node15&#45;&gt;Node16</title>
<path fill="none" stroke="midnightblue" d="M626.64,-111.13C681.61,-111.65 758.71,-112.37 813.29,-112.88"/>
<polygon fill="midnightblue" stroke="midnightblue" points="626.33,-107.63 616.3,-111.04 626.27,-114.63 626.33,-107.63"/>
</g>
<!-- Node17 -->
<g id="node17" class="node">
<title>Node17</title>
<g id="a_node17"><a xlink:href="classyaclib_1_1detail_1_1ResultCore.html" target="_top" xlink:title=" ">
<polygon fill="none" stroke="black" points="819.5,-54.5 819.5,-84.5 941.5,-84.5 941.5,-54.5 819.5,-54.5"/>
<text text-anchor="start" x="827.5" y="-72.5" font-family="Helvetica,sans-Serif" font-size="10.00">yaclib::detail::ResultCore</text>
<text text-anchor="middle" x="880.5" y="-61.5" font-family="Helvetica,sans-Serif" font-size="10.00">&lt; V, E &gt;</text>
</a>
</g>
</g>
<!-- Node15&#45;&gt;Node17 -->
<g id="edge18" class="edge">
<title>Node15&#45;&gt;Node17</title>
<path fill="none" stroke="midnightblue" d="M626.31,-101.89C683.39,-94.59 764.52,-84.21 819.43,-77.18"/>
<polygon fill="midnightblue" stroke="midnightblue" points="625.77,-98.43 616.3,-103.17 626.66,-105.37 625.77,-98.43"/>
</g>
<!-- Node18 -->
<g id="node18" class="node">
<title>Node18</title>
<g id="a_node18"><a xlink:href="structyaclib_1_1detail_1_1OneCounter.html" target="_top" xlink:title=" ">
<polygon fill="none" stroke="black" points="995,-49 995,-90 1165,-90 1165,-49 995,-49"/>
<text text-anchor="start" x="1003" y="-78" font-family="Helvetica,sans-Serif" font-size="10.00">yaclib::detail::OneCounter</text>
<text text-anchor="start" x="1003" y="-67" font-family="Helvetica,sans-Serif" font-size="10.00">&lt; ResultCore&lt; V, E &gt;, PromiseType</text>
<text text-anchor="middle" x="1080" y="-56" font-family="Helvetica,sans-Serif" font-size="10.00">Deleter&lt; Lazy &gt; &gt;</text>
</a>
</g>
</g>
<!-- Node17&#45;&gt;Node18 -->
<g id="edge19" class="edge">
<title>Node17&#45;&gt;Node18</title>
<path fill="none" stroke="midnightblue" d="M951.59,-69.5C965.59,-69.5 980.43,-69.5 994.84,-69.5"/>
<polygon fill="midnightblue" stroke="midnightblue" points="951.56,-66 941.56,-69.5 951.56,-73 951.56,-66"/>
</g>
<!-- Node20 -->
<g id="node20" class="node">
<title>Node20</title>
<g id="a_node20"><a xlink:href="classyaclib_1_1detail_1_1PromiseCore.html" target="_top" xlink:title=" ">
<polygon fill="none" stroke="black" points="1015,-0.5 1015,-30.5 1145,-30.5 1145,-0.5 1015,-0.5"/>
<text text-anchor="start" x="1023" y="-18.5" font-family="Helvetica,sans-Serif" font-size="10.00">yaclib::detail::PromiseCore</text>
<text text-anchor="middle" x="1080" y="-7.5" font-family="Helvetica,sans-Serif" font-size="10.00">&lt; V, E, Func &gt;</text>
</a>
</g>
</g>
<!-- Node17&#45;&gt;Node20 -->
<g id="edge21" class="edge">
<title>Node17&#45;&gt;Node20</title>
<path fill="none" stroke="midnightblue" d="M946.32,-51.78C971.42,-44.91 999.85,-37.14 1023.94,-30.55"/>
<polygon fill="midnightblue" stroke="midnightblue" points="945.24,-48.44 936.51,-54.46 947.08,-55.2 945.24,-48.44"/>
</g>
<!-- Node21 -->
<g id="node21" class="node">
<title>Node21</title>
<g id="a_node21"><a xlink:href="classyaclib_1_1detail_1_1ReadyCore.html" target="_top" xlink:title=" ">
<polygon fill="none" stroke="black" points="1019.5,-108.5 1019.5,-138.5 1140.5,-138.5 1140.5,-108.5 1019.5,-108.5"/>
<text text-anchor="start" x="1027.5" y="-126.5" font-family="Helvetica,sans-Serif" font-size="10.00">yaclib::detail::ReadyCore</text>
<text text-anchor="middle" x="1080" y="-115.5" font-family="Helvetica,sans-Serif" font-size="10.00">&lt; V, E &gt;</text>
</a>
</g>
</g>
<!-- Node17&#45;&gt;Node21 -->
<g id="edge22" class="edge">
<title>Node17&#45;&gt;Node21</title>
<path fill="none" stroke="midnightblue" d="M946.32,-87.22C971.42,-94.09 999.85,-101.86 1023.94,-108.45"/>
<polygon fill="midnightblue" stroke="midnightblue" points="947.08,-83.8 936.51,-84.54 945.24,-90.56 947.08,-83.8"/>
</g>
<!-- Node19 -->
<g id="node19" class="node">
<title>Node19</title>
<g id="a_node19"><a xlink:href="classyaclib_1_1detail_1_1PromiseType.html" target="_top" xlink:title=" ">
<polygon fill="none" stroke="black" points="1202,-54.5 1202,-84.5 1333,-84.5 1333,-54.5 1202,-54.5"/>
<text text-anchor="start" x="1210" y="-72.5" font-family="Helvetica,sans-Serif" font-size="10.00">yaclib::detail::PromiseType</text>
<text text-anchor="middle" x="1267.5" y="-61.5" font-family="Helvetica,sans-Serif" font-size="10.00">&lt; V, E, Lazy &gt;</text>
</a>
</g>
</g>
<!-- Node18&#45;&gt;Node19 -->
<g id="edge20" class="edge">
<title>Node18&#45;&gt;Node19</title>
<path fill="none" stroke="midnightblue" d="M1175.24,-69.5C1184.26,-69.5 1193.26,-69.5 1201.9,-69.5"/>
<polygon fill="midnightblue" stroke="midnightblue" points="1175.07,-66 1165.07,-69.5 1175.07,-73 1175.07,-66"/>
</g>
<!-- Node22&#45;&gt;Node8 -->
<g id="edge24" class="edge">
<title>Node22&#45;&gt;Node8</title>
<path fill="none" stroke="orange" stroke-dasharray="5,2" d="M632.32,-145.09C676.98,-141.43 734.88,-140.4 785,-151.5 801.61,-155.18 818.76,-162.09 833.82,-169.36"/>
<polygon fill="orange" stroke="orange" points="631.79,-141.62 622.14,-145.99 632.41,-148.6 631.79,-141.62"/>
<text text-anchor="start" x="646" y="-176.5" font-family="Helvetica,sans-Serif" font-size="10.00"> &lt; MultiEvent&lt; OneShotEvent,</text>
<text text-anchor="start" x="646" y="-165.5" font-family="Helvetica,sans-Serif" font-size="10.00"> yaclib::detail::AtomicCounter,</text>
<text text-anchor="middle" x="715.5" y="-154.5" font-family="Helvetica,sans-Serif" font-size="10.00"> yaclib::detail::CallCallback ... &gt; &gt;</text>
</g>
</g>
</svg>
