<?xml version="1.0" encoding="UTF-8" standalone="no"?>
<!DOCTYPE svg PUBLIC "-//W3C//DTD SVG 1.1//EN"
 "http://www.w3.org/Graphics/SVG/1.1/DTD/svg11.dtd">
<!-- Generated by graphviz version 9.0.0 (20230911.1827)
 -->
<!-- Title: yaclib::detail::MultiAwaitAwaiter&lt; Event &gt; Pages: 1 -->
<svg width="172pt" height="105pt"
 viewBox="0.00 0.00 172.00 105.00" xmlns="http://www.w3.org/2000/svg" xmlns:xlink="http://www.w3.org/1999/xlink">
<g id="graph0" class="graph" transform="scale(1 1) rotate(0) translate(4 101)">
<title>yaclib::detail::MultiAwaitAwaiter&lt; Event &gt;</title>
<!-- Node1 -->
<g id="Node000001" class="node">
<title>Node1</title>
<g id="a_Node000001"><a xlink:title=" ">
<polygon fill="#999999" stroke="#666666" points="124.75,-30.5 6,-30.5 6,0 124.75,0 124.75,-30.5"/>
<text text-anchor="start" x="14" y="-17" font-family="Helvetica,sans-Serif" font-size="10.00">yaclib::detail::MultiAwait</text>
<text text-anchor="middle" x="65.38" y="-5.75" font-family="Helvetica,sans-Serif" font-size="10.00">Awaiter&lt; Event &gt;</text>
</a>
</g>
</g>
<!-- Node2 -->
<g id="Node000002" class="node">
<title>Node2</title>
<g id="a_Node000002"><a xlink:href="classEvent.html" target="_top" xlink:title=" ">
<polygon fill="white" stroke="#666666" points="40.75,-97 0,-97 0,-77.75 40.75,-77.75 40.75,-97"/>
<text text-anchor="middle" x="20.38" y="-83.5" font-family="Helvetica,sans-Serif" font-size="10.00">Event</text>
</a>
</g>
</g>
<!-- Node2&#45;&gt;Node1 -->
<g id="edge1_Node000001_Node000002" class="edge">
<title>Node2&#45;&gt;Node1</title>
<g id="a_edge1_Node000001_Node000002"><a xlink:title=" ">
<path fill="none" stroke="#63b8ff" d="M32.19,-67.96C39.61,-56.4 49.05,-41.69 55.96,-30.92"/>
<polygon fill="#63b8ff" stroke="#63b8ff" points="29.35,-65.91 26.89,-76.22 35.24,-69.69 29.35,-65.91"/>
</a>
</g>
</g>
<!-- Node3 -->
<g id="Node000003" class="node">
<title>Node3</title>
<g id="a_Node000003"><a xlink:title=" ">
<polygon fill="white" stroke="#666666" points="164,-97 58.75,-97 58.75,-77.75 164,-77.75 164,-97"/>
<text text-anchor="middle" x="111.38" y="-83.5" font-family="Helvetica,sans-Serif" font-size="10.00">static constexpr auto</text>
</a>
</g>
</g>
<!-- Node3&#45;&gt;Node1 -->
<g id="edge2_Node000001_Node000003" class="edge">
<title>Node3&#45;&gt;Node1</title>
<g id="a_edge2_Node000001_Node000003"><a xlink:title=" ">
<path fill="none" stroke="#9a32cd" stroke-dasharray="5,2" d="M99.3,-67.96C91.71,-56.4 82.06,-41.69 75,-30.92"/>
<polygon fill="#9a32cd" stroke="#9a32cd" points="96.31,-69.79 104.72,-76.23 102.16,-65.95 96.31,-69.79"/>
</a>
</g>
<text text-anchor="middle" x="112.5" y="-50.25" font-family="Helvetica,sans-Serif" font-size="10.00" fill="grey"> kShared</text>
</g>
</g>
</svg>
