<?xml version="1.0" encoding="UTF-8" standalone="no"?>
<!DOCTYPE svg PUBLIC "-//W3C//DTD SVG 1.1//EN"
 "http://www.w3.org/Graphics/SVG/1.1/DTD/svg11.dtd">
<!-- Generated by graphviz version 9.0.0 (20230911.1827)
 -->
<!-- Title: yaclib::IntrusivePtr&lt; T &gt; Pages: 1 -->
<svg width="431pt" height="186pt"
 viewBox="0.00 0.00 430.75 185.50" xmlns="http://www.w3.org/2000/svg" xmlns:xlink="http://www.w3.org/1999/xlink">
<g id="graph0" class="graph" transform="scale(1 1) rotate(0) translate(4 181.5)">
<title>yaclib::IntrusivePtr&lt; T &gt;</title>
<!-- Node1 -->
<g id="Node000001" class="node">
<title>Node1</title>
<g id="a_Node000001"><a xlink:title="A intrusive pointer to objects with an embedded reference count.">
<polygon fill="#999999" stroke="#666666" points="118,-97.88 0,-97.88 0,-78.62 118,-78.62 118,-97.88"/>
<text text-anchor="middle" x="59" y="-84.38" font-family="Helvetica,sans-Serif" font-size="10.00">yaclib::IntrusivePtr&lt; T &gt;</text>
</a>
</g>
</g>
<!-- Node2 -->
<g id="Node000002" class="node">
<title>Node2</title>
<g id="a_Node000002"><a xlink:href="classyaclib_1_1IntrusivePtr.html" target="_top" xlink:title=" ">
<polygon fill="white" stroke="#666666" points="399.88,-177.5 304.38,-177.5 304.38,-147 399.88,-147 399.88,-177.5"/>
<text text-anchor="start" x="312.38" y="-164" font-family="Helvetica,sans-Serif" font-size="10.00">yaclib::IntrusivePtr</text>
<text text-anchor="middle" x="352.12" y="-152.75" font-family="Helvetica,sans-Serif" font-size="10.00">&lt; V, E &gt;</text>
</a>
</g>
</g>
<!-- Node1&#45;&gt;Node2 -->
<g id="edge1_Node000001_Node000002" class="edge">
<title>Node1&#45;&gt;Node2</title>
<g id="a_edge1_Node000001_Node000002"><a xlink:title=" ">
<path fill="none" stroke="orange" stroke-dasharray="5,2" d="M91.73,-102.77C105.17,-108.5 121.14,-114.78 136,-119.25 192.71,-136.32 259.9,-148.51 303.91,-155.46"/>
<polygon fill="orange" stroke="orange" points="93.51,-99.72 82.94,-98.93 90.71,-106.14 93.51,-99.72"/>
</a>
</g>
<text text-anchor="middle" x="199.75" y="-150" font-family="Helvetica,sans-Serif" font-size="10.00" fill="grey"> &lt; V, E &gt;</text>
</g>
<!-- Node3 -->
<g id="Node000003" class="node">
<title>Node3</title>
<g id="a_Node000003"><a xlink:href="classyaclib_1_1IntrusivePtr.html" target="_top" xlink:title=" ">
<polygon fill="white" stroke="#666666" points="399.88,-128.5 304.38,-128.5 304.38,-98 399.88,-98 399.88,-128.5"/>
<text text-anchor="start" x="312.38" y="-115" font-family="Helvetica,sans-Serif" font-size="10.00">yaclib::IntrusivePtr</text>
<text text-anchor="middle" x="352.12" y="-103.75" font-family="Helvetica,sans-Serif" font-size="10.00">&lt; IExecutor &gt;</text>
</a>
</g>
</g>
<!-- Node1&#45;&gt;Node3 -->
<g id="edge2_Node000001_Node000003" class="edge">
<title>Node1&#45;&gt;Node3</title>
<g id="a_edge2_Node000001_Node000003"><a xlink:title=" ">
<path fill="none" stroke="orange" stroke-dasharray="5,2" d="M129.42,-94.21C183.38,-98.84 256.77,-105.15 304.05,-109.21"/>
<polygon fill="orange" stroke="orange" points="129.98,-90.75 119.72,-93.38 129.39,-97.72 129.98,-90.75"/>
</a>
</g>
<text text-anchor="middle" x="199.75" y="-106" font-family="Helvetica,sans-Serif" font-size="10.00" fill="grey"> &lt; IExecutor &gt;</text>
</g>
<!-- Node4 -->
<g id="Node000004" class="node">
<title>Node4</title>
<g id="a_Node000004"><a xlink:href="classyaclib_1_1IntrusivePtr.html" target="_top" xlink:title=" ">
<polygon fill="white" stroke="#666666" points="422.75,-79.5 281.5,-79.5 281.5,-49 422.75,-49 422.75,-79.5"/>
<text text-anchor="start" x="289.5" y="-66" font-family="Helvetica,sans-Serif" font-size="10.00">yaclib::IntrusivePtr</text>
<text text-anchor="middle" x="352.12" y="-54.75" font-family="Helvetica,sans-Serif" font-size="10.00">&lt; OutputValue, OutputError &gt;</text>
</a>
</g>
</g>
<!-- Node1&#45;&gt;Node4 -->
<g id="edge3_Node000001_Node000004" class="edge">
<title>Node1&#45;&gt;Node4</title>
<g id="a_edge3_Node000001_Node000004"><a xlink:title=" ">
<path fill="none" stroke="orange" stroke-dasharray="5,2" d="M129.79,-80.58C131.88,-80.38 133.96,-80.19 136,-80 184.48,-75.6 239.2,-71.6 281.32,-68.74"/>
<polygon fill="orange" stroke="orange" points="129.6,-77.08 119.99,-81.54 130.29,-84.05 129.6,-77.08"/>
</a>
</g>
<text text-anchor="middle" x="199.75" y="-81" font-family="Helvetica,sans-Serif" font-size="10.00" fill="grey"> &lt; OutputValue, OutputError &gt;</text>
</g>
<!-- Node5 -->
<g id="Node000005" class="node">
<title>Node5</title>
<g id="a_Node000005"><a xlink:href="classyaclib_1_1IntrusivePtr.html" target="_top" xlink:title=" ">
<polygon fill="white" stroke="#666666" points="404.75,-30.5 299.5,-30.5 299.5,0 404.75,0 404.75,-30.5"/>
<text text-anchor="start" x="307.5" y="-17" font-family="Helvetica,sans-Serif" font-size="10.00">yaclib::IntrusivePtr</text>
<text text-anchor="middle" x="352.12" y="-5.75" font-family="Helvetica,sans-Serif" font-size="10.00">&lt; void, OutputError &gt;</text>
</a>
</g>
</g>
<!-- Node1&#45;&gt;Node5 -->
<g id="edge4_Node000001_Node000005" class="edge">
<title>Node1&#45;&gt;Node5</title>
<g id="a_edge4_Node000001_Node000005"><a xlink:title=" ">
<path fill="none" stroke="orange" stroke-dasharray="5,2" d="M89.86,-73.29C103.63,-66.89 120.35,-59.8 136,-55 190.47,-38.3 254.96,-27.52 299.04,-21.46"/>
<polygon fill="orange" stroke="orange" points="88.41,-70.1 80.89,-77.57 91.43,-76.42 88.41,-70.1"/>
</a>
</g>
<text text-anchor="middle" x="199.75" y="-56" font-family="Helvetica,sans-Serif" font-size="10.00" fill="grey"> &lt; void, OutputError &gt;</text>
</g>
</g>
</svg>
