<?xml version="1.0" encoding="UTF-8" standalone="no"?>
<!DOCTYPE svg PUBLIC "-//W3C//DTD SVG 1.1//EN"
 "http://www.w3.org/Graphics/SVG/1.1/DTD/svg11.dtd">
<!-- Generated by graphviz version 3.0.0 (20220413.0242)
 -->
<!-- Title: yaclib::detail::fiber::AtomicFlag Pages: 1 -->
<svg width="330pt" height="252pt"
 viewBox="0.00 0.00 329.50 252.00" xmlns="http://www.w3.org/2000/svg" xmlns:xlink="http://www.w3.org/1999/xlink">
<g id="graph0" class="graph" transform="scale(1 1) rotate(0) translate(4 248)">
<title>yaclib::detail::fiber::AtomicFlag</title>
<!-- Node1 -->
<g id="node1" class="node">
<title>Node1</title>
<g id="a_node1"><a xlink:title=" ">
<polygon fill="#bfbfbf" stroke="black" points="112.5,-0.5 112.5,-30.5 204.5,-30.5 204.5,-0.5 112.5,-0.5"/>
<text text-anchor="start" x="120.5" y="-18.5" font-family="Helvetica,sans-Serif" font-size="10.00">yaclib::detail::fiber</text>
<text text-anchor="middle" x="158.5" y="-7.5" font-family="Helvetica,sans-Serif" font-size="10.00">::AtomicFlag</text>
</a>
</g>
</g>
<!-- Node2 -->
<g id="node2" class="node">
<title>Node2</title>
<g id="a_node2"><a xlink:href="classyaclib_1_1detail_1_1fiber_1_1AtomicWait.html" target="_top" xlink:title=" ">
<polygon fill="none" stroke="black" points="105.5,-68.5 105.5,-98.5 211.5,-98.5 211.5,-68.5 105.5,-68.5"/>
<text text-anchor="start" x="113.5" y="-86.5" font-family="Helvetica,sans-Serif" font-size="10.00">yaclib::detail::fiber</text>
<text text-anchor="middle" x="158.5" y="-75.5" font-family="Helvetica,sans-Serif" font-size="10.00">::AtomicWait&lt; bool &gt;</text>
</a>
</g>
</g>
<!-- Node2&#45;&gt;Node1 -->
<g id="edge1" class="edge">
<title>Node2&#45;&gt;Node1</title>
<path fill="none" stroke="midnightblue" d="M158.5,-58.03C158.5,-48.86 158.5,-38.74 158.5,-30.79"/>
<polygon fill="midnightblue" stroke="midnightblue" points="155,-58.18 158.5,-68.18 162,-58.18 155,-58.18"/>
</g>
<!-- Node3 -->
<g id="node3" class="node">
<title>Node3</title>
<g id="a_node3"><a xlink:href="classstatic_01constexpr_01bool.html" target="_top" xlink:title=" ">
<polygon fill="none" stroke="black" points="0,-152 0,-171 105,-171 105,-152 0,-152"/>
<text text-anchor="middle" x="52.5" y="-159" font-family="Helvetica,sans-Serif" font-size="10.00">static constexpr bool</text>
</a>
</g>
</g>
<!-- Node3&#45;&gt;Node2 -->
<g id="edge2" class="edge">
<title>Node3&#45;&gt;Node2</title>
<path fill="none" stroke="#9a32cd" stroke-dasharray="5,2" d="M48.32,-141.85C47.53,-133.48 48.25,-123.96 53.5,-117 65.75,-100.78 85.98,-92.43 105.43,-88.21"/>
<polygon fill="#9a32cd" stroke="#9a32cd" points="44.89,-142.57 49.98,-151.86 51.8,-141.42 44.89,-142.57"/>
<text text-anchor="middle" x="99" y="-120" font-family="Helvetica,sans-Serif" font-size="10.00"> is_always_lock_free</text>
</g>
<!-- Node4 -->
<g id="node4" class="node">
<title>Node4</title>
<g id="a_node4"><a xlink:href="classbool.html" target="_top" xlink:title=" ">
<polygon fill="none" stroke="black" points="158,-224.5 158,-243.5 193,-243.5 193,-224.5 158,-224.5"/>
<text text-anchor="middle" x="175.5" y="-231.5" font-family="Helvetica,sans-Serif" font-size="10.00">bool</text>
</a>
</g>
</g>
<!-- Node4&#45;&gt;Node2 -->
<g id="edge3" class="edge">
<title>Node4&#45;&gt;Node2</title>
<path fill="none" stroke="#9a32cd" stroke-dasharray="5,2" d="M172.61,-214.27C170.99,-203.41 168.99,-189.45 167.5,-177 164.17,-149.29 161.23,-116.79 159.68,-98.63"/>
<polygon fill="#9a32cd" stroke="#9a32cd" points="169.17,-214.93 174.13,-224.29 176.09,-213.87 169.17,-214.93"/>
<text text-anchor="middle" x="183" y="-159" font-family="Helvetica,sans-Serif" font-size="10.00"> _value</text>
</g>
<!-- Node5 -->
<g id="node5" class="node">
<title>Node5</title>
<g id="a_node5"><a xlink:href="classyaclib_1_1detail_1_1fiber_1_1AtomicWait.html" target="_top" xlink:title=" ">
<polygon fill="none" stroke="black" points="207.5,-146.5 207.5,-176.5 301.5,-176.5 301.5,-146.5 207.5,-146.5"/>
<text text-anchor="start" x="215.5" y="-164.5" font-family="Helvetica,sans-Serif" font-size="10.00">yaclib::detail::fiber</text>
<text text-anchor="middle" x="254.5" y="-153.5" font-family="Helvetica,sans-Serif" font-size="10.00">::AtomicWait&lt; T &gt;</text>
</a>
</g>
</g>
<!-- Node4&#45;&gt;Node5 -->
<g id="edge5" class="edge">
<title>Node4&#45;&gt;Node5</title>
<path fill="none" stroke="#9a32cd" stroke-dasharray="5,2" d="M178.76,-214.42C180.69,-207.69 183.73,-200.43 188.5,-195 195.25,-187.33 204.22,-181.28 213.38,-176.58"/>
<polygon fill="#9a32cd" stroke="#9a32cd" points="175.34,-213.67 176.56,-224.19 182.17,-215.21 175.34,-213.67"/>
<text text-anchor="middle" x="234" y="-198" font-family="Helvetica,sans-Serif" font-size="10.00"> is_always_lock_free</text>
</g>
<!-- Node5&#45;&gt;Node2 -->
<g id="edge4" class="edge">
<title>Node5&#45;&gt;Node2</title>
<path fill="none" stroke="orange" stroke-dasharray="5,2" d="M228.29,-139.75C211.85,-126.73 191.07,-110.28 176.48,-98.73"/>
<polygon fill="orange" stroke="orange" points="226.43,-142.74 236.44,-146.2 230.78,-137.25 226.43,-142.74"/>
<text text-anchor="middle" x="231" y="-120" font-family="Helvetica,sans-Serif" font-size="10.00"> &lt; bool &gt;</text>
</g>
<!-- Node6 -->
<g id="node6" class="node">
<title>Node6</title>
<g id="a_node6"><a xlink:title=" ">
<polygon fill="none" stroke="black" points="291,-224.5 291,-243.5 320,-243.5 320,-224.5 291,-224.5"/>
<text text-anchor="middle" x="305.5" y="-231.5" font-family="Helvetica,sans-Serif" font-size="10.00">T</text>
</a>
</g>
</g>
<!-- Node6&#45;&gt;Node5 -->
<g id="edge6" class="edge">
<title>Node6&#45;&gt;Node5</title>
<path fill="none" stroke="#9a32cd" stroke-dasharray="5,2" d="M296.3,-215.41C292.61,-208.82 288.13,-201.39 283.5,-195 278.89,-188.63 273.24,-182.07 268.15,-176.53"/>
<polygon fill="#9a32cd" stroke="#9a32cd" points="293.24,-217.11 301.08,-224.24 299.4,-213.78 293.24,-217.11"/>
<text text-anchor="middle" x="306" y="-198" font-family="Helvetica,sans-Serif" font-size="10.00"> _value</text>
</g>
</g>
</svg>
