<?xml version="1.0" encoding="UTF-8" standalone="no"?>
<!DOCTYPE svg PUBLIC "-//W3C//DTD SVG 1.1//EN"
 "http://www.w3.org/Graphics/SVG/1.1/DTD/svg11.dtd">
<!-- Generated by graphviz version 9.0.0 (20230911.1827)
 -->
<!-- Title: yaclib::detail::fiber::Mutex Pages: 1 -->
<svg width="164pt" height="116pt"
 viewBox="0.00 0.00 164.00 116.25" xmlns="http://www.w3.org/2000/svg" xmlns:xlink="http://www.w3.org/1999/xlink">
<g id="graph0" class="graph" transform="scale(1 1) rotate(0) translate(4 112.25)">
<title>yaclib::detail::fiber::Mutex</title>
<!-- Node1 -->
<g id="Node000001" class="node">
<title>Node1</title>
<g id="a_Node000001"><a xlink:title=" ">
<polygon fill="#999999" stroke="#666666" points="131,-30.5 40,-30.5 40,0 131,0 131,-30.5"/>
<text text-anchor="start" x="48" y="-17" font-family="Helvetica,sans-Serif" font-size="10.00">yaclib::detail::fiber</text>
<text text-anchor="middle" x="85.5" y="-5.75" font-family="Helvetica,sans-Serif" font-size="10.00">::Mutex</text>
</a>
</g>
</g>
<!-- Node2 -->
<g id="Node000002" class="node">
<title>Node2</title>
<g id="a_Node000002"><a xlink:href="classyaclib_1_1detail_1_1fiber_1_1FiberQueue.html" target="_top" xlink:title=" ">
<polygon fill="white" stroke="#666666" points="91,-108.25 0,-108.25 0,-77.75 91,-77.75 91,-108.25"/>
<text text-anchor="start" x="8" y="-94.75" font-family="Helvetica,sans-Serif" font-size="10.00">yaclib::detail::fiber</text>
<text text-anchor="middle" x="45.5" y="-83.5" font-family="Helvetica,sans-Serif" font-size="10.00">::FiberQueue</text>
</a>
</g>
</g>
<!-- Node2&#45;&gt;Node1 -->
<g id="edge1_Node000001_Node000002" class="edge">
<title>Node2&#45;&gt;Node1</title>
<g id="a_edge1_Node000001_Node000002"><a xlink:title=" ">
<path fill="none" stroke="#9a32cd" stroke-dasharray="5,2" d="M58.47,-67.45C64.85,-55.35 72.34,-41.17 77.81,-30.81"/>
<polygon fill="#9a32cd" stroke="#9a32cd" points="55.49,-65.58 53.92,-76.06 61.68,-68.85 55.49,-65.58"/>
</a>
</g>
<text text-anchor="middle" x="85.38" y="-50.25" font-family="Helvetica,sans-Serif" font-size="10.00" fill="grey"> _queue</text>
</g>
<!-- Node3 -->
<g id="Node000003" class="node">
<title>Node3</title>
<g id="a_Node000003"><a xlink:href="classbool.html" target="_top" xlink:title=" ">
<polygon fill="white" stroke="#666666" points="143.5,-102.62 109.5,-102.62 109.5,-83.38 143.5,-83.38 143.5,-102.62"/>
<text text-anchor="middle" x="126.5" y="-89.12" font-family="Helvetica,sans-Serif" font-size="10.00">bool</text>
</a>
</g>
</g>
<!-- Node3&#45;&gt;Node1 -->
<g id="edge2_Node000001_Node000003" class="edge">
<title>Node3&#45;&gt;Node1</title>
<g id="a_edge2_Node000001_Node000003"><a xlink:title=" ">
<path fill="none" stroke="#9a32cd" stroke-dasharray="5,2" d="M117.14,-72.84C113.33,-65.21 108.81,-56.38 104.5,-48.5 101.32,-42.68 97.66,-36.38 94.4,-30.91"/>
<polygon fill="#9a32cd" stroke="#9a32cd" points="113.88,-74.14 121.45,-81.56 120.16,-71.04 113.88,-74.14"/>
</a>
</g>
<text text-anchor="middle" x="132.75" y="-50.25" font-family="Helvetica,sans-Serif" font-size="10.00" fill="grey"> _occupied</text>
</g>
</g>
</svg>
