<?xml version="1.0" encoding="UTF-8" standalone="no"?>
<!DOCTYPE svg PUBLIC "-//W3C//DTD SVG 1.1//EN"
 "http://www.w3.org/Graphics/SVG/1.1/DTD/svg11.dtd">
<!-- Generated by graphviz version 9.0.0 (20230911.1827)
 -->
<!-- Title: yaclib::detail::GuardState Pages: 1 -->
<svg width="619pt" height="117pt"
 viewBox="0.00 0.00 619.25 116.88" xmlns="http://www.w3.org/2000/svg" xmlns:xlink="http://www.w3.org/1999/xlink">
<g id="graph0" class="graph" transform="scale(1 1) rotate(0) translate(4 112.88)">
<title>yaclib::detail::GuardState</title>
<!-- Node1 -->
<g id="Node000001" class="node">
<title>Node1</title>
<g id="a_Node000001"><a xlink:title=" ">
<polygon fill="#999999" stroke="#666666" points="122.5,-69.25 0,-69.25 0,-50 122.5,-50 122.5,-69.25"/>
<text text-anchor="middle" x="61.25" y="-55.75" font-family="Helvetica,sans-Serif" font-size="10.00">yaclib::detail::GuardState</text>
</a>
</g>
</g>
<!-- Node2 -->
<g id="Node000002" class="node">
<title>Node2</title>
<g id="a_Node000002"><a xlink:href="classyaclib_1_1detail_1_1Guard.html" target="_top" xlink:title=" ">
<polygon fill="white" stroke="#666666" points="447.25,-108.88 348,-108.88 348,-78.38 447.25,-78.38 447.25,-108.88"/>
<text text-anchor="start" x="356" y="-95.38" font-family="Helvetica,sans-Serif" font-size="10.00">yaclib::detail::Guard</text>
<text text-anchor="middle" x="397.62" y="-84.12" font-family="Helvetica,sans-Serif" font-size="10.00">&lt; M, true &gt;</text>
</a>
</g>
</g>
<!-- Node1&#45;&gt;Node2 -->
<g id="edge1_Node000001_Node000002" class="edge">
<title>Node1&#45;&gt;Node2</title>
<g id="a_edge1_Node000001_Node000002"><a xlink:title=" ">
<path fill="none" stroke="darkgreen" d="M107.88,-72.54C124.06,-76.68 142.48,-80.89 159.5,-83.62 223.98,-93.98 299.52,-95.35 347.7,-94.89"/>
<polygon fill="darkgreen" stroke="darkgreen" points="109.1,-69.24 98.54,-70.09 107.32,-76.01 109.1,-69.24"/>
</a>
</g>
</g>
<!-- Node4 -->
<g id="Node000004" class="node">
<title>Node4</title>
<g id="a_Node000004"><a xlink:href="classyaclib_1_1detail_1_1Guard.html" target="_top" xlink:title=" ">
<polygon fill="white" stroke="#666666" points="447.25,-37.88 348,-37.88 348,-7.37 447.25,-7.37 447.25,-37.88"/>
<text text-anchor="start" x="356" y="-24.38" font-family="Helvetica,sans-Serif" font-size="10.00">yaclib::detail::Guard</text>
<text text-anchor="middle" x="397.62" y="-13.12" font-family="Helvetica,sans-Serif" font-size="10.00">&lt; M, false &gt;</text>
</a>
</g>
</g>
<!-- Node1&#45;&gt;Node4 -->
<g id="edge3_Node000001_Node000004" class="edge">
<title>Node1&#45;&gt;Node4</title>
<g id="a_edge3_Node000001_Node000004"><a xlink:title=" ">
<path fill="none" stroke="darkgreen" d="M107.05,-46.71C123.42,-42.48 142.17,-38.21 159.5,-35.62 224.13,-25.97 299.63,-23.28 347.76,-22.64"/>
<polygon fill="darkgreen" stroke="darkgreen" points="106.37,-43.27 97.61,-49.22 108.17,-50.03 106.37,-43.27"/>
</a>
</g>
</g>
<!-- Node7 -->
<g id="Node000007" class="node">
<title>Node7</title>
<g id="a_Node000007"><a xlink:href="classyaclib_1_1detail_1_1Guard.html" target="_top" xlink:title=" ">
<polygon fill="white" stroke="#666666" points="258.75,-74.88 159.5,-74.88 159.5,-44.38 258.75,-44.38 258.75,-74.88"/>
<text text-anchor="start" x="167.5" y="-61.38" font-family="Helvetica,sans-Serif" font-size="10.00">yaclib::detail::Guard</text>
<text text-anchor="middle" x="209.12" y="-50.12" font-family="Helvetica,sans-Serif" font-size="10.00">&lt; M, Shared &gt;</text>
</a>
</g>
</g>
<!-- Node1&#45;&gt;Node7 -->
<g id="edge6_Node000001_Node000007" class="edge">
<title>Node1&#45;&gt;Node7</title>
<g id="a_edge6_Node000001_Node000007"><a xlink:title=" ">
<path fill="none" stroke="darkgreen" d="M134.24,-59.62C142.64,-59.62 151.05,-59.62 159.03,-59.62"/>
<polygon fill="darkgreen" stroke="darkgreen" points="134.36,-56.13 124.36,-59.63 134.36,-63.13 134.36,-56.13"/>
</a>
</g>
</g>
<!-- Node3 -->
<g id="Node000003" class="node">
<title>Node3</title>
<g id="a_Node000003"><a xlink:href="classyaclib_1_1SharedGuard.html" target="_top" xlink:title=" ">
<polygon fill="white" stroke="#666666" points="611.25,-103.25 484.25,-103.25 484.25,-84 611.25,-84 611.25,-103.25"/>
<text text-anchor="middle" x="547.75" y="-89.75" font-family="Helvetica,sans-Serif" font-size="10.00">yaclib::SharedGuard&lt; M &gt;</text>
</a>
</g>
</g>
<!-- Node2&#45;&gt;Node3 -->
<g id="edge2_Node000002_Node000003" class="edge">
<title>Node2&#45;&gt;Node3</title>
<g id="a_edge2_Node000002_Node000003"><a xlink:title=" ">
<path fill="none" stroke="#63b8ff" d="M458.96,-93.62C467.18,-93.62 475.63,-93.62 483.89,-93.62"/>
<polygon fill="#63b8ff" stroke="#63b8ff" points="459.05,-90.13 449.05,-93.63 459.05,-97.13 459.05,-90.13"/>
</a>
</g>
</g>
<!-- Node5 -->
<g id="Node000005" class="node">
<title>Node5</title>
<g id="a_Node000005"><a xlink:href="classyaclib_1_1StickyGuard.html" target="_top" xlink:title=" ">
<polygon fill="white" stroke="#666666" points="609.38,-19.25 486.12,-19.25 486.12,0 609.38,0 609.38,-19.25"/>
<text text-anchor="middle" x="547.75" y="-5.75" font-family="Helvetica,sans-Serif" font-size="10.00">yaclib::StickyGuard&lt; M &gt;</text>
</a>
</g>
</g>
<!-- Node4&#45;&gt;Node5 -->
<g id="edge4_Node000004_Node000005" class="edge">
<title>Node4&#45;&gt;Node5</title>
<g id="a_edge4_Node000004_Node000005"><a xlink:title=" ">
<path fill="none" stroke="#63b8ff" d="M458.95,-17.33C467.78,-16.56 476.89,-15.76 485.74,-14.98"/>
<polygon fill="#63b8ff" stroke="#63b8ff" points="458.7,-13.84 449.04,-18.2 459.31,-20.81 458.7,-13.84"/>
</a>
</g>
</g>
<!-- Node6 -->
<g id="Node000006" class="node">
<title>Node6</title>
<g id="a_Node000006"><a xlink:href="classyaclib_1_1UniqueGuard.html" target="_top" xlink:title=" ">
<polygon fill="white" stroke="#666666" points="611.25,-56.25 484.25,-56.25 484.25,-37 611.25,-37 611.25,-56.25"/>
<text text-anchor="middle" x="547.75" y="-42.75" font-family="Helvetica,sans-Serif" font-size="10.00">yaclib::UniqueGuard&lt; M &gt;</text>
</a>
</g>
</g>
<!-- Node4&#45;&gt;Node6 -->
<g id="edge5_Node000004_Node000006" class="edge">
<title>Node4&#45;&gt;Node6</title>
<g id="a_edge5_Node000004_Node000006"><a xlink:title=" ">
<path fill="none" stroke="#63b8ff" d="M458.84,-32.38C467.27,-33.75 475.95,-35.15 484.42,-36.53"/>
<polygon fill="#63b8ff" stroke="#63b8ff" points="459.46,-28.94 449.03,-30.79 458.34,-35.85 459.46,-28.94"/>
</a>
</g>
</g>
<!-- Node7&#45;&gt;Node2 -->
<g id="edge7_Node000007_Node000002" class="edge">
<title>Node7&#45;&gt;Node2</title>
<g id="a_edge7_Node000007_Node000002"><a xlink:title=" ">
<path fill="none" stroke="orange" stroke-dasharray="5,2" d="M270.38,-70.53C289.45,-73.99 310.61,-77.83 330,-81.38 335.67,-82.41 341.61,-83.5 347.51,-84.58"/>
<polygon fill="orange" stroke="orange" points="271.07,-67.1 260.61,-68.76 269.83,-73.99 271.07,-67.1"/>
</a>
</g>
<text text-anchor="middle" x="303.38" y="-82.38" font-family="Helvetica,sans-Serif" font-size="10.00" fill="grey"> &lt; M, true &gt;</text>
</g>
<!-- Node7&#45;&gt;Node4 -->
<g id="edge8_Node000007_Node000004" class="edge">
<title>Node7&#45;&gt;Node4</title>
<g id="a_edge8_Node000007_Node000004"><a xlink:title=" ">
<path fill="none" stroke="orange" stroke-dasharray="5,2" d="M270.32,-47.68C295.32,-42.72 323.95,-37.04 347.63,-32.35"/>
<polygon fill="orange" stroke="orange" points="269.74,-44.23 260.61,-49.61 271.1,-51.1 269.74,-44.23"/>
</a>
</g>
<text text-anchor="middle" x="303.38" y="-46.38" font-family="Helvetica,sans-Serif" font-size="10.00" fill="grey"> &lt; M, false &gt;</text>
</g>
</g>
</svg>
