<?xml version="1.0" encoding="UTF-8" standalone="no"?>
<!DOCTYPE svg PUBLIC "-//W3C//DTD SVG 1.1//EN"
 "http://www.w3.org/Graphics/SVG/1.1/DTD/svg11.dtd">
<!-- Generated by graphviz version 3.0.0 (20220413.0242)
 -->
<!-- Title: CounterBase Pages: 1 -->
<svg width="1286pt" height="267pt"
 viewBox="0.00 0.00 1286.00 267.00" xmlns="http://www.w3.org/2000/svg" xmlns:xlink="http://www.w3.org/1999/xlink">
<g id="graph0" class="graph" transform="scale(1 1) rotate(0) translate(4 263)">
<title>CounterBase</title>
<!-- Node1 -->
<g id="node1" class="node">
<title>Node1</title>
<g id="a_node1"><a xlink:title=" ">
<polygon fill="#bfbfbf" stroke="black" points="0,-86.5 0,-105.5 73,-105.5 73,-86.5 0,-86.5"/>
<text text-anchor="middle" x="36.5" y="-93.5" font-family="Helvetica,sans-Serif" font-size="10.00">CounterBase</text>
</a>
</g>
</g>
<!-- Node2 -->
<g id="node2" class="node">
<title>Node2</title>
<g id="a_node2"><a xlink:href="structyaclib_1_1detail_1_1AtomicCounter.html" target="_top" xlink:title=" ">
<polygon fill="none" stroke="black" points="110,-136 110,-166 248,-166 248,-136 110,-136"/>
<text text-anchor="start" x="118" y="-154" font-family="Helvetica,sans-Serif" font-size="10.00">yaclib::detail::AtomicCounter</text>
<text text-anchor="middle" x="179" y="-143" font-family="Helvetica,sans-Serif" font-size="10.00">&lt; CounterBase, Deleter &gt;</text>
</a>
</g>
</g>
<!-- Node1&#45;&gt;Node2 -->
<g id="edge1" class="edge">
<title>Node1&#45;&gt;Node2</title>
<path fill="none" stroke="midnightblue" d="M71.54,-109.33C92.06,-117.36 118.25,-127.61 139.51,-135.93"/>
<polygon fill="midnightblue" stroke="midnightblue" points="72.56,-105.97 61.97,-105.58 70.01,-112.48 72.56,-105.97"/>
</g>
<!-- Node6 -->
<g id="node6" class="node">
<title>Node6</title>
<g id="a_node6"><a xlink:href="structyaclib_1_1detail_1_1UniqueCounter.html" target="_top" xlink:title=" ">
<polygon fill="none" stroke="black" points="110,-55 110,-85 248,-85 248,-55 110,-55"/>
<text text-anchor="start" x="118" y="-73" font-family="Helvetica,sans-Serif" font-size="10.00">yaclib::detail::UniqueCounter</text>
<text text-anchor="middle" x="179" y="-62" font-family="Helvetica,sans-Serif" font-size="10.00">&lt; CounterBase, Deleter &gt;</text>
</a>
</g>
</g>
<!-- Node1&#45;&gt;Node6 -->
<g id="edge5" class="edge">
<title>Node1&#45;&gt;Node6</title>
<path fill="none" stroke="midnightblue" d="M83.4,-87.51C91.92,-85.93 100.98,-84.25 109.99,-82.58"/>
<polygon fill="midnightblue" stroke="midnightblue" points="82.51,-84.11 73.32,-89.37 83.79,-90.99 82.51,-84.11"/>
</g>
<!-- Node3 -->
<g id="node3" class="node">
<title>Node3</title>
<g id="a_node3"><a xlink:href="structyaclib_1_1detail_1_1AtomicCounter.html" target="_top" xlink:title=" ">
<polygon fill="none" stroke="black" points="402,-217.5 402,-258.5 587,-258.5 587,-217.5 402,-217.5"/>
<text text-anchor="start" x="410" y="-246.5" font-family="Helvetica,sans-Serif" font-size="10.00">yaclib::detail::AtomicCounter</text>
<text text-anchor="start" x="410" y="-235.5" font-family="Helvetica,sans-Serif" font-size="10.00">&lt; yaclib::OneShotEvent, OneShotEvent</text>
<text text-anchor="middle" x="494.5" y="-224.5" font-family="Helvetica,sans-Serif" font-size="10.00">Shooter &gt;</text>
</a>
</g>
</g>
<!-- Node2&#45;&gt;Node3 -->
<g id="edge2" class="edge">
<title>Node2&#45;&gt;Node3</title>
<path fill="none" stroke="orange" stroke-dasharray="5,2" d="M214.64,-171.03C229.97,-179.17 248.46,-188.04 266,-194 309.62,-208.81 359.73,-219.17 401.8,-226.11"/>
<polygon fill="orange" stroke="orange" points="216.01,-167.79 205.55,-166.09 212.66,-173.94 216.01,-167.79"/>
<text text-anchor="start" x="271" y="-236" font-family="Helvetica,sans-Serif" font-size="10.00"> &lt; yaclib::OneShotEvent,</text>
<text text-anchor="middle" x="325" y="-225" font-family="Helvetica,sans-Serif" font-size="10.00"> OneShotEventShooter &gt;</text>
</g>
<!-- Node4 -->
<g id="node4" class="node">
<title>Node4</title>
<g id="a_node4"><a xlink:href="structyaclib_1_1detail_1_1AtomicCounter.html" target="_top" xlink:title=" ">
<polygon fill="none" stroke="black" points="425.5,-157.5 425.5,-198.5 563.5,-198.5 563.5,-157.5 425.5,-157.5"/>
<text text-anchor="start" x="433.5" y="-186.5" font-family="Helvetica,sans-Serif" font-size="10.00">yaclib::detail::AtomicCounter</text>
<text text-anchor="start" x="433.5" y="-175.5" font-family="Helvetica,sans-Serif" font-size="10.00">&lt; detail::DefaultEvent, detail</text>
<text text-anchor="middle" x="494.5" y="-164.5" font-family="Helvetica,sans-Serif" font-size="10.00">::SetAllDeleter &gt;</text>
</a>
</g>
</g>
<!-- Node2&#45;&gt;Node4 -->
<g id="edge3" class="edge">
<title>Node2&#45;&gt;Node4</title>
<path fill="none" stroke="orange" stroke-dasharray="5,2" d="M258.09,-157.73C309.48,-162.15 376.09,-167.89 425.34,-172.13"/>
<polygon fill="orange" stroke="orange" points="258.29,-154.23 248.02,-156.86 257.69,-161.2 258.29,-154.23"/>
<text text-anchor="start" x="276.5" y="-182" font-family="Helvetica,sans-Serif" font-size="10.00"> &lt; detail::DefaultEvent,</text>
<text text-anchor="middle" x="325" y="-171" font-family="Helvetica,sans-Serif" font-size="10.00"> detail::SetAllDeleter &gt;</text>
</g>
<!-- Node5 -->
<g id="node5" class="node">
<title>Node5</title>
<g id="a_node5"><a xlink:href="structyaclib_1_1detail_1_1AtomicCounter.html" target="_top" xlink:title=" ">
<polygon fill="none" stroke="black" points="425.5,-109 425.5,-139 563.5,-139 563.5,-109 425.5,-109"/>
<text text-anchor="start" x="433.5" y="-127" font-family="Helvetica,sans-Serif" font-size="10.00">yaclib::detail::AtomicCounter</text>
<text text-anchor="middle" x="494.5" y="-116" font-family="Helvetica,sans-Serif" font-size="10.00">&lt; Handle, HandleDeleter &gt;</text>
</a>
</g>
</g>
<!-- Node2&#45;&gt;Node5 -->
<g id="edge4" class="edge">
<title>Node2&#45;&gt;Node5</title>
<path fill="none" stroke="orange" stroke-dasharray="5,2" d="M258.24,-143.69C260.86,-143.46 263.45,-143.22 266,-143 319.5,-138.28 380.1,-133.23 425.29,-129.53"/>
<polygon fill="orange" stroke="orange" points="257.71,-140.22 248.06,-144.61 258.34,-147.2 257.71,-140.22"/>
<text text-anchor="middle" x="325" y="-146" font-family="Helvetica,sans-Serif" font-size="10.00"> &lt; Handle, HandleDeleter &gt;</text>
</g>
<!-- Node7 -->
<g id="node7" class="node">
<title>Node7</title>
<g id="a_node7"><a xlink:href="structyaclib_1_1detail_1_1UniqueCounter.html" target="_top" xlink:title=" ">
<polygon fill="none" stroke="black" points="409.5,-49.5 409.5,-90.5 579.5,-90.5 579.5,-49.5 409.5,-49.5"/>
<text text-anchor="start" x="417.5" y="-78.5" font-family="Helvetica,sans-Serif" font-size="10.00">yaclib::detail::UniqueCounter</text>
<text text-anchor="start" x="417.5" y="-67.5" font-family="Helvetica,sans-Serif" font-size="10.00">&lt; ResultCore&lt; V, E &gt;, PromiseType</text>
<text text-anchor="middle" x="494.5" y="-56.5" font-family="Helvetica,sans-Serif" font-size="10.00">Deleter &gt;</text>
</a>
</g>
</g>
<!-- Node6&#45;&gt;Node7 -->
<g id="edge6" class="edge">
<title>Node6&#45;&gt;Node7</title>
<path fill="none" stroke="orange" stroke-dasharray="5,2" d="M258.24,-70C304.25,-70 362.42,-70 409.4,-70"/>
<polygon fill="orange" stroke="orange" points="258.02,-66.5 248.02,-70 258.02,-73.5 258.02,-66.5"/>
<text text-anchor="start" x="270" y="-84" font-family="Helvetica,sans-Serif" font-size="10.00"> &lt; ResultCore&lt; V, E</text>
<text text-anchor="middle" x="325" y="-73" font-family="Helvetica,sans-Serif" font-size="10.00"> &gt;, PromiseTypeDeleter &gt;</text>
</g>
<!-- Node12 -->
<g id="node12" class="node">
<title>Node12</title>
<g id="a_node12"><a xlink:href="structyaclib_1_1detail_1_1UniqueCounter.html" target="_top" xlink:title=" ">
<polygon fill="none" stroke="black" points="605,-0.5 605,-41.5 743,-41.5 743,-0.5 605,-0.5"/>
<text text-anchor="start" x="613" y="-29.5" font-family="Helvetica,sans-Serif" font-size="10.00">yaclib::detail::UniqueCounter</text>
<text text-anchor="start" x="613" y="-18.5" font-family="Helvetica,sans-Serif" font-size="10.00">&lt; ResultCore&lt; void, E &gt;,</text>
<text text-anchor="middle" x="674" y="-7.5" font-family="Helvetica,sans-Serif" font-size="10.00"> PromiseTypeDeleter &gt;</text>
</a>
</g>
</g>
<!-- Node6&#45;&gt;Node12 -->
<g id="edge11" class="edge">
<title>Node6&#45;&gt;Node12</title>
<path fill="none" stroke="orange" stroke-dasharray="5,2" d="M232.65,-51.94C243.56,-48.8 255.06,-45.93 266,-44 383.78,-23.17 523.43,-19.82 604.74,-19.95"/>
<polygon fill="orange" stroke="orange" points="231.4,-48.66 222.82,-54.87 233.41,-55.36 231.4,-48.66"/>
<text text-anchor="start" x="266" y="-58" font-family="Helvetica,sans-Serif" font-size="10.00"> &lt; ResultCore&lt; void,</text>
<text text-anchor="middle" x="325" y="-47" font-family="Helvetica,sans-Serif" font-size="10.00"> E &gt;, PromiseTypeDeleter &gt;</text>
</g>
<!-- Node8 -->
<g id="node8" class="node">
<title>Node8</title>
<g id="a_node8"><a xlink:href="classyaclib_1_1detail_1_1BasePromiseType.html" target="_top" xlink:title=" ">
<polygon fill="none" stroke="black" points="761,-55 761,-85 893,-85 893,-55 761,-55"/>
<text text-anchor="start" x="769" y="-73" font-family="Helvetica,sans-Serif" font-size="10.00">yaclib::detail::BasePromise</text>
<text text-anchor="middle" x="827" y="-62" font-family="Helvetica,sans-Serif" font-size="10.00">Type&lt; V, E &gt;</text>
</a>
</g>
</g>
<!-- Node7&#45;&gt;Node8 -->
<g id="edge7" class="edge">
<title>Node7&#45;&gt;Node8</title>
<path fill="none" stroke="midnightblue" d="M589.82,-70C644.56,-70 712.12,-70 760.93,-70"/>
<polygon fill="midnightblue" stroke="midnightblue" points="589.75,-66.5 579.75,-70 589.75,-73.5 589.75,-66.5"/>
</g>
<!-- Node9 -->
<g id="node9" class="node">
<title>Node9</title>
<g id="a_node9"><a xlink:href="classyaclib_1_1detail_1_1PromiseType.html" target="_top" xlink:title=" ">
<polygon fill="none" stroke="black" points="978.5,-65 978.5,-95 1109.5,-95 1109.5,-65 978.5,-65"/>
<text text-anchor="start" x="986.5" y="-83" font-family="Helvetica,sans-Serif" font-size="10.00">yaclib::detail::PromiseType</text>
<text text-anchor="middle" x="1044" y="-72" font-family="Helvetica,sans-Serif" font-size="10.00">&lt; V, E &gt;</text>
</a>
</g>
</g>
<!-- Node8&#45;&gt;Node9 -->
<g id="edge8" class="edge">
<title>Node8&#45;&gt;Node9</title>
<path fill="none" stroke="midnightblue" d="M903.38,-73.51C927.76,-74.64 954.58,-75.89 978.13,-76.98"/>
<polygon fill="midnightblue" stroke="midnightblue" points="903.24,-70 893.09,-73.03 902.92,-76.99 903.24,-70"/>
</g>
<!-- Node10 -->
<g id="node10" class="node">
<title>Node10</title>
<g id="a_node10"><a xlink:href="classyaclib_1_1detail_1_1BasePromiseType.html" target="_top" xlink:title=" ">
<polygon fill="none" stroke="black" points="978,-11 978,-41 1110,-41 1110,-11 978,-11"/>
<text text-anchor="start" x="986" y="-29" font-family="Helvetica,sans-Serif" font-size="10.00">yaclib::detail::BasePromise</text>
<text text-anchor="middle" x="1044" y="-18" font-family="Helvetica,sans-Serif" font-size="10.00">Type&lt; void, E &gt;</text>
</a>
</g>
</g>
<!-- Node8&#45;&gt;Node10 -->
<g id="edge9" class="edge">
<title>Node8&#45;&gt;Node10</title>
<path fill="none" stroke="orange" stroke-dasharray="5,2" d="M903,-54.65C927.36,-49.67 954.17,-44.18 977.76,-39.35"/>
<polygon fill="orange" stroke="orange" points="902.19,-51.25 893.09,-56.68 903.59,-58.1 902.19,-51.25"/>
<text text-anchor="middle" x="935.5" y="-55" font-family="Helvetica,sans-Serif" font-size="10.00"> &lt; void, E &gt;</text>
</g>
<!-- Node11 -->
<g id="node11" class="node">
<title>Node11</title>
<g id="a_node11"><a xlink:href="classyaclib_1_1detail_1_1PromiseType_3_01void_00_01E_01_4.html" target="_top" xlink:title=" ">
<polygon fill="none" stroke="black" points="1147,-11 1147,-41 1278,-41 1278,-11 1147,-11"/>
<text text-anchor="start" x="1155" y="-29" font-family="Helvetica,sans-Serif" font-size="10.00">yaclib::detail::PromiseType</text>
<text text-anchor="middle" x="1212.5" y="-18" font-family="Helvetica,sans-Serif" font-size="10.00">&lt; void, E &gt;</text>
</a>
</g>
</g>
<!-- Node10&#45;&gt;Node11 -->
<g id="edge10" class="edge">
<title>Node10&#45;&gt;Node11</title>
<path fill="none" stroke="midnightblue" d="M1120.57,-26C1129.37,-26 1138.28,-26 1146.91,-26"/>
<polygon fill="midnightblue" stroke="midnightblue" points="1120.33,-22.5 1110.33,-26 1120.33,-29.5 1120.33,-22.5"/>
</g>
<!-- Node12&#45;&gt;Node10 -->
<g id="edge12" class="edge">
<title>Node12&#45;&gt;Node10</title>
<path fill="none" stroke="midnightblue" d="M753.41,-22.07C820.21,-22.97 915.08,-24.26 977.79,-25.11"/>
<polygon fill="midnightblue" stroke="midnightblue" points="753.4,-18.57 743.36,-21.93 753.31,-25.56 753.4,-18.57"/>
</g>
</g>
</svg>
