<?xml version="1.0" encoding="UTF-8" standalone="no"?>
<!DOCTYPE svg PUBLIC "-//W3C//DTD SVG 1.1//EN"
 "http://www.w3.org/Graphics/SVG/1.1/DTD/svg11.dtd">
<!-- Generated by graphviz version 9.0.0 (20230911.1827)
 -->
<!-- Title: yaclib::detail::SharedBaseCore Pages: 1 -->
<svg width="667pt" height="147pt"
 viewBox="0.00 0.00 667.00 146.88" xmlns="http://www.w3.org/2000/svg" xmlns:xlink="http://www.w3.org/1999/xlink">
<g id="graph0" class="graph" transform="scale(1 1) rotate(0) translate(4 142.88)">
<title>yaclib::detail::SharedBaseCore</title>
<!-- Node1 -->
<g id="Node000001" class="node">
<title>Node1</title>
<g id="a_Node000001"><a xlink:title=" ">
<polygon fill="#999999" stroke="#666666" points="659,-67.88 512.5,-67.88 512.5,-48.62 659,-48.62 659,-67.88"/>
<text text-anchor="middle" x="585.75" y="-54.38" font-family="Helvetica,sans-Serif" font-size="10.00">yaclib::detail::SharedBaseCore</text>
</a>
</g>
</g>
<!-- Node2 -->
<g id="Node000002" class="node">
<title>Node2</title>
<g id="a_Node000002"><a xlink:href="classyaclib_1_1detail_1_1InlineCore.html" target="_top" xlink:title=" ">
<polygon fill="white" stroke="#666666" points="448,-104.88 331.5,-104.88 331.5,-85.62 448,-85.62 448,-104.88"/>
<text text-anchor="middle" x="389.75" y="-91.38" font-family="Helvetica,sans-Serif" font-size="10.00">yaclib::detail::InlineCore</text>
</a>
</g>
</g>
<!-- Node2&#45;&gt;Node1 -->
<g id="edge1_Node000001_Node000002" class="edge">
<title>Node2&#45;&gt;Node1</title>
<g id="a_edge1_Node000001_Node000002"><a xlink:title=" ">
<path fill="none" stroke="#63b8ff" d="M454.95,-83C479.88,-78.25 508.07,-72.87 531.8,-68.35"/>
<polygon fill="#63b8ff" stroke="#63b8ff" points="454.42,-79.54 445.25,-84.86 455.73,-86.42 454.42,-79.54"/>
</a>
</g>
</g>
<!-- Node3 -->
<g id="Node000003" class="node">
<title>Node3</title>
<g id="a_Node000003"><a xlink:href="classyaclib_1_1Job.html" target="_top" xlink:title="Callable that can be executed in an IExecutor.">
<polygon fill="white" stroke="#666666" points="294.5,-104.88 233.5,-104.88 233.5,-85.62 294.5,-85.62 294.5,-104.88"/>
<text text-anchor="middle" x="264" y="-91.38" font-family="Helvetica,sans-Serif" font-size="10.00">yaclib::Job</text>
</a>
</g>
</g>
<!-- Node3&#45;&gt;Node2 -->
<g id="edge2_Node000002_Node000003" class="edge">
<title>Node3&#45;&gt;Node2</title>
<g id="a_edge2_Node000002_Node000003"><a xlink:title=" ">
<path fill="none" stroke="#63b8ff" d="M306.33,-95.25C314.39,-95.25 322.99,-95.25 331.47,-95.25"/>
<polygon fill="#63b8ff" stroke="#63b8ff" points="306.47,-91.75 296.47,-95.25 306.47,-98.75 306.47,-91.75"/>
</a>
</g>
</g>
<!-- Node4 -->
<g id="Node000004" class="node">
<title>Node4</title>
<g id="a_Node000004"><a xlink:href="classyaclib_1_1IFunc.html" target="_top" xlink:title="Callable interface.">
<polygon fill="white" stroke="#666666" points="183.38,-138.88 113.38,-138.88 113.38,-119.62 183.38,-119.62 183.38,-138.88"/>
<text text-anchor="middle" x="148.38" y="-125.38" font-family="Helvetica,sans-Serif" font-size="10.00">yaclib::IFunc</text>
</a>
</g>
</g>
<!-- Node4&#45;&gt;Node3 -->
<g id="edge3_Node000003_Node000004" class="edge">
<title>Node4&#45;&gt;Node3</title>
<g id="a_edge3_Node000003_Node000004"><a xlink:title=" ">
<path fill="none" stroke="#63b8ff" d="M193.89,-115.93C207.01,-112 221.04,-107.8 233.02,-104.22"/>
<polygon fill="#63b8ff" stroke="#63b8ff" points="193.19,-112.49 184.61,-118.71 195.19,-119.19 193.19,-112.49"/>
</a>
</g>
</g>
<!-- Node5 -->
<g id="Node000005" class="node">
<title>Node5</title>
<g id="a_Node000005"><a xlink:href="classyaclib_1_1IRef.html" target="_top" xlink:title="Reference counting interface.">
<polygon fill="white" stroke="#666666" points="63.25,-138.88 0,-138.88 0,-119.62 63.25,-119.62 63.25,-138.88"/>
<text text-anchor="middle" x="31.62" y="-125.38" font-family="Helvetica,sans-Serif" font-size="10.00">yaclib::IRef</text>
</a>
</g>
</g>
<!-- Node5&#45;&gt;Node4 -->
<g id="edge4_Node000004_Node000005" class="edge">
<title>Node5&#45;&gt;Node4</title>
<g id="a_edge4_Node000004_Node000005"><a xlink:title=" ">
<path fill="none" stroke="#63b8ff" d="M74.86,-129.25C87.44,-129.25 101.06,-129.25 113.07,-129.25"/>
<polygon fill="#63b8ff" stroke="#63b8ff" points="75.19,-125.75 65.19,-129.25 75.19,-132.75 75.19,-125.75"/>
</a>
</g>
</g>
<!-- Node6 -->
<g id="Node000006" class="node">
<title>Node6</title>
<g id="a_Node000006"><a xlink:href="structyaclib_1_1detail_1_1Node.html" target="_top" xlink:title="Node class, used in intrusive data structure.">
<polygon fill="white" stroke="#666666" points="196.5,-71.88 100.25,-71.88 100.25,-52.62 196.5,-52.62 196.5,-71.88"/>
<text text-anchor="middle" x="148.38" y="-58.38" font-family="Helvetica,sans-Serif" font-size="10.00">yaclib::detail::Node</text>
</a>
</g>
</g>
<!-- Node6&#45;&gt;Node3 -->
<g id="edge5_Node000003_Node000006" class="edge">
<title>Node6&#45;&gt;Node3</title>
<g id="a_edge5_Node000003_Node000006"><a xlink:title=" ">
<path fill="none" stroke="#63b8ff" d="M195.07,-75.52C207.88,-79.24 221.47,-83.19 233.11,-86.57"/>
<polygon fill="#63b8ff" stroke="#63b8ff" points="196.12,-72.18 185.54,-72.75 194.16,-78.9 196.12,-72.18"/>
</a>
</g>
</g>
<!-- Node6&#45;&gt;Node6 -->
<g id="edge6_Node000006_Node000006" class="edge">
<title>Node6&#45;&gt;Node6</title>
<g id="a_edge6_Node000006_Node000006"><a xlink:title=" ">
<path fill="none" stroke="#9a32cd" stroke-dasharray="5,2" d="M136.68,-83.61C138.26,-87.31 142.15,-89.88 148.38,-89.88 160.09,-89.88 163.56,-80.77 158.81,-72.16"/>
<polygon fill="#9a32cd" stroke="#9a32cd" points="140.16,-83.99 137.78,-73.67 133.2,-83.22 140.16,-83.99"/>
</a>
</g>
<text text-anchor="middle" x="148.38" y="-91.62" font-family="Helvetica,sans-Serif" font-size="10.00" fill="grey"> next</text>
</g>
<!-- Node7 -->
<g id="Node000007" class="node">
<title>Node7</title>
<g id="a_Node000007"><a xlink:title=" ">
<polygon fill="white" stroke="#666666" points="442.38,-67.88 337.12,-67.88 337.12,-48.62 442.38,-48.62 442.38,-67.88"/>
<text text-anchor="middle" x="389.75" y="-54.38" font-family="Helvetica,sans-Serif" font-size="10.00">static constexpr auto</text>
</a>
</g>
</g>
<!-- Node7&#45;&gt;Node1 -->
<g id="edge7_Node000001_Node000007" class="edge">
<title>Node7&#45;&gt;Node1</title>
<g id="a_edge7_Node000001_Node000007"><a xlink:title=" ">
<path fill="none" stroke="#9a32cd" stroke-dasharray="5,2" d="M454.04,-58.25C472.62,-58.25 493.08,-58.25 512.2,-58.25"/>
<polygon fill="#9a32cd" stroke="#9a32cd" points="454.25,-54.75 444.25,-58.25 454.25,-61.75 454.25,-54.75"/>
</a>
</g>
<text text-anchor="middle" x="480.25" y="-60" font-family="Helvetica,sans-Serif" font-size="10.00" fill="grey"> kSet</text>
</g>
<!-- Node8 -->
<g id="Node000008" class="node">
<title>Node8</title>
<g id="a_Node000008"><a xlink:title=" ">
<polygon fill="white" stroke="#666666" points="442.75,-30.5 336.75,-30.5 336.75,0 442.75,0 442.75,-30.5"/>
<text text-anchor="start" x="344.75" y="-17" font-family="Helvetica,sans-Serif" font-size="10.00">atomic&lt; yaclib::detail</text>
<text text-anchor="middle" x="389.75" y="-5.75" font-family="Helvetica,sans-Serif" font-size="10.00">::InlineCore * &gt;</text>
</a>
</g>
</g>
<!-- Node8&#45;&gt;Node1 -->
<g id="edge8_Node000001_Node000008" class="edge">
<title>Node8&#45;&gt;Node1</title>
<g id="a_edge8_Node000001_Node000008"><a xlink:title=" ">
<path fill="none" stroke="#9a32cd" stroke-dasharray="5,2" d="M454.42,-29.36C482.09,-35.5 513.88,-42.54 539.14,-48.14"/>
<polygon fill="#9a32cd" stroke="#9a32cd" points="455.25,-25.96 444.73,-27.21 453.73,-32.8 455.25,-25.96"/>
</a>
</g>
<text text-anchor="middle" x="480.25" y="-40" font-family="Helvetica,sans-Serif" font-size="10.00" fill="grey"> _head</text>
</g>
</g>
</svg>
