<?xml version="1.0" encoding="UTF-8" standalone="no"?>
<!DOCTYPE svg PUBLIC "-//W3C//DTD SVG 1.1//EN"
 "http://www.w3.org/Graphics/SVG/1.1/DTD/svg11.dtd">
<!-- Generated by graphviz version 3.0.0 (20220413.0242)
 -->
<!-- Title: yaclib::detail::InlineCore Pages: 1 -->
<!--zoomable 181 -->
<svg id="main" version="1.1" xmlns="http://www.w3.org/2000/svg" xmlns:xlink="http://www.w3.org/1999/xlink" xml:space="preserve" onload="init(evt)">
<style type="text/css"><![CDATA[
.edge:hover path { stroke: red; }
.edge:hover polygon { stroke: red; fill: red; }
]]></style>
<script type="text/javascript"><![CDATA[
var edges = document.getElementsByTagName('g');
if (edges && edges.length) {
  for (var i=0;i<edges.length;i++) {
    if (edges[i].id.substr(0,4)=='edge') {
      edges[i].setAttribute('class','edge');
    }
  }
}
]]></script>
        <defs>
                <circle id="rim" cx="0" cy="0" r="7"/>
                <circle id="rim2" cx="0" cy="0" r="3.5"/>
                <g id="zoomPlus">
                        <use xlink:href="#rim" fill="#404040">
                                <set attributeName="fill" to="#808080" begin="zoomplus.mouseover" end="zoomplus.mouseout"/>
                        </use>
                        <path d="M-4,0h8M0,-4v8" fill="none" stroke="white" stroke-width="1.5" pointer-events="none"/>
                </g>
                <g id="zoomMin">
                        <use xlink:href="#rim" fill="#404040">
                                <set attributeName="fill" to="#808080" begin="zoomminus.mouseover" end="zoomminus.mouseout"/>
                        </use>
                        <path d="M-4,0h8" fill="none" stroke="white" stroke-width="1.5" pointer-events="none"/>
                </g>
                <g id="dirArrow">
                        <path fill="none" stroke="white" stroke-width="1.5" d="M0,-3.0v7 M-2.5,-0.5L0,-3.0L2.5,-0.5"/>
                </g>
               <g id="resetDef">
                       <use xlink:href="#rim2" fill="#404040">
                               <set attributeName="fill" to="#808080" begin="reset.mouseover" end="reset.mouseout"/>
                       </use>
               </g>
        </defs>

<script type="text/javascript">
var viewWidth = 1610;
var viewHeight = 181;
var sectionId = 'dynsection-0';
</script>
<script xlink:href="svgpan.js"/>
<svg id="graph" class="graph">
<g id="viewport">
<title>yaclib::detail::InlineCore</title>
<!-- Node1 -->
<g id="node1" class="node">
<title>Node1</title>
<g id="a_node1"><a xlink:title=" ">
<polygon fill="#bfbfbf" stroke="black" points="334,-99 334,-118 451,-118 451,-99 334,-99"/>
<text text-anchor="middle" x="392.5" y="-106" font-family="Helvetica,sans-Serif" font-size="10.00">yaclib::detail::InlineCore</text>
</a>
</g>
</g>
<!-- Node6 -->
<g id="node6" class="node">
<title>Node6</title>
<g id="a_node6"><a xlink:href="classyaclib_1_1detail_1_1AllCombinator.html" target="_top" xlink:title=" ">
<polygon fill="none" stroke="black" points="491,-142.5 491,-172.5 625,-172.5 625,-142.5 491,-142.5"/>
<text text-anchor="start" x="499" y="-160.5" font-family="Helvetica,sans-Serif" font-size="10.00">yaclib::detail::AllCombinator</text>
<text text-anchor="middle" x="558" y="-149.5" font-family="Helvetica,sans-Serif" font-size="10.00">&lt; V, E, N, FutureValue &gt;</text>
</a>
</g>
</g>
<!-- Node1&#45;&gt;Node6 -->
<g id="edge5" class="edge">
<title>Node1&#45;&gt;Node6</title>
<path fill="none" stroke="midnightblue" d="M435.06,-120.95C456.9,-127.5 483.83,-135.57 506.83,-142.46"/>
<polygon fill="midnightblue" stroke="midnightblue" points="436,-117.58 425.41,-118.06 433.99,-124.29 436,-117.58"/>
</g>
<!-- Node7 -->
<g id="node7" class="node">
<title>Node7</title>
<g id="a_node7"><a xlink:href="classyaclib_1_1detail_1_1AnyCombinator.html" target="_top" xlink:title=" ">
<polygon fill="none" stroke="black" points="488,-93.5 488,-123.5 628,-123.5 628,-93.5 488,-93.5"/>
<text text-anchor="start" x="496" y="-111.5" font-family="Helvetica,sans-Serif" font-size="10.00">yaclib::detail::AnyCombinator</text>
<text text-anchor="middle" x="558" y="-100.5" font-family="Helvetica,sans-Serif" font-size="10.00">&lt; V, E, P &gt;</text>
</a>
</g>
</g>
<!-- Node1&#45;&gt;Node7 -->
<g id="edge6" class="edge">
<title>Node1&#45;&gt;Node7</title>
<path fill="none" stroke="midnightblue" d="M461.3,-108.5C470.06,-108.5 479.04,-108.5 487.83,-108.5"/>
<polygon fill="midnightblue" stroke="midnightblue" points="461.14,-105 451.14,-108.5 461.14,-112 461.14,-105"/>
</g>
<!-- Node8 -->
<g id="node8" class="node">
<title>Node8</title>
<g id="a_node8"><a xlink:href="classyaclib_1_1detail_1_1BaseCore.html" target="_top" xlink:title=" ">
<polygon fill="none" stroke="black" points="500,-55 500,-74 616,-74 616,-55 500,-55"/>
<text text-anchor="middle" x="558" y="-62" font-family="Helvetica,sans-Serif" font-size="10.00">yaclib::detail::BaseCore</text>
</a>
</g>
</g>
<!-- Node1&#45;&gt;Node8 -->
<g id="edge7" class="edge">
<title>Node1&#45;&gt;Node8</title>
<path fill="none" stroke="midnightblue" d="M438.67,-96.35C464.83,-89.3 497.29,-80.57 521.59,-74.03"/>
<polygon fill="midnightblue" stroke="midnightblue" points="437.72,-92.97 428.98,-98.95 439.54,-99.73 437.72,-92.97"/>
</g>
<!-- Node2 -->
<g id="node2" class="node">
<title>Node2</title>
<g id="a_node2"><a xlink:href="classyaclib_1_1Job.html" target="_top" xlink:title="Callable that can be executed in an IExecutor.">
<polygon fill="none" stroke="black" points="235,-99 235,-118 297,-118 297,-99 235,-99"/>
<text text-anchor="middle" x="266" y="-106" font-family="Helvetica,sans-Serif" font-size="10.00">yaclib::Job</text>
</a>
</g>
</g>
<!-- Node2&#45;&gt;Node1 -->
<g id="edge1" class="edge">
<title>Node2&#45;&gt;Node1</title>
<path fill="none" stroke="midnightblue" d="M307.17,-108.5C315.69,-108.5 324.84,-108.5 333.87,-108.5"/>
<polygon fill="midnightblue" stroke="midnightblue" points="307.14,-105 297.14,-108.5 307.14,-112 307.14,-105"/>
</g>
<!-- Node3 -->
<g id="node3" class="node">
<title>Node3</title>
<g id="a_node3"><a xlink:href="classyaclib_1_1IFunc.html" target="_top" xlink:title="Callable interface.">
<polygon fill="none" stroke="black" points="114,-125 114,-144 185,-144 185,-125 114,-125"/>
<text text-anchor="middle" x="149.5" y="-132" font-family="Helvetica,sans-Serif" font-size="10.00">yaclib::IFunc</text>
</a>
</g>
</g>
<!-- Node3&#45;&gt;Node2 -->
<g id="edge2" class="edge">
<title>Node3&#45;&gt;Node2</title>
<path fill="none" stroke="midnightblue" d="M195.08,-124.38C208.35,-121.36 222.58,-118.13 234.72,-115.38"/>
<polygon fill="midnightblue" stroke="midnightblue" points="194.14,-121 185.16,-126.63 195.69,-127.83 194.14,-121"/>
</g>
<!-- Node4 -->
<g id="node4" class="node">
<title>Node4</title>
<g id="a_node4"><a xlink:href="classyaclib_1_1IRef.html" target="_top" xlink:title="Reference counting interface.">
<polygon fill="none" stroke="black" points="0,-125 0,-144 64,-144 64,-125 0,-125"/>
<text text-anchor="middle" x="32" y="-132" font-family="Helvetica,sans-Serif" font-size="10.00">yaclib::IRef</text>
</a>
</g>
</g>
<!-- Node4&#45;&gt;Node3 -->
<g id="edge3" class="edge">
<title>Node4&#45;&gt;Node3</title>
<path fill="none" stroke="midnightblue" d="M74.35,-134.5C87.33,-134.5 101.51,-134.5 113.97,-134.5"/>
<polygon fill="midnightblue" stroke="midnightblue" points="74.26,-131 64.26,-134.5 74.26,-138 74.26,-131"/>
</g>
<!-- Node5 -->
<g id="node5" class="node">
<title>Node5</title>
<g id="a_node5"><a xlink:href="structyaclib_1_1detail_1_1Node.html" target="_top" xlink:title="Node class, used in intrusive data structure.">
<polygon fill="none" stroke="black" points="101,-87 101,-106 198,-106 198,-87 101,-87"/>
<text text-anchor="middle" x="149.5" y="-94" font-family="Helvetica,sans-Serif" font-size="10.00">yaclib::detail::Node</text>
</a>
</g>
</g>
<!-- Node5&#45;&gt;Node2 -->
<g id="edge4" class="edge">
<title>Node5&#45;&gt;Node2</title>
<path fill="none" stroke="midnightblue" d="M208.04,-102.53C217.27,-103.5 226.5,-104.46 234.75,-105.33"/>
<polygon fill="midnightblue" stroke="midnightblue" points="208.37,-99.05 198.06,-101.48 207.64,-106.01 208.37,-99.05"/>
</g>
<!-- Node9 -->
<g id="node9" class="node">
<title>Node9</title>
<g id="a_node9"><a xlink:href="classyaclib_1_1detail_1_1ResultCore.html" target="_top" xlink:title=" ">
<polygon fill="none" stroke="black" points="896,-90.5 896,-120.5 1018,-120.5 1018,-90.5 896,-90.5"/>
<text text-anchor="start" x="904" y="-108.5" font-family="Helvetica,sans-Serif" font-size="10.00">yaclib::detail::ResultCore</text>
<text text-anchor="middle" x="957" y="-97.5" font-family="Helvetica,sans-Serif" font-size="10.00">&lt; void, E &gt;</text>
</a>
</g>
</g>
<!-- Node8&#45;&gt;Node9 -->
<g id="edge8" class="edge">
<title>Node8&#45;&gt;Node9</title>
<path fill="none" stroke="midnightblue" d="M604.27,-76.47C622.95,-80.96 644.89,-85.66 665,-88.5 744.3,-99.72 836.76,-103.56 895.8,-104.86"/>
<polygon fill="midnightblue" stroke="midnightblue" points="605.09,-73.07 594.55,-74.08 603.42,-79.87 605.09,-73.07"/>
</g>
<!-- Node13 -->
<g id="node13" class="node">
<title>Node13</title>
<g id="a_node13"><a xlink:href="classyaclib_1_1detail_1_1ResultCore.html" target="_top" xlink:title=" ">
<polygon fill="none" stroke="black" points="665,-49.5 665,-79.5 787,-79.5 787,-49.5 665,-49.5"/>
<text text-anchor="start" x="673" y="-67.5" font-family="Helvetica,sans-Serif" font-size="10.00">yaclib::detail::ResultCore</text>
<text text-anchor="middle" x="726" y="-56.5" font-family="Helvetica,sans-Serif" font-size="10.00">&lt; V, E &gt;</text>
</a>
</g>
</g>
<!-- Node8&#45;&gt;Node13 -->
<g id="edge12" class="edge">
<title>Node8&#45;&gt;Node13</title>
<path fill="none" stroke="midnightblue" d="M626.26,-64.5C639.06,-64.5 652.38,-64.5 664.94,-64.5"/>
<polygon fill="midnightblue" stroke="midnightblue" points="626.13,-61 616.13,-64.5 626.13,-68 626.13,-61"/>
</g>
<!-- Node17 -->
<g id="node17" class="node">
<title>Node17</title>
<g id="a_node17"><a xlink:href="classyaclib_1_1detail_1_1ResultCore_3_01void_00_01void_01_4.html" target="_top" xlink:title=" ">
<polygon fill="none" stroke="black" points="665,-0.5 665,-30.5 787,-30.5 787,-0.5 665,-0.5"/>
<text text-anchor="start" x="673" y="-18.5" font-family="Helvetica,sans-Serif" font-size="10.00">yaclib::detail::ResultCore</text>
<text text-anchor="middle" x="726" y="-7.5" font-family="Helvetica,sans-Serif" font-size="10.00">&lt; void, void &gt;</text>
</a>
</g>
</g>
<!-- Node8&#45;&gt;Node17 -->
<g id="edge18" class="edge">
<title>Node8&#45;&gt;Node17</title>
<path fill="none" stroke="midnightblue" d="M601.19,-52.05C623.36,-45.5 650.71,-37.43 674.06,-30.54"/>
<polygon fill="midnightblue" stroke="midnightblue" points="600,-48.75 591.4,-54.94 601.98,-55.46 600,-48.75"/>
</g>
<!-- Node10 -->
<g id="node10" class="node">
<title>Node10</title>
<g id="a_node10"><a xlink:href="structyaclib_1_1detail_1_1UniqueCounter.html" target="_top" xlink:title=" ">
<polygon fill="none" stroke="black" points="1079,-85 1079,-126 1217,-126 1217,-85 1079,-85"/>
<text text-anchor="start" x="1087" y="-114" font-family="Helvetica,sans-Serif" font-size="10.00">yaclib::detail::UniqueCounter</text>
<text text-anchor="start" x="1087" y="-103" font-family="Helvetica,sans-Serif" font-size="10.00">&lt; ResultCore&lt; void, E &gt;,</text>
<text text-anchor="middle" x="1148" y="-92" font-family="Helvetica,sans-Serif" font-size="10.00"> PromiseTypeDeleter &gt;</text>
</a>
</g>
</g>
<!-- Node9&#45;&gt;Node10 -->
<g id="edge9" class="edge">
<title>Node9&#45;&gt;Node10</title>
<path fill="none" stroke="midnightblue" d="M1028.21,-105.5C1044.78,-105.5 1062.41,-105.5 1078.87,-105.5"/>
<polygon fill="midnightblue" stroke="midnightblue" points="1028.06,-102 1018.06,-105.5 1028.06,-109 1028.06,-102"/>
</g>
<!-- Node11 -->
<g id="node11" class="node">
<title>Node11</title>
<g id="a_node11"><a xlink:href="classyaclib_1_1detail_1_1BasePromiseType.html" target="_top" xlink:title=" ">
<polygon fill="none" stroke="black" points="1302,-85.5 1302,-115.5 1434,-115.5 1434,-85.5 1302,-85.5"/>
<text text-anchor="start" x="1310" y="-103.5" font-family="Helvetica,sans-Serif" font-size="10.00">yaclib::detail::BasePromise</text>
<text text-anchor="middle" x="1368" y="-92.5" font-family="Helvetica,sans-Serif" font-size="10.00">Type&lt; void, E &gt;</text>
</a>
</g>
</g>
<!-- Node10&#45;&gt;Node11 -->
<g id="edge10" class="edge">
<title>Node10&#45;&gt;Node11</title>
<path fill="none" stroke="midnightblue" d="M1227.37,-103.7C1251.72,-103.14 1278.3,-102.53 1301.67,-102"/>
<polygon fill="midnightblue" stroke="midnightblue" points="1227,-100.21 1217.08,-103.94 1227.16,-107.21 1227,-100.21"/>
</g>
<!-- Node12 -->
<g id="node12" class="node">
<title>Node12</title>
<g id="a_node12"><a xlink:href="classyaclib_1_1detail_1_1PromiseType_3_01void_00_01E_01_4.html" target="_top" xlink:title=" ">
<polygon fill="none" stroke="black" points="1471,-85.5 1471,-115.5 1602,-115.5 1602,-85.5 1471,-85.5"/>
<text text-anchor="start" x="1479" y="-103.5" font-family="Helvetica,sans-Serif" font-size="10.00">yaclib::detail::PromiseType</text>
<text text-anchor="middle" x="1536.5" y="-92.5" font-family="Helvetica,sans-Serif" font-size="10.00">&lt; void, E &gt;</text>
</a>
</g>
</g>
<!-- Node11&#45;&gt;Node12 -->
<g id="edge11" class="edge">
<title>Node11&#45;&gt;Node12</title>
<path fill="none" stroke="midnightblue" d="M1444.57,-100.5C1453.37,-100.5 1462.28,-100.5 1470.91,-100.5"/>
<polygon fill="midnightblue" stroke="midnightblue" points="1444.33,-97 1434.33,-100.5 1444.33,-104 1444.33,-97"/>
</g>
<!-- Node13&#45;&gt;Node9 -->
<g id="edge17" class="edge">
<title>Node13&#45;&gt;Node9</title>
<path fill="none" stroke="orange" stroke-dasharray="5,2" d="M797.31,-74.2C815.79,-76.97 835.68,-80.16 854,-83.5 867.63,-85.99 882.23,-88.95 895.99,-91.89"/>
<polygon fill="orange" stroke="orange" points="797.62,-70.71 787.21,-72.7 796.59,-77.63 797.62,-70.71"/>
<text text-anchor="middle" x="829.5" y="-86.5" font-family="Helvetica,sans-Serif" font-size="10.00"> &lt; void, E &gt;</text>
</g>
<!-- Node14 -->
<g id="node14" class="node">
<title>Node14</title>
<g id="a_node14"><a xlink:href="structyaclib_1_1detail_1_1UniqueCounter.html" target="_top" xlink:title=" ">
<polygon fill="none" stroke="black" points="872,-29 872,-70 1042,-70 1042,-29 872,-29"/>
<text text-anchor="start" x="880" y="-58" font-family="Helvetica,sans-Serif" font-size="10.00">yaclib::detail::UniqueCounter</text>
<text text-anchor="start" x="880" y="-47" font-family="Helvetica,sans-Serif" font-size="10.00">&lt; ResultCore&lt; V, E &gt;, PromiseType</text>
<text text-anchor="middle" x="957" y="-36" font-family="Helvetica,sans-Serif" font-size="10.00">Deleter &gt;</text>
</a>
</g>
</g>
<!-- Node13&#45;&gt;Node14 -->
<g id="edge13" class="edge">
<title>Node13&#45;&gt;Node14</title>
<path fill="none" stroke="midnightblue" d="M797.38,-59.89C820.87,-58.35 847.27,-56.62 871.7,-55.02"/>
<polygon fill="midnightblue" stroke="midnightblue" points="796.92,-56.41 787.17,-60.56 797.37,-63.4 796.92,-56.41"/>
</g>
<!-- Node15 -->
<g id="node15" class="node">
<title>Node15</title>
<g id="a_node15"><a xlink:href="classyaclib_1_1detail_1_1BasePromiseType.html" target="_top" xlink:title=" ">
<polygon fill="none" stroke="black" points="1082,-34.5 1082,-64.5 1214,-64.5 1214,-34.5 1082,-34.5"/>
<text text-anchor="start" x="1090" y="-52.5" font-family="Helvetica,sans-Serif" font-size="10.00">yaclib::detail::BasePromise</text>
<text text-anchor="middle" x="1148" y="-41.5" font-family="Helvetica,sans-Serif" font-size="10.00">Type&lt; V, E &gt;</text>
</a>
</g>
</g>
<!-- Node14&#45;&gt;Node15 -->
<g id="edge14" class="edge">
<title>Node14&#45;&gt;Node15</title>
<path fill="none" stroke="midnightblue" d="M1052.28,-49.5C1062.29,-49.5 1072.32,-49.5 1081.89,-49.5"/>
<polygon fill="midnightblue" stroke="midnightblue" points="1052.27,-46 1042.27,-49.5 1052.27,-53 1052.27,-46"/>
</g>
<!-- Node15&#45;&gt;Node11 -->
<g id="edge16" class="edge">
<title>Node15&#45;&gt;Node11</title>
<path fill="none" stroke="orange" stroke-dasharray="5,2" d="M1223,-66.81C1248.93,-72.88 1277.81,-79.63 1302.85,-85.49"/>
<polygon fill="orange" stroke="orange" points="1223.76,-63.4 1213.23,-64.53 1222.17,-70.21 1223.76,-63.4"/>
<text text-anchor="middle" x="1259.5" y="-84.5" font-family="Helvetica,sans-Serif" font-size="10.00"> &lt; void, E &gt;</text>
</g>
<!-- Node16 -->
<g id="node16" class="node">
<title>Node16</title>
<g id="a_node16"><a xlink:href="classyaclib_1_1detail_1_1PromiseType.html" target="_top" xlink:title=" ">
<polygon fill="none" stroke="black" points="1302.5,-31.5 1302.5,-61.5 1433.5,-61.5 1433.5,-31.5 1302.5,-31.5"/>
<text text-anchor="start" x="1310.5" y="-49.5" font-family="Helvetica,sans-Serif" font-size="10.00">yaclib::detail::PromiseType</text>
<text text-anchor="middle" x="1368" y="-38.5" font-family="Helvetica,sans-Serif" font-size="10.00">&lt; V, E &gt;</text>
</a>
</g>
</g>
<!-- Node15&#45;&gt;Node16 -->
<g id="edge15" class="edge">
<title>Node15&#45;&gt;Node16</title>
<path fill="none" stroke="midnightblue" d="M1224.42,-48.46C1249.75,-48.11 1277.78,-47.73 1302.22,-47.39"/>
<polygon fill="midnightblue" stroke="midnightblue" points="1224.06,-44.97 1214.11,-48.6 1224.16,-51.97 1224.06,-44.97"/>
</g>
</g>
</svg>
        <g id="navigator" transform="translate(0 0)" fill="#404254">
                <rect fill="#f2f5e9" fill-opacity="0.5" stroke="#606060" stroke-width=".5" x="0" y="0" width="60" height="60"/>
                <use id="zoomplus" xlink:href="#zoomPlus" x="17" y="9" onmousedown="handleZoom(evt,'in')"/>
                <use id="zoomminus" xlink:href="#zoomMin" x="42" y="9" onmousedown="handleZoom(evt,'out')"/>
                <use id="reset" xlink:href="#resetDef" x="30" y="36" onmousedown="handleReset()"/>
                <g id="arrowUp" xlink:href="#dirArrow" transform="translate(30 24)" onmousedown="handlePan(0,-1)">
                  <use xlink:href="#rim" fill="#404040">
                        <set attributeName="fill" to="#808080" begin="arrowUp.mouseover" end="arrowUp.mouseout"/>
                  </use>
                  <path fill="none" stroke="white" stroke-width="1.5" d="M0,-3.0v7 M-2.5,-0.5L0,-3.0L2.5,-0.5"/>
                </g>
                <g id="arrowRight" xlink:href="#dirArrow" transform="rotate(90) translate(36 -43)" onmousedown="handlePan(1,0)">
                  <use xlink:href="#rim" fill="#404040">
                        <set attributeName="fill" to="#808080" begin="arrowRight.mouseover" end="arrowRight.mouseout"/>
                  </use>
                  <path fill="none" stroke="white" stroke-width="1.5" d="M0,-3.0v7 M-2.5,-0.5L0,-3.0L2.5,-0.5"/>
                </g>
                <g id="arrowDown" xlink:href="#dirArrow" transform="rotate(180) translate(-30 -48)" onmousedown="handlePan(0,1)">
                  <use xlink:href="#rim" fill="#404040">
                        <set attributeName="fill" to="#808080" begin="arrowDown.mouseover" end="arrowDown.mouseout"/>
                  </use>
                  <path fill="none" stroke="white" stroke-width="1.5" d="M0,-3.0v7 M-2.5,-0.5L0,-3.0L2.5,-0.5"/>
                </g>
                <g id="arrowLeft" xlink:href="#dirArrow" transform="rotate(270) translate(-36 17)" onmousedown="handlePan(-1,0)">
                  <use xlink:href="#rim" fill="#404040">
                        <set attributeName="fill" to="#808080" begin="arrowLeft.mouseover" end="arrowLeft.mouseout"/>
                  </use>
                  <path fill="none" stroke="white" stroke-width="1.5" d="M0,-3.0v7 M-2.5,-0.5L0,-3.0L2.5,-0.5"/>
                </g>
        </g>
        <svg viewBox="0 0 15 15" width="100%" height="30px" preserveAspectRatio="xMaxYMin meet">
         <g id="arrow_out" transform="scale(0.3 0.3)">
          <a xlink:href="classyaclib_1_1detail_1_1InlineCore__inherit__graph_org.svg" target="_base">
           <rect id="button" ry="5" rx="5" y="6" x="6" height="38" width="38"
                fill="#f2f5e9" fill-opacity="0.5" stroke="#606060" stroke-width="1.0"/>
           <path id="arrow"
             d="M 11.500037,31.436501 C 11.940474,20.09759 22.043105,11.32322 32.158766,21.979434 L 37.068811,17.246167 C 37.068811,17.246167 37.088388,32 37.088388,32 L 22.160133,31.978069 C 22.160133,31.978069 26.997745,27.140456 26.997745,27.140456 C 18.528582,18.264221 13.291696,25.230495 11.500037,31.436501 z"
             style="fill:#404040;"/>
          </a>
         </g>
        </svg>
</svg>
