<?xml version="1.0" encoding="UTF-8" standalone="no"?>
<!DOCTYPE svg PUBLIC "-//W3C//DTD SVG 1.1//EN"
 "http://www.w3.org/Graphics/SVG/1.1/DTD/svg11.dtd">
<!-- Generated by graphviz version 9.0.0 (20230911.1827)
 -->
<!-- Title: Counter Pages: 1 -->
<svg width="539pt" height="104pt"
 viewBox="0.00 0.00 538.50 104.38" xmlns="http://www.w3.org/2000/svg" xmlns:xlink="http://www.w3.org/1999/xlink">
<g id="graph0" class="graph" transform="scale(1 1) rotate(0) translate(4 100.38)">
<title>Counter</title>
<!-- Node1 -->
<g id="Node000001" class="node">
<title>Node1</title>
<g id="a_Node000001"><a xlink:title=" ">
<polygon fill="#999999" stroke="#666666" points="49.75,-65.75 0,-65.75 0,-46.5 49.75,-46.5 49.75,-65.75"/>
<text text-anchor="middle" x="24.88" y="-52.25" font-family="Helvetica,sans-Serif" font-size="10.00">Counter</text>
</a>
</g>
</g>
<!-- Node2 -->
<g id="Node000002" class="node">
<title>Node2</title>
<g id="a_Node000002"><a xlink:href="classyaclib_1_1detail_1_1Helper.html" target="_top" xlink:title=" ">
<polygon fill="white" stroke="#666666" points="211.88,-96.38 105.88,-96.38 105.88,-65.88 211.88,-65.88 211.88,-96.38"/>
<text text-anchor="start" x="113.88" y="-82.88" font-family="Helvetica,sans-Serif" font-size="10.00">yaclib::detail::Helper</text>
<text text-anchor="middle" x="158.88" y="-71.62" font-family="Helvetica,sans-Serif" font-size="10.00">&lt; Counter, ObjectT &gt;</text>
</a>
</g>
</g>
<!-- Node1&#45;&gt;Node2 -->
<g id="edge1_Node000001_Node000002" class="edge">
<title>Node1&#45;&gt;Node2</title>
<g id="a_edge1_Node000001_Node000002"><a xlink:title=" ">
<path fill="none" stroke="#63b8ff" d="M61.39,-62.85C74.99,-65.43 90.81,-68.42 105.65,-71.23"/>
<polygon fill="#63b8ff" stroke="#63b8ff" points="62.05,-59.41 51.57,-60.99 60.75,-66.29 62.05,-59.41"/>
</a>
</g>
</g>
<!-- Node3 -->
<g id="Node000003" class="node">
<title>Node3</title>
<g id="a_Node000003"><a xlink:href="structyaclib_1_1detail_1_1MultiEvent.html" target="_top" xlink:title=" ">
<polygon fill="white" stroke="#666666" points="231,-47.38 86.75,-47.38 86.75,-16.88 231,-16.88 231,-47.38"/>
<text text-anchor="start" x="94.75" y="-33.88" font-family="Helvetica,sans-Serif" font-size="10.00">yaclib::detail::MultiEvent</text>
<text text-anchor="middle" x="158.88" y="-22.62" font-family="Helvetica,sans-Serif" font-size="10.00">&lt; Event, Counter, Callbacks &gt;</text>
</a>
</g>
</g>
<!-- Node1&#45;&gt;Node3 -->
<g id="edge2_Node000001_Node000003" class="edge">
<title>Node1&#45;&gt;Node3</title>
<g id="a_edge2_Node000001_Node000003"><a xlink:title=" ">
<path fill="none" stroke="#63b8ff" d="M61.31,-49.68C69.13,-48.26 77.68,-46.71 86.36,-45.13"/>
<polygon fill="#63b8ff" stroke="#63b8ff" points="60.79,-46.22 51.57,-51.45 62.04,-53.11 60.79,-46.22"/>
</a>
</g>
</g>
<!-- Node4 -->
<g id="Node000004" class="node">
<title>Node4</title>
<g id="a_Node000004"><a xlink:href="structyaclib_1_1detail_1_1MultiEvent.html" target="_top" xlink:title=" ">
<polygon fill="white" stroke="#666666" points="530.5,-64.25 392.25,-64.25 392.25,0 530.5,0 530.5,-64.25"/>
<text text-anchor="start" x="400.25" y="-50.75" font-family="Helvetica,sans-Serif" font-size="10.00">yaclib::detail::MultiEvent</text>
<text text-anchor="start" x="400.25" y="-39.5" font-family="Helvetica,sans-Serif" font-size="10.00">&lt; OneShotEvent, yaclib::</text>
<text text-anchor="start" x="400.25" y="-28.25" font-family="Helvetica,sans-Serif" font-size="10.00">detail::AtomicCounter, yaclib</text>
<text text-anchor="start" x="400.25" y="-17" font-family="Helvetica,sans-Serif" font-size="10.00">::detail::CallCallback, yaclib</text>
<text text-anchor="middle" x="461.38" y="-5.75" font-family="Helvetica,sans-Serif" font-size="10.00">::detail::DropCallback &gt;</text>
</a>
</g>
</g>
<!-- Node3&#45;&gt;Node4 -->
<g id="edge3_Node000003_Node000004" class="edge">
<title>Node3&#45;&gt;Node4</title>
<g id="a_edge3_Node000003_Node000004"><a xlink:title=" ">
<path fill="none" stroke="orange" stroke-dasharray="5,2" d="M242.83,-32.12C289.72,-32.12 347.63,-32.12 391.91,-32.12"/>
<polygon fill="orange" stroke="orange" points="242.98,-28.63 232.98,-32.13 242.98,-35.63 242.98,-28.63"/>
</a>
</g>
<text text-anchor="start" x="249" y="-67.62" font-family="Helvetica,sans-Serif" font-size="10.00" fill="grey"> &lt; OneShotEvent, yaclib</text>
<text text-anchor="start" x="249" y="-56.38" font-family="Helvetica,sans-Serif" font-size="10.00" fill="grey">::detail::AtomicCounter,</text>
<text text-anchor="start" x="249" y="-45.12" font-family="Helvetica,sans-Serif" font-size="10.00" fill="grey"> yaclib::detail::CallCallback,</text>
<text text-anchor="middle" x="311.62" y="-33.88" font-family="Helvetica,sans-Serif" font-size="10.00" fill="grey"> yaclib::detail::DropCallback &gt;</text>
</g>
</g>
</svg>
