<?xml version="1.0" encoding="UTF-8" standalone="no"?>
<!DOCTYPE svg PUBLIC "-//W3C//DTD SVG 1.1//EN"
 "http://www.w3.org/Graphics/SVG/1.1/DTD/svg11.dtd">
<!-- Generated by graphviz version 9.0.0 (20230911.1827)
 -->
<!-- Title: yaclib::detail::PromiseCore&lt; V, E, Func &gt; Pages: 1 -->
<!--zoomable 319 -->

<svg id="main" version="1.1" xmlns="http://www.w3.org/2000/svg" xmlns:xlink="http://www.w3.org/1999/xlink" xml:space="preserve" onload="init(evt)">
<style type="text/css"><![CDATA[
.node, .edge {opacity: 0.7;}
.node.selected, .edge.selected {opacity: 1;}
.edge:hover path { stroke: red; }
.edge:hover polygon { stroke: red; fill: red; }
]]></style>

<defs>
  <circle id="rim" cx="0" cy="0" r="7"/>
  <circle id="rim2" cx="0" cy="0" r="3.5"/>
  <g id="zoomPlus">
    <use xlink:href="#rim" fill="#404040"><set attributeName="fill" to="#808080" begin="zoomplus.mouseover" end="zoomplus.mouseout"/></use>
    <path d="M-4,0h8M0,-4v8" fill="none" stroke="white" stroke-width="1.5" pointer-events="none"/>
  </g>
  <g id="zoomMin">
    <use xlink:href="#rim" fill="#404040"><set attributeName="fill" to="#808080" begin="zoomminus.mouseover" end="zoomminus.mouseout"/></use>
    <path d="M-4,0h8" fill="none" stroke="white" stroke-width="1.5" pointer-events="none"/>
  </g>
  <g id="arrowUp" transform="translate(30 24)">
    <use xlink:href="#rim"/>
    <path pointer-events="none" fill="none" stroke="white" stroke-width="1.5" d="M0,-3.0v7 M-2.5,-0.5L0,-3.0L2.5,-0.5"/>
  </g>
  <g id="arrowRight" transform="rotate(90) translate(36 -43)">
    <use xlink:href="#rim"/>
    <path pointer-events="none" fill="none" stroke="white" stroke-width="1.5" d="M0,-3.0v7 M-2.5,-0.5L0,-3.0L2.5,-0.5"/>
  </g>
  <g id="arrowDown" transform="rotate(180) translate(-30 -48)">
    <use xlink:href="#rim"/>
    <path pointer-events="none" fill="none" stroke="white" stroke-width="1.5" d="M0,-3.0v7 M-2.5,-0.5L0,-3.0L2.5,-0.5"/>
  </g>
  <g id="arrowLeft" transform="rotate(270) translate(-36 17)">
    <use xlink:href="#rim"/>
    <path pointer-events="none" fill="none" stroke="white" stroke-width="1.5" d="M0,-3.0v7 M-2.5,-0.5L0,-3.0L2.5,-0.5"/>
  </g>
  <g id="resetDef">
    <use xlink:href="#rim2" fill="#404040"><set attributeName="fill" to="#808080" begin="reset.mouseover" end="reset.mouseout"/></use>
  </g>
</defs>
<script type="application/ecmascript">
var viewWidth = 1272;
var viewHeight = 319;
var sectionId = 'dynsection-1';
</script>
<script type="application/ecmascript" xlink:href="svg.min.js"/>
<svg id="graph" class="graph">
<g id="viewport">
<title>yaclib::detail::PromiseCore&lt; V, E, Func &gt;</title>
<!-- Node1 -->
<g id="Node000001" class="node">
<title>Node1</title>
<g id="a_Node000001"><a xlink:title=" ">
<polygon fill="#999999" stroke="#666666" points="1263.75,-154.88 1134.5,-154.88 1134.5,-124.38 1263.75,-124.38 1263.75,-154.88"/>
<text text-anchor="start" x="1142.5" y="-141.38" font-family="Helvetica,sans-Serif" font-size="10.00">yaclib::detail::PromiseCore</text>
<text text-anchor="middle" x="1199.12" y="-130.12" font-family="Helvetica,sans-Serif" font-size="10.00">&lt; V, E, Func &gt;</text>
</a>
</g>
</g>
<!-- Node2 -->
<g id="Node000002" class="node">
<title>Node2</title>
<g id="a_Node000002"><a xlink:href="classyaclib_1_1detail_1_1ResultCore.html" target="_top" xlink:title=" ">
<polygon fill="white" stroke="#666666" points="1097.5,-184.88 976.5,-184.88 976.5,-154.38 1097.5,-154.38 1097.5,-184.88"/>
<text text-anchor="start" x="984.5" y="-171.38" font-family="Helvetica,sans-Serif" font-size="10.00">yaclib::detail::ResultCore</text>
<text text-anchor="middle" x="1037" y="-160.12" font-family="Helvetica,sans-Serif" font-size="10.00">&lt; V, E &gt;</text>
</a>
</g>
</g>
<!-- Node2&#45;&gt;Node1 -->
<g id="edge1_Node000001_Node000002" class="edge">
<title>Node2&#45;&gt;Node1</title>
<g id="a_edge1_Node000001_Node000002"><a xlink:title=" ">
<path fill="none" stroke="#63b8ff" d="M1108.66,-156.39C1117.15,-154.8 1125.77,-153.18 1134.16,-151.61"/>
<polygon fill="#63b8ff" stroke="#63b8ff" points="1108.3,-152.89 1099.11,-158.18 1109.59,-159.77 1108.3,-152.89"/>
</a>
</g>
</g>
<!-- Node3 -->
<g id="Node000003" class="node">
<title>Node3</title>
<g id="a_Node000003"><a xlink:href="classyaclib_1_1detail_1_1BaseCore.html" target="_top" xlink:title=" ">
<polygon fill="white" stroke="#666666" points="909,-179.25 793.25,-179.25 793.25,-160 909,-160 909,-179.25"/>
<text text-anchor="middle" x="851.12" y="-165.75" font-family="Helvetica,sans-Serif" font-size="10.00">yaclib::detail::BaseCore</text>
</a>
</g>
</g>
<!-- Node3&#45;&gt;Node2 -->
<g id="edge2_Node000002_Node000003" class="edge">
<title>Node3&#45;&gt;Node2</title>
<g id="a_edge2_Node000002_Node000003"><a xlink:title=" ">
<path fill="none" stroke="#63b8ff" d="M920.71,-169.62C938.87,-169.62 958.33,-169.62 976,-169.62"/>
<polygon fill="#63b8ff" stroke="#63b8ff" points="920.81,-166.13 910.81,-169.63 920.81,-173.13 920.81,-166.13"/>
</a>
</g>
</g>
<!-- Node4 -->
<g id="Node000004" class="node">
<title>Node4</title>
<g id="a_Node000004"><a xlink:href="classyaclib_1_1detail_1_1InlineCore.html" target="_top" xlink:title=" ">
<polygon fill="white" stroke="#666666" points="677,-179.25 560.5,-179.25 560.5,-160 677,-160 677,-179.25"/>
<text text-anchor="middle" x="618.75" y="-165.75" font-family="Helvetica,sans-Serif" font-size="10.00">yaclib::detail::InlineCore</text>
</a>
</g>
</g>
<!-- Node4&#45;&gt;Node3 -->
<g id="edge3_Node000003_Node000004" class="edge">
<title>Node4&#45;&gt;Node3</title>
<g id="a_edge3_Node000003_Node000004"><a xlink:title=" ">
<path fill="none" stroke="#63b8ff" d="M688.77,-169.62C722,-169.62 761.38,-169.62 792.92,-169.62"/>
<polygon fill="#63b8ff" stroke="#63b8ff" points="688.8,-166.13 678.8,-169.63 688.8,-173.13 688.8,-166.13"/>
</a>
</g>
</g>
<!-- Node5 -->
<g id="Node000005" class="node">
<title>Node5</title>
<g id="a_Node000005"><a xlink:href="classyaclib_1_1Job.html" target="_top" xlink:title="Callable that can be executed in an IExecutor.">
<polygon fill="white" stroke="#666666" points="388,-179.25 327,-179.25 327,-160 388,-160 388,-179.25"/>
<text text-anchor="middle" x="357.5" y="-165.75" font-family="Helvetica,sans-Serif" font-size="10.00">yaclib::Job</text>
</a>
</g>
</g>
<!-- Node5&#45;&gt;Node4 -->
<g id="edge4_Node000004_Node000005" class="edge">
<title>Node5&#45;&gt;Node4</title>
<g id="a_edge4_Node000004_Node000005"><a xlink:title=" ">
<path fill="none" stroke="#63b8ff" d="M399.74,-169.62C443.07,-169.62 511.55,-169.62 560.19,-169.62"/>
<polygon fill="#63b8ff" stroke="#63b8ff" points="400.01,-166.13 390.01,-169.63 400.01,-173.13 400.01,-166.13"/>
</a>
</g>
</g>
<!-- Node6 -->
<g id="Node000006" class="node">
<title>Node6</title>
<g id="a_Node000006"><a xlink:href="classyaclib_1_1IFunc.html" target="_top" xlink:title="Callable interface.">
<polygon fill="white" stroke="#666666" points="241.25,-169.25 171.25,-169.25 171.25,-150 241.25,-150 241.25,-169.25"/>
<text text-anchor="middle" x="206.25" y="-155.75" font-family="Helvetica,sans-Serif" font-size="10.00">yaclib::IFunc</text>
</a>
</g>
</g>
<!-- Node6&#45;&gt;Node5 -->
<g id="edge5_Node000005_Node000006" class="edge">
<title>Node6&#45;&gt;Node5</title>
<g id="a_edge5_Node000005_Node000006"><a xlink:title=" ">
<path fill="none" stroke="#63b8ff" d="M252.88,-162.68C276.96,-164.3 305.82,-166.23 326.95,-167.65"/>
<polygon fill="#63b8ff" stroke="#63b8ff" points="253.21,-159.2 243,-162.02 252.74,-166.18 253.21,-159.2"/>
</a>
</g>
</g>
<!-- Node7 -->
<g id="Node000007" class="node">
<title>Node7</title>
<g id="a_Node000007"><a xlink:href="classyaclib_1_1IRef.html" target="_top" xlink:title="Reference counting interface.">
<polygon fill="white" stroke="#666666" points="63.25,-212.25 0,-212.25 0,-193 63.25,-193 63.25,-212.25"/>
<text text-anchor="middle" x="31.62" y="-198.75" font-family="Helvetica,sans-Serif" font-size="10.00">yaclib::IRef</text>
</a>
</g>
</g>
<!-- Node7&#45;&gt;Node6 -->
<g id="edge6_Node000006_Node000007" class="edge">
<title>Node7&#45;&gt;Node6</title>
<g id="a_edge6_Node000006_Node000007"><a xlink:title=" ">
<path fill="none" stroke="#63b8ff" d="M74.3,-192.24C103.84,-184.88 143.02,-175.13 170.8,-168.21"/>
<polygon fill="#63b8ff" stroke="#63b8ff" points="73.81,-188.76 64.96,-194.57 75.51,-195.55 73.81,-188.76"/>
</a>
</g>
</g>
<!-- Node15 -->
<g id="Node000015" class="node">
<title>Node15</title>
<g id="a_Node000015"><a xlink:href="structyaclib_1_1detail_1_1Callback.html" target="_top" xlink:title=" ">
<polygon fill="white" stroke="#666666" points="261.5,-273.25 151,-273.25 151,-254 261.5,-254 261.5,-273.25"/>
<text text-anchor="middle" x="206.25" y="-259.75" font-family="Helvetica,sans-Serif" font-size="10.00">yaclib::detail::Callback</text>
</a>
</g>
</g>
<!-- Node7&#45;&gt;Node15 -->
<g id="edge16_Node000015_Node000007" class="edge">
<title>Node7&#45;&gt;Node15</title>
<g id="a_edge16_Node000015_Node000007"><a xlink:title=" ">
<path fill="none" stroke="#9a32cd" stroke-dasharray="5,2" d="M71.58,-216.49C94.66,-224.7 124.49,-235.28 151,-244.62 159.28,-247.54 168.28,-250.7 176.52,-253.59"/>
<polygon fill="#9a32cd" stroke="#9a32cd" points="72.86,-213.23 62.26,-213.18 70.51,-219.83 72.86,-213.23"/>
</a>
</g>
<text text-anchor="middle" x="107.12" y="-239.38" font-family="Helvetica,sans-Serif" font-size="10.00" fill="grey"> caller</text>
</g>
<!-- Node8 -->
<g id="Node000008" class="node">
<title>Node8</title>
<g id="a_Node000008"><a xlink:href="structyaclib_1_1detail_1_1Node.html" target="_top" xlink:title="Node class, used in intrusive data structure.">
<polygon fill="white" stroke="#666666" points="254.38,-206.25 158.12,-206.25 158.12,-187 254.38,-187 254.38,-206.25"/>
<text text-anchor="middle" x="206.25" y="-192.75" font-family="Helvetica,sans-Serif" font-size="10.00">yaclib::detail::Node</text>
</a>
</g>
</g>
<!-- Node8&#45;&gt;Node5 -->
<g id="edge7_Node000005_Node000008" class="edge">
<title>Node8&#45;&gt;Node5</title>
<g id="a_edge7_Node000005_Node000008"><a xlink:title=" ">
<path fill="none" stroke="#63b8ff" d="M265.58,-186.07C286.59,-182.27 309.4,-178.15 326.92,-174.98"/>
<polygon fill="#63b8ff" stroke="#63b8ff" points="265.18,-182.59 255.96,-187.81 266.43,-189.48 265.18,-182.59"/>
</a>
</g>
</g>
<!-- Node8&#45;&gt;Node8 -->
<g id="edge8_Node000008_Node000008" class="edge">
<title>Node8&#45;&gt;Node8</title>
<g id="a_edge8_Node000008_Node000008"><a xlink:title=" ">
<path fill="none" stroke="#9a32cd" stroke-dasharray="5,2" d="M193.16,-217.65C194.8,-221.53 199.16,-224.25 206.25,-224.25 219.21,-224.25 223.06,-215.15 217.8,-206.54"/>
<polygon fill="#9a32cd" stroke="#9a32cd" points="196.59,-218.42 194.5,-208.04 189.65,-217.46 196.59,-218.42"/>
</a>
</g>
<text text-anchor="middle" x="206.25" y="-226" font-family="Helvetica,sans-Serif" font-size="10.00" fill="grey"> next</text>
</g>
<!-- Node9 -->
<g id="Node000009" class="node">
<title>Node9</title>
<g id="a_Node000009"><a xlink:title=" ">
<polygon fill="white" stroke="#666666" points="676.25,-142.25 561.25,-142.25 561.25,-123 676.25,-123 676.25,-142.25"/>
<text text-anchor="middle" x="618.75" y="-128.75" font-family="Helvetica,sans-Serif" font-size="10.00">atomic&lt; std::uintptr_t &gt;</text>
</a>
</g>
</g>
<!-- Node9&#45;&gt;Node3 -->
<g id="edge9_Node000003_Node000009" class="edge">
<title>Node9&#45;&gt;Node3</title>
<g id="a_edge9_Node000003_Node000009"><a xlink:title=" ">
<path fill="none" stroke="#9a32cd" stroke-dasharray="5,2" d="M687.78,-141.21C715.03,-144.89 746.69,-149.47 775.25,-154.38 784.27,-155.92 793.87,-157.74 803.08,-159.58"/>
<polygon fill="#9a32cd" stroke="#9a32cd" points="688.26,-137.74 677.89,-139.89 687.33,-144.68 688.26,-137.74"/>
</a>
</g>
<text text-anchor="middle" x="753.12" y="-155.38" font-family="Helvetica,sans-Serif" font-size="10.00" fill="grey"> _callback</text>
</g>
<!-- Node10 -->
<g id="Node000010" class="node">
<title>Node10</title>
<g id="a_Node000010"><a xlink:title=" ">
<polygon fill="white" stroke="#666666" points="380.12,-142.25 334.88,-142.25 334.88,-123 380.12,-123 380.12,-142.25"/>
<text text-anchor="middle" x="357.5" y="-128.75" font-family="Helvetica,sans-Serif" font-size="10.00">atomic</text>
</a>
</g>
</g>
<!-- Node10&#45;&gt;Node9 -->
<g id="edge10_Node000009_Node000010" class="edge">
<title>Node10&#45;&gt;Node9</title>
<g id="a_edge10_Node000009_Node000010"><a xlink:title=" ">
<path fill="none" stroke="orange" stroke-dasharray="5,2" d="M392.01,-132.62C434.71,-132.62 509.16,-132.62 560.83,-132.62"/>
<polygon fill="orange" stroke="orange" points="392.12,-129.13 382.12,-132.63 392.12,-136.13 392.12,-129.13"/>
</a>
</g>
<text text-anchor="middle" x="470.5" y="-134.38" font-family="Helvetica,sans-Serif" font-size="10.00" fill="grey"> &lt; std::uintptr_t &gt;</text>
</g>
<!-- Node11 -->
<g id="Node000011" class="node">
<title>Node11</title>
<g id="a_Node000011"><a xlink:href="classyaclib_1_1IntrusivePtr.html" target="_top" xlink:title=" ">
<polygon fill="white" stroke="#666666" points="666.5,-227.88 571,-227.88 571,-197.38 666.5,-197.38 666.5,-227.88"/>
<text text-anchor="start" x="579" y="-214.38" font-family="Helvetica,sans-Serif" font-size="10.00">yaclib::IntrusivePtr</text>
<text text-anchor="middle" x="618.75" y="-203.12" font-family="Helvetica,sans-Serif" font-size="10.00">&lt; IExecutor &gt;</text>
</a>
</g>
</g>
<!-- Node11&#45;&gt;Node3 -->
<g id="edge11_Node000003_Node000011" class="edge">
<title>Node11&#45;&gt;Node3</title>
<g id="a_edge11_Node000003_Node000011"><a xlink:title=" ">
<path fill="none" stroke="#9a32cd" stroke-dasharray="5,2" d="M677.95,-201.78C707.16,-196.33 743.08,-189.63 775.25,-183.62 782.01,-182.36 789.11,-181.04 796.14,-179.72"/>
<polygon fill="#9a32cd" stroke="#9a32cd" points="677.38,-198.32 668.19,-203.6 678.66,-205.2 677.38,-198.32"/>
</a>
</g>
<text text-anchor="middle" x="753.12" y="-192.38" font-family="Helvetica,sans-Serif" font-size="10.00" fill="grey"> _executor</text>
</g>
<!-- Node12 -->
<g id="Node000012" class="node">
<title>Node12</title>
<g id="a_Node000012"><a xlink:href="classyaclib_1_1IntrusivePtr.html" target="_top" xlink:title="A intrusive pointer to objects with an embedded reference count.">
<polygon fill="white" stroke="#666666" points="416.5,-222.25 298.5,-222.25 298.5,-203 416.5,-203 416.5,-222.25"/>
<text text-anchor="middle" x="357.5" y="-208.75" font-family="Helvetica,sans-Serif" font-size="10.00">yaclib::IntrusivePtr&lt; T &gt;</text>
</a>
</g>
</g>
<!-- Node12&#45;&gt;Node11 -->
<g id="edge12_Node000011_Node000012" class="edge">
<title>Node12&#45;&gt;Node11</title>
<g id="a_edge12_Node000011_Node000012"><a xlink:title=" ">
<path fill="none" stroke="orange" stroke-dasharray="5,2" d="M428.16,-212.62C473.26,-212.62 530.79,-212.62 570.58,-212.62"/>
<polygon fill="orange" stroke="orange" points="428.19,-209.13 418.19,-212.63 428.19,-216.13 428.19,-209.13"/>
</a>
</g>
<text text-anchor="middle" x="470.5" y="-214.38" font-family="Helvetica,sans-Serif" font-size="10.00" fill="grey"> &lt; IExecutor &gt;</text>
</g>
<!-- Node13 -->
<g id="Node000013" class="node">
<title>Node13</title>
<g id="a_Node000013"><a xlink:href="classyaclib_1_1Result.html" target="_top" xlink:title=" ">
<polygon fill="white" stroke="#666666" points="904.88,-122.25 797.38,-122.25 797.38,-103 904.88,-103 904.88,-122.25"/>
<text text-anchor="middle" x="851.12" y="-108.75" font-family="Helvetica,sans-Serif" font-size="10.00">yaclib::Result&lt; V, E &gt;</text>
</a>
</g>
</g>
<!-- Node13&#45;&gt;Node2 -->
<g id="edge13_Node000002_Node000013" class="edge">
<title>Node13&#45;&gt;Node2</title>
<g id="a_edge13_Node000002_Node000013"><a xlink:title=" ">
<path fill="none" stroke="#9a32cd" stroke-dasharray="5,2" d="M895.25,-125.99C922.27,-134.37 957.2,-145.2 985.51,-153.97"/>
<polygon fill="#9a32cd" stroke="#9a32cd" points="896.61,-122.75 886.02,-123.13 894.54,-129.44 896.61,-122.75"/>
</a>
</g>
<text text-anchor="middle" x="942.75" y="-145.38" font-family="Helvetica,sans-Serif" font-size="10.00" fill="grey"> _result</text>
</g>
<!-- Node14 -->
<g id="Node000014" class="node">
<title>Node14</title>
<g id="a_Node000014"><a xlink:href="classyaclib_1_1Result.html" target="_top" xlink:title="Encapsulated return value from caller.">
<polygon fill="white" stroke="#666666" points="684.5,-105.25 553,-105.25 553,-86 684.5,-86 684.5,-105.25"/>
<text text-anchor="middle" x="618.75" y="-91.75" font-family="Helvetica,sans-Serif" font-size="10.00">yaclib::Result&lt; ValueT, E &gt;</text>
</a>
</g>
</g>
<!-- Node14&#45;&gt;Node13 -->
<g id="edge14_Node000013_Node000014" class="edge">
<title>Node14&#45;&gt;Node13</title>
<g id="a_edge14_Node000013_Node000014"><a xlink:title=" ">
<path fill="none" stroke="orange" stroke-dasharray="5,2" d="M696.22,-99.11C721.41,-100.48 749.55,-102.24 775.25,-104.38 782.29,-104.96 789.69,-105.67 796.98,-106.41"/>
<polygon fill="orange" stroke="orange" points="696.55,-95.62 686.38,-98.59 696.18,-102.61 696.55,-95.62"/>
</a>
</g>
<text text-anchor="middle" x="753.12" y="-105.38" font-family="Helvetica,sans-Serif" font-size="10.00" fill="grey"> &lt; V, E &gt;</text>
</g>
<!-- Node15&#45;&gt;Node2 -->
<g id="edge15_Node000002_Node000015" class="edge">
<title>Node15&#45;&gt;Node2</title>
<g id="a_edge15_Node000002_Node000015"><a xlink:title=" ">
<path fill="none" stroke="#9a32cd" stroke-dasharray="5,2" d="M273.08,-263.62C299.07,-263.62 329.19,-263.62 356.5,-263.62 356.5,-263.62 356.5,-263.62 852.12,-263.62 920.24,-263.62 988.54,-211.85 1019.22,-185.15"/>
<polygon fill="#9a32cd" stroke="#9a32cd" points="273.35,-260.13 263.35,-263.63 273.35,-267.13 273.35,-260.13"/>
</a>
</g>
<text text-anchor="middle" x="618.75" y="-265.38" font-family="Helvetica,sans-Serif" font-size="10.00" fill="grey"> _self</text>
</g>
<!-- Node16 -->
<g id="Node000016" class="node">
<title>Node16</title>
<g id="a_Node000016"><a xlink:title=" ">
<polygon fill="white" stroke="#666666" points="49,-273.25 14.25,-273.25 14.25,-254 49,-254 49,-273.25"/>
<text text-anchor="middle" x="31.62" y="-259.75" font-family="Helvetica,sans-Serif" font-size="10.00">char</text>
</a>
</g>
</g>
<!-- Node16&#45;&gt;Node15 -->
<g id="edge17_Node000015_Node000016" class="edge">
<title>Node16&#45;&gt;Node15</title>
<g id="a_edge17_Node000015_Node000016"><a xlink:title=" ">
<path fill="none" stroke="#9a32cd" stroke-dasharray="5,2" d="M60.72,-263.62C84.99,-263.62 120.76,-263.62 150.64,-263.62"/>
<polygon fill="#9a32cd" stroke="#9a32cd" points="61,-260.13 51,-263.63 61,-267.13 61,-260.13"/>
</a>
</g>
<text text-anchor="middle" x="107.12" y="-265.38" font-family="Helvetica,sans-Serif" font-size="10.00" fill="grey"> unwrapping</text>
</g>
<!-- Node17 -->
<g id="Node000017" class="node">
<title>Node17</title>
<g id="a_Node000017"><a xlink:title=" ">
<polygon fill="white" stroke="#666666" points="892.88,-311.25 809.38,-311.25 809.38,-292 892.88,-292 892.88,-311.25"/>
<text text-anchor="middle" x="851.12" y="-297.75" font-family="Helvetica,sans-Serif" font-size="10.00">anonymous:@1</text>
</a>
</g>
</g>
<!-- Node17&#45;&gt;Node2 -->
<g id="edge18_Node000002_Node000017" class="edge">
<title>Node17&#45;&gt;Node2</title>
<g id="a_edge18_Node000002_Node000017"><a xlink:title=" ">
<path fill="none" stroke="#9a32cd" stroke-dasharray="5,2" d="M904.34,-297.5C922.63,-294.15 942.55,-288.19 958.5,-277.62 993.71,-254.3 1018.18,-209.13 1029.28,-185.27"/>
<polygon fill="#9a32cd" stroke="#9a32cd" points="904.05,-294.01 894.72,-299.03 905.14,-300.92 904.05,-294.01"/>
</a>
</g>
<text text-anchor="middle" x="942.75" y="-292.38" font-family="Helvetica,sans-Serif" font-size="10.00" fill="grey"> @1</text>
</g>
<!-- Node18 -->
<g id="Node000018" class="node">
<title>Node18</title>
<g id="a_Node000018"><a xlink:href="classyaclib_1_1detail_1_1FuncCore.html" target="_top" xlink:title=" ">
<polygon fill="white" stroke="#666666" points="1094.5,-130.88 979.5,-130.88 979.5,-100.38 1094.5,-100.38 1094.5,-130.88"/>
<text text-anchor="start" x="987.5" y="-117.38" font-family="Helvetica,sans-Serif" font-size="10.00">yaclib::detail::FuncCore</text>
<text text-anchor="middle" x="1037" y="-106.12" font-family="Helvetica,sans-Serif" font-size="10.00">&lt; Func &gt;</text>
</a>
</g>
</g>
<!-- Node18&#45;&gt;Node1 -->
<g id="edge19_Node000001_Node000018" class="edge">
<title>Node18&#45;&gt;Node1</title>
<g id="a_edge19_Node000001_Node000018"><a xlink:title=" ">
<path fill="none" stroke="#63b8ff" d="M1106.07,-125.83C1115.35,-127.22 1124.84,-128.64 1134.04,-130.02"/>
<polygon fill="#63b8ff" stroke="#63b8ff" points="1106.81,-122.4 1096.4,-124.38 1105.77,-129.32 1106.81,-122.4"/>
</a>
</g>
</g>
<!-- Node19 -->
<g id="Node000019" class="node">
<title>Node19</title>
<g id="a_Node000019"><a xlink:href="unionyaclib_1_1detail_1_1FuncCore_1_1State.html" target="_top" xlink:title=" ">
<polygon fill="white" stroke="#666666" points="908.62,-67.88 793.62,-67.88 793.62,-37.38 908.62,-37.38 908.62,-67.88"/>
<text text-anchor="start" x="801.62" y="-54.38" font-family="Helvetica,sans-Serif" font-size="10.00">yaclib::detail::FuncCore</text>
<text text-anchor="middle" x="851.12" y="-43.12" font-family="Helvetica,sans-Serif" font-size="10.00">&lt; Func &gt;::State</text>
</a>
</g>
</g>
<!-- Node19&#45;&gt;Node18 -->
<g id="edge20_Node000018_Node000019" class="edge">
<title>Node19&#45;&gt;Node18</title>
<g id="a_edge20_Node000018_Node000019"><a xlink:title=" ">
<path fill="none" stroke="#9a32cd" stroke-dasharray="5,2" d="M908.6,-71.98C934.83,-80.96 965.61,-91.51 990.34,-99.98"/>
<polygon fill="#9a32cd" stroke="#9a32cd" points="910.08,-68.78 899.48,-68.85 907.81,-75.4 910.08,-68.78"/>
</a>
</g>
<text text-anchor="middle" x="942.75" y="-89.38" font-family="Helvetica,sans-Serif" font-size="10.00" fill="grey"> _func</text>
</g>
<!-- Node20 -->
<g id="Node000020" class="node">
<title>Node20</title>
<g id="a_Node000020"><a xlink:title=" ">
<polygon fill="white" stroke="#666666" points="713,-19.25 524.5,-19.25 524.5,0 713,0 713,-19.25"/>
<text text-anchor="middle" x="618.75" y="-5.75" font-family="Helvetica,sans-Serif" font-size="10.00">YACLIB_NO_UNIQUE_ADDRESS Unit</text>
</a>
</g>
</g>
<!-- Node20&#45;&gt;Node19 -->
<g id="edge21_Node000019_Node000020" class="edge">
<title>Node20&#45;&gt;Node19</title>
<g id="a_edge21_Node000019_Node000020"><a xlink:title=" ">
<path fill="none" stroke="#9a32cd" stroke-dasharray="5,2" d="M689.39,-21.68C716.25,-26.43 747.2,-32.02 775.25,-37.38 781.11,-38.5 787.23,-39.69 793.33,-40.91"/>
<polygon fill="#9a32cd" stroke="#9a32cd" points="690.09,-18.25 679.64,-19.96 688.88,-25.14 690.09,-18.25"/>
</a>
</g>
<text text-anchor="middle" x="753.12" y="-38.38" font-family="Helvetica,sans-Serif" font-size="10.00" fill="grey"> stub</text>
</g>
<!-- Node21 -->
<g id="Node000021" class="node">
<title>Node21</title>
<g id="a_Node000021"><a xlink:title=" ">
<polygon fill="white" stroke="#666666" points="702.88,-67.88 534.62,-67.88 534.62,-37.38 702.88,-37.38 702.88,-67.88"/>
<text text-anchor="start" x="542.62" y="-54.38" font-family="Helvetica,sans-Serif" font-size="10.00">YACLIB_NO_UNIQUE_ADDRESS</text>
<text text-anchor="middle" x="618.75" y="-43.12" font-family="Helvetica,sans-Serif" font-size="10.00"> Storage</text>
</a>
</g>
</g>
<!-- Node21&#45;&gt;Node19 -->
<g id="edge22_Node000019_Node000021" class="edge">
<title>Node21&#45;&gt;Node19</title>
<g id="a_edge22_Node000019_Node000021"><a xlink:title=" ">
<path fill="none" stroke="#9a32cd" stroke-dasharray="5,2" d="M714.58,-52.62C741.27,-52.62 769.47,-52.62 793.19,-52.62"/>
<polygon fill="#9a32cd" stroke="#9a32cd" points="714.76,-49.13 704.76,-52.63 714.76,-56.13 714.76,-49.13"/>
</a>
</g>
<text text-anchor="middle" x="753.12" y="-54.38" font-family="Helvetica,sans-Serif" font-size="10.00" fill="grey"> storage</text>
</g>
</g>
</svg>

<g id="navigator" transform="translate(0 0)" fill="#404254">
  <rect fill="#f2f5e9" fill-opacity="0.5" stroke="#606060" stroke-width=".5" x="0" y="0" width="60" height="60"/>
  <use id="zoomplus" xlink:href="#zoomPlus" x="17" y="9" onmousedown="handleZoom(evt,'in')"/>
  <use id="zoomminus" xlink:href="#zoomMin" x="42" y="9" onmousedown="handleZoom(evt,'out')"/>
  <use id="reset" xlink:href="#resetDef" x="30" y="36" onmousedown="handleReset()"/>
   <use id="arrowup" xlink:href="#arrowUp" x="0" y="0" onmousedown="handlePan(0,-1)"/>
  <use id="arrowright" xlink:href="#arrowRight" x="0" y="0" onmousedown="handlePan(1,0)"/>
  <use id="arrowdown" xlink:href="#arrowDown" x="0" y="0" onmousedown="handlePan(0,1)"/>
  <use id="arrowleft" xlink:href="#arrowLeft" x="0" y="0" onmousedown="handlePan(-1,0)"/>
</g>
<svg viewBox="0 0 15 15" width="100%" height="30px" preserveAspectRatio="xMaxYMin meet">
 <g id="arrow_out" transform="scale(0.3 0.3)">
  <a xlink:href="classyaclib_1_1detail_1_1PromiseCore__coll__graph_org.svg" target="_base">
   <rect id="button" ry="5" rx="5" y="6" x="6" height="38" width="38"
        fill="#f2f5e9" fill-opacity="0.5" stroke="#606060" stroke-width="1.0"/>
   <path id="arrow"
     d="M 11.500037,31.436501 C 11.940474,20.09759 22.043105,11.32322 32.158766,21.979434 L 37.068811,17.246167 C 37.068811,17.246167 37.088388,32 37.088388,32 L 22.160133,31.978069 C 22.160133,31.978069 26.997745,27.140456 26.997745,27.140456 C 18.528582,18.264221 13.291696,25.230495 11.500037,31.436501 z"
     style="fill:#404040;"/>
  </a>
 </g>
</svg>

<style type='text/css'>
<![CDATA[
[data-mouse-over-selected='false'] { opacity: 0.7; }
[data-mouse-over-selected='true']  { opacity: 1.0; }
]]>
</style>
<script type="application/ecmascript"><![CDATA[
document.addEventListener('DOMContentLoaded', (event) => {
  highlightEdges();
  highlightAdjacentNodes();
});
]]></script>
</svg>
