<?xml version="1.0" encoding="UTF-8" standalone="no"?>
<!DOCTYPE svg PUBLIC "-//W3C//DTD SVG 1.1//EN"
 "http://www.w3.org/Graphics/SVG/1.1/DTD/svg11.dtd">
<!-- Generated by graphviz version 3.0.0 (20220413.0242)
 -->
<!-- Title: yaclib::FutureOn&lt; V, E &gt; Pages: 1 -->
<svg width="207pt" height="339pt"
 viewBox="0.00 0.00 206.50 339.00" xmlns="http://www.w3.org/2000/svg" xmlns:xlink="http://www.w3.org/1999/xlink">
<g id="graph0" class="graph" transform="scale(1 1) rotate(0) translate(4 335)">
<title>yaclib::FutureOn&lt; V, E &gt;</title>
<!-- Node1 -->
<g id="node1" class="node">
<title>Node1</title>
<g id="a_node1"><a xlink:title="Provides a mechanism to access the result of async operations.">
<polygon fill="#bfbfbf" stroke="black" points="10,-0.5 10,-19.5 131,-19.5 131,-0.5 10,-0.5"/>
<text text-anchor="middle" x="70.5" y="-7.5" font-family="Helvetica,sans-Serif" font-size="10.00">yaclib::FutureOn&lt; V, E &gt;</text>
</a>
</g>
</g>
<!-- Node2 -->
<g id="node2" class="node">
<title>Node2</title>
<g id="a_node2"><a xlink:href="classyaclib_1_1FutureBase.html" target="_top" xlink:title=" ">
<polygon fill="none" stroke="black" points="22,-57.5 22,-87.5 119,-87.5 119,-57.5 22,-57.5"/>
<text text-anchor="start" x="30" y="-75.5" font-family="Helvetica,sans-Serif" font-size="10.00">yaclib::FutureBase</text>
<text text-anchor="middle" x="70.5" y="-64.5" font-family="Helvetica,sans-Serif" font-size="10.00">&lt; void, StopError &gt;</text>
</a>
</g>
</g>
<!-- Node2&#45;&gt;Node1 -->
<g id="edge1" class="edge">
<title>Node2&#45;&gt;Node1</title>
<path fill="none" stroke="midnightblue" d="M70.5,-47.35C70.5,-37.51 70.5,-26.78 70.5,-19.54"/>
<polygon fill="midnightblue" stroke="midnightblue" points="67,-47.47 70.5,-57.47 74,-47.47 67,-47.47"/>
</g>
<!-- Node3 -->
<g id="node3" class="node">
<title>Node3</title>
<g id="a_node3"><a xlink:href="classyaclib_1_1IntrusivePtr.html" target="_top" xlink:title=" ">
<polygon fill="none" stroke="black" points="0,-184.5 0,-214.5 97,-214.5 97,-184.5 0,-184.5"/>
<text text-anchor="start" x="8" y="-202.5" font-family="Helvetica,sans-Serif" font-size="10.00">yaclib::IntrusivePtr</text>
<text text-anchor="middle" x="48.5" y="-191.5" font-family="Helvetica,sans-Serif" font-size="10.00">&lt; void, StopError &gt;</text>
</a>
</g>
</g>
<!-- Node3&#45;&gt;Node2 -->
<g id="edge2" class="edge">
<title>Node3&#45;&gt;Node2</title>
<path fill="none" stroke="#9a32cd" stroke-dasharray="5,2" d="M52.8,-174.08C57.33,-148.34 64.31,-108.67 68.01,-87.67"/>
<polygon fill="#9a32cd" stroke="#9a32cd" points="49.31,-173.71 51.02,-184.16 56.2,-174.92 49.31,-173.71"/>
<text text-anchor="middle" x="73" y="-148" font-family="Helvetica,sans-Serif" font-size="10.00"> _core</text>
</g>
<!-- Node4 -->
<g id="node4" class="node">
<title>Node4</title>
<g id="a_node4"><a xlink:href="classyaclib_1_1IntrusivePtr.html" target="_top" xlink:title="A intrusive pointer to objects with an embedded reference count.">
<polygon fill="none" stroke="black" points="39,-311.5 39,-330.5 158,-330.5 158,-311.5 39,-311.5"/>
<text text-anchor="middle" x="98.5" y="-318.5" font-family="Helvetica,sans-Serif" font-size="10.00">yaclib::IntrusivePtr&lt; T &gt;</text>
</a>
</g>
</g>
<!-- Node4&#45;&gt;Node3 -->
<g id="edge3" class="edge">
<title>Node4&#45;&gt;Node3</title>
<path fill="none" stroke="orange" stroke-dasharray="5,2" d="M56.63,-306.58C51.02,-303.03 46,-298.58 42.5,-293 27.35,-268.88 36.02,-233.89 42.81,-214.6"/>
<polygon fill="orange" stroke="orange" points="55.32,-309.85 65.79,-311.44 58.6,-303.66 55.32,-309.85"/>
<text text-anchor="middle" x="84" y="-285" font-family="Helvetica,sans-Serif" font-size="10.00"> &lt; void, StopError &gt;</text>
</g>
<!-- Node6 -->
<g id="node6" class="node">
<title>Node6</title>
<g id="a_node6"><a xlink:href="classyaclib_1_1IntrusivePtr.html" target="_top" xlink:title=" ">
<polygon fill="none" stroke="black" points="102.5,-233.5 102.5,-263.5 198.5,-263.5 198.5,-233.5 102.5,-233.5"/>
<text text-anchor="start" x="110.5" y="-251.5" font-family="Helvetica,sans-Serif" font-size="10.00">yaclib::IntrusivePtr</text>
<text text-anchor="middle" x="150.5" y="-240.5" font-family="Helvetica,sans-Serif" font-size="10.00">&lt; V, E &gt;</text>
</a>
</g>
</g>
<!-- Node4&#45;&gt;Node6 -->
<g id="edge6" class="edge">
<title>Node4&#45;&gt;Node6</title>
<path fill="none" stroke="orange" stroke-dasharray="5,2" d="M118.11,-305.06C122.19,-301.4 126.23,-297.29 129.5,-293 136.32,-284.07 141.75,-272.57 145.38,-263.64"/>
<polygon fill="orange" stroke="orange" points="115.87,-302.38 110.44,-311.48 120.36,-307.74 115.87,-302.38"/>
<text text-anchor="middle" x="154" y="-285" font-family="Helvetica,sans-Serif" font-size="10.00"> &lt; V, E &gt;</text>
</g>
<!-- Node5 -->
<g id="node5" class="node">
<title>Node5</title>
<g id="a_node5"><a xlink:href="classyaclib_1_1FutureBase.html" target="_top" xlink:title="Provides a mechanism to access the result of async operations.">
<polygon fill="none" stroke="black" points="100.5,-135.5 100.5,-165.5 196.5,-165.5 196.5,-135.5 100.5,-135.5"/>
<text text-anchor="start" x="108.5" y="-153.5" font-family="Helvetica,sans-Serif" font-size="10.00">yaclib::FutureBase</text>
<text text-anchor="middle" x="148.5" y="-142.5" font-family="Helvetica,sans-Serif" font-size="10.00">&lt; V, E &gt;</text>
</a>
</g>
</g>
<!-- Node5&#45;&gt;Node2 -->
<g id="edge4" class="edge">
<title>Node5&#45;&gt;Node2</title>
<path fill="none" stroke="orange" stroke-dasharray="5,2" d="M126.47,-128.03C113.23,-115.13 96.74,-99.07 85.11,-87.73"/>
<polygon fill="orange" stroke="orange" points="124.22,-130.73 133.83,-135.2 129.11,-125.72 124.22,-130.73"/>
<text text-anchor="middle" x="155" y="-109" font-family="Helvetica,sans-Serif" font-size="10.00"> &lt; void, StopError &gt;</text>
</g>
<!-- Node6&#45;&gt;Node5 -->
<g id="edge5" class="edge">
<title>Node6&#45;&gt;Node5</title>
<path fill="none" stroke="#9a32cd" stroke-dasharray="5,2" d="M149.99,-223.2C149.62,-205.05 149.11,-180.85 148.8,-165.72"/>
<polygon fill="#9a32cd" stroke="#9a32cd" points="146.5,-223.41 150.2,-233.33 153.5,-223.26 146.5,-223.41"/>
<text text-anchor="middle" x="163" y="-197" font-family="Helvetica,sans-Serif" font-size="10.00"> _core</text>
</g>
</g>
</svg>
