<?xml version="1.0" encoding="UTF-8" standalone="no"?>
<!DOCTYPE svg PUBLIC "-//W3C//DTD SVG 1.1//EN"
 "http://www.w3.org/Graphics/SVG/1.1/DTD/svg11.dtd">
<!-- Generated by graphviz version 9.0.0 (20230911.1827)
 -->
<!-- Title: CounterBase Pages: 1 -->
<!--zoomable 101 -->

<svg id="main" version="1.1" xmlns="http://www.w3.org/2000/svg" xmlns:xlink="http://www.w3.org/1999/xlink" xml:space="preserve" onload="init(evt)">
<style type="text/css"><![CDATA[
.node, .edge {opacity: 0.7;}
.node.selected, .edge.selected {opacity: 1;}
.edge:hover path { stroke: red; }
.edge:hover polygon { stroke: red; fill: red; }
]]></style>

<defs>
  <circle id="rim" cx="0" cy="0" r="7"/>
  <circle id="rim2" cx="0" cy="0" r="3.5"/>
  <g id="zoomPlus">
    <use xlink:href="#rim" fill="#404040"><set attributeName="fill" to="#808080" begin="zoomplus.mouseover" end="zoomplus.mouseout"/></use>
    <path d="M-4,0h8M0,-4v8" fill="none" stroke="white" stroke-width="1.5" pointer-events="none"/>
  </g>
  <g id="zoomMin">
    <use xlink:href="#rim" fill="#404040"><set attributeName="fill" to="#808080" begin="zoomminus.mouseover" end="zoomminus.mouseout"/></use>
    <path d="M-4,0h8" fill="none" stroke="white" stroke-width="1.5" pointer-events="none"/>
  </g>
  <g id="arrowUp" transform="translate(30 24)">
    <use xlink:href="#rim"/>
    <path pointer-events="none" fill="none" stroke="white" stroke-width="1.5" d="M0,-3.0v7 M-2.5,-0.5L0,-3.0L2.5,-0.5"/>
  </g>
  <g id="arrowRight" transform="rotate(90) translate(36 -43)">
    <use xlink:href="#rim"/>
    <path pointer-events="none" fill="none" stroke="white" stroke-width="1.5" d="M0,-3.0v7 M-2.5,-0.5L0,-3.0L2.5,-0.5"/>
  </g>
  <g id="arrowDown" transform="rotate(180) translate(-30 -48)">
    <use xlink:href="#rim"/>
    <path pointer-events="none" fill="none" stroke="white" stroke-width="1.5" d="M0,-3.0v7 M-2.5,-0.5L0,-3.0L2.5,-0.5"/>
  </g>
  <g id="arrowLeft" transform="rotate(270) translate(-36 17)">
    <use xlink:href="#rim"/>
    <path pointer-events="none" fill="none" stroke="white" stroke-width="1.5" d="M0,-3.0v7 M-2.5,-0.5L0,-3.0L2.5,-0.5"/>
  </g>
  <g id="resetDef">
    <use xlink:href="#rim2" fill="#404040"><set attributeName="fill" to="#808080" begin="reset.mouseover" end="reset.mouseout"/></use>
  </g>
</defs>
<script type="application/ecmascript">
var viewWidth = 754;
var viewHeight = 101;
var sectionId = 'dynsection-0';
</script>
<script type="application/ecmascript" xlink:href="svg.min.js"/>
<svg id="graph" class="graph">
<g id="viewport">
<title>CounterBase</title>
<!-- Node1 -->
<g id="Node000001" class="node">
<title>Node1</title>
<g id="a_Node000001"><a xlink:title=" ">
<polygon fill="#999999" stroke="#666666" points="72.25,-58.5 0,-58.5 0,-39.25 72.25,-39.25 72.25,-58.5"/>
<text text-anchor="middle" x="36.12" y="-45" font-family="Helvetica,sans-Serif" font-size="10.00">CounterBase</text>
</a>
</g>
</g>
<!-- Node2 -->
<g id="Node000002" class="node">
<title>Node2</title>
<g id="a_Node000002"><a xlink:href="structyaclib_1_1detail_1_1AtomicCounter.html" target="_top" xlink:title=" ">
<polygon fill="white" stroke="#666666" points="246.75,-91.12 109.25,-91.12 109.25,-60.62 246.75,-60.62 246.75,-91.12"/>
<text text-anchor="start" x="117.25" y="-77.62" font-family="Helvetica,sans-Serif" font-size="10.00">yaclib::detail::AtomicCounter</text>
<text text-anchor="middle" x="178" y="-66.38" font-family="Helvetica,sans-Serif" font-size="10.00">&lt; CounterBase, Deleter &gt;</text>
</a>
</g>
</g>
<!-- Node1&#45;&gt;Node2 -->
<g id="edge1_Node000001_Node000002" class="edge">
<title>Node1&#45;&gt;Node2</title>
<g id="a_edge1_Node000001_Node000002"><a xlink:title=" ">
<path fill="none" stroke="#63b8ff" d="M83.58,-57.84C91.75,-59.42 100.39,-61.09 109,-62.75"/>
<polygon fill="#63b8ff" stroke="#63b8ff" points="84.39,-54.43 73.91,-55.98 83.06,-61.31 84.39,-54.43"/>
</a>
</g>
</g>
<!-- Node5 -->
<g id="Node000005" class="node">
<title>Node5</title>
<g id="a_Node000005"><a xlink:href="structyaclib_1_1detail_1_1OneCounter.html" target="_top" xlink:title=" ">
<polygon fill="white" stroke="#666666" points="240.38,-40.12 115.62,-40.12 115.62,-9.62 240.38,-9.62 240.38,-40.12"/>
<text text-anchor="start" x="123.62" y="-26.62" font-family="Helvetica,sans-Serif" font-size="10.00">yaclib::detail::OneCounter</text>
<text text-anchor="middle" x="178" y="-15.38" font-family="Helvetica,sans-Serif" font-size="10.00">&lt; CounterBase, Deleter &gt;</text>
</a>
</g>
</g>
<!-- Node1&#45;&gt;Node5 -->
<g id="edge4_Node000001_Node000005" class="edge">
<title>Node1&#45;&gt;Node5</title>
<g id="a_edge4_Node000001_Node000005"><a xlink:title=" ">
<path fill="none" stroke="#63b8ff" d="M83.54,-40.91C93.71,-39.17 104.64,-37.29 115.31,-35.46"/>
<polygon fill="#63b8ff" stroke="#63b8ff" points="83.18,-37.42 73.91,-42.56 84.36,-44.32 83.18,-37.42"/>
</a>
</g>
</g>
<!-- Node3 -->
<g id="Node000003" class="node">
<title>Node3</title>
<g id="a_Node000003"><a xlink:href="structyaclib_1_1detail_1_1AtomicCounter.html" target="_top" xlink:title=" ">
<polygon fill="white" stroke="#666666" points="561.25,-93.12 423.75,-93.12 423.75,-62.62 561.25,-62.62 561.25,-93.12"/>
<text text-anchor="start" x="431.75" y="-79.62" font-family="Helvetica,sans-Serif" font-size="10.00">yaclib::detail::AtomicCounter</text>
<text text-anchor="middle" x="492.5" y="-68.38" font-family="Helvetica,sans-Serif" font-size="10.00">&lt; NopeBase, NopeDeleter &gt;</text>
</a>
</g>
</g>
<!-- Node2&#45;&gt;Node3 -->
<g id="edge2_Node000002_Node000003" class="edge">
<title>Node2&#45;&gt;Node3</title>
<g id="a_edge2_Node000002_Node000003"><a xlink:title=" ">
<path fill="none" stroke="orange" stroke-dasharray="5,2" d="M258.49,-76.38C309.45,-76.71 374.9,-77.13 423.45,-77.44"/>
<polygon fill="orange" stroke="orange" points="258.73,-72.89 248.71,-76.32 258.68,-79.89 258.73,-72.89"/>
</a>
</g>
<text text-anchor="middle" x="326.62" y="-78.62" font-family="Helvetica,sans-Serif" font-size="10.00" fill="grey"> &lt; NopeBase, NopeDeleter &gt;</text>
</g>
<!-- Node4 -->
<g id="Node000004" class="node">
<title>Node4</title>
<g id="a_Node000004"><a xlink:href="classyaclib_1_1detail_1_1AwaitEvent.html" target="_top" xlink:title=" ">
<polygon fill="white" stroke="#666666" points="741.75,-87.5 619.25,-87.5 619.25,-68.25 741.75,-68.25 741.75,-87.5"/>
<text text-anchor="middle" x="680.5" y="-74" font-family="Helvetica,sans-Serif" font-size="10.00">yaclib::detail::AwaitEvent</text>
</a>
</g>
</g>
<!-- Node3&#45;&gt;Node4 -->
<g id="edge3_Node000003_Node000004" class="edge">
<title>Node3&#45;&gt;Node4</title>
<g id="a_edge3_Node000003_Node000004"><a xlink:title=" ">
<path fill="none" stroke="#63b8ff" d="M572.84,-77.88C588.29,-77.88 604.26,-77.88 618.99,-77.88"/>
<polygon fill="#63b8ff" stroke="#63b8ff" points="573.22,-74.38 563.22,-77.88 573.22,-81.38 573.22,-74.38"/>
</a>
</g>
</g>
<!-- Node6 -->
<g id="Node000006" class="node">
<title>Node6</title>
<g id="a_Node000006"><a xlink:href="structyaclib_1_1detail_1_1OneCounter.html" target="_top" xlink:title=" ">
<polygon fill="white" stroke="#666666" points="578.5,-41.75 406.5,-41.75 406.5,0 578.5,0 578.5,-41.75"/>
<text text-anchor="start" x="414.5" y="-28.25" font-family="Helvetica,sans-Serif" font-size="10.00">yaclib::detail::OneCounter</text>
<text text-anchor="start" x="414.5" y="-17" font-family="Helvetica,sans-Serif" font-size="10.00">&lt; UniqueCore&lt; V, E &gt;, PromiseType</text>
<text text-anchor="middle" x="492.5" y="-5.75" font-family="Helvetica,sans-Serif" font-size="10.00">Deleter&lt; Lazy &gt; &gt;</text>
</a>
</g>
</g>
<!-- Node5&#45;&gt;Node6 -->
<g id="edge5_Node000005_Node000006" class="edge">
<title>Node5&#45;&gt;Node6</title>
<g id="a_edge5_Node000005_Node000006"><a xlink:title=" ">
<path fill="none" stroke="orange" stroke-dasharray="5,2" d="M252.15,-23.94C298.26,-23.35 357.98,-22.58 406.23,-21.97"/>
<polygon fill="orange" stroke="orange" points="252.21,-20.44 242.25,-24.07 252.3,-27.44 252.21,-20.44"/>
</a>
</g>
<text text-anchor="start" x="276" y="-48.12" font-family="Helvetica,sans-Serif" font-size="10.00" fill="grey"> &lt; UniqueCore&lt; V, E</text>
<text text-anchor="start" x="276" y="-36.88" font-family="Helvetica,sans-Serif" font-size="10.00" fill="grey"> &gt;, PromiseTypeDeleter</text>
<text text-anchor="middle" x="326.62" y="-25.62" font-family="Helvetica,sans-Serif" font-size="10.00" fill="grey">&lt; Lazy &gt; &gt;</text>
</g>
<!-- Node7 -->
<g id="Node000007" class="node">
<title>Node7</title>
<g id="a_Node000007"><a xlink:href="classyaclib_1_1detail_1_1PromiseType.html" target="_top" xlink:title=" ">
<polygon fill="white" stroke="#666666" points="745.5,-36.12 615.5,-36.12 615.5,-5.62 745.5,-5.62 745.5,-36.12"/>
<text text-anchor="start" x="623.5" y="-22.62" font-family="Helvetica,sans-Serif" font-size="10.00">yaclib::detail::PromiseType</text>
<text text-anchor="middle" x="680.5" y="-11.38" font-family="Helvetica,sans-Serif" font-size="10.00">&lt; V, E, Lazy &gt;</text>
</a>
</g>
</g>
<!-- Node6&#45;&gt;Node7 -->
<g id="edge6_Node000006_Node000007" class="edge">
<title>Node6&#45;&gt;Node7</title>
<g id="a_edge6_Node000006_Node000007"><a xlink:title=" ">
<path fill="none" stroke="#63b8ff" d="M590.36,-20.88C598.79,-20.88 607.17,-20.88 615.23,-20.88"/>
<polygon fill="#63b8ff" stroke="#63b8ff" points="590.39,-17.38 580.39,-20.88 590.39,-24.38 590.39,-17.38"/>
</a>
</g>
</g>
</g>
</svg>

<g id="navigator" transform="translate(0 0)" fill="#404254">
  <rect fill="#f2f5e9" fill-opacity="0.5" stroke="#606060" stroke-width=".5" x="0" y="0" width="60" height="60"/>
  <use id="zoomplus" xlink:href="#zoomPlus" x="17" y="9" onmousedown="handleZoom(evt,'in')"/>
  <use id="zoomminus" xlink:href="#zoomMin" x="42" y="9" onmousedown="handleZoom(evt,'out')"/>
  <use id="reset" xlink:href="#resetDef" x="30" y="36" onmousedown="handleReset()"/>
   <use id="arrowup" xlink:href="#arrowUp" x="0" y="0" onmousedown="handlePan(0,-1)"/>
  <use id="arrowright" xlink:href="#arrowRight" x="0" y="0" onmousedown="handlePan(1,0)"/>
  <use id="arrowdown" xlink:href="#arrowDown" x="0" y="0" onmousedown="handlePan(0,1)"/>
  <use id="arrowleft" xlink:href="#arrowLeft" x="0" y="0" onmousedown="handlePan(-1,0)"/>
</g>
<svg viewBox="0 0 15 15" width="100%" height="30px" preserveAspectRatio="xMaxYMin meet">
 <g id="arrow_out" transform="scale(0.3 0.3)">
  <a xlink:href="classCounterBase__inherit__graph_org.svg" target="_base">
   <rect id="button" ry="5" rx="5" y="6" x="6" height="38" width="38"
        fill="#f2f5e9" fill-opacity="0.5" stroke="#606060" stroke-width="1.0"/>
   <path id="arrow"
     d="M 11.500037,31.436501 C 11.940474,20.09759 22.043105,11.32322 32.158766,21.979434 L 37.068811,17.246167 C 37.068811,17.246167 37.088388,32 37.088388,32 L 22.160133,31.978069 C 22.160133,31.978069 26.997745,27.140456 26.997745,27.140456 C 18.528582,18.264221 13.291696,25.230495 11.500037,31.436501 z"
     style="fill:#404040;"/>
  </a>
 </g>
</svg>

<style type='text/css'>
<![CDATA[
[data-mouse-over-selected='false'] { opacity: 0.7; }
[data-mouse-over-selected='true']  { opacity: 1.0; }
]]>
</style>
<script type="application/ecmascript"><![CDATA[
document.addEventListener('DOMContentLoaded', (event) => {
  highlightEdges();
  highlightAdjacentNodes();
});
]]></script>
</svg>
