<?xml version="1.0" encoding="UTF-8" standalone="no"?>
<!DOCTYPE svg PUBLIC "-//W3C//DTD SVG 1.1//EN"
 "http://www.w3.org/Graphics/SVG/1.1/DTD/svg11.dtd">
<!-- Generated by graphviz version 9.0.0 (20230911.1827)
 -->
<!-- Title: yaclib::detail::SharedCore&lt; V, E &gt; Pages: 1 -->
<svg width="882pt" height="184pt"
 viewBox="0.00 0.00 881.75 184.25" xmlns="http://www.w3.org/2000/svg" xmlns:xlink="http://www.w3.org/1999/xlink">
<g id="graph0" class="graph" transform="scale(1 1) rotate(0) translate(4 180.25)">
<title>yaclib::detail::SharedCore&lt; V, E &gt;</title>
<!-- Node1 -->
<g id="Node000001" class="node">
<title>Node1</title>
<g id="a_Node000001"><a xlink:title=" ">
<polygon fill="#999999" stroke="#666666" points="873.75,-66.88 749.75,-66.88 749.75,-36.38 873.75,-36.38 873.75,-66.88"/>
<text text-anchor="start" x="757.75" y="-53.38" font-family="Helvetica,sans-Serif" font-size="10.00">yaclib::detail::SharedCore</text>
<text text-anchor="middle" x="811.75" y="-42.12" font-family="Helvetica,sans-Serif" font-size="10.00">&lt; V, E &gt;</text>
</a>
</g>
</g>
<!-- Node2 -->
<g id="Node000002" class="node">
<title>Node2</title>
<g id="a_Node000002"><a xlink:href="classyaclib_1_1detail_1_1SharedBaseCore.html" target="_top" xlink:title=" ">
<polygon fill="white" stroke="#666666" points="682.25,-83.25 535.75,-83.25 535.75,-64 682.25,-64 682.25,-83.25"/>
<text text-anchor="middle" x="609" y="-69.75" font-family="Helvetica,sans-Serif" font-size="10.00">yaclib::detail::SharedBaseCore</text>
</a>
</g>
</g>
<!-- Node2&#45;&gt;Node1 -->
<g id="edge1_Node000001_Node000002" class="edge">
<title>Node2&#45;&gt;Node1</title>
<g id="a_edge1_Node000001_Node000002"><a xlink:title=" ">
<path fill="none" stroke="#63b8ff" d="M693.91,-64.43C712.49,-62.39 731.83,-60.27 749.31,-58.36"/>
<polygon fill="#63b8ff" stroke="#63b8ff" points="693.54,-60.95 683.98,-65.52 694.3,-67.91 693.54,-60.95"/>
</a>
</g>
</g>
<!-- Node3 -->
<g id="Node000003" class="node">
<title>Node3</title>
<g id="a_Node000003"><a xlink:href="classyaclib_1_1detail_1_1InlineCore.html" target="_top" xlink:title=" ">
<polygon fill="white" stroke="#666666" points="455.5,-142.25 339,-142.25 339,-123 455.5,-123 455.5,-142.25"/>
<text text-anchor="middle" x="397.25" y="-128.75" font-family="Helvetica,sans-Serif" font-size="10.00">yaclib::detail::InlineCore</text>
</a>
</g>
</g>
<!-- Node3&#45;&gt;Node2 -->
<g id="edge2_Node000002_Node000003" class="edge">
<title>Node3&#45;&gt;Node2</title>
<g id="a_edge2_Node000002_Node000003"><a xlink:title=" ">
<path fill="none" stroke="#63b8ff" d="M447.93,-119.67C469.44,-113.97 494.87,-107.11 517.75,-100.62 536.79,-95.23 557.99,-88.9 575.06,-83.73"/>
<polygon fill="#63b8ff" stroke="#63b8ff" points="447.32,-116.21 438.54,-122.15 449.1,-122.98 447.32,-116.21"/>
</a>
</g>
</g>
<!-- Node4 -->
<g id="Node000004" class="node">
<title>Node4</title>
<g id="a_Node000004"><a xlink:href="classyaclib_1_1Job.html" target="_top" xlink:title="Callable that can be executed in an IExecutor.">
<polygon fill="white" stroke="#666666" points="294.5,-142.25 233.5,-142.25 233.5,-123 294.5,-123 294.5,-142.25"/>
<text text-anchor="middle" x="264" y="-128.75" font-family="Helvetica,sans-Serif" font-size="10.00">yaclib::Job</text>
</a>
</g>
</g>
<!-- Node4&#45;&gt;Node3 -->
<g id="edge3_Node000003_Node000004" class="edge">
<title>Node4&#45;&gt;Node3</title>
<g id="a_edge3_Node000003_Node000004"><a xlink:title=" ">
<path fill="none" stroke="#63b8ff" d="M305.99,-132.62C316.34,-132.62 327.65,-132.62 338.65,-132.62"/>
<polygon fill="#63b8ff" stroke="#63b8ff" points="306.3,-129.13 296.3,-132.63 306.3,-136.13 306.3,-129.13"/>
</a>
</g>
</g>
<!-- Node5 -->
<g id="Node000005" class="node">
<title>Node5</title>
<g id="a_Node000005"><a xlink:href="classyaclib_1_1IFunc.html" target="_top" xlink:title="Callable interface.">
<polygon fill="white" stroke="#666666" points="183.38,-176.25 113.38,-176.25 113.38,-157 183.38,-157 183.38,-176.25"/>
<text text-anchor="middle" x="148.38" y="-162.75" font-family="Helvetica,sans-Serif" font-size="10.00">yaclib::IFunc</text>
</a>
</g>
</g>
<!-- Node5&#45;&gt;Node4 -->
<g id="edge4_Node000004_Node000005" class="edge">
<title>Node5&#45;&gt;Node4</title>
<g id="a_edge4_Node000004_Node000005"><a xlink:title=" ">
<path fill="none" stroke="#63b8ff" d="M193.89,-153.3C207.01,-149.38 221.04,-145.18 233.02,-141.6"/>
<polygon fill="#63b8ff" stroke="#63b8ff" points="193.19,-149.86 184.61,-156.08 195.19,-156.57 193.19,-149.86"/>
</a>
</g>
</g>
<!-- Node6 -->
<g id="Node000006" class="node">
<title>Node6</title>
<g id="a_Node000006"><a xlink:href="classyaclib_1_1IRef.html" target="_top" xlink:title="Reference counting interface.">
<polygon fill="white" stroke="#666666" points="63.25,-176.25 0,-176.25 0,-157 63.25,-157 63.25,-176.25"/>
<text text-anchor="middle" x="31.62" y="-162.75" font-family="Helvetica,sans-Serif" font-size="10.00">yaclib::IRef</text>
</a>
</g>
</g>
<!-- Node6&#45;&gt;Node5 -->
<g id="edge5_Node000005_Node000006" class="edge">
<title>Node6&#45;&gt;Node5</title>
<g id="a_edge5_Node000005_Node000006"><a xlink:title=" ">
<path fill="none" stroke="#63b8ff" d="M74.86,-166.62C87.44,-166.62 101.06,-166.62 113.07,-166.62"/>
<polygon fill="#63b8ff" stroke="#63b8ff" points="75.19,-163.13 65.19,-166.63 75.19,-170.13 75.19,-163.13"/>
</a>
</g>
</g>
<!-- Node7 -->
<g id="Node000007" class="node">
<title>Node7</title>
<g id="a_Node000007"><a xlink:href="structyaclib_1_1detail_1_1Node.html" target="_top" xlink:title="Node class, used in intrusive data structure.">
<polygon fill="white" stroke="#666666" points="196.5,-109.25 100.25,-109.25 100.25,-90 196.5,-90 196.5,-109.25"/>
<text text-anchor="middle" x="148.38" y="-95.75" font-family="Helvetica,sans-Serif" font-size="10.00">yaclib::detail::Node</text>
</a>
</g>
</g>
<!-- Node7&#45;&gt;Node4 -->
<g id="edge6_Node000004_Node000007" class="edge">
<title>Node7&#45;&gt;Node4</title>
<g id="a_edge6_Node000004_Node000007"><a xlink:title=" ">
<path fill="none" stroke="#63b8ff" d="M195.07,-112.9C207.88,-116.62 221.47,-120.56 233.11,-123.94"/>
<polygon fill="#63b8ff" stroke="#63b8ff" points="196.12,-109.56 185.54,-110.13 194.16,-116.28 196.12,-109.56"/>
</a>
</g>
</g>
<!-- Node7&#45;&gt;Node7 -->
<g id="edge7_Node000007_Node000007" class="edge">
<title>Node7&#45;&gt;Node7</title>
<g id="a_edge7_Node000007_Node000007"><a xlink:title=" ">
<path fill="none" stroke="#9a32cd" stroke-dasharray="5,2" d="M136.68,-120.98C138.26,-124.68 142.15,-127.25 148.38,-127.25 160.09,-127.25 163.56,-118.15 158.81,-109.54"/>
<polygon fill="#9a32cd" stroke="#9a32cd" points="140.16,-121.37 137.78,-111.04 133.2,-120.6 140.16,-121.37"/>
</a>
</g>
<text text-anchor="middle" x="148.38" y="-129" font-family="Helvetica,sans-Serif" font-size="10.00" fill="grey"> next</text>
</g>
<!-- Node8 -->
<g id="Node000008" class="node">
<title>Node8</title>
<g id="a_Node000008"><a xlink:title=" ">
<polygon fill="white" stroke="#666666" points="449.88,-105.25 344.62,-105.25 344.62,-86 449.88,-86 449.88,-105.25"/>
<text text-anchor="middle" x="397.25" y="-91.75" font-family="Helvetica,sans-Serif" font-size="10.00">static constexpr auto</text>
</a>
</g>
</g>
<!-- Node8&#45;&gt;Node2 -->
<g id="edge8_Node000002_Node000008" class="edge">
<title>Node8&#45;&gt;Node2</title>
<g id="a_edge8_Node000002_Node000008"><a xlink:title=" ">
<path fill="none" stroke="#9a32cd" stroke-dasharray="5,2" d="M461.53,-88.99C484.87,-86.54 511.48,-83.75 535.56,-81.22"/>
<polygon fill="#9a32cd" stroke="#9a32cd" points="461.45,-85.48 451.87,-90 462.18,-92.44 461.45,-85.48"/>
</a>
</g>
<text text-anchor="middle" x="499.38" y="-87.38" font-family="Helvetica,sans-Serif" font-size="10.00" fill="grey"> kSet</text>
</g>
<!-- Node9 -->
<g id="Node000009" class="node">
<title>Node9</title>
<g id="a_Node000009"><a xlink:title=" ">
<polygon fill="white" stroke="#666666" points="450.25,-67.88 344.25,-67.88 344.25,-37.38 450.25,-37.38 450.25,-67.88"/>
<text text-anchor="start" x="352.25" y="-54.38" font-family="Helvetica,sans-Serif" font-size="10.00">atomic&lt; yaclib::detail</text>
<text text-anchor="middle" x="397.25" y="-43.12" font-family="Helvetica,sans-Serif" font-size="10.00">::InlineCore * &gt;</text>
</a>
</g>
</g>
<!-- Node9&#45;&gt;Node2 -->
<g id="edge9_Node000002_Node000009" class="edge">
<title>Node9&#45;&gt;Node2</title>
<g id="a_edge9_Node000002_Node000009"><a xlink:title=" ">
<path fill="none" stroke="#9a32cd" stroke-dasharray="5,2" d="M461.95,-57.32C480,-58.78 499.66,-60.51 517.75,-62.38 523.56,-62.97 529.58,-63.63 535.62,-64.33"/>
<polygon fill="#9a32cd" stroke="#9a32cd" points="462.4,-53.84 452.16,-56.53 461.85,-60.82 462.4,-53.84"/>
</a>
</g>
<text text-anchor="middle" x="499.38" y="-63.38" font-family="Helvetica,sans-Serif" font-size="10.00" fill="grey"> _head</text>
</g>
<!-- Node10 -->
<g id="Node000010" class="node">
<title>Node10</title>
<g id="a_Node000010"><a xlink:href="classyaclib_1_1Result.html" target="_top" xlink:title=" ">
<polygon fill="white" stroke="#666666" points="662.75,-43.25 555.25,-43.25 555.25,-24 662.75,-24 662.75,-43.25"/>
<text text-anchor="middle" x="609" y="-29.75" font-family="Helvetica,sans-Serif" font-size="10.00">yaclib::Result&lt; V, E &gt;</text>
</a>
</g>
</g>
<!-- Node10&#45;&gt;Node1 -->
<g id="edge10_Node000001_Node000010" class="edge">
<title>Node10&#45;&gt;Node1</title>
<g id="a_edge10_Node000001_Node000010"><a xlink:title=" ">
<path fill="none" stroke="#9a32cd" stroke-dasharray="5,2" d="M674.37,-37.71C692.91,-39.03 713.14,-40.62 731.75,-42.38 737.52,-42.92 743.53,-43.54 749.54,-44.18"/>
<polygon fill="#9a32cd" stroke="#9a32cd" points="674.81,-34.23 664.59,-37.03 674.32,-41.22 674.81,-34.23"/>
</a>
</g>
<text text-anchor="middle" x="716" y="-44.38" font-family="Helvetica,sans-Serif" font-size="10.00" fill="grey"> _result</text>
</g>
<!-- Node11 -->
<g id="Node000011" class="node">
<title>Node11</title>
<g id="a_Node000011"><a xlink:href="classyaclib_1_1Result.html" target="_top" xlink:title="Encapsulated return value from caller.">
<polygon fill="white" stroke="#666666" points="463,-19.25 331.5,-19.25 331.5,0 463,0 463,-19.25"/>
<text text-anchor="middle" x="397.25" y="-5.75" font-family="Helvetica,sans-Serif" font-size="10.00">yaclib::Result&lt; ValueT, E &gt;</text>
</a>
</g>
</g>
<!-- Node11&#45;&gt;Node10 -->
<g id="edge11_Node000010_Node000011" class="edge">
<title>Node11&#45;&gt;Node10</title>
<g id="a_edge11_Node000010_Node000011"><a xlink:title=" ">
<path fill="none" stroke="orange" stroke-dasharray="5,2" d="M474.68,-18.37C501.26,-21.41 530.48,-24.76 554.77,-27.53"/>
<polygon fill="orange" stroke="orange" points="475.3,-14.92 464.97,-17.26 474.51,-21.87 475.3,-14.92"/>
</a>
</g>
<text text-anchor="middle" x="499.38" y="-25.38" font-family="Helvetica,sans-Serif" font-size="10.00" fill="grey"> &lt; V, E &gt;</text>
</g>
</g>
</svg>
