<?xml version="1.0" encoding="UTF-8" standalone="no"?>
<!DOCTYPE svg PUBLIC "-//W3C//DTD SVG 1.1//EN"
 "http://www.w3.org/Graphics/SVG/1.1/DTD/svg11.dtd">
<!-- Generated by graphviz version 3.0.0 (20221109.1736)
 -->
<!-- Title: yaclib::detail::fiber::Fiber&lt; Args &gt; Pages: 1 -->
<!--zoomable 240 -->
<svg id="main" version="1.1" xmlns="http://www.w3.org/2000/svg" xmlns:xlink="http://www.w3.org/1999/xlink" xml:space="preserve" onload="init(evt)">
<style type="text/css"><![CDATA[
.edge:hover path { stroke: red; }
.edge:hover polygon { stroke: red; fill: red; }
]]></style>
<script type="text/javascript"><![CDATA[
var edges = document.getElementsByTagName('g');
if (edges && edges.length) {
  for (var i=0;i<edges.length;i++) {
    if (edges[i].id.substr(0,4)=='edge') {
      edges[i].setAttribute('class','edge');
    }
  }
}
]]></script>
        <defs>
                <circle id="rim" cx="0" cy="0" r="7"/>
                <circle id="rim2" cx="0" cy="0" r="3.5"/>
                <g id="zoomPlus">
                        <use xlink:href="#rim" fill="#404040">
                                <set attributeName="fill" to="#808080" begin="zoomplus.mouseover" end="zoomplus.mouseout"/>
                        </use>
                        <path d="M-4,0h8M0,-4v8" fill="none" stroke="white" stroke-width="1.5" pointer-events="none"/>
                </g>
                <g id="zoomMin">
                        <use xlink:href="#rim" fill="#404040">
                                <set attributeName="fill" to="#808080" begin="zoomminus.mouseover" end="zoomminus.mouseout"/>
                        </use>
                        <path d="M-4,0h8" fill="none" stroke="white" stroke-width="1.5" pointer-events="none"/>
                </g>
                <g id="dirArrow">
                        <path fill="none" stroke="white" stroke-width="1.5" d="M0,-3.0v7 M-2.5,-0.5L0,-3.0L2.5,-0.5"/>
                </g>
               <g id="resetDef">
                       <use xlink:href="#rim2" fill="#404040">
                               <set attributeName="fill" to="#808080" begin="reset.mouseover" end="reset.mouseout"/>
                       </use>
               </g>
        </defs>

<script type="text/javascript">
var viewWidth = 544;
var viewHeight = 240;
var sectionId = 'dynsection-1';
</script>
<script xlink:href="svgpan.js"/>
<svg id="graph" class="graph">
<g id="viewport">
<title>yaclib::detail::fiber::Fiber&lt; Args &gt;</title>
<!-- Node1 -->
<g id="node1" class="node">
<title>Node1</title>
<g id="a_node1"><a xlink:title=" ">
<polygon fill="#bfbfbf" stroke="black" points="444,-88 444,-118 536,-118 536,-88 444,-88"/>
<text text-anchor="start" x="452" y="-106" font-family="Helvetica,sans-Serif" font-size="10.00">yaclib::detail::fiber</text>
<text text-anchor="middle" x="490" y="-95" font-family="Helvetica,sans-Serif" font-size="10.00">::Fiber&lt; Args &gt;</text>
</a>
</g>
</g>
<!-- Node2 -->
<g id="node2" class="node">
<title>Node2</title>
<g id="a_node2"><a xlink:href="classyaclib_1_1detail_1_1fiber_1_1FiberBase.html" target="_top" xlink:title=" ">
<polygon fill="none" stroke="black" points="315,-88 315,-118 407,-118 407,-88 315,-88"/>
<text text-anchor="start" x="323" y="-106" font-family="Helvetica,sans-Serif" font-size="10.00">yaclib::detail::fiber</text>
<text text-anchor="middle" x="361" y="-95" font-family="Helvetica,sans-Serif" font-size="10.00">::FiberBase</text>
</a>
</g>
</g>
<!-- Node2&#45;&gt;Node1 -->
<g id="edge1" class="edge">
<title>Node2&#45;&gt;Node1</title>
<path fill="none" stroke="midnightblue" d="M417.3,-103C426.08,-103 435.07,-103 443.58,-103"/>
<polygon fill="midnightblue" stroke="midnightblue" points="417.13,-99.5 407.13,-103 417.13,-106.5 417.13,-99.5"/>
</g>
<!-- Node3 -->
<g id="node3" class="node">
<title>Node3</title>
<g id="a_node3"><a xlink:href="classyaclib_1_1detail_1_1fiber_1_1BiNodeScheduler.html" target="_top" xlink:title=" ">
<polygon fill="none" stroke="black" points="131,-186 131,-216 228,-216 228,-186 131,-186"/>
<text text-anchor="start" x="139" y="-204" font-family="Helvetica,sans-Serif" font-size="10.00">yaclib::detail::fiber</text>
<text text-anchor="middle" x="179.5" y="-193" font-family="Helvetica,sans-Serif" font-size="10.00">::BiNodeScheduler</text>
</a>
</g>
</g>
<!-- Node3&#45;&gt;Node2 -->
<g id="edge2" class="edge">
<title>Node3&#45;&gt;Node2</title>
<path fill="none" stroke="midnightblue" d="M221.52,-181.32C224.4,-179.88 227.25,-178.43 230,-177 267.12,-157.77 308.97,-133.46 334.92,-118.06"/>
<polygon fill="midnightblue" stroke="midnightblue" points="219.72,-178.31 212.31,-185.88 222.83,-184.58 219.72,-178.31"/>
</g>
<!-- Node4 -->
<g id="node4" class="node">
<title>Node4</title>
<g id="a_node4"><a xlink:href="structyaclib_1_1detail_1_1fiber_1_1Node.html" target="_top" xlink:title=" ">
<polygon fill="none" stroke="black" points="0,-161 0,-191 92,-191 92,-161 0,-161"/>
<text text-anchor="start" x="8" y="-179" font-family="Helvetica,sans-Serif" font-size="10.00">yaclib::detail::fiber</text>
<text text-anchor="middle" x="46" y="-168" font-family="Helvetica,sans-Serif" font-size="10.00">::Node</text>
</a>
</g>
</g>
<!-- Node4&#45;&gt;Node3 -->
<g id="edge3" class="edge">
<title>Node4&#45;&gt;Node3</title>
<path fill="none" stroke="midnightblue" d="M102.09,-186.47C111.67,-188.3 121.56,-190.18 130.92,-191.95"/>
<polygon fill="midnightblue" stroke="midnightblue" points="102.73,-183.03 92.25,-184.6 101.43,-189.91 102.73,-183.03"/>
</g>
<!-- Node4&#45;&gt;Node4 -->
<g id="edge4" class="edge">
<title>Node4&#45;&gt;Node4</title>
<path fill="none" stroke="#9a32cd" stroke-dasharray="5,2" d="M34.63,-201.46C36.04,-206.18 39.83,-209.5 46,-209.5 56.12,-209.5 59.84,-200.56 57.15,-191.16"/>
<polygon fill="#9a32cd" stroke="#9a32cd" points="38.13,-201.23 34.85,-191.16 31.14,-201.08 38.13,-201.23"/>
<text text-anchor="middle" x="46" y="-223.5" font-family="Helvetica,sans-Serif" font-size="10.00"> next</text>
<text text-anchor="middle" x="46" y="-212.5" font-family="Helvetica,sans-Serif" font-size="10.00">prev</text>
</g>
<!-- Node5 -->
<g id="node5" class="node">
<title>Node5</title>
<g id="a_node5"><a xlink:href="classyaclib_1_1detail_1_1fiber_1_1BiNodeWaitQueue.html" target="_top" xlink:title=" ">
<polygon fill="none" stroke="black" points="129,-137 129,-167 230,-167 230,-137 129,-137"/>
<text text-anchor="start" x="137" y="-155" font-family="Helvetica,sans-Serif" font-size="10.00">yaclib::detail::fiber</text>
<text text-anchor="middle" x="179.5" y="-144" font-family="Helvetica,sans-Serif" font-size="10.00">::BiNodeWaitQueue</text>
</a>
</g>
</g>
<!-- Node4&#45;&gt;Node5 -->
<g id="edge6" class="edge">
<title>Node4&#45;&gt;Node5</title>
<path fill="none" stroke="midnightblue" d="M102.35,-165.9C111.08,-164.3 120.06,-162.67 128.66,-161.1"/>
<polygon fill="midnightblue" stroke="midnightblue" points="101.46,-162.5 92.25,-167.74 102.72,-169.39 101.46,-162.5"/>
</g>
<!-- Node5&#45;&gt;Node2 -->
<g id="edge5" class="edge">
<title>Node5&#45;&gt;Node2</title>
<path fill="none" stroke="midnightblue" d="M239.91,-135.78C264.36,-129.11 292.21,-121.5 314.94,-115.3"/>
<polygon fill="midnightblue" stroke="midnightblue" points="238.75,-132.47 230.02,-138.48 240.59,-139.22 238.75,-132.47"/>
</g>
<!-- Node6 -->
<g id="node6" class="node">
<title>Node6</title>
<g id="a_node6"><a xlink:href="classyaclib_1_1detail_1_1fiber_1_1ExecutionContext.html" target="_top" xlink:title=" ">
<polygon fill="none" stroke="black" points="131.5,-88 131.5,-118 227.5,-118 227.5,-88 131.5,-88"/>
<text text-anchor="start" x="139.5" y="-106" font-family="Helvetica,sans-Serif" font-size="10.00">yaclib::detail::fiber</text>
<text text-anchor="middle" x="179.5" y="-95" font-family="Helvetica,sans-Serif" font-size="10.00">::ExecutionContext</text>
</a>
</g>
</g>
<!-- Node6&#45;&gt;Node2 -->
<g id="edge7" class="edge">
<title>Node6&#45;&gt;Node2</title>
<path fill="none" stroke="#9a32cd" stroke-dasharray="5,2" d="M237.7,-103C262.59,-103 291.33,-103 314.7,-103"/>
<polygon fill="#9a32cd" stroke="#9a32cd" points="237.66,-99.5 227.66,-103 237.66,-106.5 237.66,-99.5"/>
<text text-anchor="middle" x="272.5" y="-106" font-family="Helvetica,sans-Serif" font-size="10.00"> _context</text>
</g>
<!-- Node7 -->
<g id="node7" class="node">
<title>Node7</title>
<g id="a_node7"><a xlink:href="classyaclib_1_1detail_1_1fiber_1_1Stack.html" target="_top" xlink:title="Manages stack memory.">
<polygon fill="none" stroke="black" points="133.5,-39 133.5,-69 225.5,-69 225.5,-39 133.5,-39"/>
<text text-anchor="start" x="141.5" y="-57" font-family="Helvetica,sans-Serif" font-size="10.00">yaclib::detail::fiber</text>
<text text-anchor="middle" x="179.5" y="-46" font-family="Helvetica,sans-Serif" font-size="10.00">::Stack</text>
</a>
</g>
</g>
<!-- Node7&#45;&gt;Node2 -->
<g id="edge8" class="edge">
<title>Node7&#45;&gt;Node2</title>
<path fill="none" stroke="#9a32cd" stroke-dasharray="5,2" d="M235.64,-69.05C260.99,-75.97 290.7,-84.08 314.72,-90.64"/>
<polygon fill="#9a32cd" stroke="#9a32cd" points="236.36,-65.62 225.8,-66.36 234.52,-72.37 236.36,-65.62"/>
<text text-anchor="middle" x="272.5" y="-88" font-family="Helvetica,sans-Serif" font-size="10.00"> _stack</text>
</g>
<!-- Node8 -->
<g id="node8" class="node">
<title>Node8</title>
<g id="a_node8"><a xlink:title=" ">
<polygon fill="none" stroke="black" points="142.5,-0.5 142.5,-19.5 216.5,-19.5 216.5,-0.5 142.5,-0.5"/>
<text text-anchor="middle" x="179.5" y="-7.5" font-family="Helvetica,sans-Serif" font-size="10.00">exception_ptr</text>
</a>
</g>
</g>
<!-- Node8&#45;&gt;Node2 -->
<g id="edge9" class="edge">
<title>Node8&#45;&gt;Node2</title>
<path fill="none" stroke="#9a32cd" stroke-dasharray="5,2" d="M219.64,-23.04C242.79,-31.42 272.31,-43.28 297,-57 312.98,-65.88 329.63,-78.19 341.79,-87.84"/>
<polygon fill="#9a32cd" stroke="#9a32cd" points="220.74,-19.72 210.14,-19.67 218.4,-26.31 220.74,-19.72"/>
<text text-anchor="middle" x="272.5" y="-60" font-family="Helvetica,sans-Serif" font-size="10.00"> _exception</text>
</g>
</g>
</svg>
        <g id="navigator" transform="translate(0 0)" fill="#404254">
                <rect fill="#f2f5e9" fill-opacity="0.5" stroke="#606060" stroke-width=".5" x="0" y="0" width="60" height="60"/>
                <use id="zoomplus" xlink:href="#zoomPlus" x="17" y="9" onmousedown="handleZoom(evt,'in')"/>
                <use id="zoomminus" xlink:href="#zoomMin" x="42" y="9" onmousedown="handleZoom(evt,'out')"/>
                <use id="reset" xlink:href="#resetDef" x="30" y="36" onmousedown="handleReset()"/>
                <g id="arrowUp" xlink:href="#dirArrow" transform="translate(30 24)" onmousedown="handlePan(0,-1)">
                  <use xlink:href="#rim" fill="#404040">
                        <set attributeName="fill" to="#808080" begin="arrowUp.mouseover" end="arrowUp.mouseout"/>
                  </use>
                  <path fill="none" stroke="white" stroke-width="1.5" d="M0,-3.0v7 M-2.5,-0.5L0,-3.0L2.5,-0.5"/>
                </g>
                <g id="arrowRight" xlink:href="#dirArrow" transform="rotate(90) translate(36 -43)" onmousedown="handlePan(1,0)">
                  <use xlink:href="#rim" fill="#404040">
                        <set attributeName="fill" to="#808080" begin="arrowRight.mouseover" end="arrowRight.mouseout"/>
                  </use>
                  <path fill="none" stroke="white" stroke-width="1.5" d="M0,-3.0v7 M-2.5,-0.5L0,-3.0L2.5,-0.5"/>
                </g>
                <g id="arrowDown" xlink:href="#dirArrow" transform="rotate(180) translate(-30 -48)" onmousedown="handlePan(0,1)">
                  <use xlink:href="#rim" fill="#404040">
                        <set attributeName="fill" to="#808080" begin="arrowDown.mouseover" end="arrowDown.mouseout"/>
                  </use>
                  <path fill="none" stroke="white" stroke-width="1.5" d="M0,-3.0v7 M-2.5,-0.5L0,-3.0L2.5,-0.5"/>
                </g>
                <g id="arrowLeft" xlink:href="#dirArrow" transform="rotate(270) translate(-36 17)" onmousedown="handlePan(-1,0)">
                  <use xlink:href="#rim" fill="#404040">
                        <set attributeName="fill" to="#808080" begin="arrowLeft.mouseover" end="arrowLeft.mouseout"/>
                  </use>
                  <path fill="none" stroke="white" stroke-width="1.5" d="M0,-3.0v7 M-2.5,-0.5L0,-3.0L2.5,-0.5"/>
                </g>
        </g>
        <svg viewBox="0 0 15 15" width="100%" height="30px" preserveAspectRatio="xMaxYMin meet">
         <g id="arrow_out" transform="scale(0.3 0.3)">
          <a xlink:href="classyaclib_1_1detail_1_1fiber_1_1Fiber__coll__graph_org.svg" target="_base">
           <rect id="button" ry="5" rx="5" y="6" x="6" height="38" width="38"
                fill="#f2f5e9" fill-opacity="0.5" stroke="#606060" stroke-width="1.0"/>
           <path id="arrow"
             d="M 11.500037,31.436501 C 11.940474,20.09759 22.043105,11.32322 32.158766,21.979434 L 37.068811,17.246167 C 37.068811,17.246167 37.088388,32 37.088388,32 L 22.160133,31.978069 C 22.160133,31.978069 26.997745,27.140456 26.997745,27.140456 C 18.528582,18.264221 13.291696,25.230495 11.500037,31.436501 z"
             style="fill:#404040;"/>
          </a>
         </g>
        </svg>
</svg>
