<?xml version="1.0" encoding="UTF-8" standalone="no"?>
<!DOCTYPE svg PUBLIC "-//W3C//DTD SVG 1.1//EN"
 "http://www.w3.org/Graphics/SVG/1.1/DTD/svg11.dtd">
<!-- Generated by graphviz version 3.0.0 (20221109.1736)
 -->
<!-- Title: yaclib::detail::fiber::AtomicFloatingBase&lt; T, true &gt; Pages: 1 -->
<svg width="117pt" height="262pt"
 viewBox="0.00 0.00 117.00 262.00" xmlns="http://www.w3.org/2000/svg" xmlns:xlink="http://www.w3.org/1999/xlink">
<g id="graph0" class="graph" transform="scale(1 1) rotate(0) translate(4 258)">
<title>yaclib::detail::fiber::AtomicFloatingBase&lt; T, true &gt;</title>
<!-- Node1 -->
<g id="node1" class="node">
<title>Node1</title>
<g id="a_node1"><a xlink:title=" ">
<polygon fill="#bfbfbf" stroke="black" points="0,-78.5 0,-119.5 109,-119.5 109,-78.5 0,-78.5"/>
<text text-anchor="start" x="8" y="-107.5" font-family="Helvetica,sans-Serif" font-size="10.00">yaclib::detail::fiber</text>
<text text-anchor="start" x="8" y="-96.5" font-family="Helvetica,sans-Serif" font-size="10.00">::AtomicFloatingBase</text>
<text text-anchor="middle" x="54.5" y="-85.5" font-family="Helvetica,sans-Serif" font-size="10.00">&lt; T, true &gt;</text>
</a>
</g>
</g>
<!-- Node4 -->
<g id="node4" class="node">
<title>Node4</title>
<g id="a_node4"><a xlink:href="classyaclib_1_1detail_1_1fiber_1_1AtomicIntegralBase_3_01T_00_01true_01_4.html" target="_top" xlink:title=" ">
<polygon fill="none" stroke="black" points="1,-0.5 1,-41.5 108,-41.5 108,-0.5 1,-0.5"/>
<text text-anchor="start" x="9" y="-29.5" font-family="Helvetica,sans-Serif" font-size="10.00">yaclib::detail::fiber</text>
<text text-anchor="start" x="9" y="-18.5" font-family="Helvetica,sans-Serif" font-size="10.00">::AtomicIntegralBase</text>
<text text-anchor="middle" x="54.5" y="-7.5" font-family="Helvetica,sans-Serif" font-size="10.00">&lt; T, true &gt;</text>
</a>
</g>
</g>
<!-- Node1&#45;&gt;Node4 -->
<g id="edge3" class="edge">
<title>Node1&#45;&gt;Node4</title>
<path fill="none" stroke="midnightblue" d="M54.5,-68.3C54.5,-59.3 54.5,-49.65 54.5,-41.51"/>
<polygon fill="midnightblue" stroke="midnightblue" points="51,-68.43 54.5,-78.43 58,-68.43 51,-68.43"/>
</g>
<!-- Node2 -->
<g id="node2" class="node">
<title>Node2</title>
<g id="a_node2"><a xlink:href="classyaclib_1_1detail_1_1fiber_1_1AtomicBase.html" target="_top" xlink:title=" ">
<polygon fill="none" stroke="black" points="6,-156.5 6,-186.5 103,-186.5 103,-156.5 6,-156.5"/>
<text text-anchor="start" x="14" y="-174.5" font-family="Helvetica,sans-Serif" font-size="10.00">yaclib::detail::fiber</text>
<text text-anchor="middle" x="54.5" y="-163.5" font-family="Helvetica,sans-Serif" font-size="10.00">::AtomicBase&lt; T &gt;</text>
</a>
</g>
</g>
<!-- Node2&#45;&gt;Node1 -->
<g id="edge1" class="edge">
<title>Node2&#45;&gt;Node1</title>
<path fill="none" stroke="midnightblue" d="M54.5,-145.98C54.5,-137.35 54.5,-127.76 54.5,-119.59"/>
<polygon fill="midnightblue" stroke="midnightblue" points="51,-146.23 54.5,-156.23 58,-146.23 51,-146.23"/>
</g>
<!-- Node3 -->
<g id="node3" class="node">
<title>Node3</title>
<g id="a_node3"><a xlink:href="classyaclib_1_1detail_1_1fiber_1_1AtomicWait.html" target="_top" xlink:title=" ">
<polygon fill="none" stroke="black" points="7.5,-223.5 7.5,-253.5 101.5,-253.5 101.5,-223.5 7.5,-223.5"/>
<text text-anchor="start" x="15.5" y="-241.5" font-family="Helvetica,sans-Serif" font-size="10.00">yaclib::detail::fiber</text>
<text text-anchor="middle" x="54.5" y="-230.5" font-family="Helvetica,sans-Serif" font-size="10.00">::AtomicWait&lt; T &gt;</text>
</a>
</g>
</g>
<!-- Node3&#45;&gt;Node2 -->
<g id="edge2" class="edge">
<title>Node3&#45;&gt;Node2</title>
<path fill="none" stroke="midnightblue" d="M54.5,-213.11C54.5,-204.15 54.5,-194.32 54.5,-186.58"/>
<polygon fill="midnightblue" stroke="midnightblue" points="51,-213.4 54.5,-223.4 58,-213.4 51,-213.4"/>
</g>
</g>
</svg>
