<?xml version="1.0" encoding="UTF-8" standalone="no"?>
<!DOCTYPE svg PUBLIC "-//W3C//DTD SVG 1.1//EN"
 "http://www.w3.org/Graphics/SVG/1.1/DTD/svg11.dtd">
<!-- Generated by graphviz version 9.0.0 (20230911.1827)
 -->
<!-- Title: yaclib::detail::Guard&lt; M, Shared &gt; Pages: 1 -->
<svg width="131pt" height="161pt"
 viewBox="0.00 0.00 130.50 161.25" xmlns="http://www.w3.org/2000/svg" xmlns:xlink="http://www.w3.org/1999/xlink">
<g id="graph0" class="graph" transform="scale(1 1) rotate(0) translate(4 157.25)">
<title>yaclib::detail::Guard&lt; M, Shared &gt;</title>
<!-- Node1 -->
<g id="Node000001" class="node">
<title>Node1</title>
<g id="a_Node000001"><a xlink:title=" ">
<polygon fill="#999999" stroke="#666666" points="110.88,-30.5 11.62,-30.5 11.62,0 110.88,0 110.88,-30.5"/>
<text text-anchor="start" x="19.62" y="-17" font-family="Helvetica,sans-Serif" font-size="10.00">yaclib::detail::Guard</text>
<text text-anchor="middle" x="61.25" y="-5.75" font-family="Helvetica,sans-Serif" font-size="10.00">&lt; M, Shared &gt;</text>
</a>
</g>
</g>
<!-- Node2 -->
<g id="Node000002" class="node">
<title>Node2</title>
<g id="a_Node000002"><a xlink:href="classyaclib_1_1detail_1_1GuardState.html" target="_top" xlink:title=" ">
<polygon fill="white" stroke="#666666" points="122.5,-86.75 0,-86.75 0,-67.5 122.5,-67.5 122.5,-86.75"/>
<text text-anchor="middle" x="61.25" y="-73.25" font-family="Helvetica,sans-Serif" font-size="10.00">yaclib::detail::GuardState</text>
</a>
</g>
</g>
<!-- Node2&#45;&gt;Node1 -->
<g id="edge1_Node000001_Node000002" class="edge">
<title>Node2&#45;&gt;Node1</title>
<g id="a_edge1_Node000001_Node000002"><a xlink:title=" ">
<path fill="none" stroke="darkgreen" d="M61.25,-55.69C61.25,-47.43 61.25,-38.09 61.25,-30.57"/>
<polygon fill="darkgreen" stroke="darkgreen" points="57.75,-55.52 61.25,-65.52 64.75,-55.52 57.75,-55.52"/>
</a>
</g>
</g>
<!-- Node3 -->
<g id="Node000003" class="node">
<title>Node3</title>
<g id="a_Node000003"><a xlink:title=" ">
<polygon fill="white" stroke="#666666" points="86.88,-153.25 35.62,-153.25 35.62,-134 86.88,-134 86.88,-153.25"/>
<text text-anchor="middle" x="61.25" y="-139.75" font-family="Helvetica,sans-Serif" font-size="10.00">uintptr_t</text>
</a>
</g>
</g>
<!-- Node3&#45;&gt;Node2 -->
<g id="edge2_Node000002_Node000003" class="edge">
<title>Node3&#45;&gt;Node2</title>
<g id="a_edge2_Node000002_Node000003"><a xlink:title=" ">
<path fill="none" stroke="#9a32cd" stroke-dasharray="5,2" d="M61.25,-122.15C61.25,-110.32 61.25,-96.04 61.25,-87.02"/>
<polygon fill="#9a32cd" stroke="#9a32cd" points="57.75,-122.14 61.25,-132.14 64.75,-122.14 57.75,-122.14"/>
</a>
</g>
<text text-anchor="middle" x="75.88" y="-106.5" font-family="Helvetica,sans-Serif" font-size="10.00" fill="grey"> _state</text>
</g>
</g>
</svg>
