<?xml version="1.0" encoding="UTF-8" standalone="no"?>
<!DOCTYPE svg PUBLIC "-//W3C//DTD SVG 1.1//EN"
 "http://www.w3.org/Graphics/SVG/1.1/DTD/svg11.dtd">
<!-- Generated by graphviz version 3.0.0 (20220413.0242)
 -->
<!-- Title: yaclib::detail::AllCombinatorBase&lt; V &gt; Pages: 1 -->
<svg width="259pt" height="173pt"
 viewBox="0.00 0.00 258.50 173.00" xmlns="http://www.w3.org/2000/svg" xmlns:xlink="http://www.w3.org/1999/xlink">
<g id="graph0" class="graph" transform="scale(1 1) rotate(0) translate(4 169)">
<title>yaclib::detail::AllCombinatorBase&lt; V &gt;</title>
<!-- Node1 -->
<g id="node1" class="node">
<title>Node1</title>
<g id="a_node1"><a xlink:title=" ">
<polygon fill="#bfbfbf" stroke="black" points="84,-0.5 84,-30.5 218,-30.5 218,-0.5 84,-0.5"/>
<text text-anchor="start" x="92" y="-18.5" font-family="Helvetica,sans-Serif" font-size="10.00">yaclib::detail::AllCombinator</text>
<text text-anchor="middle" x="151" y="-7.5" font-family="Helvetica,sans-Serif" font-size="10.00">Base&lt; V &gt;</text>
</a>
</g>
</g>
<!-- Node2 -->
<g id="node2" class="node">
<title>Node2</title>
<g id="a_node2"><a xlink:title=" ">
<polygon fill="none" stroke="black" points="0,-78.5 0,-97.5 80,-97.5 80,-78.5 0,-78.5"/>
<text text-anchor="middle" x="40" y="-85.5" font-family="Helvetica,sans-Serif" font-size="10.00">atomic&lt; bool &gt;</text>
</a>
</g>
</g>
<!-- Node2&#45;&gt;Node1 -->
<g id="edge1" class="edge">
<title>Node2&#45;&gt;Node1</title>
<path fill="none" stroke="#9a32cd" stroke-dasharray="5,2" d="M62.09,-72.97C81.45,-60.67 109.45,-42.89 128.84,-30.58"/>
<polygon fill="#9a32cd" stroke="#9a32cd" points="60.18,-70.04 53.61,-78.36 63.93,-75.95 60.18,-70.04"/>
<text text-anchor="middle" x="113.5" y="-52" font-family="Helvetica,sans-Serif" font-size="10.00"> _done</text>
</g>
<!-- Node3 -->
<g id="node3" class="node">
<title>Node3</title>
<g id="a_node3"><a xlink:title=" ">
<polygon fill="none" stroke="black" points="72,-145.5 72,-164.5 118,-164.5 118,-145.5 72,-145.5"/>
<text text-anchor="middle" x="95" y="-152.5" font-family="Helvetica,sans-Serif" font-size="10.00">atomic</text>
</a>
</g>
</g>
<!-- Node3&#45;&gt;Node2 -->
<g id="edge2" class="edge">
<title>Node3&#45;&gt;Node2</title>
<path fill="none" stroke="orange" stroke-dasharray="5,2" d="M80.84,-137.27C70.12,-124.6 55.82,-107.7 47.3,-97.63"/>
<polygon fill="orange" stroke="orange" points="78.45,-139.86 87.58,-145.23 83.79,-135.34 78.45,-139.86"/>
<text text-anchor="middle" x="89.5" y="-119" font-family="Helvetica,sans-Serif" font-size="10.00"> &lt; bool &gt;</text>
</g>
<!-- Node4 -->
<g id="node4" class="node">
<title>Node4</title>
<g id="a_node4"><a xlink:title=" ">
<polygon fill="none" stroke="black" points="98,-78.5 98,-97.5 204,-97.5 204,-78.5 98,-78.5"/>
<text text-anchor="middle" x="151" y="-85.5" font-family="Helvetica,sans-Serif" font-size="10.00">atomic&lt; std::size_t &gt;</text>
</a>
</g>
</g>
<!-- Node3&#45;&gt;Node4 -->
<g id="edge4" class="edge">
<title>Node3&#45;&gt;Node4</title>
<path fill="none" stroke="orange" stroke-dasharray="5,2" d="M109.1,-137.63C120.05,-124.92 134.8,-107.8 143.57,-97.63"/>
<polygon fill="orange" stroke="orange" points="106.43,-135.37 102.55,-145.23 111.73,-139.94 106.43,-135.37"/>
<text text-anchor="middle" x="158.5" y="-119" font-family="Helvetica,sans-Serif" font-size="10.00"> &lt; std::size_t &gt;</text>
</g>
<!-- Node4&#45;&gt;Node1 -->
<g id="edge3" class="edge">
<title>Node4&#45;&gt;Node1</title>
<path fill="none" stroke="#9a32cd" stroke-dasharray="5,2" d="M151,-68.24C151,-56.41 151,-41.38 151,-30.58"/>
<polygon fill="#9a32cd" stroke="#9a32cd" points="147.5,-68.36 151,-78.36 154.5,-68.36 147.5,-68.36"/>
<text text-anchor="middle" x="167" y="-52" font-family="Helvetica,sans-Serif" font-size="10.00"> _ticket</text>
</g>
<!-- Node5 -->
<g id="node5" class="node">
<title>Node5</title>
<g id="a_node5"><a xlink:title=" ">
<polygon fill="none" stroke="black" points="221.5,-78.5 221.5,-97.5 250.5,-97.5 250.5,-78.5 221.5,-78.5"/>
<text text-anchor="middle" x="236" y="-85.5" font-family="Helvetica,sans-Serif" font-size="10.00">V</text>
</a>
</g>
</g>
<!-- Node5&#45;&gt;Node1 -->
<g id="edge5" class="edge">
<title>Node5&#45;&gt;Node1</title>
<path fill="none" stroke="#9a32cd" stroke-dasharray="5,2" d="M217.65,-71.78C202.91,-59.55 182.34,-42.5 167.97,-30.58"/>
<polygon fill="#9a32cd" stroke="#9a32cd" points="215.65,-74.67 225.58,-78.36 220.11,-69.28 215.65,-74.67"/>
<text text-anchor="middle" x="219.5" y="-52" font-family="Helvetica,sans-Serif" font-size="10.00"> _results</text>
</g>
</g>
</svg>
