<?xml version="1.0" encoding="UTF-8" standalone="no"?>
<!DOCTYPE svg PUBLIC "-//W3C//DTD SVG 1.1//EN"
 "http://www.w3.org/Graphics/SVG/1.1/DTD/svg11.dtd">
<!-- Generated by graphviz version 9.0.0 (20230911.1827)
 -->
<!-- Title: yaclib::IFunc Pages: 1 -->
<svg width="1222pt" height="441pt"
 viewBox="0.00 0.00 1222.00 440.60" xmlns="http://www.w3.org/2000/svg" xmlns:xlink="http://www.w3.org/1999/xlink">
<g id="graph0" class="graph" transform="scale(1 1) rotate(0) translate(4 436.6)">
<title>yaclib::IFunc</title>
<!-- Node1 -->
<g id="Node000001" class="node">
<title>Node1</title>
<g id="a_Node000001"><a xlink:title="Callable interface.">
<polygon fill="#999999" stroke="#666666" points="170.25,-244.88 100.25,-244.88 100.25,-225.62 170.25,-225.62 170.25,-244.88"/>
<text text-anchor="middle" x="135.25" y="-231.38" font-family="Helvetica,sans-Serif" font-size="10.00">yaclib::IFunc</text>
</a>
</g>
</g>
<!-- Node3 -->
<g id="Node000003" class="node">
<title>Node3</title>
<g id="a_Node000003"><a xlink:href="classyaclib_1_1Job.html" target="_top" xlink:title="Callable that can be executed in an IExecutor.">
<polygon fill="white" stroke="#666666" points="300.5,-275.88 239.5,-275.88 239.5,-256.62 300.5,-256.62 300.5,-275.88"/>
<text text-anchor="middle" x="270" y="-262.38" font-family="Helvetica,sans-Serif" font-size="10.00">yaclib::Job</text>
</a>
</g>
</g>
<!-- Node1&#45;&gt;Node3 -->
<g id="edge2_Node000001_Node000003" class="edge">
<title>Node1&#45;&gt;Node3</title>
<g id="a_edge2_Node000001_Node000003"><a xlink:title=" ">
<path fill="none" stroke="#63b8ff" d="M181.63,-245.85C200.75,-250.31 222.45,-255.38 239.44,-259.35"/>
<polygon fill="#63b8ff" stroke="#63b8ff" points="182.44,-242.44 171.91,-243.58 180.85,-249.26 182.44,-242.44"/>
</a>
</g>
</g>
<!-- Node25 -->
<g id="Node000025" class="node">
<title>Node25</title>
<g id="a_Node000025"><a xlink:href="classyaclib_1_1detail_1_1SharedFunc.html" target="_top" xlink:title=" ">
<polygon fill="white" stroke="#666666" points="332.75,-238.5 207.25,-238.5 207.25,-208 332.75,-208 332.75,-238.5"/>
<text text-anchor="start" x="215.25" y="-225" font-family="Helvetica,sans-Serif" font-size="10.00">yaclib::detail::SharedFunc</text>
<text text-anchor="middle" x="270" y="-213.75" font-family="Helvetica,sans-Serif" font-size="10.00">&lt; Func &gt;</text>
</a>
</g>
</g>
<!-- Node1&#45;&gt;Node25 -->
<g id="edge25_Node000001_Node000025" class="edge">
<title>Node1&#45;&gt;Node25</title>
<g id="a_edge25_Node000001_Node000025"><a xlink:title=" ">
<path fill="none" stroke="#63b8ff" d="M181.85,-231.13C189.91,-230.4 198.42,-229.63 206.84,-228.87"/>
<polygon fill="#63b8ff" stroke="#63b8ff" points="181.59,-227.64 171.94,-232.02 182.22,-234.61 181.59,-227.64"/>
</a>
</g>
</g>
<!-- Node2 -->
<g id="Node000002" class="node">
<title>Node2</title>
<g id="a_Node000002"><a xlink:href="classyaclib_1_1IRef.html" target="_top" xlink:title="Reference counting interface.">
<polygon fill="white" stroke="#666666" points="63.25,-244.88 0,-244.88 0,-225.62 63.25,-225.62 63.25,-244.88"/>
<text text-anchor="middle" x="31.62" y="-231.38" font-family="Helvetica,sans-Serif" font-size="10.00">yaclib::IRef</text>
</a>
</g>
</g>
<!-- Node2&#45;&gt;Node1 -->
<g id="edge1_Node000001_Node000002" class="edge">
<title>Node2&#45;&gt;Node1</title>
<g id="a_edge1_Node000001_Node000002"><a xlink:title=" ">
<path fill="none" stroke="#63b8ff" d="M75.05,-235.25C83.32,-235.25 91.89,-235.25 99.85,-235.25"/>
<polygon fill="#63b8ff" stroke="#63b8ff" points="75.18,-231.75 65.18,-235.25 75.18,-238.75 75.18,-231.75"/>
</a>
</g>
</g>
<!-- Node4 -->
<g id="Node000004" class="node">
<title>Node4</title>
<g id="a_Node000004"><a xlink:href="structyaclib_1_1OneShotEvent_1_1TimedWaiter.html" target="_top" xlink:title="Public only because Waiter is public.">
<polygon fill="white" stroke="#666666" points="483.62,-373.5 375.38,-373.5 375.38,-343 483.62,-343 483.62,-373.5"/>
<text text-anchor="start" x="383.38" y="-360" font-family="Helvetica,sans-Serif" font-size="10.00">yaclib::OneShotEvent</text>
<text text-anchor="middle" x="429.5" y="-348.75" font-family="Helvetica,sans-Serif" font-size="10.00">::TimedWaiter</text>
</a>
</g>
</g>
<!-- Node3&#45;&gt;Node4 -->
<g id="edge3_Node000003_Node000004" class="edge">
<title>Node3&#45;&gt;Node4</title>
<g id="a_edge3_Node000003_Node000004"><a xlink:title=" ">
<path fill="none" stroke="#63b8ff" d="M292.86,-282.9C312.37,-297.31 342.05,-318.15 369.75,-333.25 375.78,-336.54 382.34,-339.7 388.81,-342.61"/>
<polygon fill="#63b8ff" stroke="#63b8ff" points="295.22,-280.29 285.11,-277.11 291.03,-285.9 295.22,-280.29"/>
</a>
</g>
</g>
<!-- Node5 -->
<g id="Node000005" class="node">
<title>Node5</title>
<g id="a_Node000005"><a xlink:href="structyaclib_1_1OneShotEvent_1_1Waiter.html" target="_top" xlink:title="Waiter is public for advanced users.">
<polygon fill="white" stroke="#666666" points="483.62,-324.5 375.38,-324.5 375.38,-294 483.62,-294 483.62,-324.5"/>
<text text-anchor="start" x="383.38" y="-311" font-family="Helvetica,sans-Serif" font-size="10.00">yaclib::OneShotEvent</text>
<text text-anchor="middle" x="429.5" y="-299.75" font-family="Helvetica,sans-Serif" font-size="10.00">::Waiter</text>
</a>
</g>
</g>
<!-- Node3&#45;&gt;Node5 -->
<g id="edge4_Node000003_Node000005" class="edge">
<title>Node3&#45;&gt;Node5</title>
<g id="a_edge4_Node000003_Node000005"><a xlink:title=" ">
<path fill="none" stroke="#63b8ff" d="M311.83,-277.4C331.11,-282.66 354.36,-289.01 375.02,-294.65"/>
<polygon fill="#63b8ff" stroke="#63b8ff" points="313.02,-274.1 302.46,-274.84 311.18,-280.85 313.02,-274.1"/>
</a>
</g>
</g>
<!-- Node6 -->
<g id="Node000006" class="node">
<title>Node6</title>
<g id="a_Node000006"><a xlink:href="classyaclib_1_1Strand.html" target="_top" xlink:title=" ">
<polygon fill="white" stroke="#666666" points="466.38,-275.88 392.62,-275.88 392.62,-256.62 466.38,-256.62 466.38,-275.88"/>
<text text-anchor="middle" x="429.5" y="-262.38" font-family="Helvetica,sans-Serif" font-size="10.00">yaclib::Strand</text>
</a>
</g>
</g>
<!-- Node3&#45;&gt;Node6 -->
<g id="edge5_Node000003_Node000006" class="edge">
<title>Node3&#45;&gt;Node6</title>
<g id="a_edge5_Node000003_Node000006"><a xlink:title=" ">
<path fill="none" stroke="#8b1a1a" d="M312.25,-266.25C337.07,-266.25 368.39,-266.25 392.26,-266.25"/>
<polygon fill="#8b1a1a" stroke="#8b1a1a" points="312.51,-262.75 302.51,-266.25 312.51,-269.75 312.51,-262.75"/>
</a>
</g>
</g>
<!-- Node7 -->
<g id="Node000007" class="node">
<title>Node7</title>
<g id="a_Node000007"><a xlink:href="classyaclib_1_1detail_1_1InlineCore.html" target="_top" xlink:title=" ">
<polygon fill="white" stroke="#666666" points="487.75,-238.88 371.25,-238.88 371.25,-219.62 487.75,-219.62 487.75,-238.88"/>
<text text-anchor="middle" x="429.5" y="-225.38" font-family="Helvetica,sans-Serif" font-size="10.00">yaclib::detail::InlineCore</text>
</a>
</g>
</g>
<!-- Node3&#45;&gt;Node7 -->
<g id="edge6_Node000003_Node000007" class="edge">
<title>Node3&#45;&gt;Node7</title>
<g id="a_edge6_Node000003_Node000007"><a xlink:title=" ">
<path fill="none" stroke="#63b8ff" d="M311.94,-256.63C334.54,-251.32 362.6,-244.73 385.52,-239.35"/>
<polygon fill="#63b8ff" stroke="#63b8ff" points="311.4,-253.16 302.47,-258.86 313,-259.98 311.4,-253.16"/>
</a>
</g>
</g>
<!-- Node24 -->
<g id="Node000024" class="node">
<title>Node24</title>
<g id="a_Node000024"><a xlink:href="classyaclib_1_1detail_1_1UniqueJob.html" target="_top" xlink:title=" ">
<polygon fill="white" stroke="#666666" points="489.25,-201.5 369.75,-201.5 369.75,-171 489.25,-171 489.25,-201.5"/>
<text text-anchor="start" x="377.75" y="-188" font-family="Helvetica,sans-Serif" font-size="10.00">yaclib::detail::UniqueJob</text>
<text text-anchor="middle" x="429.5" y="-176.75" font-family="Helvetica,sans-Serif" font-size="10.00">&lt; Func &gt;</text>
</a>
</g>
</g>
<!-- Node3&#45;&gt;Node24 -->
<g id="edge24_Node000003_Node000024" class="edge">
<title>Node3&#45;&gt;Node24</title>
<g id="a_edge24_Node000003_Node000024"><a xlink:title=" ">
<path fill="none" stroke="#63b8ff" d="M311.72,-256.82C319,-254.28 326.31,-251.13 332.75,-247.25 352.67,-235.25 350.38,-223.12 369.75,-210.25 374.34,-207.2 379.37,-204.43 384.51,-201.94"/>
<polygon fill="#63b8ff" stroke="#63b8ff" points="310.78,-253.45 302.27,-259.76 312.86,-260.13 310.78,-253.45"/>
</a>
</g>
</g>
<!-- Node8 -->
<g id="Node000008" class="node">
<title>Node8</title>
<g id="a_Node000008"><a xlink:href="classyaclib_1_1detail_1_1AwaitOnEvent.html" target="_top" xlink:title=" ">
<polygon fill="white" stroke="#666666" points="876.25,-222.5 741,-222.5 741,-192 876.25,-192 876.25,-222.5"/>
<text text-anchor="start" x="749" y="-209" font-family="Helvetica,sans-Serif" font-size="10.00">yaclib::detail::AwaitOnEvent</text>
<text text-anchor="middle" x="808.62" y="-197.75" font-family="Helvetica,sans-Serif" font-size="10.00">&lt; false &gt;</text>
</a>
</g>
</g>
<!-- Node7&#45;&gt;Node8 -->
<g id="edge7_Node000007_Node000008" class="edge">
<title>Node7&#45;&gt;Node8</title>
<g id="a_edge7_Node000007_Node000008"><a xlink:title=" ">
<path fill="none" stroke="#63b8ff" d="M488.11,-246.08C488.5,-246.46 488.88,-246.85 489.25,-247.25 514.14,-273.94 497.69,-384.54 526.25,-407.25 574.6,-445.7 610.34,-435.56 665.25,-407.25 743.1,-367.11 787.71,-262.54 802.28,-222.84"/>
<polygon fill="#63b8ff" stroke="#63b8ff" points="490.23,-243.3 480.12,-240.15 486.06,-248.92 490.23,-243.3"/>
</a>
</g>
</g>
<!-- Node10 -->
<g id="Node000010" class="node">
<title>Node10</title>
<g id="a_Node000010"><a xlink:href="classyaclib_1_1detail_1_1AllCombinator.html" target="_top" xlink:title=" ">
<polygon fill="white" stroke="#666666" points="662.62,-398.5 528.88,-398.5 528.88,-368 662.62,-368 662.62,-398.5"/>
<text text-anchor="start" x="536.88" y="-385" font-family="Helvetica,sans-Serif" font-size="10.00">yaclib::detail::AllCombinator</text>
<text text-anchor="middle" x="595.75" y="-373.75" font-family="Helvetica,sans-Serif" font-size="10.00">&lt; O, R, E &gt;</text>
</a>
</g>
</g>
<!-- Node7&#45;&gt;Node10 -->
<g id="edge9_Node000007_Node000010" class="edge">
<title>Node7&#45;&gt;Node10</title>
<g id="a_edge9_Node000007_Node000010"><a xlink:title=" ">
<path fill="none" stroke="#63b8ff" d="M487.35,-245.51C488,-246.07 488.63,-246.65 489.25,-247.25 507.86,-265.41 508.13,-339.61 526.25,-358.25 529.78,-361.88 533.88,-364.99 538.28,-367.64"/>
<polygon fill="#63b8ff" stroke="#63b8ff" points="489.53,-242.75 479.27,-240.09 485.62,-248.57 489.53,-242.75"/>
</a>
</g>
</g>
<!-- Node11 -->
<g id="Node000011" class="node">
<title>Node11</title>
<g id="a_Node000011"><a xlink:href="classyaclib_1_1detail_1_1AllCombinator_3_01OrderPolicy_1_1Same_00_01R_00_01E_01_4.html" target="_top" xlink:title=" ">
<polygon fill="white" stroke="#666666" points="663.75,-349.5 527.75,-349.5 527.75,-319 663.75,-319 663.75,-349.5"/>
<text text-anchor="start" x="535.75" y="-336" font-family="Helvetica,sans-Serif" font-size="10.00">yaclib::detail::AllCombinator</text>
<text text-anchor="middle" x="595.75" y="-324.75" font-family="Helvetica,sans-Serif" font-size="10.00">&lt; OrderPolicy::Same, R, E &gt;</text>
</a>
</g>
</g>
<!-- Node7&#45;&gt;Node11 -->
<g id="edge10_Node000007_Node000011" class="edge">
<title>Node7&#45;&gt;Node11</title>
<g id="a_edge10_Node000007_Node000011"><a xlink:title=" ">
<path fill="none" stroke="#63b8ff" d="M485.73,-244.71C486.94,-245.52 488.12,-246.36 489.25,-247.25 514.5,-267.05 501.53,-288.79 526.25,-309.25 530.54,-312.8 535.38,-315.87 540.45,-318.52"/>
<polygon fill="#63b8ff" stroke="#63b8ff" points="487.63,-241.77 477.18,-240.06 484.28,-247.91 487.63,-241.77"/>
</a>
</g>
</g>
<!-- Node12 -->
<g id="Node000012" class="node">
<title>Node12</title>
<g id="a_Node000012"><a xlink:href="classyaclib_1_1detail_1_1AnyCombinator.html" target="_top" xlink:title=" ">
<polygon fill="white" stroke="#666666" points="665.25,-300.5 526.25,-300.5 526.25,-270 665.25,-270 665.25,-300.5"/>
<text text-anchor="start" x="534.25" y="-287" font-family="Helvetica,sans-Serif" font-size="10.00">yaclib::detail::AnyCombinator</text>
<text text-anchor="middle" x="595.75" y="-275.75" font-family="Helvetica,sans-Serif" font-size="10.00">&lt; V, E, P &gt;</text>
</a>
</g>
</g>
<!-- Node7&#45;&gt;Node12 -->
<g id="edge11_Node000007_Node000012" class="edge">
<title>Node7&#45;&gt;Node12</title>
<g id="a_edge11_Node000007_Node000012"><a xlink:title=" ">
<path fill="none" stroke="#63b8ff" d="M475.54,-242.73C480.19,-244.21 484.82,-245.74 489.25,-247.25 505.89,-252.94 509.73,-255.23 526.25,-261.25 533.71,-263.97 541.65,-266.8 549.37,-269.53"/>
<polygon fill="#63b8ff" stroke="#63b8ff" points="476.83,-239.46 466.24,-239.8 474.73,-246.14 476.83,-239.46"/>
</a>
</g>
</g>
<!-- Node13 -->
<g id="Node000013" class="node">
<title>Node13</title>
<g id="a_Node000013"><a xlink:href="classyaclib_1_1detail_1_1AwaitEvent.html" target="_top" xlink:title=" ">
<polygon fill="white" stroke="#666666" points="657,-251.88 534.5,-251.88 534.5,-232.62 657,-232.62 657,-251.88"/>
<text text-anchor="middle" x="595.75" y="-238.38" font-family="Helvetica,sans-Serif" font-size="10.00">yaclib::detail::AwaitEvent</text>
</a>
</g>
</g>
<!-- Node7&#45;&gt;Node13 -->
<g id="edge12_Node000007_Node000013" class="edge">
<title>Node7&#45;&gt;Node13</title>
<g id="a_edge12_Node000007_Node000013"><a xlink:title=" ">
<path fill="none" stroke="#63b8ff" d="M499.38,-234.7C510.96,-235.62 522.91,-236.56 534.27,-237.46"/>
<polygon fill="#63b8ff" stroke="#63b8ff" points="499.7,-231.22 489.46,-233.92 499.15,-238.19 499.7,-231.22"/>
</a>
</g>
</g>
<!-- Node14 -->
<g id="Node000014" class="node">
<title>Node14</title>
<g id="a_Node000014"><a xlink:href="classyaclib_1_1detail_1_1AwaitOnEvent.html" target="_top" xlink:title=" ">
<polygon fill="white" stroke="#666666" points="663.38,-214.5 528.12,-214.5 528.12,-184 663.38,-184 663.38,-214.5"/>
<text text-anchor="start" x="536.12" y="-201" font-family="Helvetica,sans-Serif" font-size="10.00">yaclib::detail::AwaitOnEvent</text>
<text text-anchor="middle" x="595.75" y="-189.75" font-family="Helvetica,sans-Serif" font-size="10.00">&lt; Single &gt;</text>
</a>
</g>
</g>
<!-- Node7&#45;&gt;Node14 -->
<g id="edge13_Node000007_Node000014" class="edge">
<title>Node7&#45;&gt;Node14</title>
<g id="a_edge13_Node000007_Node000014"><a xlink:title=" ">
<path fill="none" stroke="#63b8ff" d="M496.95,-217.11C507.11,-215.26 517.6,-213.34 527.77,-211.48"/>
<polygon fill="#63b8ff" stroke="#63b8ff" points="496.35,-213.67 487.14,-218.91 497.6,-220.55 496.35,-213.67"/>
</a>
</g>
</g>
<!-- Node15 -->
<g id="Node000015" class="node">
<title>Node15</title>
<g id="a_Node000015"><a xlink:href="classyaclib_1_1detail_1_1BaseCore.html" target="_top" xlink:title=" ">
<polygon fill="white" stroke="#666666" points="653.62,-165.88 537.88,-165.88 537.88,-146.62 653.62,-146.62 653.62,-165.88"/>
<text text-anchor="middle" x="595.75" y="-152.38" font-family="Helvetica,sans-Serif" font-size="10.00">yaclib::detail::BaseCore</text>
</a>
</g>
</g>
<!-- Node7&#45;&gt;Node15 -->
<g id="edge15_Node000007_Node000015" class="edge">
<title>Node7&#45;&gt;Node15</title>
<g id="a_edge15_Node000007_Node000015"><a xlink:title=" ">
<path fill="none" stroke="#63b8ff" d="M480.41,-214.87C483.47,-213.45 486.44,-211.92 489.25,-210.25 508.72,-198.71 506.54,-186.38 526.25,-175.25 532.59,-171.67 539.65,-168.73 546.75,-166.33"/>
<polygon fill="#63b8ff" stroke="#63b8ff" points="479.12,-211.62 471.2,-218.66 481.78,-218.09 479.12,-211.62"/>
</a>
</g>
</g>
<!-- Node21 -->
<g id="Node000021" class="node">
<title>Node21</title>
<g id="a_Node000021"><a xlink:href="structyaclib_1_1detail_1_1CallCallback.html" target="_top" xlink:title=" ">
<polygon fill="white" stroke="#666666" points="659.25,-128.5 532.25,-128.5 532.25,-98 659.25,-98 659.25,-128.5"/>
<text text-anchor="start" x="540.25" y="-115" font-family="Helvetica,sans-Serif" font-size="10.00">yaclib::detail::CallCallback</text>
<text text-anchor="middle" x="595.75" y="-103.75" font-family="Helvetica,sans-Serif" font-size="10.00">&lt; Derived &gt;</text>
</a>
</g>
</g>
<!-- Node7&#45;&gt;Node21 -->
<g id="edge21_Node000007_Node000021" class="edge">
<title>Node7&#45;&gt;Node21</title>
<g id="a_edge21_Node000007_Node000021"><a xlink:title=" ">
<path fill="none" stroke="#63b8ff" d="M484.65,-213.75C486.25,-212.66 487.79,-211.49 489.25,-210.25 516.9,-186.62 498.89,-161.22 526.25,-137.25 529.85,-134.09 533.89,-131.35 538.17,-128.96"/>
<polygon fill="#63b8ff" stroke="#63b8ff" points="483.25,-210.52 476.21,-218.45 486.65,-216.64 483.25,-210.52"/>
</a>
</g>
</g>
<!-- Node22 -->
<g id="Node000022" class="node">
<title>Node22</title>
<g id="a_Node000022"><a xlink:href="structyaclib_1_1detail_1_1DropCallback.html" target="_top" xlink:title=" ">
<polygon fill="white" stroke="#666666" points="661.12,-79.5 530.38,-79.5 530.38,-49 661.12,-49 661.12,-79.5"/>
<text text-anchor="start" x="538.38" y="-66" font-family="Helvetica,sans-Serif" font-size="10.00">yaclib::detail::DropCallback</text>
<text text-anchor="middle" x="595.75" y="-54.75" font-family="Helvetica,sans-Serif" font-size="10.00">&lt; Derived &gt;</text>
</a>
</g>
</g>
<!-- Node7&#45;&gt;Node22 -->
<g id="edge22_Node000007_Node000022" class="edge">
<title>Node7&#45;&gt;Node22</title>
<g id="a_edge22_Node000007_Node000022"><a xlink:title=" ">
<path fill="none" stroke="#63b8ff" d="M486.04,-213.18C487.16,-212.26 488.23,-211.28 489.25,-210.25 508.97,-190.21 506.9,-109.65 526.25,-89.25 529.65,-85.67 533.6,-82.6 537.86,-79.96"/>
<polygon fill="#63b8ff" stroke="#63b8ff" points="484.43,-210.06 477.95,-218.44 488.24,-215.93 484.43,-210.06"/>
</a>
</g>
</g>
<!-- Node23 -->
<g id="Node000023" class="node">
<title>Node23</title>
<g id="a_Node000023"><a xlink:href="structyaclib_1_1detail_1_1EventHelperCallback.html" target="_top" xlink:title=" ">
<polygon fill="white" stroke="#666666" points="658.88,-30.5 532.62,-30.5 532.62,0 658.88,0 658.88,-30.5"/>
<text text-anchor="start" x="540.62" y="-17" font-family="Helvetica,sans-Serif" font-size="10.00">yaclib::detail::EventHelper</text>
<text text-anchor="middle" x="595.75" y="-5.75" font-family="Helvetica,sans-Serif" font-size="10.00">Callback&lt; Event &gt;</text>
</a>
</g>
</g>
<!-- Node7&#45;&gt;Node23 -->
<g id="edge23_Node000007_Node000023" class="edge">
<title>Node7&#45;&gt;Node23</title>
<g id="a_edge23_Node000007_Node000023"><a xlink:title=" ">
<path fill="none" stroke="#63b8ff" d="M486.64,-212.86C487.55,-212.03 488.42,-211.16 489.25,-210.25 515.21,-181.6 500.83,-69.38 526.25,-40.25 529.41,-36.63 533.15,-33.53 537.21,-30.88"/>
<polygon fill="#63b8ff" stroke="#63b8ff" points="484.96,-209.76 478.8,-218.38 488.99,-215.49 484.96,-209.76"/>
</a>
</g>
</g>
<!-- Node9 -->
<g id="Node000009" class="node">
<title>Node9</title>
<g id="a_Node000009"><a xlink:href="structyaclib_1_1detail_1_1AwaitOnAwaiter.html" target="_top" xlink:title=" ">
<polygon fill="white" stroke="#666666" points="1056.75,-222.5 913.25,-222.5 913.25,-192 1056.75,-192 1056.75,-222.5"/>
<text text-anchor="start" x="921.25" y="-209" font-family="Helvetica,sans-Serif" font-size="10.00">yaclib::detail::AwaitOnAwaiter</text>
<text text-anchor="middle" x="985" y="-197.75" font-family="Helvetica,sans-Serif" font-size="10.00">&lt; Handle &gt;</text>
</a>
</g>
</g>
<!-- Node8&#45;&gt;Node9 -->
<g id="edge8_Node000008_Node000009" class="edge">
<title>Node8&#45;&gt;Node9</title>
<g id="a_edge8_Node000008_Node000009"><a xlink:title=" ">
<path fill="none" stroke="#63b8ff" d="M887.84,-207.25C896.19,-207.25 904.65,-207.25 912.92,-207.25"/>
<polygon fill="#63b8ff" stroke="#63b8ff" points="888.06,-203.75 878.06,-207.25 888.06,-210.75 888.06,-203.75"/>
</a>
</g>
</g>
<!-- Node14&#45;&gt;Node8 -->
<g id="edge14_Node000014_Node000008" class="edge">
<title>Node14&#45;&gt;Node8</title>
<g id="a_edge14_Node000014_Node000008"><a xlink:title=" ">
<path fill="none" stroke="orange" stroke-dasharray="5,2" d="M675.21,-202.23C696.77,-203.04 719.95,-203.92 740.79,-204.71"/>
<polygon fill="orange" stroke="orange" points="675.4,-198.73 665.27,-201.85 675.13,-205.73 675.4,-198.73"/>
</a>
</g>
<text text-anchor="middle" x="703.12" y="-206" font-family="Helvetica,sans-Serif" font-size="10.00" fill="grey"> &lt; false &gt;</text>
</g>
<!-- Node16 -->
<g id="Node000016" class="node">
<title>Node16</title>
<g id="a_Node000016"><a xlink:href="classyaclib_1_1detail_1_1NoResultCore.html" target="_top" xlink:title=" ">
<polygon fill="white" stroke="#666666" points="875.5,-170.88 741.75,-170.88 741.75,-151.62 875.5,-151.62 875.5,-170.88"/>
<text text-anchor="middle" x="808.62" y="-157.38" font-family="Helvetica,sans-Serif" font-size="10.00">yaclib::detail::NoResultCore</text>
</a>
</g>
</g>
<!-- Node15&#45;&gt;Node16 -->
<g id="edge16_Node000015_Node000016" class="edge">
<title>Node15&#45;&gt;Node16</title>
<g id="a_edge16_Node000015_Node000016"><a xlink:title=" ">
<path fill="none" stroke="#63b8ff" d="M665.42,-157.88C689.8,-158.46 717.17,-159.11 741.34,-159.68"/>
<polygon fill="#63b8ff" stroke="#63b8ff" points="665.69,-154.38 655.61,-157.65 665.52,-161.38 665.69,-154.38"/>
</a>
</g>
</g>
<!-- Node17 -->
<g id="Node000017" class="node">
<title>Node17</title>
<g id="a_Node000017"><a xlink:href="classyaclib_1_1detail_1_1ResultCore.html" target="_top" xlink:title=" ">
<polygon fill="white" stroke="#666666" points="869.12,-133.5 748.12,-133.5 748.12,-103 869.12,-103 869.12,-133.5"/>
<text text-anchor="start" x="756.12" y="-120" font-family="Helvetica,sans-Serif" font-size="10.00">yaclib::detail::ResultCore</text>
<text text-anchor="middle" x="808.62" y="-108.75" font-family="Helvetica,sans-Serif" font-size="10.00">&lt; V, E &gt;</text>
</a>
</g>
</g>
<!-- Node15&#45;&gt;Node17 -->
<g id="edge17_Node000015_Node000017" class="edge">
<title>Node15&#45;&gt;Node17</title>
<g id="a_edge17_Node000015_Node000017"><a xlink:title=" ">
<path fill="none" stroke="#63b8ff" d="M663.97,-144.14C690.86,-139.29 721.59,-133.75 747.71,-129.05"/>
<polygon fill="#63b8ff" stroke="#63b8ff" points="663.42,-140.68 654.2,-145.9 664.66,-147.57 663.42,-140.68"/>
</a>
</g>
</g>
<!-- Node18 -->
<g id="Node000018" class="node">
<title>Node18</title>
<g id="a_Node000018"><a xlink:href="classyaclib_1_1detail_1_1SharedCore.html" target="_top" xlink:title=" ">
<polygon fill="white" stroke="#666666" points="1047,-163.5 923,-163.5 923,-133 1047,-133 1047,-163.5"/>
<text text-anchor="start" x="931" y="-150" font-family="Helvetica,sans-Serif" font-size="10.00">yaclib::detail::SharedCore</text>
<text text-anchor="middle" x="985" y="-138.75" font-family="Helvetica,sans-Serif" font-size="10.00">&lt; V, E &gt;</text>
</a>
</g>
</g>
<!-- Node17&#45;&gt;Node18 -->
<g id="edge18_Node000017_Node000018" class="edge">
<title>Node17&#45;&gt;Node18</title>
<g id="a_edge18_Node000017_Node000018"><a xlink:title=" ">
<path fill="none" stroke="#63b8ff" d="M880.26,-130.4C894.31,-132.82 908.96,-135.34 922.67,-137.7"/>
<polygon fill="#63b8ff" stroke="#63b8ff" points="881.09,-126.99 870.64,-128.75 879.9,-133.89 881.09,-126.99"/>
</a>
</g>
</g>
<!-- Node19 -->
<g id="Node000019" class="node">
<title>Node19</title>
<g id="a_Node000019"><a xlink:href="classyaclib_1_1detail_1_1UniqueCore.html" target="_top" xlink:title=" ">
<polygon fill="white" stroke="#666666" points="1047,-114.5 923,-114.5 923,-84 1047,-84 1047,-114.5"/>
<text text-anchor="start" x="931" y="-101" font-family="Helvetica,sans-Serif" font-size="10.00">yaclib::detail::UniqueCore</text>
<text text-anchor="middle" x="985" y="-89.75" font-family="Helvetica,sans-Serif" font-size="10.00">&lt; V, E &gt;</text>
</a>
</g>
</g>
<!-- Node17&#45;&gt;Node19 -->
<g id="edge19_Node000017_Node000019" class="edge">
<title>Node17&#45;&gt;Node19</title>
<g id="a_edge19_Node000017_Node000019"><a xlink:title=" ">
<path fill="none" stroke="#63b8ff" d="M880.26,-110.55C894.31,-109.02 908.96,-107.43 922.67,-105.93"/>
<polygon fill="#63b8ff" stroke="#63b8ff" points="880.21,-107.04 870.65,-111.6 880.97,-114 880.21,-107.04"/>
</a>
</g>
</g>
<!-- Node20 -->
<g id="Node000020" class="node">
<title>Node20</title>
<g id="a_Node000020"><a xlink:href="classyaclib_1_1detail_1_1ReadyCore.html" target="_top" xlink:title=" ">
<polygon fill="white" stroke="#666666" points="1214,-114.5 1093.75,-114.5 1093.75,-84 1214,-84 1214,-114.5"/>
<text text-anchor="start" x="1101.75" y="-101" font-family="Helvetica,sans-Serif" font-size="10.00">yaclib::detail::ReadyCore</text>
<text text-anchor="middle" x="1153.88" y="-89.75" font-family="Helvetica,sans-Serif" font-size="10.00">&lt; V, E &gt;</text>
</a>
</g>
</g>
<!-- Node19&#45;&gt;Node20 -->
<g id="edge20_Node000019_Node000020" class="edge">
<title>Node19&#45;&gt;Node20</title>
<g id="a_edge20_Node000019_Node000020"><a xlink:title=" ">
<path fill="none" stroke="#63b8ff" d="M1058.65,-99.25C1070.25,-99.25 1082.12,-99.25 1093.36,-99.25"/>
<polygon fill="#63b8ff" stroke="#63b8ff" points="1058.7,-95.75 1048.7,-99.25 1058.7,-102.75 1058.7,-95.75"/>
</a>
</g>
</g>
</g>
</svg>
