<?xml version="1.0" encoding="UTF-8" standalone="no"?>
<!DOCTYPE svg PUBLIC "-//W3C//DTD SVG 1.1//EN"
 "http://www.w3.org/Graphics/SVG/1.1/DTD/svg11.dtd">
<!-- Generated by graphviz version 3.0.0 (20221109.1736)
 -->
<!-- Title: yaclib::detail::AllCombinator&lt; O, R, E &gt; Pages: 1 -->
<svg width="404pt" height="319pt"
 viewBox="0.00 0.00 403.50 319.00" xmlns="http://www.w3.org/2000/svg" xmlns:xlink="http://www.w3.org/1999/xlink">
<g id="graph0" class="graph" transform="scale(1 1) rotate(0) translate(4 315)">
<title>yaclib::detail::AllCombinator&lt; O, R, E &gt;</title>
<!-- Node1 -->
<g id="node1" class="node">
<title>Node1</title>
<g id="a_node1"><a xlink:title=" ">
<polygon fill="#bfbfbf" stroke="black" points="93.5,-0.5 93.5,-30.5 227.5,-30.5 227.5,-0.5 93.5,-0.5"/>
<text text-anchor="start" x="101.5" y="-18.5" font-family="Helvetica,sans-Serif" font-size="10.00">yaclib::detail::AllCombinator</text>
<text text-anchor="middle" x="160.5" y="-7.5" font-family="Helvetica,sans-Serif" font-size="10.00">&lt; O, R, E &gt;</text>
</a>
</g>
</g>
<!-- Node2 -->
<g id="node2" class="node">
<title>Node2</title>
<g id="a_node2"><a xlink:href="classyaclib_1_1detail_1_1InlineCore.html" target="_top" xlink:title=" ">
<polygon fill="none" stroke="black" points="31,-74 31,-93 148,-93 148,-74 31,-74"/>
<text text-anchor="middle" x="89.5" y="-81" font-family="Helvetica,sans-Serif" font-size="10.00">yaclib::detail::InlineCore</text>
</a>
</g>
</g>
<!-- Node2&#45;&gt;Node1 -->
<g id="edge1" class="edge">
<title>Node2&#45;&gt;Node1</title>
<path fill="none" stroke="midnightblue" d="M106.24,-66.94C118.06,-55.95 133.77,-41.35 145.24,-30.68"/>
<polygon fill="midnightblue" stroke="midnightblue" points="103.72,-64.5 98.78,-73.87 108.49,-69.63 103.72,-64.5"/>
</g>
<!-- Node3 -->
<g id="node3" class="node">
<title>Node3</title>
<g id="a_node3"><a xlink:href="classyaclib_1_1Job.html" target="_top" xlink:title="Callable that can be executed in an IExecutor.">
<polygon fill="none" stroke="black" points="58.5,-152 58.5,-171 120.5,-171 120.5,-152 58.5,-152"/>
<text text-anchor="middle" x="89.5" y="-159" font-family="Helvetica,sans-Serif" font-size="10.00">yaclib::Job</text>
</a>
</g>
</g>
<!-- Node3&#45;&gt;Node2 -->
<g id="edge2" class="edge">
<title>Node3&#45;&gt;Node2</title>
<path fill="none" stroke="midnightblue" d="M89.5,-141.72C89.5,-126.2 89.5,-104.86 89.5,-93.12"/>
<polygon fill="midnightblue" stroke="midnightblue" points="86,-141.78 89.5,-151.78 93,-141.78 86,-141.78"/>
</g>
<!-- Node4 -->
<g id="node4" class="node">
<title>Node4</title>
<g id="a_node4"><a xlink:href="classyaclib_1_1IFunc.html" target="_top" xlink:title="Callable interface.">
<polygon fill="none" stroke="black" points="0,-224.5 0,-243.5 71,-243.5 71,-224.5 0,-224.5"/>
<text text-anchor="middle" x="35.5" y="-231.5" font-family="Helvetica,sans-Serif" font-size="10.00">yaclib::IFunc</text>
</a>
</g>
</g>
<!-- Node4&#45;&gt;Node3 -->
<g id="edge3" class="edge">
<title>Node4&#45;&gt;Node3</title>
<path fill="none" stroke="midnightblue" d="M48.22,-216.4C59.06,-202.24 74.21,-182.46 82.82,-171.22"/>
<polygon fill="midnightblue" stroke="midnightblue" points="45.42,-214.29 42.12,-224.36 50.98,-218.54 45.42,-214.29"/>
</g>
<!-- Node5 -->
<g id="node5" class="node">
<title>Node5</title>
<g id="a_node5"><a xlink:href="classyaclib_1_1IRef.html" target="_top" xlink:title="Reference counting interface.">
<polygon fill="none" stroke="black" points="3.5,-291.5 3.5,-310.5 67.5,-310.5 67.5,-291.5 3.5,-291.5"/>
<text text-anchor="middle" x="35.5" y="-298.5" font-family="Helvetica,sans-Serif" font-size="10.00">yaclib::IRef</text>
</a>
</g>
</g>
<!-- Node5&#45;&gt;Node4 -->
<g id="edge4" class="edge">
<title>Node5&#45;&gt;Node4</title>
<path fill="none" stroke="midnightblue" d="M35.5,-281.04C35.5,-268.67 35.5,-253.12 35.5,-243.63"/>
<polygon fill="midnightblue" stroke="midnightblue" points="32,-281.23 35.5,-291.23 39,-281.23 32,-281.23"/>
</g>
<!-- Node6 -->
<g id="node6" class="node">
<title>Node6</title>
<g id="a_node6"><a xlink:href="structyaclib_1_1detail_1_1Node.html" target="_top" xlink:title="Node class, used in intrusive data structure.">
<polygon fill="none" stroke="black" points="89,-224.5 89,-243.5 186,-243.5 186,-224.5 89,-224.5"/>
<text text-anchor="middle" x="137.5" y="-231.5" font-family="Helvetica,sans-Serif" font-size="10.00">yaclib::detail::Node</text>
</a>
</g>
</g>
<!-- Node6&#45;&gt;Node3 -->
<g id="edge5" class="edge">
<title>Node6&#45;&gt;Node3</title>
<path fill="none" stroke="midnightblue" d="M125.92,-216C116.31,-201.87 103.02,-182.35 95.43,-171.22"/>
<polygon fill="midnightblue" stroke="midnightblue" points="123.09,-218.06 131.61,-224.36 128.88,-214.12 123.09,-218.06"/>
</g>
<!-- Node6&#45;&gt;Node6 -->
<g id="edge6" class="edge">
<title>Node6&#45;&gt;Node6</title>
<path fill="none" stroke="#9a32cd" stroke-dasharray="5,2" d="M196.38,-238.58C201.09,-237.58 204,-236.05 204,-234 204,-230.72 196.54,-228.78 186.21,-228.19"/>
<polygon fill="#9a32cd" stroke="#9a32cd" points="195.72,-235.13 186.21,-239.81 196.56,-242.08 195.72,-235.13"/>
<text text-anchor="middle" x="214.5" y="-231.5" font-family="Helvetica,sans-Serif" font-size="10.00"> next</text>
</g>
<!-- Node7 -->
<g id="node7" class="node">
<title>Node7</title>
<g id="a_node7"><a xlink:href="structyaclib_1_1detail_1_1AllCombinatorBase.html" target="_top" xlink:title=" ">
<polygon fill="none" stroke="black" points="166.5,-68.5 166.5,-98.5 300.5,-98.5 300.5,-68.5 166.5,-68.5"/>
<text text-anchor="start" x="174.5" y="-86.5" font-family="Helvetica,sans-Serif" font-size="10.00">yaclib::detail::AllCombinator</text>
<text text-anchor="middle" x="233.5" y="-75.5" font-family="Helvetica,sans-Serif" font-size="10.00">Base&lt; O, R &gt;</text>
</a>
</g>
</g>
<!-- Node7&#45;&gt;Node1 -->
<g id="edge7" class="edge">
<title>Node7&#45;&gt;Node1</title>
<path fill="none" stroke="darkgreen" d="M209.97,-61.23C198.87,-51.19 185.92,-39.48 176.06,-30.57"/>
<polygon fill="darkgreen" stroke="darkgreen" points="207.9,-64.07 217.66,-68.18 212.59,-58.88 207.9,-64.07"/>
</g>
<!-- Node8 -->
<g id="node8" class="node">
<title>Node8</title>
<g id="a_node8"><a xlink:title=" ">
<polygon fill="none" stroke="black" points="263.5,-224.5 263.5,-243.5 343.5,-243.5 343.5,-224.5 263.5,-224.5"/>
<text text-anchor="middle" x="303.5" y="-231.5" font-family="Helvetica,sans-Serif" font-size="10.00">atomic&lt; bool &gt;</text>
</a>
</g>
</g>
<!-- Node8&#45;&gt;Node7 -->
<g id="edge8" class="edge">
<title>Node8&#45;&gt;Node7</title>
<path fill="none" stroke="#9a32cd" stroke-dasharray="5,2" d="M271.81,-219.85C254.13,-210.67 233.67,-196.54 223.5,-177 210.37,-151.78 220.02,-117.52 227.33,-98.57"/>
<polygon fill="#9a32cd" stroke="#9a32cd" points="270.74,-223.22 281.26,-224.44 273.8,-216.92 270.74,-223.22"/>
<text text-anchor="middle" x="238" y="-159" font-family="Helvetica,sans-Serif" font-size="10.00"> _done</text>
</g>
<!-- Node10 -->
<g id="node10" class="node">
<title>Node10</title>
<g id="a_node10"><a xlink:href="structyaclib_1_1detail_1_1AllCombinatorBase.html" target="_top" xlink:title=" ">
<polygon fill="none" stroke="black" points="261.5,-146.5 261.5,-176.5 395.5,-176.5 395.5,-146.5 261.5,-146.5"/>
<text text-anchor="start" x="269.5" y="-164.5" font-family="Helvetica,sans-Serif" font-size="10.00">yaclib::detail::AllCombinator</text>
<text text-anchor="middle" x="328.5" y="-153.5" font-family="Helvetica,sans-Serif" font-size="10.00">Base&lt; O, V &gt;</text>
</a>
</g>
</g>
<!-- Node8&#45;&gt;Node10 -->
<g id="edge11" class="edge">
<title>Node8&#45;&gt;Node10</title>
<path fill="none" stroke="#9a32cd" stroke-dasharray="5,2" d="M310.02,-214.6C314.24,-202.72 319.64,-187.49 323.51,-176.58"/>
<polygon fill="#9a32cd" stroke="#9a32cd" points="306.61,-213.76 306.57,-224.36 313.21,-216.1 306.61,-213.76"/>
<text text-anchor="middle" x="331" y="-198" font-family="Helvetica,sans-Serif" font-size="10.00"> _done</text>
</g>
<!-- Node9 -->
<g id="node9" class="node">
<title>Node9</title>
<g id="a_node9"><a xlink:title=" ">
<polygon fill="none" stroke="black" points="280.5,-291.5 280.5,-310.5 326.5,-310.5 326.5,-291.5 280.5,-291.5"/>
<text text-anchor="middle" x="303.5" y="-298.5" font-family="Helvetica,sans-Serif" font-size="10.00">atomic</text>
</a>
</g>
</g>
<!-- Node9&#45;&gt;Node8 -->
<g id="edge9" class="edge">
<title>Node9&#45;&gt;Node8</title>
<path fill="none" stroke="orange" stroke-dasharray="5,2" d="M303.5,-281.04C303.5,-268.67 303.5,-253.12 303.5,-243.63"/>
<polygon fill="orange" stroke="orange" points="300,-281.23 303.5,-291.23 307,-281.23 300,-281.23"/>
<text text-anchor="middle" x="322" y="-265" font-family="Helvetica,sans-Serif" font-size="10.00"> &lt; bool &gt;</text>
</g>
<!-- Node10&#45;&gt;Node7 -->
<g id="edge10" class="edge">
<title>Node10&#45;&gt;Node7</title>
<path fill="none" stroke="orange" stroke-dasharray="5,2" d="M302.57,-139.75C286.29,-126.73 265.73,-110.28 251.29,-98.73"/>
<polygon fill="orange" stroke="orange" points="300.64,-142.69 310.63,-146.2 305.01,-137.22 300.64,-142.69"/>
<text text-anchor="middle" x="307" y="-120" font-family="Helvetica,sans-Serif" font-size="10.00"> &lt; O, R &gt;</text>
</g>
</g>
</svg>
