<?xml version="1.0" encoding="UTF-8" standalone="no"?>
<!DOCTYPE svg PUBLIC "-//W3C//DTD SVG 1.1//EN"
 "http://www.w3.org/Graphics/SVG/1.1/DTD/svg11.dtd">
<!-- Generated by graphviz version 9.0.0 (20230911.1827)
 -->
<!-- Title: yaclib::detail::PromiseType&lt; V, E, Lazy &gt; Pages: 1 -->
<!--zoomable 197 -->

<svg id="main" version="1.1" xmlns="http://www.w3.org/2000/svg" xmlns:xlink="http://www.w3.org/1999/xlink" xml:space="preserve" onload="init(evt)">
<style type="text/css"><![CDATA[
.node, .edge {opacity: 0.7;}
.node.selected, .edge.selected {opacity: 1;}
.edge:hover path { stroke: red; }
.edge:hover polygon { stroke: red; fill: red; }
]]></style>

<defs>
  <circle id="rim" cx="0" cy="0" r="7"/>
  <circle id="rim2" cx="0" cy="0" r="3.5"/>
  <g id="zoomPlus">
    <use xlink:href="#rim" fill="#404040"><set attributeName="fill" to="#808080" begin="zoomplus.mouseover" end="zoomplus.mouseout"/></use>
    <path d="M-4,0h8M0,-4v8" fill="none" stroke="white" stroke-width="1.5" pointer-events="none"/>
  </g>
  <g id="zoomMin">
    <use xlink:href="#rim" fill="#404040"><set attributeName="fill" to="#808080" begin="zoomminus.mouseover" end="zoomminus.mouseout"/></use>
    <path d="M-4,0h8" fill="none" stroke="white" stroke-width="1.5" pointer-events="none"/>
  </g>
  <g id="arrowUp" transform="translate(30 24)">
    <use xlink:href="#rim"/>
    <path pointer-events="none" fill="none" stroke="white" stroke-width="1.5" d="M0,-3.0v7 M-2.5,-0.5L0,-3.0L2.5,-0.5"/>
  </g>
  <g id="arrowRight" transform="rotate(90) translate(36 -43)">
    <use xlink:href="#rim"/>
    <path pointer-events="none" fill="none" stroke="white" stroke-width="1.5" d="M0,-3.0v7 M-2.5,-0.5L0,-3.0L2.5,-0.5"/>
  </g>
  <g id="arrowDown" transform="rotate(180) translate(-30 -48)">
    <use xlink:href="#rim"/>
    <path pointer-events="none" fill="none" stroke="white" stroke-width="1.5" d="M0,-3.0v7 M-2.5,-0.5L0,-3.0L2.5,-0.5"/>
  </g>
  <g id="arrowLeft" transform="rotate(270) translate(-36 17)">
    <use xlink:href="#rim"/>
    <path pointer-events="none" fill="none" stroke="white" stroke-width="1.5" d="M0,-3.0v7 M-2.5,-0.5L0,-3.0L2.5,-0.5"/>
  </g>
  <g id="resetDef">
    <use xlink:href="#rim2" fill="#404040"><set attributeName="fill" to="#808080" begin="reset.mouseover" end="reset.mouseout"/></use>
  </g>
</defs>
<script type="application/ecmascript">
var viewWidth = 1687;
var viewHeight = 197;
var sectionId = 'dynsection-1';
</script>
<script type="application/ecmascript" xlink:href="svg.min.js"/>
<svg id="graph" class="graph">
<g id="viewport">
<title>yaclib::detail::PromiseType&lt; V, E, Lazy &gt;</title>
<!-- Node1 -->
<g id="Node000001" class="node">
<title>Node1</title>
<g id="a_Node000001"><a xlink:title=" ">
<polygon fill="#999999" stroke="#666666" points="1678.5,-55.88 1548.5,-55.88 1548.5,-25.38 1678.5,-25.38 1678.5,-55.88"/>
<text text-anchor="start" x="1556.5" y="-42.38" font-family="Helvetica,sans-Serif" font-size="10.00">yaclib::detail::PromiseType</text>
<text text-anchor="middle" x="1613.5" y="-31.12" font-family="Helvetica,sans-Serif" font-size="10.00">&lt; V, E, Lazy &gt;</text>
</a>
</g>
</g>
<!-- Node2 -->
<g id="Node000002" class="node">
<title>Node2</title>
<g id="a_Node000002"><a xlink:href="structyaclib_1_1detail_1_1OneCounter.html" target="_top" xlink:title=" ">
<polygon fill="white" stroke="#666666" points="1511.5,-61.5 1339.5,-61.5 1339.5,-19.75 1511.5,-19.75 1511.5,-61.5"/>
<text text-anchor="start" x="1347.5" y="-48" font-family="Helvetica,sans-Serif" font-size="10.00">yaclib::detail::OneCounter</text>
<text text-anchor="start" x="1347.5" y="-36.75" font-family="Helvetica,sans-Serif" font-size="10.00">&lt; UniqueCore&lt; V, E &gt;, PromiseType</text>
<text text-anchor="middle" x="1425.5" y="-25.5" font-family="Helvetica,sans-Serif" font-size="10.00">Deleter&lt; Lazy &gt; &gt;</text>
</a>
</g>
</g>
<!-- Node2&#45;&gt;Node1 -->
<g id="edge1_Node000001_Node000002" class="edge">
<title>Node2&#45;&gt;Node1</title>
<g id="a_edge1_Node000001_Node000002"><a xlink:title=" ">
<path fill="none" stroke="#63b8ff" d="M1523.36,-40.62C1531.79,-40.62 1540.17,-40.62 1548.23,-40.62"/>
<polygon fill="#63b8ff" stroke="#63b8ff" points="1523.39,-37.13 1513.39,-40.63 1523.39,-44.13 1523.39,-37.13"/>
</a>
</g>
</g>
<!-- Node3 -->
<g id="Node000003" class="node">
<title>Node3</title>
<g id="a_Node000003"><a xlink:href="classyaclib_1_1detail_1_1UniqueCore.html" target="_top" xlink:title=" ">
<polygon fill="white" stroke="#666666" points="1201.88,-80.88 1077.88,-80.88 1077.88,-50.38 1201.88,-50.38 1201.88,-80.88"/>
<text text-anchor="start" x="1085.88" y="-67.38" font-family="Helvetica,sans-Serif" font-size="10.00">yaclib::detail::UniqueCore</text>
<text text-anchor="middle" x="1139.88" y="-56.12" font-family="Helvetica,sans-Serif" font-size="10.00">&lt; V, E &gt;</text>
</a>
</g>
</g>
<!-- Node3&#45;&gt;Node2 -->
<g id="edge2_Node000002_Node000003" class="edge">
<title>Node3&#45;&gt;Node2</title>
<g id="a_edge2_Node000002_Node000003"><a xlink:title=" ">
<path fill="none" stroke="#63b8ff" d="M1213.72,-60.46C1246.66,-58 1286.06,-54.89 1321.5,-51.62 1327.23,-51.1 1333.14,-50.53 1339.09,-49.94"/>
<polygon fill="#63b8ff" stroke="#63b8ff" points="1213.58,-56.96 1203.87,-61.19 1214.1,-63.94 1213.58,-56.96"/>
</a>
</g>
</g>
<!-- Node4 -->
<g id="Node000004" class="node">
<title>Node4</title>
<g id="a_Node000004"><a xlink:href="classyaclib_1_1detail_1_1ResultCore.html" target="_top" xlink:title=" ">
<polygon fill="white" stroke="#666666" points="1040.5,-80.88 919.5,-80.88 919.5,-50.38 1040.5,-50.38 1040.5,-80.88"/>
<text text-anchor="start" x="927.5" y="-67.38" font-family="Helvetica,sans-Serif" font-size="10.00">yaclib::detail::ResultCore</text>
<text text-anchor="middle" x="980" y="-56.12" font-family="Helvetica,sans-Serif" font-size="10.00">&lt; V, E &gt;</text>
</a>
</g>
</g>
<!-- Node4&#45;&gt;Node3 -->
<g id="edge3_Node000003_Node000004" class="edge">
<title>Node4&#45;&gt;Node3</title>
<g id="a_edge3_Node000003_Node000004"><a xlink:title=" ">
<path fill="none" stroke="#63b8ff" d="M1052.13,-65.62C1060.61,-65.62 1069.21,-65.62 1077.53,-65.62"/>
<polygon fill="#63b8ff" stroke="#63b8ff" points="1052.2,-62.13 1042.2,-65.63 1052.2,-69.13 1052.2,-62.13"/>
</a>
</g>
</g>
<!-- Node5 -->
<g id="Node000005" class="node">
<title>Node5</title>
<g id="a_Node000005"><a xlink:href="classyaclib_1_1detail_1_1BaseCore.html" target="_top" xlink:title=" ">
<polygon fill="white" stroke="#666666" points="852,-93.25 736.25,-93.25 736.25,-74 852,-74 852,-93.25"/>
<text text-anchor="middle" x="794.12" y="-79.75" font-family="Helvetica,sans-Serif" font-size="10.00">yaclib::detail::BaseCore</text>
</a>
</g>
</g>
<!-- Node5&#45;&gt;Node4 -->
<g id="edge4_Node000004_Node000005" class="edge">
<title>Node5&#45;&gt;Node4</title>
<g id="a_edge4_Node000004_Node000005"><a xlink:title=" ">
<path fill="none" stroke="#63b8ff" d="M863.71,-76.91C881.87,-75.13 901.33,-73.23 919,-71.5"/>
<polygon fill="#63b8ff" stroke="#63b8ff" points="863.41,-73.42 853.8,-77.88 864.1,-80.39 863.41,-73.42"/>
</a>
</g>
</g>
<!-- Node6 -->
<g id="Node000006" class="node">
<title>Node6</title>
<g id="a_Node000006"><a xlink:href="classyaclib_1_1detail_1_1InlineCore.html" target="_top" xlink:title=" ">
<polygon fill="white" stroke="#666666" points="648.5,-56.25 532,-56.25 532,-37 648.5,-37 648.5,-56.25"/>
<text text-anchor="middle" x="590.25" y="-42.75" font-family="Helvetica,sans-Serif" font-size="10.00">yaclib::detail::InlineCore</text>
</a>
</g>
</g>
<!-- Node6&#45;&gt;Node5 -->
<g id="edge5_Node000005_Node000006" class="edge">
<title>Node6&#45;&gt;Node5</title>
<g id="a_edge5_Node000005_Node000006"><a xlink:title=" ">
<path fill="none" stroke="#63b8ff" d="M657.71,-58.81C683.73,-63.57 713.22,-68.98 738.03,-73.53"/>
<polygon fill="#63b8ff" stroke="#63b8ff" points="658.37,-55.37 647.9,-57.01 657.11,-62.25 658.37,-55.37"/>
</a>
</g>
</g>
<!-- Node7 -->
<g id="Node000007" class="node">
<title>Node7</title>
<g id="a_Node000007"><a xlink:href="classyaclib_1_1Job.html" target="_top" xlink:title="Callable that can be executed in an IExecutor.">
<polygon fill="white" stroke="#666666" points="388,-56.25 327,-56.25 327,-37 388,-37 388,-56.25"/>
<text text-anchor="middle" x="357.5" y="-42.75" font-family="Helvetica,sans-Serif" font-size="10.00">yaclib::Job</text>
</a>
</g>
</g>
<!-- Node7&#45;&gt;Node6 -->
<g id="edge6_Node000006_Node000007" class="edge">
<title>Node7&#45;&gt;Node6</title>
<g id="a_edge6_Node000006_Node000007"><a xlink:title=" ">
<path fill="none" stroke="#63b8ff" d="M399.48,-46.62C436.27,-46.62 490.66,-46.62 531.79,-46.62"/>
<polygon fill="#63b8ff" stroke="#63b8ff" points="399.71,-43.13 389.71,-46.63 399.71,-50.13 399.71,-43.13"/>
</a>
</g>
</g>
<!-- Node8 -->
<g id="Node000008" class="node">
<title>Node8</title>
<g id="a_Node000008"><a xlink:href="classyaclib_1_1IFunc.html" target="_top" xlink:title="Callable interface.">
<polygon fill="white" stroke="#666666" points="241.25,-56.25 171.25,-56.25 171.25,-37 241.25,-37 241.25,-56.25"/>
<text text-anchor="middle" x="206.25" y="-42.75" font-family="Helvetica,sans-Serif" font-size="10.00">yaclib::IFunc</text>
</a>
</g>
</g>
<!-- Node8&#45;&gt;Node7 -->
<g id="edge7_Node000007_Node000008" class="edge">
<title>Node8&#45;&gt;Node7</title>
<g id="a_edge7_Node000007_Node000008"><a xlink:title=" ">
<path fill="none" stroke="#63b8ff" d="M252.88,-46.62C276.96,-46.62 305.82,-46.62 326.95,-46.62"/>
<polygon fill="#63b8ff" stroke="#63b8ff" points="253,-43.13 243,-46.63 253,-50.13 253,-43.13"/>
</a>
</g>
</g>
<!-- Node9 -->
<g id="Node000009" class="node">
<title>Node9</title>
<g id="a_Node000009"><a xlink:href="classyaclib_1_1IRef.html" target="_top" xlink:title="Reference counting interface.">
<polygon fill="white" stroke="#666666" points="63.25,-121.25 0,-121.25 0,-102 63.25,-102 63.25,-121.25"/>
<text text-anchor="middle" x="31.62" y="-107.75" font-family="Helvetica,sans-Serif" font-size="10.00">yaclib::IRef</text>
</a>
</g>
</g>
<!-- Node9&#45;&gt;Node8 -->
<g id="edge8_Node000008_Node000009" class="edge">
<title>Node9&#45;&gt;Node8</title>
<g id="a_edge8_Node000008_Node000009"><a xlink:title=" ">
<path fill="none" stroke="#63b8ff" d="M66.99,-97.37C90.51,-87.77 122.48,-75.01 151,-64.62 158.37,-61.94 166.35,-59.2 173.87,-56.69"/>
<polygon fill="#63b8ff" stroke="#63b8ff" points="65.83,-94.07 57.9,-101.1 68.48,-100.54 65.83,-94.07"/>
</a>
</g>
</g>
<!-- Node17 -->
<g id="Node000017" class="node">
<title>Node17</title>
<g id="a_Node000017"><a xlink:href="structyaclib_1_1detail_1_1Callback.html" target="_top" xlink:title=" ">
<polygon fill="white" stroke="#666666" points="261.5,-173.25 151,-173.25 151,-154 261.5,-154 261.5,-173.25"/>
<text text-anchor="middle" x="206.25" y="-159.75" font-family="Helvetica,sans-Serif" font-size="10.00">yaclib::detail::Callback</text>
</a>
</g>
</g>
<!-- Node9&#45;&gt;Node17 -->
<g id="edge18_Node000017_Node000009" class="edge">
<title>Node9&#45;&gt;Node17</title>
<g id="a_edge18_Node000017_Node000009"><a xlink:title=" ">
<path fill="none" stroke="#9a32cd" stroke-dasharray="5,2" d="M74.41,-124.21C104.26,-133.2 143.91,-145.15 171.71,-153.52"/>
<polygon fill="#9a32cd" stroke="#9a32cd" points="75.52,-120.89 64.94,-121.36 73.5,-127.59 75.52,-120.89"/>
</a>
</g>
<text text-anchor="middle" x="107.12" y="-142.38" font-family="Helvetica,sans-Serif" font-size="10.00" fill="grey"> caller</text>
</g>
<!-- Node10 -->
<g id="Node000010" class="node">
<title>Node10</title>
<g id="a_Node000010"><a xlink:href="structyaclib_1_1detail_1_1Node.html" target="_top" xlink:title="Node class, used in intrusive data structure.">
<polygon fill="white" stroke="#666666" points="254.38,-93.25 158.12,-93.25 158.12,-74 254.38,-74 254.38,-93.25"/>
<text text-anchor="middle" x="206.25" y="-79.75" font-family="Helvetica,sans-Serif" font-size="10.00">yaclib::detail::Node</text>
</a>
</g>
</g>
<!-- Node10&#45;&gt;Node7 -->
<g id="edge9_Node000007_Node000010" class="edge">
<title>Node10&#45;&gt;Node7</title>
<g id="a_edge9_Node000007_Node000010"><a xlink:title=" ">
<path fill="none" stroke="#63b8ff" d="M259.16,-70.76C281.73,-65.16 307.36,-58.81 326.66,-54.02"/>
<polygon fill="#63b8ff" stroke="#63b8ff" points="258.37,-67.35 249.5,-73.15 260.05,-74.14 258.37,-67.35"/>
</a>
</g>
</g>
<!-- Node10&#45;&gt;Node10 -->
<g id="edge10_Node000010_Node000010" class="edge">
<title>Node10&#45;&gt;Node10</title>
<g id="a_edge10_Node000010_Node000010"><a xlink:title=" ">
<path fill="none" stroke="#9a32cd" stroke-dasharray="5,2" d="M193.16,-104.65C194.8,-108.53 199.16,-111.25 206.25,-111.25 219.21,-111.25 223.06,-102.15 217.8,-93.54"/>
<polygon fill="#9a32cd" stroke="#9a32cd" points="196.59,-105.42 194.5,-95.04 189.65,-104.46 196.59,-105.42"/>
</a>
</g>
<text text-anchor="middle" x="206.25" y="-113" font-family="Helvetica,sans-Serif" font-size="10.00" fill="grey"> next</text>
</g>
<!-- Node11 -->
<g id="Node000011" class="node">
<title>Node11</title>
<g id="a_Node000011"><a xlink:href="classyaclib_1_1IntrusivePtr.html" target="_top" xlink:title=" ">
<polygon fill="white" stroke="#666666" points="638,-141.88 542.5,-141.88 542.5,-111.38 638,-111.38 638,-141.88"/>
<text text-anchor="start" x="550.5" y="-128.38" font-family="Helvetica,sans-Serif" font-size="10.00">yaclib::IntrusivePtr</text>
<text text-anchor="middle" x="590.25" y="-117.12" font-family="Helvetica,sans-Serif" font-size="10.00">&lt; IExecutor &gt;</text>
</a>
</g>
</g>
<!-- Node11&#45;&gt;Node5 -->
<g id="edge11_Node000005_Node000011" class="edge">
<title>Node11&#45;&gt;Node5</title>
<g id="a_edge11_Node000005_Node000011"><a xlink:title=" ">
<path fill="none" stroke="#9a32cd" stroke-dasharray="5,2" d="M649.26,-114.27C679.81,-107.76 716.8,-99.88 745.62,-93.74"/>
<polygon fill="#9a32cd" stroke="#9a32cd" points="648.86,-110.78 639.81,-116.28 650.32,-117.62 648.86,-110.78"/>
</a>
</g>
<text text-anchor="middle" x="696.12" y="-110.38" font-family="Helvetica,sans-Serif" font-size="10.00" fill="grey"> _executor</text>
</g>
<!-- Node12 -->
<g id="Node000012" class="node">
<title>Node12</title>
<g id="a_Node000012"><a xlink:href="classyaclib_1_1IntrusivePtr.html" target="_top" xlink:title="A intrusive pointer to objects with an embedded reference count.">
<polygon fill="white" stroke="#666666" points="416.5,-136.25 298.5,-136.25 298.5,-117 416.5,-117 416.5,-136.25"/>
<text text-anchor="middle" x="357.5" y="-122.75" font-family="Helvetica,sans-Serif" font-size="10.00">yaclib::IntrusivePtr&lt; T &gt;</text>
</a>
</g>
</g>
<!-- Node12&#45;&gt;Node11 -->
<g id="edge12_Node000011_Node000012" class="edge">
<title>Node12&#45;&gt;Node11</title>
<g id="a_edge12_Node000011_Node000012"><a xlink:title=" ">
<path fill="none" stroke="orange" stroke-dasharray="5,2" d="M427.94,-126.62C464.91,-126.62 509.4,-126.62 542.28,-126.62"/>
<polygon fill="orange" stroke="orange" points="428.24,-123.13 418.24,-126.63 428.24,-130.13 428.24,-123.13"/>
</a>
</g>
<text text-anchor="middle" x="470.5" y="-128.38" font-family="Helvetica,sans-Serif" font-size="10.00" fill="grey"> &lt; IExecutor &gt;</text>
</g>
<!-- Node13 -->
<g id="Node000013" class="node">
<title>Node13</title>
<g id="a_Node000013"><a xlink:title=" ">
<polygon fill="white" stroke="#666666" points="647.75,-93.25 532.75,-93.25 532.75,-74 647.75,-74 647.75,-93.25"/>
<text text-anchor="middle" x="590.25" y="-79.75" font-family="Helvetica,sans-Serif" font-size="10.00">atomic&lt; std::uintptr_t &gt;</text>
</a>
</g>
</g>
<!-- Node13&#45;&gt;Node5 -->
<g id="edge13_Node000005_Node000013" class="edge">
<title>Node13&#45;&gt;Node5</title>
<g id="a_edge13_Node000005_Node000013"><a xlink:title=" ">
<path fill="none" stroke="#9a32cd" stroke-dasharray="5,2" d="M659.25,-83.62C684.21,-83.62 712.18,-83.62 736.08,-83.62"/>
<polygon fill="#9a32cd" stroke="#9a32cd" points="659.53,-80.13 649.53,-83.63 659.53,-87.13 659.53,-80.13"/>
</a>
</g>
<text text-anchor="middle" x="696.12" y="-85.38" font-family="Helvetica,sans-Serif" font-size="10.00" fill="grey"> _callback</text>
</g>
<!-- Node14 -->
<g id="Node000014" class="node">
<title>Node14</title>
<g id="a_Node000014"><a xlink:title=" ">
<polygon fill="white" stroke="#666666" points="380.12,-93.25 334.88,-93.25 334.88,-74 380.12,-74 380.12,-93.25"/>
<text text-anchor="middle" x="357.5" y="-79.75" font-family="Helvetica,sans-Serif" font-size="10.00">atomic</text>
</a>
</g>
</g>
<!-- Node14&#45;&gt;Node13 -->
<g id="edge14_Node000013_Node000014" class="edge">
<title>Node14&#45;&gt;Node13</title>
<g id="a_edge14_Node000013_Node000014"><a xlink:title=" ">
<path fill="none" stroke="orange" stroke-dasharray="5,2" d="M391.26,-83.62C427.98,-83.62 488.2,-83.62 532.59,-83.62"/>
<polygon fill="orange" stroke="orange" points="391.72,-80.13 381.72,-83.63 391.72,-87.13 391.72,-80.13"/>
</a>
</g>
<text text-anchor="middle" x="470.5" y="-85.38" font-family="Helvetica,sans-Serif" font-size="10.00" fill="grey"> &lt; std::uintptr_t &gt;</text>
</g>
<!-- Node15 -->
<g id="Node000015" class="node">
<title>Node15</title>
<g id="a_Node000015"><a xlink:href="classyaclib_1_1Result.html" target="_top" xlink:title=" ">
<polygon fill="white" stroke="#666666" points="847.88,-56.25 740.38,-56.25 740.38,-37 847.88,-37 847.88,-56.25"/>
<text text-anchor="middle" x="794.12" y="-42.75" font-family="Helvetica,sans-Serif" font-size="10.00">yaclib::Result&lt; V, E &gt;</text>
</a>
</g>
</g>
<!-- Node15&#45;&gt;Node4 -->
<g id="edge15_Node000004_Node000015" class="edge">
<title>Node15&#45;&gt;Node4</title>
<g id="a_edge15_Node000004_Node000015"><a xlink:title=" ">
<path fill="none" stroke="#9a32cd" stroke-dasharray="5,2" d="M859.57,-53.08C873.41,-54.48 887.94,-55.97 901.5,-57.38 907.29,-57.98 913.32,-58.61 919.34,-59.24"/>
<polygon fill="#9a32cd" stroke="#9a32cd" points="859.96,-49.6 849.66,-52.08 859.26,-56.57 859.96,-49.6"/>
</a>
</g>
<text text-anchor="middle" x="885.75" y="-59.38" font-family="Helvetica,sans-Serif" font-size="10.00" fill="grey"> _result</text>
</g>
<!-- Node16 -->
<g id="Node000016" class="node">
<title>Node16</title>
<g id="a_Node000016"><a xlink:href="classyaclib_1_1Result.html" target="_top" xlink:title="Encapsulated return value from caller.">
<polygon fill="white" stroke="#666666" points="656,-19.25 524.5,-19.25 524.5,0 656,0 656,-19.25"/>
<text text-anchor="middle" x="590.25" y="-5.75" font-family="Helvetica,sans-Serif" font-size="10.00">yaclib::Result&lt; ValueT, E &gt;</text>
</a>
</g>
</g>
<!-- Node16&#45;&gt;Node15 -->
<g id="edge16_Node000015_Node000016" class="edge">
<title>Node16&#45;&gt;Node15</title>
<g id="a_edge16_Node000015_Node000016"><a xlink:title=" ">
<path fill="none" stroke="orange" stroke-dasharray="5,2" d="M657.64,-21.79C684.41,-26.7 714.87,-32.28 740.12,-36.91"/>
<polygon fill="orange" stroke="orange" points="658.37,-18.37 647.9,-20.01 657.11,-25.25 658.37,-18.37"/>
</a>
</g>
<text text-anchor="middle" x="696.12" y="-34.38" font-family="Helvetica,sans-Serif" font-size="10.00" fill="grey"> &lt; V, E &gt;</text>
</g>
<!-- Node17&#45;&gt;Node4 -->
<g id="edge17_Node000004_Node000017" class="edge">
<title>Node17&#45;&gt;Node4</title>
<g id="a_edge17_Node000004_Node000017"><a xlink:title=" ">
<path fill="none" stroke="#9a32cd" stroke-dasharray="5,2" d="M272.95,-172.46C298.93,-175.25 329.07,-177.62 356.5,-177.62 356.5,-177.62 356.5,-177.62 795.12,-177.62 868.39,-177.62 937.25,-111.97 965.51,-81.2"/>
<polygon fill="#9a32cd" stroke="#9a32cd" points="273.55,-169 263.22,-171.37 272.77,-175.96 273.55,-169"/>
</a>
</g>
<text text-anchor="middle" x="590.25" y="-179.38" font-family="Helvetica,sans-Serif" font-size="10.00" fill="grey"> _self</text>
</g>
<!-- Node18 -->
<g id="Node000018" class="node">
<title>Node18</title>
<g id="a_Node000018"><a xlink:title=" ">
<polygon fill="white" stroke="#666666" points="49,-173.25 14.25,-173.25 14.25,-154 49,-154 49,-173.25"/>
<text text-anchor="middle" x="31.62" y="-159.75" font-family="Helvetica,sans-Serif" font-size="10.00">char</text>
</a>
</g>
</g>
<!-- Node18&#45;&gt;Node17 -->
<g id="edge19_Node000017_Node000018" class="edge">
<title>Node18&#45;&gt;Node17</title>
<g id="a_edge19_Node000017_Node000018"><a xlink:title=" ">
<path fill="none" stroke="#9a32cd" stroke-dasharray="5,2" d="M60.72,-163.62C84.99,-163.62 120.76,-163.62 150.64,-163.62"/>
<polygon fill="#9a32cd" stroke="#9a32cd" points="61,-160.13 51,-163.63 61,-167.13 61,-160.13"/>
</a>
</g>
<text text-anchor="middle" x="107.12" y="-165.38" font-family="Helvetica,sans-Serif" font-size="10.00" fill="grey"> unwrapping</text>
</g>
<!-- Node19 -->
<g id="Node000019" class="node">
<title>Node19</title>
<g id="a_Node000019"><a xlink:title=" ">
<polygon fill="white" stroke="#666666" points="835.88,-19.25 752.38,-19.25 752.38,0 835.88,0 835.88,-19.25"/>
<text text-anchor="middle" x="794.12" y="-5.75" font-family="Helvetica,sans-Serif" font-size="10.00">anonymous:@1</text>
</a>
</g>
</g>
<!-- Node19&#45;&gt;Node4 -->
<g id="edge20_Node000004_Node000019" class="edge">
<title>Node19&#45;&gt;Node4</title>
<g id="a_edge20_Node000004_Node000019"><a xlink:title=" ">
<path fill="none" stroke="#9a32cd" stroke-dasharray="5,2" d="M844.08,-22.72C862.19,-27.72 882.84,-33.61 901.5,-39.38 912.09,-42.65 923.42,-46.36 934.05,-49.94"/>
<polygon fill="#9a32cd" stroke="#9a32cd" points="845.21,-19.4 834.64,-20.13 843.36,-26.15 845.21,-19.4"/>
</a>
</g>
<text text-anchor="middle" x="885.75" y="-41.38" font-family="Helvetica,sans-Serif" font-size="10.00" fill="grey"> @1</text>
</g>
<!-- Node20 -->
<g id="Node000020" class="node">
<title>Node20</title>
<g id="a_Node000020"><a xlink:href="structyaclib_1_1detail_1_1OneCounter.html" target="_top" xlink:title=" ">
<polygon fill="white" stroke="#666666" points="1202.25,-31.88 1077.5,-31.88 1077.5,-1.37 1202.25,-1.37 1202.25,-31.88"/>
<text text-anchor="start" x="1085.5" y="-18.38" font-family="Helvetica,sans-Serif" font-size="10.00">yaclib::detail::OneCounter</text>
<text text-anchor="middle" x="1139.88" y="-7.12" font-family="Helvetica,sans-Serif" font-size="10.00">&lt; CounterBase, Deleter &gt;</text>
</a>
</g>
</g>
<!-- Node20&#45;&gt;Node2 -->
<g id="edge21_Node000002_Node000020" class="edge">
<title>Node20&#45;&gt;Node2</title>
<g id="a_edge21_Node000002_Node000020"><a xlink:title=" ">
<path fill="none" stroke="orange" stroke-dasharray="5,2" d="M1213.89,-13.65C1246.86,-13.2 1286.24,-13.9 1321.5,-17.88 1327.23,-18.52 1333.11,-19.35 1339.02,-20.31"/>
<polygon fill="orange" stroke="orange" points="1213.96,-10.15 1204.03,-13.83 1214.09,-17.15 1213.96,-10.15"/>
</a>
</g>
<text text-anchor="start" x="1220.25" y="-42.88" font-family="Helvetica,sans-Serif" font-size="10.00" fill="grey"> &lt; UniqueCore&lt; V, E</text>
<text text-anchor="start" x="1220.25" y="-31.62" font-family="Helvetica,sans-Serif" font-size="10.00" fill="grey"> &gt;, PromiseTypeDeleter</text>
<text text-anchor="middle" x="1270.88" y="-20.38" font-family="Helvetica,sans-Serif" font-size="10.00" fill="grey">&lt; Lazy &gt; &gt;</text>
</g>
<!-- Node21 -->
<g id="Node000021" class="node">
<title>Node21</title>
<g id="a_Node000021"><a xlink:href="classCounterBase.html" target="_top" xlink:title=" ">
<polygon fill="white" stroke="#666666" points="1016.12,-26.25 943.88,-26.25 943.88,-7 1016.12,-7 1016.12,-26.25"/>
<text text-anchor="middle" x="980" y="-12.75" font-family="Helvetica,sans-Serif" font-size="10.00">CounterBase</text>
</a>
</g>
</g>
<!-- Node21&#45;&gt;Node20 -->
<g id="edge22_Node000020_Node000021" class="edge">
<title>Node21&#45;&gt;Node20</title>
<g id="a_edge22_Node000020_Node000021"><a xlink:title=" ">
<path fill="none" stroke="#63b8ff" d="M1027.83,-16.62C1043.31,-16.62 1060.78,-16.62 1077.2,-16.62"/>
<polygon fill="#63b8ff" stroke="#63b8ff" points="1027.94,-13.13 1017.94,-16.63 1027.94,-20.13 1027.94,-13.13"/>
</a>
</g>
</g>
</g>
</svg>

<g id="navigator" transform="translate(0 0)" fill="#404254">
  <rect fill="#f2f5e9" fill-opacity="0.5" stroke="#606060" stroke-width=".5" x="0" y="0" width="60" height="60"/>
  <use id="zoomplus" xlink:href="#zoomPlus" x="17" y="9" onmousedown="handleZoom(evt,'in')"/>
  <use id="zoomminus" xlink:href="#zoomMin" x="42" y="9" onmousedown="handleZoom(evt,'out')"/>
  <use id="reset" xlink:href="#resetDef" x="30" y="36" onmousedown="handleReset()"/>
   <use id="arrowup" xlink:href="#arrowUp" x="0" y="0" onmousedown="handlePan(0,-1)"/>
  <use id="arrowright" xlink:href="#arrowRight" x="0" y="0" onmousedown="handlePan(1,0)"/>
  <use id="arrowdown" xlink:href="#arrowDown" x="0" y="0" onmousedown="handlePan(0,1)"/>
  <use id="arrowleft" xlink:href="#arrowLeft" x="0" y="0" onmousedown="handlePan(-1,0)"/>
</g>
<svg viewBox="0 0 15 15" width="100%" height="30px" preserveAspectRatio="xMaxYMin meet">
 <g id="arrow_out" transform="scale(0.3 0.3)">
  <a xlink:href="classyaclib_1_1detail_1_1PromiseType__coll__graph_org.svg" target="_base">
   <rect id="button" ry="5" rx="5" y="6" x="6" height="38" width="38"
        fill="#f2f5e9" fill-opacity="0.5" stroke="#606060" stroke-width="1.0"/>
   <path id="arrow"
     d="M 11.500037,31.436501 C 11.940474,20.09759 22.043105,11.32322 32.158766,21.979434 L 37.068811,17.246167 C 37.068811,17.246167 37.088388,32 37.088388,32 L 22.160133,31.978069 C 22.160133,31.978069 26.997745,27.140456 26.997745,27.140456 C 18.528582,18.264221 13.291696,25.230495 11.500037,31.436501 z"
     style="fill:#404040;"/>
  </a>
 </g>
</svg>

<style type='text/css'>
<![CDATA[
[data-mouse-over-selected='false'] { opacity: 0.7; }
[data-mouse-over-selected='true']  { opacity: 1.0; }
]]>
</style>
<script type="application/ecmascript"><![CDATA[
document.addEventListener('DOMContentLoaded', (event) => {
  highlightEdges();
  highlightAdjacentNodes();
});
]]></script>
</svg>
