<?xml version="1.0" encoding="UTF-8" standalone="no"?>
<!DOCTYPE svg PUBLIC "-//W3C//DTD SVG 1.1//EN"
 "http://www.w3.org/Graphics/SVG/1.1/DTD/svg11.dtd">
<!-- Generated by graphviz version 9.0.0 (20230911.1827)
 -->
<!-- Title: yaclib::detail::AtomicBase&lt; Impl, T &gt; Pages: 1 -->
<svg width="134pt" height="160pt"
 viewBox="0.00 0.00 134.25 160.25" xmlns="http://www.w3.org/2000/svg" xmlns:xlink="http://www.w3.org/1999/xlink">
<g id="graph0" class="graph" transform="scale(1 1) rotate(0) translate(4 156.25)">
<title>yaclib::detail::AtomicBase&lt; Impl, T &gt;</title>
<!-- Node1 -->
<g id="Node000001" class="node">
<title>Node1</title>
<g id="a_Node000001"><a xlink:title=" ">
<polygon fill="#999999" stroke="#666666" points="126.25,-30.5 0,-30.5 0,0 126.25,0 126.25,-30.5"/>
<text text-anchor="start" x="8" y="-17" font-family="Helvetica,sans-Serif" font-size="10.00">yaclib::detail::AtomicBase</text>
<text text-anchor="middle" x="63.12" y="-5.75" font-family="Helvetica,sans-Serif" font-size="10.00">&lt; Impl, T &gt;</text>
</a>
</g>
</g>
<!-- Node2 -->
<g id="Node000002" class="node">
<title>Node2</title>
<g id="a_Node000002"><a xlink:href="classyaclib_1_1detail_1_1AtomicWait.html" target="_top" xlink:title=" ">
<polygon fill="white" stroke="#666666" points="124.75,-97 1.5,-97 1.5,-66.5 124.75,-66.5 124.75,-97"/>
<text text-anchor="start" x="9.5" y="-83.5" font-family="Helvetica,sans-Serif" font-size="10.00">yaclib::detail::AtomicWait</text>
<text text-anchor="middle" x="63.12" y="-72.25" font-family="Helvetica,sans-Serif" font-size="10.00">&lt; Impl, T &gt;</text>
</a>
</g>
</g>
<!-- Node2&#45;&gt;Node1 -->
<g id="edge1_Node000001_Node000002" class="edge">
<title>Node2&#45;&gt;Node1</title>
<g id="a_edge1_Node000001_Node000002"><a xlink:title=" ">
<path fill="none" stroke="#63b8ff" d="M63.12,-54.81C63.12,-46.64 63.12,-37.91 63.12,-30.83"/>
<polygon fill="#63b8ff" stroke="#63b8ff" points="59.63,-54.6 63.13,-64.6 66.63,-54.6 59.63,-54.6"/>
</a>
</g>
</g>
<!-- Node3 -->
<g id="Node000003" class="node">
<title>Node3</title>
<g id="a_Node000003"><a xlink:title=" ">
<polygon fill="white" stroke="#666666" points="80.5,-152.25 45.75,-152.25 45.75,-133 80.5,-133 80.5,-152.25"/>
<text text-anchor="middle" x="63.12" y="-138.75" font-family="Helvetica,sans-Serif" font-size="10.00">Impl</text>
</a>
</g>
</g>
<!-- Node3&#45;&gt;Node2 -->
<g id="edge2_Node000002_Node000003" class="edge">
<title>Node3&#45;&gt;Node2</title>
<g id="a_edge2_Node000002_Node000003"><a xlink:title=" ">
<path fill="none" stroke="darkgreen" d="M63.12,-121.42C63.12,-113.49 63.12,-104.56 63.12,-97.28"/>
<polygon fill="darkgreen" stroke="darkgreen" points="59.63,-121.17 63.13,-131.17 66.63,-121.17 59.63,-121.17"/>
</a>
</g>
</g>
</g>
</svg>
