<?xml version="1.0" encoding="UTF-8" standalone="no"?>
<!DOCTYPE svg PUBLIC "-//W3C//DTD SVG 1.1//EN"
 "http://www.w3.org/Graphics/SVG/1.1/DTD/svg11.dtd">
<!-- Generated by graphviz version 9.0.0 (20230911.1827)
 -->
<!-- Title: yaclib::Future&lt; V, E &gt; Pages: 1 -->
<svg width="126pt" height="239pt"
 viewBox="0.00 0.00 126.00 239.00" xmlns="http://www.w3.org/2000/svg" xmlns:xlink="http://www.w3.org/1999/xlink">
<g id="graph0" class="graph" transform="scale(1 1) rotate(0) translate(4 235)">
<title>yaclib::Future&lt; V, E &gt;</title>
<!-- Node1 -->
<g id="Node000001" class="node">
<title>Node1</title>
<g id="a_Node000001"><a xlink:title="Provides a mechanism to access the result of async operations.">
<polygon fill="#999999" stroke="#666666" points="112.75,-19.25 5.25,-19.25 5.25,0 112.75,0 112.75,-19.25"/>
<text text-anchor="middle" x="59" y="-5.75" font-family="Helvetica,sans-Serif" font-size="10.00">yaclib::Future&lt; V, E &gt;</text>
</a>
</g>
</g>
<!-- Node2 -->
<g id="Node000002" class="node">
<title>Node2</title>
<g id="a_Node000002"><a xlink:href="classyaclib_1_1FutureBase.html" target="_top" xlink:title="Provides a mechanism to access the result of async operations.">
<polygon fill="white" stroke="#666666" points="106.75,-86.75 11.25,-86.75 11.25,-56.25 106.75,-56.25 106.75,-86.75"/>
<text text-anchor="start" x="19.25" y="-73.25" font-family="Helvetica,sans-Serif" font-size="10.00">yaclib::FutureBase</text>
<text text-anchor="middle" x="59" y="-62" font-family="Helvetica,sans-Serif" font-size="10.00">&lt; V, E &gt;</text>
</a>
</g>
</g>
<!-- Node2&#45;&gt;Node1 -->
<g id="edge1_Node000001_Node000002" class="edge">
<title>Node2&#45;&gt;Node1</title>
<g id="a_edge1_Node000001_Node000002"><a xlink:title=" ">
<path fill="none" stroke="#63b8ff" d="M59,-44.77C59,-35.79 59,-26.29 59,-19.6"/>
<polygon fill="#63b8ff" stroke="#63b8ff" points="55.5,-44.49 59,-54.49 62.5,-44.49 55.5,-44.49"/>
</a>
</g>
</g>
<!-- Node3 -->
<g id="Node000003" class="node">
<title>Node3</title>
<g id="a_Node000003"><a xlink:href="classyaclib_1_1IntrusivePtr.html" target="_top" xlink:title=" ">
<polygon fill="white" stroke="#666666" points="106.75,-164.5 11.25,-164.5 11.25,-134 106.75,-134 106.75,-164.5"/>
<text text-anchor="start" x="19.25" y="-151" font-family="Helvetica,sans-Serif" font-size="10.00">yaclib::IntrusivePtr</text>
<text text-anchor="middle" x="59" y="-139.75" font-family="Helvetica,sans-Serif" font-size="10.00">&lt; V, E &gt;</text>
</a>
</g>
</g>
<!-- Node3&#45;&gt;Node2 -->
<g id="edge2_Node000002_Node000003" class="edge">
<title>Node3&#45;&gt;Node2</title>
<g id="a_edge2_Node000002_Node000003"><a xlink:title=" ">
<path fill="none" stroke="#9a32cd" stroke-dasharray="5,2" d="M59,-122.22C59,-110.46 59,-97.01 59,-87.06"/>
<polygon fill="#9a32cd" stroke="#9a32cd" points="55.5,-122.13 59,-132.13 62.5,-122.13 55.5,-122.13"/>
</a>
</g>
<text text-anchor="middle" x="72.12" y="-106.5" font-family="Helvetica,sans-Serif" font-size="10.00" fill="grey"> _core</text>
</g>
<!-- Node4 -->
<g id="Node000004" class="node">
<title>Node4</title>
<g id="a_Node000004"><a xlink:href="classyaclib_1_1IntrusivePtr.html" target="_top" xlink:title="A intrusive pointer to objects with an embedded reference count.">
<polygon fill="white" stroke="#666666" points="118,-231 0,-231 0,-211.75 118,-211.75 118,-231"/>
<text text-anchor="middle" x="59" y="-217.5" font-family="Helvetica,sans-Serif" font-size="10.00">yaclib::IntrusivePtr&lt; T &gt;</text>
</a>
</g>
</g>
<!-- Node4&#45;&gt;Node3 -->
<g id="edge3_Node000003_Node000004" class="edge">
<title>Node4&#45;&gt;Node3</title>
<g id="a_edge3_Node000003_Node000004"><a xlink:title=" ">
<path fill="none" stroke="orange" stroke-dasharray="5,2" d="M59,-200.17C59,-188.91 59,-175.14 59,-164.92"/>
<polygon fill="orange" stroke="orange" points="55.5,-199.98 59,-209.98 62.5,-199.98 55.5,-199.98"/>
</a>
</g>
<text text-anchor="middle" x="77.38" y="-184.25" font-family="Helvetica,sans-Serif" font-size="10.00" fill="grey"> &lt; V, E &gt;</text>
</g>
</g>
</svg>
