<?xml version="1.0" encoding="UTF-8" standalone="no"?>
<!DOCTYPE svg PUBLIC "-//W3C//DTD SVG 1.1//EN"
 "http://www.w3.org/Graphics/SVG/1.1/DTD/svg11.dtd">
<!-- Generated by graphviz version 3.0.0 (20220413.0242)
 -->
<!-- Title: yaclib::detail::BasePromiseType&lt; V, E &gt; Pages: 1 -->
<!--zoomable 219 -->
<svg id="main" version="1.1" xmlns="http://www.w3.org/2000/svg" xmlns:xlink="http://www.w3.org/1999/xlink" xml:space="preserve" onload="init(evt)">
<style type="text/css"><![CDATA[
.edge:hover path { stroke: red; }
.edge:hover polygon { stroke: red; fill: red; }
]]></style>
<script type="text/javascript"><![CDATA[
var edges = document.getElementsByTagName('g');
if (edges && edges.length) {
  for (var i=0;i<edges.length;i++) {
    if (edges[i].id.substr(0,4)=='edge') {
      edges[i].setAttribute('class','edge');
    }
  }
}
]]></script>
        <defs>
                <circle id="rim" cx="0" cy="0" r="7"/>
                <circle id="rim2" cx="0" cy="0" r="3.5"/>
                <g id="zoomPlus">
                        <use xlink:href="#rim" fill="#404040">
                                <set attributeName="fill" to="#808080" begin="zoomplus.mouseover" end="zoomplus.mouseout"/>
                        </use>
                        <path d="M-4,0h8M0,-4v8" fill="none" stroke="white" stroke-width="1.5" pointer-events="none"/>
                </g>
                <g id="zoomMin">
                        <use xlink:href="#rim" fill="#404040">
                                <set attributeName="fill" to="#808080" begin="zoomminus.mouseover" end="zoomminus.mouseout"/>
                        </use>
                        <path d="M-4,0h8" fill="none" stroke="white" stroke-width="1.5" pointer-events="none"/>
                </g>
                <g id="dirArrow">
                        <path fill="none" stroke="white" stroke-width="1.5" d="M0,-3.0v7 M-2.5,-0.5L0,-3.0L2.5,-0.5"/>
                </g>
               <g id="resetDef">
                       <use xlink:href="#rim2" fill="#404040">
                               <set attributeName="fill" to="#808080" begin="reset.mouseover" end="reset.mouseout"/>
                       </use>
               </g>
        </defs>

<script type="text/javascript">
var viewWidth = 1425;
var viewHeight = 219;
var sectionId = 'dynsection-1';
</script>
<script xlink:href="svgpan.js"/>
<svg id="graph" class="graph">
<g id="viewport">
<title>yaclib::detail::BasePromiseType&lt; V, E &gt;</title>
<!-- Node1 -->
<g id="node1" class="node">
<title>Node1</title>
<g id="a_node1"><a xlink:title=" ">
<polygon fill="#bfbfbf" stroke="black" points="1285,-24.5 1285,-54.5 1417,-54.5 1417,-24.5 1285,-24.5"/>
<text text-anchor="start" x="1293" y="-42.5" font-family="Helvetica,sans-Serif" font-size="10.00">yaclib::detail::BasePromise</text>
<text text-anchor="middle" x="1351" y="-31.5" font-family="Helvetica,sans-Serif" font-size="10.00">Type&lt; V, E &gt;</text>
</a>
</g>
</g>
<!-- Node2 -->
<g id="node2" class="node">
<title>Node2</title>
<g id="a_node2"><a xlink:href="structyaclib_1_1detail_1_1UniqueCounter.html" target="_top" xlink:title=" ">
<polygon fill="none" stroke="black" points="1078,-19 1078,-60 1248,-60 1248,-19 1078,-19"/>
<text text-anchor="start" x="1086" y="-48" font-family="Helvetica,sans-Serif" font-size="10.00">yaclib::detail::UniqueCounter</text>
<text text-anchor="start" x="1086" y="-37" font-family="Helvetica,sans-Serif" font-size="10.00">&lt; ResultCore&lt; V, E &gt;, PromiseType</text>
<text text-anchor="middle" x="1163" y="-26" font-family="Helvetica,sans-Serif" font-size="10.00">Deleter &gt;</text>
</a>
</g>
</g>
<!-- Node2&#45;&gt;Node1 -->
<g id="edge1" class="edge">
<title>Node2&#45;&gt;Node1</title>
<path fill="none" stroke="midnightblue" d="M1258.16,-39.5C1267.15,-39.5 1276.13,-39.5 1284.75,-39.5"/>
<polygon fill="midnightblue" stroke="midnightblue" points="1258.02,-36 1248.02,-39.5 1258.02,-43 1258.02,-36"/>
</g>
<!-- Node3 -->
<g id="node3" class="node">
<title>Node3</title>
<g id="a_node3"><a xlink:href="classyaclib_1_1detail_1_1ResultCore.html" target="_top" xlink:title=" ">
<polygon fill="none" stroke="black" points="802,-49.5 802,-79.5 924,-79.5 924,-49.5 802,-49.5"/>
<text text-anchor="start" x="810" y="-67.5" font-family="Helvetica,sans-Serif" font-size="10.00">yaclib::detail::ResultCore</text>
<text text-anchor="middle" x="863" y="-56.5" font-family="Helvetica,sans-Serif" font-size="10.00">&lt; V, E &gt;</text>
</a>
</g>
</g>
<!-- Node3&#45;&gt;Node2 -->
<g id="edge2" class="edge">
<title>Node3&#45;&gt;Node2</title>
<path fill="none" stroke="midnightblue" d="M934.39,-58.59C977.35,-54.99 1032.52,-50.36 1077.79,-46.56"/>
<polygon fill="midnightblue" stroke="midnightblue" points="933.98,-55.12 924.3,-59.44 934.56,-62.09 933.98,-55.12"/>
</g>
<!-- Node4 -->
<g id="node4" class="node">
<title>Node4</title>
<g id="a_node4"><a xlink:href="classyaclib_1_1detail_1_1BaseCore.html" target="_top" xlink:title=" ">
<polygon fill="none" stroke="black" points="610,-106 610,-125 726,-125 726,-106 610,-106"/>
<text text-anchor="middle" x="668" y="-113" font-family="Helvetica,sans-Serif" font-size="10.00">yaclib::detail::BaseCore</text>
</a>
</g>
</g>
<!-- Node4&#45;&gt;Node3 -->
<g id="edge3" class="edge">
<title>Node4&#45;&gt;Node3</title>
<path fill="none" stroke="midnightblue" d="M715.25,-103.28C742.19,-96.16 776.39,-87.12 804.99,-79.56"/>
<polygon fill="midnightblue" stroke="midnightblue" points="714.08,-99.97 705.3,-105.91 715.86,-106.74 714.08,-99.97"/>
</g>
<!-- Node5 -->
<g id="node5" class="node">
<title>Node5</title>
<g id="a_node5"><a xlink:href="classyaclib_1_1detail_1_1InlineCore.html" target="_top" xlink:title=" ">
<polygon fill="none" stroke="black" points="408.5,-144 408.5,-163 525.5,-163 525.5,-144 408.5,-144"/>
<text text-anchor="middle" x="467" y="-151" font-family="Helvetica,sans-Serif" font-size="10.00">yaclib::detail::InlineCore</text>
</a>
</g>
</g>
<!-- Node5&#45;&gt;Node4 -->
<g id="edge4" class="edge">
<title>Node5&#45;&gt;Node4</title>
<path fill="none" stroke="midnightblue" d="M530.32,-142.12C550.06,-138.46 571.95,-134.36 592,-130.5 601,-128.77 610.59,-126.88 619.81,-125.04"/>
<polygon fill="midnightblue" stroke="midnightblue" points="529.42,-138.72 520.22,-143.98 530.69,-145.61 529.42,-138.72"/>
</g>
<!-- Node6 -->
<g id="node6" class="node">
<title>Node6</title>
<g id="a_node6"><a xlink:href="classyaclib_1_1Job.html" target="_top" xlink:title="Callable that can be executed in an IExecutor.">
<polygon fill="none" stroke="black" points="235,-144 235,-163 297,-163 297,-144 235,-144"/>
<text text-anchor="middle" x="266" y="-151" font-family="Helvetica,sans-Serif" font-size="10.00">yaclib::Job</text>
</a>
</g>
</g>
<!-- Node6&#45;&gt;Node5 -->
<g id="edge5" class="edge">
<title>Node6&#45;&gt;Node5</title>
<path fill="none" stroke="midnightblue" d="M307.4,-153.5C336.39,-153.5 375.88,-153.5 408.2,-153.5"/>
<polygon fill="midnightblue" stroke="midnightblue" points="307.22,-150 297.22,-153.5 307.22,-157 307.22,-150"/>
</g>
<!-- Node7 -->
<g id="node7" class="node">
<title>Node7</title>
<g id="a_node7"><a xlink:href="classyaclib_1_1IFunc.html" target="_top" xlink:title="Callable interface.">
<polygon fill="none" stroke="black" points="114,-152 114,-171 185,-171 185,-152 114,-152"/>
<text text-anchor="middle" x="149.5" y="-159" font-family="Helvetica,sans-Serif" font-size="10.00">yaclib::IFunc</text>
</a>
</g>
</g>
<!-- Node7&#45;&gt;Node6 -->
<g id="edge6" class="edge">
<title>Node7&#45;&gt;Node6</title>
<path fill="none" stroke="midnightblue" d="M195.47,-158.36C208.63,-157.44 222.7,-156.46 234.72,-155.62"/>
<polygon fill="midnightblue" stroke="midnightblue" points="194.9,-154.89 185.16,-159.08 195.38,-161.87 194.9,-154.89"/>
</g>
<!-- Node8 -->
<g id="node8" class="node">
<title>Node8</title>
<g id="a_node8"><a xlink:href="classyaclib_1_1IRef.html" target="_top" xlink:title="Reference counting interface.">
<polygon fill="none" stroke="black" points="0,-174 0,-193 64,-193 64,-174 0,-174"/>
<text text-anchor="middle" x="32" y="-181" font-family="Helvetica,sans-Serif" font-size="10.00">yaclib::IRef</text>
</a>
</g>
</g>
<!-- Node8&#45;&gt;Node4 -->
<g id="edge12" class="edge">
<title>Node8&#45;&gt;Node4</title>
<path fill="none" stroke="#9a32cd" stroke-dasharray="5,2" d="M74.19,-192.01C96.15,-195.83 123.68,-199.5 148.5,-199.5 148.5,-199.5 148.5,-199.5 468,-199.5 543.75,-199.5 623.86,-147.2 654.28,-125.14"/>
<polygon fill="#9a32cd" stroke="#9a32cd" points="74.68,-188.54 64.21,-190.19 73.42,-195.43 74.68,-188.54"/>
<text text-anchor="middle" x="266" y="-202.5" font-family="Helvetica,sans-Serif" font-size="10.00"> _caller</text>
</g>
<!-- Node8&#45;&gt;Node7 -->
<g id="edge7" class="edge">
<title>Node8&#45;&gt;Node7</title>
<path fill="none" stroke="midnightblue" d="M74.35,-175.62C87.33,-173.15 101.51,-170.45 113.97,-168.08"/>
<polygon fill="midnightblue" stroke="midnightblue" points="73.42,-172.24 64.26,-177.55 74.73,-179.11 73.42,-172.24"/>
</g>
<!-- Node9 -->
<g id="node9" class="node">
<title>Node9</title>
<g id="a_node9"><a xlink:href="structyaclib_1_1detail_1_1Node.html" target="_top" xlink:title="Node class, used in intrusive data structure.">
<polygon fill="none" stroke="black" points="101,-85 101,-104 198,-104 198,-85 101,-85"/>
<text text-anchor="middle" x="149.5" y="-92" font-family="Helvetica,sans-Serif" font-size="10.00">yaclib::detail::Node</text>
</a>
</g>
</g>
<!-- Node9&#45;&gt;Node6 -->
<g id="edge8" class="edge">
<title>Node9&#45;&gt;Node6</title>
<path fill="none" stroke="midnightblue" d="M178.28,-108.81C199.41,-119.7 227.9,-134.38 246.36,-143.89"/>
<polygon fill="midnightblue" stroke="midnightblue" points="179.64,-105.58 169.15,-104.11 176.44,-111.8 179.64,-105.58"/>
</g>
<!-- Node9&#45;&gt;Node9 -->
<g id="edge9" class="edge">
<title>Node9&#45;&gt;Node9</title>
<path fill="none" stroke="#9a32cd" stroke-dasharray="5,2" d="M137.35,-114.27C138.3,-119 142.35,-122.5 149.5,-122.5 161.23,-122.5 164.62,-113.07 159.67,-104.26"/>
<polygon fill="#9a32cd" stroke="#9a32cd" points="140.82,-114.75 139.33,-104.26 133.95,-113.39 140.82,-114.75"/>
<text text-anchor="middle" x="149.5" y="-125.5" font-family="Helvetica,sans-Serif" font-size="10.00"> next</text>
</g>
<!-- Node10 -->
<g id="node10" class="node">
<title>Node10</title>
<g id="a_node10"><a xlink:title=" ">
<polygon fill="none" stroke="black" points="409.5,-106 409.5,-125 524.5,-125 524.5,-106 409.5,-106"/>
<text text-anchor="middle" x="467" y="-113" font-family="Helvetica,sans-Serif" font-size="10.00">atomic&lt; std::uint64_t &gt;</text>
</a>
</g>
</g>
<!-- Node10&#45;&gt;Node4 -->
<g id="edge10" class="edge">
<title>Node10&#45;&gt;Node4</title>
<path fill="none" stroke="#9a32cd" stroke-dasharray="5,2" d="M534.97,-115.5C559.26,-115.5 586.45,-115.5 609.82,-115.5"/>
<polygon fill="#9a32cd" stroke="#9a32cd" points="534.76,-112 524.76,-115.5 534.76,-119 534.76,-112"/>
<text text-anchor="middle" x="569.5" y="-118.5" font-family="Helvetica,sans-Serif" font-size="10.00"> _callback</text>
</g>
<!-- Node11 -->
<g id="node11" class="node">
<title>Node11</title>
<g id="a_node11"><a xlink:title=" ">
<polygon fill="none" stroke="black" points="243,-106 243,-125 289,-125 289,-106 243,-106"/>
<text text-anchor="middle" x="266" y="-113" font-family="Helvetica,sans-Serif" font-size="10.00">atomic</text>
</a>
</g>
</g>
<!-- Node11&#45;&gt;Node10 -->
<g id="edge11" class="edge">
<title>Node11&#45;&gt;Node10</title>
<path fill="none" stroke="orange" stroke-dasharray="5,2" d="M299.25,-115.5C328.88,-115.5 373.47,-115.5 409.08,-115.5"/>
<polygon fill="orange" stroke="orange" points="299.06,-112 289.06,-115.5 299.06,-119 299.06,-112"/>
<text text-anchor="middle" x="351" y="-118.5" font-family="Helvetica,sans-Serif" font-size="10.00"> &lt; std::uint64_t &gt;</text>
</g>
<!-- Node12 -->
<g id="node12" class="node">
<title>Node12</title>
<g id="a_node12"><a xlink:title=" ">
<polygon fill="none" stroke="black" points="405,-68 405,-87 529,-87 529,-68 405,-68"/>
<text text-anchor="middle" x="467" y="-75" font-family="Helvetica,sans-Serif" font-size="10.00">IntrusivePtr&lt; IExecutor &gt;</text>
</a>
</g>
</g>
<!-- Node12&#45;&gt;Node4 -->
<g id="edge13" class="edge">
<title>Node12&#45;&gt;Node4</title>
<path fill="none" stroke="#9a32cd" stroke-dasharray="5,2" d="M530.32,-88.88C550.06,-92.54 571.95,-96.64 592,-100.5 601,-102.23 610.59,-104.12 619.81,-105.96"/>
<polygon fill="#9a32cd" stroke="#9a32cd" points="530.69,-85.39 520.22,-87.02 529.42,-92.28 530.69,-85.39"/>
<text text-anchor="middle" x="569.5" y="-103.5" font-family="Helvetica,sans-Serif" font-size="10.00"> _executor</text>
</g>
<!-- Node13 -->
<g id="node13" class="node">
<title>Node13</title>
<g id="a_node13"><a xlink:href="classyaclib_1_1Result.html" target="_top" xlink:title=" ">
<polygon fill="none" stroke="black" points="614,-49 614,-68 722,-68 722,-49 614,-49"/>
<text text-anchor="middle" x="668" y="-56" font-family="Helvetica,sans-Serif" font-size="10.00">yaclib::Result&lt; V, E &gt;</text>
</a>
</g>
</g>
<!-- Node13&#45;&gt;Node3 -->
<g id="edge14" class="edge">
<title>Node13&#45;&gt;Node3</title>
<path fill="none" stroke="#9a32cd" stroke-dasharray="5,2" d="M732.3,-60.47C754.65,-61.16 779.7,-61.94 801.78,-62.63"/>
<polygon fill="#9a32cd" stroke="#9a32cd" points="732.35,-56.97 722.25,-60.16 732.14,-63.96 732.35,-56.97"/>
<text text-anchor="middle" x="760" y="-65.5" font-family="Helvetica,sans-Serif" font-size="10.00"> _result</text>
</g>
<!-- Node14 -->
<g id="node14" class="node">
<title>Node14</title>
<g id="a_node14"><a xlink:href="classyaclib_1_1Result.html" target="_top" xlink:title="Encapsulated return value from caller.">
<polygon fill="none" stroke="black" points="413,-30 413,-49 521,-49 521,-30 413,-30"/>
<text text-anchor="middle" x="467" y="-37" font-family="Helvetica,sans-Serif" font-size="10.00">yaclib::Result&lt; V, E &gt;</text>
</a>
</g>
</g>
<!-- Node14&#45;&gt;Node13 -->
<g id="edge15" class="edge">
<title>Node14&#45;&gt;Node13</title>
<path fill="none" stroke="orange" stroke-dasharray="5,2" d="M531.24,-40.29C550.76,-41.01 572.31,-42.28 592,-44.5 601.61,-45.58 611.84,-47.19 621.55,-48.93"/>
<polygon fill="orange" stroke="orange" points="531.34,-36.79 521.23,-39.96 531.11,-43.79 531.34,-36.79"/>
<text text-anchor="middle" x="569.5" y="-47.5" font-family="Helvetica,sans-Serif" font-size="10.00"> &lt; V, E &gt;</text>
</g>
<!-- Node15 -->
<g id="node15" class="node">
<title>Node15</title>
<g id="a_node15"><a xlink:href="structyaclib_1_1detail_1_1UniqueCounter.html" target="_top" xlink:title=" ">
<polygon fill="none" stroke="black" points="794,-0.5 794,-30.5 932,-30.5 932,-0.5 794,-0.5"/>
<text text-anchor="start" x="802" y="-18.5" font-family="Helvetica,sans-Serif" font-size="10.00">yaclib::detail::UniqueCounter</text>
<text text-anchor="middle" x="863" y="-7.5" font-family="Helvetica,sans-Serif" font-size="10.00">&lt; CounterBase, Deleter &gt;</text>
</a>
</g>
</g>
<!-- Node15&#45;&gt;Node2 -->
<g id="edge16" class="edge">
<title>Node15&#45;&gt;Node2</title>
<path fill="none" stroke="orange" stroke-dasharray="5,2" d="M942.54,-17.97C978.41,-19.5 1021.41,-21.87 1060,-25.5 1065.78,-26.04 1071.74,-26.67 1077.74,-27.36"/>
<polygon fill="orange" stroke="orange" points="942.27,-14.46 932.13,-17.55 941.98,-21.45 942.27,-14.46"/>
<text text-anchor="start" x="950" y="-39.5" font-family="Helvetica,sans-Serif" font-size="10.00"> &lt; ResultCore&lt; V, E</text>
<text text-anchor="middle" x="1005" y="-28.5" font-family="Helvetica,sans-Serif" font-size="10.00"> &gt;, PromiseTypeDeleter &gt;</text>
</g>
<!-- Node16 -->
<g id="node16" class="node">
<title>Node16</title>
<g id="a_node16"><a xlink:href="classCounterBase.html" target="_top" xlink:title=" ">
<polygon fill="none" stroke="black" points="631.5,-6 631.5,-25 704.5,-25 704.5,-6 631.5,-6"/>
<text text-anchor="middle" x="668" y="-13" font-family="Helvetica,sans-Serif" font-size="10.00">CounterBase</text>
</a>
</g>
</g>
<!-- Node16&#45;&gt;Node15 -->
<g id="edge17" class="edge">
<title>Node16&#45;&gt;Node15</title>
<path fill="none" stroke="midnightblue" d="M714.93,-15.5C738.53,-15.5 767.76,-15.5 793.92,-15.5"/>
<polygon fill="midnightblue" stroke="midnightblue" points="714.85,-12 704.85,-15.5 714.85,-19 714.85,-12"/>
</g>
</g>
</svg>
        <g id="navigator" transform="translate(0 0)" fill="#404254">
                <rect fill="#f2f5e9" fill-opacity="0.5" stroke="#606060" stroke-width=".5" x="0" y="0" width="60" height="60"/>
                <use id="zoomplus" xlink:href="#zoomPlus" x="17" y="9" onmousedown="handleZoom(evt,'in')"/>
                <use id="zoomminus" xlink:href="#zoomMin" x="42" y="9" onmousedown="handleZoom(evt,'out')"/>
                <use id="reset" xlink:href="#resetDef" x="30" y="36" onmousedown="handleReset()"/>
                <g id="arrowUp" xlink:href="#dirArrow" transform="translate(30 24)" onmousedown="handlePan(0,-1)">
                  <use xlink:href="#rim" fill="#404040">
                        <set attributeName="fill" to="#808080" begin="arrowUp.mouseover" end="arrowUp.mouseout"/>
                  </use>
                  <path fill="none" stroke="white" stroke-width="1.5" d="M0,-3.0v7 M-2.5,-0.5L0,-3.0L2.5,-0.5"/>
                </g>
                <g id="arrowRight" xlink:href="#dirArrow" transform="rotate(90) translate(36 -43)" onmousedown="handlePan(1,0)">
                  <use xlink:href="#rim" fill="#404040">
                        <set attributeName="fill" to="#808080" begin="arrowRight.mouseover" end="arrowRight.mouseout"/>
                  </use>
                  <path fill="none" stroke="white" stroke-width="1.5" d="M0,-3.0v7 M-2.5,-0.5L0,-3.0L2.5,-0.5"/>
                </g>
                <g id="arrowDown" xlink:href="#dirArrow" transform="rotate(180) translate(-30 -48)" onmousedown="handlePan(0,1)">
                  <use xlink:href="#rim" fill="#404040">
                        <set attributeName="fill" to="#808080" begin="arrowDown.mouseover" end="arrowDown.mouseout"/>
                  </use>
                  <path fill="none" stroke="white" stroke-width="1.5" d="M0,-3.0v7 M-2.5,-0.5L0,-3.0L2.5,-0.5"/>
                </g>
                <g id="arrowLeft" xlink:href="#dirArrow" transform="rotate(270) translate(-36 17)" onmousedown="handlePan(-1,0)">
                  <use xlink:href="#rim" fill="#404040">
                        <set attributeName="fill" to="#808080" begin="arrowLeft.mouseover" end="arrowLeft.mouseout"/>
                  </use>
                  <path fill="none" stroke="white" stroke-width="1.5" d="M0,-3.0v7 M-2.5,-0.5L0,-3.0L2.5,-0.5"/>
                </g>
        </g>
        <svg viewBox="0 0 15 15" width="100%" height="30px" preserveAspectRatio="xMaxYMin meet">
         <g id="arrow_out" transform="scale(0.3 0.3)">
          <a xlink:href="classyaclib_1_1detail_1_1BasePromiseType__coll__graph_org.svg" target="_base">
           <rect id="button" ry="5" rx="5" y="6" x="6" height="38" width="38"
                fill="#f2f5e9" fill-opacity="0.5" stroke="#606060" stroke-width="1.0"/>
           <path id="arrow"
             d="M 11.500037,31.436501 C 11.940474,20.09759 22.043105,11.32322 32.158766,21.979434 L 37.068811,17.246167 C 37.068811,17.246167 37.088388,32 37.088388,32 L 22.160133,31.978069 C 22.160133,31.978069 26.997745,27.140456 26.997745,27.140456 C 18.528582,18.264221 13.291696,25.230495 11.500037,31.436501 z"
             style="fill:#404040;"/>
          </a>
         </g>
        </svg>
</svg>
