<?xml version="1.0" encoding="UTF-8" standalone="no"?>
<!DOCTYPE svg PUBLIC "-//W3C//DTD SVG 1.1//EN"
 "http://www.w3.org/Graphics/SVG/1.1/DTD/svg11.dtd">
<!-- Generated by graphviz version 9.0.0 (20230911.1827)
 -->
<!-- Title: yaclib::detail::PromiseCore&lt; V, E, Func &gt; Pages: 1 -->
<!--zoomable 236 -->

<svg id="main" version="1.1" xmlns="http://www.w3.org/2000/svg" xmlns:xlink="http://www.w3.org/1999/xlink" xml:space="preserve" onload="init(evt)">
<style type="text/css"><![CDATA[
.node, .edge {opacity: 0.7;}
.node.selected, .edge.selected {opacity: 1;}
.edge:hover path { stroke: red; }
.edge:hover polygon { stroke: red; fill: red; }
]]></style>

<defs>
  <circle id="rim" cx="0" cy="0" r="7"/>
  <circle id="rim2" cx="0" cy="0" r="3.5"/>
  <g id="zoomPlus">
    <use xlink:href="#rim" fill="#404040"><set attributeName="fill" to="#808080" begin="zoomplus.mouseover" end="zoomplus.mouseout"/></use>
    <path d="M-4,0h8M0,-4v8" fill="none" stroke="white" stroke-width="1.5" pointer-events="none"/>
  </g>
  <g id="zoomMin">
    <use xlink:href="#rim" fill="#404040"><set attributeName="fill" to="#808080" begin="zoomminus.mouseover" end="zoomminus.mouseout"/></use>
    <path d="M-4,0h8" fill="none" stroke="white" stroke-width="1.5" pointer-events="none"/>
  </g>
  <g id="arrowUp" transform="translate(30 24)">
    <use xlink:href="#rim"/>
    <path pointer-events="none" fill="none" stroke="white" stroke-width="1.5" d="M0,-3.0v7 M-2.5,-0.5L0,-3.0L2.5,-0.5"/>
  </g>
  <g id="arrowRight" transform="rotate(90) translate(36 -43)">
    <use xlink:href="#rim"/>
    <path pointer-events="none" fill="none" stroke="white" stroke-width="1.5" d="M0,-3.0v7 M-2.5,-0.5L0,-3.0L2.5,-0.5"/>
  </g>
  <g id="arrowDown" transform="rotate(180) translate(-30 -48)">
    <use xlink:href="#rim"/>
    <path pointer-events="none" fill="none" stroke="white" stroke-width="1.5" d="M0,-3.0v7 M-2.5,-0.5L0,-3.0L2.5,-0.5"/>
  </g>
  <g id="arrowLeft" transform="rotate(270) translate(-36 17)">
    <use xlink:href="#rim"/>
    <path pointer-events="none" fill="none" stroke="white" stroke-width="1.5" d="M0,-3.0v7 M-2.5,-0.5L0,-3.0L2.5,-0.5"/>
  </g>
  <g id="resetDef">
    <use xlink:href="#rim2" fill="#404040"><set attributeName="fill" to="#808080" begin="reset.mouseover" end="reset.mouseout"/></use>
  </g>
</defs>
<script type="application/ecmascript">
var viewWidth = 1477;
var viewHeight = 236;
var sectionId = 'dynsection-1';
</script>
<script type="application/ecmascript" xlink:href="svg.min.js"/>
<svg id="graph" class="graph">
<g id="viewport">
<title>yaclib::detail::PromiseCore&lt; V, E, Func &gt;</title>
<!-- Node1 -->
<g id="Node000001" class="node">
<title>Node1</title>
<g id="a_Node000001"><a xlink:title=" ">
<polygon fill="#999999" stroke="#666666" points="1468.75,-122.5 1339.5,-122.5 1339.5,-92 1468.75,-92 1468.75,-122.5"/>
<text text-anchor="start" x="1347.5" y="-109" font-family="Helvetica,sans-Serif" font-size="10.00">yaclib::detail::PromiseCore</text>
<text text-anchor="middle" x="1404.12" y="-97.75" font-family="Helvetica,sans-Serif" font-size="10.00">&lt; V, E, Func &gt;</text>
</a>
</g>
</g>
<!-- Node2 -->
<g id="Node000002" class="node">
<title>Node2</title>
<g id="a_Node000002"><a xlink:href="classyaclib_1_1detail_1_1UniqueCore.html" target="_top" xlink:title=" ">
<polygon fill="white" stroke="#666666" points="1302.5,-151.5 1178.5,-151.5 1178.5,-121 1302.5,-121 1302.5,-151.5"/>
<text text-anchor="start" x="1186.5" y="-138" font-family="Helvetica,sans-Serif" font-size="10.00">yaclib::detail::UniqueCore</text>
<text text-anchor="middle" x="1240.5" y="-126.75" font-family="Helvetica,sans-Serif" font-size="10.00">&lt; V, E &gt;</text>
</a>
</g>
</g>
<!-- Node2&#45;&gt;Node1 -->
<g id="edge1_Node000001_Node000002" class="edge">
<title>Node2&#45;&gt;Node1</title>
<g id="a_edge1_Node000001_Node000002"><a xlink:title=" ">
<path fill="none" stroke="#63b8ff" d="M1313.69,-123.3C1322.21,-121.77 1330.85,-120.22 1339.24,-118.71"/>
<polygon fill="#63b8ff" stroke="#63b8ff" points="1313.32,-119.81 1304.09,-125.02 1314.55,-126.7 1313.32,-119.81"/>
</a>
</g>
</g>
<!-- Node3 -->
<g id="Node000003" class="node">
<title>Node3</title>
<g id="a_Node000003"><a xlink:href="classyaclib_1_1detail_1_1ResultCore.html" target="_top" xlink:title=" ">
<polygon fill="white" stroke="#666666" points="1116.25,-156.5 995.25,-156.5 995.25,-126 1116.25,-126 1116.25,-156.5"/>
<text text-anchor="start" x="1003.25" y="-143" font-family="Helvetica,sans-Serif" font-size="10.00">yaclib::detail::ResultCore</text>
<text text-anchor="middle" x="1055.75" y="-131.75" font-family="Helvetica,sans-Serif" font-size="10.00">&lt; V, E &gt;</text>
</a>
</g>
</g>
<!-- Node3&#45;&gt;Node2 -->
<g id="edge2_Node000002_Node000003" class="edge">
<title>Node3&#45;&gt;Node2</title>
<g id="a_edge2_Node000002_Node000003"><a xlink:title=" ">
<path fill="none" stroke="#63b8ff" d="M1127.92,-139.3C1144.55,-138.85 1162.12,-138.37 1178.27,-137.93"/>
<polygon fill="#63b8ff" stroke="#63b8ff" points="1128,-135.8 1118.1,-139.57 1128.19,-142.8 1128,-135.8"/>
</a>
</g>
</g>
<!-- Node4 -->
<g id="Node000004" class="node">
<title>Node4</title>
<g id="a_Node000004"><a xlink:href="classyaclib_1_1detail_1_1BaseCore.html" target="_top" xlink:title=" ">
<polygon fill="white" stroke="#666666" points="888.38,-104.88 772.62,-104.88 772.62,-85.62 888.38,-85.62 888.38,-104.88"/>
<text text-anchor="middle" x="830.5" y="-91.38" font-family="Helvetica,sans-Serif" font-size="10.00">yaclib::detail::BaseCore</text>
</a>
</g>
</g>
<!-- Node4&#45;&gt;Node3 -->
<g id="edge3_Node000003_Node000004" class="edge">
<title>Node4&#45;&gt;Node3</title>
<g id="a_edge3_Node000003_Node000004"><a xlink:title=" ">
<path fill="none" stroke="#63b8ff" d="M891.53,-107.62C923.65,-114.24 963.09,-122.36 995.15,-128.97"/>
<polygon fill="#63b8ff" stroke="#63b8ff" points="892.48,-104.24 881.98,-105.65 891.06,-111.1 892.48,-104.24"/>
</a>
</g>
</g>
<!-- Node5 -->
<g id="Node000005" class="node">
<title>Node5</title>
<g id="a_Node000005"><a xlink:href="classyaclib_1_1detail_1_1InlineCore.html" target="_top" xlink:title=" ">
<polygon fill="white" stroke="#666666" points="648.5,-67.88 532,-67.88 532,-48.62 648.5,-48.62 648.5,-67.88"/>
<text text-anchor="middle" x="590.25" y="-54.38" font-family="Helvetica,sans-Serif" font-size="10.00">yaclib::detail::InlineCore</text>
</a>
</g>
</g>
<!-- Node5&#45;&gt;Node4 -->
<g id="edge4_Node000004_Node000005" class="edge">
<title>Node5&#45;&gt;Node4</title>
<g id="a_edge4_Node000004_Node000005"><a xlink:title=" ">
<path fill="none" stroke="#63b8ff" d="M660.2,-68.96C695.77,-74.48 738.65,-81.14 772.36,-86.38"/>
<polygon fill="#63b8ff" stroke="#63b8ff" points="660.84,-65.52 650.42,-67.44 659.76,-72.43 660.84,-65.52"/>
</a>
</g>
</g>
<!-- Node6 -->
<g id="Node000006" class="node">
<title>Node6</title>
<g id="a_Node000006"><a xlink:href="classyaclib_1_1Job.html" target="_top" xlink:title="Callable that can be executed in an IExecutor.">
<polygon fill="white" stroke="#666666" points="388,-67.88 327,-67.88 327,-48.62 388,-48.62 388,-67.88"/>
<text text-anchor="middle" x="357.5" y="-54.38" font-family="Helvetica,sans-Serif" font-size="10.00">yaclib::Job</text>
</a>
</g>
</g>
<!-- Node6&#45;&gt;Node5 -->
<g id="edge5_Node000005_Node000006" class="edge">
<title>Node6&#45;&gt;Node5</title>
<g id="a_edge5_Node000005_Node000006"><a xlink:title=" ">
<path fill="none" stroke="#63b8ff" d="M399.48,-58.25C436.27,-58.25 490.66,-58.25 531.79,-58.25"/>
<polygon fill="#63b8ff" stroke="#63b8ff" points="399.71,-54.75 389.71,-58.25 399.71,-61.75 399.71,-54.75"/>
</a>
</g>
</g>
<!-- Node7 -->
<g id="Node000007" class="node">
<title>Node7</title>
<g id="a_Node000007"><a xlink:href="classyaclib_1_1IFunc.html" target="_top" xlink:title="Callable interface.">
<polygon fill="white" stroke="#666666" points="241.25,-46.88 171.25,-46.88 171.25,-27.62 241.25,-27.62 241.25,-46.88"/>
<text text-anchor="middle" x="206.25" y="-33.38" font-family="Helvetica,sans-Serif" font-size="10.00">yaclib::IFunc</text>
</a>
</g>
</g>
<!-- Node7&#45;&gt;Node6 -->
<g id="edge6_Node000006_Node000007" class="edge">
<title>Node7&#45;&gt;Node6</title>
<g id="a_edge6_Node000006_Node000007"><a xlink:title=" ">
<path fill="none" stroke="#63b8ff" d="M252.88,-43.67C276.96,-47.06 305.82,-51.12 326.95,-54.09"/>
<polygon fill="#63b8ff" stroke="#63b8ff" points="253.38,-40.21 242.99,-42.28 252.4,-47.14 253.38,-40.21"/>
</a>
</g>
</g>
<!-- Node8 -->
<g id="Node000008" class="node">
<title>Node8</title>
<g id="a_Node000008"><a xlink:href="classyaclib_1_1IRef.html" target="_top" xlink:title="Reference counting interface.">
<polygon fill="white" stroke="#666666" points="63.25,-89.88 0,-89.88 0,-70.62 63.25,-70.62 63.25,-89.88"/>
<text text-anchor="middle" x="31.62" y="-76.38" font-family="Helvetica,sans-Serif" font-size="10.00">yaclib::IRef</text>
</a>
</g>
</g>
<!-- Node8&#45;&gt;Node7 -->
<g id="edge7_Node000007_Node000008" class="edge">
<title>Node8&#45;&gt;Node7</title>
<g id="a_edge7_Node000007_Node000008"><a xlink:title=" ">
<path fill="none" stroke="#63b8ff" d="M74.3,-69.87C103.84,-62.51 143.02,-52.75 170.8,-45.83"/>
<polygon fill="#63b8ff" stroke="#63b8ff" points="73.81,-66.38 64.96,-72.2 75.51,-73.18 73.81,-66.38"/>
</a>
</g>
</g>
<!-- Node16 -->
<g id="Node000016" class="node">
<title>Node16</title>
<g id="a_Node000016"><a xlink:href="structyaclib_1_1detail_1_1Callback.html" target="_top" xlink:title=" ">
<polygon fill="white" stroke="#666666" points="261.5,-150.88 151,-150.88 151,-131.62 261.5,-131.62 261.5,-150.88"/>
<text text-anchor="middle" x="206.25" y="-137.38" font-family="Helvetica,sans-Serif" font-size="10.00">yaclib::detail::Callback</text>
</a>
</g>
</g>
<!-- Node8&#45;&gt;Node16 -->
<g id="edge17_Node000016_Node000008" class="edge">
<title>Node8&#45;&gt;Node16</title>
<g id="a_edge17_Node000016_Node000008"><a xlink:title=" ">
<path fill="none" stroke="#9a32cd" stroke-dasharray="5,2" d="M71.58,-94.12C94.66,-102.32 124.49,-112.9 151,-122.25 159.28,-125.17 168.28,-128.33 176.52,-131.21"/>
<polygon fill="#9a32cd" stroke="#9a32cd" points="72.86,-90.86 62.26,-90.8 70.51,-97.45 72.86,-90.86"/>
</a>
</g>
<text text-anchor="middle" x="107.12" y="-117" font-family="Helvetica,sans-Serif" font-size="10.00" fill="grey"> caller</text>
</g>
<!-- Node9 -->
<g id="Node000009" class="node">
<title>Node9</title>
<g id="a_Node000009"><a xlink:href="structyaclib_1_1detail_1_1Node.html" target="_top" xlink:title="Node class, used in intrusive data structure.">
<polygon fill="white" stroke="#666666" points="254.38,-83.88 158.12,-83.88 158.12,-64.62 254.38,-64.62 254.38,-83.88"/>
<text text-anchor="middle" x="206.25" y="-70.38" font-family="Helvetica,sans-Serif" font-size="10.00">yaclib::detail::Node</text>
</a>
</g>
</g>
<!-- Node9&#45;&gt;Node6 -->
<g id="edge8_Node000006_Node000009" class="edge">
<title>Node9&#45;&gt;Node6</title>
<g id="a_edge8_Node000006_Node000009"><a xlink:title=" ">
<path fill="none" stroke="#63b8ff" d="M265.87,-67.97C286.8,-65.72 309.48,-63.29 326.92,-61.42"/>
<polygon fill="#63b8ff" stroke="#63b8ff" points="265.55,-64.48 255.98,-69.03 266.29,-71.44 265.55,-64.48"/>
</a>
</g>
</g>
<!-- Node9&#45;&gt;Node9 -->
<g id="edge9_Node000009_Node000009" class="edge">
<title>Node9&#45;&gt;Node9</title>
<g id="a_edge9_Node000009_Node000009"><a xlink:title=" ">
<path fill="none" stroke="#9a32cd" stroke-dasharray="5,2" d="M193.16,-95.28C194.8,-99.15 199.16,-101.88 206.25,-101.88 219.21,-101.88 223.06,-92.77 217.8,-84.16"/>
<polygon fill="#9a32cd" stroke="#9a32cd" points="196.59,-96.05 194.5,-85.66 189.65,-95.09 196.59,-96.05"/>
</a>
</g>
<text text-anchor="middle" x="206.25" y="-103.62" font-family="Helvetica,sans-Serif" font-size="10.00" fill="grey"> next</text>
</g>
<!-- Node10 -->
<g id="Node000010" class="node">
<title>Node10</title>
<g id="a_Node000010"><a xlink:href="classyaclib_1_1IntrusivePtr.html" target="_top" xlink:title=" ">
<polygon fill="white" stroke="#666666" points="638,-30.5 542.5,-30.5 542.5,0 638,0 638,-30.5"/>
<text text-anchor="start" x="550.5" y="-17" font-family="Helvetica,sans-Serif" font-size="10.00">yaclib::IntrusivePtr</text>
<text text-anchor="middle" x="590.25" y="-5.75" font-family="Helvetica,sans-Serif" font-size="10.00">&lt; IExecutor &gt;</text>
</a>
</g>
</g>
<!-- Node10&#45;&gt;Node4 -->
<g id="edge10_Node000004_Node000010" class="edge">
<title>Node10&#45;&gt;Node4</title>
<g id="a_edge10_Node000004_Node000010"><a xlink:title=" ">
<path fill="none" stroke="#9a32cd" stroke-dasharray="5,2" d="M649.31,-26.6C672.09,-32.85 697.65,-42.23 718.25,-56 728.54,-62.88 725.57,-71 736.25,-77.25 747.21,-83.66 760.01,-87.84 772.56,-90.56"/>
<polygon fill="#9a32cd" stroke="#9a32cd" points="650.41,-23.27 639.85,-24.16 648.65,-30.05 650.41,-23.27"/>
</a>
</g>
<text text-anchor="middle" x="696.12" y="-57" font-family="Helvetica,sans-Serif" font-size="10.00" fill="grey"> _executor</text>
</g>
<!-- Node11 -->
<g id="Node000011" class="node">
<title>Node11</title>
<g id="a_Node000011"><a xlink:href="classyaclib_1_1IntrusivePtr.html" target="_top" xlink:title="A intrusive pointer to objects with an embedded reference count.">
<polygon fill="white" stroke="#666666" points="416.5,-24.88 298.5,-24.88 298.5,-5.62 416.5,-5.62 416.5,-24.88"/>
<text text-anchor="middle" x="357.5" y="-11.38" font-family="Helvetica,sans-Serif" font-size="10.00">yaclib::IntrusivePtr&lt; T &gt;</text>
</a>
</g>
</g>
<!-- Node11&#45;&gt;Node10 -->
<g id="edge11_Node000010_Node000011" class="edge">
<title>Node11&#45;&gt;Node10</title>
<g id="a_edge11_Node000010_Node000011"><a xlink:title=" ">
<path fill="none" stroke="orange" stroke-dasharray="5,2" d="M427.94,-15.25C464.91,-15.25 509.4,-15.25 542.28,-15.25"/>
<polygon fill="orange" stroke="orange" points="428.24,-11.75 418.24,-15.25 428.24,-18.75 428.24,-11.75"/>
</a>
</g>
<text text-anchor="middle" x="470.5" y="-17" font-family="Helvetica,sans-Serif" font-size="10.00" fill="grey"> &lt; IExecutor &gt;</text>
</g>
<!-- Node12 -->
<g id="Node000012" class="node">
<title>Node12</title>
<g id="a_Node000012"><a xlink:title=" ">
<polygon fill="white" stroke="#666666" points="647.75,-104.88 532.75,-104.88 532.75,-85.62 647.75,-85.62 647.75,-104.88"/>
<text text-anchor="middle" x="590.25" y="-91.38" font-family="Helvetica,sans-Serif" font-size="10.00">atomic&lt; std::uintptr_t &gt;</text>
</a>
</g>
</g>
<!-- Node12&#45;&gt;Node4 -->
<g id="edge12_Node000004_Node000012" class="edge">
<title>Node12&#45;&gt;Node4</title>
<g id="a_edge12_Node000004_Node000012"><a xlink:title=" ">
<path fill="none" stroke="#9a32cd" stroke-dasharray="5,2" d="M659.33,-95.25C695.07,-95.25 738.37,-95.25 772.35,-95.25"/>
<polygon fill="#9a32cd" stroke="#9a32cd" points="659.53,-91.75 649.53,-95.25 659.53,-98.75 659.53,-91.75"/>
</a>
</g>
<text text-anchor="middle" x="696.12" y="-97" font-family="Helvetica,sans-Serif" font-size="10.00" fill="grey"> _callback</text>
</g>
<!-- Node13 -->
<g id="Node000013" class="node">
<title>Node13</title>
<g id="a_Node000013"><a xlink:title=" ">
<polygon fill="white" stroke="#666666" points="380.12,-104.88 334.88,-104.88 334.88,-85.62 380.12,-85.62 380.12,-104.88"/>
<text text-anchor="middle" x="357.5" y="-91.38" font-family="Helvetica,sans-Serif" font-size="10.00">atomic</text>
</a>
</g>
</g>
<!-- Node13&#45;&gt;Node12 -->
<g id="edge13_Node000012_Node000013" class="edge">
<title>Node13&#45;&gt;Node12</title>
<g id="a_edge13_Node000012_Node000013"><a xlink:title=" ">
<path fill="none" stroke="orange" stroke-dasharray="5,2" d="M391.26,-95.25C427.98,-95.25 488.2,-95.25 532.59,-95.25"/>
<polygon fill="orange" stroke="orange" points="391.72,-91.75 381.72,-95.25 391.72,-98.75 391.72,-91.75"/>
</a>
</g>
<text text-anchor="middle" x="470.5" y="-97" font-family="Helvetica,sans-Serif" font-size="10.00" fill="grey"> &lt; std::uintptr_t &gt;</text>
</g>
<!-- Node14 -->
<g id="Node000014" class="node">
<title>Node14</title>
<g id="a_Node000014"><a xlink:href="classyaclib_1_1Result.html" target="_top" xlink:title=" ">
<polygon fill="white" stroke="#666666" points="884.25,-225.88 776.75,-225.88 776.75,-206.62 884.25,-206.62 884.25,-225.88"/>
<text text-anchor="middle" x="830.5" y="-212.38" font-family="Helvetica,sans-Serif" font-size="10.00">yaclib::Result&lt; V, E &gt;</text>
</a>
</g>
</g>
<!-- Node14&#45;&gt;Node3 -->
<g id="edge14_Node000003_Node000014" class="edge">
<title>Node14&#45;&gt;Node3</title>
<g id="a_edge14_Node000003_Node000014"><a xlink:title=" ">
<path fill="none" stroke="#9a32cd" stroke-dasharray="5,2" d="M895.38,-205.88C905.31,-203.71 915.37,-201.17 924.75,-198.25 949.07,-190.68 953.92,-185.48 977.25,-175.25 990.84,-169.29 1005.77,-162.74 1018.87,-157"/>
<polygon fill="#9a32cd" stroke="#9a32cd" points="894.85,-202.41 885.77,-207.87 896.27,-209.27 894.85,-202.41"/>
</a>
</g>
<text text-anchor="middle" x="960" y="-193" font-family="Helvetica,sans-Serif" font-size="10.00" fill="grey"> _result</text>
</g>
<!-- Node15 -->
<g id="Node000015" class="node">
<title>Node15</title>
<g id="a_Node000015"><a xlink:href="classyaclib_1_1Result.html" target="_top" xlink:title="Encapsulated return value from caller.">
<polygon fill="white" stroke="#666666" points="656,-225.88 524.5,-225.88 524.5,-206.62 656,-206.62 656,-225.88"/>
<text text-anchor="middle" x="590.25" y="-212.38" font-family="Helvetica,sans-Serif" font-size="10.00">yaclib::Result&lt; ValueT, E &gt;</text>
</a>
</g>
</g>
<!-- Node15&#45;&gt;Node14 -->
<g id="edge15_Node000014_Node000015" class="edge">
<title>Node15&#45;&gt;Node14</title>
<g id="a_edge15_Node000014_Node000015"><a xlink:title=" ">
<path fill="none" stroke="orange" stroke-dasharray="5,2" d="M667.66,-216.25C703.16,-216.25 744.5,-216.25 776.51,-216.25"/>
<polygon fill="orange" stroke="orange" points="667.87,-212.75 657.87,-216.25 667.87,-219.75 667.87,-212.75"/>
</a>
</g>
<text text-anchor="middle" x="696.12" y="-218" font-family="Helvetica,sans-Serif" font-size="10.00" fill="grey"> &lt; V, E &gt;</text>
</g>
<!-- Node16&#45;&gt;Node3 -->
<g id="edge16_Node000003_Node000016" class="edge">
<title>Node16&#45;&gt;Node3</title>
<g id="a_edge16_Node000003_Node000016"><a xlink:title=" ">
<path fill="none" stroke="#9a32cd" stroke-dasharray="5,2" d="M273.08,-141.25C299.07,-141.25 329.19,-141.25 356.5,-141.25 356.5,-141.25 356.5,-141.25 831.5,-141.25 886.92,-141.25 950.09,-141.25 995.05,-141.25"/>
<polygon fill="#9a32cd" stroke="#9a32cd" points="273.35,-137.75 263.35,-141.25 273.35,-144.75 273.35,-137.75"/>
</a>
</g>
<text text-anchor="middle" x="590.25" y="-143" font-family="Helvetica,sans-Serif" font-size="10.00" fill="grey"> _self</text>
</g>
<!-- Node17 -->
<g id="Node000017" class="node">
<title>Node17</title>
<g id="a_Node000017"><a xlink:title=" ">
<polygon fill="white" stroke="#666666" points="49,-150.88 14.25,-150.88 14.25,-131.62 49,-131.62 49,-150.88"/>
<text text-anchor="middle" x="31.62" y="-137.38" font-family="Helvetica,sans-Serif" font-size="10.00">char</text>
</a>
</g>
</g>
<!-- Node17&#45;&gt;Node16 -->
<g id="edge18_Node000016_Node000017" class="edge">
<title>Node17&#45;&gt;Node16</title>
<g id="a_edge18_Node000016_Node000017"><a xlink:title=" ">
<path fill="none" stroke="#9a32cd" stroke-dasharray="5,2" d="M60.72,-141.25C84.99,-141.25 120.76,-141.25 150.64,-141.25"/>
<polygon fill="#9a32cd" stroke="#9a32cd" points="61,-137.75 51,-141.25 61,-144.75 61,-137.75"/>
</a>
</g>
<text text-anchor="middle" x="107.12" y="-143" font-family="Helvetica,sans-Serif" font-size="10.00" fill="grey"> unwrapping</text>
</g>
<!-- Node18 -->
<g id="Node000018" class="node">
<title>Node18</title>
<g id="a_Node000018"><a xlink:title=" ">
<polygon fill="white" stroke="#666666" points="872.25,-188.88 788.75,-188.88 788.75,-169.62 872.25,-169.62 872.25,-188.88"/>
<text text-anchor="middle" x="830.5" y="-175.38" font-family="Helvetica,sans-Serif" font-size="10.00">anonymous:@1</text>
</a>
</g>
</g>
<!-- Node18&#45;&gt;Node3 -->
<g id="edge19_Node000003_Node000018" class="edge">
<title>Node18&#45;&gt;Node3</title>
<g id="a_edge19_Node000003_Node000018"><a xlink:title=" ">
<path fill="none" stroke="#9a32cd" stroke-dasharray="5,2" d="M883.74,-170.85C911.53,-166.33 946.27,-160.6 977.25,-155.25 983.04,-154.25 989.08,-153.19 995.11,-152.12"/>
<polygon fill="#9a32cd" stroke="#9a32cd" points="883.48,-167.35 874.17,-172.4 884.6,-174.25 883.48,-167.35"/>
</a>
</g>
<text text-anchor="middle" x="960" y="-162" font-family="Helvetica,sans-Serif" font-size="10.00" fill="grey"> @1</text>
</g>
<!-- Node19 -->
<g id="Node000019" class="node">
<title>Node19</title>
<g id="a_Node000019"><a xlink:href="classyaclib_1_1detail_1_1FuncCore.html" target="_top" xlink:title=" ">
<polygon fill="white" stroke="#666666" points="1298,-98.5 1183,-98.5 1183,-68 1298,-68 1298,-98.5"/>
<text text-anchor="start" x="1191" y="-85" font-family="Helvetica,sans-Serif" font-size="10.00">yaclib::detail::FuncCore</text>
<text text-anchor="middle" x="1240.5" y="-73.75" font-family="Helvetica,sans-Serif" font-size="10.00">&lt; Func &gt;</text>
</a>
</g>
</g>
<!-- Node19&#45;&gt;Node1 -->
<g id="edge20_Node000001_Node000019" class="edge">
<title>Node19&#45;&gt;Node1</title>
<g id="a_edge20_Node000001_Node000019"><a xlink:title=" ">
<path fill="none" stroke="#63b8ff" d="M1309.79,-93.39C1319.54,-94.84 1329.55,-96.32 1339.22,-97.76"/>
<polygon fill="#63b8ff" stroke="#63b8ff" points="1310.39,-89.94 1299.98,-91.93 1309.36,-96.86 1310.39,-89.94"/>
</a>
</g>
</g>
<!-- Node20 -->
<g id="Node000020" class="node">
<title>Node20</title>
<g id="a_Node000020"><a xlink:href="unionyaclib_1_1detail_1_1FuncCore_1_1State.html" target="_top" xlink:title=" ">
<polygon fill="white" stroke="#666666" points="1113.25,-73.5 998.25,-73.5 998.25,-43 1113.25,-43 1113.25,-73.5"/>
<text text-anchor="start" x="1006.25" y="-60" font-family="Helvetica,sans-Serif" font-size="10.00">yaclib::detail::FuncCore</text>
<text text-anchor="middle" x="1055.75" y="-48.75" font-family="Helvetica,sans-Serif" font-size="10.00">&lt; Func &gt;::State</text>
</a>
</g>
</g>
<!-- Node20&#45;&gt;Node19 -->
<g id="edge21_Node000019_Node000020" class="edge">
<title>Node20&#45;&gt;Node19</title>
<g id="a_edge21_Node000019_Node000020"><a xlink:title=" ">
<path fill="none" stroke="#9a32cd" stroke-dasharray="5,2" d="M1124.89,-67.57C1143.93,-70.18 1164.41,-72.98 1182.71,-75.48"/>
<polygon fill="#9a32cd" stroke="#9a32cd" points="1125.45,-64.12 1115.07,-66.23 1124.5,-71.05 1125.45,-64.12"/>
</a>
</g>
<text text-anchor="middle" x="1147.38" y="-73" font-family="Helvetica,sans-Serif" font-size="10.00" fill="grey"> _func</text>
</g>
<!-- Node21 -->
<g id="Node000021" class="node">
<title>Node21</title>
<g id="a_Node000021"><a xlink:title=" ">
<polygon fill="white" stroke="#666666" points="924.75,-67.88 736.25,-67.88 736.25,-48.62 924.75,-48.62 924.75,-67.88"/>
<text text-anchor="middle" x="830.5" y="-54.38" font-family="Helvetica,sans-Serif" font-size="10.00">YACLIB_NO_UNIQUE_ADDRESS Unit</text>
</a>
</g>
</g>
<!-- Node21&#45;&gt;Node20 -->
<g id="edge22_Node000020_Node000021" class="edge">
<title>Node21&#45;&gt;Node20</title>
<g id="a_edge22_Node000020_Node000021"><a xlink:title=" ">
<path fill="none" stroke="#9a32cd" stroke-dasharray="5,2" d="M936.56,-58.25C957.71,-58.25 979.18,-58.25 997.91,-58.25"/>
<polygon fill="#9a32cd" stroke="#9a32cd" points="936.72,-54.75 926.72,-58.25 936.72,-61.75 936.72,-54.75"/>
</a>
</g>
<text text-anchor="middle" x="960" y="-60" font-family="Helvetica,sans-Serif" font-size="10.00" fill="grey"> stub</text>
</g>
<!-- Node22 -->
<g id="Node000022" class="node">
<title>Node22</title>
<g id="a_Node000022"><a xlink:title=" ">
<polygon fill="white" stroke="#666666" points="914.62,-30.5 746.38,-30.5 746.38,0 914.62,0 914.62,-30.5"/>
<text text-anchor="start" x="754.38" y="-17" font-family="Helvetica,sans-Serif" font-size="10.00">YACLIB_NO_UNIQUE_ADDRESS</text>
<text text-anchor="middle" x="830.5" y="-5.75" font-family="Helvetica,sans-Serif" font-size="10.00"> Storage</text>
</a>
</g>
</g>
<!-- Node22&#45;&gt;Node20 -->
<g id="edge23_Node000020_Node000022" class="edge">
<title>Node22&#45;&gt;Node20</title>
<g id="a_edge23_Node000020_Node000022"><a xlink:title=" ">
<path fill="none" stroke="#9a32cd" stroke-dasharray="5,2" d="M925.57,-33.07C942.77,-36.36 960.55,-39.77 977.25,-43 983.98,-44.3 991.04,-45.68 998.04,-47.05"/>
<polygon fill="#9a32cd" stroke="#9a32cd" points="926.34,-29.66 915.86,-31.22 925.03,-36.53 926.34,-29.66"/>
</a>
</g>
<text text-anchor="middle" x="960" y="-45" font-family="Helvetica,sans-Serif" font-size="10.00" fill="grey"> storage</text>
</g>
</g>
</svg>

<g id="navigator" transform="translate(0 0)" fill="#404254">
  <rect fill="#f2f5e9" fill-opacity="0.5" stroke="#606060" stroke-width=".5" x="0" y="0" width="60" height="60"/>
  <use id="zoomplus" xlink:href="#zoomPlus" x="17" y="9" onmousedown="handleZoom(evt,'in')"/>
  <use id="zoomminus" xlink:href="#zoomMin" x="42" y="9" onmousedown="handleZoom(evt,'out')"/>
  <use id="reset" xlink:href="#resetDef" x="30" y="36" onmousedown="handleReset()"/>
   <use id="arrowup" xlink:href="#arrowUp" x="0" y="0" onmousedown="handlePan(0,-1)"/>
  <use id="arrowright" xlink:href="#arrowRight" x="0" y="0" onmousedown="handlePan(1,0)"/>
  <use id="arrowdown" xlink:href="#arrowDown" x="0" y="0" onmousedown="handlePan(0,1)"/>
  <use id="arrowleft" xlink:href="#arrowLeft" x="0" y="0" onmousedown="handlePan(-1,0)"/>
</g>
<svg viewBox="0 0 15 15" width="100%" height="30px" preserveAspectRatio="xMaxYMin meet">
 <g id="arrow_out" transform="scale(0.3 0.3)">
  <a xlink:href="classyaclib_1_1detail_1_1PromiseCore__coll__graph_org.svg" target="_base">
   <rect id="button" ry="5" rx="5" y="6" x="6" height="38" width="38"
        fill="#f2f5e9" fill-opacity="0.5" stroke="#606060" stroke-width="1.0"/>
   <path id="arrow"
     d="M 11.500037,31.436501 C 11.940474,20.09759 22.043105,11.32322 32.158766,21.979434 L 37.068811,17.246167 C 37.068811,17.246167 37.088388,32 37.088388,32 L 22.160133,31.978069 C 22.160133,31.978069 26.997745,27.140456 26.997745,27.140456 C 18.528582,18.264221 13.291696,25.230495 11.500037,31.436501 z"
     style="fill:#404040;"/>
  </a>
 </g>
</svg>

<style type='text/css'>
<![CDATA[
[data-mouse-over-selected='false'] { opacity: 0.7; }
[data-mouse-over-selected='true']  { opacity: 1.0; }
]]>
</style>
<script type="application/ecmascript"><![CDATA[
document.addEventListener('DOMContentLoaded', (event) => {
  highlightEdges();
  highlightAdjacentNodes();
});
]]></script>
</svg>
