<?xml version="1.0" encoding="UTF-8" standalone="no"?>
<!DOCTYPE svg PUBLIC "-//W3C//DTD SVG 1.1//EN"
 "http://www.w3.org/Graphics/SVG/1.1/DTD/svg11.dtd">
<!-- Generated by graphviz version 3.0.0 (20221109.1736)
 -->
<!-- Title: yaclib::detail::AnyCombinator&lt; V, E, P &gt; Pages: 1 -->
<svg width="312pt" height="274pt"
 viewBox="0.00 0.00 311.50 274.00" xmlns="http://www.w3.org/2000/svg" xmlns:xlink="http://www.w3.org/1999/xlink">
<g id="graph0" class="graph" transform="scale(1 1) rotate(0) translate(4 270)">
<title>yaclib::detail::AnyCombinator&lt; V, E, P &gt;</title>
<!-- Node1 -->
<g id="node1" class="node">
<title>Node1</title>
<g id="a_node1"><a xlink:title=" ">
<polygon fill="#bfbfbf" stroke="black" points="89.5,-0.5 89.5,-30.5 229.5,-30.5 229.5,-0.5 89.5,-0.5"/>
<text text-anchor="start" x="97.5" y="-18.5" font-family="Helvetica,sans-Serif" font-size="10.00">yaclib::detail::AnyCombinator</text>
<text text-anchor="middle" x="159.5" y="-7.5" font-family="Helvetica,sans-Serif" font-size="10.00">&lt; V, E, P &gt;</text>
</a>
</g>
</g>
<!-- Node2 -->
<g id="node2" class="node">
<title>Node2</title>
<g id="a_node2"><a xlink:href="classyaclib_1_1detail_1_1InlineCore.html" target="_top" xlink:title=" ">
<polygon fill="none" stroke="black" points="28,-73 28,-92 145,-92 145,-73 28,-73"/>
<text text-anchor="middle" x="86.5" y="-80" font-family="Helvetica,sans-Serif" font-size="10.00">yaclib::detail::InlineCore</text>
</a>
</g>
</g>
<!-- Node2&#45;&gt;Node1 -->
<g id="edge1" class="edge">
<title>Node2&#45;&gt;Node1</title>
<path fill="none" stroke="midnightblue" d="M103.99,-65.93C116.06,-55.18 131.98,-41 143.68,-30.59"/>
<polygon fill="midnightblue" stroke="midnightblue" points="101.49,-63.47 96.35,-72.73 106.14,-68.7 101.49,-63.47"/>
</g>
<!-- Node3 -->
<g id="node3" class="node">
<title>Node3</title>
<g id="a_node3"><a xlink:href="classyaclib_1_1Job.html" target="_top" xlink:title="Callable that can be executed in an IExecutor.">
<polygon fill="none" stroke="black" points="55.5,-134.5 55.5,-153.5 117.5,-153.5 117.5,-134.5 55.5,-134.5"/>
<text text-anchor="middle" x="86.5" y="-141.5" font-family="Helvetica,sans-Serif" font-size="10.00">yaclib::Job</text>
</a>
</g>
</g>
<!-- Node3&#45;&gt;Node2 -->
<g id="edge2" class="edge">
<title>Node3&#45;&gt;Node2</title>
<path fill="none" stroke="midnightblue" d="M86.5,-124.32C86.5,-113.5 86.5,-100.4 86.5,-92.01"/>
<polygon fill="midnightblue" stroke="midnightblue" points="83,-124.48 86.5,-134.48 90,-124.48 83,-124.48"/>
</g>
<!-- Node4 -->
<g id="node4" class="node">
<title>Node4</title>
<g id="a_node4"><a xlink:href="classyaclib_1_1IFunc.html" target="_top" xlink:title="Callable interface.">
<polygon fill="none" stroke="black" points="0,-190.5 0,-209.5 71,-209.5 71,-190.5 0,-190.5"/>
<text text-anchor="middle" x="35.5" y="-197.5" font-family="Helvetica,sans-Serif" font-size="10.00">yaclib::IFunc</text>
</a>
</g>
</g>
<!-- Node4&#45;&gt;Node3 -->
<g id="edge3" class="edge">
<title>Node4&#45;&gt;Node3</title>
<path fill="none" stroke="midnightblue" d="M50.88,-182.72C59.87,-173.2 70.86,-161.56 78.24,-153.75"/>
<polygon fill="midnightblue" stroke="midnightblue" points="48.24,-180.41 43.92,-190.08 53.33,-185.22 48.24,-180.41"/>
</g>
<!-- Node5 -->
<g id="node5" class="node">
<title>Node5</title>
<g id="a_node5"><a xlink:href="classyaclib_1_1IRef.html" target="_top" xlink:title="Reference counting interface.">
<polygon fill="none" stroke="black" points="3.5,-246.5 3.5,-265.5 67.5,-265.5 67.5,-246.5 3.5,-246.5"/>
<text text-anchor="middle" x="35.5" y="-253.5" font-family="Helvetica,sans-Serif" font-size="10.00">yaclib::IRef</text>
</a>
</g>
</g>
<!-- Node5&#45;&gt;Node4 -->
<g id="edge4" class="edge">
<title>Node5&#45;&gt;Node4</title>
<path fill="none" stroke="midnightblue" d="M35.5,-235.8C35.5,-226.91 35.5,-216.78 35.5,-209.75"/>
<polygon fill="midnightblue" stroke="midnightblue" points="32,-236.08 35.5,-246.08 39,-236.08 32,-236.08"/>
</g>
<!-- Node6 -->
<g id="node6" class="node">
<title>Node6</title>
<g id="a_node6"><a xlink:href="structyaclib_1_1detail_1_1Node.html" target="_top" xlink:title="Node class, used in intrusive data structure.">
<polygon fill="none" stroke="black" points="89,-190.5 89,-209.5 186,-209.5 186,-190.5 89,-190.5"/>
<text text-anchor="middle" x="137.5" y="-197.5" font-family="Helvetica,sans-Serif" font-size="10.00">yaclib::detail::Node</text>
</a>
</g>
</g>
<!-- Node6&#45;&gt;Node3 -->
<g id="edge5" class="edge">
<title>Node6&#45;&gt;Node3</title>
<path fill="none" stroke="midnightblue" d="M122.12,-182.72C113.13,-173.2 102.14,-161.56 94.76,-153.75"/>
<polygon fill="midnightblue" stroke="midnightblue" points="119.67,-185.22 129.08,-190.08 124.76,-180.41 119.67,-185.22"/>
</g>
<!-- Node7 -->
<g id="node7" class="node">
<title>Node7</title>
<g id="a_node7"><a xlink:href="classyaclib_1_1detail_1_1AnyCombinatorBase.html" target="_top" xlink:title=" ">
<polygon fill="none" stroke="black" points="163.5,-67.5 163.5,-97.5 303.5,-97.5 303.5,-67.5 163.5,-67.5"/>
<text text-anchor="start" x="171.5" y="-85.5" font-family="Helvetica,sans-Serif" font-size="10.00">yaclib::detail::AnyCombinator</text>
<text text-anchor="middle" x="233.5" y="-74.5" font-family="Helvetica,sans-Serif" font-size="10.00">Base&lt; V, E, P &gt;</text>
</a>
</g>
</g>
<!-- Node7&#45;&gt;Node1 -->
<g id="edge6" class="edge">
<title>Node7&#45;&gt;Node1</title>
<path fill="none" stroke="midnightblue" d="M209.7,-60.6C198.53,-50.78 185.51,-39.34 175.53,-30.58"/>
<polygon fill="midnightblue" stroke="midnightblue" points="207.62,-63.43 217.44,-67.4 212.24,-58.17 207.62,-63.43"/>
</g>
</g>
</svg>
