<?xml version="1.0" encoding="UTF-8" standalone="no"?>
<!DOCTYPE svg PUBLIC "-//W3C//DTD SVG 1.1//EN"
 "http://www.w3.org/Graphics/SVG/1.1/DTD/svg11.dtd">
<!-- Generated by graphviz version 9.0.0 (20230911.1827)
 -->
<!-- Title: src/fault/config.cpp Pages: 1 -->
<svg width="420pt" height="138pt"
 viewBox="0.00 0.00 420.12 137.75" xmlns="http://www.w3.org/2000/svg" xmlns:xlink="http://www.w3.org/1999/xlink">

<svg id="main" version="1.1" xmlns="http://www.w3.org/2000/svg" xmlns:xlink="http://www.w3.org/1999/xlink" xml:space="preserve" onload="init(evt)">
<style type="text/css"><![CDATA[
.node, .edge {opacity: 0.7;}
.node.selected, .edge.selected {opacity: 1;}
.edge:hover path { stroke: red; }
.edge:hover polygon { stroke: red; fill: red; }
]]></style>
<script type="application/ecmascript" xlink:href="svg.min.js"/>
<svg id="graph" class="graph">
<g id="graph0" class="graph" transform="scale(1 1) rotate(0) translate(4 133.75)">
<title>src/fault/config.cpp</title>
<!-- Node1 -->
<g id="Node000001" class="node">
<title>Node1</title>
<g id="a_Node000001"><a xlink:title=" ">
<polygon fill="#999999" stroke="#666666" points="276.5,-129.75 178.75,-129.75 178.75,-110.5 276.5,-110.5 276.5,-129.75"/>
<text text-anchor="middle" x="227.62" y="-116.25" font-family="Helvetica,sans-Serif" font-size="10.00">src/fault/config.cpp</text>
</a>
</g>
</g>
<!-- Node2 -->
<g id="Node000002" class="node">
<title>Node2</title>
<g id="a_Node000002"><a xlink:href="util_8hpp.html" target="_top" xlink:title=" ">
<polygon fill="white" stroke="#666666" points="151.88,-74.5 83.38,-74.5 83.38,-55.25 151.88,-55.25 151.88,-74.5"/>
<text text-anchor="middle" x="117.62" y="-61" font-family="Helvetica,sans-Serif" font-size="10.00">fault/util.hpp</text>
</a>
</g>
</g>
<!-- Node1&#45;&gt;Node2 -->
<g id="edge1_Node000001_Node000002" class="edge">
<title>Node1&#45;&gt;Node2</title>
<g id="a_edge1_Node000001_Node000002"><a xlink:title=" ">
<path fill="none" stroke="#63b8ff" d="M208.96,-110.09C191.9,-101.83 166.38,-89.48 146.65,-79.93"/>
<polygon fill="#63b8ff" stroke="#63b8ff" points="148.26,-76.82 137.74,-75.61 145.21,-83.12 148.26,-76.82"/>
</a>
</g>
</g>
<!-- Node6 -->
<g id="Node000006" class="node">
<title>Node6</title>
<g id="a_Node000006"><a xlink:href="config_8hpp.html" target="_top" xlink:title=" ">
<polygon fill="white" stroke="#666666" points="412.12,-74.5 303.12,-74.5 303.12,-55.25 412.12,-55.25 412.12,-74.5"/>
<text text-anchor="middle" x="357.62" y="-61" font-family="Helvetica,sans-Serif" font-size="10.00">yaclib/fault/config.hpp</text>
</a>
</g>
</g>
<!-- Node1&#45;&gt;Node6 -->
<g id="edge5_Node000001_Node000006" class="edge">
<title>Node1&#45;&gt;Node6</title>
<g id="a_edge5_Node000001_Node000006"><a xlink:title=" ">
<path fill="none" stroke="#63b8ff" d="M249.68,-110.09C270.31,-101.64 301.41,-88.9 324.93,-79.27"/>
<polygon fill="#63b8ff" stroke="#63b8ff" points="326.14,-82.56 334.06,-75.53 323.48,-76.08 326.14,-82.56"/>
</a>
</g>
</g>
<!-- Node8 -->
<g id="Node000008" class="node">
<title>Node8</title>
<g id="a_Node000008"><a xlink:href="injector_8hpp.html" target="_top" xlink:title=" ">
<polygon fill="white" stroke="#666666" points="285.12,-74.5 170.12,-74.5 170.12,-55.25 285.12,-55.25 285.12,-74.5"/>
<text text-anchor="middle" x="227.62" y="-61" font-family="Helvetica,sans-Serif" font-size="10.00">yaclib/fault/injector.hpp</text>
</a>
</g>
</g>
<!-- Node1&#45;&gt;Node8 -->
<g id="edge7_Node000001_Node000008" class="edge">
<title>Node1&#45;&gt;Node8</title>
<g id="a_edge7_Node000001_Node000008"><a xlink:title=" ">
<path fill="none" stroke="#63b8ff" d="M227.62,-110.33C227.62,-103.82 227.62,-94.67 227.62,-86.37"/>
<polygon fill="#63b8ff" stroke="#63b8ff" points="231.13,-86.37 227.63,-76.37 224.13,-86.37 231.13,-86.37"/>
</a>
</g>
</g>
<!-- Node3 -->
<g id="Node000003" class="node">
<title>Node3</title>
<g id="a_Node000003"><a xlink:title=" ">
<polygon fill="#e0e0e0" stroke="#999999" points="87.25,-19.25 0,-19.25 0,0 87.25,0 87.25,-19.25"/>
<text text-anchor="middle" x="43.62" y="-5.75" font-family="Helvetica,sans-Serif" font-size="10.00">yaclib/config.hpp</text>
</a>
</g>
</g>
<!-- Node2&#45;&gt;Node3 -->
<g id="edge2_Node000002_Node000003" class="edge">
<title>Node2&#45;&gt;Node3</title>
<g id="a_edge2_Node000002_Node000003"><a xlink:title=" ">
<path fill="none" stroke="#63b8ff" d="M105.07,-54.84C94.16,-46.99 78.12,-35.45 65.16,-26.12"/>
<polygon fill="#63b8ff" stroke="#63b8ff" points="67.38,-23.41 57.22,-20.41 63.29,-29.09 67.38,-23.41"/>
</a>
</g>
</g>
<!-- Node4 -->
<g id="Node000004" class="node">
<title>Node4</title>
<g id="a_Node000004"><a xlink:title=" ">
<polygon fill="#e0e0e0" stroke="#999999" points="239.25,-19.25 194,-19.25 194,0 239.25,0 239.25,-19.25"/>
<text text-anchor="middle" x="216.62" y="-5.75" font-family="Helvetica,sans-Serif" font-size="10.00">atomic</text>
</a>
</g>
</g>
<!-- Node2&#45;&gt;Node4 -->
<g id="edge3_Node000002_Node000004" class="edge">
<title>Node2&#45;&gt;Node4</title>
<g id="a_edge3_Node000002_Node000004"><a xlink:title=" ">
<path fill="none" stroke="#63b8ff" d="M134.42,-54.84C149.64,-46.66 172.32,-34.46 190.01,-24.94"/>
<polygon fill="#63b8ff" stroke="#63b8ff" points="191.27,-28.24 198.42,-20.42 187.95,-22.07 191.27,-28.24"/>
</a>
</g>
</g>
<!-- Node5 -->
<g id="Node000005" class="node">
<title>Node5</title>
<g id="a_Node000005"><a xlink:title=" ">
<polygon fill="#e0e0e0" stroke="#999999" points="153.75,-19.25 105.5,-19.25 105.5,0 153.75,0 153.75,-19.25"/>
<text text-anchor="middle" x="129.62" y="-5.75" font-family="Helvetica,sans-Serif" font-size="10.00">random</text>
</a>
</g>
</g>
<!-- Node2&#45;&gt;Node5 -->
<g id="edge4_Node000002_Node000005" class="edge">
<title>Node2&#45;&gt;Node5</title>
<g id="a_edge4_Node000002_Node000005"><a xlink:title=" ">
<path fill="none" stroke="#63b8ff" d="M119.61,-55.08C121.09,-48.49 123.18,-39.21 125.07,-30.82"/>
<polygon fill="#63b8ff" stroke="#63b8ff" points="128.48,-31.61 127.27,-21.09 121.65,-30.07 128.48,-31.61"/>
</a>
</g>
</g>
<!-- Node7 -->
<g id="Node000007" class="node">
<title>Node7</title>
<g id="a_Node000007"><a xlink:title=" ">
<polygon fill="#e0e0e0" stroke="#999999" points="335.25,-19.25 290,-19.25 290,0 335.25,0 335.25,-19.25"/>
<text text-anchor="middle" x="312.62" y="-5.75" font-family="Helvetica,sans-Serif" font-size="10.00">cstdint</text>
</a>
</g>
</g>
<!-- Node6&#45;&gt;Node7 -->
<g id="edge6_Node000006_Node000007" class="edge">
<title>Node6&#45;&gt;Node7</title>
<g id="a_edge6_Node000006_Node000007"><a xlink:title=" ">
<path fill="none" stroke="#63b8ff" d="M350.19,-55.08C344.04,-47.8 335.11,-37.23 327.5,-28.23"/>
<polygon fill="#63b8ff" stroke="#63b8ff" points="330.32,-26.14 321.19,-20.77 324.98,-30.66 330.32,-26.14"/>
</a>
</g>
</g>
<!-- Node8&#45;&gt;Node4 -->
<g id="edge8_Node000008_Node000004" class="edge">
<title>Node8&#45;&gt;Node4</title>
<g id="a_edge8_Node000008_Node000004"><a xlink:title=" ">
<path fill="none" stroke="#63b8ff" d="M225.81,-55.08C224.45,-48.49 222.53,-39.21 220.8,-30.82"/>
<polygon fill="#63b8ff" stroke="#63b8ff" points="224.24,-30.18 218.79,-21.09 217.38,-31.59 224.24,-30.18"/>
</a>
</g>
</g>
<!-- Node8&#45;&gt;Node7 -->
<g id="edge9_Node000008_Node000007" class="edge">
<title>Node8&#45;&gt;Node7</title>
<g id="a_edge9_Node000008_Node000007"><a xlink:title=" ">
<path fill="none" stroke="#63b8ff" d="M242.04,-54.84C254.74,-46.89 273.5,-35.14 288.48,-25.75"/>
<polygon fill="#63b8ff" stroke="#63b8ff" points="290.24,-28.78 296.85,-20.51 286.52,-22.85 290.24,-28.78"/>
</a>
</g>
</g>
</g>
</svg>
</svg>

<style type='text/css'>
<![CDATA[
[data-mouse-over-selected='false'] { opacity: 0.7; }
[data-mouse-over-selected='true']  { opacity: 1.0; }
]]>
</style>
<script type="application/ecmascript"><![CDATA[
document.addEventListener('DOMContentLoaded', (event) => {
  highlightEdges();
  highlightAdjacentNodes();
});
]]></script>
</svg>
