<?xml version="1.0" encoding="UTF-8" standalone="no"?>
<!DOCTYPE svg PUBLIC "-//W3C//DTD SVG 1.1//EN"
 "http://www.w3.org/Graphics/SVG/1.1/DTD/svg11.dtd">
<!-- Generated by graphviz version 3.0.0 (20221109.1736)
 -->
<!-- Title: src/fault/config.cpp Pages: 1 -->
<svg width="423pt" height="140pt"
 viewBox="0.00 0.00 423.00 140.00" xmlns="http://www.w3.org/2000/svg" xmlns:xlink="http://www.w3.org/1999/xlink">
<g id="graph0" class="graph" transform="scale(1 1) rotate(0) translate(4 136)">
<title>src/fault/config.cpp</title>
<!-- Node1 -->
<g id="node1" class="node">
<title>Node1</title>
<g id="a_node1"><a xlink:title=" ">
<polygon fill="#bfbfbf" stroke="black" points="180,-112.5 180,-131.5 278,-131.5 278,-112.5 180,-112.5"/>
<text text-anchor="middle" x="229" y="-119.5" font-family="Helvetica,sans-Serif" font-size="10.00">src/fault/config.cpp</text>
</a>
</g>
</g>
<!-- Node2 -->
<g id="node2" class="node">
<title>Node2</title>
<g id="a_node2"><a xlink:href="util_8hpp.html" target="_top" xlink:title=" ">
<polygon fill="none" stroke="black" points="83.5,-56.5 83.5,-75.5 152.5,-75.5 152.5,-56.5 83.5,-56.5"/>
<text text-anchor="middle" x="118" y="-63.5" font-family="Helvetica,sans-Serif" font-size="10.00">fault/util.hpp</text>
</a>
</g>
</g>
<!-- Node1&#45;&gt;Node2 -->
<g id="edge1" class="edge">
<title>Node1&#45;&gt;Node2</title>
<path fill="none" stroke="midnightblue" d="M211.17,-112.32C193.28,-103.62 165.52,-90.12 144.95,-80.11"/>
<polygon fill="midnightblue" stroke="midnightblue" points="146.31,-76.88 135.79,-75.65 143.25,-83.18 146.31,-76.88"/>
</g>
<!-- Node6 -->
<g id="node6" class="node">
<title>Node6</title>
<g id="a_node6"><a xlink:href="config_8hpp.html" target="_top" xlink:title=" ">
<polygon fill="none" stroke="black" points="305,-56.5 305,-75.5 415,-75.5 415,-56.5 305,-56.5"/>
<text text-anchor="middle" x="360" y="-63.5" font-family="Helvetica,sans-Serif" font-size="10.00">yaclib/fault/config.hpp</text>
</a>
</g>
</g>
<!-- Node1&#45;&gt;Node6 -->
<g id="edge5" class="edge">
<title>Node1&#45;&gt;Node6</title>
<path fill="none" stroke="midnightblue" d="M249.76,-112.44C271.32,-103.56 305.26,-89.56 329.79,-79.45"/>
<polygon fill="midnightblue" stroke="midnightblue" points="331.43,-82.56 339.34,-75.52 328.76,-76.09 331.43,-82.56"/>
</g>
<!-- Node8 -->
<g id="node8" class="node">
<title>Node8</title>
<g id="a_node8"><a xlink:href="injector_8hpp.html" target="_top" xlink:title=" ">
<polygon fill="none" stroke="black" points="171,-56.5 171,-75.5 287,-75.5 287,-56.5 171,-56.5"/>
<text text-anchor="middle" x="229" y="-63.5" font-family="Helvetica,sans-Serif" font-size="10.00">yaclib/fault/injector.hpp</text>
</a>
</g>
</g>
<!-- Node1&#45;&gt;Node8 -->
<g id="edge7" class="edge">
<title>Node1&#45;&gt;Node8</title>
<path fill="none" stroke="midnightblue" d="M229,-112.08C229,-105.01 229,-94.86 229,-85.99"/>
<polygon fill="midnightblue" stroke="midnightblue" points="232.5,-85.75 229,-75.75 225.5,-85.75 232.5,-85.75"/>
</g>
<!-- Node3 -->
<g id="node3" class="node">
<title>Node3</title>
<g id="a_node3"><a xlink:title=" ">
<polygon fill="none" stroke="#bfbfbf" points="0,-0.5 0,-19.5 88,-19.5 88,-0.5 0,-0.5"/>
<text text-anchor="middle" x="44" y="-7.5" font-family="Helvetica,sans-Serif" font-size="10.00">yaclib/config.hpp</text>
</a>
</g>
</g>
<!-- Node2&#45;&gt;Node3 -->
<g id="edge2" class="edge">
<title>Node2&#45;&gt;Node3</title>
<path fill="none" stroke="midnightblue" d="M106.11,-56.32C94.85,-48.11 77.71,-35.6 64.29,-25.81"/>
<polygon fill="midnightblue" stroke="midnightblue" points="66.25,-22.9 56.11,-19.83 62.12,-28.56 66.25,-22.9"/>
</g>
<!-- Node4 -->
<g id="node4" class="node">
<title>Node4</title>
<g id="a_node4"><a xlink:title=" ">
<polygon fill="none" stroke="#bfbfbf" points="195,-0.5 195,-19.5 241,-19.5 241,-0.5 195,-0.5"/>
<text text-anchor="middle" x="218" y="-7.5" font-family="Helvetica,sans-Serif" font-size="10.00">atomic</text>
</a>
</g>
</g>
<!-- Node2&#45;&gt;Node4 -->
<g id="edge3" class="edge">
<title>Node2&#45;&gt;Node4</title>
<path fill="none" stroke="midnightblue" d="M134.07,-56.32C149.96,-47.74 174.51,-34.49 192.96,-24.52"/>
<polygon fill="midnightblue" stroke="midnightblue" points="194.84,-27.49 201.97,-19.65 191.51,-21.33 194.84,-27.49"/>
</g>
<!-- Node5 -->
<g id="node5" class="node">
<title>Node5</title>
<g id="a_node5"><a xlink:title=" ">
<polygon fill="none" stroke="#bfbfbf" points="105.5,-0.5 105.5,-19.5 154.5,-19.5 154.5,-0.5 105.5,-0.5"/>
<text text-anchor="middle" x="130" y="-7.5" font-family="Helvetica,sans-Serif" font-size="10.00">random</text>
</a>
</g>
</g>
<!-- Node2&#45;&gt;Node5 -->
<g id="edge4" class="edge">
<title>Node2&#45;&gt;Node5</title>
<path fill="none" stroke="midnightblue" d="M119.98,-56.08C121.57,-48.93 123.86,-38.64 125.85,-29.69"/>
<polygon fill="midnightblue" stroke="midnightblue" points="129.3,-30.27 128.06,-19.75 122.47,-28.75 129.3,-30.27"/>
</g>
<!-- Node7 -->
<g id="node7" class="node">
<title>Node7</title>
<g id="a_node7"><a xlink:title=" ">
<polygon fill="none" stroke="#bfbfbf" points="292,-0.5 292,-19.5 338,-19.5 338,-0.5 292,-0.5"/>
<text text-anchor="middle" x="315" y="-7.5" font-family="Helvetica,sans-Serif" font-size="10.00">cstdint</text>
</a>
</g>
</g>
<!-- Node6&#45;&gt;Node7 -->
<g id="edge6" class="edge">
<title>Node6&#45;&gt;Node7</title>
<path fill="none" stroke="midnightblue" d="M352.57,-56.08C346.15,-48.38 336.69,-37.03 328.88,-27.65"/>
<polygon fill="midnightblue" stroke="midnightblue" points="331.38,-25.19 322.29,-19.75 326.01,-29.67 331.38,-25.19"/>
</g>
<!-- Node8&#45;&gt;Node4 -->
<g id="edge8" class="edge">
<title>Node8&#45;&gt;Node4</title>
<path fill="none" stroke="midnightblue" d="M227.18,-56.08C225.73,-48.93 223.63,-38.64 221.81,-29.69"/>
<polygon fill="midnightblue" stroke="midnightblue" points="225.21,-28.85 219.78,-19.75 218.35,-30.25 225.21,-28.85"/>
</g>
<!-- Node8&#45;&gt;Node7 -->
<g id="edge9" class="edge">
<title>Node8&#45;&gt;Node7</title>
<path fill="none" stroke="midnightblue" d="M242.82,-56.32C256.23,-47.9 276.82,-34.97 292.59,-25.07"/>
<polygon fill="midnightblue" stroke="midnightblue" points="294.61,-27.94 301.22,-19.65 290.89,-22.01 294.61,-27.94"/>
</g>
</g>
</svg>
