<?xml version="1.0" encoding="UTF-8" standalone="no"?>
<!DOCTYPE svg PUBLIC "-//W3C//DTD SVG 1.1//EN"
 "http://www.w3.org/Graphics/SVG/1.1/DTD/svg11.dtd">
<!-- Generated by graphviz version 3.0.0 (20221109.1736)
 -->
<!-- Title: include/yaclib/algo/detail/core.hpp Pages: 1 -->
<!--zoomable 441 -->
<svg id="main" version="1.1" xmlns="http://www.w3.org/2000/svg" xmlns:xlink="http://www.w3.org/1999/xlink" xml:space="preserve" onload="init(evt)">
<style type="text/css"><![CDATA[
.edge:hover path { stroke: red; }
.edge:hover polygon { stroke: red; fill: red; }
]]></style>
<script type="text/javascript"><![CDATA[
var edges = document.getElementsByTagName('g');
if (edges && edges.length) {
  for (var i=0;i<edges.length;i++) {
    if (edges[i].id.substr(0,4)=='edge') {
      edges[i].setAttribute('class','edge');
    }
  }
}
]]></script>
        <defs>
                <circle id="rim" cx="0" cy="0" r="7"/>
                <circle id="rim2" cx="0" cy="0" r="3.5"/>
                <g id="zoomPlus">
                        <use xlink:href="#rim" fill="#404040">
                                <set attributeName="fill" to="#808080" begin="zoomplus.mouseover" end="zoomplus.mouseout"/>
                        </use>
                        <path d="M-4,0h8M0,-4v8" fill="none" stroke="white" stroke-width="1.5" pointer-events="none"/>
                </g>
                <g id="zoomMin">
                        <use xlink:href="#rim" fill="#404040">
                                <set attributeName="fill" to="#808080" begin="zoomminus.mouseover" end="zoomminus.mouseout"/>
                        </use>
                        <path d="M-4,0h8" fill="none" stroke="white" stroke-width="1.5" pointer-events="none"/>
                </g>
                <g id="dirArrow">
                        <path fill="none" stroke="white" stroke-width="1.5" d="M0,-3.0v7 M-2.5,-0.5L0,-3.0L2.5,-0.5"/>
                </g>
               <g id="resetDef">
                       <use xlink:href="#rim2" fill="#404040">
                               <set attributeName="fill" to="#808080" begin="reset.mouseover" end="reset.mouseout"/>
                       </use>
               </g>
        </defs>

<script type="text/javascript">
var viewWidth = 1888;
var viewHeight = 441;
var sectionId = 'dynsection-1';
</script>
<script xlink:href="svgpan.js"/>
<svg id="graph" class="graph">
<g id="viewport">
<title>include/yaclib/algo/detail/core.hpp</title>
<!-- Node1 -->
<g id="node1" class="node">
<title>Node1</title>
<g id="a_node1"><a xlink:title=" ">
<polygon fill="#bfbfbf" stroke="black" points="848,-402.5 848,-432.5 944,-432.5 944,-402.5 848,-402.5"/>
<text text-anchor="start" x="856" y="-420.5" font-family="Helvetica,sans-Serif" font-size="10.00">include/yaclib/algo</text>
<text text-anchor="middle" x="896" y="-409.5" font-family="Helvetica,sans-Serif" font-size="10.00">/detail/core.hpp</text>
</a>
</g>
</g>
<!-- Node2 -->
<g id="node2" class="node">
<title>Node2</title>
<g id="a_node2"><a xlink:href="future__impl_8hpp.html" target="_top" xlink:title=" ">
<polygon fill="none" stroke="black" points="840,-335.5 840,-365.5 952,-365.5 952,-335.5 840,-335.5"/>
<text text-anchor="start" x="848" y="-353.5" font-family="Helvetica,sans-Serif" font-size="10.00">include/yaclib/async</text>
<text text-anchor="middle" x="896" y="-342.5" font-family="Helvetica,sans-Serif" font-size="10.00">/detail/future_impl.hpp</text>
</a>
</g>
</g>
<!-- Node1&#45;&gt;Node2 -->
<g id="edge1" class="edge">
<title>Node1&#45;&gt;Node2</title>
<path fill="none" stroke="midnightblue" d="M896,-392.11C896,-383.15 896,-373.32 896,-365.58"/>
<polygon fill="midnightblue" stroke="midnightblue" points="892.5,-392.4 896,-402.4 899.5,-392.4 892.5,-392.4"/>
</g>
<!-- Node16 -->
<g id="node16" class="node">
<title>Node16</title>
<g id="a_node16"><a xlink:href="run_8hpp.html" target="_top" xlink:title=" ">
<polygon fill="none" stroke="black" points="0,-201.5 0,-231.5 104,-231.5 104,-201.5 0,-201.5"/>
<text text-anchor="start" x="8" y="-219.5" font-family="Helvetica,sans-Serif" font-size="10.00">include/yaclib/async</text>
<text text-anchor="middle" x="52" y="-208.5" font-family="Helvetica,sans-Serif" font-size="10.00">/run.hpp</text>
</a>
</g>
</g>
<!-- Node1&#45;&gt;Node16 -->
<g id="edge45" class="edge">
<title>Node1&#45;&gt;Node16</title>
<path fill="none" stroke="midnightblue" d="M838,-402.82C681.64,-365.96 253.14,-264.93 104,-229.76"/>
<polygon fill="midnightblue" stroke="midnightblue" points="837.36,-406.27 847.9,-405.16 838.97,-399.46 837.36,-406.27"/>
</g>
<!-- Node31 -->
<g id="node31" class="node">
<title>Node31</title>
<g id="a_node31"><a xlink:href="result__core_8cpp.html" target="_top" xlink:title=" ">
<polygon fill="none" stroke="black" points="970,-341 970,-360 1090,-360 1090,-341 970,-341"/>
<text text-anchor="middle" x="1030" y="-348" font-family="Helvetica,sans-Serif" font-size="10.00">src/algo/result_core.cpp</text>
</a>
</g>
</g>
<!-- Node1&#45;&gt;Node31 -->
<g id="edge46" class="edge">
<title>Node1&#45;&gt;Node31</title>
<path fill="none" stroke="midnightblue" d="M934.21,-397.97C959.95,-385.48 992.69,-369.6 1012.46,-360.01"/>
<polygon fill="midnightblue" stroke="midnightblue" points="932.55,-394.88 925.08,-402.4 935.6,-401.18 932.55,-394.88"/>
</g>
<!-- Node3 -->
<g id="node3" class="node">
<title>Node3</title>
<g id="a_node3"><a xlink:href="async_2future_8hpp.html" target="_top" xlink:title=" ">
<polygon fill="none" stroke="black" points="844,-268.5 844,-298.5 948,-298.5 948,-268.5 844,-268.5"/>
<text text-anchor="start" x="852" y="-286.5" font-family="Helvetica,sans-Serif" font-size="10.00">include/yaclib/async</text>
<text text-anchor="middle" x="896" y="-275.5" font-family="Helvetica,sans-Serif" font-size="10.00">/future.hpp</text>
</a>
</g>
</g>
<!-- Node2&#45;&gt;Node3 -->
<g id="edge2" class="edge">
<title>Node2&#45;&gt;Node3</title>
<path fill="none" stroke="midnightblue" d="M896,-325.11C896,-316.15 896,-306.32 896,-298.58"/>
<polygon fill="midnightblue" stroke="midnightblue" points="892.5,-325.4 896,-335.4 899.5,-325.4 892.5,-325.4"/>
</g>
<!-- Node4 -->
<g id="node4" class="node">
<title>Node4</title>
<g id="a_node4"><a xlink:href="wait__group_8hpp.html" target="_top" xlink:title=" ">
<polygon fill="none" stroke="black" points="686,-201.5 686,-231.5 782,-231.5 782,-201.5 686,-201.5"/>
<text text-anchor="start" x="694" y="-219.5" font-family="Helvetica,sans-Serif" font-size="10.00">include/yaclib/algo</text>
<text text-anchor="middle" x="734" y="-208.5" font-family="Helvetica,sans-Serif" font-size="10.00">/wait_group.hpp</text>
</a>
</g>
</g>
<!-- Node3&#45;&gt;Node4 -->
<g id="edge3" class="edge">
<title>Node3&#45;&gt;Node4</title>
<path fill="none" stroke="midnightblue" d="M851.25,-264.54C825.33,-254.14 793.16,-241.24 769.08,-231.58"/>
<polygon fill="midnightblue" stroke="midnightblue" points="850.26,-267.92 860.85,-268.4 852.87,-261.42 850.26,-267.92"/>
</g>
<!-- Node6 -->
<g id="node6" class="node">
<title>Node6</title>
<g id="a_node6"><a xlink:href="contract_8hpp.html" target="_top" xlink:title=" ">
<polygon fill="none" stroke="black" points="564,-201.5 564,-231.5 668,-231.5 668,-201.5 564,-201.5"/>
<text text-anchor="start" x="572" y="-219.5" font-family="Helvetica,sans-Serif" font-size="10.00">include/yaclib/async</text>
<text text-anchor="middle" x="616" y="-208.5" font-family="Helvetica,sans-Serif" font-size="10.00">/contract.hpp</text>
</a>
</g>
</g>
<!-- Node3&#45;&gt;Node6 -->
<g id="edge5" class="edge">
<title>Node3&#45;&gt;Node6</title>
<path fill="none" stroke="midnightblue" d="M833.82,-268.28C789.97,-258.22 729.87,-244.38 677,-232 674.14,-231.33 671.2,-230.64 668.24,-229.94"/>
<polygon fill="midnightblue" stroke="midnightblue" points="833.23,-271.74 843.76,-270.56 834.8,-264.91 833.23,-271.74"/>
</g>
<!-- Node7 -->
<g id="node7" class="node">
<title>Node7</title>
<g id="a_node7"><a xlink:href="simple_8cpp.html" target="_top" xlink:title=" ">
<polygon fill="none" stroke="black" points="160.5,-134.5 160.5,-164.5 261.5,-164.5 261.5,-134.5 160.5,-134.5"/>
<text text-anchor="start" x="168.5" y="-152.5" font-family="Helvetica,sans-Serif" font-size="10.00">test/example/async</text>
<text text-anchor="middle" x="211" y="-141.5" font-family="Helvetica,sans-Serif" font-size="10.00">/simple.cpp</text>
</a>
</g>
</g>
<!-- Node3&#45;&gt;Node7 -->
<g id="edge44" class="edge">
<title>Node3&#45;&gt;Node7</title>
<path fill="none" stroke="midnightblue" d="M833.7,-280.33C665.06,-274.17 210.83,-255.45 189,-232 171.72,-213.44 187.84,-182.75 200.11,-164.79"/>
<polygon fill="midnightblue" stroke="midnightblue" points="833.79,-283.84 843.91,-280.7 834.04,-276.84 833.79,-283.84"/>
</g>
<!-- Node8 -->
<g id="node8" class="node">
<title>Node8</title>
<g id="a_node8"><a xlink:href="when__impl_8hpp.html" target="_top" xlink:title=" ">
<polygon fill="none" stroke="black" points="800,-201.5 800,-231.5 910,-231.5 910,-201.5 800,-201.5"/>
<text text-anchor="start" x="808" y="-219.5" font-family="Helvetica,sans-Serif" font-size="10.00">include/yaclib/async</text>
<text text-anchor="middle" x="855" y="-208.5" font-family="Helvetica,sans-Serif" font-size="10.00">/detail/when_impl.hpp</text>
</a>
</g>
</g>
<!-- Node3&#45;&gt;Node8 -->
<g id="edge7" class="edge">
<title>Node3&#45;&gt;Node8</title>
<path fill="none" stroke="midnightblue" d="M881.72,-259.87C875.79,-250.46 869.09,-239.83 863.88,-231.58"/>
<polygon fill="midnightblue" stroke="midnightblue" points="878.81,-261.81 887.1,-268.4 884.73,-258.07 878.81,-261.81"/>
</g>
<!-- Node10 -->
<g id="node10" class="node">
<title>Node10</title>
<g id="a_node10"><a xlink:href="when__all_8hpp.html" target="_top" xlink:title=" ">
<polygon fill="none" stroke="black" points="802,-67.5 802,-97.5 906,-97.5 906,-67.5 802,-67.5"/>
<text text-anchor="start" x="810" y="-85.5" font-family="Helvetica,sans-Serif" font-size="10.00">include/yaclib/async</text>
<text text-anchor="middle" x="854" y="-74.5" font-family="Helvetica,sans-Serif" font-size="10.00">/when_all.hpp</text>
</a>
</g>
</g>
<!-- Node3&#45;&gt;Node10 -->
<g id="edge25" class="edge">
<title>Node3&#45;&gt;Node10</title>
<path fill="none" stroke="midnightblue" d="M909.04,-259.38C913.06,-251.02 916.97,-241.34 919,-232 921.92,-218.54 921.27,-214.59 919,-201 913.82,-169.95 911.43,-161.44 896,-134 888.51,-120.68 877.35,-107.47 868.42,-97.9"/>
<polygon fill="midnightblue" stroke="midnightblue" points="905.82,-257.99 904.36,-268.48 912.04,-261.19 905.82,-257.99"/>
</g>
<!-- Node13 -->
<g id="node13" class="node">
<title>Node13</title>
<g id="a_node13"><a xlink:href="when__any_8hpp.html" target="_top" xlink:title=" ">
<polygon fill="none" stroke="black" points="388,-67.5 388,-97.5 492,-97.5 492,-67.5 388,-67.5"/>
<text text-anchor="start" x="396" y="-85.5" font-family="Helvetica,sans-Serif" font-size="10.00">include/yaclib/async</text>
<text text-anchor="middle" x="440" y="-74.5" font-family="Helvetica,sans-Serif" font-size="10.00">/when_any.hpp</text>
</a>
</g>
</g>
<!-- Node3&#45;&gt;Node13 -->
<g id="edge26" class="edge">
<title>Node3&#45;&gt;Node13</title>
<path fill="none" stroke="midnightblue" d="M833.71,-279.91C664.01,-272.61 204.33,-251.16 178,-232 141.47,-205.42 121.93,-168.59 151,-134 180.66,-98.71 312.85,-88.08 387.76,-84.88"/>
<polygon fill="midnightblue" stroke="midnightblue" points="833.6,-283.41 843.74,-280.34 833.9,-276.41 833.6,-283.41"/>
</g>
<!-- Node15 -->
<g id="node15" class="node">
<title>Node15</title>
<g id="a_node15"><a xlink:href="async_2make_8hpp.html" target="_top" xlink:title=" ">
<polygon fill="none" stroke="black" points="198,-201.5 198,-231.5 302,-231.5 302,-201.5 198,-201.5"/>
<text text-anchor="start" x="206" y="-219.5" font-family="Helvetica,sans-Serif" font-size="10.00">include/yaclib/async</text>
<text text-anchor="middle" x="250" y="-208.5" font-family="Helvetica,sans-Serif" font-size="10.00">/make.hpp</text>
</a>
</g>
</g>
<!-- Node3&#45;&gt;Node15 -->
<g id="edge16" class="edge">
<title>Node3&#45;&gt;Node15</title>
<path fill="none" stroke="midnightblue" d="M833.63,-280.13C726.28,-275.39 499.9,-262.43 311,-232 308.1,-231.53 305.13,-231 302.14,-230.43"/>
<polygon fill="midnightblue" stroke="midnightblue" points="833.5,-283.63 843.64,-280.57 833.8,-276.64 833.5,-283.63"/>
</g>
<!-- Node3&#45;&gt;Node16 -->
<g id="edge17" class="edge">
<title>Node3&#45;&gt;Node16</title>
<path fill="none" stroke="midnightblue" d="M833.47,-281.65C700.93,-279.14 382.23,-269.38 118,-232 113.47,-231.36 108.79,-230.58 104.11,-229.71"/>
<polygon fill="midnightblue" stroke="midnightblue" points="833.76,-285.15 843.82,-281.84 833.89,-278.15 833.76,-285.15"/>
</g>
<!-- Node17 -->
<g id="node17" class="node">
<title>Node17</title>
<g id="a_node17"><a xlink:href="wait_8hpp.html" target="_top" xlink:title=" ">
<polygon fill="none" stroke="black" points="1507,-201.5 1507,-231.5 1611,-231.5 1611,-201.5 1507,-201.5"/>
<text text-anchor="start" x="1515" y="-219.5" font-family="Helvetica,sans-Serif" font-size="10.00">include/yaclib/async</text>
<text text-anchor="middle" x="1559" y="-208.5" font-family="Helvetica,sans-Serif" font-size="10.00">/wait.hpp</text>
</a>
</g>
</g>
<!-- Node3&#45;&gt;Node17 -->
<g id="edge21" class="edge">
<title>Node3&#45;&gt;Node17</title>
<path fill="none" stroke="midnightblue" d="M958.33,-279.94C1067.28,-274.85 1299.22,-261.35 1493,-232 1497.52,-231.31 1502.2,-230.5 1506.88,-229.62"/>
<polygon fill="midnightblue" stroke="midnightblue" points="958.01,-276.45 948.18,-280.4 958.33,-283.44 958.01,-276.45"/>
</g>
<!-- Node18 -->
<g id="node18" class="node">
<title>Node18</title>
<g id="a_node18"><a xlink:href="wait__for_8hpp.html" target="_top" xlink:title=" ">
<polygon fill="none" stroke="black" points="320,-201.5 320,-231.5 424,-231.5 424,-201.5 320,-201.5"/>
<text text-anchor="start" x="328" y="-219.5" font-family="Helvetica,sans-Serif" font-size="10.00">include/yaclib/async</text>
<text text-anchor="middle" x="372" y="-208.5" font-family="Helvetica,sans-Serif" font-size="10.00">/wait_for.hpp</text>
</a>
</g>
</g>
<!-- Node3&#45;&gt;Node18 -->
<g id="edge23" class="edge">
<title>Node3&#45;&gt;Node18</title>
<path fill="none" stroke="midnightblue" d="M833.76,-278.19C744.55,-271.45 575.37,-256.59 433,-232 430.1,-231.5 427.14,-230.94 424.16,-230.35"/>
<polygon fill="midnightblue" stroke="midnightblue" points="833.74,-281.7 843.97,-278.95 834.26,-274.72 833.74,-281.7"/>
</g>
<!-- Node19 -->
<g id="node19" class="node">
<title>Node19</title>
<g id="a_node19"><a xlink:href="wait__until_8hpp.html" target="_top" xlink:title=" ">
<polygon fill="none" stroke="black" points="442,-201.5 442,-231.5 546,-231.5 546,-201.5 442,-201.5"/>
<text text-anchor="start" x="450" y="-219.5" font-family="Helvetica,sans-Serif" font-size="10.00">include/yaclib/async</text>
<text text-anchor="middle" x="494" y="-208.5" font-family="Helvetica,sans-Serif" font-size="10.00">/wait_until.hpp</text>
</a>
</g>
</g>
<!-- Node3&#45;&gt;Node19 -->
<g id="edge24" class="edge">
<title>Node3&#45;&gt;Node19</title>
<path fill="none" stroke="midnightblue" d="M833.57,-274.9C764.98,-266.17 651.7,-250.62 555,-232 552.11,-231.44 549.16,-230.84 546.18,-230.22"/>
<polygon fill="midnightblue" stroke="midnightblue" points="833.41,-278.41 843.77,-276.19 834.29,-271.46 833.41,-278.41"/>
</g>
<!-- Node20 -->
<g id="node20" class="node">
<title>Node20</title>
<g id="a_node20"><a xlink:href="await_8hpp.html" target="_top" xlink:title=" ">
<polygon fill="none" stroke="black" points="1027.5,-67.5 1027.5,-97.5 1124.5,-97.5 1124.5,-67.5 1027.5,-67.5"/>
<text text-anchor="start" x="1035.5" y="-85.5" font-family="Helvetica,sans-Serif" font-size="10.00">include/yaclib/coro</text>
<text text-anchor="middle" x="1076" y="-74.5" font-family="Helvetica,sans-Serif" font-size="10.00">/await.hpp</text>
</a>
</g>
</g>
<!-- Node3&#45;&gt;Node20 -->
<g id="edge27" class="edge">
<title>Node3&#45;&gt;Node20</title>
<path fill="none" stroke="midnightblue" d="M958.37,-278.41C1023.22,-272.71 1118.38,-259.76 1141,-232 1168.51,-198.24 1160.15,-173.12 1141,-134 1133.34,-118.34 1118.21,-106.14 1104.48,-97.65"/>
<polygon fill="midnightblue" stroke="midnightblue" points="957.91,-274.94 948.24,-279.27 958.5,-281.92 957.91,-274.94"/>
</g>
<!-- Node21 -->
<g id="node21" class="node">
<title>Node21</title>
<g id="a_node21"><a xlink:href="await__on_8hpp.html" target="_top" xlink:title=" ">
<polygon fill="none" stroke="black" points="1198.5,-67.5 1198.5,-97.5 1295.5,-97.5 1295.5,-67.5 1198.5,-67.5"/>
<text text-anchor="start" x="1206.5" y="-85.5" font-family="Helvetica,sans-Serif" font-size="10.00">include/yaclib/coro</text>
<text text-anchor="middle" x="1247" y="-74.5" font-family="Helvetica,sans-Serif" font-size="10.00">/await_on.hpp</text>
</a>
</g>
</g>
<!-- Node3&#45;&gt;Node21 -->
<g id="edge28" class="edge">
<title>Node3&#45;&gt;Node21</title>
<path fill="none" stroke="midnightblue" d="M958.28,-276.97C1026.94,-269.81 1131.95,-255.4 1164,-232 1203.99,-202.8 1192.57,-177.07 1217,-134 1224.04,-121.58 1232.35,-107.64 1238.44,-97.56"/>
<polygon fill="midnightblue" stroke="midnightblue" points="957.6,-273.52 948.01,-278.01 958.31,-280.48 957.6,-273.52"/>
</g>
<!-- Node22 -->
<g id="node22" class="node">
<title>Node22</title>
<g id="a_node22"><a xlink:href="await__awaiter_8hpp.html" target="_top" xlink:title=" ">
<polygon fill="none" stroke="black" points="1008,-134.5 1008,-164.5 1132,-164.5 1132,-134.5 1008,-134.5"/>
<text text-anchor="start" x="1016" y="-152.5" font-family="Helvetica,sans-Serif" font-size="10.00">include/yaclib/coro</text>
<text text-anchor="middle" x="1070" y="-141.5" font-family="Helvetica,sans-Serif" font-size="10.00">/detail/await_awaiter.hpp</text>
</a>
</g>
</g>
<!-- Node3&#45;&gt;Node22 -->
<g id="edge29" class="edge">
<title>Node3&#45;&gt;Node22</title>
<path fill="none" stroke="midnightblue" d="M919.68,-261.92C939.41,-245.03 968.49,-220.77 995,-201 1012.37,-188.05 1032.8,-174.39 1047.95,-164.54"/>
<polygon fill="midnightblue" stroke="midnightblue" points="917.38,-259.28 912.08,-268.45 921.94,-264.59 917.38,-259.28"/>
</g>
<!-- Node23 -->
<g id="node23" class="node">
<title>Node23</title>
<g id="a_node23"><a xlink:href="await__on__awaiter_8hpp.html" target="_top" xlink:title=" ">
<polygon fill="none" stroke="black" points="1226,-134.5 1226,-164.5 1366,-164.5 1366,-134.5 1226,-134.5"/>
<text text-anchor="start" x="1234" y="-152.5" font-family="Helvetica,sans-Serif" font-size="10.00">include/yaclib/coro</text>
<text text-anchor="middle" x="1296" y="-141.5" font-family="Helvetica,sans-Serif" font-size="10.00">/detail/await_on_awaiter.hpp</text>
</a>
</g>
</g>
<!-- Node3&#45;&gt;Node23 -->
<g id="edge31" class="edge">
<title>Node3&#45;&gt;Node23</title>
<path fill="none" stroke="midnightblue" d="M958.62,-276.99C1037.7,-269.27 1168.68,-253.7 1212,-232 1243.97,-215.98 1271.69,-183.47 1285.89,-164.71"/>
<polygon fill="midnightblue" stroke="midnightblue" points="957.92,-273.55 948.3,-277.99 958.59,-280.51 957.92,-273.55"/>
</g>
<!-- Node24 -->
<g id="node24" class="node">
<title>Node24</title>
<g id="a_node24"><a xlink:href="coro_2future_8hpp.html" target="_top" xlink:title=" ">
<polygon fill="none" stroke="black" points="1782.5,-134.5 1782.5,-164.5 1879.5,-164.5 1879.5,-134.5 1782.5,-134.5"/>
<text text-anchor="start" x="1790.5" y="-152.5" font-family="Helvetica,sans-Serif" font-size="10.00">include/yaclib/coro</text>
<text text-anchor="middle" x="1831" y="-141.5" font-family="Helvetica,sans-Serif" font-size="10.00">/future.hpp</text>
</a>
</g>
</g>
<!-- Node3&#45;&gt;Node24 -->
<g id="edge33" class="edge">
<title>Node3&#45;&gt;Node24</title>
<path fill="none" stroke="midnightblue" d="M958.42,-278.93C1095.32,-270.8 1413.43,-250.23 1459,-232 1479.56,-223.78 1477.66,-209.75 1498,-201 1602.74,-155.95 1639.46,-183.3 1752,-165 1761.77,-163.41 1772.2,-161.59 1782.17,-159.78"/>
<polygon fill="midnightblue" stroke="midnightblue" points="957.87,-275.45 948.09,-279.54 958.28,-282.44 957.87,-275.45"/>
</g>
<!-- Node25 -->
<g id="node25" class="node">
<title>Node25</title>
<g id="a_node25"><a xlink:href="lazy_2task_8hpp.html" target="_top" xlink:title=" ">
<polygon fill="none" stroke="black" points="1355.5,-201.5 1355.5,-231.5 1450.5,-231.5 1450.5,-201.5 1355.5,-201.5"/>
<text text-anchor="start" x="1363.5" y="-219.5" font-family="Helvetica,sans-Serif" font-size="10.00">include/yaclib/lazy</text>
<text text-anchor="middle" x="1403" y="-208.5" font-family="Helvetica,sans-Serif" font-size="10.00">/task.hpp</text>
</a>
</g>
</g>
<!-- Node3&#45;&gt;Node25 -->
<g id="edge34" class="edge">
<title>Node3&#45;&gt;Node25</title>
<path fill="none" stroke="midnightblue" d="M958.57,-274.48C1061.29,-261.31 1263.41,-235.4 1355.4,-223.6"/>
<polygon fill="midnightblue" stroke="midnightblue" points="957.82,-271.05 948.35,-275.79 958.71,-277.99 957.82,-271.05"/>
</g>
<!-- Node30 -->
<g id="node30" class="node">
<title>Node30</title>
<g id="a_node30"><a xlink:href="future__impl_8cpp.html" target="_top" xlink:title=" ">
<polygon fill="none" stroke="black" points="1004,-207 1004,-226 1132,-226 1132,-207 1004,-207"/>
<text text-anchor="middle" x="1068" y="-214" font-family="Helvetica,sans-Serif" font-size="10.00">src/async/future_impl.cpp</text>
</a>
</g>
</g>
<!-- Node3&#45;&gt;Node30 -->
<g id="edge43" class="edge">
<title>Node3&#45;&gt;Node30</title>
<path fill="none" stroke="midnightblue" d="M942.88,-264.78C976.23,-252.18 1019.55,-235.81 1045.49,-226.01"/>
<polygon fill="midnightblue" stroke="midnightblue" points="941.44,-261.59 933.32,-268.4 943.91,-268.13 941.44,-261.59"/>
</g>
<!-- Node5 -->
<g id="node5" class="node">
<title>Node5</title>
<g id="a_node5"><a xlink:href="wait__group_8cpp.html" target="_top" xlink:title=" ">
<polygon fill="none" stroke="black" points="421.5,-140 421.5,-159 540.5,-159 540.5,-140 421.5,-140"/>
<text text-anchor="middle" x="481" y="-147" font-family="Helvetica,sans-Serif" font-size="10.00">src/algo/wait_group.cpp</text>
</a>
</g>
</g>
<!-- Node4&#45;&gt;Node5 -->
<g id="edge4" class="edge">
<title>Node4&#45;&gt;Node5</title>
<path fill="none" stroke="midnightblue" d="M676.08,-200.62C625.93,-187.73 555.17,-169.56 514.09,-159"/>
<polygon fill="midnightblue" stroke="midnightblue" points="675.26,-204.02 685.82,-203.12 677,-197.24 675.26,-204.02"/>
</g>
<!-- Node6&#45;&gt;Node7 -->
<g id="edge6" class="edge">
<title>Node6&#45;&gt;Node7</title>
<path fill="none" stroke="midnightblue" d="M553.92,-200.89C444.28,-180.18 326.98,-164.61 261.65,-156.53"/>
<polygon fill="midnightblue" stroke="midnightblue" points="553.34,-204.34 563.82,-202.78 554.65,-197.47 553.34,-204.34"/>
</g>
<!-- Node9 -->
<g id="node9" class="node">
<title>Node9</title>
<g id="a_node9"><a xlink:href="when__all__impl_8hpp.html" target="_top" xlink:title=" ">
<polygon fill="none" stroke="black" points="746.5,-134.5 746.5,-164.5 871.5,-164.5 871.5,-134.5 746.5,-134.5"/>
<text text-anchor="start" x="754.5" y="-152.5" font-family="Helvetica,sans-Serif" font-size="10.00">include/yaclib/async</text>
<text text-anchor="middle" x="809" y="-141.5" font-family="Helvetica,sans-Serif" font-size="10.00">/detail/when_all_impl.hpp</text>
</a>
</g>
</g>
<!-- Node8&#45;&gt;Node9 -->
<g id="edge8" class="edge">
<title>Node8&#45;&gt;Node9</title>
<path fill="none" stroke="midnightblue" d="M839.19,-193.16C832.48,-183.68 824.87,-172.92 818.96,-164.58"/>
<polygon fill="midnightblue" stroke="midnightblue" points="836.38,-195.26 845.02,-201.4 842.1,-191.21 836.38,-195.26"/>
</g>
<!-- Node8&#45;&gt;Node10 -->
<g id="edge14" class="edge">
<title>Node8&#45;&gt;Node10</title>
<path fill="none" stroke="midnightblue" d="M869.21,-192.41C873.57,-184.08 877.8,-174.41 880,-165 883.14,-151.58 883.24,-147.39 880,-134 876.84,-120.97 869.7,-107.53 863.7,-97.79"/>
<polygon fill="midnightblue" stroke="midnightblue" points="866.15,-190.72 864.33,-201.15 872.26,-194.13 866.15,-190.72"/>
</g>
<!-- Node12 -->
<g id="node12" class="node">
<title>Node12</title>
<g id="a_node12"><a xlink:href="when__any__impl_8hpp.html" target="_top" xlink:title=" ">
<polygon fill="none" stroke="black" points="597.5,-134.5 597.5,-164.5 728.5,-164.5 728.5,-134.5 597.5,-134.5"/>
<text text-anchor="start" x="605.5" y="-152.5" font-family="Helvetica,sans-Serif" font-size="10.00">include/yaclib/async</text>
<text text-anchor="middle" x="663" y="-141.5" font-family="Helvetica,sans-Serif" font-size="10.00">/detail/when_any_impl.hpp</text>
</a>
</g>
</g>
<!-- Node8&#45;&gt;Node12 -->
<g id="edge11" class="edge">
<title>Node8&#45;&gt;Node12</title>
<path fill="none" stroke="midnightblue" d="M803.58,-198.09C772.58,-187.6 733.62,-174.41 704.58,-164.58"/>
<polygon fill="midnightblue" stroke="midnightblue" points="802.74,-201.5 813.34,-201.4 804.99,-194.87 802.74,-201.5"/>
</g>
<!-- Node8&#45;&gt;Node13 -->
<g id="edge15" class="edge">
<title>Node8&#45;&gt;Node13</title>
<path fill="none" stroke="midnightblue" d="M789.99,-200.93C699.09,-184.16 668.68,-201.37 588,-165 567.81,-155.9 567.84,-145.62 549,-134 525.75,-119.66 497.75,-106.77 475.95,-97.6"/>
<polygon fill="midnightblue" stroke="midnightblue" points="789.39,-204.37 799.88,-202.84 790.72,-197.5 789.39,-204.37"/>
</g>
<!-- Node9&#45;&gt;Node10 -->
<g id="edge9" class="edge">
<title>Node9&#45;&gt;Node10</title>
<path fill="none" stroke="midnightblue" d="M824.47,-126.16C831.03,-116.68 838.48,-105.92 844.25,-97.58"/>
<polygon fill="midnightblue" stroke="midnightblue" points="821.58,-124.18 818.76,-134.4 827.33,-128.17 821.58,-124.18"/>
</g>
<!-- Node11 -->
<g id="node11" class="node">
<title>Node11</title>
<g id="a_node11"><a xlink:href="when__all_8cpp.html" target="_top" xlink:title=" ">
<polygon fill="none" stroke="black" points="566.5,-0.5 566.5,-30.5 667.5,-30.5 667.5,-0.5 566.5,-0.5"/>
<text text-anchor="start" x="574.5" y="-18.5" font-family="Helvetica,sans-Serif" font-size="10.00">test/example/async</text>
<text text-anchor="middle" x="617" y="-7.5" font-family="Helvetica,sans-Serif" font-size="10.00">/when_all.cpp</text>
</a>
</g>
</g>
<!-- Node10&#45;&gt;Node11 -->
<g id="edge10" class="edge">
<title>Node10&#45;&gt;Node11</title>
<path fill="none" stroke="midnightblue" d="M792.73,-64.7C753.88,-54.04 704.24,-40.43 667.63,-30.39"/>
<polygon fill="midnightblue" stroke="midnightblue" points="792.3,-68.21 802.87,-67.48 794.15,-61.46 792.3,-68.21"/>
</g>
<!-- Node12&#45;&gt;Node13 -->
<g id="edge12" class="edge">
<title>Node12&#45;&gt;Node13</title>
<path fill="none" stroke="midnightblue" d="M604.95,-131.58C568.73,-121.02 522.65,-107.59 488.41,-97.61"/>
<polygon fill="midnightblue" stroke="midnightblue" points="604.31,-135.04 614.89,-134.48 606.27,-128.32 604.31,-135.04"/>
</g>
<!-- Node14 -->
<g id="node14" class="node">
<title>Node14</title>
<g id="a_node14"><a xlink:href="when__any_8cpp.html" target="_top" xlink:title=" ">
<polygon fill="none" stroke="black" points="258.5,-0.5 258.5,-30.5 359.5,-30.5 359.5,-0.5 258.5,-0.5"/>
<text text-anchor="start" x="266.5" y="-18.5" font-family="Helvetica,sans-Serif" font-size="10.00">test/example/async</text>
<text text-anchor="middle" x="309" y="-7.5" font-family="Helvetica,sans-Serif" font-size="10.00">/when_any.cpp</text>
</a>
</g>
</g>
<!-- Node13&#45;&gt;Node14 -->
<g id="edge13" class="edge">
<title>Node13&#45;&gt;Node14</title>
<path fill="none" stroke="midnightblue" d="M402.42,-62.85C381.71,-52.58 356.41,-40.03 337.37,-30.58"/>
<polygon fill="midnightblue" stroke="midnightblue" points="401.06,-66.09 411.57,-67.4 404.17,-59.82 401.06,-66.09"/>
</g>
<!-- Node16&#45;&gt;Node7 -->
<g id="edge18" class="edge">
<title>Node16&#45;&gt;Node7</title>
<path fill="none" stroke="midnightblue" d="M95.92,-197.54C121.37,-187.14 152.93,-174.24 176.57,-164.58"/>
<polygon fill="midnightblue" stroke="midnightblue" points="94.43,-194.37 86.5,-201.4 97.08,-200.85 94.43,-194.37"/>
</g>
<!-- Node16&#45;&gt;Node11 -->
<g id="edge19" class="edge">
<title>Node16&#45;&gt;Node11</title>
<path fill="none" stroke="midnightblue" d="M68.6,-193.55C83.71,-175.07 107.64,-149.26 134,-134 276.29,-51.65 474.27,-26.8 566.27,-19.47"/>
<polygon fill="midnightblue" stroke="midnightblue" points="65.79,-191.47 62.3,-201.47 71.27,-195.83 65.79,-191.47"/>
</g>
<!-- Node16&#45;&gt;Node14 -->
<g id="edge20" class="edge">
<title>Node16&#45;&gt;Node14</title>
<path fill="none" stroke="midnightblue" d="M48.93,-191.34C46.22,-158.59 46.81,-100.38 79,-67 103.33,-41.77 198.29,-27.68 258.32,-21.13"/>
<polygon fill="midnightblue" stroke="midnightblue" points="45.46,-191.79 49.93,-201.39 52.42,-191.1 45.46,-191.79"/>
</g>
<!-- Node17&#45;&gt;Node2 -->
<g id="edge22" class="edge">
<title>Node17&#45;&gt;Node2</title>
<path fill="none" stroke="midnightblue" d="M1496.82,-231.21C1495.53,-231.47 1494.26,-231.74 1493,-232 1257.15,-280.73 1196.77,-285.89 961,-335 958.17,-335.59 955.27,-336.2 952.35,-336.83"/>
<polygon fill="midnightblue" stroke="midnightblue" points="1497.73,-234.59 1506.79,-229.1 1496.28,-227.74 1497.73,-234.59"/>
</g>
<!-- Node22&#45;&gt;Node20 -->
<g id="edge30" class="edge">
<title>Node22&#45;&gt;Node20</title>
<path fill="none" stroke="midnightblue" d="M1072.22,-124.4C1073.06,-115.37 1073.98,-105.41 1074.7,-97.58"/>
<polygon fill="midnightblue" stroke="midnightblue" points="1068.74,-124.12 1071.3,-134.4 1075.71,-124.76 1068.74,-124.12"/>
</g>
<!-- Node23&#45;&gt;Node21 -->
<g id="edge32" class="edge">
<title>Node23&#45;&gt;Node21</title>
<path fill="none" stroke="midnightblue" d="M1279.16,-126.16C1272.01,-116.68 1263.9,-105.92 1257.61,-97.58"/>
<polygon fill="midnightblue" stroke="midnightblue" points="1276.55,-128.52 1285.37,-134.4 1282.14,-124.3 1276.55,-128.52"/>
</g>
<!-- Node25&#45;&gt;Node22 -->
<g id="edge35" class="edge">
<title>Node25&#45;&gt;Node22</title>
<path fill="none" stroke="midnightblue" d="M1345.3,-204.24C1285.76,-192.61 1193.19,-174.55 1132.09,-162.62"/>
<polygon fill="midnightblue" stroke="midnightblue" points="1344.8,-207.71 1355.29,-206.19 1346.15,-200.84 1344.8,-207.71"/>
</g>
<!-- Node25&#45;&gt;Node23 -->
<g id="edge36" class="edge">
<title>Node25&#45;&gt;Node23</title>
<path fill="none" stroke="midnightblue" d="M1370.92,-196.02C1354.27,-185.9 1334.31,-173.77 1319.17,-164.58"/>
<polygon fill="midnightblue" stroke="midnightblue" points="1369.42,-199.2 1379.78,-201.4 1373.05,-193.21 1369.42,-199.2"/>
</g>
<!-- Node25&#45;&gt;Node24 -->
<g id="edge37" class="edge">
<title>Node25&#45;&gt;Node24</title>
<path fill="none" stroke="midnightblue" d="M1460.57,-201.81C1462.06,-201.53 1463.54,-201.26 1465,-201 1598.57,-177.52 1634.39,-188.24 1768,-165 1772.64,-164.19 1777.46,-163.26 1782.27,-162.26"/>
<polygon fill="midnightblue" stroke="midnightblue" points="1459.74,-198.4 1450.62,-203.8 1461.11,-205.27 1459.74,-198.4"/>
</g>
<!-- Node26 -->
<g id="node26" class="node">
<title>Node26</title>
<g id="a_node26"><a xlink:href="coro_2task_8hpp.html" target="_top" xlink:title=" ">
<polygon fill="none" stroke="black" points="1384.5,-134.5 1384.5,-164.5 1481.5,-164.5 1481.5,-134.5 1384.5,-134.5"/>
<text text-anchor="start" x="1392.5" y="-152.5" font-family="Helvetica,sans-Serif" font-size="10.00">include/yaclib/coro</text>
<text text-anchor="middle" x="1433" y="-141.5" font-family="Helvetica,sans-Serif" font-size="10.00">/task.hpp</text>
</a>
</g>
</g>
<!-- Node25&#45;&gt;Node26 -->
<g id="edge38" class="edge">
<title>Node25&#45;&gt;Node26</title>
<path fill="none" stroke="midnightblue" d="M1413.72,-192.28C1417.99,-183.02 1422.77,-172.66 1426.5,-164.58"/>
<polygon fill="midnightblue" stroke="midnightblue" points="1410.52,-190.85 1409.51,-201.4 1416.88,-193.78 1410.52,-190.85"/>
</g>
<!-- Node27 -->
<g id="node27" class="node">
<title>Node27</title>
<g id="a_node27"><a xlink:href="lazy_2make_8hpp.html" target="_top" xlink:title=" ">
<polygon fill="none" stroke="black" points="1602.5,-67.5 1602.5,-97.5 1697.5,-97.5 1697.5,-67.5 1602.5,-67.5"/>
<text text-anchor="start" x="1610.5" y="-85.5" font-family="Helvetica,sans-Serif" font-size="10.00">include/yaclib/lazy</text>
<text text-anchor="middle" x="1650" y="-74.5" font-family="Helvetica,sans-Serif" font-size="10.00">/make.hpp</text>
</a>
</g>
</g>
<!-- Node25&#45;&gt;Node27 -->
<g id="edge39" class="edge">
<title>Node25&#45;&gt;Node27</title>
<path fill="none" stroke="midnightblue" d="M1460.57,-201.84C1462.06,-201.55 1463.54,-201.27 1465,-201 1524.54,-190.09 1695.13,-210.54 1735,-165 1757.15,-139.7 1715.74,-113.26 1683.3,-97.59"/>
<polygon fill="midnightblue" stroke="midnightblue" points="1459.73,-198.44 1450.63,-203.87 1461.13,-205.29 1459.73,-198.44"/>
</g>
<!-- Node28 -->
<g id="node28" class="node">
<title>Node28</title>
<g id="a_node28"><a xlink:href="schedule_8hpp.html" target="_top" xlink:title=" ">
<polygon fill="none" stroke="black" points="1499.5,-134.5 1499.5,-164.5 1594.5,-164.5 1594.5,-134.5 1499.5,-134.5"/>
<text text-anchor="start" x="1507.5" y="-152.5" font-family="Helvetica,sans-Serif" font-size="10.00">include/yaclib/lazy</text>
<text text-anchor="middle" x="1547" y="-141.5" font-family="Helvetica,sans-Serif" font-size="10.00">/schedule.hpp</text>
</a>
</g>
</g>
<!-- Node25&#45;&gt;Node28 -->
<g id="edge40" class="edge">
<title>Node25&#45;&gt;Node28</title>
<path fill="none" stroke="midnightblue" d="M1443.39,-197.27C1466.32,-186.92 1494.6,-174.15 1515.82,-164.58"/>
<polygon fill="midnightblue" stroke="midnightblue" points="1441.92,-194.09 1434.25,-201.4 1444.8,-200.47 1441.92,-194.09"/>
</g>
<!-- Node29 -->
<g id="node29" class="node">
<title>Node29</title>
<g id="a_node29"><a xlink:href="task__impl_8cpp.html" target="_top" xlink:title=" ">
<polygon fill="none" stroke="black" points="1612.5,-140 1612.5,-159 1725.5,-159 1725.5,-140 1612.5,-140"/>
<text text-anchor="middle" x="1669" y="-147" font-family="Helvetica,sans-Serif" font-size="10.00">src/lazy/task_impl.cpp</text>
</a>
</g>
</g>
<!-- Node25&#45;&gt;Node29 -->
<g id="edge42" class="edge">
<title>Node25&#45;&gt;Node29</title>
<path fill="none" stroke="midnightblue" d="M1460.46,-201.46C1513.32,-188.54 1590,-169.8 1634.15,-159.02"/>
<polygon fill="midnightblue" stroke="midnightblue" points="1459.44,-198.11 1450.56,-203.88 1461.1,-204.91 1459.44,-198.11"/>
</g>
<!-- Node28&#45;&gt;Node27 -->
<g id="edge41" class="edge">
<title>Node28&#45;&gt;Node27</title>
<path fill="none" stroke="midnightblue" d="M1577.88,-129.02C1593.9,-118.9 1613.13,-106.77 1627.69,-97.58"/>
<polygon fill="midnightblue" stroke="midnightblue" points="1575.94,-126.1 1569.35,-134.4 1579.67,-132.02 1575.94,-126.1"/>
</g>
</g>
</svg>
        <g id="navigator" transform="translate(0 0)" fill="#404254">
                <rect fill="#f2f5e9" fill-opacity="0.5" stroke="#606060" stroke-width=".5" x="0" y="0" width="60" height="60"/>
                <use id="zoomplus" xlink:href="#zoomPlus" x="17" y="9" onmousedown="handleZoom(evt,'in')"/>
                <use id="zoomminus" xlink:href="#zoomMin" x="42" y="9" onmousedown="handleZoom(evt,'out')"/>
                <use id="reset" xlink:href="#resetDef" x="30" y="36" onmousedown="handleReset()"/>
                <g id="arrowUp" xlink:href="#dirArrow" transform="translate(30 24)" onmousedown="handlePan(0,-1)">
                  <use xlink:href="#rim" fill="#404040">
                        <set attributeName="fill" to="#808080" begin="arrowUp.mouseover" end="arrowUp.mouseout"/>
                  </use>
                  <path fill="none" stroke="white" stroke-width="1.5" d="M0,-3.0v7 M-2.5,-0.5L0,-3.0L2.5,-0.5"/>
                </g>
                <g id="arrowRight" xlink:href="#dirArrow" transform="rotate(90) translate(36 -43)" onmousedown="handlePan(1,0)">
                  <use xlink:href="#rim" fill="#404040">
                        <set attributeName="fill" to="#808080" begin="arrowRight.mouseover" end="arrowRight.mouseout"/>
                  </use>
                  <path fill="none" stroke="white" stroke-width="1.5" d="M0,-3.0v7 M-2.5,-0.5L0,-3.0L2.5,-0.5"/>
                </g>
                <g id="arrowDown" xlink:href="#dirArrow" transform="rotate(180) translate(-30 -48)" onmousedown="handlePan(0,1)">
                  <use xlink:href="#rim" fill="#404040">
                        <set attributeName="fill" to="#808080" begin="arrowDown.mouseover" end="arrowDown.mouseout"/>
                  </use>
                  <path fill="none" stroke="white" stroke-width="1.5" d="M0,-3.0v7 M-2.5,-0.5L0,-3.0L2.5,-0.5"/>
                </g>
                <g id="arrowLeft" xlink:href="#dirArrow" transform="rotate(270) translate(-36 17)" onmousedown="handlePan(-1,0)">
                  <use xlink:href="#rim" fill="#404040">
                        <set attributeName="fill" to="#808080" begin="arrowLeft.mouseover" end="arrowLeft.mouseout"/>
                  </use>
                  <path fill="none" stroke="white" stroke-width="1.5" d="M0,-3.0v7 M-2.5,-0.5L0,-3.0L2.5,-0.5"/>
                </g>
        </g>
        <svg viewBox="0 0 15 15" width="100%" height="30px" preserveAspectRatio="xMaxYMin meet">
         <g id="arrow_out" transform="scale(0.3 0.3)">
          <a xlink:href="core_8hpp__dep__incl_org.svg" target="_base">
           <rect id="button" ry="5" rx="5" y="6" x="6" height="38" width="38"
                fill="#f2f5e9" fill-opacity="0.5" stroke="#606060" stroke-width="1.0"/>
           <path id="arrow"
             d="M 11.500037,31.436501 C 11.940474,20.09759 22.043105,11.32322 32.158766,21.979434 L 37.068811,17.246167 C 37.068811,17.246167 37.088388,32 37.088388,32 L 22.160133,31.978069 C 22.160133,31.978069 26.997745,27.140456 26.997745,27.140456 C 18.528582,18.264221 13.291696,25.230495 11.500037,31.436501 z"
             style="fill:#404040;"/>
          </a>
         </g>
        </svg>
</svg>
