<?xml version="1.0" encoding="UTF-8" standalone="no"?>
<!DOCTYPE svg PUBLIC "-//W3C//DTD SVG 1.1//EN"
 "http://www.w3.org/Graphics/SVG/1.1/DTD/svg11.dtd">
<!-- Generated by graphviz version 9.0.0 (20230911.1827)
 -->
<!-- Title: include/yaclib/algo/detail/core.hpp Pages: 1 -->
<svg width="1333pt" height="603pt"
 viewBox="0.00 0.00 1333.25 603.25" xmlns="http://www.w3.org/2000/svg" xmlns:xlink="http://www.w3.org/1999/xlink">
<g id="graph0" class="graph" transform="scale(1 1) rotate(0) translate(4 599.25)">
<title>include/yaclib/algo/detail/core.hpp</title>
<!-- Node1 -->
<g id="Node000001" class="node">
<title>Node1</title>
<g id="a_Node000001"><a xlink:title=" ">
<polygon fill="#999999" stroke="#666666" points="734.5,-595.25 639,-595.25 639,-564.75 734.5,-564.75 734.5,-595.25"/>
<text text-anchor="start" x="647" y="-581.75" font-family="Helvetica,sans-Serif" font-size="10.00">include/yaclib/algo</text>
<text text-anchor="middle" x="686.75" y="-570.5" font-family="Helvetica,sans-Serif" font-size="10.00">/detail/core.hpp</text>
</a>
</g>
</g>
<!-- Node2 -->
<g id="Node000002" class="node">
<title>Node2</title>
<g id="a_Node000002"><a xlink:href="func__core_8hpp.html" target="_top" xlink:title=" ">
<polygon fill="white" stroke="#666666" points="438.75,-274 350.75,-274 350.75,-243.5 438.75,-243.5 438.75,-274"/>
<text text-anchor="start" x="358.75" y="-260.5" font-family="Helvetica,sans-Serif" font-size="10.00">yaclib/algo/detail</text>
<text text-anchor="middle" x="394.75" y="-249.25" font-family="Helvetica,sans-Serif" font-size="10.00">/func_core.hpp</text>
</a>
</g>
</g>
<!-- Node1&#45;&gt;Node2 -->
<g id="edge1_Node000001_Node000002" class="edge">
<title>Node1&#45;&gt;Node2</title>
<g id="a_edge1_Node000001_Node000002"><a xlink:title=" ">
<path fill="none" stroke="#63b8ff" d="M638.53,-578.42C555.6,-574.59 394.75,-553.57 394.75,-448 394.75,-448 394.75,-448 394.75,-379.5 394.75,-347.28 394.75,-310.18 394.75,-285.92"/>
<polygon fill="#63b8ff" stroke="#63b8ff" points="398.25,-286.01 394.75,-276.01 391.25,-286.01 398.25,-286.01"/>
</a>
</g>
</g>
<!-- Node3 -->
<g id="Node000003" class="node">
<title>Node3</title>
<g id="a_Node000003"><a xlink:title=" ">
<polygon fill="#e0e0e0" stroke="#999999" points="610.38,-201.88 523.12,-201.88 523.12,-182.62 610.38,-182.62 610.38,-201.88"/>
<text text-anchor="middle" x="566.75" y="-188.38" font-family="Helvetica,sans-Serif" font-size="10.00">yaclib/config.hpp</text>
</a>
</g>
</g>
<!-- Node1&#45;&gt;Node3 -->
<g id="edge53_Node000001_Node000003" class="edge">
<title>Node1&#45;&gt;Node3</title>
<g id="a_edge53_Node000001_Node000003"><a xlink:title=" ">
<path fill="none" stroke="#63b8ff" d="M685.06,-564.45C682.75,-547.84 677.69,-520.15 667.75,-498.25 629.56,-414.14 574.99,-417.21 546.75,-329.25 533.84,-289.05 548.33,-239.47 558.51,-212.66"/>
<polygon fill="#63b8ff" stroke="#63b8ff" points="561.72,-214.05 562.2,-203.47 555.22,-211.44 561.72,-214.05"/>
</a>
</g>
</g>
<!-- Node7 -->
<g id="Node000007" class="node">
<title>Node7</title>
<g id="a_Node000007"><a xlink:href="result__core_8hpp.html" target="_top" xlink:title=" ">
<polygon fill="white" stroke="#666666" points="549.75,-462.25 461.75,-462.25 461.75,-431.75 549.75,-431.75 549.75,-462.25"/>
<text text-anchor="start" x="469.75" y="-448.75" font-family="Helvetica,sans-Serif" font-size="10.00">yaclib/algo/detail</text>
<text text-anchor="middle" x="505.75" y="-437.5" font-family="Helvetica,sans-Serif" font-size="10.00">/result_core.hpp</text>
</a>
</g>
</g>
<!-- Node1&#45;&gt;Node7 -->
<g id="edge6_Node000001_Node000007" class="edge">
<title>Node1&#45;&gt;Node7</title>
<g id="a_edge6_Node000001_Node000007"><a xlink:title=" ">
<path fill="none" stroke="#63b8ff" d="M638.75,-575.69C576.96,-570.31 474.8,-557.26 451.75,-528.75 436.39,-509.76 455.69,-486.41 475.35,-469.72"/>
<polygon fill="#63b8ff" stroke="#63b8ff" points="477.49,-472.49 483.11,-463.5 473.11,-467.02 477.49,-472.49"/>
</a>
</g>
</g>
<!-- Node23 -->
<g id="Node000023" class="node">
<title>Node23</title>
<g id="a_Node000023"><a xlink:href="cast_8hpp.html" target="_top" xlink:title=" ">
<polygon fill="white" stroke="#666666" points="903.88,-390.12 807.62,-390.12 807.62,-370.88 903.88,-370.88 903.88,-390.12"/>
<text text-anchor="middle" x="855.75" y="-376.62" font-family="Helvetica,sans-Serif" font-size="10.00">yaclib/util/cast.hpp</text>
</a>
</g>
</g>
<!-- Node1&#45;&gt;Node23 -->
<g id="edge54_Node000001_Node000023" class="edge">
<title>Node1&#45;&gt;Node23</title>
<g id="a_edge54_Node000001_Node000023"><a xlink:title=" ">
<path fill="none" stroke="#63b8ff" d="M699.18,-564.48C729.68,-528.84 808.12,-437.16 840.95,-398.79"/>
<polygon fill="#63b8ff" stroke="#63b8ff" points="843.43,-401.28 847.28,-391.4 838.11,-396.73 843.43,-401.28"/>
</a>
</g>
</g>
<!-- Node30 -->
<g id="Node000030" class="node">
<title>Node30</title>
<g id="a_Node000030"><a xlink:href="shared__core_8hpp.html" target="_top" xlink:title=" ">
<polygon fill="white" stroke="#666666" points="550.88,-528.75 460.62,-528.75 460.62,-498.25 550.88,-498.25 550.88,-528.75"/>
<text text-anchor="start" x="468.62" y="-515.25" font-family="Helvetica,sans-Serif" font-size="10.00">yaclib/algo/detail</text>
<text text-anchor="middle" x="505.75" y="-504" font-family="Helvetica,sans-Serif" font-size="10.00">/shared_core.hpp</text>
</a>
</g>
</g>
<!-- Node1&#45;&gt;Node30 -->
<g id="edge49_Node000001_Node000030" class="edge">
<title>Node1&#45;&gt;Node30</title>
<g id="a_edge49_Node000001_Node000030"><a xlink:title=" ">
<path fill="none" stroke="#63b8ff" d="M645.68,-564.36C619.62,-555.08 585.67,-542.98 557.74,-533.03"/>
<polygon fill="#63b8ff" stroke="#63b8ff" points="558.99,-529.76 548.4,-529.7 556.64,-536.35 558.99,-529.76"/>
</a>
</g>
</g>
<!-- Node31 -->
<g id="Node000031" class="node">
<title>Node31</title>
<g id="a_Node000031"><a xlink:href="unique__core_8hpp.html" target="_top" xlink:title=" ">
<polygon fill="white" stroke="#666666" points="658.5,-528.75 569,-528.75 569,-498.25 658.5,-498.25 658.5,-528.75"/>
<text text-anchor="start" x="577" y="-515.25" font-family="Helvetica,sans-Serif" font-size="10.00">yaclib/algo/detail</text>
<text text-anchor="middle" x="613.75" y="-504" font-family="Helvetica,sans-Serif" font-size="10.00">/unique_core.hpp</text>
</a>
</g>
</g>
<!-- Node1&#45;&gt;Node31 -->
<g id="edge51_Node000001_Node000031" class="edge">
<title>Node1&#45;&gt;Node31</title>
<g id="a_edge51_Node000001_Node000031"><a xlink:title=" ">
<path fill="none" stroke="#63b8ff" d="M670.19,-564.36C660.85,-556.12 649.01,-545.65 638.59,-536.44"/>
<polygon fill="#63b8ff" stroke="#63b8ff" points="641.19,-534.08 631.38,-530.08 636.56,-539.32 641.19,-534.08"/>
</a>
</g>
</g>
<!-- Node32 -->
<g id="Node000032" class="node">
<title>Node32</title>
<g id="a_Node000032"><a xlink:href="atomic__counter_8hpp.html" target="_top" xlink:title=" ">
<polygon fill="white" stroke="#666666" points="1024.62,-274 920.88,-274 920.88,-243.5 1024.62,-243.5 1024.62,-274"/>
<text text-anchor="start" x="928.88" y="-260.5" font-family="Helvetica,sans-Serif" font-size="10.00">yaclib/util/detail</text>
<text text-anchor="middle" x="972.75" y="-249.25" font-family="Helvetica,sans-Serif" font-size="10.00">/atomic_counter.hpp</text>
</a>
</g>
</g>
<!-- Node1&#45;&gt;Node32 -->
<g id="edge55_Node000001_Node000032" class="edge">
<title>Node1&#45;&gt;Node32</title>
<g id="a_edge55_Node000001_Node000032"><a xlink:title=" ">
<path fill="none" stroke="#63b8ff" d="M734.76,-577.8C815.5,-572.96 969.75,-550.33 969.75,-448 969.75,-448 969.75,-448 969.75,-379.5 969.75,-347.27 970.85,-310.17 971.72,-285.92"/>
<polygon fill="#63b8ff" stroke="#63b8ff" points="975.21,-286.13 972.09,-276.01 968.22,-285.87 975.21,-286.13"/>
</a>
</g>
</g>
<!-- Node34 -->
<g id="Node000034" class="node">
<title>Node34</title>
<g id="a_Node000034"><a xlink:href="unique__counter_8hpp.html" target="_top" xlink:title=" ">
<polygon fill="white" stroke="#666666" points="1325.25,-274 1222.25,-274 1222.25,-243.5 1325.25,-243.5 1325.25,-274"/>
<text text-anchor="start" x="1230.25" y="-260.5" font-family="Helvetica,sans-Serif" font-size="10.00">yaclib/util/detail</text>
<text text-anchor="middle" x="1273.75" y="-249.25" font-family="Helvetica,sans-Serif" font-size="10.00">/unique_counter.hpp</text>
</a>
</g>
</g>
<!-- Node1&#45;&gt;Node34 -->
<g id="edge61_Node000001_Node000034" class="edge">
<title>Node1&#45;&gt;Node34</title>
<g id="a_edge61_Node000001_Node000034"><a xlink:title=" ">
<path fill="none" stroke="#63b8ff" d="M734.67,-576.05C855.63,-567.3 1163.75,-536.35 1163.75,-448 1163.75,-448 1163.75,-448 1163.75,-379.5 1163.75,-335.62 1204.29,-300.89 1236.15,-280.36"/>
<polygon fill="#63b8ff" stroke="#63b8ff" points="1237.76,-283.49 1244.42,-275.25 1234.07,-277.53 1237.76,-283.49"/>
</a>
</g>
</g>
<!-- Node35 -->
<g id="Node000035" class="node">
<title>Node35</title>
<g id="a_Node000035"><a xlink:href="helper_8hpp.html" target="_top" xlink:title=" ">
<polygon fill="white" stroke="#666666" points="1104.62,-329.25 1000.88,-329.25 1000.88,-310 1104.62,-310 1104.62,-329.25"/>
<text text-anchor="middle" x="1052.75" y="-315.75" font-family="Helvetica,sans-Serif" font-size="10.00">yaclib/util/helper.hpp</text>
</a>
</g>
</g>
<!-- Node1&#45;&gt;Node35 -->
<g id="edge63_Node000001_Node000035" class="edge">
<title>Node1&#45;&gt;Node35</title>
<g id="a_edge63_Node000001_Node000035"><a xlink:title=" ">
<path fill="none" stroke="#63b8ff" d="M734.74,-576.78C809.03,-572.4 947.14,-560.16 983.75,-528.75 1040.7,-479.88 1050.86,-382.86 1052.52,-340.82"/>
<polygon fill="#63b8ff" stroke="#63b8ff" points="1056.01,-341.05 1052.77,-330.96 1049.01,-340.87 1056.01,-341.05"/>
</a>
</g>
</g>
<!-- Node2&#45;&gt;Node3 -->
<g id="edge2_Node000002_Node000003" class="edge">
<title>Node2&#45;&gt;Node3</title>
<g id="a_edge2_Node000002_Node000003"><a xlink:title=" ">
<path fill="none" stroke="#63b8ff" d="M433.78,-243.11C463.35,-232.02 503.62,-216.92 532.07,-206.25"/>
<polygon fill="#63b8ff" stroke="#63b8ff" points="533.17,-209.58 541.31,-202.79 530.71,-203.03 533.17,-209.58"/>
</a>
</g>
</g>
<!-- Node4 -->
<g id="Node000004" class="node">
<title>Node4</title>
<g id="a_Node000004"><a xlink:href="fwd_8hpp.html" target="_top" xlink:title=" ">
<polygon fill="white" stroke="#666666" points="77.5,-74.5 0,-74.5 0,-55.25 77.5,-55.25 77.5,-74.5"/>
<text text-anchor="middle" x="38.75" y="-61" font-family="Helvetica,sans-Serif" font-size="10.00">yaclib/fwd.hpp</text>
</a>
</g>
</g>
<!-- Node2&#45;&gt;Node4 -->
<g id="edge3_Node000002_Node000004" class="edge">
<title>Node2&#45;&gt;Node4</title>
<g id="a_edge3_Node000002_Node000004"><a xlink:title=" ">
<path fill="none" stroke="#63b8ff" d="M350.5,-245.18C317.53,-235.56 271.53,-221.59 231.75,-207.5 197.44,-195.35 189.72,-190.05 155.75,-177 112.44,-160.36 88.81,-175.48 57.75,-141 44.26,-126.02 40.05,-102.85 38.88,-86.2"/>
<polygon fill="#63b8ff" stroke="#63b8ff" points="42.39,-86.36 38.53,-76.5 35.4,-86.62 42.39,-86.36"/>
</a>
</g>
</g>
<!-- Node5 -->
<g id="Node000005" class="node">
<title>Node5</title>
<g id="a_Node000005"><a xlink:title=" ">
<polygon fill="#e0e0e0" stroke="#999999" points="611.25,-74.5 550.25,-74.5 550.25,-55.25 611.25,-55.25 611.25,-74.5"/>
<text text-anchor="middle" x="580.75" y="-61" font-family="Helvetica,sans-Serif" font-size="10.00">type_traits</text>
</a>
</g>
</g>
<!-- Node2&#45;&gt;Node5 -->
<g id="edge4_Node000002_Node000005" class="edge">
<title>Node2&#45;&gt;Node5</title>
<g id="a_edge4_Node000002_Node000005"><a xlink:title=" ">
<path fill="none" stroke="#63b8ff" d="M409.04,-243.01C443.06,-207.92 528.7,-119.57 564.56,-82.57"/>
<polygon fill="#63b8ff" stroke="#63b8ff" points="566.67,-85.42 571.12,-75.81 561.65,-80.55 566.67,-85.42"/>
</a>
</g>
</g>
<!-- Node6 -->
<g id="Node000006" class="node">
<title>Node6</title>
<g id="a_Node000006"><a xlink:title=" ">
<polygon fill="#e0e0e0" stroke="#999999" points="429,-74.5 390.5,-74.5 390.5,-55.25 429,-55.25 429,-74.5"/>
<text text-anchor="middle" x="409.75" y="-61" font-family="Helvetica,sans-Serif" font-size="10.00">utility</text>
</a>
</g>
</g>
<!-- Node2&#45;&gt;Node6 -->
<g id="edge5_Node000002_Node000006" class="edge">
<title>Node2&#45;&gt;Node6</title>
<g id="a_edge5_Node000002_Node000006"><a xlink:title=" ">
<path fill="none" stroke="#63b8ff" d="M395.9,-243.01C398.56,-208.95 405.15,-124.74 408.18,-85.98"/>
<polygon fill="#63b8ff" stroke="#63b8ff" points="411.65,-86.47 408.94,-76.23 404.67,-85.93 411.65,-86.47"/>
</a>
</g>
</g>
<!-- Node7&#45;&gt;Node6 -->
<g id="edge48_Node000007_Node000006" class="edge">
<title>Node7&#45;&gt;Node6</title>
<g id="a_edge48_Node000007_Node000006"><a xlink:title=" ">
<path fill="none" stroke="#63b8ff" d="M501.32,-431.49C494.63,-408.3 482.75,-361.34 482.75,-320.62 482.75,-320.62 482.75,-320.62 482.75,-257.75 482.75,-190.21 442.75,-117.53 421.97,-84.32"/>
<polygon fill="#63b8ff" stroke="#63b8ff" points="425.14,-82.78 416.79,-76.26 419.25,-86.56 425.14,-82.78"/>
</a>
</g>
</g>
<!-- Node8 -->
<g id="Node000008" class="node">
<title>Node8</title>
<g id="a_Node000008"><a xlink:href="base__core_8hpp.html" target="_top" xlink:title=" ">
<polygon fill="white" stroke="#666666" points="763.75,-395.75 675.75,-395.75 675.75,-365.25 763.75,-365.25 763.75,-395.75"/>
<text text-anchor="start" x="683.75" y="-382.25" font-family="Helvetica,sans-Serif" font-size="10.00">yaclib/algo/detail</text>
<text text-anchor="middle" x="719.75" y="-371" font-family="Helvetica,sans-Serif" font-size="10.00">/base_core.hpp</text>
</a>
</g>
</g>
<!-- Node7&#45;&gt;Node8 -->
<g id="edge7_Node000007_Node000008" class="edge">
<title>Node7&#45;&gt;Node8</title>
<g id="a_edge7_Node000007_Node000008"><a xlink:title=" ">
<path fill="none" stroke="#63b8ff" d="M550.09,-432.64C583.38,-422.6 629.15,-408.81 664.76,-398.07"/>
<polygon fill="#63b8ff" stroke="#63b8ff" points="665.45,-401.52 674.02,-395.28 663.43,-394.82 665.45,-401.52"/>
</a>
</g>
</g>
<!-- Node7&#45;&gt;Node23 -->
<g id="edge32_Node000007_Node000023" class="edge">
<title>Node7&#45;&gt;Node23</title>
<g id="a_edge32_Node000007_Node000023"><a xlink:title=" ">
<path fill="none" stroke="#63b8ff" d="M550.08,-437.83C612.46,-426.34 726.3,-405.36 796.07,-392.5"/>
<polygon fill="#63b8ff" stroke="#63b8ff" points="796.61,-395.96 805.81,-390.7 795.34,-389.07 796.61,-395.96"/>
</a>
</g>
</g>
<!-- Node25 -->
<g id="Node000025" class="node">
<title>Node25</title>
<g id="a_Node000025"><a xlink:href="result_8hpp.html" target="_top" xlink:title=" ">
<polygon fill="white" stroke="#666666" points="200.5,-268.38 99,-268.38 99,-249.12 200.5,-249.12 200.5,-268.38"/>
<text text-anchor="middle" x="149.75" y="-254.88" font-family="Helvetica,sans-Serif" font-size="10.00">yaclib/util/result.hpp</text>
</a>
</g>
</g>
<!-- Node7&#45;&gt;Node25 -->
<g id="edge35_Node000007_Node000025" class="edge">
<title>Node7&#45;&gt;Node25</title>
<g id="a_edge35_Node000007_Node000025"><a xlink:title=" ">
<path fill="none" stroke="#63b8ff" d="M477.82,-431.39C411.05,-396.46 242.88,-308.47 176.91,-273.96"/>
<polygon fill="#63b8ff" stroke="#63b8ff" points="178.7,-270.95 168.22,-269.41 175.45,-277.15 178.7,-270.95"/>
</a>
</g>
</g>
<!-- Node9 -->
<g id="Node000009" class="node">
<title>Node9</title>
<g id="a_Node000009"><a xlink:href="inline__core_8hpp.html" target="_top" xlink:title=" ">
<polygon fill="white" stroke="#666666" points="692.75,-274 604.75,-274 604.75,-243.5 692.75,-243.5 692.75,-274"/>
<text text-anchor="start" x="612.75" y="-260.5" font-family="Helvetica,sans-Serif" font-size="10.00">yaclib/algo/detail</text>
<text text-anchor="middle" x="648.75" y="-249.25" font-family="Helvetica,sans-Serif" font-size="10.00">/inline_core.hpp</text>
</a>
</g>
</g>
<!-- Node8&#45;&gt;Node9 -->
<g id="edge8_Node000008_Node000009" class="edge">
<title>Node8&#45;&gt;Node9</title>
<g id="a_edge8_Node000008_Node000009"><a xlink:title=" ">
<path fill="none" stroke="#63b8ff" d="M725.11,-364.98C729.62,-350.22 733.97,-327.15 724.75,-310 718.01,-297.47 706.63,-287.54 694.69,-279.93"/>
<polygon fill="#63b8ff" stroke="#63b8ff" points="696.79,-277.1 686.39,-275.08 693.26,-283.15 696.79,-277.1"/>
</a>
</g>
</g>
<!-- Node17 -->
<g id="Node000017" class="node">
<title>Node17</title>
<g id="a_Node000017"><a xlink:href="executor_8hpp.html" target="_top" xlink:title=" ">
<polygon fill="white" stroke="#666666" points="827,-268.38 710.5,-268.38 710.5,-249.12 827,-249.12 827,-268.38"/>
<text text-anchor="middle" x="768.75" y="-254.88" font-family="Helvetica,sans-Serif" font-size="10.00">yaclib/exe/executor.hpp</text>
</a>
</g>
</g>
<!-- Node8&#45;&gt;Node17 -->
<g id="edge20_Node000008_Node000017" class="edge">
<title>Node8&#45;&gt;Node17</title>
<g id="a_edge20_Node000008_Node000017"><a xlink:title=" ">
<path fill="none" stroke="#63b8ff" d="M733.88,-364.9C742.17,-355.48 752.1,-342.54 757.75,-329.25 764.41,-313.59 767.08,-294.38 768.13,-280.13"/>
<polygon fill="#63b8ff" stroke="#63b8ff" points="771.62,-280.36 768.63,-270.2 764.63,-280.01 771.62,-280.36"/>
</a>
</g>
</g>
<!-- Node20 -->
<g id="Node000020" class="node">
<title>Node20</title>
<g id="a_Node000020"><a xlink:href="inline_8hpp.html" target="_top" xlink:title=" ">
<polygon fill="white" stroke="#666666" points="657.88,-329.25 555.62,-329.25 555.62,-310 657.88,-310 657.88,-329.25"/>
<text text-anchor="middle" x="606.75" y="-315.75" font-family="Helvetica,sans-Serif" font-size="10.00">yaclib/exe/inline.hpp</text>
</a>
</g>
</g>
<!-- Node8&#45;&gt;Node20 -->
<g id="edge27_Node000008_Node000020" class="edge">
<title>Node8&#45;&gt;Node20</title>
<g id="a_edge27_Node000008_Node000020"><a xlink:title=" ">
<path fill="none" stroke="#63b8ff" d="M691.53,-364.8C673.99,-355.66 651.55,-343.97 634.16,-334.91"/>
<polygon fill="#63b8ff" stroke="#63b8ff" points="635.91,-331.87 625.42,-330.35 632.67,-338.08 635.91,-331.87"/>
</a>
</g>
</g>
<!-- Node21 -->
<g id="Node000021" class="node">
<title>Node21</title>
<g id="a_Node000021"><a xlink:title=" ">
<polygon fill="#e0e0e0" stroke="#999999" points="715.38,-329.25 676.12,-329.25 676.12,-310 715.38,-310 715.38,-329.25"/>
<text text-anchor="middle" x="695.75" y="-315.75" font-family="Helvetica,sans-Serif" font-size="10.00">limits</text>
</a>
</g>
</g>
<!-- Node8&#45;&gt;Node21 -->
<g id="edge30_Node000008_Node000021" class="edge">
<title>Node8&#45;&gt;Node21</title>
<g id="a_edge30_Node000008_Node000021"><a xlink:title=" ">
<path fill="none" stroke="#63b8ff" d="M713.82,-364.95C710.76,-357.45 706.99,-348.2 703.69,-340.1"/>
<polygon fill="#63b8ff" stroke="#63b8ff" points="707.04,-339.04 700.02,-331.1 700.56,-341.68 707.04,-339.04"/>
</a>
</g>
</g>
<!-- Node22 -->
<g id="Node000022" class="node">
<title>Node22</title>
<g id="a_Node000022"><a xlink:title=" ">
<polygon fill="#e0e0e0" stroke="#999999" points="974.62,-201.88 882.88,-201.88 882.88,-182.62 974.62,-182.62 974.62,-201.88"/>
<text text-anchor="middle" x="928.75" y="-188.38" font-family="Helvetica,sans-Serif" font-size="10.00">yaclib_std/atomic</text>
</a>
</g>
</g>
<!-- Node8&#45;&gt;Node22 -->
<g id="edge31_Node000008_Node000022" class="edge">
<title>Node8&#45;&gt;Node22</title>
<g id="a_edge31_Node000008_Node000022"><a xlink:title=" ">
<path fill="none" stroke="#63b8ff" d="M736.15,-364.89C774.54,-330.68 870.03,-245.58 910.33,-209.66"/>
<polygon fill="#63b8ff" stroke="#63b8ff" points="912.43,-212.48 917.57,-203.22 907.77,-207.26 912.43,-212.48"/>
</a>
</g>
</g>
<!-- Node9&#45;&gt;Node3 -->
<g id="edge9_Node000009_Node000003" class="edge">
<title>Node9&#45;&gt;Node3</title>
<g id="a_edge9_Node000009_Node000003"><a xlink:title=" ">
<path fill="none" stroke="#63b8ff" d="M630.14,-243.11C617.21,-232.94 600,-219.41 586.77,-209"/>
<polygon fill="#63b8ff" stroke="#63b8ff" points="589.18,-206.44 579.16,-203.01 584.85,-211.94 589.18,-206.44"/>
</a>
</g>
</g>
<!-- Node10 -->
<g id="Node000010" class="node">
<title>Node10</title>
<g id="a_Node000010"><a xlink:href="job_8hpp.html" target="_top" xlink:title=" ">
<polygon fill="white" stroke="#666666" points="810,-201.88 717.5,-201.88 717.5,-182.62 810,-182.62 810,-201.88"/>
<text text-anchor="middle" x="763.75" y="-188.38" font-family="Helvetica,sans-Serif" font-size="10.00">yaclib/exe/job.hpp</text>
</a>
</g>
</g>
<!-- Node9&#45;&gt;Node10 -->
<g id="edge10_Node000009_Node000010" class="edge">
<title>Node9&#45;&gt;Node10</title>
<g id="a_edge10_Node000009_Node000010"><a xlink:title=" ">
<path fill="none" stroke="#63b8ff" d="M674.85,-243.11C693.66,-232.56 718.94,-218.38 737.73,-207.84"/>
<polygon fill="#63b8ff" stroke="#63b8ff" points="739.36,-210.94 746.37,-203 735.93,-204.84 739.36,-210.94"/>
</a>
</g>
</g>
<!-- Node11 -->
<g id="Node000011" class="node">
<title>Node11</title>
<g id="a_Node000011"><a xlink:href="log_8hpp.html" target="_top" xlink:title=" ">
<polygon fill="white" stroke="#666666" points="870,-74.5 795.5,-74.5 795.5,-55.25 870,-55.25 870,-74.5"/>
<text text-anchor="middle" x="832.75" y="-61" font-family="Helvetica,sans-Serif" font-size="10.00">yaclib/log.hpp</text>
</a>
</g>
</g>
<!-- Node9&#45;&gt;Node11 -->
<g id="edge19_Node000009_Node000011" class="edge">
<title>Node9&#45;&gt;Node11</title>
<g id="a_edge19_Node000009_Node000011"><a xlink:title=" ">
<path fill="none" stroke="#63b8ff" d="M651.32,-243.03C657.16,-213.77 674.14,-147.92 713.75,-110.5 733.07,-92.25 760.54,-81.3 784.23,-74.81"/>
<polygon fill="#63b8ff" stroke="#63b8ff" points="784.84,-78.27 793.68,-72.43 783.13,-71.48 784.84,-78.27"/>
</a>
</g>
</g>
<!-- Node10&#45;&gt;Node11 -->
<g id="edge11_Node000010_Node000011" class="edge">
<title>Node10&#45;&gt;Node11</title>
<g id="a_edge11_Node000010_Node000011"><a xlink:title=" ">
<path fill="none" stroke="#63b8ff" d="M775.91,-182.23C787.37,-173.1 804.17,-157.92 813.75,-141 823.48,-123.82 828.3,-101.65 830.64,-85.85"/>
<polygon fill="#63b8ff" stroke="#63b8ff" points="834.07,-86.63 831.84,-76.27 827.12,-85.76 834.07,-86.63"/>
</a>
</g>
</g>
<!-- Node13 -->
<g id="Node000013" class="node">
<title>Node13</title>
<g id="a_Node000013"><a xlink:href="node_8hpp.html" target="_top" xlink:title=" ">
<polygon fill="white" stroke="#666666" points="805.12,-141 722.38,-141 722.38,-110.5 805.12,-110.5 805.12,-141"/>
<text text-anchor="start" x="730.38" y="-127.5" font-family="Helvetica,sans-Serif" font-size="10.00">yaclib/util/detail</text>
<text text-anchor="middle" x="763.75" y="-116.25" font-family="Helvetica,sans-Serif" font-size="10.00">/node.hpp</text>
</a>
</g>
</g>
<!-- Node10&#45;&gt;Node13 -->
<g id="edge13_Node000010_Node000013" class="edge">
<title>Node10&#45;&gt;Node13</title>
<g id="a_edge13_Node000010_Node000013"><a xlink:title=" ">
<path fill="none" stroke="#63b8ff" d="M763.75,-182.28C763.75,-174.54 763.75,-162.95 763.75,-152.37"/>
<polygon fill="#63b8ff" stroke="#63b8ff" points="767.25,-152.61 763.75,-142.61 760.25,-152.61 767.25,-152.61"/>
</a>
</g>
</g>
<!-- Node14 -->
<g id="Node000014" class="node">
<title>Node14</title>
<g id="a_Node000014"><a xlink:href="func_8hpp.html" target="_top" xlink:title=" ">
<polygon fill="white" stroke="#666666" points="666.88,-135.38 570.62,-135.38 570.62,-116.12 666.88,-116.12 666.88,-135.38"/>
<text text-anchor="middle" x="618.75" y="-121.88" font-family="Helvetica,sans-Serif" font-size="10.00">yaclib/util/func.hpp</text>
</a>
</g>
</g>
<!-- Node10&#45;&gt;Node14 -->
<g id="edge14_Node000010_Node000014" class="edge">
<title>Node10&#45;&gt;Node14</title>
<g id="a_edge14_Node000010_Node000014"><a xlink:title=" ">
<path fill="none" stroke="#63b8ff" d="M743.28,-182.15C718.89,-171.29 677.88,-153.05 649.62,-140.48"/>
<polygon fill="#63b8ff" stroke="#63b8ff" points="651.06,-137.29 640.5,-136.42 648.21,-143.69 651.06,-137.29"/>
</a>
</g>
</g>
<!-- Node12 -->
<g id="Node000012" class="node">
<title>Node12</title>
<g id="a_Node000012"><a xlink:title=" ">
<polygon fill="#e0e0e0" stroke="#999999" points="865.5,-19.25 800,-19.25 800,0 865.5,0 865.5,-19.25"/>
<text text-anchor="middle" x="832.75" y="-5.75" font-family="Helvetica,sans-Serif" font-size="10.00">string_view</text>
</a>
</g>
</g>
<!-- Node11&#45;&gt;Node12 -->
<g id="edge12_Node000011_Node000012" class="edge">
<title>Node11&#45;&gt;Node12</title>
<g id="a_edge12_Node000011_Node000012"><a xlink:title=" ">
<path fill="none" stroke="#63b8ff" d="M832.75,-55.08C832.75,-48.57 832.75,-39.42 832.75,-31.12"/>
<polygon fill="#63b8ff" stroke="#63b8ff" points="836.25,-31.12 832.75,-21.12 829.25,-31.12 836.25,-31.12"/>
</a>
</g>
</g>
<!-- Node14&#45;&gt;Node5 -->
<g id="edge17_Node000014_Node000005" class="edge">
<title>Node14&#45;&gt;Node5</title>
<g id="a_edge17_Node000014_Node000005"><a xlink:title=" ">
<path fill="none" stroke="#63b8ff" d="M612.98,-115.81C607.62,-107.51 599.48,-94.89 592.72,-84.42"/>
<polygon fill="#63b8ff" stroke="#63b8ff" points="595.76,-82.68 587.4,-76.17 589.88,-86.47 595.76,-82.68"/>
</a>
</g>
</g>
<!-- Node14&#45;&gt;Node6 -->
<g id="edge18_Node000014_Node000006" class="edge">
<title>Node14&#45;&gt;Node6</title>
<g id="a_edge18_Node000014_Node000006"><a xlink:title=" ">
<path fill="none" stroke="#63b8ff" d="M586.55,-115.68C546.72,-104.46 479.41,-85.5 440.34,-74.49"/>
<polygon fill="#63b8ff" stroke="#63b8ff" points="441.44,-71.17 430.87,-71.82 439.55,-77.9 441.44,-71.17"/>
</a>
</g>
</g>
<!-- Node15 -->
<g id="Node000015" class="node">
<title>Node15</title>
<g id="a_Node000015"><a xlink:href="ref_8hpp.html" target="_top" xlink:title=" ">
<polygon fill="white" stroke="#666666" points="1089.12,-74.5 1000.38,-74.5 1000.38,-55.25 1089.12,-55.25 1089.12,-74.5"/>
<text text-anchor="middle" x="1044.75" y="-61" font-family="Helvetica,sans-Serif" font-size="10.00">yaclib/util/ref.hpp</text>
</a>
</g>
</g>
<!-- Node14&#45;&gt;Node15 -->
<g id="edge15_Node000014_Node000015" class="edge">
<title>Node14&#45;&gt;Node15</title>
<g id="a_edge15_Node000014_Node000015"><a xlink:title=" ">
<path fill="none" stroke="#63b8ff" d="M667.06,-117.36C682.02,-115.11 698.56,-112.66 713.75,-110.5 810.28,-96.75 922.81,-81.81 988.67,-73.18"/>
<polygon fill="#63b8ff" stroke="#63b8ff" points="989.06,-76.66 998.52,-71.89 988.15,-69.72 989.06,-76.66"/>
</a>
</g>
</g>
<!-- Node16 -->
<g id="Node000016" class="node">
<title>Node16</title>
<g id="a_Node000016"><a xlink:title=" ">
<polygon fill="#e0e0e0" stroke="#999999" points="1140.88,-19.25 1092.62,-19.25 1092.62,0 1140.88,0 1140.88,-19.25"/>
<text text-anchor="middle" x="1116.75" y="-5.75" font-family="Helvetica,sans-Serif" font-size="10.00">cstddef</text>
</a>
</g>
</g>
<!-- Node15&#45;&gt;Node16 -->
<g id="edge16_Node000015_Node000016" class="edge">
<title>Node15&#45;&gt;Node16</title>
<g id="a_edge16_Node000015_Node000016"><a xlink:title=" ">
<path fill="none" stroke="#63b8ff" d="M1056.96,-54.84C1067.58,-46.99 1083.19,-35.45 1095.79,-26.12"/>
<polygon fill="#63b8ff" stroke="#63b8ff" points="1097.54,-29.19 1103.5,-20.42 1093.38,-23.56 1097.54,-29.19"/>
</a>
</g>
</g>
<!-- Node17&#45;&gt;Node10 -->
<g id="edge21_Node000017_Node000010" class="edge">
<title>Node17&#45;&gt;Node10</title>
<g id="a_edge21_Node000017_Node000010"><a xlink:title=" ">
<path fill="none" stroke="#63b8ff" d="M768.05,-248.78C767.35,-239.64 766.22,-225.14 765.3,-213.25"/>
<polygon fill="#63b8ff" stroke="#63b8ff" points="768.82,-213.35 764.56,-203.65 761.84,-213.89 768.82,-213.35"/>
</a>
</g>
</g>
<!-- Node18 -->
<g id="Node000018" class="node">
<title>Node18</title>
<g id="a_Node000018"><a xlink:href="intrusive__ptr_8hpp.html" target="_top" xlink:title=" ">
<polygon fill="white" stroke="#666666" points="1088.88,-207.5 992.62,-207.5 992.62,-177 1088.88,-177 1088.88,-207.5"/>
<text text-anchor="start" x="1000.62" y="-194" font-family="Helvetica,sans-Serif" font-size="10.00">yaclib/util/intrusive</text>
<text text-anchor="middle" x="1040.75" y="-182.75" font-family="Helvetica,sans-Serif" font-size="10.00">_ptr.hpp</text>
</a>
</g>
</g>
<!-- Node17&#45;&gt;Node18 -->
<g id="edge22_Node000017_Node000018" class="edge">
<title>Node17&#45;&gt;Node18</title>
<g id="a_edge22_Node000017_Node000018"><a xlink:title=" ">
<path fill="none" stroke="#63b8ff" d="M808.42,-248.67C849.32,-239.27 915.23,-224 981.23,-208.09"/>
<polygon fill="#63b8ff" stroke="#63b8ff" points="981.88,-211.53 990.78,-205.78 980.24,-204.73 981.88,-211.53"/>
</a>
</g>
</g>
<!-- Node18&#45;&gt;Node5 -->
<g id="edge24_Node000018_Node000005" class="edge">
<title>Node18&#45;&gt;Node5</title>
<g id="a_edge24_Node000018_Node000005"><a xlink:title=" ">
<path fill="none" stroke="#63b8ff" d="M1002.68,-176.54C980.32,-167.36 951.82,-154.71 927.75,-141 907.39,-129.4 906.5,-119.22 884.75,-110.5 796.33,-75.04 683.32,-67.34 623.07,-65.92"/>
<polygon fill="#63b8ff" stroke="#63b8ff" points="623.32,-62.43 613.26,-65.74 623.19,-69.43 623.32,-62.43"/>
</a>
</g>
</g>
<!-- Node18&#45;&gt;Node15 -->
<g id="edge23_Node000018_Node000015" class="edge">
<title>Node18&#45;&gt;Node15</title>
<g id="a_edge23_Node000018_Node000015"><a xlink:title=" ">
<path fill="none" stroke="#63b8ff" d="M1047.86,-176.7C1052.25,-166.88 1057.47,-153.48 1059.75,-141 1062.19,-127.67 1061.94,-123.88 1059.75,-110.5 1058.38,-102.14 1055.66,-93.23 1052.91,-85.59"/>
<polygon fill="#63b8ff" stroke="#63b8ff" points="1056.18,-84.35 1049.29,-76.29 1049.66,-86.88 1056.18,-84.35"/>
</a>
</g>
</g>
<!-- Node19 -->
<g id="Node000019" class="node">
<title>Node19</title>
<g id="a_Node000019"><a xlink:href="intrusive__ptr__impl_8hpp.html" target="_top" xlink:title=" ">
<polygon fill="white" stroke="#666666" points="1050.5,-141 937,-141 937,-110.5 1050.5,-110.5 1050.5,-141"/>
<text text-anchor="start" x="945" y="-127.5" font-family="Helvetica,sans-Serif" font-size="10.00">yaclib/util/detail</text>
<text text-anchor="middle" x="993.75" y="-116.25" font-family="Helvetica,sans-Serif" font-size="10.00">/intrusive_ptr_impl.hpp</text>
</a>
</g>
</g>
<!-- Node18&#45;&gt;Node19 -->
<g id="edge25_Node000018_Node000019" class="edge">
<title>Node18&#45;&gt;Node19</title>
<g id="a_edge25_Node000018_Node000019"><a xlink:title=" ">
<path fill="none" stroke="#63b8ff" d="M1030.08,-176.61C1024.44,-168.86 1017.36,-159.15 1010.96,-150.36"/>
<polygon fill="#63b8ff" stroke="#63b8ff" points="1013.98,-148.57 1005.26,-142.55 1008.32,-152.69 1013.98,-148.57"/>
</a>
</g>
</g>
<!-- Node19&#45;&gt;Node11 -->
<g id="edge26_Node000019_Node000011" class="edge">
<title>Node19&#45;&gt;Node11</title>
<g id="a_edge26_Node000019_Node000011"><a xlink:title=" ">
<path fill="none" stroke="#63b8ff" d="M953.54,-110.05C927.25,-100.43 893.24,-88 868.01,-78.77"/>
<polygon fill="#63b8ff" stroke="#63b8ff" points="869.46,-75.57 858.86,-75.42 867.05,-82.15 869.46,-75.57"/>
</a>
</g>
</g>
<!-- Node20&#45;&gt;Node4 -->
<g id="edge29_Node000020_Node000004" class="edge">
<title>Node20&#45;&gt;Node4</title>
<g id="a_edge29_Node000020_Node000004"><a xlink:title=" ">
<path fill="none" stroke="#63b8ff" d="M555.45,-316.64C432.75,-311.55 129.51,-296.81 89.75,-274 31.45,-240.55 29.77,-207.13 17.75,-141 15.33,-127.66 14.79,-123.73 17.75,-110.5 19.73,-101.63 23.68,-92.44 27.63,-84.73"/>
<polygon fill="#63b8ff" stroke="#63b8ff" points="30.67,-86.45 32.44,-76.01 24.54,-83.07 30.67,-86.45"/>
</a>
</g>
</g>
<!-- Node20&#45;&gt;Node17 -->
<g id="edge28_Node000020_Node000017" class="edge">
<title>Node20&#45;&gt;Node17</title>
<g id="a_edge28_Node000020_Node000017"><a xlink:title=" ">
<path fill="none" stroke="#63b8ff" d="M631.71,-309.55C658.82,-299.7 702.37,-283.88 733.08,-272.71"/>
<polygon fill="#63b8ff" stroke="#63b8ff" points="734.14,-276.05 742.34,-269.35 731.75,-269.47 734.14,-276.05"/>
</a>
</g>
</g>
<!-- Node23&#45;&gt;Node5 -->
<g id="edge34_Node000023_Node000005" class="edge">
<title>Node23&#45;&gt;Node5</title>
<g id="a_edge34_Node000023_Node000005"><a xlink:title=" ">
<path fill="none" stroke="#63b8ff" d="M857.6,-370.5C864.79,-332.75 887,-185.63 813.75,-110.5 787.81,-83.89 682.65,-72.62 622.85,-68.29"/>
<polygon fill="#63b8ff" stroke="#63b8ff" points="623.26,-64.81 613.05,-67.61 622.78,-71.79 623.26,-64.81"/>
</a>
</g>
</g>
<!-- Node24 -->
<g id="Node000024" class="node">
<title>Node24</title>
<g id="a_Node000024"><a xlink:title=" ">
<polygon fill="#e0e0e0" stroke="#999999" points="936,-329.25 885.5,-329.25 885.5,-310 936,-310 936,-329.25"/>
<text text-anchor="middle" x="910.75" y="-315.75" font-family="Helvetica,sans-Serif" font-size="10.00">memory</text>
</a>
</g>
</g>
<!-- Node23&#45;&gt;Node24 -->
<g id="edge33_Node000023_Node000024" class="edge">
<title>Node23&#45;&gt;Node24</title>
<g id="a_edge33_Node000023_Node000024"><a xlink:title=" ">
<path fill="none" stroke="#63b8ff" d="M864.1,-370.56C872.18,-361.91 884.63,-348.59 894.64,-337.87"/>
<polygon fill="#63b8ff" stroke="#63b8ff" points="897.02,-340.45 901.28,-330.76 891.9,-335.68 897.02,-340.45"/>
</a>
</g>
</g>
<!-- Node25&#45;&gt;Node4 -->
<g id="edge36_Node000025_Node000004" class="edge">
<title>Node25&#45;&gt;Node4</title>
<g id="a_edge36_Node000025_Node000004"><a xlink:title=" ">
<path fill="none" stroke="#63b8ff" d="M132.59,-248.74C103.19,-232.14 44.45,-193.55 24.75,-141 17.92,-122.78 23.51,-100.79 29.53,-85.32"/>
<polygon fill="#63b8ff" stroke="#63b8ff" points="32.66,-86.89 33.42,-76.32 26.24,-84.12 32.66,-86.89"/>
</a>
</g>
</g>
<!-- Node25&#45;&gt;Node6 -->
<g id="edge46_Node000025_Node000006" class="edge">
<title>Node25&#45;&gt;Node6</title>
<g id="a_edge46_Node000025_Node000006"><a xlink:title=" ">
<path fill="none" stroke="#63b8ff" d="M152.47,-248.83C160.8,-223.07 188.48,-148.02 238.75,-110.5 280.39,-79.42 341.77,-69.93 378.55,-67.07"/>
<polygon fill="#63b8ff" stroke="#63b8ff" points="378.76,-70.56 388.51,-66.43 378.31,-63.58 378.76,-70.56"/>
</a>
</g>
</g>
<!-- Node26 -->
<g id="Node000026" class="node">
<title>Node26</title>
<g id="a_Node000026"><a xlink:href="type__traits_8hpp.html" target="_top" xlink:title=" ">
<polygon fill="white" stroke="#666666" points="363,-201.88 240.5,-201.88 240.5,-182.62 363,-182.62 363,-201.88"/>
<text text-anchor="middle" x="301.75" y="-188.38" font-family="Helvetica,sans-Serif" font-size="10.00">yaclib/util/type_traits.hpp</text>
</a>
</g>
</g>
<!-- Node25&#45;&gt;Node26 -->
<g id="edge37_Node000025_Node000026" class="edge">
<title>Node25&#45;&gt;Node26</title>
<g id="a_edge37_Node000025_Node000026"><a xlink:title=" ">
<path fill="none" stroke="#63b8ff" d="M171.21,-248.65C197.01,-237.7 240.53,-219.23 270.17,-206.65"/>
<polygon fill="#63b8ff" stroke="#63b8ff" points="271.17,-210.03 279.01,-202.9 268.44,-203.58 271.17,-210.03"/>
</a>
</g>
</g>
<!-- Node28 -->
<g id="Node000028" class="node">
<title>Node28</title>
<g id="a_Node000028"><a xlink:title=" ">
<polygon fill="#e0e0e0" stroke="#999999" points="124.38,-135.38 67.12,-135.38 67.12,-116.12 124.38,-116.12 124.38,-135.38"/>
<text text-anchor="middle" x="95.75" y="-121.88" font-family="Helvetica,sans-Serif" font-size="10.00">exception</text>
</a>
</g>
</g>
<!-- Node25&#45;&gt;Node28 -->
<g id="edge45_Node000025_Node000028" class="edge">
<title>Node25&#45;&gt;Node28</title>
<g id="a_edge45_Node000025_Node000028"><a xlink:title=" ">
<path fill="none" stroke="#63b8ff" d="M132.98,-248.73C119.03,-240.18 100.16,-225.92 91.75,-207.5 82.93,-188.18 85.93,-163.5 89.86,-146.54"/>
<polygon fill="#63b8ff" stroke="#63b8ff" points="93.16,-147.76 92.34,-137.2 86.39,-145.96 93.16,-147.76"/>
</a>
</g>
</g>
<!-- Node29 -->
<g id="Node000029" class="node">
<title>Node29</title>
<g id="a_Node000029"><a xlink:title=" ">
<polygon fill="#e0e0e0" stroke="#999999" points="146.38,-201.88 101.12,-201.88 101.12,-182.62 146.38,-182.62 146.38,-201.88"/>
<text text-anchor="middle" x="123.75" y="-188.38" font-family="Helvetica,sans-Serif" font-size="10.00">variant</text>
</a>
</g>
</g>
<!-- Node25&#45;&gt;Node29 -->
<g id="edge47_Node000025_Node000029" class="edge">
<title>Node25&#45;&gt;Node29</title>
<g id="a_edge47_Node000025_Node000029"><a xlink:title=" ">
<path fill="none" stroke="#63b8ff" d="M146.13,-248.78C142.37,-239.44 136.36,-224.53 131.51,-212.51"/>
<polygon fill="#63b8ff" stroke="#63b8ff" points="134.89,-211.51 127.9,-203.55 128.39,-214.13 134.89,-211.51"/>
</a>
</g>
</g>
<!-- Node26&#45;&gt;Node4 -->
<g id="edge38_Node000026_Node000004" class="edge">
<title>Node26&#45;&gt;Node4</title>
<g id="a_edge38_Node000026_Node000004"><a xlink:title=" ">
<path fill="none" stroke="#63b8ff" d="M283.13,-182.23C252.17,-167.26 188.12,-136.33 133.75,-110.5 111.87,-100.11 87.11,-88.47 68.34,-79.69"/>
<polygon fill="#63b8ff" stroke="#63b8ff" points="69.97,-76.59 59.43,-75.53 67.01,-82.93 69.97,-76.59"/>
</a>
</g>
</g>
<!-- Node26&#45;&gt;Node5 -->
<g id="edge43_Node000026_Node000005" class="edge">
<title>Node26&#45;&gt;Node5</title>
<g id="a_edge43_Node000026_Node000005"><a xlink:title=" ">
<path fill="none" stroke="#63b8ff" d="M321.81,-182.23C370.06,-160.55 492.8,-105.4 550.24,-79.59"/>
<polygon fill="#63b8ff" stroke="#63b8ff" points="551.42,-82.89 559.11,-75.6 548.56,-76.51 551.42,-82.89"/>
</a>
</g>
</g>
<!-- Node26&#45;&gt;Node6 -->
<g id="edge44_Node000026_Node000006" class="edge">
<title>Node26&#45;&gt;Node6</title>
<g id="a_edge44_Node000026_Node000006"><a xlink:title=" ">
<path fill="none" stroke="#63b8ff" d="M287.93,-182.28C266.26,-167.11 228.64,-135.59 247.75,-110.5 263.55,-89.76 336.29,-76.22 378.73,-69.94"/>
<polygon fill="#63b8ff" stroke="#63b8ff" points="379.17,-73.42 388.58,-68.55 378.19,-66.49 379.17,-73.42"/>
</a>
</g>
</g>
<!-- Node27 -->
<g id="Node000027" class="node">
<title>Node27</title>
<g id="a_Node000027"><a xlink:href="type__traits__impl_8hpp.html" target="_top" xlink:title=" ">
<polygon fill="white" stroke="#666666" points="362.38,-141 257.12,-141 257.12,-110.5 362.38,-110.5 362.38,-141"/>
<text text-anchor="start" x="265.12" y="-127.5" font-family="Helvetica,sans-Serif" font-size="10.00">yaclib/util/detail</text>
<text text-anchor="middle" x="309.75" y="-116.25" font-family="Helvetica,sans-Serif" font-size="10.00">/type_traits_impl.hpp</text>
</a>
</g>
</g>
<!-- Node26&#45;&gt;Node27 -->
<g id="edge39_Node000026_Node000027" class="edge">
<title>Node26&#45;&gt;Node27</title>
<g id="a_edge39_Node000026_Node000027"><a xlink:title=" ">
<path fill="none" stroke="#63b8ff" d="M302.86,-182.28C303.82,-174.54 305.26,-162.95 306.57,-152.37"/>
<polygon fill="#63b8ff" stroke="#63b8ff" points="310.03,-152.95 307.78,-142.6 303.08,-152.09 310.03,-152.95"/>
</a>
</g>
</g>
<!-- Node26&#45;&gt;Node28 -->
<g id="edge42_Node000026_Node000028" class="edge">
<title>Node26&#45;&gt;Node28</title>
<g id="a_edge42_Node000026_Node000028"><a xlink:title=" ">
<path fill="none" stroke="#63b8ff" d="M271.65,-182.18C238.89,-172.26 185.01,-155.79 138.75,-141 137.03,-140.45 135.27,-139.88 133.5,-139.31"/>
<polygon fill="#63b8ff" stroke="#63b8ff" points="134.59,-135.98 124,-136.2 132.41,-142.64 134.59,-135.98"/>
</a>
</g>
</g>
<!-- Node27&#45;&gt;Node4 -->
<g id="edge40_Node000027_Node000004" class="edge">
<title>Node27&#45;&gt;Node4</title>
<g id="a_edge40_Node000027_Node000004"><a xlink:title=" ">
<path fill="none" stroke="#63b8ff" d="M256.86,-113.26C208.23,-102.69 136.65,-87.14 88.91,-76.77"/>
<polygon fill="#63b8ff" stroke="#63b8ff" points="89.9,-73.41 79.39,-74.7 88.42,-80.25 89.9,-73.41"/>
</a>
</g>
</g>
<!-- Node27&#45;&gt;Node5 -->
<g id="edge41_Node000027_Node000005" class="edge">
<title>Node27&#45;&gt;Node5</title>
<g id="a_edge41_Node000027_Node000005"><a xlink:title=" ">
<path fill="none" stroke="#63b8ff" d="M362.64,-113.26C414.16,-102.07 491.43,-85.28 538.83,-74.98"/>
<polygon fill="#63b8ff" stroke="#63b8ff" points="539.41,-78.44 548.44,-72.89 537.92,-71.6 539.41,-78.44"/>
</a>
</g>
</g>
<!-- Node30&#45;&gt;Node7 -->
<g id="edge50_Node000030_Node000007" class="edge">
<title>Node30&#45;&gt;Node7</title>
<g id="a_edge50_Node000030_Node000007"><a xlink:title=" ">
<path fill="none" stroke="#63b8ff" d="M505.75,-497.86C505.75,-490.77 505.75,-482.04 505.75,-473.88"/>
<polygon fill="#63b8ff" stroke="#63b8ff" points="509.25,-474.09 505.75,-464.09 502.25,-474.09 509.25,-474.09"/>
</a>
</g>
</g>
<!-- Node31&#45;&gt;Node7 -->
<g id="edge52_Node000031_Node000007" class="edge">
<title>Node31&#45;&gt;Node7</title>
<g id="a_edge52_Node000031_Node000007"><a xlink:title=" ">
<path fill="none" stroke="#63b8ff" d="M589.24,-497.86C574.61,-489.12 555.8,-477.89 539.74,-468.3"/>
<polygon fill="#63b8ff" stroke="#63b8ff" points="541.84,-465.48 531.46,-463.35 538.25,-471.49 541.84,-465.48"/>
</a>
</g>
</g>
<!-- Node32&#45;&gt;Node3 -->
<g id="edge56_Node000032_Node000003" class="edge">
<title>Node32&#45;&gt;Node3</title>
<g id="a_edge56_Node000032_Node000003"><a xlink:title=" ">
<path fill="none" stroke="#63b8ff" d="M920.5,-249.45C843.55,-237.22 700.37,-214.48 621.83,-202"/>
<polygon fill="#63b8ff" stroke="#63b8ff" points="622.64,-198.59 612.22,-200.47 621.54,-205.5 622.64,-198.59"/>
</a>
</g>
</g>
<!-- Node32&#45;&gt;Node6 -->
<g id="edge59_Node000032_Node000006" class="edge">
<title>Node32&#45;&gt;Node6</title>
<g id="a_edge59_Node000032_Node000006"><a xlink:title=" ">
<path fill="none" stroke="#63b8ff" d="M920.5,-251.52C866.59,-244.24 780.48,-230.2 708.75,-207.5 640.38,-185.87 626.57,-171.67 561.75,-141 518.15,-120.37 468.08,-95.37 437.7,-80.04"/>
<polygon fill="#63b8ff" stroke="#63b8ff" points="439.29,-76.93 428.79,-75.55 436.14,-83.18 439.29,-76.93"/>
</a>
</g>
</g>
<!-- Node32&#45;&gt;Node16 -->
<g id="edge58_Node000032_Node000016" class="edge">
<title>Node32&#45;&gt;Node16</title>
<g id="a_edge58_Node000032_Node000016"><a xlink:title=" ">
<path fill="none" stroke="#63b8ff" d="M1024.95,-249.81C1050.98,-243.03 1080.51,-230.53 1097.75,-207.5 1137.49,-154.39 1128.08,-69.34 1121.06,-30.79"/>
<polygon fill="#63b8ff" stroke="#63b8ff" points="1124.52,-30.22 1119.14,-21.09 1117.65,-31.58 1124.52,-30.22"/>
</a>
</g>
</g>
<!-- Node32&#45;&gt;Node22 -->
<g id="edge60_Node000032_Node000022" class="edge">
<title>Node32&#45;&gt;Node22</title>
<g id="a_edge60_Node000032_Node000022"><a xlink:title=" ">
<path fill="none" stroke="#63b8ff" d="M962.77,-243.11C956.37,-233.73 948.01,-221.49 941.19,-211.48"/>
<polygon fill="#63b8ff" stroke="#63b8ff" points="944.15,-209.61 935.62,-203.32 938.37,-213.56 944.15,-209.61"/>
</a>
</g>
</g>
<!-- Node33 -->
<g id="Node000033" class="node">
<title>Node33</title>
<g id="a_Node000033"><a xlink:href="default__deleter_8hpp.html" target="_top" xlink:title=" ">
<polygon fill="white" stroke="#666666" points="1245.12,-207.5 1144.38,-207.5 1144.38,-177 1245.12,-177 1245.12,-207.5"/>
<text text-anchor="start" x="1152.38" y="-194" font-family="Helvetica,sans-Serif" font-size="10.00">yaclib/util/detail</text>
<text text-anchor="middle" x="1194.75" y="-182.75" font-family="Helvetica,sans-Serif" font-size="10.00">/default_deleter.hpp</text>
</a>
</g>
</g>
<!-- Node32&#45;&gt;Node33 -->
<g id="edge57_Node000032_Node000033" class="edge">
<title>Node32&#45;&gt;Node33</title>
<g id="a_edge57_Node000032_Node000033"><a xlink:title=" ">
<path fill="none" stroke="#63b8ff" d="M1023.4,-243.03C1056.08,-233.54 1098.79,-221.13 1133.39,-211.08"/>
<polygon fill="#63b8ff" stroke="#63b8ff" points="1134.23,-214.48 1142.86,-208.33 1132.28,-207.75 1134.23,-214.48"/>
</a>
</g>
</g>
<!-- Node34&#45;&gt;Node33 -->
<g id="edge62_Node000034_Node000033" class="edge">
<title>Node34&#45;&gt;Node33</title>
<g id="a_edge62_Node000034_Node000033"><a xlink:title=" ">
<path fill="none" stroke="#63b8ff" d="M1255.82,-243.11C1245.62,-234.78 1232.65,-224.19 1221.29,-214.92"/>
<polygon fill="#63b8ff" stroke="#63b8ff" points="1223.74,-212.4 1213.78,-208.79 1219.31,-217.82 1223.74,-212.4"/>
</a>
</g>
</g>
<!-- Node35&#45;&gt;Node16 -->
<g id="edge67_Node000035_Node000016" class="edge">
<title>Node35&#45;&gt;Node16</title>
<g id="a_edge67_Node000035_Node000016"><a xlink:title=" ">
<path fill="none" stroke="#63b8ff" d="M1075.21,-309.63C1123.32,-289.87 1233.59,-241.67 1253.75,-207.5 1295.51,-136.7 1191.41,-58.03 1141.56,-25.72"/>
<polygon fill="#63b8ff" stroke="#63b8ff" points="1143.7,-22.93 1133.38,-20.53 1139.95,-28.84 1143.7,-22.93"/>
</a>
</g>
</g>
<!-- Node35&#45;&gt;Node18 -->
<g id="edge66_Node000035_Node000018" class="edge">
<title>Node35&#45;&gt;Node18</title>
<g id="a_edge66_Node000035_Node000018"><a xlink:title=" ">
<path fill="none" stroke="#63b8ff" d="M1051.89,-309.61C1050.1,-290.92 1045.93,-247.38 1043.23,-219.18"/>
<polygon fill="#63b8ff" stroke="#63b8ff" points="1046.72,-218.92 1042.29,-209.3 1039.76,-219.59 1046.72,-218.92"/>
</a>
</g>
</g>
<!-- Node35&#45;&gt;Node32 -->
<g id="edge64_Node000035_Node000032" class="edge">
<title>Node35&#45;&gt;Node32</title>
<g id="a_edge64_Node000035_Node000032"><a xlink:title=" ">
<path fill="none" stroke="#63b8ff" d="M1040.6,-309.68C1030.23,-302.05 1014.9,-290.77 1001.44,-280.86"/>
<polygon fill="#63b8ff" stroke="#63b8ff" points="1003.84,-278.29 993.72,-275.18 999.69,-283.93 1003.84,-278.29"/>
</a>
</g>
</g>
<!-- Node35&#45;&gt;Node34 -->
<g id="edge65_Node000035_Node000034" class="edge">
<title>Node35&#45;&gt;Node34</title>
<g id="a_edge65_Node000035_Node000034"><a xlink:title=" ">
<path fill="none" stroke="#63b8ff" d="M1086.8,-309.55C1119.78,-300.77 1170.58,-287.23 1210.91,-276.49"/>
<polygon fill="#63b8ff" stroke="#63b8ff" points="1211.76,-279.89 1220.52,-273.93 1209.95,-273.12 1211.76,-279.89"/>
</a>
</g>
</g>
</g>
</svg>
