<?xml version="1.0" encoding="UTF-8" standalone="no"?>
<!DOCTYPE svg PUBLIC "-//W3C//DTD SVG 1.1//EN"
 "http://www.w3.org/Graphics/SVG/1.1/DTD/svg11.dtd">
<!-- Generated by graphviz version 9.0.0 (20230911.1827)
 -->
<!-- Title: include/yaclib/algo/detail/core.hpp Pages: 1 -->
<svg width="2290pt" height="371pt"
 viewBox="0.00 0.00 2289.88 371.00" xmlns="http://www.w3.org/2000/svg" xmlns:xlink="http://www.w3.org/1999/xlink">
<g id="graph0" class="graph" transform="scale(1 1) rotate(0) translate(4 367)">
<title>include/yaclib/algo/detail/core.hpp</title>
<!-- Node1 -->
<g id="Node000001" class="node">
<title>Node1</title>
<g id="a_Node000001"><a xlink:title=" ">
<polygon fill="#999999" stroke="#666666" points="954.12,-363 858.62,-363 858.62,-332.5 954.12,-332.5 954.12,-363"/>
<text text-anchor="start" x="866.62" y="-349.5" font-family="Helvetica,sans-Serif" font-size="10.00">include/yaclib/algo</text>
<text text-anchor="middle" x="906.38" y="-338.25" font-family="Helvetica,sans-Serif" font-size="10.00">/detail/core.hpp</text>
</a>
</g>
</g>
<!-- Node2 -->
<g id="Node000002" class="node">
<title>Node2</title>
<g id="a_Node000002"><a xlink:href="async_2future_8hpp.html" target="_top" xlink:title=" ">
<polygon fill="white" stroke="#666666" points="1135.88,-296.5 1032.88,-296.5 1032.88,-266 1135.88,-266 1135.88,-296.5"/>
<text text-anchor="start" x="1040.88" y="-283" font-family="Helvetica,sans-Serif" font-size="10.00">include/yaclib/async</text>
<text text-anchor="middle" x="1084.38" y="-271.75" font-family="Helvetica,sans-Serif" font-size="10.00">/future.hpp</text>
</a>
</g>
</g>
<!-- Node1&#45;&gt;Node2 -->
<g id="edge1_Node000001_Node000002" class="edge">
<title>Node1&#45;&gt;Node2</title>
<g id="a_edge1_Node000001_Node000002"><a xlink:title=" ">
<path fill="none" stroke="#63b8ff" d="M957.35,-328.28C984.79,-318.33 1018.18,-306.24 1043.84,-296.94"/>
<polygon fill="#63b8ff" stroke="#63b8ff" points="956.4,-324.9 948.19,-331.6 958.78,-331.48 956.4,-324.9"/>
</a>
</g>
</g>
<!-- Node18 -->
<g id="Node000018" class="node">
<title>Node18</title>
<g id="a_Node000018"><a xlink:href="run_8hpp.html" target="_top" xlink:title=" ">
<polygon fill="white" stroke="#666666" points="425.88,-230 322.88,-230 322.88,-199.5 425.88,-199.5 425.88,-230"/>
<text text-anchor="start" x="330.88" y="-216.5" font-family="Helvetica,sans-Serif" font-size="10.00">include/yaclib/async</text>
<text text-anchor="middle" x="374.38" y="-205.25" font-family="Helvetica,sans-Serif" font-size="10.00">/run.hpp</text>
</a>
</g>
</g>
<!-- Node1&#45;&gt;Node18 -->
<g id="edge49_Node000001_Node000018" class="edge">
<title>Node1&#45;&gt;Node18</title>
<g id="a_edge49_Node000001_Node000018"><a xlink:title=" ">
<path fill="none" stroke="#63b8ff" d="M847.22,-332.18C742.4,-306.37 525.74,-253.02 426.31,-228.54"/>
<polygon fill="#63b8ff" stroke="#63b8ff" points="846.21,-335.54 856.76,-334.53 847.88,-328.74 846.21,-335.54"/>
</a>
</g>
</g>
<!-- Node33 -->
<g id="Node000033" class="node">
<title>Node33</title>
<g id="a_Node000033"><a xlink:href="shared__future_8hpp.html" target="_top" xlink:title=" ">
<polygon fill="white" stroke="#666666" points="225.88,-296.5 122.88,-296.5 122.88,-266 225.88,-266 225.88,-296.5"/>
<text text-anchor="start" x="130.88" y="-283" font-family="Helvetica,sans-Serif" font-size="10.00">include/yaclib/async</text>
<text text-anchor="middle" x="174.38" y="-271.75" font-family="Helvetica,sans-Serif" font-size="10.00">/shared_future.hpp</text>
</a>
</g>
</g>
<!-- Node1&#45;&gt;Node33 -->
<g id="edge50_Node000001_Node000033" class="edge">
<title>Node1&#45;&gt;Node33</title>
<g id="a_edge50_Node000001_Node000033"><a xlink:title=" ">
<path fill="none" stroke="#63b8ff" d="M847.04,-341.52C707.03,-329.18 357.92,-298.42 225.98,-286.8"/>
<polygon fill="#63b8ff" stroke="#63b8ff" points="846.57,-344.99 856.84,-342.39 847.18,-338.02 846.57,-344.99"/>
</a>
</g>
</g>
<!-- Node35 -->
<g id="Node000035" class="node">
<title>Node35</title>
<g id="a_Node000035"><a xlink:href="drop__core_8cpp.html" target="_top" xlink:title=" ">
<polygon fill="white" stroke="#666666" points="1268.5,-290.88 1154.25,-290.88 1154.25,-271.62 1268.5,-271.62 1268.5,-290.88"/>
<text text-anchor="middle" x="1211.38" y="-277.38" font-family="Helvetica,sans-Serif" font-size="10.00">src/algo/drop_core.cpp</text>
</a>
</g>
</g>
<!-- Node1&#45;&gt;Node35 -->
<g id="edge55_Node000001_Node000035" class="edge">
<title>Node1&#45;&gt;Node35</title>
<g id="a_edge55_Node000001_Node000035"><a xlink:title=" ">
<path fill="none" stroke="#63b8ff" d="M965.4,-334.31C1013.56,-324.16 1083.37,-309.43 1144.38,-296.5 1152.29,-294.82 1160.72,-293.03 1168.84,-291.31"/>
<polygon fill="#63b8ff" stroke="#63b8ff" points="964.79,-330.87 955.73,-336.35 966.23,-337.71 964.79,-330.87"/>
</a>
</g>
</g>
<!-- Node3 -->
<g id="Node000003" class="node">
<title>Node3</title>
<g id="a_Node000003"><a xlink:href="wait__group_8hpp.html" target="_top" xlink:title=" ">
<polygon fill="white" stroke="#666666" points="2040.12,-230 1944.62,-230 1944.62,-199.5 2040.12,-199.5 2040.12,-230"/>
<text text-anchor="start" x="1952.62" y="-216.5" font-family="Helvetica,sans-Serif" font-size="10.00">include/yaclib/algo</text>
<text text-anchor="middle" x="1992.38" y="-205.25" font-family="Helvetica,sans-Serif" font-size="10.00">/wait_group.hpp</text>
</a>
</g>
</g>
<!-- Node2&#45;&gt;Node3 -->
<g id="edge2_Node000002_Node000003" class="edge">
<title>Node2&#45;&gt;Node3</title>
<g id="a_edge2_Node000002_Node000003"><a xlink:title=" ">
<path fill="none" stroke="#63b8ff" d="M1147.52,-265.91C1493.35,-219.33 1588.06,-276.8 1930.38,-230 1934.86,-229.39 1939.5,-228.6 1944.13,-227.72"/>
<polygon fill="#63b8ff" stroke="#63b8ff" points="1147.1,-262.44 1137.67,-267.26 1148.05,-269.37 1147.1,-262.44"/>
</a>
</g>
</g>
<!-- Node5 -->
<g id="Node000005" class="node">
<title>Node5</title>
<g id="a_Node000005"><a xlink:href="connect_8hpp.html" target="_top" xlink:title=" ">
<polygon fill="white" stroke="#666666" points="265.88,-230 162.88,-230 162.88,-199.5 265.88,-199.5 265.88,-230"/>
<text text-anchor="start" x="170.88" y="-216.5" font-family="Helvetica,sans-Serif" font-size="10.00">include/yaclib/async</text>
<text text-anchor="middle" x="214.38" y="-205.25" font-family="Helvetica,sans-Serif" font-size="10.00">/connect.hpp</text>
</a>
</g>
</g>
<!-- Node2&#45;&gt;Node5 -->
<g id="edge4_Node000002_Node000005" class="edge">
<title>Node2&#45;&gt;Node5</title>
<g id="a_edge4_Node000002_Node000005"><a xlink:title=" ">
<path fill="none" stroke="#63b8ff" d="M1021.46,-279.53C885.56,-277.26 554.65,-267.96 280.38,-230 275.73,-229.36 270.93,-228.57 266.12,-227.69"/>
<polygon fill="#63b8ff" stroke="#63b8ff" points="1021.28,-283.02 1031.33,-279.68 1021.39,-276.02 1021.28,-283.02"/>
</a>
</g>
</g>
<!-- Node7 -->
<g id="Node000007" class="node">
<title>Node7</title>
<g id="a_Node000007"><a xlink:href="split_8hpp.html" target="_top" xlink:title=" ">
<polygon fill="white" stroke="#666666" points="184.88,-163.5 81.88,-163.5 81.88,-133 184.88,-133 184.88,-163.5"/>
<text text-anchor="start" x="89.88" y="-150" font-family="Helvetica,sans-Serif" font-size="10.00">include/yaclib/async</text>
<text text-anchor="middle" x="133.38" y="-138.75" font-family="Helvetica,sans-Serif" font-size="10.00">/split.hpp</text>
</a>
</g>
</g>
<!-- Node2&#45;&gt;Node7 -->
<g id="edge24_Node000002_Node000007" class="edge">
<title>Node2&#45;&gt;Node7</title>
<g id="a_edge24_Node000002_Node000007"><a xlink:title=" ">
<path fill="none" stroke="#63b8ff" d="M1021.39,-280.89C861.27,-281.76 442.19,-279.13 313.38,-230 292.82,-222.16 293.65,-210.11 274.38,-199.5 246.37,-184.09 212.73,-171.89 185.33,-163.37"/>
<polygon fill="#63b8ff" stroke="#63b8ff" points="1020.98,-284.39 1030.95,-280.83 1020.93,-277.39 1020.98,-284.39"/>
</a>
</g>
</g>
<!-- Node8 -->
<g id="Node000008" class="node">
<title>Node8</title>
<g id="a_Node000008"><a xlink:href="contract_8hpp.html" target="_top" xlink:title=" ">
<polygon fill="white" stroke="#666666" points="788.88,-230 685.88,-230 685.88,-199.5 788.88,-199.5 788.88,-230"/>
<text text-anchor="start" x="693.88" y="-216.5" font-family="Helvetica,sans-Serif" font-size="10.00">include/yaclib/async</text>
<text text-anchor="middle" x="737.38" y="-205.25" font-family="Helvetica,sans-Serif" font-size="10.00">/contract.hpp</text>
</a>
</g>
</g>
<!-- Node2&#45;&gt;Node8 -->
<g id="edge7_Node000002_Node000008" class="edge">
<title>Node2&#45;&gt;Node8</title>
<g id="a_edge7_Node000002_Node000008"><a xlink:title=" ">
<path fill="none" stroke="#63b8ff" d="M1021.48,-269.66C964.45,-259.91 878.13,-244.75 803.38,-230 798.77,-229.09 794,-228.12 789.22,-227.13"/>
<polygon fill="#63b8ff" stroke="#63b8ff" points="1020.54,-273.05 1030.99,-271.29 1021.72,-266.15 1020.54,-273.05"/>
</a>
</g>
</g>
<!-- Node9 -->
<g id="Node000009" class="node">
<title>Node9</title>
<g id="a_Node000009"><a xlink:href="simple_8cpp.html" target="_top" xlink:title=" ">
<polygon fill="white" stroke="#666666" points="735.38,-163.5 635.38,-163.5 635.38,-133 735.38,-133 735.38,-163.5"/>
<text text-anchor="start" x="643.38" y="-150" font-family="Helvetica,sans-Serif" font-size="10.00">test/example/async</text>
<text text-anchor="middle" x="685.38" y="-138.75" font-family="Helvetica,sans-Serif" font-size="10.00">/simple.cpp</text>
</a>
</g>
</g>
<!-- Node2&#45;&gt;Node9 -->
<g id="edge48_Node000002_Node000009" class="edge">
<title>Node2&#45;&gt;Node9</title>
<g id="a_edge48_Node000002_Node000009"><a xlink:title=" ">
<path fill="none" stroke="#63b8ff" d="M1021.51,-275.58C969.83,-269.88 895.72,-257.35 836.38,-230 816.39,-220.79 816.22,-210.86 797.38,-199.5 774.11,-185.47 746.23,-172.95 724.12,-163.91"/>
<polygon fill="#63b8ff" stroke="#63b8ff" points="1021.02,-279.05 1031.33,-276.6 1021.75,-272.09 1021.02,-279.05"/>
</a>
</g>
</g>
<!-- Node10 -->
<g id="Node000010" class="node">
<title>Node10</title>
<g id="a_Node000010"><a xlink:href="when__impl_8hpp.html" target="_top" xlink:title=" ">
<polygon fill="white" stroke="#666666" points="1139.25,-230 1029.5,-230 1029.5,-199.5 1139.25,-199.5 1139.25,-230"/>
<text text-anchor="start" x="1037.5" y="-216.5" font-family="Helvetica,sans-Serif" font-size="10.00">include/yaclib/async</text>
<text text-anchor="middle" x="1084.38" y="-205.25" font-family="Helvetica,sans-Serif" font-size="10.00">/detail/when_impl.hpp</text>
</a>
</g>
</g>
<!-- Node2&#45;&gt;Node10 -->
<g id="edge10_Node000002_Node000010" class="edge">
<title>Node2&#45;&gt;Node10</title>
<g id="a_edge10_Node000002_Node000010"><a xlink:title=" ">
<path fill="none" stroke="#63b8ff" d="M1084.38,-254.31C1084.38,-246.14 1084.38,-237.41 1084.38,-230.33"/>
<polygon fill="#63b8ff" stroke="#63b8ff" points="1080.88,-254.1 1084.38,-264.1 1087.88,-254.1 1080.88,-254.1"/>
</a>
</g>
</g>
<!-- Node12 -->
<g id="Node000012" class="node">
<title>Node12</title>
<g id="a_Node000012"><a xlink:href="when__all_8hpp.html" target="_top" xlink:title=" ">
<polygon fill="white" stroke="#666666" points="1083.88,-97 980.88,-97 980.88,-66.5 1083.88,-66.5 1083.88,-97"/>
<text text-anchor="start" x="988.88" y="-83.5" font-family="Helvetica,sans-Serif" font-size="10.00">include/yaclib/async</text>
<text text-anchor="middle" x="1032.38" y="-72.25" font-family="Helvetica,sans-Serif" font-size="10.00">/when_all.hpp</text>
</a>
</g>
</g>
<!-- Node2&#45;&gt;Node12 -->
<g id="edge29_Node000002_Node000012" class="edge">
<title>Node2&#45;&gt;Node12</title>
<g id="a_edge29_Node000002_Node000012"><a xlink:title=" ">
<path fill="none" stroke="#63b8ff" d="M1122.56,-259.16C1132.85,-251.44 1142.7,-241.67 1148.38,-230 1167.23,-191.23 1172.04,-169.04 1148.38,-133 1134.04,-111.17 1107.97,-98.78 1084.17,-91.76"/>
<polygon fill="#63b8ff" stroke="#63b8ff" points="1120.59,-256.27 1114.34,-264.82 1124.56,-262.04 1120.59,-256.27"/>
</a>
</g>
</g>
<!-- Node15 -->
<g id="Node000015" class="node">
<title>Node15</title>
<g id="a_Node000015"><a xlink:href="when__any_8hpp.html" target="_top" xlink:title=" ">
<polygon fill="white" stroke="#666666" points="833.88,-97 730.88,-97 730.88,-66.5 833.88,-66.5 833.88,-97"/>
<text text-anchor="start" x="738.88" y="-83.5" font-family="Helvetica,sans-Serif" font-size="10.00">include/yaclib/async</text>
<text text-anchor="middle" x="782.38" y="-72.25" font-family="Helvetica,sans-Serif" font-size="10.00">/when_any.hpp</text>
</a>
</g>
</g>
<!-- Node2&#45;&gt;Node15 -->
<g id="edge30_Node000002_Node000015" class="edge">
<title>Node2&#45;&gt;Node15</title>
<g id="a_edge30_Node000002_Node000015"><a xlink:title=" ">
<path fill="none" stroke="#63b8ff" d="M1057.12,-258.85C1026.7,-234.97 981.65,-199.62 981.38,-199.5 903.94,-164.26 851.89,-225.25 793.38,-163.5 776.64,-145.84 777.42,-115.46 779.74,-97.42"/>
<polygon fill="#63b8ff" stroke="#63b8ff" points="1054.81,-261.49 1064.84,-264.91 1059.13,-255.98 1054.81,-261.49"/>
</a>
</g>
</g>
<!-- Node17 -->
<g id="Node000017" class="node">
<title>Node17</title>
<g id="a_Node000017"><a xlink:href="async_2make_8hpp.html" target="_top" xlink:title=" ">
<polygon fill="white" stroke="#666666" points="2160.88,-230 2057.88,-230 2057.88,-199.5 2160.88,-199.5 2160.88,-230"/>
<text text-anchor="start" x="2065.88" y="-216.5" font-family="Helvetica,sans-Serif" font-size="10.00">include/yaclib/async</text>
<text text-anchor="middle" x="2109.38" y="-205.25" font-family="Helvetica,sans-Serif" font-size="10.00">/make.hpp</text>
</a>
</g>
</g>
<!-- Node2&#45;&gt;Node17 -->
<g id="edge19_Node000002_Node000017" class="edge">
<title>Node2&#45;&gt;Node17</title>
<g id="a_edge19_Node000002_Node000017"><a xlink:title=" ">
<path fill="none" stroke="#63b8ff" d="M1147.43,-265.94C1545.85,-213.36 1654.71,-284.2 2049.38,-230 2052.03,-229.64 2054.73,-229.21 2057.46,-228.73"/>
<polygon fill="#63b8ff" stroke="#63b8ff" points="1147.11,-262.45 1137.66,-267.25 1148.04,-269.39 1147.11,-262.45"/>
</a>
</g>
</g>
<!-- Node2&#45;&gt;Node18 -->
<g id="edge20_Node000002_Node000018" class="edge">
<title>Node2&#45;&gt;Node18</title>
<g id="a_edge20_Node000002_Node000018"><a xlink:title=" ">
<path fill="none" stroke="#63b8ff" d="M1021.5,-278.65C905.03,-274.95 648.11,-263.43 434.38,-230 431.73,-229.59 429.03,-229.12 426.31,-228.61"/>
<polygon fill="#63b8ff" stroke="#63b8ff" points="1021.04,-282.13 1031.15,-278.94 1021.26,-275.14 1021.04,-282.13"/>
</a>
</g>
</g>
<!-- Node19 -->
<g id="Node000019" class="node">
<title>Node19</title>
<g id="a_Node000019"><a xlink:href="wait_8hpp.html" target="_top" xlink:title=" ">
<polygon fill="white" stroke="#666666" points="2281.88,-230 2178.88,-230 2178.88,-199.5 2281.88,-199.5 2281.88,-230"/>
<text text-anchor="start" x="2186.88" y="-216.5" font-family="Helvetica,sans-Serif" font-size="10.00">include/yaclib/async</text>
<text text-anchor="middle" x="2230.38" y="-205.25" font-family="Helvetica,sans-Serif" font-size="10.00">/wait.hpp</text>
</a>
</g>
</g>
<!-- Node2&#45;&gt;Node19 -->
<g id="edge25_Node000002_Node000019" class="edge">
<title>Node2&#45;&gt;Node19</title>
<g id="a_edge25_Node000002_Node000019"><a xlink:title=" ">
<path fill="none" stroke="#63b8ff" d="M1147.88,-264.49C1590.33,-207.31 1713.49,-290.44 2161.38,-230 2166.89,-229.26 2172.64,-228.23 2178.38,-227.06"/>
<polygon fill="#63b8ff" stroke="#63b8ff" points="1147.67,-260.99 1138.21,-265.76 1148.58,-267.93 1147.67,-260.99"/>
</a>
</g>
</g>
<!-- Node20 -->
<g id="Node000020" class="node">
<title>Node20</title>
<g id="a_Node000020"><a xlink:href="wait__for_8hpp.html" target="_top" xlink:title=" ">
<polygon fill="white" stroke="#666666" points="546.88,-230 443.88,-230 443.88,-199.5 546.88,-199.5 546.88,-230"/>
<text text-anchor="start" x="451.88" y="-216.5" font-family="Helvetica,sans-Serif" font-size="10.00">include/yaclib/async</text>
<text text-anchor="middle" x="495.38" y="-205.25" font-family="Helvetica,sans-Serif" font-size="10.00">/wait_for.hpp</text>
</a>
</g>
</g>
<!-- Node2&#45;&gt;Node20 -->
<g id="edge27_Node000002_Node000020" class="edge">
<title>Node2&#45;&gt;Node20</title>
<g id="a_edge27_Node000002_Node000020"><a xlink:title=" ">
<path fill="none" stroke="#63b8ff" d="M1021.28,-277.09C921.74,-271.47 722.38,-257.63 555.38,-230 552.73,-229.56 550.04,-229.08 547.32,-228.55"/>
<polygon fill="#63b8ff" stroke="#63b8ff" points="1020.94,-280.57 1031.12,-277.63 1021.33,-273.59 1020.94,-280.57"/>
</a>
</g>
</g>
<!-- Node21 -->
<g id="Node000021" class="node">
<title>Node21</title>
<g id="a_Node000021"><a xlink:href="wait__until_8hpp.html" target="_top" xlink:title=" ">
<polygon fill="white" stroke="#666666" points="667.88,-230 564.88,-230 564.88,-199.5 667.88,-199.5 667.88,-230"/>
<text text-anchor="start" x="572.88" y="-216.5" font-family="Helvetica,sans-Serif" font-size="10.00">include/yaclib/async</text>
<text text-anchor="middle" x="616.38" y="-205.25" font-family="Helvetica,sans-Serif" font-size="10.00">/wait_until.hpp</text>
</a>
</g>
</g>
<!-- Node2&#45;&gt;Node21 -->
<g id="edge28_Node000002_Node000021" class="edge">
<title>Node2&#45;&gt;Node21</title>
<g id="a_edge28_Node000002_Node000021"><a xlink:title=" ">
<path fill="none" stroke="#63b8ff" d="M1021.17,-274.65C940.69,-267.03 797.55,-251.78 676.38,-230 673.74,-229.53 671.05,-229.01 668.34,-228.46"/>
<polygon fill="#63b8ff" stroke="#63b8ff" points="1020.78,-278.13 1031.07,-275.58 1021.44,-271.16 1020.78,-278.13"/>
</a>
</g>
</g>
<!-- Node22 -->
<g id="Node000022" class="node">
<title>Node22</title>
<g id="a_Node000022"><a xlink:href="await_8hpp.html" target="_top" xlink:title=" ">
<polygon fill="white" stroke="#666666" points="1298.5,-97 1202.25,-97 1202.25,-66.5 1298.5,-66.5 1298.5,-97"/>
<text text-anchor="start" x="1210.25" y="-83.5" font-family="Helvetica,sans-Serif" font-size="10.00">include/yaclib/coro</text>
<text text-anchor="middle" x="1250.38" y="-72.25" font-family="Helvetica,sans-Serif" font-size="10.00">/await.hpp</text>
</a>
</g>
</g>
<!-- Node2&#45;&gt;Node22 -->
<g id="edge31_Node000002_Node000022" class="edge">
<title>Node2&#45;&gt;Node22</title>
<g id="a_edge31_Node000002_Node000022"><a xlink:title=" ">
<path fill="none" stroke="#63b8ff" d="M1127.69,-260.51C1142.13,-252.49 1157.55,-242.2 1169.38,-230 1174.58,-224.63 1223.39,-133.44 1242.63,-97.31"/>
<polygon fill="#63b8ff" stroke="#63b8ff" points="1126.43,-257.22 1119.23,-264.99 1129.71,-263.4 1126.43,-257.22"/>
</a>
</g>
</g>
<!-- Node23 -->
<g id="Node000023" class="node">
<title>Node23</title>
<g id="a_Node000023"><a xlink:href="await__on_8hpp.html" target="_top" xlink:title=" ">
<polygon fill="white" stroke="#666666" points="2050.5,-97 1954.25,-97 1954.25,-66.5 2050.5,-66.5 2050.5,-97"/>
<text text-anchor="start" x="1962.25" y="-83.5" font-family="Helvetica,sans-Serif" font-size="10.00">include/yaclib/coro</text>
<text text-anchor="middle" x="2002.38" y="-72.25" font-family="Helvetica,sans-Serif" font-size="10.00">/await_on.hpp</text>
</a>
</g>
</g>
<!-- Node2&#45;&gt;Node23 -->
<g id="edge32_Node000002_Node000023" class="edge">
<title>Node2&#45;&gt;Node23</title>
<g id="a_edge32_Node000002_Node000023"><a xlink:title=" ">
<path fill="none" stroke="#63b8ff" d="M1147.51,-265.88C1398.96,-229.97 1468.1,-263.77 1716.38,-230 1751.93,-225.16 2009.77,-191.36 2032.38,-163.5 2048.39,-143.76 2029.91,-114.63 2015.68,-97.28"/>
<polygon fill="#63b8ff" stroke="#63b8ff" points="1147.07,-262.41 1137.67,-267.31 1148.07,-269.34 1147.07,-262.41"/>
</a>
</g>
</g>
<!-- Node24 -->
<g id="Node000024" class="node">
<title>Node24</title>
<g id="a_Node000024"><a xlink:href="await__awaiter_8hpp.html" target="_top" xlink:title=" ">
<polygon fill="white" stroke="#666666" points="1357,-163.5 1233.75,-163.5 1233.75,-133 1357,-133 1357,-163.5"/>
<text text-anchor="start" x="1241.75" y="-150" font-family="Helvetica,sans-Serif" font-size="10.00">include/yaclib/coro</text>
<text text-anchor="middle" x="1295.38" y="-138.75" font-family="Helvetica,sans-Serif" font-size="10.00">/detail/await_awaiter.hpp</text>
</a>
</g>
</g>
<!-- Node2&#45;&gt;Node24 -->
<g id="edge33_Node000002_Node000024" class="edge">
<title>Node2&#45;&gt;Node24</title>
<g id="a_edge33_Node000002_Node000024"><a xlink:title=" ">
<path fill="none" stroke="#63b8ff" d="M1147.09,-263.57C1170.89,-255.57 1197.51,-244.51 1219.38,-230 1246.96,-211.69 1271.79,-181.53 1285.11,-163.71"/>
<polygon fill="#63b8ff" stroke="#63b8ff" points="1146.25,-260.16 1137.81,-266.56 1148.41,-266.82 1146.25,-260.16"/>
</a>
</g>
</g>
<!-- Node25 -->
<g id="Node000025" class="node">
<title>Node25</title>
<g id="a_Node000025"><a xlink:href="await__on__awaiter_8hpp.html" target="_top" xlink:title=" ">
<polygon fill="white" stroke="#666666" points="2022.88,-163.5 1883.88,-163.5 1883.88,-133 2022.88,-133 2022.88,-163.5"/>
<text text-anchor="start" x="1891.88" y="-150" font-family="Helvetica,sans-Serif" font-size="10.00">include/yaclib/coro</text>
<text text-anchor="middle" x="1953.38" y="-138.75" font-family="Helvetica,sans-Serif" font-size="10.00">/detail/await_on_awaiter.hpp</text>
</a>
</g>
</g>
<!-- Node2&#45;&gt;Node25 -->
<g id="edge35_Node000002_Node000025" class="edge">
<title>Node2&#45;&gt;Node25</title>
<g id="a_edge35_Node000002_Node000025"><a xlink:title=" ">
<path fill="none" stroke="#63b8ff" d="M1147.49,-265.87C1361.51,-234.31 1421.2,-263.88 1631.38,-230 1730.24,-214.06 1843.23,-182.56 1905.63,-163.97"/>
<polygon fill="#63b8ff" stroke="#63b8ff" points="1147.05,-262.39 1137.68,-267.34 1148.09,-269.32 1147.05,-262.39"/>
</a>
</g>
</g>
<!-- Node26 -->
<g id="Node000026" class="node">
<title>Node26</title>
<g id="a_Node000026"><a xlink:href="coro_2future_8hpp.html" target="_top" xlink:title=" ">
<polygon fill="white" stroke="#666666" points="1471.5,-163.5 1375.25,-163.5 1375.25,-133 1471.5,-133 1471.5,-163.5"/>
<text text-anchor="start" x="1383.25" y="-150" font-family="Helvetica,sans-Serif" font-size="10.00">include/yaclib/coro</text>
<text text-anchor="middle" x="1423.38" y="-138.75" font-family="Helvetica,sans-Serif" font-size="10.00">/future.hpp</text>
</a>
</g>
</g>
<!-- Node2&#45;&gt;Node26 -->
<g id="edge37_Node000002_Node000026" class="edge">
<title>Node2&#45;&gt;Node26</title>
<g id="a_edge37_Node000002_Node000026"><a xlink:title=" ">
<path fill="none" stroke="#63b8ff" d="M1147.07,-263.74C1178.71,-254.82 1217.48,-242.98 1251.38,-230 1303.44,-210.07 1361.72,-181.26 1395.32,-163.98"/>
<polygon fill="#63b8ff" stroke="#63b8ff" points="1146.34,-260.31 1137.65,-266.37 1148.22,-267.05 1146.34,-260.31"/>
</a>
</g>
</g>
<!-- Node27 -->
<g id="Node000027" class="node">
<title>Node27</title>
<g id="a_Node000027"><a xlink:href="lazy_2task_8hpp.html" target="_top" xlink:title=" ">
<polygon fill="white" stroke="#666666" points="1622.38,-230 1528.38,-230 1528.38,-199.5 1622.38,-199.5 1622.38,-230"/>
<text text-anchor="start" x="1536.38" y="-216.5" font-family="Helvetica,sans-Serif" font-size="10.00">include/yaclib/lazy</text>
<text text-anchor="middle" x="1575.38" y="-205.25" font-family="Helvetica,sans-Serif" font-size="10.00">/task.hpp</text>
</a>
</g>
</g>
<!-- Node2&#45;&gt;Node27 -->
<g id="edge38_Node000002_Node000027" class="edge">
<title>Node2&#45;&gt;Node27</title>
<g id="a_edge38_Node000002_Node000027"><a xlink:title=" ">
<path fill="none" stroke="#63b8ff" d="M1147.46,-265.77C1291.79,-241.09 1450.58,-226.07 1528.04,-219.52"/>
<polygon fill="#63b8ff" stroke="#63b8ff" points="1146.95,-262.31 1137.7,-267.46 1148.15,-269.2 1146.95,-262.31"/>
</a>
</g>
</g>
<!-- Node32 -->
<g id="Node000032" class="node">
<title>Node32</title>
<g id="a_Node000032"><a xlink:href="future__impl_8cpp.html" target="_top" xlink:title=" ">
<polygon fill="white" stroke="#666666" points="972.88,-224.38 845.88,-224.38 845.88,-205.12 972.88,-205.12 972.88,-224.38"/>
<text text-anchor="middle" x="909.38" y="-210.88" font-family="Helvetica,sans-Serif" font-size="10.00">src/async/future_impl.cpp</text>
</a>
</g>
</g>
<!-- Node2&#45;&gt;Node32 -->
<g id="edge47_Node000002_Node000032" class="edge">
<title>Node2&#45;&gt;Node32</title>
<g id="a_edge47_Node000002_Node000032"><a xlink:title=" ">
<path fill="none" stroke="#63b8ff" d="M1033.92,-261.65C1001.16,-249.58 959.9,-234.37 934.08,-224.85"/>
<polygon fill="#63b8ff" stroke="#63b8ff" points="1032.65,-264.92 1043.24,-265.09 1035.07,-258.35 1032.65,-264.92"/>
</a>
</g>
</g>
<!-- Node4 -->
<g id="Node000004" class="node">
<title>Node4</title>
<g id="a_Node000004"><a xlink:href="wait__group_8cpp.html" target="_top" xlink:title=" ">
<polygon fill="white" stroke="#666666" points="2197.75,-157.88 2079,-157.88 2079,-138.62 2197.75,-138.62 2197.75,-157.88"/>
<text text-anchor="middle" x="2138.38" y="-144.38" font-family="Helvetica,sans-Serif" font-size="10.00">src/algo/wait_group.cpp</text>
</a>
</g>
</g>
<!-- Node3&#45;&gt;Node4 -->
<g id="edge3_Node000003_Node000004" class="edge">
<title>Node3&#45;&gt;Node4</title>
<g id="a_edge3_Node000003_Node000004"><a xlink:title=" ">
<path fill="none" stroke="#63b8ff" d="M2035.94,-194.51C2063.11,-182.5 2096.83,-167.6 2117.98,-158.26"/>
<polygon fill="#63b8ff" stroke="#63b8ff" points="2034.62,-191.26 2026.89,-198.5 2037.45,-197.66 2034.62,-191.26"/>
</a>
</g>
</g>
<!-- Node6 -->
<g id="Node000006" class="node">
<title>Node6</title>
<g id="a_Node000006"><a xlink:href="share_8hpp.html" target="_top" xlink:title=" ">
<polygon fill="white" stroke="#666666" points="305.88,-163.5 202.88,-163.5 202.88,-133 305.88,-133 305.88,-163.5"/>
<text text-anchor="start" x="210.88" y="-150" font-family="Helvetica,sans-Serif" font-size="10.00">include/yaclib/async</text>
<text text-anchor="middle" x="254.38" y="-138.75" font-family="Helvetica,sans-Serif" font-size="10.00">/share.hpp</text>
</a>
</g>
</g>
<!-- Node5&#45;&gt;Node6 -->
<g id="edge5_Node000005_Node000006" class="edge">
<title>Node5&#45;&gt;Node6</title>
<g id="a_edge5_Node000005_Node000006"><a xlink:title=" ">
<path fill="none" stroke="#63b8ff" d="M229.41,-189.51C234.77,-180.87 240.64,-171.41 245.33,-163.83"/>
<polygon fill="#63b8ff" stroke="#63b8ff" points="226.55,-187.48 224.25,-197.83 232.49,-191.17 226.55,-187.48"/>
</a>
</g>
</g>
<!-- Node5&#45;&gt;Node7 -->
<g id="edge6_Node000005_Node000007" class="edge">
<title>Node5&#45;&gt;Node7</title>
<g id="a_edge6_Node000005_Node000007"><a xlink:title=" ">
<path fill="none" stroke="#63b8ff" d="M187.08,-192.02C175.43,-182.73 162.13,-172.15 151.68,-163.83"/>
<polygon fill="#63b8ff" stroke="#63b8ff" points="184.81,-194.68 194.81,-198.17 189.17,-189.2 184.81,-194.68"/>
</a>
</g>
</g>
<!-- Node8&#45;&gt;Node6 -->
<g id="edge8_Node000008_Node000006" class="edge">
<title>Node8&#45;&gt;Node6</title>
<g id="a_edge8_Node000008_Node000006"><a xlink:title=" ">
<path fill="none" stroke="#63b8ff" d="M674.31,-199.27C535.67,-175.4 384.08,-160.43 306.29,-153.56"/>
<polygon fill="#63b8ff" stroke="#63b8ff" points="673.6,-202.7 684.05,-200.97 674.8,-195.8 673.6,-202.7"/>
</a>
</g>
</g>
<!-- Node8&#45;&gt;Node9 -->
<g id="edge9_Node000008_Node000009" class="edge">
<title>Node8&#45;&gt;Node9</title>
<g id="a_edge9_Node000008_Node000009"><a xlink:title=" ">
<path fill="none" stroke="#63b8ff" d="M718.51,-190.35C711.36,-181.48 703.44,-171.65 697.13,-163.83"/>
<polygon fill="#63b8ff" stroke="#63b8ff" points="715.62,-192.35 724.63,-197.94 721.07,-187.95 715.62,-192.35"/>
</a>
</g>
</g>
<!-- Node11 -->
<g id="Node000011" class="node">
<title>Node11</title>
<g id="a_Node000011"><a xlink:href="when__all__impl_8hpp.html" target="_top" xlink:title=" ">
<polygon fill="white" stroke="#666666" points="1139.75,-163.5 1015,-163.5 1015,-133 1139.75,-133 1139.75,-163.5"/>
<text text-anchor="start" x="1023" y="-150" font-family="Helvetica,sans-Serif" font-size="10.00">include/yaclib/async</text>
<text text-anchor="middle" x="1077.38" y="-138.75" font-family="Helvetica,sans-Serif" font-size="10.00">/detail/when_all_impl.hpp</text>
</a>
</g>
</g>
<!-- Node10&#45;&gt;Node11 -->
<g id="edge11_Node000010_Node000011" class="edge">
<title>Node10&#45;&gt;Node11</title>
<g id="a_edge11_Node000010_Node000011"><a xlink:title=" ">
<path fill="none" stroke="#63b8ff" d="M1081.56,-187.81C1080.67,-179.64 1079.73,-170.91 1078.96,-163.83"/>
<polygon fill="#63b8ff" stroke="#63b8ff" points="1078.06,-188.05 1082.62,-197.61 1085.02,-187.29 1078.06,-188.05"/>
</a>
</g>
</g>
<!-- Node10&#45;&gt;Node12 -->
<g id="edge17_Node000010_Node000012" class="edge">
<title>Node10&#45;&gt;Node12</title>
<g id="a_edge17_Node000010_Node000012"><a xlink:title=" ">
<path fill="none" stroke="#63b8ff" d="M1036.93,-193.61C1024.8,-186.03 1013.25,-176.11 1006.38,-163.5 994.6,-141.91 1009.25,-114.12 1020.86,-97.41"/>
<polygon fill="#63b8ff" stroke="#63b8ff" points="1034.97,-196.52 1045.39,-198.44 1038.44,-190.44 1034.97,-196.52"/>
</a>
</g>
</g>
<!-- Node14 -->
<g id="Node000014" class="node">
<title>Node14</title>
<g id="a_Node000014"><a xlink:href="when__any__impl_8hpp.html" target="_top" xlink:title=" ">
<polygon fill="white" stroke="#666666" points="959.38,-163.5 829.38,-163.5 829.38,-133 959.38,-133 959.38,-163.5"/>
<text text-anchor="start" x="837.38" y="-150" font-family="Helvetica,sans-Serif" font-size="10.00">include/yaclib/async</text>
<text text-anchor="middle" x="894.38" y="-138.75" font-family="Helvetica,sans-Serif" font-size="10.00">/detail/when_any_impl.hpp</text>
</a>
</g>
</g>
<!-- Node10&#45;&gt;Node14 -->
<g id="edge14_Node000010_Node000014" class="edge">
<title>Node10&#45;&gt;Node14</title>
<g id="a_edge14_Node000010_Node000014"><a xlink:title=" ">
<path fill="none" stroke="#63b8ff" d="M1030.74,-195.54C1001.3,-185.55 965.27,-173.32 937.65,-163.94"/>
<polygon fill="#63b8ff" stroke="#63b8ff" points="1029.23,-198.73 1039.83,-198.63 1031.48,-192.1 1029.23,-198.73"/>
</a>
</g>
</g>
<!-- Node10&#45;&gt;Node15 -->
<g id="edge18_Node000010_Node000015" class="edge">
<title>Node10&#45;&gt;Node15</title>
<g id="a_edge18_Node000010_Node000015"><a xlink:title=" ">
<path fill="none" stroke="#63b8ff" d="M1017.89,-199.99C1017.05,-199.83 1016.21,-199.66 1015.38,-199.5 928.88,-182.59 890.17,-217.31 820.38,-163.5 799.02,-147.04 789.14,-115.65 785,-97.23"/>
<polygon fill="#63b8ff" stroke="#63b8ff" points="1017.06,-203.4 1027.55,-201.92 1018.43,-196.53 1017.06,-203.4"/>
</a>
</g>
</g>
<!-- Node11&#45;&gt;Node12 -->
<g id="edge12_Node000011_Node000012" class="edge">
<title>Node11&#45;&gt;Node12</title>
<g id="a_edge12_Node000011_Node000012"><a xlink:title=" ">
<path fill="none" stroke="#63b8ff" d="M1060.66,-123.29C1054.58,-114.57 1047.89,-104.99 1042.55,-97.33"/>
<polygon fill="#63b8ff" stroke="#63b8ff" points="1057.71,-125.17 1066.3,-131.37 1063.45,-121.17 1057.71,-125.17"/>
</a>
</g>
</g>
<!-- Node13 -->
<g id="Node000013" class="node">
<title>Node13</title>
<g id="a_Node000013"><a xlink:href="when__all_8cpp.html" target="_top" xlink:title=" ">
<polygon fill="white" stroke="#666666" points="677.38,-30.5 577.38,-30.5 577.38,0 677.38,0 677.38,-30.5"/>
<text text-anchor="start" x="585.38" y="-17" font-family="Helvetica,sans-Serif" font-size="10.00">test/example/async</text>
<text text-anchor="middle" x="627.38" y="-5.75" font-family="Helvetica,sans-Serif" font-size="10.00">/when_all.cpp</text>
</a>
</g>
</g>
<!-- Node12&#45;&gt;Node13 -->
<g id="edge13_Node000012_Node000013" class="edge">
<title>Node12&#45;&gt;Node13</title>
<g id="a_edge13_Node000012_Node000013"><a xlink:title=" ">
<path fill="none" stroke="#63b8ff" d="M969.73,-70.77C889.42,-57.98 751.74,-36.06 677.82,-24.28"/>
<polygon fill="#63b8ff" stroke="#63b8ff" points="968.75,-74.16 979.18,-72.28 969.85,-67.25 968.75,-74.16"/>
</a>
</g>
</g>
<!-- Node14&#45;&gt;Node15 -->
<g id="edge15_Node000014_Node000015" class="edge">
<title>Node14&#45;&gt;Node15</title>
<g id="a_edge15_Node000014_Node000015"><a xlink:title=" ">
<path fill="none" stroke="#63b8ff" d="M859.01,-126.89C842.35,-117.29 822.85,-106.06 807.69,-97.33"/>
<polygon fill="#63b8ff" stroke="#63b8ff" points="857.24,-129.9 867.65,-131.86 860.73,-123.84 857.24,-129.9"/>
</a>
</g>
</g>
<!-- Node16 -->
<g id="Node000016" class="node">
<title>Node16</title>
<g id="a_Node000016"><a xlink:href="when__any_8cpp.html" target="_top" xlink:title=" ">
<polygon fill="white" stroke="#666666" points="520.38,-30.5 420.38,-30.5 420.38,0 520.38,0 520.38,-30.5"/>
<text text-anchor="start" x="428.38" y="-17" font-family="Helvetica,sans-Serif" font-size="10.00">test/example/async</text>
<text text-anchor="middle" x="470.38" y="-5.75" font-family="Helvetica,sans-Serif" font-size="10.00">/when_any.cpp</text>
</a>
</g>
</g>
<!-- Node15&#45;&gt;Node16 -->
<g id="edge16_Node000015_Node000016" class="edge">
<title>Node15&#45;&gt;Node16</title>
<g id="a_edge16_Node000015_Node000016"><a xlink:title=" ">
<path fill="none" stroke="#63b8ff" d="M719.55,-67.76C661.05,-55.67 574.96,-37.87 520.82,-26.68"/>
<polygon fill="#63b8ff" stroke="#63b8ff" points="718.52,-71.12 729.02,-69.72 719.94,-64.27 718.52,-71.12"/>
</a>
</g>
</g>
<!-- Node18&#45;&gt;Node9 -->
<g id="edge21_Node000018_Node000009" class="edge">
<title>Node18&#45;&gt;Node9</title>
<g id="a_edge21_Node000018_Node000009"><a xlink:title=" ">
<path fill="none" stroke="#63b8ff" d="M437.01,-198.96C511.34,-182.83 586.9,-168.02 635.26,-158.74"/>
<polygon fill="#63b8ff" stroke="#63b8ff" points="436.56,-195.48 427.54,-201.03 438.05,-202.32 436.56,-195.48"/>
</a>
</g>
</g>
<!-- Node18&#45;&gt;Node13 -->
<g id="edge22_Node000018_Node000013" class="edge">
<title>Node18&#45;&gt;Node13</title>
<g id="a_edge22_Node000018_Node000013"><a xlink:title=" ">
<path fill="none" stroke="#63b8ff" d="M401.95,-192.22C453.82,-151.73 564.67,-65.2 608.74,-30.79"/>
<polygon fill="#63b8ff" stroke="#63b8ff" points="399.9,-189.38 394.17,-198.3 404.21,-194.9 399.9,-189.38"/>
</a>
</g>
</g>
<!-- Node18&#45;&gt;Node16 -->
<g id="edge23_Node000018_Node000016" class="edge">
<title>Node18&#45;&gt;Node16</title>
<g id="a_edge23_Node000018_Node000016"><a xlink:title=" ">
<path fill="none" stroke="#63b8ff" d="M386.35,-189.12C406.6,-147.45 447,-64.34 463.31,-30.79"/>
<polygon fill="#63b8ff" stroke="#63b8ff" points="383.32,-187.34 382.1,-197.87 389.62,-190.4 383.32,-187.34"/>
</a>
</g>
</g>
<!-- Node19&#45;&gt;Node2 -->
<g id="edge26_Node000019_Node000002" class="edge">
<title>Node19&#45;&gt;Node2</title>
<g id="a_edge26_Node000019_Node000002"><a xlink:title=" ">
<path fill="none" stroke="#63b8ff" d="M2167.22,-231.62C1725.41,-289.44 1602.15,-206.41 1154.38,-266 1148.45,-266.79 1142.25,-267.9 1136.08,-269.15"/>
<polygon fill="#63b8ff" stroke="#63b8ff" points="2167.43,-235.12 2176.88,-230.33 2166.51,-228.18 2167.43,-235.12"/>
</a>
</g>
</g>
<!-- Node24&#45;&gt;Node22 -->
<g id="edge34_Node000024_Node000022" class="edge">
<title>Node24&#45;&gt;Node22</title>
<g id="a_edge34_Node000024_Node000022"><a xlink:title=" ">
<path fill="none" stroke="#63b8ff" d="M1278.66,-123.29C1272.58,-114.57 1265.89,-104.99 1260.55,-97.33"/>
<polygon fill="#63b8ff" stroke="#63b8ff" points="1275.71,-125.17 1284.3,-131.37 1281.45,-121.17 1275.71,-125.17"/>
</a>
</g>
</g>
<!-- Node25&#45;&gt;Node23 -->
<g id="edge36_Node000025_Node000023" class="edge">
<title>Node25&#45;&gt;Node23</title>
<g id="a_edge36_Node000025_Node000023"><a xlink:title=" ">
<path fill="none" stroke="#63b8ff" d="M1971.36,-123.57C1978.04,-114.78 1985.42,-105.07 1991.3,-97.33"/>
<polygon fill="#63b8ff" stroke="#63b8ff" points="1968.67,-121.33 1965.41,-131.41 1974.25,-125.56 1968.67,-121.33"/>
</a>
</g>
</g>
<!-- Node27&#45;&gt;Node24 -->
<g id="edge39_Node000027_Node000024" class="edge">
<title>Node27&#45;&gt;Node24</title>
<g id="a_edge39_Node000027_Node000024"><a xlink:title=" ">
<path fill="none" stroke="#63b8ff" d="M1516.73,-200.24C1470.05,-189.49 1404.89,-174.48 1357.36,-163.53"/>
<polygon fill="#63b8ff" stroke="#63b8ff" points="1515.87,-203.63 1526.4,-202.47 1517.44,-196.81 1515.87,-203.63"/>
</a>
</g>
</g>
<!-- Node27&#45;&gt;Node25 -->
<g id="edge40_Node000027_Node000025" class="edge">
<title>Node27&#45;&gt;Node25</title>
<g id="a_edge40_Node000027_Node000025"><a xlink:title=" ">
<path fill="none" stroke="#63b8ff" d="M1633.98,-204.11C1694.29,-194.15 1790.95,-178.03 1874.38,-163.5 1877.4,-162.97 1880.48,-162.43 1883.6,-161.88"/>
<polygon fill="#63b8ff" stroke="#63b8ff" points="1633.58,-200.63 1624.28,-205.71 1634.72,-207.54 1633.58,-200.63"/>
</a>
</g>
</g>
<!-- Node27&#45;&gt;Node26 -->
<g id="edge41_Node000027_Node000026" class="edge">
<title>Node27&#45;&gt;Node26</title>
<g id="a_edge41_Node000027_Node000026"><a xlink:title=" ">
<path fill="none" stroke="#63b8ff" d="M1530.6,-194.75C1507.4,-184.91 1479.51,-173.07 1457.99,-163.94"/>
<polygon fill="#63b8ff" stroke="#63b8ff" points="1528.92,-197.84 1539.49,-198.52 1531.65,-191.39 1528.92,-197.84"/>
</a>
</g>
</g>
<!-- Node28 -->
<g id="Node000028" class="node">
<title>Node28</title>
<g id="a_Node000028"><a xlink:href="coro_2task_8hpp.html" target="_top" xlink:title=" ">
<polygon fill="white" stroke="#666666" points="1585.5,-163.5 1489.25,-163.5 1489.25,-133 1585.5,-133 1585.5,-163.5"/>
<text text-anchor="start" x="1497.25" y="-150" font-family="Helvetica,sans-Serif" font-size="10.00">include/yaclib/coro</text>
<text text-anchor="middle" x="1537.38" y="-138.75" font-family="Helvetica,sans-Serif" font-size="10.00">/task.hpp</text>
</a>
</g>
</g>
<!-- Node27&#45;&gt;Node28 -->
<g id="edge42_Node000027_Node000028" class="edge">
<title>Node27&#45;&gt;Node28</title>
<g id="a_edge42_Node000027_Node000028"><a xlink:title=" ">
<path fill="none" stroke="#63b8ff" d="M1560.93,-189.23C1555.88,-180.66 1550.38,-171.32 1545.96,-163.83"/>
<polygon fill="#63b8ff" stroke="#63b8ff" points="1557.89,-190.97 1565.98,-197.81 1563.92,-187.42 1557.89,-190.97"/>
</a>
</g>
</g>
<!-- Node29 -->
<g id="Node000029" class="node">
<title>Node29</title>
<g id="a_Node000029"><a xlink:href="lazy_2make_8hpp.html" target="_top" xlink:title=" ">
<polygon fill="white" stroke="#666666" points="1697.38,-97 1603.38,-97 1603.38,-66.5 1697.38,-66.5 1697.38,-97"/>
<text text-anchor="start" x="1611.38" y="-83.5" font-family="Helvetica,sans-Serif" font-size="10.00">include/yaclib/lazy</text>
<text text-anchor="middle" x="1650.38" y="-72.25" font-family="Helvetica,sans-Serif" font-size="10.00">/make.hpp</text>
</a>
</g>
</g>
<!-- Node27&#45;&gt;Node29 -->
<g id="edge43_Node000027_Node000029" class="edge">
<title>Node27&#45;&gt;Node29</title>
<g id="a_edge43_Node000027_Node000029"><a xlink:title=" ">
<path fill="none" stroke="#63b8ff" d="M1589.33,-189.38C1604.81,-162.34 1629.27,-119.6 1642.02,-97.33"/>
<polygon fill="#63b8ff" stroke="#63b8ff" points="1586.37,-187.5 1584.44,-197.92 1592.45,-190.98 1586.37,-187.5"/>
</a>
</g>
</g>
<!-- Node30 -->
<g id="Node000030" class="node">
<title>Node30</title>
<g id="a_Node000030"><a xlink:href="schedule_8hpp.html" target="_top" xlink:title=" ">
<polygon fill="white" stroke="#666666" points="1735.38,-163.5 1641.38,-163.5 1641.38,-133 1735.38,-133 1735.38,-163.5"/>
<text text-anchor="start" x="1649.38" y="-150" font-family="Helvetica,sans-Serif" font-size="10.00">include/yaclib/lazy</text>
<text text-anchor="middle" x="1688.38" y="-138.75" font-family="Helvetica,sans-Serif" font-size="10.00">/schedule.hpp</text>
</a>
</g>
</g>
<!-- Node27&#45;&gt;Node30 -->
<g id="edge44_Node000027_Node000030" class="edge">
<title>Node27&#45;&gt;Node30</title>
<g id="a_edge44_Node000027_Node000030"><a xlink:title=" ">
<path fill="none" stroke="#63b8ff" d="M1610.58,-193.66C1627.49,-184 1647.4,-172.64 1662.84,-163.83"/>
<polygon fill="#63b8ff" stroke="#63b8ff" points="1609.28,-190.37 1602.33,-198.36 1612.75,-196.45 1609.28,-190.37"/>
</a>
</g>
</g>
<!-- Node31 -->
<g id="Node000031" class="node">
<title>Node31</title>
<g id="a_Node000031"><a xlink:href="task__impl_8cpp.html" target="_top" xlink:title=" ">
<polygon fill="white" stroke="#666666" points="1865.38,-157.88 1753.38,-157.88 1753.38,-138.62 1865.38,-138.62 1865.38,-157.88"/>
<text text-anchor="middle" x="1809.38" y="-144.38" font-family="Helvetica,sans-Serif" font-size="10.00">src/lazy/task_impl.cpp</text>
</a>
</g>
</g>
<!-- Node27&#45;&gt;Node31 -->
<g id="edge46_Node000027_Node000031" class="edge">
<title>Node27&#45;&gt;Node31</title>
<g id="a_edge46_Node000027_Node000031"><a xlink:title=" ">
<path fill="none" stroke="#63b8ff" d="M1633.82,-197.64C1678.85,-185.23 1739.47,-168.52 1776.41,-158.34"/>
<polygon fill="#63b8ff" stroke="#63b8ff" points="1632.9,-194.26 1624.19,-200.3 1634.76,-201.01 1632.9,-194.26"/>
</a>
</g>
</g>
<!-- Node30&#45;&gt;Node29 -->
<g id="edge45_Node000030_Node000029" class="edge">
<title>Node30&#45;&gt;Node29</title>
<g id="a_edge45_Node000030_Node000029"><a xlink:title=" ">
<path fill="none" stroke="#63b8ff" d="M1673.93,-122.73C1668.88,-114.16 1663.38,-104.82 1658.96,-97.33"/>
<polygon fill="#63b8ff" stroke="#63b8ff" points="1670.89,-124.47 1678.98,-131.31 1676.92,-120.92 1670.89,-124.47"/>
</a>
</g>
</g>
<!-- Node33&#45;&gt;Node5 -->
<g id="edge51_Node000033_Node000005" class="edge">
<title>Node33&#45;&gt;Node5</title>
<g id="a_edge51_Node000033_Node000005"><a xlink:title=" ">
<path fill="none" stroke="#63b8ff" d="M189.41,-256.01C194.77,-247.37 200.64,-237.91 205.33,-230.33"/>
<polygon fill="#63b8ff" stroke="#63b8ff" points="186.55,-253.98 184.25,-264.33 192.49,-257.67 186.55,-253.98"/>
</a>
</g>
</g>
<!-- Node33&#45;&gt;Node6 -->
<g id="edge52_Node000033_Node000006" class="edge">
<title>Node33&#45;&gt;Node6</title>
<g id="a_edge52_Node000033_Node000006"><a xlink:title=" ">
<path fill="none" stroke="#63b8ff" d="M158.6,-255.84C149.89,-238.99 142.76,-216.63 153.38,-199.5 164.36,-181.77 183.68,-170.09 202.51,-162.5"/>
<polygon fill="#63b8ff" stroke="#63b8ff" points="155.37,-257.23 163.35,-264.2 161.46,-253.78 155.37,-257.23"/>
</a>
</g>
</g>
<!-- Node34 -->
<g id="Node000034" class="node">
<title>Node34</title>
<g id="a_Node000034"><a xlink:href="shared__contract_8hpp.html" target="_top" xlink:title=" ">
<polygon fill="white" stroke="#666666" points="106.75,-230 0,-230 0,-199.5 106.75,-199.5 106.75,-230"/>
<text text-anchor="start" x="8" y="-216.5" font-family="Helvetica,sans-Serif" font-size="10.00">include/yaclib/async</text>
<text text-anchor="middle" x="53.38" y="-205.25" font-family="Helvetica,sans-Serif" font-size="10.00">/shared_contract.hpp</text>
</a>
</g>
</g>
<!-- Node33&#45;&gt;Node34 -->
<g id="edge53_Node000033_Node000034" class="edge">
<title>Node33&#45;&gt;Node34</title>
<g id="a_edge53_Node000033_Node000034"><a xlink:title=" ">
<path fill="none" stroke="#63b8ff" d="M136.94,-260.29C118.77,-250.61 97.33,-239.18 80.72,-230.33"/>
<polygon fill="#63b8ff" stroke="#63b8ff" points="135.11,-263.29 145.58,-264.9 138.4,-257.11 135.11,-263.29"/>
</a>
</g>
</g>
<!-- Node34&#45;&gt;Node7 -->
<g id="edge54_Node000034_Node000007" class="edge">
<title>Node34&#45;&gt;Node7</title>
<g id="a_edge54_Node000034_Node000007"><a xlink:title=" ">
<path fill="none" stroke="#63b8ff" d="M80.33,-192.02C91.84,-182.73 104.98,-172.15 115.29,-163.83"/>
<polygon fill="#63b8ff" stroke="#63b8ff" points="78.29,-189.16 72.71,-198.16 82.69,-194.61 78.29,-189.16"/>
</a>
</g>
</g>
</g>
</svg>
