<?xml version="1.0" encoding="UTF-8" standalone="no"?>
<!DOCTYPE svg PUBLIC "-//W3C//DTD SVG 1.1//EN"
 "http://www.w3.org/Graphics/SVG/1.1/DTD/svg11.dtd">
<!-- Generated by graphviz version 9.0.0 (20230911.1827)
 -->
<!-- Title: include/yaclib/algo/detail/core.hpp Pages: 1 -->
<!--zoomable 670 -->

<svg id="main" version="1.1" xmlns="http://www.w3.org/2000/svg" xmlns:xlink="http://www.w3.org/1999/xlink" xml:space="preserve" onload="init(evt)">
<style type="text/css"><![CDATA[
.node, .edge {opacity: 0.7;}
.node.selected, .edge.selected {opacity: 1;}
.edge:hover path { stroke: red; }
.edge:hover polygon { stroke: red; fill: red; }
]]></style>

<defs>
  <circle id="rim" cx="0" cy="0" r="7"/>
  <circle id="rim2" cx="0" cy="0" r="3.5"/>
  <g id="zoomPlus">
    <use xlink:href="#rim" fill="#404040"><set attributeName="fill" to="#808080" begin="zoomplus.mouseover" end="zoomplus.mouseout"/></use>
    <path d="M-4,0h8M0,-4v8" fill="none" stroke="white" stroke-width="1.5" pointer-events="none"/>
  </g>
  <g id="zoomMin">
    <use xlink:href="#rim" fill="#404040"><set attributeName="fill" to="#808080" begin="zoomminus.mouseover" end="zoomminus.mouseout"/></use>
    <path d="M-4,0h8" fill="none" stroke="white" stroke-width="1.5" pointer-events="none"/>
  </g>
  <g id="arrowUp" transform="translate(30 24)">
    <use xlink:href="#rim"/>
    <path pointer-events="none" fill="none" stroke="white" stroke-width="1.5" d="M0,-3.0v7 M-2.5,-0.5L0,-3.0L2.5,-0.5"/>
  </g>
  <g id="arrowRight" transform="rotate(90) translate(36 -43)">
    <use xlink:href="#rim"/>
    <path pointer-events="none" fill="none" stroke="white" stroke-width="1.5" d="M0,-3.0v7 M-2.5,-0.5L0,-3.0L2.5,-0.5"/>
  </g>
  <g id="arrowDown" transform="rotate(180) translate(-30 -48)">
    <use xlink:href="#rim"/>
    <path pointer-events="none" fill="none" stroke="white" stroke-width="1.5" d="M0,-3.0v7 M-2.5,-0.5L0,-3.0L2.5,-0.5"/>
  </g>
  <g id="arrowLeft" transform="rotate(270) translate(-36 17)">
    <use xlink:href="#rim"/>
    <path pointer-events="none" fill="none" stroke="white" stroke-width="1.5" d="M0,-3.0v7 M-2.5,-0.5L0,-3.0L2.5,-0.5"/>
  </g>
  <g id="resetDef">
    <use xlink:href="#rim2" fill="#404040"><set attributeName="fill" to="#808080" begin="reset.mouseover" end="reset.mouseout"/></use>
  </g>
</defs>
<script type="application/ecmascript">
var viewWidth = 1350;
var viewHeight = 670;
var sectionId = 'dynsection-0';
</script>
<script type="application/ecmascript" xlink:href="svg.min.js"/>
<svg id="graph" class="graph">
<g id="viewport">
<title>include/yaclib/algo/detail/core.hpp</title>
<!-- Node1 -->
<g id="Node000001" class="node">
<title>Node1</title>
<g id="a_Node000001"><a xlink:title=" ">
<polygon fill="#999999" stroke="#666666" points="801.75,-661.75 706.25,-661.75 706.25,-631.25 801.75,-631.25 801.75,-661.75"/>
<text text-anchor="start" x="714.25" y="-648.25" font-family="Helvetica,sans-Serif" font-size="10.00">include/yaclib/algo</text>
<text text-anchor="middle" x="754" y="-637" font-family="Helvetica,sans-Serif" font-size="10.00">/detail/core.hpp</text>
</a>
</g>
</g>
<!-- Node2 -->
<g id="Node000002" class="node">
<title>Node2</title>
<g id="a_Node000002"><a xlink:href="func__core_8hpp.html" target="_top" xlink:title=" ">
<polygon fill="white" stroke="#666666" points="506,-340.5 418,-340.5 418,-310 506,-310 506,-340.5"/>
<text text-anchor="start" x="426" y="-327" font-family="Helvetica,sans-Serif" font-size="10.00">yaclib/algo/detail</text>
<text text-anchor="middle" x="462" y="-315.75" font-family="Helvetica,sans-Serif" font-size="10.00">/func_core.hpp</text>
</a>
</g>
</g>
<!-- Node1&#45;&gt;Node2 -->
<g id="edge1_Node000001_Node000002" class="edge">
<title>Node1&#45;&gt;Node2</title>
<g id="a_edge1_Node000001_Node000002"><a xlink:title=" ">
<path fill="none" stroke="#63b8ff" d="M705.78,-644.92C622.85,-641.09 462,-620.07 462,-514.5 462,-514.5 462,-514.5 462,-446 462,-413.78 462,-376.68 462,-352.42"/>
<polygon fill="#63b8ff" stroke="#63b8ff" points="465.5,-352.51 462,-342.51 458.5,-352.51 465.5,-352.51"/>
</a>
</g>
</g>
<!-- Node3 -->
<g id="Node000003" class="node">
<title>Node3</title>
<g id="a_Node000003"><a xlink:title=" ">
<polygon fill="#e0e0e0" stroke="#999999" points="615.62,-268.38 528.38,-268.38 528.38,-249.12 615.62,-249.12 615.62,-268.38"/>
<text text-anchor="middle" x="572" y="-254.88" font-family="Helvetica,sans-Serif" font-size="10.00">yaclib/config.hpp</text>
</a>
</g>
</g>
<!-- Node1&#45;&gt;Node3 -->
<g id="edge55_Node000001_Node000003" class="edge">
<title>Node1&#45;&gt;Node3</title>
<g id="a_edge55_Node000001_Node000003"><a xlink:title=" ">
<path fill="none" stroke="#63b8ff" d="M752.64,-630.79C750.64,-614.04 745.86,-586.21 735,-564.75 690.45,-476.7 631.44,-485.76 591,-395.75 573.79,-357.45 571.27,-307.49 571.37,-280.03"/>
<polygon fill="#63b8ff" stroke="#63b8ff" points="574.86,-280.39 571.54,-270.33 567.86,-280.26 574.86,-280.39"/>
</a>
</g>
</g>
<!-- Node7 -->
<g id="Node000007" class="node">
<title>Node7</title>
<g id="a_Node000007"><a xlink:href="result__core_8hpp.html" target="_top" xlink:title=" ">
<polygon fill="white" stroke="#666666" points="617,-528.75 529,-528.75 529,-498.25 617,-498.25 617,-528.75"/>
<text text-anchor="start" x="537" y="-515.25" font-family="Helvetica,sans-Serif" font-size="10.00">yaclib/algo/detail</text>
<text text-anchor="middle" x="573" y="-504" font-family="Helvetica,sans-Serif" font-size="10.00">/result_core.hpp</text>
</a>
</g>
</g>
<!-- Node1&#45;&gt;Node7 -->
<g id="edge6_Node000001_Node000007" class="edge">
<title>Node1&#45;&gt;Node7</title>
<g id="a_edge6_Node000001_Node000007"><a xlink:title=" ">
<path fill="none" stroke="#63b8ff" d="M706,-642.19C644.21,-636.81 542.05,-623.76 519,-595.25 503.64,-576.26 522.94,-552.91 542.6,-536.22"/>
<polygon fill="#63b8ff" stroke="#63b8ff" points="544.74,-538.99 550.36,-530 540.36,-533.52 544.74,-538.99"/>
</a>
</g>
</g>
<!-- Node26 -->
<g id="Node000026" class="node">
<title>Node26</title>
<g id="a_Node000026"><a xlink:href="cast_8hpp.html" target="_top" xlink:title=" ">
<polygon fill="white" stroke="#666666" points="934.12,-456.62 837.88,-456.62 837.88,-437.38 934.12,-437.38 934.12,-456.62"/>
<text text-anchor="middle" x="886" y="-443.12" font-family="Helvetica,sans-Serif" font-size="10.00">yaclib/util/cast.hpp</text>
</a>
</g>
</g>
<!-- Node1&#45;&gt;Node26 -->
<g id="edge56_Node000001_Node000026" class="edge">
<title>Node1&#45;&gt;Node26</title>
<g id="a_edge56_Node000001_Node000026"><a xlink:title=" ">
<path fill="none" stroke="#63b8ff" d="M763.71,-630.98C787.33,-595.64 847.76,-505.21 873.78,-466.28"/>
<polygon fill="#63b8ff" stroke="#63b8ff" points="876.66,-468.27 879.31,-458.01 870.84,-464.38 876.66,-468.27"/>
</a>
</g>
</g>
<!-- Node30 -->
<g id="Node000030" class="node">
<title>Node30</title>
<g id="a_Node000030"><a xlink:href="shared__core_8hpp.html" target="_top" xlink:title=" ">
<polygon fill="white" stroke="#666666" points="618.12,-595.25 527.88,-595.25 527.88,-564.75 618.12,-564.75 618.12,-595.25"/>
<text text-anchor="start" x="535.88" y="-581.75" font-family="Helvetica,sans-Serif" font-size="10.00">yaclib/algo/detail</text>
<text text-anchor="middle" x="573" y="-570.5" font-family="Helvetica,sans-Serif" font-size="10.00">/shared_core.hpp</text>
</a>
</g>
</g>
<!-- Node1&#45;&gt;Node30 -->
<g id="edge51_Node000001_Node000030" class="edge">
<title>Node1&#45;&gt;Node30</title>
<g id="a_edge51_Node000001_Node000030"><a xlink:title=" ">
<path fill="none" stroke="#63b8ff" d="M712.93,-630.86C686.87,-621.58 652.92,-609.48 624.99,-599.53"/>
<polygon fill="#63b8ff" stroke="#63b8ff" points="626.24,-596.26 615.65,-596.2 623.89,-602.85 626.24,-596.26"/>
</a>
</g>
</g>
<!-- Node31 -->
<g id="Node000031" class="node">
<title>Node31</title>
<g id="a_Node000031"><a xlink:href="unique__core_8hpp.html" target="_top" xlink:title=" ">
<polygon fill="white" stroke="#666666" points="725.75,-595.25 636.25,-595.25 636.25,-564.75 725.75,-564.75 725.75,-595.25"/>
<text text-anchor="start" x="644.25" y="-581.75" font-family="Helvetica,sans-Serif" font-size="10.00">yaclib/algo/detail</text>
<text text-anchor="middle" x="681" y="-570.5" font-family="Helvetica,sans-Serif" font-size="10.00">/unique_core.hpp</text>
</a>
</g>
</g>
<!-- Node1&#45;&gt;Node31 -->
<g id="edge53_Node000001_Node000031" class="edge">
<title>Node1&#45;&gt;Node31</title>
<g id="a_edge53_Node000001_Node000031"><a xlink:title=" ">
<path fill="none" stroke="#63b8ff" d="M737.44,-630.86C728.1,-622.62 716.26,-612.15 705.84,-602.94"/>
<polygon fill="#63b8ff" stroke="#63b8ff" points="708.44,-600.58 698.63,-596.58 703.81,-605.82 708.44,-600.58"/>
</a>
</g>
</g>
<!-- Node32 -->
<g id="Node000032" class="node">
<title>Node32</title>
<g id="a_Node000032"><a xlink:href="atomic__counter_8hpp.html" target="_top" xlink:title=" ">
<polygon fill="white" stroke="#666666" points="1059.88,-340.5 956.12,-340.5 956.12,-310 1059.88,-310 1059.88,-340.5"/>
<text text-anchor="start" x="964.12" y="-327" font-family="Helvetica,sans-Serif" font-size="10.00">yaclib/util/detail</text>
<text text-anchor="middle" x="1008" y="-315.75" font-family="Helvetica,sans-Serif" font-size="10.00">/atomic_counter.hpp</text>
</a>
</g>
</g>
<!-- Node1&#45;&gt;Node32 -->
<g id="edge57_Node000001_Node000032" class="edge">
<title>Node1&#45;&gt;Node32</title>
<g id="a_edge57_Node000001_Node000032"><a xlink:title=" ">
<path fill="none" stroke="#63b8ff" d="M802.07,-642.01C875.71,-633.75 1008,-606.17 1008,-514.5 1008,-514.5 1008,-514.5 1008,-446 1008,-413.78 1008,-376.68 1008,-352.42"/>
<polygon fill="#63b8ff" stroke="#63b8ff" points="1011.5,-352.51 1008,-342.51 1004.5,-352.51 1011.5,-352.51"/>
</a>
</g>
</g>
<!-- Node34 -->
<g id="Node000034" class="node">
<title>Node34</title>
<g id="a_Node000034"><a xlink:href="unique__counter_8hpp.html" target="_top" xlink:title=" ">
<polygon fill="white" stroke="#666666" points="1341.5,-340.5 1238.5,-340.5 1238.5,-310 1341.5,-310 1341.5,-340.5"/>
<text text-anchor="start" x="1246.5" y="-327" font-family="Helvetica,sans-Serif" font-size="10.00">yaclib/util/detail</text>
<text text-anchor="middle" x="1290" y="-315.75" font-family="Helvetica,sans-Serif" font-size="10.00">/unique_counter.hpp</text>
</a>
</g>
</g>
<!-- Node1&#45;&gt;Node34 -->
<g id="edge63_Node000001_Node000034" class="edge">
<title>Node1&#45;&gt;Node34</title>
<g id="a_edge63_Node000001_Node000034"><a xlink:title=" ">
<path fill="none" stroke="#63b8ff" d="M802.17,-643.54C930.52,-637.03 1271,-610.68 1271,-514.5 1271,-514.5 1271,-514.5 1271,-446 1271,-413.23 1278.03,-376.02 1283.54,-351.9"/>
<polygon fill="#63b8ff" stroke="#63b8ff" points="1286.9,-352.89 1285.81,-342.35 1280.09,-351.27 1286.9,-352.89"/>
</a>
</g>
</g>
<!-- Node35 -->
<g id="Node000035" class="node">
<title>Node35</title>
<g id="a_Node000035"><a xlink:href="helper_8hpp.html" target="_top" xlink:title=" ">
<polygon fill="white" stroke="#666666" points="1223.88,-395.75 1120.12,-395.75 1120.12,-376.5 1223.88,-376.5 1223.88,-395.75"/>
<text text-anchor="middle" x="1172" y="-382.25" font-family="Helvetica,sans-Serif" font-size="10.00">yaclib/util/helper.hpp</text>
</a>
</g>
</g>
<!-- Node1&#45;&gt;Node35 -->
<g id="edge65_Node000001_Node000035" class="edge">
<title>Node1&#45;&gt;Node35</title>
<g id="a_edge65_Node000001_Node000035"><a xlink:title=" ">
<path fill="none" stroke="#63b8ff" d="M802.16,-640.79C869.13,-633.52 986.19,-618 1022,-595.25 1096.76,-547.77 1145.88,-448.49 1164.09,-406.52"/>
<polygon fill="#63b8ff" stroke="#63b8ff" points="1167.24,-408.05 1167.9,-397.47 1160.79,-405.33 1167.24,-408.05"/>
</a>
</g>
</g>
<!-- Node2&#45;&gt;Node3 -->
<g id="edge2_Node000002_Node000003" class="edge">
<title>Node2&#45;&gt;Node3</title>
<g id="a_edge2_Node000002_Node000003"><a xlink:title=" ">
<path fill="none" stroke="#63b8ff" d="M486.96,-309.61C504.87,-299.11 528.91,-285.02 546.86,-274.49"/>
<polygon fill="#63b8ff" stroke="#63b8ff" points="548.47,-277.6 555.33,-269.53 544.93,-271.56 548.47,-277.6"/>
</a>
</g>
</g>
<!-- Node4 -->
<g id="Node000004" class="node">
<title>Node4</title>
<g id="a_Node000004"><a xlink:href="fwd_8hpp.html" target="_top" xlink:title=" ">
<polygon fill="white" stroke="#666666" points="347.75,-268.38 270.25,-268.38 270.25,-249.12 347.75,-249.12 347.75,-268.38"/>
<text text-anchor="middle" x="309" y="-254.88" font-family="Helvetica,sans-Serif" font-size="10.00">yaclib/fwd.hpp</text>
</a>
</g>
</g>
<!-- Node2&#45;&gt;Node4 -->
<g id="edge3_Node000002_Node000004" class="edge">
<title>Node2&#45;&gt;Node4</title>
<g id="a_edge3_Node000002_Node000004"><a xlink:title=" ">
<path fill="none" stroke="#63b8ff" d="M427.28,-309.61C401.32,-298.67 366.11,-283.82 340.86,-273.18"/>
<polygon fill="#63b8ff" stroke="#63b8ff" points="342.34,-270.01 331.77,-269.35 339.62,-276.46 342.34,-270.01"/>
</a>
</g>
</g>
<!-- Node5 -->
<g id="Node000005" class="node">
<title>Node5</title>
<g id="a_Node000005"><a xlink:title=" ">
<polygon fill="#e0e0e0" stroke="#999999" points="590.5,-135.38 529.5,-135.38 529.5,-116.12 590.5,-116.12 590.5,-135.38"/>
<text text-anchor="middle" x="560" y="-121.88" font-family="Helvetica,sans-Serif" font-size="10.00">type_traits</text>
</a>
</g>
</g>
<!-- Node2&#45;&gt;Node5 -->
<g id="edge4_Node000002_Node000005" class="edge">
<title>Node2&#45;&gt;Node5</title>
<g id="a_edge4_Node000002_Node000005"><a xlink:title=" ">
<path fill="none" stroke="#63b8ff" d="M465.09,-309.52C468.84,-292.99 475.95,-265.6 486,-243.5 502.9,-206.35 530,-167.04 546.3,-144.83"/>
<polygon fill="#63b8ff" stroke="#63b8ff" points="549.07,-146.96 552.24,-136.85 543.45,-142.78 549.07,-146.96"/>
</a>
</g>
</g>
<!-- Node6 -->
<g id="Node000006" class="node">
<title>Node6</title>
<g id="a_Node000006"><a xlink:title=" ">
<polygon fill="#e0e0e0" stroke="#999999" points="307.25,-135.38 268.75,-135.38 268.75,-116.12 307.25,-116.12 307.25,-135.38"/>
<text text-anchor="middle" x="288" y="-121.88" font-family="Helvetica,sans-Serif" font-size="10.00">utility</text>
</a>
</g>
</g>
<!-- Node2&#45;&gt;Node6 -->
<g id="edge5_Node000002_Node000006" class="edge">
<title>Node2&#45;&gt;Node6</title>
<g id="a_edge5_Node000002_Node000006"><a xlink:title=" ">
<path fill="none" stroke="#63b8ff" d="M449.21,-309.73C417.8,-274.09 337.04,-182.41 303.24,-144.04"/>
<polygon fill="#63b8ff" stroke="#63b8ff" points="305.95,-141.83 296.71,-136.64 300.7,-146.46 305.95,-141.83"/>
</a>
</g>
</g>
<!-- Node7&#45;&gt;Node6 -->
<g id="edge50_Node000007_Node000006" class="edge">
<title>Node7&#45;&gt;Node6</title>
<g id="a_edge50_Node000007_Node000006"><a xlink:title=" ">
<path fill="none" stroke="#63b8ff" d="M528.73,-511.22C424.74,-507.69 167.71,-495.74 89,-462.25 41.37,-441.98 0,-438.89 0,-387.12 0,-387.12 0,-387.12 0,-257.75 0,-145.62 183.13,-129.02 257.33,-126.89"/>
<polygon fill="#63b8ff" stroke="#63b8ff" points="257.22,-130.4 267.14,-126.69 257.07,-123.4 257.22,-130.4"/>
</a>
</g>
</g>
<!-- Node8 -->
<g id="Node000008" class="node">
<title>Node8</title>
<g id="a_Node000008"><a xlink:href="base__core_8hpp.html" target="_top" xlink:title=" ">
<polygon fill="white" stroke="#666666" points="774,-462.25 686,-462.25 686,-431.75 774,-431.75 774,-462.25"/>
<text text-anchor="start" x="694" y="-448.75" font-family="Helvetica,sans-Serif" font-size="10.00">yaclib/algo/detail</text>
<text text-anchor="middle" x="730" y="-437.5" font-family="Helvetica,sans-Serif" font-size="10.00">/base_core.hpp</text>
</a>
</g>
</g>
<!-- Node7&#45;&gt;Node8 -->
<g id="edge7_Node000007_Node000008" class="edge">
<title>Node7&#45;&gt;Node8</title>
<g id="a_edge7_Node000007_Node000008"><a xlink:title=" ">
<path fill="none" stroke="#63b8ff" d="M608.63,-497.86C630.83,-488.74 659.63,-476.91 683.61,-467.06"/>
<polygon fill="#63b8ff" stroke="#63b8ff" points="684.92,-470.3 692.84,-463.26 682.26,-463.83 684.92,-470.3"/>
</a>
</g>
</g>
<!-- Node7&#45;&gt;Node26 -->
<g id="edge41_Node000007_Node000026" class="edge">
<title>Node7&#45;&gt;Node26</title>
<g id="a_edge41_Node000007_Node000026"><a xlink:title=" ">
<path fill="none" stroke="#63b8ff" d="M617.18,-503.4C673.26,-491.84 770.01,-471.9 830.86,-459.36"/>
<polygon fill="#63b8ff" stroke="#63b8ff" points="831.22,-462.86 840.31,-457.42 829.81,-456.01 831.22,-462.86"/>
</a>
</g>
</g>
<!-- Node28 -->
<g id="Node000028" class="node">
<title>Node28</title>
<g id="a_Node000028"><a xlink:href="result_8hpp.html" target="_top" xlink:title=" ">
<polygon fill="white" stroke="#666666" points="199.75,-456.62 98.25,-456.62 98.25,-437.38 199.75,-437.38 199.75,-456.62"/>
<text text-anchor="middle" x="149" y="-443.12" font-family="Helvetica,sans-Serif" font-size="10.00">yaclib/util/result.hpp</text>
</a>
</g>
</g>
<!-- Node7&#45;&gt;Node28 -->
<g id="edge44_Node000007_Node000028" class="edge">
<title>Node7&#45;&gt;Node28</title>
<g id="a_edge44_Node000007_Node000028"><a xlink:title=" ">
<path fill="none" stroke="#63b8ff" d="M528.82,-505.78C453.01,-494.25 297.92,-470.65 211.21,-457.46"/>
<polygon fill="#63b8ff" stroke="#63b8ff" points="211.86,-454.02 201.45,-455.98 210.81,-460.94 211.86,-454.02"/>
</a>
</g>
</g>
<!-- Node9 -->
<g id="Node000009" class="node">
<title>Node9</title>
<g id="a_Node000009"><a xlink:href="inline__core_8hpp.html" target="_top" xlink:title=" ">
<polygon fill="white" stroke="#666666" points="693,-340.5 605,-340.5 605,-310 693,-310 693,-340.5"/>
<text text-anchor="start" x="613" y="-327" font-family="Helvetica,sans-Serif" font-size="10.00">yaclib/algo/detail</text>
<text text-anchor="middle" x="649" y="-315.75" font-family="Helvetica,sans-Serif" font-size="10.00">/inline_core.hpp</text>
</a>
</g>
</g>
<!-- Node8&#45;&gt;Node9 -->
<g id="edge8_Node000008_Node000009" class="edge">
<title>Node8&#45;&gt;Node9</title>
<g id="a_edge8_Node000008_Node000009"><a xlink:title=" ">
<path fill="none" stroke="#63b8ff" d="M728.64,-431.36C726.68,-416.51 722.01,-393.36 711,-376.5 703.75,-365.4 693.26,-355.57 682.96,-347.62"/>
<polygon fill="#63b8ff" stroke="#63b8ff" points="685.03,-344.8 674.88,-341.75 680.91,-350.46 685.03,-344.8"/>
</a>
</g>
</g>
<!-- Node17 -->
<g id="Node000017" class="node">
<title>Node17</title>
<g id="a_Node000017"><a xlink:href="executor_8hpp.html" target="_top" xlink:title=" ">
<polygon fill="white" stroke="#666666" points="836.25,-334.88 719.75,-334.88 719.75,-315.62 836.25,-315.62 836.25,-334.88"/>
<text text-anchor="middle" x="778" y="-321.38" font-family="Helvetica,sans-Serif" font-size="10.00">yaclib/exe/executor.hpp</text>
</a>
</g>
</g>
<!-- Node8&#45;&gt;Node17 -->
<g id="edge21_Node000008_Node000017" class="edge">
<title>Node8&#45;&gt;Node17</title>
<g id="a_edge21_Node000008_Node000017"><a xlink:title=" ">
<path fill="none" stroke="#63b8ff" d="M767.2,-431.33C782.4,-423.26 798.41,-411.61 807,-395.75 816.21,-378.75 805.1,-358.2 794.08,-343.87"/>
<polygon fill="#63b8ff" stroke="#63b8ff" points="796.78,-341.65 787.68,-336.23 791.41,-346.14 796.78,-341.65"/>
</a>
</g>
</g>
<!-- Node20 -->
<g id="Node000020" class="node">
<title>Node20</title>
<g id="a_Node000020"><a xlink:href="inline_8hpp.html" target="_top" xlink:title=" ">
<polygon fill="white" stroke="#666666" points="702.12,-395.75 599.88,-395.75 599.88,-376.5 702.12,-376.5 702.12,-395.75"/>
<text text-anchor="middle" x="651" y="-382.25" font-family="Helvetica,sans-Serif" font-size="10.00">yaclib/exe/inline.hpp</text>
</a>
</g>
</g>
<!-- Node8&#45;&gt;Node20 -->
<g id="edge28_Node000008_Node000020" class="edge">
<title>Node8&#45;&gt;Node20</title>
<g id="a_edge28_Node000008_Node000020"><a xlink:title=" ">
<path fill="none" stroke="#63b8ff" d="M710.47,-431.45C698.91,-422.83 684.24,-411.9 672.37,-403.05"/>
<polygon fill="#63b8ff" stroke="#63b8ff" points="674.5,-400.27 664.39,-397.11 670.32,-405.89 674.5,-400.27"/>
</a>
</g>
</g>
<!-- Node21 -->
<g id="Node000021" class="node">
<title>Node21</title>
<g id="a_Node000021"><a xlink:href="type__traits_8hpp.html" target="_top" xlink:title=" ">
<polygon fill="white" stroke="#666666" points="338.25,-395.75 215.75,-395.75 215.75,-376.5 338.25,-376.5 338.25,-395.75"/>
<text text-anchor="middle" x="277" y="-382.25" font-family="Helvetica,sans-Serif" font-size="10.00">yaclib/util/type_traits.hpp</text>
</a>
</g>
</g>
<!-- Node8&#45;&gt;Node21 -->
<g id="edge31_Node000008_Node000021" class="edge">
<title>Node8&#45;&gt;Node21</title>
<g id="a_edge31_Node000008_Node000021"><a xlink:title=" ">
<path fill="none" stroke="#63b8ff" d="M685.74,-440.25C607.65,-430.1 444.74,-408.93 349.86,-396.59"/>
<polygon fill="#63b8ff" stroke="#63b8ff" points="350.51,-393.15 340.14,-395.33 349.6,-400.09 350.51,-393.15"/>
</a>
</g>
</g>
<!-- Node24 -->
<g id="Node000024" class="node">
<title>Node24</title>
<g id="a_Node000024"><a xlink:title=" ">
<polygon fill="#e0e0e0" stroke="#999999" points="797.62,-395.75 758.38,-395.75 758.38,-376.5 797.62,-376.5 797.62,-395.75"/>
<text text-anchor="middle" x="778" y="-382.25" font-family="Helvetica,sans-Serif" font-size="10.00">limits</text>
</a>
</g>
</g>
<!-- Node8&#45;&gt;Node24 -->
<g id="edge39_Node000008_Node000024" class="edge">
<title>Node8&#45;&gt;Node24</title>
<g id="a_edge39_Node000008_Node000024"><a xlink:title=" ">
<path fill="none" stroke="#63b8ff" d="M741.87,-431.45C748.4,-423.43 756.57,-413.42 763.48,-404.94"/>
<polygon fill="#63b8ff" stroke="#63b8ff" points="766.04,-407.34 769.64,-397.37 760.61,-402.91 766.04,-407.34"/>
</a>
</g>
</g>
<!-- Node25 -->
<g id="Node000025" class="node">
<title>Node25</title>
<g id="a_Node000025"><a xlink:title=" ">
<polygon fill="#e0e0e0" stroke="#999999" points="987.88,-268.38 896.12,-268.38 896.12,-249.12 987.88,-249.12 987.88,-268.38"/>
<text text-anchor="middle" x="942" y="-254.88" font-family="Helvetica,sans-Serif" font-size="10.00">yaclib_std/atomic</text>
</a>
</g>
</g>
<!-- Node8&#45;&gt;Node25 -->
<g id="edge40_Node000008_Node000025" class="edge">
<title>Node8&#45;&gt;Node25</title>
<g id="a_edge40_Node000008_Node000025"><a xlink:title=" ">
<path fill="none" stroke="#63b8ff" d="M763.61,-431.45C782.12,-422.57 804.93,-410.18 823,-395.75 867.79,-360 909.25,-306.02 929.32,-278.04"/>
<polygon fill="#63b8ff" stroke="#63b8ff" points="932.15,-280.1 935.06,-269.91 926.44,-276.06 932.15,-280.1"/>
</a>
</g>
</g>
<!-- Node9&#45;&gt;Node3 -->
<g id="edge9_Node000009_Node000003" class="edge">
<title>Node9&#45;&gt;Node3</title>
<g id="a_edge9_Node000009_Node000003"><a xlink:title=" ">
<path fill="none" stroke="#63b8ff" d="M631.53,-309.61C619.51,-299.54 603.54,-286.17 591.17,-275.81"/>
<polygon fill="#63b8ff" stroke="#63b8ff" points="593.61,-273.28 583.69,-269.54 589.11,-278.65 593.61,-273.28"/>
</a>
</g>
</g>
<!-- Node10 -->
<g id="Node000010" class="node">
<title>Node10</title>
<g id="a_Node000010"><a xlink:href="job_8hpp.html" target="_top" xlink:title=" ">
<polygon fill="white" stroke="#666666" points="802.25,-268.38 709.75,-268.38 709.75,-249.12 802.25,-249.12 802.25,-268.38"/>
<text text-anchor="middle" x="756" y="-254.88" font-family="Helvetica,sans-Serif" font-size="10.00">yaclib/exe/job.hpp</text>
</a>
</g>
</g>
<!-- Node9&#45;&gt;Node10 -->
<g id="edge10_Node000009_Node000010" class="edge">
<title>Node9&#45;&gt;Node10</title>
<g id="a_edge10_Node000009_Node000010"><a xlink:title=" ">
<path fill="none" stroke="#63b8ff" d="M673.28,-309.61C690.7,-299.11 714.09,-285.02 731.55,-274.49"/>
<polygon fill="#63b8ff" stroke="#63b8ff" points="733,-277.7 739.76,-269.54 729.39,-271.71 733,-277.7"/>
</a>
</g>
</g>
<!-- Node11 -->
<g id="Node000011" class="node">
<title>Node11</title>
<g id="a_Node000011"><a xlink:href="log_8hpp.html" target="_top" xlink:title=" ">
<polygon fill="white" stroke="#666666" points="682.25,-74.5 607.75,-74.5 607.75,-55.25 682.25,-55.25 682.25,-74.5"/>
<text text-anchor="middle" x="645" y="-61" font-family="Helvetica,sans-Serif" font-size="10.00">yaclib/log.hpp</text>
</a>
</g>
</g>
<!-- Node9&#45;&gt;Node11 -->
<g id="edge20_Node000009_Node000011" class="edge">
<title>Node9&#45;&gt;Node11</title>
<g id="a_edge20_Node000009_Node000011"><a xlink:title=" ">
<path fill="none" stroke="#63b8ff" d="M646.94,-309.64C644.07,-292.74 637.7,-264.53 625,-243.5 591.29,-187.67 545.32,-201.1 520,-141 514.74,-128.51 512.19,-121.58 520,-110.5 537.19,-86.11 568.98,-74.98 596.19,-69.93"/>
<polygon fill="#63b8ff" stroke="#63b8ff" points="596.7,-73.39 606.02,-68.36 595.6,-66.48 596.7,-73.39"/>
</a>
</g>
</g>
<!-- Node10&#45;&gt;Node11 -->
<g id="edge11_Node000010_Node000011" class="edge">
<title>Node10&#45;&gt;Node11</title>
<g id="a_edge11_Node000010_Node000011"><a xlink:title=" ">
<path fill="none" stroke="#63b8ff" d="M722.91,-248.64C690.44,-238.94 644.32,-222.92 634,-207.5 609.04,-170.22 625.11,-114.4 636.5,-85.22"/>
<polygon fill="#63b8ff" stroke="#63b8ff" points="639.65,-86.77 640.24,-76.19 633.18,-84.09 639.65,-86.77"/>
</a>
</g>
</g>
<!-- Node13 -->
<g id="Node000013" class="node">
<title>Node13</title>
<g id="a_Node000013"><a xlink:href="node_8hpp.html" target="_top" xlink:title=" ">
<polygon fill="white" stroke="#666666" points="725.38,-207.5 642.62,-207.5 642.62,-177 725.38,-177 725.38,-207.5"/>
<text text-anchor="start" x="650.62" y="-194" font-family="Helvetica,sans-Serif" font-size="10.00">yaclib/util/detail</text>
<text text-anchor="middle" x="684" y="-182.75" font-family="Helvetica,sans-Serif" font-size="10.00">/node.hpp</text>
</a>
</g>
</g>
<!-- Node10&#45;&gt;Node13 -->
<g id="edge13_Node000010_Node000013" class="edge">
<title>Node10&#45;&gt;Node13</title>
<g id="a_edge13_Node000010_Node000013"><a xlink:title=" ">
<path fill="none" stroke="#63b8ff" d="M745.99,-248.78C736.38,-240.18 721.49,-226.83 708.71,-215.38"/>
<polygon fill="#63b8ff" stroke="#63b8ff" points="711.2,-212.92 701.41,-208.85 706.53,-218.13 711.2,-212.92"/>
</a>
</g>
</g>
<!-- Node14 -->
<g id="Node000014" class="node">
<title>Node14</title>
<g id="a_Node000014"><a xlink:href="func_8hpp.html" target="_top" xlink:title=" ">
<polygon fill="white" stroke="#666666" points="840.12,-201.88 743.88,-201.88 743.88,-182.62 840.12,-182.62 840.12,-201.88"/>
<text text-anchor="middle" x="792" y="-188.38" font-family="Helvetica,sans-Serif" font-size="10.00">yaclib/util/func.hpp</text>
</a>
</g>
</g>
<!-- Node10&#45;&gt;Node14 -->
<g id="edge14_Node000010_Node000014" class="edge">
<title>Node10&#45;&gt;Node14</title>
<g id="a_edge14_Node000010_Node000014"><a xlink:title=" ">
<path fill="none" stroke="#63b8ff" d="M761.01,-248.78C766.27,-239.35 774.71,-224.22 781.46,-212.13"/>
<polygon fill="#63b8ff" stroke="#63b8ff" points="784.48,-213.9 786.3,-203.46 778.37,-210.49 784.48,-213.9"/>
</a>
</g>
</g>
<!-- Node12 -->
<g id="Node000012" class="node">
<title>Node12</title>
<g id="a_Node000012"><a xlink:title=" ">
<polygon fill="#e0e0e0" stroke="#999999" points="677.75,-19.25 612.25,-19.25 612.25,0 677.75,0 677.75,-19.25"/>
<text text-anchor="middle" x="645" y="-5.75" font-family="Helvetica,sans-Serif" font-size="10.00">string_view</text>
</a>
</g>
</g>
<!-- Node11&#45;&gt;Node12 -->
<g id="edge12_Node000011_Node000012" class="edge">
<title>Node11&#45;&gt;Node12</title>
<g id="a_edge12_Node000011_Node000012"><a xlink:title=" ">
<path fill="none" stroke="#63b8ff" d="M645,-55.08C645,-48.57 645,-39.42 645,-31.12"/>
<polygon fill="#63b8ff" stroke="#63b8ff" points="648.5,-31.12 645,-21.12 641.5,-31.12 648.5,-31.12"/>
</a>
</g>
</g>
<!-- Node14&#45;&gt;Node5 -->
<g id="edge18_Node000014_Node000005" class="edge">
<title>Node14&#45;&gt;Node5</title>
<g id="a_edge18_Node000014_Node000005"><a xlink:title=" ">
<path fill="none" stroke="#63b8ff" d="M759.25,-182.15C717.91,-170.65 646.77,-150.87 601.62,-138.32"/>
<polygon fill="#63b8ff" stroke="#63b8ff" points="602.76,-135.01 592.19,-135.7 600.89,-141.75 602.76,-135.01"/>
</a>
</g>
</g>
<!-- Node14&#45;&gt;Node6 -->
<g id="edge19_Node000014_Node000006" class="edge">
<title>Node14&#45;&gt;Node6</title>
<g id="a_edge19_Node000014_Node000006"><a xlink:title=" ">
<path fill="none" stroke="#63b8ff" d="M758.11,-182.15C750.24,-180.25 741.86,-178.4 734,-177 579.23,-149.39 391.37,-134.09 318.73,-128.84"/>
<polygon fill="#63b8ff" stroke="#63b8ff" points="319.43,-125.38 309.2,-128.17 318.93,-132.37 319.43,-125.38"/>
</a>
</g>
</g>
<!-- Node15 -->
<g id="Node000015" class="node">
<title>Node15</title>
<g id="a_Node000015"><a xlink:href="ref_8hpp.html" target="_top" xlink:title=" ">
<polygon fill="white" stroke="#666666" points="937.38,-135.38 848.62,-135.38 848.62,-116.12 937.38,-116.12 937.38,-135.38"/>
<text text-anchor="middle" x="893" y="-121.88" font-family="Helvetica,sans-Serif" font-size="10.00">yaclib/util/ref.hpp</text>
</a>
</g>
</g>
<!-- Node14&#45;&gt;Node15 -->
<g id="edge15_Node000014_Node000015" class="edge">
<title>Node14&#45;&gt;Node15</title>
<g id="a_edge15_Node000014_Node000015"><a xlink:title=" ">
<path fill="none" stroke="#63b8ff" d="M806.04,-182.28C822.38,-171.85 849.63,-154.45 869.27,-141.9"/>
<polygon fill="#63b8ff" stroke="#63b8ff" points="870.93,-145 877.47,-136.66 867.16,-139.1 870.93,-145"/>
</a>
</g>
</g>
<!-- Node15&#45;&gt;Node11 -->
<g id="edge16_Node000015_Node000011" class="edge">
<title>Node15&#45;&gt;Node11</title>
<g id="a_edge16_Node000015_Node000011"><a xlink:title=" ">
<path fill="none" stroke="#63b8ff" d="M854.79,-115.68C811.49,-105.4 740.8,-88.62 693.6,-77.41"/>
<polygon fill="#63b8ff" stroke="#63b8ff" points="694.45,-74.02 683.91,-75.11 692.83,-80.83 694.45,-74.02"/>
</a>
</g>
</g>
<!-- Node16 -->
<g id="Node000016" class="node">
<title>Node16</title>
<g id="a_Node000016"><a xlink:title=" ">
<polygon fill="#e0e0e0" stroke="#999999" points="1044.12,-74.5 995.88,-74.5 995.88,-55.25 1044.12,-55.25 1044.12,-74.5"/>
<text text-anchor="middle" x="1020" y="-61" font-family="Helvetica,sans-Serif" font-size="10.00">cstddef</text>
</a>
</g>
</g>
<!-- Node15&#45;&gt;Node16 -->
<g id="edge17_Node000015_Node000016" class="edge">
<title>Node15&#45;&gt;Node16</title>
<g id="a_edge17_Node000015_Node000016"><a xlink:title=" ">
<path fill="none" stroke="#63b8ff" d="M912.57,-115.68C933.32,-106.06 966.36,-90.74 990.33,-79.63"/>
<polygon fill="#63b8ff" stroke="#63b8ff" points="991.65,-82.88 999.25,-75.5 988.7,-76.53 991.65,-82.88"/>
</a>
</g>
</g>
<!-- Node17&#45;&gt;Node10 -->
<g id="edge22_Node000017_Node000010" class="edge">
<title>Node17&#45;&gt;Node10</title>
<g id="a_edge22_Node000017_Node000010"><a xlink:title=" ">
<path fill="none" stroke="#63b8ff" d="M774.94,-315.28C771.79,-306.04 766.77,-291.33 762.7,-279.38"/>
<polygon fill="#63b8ff" stroke="#63b8ff" points="766.06,-278.41 759.52,-270.07 759.44,-280.67 766.06,-278.41"/>
</a>
</g>
</g>
<!-- Node18 -->
<g id="Node000018" class="node">
<title>Node18</title>
<g id="a_Node000018"><a xlink:href="intrusive__ptr_8hpp.html" target="_top" xlink:title=" ">
<polygon fill="white" stroke="#666666" points="992.12,-207.5 895.88,-207.5 895.88,-177 992.12,-177 992.12,-207.5"/>
<text text-anchor="start" x="903.88" y="-194" font-family="Helvetica,sans-Serif" font-size="10.00">yaclib/util/intrusive</text>
<text text-anchor="middle" x="944" y="-182.75" font-family="Helvetica,sans-Serif" font-size="10.00">_ptr.hpp</text>
</a>
</g>
</g>
<!-- Node17&#45;&gt;Node18 -->
<g id="edge23_Node000017_Node000018" class="edge">
<title>Node17&#45;&gt;Node18</title>
<g id="a_edge23_Node000017_Node000018"><a xlink:title=" ">
<path fill="none" stroke="#63b8ff" d="M789.41,-315.25C815.41,-294.73 879.65,-244.03 916.62,-214.86"/>
<polygon fill="#63b8ff" stroke="#63b8ff" points="918.52,-217.82 924.2,-208.87 914.18,-212.32 918.52,-217.82"/>
</a>
</g>
</g>
<!-- Node18&#45;&gt;Node5 -->
<g id="edge25_Node000018_Node000005" class="edge">
<title>Node18&#45;&gt;Node5</title>
<g id="a_edge25_Node000018_Node000005"><a xlink:title=" ">
<path fill="none" stroke="#63b8ff" d="M895.67,-179.79C891.06,-178.8 886.45,-177.86 882,-177 782.05,-157.74 663.56,-140.73 601.94,-132.32"/>
<polygon fill="#63b8ff" stroke="#63b8ff" points="602.64,-128.89 592.26,-131.01 601.7,-135.82 602.64,-128.89"/>
</a>
</g>
</g>
<!-- Node18&#45;&gt;Node15 -->
<g id="edge24_Node000018_Node000015" class="edge">
<title>Node18&#45;&gt;Node15</title>
<g id="a_edge24_Node000018_Node000015"><a xlink:title=" ">
<path fill="none" stroke="#63b8ff" d="M932.43,-176.61C924.86,-167.04 914.92,-154.47 906.92,-144.35"/>
<polygon fill="#63b8ff" stroke="#63b8ff" points="909.86,-142.43 900.91,-136.76 904.37,-146.77 909.86,-142.43"/>
</a>
</g>
</g>
<!-- Node19 -->
<g id="Node000019" class="node">
<title>Node19</title>
<g id="a_Node000019"><a xlink:href="intrusive__ptr__impl_8hpp.html" target="_top" xlink:title=" ">
<polygon fill="white" stroke="#666666" points="804.75,-141 691.25,-141 691.25,-110.5 804.75,-110.5 804.75,-141"/>
<text text-anchor="start" x="699.25" y="-127.5" font-family="Helvetica,sans-Serif" font-size="10.00">yaclib/util/detail</text>
<text text-anchor="middle" x="748" y="-116.25" font-family="Helvetica,sans-Serif" font-size="10.00">/intrusive_ptr_impl.hpp</text>
</a>
</g>
</g>
<!-- Node18&#45;&gt;Node19 -->
<g id="edge26_Node000018_Node000019" class="edge">
<title>Node18&#45;&gt;Node19</title>
<g id="a_edge26_Node000018_Node000019"><a xlink:title=" ">
<path fill="none" stroke="#63b8ff" d="M899.52,-176.61C871.06,-167.25 833.9,-155.02 803.5,-145.01"/>
<polygon fill="#63b8ff" stroke="#63b8ff" points="804.67,-141.71 794.08,-141.91 802.48,-148.36 804.67,-141.71"/>
</a>
</g>
</g>
<!-- Node19&#45;&gt;Node11 -->
<g id="edge27_Node000019_Node000011" class="edge">
<title>Node19&#45;&gt;Node11</title>
<g id="a_edge27_Node000019_Node000011"><a xlink:title=" ">
<path fill="none" stroke="#63b8ff" d="M722.27,-110.05C706.44,-100.99 686.22,-89.44 670.44,-80.41"/>
<polygon fill="#63b8ff" stroke="#63b8ff" points="672.53,-77.58 662.11,-75.66 669.05,-83.66 672.53,-77.58"/>
</a>
</g>
</g>
<!-- Node20&#45;&gt;Node4 -->
<g id="edge30_Node000020_Node000004" class="edge">
<title>Node20&#45;&gt;Node4</title>
<g id="a_edge30_Node000020_Node000004"><a xlink:title=" ">
<path fill="none" stroke="#63b8ff" d="M599.68,-382.98C549.13,-379.21 470.72,-368.87 409,-340.5 408.42,-340.23 357.91,-299.36 328.91,-275.88"/>
<polygon fill="#63b8ff" stroke="#63b8ff" points="331.15,-273.19 321.18,-269.61 326.75,-278.63 331.15,-273.19"/>
</a>
</g>
</g>
<!-- Node20&#45;&gt;Node17 -->
<g id="edge29_Node000020_Node000017" class="edge">
<title>Node20&#45;&gt;Node17</title>
<g id="a_edge29_Node000020_Node000017"><a xlink:title=" ">
<path fill="none" stroke="#63b8ff" d="M670.57,-376.05C691.32,-366.43 724.36,-351.12 748.33,-340.01"/>
<polygon fill="#63b8ff" stroke="#63b8ff" points="749.65,-343.25 757.25,-335.87 746.7,-336.9 749.65,-343.25"/>
</a>
</g>
</g>
<!-- Node21&#45;&gt;Node4 -->
<g id="edge32_Node000021_Node000004" class="edge">
<title>Node21&#45;&gt;Node4</title>
<g id="a_edge32_Node000021_Node000004"><a xlink:title=" ">
<path fill="none" stroke="#63b8ff" d="M268.58,-376.18C256.24,-361.93 235.88,-333.33 247,-310 254.13,-295.05 268.12,-283.11 281,-274.62"/>
<polygon fill="#63b8ff" stroke="#63b8ff" points="282.51,-277.8 289.22,-269.6 278.86,-271.83 282.51,-277.8"/>
</a>
</g>
</g>
<!-- Node21&#45;&gt;Node5 -->
<g id="edge37_Node000021_Node000005" class="edge">
<title>Node21&#45;&gt;Node5</title>
<g id="a_edge37_Node000021_Node000005"><a xlink:title=" ">
<path fill="none" stroke="#63b8ff" d="M338.67,-382.06C401.39,-377.52 492.48,-366.53 515,-340.5 522.06,-332.34 516.97,-254.09 519,-243.5 522.66,-224.39 541.67,-173.88 552.47,-145.97"/>
<polygon fill="#63b8ff" stroke="#63b8ff" points="555.61,-147.54 555.98,-136.95 549.09,-145 555.61,-147.54"/>
</a>
</g>
</g>
<!-- Node21&#45;&gt;Node6 -->
<g id="edge38_Node000021_Node000006" class="edge">
<title>Node21&#45;&gt;Node6</title>
<g id="a_edge38_Node000021_Node000006"><a xlink:title=" ">
<path fill="none" stroke="#63b8ff" d="M266.21,-376.14C257.26,-367.92 245.19,-354.89 240,-340.5 235.4,-327.75 238.27,-323.44 240,-310 247.86,-248.99 269.85,-179.32 281.14,-146.2"/>
<polygon fill="#63b8ff" stroke="#63b8ff" points="284.3,-147.76 284.27,-137.17 277.68,-145.47 284.3,-147.76"/>
</a>
</g>
</g>
<!-- Node22 -->
<g id="Node000022" class="node">
<title>Node22</title>
<g id="a_Node000022"><a xlink:href="type__traits__impl_8hpp.html" target="_top" xlink:title=" ">
<polygon fill="white" stroke="#666666" points="361.62,-340.5 256.38,-340.5 256.38,-310 361.62,-310 361.62,-340.5"/>
<text text-anchor="start" x="264.38" y="-327" font-family="Helvetica,sans-Serif" font-size="10.00">yaclib/util/detail</text>
<text text-anchor="middle" x="309" y="-315.75" font-family="Helvetica,sans-Serif" font-size="10.00">/type_traits_impl.hpp</text>
</a>
</g>
</g>
<!-- Node21&#45;&gt;Node22 -->
<g id="edge33_Node000021_Node000022" class="edge">
<title>Node21&#45;&gt;Node22</title>
<g id="a_edge33_Node000021_Node000022"><a xlink:title=" ">
<path fill="none" stroke="#63b8ff" d="M281.86,-376.18C285.53,-369.43 290.75,-359.83 295.64,-350.84"/>
<polygon fill="#63b8ff" stroke="#63b8ff" points="298.68,-352.57 300.38,-342.11 292.53,-349.23 298.68,-352.57"/>
</a>
</g>
</g>
<!-- Node23 -->
<g id="Node000023" class="node">
<title>Node23</title>
<g id="a_Node000023"><a xlink:title=" ">
<polygon fill="#e0e0e0" stroke="#999999" points="161.62,-334.88 104.38,-334.88 104.38,-315.62 161.62,-315.62 161.62,-334.88"/>
<text text-anchor="middle" x="133" y="-321.38" font-family="Helvetica,sans-Serif" font-size="10.00">exception</text>
</a>
</g>
</g>
<!-- Node21&#45;&gt;Node23 -->
<g id="edge36_Node000021_Node000023" class="edge">
<title>Node21&#45;&gt;Node23</title>
<g id="a_edge36_Node000021_Node000023"><a xlink:title=" ">
<path fill="none" stroke="#63b8ff" d="M254.82,-376.05C230.96,-366.3 192.8,-350.7 165.55,-339.56"/>
<polygon fill="#63b8ff" stroke="#63b8ff" points="166.96,-336.35 156.37,-335.81 164.31,-342.83 166.96,-336.35"/>
</a>
</g>
</g>
<!-- Node22&#45;&gt;Node4 -->
<g id="edge34_Node000022_Node000004" class="edge">
<title>Node22&#45;&gt;Node4</title>
<g id="a_edge34_Node000022_Node000004"><a xlink:title=" ">
<path fill="none" stroke="#63b8ff" d="M309,-309.61C309,-300.83 309,-289.52 309,-279.9"/>
<polygon fill="#63b8ff" stroke="#63b8ff" points="312.5,-280.09 309,-270.09 305.5,-280.09 312.5,-280.09"/>
</a>
</g>
</g>
<!-- Node22&#45;&gt;Node5 -->
<g id="edge35_Node000022_Node000005" class="edge">
<title>Node22&#45;&gt;Node5</title>
<g id="a_edge35_Node000022_Node000005"><a xlink:title=" ">
<path fill="none" stroke="#63b8ff" d="M327.46,-309.73C373.32,-273.64 492.18,-180.12 539.82,-142.63"/>
<polygon fill="#63b8ff" stroke="#63b8ff" points="541.72,-145.59 547.41,-136.66 537.39,-140.09 541.72,-145.59"/>
</a>
</g>
</g>
<!-- Node26&#45;&gt;Node5 -->
<g id="edge43_Node000026_Node000005" class="edge">
<title>Node26&#45;&gt;Node5</title>
<g id="a_edge43_Node000026_Node000005"><a xlink:title=" ">
<path fill="none" stroke="#63b8ff" d="M905.67,-437C921.15,-428.72 941.63,-414.83 951,-395.75 954.77,-388.07 953.36,-384.72 951,-376.5 936.21,-324.87 911.12,-321.99 887,-274 866.21,-232.63 884.86,-206.29 849,-177 830.08,-161.55 677.13,-141.03 601.73,-131.72"/>
<polygon fill="#63b8ff" stroke="#63b8ff" points="602.61,-128.3 592.26,-130.56 601.76,-135.25 602.61,-128.3"/>
</a>
</g>
</g>
<!-- Node27 -->
<g id="Node000027" class="node">
<title>Node27</title>
<g id="a_Node000027"><a xlink:title=" ">
<polygon fill="#e0e0e0" stroke="#999999" points="942.25,-395.75 891.75,-395.75 891.75,-376.5 942.25,-376.5 942.25,-395.75"/>
<text text-anchor="middle" x="917" y="-382.25" font-family="Helvetica,sans-Serif" font-size="10.00">memory</text>
</a>
</g>
</g>
<!-- Node26&#45;&gt;Node27 -->
<g id="edge42_Node000026_Node000027" class="edge">
<title>Node26&#45;&gt;Node27</title>
<g id="a_edge42_Node000026_Node000027"><a xlink:title=" ">
<path fill="none" stroke="#63b8ff" d="M890.71,-437.06C894.99,-428.93 901.44,-416.67 906.89,-406.33"/>
<polygon fill="#63b8ff" stroke="#63b8ff" points="909.98,-407.97 911.54,-397.49 903.79,-404.71 909.98,-407.97"/>
</a>
</g>
</g>
<!-- Node28&#45;&gt;Node4 -->
<g id="edge45_Node000028_Node000004" class="edge">
<title>Node28&#45;&gt;Node4</title>
<g id="a_edge45_Node000028_Node000004"><a xlink:title=" ">
<path fill="none" stroke="#63b8ff" d="M139.91,-437.16C117.27,-414.09 62.5,-351.02 95,-310 115.07,-284.68 202.22,-270.87 258.93,-264.42"/>
<polygon fill="#63b8ff" stroke="#63b8ff" points="259.12,-267.92 268.68,-263.36 258.36,-260.96 259.12,-267.92"/>
</a>
</g>
</g>
<!-- Node28&#45;&gt;Node6 -->
<g id="edge48_Node000028_Node000006" class="edge">
<title>Node28&#45;&gt;Node6</title>
<g id="a_edge48_Node000028_Node000006"><a xlink:title=" ">
<path fill="none" stroke="#63b8ff" d="M130.67,-436.97C99.14,-419.99 38,-380.11 38,-326.25 38,-326.25 38,-326.25 38,-257.75 38,-159.96 189.94,-135.02 256.92,-128.78"/>
<polygon fill="#63b8ff" stroke="#63b8ff" points="257.2,-132.27 266.87,-127.95 256.62,-125.3 257.2,-132.27"/>
</a>
</g>
</g>
<!-- Node28&#45;&gt;Node21 -->
<g id="edge46_Node000028_Node000021" class="edge">
<title>Node28&#45;&gt;Node21</title>
<g id="a_edge46_Node000028_Node000021"><a xlink:title=" ">
<path fill="none" stroke="#63b8ff" d="M168.72,-436.93C189.64,-427.31 222.94,-411.99 247.09,-400.88"/>
<polygon fill="#63b8ff" stroke="#63b8ff" points="248.47,-404.1 256.09,-396.74 245.55,-397.74 248.47,-404.1"/>
</a>
</g>
</g>
<!-- Node28&#45;&gt;Node23 -->
<g id="edge47_Node000028_Node000023" class="edge">
<title>Node28&#45;&gt;Node23</title>
<g id="a_edge47_Node000028_Node000023"><a xlink:title=" ">
<path fill="none" stroke="#63b8ff" d="M147.8,-437C145.25,-417.93 139.25,-373.04 135.72,-346.64"/>
<polygon fill="#63b8ff" stroke="#63b8ff" points="139.21,-346.3 134.42,-336.86 132.27,-347.23 139.21,-346.3"/>
</a>
</g>
</g>
<!-- Node29 -->
<g id="Node000029" class="node">
<title>Node29</title>
<g id="a_Node000029"><a xlink:title=" ">
<polygon fill="#e0e0e0" stroke="#999999" points="197.62,-395.75 152.38,-395.75 152.38,-376.5 197.62,-376.5 197.62,-395.75"/>
<text text-anchor="middle" x="175" y="-382.25" font-family="Helvetica,sans-Serif" font-size="10.00">variant</text>
</a>
</g>
</g>
<!-- Node28&#45;&gt;Node29 -->
<g id="edge49_Node000028_Node000029" class="edge">
<title>Node28&#45;&gt;Node29</title>
<g id="a_edge49_Node000028_Node000029"><a xlink:title=" ">
<path fill="none" stroke="#63b8ff" d="M152.95,-437.06C156.5,-429.02 161.84,-416.93 166.37,-406.66"/>
<polygon fill="#63b8ff" stroke="#63b8ff" points="169.56,-408.1 170.4,-397.54 163.16,-405.27 169.56,-408.1"/>
</a>
</g>
</g>
<!-- Node30&#45;&gt;Node7 -->
<g id="edge52_Node000030_Node000007" class="edge">
<title>Node30&#45;&gt;Node7</title>
<g id="a_edge52_Node000030_Node000007"><a xlink:title=" ">
<path fill="none" stroke="#63b8ff" d="M573,-564.36C573,-557.27 573,-548.54 573,-540.38"/>
<polygon fill="#63b8ff" stroke="#63b8ff" points="576.5,-540.59 573,-530.59 569.5,-540.59 576.5,-540.59"/>
</a>
</g>
</g>
<!-- Node31&#45;&gt;Node7 -->
<g id="edge54_Node000031_Node000007" class="edge">
<title>Node31&#45;&gt;Node7</title>
<g id="a_edge54_Node000031_Node000007"><a xlink:title=" ">
<path fill="none" stroke="#63b8ff" d="M656.49,-564.36C641.86,-555.62 623.05,-544.39 606.99,-534.8"/>
<polygon fill="#63b8ff" stroke="#63b8ff" points="609.09,-531.98 598.71,-529.85 605.5,-537.99 609.09,-531.98"/>
</a>
</g>
</g>
<!-- Node32&#45;&gt;Node3 -->
<g id="edge58_Node000032_Node000003" class="edge">
<title>Node32&#45;&gt;Node3</title>
<g id="a_edge58_Node000032_Node000003"><a xlink:title=" ">
<path fill="none" stroke="#63b8ff" d="M955.87,-316.56C889.14,-306.7 769.97,-289.1 668,-274 654.72,-272.03 640.4,-269.91 626.99,-267.92"/>
<polygon fill="#63b8ff" stroke="#63b8ff" points="627.87,-264.51 617.46,-266.5 626.84,-271.44 627.87,-264.51"/>
</a>
</g>
</g>
<!-- Node32&#45;&gt;Node6 -->
<g id="edge61_Node000032_Node000006" class="edge">
<title>Node32&#45;&gt;Node6</title>
<g id="a_edge61_Node000032_Node000006"><a xlink:title=" ">
<path fill="none" stroke="#63b8ff" d="M955.64,-319.22C893.93,-312.48 788.66,-298.44 701,-274 665.94,-264.22 659.09,-256.24 625,-243.5 512.71,-201.55 377.53,-156.28 318.3,-136.7"/>
<polygon fill="#63b8ff" stroke="#63b8ff" points="319.52,-133.42 308.93,-133.61 317.33,-140.07 319.52,-133.42"/>
</a>
</g>
</g>
<!-- Node32&#45;&gt;Node16 -->
<g id="edge60_Node000032_Node000016" class="edge">
<title>Node32&#45;&gt;Node16</title>
<g id="a_edge60_Node000032_Node000016"><a xlink:title=" ">
<path fill="none" stroke="#63b8ff" d="M1008.68,-309.62C1010.71,-265.92 1016.73,-136.28 1019.06,-86.06"/>
<polygon fill="#63b8ff" stroke="#63b8ff" points="1022.54,-86.53 1019.51,-76.38 1015.55,-86.2 1022.54,-86.53"/>
</a>
</g>
</g>
<!-- Node32&#45;&gt;Node25 -->
<g id="edge62_Node000032_Node000025" class="edge">
<title>Node32&#45;&gt;Node25</title>
<g id="a_edge62_Node000032_Node000025"><a xlink:title=" ">
<path fill="none" stroke="#63b8ff" d="M993.02,-309.61C982.92,-299.74 969.57,-286.69 959.06,-276.42"/>
<polygon fill="#63b8ff" stroke="#63b8ff" points="961.71,-274.12 952.11,-269.63 956.82,-279.12 961.71,-274.12"/>
</a>
</g>
</g>
<!-- Node33 -->
<g id="Node000033" class="node">
<title>Node33</title>
<g id="a_Node000033"><a xlink:href="default__deleter_8hpp.html" target="_top" xlink:title=" ">
<polygon fill="white" stroke="#666666" points="1144.38,-274 1043.62,-274 1043.62,-243.5 1144.38,-243.5 1144.38,-274"/>
<text text-anchor="start" x="1051.62" y="-260.5" font-family="Helvetica,sans-Serif" font-size="10.00">yaclib/util/detail</text>
<text text-anchor="middle" x="1094" y="-249.25" font-family="Helvetica,sans-Serif" font-size="10.00">/default_deleter.hpp</text>
</a>
</g>
</g>
<!-- Node32&#45;&gt;Node33 -->
<g id="edge59_Node000032_Node000033" class="edge">
<title>Node32&#45;&gt;Node33</title>
<g id="a_edge59_Node000032_Node000033"><a xlink:title=" ">
<path fill="none" stroke="#63b8ff" d="M1027.51,-309.61C1038.73,-301.2 1053.02,-290.48 1065.48,-281.14"/>
<polygon fill="#63b8ff" stroke="#63b8ff" points="1067.45,-284.04 1073.35,-275.24 1063.25,-278.44 1067.45,-284.04"/>
</a>
</g>
</g>
<!-- Node34&#45;&gt;Node33 -->
<g id="edge64_Node000034_Node000033" class="edge">
<title>Node34&#45;&gt;Node33</title>
<g id="a_edge64_Node000034_Node000033"><a xlink:title=" ">
<path fill="none" stroke="#63b8ff" d="M1245.52,-309.61C1217.06,-300.25 1179.9,-288.02 1149.5,-278.01"/>
<polygon fill="#63b8ff" stroke="#63b8ff" points="1150.67,-274.71 1140.08,-274.91 1148.48,-281.36 1150.67,-274.71"/>
</a>
</g>
</g>
<!-- Node35&#45;&gt;Node16 -->
<g id="edge69_Node000035_Node000016" class="edge">
<title>Node35&#45;&gt;Node16</title>
<g id="a_edge69_Node000035_Node000016"><a xlink:title=" ">
<path fill="none" stroke="#63b8ff" d="M1176.66,-376.28C1186.81,-356.17 1210,-305.24 1210,-259.75 1210,-259.75 1210,-259.75 1210,-191.25 1210,-118.01 1110.43,-85.11 1055.45,-72.52"/>
<polygon fill="#63b8ff" stroke="#63b8ff" points="1056.44,-69.15 1045.93,-70.46 1054.96,-76 1056.44,-69.15"/>
</a>
</g>
</g>
<!-- Node35&#45;&gt;Node18 -->
<g id="edge68_Node000035_Node000018" class="edge">
<title>Node35&#45;&gt;Node18</title>
<g id="a_edge68_Node000035_Node000018"><a xlink:title=" ">
<path fill="none" stroke="#63b8ff" d="M1173.89,-376.1C1178.51,-351.36 1187.57,-281.81 1153,-243.5 1133.22,-221.58 1058.03,-207.56 1003.5,-200.05"/>
<polygon fill="#63b8ff" stroke="#63b8ff" points="1004.08,-196.59 993.7,-198.74 1003.15,-203.53 1004.08,-196.59"/>
</a>
</g>
</g>
<!-- Node35&#45;&gt;Node32 -->
<g id="edge66_Node000035_Node000032" class="edge">
<title>Node35&#45;&gt;Node32</title>
<g id="a_edge66_Node000035_Node000032"><a xlink:title=" ">
<path fill="none" stroke="#63b8ff" d="M1146.73,-376.05C1123.63,-367.76 1088.74,-355.23 1059.73,-344.82"/>
<polygon fill="#63b8ff" stroke="#63b8ff" points="1060.95,-341.54 1050.36,-341.46 1058.59,-348.13 1060.95,-341.54"/>
</a>
</g>
</g>
<!-- Node35&#45;&gt;Node34 -->
<g id="edge67_Node000035_Node000034" class="edge">
<title>Node35&#45;&gt;Node34</title>
<g id="a_edge67_Node000035_Node000034"><a xlink:title=" ">
<path fill="none" stroke="#63b8ff" d="M1190.18,-376.05C1206.14,-368.09 1229.93,-356.22 1250.28,-346.07"/>
<polygon fill="#63b8ff" stroke="#63b8ff" points="1251.81,-349.22 1259.19,-341.62 1248.68,-342.95 1251.81,-349.22"/>
</a>
</g>
</g>
</g>
</svg>

<g id="navigator" transform="translate(0 0)" fill="#404254">
  <rect fill="#f2f5e9" fill-opacity="0.5" stroke="#606060" stroke-width=".5" x="0" y="0" width="60" height="60"/>
  <use id="zoomplus" xlink:href="#zoomPlus" x="17" y="9" onmousedown="handleZoom(evt,'in')"/>
  <use id="zoomminus" xlink:href="#zoomMin" x="42" y="9" onmousedown="handleZoom(evt,'out')"/>
  <use id="reset" xlink:href="#resetDef" x="30" y="36" onmousedown="handleReset()"/>
   <use id="arrowup" xlink:href="#arrowUp" x="0" y="0" onmousedown="handlePan(0,-1)"/>
  <use id="arrowright" xlink:href="#arrowRight" x="0" y="0" onmousedown="handlePan(1,0)"/>
  <use id="arrowdown" xlink:href="#arrowDown" x="0" y="0" onmousedown="handlePan(0,1)"/>
  <use id="arrowleft" xlink:href="#arrowLeft" x="0" y="0" onmousedown="handlePan(-1,0)"/>
</g>
<svg viewBox="0 0 15 15" width="100%" height="30px" preserveAspectRatio="xMaxYMin meet">
 <g id="arrow_out" transform="scale(0.3 0.3)">
  <a xlink:href="core_8hpp__incl_org.svg" target="_base">
   <rect id="button" ry="5" rx="5" y="6" x="6" height="38" width="38"
        fill="#f2f5e9" fill-opacity="0.5" stroke="#606060" stroke-width="1.0"/>
   <path id="arrow"
     d="M 11.500037,31.436501 C 11.940474,20.09759 22.043105,11.32322 32.158766,21.979434 L 37.068811,17.246167 C 37.068811,17.246167 37.088388,32 37.088388,32 L 22.160133,31.978069 C 22.160133,31.978069 26.997745,27.140456 26.997745,27.140456 C 18.528582,18.264221 13.291696,25.230495 11.500037,31.436501 z"
     style="fill:#404040;"/>
  </a>
 </g>
</svg>

<style type='text/css'>
<![CDATA[
[data-mouse-over-selected='false'] { opacity: 0.7; }
[data-mouse-over-selected='true']  { opacity: 1.0; }
]]>
</style>
<script type="application/ecmascript"><![CDATA[
document.addEventListener('DOMContentLoaded', (event) => {
  highlightEdges();
  highlightAdjacentNodes();
});
]]></script>
</svg>
