<?xml version="1.0" encoding="UTF-8" standalone="no"?>
<!DOCTYPE svg PUBLIC "-//W3C//DTD SVG 1.1//EN"
 "http://www.w3.org/Graphics/SVG/1.1/DTD/svg11.dtd">
<!-- Generated by graphviz version 3.0.0 (20220413.0242)
 -->
<!-- Title: include/yaclib/async/detail/core.hpp Pages: 1 -->
<svg width="1238pt" height="486pt"
 viewBox="0.00 0.00 1238.19 486.00" xmlns="http://www.w3.org/2000/svg" xmlns:xlink="http://www.w3.org/1999/xlink">
<g id="graph0" class="graph" transform="scale(1 1) rotate(0) translate(4 482)">
<title>include/yaclib/async/detail/core.hpp</title>
<!-- Node1 -->
<g id="node1" class="node">
<title>Node1</title>
<g id="a_node1"><a xlink:title=" ">
<polygon fill="#bfbfbf" stroke="black" points="869.69,-447.5 869.69,-477.5 973.69,-477.5 973.69,-447.5 869.69,-447.5"/>
<text text-anchor="start" x="877.69" y="-465.5" font-family="Helvetica,sans-Serif" font-size="10.00">include/yaclib/async</text>
<text text-anchor="middle" x="921.69" y="-454.5" font-family="Helvetica,sans-Serif" font-size="10.00">/detail/core.hpp</text>
</a>
</g>
</g>
<!-- Node2 -->
<g id="node2" class="node">
<title>Node2</title>
<g id="a_node2"><a xlink:href="unique__counter_8hpp.html" target="_top" xlink:title=" ">
<polygon fill="none" stroke="black" points="999.69,-380.5 999.69,-410.5 1103.69,-410.5 1103.69,-380.5 999.69,-380.5"/>
<text text-anchor="start" x="1007.69" y="-398.5" font-family="Helvetica,sans-Serif" font-size="10.00">yaclib/util/detail</text>
<text text-anchor="middle" x="1051.69" y="-387.5" font-family="Helvetica,sans-Serif" font-size="10.00">/unique_counter.hpp</text>
</a>
</g>
</g>
<!-- Node1&#45;&gt;Node2 -->
<g id="edge1" class="edge">
<title>Node1&#45;&gt;Node2</title>
<path fill="none" stroke="midnightblue" d="M949.89,-447.4C968.8,-437.94 993.91,-425.39 1014.45,-415.12"/>
<polygon fill="midnightblue" stroke="midnightblue" points="1016.15,-418.18 1023.53,-410.58 1013.02,-411.92 1016.15,-418.18"/>
</g>
<!-- Node4 -->
<g id="node4" class="node">
<title>Node4</title>
<g id="a_node4"><a xlink:href="result__core_8hpp.html" target="_top" xlink:title=" ">
<polygon fill="none" stroke="black" points="655.69,-380.5 655.69,-410.5 751.69,-410.5 751.69,-380.5 655.69,-380.5"/>
<text text-anchor="start" x="663.69" y="-398.5" font-family="Helvetica,sans-Serif" font-size="10.00">yaclib/async/detail</text>
<text text-anchor="middle" x="703.69" y="-387.5" font-family="Helvetica,sans-Serif" font-size="10.00">/result_core.hpp</text>
</a>
</g>
</g>
<!-- Node1&#45;&gt;Node4 -->
<g id="edge3" class="edge">
<title>Node1&#45;&gt;Node4</title>
<path fill="none" stroke="midnightblue" d="M874.65,-447.48C841.24,-437.51 796.21,-424.09 760.74,-413.51"/>
<polygon fill="midnightblue" stroke="midnightblue" points="761.6,-410.11 751.01,-410.61 759.59,-416.82 761.6,-410.11"/>
</g>
<!-- Node14 -->
<g id="node14" class="node">
<title>Node14</title>
<g id="a_node14"><a xlink:title=" ">
<polygon fill="none" stroke="#bfbfbf" points="807.69,-252 807.69,-271 895.69,-271 895.69,-252 807.69,-252"/>
<text text-anchor="middle" x="851.69" y="-259" font-family="Helvetica,sans-Serif" font-size="10.00">yaclib/config.hpp</text>
</a>
</g>
</g>
<!-- Node1&#45;&gt;Node14 -->
<g id="edge38" class="edge">
<title>Node1&#45;&gt;Node14</title>
<path fill="none" stroke="midnightblue" d="M916.65,-447.19C904.22,-411.83 872.05,-320.39 858.19,-281"/>
<polygon fill="midnightblue" stroke="midnightblue" points="861.42,-279.63 854.8,-271.36 854.82,-281.95 861.42,-279.63"/>
</g>
<!-- Node27 -->
<g id="node27" class="node">
<title>Node27</title>
<g id="a_node27"><a xlink:href="atomic__counter_8hpp.html" target="_top" xlink:title=" ">
<polygon fill="none" stroke="black" points="942.69,-313.5 942.69,-343.5 1046.69,-343.5 1046.69,-313.5 942.69,-313.5"/>
<text text-anchor="start" x="950.69" y="-331.5" font-family="Helvetica,sans-Serif" font-size="10.00">yaclib/util/detail</text>
<text text-anchor="middle" x="994.69" y="-320.5" font-family="Helvetica,sans-Serif" font-size="10.00">/atomic_counter.hpp</text>
</a>
</g>
</g>
<!-- Node1&#45;&gt;Node27 -->
<g id="edge39" class="edge">
<title>Node1&#45;&gt;Node27</title>
<path fill="none" stroke="midnightblue" d="M929.5,-447.37C942.07,-424.65 966.9,-379.75 982.02,-352.4"/>
<polygon fill="midnightblue" stroke="midnightblue" points="985.15,-353.97 986.93,-343.52 979.03,-350.58 985.15,-353.97"/>
</g>
<!-- Node3 -->
<g id="node3" class="node">
<title>Node3</title>
<g id="a_node3"><a xlink:href="default__deleter_8hpp.html" target="_top" xlink:title=" ">
<polygon fill="none" stroke="black" points="1129.19,-246.5 1129.19,-276.5 1230.19,-276.5 1230.19,-246.5 1129.19,-246.5"/>
<text text-anchor="start" x="1137.19" y="-264.5" font-family="Helvetica,sans-Serif" font-size="10.00">yaclib/util/detail</text>
<text text-anchor="middle" x="1179.69" y="-253.5" font-family="Helvetica,sans-Serif" font-size="10.00">/default_deleter.hpp</text>
</a>
</g>
</g>
<!-- Node2&#45;&gt;Node3 -->
<g id="edge2" class="edge">
<title>Node2&#45;&gt;Node3</title>
<path fill="none" stroke="midnightblue" d="M1065.38,-380.37C1087.81,-357.25 1132.48,-311.18 1158.85,-283.99"/>
<polygon fill="midnightblue" stroke="midnightblue" points="1161.64,-286.14 1166.09,-276.52 1156.61,-281.27 1161.64,-286.14"/>
</g>
<!-- Node5 -->
<g id="node5" class="node">
<title>Node5</title>
<g id="a_node5"><a xlink:href="base__core_8hpp.html" target="_top" xlink:title=" ">
<polygon fill="none" stroke="black" points="693.69,-313.5 693.69,-343.5 789.69,-343.5 789.69,-313.5 693.69,-313.5"/>
<text text-anchor="start" x="701.69" y="-331.5" font-family="Helvetica,sans-Serif" font-size="10.00">yaclib/async/detail</text>
<text text-anchor="middle" x="741.69" y="-320.5" font-family="Helvetica,sans-Serif" font-size="10.00">/base_core.hpp</text>
</a>
</g>
</g>
<!-- Node4&#45;&gt;Node5 -->
<g id="edge4" class="edge">
<title>Node4&#45;&gt;Node5</title>
<path fill="none" stroke="midnightblue" d="M711.93,-380.4C716.71,-372.22 722.85,-361.73 728.3,-352.39"/>
<polygon fill="midnightblue" stroke="midnightblue" points="731.43,-353.98 733.46,-343.58 725.39,-350.44 731.43,-353.98"/>
</g>
<!-- Node6 -->
<g id="node6" class="node">
<title>Node6</title>
<g id="a_node6"><a xlink:href="inline__core_8hpp.html" target="_top" xlink:title=" ">
<polygon fill="none" stroke="black" points="693.69,-246.5 693.69,-276.5 789.69,-276.5 789.69,-246.5 693.69,-246.5"/>
<text text-anchor="start" x="701.69" y="-264.5" font-family="Helvetica,sans-Serif" font-size="10.00">yaclib/async/detail</text>
<text text-anchor="middle" x="741.69" y="-253.5" font-family="Helvetica,sans-Serif" font-size="10.00">/inline_core.hpp</text>
</a>
</g>
</g>
<!-- Node4&#45;&gt;Node6 -->
<g id="edge25" class="edge">
<title>Node4&#45;&gt;Node6</title>
<path fill="none" stroke="midnightblue" d="M751.81,-380.72C769.76,-372.98 788.3,-361.29 798.69,-344 805.78,-332.19 804.34,-325.56 798.69,-313 793.34,-301.13 783.68,-290.92 773.81,-282.85"/>
<polygon fill="midnightblue" stroke="midnightblue" points="775.65,-279.85 765.56,-276.59 771.41,-285.43 775.65,-279.85"/>
</g>
<!-- Node12 -->
<g id="node12" class="node">
<title>Node12</title>
<g id="a_node12"><a xlink:title=" ">
<polygon fill="none" stroke="#bfbfbf" points="705.19,-56.5 705.19,-75.5 744.19,-75.5 744.19,-56.5 705.19,-56.5"/>
<text text-anchor="middle" x="724.69" y="-63.5" font-family="Helvetica,sans-Serif" font-size="10.00">utility</text>
</a>
</g>
</g>
<!-- Node4&#45;&gt;Node12 -->
<g id="edge37" class="edge">
<title>Node4&#45;&gt;Node12</title>
<path fill="none" stroke="midnightblue" d="M696.77,-380.31C692.34,-370.4 687,-356.72 684.69,-344 676.89,-301.15 679.91,-289.29 684.69,-246 688.14,-214.68 710.17,-124.79 719.98,-85.62"/>
<polygon fill="midnightblue" stroke="midnightblue" points="723.4,-86.36 722.45,-75.81 716.61,-84.65 723.4,-86.36"/>
</g>
<!-- Node16 -->
<g id="node16" class="node">
<title>Node16</title>
<g id="a_node16"><a xlink:href="intrusive__ptr_8hpp.html" target="_top" xlink:title=" ">
<polygon fill="none" stroke="black" points="344.19,-179.5 344.19,-209.5 441.19,-209.5 441.19,-179.5 344.19,-179.5"/>
<text text-anchor="start" x="352.19" y="-197.5" font-family="Helvetica,sans-Serif" font-size="10.00">yaclib/util/intrusive</text>
<text text-anchor="middle" x="392.69" y="-186.5" font-family="Helvetica,sans-Serif" font-size="10.00">_ptr.hpp</text>
</a>
</g>
</g>
<!-- Node4&#45;&gt;Node16 -->
<g id="edge26" class="edge">
<title>Node4&#45;&gt;Node16</title>
<path fill="none" stroke="midnightblue" d="M655.48,-387.19C592.64,-375.18 483.28,-345.37 419.69,-277 405.07,-261.29 398.36,-237.48 395.28,-219.65"/>
<polygon fill="midnightblue" stroke="midnightblue" points="398.73,-219.08 393.82,-209.69 391.81,-220.09 398.73,-219.08"/>
</g>
<!-- Node21 -->
<g id="node21" class="node">
<title>Node21</title>
<g id="a_node21"><a xlink:href="result_8hpp.html" target="_top" xlink:title=" ">
<polygon fill="none" stroke="black" points="196.69,-252 196.69,-271 298.69,-271 298.69,-252 196.69,-252"/>
<text text-anchor="middle" x="247.69" y="-259" font-family="Helvetica,sans-Serif" font-size="10.00">yaclib/util/result.hpp</text>
</a>
</g>
</g>
<!-- Node4&#45;&gt;Node21 -->
<g id="edge27" class="edge">
<title>Node4&#45;&gt;Node21</title>
<path fill="none" stroke="midnightblue" d="M655.63,-393.02C590.85,-389.69 472.77,-378.91 378.69,-344 335.07,-327.82 290.34,-296.08 266.09,-277.34"/>
<polygon fill="midnightblue" stroke="midnightblue" points="268.14,-274.51 258.11,-271.08 263.82,-280.01 268.14,-274.51"/>
</g>
<!-- Node5&#45;&gt;Node6 -->
<g id="edge5" class="edge">
<title>Node5&#45;&gt;Node6</title>
<path fill="none" stroke="midnightblue" d="M741.69,-313.4C741.69,-305.64 741.69,-295.81 741.69,-286.86"/>
<polygon fill="midnightblue" stroke="midnightblue" points="745.19,-286.58 741.69,-276.58 738.19,-286.58 745.19,-286.58"/>
</g>
<!-- Node10 -->
<g id="node10" class="node">
<title>Node10</title>
<g id="a_node10"><a xlink:href="ref_8hpp.html" target="_top" xlink:title=" ">
<polygon fill="none" stroke="black" points="425.19,-56.5 425.19,-75.5 514.19,-75.5 514.19,-56.5 425.19,-56.5"/>
<text text-anchor="middle" x="469.69" y="-63.5" font-family="Helvetica,sans-Serif" font-size="10.00">yaclib/util/ref.hpp</text>
</a>
</g>
</g>
<!-- Node5&#45;&gt;Node10 -->
<g id="edge23" class="edge">
<title>Node5&#45;&gt;Node10</title>
<path fill="none" stroke="midnightblue" d="M693.51,-324.59C627.87,-319.56 515.4,-306.73 488.69,-277 439.93,-222.74 455.56,-125.72 464.89,-85.38"/>
<polygon fill="midnightblue" stroke="midnightblue" points="468.31,-86.13 467.29,-75.58 461.51,-84.46 468.31,-86.13"/>
</g>
<!-- Node5&#45;&gt;Node14 -->
<g id="edge13" class="edge">
<title>Node5&#45;&gt;Node14</title>
<path fill="none" stroke="midnightblue" d="M765.55,-313.4C784.26,-302.34 810.12,-287.06 828.62,-276.13"/>
<polygon fill="midnightblue" stroke="midnightblue" points="830.46,-279.11 837.29,-271.01 826.9,-273.08 830.46,-279.11"/>
</g>
<!-- Node15 -->
<g id="node15" class="node">
<title>Node15</title>
<g id="a_node15"><a xlink:href="executor_8hpp.html" target="_top" xlink:title=" ">
<polygon fill="none" stroke="black" points="498.19,-252 498.19,-271 637.19,-271 637.19,-252 498.19,-252"/>
<text text-anchor="middle" x="567.69" y="-259" font-family="Helvetica,sans-Serif" font-size="10.00">yaclib/executor/executor.hpp</text>
</a>
</g>
</g>
<!-- Node5&#45;&gt;Node15 -->
<g id="edge14" class="edge">
<title>Node5&#45;&gt;Node15</title>
<path fill="none" stroke="midnightblue" d="M703.93,-313.4C672.86,-301.79 629.29,-285.51 599.86,-274.52"/>
<polygon fill="midnightblue" stroke="midnightblue" points="601.05,-271.23 590.46,-271.01 598.6,-277.79 601.05,-271.23"/>
</g>
<!-- Node5&#45;&gt;Node16 -->
<g id="edge22" class="edge">
<title>Node5&#45;&gt;Node16</title>
<path fill="none" stroke="midnightblue" d="M693.65,-323.23C622.94,-316.25 494.95,-300.74 455.69,-277 432.64,-263.07 414.91,-237.33 404.22,-218.5"/>
<polygon fill="midnightblue" stroke="midnightblue" points="407.25,-216.75 399.41,-209.63 401.1,-220.09 407.25,-216.75"/>
</g>
<!-- Node20 -->
<g id="node20" class="node">
<title>Node20</title>
<g id="a_node20"><a xlink:title=" ">
<polygon fill="none" stroke="#bfbfbf" points="913.69,-252 913.69,-271 1005.69,-271 1005.69,-252 913.69,-252"/>
<text text-anchor="middle" x="959.69" y="-259" font-family="Helvetica,sans-Serif" font-size="10.00">yaclib_std/atomic</text>
</a>
</g>
</g>
<!-- Node5&#45;&gt;Node20 -->
<g id="edge24" class="edge">
<title>Node5&#45;&gt;Node20</title>
<path fill="none" stroke="midnightblue" d="M788.72,-313.48C828.31,-301.67 884.22,-285 921.19,-273.98"/>
<polygon fill="midnightblue" stroke="midnightblue" points="922.5,-277.24 931.08,-271.03 920.5,-270.53 922.5,-277.24"/>
</g>
<!-- Node7 -->
<g id="node7" class="node">
<title>Node7</title>
<g id="a_node7"><a xlink:href="job_8hpp.html" target="_top" xlink:title=" ">
<polygon fill="none" stroke="black" points="522.19,-185 522.19,-204 637.19,-204 637.19,-185 522.19,-185"/>
<text text-anchor="middle" x="579.69" y="-192" font-family="Helvetica,sans-Serif" font-size="10.00">yaclib/executor/job.hpp</text>
</a>
</g>
</g>
<!-- Node6&#45;&gt;Node7 -->
<g id="edge6" class="edge">
<title>Node6&#45;&gt;Node7</title>
<path fill="none" stroke="midnightblue" d="M706.53,-246.4C677.86,-234.89 637.75,-218.8 610.36,-207.81"/>
<polygon fill="midnightblue" stroke="midnightblue" points="611.47,-204.48 600.89,-204.01 608.87,-210.98 611.47,-204.48"/>
</g>
<!-- Node13 -->
<g id="node13" class="node">
<title>Node13</title>
<g id="a_node13"><a xlink:title=" ">
<polygon fill="none" stroke="#bfbfbf" points="718.69,-185 718.69,-204 764.69,-204 764.69,-185 718.69,-185"/>
<text text-anchor="middle" x="741.69" y="-192" font-family="Helvetica,sans-Serif" font-size="10.00">cstdint</text>
</a>
</g>
</g>
<!-- Node6&#45;&gt;Node13 -->
<g id="edge12" class="edge">
<title>Node6&#45;&gt;Node13</title>
<path fill="none" stroke="midnightblue" d="M741.69,-246.4C741.69,-237.06 741.69,-224.71 741.69,-214.52"/>
<polygon fill="midnightblue" stroke="midnightblue" points="745.19,-214.19 741.69,-204.19 738.19,-214.19 745.19,-214.19"/>
</g>
<!-- Node8 -->
<g id="node8" class="node">
<title>Node8</title>
<g id="a_node8"><a xlink:href="node_8hpp.html" target="_top" xlink:title=" ">
<polygon fill="none" stroke="black" points="613.19,-112.5 613.19,-142.5 696.19,-142.5 696.19,-112.5 613.19,-112.5"/>
<text text-anchor="start" x="621.19" y="-130.5" font-family="Helvetica,sans-Serif" font-size="10.00">yaclib/util/detail</text>
<text text-anchor="middle" x="654.69" y="-119.5" font-family="Helvetica,sans-Serif" font-size="10.00">/node.hpp</text>
</a>
</g>
</g>
<!-- Node7&#45;&gt;Node8 -->
<g id="edge7" class="edge">
<title>Node7&#45;&gt;Node8</title>
<path fill="none" stroke="midnightblue" d="M589.8,-184.73C600.23,-175.7 616.87,-161.27 630.69,-149.3"/>
<polygon fill="midnightblue" stroke="midnightblue" points="633.16,-151.78 638.43,-142.59 628.58,-146.49 633.16,-151.78"/>
</g>
<!-- Node9 -->
<g id="node9" class="node">
<title>Node9</title>
<g id="a_node9"><a xlink:href="func_8hpp.html" target="_top" xlink:title=" ">
<polygon fill="none" stroke="black" points="498.19,-118 498.19,-137 595.19,-137 595.19,-118 498.19,-118"/>
<text text-anchor="middle" x="546.69" y="-125" font-family="Helvetica,sans-Serif" font-size="10.00">yaclib/util/func.hpp</text>
</a>
</g>
</g>
<!-- Node7&#45;&gt;Node9 -->
<g id="edge8" class="edge">
<title>Node7&#45;&gt;Node9</title>
<path fill="none" stroke="midnightblue" d="M575.24,-184.73C570.24,-174.89 562,-158.66 555.65,-146.16"/>
<polygon fill="midnightblue" stroke="midnightblue" points="558.71,-144.46 551.07,-137.13 552.47,-147.63 558.71,-144.46"/>
</g>
<!-- Node9&#45;&gt;Node10 -->
<g id="edge9" class="edge">
<title>Node9&#45;&gt;Node10</title>
<path fill="none" stroke="midnightblue" d="M535.65,-117.98C523.42,-108.52 503.46,-93.1 488.69,-81.69"/>
<polygon fill="midnightblue" stroke="midnightblue" points="490.75,-78.85 480.7,-75.51 486.47,-84.39 490.75,-78.85"/>
</g>
<!-- Node11 -->
<g id="node11" class="node">
<title>Node11</title>
<g id="a_node11"><a xlink:title=" ">
<polygon fill="none" stroke="#bfbfbf" points="138.69,-56.5 138.69,-75.5 200.69,-75.5 200.69,-56.5 138.69,-56.5"/>
<text text-anchor="middle" x="169.69" y="-63.5" font-family="Helvetica,sans-Serif" font-size="10.00">type_traits</text>
</a>
</g>
</g>
<!-- Node9&#45;&gt;Node11 -->
<g id="edge10" class="edge">
<title>Node9&#45;&gt;Node11</title>
<path fill="none" stroke="midnightblue" d="M498.17,-118.84C423.36,-107.04 281.15,-84.59 210.97,-73.52"/>
<polygon fill="midnightblue" stroke="midnightblue" points="211.17,-70 200.75,-71.9 210.08,-76.92 211.17,-70"/>
</g>
<!-- Node9&#45;&gt;Node12 -->
<g id="edge11" class="edge">
<title>Node9&#45;&gt;Node12</title>
<path fill="none" stroke="midnightblue" d="M572.19,-117.98C604.68,-107.11 660.74,-88.37 695.09,-76.89"/>
<polygon fill="midnightblue" stroke="midnightblue" points="696.62,-80.07 705,-73.58 694.4,-73.43 696.62,-80.07"/>
</g>
<!-- Node15&#45;&gt;Node7 -->
<g id="edge15" class="edge">
<title>Node15&#45;&gt;Node7</title>
<path fill="none" stroke="midnightblue" d="M569.3,-251.73C571.07,-242.18 573.94,-226.62 576.22,-214.28"/>
<polygon fill="midnightblue" stroke="midnightblue" points="579.72,-214.6 578.09,-204.13 572.84,-213.33 579.72,-214.6"/>
</g>
<!-- Node15&#45;&gt;Node16 -->
<g id="edge16" class="edge">
<title>Node15&#45;&gt;Node16</title>
<path fill="none" stroke="midnightblue" d="M544.45,-251.87C517.96,-242.03 473.97,-225.69 440.15,-213.13"/>
<polygon fill="midnightblue" stroke="midnightblue" points="441.05,-209.73 430.45,-209.53 438.61,-216.29 441.05,-209.73"/>
</g>
<!-- Node16&#45;&gt;Node10 -->
<g id="edge17" class="edge">
<title>Node16&#45;&gt;Node10</title>
<path fill="none" stroke="midnightblue" d="M401.22,-179.48C415.39,-156.21 443.72,-109.66 459.12,-84.36"/>
<polygon fill="midnightblue" stroke="midnightblue" points="462.13,-86.15 464.34,-75.79 456.15,-82.51 462.13,-86.15"/>
</g>
<!-- Node16&#45;&gt;Node11 -->
<g id="edge18" class="edge">
<title>Node16&#45;&gt;Node11</title>
<path fill="none" stroke="midnightblue" d="M355.14,-179.44C332.78,-170.38 304.27,-157.59 280.69,-143 262.15,-131.53 260.45,-124.64 242.69,-112 226.86,-100.74 208.21,-89.28 193.73,-80.73"/>
<polygon fill="midnightblue" stroke="midnightblue" points="195.28,-77.59 184.88,-75.58 191.75,-83.64 195.28,-77.59"/>
</g>
<!-- Node17 -->
<g id="node17" class="node">
<title>Node17</title>
<g id="a_node17"><a xlink:href="intrusive__ptr__impl_8hpp.html" target="_top" xlink:title=" ">
<polygon fill="none" stroke="black" points="289.69,-112.5 289.69,-142.5 403.69,-142.5 403.69,-112.5 289.69,-112.5"/>
<text text-anchor="start" x="297.69" y="-130.5" font-family="Helvetica,sans-Serif" font-size="10.00">yaclib/util/detail</text>
<text text-anchor="middle" x="346.69" y="-119.5" font-family="Helvetica,sans-Serif" font-size="10.00">/intrusive_ptr_impl.hpp</text>
</a>
</g>
</g>
<!-- Node16&#45;&gt;Node17 -->
<g id="edge19" class="edge">
<title>Node16&#45;&gt;Node17</title>
<path fill="none" stroke="midnightblue" d="M382.7,-179.4C376.8,-171.05 369.18,-160.29 362.48,-150.81"/>
<polygon fill="midnightblue" stroke="midnightblue" points="365.28,-148.72 356.65,-142.58 359.57,-152.76 365.28,-148.72"/>
</g>
<!-- Node18 -->
<g id="node18" class="node">
<title>Node18</title>
<g id="a_node18"><a xlink:href="log_8hpp.html" target="_top" xlink:title=" ">
<polygon fill="none" stroke="black" points="309.19,-56.5 309.19,-75.5 384.19,-75.5 384.19,-56.5 309.19,-56.5"/>
<text text-anchor="middle" x="346.69" y="-63.5" font-family="Helvetica,sans-Serif" font-size="10.00">yaclib/log.hpp</text>
</a>
</g>
</g>
<!-- Node17&#45;&gt;Node18 -->
<g id="edge20" class="edge">
<title>Node17&#45;&gt;Node18</title>
<path fill="none" stroke="midnightblue" d="M346.69,-112.4C346.69,-104.47 346.69,-94.46 346.69,-85.86"/>
<polygon fill="midnightblue" stroke="midnightblue" points="350.19,-85.66 346.69,-75.66 343.19,-85.66 350.19,-85.66"/>
</g>
<!-- Node19 -->
<g id="node19" class="node">
<title>Node19</title>
<g id="a_node19"><a xlink:title=" ">
<polygon fill="none" stroke="#bfbfbf" points="313.69,-0.5 313.69,-19.5 379.69,-19.5 379.69,-0.5 313.69,-0.5"/>
<text text-anchor="middle" x="346.69" y="-7.5" font-family="Helvetica,sans-Serif" font-size="10.00">string_view</text>
</a>
</g>
</g>
<!-- Node18&#45;&gt;Node19 -->
<g id="edge21" class="edge">
<title>Node18&#45;&gt;Node19</title>
<path fill="none" stroke="midnightblue" d="M346.69,-56.08C346.69,-49.01 346.69,-38.86 346.69,-29.99"/>
<polygon fill="midnightblue" stroke="midnightblue" points="350.19,-29.75 346.69,-19.75 343.19,-29.75 350.19,-29.75"/>
</g>
<!-- Node22 -->
<g id="node22" class="node">
<title>Node22</title>
<g id="a_node22"><a xlink:href="type__traits_8hpp.html" target="_top" xlink:title=" ">
<polygon fill="none" stroke="black" points="70.19,-185 70.19,-204 193.19,-204 193.19,-185 70.19,-185"/>
<text text-anchor="middle" x="131.69" y="-192" font-family="Helvetica,sans-Serif" font-size="10.00">yaclib/util/type_traits.hpp</text>
</a>
</g>
</g>
<!-- Node21&#45;&gt;Node22 -->
<g id="edge28" class="edge">
<title>Node21&#45;&gt;Node22</title>
<path fill="none" stroke="midnightblue" d="M232.04,-251.73C212.47,-240.77 178.77,-221.88 155.87,-209.05"/>
<polygon fill="midnightblue" stroke="midnightblue" points="157.52,-205.96 147.08,-204.13 154.1,-212.07 157.52,-205.96"/>
</g>
<!-- Node25 -->
<g id="node25" class="node">
<title>Node25</title>
<g id="a_node25"><a xlink:title=" ">
<polygon fill="none" stroke="#bfbfbf" points="175.69,-118 175.69,-137 233.69,-137 233.69,-118 175.69,-118"/>
<text text-anchor="middle" x="204.69" y="-125" font-family="Helvetica,sans-Serif" font-size="10.00">exception</text>
</a>
</g>
</g>
<!-- Node21&#45;&gt;Node25 -->
<g id="edge35" class="edge">
<title>Node21&#45;&gt;Node25</title>
<path fill="none" stroke="midnightblue" d="M244.86,-251.84C237.94,-230.58 219.98,-175.46 210.6,-146.65"/>
<polygon fill="midnightblue" stroke="midnightblue" points="213.89,-145.45 207.46,-137.02 207.23,-147.61 213.89,-145.45"/>
</g>
<!-- Node26 -->
<g id="node26" class="node">
<title>Node26</title>
<g id="a_node26"><a xlink:title=" ">
<polygon fill="none" stroke="#bfbfbf" points="249.69,-185 249.69,-204 295.69,-204 295.69,-185 249.69,-185"/>
<text text-anchor="middle" x="272.69" y="-192" font-family="Helvetica,sans-Serif" font-size="10.00">variant</text>
</a>
</g>
</g>
<!-- Node21&#45;&gt;Node26 -->
<g id="edge36" class="edge">
<title>Node21&#45;&gt;Node26</title>
<path fill="none" stroke="midnightblue" d="M251.06,-251.73C254.81,-241.99 260.96,-225.98 265.75,-213.53"/>
<polygon fill="midnightblue" stroke="midnightblue" points="269.04,-214.72 269.37,-204.13 262.51,-212.2 269.04,-214.72"/>
</g>
<!-- Node22&#45;&gt;Node11 -->
<g id="edge34" class="edge">
<title>Node22&#45;&gt;Node11</title>
<path fill="none" stroke="midnightblue" d="M134.3,-184.81C140.43,-164.4 155.84,-113.1 164.16,-85.41"/>
<polygon fill="midnightblue" stroke="midnightblue" points="167.53,-86.34 167.06,-75.76 160.83,-84.33 167.53,-86.34"/>
</g>
<!-- Node23 -->
<g id="node23" class="node">
<title>Node23</title>
<g id="a_node23"><a xlink:href="fwd_8hpp.html" target="_top" xlink:title=" ">
<polygon fill="none" stroke="black" points="5.69,-56.5 5.69,-75.5 83.69,-75.5 83.69,-56.5 5.69,-56.5"/>
<text text-anchor="middle" x="44.69" y="-63.5" font-family="Helvetica,sans-Serif" font-size="10.00">yaclib/fwd.hpp</text>
</a>
</g>
</g>
<!-- Node22&#45;&gt;Node23 -->
<g id="edge29" class="edge">
<title>Node22&#45;&gt;Node23</title>
<path fill="none" stroke="midnightblue" d="M72.49,-184.97C47.19,-178.06 20.01,-165.58 4.69,-143 -8.77,-123.17 10.43,-98.29 26.59,-82.51"/>
<polygon fill="midnightblue" stroke="midnightblue" points="29.15,-84.91 34.12,-75.56 24.4,-79.77 29.15,-84.91"/>
</g>
<!-- Node24 -->
<g id="node24" class="node">
<title>Node24</title>
<g id="a_node24"><a xlink:href="type__traits__impl_8hpp.html" target="_top" xlink:title=" ">
<polygon fill="none" stroke="black" points="13.69,-112.5 13.69,-142.5 119.69,-142.5 119.69,-112.5 13.69,-112.5"/>
<text text-anchor="start" x="21.69" y="-130.5" font-family="Helvetica,sans-Serif" font-size="10.00">yaclib/util/detail</text>
<text text-anchor="middle" x="66.69" y="-119.5" font-family="Helvetica,sans-Serif" font-size="10.00">/type_traits_impl.hpp</text>
</a>
</g>
</g>
<!-- Node22&#45;&gt;Node24 -->
<g id="edge30" class="edge">
<title>Node22&#45;&gt;Node24</title>
<path fill="none" stroke="midnightblue" d="M122.92,-184.73C114.05,-175.86 100,-161.81 88.16,-149.97"/>
<polygon fill="midnightblue" stroke="midnightblue" points="90.32,-147.19 80.77,-142.59 85.37,-152.13 90.32,-147.19"/>
</g>
<!-- Node22&#45;&gt;Node25 -->
<g id="edge33" class="edge">
<title>Node22&#45;&gt;Node25</title>
<path fill="none" stroke="midnightblue" d="M141.53,-184.73C153.24,-174.31 173.01,-156.71 187.31,-143.97"/>
<polygon fill="midnightblue" stroke="midnightblue" points="189.86,-146.39 195,-137.13 185.2,-141.16 189.86,-146.39"/>
</g>
<!-- Node24&#45;&gt;Node11 -->
<g id="edge32" class="edge">
<title>Node24&#45;&gt;Node11</title>
<path fill="none" stroke="midnightblue" d="M91.1,-112.4C107.61,-102.86 129.31,-90.32 145.72,-80.84"/>
<polygon fill="midnightblue" stroke="midnightblue" points="147.79,-83.69 154.7,-75.66 144.29,-77.63 147.79,-83.69"/>
</g>
<!-- Node24&#45;&gt;Node23 -->
<g id="edge31" class="edge">
<title>Node24&#45;&gt;Node23</title>
<path fill="none" stroke="midnightblue" d="M61.47,-112.4C58.47,-104.29 54.67,-94.01 51.45,-85.28"/>
<polygon fill="midnightblue" stroke="midnightblue" points="54.64,-83.82 47.89,-75.66 48.07,-86.25 54.64,-83.82"/>
</g>
<!-- Node27&#45;&gt;Node3 -->
<g id="edge41" class="edge">
<title>Node27&#45;&gt;Node3</title>
<path fill="none" stroke="midnightblue" d="M1034.83,-313.4C1062.71,-303.6 1100.05,-290.48 1129.83,-280.02"/>
<polygon fill="midnightblue" stroke="midnightblue" points="1131.35,-283.19 1139.62,-276.58 1129.03,-276.59 1131.35,-283.19"/>
</g>
<!-- Node27&#45;&gt;Node12 -->
<g id="edge43" class="edge">
<title>Node27&#45;&gt;Node12</title>
<path fill="none" stroke="midnightblue" d="M1004.03,-313.41C1013.97,-296.47 1026.75,-267.63 1014.69,-246 957.73,-143.92 815.96,-92.79 754.21,-74.76"/>
<polygon fill="midnightblue" stroke="midnightblue" points="754.9,-71.32 744.33,-71.97 753,-78.06 754.9,-71.32"/>
</g>
<!-- Node27&#45;&gt;Node14 -->
<g id="edge40" class="edge">
<title>Node27&#45;&gt;Node14</title>
<path fill="none" stroke="midnightblue" d="M963.66,-313.4C938.68,-302.04 903.87,-286.22 879.72,-275.24"/>
<polygon fill="midnightblue" stroke="midnightblue" points="880.95,-271.96 870.4,-271.01 878.06,-278.33 880.95,-271.96"/>
</g>
<!-- Node27&#45;&gt;Node20 -->
<g id="edge44" class="edge">
<title>Node27&#45;&gt;Node20</title>
<path fill="none" stroke="midnightblue" d="M987.09,-313.4C981.85,-303.66 974.84,-290.65 969.22,-280.21"/>
<polygon fill="midnightblue" stroke="midnightblue" points="972.19,-278.34 964.37,-271.19 966.03,-281.66 972.19,-278.34"/>
</g>
<!-- Node28 -->
<g id="node28" class="node">
<title>Node28</title>
<g id="a_node28"><a xlink:title=" ">
<polygon fill="none" stroke="#bfbfbf" points="1062.19,-252 1062.19,-271 1111.19,-271 1111.19,-252 1062.19,-252"/>
<text text-anchor="middle" x="1086.69" y="-259" font-family="Helvetica,sans-Serif" font-size="10.00">cstddef</text>
</a>
</g>
</g>
<!-- Node27&#45;&gt;Node28 -->
<g id="edge42" class="edge">
<title>Node27&#45;&gt;Node28</title>
<path fill="none" stroke="midnightblue" d="M1014.65,-313.4C1029.93,-302.6 1050.94,-287.76 1066.32,-276.89"/>
<polygon fill="midnightblue" stroke="midnightblue" points="1068.5,-279.64 1074.65,-271.01 1064.46,-273.92 1068.5,-279.64"/>
</g>
</g>
</svg>
