<?xml version="1.0" encoding="UTF-8" standalone="no"?>
<!DOCTYPE svg PUBLIC "-//W3C//DTD SVG 1.1//EN"
 "http://www.w3.org/Graphics/SVG/1.1/DTD/svg11.dtd">
<!-- Generated by graphviz version 3.0.0 (20221109.1736)
 -->
<!-- Title: include/yaclib/coro/shared_mutex.hpp Pages: 1 -->
<!--zoomable 609 -->
<svg id="main" version="1.1" xmlns="http://www.w3.org/2000/svg" xmlns:xlink="http://www.w3.org/1999/xlink" xml:space="preserve" onload="init(evt)">
<style type="text/css"><![CDATA[
.edge:hover path { stroke: red; }
.edge:hover polygon { stroke: red; fill: red; }
]]></style>
<script type="text/javascript"><![CDATA[
var edges = document.getElementsByTagName('g');
if (edges && edges.length) {
  for (var i=0;i<edges.length;i++) {
    if (edges[i].id.substr(0,4)=='edge') {
      edges[i].setAttribute('class','edge');
    }
  }
}
]]></script>
        <defs>
                <circle id="rim" cx="0" cy="0" r="7"/>
                <circle id="rim2" cx="0" cy="0" r="3.5"/>
                <g id="zoomPlus">
                        <use xlink:href="#rim" fill="#404040">
                                <set attributeName="fill" to="#808080" begin="zoomplus.mouseover" end="zoomplus.mouseout"/>
                        </use>
                        <path d="M-4,0h8M0,-4v8" fill="none" stroke="white" stroke-width="1.5" pointer-events="none"/>
                </g>
                <g id="zoomMin">
                        <use xlink:href="#rim" fill="#404040">
                                <set attributeName="fill" to="#808080" begin="zoomminus.mouseover" end="zoomminus.mouseout"/>
                        </use>
                        <path d="M-4,0h8" fill="none" stroke="white" stroke-width="1.5" pointer-events="none"/>
                </g>
                <g id="dirArrow">
                        <path fill="none" stroke="white" stroke-width="1.5" d="M0,-3.0v7 M-2.5,-0.5L0,-3.0L2.5,-0.5"/>
                </g>
               <g id="resetDef">
                       <use xlink:href="#rim2" fill="#404040">
                               <set attributeName="fill" to="#808080" begin="reset.mouseover" end="reset.mouseout"/>
                       </use>
               </g>
        </defs>

<script type="text/javascript">
var viewWidth = 1207;
var viewHeight = 609;
var sectionId = 'dynsection-0';
</script>
<script xlink:href="svgpan.js"/>
<svg id="graph" class="graph">
<g id="viewport">
<title>include/yaclib/coro/shared_mutex.hpp</title>
<!-- Node1 -->
<g id="node1" class="node">
<title>Node1</title>
<g id="a_node1"><a xlink:title=" ">
<polygon fill="#bfbfbf" stroke="black" points="838,-570.5 838,-600.5 936,-600.5 936,-570.5 838,-570.5"/>
<text text-anchor="start" x="846" y="-588.5" font-family="Helvetica,sans-Serif" font-size="10.00">include/yaclib/coro</text>
<text text-anchor="middle" x="887" y="-577.5" font-family="Helvetica,sans-Serif" font-size="10.00">/shared_mutex.hpp</text>
</a>
</g>
</g>
<!-- Node2 -->
<g id="node2" class="node">
<title>Node2</title>
<g id="a_node2"><a xlink:href="coro_8hpp.html" target="_top" xlink:title=" ">
<polygon fill="none" stroke="black" points="32.5,-375 32.5,-394 135.5,-394 135.5,-375 32.5,-375"/>
<text text-anchor="middle" x="84" y="-382" font-family="Helvetica,sans-Serif" font-size="10.00">yaclib/coro/coro.hpp</text>
</a>
</g>
</g>
<!-- Node1&#45;&gt;Node2 -->
<g id="edge1" class="edge">
<title>Node1&#45;&gt;Node2</title>
<path fill="none" stroke="midnightblue" d="M837.8,-583.42C703.34,-580.06 332.01,-567.88 215,-534 154.08,-516.36 123.32,-520.34 89,-467 76.93,-448.23 77.81,-421.73 80.28,-404.1"/>
<polygon fill="midnightblue" stroke="midnightblue" points="83.74,-404.64 81.97,-394.19 76.84,-403.46 83.74,-404.64"/>
</g>
<!-- Node4 -->
<g id="node4" class="node">
<title>Node4</title>
<g id="a_node4"><a xlink:href="mutex__awaiter_8hpp.html" target="_top" xlink:title=" ">
<polygon fill="none" stroke="black" points="120.5,-436.5 120.5,-466.5 221.5,-466.5 221.5,-436.5 120.5,-436.5"/>
<text text-anchor="start" x="128.5" y="-454.5" font-family="Helvetica,sans-Serif" font-size="10.00">yaclib/coro/detail</text>
<text text-anchor="middle" x="171" y="-443.5" font-family="Helvetica,sans-Serif" font-size="10.00">/mutex_awaiter.hpp</text>
</a>
</g>
</g>
<!-- Node1&#45;&gt;Node4 -->
<g id="edge3" class="edge">
<title>Node1&#45;&gt;Node4</title>
<path fill="none" stroke="midnightblue" d="M837.61,-584.5C708.94,-583.87 366.24,-578 263,-534 232.6,-521.04 205.31,-493.94 188.49,-474.54"/>
<polygon fill="midnightblue" stroke="midnightblue" points="191.07,-472.16 181.95,-466.76 185.71,-476.67 191.07,-472.16"/>
</g>
<!-- Node6 -->
<g id="node6" class="node">
<title>Node6</title>
<g id="a_node6"><a xlink:href="promise__type_8hpp.html" target="_top" xlink:title=" ">
<polygon fill="none" stroke="black" points="272.5,-503.5 272.5,-533.5 367.5,-533.5 367.5,-503.5 272.5,-503.5"/>
<text text-anchor="start" x="280.5" y="-521.5" font-family="Helvetica,sans-Serif" font-size="10.00">yaclib/coro/detail</text>
<text text-anchor="middle" x="320" y="-510.5" font-family="Helvetica,sans-Serif" font-size="10.00">/promise_type.hpp</text>
</a>
</g>
</g>
<!-- Node1&#45;&gt;Node6 -->
<g id="edge7" class="edge">
<title>Node1&#45;&gt;Node6</title>
<path fill="none" stroke="midnightblue" d="M837.67,-578.85C733.03,-566.85 489.28,-538.91 377.67,-526.11"/>
<polygon fill="midnightblue" stroke="midnightblue" points="377.94,-522.62 367.61,-524.96 377.14,-529.57 377.94,-522.62"/>
</g>
<!-- Node25 -->
<g id="node25" class="node">
<title>Node25</title>
<g id="a_node25"><a xlink:title=" ">
<polygon fill="none" stroke="#bfbfbf" points="1041,-308 1041,-327 1133,-327 1133,-308 1041,-308"/>
<text text-anchor="middle" x="1087" y="-315" font-family="Helvetica,sans-Serif" font-size="10.00">yaclib_std/atomic</text>
</a>
</g>
</g>
<!-- Node1&#45;&gt;Node25 -->
<g id="edge71" class="edge">
<title>Node1&#45;&gt;Node25</title>
<path fill="none" stroke="midnightblue" d="M936.34,-577.14C983.95,-568.97 1051.22,-554.2 1068,-534 1115.83,-476.44 1100.71,-377.92 1091.66,-337.08"/>
<polygon fill="midnightblue" stroke="midnightblue" points="1095.03,-336.1 1089.33,-327.17 1088.21,-337.71 1095.03,-336.1"/>
</g>
<!-- Node33 -->
<g id="node33" class="node">
<title>Node33</title>
<g id="a_node33"><a xlink:href="guard_8hpp.html" target="_top" xlink:title=" ">
<polygon fill="none" stroke="black" points="677,-442 677,-461 785,-461 785,-442 677,-442"/>
<text text-anchor="middle" x="731" y="-449" font-family="Helvetica,sans-Serif" font-size="10.00">yaclib/coro/guard.hpp</text>
</a>
</g>
</g>
<!-- Node1&#45;&gt;Node33 -->
<g id="edge57" class="edge">
<title>Node1&#45;&gt;Node33</title>
<path fill="none" stroke="midnightblue" d="M870.31,-570.37C840.7,-545.33 779.28,-493.35 748.87,-467.62"/>
<polygon fill="midnightblue" stroke="midnightblue" points="751.06,-464.88 741.16,-461.1 746.53,-470.23 751.06,-464.88"/>
</g>
<!-- Node35 -->
<g id="node35" class="node">
<title>Node35</title>
<g id="a_node35"><a xlink:href="intrusive__list_8hpp.html" target="_top" xlink:title=" ">
<polygon fill="none" stroke="black" points="967,-503.5 967,-533.5 1059,-533.5 1059,-503.5 967,-503.5"/>
<text text-anchor="start" x="975" y="-521.5" font-family="Helvetica,sans-Serif" font-size="10.00">yaclib/util/detail</text>
<text text-anchor="middle" x="1013" y="-510.5" font-family="Helvetica,sans-Serif" font-size="10.00">/intrusive_list.hpp</text>
</a>
</g>
</g>
<!-- Node1&#45;&gt;Node35 -->
<g id="edge63" class="edge">
<title>Node1&#45;&gt;Node35</title>
<path fill="none" stroke="midnightblue" d="M914.34,-570.4C932.59,-560.98 956.78,-548.5 976.64,-538.26"/>
<polygon fill="midnightblue" stroke="midnightblue" points="978.43,-541.27 985.71,-533.58 975.22,-535.05 978.43,-541.27"/>
</g>
<!-- Node36 -->
<g id="node36" class="node">
<title>Node36</title>
<g id="a_node36"><a xlink:href="intrusive__stack_8hpp.html" target="_top" xlink:title=" ">
<polygon fill="none" stroke="black" points="1030,-179.5 1030,-209.5 1134,-209.5 1134,-179.5 1030,-179.5"/>
<text text-anchor="start" x="1038" y="-197.5" font-family="Helvetica,sans-Serif" font-size="10.00">yaclib/util/detail</text>
<text text-anchor="middle" x="1082" y="-186.5" font-family="Helvetica,sans-Serif" font-size="10.00">/intrusive_stack.hpp</text>
</a>
</g>
</g>
<!-- Node1&#45;&gt;Node36 -->
<g id="edge65" class="edge">
<title>Node1&#45;&gt;Node36</title>
<path fill="none" stroke="midnightblue" d="M894.17,-570.19C923.44,-511.81 1034.02,-291.22 1070.35,-218.74"/>
<polygon fill="midnightblue" stroke="midnightblue" points="1073.62,-220.03 1074.97,-209.53 1067.36,-216.9 1073.62,-220.03"/>
</g>
<!-- Node37 -->
<g id="node37" class="node">
<title>Node37</title>
<g id="a_node37"><a xlink:href="spinlock_8hpp.html" target="_top" xlink:title=" ">
<polygon fill="none" stroke="black" points="1115.5,-503.5 1115.5,-533.5 1198.5,-533.5 1198.5,-503.5 1115.5,-503.5"/>
<text text-anchor="start" x="1123.5" y="-521.5" font-family="Helvetica,sans-Serif" font-size="10.00">yaclib/util/detail</text>
<text text-anchor="middle" x="1157" y="-510.5" font-family="Helvetica,sans-Serif" font-size="10.00">/spinlock.hpp</text>
</a>
</g>
</g>
<!-- Node1&#45;&gt;Node37 -->
<g id="edge69" class="edge">
<title>Node1&#45;&gt;Node37</title>
<path fill="none" stroke="midnightblue" d="M936.37,-573.17C979.79,-563.13 1044.68,-547.94 1101,-534 1102.46,-533.64 1103.95,-533.27 1105.44,-532.89"/>
<polygon fill="midnightblue" stroke="midnightblue" points="1106.6,-536.21 1115.44,-530.37 1104.88,-529.43 1106.6,-536.21"/>
</g>
<!-- Node3 -->
<g id="node3" class="node">
<title>Node3</title>
<g id="a_node3"><a xlink:title=" ">
<polygon fill="none" stroke="#bfbfbf" points="306,-246.5 306,-265.5 394,-265.5 394,-246.5 306,-246.5"/>
<text text-anchor="middle" x="350" y="-253.5" font-family="Helvetica,sans-Serif" font-size="10.00">yaclib/config.hpp</text>
</a>
</g>
</g>
<!-- Node2&#45;&gt;Node3 -->
<g id="edge2" class="edge">
<title>Node2&#45;&gt;Node3</title>
<path fill="none" stroke="midnightblue" d="M102.28,-374.81C148.14,-353 268.25,-295.88 322.59,-270.03"/>
<polygon fill="midnightblue" stroke="midnightblue" points="324.41,-273.04 331.94,-265.59 321.41,-266.72 324.41,-273.04"/>
</g>
<!-- Node4&#45;&gt;Node2 -->
<g id="edge5" class="edge">
<title>Node4&#45;&gt;Node2</title>
<path fill="none" stroke="midnightblue" d="M152.12,-436.4C137.89,-425.76 118.4,-411.2 103.92,-400.38"/>
<polygon fill="midnightblue" stroke="midnightblue" points="105.74,-397.38 95.64,-394.19 101.55,-402.98 105.74,-397.38"/>
</g>
<!-- Node4&#45;&gt;Node3 -->
<g id="edge4" class="edge">
<title>Node4&#45;&gt;Node3</title>
<path fill="none" stroke="midnightblue" d="M184.16,-436.27C216.74,-401.06 300.96,-310.01 335.2,-273"/>
<polygon fill="midnightblue" stroke="midnightblue" points="337.84,-275.29 342.07,-265.58 332.71,-270.54 337.84,-275.29"/>
</g>
<!-- Node5 -->
<g id="node5" class="node">
<title>Node5</title>
<g id="a_node5"><a xlink:title=" ">
<polygon fill="none" stroke="#bfbfbf" points="504.5,-375 504.5,-394 547.5,-394 547.5,-375 504.5,-375"/>
<text text-anchor="middle" x="526" y="-382" font-family="Helvetica,sans-Serif" font-size="10.00">mutex</text>
</a>
</g>
</g>
<!-- Node4&#45;&gt;Node5 -->
<g id="edge6" class="edge">
<title>Node4&#45;&gt;Node5</title>
<path fill="none" stroke="midnightblue" d="M221.77,-437.66C224.55,-437.07 227.31,-436.51 230,-436 347.2,-413.73 381.76,-434.39 496,-400 497.68,-399.5 499.37,-398.91 501.07,-398.26"/>
<polygon fill="midnightblue" stroke="midnightblue" points="502.73,-401.35 510.5,-394.14 499.93,-394.94 502.73,-401.35"/>
</g>
<!-- Node6&#45;&gt;Node2 -->
<g id="edge52" class="edge">
<title>Node6&#45;&gt;Node2</title>
<path fill="none" stroke="midnightblue" d="M272.03,-511.37C217.86,-503.53 134.21,-488.36 111,-467 93.38,-450.78 87.24,-422.82 85.11,-404.25"/>
<polygon fill="midnightblue" stroke="midnightblue" points="88.58,-403.74 84.24,-394.08 81.61,-404.34 88.58,-403.74"/>
</g>
<!-- Node7 -->
<g id="node7" class="node">
<title>Node7</title>
<g id="a_node7"><a xlink:href="result__core_8hpp.html" target="_top" xlink:title=" ">
<polygon fill="none" stroke="black" points="239.5,-436.5 239.5,-466.5 328.5,-466.5 328.5,-436.5 239.5,-436.5"/>
<text text-anchor="start" x="247.5" y="-454.5" font-family="Helvetica,sans-Serif" font-size="10.00">yaclib/algo/detail</text>
<text text-anchor="middle" x="284" y="-443.5" font-family="Helvetica,sans-Serif" font-size="10.00">/result_core.hpp</text>
</a>
</g>
</g>
<!-- Node6&#45;&gt;Node7 -->
<g id="edge8" class="edge">
<title>Node6&#45;&gt;Node7</title>
<path fill="none" stroke="midnightblue" d="M312.19,-503.4C307.66,-495.22 301.85,-484.73 296.68,-475.39"/>
<polygon fill="midnightblue" stroke="midnightblue" points="299.7,-473.63 291.8,-466.58 293.58,-477.02 299.7,-473.63"/>
</g>
<!-- Node19 -->
<g id="node19" class="node">
<title>Node19</title>
<g id="a_node19"><a xlink:href="intrusive__ptr_8hpp.html" target="_top" xlink:title=" ">
<polygon fill="none" stroke="black" points="497.5,-179.5 497.5,-209.5 594.5,-209.5 594.5,-179.5 497.5,-179.5"/>
<text text-anchor="start" x="505.5" y="-197.5" font-family="Helvetica,sans-Serif" font-size="10.00">yaclib/util/intrusive</text>
<text text-anchor="middle" x="546" y="-186.5" font-family="Helvetica,sans-Serif" font-size="10.00">_ptr.hpp</text>
</a>
</g>
</g>
<!-- Node6&#45;&gt;Node19 -->
<g id="edge55" class="edge">
<title>Node6&#45;&gt;Node19</title>
<path fill="none" stroke="midnightblue" d="M324.81,-503.19C335.81,-470.82 362.93,-392.92 377,-369 413.16,-307.55 428.48,-295.3 480,-246 491.32,-235.16 504.92,-224.43 516.82,-215.66"/>
<polygon fill="midnightblue" stroke="midnightblue" points="519.08,-218.35 525.14,-209.66 514.98,-212.68 519.08,-218.35"/>
</g>
<!-- Node29 -->
<g id="node29" class="node">
<title>Node29</title>
<g id="a_node29"><a xlink:title=" ">
<polygon fill="none" stroke="#bfbfbf" points="23,-118 23,-137 81,-137 81,-118 23,-118"/>
<text text-anchor="middle" x="52" y="-125" font-family="Helvetica,sans-Serif" font-size="10.00">exception</text>
</a>
</g>
</g>
<!-- Node6&#45;&gt;Node29 -->
<g id="edge56" class="edge">
<title>Node6&#45;&gt;Node29</title>
<path fill="none" stroke="midnightblue" d="M272.42,-514.37C223.91,-509.55 147.67,-497.42 89,-467 41.38,-442.31 0,-439.13 0,-385.5 0,-385.5 0,-385.5 0,-255 0,-213.26 24.52,-169.2 39.88,-145.68"/>
<polygon fill="midnightblue" stroke="midnightblue" points="42.92,-147.44 45.62,-137.19 37.12,-143.52 42.92,-147.44"/>
</g>
<!-- Node31 -->
<g id="node31" class="node">
<title>Node31</title>
<g id="a_node31"><a xlink:href="unique__counter_8hpp.html" target="_top" xlink:title=" ">
<polygon fill="none" stroke="black" points="385,-436.5 385,-466.5 489,-466.5 489,-436.5 385,-436.5"/>
<text text-anchor="start" x="393" y="-454.5" font-family="Helvetica,sans-Serif" font-size="10.00">yaclib/util/detail</text>
<text text-anchor="middle" x="437" y="-443.5" font-family="Helvetica,sans-Serif" font-size="10.00">/unique_counter.hpp</text>
</a>
</g>
</g>
<!-- Node6&#45;&gt;Node31 -->
<g id="edge53" class="edge">
<title>Node6&#45;&gt;Node31</title>
<path fill="none" stroke="midnightblue" d="M345.39,-503.4C362.18,-494.07 384.39,-481.73 402.74,-471.53"/>
<polygon fill="midnightblue" stroke="midnightblue" points="404.62,-474.49 411.66,-466.58 401.22,-468.37 404.62,-474.49"/>
</g>
<!-- Node8 -->
<g id="node8" class="node">
<title>Node8</title>
<g id="a_node8"><a xlink:href="base__core_8hpp.html" target="_top" xlink:title=" ">
<polygon fill="none" stroke="black" points="624.5,-369.5 624.5,-399.5 713.5,-399.5 713.5,-369.5 624.5,-369.5"/>
<text text-anchor="start" x="632.5" y="-387.5" font-family="Helvetica,sans-Serif" font-size="10.00">yaclib/algo/detail</text>
<text text-anchor="middle" x="669" y="-376.5" font-family="Helvetica,sans-Serif" font-size="10.00">/base_core.hpp</text>
</a>
</g>
</g>
<!-- Node7&#45;&gt;Node8 -->
<g id="edge9" class="edge">
<title>Node7&#45;&gt;Node8</title>
<path fill="none" stroke="midnightblue" d="M328.54,-442.98C399.39,-431.02 537.57,-407.69 614.31,-394.73"/>
<polygon fill="midnightblue" stroke="midnightblue" points="614.99,-398.17 624.27,-393.05 613.82,-391.27 614.99,-398.17"/>
</g>
<!-- Node17 -->
<g id="node17" class="node">
<title>Node17</title>
<g id="a_node17"><a xlink:title=" ">
<polygon fill="none" stroke="#bfbfbf" points="441.5,-56.5 441.5,-75.5 480.5,-75.5 480.5,-56.5 441.5,-56.5"/>
<text text-anchor="middle" x="461" y="-63.5" font-family="Helvetica,sans-Serif" font-size="10.00">utility</text>
</a>
</g>
</g>
<!-- Node7&#45;&gt;Node17 -->
<g id="edge51" class="edge">
<title>Node7&#45;&gt;Node17</title>
<path fill="none" stroke="midnightblue" d="M279.44,-436.48C268.9,-401.28 246.57,-307.6 285,-246 299.68,-222.46 313.91,-226.79 336,-210 373.47,-181.52 387.67,-178.99 418,-143 433.07,-125.12 445.59,-101.2 453.16,-85.01"/>
<polygon fill="midnightblue" stroke="midnightblue" points="456.47,-86.18 457.4,-75.63 450.09,-83.3 456.47,-86.18"/>
</g>
<!-- Node7&#45;&gt;Node19 -->
<g id="edge37" class="edge">
<title>Node7&#45;&gt;Node19</title>
<path fill="none" stroke="midnightblue" d="M282.78,-436.39C279.49,-394.87 272.33,-274.28 297,-246 350.06,-185.18 395.9,-226.08 475,-210 479.09,-209.17 483.32,-208.31 487.57,-207.44"/>
<polygon fill="midnightblue" stroke="midnightblue" points="488.4,-210.85 497.5,-205.42 487,-203.99 488.4,-210.85"/>
</g>
<!-- Node26 -->
<g id="node26" class="node">
<title>Node26</title>
<g id="a_node26"><a xlink:href="result_8hpp.html" target="_top" xlink:title=" ">
<polygon fill="none" stroke="black" points="99,-246.5 99,-265.5 201,-265.5 201,-246.5 99,-246.5"/>
<text text-anchor="middle" x="150" y="-253.5" font-family="Helvetica,sans-Serif" font-size="10.00">yaclib/util/result.hpp</text>
</a>
</g>
</g>
<!-- Node7&#45;&gt;Node26 -->
<g id="edge38" class="edge">
<title>Node7&#45;&gt;Node26</title>
<path fill="none" stroke="midnightblue" d="M272.46,-436.12C264.54,-426.13 253.91,-412.42 245,-400 213.14,-355.56 178.15,-301.37 160.88,-274.23"/>
<polygon fill="midnightblue" stroke="midnightblue" points="163.67,-272.09 155.36,-265.52 157.76,-275.84 163.67,-272.09"/>
</g>
<!-- Node8&#45;&gt;Node3 -->
<g id="edge21" class="edge">
<title>Node8&#45;&gt;Node3</title>
<path fill="none" stroke="midnightblue" d="M624.26,-378.42C579.33,-372.1 508.94,-358.84 453,-333 419.26,-317.42 385.64,-289.76 366.39,-272.45"/>
<polygon fill="midnightblue" stroke="midnightblue" points="368.57,-269.7 358.83,-265.52 363.84,-274.86 368.57,-269.7"/>
</g>
<!-- Node9 -->
<g id="node9" class="node">
<title>Node9</title>
<g id="a_node9"><a xlink:href="inline__core_8hpp.html" target="_top" xlink:title=" ">
<polygon fill="none" stroke="black" points="717.5,-302.5 717.5,-332.5 806.5,-332.5 806.5,-302.5 717.5,-302.5"/>
<text text-anchor="start" x="725.5" y="-320.5" font-family="Helvetica,sans-Serif" font-size="10.00">yaclib/algo/detail</text>
<text text-anchor="middle" x="762" y="-309.5" font-family="Helvetica,sans-Serif" font-size="10.00">/inline_core.hpp</text>
</a>
</g>
</g>
<!-- Node8&#45;&gt;Node9 -->
<g id="edge10" class="edge">
<title>Node8&#45;&gt;Node9</title>
<path fill="none" stroke="midnightblue" d="M689.18,-369.4C702.1,-360.37 719.06,-348.51 733.36,-338.52"/>
<polygon fill="midnightblue" stroke="midnightblue" points="735.67,-341.17 741.86,-332.58 731.66,-335.44 735.67,-341.17"/>
</g>
<!-- Node11 -->
<g id="node11" class="node">
<title>Node11</title>
<g id="a_node11"><a xlink:href="log_8hpp.html" target="_top" xlink:title=" ">
<polygon fill="none" stroke="black" points="842.5,-56.5 842.5,-75.5 917.5,-75.5 917.5,-56.5 842.5,-56.5"/>
<text text-anchor="middle" x="880" y="-63.5" font-family="Helvetica,sans-Serif" font-size="10.00">yaclib/log.hpp</text>
</a>
</g>
</g>
<!-- Node8&#45;&gt;Node11 -->
<g id="edge32" class="edge">
<title>Node8&#45;&gt;Node11</title>
<path fill="none" stroke="midnightblue" d="M713.82,-379.14C746.46,-373.63 789.44,-361.18 816,-333 882.83,-262.12 883.65,-134.09 881.34,-85.97"/>
<polygon fill="midnightblue" stroke="midnightblue" points="884.82,-85.55 880.74,-75.77 877.84,-85.96 884.82,-85.55"/>
</g>
<!-- Node15 -->
<g id="node15" class="node">
<title>Node15</title>
<g id="a_node15"><a xlink:href="ref_8hpp.html" target="_top" xlink:title=" ">
<polygon fill="none" stroke="black" points="570.5,-56.5 570.5,-75.5 659.5,-75.5 659.5,-56.5 570.5,-56.5"/>
<text text-anchor="middle" x="615" y="-63.5" font-family="Helvetica,sans-Serif" font-size="10.00">yaclib/util/ref.hpp</text>
</a>
</g>
</g>
<!-- Node8&#45;&gt;Node15 -->
<g id="edge33" class="edge">
<title>Node8&#45;&gt;Node15</title>
<path fill="none" stroke="midnightblue" d="M670.26,-369.31C671.46,-353.01 672.71,-325.48 670,-302 660.53,-219.99 633.06,-125.03 620.91,-85.62"/>
<polygon fill="midnightblue" stroke="midnightblue" points="624.17,-84.33 617.85,-75.83 617.49,-86.42 624.17,-84.33"/>
</g>
<!-- Node18 -->
<g id="node18" class="node">
<title>Node18</title>
<g id="a_node18"><a xlink:href="executor_8hpp.html" target="_top" xlink:title=" ">
<polygon fill="none" stroke="black" points="488.5,-246.5 488.5,-265.5 605.5,-265.5 605.5,-246.5 488.5,-246.5"/>
<text text-anchor="middle" x="547" y="-253.5" font-family="Helvetica,sans-Serif" font-size="10.00">yaclib/exe/executor.hpp</text>
</a>
</g>
</g>
<!-- Node8&#45;&gt;Node18 -->
<g id="edge22" class="edge">
<title>Node8&#45;&gt;Node18</title>
<path fill="none" stroke="midnightblue" d="M651.98,-369.5C640.35,-359.67 624.79,-346.01 612,-333 592.9,-313.57 572.79,-289.4 560.09,-273.6"/>
<polygon fill="midnightblue" stroke="midnightblue" points="562.82,-271.41 553.84,-265.77 557.34,-275.77 562.82,-271.41"/>
</g>
<!-- Node21 -->
<g id="node21" class="node">
<title>Node21</title>
<g id="a_node21"><a xlink:href="inline_8hpp.html" target="_top" xlink:title=" ">
<polygon fill="none" stroke="black" points="461.5,-308 461.5,-327 564.5,-327 564.5,-308 461.5,-308"/>
<text text-anchor="middle" x="513" y="-315" font-family="Helvetica,sans-Serif" font-size="10.00">yaclib/exe/inline.hpp</text>
</a>
</g>
</g>
<!-- Node8&#45;&gt;Node21 -->
<g id="edge29" class="edge">
<title>Node8&#45;&gt;Node21</title>
<path fill="none" stroke="midnightblue" d="M635.15,-369.4C607.66,-357.94 569.25,-341.94 542.89,-330.95"/>
<polygon fill="midnightblue" stroke="midnightblue" points="543.99,-327.62 533.42,-327.01 541.3,-334.08 543.99,-327.62"/>
</g>
<!-- Node23 -->
<g id="node23" class="node">
<title>Node23</title>
<g id="a_node23"><a xlink:title=" ">
<polygon fill="none" stroke="#bfbfbf" points="863,-308 863,-327 909,-327 909,-308 863,-308"/>
<text text-anchor="middle" x="886" y="-315" font-family="Helvetica,sans-Serif" font-size="10.00">cstdint</text>
</a>
</g>
</g>
<!-- Node8&#45;&gt;Node23 -->
<g id="edge34" class="edge">
<title>Node8&#45;&gt;Node23</title>
<path fill="none" stroke="midnightblue" d="M713.76,-372.27C750.41,-362.76 803.46,-348.27 849,-333 851.13,-332.29 853.31,-331.52 855.5,-330.73"/>
<polygon fill="midnightblue" stroke="midnightblue" points="856.88,-333.95 865,-327.15 854.41,-327.4 856.88,-333.95"/>
</g>
<!-- Node24 -->
<g id="node24" class="node">
<title>Node24</title>
<g id="a_node24"><a xlink:title=" ">
<polygon fill="none" stroke="#bfbfbf" points="621,-308 621,-327 661,-327 661,-308 621,-308"/>
<text text-anchor="middle" x="641" y="-315" font-family="Helvetica,sans-Serif" font-size="10.00">limits</text>
</a>
</g>
</g>
<!-- Node8&#45;&gt;Node24 -->
<g id="edge35" class="edge">
<title>Node8&#45;&gt;Node24</title>
<path fill="none" stroke="midnightblue" d="M662.92,-369.4C658.77,-359.76 653.24,-346.91 648.77,-336.54"/>
<polygon fill="midnightblue" stroke="midnightblue" points="651.92,-334.99 644.75,-327.19 645.49,-337.76 651.92,-334.99"/>
</g>
<!-- Node8&#45;&gt;Node25 -->
<g id="edge36" class="edge">
<title>Node8&#45;&gt;Node25</title>
<path fill="none" stroke="midnightblue" d="M713.73,-376.54C790.36,-364.63 946.56,-340.34 1030.56,-327.28"/>
<polygon fill="midnightblue" stroke="midnightblue" points="1031.34,-330.7 1040.68,-325.7 1030.26,-323.78 1031.34,-330.7"/>
</g>
<!-- Node9&#45;&gt;Node3 -->
<g id="edge11" class="edge">
<title>Node9&#45;&gt;Node3</title>
<path fill="none" stroke="midnightblue" d="M717.1,-309.27C702.13,-306.9 685.35,-304.29 670,-302 576.7,-288.09 467.92,-273.04 404.24,-264.35"/>
<polygon fill="midnightblue" stroke="midnightblue" points="404.41,-260.84 394.03,-262.96 403.47,-267.77 404.41,-260.84"/>
</g>
<!-- Node10 -->
<g id="node10" class="node">
<title>Node10</title>
<g id="a_node10"><a xlink:href="job_8hpp.html" target="_top" xlink:title=" ">
<polygon fill="none" stroke="black" points="715.5,-185 715.5,-204 808.5,-204 808.5,-185 715.5,-185"/>
<text text-anchor="middle" x="762" y="-192" font-family="Helvetica,sans-Serif" font-size="10.00">yaclib/exe/job.hpp</text>
</a>
</g>
</g>
<!-- Node9&#45;&gt;Node10 -->
<g id="edge12" class="edge">
<title>Node9&#45;&gt;Node10</title>
<path fill="none" stroke="midnightblue" d="M762,-302.14C762,-280.2 762,-238.33 762,-214.09"/>
<polygon fill="midnightblue" stroke="midnightblue" points="765.5,-214.05 762,-204.05 758.5,-214.05 765.5,-214.05"/>
</g>
<!-- Node9&#45;&gt;Node11 -->
<g id="edge20" class="edge">
<title>Node9&#45;&gt;Node11</title>
<path fill="none" stroke="midnightblue" d="M769.96,-302.2C781.14,-281.93 801.94,-243.54 818,-210 839.15,-165.83 861.38,-112.65 872.6,-85.27"/>
<polygon fill="midnightblue" stroke="midnightblue" points="875.92,-86.39 876.45,-75.81 869.44,-83.75 875.92,-86.39"/>
</g>
<!-- Node10&#45;&gt;Node11 -->
<g id="edge13" class="edge">
<title>Node10&#45;&gt;Node11</title>
<path fill="none" stroke="midnightblue" d="M770.11,-184.81C789.65,-163.86 839.56,-110.35 864.84,-83.25"/>
<polygon fill="midnightblue" stroke="midnightblue" points="867.57,-85.46 871.83,-75.76 862.45,-80.68 867.57,-85.46"/>
</g>
<!-- Node13 -->
<g id="node13" class="node">
<title>Node13</title>
<g id="a_node13"><a xlink:href="node_8hpp.html" target="_top" xlink:title=" ">
<polygon fill="none" stroke="black" points="965.5,-112.5 965.5,-142.5 1048.5,-142.5 1048.5,-112.5 965.5,-112.5"/>
<text text-anchor="start" x="973.5" y="-130.5" font-family="Helvetica,sans-Serif" font-size="10.00">yaclib/util/detail</text>
<text text-anchor="middle" x="1007" y="-119.5" font-family="Helvetica,sans-Serif" font-size="10.00">/node.hpp</text>
</a>
</g>
</g>
<!-- Node10&#45;&gt;Node13 -->
<g id="edge15" class="edge">
<title>Node10&#45;&gt;Node13</title>
<path fill="none" stroke="midnightblue" d="M794.28,-184.94C835.37,-174.03 906.84,-155.07 955.5,-142.16"/>
<polygon fill="midnightblue" stroke="midnightblue" points="956.44,-145.53 965.21,-139.59 954.65,-138.77 956.44,-145.53"/>
</g>
<!-- Node14 -->
<g id="node14" class="node">
<title>Node14</title>
<g id="a_node14"><a xlink:href="func_8hpp.html" target="_top" xlink:title=" ">
<polygon fill="none" stroke="black" points="489.5,-118 489.5,-137 586.5,-137 586.5,-118 489.5,-118"/>
<text text-anchor="middle" x="538" y="-125" font-family="Helvetica,sans-Serif" font-size="10.00">yaclib/util/func.hpp</text>
</a>
</g>
</g>
<!-- Node10&#45;&gt;Node14 -->
<g id="edge16" class="edge">
<title>Node10&#45;&gt;Node14</title>
<path fill="none" stroke="midnightblue" d="M732.25,-184.87C692.4,-173.3 621.57,-152.75 577.34,-139.91"/>
<polygon fill="midnightblue" stroke="midnightblue" points="578.09,-136.49 567.51,-137.06 576.14,-143.21 578.09,-136.49"/>
</g>
<!-- Node12 -->
<g id="node12" class="node">
<title>Node12</title>
<g id="a_node12"><a xlink:title=" ">
<polygon fill="none" stroke="#bfbfbf" points="847,-0.5 847,-19.5 913,-19.5 913,-0.5 847,-0.5"/>
<text text-anchor="middle" x="880" y="-7.5" font-family="Helvetica,sans-Serif" font-size="10.00">string_view</text>
</a>
</g>
</g>
<!-- Node11&#45;&gt;Node12 -->
<g id="edge14" class="edge">
<title>Node11&#45;&gt;Node12</title>
<path fill="none" stroke="midnightblue" d="M880,-56.08C880,-49.01 880,-38.86 880,-29.99"/>
<polygon fill="midnightblue" stroke="midnightblue" points="883.5,-29.75 880,-19.75 876.5,-29.75 883.5,-29.75"/>
</g>
<!-- Node14&#45;&gt;Node15 -->
<g id="edge17" class="edge">
<title>Node14&#45;&gt;Node15</title>
<path fill="none" stroke="midnightblue" d="M549.03,-117.98C561.27,-108.52 581.23,-93.1 595.99,-81.69"/>
<polygon fill="midnightblue" stroke="midnightblue" points="598.22,-84.39 603.99,-75.51 593.94,-78.85 598.22,-84.39"/>
</g>
<!-- Node16 -->
<g id="node16" class="node">
<title>Node16</title>
<g id="a_node16"><a xlink:title=" ">
<polygon fill="none" stroke="#bfbfbf" points="316,-56.5 316,-75.5 378,-75.5 378,-56.5 316,-56.5"/>
<text text-anchor="middle" x="347" y="-63.5" font-family="Helvetica,sans-Serif" font-size="10.00">type_traits</text>
</a>
</g>
</g>
<!-- Node14&#45;&gt;Node16 -->
<g id="edge18" class="edge">
<title>Node14&#45;&gt;Node16</title>
<path fill="none" stroke="midnightblue" d="M510.63,-117.98C477.45,-107.64 421.35,-90.16 384.24,-78.6"/>
<polygon fill="midnightblue" stroke="midnightblue" points="384.9,-75.14 374.31,-75.51 382.82,-81.82 384.9,-75.14"/>
</g>
<!-- Node14&#45;&gt;Node17 -->
<g id="edge19" class="edge">
<title>Node14&#45;&gt;Node17</title>
<path fill="none" stroke="midnightblue" d="M526.97,-117.98C514.73,-108.52 494.77,-93.1 480.01,-81.69"/>
<polygon fill="midnightblue" stroke="midnightblue" points="482.06,-78.85 472.01,-75.51 477.78,-84.39 482.06,-78.85"/>
</g>
<!-- Node18&#45;&gt;Node10 -->
<g id="edge23" class="edge">
<title>Node18&#45;&gt;Node10</title>
<path fill="none" stroke="midnightblue" d="M577.8,-246.48C615.56,-236.03 679.66,-218.29 721.41,-206.73"/>
<polygon fill="midnightblue" stroke="midnightblue" points="722.55,-210.05 731.25,-204.01 720.68,-203.3 722.55,-210.05"/>
</g>
<!-- Node18&#45;&gt;Node19 -->
<g id="edge24" class="edge">
<title>Node18&#45;&gt;Node19</title>
<path fill="none" stroke="midnightblue" d="M546.86,-246.48C546.74,-239.47 546.57,-229.19 546.41,-219.7"/>
<polygon fill="midnightblue" stroke="midnightblue" points="549.9,-219.46 546.24,-209.52 542.9,-219.58 549.9,-219.46"/>
</g>
<!-- Node19&#45;&gt;Node15 -->
<g id="edge25" class="edge">
<title>Node19&#45;&gt;Node15</title>
<path fill="none" stroke="midnightblue" d="M564.21,-179.42C574.97,-170.17 588.01,-157.19 596,-143 606.09,-125.07 610.89,-101.79 613.13,-85.75"/>
<polygon fill="midnightblue" stroke="midnightblue" points="616.64,-85.87 614.35,-75.52 609.69,-85.04 616.64,-85.87"/>
</g>
<!-- Node19&#45;&gt;Node16 -->
<g id="edge26" class="edge">
<title>Node19&#45;&gt;Node16</title>
<path fill="none" stroke="midnightblue" d="M523.94,-179.48C485.88,-155.28 408.25,-105.94 369.73,-81.45"/>
<polygon fill="midnightblue" stroke="midnightblue" points="371.14,-78.2 360.83,-75.79 367.39,-84.11 371.14,-78.2"/>
</g>
<!-- Node20 -->
<g id="node20" class="node">
<title>Node20</title>
<g id="a_node20"><a xlink:href="intrusive__ptr__impl_8hpp.html" target="_top" xlink:title=" ">
<polygon fill="none" stroke="black" points="681,-112.5 681,-142.5 795,-142.5 795,-112.5 681,-112.5"/>
<text text-anchor="start" x="689" y="-130.5" font-family="Helvetica,sans-Serif" font-size="10.00">yaclib/util/detail</text>
<text text-anchor="middle" x="738" y="-119.5" font-family="Helvetica,sans-Serif" font-size="10.00">/intrusive_ptr_impl.hpp</text>
</a>
</g>
</g>
<!-- Node19&#45;&gt;Node20 -->
<g id="edge27" class="edge">
<title>Node19&#45;&gt;Node20</title>
<path fill="none" stroke="midnightblue" d="M587.66,-179.4C616.72,-169.56 655.69,-156.37 686.67,-145.88"/>
<polygon fill="midnightblue" stroke="midnightblue" points="688.07,-149.1 696.42,-142.58 685.83,-142.47 688.07,-149.1"/>
</g>
<!-- Node20&#45;&gt;Node11 -->
<g id="edge28" class="edge">
<title>Node20&#45;&gt;Node11</title>
<path fill="none" stroke="midnightblue" d="M771.65,-112.4C795.48,-102.42 827.15,-89.15 850.09,-79.53"/>
<polygon fill="midnightblue" stroke="midnightblue" points="851.47,-82.75 859.34,-75.66 848.76,-76.29 851.47,-82.75"/>
</g>
<!-- Node21&#45;&gt;Node18 -->
<g id="edge30" class="edge">
<title>Node21&#45;&gt;Node18</title>
<path fill="none" stroke="midnightblue" d="M517.87,-307.98C522.87,-299.23 530.79,-285.37 537.11,-274.31"/>
<polygon fill="midnightblue" stroke="midnightblue" points="540.22,-275.93 542.14,-265.51 534.14,-272.46 540.22,-275.93"/>
</g>
<!-- Node22 -->
<g id="node22" class="node">
<title>Node22</title>
<g id="a_node22"><a xlink:href="fwd_8hpp.html" target="_top" xlink:title=" ">
<polygon fill="none" stroke="black" points="89,-56.5 89,-75.5 167,-75.5 167,-56.5 89,-56.5"/>
<text text-anchor="middle" x="128" y="-63.5" font-family="Helvetica,sans-Serif" font-size="10.00">yaclib/fwd.hpp</text>
</a>
</g>
</g>
<!-- Node21&#45;&gt;Node22 -->
<g id="edge31" class="edge">
<title>Node21&#45;&gt;Node22</title>
<path fill="none" stroke="midnightblue" d="M502.17,-307.73C471.99,-283.7 383.67,-216.15 300,-179 243.64,-153.98 213.76,-182.01 166,-143 148,-128.3 137.77,-102.92 132.56,-85.57"/>
<polygon fill="midnightblue" stroke="midnightblue" points="135.82,-84.25 129.82,-75.52 129.07,-86.08 135.82,-84.25"/>
</g>
<!-- Node26&#45;&gt;Node17 -->
<g id="edge49" class="edge">
<title>Node26&#45;&gt;Node17</title>
<path fill="none" stroke="midnightblue" d="M196.69,-246.48C227.39,-239.59 267.71,-228.01 300,-210 362.1,-175.35 420.81,-113.24 446.88,-83.61"/>
<polygon fill="midnightblue" stroke="midnightblue" points="449.7,-85.69 453.61,-75.84 444.42,-81.1 449.7,-85.69"/>
</g>
<!-- Node26&#45;&gt;Node22 -->
<g id="edge39" class="edge">
<title>Node26&#45;&gt;Node22</title>
<path fill="none" stroke="midnightblue" d="M122.85,-246.38C102.96,-239.06 76.19,-227.02 57,-210 30.53,-186.52 23.96,-176.95 14,-143 10.12,-129.78 6.25,-123.39 14,-112 28.56,-90.6 55.01,-79.38 78.78,-73.49"/>
<polygon fill="midnightblue" stroke="midnightblue" points="79.75,-76.86 88.75,-71.28 78.23,-70.03 79.75,-76.86"/>
</g>
<!-- Node27 -->
<g id="node27" class="node">
<title>Node27</title>
<g id="a_node27"><a xlink:href="type__traits_8hpp.html" target="_top" xlink:title=" ">
<polygon fill="none" stroke="black" points="168.5,-185 168.5,-204 291.5,-204 291.5,-185 168.5,-185"/>
<text text-anchor="middle" x="230" y="-192" font-family="Helvetica,sans-Serif" font-size="10.00">yaclib/util/type_traits.hpp</text>
</a>
</g>
</g>
<!-- Node26&#45;&gt;Node27 -->
<g id="edge40" class="edge">
<title>Node26&#45;&gt;Node27</title>
<path fill="none" stroke="midnightblue" d="M161.46,-246.48C174.17,-237.02 194.91,-221.6 210.25,-210.19"/>
<polygon fill="midnightblue" stroke="midnightblue" points="212.62,-212.79 218.56,-204.01 208.45,-207.17 212.62,-212.79"/>
</g>
<!-- Node26&#45;&gt;Node29 -->
<g id="edge48" class="edge">
<title>Node26&#45;&gt;Node29</title>
<path fill="none" stroke="midnightblue" d="M148.36,-246.23C145.2,-231.2 137.1,-200.11 121,-179 109.4,-163.8 92.01,-151.11 77.59,-142.26"/>
<polygon fill="midnightblue" stroke="midnightblue" points="79.03,-139.04 68.63,-137 75.49,-145.08 79.03,-139.04"/>
</g>
<!-- Node30 -->
<g id="node30" class="node">
<title>Node30</title>
<g id="a_node30"><a xlink:title=" ">
<polygon fill="none" stroke="#bfbfbf" points="66,-185 66,-204 112,-204 112,-185 66,-185"/>
<text text-anchor="middle" x="89" y="-192" font-family="Helvetica,sans-Serif" font-size="10.00">variant</text>
</a>
</g>
</g>
<!-- Node26&#45;&gt;Node30 -->
<g id="edge50" class="edge">
<title>Node26&#45;&gt;Node30</title>
<path fill="none" stroke="midnightblue" d="M141.26,-246.48C131.84,-237.28 116.64,-222.46 105.05,-211.16"/>
<polygon fill="midnightblue" stroke="midnightblue" points="107.33,-208.49 97.72,-204.01 102.44,-213.5 107.33,-208.49"/>
</g>
<!-- Node27&#45;&gt;Node16 -->
<g id="edge46" class="edge">
<title>Node27&#45;&gt;Node16</title>
<path fill="none" stroke="midnightblue" d="M241.73,-184.91C254.35,-175.39 274.66,-159.23 290,-143 307.62,-124.37 324.86,-100.33 335.69,-84.33"/>
<polygon fill="midnightblue" stroke="midnightblue" points="338.64,-86.2 341.27,-75.94 332.82,-82.32 338.64,-86.2"/>
</g>
<!-- Node27&#45;&gt;Node17 -->
<g id="edge47" class="edge">
<title>Node27&#45;&gt;Node17</title>
<path fill="none" stroke="midnightblue" d="M245.88,-184.81C285.45,-163.13 388.71,-106.59 436.31,-80.52"/>
<polygon fill="midnightblue" stroke="midnightblue" points="438.23,-83.46 445.32,-75.59 434.86,-77.32 438.23,-83.46"/>
</g>
<!-- Node27&#45;&gt;Node22 -->
<g id="edge41" class="edge">
<title>Node27&#45;&gt;Node22</title>
<path fill="none" stroke="midnightblue" d="M195.34,-184.87C173.61,-177.52 147.11,-164.62 133,-143 121.96,-126.09 122.32,-102.3 124.4,-85.86"/>
<polygon fill="midnightblue" stroke="midnightblue" points="127.88,-86.26 126,-75.83 120.96,-85.16 127.88,-86.26"/>
</g>
<!-- Node28 -->
<g id="node28" class="node">
<title>Node28</title>
<g id="a_node28"><a xlink:href="type__traits__impl_8hpp.html" target="_top" xlink:title=" ">
<polygon fill="none" stroke="black" points="175,-112.5 175,-142.5 281,-142.5 281,-112.5 175,-112.5"/>
<text text-anchor="start" x="183" y="-130.5" font-family="Helvetica,sans-Serif" font-size="10.00">yaclib/util/detail</text>
<text text-anchor="middle" x="228" y="-119.5" font-family="Helvetica,sans-Serif" font-size="10.00">/type_traits_impl.hpp</text>
</a>
</g>
</g>
<!-- Node27&#45;&gt;Node28 -->
<g id="edge42" class="edge">
<title>Node27&#45;&gt;Node28</title>
<path fill="none" stroke="midnightblue" d="M229.73,-184.73C229.48,-176.54 229.09,-163.92 228.75,-152.71"/>
<polygon fill="midnightblue" stroke="midnightblue" points="232.24,-152.48 228.43,-142.59 225.24,-152.69 232.24,-152.48"/>
</g>
<!-- Node27&#45;&gt;Node29 -->
<g id="edge45" class="edge">
<title>Node27&#45;&gt;Node29</title>
<path fill="none" stroke="midnightblue" d="M206.36,-184.87C175.29,-173.52 120.53,-153.52 85.28,-140.65"/>
<polygon fill="midnightblue" stroke="midnightblue" points="86.05,-137.21 75.45,-137.06 83.64,-143.78 86.05,-137.21"/>
</g>
<!-- Node28&#45;&gt;Node16 -->
<g id="edge44" class="edge">
<title>Node28&#45;&gt;Node16</title>
<path fill="none" stroke="midnightblue" d="M256.2,-112.4C275.72,-102.64 301.53,-89.74 320.63,-80.18"/>
<polygon fill="midnightblue" stroke="midnightblue" points="322.31,-83.26 329.68,-75.66 319.17,-77 322.31,-83.26"/>
</g>
<!-- Node28&#45;&gt;Node22 -->
<g id="edge43" class="edge">
<title>Node28&#45;&gt;Node22</title>
<path fill="none" stroke="midnightblue" d="M204.3,-112.4C188.27,-102.86 167.2,-90.32 151.26,-80.84"/>
<polygon fill="midnightblue" stroke="midnightblue" points="152.93,-77.76 142.55,-75.66 149.36,-83.78 152.93,-77.76"/>
</g>
<!-- Node32 -->
<g id="node32" class="node">
<title>Node32</title>
<g id="a_node32"><a xlink:href="default__deleter_8hpp.html" target="_top" xlink:title=" ">
<polygon fill="none" stroke="black" points="385.5,-369.5 385.5,-399.5 486.5,-399.5 486.5,-369.5 385.5,-369.5"/>
<text text-anchor="start" x="393.5" y="-387.5" font-family="Helvetica,sans-Serif" font-size="10.00">yaclib/util/detail</text>
<text text-anchor="middle" x="436" y="-376.5" font-family="Helvetica,sans-Serif" font-size="10.00">/default_deleter.hpp</text>
</a>
</g>
</g>
<!-- Node31&#45;&gt;Node32 -->
<g id="edge54" class="edge">
<title>Node31&#45;&gt;Node32</title>
<path fill="none" stroke="midnightblue" d="M436.78,-436.4C436.66,-428.64 436.51,-418.81 436.37,-409.86"/>
<polygon fill="midnightblue" stroke="midnightblue" points="439.87,-409.52 436.22,-399.58 432.87,-409.63 439.87,-409.52"/>
</g>
<!-- Node33&#45;&gt;Node5 -->
<g id="edge62" class="edge">
<title>Node33&#45;&gt;Node5</title>
<path fill="none" stroke="midnightblue" d="M699.26,-441.96C665.09,-432.55 609.26,-416.54 562,-400 560.09,-399.33 558.14,-398.62 556.17,-397.89"/>
<polygon fill="midnightblue" stroke="midnightblue" points="557.03,-394.47 546.44,-394.11 554.49,-400.99 557.03,-394.47"/>
</g>
<!-- Node33&#45;&gt;Node18 -->
<g id="edge61" class="edge">
<title>Node33&#45;&gt;Node18</title>
<path fill="none" stroke="midnightblue" d="M710.45,-441.99C687.29,-432.28 648.61,-415.7 616,-400 589.31,-387.15 584.18,-380.77 557,-369 512.11,-349.57 481.37,-372.84 453,-333 445.01,-321.78 445.66,-313.66 453,-302 463.01,-286.11 480.35,-275.71 497.44,-268.96"/>
<polygon fill="midnightblue" stroke="midnightblue" points="498.63,-272.25 506.85,-265.57 496.26,-265.66 498.63,-272.25"/>
</g>
<!-- Node34 -->
<g id="node34" class="node">
<title>Node34</title>
<g id="a_node34"><a xlink:href="guard__state_8hpp.html" target="_top" xlink:title=" ">
<polygon fill="none" stroke="black" points="841.5,-369.5 841.5,-399.5 930.5,-399.5 930.5,-369.5 841.5,-369.5"/>
<text text-anchor="start" x="849.5" y="-387.5" font-family="Helvetica,sans-Serif" font-size="10.00">yaclib/coro/detail</text>
<text text-anchor="middle" x="886" y="-376.5" font-family="Helvetica,sans-Serif" font-size="10.00">/guard_state.hpp</text>
</a>
</g>
</g>
<!-- Node33&#45;&gt;Node34 -->
<g id="edge58" class="edge">
<title>Node33&#45;&gt;Node34</title>
<path fill="none" stroke="midnightblue" d="M751.58,-441.87C774.84,-432.12 813.34,-415.97 843.19,-403.45"/>
<polygon fill="midnightblue" stroke="midnightblue" points="844.68,-406.62 852.55,-399.53 841.97,-400.17 844.68,-406.62"/>
</g>
<!-- Node34&#45;&gt;Node11 -->
<g id="edge59" class="edge">
<title>Node34&#45;&gt;Node11</title>
<path fill="none" stroke="midnightblue" d="M896.84,-369.17C903.76,-359.42 912.44,-345.97 918,-333 931.72,-301 937,-291.82 937,-257 937,-257 937,-257 937,-193.5 937,-155.74 929.75,-145.84 913,-112 908.01,-101.93 900.77,-91.74 894.34,-83.61"/>
<polygon fill="midnightblue" stroke="midnightblue" points="896.88,-81.2 887.82,-75.7 891.48,-85.65 896.88,-81.2"/>
</g>
<!-- Node34&#45;&gt;Node23 -->
<g id="edge60" class="edge">
<title>Node34&#45;&gt;Node23</title>
<path fill="none" stroke="midnightblue" d="M886,-369.4C886,-360.06 886,-347.71 886,-337.52"/>
<polygon fill="midnightblue" stroke="midnightblue" points="889.5,-337.19 886,-327.19 882.5,-337.19 889.5,-337.19"/>
</g>
<!-- Node35&#45;&gt;Node13 -->
<g id="edge64" class="edge">
<title>Node35&#45;&gt;Node13</title>
<path fill="none" stroke="midnightblue" d="M1012.78,-503.19C1011.88,-445.04 1008.5,-226.02 1007.37,-152.64"/>
<polygon fill="midnightblue" stroke="midnightblue" points="1010.87,-152.47 1007.22,-142.53 1003.87,-152.58 1010.87,-152.47"/>
</g>
<!-- Node36&#45;&gt;Node11 -->
<g id="edge66" class="edge">
<title>Node36&#45;&gt;Node11</title>
<path fill="none" stroke="midnightblue" d="M1089.11,-179.39C1096.94,-161.63 1106.49,-131.14 1091,-112 1070.87,-87.12 983.62,-75.41 927.81,-70.37"/>
<polygon fill="midnightblue" stroke="midnightblue" points="928.04,-66.87 917.78,-69.5 927.44,-73.85 928.04,-66.87"/>
</g>
<!-- Node36&#45;&gt;Node13 -->
<g id="edge67" class="edge">
<title>Node36&#45;&gt;Node13</title>
<path fill="none" stroke="midnightblue" d="M1065.73,-179.4C1055.6,-170.62 1042.4,-159.18 1031.08,-149.37"/>
<polygon fill="midnightblue" stroke="midnightblue" points="1033.09,-146.48 1023.24,-142.58 1028.51,-151.77 1033.09,-146.48"/>
</g>
<!-- Node36&#45;&gt;Node17 -->
<g id="edge68" class="edge">
<title>Node36&#45;&gt;Node17</title>
<path fill="none" stroke="midnightblue" d="M1082.35,-179.37C1081.98,-160.7 1078.21,-128.29 1058,-112 1014.98,-77.32 617.08,-80.45 562,-76 538.05,-74.06 510.93,-71.63 490.83,-69.79"/>
<polygon fill="midnightblue" stroke="midnightblue" points="491.01,-66.29 480.73,-68.85 490.37,-73.26 491.01,-66.29"/>
</g>
<!-- Node37&#45;&gt;Node25 -->
<g id="edge70" class="edge">
<title>Node37&#45;&gt;Node25</title>
<path fill="none" stroke="midnightblue" d="M1151.97,-503.19C1139.53,-467.83 1107.36,-376.39 1093.51,-337"/>
<polygon fill="midnightblue" stroke="midnightblue" points="1096.74,-335.63 1090.12,-327.36 1090.13,-337.95 1096.74,-335.63"/>
</g>
</g>
</svg>
        <g id="navigator" transform="translate(0 0)" fill="#404254">
                <rect fill="#f2f5e9" fill-opacity="0.5" stroke="#606060" stroke-width=".5" x="0" y="0" width="60" height="60"/>
                <use id="zoomplus" xlink:href="#zoomPlus" x="17" y="9" onmousedown="handleZoom(evt,'in')"/>
                <use id="zoomminus" xlink:href="#zoomMin" x="42" y="9" onmousedown="handleZoom(evt,'out')"/>
                <use id="reset" xlink:href="#resetDef" x="30" y="36" onmousedown="handleReset()"/>
                <g id="arrowUp" xlink:href="#dirArrow" transform="translate(30 24)" onmousedown="handlePan(0,-1)">
                  <use xlink:href="#rim" fill="#404040">
                        <set attributeName="fill" to="#808080" begin="arrowUp.mouseover" end="arrowUp.mouseout"/>
                  </use>
                  <path fill="none" stroke="white" stroke-width="1.5" d="M0,-3.0v7 M-2.5,-0.5L0,-3.0L2.5,-0.5"/>
                </g>
                <g id="arrowRight" xlink:href="#dirArrow" transform="rotate(90) translate(36 -43)" onmousedown="handlePan(1,0)">
                  <use xlink:href="#rim" fill="#404040">
                        <set attributeName="fill" to="#808080" begin="arrowRight.mouseover" end="arrowRight.mouseout"/>
                  </use>
                  <path fill="none" stroke="white" stroke-width="1.5" d="M0,-3.0v7 M-2.5,-0.5L0,-3.0L2.5,-0.5"/>
                </g>
                <g id="arrowDown" xlink:href="#dirArrow" transform="rotate(180) translate(-30 -48)" onmousedown="handlePan(0,1)">
                  <use xlink:href="#rim" fill="#404040">
                        <set attributeName="fill" to="#808080" begin="arrowDown.mouseover" end="arrowDown.mouseout"/>
                  </use>
                  <path fill="none" stroke="white" stroke-width="1.5" d="M0,-3.0v7 M-2.5,-0.5L0,-3.0L2.5,-0.5"/>
                </g>
                <g id="arrowLeft" xlink:href="#dirArrow" transform="rotate(270) translate(-36 17)" onmousedown="handlePan(-1,0)">
                  <use xlink:href="#rim" fill="#404040">
                        <set attributeName="fill" to="#808080" begin="arrowLeft.mouseover" end="arrowLeft.mouseout"/>
                  </use>
                  <path fill="none" stroke="white" stroke-width="1.5" d="M0,-3.0v7 M-2.5,-0.5L0,-3.0L2.5,-0.5"/>
                </g>
        </g>
        <svg viewBox="0 0 15 15" width="100%" height="30px" preserveAspectRatio="xMaxYMin meet">
         <g id="arrow_out" transform="scale(0.3 0.3)">
          <a xlink:href="coro_2shared__mutex_8hpp__incl_org.svg" target="_base">
           <rect id="button" ry="5" rx="5" y="6" x="6" height="38" width="38"
                fill="#f2f5e9" fill-opacity="0.5" stroke="#606060" stroke-width="1.0"/>
           <path id="arrow"
             d="M 11.500037,31.436501 C 11.940474,20.09759 22.043105,11.32322 32.158766,21.979434 L 37.068811,17.246167 C 37.068811,17.246167 37.088388,32 37.088388,32 L 22.160133,31.978069 C 22.160133,31.978069 26.997745,27.140456 26.997745,27.140456 C 18.528582,18.264221 13.291696,25.230495 11.500037,31.436501 z"
             style="fill:#404040;"/>
          </a>
         </g>
        </svg>
</svg>
