<?xml version="1.0" encoding="UTF-8" standalone="no"?>
<!DOCTYPE svg PUBLIC "-//W3C//DTD SVG 1.1//EN"
 "http://www.w3.org/Graphics/SVG/1.1/DTD/svg11.dtd">
<!-- Generated by graphviz version 9.0.0 (20230911.1827)
 -->
<!-- Title: include/yaclib/coro/coro.hpp Pages: 1 -->
<!--zoomable 238 -->

<svg id="main" version="1.1" xmlns="http://www.w3.org/2000/svg" xmlns:xlink="http://www.w3.org/1999/xlink" xml:space="preserve" onload="init(evt)">
<style type="text/css"><![CDATA[
.node, .edge {opacity: 0.7;}
.node.selected, .edge.selected {opacity: 1;}
.edge:hover path { stroke: red; }
.edge:hover polygon { stroke: red; fill: red; }
]]></style>

<defs>
  <circle id="rim" cx="0" cy="0" r="7"/>
  <circle id="rim2" cx="0" cy="0" r="3.5"/>
  <g id="zoomPlus">
    <use xlink:href="#rim" fill="#404040"><set attributeName="fill" to="#808080" begin="zoomplus.mouseover" end="zoomplus.mouseout"/></use>
    <path d="M-4,0h8M0,-4v8" fill="none" stroke="white" stroke-width="1.5" pointer-events="none"/>
  </g>
  <g id="zoomMin">
    <use xlink:href="#rim" fill="#404040"><set attributeName="fill" to="#808080" begin="zoomminus.mouseover" end="zoomminus.mouseout"/></use>
    <path d="M-4,0h8" fill="none" stroke="white" stroke-width="1.5" pointer-events="none"/>
  </g>
  <g id="arrowUp" transform="translate(30 24)">
    <use xlink:href="#rim"/>
    <path pointer-events="none" fill="none" stroke="white" stroke-width="1.5" d="M0,-3.0v7 M-2.5,-0.5L0,-3.0L2.5,-0.5"/>
  </g>
  <g id="arrowRight" transform="rotate(90) translate(36 -43)">
    <use xlink:href="#rim"/>
    <path pointer-events="none" fill="none" stroke="white" stroke-width="1.5" d="M0,-3.0v7 M-2.5,-0.5L0,-3.0L2.5,-0.5"/>
  </g>
  <g id="arrowDown" transform="rotate(180) translate(-30 -48)">
    <use xlink:href="#rim"/>
    <path pointer-events="none" fill="none" stroke="white" stroke-width="1.5" d="M0,-3.0v7 M-2.5,-0.5L0,-3.0L2.5,-0.5"/>
  </g>
  <g id="arrowLeft" transform="rotate(270) translate(-36 17)">
    <use xlink:href="#rim"/>
    <path pointer-events="none" fill="none" stroke="white" stroke-width="1.5" d="M0,-3.0v7 M-2.5,-0.5L0,-3.0L2.5,-0.5"/>
  </g>
  <g id="resetDef">
    <use xlink:href="#rim2" fill="#404040"><set attributeName="fill" to="#808080" begin="reset.mouseover" end="reset.mouseout"/></use>
  </g>
</defs>
<script type="application/ecmascript">
var viewWidth = 1157;
var viewHeight = 238;
var sectionId = 'dynsection-1';
</script>
<script type="application/ecmascript" xlink:href="svg.min.js"/>
<svg id="graph" class="graph">
<g id="viewport">
<title>include/yaclib/coro/coro.hpp</title>
<!-- Node1 -->
<g id="Node000001" class="node">
<title>Node1</title>
<g id="a_Node000001"><a xlink:title=" ">
<polygon fill="#999999" stroke="#666666" points="557.46,-230 461.21,-230 461.21,-199.5 557.46,-199.5 557.46,-230"/>
<text text-anchor="start" x="469.21" y="-216.5" font-family="Helvetica,sans-Serif" font-size="10.00">include/yaclib/coro</text>
<text text-anchor="middle" x="509.34" y="-205.25" font-family="Helvetica,sans-Serif" font-size="10.00">/coro.hpp</text>
</a>
</g>
</g>
<!-- Node2 -->
<g id="Node000002" class="node">
<title>Node2</title>
<g id="a_Node000002"><a xlink:href="await_8hpp.html" target="_top" xlink:title=" ">
<polygon fill="white" stroke="#666666" points="96.46,-97 0.21,-97 0.21,-66.5 96.46,-66.5 96.46,-97"/>
<text text-anchor="start" x="8.21" y="-83.5" font-family="Helvetica,sans-Serif" font-size="10.00">include/yaclib/coro</text>
<text text-anchor="middle" x="48.34" y="-72.25" font-family="Helvetica,sans-Serif" font-size="10.00">/await.hpp</text>
</a>
</g>
</g>
<!-- Node1&#45;&gt;Node2 -->
<g id="edge1_Node000001_Node000002" class="edge">
<title>Node1&#45;&gt;Node2</title>
<g id="a_edge1_Node000001_Node000002"><a xlink:title=" ">
<path fill="none" stroke="#63b8ff" d="M449.6,-212.19C322.73,-208.25 35.61,-195.84 6.34,-163.5 -11.69,-143.58 12.75,-114.51 31.2,-97.22"/>
<polygon fill="#63b8ff" stroke="#63b8ff" points="449.38,-215.68 459.48,-212.49 449.59,-208.69 449.38,-215.68"/>
</a>
</g>
</g>
<!-- Node3 -->
<g id="Node000003" class="node">
<title>Node3</title>
<g id="a_Node000003"><a xlink:href="await__on_8hpp.html" target="_top" xlink:title=" ">
<polygon fill="white" stroke="#666666" points="243.46,-97 147.21,-97 147.21,-66.5 243.46,-66.5 243.46,-97"/>
<text text-anchor="start" x="155.21" y="-83.5" font-family="Helvetica,sans-Serif" font-size="10.00">include/yaclib/coro</text>
<text text-anchor="middle" x="195.34" y="-72.25" font-family="Helvetica,sans-Serif" font-size="10.00">/await_on.hpp</text>
</a>
</g>
</g>
<!-- Node1&#45;&gt;Node3 -->
<g id="edge2_Node000001_Node000003" class="edge">
<title>Node1&#45;&gt;Node3</title>
<g id="a_edge2_Node000001_Node000003"><a xlink:title=" ">
<path fill="none" stroke="#63b8ff" d="M449.33,-213.34C365.42,-211.36 219.52,-202.25 186.34,-163.5 170.65,-145.18 179.93,-115.3 187.83,-97.49"/>
<polygon fill="#63b8ff" stroke="#63b8ff" points="449.16,-216.84 459.23,-213.55 449.31,-209.84 449.16,-216.84"/>
</a>
</g>
</g>
<!-- Node4 -->
<g id="Node000004" class="node">
<title>Node4</title>
<g id="a_Node000004"><a xlink:href="current__executor_8hpp.html" target="_top" xlink:title=" ">
<polygon fill="white" stroke="#666666" points="461.84,-163.5 352.84,-163.5 352.84,-133 461.84,-133 461.84,-163.5"/>
<text text-anchor="start" x="360.84" y="-150" font-family="Helvetica,sans-Serif" font-size="10.00">include/yaclib/coro</text>
<text text-anchor="middle" x="407.34" y="-138.75" font-family="Helvetica,sans-Serif" font-size="10.00">/current_executor.hpp</text>
</a>
</g>
</g>
<!-- Node1&#45;&gt;Node4 -->
<g id="edge3_Node000001_Node000004" class="edge">
<title>Node1&#45;&gt;Node4</title>
<g id="a_edge3_Node000001_Node000004"><a xlink:title=" ">
<path fill="none" stroke="#63b8ff" d="M476.7,-193.11C461.62,-183.58 444.07,-172.48 430.39,-163.83"/>
<polygon fill="#63b8ff" stroke="#63b8ff" points="474.59,-195.92 484.91,-198.31 478.33,-190 474.59,-195.92"/>
</a>
</g>
</g>
<!-- Node5 -->
<g id="Node000005" class="node">
<title>Node5</title>
<g id="a_Node000005"><a xlink:href="await__awaiter_8hpp.html" target="_top" xlink:title=" ">
<polygon fill="white" stroke="#666666" points="138.96,-163.5 15.71,-163.5 15.71,-133 138.96,-133 138.96,-163.5"/>
<text text-anchor="start" x="23.71" y="-150" font-family="Helvetica,sans-Serif" font-size="10.00">include/yaclib/coro</text>
<text text-anchor="middle" x="77.34" y="-138.75" font-family="Helvetica,sans-Serif" font-size="10.00">/detail/await_awaiter.hpp</text>
</a>
</g>
</g>
<!-- Node1&#45;&gt;Node5 -->
<g id="edge4_Node000001_Node000005" class="edge">
<title>Node1&#45;&gt;Node5</title>
<g id="a_edge4_Node000001_Node000005"><a xlink:title=" ">
<path fill="none" stroke="#63b8ff" d="M449.52,-206.14C378.68,-196.94 257.19,-180.56 153.34,-163.5 148.7,-162.74 143.91,-161.92 139.1,-161.07"/>
<polygon fill="#63b8ff" stroke="#63b8ff" points="449,-209.61 459.36,-207.42 449.89,-202.66 449,-209.61"/>
</a>
</g>
</g>
<!-- Node6 -->
<g id="Node000006" class="node">
<title>Node6</title>
<g id="a_Node000006"><a xlink:href="await__on__awaiter_8hpp.html" target="_top" xlink:title=" ">
<polygon fill="white" stroke="#666666" points="334.84,-163.5 195.84,-163.5 195.84,-133 334.84,-133 334.84,-163.5"/>
<text text-anchor="start" x="203.84" y="-150" font-family="Helvetica,sans-Serif" font-size="10.00">include/yaclib/coro</text>
<text text-anchor="middle" x="265.34" y="-138.75" font-family="Helvetica,sans-Serif" font-size="10.00">/detail/await_on_awaiter.hpp</text>
</a>
</g>
</g>
<!-- Node1&#45;&gt;Node6 -->
<g id="edge6_Node000001_Node000006" class="edge">
<title>Node1&#45;&gt;Node6</title>
<g id="a_edge6_Node000001_Node000006"><a xlink:title=" ">
<path fill="none" stroke="#63b8ff" d="M449.84,-198.02C410.57,-187.64 359.46,-174.13 321,-163.96"/>
<polygon fill="#63b8ff" stroke="#63b8ff" points="448.81,-201.37 459.38,-200.54 450.6,-194.6 448.81,-201.37"/>
</a>
</g>
</g>
<!-- Node7 -->
<g id="Node000007" class="node">
<title>Node7</title>
<g id="a_Node000007"><a xlink:href="mutex__awaiter_8hpp.html" target="_top" xlink:title=" ">
<polygon fill="white" stroke="#666666" points="1035.46,-163.5 909.21,-163.5 909.21,-133 1035.46,-133 1035.46,-163.5"/>
<text text-anchor="start" x="917.21" y="-150" font-family="Helvetica,sans-Serif" font-size="10.00">include/yaclib/coro</text>
<text text-anchor="middle" x="972.34" y="-138.75" font-family="Helvetica,sans-Serif" font-size="10.00">/detail/mutex_awaiter.hpp</text>
</a>
</g>
</g>
<!-- Node1&#45;&gt;Node7 -->
<g id="edge8_Node000001_Node000007" class="edge">
<title>Node1&#45;&gt;Node7</title>
<g id="a_edge8_Node000001_Node000007"><a xlink:title=" ">
<path fill="none" stroke="#63b8ff" d="M568.76,-206.48C643.29,-197.22 774.94,-180.39 887.34,-163.5 894.29,-162.46 901.56,-161.31 908.79,-160.15"/>
<polygon fill="#63b8ff" stroke="#63b8ff" points="568.74,-202.96 559.25,-207.66 569.6,-209.91 568.74,-202.96"/>
</a>
</g>
</g>
<!-- Node8 -->
<g id="Node000008" class="node">
<title>Node8</title>
<g id="a_Node000008"><a xlink:href="coro_2mutex_8hpp.html" target="_top" xlink:title=" ">
<polygon fill="white" stroke="#666666" points="803.46,-30.5 707.21,-30.5 707.21,0 803.46,0 803.46,-30.5"/>
<text text-anchor="start" x="715.21" y="-17" font-family="Helvetica,sans-Serif" font-size="10.00">include/yaclib/coro</text>
<text text-anchor="middle" x="755.34" y="-5.75" font-family="Helvetica,sans-Serif" font-size="10.00">/mutex.hpp</text>
</a>
</g>
</g>
<!-- Node1&#45;&gt;Node8 -->
<g id="edge22_Node000001_Node000008" class="edge">
<title>Node1&#45;&gt;Node8</title>
<g id="a_edge22_Node000001_Node000008"><a xlink:title=" ">
<path fill="none" stroke="#63b8ff" d="M503.7,-187.76C498.28,-155.19 494.74,-99.64 524.34,-66.5 548.12,-39.87 646.29,-26.23 706.74,-20.22"/>
<polygon fill="#63b8ff" stroke="#63b8ff" points="500.25,-188.34 505.52,-197.53 507.13,-187.06 500.25,-188.34"/>
</a>
</g>
</g>
<!-- Node9 -->
<g id="Node000009" class="node">
<title>Node9</title>
<g id="a_Node000009"><a xlink:href="coro_2shared__mutex_8hpp.html" target="_top" xlink:title=" ">
<polygon fill="white" stroke="#666666" points="1025.21,-97 927.46,-97 927.46,-66.5 1025.21,-66.5 1025.21,-97"/>
<text text-anchor="start" x="935.46" y="-83.5" font-family="Helvetica,sans-Serif" font-size="10.00">include/yaclib/coro</text>
<text text-anchor="middle" x="976.34" y="-72.25" font-family="Helvetica,sans-Serif" font-size="10.00">/shared_mutex.hpp</text>
</a>
</g>
</g>
<!-- Node1&#45;&gt;Node9 -->
<g id="edge23_Node000001_Node000009" class="edge">
<title>Node1&#45;&gt;Node9</title>
<g id="a_edge23_Node000001_Node000009"><a xlink:title=" ">
<path fill="none" stroke="#63b8ff" d="M569.07,-208.27C629.25,-201.66 724.29,-188.21 803.34,-163.5 857.91,-146.44 917.49,-115.71 950.55,-97.47"/>
<polygon fill="#63b8ff" stroke="#63b8ff" points="568.95,-204.76 559.38,-209.31 569.7,-211.73 568.95,-204.76"/>
</a>
</g>
</g>
<!-- Node10 -->
<g id="Node000010" class="node">
<title>Node10</title>
<g id="a_Node000010"><a xlink:href="on__awaiter_8hpp.html" target="_top" xlink:title=" ">
<polygon fill="white" stroke="#666666" points="909.59,-97 799.09,-97 799.09,-66.5 909.59,-66.5 909.59,-97"/>
<text text-anchor="start" x="807.09" y="-83.5" font-family="Helvetica,sans-Serif" font-size="10.00">include/yaclib/coro</text>
<text text-anchor="middle" x="854.34" y="-72.25" font-family="Helvetica,sans-Serif" font-size="10.00">/detail/on_awaiter.hpp</text>
</a>
</g>
</g>
<!-- Node1&#45;&gt;Node10 -->
<g id="edge11_Node000001_Node000010" class="edge">
<title>Node1&#45;&gt;Node10</title>
<g id="a_edge11_Node000001_Node000010"><a xlink:title=" ">
<path fill="none" stroke="#63b8ff" d="M568.76,-211.72C623.56,-207.72 705.8,-196.2 769.34,-163.5 800.83,-147.29 828.78,-115.81 843.45,-97.31"/>
<polygon fill="#63b8ff" stroke="#63b8ff" points="568.75,-208.21 559.01,-212.36 569.22,-215.2 568.75,-208.21"/>
</a>
</g>
</g>
<!-- Node12 -->
<g id="Node000012" class="node">
<title>Node12</title>
<g id="a_Node000012"><a xlink:href="promise__type_8hpp.html" target="_top" xlink:title=" ">
<polygon fill="white" stroke="#666666" points="759.84,-163.5 638.84,-163.5 638.84,-133 759.84,-133 759.84,-163.5"/>
<text text-anchor="start" x="646.84" y="-150" font-family="Helvetica,sans-Serif" font-size="10.00">include/yaclib/coro</text>
<text text-anchor="middle" x="699.34" y="-138.75" font-family="Helvetica,sans-Serif" font-size="10.00">/detail/promise_type.hpp</text>
</a>
</g>
</g>
<!-- Node1&#45;&gt;Node12 -->
<g id="edge14_Node000001_Node000012" class="edge">
<title>Node1&#45;&gt;Node12</title>
<g id="a_edge14_Node000001_Node000012"><a xlink:title=" ">
<path fill="none" stroke="#63b8ff" d="M562.97,-195.54C592.41,-185.55 628.44,-173.32 656.07,-163.94"/>
<polygon fill="#63b8ff" stroke="#63b8ff" points="562.23,-192.1 553.88,-198.63 564.48,-198.73 562.23,-192.1"/>
</a>
</g>
</g>
<!-- Node15 -->
<g id="Node000015" class="node">
<title>Node15</title>
<g id="a_Node000015"><a xlink:href="guard__sticky_8hpp.html" target="_top" xlink:title=" ">
<polygon fill="white" stroke="#666666" points="477.46,-97 381.21,-97 381.21,-66.5 477.46,-66.5 477.46,-97"/>
<text text-anchor="start" x="389.21" y="-83.5" font-family="Helvetica,sans-Serif" font-size="10.00">include/yaclib/coro</text>
<text text-anchor="middle" x="429.34" y="-72.25" font-family="Helvetica,sans-Serif" font-size="10.00">/guard_sticky.hpp</text>
</a>
</g>
</g>
<!-- Node1&#45;&gt;Node15 -->
<g id="edge20_Node000001_Node000015" class="edge">
<title>Node1&#45;&gt;Node15</title>
<g id="a_edge20_Node000001_Node000015"><a xlink:title=" ">
<path fill="none" stroke="#63b8ff" d="M499.54,-188.75C492.64,-172.34 482.65,-150.72 471.34,-133 463.14,-120.16 452.02,-106.99 443.28,-97.36"/>
<polygon fill="#63b8ff" stroke="#63b8ff" points="496.2,-189.83 503.23,-197.76 502.68,-187.18 496.2,-189.83"/>
</a>
</g>
</g>
<!-- Node16 -->
<g id="Node000016" class="node">
<title>Node16</title>
<g id="a_Node000016"><a xlink:href="yield_8hpp.html" target="_top" xlink:title=" ">
<polygon fill="white" stroke="#666666" points="1149.46,-163.5 1053.21,-163.5 1053.21,-133 1149.46,-133 1149.46,-163.5"/>
<text text-anchor="start" x="1061.21" y="-150" font-family="Helvetica,sans-Serif" font-size="10.00">include/yaclib/coro</text>
<text text-anchor="middle" x="1101.34" y="-138.75" font-family="Helvetica,sans-Serif" font-size="10.00">/yield.hpp</text>
</a>
</g>
</g>
<!-- Node1&#45;&gt;Node16 -->
<g id="edge24_Node000001_Node000016" class="edge">
<title>Node1&#45;&gt;Node16</title>
<g id="a_edge24_Node000001_Node000016"><a xlink:title=" ">
<path fill="none" stroke="#63b8ff" d="M568.89,-211.1C668.09,-206.04 873.18,-192.76 1044.34,-163.5 1047.15,-163.02 1050.03,-162.47 1052.93,-161.88"/>
<polygon fill="#63b8ff" stroke="#63b8ff" points="568.94,-207.6 559.13,-211.59 569.29,-214.59 568.94,-207.6"/>
</a>
</g>
</g>
<!-- Node5&#45;&gt;Node2 -->
<g id="edge5_Node000005_Node000002" class="edge">
<title>Node5&#45;&gt;Node2</title>
<g id="a_edge5_Node000005_Node000002"><a xlink:title=" ">
<path fill="none" stroke="#63b8ff" d="M66.06,-122.16C62.28,-113.75 58.19,-104.66 54.89,-97.33"/>
<polygon fill="#63b8ff" stroke="#63b8ff" points="62.84,-123.55 70.14,-131.23 69.23,-120.68 62.84,-123.55"/>
</a>
</g>
</g>
<!-- Node6&#45;&gt;Node3 -->
<g id="edge7_Node000006_Node000003" class="edge">
<title>Node6&#45;&gt;Node3</title>
<g id="a_edge7_Node000006_Node000003"><a xlink:title=" ">
<path fill="none" stroke="#63b8ff" d="M241.15,-124.96C231.22,-115.82 220.01,-105.48 211.16,-97.33"/>
<polygon fill="#63b8ff" stroke="#63b8ff" points="238.61,-127.39 248.34,-131.59 243.36,-122.24 238.61,-127.39"/>
</a>
</g>
</g>
<!-- Node7&#45;&gt;Node8 -->
<g id="edge9_Node000007_Node000008" class="edge">
<title>Node7&#45;&gt;Node8</title>
<g id="a_edge9_Node000007_Node000008"><a xlink:title=" ">
<path fill="none" stroke="#63b8ff" d="M1006.15,-126.19C1028.57,-109.62 1051.05,-86.14 1034.34,-66.5 1001.95,-28.44 861.29,-40.57 812.34,-30.5 809.54,-29.92 806.67,-29.3 803.78,-28.66"/>
<polygon fill="#63b8ff" stroke="#63b8ff" points="1004.41,-123.14 998.23,-131.74 1008.42,-128.87 1004.41,-123.14"/>
</a>
</g>
</g>
<!-- Node7&#45;&gt;Node9 -->
<g id="edge10_Node000007_Node000009" class="edge">
<title>Node7&#45;&gt;Node9</title>
<g id="a_edge10_Node000007_Node000009"><a xlink:title=" ">
<path fill="none" stroke="#63b8ff" d="M973.95,-121.31C974.45,-113.14 974.99,-104.41 975.43,-97.33"/>
<polygon fill="#63b8ff" stroke="#63b8ff" points="970.46,-120.91 973.34,-131.1 977.45,-121.34 970.46,-120.91"/>
</a>
</g>
</g>
<!-- Node10&#45;&gt;Node8 -->
<g id="edge12_Node000010_Node000008" class="edge">
<title>Node10&#45;&gt;Node8</title>
<g id="a_edge12_Node000010_Node000008"><a xlink:title=" ">
<path fill="none" stroke="#63b8ff" d="M822.24,-59.84C807.7,-50.37 790.86,-39.39 777.71,-30.83"/>
<polygon fill="#63b8ff" stroke="#63b8ff" points="820.32,-62.76 830.6,-65.29 824.14,-56.9 820.32,-62.76"/>
</a>
</g>
</g>
<!-- Node11 -->
<g id="Node000011" class="node">
<title>Node11</title>
<g id="a_Node000011"><a xlink:href="on_8hpp.html" target="_top" xlink:title=" ">
<polygon fill="white" stroke="#666666" points="917.46,-30.5 821.21,-30.5 821.21,0 917.46,0 917.46,-30.5"/>
<text text-anchor="start" x="829.21" y="-17" font-family="Helvetica,sans-Serif" font-size="10.00">include/yaclib/coro</text>
<text text-anchor="middle" x="869.34" y="-5.75" font-family="Helvetica,sans-Serif" font-size="10.00">/on.hpp</text>
</a>
</g>
</g>
<!-- Node10&#45;&gt;Node11 -->
<g id="edge13_Node000010_Node000011" class="edge">
<title>Node10&#45;&gt;Node11</title>
<g id="a_edge13_Node000010_Node000011"><a xlink:title=" ">
<path fill="none" stroke="#63b8ff" d="M860.3,-55.09C862.22,-46.84 864.28,-37.99 865.95,-30.83"/>
<polygon fill="#63b8ff" stroke="#63b8ff" points="856.94,-54.11 858.08,-64.64 863.76,-55.69 856.94,-54.11"/>
</a>
</g>
</g>
<!-- Node12&#45;&gt;Node8 -->
<g id="edge17_Node000012_Node000008" class="edge">
<title>Node12&#45;&gt;Node8</title>
<g id="a_edge17_Node000012_Node000008"><a xlink:title=" ">
<path fill="none" stroke="#63b8ff" d="M730.32,-125.33C739.02,-117.47 747.44,-107.83 752.34,-97 762.05,-75.52 760.3,-47.46 757.96,-30.7"/>
<polygon fill="#63b8ff" stroke="#63b8ff" points="728.23,-122.52 722.8,-131.62 732.72,-127.89 728.23,-122.52"/>
</a>
</g>
</g>
<!-- Node12&#45;&gt;Node9 -->
<g id="edge18_Node000012_Node000009" class="edge">
<title>Node12&#45;&gt;Node9</title>
<g id="a_edge18_Node000012_Node000009"><a xlink:title=" ">
<path fill="none" stroke="#63b8ff" d="M771.43,-131C814.17,-121.29 869.39,-108.63 918.34,-97 921.16,-96.33 924.06,-95.63 926.99,-94.93"/>
<polygon fill="#63b8ff" stroke="#63b8ff" points="770.74,-127.57 761.76,-133.19 772.29,-134.4 770.74,-127.57"/>
</a>
</g>
</g>
<!-- Node12&#45;&gt;Node10 -->
<g id="edge15_Node000012_Node000010" class="edge">
<title>Node12&#45;&gt;Node10</title>
<g id="a_edge15_Node000012_Node000010"><a xlink:title=" ">
<path fill="none" stroke="#63b8ff" d="M745,-128.25C768.65,-118.41 797.09,-106.57 819.04,-97.44"/>
<polygon fill="#63b8ff" stroke="#63b8ff" points="743.79,-124.96 735.91,-132.03 746.48,-131.42 743.79,-124.96"/>
</a>
</g>
</g>
<!-- Node13 -->
<g id="Node000013" class="node">
<title>Node13</title>
<g id="a_Node000013"><a xlink:href="coro_2future_8hpp.html" target="_top" xlink:title=" ">
<polygon fill="white" stroke="#666666" points="629.46,-97 533.21,-97 533.21,-66.5 629.46,-66.5 629.46,-97"/>
<text text-anchor="start" x="541.21" y="-83.5" font-family="Helvetica,sans-Serif" font-size="10.00">include/yaclib/coro</text>
<text text-anchor="middle" x="581.34" y="-72.25" font-family="Helvetica,sans-Serif" font-size="10.00">/future.hpp</text>
</a>
</g>
</g>
<!-- Node12&#45;&gt;Node13 -->
<g id="edge16_Node000012_Node000013" class="edge">
<title>Node12&#45;&gt;Node13</title>
<g id="a_edge16_Node000012_Node000013"><a xlink:title=" ">
<path fill="none" stroke="#63b8ff" d="M662.58,-127.16C644.91,-117.5 624.13,-106.14 608.01,-97.33"/>
<polygon fill="#63b8ff" stroke="#63b8ff" points="660.78,-130.16 671.23,-131.89 664.14,-124.02 660.78,-130.16"/>
</a>
</g>
</g>
<!-- Node14 -->
<g id="Node000014" class="node">
<title>Node14</title>
<g id="a_Node000014"><a xlink:href="coro_2task_8hpp.html" target="_top" xlink:title=" ">
<polygon fill="white" stroke="#666666" points="743.46,-97 647.21,-97 647.21,-66.5 743.46,-66.5 743.46,-97"/>
<text text-anchor="start" x="655.21" y="-83.5" font-family="Helvetica,sans-Serif" font-size="10.00">include/yaclib/coro</text>
<text text-anchor="middle" x="695.34" y="-72.25" font-family="Helvetica,sans-Serif" font-size="10.00">/task.hpp</text>
</a>
</g>
</g>
<!-- Node12&#45;&gt;Node14 -->
<g id="edge19_Node000012_Node000014" class="edge">
<title>Node12&#45;&gt;Node14</title>
<g id="a_edge19_Node000012_Node000014"><a xlink:title=" ">
<path fill="none" stroke="#63b8ff" d="M697.73,-121.31C697.22,-113.14 696.68,-104.41 696.24,-97.33"/>
<polygon fill="#63b8ff" stroke="#63b8ff" points="694.22,-121.34 698.34,-131.1 701.21,-120.91 694.22,-121.34"/>
</a>
</g>
</g>
<!-- Node15&#45;&gt;Node8 -->
<g id="edge21_Node000015_Node000008" class="edge">
<title>Node15&#45;&gt;Node8</title>
<g id="a_edge21_Node000015_Node000008"><a xlink:title=" ">
<path fill="none" stroke="#63b8ff" d="M488.83,-67.03C489.67,-66.85 490.51,-66.67 491.34,-66.5 566.45,-50.73 654.04,-34.48 707.05,-24.87"/>
<polygon fill="#63b8ff" stroke="#63b8ff" points="488.21,-63.58 479.18,-69.13 489.69,-70.42 488.21,-63.58"/>
</a>
</g>
</g>
</g>
</svg>

<g id="navigator" transform="translate(0 0)" fill="#404254">
  <rect fill="#f2f5e9" fill-opacity="0.5" stroke="#606060" stroke-width=".5" x="0" y="0" width="60" height="60"/>
  <use id="zoomplus" xlink:href="#zoomPlus" x="17" y="9" onmousedown="handleZoom(evt,'in')"/>
  <use id="zoomminus" xlink:href="#zoomMin" x="42" y="9" onmousedown="handleZoom(evt,'out')"/>
  <use id="reset" xlink:href="#resetDef" x="30" y="36" onmousedown="handleReset()"/>
   <use id="arrowup" xlink:href="#arrowUp" x="0" y="0" onmousedown="handlePan(0,-1)"/>
  <use id="arrowright" xlink:href="#arrowRight" x="0" y="0" onmousedown="handlePan(1,0)"/>
  <use id="arrowdown" xlink:href="#arrowDown" x="0" y="0" onmousedown="handlePan(0,1)"/>
  <use id="arrowleft" xlink:href="#arrowLeft" x="0" y="0" onmousedown="handlePan(-1,0)"/>
</g>
<svg viewBox="0 0 15 15" width="100%" height="30px" preserveAspectRatio="xMaxYMin meet">
 <g id="arrow_out" transform="scale(0.3 0.3)">
  <a xlink:href="coro_8hpp__dep__incl_org.svg" target="_base">
   <rect id="button" ry="5" rx="5" y="6" x="6" height="38" width="38"
        fill="#f2f5e9" fill-opacity="0.5" stroke="#606060" stroke-width="1.0"/>
   <path id="arrow"
     d="M 11.500037,31.436501 C 11.940474,20.09759 22.043105,11.32322 32.158766,21.979434 L 37.068811,17.246167 C 37.068811,17.246167 37.088388,32 37.088388,32 L 22.160133,31.978069 C 22.160133,31.978069 26.997745,27.140456 26.997745,27.140456 C 18.528582,18.264221 13.291696,25.230495 11.500037,31.436501 z"
     style="fill:#404040;"/>
  </a>
 </g>
</svg>

<style type='text/css'>
<![CDATA[
[data-mouse-over-selected='false'] { opacity: 0.7; }
[data-mouse-over-selected='true']  { opacity: 1.0; }
]]>
</style>
<script type="application/ecmascript"><![CDATA[
document.addEventListener('DOMContentLoaded', (event) => {
  highlightEdges();
  highlightAdjacentNodes();
});
]]></script>
</svg>
