<?xml version="1.0" encoding="UTF-8" standalone="no"?>
<!DOCTYPE svg PUBLIC "-//W3C//DTD SVG 1.1//EN"
 "http://www.w3.org/Graphics/SVG/1.1/DTD/svg11.dtd">
<!-- Generated by graphviz version 9.0.0 (20230911.1827)
 -->
<!-- Title: include/yaclib/util/detail/default_event.hpp Pages: 1 -->
<svg width="2203pt" height="504pt"
 viewBox="0.00 0.00 2202.50 504.00" xmlns="http://www.w3.org/2000/svg" xmlns:xlink="http://www.w3.org/1999/xlink">
<g id="graph0" class="graph" transform="scale(1 1) rotate(0) translate(4 500)">
<title>include/yaclib/util/detail/default_event.hpp</title>
<!-- Node1 -->
<g id="Node000001" class="node">
<title>Node1</title>
<g id="a_Node000001"><a xlink:title=" ">
<polygon fill="#999999" stroke="#666666" points="1372.25,-496 1250.5,-496 1250.5,-465.5 1372.25,-465.5 1372.25,-496"/>
<text text-anchor="start" x="1258.5" y="-482.5" font-family="Helvetica,sans-Serif" font-size="10.00">include/yaclib/util</text>
<text text-anchor="middle" x="1311.38" y="-471.25" font-family="Helvetica,sans-Serif" font-size="10.00">/detail/default_event.hpp</text>
</a>
</g>
</g>
<!-- Node2 -->
<g id="Node000002" class="node">
<title>Node2</title>
<g id="a_Node000002"><a xlink:href="one__shot__event_8hpp.html" target="_top" xlink:title=" ">
<polygon fill="white" stroke="#666666" points="821.38,-429.5 715.38,-429.5 715.38,-399 821.38,-399 821.38,-429.5"/>
<text text-anchor="start" x="723.38" y="-416" font-family="Helvetica,sans-Serif" font-size="10.00">include/yaclib/algo</text>
<text text-anchor="middle" x="768.38" y="-404.75" font-family="Helvetica,sans-Serif" font-size="10.00">/one_shot_event.hpp</text>
</a>
</g>
</g>
<!-- Node1&#45;&gt;Node2 -->
<g id="edge1_Node000001_Node000002" class="edge">
<title>Node1&#45;&gt;Node2</title>
<g id="a_edge1_Node000001_Node000002"><a xlink:title=" ">
<path fill="none" stroke="#63b8ff" d="M1238.76,-471.12C1128.05,-457.97 919.59,-433.21 821.7,-421.58"/>
<polygon fill="#63b8ff" stroke="#63b8ff" points="1238.3,-474.59 1248.64,-472.3 1239.12,-467.64 1238.3,-474.59"/>
</a>
</g>
</g>
<!-- Node6 -->
<g id="Node000006" class="node">
<title>Node6</title>
<g id="a_Node000006"><a xlink:href="wait__impl_8hpp.html" target="_top" xlink:title=" ">
<polygon fill="white" stroke="#666666" points="1711.62,-429.5 1607.12,-429.5 1607.12,-399 1711.62,-399 1711.62,-429.5"/>
<text text-anchor="start" x="1615.12" y="-416" font-family="Helvetica,sans-Serif" font-size="10.00">include/yaclib/async</text>
<text text-anchor="middle" x="1659.38" y="-404.75" font-family="Helvetica,sans-Serif" font-size="10.00">/detail/wait_impl.hpp</text>
</a>
</g>
</g>
<!-- Node1&#45;&gt;Node6 -->
<g id="edge5_Node000001_Node000006" class="edge">
<title>Node1&#45;&gt;Node6</title>
<g id="a_edge5_Node000001_Node000006"><a xlink:title=" ">
<path fill="none" stroke="#63b8ff" d="M1383.61,-466.36C1450.12,-454.03 1547.22,-436.04 1606.69,-425.02"/>
<polygon fill="#63b8ff" stroke="#63b8ff" points="1383.07,-462.9 1373.88,-468.17 1384.35,-469.78 1383.07,-462.9"/>
</a>
</g>
</g>
<!-- Node7 -->
<g id="Node000007" class="node">
<title>Node7</title>
<g id="a_Node000007"><a xlink:href="wait_8hpp.html" target="_top" xlink:title=" ">
<polygon fill="white" stroke="#666666" points="1362.88,-363 1259.88,-363 1259.88,-332.5 1362.88,-332.5 1362.88,-363"/>
<text text-anchor="start" x="1267.88" y="-349.5" font-family="Helvetica,sans-Serif" font-size="10.00">include/yaclib/async</text>
<text text-anchor="middle" x="1311.38" y="-338.25" font-family="Helvetica,sans-Serif" font-size="10.00">/wait.hpp</text>
</a>
</g>
</g>
<!-- Node1&#45;&gt;Node7 -->
<g id="edge64_Node000001_Node000007" class="edge">
<title>Node1&#45;&gt;Node7</title>
<g id="a_edge64_Node000001_Node000007"><a xlink:title=" ">
<path fill="none" stroke="#63b8ff" d="M1311.38,-453.93C1311.38,-426.84 1311.38,-385.21 1311.38,-363.33"/>
<polygon fill="#63b8ff" stroke="#63b8ff" points="1307.88,-453.72 1311.38,-463.72 1314.88,-453.72 1307.88,-453.72"/>
</a>
</g>
</g>
<!-- Node3 -->
<g id="Node000003" class="node">
<title>Node3</title>
<g id="a_Node000003"><a xlink:href="wait__group_8hpp.html" target="_top" xlink:title=" ">
<polygon fill="white" stroke="#666666" points="107.12,-230 11.62,-230 11.62,-199.5 107.12,-199.5 107.12,-230"/>
<text text-anchor="start" x="19.62" y="-216.5" font-family="Helvetica,sans-Serif" font-size="10.00">include/yaclib/algo</text>
<text text-anchor="middle" x="59.38" y="-205.25" font-family="Helvetica,sans-Serif" font-size="10.00">/wait_group.hpp</text>
</a>
</g>
</g>
<!-- Node2&#45;&gt;Node3 -->
<g id="edge2_Node000002_Node000003" class="edge">
<title>Node2&#45;&gt;Node3</title>
<g id="a_edge2_Node000002_Node000003"><a xlink:title=" ">
<path fill="none" stroke="#63b8ff" d="M704.7,-395.51C564.45,-356.45 231.5,-263.7 107.24,-229.08"/>
<polygon fill="#63b8ff" stroke="#63b8ff" points="703.63,-398.85 714.21,-398.16 705.51,-392.11 703.63,-398.85"/>
</a>
</g>
</g>
<!-- Node5 -->
<g id="Node000005" class="node">
<title>Node5</title>
<g id="a_Node000005"><a xlink:href="one__shot__event_8cpp.html" target="_top" xlink:title=" ">
<polygon fill="white" stroke="#666666" points="838.62,-357.38 698.12,-357.38 698.12,-338.12 838.62,-338.12 838.62,-357.38"/>
<text text-anchor="middle" x="768.38" y="-343.88" font-family="Helvetica,sans-Serif" font-size="10.00">src/algo/one_shot_event.cpp</text>
</a>
</g>
</g>
<!-- Node2&#45;&gt;Node5 -->
<g id="edge4_Node000002_Node000005" class="edge">
<title>Node2&#45;&gt;Node5</title>
<g id="a_edge4_Node000002_Node000005"><a xlink:title=" ">
<path fill="none" stroke="#63b8ff" d="M768.38,-387.34C768.38,-376.76 768.38,-365.25 768.38,-357.57"/>
<polygon fill="#63b8ff" stroke="#63b8ff" points="764.88,-387.1 768.38,-397.1 771.88,-387.1 764.88,-387.1"/>
</a>
</g>
</g>
<!-- Node4 -->
<g id="Node000004" class="node">
<title>Node4</title>
<g id="a_Node000004"><a xlink:href="wait__group_8cpp.html" target="_top" xlink:title=" ">
<polygon fill="white" stroke="#666666" points="118.75,-157.88 0,-157.88 0,-138.62 118.75,-138.62 118.75,-157.88"/>
<text text-anchor="middle" x="59.38" y="-144.38" font-family="Helvetica,sans-Serif" font-size="10.00">src/algo/wait_group.cpp</text>
</a>
</g>
</g>
<!-- Node3&#45;&gt;Node4 -->
<g id="edge3_Node000003_Node000004" class="edge">
<title>Node3&#45;&gt;Node4</title>
<g id="a_edge3_Node000003_Node000004"><a xlink:title=" ">
<path fill="none" stroke="#63b8ff" d="M59.38,-187.84C59.38,-177.26 59.38,-165.75 59.38,-158.07"/>
<polygon fill="#63b8ff" stroke="#63b8ff" points="55.88,-187.6 59.38,-197.6 62.88,-187.6 55.88,-187.6"/>
</a>
</g>
</g>
<!-- Node6&#45;&gt;Node7 -->
<g id="edge6_Node000006_Node000007" class="edge">
<title>Node6&#45;&gt;Node7</title>
<g id="a_edge6_Node000006_Node000007"><a xlink:title=" ">
<path fill="none" stroke="#63b8ff" d="M1595.69,-401.45C1528.87,-389.06 1425.11,-369.83 1363.14,-358.34"/>
<polygon fill="#63b8ff" stroke="#63b8ff" points="1594.94,-404.87 1605.41,-403.25 1596.22,-397.98 1594.94,-404.87"/>
</a>
</g>
</g>
<!-- Node23 -->
<g id="Node000023" class="node">
<title>Node23</title>
<g id="a_Node000023"><a xlink:href="wait__for_8hpp.html" target="_top" xlink:title=" ">
<polygon fill="white" stroke="#666666" points="1979.88,-230 1876.88,-230 1876.88,-199.5 1979.88,-199.5 1979.88,-230"/>
<text text-anchor="start" x="1884.88" y="-216.5" font-family="Helvetica,sans-Serif" font-size="10.00">include/yaclib/async</text>
<text text-anchor="middle" x="1928.38" y="-205.25" font-family="Helvetica,sans-Serif" font-size="10.00">/wait_for.hpp</text>
</a>
</g>
</g>
<!-- Node6&#45;&gt;Node23 -->
<g id="edge61_Node000006_Node000023" class="edge">
<title>Node6&#45;&gt;Node23</title>
<g id="a_edge61_Node000006_Node000023"><a xlink:title=" ">
<path fill="none" stroke="#63b8ff" d="M1655.55,-387.48C1652.25,-354.68 1652.14,-298.41 1683.38,-266 1739.69,-207.57 1782.93,-246.56 1862.38,-230 1866.97,-229.04 1871.73,-228.04 1876.51,-227.02"/>
<polygon fill="#63b8ff" stroke="#63b8ff" points="1652.06,-387.79 1656.73,-397.3 1659.01,-386.95 1652.06,-387.79"/>
</a>
</g>
</g>
<!-- Node24 -->
<g id="Node000024" class="node">
<title>Node24</title>
<g id="a_Node000024"><a xlink:href="wait__until_8hpp.html" target="_top" xlink:title=" ">
<polygon fill="white" stroke="#666666" points="2100.88,-230 1997.88,-230 1997.88,-199.5 2100.88,-199.5 2100.88,-230"/>
<text text-anchor="start" x="2005.88" y="-216.5" font-family="Helvetica,sans-Serif" font-size="10.00">include/yaclib/async</text>
<text text-anchor="middle" x="2049.38" y="-205.25" font-family="Helvetica,sans-Serif" font-size="10.00">/wait_until.hpp</text>
</a>
</g>
</g>
<!-- Node6&#45;&gt;Node24 -->
<g id="edge62_Node000006_Node000024" class="edge">
<title>Node6&#45;&gt;Node24</title>
<g id="a_edge62_Node000006_Node000024"><a xlink:title=" ">
<path fill="none" stroke="#63b8ff" d="M1671.42,-388.62C1681.28,-370.78 1696.78,-347.3 1716.38,-332.5 1761.66,-298.31 1915.78,-252.47 1997.51,-229.74"/>
<polygon fill="#63b8ff" stroke="#63b8ff" points="1668.42,-386.8 1666.86,-397.28 1674.61,-390.06 1668.42,-386.8"/>
</a>
</g>
</g>
<!-- Node40 -->
<g id="Node000040" class="node">
<title>Node40</title>
<g id="a_Node000040"><a xlink:href="wait__impl_8cpp.html" target="_top" xlink:title=" ">
<polygon fill="white" stroke="#666666" points="1845.5,-357.38 1725.25,-357.38 1725.25,-338.12 1845.5,-338.12 1845.5,-357.38"/>
<text text-anchor="middle" x="1785.38" y="-343.88" font-family="Helvetica,sans-Serif" font-size="10.00">src/async/wait_impl.cpp</text>
</a>
</g>
</g>
<!-- Node6&#45;&gt;Node40 -->
<g id="edge63_Node000006_Node000040" class="edge">
<title>Node6&#45;&gt;Node40</title>
<g id="a_edge63_Node000006_Node000040"><a xlink:title=" ">
<path fill="none" stroke="#63b8ff" d="M1697.91,-393.53C1721.19,-381.6 1749.76,-366.98 1767.77,-357.76"/>
<polygon fill="#63b8ff" stroke="#63b8ff" points="1696.62,-390.25 1689.31,-397.92 1699.81,-396.48 1696.62,-390.25"/>
</a>
</g>
</g>
<!-- Node8 -->
<g id="Node000008" class="node">
<title>Node8</title>
<g id="a_Node000008"><a xlink:href="async_2future_8hpp.html" target="_top" xlink:title=" ">
<polygon fill="white" stroke="#666666" points="1362.88,-296.5 1259.88,-296.5 1259.88,-266 1362.88,-266 1362.88,-296.5"/>
<text text-anchor="start" x="1267.88" y="-283" font-family="Helvetica,sans-Serif" font-size="10.00">include/yaclib/async</text>
<text text-anchor="middle" x="1311.38" y="-271.75" font-family="Helvetica,sans-Serif" font-size="10.00">/future.hpp</text>
</a>
</g>
</g>
<!-- Node7&#45;&gt;Node8 -->
<g id="edge7_Node000007_Node000008" class="edge">
<title>Node7&#45;&gt;Node8</title>
<g id="a_edge7_Node000007_Node000008"><a xlink:title=" ">
<path fill="none" stroke="#63b8ff" d="M1304.74,-320.81C1304.44,-312.64 1304.73,-303.91 1305.62,-296.83"/>
<polygon fill="#63b8ff" stroke="#63b8ff" points="1301.24,-320.9 1305.5,-330.6 1308.22,-320.37 1301.24,-320.9"/>
</a>
</g>
</g>
<!-- Node36 -->
<g id="Node000036" class="node">
<title>Node36</title>
<g id="a_Node000036"><a xlink:href="async_2shared__future_8hpp.html" target="_top" xlink:title=" ">
<polygon fill="white" stroke="#666666" points="605.88,-296.5 502.88,-296.5 502.88,-266 605.88,-266 605.88,-296.5"/>
<text text-anchor="start" x="510.88" y="-283" font-family="Helvetica,sans-Serif" font-size="10.00">include/yaclib/async</text>
<text text-anchor="middle" x="554.38" y="-271.75" font-family="Helvetica,sans-Serif" font-size="10.00">/shared_future.hpp</text>
</a>
</g>
</g>
<!-- Node7&#45;&gt;Node36 -->
<g id="edge53_Node000007_Node000036" class="edge">
<title>Node7&#45;&gt;Node36</title>
<g id="a_edge53_Node000007_Node000036"><a xlink:title=" ">
<path fill="none" stroke="#63b8ff" d="M1248.22,-341.37C1101.75,-328.89 741.12,-298.16 606.33,-286.68"/>
<polygon fill="#63b8ff" stroke="#63b8ff" points="1247.87,-344.85 1258.13,-342.21 1248.47,-337.88 1247.87,-344.85"/>
</a>
</g>
</g>
<!-- Node8&#45;&gt;Node3 -->
<g id="edge8_Node000008_Node000003" class="edge">
<title>Node8&#45;&gt;Node3</title>
<g id="a_edge8_Node000008_Node000003"><a xlink:title=" ">
<path fill="none" stroke="#63b8ff" d="M1248.21,-279.29C1034.26,-275.75 337.98,-262.02 116.38,-230 113.45,-229.58 110.45,-229.07 107.44,-228.49"/>
<polygon fill="#63b8ff" stroke="#63b8ff" points="1247.95,-282.78 1258.01,-279.45 1248.07,-275.78 1247.95,-282.78"/>
</a>
</g>
</g>
<!-- Node8&#45;&gt;Node7 -->
<g id="edge30_Node000008_Node000007" class="edge">
<title>Node8&#45;&gt;Node7</title>
<g id="a_edge30_Node000008_Node000007"><a xlink:title=" ">
<path fill="none" stroke="#63b8ff" d="M1318.01,-308.13C1318.31,-316.29 1318.02,-325.02 1317.14,-332.11"/>
<polygon fill="#63b8ff" stroke="#63b8ff" points="1321.51,-308.04 1317.25,-298.34 1314.53,-308.58 1321.51,-308.04"/>
</a>
</g>
</g>
<!-- Node9 -->
<g id="Node000009" class="node">
<title>Node9</title>
<g id="a_Node000009"><a xlink:href="connect_8hpp.html" target="_top" xlink:title=" ">
<polygon fill="white" stroke="#666666" points="605.88,-230 502.88,-230 502.88,-199.5 605.88,-199.5 605.88,-230"/>
<text text-anchor="start" x="510.88" y="-216.5" font-family="Helvetica,sans-Serif" font-size="10.00">include/yaclib/async</text>
<text text-anchor="middle" x="554.38" y="-205.25" font-family="Helvetica,sans-Serif" font-size="10.00">/connect.hpp</text>
</a>
</g>
</g>
<!-- Node8&#45;&gt;Node9 -->
<g id="edge9_Node000008_Node000009" class="edge">
<title>Node8&#45;&gt;Node9</title>
<g id="a_edge9_Node000008_Node000009"><a xlink:title=" ">
<path fill="none" stroke="#63b8ff" d="M1248.47,-276.66C1131.89,-269.72 874.47,-253.1 658.38,-230 641.34,-228.18 622.79,-225.77 606.14,-223.46"/>
<polygon fill="#63b8ff" stroke="#63b8ff" points="1247.94,-280.13 1258.13,-277.23 1248.36,-273.14 1247.94,-280.13"/>
</a>
</g>
</g>
<!-- Node11 -->
<g id="Node000011" class="node">
<title>Node11</title>
<g id="a_Node000011"><a xlink:href="split_8hpp.html" target="_top" xlink:title=" ">
<polygon fill="white" stroke="#666666" points="563.88,-163.5 460.88,-163.5 460.88,-133 563.88,-133 563.88,-163.5"/>
<text text-anchor="start" x="468.88" y="-150" font-family="Helvetica,sans-Serif" font-size="10.00">include/yaclib/async</text>
<text text-anchor="middle" x="512.38" y="-138.75" font-family="Helvetica,sans-Serif" font-size="10.00">/split.hpp</text>
</a>
</g>
</g>
<!-- Node8&#45;&gt;Node11 -->
<g id="edge29_Node000008_Node000011" class="edge">
<title>Node8&#45;&gt;Node11</title>
<g id="a_edge29_Node000008_Node000011"><a xlink:title=" ">
<path fill="none" stroke="#63b8ff" d="M1248.23,-277.87C1112.2,-272.3 795.4,-256.82 691.38,-230 661.5,-222.3 584.39,-185.12 541.77,-164"/>
<polygon fill="#63b8ff" stroke="#63b8ff" points="1248,-281.37 1258.14,-278.27 1248.29,-274.37 1248,-281.37"/>
</a>
</g>
</g>
<!-- Node12 -->
<g id="Node000012" class="node">
<title>Node12</title>
<g id="a_Node000012"><a xlink:href="contract_8hpp.html" target="_top" xlink:title=" ">
<polygon fill="white" stroke="#666666" points="803.88,-230 700.88,-230 700.88,-199.5 803.88,-199.5 803.88,-230"/>
<text text-anchor="start" x="708.88" y="-216.5" font-family="Helvetica,sans-Serif" font-size="10.00">include/yaclib/async</text>
<text text-anchor="middle" x="752.38" y="-205.25" font-family="Helvetica,sans-Serif" font-size="10.00">/contract.hpp</text>
</a>
</g>
</g>
<!-- Node8&#45;&gt;Node12 -->
<g id="edge12_Node000008_Node000012" class="edge">
<title>Node8&#45;&gt;Node12</title>
<g id="a_edge12_Node000008_Node000012"><a xlink:title=" ">
<path fill="none" stroke="#63b8ff" d="M1248.3,-276.59C1153.28,-270.48 967.95,-256.19 812.38,-230 809.74,-229.56 807.04,-229.06 804.32,-228.53"/>
<polygon fill="#63b8ff" stroke="#63b8ff" points="1248,-280.08 1258.2,-277.22 1248.44,-273.1 1248,-280.08"/>
</a>
</g>
</g>
<!-- Node13 -->
<g id="Node000013" class="node">
<title>Node13</title>
<g id="a_Node000013"><a xlink:href="simple_8cpp.html" target="_top" xlink:title=" ">
<polygon fill="white" stroke="#666666" points="803.38,-163.5 703.38,-163.5 703.38,-133 803.38,-133 803.38,-163.5"/>
<text text-anchor="start" x="711.38" y="-150" font-family="Helvetica,sans-Serif" font-size="10.00">test/example/async</text>
<text text-anchor="middle" x="753.38" y="-138.75" font-family="Helvetica,sans-Serif" font-size="10.00">/simple.cpp</text>
</a>
</g>
</g>
<!-- Node8&#45;&gt;Node13 -->
<g id="edge52_Node000008_Node000013" class="edge">
<title>Node8&#45;&gt;Node13</title>
<g id="a_edge52_Node000008_Node000013"><a xlink:title=" ">
<path fill="none" stroke="#63b8ff" d="M1248.73,-269.28C1211,-261.31 1162.63,-248.61 1122.38,-230 1100.78,-220.02 1100.47,-208.32 1078.38,-199.5 1029.46,-179.98 882.24,-162.49 803.82,-154.25"/>
<polygon fill="#63b8ff" stroke="#63b8ff" points="1247.6,-272.62 1258.1,-271.21 1249,-265.77 1247.6,-272.62"/>
</a>
</g>
</g>
<!-- Node14 -->
<g id="Node000014" class="node">
<title>Node14</title>
<g id="a_Node000014"><a xlink:href="when__impl_8hpp.html" target="_top" xlink:title=" ">
<polygon fill="white" stroke="#666666" points="1274.25,-230 1164.5,-230 1164.5,-199.5 1274.25,-199.5 1274.25,-230"/>
<text text-anchor="start" x="1172.5" y="-216.5" font-family="Helvetica,sans-Serif" font-size="10.00">include/yaclib/async</text>
<text text-anchor="middle" x="1219.38" y="-205.25" font-family="Helvetica,sans-Serif" font-size="10.00">/detail/when_impl.hpp</text>
</a>
</g>
</g>
<!-- Node8&#45;&gt;Node14 -->
<g id="edge15_Node000008_Node000014" class="edge">
<title>Node8&#45;&gt;Node14</title>
<g id="a_edge15_Node000008_Node000014"><a xlink:title=" ">
<path fill="none" stroke="#63b8ff" d="M1281.16,-259.07C1267.74,-249.66 1252.27,-238.81 1240.17,-230.33"/>
<polygon fill="#63b8ff" stroke="#63b8ff" points="1279.06,-261.87 1289.26,-264.75 1283.08,-256.14 1279.06,-261.87"/>
</a>
</g>
</g>
<!-- Node16 -->
<g id="Node000016" class="node">
<title>Node16</title>
<g id="a_Node000016"><a xlink:href="when__all_8hpp.html" target="_top" xlink:title=" ">
<polygon fill="white" stroke="#666666" points="1227.88,-97 1124.88,-97 1124.88,-66.5 1227.88,-66.5 1227.88,-97"/>
<text text-anchor="start" x="1132.88" y="-83.5" font-family="Helvetica,sans-Serif" font-size="10.00">include/yaclib/async</text>
<text text-anchor="middle" x="1176.38" y="-72.25" font-family="Helvetica,sans-Serif" font-size="10.00">/when_all.hpp</text>
</a>
</g>
</g>
<!-- Node8&#45;&gt;Node16 -->
<g id="edge33_Node000008_Node000016" class="edge">
<title>Node8&#45;&gt;Node16</title>
<g id="a_edge33_Node000008_Node000016"><a xlink:title=" ">
<path fill="none" stroke="#63b8ff" d="M1315.23,-254.13C1318.45,-222.25 1318.92,-168.27 1292.38,-133 1276.93,-112.48 1251.38,-100.22 1228.18,-92.96"/>
<polygon fill="#63b8ff" stroke="#63b8ff" points="1311.76,-253.7 1314.04,-264.05 1318.71,-254.54 1311.76,-253.7"/>
</a>
</g>
</g>
<!-- Node19 -->
<g id="Node000019" class="node">
<title>Node19</title>
<g id="a_Node000019"><a xlink:href="when__any_8hpp.html" target="_top" xlink:title=" ">
<polygon fill="white" stroke="#666666" points="1026.88,-97 923.88,-97 923.88,-66.5 1026.88,-66.5 1026.88,-97"/>
<text text-anchor="start" x="931.88" y="-83.5" font-family="Helvetica,sans-Serif" font-size="10.00">include/yaclib/async</text>
<text text-anchor="middle" x="975.38" y="-72.25" font-family="Helvetica,sans-Serif" font-size="10.00">/when_any.hpp</text>
</a>
</g>
</g>
<!-- Node8&#45;&gt;Node19 -->
<g id="edge34_Node000008_Node000019" class="edge">
<title>Node8&#45;&gt;Node19</title>
<g id="a_edge34_Node000008_Node000019"><a xlink:title=" ">
<path fill="none" stroke="#63b8ff" d="M1248.55,-265.1C1219.33,-256.79 1184.65,-245.08 1155.38,-230 1135.18,-219.6 1135.16,-208.64 1114.38,-199.5 1036.5,-165.25 980.58,-229.07 926.38,-163.5 908.82,-142.27 935.41,-114.13 955.76,-97.29"/>
<polygon fill="#63b8ff" stroke="#63b8ff" points="1247.43,-268.42 1258,-267.72 1249.3,-261.68 1247.43,-268.42"/>
</a>
</g>
</g>
<!-- Node21 -->
<g id="Node000021" class="node">
<title>Node21</title>
<g id="a_Node000021"><a xlink:href="async_2make_8hpp.html" target="_top" xlink:title=" ">
<polygon fill="white" stroke="#666666" points="1480.88,-230 1377.88,-230 1377.88,-199.5 1480.88,-199.5 1480.88,-230"/>
<text text-anchor="start" x="1385.88" y="-216.5" font-family="Helvetica,sans-Serif" font-size="10.00">include/yaclib/async</text>
<text text-anchor="middle" x="1429.38" y="-205.25" font-family="Helvetica,sans-Serif" font-size="10.00">/make.hpp</text>
</a>
</g>
</g>
<!-- Node8&#45;&gt;Node21 -->
<g id="edge24_Node000008_Node000021" class="edge">
<title>Node8&#45;&gt;Node21</title>
<g id="a_edge24_Node000008_Node000021"><a xlink:title=" ">
<path fill="none" stroke="#63b8ff" d="M1348.13,-260.16C1365.8,-250.5 1386.58,-239.14 1402.7,-230.33"/>
<polygon fill="#63b8ff" stroke="#63b8ff" points="1346.58,-257.02 1339.48,-264.89 1349.93,-263.16 1346.58,-257.02"/>
</a>
</g>
</g>
<!-- Node22 -->
<g id="Node000022" class="node">
<title>Node22</title>
<g id="a_Node000022"><a xlink:href="run_8hpp.html" target="_top" xlink:title=" ">
<polygon fill="white" stroke="#666666" points="924.88,-230 821.88,-230 821.88,-199.5 924.88,-199.5 924.88,-230"/>
<text text-anchor="start" x="829.88" y="-216.5" font-family="Helvetica,sans-Serif" font-size="10.00">include/yaclib/async</text>
<text text-anchor="middle" x="873.38" y="-205.25" font-family="Helvetica,sans-Serif" font-size="10.00">/run.hpp</text>
</a>
</g>
</g>
<!-- Node8&#45;&gt;Node22 -->
<g id="edge25_Node000008_Node000022" class="edge">
<title>Node8&#45;&gt;Node22</title>
<g id="a_edge25_Node000008_Node000022"><a xlink:title=" ">
<path fill="none" stroke="#63b8ff" d="M1248.29,-273.84C1173,-265.73 1043.44,-250.33 933.38,-230 930.74,-229.51 928.05,-228.99 925.34,-228.43"/>
<polygon fill="#63b8ff" stroke="#63b8ff" points="1247.63,-277.29 1257.94,-274.87 1248.37,-270.32 1247.63,-277.29"/>
</a>
</g>
</g>
<!-- Node8&#45;&gt;Node23 -->
<g id="edge31_Node000008_Node000023" class="edge">
<title>Node8&#45;&gt;Node23</title>
<g id="a_edge31_Node000008_Node000023"><a xlink:title=" ">
<path fill="none" stroke="#63b8ff" d="M1374.69,-276.99C1477.47,-271.13 1686.83,-256.85 1862.38,-230 1867.01,-229.29 1871.81,-228.46 1876.6,-227.55"/>
<polygon fill="#63b8ff" stroke="#63b8ff" points="1374.59,-273.49 1364.8,-277.54 1374.98,-280.48 1374.59,-273.49"/>
</a>
</g>
</g>
<!-- Node8&#45;&gt;Node24 -->
<g id="edge32_Node000008_Node000024" class="edge">
<title>Node8&#45;&gt;Node24</title>
<g id="a_edge32_Node000008_Node000024"><a xlink:title=" ">
<path fill="none" stroke="#63b8ff" d="M1374.31,-278.93C1494.51,-275.66 1764.79,-264.76 1989.38,-230 1992.02,-229.59 1994.72,-229.13 1997.44,-228.62"/>
<polygon fill="#63b8ff" stroke="#63b8ff" points="1374.57,-275.42 1364.66,-279.18 1374.75,-282.42 1374.57,-275.42"/>
</a>
</g>
</g>
<!-- Node25 -->
<g id="Node000025" class="node">
<title>Node25</title>
<g id="a_Node000025"><a xlink:href="await_8hpp.html" target="_top" xlink:title=" ">
<polygon fill="white" stroke="#666666" points="1442.5,-97 1346.25,-97 1346.25,-66.5 1442.5,-66.5 1442.5,-97"/>
<text text-anchor="start" x="1354.25" y="-83.5" font-family="Helvetica,sans-Serif" font-size="10.00">include/yaclib/coro</text>
<text text-anchor="middle" x="1394.38" y="-72.25" font-family="Helvetica,sans-Serif" font-size="10.00">/await.hpp</text>
</a>
</g>
</g>
<!-- Node8&#45;&gt;Node25 -->
<g id="edge35_Node000008_Node000025" class="edge">
<title>Node8&#45;&gt;Node25</title>
<g id="a_edge35_Node000008_Node000025"><a xlink:title=" ">
<path fill="none" stroke="#63b8ff" d="M1320.13,-255.22C1330.68,-225.65 1349.38,-175.14 1368.38,-133 1373.86,-120.82 1380.86,-107.4 1386.21,-97.49"/>
<polygon fill="#63b8ff" stroke="#63b8ff" points="1316.92,-253.8 1316.88,-264.4 1323.52,-256.14 1316.92,-253.8"/>
</a>
</g>
</g>
<!-- Node26 -->
<g id="Node000026" class="node">
<title>Node26</title>
<g id="a_Node000026"><a xlink:href="await__on_8hpp.html" target="_top" xlink:title=" ">
<polygon fill="white" stroke="#666666" points="2194.5,-97 2098.25,-97 2098.25,-66.5 2194.5,-66.5 2194.5,-97"/>
<text text-anchor="start" x="2106.25" y="-83.5" font-family="Helvetica,sans-Serif" font-size="10.00">include/yaclib/coro</text>
<text text-anchor="middle" x="2146.38" y="-72.25" font-family="Helvetica,sans-Serif" font-size="10.00">/await_on.hpp</text>
</a>
</g>
</g>
<!-- Node8&#45;&gt;Node26 -->
<g id="edge36_Node000008_Node000026" class="edge">
<title>Node8&#45;&gt;Node26</title>
<g id="a_edge36_Node000008_Node000026"><a xlink:title=" ">
<path fill="none" stroke="#63b8ff" d="M1374.58,-278.12C1493.15,-273.46 1744.28,-260.26 1825.38,-230 1847.33,-221.81 1846.5,-207.9 1868.38,-199.5 1932.71,-174.8 2130.56,-214.98 2176.38,-163.5 2193.38,-144.4 2174.28,-114.78 2159.72,-97.23"/>
<polygon fill="#63b8ff" stroke="#63b8ff" points="1374.56,-274.62 1364.7,-278.5 1374.83,-281.61 1374.56,-274.62"/>
</a>
</g>
</g>
<!-- Node27 -->
<g id="Node000027" class="node">
<title>Node27</title>
<g id="a_Node000027"><a xlink:href="await__awaiter_8hpp.html" target="_top" xlink:title=" ">
<polygon fill="white" stroke="#666666" points="1501,-163.5 1377.75,-163.5 1377.75,-133 1501,-133 1501,-163.5"/>
<text text-anchor="start" x="1385.75" y="-150" font-family="Helvetica,sans-Serif" font-size="10.00">include/yaclib/coro</text>
<text text-anchor="middle" x="1439.38" y="-138.75" font-family="Helvetica,sans-Serif" font-size="10.00">/detail/await_awaiter.hpp</text>
</a>
</g>
</g>
<!-- Node8&#45;&gt;Node27 -->
<g id="edge37_Node000008_Node000027" class="edge">
<title>Node8&#45;&gt;Node27</title>
<g id="a_edge37_Node000008_Node000027"><a xlink:title=" ">
<path fill="none" stroke="#63b8ff" d="M1374.64,-270.6C1419.94,-262.26 1475.31,-248.59 1489.38,-230 1505.99,-208.04 1479.65,-180.37 1459.33,-163.78"/>
<polygon fill="#63b8ff" stroke="#63b8ff" points="1374.1,-267.15 1364.86,-272.35 1375.32,-274.04 1374.1,-267.15"/>
</a>
</g>
</g>
<!-- Node28 -->
<g id="Node000028" class="node">
<title>Node28</title>
<g id="a_Node000028"><a xlink:href="await__on__awaiter_8hpp.html" target="_top" xlink:title=" ">
<polygon fill="white" stroke="#666666" points="2166.88,-163.5 2027.88,-163.5 2027.88,-133 2166.88,-133 2166.88,-163.5"/>
<text text-anchor="start" x="2035.88" y="-150" font-family="Helvetica,sans-Serif" font-size="10.00">include/yaclib/coro</text>
<text text-anchor="middle" x="2097.38" y="-138.75" font-family="Helvetica,sans-Serif" font-size="10.00">/detail/await_on_awaiter.hpp</text>
</a>
</g>
</g>
<!-- Node8&#45;&gt;Node28 -->
<g id="edge39_Node000008_Node000028" class="edge">
<title>Node8&#45;&gt;Node28</title>
<g id="a_edge39_Node000008_Node000028"><a xlink:title=" ">
<path fill="none" stroke="#63b8ff" d="M1374.56,-277.42C1486.46,-271.78 1714.72,-257.27 1789.38,-230 1812.07,-221.71 1812.05,-208.74 1834.38,-199.5 1843.36,-195.79 1952.86,-175.48 2027.7,-161.84"/>
<polygon fill="#63b8ff" stroke="#63b8ff" points="1374.46,-273.92 1364.64,-277.91 1374.8,-280.91 1374.46,-273.92"/>
</a>
</g>
</g>
<!-- Node29 -->
<g id="Node000029" class="node">
<title>Node29</title>
<g id="a_Node000029"><a xlink:href="coro_2future_8hpp.html" target="_top" xlink:title=" ">
<polygon fill="white" stroke="#666666" points="2009.5,-163.5 1913.25,-163.5 1913.25,-133 2009.5,-133 2009.5,-163.5"/>
<text text-anchor="start" x="1921.25" y="-150" font-family="Helvetica,sans-Serif" font-size="10.00">include/yaclib/coro</text>
<text text-anchor="middle" x="1961.38" y="-138.75" font-family="Helvetica,sans-Serif" font-size="10.00">/future.hpp</text>
</a>
</g>
</g>
<!-- Node8&#45;&gt;Node29 -->
<g id="edge41_Node000008_Node000029" class="edge">
<title>Node8&#45;&gt;Node29</title>
<g id="a_edge41_Node000008_Node000029"><a xlink:title=" ">
<path fill="none" stroke="#63b8ff" d="M1374.49,-276.96C1479.61,-270.82 1685.67,-255.88 1753.38,-230 1775.26,-221.63 1775.34,-209.82 1796.38,-199.5 1817.01,-189.37 1872.22,-173.32 1913.12,-162.1"/>
<polygon fill="#63b8ff" stroke="#63b8ff" points="1374.4,-273.45 1364.62,-277.52 1374.8,-280.44 1374.4,-273.45"/>
</a>
</g>
</g>
<!-- Node30 -->
<g id="Node000030" class="node">
<title>Node30</title>
<g id="a_Node000030"><a xlink:href="lazy_2task_8hpp.html" target="_top" xlink:title=" ">
<polygon fill="white" stroke="#666666" points="1744.38,-230 1650.38,-230 1650.38,-199.5 1744.38,-199.5 1744.38,-230"/>
<text text-anchor="start" x="1658.38" y="-216.5" font-family="Helvetica,sans-Serif" font-size="10.00">include/yaclib/lazy</text>
<text text-anchor="middle" x="1697.38" y="-205.25" font-family="Helvetica,sans-Serif" font-size="10.00">/task.hpp</text>
</a>
</g>
</g>
<!-- Node8&#45;&gt;Node30 -->
<g id="edge42_Node000008_Node000030" class="edge">
<title>Node8&#45;&gt;Node30</title>
<g id="a_edge42_Node000008_Node000030"><a xlink:title=" ">
<path fill="none" stroke="#63b8ff" d="M1374.03,-269.78C1451.19,-256.89 1580.55,-235.27 1649.96,-223.67"/>
<polygon fill="#63b8ff" stroke="#63b8ff" points="1373.81,-266.27 1364.52,-271.37 1374.97,-273.17 1373.81,-266.27"/>
</a>
</g>
</g>
<!-- Node35 -->
<g id="Node000035" class="node">
<title>Node35</title>
<g id="a_Node000035"><a xlink:href="future__impl_8cpp.html" target="_top" xlink:title=" ">
<polygon fill="white" stroke="#666666" points="1069.88,-224.38 942.88,-224.38 942.88,-205.12 1069.88,-205.12 1069.88,-224.38"/>
<text text-anchor="middle" x="1006.38" y="-210.88" font-family="Helvetica,sans-Serif" font-size="10.00">src/async/future_impl.cpp</text>
</a>
</g>
</g>
<!-- Node8&#45;&gt;Node35 -->
<g id="edge51_Node000008_Node000035" class="edge">
<title>Node8&#45;&gt;Node35</title>
<g id="a_edge51_Node000008_Node000035"><a xlink:title=" ">
<path fill="none" stroke="#63b8ff" d="M1248.51,-266.96C1189.05,-254.38 1101.4,-235.85 1049.48,-224.87"/>
<polygon fill="#63b8ff" stroke="#63b8ff" points="1247.65,-270.35 1258.16,-269 1249.1,-263.5 1247.65,-270.35"/>
</a>
</g>
</g>
<!-- Node10 -->
<g id="Node000010" class="node">
<title>Node10</title>
<g id="a_Node000010"><a xlink:href="share_8hpp.html" target="_top" xlink:title=" ">
<polygon fill="white" stroke="#666666" points="684.88,-163.5 581.88,-163.5 581.88,-133 684.88,-133 684.88,-163.5"/>
<text text-anchor="start" x="589.88" y="-150" font-family="Helvetica,sans-Serif" font-size="10.00">include/yaclib/async</text>
<text text-anchor="middle" x="633.38" y="-138.75" font-family="Helvetica,sans-Serif" font-size="10.00">/share.hpp</text>
</a>
</g>
</g>
<!-- Node9&#45;&gt;Node10 -->
<g id="edge10_Node000009_Node000010" class="edge">
<title>Node9&#45;&gt;Node10</title>
<g id="a_edge10_Node000009_Node000010"><a xlink:title=" ">
<path fill="none" stroke="#63b8ff" d="M580.99,-192.02C592.36,-182.73 605.33,-172.15 615.52,-163.83"/>
<polygon fill="#63b8ff" stroke="#63b8ff" points="579.01,-189.12 573.47,-198.16 583.43,-194.54 579.01,-189.12"/>
</a>
</g>
</g>
<!-- Node9&#45;&gt;Node11 -->
<g id="edge11_Node000009_Node000011" class="edge">
<title>Node9&#45;&gt;Node11</title>
<g id="a_edge11_Node000009_Node000011"><a xlink:title=" ">
<path fill="none" stroke="#63b8ff" d="M538.59,-189.51C532.96,-180.87 526.8,-171.41 521.87,-163.83"/>
<polygon fill="#63b8ff" stroke="#63b8ff" points="535.63,-191.38 544.02,-197.85 541.49,-187.56 535.63,-191.38"/>
</a>
</g>
</g>
<!-- Node12&#45;&gt;Node10 -->
<g id="edge13_Node000012_Node000010" class="edge">
<title>Node12&#45;&gt;Node10</title>
<g id="a_edge13_Node000012_Node000010"><a xlink:title=" ">
<path fill="none" stroke="#63b8ff" d="M715.3,-193.66C697.49,-184 676.53,-172.64 660.27,-163.83"/>
<polygon fill="#63b8ff" stroke="#63b8ff" points="713.58,-196.7 724.04,-198.39 716.92,-190.55 713.58,-196.7"/>
</a>
</g>
</g>
<!-- Node12&#45;&gt;Node13 -->
<g id="edge14_Node000012_Node000013" class="edge">
<title>Node12&#45;&gt;Node13</title>
<g id="a_edge14_Node000012_Node000013"><a xlink:title=" ">
<path fill="none" stroke="#63b8ff" d="M752.78,-187.81C752.9,-179.64 753.04,-170.91 753.15,-163.83"/>
<polygon fill="#63b8ff" stroke="#63b8ff" points="749.28,-187.55 752.63,-197.6 756.28,-187.66 749.28,-187.55"/>
</a>
</g>
</g>
<!-- Node15 -->
<g id="Node000015" class="node">
<title>Node15</title>
<g id="a_Node000015"><a xlink:href="when__all__impl_8hpp.html" target="_top" xlink:title=" ">
<polygon fill="white" stroke="#666666" points="1283.75,-163.5 1159,-163.5 1159,-133 1283.75,-133 1283.75,-163.5"/>
<text text-anchor="start" x="1167" y="-150" font-family="Helvetica,sans-Serif" font-size="10.00">include/yaclib/async</text>
<text text-anchor="middle" x="1221.38" y="-138.75" font-family="Helvetica,sans-Serif" font-size="10.00">/detail/when_all_impl.hpp</text>
</a>
</g>
</g>
<!-- Node14&#45;&gt;Node15 -->
<g id="edge16_Node000014_Node000015" class="edge">
<title>Node14&#45;&gt;Node15</title>
<g id="a_edge16_Node000014_Node000015"><a xlink:title=" ">
<path fill="none" stroke="#63b8ff" d="M1220.18,-187.81C1220.43,-179.64 1220.7,-170.91 1220.92,-163.83"/>
<polygon fill="#63b8ff" stroke="#63b8ff" points="1216.69,-187.5 1219.88,-197.6 1223.68,-187.71 1216.69,-187.5"/>
</a>
</g>
</g>
<!-- Node14&#45;&gt;Node16 -->
<g id="edge22_Node000014_Node000016" class="edge">
<title>Node14&#45;&gt;Node16</title>
<g id="a_edge22_Node000014_Node000016"><a xlink:title=" ">
<path fill="none" stroke="#63b8ff" d="M1177.77,-192.88C1166.86,-185.23 1156.46,-175.45 1150.38,-163.5 1139.22,-141.58 1153.68,-113.89 1165.09,-97.29"/>
<polygon fill="#63b8ff" stroke="#63b8ff" points="1175.81,-195.79 1186.12,-198.24 1179.59,-189.9 1175.81,-195.79"/>
</a>
</g>
</g>
<!-- Node18 -->
<g id="Node000018" class="node">
<title>Node18</title>
<g id="a_Node000018"><a xlink:href="when__any__impl_8hpp.html" target="_top" xlink:title=" ">
<polygon fill="white" stroke="#666666" points="1065.38,-163.5 935.38,-163.5 935.38,-133 1065.38,-133 1065.38,-163.5"/>
<text text-anchor="start" x="943.38" y="-150" font-family="Helvetica,sans-Serif" font-size="10.00">include/yaclib/async</text>
<text text-anchor="middle" x="1000.38" y="-138.75" font-family="Helvetica,sans-Serif" font-size="10.00">/detail/when_any_impl.hpp</text>
</a>
</g>
</g>
<!-- Node14&#45;&gt;Node18 -->
<g id="edge19_Node000014_Node000018" class="edge">
<title>Node14&#45;&gt;Node18</title>
<g id="a_edge19_Node000014_Node000018"><a xlink:title=" ">
<path fill="none" stroke="#63b8ff" d="M1158.61,-195.85C1124.45,-185.79 1082.32,-173.39 1050.13,-163.9"/>
<polygon fill="#63b8ff" stroke="#63b8ff" points="1157.37,-199.14 1167.95,-198.61 1159.35,-192.42 1157.37,-199.14"/>
</a>
</g>
</g>
<!-- Node14&#45;&gt;Node19 -->
<g id="edge23_Node000014_Node000019" class="edge">
<title>Node14&#45;&gt;Node19</title>
<g id="a_edge23_Node000014_Node000019"><a xlink:title=" ">
<path fill="none" stroke="#63b8ff" d="M1183.86,-193.47C1154.63,-176.9 1112.04,-153.03 1074.38,-133 1051.23,-120.69 1024.74,-107.28 1004.99,-97.41"/>
<polygon fill="#63b8ff" stroke="#63b8ff" points="1181.87,-196.37 1192.29,-198.26 1185.32,-190.28 1181.87,-196.37"/>
</a>
</g>
</g>
<!-- Node15&#45;&gt;Node16 -->
<g id="edge17_Node000015_Node000016" class="edge">
<title>Node15&#45;&gt;Node16</title>
<g id="a_edge17_Node000015_Node000016"><a xlink:title=" ">
<path fill="none" stroke="#63b8ff" d="M1204.66,-123.29C1198.58,-114.57 1191.89,-104.99 1186.55,-97.33"/>
<polygon fill="#63b8ff" stroke="#63b8ff" points="1201.71,-125.17 1210.3,-131.37 1207.45,-121.17 1201.71,-125.17"/>
</a>
</g>
</g>
<!-- Node17 -->
<g id="Node000017" class="node">
<title>Node17</title>
<g id="a_Node000017"><a xlink:href="when__all_8cpp.html" target="_top" xlink:title=" ">
<polygon fill="white" stroke="#666666" points="1132.38,-30.5 1032.38,-30.5 1032.38,0 1132.38,0 1132.38,-30.5"/>
<text text-anchor="start" x="1040.38" y="-17" font-family="Helvetica,sans-Serif" font-size="10.00">test/example/async</text>
<text text-anchor="middle" x="1082.38" y="-5.75" font-family="Helvetica,sans-Serif" font-size="10.00">/when_all.cpp</text>
</a>
</g>
</g>
<!-- Node16&#45;&gt;Node17 -->
<g id="edge18_Node000016_Node000017" class="edge">
<title>Node16&#45;&gt;Node17</title>
<g id="a_edge18_Node000016_Node000017"><a xlink:title=" ">
<path fill="none" stroke="#63b8ff" d="M1145.9,-59.84C1132.09,-50.37 1116.1,-39.39 1103.62,-30.83"/>
<polygon fill="#63b8ff" stroke="#63b8ff" points="1143.57,-62.49 1153.8,-65.26 1147.53,-56.71 1143.57,-62.49"/>
</a>
</g>
</g>
<!-- Node18&#45;&gt;Node19 -->
<g id="edge20_Node000018_Node000019" class="edge">
<title>Node18&#45;&gt;Node19</title>
<g id="a_edge20_Node000018_Node000019"><a xlink:title=" ">
<path fill="none" stroke="#63b8ff" d="M990.65,-122.16C987.39,-113.75 983.87,-104.66 981.03,-97.33"/>
<polygon fill="#63b8ff" stroke="#63b8ff" points="987.28,-123.14 994.16,-131.2 993.8,-120.61 987.28,-123.14"/>
</a>
</g>
</g>
<!-- Node20 -->
<g id="Node000020" class="node">
<title>Node20</title>
<g id="a_Node000020"><a xlink:href="when__any_8cpp.html" target="_top" xlink:title=" ">
<polygon fill="white" stroke="#666666" points="965.38,-30.5 865.38,-30.5 865.38,0 965.38,0 965.38,-30.5"/>
<text text-anchor="start" x="873.38" y="-17" font-family="Helvetica,sans-Serif" font-size="10.00">test/example/async</text>
<text text-anchor="middle" x="915.38" y="-5.75" font-family="Helvetica,sans-Serif" font-size="10.00">/when_any.cpp</text>
</a>
</g>
</g>
<!-- Node19&#45;&gt;Node20 -->
<g id="edge21_Node000019_Node000020" class="edge">
<title>Node19&#45;&gt;Node20</title>
<g id="a_edge21_Node000019_Node000020"><a xlink:title=" ">
<path fill="none" stroke="#63b8ff" d="M954.13,-57.91C945.75,-48.9 936.37,-38.82 928.94,-30.83"/>
<polygon fill="#63b8ff" stroke="#63b8ff" points="951.36,-60.07 960.73,-65.01 956.48,-55.3 951.36,-60.07"/>
</a>
</g>
</g>
<!-- Node22&#45;&gt;Node13 -->
<g id="edge26_Node000022_Node000013" class="edge">
<title>Node22&#45;&gt;Node13</title>
<g id="a_edge26_Node000022_Node000013"><a xlink:title=" ">
<path fill="none" stroke="#63b8ff" d="M836.25,-193.79C818.23,-184.11 796.97,-172.68 780.5,-163.83"/>
<polygon fill="#63b8ff" stroke="#63b8ff" points="834.35,-196.75 844.81,-198.4 837.66,-190.58 834.35,-196.75"/>
</a>
</g>
</g>
<!-- Node22&#45;&gt;Node17 -->
<g id="edge27_Node000022_Node000017" class="edge">
<title>Node22&#45;&gt;Node17</title>
<g id="a_edge27_Node000022_Node000017"><a xlink:title=" ">
<path fill="none" stroke="#63b8ff" d="M873.18,-187.96C874.38,-155.15 881.52,-98.86 914.38,-66.5 945.61,-35.74 994.86,-23.68 1031.98,-19.02"/>
<polygon fill="#63b8ff" stroke="#63b8ff" points="869.68,-187.71 873,-197.78 876.68,-187.84 869.68,-187.71"/>
</a>
</g>
</g>
<!-- Node22&#45;&gt;Node20 -->
<g id="edge28_Node000022_Node000020" class="edge">
<title>Node22&#45;&gt;Node20</title>
<g id="a_edge28_Node000022_Node000020"><a xlink:title=" ">
<path fill="none" stroke="#63b8ff" d="M862.43,-188.63C850.91,-158.24 836.83,-106.23 855.38,-66.5 862.39,-51.48 876.34,-39.36 889.03,-30.79"/>
<polygon fill="#63b8ff" stroke="#63b8ff" points="859.11,-189.76 866.08,-197.74 865.61,-187.15 859.11,-189.76"/>
</a>
</g>
</g>
<!-- Node27&#45;&gt;Node25 -->
<g id="edge38_Node000027_Node000025" class="edge">
<title>Node27&#45;&gt;Node25</title>
<g id="a_edge38_Node000027_Node000025"><a xlink:title=" ">
<path fill="none" stroke="#63b8ff" d="M1422.66,-123.29C1416.58,-114.57 1409.89,-104.99 1404.55,-97.33"/>
<polygon fill="#63b8ff" stroke="#63b8ff" points="1419.71,-125.17 1428.3,-131.37 1425.45,-121.17 1419.71,-125.17"/>
</a>
</g>
</g>
<!-- Node28&#45;&gt;Node26 -->
<g id="edge40_Node000028_Node000026" class="edge">
<title>Node28&#45;&gt;Node26</title>
<g id="a_edge40_Node000028_Node000026"><a xlink:title=" ">
<path fill="none" stroke="#63b8ff" d="M2115.36,-123.57C2122.04,-114.78 2129.42,-105.07 2135.3,-97.33"/>
<polygon fill="#63b8ff" stroke="#63b8ff" points="2112.67,-121.33 2109.41,-131.41 2118.25,-125.56 2112.67,-121.33"/>
</a>
</g>
</g>
<!-- Node30&#45;&gt;Node27 -->
<g id="edge43_Node000030_Node000027" class="edge">
<title>Node30&#45;&gt;Node27</title>
<g id="a_edge43_Node000030_Node000027"><a xlink:title=" ">
<path fill="none" stroke="#63b8ff" d="M1639.14,-199.19C1597.04,-188.67 1540.39,-174.5 1498.17,-163.95"/>
<polygon fill="#63b8ff" stroke="#63b8ff" points="1638.04,-202.52 1648.59,-201.55 1639.73,-195.73 1638.04,-202.52"/>
</a>
</g>
</g>
<!-- Node30&#45;&gt;Node28 -->
<g id="edge44_Node000030_Node000028" class="edge">
<title>Node30&#45;&gt;Node28</title>
<g id="a_edge44_Node000030_Node000028"><a xlink:title=" ">
<path fill="none" stroke="#63b8ff" d="M1755.88,-205.01C1820.27,-195.29 1926.81,-178.92 2018.38,-163.5 2021.4,-162.99 2024.49,-162.46 2027.6,-161.93"/>
<polygon fill="#63b8ff" stroke="#63b8ff" points="1755.61,-201.51 1746.25,-206.46 1756.66,-208.43 1755.61,-201.51"/>
</a>
</g>
</g>
<!-- Node30&#45;&gt;Node29 -->
<g id="edge45_Node000030_Node000029" class="edge">
<title>Node30&#45;&gt;Node29</title>
<g id="a_edge45_Node000030_Node000029"><a xlink:title=" ">
<path fill="none" stroke="#63b8ff" d="M1755.67,-199.71C1797.16,-189.69 1854.21,-175.86 1904.38,-163.5 1907.15,-162.82 1910,-162.11 1912.87,-161.4"/>
<polygon fill="#63b8ff" stroke="#63b8ff" points="1755.04,-196.26 1746.14,-202.01 1756.68,-203.07 1755.04,-196.26"/>
</a>
</g>
</g>
<!-- Node31 -->
<g id="Node000031" class="node">
<title>Node31</title>
<g id="a_Node000031"><a xlink:href="coro_2task_8hpp.html" target="_top" xlink:title=" ">
<polygon fill="white" stroke="#666666" points="1745.5,-163.5 1649.25,-163.5 1649.25,-133 1745.5,-133 1745.5,-163.5"/>
<text text-anchor="start" x="1657.25" y="-150" font-family="Helvetica,sans-Serif" font-size="10.00">include/yaclib/coro</text>
<text text-anchor="middle" x="1697.38" y="-138.75" font-family="Helvetica,sans-Serif" font-size="10.00">/task.hpp</text>
</a>
</g>
</g>
<!-- Node30&#45;&gt;Node31 -->
<g id="edge46_Node000030_Node000031" class="edge">
<title>Node30&#45;&gt;Node31</title>
<g id="a_edge46_Node000030_Node000031"><a xlink:title=" ">
<path fill="none" stroke="#63b8ff" d="M1697.38,-187.81C1697.38,-179.64 1697.38,-170.91 1697.38,-163.83"/>
<polygon fill="#63b8ff" stroke="#63b8ff" points="1693.88,-187.6 1697.38,-197.6 1700.88,-187.6 1693.88,-187.6"/>
</a>
</g>
</g>
<!-- Node32 -->
<g id="Node000032" class="node">
<title>Node32</title>
<g id="a_Node000032"><a xlink:href="lazy_2make_8hpp.html" target="_top" xlink:title=" ">
<polygon fill="white" stroke="#666666" points="1857.38,-97 1763.38,-97 1763.38,-66.5 1857.38,-66.5 1857.38,-97"/>
<text text-anchor="start" x="1771.38" y="-83.5" font-family="Helvetica,sans-Serif" font-size="10.00">include/yaclib/lazy</text>
<text text-anchor="middle" x="1810.38" y="-72.25" font-family="Helvetica,sans-Serif" font-size="10.00">/make.hpp</text>
</a>
</g>
</g>
<!-- Node30&#45;&gt;Node32 -->
<g id="edge47_Node000030_Node000032" class="edge">
<title>Node30&#45;&gt;Node32</title>
<g id="a_edge47_Node000030_Node000032"><a xlink:title=" ">
<path fill="none" stroke="#63b8ff" d="M1724.78,-191.94C1734.6,-183.54 1745.44,-173.53 1754.38,-163.5 1773.43,-142.09 1791.59,-114 1801.83,-97.23"/>
<polygon fill="#63b8ff" stroke="#63b8ff" points="1722.72,-189.1 1717.29,-198.2 1727.21,-194.48 1722.72,-189.1"/>
</a>
</g>
</g>
<!-- Node33 -->
<g id="Node000033" class="node">
<title>Node33</title>
<g id="a_Node000033"><a xlink:href="schedule_8hpp.html" target="_top" xlink:title=" ">
<polygon fill="white" stroke="#666666" points="1895.38,-163.5 1801.38,-163.5 1801.38,-133 1895.38,-133 1895.38,-163.5"/>
<text text-anchor="start" x="1809.38" y="-150" font-family="Helvetica,sans-Serif" font-size="10.00">include/yaclib/lazy</text>
<text text-anchor="middle" x="1848.38" y="-138.75" font-family="Helvetica,sans-Serif" font-size="10.00">/schedule.hpp</text>
</a>
</g>
</g>
<!-- Node30&#45;&gt;Node33 -->
<g id="edge48_Node000030_Node000033" class="edge">
<title>Node30&#45;&gt;Node33</title>
<g id="a_edge48_Node000030_Node000033"><a xlink:title=" ">
<path fill="none" stroke="#63b8ff" d="M1742.17,-194.62C1765.15,-184.8 1792.7,-173.03 1813.99,-163.94"/>
<polygon fill="#63b8ff" stroke="#63b8ff" points="1740.85,-191.37 1733.03,-198.52 1743.6,-197.81 1740.85,-191.37"/>
</a>
</g>
</g>
<!-- Node34 -->
<g id="Node000034" class="node">
<title>Node34</title>
<g id="a_Node000034"><a xlink:href="task__impl_8cpp.html" target="_top" xlink:title=" ">
<polygon fill="white" stroke="#666666" points="1631.38,-157.88 1519.38,-157.88 1519.38,-138.62 1631.38,-138.62 1631.38,-157.88"/>
<text text-anchor="middle" x="1575.38" y="-144.38" font-family="Helvetica,sans-Serif" font-size="10.00">src/lazy/task_impl.cpp</text>
</a>
</g>
</g>
<!-- Node30&#45;&gt;Node34 -->
<g id="edge50_Node000030_Node000034" class="edge">
<title>Node30&#45;&gt;Node34</title>
<g id="a_edge50_Node000030_Node000034"><a xlink:title=" ">
<path fill="none" stroke="#63b8ff" d="M1659.76,-193.86C1637.27,-181.97 1609.78,-167.44 1592.42,-158.26"/>
<polygon fill="#63b8ff" stroke="#63b8ff" points="1657.88,-196.83 1668.35,-198.41 1661.15,-190.64 1657.88,-196.83"/>
</a>
</g>
</g>
<!-- Node33&#45;&gt;Node32 -->
<g id="edge49_Node000033_Node000032" class="edge">
<title>Node33&#45;&gt;Node32</title>
<g id="a_edge49_Node000033_Node000032"><a xlink:title=" ">
<path fill="none" stroke="#63b8ff" d="M1833.93,-122.73C1828.88,-114.16 1823.38,-104.82 1818.96,-97.33"/>
<polygon fill="#63b8ff" stroke="#63b8ff" points="1830.89,-124.47 1838.98,-131.31 1836.92,-120.92 1830.89,-124.47"/>
</a>
</g>
</g>
<!-- Node36&#45;&gt;Node9 -->
<g id="edge54_Node000036_Node000009" class="edge">
<title>Node36&#45;&gt;Node9</title>
<g id="a_edge54_Node000036_Node000009"><a xlink:title=" ">
<path fill="none" stroke="#63b8ff" d="M554.38,-254.31C554.38,-246.14 554.38,-237.41 554.38,-230.33"/>
<polygon fill="#63b8ff" stroke="#63b8ff" points="550.88,-254.1 554.38,-264.1 557.88,-254.1 550.88,-254.1"/>
</a>
</g>
</g>
<!-- Node36&#45;&gt;Node10 -->
<g id="edge56_Node000036_Node000010" class="edge">
<title>Node36&#45;&gt;Node10</title>
<g id="a_edge56_Node000036_Node000010"><a xlink:title=" ">
<path fill="none" stroke="#63b8ff" d="M587.46,-258.84C597.45,-250.89 607.55,-241.07 614.38,-230 627.15,-209.28 631.34,-180.73 632.71,-163.71"/>
<polygon fill="#63b8ff" stroke="#63b8ff" points="585.55,-255.9 579.64,-264.69 589.74,-261.5 585.55,-255.9"/>
</a>
</g>
</g>
<!-- Node36&#45;&gt;Node22 -->
<g id="edge55_Node000036_Node000022" class="edge">
<title>Node36&#45;&gt;Node22</title>
<g id="a_edge55_Node000036_Node000022"><a xlink:title=" ">
<path fill="none" stroke="#63b8ff" d="M617,-268.73C669.33,-258.93 745.86,-244.24 812.38,-230 815.35,-229.36 818.41,-228.69 821.49,-228.01"/>
<polygon fill="#63b8ff" stroke="#63b8ff" points="616.56,-265.25 607.38,-270.52 617.85,-272.13 616.56,-265.25"/>
</a>
</g>
</g>
<!-- Node37 -->
<g id="Node000037" class="node">
<title>Node37</title>
<g id="a_Node000037"><a xlink:href="shared__contract_8hpp.html" target="_top" xlink:title=" ">
<polygon fill="white" stroke="#666666" points="231.75,-230 125,-230 125,-199.5 231.75,-199.5 231.75,-230"/>
<text text-anchor="start" x="133" y="-216.5" font-family="Helvetica,sans-Serif" font-size="10.00">include/yaclib/async</text>
<text text-anchor="middle" x="178.38" y="-205.25" font-family="Helvetica,sans-Serif" font-size="10.00">/shared_contract.hpp</text>
</a>
</g>
</g>
<!-- Node36&#45;&gt;Node37 -->
<g id="edge57_Node000036_Node000037" class="edge">
<title>Node36&#45;&gt;Node37</title>
<g id="a_edge57_Node000036_Node000037"><a xlink:title=" ">
<path fill="none" stroke="#63b8ff" d="M491.02,-271.28C427.65,-262.03 327.47,-246.63 241.38,-230 238.29,-229.4 235.13,-228.77 231.94,-228.11"/>
<polygon fill="#63b8ff" stroke="#63b8ff" points="490.52,-274.74 500.92,-272.72 491.52,-267.82 490.52,-274.74"/>
</a>
</g>
</g>
<!-- Node38 -->
<g id="Node000038" class="node">
<title>Node38</title>
<g id="a_Node000038"><a xlink:href="coro_2shared__future_8hpp.html" target="_top" xlink:title=" ">
<polygon fill="white" stroke="#666666" points="484.5,-230 388.25,-230 388.25,-199.5 484.5,-199.5 484.5,-230"/>
<text text-anchor="start" x="396.25" y="-216.5" font-family="Helvetica,sans-Serif" font-size="10.00">include/yaclib/coro</text>
<text text-anchor="middle" x="436.38" y="-205.25" font-family="Helvetica,sans-Serif" font-size="10.00">/shared_future.hpp</text>
</a>
</g>
</g>
<!-- Node36&#45;&gt;Node38 -->
<g id="edge59_Node000036_Node000038" class="edge">
<title>Node36&#45;&gt;Node38</title>
<g id="a_edge59_Node000036_Node000038"><a xlink:title=" ">
<path fill="none" stroke="#63b8ff" d="M517.62,-260.16C499.95,-250.5 479.17,-239.14 463.05,-230.33"/>
<polygon fill="#63b8ff" stroke="#63b8ff" points="515.82,-263.16 526.27,-264.89 519.17,-257.02 515.82,-263.16"/>
</a>
</g>
</g>
<!-- Node39 -->
<g id="Node000039" class="node">
<title>Node39</title>
<g id="a_Node000039"><a xlink:href="shared__future__impl_8cpp.html" target="_top" xlink:title=" ">
<polygon fill="white" stroke="#666666" points="370.5,-230 250.25,-230 250.25,-199.5 370.5,-199.5 370.5,-230"/>
<text text-anchor="start" x="258.25" y="-216.5" font-family="Helvetica,sans-Serif" font-size="10.00">src/async/shared_future</text>
<text text-anchor="middle" x="310.38" y="-205.25" font-family="Helvetica,sans-Serif" font-size="10.00">_impl.cpp</text>
</a>
</g>
</g>
<!-- Node36&#45;&gt;Node39 -->
<g id="edge60_Node000036_Node000039" class="edge">
<title>Node36&#45;&gt;Node39</title>
<g id="a_edge60_Node000036_Node000039"><a xlink:title=" ">
<path fill="none" stroke="#63b8ff" d="M491.96,-263.75C453.04,-253.46 403.4,-240.34 365.87,-230.42"/>
<polygon fill="#63b8ff" stroke="#63b8ff" points="490.6,-267.01 501.17,-266.18 492.39,-260.24 490.6,-267.01"/>
</a>
</g>
</g>
<!-- Node37&#45;&gt;Node11 -->
<g id="edge58_Node000037_Node000011" class="edge">
<title>Node37&#45;&gt;Node11</title>
<g id="a_edge58_Node000037_Node000011"><a xlink:title=" ">
<path fill="none" stroke="#63b8ff" d="M242.99,-199.22C324.96,-182.49 408.28,-167.44 460.56,-158.24"/>
<polygon fill="#63b8ff" stroke="#63b8ff" points="242.54,-195.74 233.44,-201.18 243.94,-202.59 242.54,-195.74"/>
</a>
</g>
</g>
</g>
</svg>
