<?xml version="1.0" encoding="UTF-8" standalone="no"?>
<!DOCTYPE svg PUBLIC "-//W3C//DTD SVG 1.1//EN"
 "http://www.w3.org/Graphics/SVG/1.1/DTD/svg11.dtd">
<!-- Generated by graphviz version 9.0.0 (20230911.1827)
 -->
<!-- Title: include/yaclib/util/detail/default_event.hpp Pages: 1 -->
<svg width="1883pt" height="504pt"
 viewBox="0.00 0.00 1882.88 504.00" xmlns="http://www.w3.org/2000/svg" xmlns:xlink="http://www.w3.org/1999/xlink">
<g id="graph0" class="graph" transform="scale(1 1) rotate(0) translate(4 500)">
<title>include/yaclib/util/detail/default_event.hpp</title>
<!-- Node1 -->
<g id="Node000001" class="node">
<title>Node1</title>
<g id="a_Node000001"><a xlink:title=" ">
<polygon fill="#999999" stroke="#666666" points="1132.25,-496 1010.5,-496 1010.5,-465.5 1132.25,-465.5 1132.25,-496"/>
<text text-anchor="start" x="1018.5" y="-482.5" font-family="Helvetica,sans-Serif" font-size="10.00">include/yaclib/util</text>
<text text-anchor="middle" x="1071.38" y="-471.25" font-family="Helvetica,sans-Serif" font-size="10.00">/detail/default_event.hpp</text>
</a>
</g>
</g>
<!-- Node2 -->
<g id="Node000002" class="node">
<title>Node2</title>
<g id="a_Node000002"><a xlink:href="one__shot__event_8hpp.html" target="_top" xlink:title=" ">
<polygon fill="white" stroke="#666666" points="804.38,-429.5 698.38,-429.5 698.38,-399 804.38,-399 804.38,-429.5"/>
<text text-anchor="start" x="706.38" y="-416" font-family="Helvetica,sans-Serif" font-size="10.00">include/yaclib/algo</text>
<text text-anchor="middle" x="751.38" y="-404.75" font-family="Helvetica,sans-Serif" font-size="10.00">/one_shot_event.hpp</text>
</a>
</g>
</g>
<!-- Node1&#45;&gt;Node2 -->
<g id="edge1_Node000001_Node000002" class="edge">
<title>Node1&#45;&gt;Node2</title>
<g id="a_edge1_Node000001_Node000002"><a xlink:title=" ">
<path fill="none" stroke="#63b8ff" d="M998.94,-465.15C939.93,-453.26 857.95,-436.73 804.78,-426.02"/>
<polygon fill="#63b8ff" stroke="#63b8ff" points="998.08,-468.55 1008.57,-467.09 999.46,-461.68 998.08,-468.55"/>
</a>
</g>
</g>
<!-- Node6 -->
<g id="Node000006" class="node">
<title>Node6</title>
<g id="a_Node000006"><a xlink:href="wait__impl_8hpp.html" target="_top" xlink:title=" ">
<polygon fill="white" stroke="#666666" points="1499.62,-429.5 1395.12,-429.5 1395.12,-399 1499.62,-399 1499.62,-429.5"/>
<text text-anchor="start" x="1403.12" y="-416" font-family="Helvetica,sans-Serif" font-size="10.00">include/yaclib/async</text>
<text text-anchor="middle" x="1447.38" y="-404.75" font-family="Helvetica,sans-Serif" font-size="10.00">/detail/wait_impl.hpp</text>
</a>
</g>
</g>
<!-- Node1&#45;&gt;Node6 -->
<g id="edge5_Node000001_Node000006" class="edge">
<title>Node1&#45;&gt;Node6</title>
<g id="a_edge5_Node000001_Node000006"><a xlink:title=" ">
<path fill="none" stroke="#63b8ff" d="M1143.62,-467.36C1217.08,-454.75 1329.16,-435.53 1394.66,-424.29"/>
<polygon fill="#63b8ff" stroke="#63b8ff" points="1143.38,-463.85 1134.11,-468.99 1144.56,-470.75 1143.38,-463.85"/>
</a>
</g>
</g>
<!-- Node7 -->
<g id="Node000007" class="node">
<title>Node7</title>
<g id="a_Node000007"><a xlink:href="wait_8hpp.html" target="_top" xlink:title=" ">
<polygon fill="white" stroke="#666666" points="1122.88,-363 1019.88,-363 1019.88,-332.5 1122.88,-332.5 1122.88,-363"/>
<text text-anchor="start" x="1027.88" y="-349.5" font-family="Helvetica,sans-Serif" font-size="10.00">include/yaclib/async</text>
<text text-anchor="middle" x="1071.38" y="-338.25" font-family="Helvetica,sans-Serif" font-size="10.00">/wait.hpp</text>
</a>
</g>
</g>
<!-- Node1&#45;&gt;Node7 -->
<g id="edge51_Node000001_Node000007" class="edge">
<title>Node1&#45;&gt;Node7</title>
<g id="a_edge51_Node000001_Node000007"><a xlink:title=" ">
<path fill="none" stroke="#63b8ff" d="M1071.38,-453.93C1071.38,-426.84 1071.38,-385.21 1071.38,-363.33"/>
<polygon fill="#63b8ff" stroke="#63b8ff" points="1067.88,-453.72 1071.38,-463.72 1074.88,-453.72 1067.88,-453.72"/>
</a>
</g>
</g>
<!-- Node3 -->
<g id="Node000003" class="node">
<title>Node3</title>
<g id="a_Node000003"><a xlink:href="wait__group_8hpp.html" target="_top" xlink:title=" ">
<polygon fill="white" stroke="#666666" points="118.12,-230 22.62,-230 22.62,-199.5 118.12,-199.5 118.12,-230"/>
<text text-anchor="start" x="30.62" y="-216.5" font-family="Helvetica,sans-Serif" font-size="10.00">include/yaclib/algo</text>
<text text-anchor="middle" x="70.38" y="-205.25" font-family="Helvetica,sans-Serif" font-size="10.00">/wait_group.hpp</text>
</a>
</g>
</g>
<!-- Node2&#45;&gt;Node3 -->
<g id="edge2_Node000002_Node000003" class="edge">
<title>Node2&#45;&gt;Node3</title>
<g id="a_edge2_Node000002_Node000003"><a xlink:title=" ">
<path fill="none" stroke="#63b8ff" d="M689.88,-395.42C555.81,-356.53 239.56,-264.82 118.59,-229.73"/>
<polygon fill="#63b8ff" stroke="#63b8ff" points="688.71,-398.72 699.29,-398.15 690.66,-392 688.71,-398.72"/>
</a>
</g>
</g>
<!-- Node5 -->
<g id="Node000005" class="node">
<title>Node5</title>
<g id="a_Node000005"><a xlink:href="one__shot__event_8cpp.html" target="_top" xlink:title=" ">
<polygon fill="white" stroke="#666666" points="821.62,-357.38 681.12,-357.38 681.12,-338.12 821.62,-338.12 821.62,-357.38"/>
<text text-anchor="middle" x="751.38" y="-343.88" font-family="Helvetica,sans-Serif" font-size="10.00">src/algo/one_shot_event.cpp</text>
</a>
</g>
</g>
<!-- Node2&#45;&gt;Node5 -->
<g id="edge4_Node000002_Node000005" class="edge">
<title>Node2&#45;&gt;Node5</title>
<g id="a_edge4_Node000002_Node000005"><a xlink:title=" ">
<path fill="none" stroke="#63b8ff" d="M751.38,-387.34C751.38,-376.76 751.38,-365.25 751.38,-357.57"/>
<polygon fill="#63b8ff" stroke="#63b8ff" points="747.88,-387.1 751.38,-397.1 754.88,-387.1 747.88,-387.1"/>
</a>
</g>
</g>
<!-- Node4 -->
<g id="Node000004" class="node">
<title>Node4</title>
<g id="a_Node000004"><a xlink:href="wait__group_8cpp.html" target="_top" xlink:title=" ">
<polygon fill="white" stroke="#666666" points="118.75,-157.88 0,-157.88 0,-138.62 118.75,-138.62 118.75,-157.88"/>
<text text-anchor="middle" x="59.38" y="-144.38" font-family="Helvetica,sans-Serif" font-size="10.00">src/algo/wait_group.cpp</text>
</a>
</g>
</g>
<!-- Node3&#45;&gt;Node4 -->
<g id="edge3_Node000003_Node000004" class="edge">
<title>Node3&#45;&gt;Node4</title>
<g id="a_edge3_Node000003_Node000004"><a xlink:title=" ">
<path fill="none" stroke="#63b8ff" d="M65.96,-187.84C64.15,-177.26 62.19,-165.75 60.88,-158.07"/>
<polygon fill="#63b8ff" stroke="#63b8ff" points="62.49,-188.35 67.62,-197.62 69.39,-187.18 62.49,-188.35"/>
</a>
</g>
</g>
<!-- Node6&#45;&gt;Node7 -->
<g id="edge6_Node000006_Node000007" class="edge">
<title>Node6&#45;&gt;Node7</title>
<g id="a_edge6_Node000006_Node000007"><a xlink:title=" ">
<path fill="none" stroke="#63b8ff" d="M1383.77,-402.34C1310.36,-389.75 1191.05,-369.28 1123.09,-357.62"/>
<polygon fill="#63b8ff" stroke="#63b8ff" points="1382.76,-405.72 1393.21,-403.96 1383.94,-398.82 1382.76,-405.72"/>
</a>
</g>
</g>
<!-- Node20 -->
<g id="Node000020" class="node">
<title>Node20</title>
<g id="a_Node000020"><a xlink:href="wait__for_8hpp.html" target="_top" xlink:title=" ">
<polygon fill="white" stroke="#666666" points="1753.88,-230 1650.88,-230 1650.88,-199.5 1753.88,-199.5 1753.88,-230"/>
<text text-anchor="start" x="1658.88" y="-216.5" font-family="Helvetica,sans-Serif" font-size="10.00">include/yaclib/async</text>
<text text-anchor="middle" x="1702.38" y="-205.25" font-family="Helvetica,sans-Serif" font-size="10.00">/wait_for.hpp</text>
</a>
</g>
</g>
<!-- Node6&#45;&gt;Node20 -->
<g id="edge48_Node000006_Node000020" class="edge">
<title>Node6&#45;&gt;Node20</title>
<g id="a_edge48_Node000006_Node000020"><a xlink:title=" ">
<path fill="none" stroke="#63b8ff" d="M1443.63,-387.55C1440.42,-354.84 1440.39,-298.66 1471.38,-266 1471.57,-265.79 1582.55,-241.72 1650.59,-226.97"/>
<polygon fill="#63b8ff" stroke="#63b8ff" points="1440.13,-387.82 1444.78,-397.34 1447.08,-387 1440.13,-387.82"/>
</a>
</g>
</g>
<!-- Node21 -->
<g id="Node000021" class="node">
<title>Node21</title>
<g id="a_Node000021"><a xlink:href="wait__until_8hpp.html" target="_top" xlink:title=" ">
<polygon fill="white" stroke="#666666" points="1874.88,-230 1771.88,-230 1771.88,-199.5 1874.88,-199.5 1874.88,-230"/>
<text text-anchor="start" x="1779.88" y="-216.5" font-family="Helvetica,sans-Serif" font-size="10.00">include/yaclib/async</text>
<text text-anchor="middle" x="1823.38" y="-205.25" font-family="Helvetica,sans-Serif" font-size="10.00">/wait_until.hpp</text>
</a>
</g>
</g>
<!-- Node6&#45;&gt;Node21 -->
<g id="edge49_Node000006_Node000021" class="edge">
<title>Node6&#45;&gt;Node21</title>
<g id="a_edge49_Node000006_Node000021"><a xlink:title=" ">
<path fill="none" stroke="#63b8ff" d="M1459.48,-388.7C1469.37,-370.9 1484.88,-347.43 1504.38,-332.5 1547.45,-299.51 1693.4,-253.63 1772.09,-230.43"/>
<polygon fill="#63b8ff" stroke="#63b8ff" points="1456.49,-386.86 1454.9,-397.33 1462.68,-390.14 1456.49,-386.86"/>
</a>
</g>
</g>
<!-- Node33 -->
<g id="Node000033" class="node">
<title>Node33</title>
<g id="a_Node000033"><a xlink:href="wait__impl_8cpp.html" target="_top" xlink:title=" ">
<polygon fill="white" stroke="#666666" points="1633.5,-357.38 1513.25,-357.38 1513.25,-338.12 1633.5,-338.12 1633.5,-357.38"/>
<text text-anchor="middle" x="1573.38" y="-343.88" font-family="Helvetica,sans-Serif" font-size="10.00">src/async/wait_impl.cpp</text>
</a>
</g>
</g>
<!-- Node6&#45;&gt;Node33 -->
<g id="edge50_Node000006_Node000033" class="edge">
<title>Node6&#45;&gt;Node33</title>
<g id="a_edge50_Node000006_Node000033"><a xlink:title=" ">
<path fill="none" stroke="#63b8ff" d="M1485.91,-393.53C1509.19,-381.6 1537.76,-366.98 1555.77,-357.76"/>
<polygon fill="#63b8ff" stroke="#63b8ff" points="1484.62,-390.25 1477.31,-397.92 1487.81,-396.48 1484.62,-390.25"/>
</a>
</g>
</g>
<!-- Node8 -->
<g id="Node000008" class="node">
<title>Node8</title>
<g id="a_Node000008"><a xlink:href="async_2future_8hpp.html" target="_top" xlink:title=" ">
<polygon fill="white" stroke="#666666" points="1122.88,-296.5 1019.88,-296.5 1019.88,-266 1122.88,-266 1122.88,-296.5"/>
<text text-anchor="start" x="1027.88" y="-283" font-family="Helvetica,sans-Serif" font-size="10.00">include/yaclib/async</text>
<text text-anchor="middle" x="1071.38" y="-271.75" font-family="Helvetica,sans-Serif" font-size="10.00">/future.hpp</text>
</a>
</g>
</g>
<!-- Node7&#45;&gt;Node8 -->
<g id="edge7_Node000007_Node000008" class="edge">
<title>Node7&#45;&gt;Node8</title>
<g id="a_edge7_Node000007_Node000008"><a xlink:title=" ">
<path fill="none" stroke="#63b8ff" d="M1064.74,-320.81C1064.44,-312.64 1064.73,-303.91 1065.62,-296.83"/>
<polygon fill="#63b8ff" stroke="#63b8ff" points="1061.24,-320.9 1065.5,-330.6 1068.22,-320.37 1061.24,-320.9"/>
</a>
</g>
</g>
<!-- Node8&#45;&gt;Node3 -->
<g id="edge8_Node000008_Node000003" class="edge">
<title>Node8&#45;&gt;Node3</title>
<g id="a_edge8_Node000008_Node000003"><a xlink:title=" ">
<path fill="none" stroke="#63b8ff" d="M1008.05,-280.61C856.17,-280.67 459.51,-276 132.38,-230 127.89,-229.37 123.25,-228.58 118.62,-227.69"/>
<polygon fill="#63b8ff" stroke="#63b8ff" points="1007.91,-284.11 1017.9,-280.6 1007.9,-277.11 1007.91,-284.11"/>
</a>
</g>
</g>
<!-- Node8&#45;&gt;Node7 -->
<g id="edge25_Node000008_Node000007" class="edge">
<title>Node8&#45;&gt;Node7</title>
<g id="a_edge25_Node000008_Node000007"><a xlink:title=" ">
<path fill="none" stroke="#63b8ff" d="M1078.01,-308.13C1078.31,-316.29 1078.02,-325.02 1077.14,-332.11"/>
<polygon fill="#63b8ff" stroke="#63b8ff" points="1081.51,-308.04 1077.25,-298.34 1074.53,-308.58 1081.51,-308.04"/>
</a>
</g>
</g>
<!-- Node9 -->
<g id="Node000009" class="node">
<title>Node9</title>
<g id="a_Node000009"><a xlink:href="contract_8hpp.html" target="_top" xlink:title=" ">
<polygon fill="white" stroke="#666666" points="1288.88,-230 1185.88,-230 1185.88,-199.5 1288.88,-199.5 1288.88,-230"/>
<text text-anchor="start" x="1193.88" y="-216.5" font-family="Helvetica,sans-Serif" font-size="10.00">include/yaclib/async</text>
<text text-anchor="middle" x="1237.38" y="-205.25" font-family="Helvetica,sans-Serif" font-size="10.00">/contract.hpp</text>
</a>
</g>
</g>
<!-- Node8&#45;&gt;Node9 -->
<g id="edge9_Node000008_Node000009" class="edge">
<title>Node8&#45;&gt;Node9</title>
<g id="a_edge9_Node000008_Node000009"><a xlink:title=" ">
<path fill="none" stroke="#63b8ff" d="M1119.59,-261.51C1145.06,-251.62 1175.85,-239.65 1199.57,-230.44"/>
<polygon fill="#63b8ff" stroke="#63b8ff" points="1118.51,-258.18 1110.45,-265.07 1121.04,-264.71 1118.51,-258.18"/>
</a>
</g>
</g>
<!-- Node10 -->
<g id="Node000010" class="node">
<title>Node10</title>
<g id="a_Node000010"><a xlink:href="simple_8cpp.html" target="_top" xlink:title=" ">
<polygon fill="white" stroke="#666666" points="1524.38,-163.5 1424.38,-163.5 1424.38,-133 1524.38,-133 1524.38,-163.5"/>
<text text-anchor="start" x="1432.38" y="-150" font-family="Helvetica,sans-Serif" font-size="10.00">test/example/async</text>
<text text-anchor="middle" x="1474.38" y="-138.75" font-family="Helvetica,sans-Serif" font-size="10.00">/simple.cpp</text>
</a>
</g>
</g>
<!-- Node8&#45;&gt;Node10 -->
<g id="edge47_Node000008_Node000010" class="edge">
<title>Node8&#45;&gt;Node10</title>
<g id="a_edge47_Node000008_Node000010"><a xlink:title=" ">
<path fill="none" stroke="#63b8ff" d="M1134.39,-279.32C1227.74,-276.71 1396.76,-266.87 1443.38,-230 1463.87,-213.79 1470.82,-182.31 1473.18,-163.81"/>
<polygon fill="#63b8ff" stroke="#63b8ff" points="1134.54,-275.82 1124.63,-279.57 1134.72,-282.81 1134.54,-275.82"/>
</a>
</g>
</g>
<!-- Node11 -->
<g id="Node000011" class="node">
<title>Node11</title>
<g id="a_Node000011"><a xlink:href="when__impl_8hpp.html" target="_top" xlink:title=" ">
<polygon fill="white" stroke="#666666" points="1168.25,-230 1058.5,-230 1058.5,-199.5 1168.25,-199.5 1168.25,-230"/>
<text text-anchor="start" x="1066.5" y="-216.5" font-family="Helvetica,sans-Serif" font-size="10.00">include/yaclib/async</text>
<text text-anchor="middle" x="1113.38" y="-205.25" font-family="Helvetica,sans-Serif" font-size="10.00">/detail/when_impl.hpp</text>
</a>
</g>
</g>
<!-- Node8&#45;&gt;Node11 -->
<g id="edge11_Node000008_Node000011" class="edge">
<title>Node8&#45;&gt;Node11</title>
<g id="a_edge11_Node000008_Node000011"><a xlink:title=" ">
<path fill="none" stroke="#63b8ff" d="M1087.16,-256.01C1092.79,-247.37 1098.95,-237.91 1103.88,-230.33"/>
<polygon fill="#63b8ff" stroke="#63b8ff" points="1084.26,-254.06 1081.73,-264.35 1090.12,-257.88 1084.26,-254.06"/>
</a>
</g>
</g>
<!-- Node13 -->
<g id="Node000013" class="node">
<title>Node13</title>
<g id="a_Node000013"><a xlink:href="when__all_8hpp.html" target="_top" xlink:title=" ">
<polygon fill="white" stroke="#666666" points="1164.88,-97 1061.88,-97 1061.88,-66.5 1164.88,-66.5 1164.88,-97"/>
<text text-anchor="start" x="1069.88" y="-83.5" font-family="Helvetica,sans-Serif" font-size="10.00">include/yaclib/async</text>
<text text-anchor="middle" x="1113.38" y="-72.25" font-family="Helvetica,sans-Serif" font-size="10.00">/when_all.hpp</text>
</a>
</g>
</g>
<!-- Node8&#45;&gt;Node13 -->
<g id="edge28_Node000008_Node000013" class="edge">
<title>Node8&#45;&gt;Node13</title>
<g id="a_edge28_Node000008_Node000013"><a xlink:title=" ">
<path fill="none" stroke="#63b8ff" d="M1058.24,-255.75C1054.63,-247.77 1051.2,-238.72 1049.38,-230 1046.6,-216.73 1046.44,-212.73 1049.38,-199.5 1058.28,-159.33 1085.74,-118.58 1101.65,-97.47"/>
<polygon fill="#63b8ff" stroke="#63b8ff" points="1054.97,-257.02 1062.49,-264.47 1061.26,-253.95 1054.97,-257.02"/>
</a>
</g>
</g>
<!-- Node16 -->
<g id="Node000016" class="node">
<title>Node16</title>
<g id="a_Node000016"><a xlink:href="when__any_8hpp.html" target="_top" xlink:title=" ">
<polygon fill="white" stroke="#666666" points="1454.88,-97 1351.88,-97 1351.88,-66.5 1454.88,-66.5 1454.88,-97"/>
<text text-anchor="start" x="1359.88" y="-83.5" font-family="Helvetica,sans-Serif" font-size="10.00">include/yaclib/async</text>
<text text-anchor="middle" x="1403.38" y="-72.25" font-family="Helvetica,sans-Serif" font-size="10.00">/when_any.hpp</text>
</a>
</g>
</g>
<!-- Node8&#45;&gt;Node16 -->
<g id="edge29_Node000008_Node000016" class="edge">
<title>Node8&#45;&gt;Node16</title>
<g id="a_edge29_Node000008_Node000016"><a xlink:title=" ">
<path fill="none" stroke="#63b8ff" d="M1134.23,-278.96C1268.22,-275.56 1572.32,-264.13 1603.38,-230 1656.63,-171.48 1530.78,-121.2 1455.22,-97.41"/>
<polygon fill="#63b8ff" stroke="#63b8ff" points="1134.38,-275.46 1124.47,-279.2 1134.56,-282.45 1134.38,-275.46"/>
</a>
</g>
</g>
<!-- Node18 -->
<g id="Node000018" class="node">
<title>Node18</title>
<g id="a_Node000018"><a xlink:href="async_2make_8hpp.html" target="_top" xlink:title=" ">
<polygon fill="white" stroke="#666666" points="341.88,-230 238.88,-230 238.88,-199.5 341.88,-199.5 341.88,-230"/>
<text text-anchor="start" x="246.88" y="-216.5" font-family="Helvetica,sans-Serif" font-size="10.00">include/yaclib/async</text>
<text text-anchor="middle" x="290.38" y="-205.25" font-family="Helvetica,sans-Serif" font-size="10.00">/make.hpp</text>
</a>
</g>
</g>
<!-- Node8&#45;&gt;Node18 -->
<g id="edge20_Node000008_Node000018" class="edge">
<title>Node8&#45;&gt;Node18</title>
<g id="a_edge20_Node000008_Node000018"><a xlink:title=" ">
<path fill="none" stroke="#63b8ff" d="M1008.29,-278.83C883.31,-275.36 595.61,-264.06 356.38,-230 351.73,-229.34 346.93,-228.54 342.13,-227.65"/>
<polygon fill="#63b8ff" stroke="#63b8ff" points="1007.91,-282.32 1018,-279.09 1008.1,-275.33 1007.91,-282.32"/>
</a>
</g>
</g>
<!-- Node19 -->
<g id="Node000019" class="node">
<title>Node19</title>
<g id="a_Node000019"><a xlink:href="run_8hpp.html" target="_top" xlink:title=" ">
<polygon fill="white" stroke="#666666" points="1593.88,-230 1490.88,-230 1490.88,-199.5 1593.88,-199.5 1593.88,-230"/>
<text text-anchor="start" x="1498.88" y="-216.5" font-family="Helvetica,sans-Serif" font-size="10.00">include/yaclib/async</text>
<text text-anchor="middle" x="1542.38" y="-205.25" font-family="Helvetica,sans-Serif" font-size="10.00">/run.hpp</text>
</a>
</g>
</g>
<!-- Node8&#45;&gt;Node19 -->
<g id="edge21_Node000008_Node000019" class="edge">
<title>Node8&#45;&gt;Node19</title>
<g id="a_edge21_Node000008_Node000019"><a xlink:title=" ">
<path fill="none" stroke="#63b8ff" d="M1134.38,-274.19C1214.25,-266.11 1356.03,-250.42 1476.38,-230 1481,-229.22 1485.79,-228.33 1490.58,-227.39"/>
<polygon fill="#63b8ff" stroke="#63b8ff" points="1134.16,-270.7 1124.56,-275.18 1134.86,-277.66 1134.16,-270.7"/>
</a>
</g>
</g>
<!-- Node8&#45;&gt;Node20 -->
<g id="edge26_Node000008_Node000020" class="edge">
<title>Node8&#45;&gt;Node20</title>
<g id="a_edge26_Node000008_Node000020"><a xlink:title=" ">
<path fill="none" stroke="#63b8ff" d="M1134.34,-277.2C1239.02,-271.57 1455.26,-257.5 1636.38,-230 1641.01,-229.3 1645.81,-228.46 1650.61,-227.56"/>
<polygon fill="#63b8ff" stroke="#63b8ff" points="1134.36,-273.7 1124.56,-277.72 1134.73,-280.69 1134.36,-273.7"/>
</a>
</g>
</g>
<!-- Node8&#45;&gt;Node21 -->
<g id="edge27_Node000008_Node000021" class="edge">
<title>Node8&#45;&gt;Node21</title>
<g id="a_edge27_Node000008_Node000021"><a xlink:title=" ">
<path fill="none" stroke="#63b8ff" d="M1134.68,-279.05C1256.9,-275.98 1533.58,-265.4 1763.38,-230 1766.02,-229.59 1768.72,-229.13 1771.44,-228.62"/>
<polygon fill="#63b8ff" stroke="#63b8ff" points="1134.77,-275.55 1124.86,-279.29 1134.94,-282.54 1134.77,-275.55"/>
</a>
</g>
</g>
<!-- Node22 -->
<g id="Node000022" class="node">
<title>Node22</title>
<g id="a_Node000022"><a xlink:href="await_8hpp.html" target="_top" xlink:title=" ">
<polygon fill="white" stroke="#666666" points="239.5,-97 143.25,-97 143.25,-66.5 239.5,-66.5 239.5,-97"/>
<text text-anchor="start" x="151.25" y="-83.5" font-family="Helvetica,sans-Serif" font-size="10.00">include/yaclib/coro</text>
<text text-anchor="middle" x="191.38" y="-72.25" font-family="Helvetica,sans-Serif" font-size="10.00">/await.hpp</text>
</a>
</g>
</g>
<!-- Node8&#45;&gt;Node22 -->
<g id="edge30_Node000008_Node000022" class="edge">
<title>Node8&#45;&gt;Node22</title>
<g id="a_edge30_Node000008_Node000022"><a xlink:title=" ">
<path fill="none" stroke="#63b8ff" d="M1008.09,-279.55C822.07,-277.07 285.7,-266.77 216.38,-230 183.47,-212.55 177.34,-198.77 165.38,-163.5 157.57,-140.49 170.62,-113.59 180.89,-97.38"/>
<polygon fill="#63b8ff" stroke="#63b8ff" points="1008.01,-283.05 1018.05,-279.68 1008.1,-276.05 1008.01,-283.05"/>
</a>
</g>
</g>
<!-- Node23 -->
<g id="Node000023" class="node">
<title>Node23</title>
<g id="a_Node000023"><a xlink:href="await__on_8hpp.html" target="_top" xlink:title=" ">
<polygon fill="white" stroke="#666666" points="423.5,-97 327.25,-97 327.25,-66.5 423.5,-66.5 423.5,-97"/>
<text text-anchor="start" x="335.25" y="-83.5" font-family="Helvetica,sans-Serif" font-size="10.00">include/yaclib/coro</text>
<text text-anchor="middle" x="375.38" y="-72.25" font-family="Helvetica,sans-Serif" font-size="10.00">/await_on.hpp</text>
</a>
</g>
</g>
<!-- Node8&#45;&gt;Node23 -->
<g id="edge31_Node000008_Node000023" class="edge">
<title>Node8&#45;&gt;Node23</title>
<g id="a_edge31_Node000008_Node000023"><a xlink:title=" ">
<path fill="none" stroke="#63b8ff" d="M1008.04,-280.14C904.33,-278.71 692.41,-270.53 518.38,-230 438.15,-211.32 392.02,-231.4 345.38,-163.5 331.15,-142.79 348.51,-114.49 362.13,-97.47"/>
<polygon fill="#63b8ff" stroke="#63b8ff" points="1007.99,-283.64 1018.03,-280.26 1008.07,-276.64 1007.99,-283.64"/>
</a>
</g>
</g>
<!-- Node24 -->
<g id="Node000024" class="node">
<title>Node24</title>
<g id="a_Node000024"><a xlink:href="await__awaiter_8hpp.html" target="_top" xlink:title=" ">
<polygon fill="white" stroke="#666666" points="298,-163.5 174.75,-163.5 174.75,-133 298,-133 298,-163.5"/>
<text text-anchor="start" x="182.75" y="-150" font-family="Helvetica,sans-Serif" font-size="10.00">include/yaclib/coro</text>
<text text-anchor="middle" x="236.38" y="-138.75" font-family="Helvetica,sans-Serif" font-size="10.00">/detail/await_awaiter.hpp</text>
</a>
</g>
</g>
<!-- Node8&#45;&gt;Node24 -->
<g id="edge32_Node000008_Node000024" class="edge">
<title>Node8&#45;&gt;Node24</title>
<g id="a_edge32_Node000008_Node000024"><a xlink:title=" ">
<path fill="none" stroke="#63b8ff" d="M1008.44,-278.83C817.48,-274.21 256.02,-258.28 229.38,-230 212.78,-212.38 221.64,-181.99 229.25,-163.94"/>
<polygon fill="#63b8ff" stroke="#63b8ff" points="1008.08,-282.32 1018.16,-279.06 1008.25,-275.32 1008.08,-282.32"/>
</a>
</g>
</g>
<!-- Node25 -->
<g id="Node000025" class="node">
<title>Node25</title>
<g id="a_Node000025"><a xlink:href="await__on__awaiter_8hpp.html" target="_top" xlink:title=" ">
<polygon fill="white" stroke="#666666" points="493.88,-163.5 354.88,-163.5 354.88,-133 493.88,-133 493.88,-163.5"/>
<text text-anchor="start" x="362.88" y="-150" font-family="Helvetica,sans-Serif" font-size="10.00">include/yaclib/coro</text>
<text text-anchor="middle" x="424.38" y="-138.75" font-family="Helvetica,sans-Serif" font-size="10.00">/detail/await_on_awaiter.hpp</text>
</a>
</g>
</g>
<!-- Node8&#45;&gt;Node25 -->
<g id="edge34_Node000008_Node000025" class="edge">
<title>Node8&#45;&gt;Node25</title>
<g id="a_edge34_Node000008_Node000025"><a xlink:title=" ">
<path fill="none" stroke="#63b8ff" d="M1008.35,-279.89C917.03,-277.94 743.31,-268.86 601.38,-230 544.53,-214.43 482.94,-182.57 449.49,-163.86"/>
<polygon fill="#63b8ff" stroke="#63b8ff" points="1008.03,-283.38 1018.09,-280.07 1008.16,-276.38 1008.03,-283.38"/>
</a>
</g>
</g>
<!-- Node26 -->
<g id="Node000026" class="node">
<title>Node26</title>
<g id="a_Node000026"><a xlink:href="coro_2future_8hpp.html" target="_top" xlink:title=" ">
<polygon fill="white" stroke="#666666" points="1002.5,-163.5 906.25,-163.5 906.25,-133 1002.5,-133 1002.5,-163.5"/>
<text text-anchor="start" x="914.25" y="-150" font-family="Helvetica,sans-Serif" font-size="10.00">include/yaclib/coro</text>
<text text-anchor="middle" x="954.38" y="-138.75" font-family="Helvetica,sans-Serif" font-size="10.00">/future.hpp</text>
</a>
</g>
</g>
<!-- Node8&#45;&gt;Node26 -->
<g id="edge36_Node000008_Node000026" class="edge">
<title>Node8&#45;&gt;Node26</title>
<g id="a_edge36_Node000008_Node000026"><a xlink:title=" ">
<path fill="none" stroke="#63b8ff" d="M1045.17,-258.01C1035.75,-249.58 1025.26,-239.68 1016.38,-230 996.41,-208.26 976.11,-180.52 964.41,-163.86"/>
<polygon fill="#63b8ff" stroke="#63b8ff" points="1042.83,-260.62 1052.66,-264.59 1047.45,-255.36 1042.83,-260.62"/>
</a>
</g>
</g>
<!-- Node27 -->
<g id="Node000027" class="node">
<title>Node27</title>
<g id="a_Node000027"><a xlink:href="lazy_2task_8hpp.html" target="_top" xlink:title=" ">
<polygon fill="white" stroke="#666666" points="704.38,-230 610.38,-230 610.38,-199.5 704.38,-199.5 704.38,-230"/>
<text text-anchor="start" x="618.38" y="-216.5" font-family="Helvetica,sans-Serif" font-size="10.00">include/yaclib/lazy</text>
<text text-anchor="middle" x="657.38" y="-205.25" font-family="Helvetica,sans-Serif" font-size="10.00">/task.hpp</text>
</a>
</g>
</g>
<!-- Node8&#45;&gt;Node27 -->
<g id="edge37_Node000008_Node000027" class="edge">
<title>Node8&#45;&gt;Node27</title>
<g id="a_edge37_Node000008_Node000027"><a xlink:title=" ">
<path fill="none" stroke="#63b8ff" d="M1008.43,-270.44C924.99,-257.44 779.6,-234.79 704.81,-223.14"/>
<polygon fill="#63b8ff" stroke="#63b8ff" points="1007.86,-273.9 1018.28,-271.98 1008.94,-266.98 1007.86,-273.9"/>
</a>
</g>
</g>
<!-- Node32 -->
<g id="Node000032" class="node">
<title>Node32</title>
<g id="a_Node000032"><a xlink:href="future__impl_8cpp.html" target="_top" xlink:title=" ">
<polygon fill="white" stroke="#666666" points="1433.88,-224.38 1306.88,-224.38 1306.88,-205.12 1433.88,-205.12 1433.88,-224.38"/>
<text text-anchor="middle" x="1370.38" y="-210.88" font-family="Helvetica,sans-Serif" font-size="10.00">src/async/future_impl.cpp</text>
</a>
</g>
</g>
<!-- Node8&#45;&gt;Node32 -->
<g id="edge46_Node000008_Node000032" class="edge">
<title>Node8&#45;&gt;Node32</title>
<g id="a_edge46_Node000008_Node000032"><a xlink:title=" ">
<path fill="none" stroke="#63b8ff" d="M1134.05,-266.73C1192.44,-254.13 1277.86,-235.71 1328.42,-224.8"/>
<polygon fill="#63b8ff" stroke="#63b8ff" points="1133.63,-263.24 1124.59,-268.77 1135.11,-270.08 1133.63,-263.24"/>
</a>
</g>
</g>
<!-- Node9&#45;&gt;Node10 -->
<g id="edge10_Node000009_Node000010" class="edge">
<title>Node9&#45;&gt;Node10</title>
<g id="a_edge10_Node000009_Node000010"><a xlink:title=" ">
<path fill="none" stroke="#63b8ff" d="M1299.73,-196.78C1338.5,-186.23 1387.7,-172.84 1423.99,-162.96"/>
<polygon fill="#63b8ff" stroke="#63b8ff" points="1299.28,-193.27 1290.55,-199.28 1301.12,-200.03 1299.28,-193.27"/>
</a>
</g>
</g>
<!-- Node12 -->
<g id="Node000012" class="node">
<title>Node12</title>
<g id="a_Node000012"><a xlink:href="when__all__impl_8hpp.html" target="_top" xlink:title=" ">
<polygon fill="white" stroke="#666666" points="1220.75,-163.5 1096,-163.5 1096,-133 1220.75,-133 1220.75,-163.5"/>
<text text-anchor="start" x="1104" y="-150" font-family="Helvetica,sans-Serif" font-size="10.00">include/yaclib/async</text>
<text text-anchor="middle" x="1158.38" y="-138.75" font-family="Helvetica,sans-Serif" font-size="10.00">/detail/when_all_impl.hpp</text>
</a>
</g>
</g>
<!-- Node11&#45;&gt;Node12 -->
<g id="edge12_Node000011_Node000012" class="edge">
<title>Node11&#45;&gt;Node12</title>
<g id="a_edge12_Node000011_Node000012"><a xlink:title=" ">
<path fill="none" stroke="#63b8ff" d="M1130.09,-189.79C1136.17,-181.07 1142.86,-171.49 1148.2,-163.83"/>
<polygon fill="#63b8ff" stroke="#63b8ff" points="1127.3,-187.67 1124.45,-197.87 1133.04,-191.67 1127.3,-187.67"/>
</a>
</g>
</g>
<!-- Node11&#45;&gt;Node13 -->
<g id="edge18_Node000011_Node000013" class="edge">
<title>Node11&#45;&gt;Node13</title>
<g id="a_edge18_Node000011_Node000013"><a xlink:title=" ">
<path fill="none" stroke="#63b8ff" d="M1097.68,-189.15C1093.48,-181.26 1089.51,-172.29 1087.38,-163.5 1084.17,-150.33 1084.17,-146.17 1087.38,-133 1090.49,-120.21 1097.47,-107.04 1103.41,-97.4"/>
<polygon fill="#63b8ff" stroke="#63b8ff" points="1094.64,-190.87 1102.65,-197.79 1100.7,-187.38 1094.64,-190.87"/>
</a>
</g>
</g>
<!-- Node15 -->
<g id="Node000015" class="node">
<title>Node15</title>
<g id="a_Node000015"><a xlink:href="when__any__impl_8hpp.html" target="_top" xlink:title=" ">
<polygon fill="white" stroke="#666666" points="1406.38,-163.5 1276.38,-163.5 1276.38,-133 1406.38,-133 1406.38,-163.5"/>
<text text-anchor="start" x="1284.38" y="-150" font-family="Helvetica,sans-Serif" font-size="10.00">include/yaclib/async</text>
<text text-anchor="middle" x="1341.38" y="-138.75" font-family="Helvetica,sans-Serif" font-size="10.00">/detail/when_any_impl.hpp</text>
</a>
</g>
</g>
<!-- Node11&#45;&gt;Node15 -->
<g id="edge15_Node000011_Node000015" class="edge">
<title>Node11&#45;&gt;Node15</title>
<g id="a_edge15_Node000011_Node000015"><a xlink:title=" ">
<path fill="none" stroke="#63b8ff" d="M1176.17,-195.99C1211.83,-185.9 1255.91,-173.43 1289.58,-163.9"/>
<polygon fill="#63b8ff" stroke="#63b8ff" points="1175.52,-192.53 1166.85,-198.62 1177.43,-199.27 1175.52,-192.53"/>
</a>
</g>
</g>
<!-- Node11&#45;&gt;Node16 -->
<g id="edge19_Node000011_Node000016" class="edge">
<title>Node11&#45;&gt;Node16</title>
<g id="a_edge19_Node000011_Node000016"><a xlink:title=" ">
<path fill="none" stroke="#63b8ff" d="M1164.91,-194.89C1185.57,-186.45 1209.21,-175.66 1229.38,-163.5 1247.92,-152.32 1248.53,-143.67 1267.38,-133 1293.88,-118 1325.71,-105.95 1351.91,-97.42"/>
<polygon fill="#63b8ff" stroke="#63b8ff" points="1163.81,-191.56 1155.82,-198.52 1166.4,-198.06 1163.81,-191.56"/>
</a>
</g>
</g>
<!-- Node12&#45;&gt;Node13 -->
<g id="edge13_Node000012_Node000013" class="edge">
<title>Node12&#45;&gt;Node13</title>
<g id="a_edge13_Node000012_Node000013"><a xlink:title=" ">
<path fill="none" stroke="#63b8ff" d="M1141.66,-123.29C1135.58,-114.57 1128.89,-104.99 1123.55,-97.33"/>
<polygon fill="#63b8ff" stroke="#63b8ff" points="1138.71,-125.17 1147.3,-131.37 1144.45,-121.17 1138.71,-125.17"/>
</a>
</g>
</g>
<!-- Node14 -->
<g id="Node000014" class="node">
<title>Node14</title>
<g id="a_Node000014"><a xlink:href="when__all_8cpp.html" target="_top" xlink:title=" ">
<polygon fill="white" stroke="#666666" points="1427.38,-30.5 1327.38,-30.5 1327.38,0 1427.38,0 1427.38,-30.5"/>
<text text-anchor="start" x="1335.38" y="-17" font-family="Helvetica,sans-Serif" font-size="10.00">test/example/async</text>
<text text-anchor="middle" x="1377.38" y="-5.75" font-family="Helvetica,sans-Serif" font-size="10.00">/when_all.cpp</text>
</a>
</g>
</g>
<!-- Node13&#45;&gt;Node14 -->
<g id="edge14_Node000013_Node000014" class="edge">
<title>Node13&#45;&gt;Node14</title>
<g id="a_edge14_Node000013_Node000014"><a xlink:title=" ">
<path fill="none" stroke="#63b8ff" d="M1176.28,-65.38C1222.38,-54.12 1284.14,-39.03 1327,-28.56"/>
<polygon fill="#63b8ff" stroke="#63b8ff" points="1175.57,-61.95 1166.69,-67.72 1177.23,-68.75 1175.57,-61.95"/>
</a>
</g>
</g>
<!-- Node15&#45;&gt;Node16 -->
<g id="edge16_Node000015_Node000016" class="edge">
<title>Node15&#45;&gt;Node16</title>
<g id="a_edge16_Node000015_Node000016"><a xlink:title=" ">
<path fill="none" stroke="#63b8ff" d="M1363.33,-124.41C1371.99,-115.4 1381.68,-105.32 1389.36,-97.33"/>
<polygon fill="#63b8ff" stroke="#63b8ff" points="1360.9,-121.89 1356.49,-131.52 1365.95,-126.74 1360.9,-121.89"/>
</a>
</g>
</g>
<!-- Node17 -->
<g id="Node000017" class="node">
<title>Node17</title>
<g id="a_Node000017"><a xlink:href="when__any_8cpp.html" target="_top" xlink:title=" ">
<polygon fill="white" stroke="#666666" points="1577.38,-30.5 1477.38,-30.5 1477.38,0 1577.38,0 1577.38,-30.5"/>
<text text-anchor="start" x="1485.38" y="-17" font-family="Helvetica,sans-Serif" font-size="10.00">test/example/async</text>
<text text-anchor="middle" x="1527.38" y="-5.75" font-family="Helvetica,sans-Serif" font-size="10.00">/when_any.cpp</text>
</a>
</g>
</g>
<!-- Node16&#45;&gt;Node17 -->
<g id="edge17_Node000016_Node000017" class="edge">
<title>Node16&#45;&gt;Node17</title>
<g id="a_edge17_Node000016_Node000017"><a xlink:title=" ">
<path fill="none" stroke="#63b8ff" d="M1441.48,-60.93C1460.16,-51.21 1482.25,-39.72 1499.35,-30.83"/>
<polygon fill="#63b8ff" stroke="#63b8ff" points="1440.11,-57.7 1432.86,-65.42 1443.34,-63.91 1440.11,-57.7"/>
</a>
</g>
</g>
<!-- Node19&#45;&gt;Node10 -->
<g id="edge22_Node000019_Node000010" class="edge">
<title>Node19&#45;&gt;Node10</title>
<g id="a_edge22_Node000019_Node000010"><a xlink:title=" ">
<path fill="none" stroke="#63b8ff" d="M1518.88,-191.46C1509.24,-182.32 1498.34,-171.98 1489.74,-163.83"/>
<polygon fill="#63b8ff" stroke="#63b8ff" points="1516.18,-193.73 1525.85,-198.07 1521,-188.65 1516.18,-193.73"/>
</a>
</g>
</g>
<!-- Node19&#45;&gt;Node14 -->
<g id="edge23_Node000019_Node000014" class="edge">
<title>Node19&#45;&gt;Node14</title>
<g id="a_edge23_Node000019_Node000014"><a xlink:title=" ">
<path fill="none" stroke="#63b8ff" d="M1543.88,-187.72C1543.79,-171.25 1541.71,-149.94 1533.38,-133 1508.65,-82.77 1450.69,-48.69 1412.81,-30.87"/>
<polygon fill="#63b8ff" stroke="#63b8ff" points="1540.38,-187.63 1543.66,-197.71 1547.38,-187.79 1540.38,-187.63"/>
</a>
</g>
</g>
<!-- Node19&#45;&gt;Node17 -->
<g id="edge24_Node000019_Node000017" class="edge">
<title>Node19&#45;&gt;Node17</title>
<g id="a_edge24_Node000019_Node000017"><a xlink:title=" ">
<path fill="none" stroke="#63b8ff" d="M1556.69,-189.37C1560.64,-181.4 1564.38,-172.32 1566.38,-163.5 1575.9,-121.45 1580.35,-107.28 1566.38,-66.5 1561.72,-52.92 1551.74,-40.17 1543.04,-30.92"/>
<polygon fill="#63b8ff" stroke="#63b8ff" points="1553.66,-187.62 1552.05,-198.09 1559.84,-190.91 1553.66,-187.62"/>
</a>
</g>
</g>
<!-- Node24&#45;&gt;Node22 -->
<g id="edge33_Node000024_Node000022" class="edge">
<title>Node24&#45;&gt;Node22</title>
<g id="a_edge33_Node000024_Node000022"><a xlink:title=" ">
<path fill="none" stroke="#63b8ff" d="M219.66,-123.29C213.58,-114.57 206.89,-104.99 201.55,-97.33"/>
<polygon fill="#63b8ff" stroke="#63b8ff" points="216.71,-125.17 225.3,-131.37 222.45,-121.17 216.71,-125.17"/>
</a>
</g>
</g>
<!-- Node25&#45;&gt;Node23 -->
<g id="edge35_Node000025_Node000023" class="edge">
<title>Node25&#45;&gt;Node23</title>
<g id="a_edge35_Node000025_Node000023"><a xlink:title=" ">
<path fill="none" stroke="#63b8ff" d="M406.39,-123.57C399.71,-114.78 392.33,-105.07 386.45,-97.33"/>
<polygon fill="#63b8ff" stroke="#63b8ff" points="403.5,-125.56 412.34,-131.41 409.08,-121.33 403.5,-125.56"/>
</a>
</g>
</g>
<!-- Node27&#45;&gt;Node24 -->
<g id="edge38_Node000027_Node000024" class="edge">
<title>Node27&#45;&gt;Node24</title>
<g id="a_edge38_Node000027_Node000024"><a xlink:title=" ">
<path fill="none" stroke="#63b8ff" d="M598.68,-204.76C519.5,-192.63 379.11,-171.12 298.31,-158.74"/>
<polygon fill="#63b8ff" stroke="#63b8ff" points="597.99,-208.19 608.4,-206.25 599.05,-201.27 597.99,-208.19"/>
</a>
</g>
</g>
<!-- Node27&#45;&gt;Node25 -->
<g id="edge39_Node000027_Node000025" class="edge">
<title>Node27&#45;&gt;Node25</title>
<g id="a_edge39_Node000027_Node000025"><a xlink:title=" ">
<path fill="none" stroke="#63b8ff" d="M599.22,-197.65C561.87,-187.31 513.74,-173.99 477.43,-163.94"/>
<polygon fill="#63b8ff" stroke="#63b8ff" points="597.91,-200.92 608.48,-200.22 599.78,-194.17 597.91,-200.92"/>
</a>
</g>
</g>
<!-- Node27&#45;&gt;Node26 -->
<g id="edge40_Node000027_Node000026" class="edge">
<title>Node27&#45;&gt;Node26</title>
<g id="a_edge40_Node000027_Node000026"><a xlink:title=" ">
<path fill="none" stroke="#63b8ff" d="M716.11,-202.11C764.79,-192.31 835.72,-177.65 897.38,-163.5 900.16,-162.86 903.02,-162.19 905.9,-161.5"/>
<polygon fill="#63b8ff" stroke="#63b8ff" points="715.45,-198.67 706.34,-204.07 716.83,-205.54 715.45,-198.67"/>
</a>
</g>
</g>
<!-- Node28 -->
<g id="Node000028" class="node">
<title>Node28</title>
<g id="a_Node000028"><a xlink:href="coro_2task_8hpp.html" target="_top" xlink:title=" ">
<polygon fill="white" stroke="#666666" points="888.5,-163.5 792.25,-163.5 792.25,-133 888.5,-133 888.5,-163.5"/>
<text text-anchor="start" x="800.25" y="-150" font-family="Helvetica,sans-Serif" font-size="10.00">include/yaclib/coro</text>
<text text-anchor="middle" x="840.38" y="-138.75" font-family="Helvetica,sans-Serif" font-size="10.00">/task.hpp</text>
</a>
</g>
</g>
<!-- Node27&#45;&gt;Node28 -->
<g id="edge41_Node000027_Node000028" class="edge">
<title>Node27&#45;&gt;Node28</title>
<g id="a_edge41_Node000027_Node000028"><a xlink:title=" ">
<path fill="none" stroke="#63b8ff" d="M709.41,-195.41C737.69,-185.44 772.2,-173.28 798.7,-163.94"/>
<polygon fill="#63b8ff" stroke="#63b8ff" points="708.6,-191.99 700.33,-198.61 710.92,-198.59 708.6,-191.99"/>
</a>
</g>
</g>
<!-- Node29 -->
<g id="Node000029" class="node">
<title>Node29</title>
<g id="a_Node000029"><a xlink:href="lazy_2make_8hpp.html" target="_top" xlink:title=" ">
<polygon fill="white" stroke="#666666" points="614.38,-97 520.38,-97 520.38,-66.5 614.38,-66.5 614.38,-97"/>
<text text-anchor="start" x="528.38" y="-83.5" font-family="Helvetica,sans-Serif" font-size="10.00">include/yaclib/lazy</text>
<text text-anchor="middle" x="567.38" y="-72.25" font-family="Helvetica,sans-Serif" font-size="10.00">/make.hpp</text>
</a>
</g>
</g>
<!-- Node27&#45;&gt;Node29 -->
<g id="edge42_Node000027_Node000029" class="edge">
<title>Node27&#45;&gt;Node29</title>
<g id="a_edge42_Node000027_Node000029"><a xlink:title=" ">
<path fill="none" stroke="#63b8ff" d="M599.07,-202.7C577.15,-195.4 554.41,-183.35 541.38,-163.5 527.79,-142.82 543.24,-114.5 555.46,-97.48"/>
<polygon fill="#63b8ff" stroke="#63b8ff" points="598.02,-206.03 608.6,-205.56 600.04,-199.33 598.02,-206.03"/>
</a>
</g>
</g>
<!-- Node30 -->
<g id="Node000030" class="node">
<title>Node30</title>
<g id="a_Node000030"><a xlink:href="schedule_8hpp.html" target="_top" xlink:title=" ">
<polygon fill="white" stroke="#666666" points="644.38,-163.5 550.38,-163.5 550.38,-133 644.38,-133 644.38,-163.5"/>
<text text-anchor="start" x="558.38" y="-150" font-family="Helvetica,sans-Serif" font-size="10.00">include/yaclib/lazy</text>
<text text-anchor="middle" x="597.38" y="-138.75" font-family="Helvetica,sans-Serif" font-size="10.00">/schedule.hpp</text>
</a>
</g>
</g>
<!-- Node27&#45;&gt;Node30 -->
<g id="edge43_Node000027_Node000030" class="edge">
<title>Node27&#45;&gt;Node30</title>
<g id="a_edge43_Node000027_Node000030"><a xlink:title=" ">
<path fill="none" stroke="#63b8ff" d="M636.13,-190.91C627.75,-181.9 618.37,-171.82 610.94,-163.83"/>
<polygon fill="#63b8ff" stroke="#63b8ff" points="633.36,-193.07 642.73,-198.01 638.48,-188.3 633.36,-193.07"/>
</a>
</g>
</g>
<!-- Node31 -->
<g id="Node000031" class="node">
<title>Node31</title>
<g id="a_Node000031"><a xlink:href="task__impl_8cpp.html" target="_top" xlink:title=" ">
<polygon fill="white" stroke="#666666" points="774.38,-157.88 662.38,-157.88 662.38,-138.62 774.38,-138.62 774.38,-157.88"/>
<text text-anchor="middle" x="718.38" y="-144.38" font-family="Helvetica,sans-Serif" font-size="10.00">src/lazy/task_impl.cpp</text>
</a>
</g>
</g>
<!-- Node27&#45;&gt;Node31 -->
<g id="edge45_Node000027_Node000031" class="edge">
<title>Node27&#45;&gt;Node31</title>
<g id="a_edge45_Node000027_Node000031"><a xlink:title=" ">
<path fill="none" stroke="#63b8ff" d="M679.01,-190.87C689.74,-179.53 702.07,-166.49 710.03,-158.07"/>
<polygon fill="#63b8ff" stroke="#63b8ff" points="676.59,-188.34 672.26,-198.01 681.67,-193.15 676.59,-188.34"/>
</a>
</g>
</g>
<!-- Node30&#45;&gt;Node29 -->
<g id="edge44_Node000030_Node000029" class="edge">
<title>Node30&#45;&gt;Node29</title>
<g id="a_edge44_Node000030_Node000029"><a xlink:title=" ">
<path fill="none" stroke="#63b8ff" d="M585.84,-122.44C581.89,-113.96 577.6,-104.74 574.16,-97.33"/>
<polygon fill="#63b8ff" stroke="#63b8ff" points="582.54,-123.65 589.93,-131.24 588.89,-120.7 582.54,-123.65"/>
</a>
</g>
</g>
</g>
</svg>
