<?xml version="1.0" encoding="UTF-8" standalone="no"?>
<!DOCTYPE svg PUBLIC "-//W3C//DTD SVG 1.1//EN"
 "http://www.w3.org/Graphics/SVG/1.1/DTD/svg11.dtd">
<!-- Generated by graphviz version 9.0.0 (20230911.1827)
 -->
<!-- Title: include/yaclib/util/detail/default_event.hpp Pages: 1 -->
<svg width="386pt" height="227pt"
 viewBox="0.00 0.00 385.75 226.75" xmlns="http://www.w3.org/2000/svg" xmlns:xlink="http://www.w3.org/1999/xlink">
<g id="graph0" class="graph" transform="scale(1 1) rotate(0) translate(4 222.75)">
<title>include/yaclib/util/detail/default_event.hpp</title>
<!-- Node1 -->
<g id="Node000001" class="node">
<title>Node1</title>
<g id="a_Node000001"><a xlink:title=" ">
<polygon fill="#999999" stroke="#666666" points="181.25,-218.75 59.5,-218.75 59.5,-188.25 181.25,-188.25 181.25,-218.75"/>
<text text-anchor="start" x="67.5" y="-205.25" font-family="Helvetica,sans-Serif" font-size="10.00">include/yaclib/util</text>
<text text-anchor="middle" x="120.38" y="-194" font-family="Helvetica,sans-Serif" font-size="10.00">/detail/default_event.hpp</text>
</a>
</g>
</g>
<!-- Node2 -->
<g id="Node000002" class="node">
<title>Node2</title>
<g id="a_Node000002"><a xlink:title=" ">
<polygon fill="#e0e0e0" stroke="#999999" points="110,-146.62 22.75,-146.62 22.75,-127.38 110,-127.38 110,-146.62"/>
<text text-anchor="middle" x="66.38" y="-133.12" font-family="Helvetica,sans-Serif" font-size="10.00">yaclib/config.hpp</text>
</a>
</g>
</g>
<!-- Node1&#45;&gt;Node2 -->
<g id="edge1_Node000001_Node000002" class="edge">
<title>Node1&#45;&gt;Node2</title>
<g id="a_edge1_Node000001_Node000002"><a xlink:title=" ">
<path fill="none" stroke="#63b8ff" d="M108.12,-187.86C100.1,-178.29 89.58,-165.72 81.11,-155.6"/>
<polygon fill="#63b8ff" stroke="#63b8ff" points="83.84,-153.4 74.73,-147.98 78.47,-157.9 83.84,-153.4"/>
</a>
</g>
</g>
<!-- Node3 -->
<g id="Node000003" class="node">
<title>Node3</title>
<g id="a_Node000003"><a xlink:href="mutex__event_8hpp.html" target="_top" xlink:title=" ">
<polygon fill="white" stroke="#666666" points="220.62,-152.25 128.12,-152.25 128.12,-121.75 220.62,-121.75 220.62,-152.25"/>
<text text-anchor="start" x="136.12" y="-138.75" font-family="Helvetica,sans-Serif" font-size="10.00">yaclib/util/detail</text>
<text text-anchor="middle" x="174.38" y="-127.5" font-family="Helvetica,sans-Serif" font-size="10.00">/mutex_event.hpp</text>
</a>
</g>
</g>
<!-- Node1&#45;&gt;Node3 -->
<g id="edge2_Node000001_Node000003" class="edge">
<title>Node1&#45;&gt;Node3</title>
<g id="a_edge2_Node000001_Node000003"><a xlink:title=" ">
<path fill="none" stroke="#63b8ff" d="M132.63,-187.86C139.19,-180.03 147.42,-170.19 154.84,-161.33"/>
<polygon fill="#63b8ff" stroke="#63b8ff" points="157.46,-163.65 161.2,-153.74 152.1,-159.16 157.46,-163.65"/>
</a>
</g>
</g>
<!-- Node4 -->
<g id="Node000004" class="node">
<title>Node4</title>
<g id="a_Node000004"><a xlink:href="ref_8hpp.html" target="_top" xlink:title=" ">
<polygon fill="white" stroke="#666666" points="88.75,-80.12 0,-80.12 0,-60.88 88.75,-60.88 88.75,-80.12"/>
<text text-anchor="middle" x="44.38" y="-66.62" font-family="Helvetica,sans-Serif" font-size="10.00">yaclib/util/ref.hpp</text>
</a>
</g>
</g>
<!-- Node3&#45;&gt;Node4 -->
<g id="edge3_Node000003_Node000004" class="edge">
<title>Node3&#45;&gt;Node4</title>
<g id="a_edge3_Node000003_Node000004"><a xlink:title=" ">
<path fill="none" stroke="#63b8ff" d="M144.88,-121.36C123.22,-110.62 93.97,-96.11 72.61,-85.51"/>
<polygon fill="#63b8ff" stroke="#63b8ff" points="74.4,-82.49 63.89,-81.18 71.29,-88.76 74.4,-82.49"/>
</a>
</g>
</g>
<!-- Node6 -->
<g id="Node000006" class="node">
<title>Node6</title>
<g id="a_Node000006"><a xlink:title=" ">
<polygon fill="#e0e0e0" stroke="#999999" points="152,-80.12 106.75,-80.12 106.75,-60.88 152,-60.88 152,-80.12"/>
<text text-anchor="middle" x="129.38" y="-66.62" font-family="Helvetica,sans-Serif" font-size="10.00">chrono</text>
</a>
</g>
</g>
<!-- Node3&#45;&gt;Node6 -->
<g id="edge5_Node000003_Node000006" class="edge">
<title>Node3&#45;&gt;Node6</title>
<g id="a_edge5_Node000003_Node000006"><a xlink:title=" ">
<path fill="none" stroke="#63b8ff" d="M164.16,-121.36C157.62,-111.98 149.08,-99.74 142.09,-89.73"/>
<polygon fill="#63b8ff" stroke="#63b8ff" points="144.99,-87.76 136.4,-81.56 139.25,-91.77 144.99,-87.76"/>
</a>
</g>
</g>
<!-- Node7 -->
<g id="Node000007" class="node">
<title>Node7</title>
<g id="a_Node000007"><a xlink:title=" ">
<polygon fill="#e0e0e0" stroke="#999999" points="271.12,-85.75 169.62,-85.75 169.62,-55.25 271.12,-55.25 271.12,-85.75"/>
<text text-anchor="start" x="177.62" y="-72.25" font-family="Helvetica,sans-Serif" font-size="10.00">yaclib_std/condition</text>
<text text-anchor="middle" x="220.38" y="-61" font-family="Helvetica,sans-Serif" font-size="10.00">_variable</text>
</a>
</g>
</g>
<!-- Node3&#45;&gt;Node7 -->
<g id="edge6_Node000003_Node000007" class="edge">
<title>Node3&#45;&gt;Node7</title>
<g id="a_edge6_Node000003_Node000007"><a xlink:title=" ">
<path fill="none" stroke="#63b8ff" d="M184.81,-121.36C190.28,-113.69 197.12,-104.11 203.33,-95.4"/>
<polygon fill="#63b8ff" stroke="#63b8ff" points="206.14,-97.48 209.1,-87.31 200.44,-93.42 206.14,-97.48"/>
</a>
</g>
</g>
<!-- Node8 -->
<g id="Node000008" class="node">
<title>Node8</title>
<g id="a_Node000008"><a xlink:title=" ">
<polygon fill="#e0e0e0" stroke="#999999" points="377.75,-80.12 289,-80.12 289,-60.88 377.75,-60.88 377.75,-80.12"/>
<text text-anchor="middle" x="333.38" y="-66.62" font-family="Helvetica,sans-Serif" font-size="10.00">yaclib_std/mutex</text>
</a>
</g>
</g>
<!-- Node3&#45;&gt;Node8 -->
<g id="edge7_Node000003_Node000008" class="edge">
<title>Node3&#45;&gt;Node8</title>
<g id="a_edge7_Node000003_Node000008"><a xlink:title=" ">
<path fill="none" stroke="#63b8ff" d="M210.45,-121.36C237.55,-110.37 274.36,-95.44 300.62,-84.79"/>
<polygon fill="#63b8ff" stroke="#63b8ff" points="301.81,-88.08 309.76,-81.08 299.18,-81.59 301.81,-88.08"/>
</a>
</g>
</g>
<!-- Node5 -->
<g id="Node000005" class="node">
<title>Node5</title>
<g id="a_Node000005"><a xlink:title=" ">
<polygon fill="#e0e0e0" stroke="#999999" points="68.5,-19.25 20.25,-19.25 20.25,0 68.5,0 68.5,-19.25"/>
<text text-anchor="middle" x="44.38" y="-5.75" font-family="Helvetica,sans-Serif" font-size="10.00">cstddef</text>
</a>
</g>
</g>
<!-- Node4&#45;&gt;Node5 -->
<g id="edge4_Node000004_Node000005" class="edge">
<title>Node4&#45;&gt;Node5</title>
<g id="a_edge4_Node000004_Node000005"><a xlink:title=" ">
<path fill="none" stroke="#63b8ff" d="M44.38,-60.56C44.38,-52.78 44.38,-41.2 44.38,-31.16"/>
<polygon fill="#63b8ff" stroke="#63b8ff" points="47.88,-31.16 44.38,-21.16 40.88,-31.16 47.88,-31.16"/>
</a>
</g>
</g>
</g>
</svg>
