<?xml version="1.0" encoding="UTF-8" standalone="no"?>
<!DOCTYPE svg PUBLIC "-//W3C//DTD SVG 1.1//EN"
 "http://www.w3.org/Graphics/SVG/1.1/DTD/svg11.dtd">
<!-- Generated by graphviz version 3.0.0 (20220413.0242)
 -->
<!-- Title: src Pages: 1 -->
<svg width="456pt" height="204pt"
 viewBox="0.00 0.00 456.00 204.00" xmlns="http://www.w3.org/2000/svg" xmlns:xlink="http://www.w3.org/1999/xlink">
<g id="graph0" class="graph" transform="scale(1 1) rotate(0) translate(4 200)">
<title>src</title>
<g id="clust1" class="cluster">
<title>clusterdir_68267d1309a1af8e8297ef4c3efbcdba</title>
<g id="a_clust1"><a xlink:href="dir_68267d1309a1af8e8297ef4c3efbcdba.html" target="_top">
<polygon fill="#edf0f7" stroke="#404040" stroke-width="2" points="8,-64 8,-188 440,-188 440,-64 8,-64"/>
</a>
</g>
</g>
<!-- dir_68267d1309a1af8e8297ef4c3efbcdba -->
<g id="node1" class="node">
<title>dir_68267d1309a1af8e8297ef4c3efbcdba</title>
<text text-anchor="middle" x="405" y="-159.5" font-family="Helvetica,sans-Serif" font-size="10.00">src</text>
</g>
<!-- dir_d44c64559bbebec7f509842c48db8b23 -->
<g id="node8" class="node">
<title>dir_d44c64559bbebec7f509842c48db8b23</title>
<g id="a_node8"><a xlink:href="dir_d44c64559bbebec7f509842c48db8b23.html" target="_top" xlink:title="include">
<polygon fill="none" stroke="red" points="214,-36 160,-36 160,0 214,0 214,-36"/>
<text text-anchor="middle" x="187" y="-15.5" font-family="Helvetica,sans-Serif" font-size="10.00">include</text>
</a>
</g>
</g>
<!-- dir_68267d1309a1af8e8297ef4c3efbcdba&#45;&gt;dir_d44c64559bbebec7f509842c48db8b23 -->
<g id="edge1" class="edge">
<title>dir_68267d1309a1af8e8297ef4c3efbcdba&#45;&gt;dir_d44c64559bbebec7f509842c48db8b23</title>
<path fill="none" stroke="black" d="M383.14,-143.98C356.92,-123.88 311.33,-89.9 270,-64 254.93,-54.56 237.73,-45.03 222.91,-37.2"/>
<polygon fill="black" stroke="black" points="224.51,-34.09 214.03,-32.55 221.27,-40.29 224.51,-34.09"/>
<g id="a_edge1&#45;headlabel"><a xlink:href="dir_000025_000024.html" target="_top" xlink:title="78">
<text text-anchor="middle" x="229.01" y="-30.74" font-family="Helvetica,sans-Serif" font-size="10.00">78</text>
</a>
</g>
</g>
<!-- dir_8111f045ab156cab490d6e0f8a4c6c64 -->
<g id="node2" class="node">
<title>dir_8111f045ab156cab490d6e0f8a4c6c64</title>
<g id="a_node2"><a xlink:href="dir_8111f045ab156cab490d6e0f8a4c6c64.html" target="_top" xlink:title="algo">
<polygon fill="#a2b4d6" stroke="#404040" points="142,-180 88,-180 88,-144 142,-144 142,-180"/>
<text text-anchor="middle" x="115" y="-159.5" font-family="Helvetica,sans-Serif" font-size="10.00">algo</text>
</a>
</g>
</g>
<!-- dir_8111f045ab156cab490d6e0f8a4c6c64&#45;&gt;dir_d44c64559bbebec7f509842c48db8b23 -->
<g id="edge2" class="edge">
<title>dir_8111f045ab156cab490d6e0f8a4c6c64&#45;&gt;dir_d44c64559bbebec7f509842c48db8b23</title>
<path fill="none" stroke="black" d="M123.68,-143.87C136.12,-119.35 159.1,-74.03 173.69,-45.26"/>
<polygon fill="black" stroke="black" points="176.88,-46.69 178.28,-36.19 170.64,-43.53 176.88,-46.69"/>
<g id="a_edge2&#45;headlabel"><a xlink:href="dir_000001_000024.html" target="_top" xlink:title="2">
<text text-anchor="middle" x="177.79" y="-48.68" font-family="Helvetica,sans-Serif" font-size="10.00">2</text>
</a>
</g>
</g>
<!-- dir_b60a79ed93f318a37dbc9781b4452c17 -->
<g id="node3" class="node">
<title>dir_b60a79ed93f318a37dbc9781b4452c17</title>
<g id="a_node3"><a xlink:href="dir_b60a79ed93f318a37dbc9781b4452c17.html" target="_top" xlink:title="async">
<polygon fill="#a2b4d6" stroke="#404040" points="214,-180 160,-180 160,-144 214,-144 214,-180"/>
<text text-anchor="middle" x="187" y="-159.5" font-family="Helvetica,sans-Serif" font-size="10.00">async</text>
</a>
</g>
</g>
<!-- dir_b60a79ed93f318a37dbc9781b4452c17&#45;&gt;dir_d44c64559bbebec7f509842c48db8b23 -->
<g id="edge3" class="edge">
<title>dir_b60a79ed93f318a37dbc9781b4452c17&#45;&gt;dir_d44c64559bbebec7f509842c48db8b23</title>
<path fill="none" stroke="black" d="M187,-143.87C187,-119.67 187,-75.21 187,-46.39"/>
<polygon fill="black" stroke="black" points="190.5,-46.19 187,-36.19 183.5,-46.19 190.5,-46.19"/>
<g id="a_edge3&#45;headlabel"><a xlink:href="dir_000003_000024.html" target="_top" xlink:title="9">
<text text-anchor="middle" x="193.34" y="-47.28" font-family="Helvetica,sans-Serif" font-size="10.00">9</text>
</a>
</g>
</g>
<!-- dir_7001c9ab15c1f2d5bcf3821e4098ddd6 -->
<g id="node4" class="node">
<title>dir_7001c9ab15c1f2d5bcf3821e4098ddd6</title>
<g id="a_node4"><a xlink:href="dir_7001c9ab15c1f2d5bcf3821e4098ddd6.html" target="_top" xlink:title="coroutine">
<polygon fill="#a2b4d6" stroke="#404040" points="288,-180 232,-180 232,-144 288,-144 288,-180"/>
<text text-anchor="middle" x="260" y="-159.5" font-family="Helvetica,sans-Serif" font-size="10.00">coroutine</text>
</a>
</g>
</g>
<!-- dir_7001c9ab15c1f2d5bcf3821e4098ddd6&#45;&gt;dir_d44c64559bbebec7f509842c48db8b23 -->
<g id="edge4" class="edge">
<title>dir_7001c9ab15c1f2d5bcf3821e4098ddd6&#45;&gt;dir_d44c64559bbebec7f509842c48db8b23</title>
<path fill="none" stroke="black" d="M251.19,-143.87C238.59,-119.35 215.29,-74.03 200.5,-45.26"/>
<polygon fill="black" stroke="black" points="203.52,-43.48 195.84,-36.19 197.3,-46.68 203.52,-43.48"/>
<g id="a_edge4&#45;headlabel"><a xlink:href="dir_000007_000024.html" target="_top" xlink:title="5">
<text text-anchor="middle" x="207.69" y="-42.88" font-family="Helvetica,sans-Serif" font-size="10.00">5</text>
</a>
</g>
</g>
<!-- dir_47269c51f9fc619a45fe5a093bf2488f -->
<g id="node5" class="node">
<title>dir_47269c51f9fc619a45fe5a093bf2488f</title>
<g id="a_node5"><a xlink:href="dir_47269c51f9fc619a45fe5a093bf2488f.html" target="_top" xlink:title="executor">
<polygon fill="#a2b4d6" stroke="#404040" points="70,-180 16,-180 16,-144 70,-144 70,-180"/>
<text text-anchor="middle" x="43" y="-159.5" font-family="Helvetica,sans-Serif" font-size="10.00">executor</text>
</a>
</g>
</g>
<!-- dir_b7878ad5ecbf2506f4125b9d34c97e45 -->
<g id="node7" class="node">
<title>dir_b7878ad5ecbf2506f4125b9d34c97e45</title>
<g id="a_node7"><a xlink:href="dir_b7878ad5ecbf2506f4125b9d34c97e45.html" target="_top" xlink:title="util">
<polygon fill="#a2b4d6" stroke="#404040" points="72,-108 18,-108 18,-72 72,-72 72,-108"/>
<text text-anchor="middle" x="45" y="-87.5" font-family="Helvetica,sans-Serif" font-size="10.00">util</text>
</a>
</g>
</g>
<!-- dir_47269c51f9fc619a45fe5a093bf2488f&#45;&gt;dir_b7878ad5ecbf2506f4125b9d34c97e45 -->
<g id="edge5" class="edge">
<title>dir_47269c51f9fc619a45fe5a093bf2488f&#45;&gt;dir_b7878ad5ecbf2506f4125b9d34c97e45</title>
<path fill="none" stroke="black" d="M43.49,-143.7C43.71,-135.98 43.98,-126.71 44.23,-118.11"/>
<polygon fill="black" stroke="black" points="47.72,-118.2 44.51,-108.1 40.73,-118 47.72,-118.2"/>
<g id="a_edge5&#45;headlabel"><a xlink:href="dir_000018_000028.html" target="_top" xlink:title="3">
<text text-anchor="middle" x="50.46" y="-119.37" font-family="Helvetica,sans-Serif" font-size="10.00">3</text>
</a>
</g>
</g>
<!-- dir_47269c51f9fc619a45fe5a093bf2488f&#45;&gt;dir_d44c64559bbebec7f509842c48db8b23 -->
<g id="edge6" class="edge">
<title>dir_47269c51f9fc619a45fe5a093bf2488f&#45;&gt;dir_d44c64559bbebec7f509842c48db8b23</title>
<path fill="none" stroke="black" d="M59.21,-143.91C77.91,-124.32 109.72,-91.38 138,-64 145.07,-57.16 152.86,-49.88 160.11,-43.23"/>
<polygon fill="black" stroke="black" points="162.68,-45.62 167.7,-36.29 157.96,-40.45 162.68,-45.62"/>
<g id="a_edge6&#45;headlabel"><a xlink:href="dir_000018_000024.html" target="_top" xlink:title="29">
<text text-anchor="middle" x="161.94" y="-47.64" font-family="Helvetica,sans-Serif" font-size="10.00">29</text>
</a>
</g>
</g>
<!-- dir_f289338ed24f1cc6d174ad5a6e562081 -->
<g id="node6" class="node">
<title>dir_f289338ed24f1cc6d174ad5a6e562081</title>
<g id="a_node6"><a xlink:href="dir_f289338ed24f1cc6d174ad5a6e562081.html" target="_top" xlink:title="fault">
<polygon fill="#a2b4d6" stroke="#404040" points="360,-180 306,-180 306,-144 360,-144 360,-180"/>
<text text-anchor="middle" x="333" y="-159.5" font-family="Helvetica,sans-Serif" font-size="10.00">fault</text>
</a>
</g>
</g>
<!-- dir_f289338ed24f1cc6d174ad5a6e562081&#45;&gt;dir_d44c64559bbebec7f509842c48db8b23 -->
<g id="edge7" class="edge">
<title>dir_f289338ed24f1cc6d174ad5a6e562081&#45;&gt;dir_d44c64559bbebec7f509842c48db8b23</title>
<path fill="none" stroke="black" d="M315.79,-143.69C296.33,-124.17 263.62,-91.57 235,-64 227.99,-57.25 220.33,-50.01 213.23,-43.35"/>
<polygon fill="black" stroke="black" points="215.5,-40.68 205.8,-36.41 210.72,-45.79 215.5,-40.68"/>
<g id="a_edge7&#45;headlabel"><a xlink:href="dir_000021_000024.html" target="_top" xlink:title="28">
<text text-anchor="middle" x="220.06" y="-38.56" font-family="Helvetica,sans-Serif" font-size="10.00">28</text>
</a>
</g>
</g>
<!-- dir_b7878ad5ecbf2506f4125b9d34c97e45&#45;&gt;dir_d44c64559bbebec7f509842c48db8b23 -->
<g id="edge8" class="edge">
<title>dir_b7878ad5ecbf2506f4125b9d34c97e45&#45;&gt;dir_d44c64559bbebec7f509842c48db8b23</title>
<path fill="none" stroke="black" d="M72.23,-74.24C78.68,-70.82 85.56,-67.24 92,-64 111.13,-54.39 132.67,-44.14 150.39,-35.85"/>
<polygon fill="black" stroke="black" points="152.22,-38.86 159.81,-31.47 149.27,-32.52 152.22,-38.86"/>
<g id="a_edge8&#45;headlabel"><a xlink:href="dir_000028_000024.html" target="_top" xlink:title="4">
<text text-anchor="middle" x="150.16" y="-40.46" font-family="Helvetica,sans-Serif" font-size="10.00">4</text>
</a>
</g>
</g>
</g>
</svg>
