<?xml version="1.0" encoding="UTF-8" standalone="no"?>
<!DOCTYPE svg PUBLIC "-//W3C//DTD SVG 1.1//EN"
 "http://www.w3.org/Graphics/SVG/1.1/DTD/svg11.dtd">
<!-- Generated by graphviz version 3.0.0 (20220413.0242)
 -->
<!-- Title: include/yaclib/coroutine Pages: 1 -->
<svg width="238pt" height="247pt"
 viewBox="0.00 0.00 238.00 247.00" xmlns="http://www.w3.org/2000/svg" xmlns:xlink="http://www.w3.org/1999/xlink">
<g id="graph0" class="graph" transform="scale(1 1) rotate(0) translate(4 243)">
<title>include/yaclib/coroutine</title>
<g id="clust1" class="cluster">
<title>clusterdir_5202e9473254619c80971b7f5a23629e</title>
<g id="a_clust1"><a xlink:href="dir_5202e9473254619c80971b7f5a23629e.html" target="_top" xlink:title="yaclib">
<polygon fill="#edf0f7" stroke="#7f7f7f" stroke-dasharray="5,2" points="8,-8 8,-231 222,-231 222,-8 8,-8"/>
<text text-anchor="middle" x="115" y="-219" font-family="Helvetica,sans-Serif" font-size="10.00">yaclib</text>
</a>
</g>
</g>
<g id="clust2" class="cluster">
<title>clusterdir_5492c40dfbc6782579416f5b6b340e12</title>
<g id="a_clust2"><a xlink:href="dir_5492c40dfbc6782579416f5b6b340e12.html" target="_top">
<polygon fill="#edf0f7" stroke="#404040" stroke-width="2" points="71,-80 71,-204 143,-204 143,-80 71,-80"/>
</a>
</g>
</g>
<!-- dir_4063a9e34a1302ac947dfe60cb383789 -->
<g id="node1" class="node">
<title>dir_4063a9e34a1302ac947dfe60cb383789</title>
<g id="a_node1"><a xlink:href="dir_4063a9e34a1302ac947dfe60cb383789.html" target="_top" xlink:title="async">
<polygon fill="#a2b4d6" stroke="red" points="70,-52 16,-52 16,-16 70,-16 70,-52"/>
<text text-anchor="middle" x="43" y="-31.5" font-family="Helvetica,sans-Serif" font-size="10.00">async</text>
</a>
</g>
</g>
<!-- dir_9463e03d191b6d61661112ff0fb64dc7 -->
<g id="node2" class="node">
<title>dir_9463e03d191b6d61661112ff0fb64dc7</title>
<g id="a_node2"><a xlink:href="dir_9463e03d191b6d61661112ff0fb64dc7.html" target="_top" xlink:title="util">
<polygon fill="#a2b4d6" stroke="red" points="142,-52 88,-52 88,-16 142,-16 142,-52"/>
<text text-anchor="middle" x="115" y="-31.5" font-family="Helvetica,sans-Serif" font-size="10.00">util</text>
</a>
</g>
</g>
<!-- dir_f6a9384b5ccd990c15687caf98c8deaa -->
<g id="node3" class="node">
<title>dir_f6a9384b5ccd990c15687caf98c8deaa</title>
<g id="a_node3"><a xlink:href="dir_f6a9384b5ccd990c15687caf98c8deaa.html" target="_top" xlink:title="executor">
<polygon fill="#a2b4d6" stroke="red" points="214,-52 160,-52 160,-16 214,-16 214,-52"/>
<text text-anchor="middle" x="187" y="-31.5" font-family="Helvetica,sans-Serif" font-size="10.00">executor</text>
</a>
</g>
</g>
<!-- dir_5492c40dfbc6782579416f5b6b340e12 -->
<g id="node4" class="node">
<title>dir_5492c40dfbc6782579416f5b6b340e12</title>
<text text-anchor="middle" x="107" y="-175.5" font-family="Helvetica,sans-Serif" font-size="10.00">coroutine</text>
</g>
<!-- dir_5492c40dfbc6782579416f5b6b340e12&#45;&gt;dir_4063a9e34a1302ac947dfe60cb383789 -->
<g id="edge1" class="edge">
<title>dir_5492c40dfbc6782579416f5b6b340e12&#45;&gt;dir_4063a9e34a1302ac947dfe60cb383789</title>
<path fill="none" stroke="black" d="M93.3,-159.64C85.92,-149.65 77.11,-136.62 71,-124 61.39,-104.13 54.07,-80.2 49.34,-62.16"/>
<polygon fill="black" stroke="black" points="52.69,-61.13 46.85,-52.29 45.9,-62.85 52.69,-61.13"/>
<g id="a_edge1&#45;headlabel"><a xlink:href="dir_000006_000002.html" target="_top" xlink:title="6">
<text text-anchor="middle" x="56.32" y="-61.42" font-family="Helvetica,sans-Serif" font-size="10.00">6</text>
</a>
</g>
</g>
<!-- dir_5492c40dfbc6782579416f5b6b340e12&#45;&gt;dir_9463e03d191b6d61661112ff0fb64dc7 -->
<g id="edge3" class="edge">
<title>dir_5492c40dfbc6782579416f5b6b340e12&#45;&gt;dir_9463e03d191b6d61661112ff0fb64dc7</title>
<path fill="none" stroke="black" d="M122.61,-159.77C130.37,-150.03 138.95,-137.18 143,-124 148.75,-105.31 148.37,-98.8 143,-80 141.14,-73.5 138.04,-67.02 134.57,-61.09"/>
<polygon fill="black" stroke="black" points="137.27,-58.82 128.92,-52.29 131.38,-62.6 137.27,-58.82"/>
<g id="a_edge3&#45;headlabel"><a xlink:href="dir_000006_000027.html" target="_top" xlink:title="11">
<text text-anchor="middle" x="141.6" y="-57.81" font-family="Helvetica,sans-Serif" font-size="10.00">11</text>
</a>
</g>
</g>
<!-- dir_5492c40dfbc6782579416f5b6b340e12&#45;&gt;dir_f6a9384b5ccd990c15687caf98c8deaa -->
<g id="edge4" class="edge">
<title>dir_5492c40dfbc6782579416f5b6b340e12&#45;&gt;dir_f6a9384b5ccd990c15687caf98c8deaa</title>
<path fill="none" stroke="black" d="M123.09,-159.8C131.82,-149.86 142.35,-136.82 150,-124 161.81,-104.21 171.62,-79.95 178.17,-61.76"/>
<polygon fill="black" stroke="black" points="181.55,-62.68 181.55,-52.09 174.94,-60.37 181.55,-62.68"/>
<g id="a_edge4&#45;headlabel"><a xlink:href="dir_000006_000017.html" target="_top" xlink:title="8">
<text text-anchor="middle" x="183.04" y="-64.51" font-family="Helvetica,sans-Serif" font-size="10.00">8</text>
</a>
</g>
</g>
<!-- dir_80241f21725e0fd282253a28f6b081b6 -->
<g id="node5" class="node">
<title>dir_80241f21725e0fd282253a28f6b081b6</title>
<g id="a_node5"><a xlink:href="dir_80241f21725e0fd282253a28f6b081b6.html" target="_top" xlink:title="detail">
<polygon fill="#a2b4d6" stroke="#404040" points="134,-124 80,-124 80,-88 134,-88 134,-124"/>
<text text-anchor="middle" x="107" y="-103.5" font-family="Helvetica,sans-Serif" font-size="10.00">detail</text>
</a>
</g>
</g>
<!-- dir_5492c40dfbc6782579416f5b6b340e12&#45;&gt;dir_80241f21725e0fd282253a28f6b081b6 -->
<g id="edge2" class="edge">
<title>dir_5492c40dfbc6782579416f5b6b340e12&#45;&gt;dir_80241f21725e0fd282253a28f6b081b6</title>
<path fill="none" stroke="black" d="M107,-159.7C107,-151.98 107,-142.71 107,-134.11"/>
<polygon fill="black" stroke="black" points="110.5,-134.1 107,-124.1 103.5,-134.1 110.5,-134.1"/>
<g id="a_edge2&#45;headlabel"><a xlink:href="dir_000006_000010.html" target="_top" xlink:title="5">
<text text-anchor="middle" x="113.34" y="-135.2" font-family="Helvetica,sans-Serif" font-size="10.00">5</text>
</a>
</g>
</g>
<!-- dir_80241f21725e0fd282253a28f6b081b6&#45;&gt;dir_4063a9e34a1302ac947dfe60cb383789 -->
<g id="edge5" class="edge">
<title>dir_80241f21725e0fd282253a28f6b081b6&#45;&gt;dir_4063a9e34a1302ac947dfe60cb383789</title>
<path fill="none" stroke="black" d="M91.18,-87.7C83.43,-79.22 73.96,-68.86 65.48,-59.58"/>
<polygon fill="black" stroke="black" points="67.97,-57.12 58.64,-52.1 62.8,-61.85 67.97,-57.12"/>
<g id="a_edge5&#45;headlabel"><a xlink:href="dir_000010_000002.html" target="_top" xlink:title="2">
<text text-anchor="middle" x="72.49" y="-55.36" font-family="Helvetica,sans-Serif" font-size="10.00">2</text>
</a>
</g>
</g>
<!-- dir_80241f21725e0fd282253a28f6b081b6&#45;&gt;dir_9463e03d191b6d61661112ff0fb64dc7 -->
<g id="edge6" class="edge">
<title>dir_80241f21725e0fd282253a28f6b081b6&#45;&gt;dir_9463e03d191b6d61661112ff0fb64dc7</title>
<path fill="none" stroke="black" d="M108.98,-87.7C109.86,-79.98 110.92,-70.71 111.9,-62.11"/>
<polygon fill="black" stroke="black" points="115.39,-62.44 113.05,-52.1 108.43,-61.64 115.39,-62.44"/>
<g id="a_edge6&#45;headlabel"><a xlink:href="dir_000010_000027.html" target="_top" xlink:title="4">
<text text-anchor="middle" x="117.8" y="-63.83" font-family="Helvetica,sans-Serif" font-size="10.00">4</text>
</a>
</g>
</g>
<!-- dir_80241f21725e0fd282253a28f6b081b6&#45;&gt;dir_f6a9384b5ccd990c15687caf98c8deaa -->
<g id="edge7" class="edge">
<title>dir_80241f21725e0fd282253a28f6b081b6&#45;&gt;dir_f6a9384b5ccd990c15687caf98c8deaa</title>
<path fill="none" stroke="black" d="M126.78,-87.7C136.75,-78.97 149.01,-68.24 159.86,-58.75"/>
<polygon fill="black" stroke="black" points="162.23,-61.32 167.45,-52.1 157.62,-56.06 162.23,-61.32"/>
<g id="a_edge7&#45;headlabel"><a xlink:href="dir_000010_000017.html" target="_top" xlink:title="2">
<text text-anchor="middle" x="161.4" y="-63.33" font-family="Helvetica,sans-Serif" font-size="10.00">2</text>
</a>
</g>
</g>
</g>
</svg>
