<?xml version="1.0" encoding="UTF-8" standalone="no"?>
<!DOCTYPE svg PUBLIC "-//W3C//DTD SVG 1.1//EN"
 "http://www.w3.org/Graphics/SVG/1.1/DTD/svg11.dtd">
<!-- Generated by graphviz version 3.0.0 (20221109.1736)
 -->
<!-- Title: include/yaclib Pages: 1 -->
<!--zoomable 471 -->
<svg id="main" version="1.1" xmlns="http://www.w3.org/2000/svg" xmlns:xlink="http://www.w3.org/1999/xlink" xml:space="preserve" onload="init(evt)">
<style type="text/css"><![CDATA[
.edge:hover path { stroke: red; }
.edge:hover polygon { stroke: red; fill: red; }
]]></style>
<script type="text/javascript"><![CDATA[
var edges = document.getElementsByTagName('g');
if (edges && edges.length) {
  for (var i=0;i<edges.length;i++) {
    if (edges[i].id.substr(0,4)=='edge') {
      edges[i].setAttribute('class','edge');
    }
  }
}
]]></script>
        <defs>
                <circle id="rim" cx="0" cy="0" r="7"/>
                <circle id="rim2" cx="0" cy="0" r="3.5"/>
                <g id="zoomPlus">
                        <use xlink:href="#rim" fill="#404040">
                                <set attributeName="fill" to="#808080" begin="zoomplus.mouseover" end="zoomplus.mouseout"/>
                        </use>
                        <path d="M-4,0h8M0,-4v8" fill="none" stroke="white" stroke-width="1.5" pointer-events="none"/>
                </g>
                <g id="zoomMin">
                        <use xlink:href="#rim" fill="#404040">
                                <set attributeName="fill" to="#808080" begin="zoomminus.mouseover" end="zoomminus.mouseout"/>
                        </use>
                        <path d="M-4,0h8" fill="none" stroke="white" stroke-width="1.5" pointer-events="none"/>
                </g>
                <g id="dirArrow">
                        <path fill="none" stroke="white" stroke-width="1.5" d="M0,-3.0v7 M-2.5,-0.5L0,-3.0L2.5,-0.5"/>
                </g>
               <g id="resetDef">
                       <use xlink:href="#rim2" fill="#404040">
                               <set attributeName="fill" to="#808080" begin="reset.mouseover" end="reset.mouseout"/>
                       </use>
               </g>
        </defs>

<script type="text/javascript">
var viewWidth = 302;
var viewHeight = 471;
var sectionId = 'dynsection-0';
</script>
<script xlink:href="svgpan.js"/>
<svg id="graph" class="graph">
<g id="viewport">
<title>include/yaclib</title>
<g id="clust1" class="cluster">
<title>clusterdir_d44c64559bbebec7f509842c48db8b23</title>
<g id="a_clust1"><a xlink:href="dir_d44c64559bbebec7f509842c48db8b23.html" target="_top" xlink:title="include">
<polygon fill="#daedff" stroke="#404040" stroke-dasharray="5,2" points="8,-8 8,-455 286,-455 286,-8 8,-8"/>
<text text-anchor="middle" x="147" y="-443" font-family="Helvetica,sans-Serif" font-size="10.00">include</text>
</a>
</g>
</g>
<g id="clust2" class="cluster">
<title>clusterdir_5202e9473254619c80971b7f5a23629e</title>
<g id="a_clust2"><a xlink:href="dir_5202e9473254619c80971b7f5a23629e.html" target="_top">
<polygon fill="#daedff" stroke="#404040" stroke-width="2" points="16,-16 16,-428 278,-428 278,-16 16,-16"/>
</a>
</g>
</g>
<!-- dir_5202e9473254619c80971b7f5a23629e -->
<g id="node1" class="node">
<title>dir_5202e9473254619c80971b7f5a23629e</title>
<text text-anchor="middle" x="243" y="-399.5" font-family="Helvetica,sans-Serif" font-size="10.00">yaclib</text>
</g>
<!-- dir_b9c60d6ac2345286a03f7e9bdef04560 -->
<g id="node2" class="node">
<title>dir_b9c60d6ac2345286a03f7e9bdef04560</title>
<g id="a_node2"><a xlink:href="dir_b9c60d6ac2345286a03f7e9bdef04560.html" target="_top" xlink:title="algo">
<polygon fill="#4ea9ff" stroke="#404040" points="190,-276 136,-276 136,-240 190,-240 190,-276"/>
<text text-anchor="middle" x="163" y="-255.5" font-family="Helvetica,sans-Serif" font-size="10.00">algo</text>
</a>
</g>
</g>
<!-- dir_4063a9e34a1302ac947dfe60cb383789 -->
<g id="node3" class="node">
<title>dir_4063a9e34a1302ac947dfe60cb383789</title>
<g id="a_node3"><a xlink:href="dir_4063a9e34a1302ac947dfe60cb383789.html" target="_top" xlink:title="async">
<polygon fill="#4ea9ff" stroke="#404040" points="230,-204 176,-204 176,-168 230,-168 230,-204"/>
<text text-anchor="middle" x="203" y="-183.5" font-family="Helvetica,sans-Serif" font-size="10.00">async</text>
</a>
</g>
</g>
<!-- dir_b9c60d6ac2345286a03f7e9bdef04560&#45;&gt;dir_4063a9e34a1302ac947dfe60cb383789 -->
<g id="edge2" class="edge">
<title>dir_b9c60d6ac2345286a03f7e9bdef04560&#45;&gt;dir_4063a9e34a1302ac947dfe60cb383789</title>
<path fill="none" stroke="black" d="M166.97,-239.7C170.78,-231.56 176.22,-221.69 181.78,-212.7"/>
<polygon fill="black" stroke="black" points="184.85,-214.4 187.33,-204.1 178.97,-210.61 184.85,-214.4"/>
<g id="a_edge2&#45;headlabel"><a xlink:href="dir_000000_000002.html" target="_top" xlink:title="1">
<text text-anchor="middle" x="185.28" y="-216.46" font-family="Helvetica,sans-Serif" font-size="10.00">1</text>
</a>
</g>
</g>
<!-- dir_3e0ac571b2b9edbddc4070ffe47eeb4b -->
<g id="node5" class="node">
<title>dir_3e0ac571b2b9edbddc4070ffe47eeb4b</title>
<g id="a_node5"><a xlink:href="dir_3e0ac571b2b9edbddc4070ffe47eeb4b.html" target="_top" xlink:title="exe">
<polygon fill="#4ea9ff" stroke="#404040" points="169,-132 115,-132 115,-96 169,-96 169,-132"/>
<text text-anchor="middle" x="142" y="-111.5" font-family="Helvetica,sans-Serif" font-size="10.00">exe</text>
</a>
</g>
</g>
<!-- dir_b9c60d6ac2345286a03f7e9bdef04560&#45;&gt;dir_3e0ac571b2b9edbddc4070ffe47eeb4b -->
<g id="edge1" class="edge">
<title>dir_b9c60d6ac2345286a03f7e9bdef04560&#45;&gt;dir_3e0ac571b2b9edbddc4070ffe47eeb4b</title>
<path fill="none" stroke="black" d="M160.47,-239.87C156.89,-215.67 150.31,-171.21 146.05,-142.39"/>
<polygon fill="black" stroke="black" points="149.47,-141.57 144.54,-132.19 142.54,-142.59 149.47,-141.57"/>
<g id="a_edge1&#45;headlabel"><a xlink:href="dir_000000_000017.html" target="_top" xlink:title="4">
<text text-anchor="middle" x="152.8" y="-142.21" font-family="Helvetica,sans-Serif" font-size="10.00">4</text>
</a>
</g>
</g>
<!-- dir_9463e03d191b6d61661112ff0fb64dc7 -->
<g id="node9" class="node">
<title>dir_9463e03d191b6d61661112ff0fb64dc7</title>
<g id="a_node9"><a xlink:href="dir_9463e03d191b6d61661112ff0fb64dc7.html" target="_top" xlink:title="util">
<polygon fill="#4ea9ff" stroke="#404040" points="197,-60 143,-60 143,-24 197,-24 197,-60"/>
<text text-anchor="middle" x="170" y="-39.5" font-family="Helvetica,sans-Serif" font-size="10.00">util</text>
</a>
</g>
</g>
<!-- dir_b9c60d6ac2345286a03f7e9bdef04560&#45;&gt;dir_9463e03d191b6d61661112ff0fb64dc7 -->
<g id="edge3" class="edge">
<title>dir_b9c60d6ac2345286a03f7e9bdef04560&#45;&gt;dir_9463e03d191b6d61661112ff0fb64dc7</title>
<path fill="none" stroke="black" d="M135.98,-254.43C105.56,-249.92 57.45,-237.6 35,-204 26.11,-190.7 30.29,-183.29 35,-168 46.39,-131.01 56.02,-122.74 84,-96 98.52,-82.12 117.26,-70.05 133.54,-60.95"/>
<polygon fill="black" stroke="black" points="135.66,-63.79 142.79,-55.95 132.33,-57.63 135.66,-63.79"/>
<g id="a_edge3&#45;headlabel"><a xlink:href="dir_000000_000031.html" target="_top" xlink:title="13">
<text text-anchor="middle" x="133.85" y="-65.49" font-family="Helvetica,sans-Serif" font-size="10.00">13</text>
</a>
</g>
</g>
<!-- dir_4063a9e34a1302ac947dfe60cb383789&#45;&gt;dir_b9c60d6ac2345286a03f7e9bdef04560 -->
<g id="edge6" class="edge">
<title>dir_4063a9e34a1302ac947dfe60cb383789&#45;&gt;dir_b9c60d6ac2345286a03f7e9bdef04560</title>
<path fill="none" stroke="black" d="M199.12,-204.1C195.34,-212.21 189.92,-222.08 184.36,-231.08"/>
<polygon fill="black" stroke="black" points="181.28,-229.39 178.8,-239.7 187.16,-233.19 181.28,-229.39"/>
<g id="a_edge6&#45;headlabel"><a xlink:href="dir_000002_000000.html" target="_top" xlink:title="13">
<text text-anchor="middle" x="180.84" y="-222.34" font-family="Helvetica,sans-Serif" font-size="10.00">13</text>
</a>
</g>
</g>
<!-- dir_4063a9e34a1302ac947dfe60cb383789&#45;&gt;dir_3e0ac571b2b9edbddc4070ffe47eeb4b -->
<g id="edge4" class="edge">
<title>dir_4063a9e34a1302ac947dfe60cb383789&#45;&gt;dir_3e0ac571b2b9edbddc4070ffe47eeb4b</title>
<path fill="none" stroke="black" d="M187.92,-167.7C180.61,-159.3 171.69,-149.07 163.66,-139.86"/>
<polygon fill="black" stroke="black" points="166.11,-137.34 156.91,-132.1 160.84,-141.94 166.11,-137.34"/>
<g id="a_edge4&#45;headlabel"><a xlink:href="dir_000002_000017.html" target="_top" xlink:title="3">
<text text-anchor="middle" x="170.62" y="-135.69" font-family="Helvetica,sans-Serif" font-size="10.00">3</text>
</a>
</g>
</g>
<!-- dir_4063a9e34a1302ac947dfe60cb383789&#45;&gt;dir_9463e03d191b6d61661112ff0fb64dc7 -->
<g id="edge5" class="edge">
<title>dir_4063a9e34a1302ac947dfe60cb383789&#45;&gt;dir_9463e03d191b6d61661112ff0fb64dc7</title>
<path fill="none" stroke="black" d="M199.02,-167.87C193.37,-143.56 182.97,-98.82 176.28,-70.01"/>
<polygon fill="black" stroke="black" points="179.67,-69.14 173.99,-60.19 172.85,-70.72 179.67,-69.14"/>
<g id="a_edge5&#45;headlabel"><a xlink:href="dir_000002_000031.html" target="_top" xlink:title="29">
<text text-anchor="middle" x="183.25" y="-69.5" font-family="Helvetica,sans-Serif" font-size="10.00">29</text>
</a>
</g>
</g>
<!-- dir_43e3902051112e70f748a93b64566c48 -->
<g id="node4" class="node">
<title>dir_43e3902051112e70f748a93b64566c48</title>
<g id="a_node4"><a xlink:href="dir_43e3902051112e70f748a93b64566c48.html" target="_top" xlink:title="coro">
<polygon fill="#4ea9ff" stroke="#404040" points="198,-420 144,-420 144,-384 198,-384 198,-420"/>
<text text-anchor="middle" x="171" y="-399.5" font-family="Helvetica,sans-Serif" font-size="10.00">coro</text>
</a>
</g>
</g>
<!-- dir_43e3902051112e70f748a93b64566c48&#45;&gt;dir_b9c60d6ac2345286a03f7e9bdef04560 -->
<g id="edge11" class="edge">
<title>dir_43e3902051112e70f748a93b64566c48&#45;&gt;dir_b9c60d6ac2345286a03f7e9bdef04560</title>
<path fill="none" stroke="black" d="M169.57,-383.82C168.74,-373.45 167.72,-359.97 167,-348 165.75,-327.29 164.71,-303.84 164.01,-286.22"/>
<polygon fill="black" stroke="black" points="167.5,-285.93 163.61,-276.07 160.51,-286.2 167.5,-285.93"/>
<g id="a_edge11&#45;headlabel"><a xlink:href="dir_000006_000000.html" target="_top" xlink:title="1">
<text text-anchor="middle" x="170.48" y="-286.91" font-family="Helvetica,sans-Serif" font-size="10.00">1</text>
</a>
</g>
</g>
<!-- dir_43e3902051112e70f748a93b64566c48&#45;&gt;dir_4063a9e34a1302ac947dfe60cb383789 -->
<g id="edge8" class="edge">
<title>dir_43e3902051112e70f748a93b64566c48&#45;&gt;dir_4063a9e34a1302ac947dfe60cb383789</title>
<path fill="none" stroke="black" d="M198.34,-387.62C213.33,-378.67 230.53,-365.35 239,-348 260.62,-303.73 236.93,-246.26 219.06,-213.32"/>
<polygon fill="black" stroke="black" points="221.95,-211.31 213.99,-204.32 215.85,-214.75 221.95,-211.31"/>
<g id="a_edge8&#45;headlabel"><a xlink:href="dir_000006_000002.html" target="_top" xlink:title="5">
<text text-anchor="middle" x="226.19" y="-210.55" font-family="Helvetica,sans-Serif" font-size="10.00">5</text>
</a>
</g>
</g>
<!-- dir_43e3902051112e70f748a93b64566c48&#45;&gt;dir_3e0ac571b2b9edbddc4070ffe47eeb4b -->
<g id="edge7" class="edge">
<title>dir_43e3902051112e70f748a93b64566c48&#45;&gt;dir_3e0ac571b2b9edbddc4070ffe47eeb4b</title>
<path fill="none" stroke="black" d="M161.13,-383.92C148.22,-360.49 126.26,-316.65 118,-276 113.98,-256.2 120.16,-176.71 122,-168 123.85,-159.24 126.91,-150.02 130.09,-141.76"/>
<polygon fill="black" stroke="black" points="133.43,-142.84 133.95,-132.26 126.94,-140.21 133.43,-142.84"/>
<g id="a_edge7&#45;headlabel"><a xlink:href="dir_000006_000017.html" target="_top" xlink:title="7">
<text text-anchor="middle" x="134.7" y="-144.74" font-family="Helvetica,sans-Serif" font-size="10.00">7</text>
</a>
</g>
</g>
<!-- dir_8b7266e503a55d0488796d9ff22e7799 -->
<g id="node7" class="node">
<title>dir_8b7266e503a55d0488796d9ff22e7799</title>
<g id="a_node7"><a xlink:href="dir_8b7266e503a55d0488796d9ff22e7799.html" target="_top" xlink:title="lazy">
<polygon fill="#4ea9ff" stroke="#404040" points="230,-348 176,-348 176,-312 230,-312 230,-348"/>
<text text-anchor="middle" x="203" y="-327.5" font-family="Helvetica,sans-Serif" font-size="10.00">lazy</text>
</a>
</g>
</g>
<!-- dir_43e3902051112e70f748a93b64566c48&#45;&gt;dir_8b7266e503a55d0488796d9ff22e7799 -->
<g id="edge9" class="edge">
<title>dir_43e3902051112e70f748a93b64566c48&#45;&gt;dir_8b7266e503a55d0488796d9ff22e7799</title>
<path fill="none" stroke="black" d="M178.91,-383.7C182.55,-375.73 186.95,-366.1 190.99,-357.26"/>
<polygon fill="black" stroke="black" points="194.21,-358.65 195.18,-348.1 187.84,-355.74 194.21,-358.65"/>
<g id="a_edge9&#45;headlabel"><a xlink:href="dir_000006_000025.html" target="_top" xlink:title="4">
<text text-anchor="middle" x="195.29" y="-360.6" font-family="Helvetica,sans-Serif" font-size="10.00">4</text>
</a>
</g>
</g>
<!-- dir_43e3902051112e70f748a93b64566c48&#45;&gt;dir_9463e03d191b6d61661112ff0fb64dc7 -->
<g id="edge10" class="edge">
<title>dir_43e3902051112e70f748a93b64566c48&#45;&gt;dir_9463e03d191b6d61661112ff0fb64dc7</title>
<path fill="none" stroke="black" d="M198.06,-388.79C214.9,-379.83 235.63,-366.08 248,-348 270.94,-314.45 269,-299.64 269,-259 269,-259 269,-259 269,-185 269,-136.38 229.46,-92.5 200.35,-66.78"/>
<polygon fill="black" stroke="black" points="202.34,-63.87 192.46,-60.03 197.78,-69.19 202.34,-63.87"/>
<g id="a_edge10&#45;headlabel"><a xlink:href="dir_000006_000031.html" target="_top" xlink:title="12">
<text text-anchor="middle" x="206.91" y="-61.56" font-family="Helvetica,sans-Serif" font-size="10.00">12</text>
</a>
</g>
</g>
<!-- dir_3e0ac571b2b9edbddc4070ffe47eeb4b&#45;&gt;dir_9463e03d191b6d61661112ff0fb64dc7 -->
<g id="edge12" class="edge">
<title>dir_3e0ac571b2b9edbddc4070ffe47eeb4b&#45;&gt;dir_9463e03d191b6d61661112ff0fb64dc7</title>
<path fill="none" stroke="black" d="M148.92,-95.7C152.07,-87.81 155.88,-78.3 159.38,-69.55"/>
<polygon fill="black" stroke="black" points="162.69,-70.69 163.16,-60.1 156.19,-68.09 162.69,-70.69"/>
<g id="a_edge12&#45;headlabel"><a xlink:href="dir_000017_000031.html" target="_top" xlink:title="5">
<text text-anchor="middle" x="164" y="-72.58" font-family="Helvetica,sans-Serif" font-size="10.00">5</text>
</a>
</g>
</g>
<!-- dir_fcdee66dcbfecc4f407f3eae0a061ebf -->
<g id="node6" class="node">
<title>dir_fcdee66dcbfecc4f407f3eae0a061ebf</title>
<g id="a_node6"><a xlink:href="dir_fcdee66dcbfecc4f407f3eae0a061ebf.html" target="_top" xlink:title="fault">
<polygon fill="#4ea9ff" stroke="#404040" points="102,-420 48,-420 48,-384 102,-384 102,-420"/>
<text text-anchor="middle" x="75" y="-399.5" font-family="Helvetica,sans-Serif" font-size="10.00">fault</text>
</a>
</g>
</g>
<!-- dir_8b7266e503a55d0488796d9ff22e7799&#45;&gt;dir_b9c60d6ac2345286a03f7e9bdef04560 -->
<g id="edge16" class="edge">
<title>dir_8b7266e503a55d0488796d9ff22e7799&#45;&gt;dir_b9c60d6ac2345286a03f7e9bdef04560</title>
<path fill="none" stroke="black" d="M193.11,-311.7C188.51,-303.64 182.94,-293.89 177.85,-284.98"/>
<polygon fill="black" stroke="black" points="180.77,-283.05 172.77,-276.1 174.7,-286.52 180.77,-283.05"/>
<g id="a_edge16&#45;headlabel"><a xlink:href="dir_000025_000000.html" target="_top" xlink:title="2">
<text text-anchor="middle" x="185.02" y="-282.26" font-family="Helvetica,sans-Serif" font-size="10.00">2</text>
</a>
</g>
</g>
<!-- dir_8b7266e503a55d0488796d9ff22e7799&#45;&gt;dir_4063a9e34a1302ac947dfe60cb383789 -->
<g id="edge14" class="edge">
<title>dir_8b7266e503a55d0488796d9ff22e7799&#45;&gt;dir_4063a9e34a1302ac947dfe60cb383789</title>
<path fill="none" stroke="black" d="M203,-311.87C203,-287.67 203,-243.21 203,-214.39"/>
<polygon fill="black" stroke="black" points="206.5,-214.19 203,-204.19 199.5,-214.19 206.5,-214.19"/>
<g id="a_edge14&#45;headlabel"><a xlink:href="dir_000025_000002.html" target="_top" xlink:title="1">
<text text-anchor="middle" x="209.34" y="-215.28" font-family="Helvetica,sans-Serif" font-size="10.00">1</text>
</a>
</g>
</g>
<!-- dir_8b7266e503a55d0488796d9ff22e7799&#45;&gt;dir_3e0ac571b2b9edbddc4070ffe47eeb4b -->
<g id="edge13" class="edge">
<title>dir_8b7266e503a55d0488796d9ff22e7799&#45;&gt;dir_3e0ac571b2b9edbddc4070ffe47eeb4b</title>
<path fill="none" stroke="black" d="M175.99,-318.14C158.55,-309.54 137.27,-295.68 127,-276 115.2,-253.38 127.72,-181.72 135.97,-142.06"/>
<polygon fill="black" stroke="black" points="139.4,-142.76 138.06,-132.25 132.55,-141.3 139.4,-142.76"/>
<g id="a_edge13&#45;headlabel"><a xlink:href="dir_000025_000017.html" target="_top" xlink:title="3">
<text text-anchor="middle" x="141.43" y="-144.37" font-family="Helvetica,sans-Serif" font-size="10.00">3</text>
</a>
</g>
</g>
<!-- dir_8b7266e503a55d0488796d9ff22e7799&#45;&gt;dir_9463e03d191b6d61661112ff0fb64dc7 -->
<g id="edge15" class="edge">
<title>dir_8b7266e503a55d0488796d9ff22e7799&#45;&gt;dir_9463e03d191b6d61661112ff0fb64dc7</title>
<path fill="none" stroke="black" d="M212.11,-311.99C226.72,-282.53 252.44,-220.14 239,-168 229.36,-130.59 205.88,-92.4 188.99,-68.24"/>
<polygon fill="black" stroke="black" points="191.76,-66.11 183.1,-60.01 186.07,-70.18 191.76,-66.11"/>
<g id="a_edge15&#45;headlabel"><a xlink:href="dir_000025_000031.html" target="_top" xlink:title="2">
<text text-anchor="middle" x="196.16" y="-64.88" font-family="Helvetica,sans-Serif" font-size="10.00">2</text>
</a>
</g>
</g>
<!-- dir_fffaff2cbb25f4ba1a96bd122b2d5072 -->
<g id="node8" class="node">
<title>dir_fffaff2cbb25f4ba1a96bd122b2d5072</title>
<g id="a_node8"><a xlink:href="dir_fffaff2cbb25f4ba1a96bd122b2d5072.html" target="_top" xlink:title="runtime">
<polygon fill="#4ea9ff" stroke="#404040" points="98,-204 44,-204 44,-168 98,-168 98,-204"/>
<text text-anchor="middle" x="71" y="-183.5" font-family="Helvetica,sans-Serif" font-size="10.00">runtime</text>
</a>
</g>
</g>
<!-- dir_fffaff2cbb25f4ba1a96bd122b2d5072&#45;&gt;dir_3e0ac571b2b9edbddc4070ffe47eeb4b -->
<g id="edge17" class="edge">
<title>dir_fffaff2cbb25f4ba1a96bd122b2d5072&#45;&gt;dir_3e0ac571b2b9edbddc4070ffe47eeb4b</title>
<path fill="none" stroke="black" d="M88.55,-167.7C97.23,-159.14 107.86,-148.66 117.35,-139.3"/>
<polygon fill="black" stroke="black" points="119.99,-141.62 124.65,-132.1 115.07,-136.63 119.99,-141.62"/>
<g id="a_edge17&#45;headlabel"><a xlink:href="dir_000027_000017.html" target="_top" xlink:title="2">
<text text-anchor="middle" x="119.42" y="-143.66" font-family="Helvetica,sans-Serif" font-size="10.00">2</text>
</a>
</g>
</g>
<!-- dir_fffaff2cbb25f4ba1a96bd122b2d5072&#45;&gt;dir_9463e03d191b6d61661112ff0fb64dc7 -->
<g id="edge18" class="edge">
<title>dir_fffaff2cbb25f4ba1a96bd122b2d5072&#45;&gt;dir_9463e03d191b6d61661112ff0fb64dc7</title>
<path fill="none" stroke="black" d="M75.03,-167.67C80.03,-148.75 89.93,-118.19 106,-96 114.09,-84.83 125.07,-74.61 135.65,-66.19"/>
<polygon fill="black" stroke="black" points="137.78,-68.96 143.6,-60.11 133.53,-63.4 137.78,-68.96"/>
<g id="a_edge18&#45;headlabel"><a xlink:href="dir_000027_000031.html" target="_top" xlink:title="1">
<text text-anchor="middle" x="136.65" y="-70.9" font-family="Helvetica,sans-Serif" font-size="10.00">1</text>
</a>
</g>
</g>
</g>
</svg>
        <g id="navigator" transform="translate(0 0)" fill="#404254">
                <rect fill="#f2f5e9" fill-opacity="0.5" stroke="#606060" stroke-width=".5" x="0" y="0" width="60" height="60"/>
                <use id="zoomplus" xlink:href="#zoomPlus" x="17" y="9" onmousedown="handleZoom(evt,'in')"/>
                <use id="zoomminus" xlink:href="#zoomMin" x="42" y="9" onmousedown="handleZoom(evt,'out')"/>
                <use id="reset" xlink:href="#resetDef" x="30" y="36" onmousedown="handleReset()"/>
                <g id="arrowUp" xlink:href="#dirArrow" transform="translate(30 24)" onmousedown="handlePan(0,-1)">
                  <use xlink:href="#rim" fill="#404040">
                        <set attributeName="fill" to="#808080" begin="arrowUp.mouseover" end="arrowUp.mouseout"/>
                  </use>
                  <path fill="none" stroke="white" stroke-width="1.5" d="M0,-3.0v7 M-2.5,-0.5L0,-3.0L2.5,-0.5"/>
                </g>
                <g id="arrowRight" xlink:href="#dirArrow" transform="rotate(90) translate(36 -43)" onmousedown="handlePan(1,0)">
                  <use xlink:href="#rim" fill="#404040">
                        <set attributeName="fill" to="#808080" begin="arrowRight.mouseover" end="arrowRight.mouseout"/>
                  </use>
                  <path fill="none" stroke="white" stroke-width="1.5" d="M0,-3.0v7 M-2.5,-0.5L0,-3.0L2.5,-0.5"/>
                </g>
                <g id="arrowDown" xlink:href="#dirArrow" transform="rotate(180) translate(-30 -48)" onmousedown="handlePan(0,1)">
                  <use xlink:href="#rim" fill="#404040">
                        <set attributeName="fill" to="#808080" begin="arrowDown.mouseover" end="arrowDown.mouseout"/>
                  </use>
                  <path fill="none" stroke="white" stroke-width="1.5" d="M0,-3.0v7 M-2.5,-0.5L0,-3.0L2.5,-0.5"/>
                </g>
                <g id="arrowLeft" xlink:href="#dirArrow" transform="rotate(270) translate(-36 17)" onmousedown="handlePan(-1,0)">
                  <use xlink:href="#rim" fill="#404040">
                        <set attributeName="fill" to="#808080" begin="arrowLeft.mouseover" end="arrowLeft.mouseout"/>
                  </use>
                  <path fill="none" stroke="white" stroke-width="1.5" d="M0,-3.0v7 M-2.5,-0.5L0,-3.0L2.5,-0.5"/>
                </g>
        </g>
        <svg viewBox="0 0 15 15" width="100%" height="30px" preserveAspectRatio="xMaxYMin meet">
         <g id="arrow_out" transform="scale(0.3 0.3)">
          <a xlink:href="dir_5202e9473254619c80971b7f5a23629e_dep_org.svg" target="_base">
           <rect id="button" ry="5" rx="5" y="6" x="6" height="38" width="38"
                fill="#f2f5e9" fill-opacity="0.5" stroke="#606060" stroke-width="1.0"/>
           <path id="arrow"
             d="M 11.500037,31.436501 C 11.940474,20.09759 22.043105,11.32322 32.158766,21.979434 L 37.068811,17.246167 C 37.068811,17.246167 37.088388,32 37.088388,32 L 22.160133,31.978069 C 22.160133,31.978069 26.997745,27.140456 26.997745,27.140456 C 18.528582,18.264221 13.291696,25.230495 11.500037,31.436501 z"
             style="fill:#404040;"/>
          </a>
         </g>
        </svg>
</svg>
