<?xml version="1.0" encoding="UTF-8" standalone="no"?>
<!DOCTYPE svg PUBLIC "-//W3C//DTD SVG 1.1//EN"
 "http://www.w3.org/Graphics/SVG/1.1/DTD/svg11.dtd">
<!-- Generated by graphviz version 3.0.0 (20221109.1736)
 -->
<!-- Title: src Pages: 1 -->
<!--zoomable 132 -->
<svg id="main" version="1.1" xmlns="http://www.w3.org/2000/svg" xmlns:xlink="http://www.w3.org/1999/xlink" xml:space="preserve" onload="init(evt)">
<style type="text/css"><![CDATA[
.edge:hover path { stroke: red; }
.edge:hover polygon { stroke: red; fill: red; }
]]></style>
<script type="text/javascript"><![CDATA[
var edges = document.getElementsByTagName('g');
if (edges && edges.length) {
  for (var i=0;i<edges.length;i++) {
    if (edges[i].id.substr(0,4)=='edge') {
      edges[i].setAttribute('class','edge');
    }
  }
}
]]></script>
        <defs>
                <circle id="rim" cx="0" cy="0" r="7"/>
                <circle id="rim2" cx="0" cy="0" r="3.5"/>
                <g id="zoomPlus">
                        <use xlink:href="#rim" fill="#404040">
                                <set attributeName="fill" to="#808080" begin="zoomplus.mouseover" end="zoomplus.mouseout"/>
                        </use>
                        <path d="M-4,0h8M0,-4v8" fill="none" stroke="white" stroke-width="1.5" pointer-events="none"/>
                </g>
                <g id="zoomMin">
                        <use xlink:href="#rim" fill="#404040">
                                <set attributeName="fill" to="#808080" begin="zoomminus.mouseover" end="zoomminus.mouseout"/>
                        </use>
                        <path d="M-4,0h8" fill="none" stroke="white" stroke-width="1.5" pointer-events="none"/>
                </g>
                <g id="dirArrow">
                        <path fill="none" stroke="white" stroke-width="1.5" d="M0,-3.0v7 M-2.5,-0.5L0,-3.0L2.5,-0.5"/>
                </g>
               <g id="resetDef">
                       <use xlink:href="#rim2" fill="#404040">
                               <set attributeName="fill" to="#808080" begin="reset.mouseover" end="reset.mouseout"/>
                       </use>
               </g>
        </defs>

<script type="text/javascript">
var viewWidth = 598;
var viewHeight = 132;
var sectionId = 'dynsection-0';
</script>
<script xlink:href="svgpan.js"/>
<svg id="graph" class="graph">
<g id="viewport">
<title>src</title>
<g id="clust1" class="cluster">
<title>clusterdir_68267d1309a1af8e8297ef4c3efbcdba</title>
<g id="a_clust1"><a xlink:href="dir_68267d1309a1af8e8297ef4c3efbcdba.html" target="_top">
<polygon fill="#daedff" stroke="#404040" stroke-width="2" points="8,-64 8,-116 582,-116 582,-64 8,-64"/>
</a>
</g>
</g>
<!-- dir_68267d1309a1af8e8297ef4c3efbcdba -->
<g id="node1" class="node">
<title>dir_68267d1309a1af8e8297ef4c3efbcdba</title>
<text text-anchor="middle" x="547" y="-87.5" font-family="Helvetica,sans-Serif" font-size="10.00">src</text>
</g>
<!-- dir_d44c64559bbebec7f509842c48db8b23 -->
<g id="node9" class="node">
<title>dir_d44c64559bbebec7f509842c48db8b23</title>
<g id="a_node9"><a xlink:href="dir_d44c64559bbebec7f509842c48db8b23.html" target="_top" xlink:title="include">
<polygon fill="none" stroke="red" points="322,-36 268,-36 268,0 322,0 322,-36"/>
<text text-anchor="middle" x="295" y="-15.5" font-family="Helvetica,sans-Serif" font-size="10.00">include</text>
</a>
</g>
</g>
<!-- dir_68267d1309a1af8e8297ef4c3efbcdba&#45;&gt;dir_d44c64559bbebec7f509842c48db8b23 -->
<g id="edge1" class="edge">
<title>dir_68267d1309a1af8e8297ef4c3efbcdba&#45;&gt;dir_d44c64559bbebec7f509842c48db8b23</title>
<path fill="none" stroke="black" d="M525.35,-71.92C520.8,-68.93 515.89,-66.1 511,-64 451.55,-38.43 376.49,-27.01 332.31,-22.2"/>
<polygon fill="black" stroke="black" points="332.62,-18.71 322.31,-21.17 331.9,-25.68 332.62,-18.71"/>
<g id="a_edge1&#45;headlabel"><a xlink:href="dir_000029_000024.html" target="_top" xlink:title="56">
<text text-anchor="middle" x="336.48" y="-13.76" font-family="Helvetica,sans-Serif" font-size="10.00">56</text>
</a>
</g>
</g>
<!-- dir_8111f045ab156cab490d6e0f8a4c6c64 -->
<g id="node2" class="node">
<title>dir_8111f045ab156cab490d6e0f8a4c6c64</title>
<g id="a_node2"><a xlink:href="dir_8111f045ab156cab490d6e0f8a4c6c64.html" target="_top" xlink:title="algo">
<polygon fill="#4ea9ff" stroke="#404040" points="502,-108 448,-108 448,-72 502,-72 502,-108"/>
<text text-anchor="middle" x="475" y="-87.5" font-family="Helvetica,sans-Serif" font-size="10.00">algo</text>
</a>
</g>
</g>
<!-- dir_8111f045ab156cab490d6e0f8a4c6c64&#45;&gt;dir_d44c64559bbebec7f509842c48db8b23 -->
<g id="edge2" class="edge">
<title>dir_8111f045ab156cab490d6e0f8a4c6c64&#45;&gt;dir_d44c64559bbebec7f509842c48db8b23</title>
<path fill="none" stroke="black" d="M452.4,-71.77C448.09,-68.94 443.51,-66.21 439,-64 404.38,-47.06 361.98,-34.73 332.18,-27.3"/>
<polygon fill="black" stroke="black" points="332.75,-23.84 322.2,-24.88 331.1,-30.64 332.75,-23.84"/>
<g id="a_edge2&#45;headlabel"><a xlink:href="dir_000001_000024.html" target="_top" xlink:title="8">
<text text-anchor="middle" x="336.91" y="-19.43" font-family="Helvetica,sans-Serif" font-size="10.00">8</text>
</a>
</g>
</g>
<!-- dir_b60a79ed93f318a37dbc9781b4452c17 -->
<g id="node3" class="node">
<title>dir_b60a79ed93f318a37dbc9781b4452c17</title>
<g id="a_node3"><a xlink:href="dir_b60a79ed93f318a37dbc9781b4452c17.html" target="_top" xlink:title="async">
<polygon fill="#4ea9ff" stroke="#404040" points="430,-108 376,-108 376,-72 430,-72 430,-108"/>
<text text-anchor="middle" x="403" y="-87.5" font-family="Helvetica,sans-Serif" font-size="10.00">async</text>
</a>
</g>
</g>
<!-- dir_b60a79ed93f318a37dbc9781b4452c17&#45;&gt;dir_d44c64559bbebec7f509842c48db8b23 -->
<g id="edge3" class="edge">
<title>dir_b60a79ed93f318a37dbc9781b4452c17&#45;&gt;dir_d44c64559bbebec7f509842c48db8b23</title>
<path fill="none" stroke="black" d="M378.71,-71.89C374.81,-69.22 370.81,-66.51 367,-64 355.33,-56.31 342.43,-48.14 330.8,-40.9"/>
<polygon fill="black" stroke="black" points="332.55,-37.87 322.21,-35.57 328.86,-43.82 332.55,-37.87"/>
<g id="a_edge3&#45;headlabel"><a xlink:href="dir_000003_000024.html" target="_top" xlink:title="3">
<text text-anchor="middle" x="337.1" y="-34.85" font-family="Helvetica,sans-Serif" font-size="10.00">3</text>
</a>
</g>
</g>
<!-- dir_0cfa8530bbbc752bfa999eebd3779eb2 -->
<g id="node4" class="node">
<title>dir_0cfa8530bbbc752bfa999eebd3779eb2</title>
<g id="a_node4"><a xlink:href="dir_0cfa8530bbbc752bfa999eebd3779eb2.html" target="_top" xlink:title="exe">
<polygon fill="#4ea9ff" stroke="#404040" points="358,-108 304,-108 304,-72 358,-72 358,-108"/>
<text text-anchor="middle" x="331" y="-87.5" font-family="Helvetica,sans-Serif" font-size="10.00">exe</text>
</a>
</g>
</g>
<!-- dir_0cfa8530bbbc752bfa999eebd3779eb2&#45;&gt;dir_d44c64559bbebec7f509842c48db8b23 -->
<g id="edge4" class="edge">
<title>dir_0cfa8530bbbc752bfa999eebd3779eb2&#45;&gt;dir_d44c64559bbebec7f509842c48db8b23</title>
<path fill="none" stroke="black" d="M322.1,-71.7C318,-63.73 313.05,-54.1 308.51,-45.26"/>
<polygon fill="black" stroke="black" points="311.48,-43.4 303.8,-36.1 305.26,-46.6 311.48,-43.4"/>
<g id="a_edge4&#45;headlabel"><a xlink:href="dir_000018_000024.html" target="_top" xlink:title="8">
<text text-anchor="middle" x="315.65" y="-42.79" font-family="Helvetica,sans-Serif" font-size="10.00">8</text>
</a>
</g>
</g>
<!-- dir_f289338ed24f1cc6d174ad5a6e562081 -->
<g id="node5" class="node">
<title>dir_f289338ed24f1cc6d174ad5a6e562081</title>
<g id="a_node5"><a xlink:href="dir_f289338ed24f1cc6d174ad5a6e562081.html" target="_top" xlink:title="fault">
<polygon fill="#4ea9ff" stroke="#404040" points="286,-108 232,-108 232,-72 286,-72 286,-108"/>
<text text-anchor="middle" x="259" y="-87.5" font-family="Helvetica,sans-Serif" font-size="10.00">fault</text>
</a>
</g>
</g>
<!-- dir_f289338ed24f1cc6d174ad5a6e562081&#45;&gt;dir_d44c64559bbebec7f509842c48db8b23 -->
<g id="edge5" class="edge">
<title>dir_f289338ed24f1cc6d174ad5a6e562081&#45;&gt;dir_d44c64559bbebec7f509842c48db8b23</title>
<path fill="none" stroke="black" d="M267.9,-71.7C272,-63.73 276.95,-54.1 281.49,-45.26"/>
<polygon fill="black" stroke="black" points="284.74,-46.6 286.2,-36.1 278.52,-43.4 284.74,-46.6"/>
<g id="a_edge5&#45;headlabel"><a xlink:href="dir_000021_000024.html" target="_top" xlink:title="28">
<text text-anchor="middle" x="285.62" y="-48.59" font-family="Helvetica,sans-Serif" font-size="10.00">28</text>
</a>
</g>
</g>
<!-- dir_7d4f03fdac654546c57d7e9a744e5057 -->
<g id="node6" class="node">
<title>dir_7d4f03fdac654546c57d7e9a744e5057</title>
<g id="a_node6"><a xlink:href="dir_7d4f03fdac654546c57d7e9a744e5057.html" target="_top" xlink:title="lazy">
<polygon fill="#4ea9ff" stroke="#404040" points="214,-108 160,-108 160,-72 214,-72 214,-108"/>
<text text-anchor="middle" x="187" y="-87.5" font-family="Helvetica,sans-Serif" font-size="10.00">lazy</text>
</a>
</g>
</g>
<!-- dir_7d4f03fdac654546c57d7e9a744e5057&#45;&gt;dir_d44c64559bbebec7f509842c48db8b23 -->
<g id="edge6" class="edge">
<title>dir_7d4f03fdac654546c57d7e9a744e5057&#45;&gt;dir_d44c64559bbebec7f509842c48db8b23</title>
<path fill="none" stroke="black" d="M211.29,-71.89C215.19,-69.22 219.19,-66.51 223,-64 234.67,-56.31 247.57,-48.14 259.2,-40.9"/>
<polygon fill="black" stroke="black" points="261.14,-43.82 267.79,-35.57 257.45,-37.87 261.14,-43.82"/>
<g id="a_edge6&#45;headlabel"><a xlink:href="dir_000026_000024.html" target="_top" xlink:title="1">
<text text-anchor="middle" x="259.58" y="-45.63" font-family="Helvetica,sans-Serif" font-size="10.00">1</text>
</a>
</g>
</g>
<!-- dir_bf9f26469d00835ba20ff8d80ee5a804 -->
<g id="node7" class="node">
<title>dir_bf9f26469d00835ba20ff8d80ee5a804</title>
<g id="a_node7"><a xlink:href="dir_bf9f26469d00835ba20ff8d80ee5a804.html" target="_top" xlink:title="runtime">
<polygon fill="#4ea9ff" stroke="#404040" points="142,-108 88,-108 88,-72 142,-72 142,-108"/>
<text text-anchor="middle" x="115" y="-87.5" font-family="Helvetica,sans-Serif" font-size="10.00">runtime</text>
</a>
</g>
</g>
<!-- dir_bf9f26469d00835ba20ff8d80ee5a804&#45;&gt;dir_d44c64559bbebec7f509842c48db8b23 -->
<g id="edge7" class="edge">
<title>dir_bf9f26469d00835ba20ff8d80ee5a804&#45;&gt;dir_d44c64559bbebec7f509842c48db8b23</title>
<path fill="none" stroke="black" d="M137.6,-71.77C141.91,-68.94 146.49,-66.21 151,-64 185.62,-47.06 228.02,-34.73 257.82,-27.3"/>
<polygon fill="black" stroke="black" points="258.9,-30.64 267.8,-24.88 257.25,-23.84 258.9,-30.64"/>
<g id="a_edge7&#45;headlabel"><a xlink:href="dir_000028_000024.html" target="_top" xlink:title="2">
<text text-anchor="middle" x="256.08" y="-31.75" font-family="Helvetica,sans-Serif" font-size="10.00">2</text>
</a>
</g>
</g>
<!-- dir_b7878ad5ecbf2506f4125b9d34c97e45 -->
<g id="node8" class="node">
<title>dir_b7878ad5ecbf2506f4125b9d34c97e45</title>
<g id="a_node8"><a xlink:href="dir_b7878ad5ecbf2506f4125b9d34c97e45.html" target="_top" xlink:title="util">
<polygon fill="#4ea9ff" stroke="#404040" points="70,-108 16,-108 16,-72 70,-72 70,-108"/>
<text text-anchor="middle" x="43" y="-87.5" font-family="Helvetica,sans-Serif" font-size="10.00">util</text>
</a>
</g>
</g>
<!-- dir_b7878ad5ecbf2506f4125b9d34c97e45&#45;&gt;dir_d44c64559bbebec7f509842c48db8b23 -->
<g id="edge8" class="edge">
<title>dir_b7878ad5ecbf2506f4125b9d34c97e45&#45;&gt;dir_d44c64559bbebec7f509842c48db8b23</title>
<path fill="none" stroke="black" d="M64.65,-71.92C69.2,-68.93 74.11,-66.1 79,-64 138.45,-38.43 213.51,-27.01 257.69,-22.2"/>
<polygon fill="black" stroke="black" points="258.1,-25.68 267.69,-21.17 257.38,-18.71 258.1,-25.68"/>
<g id="a_edge8&#45;headlabel"><a xlink:href="dir_000032_000024.html" target="_top" xlink:title="5">
<text text-anchor="middle" x="254.82" y="-26.37" font-family="Helvetica,sans-Serif" font-size="10.00">5</text>
</a>
</g>
</g>
</g>
</svg>
        <g id="navigator" transform="translate(0 0)" fill="#404254">
                <rect fill="#f2f5e9" fill-opacity="0.5" stroke="#606060" stroke-width=".5" x="0" y="0" width="60" height="60"/>
                <use id="zoomplus" xlink:href="#zoomPlus" x="17" y="9" onmousedown="handleZoom(evt,'in')"/>
                <use id="zoomminus" xlink:href="#zoomMin" x="42" y="9" onmousedown="handleZoom(evt,'out')"/>
                <use id="reset" xlink:href="#resetDef" x="30" y="36" onmousedown="handleReset()"/>
                <g id="arrowUp" xlink:href="#dirArrow" transform="translate(30 24)" onmousedown="handlePan(0,-1)">
                  <use xlink:href="#rim" fill="#404040">
                        <set attributeName="fill" to="#808080" begin="arrowUp.mouseover" end="arrowUp.mouseout"/>
                  </use>
                  <path fill="none" stroke="white" stroke-width="1.5" d="M0,-3.0v7 M-2.5,-0.5L0,-3.0L2.5,-0.5"/>
                </g>
                <g id="arrowRight" xlink:href="#dirArrow" transform="rotate(90) translate(36 -43)" onmousedown="handlePan(1,0)">
                  <use xlink:href="#rim" fill="#404040">
                        <set attributeName="fill" to="#808080" begin="arrowRight.mouseover" end="arrowRight.mouseout"/>
                  </use>
                  <path fill="none" stroke="white" stroke-width="1.5" d="M0,-3.0v7 M-2.5,-0.5L0,-3.0L2.5,-0.5"/>
                </g>
                <g id="arrowDown" xlink:href="#dirArrow" transform="rotate(180) translate(-30 -48)" onmousedown="handlePan(0,1)">
                  <use xlink:href="#rim" fill="#404040">
                        <set attributeName="fill" to="#808080" begin="arrowDown.mouseover" end="arrowDown.mouseout"/>
                  </use>
                  <path fill="none" stroke="white" stroke-width="1.5" d="M0,-3.0v7 M-2.5,-0.5L0,-3.0L2.5,-0.5"/>
                </g>
                <g id="arrowLeft" xlink:href="#dirArrow" transform="rotate(270) translate(-36 17)" onmousedown="handlePan(-1,0)">
                  <use xlink:href="#rim" fill="#404040">
                        <set attributeName="fill" to="#808080" begin="arrowLeft.mouseover" end="arrowLeft.mouseout"/>
                  </use>
                  <path fill="none" stroke="white" stroke-width="1.5" d="M0,-3.0v7 M-2.5,-0.5L0,-3.0L2.5,-0.5"/>
                </g>
        </g>
        <svg viewBox="0 0 15 15" width="100%" height="30px" preserveAspectRatio="xMaxYMin meet">
         <g id="arrow_out" transform="scale(0.3 0.3)">
          <a xlink:href="dir_68267d1309a1af8e8297ef4c3efbcdba_dep_org.svg" target="_base">
           <rect id="button" ry="5" rx="5" y="6" x="6" height="38" width="38"
                fill="#f2f5e9" fill-opacity="0.5" stroke="#606060" stroke-width="1.0"/>
           <path id="arrow"
             d="M 11.500037,31.436501 C 11.940474,20.09759 22.043105,11.32322 32.158766,21.979434 L 37.068811,17.246167 C 37.068811,17.246167 37.088388,32 37.088388,32 L 22.160133,31.978069 C 22.160133,31.978069 26.997745,27.140456 26.997745,27.140456 C 18.528582,18.264221 13.291696,25.230495 11.500037,31.436501 z"
             style="fill:#404040;"/>
          </a>
         </g>
        </svg>
</svg>
