<?xml version="1.0" encoding="UTF-8" standalone="no"?>
<!DOCTYPE svg PUBLIC "-//W3C//DTD SVG 1.1//EN"
 "http://www.w3.org/Graphics/SVG/1.1/DTD/svg11.dtd">
<!-- Generated by graphviz version 3.0.0 (20220413.0242)
 -->
<!-- Title: include/yaclib/algo Pages: 1 -->
<svg width="166pt" height="247pt"
 viewBox="0.00 0.00 166.00 247.00" xmlns="http://www.w3.org/2000/svg" xmlns:xlink="http://www.w3.org/1999/xlink">
<g id="graph0" class="graph" transform="scale(1 1) rotate(0) translate(4 243)">
<title>include/yaclib/algo</title>
<g id="clust1" class="cluster">
<title>clusterdir_5202e9473254619c80971b7f5a23629e</title>
<g id="a_clust1"><a xlink:href="dir_5202e9473254619c80971b7f5a23629e.html" target="_top" xlink:title="yaclib">
<polygon fill="#edf0f7" stroke="#7f7f7f" stroke-dasharray="5,2" points="8,-8 8,-231 150,-231 150,-8 8,-8"/>
<text text-anchor="middle" x="79" y="-219" font-family="Helvetica,sans-Serif" font-size="10.00">yaclib</text>
</a>
</g>
</g>
<g id="clust2" class="cluster">
<title>clusterdir_b9c60d6ac2345286a03f7e9bdef04560</title>
<g id="a_clust2"><a xlink:href="dir_b9c60d6ac2345286a03f7e9bdef04560.html" target="_top">
<polygon fill="#edf0f7" stroke="#404040" stroke-width="2" points="44,-80 44,-204 114,-204 114,-80 44,-80"/>
</a>
</g>
</g>
<!-- dir_4063a9e34a1302ac947dfe60cb383789 -->
<g id="node1" class="node">
<title>dir_4063a9e34a1302ac947dfe60cb383789</title>
<g id="a_node1"><a xlink:href="dir_4063a9e34a1302ac947dfe60cb383789.html" target="_top" xlink:title="async">
<polygon fill="#a2b4d6" stroke="red" points="70,-52 16,-52 16,-16 70,-16 70,-52"/>
<text text-anchor="middle" x="43" y="-31.5" font-family="Helvetica,sans-Serif" font-size="10.00">async</text>
</a>
</g>
</g>
<!-- dir_9463e03d191b6d61661112ff0fb64dc7 -->
<g id="node2" class="node">
<title>dir_9463e03d191b6d61661112ff0fb64dc7</title>
<g id="a_node2"><a xlink:href="dir_9463e03d191b6d61661112ff0fb64dc7.html" target="_top" xlink:title="util">
<polygon fill="#a2b4d6" stroke="red" points="142,-52 88,-52 88,-16 142,-16 142,-52"/>
<text text-anchor="middle" x="115" y="-31.5" font-family="Helvetica,sans-Serif" font-size="10.00">util</text>
</a>
</g>
</g>
<!-- dir_b9c60d6ac2345286a03f7e9bdef04560 -->
<g id="node3" class="node">
<title>dir_b9c60d6ac2345286a03f7e9bdef04560</title>
<text text-anchor="middle" x="79" y="-175.5" font-family="Helvetica,sans-Serif" font-size="10.00">algo</text>
</g>
<!-- dir_b9c60d6ac2345286a03f7e9bdef04560&#45;&gt;dir_4063a9e34a1302ac947dfe60cb383789 -->
<g id="edge1" class="edge">
<title>dir_b9c60d6ac2345286a03f7e9bdef04560&#45;&gt;dir_4063a9e34a1302ac947dfe60cb383789</title>
<path fill="none" stroke="black" d="M63.39,-159.77C55.63,-150.03 47.05,-137.18 43,-124 36.84,-103.97 37.21,-80.18 38.91,-62.24"/>
<polygon fill="black" stroke="black" points="42.41,-62.51 40.07,-52.17 35.45,-61.71 42.41,-62.51"/>
<g id="a_edge1&#45;headlabel"><a xlink:href="dir_000000_000002.html" target="_top" xlink:title="13">
<text text-anchor="middle" x="44.82" y="-63.9" font-family="Helvetica,sans-Serif" font-size="10.00">13</text>
</a>
</g>
</g>
<!-- dir_b9c60d6ac2345286a03f7e9bdef04560&#45;&gt;dir_9463e03d191b6d61661112ff0fb64dc7 -->
<g id="edge3" class="edge">
<title>dir_b9c60d6ac2345286a03f7e9bdef04560&#45;&gt;dir_9463e03d191b6d61661112ff0fb64dc7</title>
<path fill="none" stroke="black" d="M94.61,-159.77C102.37,-150.03 110.95,-137.18 115,-124 121.16,-103.97 120.79,-80.18 119.09,-62.24"/>
<polygon fill="black" stroke="black" points="122.55,-61.71 117.93,-52.17 115.59,-62.51 122.55,-61.71"/>
<g id="a_edge3&#45;headlabel"><a xlink:href="dir_000000_000027.html" target="_top" xlink:title="20">
<text text-anchor="middle" x="125.78" y="-62.46" font-family="Helvetica,sans-Serif" font-size="10.00">20</text>
</a>
</g>
</g>
<!-- dir_9039413c522f41ada5cc655e104f9ea8 -->
<g id="node4" class="node">
<title>dir_9039413c522f41ada5cc655e104f9ea8</title>
<g id="a_node4"><a xlink:href="dir_9039413c522f41ada5cc655e104f9ea8.html" target="_top" xlink:title="detail">
<polygon fill="#a2b4d6" stroke="#404040" points="106,-124 52,-124 52,-88 106,-88 106,-124"/>
<text text-anchor="middle" x="79" y="-103.5" font-family="Helvetica,sans-Serif" font-size="10.00">detail</text>
</a>
</g>
</g>
<!-- dir_b9c60d6ac2345286a03f7e9bdef04560&#45;&gt;dir_9039413c522f41ada5cc655e104f9ea8 -->
<g id="edge2" class="edge">
<title>dir_b9c60d6ac2345286a03f7e9bdef04560&#45;&gt;dir_9039413c522f41ada5cc655e104f9ea8</title>
<path fill="none" stroke="black" d="M79,-159.7C79,-151.98 79,-142.71 79,-134.11"/>
<polygon fill="black" stroke="black" points="82.5,-134.1 79,-124.1 75.5,-134.1 82.5,-134.1"/>
<g id="a_edge2&#45;headlabel"><a xlink:href="dir_000000_000008.html" target="_top" xlink:title="8">
<text text-anchor="middle" x="85.34" y="-135.2" font-family="Helvetica,sans-Serif" font-size="10.00">8</text>
</a>
</g>
</g>
<!-- dir_9039413c522f41ada5cc655e104f9ea8&#45;&gt;dir_4063a9e34a1302ac947dfe60cb383789 -->
<g id="edge4" class="edge">
<title>dir_9039413c522f41ada5cc655e104f9ea8&#45;&gt;dir_4063a9e34a1302ac947dfe60cb383789</title>
<path fill="none" stroke="black" d="M70.1,-87.7C66,-79.73 61.05,-70.1 56.51,-61.26"/>
<polygon fill="black" stroke="black" points="59.48,-59.4 51.8,-52.1 53.26,-62.6 59.48,-59.4"/>
<g id="a_edge4&#45;headlabel"><a xlink:href="dir_000008_000002.html" target="_top" xlink:title="7">
<text text-anchor="middle" x="63.65" y="-58.79" font-family="Helvetica,sans-Serif" font-size="10.00">7</text>
</a>
</g>
</g>
<!-- dir_9039413c522f41ada5cc655e104f9ea8&#45;&gt;dir_9463e03d191b6d61661112ff0fb64dc7 -->
<g id="edge5" class="edge">
<title>dir_9039413c522f41ada5cc655e104f9ea8&#45;&gt;dir_9463e03d191b6d61661112ff0fb64dc7</title>
<path fill="none" stroke="black" d="M87.9,-87.7C92,-79.73 96.95,-70.1 101.49,-61.26"/>
<polygon fill="black" stroke="black" points="104.74,-62.6 106.2,-52.1 98.52,-59.4 104.74,-62.6"/>
<g id="a_edge5&#45;headlabel"><a xlink:href="dir_000008_000027.html" target="_top" xlink:title="11">
<text text-anchor="middle" x="105.62" y="-64.59" font-family="Helvetica,sans-Serif" font-size="10.00">11</text>
</a>
</g>
</g>
</g>
</svg>
