<?xml version="1.0" encoding="UTF-8" standalone="no"?>
<!DOCTYPE svg PUBLIC "-//W3C//DTD SVG 1.1//EN"
 "http://www.w3.org/Graphics/SVG/1.1/DTD/svg11.dtd">
<!-- Generated by graphviz version 3.0.0 (20220413.0242)
 -->
<!-- Title: include/yaclib/coroutine/detail Pages: 1 -->
<svg width="206pt" height="151pt"
 viewBox="0.00 0.00 206.00 151.00" xmlns="http://www.w3.org/2000/svg" xmlns:xlink="http://www.w3.org/1999/xlink">
<g id="graph0" class="graph" transform="scale(1 1) rotate(0) translate(4 147)">
<title>include/yaclib/coroutine/detail</title>
<g id="clust1" class="cluster">
<title>clusterdir_5492c40dfbc6782579416f5b6b340e12</title>
<g id="a_clust1"><a xlink:href="dir_5492c40dfbc6782579416f5b6b340e12.html" target="_top" xlink:title="coroutine">
<polygon fill="#edf0f7" stroke="#7f7f7f" stroke-dasharray="5,2" points="64,-64 64,-135 134,-135 134,-64 64,-64"/>
<text text-anchor="middle" x="99" y="-123" font-family="Helvetica,sans-Serif" font-size="10.00">coroutine</text>
</a>
</g>
</g>
<!-- dir_80241f21725e0fd282253a28f6b081b6 -->
<g id="node1" class="node">
<title>dir_80241f21725e0fd282253a28f6b081b6</title>
<g id="a_node1"><a xlink:href="dir_80241f21725e0fd282253a28f6b081b6.html" target="_top" xlink:title="detail">
<polygon fill="#edf0f7" stroke="#404040" stroke-width="2" points="126,-108 72,-108 72,-72 126,-72 126,-108"/>
<text text-anchor="middle" x="99" y="-87.5" font-family="Helvetica,sans-Serif" font-size="10.00">detail</text>
</a>
</g>
</g>
<!-- dir_4063a9e34a1302ac947dfe60cb383789 -->
<g id="node2" class="node">
<title>dir_4063a9e34a1302ac947dfe60cb383789</title>
<g id="a_node2"><a xlink:href="dir_4063a9e34a1302ac947dfe60cb383789.html" target="_top" xlink:title="async">
<polygon fill="none" stroke="red" stroke-dasharray="5,2" points="54,-36 0,-36 0,0 54,0 54,-36"/>
<text text-anchor="middle" x="27" y="-15.5" font-family="Helvetica,sans-Serif" font-size="10.00">async</text>
</a>
</g>
</g>
<!-- dir_80241f21725e0fd282253a28f6b081b6&#45;&gt;dir_4063a9e34a1302ac947dfe60cb383789 -->
<g id="edge1" class="edge">
<title>dir_80241f21725e0fd282253a28f6b081b6&#45;&gt;dir_4063a9e34a1302ac947dfe60cb383789</title>
<path fill="none" stroke="black" d="M81.2,-71.7C72.4,-63.14 61.62,-52.66 52,-43.3"/>
<polygon fill="black" stroke="black" points="54.2,-40.57 44.59,-36.1 49.32,-45.58 54.2,-40.57"/>
<g id="a_edge1&#45;headlabel"><a xlink:href="dir_000010_000002.html" target="_top" xlink:title="2">
<text text-anchor="middle" x="58.76" y="-38.54" font-family="Helvetica,sans-Serif" font-size="10.00">2</text>
</a>
</g>
</g>
<!-- dir_9463e03d191b6d61661112ff0fb64dc7 -->
<g id="node3" class="node">
<title>dir_9463e03d191b6d61661112ff0fb64dc7</title>
<g id="a_node3"><a xlink:href="dir_9463e03d191b6d61661112ff0fb64dc7.html" target="_top" xlink:title="util">
<polygon fill="none" stroke="red" stroke-dasharray="5,2" points="126,-36 72,-36 72,0 126,0 126,-36"/>
<text text-anchor="middle" x="99" y="-15.5" font-family="Helvetica,sans-Serif" font-size="10.00">util</text>
</a>
</g>
</g>
<!-- dir_80241f21725e0fd282253a28f6b081b6&#45;&gt;dir_9463e03d191b6d61661112ff0fb64dc7 -->
<g id="edge2" class="edge">
<title>dir_80241f21725e0fd282253a28f6b081b6&#45;&gt;dir_9463e03d191b6d61661112ff0fb64dc7</title>
<path fill="none" stroke="black" d="M99,-71.7C99,-63.98 99,-54.71 99,-46.11"/>
<polygon fill="black" stroke="black" points="102.5,-46.1 99,-36.1 95.5,-46.1 102.5,-46.1"/>
<g id="a_edge2&#45;headlabel"><a xlink:href="dir_000010_000027.html" target="_top" xlink:title="4">
<text text-anchor="middle" x="105.34" y="-47.2" font-family="Helvetica,sans-Serif" font-size="10.00">4</text>
</a>
</g>
</g>
<!-- dir_f6a9384b5ccd990c15687caf98c8deaa -->
<g id="node4" class="node">
<title>dir_f6a9384b5ccd990c15687caf98c8deaa</title>
<g id="a_node4"><a xlink:href="dir_f6a9384b5ccd990c15687caf98c8deaa.html" target="_top" xlink:title="executor">
<polygon fill="none" stroke="red" stroke-dasharray="5,2" points="198,-36 144,-36 144,0 198,0 198,-36"/>
<text text-anchor="middle" x="171" y="-15.5" font-family="Helvetica,sans-Serif" font-size="10.00">executor</text>
</a>
</g>
</g>
<!-- dir_80241f21725e0fd282253a28f6b081b6&#45;&gt;dir_f6a9384b5ccd990c15687caf98c8deaa -->
<g id="edge3" class="edge">
<title>dir_80241f21725e0fd282253a28f6b081b6&#45;&gt;dir_f6a9384b5ccd990c15687caf98c8deaa</title>
<path fill="none" stroke="black" d="M116.8,-71.7C125.6,-63.14 136.38,-52.66 146,-43.3"/>
<polygon fill="black" stroke="black" points="148.68,-45.58 153.41,-36.1 143.8,-40.57 148.68,-45.58"/>
<g id="a_edge3&#45;headlabel"><a xlink:href="dir_000010_000017.html" target="_top" xlink:title="2">
<text text-anchor="middle" x="148.08" y="-47.63" font-family="Helvetica,sans-Serif" font-size="10.00">2</text>
</a>
</g>
</g>
</g>
</svg>
