<?xml version="1.0" encoding="UTF-8" standalone="no"?>
<!DOCTYPE svg PUBLIC "-//W3C//DTD SVG 1.1//EN"
 "http://www.w3.org/Graphics/SVG/1.1/DTD/svg11.dtd">
<!-- Generated by graphviz version 9.0.0 (20230911.1827)
 -->
<!-- Title: include/yaclib Pages: 1 -->
<svg width="284pt" height="371pt"
 viewBox="0.00 0.00 284.00 370.75" xmlns="http://www.w3.org/2000/svg" xmlns:xlink="http://www.w3.org/1999/xlink">
<g id="graph0" class="graph" transform="scale(1 1) rotate(0) translate(4 366.75)">
<title>include/yaclib</title>
<g id="clust1" class="cluster">
<title>clusterdir_d44c64559bbebec7f509842c48db8b23</title>
<g id="a_clust1"><a xlink:href="dir_d44c64559bbebec7f509842c48db8b23.html" target="_top" xlink:title="include">
<polygon fill="#daedff" stroke="#404040" stroke-dasharray="5,2" points="8,-8 8,-354.75 268,-354.75 268,-8 8,-8"/>
<text text-anchor="middle" x="138" y="-341.25" font-family="Helvetica,sans-Serif" font-size="10.00">include</text>
</a>
</g>
</g>
<g id="clust2" class="cluster">
<title>clusterdir_5202e9473254619c80971b7f5a23629e</title>
<g id="a_clust2"><a xlink:href="dir_5202e9473254619c80971b7f5a23629e.html" target="_top">
<polygon fill="#daedff" stroke="#404040" stroke-width="2" points="16,-16 16,-327.5 260,-327.5 260,-16 16,-16"/>
</a>
</g>
</g>
<!-- dir_5202e9473254619c80971b7f5a23629e -->
<g id="node1" class="node">
<title>dir_5202e9473254619c80971b7f5a23629e</title>
<text text-anchor="middle" x="232" y="-306" font-family="Helvetica,sans-Serif" font-size="10.00">yaclib</text>
</g>
<!-- dir_b9c60d6ac2345286a03f7e9bdef04560 -->
<g id="node2" class="node">
<title>dir_b9c60d6ac2345286a03f7e9bdef04560</title>
<g id="a_node2"><a xlink:href="dir_b9c60d6ac2345286a03f7e9bdef04560.html" target="_top" xlink:title="algo">
<polygon fill="#4ea9ff" stroke="#404040" points="172,-209 138,-209 138,-189.75 172,-189.75 172,-209"/>
<text text-anchor="middle" x="155" y="-195.5" font-family="Helvetica,sans-Serif" font-size="10.00">algo</text>
</a>
</g>
</g>
<!-- dir_4063a9e34a1302ac947dfe60cb383789 -->
<g id="node3" class="node">
<title>dir_4063a9e34a1302ac947dfe60cb383789</title>
<g id="a_node3"><a xlink:href="dir_4063a9e34a1302ac947dfe60cb383789.html" target="_top" xlink:title="async">
<polygon fill="#4ea9ff" stroke="#404040" points="211.75,-153.75 170.25,-153.75 170.25,-134.5 211.75,-134.5 211.75,-153.75"/>
<text text-anchor="middle" x="191" y="-140.25" font-family="Helvetica,sans-Serif" font-size="10.00">async</text>
</a>
</g>
</g>
<!-- dir_b9c60d6ac2345286a03f7e9bdef04560&#45;&gt;dir_4063a9e34a1302ac947dfe60cb383789 -->
<g id="edge2" class="edge">
<title>dir_b9c60d6ac2345286a03f7e9bdef04560&#45;&gt;dir_4063a9e34a1302ac947dfe60cb383789</title>
<g id="a_edge2"><a xlink:href="dir_000000_000002.html" target="_top">
<path fill="none" stroke="#63b8ff" d="M155.78,-189.58C159.11,-182.38 165.74,-171.96 172.49,-163.01"/>
<polygon fill="#63b8ff" stroke="#63b8ff" points="175.18,-165.25 178.77,-155.28 169.75,-160.84 175.18,-165.25"/>
</a>
</g>
<g id="a_edge2&#45;headlabel"><a xlink:href="dir_000000_000002.html" target="_top" xlink:title="1">
<text text-anchor="middle" x="176.07" y="-164.78" font-family="Helvetica,sans-Serif" font-size="10.00" fill="#63b8ff">1</text>
</a>
</g>
</g>
<!-- dir_3e0ac571b2b9edbddc4070ffe47eeb4b -->
<g id="node5" class="node">
<title>dir_3e0ac571b2b9edbddc4070ffe47eeb4b</title>
<g id="a_node5"><a xlink:href="dir_3e0ac571b2b9edbddc4070ffe47eeb4b.html" target="_top" xlink:title="exe">
<polygon fill="#4ea9ff" stroke="#404040" points="152.5,-98.5 121.5,-98.5 121.5,-79.25 152.5,-79.25 152.5,-98.5"/>
<text text-anchor="middle" x="137" y="-85" font-family="Helvetica,sans-Serif" font-size="10.00">exe</text>
</a>
</g>
</g>
<!-- dir_b9c60d6ac2345286a03f7e9bdef04560&#45;&gt;dir_3e0ac571b2b9edbddc4070ffe47eeb4b -->
<g id="edge1" class="edge">
<title>dir_b9c60d6ac2345286a03f7e9bdef04560&#45;&gt;dir_3e0ac571b2b9edbddc4070ffe47eeb4b</title>
<g id="a_edge1"><a xlink:href="dir_000000_000016.html" target="_top">
<path fill="none" stroke="#63b8ff" d="M153.53,-189.5C150.67,-172.25 144.29,-133.83 140.35,-110.06"/>
<polygon fill="#63b8ff" stroke="#63b8ff" points="143.83,-109.66 138.74,-100.37 136.92,-110.81 143.83,-109.66"/>
</a>
</g>
<g id="a_edge1&#45;headlabel"><a xlink:href="dir_000000_000016.html" target="_top" xlink:title="4">
<text text-anchor="middle" x="146.97" y="-107.38" font-family="Helvetica,sans-Serif" font-size="10.00" fill="#63b8ff">4</text>
</a>
</g>
</g>
<!-- dir_9463e03d191b6d61661112ff0fb64dc7 -->
<g id="node9" class="node">
<title>dir_9463e03d191b6d61661112ff0fb64dc7</title>
<g id="a_node9"><a xlink:href="dir_9463e03d191b6d61661112ff0fb64dc7.html" target="_top" xlink:title="util">
<polygon fill="#4ea9ff" stroke="#404040" points="175.4,-43.25 146.6,-43.25 146.6,-24 175.4,-24 175.4,-43.25"/>
<text text-anchor="middle" x="161" y="-29.75" font-family="Helvetica,sans-Serif" font-size="10.00">util</text>
</a>
</g>
</g>
<!-- dir_b9c60d6ac2345286a03f7e9bdef04560&#45;&gt;dir_9463e03d191b6d61661112ff0fb64dc7 -->
<g id="edge3" class="edge">
<title>dir_b9c60d6ac2345286a03f7e9bdef04560&#45;&gt;dir_9463e03d191b6d61661112ff0fb64dc7</title>
<g id="a_edge3"><a xlink:href="dir_000000_000030.html" target="_top">
<path fill="none" stroke="#63b8ff" d="M137.59,-196.76C100.03,-192.43 16.22,-177.81 35,-134.5 54.19,-90.25 104.87,-60.24 135.79,-45.4"/>
<polygon fill="#63b8ff" stroke="#63b8ff" points="137.2,-48.61 144.82,-41.25 134.28,-42.24 137.2,-48.61"/>
</a>
</g>
<g id="a_edge3&#45;headlabel"><a xlink:href="dir_000000_000030.html" target="_top" xlink:title="15">
<text text-anchor="middle" x="136.49" y="-48.18" font-family="Helvetica,sans-Serif" font-size="10.00" fill="#63b8ff">15</text>
</a>
</g>
</g>
<!-- dir_4063a9e34a1302ac947dfe60cb383789&#45;&gt;dir_b9c60d6ac2345286a03f7e9bdef04560 -->
<g id="edge6" class="edge">
<title>dir_4063a9e34a1302ac947dfe60cb383789&#45;&gt;dir_b9c60d6ac2345286a03f7e9bdef04560</title>
<g id="a_edge6"><a xlink:href="dir_000002_000000.html" target="_top">
<path fill="none" stroke="#63b8ff" d="M190.13,-154.11C186.75,-161.37 180.09,-171.81 173.33,-180.72"/>
<polygon fill="#63b8ff" stroke="#63b8ff" points="170.67,-178.45 167.07,-188.41 176.1,-182.87 170.67,-178.45"/>
</a>
</g>
<g id="a_edge6&#45;headlabel"><a xlink:href="dir_000002_000000.html" target="_top" xlink:title="13">
<text text-anchor="middle" x="169.79" y="-171.16" font-family="Helvetica,sans-Serif" font-size="10.00" fill="#63b8ff">13</text>
</a>
</g>
</g>
<!-- dir_4063a9e34a1302ac947dfe60cb383789&#45;&gt;dir_3e0ac571b2b9edbddc4070ffe47eeb4b -->
<g id="edge4" class="edge">
<title>dir_4063a9e34a1302ac947dfe60cb383789&#45;&gt;dir_3e0ac571b2b9edbddc4070ffe47eeb4b</title>
<g id="a_edge4"><a xlink:href="dir_000002_000016.html" target="_top">
<path fill="none" stroke="#63b8ff" d="M182.08,-134.33C174.55,-126.9 163.53,-116.04 154.27,-106.91"/>
<polygon fill="#63b8ff" stroke="#63b8ff" points="156.77,-104.45 147.19,-99.92 151.85,-109.44 156.77,-104.45"/>
</a>
</g>
<g id="a_edge4&#45;headlabel"><a xlink:href="dir_000002_000016.html" target="_top" xlink:title="3">
<text text-anchor="middle" x="160.24" y="-100.02" font-family="Helvetica,sans-Serif" font-size="10.00" fill="#63b8ff">3</text>
</a>
</g>
</g>
<!-- dir_4063a9e34a1302ac947dfe60cb383789&#45;&gt;dir_9463e03d191b6d61661112ff0fb64dc7 -->
<g id="edge5" class="edge">
<title>dir_4063a9e34a1302ac947dfe60cb383789&#45;&gt;dir_9463e03d191b6d61661112ff0fb64dc7</title>
<g id="a_edge5"><a xlink:href="dir_000002_000030.html" target="_top">
<path fill="none" stroke="#63b8ff" d="M188.54,-134.25C183.75,-116.92 173.06,-78.23 166.49,-54.49"/>
<polygon fill="#63b8ff" stroke="#63b8ff" points="169.93,-53.79 163.89,-45.09 163.18,-55.66 169.93,-53.79"/>
</a>
</g>
<g id="a_edge5&#45;headlabel"><a xlink:href="dir_000002_000030.html" target="_top" xlink:title="28">
<text text-anchor="middle" x="173.22" y="-51.17" font-family="Helvetica,sans-Serif" font-size="10.00" fill="#63b8ff">28</text>
</a>
</g>
</g>
<!-- dir_43e3902051112e70f748a93b64566c48 -->
<g id="node4" class="node">
<title>dir_43e3902051112e70f748a93b64566c48</title>
<g id="a_node4"><a xlink:href="dir_43e3902051112e70f748a93b64566c48.html" target="_top" xlink:title="coro">
<polygon fill="#4ea9ff" stroke="#404040" points="193.38,-319.5 158.62,-319.5 158.62,-300.25 193.38,-300.25 193.38,-319.5"/>
<text text-anchor="middle" x="176" y="-306" font-family="Helvetica,sans-Serif" font-size="10.00">coro</text>
</a>
</g>
</g>
<!-- dir_43e3902051112e70f748a93b64566c48&#45;&gt;dir_b9c60d6ac2345286a03f7e9bdef04560 -->
<g id="edge11" class="edge">
<title>dir_43e3902051112e70f748a93b64566c48&#45;&gt;dir_b9c60d6ac2345286a03f7e9bdef04560</title>
<g id="a_edge11"><a xlink:href="dir_000006_000000.html" target="_top">
<path fill="none" stroke="#63b8ff" d="M173.58,-300.04C171.18,-291.07 167.52,-276.77 165,-264.25 162.05,-249.56 159.45,-232.82 157.65,-220.16"/>
<polygon fill="#63b8ff" stroke="#63b8ff" points="161.16,-220.02 156.33,-210.6 154.23,-220.98 161.16,-220.02"/>
</a>
</g>
<g id="a_edge11&#45;headlabel"><a xlink:href="dir_000006_000000.html" target="_top" xlink:title="1">
<text text-anchor="middle" x="164.26" y="-217.82" font-family="Helvetica,sans-Serif" font-size="10.00" fill="#63b8ff">1</text>
</a>
</g>
</g>
<!-- dir_43e3902051112e70f748a93b64566c48&#45;&gt;dir_4063a9e34a1302ac947dfe60cb383789 -->
<g id="edge8" class="edge">
<title>dir_43e3902051112e70f748a93b64566c48&#45;&gt;dir_4063a9e34a1302ac947dfe60cb383789</title>
<g id="a_edge8"><a xlink:href="dir_000006_000002.html" target="_top">
<path fill="none" stroke="#63b8ff" d="M187.36,-300.01C196.79,-291.88 209.5,-278.89 215,-264.25 227.74,-230.3 212.56,-188.24 201.2,-164.26"/>
<polygon fill="#63b8ff" stroke="#63b8ff" points="204.37,-162.78 196.75,-155.41 198.12,-165.92 204.37,-162.78"/>
</a>
</g>
<g id="a_edge8&#45;headlabel"><a xlink:href="dir_000006_000002.html" target="_top" xlink:title="5">
<text text-anchor="middle" x="207.84" y="-159.49" font-family="Helvetica,sans-Serif" font-size="10.00" fill="#63b8ff">5</text>
</a>
</g>
</g>
<!-- dir_43e3902051112e70f748a93b64566c48&#45;&gt;dir_3e0ac571b2b9edbddc4070ffe47eeb4b -->
<g id="edge7" class="edge">
<title>dir_43e3902051112e70f748a93b64566c48&#45;&gt;dir_3e0ac571b2b9edbddc4070ffe47eeb4b</title>
<g id="a_edge7"><a xlink:href="dir_000006_000016.html" target="_top">
<path fill="none" stroke="#63b8ff" d="M168.74,-299.94C155.68,-283.28 128.63,-245.79 118,-209 108.81,-177.18 108.77,-166.83 116,-134.5 117.98,-125.63 121.93,-116.44 125.88,-108.73"/>
<polygon fill="#63b8ff" stroke="#63b8ff" points="128.92,-110.45 130.69,-100.01 122.79,-107.07 128.92,-110.45"/>
</a>
</g>
<g id="a_edge7&#45;headlabel"><a xlink:href="dir_000006_000016.html" target="_top" xlink:title="7">
<text text-anchor="middle" x="130.4" y="-109.77" font-family="Helvetica,sans-Serif" font-size="10.00" fill="#63b8ff">7</text>
</a>
</g>
</g>
<!-- dir_8b7266e503a55d0488796d9ff22e7799 -->
<g id="node7" class="node">
<title>dir_8b7266e503a55d0488796d9ff22e7799</title>
<g id="a_node7"><a xlink:href="dir_8b7266e503a55d0488796d9ff22e7799.html" target="_top" xlink:title="lazy">
<polygon fill="#4ea9ff" stroke="#404040" points="206.25,-264.25 173.75,-264.25 173.75,-245 206.25,-245 206.25,-264.25"/>
<text text-anchor="middle" x="190" y="-250.75" font-family="Helvetica,sans-Serif" font-size="10.00">lazy</text>
</a>
</g>
</g>
<!-- dir_43e3902051112e70f748a93b64566c48&#45;&gt;dir_8b7266e503a55d0488796d9ff22e7799 -->
<g id="edge9" class="edge">
<title>dir_43e3902051112e70f748a93b64566c48&#45;&gt;dir_8b7266e503a55d0488796d9ff22e7799</title>
<g id="a_edge9"><a xlink:href="dir_000006_000024.html" target="_top">
<path fill="none" stroke="#63b8ff" d="M178.31,-300.08C180.06,-293.42 182.54,-283.99 184.77,-275.53"/>
<polygon fill="#63b8ff" stroke="#63b8ff" points="188.1,-276.63 187.25,-266.07 181.33,-274.85 188.1,-276.63"/>
</a>
</g>
<g id="a_edge9&#45;headlabel"><a xlink:href="dir_000006_000024.html" target="_top" xlink:title="4">
<text text-anchor="middle" x="190.31" y="-275.49" font-family="Helvetica,sans-Serif" font-size="10.00" fill="#63b8ff">4</text>
</a>
</g>
</g>
<!-- dir_43e3902051112e70f748a93b64566c48&#45;&gt;dir_9463e03d191b6d61661112ff0fb64dc7 -->
<g id="edge10" class="edge">
<title>dir_43e3902051112e70f748a93b64566c48&#45;&gt;dir_9463e03d191b6d61661112ff0fb64dc7</title>
<g id="a_edge10"><a xlink:href="dir_000006_000030.html" target="_top">
<path fill="none" stroke="#63b8ff" d="M188.05,-299.9C209.25,-282.98 251,-244.11 251,-200.38 251,-200.38 251,-200.38 251,-143.12 251,-101.89 212.02,-67.94 185.37,-49.54"/>
<polygon fill="#63b8ff" stroke="#63b8ff" points="187.4,-46.69 177.12,-44.1 183.54,-52.53 187.4,-46.69"/>
</a>
</g>
<g id="a_edge10&#45;headlabel"><a xlink:href="dir_000006_000030.html" target="_top" xlink:title="13">
<text text-anchor="middle" x="190.7" y="-41.59" font-family="Helvetica,sans-Serif" font-size="10.00" fill="#63b8ff">13</text>
</a>
</g>
</g>
<!-- dir_3e0ac571b2b9edbddc4070ffe47eeb4b&#45;&gt;dir_9463e03d191b6d61661112ff0fb64dc7 -->
<g id="edge12" class="edge">
<title>dir_3e0ac571b2b9edbddc4070ffe47eeb4b&#45;&gt;dir_9463e03d191b6d61661112ff0fb64dc7</title>
<g id="a_edge12"><a xlink:href="dir_000016_000030.html" target="_top">
<path fill="none" stroke="#63b8ff" d="M140.96,-79.08C144.04,-72.26 148.41,-62.56 152.29,-53.95"/>
<polygon fill="#63b8ff" stroke="#63b8ff" points="155.41,-55.54 156.33,-44.99 149.03,-52.67 155.41,-55.54"/>
</a>
</g>
<g id="a_edge12&#45;headlabel"><a xlink:href="dir_000016_000030.html" target="_top" xlink:title="5">
<text text-anchor="middle" x="157.14" y="-54.73" font-family="Helvetica,sans-Serif" font-size="10.00" fill="#63b8ff">5</text>
</a>
</g>
</g>
<!-- dir_fcdee66dcbfecc4f407f3eae0a061ebf -->
<g id="node6" class="node">
<title>dir_fcdee66dcbfecc4f407f3eae0a061ebf</title>
<g id="a_node6"><a xlink:href="dir_fcdee66dcbfecc4f407f3eae0a061ebf.html" target="_top" xlink:title="fault">
<polygon fill="#4ea9ff" stroke="#404040" points="99.38,-319.5 64.62,-319.5 64.62,-300.25 99.38,-300.25 99.38,-319.5"/>
<text text-anchor="middle" x="82" y="-306" font-family="Helvetica,sans-Serif" font-size="10.00">fault</text>
</a>
</g>
</g>
<!-- dir_8b7266e503a55d0488796d9ff22e7799&#45;&gt;dir_b9c60d6ac2345286a03f7e9bdef04560 -->
<g id="edge16" class="edge">
<title>dir_8b7266e503a55d0488796d9ff22e7799&#45;&gt;dir_b9c60d6ac2345286a03f7e9bdef04560</title>
<g id="a_edge16"><a xlink:href="dir_000024_000000.html" target="_top">
<path fill="none" stroke="#63b8ff" d="M184.22,-244.83C179.59,-237.78 172.93,-227.65 167.13,-218.83"/>
<polygon fill="#63b8ff" stroke="#63b8ff" points="170.15,-217.06 161.74,-210.62 164.3,-220.9 170.15,-217.06"/>
</a>
</g>
<g id="a_edge16&#45;headlabel"><a xlink:href="dir_000024_000000.html" target="_top" xlink:title="2">
<text text-anchor="middle" x="173.67" y="-213.36" font-family="Helvetica,sans-Serif" font-size="10.00" fill="#63b8ff">2</text>
</a>
</g>
</g>
<!-- dir_8b7266e503a55d0488796d9ff22e7799&#45;&gt;dir_4063a9e34a1302ac947dfe60cb383789 -->
<g id="edge14" class="edge">
<title>dir_8b7266e503a55d0488796d9ff22e7799&#45;&gt;dir_4063a9e34a1302ac947dfe60cb383789</title>
<g id="a_edge14"><a xlink:href="dir_000024_000002.html" target="_top">
<path fill="none" stroke="#63b8ff" d="M190.08,-244.75C190.24,-227.5 190.59,-189.08 190.81,-165.31"/>
<polygon fill="#63b8ff" stroke="#63b8ff" points="194.31,-165.67 190.9,-155.64 187.31,-165.61 194.31,-165.67"/>
</a>
</g>
<g id="a_edge14&#45;headlabel"><a xlink:href="dir_000024_000002.html" target="_top" xlink:title="1">
<text text-anchor="middle" x="197.13" y="-163.9" font-family="Helvetica,sans-Serif" font-size="10.00" fill="#63b8ff">1</text>
</a>
</g>
</g>
<!-- dir_8b7266e503a55d0488796d9ff22e7799&#45;&gt;dir_3e0ac571b2b9edbddc4070ffe47eeb4b -->
<g id="edge13" class="edge">
<title>dir_8b7266e503a55d0488796d9ff22e7799&#45;&gt;dir_3e0ac571b2b9edbddc4070ffe47eeb4b</title>
<g id="a_edge13"><a xlink:href="dir_000024_000016.html" target="_top">
<path fill="none" stroke="#63b8ff" d="M173.31,-246.74C158.62,-239.67 138.2,-227.14 129,-209 112.87,-177.22 122.02,-134.39 129.76,-109.69"/>
<polygon fill="#63b8ff" stroke="#63b8ff" points="133.05,-110.89 132.95,-100.3 126.42,-108.64 133.05,-110.89"/>
</a>
</g>
<g id="a_edge13&#45;headlabel"><a xlink:href="dir_000024_000016.html" target="_top" xlink:title="2">
<text text-anchor="middle" x="135.07" y="-109.9" font-family="Helvetica,sans-Serif" font-size="10.00" fill="#63b8ff">2</text>
</a>
</g>
</g>
<!-- dir_8b7266e503a55d0488796d9ff22e7799&#45;&gt;dir_9463e03d191b6d61661112ff0fb64dc7 -->
<g id="edge15" class="edge">
<title>dir_8b7266e503a55d0488796d9ff22e7799&#45;&gt;dir_9463e03d191b6d61661112ff0fb64dc7</title>
<g id="a_edge15"><a xlink:href="dir_000024_000030.html" target="_top">
<path fill="none" stroke="#63b8ff" d="M195.62,-244.63C207.33,-224.73 232.36,-175.48 221,-134.5 212.3,-103.11 190.8,-71.68 176.05,-52.69"/>
<polygon fill="#63b8ff" stroke="#63b8ff" points="178.79,-50.53 169.81,-44.91 173.33,-54.9 178.79,-50.53"/>
</a>
</g>
<g id="a_edge15&#45;headlabel"><a xlink:href="dir_000024_000030.html" target="_top" xlink:title="2">
<text text-anchor="middle" x="182.31" y="-46.5" font-family="Helvetica,sans-Serif" font-size="10.00" fill="#63b8ff">2</text>
</a>
</g>
</g>
<!-- dir_fffaff2cbb25f4ba1a96bd122b2d5072 -->
<g id="node8" class="node">
<title>dir_fffaff2cbb25f4ba1a96bd122b2d5072</title>
<g id="a_node8"><a xlink:href="dir_fffaff2cbb25f4ba1a96bd122b2d5072.html" target="_top" xlink:title="runtime">
<polygon fill="#4ea9ff" stroke="#404040" points="92.12,-153.75 43.88,-153.75 43.88,-134.5 92.12,-134.5 92.12,-153.75"/>
<text text-anchor="middle" x="68" y="-140.25" font-family="Helvetica,sans-Serif" font-size="10.00">runtime</text>
</a>
</g>
</g>
<!-- dir_fffaff2cbb25f4ba1a96bd122b2d5072&#45;&gt;dir_3e0ac571b2b9edbddc4070ffe47eeb4b -->
<g id="edge17" class="edge">
<title>dir_fffaff2cbb25f4ba1a96bd122b2d5072&#45;&gt;dir_3e0ac571b2b9edbddc4070ffe47eeb4b</title>
<g id="a_edge17"><a xlink:href="dir_000026_000016.html" target="_top">
<path fill="none" stroke="#63b8ff" d="M79.7,-134.09C89.78,-126.32 104.54,-114.92 116.56,-105.65"/>
<polygon fill="#63b8ff" stroke="#63b8ff" points="118.49,-108.58 124.27,-99.7 114.21,-103.04 118.49,-108.58"/>
</a>
</g>
<g id="a_edge17&#45;headlabel"><a xlink:href="dir_000026_000016.html" target="_top" xlink:title="2">
<text text-anchor="middle" x="118.58" y="-108.22" font-family="Helvetica,sans-Serif" font-size="10.00" fill="#63b8ff">2</text>
</a>
</g>
</g>
<!-- dir_fffaff2cbb25f4ba1a96bd122b2d5072&#45;&gt;dir_9463e03d191b6d61661112ff0fb64dc7 -->
<g id="edge18" class="edge">
<title>dir_fffaff2cbb25f4ba1a96bd122b2d5072&#45;&gt;dir_9463e03d191b6d61661112ff0fb64dc7</title>
<g id="a_edge18"><a xlink:href="dir_000026_000030.html" target="_top">
<path fill="none" stroke="#63b8ff" d="M73.56,-134.01C81.57,-121.21 97.12,-97.44 113,-79.25 121.76,-69.22 132.53,-59.04 141.66,-50.94"/>
<polygon fill="#63b8ff" stroke="#63b8ff" points="143.69,-53.8 148.95,-44.6 139.11,-48.52 143.69,-53.8"/>
</a>
</g>
<g id="a_edge18&#45;headlabel"><a xlink:href="dir_000026_000030.html" target="_top" xlink:title="1">
<text text-anchor="middle" x="143.99" y="-53.44" font-family="Helvetica,sans-Serif" font-size="10.00" fill="#63b8ff">1</text>
</a>
</g>
</g>
</g>
</svg>
