<?xml version="1.0" encoding="UTF-8" standalone="no"?>
<!DOCTYPE svg PUBLIC "-//W3C//DTD SVG 1.1//EN"
 "http://www.w3.org/Graphics/SVG/1.1/DTD/svg11.dtd">
<!-- Generated by graphviz version 3.0.0 (20221109.1736)
 -->
<!-- Title: include/yaclib/coro Pages: 1 -->
<svg width="382pt" height="247pt"
 viewBox="0.00 0.00 382.00 247.00" xmlns="http://www.w3.org/2000/svg" xmlns:xlink="http://www.w3.org/1999/xlink">
<g id="graph0" class="graph" transform="scale(1 1) rotate(0) translate(4 243)">
<title>include/yaclib/coro</title>
<g id="clust1" class="cluster">
<title>clusterdir_5202e9473254619c80971b7f5a23629e</title>
<g id="a_clust1"><a xlink:href="dir_5202e9473254619c80971b7f5a23629e.html" target="_top" xlink:title="yaclib">
<polygon fill="#daedff" stroke="#7f7f7f" stroke-dasharray="5,2" points="8,-8 8,-231 366,-231 366,-8 8,-8"/>
<text text-anchor="middle" x="187" y="-219" font-family="Helvetica,sans-Serif" font-size="10.00">yaclib</text>
</a>
</g>
</g>
<g id="clust2" class="cluster">
<title>clusterdir_43e3902051112e70f748a93b64566c48</title>
<g id="a_clust2"><a xlink:href="dir_43e3902051112e70f748a93b64566c48.html" target="_top">
<polygon fill="#daedff" stroke="#404040" stroke-width="2" points="152,-80 152,-204 222,-204 222,-80 152,-80"/>
</a>
</g>
</g>
<!-- dir_3e0ac571b2b9edbddc4070ffe47eeb4b -->
<g id="node1" class="node">
<title>dir_3e0ac571b2b9edbddc4070ffe47eeb4b</title>
<g id="a_node1"><a xlink:href="dir_3e0ac571b2b9edbddc4070ffe47eeb4b.html" target="_top" xlink:title="exe">
<polygon fill="#4ea9ff" stroke="red" points="70,-52 16,-52 16,-16 70,-16 70,-52"/>
<text text-anchor="middle" x="43" y="-31.5" font-family="Helvetica,sans-Serif" font-size="10.00">exe</text>
</a>
</g>
</g>
<!-- dir_4063a9e34a1302ac947dfe60cb383789 -->
<g id="node2" class="node">
<title>dir_4063a9e34a1302ac947dfe60cb383789</title>
<g id="a_node2"><a xlink:href="dir_4063a9e34a1302ac947dfe60cb383789.html" target="_top" xlink:title="async">
<polygon fill="#4ea9ff" stroke="red" points="142,-52 88,-52 88,-16 142,-16 142,-52"/>
<text text-anchor="middle" x="115" y="-31.5" font-family="Helvetica,sans-Serif" font-size="10.00">async</text>
</a>
</g>
</g>
<!-- dir_8b7266e503a55d0488796d9ff22e7799 -->
<g id="node3" class="node">
<title>dir_8b7266e503a55d0488796d9ff22e7799</title>
<g id="a_node3"><a xlink:href="dir_8b7266e503a55d0488796d9ff22e7799.html" target="_top" xlink:title="lazy">
<polygon fill="#4ea9ff" stroke="red" points="286,-52 232,-52 232,-16 286,-16 286,-52"/>
<text text-anchor="middle" x="259" y="-31.5" font-family="Helvetica,sans-Serif" font-size="10.00">lazy</text>
</a>
</g>
</g>
<!-- dir_9463e03d191b6d61661112ff0fb64dc7 -->
<g id="node4" class="node">
<title>dir_9463e03d191b6d61661112ff0fb64dc7</title>
<g id="a_node4"><a xlink:href="dir_9463e03d191b6d61661112ff0fb64dc7.html" target="_top" xlink:title="util">
<polygon fill="#4ea9ff" stroke="red" points="358,-52 304,-52 304,-16 358,-16 358,-52"/>
<text text-anchor="middle" x="331" y="-31.5" font-family="Helvetica,sans-Serif" font-size="10.00">util</text>
</a>
</g>
</g>
<!-- dir_b9c60d6ac2345286a03f7e9bdef04560 -->
<g id="node5" class="node">
<title>dir_b9c60d6ac2345286a03f7e9bdef04560</title>
<g id="a_node5"><a xlink:href="dir_b9c60d6ac2345286a03f7e9bdef04560.html" target="_top" xlink:title="algo">
<polygon fill="#4ea9ff" stroke="red" points="214,-52 160,-52 160,-16 214,-16 214,-52"/>
<text text-anchor="middle" x="187" y="-31.5" font-family="Helvetica,sans-Serif" font-size="10.00">algo</text>
</a>
</g>
</g>
<!-- dir_43e3902051112e70f748a93b64566c48 -->
<g id="node6" class="node">
<title>dir_43e3902051112e70f748a93b64566c48</title>
<text text-anchor="middle" x="187" y="-175.5" font-family="Helvetica,sans-Serif" font-size="10.00">coro</text>
</g>
<!-- dir_43e3902051112e70f748a93b64566c48&#45;&gt;dir_3e0ac571b2b9edbddc4070ffe47eeb4b -->
<g id="edge1" class="edge">
<title>dir_43e3902051112e70f748a93b64566c48&#45;&gt;dir_3e0ac571b2b9edbddc4070ffe47eeb4b</title>
<path fill="none" stroke="black" d="M166.59,-159.78C154.79,-149.62 139.79,-136.37 127,-124 105.42,-103.12 82.06,-78.16 65.47,-60"/>
<polygon fill="black" stroke="black" points="67.67,-57.21 58.35,-52.17 62.49,-61.92 67.67,-57.21"/>
<g id="a_edge1&#45;headlabel"><a xlink:href="dir_000006_000017.html" target="_top" xlink:title="7">
<text text-anchor="middle" x="72.18" y="-55.46" font-family="Helvetica,sans-Serif" font-size="10.00">7</text>
</a>
</g>
</g>
<!-- dir_43e3902051112e70f748a93b64566c48&#45;&gt;dir_4063a9e34a1302ac947dfe60cb383789 -->
<g id="edge2" class="edge">
<title>dir_43e3902051112e70f748a93b64566c48&#45;&gt;dir_4063a9e34a1302ac947dfe60cb383789</title>
<path fill="none" stroke="black" d="M174.03,-159.92C166.71,-149.81 157.71,-136.56 151,-124 140.25,-103.87 130.7,-79.82 124.15,-61.8"/>
<polygon fill="black" stroke="black" points="127.39,-60.46 120.73,-52.21 120.79,-62.81 127.39,-60.46"/>
<g id="a_edge2&#45;headlabel"><a xlink:href="dir_000006_000002.html" target="_top" xlink:title="5">
<text text-anchor="middle" x="131.27" y="-60.4" font-family="Helvetica,sans-Serif" font-size="10.00">5</text>
</a>
</g>
</g>
<!-- dir_43e3902051112e70f748a93b64566c48&#45;&gt;dir_8b7266e503a55d0488796d9ff22e7799 -->
<g id="edge3" class="edge">
<title>dir_43e3902051112e70f748a93b64566c48&#45;&gt;dir_8b7266e503a55d0488796d9ff22e7799</title>
<path fill="none" stroke="black" d="M199.97,-159.92C207.29,-149.81 216.29,-136.56 223,-124 233.75,-103.87 243.3,-79.82 249.85,-61.8"/>
<polygon fill="black" stroke="black" points="253.21,-62.81 253.27,-52.21 246.61,-60.46 253.21,-62.81"/>
<g id="a_edge3&#45;headlabel"><a xlink:href="dir_000006_000025.html" target="_top" xlink:title="4">
<text text-anchor="middle" x="254.68" y="-64.65" font-family="Helvetica,sans-Serif" font-size="10.00">4</text>
</a>
</g>
</g>
<!-- dir_43e3902051112e70f748a93b64566c48&#45;&gt;dir_9463e03d191b6d61661112ff0fb64dc7 -->
<g id="edge4" class="edge">
<title>dir_43e3902051112e70f748a93b64566c48&#45;&gt;dir_9463e03d191b6d61661112ff0fb64dc7</title>
<path fill="none" stroke="black" d="M204.37,-159.87C229.78,-134.82 277.2,-88.05 306.25,-59.41"/>
<polygon fill="black" stroke="black" points="308.91,-61.7 313.57,-52.19 303.99,-56.72 308.91,-61.7"/>
<g id="a_edge4&#45;headlabel"><a xlink:href="dir_000006_000031.html" target="_top" xlink:title="12">
<text text-anchor="middle" x="308.34" y="-63.75" font-family="Helvetica,sans-Serif" font-size="10.00">12</text>
</a>
</g>
</g>
<!-- dir_de2d2685ff6e0de622e21344174ace46 -->
<g id="node7" class="node">
<title>dir_de2d2685ff6e0de622e21344174ace46</title>
<g id="a_node7"><a xlink:href="dir_de2d2685ff6e0de622e21344174ace46.html" target="_top" xlink:title="detail">
<polygon fill="#4ea9ff" stroke="#404040" points="214,-124 160,-124 160,-88 214,-88 214,-124"/>
<text text-anchor="middle" x="187" y="-103.5" font-family="Helvetica,sans-Serif" font-size="10.00">detail</text>
</a>
</g>
</g>
<!-- dir_43e3902051112e70f748a93b64566c48&#45;&gt;dir_de2d2685ff6e0de622e21344174ace46 -->
<g id="edge5" class="edge">
<title>dir_43e3902051112e70f748a93b64566c48&#45;&gt;dir_de2d2685ff6e0de622e21344174ace46</title>
<path fill="none" stroke="black" d="M187,-159.7C187,-151.98 187,-142.71 187,-134.11"/>
<polygon fill="black" stroke="black" points="190.5,-134.1 187,-124.1 183.5,-134.1 190.5,-134.1"/>
<g id="a_edge5&#45;headlabel"><a xlink:href="dir_000006_000009.html" target="_top" xlink:title="11">
<text text-anchor="middle" x="193.34" y="-135.2" font-family="Helvetica,sans-Serif" font-size="10.00">11</text>
</a>
</g>
</g>
<!-- dir_de2d2685ff6e0de622e21344174ace46&#45;&gt;dir_3e0ac571b2b9edbddc4070ffe47eeb4b -->
<g id="edge6" class="edge">
<title>dir_de2d2685ff6e0de622e21344174ace46&#45;&gt;dir_3e0ac571b2b9edbddc4070ffe47eeb4b</title>
<path fill="none" stroke="black" d="M167.69,-87.83C163.96,-84.99 159.97,-82.24 156,-80 126.76,-63.5 114.56,-65.53 79.45,-51.9"/>
<polygon fill="black" stroke="black" points="80.59,-48.59 70.01,-48.08 77.96,-55.08 80.59,-48.59"/>
<g id="a_edge6&#45;headlabel"><a xlink:href="dir_000009_000017.html" target="_top" xlink:title="2">
<text text-anchor="middle" x="84.99" y="-44.81" font-family="Helvetica,sans-Serif" font-size="10.00">2</text>
</a>
</g>
</g>
<!-- dir_de2d2685ff6e0de622e21344174ace46&#45;&gt;dir_4063a9e34a1302ac947dfe60cb383789 -->
<g id="edge7" class="edge">
<title>dir_de2d2685ff6e0de622e21344174ace46&#45;&gt;dir_4063a9e34a1302ac947dfe60cb383789</title>
<path fill="none" stroke="black" d="M169.2,-87.7C160.4,-79.14 149.62,-68.66 140,-59.3"/>
<polygon fill="black" stroke="black" points="142.2,-56.57 132.59,-52.1 137.32,-61.58 142.2,-56.57"/>
<g id="a_edge7&#45;headlabel"><a xlink:href="dir_000009_000002.html" target="_top" xlink:title="2">
<text text-anchor="middle" x="146.76" y="-54.54" font-family="Helvetica,sans-Serif" font-size="10.00">2</text>
</a>
</g>
</g>
<!-- dir_de2d2685ff6e0de622e21344174ace46&#45;&gt;dir_8b7266e503a55d0488796d9ff22e7799 -->
<g id="edge8" class="edge">
<title>dir_de2d2685ff6e0de622e21344174ace46&#45;&gt;dir_8b7266e503a55d0488796d9ff22e7799</title>
<path fill="none" stroke="black" d="M204.8,-87.7C213.6,-79.14 224.38,-68.66 234,-59.3"/>
<polygon fill="black" stroke="black" points="236.68,-61.58 241.41,-52.1 231.8,-56.57 236.68,-61.58"/>
<g id="a_edge8&#45;headlabel"><a xlink:href="dir_000009_000025.html" target="_top" xlink:title="2">
<text text-anchor="middle" x="236.08" y="-63.63" font-family="Helvetica,sans-Serif" font-size="10.00">2</text>
</a>
</g>
</g>
<!-- dir_de2d2685ff6e0de622e21344174ace46&#45;&gt;dir_9463e03d191b6d61661112ff0fb64dc7 -->
<g id="edge9" class="edge">
<title>dir_de2d2685ff6e0de622e21344174ace46&#45;&gt;dir_9463e03d191b6d61661112ff0fb64dc7</title>
<path fill="none" stroke="black" d="M206.31,-87.83C210.04,-84.99 214.03,-82.24 218,-80 247.24,-63.5 259.44,-65.53 294.55,-51.9"/>
<polygon fill="black" stroke="black" points="296.04,-55.08 303.99,-48.08 293.41,-48.59 296.04,-55.08"/>
<g id="a_edge9&#45;headlabel"><a xlink:href="dir_000009_000031.html" target="_top" xlink:title="7">
<text text-anchor="middle" x="293.77" y="-56.56" font-family="Helvetica,sans-Serif" font-size="10.00">7</text>
</a>
</g>
</g>
<!-- dir_de2d2685ff6e0de622e21344174ace46&#45;&gt;dir_b9c60d6ac2345286a03f7e9bdef04560 -->
<g id="edge10" class="edge">
<title>dir_de2d2685ff6e0de622e21344174ace46&#45;&gt;dir_b9c60d6ac2345286a03f7e9bdef04560</title>
<path fill="none" stroke="black" d="M187,-87.7C187,-79.98 187,-70.71 187,-62.11"/>
<polygon fill="black" stroke="black" points="190.5,-62.1 187,-52.1 183.5,-62.1 190.5,-62.1"/>
<g id="a_edge10&#45;headlabel"><a xlink:href="dir_000009_000000.html" target="_top" xlink:title="1">
<text text-anchor="middle" x="193.34" y="-63.2" font-family="Helvetica,sans-Serif" font-size="10.00">1</text>
</a>
</g>
</g>
</g>
</svg>
