<?xml version="1.0" encoding="UTF-8" standalone="no"?>
<!DOCTYPE svg PUBLIC "-//W3C//DTD SVG 1.1//EN"
 "http://www.w3.org/Graphics/SVG/1.1/DTD/svg11.dtd">
<!-- Generated by graphviz version 3.0.0 (20220413.0242)
 -->
<!-- Title: test/example Pages: 1 -->
<svg width="254pt" height="159pt"
 viewBox="0.00 0.00 254.00 159.00" xmlns="http://www.w3.org/2000/svg" xmlns:xlink="http://www.w3.org/1999/xlink">
<g id="graph0" class="graph" transform="scale(1 1) rotate(0) translate(4 155)">
<title>test/example</title>
<g id="clust1" class="cluster">
<title>clusterdir_13e138d54eb8818da29c3992edef070a</title>
<g id="a_clust1"><a xlink:href="dir_13e138d54eb8818da29c3992edef070a.html" target="_top" xlink:title="test">
<polygon fill="#edf0f7" stroke="#404040" stroke-dasharray="5,2" points="8,-56 8,-143 238,-143 238,-56 8,-56"/>
<text text-anchor="middle" x="123" y="-131" font-family="Helvetica,sans-Serif" font-size="10.00">test</text>
</a>
</g>
</g>
<g id="clust2" class="cluster">
<title>clusterdir_c19ca5e3756d7ba8846e9abf743f6090</title>
<g id="a_clust2"><a xlink:href="dir_c19ca5e3756d7ba8846e9abf743f6090.html" target="_top">
<polygon fill="#edf0f7" stroke="#404040" stroke-width="2" points="16,-64 16,-116 230,-116 230,-64 16,-64"/>
</a>
</g>
</g>
<!-- dir_c19ca5e3756d7ba8846e9abf743f6090 -->
<g id="node1" class="node">
<title>dir_c19ca5e3756d7ba8846e9abf743f6090</title>
<text text-anchor="middle" x="195" y="-87.5" font-family="Helvetica,sans-Serif" font-size="10.00">example</text>
</g>
<!-- dir_17cd152e3c1d3007e36290037c947489 -->
<g id="node2" class="node">
<title>dir_17cd152e3c1d3007e36290037c947489</title>
<g id="a_node2"><a xlink:href="dir_17cd152e3c1d3007e36290037c947489.html" target="_top" xlink:title="async">
<polygon fill="#a2b4d6" stroke="#404040" points="150,-108 96,-108 96,-72 150,-72 150,-108"/>
<text text-anchor="middle" x="123" y="-87.5" font-family="Helvetica,sans-Serif" font-size="10.00">async</text>
</a>
</g>
</g>
<!-- dir_d44c64559bbebec7f509842c48db8b23 -->
<g id="node4" class="node">
<title>dir_d44c64559bbebec7f509842c48db8b23</title>
<g id="a_node4"><a xlink:href="dir_d44c64559bbebec7f509842c48db8b23.html" target="_top" xlink:title="include">
<polygon fill="none" stroke="red" points="114,-36 60,-36 60,0 114,0 114,-36"/>
<text text-anchor="middle" x="87" y="-15.5" font-family="Helvetica,sans-Serif" font-size="10.00">include</text>
</a>
</g>
</g>
<!-- dir_17cd152e3c1d3007e36290037c947489&#45;&gt;dir_d44c64559bbebec7f509842c48db8b23 -->
<g id="edge1" class="edge">
<title>dir_17cd152e3c1d3007e36290037c947489&#45;&gt;dir_d44c64559bbebec7f509842c48db8b23</title>
<path fill="none" stroke="black" d="M114.1,-71.7C110,-63.73 105.05,-54.1 100.51,-45.26"/>
<polygon fill="black" stroke="black" points="103.48,-43.4 95.8,-36.1 97.26,-46.6 103.48,-43.4"/>
<g id="a_edge1&#45;headlabel"><a xlink:href="dir_000004_000024.html" target="_top" xlink:title="19">
<text text-anchor="middle" x="107.65" y="-42.79" font-family="Helvetica,sans-Serif" font-size="10.00">19</text>
</a>
</g>
</g>
<!-- dir_d2a20d23ec6562707446ab7f3eb65803 -->
<g id="node3" class="node">
<title>dir_d2a20d23ec6562707446ab7f3eb65803</title>
<g id="a_node3"><a xlink:href="dir_d2a20d23ec6562707446ab7f3eb65803.html" target="_top" xlink:title="executor">
<polygon fill="#a2b4d6" stroke="#404040" points="78,-108 24,-108 24,-72 78,-72 78,-108"/>
<text text-anchor="middle" x="51" y="-87.5" font-family="Helvetica,sans-Serif" font-size="10.00">executor</text>
</a>
</g>
</g>
<!-- dir_d2a20d23ec6562707446ab7f3eb65803&#45;&gt;dir_d44c64559bbebec7f509842c48db8b23 -->
<g id="edge2" class="edge">
<title>dir_d2a20d23ec6562707446ab7f3eb65803&#45;&gt;dir_d44c64559bbebec7f509842c48db8b23</title>
<path fill="none" stroke="black" d="M59.9,-71.7C64,-63.73 68.95,-54.1 73.49,-45.26"/>
<polygon fill="black" stroke="black" points="76.74,-46.6 78.2,-36.1 70.52,-43.4 76.74,-46.6"/>
<g id="a_edge2&#45;headlabel"><a xlink:href="dir_000019_000024.html" target="_top" xlink:title="8">
<text text-anchor="middle" x="77.62" y="-48.59" font-family="Helvetica,sans-Serif" font-size="10.00">8</text>
</a>
</g>
</g>
</g>
</svg>
