<?xml version="1.0" encoding="UTF-8" standalone="no"?>
<!DOCTYPE svg PUBLIC "-//W3C//DTD SVG 1.1//EN"
 "http://www.w3.org/Graphics/SVG/1.1/DTD/svg11.dtd">
<!-- Generated by graphviz version 9.0.0 (20230911.1827)
 -->
<!-- Title: src/algo/drop_core.cpp Pages: 1 -->
<svg width="1247pt" height="725pt"
 viewBox="0.00 0.00 1247.00 725.00" xmlns="http://www.w3.org/2000/svg" xmlns:xlink="http://www.w3.org/1999/xlink">
<g id="graph0" class="graph" transform="scale(1 1) rotate(0) translate(4 721)">
<title>src/algo/drop_core.cpp</title>
<!-- Node1 -->
<g id="Node000001" class="node">
<title>Node1</title>
<g id="a_Node000001"><a xlink:title=" ">
<polygon fill="#999999" stroke="#666666" points="579.12,-717 464.88,-717 464.88,-697.75 579.12,-697.75 579.12,-717"/>
<text text-anchor="middle" x="522" y="-703.5" font-family="Helvetica,sans-Serif" font-size="10.00">src/algo/drop_core.cpp</text>
</a>
</g>
</g>
<!-- Node2 -->
<g id="Node000002" class="node">
<title>Node2</title>
<g id="a_Node000002"><a xlink:href="core_8hpp.html" target="_top" xlink:title=" ">
<polygon fill="white" stroke="#666666" points="731,-661.75 643,-661.75 643,-631.25 731,-631.25 731,-661.75"/>
<text text-anchor="start" x="651" y="-648.25" font-family="Helvetica,sans-Serif" font-size="10.00">yaclib/algo/detail</text>
<text text-anchor="middle" x="687" y="-637" font-family="Helvetica,sans-Serif" font-size="10.00">/core.hpp</text>
</a>
</g>
</g>
<!-- Node1&#45;&gt;Node2 -->
<g id="edge1_Node000001_Node000002" class="edge">
<title>Node1&#45;&gt;Node2</title>
<g id="a_edge1_Node000001_Node000002"><a xlink:title=" ">
<path fill="none" stroke="#63b8ff" d="M547.42,-697.3C570.77,-688.97 606.08,-676.37 635.34,-665.93"/>
<polygon fill="#63b8ff" stroke="#63b8ff" points="636.15,-669.36 644.39,-662.7 633.8,-662.77 636.15,-669.36"/>
</a>
</g>
</g>
<!-- Node8 -->
<g id="Node000008" class="node">
<title>Node8</title>
<g id="a_Node000008"><a xlink:href="result__core_8hpp.html" target="_top" xlink:title=" ">
<polygon fill="white" stroke="#666666" points="529,-528.75 441,-528.75 441,-498.25 529,-498.25 529,-528.75"/>
<text text-anchor="start" x="449" y="-515.25" font-family="Helvetica,sans-Serif" font-size="10.00">yaclib/algo/detail</text>
<text text-anchor="middle" x="485" y="-504" font-family="Helvetica,sans-Serif" font-size="10.00">/result_core.hpp</text>
</a>
</g>
</g>
<!-- Node1&#45;&gt;Node8 -->
<g id="edge71_Node000001_Node000008" class="edge">
<title>Node1&#45;&gt;Node8</title>
<g id="a_edge71_Node000001_Node000008"><a xlink:title=" ">
<path fill="none" stroke="#63b8ff" d="M504.23,-697.38C474.97,-681.44 417.64,-645.14 395,-595.25 389.4,-582.91 388.14,-576.44 395,-564.75 403.09,-550.97 416.49,-540.68 430.51,-533.14"/>
<polygon fill="#63b8ff" stroke="#63b8ff" points="431.97,-536.32 439.41,-528.78 428.89,-530.04 431.97,-536.32"/>
</a>
</g>
</g>
<!-- Node3 -->
<g id="Node000003" class="node">
<title>Node3</title>
<g id="a_Node000003"><a xlink:href="func__core_8hpp.html" target="_top" xlink:title=" ">
<polygon fill="white" stroke="#666666" points="544,-340.5 456,-340.5 456,-310 544,-310 544,-340.5"/>
<text text-anchor="start" x="464" y="-327" font-family="Helvetica,sans-Serif" font-size="10.00">yaclib/algo/detail</text>
<text text-anchor="middle" x="500" y="-315.75" font-family="Helvetica,sans-Serif" font-size="10.00">/func_core.hpp</text>
</a>
</g>
</g>
<!-- Node2&#45;&gt;Node3 -->
<g id="edge2_Node000002_Node000003" class="edge">
<title>Node2&#45;&gt;Node3</title>
<g id="a_edge2_Node000002_Node000003"><a xlink:title=" ">
<path fill="none" stroke="#63b8ff" d="M682.1,-630.85C676.01,-613.91 664.48,-585.68 649,-564.75 584.12,-477.05 512.17,-496.77 471,-395.75 464.77,-380.45 471.75,-363.33 480.42,-349.91"/>
<polygon fill="#63b8ff" stroke="#63b8ff" points="483.03,-352.27 485.99,-342.1 477.33,-348.21 483.03,-352.27"/>
</a>
</g>
</g>
<!-- Node4 -->
<g id="Node000004" class="node">
<title>Node4</title>
<g id="a_Node000004"><a xlink:title=" ">
<polygon fill="#e0e0e0" stroke="#999999" points="906.62,-268.38 819.38,-268.38 819.38,-249.12 906.62,-249.12 906.62,-268.38"/>
<text text-anchor="middle" x="863" y="-254.88" font-family="Helvetica,sans-Serif" font-size="10.00">yaclib/config.hpp</text>
</a>
</g>
</g>
<!-- Node2&#45;&gt;Node4 -->
<g id="edge56_Node000002_Node000004" class="edge">
<title>Node2&#45;&gt;Node4</title>
<g id="a_edge56_Node000002_Node000004"><a xlink:title=" ">
<path fill="none" stroke="#63b8ff" d="M731.11,-637.19C790.28,-623.21 888,-588.85 888,-514.5 888,-514.5 888,-514.5 888,-385.12 888,-347.15 876.83,-303.93 869.43,-279.44"/>
<polygon fill="#63b8ff" stroke="#63b8ff" points="872.86,-278.69 866.52,-270.19 866.18,-280.78 872.86,-278.69"/>
</a>
</g>
</g>
<!-- Node2&#45;&gt;Node8 -->
<g id="edge7_Node000002_Node000008" class="edge">
<title>Node2&#45;&gt;Node8</title>
<g id="a_edge7_Node000002_Node000008"><a xlink:title=" ">
<path fill="none" stroke="#63b8ff" d="M642.67,-637.85C611.78,-630.81 570.92,-617.9 541,-595.25 521.53,-580.51 506.33,-557.02 496.71,-539.16"/>
<polygon fill="#63b8ff" stroke="#63b8ff" points="499.94,-537.8 492.27,-530.5 493.72,-541 499.94,-537.8"/>
</a>
</g>
</g>
<!-- Node27 -->
<g id="Node000027" class="node">
<title>Node27</title>
<g id="a_Node000027"><a xlink:href="cast_8hpp.html" target="_top" xlink:title=" ">
<polygon fill="white" stroke="#666666" points="754.12,-456.62 657.88,-456.62 657.88,-437.38 754.12,-437.38 754.12,-456.62"/>
<text text-anchor="middle" x="706" y="-443.12" font-family="Helvetica,sans-Serif" font-size="10.00">yaclib/util/cast.hpp</text>
</a>
</g>
</g>
<!-- Node2&#45;&gt;Node27 -->
<g id="edge57_Node000002_Node000027" class="edge">
<title>Node2&#45;&gt;Node27</title>
<g id="a_edge57_Node000002_Node000027"><a xlink:title=" ">
<path fill="none" stroke="#63b8ff" d="M688.4,-630.98C691.75,-596.17 700.24,-507.91 704.07,-468.06"/>
<polygon fill="#63b8ff" stroke="#63b8ff" points="707.54,-468.55 705.01,-458.26 700.57,-467.88 707.54,-468.55"/>
</a>
</g>
</g>
<!-- Node31 -->
<g id="Node000031" class="node">
<title>Node31</title>
<g id="a_Node000031"><a xlink:href="shared__core_8hpp.html" target="_top" xlink:title=" ">
<polygon fill="white" stroke="#666666" points="640.12,-595.25 549.88,-595.25 549.88,-564.75 640.12,-564.75 640.12,-595.25"/>
<text text-anchor="start" x="557.88" y="-581.75" font-family="Helvetica,sans-Serif" font-size="10.00">yaclib/algo/detail</text>
<text text-anchor="middle" x="595" y="-570.5" font-family="Helvetica,sans-Serif" font-size="10.00">/shared_core.hpp</text>
</a>
</g>
</g>
<!-- Node2&#45;&gt;Node31 -->
<g id="edge52_Node000002_Node000031" class="edge">
<title>Node2&#45;&gt;Node31</title>
<g id="a_edge52_Node000002_Node000031"><a xlink:title=" ">
<path fill="none" stroke="#63b8ff" d="M666.12,-630.86C654.01,-622.37 638.54,-611.52 625.12,-602.12"/>
<polygon fill="#63b8ff" stroke="#63b8ff" points="627.23,-599.32 617.03,-596.45 623.21,-605.05 627.23,-599.32"/>
</a>
</g>
</g>
<!-- Node32 -->
<g id="Node000032" class="node">
<title>Node32</title>
<g id="a_Node000032"><a xlink:href="unique__core_8hpp.html" target="_top" xlink:title=" ">
<polygon fill="white" stroke="#666666" points="493.75,-595.25 404.25,-595.25 404.25,-564.75 493.75,-564.75 493.75,-595.25"/>
<text text-anchor="start" x="412.25" y="-581.75" font-family="Helvetica,sans-Serif" font-size="10.00">yaclib/algo/detail</text>
<text text-anchor="middle" x="449" y="-570.5" font-family="Helvetica,sans-Serif" font-size="10.00">/unique_core.hpp</text>
</a>
</g>
</g>
<!-- Node2&#45;&gt;Node32 -->
<g id="edge54_Node000002_Node000032" class="edge">
<title>Node2&#45;&gt;Node32</title>
<g id="a_edge54_Node000002_Node000032"><a xlink:title=" ">
<path fill="none" stroke="#63b8ff" d="M642.51,-633.44C603.61,-622.9 546.93,-607.54 504.95,-596.16"/>
<polygon fill="#63b8ff" stroke="#63b8ff" points="506.11,-592.85 495.54,-593.61 504.27,-599.61 506.11,-592.85"/>
</a>
</g>
</g>
<!-- Node33 -->
<g id="Node000033" class="node">
<title>Node33</title>
<g id="a_Node000033"><a xlink:href="atomic__counter_8hpp.html" target="_top" xlink:title=" ">
<polygon fill="white" stroke="#666666" points="1019.88,-340.5 916.12,-340.5 916.12,-310 1019.88,-310 1019.88,-340.5"/>
<text text-anchor="start" x="924.12" y="-327" font-family="Helvetica,sans-Serif" font-size="10.00">yaclib/util/detail</text>
<text text-anchor="middle" x="968" y="-315.75" font-family="Helvetica,sans-Serif" font-size="10.00">/atomic_counter.hpp</text>
</a>
</g>
</g>
<!-- Node2&#45;&gt;Node33 -->
<g id="edge58_Node000002_Node000033" class="edge">
<title>Node2&#45;&gt;Node33</title>
<g id="a_edge58_Node000002_Node000033"><a xlink:title=" ">
<path fill="none" stroke="#63b8ff" d="M731.32,-645.34C778.14,-643.01 851.96,-632.98 902,-595.25 934.81,-570.52 947,-555.59 947,-514.5 947,-514.5 947,-514.5 947,-446 947,-413.14 954.77,-375.95 960.85,-351.86"/>
<polygon fill="#63b8ff" stroke="#63b8ff" points="964.21,-352.88 963.37,-342.32 957.44,-351.1 964.21,-352.88"/>
</a>
</g>
</g>
<!-- Node35 -->
<g id="Node000035" class="node">
<title>Node35</title>
<g id="a_Node000035"><a xlink:href="unique__counter_8hpp.html" target="_top" xlink:title=" ">
<polygon fill="white" stroke="#666666" points="1179.5,-340.5 1076.5,-340.5 1076.5,-310 1179.5,-310 1179.5,-340.5"/>
<text text-anchor="start" x="1084.5" y="-327" font-family="Helvetica,sans-Serif" font-size="10.00">yaclib/util/detail</text>
<text text-anchor="middle" x="1128" y="-315.75" font-family="Helvetica,sans-Serif" font-size="10.00">/unique_counter.hpp</text>
</a>
</g>
</g>
<!-- Node2&#45;&gt;Node35 -->
<g id="edge64_Node000002_Node000035" class="edge">
<title>Node2&#45;&gt;Node35</title>
<g id="a_edge64_Node000002_Node000035"><a xlink:title=" ">
<path fill="none" stroke="#63b8ff" d="M731.3,-641.84C843.14,-631.38 1128,-596.67 1128,-514.5 1128,-514.5 1128,-514.5 1128,-446 1128,-413.78 1128,-376.68 1128,-352.42"/>
<polygon fill="#63b8ff" stroke="#63b8ff" points="1131.5,-352.51 1128,-342.51 1124.5,-352.51 1131.5,-352.51"/>
</a>
</g>
</g>
<!-- Node36 -->
<g id="Node000036" class="node">
<title>Node36</title>
<g id="a_Node000036"><a xlink:href="helper_8hpp.html" target="_top" xlink:title=" ">
<polygon fill="white" stroke="#666666" points="1099.88,-395.75 996.12,-395.75 996.12,-376.5 1099.88,-376.5 1099.88,-395.75"/>
<text text-anchor="middle" x="1048" y="-382.25" font-family="Helvetica,sans-Serif" font-size="10.00">yaclib/util/helper.hpp</text>
</a>
</g>
</g>
<!-- Node2&#45;&gt;Node36 -->
<g id="edge66_Node000002_Node000036" class="edge">
<title>Node2&#45;&gt;Node36</title>
<g id="a_edge66_Node000002_Node000036"><a xlink:title=" ">
<path fill="none" stroke="#63b8ff" d="M731.33,-642.46C799.62,-636.95 926.3,-623.2 961,-595.25 1021.12,-546.82 1040.24,-449.56 1045.85,-407.39"/>
<polygon fill="#63b8ff" stroke="#63b8ff" points="1049.33,-407.83 1047.03,-397.48 1042.37,-407 1049.33,-407.83"/>
</a>
</g>
</g>
<!-- Node3&#45;&gt;Node4 -->
<g id="edge3_Node000003_Node000004" class="edge">
<title>Node3&#45;&gt;Node4</title>
<g id="a_edge3_Node000003_Node000004"><a xlink:title=" ">
<path fill="none" stroke="#63b8ff" d="M544.45,-311.95C547.34,-311.26 550.21,-310.6 553,-310 641.57,-290.97 745.76,-275.47 807.98,-266.94"/>
<polygon fill="#63b8ff" stroke="#63b8ff" points="808.16,-270.45 817.6,-265.63 807.22,-263.51 808.16,-270.45"/>
</a>
</g>
</g>
<!-- Node5 -->
<g id="Node000005" class="node">
<title>Node5</title>
<g id="a_Node000005"><a xlink:href="fwd_8hpp.html" target="_top" xlink:title=" ">
<polygon fill="white" stroke="#666666" points="357.75,-268.38 280.25,-268.38 280.25,-249.12 357.75,-249.12 357.75,-268.38"/>
<text text-anchor="middle" x="319" y="-254.88" font-family="Helvetica,sans-Serif" font-size="10.00">yaclib/fwd.hpp</text>
</a>
</g>
</g>
<!-- Node3&#45;&gt;Node5 -->
<g id="edge4_Node000003_Node000005" class="edge">
<title>Node3&#45;&gt;Node5</title>
<g id="a_edge4_Node000003_Node000005"><a xlink:title=" ">
<path fill="none" stroke="#63b8ff" d="M458.93,-309.61C427.76,-298.51 385.31,-283.38 355.36,-272.71"/>
<polygon fill="#63b8ff" stroke="#63b8ff" points="356.57,-269.42 345.97,-269.36 354.22,-276.02 356.57,-269.42"/>
</a>
</g>
</g>
<!-- Node6 -->
<g id="Node000006" class="node">
<title>Node6</title>
<g id="a_Node000006"><a xlink:title=" ">
<polygon fill="#e0e0e0" stroke="#999999" points="669.5,-135.38 608.5,-135.38 608.5,-116.12 669.5,-116.12 669.5,-135.38"/>
<text text-anchor="middle" x="639" y="-121.88" font-family="Helvetica,sans-Serif" font-size="10.00">type_traits</text>
</a>
</g>
</g>
<!-- Node3&#45;&gt;Node6 -->
<g id="edge5_Node000003_Node000006" class="edge">
<title>Node3&#45;&gt;Node6</title>
<g id="a_edge5_Node000003_Node000006"><a xlink:title=" ">
<path fill="none" stroke="#63b8ff" d="M544.19,-311.37C589.07,-298.09 652.48,-278.68 656,-274 684.52,-236.06 663.12,-176.36 648.93,-145.94"/>
<polygon fill="#63b8ff" stroke="#63b8ff" points="652.18,-144.62 644.63,-137.19 645.89,-147.7 652.18,-144.62"/>
</a>
</g>
</g>
<!-- Node7 -->
<g id="Node000007" class="node">
<title>Node7</title>
<g id="a_Node000007"><a xlink:title=" ">
<polygon fill="#e0e0e0" stroke="#999999" points="269.25,-135.38 230.75,-135.38 230.75,-116.12 269.25,-116.12 269.25,-135.38"/>
<text text-anchor="middle" x="250" y="-121.88" font-family="Helvetica,sans-Serif" font-size="10.00">utility</text>
</a>
</g>
</g>
<!-- Node3&#45;&gt;Node7 -->
<g id="edge6_Node000003_Node000007" class="edge">
<title>Node3&#45;&gt;Node7</title>
<g id="a_edge6_Node000003_Node000007"><a xlink:title=" ">
<path fill="none" stroke="#63b8ff" d="M476.91,-309.63C444.09,-288.48 382.53,-247.5 334,-207.5 309.01,-186.9 282.42,-160.49 266.01,-143.59"/>
<polygon fill="#63b8ff" stroke="#63b8ff" points="268.93,-141.57 259.47,-136.79 263.88,-146.42 268.93,-141.57"/>
</a>
</g>
</g>
<!-- Node8&#45;&gt;Node7 -->
<g id="edge51_Node000008_Node000007" class="edge">
<title>Node8&#45;&gt;Node7</title>
<g id="a_edge51_Node000008_Node000007"><a xlink:title=" ">
<path fill="none" stroke="#63b8ff" d="M440.56,-509.9C351.4,-504.18 153.93,-488.87 92,-462.25 43.5,-441.4 0,-439.91 0,-387.12 0,-387.12 0,-387.12 0,-257.75 0,-159.96 151.94,-135.02 218.92,-128.78"/>
<polygon fill="#63b8ff" stroke="#63b8ff" points="219.2,-132.27 228.87,-127.95 218.62,-125.3 219.2,-132.27"/>
</a>
</g>
</g>
<!-- Node9 -->
<g id="Node000009" class="node">
<title>Node9</title>
<g id="a_Node000009"><a xlink:href="base__core_8hpp.html" target="_top" xlink:title=" ">
<polygon fill="white" stroke="#666666" points="633,-462.25 545,-462.25 545,-431.75 633,-431.75 633,-462.25"/>
<text text-anchor="start" x="553" y="-448.75" font-family="Helvetica,sans-Serif" font-size="10.00">yaclib/algo/detail</text>
<text text-anchor="middle" x="589" y="-437.5" font-family="Helvetica,sans-Serif" font-size="10.00">/base_core.hpp</text>
</a>
</g>
</g>
<!-- Node8&#45;&gt;Node9 -->
<g id="edge8_Node000008_Node000009" class="edge">
<title>Node8&#45;&gt;Node9</title>
<g id="a_edge8_Node000008_Node000009"><a xlink:title=" ">
<path fill="none" stroke="#63b8ff" d="M508.6,-497.86C522.56,-489.2 540.46,-478.1 555.83,-468.57"/>
<polygon fill="#63b8ff" stroke="#63b8ff" points="557.55,-471.62 564.21,-463.38 553.86,-465.67 557.55,-471.62"/>
</a>
</g>
</g>
<!-- Node8&#45;&gt;Node27 -->
<g id="edge42_Node000008_Node000027" class="edge">
<title>Node8&#45;&gt;Node27</title>
<g id="a_edge42_Node000008_Node000027"><a xlink:title=" ">
<path fill="none" stroke="#63b8ff" d="M529.46,-499.53C568.69,-488.07 625.47,-471.5 663.96,-460.27"/>
<polygon fill="#63b8ff" stroke="#63b8ff" points="664.72,-463.69 673.34,-457.53 662.76,-456.97 664.72,-463.69"/>
</a>
</g>
</g>
<!-- Node29 -->
<g id="Node000029" class="node">
<title>Node29</title>
<g id="a_Node000029"><a xlink:href="result_8hpp.html" target="_top" xlink:title=" ">
<polygon fill="white" stroke="#666666" points="202.75,-456.62 101.25,-456.62 101.25,-437.38 202.75,-437.38 202.75,-456.62"/>
<text text-anchor="middle" x="152" y="-443.12" font-family="Helvetica,sans-Serif" font-size="10.00">yaclib/util/result.hpp</text>
</a>
</g>
</g>
<!-- Node8&#45;&gt;Node29 -->
<g id="edge45_Node000008_Node000029" class="edge">
<title>Node8&#45;&gt;Node29</title>
<g id="a_edge45_Node000008_Node000029"><a xlink:title=" ">
<path fill="none" stroke="#63b8ff" d="M440.78,-503.93C381.41,-492.44 275.81,-471.98 210.08,-459.25"/>
<polygon fill="#63b8ff" stroke="#63b8ff" points="211.06,-455.87 200.58,-457.41 209.73,-462.75 211.06,-455.87"/>
</a>
</g>
</g>
<!-- Node10 -->
<g id="Node000010" class="node">
<title>Node10</title>
<g id="a_Node000010"><a xlink:href="inline__core_8hpp.html" target="_top" xlink:title=" ">
<polygon fill="white" stroke="#666666" points="822,-340.5 734,-340.5 734,-310 822,-310 822,-340.5"/>
<text text-anchor="start" x="742" y="-327" font-family="Helvetica,sans-Serif" font-size="10.00">yaclib/algo/detail</text>
<text text-anchor="middle" x="778" y="-315.75" font-family="Helvetica,sans-Serif" font-size="10.00">/inline_core.hpp</text>
</a>
</g>
</g>
<!-- Node9&#45;&gt;Node10 -->
<g id="edge9_Node000009_Node000010" class="edge">
<title>Node9&#45;&gt;Node10</title>
<g id="a_edge9_Node000009_Node000010"><a xlink:title=" ">
<path fill="none" stroke="#63b8ff" d="M612.18,-431.32C645.56,-410.16 707.35,-371.01 745.35,-346.94"/>
<polygon fill="#63b8ff" stroke="#63b8ff" points="747.08,-349.99 753.65,-341.68 743.33,-344.07 747.08,-349.99"/>
</a>
</g>
</g>
<!-- Node18 -->
<g id="Node000018" class="node">
<title>Node18</title>
<g id="a_Node000018"><a xlink:href="executor_8hpp.html" target="_top" xlink:title=" ">
<polygon fill="white" stroke="#666666" points="678.25,-334.88 561.75,-334.88 561.75,-315.62 678.25,-315.62 678.25,-334.88"/>
<text text-anchor="middle" x="620" y="-321.38" font-family="Helvetica,sans-Serif" font-size="10.00">yaclib/exe/executor.hpp</text>
</a>
</g>
</g>
<!-- Node9&#45;&gt;Node18 -->
<g id="edge22_Node000009_Node000018" class="edge">
<title>Node9&#45;&gt;Node18</title>
<g id="a_edge22_Node000009_Node000018"><a xlink:title=" ">
<path fill="none" stroke="#63b8ff" d="M615.34,-431.46C628.03,-422.89 641.99,-410.77 649,-395.75 657.09,-378.42 646.47,-358.21 635.88,-344.07"/>
<polygon fill="#63b8ff" stroke="#63b8ff" points="638.77,-342.07 629.74,-336.52 633.34,-346.49 638.77,-342.07"/>
</a>
</g>
</g>
<!-- Node21 -->
<g id="Node000021" class="node">
<title>Node21</title>
<g id="a_Node000021"><a xlink:href="inline_8hpp.html" target="_top" xlink:title=" ">
<polygon fill="white" stroke="#666666" points="640.12,-395.75 537.88,-395.75 537.88,-376.5 640.12,-376.5 640.12,-395.75"/>
<text text-anchor="middle" x="589" y="-382.25" font-family="Helvetica,sans-Serif" font-size="10.00">yaclib/exe/inline.hpp</text>
</a>
</g>
</g>
<!-- Node9&#45;&gt;Node21 -->
<g id="edge29_Node000009_Node000021" class="edge">
<title>Node9&#45;&gt;Node21</title>
<g id="a_edge29_Node000009_Node000021"><a xlink:title=" ">
<path fill="none" stroke="#63b8ff" d="M589,-431.45C589,-424.21 589,-415.34 589,-407.44"/>
<polygon fill="#63b8ff" stroke="#63b8ff" points="592.5,-407.71 589,-397.71 585.5,-407.71 592.5,-407.71"/>
</a>
</g>
</g>
<!-- Node22 -->
<g id="Node000022" class="node">
<title>Node22</title>
<g id="a_Node000022"><a xlink:href="type__traits_8hpp.html" target="_top" xlink:title=" ">
<polygon fill="white" stroke="#666666" points="340.25,-395.75 217.75,-395.75 217.75,-376.5 340.25,-376.5 340.25,-395.75"/>
<text text-anchor="middle" x="279" y="-382.25" font-family="Helvetica,sans-Serif" font-size="10.00">yaclib/util/type_traits.hpp</text>
</a>
</g>
</g>
<!-- Node9&#45;&gt;Node22 -->
<g id="edge32_Node000009_Node000022" class="edge">
<title>Node9&#45;&gt;Node22</title>
<g id="a_edge32_Node000009_Node000022"><a xlink:title=" ">
<path fill="none" stroke="#63b8ff" d="M544.58,-437.56C490.32,-427.26 398.33,-409.79 338.12,-398.35"/>
<polygon fill="#63b8ff" stroke="#63b8ff" points="338.86,-394.93 328.39,-396.5 337.56,-401.81 338.86,-394.93"/>
</a>
</g>
</g>
<!-- Node25 -->
<g id="Node000025" class="node">
<title>Node25</title>
<g id="a_Node000025"><a xlink:title=" ">
<polygon fill="#e0e0e0" stroke="#999999" points="519.62,-395.75 480.38,-395.75 480.38,-376.5 519.62,-376.5 519.62,-395.75"/>
<text text-anchor="middle" x="500" y="-382.25" font-family="Helvetica,sans-Serif" font-size="10.00">limits</text>
</a>
</g>
</g>
<!-- Node9&#45;&gt;Node25 -->
<g id="edge40_Node000009_Node000025" class="edge">
<title>Node9&#45;&gt;Node25</title>
<g id="a_edge40_Node000009_Node000025"><a xlink:title=" ">
<path fill="none" stroke="#63b8ff" d="M567,-431.45C553.71,-422.65 536.79,-411.46 523.27,-402.52"/>
<polygon fill="#63b8ff" stroke="#63b8ff" points="525.25,-399.63 514.98,-397.04 521.39,-405.47 525.25,-399.63"/>
</a>
</g>
</g>
<!-- Node26 -->
<g id="Node000026" class="node">
<title>Node26</title>
<g id="a_Node000026"><a xlink:title=" ">
<polygon fill="#e0e0e0" stroke="#999999" points="1016.88,-268.38 925.12,-268.38 925.12,-249.12 1016.88,-249.12 1016.88,-268.38"/>
<text text-anchor="middle" x="971" y="-254.88" font-family="Helvetica,sans-Serif" font-size="10.00">yaclib_std/atomic</text>
</a>
</g>
</g>
<!-- Node9&#45;&gt;Node26 -->
<g id="edge41_Node000009_Node000026" class="edge">
<title>Node9&#45;&gt;Node26</title>
<g id="a_edge41_Node000009_Node000026"><a xlink:title=" ">
<path fill="none" stroke="#63b8ff" d="M626.08,-431.35C674.08,-412.04 760,-376.31 831,-340.5 872.76,-319.44 919.5,-291.56 947.03,-274.68"/>
<polygon fill="#63b8ff" stroke="#63b8ff" points="948.62,-277.81 955.3,-269.58 944.95,-271.85 948.62,-277.81"/>
</a>
</g>
</g>
<!-- Node10&#45;&gt;Node4 -->
<g id="edge10_Node000010_Node000004" class="edge">
<title>Node10&#45;&gt;Node4</title>
<g id="a_edge10_Node000010_Node000004"><a xlink:title=" ">
<path fill="none" stroke="#63b8ff" d="M797.29,-309.61C810.69,-299.44 828.53,-285.91 842.24,-275.5"/>
<polygon fill="#63b8ff" stroke="#63b8ff" points="844.32,-278.32 850.17,-269.49 840.09,-272.74 844.32,-278.32"/>
</a>
</g>
</g>
<!-- Node11 -->
<g id="Node000011" class="node">
<title>Node11</title>
<g id="a_Node000011"><a xlink:href="job_8hpp.html" target="_top" xlink:title=" ">
<polygon fill="white" stroke="#666666" points="647.25,-268.38 554.75,-268.38 554.75,-249.12 647.25,-249.12 647.25,-268.38"/>
<text text-anchor="middle" x="601" y="-254.88" font-family="Helvetica,sans-Serif" font-size="10.00">yaclib/exe/job.hpp</text>
</a>
</g>
</g>
<!-- Node10&#45;&gt;Node11 -->
<g id="edge11_Node000010_Node000011" class="edge">
<title>Node10&#45;&gt;Node11</title>
<g id="a_edge11_Node000010_Node000011"><a xlink:title=" ">
<path fill="none" stroke="#63b8ff" d="M737.84,-309.61C707.36,-298.51 665.84,-283.38 636.56,-272.71"/>
<polygon fill="#63b8ff" stroke="#63b8ff" points="638,-269.51 627.4,-269.37 635.6,-276.08 638,-269.51"/>
</a>
</g>
</g>
<!-- Node12 -->
<g id="Node000012" class="node">
<title>Node12</title>
<g id="a_Node000012"><a xlink:href="log_8hpp.html" target="_top" xlink:title=" ">
<polygon fill="white" stroke="#666666" points="826.25,-74.5 751.75,-74.5 751.75,-55.25 826.25,-55.25 826.25,-74.5"/>
<text text-anchor="middle" x="789" y="-61" font-family="Helvetica,sans-Serif" font-size="10.00">yaclib/log.hpp</text>
</a>
</g>
</g>
<!-- Node10&#45;&gt;Node12 -->
<g id="edge21_Node000010_Node000012" class="edge">
<title>Node10&#45;&gt;Node12</title>
<g id="a_edge21_Node000010_Node000012"><a xlink:title=" ">
<path fill="none" stroke="#63b8ff" d="M775.5,-309.57C770.01,-274.7 758.43,-184.25 772,-110.5 773.57,-101.95 776.71,-92.91 779.87,-85.22"/>
<polygon fill="#63b8ff" stroke="#63b8ff" points="783.01,-86.77 783.86,-76.21 776.61,-83.93 783.01,-86.77"/>
</a>
</g>
</g>
<!-- Node11&#45;&gt;Node12 -->
<g id="edge12_Node000011_Node000012" class="edge">
<title>Node11&#45;&gt;Node12</title>
<g id="a_edge12_Node000011_Node000012"><a xlink:title=" ">
<path fill="none" stroke="#63b8ff" d="M554.63,-252.12C498.03,-243.2 413.28,-221.98 443,-177 476.25,-126.69 652.78,-89.55 740.06,-73.97"/>
<polygon fill="#63b8ff" stroke="#63b8ff" points="740.52,-77.44 749.77,-72.26 739.31,-70.54 740.52,-77.44"/>
</a>
</g>
</g>
<!-- Node14 -->
<g id="Node000014" class="node">
<title>Node14</title>
<g id="a_Node000014"><a xlink:href="node_8hpp.html" target="_top" xlink:title=" ">
<polygon fill="white" stroke="#666666" points="534.38,-207.5 451.62,-207.5 451.62,-177 534.38,-177 534.38,-207.5"/>
<text text-anchor="start" x="459.62" y="-194" font-family="Helvetica,sans-Serif" font-size="10.00">yaclib/util/detail</text>
<text text-anchor="middle" x="493" y="-182.75" font-family="Helvetica,sans-Serif" font-size="10.00">/node.hpp</text>
</a>
</g>
</g>
<!-- Node11&#45;&gt;Node14 -->
<g id="edge14_Node000011_Node000014" class="edge">
<title>Node11&#45;&gt;Node14</title>
<g id="a_edge14_Node000011_Node000014"><a xlink:title=" ">
<path fill="none" stroke="#63b8ff" d="M585.98,-248.78C570.81,-239.72 546.85,-225.41 527.05,-213.58"/>
<polygon fill="#63b8ff" stroke="#63b8ff" points="529.11,-210.74 518.73,-208.62 525.52,-216.75 529.11,-210.74"/>
</a>
</g>
</g>
<!-- Node15 -->
<g id="Node000015" class="node">
<title>Node15</title>
<g id="a_Node000015"><a xlink:href="func_8hpp.html" target="_top" xlink:title=" ">
<polygon fill="white" stroke="#666666" points="649.12,-201.88 552.88,-201.88 552.88,-182.62 649.12,-182.62 649.12,-201.88"/>
<text text-anchor="middle" x="601" y="-188.38" font-family="Helvetica,sans-Serif" font-size="10.00">yaclib/util/func.hpp</text>
</a>
</g>
</g>
<!-- Node11&#45;&gt;Node15 -->
<g id="edge15_Node000011_Node000015" class="edge">
<title>Node11&#45;&gt;Node15</title>
<g id="a_edge15_Node000011_Node000015"><a xlink:title=" ">
<path fill="none" stroke="#63b8ff" d="M601,-248.78C601,-239.73 601,-225.45 601,-213.63"/>
<polygon fill="#63b8ff" stroke="#63b8ff" points="604.5,-213.66 601,-203.66 597.5,-213.66 604.5,-213.66"/>
</a>
</g>
</g>
<!-- Node13 -->
<g id="Node000013" class="node">
<title>Node13</title>
<g id="a_Node000013"><a xlink:title=" ">
<polygon fill="#e0e0e0" stroke="#999999" points="821.75,-19.25 756.25,-19.25 756.25,0 821.75,0 821.75,-19.25"/>
<text text-anchor="middle" x="789" y="-5.75" font-family="Helvetica,sans-Serif" font-size="10.00">string_view</text>
</a>
</g>
</g>
<!-- Node12&#45;&gt;Node13 -->
<g id="edge13_Node000012_Node000013" class="edge">
<title>Node12&#45;&gt;Node13</title>
<g id="a_edge13_Node000012_Node000013"><a xlink:title=" ">
<path fill="none" stroke="#63b8ff" d="M789,-55.08C789,-48.57 789,-39.42 789,-31.12"/>
<polygon fill="#63b8ff" stroke="#63b8ff" points="792.5,-31.12 789,-21.12 785.5,-31.12 792.5,-31.12"/>
</a>
</g>
</g>
<!-- Node15&#45;&gt;Node6 -->
<g id="edge19_Node000015_Node000006" class="edge">
<title>Node15&#45;&gt;Node6</title>
<g id="a_edge19_Node000015_Node000006"><a xlink:title=" ">
<path fill="none" stroke="#63b8ff" d="M606.28,-182.28C611.9,-172.75 620.94,-157.41 628.09,-145.27"/>
<polygon fill="#63b8ff" stroke="#63b8ff" points="630.93,-147.34 632.99,-136.95 624.9,-143.79 630.93,-147.34"/>
</a>
</g>
</g>
<!-- Node15&#45;&gt;Node7 -->
<g id="edge20_Node000015_Node000007" class="edge">
<title>Node15&#45;&gt;Node7</title>
<g id="a_edge20_Node000015_Node000007"><a xlink:title=" ">
<path fill="none" stroke="#63b8ff" d="M565.82,-182.18C558.31,-180.37 550.41,-178.54 543,-177 447.88,-157.18 334.2,-139.34 280.71,-131.28"/>
<polygon fill="#63b8ff" stroke="#63b8ff" points="281.54,-127.87 271.13,-129.85 280.5,-134.79 281.54,-127.87"/>
</a>
</g>
</g>
<!-- Node16 -->
<g id="Node000016" class="node">
<title>Node16</title>
<g id="a_Node000016"><a xlink:href="ref_8hpp.html" target="_top" xlink:title=" ">
<polygon fill="white" stroke="#666666" points="869.38,-135.38 780.62,-135.38 780.62,-116.12 869.38,-116.12 869.38,-135.38"/>
<text text-anchor="middle" x="825" y="-121.88" font-family="Helvetica,sans-Serif" font-size="10.00">yaclib/util/ref.hpp</text>
</a>
</g>
</g>
<!-- Node15&#45;&gt;Node16 -->
<g id="edge16_Node000015_Node000016" class="edge">
<title>Node15&#45;&gt;Node16</title>
<g id="a_edge16_Node000015_Node000016"><a xlink:title=" ">
<path fill="none" stroke="#63b8ff" d="M632.62,-182.15C671.89,-170.84 739.03,-151.5 782.7,-138.93"/>
<polygon fill="#63b8ff" stroke="#63b8ff" points="783.45,-142.36 792.09,-136.23 781.51,-135.63 783.45,-142.36"/>
</a>
</g>
</g>
<!-- Node16&#45;&gt;Node12 -->
<g id="edge17_Node000016_Node000012" class="edge">
<title>Node16&#45;&gt;Node12</title>
<g id="a_edge17_Node000016_Node000012"><a xlink:title=" ">
<path fill="none" stroke="#63b8ff" d="M819.53,-115.81C814.46,-107.51 806.74,-94.89 800.34,-84.42"/>
<polygon fill="#63b8ff" stroke="#63b8ff" points="803.51,-82.9 795.31,-76.19 797.54,-86.55 803.51,-82.9"/>
</a>
</g>
</g>
<!-- Node17 -->
<g id="Node000017" class="node">
<title>Node17</title>
<g id="a_Node000017"><a xlink:title=" ">
<polygon fill="#e0e0e0" stroke="#999999" points="1107.12,-74.5 1058.88,-74.5 1058.88,-55.25 1107.12,-55.25 1107.12,-74.5"/>
<text text-anchor="middle" x="1083" y="-61" font-family="Helvetica,sans-Serif" font-size="10.00">cstddef</text>
</a>
</g>
</g>
<!-- Node16&#45;&gt;Node17 -->
<g id="edge18_Node000016_Node000017" class="edge">
<title>Node16&#45;&gt;Node17</title>
<g id="a_edge18_Node000016_Node000017"><a xlink:title=" ">
<path fill="none" stroke="#63b8ff" d="M857.73,-115.68C864.42,-113.91 871.43,-112.1 878,-110.5 937.11,-96.13 1006.35,-81.52 1047.34,-73.09"/>
<polygon fill="#63b8ff" stroke="#63b8ff" points="1048.04,-76.52 1057.13,-71.09 1046.63,-69.66 1048.04,-76.52"/>
</a>
</g>
</g>
<!-- Node18&#45;&gt;Node11 -->
<g id="edge23_Node000018_Node000011" class="edge">
<title>Node18&#45;&gt;Node11</title>
<g id="a_edge23_Node000018_Node000011"><a xlink:title=" ">
<path fill="none" stroke="#63b8ff" d="M617.36,-315.28C614.64,-306.04 610.3,-291.33 606.78,-279.38"/>
<polygon fill="#63b8ff" stroke="#63b8ff" points="610.23,-278.7 604.05,-270.09 603.52,-280.68 610.23,-278.7"/>
</a>
</g>
</g>
<!-- Node19 -->
<g id="Node000019" class="node">
<title>Node19</title>
<g id="a_Node000019"><a xlink:href="intrusive__ptr_8hpp.html" target="_top" xlink:title=" ">
<polygon fill="white" stroke="#666666" points="877.12,-207.5 780.88,-207.5 780.88,-177 877.12,-177 877.12,-207.5"/>
<text text-anchor="start" x="788.88" y="-194" font-family="Helvetica,sans-Serif" font-size="10.00">yaclib/util/intrusive</text>
<text text-anchor="middle" x="829" y="-182.75" font-family="Helvetica,sans-Serif" font-size="10.00">_ptr.hpp</text>
</a>
</g>
</g>
<!-- Node18&#45;&gt;Node19 -->
<g id="edge24_Node000018_Node000019" class="edge">
<title>Node18&#45;&gt;Node19</title>
<g id="a_edge24_Node000018_Node000019"><a xlink:title=" ">
<path fill="none" stroke="#63b8ff" d="M634.37,-315.25C667.44,-294.51 749.7,-242.96 795.99,-213.94"/>
<polygon fill="#63b8ff" stroke="#63b8ff" points="797.67,-217.02 804.29,-208.74 793.95,-211.09 797.67,-217.02"/>
</a>
</g>
</g>
<!-- Node19&#45;&gt;Node6 -->
<g id="edge26_Node000019_Node000006" class="edge">
<title>Node19&#45;&gt;Node6</title>
<g id="a_edge26_Node000019_Node000006"><a xlink:title=" ">
<path fill="none" stroke="#63b8ff" d="M785.89,-176.61C752.88,-165.41 707.82,-150.11 676.34,-139.43"/>
<polygon fill="#63b8ff" stroke="#63b8ff" points="677.85,-136.24 667.25,-136.34 675.6,-142.87 677.85,-136.24"/>
</a>
</g>
</g>
<!-- Node19&#45;&gt;Node16 -->
<g id="edge25_Node000019_Node000016" class="edge">
<title>Node19&#45;&gt;Node16</title>
<g id="a_edge25_Node000019_Node000016"><a xlink:title=" ">
<path fill="none" stroke="#63b8ff" d="M828.09,-176.61C827.55,-167.83 826.85,-156.52 826.25,-146.9"/>
<polygon fill="#63b8ff" stroke="#63b8ff" points="829.75,-146.85 825.64,-137.08 822.77,-147.28 829.75,-146.85"/>
</a>
</g>
</g>
<!-- Node20 -->
<g id="Node000020" class="node">
<title>Node20</title>
<g id="a_Node000020"><a xlink:href="intrusive__ptr__impl_8hpp.html" target="_top" xlink:title=" ">
<polygon fill="white" stroke="#666666" points="1000.75,-141 887.25,-141 887.25,-110.5 1000.75,-110.5 1000.75,-141"/>
<text text-anchor="start" x="895.25" y="-127.5" font-family="Helvetica,sans-Serif" font-size="10.00">yaclib/util/detail</text>
<text text-anchor="middle" x="944" y="-116.25" font-family="Helvetica,sans-Serif" font-size="10.00">/intrusive_ptr_impl.hpp</text>
</a>
</g>
</g>
<!-- Node19&#45;&gt;Node20 -->
<g id="edge27_Node000019_Node000020" class="edge">
<title>Node19&#45;&gt;Node20</title>
<g id="a_edge27_Node000019_Node000020"><a xlink:title=" ">
<path fill="none" stroke="#63b8ff" d="M855.1,-176.61C870.83,-167.79 891.09,-156.43 908.29,-146.78"/>
<polygon fill="#63b8ff" stroke="#63b8ff" points="909.68,-150.01 916.69,-142.07 906.25,-143.91 909.68,-150.01"/>
</a>
</g>
</g>
<!-- Node20&#45;&gt;Node12 -->
<g id="edge28_Node000020_Node000012" class="edge">
<title>Node20&#45;&gt;Node12</title>
<g id="a_edge28_Node000020_Node000012"><a xlink:title=" ">
<path fill="none" stroke="#63b8ff" d="M905.29,-110.05C880.09,-100.48 847.53,-88.11 823.27,-78.89"/>
<polygon fill="#63b8ff" stroke="#63b8ff" points="824.78,-75.72 814.19,-75.44 822.29,-82.26 824.78,-75.72"/>
</a>
</g>
</g>
<!-- Node21&#45;&gt;Node5 -->
<g id="edge31_Node000021_Node000005" class="edge">
<title>Node21&#45;&gt;Node5</title>
<g id="a_edge31_Node000021_Node000005"><a xlink:title=" ">
<path fill="none" stroke="#63b8ff" d="M550.94,-376.03C521.76,-368.39 480.88,-356.19 447,-340.5 406.97,-321.97 364.4,-293.02 339.83,-275.28"/>
<polygon fill="#63b8ff" stroke="#63b8ff" points="342.12,-272.62 331.98,-269.54 337.99,-278.27 342.12,-272.62"/>
</a>
</g>
</g>
<!-- Node21&#45;&gt;Node18 -->
<g id="edge30_Node000021_Node000018" class="edge">
<title>Node21&#45;&gt;Node18</title>
<g id="a_edge30_Node000021_Node000018"><a xlink:title=" ">
<path fill="none" stroke="#63b8ff" d="M593.71,-376.18C597.99,-368.06 604.44,-355.79 609.89,-345.45"/>
<polygon fill="#63b8ff" stroke="#63b8ff" points="612.98,-347.09 614.54,-336.62 606.79,-343.83 612.98,-347.09"/>
</a>
</g>
</g>
<!-- Node22&#45;&gt;Node5 -->
<g id="edge33_Node000022_Node000005" class="edge">
<title>Node22&#45;&gt;Node5</title>
<g id="a_edge33_Node000022_Node000005"><a xlink:title=" ">
<path fill="none" stroke="#63b8ff" d="M296.68,-376.07C309.39,-368.48 325.54,-356.34 333,-340.5 342.26,-320.84 335.48,-295.89 328.51,-278.97"/>
<polygon fill="#63b8ff" stroke="#63b8ff" points="331.8,-277.73 324.48,-270.07 325.42,-280.62 331.8,-277.73"/>
</a>
</g>
</g>
<!-- Node22&#45;&gt;Node6 -->
<g id="edge38_Node000022_Node000006" class="edge">
<title>Node22&#45;&gt;Node6</title>
<g id="a_edge38_Node000022_Node000006"><a xlink:title=" ">
<path fill="none" stroke="#63b8ff" d="M298.61,-376.15C313.99,-368.38 335.2,-355.96 350,-340.5 407.8,-280.1 376.56,-227.75 443,-177 488.04,-142.6 554.15,-131.6 596.89,-128.17"/>
<polygon fill="#63b8ff" stroke="#63b8ff" points="597.04,-131.67 606.78,-127.49 596.56,-124.68 597.04,-131.67"/>
</a>
</g>
</g>
<!-- Node22&#45;&gt;Node7 -->
<g id="edge39_Node000022_Node000007" class="edge">
<title>Node22&#45;&gt;Node7</title>
<g id="a_edge39_Node000022_Node000007"><a xlink:title=" ">
<path fill="none" stroke="#63b8ff" d="M253.14,-376.07C237.31,-369.04 218.36,-357.56 209,-340.5 173.28,-275.37 216.6,-184.21 238.63,-145.42"/>
<polygon fill="#63b8ff" stroke="#63b8ff" points="241.62,-147.23 243.67,-136.84 235.59,-143.69 241.62,-147.23"/>
</a>
</g>
</g>
<!-- Node23 -->
<g id="Node000023" class="node">
<title>Node23</title>
<g id="a_Node000023"><a xlink:href="type__traits__impl_8hpp.html" target="_top" xlink:title=" ">
<polygon fill="white" stroke="#666666" points="323.62,-340.5 218.38,-340.5 218.38,-310 323.62,-310 323.62,-340.5"/>
<text text-anchor="start" x="226.38" y="-327" font-family="Helvetica,sans-Serif" font-size="10.00">yaclib/util/detail</text>
<text text-anchor="middle" x="271" y="-315.75" font-family="Helvetica,sans-Serif" font-size="10.00">/type_traits_impl.hpp</text>
</a>
</g>
</g>
<!-- Node22&#45;&gt;Node23 -->
<g id="edge34_Node000022_Node000023" class="edge">
<title>Node22&#45;&gt;Node23</title>
<g id="a_edge34_Node000022_Node000023"><a xlink:title=" ">
<path fill="none" stroke="#63b8ff" d="M277.78,-376.18C276.91,-369.73 275.68,-360.66 274.5,-352.01"/>
<polygon fill="#63b8ff" stroke="#63b8ff" points="277.99,-351.72 273.18,-342.28 271.06,-352.66 277.99,-351.72"/>
</a>
</g>
</g>
<!-- Node24 -->
<g id="Node000024" class="node">
<title>Node24</title>
<g id="a_Node000024"><a xlink:title=" ">
<polygon fill="#e0e0e0" stroke="#999999" points="161.62,-334.88 104.38,-334.88 104.38,-315.62 161.62,-315.62 161.62,-334.88"/>
<text text-anchor="middle" x="133" y="-321.38" font-family="Helvetica,sans-Serif" font-size="10.00">exception</text>
</a>
</g>
</g>
<!-- Node22&#45;&gt;Node24 -->
<g id="edge37_Node000022_Node000024" class="edge">
<title>Node22&#45;&gt;Node24</title>
<g id="a_edge37_Node000022_Node000024"><a xlink:title=" ">
<path fill="none" stroke="#63b8ff" d="M256.51,-376.05C232.22,-366.26 193.29,-350.56 165.63,-339.41"/>
<polygon fill="#63b8ff" stroke="#63b8ff" points="167.27,-336.29 156.68,-335.8 164.65,-342.79 167.27,-336.29"/>
</a>
</g>
</g>
<!-- Node23&#45;&gt;Node5 -->
<g id="edge35_Node000023_Node000005" class="edge">
<title>Node23&#45;&gt;Node5</title>
<g id="a_edge35_Node000023_Node000005"><a xlink:title=" ">
<path fill="none" stroke="#63b8ff" d="M281.89,-309.61C288.95,-300.14 298.18,-287.73 305.67,-277.66"/>
<polygon fill="#63b8ff" stroke="#63b8ff" points="308.37,-279.9 311.53,-269.79 302.75,-275.72 308.37,-279.9"/>
</a>
</g>
</g>
<!-- Node23&#45;&gt;Node6 -->
<g id="edge36_Node000023_Node000006" class="edge">
<title>Node23&#45;&gt;Node6</title>
<g id="a_edge36_Node000023_Node000006"><a xlink:title=" ">
<path fill="none" stroke="#63b8ff" d="M267.04,-309.53C263.32,-292.53 259.83,-264.23 271,-243.5 296.5,-196.19 322.17,-197.14 372,-177 447.78,-146.37 543.3,-134.18 597.12,-129.5"/>
<polygon fill="#63b8ff" stroke="#63b8ff" points="597.08,-133.02 606.76,-128.72 596.51,-126.04 597.08,-133.02"/>
</a>
</g>
</g>
<!-- Node27&#45;&gt;Node6 -->
<g id="edge44_Node000027_Node000006" class="edge">
<title>Node27&#45;&gt;Node6</title>
<g id="a_edge44_Node000027_Node000006"><a xlink:title=" ">
<path fill="none" stroke="#63b8ff" d="M706.86,-437.21C709.88,-402.57 717.89,-272.66 679,-177 673.96,-164.6 664.86,-152.79 656.61,-143.73"/>
<polygon fill="#63b8ff" stroke="#63b8ff" points="659.34,-141.52 649.87,-136.77 654.31,-146.39 659.34,-141.52"/>
</a>
</g>
</g>
<!-- Node28 -->
<g id="Node000028" class="node">
<title>Node28</title>
<g id="a_Node000028"><a xlink:title=" ">
<polygon fill="#e0e0e0" stroke="#999999" points="860.25,-395.75 809.75,-395.75 809.75,-376.5 860.25,-376.5 860.25,-395.75"/>
<text text-anchor="middle" x="835" y="-382.25" font-family="Helvetica,sans-Serif" font-size="10.00">memory</text>
</a>
</g>
</g>
<!-- Node27&#45;&gt;Node28 -->
<g id="edge43_Node000027_Node000028" class="edge">
<title>Node27&#45;&gt;Node28</title>
<g id="a_edge43_Node000027_Node000028"><a xlink:title=" ">
<path fill="none" stroke="#63b8ff" d="M725.87,-436.93C746.96,-427.31 780.52,-411.99 804.86,-400.88"/>
<polygon fill="#63b8ff" stroke="#63b8ff" points="806.29,-404.07 813.94,-396.74 803.39,-397.71 806.29,-404.07"/>
</a>
</g>
</g>
<!-- Node29&#45;&gt;Node5 -->
<g id="edge46_Node000029_Node000005" class="edge">
<title>Node29&#45;&gt;Node5</title>
<g id="a_edge46_Node000029_Node000005"><a xlink:title=" ">
<path fill="none" stroke="#63b8ff" d="M142.55,-437.17C119.03,-414.15 62.04,-351.17 95,-310 116.31,-283.38 209.19,-269.9 268.46,-263.88"/>
<polygon fill="#63b8ff" stroke="#63b8ff" points="268.71,-267.37 278.32,-262.92 268.03,-260.41 268.71,-267.37"/>
</a>
</g>
</g>
<!-- Node29&#45;&gt;Node7 -->
<g id="edge49_Node000029_Node000007" class="edge">
<title>Node29&#45;&gt;Node7</title>
<g id="a_edge49_Node000029_Node000007"><a xlink:title=" ">
<path fill="none" stroke="#63b8ff" d="M132.92,-436.97C100.47,-420.13 38,-380.64 38,-326.25 38,-326.25 38,-326.25 38,-257.75 38,-173.56 160.49,-141.67 219.26,-131.21"/>
<polygon fill="#63b8ff" stroke="#63b8ff" points="219.66,-134.7 228.94,-129.6 218.5,-127.79 219.66,-134.7"/>
</a>
</g>
</g>
<!-- Node29&#45;&gt;Node22 -->
<g id="edge47_Node000029_Node000022" class="edge">
<title>Node29&#45;&gt;Node22</title>
<g id="a_edge47_Node000029_Node000022"><a xlink:title=" ">
<path fill="none" stroke="#63b8ff" d="M171.57,-436.93C192.32,-427.31 225.36,-411.99 249.33,-400.88"/>
<polygon fill="#63b8ff" stroke="#63b8ff" points="250.65,-404.13 258.25,-396.75 247.7,-397.78 250.65,-404.13"/>
</a>
</g>
</g>
<!-- Node29&#45;&gt;Node24 -->
<g id="edge48_Node000029_Node000024" class="edge">
<title>Node29&#45;&gt;Node24</title>
<g id="a_edge48_Node000029_Node000024"><a xlink:title=" ">
<path fill="none" stroke="#63b8ff" d="M150.57,-437C147.55,-417.93 140.42,-373.04 136.23,-346.64"/>
<polygon fill="#63b8ff" stroke="#63b8ff" points="139.71,-346.18 134.68,-336.85 132.79,-347.27 139.71,-346.18"/>
</a>
</g>
</g>
<!-- Node30 -->
<g id="Node000030" class="node">
<title>Node30</title>
<g id="a_Node000030"><a xlink:title=" ">
<polygon fill="#e0e0e0" stroke="#999999" points="199.62,-395.75 154.38,-395.75 154.38,-376.5 199.62,-376.5 199.62,-395.75"/>
<text text-anchor="middle" x="177" y="-382.25" font-family="Helvetica,sans-Serif" font-size="10.00">variant</text>
</a>
</g>
</g>
<!-- Node29&#45;&gt;Node30 -->
<g id="edge50_Node000029_Node000030" class="edge">
<title>Node29&#45;&gt;Node30</title>
<g id="a_edge50_Node000029_Node000030"><a xlink:title=" ">
<path fill="none" stroke="#63b8ff" d="M155.8,-437.06C159.21,-429.02 164.34,-416.93 168.71,-406.66"/>
<polygon fill="#63b8ff" stroke="#63b8ff" points="171.89,-408.12 172.58,-397.54 165.45,-405.38 171.89,-408.12"/>
</a>
</g>
</g>
<!-- Node31&#45;&gt;Node8 -->
<g id="edge53_Node000031_Node000008" class="edge">
<title>Node31&#45;&gt;Node8</title>
<g id="a_edge53_Node000031_Node000008"><a xlink:title=" ">
<path fill="none" stroke="#63b8ff" d="M570.04,-564.36C555.13,-555.62 535.98,-544.39 519.62,-534.8"/>
<polygon fill="#63b8ff" stroke="#63b8ff" points="521.56,-531.88 511.17,-529.84 518.02,-537.92 521.56,-531.88"/>
</a>
</g>
</g>
<!-- Node32&#45;&gt;Node8 -->
<g id="edge55_Node000032_Node000008" class="edge">
<title>Node32&#45;&gt;Node8</title>
<g id="a_edge55_Node000032_Node000008"><a xlink:title=" ">
<path fill="none" stroke="#63b8ff" d="M457.17,-564.36C461.36,-556.86 466.57,-547.52 471.35,-538.96"/>
<polygon fill="#63b8ff" stroke="#63b8ff" points="474.31,-540.84 476.13,-530.4 468.2,-537.43 474.31,-540.84"/>
</a>
</g>
</g>
<!-- Node33&#45;&gt;Node4 -->
<g id="edge59_Node000033_Node000004" class="edge">
<title>Node33&#45;&gt;Node4</title>
<g id="a_edge59_Node000033_Node000004"><a xlink:title=" ">
<path fill="none" stroke="#63b8ff" d="M944.17,-309.61C927.08,-299.11 904.13,-285.02 887,-274.49"/>
<polygon fill="#63b8ff" stroke="#63b8ff" points="889.31,-271.8 878.96,-269.55 885.65,-277.77 889.31,-271.8"/>
</a>
</g>
</g>
<!-- Node33&#45;&gt;Node7 -->
<g id="edge62_Node000033_Node000007" class="edge">
<title>Node33&#45;&gt;Node7</title>
<g id="a_edge62_Node000033_Node000007"><a xlink:title=" ">
<path fill="none" stroke="#63b8ff" d="M915.94,-318.53C806.99,-306.5 563.52,-279.23 546,-274 438.14,-241.81 321.83,-172.52 273.31,-141.87"/>
<polygon fill="#63b8ff" stroke="#63b8ff" points="275.35,-139.02 265.03,-136.59 271.58,-144.92 275.35,-139.02"/>
</a>
</g>
</g>
<!-- Node33&#45;&gt;Node17 -->
<g id="edge61_Node000033_Node000017" class="edge">
<title>Node33&#45;&gt;Node17</title>
<g id="a_edge61_Node000033_Node000017"><a xlink:title=" ">
<path fill="none" stroke="#63b8ff" d="M990.76,-309.52C1002.86,-300.6 1017.05,-288.2 1026,-274 1064.57,-212.77 1077.39,-125.45 1081.35,-86.27"/>
<polygon fill="#63b8ff" stroke="#63b8ff" points="1084.83,-86.72 1082.25,-76.44 1077.86,-86.08 1084.83,-86.72"/>
</a>
</g>
</g>
<!-- Node33&#45;&gt;Node26 -->
<g id="edge63_Node000033_Node000026" class="edge">
<title>Node33&#45;&gt;Node26</title>
<g id="a_edge63_Node000033_Node000026"><a xlink:title=" ">
<path fill="none" stroke="#63b8ff" d="M968.68,-309.61C969.09,-300.83 969.62,-289.52 970.06,-279.9"/>
<polygon fill="#63b8ff" stroke="#63b8ff" points="973.55,-280.24 970.52,-270.08 966.56,-279.91 973.55,-280.24"/>
</a>
</g>
</g>
<!-- Node34 -->
<g id="Node000034" class="node">
<title>Node34</title>
<g id="a_Node000034"><a xlink:href="default__deleter_8hpp.html" target="_top" xlink:title=" ">
<polygon fill="white" stroke="#666666" points="1211.38,-274 1110.62,-274 1110.62,-243.5 1211.38,-243.5 1211.38,-274"/>
<text text-anchor="start" x="1118.62" y="-260.5" font-family="Helvetica,sans-Serif" font-size="10.00">yaclib/util/detail</text>
<text text-anchor="middle" x="1161" y="-249.25" font-family="Helvetica,sans-Serif" font-size="10.00">/default_deleter.hpp</text>
</a>
</g>
</g>
<!-- Node33&#45;&gt;Node34 -->
<g id="edge60_Node000033_Node000034" class="edge">
<title>Node33&#45;&gt;Node34</title>
<g id="a_edge60_Node000033_Node000034"><a xlink:title=" ">
<path fill="none" stroke="#63b8ff" d="M1011.79,-309.61C1039.83,-300.25 1076.42,-288.02 1106.35,-278.01"/>
<polygon fill="#63b8ff" stroke="#63b8ff" points="1107.23,-281.41 1115.61,-274.92 1105.02,-274.77 1107.23,-281.41"/>
</a>
</g>
</g>
<!-- Node35&#45;&gt;Node34 -->
<g id="edge65_Node000035_Node000034" class="edge">
<title>Node35&#45;&gt;Node34</title>
<g id="a_edge65_Node000035_Node000034"><a xlink:title=" ">
<path fill="none" stroke="#63b8ff" d="M1135.49,-309.61C1139.29,-302.19 1144,-292.97 1148.34,-284.49"/>
<polygon fill="#63b8ff" stroke="#63b8ff" points="1151.41,-286.17 1152.85,-275.68 1145.18,-282.98 1151.41,-286.17"/>
</a>
</g>
</g>
<!-- Node36&#45;&gt;Node17 -->
<g id="edge70_Node000036_Node000017" class="edge">
<title>Node36&#45;&gt;Node17</title>
<g id="a_edge70_Node000036_Node000017"><a xlink:title=" ">
<path fill="none" stroke="#63b8ff" d="M1100.06,-377.74C1128.64,-371.58 1163.37,-360.45 1189,-340.5 1222.31,-314.57 1239,-301.96 1239,-259.75 1239,-259.75 1239,-259.75 1239,-191.25 1239,-129.62 1164.11,-93.2 1118.11,-76.65"/>
<polygon fill="#63b8ff" stroke="#63b8ff" points="1119.4,-73.39 1108.81,-73.45 1117.12,-80.01 1119.4,-73.39"/>
</a>
</g>
</g>
<!-- Node36&#45;&gt;Node19 -->
<g id="edge69_Node000036_Node000019" class="edge">
<title>Node36&#45;&gt;Node19</title>
<g id="a_edge69_Node000036_Node000019"><a xlink:title=" ">
<path fill="none" stroke="#63b8ff" d="M1049.64,-376.1C1053.58,-351.36 1060.81,-281.8 1026,-243.5 1007.68,-223.34 939.86,-209.23 888.87,-201.19"/>
<polygon fill="#63b8ff" stroke="#63b8ff" points="889.53,-197.75 879.12,-199.7 888.47,-204.67 889.53,-197.75"/>
</a>
</g>
</g>
<!-- Node36&#45;&gt;Node33 -->
<g id="edge67_Node000036_Node000033" class="edge">
<title>Node36&#45;&gt;Node33</title>
<g id="a_edge67_Node000036_Node000033"><a xlink:title=" ">
<path fill="none" stroke="#63b8ff" d="M1035.85,-376.18C1025.48,-368.55 1010.15,-357.27 996.69,-347.36"/>
<polygon fill="#63b8ff" stroke="#63b8ff" points="999.09,-344.79 988.97,-341.68 994.94,-350.43 999.09,-344.79"/>
</a>
</g>
</g>
<!-- Node36&#45;&gt;Node35 -->
<g id="edge68_Node000036_Node000035" class="edge">
<title>Node36&#45;&gt;Node35</title>
<g id="a_edge68_Node000036_Node000035"><a xlink:title=" ">
<path fill="none" stroke="#63b8ff" d="M1060.15,-376.18C1070.52,-368.55 1085.85,-357.27 1099.31,-347.36"/>
<polygon fill="#63b8ff" stroke="#63b8ff" points="1101.06,-350.43 1107.03,-341.68 1096.91,-344.79 1101.06,-350.43"/>
</a>
</g>
</g>
</g>
</svg>
