<?xml version="1.0" encoding="UTF-8" standalone="no"?>
<!DOCTYPE svg PUBLIC "-//W3C//DTD SVG 1.1//EN"
 "http://www.w3.org/Graphics/SVG/1.1/DTD/svg11.dtd">
<!-- Generated by graphviz version 9.0.0 (20230911.1827)
 -->
<!-- Title: src/algo/drop_core.cpp Pages: 1 -->
<svg width="1340pt" height="725pt"
 viewBox="0.00 0.00 1339.52 725.00" xmlns="http://www.w3.org/2000/svg" xmlns:xlink="http://www.w3.org/1999/xlink">
<g id="graph0" class="graph" transform="scale(1 1) rotate(0) translate(4 721)">
<title>src/algo/drop_core.cpp</title>
<!-- Node1 -->
<g id="Node000001" class="node">
<title>Node1</title>
<g id="a_Node000001"><a xlink:title=" ">
<polygon fill="#999999" stroke="#666666" points="711.12,-717 596.88,-717 596.88,-697.75 711.12,-697.75 711.12,-717"/>
<text text-anchor="middle" x="654" y="-703.5" font-family="Helvetica,sans-Serif" font-size="10.00">src/algo/drop_core.cpp</text>
</a>
</g>
</g>
<!-- Node2 -->
<g id="Node000002" class="node">
<title>Node2</title>
<g id="a_Node000002"><a xlink:href="core_8hpp.html" target="_top" xlink:title=" ">
<polygon fill="white" stroke="#666666" points="863,-661.75 775,-661.75 775,-631.25 863,-631.25 863,-661.75"/>
<text text-anchor="start" x="783" y="-648.25" font-family="Helvetica,sans-Serif" font-size="10.00">yaclib/algo/detail</text>
<text text-anchor="middle" x="819" y="-637" font-family="Helvetica,sans-Serif" font-size="10.00">/core.hpp</text>
</a>
</g>
</g>
<!-- Node1&#45;&gt;Node2 -->
<g id="edge1_Node000001_Node000002" class="edge">
<title>Node1&#45;&gt;Node2</title>
<g id="a_edge1_Node000001_Node000002"><a xlink:title=" ">
<path fill="none" stroke="#63b8ff" d="M679.42,-697.3C702.77,-688.97 738.08,-676.37 767.34,-665.93"/>
<polygon fill="#63b8ff" stroke="#63b8ff" points="768.15,-669.36 776.39,-662.7 765.8,-662.77 768.15,-669.36"/>
</a>
</g>
</g>
<!-- Node8 -->
<g id="Node000008" class="node">
<title>Node8</title>
<g id="a_Node000008"><a xlink:href="result__core_8hpp.html" target="_top" xlink:title=" ">
<polygon fill="white" stroke="#666666" points="626,-528.75 538,-528.75 538,-498.25 626,-498.25 626,-528.75"/>
<text text-anchor="start" x="546" y="-515.25" font-family="Helvetica,sans-Serif" font-size="10.00">yaclib/algo/detail</text>
<text text-anchor="middle" x="582" y="-504" font-family="Helvetica,sans-Serif" font-size="10.00">/result_core.hpp</text>
</a>
</g>
</g>
<!-- Node1&#45;&gt;Node8 -->
<g id="edge73_Node000001_Node000008" class="edge">
<title>Node1&#45;&gt;Node8</title>
<g id="a_edge73_Node000001_Node000008"><a xlink:title=" ">
<path fill="none" stroke="#63b8ff" d="M641.37,-697.47C618.68,-680.61 571.76,-641.53 554,-595.25 546.81,-576.5 555.05,-555 564.41,-538.91"/>
<polygon fill="#63b8ff" stroke="#63b8ff" points="567.36,-540.79 569.77,-530.47 561.45,-537.04 567.36,-540.79"/>
</a>
</g>
</g>
<!-- Node3 -->
<g id="Node000003" class="node">
<title>Node3</title>
<g id="a_Node000003"><a xlink:href="func__core_8hpp.html" target="_top" xlink:title=" ">
<polygon fill="white" stroke="#666666" points="569,-340.5 481,-340.5 481,-310 569,-310 569,-340.5"/>
<text text-anchor="start" x="489" y="-327" font-family="Helvetica,sans-Serif" font-size="10.00">yaclib/algo/detail</text>
<text text-anchor="middle" x="525" y="-315.75" font-family="Helvetica,sans-Serif" font-size="10.00">/func_core.hpp</text>
</a>
</g>
</g>
<!-- Node2&#45;&gt;Node3 -->
<g id="edge2_Node000002_Node000003" class="edge">
<title>Node2&#45;&gt;Node3</title>
<g id="a_edge2_Node000002_Node000003"><a xlink:title=" ">
<path fill="none" stroke="#63b8ff" d="M815.01,-630.89C809.65,-613.47 798.69,-584.26 781,-564.75 694.09,-468.92 608.33,-507.99 544,-395.75 536.3,-382.32 531.61,-365.63 528.81,-351.98"/>
<polygon fill="#63b8ff" stroke="#63b8ff" points="532.3,-351.62 527.08,-342.4 525.41,-352.87 532.3,-351.62"/>
</a>
</g>
</g>
<!-- Node4 -->
<g id="Node000004" class="node">
<title>Node4</title>
<g id="a_Node000004"><a xlink:title=" ">
<polygon fill="#e0e0e0" stroke="#999999" points="712.62,-268.38 625.38,-268.38 625.38,-249.12 712.62,-249.12 712.62,-268.38"/>
<text text-anchor="middle" x="669" y="-254.88" font-family="Helvetica,sans-Serif" font-size="10.00">yaclib/config.hpp</text>
</a>
</g>
</g>
<!-- Node2&#45;&gt;Node4 -->
<g id="edge58_Node000002_Node000004" class="edge">
<title>Node2&#45;&gt;Node4</title>
<g id="a_edge58_Node000002_Node000004"><a xlink:title=" ">
<path fill="none" stroke="#63b8ff" d="M817.69,-630.92C812.72,-581.94 791.63,-420.2 722,-310 713.72,-296.9 701.27,-284.86 690.52,-275.85"/>
<polygon fill="#63b8ff" stroke="#63b8ff" points="692.83,-273.21 682.83,-269.7 688.46,-278.68 692.83,-273.21"/>
</a>
</g>
</g>
<!-- Node2&#45;&gt;Node8 -->
<g id="edge7_Node000002_Node000008" class="edge">
<title>Node2&#45;&gt;Node8</title>
<g id="a_edge7_Node000002_Node000008"><a xlink:title=" ">
<path fill="none" stroke="#63b8ff" d="M774.65,-643.29C709.04,-638.99 591.04,-626.94 565,-595.25 552.12,-579.57 558.69,-556.53 567.14,-539.07"/>
<polygon fill="#63b8ff" stroke="#63b8ff" points="570.16,-540.84 571.77,-530.37 563.98,-537.55 570.16,-540.84"/>
</a>
</g>
</g>
<!-- Node28 -->
<g id="Node000028" class="node">
<title>Node28</title>
<g id="a_Node000028"><a xlink:href="cast_8hpp.html" target="_top" xlink:title=" ">
<polygon fill="white" stroke="#666666" points="987.12,-456.62 890.88,-456.62 890.88,-437.38 987.12,-437.38 987.12,-456.62"/>
<text text-anchor="middle" x="939" y="-443.12" font-family="Helvetica,sans-Serif" font-size="10.00">yaclib/util/cast.hpp</text>
</a>
</g>
</g>
<!-- Node2&#45;&gt;Node28 -->
<g id="edge59_Node000002_Node000028" class="edge">
<title>Node2&#45;&gt;Node28</title>
<g id="a_edge59_Node000002_Node000028"><a xlink:title=" ">
<path fill="none" stroke="#63b8ff" d="M828.71,-631.1C835.39,-621.12 844.38,-607.47 852,-595.25 880.42,-549.65 912.14,-494.93 928.29,-466.78"/>
<polygon fill="#63b8ff" stroke="#63b8ff" points="931.17,-468.78 933.1,-458.37 925.1,-465.31 931.17,-468.78"/>
</a>
</g>
</g>
<!-- Node31 -->
<g id="Node000031" class="node">
<title>Node31</title>
<g id="a_Node000031"><a xlink:href="shared__core_8hpp.html" target="_top" xlink:title=" ">
<polygon fill="white" stroke="#666666" points="664.12,-595.25 573.88,-595.25 573.88,-564.75 664.12,-564.75 664.12,-595.25"/>
<text text-anchor="start" x="581.88" y="-581.75" font-family="Helvetica,sans-Serif" font-size="10.00">yaclib/algo/detail</text>
<text text-anchor="middle" x="619" y="-570.5" font-family="Helvetica,sans-Serif" font-size="10.00">/shared_core.hpp</text>
</a>
</g>
</g>
<!-- Node2&#45;&gt;Node31 -->
<g id="edge53_Node000002_Node000031" class="edge">
<title>Node2&#45;&gt;Node31</title>
<g id="a_edge53_Node000002_Node000031"><a xlink:title=" ">
<path fill="none" stroke="#63b8ff" d="M774.61,-631.19C745.27,-621.72 706.57,-609.24 675.1,-599.09"/>
<polygon fill="#63b8ff" stroke="#63b8ff" points="676.33,-595.81 665.74,-596.07 674.18,-602.47 676.33,-595.81"/>
</a>
</g>
</g>
<!-- Node32 -->
<g id="Node000032" class="node">
<title>Node32</title>
<g id="a_Node000032"><a xlink:href="unique__core_8hpp.html" target="_top" xlink:title=" ">
<polygon fill="white" stroke="#666666" points="771.75,-595.25 682.25,-595.25 682.25,-564.75 771.75,-564.75 771.75,-595.25"/>
<text text-anchor="start" x="690.25" y="-581.75" font-family="Helvetica,sans-Serif" font-size="10.00">yaclib/algo/detail</text>
<text text-anchor="middle" x="727" y="-570.5" font-family="Helvetica,sans-Serif" font-size="10.00">/unique_core.hpp</text>
</a>
</g>
</g>
<!-- Node2&#45;&gt;Node32 -->
<g id="edge55_Node000002_Node000032" class="edge">
<title>Node2&#45;&gt;Node32</title>
<g id="a_edge55_Node000002_Node000032"><a xlink:title=" ">
<path fill="none" stroke="#63b8ff" d="M798.12,-630.86C786.01,-622.37 770.54,-611.52 757.12,-602.12"/>
<polygon fill="#63b8ff" stroke="#63b8ff" points="759.23,-599.32 749.03,-596.45 755.21,-605.05 759.23,-599.32"/>
</a>
</g>
</g>
<!-- Node33 -->
<g id="Node000033" class="node">
<title>Node33</title>
<g id="a_Node000033"><a xlink:href="atomic__counter_8hpp.html" target="_top" xlink:title=" ">
<polygon fill="white" stroke="#666666" points="1120.88,-340.5 1017.12,-340.5 1017.12,-310 1120.88,-310 1120.88,-340.5"/>
<text text-anchor="start" x="1025.12" y="-327" font-family="Helvetica,sans-Serif" font-size="10.00">yaclib/util/detail</text>
<text text-anchor="middle" x="1069" y="-315.75" font-family="Helvetica,sans-Serif" font-size="10.00">/atomic_counter.hpp</text>
</a>
</g>
</g>
<!-- Node2&#45;&gt;Node33 -->
<g id="edge60_Node000002_Node000033" class="edge">
<title>Node2&#45;&gt;Node33</title>
<g id="a_edge60_Node000002_Node000033"><a xlink:title=" ">
<path fill="none" stroke="#63b8ff" d="M863.29,-640.69C931.13,-630.61 1053,-600.52 1053,-514.5 1053,-514.5 1053,-514.5 1053,-446 1053,-413.34 1058.92,-376.12 1063.56,-351.96"/>
<polygon fill="#63b8ff" stroke="#63b8ff" points="1066.94,-352.89 1065.47,-342.4 1060.07,-351.52 1066.94,-352.89"/>
</a>
</g>
</g>
<!-- Node35 -->
<g id="Node000035" class="node">
<title>Node35</title>
<g id="a_Node000035"><a xlink:href="unique__counter_8hpp.html" target="_top" xlink:title=" ">
<polygon fill="white" stroke="#666666" points="1301.5,-340.5 1198.5,-340.5 1198.5,-310 1301.5,-310 1301.5,-340.5"/>
<text text-anchor="start" x="1206.5" y="-327" font-family="Helvetica,sans-Serif" font-size="10.00">yaclib/util/detail</text>
<text text-anchor="middle" x="1250" y="-315.75" font-family="Helvetica,sans-Serif" font-size="10.00">/unique_counter.hpp</text>
</a>
</g>
</g>
<!-- Node2&#45;&gt;Node35 -->
<g id="edge66_Node000002_Node000035" class="edge">
<title>Node2&#45;&gt;Node35</title>
<g id="a_edge66_Node000002_Node000035"><a xlink:title=" ">
<path fill="none" stroke="#63b8ff" d="M863.1,-641.56C972.95,-630.53 1250,-594.76 1250,-514.5 1250,-514.5 1250,-514.5 1250,-446 1250,-413.78 1250,-376.68 1250,-352.42"/>
<polygon fill="#63b8ff" stroke="#63b8ff" points="1253.5,-352.51 1250,-342.51 1246.5,-352.51 1253.5,-352.51"/>
</a>
</g>
</g>
<!-- Node36 -->
<g id="Node000036" class="node">
<title>Node36</title>
<g id="a_Node000036"><a xlink:href="helper_8hpp.html" target="_top" xlink:title=" ">
<polygon fill="white" stroke="#666666" points="1221.88,-395.75 1118.12,-395.75 1118.12,-376.5 1221.88,-376.5 1221.88,-395.75"/>
<text text-anchor="middle" x="1170" y="-382.25" font-family="Helvetica,sans-Serif" font-size="10.00">yaclib/util/helper.hpp</text>
</a>
</g>
</g>
<!-- Node2&#45;&gt;Node36 -->
<g id="edge68_Node000002_Node000036" class="edge">
<title>Node2&#45;&gt;Node36</title>
<g id="a_edge68_Node000002_Node000036"><a xlink:title=" ">
<path fill="none" stroke="#63b8ff" d="M863.31,-641.22C925.78,-634.4 1035.66,-619.35 1067,-595.25 1130.14,-546.69 1157.17,-449.13 1166.22,-407.12"/>
<polygon fill="#63b8ff" stroke="#63b8ff" points="1169.62,-407.96 1168.17,-397.46 1162.76,-406.57 1169.62,-407.96"/>
</a>
</g>
</g>
<!-- Node3&#45;&gt;Node4 -->
<g id="edge3_Node000003_Node000004" class="edge">
<title>Node3&#45;&gt;Node4</title>
<g id="a_edge3_Node000003_Node000004"><a xlink:title=" ">
<path fill="none" stroke="#63b8ff" d="M557.68,-309.61C582,-298.72 614.96,-283.96 638.69,-273.33"/>
<polygon fill="#63b8ff" stroke="#63b8ff" points="639.81,-276.66 647.5,-269.38 636.95,-270.27 639.81,-276.66"/>
</a>
</g>
</g>
<!-- Node5 -->
<g id="Node000005" class="node">
<title>Node5</title>
<g id="a_Node000005"><a xlink:href="fwd_8hpp.html" target="_top" xlink:title=" ">
<polygon fill="white" stroke="#666666" points="367.75,-268.38 290.25,-268.38 290.25,-249.12 367.75,-249.12 367.75,-268.38"/>
<text text-anchor="middle" x="329" y="-254.88" font-family="Helvetica,sans-Serif" font-size="10.00">yaclib/fwd.hpp</text>
</a>
</g>
</g>
<!-- Node3&#45;&gt;Node5 -->
<g id="edge4_Node000003_Node000005" class="edge">
<title>Node3&#45;&gt;Node5</title>
<g id="a_edge4_Node000003_Node000005"><a xlink:title=" ">
<path fill="none" stroke="#63b8ff" d="M480.52,-309.61C446.48,-298.41 399.99,-283.11 367.52,-272.43"/>
<polygon fill="#63b8ff" stroke="#63b8ff" points="368.7,-269.13 358.1,-269.33 366.51,-275.78 368.7,-269.13"/>
</a>
</g>
</g>
<!-- Node6 -->
<g id="Node000006" class="node">
<title>Node6</title>
<g id="a_Node000006"><a xlink:title=" ">
<polygon fill="#e0e0e0" stroke="#999999" points="826.5,-135.38 765.5,-135.38 765.5,-116.12 826.5,-116.12 826.5,-135.38"/>
<text text-anchor="middle" x="796" y="-121.88" font-family="Helvetica,sans-Serif" font-size="10.00">type_traits</text>
</a>
</g>
</g>
<!-- Node3&#45;&gt;Node6 -->
<g id="edge5_Node000003_Node000006" class="edge">
<title>Node3&#45;&gt;Node6</title>
<g id="a_edge5_Node000003_Node000006"><a xlink:title=" ">
<path fill="none" stroke="#63b8ff" d="M528.73,-309.58C537.07,-279.81 560.13,-212.2 605,-177 648.18,-143.12 712.04,-131.97 753.84,-128.36"/>
<polygon fill="#63b8ff" stroke="#63b8ff" points="754.04,-131.85 763.75,-127.63 753.52,-124.87 754.04,-131.85"/>
</a>
</g>
</g>
<!-- Node7 -->
<g id="Node000007" class="node">
<title>Node7</title>
<g id="a_Node000007"><a xlink:title=" ">
<polygon fill="#e0e0e0" stroke="#999999" points="375.25,-135.38 336.75,-135.38 336.75,-116.12 375.25,-116.12 375.25,-135.38"/>
<text text-anchor="middle" x="356" y="-121.88" font-family="Helvetica,sans-Serif" font-size="10.00">utility</text>
</a>
</g>
</g>
<!-- Node3&#45;&gt;Node7 -->
<g id="edge6_Node000003_Node000007" class="edge">
<title>Node3&#45;&gt;Node7</title>
<g id="a_edge6_Node000003_Node000007"><a xlink:title=" ">
<path fill="none" stroke="#63b8ff" d="M512.57,-309.73C482.07,-274.09 403.63,-182.41 370.8,-144.04"/>
<polygon fill="#63b8ff" stroke="#63b8ff" points="373.64,-141.98 364.47,-136.65 368.32,-146.53 373.64,-141.98"/>
</a>
</g>
</g>
<!-- Node8&#45;&gt;Node7 -->
<g id="edge52_Node000008_Node000007" class="edge">
<title>Node8&#45;&gt;Node7</title>
<g id="a_edge52_Node000008_Node000007"><a xlink:title=" ">
<path fill="none" stroke="#63b8ff" d="M537.78,-512.39C401.96,-510.87 0,-497.07 0,-387.12 0,-387.12 0,-387.12 0,-257.75 0,-206.92 35.97,-200.58 81,-177 161.78,-134.71 272.1,-127.43 325.1,-126.55"/>
<polygon fill="#63b8ff" stroke="#63b8ff" points="324.92,-130.05 334.88,-126.46 324.85,-123.05 324.92,-130.05"/>
</a>
</g>
</g>
<!-- Node9 -->
<g id="Node000009" class="node">
<title>Node9</title>
<g id="a_Node000009"><a xlink:href="base__core_8hpp.html" target="_top" xlink:title=" ">
<polygon fill="white" stroke="#666666" points="706,-462.25 618,-462.25 618,-431.75 706,-431.75 706,-462.25"/>
<text text-anchor="start" x="626" y="-448.75" font-family="Helvetica,sans-Serif" font-size="10.00">yaclib/algo/detail</text>
<text text-anchor="middle" x="662" y="-437.5" font-family="Helvetica,sans-Serif" font-size="10.00">/base_core.hpp</text>
</a>
</g>
</g>
<!-- Node8&#45;&gt;Node9 -->
<g id="edge8_Node000008_Node000009" class="edge">
<title>Node8&#45;&gt;Node9</title>
<g id="a_edge8_Node000008_Node000009"><a xlink:title=" ">
<path fill="none" stroke="#63b8ff" d="M600.15,-497.86C610.48,-489.53 623.62,-478.94 635.13,-469.67"/>
<polygon fill="#63b8ff" stroke="#63b8ff" points="637.15,-472.53 642.74,-463.53 632.76,-467.08 637.15,-472.53"/>
</a>
</g>
</g>
<!-- Node8&#45;&gt;Node28 -->
<g id="edge43_Node000008_Node000028" class="edge">
<title>Node8&#45;&gt;Node28</title>
<g id="a_edge43_Node000008_Node000028"><a xlink:title=" ">
<path fill="none" stroke="#63b8ff" d="M626.49,-504.46C690.36,-492.92 808.18,-471.63 879.49,-458.75"/>
<polygon fill="#63b8ff" stroke="#63b8ff" points="879.81,-462.25 889.03,-457.03 878.56,-455.36 879.81,-462.25"/>
</a>
</g>
</g>
<!-- Node30 -->
<g id="Node000030" class="node">
<title>Node30</title>
<g id="a_Node000030"><a xlink:href="result_8hpp.html" target="_top" xlink:title=" ">
<polygon fill="white" stroke="#666666" points="206.75,-456.62 105.25,-456.62 105.25,-437.38 206.75,-437.38 206.75,-456.62"/>
<text text-anchor="middle" x="156" y="-443.12" font-family="Helvetica,sans-Serif" font-size="10.00">yaclib/util/result.hpp</text>
</a>
</g>
</g>
<!-- Node8&#45;&gt;Node30 -->
<g id="edge46_Node000008_Node000030" class="edge">
<title>Node8&#45;&gt;Node30</title>
<g id="a_edge46_Node000008_Node000030"><a xlink:title=" ">
<path fill="none" stroke="#63b8ff" d="M537.62,-505.78C461.44,-494.25 305.63,-470.65 218.5,-457.46"/>
<polygon fill="#63b8ff" stroke="#63b8ff" points="219.1,-454.01 208.69,-455.98 218.05,-460.94 219.1,-454.01"/>
</a>
</g>
</g>
<!-- Node10 -->
<g id="Node000010" class="node">
<title>Node10</title>
<g id="a_Node000010"><a xlink:href="inline__core_8hpp.html" target="_top" xlink:title=" ">
<polygon fill="white" stroke="#666666" points="713,-340.5 625,-340.5 625,-310 713,-310 713,-340.5"/>
<text text-anchor="start" x="633" y="-327" font-family="Helvetica,sans-Serif" font-size="10.00">yaclib/algo/detail</text>
<text text-anchor="middle" x="669" y="-315.75" font-family="Helvetica,sans-Serif" font-size="10.00">/inline_core.hpp</text>
</a>
</g>
</g>
<!-- Node9&#45;&gt;Node10 -->
<g id="edge9_Node000009_Node000010" class="edge">
<title>Node9&#45;&gt;Node10</title>
<g id="a_edge9_Node000009_Node000010"><a xlink:title=" ">
<path fill="none" stroke="#63b8ff" d="M688.34,-431.46C701.03,-422.89 714.99,-410.77 722,-395.75 730.16,-378.28 717.16,-361.03 702,-348.09"/>
<polygon fill="#63b8ff" stroke="#63b8ff" points="704.18,-345.35 694.16,-341.93 699.86,-350.86 704.18,-345.35"/>
</a>
</g>
</g>
<!-- Node18 -->
<g id="Node000018" class="node">
<title>Node18</title>
<g id="a_Node000018"><a xlink:href="executor_8hpp.html" target="_top" xlink:title=" ">
<polygon fill="white" stroke="#666666" points="885.25,-334.88 768.75,-334.88 768.75,-315.62 885.25,-315.62 885.25,-334.88"/>
<text text-anchor="middle" x="827" y="-321.38" font-family="Helvetica,sans-Serif" font-size="10.00">yaclib/exe/executor.hpp</text>
</a>
</g>
</g>
<!-- Node9&#45;&gt;Node18 -->
<g id="edge22_Node000009_Node000018" class="edge">
<title>Node9&#45;&gt;Node18</title>
<g id="a_edge22_Node000009_Node000018"><a xlink:title=" ">
<path fill="none" stroke="#63b8ff" d="M685.27,-431.29C700.48,-421.51 720.67,-408.22 738,-395.75 762.3,-378.27 789.28,-356.91 807.1,-342.52"/>
<polygon fill="#63b8ff" stroke="#63b8ff" points="809.24,-345.29 814.8,-336.27 804.83,-339.85 809.24,-345.29"/>
</a>
</g>
</g>
<!-- Node21 -->
<g id="Node000021" class="node">
<title>Node21</title>
<g id="a_Node000021"><a xlink:href="inline_8hpp.html" target="_top" xlink:title=" ">
<polygon fill="white" stroke="#666666" points="713.12,-395.75 610.88,-395.75 610.88,-376.5 713.12,-376.5 713.12,-395.75"/>
<text text-anchor="middle" x="662" y="-382.25" font-family="Helvetica,sans-Serif" font-size="10.00">yaclib/exe/inline.hpp</text>
</a>
</g>
</g>
<!-- Node9&#45;&gt;Node21 -->
<g id="edge29_Node000009_Node000021" class="edge">
<title>Node9&#45;&gt;Node21</title>
<g id="a_edge29_Node000009_Node000021"><a xlink:title=" ">
<path fill="none" stroke="#63b8ff" d="M662,-431.45C662,-424.21 662,-415.34 662,-407.44"/>
<polygon fill="#63b8ff" stroke="#63b8ff" points="665.5,-407.71 662,-397.71 658.5,-407.71 665.5,-407.71"/>
</a>
</g>
</g>
<!-- Node22 -->
<g id="Node000022" class="node">
<title>Node22</title>
<g id="a_Node000022"><a xlink:href="type__traits_8hpp.html" target="_top" xlink:title=" ">
<polygon fill="white" stroke="#666666" points="337.25,-395.75 214.75,-395.75 214.75,-376.5 337.25,-376.5 337.25,-395.75"/>
<text text-anchor="middle" x="276" y="-382.25" font-family="Helvetica,sans-Serif" font-size="10.00">yaclib/util/type_traits.hpp</text>
</a>
</g>
</g>
<!-- Node9&#45;&gt;Node22 -->
<g id="edge32_Node000009_Node000022" class="edge">
<title>Node9&#45;&gt;Node22</title>
<g id="a_edge32_Node000009_Node000022"><a xlink:title=" ">
<path fill="none" stroke="#63b8ff" d="M617.72,-439.25C551.47,-429.14 425.9,-409.99 346.82,-397.93"/>
<polygon fill="#63b8ff" stroke="#63b8ff" points="347.41,-394.48 337,-396.43 346.35,-401.4 347.41,-394.48"/>
</a>
</g>
</g>
<!-- Node26 -->
<g id="Node000026" class="node">
<title>Node26</title>
<g id="a_Node000026"><a xlink:title=" ">
<polygon fill="#e0e0e0" stroke="#999999" points="592.62,-395.75 553.38,-395.75 553.38,-376.5 592.62,-376.5 592.62,-395.75"/>
<text text-anchor="middle" x="573" y="-382.25" font-family="Helvetica,sans-Serif" font-size="10.00">limits</text>
</a>
</g>
</g>
<!-- Node9&#45;&gt;Node26 -->
<g id="edge41_Node000009_Node000026" class="edge">
<title>Node9&#45;&gt;Node26</title>
<g id="a_edge41_Node000009_Node000026"><a xlink:title=" ">
<path fill="none" stroke="#63b8ff" d="M640,-431.45C626.71,-422.65 609.79,-411.46 596.27,-402.52"/>
<polygon fill="#63b8ff" stroke="#63b8ff" points="598.25,-399.63 587.98,-397.04 594.39,-405.47 598.25,-399.63"/>
</a>
</g>
</g>
<!-- Node27 -->
<g id="Node000027" class="node">
<title>Node27</title>
<g id="a_Node000027"><a xlink:title=" ">
<polygon fill="#e0e0e0" stroke="#999999" points="1105.88,-268.38 1014.12,-268.38 1014.12,-249.12 1105.88,-249.12 1105.88,-268.38"/>
<text text-anchor="middle" x="1060" y="-254.88" font-family="Helvetica,sans-Serif" font-size="10.00">yaclib_std/atomic</text>
</a>
</g>
</g>
<!-- Node9&#45;&gt;Node27 -->
<g id="edge42_Node000009_Node000027" class="edge">
<title>Node9&#45;&gt;Node27</title>
<g id="a_edge42_Node000009_Node000027"><a xlink:title=" ">
<path fill="none" stroke="#63b8ff" d="M694.78,-431.42C739.83,-411.3 823.34,-373.75 894,-340.5 942.46,-317.7 998.39,-290.26 1031.38,-273.95"/>
<polygon fill="#63b8ff" stroke="#63b8ff" points="1032.88,-277.11 1040.3,-269.54 1029.78,-270.84 1032.88,-277.11"/>
</a>
</g>
</g>
<!-- Node10&#45;&gt;Node4 -->
<g id="edge10_Node000010_Node000004" class="edge">
<title>Node10&#45;&gt;Node4</title>
<g id="a_edge10_Node000010_Node000004"><a xlink:title=" ">
<path fill="none" stroke="#63b8ff" d="M669,-309.61C669,-300.83 669,-289.52 669,-279.9"/>
<polygon fill="#63b8ff" stroke="#63b8ff" points="672.5,-280.09 669,-270.09 665.5,-280.09 672.5,-280.09"/>
</a>
</g>
</g>
<!-- Node11 -->
<g id="Node000011" class="node">
<title>Node11</title>
<g id="a_Node000011"><a xlink:href="job_8hpp.html" target="_top" xlink:title=" ">
<polygon fill="white" stroke="#666666" points="861.25,-268.38 768.75,-268.38 768.75,-249.12 861.25,-249.12 861.25,-268.38"/>
<text text-anchor="middle" x="815" y="-254.88" font-family="Helvetica,sans-Serif" font-size="10.00">yaclib/exe/job.hpp</text>
</a>
</g>
</g>
<!-- Node10&#45;&gt;Node11 -->
<g id="edge11_Node000010_Node000011" class="edge">
<title>Node10&#45;&gt;Node11</title>
<g id="a_edge11_Node000010_Node000011"><a xlink:title=" ">
<path fill="none" stroke="#63b8ff" d="M702.13,-309.61C726.79,-298.72 760.21,-283.96 784.27,-273.33"/>
<polygon fill="#63b8ff" stroke="#63b8ff" points="785.49,-276.61 793.22,-269.37 782.66,-270.21 785.49,-276.61"/>
</a>
</g>
</g>
<!-- Node12 -->
<g id="Node000012" class="node">
<title>Node12</title>
<g id="a_Node000012"><a xlink:href="log_8hpp.html" target="_top" xlink:title=" ">
<polygon fill="white" stroke="#666666" points="938.25,-74.5 863.75,-74.5 863.75,-55.25 938.25,-55.25 938.25,-74.5"/>
<text text-anchor="middle" x="901" y="-61" font-family="Helvetica,sans-Serif" font-size="10.00">yaclib/log.hpp</text>
</a>
</g>
</g>
<!-- Node10&#45;&gt;Node12 -->
<g id="edge21_Node000010_Node000012" class="edge">
<title>Node10&#45;&gt;Node12</title>
<g id="a_edge21_Node000010_Node000012"><a xlink:title=" ">
<path fill="none" stroke="#63b8ff" d="M646.49,-309.68C635.04,-300.88 622.26,-288.56 616,-274 598.54,-233.39 609.91,-211.13 638,-177 692.3,-111.02 792.73,-83.51 852.54,-72.58"/>
<polygon fill="#63b8ff" stroke="#63b8ff" points="852.83,-76.08 862.08,-70.92 851.63,-69.18 852.83,-76.08"/>
</a>
</g>
</g>
<!-- Node11&#45;&gt;Node12 -->
<g id="edge12_Node000011_Node000012" class="edge">
<title>Node11&#45;&gt;Node12</title>
<g id="a_edge12_Node000011_Node000012"><a xlink:title=" ">
<path fill="none" stroke="#63b8ff" d="M823.52,-248.87C832.18,-239.37 845.37,-223.49 853,-207.5 872.12,-167.41 861.02,-151.94 877,-110.5 880.4,-101.69 885.17,-92.41 889.56,-84.62"/>
<polygon fill="#63b8ff" stroke="#63b8ff" points="892.53,-86.49 894.57,-76.09 886.49,-82.94 892.53,-86.49"/>
</a>
</g>
</g>
<!-- Node14 -->
<g id="Node000014" class="node">
<title>Node14</title>
<g id="a_Node000014"><a xlink:href="node_8hpp.html" target="_top" xlink:title=" ">
<polygon fill="white" stroke="#666666" points="729.38,-207.5 646.62,-207.5 646.62,-177 729.38,-177 729.38,-207.5"/>
<text text-anchor="start" x="654.62" y="-194" font-family="Helvetica,sans-Serif" font-size="10.00">yaclib/util/detail</text>
<text text-anchor="middle" x="688" y="-182.75" font-family="Helvetica,sans-Serif" font-size="10.00">/node.hpp</text>
</a>
</g>
</g>
<!-- Node11&#45;&gt;Node14 -->
<g id="edge14_Node000011_Node000014" class="edge">
<title>Node11&#45;&gt;Node14</title>
<g id="a_edge14_Node000011_Node000014"><a xlink:title=" ">
<path fill="none" stroke="#63b8ff" d="M797.07,-248.65C778.85,-239.39 750.04,-224.76 726.6,-212.85"/>
<polygon fill="#63b8ff" stroke="#63b8ff" points="728.45,-209.87 717.95,-208.46 725.28,-216.11 728.45,-209.87"/>
</a>
</g>
</g>
<!-- Node15 -->
<g id="Node000015" class="node">
<title>Node15</title>
<g id="a_Node000015"><a xlink:href="func_8hpp.html" target="_top" xlink:title=" ">
<polygon fill="white" stroke="#666666" points="844.12,-201.88 747.88,-201.88 747.88,-182.62 844.12,-182.62 844.12,-201.88"/>
<text text-anchor="middle" x="796" y="-188.38" font-family="Helvetica,sans-Serif" font-size="10.00">yaclib/util/func.hpp</text>
</a>
</g>
</g>
<!-- Node11&#45;&gt;Node15 -->
<g id="edge15_Node000011_Node000015" class="edge">
<title>Node11&#45;&gt;Node15</title>
<g id="a_edge15_Node000011_Node000015"><a xlink:title=" ">
<path fill="none" stroke="#63b8ff" d="M812.36,-248.78C809.64,-239.54 805.3,-224.83 801.78,-212.88"/>
<polygon fill="#63b8ff" stroke="#63b8ff" points="805.23,-212.2 799.05,-203.59 798.52,-214.18 805.23,-212.2"/>
</a>
</g>
</g>
<!-- Node13 -->
<g id="Node000013" class="node">
<title>Node13</title>
<g id="a_Node000013"><a xlink:title=" ">
<polygon fill="#e0e0e0" stroke="#999999" points="933.75,-19.25 868.25,-19.25 868.25,0 933.75,0 933.75,-19.25"/>
<text text-anchor="middle" x="901" y="-5.75" font-family="Helvetica,sans-Serif" font-size="10.00">string_view</text>
</a>
</g>
</g>
<!-- Node12&#45;&gt;Node13 -->
<g id="edge13_Node000012_Node000013" class="edge">
<title>Node12&#45;&gt;Node13</title>
<g id="a_edge13_Node000012_Node000013"><a xlink:title=" ">
<path fill="none" stroke="#63b8ff" d="M901,-55.08C901,-48.57 901,-39.42 901,-31.12"/>
<polygon fill="#63b8ff" stroke="#63b8ff" points="904.5,-31.12 901,-21.12 897.5,-31.12 904.5,-31.12"/>
</a>
</g>
</g>
<!-- Node15&#45;&gt;Node6 -->
<g id="edge19_Node000015_Node000006" class="edge">
<title>Node15&#45;&gt;Node6</title>
<g id="a_edge19_Node000015_Node000006"><a xlink:title=" ">
<path fill="none" stroke="#63b8ff" d="M796,-182.28C796,-173.23 796,-158.95 796,-147.13"/>
<polygon fill="#63b8ff" stroke="#63b8ff" points="799.5,-147.16 796,-137.16 792.5,-147.16 799.5,-147.16"/>
</a>
</g>
</g>
<!-- Node15&#45;&gt;Node7 -->
<g id="edge20_Node000015_Node000007" class="edge">
<title>Node15&#45;&gt;Node7</title>
<g id="a_edge20_Node000015_Node000007"><a xlink:title=" ">
<path fill="none" stroke="#63b8ff" d="M761.79,-182.18C754,-180.3 745.74,-178.46 738,-177 608.35,-152.62 451.74,-135.98 386.66,-129.63"/>
<polygon fill="#63b8ff" stroke="#63b8ff" points="387.4,-126.18 377.11,-128.7 386.72,-133.15 387.4,-126.18"/>
</a>
</g>
</g>
<!-- Node16 -->
<g id="Node000016" class="node">
<title>Node16</title>
<g id="a_Node000016"><a xlink:href="ref_8hpp.html" target="_top" xlink:title=" ">
<polygon fill="white" stroke="#666666" points="1106.38,-135.38 1017.62,-135.38 1017.62,-116.12 1106.38,-116.12 1106.38,-135.38"/>
<text text-anchor="middle" x="1062" y="-121.88" font-family="Helvetica,sans-Serif" font-size="10.00">yaclib/util/ref.hpp</text>
</a>
</g>
</g>
<!-- Node15&#45;&gt;Node16 -->
<g id="edge16_Node000015_Node000016" class="edge">
<title>Node15&#45;&gt;Node16</title>
<g id="a_edge16_Node000015_Node000016"><a xlink:title=" ">
<path fill="none" stroke="#63b8ff" d="M836.13,-182.17C879.02,-172.38 948.95,-156.15 1009,-141 1011.93,-140.26 1014.95,-139.49 1017.99,-138.7"/>
<polygon fill="#63b8ff" stroke="#63b8ff" points="1018.72,-142.12 1027.5,-136.19 1016.94,-135.35 1018.72,-142.12"/>
</a>
</g>
</g>
<!-- Node16&#45;&gt;Node12 -->
<g id="edge17_Node000016_Node000012" class="edge">
<title>Node16&#45;&gt;Node12</title>
<g id="a_edge17_Node000016_Node000012"><a xlink:title=" ">
<path fill="none" stroke="#63b8ff" d="M1037.2,-115.68C1010.25,-105.83 966.97,-90 936.45,-78.84"/>
<polygon fill="#63b8ff" stroke="#63b8ff" points="937.85,-75.62 927.25,-75.48 935.44,-82.2 937.85,-75.62"/>
</a>
</g>
</g>
<!-- Node17 -->
<g id="Node000017" class="node">
<title>Node17</title>
<g id="a_Node000017"><a xlink:title=" ">
<polygon fill="#e0e0e0" stroke="#999999" points="1158.12,-74.5 1109.88,-74.5 1109.88,-55.25 1158.12,-55.25 1158.12,-74.5"/>
<text text-anchor="middle" x="1134" y="-61" font-family="Helvetica,sans-Serif" font-size="10.00">cstddef</text>
</a>
</g>
</g>
<!-- Node16&#45;&gt;Node17 -->
<g id="edge18_Node000016_Node000017" class="edge">
<title>Node16&#45;&gt;Node17</title>
<g id="a_edge18_Node000016_Node000017"><a xlink:title=" ">
<path fill="none" stroke="#63b8ff" d="M1072.94,-115.81C1083.82,-106.9 1100.79,-93.03 1114.08,-82.17"/>
<polygon fill="#63b8ff" stroke="#63b8ff" points="1116.26,-84.9 1121.79,-75.86 1111.83,-79.48 1116.26,-84.9"/>
</a>
</g>
</g>
<!-- Node18&#45;&gt;Node11 -->
<g id="edge23_Node000018_Node000011" class="edge">
<title>Node18&#45;&gt;Node11</title>
<g id="a_edge23_Node000018_Node000011"><a xlink:title=" ">
<path fill="none" stroke="#63b8ff" d="M825.33,-315.28C823.63,-306.14 820.93,-291.64 818.72,-279.75"/>
<polygon fill="#63b8ff" stroke="#63b8ff" points="822.2,-279.32 816.93,-270.13 815.32,-280.6 822.2,-279.32"/>
</a>
</g>
</g>
<!-- Node19 -->
<g id="Node000019" class="node">
<title>Node19</title>
<g id="a_Node000019"><a xlink:href="intrusive__ptr_8hpp.html" target="_top" xlink:title=" ">
<polygon fill="white" stroke="#666666" points="1072.12,-207.5 975.88,-207.5 975.88,-177 1072.12,-177 1072.12,-207.5"/>
<text text-anchor="start" x="983.88" y="-194" font-family="Helvetica,sans-Serif" font-size="10.00">yaclib/util/intrusive</text>
<text text-anchor="middle" x="1024" y="-182.75" font-family="Helvetica,sans-Serif" font-size="10.00">_ptr.hpp</text>
</a>
</g>
</g>
<!-- Node18&#45;&gt;Node19 -->
<g id="edge24_Node000018_Node000019" class="edge">
<title>Node18&#45;&gt;Node19</title>
<g id="a_edge24_Node000018_Node000019"><a xlink:title=" ">
<path fill="none" stroke="#63b8ff" d="M840.54,-315.25C871.59,-294.6 948.6,-243.39 992.34,-214.31"/>
<polygon fill="#63b8ff" stroke="#63b8ff" points="994.26,-217.23 1000.65,-208.77 990.39,-211.4 994.26,-217.23"/>
</a>
</g>
</g>
<!-- Node19&#45;&gt;Node6 -->
<g id="edge26_Node000019_Node000006" class="edge">
<title>Node19&#45;&gt;Node6</title>
<g id="a_edge26_Node000019_Node000006"><a xlink:title=" ">
<path fill="none" stroke="#63b8ff" d="M975.65,-177.57C934.72,-165.99 876.67,-149.57 837.74,-138.56"/>
<polygon fill="#63b8ff" stroke="#63b8ff" points="838.84,-135.23 828.26,-135.88 836.93,-141.97 838.84,-135.23"/>
</a>
</g>
</g>
<!-- Node19&#45;&gt;Node16 -->
<g id="edge25_Node000019_Node000016" class="edge">
<title>Node19&#45;&gt;Node16</title>
<g id="a_edge25_Node000019_Node000016"><a xlink:title=" ">
<path fill="none" stroke="#63b8ff" d="M1032.62,-176.61C1038.09,-167.33 1045.21,-155.25 1051.07,-145.3"/>
<polygon fill="#63b8ff" stroke="#63b8ff" points="1053.97,-147.27 1056.03,-136.88 1047.94,-143.72 1053.97,-147.27"/>
</a>
</g>
</g>
<!-- Node20 -->
<g id="Node000020" class="node">
<title>Node20</title>
<g id="a_Node000020"><a xlink:href="intrusive__ptr__impl_8hpp.html" target="_top" xlink:title=" ">
<polygon fill="white" stroke="#666666" points="999.75,-141 886.25,-141 886.25,-110.5 999.75,-110.5 999.75,-141"/>
<text text-anchor="start" x="894.25" y="-127.5" font-family="Helvetica,sans-Serif" font-size="10.00">yaclib/util/detail</text>
<text text-anchor="middle" x="943" y="-116.25" font-family="Helvetica,sans-Serif" font-size="10.00">/intrusive_ptr_impl.hpp</text>
</a>
</g>
</g>
<!-- Node19&#45;&gt;Node20 -->
<g id="edge27_Node000019_Node000020" class="edge">
<title>Node19&#45;&gt;Node20</title>
<g id="a_edge27_Node000019_Node000020"><a xlink:title=" ">
<path fill="none" stroke="#63b8ff" d="M1005.62,-176.61C995.16,-168.28 981.86,-157.69 970.21,-148.42"/>
<polygon fill="#63b8ff" stroke="#63b8ff" points="972.49,-145.76 962.49,-142.27 968.13,-151.24 972.49,-145.76"/>
</a>
</g>
</g>
<!-- Node20&#45;&gt;Node12 -->
<g id="edge28_Node000020_Node000012" class="edge">
<title>Node20&#45;&gt;Node12</title>
<g id="a_edge28_Node000020_Node000012"><a xlink:title=" ">
<path fill="none" stroke="#63b8ff" d="M932.62,-110.2C927.02,-102.35 920.06,-92.6 914.1,-84.24"/>
<polygon fill="#63b8ff" stroke="#63b8ff" points="917.01,-82.29 908.35,-76.18 911.31,-86.36 917.01,-82.29"/>
</a>
</g>
</g>
<!-- Node21&#45;&gt;Node5 -->
<g id="edge31_Node000021_Node000005" class="edge">
<title>Node21&#45;&gt;Node5</title>
<g id="a_edge31_Node000021_Node000005"><a xlink:title=" ">
<path fill="none" stroke="#63b8ff" d="M610.61,-377.73C607.7,-377.31 604.81,-376.9 602,-376.5 545.56,-368.44 390.09,-378.95 348,-340.5 331.41,-325.35 327.99,-298.68 327.84,-280.15"/>
<polygon fill="#63b8ff" stroke="#63b8ff" points="331.33,-280.47 328.1,-270.38 324.33,-280.29 331.33,-280.47"/>
</a>
</g>
</g>
<!-- Node21&#45;&gt;Node18 -->
<g id="edge30_Node000021_Node000018" class="edge">
<title>Node21&#45;&gt;Node18</title>
<g id="a_edge30_Node000021_Node000018"><a xlink:title=" ">
<path fill="none" stroke="#63b8ff" d="M687.42,-376.05C715.16,-366.16 759.78,-350.24 791.08,-339.07"/>
<polygon fill="#63b8ff" stroke="#63b8ff" points="791.88,-342.5 800.13,-335.84 789.53,-335.9 791.88,-342.5"/>
</a>
</g>
</g>
<!-- Node22&#45;&gt;Node5 -->
<g id="edge33_Node000022_Node000005" class="edge">
<title>Node22&#45;&gt;Node5</title>
<g id="a_edge33_Node000022_Node000005"><a xlink:title=" ">
<path fill="none" stroke="#63b8ff" d="M279.81,-376.11C288.37,-355.87 309.26,-306.44 320.88,-278.97"/>
<polygon fill="#63b8ff" stroke="#63b8ff" points="323.96,-280.65 324.63,-270.08 317.52,-277.93 323.96,-280.65"/>
</a>
</g>
</g>
<!-- Node22&#45;&gt;Node6 -->
<g id="edge38_Node000022_Node000006" class="edge">
<title>Node22&#45;&gt;Node6</title>
<g id="a_edge38_Node000022_Node000006"><a xlink:title=" ">
<path fill="none" stroke="#63b8ff" d="M337.43,-383.31C414.84,-379.81 542.13,-369.68 578,-340.5 638.05,-291.65 582.08,-230.52 638,-177 654.77,-160.94 713.16,-145.17 754.04,-135.7"/>
<polygon fill="#63b8ff" stroke="#63b8ff" points="754.61,-139.16 763.58,-133.53 753.06,-132.33 754.61,-139.16"/>
</a>
</g>
</g>
<!-- Node22&#45;&gt;Node7 -->
<g id="edge39_Node000022_Node000007" class="edge">
<title>Node22&#45;&gt;Node7</title>
<g id="a_edge39_Node000022_Node000007"><a xlink:title=" ">
<path fill="none" stroke="#63b8ff" d="M274.72,-376.23C271.79,-353.5 265.94,-291.64 281,-243.5 293.16,-204.62 321.98,-166.16 340.15,-144.53"/>
<polygon fill="#63b8ff" stroke="#63b8ff" points="342.77,-146.85 346.65,-136.99 337.47,-142.27 342.77,-146.85"/>
</a>
</g>
</g>
<!-- Node23 -->
<g id="Node000023" class="node">
<title>Node23</title>
<g id="a_Node000023"><a xlink:href="type__traits__impl_8hpp.html" target="_top" xlink:title=" ">
<polygon fill="white" stroke="#666666" points="462.62,-340.5 357.38,-340.5 357.38,-310 462.62,-310 462.62,-340.5"/>
<text text-anchor="start" x="365.38" y="-327" font-family="Helvetica,sans-Serif" font-size="10.00">yaclib/util/detail</text>
<text text-anchor="middle" x="410" y="-315.75" font-family="Helvetica,sans-Serif" font-size="10.00">/type_traits_impl.hpp</text>
</a>
</g>
</g>
<!-- Node22&#45;&gt;Node23 -->
<g id="edge34_Node000022_Node000023" class="edge">
<title>Node22&#45;&gt;Node23</title>
<g id="a_edge34_Node000022_Node000023"><a xlink:title=" ">
<path fill="none" stroke="#63b8ff" d="M296.64,-376.05C315.11,-367.94 342.78,-355.78 366.16,-345.51"/>
<polygon fill="#63b8ff" stroke="#63b8ff" points="367.42,-348.78 375.17,-341.55 364.61,-342.37 367.42,-348.78"/>
</a>
</g>
</g>
<!-- Node24 -->
<g id="Node000024" class="node">
<title>Node24</title>
<g id="a_Node000024"><a xlink:title=" ">
<polygon fill="#e0e0e0" stroke="#999999" points="161.62,-334.88 104.38,-334.88 104.38,-315.62 161.62,-315.62 161.62,-334.88"/>
<text text-anchor="middle" x="133" y="-321.38" font-family="Helvetica,sans-Serif" font-size="10.00">exception</text>
</a>
</g>
</g>
<!-- Node22&#45;&gt;Node24 -->
<g id="edge37_Node000022_Node000024" class="edge">
<title>Node22&#45;&gt;Node24</title>
<g id="a_edge37_Node000022_Node000024"><a xlink:title=" ">
<path fill="none" stroke="#63b8ff" d="M253.97,-376.05C230.28,-366.3 192.39,-350.7 165.32,-339.56"/>
<polygon fill="#63b8ff" stroke="#63b8ff" points="166.8,-336.38 156.22,-335.81 164.13,-342.85 166.8,-336.38"/>
</a>
</g>
</g>
<!-- Node25 -->
<g id="Node000025" class="node">
<title>Node25</title>
<g id="a_Node000025"><a xlink:title=" ">
<polygon fill="#e0e0e0" stroke="#999999" points="224.62,-334.88 179.38,-334.88 179.38,-315.62 224.62,-315.62 224.62,-334.88"/>
<text text-anchor="middle" x="202" y="-321.38" font-family="Helvetica,sans-Serif" font-size="10.00">variant</text>
</a>
</g>
</g>
<!-- Node22&#45;&gt;Node25 -->
<g id="edge40_Node000022_Node000025" class="edge">
<title>Node22&#45;&gt;Node25</title>
<g id="a_edge40_Node000022_Node000025"><a xlink:title=" ">
<path fill="none" stroke="#63b8ff" d="M264.76,-376.18C253.46,-367.19 235.79,-353.14 222.08,-342.23"/>
<polygon fill="#63b8ff" stroke="#63b8ff" points="224.53,-339.71 214.53,-336.22 220.18,-345.18 224.53,-339.71"/>
</a>
</g>
</g>
<!-- Node23&#45;&gt;Node5 -->
<g id="edge35_Node000023_Node000005" class="edge">
<title>Node23&#45;&gt;Node5</title>
<g id="a_edge35_Node000023_Node000005"><a xlink:title=" ">
<path fill="none" stroke="#63b8ff" d="M391.62,-309.61C378.85,-299.44 361.85,-285.91 348.78,-275.5"/>
<polygon fill="#63b8ff" stroke="#63b8ff" points="351.27,-273.01 341.26,-269.52 346.91,-278.48 351.27,-273.01"/>
</a>
</g>
</g>
<!-- Node23&#45;&gt;Node6 -->
<g id="edge36_Node000023_Node000006" class="edge">
<title>Node23&#45;&gt;Node6</title>
<g id="a_edge36_Node000023_Node000006"><a xlink:title=" ">
<path fill="none" stroke="#63b8ff" d="M421.35,-309.9C445.73,-280.13 506.3,-211.57 573,-177 631.18,-146.85 707.09,-134.69 753.64,-129.85"/>
<polygon fill="#63b8ff" stroke="#63b8ff" points="753.98,-133.34 763.6,-128.89 753.31,-126.37 753.98,-133.34"/>
</a>
</g>
</g>
<!-- Node28&#45;&gt;Node6 -->
<g id="edge45_Node000028_Node000006" class="edge">
<title>Node28&#45;&gt;Node6</title>
<g id="a_edge45_Node000028_Node000006"><a xlink:title=" ">
<path fill="none" stroke="#63b8ff" d="M949.8,-436.91C959.81,-427.72 974.03,-412.51 980,-395.75 982.87,-387.69 981.87,-384.85 980,-376.5 958.59,-280.85 952.88,-248.65 886,-177 871.07,-161 849.86,-148.82 831.78,-140.46"/>
<polygon fill="#63b8ff" stroke="#63b8ff" points="833.24,-137.28 822.68,-136.47 830.43,-143.69 833.24,-137.28"/>
</a>
</g>
</g>
<!-- Node29 -->
<g id="Node000029" class="node">
<title>Node29</title>
<g id="a_Node000029"><a xlink:title=" ">
<polygon fill="#e0e0e0" stroke="#999999" points="971.25,-395.75 920.75,-395.75 920.75,-376.5 971.25,-376.5 971.25,-395.75"/>
<text text-anchor="middle" x="946" y="-382.25" font-family="Helvetica,sans-Serif" font-size="10.00">memory</text>
</a>
</g>
</g>
<!-- Node28&#45;&gt;Node29 -->
<g id="edge44_Node000028_Node000029" class="edge">
<title>Node28&#45;&gt;Node29</title>
<g id="a_edge44_Node000028_Node000029"><a xlink:title=" ">
<path fill="none" stroke="#63b8ff" d="M940.06,-437.06C941,-429.19 942.39,-417.45 943.6,-407.32"/>
<polygon fill="#63b8ff" stroke="#63b8ff" points="947.04,-408 944.75,-397.65 940.09,-407.17 947.04,-408"/>
</a>
</g>
</g>
<!-- Node30&#45;&gt;Node5 -->
<g id="edge47_Node000030_Node000005" class="edge">
<title>Node30&#45;&gt;Node5</title>
<g id="a_edge47_Node000030_Node000005"><a xlink:title=" ">
<path fill="none" stroke="#63b8ff" d="M146.09,-437.21C121.41,-414.26 61.5,-351.46 95,-310 117.63,-281.99 216.89,-268.87 278.63,-263.32"/>
<polygon fill="#63b8ff" stroke="#63b8ff" points="278.9,-266.81 288.57,-262.47 278.3,-259.84 278.9,-266.81"/>
</a>
</g>
</g>
<!-- Node30&#45;&gt;Node7 -->
<g id="edge50_Node000030_Node000007" class="edge">
<title>Node30&#45;&gt;Node7</title>
<g id="a_edge50_Node000030_Node000007"><a xlink:title=" ">
<path fill="none" stroke="#63b8ff" d="M135.72,-436.89C101.98,-420.19 38,-381.27 38,-326.25 38,-326.25 38,-326.25 38,-257.75 38,-195.99 245.67,-148.5 325.37,-132.55"/>
<polygon fill="#63b8ff" stroke="#63b8ff" points="325.96,-136 335.1,-130.63 324.61,-129.13 325.96,-136"/>
</a>
</g>
</g>
<!-- Node30&#45;&gt;Node22 -->
<g id="edge48_Node000030_Node000022" class="edge">
<title>Node30&#45;&gt;Node22</title>
<g id="a_edge48_Node000030_Node000022"><a xlink:title=" ">
<path fill="none" stroke="#63b8ff" d="M174.49,-436.93C194.01,-427.35 225.04,-412.13 247.65,-401.03"/>
<polygon fill="#63b8ff" stroke="#63b8ff" points="248.89,-404.32 256.33,-396.78 245.81,-398.04 248.89,-404.32"/>
</a>
</g>
</g>
<!-- Node30&#45;&gt;Node24 -->
<g id="edge49_Node000030_Node000024" class="edge">
<title>Node30&#45;&gt;Node24</title>
<g id="a_edge49_Node000030_Node000024"><a xlink:title=" ">
<path fill="none" stroke="#63b8ff" d="M154.27,-437C150.61,-417.93 141.99,-373.04 136.92,-346.64"/>
<polygon fill="#63b8ff" stroke="#63b8ff" points="140.36,-346 135.03,-336.84 133.48,-347.32 140.36,-346"/>
</a>
</g>
</g>
<!-- Node30&#45;&gt;Node25 -->
<g id="edge51_Node000030_Node000025" class="edge">
<title>Node30&#45;&gt;Node25</title>
<g id="a_edge51_Node000030_Node000025"><a xlink:title=" ">
<path fill="none" stroke="#63b8ff" d="M159.46,-437C166.85,-417.75 184.34,-372.22 194.44,-345.92"/>
<polygon fill="#63b8ff" stroke="#63b8ff" points="197.64,-347.36 197.96,-336.77 191.11,-344.85 197.64,-347.36"/>
</a>
</g>
</g>
<!-- Node31&#45;&gt;Node8 -->
<g id="edge54_Node000031_Node000008" class="edge">
<title>Node31&#45;&gt;Node8</title>
<g id="a_edge54_Node000031_Node000008"><a xlink:title=" ">
<path fill="none" stroke="#63b8ff" d="M610.6,-564.36C606.3,-556.86 600.94,-547.52 596.03,-538.96"/>
<polygon fill="#63b8ff" stroke="#63b8ff" points="599.13,-537.32 591.12,-530.39 593.06,-540.81 599.13,-537.32"/>
</a>
</g>
</g>
<!-- Node32&#45;&gt;Node6 -->
<g id="edge57_Node000032_Node000006" class="edge">
<title>Node32&#45;&gt;Node6</title>
<g id="a_edge57_Node000032_Node000006"><a xlink:title=" ">
<path fill="none" stroke="#63b8ff" d="M742.32,-564.38C777.5,-529.62 863.37,-437.64 894,-340.5 911.1,-286.25 872.39,-207.01 853,-177 844.27,-163.5 830.94,-151.46 819.36,-142.56"/>
<polygon fill="#63b8ff" stroke="#63b8ff" points="821.55,-139.82 811.41,-136.74 817.41,-145.47 821.55,-139.82"/>
</a>
</g>
</g>
<!-- Node32&#45;&gt;Node8 -->
<g id="edge56_Node000032_Node000008" class="edge">
<title>Node32&#45;&gt;Node8</title>
<g id="a_edge56_Node000032_Node000008"><a xlink:title=" ">
<path fill="none" stroke="#63b8ff" d="M694.1,-564.36C673.78,-555.32 647.47,-543.62 625.44,-533.83"/>
<polygon fill="#63b8ff" stroke="#63b8ff" points="626.97,-530.67 616.41,-529.8 624.12,-537.07 626.97,-530.67"/>
</a>
</g>
</g>
<!-- Node33&#45;&gt;Node4 -->
<g id="edge61_Node000033_Node000004" class="edge">
<title>Node33&#45;&gt;Node4</title>
<g id="a_edge61_Node000033_Node000004"><a xlink:title=" ">
<path fill="none" stroke="#63b8ff" d="M1016.88,-318.16C949.6,-309.93 829.03,-293.98 727,-274 722.95,-273.21 718.75,-272.31 714.55,-271.37"/>
<polygon fill="#63b8ff" stroke="#63b8ff" points="715.54,-268.01 705.01,-269.15 713.96,-274.83 715.54,-268.01"/>
</a>
</g>
</g>
<!-- Node33&#45;&gt;Node7 -->
<g id="edge64_Node000033_Node000007" class="edge">
<title>Node33&#45;&gt;Node7</title>
<g id="a_edge64_Node000033_Node000007"><a xlink:title=" ">
<path fill="none" stroke="#63b8ff" d="M1016.86,-319.02C941.17,-310.89 805,-294.03 760,-274 740.22,-265.19 741.08,-253.74 722,-243.5 661.63,-211.1 462.42,-155.51 386.11,-134.82"/>
<polygon fill="#63b8ff" stroke="#63b8ff" points="387.39,-131.54 376.83,-132.31 385.57,-138.3 387.39,-131.54"/>
</a>
</g>
</g>
<!-- Node33&#45;&gt;Node17 -->
<g id="edge63_Node000033_Node000017" class="edge">
<title>Node33&#45;&gt;Node17</title>
<g id="a_edge63_Node000033_Node000017"><a xlink:title=" ">
<path fill="none" stroke="#63b8ff" d="M1087.41,-309.51C1097.38,-300.41 1108.88,-287.85 1115,-274 1143.27,-210.04 1139.74,-124.41 1136.27,-86"/>
<polygon fill="#63b8ff" stroke="#63b8ff" points="1139.77,-85.79 1135.27,-76.2 1132.8,-86.5 1139.77,-85.79"/>
</a>
</g>
</g>
<!-- Node33&#45;&gt;Node27 -->
<g id="edge65_Node000033_Node000027" class="edge">
<title>Node33&#45;&gt;Node27</title>
<g id="a_edge65_Node000033_Node000027"><a xlink:title=" ">
<path fill="none" stroke="#63b8ff" d="M1066.96,-309.61C1065.73,-300.83 1064.15,-289.52 1062.81,-279.9"/>
<polygon fill="#63b8ff" stroke="#63b8ff" points="1066.29,-279.49 1061.44,-270.07 1059.36,-280.46 1066.29,-279.49"/>
</a>
</g>
</g>
<!-- Node34 -->
<g id="Node000034" class="node">
<title>Node34</title>
<g id="a_Node000034"><a xlink:href="default__deleter_8hpp.html" target="_top" xlink:title=" ">
<polygon fill="white" stroke="#666666" points="1300.38,-274 1199.62,-274 1199.62,-243.5 1300.38,-243.5 1300.38,-274"/>
<text text-anchor="start" x="1207.62" y="-260.5" font-family="Helvetica,sans-Serif" font-size="10.00">yaclib/util/detail</text>
<text text-anchor="middle" x="1250" y="-249.25" font-family="Helvetica,sans-Serif" font-size="10.00">/default_deleter.hpp</text>
</a>
</g>
</g>
<!-- Node33&#45;&gt;Node34 -->
<g id="edge62_Node000033_Node000034" class="edge">
<title>Node33&#45;&gt;Node34</title>
<g id="a_edge62_Node000033_Node000034"><a xlink:title=" ">
<path fill="none" stroke="#63b8ff" d="M1110.07,-309.61C1136.13,-300.33 1170.08,-288.23 1198.01,-278.28"/>
<polygon fill="#63b8ff" stroke="#63b8ff" points="1199.11,-281.6 1207.35,-274.95 1196.76,-275.01 1199.11,-281.6"/>
</a>
</g>
</g>
<!-- Node35&#45;&gt;Node34 -->
<g id="edge67_Node000035_Node000034" class="edge">
<title>Node35&#45;&gt;Node34</title>
<g id="a_edge67_Node000035_Node000034"><a xlink:title=" ">
<path fill="none" stroke="#63b8ff" d="M1250,-309.61C1250,-302.52 1250,-293.79 1250,-285.63"/>
<polygon fill="#63b8ff" stroke="#63b8ff" points="1253.5,-285.84 1250,-275.84 1246.5,-285.84 1253.5,-285.84"/>
</a>
</g>
</g>
<!-- Node36&#45;&gt;Node17 -->
<g id="edge72_Node000036_Node000017" class="edge">
<title>Node36&#45;&gt;Node17</title>
<g id="a_edge72_Node000036_Node000017"><a xlink:title=" ">
<path fill="none" stroke="#63b8ff" d="M1222.35,-381.12C1252.3,-376.1 1288.3,-364.98 1311,-340.5 1336.07,-313.47 1330,-296.62 1330,-259.75 1330,-259.75 1330,-259.75 1330,-191.25 1330,-115.86 1225.82,-83.76 1169.37,-71.9"/>
<polygon fill="#63b8ff" stroke="#63b8ff" points="1170.4,-68.53 1159.91,-70.02 1169.04,-75.4 1170.4,-68.53"/>
</a>
</g>
</g>
<!-- Node36&#45;&gt;Node19 -->
<g id="edge71_Node000036_Node000019" class="edge">
<title>Node36&#45;&gt;Node19</title>
<g id="a_edge71_Node000036_Node000019"><a xlink:title=" ">
<path fill="none" stroke="#63b8ff" d="M1168.68,-376.06C1164.72,-351.83 1150.93,-284.61 1115,-243.5 1103.9,-230.8 1088.78,-220.68 1074.06,-212.95"/>
<polygon fill="#63b8ff" stroke="#63b8ff" points="1075.85,-209.93 1065.33,-208.64 1072.75,-216.2 1075.85,-209.93"/>
</a>
</g>
</g>
<!-- Node36&#45;&gt;Node33 -->
<g id="edge69_Node000036_Node000033" class="edge">
<title>Node36&#45;&gt;Node33</title>
<g id="a_edge69_Node000036_Node000033"><a xlink:title=" ">
<path fill="none" stroke="#63b8ff" d="M1154.66,-376.18C1141.19,-368.33 1121.09,-356.62 1103.75,-346.51"/>
<polygon fill="#63b8ff" stroke="#63b8ff" points="1105.64,-343.56 1095.24,-341.54 1102.11,-349.6 1105.64,-343.56"/>
</a>
</g>
</g>
<!-- Node36&#45;&gt;Node35 -->
<g id="edge70_Node000036_Node000035" class="edge">
<title>Node36&#45;&gt;Node35</title>
<g id="a_edge70_Node000036_Node000035"><a xlink:title=" ">
<path fill="none" stroke="#63b8ff" d="M1182.15,-376.18C1192.52,-368.55 1207.85,-357.27 1221.31,-347.36"/>
<polygon fill="#63b8ff" stroke="#63b8ff" points="1223.06,-350.43 1229.03,-341.68 1218.91,-344.79 1223.06,-350.43"/>
</a>
</g>
</g>
</g>
</svg>
