<?xml version="1.0" encoding="UTF-8" standalone="no"?>
<!DOCTYPE svg PUBLIC "-//W3C//DTD SVG 1.1//EN"
 "http://www.w3.org/Graphics/SVG/1.1/DTD/svg11.dtd">
<!-- Generated by graphviz version 9.0.0 (20230911.1827)
 -->
<!-- Title: src/fault/fiber/context/execution_context.cpp Pages: 1 -->
<svg width="316pt" height="227pt"
 viewBox="0.00 0.00 315.75 226.75" xmlns="http://www.w3.org/2000/svg" xmlns:xlink="http://www.w3.org/1999/xlink">

<svg id="main" version="1.1" xmlns="http://www.w3.org/2000/svg" xmlns:xlink="http://www.w3.org/1999/xlink" xml:space="preserve" onload="init(evt)">
<style type="text/css"><![CDATA[
.node, .edge {opacity: 0.7;}
.node.selected, .edge.selected {opacity: 1;}
.edge:hover path { stroke: red; }
.edge:hover polygon { stroke: red; fill: red; }
]]></style>
<script type="application/ecmascript" xlink:href="svg.min.js"/>
<svg id="graph" class="graph">
<g id="graph0" class="graph" transform="scale(1 1) rotate(0) translate(4 222.75)">
<title>src/fault/fiber/context/execution_context.cpp</title>
<!-- Node1 -->
<g id="Node000001" class="node">
<title>Node1</title>
<g id="a_Node000001"><a xlink:title=" ">
<polygon fill="#999999" stroke="#666666" points="279.12,-218.75 164.12,-218.75 164.12,-188.25 279.12,-188.25 279.12,-218.75"/>
<text text-anchor="start" x="172.12" y="-205.25" font-family="Helvetica,sans-Serif" font-size="10.00">src/fault/fiber/context</text>
<text text-anchor="middle" x="221.62" y="-194" font-family="Helvetica,sans-Serif" font-size="10.00">/execution_context.cpp</text>
</a>
</g>
</g>
<!-- Node2 -->
<g id="Node000002" class="node">
<title>Node2</title>
<g id="a_Node000002"><a xlink:href="execution__context_8hpp.html" target="_top" xlink:title=" ">
<polygon fill="white" stroke="#666666" points="235.62,-152.25 99.62,-152.25 99.62,-121.75 235.62,-121.75 235.62,-152.25"/>
<text text-anchor="start" x="107.62" y="-138.75" font-family="Helvetica,sans-Serif" font-size="10.00">yaclib/fault/detail</text>
<text text-anchor="middle" x="167.62" y="-127.5" font-family="Helvetica,sans-Serif" font-size="10.00">/fiber/execution_context.hpp</text>
</a>
</g>
</g>
<!-- Node1&#45;&gt;Node2 -->
<g id="edge1_Node000001_Node000002" class="edge">
<title>Node1&#45;&gt;Node2</title>
<g id="a_edge1_Node000001_Node000002"><a xlink:title=" ">
<path fill="none" stroke="#63b8ff" d="M209.37,-187.86C202.81,-180.03 194.58,-170.19 187.16,-161.33"/>
<polygon fill="#63b8ff" stroke="#63b8ff" points="189.9,-159.16 180.8,-153.74 184.54,-163.65 189.9,-159.16"/>
</a>
</g>
</g>
<!-- Node7 -->
<g id="Node000007" class="node">
<title>Node7</title>
<g id="a_Node000007"><a xlink:title=" ">
<polygon fill="#e0e0e0" stroke="#999999" points="297.88,-146.62 253.38,-146.62 253.38,-127.38 297.88,-127.38 297.88,-146.62"/>
<text text-anchor="middle" x="275.62" y="-133.12" font-family="Helvetica,sans-Serif" font-size="10.00">cstdlib</text>
</a>
</g>
</g>
<!-- Node1&#45;&gt;Node7 -->
<g id="edge6_Node000001_Node000007" class="edge">
<title>Node1&#45;&gt;Node7</title>
<g id="a_edge6_Node000001_Node000007"><a xlink:title=" ">
<path fill="none" stroke="#63b8ff" d="M233.88,-187.86C241.9,-178.29 252.42,-165.72 260.89,-155.6"/>
<polygon fill="#63b8ff" stroke="#63b8ff" points="263.53,-157.9 267.27,-147.98 258.16,-153.4 263.53,-157.9"/>
</a>
</g>
</g>
<!-- Node3 -->
<g id="Node000003" class="node">
<title>Node3</title>
<g id="a_Node000003"><a xlink:title=" ">
<polygon fill="#e0e0e0" stroke="#999999" points="87.25,-80.12 0,-80.12 0,-60.88 87.25,-60.88 87.25,-80.12"/>
<text text-anchor="middle" x="43.62" y="-66.62" font-family="Helvetica,sans-Serif" font-size="10.00">yaclib/config.hpp</text>
</a>
</g>
</g>
<!-- Node2&#45;&gt;Node3 -->
<g id="edge2_Node000002_Node000003" class="edge">
<title>Node2&#45;&gt;Node3</title>
<g id="a_edge2_Node000002_Node000003"><a xlink:title=" ">
<path fill="none" stroke="#63b8ff" d="M139.49,-121.36C119.01,-110.71 91.44,-96.37 71.12,-85.8"/>
<polygon fill="#63b8ff" stroke="#63b8ff" points="72.78,-82.72 62.29,-81.21 69.55,-88.93 72.78,-82.72"/>
</a>
</g>
</g>
<!-- Node4 -->
<g id="Node000004" class="node">
<title>Node4</title>
<g id="a_Node000004"><a xlink:href="stack__allocator_8hpp.html" target="_top" xlink:title=" ">
<polygon fill="white" stroke="#666666" points="229.62,-85.75 105.62,-85.75 105.62,-55.25 229.62,-55.25 229.62,-85.75"/>
<text text-anchor="start" x="113.62" y="-72.25" font-family="Helvetica,sans-Serif" font-size="10.00">yaclib/fault/detail</text>
<text text-anchor="middle" x="167.62" y="-61" font-family="Helvetica,sans-Serif" font-size="10.00">/fiber/stack_allocator.hpp</text>
</a>
</g>
</g>
<!-- Node2&#45;&gt;Node4 -->
<g id="edge3_Node000002_Node000004" class="edge">
<title>Node2&#45;&gt;Node4</title>
<g id="a_edge3_Node000002_Node000004"><a xlink:title=" ">
<path fill="none" stroke="#63b8ff" d="M167.62,-121.36C167.62,-114.27 167.62,-105.54 167.62,-97.38"/>
<polygon fill="#63b8ff" stroke="#63b8ff" points="171.13,-97.59 167.63,-87.59 164.13,-97.59 171.13,-97.59"/>
</a>
</g>
</g>
<!-- Node6 -->
<g id="Node000006" class="node">
<title>Node6</title>
<g id="a_Node000006"><a xlink:title=" ">
<polygon fill="#e0e0e0" stroke="#999999" points="307.75,-80.12 247.5,-80.12 247.5,-60.88 307.75,-60.88 307.75,-80.12"/>
<text text-anchor="middle" x="277.62" y="-66.62" font-family="Helvetica,sans-Serif" font-size="10.00">ucontext.h</text>
</a>
</g>
</g>
<!-- Node2&#45;&gt;Node6 -->
<g id="edge5_Node000002_Node000006" class="edge">
<title>Node2&#45;&gt;Node6</title>
<g id="a_edge5_Node000002_Node000006"><a xlink:title=" ">
<path fill="none" stroke="#63b8ff" d="M192.59,-121.36C210.5,-110.86 234.54,-96.77 252.49,-86.24"/>
<polygon fill="#63b8ff" stroke="#63b8ff" points="254.1,-89.35 260.95,-81.28 250.56,-83.31 254.1,-89.35"/>
</a>
</g>
</g>
<!-- Node5 -->
<g id="Node000005" class="node">
<title>Node5</title>
<g id="a_Node000005"><a xlink:title=" ">
<polygon fill="#e0e0e0" stroke="#999999" points="191.75,-19.25 143.5,-19.25 143.5,0 191.75,0 191.75,-19.25"/>
<text text-anchor="middle" x="167.62" y="-5.75" font-family="Helvetica,sans-Serif" font-size="10.00">cstddef</text>
</a>
</g>
</g>
<!-- Node4&#45;&gt;Node5 -->
<g id="edge4_Node000004_Node000005" class="edge">
<title>Node4&#45;&gt;Node5</title>
<g id="a_edge4_Node000004_Node000005"><a xlink:title=" ">
<path fill="none" stroke="#63b8ff" d="M167.62,-54.95C167.62,-47.71 167.62,-38.84 167.62,-30.94"/>
<polygon fill="#63b8ff" stroke="#63b8ff" points="171.13,-31.21 167.63,-21.21 164.13,-31.21 171.13,-31.21"/>
</a>
</g>
</g>
</g>
</svg>
</svg>

<style type='text/css'>
<![CDATA[
[data-mouse-over-selected='false'] { opacity: 0.7; }
[data-mouse-over-selected='true']  { opacity: 1.0; }
]]>
</style>
<script type="application/ecmascript"><![CDATA[
document.addEventListener('DOMContentLoaded', (event) => {
  highlightEdges();
  highlightAdjacentNodes();
});
]]></script>
</svg>
