<?xml version="1.0" encoding="UTF-8" standalone="no"?>
<!DOCTYPE svg PUBLIC "-//W3C//DTD SVG 1.1//EN"
 "http://www.w3.org/Graphics/SVG/1.1/DTD/svg11.dtd">
<!-- Generated by graphviz version 3.0.0 (20220413.0242)
 -->
<!-- Title: include/yaclib/fault/detail/fiber/execution_context.hpp Pages: 1 -->
<svg width="318pt" height="173pt"
 viewBox="0.00 0.00 317.50 173.00" xmlns="http://www.w3.org/2000/svg" xmlns:xlink="http://www.w3.org/1999/xlink">
<g id="graph0" class="graph" transform="scale(1 1) rotate(0) translate(4 169)">
<title>include/yaclib/fault/detail/fiber/execution_context.hpp</title>
<!-- Node1 -->
<g id="node1" class="node">
<title>Node1</title>
<g id="a_node1"><a xlink:title=" ">
<polygon fill="#bfbfbf" stroke="black" points="114,-123.5 114,-164.5 222,-164.5 222,-123.5 114,-123.5"/>
<text text-anchor="start" x="122" y="-152.5" font-family="Helvetica,sans-Serif" font-size="10.00">include/yaclib/fault</text>
<text text-anchor="start" x="122" y="-141.5" font-family="Helvetica,sans-Serif" font-size="10.00">/detail/fiber/execution</text>
<text text-anchor="middle" x="168" y="-130.5" font-family="Helvetica,sans-Serif" font-size="10.00">_context.hpp</text>
</a>
</g>
</g>
<!-- Node2 -->
<g id="node2" class="node">
<title>Node2</title>
<g id="a_node2"><a xlink:title=" ">
<polygon fill="none" stroke="#bfbfbf" points="0,-62 0,-81 88,-81 88,-62 0,-62"/>
<text text-anchor="middle" x="44" y="-69" font-family="Helvetica,sans-Serif" font-size="10.00">yaclib/config.hpp</text>
</a>
</g>
</g>
<!-- Node1&#45;&gt;Node2 -->
<g id="edge1" class="edge">
<title>Node1&#45;&gt;Node2</title>
<path fill="none" stroke="midnightblue" d="M133.46,-123.36C112.62,-111.51 86.58,-96.71 67.98,-86.14"/>
<polygon fill="midnightblue" stroke="midnightblue" points="69.68,-83.07 59.26,-81.17 66.22,-89.16 69.68,-83.07"/>
</g>
<!-- Node3 -->
<g id="node3" class="node">
<title>Node3</title>
<g id="a_node3"><a xlink:href="stack__allocator_8hpp.html" target="_top" xlink:title=" ">
<polygon fill="none" stroke="black" points="105.5,-56.5 105.5,-86.5 230.5,-86.5 230.5,-56.5 105.5,-56.5"/>
<text text-anchor="start" x="113.5" y="-74.5" font-family="Helvetica,sans-Serif" font-size="10.00">yaclib/fault/detail</text>
<text text-anchor="middle" x="168" y="-63.5" font-family="Helvetica,sans-Serif" font-size="10.00">/fiber/stack_allocator.hpp</text>
</a>
</g>
</g>
<!-- Node1&#45;&gt;Node3 -->
<g id="edge2" class="edge">
<title>Node1&#45;&gt;Node3</title>
<path fill="none" stroke="midnightblue" d="M168,-123.36C168,-115.23 168,-105.7 168,-97.11"/>
<polygon fill="midnightblue" stroke="midnightblue" points="171.5,-96.89 168,-86.89 164.5,-96.89 171.5,-96.89"/>
</g>
<!-- Node5 -->
<g id="node5" class="node">
<title>Node5</title>
<g id="a_node5"><a xlink:title=" ">
<polygon fill="none" stroke="#bfbfbf" points="248.5,-62 248.5,-81 309.5,-81 309.5,-62 248.5,-62"/>
<text text-anchor="middle" x="279" y="-69" font-family="Helvetica,sans-Serif" font-size="10.00">ucontext.h</text>
</a>
</g>
</g>
<!-- Node1&#45;&gt;Node5 -->
<g id="edge4" class="edge">
<title>Node1&#45;&gt;Node5</title>
<path fill="none" stroke="midnightblue" d="M198.92,-123.36C217.32,-111.67 240.24,-97.12 256.84,-86.57"/>
<polygon fill="midnightblue" stroke="midnightblue" points="258.78,-89.49 265.34,-81.17 255.03,-83.58 258.78,-89.49"/>
</g>
<!-- Node4 -->
<g id="node4" class="node">
<title>Node4</title>
<g id="a_node4"><a xlink:title=" ">
<polygon fill="none" stroke="#bfbfbf" points="143.5,-0.5 143.5,-19.5 192.5,-19.5 192.5,-0.5 143.5,-0.5"/>
<text text-anchor="middle" x="168" y="-7.5" font-family="Helvetica,sans-Serif" font-size="10.00">cstddef</text>
</a>
</g>
</g>
<!-- Node3&#45;&gt;Node4 -->
<g id="edge3" class="edge">
<title>Node3&#45;&gt;Node4</title>
<path fill="none" stroke="midnightblue" d="M168,-56.4C168,-48.47 168,-38.46 168,-29.86"/>
<polygon fill="midnightblue" stroke="midnightblue" points="171.5,-29.66 168,-19.66 164.5,-29.66 171.5,-29.66"/>
</g>
</g>
</svg>
