<?xml version="1.0" encoding="UTF-8" standalone="no"?>
<!DOCTYPE svg PUBLIC "-//W3C//DTD SVG 1.1//EN"
 "http://www.w3.org/Graphics/SVG/1.1/DTD/svg11.dtd">
<!-- Generated by graphviz version 3.0.0 (20221109.1736)
 -->
<!-- Title: src/fault/fiber/context/execution_context.cpp Pages: 1 -->
<svg width="318pt" height="229pt"
 viewBox="0.00 0.00 317.50 229.00" xmlns="http://www.w3.org/2000/svg" xmlns:xlink="http://www.w3.org/1999/xlink">
<g id="graph0" class="graph" transform="scale(1 1) rotate(0) translate(4 225)">
<title>src/fault/fiber/context/execution_context.cpp</title>
<!-- Node1 -->
<g id="node1" class="node">
<title>Node1</title>
<g id="a_node1"><a xlink:title=" ">
<polygon fill="#bfbfbf" stroke="black" points="164,-190.5 164,-220.5 280,-220.5 280,-190.5 164,-190.5"/>
<text text-anchor="start" x="172" y="-208.5" font-family="Helvetica,sans-Serif" font-size="10.00">src/fault/fiber/context</text>
<text text-anchor="middle" x="222" y="-197.5" font-family="Helvetica,sans-Serif" font-size="10.00">/execution_context.cpp</text>
</a>
</g>
</g>
<!-- Node2 -->
<g id="node2" class="node">
<title>Node2</title>
<g id="a_node2"><a xlink:href="execution__context_8hpp.html" target="_top" xlink:title=" ">
<polygon fill="none" stroke="black" points="99.5,-123.5 99.5,-153.5 236.5,-153.5 236.5,-123.5 99.5,-123.5"/>
<text text-anchor="start" x="107.5" y="-141.5" font-family="Helvetica,sans-Serif" font-size="10.00">yaclib/fault/detail</text>
<text text-anchor="middle" x="168" y="-130.5" font-family="Helvetica,sans-Serif" font-size="10.00">/fiber/execution_context.hpp</text>
</a>
</g>
</g>
<!-- Node1&#45;&gt;Node2 -->
<g id="edge1" class="edge">
<title>Node1&#45;&gt;Node2</title>
<path fill="none" stroke="midnightblue" d="M210.28,-190.4C203.28,-181.96 194.23,-171.07 186.29,-161.52"/>
<polygon fill="midnightblue" stroke="midnightblue" points="188.78,-159.03 179.69,-153.58 183.39,-163.51 188.78,-159.03"/>
</g>
<!-- Node7 -->
<g id="node7" class="node">
<title>Node7</title>
<g id="a_node7"><a xlink:title=" ">
<polygon fill="none" stroke="#bfbfbf" points="254.5,-129 254.5,-148 299.5,-148 299.5,-129 254.5,-129"/>
<text text-anchor="middle" x="277" y="-136" font-family="Helvetica,sans-Serif" font-size="10.00">cstdlib</text>
</a>
</g>
</g>
<!-- Node1&#45;&gt;Node7 -->
<g id="edge6" class="edge">
<title>Node1&#45;&gt;Node7</title>
<path fill="none" stroke="midnightblue" d="M233.93,-190.4C242.51,-180.26 254.1,-166.57 263.09,-155.94"/>
<polygon fill="midnightblue" stroke="midnightblue" points="265.86,-158.09 269.64,-148.19 260.51,-153.57 265.86,-158.09"/>
</g>
<!-- Node3 -->
<g id="node3" class="node">
<title>Node3</title>
<g id="a_node3"><a xlink:title=" ">
<polygon fill="none" stroke="#bfbfbf" points="0,-62 0,-81 88,-81 88,-62 0,-62"/>
<text text-anchor="middle" x="44" y="-69" font-family="Helvetica,sans-Serif" font-size="10.00">yaclib/config.hpp</text>
</a>
</g>
</g>
<!-- Node2&#45;&gt;Node3 -->
<g id="edge2" class="edge">
<title>Node2&#45;&gt;Node3</title>
<path fill="none" stroke="midnightblue" d="M141.09,-123.4C119.72,-112.19 90.05,-96.64 69.15,-85.69"/>
<polygon fill="midnightblue" stroke="midnightblue" points="70.71,-82.55 60.23,-81.01 67.46,-88.75 70.71,-82.55"/>
</g>
<!-- Node4 -->
<g id="node4" class="node">
<title>Node4</title>
<g id="a_node4"><a xlink:href="stack__allocator_8hpp.html" target="_top" xlink:title=" ">
<polygon fill="none" stroke="black" points="105.5,-56.5 105.5,-86.5 230.5,-86.5 230.5,-56.5 105.5,-56.5"/>
<text text-anchor="start" x="113.5" y="-74.5" font-family="Helvetica,sans-Serif" font-size="10.00">yaclib/fault/detail</text>
<text text-anchor="middle" x="168" y="-63.5" font-family="Helvetica,sans-Serif" font-size="10.00">/fiber/stack_allocator.hpp</text>
</a>
</g>
</g>
<!-- Node2&#45;&gt;Node4 -->
<g id="edge3" class="edge">
<title>Node2&#45;&gt;Node4</title>
<path fill="none" stroke="midnightblue" d="M168,-123.4C168,-115.64 168,-105.81 168,-96.86"/>
<polygon fill="midnightblue" stroke="midnightblue" points="171.5,-96.58 168,-86.58 164.5,-96.58 171.5,-96.58"/>
</g>
<!-- Node6 -->
<g id="node6" class="node">
<title>Node6</title>
<g id="a_node6"><a xlink:title=" ">
<polygon fill="none" stroke="#bfbfbf" points="248.5,-62 248.5,-81 309.5,-81 309.5,-62 248.5,-62"/>
<text text-anchor="middle" x="279" y="-69" font-family="Helvetica,sans-Serif" font-size="10.00">ucontext.h</text>
</a>
</g>
</g>
<!-- Node2&#45;&gt;Node6 -->
<g id="edge5" class="edge">
<title>Node2&#45;&gt;Node6</title>
<path fill="none" stroke="midnightblue" d="M192.09,-123.4C210.96,-112.34 237.06,-97.06 255.72,-86.13"/>
<polygon fill="midnightblue" stroke="midnightblue" points="257.61,-89.08 264.47,-81.01 254.07,-83.04 257.61,-89.08"/>
</g>
<!-- Node5 -->
<g id="node5" class="node">
<title>Node5</title>
<g id="a_node5"><a xlink:title=" ">
<polygon fill="none" stroke="#bfbfbf" points="143.5,-0.5 143.5,-19.5 192.5,-19.5 192.5,-0.5 143.5,-0.5"/>
<text text-anchor="middle" x="168" y="-7.5" font-family="Helvetica,sans-Serif" font-size="10.00">cstddef</text>
</a>
</g>
</g>
<!-- Node4&#45;&gt;Node5 -->
<g id="edge4" class="edge">
<title>Node4&#45;&gt;Node5</title>
<path fill="none" stroke="midnightblue" d="M168,-56.4C168,-48.47 168,-38.46 168,-29.86"/>
<polygon fill="midnightblue" stroke="midnightblue" points="171.5,-29.66 168,-19.66 164.5,-29.66 171.5,-29.66"/>
</g>
</g>
</svg>
