<?xml version="1.0" encoding="UTF-8" standalone="no"?>
<!DOCTYPE svg PUBLIC "-//W3C//DTD SVG 1.1//EN"
 "http://www.w3.org/Graphics/SVG/1.1/DTD/svg11.dtd">
<!-- Generated by graphviz version 9.0.0 (20230911.1827)
 -->
<!-- Title: include/yaclib/runtime/fair_thread_pool.hpp Pages: 1 -->
<svg width="770pt" height="105pt"
 viewBox="0.00 0.00 769.50 105.00" xmlns="http://www.w3.org/2000/svg" xmlns:xlink="http://www.w3.org/1999/xlink">
<g id="graph0" class="graph" transform="scale(1 1) rotate(0) translate(4 101)">
<title>include/yaclib/runtime/fair_thread_pool.hpp</title>
<!-- Node1 -->
<g id="Node000001" class="node">
<title>Node1</title>
<g id="a_Node000001"><a xlink:title=" ">
<polygon fill="#999999" stroke="#666666" points="413.62,-97 303.88,-97 303.88,-66.5 413.62,-66.5 413.62,-97"/>
<text text-anchor="start" x="311.88" y="-83.5" font-family="Helvetica,sans-Serif" font-size="10.00">include/yaclib/runtime</text>
<text text-anchor="middle" x="358.75" y="-72.25" font-family="Helvetica,sans-Serif" font-size="10.00">/fair_thread_pool.hpp</text>
</a>
</g>
</g>
<!-- Node2 -->
<g id="Node000002" class="node">
<title>Node2</title>
<g id="a_Node000002"><a xlink:href="fair__thread__pool_8cpp.html" target="_top" xlink:title=" ">
<polygon fill="white" stroke="#666666" points="113.5,-30.5 0,-30.5 0,0 113.5,0 113.5,-30.5"/>
<text text-anchor="start" x="8" y="-17" font-family="Helvetica,sans-Serif" font-size="10.00">src/runtime/fair_thread</text>
<text text-anchor="middle" x="56.75" y="-5.75" font-family="Helvetica,sans-Serif" font-size="10.00">_pool.cpp</text>
</a>
</g>
</g>
<!-- Node1&#45;&gt;Node2 -->
<g id="edge1_Node000001_Node000002" class="edge">
<title>Node1&#45;&gt;Node2</title>
<g id="a_edge1_Node000001_Node000002"><a xlink:title=" ">
<path fill="none" stroke="#63b8ff" d="M292.41,-66.68C245.11,-56.63 180.01,-42.78 122.75,-30.5 119.88,-29.89 116.95,-29.26 113.99,-28.62"/>
<polygon fill="#63b8ff" stroke="#63b8ff" points="291.44,-70.05 301.95,-68.7 292.89,-63.2 291.44,-70.05"/>
</a>
</g>
</g>
<!-- Node3 -->
<g id="Node000003" class="node">
<title>Node3</title>
<g id="a_Node000003"><a xlink:href="simple_8cpp.html" target="_top" xlink:title=" ">
<polygon fill="white" stroke="#666666" points="231.75,-30.5 131.75,-30.5 131.75,0 231.75,0 231.75,-30.5"/>
<text text-anchor="start" x="139.75" y="-17" font-family="Helvetica,sans-Serif" font-size="10.00">test/example/async</text>
<text text-anchor="middle" x="181.75" y="-5.75" font-family="Helvetica,sans-Serif" font-size="10.00">/simple.cpp</text>
</a>
</g>
</g>
<!-- Node1&#45;&gt;Node3 -->
<g id="edge2_Node000001_Node000003" class="edge">
<title>Node1&#45;&gt;Node3</title>
<g id="a_edge2_Node000001_Node000003"><a xlink:title=" ">
<path fill="none" stroke="#63b8ff" d="M308.06,-62.28C280.77,-52.33 247.57,-40.24 222.06,-30.94"/>
<polygon fill="#63b8ff" stroke="#63b8ff" points="306.57,-65.46 317.16,-65.6 308.97,-58.88 306.57,-65.46"/>
</a>
</g>
</g>
<!-- Node4 -->
<g id="Node000004" class="node">
<title>Node4</title>
<g id="a_Node000004"><a xlink:href="when__all_8cpp.html" target="_top" xlink:title=" ">
<polygon fill="white" stroke="#666666" points="349.75,-30.5 249.75,-30.5 249.75,0 349.75,0 349.75,-30.5"/>
<text text-anchor="start" x="257.75" y="-17" font-family="Helvetica,sans-Serif" font-size="10.00">test/example/async</text>
<text text-anchor="middle" x="299.75" y="-5.75" font-family="Helvetica,sans-Serif" font-size="10.00">/when_all.cpp</text>
</a>
</g>
</g>
<!-- Node1&#45;&gt;Node4 -->
<g id="edge3_Node000001_Node000004" class="edge">
<title>Node1&#45;&gt;Node4</title>
<g id="a_edge3_Node000001_Node000004"><a xlink:title=" ">
<path fill="none" stroke="#63b8ff" d="M337.6,-57.63C329.43,-48.69 320.32,-38.74 313.09,-30.83"/>
<polygon fill="#63b8ff" stroke="#63b8ff" points="335.01,-59.98 344.34,-65 340.17,-55.26 335.01,-59.98"/>
</a>
</g>
</g>
<!-- Node5 -->
<g id="Node000005" class="node">
<title>Node5</title>
<g id="a_Node000005"><a xlink:href="when__any_8cpp.html" target="_top" xlink:title=" ">
<polygon fill="white" stroke="#666666" points="467.75,-30.5 367.75,-30.5 367.75,0 467.75,0 467.75,-30.5"/>
<text text-anchor="start" x="375.75" y="-17" font-family="Helvetica,sans-Serif" font-size="10.00">test/example/async</text>
<text text-anchor="middle" x="417.75" y="-5.75" font-family="Helvetica,sans-Serif" font-size="10.00">/when_any.cpp</text>
</a>
</g>
</g>
<!-- Node1&#45;&gt;Node5 -->
<g id="edge4_Node000001_Node000005" class="edge">
<title>Node1&#45;&gt;Node5</title>
<g id="a_edge4_Node000001_Node000005"><a xlink:title=" ">
<path fill="none" stroke="#63b8ff" d="M379.9,-57.63C388.07,-48.69 397.18,-38.74 404.41,-30.83"/>
<polygon fill="#63b8ff" stroke="#63b8ff" points="377.33,-55.26 373.16,-65 382.49,-59.98 377.33,-55.26"/>
</a>
</g>
</g>
<!-- Node6 -->
<g id="Node000006" class="node">
<title>Node6</title>
<g id="a_Node000006"><a xlink:href="test_2example_2exe_2strand_8cpp.html" target="_top" xlink:title=" ">
<polygon fill="white" stroke="#666666" points="623.5,-24.88 486,-24.88 486,-5.63 623.5,-5.63 623.5,-24.88"/>
<text text-anchor="middle" x="554.75" y="-11.38" font-family="Helvetica,sans-Serif" font-size="10.00">test/example/exe/strand.cpp</text>
</a>
</g>
</g>
<!-- Node1&#45;&gt;Node6 -->
<g id="edge5_Node000001_Node000006" class="edge">
<title>Node1&#45;&gt;Node6</title>
<g id="a_edge5_Node000001_Node000006"><a xlink:title=" ">
<path fill="none" stroke="#63b8ff" d="M413.83,-62.62C450.75,-50.48 497.78,-35 527.09,-25.35"/>
<polygon fill="#63b8ff" stroke="#63b8ff" points="413.07,-59.19 404.66,-65.64 415.26,-65.84 413.07,-59.19"/>
</a>
</g>
</g>
<!-- Node7 -->
<g id="Node000007" class="node">
<title>Node7</title>
<g id="a_Node000007"><a xlink:href="thread__pool_8cpp.html" target="_top" xlink:title=" ">
<polygon fill="white" stroke="#666666" points="761.5,-30.5 642,-30.5 642,0 761.5,0 761.5,-30.5"/>
<text text-anchor="start" x="650" y="-17" font-family="Helvetica,sans-Serif" font-size="10.00">test/example/exe/thread</text>
<text text-anchor="middle" x="701.75" y="-5.75" font-family="Helvetica,sans-Serif" font-size="10.00">_pool.cpp</text>
</a>
</g>
</g>
<!-- Node1&#45;&gt;Node7 -->
<g id="edge6_Node000001_Node000007" class="edge">
<title>Node1&#45;&gt;Node7</title>
<g id="a_edge6_Node000001_Node000007"><a xlink:title=" ">
<path fill="none" stroke="#63b8ff" d="M425.02,-69.02C480.56,-59.09 561.92,-44.31 632.75,-30.5 635.63,-29.94 638.58,-29.36 641.56,-28.76"/>
<polygon fill="#63b8ff" stroke="#63b8ff" points="424.64,-65.53 415.41,-70.74 425.87,-72.43 424.64,-65.53"/>
</a>
</g>
</g>
</g>
</svg>
