<?xml version="1.0" encoding="UTF-8" standalone="no"?>
<!DOCTYPE svg PUBLIC "-//W3C//DTD SVG 1.1//EN"
 "http://www.w3.org/Graphics/SVG/1.1/DTD/svg11.dtd">
<!-- Generated by graphviz version 9.0.0 (20230911.1827)
 -->
<!-- Title: include/yaclib/fault/detail/recursive_mutex.hpp Pages: 1 -->
<svg width="143pt" height="216pt"
 viewBox="0.00 0.00 142.50 215.50" xmlns="http://www.w3.org/2000/svg" xmlns:xlink="http://www.w3.org/1999/xlink">
<g id="graph0" class="graph" transform="scale(1 1) rotate(0) translate(4 211.5)">
<title>include/yaclib/fault/detail/recursive_mutex.hpp</title>
<!-- Node1 -->
<g id="Node000001" class="node">
<title>Node1</title>
<g id="a_Node000001"><a xlink:title=" ">
<polygon fill="#999999" stroke="#666666" points="134.5,-207.5 0,-207.5 0,-177 134.5,-177 134.5,-207.5"/>
<text text-anchor="start" x="8" y="-194" font-family="Helvetica,sans-Serif" font-size="10.00">include/yaclib/fault</text>
<text text-anchor="middle" x="67.25" y="-182.75" font-family="Helvetica,sans-Serif" font-size="10.00">/detail/recursive_mutex.hpp</text>
</a>
</g>
</g>
<!-- Node2 -->
<g id="Node000002" class="node">
<title>Node2</title>
<g id="a_Node000002"><a xlink:href="fault_2detail_2mutex_8hpp.html" target="_top" xlink:title=" ">
<polygon fill="white" stroke="#666666" points="111.62,-141 22.88,-141 22.88,-110.5 111.62,-110.5 111.62,-141"/>
<text text-anchor="start" x="30.88" y="-127.5" font-family="Helvetica,sans-Serif" font-size="10.00">yaclib/fault/detail</text>
<text text-anchor="middle" x="67.25" y="-116.25" font-family="Helvetica,sans-Serif" font-size="10.00">/mutex.hpp</text>
</a>
</g>
</g>
<!-- Node1&#45;&gt;Node2 -->
<g id="edge1_Node000001_Node000002" class="edge">
<title>Node1&#45;&gt;Node2</title>
<g id="a_edge1_Node000001_Node000002"><a xlink:title=" ">
<path fill="none" stroke="#63b8ff" d="M67.25,-176.61C67.25,-169.52 67.25,-160.79 67.25,-152.63"/>
<polygon fill="#63b8ff" stroke="#63b8ff" points="70.75,-152.84 67.25,-142.84 63.75,-152.84 70.75,-152.84"/>
</a>
</g>
</g>
<!-- Node3 -->
<g id="Node000003" class="node">
<title>Node3</title>
<g id="a_Node000003"><a xlink:href="inject_8hpp.html" target="_top" xlink:title=" ">
<polygon fill="white" stroke="#666666" points="120.62,-74.5 13.88,-74.5 13.88,-55.25 120.62,-55.25 120.62,-74.5"/>
<text text-anchor="middle" x="67.25" y="-61" font-family="Helvetica,sans-Serif" font-size="10.00">yaclib/fault/inject.hpp</text>
</a>
</g>
</g>
<!-- Node2&#45;&gt;Node3 -->
<g id="edge2_Node000002_Node000003" class="edge">
<title>Node2&#45;&gt;Node3</title>
<g id="a_edge2_Node000002_Node000003"><a xlink:title=" ">
<path fill="none" stroke="#63b8ff" d="M67.25,-110.2C67.25,-102.96 67.25,-94.09 67.25,-86.19"/>
<polygon fill="#63b8ff" stroke="#63b8ff" points="70.75,-86.46 67.25,-76.46 63.75,-86.46 70.75,-86.46"/>
</a>
</g>
</g>
<!-- Node4 -->
<g id="Node000004" class="node">
<title>Node4</title>
<g id="a_Node000004"><a xlink:title=" ">
<polygon fill="#e0e0e0" stroke="#999999" points="89.88,-19.25 44.62,-19.25 44.62,0 89.88,0 89.88,-19.25"/>
<text text-anchor="middle" x="67.25" y="-5.75" font-family="Helvetica,sans-Serif" font-size="10.00">cstdint</text>
</a>
</g>
</g>
<!-- Node3&#45;&gt;Node4 -->
<g id="edge3_Node000003_Node000004" class="edge">
<title>Node3&#45;&gt;Node4</title>
<g id="a_edge3_Node000003_Node000004"><a xlink:title=" ">
<path fill="none" stroke="#63b8ff" d="M67.25,-55.08C67.25,-48.57 67.25,-39.42 67.25,-31.12"/>
<polygon fill="#63b8ff" stroke="#63b8ff" points="70.75,-31.12 67.25,-21.12 63.75,-31.12 70.75,-31.12"/>
</a>
</g>
</g>
</g>
</svg>
