<?xml version="1.0" encoding="UTF-8" standalone="no"?>
<!DOCTYPE svg PUBLIC "-//W3C//DTD SVG 1.1//EN"
 "http://www.w3.org/Graphics/SVG/1.1/DTD/svg11.dtd">
<!-- Generated by graphviz version 3.0.0 (20221109.1736)
 -->
<!-- Title: include/yaclib/fault/detail/fiber/atomic.hpp Pages: 1 -->
<!--zoomable 575 -->
<svg id="main" version="1.1" xmlns="http://www.w3.org/2000/svg" xmlns:xlink="http://www.w3.org/1999/xlink" xml:space="preserve" onload="init(evt)">
<style type="text/css"><![CDATA[
.edge:hover path { stroke: red; }
.edge:hover polygon { stroke: red; fill: red; }
]]></style>
<script type="text/javascript"><![CDATA[
var edges = document.getElementsByTagName('g');
if (edges && edges.length) {
  for (var i=0;i<edges.length;i++) {
    if (edges[i].id.substr(0,4)=='edge') {
      edges[i].setAttribute('class','edge');
    }
  }
}
]]></script>
        <defs>
                <circle id="rim" cx="0" cy="0" r="7"/>
                <circle id="rim2" cx="0" cy="0" r="3.5"/>
                <g id="zoomPlus">
                        <use xlink:href="#rim" fill="#404040">
                                <set attributeName="fill" to="#808080" begin="zoomplus.mouseover" end="zoomplus.mouseout"/>
                        </use>
                        <path d="M-4,0h8M0,-4v8" fill="none" stroke="white" stroke-width="1.5" pointer-events="none"/>
                </g>
                <g id="zoomMin">
                        <use xlink:href="#rim" fill="#404040">
                                <set attributeName="fill" to="#808080" begin="zoomminus.mouseover" end="zoomminus.mouseout"/>
                        </use>
                        <path d="M-4,0h8" fill="none" stroke="white" stroke-width="1.5" pointer-events="none"/>
                </g>
                <g id="dirArrow">
                        <path fill="none" stroke="white" stroke-width="1.5" d="M0,-3.0v7 M-2.5,-0.5L0,-3.0L2.5,-0.5"/>
                </g>
               <g id="resetDef">
                       <use xlink:href="#rim2" fill="#404040">
                               <set attributeName="fill" to="#808080" begin="reset.mouseover" end="reset.mouseout"/>
                       </use>
               </g>
        </defs>

<script type="text/javascript">
var viewWidth = 1088;
var viewHeight = 575;
var sectionId = 'dynsection-0';
</script>
<script xlink:href="svgpan.js"/>
<svg id="graph" class="graph">
<g id="viewport">
<title>include/yaclib/fault/detail/fiber/atomic.hpp</title>
<!-- Node1 -->
<g id="node1" class="node">
<title>Node1</title>
<g id="a_node1"><a xlink:title=" ">
<polygon fill="#bfbfbf" stroke="black" points="288,-536.5 288,-566.5 402,-566.5 402,-536.5 288,-536.5"/>
<text text-anchor="start" x="296" y="-554.5" font-family="Helvetica,sans-Serif" font-size="10.00">include/yaclib/fault</text>
<text text-anchor="middle" x="345" y="-543.5" font-family="Helvetica,sans-Serif" font-size="10.00">/detail/fiber/atomic.hpp</text>
</a>
</g>
</g>
<!-- Node2 -->
<g id="node2" class="node">
<title>Node2</title>
<g id="a_node2"><a xlink:href="fiber_2atomic__wait_8hpp.html" target="_top" xlink:title=" ">
<polygon fill="none" stroke="black" points="243.5,-469.5 243.5,-499.5 354.5,-499.5 354.5,-469.5 243.5,-469.5"/>
<text text-anchor="start" x="251.5" y="-487.5" font-family="Helvetica,sans-Serif" font-size="10.00">yaclib/fault/detail</text>
<text text-anchor="middle" x="299" y="-476.5" font-family="Helvetica,sans-Serif" font-size="10.00">/fiber/atomic_wait.hpp</text>
</a>
</g>
</g>
<!-- Node1&#45;&gt;Node2 -->
<g id="edge1" class="edge">
<title>Node1&#45;&gt;Node2</title>
<path fill="none" stroke="midnightblue" d="M335.02,-536.4C329.11,-528.05 321.5,-517.29 314.79,-507.81"/>
<polygon fill="midnightblue" stroke="midnightblue" points="317.6,-505.72 308.96,-499.58 311.88,-509.76 317.6,-505.72"/>
</g>
<!-- Node26 -->
<g id="node26" class="node">
<title>Node26</title>
<g id="a_node26"><a xlink:title=" ">
<polygon fill="none" stroke="#bfbfbf" points="372.5,-475 372.5,-494 411.5,-494 411.5,-475 372.5,-475"/>
<text text-anchor="middle" x="392" y="-482" font-family="Helvetica,sans-Serif" font-size="10.00">utility</text>
</a>
</g>
</g>
<!-- Node1&#45;&gt;Node26 -->
<g id="edge43" class="edge">
<title>Node1&#45;&gt;Node26</title>
<path fill="none" stroke="midnightblue" d="M355.2,-536.4C362.38,-526.46 372.04,-513.11 379.66,-502.57"/>
<polygon fill="midnightblue" stroke="midnightblue" points="382.69,-504.35 385.71,-494.19 377.02,-500.25 382.69,-504.35"/>
</g>
<!-- Node3 -->
<g id="node3" class="node">
<title>Node3</title>
<g id="a_node3"><a xlink:title=" ">
<polygon fill="none" stroke="#bfbfbf" points="992,-62 992,-81 1080,-81 1080,-62 992,-62"/>
<text text-anchor="middle" x="1036" y="-69" font-family="Helvetica,sans-Serif" font-size="10.00">yaclib/config.hpp</text>
</a>
</g>
</g>
<!-- Node2&#45;&gt;Node3 -->
<g id="edge2" class="edge">
<title>Node2&#45;&gt;Node3</title>
<path fill="none" stroke="midnightblue" d="M354.63,-470.88C357.79,-470.23 360.94,-469.59 364,-469 520.99,-438.52 1074,-511.42 1074,-351.5 1074,-351.5 1074,-351.5 1074,-215.5 1074,-169.24 1055.19,-117.29 1044.04,-90.56"/>
<polygon fill="midnightblue" stroke="midnightblue" points="1047.23,-89.12 1040.07,-81.32 1040.8,-91.89 1047.23,-89.12"/>
</g>
<!-- Node4 -->
<g id="node4" class="node">
<title>Node4</title>
<g id="a_node4"><a xlink:href="queue_8hpp.html" target="_top" xlink:title=" ">
<polygon fill="none" stroke="black" points="254.5,-402.5 254.5,-432.5 343.5,-432.5 343.5,-402.5 254.5,-402.5"/>
<text text-anchor="start" x="262.5" y="-420.5" font-family="Helvetica,sans-Serif" font-size="10.00">yaclib/fault/detail</text>
<text text-anchor="middle" x="299" y="-409.5" font-family="Helvetica,sans-Serif" font-size="10.00">/fiber/queue.hpp</text>
</a>
</g>
</g>
<!-- Node2&#45;&gt;Node4 -->
<g id="edge3" class="edge">
<title>Node2&#45;&gt;Node4</title>
<path fill="none" stroke="midnightblue" d="M299,-469.4C299,-461.64 299,-451.81 299,-442.86"/>
<polygon fill="midnightblue" stroke="midnightblue" points="302.5,-442.58 299,-432.58 295.5,-442.58 302.5,-442.58"/>
</g>
<!-- Node21 -->
<g id="node21" class="node">
<title>Node21</title>
<g id="a_node21"><a xlink:href="inject_8hpp.html" target="_top" xlink:title=" ">
<polygon fill="none" stroke="black" points="28.5,-207 28.5,-226 135.5,-226 135.5,-207 28.5,-207"/>
<text text-anchor="middle" x="82" y="-214" font-family="Helvetica,sans-Serif" font-size="10.00">yaclib/fault/inject.hpp</text>
</a>
</g>
</g>
<!-- Node2&#45;&gt;Node21 -->
<g id="edge42" class="edge">
<title>Node2&#45;&gt;Node21</title>
<path fill="none" stroke="midnightblue" d="M256.62,-469.35C212.16,-452.19 143.86,-418.83 108,-366 80.88,-326.04 79.35,-266.54 80.61,-236.43"/>
<polygon fill="midnightblue" stroke="midnightblue" points="84.12,-236.29 81.2,-226.1 77.13,-235.88 84.12,-236.29"/>
</g>
<!-- Node5 -->
<g id="node5" class="node">
<title>Node5</title>
<g id="a_node5"><a xlink:href="fiber__base_8hpp.html" target="_top" xlink:title=" ">
<polygon fill="none" stroke="black" points="495.5,-201.5 495.5,-231.5 598.5,-231.5 598.5,-201.5 495.5,-201.5"/>
<text text-anchor="start" x="503.5" y="-219.5" font-family="Helvetica,sans-Serif" font-size="10.00">yaclib/fault/detail</text>
<text text-anchor="middle" x="547" y="-208.5" font-family="Helvetica,sans-Serif" font-size="10.00">/fiber/fiber_base.hpp</text>
</a>
</g>
</g>
<!-- Node4&#45;&gt;Node5 -->
<g id="edge4" class="edge">
<title>Node4&#45;&gt;Node5</title>
<path fill="none" stroke="midnightblue" d="M318.87,-402.45C332.78,-392.48 351.73,-378.69 368,-366 424.37,-322.06 488.36,-267.89 522.49,-238.64"/>
<polygon fill="midnightblue" stroke="midnightblue" points="525.19,-240.94 530.5,-231.77 520.63,-235.62 525.19,-240.94"/>
</g>
<!-- Node13 -->
<g id="node13" class="node">
<title>Node13</title>
<g id="a_node13"><a xlink:title=" ">
<polygon fill="none" stroke="#bfbfbf" points="12,-62 12,-81 56,-81 56,-62 12,-62"/>
<text text-anchor="middle" x="34" y="-69" font-family="Helvetica,sans-Serif" font-size="10.00">vector</text>
</a>
</g>
</g>
<!-- Node4&#45;&gt;Node13 -->
<g id="edge41" class="edge">
<title>Node4&#45;&gt;Node13</title>
<path fill="none" stroke="midnightblue" d="M254.43,-409.77C214.59,-402.59 155.35,-389.02 108,-366 53.92,-339.71 0,-344.63 0,-284.5 0,-284.5 0,-284.5 0,-215.5 0,-169.52 16.84,-117.43 26.82,-90.6"/>
<polygon fill="midnightblue" stroke="midnightblue" points="30.17,-91.63 30.49,-81.04 23.64,-89.12 30.17,-91.63"/>
</g>
<!-- Node20 -->
<g id="node20" class="node">
<title>Node20</title>
<g id="a_node20"><a xlink:href="scheduler_8hpp.html" target="_top" xlink:title=" ">
<polygon fill="none" stroke="black" points="268.5,-268.5 268.5,-298.5 369.5,-298.5 369.5,-268.5 268.5,-268.5"/>
<text text-anchor="start" x="276.5" y="-286.5" font-family="Helvetica,sans-Serif" font-size="10.00">yaclib/fault/detail</text>
<text text-anchor="middle" x="319" y="-275.5" font-family="Helvetica,sans-Serif" font-size="10.00">/fiber/scheduler.hpp</text>
</a>
</g>
</g>
<!-- Node4&#45;&gt;Node20 -->
<g id="edge27" class="edge">
<title>Node4&#45;&gt;Node20</title>
<path fill="none" stroke="midnightblue" d="M321.37,-402.35C333.17,-393.5 346.51,-380.95 353,-366 361.68,-346 350.22,-323.07 338.32,-306.64"/>
<polygon fill="midnightblue" stroke="midnightblue" points="341.06,-304.45 332.17,-298.69 335.52,-308.74 341.06,-304.45"/>
</g>
<!-- Node24 -->
<g id="node24" class="node">
<title>Node24</title>
<g id="a_node24"><a xlink:href="system__clock_8hpp.html" target="_top" xlink:title=" ">
<polygon fill="none" stroke="black" points="117.5,-335.5 117.5,-365.5 236.5,-365.5 236.5,-335.5 117.5,-335.5"/>
<text text-anchor="start" x="125.5" y="-353.5" font-family="Helvetica,sans-Serif" font-size="10.00">yaclib/fault/detail</text>
<text text-anchor="middle" x="177" y="-342.5" font-family="Helvetica,sans-Serif" font-size="10.00">/fiber/system_clock.hpp</text>
</a>
</g>
</g>
<!-- Node4&#45;&gt;Node24 -->
<g id="edge37" class="edge">
<title>Node4&#45;&gt;Node24</title>
<path fill="none" stroke="midnightblue" d="M272.53,-402.4C254.94,-393.03 231.65,-380.62 212.46,-370.39"/>
<polygon fill="midnightblue" stroke="midnightblue" points="213.89,-367.19 203.42,-365.58 210.6,-373.37 213.89,-367.19"/>
</g>
<!-- Node25 -->
<g id="node25" class="node">
<title>Node25</title>
<g id="a_node25"><a xlink:href="wait__status_8hpp.html" target="_top" xlink:title=" ">
<polygon fill="none" stroke="black" points="254.5,-335.5 254.5,-365.5 343.5,-365.5 343.5,-335.5 254.5,-335.5"/>
<text text-anchor="start" x="262.5" y="-353.5" font-family="Helvetica,sans-Serif" font-size="10.00">yaclib/fault/detail</text>
<text text-anchor="middle" x="299" y="-342.5" font-family="Helvetica,sans-Serif" font-size="10.00">/wait_status.hpp</text>
</a>
</g>
</g>
<!-- Node4&#45;&gt;Node25 -->
<g id="edge40" class="edge">
<title>Node4&#45;&gt;Node25</title>
<path fill="none" stroke="midnightblue" d="M299,-402.4C299,-394.64 299,-384.81 299,-375.86"/>
<polygon fill="midnightblue" stroke="midnightblue" points="302.5,-375.58 299,-365.58 295.5,-375.58 302.5,-375.58"/>
</g>
<!-- Node5&#45;&gt;Node3 -->
<g id="edge5" class="edge">
<title>Node5&#45;&gt;Node3</title>
<path fill="none" stroke="midnightblue" d="M598.53,-213.35C714.15,-208.05 986.48,-192.73 1017,-165 1037.36,-146.49 1039.19,-112.5 1038.04,-91.27"/>
<polygon fill="midnightblue" stroke="midnightblue" points="1041.52,-90.91 1037.22,-81.23 1034.54,-91.48 1041.52,-90.91"/>
</g>
<!-- Node6 -->
<g id="node6" class="node">
<title>Node6</title>
<g id="a_node6"><a xlink:href="bidirectional__intrusive__list_8hpp.html" target="_top" xlink:title=" ">
<polygon fill="none" stroke="black" points="252.5,-123.5 252.5,-164.5 347.5,-164.5 347.5,-123.5 252.5,-123.5"/>
<text text-anchor="start" x="260.5" y="-152.5" font-family="Helvetica,sans-Serif" font-size="10.00">yaclib/fault/detail</text>
<text text-anchor="start" x="260.5" y="-141.5" font-family="Helvetica,sans-Serif" font-size="10.00">/fiber/bidirectional</text>
<text text-anchor="middle" x="300" y="-130.5" font-family="Helvetica,sans-Serif" font-size="10.00">_intrusive_list.hpp</text>
</a>
</g>
</g>
<!-- Node5&#45;&gt;Node6 -->
<g id="edge6" class="edge">
<title>Node5&#45;&gt;Node6</title>
<path fill="none" stroke="midnightblue" d="M497.91,-201.49C457.44,-189.94 399.99,-173.54 357.41,-161.39"/>
<polygon fill="midnightblue" stroke="midnightblue" points="358.32,-158.01 347.74,-158.63 356.4,-164.74 358.32,-158.01"/>
</g>
<!-- Node10 -->
<g id="node10" class="node">
<title>Node10</title>
<g id="a_node10"><a xlink:href="default__allocator_8hpp.html" target="_top" xlink:title=" ">
<polygon fill="none" stroke="black" points="66,-129 66,-159 196,-159 196,-129 66,-129"/>
<text text-anchor="start" x="74" y="-147" font-family="Helvetica,sans-Serif" font-size="10.00">yaclib/fault/detail</text>
<text text-anchor="middle" x="131" y="-136" font-family="Helvetica,sans-Serif" font-size="10.00">/fiber/default_allocator.hpp</text>
</a>
</g>
</g>
<!-- Node5&#45;&gt;Node10 -->
<g id="edge10" class="edge">
<title>Node5&#45;&gt;Node10</title>
<path fill="none" stroke="midnightblue" d="M495.35,-202.71C492.53,-202.11 489.74,-201.53 487,-201 379.83,-180.16 351.76,-182.52 244,-165 231.74,-163.01 218.75,-160.8 206.12,-158.6"/>
<polygon fill="midnightblue" stroke="midnightblue" points="206.53,-155.12 196.08,-156.84 205.32,-162.01 206.53,-155.12"/>
</g>
<!-- Node11 -->
<g id="node11" class="node">
<title>Node11</title>
<g id="a_node11"><a xlink:href="stack__allocator_8hpp.html" target="_top" xlink:title=" ">
<polygon fill="none" stroke="black" points="422.5,-56.5 422.5,-86.5 547.5,-86.5 547.5,-56.5 422.5,-56.5"/>
<text text-anchor="start" x="430.5" y="-74.5" font-family="Helvetica,sans-Serif" font-size="10.00">yaclib/fault/detail</text>
<text text-anchor="middle" x="485" y="-63.5" font-family="Helvetica,sans-Serif" font-size="10.00">/fiber/stack_allocator.hpp</text>
</a>
</g>
</g>
<!-- Node5&#45;&gt;Node11 -->
<g id="edge23" class="edge">
<title>Node5&#45;&gt;Node11</title>
<path fill="none" stroke="midnightblue" d="M540.83,-201.27C530.15,-176.64 508.13,-125.86 495.17,-95.95"/>
<polygon fill="midnightblue" stroke="midnightblue" points="498.34,-94.46 491.15,-86.68 491.91,-97.24 498.34,-94.46"/>
</g>
<!-- Node14 -->
<g id="node14" class="node">
<title>Node14</title>
<g id="a_node14"><a xlink:href="execution__context_8hpp.html" target="_top" xlink:title=" ">
<polygon fill="none" stroke="black" points="870.5,-129 870.5,-159 1007.5,-159 1007.5,-129 870.5,-129"/>
<text text-anchor="start" x="878.5" y="-147" font-family="Helvetica,sans-Serif" font-size="10.00">yaclib/fault/detail</text>
<text text-anchor="middle" x="939" y="-136" font-family="Helvetica,sans-Serif" font-size="10.00">/fiber/execution_context.hpp</text>
</a>
</g>
</g>
<!-- Node5&#45;&gt;Node14 -->
<g id="edge16" class="edge">
<title>Node5&#45;&gt;Node14</title>
<path fill="none" stroke="midnightblue" d="M598.66,-208.67C661.11,-200.07 769.24,-184.1 861,-165 866.3,-163.9 871.79,-162.67 877.28,-161.38"/>
<polygon fill="midnightblue" stroke="midnightblue" points="878.23,-164.75 887.13,-159.01 876.59,-157.95 878.23,-164.75"/>
</g>
<!-- Node16 -->
<g id="node16" class="node">
<title>Node16</title>
<g id="a_node16"><a xlink:href="stack_8hpp.html" target="_top" xlink:title=" ">
<polygon fill="none" stroke="black" points="404.5,-129 404.5,-159 493.5,-159 493.5,-129 404.5,-129"/>
<text text-anchor="start" x="412.5" y="-147" font-family="Helvetica,sans-Serif" font-size="10.00">yaclib/fault/detail</text>
<text text-anchor="middle" x="449" y="-136" font-family="Helvetica,sans-Serif" font-size="10.00">/fiber/stack.hpp</text>
</a>
</g>
</g>
<!-- Node5&#45;&gt;Node16 -->
<g id="edge20" class="edge">
<title>Node5&#45;&gt;Node16</title>
<path fill="none" stroke="midnightblue" d="M527.17,-201.23C512.73,-190.85 492.97,-176.63 476.94,-165.1"/>
<polygon fill="midnightblue" stroke="midnightblue" points="478.63,-162 468.47,-159 474.54,-167.69 478.63,-162"/>
</g>
<!-- Node17 -->
<g id="node17" class="node">
<title>Node17</title>
<g id="a_node17"><a xlink:href="wakeup__helper_8hpp.html" target="_top" xlink:title=" ">
<polygon fill="none" stroke="black" points="728,-129 728,-159 852,-159 852,-129 728,-129"/>
<text text-anchor="start" x="736" y="-147" font-family="Helvetica,sans-Serif" font-size="10.00">yaclib/fault/detail</text>
<text text-anchor="middle" x="790" y="-136" font-family="Helvetica,sans-Serif" font-size="10.00">/fiber/wakeup_helper.hpp</text>
</a>
</g>
</g>
<!-- Node5&#45;&gt;Node17 -->
<g id="edge24" class="edge">
<title>Node5&#45;&gt;Node17</title>
<path fill="none" stroke="midnightblue" d="M595.3,-201.49C634.51,-190.11 689.94,-174.03 731.63,-161.93"/>
<polygon fill="midnightblue" stroke="midnightblue" points="732.75,-165.25 741.38,-159.11 730.8,-158.53 732.75,-165.25"/>
</g>
<!-- Node18 -->
<g id="node18" class="node">
<title>Node18</title>
<g id="a_node18"><a xlink:title=" ">
<polygon fill="none" stroke="#bfbfbf" points="550,-134.5 550,-153.5 608,-153.5 608,-134.5 550,-134.5"/>
<text text-anchor="middle" x="579" y="-141.5" font-family="Helvetica,sans-Serif" font-size="10.00">exception</text>
</a>
</g>
</g>
<!-- Node5&#45;&gt;Node18 -->
<g id="edge25" class="edge">
<title>Node5&#45;&gt;Node18</title>
<path fill="none" stroke="midnightblue" d="M553.48,-201.23C558.45,-190.28 565.35,-175.07 570.72,-163.24"/>
<polygon fill="midnightblue" stroke="midnightblue" points="574.02,-164.45 574.96,-153.89 567.64,-161.55 574.02,-164.45"/>
</g>
<!-- Node19 -->
<g id="node19" class="node">
<title>Node19</title>
<g id="a_node19"><a xlink:title=" ">
<polygon fill="none" stroke="#bfbfbf" points="626.5,-134.5 626.5,-153.5 709.5,-153.5 709.5,-134.5 626.5,-134.5"/>
<text text-anchor="middle" x="668" y="-141.5" font-family="Helvetica,sans-Serif" font-size="10.00">unordered_map</text>
</a>
</g>
</g>
<!-- Node5&#45;&gt;Node19 -->
<g id="edge26" class="edge">
<title>Node5&#45;&gt;Node19</title>
<path fill="none" stroke="midnightblue" d="M571.2,-201.4C592.58,-188.94 623.57,-170.88 644.69,-158.58"/>
<polygon fill="midnightblue" stroke="midnightblue" points="646.48,-161.59 653.35,-153.53 642.95,-155.54 646.48,-161.59"/>
</g>
<!-- Node7 -->
<g id="node7" class="node">
<title>Node7</title>
<g id="a_node7"><a xlink:href="log_8hpp.html" target="_top" xlink:title=" ">
<polygon fill="none" stroke="black" points="186.5,-62 186.5,-81 261.5,-81 261.5,-62 186.5,-62"/>
<text text-anchor="middle" x="224" y="-69" font-family="Helvetica,sans-Serif" font-size="10.00">yaclib/log.hpp</text>
</a>
</g>
</g>
<!-- Node6&#45;&gt;Node7 -->
<g id="edge7" class="edge">
<title>Node6&#45;&gt;Node7</title>
<path fill="none" stroke="midnightblue" d="M278.83,-123.36C266.81,-112.21 251.98,-98.46 240.78,-88.06"/>
<polygon fill="midnightblue" stroke="midnightblue" points="243.06,-85.41 233.35,-81.17 238.3,-90.54 243.06,-85.41"/>
</g>
<!-- Node9 -->
<g id="node9" class="node">
<title>Node9</title>
<g id="a_node9"><a xlink:title=" ">
<polygon fill="none" stroke="#bfbfbf" points="108,-62 108,-81 154,-81 154,-62 108,-62"/>
<text text-anchor="middle" x="131" y="-69" font-family="Helvetica,sans-Serif" font-size="10.00">cstdint</text>
</a>
</g>
</g>
<!-- Node6&#45;&gt;Node9 -->
<g id="edge9" class="edge">
<title>Node6&#45;&gt;Node9</title>
<path fill="none" stroke="midnightblue" d="M252.92,-123.36C223.61,-111.13 186.76,-95.76 161.29,-85.14"/>
<polygon fill="midnightblue" stroke="midnightblue" points="162.37,-81.79 151.79,-81.17 159.67,-88.25 162.37,-81.79"/>
</g>
<!-- Node8 -->
<g id="node8" class="node">
<title>Node8</title>
<g id="a_node8"><a xlink:title=" ">
<polygon fill="none" stroke="#bfbfbf" points="191,-0.5 191,-19.5 257,-19.5 257,-0.5 191,-0.5"/>
<text text-anchor="middle" x="224" y="-7.5" font-family="Helvetica,sans-Serif" font-size="10.00">string_view</text>
</a>
</g>
</g>
<!-- Node7&#45;&gt;Node8 -->
<g id="edge8" class="edge">
<title>Node7&#45;&gt;Node8</title>
<path fill="none" stroke="midnightblue" d="M224,-61.98C224,-53.58 224,-40.48 224,-29.66"/>
<polygon fill="midnightblue" stroke="midnightblue" points="227.5,-29.51 224,-19.51 220.5,-29.51 227.5,-29.51"/>
</g>
<!-- Node10&#45;&gt;Node7 -->
<g id="edge13" class="edge">
<title>Node10&#45;&gt;Node7</title>
<path fill="none" stroke="midnightblue" d="M149.82,-128.73C165.67,-116.72 188.27,-99.58 204.36,-87.39"/>
<polygon fill="midnightblue" stroke="midnightblue" points="206.68,-90.02 212.54,-81.19 202.45,-84.44 206.68,-90.02"/>
</g>
<!-- Node10&#45;&gt;Node9 -->
<g id="edge14" class="edge">
<title>Node10&#45;&gt;Node9</title>
<path fill="none" stroke="midnightblue" d="M131,-128.73C131,-118 131,-103.19 131,-91.46"/>
<polygon fill="midnightblue" stroke="midnightblue" points="134.5,-91.39 131,-81.39 127.5,-91.39 134.5,-91.39"/>
</g>
<!-- Node10&#45;&gt;Node11 -->
<g id="edge11" class="edge">
<title>Node10&#45;&gt;Node11</title>
<path fill="none" stroke="midnightblue" d="M196.34,-129.99C257.59,-117.79 349,-99.59 412.48,-86.94"/>
<polygon fill="midnightblue" stroke="midnightblue" points="413.29,-90.35 422.42,-84.96 411.93,-83.48 413.29,-90.35"/>
</g>
<!-- Node10&#45;&gt;Node13 -->
<g id="edge15" class="edge">
<title>Node10&#45;&gt;Node13</title>
<path fill="none" stroke="midnightblue" d="M111.37,-128.73C94.84,-116.72 71.26,-99.58 54.49,-87.39"/>
<polygon fill="midnightblue" stroke="midnightblue" points="56.1,-84.24 45.96,-81.19 51.99,-89.9 56.1,-84.24"/>
</g>
<!-- Node12 -->
<g id="node12" class="node">
<title>Node12</title>
<g id="a_node12"><a xlink:title=" ">
<polygon fill="none" stroke="#bfbfbf" points="414.5,-0.5 414.5,-19.5 463.5,-19.5 463.5,-0.5 414.5,-0.5"/>
<text text-anchor="middle" x="439" y="-7.5" font-family="Helvetica,sans-Serif" font-size="10.00">cstddef</text>
</a>
</g>
</g>
<!-- Node11&#45;&gt;Node12 -->
<g id="edge12" class="edge">
<title>Node11&#45;&gt;Node12</title>
<path fill="none" stroke="midnightblue" d="M474.1,-56.4C467.41,-47.75 458.82,-36.64 451.82,-27.58"/>
<polygon fill="midnightblue" stroke="midnightblue" points="454.58,-25.43 445.69,-19.66 449.04,-29.71 454.58,-25.43"/>
</g>
<!-- Node14&#45;&gt;Node3 -->
<g id="edge17" class="edge">
<title>Node14&#45;&gt;Node3</title>
<path fill="none" stroke="midnightblue" d="M958.63,-128.73C975.16,-116.72 998.74,-99.58 1015.51,-87.39"/>
<polygon fill="midnightblue" stroke="midnightblue" points="1018.01,-89.9 1024.04,-81.19 1013.9,-84.24 1018.01,-89.9"/>
</g>
<!-- Node14&#45;&gt;Node11 -->
<g id="edge18" class="edge">
<title>Node14&#45;&gt;Node11</title>
<path fill="none" stroke="midnightblue" d="M887.59,-128.91C878.76,-126.75 869.64,-124.68 861,-123 756.28,-102.62 633.55,-87.81 557.52,-79.68"/>
<polygon fill="midnightblue" stroke="midnightblue" points="557.89,-76.2 547.57,-78.63 557.15,-83.16 557.89,-76.2"/>
</g>
<!-- Node15 -->
<g id="node15" class="node">
<title>Node15</title>
<g id="a_node15"><a xlink:title=" ">
<polygon fill="none" stroke="#bfbfbf" points="908.5,-62 908.5,-81 969.5,-81 969.5,-62 908.5,-62"/>
<text text-anchor="middle" x="939" y="-69" font-family="Helvetica,sans-Serif" font-size="10.00">ucontext.h</text>
</a>
</g>
</g>
<!-- Node14&#45;&gt;Node15 -->
<g id="edge19" class="edge">
<title>Node14&#45;&gt;Node15</title>
<path fill="none" stroke="midnightblue" d="M939,-128.73C939,-118 939,-103.19 939,-91.46"/>
<polygon fill="midnightblue" stroke="midnightblue" points="942.5,-91.39 939,-81.39 935.5,-91.39 942.5,-91.39"/>
</g>
<!-- Node16&#45;&gt;Node11 -->
<g id="edge21" class="edge">
<title>Node16&#45;&gt;Node11</title>
<path fill="none" stroke="midnightblue" d="M456.29,-128.73C461.12,-119.27 467.57,-106.64 473.13,-95.75"/>
<polygon fill="midnightblue" stroke="midnightblue" points="476.29,-97.24 477.73,-86.75 470.06,-94.06 476.29,-97.24"/>
</g>
<!-- Node16&#45;&gt;Node12 -->
<g id="edge22" class="edge">
<title>Node16&#45;&gt;Node12</title>
<path fill="none" stroke="midnightblue" d="M437.03,-128.89C428.77,-118.17 418.49,-102.65 414,-87 410.2,-73.76 410.54,-69.34 414,-56 416.55,-46.18 421.75,-36.21 426.76,-28.17"/>
<polygon fill="midnightblue" stroke="midnightblue" points="429.75,-29.99 432.37,-19.73 423.92,-26.11 429.75,-29.99"/>
</g>
<!-- Node20&#45;&gt;Node5 -->
<g id="edge29" class="edge">
<title>Node20&#45;&gt;Node5</title>
<path fill="none" stroke="midnightblue" d="M368.19,-268.48C403.28,-258.47 450.64,-244.97 487.8,-234.38"/>
<polygon fill="midnightblue" stroke="midnightblue" points="488.85,-237.72 497.5,-231.61 486.93,-230.99 488.85,-237.72"/>
</g>
<!-- Node20&#45;&gt;Node7 -->
<g id="edge34" class="edge">
<title>Node20&#45;&gt;Node7</title>
<path fill="none" stroke="midnightblue" d="M307.48,-268.23C290.92,-247.01 260.58,-205.28 244,-165 233.96,-140.6 228.64,-110.42 226.08,-91.3"/>
<polygon fill="midnightblue" stroke="midnightblue" points="229.53,-90.72 224.84,-81.22 222.59,-91.57 229.53,-90.72"/>
</g>
<!-- Node20&#45;&gt;Node10 -->
<g id="edge28" class="edge">
<title>Node20&#45;&gt;Node10</title>
<path fill="none" stroke="midnightblue" d="M299.99,-268.28C278.11,-251.95 241.07,-224.39 209,-201 192.56,-189.01 174.07,-175.73 159.22,-165.1"/>
<polygon fill="midnightblue" stroke="midnightblue" points="161.11,-162.15 150.94,-159.19 157.04,-167.85 161.11,-162.15"/>
</g>
<!-- Node20&#45;&gt;Node11 -->
<g id="edge31" class="edge">
<title>Node20&#45;&gt;Node11</title>
<path fill="none" stroke="midnightblue" d="M322.66,-268.49C331.09,-238.56 354.4,-167.46 396,-123 408.38,-109.77 425.02,-99.07 440.56,-90.98"/>
<polygon fill="midnightblue" stroke="midnightblue" points="442.15,-94.1 449.55,-86.52 439.03,-87.83 442.15,-94.1"/>
</g>
<!-- Node20&#45;&gt;Node16 -->
<g id="edge30" class="edge">
<title>Node20&#45;&gt;Node16</title>
<path fill="none" stroke="midnightblue" d="M343.01,-268.48C357.6,-259.26 376.04,-246.28 390,-232 408.91,-212.67 425.69,-186.57 436.48,-168.01"/>
<polygon fill="midnightblue" stroke="midnightblue" points="439.66,-169.5 441.55,-159.07 433.57,-166.04 439.66,-169.5"/>
</g>
<!-- Node20&#45;&gt;Node21 -->
<g id="edge32" class="edge">
<title>Node20&#45;&gt;Node21</title>
<path fill="none" stroke="midnightblue" d="M268.45,-268.64C225.09,-256.74 163.39,-239.82 123.03,-228.75"/>
<polygon fill="midnightblue" stroke="midnightblue" points="123.82,-225.34 113.25,-226.07 121.97,-232.09 123.82,-225.34"/>
</g>
<!-- Node22 -->
<g id="node22" class="node">
<title>Node22</title>
<g id="a_node22"><a xlink:title=" ">
<polygon fill="none" stroke="#bfbfbf" points="154,-207 154,-226 200,-226 200,-207 154,-207"/>
<text text-anchor="middle" x="177" y="-214" font-family="Helvetica,sans-Serif" font-size="10.00">chrono</text>
</a>
</g>
</g>
<!-- Node20&#45;&gt;Node22 -->
<g id="edge35" class="edge">
<title>Node20&#45;&gt;Node22</title>
<path fill="none" stroke="midnightblue" d="M288.19,-268.4C263.38,-257.04 228.82,-241.22 204.84,-230.24"/>
<polygon fill="midnightblue" stroke="midnightblue" points="206.13,-226.99 195.58,-226.01 203.22,-233.35 206.13,-226.99"/>
</g>
<!-- Node23 -->
<g id="node23" class="node">
<title>Node23</title>
<g id="a_node23"><a xlink:title=" ">
<polygon fill="none" stroke="#bfbfbf" points="442.5,-207 442.5,-226 477.5,-226 477.5,-207 442.5,-207"/>
<text text-anchor="middle" x="460" y="-214" font-family="Helvetica,sans-Serif" font-size="10.00">map</text>
</a>
</g>
</g>
<!-- Node20&#45;&gt;Node23 -->
<g id="edge36" class="edge">
<title>Node20&#45;&gt;Node23</title>
<path fill="none" stroke="midnightblue" d="M349.59,-268.4C374.51,-256.91 409.34,-240.85 433.18,-229.86"/>
<polygon fill="midnightblue" stroke="midnightblue" points="434.73,-233 442.35,-225.64 431.8,-226.64 434.73,-233"/>
</g>
<!-- Node21&#45;&gt;Node9 -->
<g id="edge33" class="edge">
<title>Node21&#45;&gt;Node9</title>
<path fill="none" stroke="midnightblue" d="M75.66,-206.87C64.06,-189.94 41.93,-151.54 57,-123 65.99,-105.99 83.57,-93.62 99.34,-85.39"/>
<polygon fill="midnightblue" stroke="midnightblue" points="100.88,-88.53 108.34,-81.01 97.82,-82.24 100.88,-88.53"/>
</g>
<!-- Node24&#45;&gt;Node20 -->
<g id="edge38" class="edge">
<title>Node24&#45;&gt;Node20</title>
<path fill="none" stroke="midnightblue" d="M207.81,-335.4C228.65,-325.86 256.38,-313.16 278.93,-302.84"/>
<polygon fill="midnightblue" stroke="midnightblue" points="280.61,-305.92 288.25,-298.58 277.7,-299.56 280.61,-305.92"/>
</g>
<!-- Node24&#45;&gt;Node22 -->
<g id="edge39" class="edge">
<title>Node24&#45;&gt;Node22</title>
<path fill="none" stroke="midnightblue" d="M177,-335.37C177,-311.5 177,-263.18 177,-236.41"/>
<polygon fill="midnightblue" stroke="midnightblue" points="180.5,-236.1 177,-226.1 173.5,-236.1 180.5,-236.1"/>
</g>
</g>
</svg>
        <g id="navigator" transform="translate(0 0)" fill="#404254">
                <rect fill="#f2f5e9" fill-opacity="0.5" stroke="#606060" stroke-width=".5" x="0" y="0" width="60" height="60"/>
                <use id="zoomplus" xlink:href="#zoomPlus" x="17" y="9" onmousedown="handleZoom(evt,'in')"/>
                <use id="zoomminus" xlink:href="#zoomMin" x="42" y="9" onmousedown="handleZoom(evt,'out')"/>
                <use id="reset" xlink:href="#resetDef" x="30" y="36" onmousedown="handleReset()"/>
                <g id="arrowUp" xlink:href="#dirArrow" transform="translate(30 24)" onmousedown="handlePan(0,-1)">
                  <use xlink:href="#rim" fill="#404040">
                        <set attributeName="fill" to="#808080" begin="arrowUp.mouseover" end="arrowUp.mouseout"/>
                  </use>
                  <path fill="none" stroke="white" stroke-width="1.5" d="M0,-3.0v7 M-2.5,-0.5L0,-3.0L2.5,-0.5"/>
                </g>
                <g id="arrowRight" xlink:href="#dirArrow" transform="rotate(90) translate(36 -43)" onmousedown="handlePan(1,0)">
                  <use xlink:href="#rim" fill="#404040">
                        <set attributeName="fill" to="#808080" begin="arrowRight.mouseover" end="arrowRight.mouseout"/>
                  </use>
                  <path fill="none" stroke="white" stroke-width="1.5" d="M0,-3.0v7 M-2.5,-0.5L0,-3.0L2.5,-0.5"/>
                </g>
                <g id="arrowDown" xlink:href="#dirArrow" transform="rotate(180) translate(-30 -48)" onmousedown="handlePan(0,1)">
                  <use xlink:href="#rim" fill="#404040">
                        <set attributeName="fill" to="#808080" begin="arrowDown.mouseover" end="arrowDown.mouseout"/>
                  </use>
                  <path fill="none" stroke="white" stroke-width="1.5" d="M0,-3.0v7 M-2.5,-0.5L0,-3.0L2.5,-0.5"/>
                </g>
                <g id="arrowLeft" xlink:href="#dirArrow" transform="rotate(270) translate(-36 17)" onmousedown="handlePan(-1,0)">
                  <use xlink:href="#rim" fill="#404040">
                        <set attributeName="fill" to="#808080" begin="arrowLeft.mouseover" end="arrowLeft.mouseout"/>
                  </use>
                  <path fill="none" stroke="white" stroke-width="1.5" d="M0,-3.0v7 M-2.5,-0.5L0,-3.0L2.5,-0.5"/>
                </g>
        </g>
        <svg viewBox="0 0 15 15" width="100%" height="30px" preserveAspectRatio="xMaxYMin meet">
         <g id="arrow_out" transform="scale(0.3 0.3)">
          <a xlink:href="fault_2detail_2fiber_2atomic_8hpp__incl_org.svg" target="_base">
           <rect id="button" ry="5" rx="5" y="6" x="6" height="38" width="38"
                fill="#f2f5e9" fill-opacity="0.5" stroke="#606060" stroke-width="1.0"/>
           <path id="arrow"
             d="M 11.500037,31.436501 C 11.940474,20.09759 22.043105,11.32322 32.158766,21.979434 L 37.068811,17.246167 C 37.068811,17.246167 37.088388,32 37.088388,32 L 22.160133,31.978069 C 22.160133,31.978069 26.997745,27.140456 26.997745,27.140456 C 18.528582,18.264221 13.291696,25.230495 11.500037,31.436501 z"
             style="fill:#404040;"/>
          </a>
         </g>
        </svg>
</svg>
