<?xml version="1.0" encoding="UTF-8" standalone="no"?>
<!DOCTYPE svg PUBLIC "-//W3C//DTD SVG 1.1//EN"
 "http://www.w3.org/Graphics/SVG/1.1/DTD/svg11.dtd">
<!-- Generated by graphviz version 3.0.0 (20220413.0242)
 -->
<!-- Title: include/yaclib/fault/detail/fiber/atomic.hpp Pages: 1 -->
<svg width="1086pt" height="575pt"
 viewBox="0.00 0.00 1086.00 575.00" xmlns="http://www.w3.org/2000/svg" xmlns:xlink="http://www.w3.org/1999/xlink">
<g id="graph0" class="graph" transform="scale(1 1) rotate(0) translate(4 571)">
<title>include/yaclib/fault/detail/fiber/atomic.hpp</title>
<!-- Node1 -->
<g id="node1" class="node">
<title>Node1</title>
<g id="a_node1"><a xlink:title=" ">
<polygon fill="#bfbfbf" stroke="black" points="280,-536.5 280,-566.5 394,-566.5 394,-536.5 280,-536.5"/>
<text text-anchor="start" x="288" y="-554.5" font-family="Helvetica,sans-Serif" font-size="10.00">include/yaclib/fault</text>
<text text-anchor="middle" x="337" y="-543.5" font-family="Helvetica,sans-Serif" font-size="10.00">/detail/fiber/atomic.hpp</text>
</a>
</g>
</g>
<!-- Node2 -->
<g id="node2" class="node">
<title>Node2</title>
<g id="a_node2"><a xlink:href="fiber_2atomic__wait_8hpp.html" target="_top" xlink:title=" ">
<polygon fill="none" stroke="black" points="235.5,-469.5 235.5,-499.5 346.5,-499.5 346.5,-469.5 235.5,-469.5"/>
<text text-anchor="start" x="243.5" y="-487.5" font-family="Helvetica,sans-Serif" font-size="10.00">yaclib/fault/detail</text>
<text text-anchor="middle" x="291" y="-476.5" font-family="Helvetica,sans-Serif" font-size="10.00">/fiber/atomic_wait.hpp</text>
</a>
</g>
</g>
<!-- Node1&#45;&gt;Node2 -->
<g id="edge1" class="edge">
<title>Node1&#45;&gt;Node2</title>
<path fill="none" stroke="midnightblue" d="M327.02,-536.4C321.11,-528.05 313.5,-517.29 306.79,-507.81"/>
<polygon fill="midnightblue" stroke="midnightblue" points="309.6,-505.72 300.96,-499.58 303.88,-509.76 309.6,-505.72"/>
</g>
<!-- Node26 -->
<g id="node26" class="node">
<title>Node26</title>
<g id="a_node26"><a xlink:title=" ">
<polygon fill="none" stroke="#bfbfbf" points="364.5,-475 364.5,-494 403.5,-494 403.5,-475 364.5,-475"/>
<text text-anchor="middle" x="384" y="-482" font-family="Helvetica,sans-Serif" font-size="10.00">utility</text>
</a>
</g>
</g>
<!-- Node1&#45;&gt;Node26 -->
<g id="edge42" class="edge">
<title>Node1&#45;&gt;Node26</title>
<path fill="none" stroke="midnightblue" d="M347.2,-536.4C354.38,-526.46 364.04,-513.11 371.66,-502.57"/>
<polygon fill="midnightblue" stroke="midnightblue" points="374.69,-504.35 377.71,-494.19 369.02,-500.25 374.69,-504.35"/>
</g>
<!-- Node3 -->
<g id="node3" class="node">
<title>Node3</title>
<g id="a_node3"><a xlink:title=" ">
<polygon fill="none" stroke="#bfbfbf" points="0,-62 0,-81 88,-81 88,-62 0,-62"/>
<text text-anchor="middle" x="44" y="-69" font-family="Helvetica,sans-Serif" font-size="10.00">yaclib/config.hpp</text>
</a>
</g>
</g>
<!-- Node2&#45;&gt;Node3 -->
<g id="edge2" class="edge">
<title>Node2&#45;&gt;Node3</title>
<path fill="none" stroke="midnightblue" d="M235.37,-481.81C152.43,-476 6,-451.56 6,-351.5 6,-351.5 6,-351.5 6,-215.5 6,-169.24 24.81,-117.29 35.96,-90.56"/>
<polygon fill="midnightblue" stroke="midnightblue" points="39.2,-91.89 39.93,-81.32 32.77,-89.12 39.2,-91.89"/>
</g>
<!-- Node4 -->
<g id="node4" class="node">
<title>Node4</title>
<g id="a_node4"><a xlink:href="queue_8hpp.html" target="_top" xlink:title=" ">
<polygon fill="none" stroke="black" points="753.5,-402.5 753.5,-432.5 842.5,-432.5 842.5,-402.5 753.5,-402.5"/>
<text text-anchor="start" x="761.5" y="-420.5" font-family="Helvetica,sans-Serif" font-size="10.00">yaclib/fault/detail</text>
<text text-anchor="middle" x="798" y="-409.5" font-family="Helvetica,sans-Serif" font-size="10.00">/fiber/queue.hpp</text>
</a>
</g>
</g>
<!-- Node2&#45;&gt;Node4 -->
<g id="edge3" class="edge">
<title>Node2&#45;&gt;Node4</title>
<path fill="none" stroke="midnightblue" d="M346.78,-470.49C349.55,-469.96 352.3,-469.46 355,-469 494.01,-445.4 659.48,-429.82 743.38,-422.79"/>
<polygon fill="midnightblue" stroke="midnightblue" points="743.77,-426.27 753.44,-421.96 743.19,-419.3 743.77,-426.27"/>
</g>
<!-- Node21 -->
<g id="node21" class="node">
<title>Node21</title>
<g id="a_node21"><a xlink:href="inject_8hpp.html" target="_top" xlink:title=" ">
<polygon fill="none" stroke="black" points="237.5,-207 237.5,-226 344.5,-226 344.5,-207 237.5,-207"/>
<text text-anchor="middle" x="291" y="-214" font-family="Helvetica,sans-Serif" font-size="10.00">yaclib/fault/inject.hpp</text>
</a>
</g>
</g>
<!-- Node2&#45;&gt;Node21 -->
<g id="edge41" class="edge">
<title>Node2&#45;&gt;Node21</title>
<path fill="none" stroke="midnightblue" d="M291,-469.2C291,-424.35 291,-286.45 291,-236.13"/>
<polygon fill="midnightblue" stroke="midnightblue" points="294.5,-236.05 291,-226.05 287.5,-236.05 294.5,-236.05"/>
</g>
<!-- Node5 -->
<g id="node5" class="node">
<title>Node5</title>
<g id="a_node5"><a xlink:href="fiber__base_8hpp.html" target="_top" xlink:title=" ">
<polygon fill="none" stroke="black" points="566.5,-201.5 566.5,-231.5 669.5,-231.5 669.5,-201.5 566.5,-201.5"/>
<text text-anchor="start" x="574.5" y="-219.5" font-family="Helvetica,sans-Serif" font-size="10.00">yaclib/fault/detail</text>
<text text-anchor="middle" x="618" y="-208.5" font-family="Helvetica,sans-Serif" font-size="10.00">/fiber/fiber_base.hpp</text>
</a>
</g>
</g>
<!-- Node4&#45;&gt;Node5 -->
<g id="edge4" class="edge">
<title>Node4&#45;&gt;Node5</title>
<path fill="none" stroke="midnightblue" d="M753.23,-408.88C725.6,-402.01 691.3,-389.27 669,-366 635.78,-331.35 624.13,-274.1 620.1,-241.74"/>
<polygon fill="midnightblue" stroke="midnightblue" points="623.57,-241.35 619,-231.79 616.62,-242.12 623.57,-241.35"/>
</g>
<!-- Node13 -->
<g id="node13" class="node">
<title>Node13</title>
<g id="a_node13"><a xlink:title=" ">
<polygon fill="none" stroke="#bfbfbf" points="1029,-62 1029,-81 1073,-81 1073,-62 1029,-62"/>
<text text-anchor="middle" x="1051" y="-69" font-family="Helvetica,sans-Serif" font-size="10.00">vector</text>
</a>
</g>
</g>
<!-- Node4&#45;&gt;Node13 -->
<g id="edge40" class="edge">
<title>Node4&#45;&gt;Node13</title>
<path fill="none" stroke="midnightblue" d="M842.68,-415.16C921.73,-410.16 1078,-387.28 1078,-284.5 1078,-284.5 1078,-284.5 1078,-215.5 1078,-169.98 1064.63,-117.7 1056.7,-90.72"/>
<polygon fill="midnightblue" stroke="midnightblue" points="1060.04,-89.65 1053.79,-81.1 1053.34,-91.68 1060.04,-89.65"/>
</g>
<!-- Node20 -->
<g id="node20" class="node">
<title>Node20</title>
<g id="a_node20"><a xlink:href="scheduler_8hpp.html" target="_top" xlink:title=" ">
<polygon fill="none" stroke="black" points="787.5,-268.5 787.5,-298.5 888.5,-298.5 888.5,-268.5 787.5,-268.5"/>
<text text-anchor="start" x="795.5" y="-286.5" font-family="Helvetica,sans-Serif" font-size="10.00">yaclib/fault/detail</text>
<text text-anchor="middle" x="838" y="-275.5" font-family="Helvetica,sans-Serif" font-size="10.00">/fiber/scheduler.hpp</text>
</a>
</g>
</g>
<!-- Node4&#45;&gt;Node20 -->
<g id="edge26" class="edge">
<title>Node4&#45;&gt;Node20</title>
<path fill="none" stroke="midnightblue" d="M842.6,-409.17C867.86,-402.48 897.44,-389.83 913,-366 920.53,-354.46 919.47,-347.16 913,-335 906.06,-321.95 894.08,-311.67 881.7,-303.89"/>
<polygon fill="midnightblue" stroke="midnightblue" points="883.1,-300.65 872.69,-298.66 879.58,-306.7 883.1,-300.65"/>
</g>
<!-- Node24 -->
<g id="node24" class="node">
<title>Node24</title>
<g id="a_node24"><a xlink:href="system__clock_8hpp.html" target="_top" xlink:title=" ">
<polygon fill="none" stroke="black" points="677.5,-335.5 677.5,-365.5 796.5,-365.5 796.5,-335.5 677.5,-335.5"/>
<text text-anchor="start" x="685.5" y="-353.5" font-family="Helvetica,sans-Serif" font-size="10.00">yaclib/fault/detail</text>
<text text-anchor="middle" x="737" y="-342.5" font-family="Helvetica,sans-Serif" font-size="10.00">/fiber/system_clock.hpp</text>
</a>
</g>
</g>
<!-- Node4&#45;&gt;Node24 -->
<g id="edge36" class="edge">
<title>Node4&#45;&gt;Node24</title>
<path fill="none" stroke="midnightblue" d="M784.76,-402.4C776.69,-393.79 766.21,-382.63 757.13,-372.94"/>
<polygon fill="midnightblue" stroke="midnightblue" points="759.61,-370.47 750.21,-365.58 754.5,-375.26 759.61,-370.47"/>
</g>
<!-- Node25 -->
<g id="node25" class="node">
<title>Node25</title>
<g id="a_node25"><a xlink:href="wait__status_8hpp.html" target="_top" xlink:title=" ">
<polygon fill="none" stroke="black" points="814.5,-335.5 814.5,-365.5 903.5,-365.5 903.5,-335.5 814.5,-335.5"/>
<text text-anchor="start" x="822.5" y="-353.5" font-family="Helvetica,sans-Serif" font-size="10.00">yaclib/fault/detail</text>
<text text-anchor="middle" x="859" y="-342.5" font-family="Helvetica,sans-Serif" font-size="10.00">/wait_status.hpp</text>
</a>
</g>
</g>
<!-- Node4&#45;&gt;Node25 -->
<g id="edge39" class="edge">
<title>Node4&#45;&gt;Node25</title>
<path fill="none" stroke="midnightblue" d="M811.24,-402.4C819.31,-393.79 829.79,-382.63 838.87,-372.94"/>
<polygon fill="midnightblue" stroke="midnightblue" points="841.5,-375.26 845.79,-365.58 836.39,-370.47 841.5,-375.26"/>
</g>
<!-- Node5&#45;&gt;Node3 -->
<g id="edge5" class="edge">
<title>Node5&#45;&gt;Node3</title>
<path fill="none" stroke="midnightblue" d="M566.14,-213.04C442.91,-206.83 139.88,-189.26 101,-165 73.76,-148 57.54,-112.7 49.73,-90.96"/>
<polygon fill="midnightblue" stroke="midnightblue" points="52.98,-89.63 46.48,-81.26 46.34,-91.85 52.98,-89.63"/>
</g>
<!-- Node6 -->
<g id="node6" class="node">
<title>Node6</title>
<g id="a_node6"><a xlink:href="bidirectional__intrusive__list_8hpp.html" target="_top" xlink:title=" ">
<polygon fill="none" stroke="black" points="442.5,-123.5 442.5,-164.5 537.5,-164.5 537.5,-123.5 442.5,-123.5"/>
<text text-anchor="start" x="450.5" y="-152.5" font-family="Helvetica,sans-Serif" font-size="10.00">yaclib/fault/detail</text>
<text text-anchor="start" x="450.5" y="-141.5" font-family="Helvetica,sans-Serif" font-size="10.00">/fiber/bidirectional</text>
<text text-anchor="middle" x="490" y="-130.5" font-family="Helvetica,sans-Serif" font-size="10.00">_intrusive_list.hpp</text>
</a>
</g>
</g>
<!-- Node5&#45;&gt;Node6 -->
<g id="edge6" class="edge">
<title>Node5&#45;&gt;Node6</title>
<path fill="none" stroke="midnightblue" d="M592.4,-201.4C575.9,-192.31 554,-180.25 534.68,-169.61"/>
<polygon fill="midnightblue" stroke="midnightblue" points="536.18,-166.44 525.73,-164.68 532.8,-172.57 536.18,-166.44"/>
</g>
<!-- Node10 -->
<g id="node10" class="node">
<title>Node10</title>
<g id="a_node10"><a xlink:href="default__allocator_8hpp.html" target="_top" xlink:title=" ">
<polygon fill="none" stroke="black" points="882,-129 882,-159 1012,-159 1012,-129 882,-129"/>
<text text-anchor="start" x="890" y="-147" font-family="Helvetica,sans-Serif" font-size="10.00">yaclib/fault/detail</text>
<text text-anchor="middle" x="947" y="-136" font-family="Helvetica,sans-Serif" font-size="10.00">/fiber/default_allocator.hpp</text>
</a>
</g>
</g>
<!-- Node5&#45;&gt;Node10 -->
<g id="edge10" class="edge">
<title>Node5&#45;&gt;Node10</title>
<path fill="none" stroke="midnightblue" d="M669.77,-204.41C724.11,-192.76 810.07,-174.34 871.87,-161.1"/>
<polygon fill="midnightblue" stroke="midnightblue" points="872.91,-164.46 881.95,-158.94 871.44,-157.61 872.91,-164.46"/>
</g>
<!-- Node11 -->
<g id="node11" class="node">
<title>Node11</title>
<g id="a_node11"><a xlink:href="stack__allocator_8hpp.html" target="_top" xlink:title=" ">
<polygon fill="none" stroke="black" points="682.5,-56.5 682.5,-86.5 807.5,-86.5 807.5,-56.5 682.5,-56.5"/>
<text text-anchor="start" x="690.5" y="-74.5" font-family="Helvetica,sans-Serif" font-size="10.00">yaclib/fault/detail</text>
<text text-anchor="middle" x="745" y="-63.5" font-family="Helvetica,sans-Serif" font-size="10.00">/fiber/stack_allocator.hpp</text>
</a>
</g>
</g>
<!-- Node5&#45;&gt;Node11 -->
<g id="edge22" class="edge">
<title>Node5&#45;&gt;Node11</title>
<path fill="none" stroke="midnightblue" d="M642.94,-201.31C657.52,-192.21 675.62,-179.41 689,-165 708.34,-144.17 724.4,-115.62 734.28,-95.77"/>
<polygon fill="midnightblue" stroke="midnightblue" points="737.55,-97.06 738.75,-86.53 731.25,-94.01 737.55,-97.06"/>
</g>
<!-- Node14 -->
<g id="node14" class="node">
<title>Node14</title>
<g id="a_node14"><a xlink:href="execution__context_8hpp.html" target="_top" xlink:title=" ">
<polygon fill="none" stroke="black" points="287.5,-129 287.5,-159 424.5,-159 424.5,-129 287.5,-129"/>
<text text-anchor="start" x="295.5" y="-147" font-family="Helvetica,sans-Serif" font-size="10.00">yaclib/fault/detail</text>
<text text-anchor="middle" x="356" y="-136" font-family="Helvetica,sans-Serif" font-size="10.00">/fiber/execution_context.hpp</text>
</a>
</g>
</g>
<!-- Node5&#45;&gt;Node14 -->
<g id="edge15" class="edge">
<title>Node5&#45;&gt;Node14</title>
<path fill="none" stroke="midnightblue" d="M566.24,-201.57C523.58,-190.09 462.98,-173.79 417.79,-161.63"/>
<polygon fill="midnightblue" stroke="midnightblue" points="418.67,-158.24 408.1,-159.02 416.85,-165 418.67,-158.24"/>
</g>
<!-- Node16 -->
<g id="node16" class="node">
<title>Node16</title>
<g id="a_node16"><a xlink:href="stack_8hpp.html" target="_top" xlink:title=" ">
<polygon fill="none" stroke="black" points="736.5,-129 736.5,-159 825.5,-159 825.5,-129 736.5,-129"/>
<text text-anchor="start" x="744.5" y="-147" font-family="Helvetica,sans-Serif" font-size="10.00">yaclib/fault/detail</text>
<text text-anchor="middle" x="781" y="-136" font-family="Helvetica,sans-Serif" font-size="10.00">/fiber/stack.hpp</text>
</a>
</g>
</g>
<!-- Node5&#45;&gt;Node16 -->
<g id="edge19" class="edge">
<title>Node5&#45;&gt;Node16</title>
<path fill="none" stroke="midnightblue" d="M650.59,-201.4C676.02,-190.4 711.54,-175.04 739.08,-163.13"/>
<polygon fill="midnightblue" stroke="midnightblue" points="740.67,-166.26 748.46,-159.07 737.9,-159.83 740.67,-166.26"/>
</g>
<!-- Node17 -->
<g id="node17" class="node">
<title>Node17</title>
<g id="a_node17"><a xlink:href="wakeup__helper_8hpp.html" target="_top" xlink:title=" ">
<polygon fill="none" stroke="black" points="556,-129 556,-159 680,-159 680,-129 556,-129"/>
<text text-anchor="start" x="564" y="-147" font-family="Helvetica,sans-Serif" font-size="10.00">yaclib/fault/detail</text>
<text text-anchor="middle" x="618" y="-136" font-family="Helvetica,sans-Serif" font-size="10.00">/fiber/wakeup_helper.hpp</text>
</a>
</g>
</g>
<!-- Node5&#45;&gt;Node17 -->
<g id="edge23" class="edge">
<title>Node5&#45;&gt;Node17</title>
<path fill="none" stroke="midnightblue" d="M618,-201.23C618,-192.16 618,-180.16 618,-169.58"/>
<polygon fill="midnightblue" stroke="midnightblue" points="621.5,-169.25 618,-159.25 614.5,-169.25 621.5,-169.25"/>
</g>
<!-- Node18 -->
<g id="node18" class="node">
<title>Node18</title>
<g id="a_node18"><a xlink:title=" ">
<polygon fill="none" stroke="#bfbfbf" points="110,-134.5 110,-153.5 168,-153.5 168,-134.5 110,-134.5"/>
<text text-anchor="middle" x="139" y="-141.5" font-family="Helvetica,sans-Serif" font-size="10.00">exception</text>
</a>
</g>
</g>
<!-- Node5&#45;&gt;Node18 -->
<g id="edge24" class="edge">
<title>Node5&#45;&gt;Node18</title>
<path fill="none" stroke="midnightblue" d="M566.27,-211.98C465.97,-204.77 248.61,-187.09 177,-165 171.79,-163.39 166.46,-161.07 161.49,-158.58"/>
<polygon fill="midnightblue" stroke="midnightblue" points="163,-155.41 152.54,-153.7 159.65,-161.56 163,-155.41"/>
</g>
<!-- Node19 -->
<g id="node19" class="node">
<title>Node19</title>
<g id="a_node19"><a xlink:title=" ">
<polygon fill="none" stroke="#bfbfbf" points="186.5,-134.5 186.5,-153.5 269.5,-153.5 269.5,-134.5 186.5,-134.5"/>
<text text-anchor="middle" x="228" y="-141.5" font-family="Helvetica,sans-Serif" font-size="10.00">unordered_map</text>
</a>
</g>
</g>
<!-- Node5&#45;&gt;Node19 -->
<g id="edge25" class="edge">
<title>Node5&#45;&gt;Node19</title>
<path fill="none" stroke="midnightblue" d="M566.26,-211.59C498.94,-205.65 378.09,-192.05 278,-165 270.84,-163.07 263.33,-160.41 256.35,-157.67"/>
<polygon fill="midnightblue" stroke="midnightblue" points="257.22,-154.24 246.64,-153.66 254.55,-160.71 257.22,-154.24"/>
</g>
<!-- Node7 -->
<g id="node7" class="node">
<title>Node7</title>
<g id="a_node7"><a xlink:href="log_8hpp.html" target="_top" xlink:title=" ">
<polygon fill="none" stroke="black" points="909.5,-62 909.5,-81 984.5,-81 984.5,-62 909.5,-62"/>
<text text-anchor="middle" x="947" y="-69" font-family="Helvetica,sans-Serif" font-size="10.00">yaclib/log.hpp</text>
</a>
</g>
</g>
<!-- Node6&#45;&gt;Node7 -->
<g id="edge7" class="edge">
<title>Node6&#45;&gt;Node7</title>
<path fill="none" stroke="midnightblue" d="M537.68,-125.45C540.81,-124.55 543.94,-123.72 547,-123 580.64,-115.07 800.47,-89.32 899.17,-77.96"/>
<polygon fill="midnightblue" stroke="midnightblue" points="899.64,-81.43 909.18,-76.81 898.84,-74.48 899.64,-81.43"/>
</g>
<!-- Node9 -->
<g id="node9" class="node">
<title>Node9</title>
<g id="a_node9"><a xlink:title=" ">
<polygon fill="none" stroke="#bfbfbf" points="184,-62 184,-81 230,-81 230,-62 184,-62"/>
<text text-anchor="middle" x="207" y="-69" font-family="Helvetica,sans-Serif" font-size="10.00">cstdint</text>
</a>
</g>
</g>
<!-- Node6&#45;&gt;Node9 -->
<g id="edge9" class="edge">
<title>Node6&#45;&gt;Node9</title>
<path fill="none" stroke="midnightblue" d="M442.24,-125.78C439.12,-124.8 436.02,-123.87 433,-123 365.37,-103.65 284.61,-87.16 240.26,-78.66"/>
<polygon fill="midnightblue" stroke="midnightblue" points="240.8,-75.2 230.33,-76.77 239.5,-82.08 240.8,-75.2"/>
</g>
<!-- Node8 -->
<g id="node8" class="node">
<title>Node8</title>
<g id="a_node8"><a xlink:title=" ">
<polygon fill="none" stroke="#bfbfbf" points="914,-0.5 914,-19.5 980,-19.5 980,-0.5 914,-0.5"/>
<text text-anchor="middle" x="947" y="-7.5" font-family="Helvetica,sans-Serif" font-size="10.00">string_view</text>
</a>
</g>
</g>
<!-- Node7&#45;&gt;Node8 -->
<g id="edge8" class="edge">
<title>Node7&#45;&gt;Node8</title>
<path fill="none" stroke="midnightblue" d="M947,-61.98C947,-53.58 947,-40.48 947,-29.66"/>
<polygon fill="midnightblue" stroke="midnightblue" points="950.5,-29.51 947,-19.51 943.5,-29.51 950.5,-29.51"/>
</g>
<!-- Node10&#45;&gt;Node7 -->
<g id="edge13" class="edge">
<title>Node10&#45;&gt;Node7</title>
<path fill="none" stroke="midnightblue" d="M947,-128.73C947,-118 947,-103.19 947,-91.46"/>
<polygon fill="midnightblue" stroke="midnightblue" points="950.5,-91.39 947,-81.39 943.5,-91.39 950.5,-91.39"/>
</g>
<!-- Node10&#45;&gt;Node11 -->
<g id="edge11" class="edge">
<title>Node10&#45;&gt;Node11</title>
<path fill="none" stroke="midnightblue" d="M906.61,-128.9C874.54,-117.71 829.54,-102.01 795.17,-90.01"/>
<polygon fill="midnightblue" stroke="midnightblue" points="795.92,-86.56 785.32,-86.57 793.61,-93.17 795.92,-86.56"/>
</g>
<!-- Node10&#45;&gt;Node13 -->
<g id="edge14" class="edge">
<title>Node10&#45;&gt;Node13</title>
<path fill="none" stroke="midnightblue" d="M968.05,-128.73C985.94,-116.6 1011.52,-99.26 1029.53,-87.05"/>
<polygon fill="midnightblue" stroke="midnightblue" points="1031.87,-89.7 1038.18,-81.19 1027.94,-83.91 1031.87,-89.7"/>
</g>
<!-- Node12 -->
<g id="node12" class="node">
<title>Node12</title>
<g id="a_node12"><a xlink:title=" ">
<polygon fill="none" stroke="#bfbfbf" points="765.5,-0.5 765.5,-19.5 814.5,-19.5 814.5,-0.5 765.5,-0.5"/>
<text text-anchor="middle" x="790" y="-7.5" font-family="Helvetica,sans-Serif" font-size="10.00">cstddef</text>
</a>
</g>
</g>
<!-- Node11&#45;&gt;Node12 -->
<g id="edge12" class="edge">
<title>Node11&#45;&gt;Node12</title>
<path fill="none" stroke="midnightblue" d="M755.66,-56.4C762.14,-47.84 770.43,-36.87 777.25,-27.86"/>
<polygon fill="midnightblue" stroke="midnightblue" points="780.21,-29.74 783.45,-19.66 774.63,-25.52 780.21,-29.74"/>
</g>
<!-- Node14&#45;&gt;Node3 -->
<g id="edge16" class="edge">
<title>Node14&#45;&gt;Node3</title>
<path fill="none" stroke="midnightblue" d="M302.36,-128.96C294.21,-126.91 285.89,-124.86 278,-123 215.63,-108.28 143.51,-92.97 96,-83.12"/>
<polygon fill="midnightblue" stroke="midnightblue" points="96.46,-79.65 85.96,-81.05 95.04,-86.5 96.46,-79.65"/>
</g>
<!-- Node14&#45;&gt;Node11 -->
<g id="edge17" class="edge">
<title>Node14&#45;&gt;Node11</title>
<path fill="none" stroke="midnightblue" d="M407.2,-128.99C415.78,-126.84 424.62,-124.76 433,-123 514.42,-105.87 608.86,-91.32 672.32,-82.3"/>
<polygon fill="midnightblue" stroke="midnightblue" points="672.82,-85.76 682.23,-80.9 671.84,-78.83 672.82,-85.76"/>
</g>
<!-- Node15 -->
<g id="node15" class="node">
<title>Node15</title>
<g id="a_node15"><a xlink:title=" ">
<polygon fill="none" stroke="#bfbfbf" points="325.5,-62 325.5,-81 386.5,-81 386.5,-62 325.5,-62"/>
<text text-anchor="middle" x="356" y="-69" font-family="Helvetica,sans-Serif" font-size="10.00">ucontext.h</text>
</a>
</g>
</g>
<!-- Node14&#45;&gt;Node15 -->
<g id="edge18" class="edge">
<title>Node14&#45;&gt;Node15</title>
<path fill="none" stroke="midnightblue" d="M356,-128.73C356,-118 356,-103.19 356,-91.46"/>
<polygon fill="midnightblue" stroke="midnightblue" points="359.5,-91.39 356,-81.39 352.5,-91.39 359.5,-91.39"/>
</g>
<!-- Node16&#45;&gt;Node11 -->
<g id="edge20" class="edge">
<title>Node16&#45;&gt;Node11</title>
<path fill="none" stroke="midnightblue" d="M773.71,-128.73C768.88,-119.27 762.43,-106.64 756.87,-95.75"/>
<polygon fill="midnightblue" stroke="midnightblue" points="759.94,-94.06 752.27,-86.75 753.71,-97.24 759.94,-94.06"/>
</g>
<!-- Node16&#45;&gt;Node12 -->
<g id="edge21" class="edge">
<title>Node16&#45;&gt;Node12</title>
<path fill="none" stroke="midnightblue" d="M793.31,-128.94C801.8,-118.25 812.38,-102.75 817,-87 820.88,-73.78 820.68,-69.28 817,-56 814.21,-45.92 808.49,-35.83 803.03,-27.77"/>
<polygon fill="midnightblue" stroke="midnightblue" points="805.85,-25.69 797.15,-19.64 800.18,-29.79 805.85,-25.69"/>
</g>
<!-- Node20&#45;&gt;Node5 -->
<g id="edge28" class="edge">
<title>Node20&#45;&gt;Node5</title>
<path fill="none" stroke="midnightblue" d="M790.53,-268.48C756.82,-258.51 711.37,-245.09 675.58,-234.51"/>
<polygon fill="midnightblue" stroke="midnightblue" points="676.34,-231.09 665.76,-231.61 674.36,-237.8 676.34,-231.09"/>
</g>
<!-- Node20&#45;&gt;Node7 -->
<g id="edge33" class="edge">
<title>Node20&#45;&gt;Node7</title>
<path fill="none" stroke="midnightblue" d="M888.53,-268.82C913.08,-260.63 942.13,-248.56 965,-232 996.44,-209.24 1007.76,-201.48 1021,-165 1027.37,-147.45 1029.72,-139.51 1021,-123 1012.01,-105.99 994.43,-93.62 978.66,-85.39"/>
<polygon fill="midnightblue" stroke="midnightblue" points="980.18,-82.24 969.66,-81.01 977.12,-88.53 980.18,-82.24"/>
</g>
<!-- Node20&#45;&gt;Node10 -->
<g id="edge27" class="edge">
<title>Node20&#45;&gt;Node10</title>
<path fill="none" stroke="midnightblue" d="M849.25,-268.3C868.18,-244.42 906.54,-196.04 929.16,-167.5"/>
<polygon fill="midnightblue" stroke="midnightblue" points="932.17,-169.34 935.64,-159.33 926.69,-164.99 932.17,-169.34"/>
</g>
<!-- Node20&#45;&gt;Node11 -->
<g id="edge30" class="edge">
<title>Node20&#45;&gt;Node11</title>
<path fill="none" stroke="midnightblue" d="M842.06,-268.45C849.69,-239.03 863.01,-169.82 835,-123 826.7,-109.13 813.07,-98.76 798.9,-91.15"/>
<polygon fill="midnightblue" stroke="midnightblue" points="800.07,-87.83 789.56,-86.54 796.97,-94.1 800.07,-87.83"/>
</g>
<!-- Node20&#45;&gt;Node16 -->
<g id="edge29" class="edge">
<title>Node20&#45;&gt;Node16</title>
<path fill="none" stroke="midnightblue" d="M832.11,-268.3C822.34,-244.73 802.68,-197.29 790.79,-168.62"/>
<polygon fill="midnightblue" stroke="midnightblue" points="794,-167.22 786.94,-159.33 787.54,-169.9 794,-167.22"/>
</g>
<!-- Node20&#45;&gt;Node21 -->
<g id="edge31" class="edge">
<title>Node20&#45;&gt;Node21</title>
<path fill="none" stroke="midnightblue" d="M787.03,-276.44C686.85,-264.54 464.53,-238.12 354.8,-225.08"/>
<polygon fill="midnightblue" stroke="midnightblue" points="355.2,-221.6 344.86,-223.9 354.37,-228.56 355.2,-221.6"/>
</g>
<!-- Node22 -->
<g id="node22" class="node">
<title>Node22</title>
<g id="a_node22"><a xlink:title=" ">
<polygon fill="none" stroke="#bfbfbf" points="720,-207 720,-226 766,-226 766,-207 720,-207"/>
<text text-anchor="middle" x="743" y="-214" font-family="Helvetica,sans-Serif" font-size="10.00">chrono</text>
</a>
</g>
</g>
<!-- Node20&#45;&gt;Node22 -->
<g id="edge34" class="edge">
<title>Node20&#45;&gt;Node22</title>
<path fill="none" stroke="midnightblue" d="M817.39,-268.4C801.6,-257.6 779.91,-242.76 764.03,-231.89"/>
<polygon fill="midnightblue" stroke="midnightblue" points="765.66,-228.77 755.43,-226.01 761.71,-234.54 765.66,-228.77"/>
</g>
<!-- Node23 -->
<g id="node23" class="node">
<title>Node23</title>
<g id="a_node23"><a xlink:title=" ">
<polygon fill="none" stroke="#bfbfbf" points="920.5,-207 920.5,-226 955.5,-226 955.5,-207 920.5,-207"/>
<text text-anchor="middle" x="938" y="-214" font-family="Helvetica,sans-Serif" font-size="10.00">map</text>
</a>
</g>
</g>
<!-- Node20&#45;&gt;Node23 -->
<g id="edge35" class="edge">
<title>Node20&#45;&gt;Node23</title>
<path fill="none" stroke="midnightblue" d="M859.7,-268.4C876.47,-257.5 899.57,-242.48 916.33,-231.58"/>
<polygon fill="midnightblue" stroke="midnightblue" points="918.44,-234.39 924.91,-226.01 914.62,-228.52 918.44,-234.39"/>
</g>
<!-- Node21&#45;&gt;Node9 -->
<g id="edge32" class="edge">
<title>Node21&#45;&gt;Node9</title>
<path fill="none" stroke="midnightblue" d="M237.43,-208.58C187.26,-200.87 117.59,-186.58 101,-165 89.62,-150.2 91.04,-138.78 101,-123 116.88,-97.85 149.09,-84.97 173.85,-78.53"/>
<polygon fill="midnightblue" stroke="midnightblue" points="174.68,-81.93 183.61,-76.23 173.07,-75.12 174.68,-81.93"/>
</g>
<!-- Node24&#45;&gt;Node20 -->
<g id="edge37" class="edge">
<title>Node24&#45;&gt;Node20</title>
<path fill="none" stroke="midnightblue" d="M758.92,-335.4C773.08,-326.28 791.71,-314.29 807.33,-304.24"/>
<polygon fill="midnightblue" stroke="midnightblue" points="809.61,-306.93 816.13,-298.58 805.82,-301.05 809.61,-306.93"/>
</g>
<!-- Node24&#45;&gt;Node22 -->
<g id="edge38" class="edge">
<title>Node24&#45;&gt;Node22</title>
<path fill="none" stroke="midnightblue" d="M737.64,-335.37C738.73,-311.5 740.92,-263.18 742.14,-236.41"/>
<polygon fill="midnightblue" stroke="midnightblue" points="745.65,-236.25 742.61,-226.1 738.66,-235.93 745.65,-236.25"/>
</g>
</g>
</svg>
