<?xml version="1.0" encoding="UTF-8" standalone="no"?>
<!DOCTYPE svg PUBLIC "-//W3C//DTD SVG 1.1//EN"
 "http://www.w3.org/Graphics/SVG/1.1/DTD/svg11.dtd">
<!-- Generated by graphviz version 3.0.0 (20220413.0242)
 -->
<!-- Title: include/yaclib/fault/detail/shared_timed_mutex.hpp Pages: 1 -->
<svg width="284pt" height="296pt"
 viewBox="0.00 0.00 283.50 296.00" xmlns="http://www.w3.org/2000/svg" xmlns:xlink="http://www.w3.org/1999/xlink">
<g id="graph0" class="graph" transform="scale(1 1) rotate(0) translate(4 292)">
<title>include/yaclib/fault/detail/shared_timed_mutex.hpp</title>
<!-- Node1 -->
<g id="node1" class="node">
<title>Node1</title>
<g id="a_node1"><a xlink:title=" ">
<polygon fill="#bfbfbf" stroke="black" points="103.5,-246.5 103.5,-287.5 207.5,-287.5 207.5,-246.5 103.5,-246.5"/>
<text text-anchor="start" x="111.5" y="-275.5" font-family="Helvetica,sans-Serif" font-size="10.00">include/yaclib/fault</text>
<text text-anchor="start" x="111.5" y="-264.5" font-family="Helvetica,sans-Serif" font-size="10.00">/detail/shared_timed</text>
<text text-anchor="middle" x="155.5" y="-253.5" font-family="Helvetica,sans-Serif" font-size="10.00">_mutex.hpp</text>
</a>
</g>
</g>
<!-- Node2 -->
<g id="node2" class="node">
<title>Node2</title>
<g id="a_node2"><a xlink:href="fault_2detail_2shared__mutex_8hpp.html" target="_top" xlink:title=" ">
<polygon fill="none" stroke="black" points="29.5,-179.5 29.5,-209.5 127.5,-209.5 127.5,-179.5 29.5,-179.5"/>
<text text-anchor="start" x="37.5" y="-197.5" font-family="Helvetica,sans-Serif" font-size="10.00">yaclib/fault/detail</text>
<text text-anchor="middle" x="78.5" y="-186.5" font-family="Helvetica,sans-Serif" font-size="10.00">/shared_mutex.hpp</text>
</a>
</g>
</g>
<!-- Node1&#45;&gt;Node2 -->
<g id="edge1" class="edge">
<title>Node1&#45;&gt;Node2</title>
<path fill="none" stroke="midnightblue" d="M134.05,-246.36C123.98,-237.14 111.96,-226.13 101.68,-216.72"/>
<polygon fill="midnightblue" stroke="midnightblue" points="103.96,-214.06 94.22,-209.89 99.23,-219.23 103.96,-214.06"/>
</g>
<!-- Node4 -->
<g id="node4" class="node">
<title>Node4</title>
<g id="a_node4"><a xlink:href="inject_8hpp.html" target="_top" xlink:title=" ">
<polygon fill="none" stroke="black" points="64,-56.5 64,-75.5 171,-75.5 171,-56.5 64,-56.5"/>
<text text-anchor="middle" x="117.5" y="-63.5" font-family="Helvetica,sans-Serif" font-size="10.00">yaclib/fault/inject.hpp</text>
</a>
</g>
</g>
<!-- Node1&#45;&gt;Node4 -->
<g id="edge6" class="edge">
<title>Node1&#45;&gt;Node4</title>
<path fill="none" stroke="midnightblue" d="M151.72,-246.19C144.37,-207.7 128.25,-123.3 121.07,-85.71"/>
<polygon fill="midnightblue" stroke="midnightblue" points="124.46,-84.81 119.15,-75.65 117.59,-86.13 124.46,-84.81"/>
</g>
<!-- Node6 -->
<g id="node6" class="node">
<title>Node6</title>
<g id="a_node6"><a xlink:title=" ">
<polygon fill="none" stroke="#bfbfbf" points="183.5,-185 183.5,-204 275.5,-204 275.5,-185 183.5,-185"/>
<text text-anchor="middle" x="229.5" y="-192" font-family="Helvetica,sans-Serif" font-size="10.00">yaclib_std/chrono</text>
</a>
</g>
</g>
<!-- Node1&#45;&gt;Node6 -->
<g id="edge7" class="edge">
<title>Node1&#45;&gt;Node6</title>
<path fill="none" stroke="midnightblue" d="M176.11,-246.36C187.7,-235.32 201.97,-221.72 212.85,-211.37"/>
<polygon fill="midnightblue" stroke="midnightblue" points="215.57,-213.61 220.4,-204.17 210.74,-208.54 215.57,-213.61"/>
</g>
<!-- Node3 -->
<g id="node3" class="node">
<title>Node3</title>
<g id="a_node3"><a xlink:href="fault_2detail_2mutex_8hpp.html" target="_top" xlink:title=" ">
<polygon fill="none" stroke="black" points="0,-112.5 0,-142.5 89,-142.5 89,-112.5 0,-112.5"/>
<text text-anchor="start" x="8" y="-130.5" font-family="Helvetica,sans-Serif" font-size="10.00">yaclib/fault/detail</text>
<text text-anchor="middle" x="44.5" y="-119.5" font-family="Helvetica,sans-Serif" font-size="10.00">/mutex.hpp</text>
</a>
</g>
</g>
<!-- Node2&#45;&gt;Node3 -->
<g id="edge2" class="edge">
<title>Node2&#45;&gt;Node3</title>
<path fill="none" stroke="midnightblue" d="M71.12,-179.4C66.89,-171.3 61.47,-160.94 56.63,-151.69"/>
<polygon fill="midnightblue" stroke="midnightblue" points="59.6,-149.82 51.86,-142.58 53.4,-153.06 59.6,-149.82"/>
</g>
<!-- Node2&#45;&gt;Node4 -->
<g id="edge5" class="edge">
<title>Node2&#45;&gt;Node4</title>
<path fill="none" stroke="midnightblue" d="M84.21,-179.49C88.21,-169.43 93.52,-155.49 97.5,-143 103.7,-123.54 109.49,-100.86 113.23,-85.37"/>
<polygon fill="midnightblue" stroke="midnightblue" points="116.66,-86.05 115.56,-75.52 109.85,-84.44 116.66,-86.05"/>
</g>
<!-- Node3&#45;&gt;Node4 -->
<g id="edge3" class="edge">
<title>Node3&#45;&gt;Node4</title>
<path fill="none" stroke="midnightblue" d="M61.8,-112.4C72.95,-103.31 87.45,-91.49 98.86,-82.19"/>
<polygon fill="midnightblue" stroke="midnightblue" points="101.34,-84.69 106.88,-75.66 96.92,-79.26 101.34,-84.69"/>
</g>
<!-- Node5 -->
<g id="node5" class="node">
<title>Node5</title>
<g id="a_node5"><a xlink:title=" ">
<polygon fill="none" stroke="#bfbfbf" points="94.5,-0.5 94.5,-19.5 140.5,-19.5 140.5,-0.5 94.5,-0.5"/>
<text text-anchor="middle" x="117.5" y="-7.5" font-family="Helvetica,sans-Serif" font-size="10.00">cstdint</text>
</a>
</g>
</g>
<!-- Node4&#45;&gt;Node5 -->
<g id="edge4" class="edge">
<title>Node4&#45;&gt;Node5</title>
<path fill="none" stroke="midnightblue" d="M117.5,-56.08C117.5,-49.01 117.5,-38.86 117.5,-29.99"/>
<polygon fill="midnightblue" stroke="midnightblue" points="121,-29.75 117.5,-19.75 114,-29.75 121,-29.75"/>
</g>
</g>
</svg>
