<?xml version="1.0" encoding="UTF-8" standalone="no"?>
<!DOCTYPE svg PUBLIC "-//W3C//DTD SVG 1.1//EN"
 "http://www.w3.org/Graphics/SVG/1.1/DTD/svg11.dtd">
<!-- Generated by graphviz version 3.0.0 (20220413.0242)
 -->
<!-- Title: include/yaclib/fault/detail/fiber/timed_mutex.hpp Pages: 1 -->
<!--zoomable 575 -->
<svg id="main" version="1.1" xmlns="http://www.w3.org/2000/svg" xmlns:xlink="http://www.w3.org/1999/xlink" xml:space="preserve" onload="init(evt)">
<style type="text/css"><![CDATA[
.edge:hover path { stroke: red; }
.edge:hover polygon { stroke: red; fill: red; }
]]></style>
<script type="text/javascript"><![CDATA[
var edges = document.getElementsByTagName('g');
if (edges && edges.length) {
  for (var i=0;i<edges.length;i++) {
    if (edges[i].id.substr(0,4)=='edge') {
      edges[i].setAttribute('class','edge');
    }
  }
}
]]></script>
        <defs>
                <circle id="rim" cx="0" cy="0" r="7"/>
                <circle id="rim2" cx="0" cy="0" r="3.5"/>
                <g id="zoomPlus">
                        <use xlink:href="#rim" fill="#404040">
                                <set attributeName="fill" to="#808080" begin="zoomplus.mouseover" end="zoomplus.mouseout"/>
                        </use>
                        <path d="M-4,0h8M0,-4v8" fill="none" stroke="white" stroke-width="1.5" pointer-events="none"/>
                </g>
                <g id="zoomMin">
                        <use xlink:href="#rim" fill="#404040">
                                <set attributeName="fill" to="#808080" begin="zoomminus.mouseover" end="zoomminus.mouseout"/>
                        </use>
                        <path d="M-4,0h8" fill="none" stroke="white" stroke-width="1.5" pointer-events="none"/>
                </g>
                <g id="dirArrow">
                        <path fill="none" stroke="white" stroke-width="1.5" d="M0,-3.0v7 M-2.5,-0.5L0,-3.0L2.5,-0.5"/>
                </g>
               <g id="resetDef">
                       <use xlink:href="#rim2" fill="#404040">
                               <set attributeName="fill" to="#808080" begin="reset.mouseover" end="reset.mouseout"/>
                       </use>
               </g>
        </defs>

<script type="text/javascript">
var viewWidth = 1204;
var viewHeight = 575;
var sectionId = 'dynsection-0';
</script>
<script xlink:href="svgpan.js"/>
<svg id="graph" class="graph">
<g id="viewport">
<title>include/yaclib/fault/detail/fiber/timed_mutex.hpp</title>
<!-- Node1 -->
<g id="node1" class="node">
<title>Node1</title>
<g id="a_node1"><a xlink:title=" ">
<polygon fill="#bfbfbf" stroke="black" points="953,-536.5 953,-566.5 1093,-566.5 1093,-536.5 953,-536.5"/>
<text text-anchor="start" x="961" y="-554.5" font-family="Helvetica,sans-Serif" font-size="10.00">include/yaclib/fault</text>
<text text-anchor="middle" x="1023" y="-543.5" font-family="Helvetica,sans-Serif" font-size="10.00">/detail/fiber/timed_mutex.hpp</text>
</a>
</g>
</g>
<!-- Node2 -->
<g id="node2" class="node">
<title>Node2</title>
<g id="a_node2"><a xlink:href="fault_2detail_2fiber_2mutex_8hpp.html" target="_top" xlink:title=" ">
<polygon fill="none" stroke="black" points="1015.5,-469.5 1015.5,-499.5 1104.5,-499.5 1104.5,-469.5 1015.5,-469.5"/>
<text text-anchor="start" x="1023.5" y="-487.5" font-family="Helvetica,sans-Serif" font-size="10.00">yaclib/fault/detail</text>
<text text-anchor="middle" x="1060" y="-476.5" font-family="Helvetica,sans-Serif" font-size="10.00">/fiber/mutex.hpp</text>
</a>
</g>
</g>
<!-- Node1&#45;&gt;Node2 -->
<g id="edge1" class="edge">
<title>Node1&#45;&gt;Node2</title>
<path fill="none" stroke="midnightblue" d="M1031.03,-536.4C1035.68,-528.22 1041.66,-517.73 1046.97,-508.39"/>
<polygon fill="midnightblue" stroke="midnightblue" points="1050.08,-510 1051.99,-499.58 1044,-506.54 1050.08,-510"/>
</g>
<!-- Node3 -->
<g id="node3" class="node">
<title>Node3</title>
<g id="a_node3"><a xlink:href="queue_8hpp.html" target="_top" xlink:title=" ">
<polygon fill="none" stroke="black" points="942.5,-402.5 942.5,-432.5 1031.5,-432.5 1031.5,-402.5 942.5,-402.5"/>
<text text-anchor="start" x="950.5" y="-420.5" font-family="Helvetica,sans-Serif" font-size="10.00">yaclib/fault/detail</text>
<text text-anchor="middle" x="987" y="-409.5" font-family="Helvetica,sans-Serif" font-size="10.00">/fiber/queue.hpp</text>
</a>
</g>
</g>
<!-- Node1&#45;&gt;Node3 -->
<g id="edge41" class="edge">
<title>Node1&#45;&gt;Node3</title>
<path fill="none" stroke="midnightblue" d="M1017.87,-536.46C1014.29,-526.39 1009.54,-512.46 1006,-500 1000.56,-480.85 995.5,-458.86 991.97,-442.55"/>
<polygon fill="midnightblue" stroke="midnightblue" points="995.39,-441.79 989.89,-432.74 988.54,-443.25 995.39,-441.79"/>
</g>
<!-- Node2&#45;&gt;Node3 -->
<g id="edge2" class="edge">
<title>Node2&#45;&gt;Node3</title>
<path fill="none" stroke="midnightblue" d="M1044.16,-469.4C1034.31,-460.62 1021.46,-449.18 1010.44,-439.37"/>
<polygon fill="midnightblue" stroke="midnightblue" points="1012.6,-436.61 1002.81,-432.58 1007.95,-441.84 1012.6,-436.61"/>
</g>
<!-- Node26 -->
<g id="node26" class="node">
<title>Node26</title>
<g id="a_node26"><a xlink:title=" ">
<polygon fill="none" stroke="#bfbfbf" points="1049.5,-408 1049.5,-427 1092.5,-427 1092.5,-408 1049.5,-408"/>
<text text-anchor="middle" x="1071" y="-415" font-family="Helvetica,sans-Serif" font-size="10.00">mutex</text>
</a>
</g>
</g>
<!-- Node2&#45;&gt;Node26 -->
<g id="edge40" class="edge">
<title>Node2&#45;&gt;Node26</title>
<path fill="none" stroke="midnightblue" d="M1062.39,-469.4C1063.98,-459.96 1066.1,-447.45 1067.84,-437.19"/>
<polygon fill="midnightblue" stroke="midnightblue" points="1071.31,-437.64 1069.53,-427.19 1064.41,-436.47 1071.31,-437.64"/>
</g>
<!-- Node4 -->
<g id="node4" class="node">
<title>Node4</title>
<g id="a_node4"><a xlink:href="fiber__base_8hpp.html" target="_top" xlink:title=" ">
<polygon fill="none" stroke="black" points="504.5,-201.5 504.5,-231.5 607.5,-231.5 607.5,-201.5 504.5,-201.5"/>
<text text-anchor="start" x="512.5" y="-219.5" font-family="Helvetica,sans-Serif" font-size="10.00">yaclib/fault/detail</text>
<text text-anchor="middle" x="556" y="-208.5" font-family="Helvetica,sans-Serif" font-size="10.00">/fiber/fiber_base.hpp</text>
</a>
</g>
</g>
<!-- Node3&#45;&gt;Node4 -->
<g id="edge3" class="edge">
<title>Node3&#45;&gt;Node4</title>
<path fill="none" stroke="midnightblue" d="M956.35,-402.35C879.89,-367.04 680.75,-275.1 595.58,-235.77"/>
<polygon fill="midnightblue" stroke="midnightblue" points="597.04,-232.59 586.49,-231.58 594.11,-238.95 597.04,-232.59"/>
</g>
<!-- Node13 -->
<g id="node13" class="node">
<title>Node13</title>
<g id="a_node13"><a xlink:title=" ">
<polygon fill="none" stroke="#bfbfbf" points="1029,-62 1029,-81 1073,-81 1073,-62 1029,-62"/>
<text text-anchor="middle" x="1051" y="-69" font-family="Helvetica,sans-Serif" font-size="10.00">vector</text>
</a>
</g>
</g>
<!-- Node3&#45;&gt;Node13 -->
<g id="edge39" class="edge">
<title>Node3&#45;&gt;Node13</title>
<path fill="none" stroke="midnightblue" d="M1013.66,-402.46C1027.85,-393.73 1044.48,-381.25 1055,-366 1076.36,-335.01 1078,-322.14 1078,-284.5 1078,-284.5 1078,-284.5 1078,-215.5 1078,-169.98 1064.63,-117.7 1056.7,-90.72"/>
<polygon fill="midnightblue" stroke="midnightblue" points="1060.04,-89.65 1053.79,-81.1 1053.34,-91.68 1060.04,-89.65"/>
</g>
<!-- Node20 -->
<g id="node20" class="node">
<title>Node20</title>
<g id="a_node20"><a xlink:href="scheduler_8hpp.html" target="_top" xlink:title=" ">
<polygon fill="none" stroke="black" points="835.5,-268.5 835.5,-298.5 936.5,-298.5 936.5,-268.5 835.5,-268.5"/>
<text text-anchor="start" x="843.5" y="-286.5" font-family="Helvetica,sans-Serif" font-size="10.00">yaclib/fault/detail</text>
<text text-anchor="middle" x="886" y="-275.5" font-family="Helvetica,sans-Serif" font-size="10.00">/fiber/scheduler.hpp</text>
</a>
</g>
</g>
<!-- Node3&#45;&gt;Node20 -->
<g id="edge25" class="edge">
<title>Node3&#45;&gt;Node20</title>
<path fill="none" stroke="midnightblue" d="M960.86,-402.33C946.58,-393.48 929.51,-380.93 918,-366 904.86,-348.95 896.47,-325.82 891.59,-308.56"/>
<polygon fill="midnightblue" stroke="midnightblue" points="894.92,-307.46 888.99,-298.68 888.15,-309.24 894.92,-307.46"/>
</g>
<!-- Node24 -->
<g id="node24" class="node">
<title>Node24</title>
<g id="a_node24"><a xlink:href="system__clock_8hpp.html" target="_top" xlink:title=" ">
<polygon fill="none" stroke="black" points="927.5,-335.5 927.5,-365.5 1046.5,-365.5 1046.5,-335.5 927.5,-335.5"/>
<text text-anchor="start" x="935.5" y="-353.5" font-family="Helvetica,sans-Serif" font-size="10.00">yaclib/fault/detail</text>
<text text-anchor="middle" x="987" y="-342.5" font-family="Helvetica,sans-Serif" font-size="10.00">/fiber/system_clock.hpp</text>
</a>
</g>
</g>
<!-- Node3&#45;&gt;Node24 -->
<g id="edge35" class="edge">
<title>Node3&#45;&gt;Node24</title>
<path fill="none" stroke="midnightblue" d="M987,-402.4C987,-394.64 987,-384.81 987,-375.86"/>
<polygon fill="midnightblue" stroke="midnightblue" points="990.5,-375.58 987,-365.58 983.5,-375.58 990.5,-375.58"/>
</g>
<!-- Node25 -->
<g id="node25" class="node">
<title>Node25</title>
<g id="a_node25"><a xlink:href="wait__status_8hpp.html" target="_top" xlink:title=" ">
<polygon fill="none" stroke="black" points="1106.5,-335.5 1106.5,-365.5 1195.5,-365.5 1195.5,-335.5 1106.5,-335.5"/>
<text text-anchor="start" x="1114.5" y="-353.5" font-family="Helvetica,sans-Serif" font-size="10.00">yaclib/fault/detail</text>
<text text-anchor="middle" x="1151" y="-342.5" font-family="Helvetica,sans-Serif" font-size="10.00">/wait_status.hpp</text>
</a>
</g>
</g>
<!-- Node3&#45;&gt;Node25 -->
<g id="edge38" class="edge">
<title>Node3&#45;&gt;Node25</title>
<path fill="none" stroke="midnightblue" d="M1022.59,-402.4C1047.09,-392.69 1079.83,-379.71 1106.12,-369.29"/>
<polygon fill="midnightblue" stroke="midnightblue" points="1107.48,-372.51 1115.48,-365.58 1104.9,-366.01 1107.48,-372.51"/>
</g>
<!-- Node5 -->
<g id="node5" class="node">
<title>Node5</title>
<g id="a_node5"><a xlink:title=" ">
<polygon fill="none" stroke="#bfbfbf" points="0,-62 0,-81 88,-81 88,-62 0,-62"/>
<text text-anchor="middle" x="44" y="-69" font-family="Helvetica,sans-Serif" font-size="10.00">yaclib/config.hpp</text>
</a>
</g>
</g>
<!-- Node4&#45;&gt;Node5 -->
<g id="edge4" class="edge">
<title>Node4&#45;&gt;Node5</title>
<path fill="none" stroke="midnightblue" d="M504.39,-213.69C384.16,-209 93.14,-194.66 61,-165 40.86,-146.41 39.82,-112.44 41.49,-91.24"/>
<polygon fill="midnightblue" stroke="midnightblue" points="44.98,-91.53 42.56,-81.22 38.02,-90.79 44.98,-91.53"/>
</g>
<!-- Node6 -->
<g id="node6" class="node">
<title>Node6</title>
<g id="a_node6"><a xlink:href="bidirectional__intrusive__list_8hpp.html" target="_top" xlink:title=" ">
<polygon fill="none" stroke="black" points="768.5,-123.5 768.5,-164.5 863.5,-164.5 863.5,-123.5 768.5,-123.5"/>
<text text-anchor="start" x="776.5" y="-152.5" font-family="Helvetica,sans-Serif" font-size="10.00">yaclib/fault/detail</text>
<text text-anchor="start" x="776.5" y="-141.5" font-family="Helvetica,sans-Serif" font-size="10.00">/fiber/bidirectional</text>
<text text-anchor="middle" x="816" y="-130.5" font-family="Helvetica,sans-Serif" font-size="10.00">_intrusive_list.hpp</text>
</a>
</g>
</g>
<!-- Node4&#45;&gt;Node6 -->
<g id="edge5" class="edge">
<title>Node4&#45;&gt;Node6</title>
<path fill="none" stroke="midnightblue" d="M607.68,-201.49C651.19,-189.69 713.35,-172.83 758.44,-160.61"/>
<polygon fill="midnightblue" stroke="midnightblue" points="759.63,-163.91 768.36,-157.92 757.79,-157.16 759.63,-163.91"/>
</g>
<!-- Node10 -->
<g id="node10" class="node">
<title>Node10</title>
<g id="a_node10"><a xlink:href="default__allocator_8hpp.html" target="_top" xlink:title=" ">
<polygon fill="none" stroke="black" points="882,-129 882,-159 1012,-159 1012,-129 882,-129"/>
<text text-anchor="start" x="890" y="-147" font-family="Helvetica,sans-Serif" font-size="10.00">yaclib/fault/detail</text>
<text text-anchor="middle" x="947" y="-136" font-family="Helvetica,sans-Serif" font-size="10.00">/fiber/default_allocator.hpp</text>
</a>
</g>
</g>
<!-- Node4&#45;&gt;Node10 -->
<g id="edge9" class="edge">
<title>Node4&#45;&gt;Node10</title>
<path fill="none" stroke="midnightblue" d="M607.75,-208.88C670.58,-200.47 779.62,-184.65 872,-165 876.98,-163.94 882.12,-162.76 887.27,-161.51"/>
<polygon fill="midnightblue" stroke="midnightblue" points="888.29,-164.87 897.15,-159.05 886.6,-158.08 888.29,-164.87"/>
</g>
<!-- Node11 -->
<g id="node11" class="node">
<title>Node11</title>
<g id="a_node11"><a xlink:href="stack__allocator_8hpp.html" target="_top" xlink:title=" ">
<polygon fill="none" stroke="black" points="603.5,-56.5 603.5,-86.5 728.5,-86.5 728.5,-56.5 603.5,-56.5"/>
<text text-anchor="start" x="611.5" y="-74.5" font-family="Helvetica,sans-Serif" font-size="10.00">yaclib/fault/detail</text>
<text text-anchor="middle" x="666" y="-63.5" font-family="Helvetica,sans-Serif" font-size="10.00">/fiber/stack_allocator.hpp</text>
</a>
</g>
</g>
<!-- Node4&#45;&gt;Node11 -->
<g id="edge21" class="edge">
<title>Node4&#45;&gt;Node11</title>
<path fill="none" stroke="midnightblue" d="M555.4,-201.19C555.32,-181.65 557.83,-146.39 575,-123 585.1,-109.25 600.12,-98.77 615.07,-91.03"/>
<polygon fill="midnightblue" stroke="midnightblue" points="616.84,-94.06 624.32,-86.55 613.79,-87.76 616.84,-94.06"/>
</g>
<!-- Node14 -->
<g id="node14" class="node">
<title>Node14</title>
<g id="a_node14"><a xlink:href="execution__context_8hpp.html" target="_top" xlink:title=" ">
<polygon fill="none" stroke="black" points="70.5,-129 70.5,-159 207.5,-159 207.5,-129 70.5,-129"/>
<text text-anchor="start" x="78.5" y="-147" font-family="Helvetica,sans-Serif" font-size="10.00">yaclib/fault/detail</text>
<text text-anchor="middle" x="139" y="-136" font-family="Helvetica,sans-Serif" font-size="10.00">/fiber/execution_context.hpp</text>
</a>
</g>
</g>
<!-- Node4&#45;&gt;Node14 -->
<g id="edge14" class="edge">
<title>Node4&#45;&gt;Node14</title>
<path fill="none" stroke="midnightblue" d="M504.31,-209.48C437.59,-201.33 318.05,-185.42 217,-165 211.69,-163.93 206.2,-162.72 200.71,-161.45"/>
<polygon fill="midnightblue" stroke="midnightblue" points="201.39,-158.01 190.85,-159.09 199.77,-164.82 201.39,-158.01"/>
</g>
<!-- Node16 -->
<g id="node16" class="node">
<title>Node16</title>
<g id="a_node16"><a xlink:href="stack_8hpp.html" target="_top" xlink:title=" ">
<polygon fill="none" stroke="black" points="584.5,-129 584.5,-159 673.5,-159 673.5,-129 584.5,-129"/>
<text text-anchor="start" x="592.5" y="-147" font-family="Helvetica,sans-Serif" font-size="10.00">yaclib/fault/detail</text>
<text text-anchor="middle" x="629" y="-136" font-family="Helvetica,sans-Serif" font-size="10.00">/fiber/stack.hpp</text>
</a>
</g>
</g>
<!-- Node4&#45;&gt;Node16 -->
<g id="edge18" class="edge">
<title>Node4&#45;&gt;Node16</title>
<path fill="none" stroke="midnightblue" d="M570.77,-201.23C581.16,-191.2 595.24,-177.6 606.96,-166.29"/>
<polygon fill="midnightblue" stroke="midnightblue" points="609.49,-168.71 614.25,-159.25 604.62,-163.67 609.49,-168.71"/>
</g>
<!-- Node17 -->
<g id="node17" class="node">
<title>Node17</title>
<g id="a_node17"><a xlink:href="wakeup__helper_8hpp.html" target="_top" xlink:title=" ">
<polygon fill="none" stroke="black" points="226,-129 226,-159 350,-159 350,-129 226,-129"/>
<text text-anchor="start" x="234" y="-147" font-family="Helvetica,sans-Serif" font-size="10.00">yaclib/fault/detail</text>
<text text-anchor="middle" x="288" y="-136" font-family="Helvetica,sans-Serif" font-size="10.00">/fiber/wakeup_helper.hpp</text>
</a>
</g>
</g>
<!-- Node4&#45;&gt;Node17 -->
<g id="edge22" class="edge">
<title>Node4&#45;&gt;Node17</title>
<path fill="none" stroke="midnightblue" d="M504.48,-202.65C464.68,-192.63 408.27,-178.25 359,-165 355.15,-163.96 351.18,-162.88 347.18,-161.78"/>
<polygon fill="midnightblue" stroke="midnightblue" points="347.8,-158.32 337.23,-159.03 345.93,-165.07 347.8,-158.32"/>
</g>
<!-- Node18 -->
<g id="node18" class="node">
<title>Node18</title>
<g id="a_node18"><a xlink:title=" ">
<polygon fill="none" stroke="#bfbfbf" points="368,-134.5 368,-153.5 426,-153.5 426,-134.5 368,-134.5"/>
<text text-anchor="middle" x="397" y="-141.5" font-family="Helvetica,sans-Serif" font-size="10.00">exception</text>
</a>
</g>
</g>
<!-- Node4&#45;&gt;Node18 -->
<g id="edge23" class="edge">
<title>Node4&#45;&gt;Node18</title>
<path fill="none" stroke="midnightblue" d="M519.89,-201.41C495.65,-191.71 463.11,-178.23 435,-165 430.71,-162.98 426.21,-160.73 421.86,-158.49"/>
<polygon fill="midnightblue" stroke="midnightblue" points="423.22,-155.25 412.74,-153.69 419.96,-161.44 423.22,-155.25"/>
</g>
<!-- Node19 -->
<g id="node19" class="node">
<title>Node19</title>
<g id="a_node19"><a xlink:title=" ">
<polygon fill="none" stroke="#bfbfbf" points="444.5,-134.5 444.5,-153.5 527.5,-153.5 527.5,-134.5 444.5,-134.5"/>
<text text-anchor="middle" x="486" y="-141.5" font-family="Helvetica,sans-Serif" font-size="10.00">unordered_map</text>
</a>
</g>
</g>
<!-- Node4&#45;&gt;Node19 -->
<g id="edge24" class="edge">
<title>Node4&#45;&gt;Node19</title>
<path fill="none" stroke="midnightblue" d="M541.83,-201.23C530.3,-189.62 514.02,-173.22 502.01,-161.12"/>
<polygon fill="midnightblue" stroke="midnightblue" points="504.36,-158.52 494.83,-153.89 499.39,-163.46 504.36,-158.52"/>
</g>
<!-- Node7 -->
<g id="node7" class="node">
<title>Node7</title>
<g id="a_node7"><a xlink:href="log_8hpp.html" target="_top" xlink:title=" ">
<polygon fill="none" stroke="black" points="909.5,-62 909.5,-81 984.5,-81 984.5,-62 909.5,-62"/>
<text text-anchor="middle" x="947" y="-69" font-family="Helvetica,sans-Serif" font-size="10.00">yaclib/log.hpp</text>
</a>
</g>
</g>
<!-- Node6&#45;&gt;Node7 -->
<g id="edge6" class="edge">
<title>Node6&#45;&gt;Node7</title>
<path fill="none" stroke="midnightblue" d="M852.49,-123.36C874.61,-111.46 902.26,-96.58 921.93,-85.99"/>
<polygon fill="midnightblue" stroke="midnightblue" points="923.74,-88.99 930.88,-81.17 920.42,-82.83 923.74,-88.99"/>
</g>
<!-- Node9 -->
<g id="node9" class="node">
<title>Node9</title>
<g id="a_node9"><a xlink:title=" ">
<polygon fill="none" stroke="#bfbfbf" points="788,-62 788,-81 834,-81 834,-62 788,-62"/>
<text text-anchor="middle" x="811" y="-69" font-family="Helvetica,sans-Serif" font-size="10.00">cstdint</text>
</a>
</g>
</g>
<!-- Node6&#45;&gt;Node9 -->
<g id="edge8" class="edge">
<title>Node6&#45;&gt;Node9</title>
<path fill="none" stroke="midnightblue" d="M814.61,-123.36C813.89,-113.3 813.03,-101.1 812.32,-91.18"/>
<polygon fill="midnightblue" stroke="midnightblue" points="815.81,-90.9 811.62,-81.17 808.83,-91.4 815.81,-90.9"/>
</g>
<!-- Node8 -->
<g id="node8" class="node">
<title>Node8</title>
<g id="a_node8"><a xlink:title=" ">
<polygon fill="none" stroke="#bfbfbf" points="914,-0.5 914,-19.5 980,-19.5 980,-0.5 914,-0.5"/>
<text text-anchor="middle" x="947" y="-7.5" font-family="Helvetica,sans-Serif" font-size="10.00">string_view</text>
</a>
</g>
</g>
<!-- Node7&#45;&gt;Node8 -->
<g id="edge7" class="edge">
<title>Node7&#45;&gt;Node8</title>
<path fill="none" stroke="midnightblue" d="M947,-61.98C947,-53.58 947,-40.48 947,-29.66"/>
<polygon fill="midnightblue" stroke="midnightblue" points="950.5,-29.51 947,-19.51 943.5,-29.51 950.5,-29.51"/>
</g>
<!-- Node10&#45;&gt;Node7 -->
<g id="edge12" class="edge">
<title>Node10&#45;&gt;Node7</title>
<path fill="none" stroke="midnightblue" d="M947,-128.73C947,-118 947,-103.19 947,-91.46"/>
<polygon fill="midnightblue" stroke="midnightblue" points="950.5,-91.39 947,-81.39 943.5,-91.39 950.5,-91.39"/>
</g>
<!-- Node10&#45;&gt;Node11 -->
<g id="edge10" class="edge">
<title>Node10&#45;&gt;Node11</title>
<path fill="none" stroke="midnightblue" d="M894.99,-128.98C887.29,-126.95 879.44,-124.9 872,-123 826.29,-111.3 774.72,-98.66 734.62,-88.96"/>
<polygon fill="midnightblue" stroke="midnightblue" points="735.23,-85.5 724.68,-86.55 733.58,-92.3 735.23,-85.5"/>
</g>
<!-- Node10&#45;&gt;Node13 -->
<g id="edge13" class="edge">
<title>Node10&#45;&gt;Node13</title>
<path fill="none" stroke="midnightblue" d="M968.05,-128.73C985.94,-116.6 1011.52,-99.26 1029.53,-87.05"/>
<polygon fill="midnightblue" stroke="midnightblue" points="1031.87,-89.7 1038.18,-81.19 1027.94,-83.91 1031.87,-89.7"/>
</g>
<!-- Node12 -->
<g id="node12" class="node">
<title>Node12</title>
<g id="a_node12"><a xlink:title=" ">
<polygon fill="none" stroke="#bfbfbf" points="596.5,-0.5 596.5,-19.5 645.5,-19.5 645.5,-0.5 596.5,-0.5"/>
<text text-anchor="middle" x="621" y="-7.5" font-family="Helvetica,sans-Serif" font-size="10.00">cstddef</text>
</a>
</g>
</g>
<!-- Node11&#45;&gt;Node12 -->
<g id="edge11" class="edge">
<title>Node11&#45;&gt;Node12</title>
<path fill="none" stroke="midnightblue" d="M655.34,-56.4C648.86,-47.84 640.57,-36.87 633.75,-27.86"/>
<polygon fill="midnightblue" stroke="midnightblue" points="636.37,-25.52 627.55,-19.66 630.79,-29.74 636.37,-25.52"/>
</g>
<!-- Node14&#45;&gt;Node5 -->
<g id="edge15" class="edge">
<title>Node14&#45;&gt;Node5</title>
<path fill="none" stroke="midnightblue" d="M119.78,-128.73C103.58,-116.72 80.49,-99.58 64.07,-87.39"/>
<polygon fill="midnightblue" stroke="midnightblue" points="65.83,-84.34 55.71,-81.19 61.66,-89.96 65.83,-84.34"/>
</g>
<!-- Node14&#45;&gt;Node11 -->
<g id="edge16" class="edge">
<title>Node14&#45;&gt;Node11</title>
<path fill="none" stroke="midnightblue" d="M189.54,-128.95C198.63,-126.74 208.06,-124.64 217,-123 348.68,-98.83 504.35,-84.44 593.49,-77.54"/>
<polygon fill="midnightblue" stroke="midnightblue" points="593.79,-81.02 603.5,-76.77 593.26,-74.04 593.79,-81.02"/>
</g>
<!-- Node15 -->
<g id="node15" class="node">
<title>Node15</title>
<g id="a_node15"><a xlink:title=" ">
<polygon fill="none" stroke="#bfbfbf" points="108.5,-62 108.5,-81 169.5,-81 169.5,-62 108.5,-62"/>
<text text-anchor="middle" x="139" y="-69" font-family="Helvetica,sans-Serif" font-size="10.00">ucontext.h</text>
</a>
</g>
</g>
<!-- Node14&#45;&gt;Node15 -->
<g id="edge17" class="edge">
<title>Node14&#45;&gt;Node15</title>
<path fill="none" stroke="midnightblue" d="M139,-128.73C139,-118 139,-103.19 139,-91.46"/>
<polygon fill="midnightblue" stroke="midnightblue" points="142.5,-91.39 139,-81.39 135.5,-91.39 142.5,-91.39"/>
</g>
<!-- Node16&#45;&gt;Node11 -->
<g id="edge19" class="edge">
<title>Node16&#45;&gt;Node11</title>
<path fill="none" stroke="midnightblue" d="M636.49,-128.73C641.45,-119.27 648.08,-106.64 653.8,-95.75"/>
<polygon fill="midnightblue" stroke="midnightblue" points="656.98,-97.23 658.52,-86.75 650.78,-93.97 656.98,-97.23"/>
</g>
<!-- Node16&#45;&gt;Node12 -->
<g id="edge20" class="edge">
<title>Node16&#45;&gt;Node12</title>
<path fill="none" stroke="midnightblue" d="M617.03,-128.89C608.77,-118.17 598.49,-102.65 594,-87 590.2,-73.76 590.32,-69.28 594,-56 596.79,-45.92 602.51,-35.83 607.97,-27.77"/>
<polygon fill="midnightblue" stroke="midnightblue" points="610.82,-29.79 613.85,-19.64 605.15,-25.69 610.82,-29.79"/>
</g>
<!-- Node20&#45;&gt;Node4 -->
<g id="edge27" class="edge">
<title>Node20&#45;&gt;Node4</title>
<path fill="none" stroke="midnightblue" d="M835.16,-272.49C776.67,-260.97 680.65,-242.05 617.88,-229.69"/>
<polygon fill="midnightblue" stroke="midnightblue" points="618.2,-226.18 607.71,-227.69 616.85,-233.05 618.2,-226.18"/>
</g>
<!-- Node20&#45;&gt;Node7 -->
<g id="edge32" class="edge">
<title>Node20&#45;&gt;Node7</title>
<path fill="none" stroke="midnightblue" d="M892.47,-268.35C901.24,-250.56 918.41,-220.02 941,-201 970.82,-175.88 999.83,-197.74 1021,-165 1031.14,-149.32 1029.72,-139.51 1021,-123 1012.01,-105.99 994.43,-93.62 978.66,-85.39"/>
<polygon fill="midnightblue" stroke="midnightblue" points="980.18,-82.24 969.66,-81.01 977.12,-88.53 980.18,-82.24"/>
</g>
<!-- Node20&#45;&gt;Node10 -->
<g id="edge26" class="edge">
<title>Node20&#45;&gt;Node10</title>
<path fill="none" stroke="midnightblue" d="M888.27,-268.44C891.3,-251.78 897.54,-223.45 908,-201 913.5,-189.21 921.45,-177.22 928.75,-167.39"/>
<polygon fill="midnightblue" stroke="midnightblue" points="931.6,-169.42 934.91,-159.35 926.05,-165.16 931.6,-169.42"/>
</g>
<!-- Node20&#45;&gt;Node11 -->
<g id="edge29" class="edge">
<title>Node20&#45;&gt;Node11</title>
<path fill="none" stroke="midnightblue" d="M835.42,-277.29C801.8,-271.39 758.71,-258.81 730,-232 719.57,-222.26 689.01,-138.07 674.21,-96.09"/>
<polygon fill="midnightblue" stroke="midnightblue" points="677.51,-94.91 670.9,-86.64 670.9,-97.23 677.51,-94.91"/>
</g>
<!-- Node20&#45;&gt;Node16 -->
<g id="edge28" class="edge">
<title>Node20&#45;&gt;Node16</title>
<path fill="none" stroke="midnightblue" d="M835.1,-279.47C792.44,-274.75 731.69,-262.69 688,-232 665.26,-216.03 648.7,-188.28 639.01,-168.41"/>
<polygon fill="midnightblue" stroke="midnightblue" points="642.08,-166.7 634.69,-159.11 635.73,-169.65 642.08,-166.7"/>
</g>
<!-- Node21 -->
<g id="node21" class="node">
<title>Node21</title>
<g id="a_node21"><a xlink:href="inject_8hpp.html" target="_top" xlink:title=" ">
<polygon fill="none" stroke="black" points="739.5,-207 739.5,-226 846.5,-226 846.5,-207 739.5,-207"/>
<text text-anchor="middle" x="793" y="-214" font-family="Helvetica,sans-Serif" font-size="10.00">yaclib/fault/inject.hpp</text>
</a>
</g>
</g>
<!-- Node20&#45;&gt;Node21 -->
<g id="edge30" class="edge">
<title>Node20&#45;&gt;Node21</title>
<path fill="none" stroke="midnightblue" d="M865.82,-268.4C850.37,-257.6 829.14,-242.76 813.58,-231.89"/>
<polygon fill="midnightblue" stroke="midnightblue" points="815.37,-228.87 805.17,-226.01 811.36,-234.6 815.37,-228.87"/>
</g>
<!-- Node22 -->
<g id="node22" class="node">
<title>Node22</title>
<g id="a_node22"><a xlink:title=" ">
<polygon fill="none" stroke="#bfbfbf" points="1004,-207 1004,-226 1050,-226 1050,-207 1004,-207"/>
<text text-anchor="middle" x="1027" y="-214" font-family="Helvetica,sans-Serif" font-size="10.00">chrono</text>
</a>
</g>
</g>
<!-- Node20&#45;&gt;Node22 -->
<g id="edge33" class="edge">
<title>Node20&#45;&gt;Node22</title>
<path fill="none" stroke="midnightblue" d="M916.59,-268.4C941.23,-257.04 975.55,-241.22 999.36,-230.24"/>
<polygon fill="midnightblue" stroke="midnightblue" points="1000.93,-233.37 1008.55,-226.01 998,-227.02 1000.93,-233.37"/>
</g>
<!-- Node23 -->
<g id="node23" class="node">
<title>Node23</title>
<g id="a_node23"><a xlink:title=" ">
<polygon fill="none" stroke="#bfbfbf" points="950.5,-207 950.5,-226 985.5,-226 985.5,-207 950.5,-207"/>
<text text-anchor="middle" x="968" y="-214" font-family="Helvetica,sans-Serif" font-size="10.00">map</text>
</a>
</g>
</g>
<!-- Node20&#45;&gt;Node23 -->
<g id="edge34" class="edge">
<title>Node20&#45;&gt;Node23</title>
<path fill="none" stroke="midnightblue" d="M903.79,-268.4C917.08,-257.86 935.23,-243.48 948.84,-232.69"/>
<polygon fill="midnightblue" stroke="midnightblue" points="951.37,-235.15 957.03,-226.19 947.02,-229.66 951.37,-235.15"/>
</g>
<!-- Node21&#45;&gt;Node9 -->
<g id="edge31" class="edge">
<title>Node21&#45;&gt;Node9</title>
<path fill="none" stroke="midnightblue" d="M784.64,-206.7C776.29,-197.25 764,-181.38 759,-165 753.55,-147.15 751.73,-140.19 759,-123 765.09,-108.59 777.53,-96.27 788.71,-87.4"/>
<polygon fill="midnightblue" stroke="midnightblue" points="790.96,-90.09 796.89,-81.32 786.78,-84.48 790.96,-90.09"/>
</g>
<!-- Node24&#45;&gt;Node20 -->
<g id="edge36" class="edge">
<title>Node24&#45;&gt;Node20</title>
<path fill="none" stroke="midnightblue" d="M965.08,-335.4C950.92,-326.28 932.29,-314.29 916.67,-304.24"/>
<polygon fill="midnightblue" stroke="midnightblue" points="918.18,-301.05 907.87,-298.58 914.39,-306.93 918.18,-301.05"/>
</g>
<!-- Node24&#45;&gt;Node22 -->
<g id="edge37" class="edge">
<title>Node24&#45;&gt;Node22</title>
<path fill="none" stroke="midnightblue" d="M991.28,-335.37C998.58,-311.29 1013.42,-262.31 1021.48,-235.7"/>
<polygon fill="midnightblue" stroke="midnightblue" points="1024.84,-236.68 1024.39,-226.1 1018.15,-234.65 1024.84,-236.68"/>
</g>
</g>
</svg>
        <g id="navigator" transform="translate(0 0)" fill="#404254">
                <rect fill="#f2f5e9" fill-opacity="0.5" stroke="#606060" stroke-width=".5" x="0" y="0" width="60" height="60"/>
                <use id="zoomplus" xlink:href="#zoomPlus" x="17" y="9" onmousedown="handleZoom(evt,'in')"/>
                <use id="zoomminus" xlink:href="#zoomMin" x="42" y="9" onmousedown="handleZoom(evt,'out')"/>
                <use id="reset" xlink:href="#resetDef" x="30" y="36" onmousedown="handleReset()"/>
                <g id="arrowUp" xlink:href="#dirArrow" transform="translate(30 24)" onmousedown="handlePan(0,-1)">
                  <use xlink:href="#rim" fill="#404040">
                        <set attributeName="fill" to="#808080" begin="arrowUp.mouseover" end="arrowUp.mouseout"/>
                  </use>
                  <path fill="none" stroke="white" stroke-width="1.5" d="M0,-3.0v7 M-2.5,-0.5L0,-3.0L2.5,-0.5"/>
                </g>
                <g id="arrowRight" xlink:href="#dirArrow" transform="rotate(90) translate(36 -43)" onmousedown="handlePan(1,0)">
                  <use xlink:href="#rim" fill="#404040">
                        <set attributeName="fill" to="#808080" begin="arrowRight.mouseover" end="arrowRight.mouseout"/>
                  </use>
                  <path fill="none" stroke="white" stroke-width="1.5" d="M0,-3.0v7 M-2.5,-0.5L0,-3.0L2.5,-0.5"/>
                </g>
                <g id="arrowDown" xlink:href="#dirArrow" transform="rotate(180) translate(-30 -48)" onmousedown="handlePan(0,1)">
                  <use xlink:href="#rim" fill="#404040">
                        <set attributeName="fill" to="#808080" begin="arrowDown.mouseover" end="arrowDown.mouseout"/>
                  </use>
                  <path fill="none" stroke="white" stroke-width="1.5" d="M0,-3.0v7 M-2.5,-0.5L0,-3.0L2.5,-0.5"/>
                </g>
                <g id="arrowLeft" xlink:href="#dirArrow" transform="rotate(270) translate(-36 17)" onmousedown="handlePan(-1,0)">
                  <use xlink:href="#rim" fill="#404040">
                        <set attributeName="fill" to="#808080" begin="arrowLeft.mouseover" end="arrowLeft.mouseout"/>
                  </use>
                  <path fill="none" stroke="white" stroke-width="1.5" d="M0,-3.0v7 M-2.5,-0.5L0,-3.0L2.5,-0.5"/>
                </g>
        </g>
        <svg viewBox="0 0 15 15" width="100%" height="30px" preserveAspectRatio="xMaxYMin meet">
         <g id="arrow_out" transform="scale(0.3 0.3)">
          <a xlink:href="fault_2detail_2fiber_2timed__mutex_8hpp__incl_org.svg" target="_base">
           <rect id="button" ry="5" rx="5" y="6" x="6" height="38" width="38"
                fill="#f2f5e9" fill-opacity="0.5" stroke="#606060" stroke-width="1.0"/>
           <path id="arrow"
             d="M 11.500037,31.436501 C 11.940474,20.09759 22.043105,11.32322 32.158766,21.979434 L 37.068811,17.246167 C 37.068811,17.246167 37.088388,32 37.088388,32 L 22.160133,31.978069 C 22.160133,31.978069 26.997745,27.140456 26.997745,27.140456 C 18.528582,18.264221 13.291696,25.230495 11.500037,31.436501 z"
             style="fill:#404040;"/>
          </a>
         </g>
        </svg>
</svg>
