<?xml version="1.0" encoding="UTF-8" standalone="no"?>
<!DOCTYPE svg PUBLIC "-//W3C//DTD SVG 1.1//EN"
 "http://www.w3.org/Graphics/SVG/1.1/DTD/svg11.dtd">
<!-- Generated by graphviz version 3.0.0 (20221109.1736)
 -->
<!-- Title: include/yaclib/fault/detail/fiber/thread.hpp Pages: 1 -->
<svg width="1195pt" height="508pt"
 viewBox="0.00 0.00 1195.00 508.00" xmlns="http://www.w3.org/2000/svg" xmlns:xlink="http://www.w3.org/1999/xlink">
<g id="graph0" class="graph" transform="scale(1 1) rotate(0) translate(4 504)">
<title>include/yaclib/fault/detail/fiber/thread.hpp</title>
<!-- Node1 -->
<g id="node1" class="node">
<title>Node1</title>
<g id="a_node1"><a xlink:title=" ">
<polygon fill="#bfbfbf" stroke="black" points="683,-469.5 683,-499.5 795,-499.5 795,-469.5 683,-469.5"/>
<text text-anchor="start" x="691" y="-487.5" font-family="Helvetica,sans-Serif" font-size="10.00">include/yaclib/fault</text>
<text text-anchor="middle" x="739" y="-476.5" font-family="Helvetica,sans-Serif" font-size="10.00">/detail/fiber/thread.hpp</text>
</a>
</g>
</g>
<!-- Node2 -->
<g id="node2" class="node">
<title>Node2</title>
<g id="a_node2"><a xlink:href="fiber_8hpp.html" target="_top" xlink:title=" ">
<polygon fill="none" stroke="black" points="295.5,-402.5 295.5,-432.5 384.5,-432.5 384.5,-402.5 295.5,-402.5"/>
<text text-anchor="start" x="303.5" y="-420.5" font-family="Helvetica,sans-Serif" font-size="10.00">yaclib/fault/detail</text>
<text text-anchor="middle" x="340" y="-409.5" font-family="Helvetica,sans-Serif" font-size="10.00">/fiber/fiber.hpp</text>
</a>
</g>
</g>
<!-- Node1&#45;&gt;Node2 -->
<g id="edge1" class="edge">
<title>Node1&#45;&gt;Node2</title>
<path fill="none" stroke="midnightblue" d="M682.68,-474.32C606.26,-461.88 470.58,-439.77 394.9,-427.44"/>
<polygon fill="midnightblue" stroke="midnightblue" points="395.07,-423.92 384.63,-425.77 393.94,-430.83 395.07,-423.92"/>
</g>
<!-- Node6 -->
<g id="node6" class="node">
<title>Node6</title>
<g id="a_node6"><a xlink:href="log_8hpp.html" target="_top" xlink:title=" ">
<polygon fill="none" stroke="black" points="1002.5,-62 1002.5,-81 1077.5,-81 1077.5,-62 1002.5,-62"/>
<text text-anchor="middle" x="1040" y="-69" font-family="Helvetica,sans-Serif" font-size="10.00">yaclib/log.hpp</text>
</a>
</g>
</g>
<!-- Node1&#45;&gt;Node6 -->
<g id="edge44" class="edge">
<title>Node1&#45;&gt;Node6</title>
<path fill="none" stroke="midnightblue" d="M795.29,-475.71C900.18,-459.6 1115,-418.44 1115,-351.5 1115,-351.5 1115,-351.5 1115,-215.5 1115,-164.37 1076.93,-113.51 1055.04,-88.49"/>
<polygon fill="midnightblue" stroke="midnightblue" points="1057.61,-86.11 1048.31,-81.03 1052.41,-90.8 1057.61,-86.11"/>
</g>
<!-- Node19 -->
<g id="node19" class="node">
<title>Node19</title>
<g id="a_node19"><a xlink:title=" ">
<polygon fill="none" stroke="#bfbfbf" points="237.5,-341 237.5,-360 296.5,-360 296.5,-341 237.5,-341"/>
<text text-anchor="middle" x="267" y="-348" font-family="Helvetica,sans-Serif" font-size="10.00">functional</text>
</a>
</g>
</g>
<!-- Node1&#45;&gt;Node19 -->
<g id="edge45" class="edge">
<title>Node1&#45;&gt;Node19</title>
<path fill="none" stroke="midnightblue" d="M682.99,-480.84C568.33,-474.88 315.17,-458.92 286,-433 268.47,-417.42 265.49,-389.09 265.68,-370.28"/>
<polygon fill="midnightblue" stroke="midnightblue" points="269.18,-370.37 266.1,-360.23 262.19,-370.08 269.18,-370.37"/>
</g>
<!-- Node20 -->
<g id="node20" class="node">
<title>Node20</title>
<g id="a_node20"><a xlink:href="queue_8hpp.html" target="_top" xlink:title=" ">
<polygon fill="none" stroke="black" points="578.5,-402.5 578.5,-432.5 667.5,-432.5 667.5,-402.5 578.5,-402.5"/>
<text text-anchor="start" x="586.5" y="-420.5" font-family="Helvetica,sans-Serif" font-size="10.00">yaclib/fault/detail</text>
<text text-anchor="middle" x="623" y="-409.5" font-family="Helvetica,sans-Serif" font-size="10.00">/fiber/queue.hpp</text>
</a>
</g>
</g>
<!-- Node1&#45;&gt;Node20 -->
<g id="edge26" class="edge">
<title>Node1&#45;&gt;Node20</title>
<path fill="none" stroke="midnightblue" d="M713.83,-469.4C697.26,-460.11 675.36,-447.84 657.22,-437.67"/>
<polygon fill="midnightblue" stroke="midnightblue" points="658.56,-434.41 648.12,-432.58 655.13,-440.52 658.56,-434.41"/>
</g>
<!-- Node21 -->
<g id="node21" class="node">
<title>Node21</title>
<g id="a_node21"><a xlink:href="scheduler_8hpp.html" target="_top" xlink:title=" ">
<polygon fill="none" stroke="black" points="688.5,-268.5 688.5,-298.5 789.5,-298.5 789.5,-268.5 688.5,-268.5"/>
<text text-anchor="start" x="696.5" y="-286.5" font-family="Helvetica,sans-Serif" font-size="10.00">yaclib/fault/detail</text>
<text text-anchor="middle" x="739" y="-275.5" font-family="Helvetica,sans-Serif" font-size="10.00">/fiber/scheduler.hpp</text>
</a>
</g>
</g>
<!-- Node1&#45;&gt;Node21 -->
<g id="edge43" class="edge">
<title>Node1&#45;&gt;Node21</title>
<path fill="none" stroke="midnightblue" d="M743.88,-469.5C752.43,-443.06 768.36,-384.06 759,-335 757.25,-325.81 753.85,-316.16 750.35,-307.79"/>
<polygon fill="midnightblue" stroke="midnightblue" points="753.54,-306.36 746.28,-298.65 747.15,-309.21 753.54,-306.36"/>
</g>
<!-- Node27 -->
<g id="node27" class="node">
<title>Node27</title>
<g id="a_node27"><a xlink:title=" ">
<polygon fill="none" stroke="#bfbfbf" points="1143,-408 1143,-427 1187,-427 1187,-408 1143,-408"/>
<text text-anchor="middle" x="1165" y="-415" font-family="Helvetica,sans-Serif" font-size="10.00">thread</text>
</a>
</g>
</g>
<!-- Node1&#45;&gt;Node27 -->
<g id="edge46" class="edge">
<title>Node1&#45;&gt;Node27</title>
<path fill="none" stroke="midnightblue" d="M795.07,-480.72C871.61,-475.91 1012.58,-463.45 1129,-433 1131.51,-432.34 1134.08,-431.56 1136.63,-430.69"/>
<polygon fill="midnightblue" stroke="midnightblue" points="1138.11,-433.88 1146.25,-427.1 1135.66,-427.32 1138.11,-433.88"/>
</g>
<!-- Node3 -->
<g id="node3" class="node">
<title>Node3</title>
<g id="a_node3"><a xlink:href="fiber__base_8hpp.html" target="_top" xlink:title=" ">
<polygon fill="none" stroke="black" points="430.5,-201.5 430.5,-231.5 533.5,-231.5 533.5,-201.5 430.5,-201.5"/>
<text text-anchor="start" x="438.5" y="-219.5" font-family="Helvetica,sans-Serif" font-size="10.00">yaclib/fault/detail</text>
<text text-anchor="middle" x="482" y="-208.5" font-family="Helvetica,sans-Serif" font-size="10.00">/fiber/fiber_base.hpp</text>
</a>
</g>
</g>
<!-- Node2&#45;&gt;Node3 -->
<g id="edge2" class="edge">
<title>Node2&#45;&gt;Node3</title>
<path fill="none" stroke="midnightblue" d="M350.21,-402.19C374.62,-367.98 436.5,-281.26 465.95,-239.99"/>
<polygon fill="midnightblue" stroke="midnightblue" points="468.92,-241.86 471.88,-231.68 463.22,-237.79 468.92,-241.86"/>
</g>
<!-- Node2&#45;&gt;Node19 -->
<g id="edge25" class="edge">
<title>Node2&#45;&gt;Node19</title>
<path fill="none" stroke="midnightblue" d="M324.16,-402.4C312.44,-391.96 296.48,-377.75 284.41,-367"/>
<polygon fill="midnightblue" stroke="midnightblue" points="286.56,-364.23 276.76,-360.19 281.91,-369.46 286.56,-364.23"/>
</g>
<!-- Node4 -->
<g id="node4" class="node">
<title>Node4</title>
<g id="a_node4"><a xlink:title=" ">
<polygon fill="none" stroke="#bfbfbf" points="0,-62 0,-81 88,-81 88,-62 0,-62"/>
<text text-anchor="middle" x="44" y="-69" font-family="Helvetica,sans-Serif" font-size="10.00">yaclib/config.hpp</text>
</a>
</g>
</g>
<!-- Node3&#45;&gt;Node4 -->
<g id="edge3" class="edge">
<title>Node3&#45;&gt;Node4</title>
<path fill="none" stroke="midnightblue" d="M430.24,-212.69C323.68,-206.43 87.49,-189.89 61,-165 41.03,-146.24 39.94,-112.32 41.55,-91.18"/>
<polygon fill="midnightblue" stroke="midnightblue" points="45.04,-91.49 42.59,-81.18 38.08,-90.77 45.04,-91.49"/>
</g>
<!-- Node5 -->
<g id="node5" class="node">
<title>Node5</title>
<g id="a_node5"><a xlink:href="bidirectional__intrusive__list_8hpp.html" target="_top" xlink:title=" ">
<polygon fill="none" stroke="black" points="953.5,-123.5 953.5,-164.5 1048.5,-164.5 1048.5,-123.5 953.5,-123.5"/>
<text text-anchor="start" x="961.5" y="-152.5" font-family="Helvetica,sans-Serif" font-size="10.00">yaclib/fault/detail</text>
<text text-anchor="start" x="961.5" y="-141.5" font-family="Helvetica,sans-Serif" font-size="10.00">/fiber/bidirectional</text>
<text text-anchor="middle" x="1001" y="-130.5" font-family="Helvetica,sans-Serif" font-size="10.00">_intrusive_list.hpp</text>
</a>
</g>
</g>
<!-- Node3&#45;&gt;Node5 -->
<g id="edge4" class="edge">
<title>Node3&#45;&gt;Node5</title>
<path fill="none" stroke="midnightblue" d="M533.81,-203.03C537.59,-202.29 541.35,-201.6 545,-201 704.11,-174.86 746.65,-189.64 906,-165 918.1,-163.13 930.99,-160.71 943.24,-158.2"/>
<polygon fill="midnightblue" stroke="midnightblue" points="944.27,-161.56 953.34,-156.09 942.84,-154.71 944.27,-161.56"/>
</g>
<!-- Node9 -->
<g id="node9" class="node">
<title>Node9</title>
<g id="a_node9"><a xlink:href="default__allocator_8hpp.html" target="_top" xlink:title=" ">
<polygon fill="none" stroke="black" points="767,-129 767,-159 897,-159 897,-129 767,-129"/>
<text text-anchor="start" x="775" y="-147" font-family="Helvetica,sans-Serif" font-size="10.00">yaclib/fault/detail</text>
<text text-anchor="middle" x="832" y="-136" font-family="Helvetica,sans-Serif" font-size="10.00">/fiber/default_allocator.hpp</text>
</a>
</g>
</g>
<!-- Node3&#45;&gt;Node9 -->
<g id="edge8" class="edge">
<title>Node3&#45;&gt;Node9</title>
<path fill="none" stroke="midnightblue" d="M533.54,-203.49C537.42,-202.63 541.27,-201.79 545,-201 616.67,-185.76 698.76,-169.91 756.73,-158.97"/>
<polygon fill="midnightblue" stroke="midnightblue" points="757.72,-162.35 766.9,-157.06 756.43,-155.47 757.72,-162.35"/>
</g>
<!-- Node10 -->
<g id="node10" class="node">
<title>Node10</title>
<g id="a_node10"><a xlink:href="stack__allocator_8hpp.html" target="_top" xlink:title=" ">
<polygon fill="none" stroke="black" points="647.5,-56.5 647.5,-86.5 772.5,-86.5 772.5,-56.5 647.5,-56.5"/>
<text text-anchor="start" x="655.5" y="-74.5" font-family="Helvetica,sans-Serif" font-size="10.00">yaclib/fault/detail</text>
<text text-anchor="middle" x="710" y="-63.5" font-family="Helvetica,sans-Serif" font-size="10.00">/fiber/stack_allocator.hpp</text>
</a>
</g>
</g>
<!-- Node3&#45;&gt;Node10 -->
<g id="edge21" class="edge">
<title>Node3&#45;&gt;Node10</title>
<path fill="none" stroke="midnightblue" d="M533.62,-203.12C591.95,-189.03 679.25,-167.63 682,-165 700.6,-147.24 706.97,-117.59 709.08,-96.65"/>
<polygon fill="midnightblue" stroke="midnightblue" points="712.58,-96.84 709.84,-86.6 705.6,-96.31 712.58,-96.84"/>
</g>
<!-- Node13 -->
<g id="node13" class="node">
<title>Node13</title>
<g id="a_node13"><a xlink:href="execution__context_8hpp.html" target="_top" xlink:title=" ">
<polygon fill="none" stroke="black" points="70.5,-129 70.5,-159 207.5,-159 207.5,-129 70.5,-129"/>
<text text-anchor="start" x="78.5" y="-147" font-family="Helvetica,sans-Serif" font-size="10.00">yaclib/fault/detail</text>
<text text-anchor="middle" x="139" y="-136" font-family="Helvetica,sans-Serif" font-size="10.00">/fiber/execution_context.hpp</text>
</a>
</g>
</g>
<!-- Node3&#45;&gt;Node13 -->
<g id="edge14" class="edge">
<title>Node3&#45;&gt;Node13</title>
<path fill="none" stroke="midnightblue" d="M430.28,-204.87C373.67,-193.23 282.29,-174.45 216.98,-161.03"/>
<polygon fill="midnightblue" stroke="midnightblue" points="217.63,-157.59 207.13,-159 216.22,-164.45 217.63,-157.59"/>
</g>
<!-- Node15 -->
<g id="node15" class="node">
<title>Node15</title>
<g id="a_node15"><a xlink:href="stack_8hpp.html" target="_top" xlink:title=" ">
<polygon fill="none" stroke="black" points="583.5,-129 583.5,-159 672.5,-159 672.5,-129 583.5,-129"/>
<text text-anchor="start" x="591.5" y="-147" font-family="Helvetica,sans-Serif" font-size="10.00">yaclib/fault/detail</text>
<text text-anchor="middle" x="628" y="-136" font-family="Helvetica,sans-Serif" font-size="10.00">/fiber/stack.hpp</text>
</a>
</g>
</g>
<!-- Node3&#45;&gt;Node15 -->
<g id="edge18" class="edge">
<title>Node3&#45;&gt;Node15</title>
<path fill="none" stroke="midnightblue" d="M511.19,-201.4C533.77,-190.5 565.23,-175.31 589.81,-163.44"/>
<polygon fill="midnightblue" stroke="midnightblue" points="591.37,-166.57 598.86,-159.07 588.33,-160.27 591.37,-166.57"/>
</g>
<!-- Node16 -->
<g id="node16" class="node">
<title>Node16</title>
<g id="a_node16"><a xlink:href="wakeup__helper_8hpp.html" target="_top" xlink:title=" ">
<polygon fill="none" stroke="black" points="366,-129 366,-159 490,-159 490,-129 366,-129"/>
<text text-anchor="start" x="374" y="-147" font-family="Helvetica,sans-Serif" font-size="10.00">yaclib/fault/detail</text>
<text text-anchor="middle" x="428" y="-136" font-family="Helvetica,sans-Serif" font-size="10.00">/fiber/wakeup_helper.hpp</text>
</a>
</g>
</g>
<!-- Node3&#45;&gt;Node16 -->
<g id="edge22" class="edge">
<title>Node3&#45;&gt;Node16</title>
<path fill="none" stroke="midnightblue" d="M471.07,-201.23C463.61,-191.49 453.56,-178.37 445.05,-167.26"/>
<polygon fill="midnightblue" stroke="midnightblue" points="447.77,-165.06 438.91,-159.25 442.21,-169.31 447.77,-165.06"/>
</g>
<!-- Node17 -->
<g id="node17" class="node">
<title>Node17</title>
<g id="a_node17"><a xlink:title=" ">
<polygon fill="none" stroke="#bfbfbf" points="508,-134.5 508,-153.5 566,-153.5 566,-134.5 508,-134.5"/>
<text text-anchor="middle" x="537" y="-141.5" font-family="Helvetica,sans-Serif" font-size="10.00">exception</text>
</a>
</g>
</g>
<!-- Node3&#45;&gt;Node17 -->
<g id="edge23" class="edge">
<title>Node3&#45;&gt;Node17</title>
<path fill="none" stroke="midnightblue" d="M493.13,-201.23C502.02,-189.84 514.5,-173.84 523.88,-161.82"/>
<polygon fill="midnightblue" stroke="midnightblue" points="526.67,-163.93 530.06,-153.89 521.15,-159.62 526.67,-163.93"/>
</g>
<!-- Node18 -->
<g id="node18" class="node">
<title>Node18</title>
<g id="a_node18"><a xlink:title=" ">
<polygon fill="none" stroke="#bfbfbf" points="264.5,-134.5 264.5,-153.5 347.5,-153.5 347.5,-134.5 264.5,-134.5"/>
<text text-anchor="middle" x="306" y="-141.5" font-family="Helvetica,sans-Serif" font-size="10.00">unordered_map</text>
</a>
</g>
</g>
<!-- Node3&#45;&gt;Node18 -->
<g id="edge24" class="edge">
<title>Node3&#45;&gt;Node18</title>
<path fill="none" stroke="midnightblue" d="M446.81,-201.4C414.58,-188.49 367.37,-169.58 336.65,-157.28"/>
<polygon fill="midnightblue" stroke="midnightblue" points="337.89,-154 327.3,-153.53 335.29,-160.5 337.89,-154"/>
</g>
<!-- Node5&#45;&gt;Node6 -->
<g id="edge5" class="edge">
<title>Node5&#45;&gt;Node6</title>
<path fill="none" stroke="midnightblue" d="M1011.86,-123.36C1017.61,-112.97 1024.61,-100.32 1030.19,-90.23"/>
<polygon fill="midnightblue" stroke="midnightblue" points="1033.42,-91.62 1035.2,-81.17 1027.3,-88.23 1033.42,-91.62"/>
</g>
<!-- Node8 -->
<g id="node8" class="node">
<title>Node8</title>
<g id="a_node8"><a xlink:title=" ">
<polygon fill="none" stroke="#bfbfbf" points="902,-62 902,-81 948,-81 948,-62 902,-62"/>
<text text-anchor="middle" x="925" y="-69" font-family="Helvetica,sans-Serif" font-size="10.00">cstdint</text>
</a>
</g>
</g>
<!-- Node5&#45;&gt;Node8 -->
<g id="edge7" class="edge">
<title>Node5&#45;&gt;Node8</title>
<path fill="none" stroke="midnightblue" d="M979.83,-123.36C967.81,-112.21 952.98,-98.46 941.78,-88.06"/>
<polygon fill="midnightblue" stroke="midnightblue" points="944.06,-85.41 934.35,-81.17 939.3,-90.54 944.06,-85.41"/>
</g>
<!-- Node7 -->
<g id="node7" class="node">
<title>Node7</title>
<g id="a_node7"><a xlink:title=" ">
<polygon fill="none" stroke="#bfbfbf" points="1007,-0.5 1007,-19.5 1073,-19.5 1073,-0.5 1007,-0.5"/>
<text text-anchor="middle" x="1040" y="-7.5" font-family="Helvetica,sans-Serif" font-size="10.00">string_view</text>
</a>
</g>
</g>
<!-- Node6&#45;&gt;Node7 -->
<g id="edge6" class="edge">
<title>Node6&#45;&gt;Node7</title>
<path fill="none" stroke="midnightblue" d="M1040,-61.98C1040,-53.58 1040,-40.48 1040,-29.66"/>
<polygon fill="midnightblue" stroke="midnightblue" points="1043.5,-29.51 1040,-19.51 1036.5,-29.51 1043.5,-29.51"/>
</g>
<!-- Node9&#45;&gt;Node6 -->
<g id="edge11" class="edge">
<title>Node9&#45;&gt;Node6</title>
<path fill="none" stroke="midnightblue" d="M873.59,-128.9C912.17,-115.83 968.93,-96.59 1005.18,-84.3"/>
<polygon fill="midnightblue" stroke="midnightblue" points="1006.48,-87.56 1014.82,-81.03 1004.23,-80.93 1006.48,-87.56"/>
</g>
<!-- Node9&#45;&gt;Node8 -->
<g id="edge12" class="edge">
<title>Node9&#45;&gt;Node8</title>
<path fill="none" stroke="midnightblue" d="M850.82,-128.73C866.67,-116.72 889.27,-99.58 905.36,-87.39"/>
<polygon fill="midnightblue" stroke="midnightblue" points="907.68,-90.02 913.54,-81.19 903.45,-84.44 907.68,-90.02"/>
</g>
<!-- Node9&#45;&gt;Node10 -->
<g id="edge9" class="edge">
<title>Node9&#45;&gt;Node10</title>
<path fill="none" stroke="midnightblue" d="M807.6,-128.9C789.15,-118.24 763.61,-103.48 743.28,-91.73"/>
<polygon fill="midnightblue" stroke="midnightblue" points="744.76,-88.55 734.35,-86.57 741.26,-94.61 744.76,-88.55"/>
</g>
<!-- Node12 -->
<g id="node12" class="node">
<title>Node12</title>
<g id="a_node12"><a xlink:title=" ">
<polygon fill="none" stroke="#bfbfbf" points="805,-62 805,-81 849,-81 849,-62 805,-62"/>
<text text-anchor="middle" x="827" y="-69" font-family="Helvetica,sans-Serif" font-size="10.00">vector</text>
</a>
</g>
</g>
<!-- Node9&#45;&gt;Node12 -->
<g id="edge13" class="edge">
<title>Node9&#45;&gt;Node12</title>
<path fill="none" stroke="midnightblue" d="M830.99,-128.73C830.23,-118 829.18,-103.19 828.34,-91.46"/>
<polygon fill="midnightblue" stroke="midnightblue" points="831.83,-91.12 827.63,-81.39 824.85,-91.62 831.83,-91.12"/>
</g>
<!-- Node11 -->
<g id="node11" class="node">
<title>Node11</title>
<g id="a_node11"><a xlink:title=" ">
<polygon fill="none" stroke="#bfbfbf" points="640.5,-0.5 640.5,-19.5 689.5,-19.5 689.5,-0.5 640.5,-0.5"/>
<text text-anchor="middle" x="665" y="-7.5" font-family="Helvetica,sans-Serif" font-size="10.00">cstddef</text>
</a>
</g>
</g>
<!-- Node10&#45;&gt;Node11 -->
<g id="edge10" class="edge">
<title>Node10&#45;&gt;Node11</title>
<path fill="none" stroke="midnightblue" d="M699.34,-56.4C692.86,-47.84 684.57,-36.87 677.75,-27.86"/>
<polygon fill="midnightblue" stroke="midnightblue" points="680.37,-25.52 671.55,-19.66 674.79,-29.74 680.37,-25.52"/>
</g>
<!-- Node13&#45;&gt;Node4 -->
<g id="edge15" class="edge">
<title>Node13&#45;&gt;Node4</title>
<path fill="none" stroke="midnightblue" d="M119.78,-128.73C103.58,-116.72 80.49,-99.58 64.07,-87.39"/>
<polygon fill="midnightblue" stroke="midnightblue" points="65.83,-84.34 55.71,-81.19 61.66,-89.96 65.83,-84.34"/>
</g>
<!-- Node13&#45;&gt;Node10 -->
<g id="edge16" class="edge">
<title>Node13&#45;&gt;Node10</title>
<path fill="none" stroke="midnightblue" d="M192.81,-128.93C202.48,-126.72 212.5,-124.63 222,-123 368.2,-97.94 541.33,-83.6 637.08,-77"/>
<polygon fill="midnightblue" stroke="midnightblue" points="637.5,-80.48 647.24,-76.31 637.02,-73.5 637.5,-80.48"/>
</g>
<!-- Node14 -->
<g id="node14" class="node">
<title>Node14</title>
<g id="a_node14"><a xlink:title=" ">
<polygon fill="none" stroke="#bfbfbf" points="108.5,-62 108.5,-81 169.5,-81 169.5,-62 108.5,-62"/>
<text text-anchor="middle" x="139" y="-69" font-family="Helvetica,sans-Serif" font-size="10.00">ucontext.h</text>
</a>
</g>
</g>
<!-- Node13&#45;&gt;Node14 -->
<g id="edge17" class="edge">
<title>Node13&#45;&gt;Node14</title>
<path fill="none" stroke="midnightblue" d="M139,-128.73C139,-118 139,-103.19 139,-91.46"/>
<polygon fill="midnightblue" stroke="midnightblue" points="142.5,-91.39 139,-81.39 135.5,-91.39 142.5,-91.39"/>
</g>
<!-- Node15&#45;&gt;Node10 -->
<g id="edge19" class="edge">
<title>Node15&#45;&gt;Node10</title>
<path fill="none" stroke="midnightblue" d="M644.59,-128.73C656.45,-118.54 672.59,-104.66 685.88,-93.24"/>
<polygon fill="midnightblue" stroke="midnightblue" points="688.41,-95.68 693.71,-86.5 683.85,-90.37 688.41,-95.68"/>
</g>
<!-- Node15&#45;&gt;Node11 -->
<g id="edge20" class="edge">
<title>Node15&#45;&gt;Node11</title>
<path fill="none" stroke="midnightblue" d="M628.08,-128.76C628.57,-111.2 630.69,-80.67 639,-56 642.27,-46.29 647.76,-36.34 652.85,-28.27"/>
<polygon fill="midnightblue" stroke="midnightblue" points="655.86,-30.06 658.49,-19.8 650.03,-26.18 655.86,-30.06"/>
</g>
<!-- Node20&#45;&gt;Node3 -->
<g id="edge27" class="edge">
<title>Node20&#45;&gt;Node3</title>
<path fill="none" stroke="midnightblue" d="M578.2,-410.64C549.99,-404.46 515.35,-391.82 496,-366 468.91,-329.85 472.24,-274.02 477.11,-242.11"/>
<polygon fill="midnightblue" stroke="midnightblue" points="480.62,-242.34 478.85,-231.89 473.72,-241.16 480.62,-242.34"/>
</g>
<!-- Node20&#45;&gt;Node12 -->
<g id="edge42" class="edge">
<title>Node20&#45;&gt;Node12</title>
<path fill="none" stroke="midnightblue" d="M578.12,-402.94C456.71,-364.18 138.56,-247.67 255,-123 295.06,-80.11 724.36,-98.08 782,-87 786.26,-86.18 790.68,-85.08 795.02,-83.85"/>
<polygon fill="midnightblue" stroke="midnightblue" points="796.32,-87.11 804.85,-80.82 794.26,-80.42 796.32,-87.11"/>
</g>
<!-- Node20&#45;&gt;Node21 -->
<g id="edge28" class="edge">
<title>Node20&#45;&gt;Node21</title>
<path fill="none" stroke="midnightblue" d="M667.54,-409.79C693.7,-403.31 724.74,-390.64 741,-366 752.1,-349.17 750.23,-325.84 746.39,-308.45"/>
<polygon fill="midnightblue" stroke="midnightblue" points="749.71,-307.32 743.83,-298.5 742.93,-309.06 749.71,-307.32"/>
</g>
<!-- Node25 -->
<g id="node25" class="node">
<title>Node25</title>
<g id="a_node25"><a xlink:href="system__clock_8hpp.html" target="_top" xlink:title=" ">
<polygon fill="none" stroke="black" points="505.5,-335.5 505.5,-365.5 624.5,-365.5 624.5,-335.5 505.5,-335.5"/>
<text text-anchor="start" x="513.5" y="-353.5" font-family="Helvetica,sans-Serif" font-size="10.00">yaclib/fault/detail</text>
<text text-anchor="middle" x="565" y="-342.5" font-family="Helvetica,sans-Serif" font-size="10.00">/fiber/system_clock.hpp</text>
</a>
</g>
</g>
<!-- Node20&#45;&gt;Node25 -->
<g id="edge38" class="edge">
<title>Node20&#45;&gt;Node25</title>
<path fill="none" stroke="midnightblue" d="M610.41,-402.4C602.81,-393.88 592.97,-382.85 584.39,-373.23"/>
<polygon fill="midnightblue" stroke="midnightblue" points="586.83,-370.71 577.56,-365.58 581.61,-375.37 586.83,-370.71"/>
</g>
<!-- Node26 -->
<g id="node26" class="node">
<title>Node26</title>
<g id="a_node26"><a xlink:href="wait__status_8hpp.html" target="_top" xlink:title=" ">
<polygon fill="none" stroke="black" points="642.5,-335.5 642.5,-365.5 731.5,-365.5 731.5,-335.5 642.5,-335.5"/>
<text text-anchor="start" x="650.5" y="-353.5" font-family="Helvetica,sans-Serif" font-size="10.00">yaclib/fault/detail</text>
<text text-anchor="middle" x="687" y="-342.5" font-family="Helvetica,sans-Serif" font-size="10.00">/wait_status.hpp</text>
</a>
</g>
</g>
<!-- Node20&#45;&gt;Node26 -->
<g id="edge41" class="edge">
<title>Node20&#45;&gt;Node26</title>
<path fill="none" stroke="midnightblue" d="M636.89,-402.4C645.36,-393.79 656.35,-382.63 665.89,-372.94"/>
<polygon fill="midnightblue" stroke="midnightblue" points="668.62,-375.16 673.14,-365.58 663.63,-370.25 668.62,-375.16"/>
</g>
<!-- Node21&#45;&gt;Node3 -->
<g id="edge30" class="edge">
<title>Node21&#45;&gt;Node3</title>
<path fill="none" stroke="midnightblue" d="M688.23,-269.66C646.61,-259.13 587.57,-244.2 543.32,-233.01"/>
<polygon fill="midnightblue" stroke="midnightblue" points="544.1,-229.6 533.55,-230.54 542.39,-236.38 544.1,-229.6"/>
</g>
<!-- Node21&#45;&gt;Node6 -->
<g id="edge35" class="edge">
<title>Node21&#45;&gt;Node6</title>
<path fill="none" stroke="midnightblue" d="M789.88,-277.65C837.85,-271.64 910.86,-258.71 969,-232 1013.99,-211.33 1035.9,-209.3 1058,-165 1070.01,-140.93 1059.16,-109.61 1049.87,-90.29"/>
<polygon fill="midnightblue" stroke="midnightblue" points="1052.85,-88.43 1045.15,-81.15 1046.63,-91.64 1052.85,-88.43"/>
</g>
<!-- Node21&#45;&gt;Node9 -->
<g id="edge29" class="edge">
<title>Node21&#45;&gt;Node9</title>
<path fill="none" stroke="midnightblue" d="M748.6,-268.3C764.68,-244.53 797.19,-196.46 816.53,-167.87"/>
<polygon fill="midnightblue" stroke="midnightblue" points="819.61,-169.57 822.31,-159.33 813.81,-165.65 819.61,-169.57"/>
</g>
<!-- Node21&#45;&gt;Node10 -->
<g id="edge32" class="edge">
<title>Node21&#45;&gt;Node10</title>
<path fill="none" stroke="midnightblue" d="M737.05,-268.4C732.18,-233.13 719.43,-140.79 713.34,-96.66"/>
<polygon fill="midnightblue" stroke="midnightblue" points="716.77,-95.97 711.94,-86.54 709.84,-96.93 716.77,-95.97"/>
</g>
<!-- Node21&#45;&gt;Node15 -->
<g id="edge31" class="edge">
<title>Node21&#45;&gt;Node15</title>
<path fill="none" stroke="midnightblue" d="M730.15,-268.47C719.45,-251.83 700.55,-223.53 682,-201 672.15,-189.03 660.28,-176.54 650.18,-166.4"/>
<polygon fill="midnightblue" stroke="midnightblue" points="652.43,-163.71 642.87,-159.16 647.51,-168.68 652.43,-163.71"/>
</g>
<!-- Node22 -->
<g id="node22" class="node">
<title>Node22</title>
<g id="a_node22"><a xlink:href="inject_8hpp.html" target="_top" xlink:title=" ">
<polygon fill="none" stroke="black" points="852.5,-207 852.5,-226 959.5,-226 959.5,-207 852.5,-207"/>
<text text-anchor="middle" x="906" y="-214" font-family="Helvetica,sans-Serif" font-size="10.00">yaclib/fault/inject.hpp</text>
</a>
</g>
</g>
<!-- Node21&#45;&gt;Node22 -->
<g id="edge33" class="edge">
<title>Node21&#45;&gt;Node22</title>
<path fill="none" stroke="midnightblue" d="M775.24,-268.4C804.93,-256.84 846.51,-240.66 874.75,-229.66"/>
<polygon fill="midnightblue" stroke="midnightblue" points="876.09,-232.9 884.14,-226.01 873.56,-226.37 876.09,-232.9"/>
</g>
<!-- Node23 -->
<g id="node23" class="node">
<title>Node23</title>
<g id="a_node23"><a xlink:title=" ">
<polygon fill="none" stroke="#bfbfbf" points="554,-207 554,-226 600,-226 600,-207 554,-207"/>
<text text-anchor="middle" x="577" y="-214" font-family="Helvetica,sans-Serif" font-size="10.00">chrono</text>
</a>
</g>
</g>
<!-- Node21&#45;&gt;Node23 -->
<g id="edge36" class="edge">
<title>Node21&#45;&gt;Node23</title>
<path fill="none" stroke="midnightblue" d="M703.85,-268.4C675.17,-256.89 635.06,-240.8 607.67,-229.81"/>
<polygon fill="midnightblue" stroke="midnightblue" points="608.79,-226.48 598.2,-226.01 606.18,-232.98 608.79,-226.48"/>
</g>
<!-- Node24 -->
<g id="node24" class="node">
<title>Node24</title>
<g id="a_node24"><a xlink:title=" ">
<polygon fill="none" stroke="#bfbfbf" points="637.5,-207 637.5,-226 672.5,-226 672.5,-207 637.5,-207"/>
<text text-anchor="middle" x="655" y="-214" font-family="Helvetica,sans-Serif" font-size="10.00">map</text>
</a>
</g>
</g>
<!-- Node21&#45;&gt;Node24 -->
<g id="edge37" class="edge">
<title>Node21&#45;&gt;Node24</title>
<path fill="none" stroke="midnightblue" d="M720.77,-268.4C707.03,-257.76 688.22,-243.2 674.23,-232.38"/>
<polygon fill="midnightblue" stroke="midnightblue" points="676.29,-229.55 666.24,-226.19 672,-235.08 676.29,-229.55"/>
</g>
<!-- Node22&#45;&gt;Node8 -->
<g id="edge34" class="edge">
<title>Node22&#45;&gt;Node8</title>
<path fill="none" stroke="midnightblue" d="M907.13,-206.98C910.13,-184.38 918.36,-122.5 922.52,-91.18"/>
<polygon fill="midnightblue" stroke="midnightblue" points="926,-91.53 923.85,-81.15 919.06,-90.61 926,-91.53"/>
</g>
<!-- Node25&#45;&gt;Node21 -->
<g id="edge39" class="edge">
<title>Node25&#45;&gt;Node21</title>
<path fill="none" stroke="midnightblue" d="M602.76,-335.4C628.86,-325.64 663.79,-312.59 691.75,-302.15"/>
<polygon fill="midnightblue" stroke="midnightblue" points="693.18,-305.35 701.32,-298.58 690.73,-298.8 693.18,-305.35"/>
</g>
<!-- Node25&#45;&gt;Node23 -->
<g id="edge40" class="edge">
<title>Node25&#45;&gt;Node23</title>
<path fill="none" stroke="midnightblue" d="M566.28,-335.37C568.45,-311.5 572.85,-263.18 575.28,-236.41"/>
<polygon fill="midnightblue" stroke="midnightblue" points="578.8,-236.37 576.22,-226.1 571.83,-235.74 578.8,-236.37"/>
</g>
</g>
</svg>
