<?xml version="1.0" encoding="UTF-8" standalone="no"?>
<!DOCTYPE svg PUBLIC "-//W3C//DTD SVG 1.1//EN"
 "http://www.w3.org/Graphics/SVG/1.1/DTD/svg11.dtd">
<!-- Generated by graphviz version 9.0.0 (20230911.1827)
 -->
<!-- Title: include/yaclib/fault/detail/atomic_flag.hpp Pages: 1 -->
<svg width="228pt" height="216pt"
 viewBox="0.00 0.00 228.00 215.50" xmlns="http://www.w3.org/2000/svg" xmlns:xlink="http://www.w3.org/1999/xlink">

<svg id="main" version="1.1" xmlns="http://www.w3.org/2000/svg" xmlns:xlink="http://www.w3.org/1999/xlink" xml:space="preserve" onload="init(evt)">
<style type="text/css"><![CDATA[
.node, .edge {opacity: 0.7;}
.node.selected, .edge.selected {opacity: 1;}
.edge:hover path { stroke: red; }
.edge:hover polygon { stroke: red; fill: red; }
]]></style>
<script type="application/ecmascript" xlink:href="svg.min.js"/>
<svg id="graph" class="graph">
<g id="graph0" class="graph" transform="scale(1 1) rotate(0) translate(4 211.5)">
<title>include/yaclib/fault/detail/atomic_flag.hpp</title>
<!-- Node1 -->
<g id="Node000001" class="node">
<title>Node1</title>
<g id="a_Node000001"><a xlink:title=" ">
<polygon fill="#999999" stroke="#666666" points="158,-207.5 45.25,-207.5 45.25,-177 158,-177 158,-207.5"/>
<text text-anchor="start" x="53.25" y="-194" font-family="Helvetica,sans-Serif" font-size="10.00">include/yaclib/fault</text>
<text text-anchor="middle" x="101.62" y="-182.75" font-family="Helvetica,sans-Serif" font-size="10.00">/detail/atomic_flag.hpp</text>
</a>
</g>
</g>
<!-- Node2 -->
<g id="Node000002" class="node">
<title>Node2</title>
<g id="a_Node000002"><a xlink:title=" ">
<polygon fill="#e0e0e0" stroke="#999999" points="87.25,-74.5 0,-74.5 0,-55.25 87.25,-55.25 87.25,-74.5"/>
<text text-anchor="middle" x="43.62" y="-61" font-family="Helvetica,sans-Serif" font-size="10.00">yaclib/config.hpp</text>
</a>
</g>
</g>
<!-- Node1&#45;&gt;Node2 -->
<g id="edge1_Node000001_Node000002" class="edge">
<title>Node1&#45;&gt;Node2</title>
<g id="a_edge1_Node000001_Node000002"><a xlink:title=" ">
<path fill="none" stroke="#63b8ff" d="M79,-176.63C67.44,-167.82 54.4,-155.5 47.62,-141 39.51,-123.63 39.38,-101.49 40.75,-85.75"/>
<polygon fill="#63b8ff" stroke="#63b8ff" points="44.18,-86.56 41.87,-76.22 37.23,-85.74 44.18,-86.56"/>
</a>
</g>
</g>
<!-- Node3 -->
<g id="Node000003" class="node">
<title>Node3</title>
<g id="a_Node000003"><a xlink:href="atomic__wait_8hpp.html" target="_top" xlink:title=" ">
<polygon fill="white" stroke="#666666" points="146.38,-141 56.88,-141 56.88,-110.5 146.38,-110.5 146.38,-141"/>
<text text-anchor="start" x="64.88" y="-127.5" font-family="Helvetica,sans-Serif" font-size="10.00">yaclib/fault/detail</text>
<text text-anchor="middle" x="101.62" y="-116.25" font-family="Helvetica,sans-Serif" font-size="10.00">/atomic_wait.hpp</text>
</a>
</g>
</g>
<!-- Node1&#45;&gt;Node3 -->
<g id="edge2_Node000001_Node000003" class="edge">
<title>Node1&#45;&gt;Node3</title>
<g id="a_edge2_Node000001_Node000003"><a xlink:title=" ">
<path fill="none" stroke="#63b8ff" d="M101.62,-176.61C101.62,-169.52 101.62,-160.79 101.62,-152.63"/>
<polygon fill="#63b8ff" stroke="#63b8ff" points="105.13,-152.84 101.63,-142.84 98.13,-152.84 105.13,-152.84"/>
</a>
</g>
</g>
<!-- Node4 -->
<g id="Node000004" class="node">
<title>Node4</title>
<g id="a_Node000004"><a xlink:href="inject_8hpp.html" target="_top" xlink:title=" ">
<polygon fill="white" stroke="#666666" points="220,-74.5 113.25,-74.5 113.25,-55.25 220,-55.25 220,-74.5"/>
<text text-anchor="middle" x="166.62" y="-61" font-family="Helvetica,sans-Serif" font-size="10.00">yaclib/fault/inject.hpp</text>
</a>
</g>
</g>
<!-- Node1&#45;&gt;Node4 -->
<g id="edge6_Node000001_Node000004" class="edge">
<title>Node1&#45;&gt;Node4</title>
<g id="a_edge6_Node000001_Node000004"><a xlink:title=" ">
<path fill="none" stroke="#63b8ff" d="M123.46,-176.59C134.93,-167.68 148.13,-155.29 155.62,-141 164.62,-123.87 166.91,-101.69 167.24,-85.88"/>
<polygon fill="#63b8ff" stroke="#63b8ff" points="170.74,-86.27 167.17,-76.3 163.74,-86.32 170.74,-86.27"/>
</a>
</g>
</g>
<!-- Node3&#45;&gt;Node2 -->
<g id="edge3_Node000003_Node000002" class="edge">
<title>Node3&#45;&gt;Node2</title>
<g id="a_edge3_Node000003_Node000002"><a xlink:title=" ">
<path fill="none" stroke="#63b8ff" d="M87.29,-110.2C79.22,-102.01 69.1,-91.73 60.63,-83.14"/>
<polygon fill="#63b8ff" stroke="#63b8ff" points="63.14,-80.7 53.63,-76.03 58.15,-85.61 63.14,-80.7"/>
</a>
</g>
</g>
<!-- Node3&#45;&gt;Node4 -->
<g id="edge4_Node000003_Node000004" class="edge">
<title>Node3&#45;&gt;Node4</title>
<g id="a_edge4_Node000003_Node000004"><a xlink:title=" ">
<path fill="none" stroke="#63b8ff" d="M117.69,-110.2C126.92,-101.84 138.55,-91.3 148.16,-82.6"/>
<polygon fill="#63b8ff" stroke="#63b8ff" points="150.42,-85.27 155.48,-75.97 145.72,-80.09 150.42,-85.27"/>
</a>
</g>
</g>
<!-- Node5 -->
<g id="Node000005" class="node">
<title>Node5</title>
<g id="a_Node000005"><a xlink:title=" ">
<polygon fill="#e0e0e0" stroke="#999999" points="189.25,-19.25 144,-19.25 144,0 189.25,0 189.25,-19.25"/>
<text text-anchor="middle" x="166.62" y="-5.75" font-family="Helvetica,sans-Serif" font-size="10.00">cstdint</text>
</a>
</g>
</g>
<!-- Node4&#45;&gt;Node5 -->
<g id="edge5_Node000004_Node000005" class="edge">
<title>Node4&#45;&gt;Node5</title>
<g id="a_edge5_Node000004_Node000005"><a xlink:title=" ">
<path fill="none" stroke="#63b8ff" d="M166.62,-55.08C166.62,-48.57 166.62,-39.42 166.62,-31.12"/>
<polygon fill="#63b8ff" stroke="#63b8ff" points="170.13,-31.12 166.63,-21.12 163.13,-31.12 170.13,-31.12"/>
</a>
</g>
</g>
</g>
</svg>
</svg>

<style type='text/css'>
<![CDATA[
[data-mouse-over-selected='false'] { opacity: 0.7; }
[data-mouse-over-selected='true']  { opacity: 1.0; }
]]>
</style>
<script type="application/ecmascript"><![CDATA[
document.addEventListener('DOMContentLoaded', (event) => {
  highlightEdges();
  highlightAdjacentNodes();
});
]]></script>
</svg>
