<?xml version="1.0" encoding="UTF-8" standalone="no"?>
<!DOCTYPE svg PUBLIC "-//W3C//DTD SVG 1.1//EN"
 "http://www.w3.org/Graphics/SVG/1.1/DTD/svg11.dtd">
<!-- Generated by graphviz version 9.0.0 (20230911.1827)
 -->
<!-- Title: include/yaclib/fault/detail/atomic.hpp Pages: 1 -->
<svg width="256pt" height="216pt"
 viewBox="0.00 0.00 256.12 215.50" xmlns="http://www.w3.org/2000/svg" xmlns:xlink="http://www.w3.org/1999/xlink">

<svg id="main" version="1.1" xmlns="http://www.w3.org/2000/svg" xmlns:xlink="http://www.w3.org/1999/xlink" xml:space="preserve" onload="init(evt)">
<style type="text/css"><![CDATA[
.node, .edge {opacity: 0.7;}
.node.selected, .edge.selected {opacity: 1;}
.edge:hover path { stroke: red; }
.edge:hover polygon { stroke: red; fill: red; }
]]></style>
<script type="application/ecmascript" xlink:href="svg.min.js"/>
<svg id="graph" class="graph">
<g id="graph0" class="graph" transform="scale(1 1) rotate(0) translate(4 211.5)">
<title>include/yaclib/fault/detail/atomic.hpp</title>
<!-- Node1 -->
<g id="Node000001" class="node">
<title>Node1</title>
<g id="a_Node000001"><a xlink:title=" ">
<polygon fill="#999999" stroke="#666666" points="206.75,-207.5 110.5,-207.5 110.5,-177 206.75,-177 206.75,-207.5"/>
<text text-anchor="start" x="118.5" y="-194" font-family="Helvetica,sans-Serif" font-size="10.00">include/yaclib/fault</text>
<text text-anchor="middle" x="158.62" y="-182.75" font-family="Helvetica,sans-Serif" font-size="10.00">/detail/atomic.hpp</text>
</a>
</g>
</g>
<!-- Node2 -->
<g id="Node000002" class="node">
<title>Node2</title>
<g id="a_Node000002"><a xlink:href="atomic__wait_8hpp.html" target="_top" xlink:title=" ">
<polygon fill="white" stroke="#666666" points="130.38,-141 40.88,-141 40.88,-110.5 130.38,-110.5 130.38,-141"/>
<text text-anchor="start" x="48.88" y="-127.5" font-family="Helvetica,sans-Serif" font-size="10.00">yaclib/fault/detail</text>
<text text-anchor="middle" x="85.62" y="-116.25" font-family="Helvetica,sans-Serif" font-size="10.00">/atomic_wait.hpp</text>
</a>
</g>
</g>
<!-- Node1&#45;&gt;Node2 -->
<g id="edge1_Node000001_Node000002" class="edge">
<title>Node1&#45;&gt;Node2</title>
<g id="a_edge1_Node000001_Node000002"><a xlink:title=" ">
<path fill="none" stroke="#63b8ff" d="M142.06,-176.61C132.73,-168.37 120.88,-157.9 110.46,-148.69"/>
<polygon fill="#63b8ff" stroke="#63b8ff" points="113.07,-146.33 103.26,-142.33 108.43,-151.57 113.07,-146.33"/>
</a>
</g>
</g>
<!-- Node4 -->
<g id="Node000004" class="node">
<title>Node4</title>
<g id="a_Node000004"><a xlink:href="inject_8hpp.html" target="_top" xlink:title=" ">
<polygon fill="white" stroke="#666666" points="212,-74.5 105.25,-74.5 105.25,-55.25 212,-55.25 212,-74.5"/>
<text text-anchor="middle" x="158.62" y="-61" font-family="Helvetica,sans-Serif" font-size="10.00">yaclib/fault/inject.hpp</text>
</a>
</g>
</g>
<!-- Node1&#45;&gt;Node4 -->
<g id="edge5_Node000001_Node000004" class="edge">
<title>Node1&#45;&gt;Node4</title>
<g id="a_edge5_Node000001_Node000004"><a xlink:title=" ">
<path fill="none" stroke="#63b8ff" d="M158.62,-176.87C158.62,-154.53 158.62,-111.42 158.62,-86"/>
<polygon fill="#63b8ff" stroke="#63b8ff" points="162.13,-86.33 158.63,-76.33 155.13,-86.33 162.13,-86.33"/>
</a>
</g>
</g>
<!-- Node6 -->
<g id="Node000006" class="node">
<title>Node6</title>
<g id="a_Node000006"><a xlink:title=" ">
<polygon fill="#e0e0e0" stroke="#999999" points="248.12,-135.38 187.12,-135.38 187.12,-116.12 248.12,-116.12 248.12,-135.38"/>
<text text-anchor="middle" x="217.62" y="-121.88" font-family="Helvetica,sans-Serif" font-size="10.00">type_traits</text>
</a>
</g>
</g>
<!-- Node1&#45;&gt;Node6 -->
<g id="edge6_Node000001_Node000006" class="edge">
<title>Node1&#45;&gt;Node6</title>
<g id="a_edge6_Node000001_Node000006"><a xlink:title=" ">
<path fill="none" stroke="#63b8ff" d="M172.01,-176.61C180.86,-166.94 192.5,-154.21 201.81,-144.04"/>
<polygon fill="#63b8ff" stroke="#63b8ff" points="204.37,-146.43 208.53,-136.69 199.2,-141.71 204.37,-146.43"/>
</a>
</g>
</g>
<!-- Node3 -->
<g id="Node000003" class="node">
<title>Node3</title>
<g id="a_Node000003"><a xlink:title=" ">
<polygon fill="#e0e0e0" stroke="#999999" points="87.25,-74.5 0,-74.5 0,-55.25 87.25,-55.25 87.25,-74.5"/>
<text text-anchor="middle" x="43.62" y="-61" font-family="Helvetica,sans-Serif" font-size="10.00">yaclib/config.hpp</text>
</a>
</g>
</g>
<!-- Node2&#45;&gt;Node3 -->
<g id="edge2_Node000002_Node000003" class="edge">
<title>Node2&#45;&gt;Node3</title>
<g id="a_edge2_Node000002_Node000003"><a xlink:title=" ">
<path fill="none" stroke="#63b8ff" d="M75.24,-110.2C69.65,-102.35 62.69,-92.6 56.72,-84.24"/>
<polygon fill="#63b8ff" stroke="#63b8ff" points="59.64,-82.29 50.98,-76.18 53.94,-86.36 59.64,-82.29"/>
</a>
</g>
</g>
<!-- Node2&#45;&gt;Node4 -->
<g id="edge3_Node000002_Node000004" class="edge">
<title>Node2&#45;&gt;Node4</title>
<g id="a_edge3_Node000002_Node000004"><a xlink:title=" ">
<path fill="none" stroke="#63b8ff" d="M103.67,-110.2C114.25,-101.66 127.64,-90.87 138.55,-82.06"/>
<polygon fill="#63b8ff" stroke="#63b8ff" points="140.61,-84.9 146.19,-75.9 136.21,-79.45 140.61,-84.9"/>
</a>
</g>
</g>
<!-- Node5 -->
<g id="Node000005" class="node">
<title>Node5</title>
<g id="a_Node000005"><a xlink:title=" ">
<polygon fill="#e0e0e0" stroke="#999999" points="181.25,-19.25 136,-19.25 136,0 181.25,0 181.25,-19.25"/>
<text text-anchor="middle" x="158.62" y="-5.75" font-family="Helvetica,sans-Serif" font-size="10.00">cstdint</text>
</a>
</g>
</g>
<!-- Node4&#45;&gt;Node5 -->
<g id="edge4_Node000004_Node000005" class="edge">
<title>Node4&#45;&gt;Node5</title>
<g id="a_edge4_Node000004_Node000005"><a xlink:title=" ">
<path fill="none" stroke="#63b8ff" d="M158.62,-55.08C158.62,-48.57 158.62,-39.42 158.62,-31.12"/>
<polygon fill="#63b8ff" stroke="#63b8ff" points="162.13,-31.12 158.63,-21.12 155.13,-31.12 162.13,-31.12"/>
</a>
</g>
</g>
</g>
</svg>
</svg>

<style type='text/css'>
<![CDATA[
[data-mouse-over-selected='false'] { opacity: 0.7; }
[data-mouse-over-selected='true']  { opacity: 1.0; }
]]>
</style>
<script type="application/ecmascript"><![CDATA[
document.addEventListener('DOMContentLoaded', (event) => {
  highlightEdges();
  highlightAdjacentNodes();
});
]]></script>
</svg>
