<?xml version="1.0" encoding="UTF-8" standalone="no"?>
<!DOCTYPE svg PUBLIC "-//W3C//DTD SVG 1.1//EN"
 "http://www.w3.org/Graphics/SVG/1.1/DTD/svg11.dtd">
<!-- Generated by graphviz version 3.0.0 (20220413.0242)
 -->
<!-- Title: include/yaclib/fault/detail/fiber/thread.hpp Pages: 1 -->
<!--zoomable 508 -->
<svg id="main" version="1.1" xmlns="http://www.w3.org/2000/svg" xmlns:xlink="http://www.w3.org/1999/xlink" xml:space="preserve" onload="init(evt)">
<style type="text/css"><![CDATA[
.edge:hover path { stroke: red; }
.edge:hover polygon { stroke: red; fill: red; }
]]></style>
<script type="text/javascript"><![CDATA[
var edges = document.getElementsByTagName('g');
if (edges && edges.length) {
  for (var i=0;i<edges.length;i++) {
    if (edges[i].id.substr(0,4)=='edge') {
      edges[i].setAttribute('class','edge');
    }
  }
}
]]></script>
        <defs>
                <circle id="rim" cx="0" cy="0" r="7"/>
                <circle id="rim2" cx="0" cy="0" r="3.5"/>
                <g id="zoomPlus">
                        <use xlink:href="#rim" fill="#404040">
                                <set attributeName="fill" to="#808080" begin="zoomplus.mouseover" end="zoomplus.mouseout"/>
                        </use>
                        <path d="M-4,0h8M0,-4v8" fill="none" stroke="white" stroke-width="1.5" pointer-events="none"/>
                </g>
                <g id="zoomMin">
                        <use xlink:href="#rim" fill="#404040">
                                <set attributeName="fill" to="#808080" begin="zoomminus.mouseover" end="zoomminus.mouseout"/>
                        </use>
                        <path d="M-4,0h8" fill="none" stroke="white" stroke-width="1.5" pointer-events="none"/>
                </g>
                <g id="dirArrow">
                        <path fill="none" stroke="white" stroke-width="1.5" d="M0,-3.0v7 M-2.5,-0.5L0,-3.0L2.5,-0.5"/>
                </g>
               <g id="resetDef">
                       <use xlink:href="#rim2" fill="#404040">
                               <set attributeName="fill" to="#808080" begin="reset.mouseover" end="reset.mouseout"/>
                       </use>
               </g>
        </defs>

<script type="text/javascript">
var viewWidth = 1106;
var viewHeight = 508;
var sectionId = 'dynsection-0';
</script>
<script xlink:href="svgpan.js"/>
<svg id="graph" class="graph">
<g id="viewport">
<title>include/yaclib/fault/detail/fiber/thread.hpp</title>
<!-- Node1 -->
<g id="node1" class="node">
<title>Node1</title>
<g id="a_node1"><a xlink:title=" ">
<polygon fill="#bfbfbf" stroke="black" points="859,-469.5 859,-499.5 971,-499.5 971,-469.5 859,-469.5"/>
<text text-anchor="start" x="867" y="-487.5" font-family="Helvetica,sans-Serif" font-size="10.00">include/yaclib/fault</text>
<text text-anchor="middle" x="915" y="-476.5" font-family="Helvetica,sans-Serif" font-size="10.00">/detail/fiber/thread.hpp</text>
</a>
</g>
</g>
<!-- Node2 -->
<g id="node2" class="node">
<title>Node2</title>
<g id="a_node2"><a xlink:href="fiber_8hpp.html" target="_top" xlink:title=" ">
<polygon fill="none" stroke="black" points="529.5,-402.5 529.5,-432.5 618.5,-432.5 618.5,-402.5 529.5,-402.5"/>
<text text-anchor="start" x="537.5" y="-420.5" font-family="Helvetica,sans-Serif" font-size="10.00">yaclib/fault/detail</text>
<text text-anchor="middle" x="574" y="-409.5" font-family="Helvetica,sans-Serif" font-size="10.00">/fiber/fiber.hpp</text>
</a>
</g>
</g>
<!-- Node1&#45;&gt;Node2 -->
<g id="edge1" class="edge">
<title>Node1&#45;&gt;Node2</title>
<path fill="none" stroke="midnightblue" d="M858.69,-472.77C794.99,-460.62 691.93,-440.98 628.84,-428.95"/>
<polygon fill="midnightblue" stroke="midnightblue" points="629.17,-425.45 618.69,-427.02 627.85,-432.33 629.17,-425.45"/>
</g>
<!-- Node6 -->
<g id="node6" class="node">
<title>Node6</title>
<g id="a_node6"><a xlink:href="log_8hpp.html" target="_top" xlink:title=" ">
<polygon fill="none" stroke="black" points="880.5,-62 880.5,-81 955.5,-81 955.5,-62 880.5,-62"/>
<text text-anchor="middle" x="918" y="-69" font-family="Helvetica,sans-Serif" font-size="10.00">yaclib/log.hpp</text>
</a>
</g>
</g>
<!-- Node1&#45;&gt;Node6 -->
<g id="edge43" class="edge">
<title>Node1&#45;&gt;Node6</title>
<path fill="none" stroke="midnightblue" d="M939.09,-469.4C971.73,-448.28 1026,-405.1 1026,-351.5 1026,-351.5 1026,-351.5 1026,-215.5 1026,-170.71 1013.82,-158.11 986,-123 974.16,-108.06 956.88,-95.31 942.7,-86.35"/>
<polygon fill="midnightblue" stroke="midnightblue" points="944.29,-83.22 933.92,-81.03 940.66,-89.21 944.29,-83.22"/>
</g>
<!-- Node19 -->
<g id="node19" class="node">
<title>Node19</title>
<g id="a_node19"><a xlink:title=" ">
<polygon fill="none" stroke="#bfbfbf" points="471.5,-341 471.5,-360 530.5,-360 530.5,-341 471.5,-341"/>
<text text-anchor="middle" x="501" y="-348" font-family="Helvetica,sans-Serif" font-size="10.00">functional</text>
</a>
</g>
</g>
<!-- Node1&#45;&gt;Node19 -->
<g id="edge44" class="edge">
<title>Node1&#45;&gt;Node19</title>
<path fill="none" stroke="midnightblue" d="M858.73,-483.93C761.7,-483.48 568.62,-476.9 520,-433 502.59,-417.28 499.58,-388.98 499.74,-370.22"/>
<polygon fill="midnightblue" stroke="midnightblue" points="503.23,-370.33 500.12,-360.2 496.24,-370.06 503.23,-370.33"/>
</g>
<!-- Node20 -->
<g id="node20" class="node">
<title>Node20</title>
<g id="a_node20"><a xlink:href="queue_8hpp.html" target="_top" xlink:title=" ">
<polygon fill="none" stroke="black" points="778.5,-402.5 778.5,-432.5 867.5,-432.5 867.5,-402.5 778.5,-402.5"/>
<text text-anchor="start" x="786.5" y="-420.5" font-family="Helvetica,sans-Serif" font-size="10.00">yaclib/fault/detail</text>
<text text-anchor="middle" x="823" y="-409.5" font-family="Helvetica,sans-Serif" font-size="10.00">/fiber/queue.hpp</text>
</a>
</g>
</g>
<!-- Node1&#45;&gt;Node20 -->
<g id="edge25" class="edge">
<title>Node1&#45;&gt;Node20</title>
<path fill="none" stroke="midnightblue" d="M895.04,-469.4C882.26,-460.37 865.48,-448.51 851.33,-438.52"/>
<polygon fill="midnightblue" stroke="midnightblue" points="853.11,-435.49 842.92,-432.58 849.07,-441.21 853.11,-435.49"/>
</g>
<!-- Node21 -->
<g id="node21" class="node">
<title>Node21</title>
<g id="a_node21"><a xlink:href="scheduler_8hpp.html" target="_top" xlink:title=" ">
<polygon fill="none" stroke="black" points="663.5,-268.5 663.5,-298.5 764.5,-298.5 764.5,-268.5 663.5,-268.5"/>
<text text-anchor="start" x="671.5" y="-286.5" font-family="Helvetica,sans-Serif" font-size="10.00">yaclib/fault/detail</text>
<text text-anchor="middle" x="714" y="-275.5" font-family="Helvetica,sans-Serif" font-size="10.00">/fiber/scheduler.hpp</text>
</a>
</g>
</g>
<!-- Node1&#45;&gt;Node21 -->
<g id="edge42" class="edge">
<title>Node1&#45;&gt;Node21</title>
<path fill="none" stroke="midnightblue" d="M920,-469.4C929.2,-440.69 945.19,-374.76 914,-335 896.91,-313.21 827.45,-299.31 775.15,-291.73"/>
<polygon fill="midnightblue" stroke="midnightblue" points="775.33,-288.22 764.94,-290.29 774.35,-295.15 775.33,-288.22"/>
</g>
<!-- Node27 -->
<g id="node27" class="node">
<title>Node27</title>
<g id="a_node27"><a xlink:title=" ">
<polygon fill="none" stroke="#bfbfbf" points="1054,-408 1054,-427 1098,-427 1098,-408 1054,-408"/>
<text text-anchor="middle" x="1076" y="-415" font-family="Helvetica,sans-Serif" font-size="10.00">thread</text>
</a>
</g>
</g>
<!-- Node1&#45;&gt;Node27 -->
<g id="edge45" class="edge">
<title>Node1&#45;&gt;Node27</title>
<path fill="none" stroke="midnightblue" d="M949.93,-469.4C978.43,-457.89 1018.29,-441.8 1045.52,-430.81"/>
<polygon fill="midnightblue" stroke="midnightblue" points="1046.97,-434 1054.93,-427.01 1044.35,-427.51 1046.97,-434"/>
</g>
<!-- Node3 -->
<g id="node3" class="node">
<title>Node3</title>
<g id="a_node3"><a xlink:href="fiber__base_8hpp.html" target="_top" xlink:title=" ">
<polygon fill="none" stroke="black" points="390.5,-201.5 390.5,-231.5 493.5,-231.5 493.5,-201.5 390.5,-201.5"/>
<text text-anchor="start" x="398.5" y="-219.5" font-family="Helvetica,sans-Serif" font-size="10.00">yaclib/fault/detail</text>
<text text-anchor="middle" x="442" y="-208.5" font-family="Helvetica,sans-Serif" font-size="10.00">/fiber/fiber_base.hpp</text>
</a>
</g>
</g>
<!-- Node2&#45;&gt;Node3 -->
<g id="edge2" class="edge">
<title>Node2&#45;&gt;Node3</title>
<path fill="none" stroke="midnightblue" d="M569.32,-402.36C563.47,-385.62 552.56,-357.22 539,-335 516.81,-298.64 484.16,-261.54 462.99,-239.01"/>
<polygon fill="midnightblue" stroke="midnightblue" points="465.44,-236.51 456.01,-231.67 460.37,-241.33 465.44,-236.51"/>
</g>
<!-- Node2&#45;&gt;Node19 -->
<g id="edge24" class="edge">
<title>Node2&#45;&gt;Node19</title>
<path fill="none" stroke="midnightblue" d="M558.16,-402.4C546.44,-391.96 530.48,-377.75 518.41,-367"/>
<polygon fill="midnightblue" stroke="midnightblue" points="520.56,-364.23 510.76,-360.19 515.91,-369.46 520.56,-364.23"/>
</g>
<!-- Node4 -->
<g id="node4" class="node">
<title>Node4</title>
<g id="a_node4"><a xlink:title=" ">
<polygon fill="none" stroke="#bfbfbf" points="0,-62 0,-81 88,-81 88,-62 0,-62"/>
<text text-anchor="middle" x="44" y="-69" font-family="Helvetica,sans-Serif" font-size="10.00">yaclib/config.hpp</text>
</a>
</g>
</g>
<!-- Node3&#45;&gt;Node4 -->
<g id="edge3" class="edge">
<title>Node3&#45;&gt;Node4</title>
<path fill="none" stroke="midnightblue" d="M390.18,-213.24C280.92,-207.94 34.91,-192.99 10,-165 -9.51,-143.08 12.38,-109.02 28.96,-88.92"/>
<polygon fill="midnightblue" stroke="midnightblue" points="31.71,-91.09 35.6,-81.23 26.41,-86.51 31.71,-91.09"/>
</g>
<!-- Node5 -->
<g id="node5" class="node">
<title>Node5</title>
<g id="a_node5"><a xlink:href="bidirectional__intrusive__list_8hpp.html" target="_top" xlink:title=" ">
<polygon fill="none" stroke="black" points="716.5,-123.5 716.5,-164.5 811.5,-164.5 811.5,-123.5 716.5,-123.5"/>
<text text-anchor="start" x="724.5" y="-152.5" font-family="Helvetica,sans-Serif" font-size="10.00">yaclib/fault/detail</text>
<text text-anchor="start" x="724.5" y="-141.5" font-family="Helvetica,sans-Serif" font-size="10.00">/fiber/bidirectional</text>
<text text-anchor="middle" x="764" y="-130.5" font-family="Helvetica,sans-Serif" font-size="10.00">_intrusive_list.hpp</text>
</a>
</g>
</g>
<!-- Node3&#45;&gt;Node5 -->
<g id="edge4" class="edge">
<title>Node3&#45;&gt;Node5</title>
<path fill="none" stroke="midnightblue" d="M493.57,-203.16C496.76,-202.42 499.92,-201.7 503,-201 572.86,-185.21 653.49,-168.07 706.42,-156.97"/>
<polygon fill="midnightblue" stroke="midnightblue" points="707.23,-160.38 716.3,-154.9 705.8,-153.53 707.23,-160.38"/>
</g>
<!-- Node9 -->
<g id="node9" class="node">
<title>Node9</title>
<g id="a_node9"><a xlink:href="default__allocator_8hpp.html" target="_top" xlink:title=" ">
<polygon fill="none" stroke="black" points="830,-129 830,-159 960,-159 960,-129 830,-129"/>
<text text-anchor="start" x="838" y="-147" font-family="Helvetica,sans-Serif" font-size="10.00">yaclib/fault/detail</text>
<text text-anchor="middle" x="895" y="-136" font-family="Helvetica,sans-Serif" font-size="10.00">/fiber/default_allocator.hpp</text>
</a>
</g>
</g>
<!-- Node3&#45;&gt;Node9 -->
<g id="edge8" class="edge">
<title>Node3&#45;&gt;Node9</title>
<path fill="none" stroke="midnightblue" d="M493.83,-202.73C496.92,-202.11 500,-201.52 503,-201 643.11,-176.51 681.28,-191.63 821,-165 826.31,-163.99 831.8,-162.79 837.28,-161.5"/>
<polygon fill="midnightblue" stroke="midnightblue" points="838.21,-164.87 847.08,-159.08 836.53,-158.08 838.21,-164.87"/>
</g>
<!-- Node10 -->
<g id="node10" class="node">
<title>Node10</title>
<g id="a_node10"><a xlink:href="stack__allocator_8hpp.html" target="_top" xlink:title=" ">
<polygon fill="none" stroke="black" points="470.5,-56.5 470.5,-86.5 595.5,-86.5 595.5,-56.5 470.5,-56.5"/>
<text text-anchor="start" x="478.5" y="-74.5" font-family="Helvetica,sans-Serif" font-size="10.00">yaclib/fault/detail</text>
<text text-anchor="middle" x="533" y="-63.5" font-family="Helvetica,sans-Serif" font-size="10.00">/fiber/stack_allocator.hpp</text>
</a>
</g>
</g>
<!-- Node3&#45;&gt;Node10 -->
<g id="edge20" class="edge">
<title>Node3&#45;&gt;Node10</title>
<path fill="none" stroke="midnightblue" d="M390.18,-210.75C359.96,-205.02 324.14,-192.45 305,-165 294.32,-149.69 293.31,-137.56 305,-123 324.28,-98.98 401.01,-85.68 460.19,-78.84"/>
<polygon fill="midnightblue" stroke="midnightblue" points="460.72,-82.3 470.27,-77.72 459.94,-75.35 460.72,-82.3"/>
</g>
<!-- Node13 -->
<g id="node13" class="node">
<title>Node13</title>
<g id="a_node13"><a xlink:href="execution__context_8hpp.html" target="_top" xlink:title=" ">
<polygon fill="none" stroke="black" points="120.5,-129 120.5,-159 257.5,-159 257.5,-129 120.5,-129"/>
<text text-anchor="start" x="128.5" y="-147" font-family="Helvetica,sans-Serif" font-size="10.00">yaclib/fault/detail</text>
<text text-anchor="middle" x="189" y="-136" font-family="Helvetica,sans-Serif" font-size="10.00">/fiber/execution_context.hpp</text>
</a>
</g>
</g>
<!-- Node3&#45;&gt;Node13 -->
<g id="edge13" class="edge">
<title>Node3&#45;&gt;Node13</title>
<path fill="none" stroke="midnightblue" d="M391.71,-201.49C350.8,-190.09 292.94,-173.96 249.5,-161.86"/>
<polygon fill="midnightblue" stroke="midnightblue" points="250.2,-158.42 239.62,-159.11 248.32,-165.16 250.2,-158.42"/>
</g>
<!-- Node15 -->
<g id="node15" class="node">
<title>Node15</title>
<g id="a_node15"><a xlink:href="stack_8hpp.html" target="_top" xlink:title=" ">
<polygon fill="none" stroke="black" points="570.5,-129 570.5,-159 659.5,-159 659.5,-129 570.5,-129"/>
<text text-anchor="start" x="578.5" y="-147" font-family="Helvetica,sans-Serif" font-size="10.00">yaclib/fault/detail</text>
<text text-anchor="middle" x="615" y="-136" font-family="Helvetica,sans-Serif" font-size="10.00">/fiber/stack.hpp</text>
</a>
</g>
</g>
<!-- Node3&#45;&gt;Node15 -->
<g id="edge17" class="edge">
<title>Node3&#45;&gt;Node15</title>
<path fill="none" stroke="midnightblue" d="M476.59,-201.4C503.7,-190.36 541.6,-174.91 570.89,-162.97"/>
<polygon fill="midnightblue" stroke="midnightblue" points="572.53,-166.09 580.47,-159.07 569.89,-159.61 572.53,-166.09"/>
</g>
<!-- Node16 -->
<g id="node16" class="node">
<title>Node16</title>
<g id="a_node16"><a xlink:href="wakeup__helper_8hpp.html" target="_top" xlink:title=" ">
<polygon fill="none" stroke="black" points="314,-129 314,-159 438,-159 438,-129 314,-129"/>
<text text-anchor="start" x="322" y="-147" font-family="Helvetica,sans-Serif" font-size="10.00">yaclib/fault/detail</text>
<text text-anchor="middle" x="376" y="-136" font-family="Helvetica,sans-Serif" font-size="10.00">/fiber/wakeup_helper.hpp</text>
</a>
</g>
</g>
<!-- Node3&#45;&gt;Node16 -->
<g id="edge21" class="edge">
<title>Node3&#45;&gt;Node16</title>
<path fill="none" stroke="midnightblue" d="M428.64,-201.23C419.34,-191.3 406.76,-177.86 396.23,-166.61"/>
<polygon fill="midnightblue" stroke="midnightblue" points="398.73,-164.15 389.34,-159.25 393.62,-168.94 398.73,-164.15"/>
</g>
<!-- Node17 -->
<g id="node17" class="node">
<title>Node17</title>
<g id="a_node17"><a xlink:title=" ">
<polygon fill="none" stroke="#bfbfbf" points="456,-134.5 456,-153.5 514,-153.5 514,-134.5 456,-134.5"/>
<text text-anchor="middle" x="485" y="-141.5" font-family="Helvetica,sans-Serif" font-size="10.00">exception</text>
</a>
</g>
</g>
<!-- Node3&#45;&gt;Node17 -->
<g id="edge22" class="edge">
<title>Node3&#45;&gt;Node17</title>
<path fill="none" stroke="midnightblue" d="M450.7,-201.23C457.52,-190.06 467.03,-174.46 474.31,-162.52"/>
<polygon fill="midnightblue" stroke="midnightblue" points="477.36,-164.25 479.58,-153.89 471.38,-160.61 477.36,-164.25"/>
</g>
<!-- Node18 -->
<g id="node18" class="node">
<title>Node18</title>
<g id="a_node18"><a xlink:title=" ">
<polygon fill="none" stroke="#bfbfbf" points="19.5,-134.5 19.5,-153.5 102.5,-153.5 102.5,-134.5 19.5,-134.5"/>
<text text-anchor="middle" x="61" y="-141.5" font-family="Helvetica,sans-Serif" font-size="10.00">unordered_map</text>
</a>
</g>
</g>
<!-- Node3&#45;&gt;Node18 -->
<g id="edge23" class="edge">
<title>Node3&#45;&gt;Node18</title>
<path fill="none" stroke="midnightblue" d="M390.49,-211.33C324.74,-205.16 207.89,-191.39 111,-165 103.85,-163.05 96.33,-160.39 89.36,-157.65"/>
<polygon fill="midnightblue" stroke="midnightblue" points="90.22,-154.22 79.64,-153.64 87.55,-160.69 90.22,-154.22"/>
</g>
<!-- Node5&#45;&gt;Node6 -->
<g id="edge5" class="edge">
<title>Node5&#45;&gt;Node6</title>
<path fill="none" stroke="midnightblue" d="M806.9,-123.36C833.37,-111.24 866.59,-96.03 889.78,-85.42"/>
<polygon fill="midnightblue" stroke="midnightblue" points="891.42,-88.52 899.05,-81.17 888.5,-82.15 891.42,-88.52"/>
</g>
<!-- Node8 -->
<g id="node8" class="node">
<title>Node8</title>
<g id="a_node8"><a xlink:title=" ">
<polygon fill="none" stroke="#bfbfbf" points="703,-62 703,-81 749,-81 749,-62 703,-62"/>
<text text-anchor="middle" x="726" y="-69" font-family="Helvetica,sans-Serif" font-size="10.00">cstdint</text>
</a>
</g>
</g>
<!-- Node5&#45;&gt;Node8 -->
<g id="edge7" class="edge">
<title>Node5&#45;&gt;Node8</title>
<path fill="none" stroke="midnightblue" d="M753.41,-123.36C747.81,-112.97 740.99,-100.32 735.55,-90.23"/>
<polygon fill="midnightblue" stroke="midnightblue" points="738.5,-88.32 730.68,-81.17 732.34,-91.64 738.5,-88.32"/>
</g>
<!-- Node7 -->
<g id="node7" class="node">
<title>Node7</title>
<g id="a_node7"><a xlink:title=" ">
<polygon fill="none" stroke="#bfbfbf" points="885,-0.5 885,-19.5 951,-19.5 951,-0.5 885,-0.5"/>
<text text-anchor="middle" x="918" y="-7.5" font-family="Helvetica,sans-Serif" font-size="10.00">string_view</text>
</a>
</g>
</g>
<!-- Node6&#45;&gt;Node7 -->
<g id="edge6" class="edge">
<title>Node6&#45;&gt;Node7</title>
<path fill="none" stroke="midnightblue" d="M918,-61.98C918,-53.58 918,-40.48 918,-29.66"/>
<polygon fill="midnightblue" stroke="midnightblue" points="921.5,-29.51 918,-19.51 914.5,-29.51 921.5,-29.51"/>
</g>
<!-- Node9&#45;&gt;Node6 -->
<g id="edge11" class="edge">
<title>Node9&#45;&gt;Node6</title>
<path fill="none" stroke="midnightblue" d="M899.65,-128.73C903.19,-117.89 908.09,-102.88 911.93,-91.1"/>
<polygon fill="midnightblue" stroke="midnightblue" points="915.32,-91.99 915.1,-81.39 908.67,-89.81 915.32,-91.99"/>
</g>
<!-- Node9&#45;&gt;Node10 -->
<g id="edge9" class="edge">
<title>Node9&#45;&gt;Node10</title>
<path fill="none" stroke="midnightblue" d="M845.4,-128.93C837.27,-126.82 828.92,-124.76 821,-123 748.31,-106.84 664.36,-92.62 605.92,-83.42"/>
<polygon fill="midnightblue" stroke="midnightblue" points="606.1,-79.9 595.68,-81.82 605.02,-86.82 606.1,-79.9"/>
</g>
<!-- Node12 -->
<g id="node12" class="node">
<title>Node12</title>
<g id="a_node12"><a xlink:title=" ">
<polygon fill="none" stroke="#bfbfbf" points="1019,-62 1019,-81 1063,-81 1063,-62 1019,-62"/>
<text text-anchor="middle" x="1041" y="-69" font-family="Helvetica,sans-Serif" font-size="10.00">vector</text>
</a>
</g>
</g>
<!-- Node9&#45;&gt;Node12 -->
<g id="edge12" class="edge">
<title>Node9&#45;&gt;Node12</title>
<path fill="none" stroke="midnightblue" d="M924.19,-128.9C950.46,-116.22 988.74,-97.73 1014.23,-85.42"/>
<polygon fill="midnightblue" stroke="midnightblue" points="1015.84,-88.53 1023.33,-81.03 1012.8,-82.23 1015.84,-88.53"/>
</g>
<!-- Node11 -->
<g id="node11" class="node">
<title>Node11</title>
<g id="a_node11"><a xlink:title=" ">
<polygon fill="none" stroke="#bfbfbf" points="554.5,-0.5 554.5,-19.5 603.5,-19.5 603.5,-0.5 554.5,-0.5"/>
<text text-anchor="middle" x="579" y="-7.5" font-family="Helvetica,sans-Serif" font-size="10.00">cstddef</text>
</a>
</g>
</g>
<!-- Node10&#45;&gt;Node11 -->
<g id="edge10" class="edge">
<title>Node10&#45;&gt;Node11</title>
<path fill="none" stroke="midnightblue" d="M543.9,-56.4C550.59,-47.75 559.18,-36.64 566.18,-27.58"/>
<polygon fill="midnightblue" stroke="midnightblue" points="568.96,-29.71 572.31,-19.66 563.42,-25.43 568.96,-29.71"/>
</g>
<!-- Node13&#45;&gt;Node4 -->
<g id="edge14" class="edge">
<title>Node13&#45;&gt;Node4</title>
<path fill="none" stroke="midnightblue" d="M160.01,-128.9C133.92,-116.22 95.9,-97.73 70.58,-85.42"/>
<polygon fill="midnightblue" stroke="midnightblue" points="72.08,-82.26 61.55,-81.03 69.01,-88.55 72.08,-82.26"/>
</g>
<!-- Node13&#45;&gt;Node10 -->
<g id="edge15" class="edge">
<title>Node13&#45;&gt;Node10</title>
<path fill="none" stroke="midnightblue" d="M245.62,-128.99C254.44,-126.92 263.45,-124.86 272,-123 335.45,-109.22 407.99,-95.34 460.46,-85.62"/>
<polygon fill="midnightblue" stroke="midnightblue" points="461.15,-89.06 470.35,-83.8 459.88,-82.17 461.15,-89.06"/>
</g>
<!-- Node14 -->
<g id="node14" class="node">
<title>Node14</title>
<g id="a_node14"><a xlink:title=" ">
<polygon fill="none" stroke="#bfbfbf" points="158.5,-62 158.5,-81 219.5,-81 219.5,-62 158.5,-62"/>
<text text-anchor="middle" x="189" y="-69" font-family="Helvetica,sans-Serif" font-size="10.00">ucontext.h</text>
</a>
</g>
</g>
<!-- Node13&#45;&gt;Node14 -->
<g id="edge16" class="edge">
<title>Node13&#45;&gt;Node14</title>
<path fill="none" stroke="midnightblue" d="M189,-128.73C189,-118 189,-103.19 189,-91.46"/>
<polygon fill="midnightblue" stroke="midnightblue" points="192.5,-91.39 189,-81.39 185.5,-91.39 192.5,-91.39"/>
</g>
<!-- Node15&#45;&gt;Node10 -->
<g id="edge18" class="edge">
<title>Node15&#45;&gt;Node10</title>
<path fill="none" stroke="midnightblue" d="M598.41,-128.73C586.55,-118.54 570.41,-104.66 557.12,-93.24"/>
<polygon fill="midnightblue" stroke="midnightblue" points="559.15,-90.37 549.29,-86.5 554.59,-95.68 559.15,-90.37"/>
</g>
<!-- Node15&#45;&gt;Node11 -->
<g id="edge19" class="edge">
<title>Node15&#45;&gt;Node11</title>
<path fill="none" stroke="midnightblue" d="M614.85,-128.78C614.29,-111.25 612.1,-80.74 604,-56 600.8,-46.23 595.43,-36.16 590.49,-28.03"/>
<polygon fill="midnightblue" stroke="midnightblue" points="593.37,-26.04 585.03,-19.51 587.48,-29.81 593.37,-26.04"/>
</g>
<!-- Node20&#45;&gt;Node3 -->
<g id="edge26" class="edge">
<title>Node20&#45;&gt;Node3</title>
<path fill="none" stroke="midnightblue" d="M778.39,-410.7C737.88,-404.1 677.39,-390.85 630,-366 570.83,-334.97 569.01,-308.67 516,-268 502.13,-257.36 486.18,-246.33 472.64,-237.3"/>
<polygon fill="midnightblue" stroke="midnightblue" points="474.42,-234.28 464.15,-231.68 470.56,-240.12 474.42,-234.28"/>
</g>
<!-- Node20&#45;&gt;Node12 -->
<g id="edge41" class="edge">
<title>Node20&#45;&gt;Node12</title>
<path fill="none" stroke="midnightblue" d="M860.43,-402.49C878.53,-394.17 899.44,-382.07 914,-366 991.31,-280.7 1026.7,-141.03 1037.36,-91.03"/>
<polygon fill="midnightblue" stroke="midnightblue" points="1040.83,-91.54 1039.41,-81.04 1033.97,-90.14 1040.83,-91.54"/>
</g>
<!-- Node20&#45;&gt;Node21 -->
<g id="edge27" class="edge">
<title>Node20&#45;&gt;Node21</title>
<path fill="none" stroke="midnightblue" d="M814.75,-402.26C804.69,-385.44 786.72,-356.95 768,-335 759.15,-324.62 748.34,-314.16 738.73,-305.47"/>
<polygon fill="midnightblue" stroke="midnightblue" points="740.81,-302.64 731,-298.63 736.17,-307.88 740.81,-302.64"/>
</g>
<!-- Node25 -->
<g id="node25" class="node">
<title>Node25</title>
<g id="a_node25"><a xlink:href="system__clock_8hpp.html" target="_top" xlink:title=" ">
<polygon fill="none" stroke="black" points="639.5,-335.5 639.5,-365.5 758.5,-365.5 758.5,-335.5 639.5,-335.5"/>
<text text-anchor="start" x="647.5" y="-353.5" font-family="Helvetica,sans-Serif" font-size="10.00">yaclib/fault/detail</text>
<text text-anchor="middle" x="699" y="-342.5" font-family="Helvetica,sans-Serif" font-size="10.00">/fiber/system_clock.hpp</text>
</a>
</g>
</g>
<!-- Node20&#45;&gt;Node25 -->
<g id="edge37" class="edge">
<title>Node20&#45;&gt;Node25</title>
<path fill="none" stroke="midnightblue" d="M796.09,-402.4C778.14,-392.98 754.33,-380.5 734.78,-370.26"/>
<polygon fill="midnightblue" stroke="midnightblue" points="736.34,-367.12 725.85,-365.58 733.09,-373.32 736.34,-367.12"/>
</g>
<!-- Node26 -->
<g id="node26" class="node">
<title>Node26</title>
<g id="a_node26"><a xlink:href="wait__status_8hpp.html" target="_top" xlink:title=" ">
<polygon fill="none" stroke="black" points="815.5,-335.5 815.5,-365.5 904.5,-365.5 904.5,-335.5 815.5,-335.5"/>
<text text-anchor="start" x="823.5" y="-353.5" font-family="Helvetica,sans-Serif" font-size="10.00">yaclib/fault/detail</text>
<text text-anchor="middle" x="860" y="-342.5" font-family="Helvetica,sans-Serif" font-size="10.00">/wait_status.hpp</text>
</a>
</g>
</g>
<!-- Node20&#45;&gt;Node26 -->
<g id="edge40" class="edge">
<title>Node20&#45;&gt;Node26</title>
<path fill="none" stroke="midnightblue" d="M831.03,-402.4C835.68,-394.22 841.66,-383.73 846.97,-374.39"/>
<polygon fill="midnightblue" stroke="midnightblue" points="850.08,-376 851.99,-365.58 844,-372.54 850.08,-376"/>
</g>
<!-- Node21&#45;&gt;Node3 -->
<g id="edge29" class="edge">
<title>Node21&#45;&gt;Node3</title>
<path fill="none" stroke="midnightblue" d="M663.48,-270.43C618.3,-259.63 551.95,-243.77 503.66,-232.23"/>
<polygon fill="midnightblue" stroke="midnightblue" points="504.18,-228.76 493.64,-229.84 502.55,-235.57 504.18,-228.76"/>
</g>
<!-- Node21&#45;&gt;Node6 -->
<g id="edge34" class="edge">
<title>Node21&#45;&gt;Node6</title>
<path fill="none" stroke="midnightblue" d="M764.64,-276.6C826.55,-266.28 928.12,-238.48 969,-165 978.08,-148.69 976.19,-140.23 969,-123 962.96,-108.52 950.53,-96.07 939.45,-87.15"/>
<polygon fill="midnightblue" stroke="midnightblue" points="941.46,-84.28 931.37,-81.05 937.24,-89.87 941.46,-84.28"/>
</g>
<!-- Node21&#45;&gt;Node9 -->
<g id="edge28" class="edge">
<title>Node21&#45;&gt;Node9</title>
<path fill="none" stroke="midnightblue" d="M729.07,-268.24C747.18,-251.4 778.79,-222.89 808,-201 825.34,-188 845.66,-174.82 862.3,-164.51"/>
<polygon fill="midnightblue" stroke="midnightblue" points="864.43,-167.31 871.13,-159.1 860.77,-161.34 864.43,-167.31"/>
</g>
<!-- Node21&#45;&gt;Node10 -->
<g id="edge31" class="edge">
<title>Node21&#45;&gt;Node10</title>
<path fill="none" stroke="midnightblue" d="M683.81,-268.48C665.62,-259.34 642.49,-246.46 624,-232 591.8,-206.82 581.46,-200.38 561,-165 548.6,-143.55 541.19,-116.07 537.14,-96.66"/>
<polygon fill="midnightblue" stroke="midnightblue" points="540.56,-95.94 535.22,-86.79 533.69,-97.27 540.56,-95.94"/>
</g>
<!-- Node21&#45;&gt;Node15 -->
<g id="edge30" class="edge">
<title>Node21&#45;&gt;Node15</title>
<path fill="none" stroke="midnightblue" d="M686.03,-268.35C671.36,-259.65 654.17,-247.26 643,-232 629.37,-213.38 622.19,-187.83 618.53,-169.24"/>
<polygon fill="midnightblue" stroke="midnightblue" points="621.94,-168.44 616.76,-159.2 615.05,-169.66 621.94,-168.44"/>
</g>
<!-- Node22 -->
<g id="node22" class="node">
<title>Node22</title>
<g id="a_node22"><a xlink:href="inject_8hpp.html" target="_top" xlink:title=" ">
<polygon fill="none" stroke="black" points="652.5,-207 652.5,-226 759.5,-226 759.5,-207 652.5,-207"/>
<text text-anchor="middle" x="706" y="-214" font-family="Helvetica,sans-Serif" font-size="10.00">yaclib/fault/inject.hpp</text>
</a>
</g>
</g>
<!-- Node21&#45;&gt;Node22 -->
<g id="edge32" class="edge">
<title>Node21&#45;&gt;Node22</title>
<path fill="none" stroke="midnightblue" d="M712.26,-268.4C711.1,-258.96 709.56,-246.45 708.3,-236.19"/>
<polygon fill="midnightblue" stroke="midnightblue" points="711.77,-235.69 707.07,-226.19 704.82,-236.55 711.77,-235.69"/>
</g>
<!-- Node23 -->
<g id="node23" class="node">
<title>Node23</title>
<g id="a_node23"><a xlink:title=" ">
<polygon fill="none" stroke="#bfbfbf" points="512,-207 512,-226 558,-226 558,-207 512,-207"/>
<text text-anchor="middle" x="535" y="-214" font-family="Helvetica,sans-Serif" font-size="10.00">chrono</text>
</a>
</g>
</g>
<!-- Node21&#45;&gt;Node23 -->
<g id="edge35" class="edge">
<title>Node21&#45;&gt;Node23</title>
<path fill="none" stroke="midnightblue" d="M673.48,-268.47C645.01,-258.52 606.07,-244.73 572,-232 570.11,-231.29 568.17,-230.56 566.21,-229.81"/>
<polygon fill="midnightblue" stroke="midnightblue" points="567.07,-226.39 556.48,-226.05 564.54,-232.92 567.07,-226.39"/>
</g>
<!-- Node24 -->
<g id="node24" class="node">
<title>Node24</title>
<g id="a_node24"><a xlink:title=" ">
<polygon fill="none" stroke="#bfbfbf" points="816.5,-207 816.5,-226 851.5,-226 851.5,-207 816.5,-207"/>
<text text-anchor="middle" x="834" y="-214" font-family="Helvetica,sans-Serif" font-size="10.00">map</text>
</a>
</g>
</g>
<!-- Node21&#45;&gt;Node24 -->
<g id="edge36" class="edge">
<title>Node21&#45;&gt;Node24</title>
<path fill="none" stroke="midnightblue" d="M740.04,-268.4C760.63,-257.24 789.17,-241.78 809.38,-230.83"/>
<polygon fill="midnightblue" stroke="midnightblue" points="811.17,-233.85 818.29,-226.01 807.83,-227.69 811.17,-233.85"/>
</g>
<!-- Node22&#45;&gt;Node8 -->
<g id="edge33" class="edge">
<title>Node22&#45;&gt;Node8</title>
<path fill="none" stroke="midnightblue" d="M705.09,-206.73C703.6,-190.18 701.32,-153.31 707,-123 709.1,-111.78 713.51,-99.79 717.55,-90.31"/>
<polygon fill="midnightblue" stroke="midnightblue" points="720.76,-91.72 721.67,-81.17 714.37,-88.85 720.76,-91.72"/>
</g>
<!-- Node25&#45;&gt;Node21 -->
<g id="edge38" class="edge">
<title>Node25&#45;&gt;Node21</title>
<path fill="none" stroke="midnightblue" d="M702.25,-335.4C704.06,-327.56 706.36,-317.6 708.45,-308.57"/>
<polygon fill="midnightblue" stroke="midnightblue" points="711.91,-309.11 710.75,-298.58 705.09,-307.53 711.91,-309.11"/>
</g>
<!-- Node25&#45;&gt;Node23 -->
<g id="edge39" class="edge">
<title>Node25&#45;&gt;Node23</title>
<path fill="none" stroke="midnightblue" d="M685.3,-335.5C668.5,-318.65 638.82,-289.89 611,-268 594.09,-254.69 573.73,-241.29 558.35,-231.64"/>
<polygon fill="midnightblue" stroke="midnightblue" points="559.83,-228.44 549.48,-226.15 556.14,-234.39 559.83,-228.44"/>
</g>
</g>
</svg>
        <g id="navigator" transform="translate(0 0)" fill="#404254">
                <rect fill="#f2f5e9" fill-opacity="0.5" stroke="#606060" stroke-width=".5" x="0" y="0" width="60" height="60"/>
                <use id="zoomplus" xlink:href="#zoomPlus" x="17" y="9" onmousedown="handleZoom(evt,'in')"/>
                <use id="zoomminus" xlink:href="#zoomMin" x="42" y="9" onmousedown="handleZoom(evt,'out')"/>
                <use id="reset" xlink:href="#resetDef" x="30" y="36" onmousedown="handleReset()"/>
                <g id="arrowUp" xlink:href="#dirArrow" transform="translate(30 24)" onmousedown="handlePan(0,-1)">
                  <use xlink:href="#rim" fill="#404040">
                        <set attributeName="fill" to="#808080" begin="arrowUp.mouseover" end="arrowUp.mouseout"/>
                  </use>
                  <path fill="none" stroke="white" stroke-width="1.5" d="M0,-3.0v7 M-2.5,-0.5L0,-3.0L2.5,-0.5"/>
                </g>
                <g id="arrowRight" xlink:href="#dirArrow" transform="rotate(90) translate(36 -43)" onmousedown="handlePan(1,0)">
                  <use xlink:href="#rim" fill="#404040">
                        <set attributeName="fill" to="#808080" begin="arrowRight.mouseover" end="arrowRight.mouseout"/>
                  </use>
                  <path fill="none" stroke="white" stroke-width="1.5" d="M0,-3.0v7 M-2.5,-0.5L0,-3.0L2.5,-0.5"/>
                </g>
                <g id="arrowDown" xlink:href="#dirArrow" transform="rotate(180) translate(-30 -48)" onmousedown="handlePan(0,1)">
                  <use xlink:href="#rim" fill="#404040">
                        <set attributeName="fill" to="#808080" begin="arrowDown.mouseover" end="arrowDown.mouseout"/>
                  </use>
                  <path fill="none" stroke="white" stroke-width="1.5" d="M0,-3.0v7 M-2.5,-0.5L0,-3.0L2.5,-0.5"/>
                </g>
                <g id="arrowLeft" xlink:href="#dirArrow" transform="rotate(270) translate(-36 17)" onmousedown="handlePan(-1,0)">
                  <use xlink:href="#rim" fill="#404040">
                        <set attributeName="fill" to="#808080" begin="arrowLeft.mouseover" end="arrowLeft.mouseout"/>
                  </use>
                  <path fill="none" stroke="white" stroke-width="1.5" d="M0,-3.0v7 M-2.5,-0.5L0,-3.0L2.5,-0.5"/>
                </g>
        </g>
        <svg viewBox="0 0 15 15" width="100%" height="30px" preserveAspectRatio="xMaxYMin meet">
         <g id="arrow_out" transform="scale(0.3 0.3)">
          <a xlink:href="fault_2detail_2fiber_2thread_8hpp__incl_org.svg" target="_base">
           <rect id="button" ry="5" rx="5" y="6" x="6" height="38" width="38"
                fill="#f2f5e9" fill-opacity="0.5" stroke="#606060" stroke-width="1.0"/>
           <path id="arrow"
             d="M 11.500037,31.436501 C 11.940474,20.09759 22.043105,11.32322 32.158766,21.979434 L 37.068811,17.246167 C 37.068811,17.246167 37.088388,32 37.088388,32 L 22.160133,31.978069 C 22.160133,31.978069 26.997745,27.140456 26.997745,27.140456 C 18.528582,18.264221 13.291696,25.230495 11.500037,31.436501 z"
             style="fill:#404040;"/>
          </a>
         </g>
        </svg>
</svg>
