<?xml version="1.0" encoding="UTF-8" standalone="no"?>
<!DOCTYPE svg PUBLIC "-//W3C//DTD SVG 1.1//EN"
 "http://www.w3.org/Graphics/SVG/1.1/DTD/svg11.dtd">
<!-- Generated by graphviz version 9.0.0 (20230911.1827)
 -->
<!-- Title: include/yaclib/algo/detail/func_core.hpp Pages: 1 -->
<svg width="2360pt" height="438pt"
 viewBox="0.00 0.00 2360.38 437.50" xmlns="http://www.w3.org/2000/svg" xmlns:xlink="http://www.w3.org/1999/xlink">
<g id="graph0" class="graph" transform="scale(1 1) rotate(0) translate(4 433.5)">
<title>include/yaclib/algo/detail/func_core.hpp</title>
<!-- Node1 -->
<g id="Node000001" class="node">
<title>Node1</title>
<g id="a_Node000001"><a xlink:title=" ">
<polygon fill="#999999" stroke="#666666" points="1319.38,-429.5 1213.38,-429.5 1213.38,-399 1319.38,-399 1319.38,-429.5"/>
<text text-anchor="start" x="1221.38" y="-416" font-family="Helvetica,sans-Serif" font-size="10.00">include/yaclib/algo</text>
<text text-anchor="middle" x="1266.38" y="-404.75" font-family="Helvetica,sans-Serif" font-size="10.00">/detail/func_core.hpp</text>
</a>
</g>
</g>
<!-- Node2 -->
<g id="Node000002" class="node">
<title>Node2</title>
<g id="a_Node000002"><a xlink:href="core_8hpp.html" target="_top" xlink:title=" ">
<polygon fill="white" stroke="#666666" points="1276.12,-363 1180.62,-363 1180.62,-332.5 1276.12,-332.5 1276.12,-363"/>
<text text-anchor="start" x="1188.62" y="-349.5" font-family="Helvetica,sans-Serif" font-size="10.00">include/yaclib/algo</text>
<text text-anchor="middle" x="1228.38" y="-338.25" font-family="Helvetica,sans-Serif" font-size="10.00">/detail/core.hpp</text>
</a>
</g>
</g>
<!-- Node1&#45;&gt;Node2 -->
<g id="edge1_Node000001_Node000002" class="edge">
<title>Node1&#45;&gt;Node2</title>
<g id="a_edge1_Node000001_Node000002"><a xlink:title=" ">
<path fill="none" stroke="#63b8ff" d="M1251.93,-388.73C1246.88,-380.16 1241.38,-370.82 1236.96,-363.33"/>
<polygon fill="#63b8ff" stroke="#63b8ff" points="1248.89,-390.47 1256.98,-397.31 1254.92,-386.92 1248.89,-390.47"/>
</a>
</g>
</g>
<!-- Node35 -->
<g id="Node000035" class="node">
<title>Node35</title>
<g id="a_Node000035"><a xlink:href="promise__core_8hpp.html" target="_top" xlink:title=" ">
<polygon fill="white" stroke="#666666" points="1493.25,-296.5 1371.5,-296.5 1371.5,-266 1493.25,-266 1493.25,-296.5"/>
<text text-anchor="start" x="1379.5" y="-283" font-family="Helvetica,sans-Serif" font-size="10.00">include/yaclib/algo</text>
<text text-anchor="middle" x="1432.38" y="-271.75" font-family="Helvetica,sans-Serif" font-size="10.00">/detail/promise_core.hpp</text>
</a>
</g>
</g>
<!-- Node1&#45;&gt;Node35 -->
<g id="edge52_Node000001_Node000035" class="edge">
<title>Node1&#45;&gt;Node35</title>
<g id="a_edge52_Node000001_Node000035"><a xlink:title=" ">
<path fill="none" stroke="#63b8ff" d="M1293.7,-391.69C1327.65,-364.89 1384.67,-319.89 1413.89,-296.83"/>
<polygon fill="#63b8ff" stroke="#63b8ff" points="1291.64,-388.85 1285.96,-397.79 1295.98,-394.35 1291.64,-388.85"/>
</a>
</g>
</g>
<!-- Node3 -->
<g id="Node000003" class="node">
<title>Node3</title>
<g id="a_Node000003"><a xlink:href="async_2future_8hpp.html" target="_top" xlink:title=" ">
<polygon fill="white" stroke="#666666" points="1215.88,-296.5 1112.88,-296.5 1112.88,-266 1215.88,-266 1215.88,-296.5"/>
<text text-anchor="start" x="1120.88" y="-283" font-family="Helvetica,sans-Serif" font-size="10.00">include/yaclib/async</text>
<text text-anchor="middle" x="1164.38" y="-271.75" font-family="Helvetica,sans-Serif" font-size="10.00">/future.hpp</text>
</a>
</g>
</g>
<!-- Node2&#45;&gt;Node3 -->
<g id="edge2_Node000002_Node000003" class="edge">
<title>Node2&#45;&gt;Node3</title>
<g id="a_edge2_Node000002_Node000003"><a xlink:title=" ">
<path fill="none" stroke="#63b8ff" d="M1205.99,-324.19C1196.98,-315.11 1186.85,-304.9 1178.84,-296.83"/>
<polygon fill="#63b8ff" stroke="#63b8ff" points="1203.26,-326.41 1212.79,-331.04 1208.23,-321.48 1203.26,-326.41"/>
</a>
</g>
</g>
<!-- Node19 -->
<g id="Node000019" class="node">
<title>Node19</title>
<g id="a_Node000019"><a xlink:href="run_8hpp.html" target="_top" xlink:title=" ">
<polygon fill="white" stroke="#666666" points="1105.88,-230 1002.88,-230 1002.88,-199.5 1105.88,-199.5 1105.88,-230"/>
<text text-anchor="start" x="1010.88" y="-216.5" font-family="Helvetica,sans-Serif" font-size="10.00">include/yaclib/async</text>
<text text-anchor="middle" x="1054.38" y="-205.25" font-family="Helvetica,sans-Serif" font-size="10.00">/run.hpp</text>
</a>
</g>
</g>
<!-- Node2&#45;&gt;Node19 -->
<g id="edge50_Node000002_Node000019" class="edge">
<title>Node2&#45;&gt;Node19</title>
<g id="a_edge50_Node000002_Node000019"><a xlink:title=" ">
<path fill="none" stroke="#63b8ff" d="M1169.48,-331.4C1147.35,-323.56 1123.07,-312.27 1104.38,-296.5 1082.7,-278.21 1067.58,-248.05 1059.99,-230.22"/>
<polygon fill="#63b8ff" stroke="#63b8ff" points="1168.1,-334.63 1178.69,-334.49 1170.32,-327.99 1168.1,-334.63"/>
</a>
</g>
</g>
<!-- Node34 -->
<g id="Node000034" class="node">
<title>Node34</title>
<g id="a_Node000034"><a xlink:href="result__core_8cpp.html" target="_top" xlink:title=" ">
<polygon fill="white" stroke="#666666" points="1353.12,-290.88 1233.62,-290.88 1233.62,-271.62 1353.12,-271.62 1353.12,-290.88"/>
<text text-anchor="middle" x="1293.38" y="-277.38" font-family="Helvetica,sans-Serif" font-size="10.00">src/algo/result_core.cpp</text>
</a>
</g>
</g>
<!-- Node2&#45;&gt;Node34 -->
<g id="edge51_Node000002_Node000034" class="edge">
<title>Node2&#45;&gt;Node34</title>
<g id="a_edge51_Node000002_Node000034"><a xlink:title=" ">
<path fill="none" stroke="#63b8ff" d="M1251.09,-324.21C1262.6,-312.78 1275.92,-299.57 1284.48,-291.07"/>
<polygon fill="#63b8ff" stroke="#63b8ff" points="1248.83,-321.52 1244.2,-331.05 1253.76,-326.49 1248.83,-321.52"/>
</a>
</g>
</g>
<!-- Node4 -->
<g id="Node000004" class="node">
<title>Node4</title>
<g id="a_Node000004"><a xlink:href="wait__group_8hpp.html" target="_top" xlink:title=" ">
<polygon fill="white" stroke="#666666" points="154.12,-230 58.62,-230 58.62,-199.5 154.12,-199.5 154.12,-230"/>
<text text-anchor="start" x="66.62" y="-216.5" font-family="Helvetica,sans-Serif" font-size="10.00">include/yaclib/algo</text>
<text text-anchor="middle" x="106.38" y="-205.25" font-family="Helvetica,sans-Serif" font-size="10.00">/wait_group.hpp</text>
</a>
</g>
</g>
<!-- Node3&#45;&gt;Node4 -->
<g id="edge3_Node000003_Node000004" class="edge">
<title>Node3&#45;&gt;Node4</title>
<g id="a_edge3_Node000003_Node000004"><a xlink:title=" ">
<path fill="none" stroke="#63b8ff" d="M1101.29,-279.36C946.42,-276.64 535.25,-266.32 194.38,-230 181.29,-228.61 167.2,-226.57 154.2,-224.46"/>
<polygon fill="#63b8ff" stroke="#63b8ff" points="1100.86,-282.85 1110.92,-279.52 1100.98,-275.85 1100.86,-282.85"/>
</a>
</g>
</g>
<!-- Node6 -->
<g id="Node000006" class="node">
<title>Node6</title>
<g id="a_Node000006"><a xlink:href="connect_8hpp.html" target="_top" xlink:title=" ">
<polygon fill="white" stroke="#666666" points="359.88,-230 256.88,-230 256.88,-199.5 359.88,-199.5 359.88,-230"/>
<text text-anchor="start" x="264.88" y="-216.5" font-family="Helvetica,sans-Serif" font-size="10.00">include/yaclib/async</text>
<text text-anchor="middle" x="308.38" y="-205.25" font-family="Helvetica,sans-Serif" font-size="10.00">/connect.hpp</text>
</a>
</g>
</g>
<!-- Node3&#45;&gt;Node6 -->
<g id="edge5_Node000003_Node000006" class="edge">
<title>Node3&#45;&gt;Node6</title>
<g id="a_edge5_Node000003_Node000006"><a xlink:title=" ">
<path fill="none" stroke="#63b8ff" d="M1101.12,-279.82C966.03,-278.11 639.58,-269.82 369.38,-230 366.36,-229.56 363.28,-229.04 360.18,-228.47"/>
<polygon fill="#63b8ff" stroke="#63b8ff" points="1100.89,-283.31 1110.93,-279.93 1100.97,-276.31 1100.89,-283.31"/>
</a>
</g>
</g>
<!-- Node8 -->
<g id="Node000008" class="node">
<title>Node8</title>
<g id="a_Node000008"><a xlink:href="split_8hpp.html" target="_top" xlink:title=" ">
<polygon fill="white" stroke="#666666" points="239.88,-163.5 136.88,-163.5 136.88,-133 239.88,-133 239.88,-163.5"/>
<text text-anchor="start" x="144.88" y="-150" font-family="Helvetica,sans-Serif" font-size="10.00">include/yaclib/async</text>
<text text-anchor="middle" x="188.38" y="-138.75" font-family="Helvetica,sans-Serif" font-size="10.00">/split.hpp</text>
</a>
</g>
</g>
<!-- Node3&#45;&gt;Node8 -->
<g id="edge25_Node000003_Node000008" class="edge">
<title>Node3&#45;&gt;Node8</title>
<g id="a_edge25_Node000003_Node000008"><a xlink:title=" ">
<path fill="none" stroke="#63b8ff" d="M1101.24,-279.87C906.38,-278.26 323,-270.12 248.38,-230 221.3,-215.44 203.09,-182.74 194.36,-163.71"/>
<polygon fill="#63b8ff" stroke="#63b8ff" points="1101.15,-283.37 1111.18,-279.95 1101.2,-276.37 1101.15,-283.37"/>
</a>
</g>
</g>
<!-- Node9 -->
<g id="Node000009" class="node">
<title>Node9</title>
<g id="a_Node000009"><a xlink:href="contract_8hpp.html" target="_top" xlink:title=" ">
<polygon fill="white" stroke="#666666" points="480.88,-230 377.88,-230 377.88,-199.5 480.88,-199.5 480.88,-230"/>
<text text-anchor="start" x="385.88" y="-216.5" font-family="Helvetica,sans-Serif" font-size="10.00">include/yaclib/async</text>
<text text-anchor="middle" x="429.38" y="-205.25" font-family="Helvetica,sans-Serif" font-size="10.00">/contract.hpp</text>
</a>
</g>
</g>
<!-- Node3&#45;&gt;Node9 -->
<g id="edge8_Node000003_Node000009" class="edge">
<title>Node3&#45;&gt;Node9</title>
<g id="a_edge8_Node000003_Node000009"><a xlink:title=" ">
<path fill="none" stroke="#63b8ff" d="M1101.17,-274.98C994.01,-266.02 769.84,-247.09 580.38,-230 547.33,-227.02 510.24,-223.52 481.08,-220.74"/>
<polygon fill="#63b8ff" stroke="#63b8ff" points="1100.64,-278.45 1110.9,-275.8 1101.23,-271.48 1100.64,-278.45"/>
</a>
</g>
</g>
<!-- Node10 -->
<g id="Node000010" class="node">
<title>Node10</title>
<g id="a_Node000010"><a xlink:href="simple_8cpp.html" target="_top" xlink:title=" ">
<polygon fill="white" stroke="#666666" points="479.38,-163.5 379.38,-163.5 379.38,-133 479.38,-133 479.38,-163.5"/>
<text text-anchor="start" x="387.38" y="-150" font-family="Helvetica,sans-Serif" font-size="10.00">test/example/async</text>
<text text-anchor="middle" x="429.38" y="-138.75" font-family="Helvetica,sans-Serif" font-size="10.00">/simple.cpp</text>
</a>
</g>
</g>
<!-- Node3&#45;&gt;Node10 -->
<g id="edge49_Node000003_Node000010" class="edge">
<title>Node3&#45;&gt;Node10</title>
<g id="a_edge49_Node000003_Node000010"><a xlink:title=" ">
<path fill="none" stroke="#63b8ff" d="M1101.33,-278.39C1006.43,-274.58 821.64,-263.21 668.38,-230 594.11,-213.91 510.73,-182.54 464.7,-163.99"/>
<polygon fill="#63b8ff" stroke="#63b8ff" points="1101.09,-281.89 1111.21,-278.77 1101.36,-274.89 1101.09,-281.89"/>
</a>
</g>
</g>
<!-- Node11 -->
<g id="Node000011" class="node">
<title>Node11</title>
<g id="a_Node000011"><a xlink:href="when__impl_8hpp.html" target="_top" xlink:title=" ">
<polygon fill="white" stroke="#666666" points="787.25,-230 677.5,-230 677.5,-199.5 787.25,-199.5 787.25,-230"/>
<text text-anchor="start" x="685.5" y="-216.5" font-family="Helvetica,sans-Serif" font-size="10.00">include/yaclib/async</text>
<text text-anchor="middle" x="732.38" y="-205.25" font-family="Helvetica,sans-Serif" font-size="10.00">/detail/when_impl.hpp</text>
</a>
</g>
</g>
<!-- Node3&#45;&gt;Node11 -->
<g id="edge11_Node000003_Node000011" class="edge">
<title>Node3&#45;&gt;Node11</title>
<g id="a_edge11_Node000003_Node000011"><a xlink:title=" ">
<path fill="none" stroke="#63b8ff" d="M1101.31,-272.8C1028.75,-263.94 906.12,-248.05 801.38,-230 796.91,-229.23 792.3,-228.39 787.68,-227.51"/>
<polygon fill="#63b8ff" stroke="#63b8ff" points="1100.66,-276.25 1111.01,-273.98 1101.5,-269.3 1100.66,-276.25"/>
</a>
</g>
</g>
<!-- Node13 -->
<g id="Node000013" class="node">
<title>Node13</title>
<g id="a_Node000013"><a xlink:href="when__all_8hpp.html" target="_top" xlink:title=" ">
<polygon fill="white" stroke="#666666" points="759.88,-97 656.88,-97 656.88,-66.5 759.88,-66.5 759.88,-97"/>
<text text-anchor="start" x="664.88" y="-83.5" font-family="Helvetica,sans-Serif" font-size="10.00">include/yaclib/async</text>
<text text-anchor="middle" x="708.38" y="-72.25" font-family="Helvetica,sans-Serif" font-size="10.00">/when_all.hpp</text>
</a>
</g>
</g>
<!-- Node3&#45;&gt;Node13 -->
<g id="edge30_Node000003_Node000013" class="edge">
<title>Node3&#45;&gt;Node13</title>
<g id="a_edge30_Node000003_Node000013"><a xlink:title=" ">
<path fill="none" stroke="#63b8ff" d="M1100.98,-276.35C1024.3,-270.51 900.92,-257.13 864.38,-230 825.75,-201.33 850.79,-166.6 816.38,-133 799.95,-116.96 777.46,-105.39 757.26,-97.42"/>
<polygon fill="#63b8ff" stroke="#63b8ff" points="1100.67,-279.84 1110.9,-277.08 1101.18,-272.86 1100.67,-279.84"/>
</a>
</g>
</g>
<!-- Node16 -->
<g id="Node000016" class="node">
<title>Node16</title>
<g id="a_Node000016"><a xlink:href="when__any_8hpp.html" target="_top" xlink:title=" ">
<polygon fill="white" stroke="#666666" points="912.88,-97 809.88,-97 809.88,-66.5 912.88,-66.5 912.88,-97"/>
<text text-anchor="start" x="817.88" y="-83.5" font-family="Helvetica,sans-Serif" font-size="10.00">include/yaclib/async</text>
<text text-anchor="middle" x="861.38" y="-72.25" font-family="Helvetica,sans-Serif" font-size="10.00">/when_any.hpp</text>
</a>
</g>
</g>
<!-- Node3&#45;&gt;Node16 -->
<g id="edge31_Node000003_Node000016" class="edge">
<title>Node3&#45;&gt;Node16</title>
<g id="a_edge31_Node000003_Node000016"><a xlink:title=" ">
<path fill="none" stroke="#63b8ff" d="M1100.97,-278.5C1024.28,-274.9 901.88,-263.85 873.38,-230 864.64,-219.63 870.88,-212.82 873.38,-199.5 876.54,-182.63 884.21,-180.37 887.38,-163.5 889.87,-150.18 890.58,-146.17 887.38,-133 884.26,-120.21 877.28,-107.04 871.34,-97.4"/>
<polygon fill="#63b8ff" stroke="#63b8ff" points="1100.74,-282 1110.89,-278.94 1101.05,-275 1100.74,-282"/>
</a>
</g>
</g>
<!-- Node18 -->
<g id="Node000018" class="node">
<title>Node18</title>
<g id="a_Node000018"><a xlink:href="async_2make_8hpp.html" target="_top" xlink:title=" ">
<polygon fill="white" stroke="#666666" points="984.88,-230 881.88,-230 881.88,-199.5 984.88,-199.5 984.88,-230"/>
<text text-anchor="start" x="889.88" y="-216.5" font-family="Helvetica,sans-Serif" font-size="10.00">include/yaclib/async</text>
<text text-anchor="middle" x="933.38" y="-205.25" font-family="Helvetica,sans-Serif" font-size="10.00">/make.hpp</text>
</a>
</g>
</g>
<!-- Node3&#45;&gt;Node18 -->
<g id="edge20_Node000003_Node000018" class="edge">
<title>Node3&#45;&gt;Node18</title>
<g id="a_edge20_Node000003_Node000018"><a xlink:title=" ">
<path fill="none" stroke="#63b8ff" d="M1101.5,-262.69C1064.96,-252.49 1019.48,-239.79 985.04,-230.18"/>
<polygon fill="#63b8ff" stroke="#63b8ff" points="1100.5,-266.05 1111.08,-265.37 1102.39,-259.31 1100.5,-266.05"/>
</a>
</g>
</g>
<!-- Node3&#45;&gt;Node19 -->
<g id="edge21_Node000003_Node000019" class="edge">
<title>Node3&#45;&gt;Node19</title>
<g id="a_edge21_Node000003_Node000019"><a xlink:title=" ">
<path fill="none" stroke="#63b8ff" d="M1129.65,-259.89C1113.28,-250.29 1094.13,-239.06 1079.24,-230.33"/>
<polygon fill="#63b8ff" stroke="#63b8ff" points="1127.71,-262.81 1138.11,-264.85 1131.25,-256.77 1127.71,-262.81"/>
</a>
</g>
</g>
<!-- Node20 -->
<g id="Node000020" class="node">
<title>Node20</title>
<g id="a_Node000020"><a xlink:href="wait_8hpp.html" target="_top" xlink:title=" ">
<polygon fill="white" stroke="#666666" points="1226.88,-230 1123.88,-230 1123.88,-199.5 1226.88,-199.5 1226.88,-230"/>
<text text-anchor="start" x="1131.88" y="-216.5" font-family="Helvetica,sans-Serif" font-size="10.00">include/yaclib/async</text>
<text text-anchor="middle" x="1175.38" y="-205.25" font-family="Helvetica,sans-Serif" font-size="10.00">/wait.hpp</text>
</a>
</g>
</g>
<!-- Node3&#45;&gt;Node20 -->
<g id="edge26_Node000003_Node000020" class="edge">
<title>Node3&#45;&gt;Node20</title>
<g id="a_edge26_Node000003_Node000020"><a xlink:title=" ">
<path fill="none" stroke="#63b8ff" d="M1162.17,-254.31C1163.25,-246.14 1165.04,-237.41 1167.14,-230.33"/>
<polygon fill="#63b8ff" stroke="#63b8ff" points="1158.7,-253.82 1161.25,-264.11 1165.67,-254.48 1158.7,-253.82"/>
</a>
</g>
</g>
<!-- Node21 -->
<g id="Node000021" class="node">
<title>Node21</title>
<g id="a_Node000021"><a xlink:href="wait__for_8hpp.html" target="_top" xlink:title=" ">
<polygon fill="white" stroke="#666666" points="1347.88,-230 1244.88,-230 1244.88,-199.5 1347.88,-199.5 1347.88,-230"/>
<text text-anchor="start" x="1252.88" y="-216.5" font-family="Helvetica,sans-Serif" font-size="10.00">include/yaclib/async</text>
<text text-anchor="middle" x="1296.38" y="-205.25" font-family="Helvetica,sans-Serif" font-size="10.00">/wait_for.hpp</text>
</a>
</g>
</g>
<!-- Node3&#45;&gt;Node21 -->
<g id="edge28_Node000003_Node000021" class="edge">
<title>Node3&#45;&gt;Node21</title>
<g id="a_edge28_Node000003_Node000021"><a xlink:title=" ">
<path fill="none" stroke="#63b8ff" d="M1204.67,-260.56C1224.6,-250.82 1248.25,-239.26 1266.54,-230.33"/>
<polygon fill="#63b8ff" stroke="#63b8ff" points="1203.14,-257.41 1195.69,-264.95 1206.21,-263.7 1203.14,-257.41"/>
</a>
</g>
</g>
<!-- Node22 -->
<g id="Node000022" class="node">
<title>Node22</title>
<g id="a_Node000022"><a xlink:href="wait__until_8hpp.html" target="_top" xlink:title=" ">
<polygon fill="white" stroke="#666666" points="1468.88,-230 1365.88,-230 1365.88,-199.5 1468.88,-199.5 1468.88,-230"/>
<text text-anchor="start" x="1373.88" y="-216.5" font-family="Helvetica,sans-Serif" font-size="10.00">include/yaclib/async</text>
<text text-anchor="middle" x="1417.38" y="-205.25" font-family="Helvetica,sans-Serif" font-size="10.00">/wait_until.hpp</text>
</a>
</g>
</g>
<!-- Node3&#45;&gt;Node22 -->
<g id="edge29_Node000003_Node000022" class="edge">
<title>Node3&#45;&gt;Node22</title>
<g id="a_edge29_Node000003_Node000022"><a xlink:title=" ">
<path fill="none" stroke="#63b8ff" d="M1227.28,-264.21C1269.92,-253.34 1325.58,-239.15 1365.64,-228.94"/>
<polygon fill="#63b8ff" stroke="#63b8ff" points="1226.48,-260.81 1217.65,-266.67 1228.21,-267.59 1226.48,-260.81"/>
</a>
</g>
</g>
<!-- Node23 -->
<g id="Node000023" class="node">
<title>Node23</title>
<g id="a_Node000023"><a xlink:href="await_8hpp.html" target="_top" xlink:title=" ">
<polygon fill="white" stroke="#666666" points="1586.5,-97 1490.25,-97 1490.25,-66.5 1586.5,-66.5 1586.5,-97"/>
<text text-anchor="start" x="1498.25" y="-83.5" font-family="Helvetica,sans-Serif" font-size="10.00">include/yaclib/coro</text>
<text text-anchor="middle" x="1538.38" y="-72.25" font-family="Helvetica,sans-Serif" font-size="10.00">/await.hpp</text>
</a>
</g>
</g>
<!-- Node3&#45;&gt;Node23 -->
<g id="edge32_Node000003_Node000023" class="edge">
<title>Node3&#45;&gt;Node23</title>
<g id="a_edge32_Node000003_Node000023"><a xlink:title=" ">
<path fill="none" stroke="#63b8ff" d="M1227.62,-265.78C1296.8,-256.32 1435.88,-263.14 1478.38,-230 1489.48,-221.34 1520.99,-132.98 1533.33,-97.44"/>
<polygon fill="#63b8ff" stroke="#63b8ff" points="1227.16,-262.31 1217.84,-267.36 1228.27,-269.22 1227.16,-262.31"/>
</a>
</g>
</g>
<!-- Node24 -->
<g id="Node000024" class="node">
<title>Node24</title>
<g id="a_Node000024"><a xlink:href="await__on_8hpp.html" target="_top" xlink:title=" ">
<polygon fill="white" stroke="#666666" points="1741.5,-97 1645.25,-97 1645.25,-66.5 1741.5,-66.5 1741.5,-97"/>
<text text-anchor="start" x="1653.25" y="-83.5" font-family="Helvetica,sans-Serif" font-size="10.00">include/yaclib/coro</text>
<text text-anchor="middle" x="1693.38" y="-72.25" font-family="Helvetica,sans-Serif" font-size="10.00">/await_on.hpp</text>
</a>
</g>
</g>
<!-- Node3&#45;&gt;Node24 -->
<g id="edge33_Node000003_Node000024" class="edge">
<title>Node3&#45;&gt;Node24</title>
<g id="a_edge33_Node000003_Node000024"><a xlink:title=" ">
<path fill="none" stroke="#63b8ff" d="M1227.5,-265.79C1301.28,-255.72 1450.85,-262.67 1499.38,-230 1540.48,-202.32 1516.5,-164.96 1554.38,-133 1580.16,-111.24 1616.13,-98.57 1645.02,-91.4"/>
<polygon fill="#63b8ff" stroke="#63b8ff" points="1227.16,-262.3 1217.83,-267.33 1228.26,-269.22 1227.16,-262.3"/>
</a>
</g>
</g>
<!-- Node25 -->
<g id="Node000025" class="node">
<title>Node25</title>
<g id="a_Node000025"><a xlink:href="await__awaiter_8hpp.html" target="_top" xlink:title=" ">
<polygon fill="white" stroke="#666666" points="1687,-163.5 1563.75,-163.5 1563.75,-133 1687,-133 1687,-163.5"/>
<text text-anchor="start" x="1571.75" y="-150" font-family="Helvetica,sans-Serif" font-size="10.00">include/yaclib/coro</text>
<text text-anchor="middle" x="1625.38" y="-138.75" font-family="Helvetica,sans-Serif" font-size="10.00">/detail/await_awaiter.hpp</text>
</a>
</g>
</g>
<!-- Node3&#45;&gt;Node25 -->
<g id="edge34_Node000003_Node000025" class="edge">
<title>Node3&#45;&gt;Node25</title>
<g id="a_edge34_Node000003_Node000025"><a xlink:title=" ">
<path fill="none" stroke="#63b8ff" d="M1227.66,-265.64C1370.24,-243.82 1422.65,-293.26 1549.38,-230 1579.52,-214.95 1603.96,-182.74 1616.42,-163.87"/>
<polygon fill="#63b8ff" stroke="#63b8ff" points="1227.13,-262.18 1217.82,-267.25 1228.26,-269.09 1227.13,-262.18"/>
</a>
</g>
</g>
<!-- Node26 -->
<g id="Node000026" class="node">
<title>Node26</title>
<g id="a_Node000026"><a xlink:href="await__on__awaiter_8hpp.html" target="_top" xlink:title=" ">
<polygon fill="white" stroke="#666666" points="1843.88,-163.5 1704.88,-163.5 1704.88,-133 1843.88,-133 1843.88,-163.5"/>
<text text-anchor="start" x="1712.88" y="-150" font-family="Helvetica,sans-Serif" font-size="10.00">include/yaclib/coro</text>
<text text-anchor="middle" x="1774.38" y="-138.75" font-family="Helvetica,sans-Serif" font-size="10.00">/detail/await_on_awaiter.hpp</text>
</a>
</g>
</g>
<!-- Node3&#45;&gt;Node26 -->
<g id="edge36_Node000003_Node000026" class="edge">
<title>Node3&#45;&gt;Node26</title>
<g id="a_edge36_Node000003_Node000026"><a xlink:title=" ">
<path fill="none" stroke="#63b8ff" d="M1227.29,-265.68C1383.83,-241.21 1432.79,-277.16 1581.38,-230 1607.65,-221.66 1610.33,-211 1635.38,-199.5 1665.34,-185.74 1700.24,-173.13 1727.58,-163.99"/>
<polygon fill="#63b8ff" stroke="#63b8ff" points="1227.12,-262.16 1217.82,-267.22 1228.25,-269.07 1227.12,-262.16"/>
</a>
</g>
</g>
<!-- Node27 -->
<g id="Node000027" class="node">
<title>Node27</title>
<g id="a_Node000027"><a xlink:href="coro_2future_8hpp.html" target="_top" xlink:title=" ">
<polygon fill="white" stroke="#666666" points="1958.5,-163.5 1862.25,-163.5 1862.25,-133 1958.5,-133 1958.5,-163.5"/>
<text text-anchor="start" x="1870.25" y="-150" font-family="Helvetica,sans-Serif" font-size="10.00">include/yaclib/coro</text>
<text text-anchor="middle" x="1910.38" y="-138.75" font-family="Helvetica,sans-Serif" font-size="10.00">/future.hpp</text>
</a>
</g>
</g>
<!-- Node3&#45;&gt;Node27 -->
<g id="edge38_Node000003_Node000027" class="edge">
<title>Node3&#45;&gt;Node27</title>
<g id="a_edge38_Node000003_Node000027"><a xlink:title=" ">
<path fill="none" stroke="#63b8ff" d="M1227.44,-265.69C1401.97,-239.44 1457.96,-286.85 1622.38,-230 1645.91,-221.86 1646.29,-208.84 1669.38,-199.5 1746.62,-168.25 1772.04,-181.61 1853.38,-163.5 1856.16,-162.88 1859.02,-162.22 1861.91,-161.55"/>
<polygon fill="#63b8ff" stroke="#63b8ff" points="1227.15,-262.19 1217.81,-267.2 1228.23,-269.1 1227.15,-262.19"/>
</a>
</g>
</g>
<!-- Node28 -->
<g id="Node000028" class="node">
<title>Node28</title>
<g id="a_Node000028"><a xlink:href="lazy_2task_8hpp.html" target="_top" xlink:title=" ">
<polygon fill="white" stroke="#666666" points="1957.38,-230 1863.38,-230 1863.38,-199.5 1957.38,-199.5 1957.38,-230"/>
<text text-anchor="start" x="1871.38" y="-216.5" font-family="Helvetica,sans-Serif" font-size="10.00">include/yaclib/lazy</text>
<text text-anchor="middle" x="1910.38" y="-205.25" font-family="Helvetica,sans-Serif" font-size="10.00">/task.hpp</text>
</a>
</g>
</g>
<!-- Node3&#45;&gt;Node28 -->
<g id="edge39_Node000003_Node000028" class="edge">
<title>Node3&#45;&gt;Node28</title>
<g id="a_edge39_Node000003_Node000028"><a xlink:title=" ">
<path fill="none" stroke="#63b8ff" d="M1227.57,-265.69C1486.24,-228.34 1556.79,-256.93 1814.38,-230 1830.3,-228.34 1847.62,-225.94 1863.11,-223.59"/>
<polygon fill="#63b8ff" stroke="#63b8ff" points="1227.19,-262.21 1217.8,-267.12 1228.2,-269.13 1227.19,-262.21"/>
</a>
</g>
</g>
<!-- Node33 -->
<g id="Node000033" class="node">
<title>Node33</title>
<g id="a_Node000033"><a xlink:href="future__impl_8cpp.html" target="_top" xlink:title=" ">
<polygon fill="white" stroke="#666666" points="1804.88,-224.38 1677.88,-224.38 1677.88,-205.12 1804.88,-205.12 1804.88,-224.38"/>
<text text-anchor="middle" x="1741.38" y="-210.88" font-family="Helvetica,sans-Serif" font-size="10.00">src/async/future_impl.cpp</text>
</a>
</g>
</g>
<!-- Node3&#45;&gt;Node33 -->
<g id="edge48_Node000003_Node000033" class="edge">
<title>Node3&#45;&gt;Node33</title>
<g id="a_edge48_Node000003_Node000033"><a xlink:title=" ">
<path fill="none" stroke="#63b8ff" d="M1227.66,-265.63C1419.73,-236.05 1472.99,-255.13 1663.38,-230 1673.88,-228.61 1685.13,-226.77 1695.71,-224.87"/>
<polygon fill="#63b8ff" stroke="#63b8ff" points="1227.15,-262.17 1217.81,-267.17 1228.23,-269.08 1227.15,-262.17"/>
</a>
</g>
</g>
<!-- Node5 -->
<g id="Node000005" class="node">
<title>Node5</title>
<g id="a_Node000005"><a xlink:href="wait__group_8cpp.html" target="_top" xlink:title=" ">
<polygon fill="white" stroke="#666666" points="118.75,-157.88 0,-157.88 0,-138.62 118.75,-138.62 118.75,-157.88"/>
<text text-anchor="middle" x="59.38" y="-144.38" font-family="Helvetica,sans-Serif" font-size="10.00">src/algo/wait_group.cpp</text>
</a>
</g>
</g>
<!-- Node4&#45;&gt;Node5 -->
<g id="edge4_Node000004_Node000005" class="edge">
<title>Node4&#45;&gt;Node5</title>
<g id="a_edge4_Node000004_Node000005"><a xlink:title=" ">
<path fill="none" stroke="#63b8ff" d="M88.97,-189.87C80.88,-178.77 71.76,-166.24 65.8,-158.07"/>
<polygon fill="#63b8ff" stroke="#63b8ff" points="86.1,-191.87 94.82,-197.89 91.76,-187.75 86.1,-191.87"/>
</a>
</g>
</g>
<!-- Node7 -->
<g id="Node000007" class="node">
<title>Node7</title>
<g id="a_Node000007"><a xlink:href="share_8hpp.html" target="_top" xlink:title=" ">
<polygon fill="white" stroke="#666666" points="360.88,-163.5 257.88,-163.5 257.88,-133 360.88,-133 360.88,-163.5"/>
<text text-anchor="start" x="265.88" y="-150" font-family="Helvetica,sans-Serif" font-size="10.00">include/yaclib/async</text>
<text text-anchor="middle" x="309.38" y="-138.75" font-family="Helvetica,sans-Serif" font-size="10.00">/share.hpp</text>
</a>
</g>
</g>
<!-- Node6&#45;&gt;Node7 -->
<g id="edge6_Node000006_Node000007" class="edge">
<title>Node6&#45;&gt;Node7</title>
<g id="a_edge6_Node000006_Node000007"><a xlink:title=" ">
<path fill="none" stroke="#63b8ff" d="M308.78,-187.81C308.9,-179.64 309.04,-170.91 309.15,-163.83"/>
<polygon fill="#63b8ff" stroke="#63b8ff" points="305.28,-187.55 308.63,-197.6 312.28,-187.66 305.28,-187.55"/>
</a>
</g>
</g>
<!-- Node6&#45;&gt;Node8 -->
<g id="edge7_Node000006_Node000008" class="edge">
<title>Node6&#45;&gt;Node8</title>
<g id="a_edge7_Node000006_Node000008"><a xlink:title=" ">
<path fill="none" stroke="#63b8ff" d="M271.25,-193.79C253.23,-184.11 231.97,-172.68 215.5,-163.83"/>
<polygon fill="#63b8ff" stroke="#63b8ff" points="269.35,-196.75 279.81,-198.4 272.66,-190.58 269.35,-196.75"/>
</a>
</g>
</g>
<!-- Node9&#45;&gt;Node7 -->
<g id="edge9_Node000009_Node000007" class="edge">
<title>Node9&#45;&gt;Node7</title>
<g id="a_edge9_Node000009_Node000007"><a xlink:title=" ">
<path fill="none" stroke="#63b8ff" d="M392.25,-193.79C374.23,-184.11 352.97,-172.68 336.5,-163.83"/>
<polygon fill="#63b8ff" stroke="#63b8ff" points="390.35,-196.75 400.81,-198.4 393.66,-190.58 390.35,-196.75"/>
</a>
</g>
</g>
<!-- Node9&#45;&gt;Node10 -->
<g id="edge10_Node000009_Node000010" class="edge">
<title>Node9&#45;&gt;Node10</title>
<g id="a_edge10_Node000009_Node000010"><a xlink:title=" ">
<path fill="none" stroke="#63b8ff" d="M429.38,-187.81C429.38,-179.64 429.38,-170.91 429.38,-163.83"/>
<polygon fill="#63b8ff" stroke="#63b8ff" points="425.88,-187.6 429.38,-197.6 432.88,-187.6 425.88,-187.6"/>
</a>
</g>
</g>
<!-- Node12 -->
<g id="Node000012" class="node">
<title>Node12</title>
<g id="a_Node000012"><a xlink:href="when__all__impl_8hpp.html" target="_top" xlink:title=" ">
<polygon fill="white" stroke="#666666" points="621.75,-163.5 497,-163.5 497,-133 621.75,-133 621.75,-163.5"/>
<text text-anchor="start" x="505" y="-150" font-family="Helvetica,sans-Serif" font-size="10.00">include/yaclib/async</text>
<text text-anchor="middle" x="559.38" y="-138.75" font-family="Helvetica,sans-Serif" font-size="10.00">/detail/when_all_impl.hpp</text>
</a>
</g>
</g>
<!-- Node11&#45;&gt;Node12 -->
<g id="edge12_Node000011_Node000012" class="edge">
<title>Node11&#45;&gt;Node12</title>
<g id="a_edge12_Node000011_Node000012"><a xlink:title=" ">
<path fill="none" stroke="#63b8ff" d="M682.48,-195.15C655.87,-185.23 623.6,-173.2 598.78,-163.94"/>
<polygon fill="#63b8ff" stroke="#63b8ff" points="681.11,-198.37 691.7,-198.59 683.55,-191.81 681.11,-198.37"/>
</a>
</g>
</g>
<!-- Node11&#45;&gt;Node13 -->
<g id="edge18_Node000011_Node000013" class="edge">
<title>Node11&#45;&gt;Node13</title>
<g id="a_edge18_Node000011_Node000013"><a xlink:title=" ">
<path fill="none" stroke="#63b8ff" d="M694.19,-192.66C683.9,-184.94 674.05,-175.17 668.38,-163.5 657.09,-140.29 676.97,-113.45 692.53,-97.31"/>
<polygon fill="#63b8ff" stroke="#63b8ff" points="692.19,-195.54 702.41,-198.32 696.16,-189.77 692.19,-195.54"/>
</a>
</g>
</g>
<!-- Node15 -->
<g id="Node000015" class="node">
<title>Node15</title>
<g id="a_Node000015"><a xlink:href="when__any__impl_8hpp.html" target="_top" xlink:title=" ">
<polygon fill="white" stroke="#666666" points="807.38,-163.5 677.38,-163.5 677.38,-133 807.38,-133 807.38,-163.5"/>
<text text-anchor="start" x="685.38" y="-150" font-family="Helvetica,sans-Serif" font-size="10.00">include/yaclib/async</text>
<text text-anchor="middle" x="742.38" y="-138.75" font-family="Helvetica,sans-Serif" font-size="10.00">/detail/when_any_impl.hpp</text>
</a>
</g>
</g>
<!-- Node11&#45;&gt;Node15 -->
<g id="edge15_Node000011_Node000015" class="edge">
<title>Node11&#45;&gt;Node15</title>
<g id="a_edge15_Node000011_Node000015"><a xlink:title=" ">
<path fill="none" stroke="#63b8ff" d="M736.4,-187.81C737.66,-179.64 739.02,-170.91 740.11,-163.83"/>
<polygon fill="#63b8ff" stroke="#63b8ff" points="732.95,-187.2 734.88,-197.62 739.87,-188.27 732.95,-187.2"/>
</a>
</g>
</g>
<!-- Node11&#45;&gt;Node16 -->
<g id="edge19_Node000011_Node000016" class="edge">
<title>Node11&#45;&gt;Node16</title>
<g id="a_edge19_Node000011_Node000016"><a xlink:title=" ">
<path fill="none" stroke="#63b8ff" d="M775.55,-193.66C789.7,-185.66 804.76,-175.48 816.38,-163.5 835.37,-143.91 848.98,-114.73 855.98,-97.34"/>
<polygon fill="#63b8ff" stroke="#63b8ff" points="773.94,-190.55 766.79,-198.37 777.26,-196.71 773.94,-190.55"/>
</a>
</g>
</g>
<!-- Node12&#45;&gt;Node13 -->
<g id="edge13_Node000012_Node000013" class="edge">
<title>Node12&#45;&gt;Node13</title>
<g id="a_edge13_Node000012_Node000013"><a xlink:title=" ">
<path fill="none" stroke="#63b8ff" d="M603.58,-128.12C626.25,-118.3 653.44,-106.53 674.44,-97.44"/>
<polygon fill="#63b8ff" stroke="#63b8ff" points="602.36,-124.83 594.57,-132.01 605.14,-131.25 602.36,-124.83"/>
</a>
</g>
</g>
<!-- Node14 -->
<g id="Node000014" class="node">
<title>Node14</title>
<g id="a_Node000014"><a xlink:href="when__all_8cpp.html" target="_top" xlink:title=" ">
<polygon fill="white" stroke="#666666" points="896.38,-30.5 796.38,-30.5 796.38,0 896.38,0 896.38,-30.5"/>
<text text-anchor="start" x="804.38" y="-17" font-family="Helvetica,sans-Serif" font-size="10.00">test/example/async</text>
<text text-anchor="middle" x="846.38" y="-5.75" font-family="Helvetica,sans-Serif" font-size="10.00">/when_all.cpp</text>
</a>
</g>
</g>
<!-- Node13&#45;&gt;Node14 -->
<g id="edge14_Node000013_Node000014" class="edge">
<title>Node13&#45;&gt;Node14</title>
<g id="a_edge14_Node000013_Node000014"><a xlink:title=" ">
<path fill="none" stroke="#63b8ff" d="M749.92,-61.33C770.89,-51.53 795.89,-39.85 815.18,-30.83"/>
<polygon fill="#63b8ff" stroke="#63b8ff" points="748.64,-58.07 741.06,-65.47 751.6,-64.41 748.64,-58.07"/>
</a>
</g>
</g>
<!-- Node15&#45;&gt;Node16 -->
<g id="edge16_Node000015_Node000016" class="edge">
<title>Node15&#45;&gt;Node16</title>
<g id="a_edge16_Node000015_Node000016"><a xlink:title=" ">
<path fill="none" stroke="#63b8ff" d="M779.45,-127.16C797.26,-117.5 818.22,-106.14 834.48,-97.33"/>
<polygon fill="#63b8ff" stroke="#63b8ff" points="777.83,-124.05 770.71,-131.89 781.17,-130.2 777.83,-124.05"/>
</a>
</g>
</g>
<!-- Node17 -->
<g id="Node000017" class="node">
<title>Node17</title>
<g id="a_Node000017"><a xlink:href="when__any_8cpp.html" target="_top" xlink:title=" ">
<polygon fill="white" stroke="#666666" points="1015.38,-30.5 915.38,-30.5 915.38,0 1015.38,0 1015.38,-30.5"/>
<text text-anchor="start" x="923.38" y="-17" font-family="Helvetica,sans-Serif" font-size="10.00">test/example/async</text>
<text text-anchor="middle" x="965.38" y="-5.75" font-family="Helvetica,sans-Serif" font-size="10.00">/when_any.cpp</text>
</a>
</g>
</g>
<!-- Node16&#45;&gt;Node17 -->
<g id="edge17_Node000016_Node000017" class="edge">
<title>Node16&#45;&gt;Node17</title>
<g id="a_edge17_Node000016_Node000017"><a xlink:title=" ">
<path fill="none" stroke="#63b8ff" d="M894.65,-60.11C910.03,-50.58 927.92,-39.48 941.87,-30.83"/>
<polygon fill="#63b8ff" stroke="#63b8ff" points="892.91,-57.07 886.26,-65.32 896.6,-63.02 892.91,-57.07"/>
</a>
</g>
</g>
<!-- Node19&#45;&gt;Node10 -->
<g id="edge22_Node000019_Node000010" class="edge">
<title>Node19&#45;&gt;Node10</title>
<g id="a_edge22_Node000019_Node000010"><a xlink:title=" ">
<path fill="none" stroke="#63b8ff" d="M991.08,-199.16C769.47,-166.41 707.47,-197.51 488.38,-163.5 485.56,-163.06 482.69,-162.56 479.8,-162.01"/>
<polygon fill="#63b8ff" stroke="#63b8ff" points="990.54,-202.62 1000.95,-200.65 991.58,-195.69 990.54,-202.62"/>
</a>
</g>
</g>
<!-- Node19&#45;&gt;Node14 -->
<g id="edge23_Node000019_Node000014" class="edge">
<title>Node19&#45;&gt;Node14</title>
<g id="a_edge23_Node000019_Node000014"><a xlink:title=" ">
<path fill="none" stroke="#63b8ff" d="M1035.24,-191.01C1004.83,-155.13 946.45,-87.28 922.38,-66.5 906.69,-52.96 887.16,-40.12 871.82,-30.81"/>
<polygon fill="#63b8ff" stroke="#63b8ff" points="1032.23,-192.87 1041.35,-198.25 1037.57,-188.35 1032.23,-192.87"/>
</a>
</g>
</g>
<!-- Node19&#45;&gt;Node17 -->
<g id="edge24_Node000019_Node000017" class="edge">
<title>Node19&#45;&gt;Node17</title>
<g id="a_edge24_Node000019_Node000017"><a xlink:title=" ">
<path fill="none" stroke="#63b8ff" d="M1043.15,-188.85C1024.34,-147.1 987.01,-64.27 971.93,-30.79"/>
<polygon fill="#63b8ff" stroke="#63b8ff" points="1039.91,-190.17 1047.21,-197.85 1046.29,-187.29 1039.91,-190.17"/>
</a>
</g>
</g>
<!-- Node20&#45;&gt;Node3 -->
<g id="edge27_Node000020_Node000003" class="edge">
<title>Node20&#45;&gt;Node3</title>
<g id="a_edge27_Node000020_Node000003"><a xlink:title=" ">
<path fill="none" stroke="#63b8ff" d="M1177.59,-241.63C1176.51,-249.79 1174.73,-258.52 1172.63,-265.61"/>
<polygon fill="#63b8ff" stroke="#63b8ff" points="1181.06,-242.12 1178.5,-231.84 1174.09,-241.47 1181.06,-242.12"/>
</a>
</g>
</g>
<!-- Node25&#45;&gt;Node23 -->
<g id="edge35_Node000025_Node000023" class="edge">
<title>Node25&#45;&gt;Node23</title>
<g id="a_edge35_Node000025_Node000023"><a xlink:title=" ">
<path fill="none" stroke="#63b8ff" d="M1596.43,-125.79C1583.82,-116.44 1569.37,-105.73 1558.04,-97.33"/>
<polygon fill="#63b8ff" stroke="#63b8ff" points="1594.3,-128.57 1604.42,-131.71 1598.47,-122.95 1594.3,-128.57"/>
</a>
</g>
</g>
<!-- Node26&#45;&gt;Node24 -->
<g id="edge37_Node000026_Node000024" class="edge">
<title>Node26&#45;&gt;Node24</title>
<g id="a_edge37_Node000026_Node000024"><a xlink:title=" ">
<path fill="none" stroke="#63b8ff" d="M1747.08,-125.52C1735.43,-116.23 1722.13,-105.65 1711.68,-97.33"/>
<polygon fill="#63b8ff" stroke="#63b8ff" points="1744.81,-128.18 1754.81,-131.67 1749.17,-122.7 1744.81,-128.18"/>
</a>
</g>
</g>
<!-- Node28&#45;&gt;Node25 -->
<g id="edge40_Node000028_Node000025" class="edge">
<title>Node28&#45;&gt;Node25</title>
<g id="a_edge40_Node000028_Node000025"><a xlink:title=" ">
<path fill="none" stroke="#63b8ff" d="M1851.86,-200.51C1803.9,-189.65 1736.21,-174.33 1687.34,-163.27"/>
<polygon fill="#63b8ff" stroke="#63b8ff" points="1850.99,-203.9 1861.52,-202.69 1852.54,-197.07 1850.99,-203.9"/>
</a>
</g>
</g>
<!-- Node28&#45;&gt;Node26 -->
<g id="edge41_Node000028_Node000026" class="edge">
<title>Node28&#45;&gt;Node26</title>
<g id="a_edge41_Node000028_Node000026"><a xlink:title=" ">
<path fill="none" stroke="#63b8ff" d="M1869.15,-194.2C1848.55,-184.43 1824.04,-172.81 1805.11,-163.83"/>
<polygon fill="#63b8ff" stroke="#63b8ff" points="1867.61,-197.34 1878.15,-198.47 1870.61,-191.02 1867.61,-197.34"/>
</a>
</g>
</g>
<!-- Node28&#45;&gt;Node27 -->
<g id="edge42_Node000028_Node000027" class="edge">
<title>Node28&#45;&gt;Node27</title>
<g id="a_edge42_Node000028_Node000027"><a xlink:title=" ">
<path fill="none" stroke="#63b8ff" d="M1910.38,-187.81C1910.38,-179.64 1910.38,-170.91 1910.38,-163.83"/>
<polygon fill="#63b8ff" stroke="#63b8ff" points="1906.88,-187.6 1910.38,-197.6 1913.88,-187.6 1906.88,-187.6"/>
</a>
</g>
</g>
<!-- Node29 -->
<g id="Node000029" class="node">
<title>Node29</title>
<g id="a_Node000029"><a xlink:href="coro_2task_8hpp.html" target="_top" xlink:title=" ">
<polygon fill="white" stroke="#666666" points="2072.5,-163.5 1976.25,-163.5 1976.25,-133 2072.5,-133 2072.5,-163.5"/>
<text text-anchor="start" x="1984.25" y="-150" font-family="Helvetica,sans-Serif" font-size="10.00">include/yaclib/coro</text>
<text text-anchor="middle" x="2024.38" y="-138.75" font-family="Helvetica,sans-Serif" font-size="10.00">/task.hpp</text>
</a>
</g>
</g>
<!-- Node28&#45;&gt;Node29 -->
<g id="edge43_Node000028_Node000029" class="edge">
<title>Node28&#45;&gt;Node29</title>
<g id="a_edge43_Node000028_Node000029"><a xlink:title=" ">
<path fill="none" stroke="#63b8ff" d="M1945.89,-193.66C1962.95,-184 1983.03,-172.64 1998.61,-163.83"/>
<polygon fill="#63b8ff" stroke="#63b8ff" points="1944.54,-190.4 1937.56,-198.37 1947.99,-196.49 1944.54,-190.4"/>
</a>
</g>
</g>
<!-- Node30 -->
<g id="Node000030" class="node">
<title>Node30</title>
<g id="a_Node000030"><a xlink:href="lazy_2make_8hpp.html" target="_top" xlink:title=" ">
<polygon fill="white" stroke="#666666" points="2184.38,-97 2090.38,-97 2090.38,-66.5 2184.38,-66.5 2184.38,-97"/>
<text text-anchor="start" x="2098.38" y="-83.5" font-family="Helvetica,sans-Serif" font-size="10.00">include/yaclib/lazy</text>
<text text-anchor="middle" x="2137.38" y="-72.25" font-family="Helvetica,sans-Serif" font-size="10.00">/make.hpp</text>
</a>
</g>
</g>
<!-- Node28&#45;&gt;Node30 -->
<g id="edge44_Node000028_Node000030" class="edge">
<title>Node28&#45;&gt;Node30</title>
<g id="a_edge44_Node000028_Node000030"><a xlink:title=" ">
<path fill="none" stroke="#63b8ff" d="M1968.76,-206.59C2004,-199.97 2048.32,-187.36 2081.38,-163.5 2105.31,-146.23 2122.47,-115.42 2131.08,-97.26"/>
<polygon fill="#63b8ff" stroke="#63b8ff" points="1968.4,-203.1 1959.16,-208.27 1969.61,-209.99 1968.4,-203.1"/>
</a>
</g>
</g>
<!-- Node31 -->
<g id="Node000031" class="node">
<title>Node31</title>
<g id="a_Node000031"><a xlink:href="schedule_8hpp.html" target="_top" xlink:title=" ">
<polygon fill="white" stroke="#666666" points="2222.38,-163.5 2128.38,-163.5 2128.38,-133 2222.38,-133 2222.38,-163.5"/>
<text text-anchor="start" x="2136.38" y="-150" font-family="Helvetica,sans-Serif" font-size="10.00">include/yaclib/lazy</text>
<text text-anchor="middle" x="2175.38" y="-138.75" font-family="Helvetica,sans-Serif" font-size="10.00">/schedule.hpp</text>
</a>
</g>
</g>
<!-- Node28&#45;&gt;Node31 -->
<g id="edge45_Node000028_Node000031" class="edge">
<title>Node28&#45;&gt;Node31</title>
<g id="a_edge45_Node000028_Node000031"><a xlink:title=" ">
<path fill="none" stroke="#63b8ff" d="M1968.87,-199.51C2016.68,-187.87 2083.43,-171.63 2127.96,-160.79"/>
<polygon fill="#63b8ff" stroke="#63b8ff" points="1968.11,-196.1 1959.22,-201.86 1969.77,-202.9 1968.11,-196.1"/>
</a>
</g>
</g>
<!-- Node32 -->
<g id="Node000032" class="node">
<title>Node32</title>
<g id="a_Node000032"><a xlink:href="task__impl_8cpp.html" target="_top" xlink:title=" ">
<polygon fill="white" stroke="#666666" points="2352.38,-157.88 2240.38,-157.88 2240.38,-138.62 2352.38,-138.62 2352.38,-157.88"/>
<text text-anchor="middle" x="2296.38" y="-144.38" font-family="Helvetica,sans-Serif" font-size="10.00">src/lazy/task_impl.cpp</text>
</a>
</g>
</g>
<!-- Node28&#45;&gt;Node32 -->
<g id="edge47_Node000028_Node000032" class="edge">
<title>Node28&#45;&gt;Node32</title>
<g id="a_edge47_Node000028_Node000032"><a xlink:title=" ">
<path fill="none" stroke="#63b8ff" d="M1969,-205.66C2033.49,-196.51 2140.11,-180.63 2231.38,-163.5 2239.55,-161.97 2248.27,-160.17 2256.58,-158.37"/>
<polygon fill="#63b8ff" stroke="#63b8ff" points="1968.76,-202.16 1959.35,-207.02 1969.74,-209.09 1968.76,-202.16"/>
</a>
</g>
</g>
<!-- Node31&#45;&gt;Node30 -->
<g id="edge46_Node000031_Node000030" class="edge">
<title>Node31&#45;&gt;Node30</title>
<g id="a_edge46_Node000031_Node000030"><a xlink:title=" ">
<path fill="none" stroke="#63b8ff" d="M2160.93,-122.73C2155.88,-114.16 2150.38,-104.82 2145.96,-97.33"/>
<polygon fill="#63b8ff" stroke="#63b8ff" points="2157.89,-124.47 2165.98,-131.31 2163.92,-120.92 2157.89,-124.47"/>
</a>
</g>
</g>
<!-- Node35&#45;&gt;Node19 -->
<g id="edge53_Node000035_Node000019" class="edge">
<title>Node35&#45;&gt;Node19</title>
<g id="a_edge53_Node000035_Node000019"><a xlink:title=" ">
<path fill="none" stroke="#63b8ff" d="M1360.17,-265.69C1251.16,-247.14 1220.86,-249.97 1115.38,-230 1112.38,-229.43 1109.32,-228.82 1106.23,-228.18"/>
<polygon fill="#63b8ff" stroke="#63b8ff" points="1359.39,-269.1 1369.84,-267.36 1360.58,-262.21 1359.39,-269.1"/>
</a>
</g>
</g>
<!-- Node35&#45;&gt;Node28 -->
<g id="edge54_Node000035_Node000028" class="edge">
<title>Node35&#45;&gt;Node28</title>
<g id="a_edge54_Node000035_Node000028"><a xlink:title=" ">
<path fill="none" stroke="#63b8ff" d="M1504.6,-271.11C1581.44,-261.3 1706.56,-245.09 1814.38,-230 1830.23,-227.78 1847.53,-225.25 1863.03,-222.94"/>
<polygon fill="#63b8ff" stroke="#63b8ff" points="1504.59,-267.58 1495.12,-272.32 1505.48,-274.53 1504.59,-267.58"/>
</a>
</g>
</g>
</g>
</svg>
