<?xml version="1.0" encoding="UTF-8" standalone="no"?>
<!DOCTYPE svg PUBLIC "-//W3C//DTD SVG 1.1//EN"
 "http://www.w3.org/Graphics/SVG/1.1/DTD/svg11.dtd">
<!-- Generated by graphviz version 9.0.0 (20230911.1827)
 -->
<!-- Title: include/yaclib/algo/detail/func_core.hpp Pages: 1 -->
<svg width="326pt" height="94pt"
 viewBox="0.00 0.00 325.88 93.75" xmlns="http://www.w3.org/2000/svg" xmlns:xlink="http://www.w3.org/1999/xlink">
<g id="graph0" class="graph" transform="scale(1 1) rotate(0) translate(4 89.75)">
<title>include/yaclib/algo/detail/func_core.hpp</title>
<!-- Node1 -->
<g id="Node000001" class="node">
<title>Node1</title>
<g id="a_Node000001"><a xlink:title=" ">
<polygon fill="#999999" stroke="#666666" points="239.62,-85.75 133.62,-85.75 133.62,-55.25 239.62,-55.25 239.62,-85.75"/>
<text text-anchor="start" x="141.62" y="-72.25" font-family="Helvetica,sans-Serif" font-size="10.00">include/yaclib/algo</text>
<text text-anchor="middle" x="186.62" y="-61" font-family="Helvetica,sans-Serif" font-size="10.00">/detail/func_core.hpp</text>
</a>
</g>
</g>
<!-- Node2 -->
<g id="Node000002" class="node">
<title>Node2</title>
<g id="a_Node000002"><a xlink:title=" ">
<polygon fill="#e0e0e0" stroke="#999999" points="87.25,-19.25 0,-19.25 0,0 87.25,0 87.25,-19.25"/>
<text text-anchor="middle" x="43.62" y="-5.75" font-family="Helvetica,sans-Serif" font-size="10.00">yaclib/config.hpp</text>
</a>
</g>
</g>
<!-- Node1&#45;&gt;Node2 -->
<g id="edge1_Node000001_Node000002" class="edge">
<title>Node1&#45;&gt;Node2</title>
<g id="a_edge1_Node000001_Node000002"><a xlink:title=" ">
<path fill="none" stroke="#63b8ff" d="M150.91,-54.8C127.98,-45.35 98.44,-33.19 76.16,-24.02"/>
<polygon fill="#63b8ff" stroke="#63b8ff" points="77.53,-20.8 66.95,-20.23 74.87,-27.27 77.53,-20.8"/>
</a>
</g>
</g>
<!-- Node3 -->
<g id="Node000003" class="node">
<title>Node3</title>
<g id="a_Node000003"><a xlink:href="fwd_8hpp.html" target="_top" xlink:title=" ">
<polygon fill="white" stroke="#666666" points="182.38,-19.25 104.88,-19.25 104.88,0 182.38,0 182.38,-19.25"/>
<text text-anchor="middle" x="143.62" y="-5.75" font-family="Helvetica,sans-Serif" font-size="10.00">yaclib/fwd.hpp</text>
</a>
</g>
</g>
<!-- Node1&#45;&gt;Node3 -->
<g id="edge2_Node000001_Node000003" class="edge">
<title>Node1&#45;&gt;Node3</title>
<g id="a_edge2_Node000001_Node000003"><a xlink:title=" ">
<path fill="none" stroke="#63b8ff" d="M176,-54.95C170.27,-47.1 163.14,-37.35 157.03,-28.99"/>
<polygon fill="#63b8ff" stroke="#63b8ff" points="159.87,-26.93 151.15,-20.92 154.22,-31.06 159.87,-26.93"/>
</a>
</g>
</g>
<!-- Node4 -->
<g id="Node000004" class="node">
<title>Node4</title>
<g id="a_Node000004"><a xlink:title=" ">
<polygon fill="#e0e0e0" stroke="#999999" points="261.12,-19.25 200.12,-19.25 200.12,0 261.12,0 261.12,-19.25"/>
<text text-anchor="middle" x="230.62" y="-5.75" font-family="Helvetica,sans-Serif" font-size="10.00">type_traits</text>
</a>
</g>
</g>
<!-- Node1&#45;&gt;Node4 -->
<g id="edge3_Node000001_Node000004" class="edge">
<title>Node1&#45;&gt;Node4</title>
<g id="a_edge3_Node000001_Node000004"><a xlink:title=" ">
<path fill="none" stroke="#63b8ff" d="M197.5,-54.95C203.43,-47.02 210.82,-37.13 217.11,-28.71"/>
<polygon fill="#63b8ff" stroke="#63b8ff" points="219.75,-31.02 222.94,-20.91 214.15,-26.83 219.75,-31.02"/>
</a>
</g>
</g>
<!-- Node5 -->
<g id="Node000005" class="node">
<title>Node5</title>
<g id="a_Node000005"><a xlink:title=" ">
<polygon fill="#e0e0e0" stroke="#999999" points="317.88,-19.25 279.38,-19.25 279.38,0 317.88,0 317.88,-19.25"/>
<text text-anchor="middle" x="298.62" y="-5.75" font-family="Helvetica,sans-Serif" font-size="10.00">utility</text>
</a>
</g>
</g>
<!-- Node1&#45;&gt;Node5 -->
<g id="edge4_Node000001_Node000005" class="edge">
<title>Node1&#45;&gt;Node5</title>
<g id="a_edge4_Node000001_Node000005"><a xlink:title=" ">
<path fill="none" stroke="#63b8ff" d="M214.6,-54.8C231.98,-45.66 254.22,-33.97 271.45,-24.91"/>
<polygon fill="#63b8ff" stroke="#63b8ff" points="272.89,-28.11 280.11,-20.36 269.63,-21.91 272.89,-28.11"/>
</a>
</g>
</g>
</g>
</svg>
