<?xml version="1.0" encoding="UTF-8" standalone="no"?>
<!DOCTYPE svg PUBLIC "-//W3C//DTD SVG 1.1//EN"
 "http://www.w3.org/Graphics/SVG/1.1/DTD/svg11.dtd">
<!-- Generated by graphviz version 3.0.0 (20220413.0242)
 -->
<!-- Title: include/yaclib/coroutine/future_traits.hpp Pages: 1 -->
<svg width="1428pt" height="676pt"
 viewBox="0.00 0.00 1427.50 676.00" xmlns="http://www.w3.org/2000/svg" xmlns:xlink="http://www.w3.org/1999/xlink">
<g id="graph0" class="graph" transform="scale(1 1) rotate(0) translate(4 672)">
<title>include/yaclib/coroutine/future_traits.hpp</title>
<!-- Node1 -->
<g id="node1" class="node">
<title>Node1</title>
<g id="a_node1"><a xlink:title=" ">
<polygon fill="#bfbfbf" stroke="black" points="945.5,-637.5 945.5,-667.5 1063.5,-667.5 1063.5,-637.5 945.5,-637.5"/>
<text text-anchor="start" x="953.5" y="-655.5" font-family="Helvetica,sans-Serif" font-size="10.00">include/yaclib/coroutine</text>
<text text-anchor="middle" x="1004.5" y="-644.5" font-family="Helvetica,sans-Serif" font-size="10.00">/future_traits.hpp</text>
</a>
</g>
</g>
<!-- Node2 -->
<g id="node2" class="node">
<title>Node2</title>
<g id="a_node2"><a xlink:href="future_8hpp.html" target="_top" xlink:title=" ">
<polygon fill="none" stroke="black" points="1003.5,-581.5 1003.5,-600.5 1119.5,-600.5 1119.5,-581.5 1003.5,-581.5"/>
<text text-anchor="middle" x="1061.5" y="-588.5" font-family="Helvetica,sans-Serif" font-size="10.00">yaclib/async/future.hpp</text>
</a>
</g>
</g>
<!-- Node1&#45;&gt;Node2 -->
<g id="edge1" class="edge">
<title>Node1&#45;&gt;Node2</title>
<path fill="none" stroke="midnightblue" d="M1018.01,-637.4C1026.46,-628.58 1037.38,-617.18 1046.16,-608.02"/>
<polygon fill="midnightblue" stroke="midnightblue" points="1048.82,-610.3 1053.21,-600.66 1043.76,-605.46 1048.82,-610.3"/>
</g>
<!-- Node42 -->
<g id="node42" class="node">
<title>Node42</title>
<g id="a_node42"><a xlink:href="promise__type_8hpp.html" target="_top" xlink:title=" ">
<polygon fill="none" stroke="black" points="892.5,-447.5 892.5,-477.5 1002.5,-477.5 1002.5,-447.5 892.5,-447.5"/>
<text text-anchor="start" x="900.5" y="-465.5" font-family="Helvetica,sans-Serif" font-size="10.00">yaclib/coroutine/detail</text>
<text text-anchor="middle" x="947.5" y="-454.5" font-family="Helvetica,sans-Serif" font-size="10.00">/promise_type.hpp</text>
</a>
</g>
</g>
<!-- Node1&#45;&gt;Node42 -->
<g id="edge77" class="edge">
<title>Node1&#45;&gt;Node42</title>
<path fill="none" stroke="midnightblue" d="M1000.22,-637.37C990.5,-605.31 966.68,-526.77 954.67,-487.16"/>
<polygon fill="midnightblue" stroke="midnightblue" points="958.01,-486.09 951.76,-477.54 951.31,-488.12 958.01,-486.09"/>
</g>
<!-- Node3 -->
<g id="node3" class="node">
<title>Node3</title>
<g id="a_node3"><a xlink:href="result__core_8hpp.html" target="_top" xlink:title=" ">
<polygon fill="none" stroke="black" points="899.5,-380.5 899.5,-410.5 995.5,-410.5 995.5,-380.5 899.5,-380.5"/>
<text text-anchor="start" x="907.5" y="-398.5" font-family="Helvetica,sans-Serif" font-size="10.00">yaclib/async/detail</text>
<text text-anchor="middle" x="947.5" y="-387.5" font-family="Helvetica,sans-Serif" font-size="10.00">/result_core.hpp</text>
</a>
</g>
</g>
<!-- Node2&#45;&gt;Node3 -->
<g id="edge2" class="edge">
<title>Node2&#45;&gt;Node3</title>
<path fill="none" stroke="midnightblue" d="M1060.18,-581.16C1056.29,-557.46 1043.11,-491.32 1011.5,-447 1003.12,-435.25 991.25,-424.84 980.02,-416.58"/>
<polygon fill="midnightblue" stroke="midnightblue" points="981.81,-413.56 971.61,-410.69 977.79,-419.29 981.81,-413.56"/>
</g>
<!-- Node14 -->
<g id="node14" class="node">
<title>Node14</title>
<g id="a_node14"><a xlink:href="executor_8hpp.html" target="_top" xlink:title=" ">
<polygon fill="none" stroke="black" points="780,-252 780,-271 919,-271 919,-252 780,-252"/>
<text text-anchor="middle" x="849.5" y="-259" font-family="Helvetica,sans-Serif" font-size="10.00">yaclib/executor/executor.hpp</text>
</a>
</g>
</g>
<!-- Node2&#45;&gt;Node14 -->
<g id="edge37" class="edge">
<title>Node2&#45;&gt;Node14</title>
<path fill="none" stroke="midnightblue" d="M1062.58,-581.46C1064.14,-567.28 1066.33,-538.06 1061.5,-514 1048.77,-450.54 1044.45,-430.92 1004.5,-380 967.73,-333.13 908.03,-295.06 874.46,-275.92"/>
<polygon fill="midnightblue" stroke="midnightblue" points="876.17,-272.86 865.73,-271.03 872.75,-278.97 876.17,-272.86"/>
</g>
<!-- Node21 -->
<g id="node21" class="node">
<title>Node21</title>
<g id="a_node21"><a xlink:href="type__traits_8hpp.html" target="_top" xlink:title=" ">
<polygon fill="none" stroke="black" points="1166,-252 1166,-271 1289,-271 1289,-252 1166,-252"/>
<text text-anchor="middle" x="1227.5" y="-259" font-family="Helvetica,sans-Serif" font-size="10.00">yaclib/util/type_traits.hpp</text>
</a>
</g>
</g>
<!-- Node2&#45;&gt;Node21 -->
<g id="edge48" class="edge">
<title>Node2&#45;&gt;Node21</title>
<path fill="none" stroke="midnightblue" d="M1119.82,-581.73C1221.26,-565.68 1419.5,-526.29 1419.5,-463.5 1419.5,-463.5 1419.5,-463.5 1419.5,-394.5 1419.5,-325.62 1334.56,-289.97 1277.67,-273.82"/>
<polygon fill="midnightblue" stroke="midnightblue" points="1278.32,-270.37 1267.75,-271.12 1276.48,-277.12 1278.32,-270.37"/>
</g>
<!-- Node26 -->
<g id="node26" class="node">
<title>Node26</title>
<g id="a_node26"><a xlink:href="helper_8hpp.html" target="_top" xlink:title=" ">
<polygon fill="none" stroke="black" points="92.5,-453 92.5,-472 196.5,-472 196.5,-453 92.5,-453"/>
<text text-anchor="middle" x="144.5" y="-460" font-family="Helvetica,sans-Serif" font-size="10.00">yaclib/util/helper.hpp</text>
</a>
</g>
</g>
<!-- Node2&#45;&gt;Node26 -->
<g id="edge38" class="edge">
<title>Node2&#45;&gt;Node26</title>
<path fill="none" stroke="midnightblue" d="M1003.31,-584.48C864.53,-570.87 503.45,-532.75 205.5,-478 199.67,-476.93 193.56,-475.66 187.55,-474.32"/>
<polygon fill="midnightblue" stroke="midnightblue" points="188.14,-470.86 177.61,-472.03 186.57,-477.68 188.14,-470.86"/>
</g>
<!-- Node31 -->
<g id="node31" class="node">
<title>Node31</title>
<g id="a_node31"><a xlink:href="future__impl_8hpp.html" target="_top" xlink:title=" ">
<polygon fill="none" stroke="black" points="1127.5,-514.5 1127.5,-544.5 1223.5,-544.5 1223.5,-514.5 1127.5,-514.5"/>
<text text-anchor="start" x="1135.5" y="-532.5" font-family="Helvetica,sans-Serif" font-size="10.00">yaclib/async/detail</text>
<text text-anchor="middle" x="1175.5" y="-521.5" font-family="Helvetica,sans-Serif" font-size="10.00">/future_impl.hpp</text>
</a>
</g>
</g>
<!-- Node2&#45;&gt;Node31 -->
<g id="edge49" class="edge">
<title>Node2&#45;&gt;Node31</title>
<path fill="none" stroke="midnightblue" d="M1077.83,-581.48C1093.92,-573.08 1119.03,-559.97 1139.76,-549.15"/>
<polygon fill="midnightblue" stroke="midnightblue" points="1141.39,-552.25 1148.63,-544.52 1138.15,-546.05 1141.39,-552.25"/>
</g>
<!-- Node4 -->
<g id="node4" class="node">
<title>Node4</title>
<g id="a_node4"><a xlink:href="base__core_8hpp.html" target="_top" xlink:title=" ">
<polygon fill="none" stroke="black" points="709.5,-313.5 709.5,-343.5 805.5,-343.5 805.5,-313.5 709.5,-313.5"/>
<text text-anchor="start" x="717.5" y="-331.5" font-family="Helvetica,sans-Serif" font-size="10.00">yaclib/async/detail</text>
<text text-anchor="middle" x="757.5" y="-320.5" font-family="Helvetica,sans-Serif" font-size="10.00">/base_core.hpp</text>
</a>
</g>
</g>
<!-- Node3&#45;&gt;Node4 -->
<g id="edge3" class="edge">
<title>Node3&#45;&gt;Node4</title>
<path fill="none" stroke="midnightblue" d="M906.27,-380.4C877.52,-370.56 838.96,-357.37 808.3,-346.88"/>
<polygon fill="midnightblue" stroke="midnightblue" points="809.24,-343.5 798.65,-343.58 806.98,-350.13 809.24,-343.5"/>
</g>
<!-- Node5 -->
<g id="node5" class="node">
<title>Node5</title>
<g id="a_node5"><a xlink:href="inline__core_8hpp.html" target="_top" xlink:title=" ">
<polygon fill="none" stroke="black" points="627.5,-246.5 627.5,-276.5 723.5,-276.5 723.5,-246.5 627.5,-246.5"/>
<text text-anchor="start" x="635.5" y="-264.5" font-family="Helvetica,sans-Serif" font-size="10.00">yaclib/async/detail</text>
<text text-anchor="middle" x="675.5" y="-253.5" font-family="Helvetica,sans-Serif" font-size="10.00">/inline_core.hpp</text>
</a>
</g>
</g>
<!-- Node3&#45;&gt;Node5 -->
<g id="edge24" class="edge">
<title>Node3&#45;&gt;Node5</title>
<path fill="none" stroke="midnightblue" d="M933.91,-380.36C915.79,-362.28 881.98,-331.16 847.5,-313 811.79,-294.19 768.11,-281.48 733.71,-273.51"/>
<polygon fill="midnightblue" stroke="midnightblue" points="734.33,-270.07 723.81,-271.29 732.8,-276.9 734.33,-270.07"/>
</g>
<!-- Node11 -->
<g id="node11" class="node">
<title>Node11</title>
<g id="a_node11"><a xlink:title=" ">
<polygon fill="none" stroke="#bfbfbf" points="580,-56.5 580,-75.5 619,-75.5 619,-56.5 580,-56.5"/>
<text text-anchor="middle" x="599.5" y="-63.5" font-family="Helvetica,sans-Serif" font-size="10.00">utility</text>
</a>
</g>
</g>
<!-- Node3&#45;&gt;Node11 -->
<g id="edge36" class="edge">
<title>Node3&#45;&gt;Node11</title>
<path fill="none" stroke="midnightblue" d="M913.72,-380.38C893.67,-371.3 868.21,-358.5 847.5,-344 831.02,-332.46 832.46,-322.08 814.5,-313 735.45,-273.05 678.2,-342.42 618.5,-277 569.33,-223.12 585.19,-125.88 594.64,-85.43"/>
<polygon fill="midnightblue" stroke="midnightblue" points="598.07,-86.16 597.08,-75.61 591.27,-84.47 598.07,-86.16"/>
</g>
<!-- Node15 -->
<g id="node15" class="node">
<title>Node15</title>
<g id="a_node15"><a xlink:href="intrusive__ptr_8hpp.html" target="_top" xlink:title=" ">
<polygon fill="none" stroke="black" points="937,-179.5 937,-209.5 1034,-209.5 1034,-179.5 937,-179.5"/>
<text text-anchor="start" x="945" y="-197.5" font-family="Helvetica,sans-Serif" font-size="10.00">yaclib/util/intrusive</text>
<text text-anchor="middle" x="985.5" y="-186.5" font-family="Helvetica,sans-Serif" font-size="10.00">_ptr.hpp</text>
</a>
</g>
</g>
<!-- Node3&#45;&gt;Node15 -->
<g id="edge25" class="edge">
<title>Node3&#45;&gt;Node15</title>
<path fill="none" stroke="midnightblue" d="M956.12,-380.33C968.61,-358.88 991.15,-316.5 999.5,-277 1003.57,-257.76 999.27,-235.77 994.4,-219.49"/>
<polygon fill="midnightblue" stroke="midnightblue" points="997.63,-218.11 991.2,-209.7 990.98,-220.29 997.63,-218.11"/>
</g>
<!-- Node20 -->
<g id="node20" class="node">
<title>Node20</title>
<g id="a_node20"><a xlink:href="result_8hpp.html" target="_top" xlink:title=" ">
<polygon fill="none" stroke="black" points="1165.5,-319 1165.5,-338 1267.5,-338 1267.5,-319 1165.5,-319"/>
<text text-anchor="middle" x="1216.5" y="-326" font-family="Helvetica,sans-Serif" font-size="10.00">yaclib/util/result.hpp</text>
</a>
</g>
</g>
<!-- Node3&#45;&gt;Node20 -->
<g id="edge26" class="edge">
<title>Node3&#45;&gt;Node20</title>
<path fill="none" stroke="midnightblue" d="M995.59,-382.88C1045.4,-370.85 1122.61,-352.19 1171.31,-340.42"/>
<polygon fill="midnightblue" stroke="midnightblue" points="1172.35,-343.77 1181.25,-338.02 1170.71,-336.96 1172.35,-343.77"/>
</g>
<!-- Node4&#45;&gt;Node5 -->
<g id="edge4" class="edge">
<title>Node4&#45;&gt;Node5</title>
<path fill="none" stroke="midnightblue" d="M739.71,-313.4C728.42,-304.45 713.65,-292.74 701.11,-282.8"/>
<polygon fill="midnightblue" stroke="midnightblue" points="703.27,-280.05 693.26,-276.58 698.92,-285.53 703.27,-280.05"/>
</g>
<!-- Node9 -->
<g id="node9" class="node">
<title>Node9</title>
<g id="a_node9"><a xlink:href="ref_8hpp.html" target="_top" xlink:title=" ">
<polygon fill="none" stroke="black" points="457,-56.5 457,-75.5 546,-75.5 546,-56.5 457,-56.5"/>
<text text-anchor="middle" x="501.5" y="-63.5" font-family="Helvetica,sans-Serif" font-size="10.00">yaclib/util/ref.hpp</text>
</a>
</g>
</g>
<!-- Node4&#45;&gt;Node9 -->
<g id="edge22" class="edge">
<title>Node4&#45;&gt;Node9</title>
<path fill="none" stroke="midnightblue" d="M709.18,-318.24C664.95,-308.9 603.69,-293.54 585.5,-277 527.73,-224.47 509.03,-126.85 503.55,-85.88"/>
<polygon fill="midnightblue" stroke="midnightblue" points="507,-85.21 502.32,-75.7 500.05,-86.05 507,-85.21"/>
</g>
<!-- Node13 -->
<g id="node13" class="node">
<title>Node13</title>
<g id="a_node13"><a xlink:title=" ">
<polygon fill="none" stroke="#bfbfbf" points="268.5,-252 268.5,-271 356.5,-271 356.5,-252 268.5,-252"/>
<text text-anchor="middle" x="312.5" y="-259" font-family="Helvetica,sans-Serif" font-size="10.00">yaclib/config.hpp</text>
</a>
</g>
</g>
<!-- Node4&#45;&gt;Node13 -->
<g id="edge12" class="edge">
<title>Node4&#45;&gt;Node13</title>
<path fill="none" stroke="midnightblue" d="M709.41,-322.15C619.77,-312.04 430.34,-289.98 365.5,-277 360.72,-276.04 355.74,-274.89 350.83,-273.66"/>
<polygon fill="midnightblue" stroke="midnightblue" points="351.49,-270.22 340.93,-271.06 349.71,-276.99 351.49,-270.22"/>
</g>
<!-- Node4&#45;&gt;Node14 -->
<g id="edge13" class="edge">
<title>Node4&#45;&gt;Node14</title>
<path fill="none" stroke="midnightblue" d="M777.46,-313.4C792.75,-302.6 813.75,-287.76 829.14,-276.89"/>
<polygon fill="midnightblue" stroke="midnightblue" points="831.31,-279.64 837.46,-271.01 827.27,-273.92 831.31,-279.64"/>
</g>
<!-- Node4&#45;&gt;Node15 -->
<g id="edge21" class="edge">
<title>Node4&#45;&gt;Node15</title>
<path fill="none" stroke="midnightblue" d="M805.52,-322.04C842.05,-315.94 892.07,-303.22 928.5,-277 949.29,-262.04 965.12,-237.05 974.77,-218.68"/>
<polygon fill="midnightblue" stroke="midnightblue" points="978.01,-220.02 979.36,-209.51 971.75,-216.89 978.01,-220.02"/>
</g>
<!-- Node19 -->
<g id="node19" class="node">
<title>Node19</title>
<g id="a_node19"><a xlink:title=" ">
<polygon fill="none" stroke="#bfbfbf" points="441.5,-252 441.5,-271 533.5,-271 533.5,-252 441.5,-252"/>
<text text-anchor="middle" x="487.5" y="-259" font-family="Helvetica,sans-Serif" font-size="10.00">yaclib_std/atomic</text>
</a>
</g>
</g>
<!-- Node4&#45;&gt;Node19 -->
<g id="edge23" class="edge">
<title>Node4&#45;&gt;Node19</title>
<path fill="none" stroke="midnightblue" d="M709.12,-315.88C666.55,-305.66 602.91,-290.36 547.5,-277 542.74,-275.85 537.76,-274.65 532.8,-273.45"/>
<polygon fill="midnightblue" stroke="midnightblue" points="533.26,-269.96 522.71,-271.02 531.61,-276.77 533.26,-269.96"/>
</g>
<!-- Node6 -->
<g id="node6" class="node">
<title>Node6</title>
<g id="a_node6"><a xlink:href="job_8hpp.html" target="_top" xlink:title=" ">
<polygon fill="none" stroke="black" points="711,-185 711,-204 826,-204 826,-185 711,-185"/>
<text text-anchor="middle" x="768.5" y="-192" font-family="Helvetica,sans-Serif" font-size="10.00">yaclib/executor/job.hpp</text>
</a>
</g>
</g>
<!-- Node5&#45;&gt;Node6 -->
<g id="edge5" class="edge">
<title>Node5&#45;&gt;Node6</title>
<path fill="none" stroke="midnightblue" d="M695.68,-246.4C711.13,-235.6 732.36,-220.76 747.92,-209.89"/>
<polygon fill="midnightblue" stroke="midnightblue" points="750.14,-212.6 756.33,-204.01 746.13,-206.87 750.14,-212.6"/>
</g>
<!-- Node12 -->
<g id="node12" class="node">
<title>Node12</title>
<g id="a_node12"><a xlink:title=" ">
<polygon fill="none" stroke="#bfbfbf" points="646.5,-185 646.5,-204 692.5,-204 692.5,-185 646.5,-185"/>
<text text-anchor="middle" x="669.5" y="-192" font-family="Helvetica,sans-Serif" font-size="10.00">cstdint</text>
</a>
</g>
</g>
<!-- Node5&#45;&gt;Node12 -->
<g id="edge11" class="edge">
<title>Node5&#45;&gt;Node12</title>
<path fill="none" stroke="midnightblue" d="M674.2,-246.4C673.33,-236.96 672.17,-224.45 671.23,-214.19"/>
<polygon fill="midnightblue" stroke="midnightblue" points="674.71,-213.83 670.3,-204.19 667.74,-214.47 674.71,-213.83"/>
</g>
<!-- Node7 -->
<g id="node7" class="node">
<title>Node7</title>
<g id="a_node7"><a xlink:href="node_8hpp.html" target="_top" xlink:title=" ">
<polygon fill="none" stroke="black" points="743,-112.5 743,-142.5 826,-142.5 826,-112.5 743,-112.5"/>
<text text-anchor="start" x="751" y="-130.5" font-family="Helvetica,sans-Serif" font-size="10.00">yaclib/util/detail</text>
<text text-anchor="middle" x="784.5" y="-119.5" font-family="Helvetica,sans-Serif" font-size="10.00">/node.hpp</text>
</a>
</g>
</g>
<!-- Node6&#45;&gt;Node7 -->
<g id="edge6" class="edge">
<title>Node6&#45;&gt;Node7</title>
<path fill="none" stroke="midnightblue" d="M770.66,-184.73C772.7,-176.46 775.84,-163.66 778.62,-152.37"/>
<polygon fill="midnightblue" stroke="midnightblue" points="782.04,-153.14 781.03,-142.59 775.24,-151.46 782.04,-153.14"/>
</g>
<!-- Node8 -->
<g id="node8" class="node">
<title>Node8</title>
<g id="a_node8"><a xlink:href="func_8hpp.html" target="_top" xlink:title=" ">
<polygon fill="none" stroke="black" points="628,-118 628,-137 725,-137 725,-118 628,-118"/>
<text text-anchor="middle" x="676.5" y="-125" font-family="Helvetica,sans-Serif" font-size="10.00">yaclib/util/func.hpp</text>
</a>
</g>
</g>
<!-- Node6&#45;&gt;Node8 -->
<g id="edge7" class="edge">
<title>Node6&#45;&gt;Node8</title>
<path fill="none" stroke="midnightblue" d="M756.09,-184.73C740.92,-174.01 715.02,-155.72 696.9,-142.91"/>
<polygon fill="midnightblue" stroke="midnightblue" points="698.9,-140.04 688.71,-137.13 694.86,-145.76 698.9,-140.04"/>
</g>
<!-- Node8&#45;&gt;Node9 -->
<g id="edge8" class="edge">
<title>Node8&#45;&gt;Node9</title>
<path fill="none" stroke="midnightblue" d="M651.43,-117.98C621.15,-107.68 570.06,-90.31 536.06,-78.75"/>
<polygon fill="midnightblue" stroke="midnightblue" points="537.12,-75.41 526.53,-75.51 534.87,-82.04 537.12,-75.41"/>
</g>
<!-- Node10 -->
<g id="node10" class="node">
<title>Node10</title>
<g id="a_node10"><a xlink:title=" ">
<polygon fill="none" stroke="#bfbfbf" points="954.5,-56.5 954.5,-75.5 1016.5,-75.5 1016.5,-56.5 954.5,-56.5"/>
<text text-anchor="middle" x="985.5" y="-63.5" font-family="Helvetica,sans-Serif" font-size="10.00">type_traits</text>
</a>
</g>
</g>
<!-- Node8&#45;&gt;Node10 -->
<g id="edge9" class="edge">
<title>Node8&#45;&gt;Node10</title>
<path fill="none" stroke="midnightblue" d="M708.93,-117.98C717.24,-115.91 726.18,-113.78 734.5,-112 808.05,-96.23 894.54,-81.57 944.39,-73.49"/>
<polygon fill="midnightblue" stroke="midnightblue" points="945.14,-76.92 954.46,-71.87 944.03,-70.01 945.14,-76.92"/>
</g>
<!-- Node8&#45;&gt;Node11 -->
<g id="edge10" class="edge">
<title>Node8&#45;&gt;Node11</title>
<path fill="none" stroke="midnightblue" d="M665.47,-117.98C653.23,-108.52 633.27,-93.1 618.51,-81.69"/>
<polygon fill="midnightblue" stroke="midnightblue" points="620.56,-78.85 610.51,-75.51 616.28,-84.39 620.56,-78.85"/>
</g>
<!-- Node14&#45;&gt;Node6 -->
<g id="edge14" class="edge">
<title>Node14&#45;&gt;Node6</title>
<path fill="none" stroke="midnightblue" d="M838.58,-251.73C825.46,-241.21 803.24,-223.38 787.34,-210.62"/>
<polygon fill="midnightblue" stroke="midnightblue" points="789.24,-207.66 779.25,-204.13 784.86,-213.12 789.24,-207.66"/>
</g>
<!-- Node14&#45;&gt;Node15 -->
<g id="edge15" class="edge">
<title>Node14&#45;&gt;Node15</title>
<path fill="none" stroke="midnightblue" d="M867.56,-251.87C887.7,-242.24 920.87,-226.39 946.91,-213.94"/>
<polygon fill="midnightblue" stroke="midnightblue" points="948.64,-217 956.15,-209.53 945.62,-210.68 948.64,-217"/>
</g>
<!-- Node15&#45;&gt;Node9 -->
<g id="edge16" class="edge">
<title>Node15&#45;&gt;Node9</title>
<path fill="none" stroke="midnightblue" d="M936.99,-187.99C844.32,-177.29 648.71,-153.82 619.5,-143 580.57,-128.58 541.19,-99.69 519.2,-81.98"/>
<polygon fill="midnightblue" stroke="midnightblue" points="521.36,-79.22 511.41,-75.58 516.91,-84.63 521.36,-79.22"/>
</g>
<!-- Node15&#45;&gt;Node10 -->
<g id="edge17" class="edge">
<title>Node15&#45;&gt;Node10</title>
<path fill="none" stroke="midnightblue" d="M985.5,-179.48C985.5,-156.72 985.5,-111.7 985.5,-86.06"/>
<polygon fill="midnightblue" stroke="midnightblue" points="989,-85.79 985.5,-75.79 982,-85.79 989,-85.79"/>
</g>
<!-- Node16 -->
<g id="node16" class="node">
<title>Node16</title>
<g id="a_node16"><a xlink:href="intrusive__ptr__impl_8hpp.html" target="_top" xlink:title=" ">
<polygon fill="none" stroke="black" points="1102.5,-112.5 1102.5,-142.5 1216.5,-142.5 1216.5,-112.5 1102.5,-112.5"/>
<text text-anchor="start" x="1110.5" y="-130.5" font-family="Helvetica,sans-Serif" font-size="10.00">yaclib/util/detail</text>
<text text-anchor="middle" x="1159.5" y="-119.5" font-family="Helvetica,sans-Serif" font-size="10.00">/intrusive_ptr_impl.hpp</text>
</a>
</g>
</g>
<!-- Node15&#45;&gt;Node16 -->
<g id="edge18" class="edge">
<title>Node15&#45;&gt;Node16</title>
<path fill="none" stroke="midnightblue" d="M1023.26,-179.4C1049.36,-169.64 1084.29,-156.59 1112.25,-146.15"/>
<polygon fill="midnightblue" stroke="midnightblue" points="1113.68,-149.35 1121.82,-142.58 1111.23,-142.8 1113.68,-149.35"/>
</g>
<!-- Node17 -->
<g id="node17" class="node">
<title>Node17</title>
<g id="a_node17"><a xlink:href="log_8hpp.html" target="_top" xlink:title=" ">
<polygon fill="none" stroke="black" points="1233,-56.5 1233,-75.5 1308,-75.5 1308,-56.5 1233,-56.5"/>
<text text-anchor="middle" x="1270.5" y="-63.5" font-family="Helvetica,sans-Serif" font-size="10.00">yaclib/log.hpp</text>
</a>
</g>
</g>
<!-- Node16&#45;&gt;Node17 -->
<g id="edge19" class="edge">
<title>Node16&#45;&gt;Node17</title>
<path fill="none" stroke="midnightblue" d="M1185.81,-112.4C1203.76,-102.77 1227.42,-90.09 1245.17,-80.58"/>
<polygon fill="midnightblue" stroke="midnightblue" points="1247.19,-83.47 1254.35,-75.66 1243.88,-77.3 1247.19,-83.47"/>
</g>
<!-- Node18 -->
<g id="node18" class="node">
<title>Node18</title>
<g id="a_node18"><a xlink:title=" ">
<polygon fill="none" stroke="#bfbfbf" points="1237.5,-0.5 1237.5,-19.5 1303.5,-19.5 1303.5,-0.5 1237.5,-0.5"/>
<text text-anchor="middle" x="1270.5" y="-7.5" font-family="Helvetica,sans-Serif" font-size="10.00">string_view</text>
</a>
</g>
</g>
<!-- Node17&#45;&gt;Node18 -->
<g id="edge20" class="edge">
<title>Node17&#45;&gt;Node18</title>
<path fill="none" stroke="midnightblue" d="M1270.5,-56.08C1270.5,-49.01 1270.5,-38.86 1270.5,-29.99"/>
<polygon fill="midnightblue" stroke="midnightblue" points="1274,-29.75 1270.5,-19.75 1267,-29.75 1274,-29.75"/>
</g>
<!-- Node20&#45;&gt;Node21 -->
<g id="edge27" class="edge">
<title>Node20&#45;&gt;Node21</title>
<path fill="none" stroke="midnightblue" d="M1217.98,-318.73C1219.6,-309.18 1222.23,-293.62 1224.32,-281.28"/>
<polygon fill="midnightblue" stroke="midnightblue" points="1227.82,-281.57 1226.04,-271.13 1220.92,-280.4 1227.82,-281.57"/>
</g>
<!-- Node24 -->
<g id="node24" class="node">
<title>Node24</title>
<g id="a_node24"><a xlink:title=" ">
<polygon fill="none" stroke="#bfbfbf" points="1059.5,-185 1059.5,-204 1117.5,-204 1117.5,-185 1059.5,-185"/>
<text text-anchor="middle" x="1088.5" y="-192" font-family="Helvetica,sans-Serif" font-size="10.00">exception</text>
</a>
</g>
</g>
<!-- Node20&#45;&gt;Node24 -->
<g id="edge34" class="edge">
<title>Node20&#45;&gt;Node24</title>
<path fill="none" stroke="midnightblue" d="M1205.16,-318.7C1192.92,-308.99 1173.09,-292.68 1157.5,-277 1136.57,-255.96 1114.83,-229.36 1101.48,-212.38"/>
<polygon fill="midnightblue" stroke="midnightblue" points="1104.22,-210.2 1095.32,-204.47 1098.7,-214.51 1104.22,-210.2"/>
</g>
<!-- Node25 -->
<g id="node25" class="node">
<title>Node25</title>
<g id="a_node25"><a xlink:title=" ">
<polygon fill="none" stroke="#bfbfbf" points="1307.5,-252 1307.5,-271 1353.5,-271 1353.5,-252 1307.5,-252"/>
<text text-anchor="middle" x="1330.5" y="-259" font-family="Helvetica,sans-Serif" font-size="10.00">variant</text>
</a>
</g>
</g>
<!-- Node20&#45;&gt;Node25 -->
<g id="edge35" class="edge">
<title>Node20&#45;&gt;Node25</title>
<path fill="none" stroke="midnightblue" d="M1231.87,-318.73C1251.02,-307.82 1283.94,-289.05 1306.44,-276.22"/>
<polygon fill="midnightblue" stroke="midnightblue" points="1308.42,-279.12 1315.37,-271.13 1304.95,-273.04 1308.42,-279.12"/>
</g>
<!-- Node21&#45;&gt;Node10 -->
<g id="edge33" class="edge">
<title>Node21&#45;&gt;Node10</title>
<path fill="none" stroke="midnightblue" d="M1216.91,-251.91C1198.54,-237.02 1159.57,-205.47 1126.5,-179 1082.9,-144.09 1031.48,-103.36 1004.39,-81.93"/>
<polygon fill="midnightblue" stroke="midnightblue" points="1006.51,-79.14 996.49,-75.68 1002.17,-84.63 1006.51,-79.14"/>
</g>
<!-- Node22 -->
<g id="node22" class="node">
<title>Node22</title>
<g id="a_node22"><a xlink:href="fwd_8hpp.html" target="_top" xlink:title=" ">
<polygon fill="none" stroke="black" points="1272.5,-118 1272.5,-137 1350.5,-137 1350.5,-118 1272.5,-118"/>
<text text-anchor="middle" x="1311.5" y="-125" font-family="Helvetica,sans-Serif" font-size="10.00">yaclib/fwd.hpp</text>
</a>
</g>
</g>
<!-- Node21&#45;&gt;Node22 -->
<g id="edge28" class="edge">
<title>Node21&#45;&gt;Node22</title>
<path fill="none" stroke="midnightblue" d="M1244,-252C1258.97,-243.42 1280.48,-228.77 1292.5,-210 1304.78,-190.83 1309.14,-164.6 1310.68,-147.13"/>
<polygon fill="midnightblue" stroke="midnightblue" points="1314.18,-147.28 1311.34,-137.07 1307.2,-146.82 1314.18,-147.28"/>
</g>
<!-- Node23 -->
<g id="node23" class="node">
<title>Node23</title>
<g id="a_node23"><a xlink:href="type__traits__impl_8hpp.html" target="_top" xlink:title=" ">
<polygon fill="none" stroke="black" points="1177.5,-179.5 1177.5,-209.5 1283.5,-209.5 1283.5,-179.5 1177.5,-179.5"/>
<text text-anchor="start" x="1185.5" y="-197.5" font-family="Helvetica,sans-Serif" font-size="10.00">yaclib/util/detail</text>
<text text-anchor="middle" x="1230.5" y="-186.5" font-family="Helvetica,sans-Serif" font-size="10.00">/type_traits_impl.hpp</text>
</a>
</g>
</g>
<!-- Node21&#45;&gt;Node23 -->
<g id="edge29" class="edge">
<title>Node21&#45;&gt;Node23</title>
<path fill="none" stroke="midnightblue" d="M1227.9,-251.73C1228.28,-243.54 1228.87,-230.92 1229.38,-219.71"/>
<polygon fill="midnightblue" stroke="midnightblue" points="1232.88,-219.74 1229.85,-209.59 1225.89,-219.42 1232.88,-219.74"/>
</g>
<!-- Node21&#45;&gt;Node24 -->
<g id="edge32" class="edge">
<title>Node21&#45;&gt;Node24</title>
<path fill="none" stroke="midnightblue" d="M1209.04,-251.87C1185.26,-240.75 1143.71,-221.32 1116.15,-208.43"/>
<polygon fill="midnightblue" stroke="midnightblue" points="1117.58,-205.23 1107.03,-204.17 1114.61,-211.57 1117.58,-205.23"/>
</g>
<!-- Node23&#45;&gt;Node10 -->
<g id="edge31" class="edge">
<title>Node23&#45;&gt;Node10</title>
<path fill="none" stroke="midnightblue" d="M1234.31,-179.46C1238.27,-161.5 1241.83,-130.49 1225.5,-112 1199.84,-82.94 1088.32,-72.43 1026.74,-68.8"/>
<polygon fill="midnightblue" stroke="midnightblue" points="1026.75,-65.3 1016.58,-68.24 1026.37,-72.29 1026.75,-65.3"/>
</g>
<!-- Node23&#45;&gt;Node22 -->
<g id="edge30" class="edge">
<title>Node23&#45;&gt;Node22</title>
<path fill="none" stroke="midnightblue" d="M1248.08,-179.4C1261.21,-168.86 1279.13,-154.48 1292.57,-143.69"/>
<polygon fill="midnightblue" stroke="midnightblue" points="1295.06,-146.18 1300.67,-137.19 1290.68,-140.72 1295.06,-146.18"/>
</g>
<!-- Node26&#45;&gt;Node15 -->
<g id="edge47" class="edge">
<title>Node26&#45;&gt;Node15</title>
<path fill="none" stroke="midnightblue" d="M176.29,-452.96C185.64,-450.71 195.93,-448.5 205.5,-447 507.47,-399.61 621.25,-497.64 885.5,-344 923.01,-322.19 932.79,-313.34 956.5,-277 968.05,-259.29 975.67,-236.41 980.19,-219.41"/>
<polygon fill="midnightblue" stroke="midnightblue" points="983.59,-220.22 982.6,-209.67 976.8,-218.53 983.59,-220.22"/>
</g>
<!-- Node27 -->
<g id="node27" class="node">
<title>Node27</title>
<g id="a_node27"><a xlink:href="atomic__counter_8hpp.html" target="_top" xlink:title=" ">
<polygon fill="none" stroke="black" points="92.5,-313.5 92.5,-343.5 196.5,-343.5 196.5,-313.5 92.5,-313.5"/>
<text text-anchor="start" x="100.5" y="-331.5" font-family="Helvetica,sans-Serif" font-size="10.00">yaclib/util/detail</text>
<text text-anchor="middle" x="144.5" y="-320.5" font-family="Helvetica,sans-Serif" font-size="10.00">/atomic_counter.hpp</text>
</a>
</g>
</g>
<!-- Node26&#45;&gt;Node27 -->
<g id="edge39" class="edge">
<title>Node26&#45;&gt;Node27</title>
<path fill="none" stroke="midnightblue" d="M127.46,-452.96C112.76,-444.54 92.51,-430.16 83.5,-411 77.64,-398.53 77.64,-392.47 83.5,-380 89.23,-367.83 99.49,-357.58 109.98,-349.57"/>
<polygon fill="midnightblue" stroke="midnightblue" points="112.22,-352.27 118.36,-343.63 108.18,-346.56 112.22,-352.27"/>
</g>
<!-- Node30 -->
<g id="node30" class="node">
<title>Node30</title>
<g id="a_node30"><a xlink:href="unique__counter_8hpp.html" target="_top" xlink:title=" ">
<polygon fill="none" stroke="black" points="92.5,-380.5 92.5,-410.5 196.5,-410.5 196.5,-380.5 92.5,-380.5"/>
<text text-anchor="start" x="100.5" y="-398.5" font-family="Helvetica,sans-Serif" font-size="10.00">yaclib/util/detail</text>
<text text-anchor="middle" x="144.5" y="-387.5" font-family="Helvetica,sans-Serif" font-size="10.00">/unique_counter.hpp</text>
</a>
</g>
</g>
<!-- Node26&#45;&gt;Node30 -->
<g id="edge45" class="edge">
<title>Node26&#45;&gt;Node30</title>
<path fill="none" stroke="midnightblue" d="M144.5,-452.73C144.5,-444.54 144.5,-431.92 144.5,-420.71"/>
<polygon fill="midnightblue" stroke="midnightblue" points="148,-420.59 144.5,-410.59 141,-420.59 148,-420.59"/>
</g>
<!-- Node27&#45;&gt;Node11 -->
<g id="edge43" class="edge">
<title>Node27&#45;&gt;Node11</title>
<path fill="none" stroke="midnightblue" d="M166.79,-313.4C182.12,-303.53 202.82,-289.86 220.5,-277 238.4,-263.97 240.96,-258.1 259.5,-246 288.84,-226.86 498.97,-118.6 573.43,-80.37"/>
<polygon fill="midnightblue" stroke="midnightblue" points="575.31,-83.34 582.61,-75.66 572.11,-77.11 575.31,-83.34"/>
</g>
<!-- Node27&#45;&gt;Node13 -->
<g id="edge40" class="edge">
<title>Node27&#45;&gt;Node13</title>
<path fill="none" stroke="midnightblue" d="M180.95,-313.4C210.82,-301.84 252.65,-285.66 281.06,-274.66"/>
<polygon fill="midnightblue" stroke="midnightblue" points="282.45,-277.88 290.51,-271.01 279.92,-271.35 282.45,-277.88"/>
</g>
<!-- Node27&#45;&gt;Node19 -->
<g id="edge44" class="edge">
<title>Node27&#45;&gt;Node19</title>
<path fill="none" stroke="midnightblue" d="M196.52,-319.73C254.4,-310.77 350.56,-294.95 432.5,-277 437.25,-275.96 442.22,-274.78 447.13,-273.56"/>
<polygon fill="midnightblue" stroke="midnightblue" points="448.25,-276.88 457.06,-271.01 446.51,-270.1 448.25,-276.88"/>
</g>
<!-- Node28 -->
<g id="node28" class="node">
<title>Node28</title>
<g id="a_node28"><a xlink:href="default__deleter_8hpp.html" target="_top" xlink:title=" ">
<polygon fill="none" stroke="black" points="0,-246.5 0,-276.5 101,-276.5 101,-246.5 0,-246.5"/>
<text text-anchor="start" x="8" y="-264.5" font-family="Helvetica,sans-Serif" font-size="10.00">yaclib/util/detail</text>
<text text-anchor="middle" x="50.5" y="-253.5" font-family="Helvetica,sans-Serif" font-size="10.00">/default_deleter.hpp</text>
</a>
</g>
</g>
<!-- Node27&#45;&gt;Node28 -->
<g id="edge41" class="edge">
<title>Node27&#45;&gt;Node28</title>
<path fill="none" stroke="midnightblue" d="M124.1,-313.4C111.05,-304.37 93.9,-292.51 79.45,-282.52"/>
<polygon fill="midnightblue" stroke="midnightblue" points="81.07,-279.39 70.86,-276.58 77.09,-285.14 81.07,-279.39"/>
</g>
<!-- Node29 -->
<g id="node29" class="node">
<title>Node29</title>
<g id="a_node29"><a xlink:title=" ">
<polygon fill="none" stroke="#bfbfbf" points="374,-252 374,-271 423,-271 423,-252 374,-252"/>
<text text-anchor="middle" x="398.5" y="-259" font-family="Helvetica,sans-Serif" font-size="10.00">cstddef</text>
</a>
</g>
</g>
<!-- Node27&#45;&gt;Node29 -->
<g id="edge42" class="edge">
<title>Node27&#45;&gt;Node29</title>
<path fill="none" stroke="midnightblue" d="M196.61,-318.48C241.88,-309.97 308.89,-295.72 365.5,-277 367.37,-276.38 369.28,-275.7 371.19,-274.97"/>
<polygon fill="midnightblue" stroke="midnightblue" points="372.67,-278.15 380.59,-271.11 370.01,-271.67 372.67,-278.15"/>
</g>
<!-- Node30&#45;&gt;Node28 -->
<g id="edge46" class="edge">
<title>Node30&#45;&gt;Node28</title>
<path fill="none" stroke="midnightblue" d="M122.39,-380.32C109.62,-371.22 94.06,-358.42 83.5,-344 70.73,-326.56 61.99,-303.47 56.73,-286.33"/>
<polygon fill="midnightblue" stroke="midnightblue" points="60.03,-285.16 53.9,-276.52 53.31,-287.1 60.03,-285.16"/>
</g>
<!-- Node31&#45;&gt;Node17 -->
<g id="edge75" class="edge">
<title>Node31&#45;&gt;Node17</title>
<path fill="none" stroke="midnightblue" d="M1223.54,-519.73C1284.41,-505.52 1381.5,-471.15 1381.5,-396.5 1381.5,-396.5 1381.5,-396.5 1381.5,-193.5 1381.5,-155.98 1383.18,-141.1 1359.5,-112 1347.05,-96.7 1328.06,-86.11 1310.81,-79.06"/>
<polygon fill="midnightblue" stroke="midnightblue" points="1312.06,-75.79 1301.46,-75.51 1309.57,-82.33 1312.06,-75.79"/>
</g>
<!-- Node31&#45;&gt;Node20 -->
<g id="edge76" class="edge">
<title>Node31&#45;&gt;Node20</title>
<path fill="none" stroke="midnightblue" d="M1178.45,-514.19C1185.72,-478.91 1204.49,-387.78 1212.64,-348.25"/>
<polygon fill="midnightblue" stroke="midnightblue" points="1216.08,-348.86 1214.67,-338.36 1209.23,-347.45 1216.08,-348.86"/>
</g>
<!-- Node32 -->
<g id="node32" class="node">
<title>Node32</title>
<g id="a_node32"><a xlink:href="wait_8hpp.html" target="_top" xlink:title=" ">
<polygon fill="none" stroke="black" points="618,-453 618,-472 719,-472 719,-453 618,-453"/>
<text text-anchor="middle" x="668.5" y="-460" font-family="Helvetica,sans-Serif" font-size="10.00">yaclib/algo/wait.hpp</text>
</a>
</g>
</g>
<!-- Node31&#45;&gt;Node32 -->
<g id="edge50" class="edge">
<title>Node31&#45;&gt;Node32</title>
<path fill="none" stroke="midnightblue" d="M1127.35,-522.33C1034.62,-510.44 831.47,-484.39 729.47,-471.32"/>
<polygon fill="midnightblue" stroke="midnightblue" points="729.69,-467.82 719.33,-470.02 728.8,-474.76 729.69,-467.82"/>
</g>
<!-- Node41 -->
<g id="node41" class="node">
<title>Node41</title>
<g id="a_node41"><a xlink:href="core_8hpp.html" target="_top" xlink:title=" ">
<polygon fill="none" stroke="black" points="214.5,-447.5 214.5,-477.5 310.5,-477.5 310.5,-447.5 214.5,-447.5"/>
<text text-anchor="start" x="222.5" y="-465.5" font-family="Helvetica,sans-Serif" font-size="10.00">yaclib/async/detail</text>
<text text-anchor="middle" x="262.5" y="-454.5" font-family="Helvetica,sans-Serif" font-size="10.00">/core.hpp</text>
</a>
</g>
</g>
<!-- Node31&#45;&gt;Node41 -->
<g id="edge70" class="edge">
<title>Node31&#45;&gt;Node41</title>
<path fill="none" stroke="midnightblue" d="M1127.33,-524.35C1091.97,-521.35 1042.76,-517.26 999.5,-514 746.99,-494.95 445.57,-475.24 320.9,-467.23"/>
<polygon fill="midnightblue" stroke="midnightblue" points="321.01,-463.73 310.81,-466.58 320.56,-470.71 321.01,-463.73"/>
</g>
<!-- Node32&#45;&gt;Node2 -->
<g id="edge66" class="edge">
<title>Node32&#45;&gt;Node2</title>
<path fill="none" stroke="midnightblue" d="M719.01,-466.77C799.51,-472.72 952.62,-487.22 999.5,-514 1023.45,-527.68 1041.92,-554.48 1052.25,-572.32"/>
<polygon fill="midnightblue" stroke="midnightblue" points="1049.24,-574.1 1057.14,-581.17 1055.36,-570.72 1049.24,-574.1"/>
</g>
<!-- Node32&#45;&gt;Node13 -->
<g id="edge67" class="edge">
<title>Node32&#45;&gt;Node13</title>
<path fill="none" stroke="midnightblue" d="M617.91,-457.9C548.79,-452.03 429.62,-438.21 396.5,-411 360.28,-381.24 382.13,-352.88 357.5,-313 349.59,-300.2 338.33,-287.56 329.05,-278.13"/>
<polygon fill="midnightblue" stroke="midnightblue" points="331.42,-275.55 321.84,-271.03 326.51,-280.54 331.42,-275.55"/>
</g>
<!-- Node32&#45;&gt;Node29 -->
<g id="edge69" class="edge">
<title>Node32&#45;&gt;Node29</title>
<path fill="none" stroke="midnightblue" d="M670.17,-452.99C674.72,-427.03 684.27,-348.45 641.5,-313 568.93,-252.85 522.91,-303.67 432.5,-277 430.35,-276.37 428.15,-275.63 425.96,-274.84"/>
<polygon fill="midnightblue" stroke="midnightblue" points="427.15,-271.55 416.56,-271.12 424.57,-278.06 427.15,-271.55"/>
</g>
<!-- Node33 -->
<g id="node33" class="node">
<title>Node33</title>
<g id="a_node33"><a xlink:href="wait__impl_8hpp.html" target="_top" xlink:title=" ">
<polygon fill="none" stroke="black" points="568,-380.5 568,-410.5 657,-410.5 657,-380.5 568,-380.5"/>
<text text-anchor="start" x="576" y="-398.5" font-family="Helvetica,sans-Serif" font-size="10.00">yaclib/algo/detail</text>
<text text-anchor="middle" x="612.5" y="-387.5" font-family="Helvetica,sans-Serif" font-size="10.00">/wait_impl.hpp</text>
</a>
</g>
</g>
<!-- Node32&#45;&gt;Node33 -->
<g id="edge51" class="edge">
<title>Node32&#45;&gt;Node33</title>
<path fill="none" stroke="midnightblue" d="M660.95,-452.73C653.38,-443.95 641.43,-430.08 631.29,-418.31"/>
<polygon fill="midnightblue" stroke="midnightblue" points="633.82,-415.88 624.64,-410.59 628.51,-420.45 633.82,-415.88"/>
</g>
<!-- Node34 -->
<g id="node34" class="node">
<title>Node34</title>
<g id="a_node34"><a xlink:href="default__event_8hpp.html" target="_top" xlink:title=" ">
<polygon fill="none" stroke="black" points="252.5,-313.5 252.5,-343.5 348.5,-343.5 348.5,-313.5 252.5,-313.5"/>
<text text-anchor="start" x="260.5" y="-331.5" font-family="Helvetica,sans-Serif" font-size="10.00">yaclib/util/detail</text>
<text text-anchor="middle" x="300.5" y="-320.5" font-family="Helvetica,sans-Serif" font-size="10.00">/default_event.hpp</text>
</a>
</g>
</g>
<!-- Node32&#45;&gt;Node34 -->
<g id="edge68" class="edge">
<title>Node32&#45;&gt;Node34</title>
<path fill="none" stroke="midnightblue" d="M617.72,-457.67C542.18,-451.22 404.59,-436.35 362.5,-411 339.57,-397.19 322.17,-371.43 311.72,-352.56"/>
<polygon fill="midnightblue" stroke="midnightblue" points="314.79,-350.88 307.03,-343.67 308.6,-354.15 314.79,-350.88"/>
</g>
<!-- Node33&#45;&gt;Node4 -->
<g id="edge52" class="edge">
<title>Node33&#45;&gt;Node4</title>
<path fill="none" stroke="midnightblue" d="M643.96,-380.4C665.34,-370.81 693.81,-358.05 716.9,-347.7"/>
<polygon fill="midnightblue" stroke="midnightblue" points="718.41,-350.86 726.1,-343.58 715.54,-344.47 718.41,-350.86"/>
</g>
<!-- Node33&#45;&gt;Node10 -->
<g id="edge65" class="edge">
<title>Node33&#45;&gt;Node10</title>
<path fill="none" stroke="midnightblue" d="M657.29,-389.67C710.76,-382.88 795.37,-368.5 814.5,-344 822.98,-333.14 820.33,-325.48 814.5,-313 803.95,-290.42 782.05,-299.58 771.5,-277 765.67,-264.52 764.54,-257.89 771.5,-246 787.98,-217.83 809.26,-229.41 835.5,-210 890.02,-169.66 945.58,-111.2 971.09,-83.17"/>
<polygon fill="midnightblue" stroke="midnightblue" points="973.9,-85.27 978,-75.5 968.71,-80.58 973.9,-85.27"/>
</g>
<!-- Node33&#45;&gt;Node21 -->
<g id="edge62" class="edge">
<title>Node33&#45;&gt;Node21</title>
<path fill="none" stroke="midnightblue" d="M657.09,-386.97C711.25,-377.66 805.33,-360.96 885.5,-344 993.48,-321.16 1119.55,-289.92 1184.28,-273.55"/>
<polygon fill="midnightblue" stroke="midnightblue" points="1185.3,-276.9 1194.13,-271.05 1183.58,-270.12 1185.3,-276.9"/>
</g>
<!-- Node33&#45;&gt;Node27 -->
<g id="edge53" class="edge">
<title>Node33&#45;&gt;Node27</title>
<path fill="none" stroke="midnightblue" d="M567.79,-381.75C565,-381.11 562.22,-380.52 559.5,-380 420.7,-353.27 383.67,-362.24 243.5,-344 231.59,-342.45 218.89,-340.68 206.7,-338.92"/>
<polygon fill="midnightblue" stroke="midnightblue" points="207.01,-335.43 196.61,-337.45 206,-342.36 207.01,-335.43"/>
</g>
<!-- Node33&#45;&gt;Node29 -->
<g id="edge63" class="edge">
<title>Node33&#45;&gt;Node29</title>
<path fill="none" stroke="midnightblue" d="M620.45,-380.36C629.27,-362.57 640.3,-332.04 624.5,-313 569.05,-246.19 515.59,-302.18 432.5,-277 430.35,-276.35 428.16,-275.61 425.97,-274.81"/>
<polygon fill="midnightblue" stroke="midnightblue" points="427.17,-271.52 416.58,-271.07 424.58,-278.02 427.17,-271.52"/>
</g>
<!-- Node33&#45;&gt;Node34 -->
<g id="edge54" class="edge">
<title>Node33&#45;&gt;Node34</title>
<path fill="none" stroke="midnightblue" d="M567.74,-382C564.96,-381.3 562.19,-380.63 559.5,-380 491.12,-364 411.78,-349.06 359.11,-339.64"/>
<polygon fill="midnightblue" stroke="midnightblue" points="359.4,-336.14 348.94,-337.83 358.17,-343.03 359.4,-336.14"/>
</g>
<!-- Node39 -->
<g id="node39" class="node">
<title>Node39</title>
<g id="a_node39"><a xlink:href="set__one__deleter_8hpp.html" target="_top" xlink:title=" ">
<polygon fill="none" stroke="black" points="443,-313.5 443,-343.5 550,-343.5 550,-313.5 443,-313.5"/>
<text text-anchor="start" x="451" y="-331.5" font-family="Helvetica,sans-Serif" font-size="10.00">yaclib/util/detail</text>
<text text-anchor="middle" x="496.5" y="-320.5" font-family="Helvetica,sans-Serif" font-size="10.00">/set_one_deleter.hpp</text>
</a>
</g>
</g>
<!-- Node33&#45;&gt;Node39 -->
<g id="edge61" class="edge">
<title>Node33&#45;&gt;Node39</title>
<path fill="none" stroke="midnightblue" d="M587.33,-380.4C570.76,-371.11 548.86,-358.84 530.72,-348.67"/>
<polygon fill="midnightblue" stroke="midnightblue" points="532.06,-345.41 521.62,-343.58 528.63,-351.52 532.06,-345.41"/>
</g>
<!-- Node40 -->
<g id="node40" class="node">
<title>Node40</title>
<g id="a_node40"><a xlink:title=" ">
<polygon fill="none" stroke="#bfbfbf" points="568,-319 568,-338 615,-338 615,-319 568,-319"/>
<text text-anchor="middle" x="591.5" y="-326" font-family="Helvetica,sans-Serif" font-size="10.00">iterator</text>
</a>
</g>
</g>
<!-- Node33&#45;&gt;Node40 -->
<g id="edge64" class="edge">
<title>Node33&#45;&gt;Node40</title>
<path fill="none" stroke="midnightblue" d="M607.94,-380.4C604.86,-370.86 600.77,-358.18 597.43,-347.86"/>
<polygon fill="midnightblue" stroke="midnightblue" points="600.71,-346.63 594.31,-338.19 594.05,-348.79 600.71,-346.63"/>
</g>
<!-- Node34&#45;&gt;Node13 -->
<g id="edge55" class="edge">
<title>Node34&#45;&gt;Node13</title>
<path fill="none" stroke="midnightblue" d="M303.1,-313.4C304.85,-303.96 307.16,-291.45 309.05,-281.19"/>
<polygon fill="midnightblue" stroke="midnightblue" points="312.52,-281.66 310.89,-271.19 305.64,-280.39 312.52,-281.66"/>
</g>
<!-- Node35 -->
<g id="node35" class="node">
<title>Node35</title>
<g id="a_node35"><a xlink:href="mutex__event_8hpp.html" target="_top" xlink:title=" ">
<polygon fill="none" stroke="black" points="119,-246.5 119,-276.5 212,-276.5 212,-246.5 119,-246.5"/>
<text text-anchor="start" x="127" y="-264.5" font-family="Helvetica,sans-Serif" font-size="10.00">yaclib/util/detail</text>
<text text-anchor="middle" x="165.5" y="-253.5" font-family="Helvetica,sans-Serif" font-size="10.00">/mutex_event.hpp</text>
</a>
</g>
</g>
<!-- Node34&#45;&gt;Node35 -->
<g id="edge56" class="edge">
<title>Node34&#45;&gt;Node35</title>
<path fill="none" stroke="midnightblue" d="M271.21,-313.4C251.48,-303.9 225.27,-291.28 203.88,-280.98"/>
<polygon fill="midnightblue" stroke="midnightblue" points="205.26,-277.76 194.74,-276.58 202.23,-284.07 205.26,-277.76"/>
</g>
<!-- Node35&#45;&gt;Node9 -->
<g id="edge57" class="edge">
<title>Node35&#45;&gt;Node9</title>
<path fill="none" stroke="midnightblue" d="M202.96,-246.43C226.56,-237.1 257.38,-224.01 283.5,-210 359.98,-168.96 444.19,-109.17 481.65,-81.75"/>
<polygon fill="midnightblue" stroke="midnightblue" points="484.15,-84.25 490.13,-75.5 480,-78.61 484.15,-84.25"/>
</g>
<!-- Node36 -->
<g id="node36" class="node">
<title>Node36</title>
<g id="a_node36"><a xlink:title=" ">
<polygon fill="none" stroke="#bfbfbf" points="228.5,-185 228.5,-204 274.5,-204 274.5,-185 228.5,-185"/>
<text text-anchor="middle" x="251.5" y="-192" font-family="Helvetica,sans-Serif" font-size="10.00">chrono</text>
</a>
</g>
</g>
<!-- Node35&#45;&gt;Node36 -->
<g id="edge58" class="edge">
<title>Node35&#45;&gt;Node36</title>
<path fill="none" stroke="midnightblue" d="M184.16,-246.4C198.23,-235.76 217.49,-221.2 231.81,-210.38"/>
<polygon fill="midnightblue" stroke="midnightblue" points="234.13,-213.02 240,-204.19 229.91,-207.43 234.13,-213.02"/>
</g>
<!-- Node37 -->
<g id="node37" class="node">
<title>Node37</title>
<g id="a_node37"><a xlink:title=" ">
<polygon fill="none" stroke="#bfbfbf" points="1.5,-179.5 1.5,-209.5 103.5,-209.5 103.5,-179.5 1.5,-179.5"/>
<text text-anchor="start" x="9.5" y="-197.5" font-family="Helvetica,sans-Serif" font-size="10.00">yaclib_std/condition</text>
<text text-anchor="middle" x="52.5" y="-186.5" font-family="Helvetica,sans-Serif" font-size="10.00">_variable</text>
</a>
</g>
</g>
<!-- Node35&#45;&gt;Node37 -->
<g id="edge59" class="edge">
<title>Node35&#45;&gt;Node37</title>
<path fill="none" stroke="midnightblue" d="M140.98,-246.4C124.84,-237.11 103.51,-224.84 85.83,-214.67"/>
<polygon fill="midnightblue" stroke="midnightblue" points="87.38,-211.53 76.97,-209.58 83.89,-217.6 87.38,-211.53"/>
</g>
<!-- Node38 -->
<g id="node38" class="node">
<title>Node38</title>
<g id="a_node38"><a xlink:title=" ">
<polygon fill="none" stroke="#bfbfbf" points="121,-185 121,-204 210,-204 210,-185 121,-185"/>
<text text-anchor="middle" x="165.5" y="-192" font-family="Helvetica,sans-Serif" font-size="10.00">yaclib_std/mutex</text>
</a>
</g>
</g>
<!-- Node35&#45;&gt;Node38 -->
<g id="edge60" class="edge">
<title>Node35&#45;&gt;Node38</title>
<path fill="none" stroke="midnightblue" d="M165.5,-246.4C165.5,-237.06 165.5,-224.71 165.5,-214.52"/>
<polygon fill="midnightblue" stroke="midnightblue" points="169,-214.19 165.5,-204.19 162,-214.19 169,-214.19"/>
</g>
<!-- Node41&#45;&gt;Node3 -->
<g id="edge72" class="edge">
<title>Node41&#45;&gt;Node3</title>
<path fill="none" stroke="midnightblue" d="M310.67,-456.93C433.25,-445.3 756.68,-414.61 889.41,-402.01"/>
<polygon fill="midnightblue" stroke="midnightblue" points="889.76,-405.49 899.39,-401.07 889.1,-398.53 889.76,-405.49"/>
</g>
<!-- Node41&#45;&gt;Node13 -->
<g id="edge73" class="edge">
<title>Node41&#45;&gt;Node13</title>
<path fill="none" stroke="midnightblue" d="M255.49,-447.07C243.13,-419.42 220.8,-357.74 243.5,-313 251.84,-296.56 268.34,-284.18 283.1,-275.8"/>
<polygon fill="midnightblue" stroke="midnightblue" points="284.79,-278.86 291.99,-271.09 281.51,-272.68 284.79,-278.86"/>
</g>
<!-- Node41&#45;&gt;Node27 -->
<g id="edge74" class="edge">
<title>Node41&#45;&gt;Node27</title>
<path fill="none" stroke="midnightblue" d="M254.26,-447.39C244,-430.44 225.4,-401.58 205.5,-380 195.47,-369.13 183.1,-358.47 172.13,-349.78"/>
<polygon fill="midnightblue" stroke="midnightblue" points="174.12,-346.89 164.07,-343.54 169.83,-352.43 174.12,-346.89"/>
</g>
<!-- Node41&#45;&gt;Node30 -->
<g id="edge71" class="edge">
<title>Node41&#45;&gt;Node30</title>
<path fill="none" stroke="midnightblue" d="M236.9,-447.4C219.96,-438.07 197.56,-425.73 179.05,-415.53"/>
<polygon fill="midnightblue" stroke="midnightblue" points="180.5,-412.34 170.05,-410.58 177.12,-418.47 180.5,-412.34"/>
</g>
<!-- Node42&#45;&gt;Node3 -->
<g id="edge78" class="edge">
<title>Node42&#45;&gt;Node3</title>
<path fill="none" stroke="midnightblue" d="M947.5,-447.4C947.5,-439.64 947.5,-429.81 947.5,-420.86"/>
<polygon fill="midnightblue" stroke="midnightblue" points="951,-420.58 947.5,-410.58 944,-420.58 951,-420.58"/>
</g>
<!-- Node42&#45;&gt;Node15 -->
<g id="edge82" class="edge">
<title>Node42&#45;&gt;Node15</title>
<path fill="none" stroke="midnightblue" d="M970.7,-447.44C983.01,-438.62 997.1,-426.07 1004.5,-411 1036.87,-345.08 1031.89,-317.1 1013.5,-246 1011.02,-236.41 1006.28,-226.7 1001.4,-218.39"/>
<polygon fill="midnightblue" stroke="midnightblue" points="1004.22,-216.3 995.94,-209.69 998.29,-220.02 1004.22,-216.3"/>
</g>
<!-- Node42&#45;&gt;Node24 -->
<g id="edge83" class="edge">
<title>Node42&#45;&gt;Node24</title>
<path fill="none" stroke="midnightblue" d="M979.14,-447.34C994.83,-438.85 1012.86,-426.65 1024.5,-411 1070.5,-349.15 1083.62,-254.47 1087.21,-214.43"/>
<polygon fill="midnightblue" stroke="midnightblue" points="1090.71,-214.49 1088.02,-204.25 1083.74,-213.94 1090.71,-214.49"/>
</g>
<!-- Node42&#45;&gt;Node30 -->
<g id="edge81" class="edge">
<title>Node42&#45;&gt;Node30</title>
<path fill="none" stroke="midnightblue" d="M892.31,-457.03C747.78,-445.33 358.94,-413.86 206.77,-401.54"/>
<polygon fill="midnightblue" stroke="midnightblue" points="206.91,-398.04 196.66,-400.72 206.35,-405.02 206.91,-398.04"/>
</g>
<!-- Node43 -->
<g id="node43" class="node">
<title>Node43</title>
<g id="a_node43"><a xlink:href="coroutine_8hpp.html" target="_top" xlink:title=" ">
<polygon fill="none" stroke="black" points="405,-386 405,-405 550,-405 550,-386 405,-386"/>
<text text-anchor="middle" x="477.5" y="-393" font-family="Helvetica,sans-Serif" font-size="10.00">yaclib/coroutine/coroutine.hpp</text>
</a>
</g>
</g>
<!-- Node42&#45;&gt;Node43 -->
<g id="edge79" class="edge">
<title>Node42&#45;&gt;Node43</title>
<path fill="none" stroke="midnightblue" d="M892.45,-455.14C817.14,-446.25 677.84,-429.15 559.5,-411 551.18,-409.72 542.4,-408.28 533.81,-406.81"/>
<polygon fill="midnightblue" stroke="midnightblue" points="534.29,-403.34 523.84,-405.07 533.09,-410.23 534.29,-403.34"/>
</g>
<!-- Node43&#45;&gt;Node13 -->
<g id="edge80" class="edge">
<title>Node43&#45;&gt;Node13</title>
<path fill="none" stroke="midnightblue" d="M469.31,-385.87C454.4,-370.38 421.48,-337.22 390.5,-313 373.08,-299.38 351.95,-285.86 336.08,-276.25"/>
<polygon fill="midnightblue" stroke="midnightblue" points="337.79,-273.19 327.41,-271.06 334.19,-279.2 337.79,-273.19"/>
</g>
</g>
</svg>
