<?xml version="1.0" encoding="UTF-8" standalone="no"?>
<!DOCTYPE svg PUBLIC "-//W3C//DTD SVG 1.1//EN"
 "http://www.w3.org/Graphics/SVG/1.1/DTD/svg11.dtd">
<!-- Generated by graphviz version 3.0.0 (20220413.0242)
 -->
<!-- Title: include/yaclib/async/future.hpp Pages: 1 -->
<!--zoomable 240 -->
<svg id="main" version="1.1" xmlns="http://www.w3.org/2000/svg" xmlns:xlink="http://www.w3.org/1999/xlink" xml:space="preserve" onload="init(evt)">
<style type="text/css"><![CDATA[
.edge:hover path { stroke: red; }
.edge:hover polygon { stroke: red; fill: red; }
]]></style>
<script type="text/javascript"><![CDATA[
var edges = document.getElementsByTagName('g');
if (edges && edges.length) {
  for (var i=0;i<edges.length;i++) {
    if (edges[i].id.substr(0,4)=='edge') {
      edges[i].setAttribute('class','edge');
    }
  }
}
]]></script>
        <defs>
                <circle id="rim" cx="0" cy="0" r="7"/>
                <circle id="rim2" cx="0" cy="0" r="3.5"/>
                <g id="zoomPlus">
                        <use xlink:href="#rim" fill="#404040">
                                <set attributeName="fill" to="#808080" begin="zoomplus.mouseover" end="zoomplus.mouseout"/>
                        </use>
                        <path d="M-4,0h8M0,-4v8" fill="none" stroke="white" stroke-width="1.5" pointer-events="none"/>
                </g>
                <g id="zoomMin">
                        <use xlink:href="#rim" fill="#404040">
                                <set attributeName="fill" to="#808080" begin="zoomminus.mouseover" end="zoomminus.mouseout"/>
                        </use>
                        <path d="M-4,0h8" fill="none" stroke="white" stroke-width="1.5" pointer-events="none"/>
                </g>
                <g id="dirArrow">
                        <path fill="none" stroke="white" stroke-width="1.5" d="M0,-3.0v7 M-2.5,-0.5L0,-3.0L2.5,-0.5"/>
                </g>
               <g id="resetDef">
                       <use xlink:href="#rim2" fill="#404040">
                               <set attributeName="fill" to="#808080" begin="reset.mouseover" end="reset.mouseout"/>
                       </use>
               </g>
        </defs>

<script type="text/javascript">
var viewWidth = 1588;
var viewHeight = 240;
var sectionId = 'dynsection-1';
</script>
<script xlink:href="svgpan.js"/>
<svg id="graph" class="graph">
<g id="viewport">
<title>include/yaclib/async/future.hpp</title>
<!-- Node1 -->
<g id="node1" class="node">
<title>Node1</title>
<g id="a_node1"><a xlink:title=" ">
<polygon fill="#bfbfbf" stroke="black" points="616,-201.5 616,-231.5 720,-231.5 720,-201.5 616,-201.5"/>
<text text-anchor="start" x="624" y="-219.5" font-family="Helvetica,sans-Serif" font-size="10.00">include/yaclib/async</text>
<text text-anchor="middle" x="668" y="-208.5" font-family="Helvetica,sans-Serif" font-size="10.00">/future.hpp</text>
</a>
</g>
</g>
<!-- Node2 -->
<g id="node2" class="node">
<title>Node2</title>
<g id="a_node2"><a xlink:href="when__impl_8hpp.html" target="_top" xlink:title=" ">
<polygon fill="none" stroke="black" points="58,-134.5 58,-164.5 168,-164.5 168,-134.5 58,-134.5"/>
<text text-anchor="start" x="66" y="-152.5" font-family="Helvetica,sans-Serif" font-size="10.00">include/yaclib/algo</text>
<text text-anchor="middle" x="113" y="-141.5" font-family="Helvetica,sans-Serif" font-size="10.00">/detail/when_impl.hpp</text>
</a>
</g>
</g>
<!-- Node1&#45;&gt;Node2 -->
<g id="edge1" class="edge">
<title>Node1&#45;&gt;Node2</title>
<path fill="none" stroke="midnightblue" d="M605.94,-211.12C513.28,-204.12 333.46,-188.72 182,-165 177.53,-164.3 172.9,-163.5 168.27,-162.64"/>
<polygon fill="midnightblue" stroke="midnightblue" points="605.75,-214.62 615.98,-211.87 606.27,-207.64 605.75,-214.62"/>
</g>
<!-- Node3 -->
<g id="node3" class="node">
<title>Node3</title>
<g id="a_node3"><a xlink:href="when__all_8hpp.html" target="_top" xlink:title=" ">
<polygon fill="none" stroke="black" points="0,-67.5 0,-97.5 96,-97.5 96,-67.5 0,-67.5"/>
<text text-anchor="start" x="8" y="-85.5" font-family="Helvetica,sans-Serif" font-size="10.00">include/yaclib/algo</text>
<text text-anchor="middle" x="48" y="-74.5" font-family="Helvetica,sans-Serif" font-size="10.00">/when_all.hpp</text>
</a>
</g>
</g>
<!-- Node1&#45;&gt;Node3 -->
<g id="edge13" class="edge">
<title>Node1&#45;&gt;Node3</title>
<path fill="none" stroke="midnightblue" d="M605.55,-215.06C455.91,-213.37 86.45,-205.13 49,-165 32.2,-147 37.78,-115.82 43.07,-97.69"/>
<polygon fill="midnightblue" stroke="midnightblue" points="605.9,-218.57 615.94,-215.17 605.97,-211.57 605.9,-218.57"/>
</g>
<!-- Node5 -->
<g id="node5" class="node">
<title>Node5</title>
<g id="a_node5"><a xlink:href="when__any_8hpp.html" target="_top" xlink:title=" ">
<polygon fill="none" stroke="black" points="114,-67.5 114,-97.5 210,-97.5 210,-67.5 114,-67.5"/>
<text text-anchor="start" x="122" y="-85.5" font-family="Helvetica,sans-Serif" font-size="10.00">include/yaclib/algo</text>
<text text-anchor="middle" x="162" y="-74.5" font-family="Helvetica,sans-Serif" font-size="10.00">/when_any.hpp</text>
</a>
</g>
</g>
<!-- Node1&#45;&gt;Node5 -->
<g id="edge14" class="edge">
<title>Node1&#45;&gt;Node5</title>
<path fill="none" stroke="midnightblue" d="M605.74,-215.03C497.24,-213.15 278.94,-204.44 215,-165 189.57,-149.32 173.97,-116.36 166.76,-97.51"/>
<polygon fill="midnightblue" stroke="midnightblue" points="605.84,-218.53 615.89,-215.19 605.95,-211.53 605.84,-218.53"/>
</g>
<!-- Node7 -->
<g id="node7" class="node">
<title>Node7</title>
<g id="a_node7"><a xlink:href="wait_8hpp.html" target="_top" xlink:title=" ">
<polygon fill="none" stroke="black" points="506,-134.5 506,-164.5 602,-164.5 602,-134.5 506,-134.5"/>
<text text-anchor="start" x="514" y="-152.5" font-family="Helvetica,sans-Serif" font-size="10.00">include/yaclib/algo</text>
<text text-anchor="middle" x="554" y="-141.5" font-family="Helvetica,sans-Serif" font-size="10.00">/wait.hpp</text>
</a>
</g>
</g>
<!-- Node1&#45;&gt;Node7 -->
<g id="edge6" class="edge">
<title>Node1&#45;&gt;Node7</title>
<path fill="none" stroke="midnightblue" d="M634.32,-196.3C616.48,-186.12 594.96,-173.85 578.69,-164.58"/>
<polygon fill="midnightblue" stroke="midnightblue" points="632.84,-199.48 643.26,-201.4 636.31,-193.4 632.84,-199.48"/>
</g>
<!-- Node9 -->
<g id="node9" class="node">
<title>Node9</title>
<g id="a_node9"><a xlink:href="wait__for_8hpp.html" target="_top" xlink:title=" ">
<polygon fill="none" stroke="black" points="658,-134.5 658,-164.5 754,-164.5 754,-134.5 658,-134.5"/>
<text text-anchor="start" x="666" y="-152.5" font-family="Helvetica,sans-Serif" font-size="10.00">include/yaclib/algo</text>
<text text-anchor="middle" x="706" y="-141.5" font-family="Helvetica,sans-Serif" font-size="10.00">/wait_for.hpp</text>
</a>
</g>
</g>
<!-- Node1&#45;&gt;Node9 -->
<g id="edge9" class="edge">
<title>Node1&#45;&gt;Node9</title>
<path fill="none" stroke="midnightblue" d="M681.4,-192.58C686.86,-183.24 692.99,-172.75 697.77,-164.58"/>
<polygon fill="midnightblue" stroke="midnightblue" points="678.27,-191 676.25,-201.4 684.31,-194.53 678.27,-191"/>
</g>
<!-- Node10 -->
<g id="node10" class="node">
<title>Node10</title>
<g id="a_node10"><a xlink:href="wait__group_8hpp.html" target="_top" xlink:title=" ">
<polygon fill="none" stroke="black" points="772,-134.5 772,-164.5 868,-164.5 868,-134.5 772,-134.5"/>
<text text-anchor="start" x="780" y="-152.5" font-family="Helvetica,sans-Serif" font-size="10.00">include/yaclib/algo</text>
<text text-anchor="middle" x="820" y="-141.5" font-family="Helvetica,sans-Serif" font-size="10.00">/wait_group.hpp</text>
</a>
</g>
</g>
<!-- Node1&#45;&gt;Node10 -->
<g id="edge10" class="edge">
<title>Node1&#45;&gt;Node10</title>
<path fill="none" stroke="midnightblue" d="M710.31,-197.41C734.58,-187.03 764.59,-174.2 787.08,-164.58"/>
<polygon fill="midnightblue" stroke="midnightblue" points="708.8,-194.25 700.98,-201.4 711.55,-200.68 708.8,-194.25"/>
</g>
<!-- Node12 -->
<g id="node12" class="node">
<title>Node12</title>
<g id="a_node12"><a xlink:href="wait__until_8hpp.html" target="_top" xlink:title=" ">
<polygon fill="none" stroke="black" points="886,-134.5 886,-164.5 982,-164.5 982,-134.5 886,-134.5"/>
<text text-anchor="start" x="894" y="-152.5" font-family="Helvetica,sans-Serif" font-size="10.00">include/yaclib/algo</text>
<text text-anchor="middle" x="934" y="-141.5" font-family="Helvetica,sans-Serif" font-size="10.00">/wait_until.hpp</text>
</a>
</g>
</g>
<!-- Node1&#45;&gt;Node12 -->
<g id="edge12" class="edge">
<title>Node1&#45;&gt;Node12</title>
<path fill="none" stroke="midnightblue" d="M729.99,-200.73C771.6,-190.76 827.63,-177.24 877,-165 879.87,-164.29 882.83,-163.55 885.81,-162.8"/>
<polygon fill="midnightblue" stroke="midnightblue" points="728.92,-197.39 720.01,-203.12 730.55,-204.19 728.92,-197.39"/>
</g>
<!-- Node13 -->
<g id="node13" class="node">
<title>Node13</title>
<g id="a_node13"><a xlink:href="contract_8hpp.html" target="_top" xlink:title=" ">
<polygon fill="none" stroke="black" points="384,-134.5 384,-164.5 488,-164.5 488,-134.5 384,-134.5"/>
<text text-anchor="start" x="392" y="-152.5" font-family="Helvetica,sans-Serif" font-size="10.00">include/yaclib/async</text>
<text text-anchor="middle" x="436" y="-141.5" font-family="Helvetica,sans-Serif" font-size="10.00">/contract.hpp</text>
</a>
</g>
</g>
<!-- Node1&#45;&gt;Node13 -->
<g id="edge15" class="edge">
<title>Node1&#45;&gt;Node13</title>
<path fill="none" stroke="midnightblue" d="M608.09,-198.71C570.34,-188.14 522.14,-174.63 486.37,-164.61"/>
<polygon fill="midnightblue" stroke="midnightblue" points="607.37,-202.15 617.95,-201.48 609.26,-195.41 607.37,-202.15"/>
</g>
<!-- Node14 -->
<g id="node14" class="node">
<title>Node14</title>
<g id="a_node14"><a xlink:href="simple_8cpp.html" target="_top" xlink:title=" ">
<polygon fill="none" stroke="black" points="305.5,-67.5 305.5,-97.5 406.5,-97.5 406.5,-67.5 305.5,-67.5"/>
<text text-anchor="start" x="313.5" y="-85.5" font-family="Helvetica,sans-Serif" font-size="10.00">test/example/async</text>
<text text-anchor="middle" x="356" y="-74.5" font-family="Helvetica,sans-Serif" font-size="10.00">/simple.cpp</text>
</a>
</g>
</g>
<!-- Node1&#45;&gt;Node14 -->
<g id="edge27" class="edge">
<title>Node1&#45;&gt;Node14</title>
<path fill="none" stroke="midnightblue" d="M605.33,-212.65C529.35,-207.88 407.41,-195.57 375,-165 356.5,-147.55 354.42,-115.87 354.95,-97.57"/>
<polygon fill="midnightblue" stroke="midnightblue" points="605.54,-216.17 615.73,-213.27 605.96,-209.18 605.54,-216.17"/>
</g>
<!-- Node15 -->
<g id="node15" class="node">
<title>Node15</title>
<g id="a_node15"><a xlink:href="run_8hpp.html" target="_top" xlink:title=" ">
<polygon fill="none" stroke="black" points="224,-134.5 224,-164.5 328,-164.5 328,-134.5 224,-134.5"/>
<text text-anchor="start" x="232" y="-152.5" font-family="Helvetica,sans-Serif" font-size="10.00">include/yaclib/async</text>
<text text-anchor="middle" x="276" y="-141.5" font-family="Helvetica,sans-Serif" font-size="10.00">/run.hpp</text>
</a>
</g>
</g>
<!-- Node1&#45;&gt;Node15 -->
<g id="edge17" class="edge">
<title>Node1&#45;&gt;Node15</title>
<path fill="none" stroke="midnightblue" d="M605.69,-207.03C539.94,-197.82 433.38,-182.1 342,-165 337.5,-164.16 332.84,-163.24 328.18,-162.28"/>
<polygon fill="midnightblue" stroke="midnightblue" points="605.5,-210.54 615.88,-208.45 606.46,-203.6 605.5,-210.54"/>
</g>
<!-- Node16 -->
<g id="node16" class="node">
<title>Node16</title>
<g id="a_node16"><a xlink:href="await_8hpp.html" target="_top" xlink:title=" ">
<polygon fill="none" stroke="black" points="996,-67.5 996,-97.5 1114,-97.5 1114,-67.5 996,-67.5"/>
<text text-anchor="start" x="1004" y="-85.5" font-family="Helvetica,sans-Serif" font-size="10.00">include/yaclib/coroutine</text>
<text text-anchor="middle" x="1055" y="-74.5" font-family="Helvetica,sans-Serif" font-size="10.00">/await.hpp</text>
</a>
</g>
</g>
<!-- Node1&#45;&gt;Node16 -->
<g id="edge21" class="edge">
<title>Node1&#45;&gt;Node16</title>
<path fill="none" stroke="midnightblue" d="M730.33,-211.18C811.44,-204.65 947.91,-190.25 991,-165 1018.32,-148.99 1038.32,-116.47 1048.16,-97.71"/>
<polygon fill="midnightblue" stroke="midnightblue" points="729.93,-207.7 720.23,-211.98 730.48,-214.68 729.93,-207.7"/>
</g>
<!-- Node17 -->
<g id="node17" class="node">
<title>Node17</title>
<g id="a_node17"><a xlink:href="await__group_8hpp.html" target="_top" xlink:title=" ">
<polygon fill="none" stroke="black" points="1180,-134.5 1180,-164.5 1298,-164.5 1298,-134.5 1180,-134.5"/>
<text text-anchor="start" x="1188" y="-152.5" font-family="Helvetica,sans-Serif" font-size="10.00">include/yaclib/coroutine</text>
<text text-anchor="middle" x="1239" y="-141.5" font-family="Helvetica,sans-Serif" font-size="10.00">/await_group.hpp</text>
</a>
</g>
</g>
<!-- Node1&#45;&gt;Node17 -->
<g id="edge22" class="edge">
<title>Node1&#45;&gt;Node17</title>
<path fill="none" stroke="midnightblue" d="M730.05,-211.48C825.29,-204.81 1013.08,-189.69 1171,-165 1173.86,-164.55 1176.79,-164.06 1179.73,-163.54"/>
<polygon fill="midnightblue" stroke="midnightblue" points="729.75,-207.99 720.01,-212.17 730.23,-214.97 729.75,-207.99"/>
</g>
<!-- Node18 -->
<g id="node18" class="node">
<title>Node18</title>
<g id="a_node18"><a xlink:href="await__awaiter_8hpp.html" target="_top" xlink:title=" ">
<polygon fill="none" stroke="black" points="1038,-134.5 1038,-164.5 1162,-164.5 1162,-134.5 1038,-134.5"/>
<text text-anchor="start" x="1046" y="-152.5" font-family="Helvetica,sans-Serif" font-size="10.00">include/yaclib/coroutine</text>
<text text-anchor="middle" x="1100" y="-141.5" font-family="Helvetica,sans-Serif" font-size="10.00">/detail/await_awaiter.hpp</text>
</a>
</g>
</g>
<!-- Node1&#45;&gt;Node18 -->
<g id="edge23" class="edge">
<title>Node1&#45;&gt;Node18</title>
<path fill="none" stroke="midnightblue" d="M730.14,-207.6C801.29,-198.34 921.29,-182.07 1024,-165 1028.51,-164.25 1033.15,-163.45 1037.83,-162.61"/>
<polygon fill="midnightblue" stroke="midnightblue" points="729.47,-204.15 720,-208.91 730.37,-211.1 729.47,-204.15"/>
</g>
<!-- Node19 -->
<g id="node19" class="node">
<title>Node19</title>
<g id="a_node19"><a xlink:href="future__traits_8hpp.html" target="_top" xlink:title=" ">
<polygon fill="none" stroke="black" points="1316,-134.5 1316,-164.5 1434,-164.5 1434,-134.5 1316,-134.5"/>
<text text-anchor="start" x="1324" y="-152.5" font-family="Helvetica,sans-Serif" font-size="10.00">include/yaclib/coroutine</text>
<text text-anchor="middle" x="1375" y="-141.5" font-family="Helvetica,sans-Serif" font-size="10.00">/future_traits.hpp</text>
</a>
</g>
</g>
<!-- Node1&#45;&gt;Node19 -->
<g id="edge25" class="edge">
<title>Node1&#45;&gt;Node19</title>
<path fill="none" stroke="midnightblue" d="M730.36,-213.29C845.03,-208.62 1096.89,-195.57 1307,-165 1309.87,-164.58 1312.79,-164.12 1315.74,-163.61"/>
<polygon fill="midnightblue" stroke="midnightblue" points="729.88,-209.81 720.02,-213.7 730.16,-216.8 729.88,-209.81"/>
</g>
<!-- Node20 -->
<g id="node20" class="node">
<title>Node20</title>
<g id="a_node20"><a xlink:href="future__impl_8cpp.html" target="_top" xlink:title=" ">
<polygon fill="none" stroke="black" points="1452,-140 1452,-159 1580,-159 1580,-140 1452,-140"/>
<text text-anchor="middle" x="1516" y="-147" font-family="Helvetica,sans-Serif" font-size="10.00">src/async/future_impl.cpp</text>
</a>
</g>
</g>
<!-- Node1&#45;&gt;Node20 -->
<g id="edge26" class="edge">
<title>Node1&#45;&gt;Node20</title>
<path fill="none" stroke="midnightblue" d="M730.72,-214.2C862.93,-210.84 1179.75,-199.57 1443,-165 1454.4,-163.5 1466.7,-161.29 1477.89,-159.05"/>
<polygon fill="midnightblue" stroke="midnightblue" points="730.3,-210.71 720.39,-214.45 730.47,-217.7 730.3,-210.71"/>
</g>
<!-- Node2&#45;&gt;Node3 -->
<g id="edge2" class="edge">
<title>Node2&#45;&gt;Node3</title>
<path fill="none" stroke="midnightblue" d="M91.81,-127.31C82.06,-117.56 70.76,-106.26 62.08,-97.58"/>
<polygon fill="midnightblue" stroke="midnightblue" points="89.35,-129.8 98.9,-134.4 94.3,-124.85 89.35,-129.8"/>
</g>
<!-- Node2&#45;&gt;Node5 -->
<g id="edge4" class="edge">
<title>Node2&#45;&gt;Node5</title>
<path fill="none" stroke="midnightblue" d="M129.84,-126.16C136.99,-116.68 145.1,-105.92 151.39,-97.58"/>
<polygon fill="midnightblue" stroke="midnightblue" points="126.86,-124.3 123.63,-134.4 132.45,-128.52 126.86,-124.3"/>
</g>
<!-- Node4 -->
<g id="node4" class="node">
<title>Node4</title>
<g id="a_node4"><a xlink:href="when__all_8cpp.html" target="_top" xlink:title=" ">
<polygon fill="none" stroke="black" points="51.5,-0.5 51.5,-30.5 152.5,-30.5 152.5,-0.5 51.5,-0.5"/>
<text text-anchor="start" x="59.5" y="-18.5" font-family="Helvetica,sans-Serif" font-size="10.00">test/example/async</text>
<text text-anchor="middle" x="102" y="-7.5" font-family="Helvetica,sans-Serif" font-size="10.00">/when_all.cpp</text>
</a>
</g>
</g>
<!-- Node3&#45;&gt;Node4 -->
<g id="edge3" class="edge">
<title>Node3&#45;&gt;Node4</title>
<path fill="none" stroke="midnightblue" d="M66.32,-59.45C74.25,-49.9 83.3,-39 90.31,-30.58"/>
<polygon fill="midnightblue" stroke="midnightblue" points="63.42,-57.47 59.72,-67.4 68.8,-61.94 63.42,-57.47"/>
</g>
<!-- Node6 -->
<g id="node6" class="node">
<title>Node6</title>
<g id="a_node6"><a xlink:href="when__any_8cpp.html" target="_top" xlink:title=" ">
<polygon fill="none" stroke="black" points="197.5,-0.5 197.5,-30.5 298.5,-30.5 298.5,-0.5 197.5,-0.5"/>
<text text-anchor="start" x="205.5" y="-18.5" font-family="Helvetica,sans-Serif" font-size="10.00">test/example/async</text>
<text text-anchor="middle" x="248" y="-7.5" font-family="Helvetica,sans-Serif" font-size="10.00">/when_any.cpp</text>
</a>
</g>
</g>
<!-- Node5&#45;&gt;Node6 -->
<g id="edge5" class="edge">
<title>Node5&#45;&gt;Node6</title>
<path fill="none" stroke="midnightblue" d="M188.9,-61.17C202.05,-51.23 217.55,-39.51 229.38,-30.58"/>
<polygon fill="midnightblue" stroke="midnightblue" points="186.53,-58.57 180.66,-67.4 190.75,-64.16 186.53,-58.57"/>
</g>
<!-- Node8 -->
<g id="node8" class="node">
<title>Node8</title>
<g id="a_node8"><a xlink:href="future__impl_8hpp.html" target="_top" xlink:title=" ">
<polygon fill="none" stroke="black" points="536,-67.5 536,-97.5 648,-97.5 648,-67.5 536,-67.5"/>
<text text-anchor="start" x="544" y="-85.5" font-family="Helvetica,sans-Serif" font-size="10.00">include/yaclib/async</text>
<text text-anchor="middle" x="592" y="-74.5" font-family="Helvetica,sans-Serif" font-size="10.00">/detail/future_impl.hpp</text>
</a>
</g>
</g>
<!-- Node7&#45;&gt;Node8 -->
<g id="edge7" class="edge">
<title>Node7&#45;&gt;Node8</title>
<path fill="none" stroke="midnightblue" d="M567.4,-125.58C572.86,-116.24 578.99,-105.75 583.77,-97.58"/>
<polygon fill="midnightblue" stroke="midnightblue" points="564.27,-124 562.25,-134.4 570.31,-127.53 564.27,-124"/>
</g>
<!-- Node8&#45;&gt;Node1 -->
<g id="edge8" class="edge">
<title>Node8&#45;&gt;Node1</title>
<path fill="none" stroke="midnightblue" d="M605.19,-106.4C620.93,-133.75 646.78,-178.65 659.87,-201.37"/>
<polygon fill="midnightblue" stroke="midnightblue" points="608.1,-104.44 600.07,-97.52 602.03,-107.94 608.1,-104.44"/>
</g>
<!-- Node11 -->
<g id="node11" class="node">
<title>Node11</title>
<g id="a_node11"><a xlink:href="wait__group_8cpp.html" target="_top" xlink:title=" ">
<polygon fill="none" stroke="black" points="760.5,-73 760.5,-92 879.5,-92 879.5,-73 760.5,-73"/>
<text text-anchor="middle" x="820" y="-80" font-family="Helvetica,sans-Serif" font-size="10.00">src/algo/wait_group.cpp</text>
</a>
</g>
</g>
<!-- Node10&#45;&gt;Node11 -->
<g id="edge11" class="edge">
<title>Node10&#45;&gt;Node11</title>
<path fill="none" stroke="midnightblue" d="M820,-124.25C820,-113.02 820,-100.38 820,-92.19"/>
<polygon fill="midnightblue" stroke="midnightblue" points="816.5,-124.4 820,-134.4 823.5,-124.4 816.5,-124.4"/>
</g>
<!-- Node13&#45;&gt;Node14 -->
<g id="edge16" class="edge">
<title>Node13&#45;&gt;Node14</title>
<path fill="none" stroke="midnightblue" d="M410.63,-127.88C398.47,-118.01 384.22,-106.43 373.32,-97.58"/>
<polygon fill="midnightblue" stroke="midnightblue" points="408.67,-130.81 418.64,-134.4 413.09,-125.37 408.67,-130.81"/>
</g>
<!-- Node15&#45;&gt;Node4 -->
<g id="edge19" class="edge">
<title>Node15&#45;&gt;Node4</title>
<path fill="none" stroke="midnightblue" d="M264.29,-125.1C254.32,-107.19 238.53,-82.93 219,-67 198.94,-50.64 172.77,-38.69 150.28,-30.53"/>
<polygon fill="midnightblue" stroke="midnightblue" points="261.41,-127.14 269.21,-134.31 267.58,-123.84 261.41,-127.14"/>
</g>
<!-- Node15&#45;&gt;Node6 -->
<g id="edge20" class="edge">
<title>Node15&#45;&gt;Node6</title>
<path fill="none" stroke="midnightblue" d="M270.89,-124.39C265.05,-96.9 255.72,-52.89 250.97,-30.52"/>
<polygon fill="midnightblue" stroke="midnightblue" points="267.5,-125.32 273,-134.37 274.35,-123.87 267.5,-125.32"/>
</g>
<!-- Node15&#45;&gt;Node14 -->
<g id="edge18" class="edge">
<title>Node15&#45;&gt;Node14</title>
<path fill="none" stroke="midnightblue" d="M301.37,-127.88C313.53,-118.01 327.78,-106.43 338.68,-97.58"/>
<polygon fill="midnightblue" stroke="midnightblue" points="298.91,-125.37 293.36,-134.4 303.33,-130.81 298.91,-125.37"/>
</g>
<!-- Node18&#45;&gt;Node16 -->
<g id="edge24" class="edge">
<title>Node18&#45;&gt;Node16</title>
<path fill="none" stroke="midnightblue" d="M1084.53,-126.16C1077.97,-116.68 1070.52,-105.92 1064.75,-97.58"/>
<polygon fill="midnightblue" stroke="midnightblue" points="1081.67,-128.17 1090.24,-134.4 1087.42,-124.18 1081.67,-128.17"/>
</g>
</g>
</svg>
        <g id="navigator" transform="translate(0 0)" fill="#404254">
                <rect fill="#f2f5e9" fill-opacity="0.5" stroke="#606060" stroke-width=".5" x="0" y="0" width="60" height="60"/>
                <use id="zoomplus" xlink:href="#zoomPlus" x="17" y="9" onmousedown="handleZoom(evt,'in')"/>
                <use id="zoomminus" xlink:href="#zoomMin" x="42" y="9" onmousedown="handleZoom(evt,'out')"/>
                <use id="reset" xlink:href="#resetDef" x="30" y="36" onmousedown="handleReset()"/>
                <g id="arrowUp" xlink:href="#dirArrow" transform="translate(30 24)" onmousedown="handlePan(0,-1)">
                  <use xlink:href="#rim" fill="#404040">
                        <set attributeName="fill" to="#808080" begin="arrowUp.mouseover" end="arrowUp.mouseout"/>
                  </use>
                  <path fill="none" stroke="white" stroke-width="1.5" d="M0,-3.0v7 M-2.5,-0.5L0,-3.0L2.5,-0.5"/>
                </g>
                <g id="arrowRight" xlink:href="#dirArrow" transform="rotate(90) translate(36 -43)" onmousedown="handlePan(1,0)">
                  <use xlink:href="#rim" fill="#404040">
                        <set attributeName="fill" to="#808080" begin="arrowRight.mouseover" end="arrowRight.mouseout"/>
                  </use>
                  <path fill="none" stroke="white" stroke-width="1.5" d="M0,-3.0v7 M-2.5,-0.5L0,-3.0L2.5,-0.5"/>
                </g>
                <g id="arrowDown" xlink:href="#dirArrow" transform="rotate(180) translate(-30 -48)" onmousedown="handlePan(0,1)">
                  <use xlink:href="#rim" fill="#404040">
                        <set attributeName="fill" to="#808080" begin="arrowDown.mouseover" end="arrowDown.mouseout"/>
                  </use>
                  <path fill="none" stroke="white" stroke-width="1.5" d="M0,-3.0v7 M-2.5,-0.5L0,-3.0L2.5,-0.5"/>
                </g>
                <g id="arrowLeft" xlink:href="#dirArrow" transform="rotate(270) translate(-36 17)" onmousedown="handlePan(-1,0)">
                  <use xlink:href="#rim" fill="#404040">
                        <set attributeName="fill" to="#808080" begin="arrowLeft.mouseover" end="arrowLeft.mouseout"/>
                  </use>
                  <path fill="none" stroke="white" stroke-width="1.5" d="M0,-3.0v7 M-2.5,-0.5L0,-3.0L2.5,-0.5"/>
                </g>
        </g>
        <svg viewBox="0 0 15 15" width="100%" height="30px" preserveAspectRatio="xMaxYMin meet">
         <g id="arrow_out" transform="scale(0.3 0.3)">
          <a xlink:href="future_8hpp__dep__incl_org.svg" target="_base">
           <rect id="button" ry="5" rx="5" y="6" x="6" height="38" width="38"
                fill="#f2f5e9" fill-opacity="0.5" stroke="#606060" stroke-width="1.0"/>
           <path id="arrow"
             d="M 11.500037,31.436501 C 11.940474,20.09759 22.043105,11.32322 32.158766,21.979434 L 37.068811,17.246167 C 37.068811,17.246167 37.088388,32 37.088388,32 L 22.160133,31.978069 C 22.160133,31.978069 26.997745,27.140456 26.997745,27.140456 C 18.528582,18.264221 13.291696,25.230495 11.500037,31.436501 z"
             style="fill:#404040;"/>
          </a>
         </g>
        </svg>
</svg>
