<?xml version="1.0" encoding="UTF-8" standalone="no"?>
<!DOCTYPE svg PUBLIC "-//W3C//DTD SVG 1.1//EN"
 "http://www.w3.org/Graphics/SVG/1.1/DTD/svg11.dtd">
<!-- Generated by graphviz version 3.0.0 (20221109.1736)
 -->
<!-- Title: include/yaclib/async/detail/future_impl.hpp Pages: 1 -->
<!--zoomable 374 -->
<svg id="main" version="1.1" xmlns="http://www.w3.org/2000/svg" xmlns:xlink="http://www.w3.org/1999/xlink" xml:space="preserve" onload="init(evt)">
<style type="text/css"><![CDATA[
.edge:hover path { stroke: red; }
.edge:hover polygon { stroke: red; fill: red; }
]]></style>
<script type="text/javascript"><![CDATA[
var edges = document.getElementsByTagName('g');
if (edges && edges.length) {
  for (var i=0;i<edges.length;i++) {
    if (edges[i].id.substr(0,4)=='edge') {
      edges[i].setAttribute('class','edge');
    }
  }
}
]]></script>
        <defs>
                <circle id="rim" cx="0" cy="0" r="7"/>
                <circle id="rim2" cx="0" cy="0" r="3.5"/>
                <g id="zoomPlus">
                        <use xlink:href="#rim" fill="#404040">
                                <set attributeName="fill" to="#808080" begin="zoomplus.mouseover" end="zoomplus.mouseout"/>
                        </use>
                        <path d="M-4,0h8M0,-4v8" fill="none" stroke="white" stroke-width="1.5" pointer-events="none"/>
                </g>
                <g id="zoomMin">
                        <use xlink:href="#rim" fill="#404040">
                                <set attributeName="fill" to="#808080" begin="zoomminus.mouseover" end="zoomminus.mouseout"/>
                        </use>
                        <path d="M-4,0h8" fill="none" stroke="white" stroke-width="1.5" pointer-events="none"/>
                </g>
                <g id="dirArrow">
                        <path fill="none" stroke="white" stroke-width="1.5" d="M0,-3.0v7 M-2.5,-0.5L0,-3.0L2.5,-0.5"/>
                </g>
               <g id="resetDef">
                       <use xlink:href="#rim2" fill="#404040">
                               <set attributeName="fill" to="#808080" begin="reset.mouseover" end="reset.mouseout"/>
                       </use>
               </g>
        </defs>

<script type="text/javascript">
var viewWidth = 1890;
var viewHeight = 374;
var sectionId = 'dynsection-1';
</script>
<script xlink:href="svgpan.js"/>
<svg id="graph" class="graph">
<g id="viewport">
<title>include/yaclib/async/detail/future_impl.hpp</title>
<!-- Node1 -->
<g id="node1" class="node">
<title>Node1</title>
<g id="a_node1"><a xlink:title=" ">
<polygon fill="#bfbfbf" stroke="black" points="364,-335.5 364,-365.5 476,-365.5 476,-335.5 364,-335.5"/>
<text text-anchor="start" x="372" y="-353.5" font-family="Helvetica,sans-Serif" font-size="10.00">include/yaclib/async</text>
<text text-anchor="middle" x="420" y="-342.5" font-family="Helvetica,sans-Serif" font-size="10.00">/detail/future_impl.hpp</text>
</a>
</g>
</g>
<!-- Node2 -->
<g id="node2" class="node">
<title>Node2</title>
<g id="a_node2"><a xlink:href="async_2future_8hpp.html" target="_top" xlink:title=" ">
<polygon fill="none" stroke="black" points="733,-268.5 733,-298.5 837,-298.5 837,-268.5 733,-268.5"/>
<text text-anchor="start" x="741" y="-286.5" font-family="Helvetica,sans-Serif" font-size="10.00">include/yaclib/async</text>
<text text-anchor="middle" x="785" y="-275.5" font-family="Helvetica,sans-Serif" font-size="10.00">/future.hpp</text>
</a>
</g>
</g>
<!-- Node1&#45;&gt;Node2 -->
<g id="edge1" class="edge">
<title>Node1&#45;&gt;Node2</title>
<path fill="none" stroke="midnightblue" d="M486.38,-337.68C557.23,-325.06 668,-305.34 732.85,-293.79"/>
<polygon fill="midnightblue" stroke="midnightblue" points="485.46,-334.29 476.23,-339.49 486.69,-341.18 485.46,-334.29"/>
</g>
<!-- Node3 -->
<g id="node3" class="node">
<title>Node3</title>
<g id="a_node3"><a xlink:href="wait__group_8hpp.html" target="_top" xlink:title=" ">
<polygon fill="none" stroke="black" points="1642,-201.5 1642,-231.5 1738,-231.5 1738,-201.5 1642,-201.5"/>
<text text-anchor="start" x="1650" y="-219.5" font-family="Helvetica,sans-Serif" font-size="10.00">include/yaclib/algo</text>
<text text-anchor="middle" x="1690" y="-208.5" font-family="Helvetica,sans-Serif" font-size="10.00">/wait_group.hpp</text>
</a>
</g>
</g>
<!-- Node2&#45;&gt;Node3 -->
<g id="edge2" class="edge">
<title>Node2&#45;&gt;Node3</title>
<path fill="none" stroke="midnightblue" d="M847.2,-278.24C971.46,-269.71 1259.24,-249.8 1501,-232 1548.92,-228.47 1603.65,-224.25 1641.84,-221.28"/>
<polygon fill="midnightblue" stroke="midnightblue" points="846.85,-274.76 837.11,-278.93 847.33,-281.74 846.85,-274.76"/>
</g>
<!-- Node5 -->
<g id="node5" class="node">
<title>Node5</title>
<g id="a_node5"><a xlink:href="contract_8hpp.html" target="_top" xlink:title=" ">
<polygon fill="none" stroke="black" points="160,-201.5 160,-231.5 264,-231.5 264,-201.5 160,-201.5"/>
<text text-anchor="start" x="168" y="-219.5" font-family="Helvetica,sans-Serif" font-size="10.00">include/yaclib/async</text>
<text text-anchor="middle" x="212" y="-208.5" font-family="Helvetica,sans-Serif" font-size="10.00">/contract.hpp</text>
</a>
</g>
</g>
<!-- Node2&#45;&gt;Node5 -->
<g id="edge4" class="edge">
<title>Node2&#45;&gt;Node5</title>
<path fill="none" stroke="midnightblue" d="M722.53,-279.07C625.73,-273.13 433.86,-258.92 273,-232 270.1,-231.51 267.14,-230.97 264.15,-230.39"/>
<polygon fill="midnightblue" stroke="midnightblue" points="722.54,-282.57 732.73,-279.68 722.96,-275.59 722.54,-282.57"/>
</g>
<!-- Node6 -->
<g id="node6" class="node">
<title>Node6</title>
<g id="a_node6"><a xlink:href="simple_8cpp.html" target="_top" xlink:title=" ">
<polygon fill="none" stroke="black" points="161.5,-134.5 161.5,-164.5 262.5,-164.5 262.5,-134.5 161.5,-134.5"/>
<text text-anchor="start" x="169.5" y="-152.5" font-family="Helvetica,sans-Serif" font-size="10.00">test/example/async</text>
<text text-anchor="middle" x="212" y="-141.5" font-family="Helvetica,sans-Serif" font-size="10.00">/simple.cpp</text>
</a>
</g>
</g>
<!-- Node2&#45;&gt;Node6 -->
<g id="edge43" class="edge">
<title>Node2&#45;&gt;Node6</title>
<path fill="none" stroke="midnightblue" d="M722.84,-282.22C570.71,-280.91 189.29,-273.46 151,-232 130.74,-210.06 163.81,-181.57 188.63,-164.74"/>
<polygon fill="midnightblue" stroke="midnightblue" points="722.93,-285.73 732.95,-282.31 722.98,-278.73 722.93,-285.73"/>
</g>
<!-- Node7 -->
<g id="node7" class="node">
<title>Node7</title>
<g id="a_node7"><a xlink:href="when__impl_8hpp.html" target="_top" xlink:title=" ">
<polygon fill="none" stroke="black" points="445,-201.5 445,-231.5 555,-231.5 555,-201.5 445,-201.5"/>
<text text-anchor="start" x="453" y="-219.5" font-family="Helvetica,sans-Serif" font-size="10.00">include/yaclib/async</text>
<text text-anchor="middle" x="500" y="-208.5" font-family="Helvetica,sans-Serif" font-size="10.00">/detail/when_impl.hpp</text>
</a>
</g>
</g>
<!-- Node2&#45;&gt;Node7 -->
<g id="edge6" class="edge">
<title>Node2&#45;&gt;Node7</title>
<path fill="none" stroke="midnightblue" d="M722.7,-268.29C672.76,-256.9 603.35,-241.07 555.35,-230.12"/>
<polygon fill="midnightblue" stroke="midnightblue" points="722.2,-271.77 732.73,-270.58 723.76,-264.94 722.2,-271.77"/>
</g>
<!-- Node9 -->
<g id="node9" class="node">
<title>Node9</title>
<g id="a_node9"><a xlink:href="when__all_8hpp.html" target="_top" xlink:title=" ">
<polygon fill="none" stroke="black" points="589,-67.5 589,-97.5 693,-97.5 693,-67.5 589,-67.5"/>
<text text-anchor="start" x="597" y="-85.5" font-family="Helvetica,sans-Serif" font-size="10.00">include/yaclib/async</text>
<text text-anchor="middle" x="641" y="-74.5" font-family="Helvetica,sans-Serif" font-size="10.00">/when_all.hpp</text>
</a>
</g>
</g>
<!-- Node2&#45;&gt;Node9 -->
<g id="edge24" class="edge">
<title>Node2&#45;&gt;Node9</title>
<path fill="none" stroke="midnightblue" d="M722.78,-273.5C675.73,-265.28 616.79,-251.42 602,-232 593.65,-221.04 593.42,-211.78 602,-201 646.3,-145.32 713.7,-220.68 758,-165 781.89,-134.97 733.96,-111.43 692.42,-97.53"/>
<polygon fill="midnightblue" stroke="midnightblue" points="722.48,-277 732.93,-275.22 723.65,-270.1 722.48,-277"/>
</g>
<!-- Node12 -->
<g id="node12" class="node">
<title>Node12</title>
<g id="a_node12"><a xlink:href="when__any_8hpp.html" target="_top" xlink:title=" ">
<polygon fill="none" stroke="black" points="360,-67.5 360,-97.5 464,-97.5 464,-67.5 360,-67.5"/>
<text text-anchor="start" x="368" y="-85.5" font-family="Helvetica,sans-Serif" font-size="10.00">include/yaclib/async</text>
<text text-anchor="middle" x="412" y="-74.5" font-family="Helvetica,sans-Serif" font-size="10.00">/when_any.hpp</text>
</a>
</g>
</g>
<!-- Node2&#45;&gt;Node12 -->
<g id="edge25" class="edge">
<title>Node2&#45;&gt;Node12</title>
<path fill="none" stroke="midnightblue" d="M722.79,-281.03C634.49,-277.71 478.75,-266.94 436,-232 395.96,-199.27 403.5,-128.34 408.97,-97.87"/>
<polygon fill="midnightblue" stroke="midnightblue" points="722.84,-284.53 732.95,-281.39 723.08,-277.54 722.84,-284.53"/>
</g>
<!-- Node14 -->
<g id="node14" class="node">
<title>Node14</title>
<g id="a_node14"><a xlink:href="async_2make_8hpp.html" target="_top" xlink:title=" ">
<polygon fill="none" stroke="black" points="611,-201.5 611,-231.5 715,-231.5 715,-201.5 611,-201.5"/>
<text text-anchor="start" x="619" y="-219.5" font-family="Helvetica,sans-Serif" font-size="10.00">include/yaclib/async</text>
<text text-anchor="middle" x="663" y="-208.5" font-family="Helvetica,sans-Serif" font-size="10.00">/make.hpp</text>
</a>
</g>
</g>
<!-- Node2&#45;&gt;Node14 -->
<g id="edge15" class="edge">
<title>Node2&#45;&gt;Node14</title>
<path fill="none" stroke="midnightblue" d="M749.48,-263.57C730.29,-253.35 707,-240.94 689.42,-231.58"/>
<polygon fill="midnightblue" stroke="midnightblue" points="748.06,-266.78 758.53,-268.4 751.35,-260.6 748.06,-266.78"/>
</g>
<!-- Node15 -->
<g id="node15" class="node">
<title>Node15</title>
<g id="a_node15"><a xlink:href="run_8hpp.html" target="_top" xlink:title=" ">
<polygon fill="none" stroke="black" points="282,-201.5 282,-231.5 386,-231.5 386,-201.5 282,-201.5"/>
<text text-anchor="start" x="290" y="-219.5" font-family="Helvetica,sans-Serif" font-size="10.00">include/yaclib/async</text>
<text text-anchor="middle" x="334" y="-208.5" font-family="Helvetica,sans-Serif" font-size="10.00">/run.hpp</text>
</a>
</g>
</g>
<!-- Node2&#45;&gt;Node15 -->
<g id="edge16" class="edge">
<title>Node2&#45;&gt;Node15</title>
<path fill="none" stroke="midnightblue" d="M722.39,-275.96C646,-267.59 513.05,-251.79 400,-232 395.49,-231.21 390.83,-230.33 386.16,-229.39"/>
<polygon fill="midnightblue" stroke="midnightblue" points="722.47,-279.49 732.79,-277.09 723.22,-272.53 722.47,-279.49"/>
</g>
<!-- Node16 -->
<g id="node16" class="node">
<title>Node16</title>
<g id="a_node16"><a xlink:href="wait_8hpp.html" target="_top" xlink:title=" ">
<polygon fill="none" stroke="black" points="0,-201.5 0,-231.5 104,-231.5 104,-201.5 0,-201.5"/>
<text text-anchor="start" x="8" y="-219.5" font-family="Helvetica,sans-Serif" font-size="10.00">include/yaclib/async</text>
<text text-anchor="middle" x="52" y="-208.5" font-family="Helvetica,sans-Serif" font-size="10.00">/wait.hpp</text>
</a>
</g>
</g>
<!-- Node2&#45;&gt;Node16 -->
<g id="edge20" class="edge">
<title>Node2&#45;&gt;Node16</title>
<path fill="none" stroke="midnightblue" d="M722.51,-280.7C604.04,-276.64 338.83,-264.45 118,-232 113.47,-231.33 108.79,-230.54 104.11,-229.66"/>
<polygon fill="midnightblue" stroke="midnightblue" points="722.72,-284.21 732.83,-281.05 722.96,-277.21 722.72,-284.21"/>
</g>
<!-- Node17 -->
<g id="node17" class="node">
<title>Node17</title>
<g id="a_node17"><a xlink:href="wait__for_8hpp.html" target="_top" xlink:title=" ">
<polygon fill="none" stroke="black" points="733,-201.5 733,-231.5 837,-231.5 837,-201.5 733,-201.5"/>
<text text-anchor="start" x="741" y="-219.5" font-family="Helvetica,sans-Serif" font-size="10.00">include/yaclib/async</text>
<text text-anchor="middle" x="785" y="-208.5" font-family="Helvetica,sans-Serif" font-size="10.00">/wait_for.hpp</text>
</a>
</g>
</g>
<!-- Node2&#45;&gt;Node17 -->
<g id="edge22" class="edge">
<title>Node2&#45;&gt;Node17</title>
<path fill="none" stroke="midnightblue" d="M785,-258.11C785,-249.15 785,-239.32 785,-231.58"/>
<polygon fill="midnightblue" stroke="midnightblue" points="781.5,-258.4 785,-268.4 788.5,-258.4 781.5,-258.4"/>
</g>
<!-- Node18 -->
<g id="node18" class="node">
<title>Node18</title>
<g id="a_node18"><a xlink:href="wait__until_8hpp.html" target="_top" xlink:title=" ">
<polygon fill="none" stroke="black" points="855,-201.5 855,-231.5 959,-231.5 959,-201.5 855,-201.5"/>
<text text-anchor="start" x="863" y="-219.5" font-family="Helvetica,sans-Serif" font-size="10.00">include/yaclib/async</text>
<text text-anchor="middle" x="907" y="-208.5" font-family="Helvetica,sans-Serif" font-size="10.00">/wait_until.hpp</text>
</a>
</g>
</g>
<!-- Node2&#45;&gt;Node18 -->
<g id="edge23" class="edge">
<title>Node2&#45;&gt;Node18</title>
<path fill="none" stroke="midnightblue" d="M820.52,-263.57C839.71,-253.35 863,-240.94 880.58,-231.58"/>
<polygon fill="midnightblue" stroke="midnightblue" points="818.65,-260.6 811.47,-268.4 821.94,-266.78 818.65,-260.6"/>
</g>
<!-- Node19 -->
<g id="node19" class="node">
<title>Node19</title>
<g id="a_node19"><a xlink:href="await_8hpp.html" target="_top" xlink:title=" ">
<polygon fill="none" stroke="black" points="866.5,-67.5 866.5,-97.5 963.5,-97.5 963.5,-67.5 866.5,-67.5"/>
<text text-anchor="start" x="874.5" y="-85.5" font-family="Helvetica,sans-Serif" font-size="10.00">include/yaclib/coro</text>
<text text-anchor="middle" x="915" y="-74.5" font-family="Helvetica,sans-Serif" font-size="10.00">/await.hpp</text>
</a>
</g>
</g>
<!-- Node2&#45;&gt;Node19 -->
<g id="edge26" class="edge">
<title>Node2&#45;&gt;Node19</title>
<path fill="none" stroke="midnightblue" d="M847.22,-273.5C894.27,-265.28 953.21,-251.42 968,-232 976.35,-221.04 975.03,-212.85 968,-201 950.94,-172.27 919.06,-193.73 902,-165 889.49,-143.93 899.49,-114.65 907.52,-97.52"/>
<polygon fill="midnightblue" stroke="midnightblue" points="846.35,-270.1 837.07,-275.22 847.52,-277 846.35,-270.1"/>
</g>
<!-- Node20 -->
<g id="node20" class="node">
<title>Node20</title>
<g id="a_node20"><a xlink:href="await__on_8hpp.html" target="_top" xlink:title=" ">
<polygon fill="none" stroke="black" points="1063.5,-67.5 1063.5,-97.5 1160.5,-97.5 1160.5,-67.5 1063.5,-67.5"/>
<text text-anchor="start" x="1071.5" y="-85.5" font-family="Helvetica,sans-Serif" font-size="10.00">include/yaclib/coro</text>
<text text-anchor="middle" x="1112" y="-74.5" font-family="Helvetica,sans-Serif" font-size="10.00">/await_on.hpp</text>
</a>
</g>
</g>
<!-- Node2&#45;&gt;Node20 -->
<g id="edge27" class="edge">
<title>Node2&#45;&gt;Node20</title>
<path fill="none" stroke="midnightblue" d="M847.15,-282.04C897.59,-278.81 968.4,-267.51 1019,-232 1025.43,-227.49 1082,-133.63 1103.63,-97.5"/>
<polygon fill="midnightblue" stroke="midnightblue" points="846.82,-278.55 837.03,-282.59 847.21,-285.54 846.82,-278.55"/>
</g>
<!-- Node21 -->
<g id="node21" class="node">
<title>Node21</title>
<g id="a_node21"><a xlink:href="await__awaiter_8hpp.html" target="_top" xlink:title=" ">
<polygon fill="none" stroke="black" points="911,-134.5 911,-164.5 1035,-164.5 1035,-134.5 911,-134.5"/>
<text text-anchor="start" x="919" y="-152.5" font-family="Helvetica,sans-Serif" font-size="10.00">include/yaclib/coro</text>
<text text-anchor="middle" x="973" y="-141.5" font-family="Helvetica,sans-Serif" font-size="10.00">/detail/await_awaiter.hpp</text>
</a>
</g>
</g>
<!-- Node2&#45;&gt;Node21 -->
<g id="edge28" class="edge">
<title>Node2&#45;&gt;Node21</title>
<path fill="none" stroke="midnightblue" d="M847.15,-276.48C904,-269.53 982.06,-255.87 1001,-232 1016.99,-211.84 998.85,-181.98 985.23,-164.55"/>
<polygon fill="midnightblue" stroke="midnightblue" points="846.67,-273.01 837.15,-277.66 847.49,-279.96 846.67,-273.01"/>
</g>
<!-- Node22 -->
<g id="node22" class="node">
<title>Node22</title>
<g id="a_node22"><a xlink:href="await__on__awaiter_8hpp.html" target="_top" xlink:title=" ">
<polygon fill="none" stroke="black" points="1091,-134.5 1091,-164.5 1231,-164.5 1231,-134.5 1091,-134.5"/>
<text text-anchor="start" x="1099" y="-152.5" font-family="Helvetica,sans-Serif" font-size="10.00">include/yaclib/coro</text>
<text text-anchor="middle" x="1161" y="-141.5" font-family="Helvetica,sans-Serif" font-size="10.00">/detail/await_on_awaiter.hpp</text>
</a>
</g>
</g>
<!-- Node2&#45;&gt;Node22 -->
<g id="edge30" class="edge">
<title>Node2&#45;&gt;Node22</title>
<path fill="none" stroke="midnightblue" d="M847.54,-282.23C909.05,-279.6 1004.08,-269.11 1077,-232 1108.87,-215.78 1136.62,-183.34 1150.86,-164.65"/>
<polygon fill="midnightblue" stroke="midnightblue" points="847.08,-278.74 837.21,-282.61 847.33,-285.74 847.08,-278.74"/>
</g>
<!-- Node23 -->
<g id="node23" class="node">
<title>Node23</title>
<g id="a_node23"><a xlink:href="coro_2future_8hpp.html" target="_top" xlink:title=" ">
<polygon fill="none" stroke="black" points="1249.5,-134.5 1249.5,-164.5 1346.5,-164.5 1346.5,-134.5 1249.5,-134.5"/>
<text text-anchor="start" x="1257.5" y="-152.5" font-family="Helvetica,sans-Serif" font-size="10.00">include/yaclib/coro</text>
<text text-anchor="middle" x="1298" y="-141.5" font-family="Helvetica,sans-Serif" font-size="10.00">/future.hpp</text>
</a>
</g>
</g>
<!-- Node2&#45;&gt;Node23 -->
<g id="edge32" class="edge">
<title>Node2&#45;&gt;Node23</title>
<path fill="none" stroke="midnightblue" d="M847.48,-277.71C914.07,-271.48 1022.08,-258.16 1112,-232 1171.24,-214.77 1236.41,-183.01 1271.71,-164.64"/>
<polygon fill="midnightblue" stroke="midnightblue" points="846.8,-274.25 837.16,-278.65 847.43,-281.23 846.8,-274.25"/>
</g>
<!-- Node24 -->
<g id="node24" class="node">
<title>Node24</title>
<g id="a_node24"><a xlink:href="lazy_2task_8hpp.html" target="_top" xlink:title=" ">
<polygon fill="none" stroke="black" points="1250.5,-201.5 1250.5,-231.5 1345.5,-231.5 1345.5,-201.5 1250.5,-201.5"/>
<text text-anchor="start" x="1258.5" y="-219.5" font-family="Helvetica,sans-Serif" font-size="10.00">include/yaclib/lazy</text>
<text text-anchor="middle" x="1298" y="-208.5" font-family="Helvetica,sans-Serif" font-size="10.00">/task.hpp</text>
</a>
</g>
</g>
<!-- Node2&#45;&gt;Node24 -->
<g id="edge33" class="edge">
<title>Node2&#45;&gt;Node24</title>
<path fill="none" stroke="midnightblue" d="M847.05,-276.99C932.44,-269.05 1090.86,-252.98 1225,-232 1233.17,-230.72 1241.82,-229.18 1250.19,-227.58"/>
<polygon fill="midnightblue" stroke="midnightblue" points="846.64,-273.52 837,-277.92 847.28,-280.49 846.64,-273.52"/>
</g>
<!-- Node29 -->
<g id="node29" class="node">
<title>Node29</title>
<g id="a_node29"><a xlink:href="future__impl_8cpp.html" target="_top" xlink:title=" ">
<polygon fill="none" stroke="black" points="1364,-207 1364,-226 1492,-226 1492,-207 1364,-207"/>
<text text-anchor="middle" x="1428" y="-214" font-family="Helvetica,sans-Serif" font-size="10.00">src/async/future_impl.cpp</text>
</a>
</g>
</g>
<!-- Node2&#45;&gt;Node29 -->
<g id="edge42" class="edge">
<title>Node2&#45;&gt;Node29</title>
<path fill="none" stroke="midnightblue" d="M847.49,-279.11C952.49,-272.92 1170.84,-258 1354,-232 1365.28,-230.4 1377.44,-228.21 1388.57,-226.02"/>
<polygon fill="midnightblue" stroke="midnightblue" points="847.16,-275.62 837.38,-279.7 847.57,-282.61 847.16,-275.62"/>
</g>
<!-- Node4 -->
<g id="node4" class="node">
<title>Node4</title>
<g id="a_node4"><a xlink:href="wait__group_8cpp.html" target="_top" xlink:title=" ">
<polygon fill="none" stroke="black" points="1762.5,-140 1762.5,-159 1881.5,-159 1881.5,-140 1762.5,-140"/>
<text text-anchor="middle" x="1822" y="-147" font-family="Helvetica,sans-Serif" font-size="10.00">src/algo/wait_group.cpp</text>
</a>
</g>
</g>
<!-- Node3&#45;&gt;Node4 -->
<g id="edge3" class="edge">
<title>Node3&#45;&gt;Node4</title>
<path fill="none" stroke="midnightblue" d="M1727.64,-196.97C1752.99,-184.48 1785.25,-168.6 1804.72,-159.01"/>
<polygon fill="midnightblue" stroke="midnightblue" points="1726.07,-193.84 1718.64,-201.4 1729.16,-200.12 1726.07,-193.84"/>
</g>
<!-- Node5&#45;&gt;Node6 -->
<g id="edge5" class="edge">
<title>Node5&#45;&gt;Node6</title>
<path fill="none" stroke="midnightblue" d="M212,-191.11C212,-182.15 212,-172.32 212,-164.58"/>
<polygon fill="midnightblue" stroke="midnightblue" points="208.5,-191.4 212,-201.4 215.5,-191.4 208.5,-191.4"/>
</g>
<!-- Node8 -->
<g id="node8" class="node">
<title>Node8</title>
<g id="a_node8"><a xlink:href="when__all__impl_8hpp.html" target="_top" xlink:title=" ">
<polygon fill="none" stroke="black" points="624.5,-134.5 624.5,-164.5 749.5,-164.5 749.5,-134.5 624.5,-134.5"/>
<text text-anchor="start" x="632.5" y="-152.5" font-family="Helvetica,sans-Serif" font-size="10.00">include/yaclib/async</text>
<text text-anchor="middle" x="687" y="-141.5" font-family="Helvetica,sans-Serif" font-size="10.00">/detail/when_all_impl.hpp</text>
</a>
</g>
</g>
<!-- Node7&#45;&gt;Node8 -->
<g id="edge7" class="edge">
<title>Node7&#45;&gt;Node8</title>
<path fill="none" stroke="midnightblue" d="M550.08,-198.09C580.27,-187.6 618.22,-174.41 646.5,-164.58"/>
<polygon fill="midnightblue" stroke="midnightblue" points="548.87,-194.81 540.58,-201.4 551.17,-201.42 548.87,-194.81"/>
</g>
<!-- Node7&#45;&gt;Node9 -->
<g id="edge13" class="edge">
<title>Node7&#45;&gt;Node9</title>
<path fill="none" stroke="midnightblue" d="M534.08,-196.04C547.81,-187.41 563.36,-176.59 576,-165 598.81,-144.09 620.15,-114.75 631.81,-97.57"/>
<polygon fill="midnightblue" stroke="midnightblue" points="532.07,-193.17 525.37,-201.38 535.73,-199.14 532.07,-193.17"/>
</g>
<!-- Node11 -->
<g id="node11" class="node">
<title>Node11</title>
<g id="a_node11"><a xlink:href="when__any__impl_8hpp.html" target="_top" xlink:title=" ">
<polygon fill="none" stroke="black" points="436.5,-134.5 436.5,-164.5 567.5,-164.5 567.5,-134.5 436.5,-134.5"/>
<text text-anchor="start" x="444.5" y="-152.5" font-family="Helvetica,sans-Serif" font-size="10.00">include/yaclib/async</text>
<text text-anchor="middle" x="502" y="-141.5" font-family="Helvetica,sans-Serif" font-size="10.00">/detail/when_any_impl.hpp</text>
</a>
</g>
</g>
<!-- Node7&#45;&gt;Node11 -->
<g id="edge10" class="edge">
<title>Node7&#45;&gt;Node11</title>
<path fill="none" stroke="midnightblue" d="M500.75,-191.11C501.03,-182.15 501.33,-172.32 501.57,-164.58"/>
<polygon fill="midnightblue" stroke="midnightblue" points="497.24,-191.29 500.43,-201.4 504.24,-191.51 497.24,-191.29"/>
</g>
<!-- Node7&#45;&gt;Node12 -->
<g id="edge14" class="edge">
<title>Node7&#45;&gt;Node12</title>
<path fill="none" stroke="midnightblue" d="M460.7,-196.3C448.11,-188.29 435.29,-177.83 427,-165 413.65,-144.34 411.44,-114.92 411.45,-97.65"/>
<polygon fill="midnightblue" stroke="midnightblue" points="458.94,-199.33 469.32,-201.45 462.53,-193.32 458.94,-199.33"/>
</g>
<!-- Node8&#45;&gt;Node9 -->
<g id="edge8" class="edge">
<title>Node8&#45;&gt;Node9</title>
<path fill="none" stroke="midnightblue" d="M671.19,-126.16C664.48,-116.68 656.87,-105.92 650.96,-97.58"/>
<polygon fill="midnightblue" stroke="midnightblue" points="668.38,-128.26 677.02,-134.4 674.1,-124.21 668.38,-128.26"/>
</g>
<!-- Node10 -->
<g id="node10" class="node">
<title>Node10</title>
<g id="a_node10"><a xlink:href="when__all_8cpp.html" target="_top" xlink:title=" ">
<polygon fill="none" stroke="black" points="483.5,-0.5 483.5,-30.5 584.5,-30.5 584.5,-0.5 483.5,-0.5"/>
<text text-anchor="start" x="491.5" y="-18.5" font-family="Helvetica,sans-Serif" font-size="10.00">test/example/async</text>
<text text-anchor="middle" x="534" y="-7.5" font-family="Helvetica,sans-Serif" font-size="10.00">/when_all.cpp</text>
</a>
</g>
</g>
<!-- Node9&#45;&gt;Node10 -->
<g id="edge9" class="edge">
<title>Node9&#45;&gt;Node10</title>
<path fill="none" stroke="midnightblue" d="M608.92,-62.02C592.27,-51.9 572.31,-39.77 557.17,-30.58"/>
<polygon fill="midnightblue" stroke="midnightblue" points="607.42,-65.2 617.78,-67.4 611.05,-59.21 607.42,-65.2"/>
</g>
<!-- Node11&#45;&gt;Node12 -->
<g id="edge11" class="edge">
<title>Node11&#45;&gt;Node12</title>
<path fill="none" stroke="midnightblue" d="M474.24,-128.45C460.39,-118.45 443.98,-106.6 431.49,-97.58"/>
<polygon fill="midnightblue" stroke="midnightblue" points="472.32,-131.38 482.47,-134.4 476.41,-125.7 472.32,-131.38"/>
</g>
<!-- Node13 -->
<g id="node13" class="node">
<title>Node13</title>
<g id="a_node13"><a xlink:href="when__any_8cpp.html" target="_top" xlink:title=" ">
<polygon fill="none" stroke="black" points="302.5,-0.5 302.5,-30.5 403.5,-30.5 403.5,-0.5 302.5,-0.5"/>
<text text-anchor="start" x="310.5" y="-18.5" font-family="Helvetica,sans-Serif" font-size="10.00">test/example/async</text>
<text text-anchor="middle" x="353" y="-7.5" font-family="Helvetica,sans-Serif" font-size="10.00">/when_any.cpp</text>
</a>
</g>
</g>
<!-- Node12&#45;&gt;Node13 -->
<g id="edge12" class="edge">
<title>Node12&#45;&gt;Node13</title>
<path fill="none" stroke="midnightblue" d="M392.25,-59.74C383.52,-50.12 373.5,-39.09 365.78,-30.58"/>
<polygon fill="midnightblue" stroke="midnightblue" points="389.89,-62.34 399.2,-67.4 395.07,-57.64 389.89,-62.34"/>
</g>
<!-- Node15&#45;&gt;Node6 -->
<g id="edge17" class="edge">
<title>Node15&#45;&gt;Node6</title>
<path fill="none" stroke="midnightblue" d="M298.48,-196.57C279.29,-186.35 256,-173.94 238.42,-164.58"/>
<polygon fill="midnightblue" stroke="midnightblue" points="297.06,-199.78 307.53,-201.4 300.35,-193.6 297.06,-199.78"/>
</g>
<!-- Node15&#45;&gt;Node10 -->
<g id="edge18" class="edge">
<title>Node15&#45;&gt;Node10</title>
<path fill="none" stroke="midnightblue" d="M329.25,-191.28C324.41,-158.94 321.29,-101.72 351,-67 368.14,-46.97 435.34,-32.25 483.33,-24.03"/>
<polygon fill="midnightblue" stroke="midnightblue" points="325.81,-191.93 330.91,-201.22 332.72,-190.78 325.81,-191.93"/>
</g>
<!-- Node15&#45;&gt;Node13 -->
<g id="edge19" class="edge">
<title>Node15&#45;&gt;Node13</title>
<path fill="none" stroke="midnightblue" d="M324.82,-191.74C322.05,-183.42 319.38,-173.92 318,-165 311.34,-121.96 305,-108.57 318,-67 322.27,-53.36 331.66,-40.16 339.64,-30.68"/>
<polygon fill="midnightblue" stroke="midnightblue" points="321.53,-192.94 328.17,-201.2 328.13,-190.6 321.53,-192.94"/>
</g>
<!-- Node16&#45;&gt;Node1 -->
<g id="edge21" class="edge">
<title>Node16&#45;&gt;Node1</title>
<path fill="none" stroke="midnightblue" d="M100.73,-234.98C174.57,-261.46 313.34,-311.24 380.97,-335.5"/>
<polygon fill="midnightblue" stroke="midnightblue" points="101.78,-231.64 91.19,-231.56 99.42,-238.23 101.78,-231.64"/>
</g>
<!-- Node21&#45;&gt;Node19 -->
<g id="edge29" class="edge">
<title>Node21&#45;&gt;Node19</title>
<path fill="none" stroke="midnightblue" d="M953.58,-126.74C945,-117.12 935.16,-106.09 927.56,-97.58"/>
<polygon fill="midnightblue" stroke="midnightblue" points="951.15,-129.26 960.41,-134.4 956.37,-124.6 951.15,-129.26"/>
</g>
<!-- Node22&#45;&gt;Node20 -->
<g id="edge31" class="edge">
<title>Node22&#45;&gt;Node20</title>
<path fill="none" stroke="midnightblue" d="M1144.16,-126.16C1137.01,-116.68 1128.9,-105.92 1122.61,-97.58"/>
<polygon fill="midnightblue" stroke="midnightblue" points="1141.55,-128.52 1150.37,-134.4 1147.14,-124.3 1141.55,-128.52"/>
</g>
<!-- Node24&#45;&gt;Node21 -->
<g id="edge34" class="edge">
<title>Node24&#45;&gt;Node21</title>
<path fill="none" stroke="midnightblue" d="M1240.36,-203.97C1182.73,-192.45 1094.4,-174.78 1035.21,-162.94"/>
<polygon fill="midnightblue" stroke="midnightblue" points="1239.9,-207.45 1250.39,-205.98 1241.27,-200.59 1239.9,-207.45"/>
</g>
<!-- Node24&#45;&gt;Node22 -->
<g id="edge35" class="edge">
<title>Node24&#45;&gt;Node22</title>
<path fill="none" stroke="midnightblue" d="M1258.99,-196.99C1237.28,-186.69 1210.67,-174.07 1190.67,-164.58"/>
<polygon fill="midnightblue" stroke="midnightblue" points="1257.74,-200.27 1268.27,-201.4 1260.74,-193.95 1257.74,-200.27"/>
</g>
<!-- Node24&#45;&gt;Node23 -->
<g id="edge36" class="edge">
<title>Node24&#45;&gt;Node23</title>
<path fill="none" stroke="midnightblue" d="M1298,-191.11C1298,-182.15 1298,-172.32 1298,-164.58"/>
<polygon fill="midnightblue" stroke="midnightblue" points="1294.5,-191.4 1298,-201.4 1301.5,-191.4 1294.5,-191.4"/>
</g>
<!-- Node25 -->
<g id="node25" class="node">
<title>Node25</title>
<g id="a_node25"><a xlink:href="coro_2task_8hpp.html" target="_top" xlink:title=" ">
<polygon fill="none" stroke="black" points="1534.5,-134.5 1534.5,-164.5 1631.5,-164.5 1631.5,-134.5 1534.5,-134.5"/>
<text text-anchor="start" x="1542.5" y="-152.5" font-family="Helvetica,sans-Serif" font-size="10.00">include/yaclib/coro</text>
<text text-anchor="middle" x="1583" y="-141.5" font-family="Helvetica,sans-Serif" font-size="10.00">/task.hpp</text>
</a>
</g>
</g>
<!-- Node24&#45;&gt;Node25 -->
<g id="edge37" class="edge">
<title>Node24&#45;&gt;Node25</title>
<path fill="none" stroke="midnightblue" d="M1355.65,-200.91C1431.91,-183.36 1452.83,-181.66 1525,-165 1528.03,-164.3 1531.15,-163.56 1534.3,-162.81"/>
<polygon fill="midnightblue" stroke="midnightblue" points="1354.5,-197.58 1345.55,-203.25 1356.08,-204.4 1354.5,-197.58"/>
</g>
<!-- Node26 -->
<g id="node26" class="node">
<title>Node26</title>
<g id="a_node26"><a xlink:href="lazy_2make_8hpp.html" target="_top" xlink:title=" ">
<polygon fill="none" stroke="black" points="1488.5,-67.5 1488.5,-97.5 1583.5,-97.5 1583.5,-67.5 1488.5,-67.5"/>
<text text-anchor="start" x="1496.5" y="-85.5" font-family="Helvetica,sans-Serif" font-size="10.00">include/yaclib/lazy</text>
<text text-anchor="middle" x="1536" y="-74.5" font-family="Helvetica,sans-Serif" font-size="10.00">/make.hpp</text>
</a>
</g>
</g>
<!-- Node24&#45;&gt;Node26 -->
<g id="edge38" class="edge">
<title>Node24&#45;&gt;Node26</title>
<path fill="none" stroke="midnightblue" d="M1321.57,-194.72C1347.35,-172.11 1386.06,-138.58 1394,-134 1423.58,-116.95 1459.91,-104.16 1488.41,-95.72"/>
<polygon fill="midnightblue" stroke="midnightblue" points="1319.24,-192.11 1314.04,-201.34 1323.86,-197.37 1319.24,-192.11"/>
</g>
<!-- Node27 -->
<g id="node27" class="node">
<title>Node27</title>
<g id="a_node27"><a xlink:href="schedule_8hpp.html" target="_top" xlink:title=" ">
<polygon fill="none" stroke="black" points="1649.5,-134.5 1649.5,-164.5 1744.5,-164.5 1744.5,-134.5 1649.5,-134.5"/>
<text text-anchor="start" x="1657.5" y="-152.5" font-family="Helvetica,sans-Serif" font-size="10.00">include/yaclib/lazy</text>
<text text-anchor="middle" x="1697" y="-141.5" font-family="Helvetica,sans-Serif" font-size="10.00">/schedule.hpp</text>
</a>
</g>
</g>
<!-- Node24&#45;&gt;Node27 -->
<g id="edge39" class="edge">
<title>Node24&#45;&gt;Node27</title>
<path fill="none" stroke="midnightblue" d="M1355.9,-201C1482.68,-177.75 1518.37,-188.49 1641,-165 1643.76,-164.47 1646.59,-163.88 1649.44,-163.26"/>
<polygon fill="midnightblue" stroke="midnightblue" points="1354.98,-197.61 1345.8,-202.88 1356.27,-204.49 1354.98,-197.61"/>
</g>
<!-- Node28 -->
<g id="node28" class="node">
<title>Node28</title>
<g id="a_node28"><a xlink:href="task__impl_8cpp.html" target="_top" xlink:title=" ">
<polygon fill="none" stroke="black" points="1403.5,-140 1403.5,-159 1516.5,-159 1516.5,-140 1403.5,-140"/>
<text text-anchor="middle" x="1460" y="-147" font-family="Helvetica,sans-Serif" font-size="10.00">src/lazy/task_impl.cpp</text>
</a>
</g>
</g>
<!-- Node24&#45;&gt;Node28 -->
<g id="edge41" class="edge">
<title>Node24&#45;&gt;Node28</title>
<path fill="none" stroke="midnightblue" d="M1342.56,-197.62C1373.92,-185.04 1414.48,-168.77 1438.8,-159.01"/>
<polygon fill="midnightblue" stroke="midnightblue" points="1341.13,-194.42 1333.15,-201.4 1343.74,-200.92 1341.13,-194.42"/>
</g>
<!-- Node27&#45;&gt;Node26 -->
<g id="edge40" class="edge">
<title>Node27&#45;&gt;Node26</title>
<path fill="none" stroke="midnightblue" d="M1652.52,-130.54C1626.76,-120.14 1594.8,-107.24 1570.87,-97.58"/>
<polygon fill="midnightblue" stroke="midnightblue" points="1651.48,-133.9 1662.07,-134.4 1654.1,-127.41 1651.48,-133.9"/>
</g>
</g>
</svg>
        <g id="navigator" transform="translate(0 0)" fill="#404254">
                <rect fill="#f2f5e9" fill-opacity="0.5" stroke="#606060" stroke-width=".5" x="0" y="0" width="60" height="60"/>
                <use id="zoomplus" xlink:href="#zoomPlus" x="17" y="9" onmousedown="handleZoom(evt,'in')"/>
                <use id="zoomminus" xlink:href="#zoomMin" x="42" y="9" onmousedown="handleZoom(evt,'out')"/>
                <use id="reset" xlink:href="#resetDef" x="30" y="36" onmousedown="handleReset()"/>
                <g id="arrowUp" xlink:href="#dirArrow" transform="translate(30 24)" onmousedown="handlePan(0,-1)">
                  <use xlink:href="#rim" fill="#404040">
                        <set attributeName="fill" to="#808080" begin="arrowUp.mouseover" end="arrowUp.mouseout"/>
                  </use>
                  <path fill="none" stroke="white" stroke-width="1.5" d="M0,-3.0v7 M-2.5,-0.5L0,-3.0L2.5,-0.5"/>
                </g>
                <g id="arrowRight" xlink:href="#dirArrow" transform="rotate(90) translate(36 -43)" onmousedown="handlePan(1,0)">
                  <use xlink:href="#rim" fill="#404040">
                        <set attributeName="fill" to="#808080" begin="arrowRight.mouseover" end="arrowRight.mouseout"/>
                  </use>
                  <path fill="none" stroke="white" stroke-width="1.5" d="M0,-3.0v7 M-2.5,-0.5L0,-3.0L2.5,-0.5"/>
                </g>
                <g id="arrowDown" xlink:href="#dirArrow" transform="rotate(180) translate(-30 -48)" onmousedown="handlePan(0,1)">
                  <use xlink:href="#rim" fill="#404040">
                        <set attributeName="fill" to="#808080" begin="arrowDown.mouseover" end="arrowDown.mouseout"/>
                  </use>
                  <path fill="none" stroke="white" stroke-width="1.5" d="M0,-3.0v7 M-2.5,-0.5L0,-3.0L2.5,-0.5"/>
                </g>
                <g id="arrowLeft" xlink:href="#dirArrow" transform="rotate(270) translate(-36 17)" onmousedown="handlePan(-1,0)">
                  <use xlink:href="#rim" fill="#404040">
                        <set attributeName="fill" to="#808080" begin="arrowLeft.mouseover" end="arrowLeft.mouseout"/>
                  </use>
                  <path fill="none" stroke="white" stroke-width="1.5" d="M0,-3.0v7 M-2.5,-0.5L0,-3.0L2.5,-0.5"/>
                </g>
        </g>
        <svg viewBox="0 0 15 15" width="100%" height="30px" preserveAspectRatio="xMaxYMin meet">
         <g id="arrow_out" transform="scale(0.3 0.3)">
          <a xlink:href="future__impl_8hpp__dep__incl_org.svg" target="_base">
           <rect id="button" ry="5" rx="5" y="6" x="6" height="38" width="38"
                fill="#f2f5e9" fill-opacity="0.5" stroke="#606060" stroke-width="1.0"/>
           <path id="arrow"
             d="M 11.500037,31.436501 C 11.940474,20.09759 22.043105,11.32322 32.158766,21.979434 L 37.068811,17.246167 C 37.068811,17.246167 37.088388,32 37.088388,32 L 22.160133,31.978069 C 22.160133,31.978069 26.997745,27.140456 26.997745,27.140456 C 18.528582,18.264221 13.291696,25.230495 11.500037,31.436501 z"
             style="fill:#404040;"/>
          </a>
         </g>
        </svg>
</svg>
