<?xml version="1.0" encoding="UTF-8" standalone="no"?>
<!DOCTYPE svg PUBLIC "-//W3C//DTD SVG 1.1//EN"
 "http://www.w3.org/Graphics/SVG/1.1/DTD/svg11.dtd">
<!-- Generated by graphviz version 9.0.0 (20230911.1827)
 -->
<!-- Title: include/yaclib/coro/guard.hpp Pages: 1 -->
<svg width="258pt" height="172pt"
 viewBox="0.00 0.00 258.00 171.50" xmlns="http://www.w3.org/2000/svg" xmlns:xlink="http://www.w3.org/1999/xlink">

<svg id="main" version="1.1" xmlns="http://www.w3.org/2000/svg" xmlns:xlink="http://www.w3.org/1999/xlink" xml:space="preserve" onload="init(evt)">
<style type="text/css"><![CDATA[
.node, .edge {opacity: 0.7;}
.node.selected, .edge.selected {opacity: 1;}
.edge:hover path { stroke: red; }
.edge:hover polygon { stroke: red; fill: red; }
]]></style>
<script type="application/ecmascript" xlink:href="svg.min.js"/>
<svg id="graph" class="graph">
<g id="graph0" class="graph" transform="scale(1 1) rotate(0) translate(4 167.5)">
<title>include/yaclib/coro/guard.hpp</title>
<!-- Node1 -->
<g id="Node000001" class="node">
<title>Node1</title>
<g id="a_Node000001"><a xlink:title=" ">
<polygon fill="#999999" stroke="#666666" points="172.25,-163.5 76,-163.5 76,-133 172.25,-133 172.25,-163.5"/>
<text text-anchor="start" x="84" y="-150" font-family="Helvetica,sans-Serif" font-size="10.00">include/yaclib/coro</text>
<text text-anchor="middle" x="124.12" y="-138.75" font-family="Helvetica,sans-Serif" font-size="10.00">/guard.hpp</text>
</a>
</g>
</g>
<!-- Node2 -->
<g id="Node000002" class="node">
<title>Node2</title>
<g id="a_Node000002"><a xlink:href="guard__sticky_8hpp.html" target="_top" xlink:title=" ">
<polygon fill="white" stroke="#666666" points="96.25,-97 0,-97 0,-66.5 96.25,-66.5 96.25,-97"/>
<text text-anchor="start" x="8" y="-83.5" font-family="Helvetica,sans-Serif" font-size="10.00">include/yaclib/coro</text>
<text text-anchor="middle" x="48.12" y="-72.25" font-family="Helvetica,sans-Serif" font-size="10.00">/guard_sticky.hpp</text>
</a>
</g>
</g>
<!-- Node1&#45;&gt;Node2 -->
<g id="edge1_Node000001_Node000002" class="edge">
<title>Node1&#45;&gt;Node2</title>
<g id="a_edge1_Node000001_Node000002"><a xlink:title=" ">
<path fill="none" stroke="#63b8ff" d="M98.19,-125.24C87.33,-116.03 75.01,-105.56 65.3,-97.33"/>
<polygon fill="#63b8ff" stroke="#63b8ff" points="95.84,-127.83 105.73,-131.63 100.37,-122.5 95.84,-127.83"/>
</a>
</g>
</g>
<!-- Node3 -->
<g id="Node000003" class="node">
<title>Node3</title>
<g id="a_Node000003"><a xlink:href="coro_2mutex_8hpp.html" target="_top" xlink:title=" ">
<polygon fill="white" stroke="#666666" points="134.25,-30.5 38,-30.5 38,0 134.25,0 134.25,-30.5"/>
<text text-anchor="start" x="46" y="-17" font-family="Helvetica,sans-Serif" font-size="10.00">include/yaclib/coro</text>
<text text-anchor="middle" x="86.12" y="-5.75" font-family="Helvetica,sans-Serif" font-size="10.00">/mutex.hpp</text>
</a>
</g>
</g>
<!-- Node1&#45;&gt;Node3 -->
<g id="edge3_Node000001_Node000003" class="edge">
<title>Node1&#45;&gt;Node3</title>
<g id="a_edge3_Node000001_Node000003"><a xlink:title=" ">
<path fill="none" stroke="#63b8ff" d="M118.94,-121.38C115.52,-105.42 110.65,-84.61 105.12,-66.5 101.37,-54.19 96.14,-40.55 92.12,-30.59"/>
<polygon fill="#63b8ff" stroke="#63b8ff" points="115.48,-121.95 120.95,-131.03 122.33,-120.52 115.48,-121.95"/>
</a>
</g>
</g>
<!-- Node4 -->
<g id="Node000004" class="node">
<title>Node4</title>
<g id="a_Node000004"><a xlink:href="coro_2shared__mutex_8hpp.html" target="_top" xlink:title=" ">
<polygon fill="white" stroke="#666666" points="250,-97 152.25,-97 152.25,-66.5 250,-66.5 250,-97"/>
<text text-anchor="start" x="160.25" y="-83.5" font-family="Helvetica,sans-Serif" font-size="10.00">include/yaclib/coro</text>
<text text-anchor="middle" x="201.12" y="-72.25" font-family="Helvetica,sans-Serif" font-size="10.00">/shared_mutex.hpp</text>
</a>
</g>
</g>
<!-- Node1&#45;&gt;Node4 -->
<g id="edge4_Node000001_Node000004" class="edge">
<title>Node1&#45;&gt;Node4</title>
<g id="a_edge4_Node000001_Node000004"><a xlink:title=" ">
<path fill="none" stroke="#63b8ff" d="M150.4,-125.24C161.4,-116.03 173.89,-105.56 183.72,-97.33"/>
<polygon fill="#63b8ff" stroke="#63b8ff" points="148.18,-122.54 142.76,-131.64 152.67,-127.9 148.18,-122.54"/>
</a>
</g>
</g>
<!-- Node2&#45;&gt;Node3 -->
<g id="edge2_Node000002_Node000003" class="edge">
<title>Node2&#45;&gt;Node3</title>
<g id="a_edge2_Node000002_Node000003"><a xlink:title=" ">
<path fill="none" stroke="#63b8ff" d="M62.57,-56.23C67.62,-47.66 73.12,-38.32 77.54,-30.83"/>
<polygon fill="#63b8ff" stroke="#63b8ff" points="59.58,-54.42 57.52,-64.81 65.61,-57.97 59.58,-54.42"/>
</a>
</g>
</g>
</g>
</svg>
</svg>

<style type='text/css'>
<![CDATA[
[data-mouse-over-selected='false'] { opacity: 0.7; }
[data-mouse-over-selected='true']  { opacity: 1.0; }
]]>
</style>
<script type="application/ecmascript"><![CDATA[
document.addEventListener('DOMContentLoaded', (event) => {
  highlightEdges();
  highlightAdjacentNodes();
});
]]></script>
</svg>
