<?xml version="1.0" encoding="UTF-8" standalone="no"?>
<!DOCTYPE svg PUBLIC "-//W3C//DTD SVG 1.1//EN"
 "http://www.w3.org/Graphics/SVG/1.1/DTD/svg11.dtd">
<!-- Generated by graphviz version 9.0.0 (20230911.1827)
 -->
<!-- Title: include/yaclib/coro/detail/guard_state.hpp Pages: 1 -->
<svg width="146pt" height="149pt"
 viewBox="0.00 0.00 145.88 149.00" xmlns="http://www.w3.org/2000/svg" xmlns:xlink="http://www.w3.org/1999/xlink">
<g id="graph0" class="graph" transform="scale(1 1) rotate(0) translate(4 145)">
<title>include/yaclib/coro/detail/guard_state.hpp</title>
<!-- Node1 -->
<g id="Node000001" class="node">
<title>Node1</title>
<g id="a_Node000001"><a xlink:title=" ">
<polygon fill="#999999" stroke="#666666" points="133.38,-141 19.12,-141 19.12,-110.5 133.38,-110.5 133.38,-141"/>
<text text-anchor="start" x="27.12" y="-127.5" font-family="Helvetica,sans-Serif" font-size="10.00">include/yaclib/coro</text>
<text text-anchor="middle" x="76.25" y="-116.25" font-family="Helvetica,sans-Serif" font-size="10.00">/detail/guard_state.hpp</text>
</a>
</g>
</g>
<!-- Node2 -->
<g id="Node000002" class="node">
<title>Node2</title>
<g id="a_Node000002"><a xlink:href="log_8hpp.html" target="_top" xlink:title=" ">
<polygon fill="white" stroke="#666666" points="74.5,-74.5 0,-74.5 0,-55.25 74.5,-55.25 74.5,-74.5"/>
<text text-anchor="middle" x="37.25" y="-61" font-family="Helvetica,sans-Serif" font-size="10.00">yaclib/log.hpp</text>
</a>
</g>
</g>
<!-- Node1&#45;&gt;Node2 -->
<g id="edge1_Node000001_Node000002" class="edge">
<title>Node1&#45;&gt;Node2</title>
<g id="a_edge1_Node000001_Node000002"><a xlink:title=" ">
<path fill="none" stroke="#63b8ff" d="M66.61,-110.2C61.47,-102.44 55.09,-92.81 49.6,-84.51"/>
<polygon fill="#63b8ff" stroke="#63b8ff" points="52.54,-82.62 44.1,-76.21 46.7,-86.48 52.54,-82.62"/>
</a>
</g>
</g>
<!-- Node4 -->
<g id="Node000004" class="node">
<title>Node4</title>
<g id="a_Node000004"><a xlink:title=" ">
<polygon fill="#e0e0e0" stroke="#999999" points="137.88,-74.5 92.62,-74.5 92.62,-55.25 137.88,-55.25 137.88,-74.5"/>
<text text-anchor="middle" x="115.25" y="-61" font-family="Helvetica,sans-Serif" font-size="10.00">cstdint</text>
</a>
</g>
</g>
<!-- Node1&#45;&gt;Node4 -->
<g id="edge3_Node000001_Node000004" class="edge">
<title>Node1&#45;&gt;Node4</title>
<g id="a_edge3_Node000001_Node000004"><a xlink:title=" ">
<path fill="none" stroke="#63b8ff" d="M85.89,-110.2C91.03,-102.44 97.41,-92.81 102.9,-84.51"/>
<polygon fill="#63b8ff" stroke="#63b8ff" points="105.8,-86.48 108.4,-76.21 99.96,-82.62 105.8,-86.48"/>
</a>
</g>
</g>
<!-- Node3 -->
<g id="Node000003" class="node">
<title>Node3</title>
<g id="a_Node000003"><a xlink:title=" ">
<polygon fill="#e0e0e0" stroke="#999999" points="70,-19.25 4.5,-19.25 4.5,0 70,0 70,-19.25"/>
<text text-anchor="middle" x="37.25" y="-5.75" font-family="Helvetica,sans-Serif" font-size="10.00">string_view</text>
</a>
</g>
</g>
<!-- Node2&#45;&gt;Node3 -->
<g id="edge2_Node000002_Node000003" class="edge">
<title>Node2&#45;&gt;Node3</title>
<g id="a_edge2_Node000002_Node000003"><a xlink:title=" ">
<path fill="none" stroke="#63b8ff" d="M37.25,-55.08C37.25,-48.57 37.25,-39.42 37.25,-31.12"/>
<polygon fill="#63b8ff" stroke="#63b8ff" points="40.75,-31.12 37.25,-21.12 33.75,-31.12 40.75,-31.12"/>
</a>
</g>
</g>
</g>
</svg>
