<?xml version="1.0" encoding="UTF-8" standalone="no"?>
<!DOCTYPE svg PUBLIC "-//W3C//DTD SVG 1.1//EN"
 "http://www.w3.org/Graphics/SVG/1.1/DTD/svg11.dtd">
<!-- Generated by graphviz version 3.0.0 (20221109.1736)
 -->
<!-- Title: include/yaclib/util/helper.hpp Pages: 1 -->
<!--zoomable 508 -->
<svg id="main" version="1.1" xmlns="http://www.w3.org/2000/svg" xmlns:xlink="http://www.w3.org/1999/xlink" xml:space="preserve" onload="init(evt)">
<style type="text/css"><![CDATA[
.edge:hover path { stroke: red; }
.edge:hover polygon { stroke: red; fill: red; }
]]></style>
<script type="text/javascript"><![CDATA[
var edges = document.getElementsByTagName('g');
if (edges && edges.length) {
  for (var i=0;i<edges.length;i++) {
    if (edges[i].id.substr(0,4)=='edge') {
      edges[i].setAttribute('class','edge');
    }
  }
}
]]></script>
        <defs>
                <circle id="rim" cx="0" cy="0" r="7"/>
                <circle id="rim2" cx="0" cy="0" r="3.5"/>
                <g id="zoomPlus">
                        <use xlink:href="#rim" fill="#404040">
                                <set attributeName="fill" to="#808080" begin="zoomplus.mouseover" end="zoomplus.mouseout"/>
                        </use>
                        <path d="M-4,0h8M0,-4v8" fill="none" stroke="white" stroke-width="1.5" pointer-events="none"/>
                </g>
                <g id="zoomMin">
                        <use xlink:href="#rim" fill="#404040">
                                <set attributeName="fill" to="#808080" begin="zoomminus.mouseover" end="zoomminus.mouseout"/>
                        </use>
                        <path d="M-4,0h8" fill="none" stroke="white" stroke-width="1.5" pointer-events="none"/>
                </g>
                <g id="dirArrow">
                        <path fill="none" stroke="white" stroke-width="1.5" d="M0,-3.0v7 M-2.5,-0.5L0,-3.0L2.5,-0.5"/>
                </g>
               <g id="resetDef">
                       <use xlink:href="#rim2" fill="#404040">
                               <set attributeName="fill" to="#808080" begin="reset.mouseover" end="reset.mouseout"/>
                       </use>
               </g>
        </defs>

<script type="text/javascript">
var viewWidth = 1923;
var viewHeight = 508;
var sectionId = 'dynsection-1';
</script>
<script xlink:href="svgpan.js"/>
<svg id="graph" class="graph">
<g id="viewport">
<title>include/yaclib/util/helper.hpp</title>
<!-- Node1 -->
<g id="node1" class="node">
<title>Node1</title>
<g id="a_node1"><a xlink:title=" ">
<polygon fill="#bfbfbf" stroke="black" points="917.72,-469.5 917.72,-499.5 1008.72,-499.5 1008.72,-469.5 917.72,-469.5"/>
<text text-anchor="start" x="925.72" y="-487.5" font-family="Helvetica,sans-Serif" font-size="10.00">include/yaclib/util</text>
<text text-anchor="middle" x="963.22" y="-476.5" font-family="Helvetica,sans-Serif" font-size="10.00">/helper.hpp</text>
</a>
</g>
</g>
<!-- Node2 -->
<g id="node2" class="node">
<title>Node2</title>
<g id="a_node2"><a xlink:href="core_8hpp.html" target="_top" xlink:title=" ">
<polygon fill="none" stroke="black" points="31.22,-402.5 31.22,-432.5 127.22,-432.5 127.22,-402.5 31.22,-402.5"/>
<text text-anchor="start" x="39.22" y="-420.5" font-family="Helvetica,sans-Serif" font-size="10.00">include/yaclib/algo</text>
<text text-anchor="middle" x="79.22" y="-409.5" font-family="Helvetica,sans-Serif" font-size="10.00">/detail/core.hpp</text>
</a>
</g>
</g>
<!-- Node1&#45;&gt;Node2 -->
<g id="edge1" class="edge">
<title>Node1&#45;&gt;Node2</title>
<path fill="none" stroke="midnightblue" d="M907.11,-482.89C774.39,-480.82 430.99,-471.82 147.22,-433 140.76,-432.12 134,-430.96 127.36,-429.69"/>
<polygon fill="midnightblue" stroke="midnightblue" points="907.37,-486.39 917.43,-483.04 907.48,-479.39 907.37,-486.39"/>
</g>
<!-- Node4 -->
<g id="node4" class="node">
<title>Node4</title>
<g id="a_node4"><a xlink:href="async_2future_8hpp.html" target="_top" xlink:title=" ">
<polygon fill="none" stroke="black" points="793.22,-268.5 793.22,-298.5 897.22,-298.5 897.22,-268.5 793.22,-268.5"/>
<text text-anchor="start" x="801.22" y="-286.5" font-family="Helvetica,sans-Serif" font-size="10.00">include/yaclib/async</text>
<text text-anchor="middle" x="845.22" y="-275.5" font-family="Helvetica,sans-Serif" font-size="10.00">/future.hpp</text>
</a>
</g>
</g>
<!-- Node1&#45;&gt;Node4 -->
<g id="edge53" class="edge">
<title>Node1&#45;&gt;Node4</title>
<path fill="none" stroke="midnightblue" d="M938.1,-462.75C928.83,-454.22 918.76,-443.8 911.22,-433 879.91,-388.11 858.15,-325.98 849.45,-298.51"/>
<polygon fill="midnightblue" stroke="midnightblue" points="935.82,-465.42 945.62,-469.45 940.48,-460.19 935.82,-465.42"/>
</g>
<!-- Node10 -->
<g id="node10" class="node">
<title>Node10</title>
<g id="a_node10"><a xlink:href="when__all__impl_8hpp.html" target="_top" xlink:title=" ">
<polygon fill="none" stroke="black" points="419.72,-134.5 419.72,-164.5 544.72,-164.5 544.72,-134.5 419.72,-134.5"/>
<text text-anchor="start" x="427.72" y="-152.5" font-family="Helvetica,sans-Serif" font-size="10.00">include/yaclib/async</text>
<text text-anchor="middle" x="482.22" y="-141.5" font-family="Helvetica,sans-Serif" font-size="10.00">/detail/when_all_impl.hpp</text>
</a>
</g>
</g>
<!-- Node1&#45;&gt;Node10 -->
<g id="edge51" class="edge">
<title>Node1&#45;&gt;Node10</title>
<path fill="none" stroke="midnightblue" d="M907.35,-480.22C725.36,-468.79 161.22,-427.24 161.22,-351.5 161.22,-351.5 161.22,-351.5 161.22,-282.5 161.22,-245.31 152.97,-226.31 180.22,-201 218.13,-165.79 359.3,-174.11 410.22,-165 413.23,-164.46 416.31,-163.9 419.42,-163.31"/>
<polygon fill="midnightblue" stroke="midnightblue" points="907.32,-483.72 917.51,-480.85 907.75,-476.73 907.32,-483.72"/>
</g>
<!-- Node13 -->
<g id="node13" class="node">
<title>Node13</title>
<g id="a_node13"><a xlink:href="when__any__impl_8hpp.html" target="_top" xlink:title=" ">
<polygon fill="none" stroke="black" points="639.72,-134.5 639.72,-164.5 770.72,-164.5 770.72,-134.5 639.72,-134.5"/>
<text text-anchor="start" x="647.72" y="-152.5" font-family="Helvetica,sans-Serif" font-size="10.00">include/yaclib/async</text>
<text text-anchor="middle" x="705.22" y="-141.5" font-family="Helvetica,sans-Serif" font-size="10.00">/detail/when_any_impl.hpp</text>
</a>
</g>
</g>
<!-- Node1&#45;&gt;Node13 -->
<g id="edge52" class="edge">
<title>Node1&#45;&gt;Node13</title>
<path fill="none" stroke="midnightblue" d="M907.49,-484.15C816.78,-481.97 647.22,-462.99 647.22,-351.5 647.22,-351.5 647.22,-351.5 647.22,-282.5 647.22,-245.31 650.27,-234.6 666.22,-201 672.59,-187.59 682.98,-174.38 691.43,-164.84"/>
<polygon fill="midnightblue" stroke="midnightblue" points="907.55,-487.65 917.61,-484.33 907.67,-480.65 907.55,-487.65"/>
</g>
<!-- Node16 -->
<g id="node16" class="node">
<title>Node16</title>
<g id="a_node16"><a xlink:href="async_2make_8hpp.html" target="_top" xlink:title=" ">
<polygon fill="none" stroke="black" points="1293.22,-201.5 1293.22,-231.5 1397.22,-231.5 1397.22,-201.5 1293.22,-201.5"/>
<text text-anchor="start" x="1301.22" y="-219.5" font-family="Helvetica,sans-Serif" font-size="10.00">include/yaclib/async</text>
<text text-anchor="middle" x="1345.22" y="-208.5" font-family="Helvetica,sans-Serif" font-size="10.00">/make.hpp</text>
</a>
</g>
</g>
<!-- Node1&#45;&gt;Node16 -->
<g id="edge54" class="edge">
<title>Node1&#45;&gt;Node16</title>
<path fill="none" stroke="midnightblue" d="M952.18,-460.23C933.26,-416.53 901.08,-321.77 949.22,-268 997.69,-213.86 1202.44,-243.28 1274.22,-232 1280.31,-231.04 1286.67,-229.92 1292.97,-228.73"/>
<polygon fill="midnightblue" stroke="midnightblue" points="949.04,-461.77 956.32,-469.47 955.42,-458.91 949.04,-461.77"/>
</g>
<!-- Node26 -->
<g id="node26" class="node">
<title>Node26</title>
<g id="a_node26"><a xlink:href="lazy_2task_8hpp.html" target="_top" xlink:title=" ">
<polygon fill="none" stroke="black" points="1415.72,-201.5 1415.72,-231.5 1510.72,-231.5 1510.72,-201.5 1415.72,-201.5"/>
<text text-anchor="start" x="1423.72" y="-219.5" font-family="Helvetica,sans-Serif" font-size="10.00">include/yaclib/lazy</text>
<text text-anchor="middle" x="1463.22" y="-208.5" font-family="Helvetica,sans-Serif" font-size="10.00">/task.hpp</text>
</a>
</g>
</g>
<!-- Node1&#45;&gt;Node26 -->
<g id="edge55" class="edge">
<title>Node1&#45;&gt;Node26</title>
<path fill="none" stroke="midnightblue" d="M965.97,-459.37C968.62,-442.53 973.7,-419.95 983.22,-402 1020.81,-331.11 1032.95,-304.88 1104.22,-268 1224.28,-205.88 1273.33,-256.71 1406.22,-232 1409.23,-231.44 1412.32,-230.81 1415.43,-230.14"/>
<polygon fill="midnightblue" stroke="midnightblue" points="962.47,-459.11 964.55,-469.5 969.4,-460.08 962.47,-459.11"/>
</g>
<!-- Node33 -->
<g id="node33" class="node">
<title>Node33</title>
<g id="a_node33"><a xlink:href="one__shot__event_8hpp.html" target="_top" xlink:title=" ">
<polygon fill="none" stroke="black" points="991.72,-402.5 991.72,-432.5 1098.72,-432.5 1098.72,-402.5 991.72,-402.5"/>
<text text-anchor="start" x="999.72" y="-420.5" font-family="Helvetica,sans-Serif" font-size="10.00">include/yaclib/algo</text>
<text text-anchor="middle" x="1045.22" y="-409.5" font-family="Helvetica,sans-Serif" font-size="10.00">/one_shot_event.hpp</text>
</a>
</g>
</g>
<!-- Node1&#45;&gt;Node33 -->
<g id="edge48" class="edge">
<title>Node1&#45;&gt;Node33</title>
<path fill="none" stroke="midnightblue" d="M988.87,-463.17C1001.41,-453.23 1016.19,-441.51 1027.46,-432.58"/>
<polygon fill="midnightblue" stroke="midnightblue" points="986.68,-460.44 981.01,-469.4 991.03,-465.93 986.68,-460.44"/>
</g>
<!-- Node35 -->
<g id="node35" class="node">
<title>Node35</title>
<g id="a_node35"><a xlink:href="shared__func_8hpp.html" target="_top" xlink:title=" ">
<polygon fill="none" stroke="black" points="1116.72,-402.5 1116.72,-432.5 1233.72,-432.5 1233.72,-402.5 1116.72,-402.5"/>
<text text-anchor="start" x="1124.72" y="-420.5" font-family="Helvetica,sans-Serif" font-size="10.00">include/yaclib/util</text>
<text text-anchor="middle" x="1175.22" y="-409.5" font-family="Helvetica,sans-Serif" font-size="10.00">/detail/shared_func.hpp</text>
</a>
</g>
</g>
<!-- Node1&#45;&gt;Node35 -->
<g id="edge56" class="edge">
<title>Node1&#45;&gt;Node35</title>
<path fill="none" stroke="midnightblue" d="M1018.85,-466.44C1053.21,-455.91 1096.78,-442.55 1129.2,-432.61"/>
<polygon fill="midnightblue" stroke="midnightblue" points="1017.5,-463.2 1008.96,-469.48 1019.55,-469.89 1017.5,-463.2"/>
</g>
<!-- Node36 -->
<g id="node36" class="node">
<title>Node36</title>
<g id="a_node36"><a xlink:href="manual_8cpp.html" target="_top" xlink:title=" ">
<polygon fill="none" stroke="black" points="1251.72,-408 1251.72,-427 1352.72,-427 1352.72,-408 1251.72,-408"/>
<text text-anchor="middle" x="1302.22" y="-415" font-family="Helvetica,sans-Serif" font-size="10.00">src/exe/manual.cpp</text>
</a>
</g>
</g>
<!-- Node1&#45;&gt;Node36 -->
<g id="edge57" class="edge">
<title>Node1&#45;&gt;Node36</title>
<path fill="none" stroke="midnightblue" d="M1019.16,-474.47C1075.83,-465.07 1165.9,-449.46 1243.22,-433 1251.58,-431.22 1260.55,-429.12 1268.92,-427.07"/>
<polygon fill="midnightblue" stroke="midnightblue" points="1018.28,-471.07 1008.98,-476.15 1019.42,-477.97 1018.28,-471.07"/>
</g>
<!-- Node37 -->
<g id="node37" class="node">
<title>Node37</title>
<g id="a_node37"><a xlink:href="src_2exe_2strand_8cpp.html" target="_top" xlink:title=" ">
<polygon fill="none" stroke="black" points="1371.22,-408 1371.22,-427 1467.22,-427 1467.22,-408 1371.22,-408"/>
<text text-anchor="middle" x="1419.22" y="-415" font-family="Helvetica,sans-Serif" font-size="10.00">src/exe/strand.cpp</text>
</a>
</g>
</g>
<!-- Node1&#45;&gt;Node37 -->
<g id="edge58" class="edge">
<title>Node1&#45;&gt;Node37</title>
<path fill="none" stroke="midnightblue" d="M1019.01,-478.63C1096.46,-471.37 1240.77,-456.04 1362.22,-433 1370.85,-431.36 1380.11,-429.19 1388.61,-427.02"/>
<polygon fill="midnightblue" stroke="midnightblue" points="1018.62,-475.15 1008.99,-479.56 1019.27,-482.12 1018.62,-475.15"/>
</g>
<!-- Node38 -->
<g id="node38" class="node">
<title>Node38</title>
<g id="a_node38"><a xlink:href="fair__thread__pool_8cpp.html" target="_top" xlink:title=" ">
<polygon fill="none" stroke="black" points="1485.22,-402.5 1485.22,-432.5 1599.22,-432.5 1599.22,-402.5 1485.22,-402.5"/>
<text text-anchor="start" x="1493.22" y="-420.5" font-family="Helvetica,sans-Serif" font-size="10.00">src/runtime/fair_thread</text>
<text text-anchor="middle" x="1542.22" y="-409.5" font-family="Helvetica,sans-Serif" font-size="10.00">_pool.cpp</text>
</a>
</g>
</g>
<!-- Node1&#45;&gt;Node38 -->
<g id="edge59" class="edge">
<title>Node1&#45;&gt;Node38</title>
<path fill="none" stroke="midnightblue" d="M1018.93,-480.18C1113.41,-474.07 1310.94,-459.2 1476.22,-433 1479.12,-432.54 1482.08,-432.03 1485.06,-431.49"/>
<polygon fill="midnightblue" stroke="midnightblue" points="1018.5,-476.7 1008.74,-480.83 1018.95,-483.69 1018.5,-476.7"/>
</g>
<!-- Node3 -->
<g id="node3" class="node">
<title>Node3</title>
<g id="a_node3"><a xlink:href="future__impl_8hpp.html" target="_top" xlink:title=" ">
<polygon fill="none" stroke="black" points="189.22,-335.5 189.22,-365.5 301.22,-365.5 301.22,-335.5 189.22,-335.5"/>
<text text-anchor="start" x="197.22" y="-353.5" font-family="Helvetica,sans-Serif" font-size="10.00">include/yaclib/async</text>
<text text-anchor="middle" x="245.22" y="-342.5" font-family="Helvetica,sans-Serif" font-size="10.00">/detail/future_impl.hpp</text>
</a>
</g>
</g>
<!-- Node2&#45;&gt;Node3 -->
<g id="edge2" class="edge">
<title>Node2&#45;&gt;Node3</title>
<path fill="none" stroke="midnightblue" d="M124.73,-398.68C151.35,-388.26 184.49,-375.28 209.27,-365.58"/>
<polygon fill="midnightblue" stroke="midnightblue" points="123.28,-395.49 115.24,-402.4 125.83,-402.01 123.28,-395.49"/>
</g>
<!-- Node17 -->
<g id="node17" class="node">
<title>Node17</title>
<g id="a_node17"><a xlink:href="run_8hpp.html" target="_top" xlink:title=" ">
<polygon fill="none" stroke="black" points="29.22,-201.5 29.22,-231.5 133.22,-231.5 133.22,-201.5 29.22,-201.5"/>
<text text-anchor="start" x="37.22" y="-219.5" font-family="Helvetica,sans-Serif" font-size="10.00">include/yaclib/async</text>
<text text-anchor="middle" x="81.22" y="-208.5" font-family="Helvetica,sans-Serif" font-size="10.00">/run.hpp</text>
</a>
</g>
</g>
<!-- Node2&#45;&gt;Node17 -->
<g id="edge46" class="edge">
<title>Node2&#45;&gt;Node17</title>
<path fill="none" stroke="midnightblue" d="M35.52,-397.11C23.15,-389.33 11.17,-379.05 4.22,-366 -2.25,-353.84 0.28,-348.2 4.22,-335 16.71,-293.17 49.38,-252.39 67.9,-231.64"/>
<polygon fill="midnightblue" stroke="midnightblue" points="34.13,-400.35 44.53,-402.34 37.64,-394.3 34.13,-400.35"/>
</g>
<!-- Node32 -->
<g id="node32" class="node">
<title>Node32</title>
<g id="a_node32"><a xlink:href="result__core_8cpp.html" target="_top" xlink:title=" ">
<polygon fill="none" stroke="black" points="13.22,-341 13.22,-360 133.22,-360 133.22,-341 13.22,-341"/>
<text text-anchor="middle" x="73.22" y="-348" font-family="Helvetica,sans-Serif" font-size="10.00">src/algo/result_core.cpp</text>
</a>
</g>
</g>
<!-- Node2&#45;&gt;Node32 -->
<g id="edge47" class="edge">
<title>Node2&#45;&gt;Node32</title>
<path fill="none" stroke="midnightblue" d="M76.98,-392.25C75.95,-381.02 74.78,-368.38 74.02,-360.19"/>
<polygon fill="midnightblue" stroke="midnightblue" points="73.52,-392.76 77.92,-402.4 80.49,-392.12 73.52,-392.76"/>
</g>
<!-- Node3&#45;&gt;Node4 -->
<g id="edge3" class="edge">
<title>Node3&#45;&gt;Node4</title>
<path fill="none" stroke="midnightblue" d="M311.59,-342.31C432.02,-329.26 684.16,-301.95 793.17,-290.14"/>
<polygon fill="midnightblue" stroke="midnightblue" points="310.96,-338.86 301.4,-343.41 311.72,-345.82 310.96,-338.86"/>
</g>
<!-- Node5 -->
<g id="node5" class="node">
<title>Node5</title>
<g id="a_node5"><a xlink:href="wait__group_8hpp.html" target="_top" xlink:title=" ">
<polygon fill="none" stroke="black" points="1529.22,-201.5 1529.22,-231.5 1625.22,-231.5 1625.22,-201.5 1529.22,-201.5"/>
<text text-anchor="start" x="1537.22" y="-219.5" font-family="Helvetica,sans-Serif" font-size="10.00">include/yaclib/algo</text>
<text text-anchor="middle" x="1577.22" y="-208.5" font-family="Helvetica,sans-Serif" font-size="10.00">/wait_group.hpp</text>
</a>
</g>
</g>
<!-- Node4&#45;&gt;Node5 -->
<g id="edge4" class="edge">
<title>Node4&#45;&gt;Node5</title>
<path fill="none" stroke="midnightblue" d="M907.71,-277.56C943.8,-274.73 990.07,-271.12 1031.22,-268 1248.52,-251.53 1305.13,-267 1520.22,-232 1523.14,-231.52 1526.14,-230.97 1529.14,-230.36"/>
<polygon fill="midnightblue" stroke="midnightblue" points="907.03,-274.1 897.33,-278.38 907.57,-281.08 907.03,-274.1"/>
</g>
<!-- Node7 -->
<g id="node7" class="node">
<title>Node7</title>
<g id="a_node7"><a xlink:href="contract_8hpp.html" target="_top" xlink:title=" ">
<polygon fill="none" stroke="black" points="387.22,-201.5 387.22,-231.5 491.22,-231.5 491.22,-201.5 387.22,-201.5"/>
<text text-anchor="start" x="395.22" y="-219.5" font-family="Helvetica,sans-Serif" font-size="10.00">include/yaclib/async</text>
<text text-anchor="middle" x="439.22" y="-208.5" font-family="Helvetica,sans-Serif" font-size="10.00">/contract.hpp</text>
</a>
</g>
</g>
<!-- Node4&#45;&gt;Node7 -->
<g id="edge6" class="edge">
<title>Node4&#45;&gt;Node7</title>
<path fill="none" stroke="midnightblue" d="M782.65,-275.02C713.32,-266.35 598.33,-250.8 500.22,-232 497.34,-231.45 494.38,-230.85 491.4,-230.22"/>
<polygon fill="midnightblue" stroke="midnightblue" points="782.61,-278.55 792.96,-276.31 783.47,-271.6 782.61,-278.55"/>
</g>
<!-- Node8 -->
<g id="node8" class="node">
<title>Node8</title>
<g id="a_node8"><a xlink:href="simple_8cpp.html" target="_top" xlink:title=" ">
<polygon fill="none" stroke="black" points="300.72,-134.5 300.72,-164.5 401.72,-164.5 401.72,-134.5 300.72,-134.5"/>
<text text-anchor="start" x="308.72" y="-152.5" font-family="Helvetica,sans-Serif" font-size="10.00">test/example/async</text>
<text text-anchor="middle" x="351.22" y="-141.5" font-family="Helvetica,sans-Serif" font-size="10.00">/simple.cpp</text>
</a>
</g>
</g>
<!-- Node4&#45;&gt;Node8 -->
<g id="edge45" class="edge">
<title>Node4&#45;&gt;Node8</title>
<path fill="none" stroke="midnightblue" d="M782.8,-279.48C662.82,-273.13 409.08,-256.92 378.22,-232 357.81,-215.52 352.7,-183.18 351.5,-164.57"/>
<polygon fill="midnightblue" stroke="midnightblue" points="782.78,-282.98 792.94,-280.01 783.14,-275.99 782.78,-282.98"/>
</g>
<!-- Node9 -->
<g id="node9" class="node">
<title>Node9</title>
<g id="a_node9"><a xlink:href="when__impl_8hpp.html" target="_top" xlink:title=" ">
<polygon fill="none" stroke="black" points="509.22,-201.5 509.22,-231.5 619.22,-231.5 619.22,-201.5 509.22,-201.5"/>
<text text-anchor="start" x="517.22" y="-219.5" font-family="Helvetica,sans-Serif" font-size="10.00">include/yaclib/async</text>
<text text-anchor="middle" x="564.22" y="-208.5" font-family="Helvetica,sans-Serif" font-size="10.00">/detail/when_impl.hpp</text>
</a>
</g>
</g>
<!-- Node4&#45;&gt;Node9 -->
<g id="edge8" class="edge">
<title>Node4&#45;&gt;Node9</title>
<path fill="none" stroke="midnightblue" d="M783.19,-268.15C734.25,-256.83 666.61,-241.18 619.5,-230.29"/>
<polygon fill="midnightblue" stroke="midnightblue" points="782.49,-271.58 793.03,-270.43 784.07,-264.76 782.49,-271.58"/>
</g>
<!-- Node11 -->
<g id="node11" class="node">
<title>Node11</title>
<g id="a_node11"><a xlink:href="when__all_8hpp.html" target="_top" xlink:title=" ">
<polygon fill="none" stroke="black" points="346.22,-67.5 346.22,-97.5 450.22,-97.5 450.22,-67.5 346.22,-67.5"/>
<text text-anchor="start" x="354.22" y="-85.5" font-family="Helvetica,sans-Serif" font-size="10.00">include/yaclib/async</text>
<text text-anchor="middle" x="398.22" y="-74.5" font-family="Helvetica,sans-Serif" font-size="10.00">/when_all.hpp</text>
</a>
</g>
</g>
<!-- Node4&#45;&gt;Node11 -->
<g id="edge26" class="edge">
<title>Node4&#45;&gt;Node11</title>
<path fill="none" stroke="midnightblue" d="M782.84,-281.39C668.21,-278.49 429.03,-268.15 355.22,-232 308.5,-209.12 263.37,-177.94 291.22,-134 303.48,-114.65 325.36,-102.58 346.15,-95.11"/>
<polygon fill="midnightblue" stroke="midnightblue" points="782.79,-284.89 792.87,-281.63 782.96,-277.89 782.79,-284.89"/>
</g>
<!-- Node14 -->
<g id="node14" class="node">
<title>Node14</title>
<g id="a_node14"><a xlink:href="when__any_8hpp.html" target="_top" xlink:title=" ">
<polygon fill="none" stroke="black" points="606.22,-67.5 606.22,-97.5 710.22,-97.5 710.22,-67.5 606.22,-67.5"/>
<text text-anchor="start" x="614.22" y="-85.5" font-family="Helvetica,sans-Serif" font-size="10.00">include/yaclib/async</text>
<text text-anchor="middle" x="658.22" y="-74.5" font-family="Helvetica,sans-Serif" font-size="10.00">/when_any.hpp</text>
</a>
</g>
</g>
<!-- Node4&#45;&gt;Node14 -->
<g id="edge27" class="edge">
<title>Node4&#45;&gt;Node14</title>
<path fill="none" stroke="midnightblue" d="M840.33,-258.28C832.63,-225.94 814.75,-168.73 779.22,-134 760.34,-115.54 733.72,-103.44 710.26,-95.73"/>
<polygon fill="midnightblue" stroke="midnightblue" points="836.96,-259.23 842.56,-268.22 843.79,-257.7 836.96,-259.23"/>
</g>
<!-- Node4&#45;&gt;Node16 -->
<g id="edge17" class="edge">
<title>Node4&#45;&gt;Node16</title>
<path fill="none" stroke="midnightblue" d="M907.38,-268.63C908.67,-268.41 909.95,-268.2 911.22,-268 1073.54,-242.32 1116.9,-257.68 1279.22,-232 1283.74,-231.29 1288.41,-230.45 1293.09,-229.55"/>
<polygon fill="midnightblue" stroke="midnightblue" points="906.57,-265.22 897.35,-270.45 907.82,-272.11 906.57,-265.22"/>
</g>
<!-- Node4&#45;&gt;Node17 -->
<g id="edge18" class="edge">
<title>Node4&#45;&gt;Node17</title>
<path fill="none" stroke="midnightblue" d="M782.66,-279.21C664.64,-272.67 401.12,-256.53 180.22,-232 164.94,-230.3 148.4,-228.05 133.28,-225.82"/>
<polygon fill="midnightblue" stroke="midnightblue" points="782.77,-282.72 792.95,-279.77 783.15,-275.73 782.77,-282.72"/>
</g>
<!-- Node18 -->
<g id="node18" class="node">
<title>Node18</title>
<g id="a_node18"><a xlink:href="wait_8hpp.html" target="_top" xlink:title=" ">
<polygon fill="none" stroke="black" points="189.22,-201.5 189.22,-231.5 293.22,-231.5 293.22,-201.5 189.22,-201.5"/>
<text text-anchor="start" x="197.22" y="-219.5" font-family="Helvetica,sans-Serif" font-size="10.00">include/yaclib/async</text>
<text text-anchor="middle" x="241.22" y="-208.5" font-family="Helvetica,sans-Serif" font-size="10.00">/wait.hpp</text>
</a>
</g>
</g>
<!-- Node4&#45;&gt;Node18 -->
<g id="edge22" class="edge">
<title>Node4&#45;&gt;Node18</title>
<path fill="none" stroke="midnightblue" d="M782.74,-279.13C682.13,-273.15 478.21,-258.7 307.22,-232 302.7,-231.29 298.03,-230.47 293.35,-229.57"/>
<polygon fill="midnightblue" stroke="midnightblue" points="782.83,-282.64 793.02,-279.73 783.24,-275.65 782.83,-282.64"/>
</g>
<!-- Node19 -->
<g id="node19" class="node">
<title>Node19</title>
<g id="a_node19"><a xlink:href="wait__for_8hpp.html" target="_top" xlink:title=" ">
<polygon fill="none" stroke="black" points="675.22,-201.5 675.22,-231.5 779.22,-231.5 779.22,-201.5 675.22,-201.5"/>
<text text-anchor="start" x="683.22" y="-219.5" font-family="Helvetica,sans-Serif" font-size="10.00">include/yaclib/async</text>
<text text-anchor="middle" x="727.22" y="-208.5" font-family="Helvetica,sans-Serif" font-size="10.00">/wait_for.hpp</text>
</a>
</g>
</g>
<!-- Node4&#45;&gt;Node19 -->
<g id="edge24" class="edge">
<title>Node4&#45;&gt;Node19</title>
<path fill="none" stroke="midnightblue" d="M810.61,-263.44C792.1,-253.24 769.7,-240.9 752.78,-231.58"/>
<polygon fill="midnightblue" stroke="midnightblue" points="809.17,-266.64 819.62,-268.4 812.55,-260.51 809.17,-266.64"/>
</g>
<!-- Node20 -->
<g id="node20" class="node">
<title>Node20</title>
<g id="a_node20"><a xlink:href="wait__until_8hpp.html" target="_top" xlink:title=" ">
<polygon fill="none" stroke="black" points="873.22,-201.5 873.22,-231.5 977.22,-231.5 977.22,-201.5 873.22,-201.5"/>
<text text-anchor="start" x="881.22" y="-219.5" font-family="Helvetica,sans-Serif" font-size="10.00">include/yaclib/async</text>
<text text-anchor="middle" x="925.22" y="-208.5" font-family="Helvetica,sans-Serif" font-size="10.00">/wait_until.hpp</text>
</a>
</g>
</g>
<!-- Node4&#45;&gt;Node20 -->
<g id="edge25" class="edge">
<title>Node4&#45;&gt;Node20</title>
<path fill="none" stroke="midnightblue" d="M870.6,-261.88C882.75,-252.01 897,-240.43 907.9,-231.58"/>
<polygon fill="midnightblue" stroke="midnightblue" points="868.13,-259.37 862.58,-268.4 872.55,-264.81 868.13,-259.37"/>
</g>
<!-- Node21 -->
<g id="node21" class="node">
<title>Node21</title>
<g id="a_node21"><a xlink:href="await_8hpp.html" target="_top" xlink:title=" ">
<polygon fill="none" stroke="black" points="1223.72,-67.5 1223.72,-97.5 1320.72,-97.5 1320.72,-67.5 1223.72,-67.5"/>
<text text-anchor="start" x="1231.72" y="-85.5" font-family="Helvetica,sans-Serif" font-size="10.00">include/yaclib/coro</text>
<text text-anchor="middle" x="1272.22" y="-74.5" font-family="Helvetica,sans-Serif" font-size="10.00">/await.hpp</text>
</a>
</g>
</g>
<!-- Node4&#45;&gt;Node21 -->
<g id="edge28" class="edge">
<title>Node4&#45;&gt;Node21</title>
<path fill="none" stroke="midnightblue" d="M907.38,-268.69C908.67,-268.45 909.95,-268.22 911.22,-268 972.15,-257.35 1135.84,-266.43 1187.22,-232 1199.9,-223.51 1247,-132.96 1265.08,-97.56"/>
<polygon fill="midnightblue" stroke="midnightblue" points="906.54,-265.28 897.38,-270.6 907.86,-272.16 906.54,-265.28"/>
</g>
<!-- Node22 -->
<g id="node22" class="node">
<title>Node22</title>
<g id="a_node22"><a xlink:href="await__on_8hpp.html" target="_top" xlink:title=" ">
<polygon fill="none" stroke="black" points="938.72,-67.5 938.72,-97.5 1035.72,-97.5 1035.72,-67.5 938.72,-67.5"/>
<text text-anchor="start" x="946.72" y="-85.5" font-family="Helvetica,sans-Serif" font-size="10.00">include/yaclib/coro</text>
<text text-anchor="middle" x="987.22" y="-74.5" font-family="Helvetica,sans-Serif" font-size="10.00">/await_on.hpp</text>
</a>
</g>
</g>
<!-- Node4&#45;&gt;Node22 -->
<g id="edge29" class="edge">
<title>Node4&#45;&gt;Node22</title>
<path fill="none" stroke="midnightblue" d="M847.21,-258.15C849.44,-241.21 854.18,-218.6 864.22,-201 889.99,-155.86 938.46,-117.25 966.24,-97.53"/>
<polygon fill="midnightblue" stroke="midnightblue" points="843.7,-258.02 846.07,-268.35 850.65,-258.8 843.7,-258.02"/>
</g>
<!-- Node23 -->
<g id="node23" class="node">
<title>Node23</title>
<g id="a_node23"><a xlink:href="await__awaiter_8hpp.html" target="_top" xlink:title=" ">
<polygon fill="none" stroke="black" points="1255.22,-134.5 1255.22,-164.5 1379.22,-164.5 1379.22,-134.5 1255.22,-134.5"/>
<text text-anchor="start" x="1263.22" y="-152.5" font-family="Helvetica,sans-Serif" font-size="10.00">include/yaclib/coro</text>
<text text-anchor="middle" x="1317.22" y="-141.5" font-family="Helvetica,sans-Serif" font-size="10.00">/detail/await_awaiter.hpp</text>
</a>
</g>
</g>
<!-- Node4&#45;&gt;Node23 -->
<g id="edge30" class="edge">
<title>Node4&#45;&gt;Node23</title>
<path fill="none" stroke="midnightblue" d="M907.38,-268.65C908.67,-268.43 909.95,-268.21 911.22,-268 1056.82,-244.14 1109.32,-298.09 1241.22,-232 1271.84,-216.66 1296.45,-183.57 1308.72,-164.61"/>
<polygon fill="midnightblue" stroke="midnightblue" points="906.56,-265.24 897.36,-270.5 907.83,-272.13 906.56,-265.24"/>
</g>
<!-- Node24 -->
<g id="node24" class="node">
<title>Node24</title>
<g id="a_node24"><a xlink:href="await__on__awaiter_8hpp.html" target="_top" xlink:title=" ">
<polygon fill="none" stroke="black" points="1059.22,-134.5 1059.22,-164.5 1199.22,-164.5 1199.22,-134.5 1059.22,-134.5"/>
<text text-anchor="start" x="1067.22" y="-152.5" font-family="Helvetica,sans-Serif" font-size="10.00">include/yaclib/coro</text>
<text text-anchor="middle" x="1129.22" y="-141.5" font-family="Helvetica,sans-Serif" font-size="10.00">/detail/await_on_awaiter.hpp</text>
</a>
</g>
</g>
<!-- Node4&#45;&gt;Node24 -->
<g id="edge32" class="edge">
<title>Node4&#45;&gt;Node24</title>
<path fill="none" stroke="midnightblue" d="M907.39,-268.7C908.68,-268.46 909.96,-268.23 911.22,-268 968.42,-257.76 1132.07,-275.83 1170.22,-232 1188.01,-211.57 1163.74,-182.07 1145.66,-164.73"/>
<polygon fill="midnightblue" stroke="midnightblue" points="906.53,-265.3 897.39,-270.65 907.87,-272.17 906.53,-265.3"/>
</g>
<!-- Node25 -->
<g id="node25" class="node">
<title>Node25</title>
<g id="a_node25"><a xlink:href="coro_2future_8hpp.html" target="_top" xlink:title=" ">
<polygon fill="none" stroke="black" points="943.72,-134.5 943.72,-164.5 1040.72,-164.5 1040.72,-134.5 943.72,-134.5"/>
<text text-anchor="start" x="951.72" y="-152.5" font-family="Helvetica,sans-Serif" font-size="10.00">include/yaclib/coro</text>
<text text-anchor="middle" x="992.22" y="-141.5" font-family="Helvetica,sans-Serif" font-size="10.00">/future.hpp</text>
</a>
</g>
</g>
<!-- Node4&#45;&gt;Node25 -->
<g id="edge34" class="edge">
<title>Node4&#45;&gt;Node25</title>
<path fill="none" stroke="midnightblue" d="M907.21,-267.45C940.21,-258.12 976.05,-245.37 986.22,-232 1000.99,-212.58 998.62,-182.46 995.48,-164.79"/>
<polygon fill="midnightblue" stroke="midnightblue" points="906.26,-264.09 897.55,-270.12 908.12,-270.83 906.26,-264.09"/>
</g>
<!-- Node4&#45;&gt;Node26 -->
<g id="edge35" class="edge">
<title>Node4&#45;&gt;Node26</title>
<path fill="none" stroke="midnightblue" d="M907.56,-273.19C921.27,-271.32 935.72,-269.47 949.22,-268 1151.76,-245.92 1205.21,-265.24 1406.22,-232 1409.24,-231.5 1412.34,-230.92 1415.45,-230.28"/>
<polygon fill="midnightblue" stroke="midnightblue" points="906.68,-269.78 897.25,-274.62 907.64,-276.71 906.68,-269.78"/>
</g>
<!-- Node31 -->
<g id="node31" class="node">
<title>Node31</title>
<g id="a_node31"><a xlink:href="future__impl_8cpp.html" target="_top" xlink:title=" ">
<polygon fill="none" stroke="black" points="1033.22,-207 1033.22,-226 1161.22,-226 1161.22,-207 1033.22,-207"/>
<text text-anchor="middle" x="1097.22" y="-214" font-family="Helvetica,sans-Serif" font-size="10.00">src/async/future_impl.cpp</text>
</a>
</g>
</g>
<!-- Node4&#45;&gt;Node31 -->
<g id="edge44" class="edge">
<title>Node4&#45;&gt;Node31</title>
<path fill="none" stroke="midnightblue" d="M907.39,-266.46C956.87,-253.7 1024.18,-236.34 1063.93,-226.09"/>
<polygon fill="midnightblue" stroke="midnightblue" points="906.25,-263.15 897.44,-269.03 907.99,-269.92 906.25,-263.15"/>
</g>
<!-- Node6 -->
<g id="node6" class="node">
<title>Node6</title>
<g id="a_node6"><a xlink:href="wait__group_8cpp.html" target="_top" xlink:title=" ">
<polygon fill="none" stroke="black" points="1795.72,-140 1795.72,-159 1914.72,-159 1914.72,-140 1795.72,-140"/>
<text text-anchor="middle" x="1855.22" y="-147" font-family="Helvetica,sans-Serif" font-size="10.00">src/algo/wait_group.cpp</text>
</a>
</g>
</g>
<!-- Node5&#45;&gt;Node6 -->
<g id="edge5" class="edge">
<title>Node5&#45;&gt;Node6</title>
<path fill="none" stroke="midnightblue" d="M1635.33,-201.91C1690.62,-188.99 1772.09,-169.94 1818.77,-159.02"/>
<polygon fill="midnightblue" stroke="midnightblue" points="1634.27,-198.57 1625.33,-204.25 1635.86,-205.38 1634.27,-198.57"/>
</g>
<!-- Node7&#45;&gt;Node8 -->
<g id="edge7" class="edge">
<title>Node7&#45;&gt;Node8</title>
<path fill="none" stroke="midnightblue" d="M412.08,-195.45C398.54,-185.45 382.49,-173.6 370.28,-164.58"/>
<polygon fill="midnightblue" stroke="midnightblue" points="410,-198.27 420.13,-201.4 414.16,-192.64 410,-198.27"/>
</g>
<!-- Node9&#45;&gt;Node10 -->
<g id="edge9" class="edge">
<title>Node9&#45;&gt;Node10</title>
<path fill="none" stroke="midnightblue" d="M538.57,-195.17C526.03,-185.23 511.26,-173.51 499.98,-164.58"/>
<polygon fill="midnightblue" stroke="midnightblue" points="536.42,-197.93 546.43,-201.4 540.77,-192.44 536.42,-197.93"/>
</g>
<!-- Node9&#45;&gt;Node11 -->
<g id="edge15" class="edge">
<title>Node9&#45;&gt;Node11</title>
<path fill="none" stroke="midnightblue" d="M567.32,-191.15C568.2,-173.36 566.32,-149.71 553.22,-134 528.12,-103.89 484.81,-91.58 450.34,-86.62"/>
<polygon fill="midnightblue" stroke="midnightblue" points="563.81,-191.09 566.49,-201.34 570.79,-191.65 563.81,-191.09"/>
</g>
<!-- Node9&#45;&gt;Node13 -->
<g id="edge12" class="edge">
<title>Node9&#45;&gt;Node13</title>
<path fill="none" stroke="midnightblue" d="M604.07,-197.13C626.47,-186.8 654.01,-174.11 674.69,-164.58"/>
<polygon fill="midnightblue" stroke="midnightblue" points="602.43,-194.03 594.82,-201.4 605.36,-200.39 602.43,-194.03"/>
</g>
<!-- Node9&#45;&gt;Node14 -->
<g id="edge16" class="edge">
<title>Node9&#45;&gt;Node14</title>
<path fill="none" stroke="midnightblue" d="M580.11,-193.19C599.57,-165.86 631.96,-120.38 648.23,-97.52"/>
<polygon fill="midnightblue" stroke="midnightblue" points="577.23,-191.2 574.28,-201.37 582.93,-195.26 577.23,-191.2"/>
</g>
<!-- Node10&#45;&gt;Node11 -->
<g id="edge10" class="edge">
<title>Node10&#45;&gt;Node11</title>
<path fill="none" stroke="midnightblue" d="M455.95,-128.17C443.1,-118.23 427.96,-106.51 416.41,-97.58"/>
<polygon fill="midnightblue" stroke="midnightblue" points="453.94,-131.04 463.99,-134.4 458.23,-125.51 453.94,-131.04"/>
</g>
<!-- Node12 -->
<g id="node12" class="node">
<title>Node12</title>
<g id="a_node12"><a xlink:href="when__all_8cpp.html" target="_top" xlink:title=" ">
<polygon fill="none" stroke="black" points="196.72,-0.5 196.72,-30.5 297.72,-30.5 297.72,-0.5 196.72,-0.5"/>
<text text-anchor="start" x="204.72" y="-18.5" font-family="Helvetica,sans-Serif" font-size="10.00">test/example/async</text>
<text text-anchor="middle" x="247.22" y="-7.5" font-family="Helvetica,sans-Serif" font-size="10.00">/when_all.cpp</text>
</a>
</g>
</g>
<!-- Node11&#45;&gt;Node12 -->
<g id="edge11" class="edge">
<title>Node11&#45;&gt;Node12</title>
<path fill="none" stroke="midnightblue" d="M356.19,-63.41C332.08,-53.03 302.27,-40.2 279.92,-30.58"/>
<polygon fill="midnightblue" stroke="midnightblue" points="354.89,-66.66 365.46,-67.4 357.66,-60.23 354.89,-66.66"/>
</g>
<!-- Node13&#45;&gt;Node14 -->
<g id="edge13" class="edge">
<title>Node13&#45;&gt;Node14</title>
<path fill="none" stroke="midnightblue" d="M689.07,-126.16C682.21,-116.68 674.43,-105.92 668.4,-97.58"/>
<polygon fill="midnightblue" stroke="midnightblue" points="686.33,-128.34 695.02,-134.4 692,-124.24 686.33,-128.34"/>
</g>
<!-- Node15 -->
<g id="node15" class="node">
<title>Node15</title>
<g id="a_node15"><a xlink:href="when__any_8cpp.html" target="_top" xlink:title=" ">
<polygon fill="none" stroke="black" points="391.72,-0.5 391.72,-30.5 492.72,-30.5 492.72,-0.5 391.72,-0.5"/>
<text text-anchor="start" x="399.72" y="-18.5" font-family="Helvetica,sans-Serif" font-size="10.00">test/example/async</text>
<text text-anchor="middle" x="442.22" y="-7.5" font-family="Helvetica,sans-Serif" font-size="10.00">/when_any.cpp</text>
</a>
</g>
</g>
<!-- Node14&#45;&gt;Node15 -->
<g id="edge14" class="edge">
<title>Node14&#45;&gt;Node15</title>
<path fill="none" stroke="midnightblue" d="M601.99,-64.58C566.91,-54.02 522.28,-40.59 489.11,-30.61"/>
<polygon fill="midnightblue" stroke="midnightblue" points="601.03,-67.95 611.62,-67.48 603.05,-61.24 601.03,-67.95"/>
</g>
<!-- Node17&#45;&gt;Node8 -->
<g id="edge19" class="edge">
<title>Node17&#45;&gt;Node8</title>
<path fill="none" stroke="midnightblue" d="M143.19,-200.58C190.93,-189.09 256.09,-173.4 300.69,-162.66"/>
<polygon fill="midnightblue" stroke="midnightblue" points="142.18,-197.22 133.28,-202.97 143.82,-204.03 142.18,-197.22"/>
</g>
<!-- Node17&#45;&gt;Node12 -->
<g id="edge20" class="edge">
<title>Node17&#45;&gt;Node12</title>
<path fill="none" stroke="midnightblue" d="M95.53,-192.61C114.95,-162.37 151.56,-108.11 189.22,-67 201.49,-53.61 217.09,-40.2 229.02,-30.56"/>
<polygon fill="midnightblue" stroke="midnightblue" points="92.49,-190.87 90.07,-201.19 98.4,-194.63 92.49,-190.87"/>
</g>
<!-- Node17&#45;&gt;Node15 -->
<g id="edge21" class="edge">
<title>Node17&#45;&gt;Node15</title>
<path fill="none" stroke="midnightblue" d="M112.85,-196.09C160.77,-166.93 254.89,-110.59 337.22,-67 361.71,-54.03 390.06,-40.48 411.13,-30.68"/>
<polygon fill="midnightblue" stroke="midnightblue" points="110.9,-193.18 104.18,-201.38 114.54,-199.16 110.9,-193.18"/>
</g>
<!-- Node18&#45;&gt;Node3 -->
<g id="edge23" class="edge">
<title>Node18&#45;&gt;Node3</title>
<path fill="none" stroke="midnightblue" d="M241.96,-241.85C242.79,-269.31 244.12,-313.04 244.79,-335.37"/>
<polygon fill="midnightblue" stroke="midnightblue" points="245.45,-241.41 241.65,-231.52 238.45,-241.63 245.45,-241.41"/>
</g>
<!-- Node23&#45;&gt;Node21 -->
<g id="edge31" class="edge">
<title>Node23&#45;&gt;Node21</title>
<path fill="none" stroke="midnightblue" d="M1301.75,-126.16C1295.19,-116.68 1287.74,-105.92 1281.97,-97.58"/>
<polygon fill="midnightblue" stroke="midnightblue" points="1298.89,-128.17 1307.46,-134.4 1304.64,-124.18 1298.89,-128.17"/>
</g>
<!-- Node24&#45;&gt;Node22 -->
<g id="edge33" class="edge">
<title>Node24&#45;&gt;Node22</title>
<path fill="none" stroke="midnightblue" d="M1089.09,-130.13C1066.53,-119.8 1038.8,-107.11 1017.97,-97.58"/>
<polygon fill="midnightblue" stroke="midnightblue" points="1087.86,-133.42 1098.41,-134.4 1090.77,-127.05 1087.86,-133.42"/>
</g>
<!-- Node26&#45;&gt;Node23 -->
<g id="edge36" class="edge">
<title>Node26&#45;&gt;Node23</title>
<path fill="none" stroke="midnightblue" d="M1422.27,-197.27C1399.02,-186.92 1370.35,-174.15 1348.84,-164.58"/>
<polygon fill="midnightblue" stroke="midnightblue" points="1420.98,-200.53 1431.54,-201.4 1423.83,-194.13 1420.98,-200.53"/>
</g>
<!-- Node26&#45;&gt;Node24 -->
<g id="edge37" class="edge">
<title>Node26&#45;&gt;Node24</title>
<path fill="none" stroke="midnightblue" d="M1405.91,-201.02C1329.68,-184.57 1253.35,-171.02 1199.5,-161.94"/>
<polygon fill="midnightblue" stroke="midnightblue" points="1405.18,-204.44 1415.69,-203.15 1406.67,-197.6 1405.18,-204.44"/>
</g>
<!-- Node26&#45;&gt;Node25 -->
<g id="edge38" class="edge">
<title>Node26&#45;&gt;Node25</title>
<path fill="none" stroke="midnightblue" d="M1405.39,-201.04C1247.82,-174.08 1203.67,-191.8 1050.22,-165 1047.15,-164.46 1044.01,-163.86 1040.85,-163.2"/>
<polygon fill="midnightblue" stroke="midnightblue" points="1404.99,-204.53 1415.44,-202.8 1406.19,-197.63 1404.99,-204.53"/>
</g>
<!-- Node27 -->
<g id="node27" class="node">
<title>Node27</title>
<g id="a_node27"><a xlink:href="coro_2task_8hpp.html" target="_top" xlink:title=" ">
<polygon fill="none" stroke="black" points="1528.72,-134.5 1528.72,-164.5 1625.72,-164.5 1625.72,-134.5 1528.72,-134.5"/>
<text text-anchor="start" x="1536.72" y="-152.5" font-family="Helvetica,sans-Serif" font-size="10.00">include/yaclib/coro</text>
<text text-anchor="middle" x="1577.22" y="-141.5" font-family="Helvetica,sans-Serif" font-size="10.00">/task.hpp</text>
</a>
</g>
</g>
<!-- Node26&#45;&gt;Node27 -->
<g id="edge39" class="edge">
<title>Node26&#45;&gt;Node27</title>
<path fill="none" stroke="midnightblue" d="M1496.9,-196.3C1514.74,-186.12 1536.26,-173.85 1552.53,-164.58"/>
<polygon fill="midnightblue" stroke="midnightblue" points="1494.91,-193.4 1487.96,-201.4 1498.38,-199.48 1494.91,-193.4"/>
</g>
<!-- Node28 -->
<g id="node28" class="node">
<title>Node28</title>
<g id="a_node28"><a xlink:href="lazy_2make_8hpp.html" target="_top" xlink:title=" ">
<polygon fill="none" stroke="black" points="1644.72,-67.5 1644.72,-97.5 1739.72,-97.5 1739.72,-67.5 1644.72,-67.5"/>
<text text-anchor="start" x="1652.72" y="-85.5" font-family="Helvetica,sans-Serif" font-size="10.00">include/yaclib/lazy</text>
<text text-anchor="middle" x="1692.22" y="-74.5" font-family="Helvetica,sans-Serif" font-size="10.00">/make.hpp</text>
</a>
</g>
</g>
<!-- Node26&#45;&gt;Node28 -->
<g id="edge40" class="edge">
<title>Node26&#45;&gt;Node28</title>
<path fill="none" stroke="midnightblue" d="M1520.69,-200.65C1566.89,-188.38 1625.63,-171.89 1635.22,-165 1659.76,-147.37 1677.39,-115.76 1686.08,-97.52"/>
<polygon fill="midnightblue" stroke="midnightblue" points="1519.52,-197.34 1510.75,-203.28 1521.31,-204.11 1519.52,-197.34"/>
</g>
<!-- Node29 -->
<g id="node29" class="node">
<title>Node29</title>
<g id="a_node29"><a xlink:href="schedule_8hpp.html" target="_top" xlink:title=" ">
<polygon fill="none" stroke="black" points="1682.72,-134.5 1682.72,-164.5 1777.72,-164.5 1777.72,-134.5 1682.72,-134.5"/>
<text text-anchor="start" x="1690.72" y="-152.5" font-family="Helvetica,sans-Serif" font-size="10.00">include/yaclib/lazy</text>
<text text-anchor="middle" x="1730.22" y="-141.5" font-family="Helvetica,sans-Serif" font-size="10.00">/schedule.hpp</text>
</a>
</g>
</g>
<!-- Node26&#45;&gt;Node29 -->
<g id="edge41" class="edge">
<title>Node26&#45;&gt;Node29</title>
<path fill="none" stroke="midnightblue" d="M1520.71,-200.9C1582.37,-185.68 1642.21,-171.36 1682.64,-161.75"/>
<polygon fill="midnightblue" stroke="midnightblue" points="1519.66,-197.55 1510.8,-203.35 1521.34,-204.35 1519.66,-197.55"/>
</g>
<!-- Node30 -->
<g id="node30" class="node">
<title>Node30</title>
<g id="a_node30"><a xlink:href="task__impl_8cpp.html" target="_top" xlink:title=" ">
<polygon fill="none" stroke="black" points="1397.72,-140 1397.72,-159 1510.72,-159 1510.72,-140 1397.72,-140"/>
<text text-anchor="middle" x="1454.22" y="-147" font-family="Helvetica,sans-Serif" font-size="10.00">src/lazy/task_impl.cpp</text>
</a>
</g>
</g>
<!-- Node26&#45;&gt;Node30 -->
<g id="edge43" class="edge">
<title>Node26&#45;&gt;Node30</title>
<path fill="none" stroke="midnightblue" d="M1459.86,-191.25C1458.31,-180.02 1456.56,-167.38 1455.43,-159.19"/>
<polygon fill="midnightblue" stroke="midnightblue" points="1456.43,-191.97 1461.27,-201.4 1463.36,-191.01 1456.43,-191.97"/>
</g>
<!-- Node29&#45;&gt;Node28 -->
<g id="edge42" class="edge">
<title>Node29&#45;&gt;Node28</title>
<path fill="none" stroke="midnightblue" d="M1716.82,-125.58C1711.36,-116.24 1705.23,-105.75 1700.45,-97.58"/>
<polygon fill="midnightblue" stroke="midnightblue" points="1713.91,-127.53 1721.98,-134.4 1719.95,-124 1713.91,-127.53"/>
</g>
<!-- Node33&#45;&gt;Node5 -->
<g id="edge49" class="edge">
<title>Node33&#45;&gt;Node5</title>
<path fill="none" stroke="midnightblue" d="M1044.75,-392.08C1045.75,-373.91 1050.17,-349.78 1065.22,-335 1213.15,-189.72 1318.62,-280.45 1520.22,-232 1523.1,-231.31 1526.06,-230.59 1529.04,-229.85"/>
<polygon fill="midnightblue" stroke="midnightblue" points="1041.24,-392.16 1044.5,-402.24 1048.24,-392.33 1041.24,-392.16"/>
</g>
<!-- Node34 -->
<g id="node34" class="node">
<title>Node34</title>
<g id="a_node34"><a xlink:href="one__shot__event_8cpp.html" target="_top" xlink:title=" ">
<polygon fill="none" stroke="black" points="1073.72,-341 1073.72,-360 1214.72,-360 1214.72,-341 1073.72,-341"/>
<text text-anchor="middle" x="1144.22" y="-348" font-family="Helvetica,sans-Serif" font-size="10.00">src/algo/one_shot_event.cpp</text>
</a>
</g>
</g>
<!-- Node33&#45;&gt;Node34 -->
<g id="edge50" class="edge">
<title>Node33&#45;&gt;Node34</title>
<path fill="none" stroke="midnightblue" d="M1075.21,-396.81C1093.94,-384.51 1117.11,-369.3 1131.26,-360.01"/>
<polygon fill="midnightblue" stroke="midnightblue" points="1073.14,-393.98 1066.7,-402.4 1076.98,-399.83 1073.14,-393.98"/>
</g>
</g>
</svg>
        <g id="navigator" transform="translate(0 0)" fill="#404254">
                <rect fill="#f2f5e9" fill-opacity="0.5" stroke="#606060" stroke-width=".5" x="0" y="0" width="60" height="60"/>
                <use id="zoomplus" xlink:href="#zoomPlus" x="17" y="9" onmousedown="handleZoom(evt,'in')"/>
                <use id="zoomminus" xlink:href="#zoomMin" x="42" y="9" onmousedown="handleZoom(evt,'out')"/>
                <use id="reset" xlink:href="#resetDef" x="30" y="36" onmousedown="handleReset()"/>
                <g id="arrowUp" xlink:href="#dirArrow" transform="translate(30 24)" onmousedown="handlePan(0,-1)">
                  <use xlink:href="#rim" fill="#404040">
                        <set attributeName="fill" to="#808080" begin="arrowUp.mouseover" end="arrowUp.mouseout"/>
                  </use>
                  <path fill="none" stroke="white" stroke-width="1.5" d="M0,-3.0v7 M-2.5,-0.5L0,-3.0L2.5,-0.5"/>
                </g>
                <g id="arrowRight" xlink:href="#dirArrow" transform="rotate(90) translate(36 -43)" onmousedown="handlePan(1,0)">
                  <use xlink:href="#rim" fill="#404040">
                        <set attributeName="fill" to="#808080" begin="arrowRight.mouseover" end="arrowRight.mouseout"/>
                  </use>
                  <path fill="none" stroke="white" stroke-width="1.5" d="M0,-3.0v7 M-2.5,-0.5L0,-3.0L2.5,-0.5"/>
                </g>
                <g id="arrowDown" xlink:href="#dirArrow" transform="rotate(180) translate(-30 -48)" onmousedown="handlePan(0,1)">
                  <use xlink:href="#rim" fill="#404040">
                        <set attributeName="fill" to="#808080" begin="arrowDown.mouseover" end="arrowDown.mouseout"/>
                  </use>
                  <path fill="none" stroke="white" stroke-width="1.5" d="M0,-3.0v7 M-2.5,-0.5L0,-3.0L2.5,-0.5"/>
                </g>
                <g id="arrowLeft" xlink:href="#dirArrow" transform="rotate(270) translate(-36 17)" onmousedown="handlePan(-1,0)">
                  <use xlink:href="#rim" fill="#404040">
                        <set attributeName="fill" to="#808080" begin="arrowLeft.mouseover" end="arrowLeft.mouseout"/>
                  </use>
                  <path fill="none" stroke="white" stroke-width="1.5" d="M0,-3.0v7 M-2.5,-0.5L0,-3.0L2.5,-0.5"/>
                </g>
        </g>
        <svg viewBox="0 0 15 15" width="100%" height="30px" preserveAspectRatio="xMaxYMin meet">
         <g id="arrow_out" transform="scale(0.3 0.3)">
          <a xlink:href="helper_8hpp__dep__incl_org.svg" target="_base">
           <rect id="button" ry="5" rx="5" y="6" x="6" height="38" width="38"
                fill="#f2f5e9" fill-opacity="0.5" stroke="#606060" stroke-width="1.0"/>
           <path id="arrow"
             d="M 11.500037,31.436501 C 11.940474,20.09759 22.043105,11.32322 32.158766,21.979434 L 37.068811,17.246167 C 37.068811,17.246167 37.088388,32 37.088388,32 L 22.160133,31.978069 C 22.160133,31.978069 26.997745,27.140456 26.997745,27.140456 C 18.528582,18.264221 13.291696,25.230495 11.500037,31.436501 z"
             style="fill:#404040;"/>
          </a>
         </g>
        </svg>
</svg>
