<?xml version="1.0" encoding="UTF-8" standalone="no"?>
<!DOCTYPE svg PUBLIC "-//W3C//DTD SVG 1.1//EN"
 "http://www.w3.org/Graphics/SVG/1.1/DTD/svg11.dtd">
<!-- Generated by graphviz version 3.0.0 (20221109.1736)
 -->
<!-- Title: Graphical Class Hierarchy Pages: 1 -->
<svg width="1303pt" height="580pt"
 viewBox="0.00 0.00 1303.00 580.00" xmlns="http://www.w3.org/2000/svg" xmlns:xlink="http://www.w3.org/1999/xlink">
<g id="graph0" class="graph" transform="scale(1 1) rotate(0) translate(4 576)">
<title>Graphical Class Hierarchy</title>
<!-- Node0 -->
<g id="node1" class="node">
<title>Node0</title>
<g id="a_node1"><a xlink:href="structyaclib_1_1detail_1_1AllCombinatorBase.html" target="_top" xlink:title=" ">
<polygon fill="none" stroke="black" points="415,-492.5 415,-522.5 549,-522.5 549,-492.5 415,-492.5"/>
<text text-anchor="start" x="423" y="-510.5" font-family="Helvetica,sans-Serif" font-size="10.00">yaclib::detail::AllCombinator</text>
<text text-anchor="middle" x="482" y="-499.5" font-family="Helvetica,sans-Serif" font-size="10.00">Base&lt; O, R &gt;</text>
</a>
</g>
</g>
<!-- Node1 -->
<g id="node2" class="node">
<title>Node1</title>
<g id="a_node2"><a xlink:href="classyaclib_1_1detail_1_1AllCombinator.html" target="_top" xlink:title=" ">
<polygon fill="none" stroke="black" points="602.5,-492.5 602.5,-522.5 736.5,-522.5 736.5,-492.5 602.5,-492.5"/>
<text text-anchor="start" x="610.5" y="-510.5" font-family="Helvetica,sans-Serif" font-size="10.00">yaclib::detail::AllCombinator</text>
<text text-anchor="middle" x="669.5" y="-499.5" font-family="Helvetica,sans-Serif" font-size="10.00">&lt; O, R, E &gt;</text>
</a>
</g>
</g>
<!-- Node0&#45;&gt;Node1 -->
<g id="edge1" class="edge">
<title>Node0&#45;&gt;Node1</title>
<path fill="none" stroke="darkgreen" d="M559.44,-507.5C573.68,-507.5 588.44,-507.5 602.34,-507.5"/>
<polygon fill="darkgreen" stroke="darkgreen" points="559.18,-504 549.18,-507.5 559.18,-511 559.18,-504"/>
</g>
<!-- Node12 -->
<g id="node3" class="node">
<title>Node12</title>
<g id="a_node3"><a xlink:href="structyaclib_1_1detail_1_1AllCombinatorBase.html" target="_top" xlink:title=" ">
<polygon fill="none" stroke="black" points="408,-443.5 408,-473.5 556,-473.5 556,-443.5 408,-443.5"/>
<text text-anchor="start" x="416" y="-461.5" font-family="Helvetica,sans-Serif" font-size="10.00">yaclib::detail::AllCombinator</text>
<text text-anchor="middle" x="482" y="-450.5" font-family="Helvetica,sans-Serif" font-size="10.00">Base&lt; OrderPolicy::Same, R &gt;</text>
</a>
</g>
</g>
<!-- Node11 -->
<g id="node4" class="node">
<title>Node11</title>
<g id="a_node4"><a xlink:href="classyaclib_1_1detail_1_1AllCombinator_3_01OrderPolicy_1_1Same_00_01R_00_01E_01_4.html" target="_top" xlink:title=" ">
<polygon fill="none" stroke="black" points="601,-443.5 601,-473.5 738,-473.5 738,-443.5 601,-443.5"/>
<text text-anchor="start" x="609" y="-461.5" font-family="Helvetica,sans-Serif" font-size="10.00">yaclib::detail::AllCombinator</text>
<text text-anchor="middle" x="669.5" y="-450.5" font-family="Helvetica,sans-Serif" font-size="10.00">&lt; OrderPolicy::Same, R, E &gt;</text>
</a>
</g>
</g>
<!-- Node12&#45;&gt;Node11 -->
<g id="edge2" class="edge">
<title>Node12&#45;&gt;Node11</title>
<path fill="none" stroke="midnightblue" d="M566.2,-458.5C577.83,-458.5 589.66,-458.5 600.96,-458.5"/>
<polygon fill="midnightblue" stroke="midnightblue" points="566.05,-455 556.05,-458.5 566.05,-462 566.05,-455"/>
</g>
<!-- Node14 -->
<g id="node5" class="node">
<title>Node14</title>
<g id="a_node5"><a xlink:href="classyaclib_1_1detail_1_1AnyCombinatorBase.html" target="_top" xlink:title=" ">
<polygon fill="none" stroke="black" points="412,-394.5 412,-424.5 552,-424.5 552,-394.5 412,-394.5"/>
<text text-anchor="start" x="420" y="-412.5" font-family="Helvetica,sans-Serif" font-size="10.00">yaclib::detail::AnyCombinator</text>
<text text-anchor="middle" x="482" y="-401.5" font-family="Helvetica,sans-Serif" font-size="10.00">Base&lt; V, E, P &gt;</text>
</a>
</g>
</g>
<!-- Node13 -->
<g id="node6" class="node">
<title>Node13</title>
<g id="a_node6"><a xlink:href="classyaclib_1_1detail_1_1AnyCombinator.html" target="_top" xlink:title=" ">
<polygon fill="none" stroke="black" points="599.5,-394.5 599.5,-424.5 739.5,-424.5 739.5,-394.5 599.5,-394.5"/>
<text text-anchor="start" x="607.5" y="-412.5" font-family="Helvetica,sans-Serif" font-size="10.00">yaclib::detail::AnyCombinator</text>
<text text-anchor="middle" x="669.5" y="-401.5" font-family="Helvetica,sans-Serif" font-size="10.00">&lt; V, E, P &gt;</text>
</a>
</g>
</g>
<!-- Node14&#45;&gt;Node13 -->
<g id="edge3" class="edge">
<title>Node14&#45;&gt;Node13</title>
<path fill="none" stroke="midnightblue" d="M562.33,-409.5C574.65,-409.5 587.3,-409.5 599.37,-409.5"/>
<polygon fill="midnightblue" stroke="midnightblue" points="562.07,-406 552.07,-409.5 562.07,-413 562.07,-406"/>
</g>
<!-- Node4 -->
<g id="node7" class="node">
<title>Node4</title>
<g id="a_node7"><a xlink:title=" ">
<polygon fill="none" stroke="#bfbfbf" points="435,-104 435,-123 529,-123 529,-104 435,-104"/>
<text text-anchor="middle" x="482" y="-111" font-family="Helvetica,sans-Serif" font-size="10.00">AwaitOnCounterT</text>
</a>
</g>
</g>
<!-- Node3 -->
<g id="node8" class="node">
<title>Node3</title>
<g id="a_node8"><a xlink:href="classyaclib_1_1detail_1_1AwaitOnEvent.html" target="_top" xlink:title=" ">
<polygon fill="none" stroke="black" points="601.5,-49.5 601.5,-79.5 737.5,-79.5 737.5,-49.5 601.5,-49.5"/>
<text text-anchor="start" x="609.5" y="-67.5" font-family="Helvetica,sans-Serif" font-size="10.00">yaclib::detail::AwaitOnEvent</text>
<text text-anchor="middle" x="669.5" y="-56.5" font-family="Helvetica,sans-Serif" font-size="10.00">&lt; true &gt;</text>
</a>
</g>
</g>
<!-- Node4&#45;&gt;Node3 -->
<g id="edge4" class="edge">
<title>Node4&#45;&gt;Node3</title>
<path fill="none" stroke="midnightblue" d="M529.15,-101.31C554.1,-94.72 585.13,-86.52 611.57,-79.54"/>
<polygon fill="midnightblue" stroke="midnightblue" points="527.98,-98 519.21,-103.94 529.77,-104.77 527.98,-98"/>
</g>
<!-- Node5 -->
<g id="node9" class="node">
<title>Node5</title>
<g id="a_node9"><a xlink:href="classyaclib_1_1detail_1_1AwaitOnEvent.html" target="_top" xlink:title=" ">
<polygon fill="none" stroke="black" points="601.5,-0.5 601.5,-30.5 737.5,-30.5 737.5,-0.5 601.5,-0.5"/>
<text text-anchor="start" x="609.5" y="-18.5" font-family="Helvetica,sans-Serif" font-size="10.00">yaclib::detail::AwaitOnEvent</text>
<text text-anchor="middle" x="669.5" y="-7.5" font-family="Helvetica,sans-Serif" font-size="10.00">&lt; false &gt;</text>
</a>
</g>
</g>
<!-- Node4&#45;&gt;Node5 -->
<g id="edge5" class="edge">
<title>Node4&#45;&gt;Node5</title>
<path fill="none" stroke="midnightblue" d="M538.92,-102.74C544.99,-100.27 550.83,-97.23 556,-93.5 579.39,-76.62 568.92,-56.8 592,-39.5 596.57,-36.08 601.63,-33.13 606.92,-30.61"/>
<polygon fill="midnightblue" stroke="midnightblue" points="537.52,-99.53 529.27,-106.18 539.87,-106.12 537.52,-99.53"/>
</g>
<!-- Node6 -->
<g id="node10" class="node">
<title>Node6</title>
<g id="a_node10"><a xlink:href="classyaclib_1_1detail_1_1AwaitOnEvent.html" target="_top" xlink:title=" ">
<polygon fill="none" stroke="black" points="601.5,-98.5 601.5,-128.5 737.5,-128.5 737.5,-98.5 601.5,-98.5"/>
<text text-anchor="start" x="609.5" y="-116.5" font-family="Helvetica,sans-Serif" font-size="10.00">yaclib::detail::AwaitOnEvent</text>
<text text-anchor="middle" x="669.5" y="-105.5" font-family="Helvetica,sans-Serif" font-size="10.00">&lt; Single &gt;</text>
</a>
</g>
</g>
<!-- Node4&#45;&gt;Node6 -->
<g id="edge6" class="edge">
<title>Node4&#45;&gt;Node6</title>
<path fill="none" stroke="midnightblue" d="M539.58,-113.5C559.1,-113.5 581.15,-113.5 601.42,-113.5"/>
<polygon fill="midnightblue" stroke="midnightblue" points="539.33,-110 529.33,-113.5 539.33,-117 539.33,-110"/>
</g>
<!-- Node24 -->
<g id="node11" class="node">
<title>Node24</title>
<g id="a_node11"><a xlink:href="classyaclib_1_1detail_1_1FuncCore.html" target="_top" xlink:title=" ">
<polygon fill="none" stroke="black" points="794.5,-160.5 794.5,-190.5 910.5,-190.5 910.5,-160.5 794.5,-160.5"/>
<text text-anchor="start" x="802.5" y="-178.5" font-family="Helvetica,sans-Serif" font-size="10.00">yaclib::detail::FuncCore</text>
<text text-anchor="middle" x="852.5" y="-167.5" font-family="Helvetica,sans-Serif" font-size="10.00">&lt; Func &gt;</text>
</a>
</g>
</g>
<!-- Node25 -->
<g id="node12" class="node">
<title>Node25</title>
<g id="a_node12"><a xlink:href="classyaclib_1_1detail_1_1Core.html" target="_top" xlink:title=" ">
<polygon fill="none" stroke="black" points="978.5,-105 978.5,-146 1107.5,-146 1107.5,-105 978.5,-105"/>
<text text-anchor="start" x="986.5" y="-134" font-family="Helvetica,sans-Serif" font-size="10.00">yaclib::detail::Core</text>
<text text-anchor="start" x="986.5" y="-123" font-family="Helvetica,sans-Serif" font-size="10.00">&lt; Ret, Arg, E, Func,</text>
<text text-anchor="middle" x="1043" y="-112" font-family="Helvetica,sans-Serif" font-size="10.00"> Type, kIsAsync, kIsCall &gt;</text>
</a>
</g>
</g>
<!-- Node24&#45;&gt;Node25 -->
<g id="edge7" class="edge">
<title>Node24&#45;&gt;Node25</title>
<path fill="none" stroke="midnightblue" d="M919.81,-157.91C938.78,-152.88 959.41,-147.41 978.22,-142.42"/>
<polygon fill="midnightblue" stroke="midnightblue" points="918.82,-154.55 910.06,-160.5 920.62,-161.32 918.82,-154.55"/>
</g>
<!-- Node23 -->
<g id="node13" class="node">
<title>Node23</title>
<g id="a_node13"><a xlink:href="classyaclib_1_1detail_1_1PromiseCore.html" target="_top" xlink:title=" ">
<polygon fill="none" stroke="black" points="978,-164.5 978,-194.5 1108,-194.5 1108,-164.5 978,-164.5"/>
<text text-anchor="start" x="986" y="-182.5" font-family="Helvetica,sans-Serif" font-size="10.00">yaclib::detail::PromiseCore</text>
<text text-anchor="middle" x="1043" y="-171.5" font-family="Helvetica,sans-Serif" font-size="10.00">&lt; V, E, Func &gt;</text>
</a>
</g>
</g>
<!-- Node24&#45;&gt;Node23 -->
<g id="edge8" class="edge">
<title>Node24&#45;&gt;Node23</title>
<path fill="none" stroke="midnightblue" d="M920.72,-176.93C939.32,-177.32 959.46,-177.75 977.87,-178.14"/>
<polygon fill="midnightblue" stroke="midnightblue" points="920.64,-173.42 910.57,-176.71 920.49,-180.42 920.64,-173.42"/>
</g>
<!-- Node38 -->
<g id="node14" class="node">
<title>Node38</title>
<g id="a_node14"><a xlink:href="classyaclib_1_1IRef.html" target="_top" xlink:title="Reference counting interface.">
<polygon fill="none" stroke="black" points="0,-225 0,-244 64,-244 64,-225 0,-225"/>
<text text-anchor="middle" x="32" y="-232" font-family="Helvetica,sans-Serif" font-size="10.00">yaclib::IRef</text>
</a>
</g>
</g>
<!-- Node35 -->
<g id="node15" class="node">
<title>Node35</title>
<g id="a_node15"><a xlink:href="classyaclib_1_1IExecutor.html" target="_top" xlink:title=" ">
<polygon fill="none" stroke="black" points="112,-277 112,-296 198,-296 198,-277 112,-277"/>
<text text-anchor="middle" x="155" y="-284" font-family="Helvetica,sans-Serif" font-size="10.00">yaclib::IExecutor</text>
</a>
</g>
</g>
<!-- Node38&#45;&gt;Node35 -->
<g id="edge9" class="edge">
<title>Node38&#45;&gt;Node35</title>
<path fill="none" stroke="midnightblue" d="M64.66,-248.11C85.67,-257.13 112.73,-268.76 131.54,-276.85"/>
<polygon fill="midnightblue" stroke="midnightblue" points="65.76,-244.77 55.19,-244.04 63,-251.2 65.76,-244.77"/>
</g>
<!-- Node39 -->
<g id="node19" class="node">
<title>Node39</title>
<g id="a_node19"><a xlink:href="classyaclib_1_1IFunc.html" target="_top" xlink:title="Callable interface.">
<polygon fill="none" stroke="black" points="119.5,-173 119.5,-192 190.5,-192 190.5,-173 119.5,-173"/>
<text text-anchor="middle" x="155" y="-180" font-family="Helvetica,sans-Serif" font-size="10.00">yaclib::IFunc</text>
</a>
</g>
</g>
<!-- Node38&#45;&gt;Node39 -->
<g id="edge13" class="edge">
<title>Node38&#45;&gt;Node39</title>
<path fill="none" stroke="midnightblue" d="M60.88,-220.49C72.82,-214.67 86.98,-208.01 100,-202.5 108.56,-198.88 118.03,-195.25 126.62,-192.09"/>
<polygon fill="midnightblue" stroke="midnightblue" points="59.28,-217.37 51.85,-224.93 62.37,-223.65 59.28,-217.37"/>
</g>
<!-- Node36 -->
<g id="node16" class="node">
<title>Node36</title>
<g id="a_node16"><a xlink:href="classyaclib_1_1FairThreadPool.html" target="_top" xlink:title="TODO(kononovk) Doxygen docs.">
<polygon fill="none" stroke="black" points="253,-293 253,-312 365,-312 365,-293 253,-293"/>
<text text-anchor="middle" x="309" y="-300" font-family="Helvetica,sans-Serif" font-size="10.00">yaclib::FairThreadPool</text>
</a>
</g>
</g>
<!-- Node35&#45;&gt;Node36 -->
<g id="edge10" class="edge">
<title>Node35&#45;&gt;Node36</title>
<path fill="none" stroke="midnightblue" d="M208.51,-292.03C222.81,-293.53 238.35,-295.17 252.8,-296.69"/>
<polygon fill="midnightblue" stroke="midnightblue" points="208.65,-288.52 198.34,-290.96 207.92,-295.48 208.65,-288.52"/>
</g>
<!-- Node37 -->
<g id="node17" class="node">
<title>Node37</title>
<g id="a_node17"><a xlink:href="classyaclib_1_1ManualExecutor.html" target="_top" xlink:title="TODO(mkornaukhov03) Doxygen.">
<polygon fill="none" stroke="black" points="251.5,-255 251.5,-274 366.5,-274 366.5,-255 251.5,-255"/>
<text text-anchor="middle" x="309" y="-262" font-family="Helvetica,sans-Serif" font-size="10.00">yaclib::ManualExecutor</text>
</a>
</g>
</g>
<!-- Node35&#45;&gt;Node37 -->
<g id="edge11" class="edge">
<title>Node35&#45;&gt;Node37</title>
<path fill="none" stroke="midnightblue" d="M208.64,-278.88C222.45,-276.88 237.39,-274.72 251.4,-272.69"/>
<polygon fill="midnightblue" stroke="midnightblue" points="207.74,-275.48 198.34,-280.37 208.74,-282.4 207.74,-275.48"/>
</g>
<!-- Node34 -->
<g id="node18" class="node">
<title>Node34</title>
<g id="a_node18"><a xlink:href="classyaclib_1_1Strand.html" target="_top" xlink:title=" ">
<polygon fill="none" stroke="black" points="445,-284 445,-303 519,-303 519,-284 445,-284"/>
<text text-anchor="middle" x="482" y="-291" font-family="Helvetica,sans-Serif" font-size="10.00">yaclib::Strand</text>
</a>
</g>
</g>
<!-- Node35&#45;&gt;Node34 -->
<g id="edge12" class="edge">
<title>Node35&#45;&gt;Node34</title>
<path fill="none" stroke="midnightblue" d="M184.22,-300.6C201.56,-308.46 224.51,-317.47 246,-321.5 301.04,-331.83 316.44,-328.52 372,-321.5 399.72,-318 430.48,-309.67 452.24,-303"/>
<polygon fill="midnightblue" stroke="midnightblue" points="185.24,-297.21 174.7,-296.14 182.28,-303.55 185.24,-297.21"/>
</g>
<!-- Node30 -->
<g id="node20" class="node">
<title>Node30</title>
<g id="a_node20"><a xlink:href="classyaclib_1_1Job.html" target="_top" xlink:title="Callable that can be executed in an IExecutor.">
<polygon fill="none" stroke="black" points="278,-129 278,-148 340,-148 340,-129 278,-129"/>
<text text-anchor="middle" x="309" y="-136" font-family="Helvetica,sans-Serif" font-size="10.00">yaclib::Job</text>
</a>
</g>
</g>
<!-- Node39&#45;&gt;Node30 -->
<g id="edge14" class="edge">
<title>Node39&#45;&gt;Node30</title>
<path fill="none" stroke="midnightblue" d="M198.68,-170.15C223.92,-162.84 255.27,-153.76 277.92,-147.21"/>
<polygon fill="midnightblue" stroke="midnightblue" points="197.61,-166.81 188.98,-172.95 199.56,-173.53 197.61,-166.81"/>
</g>
<!-- Node40 -->
<g id="node36" class="node">
<title>Node40</title>
<g id="a_node36"><a xlink:href="classyaclib_1_1detail_1_1SharedFunc.html" target="_top" xlink:title=" ">
<polygon fill="none" stroke="black" points="246,-167.5 246,-197.5 372,-197.5 372,-167.5 246,-167.5"/>
<text text-anchor="start" x="254" y="-185.5" font-family="Helvetica,sans-Serif" font-size="10.00">yaclib::detail::SharedFunc</text>
<text text-anchor="middle" x="309" y="-174.5" font-family="Helvetica,sans-Serif" font-size="10.00">&lt; Func &gt;</text>
</a>
</g>
</g>
<!-- Node39&#45;&gt;Node40 -->
<g id="edge38" class="edge">
<title>Node39&#45;&gt;Node40</title>
<path fill="none" stroke="midnightblue" d="M201.21,-182.5C215.22,-182.5 230.9,-182.5 245.84,-182.5"/>
<polygon fill="midnightblue" stroke="midnightblue" points="200.87,-179 190.87,-182.5 200.87,-186 200.87,-179"/>
</g>
<!-- Node30&#45;&gt;Node34 -->
<g id="edge17" class="edge">
<title>Node30&#45;&gt;Node34</title>
<path fill="none" stroke="#8b1a1a" d="M349.65,-145.35C357.83,-148.29 365.82,-152.49 372,-158.5 406.45,-192.03 375.49,-225.09 408,-260.5 417.97,-271.36 432.2,-278.88 445.45,-283.97"/>
<polygon fill="#8b1a1a" stroke="#8b1a1a" points="350.65,-141.99 340.06,-142.44 348.62,-148.69 350.65,-141.99"/>
</g>
<!-- Node31 -->
<g id="node21" class="node">
<title>Node31</title>
<g id="a_node21"><a xlink:href="structyaclib_1_1OneShotEvent_1_1TimedWaiter.html" target="_top" xlink:title="Public only because Waiter is public.">
<polygon fill="none" stroke="black" points="427.5,-5.5 427.5,-35.5 536.5,-35.5 536.5,-5.5 427.5,-5.5"/>
<text text-anchor="start" x="435.5" y="-23.5" font-family="Helvetica,sans-Serif" font-size="10.00">yaclib::OneShotEvent</text>
<text text-anchor="middle" x="482" y="-12.5" font-family="Helvetica,sans-Serif" font-size="10.00">::TimedWaiter</text>
</a>
</g>
</g>
<!-- Node30&#45;&gt;Node31 -->
<g id="edge15" class="edge">
<title>Node30&#45;&gt;Node31</title>
<path fill="none" stroke="midnightblue" d="M323.96,-120.98C341.51,-100.03 373.54,-65.21 408,-44.5 413.95,-40.93 420.49,-37.81 427.14,-35.12"/>
<polygon fill="midnightblue" stroke="midnightblue" points="321.2,-118.82 317.56,-128.78 326.61,-123.27 321.2,-118.82"/>
</g>
<!-- Node33 -->
<g id="node22" class="node">
<title>Node33</title>
<g id="a_node22"><a xlink:href="structyaclib_1_1OneShotEvent_1_1Waiter.html" target="_top" xlink:title="Waiter is public for advanced users.">
<polygon fill="none" stroke="black" points="427.5,-54.5 427.5,-84.5 536.5,-84.5 536.5,-54.5 427.5,-54.5"/>
<text text-anchor="start" x="435.5" y="-72.5" font-family="Helvetica,sans-Serif" font-size="10.00">yaclib::OneShotEvent</text>
<text text-anchor="middle" x="482" y="-61.5" font-family="Helvetica,sans-Serif" font-size="10.00">::Waiter</text>
</a>
</g>
</g>
<!-- Node30&#45;&gt;Node33 -->
<g id="edge16" class="edge">
<title>Node30&#45;&gt;Node33</title>
<path fill="none" stroke="midnightblue" d="M339.22,-124.53C358.55,-115.5 384.55,-103.76 408,-94.5 416.6,-91.11 425.86,-87.73 434.81,-84.6"/>
<polygon fill="midnightblue" stroke="midnightblue" points="337.6,-121.43 330.04,-128.85 340.58,-127.76 337.6,-121.43"/>
</g>
<!-- Node2 -->
<g id="node23" class="node">
<title>Node2</title>
<g id="a_node23"><a xlink:href="classyaclib_1_1detail_1_1InlineCore.html" target="_top" xlink:title=" ">
<polygon fill="none" stroke="black" points="423.5,-182 423.5,-201 540.5,-201 540.5,-182 423.5,-182"/>
<text text-anchor="middle" x="482" y="-189" font-family="Helvetica,sans-Serif" font-size="10.00">yaclib::detail::InlineCore</text>
</a>
</g>
</g>
<!-- Node30&#45;&gt;Node2 -->
<g id="edge18" class="edge">
<title>Node30&#45;&gt;Node2</title>
<path fill="none" stroke="midnightblue" d="M350.1,-150.93C380.71,-160.42 422.25,-173.29 450.26,-181.97"/>
<polygon fill="midnightblue" stroke="midnightblue" points="350.77,-147.47 340.18,-147.85 348.69,-154.16 350.77,-147.47"/>
</g>
<!-- Node42 -->
<g id="node35" class="node">
<title>Node42</title>
<g id="a_node35"><a xlink:href="classyaclib_1_1detail_1_1UniqueJob.html" target="_top" xlink:title=" ">
<polygon fill="none" stroke="black" points="422,-220.5 422,-250.5 542,-250.5 542,-220.5 422,-220.5"/>
<text text-anchor="start" x="430" y="-238.5" font-family="Helvetica,sans-Serif" font-size="10.00">yaclib::detail::UniqueJob</text>
<text text-anchor="middle" x="482" y="-227.5" font-family="Helvetica,sans-Serif" font-size="10.00">&lt; Func &gt;</text>
</a>
</g>
</g>
<!-- Node30&#45;&gt;Node42 -->
<g id="edge37" class="edge">
<title>Node30&#45;&gt;Node42</title>
<path fill="none" stroke="midnightblue" d="M350,-147.15C357.76,-149.97 365.49,-153.66 372,-158.5 394.57,-175.26 385.58,-193.54 408,-210.5 413.13,-214.38 418.9,-217.68 424.89,-220.49"/>
<polygon fill="midnightblue" stroke="midnightblue" points="350.85,-143.75 340.26,-144.04 348.72,-150.42 350.85,-143.75"/>
</g>
<!-- Node2&#45;&gt;Node1 -->
<g id="edge23" class="edge">
<title>Node2&#45;&gt;Node1</title>
<path fill="none" stroke="midnightblue" d="M549.41,-205.39C551.8,-207.2 554.02,-209.23 556,-211.5 636.18,-303.38 513.52,-390.17 592,-483.5 594.96,-487.02 598.42,-490.02 602.22,-492.6"/>
<polygon fill="midnightblue" stroke="midnightblue" points="551.05,-202.3 540.7,-200.07 547.4,-208.27 551.05,-202.3"/>
</g>
<!-- Node2&#45;&gt;Node11 -->
<g id="edge24" class="edge">
<title>Node2&#45;&gt;Node11</title>
<path fill="none" stroke="midnightblue" d="M549.33,-205.46C551.74,-207.25 553.98,-209.25 556,-211.5 623.08,-286.2 526.3,-358.59 592,-434.5 594.91,-437.87 598.3,-440.77 601.98,-443.27"/>
<polygon fill="midnightblue" stroke="midnightblue" points="550.93,-202.34 540.56,-200.19 547.32,-208.34 550.93,-202.34"/>
</g>
<!-- Node2&#45;&gt;Node13 -->
<g id="edge25" class="edge">
<title>Node2&#45;&gt;Node13</title>
<path fill="none" stroke="midnightblue" d="M549.35,-205.69C551.74,-207.41 553.98,-209.35 556,-211.5 609.78,-268.73 539.62,-325.98 592,-384.5 595.45,-388.35 599.5,-391.61 603.9,-394.37"/>
<polygon fill="midnightblue" stroke="midnightblue" points="551.09,-202.65 540.71,-200.55 547.52,-208.67 551.09,-202.65"/>
</g>
<!-- Node2&#45;&gt;Node3 -->
<g id="edge19" class="edge">
<title>Node2&#45;&gt;Node3</title>
<path fill="none" stroke="midnightblue" d="M504.82,-175.74C519.86,-164.44 539.96,-148.44 556,-132.5 573.92,-114.69 571.07,-102.65 592,-88.5 597.07,-85.07 602.66,-82.11 608.44,-79.56"/>
<polygon fill="midnightblue" stroke="midnightblue" points="502.56,-173.06 496.61,-181.82 506.73,-178.68 502.56,-173.06"/>
</g>
<!-- Node2&#45;&gt;Node5 -->
<g id="edge20" class="edge">
<title>Node2&#45;&gt;Node5</title>
<path fill="none" stroke="midnightblue" d="M507.96,-176.23C523.56,-165.61 543.08,-150.22 556,-132.5 582.12,-96.69 559.65,-69.8 592,-39.5 595.66,-36.07 599.8,-33.14 604.22,-30.62"/>
<polygon fill="midnightblue" stroke="midnightblue" points="505.75,-173.5 499.31,-181.91 509.59,-179.35 505.75,-173.5"/>
</g>
<!-- Node2&#45;&gt;Node6 -->
<g id="edge27" class="edge">
<title>Node2&#45;&gt;Node6</title>
<path fill="none" stroke="midnightblue" d="M509.76,-177.21C531.55,-165.89 563.28,-150.11 592,-138.5 600.68,-134.99 610.06,-131.61 619.17,-128.52"/>
<polygon fill="midnightblue" stroke="midnightblue" points="508.02,-174.17 500.79,-181.92 511.27,-180.37 508.02,-174.17"/>
</g>
<!-- Node7 -->
<g id="node24" class="node">
<title>Node7</title>
<g id="a_node24"><a xlink:href="structyaclib_1_1detail_1_1CallCallback.html" target="_top" xlink:title=" ">
<polygon fill="none" stroke="black" points="592,-235.5 592,-287.5 747,-287.5 747,-235.5 592,-235.5"/>
<text text-anchor="start" x="600" y="-275.5" font-family="Helvetica,sans-Serif" font-size="10.00">yaclib::detail::CallCallback</text>
<text text-anchor="start" x="600" y="-264.5" font-family="Helvetica,sans-Serif" font-size="10.00">&lt; MultiEvent&lt; OneShotEvent,</text>
<text text-anchor="start" x="600" y="-253.5" font-family="Helvetica,sans-Serif" font-size="10.00"> yaclib::detail::AtomicCounter,</text>
<text text-anchor="middle" x="669.5" y="-242.5" font-family="Helvetica,sans-Serif" font-size="10.00"> yaclib::detail::CallCallback ... &gt; &gt;</text>
</a>
</g>
</g>
<!-- Node2&#45;&gt;Node7 -->
<g id="edge21" class="edge">
<title>Node2&#45;&gt;Node7</title>
<path fill="none" stroke="midnightblue" d="M531.79,-203.77C539.94,-206.13 548.26,-208.74 556,-211.5 567.17,-215.49 589.81,-225.42 611.86,-235.39"/>
<polygon fill="midnightblue" stroke="midnightblue" points="532.56,-200.35 521.98,-201.01 530.66,-207.09 532.56,-200.35"/>
</g>
<!-- Node15 -->
<g id="node26" class="node">
<title>Node15</title>
<g id="a_node26"><a xlink:href="classyaclib_1_1detail_1_1AwaitEvent.html" target="_top" xlink:title=" ">
<polygon fill="none" stroke="black" points="608,-356 608,-375 731,-375 731,-356 608,-356"/>
<text text-anchor="middle" x="669.5" y="-363" font-family="Helvetica,sans-Serif" font-size="10.00">yaclib::detail::AwaitEvent</text>
</a>
</g>
</g>
<!-- Node2&#45;&gt;Node15 -->
<g id="edge26" class="edge">
<title>Node2&#45;&gt;Node15</title>
<path fill="none" stroke="midnightblue" d="M549.83,-206.27C552.03,-207.84 554.1,-209.58 556,-211.5 599.76,-255.56 547.72,-302.97 592,-346.5 596.59,-351.01 602.07,-354.5 607.96,-357.2"/>
<polygon fill="midnightblue" stroke="midnightblue" points="551.21,-203.02 540.82,-200.96 547.66,-209.05 551.21,-203.02"/>
</g>
<!-- Node18 -->
<g id="node27" class="node">
<title>Node18</title>
<g id="a_node27"><a xlink:href="classyaclib_1_1detail_1_1BaseCore.html" target="_top" xlink:title=" ">
<polygon fill="none" stroke="black" points="611.5,-148 611.5,-167 727.5,-167 727.5,-148 611.5,-148"/>
<text text-anchor="middle" x="669.5" y="-155" font-family="Helvetica,sans-Serif" font-size="10.00">yaclib::detail::BaseCore</text>
</a>
</g>
</g>
<!-- Node2&#45;&gt;Node18 -->
<g id="edge28" class="edge">
<title>Node2&#45;&gt;Node18</title>
<path fill="none" stroke="midnightblue" d="M545.22,-180.1C568.33,-175.86 594.29,-171.1 616.4,-167.05"/>
<polygon fill="midnightblue" stroke="midnightblue" points="544.37,-176.69 535.17,-181.94 545.63,-183.58 544.37,-176.69"/>
</g>
<!-- Node28 -->
<g id="node33" class="node">
<title>Node28</title>
<g id="a_node33"><a xlink:href="structyaclib_1_1detail_1_1CallCallback.html" target="_top" xlink:title=" ">
<polygon fill="none" stroke="black" points="605.5,-186.5 605.5,-216.5 733.5,-216.5 733.5,-186.5 605.5,-186.5"/>
<text text-anchor="start" x="613.5" y="-204.5" font-family="Helvetica,sans-Serif" font-size="10.00">yaclib::detail::CallCallback</text>
<text text-anchor="middle" x="669.5" y="-193.5" font-family="Helvetica,sans-Serif" font-size="10.00">&lt; Derived &gt;</text>
</a>
</g>
</g>
<!-- Node2&#45;&gt;Node28 -->
<g id="edge35" class="edge">
<title>Node2&#45;&gt;Node28</title>
<path fill="none" stroke="midnightblue" d="M550.97,-195.16C568.76,-196.12 587.86,-197.15 605.38,-198.1"/>
<polygon fill="midnightblue" stroke="midnightblue" points="550.85,-191.65 540.68,-194.61 550.47,-198.64 550.85,-191.65"/>
</g>
<!-- Node29 -->
<g id="node34" class="node">
<title>Node29</title>
<g id="a_node34"><a xlink:href="structyaclib_1_1detail_1_1DropCallback.html" target="_top" xlink:title=" ">
<polygon fill="none" stroke="black" points="604,-306.5 604,-336.5 735,-336.5 735,-306.5 604,-306.5"/>
<text text-anchor="start" x="612" y="-324.5" font-family="Helvetica,sans-Serif" font-size="10.00">yaclib::detail::DropCallback</text>
<text text-anchor="middle" x="669.5" y="-313.5" font-family="Helvetica,sans-Serif" font-size="10.00">&lt; Derived &gt;</text>
</a>
</g>
</g>
<!-- Node2&#45;&gt;Node29 -->
<g id="edge36" class="edge">
<title>Node2&#45;&gt;Node29</title>
<path fill="none" stroke="midnightblue" d="M548.28,-205.83C551.02,-207.52 553.61,-209.4 556,-211.5 587.13,-238.85 561.38,-269.59 592,-297.5 595.81,-300.97 600.11,-303.94 604.69,-306.48"/>
<polygon fill="midnightblue" stroke="midnightblue" points="549.63,-202.59 539.15,-201.08 546.41,-208.8 549.63,-202.59"/>
</g>
<!-- Node8 -->
<g id="node25" class="node">
<title>Node8</title>
<g id="a_node25"><a xlink:href="structyaclib_1_1detail_1_1MultiEvent.html" target="_top" xlink:title=" ">
<polygon fill="none" stroke="black" points="783,-377 783,-440 922,-440 922,-377 783,-377"/>
<text text-anchor="start" x="791" y="-428" font-family="Helvetica,sans-Serif" font-size="10.00">yaclib::detail::MultiEvent</text>
<text text-anchor="start" x="791" y="-417" font-family="Helvetica,sans-Serif" font-size="10.00">&lt; OneShotEvent, yaclib::</text>
<text text-anchor="start" x="791" y="-406" font-family="Helvetica,sans-Serif" font-size="10.00">detail::AtomicCounter, yaclib</text>
<text text-anchor="start" x="791" y="-395" font-family="Helvetica,sans-Serif" font-size="10.00">::detail::CallCallback, yaclib</text>
<text text-anchor="middle" x="852.5" y="-384" font-family="Helvetica,sans-Serif" font-size="10.00">::detail::DropCallback &gt;</text>
</a>
</g>
</g>
<!-- Node7&#45;&gt;Node8 -->
<g id="edge22" class="edge">
<title>Node7&#45;&gt;Node8</title>
<path fill="none" stroke="midnightblue" d="M740.4,-292.98C742.66,-294.45 744.87,-295.95 747,-297.5 778.06,-320.04 807.46,-352.66 827.12,-376.7"/>
<polygon fill="midnightblue" stroke="midnightblue" points="741.8,-289.74 731.43,-287.55 738.17,-295.73 741.8,-289.74"/>
</g>
<!-- Node19 -->
<g id="node28" class="node">
<title>Node19</title>
<g id="a_node28"><a xlink:href="classyaclib_1_1detail_1_1NoResultCore.html" target="_top" xlink:title=" ">
<polygon fill="none" stroke="black" points="785.5,-79 785.5,-98 919.5,-98 919.5,-79 785.5,-79"/>
<text text-anchor="middle" x="852.5" y="-86" font-family="Helvetica,sans-Serif" font-size="10.00">yaclib::detail::NoResultCore</text>
</a>
</g>
</g>
<!-- Node18&#45;&gt;Node19 -->
<g id="edge29" class="edge">
<title>Node18&#45;&gt;Node19</title>
<path fill="none" stroke="midnightblue" d="M730.12,-144.69C735.96,-142.62 741.68,-140.24 747,-137.5 765.52,-127.97 764.55,-117.17 783,-107.5 790.32,-103.66 798.51,-100.53 806.6,-98"/>
<polygon fill="midnightblue" stroke="midnightblue" points="728.68,-141.48 720.25,-147.89 730.84,-148.14 728.68,-141.48"/>
</g>
<!-- Node20 -->
<g id="node29" class="node">
<title>Node20</title>
<g id="a_node29"><a xlink:href="classyaclib_1_1detail_1_1ResultCore.html" target="_top" xlink:title=" ">
<polygon fill="none" stroke="black" points="791.5,-211.5 791.5,-241.5 913.5,-241.5 913.5,-211.5 791.5,-211.5"/>
<text text-anchor="start" x="799.5" y="-229.5" font-family="Helvetica,sans-Serif" font-size="10.00">yaclib::detail::ResultCore</text>
<text text-anchor="middle" x="852.5" y="-218.5" font-family="Helvetica,sans-Serif" font-size="10.00">&lt; V, E &gt;</text>
</a>
</g>
</g>
<!-- Node18&#45;&gt;Node20 -->
<g id="edge30" class="edge">
<title>Node18&#45;&gt;Node20</title>
<path fill="none" stroke="midnightblue" d="M726.25,-169.88C733.35,-172.09 740.43,-174.63 747,-177.5 764.4,-185.11 766.03,-191.98 783,-200.5 790.84,-204.44 799.43,-208.15 807.8,-211.46"/>
<polygon fill="midnightblue" stroke="midnightblue" points="727.18,-166.51 716.6,-167.06 725.22,-173.22 727.18,-166.51"/>
</g>
<!-- Node20&#45;&gt;Node23 -->
<g id="edge33" class="edge">
<title>Node20&#45;&gt;Node23</title>
<path fill="none" stroke="midnightblue" d="M923.52,-209.04C942.66,-204.27 963.22,-199.14 981.76,-194.52"/>
<polygon fill="midnightblue" stroke="midnightblue" points="922.52,-205.68 913.66,-211.5 924.21,-212.48 922.52,-205.68"/>
</g>
<!-- Node21 -->
<g id="node30" class="node">
<title>Node21</title>
<g id="a_node30"><a xlink:href="structyaclib_1_1detail_1_1OneCounter.html" target="_top" xlink:title=" ">
<polygon fill="none" stroke="black" points="958,-262 958,-303 1128,-303 1128,-262 958,-262"/>
<text text-anchor="start" x="966" y="-291" font-family="Helvetica,sans-Serif" font-size="10.00">yaclib::detail::OneCounter</text>
<text text-anchor="start" x="966" y="-280" font-family="Helvetica,sans-Serif" font-size="10.00">&lt; ResultCore&lt; V, E &gt;, PromiseType</text>
<text text-anchor="middle" x="1043" y="-269" font-family="Helvetica,sans-Serif" font-size="10.00">Deleter&lt; Lazy &gt; &gt;</text>
</a>
</g>
</g>
<!-- Node20&#45;&gt;Node21 -->
<g id="edge31" class="edge">
<title>Node20&#45;&gt;Node21</title>
<path fill="none" stroke="midnightblue" d="M913.67,-244.37C932.53,-249.98 953.49,-256.21 972.92,-261.98"/>
<polygon fill="midnightblue" stroke="midnightblue" points="914.6,-241 904.01,-241.51 912.6,-247.71 914.6,-241"/>
</g>
<!-- Node27 -->
<g id="node32" class="node">
<title>Node27</title>
<g id="a_node32"><a xlink:href="classyaclib_1_1detail_1_1ReadyCore.html" target="_top" xlink:title=" ">
<polygon fill="none" stroke="black" points="982.5,-213.5 982.5,-243.5 1103.5,-243.5 1103.5,-213.5 982.5,-213.5"/>
<text text-anchor="start" x="990.5" y="-231.5" font-family="Helvetica,sans-Serif" font-size="10.00">yaclib::detail::ReadyCore</text>
<text text-anchor="middle" x="1043" y="-220.5" font-family="Helvetica,sans-Serif" font-size="10.00">&lt; V, E &gt;</text>
</a>
</g>
</g>
<!-- Node20&#45;&gt;Node27 -->
<g id="edge34" class="edge">
<title>Node20&#45;&gt;Node27</title>
<path fill="none" stroke="midnightblue" d="M923.89,-227.25C943.14,-227.45 963.82,-227.67 982.41,-227.87"/>
<polygon fill="midnightblue" stroke="midnightblue" points="923.7,-223.74 913.66,-227.14 923.62,-230.74 923.7,-223.74"/>
</g>
<!-- Node22 -->
<g id="node31" class="node">
<title>Node22</title>
<g id="a_node31"><a xlink:href="classyaclib_1_1detail_1_1PromiseType.html" target="_top" xlink:title=" ">
<polygon fill="none" stroke="black" points="1164,-267.5 1164,-297.5 1295,-297.5 1295,-267.5 1164,-267.5"/>
<text text-anchor="start" x="1172" y="-285.5" font-family="Helvetica,sans-Serif" font-size="10.00">yaclib::detail::PromiseType</text>
<text text-anchor="middle" x="1229.5" y="-274.5" font-family="Helvetica,sans-Serif" font-size="10.00">&lt; V, E, Lazy &gt;</text>
</a>
</g>
</g>
<!-- Node21&#45;&gt;Node22 -->
<g id="edge32" class="edge">
<title>Node21&#45;&gt;Node22</title>
<path fill="none" stroke="midnightblue" d="M1138.28,-282.5C1146.92,-282.5 1155.53,-282.5 1163.81,-282.5"/>
<polygon fill="midnightblue" stroke="midnightblue" points="1138.15,-279 1128.15,-282.5 1138.15,-286 1138.15,-279"/>
</g>
<!-- Node32 -->
<g id="node37" class="node">
<title>Node32</title>
<g id="a_node37"><a xlink:href="classyaclib_1_1detail_1_1MutexEvent.html" target="_top" xlink:title=" ">
<polygon fill="none" stroke="black" points="246.5,-36 246.5,-55 371.5,-55 371.5,-36 246.5,-36"/>
<text text-anchor="middle" x="309" y="-43" font-family="Helvetica,sans-Serif" font-size="10.00">yaclib::detail::MutexEvent</text>
</a>
</g>
</g>
<!-- Node32&#45;&gt;Node31 -->
<g id="edge39" class="edge">
<title>Node32&#45;&gt;Node31</title>
<path fill="none" stroke="midnightblue" d="M381.66,-35.02C396.94,-32.79 412.81,-30.47 427.28,-28.35"/>
<polygon fill="midnightblue" stroke="midnightblue" points="381.12,-31.56 371.73,-36.47 382.14,-38.49 381.12,-31.56"/>
</g>
<!-- Node32&#45;&gt;Node33 -->
<g id="edge40" class="edge">
<title>Node32&#45;&gt;Node33</title>
<path fill="none" stroke="midnightblue" d="M381.66,-55.56C396.94,-57.7 412.81,-59.93 427.28,-61.96"/>
<polygon fill="midnightblue" stroke="midnightblue" points="382.12,-52.09 371.73,-54.16 381.15,-59.02 382.12,-52.09"/>
</g>
<!-- Node43 -->
<g id="node38" class="node">
<title>Node43</title>
<g id="a_node38"><a xlink:href="structyaclib_1_1detail_1_1Node.html" target="_top" xlink:title="Node class, used in intrusive data structure.">
<polygon fill="none" stroke="black" points="106.5,-129 106.5,-148 203.5,-148 203.5,-129 106.5,-129"/>
<text text-anchor="middle" x="155" y="-136" font-family="Helvetica,sans-Serif" font-size="10.00">yaclib::detail::Node</text>
</a>
</g>
</g>
<!-- Node43&#45;&gt;Node30 -->
<g id="edge41" class="edge">
<title>Node43&#45;&gt;Node30</title>
<path fill="none" stroke="midnightblue" d="M213.82,-138.5C235.58,-138.5 259.45,-138.5 277.71,-138.5"/>
<polygon fill="midnightblue" stroke="midnightblue" points="213.68,-135 203.68,-138.5 213.68,-142 213.68,-135"/>
</g>
<!-- Node17 -->
<g id="node39" class="node">
<title>Node17</title>
<g id="a_node39"><a xlink:href="structyaclib_1_1detail_1_1NopeBase.html" target="_top" xlink:title=" ">
<polygon fill="none" stroke="black" points="249.5,-369 249.5,-388 368.5,-388 368.5,-369 249.5,-369"/>
<text text-anchor="middle" x="309" y="-376" font-family="Helvetica,sans-Serif" font-size="10.00">yaclib::detail::NopeBase</text>
</a>
</g>
</g>
<!-- Node16 -->
<g id="node40" class="node">
<title>Node16</title>
<g id="a_node40"><a xlink:href="structyaclib_1_1detail_1_1AtomicCounter.html" target="_top" xlink:title=" ">
<polygon fill="none" stroke="black" points="413,-345.5 413,-375.5 551,-375.5 551,-345.5 413,-345.5"/>
<text text-anchor="start" x="421" y="-363.5" font-family="Helvetica,sans-Serif" font-size="10.00">yaclib::detail::AtomicCounter</text>
<text text-anchor="middle" x="482" y="-352.5" font-family="Helvetica,sans-Serif" font-size="10.00">&lt; NopeBase, NopeDeleter &gt;</text>
</a>
</g>
</g>
<!-- Node17&#45;&gt;Node16 -->
<g id="edge42" class="edge">
<title>Node17&#45;&gt;Node16</title>
<path fill="none" stroke="midnightblue" d="M378.99,-371.24C390.18,-370.06 401.76,-368.84 412.93,-367.67"/>
<polygon fill="midnightblue" stroke="midnightblue" points="378.43,-367.78 368.85,-372.31 379.16,-374.74 378.43,-367.78"/>
</g>
<!-- Node16&#45;&gt;Node15 -->
<g id="edge43" class="edge">
<title>Node16&#45;&gt;Node15</title>
<path fill="none" stroke="midnightblue" d="M561.17,-362.61C576.78,-363.03 592.94,-363.46 607.85,-363.87"/>
<polygon fill="midnightblue" stroke="midnightblue" points="561.11,-359.1 551.02,-362.33 560.92,-366.1 561.11,-359.1"/>
</g>
<!-- Node10 -->
<g id="node41" class="node">
<title>Node10</title>
<g id="a_node41"><a xlink:href="classyaclib_1_1OneShotEvent.html" target="_top" xlink:title="This class useful to wait or co_await some event.">
<polygon fill="none" stroke="black" points="427.5,-547 427.5,-566 536.5,-566 536.5,-547 427.5,-547"/>
<text text-anchor="middle" x="482" y="-554" font-family="Helvetica,sans-Serif" font-size="10.00">yaclib::OneShotEvent</text>
</a>
</g>
</g>
<!-- Node9 -->
<g id="node42" class="node">
<title>Node9</title>
<g id="a_node42"><a xlink:href="structyaclib_1_1detail_1_1AtomicCounter.html" target="_top" xlink:title=" ">
<polygon fill="none" stroke="black" points="596,-541.5 596,-571.5 743,-571.5 743,-541.5 596,-541.5"/>
<text text-anchor="start" x="604" y="-559.5" font-family="Helvetica,sans-Serif" font-size="10.00">yaclib::detail::AtomicCounter</text>
<text text-anchor="middle" x="669.5" y="-548.5" font-family="Helvetica,sans-Serif" font-size="10.00">&lt; OneShotEvent, SetDeleter &gt;</text>
</a>
</g>
</g>
<!-- Node10&#45;&gt;Node9 -->
<g id="edge44" class="edge">
<title>Node10&#45;&gt;Node9</title>
<path fill="none" stroke="midnightblue" d="M546.86,-556.5C562.69,-556.5 579.77,-556.5 595.99,-556.5"/>
<polygon fill="midnightblue" stroke="midnightblue" points="546.65,-553 536.65,-556.5 546.65,-560 546.65,-553"/>
</g>
<!-- Node9&#45;&gt;Node8 -->
<g id="edge45" class="edge">
<title>Node9&#45;&gt;Node8</title>
<path fill="none" stroke="midnightblue" d="M739.53,-536.98C742.11,-535.58 744.61,-534.09 747,-532.5 783.21,-508.4 813.77,-468.22 832.32,-440.16"/>
<polygon fill="midnightblue" stroke="midnightblue" points="737.97,-533.84 730.51,-541.37 741.03,-540.14 737.97,-533.84"/>
</g>
<!-- Node26 -->
<g id="node43" class="node">
<title>Node26</title>
<g id="a_node43"><a xlink:href="classResultCoreT.html" target="_top" xlink:title=" ">
<polygon fill="none" stroke="black" points="817,-117 817,-136 888,-136 888,-117 817,-117"/>
<text text-anchor="middle" x="852.5" y="-124" font-family="Helvetica,sans-Serif" font-size="10.00">ResultCoreT</text>
</a>
</g>
</g>
<!-- Node26&#45;&gt;Node25 -->
<g id="edge46" class="edge">
<title>Node26&#45;&gt;Node25</title>
<path fill="none" stroke="midnightblue" d="M898.27,-126.26C922.17,-126.14 952,-125.98 978.29,-125.84"/>
<polygon fill="midnightblue" stroke="midnightblue" points="898.06,-122.76 888.07,-126.32 898.09,-129.76 898.06,-122.76"/>
</g>
<!-- Node41 -->
<g id="node44" class="node">
<title>Node41</title>
<g id="a_node44"><a xlink:href="classyaclib_1_1detail_1_1SafeCall.html" target="_top" xlink:title=" ">
<polygon fill="none" stroke="black" points="100,-211.5 100,-241.5 210,-241.5 210,-211.5 100,-211.5"/>
<text text-anchor="start" x="108" y="-229.5" font-family="Helvetica,sans-Serif" font-size="10.00">yaclib::detail::SafeCall</text>
<text text-anchor="middle" x="155" y="-218.5" font-family="Helvetica,sans-Serif" font-size="10.00">&lt; Func &gt;</text>
</a>
</g>
</g>
<!-- Node41&#45;&gt;Node42 -->
<g id="edge48" class="edge">
<title>Node41&#45;&gt;Node42</title>
<path fill="none" stroke="midnightblue" d="M220.29,-228.28C278.94,-229.9 364.91,-232.29 421.88,-233.86"/>
<polygon fill="midnightblue" stroke="midnightblue" points="220.13,-224.77 210.03,-228 219.93,-231.77 220.13,-224.77"/>
</g>
<!-- Node41&#45;&gt;Node40 -->
<g id="edge47" class="edge">
<title>Node41&#45;&gt;Node40</title>
<path fill="none" stroke="midnightblue" d="M217.53,-208.69C230.32,-204.98 243.69,-201.12 256.09,-197.53"/>
<polygon fill="midnightblue" stroke="midnightblue" points="216.52,-205.34 207.88,-211.48 218.46,-212.06 216.52,-205.34"/>
</g>
</g>
</svg>
