<?xml version="1.0" encoding="UTF-8" standalone="no"?>
<!DOCTYPE svg PUBLIC "-//W3C//DTD SVG 1.1//EN"
 "http://www.w3.org/Graphics/SVG/1.1/DTD/svg11.dtd">
<!-- Generated by graphviz version 3.0.0 (20221109.1736)
 -->
<!-- Title: Graphical Class Hierarchy Pages: 1 -->
<svg width="651pt" height="110pt"
 viewBox="0.00 0.00 651.00 110.00" xmlns="http://www.w3.org/2000/svg" xmlns:xlink="http://www.w3.org/1999/xlink">
<g id="graph0" class="graph" transform="scale(1 1) rotate(0) translate(4 106)">
<title>Graphical Class Hierarchy</title>
<!-- Node0 -->
<g id="node1" class="node">
<title>Node0</title>
<g id="a_node1"><a xlink:href="classyaclib_1_1detail_1_1fiber_1_1AtomicWait.html" target="_top" xlink:title=" ">
<polygon fill="none" stroke="black" points="0,-36 0,-66 94,-66 94,-36 0,-36"/>
<text text-anchor="start" x="8" y="-54" font-family="Helvetica,sans-Serif" font-size="10.00">yaclib::detail::fiber</text>
<text text-anchor="middle" x="47" y="-43" font-family="Helvetica,sans-Serif" font-size="10.00">::AtomicWait&lt; T &gt;</text>
</a>
</g>
</g>
<!-- Node1 -->
<g id="node2" class="node">
<title>Node1</title>
<g id="a_node2"><a xlink:href="classyaclib_1_1detail_1_1fiber_1_1AtomicBase.html" target="_top" xlink:title=" ">
<polygon fill="none" stroke="black" points="130,-36 130,-66 227,-66 227,-36 130,-36"/>
<text text-anchor="start" x="138" y="-54" font-family="Helvetica,sans-Serif" font-size="10.00">yaclib::detail::fiber</text>
<text text-anchor="middle" x="178.5" y="-43" font-family="Helvetica,sans-Serif" font-size="10.00">::AtomicBase&lt; T &gt;</text>
</a>
</g>
</g>
<!-- Node0&#45;&gt;Node1 -->
<g id="edge1" class="edge">
<title>Node0&#45;&gt;Node1</title>
<path fill="none" stroke="midnightblue" d="M104.29,-51C112.82,-51 121.55,-51 129.88,-51"/>
<polygon fill="midnightblue" stroke="midnightblue" points="104.02,-47.5 94.02,-51 104.02,-54.5 104.02,-47.5"/>
</g>
<!-- Node2 -->
<g id="node3" class="node">
<title>Node2</title>
<g id="a_node3"><a xlink:href="classyaclib_1_1detail_1_1fiber_1_1AtomicFloatingBase.html" target="_top" xlink:title=" ">
<polygon fill="none" stroke="black" points="263,-60.5 263,-101.5 372,-101.5 372,-60.5 263,-60.5"/>
<text text-anchor="start" x="271" y="-89.5" font-family="Helvetica,sans-Serif" font-size="10.00">yaclib::detail::fiber</text>
<text text-anchor="start" x="271" y="-78.5" font-family="Helvetica,sans-Serif" font-size="10.00">::AtomicFloatingBase</text>
<text text-anchor="middle" x="317.5" y="-67.5" font-family="Helvetica,sans-Serif" font-size="10.00">&lt; T, IsFloating &gt;</text>
</a>
</g>
</g>
<!-- Node1&#45;&gt;Node2 -->
<g id="edge2" class="edge">
<title>Node1&#45;&gt;Node2</title>
<path fill="none" stroke="midnightblue" d="M236.99,-63.59C245.59,-65.47 254.44,-67.41 262.95,-69.27"/>
<polygon fill="midnightblue" stroke="midnightblue" points="237.55,-60.13 227.03,-61.41 236.05,-66.97 237.55,-60.13"/>
</g>
<!-- Node5 -->
<g id="node6" class="node">
<title>Node5</title>
<g id="a_node6"><a xlink:href="classyaclib_1_1detail_1_1fiber_1_1AtomicFloatingBase_3_01T_00_01true_01_4.html" target="_top" xlink:title=" ">
<polygon fill="none" stroke="black" points="263,-0.5 263,-41.5 372,-41.5 372,-0.5 263,-0.5"/>
<text text-anchor="start" x="271" y="-29.5" font-family="Helvetica,sans-Serif" font-size="10.00">yaclib::detail::fiber</text>
<text text-anchor="start" x="271" y="-18.5" font-family="Helvetica,sans-Serif" font-size="10.00">::AtomicFloatingBase</text>
<text text-anchor="middle" x="317.5" y="-7.5" font-family="Helvetica,sans-Serif" font-size="10.00">&lt; T, true &gt;</text>
</a>
</g>
</g>
<!-- Node1&#45;&gt;Node5 -->
<g id="edge5" class="edge">
<title>Node1&#45;&gt;Node5</title>
<path fill="none" stroke="midnightblue" d="M236.99,-38.41C245.59,-36.53 254.44,-34.59 262.95,-32.73"/>
<polygon fill="midnightblue" stroke="midnightblue" points="236.05,-35.03 227.03,-40.59 237.55,-41.87 236.05,-35.03"/>
</g>
<!-- Node3 -->
<g id="node4" class="node">
<title>Node3</title>
<g id="a_node4"><a xlink:href="classyaclib_1_1detail_1_1fiber_1_1AtomicIntegralBase.html" target="_top" xlink:title=" ">
<polygon fill="none" stroke="black" points="408,-60.5 408,-101.5 515,-101.5 515,-60.5 408,-60.5"/>
<text text-anchor="start" x="416" y="-89.5" font-family="Helvetica,sans-Serif" font-size="10.00">yaclib::detail::fiber</text>
<text text-anchor="start" x="416" y="-78.5" font-family="Helvetica,sans-Serif" font-size="10.00">::AtomicIntegralBase</text>
<text text-anchor="middle" x="461.5" y="-67.5" font-family="Helvetica,sans-Serif" font-size="10.00">&lt; T, IsIntegral &gt;</text>
</a>
</g>
</g>
<!-- Node2&#45;&gt;Node3 -->
<g id="edge3" class="edge">
<title>Node2&#45;&gt;Node3</title>
<path fill="none" stroke="midnightblue" d="M382.4,-81C390.85,-81 399.44,-81 407.68,-81"/>
<polygon fill="midnightblue" stroke="midnightblue" points="382.18,-77.5 372.18,-81 382.18,-84.5 382.18,-77.5"/>
</g>
<!-- Node4 -->
<g id="node5" class="node">
<title>Node4</title>
<g id="a_node5"><a xlink:href="classyaclib_1_1detail_1_1fiber_1_1Atomic.html" target="_top" xlink:title=" ">
<polygon fill="none" stroke="black" points="551,-66 551,-96 643,-96 643,-66 551,-66"/>
<text text-anchor="start" x="559" y="-84" font-family="Helvetica,sans-Serif" font-size="10.00">yaclib::detail::fiber</text>
<text text-anchor="middle" x="597" y="-73" font-family="Helvetica,sans-Serif" font-size="10.00">::Atomic&lt; T &gt;</text>
</a>
</g>
</g>
<!-- Node3&#45;&gt;Node4 -->
<g id="edge4" class="edge">
<title>Node3&#45;&gt;Node4</title>
<path fill="none" stroke="midnightblue" d="M525.33,-81C533.98,-81 542.71,-81 550.95,-81"/>
<polygon fill="midnightblue" stroke="midnightblue" points="525.26,-77.5 515.26,-81 525.26,-84.5 525.26,-77.5"/>
</g>
<!-- Node6 -->
<g id="node7" class="node">
<title>Node6</title>
<g id="a_node7"><a xlink:href="classyaclib_1_1detail_1_1fiber_1_1AtomicIntegralBase_3_01T_00_01true_01_4.html" target="_top" xlink:title=" ">
<polygon fill="none" stroke="black" points="408,-0.5 408,-41.5 515,-41.5 515,-0.5 408,-0.5"/>
<text text-anchor="start" x="416" y="-29.5" font-family="Helvetica,sans-Serif" font-size="10.00">yaclib::detail::fiber</text>
<text text-anchor="start" x="416" y="-18.5" font-family="Helvetica,sans-Serif" font-size="10.00">::AtomicIntegralBase</text>
<text text-anchor="middle" x="461.5" y="-7.5" font-family="Helvetica,sans-Serif" font-size="10.00">&lt; T, true &gt;</text>
</a>
</g>
</g>
<!-- Node5&#45;&gt;Node6 -->
<g id="edge6" class="edge">
<title>Node5&#45;&gt;Node6</title>
<path fill="none" stroke="midnightblue" d="M382.4,-21C390.85,-21 399.44,-21 407.68,-21"/>
<polygon fill="midnightblue" stroke="midnightblue" points="382.18,-17.5 372.18,-21 382.18,-24.5 382.18,-17.5"/>
</g>
</g>
</svg>
