<?xml version="1.0" encoding="UTF-8" standalone="no"?>
<!DOCTYPE svg PUBLIC "-//W3C//DTD SVG 1.1//EN"
 "http://www.w3.org/Graphics/SVG/1.1/DTD/svg11.dtd">
<!-- Generated by graphviz version 9.0.0 (20230911.1827)
 -->
<!-- Title: Graphical Class Hierarchy Pages: 1 -->
<svg width="219pt" height="76pt"
 viewBox="0.00 0.00 219.25 75.88" xmlns="http://www.w3.org/2000/svg" xmlns:xlink="http://www.w3.org/1999/xlink">
<g id="graph0" class="graph" transform="scale(1 1) rotate(0) translate(4 71.88)">
<title>Graphical Class Hierarchy</title>
<!-- Node0 -->
<g id="Node000000" class="node">
<title>Node0</title>
<g id="a_Node000000"><a xlink:title=" ">
<polygon fill="#e0e0e0" stroke="#999999" points="75.25,-45.88 0,-45.88 0,-26.62 75.25,-26.62 75.25,-45.88"/>
<text text-anchor="middle" x="37.62" y="-32.38" font-family="Helvetica,sans-Serif" font-size="10.00">std::exception</text>
</a>
</g>
</g>
<!-- Node1 -->
<g id="Node000001" class="node">
<title>Node1</title>
<g id="a_Node000001"><a xlink:href="structyaclib_1_1ResultEmpty.html" target="_top" xlink:title=" ">
<polygon fill="white" stroke="#666666" points="211.25,-67.88 111.25,-67.88 111.25,-48.62 211.25,-48.62 211.25,-67.88"/>
<text text-anchor="middle" x="161.25" y="-54.38" font-family="Helvetica,sans-Serif" font-size="10.00">yaclib::ResultEmpty</text>
</a>
</g>
</g>
<!-- Node0&#45;&gt;Node1 -->
<g id="edge24_Node000000_Node000001" class="edge">
<title>Node0&#45;&gt;Node1</title>
<g id="a_edge24_Node000000_Node000001"><a xlink:title=" ">
<path fill="none" stroke="#63b8ff" d="M86.53,-44.92C94.56,-46.37 102.91,-47.88 110.98,-49.34"/>
<polygon fill="#63b8ff" stroke="#63b8ff" points="87.4,-41.52 76.94,-43.18 86.15,-48.4 87.4,-41.52"/>
</a>
</g>
</g>
<!-- Node2 -->
<g id="Node000002" class="node">
<title>Node2</title>
<g id="a_Node000002"><a xlink:href="classyaclib_1_1ResultError.html" target="_top" xlink:title=" ">
<polygon fill="white" stroke="#666666" points="207.88,-30.5 114.62,-30.5 114.62,0 207.88,0 207.88,-30.5"/>
<text text-anchor="start" x="122.62" y="-17" font-family="Helvetica,sans-Serif" font-size="10.00">yaclib::ResultError</text>
<text text-anchor="middle" x="161.25" y="-5.75" font-family="Helvetica,sans-Serif" font-size="10.00">&lt; Error &gt;</text>
</a>
</g>
</g>
<!-- Node0&#45;&gt;Node2 -->
<g id="edge25_Node000000_Node000002" class="edge">
<title>Node0&#45;&gt;Node2</title>
<g id="a_edge25_Node000000_Node000002"><a xlink:title=" ">
<path fill="none" stroke="#63b8ff" d="M86.75,-27.94C95.9,-26.36 105.45,-24.71 114.52,-23.15"/>
<polygon fill="#63b8ff" stroke="#63b8ff" points="86.2,-24.48 76.94,-29.63 87.39,-31.38 86.2,-24.48"/>
</a>
</g>
</g>
</g>
</svg>
