<?xml version="1.0" encoding="UTF-8" standalone="no"?>
<!DOCTYPE svg PUBLIC "-//W3C//DTD SVG 1.1//EN"
 "http://www.w3.org/Graphics/SVG/1.1/DTD/svg11.dtd">
<!-- Generated by graphviz version 3.0.0 (20220413.0242)
 -->
<!-- Title: Graphical Class Hierarchy Pages: 1 -->
<svg width="262pt" height="66pt"
 viewBox="0.00 0.00 262.00 66.00" xmlns="http://www.w3.org/2000/svg" xmlns:xlink="http://www.w3.org/1999/xlink">
<g id="graph0" class="graph" transform="scale(1 1) rotate(0) translate(4 62)">
<title>Graphical Class Hierarchy</title>
<!-- Node0 -->
<g id="node1" class="node">
<title>Node0</title>
<g id="a_node1"><a xlink:href="classyaclib_1_1FutureBase.html" target="_top" xlink:title=" ">
<polygon fill="none" stroke="black" points="0,-14 0,-44 97,-44 97,-14 0,-14"/>
<text text-anchor="start" x="8" y="-32" font-family="Helvetica,sans-Serif" font-size="10.00">yaclib::FutureBase</text>
<text text-anchor="middle" x="48.5" y="-21" font-family="Helvetica,sans-Serif" font-size="10.00">&lt; void, StopError &gt;</text>
</a>
</g>
</g>
<!-- Node1 -->
<g id="node2" class="node">
<title>Node1</title>
<g id="a_node2"><a xlink:href="classyaclib_1_1Future.html" target="_top" xlink:title="Provides a mechanism to access the result of async operations.">
<polygon fill="none" stroke="black" points="139.5,-38.5 139.5,-57.5 247.5,-57.5 247.5,-38.5 139.5,-38.5"/>
<text text-anchor="middle" x="193.5" y="-45.5" font-family="Helvetica,sans-Serif" font-size="10.00">yaclib::Future&lt; V, E &gt;</text>
</a>
</g>
</g>
<!-- Node0&#45;&gt;Node1 -->
<g id="edge1" class="edge">
<title>Node0&#45;&gt;Node1</title>
<path fill="none" stroke="midnightblue" d="M107.11,-36.65C117.7,-38.06 128.71,-39.52 139.17,-40.91"/>
<polygon fill="midnightblue" stroke="midnightblue" points="107.49,-33.17 97.12,-35.33 106.57,-40.11 107.49,-33.17"/>
</g>
<!-- Node2 -->
<g id="node3" class="node">
<title>Node2</title>
<g id="a_node3"><a xlink:href="classyaclib_1_1FutureOn.html" target="_top" xlink:title="Provides a mechanism to access the result of async operations.">
<polygon fill="none" stroke="black" points="133,-0.5 133,-19.5 254,-19.5 254,-0.5 133,-0.5"/>
<text text-anchor="middle" x="193.5" y="-7.5" font-family="Helvetica,sans-Serif" font-size="10.00">yaclib::FutureOn&lt; V, E &gt;</text>
</a>
</g>
</g>
<!-- Node0&#45;&gt;Node2 -->
<g id="edge2" class="edge">
<title>Node0&#45;&gt;Node2</title>
<path fill="none" stroke="midnightblue" d="M107.25,-21.33C115.69,-20.21 124.4,-19.05 132.88,-17.92"/>
<polygon fill="midnightblue" stroke="midnightblue" points="106.57,-17.89 97.12,-22.67 107.49,-24.83 106.57,-17.89"/>
</g>
</g>
</svg>
