<?xml version="1.0" encoding="UTF-8" standalone="no"?>
<!DOCTYPE svg PUBLIC "-//W3C//DTD SVG 1.1//EN"
 "http://www.w3.org/Graphics/SVG/1.1/DTD/svg11.dtd">
<!-- Generated by graphviz version 3.0.0 (20221109.1736)
 -->
<!-- Title: Graphical Class Hierarchy Pages: 1 -->
<svg width="431pt" height="137pt"
 viewBox="0.00 0.00 431.00 137.00" xmlns="http://www.w3.org/2000/svg" xmlns:xlink="http://www.w3.org/1999/xlink">
<g id="graph0" class="graph" transform="scale(1 1) rotate(0) translate(4 133)">
<title>Graphical Class Hierarchy</title>
<!-- Node0 -->
<g id="node1" class="node">
<title>Node0</title>
<g id="a_node1"><a xlink:href="classyaclib_1_1detail_1_1GuardState.html" target="_top" xlink:title=" ">
<polygon fill="none" stroke="black" points="0,-55 0,-74 123,-74 123,-55 0,-55"/>
<text text-anchor="middle" x="61.5" y="-62" font-family="Helvetica,sans-Serif" font-size="10.00">yaclib::detail::GuardState</text>
</a>
</g>
</g>
<!-- Node1 -->
<g id="node2" class="node">
<title>Node1</title>
<g id="a_node2"><a xlink:href="classyaclib_1_1detail_1_1Guard.html" target="_top" xlink:title=" ">
<polygon fill="none" stroke="black" points="159,-98.5 159,-128.5 259,-128.5 259,-98.5 159,-98.5"/>
<text text-anchor="start" x="167" y="-116.5" font-family="Helvetica,sans-Serif" font-size="10.00">yaclib::detail::Guard</text>
<text text-anchor="middle" x="209" y="-105.5" font-family="Helvetica,sans-Serif" font-size="10.00">&lt; M, true &gt;</text>
</a>
</g>
</g>
<!-- Node0&#45;&gt;Node1 -->
<g id="edge1" class="edge">
<title>Node0&#45;&gt;Node1</title>
<path fill="none" stroke="darkgreen" d="M100.54,-77.31C119.78,-83.79 143.25,-91.7 163.35,-98.46"/>
<polygon fill="darkgreen" stroke="darkgreen" points="101.49,-73.94 90.9,-74.06 99.26,-80.57 101.49,-73.94"/>
</g>
<!-- Node3 -->
<g id="node4" class="node">
<title>Node3</title>
<g id="a_node4"><a xlink:href="classyaclib_1_1detail_1_1Guard.html" target="_top" xlink:title=" ">
<polygon fill="none" stroke="black" points="159,-49.5 159,-79.5 259,-79.5 259,-49.5 159,-49.5"/>
<text text-anchor="start" x="167" y="-67.5" font-family="Helvetica,sans-Serif" font-size="10.00">yaclib::detail::Guard</text>
<text text-anchor="middle" x="209" y="-56.5" font-family="Helvetica,sans-Serif" font-size="10.00">&lt; M, false &gt;</text>
</a>
</g>
</g>
<!-- Node0&#45;&gt;Node3 -->
<g id="edge3" class="edge">
<title>Node0&#45;&gt;Node3</title>
<path fill="none" stroke="darkgreen" d="M133.42,-64.5C142.03,-64.5 150.67,-64.5 158.87,-64.5"/>
<polygon fill="darkgreen" stroke="darkgreen" points="133.36,-61 123.36,-64.5 133.36,-68 133.36,-61"/>
</g>
<!-- Node6 -->
<g id="node7" class="node">
<title>Node6</title>
<g id="a_node7"><a xlink:href="classyaclib_1_1detail_1_1Guard.html" target="_top" xlink:title=" ">
<polygon fill="none" stroke="black" points="159,-0.5 159,-30.5 259,-30.5 259,-0.5 159,-0.5"/>
<text text-anchor="start" x="167" y="-18.5" font-family="Helvetica,sans-Serif" font-size="10.00">yaclib::detail::Guard</text>
<text text-anchor="middle" x="209" y="-7.5" font-family="Helvetica,sans-Serif" font-size="10.00">&lt; M, Shared &gt;</text>
</a>
</g>
</g>
<!-- Node0&#45;&gt;Node6 -->
<g id="edge6" class="edge">
<title>Node0&#45;&gt;Node6</title>
<path fill="none" stroke="darkgreen" d="M100.54,-51.69C119.78,-45.21 143.25,-37.3 163.35,-30.54"/>
<polygon fill="darkgreen" stroke="darkgreen" points="99.26,-48.43 90.9,-54.94 101.49,-55.06 99.26,-48.43"/>
</g>
<!-- Node2 -->
<g id="node3" class="node">
<title>Node2</title>
<g id="a_node3"><a xlink:href="classyaclib_1_1SharedGuard.html" target="_top" xlink:title=" ">
<polygon fill="none" stroke="black" points="295,-104 295,-123 423,-123 423,-104 295,-104"/>
<text text-anchor="middle" x="359" y="-111" font-family="Helvetica,sans-Serif" font-size="10.00">yaclib::SharedGuard&lt; M &gt;</text>
</a>
</g>
</g>
<!-- Node1&#45;&gt;Node2 -->
<g id="edge2" class="edge">
<title>Node1&#45;&gt;Node2</title>
<path fill="none" stroke="midnightblue" d="M269.39,-113.5C277.81,-113.5 286.49,-113.5 294.98,-113.5"/>
<polygon fill="midnightblue" stroke="midnightblue" points="269.28,-110 259.28,-113.5 269.28,-117 269.28,-110"/>
</g>
<!-- Node4 -->
<g id="node5" class="node">
<title>Node4</title>
<g id="a_node5"><a xlink:href="classyaclib_1_1StickyGuard.html" target="_top" xlink:title=" ">
<polygon fill="none" stroke="black" points="297,-61 297,-80 421,-80 421,-61 297,-61"/>
<text text-anchor="middle" x="359" y="-68" font-family="Helvetica,sans-Serif" font-size="10.00">yaclib::StickyGuard&lt; M &gt;</text>
</a>
</g>
</g>
<!-- Node3&#45;&gt;Node4 -->
<g id="edge4" class="edge">
<title>Node3&#45;&gt;Node4</title>
<path fill="none" stroke="midnightblue" d="M269.34,-66.91C278.38,-67.27 287.73,-67.65 296.82,-68.02"/>
<polygon fill="midnightblue" stroke="midnightblue" points="269.42,-63.41 259.28,-66.5 269.13,-70.4 269.42,-63.41"/>
</g>
<!-- Node5 -->
<g id="node6" class="node">
<title>Node5</title>
<g id="a_node6"><a xlink:href="classyaclib_1_1UniqueGuard.html" target="_top" xlink:title=" ">
<polygon fill="none" stroke="black" points="295,-23 295,-42 423,-42 423,-23 295,-23"/>
<text text-anchor="middle" x="359" y="-30" font-family="Helvetica,sans-Serif" font-size="10.00">yaclib::UniqueGuard&lt; M &gt;</text>
</a>
</g>
</g>
<!-- Node3&#45;&gt;Node5 -->
<g id="edge5" class="edge">
<title>Node3&#45;&gt;Node5</title>
<path fill="none" stroke="midnightblue" d="M269.41,-51.66C284.27,-48.44 299.94,-45.05 313.91,-42.03"/>
<polygon fill="midnightblue" stroke="midnightblue" points="268.32,-48.31 259.28,-53.84 269.8,-55.15 268.32,-48.31"/>
</g>
</g>
</svg>
