<?xml version="1.0" encoding="UTF-8" standalone="no"?>
<!DOCTYPE svg PUBLIC "-//W3C//DTD SVG 1.1//EN"
 "http://www.w3.org/Graphics/SVG/1.1/DTD/svg11.dtd">
<!-- Generated by graphviz version 3.0.0 (20221109.1736)
 -->
<!-- Title: src/fault/injector.cpp Pages: 1 -->
<svg width="415pt" height="140pt"
 viewBox="0.00 0.00 415.00 140.00" xmlns="http://www.w3.org/2000/svg" xmlns:xlink="http://www.w3.org/1999/xlink">
<g id="graph0" class="graph" transform="scale(1 1) rotate(0) translate(4 136)">
<title>src/fault/injector.cpp</title>
<!-- Node1 -->
<g id="node1" class="node">
<title>Node1</title>
<g id="a_node1"><a xlink:title=" ">
<polygon fill="#bfbfbf" stroke="black" points="189,-112.5 189,-131.5 293,-131.5 293,-112.5 189,-112.5"/>
<text text-anchor="middle" x="241" y="-119.5" font-family="Helvetica,sans-Serif" font-size="10.00">src/fault/injector.cpp</text>
</a>
</g>
</g>
<!-- Node2 -->
<g id="node2" class="node">
<title>Node2</title>
<g id="a_node2"><a xlink:href="util_8hpp.html" target="_top" xlink:title=" ">
<polygon fill="none" stroke="black" points="95.5,-56.5 95.5,-75.5 164.5,-75.5 164.5,-56.5 95.5,-56.5"/>
<text text-anchor="middle" x="130" y="-63.5" font-family="Helvetica,sans-Serif" font-size="10.00">fault/util.hpp</text>
</a>
</g>
</g>
<!-- Node1&#45;&gt;Node2 -->
<g id="edge1" class="edge">
<title>Node1&#45;&gt;Node2</title>
<path fill="none" stroke="midnightblue" d="M223.17,-112.32C205.28,-103.62 177.52,-90.12 156.95,-80.11"/>
<polygon fill="midnightblue" stroke="midnightblue" points="158.31,-76.88 147.79,-75.65 155.25,-83.18 158.31,-76.88"/>
</g>
<!-- Node6 -->
<g id="node6" class="node">
<title>Node6</title>
<g id="a_node6"><a xlink:href="injector_8hpp.html" target="_top" xlink:title=" ">
<polygon fill="none" stroke="black" points="183,-56.5 183,-75.5 299,-75.5 299,-56.5 183,-56.5"/>
<text text-anchor="middle" x="241" y="-63.5" font-family="Helvetica,sans-Serif" font-size="10.00">yaclib/fault/injector.hpp</text>
</a>
</g>
</g>
<!-- Node1&#45;&gt;Node6 -->
<g id="edge5" class="edge">
<title>Node1&#45;&gt;Node6</title>
<path fill="none" stroke="midnightblue" d="M241,-112.08C241,-105.01 241,-94.86 241,-85.99"/>
<polygon fill="midnightblue" stroke="midnightblue" points="244.5,-85.75 241,-75.75 237.5,-85.75 244.5,-85.75"/>
</g>
<!-- Node8 -->
<g id="node8" class="node">
<title>Node8</title>
<g id="a_node8"><a xlink:title=" ">
<polygon fill="none" stroke="#bfbfbf" points="317,-56.5 317,-75.5 407,-75.5 407,-56.5 317,-56.5"/>
<text text-anchor="middle" x="362" y="-63.5" font-family="Helvetica,sans-Serif" font-size="10.00">yaclib_std/thread</text>
</a>
</g>
</g>
<!-- Node1&#45;&gt;Node8 -->
<g id="edge8" class="edge">
<title>Node1&#45;&gt;Node8</title>
<path fill="none" stroke="midnightblue" d="M260.17,-112.44C279.91,-103.64 310.89,-89.81 333.49,-79.72"/>
<polygon fill="midnightblue" stroke="midnightblue" points="335.21,-82.79 342.92,-75.52 332.36,-76.4 335.21,-82.79"/>
</g>
<!-- Node3 -->
<g id="node3" class="node">
<title>Node3</title>
<g id="a_node3"><a xlink:title=" ">
<polygon fill="none" stroke="#bfbfbf" points="0,-0.5 0,-19.5 88,-19.5 88,-0.5 0,-0.5"/>
<text text-anchor="middle" x="44" y="-7.5" font-family="Helvetica,sans-Serif" font-size="10.00">yaclib/config.hpp</text>
</a>
</g>
</g>
<!-- Node2&#45;&gt;Node3 -->
<g id="edge2" class="edge">
<title>Node2&#45;&gt;Node3</title>
<path fill="none" stroke="midnightblue" d="M116.18,-56.32C102.77,-47.9 82.18,-34.97 66.41,-25.07"/>
<polygon fill="midnightblue" stroke="midnightblue" points="68.11,-22.01 57.78,-19.65 64.39,-27.94 68.11,-22.01"/>
</g>
<!-- Node4 -->
<g id="node4" class="node">
<title>Node4</title>
<g id="a_node4"><a xlink:title=" ">
<polygon fill="none" stroke="#bfbfbf" points="173,-0.5 173,-19.5 219,-19.5 219,-0.5 173,-0.5"/>
<text text-anchor="middle" x="196" y="-7.5" font-family="Helvetica,sans-Serif" font-size="10.00">atomic</text>
</a>
</g>
</g>
<!-- Node2&#45;&gt;Node4 -->
<g id="edge3" class="edge">
<title>Node2&#45;&gt;Node4</title>
<path fill="none" stroke="midnightblue" d="M140.6,-56.32C150.46,-48.26 165.35,-36.08 177.22,-26.37"/>
<polygon fill="midnightblue" stroke="midnightblue" points="179.68,-28.88 185.2,-19.83 175.25,-23.46 179.68,-28.88"/>
</g>
<!-- Node5 -->
<g id="node5" class="node">
<title>Node5</title>
<g id="a_node5"><a xlink:title=" ">
<polygon fill="none" stroke="#bfbfbf" points="105.5,-0.5 105.5,-19.5 154.5,-19.5 154.5,-0.5 105.5,-0.5"/>
<text text-anchor="middle" x="130" y="-7.5" font-family="Helvetica,sans-Serif" font-size="10.00">random</text>
</a>
</g>
</g>
<!-- Node2&#45;&gt;Node5 -->
<g id="edge4" class="edge">
<title>Node2&#45;&gt;Node5</title>
<path fill="none" stroke="midnightblue" d="M130,-56.08C130,-49.01 130,-38.86 130,-29.99"/>
<polygon fill="midnightblue" stroke="midnightblue" points="133.5,-29.75 130,-19.75 126.5,-29.75 133.5,-29.75"/>
</g>
<!-- Node6&#45;&gt;Node4 -->
<g id="edge6" class="edge">
<title>Node6&#45;&gt;Node4</title>
<path fill="none" stroke="midnightblue" d="M233.57,-56.08C227.15,-48.38 217.69,-37.03 209.88,-27.65"/>
<polygon fill="midnightblue" stroke="midnightblue" points="212.38,-25.19 203.29,-19.75 207.01,-29.67 212.38,-25.19"/>
</g>
<!-- Node7 -->
<g id="node7" class="node">
<title>Node7</title>
<g id="a_node7"><a xlink:title=" ">
<polygon fill="none" stroke="#bfbfbf" points="237,-0.5 237,-19.5 283,-19.5 283,-0.5 237,-0.5"/>
<text text-anchor="middle" x="260" y="-7.5" font-family="Helvetica,sans-Serif" font-size="10.00">cstdint</text>
</a>
</g>
</g>
<!-- Node6&#45;&gt;Node7 -->
<g id="edge7" class="edge">
<title>Node6&#45;&gt;Node7</title>
<path fill="none" stroke="midnightblue" d="M244.14,-56.08C246.68,-48.85 250.36,-38.41 253.53,-29.4"/>
<polygon fill="midnightblue" stroke="midnightblue" points="256.9,-30.35 256.92,-19.75 250.3,-28.02 256.9,-30.35"/>
</g>
</g>
</svg>
