<?xml version="1.0" encoding="UTF-8" standalone="no"?>
<!DOCTYPE svg PUBLIC "-//W3C//DTD SVG 1.1//EN"
 "http://www.w3.org/Graphics/SVG/1.1/DTD/svg11.dtd">
<!-- Generated by graphviz version 3.0.0 (20220413.0242)
 -->
<!-- Title: include/yaclib/fault/inject.hpp Pages: 1 -->
<!--zoomable 496 -->
<svg id="main" version="1.1" xmlns="http://www.w3.org/2000/svg" xmlns:xlink="http://www.w3.org/1999/xlink" xml:space="preserve" onload="init(evt)">
<style type="text/css"><![CDATA[
.edge:hover path { stroke: red; }
.edge:hover polygon { stroke: red; fill: red; }
]]></style>
<script type="text/javascript"><![CDATA[
var edges = document.getElementsByTagName('g');
if (edges && edges.length) {
  for (var i=0;i<edges.length;i++) {
    if (edges[i].id.substr(0,4)=='edge') {
      edges[i].setAttribute('class','edge');
    }
  }
}
]]></script>
        <defs>
                <circle id="rim" cx="0" cy="0" r="7"/>
                <circle id="rim2" cx="0" cy="0" r="3.5"/>
                <g id="zoomPlus">
                        <use xlink:href="#rim" fill="#404040">
                                <set attributeName="fill" to="#808080" begin="zoomplus.mouseover" end="zoomplus.mouseout"/>
                        </use>
                        <path d="M-4,0h8M0,-4v8" fill="none" stroke="white" stroke-width="1.5" pointer-events="none"/>
                </g>
                <g id="zoomMin">
                        <use xlink:href="#rim" fill="#404040">
                                <set attributeName="fill" to="#808080" begin="zoomminus.mouseover" end="zoomminus.mouseout"/>
                        </use>
                        <path d="M-4,0h8" fill="none" stroke="white" stroke-width="1.5" pointer-events="none"/>
                </g>
                <g id="dirArrow">
                        <path fill="none" stroke="white" stroke-width="1.5" d="M0,-3.0v7 M-2.5,-0.5L0,-3.0L2.5,-0.5"/>
                </g>
               <g id="resetDef">
                       <use xlink:href="#rim2" fill="#404040">
                               <set attributeName="fill" to="#808080" begin="reset.mouseover" end="reset.mouseout"/>
                       </use>
               </g>
        </defs>

<script type="text/javascript">
var viewWidth = 1695;
var viewHeight = 496;
var sectionId = 'dynsection-1';
</script>
<script xlink:href="svgpan.js"/>
<svg id="graph" class="graph">
<g id="viewport">
<title>include/yaclib/fault/inject.hpp</title>
<!-- Node1 -->
<g id="node1" class="node">
<title>Node1</title>
<g id="a_node1"><a xlink:title=" ">
<polygon fill="#bfbfbf" stroke="black" points="545.5,-457.5 545.5,-487.5 642.5,-487.5 642.5,-457.5 545.5,-457.5"/>
<text text-anchor="start" x="553.5" y="-475.5" font-family="Helvetica,sans-Serif" font-size="10.00">include/yaclib/fault</text>
<text text-anchor="middle" x="594" y="-464.5" font-family="Helvetica,sans-Serif" font-size="10.00">/inject.hpp</text>
</a>
</g>
</g>
<!-- Node2 -->
<g id="node2" class="node">
<title>Node2</title>
<g id="a_node2"><a xlink:href="fault_2detail_2atomic_8hpp.html" target="_top" xlink:title=" ">
<polygon fill="none" stroke="black" points="2.5,-307 2.5,-337 99.5,-337 99.5,-307 2.5,-307"/>
<text text-anchor="start" x="10.5" y="-325" font-family="Helvetica,sans-Serif" font-size="10.00">include/yaclib/fault</text>
<text text-anchor="middle" x="51" y="-314" font-family="Helvetica,sans-Serif" font-size="10.00">/detail/atomic.hpp</text>
</a>
</g>
</g>
<!-- Node1&#45;&gt;Node2 -->
<g id="edge1" class="edge">
<title>Node1&#45;&gt;Node2</title>
<path fill="none" stroke="midnightblue" d="M534.77,-469.98C403.35,-466.02 96.27,-453.39 63,-421 40.52,-399.12 44.05,-358.44 47.89,-337.02"/>
<polygon fill="midnightblue" stroke="midnightblue" points="534.96,-473.48 545.06,-470.28 535.16,-466.49 534.96,-473.48"/>
</g>
<!-- Node4 -->
<g id="node4" class="node">
<title>Node4</title>
<g id="a_node4"><a xlink:href="fault_2detail_2atomic__flag_8hpp.html" target="_top" xlink:title=" ">
<polygon fill="none" stroke="black" points="130.5,-307 130.5,-337 243.5,-337 243.5,-307 130.5,-307"/>
<text text-anchor="start" x="138.5" y="-325" font-family="Helvetica,sans-Serif" font-size="10.00">include/yaclib/fault</text>
<text text-anchor="middle" x="187" y="-314" font-family="Helvetica,sans-Serif" font-size="10.00">/detail/atomic_flag.hpp</text>
</a>
</g>
</g>
<!-- Node1&#45;&gt;Node4 -->
<g id="edge3" class="edge">
<title>Node1&#45;&gt;Node4</title>
<path fill="none" stroke="midnightblue" d="M535.15,-469.8C445.9,-466.15 281.74,-454.9 235,-421 206.78,-400.53 194.33,-358.86 189.56,-337.04"/>
<polygon fill="midnightblue" stroke="midnightblue" points="535.26,-473.31 545.39,-470.2 535.54,-466.31 535.26,-473.31"/>
</g>
<!-- Node5 -->
<g id="node5" class="node">
<title>Node5</title>
<g id="a_node5"><a xlink:href="atomic__wait_8hpp.html" target="_top" xlink:title=" ">
<polygon fill="none" stroke="black" points="72,-385 72,-415 188,-415 188,-385 72,-385"/>
<text text-anchor="start" x="80" y="-403" font-family="Helvetica,sans-Serif" font-size="10.00">include/yaclib/fault</text>
<text text-anchor="middle" x="130" y="-392" font-family="Helvetica,sans-Serif" font-size="10.00">/detail/atomic_wait.hpp</text>
</a>
</g>
</g>
<!-- Node1&#45;&gt;Node5 -->
<g id="edge4" class="edge">
<title>Node1&#45;&gt;Node5</title>
<path fill="none" stroke="midnightblue" d="M535.37,-466.58C458.35,-459.52 319.15,-444.69 202,-421 193.86,-419.35 185.29,-417.28 177.02,-415.1"/>
<polygon fill="midnightblue" stroke="midnightblue" points="535.08,-470.07 545.36,-467.49 535.71,-463.1 535.08,-470.07"/>
</g>
<!-- Node6 -->
<g id="node6" class="node">
<title>Node6</title>
<g id="a_node6"><a xlink:href="fault_2detail_2condition__variable_8hpp.html" target="_top" xlink:title=" ">
<polygon fill="none" stroke="black" points="244,-385 244,-415 386,-415 386,-385 244,-385"/>
<text text-anchor="start" x="252" y="-403" font-family="Helvetica,sans-Serif" font-size="10.00">include/yaclib/fault</text>
<text text-anchor="middle" x="315" y="-392" font-family="Helvetica,sans-Serif" font-size="10.00">/detail/condition_variable.hpp</text>
</a>
</g>
</g>
<!-- Node1&#45;&gt;Node6 -->
<g id="edge7" class="edge">
<title>Node1&#45;&gt;Node6</title>
<path fill="none" stroke="midnightblue" d="M535.67,-456.76C487.13,-444.5 418.5,-427.15 370.71,-415.08"/>
<polygon fill="midnightblue" stroke="midnightblue" points="534.85,-460.16 545.4,-459.22 536.56,-453.38 534.85,-460.16"/>
</g>
<!-- Node8 -->
<g id="node8" class="node">
<title>Node8</title>
<g id="a_node8"><a xlink:href="fault_2detail_2condition__variable__any_8hpp.html" target="_top" xlink:title=" ">
<polygon fill="none" stroke="black" points="404,-379.5 404,-420.5 528,-420.5 528,-379.5 404,-379.5"/>
<text text-anchor="start" x="412" y="-408.5" font-family="Helvetica,sans-Serif" font-size="10.00">include/yaclib/fault</text>
<text text-anchor="start" x="412" y="-397.5" font-family="Helvetica,sans-Serif" font-size="10.00">/detail/condition_variable</text>
<text text-anchor="middle" x="466" y="-386.5" font-family="Helvetica,sans-Serif" font-size="10.00">_any.hpp</text>
</a>
</g>
</g>
<!-- Node1&#45;&gt;Node8 -->
<g id="edge9" class="edge">
<title>Node1&#45;&gt;Node8</title>
<path fill="none" stroke="midnightblue" d="M559.45,-452.47C541.58,-442.63 519.78,-430.62 501.73,-420.68"/>
<polygon fill="midnightblue" stroke="midnightblue" points="557.96,-455.64 568.4,-457.4 561.33,-449.51 557.96,-455.64"/>
</g>
<!-- Node9 -->
<g id="node9" class="node">
<title>Node9</title>
<g id="a_node9"><a xlink:href="fault_2detail_2fiber_2atomic__flag_8hpp.html" target="_top" xlink:title=" ">
<polygon fill="none" stroke="black" points="322.5,-67.5 322.5,-108.5 419.5,-108.5 419.5,-67.5 322.5,-67.5"/>
<text text-anchor="start" x="330.5" y="-96.5" font-family="Helvetica,sans-Serif" font-size="10.00">include/yaclib/fault</text>
<text text-anchor="start" x="330.5" y="-85.5" font-family="Helvetica,sans-Serif" font-size="10.00">/detail/fiber/atomic</text>
<text text-anchor="middle" x="371" y="-74.5" font-family="Helvetica,sans-Serif" font-size="10.00">_flag.hpp</text>
</a>
</g>
</g>
<!-- Node1&#45;&gt;Node9 -->
<g id="edge10" class="edge">
<title>Node1&#45;&gt;Node9</title>
<path fill="none" stroke="midnightblue" d="M580.66,-448.62C540.39,-379.55 420.49,-173.89 382.61,-108.91"/>
<polygon fill="midnightblue" stroke="midnightblue" points="577.74,-450.56 585.8,-457.43 583.79,-447.03 577.74,-450.56"/>
</g>
<!-- Node10 -->
<g id="node10" class="node">
<title>Node10</title>
<g id="a_node10"><a xlink:href="fiber_2atomic__wait_8hpp.html" target="_top" xlink:title=" ">
<polygon fill="none" stroke="black" points="574.5,-145.5 574.5,-186.5 671.5,-186.5 671.5,-145.5 574.5,-145.5"/>
<text text-anchor="start" x="582.5" y="-174.5" font-family="Helvetica,sans-Serif" font-size="10.00">include/yaclib/fault</text>
<text text-anchor="start" x="582.5" y="-163.5" font-family="Helvetica,sans-Serif" font-size="10.00">/detail/fiber/atomic</text>
<text text-anchor="middle" x="623" y="-152.5" font-family="Helvetica,sans-Serif" font-size="10.00">_wait.hpp</text>
</a>
</g>
</g>
<!-- Node1&#45;&gt;Node10 -->
<g id="edge11" class="edge">
<title>Node1&#45;&gt;Node10</title>
<path fill="none" stroke="midnightblue" d="M596.33,-447.02C601.93,-388.22 616.05,-239.96 621.14,-186.55"/>
<polygon fill="midnightblue" stroke="midnightblue" points="592.82,-446.93 595.36,-457.22 599.79,-447.6 592.82,-446.93"/>
</g>
<!-- Node12 -->
<g id="node12" class="node">
<title>Node12</title>
<g id="a_node12"><a xlink:href="scheduler_8hpp.html" target="_top" xlink:title=" ">
<polygon fill="none" stroke="black" points="889.5,-385 889.5,-415 1016.5,-415 1016.5,-385 889.5,-385"/>
<text text-anchor="start" x="897.5" y="-403" font-family="Helvetica,sans-Serif" font-size="10.00">include/yaclib/fault</text>
<text text-anchor="middle" x="953" y="-392" font-family="Helvetica,sans-Serif" font-size="10.00">/detail/fiber/scheduler.hpp</text>
</a>
</g>
</g>
<!-- Node1&#45;&gt;Node12 -->
<g id="edge14" class="edge">
<title>Node1&#45;&gt;Node12</title>
<path fill="none" stroke="midnightblue" d="M652.89,-459.93C718.02,-447.15 822.57,-426.61 889.49,-413.47"/>
<polygon fill="midnightblue" stroke="midnightblue" points="651.93,-456.56 642.79,-461.92 653.28,-463.43 651.93,-456.56"/>
</g>
<!-- Node33 -->
<g id="node33" class="node">
<title>Node33</title>
<g id="a_node33"><a xlink:href="fault_2detail_2mutex_8hpp.html" target="_top" xlink:title=" ">
<polygon fill="none" stroke="black" points="1306.5,-385 1306.5,-415 1403.5,-415 1403.5,-385 1306.5,-385"/>
<text text-anchor="start" x="1314.5" y="-403" font-family="Helvetica,sans-Serif" font-size="10.00">include/yaclib/fault</text>
<text text-anchor="middle" x="1355" y="-392" font-family="Helvetica,sans-Serif" font-size="10.00">/detail/mutex.hpp</text>
</a>
</g>
</g>
<!-- Node1&#45;&gt;Node33 -->
<g id="edge40" class="edge">
<title>Node1&#45;&gt;Node33</title>
<path fill="none" stroke="midnightblue" d="M652.88,-467.85C763.03,-460.76 1007.71,-443.81 1213,-421 1244.18,-417.54 1279.06,-412.64 1306.46,-408.55"/>
<polygon fill="midnightblue" stroke="midnightblue" points="652.4,-464.37 642.64,-468.5 652.85,-471.36 652.4,-464.37"/>
</g>
<!-- Node35 -->
<g id="node35" class="node">
<title>Node35</title>
<g id="a_node35"><a xlink:href="fault_2detail_2shared__mutex_8hpp.html" target="_top" xlink:title=" ">
<polygon fill="none" stroke="black" points="1218.5,-307 1218.5,-337 1343.5,-337 1343.5,-307 1218.5,-307"/>
<text text-anchor="start" x="1226.5" y="-325" font-family="Helvetica,sans-Serif" font-size="10.00">include/yaclib/fault</text>
<text text-anchor="middle" x="1281" y="-314" font-family="Helvetica,sans-Serif" font-size="10.00">/detail/shared_mutex.hpp</text>
</a>
</g>
</g>
<!-- Node1&#45;&gt;Node35 -->
<g id="edge46" class="edge">
<title>Node1&#45;&gt;Node35</title>
<path fill="none" stroke="midnightblue" d="M652.61,-469.25C736.3,-465 894.37,-453.12 1025,-421 1109.8,-400.15 1204.56,-358.84 1251.44,-337.11"/>
<polygon fill="midnightblue" stroke="midnightblue" points="652.35,-465.76 642.53,-469.74 652.69,-472.75 652.35,-465.76"/>
</g>
<!-- Node36 -->
<g id="node36" class="node">
<title>Node36</title>
<g id="a_node36"><a xlink:href="fault_2detail_2shared__timed__mutex_8hpp.html" target="_top" xlink:title=" ">
<polygon fill="none" stroke="black" points="1331,-223.5 1331,-264.5 1435,-264.5 1435,-223.5 1331,-223.5"/>
<text text-anchor="start" x="1339" y="-252.5" font-family="Helvetica,sans-Serif" font-size="10.00">include/yaclib/fault</text>
<text text-anchor="start" x="1339" y="-241.5" font-family="Helvetica,sans-Serif" font-size="10.00">/detail/shared_timed</text>
<text text-anchor="middle" x="1383" y="-230.5" font-family="Helvetica,sans-Serif" font-size="10.00">_mutex.hpp</text>
</a>
</g>
</g>
<!-- Node1&#45;&gt;Node36 -->
<g id="edge47" class="edge">
<title>Node1&#45;&gt;Node36</title>
<path fill="none" stroke="midnightblue" d="M652.59,-470C828.3,-465.22 1342.95,-448.96 1413,-421 1475.67,-395.99 1542.51,-357.74 1506,-301 1490.32,-276.63 1461.14,-262.74 1435.14,-254.89"/>
<polygon fill="midnightblue" stroke="midnightblue" points="652.41,-466.51 642.5,-470.28 652.59,-473.5 652.41,-466.51"/>
</g>
<!-- Node37 -->
<g id="node37" class="node">
<title>Node37</title>
<g id="a_node37"><a xlink:href="fault_2detail_2timed__mutex_8hpp.html" target="_top" xlink:title=" ">
<polygon fill="none" stroke="black" points="1553.5,-307 1553.5,-337 1672.5,-337 1672.5,-307 1553.5,-307"/>
<text text-anchor="start" x="1561.5" y="-325" font-family="Helvetica,sans-Serif" font-size="10.00">include/yaclib/fault</text>
<text text-anchor="middle" x="1613" y="-314" font-family="Helvetica,sans-Serif" font-size="10.00">/detail/timed_mutex.hpp</text>
</a>
</g>
</g>
<!-- Node1&#45;&gt;Node37 -->
<g id="edge48" class="edge">
<title>Node1&#45;&gt;Node37</title>
<path fill="none" stroke="midnightblue" d="M652.55,-471.22C846.62,-469.91 1460.97,-462.49 1539,-421 1556.88,-411.49 1588.98,-362.11 1604.35,-337.29"/>
<polygon fill="midnightblue" stroke="midnightblue" points="652.51,-467.72 642.54,-471.29 652.56,-474.72 652.51,-467.72"/>
</g>
<!-- Node39 -->
<g id="node39" class="node">
<title>Node39</title>
<g id="a_node39"><a xlink:href="inject_8cpp.html" target="_top" xlink:title=" ">
<polygon fill="none" stroke="black" points="1591,-390.5 1591,-409.5 1687,-409.5 1687,-390.5 1591,-390.5"/>
<text text-anchor="middle" x="1639" y="-397.5" font-family="Helvetica,sans-Serif" font-size="10.00">src/fault/inject.cpp</text>
</a>
</g>
</g>
<!-- Node1&#45;&gt;Node39 -->
<g id="edge49" class="edge">
<title>Node1&#45;&gt;Node39</title>
<path fill="none" stroke="midnightblue" d="M652.8,-470.49C836.5,-467 1398.03,-453.88 1577,-421 1590.68,-418.49 1605.53,-413.77 1617.26,-409.55"/>
<polygon fill="midnightblue" stroke="midnightblue" points="652.73,-466.99 642.79,-470.67 652.86,-473.99 652.73,-466.99"/>
</g>
<!-- Node3 -->
<g id="node3" class="node">
<title>Node3</title>
<g id="a_node3"><a xlink:href="atomic_8cpp.html" target="_top" xlink:title=" ">
<polygon fill="none" stroke="black" points="0,-234.5 0,-253.5 102,-253.5 102,-234.5 0,-234.5"/>
<text text-anchor="middle" x="51" y="-241.5" font-family="Helvetica,sans-Serif" font-size="10.00">src/fault/atomic.cpp</text>
</a>
</g>
</g>
<!-- Node2&#45;&gt;Node3 -->
<g id="edge2" class="edge">
<title>Node2&#45;&gt;Node3</title>
<path fill="none" stroke="midnightblue" d="M51,-296.67C51,-281.9 51,-263.95 51,-253.56"/>
<polygon fill="midnightblue" stroke="midnightblue" points="47.5,-296.7 51,-306.7 54.5,-296.71 47.5,-296.7"/>
</g>
<!-- Node5&#45;&gt;Node2 -->
<g id="edge5" class="edge">
<title>Node5&#45;&gt;Node2</title>
<path fill="none" stroke="midnightblue" d="M107.69,-377.53C94.27,-364.63 77.58,-348.57 65.79,-337.23"/>
<polygon fill="midnightblue" stroke="midnightblue" points="105.51,-380.29 115.14,-384.7 110.36,-375.25 105.51,-380.29"/>
</g>
<!-- Node5&#45;&gt;Node4 -->
<g id="edge6" class="edge">
<title>Node5&#45;&gt;Node4</title>
<path fill="none" stroke="midnightblue" d="M146.92,-376.44C156.45,-363.73 168.06,-348.25 176.33,-337.23"/>
<polygon fill="midnightblue" stroke="midnightblue" points="143.92,-374.6 140.72,-384.7 149.52,-378.8 143.92,-374.6"/>
</g>
<!-- Node7 -->
<g id="node7" class="node">
<title>Node7</title>
<g id="a_node7"><a xlink:href="condition__variable_8cpp.html" target="_top" xlink:title=" ">
<polygon fill="none" stroke="black" points="268,-307 268,-337 362,-337 362,-307 268,-307"/>
<text text-anchor="start" x="276" y="-325" font-family="Helvetica,sans-Serif" font-size="10.00">src/fault/condition</text>
<text text-anchor="middle" x="315" y="-314" font-family="Helvetica,sans-Serif" font-size="10.00">_variable.cpp</text>
</a>
</g>
</g>
<!-- Node6&#45;&gt;Node7 -->
<g id="edge8" class="edge">
<title>Node6&#45;&gt;Node7</title>
<path fill="none" stroke="midnightblue" d="M315,-374.59C315,-362.26 315,-347.72 315,-337.23"/>
<polygon fill="midnightblue" stroke="midnightblue" points="311.5,-374.7 315,-384.7 318.5,-374.71 311.5,-374.7"/>
</g>
<!-- Node10&#45;&gt;Node9 -->
<g id="edge13" class="edge">
<title>Node10&#45;&gt;Node9</title>
<path fill="none" stroke="midnightblue" d="M564.38,-146.31C562.91,-145.86 561.44,-145.43 560,-145 502.1,-127.86 486.68,-126.85 429,-109 425.95,-108.06 422.81,-107.06 419.66,-106.03"/>
<polygon fill="midnightblue" stroke="midnightblue" points="563.63,-149.74 574.22,-149.31 565.67,-143.04 563.63,-149.74"/>
</g>
<!-- Node11 -->
<g id="node11" class="node">
<title>Node11</title>
<g id="a_node11"><a xlink:href="fault_2detail_2fiber_2atomic_8hpp.html" target="_top" xlink:title=" ">
<polygon fill="none" stroke="black" points="438,-73 438,-103 552,-103 552,-73 438,-73"/>
<text text-anchor="start" x="446" y="-91" font-family="Helvetica,sans-Serif" font-size="10.00">include/yaclib/fault</text>
<text text-anchor="middle" x="495" y="-80" font-family="Helvetica,sans-Serif" font-size="10.00">/detail/fiber/atomic.hpp</text>
</a>
</g>
</g>
<!-- Node10&#45;&gt;Node11 -->
<g id="edge12" class="edge">
<title>Node10&#45;&gt;Node11</title>
<path fill="none" stroke="midnightblue" d="M581.42,-140.31C560.75,-128.04 536.5,-113.64 518.96,-103.23"/>
<polygon fill="midnightblue" stroke="midnightblue" points="579.65,-143.33 590.04,-145.43 583.23,-137.31 579.65,-143.33"/>
</g>
<!-- Node13 -->
<g id="node13" class="node">
<title>Node13</title>
<g id="a_node13"><a xlink:href="queue_8hpp.html" target="_top" xlink:title=" ">
<polygon fill="none" stroke="black" points="932.5,-229 932.5,-259 1043.5,-259 1043.5,-229 932.5,-229"/>
<text text-anchor="start" x="940.5" y="-247" font-family="Helvetica,sans-Serif" font-size="10.00">include/yaclib/fault</text>
<text text-anchor="middle" x="988" y="-236" font-family="Helvetica,sans-Serif" font-size="10.00">/detail/fiber/queue.hpp</text>
</a>
</g>
</g>
<!-- Node12&#45;&gt;Node13 -->
<g id="edge15" class="edge">
<title>Node12&#45;&gt;Node13</title>
<path fill="none" stroke="midnightblue" d="M986.09,-378.86C998.16,-369.59 1010.46,-357.42 1017,-343 1029.98,-314.4 1011.15,-278.5 998.29,-259.07"/>
<polygon fill="midnightblue" stroke="midnightblue" points="983.9,-376.12 977.83,-384.8 987.99,-381.8 983.9,-376.12"/>
</g>
<!-- Node25 -->
<g id="node25" class="node">
<title>Node25</title>
<g id="a_node25"><a xlink:href="fault_2detail_2fiber_2thread_8hpp.html" target="_top" xlink:title=" ">
<polygon fill="none" stroke="black" points="1274,-151 1274,-181 1386,-181 1386,-151 1274,-151"/>
<text text-anchor="start" x="1282" y="-169" font-family="Helvetica,sans-Serif" font-size="10.00">include/yaclib/fault</text>
<text text-anchor="middle" x="1330" y="-158" font-family="Helvetica,sans-Serif" font-size="10.00">/detail/fiber/thread.hpp</text>
</a>
</g>
</g>
<!-- Node12&#45;&gt;Node25 -->
<g id="edge36" class="edge">
<title>Node12&#45;&gt;Node25</title>
<path fill="none" stroke="midnightblue" d="M1009.44,-382.16C1013.35,-381.07 1017.23,-380.01 1021,-379 1087.24,-361.32 1112.05,-378 1171,-343 1173.33,-341.61 1279.84,-222.95 1317.2,-181.27"/>
<polygon fill="midnightblue" stroke="midnightblue" points="1008.4,-378.82 999.73,-384.92 1010.31,-385.55 1008.4,-378.82"/>
</g>
<!-- Node28 -->
<g id="node28" class="node">
<title>Node28</title>
<g id="a_node28"><a xlink:href="system__clock_8hpp.html" target="_top" xlink:title=" ">
<polygon fill="none" stroke="black" points="1064,-301.5 1064,-342.5 1162,-342.5 1162,-301.5 1064,-301.5"/>
<text text-anchor="start" x="1072" y="-330.5" font-family="Helvetica,sans-Serif" font-size="10.00">include/yaclib/fault</text>
<text text-anchor="start" x="1072" y="-319.5" font-family="Helvetica,sans-Serif" font-size="10.00">/detail/fiber/system</text>
<text text-anchor="middle" x="1113" y="-308.5" font-family="Helvetica,sans-Serif" font-size="10.00">_clock.hpp</text>
</a>
</g>
</g>
<!-- Node12&#45;&gt;Node28 -->
<g id="edge33" class="edge">
<title>Node12&#45;&gt;Node28</title>
<path fill="none" stroke="midnightblue" d="M991.94,-380.5C1016.1,-369.03 1047.1,-354.3 1071.68,-342.63"/>
<polygon fill="midnightblue" stroke="midnightblue" points="990.25,-377.43 982.72,-384.88 993.25,-383.75 990.25,-377.43"/>
</g>
<!-- Node30 -->
<g id="node30" class="node">
<title>Node30</title>
<g id="a_node30"><a xlink:href="scheduler_8cpp.html" target="_top" xlink:title=" ">
<polygon fill="none" stroke="black" points="622,-312.5 622,-331.5 758,-331.5 758,-312.5 622,-312.5"/>
<text text-anchor="middle" x="690" y="-319.5" font-family="Helvetica,sans-Serif" font-size="10.00">src/fault/fiber/scheduler.cpp</text>
</a>
</g>
</g>
<!-- Node12&#45;&gt;Node30 -->
<g id="edge37" class="edge">
<title>Node12&#45;&gt;Node30</title>
<path fill="none" stroke="midnightblue" d="M894.62,-382.13C840.35,-366.45 761.73,-343.73 719.49,-331.52"/>
<polygon fill="midnightblue" stroke="midnightblue" points="893.88,-385.56 904.46,-384.97 895.82,-378.83 893.88,-385.56"/>
</g>
<!-- Node31 -->
<g id="node31" class="node">
<title>Node31</title>
<g id="a_node31"><a xlink:href="thread__local__proxy_8cpp.html" target="_top" xlink:title=" ">
<polygon fill="none" stroke="black" points="776.5,-307 776.5,-337 879.5,-337 879.5,-307 776.5,-307"/>
<text text-anchor="start" x="784.5" y="-325" font-family="Helvetica,sans-Serif" font-size="10.00">src/fault/fiber/thread</text>
<text text-anchor="middle" x="828" y="-314" font-family="Helvetica,sans-Serif" font-size="10.00">_local_proxy.cpp</text>
</a>
</g>
</g>
<!-- Node12&#45;&gt;Node31 -->
<g id="edge38" class="edge">
<title>Node12&#45;&gt;Node31</title>
<path fill="none" stroke="midnightblue" d="M921.17,-379.64C899.3,-366.35 870.79,-349.02 851.09,-337.04"/>
<polygon fill="midnightblue" stroke="midnightblue" points="919.42,-382.68 929.78,-384.88 923.06,-376.7 919.42,-382.68"/>
</g>
<!-- Node32 -->
<g id="node32" class="node">
<title>Node32</title>
<g id="a_node32"><a xlink:href="wakeup__helper_8cpp.html" target="_top" xlink:title=" ">
<polygon fill="none" stroke="black" points="898,-307 898,-337 1008,-337 1008,-307 898,-307"/>
<text text-anchor="start" x="906" y="-325" font-family="Helvetica,sans-Serif" font-size="10.00">src/fault/fiber/wakeup</text>
<text text-anchor="middle" x="953" y="-314" font-family="Helvetica,sans-Serif" font-size="10.00">_helper.cpp</text>
</a>
</g>
</g>
<!-- Node12&#45;&gt;Node32 -->
<g id="edge39" class="edge">
<title>Node12&#45;&gt;Node32</title>
<path fill="none" stroke="midnightblue" d="M953,-374.59C953,-362.26 953,-347.72 953,-337.23"/>
<polygon fill="midnightblue" stroke="midnightblue" points="949.5,-374.7 953,-384.7 956.5,-374.71 949.5,-374.7"/>
</g>
<!-- Node13&#45;&gt;Node10 -->
<g id="edge16" class="edge">
<title>Node13&#45;&gt;Node10</title>
<path fill="none" stroke="midnightblue" d="M922.18,-234.1C859.36,-224.9 762.37,-208.79 680,-187 677.26,-186.28 674.47,-185.48 671.66,-184.64"/>
<polygon fill="midnightblue" stroke="midnightblue" points="921.94,-237.61 932.34,-235.58 922.95,-230.68 921.94,-237.61"/>
</g>
<!-- Node14 -->
<g id="node14" class="node">
<title>Node14</title>
<g id="a_node14"><a xlink:href="fault_2detail_2fiber_2mutex_8hpp.html" target="_top" xlink:title=" ">
<polygon fill="none" stroke="black" points="1106.5,-151 1106.5,-181 1217.5,-181 1217.5,-151 1106.5,-151"/>
<text text-anchor="start" x="1114.5" y="-169" font-family="Helvetica,sans-Serif" font-size="10.00">include/yaclib/fault</text>
<text text-anchor="middle" x="1162" y="-158" font-family="Helvetica,sans-Serif" font-size="10.00">/detail/fiber/mutex.hpp</text>
</a>
</g>
</g>
<!-- Node13&#45;&gt;Node14 -->
<g id="edge17" class="edge">
<title>Node13&#45;&gt;Node14</title>
<path fill="none" stroke="midnightblue" d="M1029.5,-224.87C1060.26,-211.44 1101.58,-193.39 1129.85,-181.04"/>
<polygon fill="midnightblue" stroke="midnightblue" points="1028.08,-221.67 1020.32,-228.88 1030.89,-228.09 1028.08,-221.67"/>
</g>
<!-- Node17 -->
<g id="node17" class="node">
<title>Node17</title>
<g id="a_node17"><a xlink:href="fault_2detail_2fiber_2timed__mutex_8hpp.html" target="_top" xlink:title=" ">
<polygon fill="none" stroke="black" points="1330,-73 1330,-103 1470,-103 1470,-73 1330,-73"/>
<text text-anchor="start" x="1338" y="-91" font-family="Helvetica,sans-Serif" font-size="10.00">include/yaclib/fault</text>
<text text-anchor="middle" x="1400" y="-80" font-family="Helvetica,sans-Serif" font-size="10.00">/detail/fiber/timed_mutex.hpp</text>
</a>
</g>
</g>
<!-- Node13&#45;&gt;Node17 -->
<g id="edge31" class="edge">
<title>Node13&#45;&gt;Node17</title>
<path fill="none" stroke="midnightblue" d="M1040.49,-226.14C1044.37,-225.03 1048.24,-223.97 1052,-223 1128.45,-203.2 1157.2,-225.77 1226,-187 1248.19,-174.49 1244.09,-159.55 1265,-145 1291.66,-126.45 1325.41,-112.45 1352.5,-103.09"/>
<polygon fill="midnightblue" stroke="midnightblue" points="1039.47,-222.79 1030.86,-228.96 1041.45,-229.51 1039.47,-222.79"/>
</g>
<!-- Node19 -->
<g id="node19" class="node">
<title>Node19</title>
<g id="a_node19"><a xlink:href="fault_2detail_2fiber_2recursive__mutex_8hpp.html" target="_top" xlink:title=" ">
<polygon fill="none" stroke="black" points="804.5,-145.5 804.5,-186.5 911.5,-186.5 911.5,-145.5 804.5,-145.5"/>
<text text-anchor="start" x="812.5" y="-174.5" font-family="Helvetica,sans-Serif" font-size="10.00">include/yaclib/fault</text>
<text text-anchor="start" x="812.5" y="-163.5" font-family="Helvetica,sans-Serif" font-size="10.00">/detail/fiber/recursive</text>
<text text-anchor="middle" x="858" y="-152.5" font-family="Helvetica,sans-Serif" font-size="10.00">_mutex.hpp</text>
</a>
</g>
</g>
<!-- Node13&#45;&gt;Node19 -->
<g id="edge22" class="edge">
<title>Node13&#45;&gt;Node19</title>
<path fill="none" stroke="midnightblue" d="M955.08,-223.75C935.73,-212.44 911.32,-198.17 891.82,-186.77"/>
<polygon fill="midnightblue" stroke="midnightblue" points="953.45,-226.86 963.85,-228.88 956.99,-220.81 953.45,-226.86"/>
</g>
<!-- Node20 -->
<g id="node20" class="node">
<title>Node20</title>
<g id="a_node20"><a xlink:href="fault_2detail_2fiber_2recursive__timed__mutex_8hpp.html" target="_top" xlink:title=" ">
<polygon fill="none" stroke="black" points="943.5,-67.5 943.5,-108.5 1050.5,-108.5 1050.5,-67.5 943.5,-67.5"/>
<text text-anchor="start" x="951.5" y="-96.5" font-family="Helvetica,sans-Serif" font-size="10.00">include/yaclib/fault</text>
<text text-anchor="start" x="951.5" y="-85.5" font-family="Helvetica,sans-Serif" font-size="10.00">/detail/fiber/recursive</text>
<text text-anchor="middle" x="997" y="-74.5" font-family="Helvetica,sans-Serif" font-size="10.00">_timed_mutex.hpp</text>
</a>
</g>
</g>
<!-- Node13&#45;&gt;Node20 -->
<g id="edge25" class="edge">
<title>Node13&#45;&gt;Node20</title>
<path fill="none" stroke="midnightblue" d="M1025.15,-223.23C1038.36,-214.11 1051.75,-201.95 1059,-187 1067.14,-170.2 1066.58,-162.06 1059,-145 1052.52,-130.42 1040.16,-118.03 1028.17,-108.64"/>
<polygon fill="midnightblue" stroke="midnightblue" points="1023.06,-220.41 1016.56,-228.78 1026.86,-226.29 1023.06,-220.41"/>
</g>
<!-- Node22 -->
<g id="node22" class="node">
<title>Node22</title>
<g id="a_node22"><a xlink:href="fault_2detail_2fiber_2shared__mutex_8hpp.html" target="_top" xlink:title=" ">
<polygon fill="none" stroke="black" points="689.5,-145.5 689.5,-186.5 786.5,-186.5 786.5,-145.5 689.5,-145.5"/>
<text text-anchor="start" x="697.5" y="-174.5" font-family="Helvetica,sans-Serif" font-size="10.00">include/yaclib/fault</text>
<text text-anchor="start" x="697.5" y="-163.5" font-family="Helvetica,sans-Serif" font-size="10.00">/detail/fiber/shared</text>
<text text-anchor="middle" x="738" y="-152.5" font-family="Helvetica,sans-Serif" font-size="10.00">_mutex.hpp</text>
</a>
</g>
</g>
<!-- Node13&#45;&gt;Node22 -->
<g id="edge26" class="edge">
<title>Node13&#45;&gt;Node22</title>
<path fill="none" stroke="midnightblue" d="M926.66,-226.13C888.6,-215.44 838.77,-201.02 795,-187 792.3,-186.14 789.54,-185.23 786.76,-184.31"/>
<polygon fill="midnightblue" stroke="midnightblue" points="925.99,-229.58 936.57,-228.91 927.88,-222.84 925.99,-229.58"/>
</g>
<!-- Node13&#45;&gt;Node25 -->
<g id="edge29" class="edge">
<title>Node13&#45;&gt;Node25</title>
<path fill="none" stroke="midnightblue" d="M1040.08,-226.11C1044.09,-224.99 1048.1,-223.94 1052,-223 1143.19,-200.96 1168.54,-207.92 1260,-187 1267.64,-185.25 1275.68,-183.18 1283.49,-181.04"/>
<polygon fill="midnightblue" stroke="midnightblue" points="1038.76,-222.84 1030.12,-228.98 1040.7,-229.57 1038.76,-222.84"/>
</g>
<!-- Node27 -->
<g id="node27" class="node">
<title>Node27</title>
<g id="a_node27"><a xlink:href="queue_8cpp.html" target="_top" xlink:title=" ">
<polygon fill="none" stroke="black" points="930,-156.5 930,-175.5 1050,-175.5 1050,-156.5 930,-156.5"/>
<text text-anchor="middle" x="990" y="-163.5" font-family="Helvetica,sans-Serif" font-size="10.00">src/fault/fiber/queue.cpp</text>
</a>
</g>
</g>
<!-- Node13&#45;&gt;Node27 -->
<g id="edge32" class="edge">
<title>Node13&#45;&gt;Node27</title>
<path fill="none" stroke="midnightblue" d="M988.64,-218.67C989.03,-203.9 989.5,-185.95 989.77,-175.56"/>
<polygon fill="midnightblue" stroke="midnightblue" points="985.14,-218.62 988.38,-228.7 992.14,-218.8 985.14,-218.62"/>
</g>
<!-- Node15 -->
<g id="node15" class="node">
<title>Node15</title>
<g id="a_node15"><a xlink:href="fault_2detail_2fiber_2condition__variable_8hpp.html" target="_top" xlink:title=" ">
<polygon fill="none" stroke="black" points="1068,-67.5 1068,-108.5 1174,-108.5 1174,-67.5 1068,-67.5"/>
<text text-anchor="start" x="1076" y="-96.5" font-family="Helvetica,sans-Serif" font-size="10.00">include/yaclib/fault</text>
<text text-anchor="start" x="1076" y="-85.5" font-family="Helvetica,sans-Serif" font-size="10.00">/detail/fiber/condition</text>
<text text-anchor="middle" x="1121" y="-74.5" font-family="Helvetica,sans-Serif" font-size="10.00">_variable.hpp</text>
</a>
</g>
</g>
<!-- Node14&#45;&gt;Node15 -->
<g id="edge18" class="edge">
<title>Node14&#45;&gt;Node15</title>
<path fill="none" stroke="midnightblue" d="M1149.39,-141.63C1143.7,-131.08 1137.05,-118.75 1131.62,-108.68"/>
<polygon fill="midnightblue" stroke="midnightblue" points="1146.46,-143.57 1154.29,-150.7 1152.62,-140.24 1146.46,-143.57"/>
</g>
<!-- Node14&#45;&gt;Node17 -->
<g id="edge20" class="edge">
<title>Node14&#45;&gt;Node17</title>
<path fill="none" stroke="midnightblue" d="M1215.52,-147.91C1257.85,-134.39 1316.25,-115.74 1355.92,-103.07"/>
<polygon fill="midnightblue" stroke="midnightblue" points="1214.39,-144.6 1205.93,-150.97 1216.52,-151.26 1214.39,-144.6"/>
</g>
<!-- Node18 -->
<g id="node18" class="node">
<title>Node18</title>
<g id="a_node18"><a xlink:href="mutex_8cpp.html" target="_top" xlink:title=" ">
<polygon fill="none" stroke="black" points="1192,-78.5 1192,-97.5 1312,-97.5 1312,-78.5 1192,-78.5"/>
<text text-anchor="middle" x="1252" y="-85.5" font-family="Helvetica,sans-Serif" font-size="10.00">src/fault/fiber/mutex.cpp</text>
</a>
</g>
</g>
<!-- Node14&#45;&gt;Node18 -->
<g id="edge21" class="edge">
<title>Node14&#45;&gt;Node18</title>
<path fill="none" stroke="midnightblue" d="M1186.82,-144.04C1204.95,-128.73 1228.61,-108.75 1241.86,-97.56"/>
<polygon fill="midnightblue" stroke="midnightblue" points="1184.31,-141.58 1178.93,-150.7 1188.83,-146.93 1184.31,-141.58"/>
</g>
<!-- Node16 -->
<g id="node16" class="node">
<title>Node16</title>
<g id="a_node16"><a xlink:href="fiber_2condition__variable_8cpp.html" target="_top" xlink:title=" ">
<polygon fill="none" stroke="black" points="1063.5,-0.5 1063.5,-30.5 1178.5,-30.5 1178.5,-0.5 1063.5,-0.5"/>
<text text-anchor="start" x="1071.5" y="-18.5" font-family="Helvetica,sans-Serif" font-size="10.00">src/fault/fiber/condition</text>
<text text-anchor="middle" x="1121" y="-7.5" font-family="Helvetica,sans-Serif" font-size="10.00">_variable.cpp</text>
</a>
</g>
</g>
<!-- Node15&#45;&gt;Node16 -->
<g id="edge19" class="edge">
<title>Node15&#45;&gt;Node16</title>
<path fill="none" stroke="midnightblue" d="M1121,-57.08C1121,-48.01 1121,-38.45 1121,-30.89"/>
<polygon fill="midnightblue" stroke="midnightblue" points="1117.5,-57.36 1121,-67.36 1124.5,-57.36 1117.5,-57.36"/>
</g>
<!-- Node19&#45;&gt;Node20 -->
<g id="edge23" class="edge">
<title>Node19&#45;&gt;Node20</title>
<path fill="none" stroke="midnightblue" d="M902.58,-140.63C921.57,-130.24 943.43,-118.29 961.33,-108.51"/>
<polygon fill="midnightblue" stroke="midnightblue" points="900.89,-137.56 893.8,-145.43 904.25,-143.7 900.89,-137.56"/>
</g>
<!-- Node21 -->
<g id="node21" class="node">
<title>Node21</title>
<g id="a_node21"><a xlink:href="recursive__mutex_8cpp.html" target="_top" xlink:title=" ">
<polygon fill="none" stroke="black" points="809,-73 809,-103 925,-103 925,-73 809,-73"/>
<text text-anchor="start" x="817" y="-91" font-family="Helvetica,sans-Serif" font-size="10.00">src/fault/fiber/recursive</text>
<text text-anchor="middle" x="867" y="-80" font-family="Helvetica,sans-Serif" font-size="10.00">_mutex.cpp</text>
</a>
</g>
</g>
<!-- Node19&#45;&gt;Node21 -->
<g id="edge24" class="edge">
<title>Node19&#45;&gt;Node21</title>
<path fill="none" stroke="midnightblue" d="M861.52,-135.28C862.83,-124.25 864.25,-112.25 865.32,-103.23"/>
<polygon fill="midnightblue" stroke="midnightblue" points="858.02,-135.09 860.32,-145.43 864.97,-135.91 858.02,-135.09"/>
</g>
<!-- Node23 -->
<g id="node23" class="node">
<title>Node23</title>
<g id="a_node23"><a xlink:href="fault_2detail_2fiber_2shared__timed__mutex_8hpp.html" target="_top" xlink:title=" ">
<polygon fill="none" stroke="black" points="570.5,-67.5 570.5,-108.5 667.5,-108.5 667.5,-67.5 570.5,-67.5"/>
<text text-anchor="start" x="578.5" y="-96.5" font-family="Helvetica,sans-Serif" font-size="10.00">include/yaclib/fault</text>
<text text-anchor="start" x="578.5" y="-85.5" font-family="Helvetica,sans-Serif" font-size="10.00">/detail/fiber/shared</text>
<text text-anchor="middle" x="619" y="-74.5" font-family="Helvetica,sans-Serif" font-size="10.00">_timed_mutex.hpp</text>
</a>
</g>
</g>
<!-- Node22&#45;&gt;Node23 -->
<g id="edge27" class="edge">
<title>Node22&#45;&gt;Node23</title>
<path fill="none" stroke="midnightblue" d="M698.73,-139.92C682.73,-129.7 664.52,-118.07 649.54,-108.51"/>
<polygon fill="midnightblue" stroke="midnightblue" points="697.04,-143 707.35,-145.43 700.81,-137.1 697.04,-143"/>
</g>
<!-- Node24 -->
<g id="node24" class="node">
<title>Node24</title>
<g id="a_node24"><a xlink:href="shared__mutex_8cpp.html" target="_top" xlink:title=" ">
<polygon fill="none" stroke="black" points="685.5,-73 685.5,-103 790.5,-103 790.5,-73 685.5,-73"/>
<text text-anchor="start" x="693.5" y="-91" font-family="Helvetica,sans-Serif" font-size="10.00">src/fault/fiber/shared</text>
<text text-anchor="middle" x="738" y="-80" font-family="Helvetica,sans-Serif" font-size="10.00">_mutex.cpp</text>
</a>
</g>
</g>
<!-- Node22&#45;&gt;Node24 -->
<g id="edge28" class="edge">
<title>Node22&#45;&gt;Node24</title>
<path fill="none" stroke="midnightblue" d="M738,-135.28C738,-124.25 738,-112.25 738,-103.23"/>
<polygon fill="midnightblue" stroke="midnightblue" points="734.5,-135.43 738,-145.43 741.5,-135.43 734.5,-135.43"/>
</g>
<!-- Node26 -->
<g id="node26" class="node">
<title>Node26</title>
<g id="a_node26"><a xlink:href="thread_8cpp.html" target="_top" xlink:title=" ">
<polygon fill="none" stroke="black" points="1488.5,-78.5 1488.5,-97.5 1609.5,-97.5 1609.5,-78.5 1488.5,-78.5"/>
<text text-anchor="middle" x="1549" y="-85.5" font-family="Helvetica,sans-Serif" font-size="10.00">src/fault/fiber/thread.cpp</text>
</a>
</g>
</g>
<!-- Node25&#45;&gt;Node26 -->
<g id="edge30" class="edge">
<title>Node25&#45;&gt;Node26</title>
<path fill="none" stroke="midnightblue" d="M1380.03,-147.64C1425.16,-131.98 1489.64,-109.6 1524.45,-97.52"/>
<polygon fill="midnightblue" stroke="midnightblue" points="1378.72,-144.39 1370.42,-150.97 1381.02,-151 1378.72,-144.39"/>
</g>
<!-- Node28&#45;&gt;Node13 -->
<g id="edge34" class="edge">
<title>Node28&#45;&gt;Node13</title>
<path fill="none" stroke="midnightblue" d="M1072.13,-296.15C1052,-283.91 1028.45,-269.59 1011.4,-259.23"/>
<polygon fill="midnightblue" stroke="midnightblue" points="1070.45,-299.22 1080.81,-301.43 1074.08,-293.24 1070.45,-299.22"/>
</g>
<!-- Node29 -->
<g id="node29" class="node">
<title>Node29</title>
<g id="a_node29"><a xlink:href="system__clock_8cpp.html" target="_top" xlink:title=" ">
<polygon fill="none" stroke="black" points="1061.5,-229 1061.5,-259 1168.5,-259 1168.5,-229 1061.5,-229"/>
<text text-anchor="start" x="1069.5" y="-247" font-family="Helvetica,sans-Serif" font-size="10.00">src/fault/fiber/system</text>
<text text-anchor="middle" x="1115" y="-236" font-family="Helvetica,sans-Serif" font-size="10.00">_clock.cpp</text>
</a>
</g>
</g>
<!-- Node28&#45;&gt;Node29 -->
<g id="edge35" class="edge">
<title>Node28&#45;&gt;Node29</title>
<path fill="none" stroke="midnightblue" d="M1113.78,-291.28C1114.07,-280.25 1114.39,-268.25 1114.63,-259.23"/>
<polygon fill="midnightblue" stroke="midnightblue" points="1110.28,-291.34 1113.52,-301.43 1117.28,-291.52 1110.28,-291.34"/>
</g>
<!-- Node34 -->
<g id="node34" class="node">
<title>Node34</title>
<g id="a_node34"><a xlink:href="fault_2detail_2recursive__mutex_8hpp.html" target="_top" xlink:title=" ">
<polygon fill="none" stroke="black" points="1361.5,-307 1361.5,-337 1496.5,-337 1496.5,-307 1361.5,-307"/>
<text text-anchor="start" x="1369.5" y="-325" font-family="Helvetica,sans-Serif" font-size="10.00">include/yaclib/fault</text>
<text text-anchor="middle" x="1429" y="-314" font-family="Helvetica,sans-Serif" font-size="10.00">/detail/recursive_mutex.hpp</text>
</a>
</g>
</g>
<!-- Node33&#45;&gt;Node34 -->
<g id="edge41" class="edge">
<title>Node33&#45;&gt;Node34</title>
<path fill="none" stroke="midnightblue" d="M1375.9,-377.53C1388.46,-364.63 1404.1,-348.57 1415.14,-337.23"/>
<polygon fill="midnightblue" stroke="midnightblue" points="1373.39,-375.1 1368.92,-384.7 1378.4,-379.98 1373.39,-375.1"/>
</g>
<!-- Node33&#45;&gt;Node35 -->
<g id="edge42" class="edge">
<title>Node33&#45;&gt;Node35</title>
<path fill="none" stroke="midnightblue" d="M1334.1,-377.53C1321.54,-364.63 1305.9,-348.57 1294.86,-337.23"/>
<polygon fill="midnightblue" stroke="midnightblue" points="1331.6,-379.98 1341.08,-384.7 1336.61,-375.1 1331.6,-379.98"/>
</g>
<!-- Node33&#45;&gt;Node37 -->
<g id="edge44" class="edge">
<title>Node33&#45;&gt;Node37</title>
<path fill="none" stroke="midnightblue" d="M1412.43,-382.08C1458.37,-368.55 1522.03,-349.8 1565.22,-337.07"/>
<polygon fill="midnightblue" stroke="midnightblue" points="1411.23,-378.79 1402.62,-384.97 1413.2,-385.5 1411.23,-378.79"/>
</g>
<!-- Node35&#45;&gt;Node36 -->
<g id="edge43" class="edge">
<title>Node35&#45;&gt;Node36</title>
<path fill="none" stroke="midnightblue" d="M1308.53,-300.49C1323.46,-289.36 1341.83,-275.68 1356.59,-264.68"/>
<polygon fill="midnightblue" stroke="midnightblue" points="1306.11,-297.92 1300.19,-306.7 1310.3,-303.54 1306.11,-297.92"/>
</g>
<!-- Node38 -->
<g id="node38" class="node">
<title>Node38</title>
<g id="a_node38"><a xlink:href="fault_2detail_2recursive__timed__mutex_8hpp.html" target="_top" xlink:title=" ">
<polygon fill="none" stroke="black" points="1555.5,-223.5 1555.5,-264.5 1670.5,-264.5 1670.5,-223.5 1555.5,-223.5"/>
<text text-anchor="start" x="1563.5" y="-252.5" font-family="Helvetica,sans-Serif" font-size="10.00">include/yaclib/fault</text>
<text text-anchor="start" x="1563.5" y="-241.5" font-family="Helvetica,sans-Serif" font-size="10.00">/detail/recursive_timed</text>
<text text-anchor="middle" x="1613" y="-230.5" font-family="Helvetica,sans-Serif" font-size="10.00">_mutex.hpp</text>
</a>
</g>
</g>
<!-- Node37&#45;&gt;Node38 -->
<g id="edge45" class="edge">
<title>Node37&#45;&gt;Node38</title>
<path fill="none" stroke="midnightblue" d="M1613,-296.66C1613,-286.33 1613,-274.44 1613,-264.68"/>
<polygon fill="midnightblue" stroke="midnightblue" points="1609.5,-296.7 1613,-306.7 1616.5,-296.71 1609.5,-296.7"/>
</g>
</g>
</svg>
        <g id="navigator" transform="translate(0 0)" fill="#404254">
                <rect fill="#f2f5e9" fill-opacity="0.5" stroke="#606060" stroke-width=".5" x="0" y="0" width="60" height="60"/>
                <use id="zoomplus" xlink:href="#zoomPlus" x="17" y="9" onmousedown="handleZoom(evt,'in')"/>
                <use id="zoomminus" xlink:href="#zoomMin" x="42" y="9" onmousedown="handleZoom(evt,'out')"/>
                <use id="reset" xlink:href="#resetDef" x="30" y="36" onmousedown="handleReset()"/>
                <g id="arrowUp" xlink:href="#dirArrow" transform="translate(30 24)" onmousedown="handlePan(0,-1)">
                  <use xlink:href="#rim" fill="#404040">
                        <set attributeName="fill" to="#808080" begin="arrowUp.mouseover" end="arrowUp.mouseout"/>
                  </use>
                  <path fill="none" stroke="white" stroke-width="1.5" d="M0,-3.0v7 M-2.5,-0.5L0,-3.0L2.5,-0.5"/>
                </g>
                <g id="arrowRight" xlink:href="#dirArrow" transform="rotate(90) translate(36 -43)" onmousedown="handlePan(1,0)">
                  <use xlink:href="#rim" fill="#404040">
                        <set attributeName="fill" to="#808080" begin="arrowRight.mouseover" end="arrowRight.mouseout"/>
                  </use>
                  <path fill="none" stroke="white" stroke-width="1.5" d="M0,-3.0v7 M-2.5,-0.5L0,-3.0L2.5,-0.5"/>
                </g>
                <g id="arrowDown" xlink:href="#dirArrow" transform="rotate(180) translate(-30 -48)" onmousedown="handlePan(0,1)">
                  <use xlink:href="#rim" fill="#404040">
                        <set attributeName="fill" to="#808080" begin="arrowDown.mouseover" end="arrowDown.mouseout"/>
                  </use>
                  <path fill="none" stroke="white" stroke-width="1.5" d="M0,-3.0v7 M-2.5,-0.5L0,-3.0L2.5,-0.5"/>
                </g>
                <g id="arrowLeft" xlink:href="#dirArrow" transform="rotate(270) translate(-36 17)" onmousedown="handlePan(-1,0)">
                  <use xlink:href="#rim" fill="#404040">
                        <set attributeName="fill" to="#808080" begin="arrowLeft.mouseover" end="arrowLeft.mouseout"/>
                  </use>
                  <path fill="none" stroke="white" stroke-width="1.5" d="M0,-3.0v7 M-2.5,-0.5L0,-3.0L2.5,-0.5"/>
                </g>
        </g>
        <svg viewBox="0 0 15 15" width="100%" height="30px" preserveAspectRatio="xMaxYMin meet">
         <g id="arrow_out" transform="scale(0.3 0.3)">
          <a xlink:href="inject_8hpp__dep__incl_org.svg" target="_base">
           <rect id="button" ry="5" rx="5" y="6" x="6" height="38" width="38"
                fill="#f2f5e9" fill-opacity="0.5" stroke="#606060" stroke-width="1.0"/>
           <path id="arrow"
             d="M 11.500037,31.436501 C 11.940474,20.09759 22.043105,11.32322 32.158766,21.979434 L 37.068811,17.246167 C 37.068811,17.246167 37.088388,32 37.088388,32 L 22.160133,31.978069 C 22.160133,31.978069 26.997745,27.140456 26.997745,27.140456 C 18.528582,18.264221 13.291696,25.230495 11.500037,31.436501 z"
             style="fill:#404040;"/>
          </a>
         </g>
        </svg>
</svg>
