<?xml version="1.0" encoding="UTF-8" standalone="no"?>
<!DOCTYPE svg PUBLIC "-//W3C//DTD SVG 1.1//EN"
 "http://www.w3.org/Graphics/SVG/1.1/DTD/svg11.dtd">
<!-- Generated by graphviz version 9.0.0 (20230911.1827)
 -->
<!-- Title: include/yaclib/algo/detail/inline_core.hpp Pages: 1 -->
<svg width="410pt" height="271pt"
 viewBox="0.00 0.00 409.88 270.75" xmlns="http://www.w3.org/2000/svg" xmlns:xlink="http://www.w3.org/1999/xlink">

<svg id="main" version="1.1" xmlns="http://www.w3.org/2000/svg" xmlns:xlink="http://www.w3.org/1999/xlink" xml:space="preserve" onload="init(evt)">
<style type="text/css"><![CDATA[
.node, .edge {opacity: 0.7;}
.node.selected, .edge.selected {opacity: 1;}
.edge:hover path { stroke: red; }
.edge:hover polygon { stroke: red; fill: red; }
]]></style>
<script type="application/ecmascript" xlink:href="svg.min.js"/>
<svg id="graph" class="graph">
<g id="graph0" class="graph" transform="scale(1 1) rotate(0) translate(4 266.75)">
<title>include/yaclib/algo/detail/inline_core.hpp</title>
<!-- Node1 -->
<g id="Node000001" class="node">
<title>Node1</title>
<g id="a_Node000001"><a xlink:title=" ">
<polygon fill="#999999" stroke="#666666" points="170.5,-262.75 60.75,-262.75 60.75,-232.25 170.5,-232.25 170.5,-262.75"/>
<text text-anchor="start" x="68.75" y="-249.25" font-family="Helvetica,sans-Serif" font-size="10.00">include/yaclib/algo</text>
<text text-anchor="middle" x="115.62" y="-238" font-family="Helvetica,sans-Serif" font-size="10.00">/detail/inline_core.hpp</text>
</a>
</g>
</g>
<!-- Node2 -->
<g id="Node000002" class="node">
<title>Node2</title>
<g id="a_Node000002"><a xlink:title=" ">
<polygon fill="#e0e0e0" stroke="#999999" points="87.25,-196.25 0,-196.25 0,-177 87.25,-177 87.25,-196.25"/>
<text text-anchor="middle" x="43.62" y="-182.75" font-family="Helvetica,sans-Serif" font-size="10.00">yaclib/config.hpp</text>
</a>
</g>
</g>
<!-- Node1&#45;&gt;Node2 -->
<g id="edge1_Node000001_Node000002" class="edge">
<title>Node1&#45;&gt;Node2</title>
<g id="a_edge1_Node000001_Node000002"><a xlink:title=" ">
<path fill="none" stroke="#63b8ff" d="M97.83,-231.95C87.39,-223.41 74.19,-212.62 63.42,-203.81"/>
<polygon fill="#63b8ff" stroke="#63b8ff" points="65.85,-201.28 55.9,-197.66 61.42,-206.7 65.85,-201.28"/>
</a>
</g>
</g>
<!-- Node3 -->
<g id="Node000003" class="node">
<title>Node3</title>
<g id="a_Node000003"><a xlink:href="job_8hpp.html" target="_top" xlink:title=" ">
<polygon fill="white" stroke="#666666" points="246.88,-196.25 154.38,-196.25 154.38,-177 246.88,-177 246.88,-196.25"/>
<text text-anchor="middle" x="200.62" y="-182.75" font-family="Helvetica,sans-Serif" font-size="10.00">yaclib/exe/job.hpp</text>
</a>
</g>
</g>
<!-- Node1&#45;&gt;Node3 -->
<g id="edge2_Node000001_Node000003" class="edge">
<title>Node1&#45;&gt;Node3</title>
<g id="a_edge2_Node000001_Node000003"><a xlink:title=" ">
<path fill="none" stroke="#63b8ff" d="M136.64,-231.95C149.33,-223.15 165.49,-211.96 178.4,-203.02"/>
<polygon fill="#63b8ff" stroke="#63b8ff" points="180.05,-206.13 186.28,-197.56 176.06,-200.38 180.05,-206.13"/>
</a>
</g>
</g>
<!-- Node4 -->
<g id="Node000004" class="node">
<title>Node4</title>
<g id="a_Node000004"><a xlink:href="log_8hpp.html" target="_top" xlink:title=" ">
<polygon fill="white" stroke="#666666" points="146.88,-135.38 72.38,-135.38 72.38,-116.12 146.88,-116.12 146.88,-135.38"/>
<text text-anchor="middle" x="109.62" y="-121.88" font-family="Helvetica,sans-Serif" font-size="10.00">yaclib/log.hpp</text>
</a>
</g>
</g>
<!-- Node1&#45;&gt;Node4 -->
<g id="edge11_Node000001_Node000004" class="edge">
<title>Node1&#45;&gt;Node4</title>
<g id="a_edge11_Node000001_Node000004"><a xlink:title=" ">
<path fill="none" stroke="#63b8ff" d="M114.89,-231.82C113.82,-210.53 111.84,-171.04 110.64,-147.01"/>
<polygon fill="#63b8ff" stroke="#63b8ff" points="114.15,-147.06 110.15,-137.25 107.16,-147.41 114.15,-147.06"/>
</a>
</g>
</g>
<!-- Node3&#45;&gt;Node4 -->
<g id="edge3_Node000003_Node000004" class="edge">
<title>Node3&#45;&gt;Node4</title>
<g id="a_edge3_Node000003_Node000004"><a xlink:title=" ">
<path fill="none" stroke="#63b8ff" d="M186.8,-176.68C172.51,-167.43 149.92,-152.82 132.87,-141.79"/>
<polygon fill="#63b8ff" stroke="#63b8ff" points="135.14,-139.09 124.85,-136.6 131.34,-144.97 135.14,-139.09"/>
</a>
</g>
</g>
<!-- Node6 -->
<g id="Node000006" class="node">
<title>Node6</title>
<g id="a_Node000006"><a xlink:href="node_8hpp.html" target="_top" xlink:title=" ">
<polygon fill="white" stroke="#666666" points="248,-141 165.25,-141 165.25,-110.5 248,-110.5 248,-141"/>
<text text-anchor="start" x="173.25" y="-127.5" font-family="Helvetica,sans-Serif" font-size="10.00">yaclib/util/detail</text>
<text text-anchor="middle" x="206.62" y="-116.25" font-family="Helvetica,sans-Serif" font-size="10.00">/node.hpp</text>
</a>
</g>
</g>
<!-- Node3&#45;&gt;Node6 -->
<g id="edge5_Node000003_Node000006" class="edge">
<title>Node3&#45;&gt;Node6</title>
<g id="a_edge5_Node000003_Node000006"><a xlink:title=" ">
<path fill="none" stroke="#63b8ff" d="M201.54,-176.68C202.19,-170.23 203.12,-161.16 204,-152.51"/>
<polygon fill="#63b8ff" stroke="#63b8ff" points="207.46,-153.09 204.99,-142.79 200.49,-152.38 207.46,-153.09"/>
</a>
</g>
</g>
<!-- Node7 -->
<g id="Node000007" class="node">
<title>Node7</title>
<g id="a_Node000007"><a xlink:href="func_8hpp.html" target="_top" xlink:title=" ">
<polygon fill="white" stroke="#666666" points="362.75,-135.38 266.5,-135.38 266.5,-116.12 362.75,-116.12 362.75,-135.38"/>
<text text-anchor="middle" x="314.62" y="-121.88" font-family="Helvetica,sans-Serif" font-size="10.00">yaclib/util/func.hpp</text>
</a>
</g>
</g>
<!-- Node3&#45;&gt;Node7 -->
<g id="edge6_Node000003_Node000007" class="edge">
<title>Node3&#45;&gt;Node7</title>
<g id="a_edge6_Node000003_Node000007"><a xlink:title=" ">
<path fill="none" stroke="#63b8ff" d="M217.94,-176.68C236.27,-167.22 265.47,-152.14 286.99,-141.02"/>
<polygon fill="#63b8ff" stroke="#63b8ff" points="288.52,-144.17 295.8,-136.47 285.31,-137.95 288.52,-144.17"/>
</a>
</g>
</g>
<!-- Node5 -->
<g id="Node000005" class="node">
<title>Node5</title>
<g id="a_Node000005"><a xlink:title=" ">
<polygon fill="#e0e0e0" stroke="#999999" points="142.38,-74.5 76.88,-74.5 76.88,-55.25 142.38,-55.25 142.38,-74.5"/>
<text text-anchor="middle" x="109.62" y="-61" font-family="Helvetica,sans-Serif" font-size="10.00">string_view</text>
</a>
</g>
</g>
<!-- Node4&#45;&gt;Node5 -->
<g id="edge4_Node000004_Node000005" class="edge">
<title>Node4&#45;&gt;Node5</title>
<g id="a_edge4_Node000004_Node000005"><a xlink:title=" ">
<path fill="none" stroke="#63b8ff" d="M109.62,-115.81C109.62,-108.03 109.62,-96.45 109.62,-86.41"/>
<polygon fill="#63b8ff" stroke="#63b8ff" points="113.13,-86.41 109.63,-76.41 106.13,-86.41 113.13,-86.41"/>
</a>
</g>
</g>
<!-- Node8 -->
<g id="Node000008" class="node">
<title>Node8</title>
<g id="a_Node000008"><a xlink:href="ref_8hpp.html" target="_top" xlink:title=" ">
<polygon fill="white" stroke="#666666" points="266,-74.5 177.25,-74.5 177.25,-55.25 266,-55.25 266,-74.5"/>
<text text-anchor="middle" x="221.62" y="-61" font-family="Helvetica,sans-Serif" font-size="10.00">yaclib/util/ref.hpp</text>
</a>
</g>
</g>
<!-- Node7&#45;&gt;Node8 -->
<g id="edge7_Node000007_Node000008" class="edge">
<title>Node7&#45;&gt;Node8</title>
<g id="a_edge7_Node000007_Node000008"><a xlink:title=" ">
<path fill="none" stroke="#63b8ff" d="M300.5,-115.81C285.89,-106.56 262.81,-91.95 245.38,-80.92"/>
<polygon fill="#63b8ff" stroke="#63b8ff" points="247.48,-78.1 237.16,-75.71 243.74,-84.02 247.48,-78.1"/>
</a>
</g>
</g>
<!-- Node10 -->
<g id="Node000010" class="node">
<title>Node10</title>
<g id="a_Node000010"><a xlink:title=" ">
<polygon fill="#e0e0e0" stroke="#999999" points="345.12,-74.5 284.12,-74.5 284.12,-55.25 345.12,-55.25 345.12,-74.5"/>
<text text-anchor="middle" x="314.62" y="-61" font-family="Helvetica,sans-Serif" font-size="10.00">type_traits</text>
</a>
</g>
</g>
<!-- Node7&#45;&gt;Node10 -->
<g id="edge9_Node000007_Node000010" class="edge">
<title>Node7&#45;&gt;Node10</title>
<g id="a_edge9_Node000007_Node000010"><a xlink:title=" ">
<path fill="none" stroke="#63b8ff" d="M314.62,-115.81C314.62,-108.03 314.62,-96.45 314.62,-86.41"/>
<polygon fill="#63b8ff" stroke="#63b8ff" points="318.13,-86.41 314.63,-76.41 311.13,-86.41 318.13,-86.41"/>
</a>
</g>
</g>
<!-- Node11 -->
<g id="Node000011" class="node">
<title>Node11</title>
<g id="a_Node000011"><a xlink:title=" ">
<polygon fill="#e0e0e0" stroke="#999999" points="401.88,-74.5 363.38,-74.5 363.38,-55.25 401.88,-55.25 401.88,-74.5"/>
<text text-anchor="middle" x="382.62" y="-61" font-family="Helvetica,sans-Serif" font-size="10.00">utility</text>
</a>
</g>
</g>
<!-- Node7&#45;&gt;Node11 -->
<g id="edge10_Node000007_Node000011" class="edge">
<title>Node7&#45;&gt;Node11</title>
<g id="a_edge10_Node000007_Node000011"><a xlink:title=" ">
<path fill="none" stroke="#63b8ff" d="M324.95,-115.81C335.24,-106.9 351.26,-93.03 363.81,-82.17"/>
<polygon fill="#63b8ff" stroke="#63b8ff" points="365.79,-85.08 371.06,-75.89 361.2,-79.79 365.79,-85.08"/>
</a>
</g>
</g>
<!-- Node9 -->
<g id="Node000009" class="node">
<title>Node9</title>
<g id="a_Node000009"><a xlink:title=" ">
<polygon fill="#e0e0e0" stroke="#999999" points="245.75,-19.25 197.5,-19.25 197.5,0 245.75,0 245.75,-19.25"/>
<text text-anchor="middle" x="221.62" y="-5.75" font-family="Helvetica,sans-Serif" font-size="10.00">cstddef</text>
</a>
</g>
</g>
<!-- Node8&#45;&gt;Node9 -->
<g id="edge8_Node000008_Node000009" class="edge">
<title>Node8&#45;&gt;Node9</title>
<g id="a_edge8_Node000008_Node000009"><a xlink:title=" ">
<path fill="none" stroke="#63b8ff" d="M221.62,-55.08C221.62,-48.57 221.62,-39.42 221.62,-31.12"/>
<polygon fill="#63b8ff" stroke="#63b8ff" points="225.13,-31.12 221.63,-21.12 218.13,-31.12 225.13,-31.12"/>
</a>
</g>
</g>
</g>
</svg>
</svg>

<style type='text/css'>
<![CDATA[
[data-mouse-over-selected='false'] { opacity: 0.7; }
[data-mouse-over-selected='true']  { opacity: 1.0; }
]]>
</style>
<script type="application/ecmascript"><![CDATA[
document.addEventListener('DOMContentLoaded', (event) => {
  highlightEdges();
  highlightAdjacentNodes();
});
]]></script>
</svg>
