<?xml version="1.0" encoding="UTF-8" standalone="no"?>
<!DOCTYPE svg PUBLIC "-//W3C//DTD SVG 1.1//EN"
 "http://www.w3.org/Graphics/SVG/1.1/DTD/svg11.dtd">
<!-- Generated by graphviz version 3.0.0 (20221109.1736)
 -->
<!-- Title: src/exe/inline.cpp Pages: 1 -->
<svg width="452pt" height="386pt"
 viewBox="0.00 0.00 451.68 386.00" xmlns="http://www.w3.org/2000/svg" xmlns:xlink="http://www.w3.org/1999/xlink">
<g id="graph0" class="graph" transform="scale(1 1) rotate(0) translate(4 382)">
<title>src/exe/inline.cpp</title>
<!-- Node1 -->
<g id="node1" class="node">
<title>Node1</title>
<g id="a_node1"><a xlink:title=" ">
<polygon fill="#bfbfbf" stroke="black" points="174.68,-358.5 174.68,-377.5 266.68,-377.5 266.68,-358.5 174.68,-358.5"/>
<text text-anchor="middle" x="220.68" y="-365.5" font-family="Helvetica,sans-Serif" font-size="10.00">src/exe/inline.cpp</text>
</a>
</g>
</g>
<!-- Node2 -->
<g id="node2" class="node">
<title>Node2</title>
<g id="a_node2"><a xlink:href="executor_8hpp.html" target="_top" xlink:title=" ">
<polygon fill="none" stroke="black" points="187.18,-246.5 187.18,-265.5 304.18,-265.5 304.18,-246.5 187.18,-246.5"/>
<text text-anchor="middle" x="245.68" y="-253.5" font-family="Helvetica,sans-Serif" font-size="10.00">yaclib/exe/executor.hpp</text>
</a>
</g>
</g>
<!-- Node1&#45;&gt;Node2 -->
<g id="edge1" class="edge">
<title>Node1&#45;&gt;Node2</title>
<path fill="none" stroke="midnightblue" d="M222.64,-358.37C226.67,-340.62 235.98,-299.67 241.45,-275.6"/>
<polygon fill="midnightblue" stroke="midnightblue" points="244.92,-276.12 243.72,-265.59 238.09,-274.57 244.92,-276.12"/>
</g>
<!-- Node3 -->
<g id="node3" class="node">
<title>Node3</title>
<g id="a_node3"><a xlink:href="job_8hpp.html" target="_top" xlink:title=" ">
<polygon fill="none" stroke="black" points="112.18,-185 112.18,-204 205.18,-204 205.18,-185 112.18,-185"/>
<text text-anchor="middle" x="158.68" y="-192" font-family="Helvetica,sans-Serif" font-size="10.00">yaclib/exe/job.hpp</text>
</a>
</g>
</g>
<!-- Node1&#45;&gt;Node3 -->
<g id="edge18" class="edge">
<title>Node1&#45;&gt;Node3</title>
<path fill="none" stroke="midnightblue" d="M216.46,-358.25C208.22,-340.93 189.76,-300.94 177.68,-266 171.73,-248.79 166.47,-228.71 163.01,-214.39"/>
<polygon fill="midnightblue" stroke="midnightblue" points="166.33,-213.23 160.63,-204.3 159.52,-214.84 166.33,-213.23"/>
</g>
<!-- Node13 -->
<g id="node13" class="node">
<title>Node13</title>
<g id="a_node13"><a xlink:href="inline_8hpp.html" target="_top" xlink:title=" ">
<polygon fill="none" stroke="black" points="249.18,-302.5 249.18,-321.5 352.18,-321.5 352.18,-302.5 249.18,-302.5"/>
<text text-anchor="middle" x="300.68" y="-309.5" font-family="Helvetica,sans-Serif" font-size="10.00">yaclib/exe/inline.hpp</text>
</a>
</g>
</g>
<!-- Node1&#45;&gt;Node13 -->
<g id="edge15" class="edge">
<title>Node1&#45;&gt;Node13</title>
<path fill="none" stroke="midnightblue" d="M233.53,-358.32C245.89,-349.98 264.81,-337.21 279.41,-327.35"/>
<polygon fill="midnightblue" stroke="midnightblue" points="281.53,-330.15 287.86,-321.65 277.61,-324.35 281.53,-330.15"/>
</g>
<!-- Node2&#45;&gt;Node3 -->
<g id="edge2" class="edge">
<title>Node2&#45;&gt;Node3</title>
<path fill="none" stroke="midnightblue" d="M233.21,-246.48C219.26,-236.93 196.41,-221.31 179.69,-209.87"/>
<polygon fill="midnightblue" stroke="midnightblue" points="181.35,-206.77 171.12,-204.01 177.4,-212.54 181.35,-206.77"/>
</g>
<!-- Node11 -->
<g id="node11" class="node">
<title>Node11</title>
<g id="a_node11"><a xlink:href="intrusive__ptr_8hpp.html" target="_top" xlink:title=" ">
<polygon fill="none" stroke="black" points="225.18,-179.5 225.18,-209.5 322.18,-209.5 322.18,-179.5 225.18,-179.5"/>
<text text-anchor="start" x="233.18" y="-197.5" font-family="Helvetica,sans-Serif" font-size="10.00">yaclib/util/intrusive</text>
<text text-anchor="middle" x="273.68" y="-186.5" font-family="Helvetica,sans-Serif" font-size="10.00">_ptr.hpp</text>
</a>
</g>
</g>
<!-- Node2&#45;&gt;Node11 -->
<g id="edge10" class="edge">
<title>Node2&#45;&gt;Node11</title>
<path fill="none" stroke="midnightblue" d="M249.69,-246.48C253.09,-239.25 258.14,-228.53 262.72,-218.78"/>
<polygon fill="midnightblue" stroke="midnightblue" points="265.99,-220.06 267.08,-209.52 259.65,-217.08 265.99,-220.06"/>
</g>
<!-- Node4 -->
<g id="node4" class="node">
<title>Node4</title>
<g id="a_node4"><a xlink:href="log_8hpp.html" target="_top" xlink:title=" ">
<polygon fill="none" stroke="black" points="37.18,-56.5 37.18,-75.5 112.18,-75.5 112.18,-56.5 37.18,-56.5"/>
<text text-anchor="middle" x="74.68" y="-63.5" font-family="Helvetica,sans-Serif" font-size="10.00">yaclib/log.hpp</text>
</a>
</g>
</g>
<!-- Node3&#45;&gt;Node4 -->
<g id="edge3" class="edge">
<title>Node3&#45;&gt;Node4</title>
<path fill="none" stroke="midnightblue" d="M111.82,-191.91C76.32,-187.95 29.69,-176.21 5.68,-143 -2.4,-131.83 -0.89,-124.11 5.68,-112 13.43,-97.7 27.91,-87.22 41.62,-79.99"/>
<polygon fill="midnightblue" stroke="midnightblue" points="43.41,-83.01 50.89,-75.5 40.36,-76.71 43.41,-83.01"/>
</g>
<!-- Node6 -->
<g id="node6" class="node">
<title>Node6</title>
<g id="a_node6"><a xlink:href="node_8hpp.html" target="_top" xlink:title=" ">
<polygon fill="none" stroke="black" points="15.18,-112.5 15.18,-142.5 98.18,-142.5 98.18,-112.5 15.18,-112.5"/>
<text text-anchor="start" x="23.18" y="-130.5" font-family="Helvetica,sans-Serif" font-size="10.00">yaclib/util/detail</text>
<text text-anchor="middle" x="56.68" y="-119.5" font-family="Helvetica,sans-Serif" font-size="10.00">/node.hpp</text>
</a>
</g>
</g>
<!-- Node3&#45;&gt;Node6 -->
<g id="edge5" class="edge">
<title>Node3&#45;&gt;Node6</title>
<path fill="none" stroke="midnightblue" d="M144.92,-184.73C130.21,-175.36 106.4,-160.19 87.22,-147.97"/>
<polygon fill="midnightblue" stroke="midnightblue" points="89.1,-145.01 78.79,-142.59 85.34,-150.91 89.1,-145.01"/>
</g>
<!-- Node7 -->
<g id="node7" class="node">
<title>Node7</title>
<g id="a_node7"><a xlink:href="func_8hpp.html" target="_top" xlink:title=" ">
<polygon fill="none" stroke="black" points="249.18,-118 249.18,-137 346.18,-137 346.18,-118 249.18,-118"/>
<text text-anchor="middle" x="297.68" y="-125" font-family="Helvetica,sans-Serif" font-size="10.00">yaclib/util/func.hpp</text>
</a>
</g>
</g>
<!-- Node3&#45;&gt;Node7 -->
<g id="edge6" class="edge">
<title>Node3&#45;&gt;Node7</title>
<path fill="none" stroke="midnightblue" d="M177.13,-184.87C200.92,-173.75 242.47,-154.32 270.03,-141.43"/>
<polygon fill="midnightblue" stroke="midnightblue" points="271.57,-144.57 279.14,-137.17 268.6,-138.23 271.57,-144.57"/>
</g>
<!-- Node5 -->
<g id="node5" class="node">
<title>Node5</title>
<g id="a_node5"><a xlink:title=" ">
<polygon fill="none" stroke="#bfbfbf" points="41.68,-0.5 41.68,-19.5 107.68,-19.5 107.68,-0.5 41.68,-0.5"/>
<text text-anchor="middle" x="74.68" y="-7.5" font-family="Helvetica,sans-Serif" font-size="10.00">string_view</text>
</a>
</g>
</g>
<!-- Node4&#45;&gt;Node5 -->
<g id="edge4" class="edge">
<title>Node4&#45;&gt;Node5</title>
<path fill="none" stroke="midnightblue" d="M74.68,-56.08C74.68,-49.01 74.68,-38.86 74.68,-29.99"/>
<polygon fill="midnightblue" stroke="midnightblue" points="78.18,-29.75 74.68,-19.75 71.18,-29.75 78.18,-29.75"/>
</g>
<!-- Node8 -->
<g id="node8" class="node">
<title>Node8</title>
<g id="a_node8"><a xlink:href="ref_8hpp.html" target="_top" xlink:title=" ">
<polygon fill="none" stroke="black" points="275.18,-56.5 275.18,-75.5 364.18,-75.5 364.18,-56.5 275.18,-56.5"/>
<text text-anchor="middle" x="319.68" y="-63.5" font-family="Helvetica,sans-Serif" font-size="10.00">yaclib/util/ref.hpp</text>
</a>
</g>
</g>
<!-- Node7&#45;&gt;Node8 -->
<g id="edge7" class="edge">
<title>Node7&#45;&gt;Node8</title>
<path fill="none" stroke="midnightblue" d="M300.83,-117.98C304,-109.4 308.98,-95.93 313.03,-84.98"/>
<polygon fill="midnightblue" stroke="midnightblue" points="316.35,-86.1 316.53,-75.51 309.78,-83.67 316.35,-86.1"/>
</g>
<!-- Node9 -->
<g id="node9" class="node">
<title>Node9</title>
<g id="a_node9"><a xlink:title=" ">
<polygon fill="none" stroke="#bfbfbf" points="381.68,-56.5 381.68,-75.5 443.68,-75.5 443.68,-56.5 381.68,-56.5"/>
<text text-anchor="middle" x="412.68" y="-63.5" font-family="Helvetica,sans-Serif" font-size="10.00">type_traits</text>
</a>
</g>
</g>
<!-- Node7&#45;&gt;Node9 -->
<g id="edge8" class="edge">
<title>Node7&#45;&gt;Node9</title>
<path fill="none" stroke="midnightblue" d="M314.15,-117.98C333.28,-108.08 365.05,-91.64 387.33,-80.12"/>
<polygon fill="midnightblue" stroke="midnightblue" points="388.96,-83.21 396.23,-75.51 385.74,-77 388.96,-83.21"/>
</g>
<!-- Node10 -->
<g id="node10" class="node">
<title>Node10</title>
<g id="a_node10"><a xlink:title=" ">
<polygon fill="none" stroke="#bfbfbf" points="218.18,-56.5 218.18,-75.5 257.18,-75.5 257.18,-56.5 218.18,-56.5"/>
<text text-anchor="middle" x="237.68" y="-63.5" font-family="Helvetica,sans-Serif" font-size="10.00">utility</text>
</a>
</g>
</g>
<!-- Node7&#45;&gt;Node10 -->
<g id="edge9" class="edge">
<title>Node7&#45;&gt;Node10</title>
<path fill="none" stroke="midnightblue" d="M289.08,-117.98C279.81,-108.78 264.86,-93.96 253.46,-82.66"/>
<polygon fill="midnightblue" stroke="midnightblue" points="255.82,-80.07 246.26,-75.51 250.89,-85.04 255.82,-80.07"/>
</g>
<!-- Node11&#45;&gt;Node8 -->
<g id="edge11" class="edge">
<title>Node11&#45;&gt;Node8</title>
<path fill="none" stroke="midnightblue" d="M312.8,-179.48C329.1,-171.47 346.38,-159.64 355.68,-143 366.95,-122.81 350.5,-98.51 336.31,-82.92"/>
<polygon fill="midnightblue" stroke="midnightblue" points="338.72,-80.38 329.25,-75.62 333.69,-85.24 338.72,-80.38"/>
</g>
<!-- Node11&#45;&gt;Node9 -->
<g id="edge12" class="edge">
<title>Node11&#45;&gt;Node9</title>
<path fill="none" stroke="midnightblue" d="M312.91,-179.36C332.04,-171 354.37,-158.91 370.68,-143 387.5,-126.59 399.4,-101.99 406.15,-85.26"/>
<polygon fill="midnightblue" stroke="midnightblue" points="409.55,-86.15 409.83,-75.56 403.01,-83.67 409.55,-86.15"/>
</g>
<!-- Node12 -->
<g id="node12" class="node">
<title>Node12</title>
<g id="a_node12"><a xlink:href="intrusive__ptr__impl_8hpp.html" target="_top" xlink:title=" ">
<polygon fill="none" stroke="black" points="116.68,-112.5 116.68,-142.5 230.68,-142.5 230.68,-112.5 116.68,-112.5"/>
<text text-anchor="start" x="124.68" y="-130.5" font-family="Helvetica,sans-Serif" font-size="10.00">yaclib/util/detail</text>
<text text-anchor="middle" x="173.68" y="-119.5" font-family="Helvetica,sans-Serif" font-size="10.00">/intrusive_ptr_impl.hpp</text>
</a>
</g>
</g>
<!-- Node11&#45;&gt;Node12 -->
<g id="edge13" class="edge">
<title>Node11&#45;&gt;Node12</title>
<path fill="none" stroke="midnightblue" d="M251.98,-179.4C237.96,-170.28 219.51,-158.29 204.04,-148.24"/>
<polygon fill="midnightblue" stroke="midnightblue" points="205.62,-145.09 195.33,-142.58 201.81,-150.96 205.62,-145.09"/>
</g>
<!-- Node12&#45;&gt;Node4 -->
<g id="edge14" class="edge">
<title>Node12&#45;&gt;Node4</title>
<path fill="none" stroke="midnightblue" d="M150.22,-112.4C134.35,-102.86 113.49,-90.32 97.71,-80.84"/>
<polygon fill="midnightblue" stroke="midnightblue" points="99.46,-77.81 89.08,-75.66 95.85,-83.81 99.46,-77.81"/>
</g>
<!-- Node13&#45;&gt;Node2 -->
<g id="edge16" class="edge">
<title>Node13&#45;&gt;Node2</title>
<path fill="none" stroke="midnightblue" d="M291.59,-302.08C283.51,-294.14 271.48,-282.34 261.77,-272.8"/>
<polygon fill="midnightblue" stroke="midnightblue" points="264.18,-270.26 254.59,-265.75 259.27,-275.25 264.18,-270.26"/>
</g>
<!-- Node14 -->
<g id="node14" class="node">
<title>Node14</title>
<g id="a_node14"><a xlink:href="fwd_8hpp.html" target="_top" xlink:title=" ">
<polygon fill="none" stroke="black" points="322.68,-246.5 322.68,-265.5 400.68,-265.5 400.68,-246.5 322.68,-246.5"/>
<text text-anchor="middle" x="361.68" y="-253.5" font-family="Helvetica,sans-Serif" font-size="10.00">yaclib/fwd.hpp</text>
</a>
</g>
</g>
<!-- Node13&#45;&gt;Node14 -->
<g id="edge17" class="edge">
<title>Node13&#45;&gt;Node14</title>
<path fill="none" stroke="midnightblue" d="M310.48,-302.32C319.49,-294.34 333.08,-282.31 343.99,-272.65"/>
<polygon fill="midnightblue" stroke="midnightblue" points="346.53,-275.08 351.7,-265.83 341.89,-269.84 346.53,-275.08"/>
</g>
</g>
</svg>
