<?xml version="1.0" encoding="UTF-8" standalone="no"?>
<!DOCTYPE svg PUBLIC "-//W3C//DTD SVG 1.1//EN"
 "http://www.w3.org/Graphics/SVG/1.1/DTD/svg11.dtd">
<!-- Generated by graphviz version 3.0.0 (20220413.0242)
 -->
<!-- Title: src/executor/inline.cpp Pages: 1 -->
<svg width="474pt" height="453pt"
 viewBox="0.00 0.00 473.50 453.00" xmlns="http://www.w3.org/2000/svg" xmlns:xlink="http://www.w3.org/1999/xlink">
<g id="graph0" class="graph" transform="scale(1 1) rotate(0) translate(4 449)">
<title>src/executor/inline.cpp</title>
<!-- Node1 -->
<g id="node1" class="node">
<title>Node1</title>
<g id="a_node1"><a xlink:title=" ">
<polygon fill="#bfbfbf" stroke="black" points="186,-425.5 186,-444.5 299,-444.5 299,-425.5 186,-425.5"/>
<text text-anchor="middle" x="242.5" y="-432.5" font-family="Helvetica,sans-Serif" font-size="10.00">src/executor/inline.cpp</text>
</a>
</g>
</g>
<!-- Node2 -->
<g id="node2" class="node">
<title>Node2</title>
<g id="a_node2"><a xlink:href="executor_8hpp.html" target="_top" xlink:title=" ">
<polygon fill="none" stroke="black" points="193,-302.5 193,-321.5 332,-321.5 332,-302.5 193,-302.5"/>
<text text-anchor="middle" x="262.5" y="-309.5" font-family="Helvetica,sans-Serif" font-size="10.00">yaclib/executor/executor.hpp</text>
</a>
</g>
</g>
<!-- Node1&#45;&gt;Node2 -->
<g id="edge1" class="edge">
<title>Node1&#45;&gt;Node2</title>
<path fill="none" stroke="midnightblue" d="M235.48,-425.42C224.72,-411.19 206.44,-381.91 216.5,-358 221.53,-346.05 231.44,-335.69 240.79,-327.93"/>
<polygon fill="midnightblue" stroke="midnightblue" points="242.94,-330.69 248.71,-321.81 238.66,-325.15 242.94,-330.69"/>
</g>
<!-- Node3 -->
<g id="node3" class="node">
<title>Node3</title>
<g id="a_node3"><a xlink:href="job_8hpp.html" target="_top" xlink:title=" ">
<polygon fill="none" stroke="black" points="102,-246.5 102,-265.5 217,-265.5 217,-246.5 102,-246.5"/>
<text text-anchor="middle" x="159.5" y="-253.5" font-family="Helvetica,sans-Serif" font-size="10.00">yaclib/executor/job.hpp</text>
</a>
</g>
</g>
<!-- Node1&#45;&gt;Node3 -->
<g id="edge16" class="edge">
<title>Node1&#45;&gt;Node3</title>
<path fill="none" stroke="midnightblue" d="M235.48,-425.44C228.52,-416.67 217.86,-402.46 210.5,-389 189.45,-350.53 172.96,-301.53 164.91,-275.39"/>
<polygon fill="midnightblue" stroke="midnightblue" points="168.22,-274.25 161.98,-265.68 161.51,-276.27 168.22,-274.25"/>
</g>
<!-- Node13 -->
<g id="node13" class="node">
<title>Node13</title>
<g id="a_node13"><a xlink:href="inline_8hpp.html" target="_top" xlink:title=" ">
<polygon fill="none" stroke="black" points="226,-364 226,-383 351,-383 351,-364 226,-364"/>
<text text-anchor="middle" x="288.5" y="-371" font-family="Helvetica,sans-Serif" font-size="10.00">yaclib/executor/inline.hpp</text>
</a>
</g>
</g>
<!-- Node1&#45;&gt;Node13 -->
<g id="edge14" class="edge">
<title>Node1&#45;&gt;Node13</title>
<path fill="none" stroke="midnightblue" d="M249.09,-425.48C255.99,-416.55 267,-402.31 275.63,-391.14"/>
<polygon fill="midnightblue" stroke="midnightblue" points="278.57,-393.06 281.92,-383.01 273.04,-388.78 278.57,-393.06"/>
</g>
<!-- Node14 -->
<g id="node14" class="node">
<title>Node14</title>
<g id="a_node14"><a xlink:href="nope__counter_8hpp.html" target="_top" xlink:title=" ">
<polygon fill="none" stroke="black" points="369.5,-358.5 369.5,-388.5 465.5,-388.5 465.5,-358.5 369.5,-358.5"/>
<text text-anchor="start" x="377.5" y="-376.5" font-family="Helvetica,sans-Serif" font-size="10.00">yaclib/util/detail</text>
<text text-anchor="middle" x="417.5" y="-365.5" font-family="Helvetica,sans-Serif" font-size="10.00">/nope_counter.hpp</text>
</a>
</g>
</g>
<!-- Node1&#45;&gt;Node14 -->
<g id="edge17" class="edge">
<title>Node1&#45;&gt;Node14</title>
<path fill="none" stroke="midnightblue" d="M267.57,-425.48C293.27,-416.74 333.95,-402.91 366.46,-391.86"/>
<polygon fill="midnightblue" stroke="midnightblue" points="367.91,-395.06 376.26,-388.52 365.66,-388.43 367.91,-395.06"/>
</g>
<!-- Node2&#45;&gt;Node3 -->
<g id="edge2" class="edge">
<title>Node2&#45;&gt;Node3</title>
<path fill="none" stroke="midnightblue" d="M245.95,-302.32C229.51,-293.7 204.07,-280.36 185.03,-270.39"/>
<polygon fill="midnightblue" stroke="midnightblue" points="186.49,-267.2 176.01,-265.65 183.24,-273.4 186.49,-267.2"/>
</g>
<!-- Node9 -->
<g id="node9" class="node">
<title>Node9</title>
<g id="a_node9"><a xlink:href="intrusive__ptr_8hpp.html" target="_top" xlink:title=" ">
<polygon fill="none" stroke="black" points="219,-179.5 219,-209.5 316,-209.5 316,-179.5 219,-179.5"/>
<text text-anchor="start" x="227" y="-197.5" font-family="Helvetica,sans-Serif" font-size="10.00">yaclib/util/intrusive</text>
<text text-anchor="middle" x="267.5" y="-186.5" font-family="Helvetica,sans-Serif" font-size="10.00">_ptr.hpp</text>
</a>
</g>
</g>
<!-- Node2&#45;&gt;Node9 -->
<g id="edge8" class="edge">
<title>Node2&#45;&gt;Node9</title>
<path fill="none" stroke="midnightblue" d="M262.88,-302.32C263.63,-284.97 265.34,-245.46 266.45,-219.66"/>
<polygon fill="midnightblue" stroke="midnightblue" points="269.96,-219.69 266.89,-209.55 262.96,-219.38 269.96,-219.69"/>
</g>
<!-- Node4 -->
<g id="node4" class="node">
<title>Node4</title>
<g id="a_node4"><a xlink:href="node_8hpp.html" target="_top" xlink:title=" ">
<polygon fill="none" stroke="black" points="118,-179.5 118,-209.5 201,-209.5 201,-179.5 118,-179.5"/>
<text text-anchor="start" x="126" y="-197.5" font-family="Helvetica,sans-Serif" font-size="10.00">yaclib/util/detail</text>
<text text-anchor="middle" x="159.5" y="-186.5" font-family="Helvetica,sans-Serif" font-size="10.00">/node.hpp</text>
</a>
</g>
</g>
<!-- Node3&#45;&gt;Node4 -->
<g id="edge3" class="edge">
<title>Node3&#45;&gt;Node4</title>
<path fill="none" stroke="midnightblue" d="M159.5,-246.48C159.5,-239.47 159.5,-229.19 159.5,-219.7"/>
<polygon fill="midnightblue" stroke="midnightblue" points="163,-219.52 159.5,-209.52 156,-219.52 163,-219.52"/>
</g>
<!-- Node5 -->
<g id="node5" class="node">
<title>Node5</title>
<g id="a_node5"><a xlink:href="func_8hpp.html" target="_top" xlink:title=" ">
<polygon fill="none" stroke="black" points="3,-185 3,-204 100,-204 100,-185 3,-185"/>
<text text-anchor="middle" x="51.5" y="-192" font-family="Helvetica,sans-Serif" font-size="10.00">yaclib/util/func.hpp</text>
</a>
</g>
</g>
<!-- Node3&#45;&gt;Node5 -->
<g id="edge4" class="edge">
<title>Node3&#45;&gt;Node5</title>
<path fill="none" stroke="midnightblue" d="M144.03,-246.48C126.22,-236.67 96.76,-220.43 75.87,-208.92"/>
<polygon fill="midnightblue" stroke="midnightblue" points="77.39,-205.77 66.95,-204.01 74.01,-211.9 77.39,-205.77"/>
</g>
<!-- Node6 -->
<g id="node6" class="node">
<title>Node6</title>
<g id="a_node6"><a xlink:href="ref_8hpp.html" target="_top" xlink:title=" ">
<polygon fill="none" stroke="black" points="57,-118 57,-137 146,-137 146,-118 57,-118"/>
<text text-anchor="middle" x="101.5" y="-125" font-family="Helvetica,sans-Serif" font-size="10.00">yaclib/util/ref.hpp</text>
</a>
</g>
</g>
<!-- Node5&#45;&gt;Node6 -->
<g id="edge5" class="edge">
<title>Node5&#45;&gt;Node6</title>
<path fill="none" stroke="midnightblue" d="M58.24,-184.73C66.04,-174.6 79.05,-157.69 88.76,-145.06"/>
<polygon fill="midnightblue" stroke="midnightblue" points="91.54,-147.19 94.86,-137.13 85.99,-142.92 91.54,-147.19"/>
</g>
<!-- Node7 -->
<g id="node7" class="node">
<title>Node7</title>
<g id="a_node7"><a xlink:title=" ">
<polygon fill="none" stroke="#bfbfbf" points="163.5,-118 163.5,-137 225.5,-137 225.5,-118 163.5,-118"/>
<text text-anchor="middle" x="194.5" y="-125" font-family="Helvetica,sans-Serif" font-size="10.00">type_traits</text>
</a>
</g>
</g>
<!-- Node5&#45;&gt;Node7 -->
<g id="edge6" class="edge">
<title>Node5&#45;&gt;Node7</title>
<path fill="none" stroke="midnightblue" d="M70.49,-184.87C94.96,-173.75 137.7,-154.32 166.06,-141.43"/>
<polygon fill="midnightblue" stroke="midnightblue" points="167.78,-144.49 175.43,-137.17 164.88,-138.12 167.78,-144.49"/>
</g>
<!-- Node8 -->
<g id="node8" class="node">
<title>Node8</title>
<g id="a_node8"><a xlink:title=" ">
<polygon fill="none" stroke="#bfbfbf" points="0,-118 0,-137 39,-137 39,-118 0,-118"/>
<text text-anchor="middle" x="19.5" y="-125" font-family="Helvetica,sans-Serif" font-size="10.00">utility</text>
</a>
</g>
</g>
<!-- Node5&#45;&gt;Node8 -->
<g id="edge7" class="edge">
<title>Node5&#45;&gt;Node8</title>
<path fill="none" stroke="midnightblue" d="M47.18,-184.73C42.34,-174.89 34.35,-158.66 28.19,-146.16"/>
<polygon fill="midnightblue" stroke="midnightblue" points="31.3,-144.55 23.75,-137.13 25.02,-147.64 31.3,-144.55"/>
</g>
<!-- Node9&#45;&gt;Node6 -->
<g id="edge9" class="edge">
<title>Node9&#45;&gt;Node6</title>
<path fill="none" stroke="midnightblue" d="M231.48,-179.4C201.97,-167.84 160.64,-151.66 132.56,-140.66"/>
<polygon fill="midnightblue" stroke="midnightblue" points="133.81,-137.39 123.23,-137.01 131.26,-143.91 133.81,-137.39"/>
</g>
<!-- Node9&#45;&gt;Node7 -->
<g id="edge10" class="edge">
<title>Node9&#45;&gt;Node7</title>
<path fill="none" stroke="midnightblue" d="M251.66,-179.4C239.94,-168.96 223.98,-154.75 211.91,-144"/>
<polygon fill="midnightblue" stroke="midnightblue" points="214.06,-141.23 204.26,-137.19 209.41,-146.46 214.06,-141.23"/>
</g>
<!-- Node10 -->
<g id="node10" class="node">
<title>Node10</title>
<g id="a_node10"><a xlink:href="intrusive__ptr__impl_8hpp.html" target="_top" xlink:title=" ">
<polygon fill="none" stroke="black" points="243.5,-112.5 243.5,-142.5 357.5,-142.5 357.5,-112.5 243.5,-112.5"/>
<text text-anchor="start" x="251.5" y="-130.5" font-family="Helvetica,sans-Serif" font-size="10.00">yaclib/util/detail</text>
<text text-anchor="middle" x="300.5" y="-119.5" font-family="Helvetica,sans-Serif" font-size="10.00">/intrusive_ptr_impl.hpp</text>
</a>
</g>
</g>
<!-- Node9&#45;&gt;Node10 -->
<g id="edge11" class="edge">
<title>Node9&#45;&gt;Node10</title>
<path fill="none" stroke="midnightblue" d="M274.66,-179.4C278.77,-171.3 284.03,-160.94 288.73,-151.69"/>
<polygon fill="midnightblue" stroke="midnightblue" points="291.95,-153.08 293.35,-142.58 285.71,-149.91 291.95,-153.08"/>
</g>
<!-- Node11 -->
<g id="node11" class="node">
<title>Node11</title>
<g id="a_node11"><a xlink:href="log_8hpp.html" target="_top" xlink:title=" ">
<polygon fill="none" stroke="black" points="263,-56.5 263,-75.5 338,-75.5 338,-56.5 263,-56.5"/>
<text text-anchor="middle" x="300.5" y="-63.5" font-family="Helvetica,sans-Serif" font-size="10.00">yaclib/log.hpp</text>
</a>
</g>
</g>
<!-- Node10&#45;&gt;Node11 -->
<g id="edge12" class="edge">
<title>Node10&#45;&gt;Node11</title>
<path fill="none" stroke="midnightblue" d="M300.5,-112.4C300.5,-104.47 300.5,-94.46 300.5,-85.86"/>
<polygon fill="midnightblue" stroke="midnightblue" points="304,-85.66 300.5,-75.66 297,-85.66 304,-85.66"/>
</g>
<!-- Node12 -->
<g id="node12" class="node">
<title>Node12</title>
<g id="a_node12"><a xlink:title=" ">
<polygon fill="none" stroke="#bfbfbf" points="267.5,-0.5 267.5,-19.5 333.5,-19.5 333.5,-0.5 267.5,-0.5"/>
<text text-anchor="middle" x="300.5" y="-7.5" font-family="Helvetica,sans-Serif" font-size="10.00">string_view</text>
</a>
</g>
</g>
<!-- Node11&#45;&gt;Node12 -->
<g id="edge13" class="edge">
<title>Node11&#45;&gt;Node12</title>
<path fill="none" stroke="midnightblue" d="M300.5,-56.08C300.5,-49.01 300.5,-38.86 300.5,-29.99"/>
<polygon fill="midnightblue" stroke="midnightblue" points="304,-29.75 300.5,-19.75 297,-29.75 304,-29.75"/>
</g>
<!-- Node13&#45;&gt;Node2 -->
<g id="edge15" class="edge">
<title>Node13&#45;&gt;Node2</title>
<path fill="none" stroke="midnightblue" d="M284.77,-363.98C281.03,-355.4 275.14,-341.93 270.36,-330.98"/>
<polygon fill="midnightblue" stroke="midnightblue" points="273.43,-329.27 266.22,-321.51 267.02,-332.07 273.43,-329.27"/>
</g>
</g>
</svg>
