<?xml version="1.0" encoding="UTF-8" standalone="no"?>
<!DOCTYPE svg PUBLIC "-//W3C//DTD SVG 1.1//EN"
 "http://www.w3.org/Graphics/SVG/1.1/DTD/svg11.dtd">
<!-- Generated by graphviz version 9.0.0 (20230911.1827)
 -->
<!-- Title: src/exe/inline.cpp Pages: 1 -->
<svg width="447pt" height="381pt"
 viewBox="0.00 0.00 447.06 381.25" xmlns="http://www.w3.org/2000/svg" xmlns:xlink="http://www.w3.org/1999/xlink">
<g id="graph0" class="graph" transform="scale(1 1) rotate(0) translate(4 377.25)">
<title>src/exe/inline.cpp</title>
<!-- Node1 -->
<g id="Node000001" class="node">
<title>Node1</title>
<g id="a_Node000001"><a xlink:title=" ">
<polygon fill="#999999" stroke="#666666" points="264.06,-373.25 173.06,-373.25 173.06,-354 264.06,-354 264.06,-373.25"/>
<text text-anchor="middle" x="218.56" y="-359.75" font-family="Helvetica,sans-Serif" font-size="10.00">src/exe/inline.cpp</text>
</a>
</g>
</g>
<!-- Node2 -->
<g id="Node000002" class="node">
<title>Node2</title>
<g id="a_Node000002"><a xlink:href="executor_8hpp.html" target="_top" xlink:title=" ">
<polygon fill="white" stroke="#666666" points="300.81,-262.75 184.31,-262.75 184.31,-243.5 300.81,-243.5 300.81,-262.75"/>
<text text-anchor="middle" x="242.56" y="-249.25" font-family="Helvetica,sans-Serif" font-size="10.00">yaclib/exe/executor.hpp</text>
</a>
</g>
</g>
<!-- Node1&#45;&gt;Node2 -->
<g id="edge1_Node000001_Node000002" class="edge">
<title>Node1&#45;&gt;Node2</title>
<g id="a_edge1_Node000001_Node000002"><a xlink:title=" ">
<path fill="none" stroke="#63b8ff" d="M220.53,-353.75C224.34,-336.5 232.84,-298.08 238.1,-274.31"/>
<polygon fill="#63b8ff" stroke="#63b8ff" points="241.5,-275.12 240.25,-264.6 234.67,-273.61 241.5,-275.12"/>
</a>
</g>
</g>
<!-- Node3 -->
<g id="Node000003" class="node">
<title>Node3</title>
<g id="a_Node000003"><a xlink:href="job_8hpp.html" target="_top" xlink:title=" ">
<polygon fill="white" stroke="#666666" points="202.81,-201.88 110.31,-201.88 110.31,-182.62 202.81,-182.62 202.81,-201.88"/>
<text text-anchor="middle" x="156.56" y="-188.38" font-family="Helvetica,sans-Serif" font-size="10.00">yaclib/exe/job.hpp</text>
</a>
</g>
</g>
<!-- Node1&#45;&gt;Node3 -->
<g id="edge18_Node000001_Node000003" class="edge">
<title>Node1&#45;&gt;Node3</title>
<g id="a_edge18_Node000001_Node000003"><a xlink:title=" ">
<path fill="none" stroke="#63b8ff" d="M214.22,-353.7C205.93,-336.44 187.6,-297.14 175.56,-262.75 169.81,-246.31 164.7,-227.2 161.23,-213.18"/>
<polygon fill="#63b8ff" stroke="#63b8ff" points="164.72,-212.75 158.98,-203.84 157.92,-214.38 164.72,-212.75"/>
</a>
</g>
</g>
<!-- Node13 -->
<g id="Node000013" class="node">
<title>Node13</title>
<g id="a_Node000013"><a xlink:href="inline_8hpp.html" target="_top" xlink:title=" ">
<polygon fill="white" stroke="#666666" points="348.69,-318 246.44,-318 246.44,-298.75 348.69,-298.75 348.69,-318"/>
<text text-anchor="middle" x="297.56" y="-304.5" font-family="Helvetica,sans-Serif" font-size="10.00">yaclib/exe/inline.hpp</text>
</a>
</g>
</g>
<!-- Node1&#45;&gt;Node13 -->
<g id="edge15_Node000001_Node000013" class="edge">
<title>Node1&#45;&gt;Node13</title>
<g id="a_edge15_Node000001_Node000013"><a xlink:title=" ">
<path fill="none" stroke="#63b8ff" d="M231.97,-353.59C243.66,-345.71 260.86,-334.11 274.72,-324.77"/>
<polygon fill="#63b8ff" stroke="#63b8ff" points="276.51,-327.79 282.84,-319.3 272.59,-321.99 276.51,-327.79"/>
</a>
</g>
</g>
<!-- Node2&#45;&gt;Node3 -->
<g id="edge2_Node000002_Node000003" class="edge">
<title>Node2&#45;&gt;Node3</title>
<g id="a_edge2_Node000002_Node000003"><a xlink:title=" ">
<path fill="none" stroke="#63b8ff" d="M229.5,-243.18C216.12,-234.02 195.05,-219.59 178.99,-208.6"/>
<polygon fill="#63b8ff" stroke="#63b8ff" points="181.23,-205.89 171,-203.13 177.27,-211.67 181.23,-205.89"/>
</a>
</g>
</g>
<!-- Node11 -->
<g id="Node000011" class="node">
<title>Node11</title>
<g id="a_Node000011"><a xlink:href="intrusive__ptr_8hpp.html" target="_top" xlink:title=" ">
<polygon fill="white" stroke="#666666" points="318.69,-207.5 222.44,-207.5 222.44,-177 318.69,-177 318.69,-207.5"/>
<text text-anchor="start" x="230.44" y="-194" font-family="Helvetica,sans-Serif" font-size="10.00">yaclib/util/intrusive</text>
<text text-anchor="middle" x="270.56" y="-182.75" font-family="Helvetica,sans-Serif" font-size="10.00">_ptr.hpp</text>
</a>
</g>
</g>
<!-- Node2&#45;&gt;Node11 -->
<g id="edge10_Node000002_Node000011" class="edge">
<title>Node2&#45;&gt;Node11</title>
<g id="a_edge10_Node000002_Node000011"><a xlink:title=" ">
<path fill="none" stroke="#63b8ff" d="M246.82,-243.18C249.99,-236.51 254.5,-227.03 258.73,-218.13"/>
<polygon fill="#63b8ff" stroke="#63b8ff" points="261.87,-219.68 263,-209.15 255.55,-216.68 261.87,-219.68"/>
</a>
</g>
</g>
<!-- Node4 -->
<g id="Node000004" class="node">
<title>Node4</title>
<g id="a_Node000004"><a xlink:href="log_8hpp.html" target="_top" xlink:title=" ">
<polygon fill="white" stroke="#666666" points="109.81,-74.5 35.31,-74.5 35.31,-55.25 109.81,-55.25 109.81,-74.5"/>
<text text-anchor="middle" x="72.56" y="-61" font-family="Helvetica,sans-Serif" font-size="10.00">yaclib/log.hpp</text>
</a>
</g>
</g>
<!-- Node3&#45;&gt;Node4 -->
<g id="edge3_Node000003_Node000004" class="edge">
<title>Node3&#45;&gt;Node4</title>
<g id="a_edge3_Node000003_Node000004"><a xlink:title=" ">
<path fill="none" stroke="#63b8ff" d="M109.95,-189.51C74.95,-185.46 29.16,-173.72 5.56,-141 -2.36,-130.01 -0.83,-122.45 5.56,-110.5 12.7,-97.18 25.75,-87.15 38.46,-80.01"/>
<polygon fill="#63b8ff" stroke="#63b8ff" points="39.8,-83.26 47.1,-75.59 36.61,-77.03 39.8,-83.26"/>
</a>
</g>
</g>
<!-- Node6 -->
<g id="Node000006" class="node">
<title>Node6</title>
<g id="a_Node000006"><a xlink:href="node_8hpp.html" target="_top" xlink:title=" ">
<polygon fill="white" stroke="#666666" points="96.94,-141 14.19,-141 14.19,-110.5 96.94,-110.5 96.94,-141"/>
<text text-anchor="start" x="22.19" y="-127.5" font-family="Helvetica,sans-Serif" font-size="10.00">yaclib/util/detail</text>
<text text-anchor="middle" x="55.56" y="-116.25" font-family="Helvetica,sans-Serif" font-size="10.00">/node.hpp</text>
</a>
</g>
</g>
<!-- Node3&#45;&gt;Node6 -->
<g id="edge5_Node000003_Node000006" class="edge">
<title>Node3&#45;&gt;Node6</title>
<g id="a_edge5_Node000003_Node000006"><a xlink:title=" ">
<path fill="none" stroke="#63b8ff" d="M142.52,-182.28C128.46,-173.3 106.33,-159.17 87.91,-147.41"/>
<polygon fill="#63b8ff" stroke="#63b8ff" points="90,-144.59 79.69,-142.16 86.23,-150.49 90,-144.59"/>
</a>
</g>
</g>
<!-- Node7 -->
<g id="Node000007" class="node">
<title>Node7</title>
<g id="a_Node000007"><a xlink:href="func_8hpp.html" target="_top" xlink:title=" ">
<polygon fill="white" stroke="#666666" points="342.69,-135.38 246.44,-135.38 246.44,-116.12 342.69,-116.12 342.69,-135.38"/>
<text text-anchor="middle" x="294.56" y="-121.88" font-family="Helvetica,sans-Serif" font-size="10.00">yaclib/util/func.hpp</text>
</a>
</g>
</g>
<!-- Node3&#45;&gt;Node7 -->
<g id="edge6_Node000003_Node000007" class="edge">
<title>Node3&#45;&gt;Node7</title>
<g id="a_edge6_Node000003_Node000007"><a xlink:title=" ">
<path fill="none" stroke="#63b8ff" d="M176.04,-182.15C199.16,-171.34 237.95,-153.21 264.83,-140.65"/>
<polygon fill="#63b8ff" stroke="#63b8ff" points="266.24,-143.85 273.81,-136.45 263.27,-137.51 266.24,-143.85"/>
</a>
</g>
</g>
<!-- Node5 -->
<g id="Node000005" class="node">
<title>Node5</title>
<g id="a_Node000005"><a xlink:title=" ">
<polygon fill="#e0e0e0" stroke="#999999" points="105.31,-19.25 39.81,-19.25 39.81,0 105.31,0 105.31,-19.25"/>
<text text-anchor="middle" x="72.56" y="-5.75" font-family="Helvetica,sans-Serif" font-size="10.00">string_view</text>
</a>
</g>
</g>
<!-- Node4&#45;&gt;Node5 -->
<g id="edge4_Node000004_Node000005" class="edge">
<title>Node4&#45;&gt;Node5</title>
<g id="a_edge4_Node000004_Node000005"><a xlink:title=" ">
<path fill="none" stroke="#63b8ff" d="M72.56,-55.08C72.56,-48.57 72.56,-39.42 72.56,-31.12"/>
<polygon fill="#63b8ff" stroke="#63b8ff" points="76.06,-31.12 72.56,-21.12 69.06,-31.12 76.06,-31.12"/>
</a>
</g>
</g>
<!-- Node8 -->
<g id="Node000008" class="node">
<title>Node8</title>
<g id="a_Node000008"><a xlink:href="ref_8hpp.html" target="_top" xlink:title=" ">
<polygon fill="white" stroke="#666666" points="359.94,-74.5 271.19,-74.5 271.19,-55.25 359.94,-55.25 359.94,-74.5"/>
<text text-anchor="middle" x="315.56" y="-61" font-family="Helvetica,sans-Serif" font-size="10.00">yaclib/util/ref.hpp</text>
</a>
</g>
</g>
<!-- Node7&#45;&gt;Node8 -->
<g id="edge7_Node000007_Node000008" class="edge">
<title>Node7&#45;&gt;Node8</title>
<g id="a_edge7_Node000007_Node000008"><a xlink:title=" ">
<path fill="none" stroke="#63b8ff" d="M297.75,-115.81C300.59,-107.85 304.84,-95.94 308.48,-85.74"/>
<polygon fill="#63b8ff" stroke="#63b8ff" points="311.77,-86.92 311.84,-76.33 305.18,-84.57 311.77,-86.92"/>
</a>
</g>
</g>
<!-- Node9 -->
<g id="Node000009" class="node">
<title>Node9</title>
<g id="a_Node000009"><a xlink:title=" ">
<polygon fill="#e0e0e0" stroke="#999999" points="439.06,-74.5 378.06,-74.5 378.06,-55.25 439.06,-55.25 439.06,-74.5"/>
<text text-anchor="middle" x="408.56" y="-61" font-family="Helvetica,sans-Serif" font-size="10.00">type_traits</text>
</a>
</g>
</g>
<!-- Node7&#45;&gt;Node9 -->
<g id="edge8_Node000007_Node000009" class="edge">
<title>Node7&#45;&gt;Node9</title>
<g id="a_edge8_Node000007_Node000009"><a xlink:title=" ">
<path fill="none" stroke="#63b8ff" d="M311.88,-115.81C330.21,-106.34 359.41,-91.26 380.93,-80.15"/>
<polygon fill="#63b8ff" stroke="#63b8ff" points="382.46,-83.29 389.74,-75.6 379.25,-77.07 382.46,-83.29"/>
</a>
</g>
</g>
<!-- Node10 -->
<g id="Node000010" class="node">
<title>Node10</title>
<g id="a_Node000010"><a xlink:title=" ">
<polygon fill="#e0e0e0" stroke="#999999" points="252.81,-74.5 214.31,-74.5 214.31,-55.25 252.81,-55.25 252.81,-74.5"/>
<text text-anchor="middle" x="233.56" y="-61" font-family="Helvetica,sans-Serif" font-size="10.00">utility</text>
</a>
</g>
</g>
<!-- Node7&#45;&gt;Node10 -->
<g id="edge9_Node000007_Node000010" class="edge">
<title>Node7&#45;&gt;Node10</title>
<g id="a_edge9_Node000007_Node000010"><a xlink:title=" ">
<path fill="none" stroke="#63b8ff" d="M285.3,-115.81C276.25,-107.08 262.26,-93.57 251.1,-82.8"/>
<polygon fill="#63b8ff" stroke="#63b8ff" points="253.63,-80.38 244,-75.95 248.77,-85.42 253.63,-80.38"/>
</a>
</g>
</g>
<!-- Node11&#45;&gt;Node8 -->
<g id="edge11_Node000011_Node000008" class="edge">
<title>Node11&#45;&gt;Node8</title>
<g id="a_edge11_Node000011_Node000008"><a xlink:title=" ">
<path fill="none" stroke="#63b8ff" d="M310.49,-176.6C326.22,-168.63 342.63,-157.05 351.56,-141 362.38,-121.56 347.2,-98.36 333.36,-82.94"/>
<polygon fill="#63b8ff" stroke="#63b8ff" points="336.08,-80.71 326.63,-75.93 331.04,-85.57 336.08,-80.71"/>
</a>
</g>
</g>
<!-- Node11&#45;&gt;Node9 -->
<g id="edge12_Node000011_Node000009" class="edge">
<title>Node11&#45;&gt;Node9</title>
<g id="a_edge12_Node000011_Node000009"><a xlink:title=" ">
<path fill="none" stroke="#63b8ff" d="M310.31,-176.68C329.01,-168.36 350.65,-156.48 366.56,-141 382.77,-125.24 394.49,-101.87 401.36,-85.39"/>
<polygon fill="#63b8ff" stroke="#63b8ff" points="404.57,-86.81 404.96,-76.22 398.05,-84.26 404.57,-86.81"/>
</a>
</g>
</g>
<!-- Node12 -->
<g id="Node000012" class="node">
<title>Node12</title>
<g id="a_Node000012"><a xlink:href="intrusive__ptr__impl_8hpp.html" target="_top" xlink:title=" ">
<polygon fill="white" stroke="#666666" points="228.31,-141 114.81,-141 114.81,-110.5 228.31,-110.5 228.31,-141"/>
<text text-anchor="start" x="122.81" y="-127.5" font-family="Helvetica,sans-Serif" font-size="10.00">yaclib/util/detail</text>
<text text-anchor="middle" x="171.56" y="-116.25" font-family="Helvetica,sans-Serif" font-size="10.00">/intrusive_ptr_impl.hpp</text>
</a>
</g>
</g>
<!-- Node11&#45;&gt;Node12 -->
<g id="edge13_Node000011_Node000012" class="edge">
<title>Node11&#45;&gt;Node12</title>
<g id="a_edge13_Node000011_Node000012"><a xlink:title=" ">
<path fill="none" stroke="#63b8ff" d="M248.1,-176.61C234.94,-168.04 218.09,-157.06 203.56,-147.59"/>
<polygon fill="#63b8ff" stroke="#63b8ff" points="205.5,-144.68 195.21,-142.15 201.68,-150.55 205.5,-144.68"/>
</a>
</g>
</g>
<!-- Node12&#45;&gt;Node4 -->
<g id="edge14_Node000012_Node000004" class="edge">
<title>Node12&#45;&gt;Node4</title>
<g id="a_edge14_Node000012_Node000004"><a xlink:title=" ">
<path fill="none" stroke="#63b8ff" d="M146.84,-110.05C131.76,-101.08 112.55,-89.66 97.45,-80.67"/>
<polygon fill="#63b8ff" stroke="#63b8ff" points="99.43,-77.78 89.05,-75.68 95.85,-83.8 99.43,-77.78"/>
</a>
</g>
</g>
<!-- Node13&#45;&gt;Node2 -->
<g id="edge16_Node000013_Node000002" class="edge">
<title>Node13&#45;&gt;Node2</title>
<g id="a_edge16_Node000013_Node000002"><a xlink:title=" ">
<path fill="none" stroke="#63b8ff" d="M288.48,-298.58C280.73,-291.07 269.35,-280.06 259.87,-270.88"/>
<polygon fill="#63b8ff" stroke="#63b8ff" points="262.55,-268.6 252.93,-264.16 257.68,-273.63 262.55,-268.6"/>
</a>
</g>
</g>
<!-- Node14 -->
<g id="Node000014" class="node">
<title>Node14</title>
<g id="a_Node000014"><a xlink:href="fwd_8hpp.html" target="_top" xlink:title=" ">
<polygon fill="white" stroke="#666666" points="396.31,-262.75 318.81,-262.75 318.81,-243.5 396.31,-243.5 396.31,-262.75"/>
<text text-anchor="middle" x="357.56" y="-249.25" font-family="Helvetica,sans-Serif" font-size="10.00">yaclib/fwd.hpp</text>
</a>
</g>
</g>
<!-- Node13&#45;&gt;Node14 -->
<g id="edge17_Node000013_Node000014" class="edge">
<title>Node13&#45;&gt;Node14</title>
<g id="a_edge17_Node000013_Node000014"><a xlink:title=" ">
<path fill="none" stroke="#63b8ff" d="M307.74,-298.34C316.33,-290.72 328.83,-279.62 339.17,-270.45"/>
<polygon fill="#63b8ff" stroke="#63b8ff" points="341.25,-273.29 346.4,-264.03 336.6,-268.05 341.25,-273.29"/>
</a>
</g>
</g>
</g>
</svg>
