<?xml version="1.0" encoding="UTF-8" standalone="no"?>
<!DOCTYPE svg PUBLIC "-//W3C//DTD SVG 1.1//EN"
 "http://www.w3.org/Graphics/SVG/1.1/DTD/svg11.dtd">
<!-- Generated by graphviz version 9.0.0 (20230911.1827)
 -->
<!-- Title: src/exe/inline.cpp Pages: 1 -->
<svg width="426pt" height="437pt"
 viewBox="0.00 0.00 426.10 436.50" xmlns="http://www.w3.org/2000/svg" xmlns:xlink="http://www.w3.org/1999/xlink">

<svg id="main" version="1.1" xmlns="http://www.w3.org/2000/svg" xmlns:xlink="http://www.w3.org/1999/xlink" xml:space="preserve" onload="init(evt)">
<style type="text/css"><![CDATA[
.node, .edge {opacity: 0.7;}
.node.selected, .edge.selected {opacity: 1;}
.edge:hover path { stroke: red; }
.edge:hover polygon { stroke: red; fill: red; }
]]></style>
<script type="application/ecmascript" xlink:href="svg.min.js"/>
<svg id="graph" class="graph">
<g id="graph0" class="graph" transform="scale(1 1) rotate(0) translate(4 432.5)">
<title>src/exe/inline.cpp</title>
<!-- Node1 -->
<g id="Node000001" class="node">
<title>Node1</title>
<g id="a_Node000001"><a xlink:title=" ">
<polygon fill="#999999" stroke="#666666" points="270.88,-428.5 179.88,-428.5 179.88,-409.25 270.88,-409.25 270.88,-428.5"/>
<text text-anchor="middle" x="225.38" y="-415" font-family="Helvetica,sans-Serif" font-size="10.00">src/exe/inline.cpp</text>
</a>
</g>
</g>
<!-- Node2 -->
<g id="Node000002" class="node">
<title>Node2</title>
<g id="a_Node000002"><a xlink:href="executor_8hpp.html" target="_top" xlink:title=" ">
<polygon fill="white" stroke="#666666" points="307.62,-318 191.12,-318 191.12,-298.75 307.62,-298.75 307.62,-318"/>
<text text-anchor="middle" x="249.38" y="-304.5" font-family="Helvetica,sans-Serif" font-size="10.00">yaclib/exe/executor.hpp</text>
</a>
</g>
</g>
<!-- Node1&#45;&gt;Node2 -->
<g id="edge1_Node000001_Node000002" class="edge">
<title>Node1&#45;&gt;Node2</title>
<g id="a_edge1_Node000001_Node000002"><a xlink:title=" ">
<path fill="none" stroke="#63b8ff" d="M227.34,-409C231.15,-391.75 239.65,-353.33 244.91,-329.56"/>
<polygon fill="#63b8ff" stroke="#63b8ff" points="248.31,-330.37 247.06,-319.85 241.48,-328.86 248.31,-330.37"/>
</a>
</g>
</g>
<!-- Node3 -->
<g id="Node000003" class="node">
<title>Node3</title>
<g id="a_Node000003"><a xlink:href="job_8hpp.html" target="_top" xlink:title=" ">
<polygon fill="white" stroke="#666666" points="209.62,-262.75 117.12,-262.75 117.12,-243.5 209.62,-243.5 209.62,-262.75"/>
<text text-anchor="middle" x="163.38" y="-249.25" font-family="Helvetica,sans-Serif" font-size="10.00">yaclib/exe/job.hpp</text>
</a>
</g>
</g>
<!-- Node1&#45;&gt;Node3 -->
<g id="edge20_Node000001_Node000003" class="edge">
<title>Node1&#45;&gt;Node3</title>
<g id="a_edge20_Node000001_Node000003"><a xlink:title=" ">
<path fill="none" stroke="#63b8ff" d="M221.1,-408.93C212.93,-391.63 194.79,-352.25 182.38,-318 177.06,-303.33 172.07,-286.38 168.54,-273.64"/>
<polygon fill="#63b8ff" stroke="#63b8ff" points="172.02,-273.11 166.03,-264.37 165.26,-274.94 172.02,-273.11"/>
</a>
</g>
</g>
<!-- Node14 -->
<g id="Node000014" class="node">
<title>Node14</title>
<g id="a_Node000014"><a xlink:href="inline_8hpp.html" target="_top" xlink:title=" ">
<polygon fill="white" stroke="#666666" points="355.5,-373.25 253.25,-373.25 253.25,-354 355.5,-354 355.5,-373.25"/>
<text text-anchor="middle" x="304.38" y="-359.75" font-family="Helvetica,sans-Serif" font-size="10.00">yaclib/exe/inline.hpp</text>
</a>
</g>
</g>
<!-- Node1&#45;&gt;Node14 -->
<g id="edge17_Node000001_Node000014" class="edge">
<title>Node1&#45;&gt;Node14</title>
<g id="a_edge17_Node000001_Node000014"><a xlink:title=" ">
<path fill="none" stroke="#63b8ff" d="M238.78,-408.84C250.47,-400.96 267.68,-389.36 281.54,-380.02"/>
<polygon fill="#63b8ff" stroke="#63b8ff" points="283.32,-383.04 289.65,-374.55 279.4,-377.24 283.32,-383.04"/>
</a>
</g>
</g>
<!-- Node2&#45;&gt;Node3 -->
<g id="edge2_Node000002_Node000003" class="edge">
<title>Node2&#45;&gt;Node3</title>
<g id="a_edge2_Node000002_Node000003"><a xlink:title=" ">
<path fill="none" stroke="#63b8ff" d="M234.79,-298.34C221.94,-290.39 202.96,-278.64 187.8,-269.25"/>
<polygon fill="#63b8ff" stroke="#63b8ff" points="189.67,-266.29 179.32,-264 185.98,-272.24 189.67,-266.29"/>
</a>
</g>
</g>
<!-- Node12 -->
<g id="Node000012" class="node">
<title>Node12</title>
<g id="a_Node000012"><a xlink:href="intrusive__ptr_8hpp.html" target="_top" xlink:title=" ">
<polygon fill="white" stroke="#666666" points="311.5,-207.5 215.25,-207.5 215.25,-177 311.5,-177 311.5,-207.5"/>
<text text-anchor="start" x="223.25" y="-194" font-family="Helvetica,sans-Serif" font-size="10.00">yaclib/util/intrusive</text>
<text text-anchor="middle" x="263.38" y="-182.75" font-family="Helvetica,sans-Serif" font-size="10.00">_ptr.hpp</text>
</a>
</g>
</g>
<!-- Node2&#45;&gt;Node12 -->
<g id="edge12_Node000002_Node000012" class="edge">
<title>Node2&#45;&gt;Node12</title>
<g id="a_edge12_Node000002_Node000012"><a xlink:title=" ">
<path fill="none" stroke="#63b8ff" d="M250.47,-298.42C252.55,-281.53 257.1,-244.4 260.2,-219.1"/>
<polygon fill="#63b8ff" stroke="#63b8ff" points="263.67,-219.62 261.41,-209.27 256.72,-218.77 263.67,-219.62"/>
</a>
</g>
</g>
<!-- Node4 -->
<g id="Node000004" class="node">
<title>Node4</title>
<g id="a_Node000004"><a xlink:href="log_8hpp.html" target="_top" xlink:title=" ">
<polygon fill="white" stroke="#666666" points="384.62,-74.5 310.12,-74.5 310.12,-55.25 384.62,-55.25 384.62,-74.5"/>
<text text-anchor="middle" x="347.38" y="-61" font-family="Helvetica,sans-Serif" font-size="10.00">yaclib/log.hpp</text>
</a>
</g>
</g>
<!-- Node3&#45;&gt;Node4 -->
<g id="edge3_Node000003_Node000004" class="edge">
<title>Node3&#45;&gt;Node4</title>
<g id="a_edge3_Node000003_Node000004"><a xlink:title=" ">
<path fill="none" stroke="#63b8ff" d="M209.9,-248.17C271.02,-240.06 375.09,-215.45 413.38,-141 419.57,-128.95 419.73,-122.47 413.38,-110.5 406.36,-97.29 393.5,-87.28 380.99,-80.13"/>
<polygon fill="#63b8ff" stroke="#63b8ff" points="382.97,-77.21 372.48,-75.69 379.73,-83.42 382.97,-77.21"/>
</a>
</g>
</g>
<!-- Node6 -->
<g id="Node000006" class="node">
<title>Node6</title>
<g id="a_Node000006"><a xlink:href="node_8hpp.html" target="_top" xlink:title=" ">
<polygon fill="white" stroke="#666666" points="82.75,-207.5 0,-207.5 0,-177 82.75,-177 82.75,-207.5"/>
<text text-anchor="start" x="8" y="-194" font-family="Helvetica,sans-Serif" font-size="10.00">yaclib/util/detail</text>
<text text-anchor="middle" x="41.38" y="-182.75" font-family="Helvetica,sans-Serif" font-size="10.00">/node.hpp</text>
</a>
</g>
</g>
<!-- Node3&#45;&gt;Node6 -->
<g id="edge5_Node000003_Node000006" class="edge">
<title>Node3&#45;&gt;Node6</title>
<g id="a_edge5_Node000003_Node000006"><a xlink:title=" ">
<path fill="none" stroke="#63b8ff" d="M144.58,-243.05C128,-235.05 103.25,-223.11 82.15,-212.93"/>
<polygon fill="#63b8ff" stroke="#63b8ff" points="83.72,-209.8 73.19,-208.6 80.67,-216.1 83.72,-209.8"/>
</a>
</g>
</g>
<!-- Node7 -->
<g id="Node000007" class="node">
<title>Node7</title>
<g id="a_Node000007"><a xlink:href="func_8hpp.html" target="_top" xlink:title=" ">
<polygon fill="white" stroke="#666666" points="197.5,-201.88 101.25,-201.88 101.25,-182.62 197.5,-182.62 197.5,-201.88"/>
<text text-anchor="middle" x="149.38" y="-188.38" font-family="Helvetica,sans-Serif" font-size="10.00">yaclib/util/func.hpp</text>
</a>
</g>
</g>
<!-- Node3&#45;&gt;Node7 -->
<g id="edge6_Node000003_Node000007" class="edge">
<title>Node3&#45;&gt;Node7</title>
<g id="a_edge6_Node000003_Node000007"><a xlink:title=" ">
<path fill="none" stroke="#63b8ff" d="M161.25,-243.18C159.38,-235.32 156.59,-223.57 154.18,-213.45"/>
<polygon fill="#63b8ff" stroke="#63b8ff" points="157.59,-212.67 151.87,-203.75 150.78,-214.29 157.59,-212.67"/>
</a>
</g>
</g>
<!-- Node5 -->
<g id="Node000005" class="node">
<title>Node5</title>
<g id="a_Node000005"><a xlink:title=" ">
<polygon fill="#e0e0e0" stroke="#999999" points="380.12,-19.25 314.62,-19.25 314.62,0 380.12,0 380.12,-19.25"/>
<text text-anchor="middle" x="347.38" y="-5.75" font-family="Helvetica,sans-Serif" font-size="10.00">string_view</text>
</a>
</g>
</g>
<!-- Node4&#45;&gt;Node5 -->
<g id="edge4_Node000004_Node000005" class="edge">
<title>Node4&#45;&gt;Node5</title>
<g id="a_edge4_Node000004_Node000005"><a xlink:title=" ">
<path fill="none" stroke="#63b8ff" d="M347.38,-55.08C347.38,-48.57 347.38,-39.42 347.38,-31.12"/>
<polygon fill="#63b8ff" stroke="#63b8ff" points="350.88,-31.12 347.38,-21.12 343.88,-31.12 350.88,-31.12"/>
</a>
</g>
</g>
<!-- Node8 -->
<g id="Node000008" class="node">
<title>Node8</title>
<g id="a_Node000008"><a xlink:href="ref_8hpp.html" target="_top" xlink:title=" ">
<polygon fill="white" stroke="#666666" points="193.75,-135.38 105,-135.38 105,-116.12 193.75,-116.12 193.75,-135.38"/>
<text text-anchor="middle" x="149.38" y="-121.88" font-family="Helvetica,sans-Serif" font-size="10.00">yaclib/util/ref.hpp</text>
</a>
</g>
</g>
<!-- Node7&#45;&gt;Node8 -->
<g id="edge7_Node000007_Node000008" class="edge">
<title>Node7&#45;&gt;Node8</title>
<g id="a_edge7_Node000007_Node000008"><a xlink:title=" ">
<path fill="none" stroke="#63b8ff" d="M149.38,-182.28C149.38,-173.23 149.38,-158.95 149.38,-147.13"/>
<polygon fill="#63b8ff" stroke="#63b8ff" points="152.88,-147.16 149.38,-137.16 145.88,-147.16 152.88,-147.16"/>
</a>
</g>
</g>
<!-- Node10 -->
<g id="Node000010" class="node">
<title>Node10</title>
<g id="a_Node000010"><a xlink:title=" ">
<polygon fill="#e0e0e0" stroke="#999999" points="272.88,-135.38 211.88,-135.38 211.88,-116.12 272.88,-116.12 272.88,-135.38"/>
<text text-anchor="middle" x="242.38" y="-121.88" font-family="Helvetica,sans-Serif" font-size="10.00">type_traits</text>
</a>
</g>
</g>
<!-- Node7&#45;&gt;Node10 -->
<g id="edge10_Node000007_Node000010" class="edge">
<title>Node7&#45;&gt;Node10</title>
<g id="a_edge10_Node000007_Node000010"><a xlink:title=" ">
<path fill="none" stroke="#63b8ff" d="M162.31,-182.28C177.21,-171.94 201.98,-154.77 220.02,-142.25"/>
<polygon fill="#63b8ff" stroke="#63b8ff" points="221.79,-145.29 228.01,-136.71 217.8,-139.54 221.79,-145.29"/>
</a>
</g>
</g>
<!-- Node11 -->
<g id="Node000011" class="node">
<title>Node11</title>
<g id="a_Node000011"><a xlink:title=" ">
<polygon fill="#e0e0e0" stroke="#999999" points="86.62,-135.38 48.12,-135.38 48.12,-116.12 86.62,-116.12 86.62,-135.38"/>
<text text-anchor="middle" x="67.38" y="-121.88" font-family="Helvetica,sans-Serif" font-size="10.00">utility</text>
</a>
</g>
</g>
<!-- Node7&#45;&gt;Node11 -->
<g id="edge11_Node000007_Node000011" class="edge">
<title>Node7&#45;&gt;Node11</title>
<g id="a_edge11_Node000007_Node000011"><a xlink:title=" ">
<path fill="none" stroke="#63b8ff" d="M137.97,-182.28C125.07,-172.13 103.8,-155.4 87.97,-142.95"/>
<polygon fill="#63b8ff" stroke="#63b8ff" points="90.16,-140.22 80.13,-136.79 85.83,-145.72 90.16,-140.22"/>
</a>
</g>
</g>
<!-- Node8&#45;&gt;Node4 -->
<g id="edge8_Node000008_Node000004" class="edge">
<title>Node8&#45;&gt;Node4</title>
<g id="a_edge8_Node000008_Node000004"><a xlink:title=" ">
<path fill="none" stroke="#63b8ff" d="M179.88,-115.68C213.74,-105.61 268.58,-89.3 306.23,-78.11"/>
<polygon fill="#63b8ff" stroke="#63b8ff" points="306.8,-81.59 315.39,-75.39 304.8,-74.88 306.8,-81.59"/>
</a>
</g>
</g>
<!-- Node9 -->
<g id="Node000009" class="node">
<title>Node9</title>
<g id="a_Node000009"><a xlink:title=" ">
<polygon fill="#e0e0e0" stroke="#999999" points="173.5,-74.5 125.25,-74.5 125.25,-55.25 173.5,-55.25 173.5,-74.5"/>
<text text-anchor="middle" x="149.38" y="-61" font-family="Helvetica,sans-Serif" font-size="10.00">cstddef</text>
</a>
</g>
</g>
<!-- Node8&#45;&gt;Node9 -->
<g id="edge9_Node000008_Node000009" class="edge">
<title>Node8&#45;&gt;Node9</title>
<g id="a_edge9_Node000008_Node000009"><a xlink:title=" ">
<path fill="none" stroke="#63b8ff" d="M149.38,-115.81C149.38,-108.03 149.38,-96.45 149.38,-86.41"/>
<polygon fill="#63b8ff" stroke="#63b8ff" points="152.88,-86.41 149.38,-76.41 145.88,-86.41 152.88,-86.41"/>
</a>
</g>
</g>
<!-- Node12&#45;&gt;Node8 -->
<g id="edge13_Node000012_Node000008" class="edge">
<title>Node12&#45;&gt;Node8</title>
<g id="a_edge13_Node000012_Node000008"><a xlink:title=" ">
<path fill="none" stroke="#63b8ff" d="M237.51,-176.61C218.86,-166.06 193.8,-151.88 175.17,-141.34"/>
<polygon fill="#63b8ff" stroke="#63b8ff" points="177.04,-138.38 166.62,-136.51 173.6,-144.48 177.04,-138.38"/>
</a>
</g>
</g>
<!-- Node12&#45;&gt;Node10 -->
<g id="edge14_Node000012_Node000010" class="edge">
<title>Node12&#45;&gt;Node10</title>
<g id="a_edge14_Node000012_Node000010"><a xlink:title=" ">
<path fill="none" stroke="#63b8ff" d="M258.61,-176.61C255.68,-167.63 251.9,-156.01 248.73,-146.26"/>
<polygon fill="#63b8ff" stroke="#63b8ff" points="252.14,-145.44 245.72,-137.01 245.48,-147.6 252.14,-145.44"/>
</a>
</g>
</g>
<!-- Node13 -->
<g id="Node000013" class="node">
<title>Node13</title>
<g id="a_Node000013"><a xlink:href="intrusive__ptr__impl_8hpp.html" target="_top" xlink:title=" ">
<polygon fill="white" stroke="#666666" points="404.12,-141 290.62,-141 290.62,-110.5 404.12,-110.5 404.12,-141"/>
<text text-anchor="start" x="298.62" y="-127.5" font-family="Helvetica,sans-Serif" font-size="10.00">yaclib/util/detail</text>
<text text-anchor="middle" x="347.38" y="-116.25" font-family="Helvetica,sans-Serif" font-size="10.00">/intrusive_ptr_impl.hpp</text>
</a>
</g>
</g>
<!-- Node12&#45;&gt;Node13 -->
<g id="edge15_Node000012_Node000013" class="edge">
<title>Node12&#45;&gt;Node13</title>
<g id="a_edge15_Node000012_Node000013"><a xlink:title=" ">
<path fill="none" stroke="#63b8ff" d="M282.44,-176.61C293.39,-168.2 307.35,-157.48 319.51,-148.14"/>
<polygon fill="#63b8ff" stroke="#63b8ff" points="321.39,-151.12 327.19,-142.25 317.13,-145.56 321.39,-151.12"/>
</a>
</g>
</g>
<!-- Node13&#45;&gt;Node4 -->
<g id="edge16_Node000013_Node000004" class="edge">
<title>Node13&#45;&gt;Node4</title>
<g id="a_edge16_Node000013_Node000004"><a xlink:title=" ">
<path fill="none" stroke="#63b8ff" d="M347.38,-110.2C347.38,-102.96 347.38,-94.09 347.38,-86.19"/>
<polygon fill="#63b8ff" stroke="#63b8ff" points="350.88,-86.46 347.38,-76.46 343.88,-86.46 350.88,-86.46"/>
</a>
</g>
</g>
<!-- Node14&#45;&gt;Node2 -->
<g id="edge18_Node000014_Node000002" class="edge">
<title>Node14&#45;&gt;Node2</title>
<g id="a_edge18_Node000014_Node000002"><a xlink:title=" ">
<path fill="none" stroke="#63b8ff" d="M295.29,-353.83C287.54,-346.32 276.16,-335.31 266.68,-326.13"/>
<polygon fill="#63b8ff" stroke="#63b8ff" points="269.36,-323.85 259.74,-319.41 264.49,-328.88 269.36,-323.85"/>
</a>
</g>
</g>
<!-- Node15 -->
<g id="Node000015" class="node">
<title>Node15</title>
<g id="a_Node000015"><a xlink:href="fwd_8hpp.html" target="_top" xlink:title=" ">
<polygon fill="white" stroke="#666666" points="403.12,-318 325.62,-318 325.62,-298.75 403.12,-298.75 403.12,-318"/>
<text text-anchor="middle" x="364.38" y="-304.5" font-family="Helvetica,sans-Serif" font-size="10.00">yaclib/fwd.hpp</text>
</a>
</g>
</g>
<!-- Node14&#45;&gt;Node15 -->
<g id="edge19_Node000014_Node000015" class="edge">
<title>Node14&#45;&gt;Node15</title>
<g id="a_edge19_Node000014_Node000015"><a xlink:title=" ">
<path fill="none" stroke="#63b8ff" d="M314.55,-353.59C323.14,-345.97 335.64,-334.87 345.98,-325.7"/>
<polygon fill="#63b8ff" stroke="#63b8ff" points="348.06,-328.54 353.22,-319.28 343.41,-323.3 348.06,-328.54"/>
</a>
</g>
</g>
</g>
</svg>
</svg>

<style type='text/css'>
<![CDATA[
[data-mouse-over-selected='false'] { opacity: 0.7; }
[data-mouse-over-selected='true']  { opacity: 1.0; }
]]>
</style>
<script type="application/ecmascript"><![CDATA[
document.addEventListener('DOMContentLoaded', (event) => {
  highlightEdges();
  highlightAdjacentNodes();
});
]]></script>
</svg>
