<?xml version="1.0" encoding="UTF-8" standalone="no"?>
<!DOCTYPE svg PUBLIC "-//W3C//DTD SVG 1.1//EN"
 "http://www.w3.org/Graphics/SVG/1.1/DTD/svg11.dtd">
<!-- Generated by graphviz version 9.0.0 (20230911.1827)
 -->
<!-- Title: include/yaclib/exe/inline.hpp Pages: 1 -->
<svg width="440pt" height="393pt"
 viewBox="0.00 0.00 440.26 392.50" xmlns="http://www.w3.org/2000/svg" xmlns:xlink="http://www.w3.org/1999/xlink">
<g id="graph0" class="graph" transform="scale(1 1) rotate(0) translate(4 388.5)">
<title>include/yaclib/exe/inline.hpp</title>
<!-- Node1 -->
<g id="Node000001" class="node">
<title>Node1</title>
<g id="a_Node000001"><a xlink:title=" ">
<polygon fill="#999999" stroke="#666666" points="309.62,-384.5 217.12,-384.5 217.12,-354 309.62,-354 309.62,-384.5"/>
<text text-anchor="start" x="225.12" y="-371" font-family="Helvetica,sans-Serif" font-size="10.00">include/yaclib/exe</text>
<text text-anchor="middle" x="263.38" y="-359.75" font-family="Helvetica,sans-Serif" font-size="10.00">/inline.hpp</text>
</a>
</g>
</g>
<!-- Node2 -->
<g id="Node000002" class="node">
<title>Node2</title>
<g id="a_Node000002"><a xlink:href="executor_8hpp.html" target="_top" xlink:title=" ">
<polygon fill="white" stroke="#666666" points="264.62,-318 148.12,-318 148.12,-298.75 264.62,-298.75 264.62,-318"/>
<text text-anchor="middle" x="206.38" y="-304.5" font-family="Helvetica,sans-Serif" font-size="10.00">yaclib/exe/executor.hpp</text>
</a>
</g>
</g>
<!-- Node1&#45;&gt;Node2 -->
<g id="edge1_Node000001_Node000002" class="edge">
<title>Node1&#45;&gt;Node2</title>
<g id="a_edge1_Node000001_Node000002"><a xlink:title=" ">
<path fill="none" stroke="#63b8ff" d="M249.29,-353.7C241.36,-345.51 231.41,-335.23 223.09,-326.64"/>
<polygon fill="#63b8ff" stroke="#63b8ff" points="225.69,-324.29 216.21,-319.54 220.66,-329.16 225.69,-324.29"/>
</a>
</g>
</g>
<!-- Node14 -->
<g id="Node000014" class="node">
<title>Node14</title>
<g id="a_Node000014"><a xlink:href="fwd_8hpp.html" target="_top" xlink:title=" ">
<polygon fill="white" stroke="#666666" points="360.12,-318 282.62,-318 282.62,-298.75 360.12,-298.75 360.12,-318"/>
<text text-anchor="middle" x="321.38" y="-304.5" font-family="Helvetica,sans-Serif" font-size="10.00">yaclib/fwd.hpp</text>
</a>
</g>
</g>
<!-- Node1&#45;&gt;Node14 -->
<g id="edge17_Node000001_Node000014" class="edge">
<title>Node1&#45;&gt;Node14</title>
<g id="a_edge17_Node000001_Node000014"><a xlink:title=" ">
<path fill="none" stroke="#63b8ff" d="M277.71,-353.7C285.78,-345.51 295.9,-335.23 304.37,-326.64"/>
<polygon fill="#63b8ff" stroke="#63b8ff" points="306.85,-329.11 311.37,-319.53 301.86,-324.2 306.85,-329.11"/>
</a>
</g>
</g>
<!-- Node3 -->
<g id="Node000003" class="node">
<title>Node3</title>
<g id="a_Node000003"><a xlink:href="job_8hpp.html" target="_top" xlink:title=" ">
<polygon fill="white" stroke="#666666" points="215.62,-262.75 123.12,-262.75 123.12,-243.5 215.62,-243.5 215.62,-262.75"/>
<text text-anchor="middle" x="169.38" y="-249.25" font-family="Helvetica,sans-Serif" font-size="10.00">yaclib/exe/job.hpp</text>
</a>
</g>
</g>
<!-- Node2&#45;&gt;Node3 -->
<g id="edge2_Node000002_Node000003" class="edge">
<title>Node2&#45;&gt;Node3</title>
<g id="a_edge2_Node000002_Node000003"><a xlink:title=" ">
<path fill="none" stroke="#63b8ff" d="M200.27,-298.58C195.31,-291.46 188.17,-281.18 182,-272.3"/>
<polygon fill="#63b8ff" stroke="#63b8ff" points="185.06,-270.57 176.48,-264.35 179.31,-274.56 185.06,-270.57"/>
</a>
</g>
</g>
<!-- Node12 -->
<g id="Node000012" class="node">
<title>Node12</title>
<g id="a_Node000012"><a xlink:href="intrusive__ptr_8hpp.html" target="_top" xlink:title=" ">
<polygon fill="white" stroke="#666666" points="311.5,-207.5 215.25,-207.5 215.25,-177 311.5,-177 311.5,-207.5"/>
<text text-anchor="start" x="223.25" y="-194" font-family="Helvetica,sans-Serif" font-size="10.00">yaclib/util/intrusive</text>
<text text-anchor="middle" x="263.38" y="-182.75" font-family="Helvetica,sans-Serif" font-size="10.00">_ptr.hpp</text>
</a>
</g>
</g>
<!-- Node2&#45;&gt;Node12 -->
<g id="edge12_Node000002_Node000012" class="edge">
<title>Node2&#45;&gt;Node12</title>
<g id="a_edge12_Node000002_Node000012"><a xlink:title=" ">
<path fill="none" stroke="#63b8ff" d="M210.85,-298.42C219.44,-281.22 238.5,-243.05 251.15,-217.73"/>
<polygon fill="#63b8ff" stroke="#63b8ff" points="254.11,-219.63 255.45,-209.12 247.85,-216.51 254.11,-219.63"/>
</a>
</g>
</g>
<!-- Node4 -->
<g id="Node000004" class="node">
<title>Node4</title>
<g id="a_Node000004"><a xlink:href="log_8hpp.html" target="_top" xlink:title=" ">
<polygon fill="white" stroke="#666666" points="398.62,-74.5 324.12,-74.5 324.12,-55.25 398.62,-55.25 398.62,-74.5"/>
<text text-anchor="middle" x="361.38" y="-61" font-family="Helvetica,sans-Serif" font-size="10.00">yaclib/log.hpp</text>
</a>
</g>
</g>
<!-- Node3&#45;&gt;Node4 -->
<g id="edge3_Node000003_Node000004" class="edge">
<title>Node3&#45;&gt;Node4</title>
<g id="a_edge3_Node000003_Node000004"><a xlink:title=" ">
<path fill="none" stroke="#63b8ff" d="M215.94,-248.46C278.15,-240.69 385.43,-216.45 427.38,-141 433.96,-129.15 433.73,-122.47 427.38,-110.5 420.36,-97.29 407.5,-87.28 394.99,-80.13"/>
<polygon fill="#63b8ff" stroke="#63b8ff" points="396.97,-77.21 386.48,-75.69 393.73,-83.42 396.97,-77.21"/>
</a>
</g>
</g>
<!-- Node6 -->
<g id="Node000006" class="node">
<title>Node6</title>
<g id="a_Node000006"><a xlink:href="node_8hpp.html" target="_top" xlink:title=" ">
<polygon fill="white" stroke="#666666" points="82.75,-207.5 0,-207.5 0,-177 82.75,-177 82.75,-207.5"/>
<text text-anchor="start" x="8" y="-194" font-family="Helvetica,sans-Serif" font-size="10.00">yaclib/util/detail</text>
<text text-anchor="middle" x="41.38" y="-182.75" font-family="Helvetica,sans-Serif" font-size="10.00">/node.hpp</text>
</a>
</g>
</g>
<!-- Node3&#45;&gt;Node6 -->
<g id="edge5_Node000003_Node000006" class="edge">
<title>Node3&#45;&gt;Node6</title>
<g id="a_edge5_Node000003_Node000006"><a xlink:title=" ">
<path fill="none" stroke="#63b8ff" d="M149.66,-243.05C132.1,-234.98 105.82,-222.89 83.55,-212.65"/>
<polygon fill="#63b8ff" stroke="#63b8ff" points="85.25,-209.58 74.7,-208.58 82.32,-215.94 85.25,-209.58"/>
</a>
</g>
</g>
<!-- Node7 -->
<g id="Node000007" class="node">
<title>Node7</title>
<g id="a_Node000007"><a xlink:href="func_8hpp.html" target="_top" xlink:title=" ">
<polygon fill="white" stroke="#666666" points="197.5,-201.88 101.25,-201.88 101.25,-182.62 197.5,-182.62 197.5,-201.88"/>
<text text-anchor="middle" x="149.38" y="-188.38" font-family="Helvetica,sans-Serif" font-size="10.00">yaclib/util/func.hpp</text>
</a>
</g>
</g>
<!-- Node3&#45;&gt;Node7 -->
<g id="edge6_Node000003_Node000007" class="edge">
<title>Node3&#45;&gt;Node7</title>
<g id="a_edge6_Node000003_Node000007"><a xlink:title=" ">
<path fill="none" stroke="#63b8ff" d="M166.34,-243.18C163.64,-235.23 159.59,-223.31 156.12,-213.12"/>
<polygon fill="#63b8ff" stroke="#63b8ff" points="159.46,-212.05 152.93,-203.71 152.83,-214.3 159.46,-212.05"/>
</a>
</g>
</g>
<!-- Node5 -->
<g id="Node000005" class="node">
<title>Node5</title>
<g id="a_Node000005"><a xlink:title=" ">
<polygon fill="#e0e0e0" stroke="#999999" points="394.12,-19.25 328.62,-19.25 328.62,0 394.12,0 394.12,-19.25"/>
<text text-anchor="middle" x="361.38" y="-5.75" font-family="Helvetica,sans-Serif" font-size="10.00">string_view</text>
</a>
</g>
</g>
<!-- Node4&#45;&gt;Node5 -->
<g id="edge4_Node000004_Node000005" class="edge">
<title>Node4&#45;&gt;Node5</title>
<g id="a_edge4_Node000004_Node000005"><a xlink:title=" ">
<path fill="none" stroke="#63b8ff" d="M361.38,-55.08C361.38,-48.57 361.38,-39.42 361.38,-31.12"/>
<polygon fill="#63b8ff" stroke="#63b8ff" points="364.88,-31.12 361.38,-21.12 357.88,-31.12 364.88,-31.12"/>
</a>
</g>
</g>
<!-- Node8 -->
<g id="Node000008" class="node">
<title>Node8</title>
<g id="a_Node000008"><a xlink:href="ref_8hpp.html" target="_top" xlink:title=" ">
<polygon fill="white" stroke="#666666" points="286.75,-135.38 198,-135.38 198,-116.12 286.75,-116.12 286.75,-135.38"/>
<text text-anchor="middle" x="242.38" y="-121.88" font-family="Helvetica,sans-Serif" font-size="10.00">yaclib/util/ref.hpp</text>
</a>
</g>
</g>
<!-- Node7&#45;&gt;Node8 -->
<g id="edge7_Node000007_Node000008" class="edge">
<title>Node7&#45;&gt;Node8</title>
<g id="a_edge7_Node000007_Node000008"><a xlink:title=" ">
<path fill="none" stroke="#63b8ff" d="M162.31,-182.28C177.21,-171.94 201.98,-154.77 220.02,-142.25"/>
<polygon fill="#63b8ff" stroke="#63b8ff" points="221.79,-145.29 228.01,-136.71 217.8,-139.54 221.79,-145.29"/>
</a>
</g>
</g>
<!-- Node10 -->
<g id="Node000010" class="node">
<title>Node10</title>
<g id="a_Node000010"><a xlink:title=" ">
<polygon fill="#e0e0e0" stroke="#999999" points="179.88,-135.38 118.88,-135.38 118.88,-116.12 179.88,-116.12 179.88,-135.38"/>
<text text-anchor="middle" x="149.38" y="-121.88" font-family="Helvetica,sans-Serif" font-size="10.00">type_traits</text>
</a>
</g>
</g>
<!-- Node7&#45;&gt;Node10 -->
<g id="edge10_Node000007_Node000010" class="edge">
<title>Node7&#45;&gt;Node10</title>
<g id="a_edge10_Node000007_Node000010"><a xlink:title=" ">
<path fill="none" stroke="#63b8ff" d="M149.38,-182.28C149.38,-173.23 149.38,-158.95 149.38,-147.13"/>
<polygon fill="#63b8ff" stroke="#63b8ff" points="152.88,-147.16 149.38,-137.16 145.88,-147.16 152.88,-147.16"/>
</a>
</g>
</g>
<!-- Node11 -->
<g id="Node000011" class="node">
<title>Node11</title>
<g id="a_Node000011"><a xlink:title=" ">
<polygon fill="#e0e0e0" stroke="#999999" points="100.62,-135.38 62.12,-135.38 62.12,-116.12 100.62,-116.12 100.62,-135.38"/>
<text text-anchor="middle" x="81.38" y="-121.88" font-family="Helvetica,sans-Serif" font-size="10.00">utility</text>
</a>
</g>
</g>
<!-- Node7&#45;&gt;Node11 -->
<g id="edge11_Node000007_Node000011" class="edge">
<title>Node7&#45;&gt;Node11</title>
<g id="a_edge11_Node000007_Node000011"><a xlink:title=" ">
<path fill="none" stroke="#63b8ff" d="M139.92,-182.28C129.36,-172.27 112.05,-155.85 98.98,-143.45"/>
<polygon fill="#63b8ff" stroke="#63b8ff" points="101.51,-141.03 91.85,-136.68 96.69,-146.11 101.51,-141.03"/>
</a>
</g>
</g>
<!-- Node8&#45;&gt;Node4 -->
<g id="edge8_Node000008_Node000004" class="edge">
<title>Node8&#45;&gt;Node4</title>
<g id="a_edge8_Node000008_Node000004"><a xlink:title=" ">
<path fill="none" stroke="#63b8ff" d="M260.71,-115.68C279.98,-106.14 310.56,-91.02 332.96,-79.93"/>
<polygon fill="#63b8ff" stroke="#63b8ff" points="334.45,-83.1 341.86,-75.53 331.34,-76.83 334.45,-83.1"/>
</a>
</g>
</g>
<!-- Node9 -->
<g id="Node000009" class="node">
<title>Node9</title>
<g id="a_Node000009"><a xlink:title=" ">
<polygon fill="#e0e0e0" stroke="#999999" points="266.5,-74.5 218.25,-74.5 218.25,-55.25 266.5,-55.25 266.5,-74.5"/>
<text text-anchor="middle" x="242.38" y="-61" font-family="Helvetica,sans-Serif" font-size="10.00">cstddef</text>
</a>
</g>
</g>
<!-- Node8&#45;&gt;Node9 -->
<g id="edge9_Node000008_Node000009" class="edge">
<title>Node8&#45;&gt;Node9</title>
<g id="a_edge9_Node000008_Node000009"><a xlink:title=" ">
<path fill="none" stroke="#63b8ff" d="M242.38,-115.81C242.38,-108.03 242.38,-96.45 242.38,-86.41"/>
<polygon fill="#63b8ff" stroke="#63b8ff" points="245.88,-86.41 242.38,-76.41 238.88,-86.41 245.88,-86.41"/>
</a>
</g>
</g>
<!-- Node12&#45;&gt;Node8 -->
<g id="edge13_Node000012_Node000008" class="edge">
<title>Node12&#45;&gt;Node8</title>
<g id="a_edge13_Node000012_Node000008"><a xlink:title=" ">
<path fill="none" stroke="#63b8ff" d="M258.61,-176.61C255.68,-167.63 251.9,-156.01 248.73,-146.26"/>
<polygon fill="#63b8ff" stroke="#63b8ff" points="252.14,-145.44 245.72,-137.01 245.48,-147.6 252.14,-145.44"/>
</a>
</g>
</g>
<!-- Node12&#45;&gt;Node10 -->
<g id="edge14_Node000012_Node000010" class="edge">
<title>Node12&#45;&gt;Node10</title>
<g id="a_edge14_Node000012_Node000010"><a xlink:title=" ">
<path fill="none" stroke="#63b8ff" d="M237.51,-176.61C218.86,-166.06 193.8,-151.88 175.17,-141.34"/>
<polygon fill="#63b8ff" stroke="#63b8ff" points="177.04,-138.38 166.62,-136.51 173.6,-144.48 177.04,-138.38"/>
</a>
</g>
</g>
<!-- Node13 -->
<g id="Node000013" class="node">
<title>Node13</title>
<g id="a_Node000013"><a xlink:href="intrusive__ptr__impl_8hpp.html" target="_top" xlink:title=" ">
<polygon fill="white" stroke="#666666" points="418.12,-141 304.62,-141 304.62,-110.5 418.12,-110.5 418.12,-141"/>
<text text-anchor="start" x="312.62" y="-127.5" font-family="Helvetica,sans-Serif" font-size="10.00">yaclib/util/detail</text>
<text text-anchor="middle" x="361.38" y="-116.25" font-family="Helvetica,sans-Serif" font-size="10.00">/intrusive_ptr_impl.hpp</text>
</a>
</g>
</g>
<!-- Node12&#45;&gt;Node13 -->
<g id="edge15_Node000012_Node000013" class="edge">
<title>Node12&#45;&gt;Node13</title>
<g id="a_edge15_Node000012_Node000013"><a xlink:title=" ">
<path fill="none" stroke="#63b8ff" d="M285.61,-176.61C298.64,-168.04 315.32,-157.06 329.7,-147.59"/>
<polygon fill="#63b8ff" stroke="#63b8ff" points="331.53,-150.58 337.96,-142.16 327.68,-144.73 331.53,-150.58"/>
</a>
</g>
</g>
<!-- Node13&#45;&gt;Node4 -->
<g id="edge16_Node000013_Node000004" class="edge">
<title>Node13&#45;&gt;Node4</title>
<g id="a_edge16_Node000013_Node000004"><a xlink:title=" ">
<path fill="none" stroke="#63b8ff" d="M361.38,-110.2C361.38,-102.96 361.38,-94.09 361.38,-86.19"/>
<polygon fill="#63b8ff" stroke="#63b8ff" points="364.88,-86.46 361.38,-76.46 357.88,-86.46 364.88,-86.46"/>
</a>
</g>
</g>
</g>
</svg>
