<?xml version="1.0" encoding="UTF-8" standalone="no"?>
<!DOCTYPE svg PUBLIC "-//W3C//DTD SVG 1.1//EN"
 "http://www.w3.org/Graphics/SVG/1.1/DTD/svg11.dtd">
<!-- Generated by graphviz version 9.0.0 (20230911.1827)
 -->
<!-- Title: include/yaclib/util/intrusive_ptr.hpp Pages: 1 -->
<svg width="307pt" height="216pt"
 viewBox="0.00 0.00 307.12 215.50" xmlns="http://www.w3.org/2000/svg" xmlns:xlink="http://www.w3.org/1999/xlink">
<g id="graph0" class="graph" transform="scale(1 1) rotate(0) translate(4 211.5)">
<title>include/yaclib/util/intrusive_ptr.hpp</title>
<!-- Node1 -->
<g id="Node000001" class="node">
<title>Node1</title>
<g id="a_Node000001"><a xlink:title=" ">
<polygon fill="#999999" stroke="#666666" points="182.5,-207.5 92.25,-207.5 92.25,-177 182.5,-177 182.5,-207.5"/>
<text text-anchor="start" x="100.25" y="-194" font-family="Helvetica,sans-Serif" font-size="10.00">include/yaclib/util</text>
<text text-anchor="middle" x="137.38" y="-182.75" font-family="Helvetica,sans-Serif" font-size="10.00">/intrusive_ptr.hpp</text>
</a>
</g>
</g>
<!-- Node2 -->
<g id="Node000002" class="node">
<title>Node2</title>
<g id="a_Node000002"><a xlink:href="ref_8hpp.html" target="_top" xlink:title=" ">
<polygon fill="white" stroke="#666666" points="88.75,-135.38 0,-135.38 0,-116.12 88.75,-116.12 88.75,-135.38"/>
<text text-anchor="middle" x="44.38" y="-121.88" font-family="Helvetica,sans-Serif" font-size="10.00">yaclib/util/ref.hpp</text>
</a>
</g>
</g>
<!-- Node1&#45;&gt;Node2 -->
<g id="edge1_Node000001_Node000002" class="edge">
<title>Node1&#45;&gt;Node2</title>
<g id="a_edge1_Node000001_Node000002"><a xlink:title=" ">
<path fill="none" stroke="#63b8ff" d="M116.27,-176.61C101.41,-166.31 81.56,-152.54 66.48,-142.08"/>
<polygon fill="#63b8ff" stroke="#63b8ff" points="68.82,-139.45 58.61,-136.62 64.83,-145.2 68.82,-139.45"/>
</a>
</g>
</g>
<!-- Node3 -->
<g id="Node000003" class="node">
<title>Node3</title>
<g id="a_Node000003"><a xlink:title=" ">
<polygon fill="#e0e0e0" stroke="#999999" points="167.88,-135.38 106.88,-135.38 106.88,-116.12 167.88,-116.12 167.88,-135.38"/>
<text text-anchor="middle" x="137.38" y="-121.88" font-family="Helvetica,sans-Serif" font-size="10.00">type_traits</text>
</a>
</g>
</g>
<!-- Node1&#45;&gt;Node3 -->
<g id="edge2_Node000001_Node000003" class="edge">
<title>Node1&#45;&gt;Node3</title>
<g id="a_edge2_Node000001_Node000003"><a xlink:title=" ">
<path fill="none" stroke="#63b8ff" d="M137.38,-176.61C137.38,-167.83 137.38,-156.52 137.38,-146.9"/>
<polygon fill="#63b8ff" stroke="#63b8ff" points="140.88,-147.09 137.38,-137.09 133.88,-147.09 140.88,-147.09"/>
</a>
</g>
</g>
<!-- Node4 -->
<g id="Node000004" class="node">
<title>Node4</title>
<g id="a_Node000004"><a xlink:href="intrusive__ptr__impl_8hpp.html" target="_top" xlink:title=" ">
<polygon fill="white" stroke="#666666" points="299.12,-141 185.62,-141 185.62,-110.5 299.12,-110.5 299.12,-141"/>
<text text-anchor="start" x="193.62" y="-127.5" font-family="Helvetica,sans-Serif" font-size="10.00">yaclib/util/detail</text>
<text text-anchor="middle" x="242.38" y="-116.25" font-family="Helvetica,sans-Serif" font-size="10.00">/intrusive_ptr_impl.hpp</text>
</a>
</g>
</g>
<!-- Node1&#45;&gt;Node4 -->
<g id="edge3_Node000001_Node000004" class="edge">
<title>Node1&#45;&gt;Node4</title>
<g id="a_edge3_Node000001_Node000004"><a xlink:title=" ">
<path fill="none" stroke="#63b8ff" d="M161.2,-176.61C175.3,-167.95 193.37,-156.85 208.89,-147.32"/>
<polygon fill="#63b8ff" stroke="#63b8ff" points="210.66,-150.34 217.35,-142.12 207,-144.37 210.66,-150.34"/>
</a>
</g>
</g>
<!-- Node5 -->
<g id="Node000005" class="node">
<title>Node5</title>
<g id="a_Node000005"><a xlink:href="log_8hpp.html" target="_top" xlink:title=" ">
<polygon fill="white" stroke="#666666" points="279.62,-74.5 205.12,-74.5 205.12,-55.25 279.62,-55.25 279.62,-74.5"/>
<text text-anchor="middle" x="242.38" y="-61" font-family="Helvetica,sans-Serif" font-size="10.00">yaclib/log.hpp</text>
</a>
</g>
</g>
<!-- Node4&#45;&gt;Node5 -->
<g id="edge4_Node000004_Node000005" class="edge">
<title>Node4&#45;&gt;Node5</title>
<g id="a_edge4_Node000004_Node000005"><a xlink:title=" ">
<path fill="none" stroke="#63b8ff" d="M242.38,-110.2C242.38,-102.96 242.38,-94.09 242.38,-86.19"/>
<polygon fill="#63b8ff" stroke="#63b8ff" points="245.88,-86.46 242.38,-76.46 238.88,-86.46 245.88,-86.46"/>
</a>
</g>
</g>
<!-- Node6 -->
<g id="Node000006" class="node">
<title>Node6</title>
<g id="a_Node000006"><a xlink:title=" ">
<polygon fill="#e0e0e0" stroke="#999999" points="275.12,-19.25 209.62,-19.25 209.62,0 275.12,0 275.12,-19.25"/>
<text text-anchor="middle" x="242.38" y="-5.75" font-family="Helvetica,sans-Serif" font-size="10.00">string_view</text>
</a>
</g>
</g>
<!-- Node5&#45;&gt;Node6 -->
<g id="edge5_Node000005_Node000006" class="edge">
<title>Node5&#45;&gt;Node6</title>
<g id="a_edge5_Node000005_Node000006"><a xlink:title=" ">
<path fill="none" stroke="#63b8ff" d="M242.38,-55.08C242.38,-48.57 242.38,-39.42 242.38,-31.12"/>
<polygon fill="#63b8ff" stroke="#63b8ff" points="245.88,-31.12 242.38,-21.12 238.88,-31.12 245.88,-31.12"/>
</a>
</g>
</g>
</g>
</svg>
