<?xml version="1.0" encoding="UTF-8" standalone="no"?>
<!DOCTYPE svg PUBLIC "-//W3C//DTD SVG 1.1//EN"
 "http://www.w3.org/Graphics/SVG/1.1/DTD/svg11.dtd">
<!-- Generated by graphviz version 9.0.0 (20230911.1827)
 -->
<!-- Title: include/yaclib/util/detail/intrusive_stack.hpp Pages: 1 -->
<svg width="241pt" height="160pt"
 viewBox="0.00 0.00 240.50 160.25" xmlns="http://www.w3.org/2000/svg" xmlns:xlink="http://www.w3.org/1999/xlink">
<g id="graph0" class="graph" transform="scale(1 1) rotate(0) translate(4 156.25)">
<title>include/yaclib/util/detail/intrusive_stack.hpp</title>
<!-- Node1 -->
<g id="Node000001" class="node">
<title>Node1</title>
<g id="a_Node000001"><a xlink:title=" ">
<polygon fill="#999999" stroke="#666666" points="198.88,-152.25 69.62,-152.25 69.62,-121.75 198.88,-121.75 198.88,-152.25"/>
<text text-anchor="start" x="77.62" y="-138.75" font-family="Helvetica,sans-Serif" font-size="10.00">include/yaclib/util</text>
<text text-anchor="middle" x="134.25" y="-127.5" font-family="Helvetica,sans-Serif" font-size="10.00">/detail/intrusive_stack.hpp</text>
</a>
</g>
</g>
<!-- Node2 -->
<g id="Node000002" class="node">
<title>Node2</title>
<g id="a_Node000002"><a xlink:href="log_8hpp.html" target="_top" xlink:title=" ">
<polygon fill="white" stroke="#666666" points="74.5,-80.12 0,-80.12 0,-60.88 74.5,-60.88 74.5,-80.12"/>
<text text-anchor="middle" x="37.25" y="-66.62" font-family="Helvetica,sans-Serif" font-size="10.00">yaclib/log.hpp</text>
</a>
</g>
</g>
<!-- Node1&#45;&gt;Node2 -->
<g id="edge1_Node000001_Node000002" class="edge">
<title>Node1&#45;&gt;Node2</title>
<g id="a_edge1_Node000001_Node000002"><a xlink:title=" ">
<path fill="none" stroke="#63b8ff" d="M112.24,-121.36C96.74,-111.06 76.04,-97.29 60.31,-86.83"/>
<polygon fill="#63b8ff" stroke="#63b8ff" points="62.33,-83.97 52.06,-81.35 58.45,-89.8 62.33,-83.97"/>
</a>
</g>
</g>
<!-- Node4 -->
<g id="Node000004" class="node">
<title>Node4</title>
<g id="a_Node000004"><a xlink:href="node_8hpp.html" target="_top" xlink:title=" ">
<polygon fill="white" stroke="#666666" points="175.62,-85.75 92.88,-85.75 92.88,-55.25 175.62,-55.25 175.62,-85.75"/>
<text text-anchor="start" x="100.88" y="-72.25" font-family="Helvetica,sans-Serif" font-size="10.00">yaclib/util/detail</text>
<text text-anchor="middle" x="134.25" y="-61" font-family="Helvetica,sans-Serif" font-size="10.00">/node.hpp</text>
</a>
</g>
</g>
<!-- Node1&#45;&gt;Node4 -->
<g id="edge3_Node000001_Node000004" class="edge">
<title>Node1&#45;&gt;Node4</title>
<g id="a_edge3_Node000001_Node000004"><a xlink:title=" ">
<path fill="none" stroke="#63b8ff" d="M134.25,-121.36C134.25,-114.27 134.25,-105.54 134.25,-97.38"/>
<polygon fill="#63b8ff" stroke="#63b8ff" points="137.75,-97.59 134.25,-87.59 130.75,-97.59 137.75,-97.59"/>
</a>
</g>
</g>
<!-- Node5 -->
<g id="Node000005" class="node">
<title>Node5</title>
<g id="a_Node000005"><a xlink:title=" ">
<polygon fill="#e0e0e0" stroke="#999999" points="232.5,-80.12 194,-80.12 194,-60.88 232.5,-60.88 232.5,-80.12"/>
<text text-anchor="middle" x="213.25" y="-66.62" font-family="Helvetica,sans-Serif" font-size="10.00">utility</text>
</a>
</g>
</g>
<!-- Node1&#45;&gt;Node5 -->
<g id="edge4_Node000001_Node000005" class="edge">
<title>Node1&#45;&gt;Node5</title>
<g id="a_edge4_Node000001_Node000005"><a xlink:title=" ">
<path fill="none" stroke="#63b8ff" d="M152.18,-121.36C164.51,-111.29 180.89,-97.92 193.59,-87.56"/>
<polygon fill="#63b8ff" stroke="#63b8ff" points="195.74,-90.32 201.27,-81.28 191.31,-84.89 195.74,-90.32"/>
</a>
</g>
</g>
<!-- Node3 -->
<g id="Node000003" class="node">
<title>Node3</title>
<g id="a_Node000003"><a xlink:title=" ">
<polygon fill="#e0e0e0" stroke="#999999" points="70,-19.25 4.5,-19.25 4.5,0 70,0 70,-19.25"/>
<text text-anchor="middle" x="37.25" y="-5.75" font-family="Helvetica,sans-Serif" font-size="10.00">string_view</text>
</a>
</g>
</g>
<!-- Node2&#45;&gt;Node3 -->
<g id="edge2_Node000002_Node000003" class="edge">
<title>Node2&#45;&gt;Node3</title>
<g id="a_edge2_Node000002_Node000003"><a xlink:title=" ">
<path fill="none" stroke="#63b8ff" d="M37.25,-60.56C37.25,-52.78 37.25,-41.2 37.25,-31.16"/>
<polygon fill="#63b8ff" stroke="#63b8ff" points="40.75,-31.16 37.25,-21.16 33.75,-31.16 40.75,-31.16"/>
</a>
</g>
</g>
</g>
</svg>
