<?xml version="1.0" encoding="UTF-8" standalone="no"?>
<!DOCTYPE svg PUBLIC "-//W3C//DTD SVG 1.1//EN"
 "http://www.w3.org/Graphics/SVG/1.1/DTD/svg11.dtd">
<!-- Generated by graphviz version 9.0.0 (20230911.1827)
 -->
<!-- Title: include/yaclib/exe/job.hpp Pages: 1 -->
<svg width="338pt" height="216pt"
 viewBox="0.00 0.00 337.50 215.50" xmlns="http://www.w3.org/2000/svg" xmlns:xlink="http://www.w3.org/1999/xlink">
<g id="graph0" class="graph" transform="scale(1 1) rotate(0) translate(4 211.5)">
<title>include/yaclib/exe/job.hpp</title>
<!-- Node1 -->
<g id="Node000001" class="node">
<title>Node1</title>
<g id="a_Node000001"><a xlink:title=" ">
<polygon fill="#999999" stroke="#666666" points="180.5,-207.5 88,-207.5 88,-177 180.5,-177 180.5,-207.5"/>
<text text-anchor="start" x="96" y="-194" font-family="Helvetica,sans-Serif" font-size="10.00">include/yaclib/exe</text>
<text text-anchor="middle" x="134.25" y="-182.75" font-family="Helvetica,sans-Serif" font-size="10.00">/job.hpp</text>
</a>
</g>
</g>
<!-- Node2 -->
<g id="Node000002" class="node">
<title>Node2</title>
<g id="a_Node000002"><a xlink:href="log_8hpp.html" target="_top" xlink:title=" ">
<polygon fill="white" stroke="#666666" points="74.5,-135.38 0,-135.38 0,-116.12 74.5,-116.12 74.5,-135.38"/>
<text text-anchor="middle" x="37.25" y="-121.88" font-family="Helvetica,sans-Serif" font-size="10.00">yaclib/log.hpp</text>
</a>
</g>
</g>
<!-- Node1&#45;&gt;Node2 -->
<g id="edge1_Node000001_Node000002" class="edge">
<title>Node1&#45;&gt;Node2</title>
<g id="a_edge1_Node000001_Node000002"><a xlink:title=" ">
<path fill="none" stroke="#63b8ff" d="M112.24,-176.61C96.74,-166.31 76.04,-152.54 60.31,-142.08"/>
<polygon fill="#63b8ff" stroke="#63b8ff" points="62.33,-139.22 52.06,-136.6 58.45,-145.05 62.33,-139.22"/>
</a>
</g>
</g>
<!-- Node4 -->
<g id="Node000004" class="node">
<title>Node4</title>
<g id="a_Node000004"><a xlink:href="node_8hpp.html" target="_top" xlink:title=" ">
<polygon fill="white" stroke="#666666" points="175.62,-141 92.88,-141 92.88,-110.5 175.62,-110.5 175.62,-141"/>
<text text-anchor="start" x="100.88" y="-127.5" font-family="Helvetica,sans-Serif" font-size="10.00">yaclib/util/detail</text>
<text text-anchor="middle" x="134.25" y="-116.25" font-family="Helvetica,sans-Serif" font-size="10.00">/node.hpp</text>
</a>
</g>
</g>
<!-- Node1&#45;&gt;Node4 -->
<g id="edge3_Node000001_Node000004" class="edge">
<title>Node1&#45;&gt;Node4</title>
<g id="a_edge3_Node000001_Node000004"><a xlink:title=" ">
<path fill="none" stroke="#63b8ff" d="M134.25,-176.61C134.25,-169.52 134.25,-160.79 134.25,-152.63"/>
<polygon fill="#63b8ff" stroke="#63b8ff" points="137.75,-152.84 134.25,-142.84 130.75,-152.84 137.75,-152.84"/>
</a>
</g>
</g>
<!-- Node5 -->
<g id="Node000005" class="node">
<title>Node5</title>
<g id="a_Node000005"><a xlink:href="func_8hpp.html" target="_top" xlink:title=" ">
<polygon fill="white" stroke="#666666" points="290.38,-135.38 194.12,-135.38 194.12,-116.12 290.38,-116.12 290.38,-135.38"/>
<text text-anchor="middle" x="242.25" y="-121.88" font-family="Helvetica,sans-Serif" font-size="10.00">yaclib/util/func.hpp</text>
</a>
</g>
</g>
<!-- Node1&#45;&gt;Node5 -->
<g id="edge4_Node000001_Node000005" class="edge">
<title>Node1&#45;&gt;Node5</title>
<g id="a_edge4_Node000001_Node000005"><a xlink:title=" ">
<path fill="none" stroke="#63b8ff" d="M158.76,-176.61C176.34,-166.11 199.94,-152.02 217.57,-141.49"/>
<polygon fill="#63b8ff" stroke="#63b8ff" points="219.07,-144.67 225.86,-136.54 215.48,-138.66 219.07,-144.67"/>
</a>
</g>
</g>
<!-- Node3 -->
<g id="Node000003" class="node">
<title>Node3</title>
<g id="a_Node000003"><a xlink:title=" ">
<polygon fill="#e0e0e0" stroke="#999999" points="70,-74.5 4.5,-74.5 4.5,-55.25 70,-55.25 70,-74.5"/>
<text text-anchor="middle" x="37.25" y="-61" font-family="Helvetica,sans-Serif" font-size="10.00">string_view</text>
</a>
</g>
</g>
<!-- Node2&#45;&gt;Node3 -->
<g id="edge2_Node000002_Node000003" class="edge">
<title>Node2&#45;&gt;Node3</title>
<g id="a_edge2_Node000002_Node000003"><a xlink:title=" ">
<path fill="none" stroke="#63b8ff" d="M37.25,-115.81C37.25,-108.03 37.25,-96.45 37.25,-86.41"/>
<polygon fill="#63b8ff" stroke="#63b8ff" points="40.75,-86.41 37.25,-76.41 33.75,-86.41 40.75,-86.41"/>
</a>
</g>
</g>
<!-- Node6 -->
<g id="Node000006" class="node">
<title>Node6</title>
<g id="a_Node000006"><a xlink:href="ref_8hpp.html" target="_top" xlink:title=" ">
<polygon fill="white" stroke="#666666" points="193.62,-74.5 104.88,-74.5 104.88,-55.25 193.62,-55.25 193.62,-74.5"/>
<text text-anchor="middle" x="149.25" y="-61" font-family="Helvetica,sans-Serif" font-size="10.00">yaclib/util/ref.hpp</text>
</a>
</g>
</g>
<!-- Node5&#45;&gt;Node6 -->
<g id="edge5_Node000005_Node000006" class="edge">
<title>Node5&#45;&gt;Node6</title>
<g id="a_edge5_Node000005_Node000006"><a xlink:title=" ">
<path fill="none" stroke="#63b8ff" d="M228.13,-115.81C213.51,-106.56 190.43,-91.95 173.01,-80.92"/>
<polygon fill="#63b8ff" stroke="#63b8ff" points="175.11,-78.1 164.79,-75.71 171.36,-84.02 175.11,-78.1"/>
</a>
</g>
</g>
<!-- Node8 -->
<g id="Node000008" class="node">
<title>Node8</title>
<g id="a_Node000008"><a xlink:title=" ">
<polygon fill="#e0e0e0" stroke="#999999" points="272.75,-74.5 211.75,-74.5 211.75,-55.25 272.75,-55.25 272.75,-74.5"/>
<text text-anchor="middle" x="242.25" y="-61" font-family="Helvetica,sans-Serif" font-size="10.00">type_traits</text>
</a>
</g>
</g>
<!-- Node5&#45;&gt;Node8 -->
<g id="edge7_Node000005_Node000008" class="edge">
<title>Node5&#45;&gt;Node8</title>
<g id="a_edge7_Node000005_Node000008"><a xlink:title=" ">
<path fill="none" stroke="#63b8ff" d="M242.25,-115.81C242.25,-108.03 242.25,-96.45 242.25,-86.41"/>
<polygon fill="#63b8ff" stroke="#63b8ff" points="245.75,-86.41 242.25,-76.41 238.75,-86.41 245.75,-86.41"/>
</a>
</g>
</g>
<!-- Node9 -->
<g id="Node000009" class="node">
<title>Node9</title>
<g id="a_Node000009"><a xlink:title=" ">
<polygon fill="#e0e0e0" stroke="#999999" points="329.5,-74.5 291,-74.5 291,-55.25 329.5,-55.25 329.5,-74.5"/>
<text text-anchor="middle" x="310.25" y="-61" font-family="Helvetica,sans-Serif" font-size="10.00">utility</text>
</a>
</g>
</g>
<!-- Node5&#45;&gt;Node9 -->
<g id="edge8_Node000005_Node000009" class="edge">
<title>Node5&#45;&gt;Node9</title>
<g id="a_edge8_Node000005_Node000009"><a xlink:title=" ">
<path fill="none" stroke="#63b8ff" d="M252.58,-115.81C262.86,-106.9 278.88,-93.03 291.43,-82.17"/>
<polygon fill="#63b8ff" stroke="#63b8ff" points="293.41,-85.08 298.68,-75.89 288.83,-79.79 293.41,-85.08"/>
</a>
</g>
</g>
<!-- Node7 -->
<g id="Node000007" class="node">
<title>Node7</title>
<g id="a_Node000007"><a xlink:title=" ">
<polygon fill="#e0e0e0" stroke="#999999" points="173.38,-19.25 125.12,-19.25 125.12,0 173.38,0 173.38,-19.25"/>
<text text-anchor="middle" x="149.25" y="-5.75" font-family="Helvetica,sans-Serif" font-size="10.00">cstddef</text>
</a>
</g>
</g>
<!-- Node6&#45;&gt;Node7 -->
<g id="edge6_Node000006_Node000007" class="edge">
<title>Node6&#45;&gt;Node7</title>
<g id="a_edge6_Node000006_Node000007"><a xlink:title=" ">
<path fill="none" stroke="#63b8ff" d="M149.25,-55.08C149.25,-48.57 149.25,-39.42 149.25,-31.12"/>
<polygon fill="#63b8ff" stroke="#63b8ff" points="152.75,-31.12 149.25,-21.12 145.75,-31.12 152.75,-31.12"/>
</a>
</g>
</g>
</g>
</svg>
