<?xml version="1.0" encoding="UTF-8" standalone="no"?>
<!DOCTYPE svg PUBLIC "-//W3C//DTD SVG 1.1//EN"
 "http://www.w3.org/Graphics/SVG/1.1/DTD/svg11.dtd">
<!-- Generated by graphviz version 9.0.0 (20230911.1827)
 -->
<!-- Title: include/yaclib/exe/job.hpp Pages: 1 -->
<svg width="338pt" height="160pt"
 viewBox="0.00 0.00 337.50 160.25" xmlns="http://www.w3.org/2000/svg" xmlns:xlink="http://www.w3.org/1999/xlink">
<g id="graph0" class="graph" transform="scale(1 1) rotate(0) translate(4 156.25)">
<title>include/yaclib/exe/job.hpp</title>
<!-- Node1 -->
<g id="Node000001" class="node">
<title>Node1</title>
<g id="a_Node000001"><a xlink:title=" ">
<polygon fill="#999999" stroke="#666666" points="180.5,-152.25 88,-152.25 88,-121.75 180.5,-121.75 180.5,-152.25"/>
<text text-anchor="start" x="96" y="-138.75" font-family="Helvetica,sans-Serif" font-size="10.00">include/yaclib/exe</text>
<text text-anchor="middle" x="134.25" y="-127.5" font-family="Helvetica,sans-Serif" font-size="10.00">/job.hpp</text>
</a>
</g>
</g>
<!-- Node2 -->
<g id="Node000002" class="node">
<title>Node2</title>
<g id="a_Node000002"><a xlink:href="log_8hpp.html" target="_top" xlink:title=" ">
<polygon fill="white" stroke="#666666" points="74.5,-80.12 0,-80.12 0,-60.88 74.5,-60.88 74.5,-80.12"/>
<text text-anchor="middle" x="37.25" y="-66.62" font-family="Helvetica,sans-Serif" font-size="10.00">yaclib/log.hpp</text>
</a>
</g>
</g>
<!-- Node1&#45;&gt;Node2 -->
<g id="edge1_Node000001_Node000002" class="edge">
<title>Node1&#45;&gt;Node2</title>
<g id="a_edge1_Node000001_Node000002"><a xlink:title=" ">
<path fill="none" stroke="#63b8ff" d="M112.24,-121.36C96.74,-111.06 76.04,-97.29 60.31,-86.83"/>
<polygon fill="#63b8ff" stroke="#63b8ff" points="62.33,-83.97 52.06,-81.35 58.45,-89.8 62.33,-83.97"/>
</a>
</g>
</g>
<!-- Node4 -->
<g id="Node000004" class="node">
<title>Node4</title>
<g id="a_Node000004"><a xlink:href="node_8hpp.html" target="_top" xlink:title=" ">
<polygon fill="white" stroke="#666666" points="175.62,-85.75 92.88,-85.75 92.88,-55.25 175.62,-55.25 175.62,-85.75"/>
<text text-anchor="start" x="100.88" y="-72.25" font-family="Helvetica,sans-Serif" font-size="10.00">yaclib/util/detail</text>
<text text-anchor="middle" x="134.25" y="-61" font-family="Helvetica,sans-Serif" font-size="10.00">/node.hpp</text>
</a>
</g>
</g>
<!-- Node1&#45;&gt;Node4 -->
<g id="edge3_Node000001_Node000004" class="edge">
<title>Node1&#45;&gt;Node4</title>
<g id="a_edge3_Node000001_Node000004"><a xlink:title=" ">
<path fill="none" stroke="#63b8ff" d="M134.25,-121.36C134.25,-114.27 134.25,-105.54 134.25,-97.38"/>
<polygon fill="#63b8ff" stroke="#63b8ff" points="137.75,-97.59 134.25,-87.59 130.75,-97.59 137.75,-97.59"/>
</a>
</g>
</g>
<!-- Node5 -->
<g id="Node000005" class="node">
<title>Node5</title>
<g id="a_Node000005"><a xlink:href="func_8hpp.html" target="_top" xlink:title=" ">
<polygon fill="white" stroke="#666666" points="290.38,-80.12 194.12,-80.12 194.12,-60.88 290.38,-60.88 290.38,-80.12"/>
<text text-anchor="middle" x="242.25" y="-66.62" font-family="Helvetica,sans-Serif" font-size="10.00">yaclib/util/func.hpp</text>
</a>
</g>
</g>
<!-- Node1&#45;&gt;Node5 -->
<g id="edge4_Node000001_Node000005" class="edge">
<title>Node1&#45;&gt;Node5</title>
<g id="a_edge4_Node000001_Node000005"><a xlink:title=" ">
<path fill="none" stroke="#63b8ff" d="M158.76,-121.36C176.34,-110.86 199.94,-96.77 217.57,-86.24"/>
<polygon fill="#63b8ff" stroke="#63b8ff" points="219.07,-89.42 225.86,-81.29 215.48,-83.41 219.07,-89.42"/>
</a>
</g>
</g>
<!-- Node3 -->
<g id="Node000003" class="node">
<title>Node3</title>
<g id="a_Node000003"><a xlink:title=" ">
<polygon fill="#e0e0e0" stroke="#999999" points="70,-19.25 4.5,-19.25 4.5,0 70,0 70,-19.25"/>
<text text-anchor="middle" x="37.25" y="-5.75" font-family="Helvetica,sans-Serif" font-size="10.00">string_view</text>
</a>
</g>
</g>
<!-- Node2&#45;&gt;Node3 -->
<g id="edge2_Node000002_Node000003" class="edge">
<title>Node2&#45;&gt;Node3</title>
<g id="a_edge2_Node000002_Node000003"><a xlink:title=" ">
<path fill="none" stroke="#63b8ff" d="M37.25,-60.56C37.25,-52.78 37.25,-41.2 37.25,-31.16"/>
<polygon fill="#63b8ff" stroke="#63b8ff" points="40.75,-31.16 37.25,-21.16 33.75,-31.16 40.75,-31.16"/>
</a>
</g>
</g>
<!-- Node6 -->
<g id="Node000006" class="node">
<title>Node6</title>
<g id="a_Node000006"><a xlink:href="ref_8hpp.html" target="_top" xlink:title=" ">
<polygon fill="white" stroke="#666666" points="193.62,-19.25 104.88,-19.25 104.88,0 193.62,0 193.62,-19.25"/>
<text text-anchor="middle" x="149.25" y="-5.75" font-family="Helvetica,sans-Serif" font-size="10.00">yaclib/util/ref.hpp</text>
</a>
</g>
</g>
<!-- Node5&#45;&gt;Node6 -->
<g id="edge5_Node000005_Node000006" class="edge">
<title>Node5&#45;&gt;Node6</title>
<g id="a_edge5_Node000005_Node000006"><a xlink:title=" ">
<path fill="none" stroke="#63b8ff" d="M228.13,-60.56C213.51,-51.31 190.43,-36.7 173.01,-25.67"/>
<polygon fill="#63b8ff" stroke="#63b8ff" points="175.11,-22.85 164.79,-20.46 171.36,-28.77 175.11,-22.85"/>
</a>
</g>
</g>
<!-- Node7 -->
<g id="Node000007" class="node">
<title>Node7</title>
<g id="a_Node000007"><a xlink:title=" ">
<polygon fill="#e0e0e0" stroke="#999999" points="272.75,-19.25 211.75,-19.25 211.75,0 272.75,0 272.75,-19.25"/>
<text text-anchor="middle" x="242.25" y="-5.75" font-family="Helvetica,sans-Serif" font-size="10.00">type_traits</text>
</a>
</g>
</g>
<!-- Node5&#45;&gt;Node7 -->
<g id="edge6_Node000005_Node000007" class="edge">
<title>Node5&#45;&gt;Node7</title>
<g id="a_edge6_Node000005_Node000007"><a xlink:title=" ">
<path fill="none" stroke="#63b8ff" d="M242.25,-60.56C242.25,-52.78 242.25,-41.2 242.25,-31.16"/>
<polygon fill="#63b8ff" stroke="#63b8ff" points="245.75,-31.16 242.25,-21.16 238.75,-31.16 245.75,-31.16"/>
</a>
</g>
</g>
<!-- Node8 -->
<g id="Node000008" class="node">
<title>Node8</title>
<g id="a_Node000008"><a xlink:title=" ">
<polygon fill="#e0e0e0" stroke="#999999" points="329.5,-19.25 291,-19.25 291,0 329.5,0 329.5,-19.25"/>
<text text-anchor="middle" x="310.25" y="-5.75" font-family="Helvetica,sans-Serif" font-size="10.00">utility</text>
</a>
</g>
</g>
<!-- Node5&#45;&gt;Node8 -->
<g id="edge7_Node000005_Node000008" class="edge">
<title>Node5&#45;&gt;Node8</title>
<g id="a_edge7_Node000005_Node000008"><a xlink:title=" ">
<path fill="none" stroke="#63b8ff" d="M252.58,-60.56C262.86,-51.65 278.88,-37.78 291.43,-26.92"/>
<polygon fill="#63b8ff" stroke="#63b8ff" points="293.41,-29.83 298.68,-20.64 288.83,-24.54 293.41,-29.83"/>
</a>
</g>
</g>
</g>
</svg>
