<?xml version="1.0" encoding="UTF-8" standalone="no"?>
<!DOCTYPE svg PUBLIC "-//W3C//DTD SVG 1.1//EN"
 "http://www.w3.org/Graphics/SVG/1.1/DTD/svg11.dtd">
<!-- Generated by graphviz version 9.0.0 (20230911.1827)
 -->
<!-- Title: include/yaclib/exe/manual.hpp Pages: 1 -->
<svg width="489pt" height="337pt"
 viewBox="0.00 0.00 489.25 337.25" xmlns="http://www.w3.org/2000/svg" xmlns:xlink="http://www.w3.org/1999/xlink">
<g id="graph0" class="graph" transform="scale(1 1) rotate(0) translate(4 333.25)">
<title>include/yaclib/exe/manual.hpp</title>
<!-- Node1 -->
<g id="Node000001" class="node">
<title>Node1</title>
<g id="a_Node000001"><a xlink:title=" ">
<polygon fill="#999999" stroke="#666666" points="426.62,-329.25 334.12,-329.25 334.12,-298.75 426.62,-298.75 426.62,-329.25"/>
<text text-anchor="start" x="342.12" y="-315.75" font-family="Helvetica,sans-Serif" font-size="10.00">include/yaclib/exe</text>
<text text-anchor="middle" x="380.38" y="-304.5" font-family="Helvetica,sans-Serif" font-size="10.00">/manual.hpp</text>
</a>
</g>
</g>
<!-- Node2 -->
<g id="Node000002" class="node">
<title>Node2</title>
<g id="a_Node000002"><a xlink:href="executor_8hpp.html" target="_top" xlink:title=" ">
<polygon fill="white" stroke="#666666" points="333.62,-262.75 217.12,-262.75 217.12,-243.5 333.62,-243.5 333.62,-262.75"/>
<text text-anchor="middle" x="275.38" y="-249.25" font-family="Helvetica,sans-Serif" font-size="10.00">yaclib/exe/executor.hpp</text>
</a>
</g>
</g>
<!-- Node1&#45;&gt;Node2 -->
<g id="edge1_Node000001_Node000002" class="edge">
<title>Node1&#45;&gt;Node2</title>
<g id="a_edge1_Node000001_Node000002"><a xlink:title=" ">
<path fill="none" stroke="#63b8ff" d="M354.15,-298.3C338.01,-289.24 317.4,-277.69 301.31,-268.66"/>
<polygon fill="#63b8ff" stroke="#63b8ff" points="303.23,-265.73 292.8,-263.89 299.81,-271.84 303.23,-265.73"/>
</a>
</g>
</g>
<!-- Node3 -->
<g id="Node000003" class="node">
<title>Node3</title>
<g id="a_Node000003"><a xlink:href="job_8hpp.html" target="_top" xlink:title=" ">
<polygon fill="white" stroke="#666666" points="371.62,-201.88 279.12,-201.88 279.12,-182.62 371.62,-182.62 371.62,-201.88"/>
<text text-anchor="middle" x="325.38" y="-188.38" font-family="Helvetica,sans-Serif" font-size="10.00">yaclib/exe/job.hpp</text>
</a>
</g>
</g>
<!-- Node1&#45;&gt;Node3 -->
<g id="edge15_Node000001_Node000003" class="edge">
<title>Node1&#45;&gt;Node3</title>
<g id="a_edge15_Node000001_Node000003"><a xlink:title=" ">
<path fill="none" stroke="#63b8ff" d="M373.63,-298.32C363.72,-276.74 345.21,-236.45 334.22,-212.52"/>
<polygon fill="#63b8ff" stroke="#63b8ff" points="337.49,-211.24 330.14,-203.61 331.13,-214.16 337.49,-211.24"/>
</a>
</g>
</g>
<!-- Node13 -->
<g id="Node000013" class="node">
<title>Node13</title>
<g id="a_Node000013"><a xlink:href="intrusive__list_8hpp.html" target="_top" xlink:title=" ">
<polygon fill="white" stroke="#666666" points="481.25,-207.5 389.5,-207.5 389.5,-177 481.25,-177 481.25,-207.5"/>
<text text-anchor="start" x="397.5" y="-194" font-family="Helvetica,sans-Serif" font-size="10.00">yaclib/util/detail</text>
<text text-anchor="middle" x="435.38" y="-182.75" font-family="Helvetica,sans-Serif" font-size="10.00">/intrusive_list.hpp</text>
</a>
</g>
</g>
<!-- Node1&#45;&gt;Node13 -->
<g id="edge16_Node000001_Node000013" class="edge">
<title>Node1&#45;&gt;Node13</title>
<g id="a_edge16_Node000001_Node000013"><a xlink:title=" ">
<path fill="none" stroke="#63b8ff" d="M387.12,-298.32C396.32,-278.28 412.94,-242.09 424.07,-217.87"/>
<polygon fill="#63b8ff" stroke="#63b8ff" points="427.12,-219.6 428.12,-209.06 420.76,-216.68 427.12,-219.6"/>
</a>
</g>
</g>
<!-- Node14 -->
<g id="Node000014" class="node">
<title>Node14</title>
<g id="a_Node000014"><a xlink:title=" ">
<polygon fill="#e0e0e0" stroke="#999999" points="475.5,-262.75 427.25,-262.75 427.25,-243.5 475.5,-243.5 475.5,-262.75"/>
<text text-anchor="middle" x="451.38" y="-249.25" font-family="Helvetica,sans-Serif" font-size="10.00">cstddef</text>
</a>
</g>
</g>
<!-- Node1&#45;&gt;Node14 -->
<g id="edge18_Node000001_Node000014" class="edge">
<title>Node1&#45;&gt;Node14</title>
<g id="a_edge18_Node000001_Node000014"><a xlink:title=" ">
<path fill="none" stroke="#63b8ff" d="M397.93,-298.45C408.22,-289.91 421.24,-279.12 431.85,-270.31"/>
<polygon fill="#63b8ff" stroke="#63b8ff" points="433.8,-273.24 439.26,-264.17 429.33,-267.86 433.8,-273.24"/>
</a>
</g>
</g>
<!-- Node2&#45;&gt;Node3 -->
<g id="edge2_Node000002_Node000003" class="edge">
<title>Node2&#45;&gt;Node3</title>
<g id="a_edge2_Node000002_Node000003"><a xlink:title=" ">
<path fill="none" stroke="#63b8ff" d="M282.97,-243.18C290.24,-234.62 301.4,-221.48 310.45,-210.82"/>
<polygon fill="#63b8ff" stroke="#63b8ff" points="312.92,-213.32 316.73,-203.43 307.59,-208.79 312.92,-213.32"/>
</a>
</g>
</g>
<!-- Node11 -->
<g id="Node000011" class="node">
<title>Node11</title>
<g id="a_Node000011"><a xlink:href="intrusive__ptr_8hpp.html" target="_top" xlink:title=" ">
<polygon fill="white" stroke="#666666" points="196.5,-207.5 100.25,-207.5 100.25,-177 196.5,-177 196.5,-207.5"/>
<text text-anchor="start" x="108.25" y="-194" font-family="Helvetica,sans-Serif" font-size="10.00">yaclib/util/intrusive</text>
<text text-anchor="middle" x="148.38" y="-182.75" font-family="Helvetica,sans-Serif" font-size="10.00">_ptr.hpp</text>
</a>
</g>
</g>
<!-- Node2&#45;&gt;Node11 -->
<g id="edge10_Node000002_Node000011" class="edge">
<title>Node2&#45;&gt;Node11</title>
<g id="a_edge10_Node000002_Node000011"><a xlink:title=" ">
<path fill="none" stroke="#63b8ff" d="M255.81,-243.05C238.39,-234.98 212.32,-222.89 190.22,-212.65"/>
<polygon fill="#63b8ff" stroke="#63b8ff" points="191.99,-209.61 181.45,-208.58 189.05,-215.96 191.99,-209.61"/>
</a>
</g>
</g>
<!-- Node4 -->
<g id="Node000004" class="node">
<title>Node4</title>
<g id="a_Node000004"><a xlink:href="log_8hpp.html" target="_top" xlink:title=" ">
<polygon fill="white" stroke="#666666" points="360.62,-74.5 286.12,-74.5 286.12,-55.25 360.62,-55.25 360.62,-74.5"/>
<text text-anchor="middle" x="323.38" y="-61" font-family="Helvetica,sans-Serif" font-size="10.00">yaclib/log.hpp</text>
</a>
</g>
</g>
<!-- Node3&#45;&gt;Node4 -->
<g id="edge3_Node000003_Node000004" class="edge">
<title>Node3&#45;&gt;Node4</title>
<g id="a_edge3_Node000003_Node000004"><a xlink:title=" ">
<path fill="none" stroke="#63b8ff" d="M330.62,-182.37C336.05,-172.61 344.18,-156.29 347.38,-141 350.15,-127.73 350.69,-123.65 347.38,-110.5 345.1,-101.46 340.59,-92.25 336.09,-84.56"/>
<polygon fill="#63b8ff" stroke="#63b8ff" points="339.08,-82.75 330.78,-76.17 333.17,-86.49 339.08,-82.75"/>
</a>
</g>
</g>
<!-- Node6 -->
<g id="Node000006" class="node">
<title>Node6</title>
<g id="a_Node000006"><a xlink:href="node_8hpp.html" target="_top" xlink:title=" ">
<polygon fill="white" stroke="#666666" points="476.75,-141 394,-141 394,-110.5 476.75,-110.5 476.75,-141"/>
<text text-anchor="start" x="402" y="-127.5" font-family="Helvetica,sans-Serif" font-size="10.00">yaclib/util/detail</text>
<text text-anchor="middle" x="435.38" y="-116.25" font-family="Helvetica,sans-Serif" font-size="10.00">/node.hpp</text>
</a>
</g>
</g>
<!-- Node3&#45;&gt;Node6 -->
<g id="edge5_Node000003_Node000006" class="edge">
<title>Node3&#45;&gt;Node6</title>
<g id="a_edge5_Node000003_Node000006"><a xlink:title=" ">
<path fill="none" stroke="#63b8ff" d="M340.67,-182.28C356.12,-173.22 380.53,-158.91 400.7,-147.08"/>
<polygon fill="#63b8ff" stroke="#63b8ff" points="402.33,-150.18 409.19,-142.11 398.79,-144.15 402.33,-150.18"/>
</a>
</g>
</g>
<!-- Node7 -->
<g id="Node000007" class="node">
<title>Node7</title>
<g id="a_Node000007"><a xlink:href="func_8hpp.html" target="_top" xlink:title=" ">
<polygon fill="white" stroke="#666666" points="206.5,-135.38 110.25,-135.38 110.25,-116.12 206.5,-116.12 206.5,-135.38"/>
<text text-anchor="middle" x="158.38" y="-121.88" font-family="Helvetica,sans-Serif" font-size="10.00">yaclib/util/func.hpp</text>
</a>
</g>
</g>
<!-- Node3&#45;&gt;Node7 -->
<g id="edge6_Node000003_Node000007" class="edge">
<title>Node3&#45;&gt;Node7</title>
<g id="a_edge6_Node000003_Node000007"><a xlink:title=" ">
<path fill="none" stroke="#63b8ff" d="M301.8,-182.15C273.21,-171.1 224.79,-152.4 192.22,-139.82"/>
<polygon fill="#63b8ff" stroke="#63b8ff" points="193.83,-136.69 183.24,-136.35 191.31,-143.22 193.83,-136.69"/>
</a>
</g>
</g>
<!-- Node5 -->
<g id="Node000005" class="node">
<title>Node5</title>
<g id="a_Node000005"><a xlink:title=" ">
<polygon fill="#e0e0e0" stroke="#999999" points="356.12,-19.25 290.62,-19.25 290.62,0 356.12,0 356.12,-19.25"/>
<text text-anchor="middle" x="323.38" y="-5.75" font-family="Helvetica,sans-Serif" font-size="10.00">string_view</text>
</a>
</g>
</g>
<!-- Node4&#45;&gt;Node5 -->
<g id="edge4_Node000004_Node000005" class="edge">
<title>Node4&#45;&gt;Node5</title>
<g id="a_edge4_Node000004_Node000005"><a xlink:title=" ">
<path fill="none" stroke="#63b8ff" d="M323.38,-55.08C323.38,-48.57 323.38,-39.42 323.38,-31.12"/>
<polygon fill="#63b8ff" stroke="#63b8ff" points="326.88,-31.12 323.38,-21.12 319.88,-31.12 326.88,-31.12"/>
</a>
</g>
</g>
<!-- Node8 -->
<g id="Node000008" class="node">
<title>Node8</title>
<g id="a_Node000008"><a xlink:href="ref_8hpp.html" target="_top" xlink:title=" ">
<polygon fill="white" stroke="#666666" points="88.75,-74.5 0,-74.5 0,-55.25 88.75,-55.25 88.75,-74.5"/>
<text text-anchor="middle" x="44.38" y="-61" font-family="Helvetica,sans-Serif" font-size="10.00">yaclib/util/ref.hpp</text>
</a>
</g>
</g>
<!-- Node7&#45;&gt;Node8 -->
<g id="edge7_Node000007_Node000008" class="edge">
<title>Node7&#45;&gt;Node8</title>
<g id="a_edge7_Node000007_Node000008"><a xlink:title=" ">
<path fill="none" stroke="#63b8ff" d="M141.06,-115.81C122.73,-106.34 93.53,-91.26 72.01,-80.15"/>
<polygon fill="#63b8ff" stroke="#63b8ff" points="73.69,-77.07 63.2,-75.6 70.48,-83.29 73.69,-77.07"/>
</a>
</g>
</g>
<!-- Node9 -->
<g id="Node000009" class="node">
<title>Node9</title>
<g id="a_Node000009"><a xlink:title=" ">
<polygon fill="#e0e0e0" stroke="#999999" points="167.88,-74.5 106.88,-74.5 106.88,-55.25 167.88,-55.25 167.88,-74.5"/>
<text text-anchor="middle" x="137.38" y="-61" font-family="Helvetica,sans-Serif" font-size="10.00">type_traits</text>
</a>
</g>
</g>
<!-- Node7&#45;&gt;Node9 -->
<g id="edge8_Node000007_Node000009" class="edge">
<title>Node7&#45;&gt;Node9</title>
<g id="a_edge8_Node000007_Node000009"><a xlink:title=" ">
<path fill="none" stroke="#63b8ff" d="M155.19,-115.81C152.35,-107.85 148.1,-95.94 144.46,-85.74"/>
<polygon fill="#63b8ff" stroke="#63b8ff" points="147.76,-84.57 141.1,-76.33 141.17,-86.92 147.76,-84.57"/>
</a>
</g>
</g>
<!-- Node10 -->
<g id="Node000010" class="node">
<title>Node10</title>
<g id="a_Node000010"><a xlink:title=" ">
<polygon fill="#e0e0e0" stroke="#999999" points="224.62,-74.5 186.12,-74.5 186.12,-55.25 224.62,-55.25 224.62,-74.5"/>
<text text-anchor="middle" x="205.38" y="-61" font-family="Helvetica,sans-Serif" font-size="10.00">utility</text>
</a>
</g>
</g>
<!-- Node7&#45;&gt;Node10 -->
<g id="edge9_Node000007_Node000010" class="edge">
<title>Node7&#45;&gt;Node10</title>
<g id="a_edge9_Node000007_Node000010"><a xlink:title=" ">
<path fill="none" stroke="#63b8ff" d="M165.51,-115.81C172.28,-107.34 182.63,-94.37 191.09,-83.77"/>
<polygon fill="#63b8ff" stroke="#63b8ff" points="193.72,-86.08 197.23,-76.08 188.25,-81.72 193.72,-86.08"/>
</a>
</g>
</g>
<!-- Node11&#45;&gt;Node8 -->
<g id="edge11_Node000011_Node000008" class="edge">
<title>Node11&#45;&gt;Node8</title>
<g id="a_edge11_Node000011_Node000008"><a xlink:title=" ">
<path fill="none" stroke="#63b8ff" d="M130.84,-176.8C119.76,-167.23 105.49,-154.08 94.38,-141 79.04,-122.96 64.39,-100.04 54.96,-84.28"/>
<polygon fill="#63b8ff" stroke="#63b8ff" points="58.16,-82.83 50.08,-75.98 52.12,-86.37 58.16,-82.83"/>
</a>
</g>
</g>
<!-- Node11&#45;&gt;Node9 -->
<g id="edge12_Node000011_Node000009" class="edge">
<title>Node11&#45;&gt;Node9</title>
<g id="a_edge12_Node000011_Node000009"><a xlink:title=" ">
<path fill="none" stroke="#63b8ff" d="M129.09,-176.79C118.74,-167.78 106.99,-155.22 101.38,-141 96.4,-128.39 96.86,-123.28 101.38,-110.5 105,-100.25 112.08,-90.62 119.02,-82.95"/>
<polygon fill="#63b8ff" stroke="#63b8ff" points="121.32,-85.6 125.81,-76 116.32,-80.7 121.32,-85.6"/>
</a>
</g>
</g>
<!-- Node12 -->
<g id="Node000012" class="node">
<title>Node12</title>
<g id="a_Node000012"><a xlink:href="intrusive__ptr__impl_8hpp.html" target="_top" xlink:title=" ">
<polygon fill="white" stroke="#666666" points="338.12,-141 224.62,-141 224.62,-110.5 338.12,-110.5 338.12,-141"/>
<text text-anchor="start" x="232.62" y="-127.5" font-family="Helvetica,sans-Serif" font-size="10.00">yaclib/util/detail</text>
<text text-anchor="middle" x="281.38" y="-116.25" font-family="Helvetica,sans-Serif" font-size="10.00">/intrusive_ptr_impl.hpp</text>
</a>
</g>
</g>
<!-- Node11&#45;&gt;Node12 -->
<g id="edge13_Node000011_Node000012" class="edge">
<title>Node11&#45;&gt;Node12</title>
<g id="a_edge13_Node000011_Node000012"><a xlink:title=" ">
<path fill="none" stroke="#63b8ff" d="M178.55,-176.61C197.09,-167.63 221.06,-156 241.19,-146.24"/>
<polygon fill="#63b8ff" stroke="#63b8ff" points="242.48,-149.5 249.95,-141.99 239.43,-143.2 242.48,-149.5"/>
</a>
</g>
</g>
<!-- Node12&#45;&gt;Node4 -->
<g id="edge14_Node000012_Node000004" class="edge">
<title>Node12&#45;&gt;Node4</title>
<g id="a_edge14_Node000012_Node000004"><a xlink:title=" ">
<path fill="none" stroke="#63b8ff" d="M291.76,-110.2C297.35,-102.35 304.31,-92.6 310.28,-84.24"/>
<polygon fill="#63b8ff" stroke="#63b8ff" points="313.06,-86.36 316.02,-76.18 307.36,-82.29 313.06,-86.36"/>
</a>
</g>
</g>
<!-- Node13&#45;&gt;Node6 -->
<g id="edge17_Node000013_Node000006" class="edge">
<title>Node13&#45;&gt;Node6</title>
<g id="a_edge17_Node000013_Node000006"><a xlink:title=" ">
<path fill="none" stroke="#63b8ff" d="M435.38,-176.61C435.38,-169.52 435.38,-160.79 435.38,-152.63"/>
<polygon fill="#63b8ff" stroke="#63b8ff" points="438.88,-152.84 435.38,-142.84 431.88,-152.84 438.88,-152.84"/>
</a>
</g>
</g>
</g>
</svg>
