<?xml version="1.0" encoding="UTF-8" standalone="no"?>
<!DOCTYPE svg PUBLIC "-//W3C//DTD SVG 1.1//EN"
 "http://www.w3.org/Graphics/SVG/1.1/DTD/svg11.dtd">
<!-- Generated by graphviz version 9.0.0 (20230911.1827)
 -->
<!-- Title: src/exe/manual.cpp Pages: 1 -->
<svg width="720pt" height="393pt"
 viewBox="0.00 0.00 719.75 392.50" xmlns="http://www.w3.org/2000/svg" xmlns:xlink="http://www.w3.org/1999/xlink">
<g id="graph0" class="graph" transform="scale(1 1) rotate(0) translate(4 388.5)">
<title>src/exe/manual.cpp</title>
<!-- Node1 -->
<g id="Node000001" class="node">
<title>Node1</title>
<g id="a_Node000001"><a xlink:title=" ">
<polygon fill="#999999" stroke="#666666" points="326.38,-384.5 226.38,-384.5 226.38,-365.25 326.38,-365.25 326.38,-384.5"/>
<text text-anchor="middle" x="276.38" y="-371" font-family="Helvetica,sans-Serif" font-size="10.00">src/exe/manual.cpp</text>
</a>
</g>
</g>
<!-- Node2 -->
<g id="Node000002" class="node">
<title>Node2</title>
<g id="a_Node000002"><a xlink:href="manual_8hpp.html" target="_top" xlink:title=" ">
<polygon fill="white" stroke="#666666" points="269,-329.25 157.75,-329.25 157.75,-310 269,-310 269,-329.25"/>
<text text-anchor="middle" x="213.38" y="-315.75" font-family="Helvetica,sans-Serif" font-size="10.00">yaclib/exe/manual.hpp</text>
</a>
</g>
</g>
<!-- Node1&#45;&gt;Node2 -->
<g id="edge1_Node000001_Node000002" class="edge">
<title>Node1&#45;&gt;Node2</title>
<g id="a_edge1_Node000001_Node000002"><a xlink:title=" ">
<path fill="none" stroke="#63b8ff" d="M265.69,-364.84C256.67,-357.22 243.54,-346.12 232.69,-336.95"/>
<polygon fill="#63b8ff" stroke="#63b8ff" points="234.96,-334.28 225.06,-330.5 230.44,-339.63 234.96,-334.28"/>
</a>
</g>
</g>
<!-- Node16 -->
<g id="Node000016" class="node">
<title>Node16</title>
<g id="a_Node000016"><a xlink:href="helper_8hpp.html" target="_top" xlink:title=" ">
<polygon fill="white" stroke="#666666" points="405.25,-329.25 301.5,-329.25 301.5,-310 405.25,-310 405.25,-329.25"/>
<text text-anchor="middle" x="353.38" y="-315.75" font-family="Helvetica,sans-Serif" font-size="10.00">yaclib/util/helper.hpp</text>
</a>
</g>
</g>
<!-- Node1&#45;&gt;Node16 -->
<g id="edge20_Node000001_Node000016" class="edge">
<title>Node1&#45;&gt;Node16</title>
<g id="a_edge20_Node000001_Node000016"><a xlink:title=" ">
<path fill="none" stroke="#63b8ff" d="M289.44,-364.84C300.83,-356.96 317.6,-345.36 331.11,-336.02"/>
<polygon fill="#63b8ff" stroke="#63b8ff" points="332.77,-339.13 339,-330.56 328.79,-333.37 332.77,-339.13"/>
</a>
</g>
</g>
<!-- Node3 -->
<g id="Node000003" class="node">
<title>Node3</title>
<g id="a_Node000003"><a xlink:href="executor_8hpp.html" target="_top" xlink:title=" ">
<polygon fill="white" stroke="#666666" points="271.62,-268.38 155.12,-268.38 155.12,-249.12 271.62,-249.12 271.62,-268.38"/>
<text text-anchor="middle" x="213.38" y="-254.88" font-family="Helvetica,sans-Serif" font-size="10.00">yaclib/exe/executor.hpp</text>
</a>
</g>
</g>
<!-- Node2&#45;&gt;Node3 -->
<g id="edge2_Node000002_Node000003" class="edge">
<title>Node2&#45;&gt;Node3</title>
<g id="a_edge2_Node000002_Node000003"><a xlink:title=" ">
<path fill="none" stroke="#63b8ff" d="M213.38,-309.68C213.38,-301.9 213.38,-290.33 213.38,-280.28"/>
<polygon fill="#63b8ff" stroke="#63b8ff" points="216.88,-280.29 213.38,-270.29 209.88,-280.29 216.88,-280.29"/>
</a>
</g>
</g>
<!-- Node4 -->
<g id="Node000004" class="node">
<title>Node4</title>
<g id="a_Node000004"><a xlink:href="job_8hpp.html" target="_top" xlink:title=" ">
<polygon fill="white" stroke="#666666" points="159.62,-201.88 67.12,-201.88 67.12,-182.62 159.62,-182.62 159.62,-201.88"/>
<text text-anchor="middle" x="113.38" y="-188.38" font-family="Helvetica,sans-Serif" font-size="10.00">yaclib/exe/job.hpp</text>
</a>
</g>
</g>
<!-- Node2&#45;&gt;Node4 -->
<g id="edge16_Node000002_Node000004" class="edge">
<title>Node2&#45;&gt;Node4</title>
<g id="a_edge16_Node000002_Node000004"><a xlink:title=" ">
<path fill="none" stroke="#63b8ff" d="M193.75,-309.58C179,-301.92 159.21,-289.69 146.38,-274 131.72,-256.08 122.8,-230.76 117.99,-213.27"/>
<polygon fill="#63b8ff" stroke="#63b8ff" points="121.39,-212.46 115.56,-203.61 114.6,-214.16 121.39,-212.46"/>
</a>
</g>
</g>
<!-- Node14 -->
<g id="Node000014" class="node">
<title>Node14</title>
<g id="a_Node000014"><a xlink:href="intrusive__list_8hpp.html" target="_top" xlink:title=" ">
<polygon fill="white" stroke="#666666" points="92.25,-274 0.5,-274 0.5,-243.5 92.25,-243.5 92.25,-274"/>
<text text-anchor="start" x="8.5" y="-260.5" font-family="Helvetica,sans-Serif" font-size="10.00">yaclib/util/detail</text>
<text text-anchor="middle" x="46.38" y="-249.25" font-family="Helvetica,sans-Serif" font-size="10.00">/intrusive_list.hpp</text>
</a>
</g>
</g>
<!-- Node2&#45;&gt;Node14 -->
<g id="edge17_Node000002_Node000014" class="edge">
<title>Node2&#45;&gt;Node14</title>
<g id="a_edge17_Node000002_Node000014"><a xlink:title=" ">
<path fill="none" stroke="#63b8ff" d="M187.65,-309.55C164.02,-301.22 128.28,-288.62 98.66,-278.18"/>
<polygon fill="#63b8ff" stroke="#63b8ff" points="100.08,-274.97 89.48,-274.95 97.75,-281.57 100.08,-274.97"/>
</a>
</g>
</g>
<!-- Node15 -->
<g id="Node000015" class="node">
<title>Node15</title>
<g id="a_Node000015"><a xlink:title=" ">
<polygon fill="#e0e0e0" stroke="#999999" points="339.5,-201.88 291.25,-201.88 291.25,-182.62 339.5,-182.62 339.5,-201.88"/>
<text text-anchor="middle" x="315.38" y="-188.38" font-family="Helvetica,sans-Serif" font-size="10.00">cstddef</text>
</a>
</g>
</g>
<!-- Node2&#45;&gt;Node15 -->
<g id="edge19_Node000002_Node000015" class="edge">
<title>Node2&#45;&gt;Node15</title>
<g id="a_edge19_Node000002_Node000015"><a xlink:title=" ">
<path fill="none" stroke="#63b8ff" d="M232.91,-309.5C247.61,-301.8 267.38,-289.55 280.38,-274 295.43,-255.99 305.02,-230.51 310.28,-213.02"/>
<polygon fill="#63b8ff" stroke="#63b8ff" points="313.59,-214.17 312.9,-203.6 306.85,-212.3 313.59,-214.17"/>
</a>
</g>
</g>
<!-- Node3&#45;&gt;Node4 -->
<g id="edge3_Node000003_Node000004" class="edge">
<title>Node3&#45;&gt;Node4</title>
<g id="a_edge3_Node000003_Node000004"><a xlink:title=" ">
<path fill="none" stroke="#63b8ff" d="M199.47,-248.78C183.37,-238.39 156.57,-221.11 137.14,-208.58"/>
<polygon fill="#63b8ff" stroke="#63b8ff" points="139.06,-205.65 128.76,-203.17 135.26,-211.53 139.06,-205.65"/>
</a>
</g>
</g>
<!-- Node12 -->
<g id="Node000012" class="node">
<title>Node12</title>
<g id="a_Node000012"><a xlink:href="intrusive__ptr_8hpp.html" target="_top" xlink:title=" ">
<polygon fill="white" stroke="#666666" points="273.5,-207.5 177.25,-207.5 177.25,-177 273.5,-177 273.5,-207.5"/>
<text text-anchor="start" x="185.25" y="-194" font-family="Helvetica,sans-Serif" font-size="10.00">yaclib/util/intrusive</text>
<text text-anchor="middle" x="225.38" y="-182.75" font-family="Helvetica,sans-Serif" font-size="10.00">_ptr.hpp</text>
</a>
</g>
</g>
<!-- Node3&#45;&gt;Node12 -->
<g id="edge11_Node000003_Node000012" class="edge">
<title>Node3&#45;&gt;Node12</title>
<g id="a_edge11_Node000003_Node000012"><a xlink:title=" ">
<path fill="none" stroke="#63b8ff" d="M215.04,-248.78C216.48,-241.04 218.64,-229.45 220.61,-218.87"/>
<polygon fill="#63b8ff" stroke="#63b8ff" points="224.04,-219.55 222.43,-209.08 217.16,-218.27 224.04,-219.55"/>
</a>
</g>
</g>
<!-- Node5 -->
<g id="Node000005" class="node">
<title>Node5</title>
<g id="a_Node000005"><a xlink:href="log_8hpp.html" target="_top" xlink:title=" ">
<polygon fill="white" stroke="#666666" points="193.62,-74.5 119.12,-74.5 119.12,-55.25 193.62,-55.25 193.62,-74.5"/>
<text text-anchor="middle" x="156.38" y="-61" font-family="Helvetica,sans-Serif" font-size="10.00">yaclib/log.hpp</text>
</a>
</g>
</g>
<!-- Node4&#45;&gt;Node5 -->
<g id="edge4_Node000004_Node000005" class="edge">
<title>Node4&#45;&gt;Node5</title>
<g id="a_edge4_Node000004_Node000005"><a xlink:title=" ">
<path fill="none" stroke="#63b8ff" d="M114.29,-182.5C116.07,-167.4 120.7,-135.64 130.38,-110.5 133.87,-101.41 139.09,-92 143.93,-84.18"/>
<polygon fill="#63b8ff" stroke="#63b8ff" points="146.76,-86.24 149.27,-75.94 140.89,-82.42 146.76,-86.24"/>
</a>
</g>
</g>
<!-- Node7 -->
<g id="Node000007" class="node">
<title>Node7</title>
<g id="a_Node000007"><a xlink:href="node_8hpp.html" target="_top" xlink:title=" ">
<polygon fill="white" stroke="#666666" points="82.75,-141 0,-141 0,-110.5 82.75,-110.5 82.75,-141"/>
<text text-anchor="start" x="8" y="-127.5" font-family="Helvetica,sans-Serif" font-size="10.00">yaclib/util/detail</text>
<text text-anchor="middle" x="41.38" y="-116.25" font-family="Helvetica,sans-Serif" font-size="10.00">/node.hpp</text>
</a>
</g>
</g>
<!-- Node4&#45;&gt;Node7 -->
<g id="edge6_Node000004_Node000007" class="edge">
<title>Node4&#45;&gt;Node7</title>
<g id="a_edge6_Node000004_Node000007"><a xlink:title=" ">
<path fill="none" stroke="#63b8ff" d="M103.36,-182.28C93.76,-173.68 78.86,-160.33 66.08,-148.88"/>
<polygon fill="#63b8ff" stroke="#63b8ff" points="68.57,-146.42 58.79,-142.35 63.9,-151.63 68.57,-146.42"/>
</a>
</g>
</g>
<!-- Node8 -->
<g id="Node000008" class="node">
<title>Node8</title>
<g id="a_Node000008"><a xlink:href="func_8hpp.html" target="_top" xlink:title=" ">
<polygon fill="white" stroke="#666666" points="405.5,-135.38 309.25,-135.38 309.25,-116.12 405.5,-116.12 405.5,-135.38"/>
<text text-anchor="middle" x="357.38" y="-121.88" font-family="Helvetica,sans-Serif" font-size="10.00">yaclib/util/func.hpp</text>
</a>
</g>
</g>
<!-- Node4&#45;&gt;Node8 -->
<g id="edge7_Node000004_Node000008" class="edge">
<title>Node4&#45;&gt;Node8</title>
<g id="a_edge7_Node000004_Node000008"><a xlink:title=" ">
<path fill="none" stroke="#63b8ff" d="M147.82,-182.15C190.87,-170.77 264.67,-151.26 312.21,-138.69"/>
<polygon fill="#63b8ff" stroke="#63b8ff" points="312.87,-142.13 321.65,-136.19 311.08,-135.37 312.87,-142.13"/>
</a>
</g>
</g>
<!-- Node6 -->
<g id="Node000006" class="node">
<title>Node6</title>
<g id="a_Node000006"><a xlink:title=" ">
<polygon fill="#e0e0e0" stroke="#999999" points="189.12,-19.25 123.62,-19.25 123.62,0 189.12,0 189.12,-19.25"/>
<text text-anchor="middle" x="156.38" y="-5.75" font-family="Helvetica,sans-Serif" font-size="10.00">string_view</text>
</a>
</g>
</g>
<!-- Node5&#45;&gt;Node6 -->
<g id="edge5_Node000005_Node000006" class="edge">
<title>Node5&#45;&gt;Node6</title>
<g id="a_edge5_Node000005_Node000006"><a xlink:title=" ">
<path fill="none" stroke="#63b8ff" d="M156.38,-55.08C156.38,-48.57 156.38,-39.42 156.38,-31.12"/>
<polygon fill="#63b8ff" stroke="#63b8ff" points="159.88,-31.12 156.38,-21.12 152.88,-31.12 159.88,-31.12"/>
</a>
</g>
</g>
<!-- Node9 -->
<g id="Node000009" class="node">
<title>Node9</title>
<g id="a_Node000009"><a xlink:href="ref_8hpp.html" target="_top" xlink:title=" ">
<polygon fill="white" stroke="#666666" points="431.75,-74.5 343,-74.5 343,-55.25 431.75,-55.25 431.75,-74.5"/>
<text text-anchor="middle" x="387.38" y="-61" font-family="Helvetica,sans-Serif" font-size="10.00">yaclib/util/ref.hpp</text>
</a>
</g>
</g>
<!-- Node8&#45;&gt;Node9 -->
<g id="edge8_Node000008_Node000009" class="edge">
<title>Node8&#45;&gt;Node9</title>
<g id="a_edge8_Node000008_Node000009"><a xlink:title=" ">
<path fill="none" stroke="#63b8ff" d="M361.93,-115.81C366.07,-107.68 372.32,-95.42 377.59,-85.08"/>
<polygon fill="#63b8ff" stroke="#63b8ff" points="380.67,-86.75 382.09,-76.25 374.43,-83.57 380.67,-86.75"/>
</a>
</g>
</g>
<!-- Node10 -->
<g id="Node000010" class="node">
<title>Node10</title>
<g id="a_Node000010"><a xlink:title=" ">
<polygon fill="#e0e0e0" stroke="#999999" points="314.88,-74.5 253.88,-74.5 253.88,-55.25 314.88,-55.25 314.88,-74.5"/>
<text text-anchor="middle" x="284.38" y="-61" font-family="Helvetica,sans-Serif" font-size="10.00">type_traits</text>
</a>
</g>
</g>
<!-- Node8&#45;&gt;Node10 -->
<g id="edge9_Node000008_Node000010" class="edge">
<title>Node8&#45;&gt;Node10</title>
<g id="a_edge9_Node000008_Node000010"><a xlink:title=" ">
<path fill="none" stroke="#63b8ff" d="M346.29,-115.81C335.14,-106.82 317.71,-92.76 304.18,-81.85"/>
<polygon fill="#63b8ff" stroke="#63b8ff" points="306.73,-79.4 296.74,-75.85 302.33,-84.85 306.73,-79.4"/>
</a>
</g>
</g>
<!-- Node11 -->
<g id="Node000011" class="node">
<title>Node11</title>
<g id="a_Node000011"><a xlink:title=" ">
<polygon fill="#e0e0e0" stroke="#999999" points="493.62,-74.5 455.12,-74.5 455.12,-55.25 493.62,-55.25 493.62,-74.5"/>
<text text-anchor="middle" x="474.38" y="-61" font-family="Helvetica,sans-Serif" font-size="10.00">utility</text>
</a>
</g>
</g>
<!-- Node8&#45;&gt;Node11 -->
<g id="edge10_Node000008_Node000011" class="edge">
<title>Node8&#45;&gt;Node11</title>
<g id="a_edge10_Node000008_Node000011"><a xlink:title=" ">
<path fill="none" stroke="#63b8ff" d="M375.4,-115.68C394.35,-106.14 424.41,-91.02 446.44,-79.93"/>
<polygon fill="#63b8ff" stroke="#63b8ff" points="447.81,-83.16 455.17,-75.54 444.66,-76.91 447.81,-83.16"/>
</a>
</g>
</g>
<!-- Node12&#45;&gt;Node9 -->
<g id="edge12_Node000012_Node000009" class="edge">
<title>Node12&#45;&gt;Node9</title>
<g id="a_edge12_Node000012_Node000009"><a xlink:title=" ">
<path fill="none" stroke="#63b8ff" d="M273.8,-179.14C329.07,-165.21 412.17,-143.87 414.38,-141 427.53,-123.89 414.7,-99.81 402.62,-83.56"/>
<polygon fill="#63b8ff" stroke="#63b8ff" points="405.37,-81.39 396.39,-75.77 399.9,-85.76 405.37,-81.39"/>
</a>
</g>
</g>
<!-- Node12&#45;&gt;Node10 -->
<g id="edge13_Node000012_Node000010" class="edge">
<title>Node12&#45;&gt;Node10</title>
<g id="a_edge13_Node000012_Node000010"><a xlink:title=" ">
<path fill="none" stroke="#63b8ff" d="M238.19,-176.75C246.1,-167.17 255.93,-154.01 262.38,-141 271.23,-123.13 277.16,-101.05 280.61,-85.47"/>
<polygon fill="#63b8ff" stroke="#63b8ff" points="283.96,-86.56 282.55,-76.06 277.11,-85.14 283.96,-86.56"/>
</a>
</g>
</g>
<!-- Node13 -->
<g id="Node000013" class="node">
<title>Node13</title>
<g id="a_Node000013"><a xlink:href="intrusive__ptr__impl_8hpp.html" target="_top" xlink:title=" ">
<polygon fill="white" stroke="#666666" points="253.12,-141 139.62,-141 139.62,-110.5 253.12,-110.5 253.12,-141"/>
<text text-anchor="start" x="147.62" y="-127.5" font-family="Helvetica,sans-Serif" font-size="10.00">yaclib/util/detail</text>
<text text-anchor="middle" x="196.38" y="-116.25" font-family="Helvetica,sans-Serif" font-size="10.00">/intrusive_ptr_impl.hpp</text>
</a>
</g>
</g>
<!-- Node12&#45;&gt;Node13 -->
<g id="edge14_Node000012_Node000013" class="edge">
<title>Node12&#45;&gt;Node13</title>
<g id="a_edge14_Node000012_Node000013"><a xlink:title=" ">
<path fill="none" stroke="#63b8ff" d="M218.79,-176.61C215.49,-169.27 211.41,-160.18 207.63,-151.77"/>
<polygon fill="#63b8ff" stroke="#63b8ff" points="210.84,-150.39 203.55,-142.71 204.46,-153.26 210.84,-150.39"/>
</a>
</g>
</g>
<!-- Node13&#45;&gt;Node5 -->
<g id="edge15_Node000013_Node000005" class="edge">
<title>Node13&#45;&gt;Node5</title>
<g id="a_edge15_Node000013_Node000005"><a xlink:title=" ">
<path fill="none" stroke="#63b8ff" d="M186.49,-110.2C181.16,-102.35 174.53,-92.6 168.85,-84.24"/>
<polygon fill="#63b8ff" stroke="#63b8ff" points="171.91,-82.51 163.39,-76.2 166.12,-86.44 171.91,-82.51"/>
</a>
</g>
</g>
<!-- Node14&#45;&gt;Node7 -->
<g id="edge18_Node000014_Node000007" class="edge">
<title>Node14&#45;&gt;Node7</title>
<g id="a_edge18_Node000014_Node000007"><a xlink:title=" ">
<path fill="none" stroke="#63b8ff" d="M45.82,-243.23C44.99,-221.39 43.4,-179.77 42.36,-152.65"/>
<polygon fill="#63b8ff" stroke="#63b8ff" points="45.87,-152.71 41.99,-142.85 38.87,-152.97 45.87,-152.71"/>
</a>
</g>
</g>
<!-- Node16&#45;&gt;Node12 -->
<g id="edge29_Node000016_Node000012" class="edge">
<title>Node16&#45;&gt;Node12</title>
<g id="a_edge29_Node000016_Node000012"><a xlink:title=" ">
<path fill="none" stroke="#63b8ff" d="M345,-309.67C331.6,-295.41 304.4,-266.79 280.38,-243.5 270.71,-234.12 259.8,-224.06 250.27,-215.42"/>
<polygon fill="#63b8ff" stroke="#63b8ff" points="252.87,-213.06 243.1,-208.96 248.19,-218.26 252.87,-213.06"/>
</a>
</g>
</g>
<!-- Node17 -->
<g id="Node000017" class="node">
<title>Node17</title>
<g id="a_Node000017"><a xlink:href="atomic__counter_8hpp.html" target="_top" xlink:title=" ">
<polygon fill="white" stroke="#666666" points="506.25,-274 402.5,-274 402.5,-243.5 506.25,-243.5 506.25,-274"/>
<text text-anchor="start" x="410.5" y="-260.5" font-family="Helvetica,sans-Serif" font-size="10.00">yaclib/util/detail</text>
<text text-anchor="middle" x="454.38" y="-249.25" font-family="Helvetica,sans-Serif" font-size="10.00">/atomic_counter.hpp</text>
</a>
</g>
</g>
<!-- Node16&#45;&gt;Node17 -->
<g id="edge21_Node000016_Node000017" class="edge">
<title>Node16&#45;&gt;Node17</title>
<g id="a_edge21_Node000016_Node000017"><a xlink:title=" ">
<path fill="none" stroke="#63b8ff" d="M368.71,-309.68C382.18,-301.83 402.28,-290.12 419.62,-280.01"/>
<polygon fill="#63b8ff" stroke="#63b8ff" points="421.26,-283.1 428.14,-275.04 417.74,-277.06 421.26,-283.1"/>
</a>
</g>
</g>
<!-- Node21 -->
<g id="Node000021" class="node">
<title>Node21</title>
<g id="a_Node000021"><a xlink:href="unique__counter_8hpp.html" target="_top" xlink:title=" ">
<polygon fill="white" stroke="#666666" points="670.88,-274 567.88,-274 567.88,-243.5 670.88,-243.5 670.88,-274"/>
<text text-anchor="start" x="575.88" y="-260.5" font-family="Helvetica,sans-Serif" font-size="10.00">yaclib/util/detail</text>
<text text-anchor="middle" x="619.38" y="-249.25" font-family="Helvetica,sans-Serif" font-size="10.00">/unique_counter.hpp</text>
</a>
</g>
</g>
<!-- Node16&#45;&gt;Node21 -->
<g id="edge27_Node000016_Node000021" class="edge">
<title>Node16&#45;&gt;Node21</title>
<g id="a_edge27_Node000016_Node000021"><a xlink:title=" ">
<path fill="none" stroke="#63b8ff" d="M394.35,-309.55C437.57,-299.99 506.22,-284.79 556.34,-273.7"/>
<polygon fill="#63b8ff" stroke="#63b8ff" points="556.89,-277.16 565.9,-271.59 555.38,-270.33 556.89,-277.16"/>
</a>
</g>
</g>
<!-- Node17&#45;&gt;Node11 -->
<g id="edge25_Node000017_Node000011" class="edge">
<title>Node17&#45;&gt;Node11</title>
<g id="a_edge25_Node000017_Node000011"><a xlink:title=" ">
<path fill="none" stroke="#63b8ff" d="M455.91,-243.01C459.46,-208.95 468.24,-124.74 472.28,-85.98"/>
<polygon fill="#63b8ff" stroke="#63b8ff" points="475.74,-86.54 473.3,-76.23 468.78,-85.81 475.74,-86.54"/>
</a>
</g>
</g>
<!-- Node17&#45;&gt;Node15 -->
<g id="edge24_Node000017_Node000015" class="edge">
<title>Node17&#45;&gt;Node15</title>
<g id="a_edge24_Node000017_Node000015"><a xlink:title=" ">
<path fill="none" stroke="#63b8ff" d="M422.83,-243.11C399.46,-232.27 367.83,-217.59 344.94,-206.97"/>
<polygon fill="#63b8ff" stroke="#63b8ff" points="346.71,-203.93 336.16,-202.9 343.76,-210.28 346.71,-203.93"/>
</a>
</g>
</g>
<!-- Node18 -->
<g id="Node000018" class="node">
<title>Node18</title>
<g id="a_Node000018"><a xlink:title=" ">
<polygon fill="#e0e0e0" stroke="#999999" points="593,-201.88 505.75,-201.88 505.75,-182.62 593,-182.62 593,-201.88"/>
<text text-anchor="middle" x="549.38" y="-188.38" font-family="Helvetica,sans-Serif" font-size="10.00">yaclib/config.hpp</text>
</a>
</g>
</g>
<!-- Node17&#45;&gt;Node18 -->
<g id="edge22_Node000017_Node000018" class="edge">
<title>Node17&#45;&gt;Node18</title>
<g id="a_edge22_Node000017_Node000018"><a xlink:title=" ">
<path fill="none" stroke="#63b8ff" d="M475.93,-243.11C491.11,-232.81 511.39,-219.04 526.79,-208.58"/>
<polygon fill="#63b8ff" stroke="#63b8ff" points="528.55,-211.62 534.85,-203.11 524.61,-205.83 528.55,-211.62"/>
</a>
</g>
</g>
<!-- Node19 -->
<g id="Node000019" class="node">
<title>Node19</title>
<g id="a_Node000019"><a xlink:href="default__deleter_8hpp.html" target="_top" xlink:title=" ">
<polygon fill="white" stroke="#666666" points="711.75,-207.5 611,-207.5 611,-177 711.75,-177 711.75,-207.5"/>
<text text-anchor="start" x="619" y="-194" font-family="Helvetica,sans-Serif" font-size="10.00">yaclib/util/detail</text>
<text text-anchor="middle" x="661.38" y="-182.75" font-family="Helvetica,sans-Serif" font-size="10.00">/default_deleter.hpp</text>
</a>
</g>
</g>
<!-- Node17&#45;&gt;Node19 -->
<g id="edge23_Node000017_Node000019" class="edge">
<title>Node17&#45;&gt;Node19</title>
<g id="a_edge23_Node000017_Node000019"><a xlink:title=" ">
<path fill="none" stroke="#63b8ff" d="M501.61,-243.03C531.94,-233.58 571.55,-221.24 603.74,-211.21"/>
<polygon fill="#63b8ff" stroke="#63b8ff" points="604.4,-214.67 612.9,-208.35 602.31,-207.99 604.4,-214.67"/>
</a>
</g>
</g>
<!-- Node20 -->
<g id="Node000020" class="node">
<title>Node20</title>
<g id="a_Node000020"><a xlink:title=" ">
<polygon fill="#e0e0e0" stroke="#999999" points="449.25,-201.88 357.5,-201.88 357.5,-182.62 449.25,-182.62 449.25,-201.88"/>
<text text-anchor="middle" x="403.38" y="-188.38" font-family="Helvetica,sans-Serif" font-size="10.00">yaclib_std/atomic</text>
</a>
</g>
</g>
<!-- Node17&#45;&gt;Node20 -->
<g id="edge26_Node000017_Node000020" class="edge">
<title>Node17&#45;&gt;Node20</title>
<g id="a_edge26_Node000017_Node000020"><a xlink:title=" ">
<path fill="none" stroke="#63b8ff" d="M442.8,-243.11C435.23,-233.54 425.29,-220.97 417.29,-210.85"/>
<polygon fill="#63b8ff" stroke="#63b8ff" points="420.24,-208.93 411.29,-203.26 414.75,-213.27 420.24,-208.93"/>
</a>
</g>
</g>
<!-- Node21&#45;&gt;Node19 -->
<g id="edge28_Node000021_Node000019" class="edge">
<title>Node21&#45;&gt;Node19</title>
<g id="a_edge28_Node000021_Node000019"><a xlink:title=" ">
<path fill="none" stroke="#63b8ff" d="M628.91,-243.11C633.85,-235.53 640.01,-226.06 645.63,-217.43"/>
<polygon fill="#63b8ff" stroke="#63b8ff" points="648.53,-219.39 651.06,-209.1 642.67,-215.57 648.53,-219.39"/>
</a>
</g>
</g>
</g>
</svg>
