<?xml version="1.0" encoding="UTF-8" standalone="no"?>
<!DOCTYPE svg PUBLIC "-//W3C//DTD SVG 1.1//EN"
 "http://www.w3.org/Graphics/SVG/1.1/DTD/svg11.dtd">
<!-- Generated by graphviz version 9.0.0 (20230911.1827)
 -->
<!-- Title: include/yaclib/exe/manual.hpp Pages: 1 -->
<svg width="501pt" height="349pt"
 viewBox="0.00 0.00 501.38 348.50" xmlns="http://www.w3.org/2000/svg" xmlns:xlink="http://www.w3.org/1999/xlink">
<g id="graph0" class="graph" transform="scale(1 1) rotate(0) translate(4 344.5)">
<title>include/yaclib/exe/manual.hpp</title>
<!-- Node1 -->
<g id="Node000001" class="node">
<title>Node1</title>
<g id="a_Node000001"><a xlink:title=" ">
<polygon fill="#999999" stroke="#666666" points="318.25,-340.5 225.75,-340.5 225.75,-310 318.25,-310 318.25,-340.5"/>
<text text-anchor="start" x="233.75" y="-327" font-family="Helvetica,sans-Serif" font-size="10.00">include/yaclib/exe</text>
<text text-anchor="middle" x="272" y="-315.75" font-family="Helvetica,sans-Serif" font-size="10.00">/manual.hpp</text>
</a>
</g>
</g>
<!-- Node2 -->
<g id="Node000002" class="node">
<title>Node2</title>
<g id="a_Node000002"><a xlink:href="executor_8hpp.html" target="_top" xlink:title=" ">
<polygon fill="white" stroke="#666666" points="287.25,-268.38 170.75,-268.38 170.75,-249.12 287.25,-249.12 287.25,-268.38"/>
<text text-anchor="middle" x="229" y="-254.88" font-family="Helvetica,sans-Serif" font-size="10.00">yaclib/exe/executor.hpp</text>
</a>
</g>
</g>
<!-- Node1&#45;&gt;Node2 -->
<g id="edge1_Node000001_Node000002" class="edge">
<title>Node1&#45;&gt;Node2</title>
<g id="a_edge1_Node000001_Node000002"><a xlink:title=" ">
<path fill="none" stroke="#63b8ff" d="M262.24,-309.61C255.99,-300.23 247.83,-287.99 241.15,-277.98"/>
<polygon fill="#63b8ff" stroke="#63b8ff" points="244.18,-276.21 235.72,-269.83 238.36,-280.09 244.18,-276.21"/>
</a>
</g>
</g>
<!-- Node3 -->
<g id="Node000003" class="node">
<title>Node3</title>
<g id="a_Node000003"><a xlink:href="job_8hpp.html" target="_top" xlink:title=" ">
<polygon fill="white" stroke="#666666" points="361.25,-201.88 268.75,-201.88 268.75,-182.62 361.25,-182.62 361.25,-201.88"/>
<text text-anchor="middle" x="315" y="-188.38" font-family="Helvetica,sans-Serif" font-size="10.00">yaclib/exe/job.hpp</text>
</a>
</g>
</g>
<!-- Node1&#45;&gt;Node3 -->
<g id="edge16_Node000001_Node000003" class="edge">
<title>Node1&#45;&gt;Node3</title>
<g id="a_edge16_Node000001_Node000003"><a xlink:title=" ">
<path fill="none" stroke="#63b8ff" d="M280,-309.65C285.14,-299.81 291.64,-286.4 296,-274 303.16,-253.65 308.45,-229.46 311.6,-212.9"/>
<polygon fill="#63b8ff" stroke="#63b8ff" points="314.98,-213.86 313.32,-203.4 308.1,-212.61 314.98,-213.86"/>
</a>
</g>
</g>
<!-- Node9 -->
<g id="Node000009" class="node">
<title>Node9</title>
<g id="a_Node000009"><a xlink:title=" ">
<polygon fill="#e0e0e0" stroke="#999999" points="60.12,-19.25 11.88,-19.25 11.88,0 60.12,0 60.12,-19.25"/>
<text text-anchor="middle" x="36" y="-5.75" font-family="Helvetica,sans-Serif" font-size="10.00">cstddef</text>
</a>
</g>
</g>
<!-- Node1&#45;&gt;Node9 -->
<g id="edge19_Node000001_Node000009" class="edge">
<title>Node1&#45;&gt;Node9</title>
<g id="a_edge19_Node000001_Node000009"><a xlink:title=" ">
<path fill="none" stroke="#63b8ff" d="M225.55,-322.36C147.86,-316.44 0,-292.18 0,-193.25 0,-193.25 0,-193.25 0,-124.75 0,-89.9 15.46,-51.71 26.12,-29.53"/>
<polygon fill="#63b8ff" stroke="#63b8ff" points="29.12,-31.36 30.47,-20.85 22.86,-28.22 29.12,-31.36"/>
</a>
</g>
</g>
<!-- Node14 -->
<g id="Node000014" class="node">
<title>Node14</title>
<g id="a_Node000014"><a xlink:href="intrusive__list_8hpp.html" target="_top" xlink:title=" ">
<polygon fill="white" stroke="#666666" points="434.88,-274 343.12,-274 343.12,-243.5 434.88,-243.5 434.88,-274"/>
<text text-anchor="start" x="351.12" y="-260.5" font-family="Helvetica,sans-Serif" font-size="10.00">yaclib/util/detail</text>
<text text-anchor="middle" x="389" y="-249.25" font-family="Helvetica,sans-Serif" font-size="10.00">/intrusive_list.hpp</text>
</a>
</g>
</g>
<!-- Node1&#45;&gt;Node14 -->
<g id="edge17_Node000001_Node000014" class="edge">
<title>Node1&#45;&gt;Node14</title>
<g id="a_edge17_Node000001_Node000014"><a xlink:title=" ">
<path fill="none" stroke="#63b8ff" d="M298.55,-309.61C314.56,-300.79 335.17,-289.43 352.67,-279.78"/>
<polygon fill="#63b8ff" stroke="#63b8ff" points="354.16,-282.95 361.23,-275.06 350.78,-276.82 354.16,-282.95"/>
</a>
</g>
</g>
<!-- Node2&#45;&gt;Node3 -->
<g id="edge2_Node000002_Node000003" class="edge">
<title>Node2&#45;&gt;Node3</title>
<g id="a_edge2_Node000002_Node000003"><a xlink:title=" ">
<path fill="none" stroke="#63b8ff" d="M240.96,-248.78C254.62,-238.54 277.22,-221.59 293.87,-209.1"/>
<polygon fill="#63b8ff" stroke="#63b8ff" points="295.76,-212.06 301.66,-203.26 291.56,-206.46 295.76,-212.06"/>
</a>
</g>
</g>
<!-- Node12 -->
<g id="Node000012" class="node">
<title>Node12</title>
<g id="a_Node000012"><a xlink:href="intrusive__ptr_8hpp.html" target="_top" xlink:title=" ">
<polygon fill="white" stroke="#666666" points="168.12,-207.5 71.88,-207.5 71.88,-177 168.12,-177 168.12,-207.5"/>
<text text-anchor="start" x="79.88" y="-194" font-family="Helvetica,sans-Serif" font-size="10.00">yaclib/util/intrusive</text>
<text text-anchor="middle" x="120" y="-182.75" font-family="Helvetica,sans-Serif" font-size="10.00">_ptr.hpp</text>
</a>
</g>
</g>
<!-- Node2&#45;&gt;Node12 -->
<g id="edge11_Node000002_Node000012" class="edge">
<title>Node2&#45;&gt;Node12</title>
<g id="a_edge11_Node000002_Node000012"><a xlink:title=" ">
<path fill="none" stroke="#63b8ff" d="M213.84,-248.78C198.53,-239.72 174.35,-225.41 154.36,-213.58"/>
<polygon fill="#63b8ff" stroke="#63b8ff" points="156.35,-210.69 145.96,-208.61 152.78,-216.72 156.35,-210.69"/>
</a>
</g>
</g>
<!-- Node4 -->
<g id="Node000004" class="node">
<title>Node4</title>
<g id="a_Node000004"><a xlink:href="log_8hpp.html" target="_top" xlink:title=" ">
<polygon fill="white" stroke="#666666" points="377.25,-74.5 302.75,-74.5 302.75,-55.25 377.25,-55.25 377.25,-74.5"/>
<text text-anchor="middle" x="340" y="-61" font-family="Helvetica,sans-Serif" font-size="10.00">yaclib/log.hpp</text>
</a>
</g>
</g>
<!-- Node3&#45;&gt;Node4 -->
<g id="edge3_Node000003_Node000004" class="edge">
<title>Node3&#45;&gt;Node4</title>
<g id="a_edge3_Node000003_Node000004"><a xlink:title=" ">
<path fill="none" stroke="#63b8ff" d="M328.31,-182.3C340.21,-173.42 356.84,-158.61 364,-141 371.71,-122.04 362.23,-99.6 353.01,-84.22"/>
<polygon fill="#63b8ff" stroke="#63b8ff" points="356.1,-82.55 347.71,-76.09 350.24,-86.38 356.1,-82.55"/>
</a>
</g>
</g>
<!-- Node6 -->
<g id="Node000006" class="node">
<title>Node6</title>
<g id="a_Node000006"><a xlink:href="node_8hpp.html" target="_top" xlink:title=" ">
<polygon fill="white" stroke="#666666" points="493.38,-141 410.62,-141 410.62,-110.5 493.38,-110.5 493.38,-141"/>
<text text-anchor="start" x="418.62" y="-127.5" font-family="Helvetica,sans-Serif" font-size="10.00">yaclib/util/detail</text>
<text text-anchor="middle" x="452" y="-116.25" font-family="Helvetica,sans-Serif" font-size="10.00">/node.hpp</text>
</a>
</g>
</g>
<!-- Node3&#45;&gt;Node6 -->
<g id="edge5_Node000003_Node000006" class="edge">
<title>Node3&#45;&gt;Node6</title>
<g id="a_edge5_Node000003_Node000006"><a xlink:title=" ">
<path fill="none" stroke="#63b8ff" d="M334.34,-182.15C354.11,-172.84 385.43,-158.09 410.79,-146.15"/>
<polygon fill="#63b8ff" stroke="#63b8ff" points="411.96,-149.47 419.52,-142.04 408.98,-143.14 411.96,-149.47"/>
</a>
</g>
</g>
<!-- Node7 -->
<g id="Node000007" class="node">
<title>Node7</title>
<g id="a_Node000007"><a xlink:href="func_8hpp.html" target="_top" xlink:title=" ">
<polygon fill="white" stroke="#666666" points="223.12,-135.38 126.88,-135.38 126.88,-116.12 223.12,-116.12 223.12,-135.38"/>
<text text-anchor="middle" x="175" y="-121.88" font-family="Helvetica,sans-Serif" font-size="10.00">yaclib/util/func.hpp</text>
</a>
</g>
</g>
<!-- Node3&#45;&gt;Node7 -->
<g id="edge6_Node000003_Node000007" class="edge">
<title>Node3&#45;&gt;Node7</title>
<g id="a_edge6_Node000003_Node000007"><a xlink:title=" ">
<path fill="none" stroke="#63b8ff" d="M295.24,-182.15C271.68,-171.29 232.09,-153.05 204.81,-140.48"/>
<polygon fill="#63b8ff" stroke="#63b8ff" points="206.58,-137.45 196.04,-136.44 203.65,-143.8 206.58,-137.45"/>
</a>
</g>
</g>
<!-- Node5 -->
<g id="Node000005" class="node">
<title>Node5</title>
<g id="a_Node000005"><a xlink:title=" ">
<polygon fill="#e0e0e0" stroke="#999999" points="372.75,-19.25 307.25,-19.25 307.25,0 372.75,0 372.75,-19.25"/>
<text text-anchor="middle" x="340" y="-5.75" font-family="Helvetica,sans-Serif" font-size="10.00">string_view</text>
</a>
</g>
</g>
<!-- Node4&#45;&gt;Node5 -->
<g id="edge4_Node000004_Node000005" class="edge">
<title>Node4&#45;&gt;Node5</title>
<g id="a_edge4_Node000004_Node000005"><a xlink:title=" ">
<path fill="none" stroke="#63b8ff" d="M340,-55.08C340,-48.57 340,-39.42 340,-31.12"/>
<polygon fill="#63b8ff" stroke="#63b8ff" points="343.5,-31.12 340,-21.12 336.5,-31.12 343.5,-31.12"/>
</a>
</g>
</g>
<!-- Node8 -->
<g id="Node000008" class="node">
<title>Node8</title>
<g id="a_Node000008"><a xlink:href="ref_8hpp.html" target="_top" xlink:title=" ">
<polygon fill="white" stroke="#666666" points="116.38,-74.5 27.62,-74.5 27.62,-55.25 116.38,-55.25 116.38,-74.5"/>
<text text-anchor="middle" x="72" y="-61" font-family="Helvetica,sans-Serif" font-size="10.00">yaclib/util/ref.hpp</text>
</a>
</g>
</g>
<!-- Node7&#45;&gt;Node8 -->
<g id="edge7_Node000007_Node000008" class="edge">
<title>Node7&#45;&gt;Node8</title>
<g id="a_edge7_Node000007_Node000008"><a xlink:title=" ">
<path fill="none" stroke="#63b8ff" d="M159.36,-115.81C143.02,-106.47 117.13,-91.67 97.77,-80.61"/>
<polygon fill="#63b8ff" stroke="#63b8ff" points="99.52,-77.58 89.1,-75.65 96.05,-83.65 99.52,-77.58"/>
</a>
</g>
</g>
<!-- Node10 -->
<g id="Node000010" class="node">
<title>Node10</title>
<g id="a_Node000010"><a xlink:title=" ">
<polygon fill="#e0e0e0" stroke="#999999" points="195.5,-74.5 134.5,-74.5 134.5,-55.25 195.5,-55.25 195.5,-74.5"/>
<text text-anchor="middle" x="165" y="-61" font-family="Helvetica,sans-Serif" font-size="10.00">type_traits</text>
</a>
</g>
</g>
<!-- Node7&#45;&gt;Node10 -->
<g id="edge9_Node000007_Node000010" class="edge">
<title>Node7&#45;&gt;Node10</title>
<g id="a_edge9_Node000007_Node000010"><a xlink:title=" ">
<path fill="none" stroke="#63b8ff" d="M173.48,-115.81C172.14,-107.94 170.15,-96.2 168.43,-86.07"/>
<polygon fill="#63b8ff" stroke="#63b8ff" points="171.91,-85.67 166.79,-76.39 165.01,-86.84 171.91,-85.67"/>
</a>
</g>
</g>
<!-- Node11 -->
<g id="Node000011" class="node">
<title>Node11</title>
<g id="a_Node000011"><a xlink:title=" ">
<polygon fill="#e0e0e0" stroke="#999999" points="252.25,-74.5 213.75,-74.5 213.75,-55.25 252.25,-55.25 252.25,-74.5"/>
<text text-anchor="middle" x="233" y="-61" font-family="Helvetica,sans-Serif" font-size="10.00">utility</text>
</a>
</g>
</g>
<!-- Node7&#45;&gt;Node11 -->
<g id="edge10_Node000007_Node000011" class="edge">
<title>Node7&#45;&gt;Node11</title>
<g id="a_edge10_Node000007_Node000011"><a xlink:title=" ">
<path fill="none" stroke="#63b8ff" d="M183.81,-115.81C192.41,-107.08 205.72,-93.57 216.32,-82.8"/>
<polygon fill="#63b8ff" stroke="#63b8ff" points="218.52,-85.56 223.05,-75.98 213.53,-80.65 218.52,-85.56"/>
</a>
</g>
</g>
<!-- Node8&#45;&gt;Node9 -->
<g id="edge8_Node000008_Node000009" class="edge">
<title>Node8&#45;&gt;Node9</title>
<g id="a_edge8_Node000008_Node000009"><a xlink:title=" ">
<path fill="none" stroke="#63b8ff" d="M66.06,-55.08C61.29,-48.03 54.44,-37.9 48.48,-29.08"/>
<polygon fill="#63b8ff" stroke="#63b8ff" points="51.42,-27.19 42.92,-20.86 45.62,-31.11 51.42,-27.19"/>
</a>
</g>
</g>
<!-- Node12&#45;&gt;Node8 -->
<g id="edge12_Node000012_Node000008" class="edge">
<title>Node12&#45;&gt;Node8</title>
<g id="a_edge12_Node000012_Node000008"><a xlink:title=" ">
<path fill="none" stroke="#63b8ff" d="M114.49,-176.87C105.86,-154.32 89.14,-110.63 79.44,-85.31"/>
<polygon fill="#63b8ff" stroke="#63b8ff" points="82.81,-84.32 75.97,-76.23 76.27,-86.82 82.81,-84.32"/>
</a>
</g>
</g>
<!-- Node12&#45;&gt;Node10 -->
<g id="edge13_Node000012_Node000010" class="edge">
<title>Node12&#45;&gt;Node10</title>
<g id="a_edge13_Node000012_Node000010"><a xlink:title=" ">
<path fill="none" stroke="#63b8ff" d="M116.09,-176.56C112.43,-159.83 108.76,-132.02 118,-110.5 122.93,-99.02 132.42,-89.11 141.59,-81.56"/>
<polygon fill="#63b8ff" stroke="#63b8ff" points="143.41,-84.57 149.27,-75.74 139.18,-78.99 143.41,-84.57"/>
</a>
</g>
</g>
<!-- Node13 -->
<g id="Node000013" class="node">
<title>Node13</title>
<g id="a_Node000013"><a xlink:href="intrusive__ptr__impl_8hpp.html" target="_top" xlink:title=" ">
<polygon fill="white" stroke="#666666" points="354.75,-141 241.25,-141 241.25,-110.5 354.75,-110.5 354.75,-141"/>
<text text-anchor="start" x="249.25" y="-127.5" font-family="Helvetica,sans-Serif" font-size="10.00">yaclib/util/detail</text>
<text text-anchor="middle" x="298" y="-116.25" font-family="Helvetica,sans-Serif" font-size="10.00">/intrusive_ptr_impl.hpp</text>
</a>
</g>
</g>
<!-- Node12&#45;&gt;Node13 -->
<g id="edge14_Node000012_Node000013" class="edge">
<title>Node12&#45;&gt;Node13</title>
<g id="a_edge14_Node000012_Node000013"><a xlink:title=" ">
<path fill="none" stroke="#63b8ff" d="M160.39,-176.61C186.02,-167.33 219.4,-155.23 246.87,-145.28"/>
<polygon fill="#63b8ff" stroke="#63b8ff" points="247.83,-148.65 256.04,-141.96 245.44,-142.07 247.83,-148.65"/>
</a>
</g>
</g>
<!-- Node13&#45;&gt;Node4 -->
<g id="edge15_Node000013_Node000004" class="edge">
<title>Node13&#45;&gt;Node4</title>
<g id="a_edge15_Node000013_Node000004"><a xlink:title=" ">
<path fill="none" stroke="#63b8ff" d="M308.38,-110.2C313.98,-102.35 320.94,-92.6 326.9,-84.24"/>
<polygon fill="#63b8ff" stroke="#63b8ff" points="329.69,-86.36 332.65,-76.18 323.99,-82.29 329.69,-86.36"/>
</a>
</g>
</g>
<!-- Node14&#45;&gt;Node6 -->
<g id="edge18_Node000014_Node000006" class="edge">
<title>Node14&#45;&gt;Node6</title>
<g id="a_edge18_Node000014_Node000006"><a xlink:title=" ">
<path fill="none" stroke="#63b8ff" d="M395.98,-243.23C406.63,-221.1 427.04,-178.65 440.07,-151.56"/>
<polygon fill="#63b8ff" stroke="#63b8ff" points="443.15,-153.23 444.33,-142.7 436.84,-150.19 443.15,-153.23"/>
</a>
</g>
</g>
</g>
</svg>
