<?xml version="1.0" encoding="UTF-8" standalone="no"?>
<!DOCTYPE svg PUBLIC "-//W3C//DTD SVG 1.1//EN"
 "http://www.w3.org/Graphics/SVG/1.1/DTD/svg11.dtd">
<!-- Generated by graphviz version 3.0.0 (20220413.0242)
 -->
<!-- Title: include/yaclib/executor/manual.hpp Pages: 1 -->
<svg width="857pt" height="341pt"
 viewBox="0.00 0.00 856.50 341.00" xmlns="http://www.w3.org/2000/svg" xmlns:xlink="http://www.w3.org/1999/xlink">
<g id="graph0" class="graph" transform="scale(1 1) rotate(0) translate(4 337)">
<title>include/yaclib/executor/manual.hpp</title>
<!-- Node1 -->
<g id="node1" class="node">
<title>Node1</title>
<g id="a_node1"><a xlink:title=" ">
<polygon fill="#bfbfbf" stroke="black" points="190,-302.5 190,-332.5 305,-332.5 305,-302.5 190,-302.5"/>
<text text-anchor="start" x="198" y="-320.5" font-family="Helvetica,sans-Serif" font-size="10.00">include/yaclib/executor</text>
<text text-anchor="middle" x="247.5" y="-309.5" font-family="Helvetica,sans-Serif" font-size="10.00">/manual.hpp</text>
</a>
</g>
</g>
<!-- Node2 -->
<g id="node2" class="node">
<title>Node2</title>
<g id="a_node2"><a xlink:href="intrusive__list_8hpp.html" target="_top" xlink:title=" ">
<polygon fill="none" stroke="black" points="2,-246.5 2,-265.5 107,-265.5 107,-246.5 2,-246.5"/>
<text text-anchor="middle" x="54.5" y="-253.5" font-family="Helvetica,sans-Serif" font-size="10.00">util/intrusive_list.hpp</text>
</a>
</g>
</g>
<!-- Node1&#45;&gt;Node2 -->
<g id="edge1" class="edge">
<title>Node1&#45;&gt;Node2</title>
<path fill="none" stroke="midnightblue" d="M201.76,-302.4C168.27,-292.07 123.37,-278.23 91.98,-268.56"/>
<polygon fill="midnightblue" stroke="midnightblue" points="92.89,-265.17 82.3,-265.57 90.83,-271.86 92.89,-265.17"/>
</g>
<!-- Node4 -->
<g id="node4" class="node">
<title>Node4</title>
<g id="a_node4"><a xlink:href="executor_8hpp.html" target="_top" xlink:title=" ">
<polygon fill="none" stroke="black" points="129,-246.5 129,-265.5 268,-265.5 268,-246.5 129,-246.5"/>
<text text-anchor="middle" x="198.5" y="-253.5" font-family="Helvetica,sans-Serif" font-size="10.00">yaclib/executor/executor.hpp</text>
</a>
</g>
</g>
<!-- Node1&#45;&gt;Node4 -->
<g id="edge3" class="edge">
<title>Node1&#45;&gt;Node4</title>
<path fill="none" stroke="midnightblue" d="M235.89,-302.4C228.77,-293.75 219.62,-282.64 212.15,-273.58"/>
<polygon fill="midnightblue" stroke="midnightblue" points="214.69,-271.15 205.63,-265.66 209.29,-275.6 214.69,-271.15"/>
</g>
<!-- Node10 -->
<g id="node10" class="node">
<title>Node10</title>
<g id="a_node10"><a xlink:href="intrusive__ptr_8hpp.html" target="_top" xlink:title=" ">
<polygon fill="none" stroke="black" points="248,-179.5 248,-209.5 345,-209.5 345,-179.5 248,-179.5"/>
<text text-anchor="start" x="256" y="-197.5" font-family="Helvetica,sans-Serif" font-size="10.00">yaclib/util/intrusive</text>
<text text-anchor="middle" x="296.5" y="-186.5" font-family="Helvetica,sans-Serif" font-size="10.00">_ptr.hpp</text>
</a>
</g>
</g>
<!-- Node1&#45;&gt;Node10 -->
<g id="edge26" class="edge">
<title>Node1&#45;&gt;Node10</title>
<path fill="none" stroke="midnightblue" d="M256.85,-302.4C263.08,-292.53 271.08,-278.86 276.5,-266 282.84,-250.96 287.85,-233.29 291.27,-219.4"/>
<polygon fill="midnightblue" stroke="midnightblue" points="294.68,-220.16 293.57,-209.62 287.87,-218.55 294.68,-220.16"/>
</g>
<!-- Node14 -->
<g id="node14" class="node">
<title>Node14</title>
<g id="a_node14"><a xlink:href="helper_8hpp.html" target="_top" xlink:title=" ">
<polygon fill="none" stroke="black" points="369.5,-246.5 369.5,-265.5 473.5,-265.5 473.5,-246.5 369.5,-246.5"/>
<text text-anchor="middle" x="421.5" y="-253.5" font-family="Helvetica,sans-Serif" font-size="10.00">yaclib/util/helper.hpp</text>
</a>
</g>
</g>
<!-- Node1&#45;&gt;Node14 -->
<g id="edge16" class="edge">
<title>Node1&#45;&gt;Node14</title>
<path fill="none" stroke="midnightblue" d="M288.74,-302.4C318.67,-292.16 358.71,-278.47 386.97,-268.81"/>
<polygon fill="midnightblue" stroke="midnightblue" points="388.11,-272.12 396.44,-265.57 385.84,-265.49 388.11,-272.12"/>
</g>
<!-- Node3 -->
<g id="node3" class="node">
<title>Node3</title>
<g id="a_node3"><a xlink:href="node_8hpp.html" target="_top" xlink:title=" ">
<polygon fill="none" stroke="black" points="0,-112.5 0,-142.5 83,-142.5 83,-112.5 0,-112.5"/>
<text text-anchor="start" x="8" y="-130.5" font-family="Helvetica,sans-Serif" font-size="10.00">yaclib/util/detail</text>
<text text-anchor="middle" x="41.5" y="-119.5" font-family="Helvetica,sans-Serif" font-size="10.00">/node.hpp</text>
</a>
</g>
</g>
<!-- Node2&#45;&gt;Node3 -->
<g id="edge2" class="edge">
<title>Node2&#45;&gt;Node3</title>
<path fill="none" stroke="midnightblue" d="M53.61,-246.31C51.65,-227.3 46.94,-181.47 44.01,-152.9"/>
<polygon fill="midnightblue" stroke="midnightblue" points="47.48,-152.48 42.98,-142.89 40.52,-153.19 47.48,-152.48"/>
</g>
<!-- Node5 -->
<g id="node5" class="node">
<title>Node5</title>
<g id="a_node5"><a xlink:href="job_8hpp.html" target="_top" xlink:title=" ">
<polygon fill="none" stroke="black" points="115,-185 115,-204 230,-204 230,-185 115,-185"/>
<text text-anchor="middle" x="172.5" y="-192" font-family="Helvetica,sans-Serif" font-size="10.00">yaclib/executor/job.hpp</text>
</a>
</g>
</g>
<!-- Node4&#45;&gt;Node5 -->
<g id="edge4" class="edge">
<title>Node4&#45;&gt;Node5</title>
<path fill="none" stroke="midnightblue" d="M194.77,-246.48C191.03,-237.9 185.14,-224.43 180.36,-213.48"/>
<polygon fill="midnightblue" stroke="midnightblue" points="183.43,-211.77 176.22,-204.01 177.02,-214.57 183.43,-211.77"/>
</g>
<!-- Node4&#45;&gt;Node10 -->
<g id="edge10" class="edge">
<title>Node4&#45;&gt;Node10</title>
<path fill="none" stroke="midnightblue" d="M212.54,-246.48C226.06,-238.27 246.99,-225.56 264.57,-214.88"/>
<polygon fill="midnightblue" stroke="midnightblue" points="266.67,-217.7 273.4,-209.52 263.04,-211.72 266.67,-217.7"/>
</g>
<!-- Node5&#45;&gt;Node3 -->
<g id="edge5" class="edge">
<title>Node5&#45;&gt;Node3</title>
<path fill="none" stroke="midnightblue" d="M155.1,-184.87C135.85,-175.31 104.23,-159.63 79.24,-147.22"/>
<polygon fill="midnightblue" stroke="midnightblue" points="80.53,-143.96 70.02,-142.65 77.42,-150.23 80.53,-143.96"/>
</g>
<!-- Node6 -->
<g id="node6" class="node">
<title>Node6</title>
<g id="a_node6"><a xlink:href="func_8hpp.html" target="_top" xlink:title=" ">
<polygon fill="none" stroke="black" points="140,-118 140,-137 237,-137 237,-118 140,-118"/>
<text text-anchor="middle" x="188.5" y="-125" font-family="Helvetica,sans-Serif" font-size="10.00">yaclib/util/func.hpp</text>
</a>
</g>
</g>
<!-- Node5&#45;&gt;Node6 -->
<g id="edge6" class="edge">
<title>Node5&#45;&gt;Node6</title>
<path fill="none" stroke="midnightblue" d="M174.66,-184.73C177.03,-175.09 180.92,-159.3 183.97,-146.91"/>
<polygon fill="midnightblue" stroke="midnightblue" points="187.38,-147.67 186.38,-137.13 180.59,-146 187.38,-147.67"/>
</g>
<!-- Node7 -->
<g id="node7" class="node">
<title>Node7</title>
<g id="a_node7"><a xlink:href="ref_8hpp.html" target="_top" xlink:title=" ">
<polygon fill="none" stroke="black" points="160,-56.5 160,-75.5 249,-75.5 249,-56.5 160,-56.5"/>
<text text-anchor="middle" x="204.5" y="-63.5" font-family="Helvetica,sans-Serif" font-size="10.00">yaclib/util/ref.hpp</text>
</a>
</g>
</g>
<!-- Node6&#45;&gt;Node7 -->
<g id="edge7" class="edge">
<title>Node6&#45;&gt;Node7</title>
<path fill="none" stroke="midnightblue" d="M190.79,-117.98C193.07,-109.49 196.65,-96.2 199.57,-85.32"/>
<polygon fill="midnightblue" stroke="midnightblue" points="202.99,-86.07 202.21,-75.51 196.24,-84.26 202.99,-86.07"/>
</g>
<!-- Node8 -->
<g id="node8" class="node">
<title>Node8</title>
<g id="a_node8"><a xlink:title=" ">
<polygon fill="none" stroke="#bfbfbf" points="80.5,-56.5 80.5,-75.5 142.5,-75.5 142.5,-56.5 80.5,-56.5"/>
<text text-anchor="middle" x="111.5" y="-63.5" font-family="Helvetica,sans-Serif" font-size="10.00">type_traits</text>
</a>
</g>
</g>
<!-- Node6&#45;&gt;Node8 -->
<g id="edge8" class="edge">
<title>Node6&#45;&gt;Node8</title>
<path fill="none" stroke="midnightblue" d="M177.47,-117.98C165.23,-108.52 145.27,-93.1 130.51,-81.69"/>
<polygon fill="midnightblue" stroke="midnightblue" points="132.56,-78.85 122.51,-75.51 128.28,-84.39 132.56,-78.85"/>
</g>
<!-- Node9 -->
<g id="node9" class="node">
<title>Node9</title>
<g id="a_node9"><a xlink:title=" ">
<polygon fill="none" stroke="#bfbfbf" points="267,-56.5 267,-75.5 306,-75.5 306,-56.5 267,-56.5"/>
<text text-anchor="middle" x="286.5" y="-63.5" font-family="Helvetica,sans-Serif" font-size="10.00">utility</text>
</a>
</g>
</g>
<!-- Node6&#45;&gt;Node9 -->
<g id="edge9" class="edge">
<title>Node6&#45;&gt;Node9</title>
<path fill="none" stroke="midnightblue" d="M202.54,-117.98C218.55,-108.25 244.95,-92.23 263.87,-80.74"/>
<polygon fill="midnightblue" stroke="midnightblue" points="265.75,-83.69 272.49,-75.51 262.12,-77.71 265.75,-83.69"/>
</g>
<!-- Node10&#45;&gt;Node7 -->
<g id="edge11" class="edge">
<title>Node10&#45;&gt;Node7</title>
<path fill="none" stroke="midnightblue" d="M288.74,-179.45C279.31,-162.79 262.55,-134.47 245.5,-112 237.75,-101.79 228.15,-91.16 220.18,-82.79"/>
<polygon fill="midnightblue" stroke="midnightblue" points="222.64,-80.3 213.16,-75.55 217.61,-85.17 222.64,-80.3"/>
</g>
<!-- Node10&#45;&gt;Node8 -->
<g id="edge12" class="edge">
<title>Node10&#45;&gt;Node8</title>
<path fill="none" stroke="midnightblue" d="M247.91,-181.32C201.96,-169.39 138.83,-151.76 130.5,-143 115.96,-127.7 112.06,-103.02 111.25,-85.96"/>
<polygon fill="midnightblue" stroke="midnightblue" points="114.75,-85.51 111.09,-75.57 107.75,-85.62 114.75,-85.51"/>
</g>
<!-- Node11 -->
<g id="node11" class="node">
<title>Node11</title>
<g id="a_node11"><a xlink:href="intrusive__ptr__impl_8hpp.html" target="_top" xlink:title=" ">
<polygon fill="none" stroke="black" points="293.5,-112.5 293.5,-142.5 407.5,-142.5 407.5,-112.5 293.5,-112.5"/>
<text text-anchor="start" x="301.5" y="-130.5" font-family="Helvetica,sans-Serif" font-size="10.00">yaclib/util/detail</text>
<text text-anchor="middle" x="350.5" y="-119.5" font-family="Helvetica,sans-Serif" font-size="10.00">/intrusive_ptr_impl.hpp</text>
</a>
</g>
</g>
<!-- Node10&#45;&gt;Node11 -->
<g id="edge13" class="edge">
<title>Node10&#45;&gt;Node11</title>
<path fill="none" stroke="midnightblue" d="M308.22,-179.4C315.22,-170.96 324.27,-160.07 332.21,-150.52"/>
<polygon fill="midnightblue" stroke="midnightblue" points="335.11,-152.51 338.81,-142.58 329.72,-148.03 335.11,-152.51"/>
</g>
<!-- Node12 -->
<g id="node12" class="node">
<title>Node12</title>
<g id="a_node12"><a xlink:href="log_8hpp.html" target="_top" xlink:title=" ">
<polygon fill="none" stroke="black" points="324,-56.5 324,-75.5 399,-75.5 399,-56.5 324,-56.5"/>
<text text-anchor="middle" x="361.5" y="-63.5" font-family="Helvetica,sans-Serif" font-size="10.00">yaclib/log.hpp</text>
</a>
</g>
</g>
<!-- Node11&#45;&gt;Node12 -->
<g id="edge14" class="edge">
<title>Node11&#45;&gt;Node12</title>
<path fill="none" stroke="midnightblue" d="M353.11,-112.4C354.59,-104.38 356.47,-94.23 358.07,-85.57"/>
<polygon fill="midnightblue" stroke="midnightblue" points="361.52,-86.13 359.9,-75.66 354.64,-84.85 361.52,-86.13"/>
</g>
<!-- Node13 -->
<g id="node13" class="node">
<title>Node13</title>
<g id="a_node13"><a xlink:title=" ">
<polygon fill="none" stroke="#bfbfbf" points="328.5,-0.5 328.5,-19.5 394.5,-19.5 394.5,-0.5 328.5,-0.5"/>
<text text-anchor="middle" x="361.5" y="-7.5" font-family="Helvetica,sans-Serif" font-size="10.00">string_view</text>
</a>
</g>
</g>
<!-- Node12&#45;&gt;Node13 -->
<g id="edge15" class="edge">
<title>Node12&#45;&gt;Node13</title>
<path fill="none" stroke="midnightblue" d="M361.5,-56.08C361.5,-49.01 361.5,-38.86 361.5,-29.99"/>
<polygon fill="midnightblue" stroke="midnightblue" points="365,-29.75 361.5,-19.75 358,-29.75 365,-29.75"/>
</g>
<!-- Node14&#45;&gt;Node10 -->
<g id="edge25" class="edge">
<title>Node14&#45;&gt;Node10</title>
<path fill="none" stroke="midnightblue" d="M403.59,-246.48C385.79,-238 357.92,-224.74 335.08,-213.86"/>
<polygon fill="midnightblue" stroke="midnightblue" points="336.49,-210.66 325.96,-209.52 333.49,-216.98 336.49,-210.66"/>
</g>
<!-- Node15 -->
<g id="node15" class="node">
<title>Node15</title>
<g id="a_node15"><a xlink:href="atomic__counter_8hpp.html" target="_top" xlink:title=" ">
<polygon fill="none" stroke="black" points="553.5,-179.5 553.5,-209.5 657.5,-209.5 657.5,-179.5 553.5,-179.5"/>
<text text-anchor="start" x="561.5" y="-197.5" font-family="Helvetica,sans-Serif" font-size="10.00">yaclib/util/detail</text>
<text text-anchor="middle" x="605.5" y="-186.5" font-family="Helvetica,sans-Serif" font-size="10.00">/atomic_counter.hpp</text>
</a>
</g>
</g>
<!-- Node14&#45;&gt;Node15 -->
<g id="edge17" class="edge">
<title>Node14&#45;&gt;Node15</title>
<path fill="none" stroke="midnightblue" d="M447.86,-246.48C475,-237.7 518.02,-223.79 552.27,-212.71"/>
<polygon fill="midnightblue" stroke="midnightblue" points="553.7,-215.93 562.13,-209.52 551.54,-209.27 553.7,-215.93"/>
</g>
<!-- Node20 -->
<g id="node20" class="node">
<title>Node20</title>
<g id="a_node20"><a xlink:href="unique__counter_8hpp.html" target="_top" xlink:title=" ">
<polygon fill="none" stroke="black" points="408.5,-179.5 408.5,-209.5 512.5,-209.5 512.5,-179.5 408.5,-179.5"/>
<text text-anchor="start" x="416.5" y="-197.5" font-family="Helvetica,sans-Serif" font-size="10.00">yaclib/util/detail</text>
<text text-anchor="middle" x="460.5" y="-186.5" font-family="Helvetica,sans-Serif" font-size="10.00">/unique_counter.hpp</text>
</a>
</g>
</g>
<!-- Node14&#45;&gt;Node20 -->
<g id="edge23" class="edge">
<title>Node14&#45;&gt;Node20</title>
<path fill="none" stroke="midnightblue" d="M427.09,-246.48C431.93,-239.09 439.15,-228.08 445.64,-218.17"/>
<polygon fill="midnightblue" stroke="midnightblue" points="448.75,-219.81 451.31,-209.52 442.9,-215.97 448.75,-219.81"/>
</g>
<!-- Node15&#45;&gt;Node9 -->
<g id="edge21" class="edge">
<title>Node15&#45;&gt;Node9</title>
<path fill="none" stroke="midnightblue" d="M648.12,-179.43C686.84,-164.48 734.4,-139.28 709.5,-112 681.37,-81.18 390.49,-84.15 316.03,-75.21"/>
<polygon fill="midnightblue" stroke="midnightblue" points="316.43,-71.73 306.01,-73.67 315.36,-78.65 316.43,-71.73"/>
</g>
<!-- Node16 -->
<g id="node16" class="node">
<title>Node16</title>
<g id="a_node16"><a xlink:title=" ">
<polygon fill="none" stroke="#bfbfbf" points="545.5,-118 545.5,-137 633.5,-137 633.5,-118 545.5,-118"/>
<text text-anchor="middle" x="589.5" y="-125" font-family="Helvetica,sans-Serif" font-size="10.00">yaclib/config.hpp</text>
</a>
</g>
</g>
<!-- Node15&#45;&gt;Node16 -->
<g id="edge18" class="edge">
<title>Node15&#45;&gt;Node16</title>
<path fill="none" stroke="midnightblue" d="M602.03,-179.4C599.71,-169.96 596.63,-157.45 594.1,-147.19"/>
<polygon fill="midnightblue" stroke="midnightblue" points="597.43,-146.07 591.64,-137.19 590.63,-147.74 597.43,-146.07"/>
</g>
<!-- Node17 -->
<g id="node17" class="node">
<title>Node17</title>
<g id="a_node17"><a xlink:href="default__deleter_8hpp.html" target="_top" xlink:title=" ">
<polygon fill="none" stroke="black" points="426,-112.5 426,-142.5 527,-142.5 527,-112.5 426,-112.5"/>
<text text-anchor="start" x="434" y="-130.5" font-family="Helvetica,sans-Serif" font-size="10.00">yaclib/util/detail</text>
<text text-anchor="middle" x="476.5" y="-119.5" font-family="Helvetica,sans-Serif" font-size="10.00">/default_deleter.hpp</text>
</a>
</g>
</g>
<!-- Node15&#45;&gt;Node17 -->
<g id="edge19" class="edge">
<title>Node15&#45;&gt;Node17</title>
<path fill="none" stroke="midnightblue" d="M577.51,-179.4C558.75,-169.94 533.83,-157.39 513.45,-147.12"/>
<polygon fill="midnightblue" stroke="midnightblue" points="514.94,-143.95 504.44,-142.58 511.79,-150.2 514.94,-143.95"/>
</g>
<!-- Node18 -->
<g id="node18" class="node">
<title>Node18</title>
<g id="a_node18"><a xlink:title=" ">
<polygon fill="none" stroke="#bfbfbf" points="651,-118 651,-137 700,-137 700,-118 651,-118"/>
<text text-anchor="middle" x="675.5" y="-125" font-family="Helvetica,sans-Serif" font-size="10.00">cstddef</text>
</a>
</g>
</g>
<!-- Node15&#45;&gt;Node18 -->
<g id="edge20" class="edge">
<title>Node15&#45;&gt;Node18</title>
<path fill="none" stroke="midnightblue" d="M620.69,-179.4C631.82,-169.06 646.94,-155.02 658.47,-144.31"/>
<polygon fill="midnightblue" stroke="midnightblue" points="661.19,-146.56 666.14,-137.19 656.43,-141.43 661.19,-146.56"/>
</g>
<!-- Node19 -->
<g id="node19" class="node">
<title>Node19</title>
<g id="a_node19"><a xlink:title=" ">
<polygon fill="none" stroke="#bfbfbf" points="756.5,-118 756.5,-137 848.5,-137 848.5,-118 756.5,-118"/>
<text text-anchor="middle" x="802.5" y="-125" font-family="Helvetica,sans-Serif" font-size="10.00">yaclib_std/atomic</text>
</a>
</g>
</g>
<!-- Node15&#45;&gt;Node19 -->
<g id="edge22" class="edge">
<title>Node15&#45;&gt;Node19</title>
<path fill="none" stroke="midnightblue" d="M648.25,-179.4C683.73,-167.69 733.61,-151.23 766.94,-140.23"/>
<polygon fill="midnightblue" stroke="midnightblue" points="768.32,-143.46 776.72,-137.01 766.12,-136.82 768.32,-143.46"/>
</g>
<!-- Node20&#45;&gt;Node17 -->
<g id="edge24" class="edge">
<title>Node20&#45;&gt;Node17</title>
<path fill="none" stroke="midnightblue" d="M463.97,-179.4C465.9,-171.56 468.35,-161.6 470.58,-152.57"/>
<polygon fill="midnightblue" stroke="midnightblue" points="474.04,-153.12 473.04,-142.58 467.25,-151.45 474.04,-153.12"/>
</g>
</g>
</svg>
