<?xml version="1.0" encoding="UTF-8" standalone="no"?>
<!DOCTYPE svg PUBLIC "-//W3C//DTD SVG 1.1//EN"
 "http://www.w3.org/Graphics/SVG/1.1/DTD/svg11.dtd">
<!-- Generated by graphviz version 3.0.0 (20221109.1736)
 -->
<!-- Title: include/yaclib/coro/detail/mutex_awaiter.hpp Pages: 1 -->
<svg width="205pt" height="151pt"
 viewBox="0.00 0.00 204.50 151.00" xmlns="http://www.w3.org/2000/svg" xmlns:xlink="http://www.w3.org/1999/xlink">
<g id="graph0" class="graph" transform="scale(1 1) rotate(0) translate(4 147)">
<title>include/yaclib/coro/detail/mutex_awaiter.hpp</title>
<!-- Node1 -->
<g id="node1" class="node">
<title>Node1</title>
<g id="a_node1"><a xlink:title=" ">
<polygon fill="#bfbfbf" stroke="black" points="20.5,-112.5 20.5,-142.5 147.5,-142.5 147.5,-112.5 20.5,-112.5"/>
<text text-anchor="start" x="28.5" y="-130.5" font-family="Helvetica,sans-Serif" font-size="10.00">include/yaclib/coro</text>
<text text-anchor="middle" x="84" y="-119.5" font-family="Helvetica,sans-Serif" font-size="10.00">/detail/mutex_awaiter.hpp</text>
</a>
</g>
</g>
<!-- Node2 -->
<g id="node2" class="node">
<title>Node2</title>
<g id="a_node2"><a xlink:title=" ">
<polygon fill="none" stroke="#bfbfbf" points="0,-0.5 0,-19.5 88,-19.5 88,-0.5 0,-0.5"/>
<text text-anchor="middle" x="44" y="-7.5" font-family="Helvetica,sans-Serif" font-size="10.00">yaclib/config.hpp</text>
</a>
</g>
</g>
<!-- Node1&#45;&gt;Node2 -->
<g id="edge1" class="edge">
<title>Node1&#45;&gt;Node2</title>
<path fill="none" stroke="midnightblue" d="M57.86,-112.37C44.79,-103.76 30.26,-91.43 23,-76 15.69,-60.46 23.37,-41.69 31.43,-28.33"/>
<polygon fill="midnightblue" stroke="midnightblue" points="34.55,-29.95 37.14,-19.68 28.71,-26.09 34.55,-29.95"/>
</g>
<!-- Node3 -->
<g id="node3" class="node">
<title>Node3</title>
<g id="a_node3"><a xlink:href="coro_8hpp.html" target="_top" xlink:title=" ">
<polygon fill="none" stroke="black" points="32.5,-56.5 32.5,-75.5 135.5,-75.5 135.5,-56.5 32.5,-56.5"/>
<text text-anchor="middle" x="84" y="-63.5" font-family="Helvetica,sans-Serif" font-size="10.00">yaclib/coro/coro.hpp</text>
</a>
</g>
</g>
<!-- Node1&#45;&gt;Node3 -->
<g id="edge2" class="edge">
<title>Node1&#45;&gt;Node3</title>
<path fill="none" stroke="midnightblue" d="M84,-112.4C84,-104.47 84,-94.46 84,-85.86"/>
<polygon fill="midnightblue" stroke="midnightblue" points="87.5,-85.66 84,-75.66 80.5,-85.66 87.5,-85.66"/>
</g>
<!-- Node4 -->
<g id="node4" class="node">
<title>Node4</title>
<g id="a_node4"><a xlink:title=" ">
<polygon fill="none" stroke="#bfbfbf" points="153.5,-56.5 153.5,-75.5 196.5,-75.5 196.5,-56.5 153.5,-56.5"/>
<text text-anchor="middle" x="175" y="-63.5" font-family="Helvetica,sans-Serif" font-size="10.00">mutex</text>
</a>
</g>
</g>
<!-- Node1&#45;&gt;Node4 -->
<g id="edge4" class="edge">
<title>Node1&#45;&gt;Node4</title>
<path fill="none" stroke="midnightblue" d="M105.57,-112.4C119.88,-103.04 138.61,-90.79 153.01,-81.38"/>
<polygon fill="midnightblue" stroke="midnightblue" points="155.3,-84.06 161.76,-75.66 151.47,-78.2 155.3,-84.06"/>
</g>
<!-- Node3&#45;&gt;Node2 -->
<g id="edge3" class="edge">
<title>Node3&#45;&gt;Node2</title>
<path fill="none" stroke="midnightblue" d="M77.39,-56.08C71.74,-48.46 63.46,-37.26 56.55,-27.94"/>
<polygon fill="midnightblue" stroke="midnightblue" points="59.25,-25.7 50.48,-19.75 53.62,-29.87 59.25,-25.7"/>
</g>
</g>
</svg>
