<?xml version="1.0" encoding="UTF-8" standalone="no"?>
<!DOCTYPE svg PUBLIC "-//W3C//DTD SVG 1.1//EN"
 "http://www.w3.org/Graphics/SVG/1.1/DTD/svg11.dtd">
<!-- Generated by graphviz version 9.0.0 (20230911.1827)
 -->
<!-- Title: include/yaclib/coro/on.hpp Pages: 1 -->
<svg width="1428pt" height="803pt"
 viewBox="0.00 0.00 1428.38 802.75" xmlns="http://www.w3.org/2000/svg" xmlns:xlink="http://www.w3.org/1999/xlink">
<g id="graph0" class="graph" transform="scale(1 1) rotate(0) translate(4 798.75)">
<title>include/yaclib/coro/on.hpp</title>
<!-- Node1 -->
<g id="Node000001" class="node">
<title>Node1</title>
<g id="a_Node000001"><a xlink:title=" ">
<polygon fill="#999999" stroke="#666666" points="1286.5,-794.75 1190.25,-794.75 1190.25,-764.25 1286.5,-764.25 1286.5,-794.75"/>
<text text-anchor="start" x="1198.25" y="-781.25" font-family="Helvetica,sans-Serif" font-size="10.00">include/yaclib/coro</text>
<text text-anchor="middle" x="1238.38" y="-770" font-family="Helvetica,sans-Serif" font-size="10.00">/on.hpp</text>
</a>
</g>
</g>
<!-- Node2 -->
<g id="Node000002" class="node">
<title>Node2</title>
<g id="a_Node000002"><a xlink:href="on__awaiter_8hpp.html" target="_top" xlink:title=" ">
<polygon fill="white" stroke="#666666" points="1244.75,-728.25 1156,-728.25 1156,-697.75 1244.75,-697.75 1244.75,-728.25"/>
<text text-anchor="start" x="1164" y="-714.75" font-family="Helvetica,sans-Serif" font-size="10.00">yaclib/coro/detail</text>
<text text-anchor="middle" x="1200.38" y="-703.5" font-family="Helvetica,sans-Serif" font-size="10.00">/on_awaiter.hpp</text>
</a>
</g>
</g>
<!-- Node1&#45;&gt;Node2 -->
<g id="edge1_Node000001_Node000002" class="edge">
<title>Node1&#45;&gt;Node2</title>
<g id="a_edge1_Node000001_Node000002"><a xlink:title=" ">
<path fill="none" stroke="#63b8ff" d="M1229.75,-763.86C1225.33,-756.36 1219.83,-747.02 1214.78,-738.46"/>
<polygon fill="#63b8ff" stroke="#63b8ff" points="1217.82,-736.72 1209.73,-729.88 1211.79,-740.27 1217.82,-736.72"/>
</a>
</g>
</g>
<!-- Node19 -->
<g id="Node000019" class="node">
<title>Node19</title>
<g id="a_Node000019"><a xlink:href="executor_8hpp.html" target="_top" xlink:title=" ">
<polygon fill="white" stroke="#666666" points="1210.62,-323.62 1094.12,-323.62 1094.12,-304.38 1210.62,-304.38 1210.62,-323.62"/>
<text text-anchor="middle" x="1152.38" y="-310.12" font-family="Helvetica,sans-Serif" font-size="10.00">yaclib/exe/executor.hpp</text>
</a>
</g>
</g>
<!-- Node1&#45;&gt;Node19 -->
<g id="edge67_Node000001_Node000019" class="edge">
<title>Node1&#45;&gt;Node19</title>
<g id="a_edge67_Node000001_Node000019"><a xlink:title=" ">
<path fill="none" stroke="#63b8ff" d="M1245.52,-763.97C1256.53,-740.21 1276.38,-691.31 1276.38,-647.5 1276.38,-647.5 1276.38,-647.5 1276.38,-512.5 1276.38,-434.83 1206.73,-362.65 1171.83,-331.36"/>
<polygon fill="#63b8ff" stroke="#63b8ff" points="1174.35,-328.91 1164.52,-324.97 1169.75,-334.18 1174.35,-328.91"/>
</a>
</g>
</g>
<!-- Node3 -->
<g id="Node000003" class="node">
<title>Node3</title>
<g id="a_Node000003"><a xlink:href="coro_8hpp.html" target="_top" xlink:title=" ">
<polygon fill="white" stroke="#666666" points="1172.5,-589.62 1070.25,-589.62 1070.25,-570.38 1172.5,-570.38 1172.5,-589.62"/>
<text text-anchor="middle" x="1121.38" y="-576.12" font-family="Helvetica,sans-Serif" font-size="10.00">yaclib/coro/coro.hpp</text>
</a>
</g>
</g>
<!-- Node2&#45;&gt;Node3 -->
<g id="edge2_Node000002_Node000003" class="edge">
<title>Node2&#45;&gt;Node3</title>
<g id="a_edge2_Node000002_Node000003"><a xlink:title=" ">
<path fill="none" stroke="#63b8ff" d="M1191.62,-697.48C1177.21,-673.59 1148.53,-626.03 1132.63,-599.67"/>
<polygon fill="#63b8ff" stroke="#63b8ff" points="1135.81,-598.15 1127.65,-591.4 1129.81,-601.77 1135.81,-598.15"/>
</a>
</g>
</g>
<!-- Node5 -->
<g id="Node000005" class="node">
<title>Node5</title>
<g id="a_Node000005"><a xlink:href="promise__type_8hpp.html" target="_top" xlink:title=" ">
<polygon fill="white" stroke="#666666" points="908.75,-661.75 814,-661.75 814,-631.25 908.75,-631.25 908.75,-661.75"/>
<text text-anchor="start" x="822" y="-648.25" font-family="Helvetica,sans-Serif" font-size="10.00">yaclib/coro/detail</text>
<text text-anchor="middle" x="861.38" y="-637" font-family="Helvetica,sans-Serif" font-size="10.00">/promise_type.hpp</text>
</a>
</g>
</g>
<!-- Node2&#45;&gt;Node5 -->
<g id="edge4_Node000002_Node000005" class="edge">
<title>Node2&#45;&gt;Node5</title>
<g id="a_edge4_Node000002_Node000005"><a xlink:title=" ">
<path fill="none" stroke="#63b8ff" d="M1155.71,-703.5C1095.29,-692.01 987.38,-671.47 920.35,-658.72"/>
<polygon fill="#63b8ff" stroke="#63b8ff" points="921.11,-655.3 910.63,-656.87 919.8,-662.18 921.11,-655.3"/>
</a>
</g>
</g>
<!-- Node10 -->
<g id="Node000010" class="node">
<title>Node10</title>
<g id="a_Node000010"><a xlink:href="job_8hpp.html" target="_top" xlink:title=" ">
<polygon fill="white" stroke="#666666" points="1341.62,-262.75 1249.12,-262.75 1249.12,-243.5 1341.62,-243.5 1341.62,-262.75"/>
<text text-anchor="middle" x="1295.38" y="-249.25" font-family="Helvetica,sans-Serif" font-size="10.00">yaclib/exe/job.hpp</text>
</a>
</g>
</g>
<!-- Node2&#45;&gt;Node10 -->
<g id="edge66_Node000002_Node000010" class="edge">
<title>Node2&#45;&gt;Node10</title>
<g id="a_edge66_Node000002_Node000010"><a xlink:title=" ">
<path fill="none" stroke="#63b8ff" d="M1211.09,-697.56C1242.27,-654.49 1332.73,-522.11 1363.38,-395.75 1373.79,-352.79 1364.86,-336.2 1341.38,-298.75 1334.71,-288.12 1324.98,-278.19 1316.19,-270.41"/>
<polygon fill="#63b8ff" stroke="#63b8ff" points="1318.6,-267.86 1308.69,-264.11 1314.1,-273.22 1318.6,-267.86"/>
</a>
</g>
</g>
<!-- Node2&#45;&gt;Node19 -->
<g id="edge65_Node000002_Node000019" class="edge">
<title>Node2&#45;&gt;Node19</title>
<g id="a_edge65_Node000002_Node000019"><a xlink:title=" ">
<path fill="none" stroke="#63b8ff" d="M1198.61,-697.4C1191.29,-636.82 1163.28,-405.16 1154.81,-335.15"/>
<polygon fill="#63b8ff" stroke="#63b8ff" points="1158.32,-335.05 1153.65,-325.54 1151.38,-335.89 1158.32,-335.05"/>
</a>
</g>
</g>
<!-- Node4 -->
<g id="Node000004" class="node">
<title>Node4</title>
<g id="a_Node000004"><a xlink:title=" ">
<polygon fill="#e0e0e0" stroke="#999999" points="1316,-323.62 1228.75,-323.62 1228.75,-304.38 1316,-304.38 1316,-323.62"/>
<text text-anchor="middle" x="1272.38" y="-310.12" font-family="Helvetica,sans-Serif" font-size="10.00">yaclib/config.hpp</text>
</a>
</g>
</g>
<!-- Node3&#45;&gt;Node4 -->
<g id="edge3_Node000003_Node000004" class="edge">
<title>Node3&#45;&gt;Node4</title>
<g id="a_edge3_Node000003_Node000004"><a xlink:title=" ">
<path fill="none" stroke="#63b8ff" d="M1126.57,-569.91C1148.22,-532.07 1231.46,-386.53 1261.49,-334.02"/>
<polygon fill="#63b8ff" stroke="#63b8ff" points="1264.52,-335.78 1266.45,-325.36 1258.44,-332.31 1264.52,-335.78"/>
</a>
</g>
</g>
<!-- Node5&#45;&gt;Node3 -->
<g id="edge53_Node000005_Node000003" class="edge">
<title>Node5&#45;&gt;Node3</title>
<g id="a_edge53_Node000005_Node000003"><a xlink:title=" ">
<path fill="none" stroke="#63b8ff" d="M909.06,-633.67C955.92,-622.04 1027.02,-604.41 1073.83,-592.79"/>
<polygon fill="#63b8ff" stroke="#63b8ff" points="1074.56,-596.22 1083.42,-590.42 1072.87,-589.43 1074.56,-596.22"/>
</a>
</g>
</g>
<!-- Node6 -->
<g id="Node000006" class="node">
<title>Node6</title>
<g id="a_Node000006"><a xlink:href="shared__core_8hpp.html" target="_top" xlink:title=" ">
<polygon fill="white" stroke="#666666" points="798.5,-595.25 708.25,-595.25 708.25,-564.75 798.5,-564.75 798.5,-595.25"/>
<text text-anchor="start" x="716.25" y="-581.75" font-family="Helvetica,sans-Serif" font-size="10.00">yaclib/algo/detail</text>
<text text-anchor="middle" x="753.38" y="-570.5" font-family="Helvetica,sans-Serif" font-size="10.00">/shared_core.hpp</text>
</a>
</g>
</g>
<!-- Node5&#45;&gt;Node6 -->
<g id="edge5_Node000005_Node000006" class="edge">
<title>Node5&#45;&gt;Node6</title>
<g id="a_edge5_Node000005_Node000006"><a xlink:title=" ">
<path fill="none" stroke="#63b8ff" d="M836.87,-630.86C822.23,-622.12 803.42,-610.89 787.37,-601.3"/>
<polygon fill="#63b8ff" stroke="#63b8ff" points="789.46,-598.48 779.08,-596.35 785.88,-604.49 789.46,-598.48"/>
</a>
</g>
</g>
<!-- Node20 -->
<g id="Node000020" class="node">
<title>Node20</title>
<g id="a_Node000020"><a xlink:href="intrusive__ptr_8hpp.html" target="_top" xlink:title=" ">
<polygon fill="white" stroke="#666666" points="1200.5,-207.5 1104.25,-207.5 1104.25,-177 1200.5,-177 1200.5,-207.5"/>
<text text-anchor="start" x="1112.25" y="-194" font-family="Helvetica,sans-Serif" font-size="10.00">yaclib/util/intrusive</text>
<text text-anchor="middle" x="1152.38" y="-182.75" font-family="Helvetica,sans-Serif" font-size="10.00">_ptr.hpp</text>
</a>
</g>
</g>
<!-- Node5&#45;&gt;Node20 -->
<g id="edge63_Node000005_Node000020" class="edge">
<title>Node5&#45;&gt;Node20</title>
<g id="a_edge63_Node000005_Node000020"><a xlink:title=" ">
<path fill="none" stroke="#63b8ff" d="M890.03,-630.77C905.34,-621.92 923.77,-609.6 937.38,-595.25 1007.32,-521.44 1008.47,-488.84 1049.38,-395.75 1067.87,-353.65 1064.94,-339.94 1085.38,-298.75 1099.96,-269.35 1120.7,-237.87 1135.23,-217.02"/>
<polygon fill="#63b8ff" stroke="#63b8ff" points="1138.03,-219.12 1140.94,-208.93 1132.31,-215.09 1138.03,-219.12"/>
</a>
</g>
</g>
<!-- Node26 -->
<g id="Node000026" class="node">
<title>Node26</title>
<g id="a_Node000026"><a xlink:title=" ">
<polygon fill="#e0e0e0" stroke="#999999" points="400,-323.62 342.75,-323.62 342.75,-304.38 400,-304.38 400,-323.62"/>
<text text-anchor="middle" x="371.38" y="-310.12" font-family="Helvetica,sans-Serif" font-size="10.00">exception</text>
</a>
</g>
</g>
<!-- Node5&#45;&gt;Node26 -->
<g id="edge64_Node000005_Node000026" class="edge">
<title>Node5&#45;&gt;Node26</title>
<g id="a_edge64_Node000005_Node000026"><a xlink:title=" ">
<path fill="none" stroke="#63b8ff" d="M813.83,-644.89C675.07,-641.84 280.38,-623.59 280.38,-514.5 280.38,-514.5 280.38,-514.5 280.38,-446 280.38,-409.13 278.67,-395.76 299.38,-365.25 309.81,-349.88 326.63,-337.75 341.38,-329.27"/>
<polygon fill="#63b8ff" stroke="#63b8ff" points="342.7,-332.53 349.84,-324.7 339.38,-326.38 342.7,-332.53"/>
</a>
</g>
</g>
<!-- Node29 -->
<g id="Node000029" class="node">
<title>Node29</title>
<g id="a_Node000029"><a xlink:href="cast_8hpp.html" target="_top" xlink:title=" ">
<polygon fill="white" stroke="#666666" points="1006.5,-456.62 910.25,-456.62 910.25,-437.38 1006.5,-437.38 1006.5,-456.62"/>
<text text-anchor="middle" x="958.38" y="-443.12" font-family="Helvetica,sans-Serif" font-size="10.00">yaclib/util/cast.hpp</text>
</a>
</g>
</g>
<!-- Node5&#45;&gt;Node29 -->
<g id="edge54_Node000005_Node000029" class="edge">
<title>Node5&#45;&gt;Node29</title>
<g id="a_edge54_Node000005_Node000029"><a xlink:title=" ">
<path fill="none" stroke="#63b8ff" d="M881.92,-630.84C893.27,-621.76 906.77,-609.2 915.38,-595.25 940.59,-554.38 951.62,-498.03 955.93,-468.28"/>
<polygon fill="#63b8ff" stroke="#63b8ff" points="959.39,-468.84 957.23,-458.46 952.45,-467.92 959.39,-468.84"/>
</a>
</g>
</g>
<!-- Node33 -->
<g id="Node000033" class="node">
<title>Node33</title>
<g id="a_Node000033"><a xlink:href="unique__core_8hpp.html" target="_top" xlink:title=" ">
<polygon fill="white" stroke="#666666" points="906.12,-595.25 816.62,-595.25 816.62,-564.75 906.12,-564.75 906.12,-595.25"/>
<text text-anchor="start" x="824.62" y="-581.75" font-family="Helvetica,sans-Serif" font-size="10.00">yaclib/algo/detail</text>
<text text-anchor="middle" x="861.38" y="-570.5" font-family="Helvetica,sans-Serif" font-size="10.00">/unique_core.hpp</text>
</a>
</g>
</g>
<!-- Node5&#45;&gt;Node33 -->
<g id="edge51_Node000005_Node000033" class="edge">
<title>Node5&#45;&gt;Node33</title>
<g id="a_edge51_Node000005_Node000033"><a xlink:title=" ">
<path fill="none" stroke="#63b8ff" d="M861.38,-630.86C861.38,-623.77 861.38,-615.04 861.38,-606.88"/>
<polygon fill="#63b8ff" stroke="#63b8ff" points="864.88,-607.09 861.38,-597.09 857.88,-607.09 864.88,-607.09"/>
</a>
</g>
</g>
<!-- Node34 -->
<g id="Node000034" class="node">
<title>Node34</title>
<g id="a_Node000034"><a xlink:href="atomic__counter_8hpp.html" target="_top" xlink:title=" ">
<polygon fill="white" stroke="#666666" points="182.25,-462.25 78.5,-462.25 78.5,-431.75 182.25,-431.75 182.25,-462.25"/>
<text text-anchor="start" x="86.5" y="-448.75" font-family="Helvetica,sans-Serif" font-size="10.00">yaclib/util/detail</text>
<text text-anchor="middle" x="130.38" y="-437.5" font-family="Helvetica,sans-Serif" font-size="10.00">/atomic_counter.hpp</text>
</a>
</g>
</g>
<!-- Node5&#45;&gt;Node34 -->
<g id="edge55_Node000005_Node000034" class="edge">
<title>Node5&#45;&gt;Node34</title>
<g id="a_edge55_Node000005_Node000034"><a xlink:title=" ">
<path fill="none" stroke="#63b8ff" d="M813.58,-645.86C689.92,-646.12 362.42,-642.2 266.38,-595.25 237.19,-580.98 178.25,-509.22 148.47,-471.41"/>
<polygon fill="#63b8ff" stroke="#63b8ff" points="151.42,-469.49 142.5,-463.77 145.9,-473.8 151.42,-469.49"/>
</a>
</g>
</g>
<!-- Node36 -->
<g id="Node000036" class="node">
<title>Node36</title>
<g id="a_Node000036"><a xlink:href="unique__counter_8hpp.html" target="_top" xlink:title=" ">
<polygon fill="white" stroke="#666666" points="157.88,-528.75 54.88,-528.75 54.88,-498.25 157.88,-498.25 157.88,-528.75"/>
<text text-anchor="start" x="62.88" y="-515.25" font-family="Helvetica,sans-Serif" font-size="10.00">yaclib/util/detail</text>
<text text-anchor="middle" x="106.38" y="-504" font-family="Helvetica,sans-Serif" font-size="10.00">/unique_counter.hpp</text>
</a>
</g>
</g>
<!-- Node5&#45;&gt;Node36 -->
<g id="edge61_Node000005_Node000036" class="edge">
<title>Node5&#45;&gt;Node36</title>
<g id="a_edge61_Node000005_Node000036"><a xlink:title=" ">
<path fill="none" stroke="#63b8ff" d="M813.81,-645.55C682.12,-645.12 315.14,-639.84 204.38,-595.25 173.16,-582.68 144.33,-556.4 126.14,-537.22"/>
<polygon fill="#63b8ff" stroke="#63b8ff" points="128.93,-535.08 119.58,-530.1 123.78,-539.83 128.93,-535.08"/>
</a>
</g>
</g>
<!-- Node7 -->
<g id="Node000007" class="node">
<title>Node7</title>
<g id="a_Node000007"><a xlink:href="result__core_8hpp.html" target="_top" xlink:title=" ">
<polygon fill="white" stroke="#666666" points="797.38,-528.75 709.38,-528.75 709.38,-498.25 797.38,-498.25 797.38,-528.75"/>
<text text-anchor="start" x="717.38" y="-515.25" font-family="Helvetica,sans-Serif" font-size="10.00">yaclib/algo/detail</text>
<text text-anchor="middle" x="753.38" y="-504" font-family="Helvetica,sans-Serif" font-size="10.00">/result_core.hpp</text>
</a>
</g>
</g>
<!-- Node6&#45;&gt;Node7 -->
<g id="edge6_Node000006_Node000007" class="edge">
<title>Node6&#45;&gt;Node7</title>
<g id="a_edge6_Node000006_Node000007"><a xlink:title=" ">
<path fill="none" stroke="#63b8ff" d="M753.38,-564.36C753.38,-557.27 753.38,-548.54 753.38,-540.38"/>
<polygon fill="#63b8ff" stroke="#63b8ff" points="756.88,-540.59 753.38,-530.59 749.88,-540.59 756.88,-540.59"/>
</a>
</g>
</g>
<!-- Node8 -->
<g id="Node000008" class="node">
<title>Node8</title>
<g id="a_Node000008"><a xlink:href="base__core_8hpp.html" target="_top" xlink:title=" ">
<polygon fill="white" stroke="#666666" points="797.38,-462.25 709.38,-462.25 709.38,-431.75 797.38,-431.75 797.38,-462.25"/>
<text text-anchor="start" x="717.38" y="-448.75" font-family="Helvetica,sans-Serif" font-size="10.00">yaclib/algo/detail</text>
<text text-anchor="middle" x="753.38" y="-437.5" font-family="Helvetica,sans-Serif" font-size="10.00">/base_core.hpp</text>
</a>
</g>
</g>
<!-- Node7&#45;&gt;Node8 -->
<g id="edge7_Node000007_Node000008" class="edge">
<title>Node7&#45;&gt;Node8</title>
<g id="a_edge7_Node000007_Node000008"><a xlink:title=" ">
<path fill="none" stroke="#63b8ff" d="M753.38,-497.86C753.38,-490.77 753.38,-482.04 753.38,-473.88"/>
<polygon fill="#63b8ff" stroke="#63b8ff" points="756.88,-474.09 753.38,-464.09 749.88,-474.09 756.88,-474.09"/>
</a>
</g>
</g>
<!-- Node18 -->
<g id="Node000018" class="node">
<title>Node18</title>
<g id="a_Node000018"><a xlink:title=" ">
<polygon fill="#e0e0e0" stroke="#999999" points="261.62,-135.38 223.12,-135.38 223.12,-116.12 261.62,-116.12 261.62,-135.38"/>
<text text-anchor="middle" x="242.38" y="-121.88" font-family="Helvetica,sans-Serif" font-size="10.00">utility</text>
</a>
</g>
</g>
<!-- Node7&#45;&gt;Node18 -->
<g id="edge50_Node000007_Node000018" class="edge">
<title>Node7&#45;&gt;Node18</title>
<g id="a_edge50_Node000007_Node000018"><a xlink:title=" ">
<path fill="none" stroke="#63b8ff" d="M709.03,-508.53C646.37,-502.26 528.73,-488.04 431.38,-462.25 350.95,-440.94 321.02,-448.13 256.38,-395.75 223.21,-368.88 204.38,-357.69 204.38,-315 204.38,-315 204.38,-315 204.38,-252.12 204.38,-213.03 221.5,-169.92 232.76,-145.8"/>
<polygon fill="#63b8ff" stroke="#63b8ff" points="235.84,-147.48 237.05,-136.96 229.54,-144.42 235.84,-147.48"/>
</a>
</g>
</g>
<!-- Node7&#45;&gt;Node29 -->
<g id="edge41_Node000007_Node000029" class="edge">
<title>Node7&#45;&gt;Node29</title>
<g id="a_edge41_Node000007_Node000029"><a xlink:title=" ">
<path fill="none" stroke="#63b8ff" d="M797.86,-498.5C833.88,-487.17 884.15,-471.35 918.79,-460.45"/>
<polygon fill="#63b8ff" stroke="#63b8ff" points="919.52,-463.89 928.01,-457.55 917.42,-457.22 919.52,-463.89"/>
</a>
</g>
</g>
<!-- Node31 -->
<g id="Node000031" class="node">
<title>Node31</title>
<g id="a_Node000031"><a xlink:href="result_8hpp.html" target="_top" xlink:title=" ">
<polygon fill="white" stroke="#666666" points="542.12,-456.62 440.62,-456.62 440.62,-437.38 542.12,-437.38 542.12,-456.62"/>
<text text-anchor="middle" x="491.38" y="-443.12" font-family="Helvetica,sans-Serif" font-size="10.00">yaclib/util/result.hpp</text>
</a>
</g>
</g>
<!-- Node7&#45;&gt;Node31 -->
<g id="edge44_Node000007_Node000031" class="edge">
<title>Node7&#45;&gt;Node31</title>
<g id="a_edge44_Node000007_Node000031"><a xlink:title=" ">
<path fill="none" stroke="#63b8ff" d="M708.93,-501.56C661.89,-489.98 587.91,-471.77 539.52,-459.85"/>
<polygon fill="#63b8ff" stroke="#63b8ff" points="540.42,-456.47 529.87,-457.48 538.74,-463.27 540.42,-456.47"/>
</a>
</g>
</g>
<!-- Node9 -->
<g id="Node000009" class="node">
<title>Node9</title>
<g id="a_Node000009"><a xlink:href="inline__core_8hpp.html" target="_top" xlink:title=" ">
<polygon fill="white" stroke="#666666" points="1354.38,-395.75 1266.38,-395.75 1266.38,-365.25 1354.38,-365.25 1354.38,-395.75"/>
<text text-anchor="start" x="1274.38" y="-382.25" font-family="Helvetica,sans-Serif" font-size="10.00">yaclib/algo/detail</text>
<text text-anchor="middle" x="1310.38" y="-371" font-family="Helvetica,sans-Serif" font-size="10.00">/inline_core.hpp</text>
</a>
</g>
</g>
<!-- Node8&#45;&gt;Node9 -->
<g id="edge8_Node000008_Node000009" class="edge">
<title>Node8&#45;&gt;Node9</title>
<g id="a_edge8_Node000008_Node000009"><a xlink:title=" ">
<path fill="none" stroke="#63b8ff" d="M797.55,-440.88C898.2,-429.23 1144.38,-400.72 1254.98,-387.91"/>
<polygon fill="#63b8ff" stroke="#63b8ff" points="1255.16,-391.42 1264.69,-386.79 1254.36,-384.46 1255.16,-391.42"/>
</a>
</g>
</g>
<!-- Node8&#45;&gt;Node19 -->
<g id="edge21_Node000008_Node000019" class="edge">
<title>Node8&#45;&gt;Node19</title>
<g id="a_edge21_Node000008_Node000019"><a xlink:title=" ">
<path fill="none" stroke="#63b8ff" d="M797.86,-432.1C828.3,-422.39 869.48,-408.87 905.38,-395.75 939.56,-383.25 946.99,-377.17 981.38,-365.25 1023.58,-350.62 1072.57,-336.51 1107.27,-326.98"/>
<polygon fill="#63b8ff" stroke="#63b8ff" points="1107.82,-330.46 1116.54,-324.46 1105.97,-323.71 1107.82,-330.46"/>
</a>
</g>
</g>
<!-- Node22 -->
<g id="Node000022" class="node">
<title>Node22</title>
<g id="a_Node000022"><a xlink:href="inline_8hpp.html" target="_top" xlink:title=" ">
<polygon fill="white" stroke="#666666" points="800.5,-390.12 698.25,-390.12 698.25,-370.88 800.5,-370.88 800.5,-390.12"/>
<text text-anchor="middle" x="749.38" y="-376.62" font-family="Helvetica,sans-Serif" font-size="10.00">yaclib/exe/inline.hpp</text>
</a>
</g>
</g>
<!-- Node8&#45;&gt;Node22 -->
<g id="edge28_Node000008_Node000022" class="edge">
<title>Node8&#45;&gt;Node22</title>
<g id="a_edge28_Node000008_Node000022"><a xlink:title=" ">
<path fill="none" stroke="#63b8ff" d="M752.47,-431.36C751.92,-422.58 751.22,-411.27 750.62,-401.65"/>
<polygon fill="#63b8ff" stroke="#63b8ff" points="754.13,-401.6 750.02,-391.83 747.14,-402.03 754.13,-401.6"/>
</a>
</g>
</g>
<!-- Node24 -->
<g id="Node000024" class="node">
<title>Node24</title>
<g id="a_Node000024"><a xlink:href="type__traits_8hpp.html" target="_top" xlink:title=" ">
<polygon fill="white" stroke="#666666" points="680.62,-390.12 558.12,-390.12 558.12,-370.88 680.62,-370.88 680.62,-390.12"/>
<text text-anchor="middle" x="619.38" y="-376.62" font-family="Helvetica,sans-Serif" font-size="10.00">yaclib/util/type_traits.hpp</text>
</a>
</g>
</g>
<!-- Node8&#45;&gt;Node24 -->
<g id="edge31_Node000008_Node000024" class="edge">
<title>Node8&#45;&gt;Node24</title>
<g id="a_edge31_Node000008_Node000024"><a xlink:title=" ">
<path fill="none" stroke="#63b8ff" d="M722.97,-431.36C700.54,-420.57 670.22,-405.97 648.18,-395.36"/>
<polygon fill="#63b8ff" stroke="#63b8ff" points="649.99,-392.35 639.46,-391.17 646.95,-398.66 649.99,-392.35"/>
</a>
</g>
</g>
<!-- Node27 -->
<g id="Node000027" class="node">
<title>Node27</title>
<g id="a_Node000027"><a xlink:title=" ">
<polygon fill="#e0e0e0" stroke="#999999" points="896,-390.12 856.75,-390.12 856.75,-370.88 896,-370.88 896,-390.12"/>
<text text-anchor="middle" x="876.38" y="-376.62" font-family="Helvetica,sans-Serif" font-size="10.00">limits</text>
</a>
</g>
</g>
<!-- Node8&#45;&gt;Node27 -->
<g id="edge39_Node000008_Node000027" class="edge">
<title>Node8&#45;&gt;Node27</title>
<g id="a_edge39_Node000008_Node000027"><a xlink:title=" ">
<path fill="none" stroke="#63b8ff" d="M781.29,-431.36C801.59,-420.71 828.95,-406.37 849.11,-395.8"/>
<polygon fill="#63b8ff" stroke="#63b8ff" points="850.62,-398.96 857.85,-391.21 847.37,-392.76 850.62,-398.96"/>
</a>
</g>
</g>
<!-- Node28 -->
<g id="Node000028" class="node">
<title>Node28</title>
<g id="a_Node000028"><a xlink:title=" ">
<polygon fill="#e0e0e0" stroke="#999999" points="400.25,-390.12 308.5,-390.12 308.5,-370.88 400.25,-370.88 400.25,-390.12"/>
<text text-anchor="middle" x="354.38" y="-376.62" font-family="Helvetica,sans-Serif" font-size="10.00">yaclib_std/atomic</text>
</a>
</g>
</g>
<!-- Node8&#45;&gt;Node28 -->
<g id="edge40_Node000008_Node000028" class="edge">
<title>Node8&#45;&gt;Node28</title>
<g id="a_edge40_Node000008_Node000028"><a xlink:title=" ">
<path fill="none" stroke="#63b8ff" d="M709.15,-438.85C636.48,-427.1 491.88,-403.73 411.54,-390.74"/>
<polygon fill="#63b8ff" stroke="#63b8ff" points="412.57,-387.36 402.14,-389.22 411.45,-394.27 412.57,-387.36"/>
</a>
</g>
</g>
<!-- Node9&#45;&gt;Node4 -->
<g id="edge9_Node000009_Node000004" class="edge">
<title>Node9&#45;&gt;Node4</title>
<g id="a_edge9_Node000009_Node000004"><a xlink:title=" ">
<path fill="none" stroke="#63b8ff" d="M1301.75,-364.86C1296.28,-355.58 1289.16,-343.5 1283.3,-333.55"/>
<polygon fill="#63b8ff" stroke="#63b8ff" points="1286.43,-331.97 1278.34,-325.13 1280.4,-335.52 1286.43,-331.97"/>
</a>
</g>
</g>
<!-- Node9&#45;&gt;Node10 -->
<g id="edge10_Node000009_Node000010" class="edge">
<title>Node9&#45;&gt;Node10</title>
<g id="a_edge10_Node000009_Node000010"><a xlink:title=" ">
<path fill="none" stroke="#63b8ff" d="M1317.19,-364.97C1323.92,-348.62 1332.28,-321.39 1325.38,-298.75 1322.46,-289.19 1316.73,-279.82 1311.06,-272.15"/>
<polygon fill="#63b8ff" stroke="#63b8ff" points="1313.8,-269.98 1304.82,-264.36 1308.34,-274.36 1313.8,-269.98"/>
</a>
</g>
</g>
<!-- Node11 -->
<g id="Node000011" class="node">
<title>Node11</title>
<g id="a_Node000011"><a xlink:href="log_8hpp.html" target="_top" xlink:title=" ">
<polygon fill="white" stroke="#666666" points="1314.62,-74.5 1240.12,-74.5 1240.12,-55.25 1314.62,-55.25 1314.62,-74.5"/>
<text text-anchor="middle" x="1277.38" y="-61" font-family="Helvetica,sans-Serif" font-size="10.00">yaclib/log.hpp</text>
</a>
</g>
</g>
<!-- Node9&#45;&gt;Node11 -->
<g id="edge20_Node000009_Node000011" class="edge">
<title>Node9&#45;&gt;Node11</title>
<g id="a_edge20_Node000009_Node000011"><a xlink:title=" ">
<path fill="none" stroke="#63b8ff" d="M1336.72,-364.83C1369.27,-344.55 1420.38,-304.65 1420.38,-254.12 1420.38,-254.12 1420.38,-254.12 1420.38,-191.25 1420.38,-134.6 1356.15,-97.57 1313.78,-79.31"/>
<polygon fill="#63b8ff" stroke="#63b8ff" points="1315.25,-76.13 1304.67,-75.54 1312.57,-82.6 1315.25,-76.13"/>
</a>
</g>
</g>
<!-- Node10&#45;&gt;Node11 -->
<g id="edge11_Node000010_Node000011" class="edge">
<title>Node10&#45;&gt;Node11</title>
<g id="a_edge11_Node000010_Node000011"><a xlink:title=" ">
<path fill="none" stroke="#63b8ff" d="M1299.37,-243.12C1303.07,-234.26 1308.29,-220.24 1310.38,-207.5 1317.62,-163.22 1298.9,-112.18 1286.78,-85.09"/>
<polygon fill="#63b8ff" stroke="#63b8ff" points="1289.99,-83.68 1282.58,-76.11 1283.65,-86.65 1289.99,-83.68"/>
</a>
</g>
</g>
<!-- Node13 -->
<g id="Node000013" class="node">
<title>Node13</title>
<g id="a_Node000013"><a xlink:href="node_8hpp.html" target="_top" xlink:title=" ">
<polygon fill="white" stroke="#666666" points="1301.75,-207.5 1219,-207.5 1219,-177 1301.75,-177 1301.75,-207.5"/>
<text text-anchor="start" x="1227" y="-194" font-family="Helvetica,sans-Serif" font-size="10.00">yaclib/util/detail</text>
<text text-anchor="middle" x="1260.38" y="-182.75" font-family="Helvetica,sans-Serif" font-size="10.00">/node.hpp</text>
</a>
</g>
</g>
<!-- Node10&#45;&gt;Node13 -->
<g id="edge13_Node000010_Node000013" class="edge">
<title>Node10&#45;&gt;Node13</title>
<g id="a_edge13_Node000010_Node000013"><a xlink:title=" ">
<path fill="none" stroke="#63b8ff" d="M1290.06,-243.18C1286,-236.36 1280.21,-226.62 1274.82,-217.55"/>
<polygon fill="#63b8ff" stroke="#63b8ff" points="1277.91,-215.89 1269.79,-209.08 1271.89,-219.47 1277.91,-215.89"/>
</a>
</g>
</g>
<!-- Node14 -->
<g id="Node000014" class="node">
<title>Node14</title>
<g id="a_Node000014"><a xlink:href="func_8hpp.html" target="_top" xlink:title=" ">
<polygon fill="white" stroke="#666666" points="1086.5,-201.88 990.25,-201.88 990.25,-182.62 1086.5,-182.62 1086.5,-201.88"/>
<text text-anchor="middle" x="1038.38" y="-188.38" font-family="Helvetica,sans-Serif" font-size="10.00">yaclib/util/func.hpp</text>
</a>
</g>
</g>
<!-- Node10&#45;&gt;Node14 -->
<g id="edge14_Node000010_Node000014" class="edge">
<title>Node10&#45;&gt;Node14</title>
<g id="a_edge14_Node000010_Node000014"><a xlink:title=" ">
<path fill="none" stroke="#63b8ff" d="M1253.16,-243.03C1212.64,-234.23 1149.73,-220.36 1095.38,-207.5 1092.06,-206.72 1088.63,-205.89 1085.19,-205.06"/>
<polygon fill="#63b8ff" stroke="#63b8ff" points="1086.24,-201.71 1075.69,-202.72 1084.57,-208.51 1086.24,-201.71"/>
</a>
</g>
</g>
<!-- Node12 -->
<g id="Node000012" class="node">
<title>Node12</title>
<g id="a_Node000012"><a xlink:title=" ">
<polygon fill="#e0e0e0" stroke="#999999" points="1310.12,-19.25 1244.62,-19.25 1244.62,0 1310.12,0 1310.12,-19.25"/>
<text text-anchor="middle" x="1277.38" y="-5.75" font-family="Helvetica,sans-Serif" font-size="10.00">string_view</text>
</a>
</g>
</g>
<!-- Node11&#45;&gt;Node12 -->
<g id="edge12_Node000011_Node000012" class="edge">
<title>Node11&#45;&gt;Node12</title>
<g id="a_edge12_Node000011_Node000012"><a xlink:title=" ">
<path fill="none" stroke="#63b8ff" d="M1277.38,-55.08C1277.38,-48.57 1277.38,-39.42 1277.38,-31.12"/>
<polygon fill="#63b8ff" stroke="#63b8ff" points="1280.88,-31.12 1277.38,-21.12 1273.88,-31.12 1280.88,-31.12"/>
</a>
</g>
</g>
<!-- Node15 -->
<g id="Node000015" class="node">
<title>Node15</title>
<g id="a_Node000015"><a xlink:href="ref_8hpp.html" target="_top" xlink:title=" ">
<polygon fill="white" stroke="#666666" points="1134.75,-135.38 1046,-135.38 1046,-116.12 1134.75,-116.12 1134.75,-135.38"/>
<text text-anchor="middle" x="1090.38" y="-121.88" font-family="Helvetica,sans-Serif" font-size="10.00">yaclib/util/ref.hpp</text>
</a>
</g>
</g>
<!-- Node14&#45;&gt;Node15 -->
<g id="edge15_Node000014_Node000015" class="edge">
<title>Node14&#45;&gt;Node15</title>
<g id="a_edge15_Node000014_Node000015"><a xlink:title=" ">
<path fill="none" stroke="#63b8ff" d="M1045.61,-182.28C1053.44,-172.56 1066.16,-156.79 1076.04,-144.53"/>
<polygon fill="#63b8ff" stroke="#63b8ff" points="1078.7,-146.8 1082.26,-136.82 1073.25,-142.41 1078.7,-146.8"/>
</a>
</g>
</g>
<!-- Node17 -->
<g id="Node000017" class="node">
<title>Node17</title>
<g id="a_Node000017"><a xlink:title=" ">
<polygon fill="#e0e0e0" stroke="#999999" points="992.88,-135.38 931.88,-135.38 931.88,-116.12 992.88,-116.12 992.88,-135.38"/>
<text text-anchor="middle" x="962.38" y="-121.88" font-family="Helvetica,sans-Serif" font-size="10.00">type_traits</text>
</a>
</g>
</g>
<!-- Node14&#45;&gt;Node17 -->
<g id="edge18_Node000014_Node000017" class="edge">
<title>Node14&#45;&gt;Node17</title>
<g id="a_edge18_Node000014_Node000017"><a xlink:title=" ">
<path fill="none" stroke="#63b8ff" d="M1027.81,-182.28C1015.78,-172.08 995.91,-155.21 981.22,-142.74"/>
<polygon fill="#63b8ff" stroke="#63b8ff" points="983.9,-140.42 974.01,-136.62 979.37,-145.76 983.9,-140.42"/>
</a>
</g>
</g>
<!-- Node14&#45;&gt;Node18 -->
<g id="edge19_Node000014_Node000018" class="edge">
<title>Node14&#45;&gt;Node18</title>
<g id="a_edge19_Node000014_Node000018"><a xlink:title=" ">
<path fill="none" stroke="#63b8ff" d="M989.78,-187.31C841.13,-175.27 395.27,-139.14 273.43,-129.27"/>
<polygon fill="#63b8ff" stroke="#63b8ff" points="273.81,-125.79 263.56,-128.47 273.25,-132.76 273.81,-125.79"/>
</a>
</g>
</g>
<!-- Node15&#45;&gt;Node11 -->
<g id="edge16_Node000015_Node000011" class="edge">
<title>Node15&#45;&gt;Node11</title>
<g id="a_edge16_Node000015_Node000011"><a xlink:title=" ">
<path fill="none" stroke="#63b8ff" d="M1119.18,-115.68C1150.89,-105.7 1202.07,-89.58 1237.59,-78.4"/>
<polygon fill="#63b8ff" stroke="#63b8ff" points="1238.6,-81.75 1247.09,-75.41 1236.5,-75.07 1238.6,-81.75"/>
</a>
</g>
</g>
<!-- Node16 -->
<g id="Node000016" class="node">
<title>Node16</title>
<g id="a_Node000016"><a xlink:title=" ">
<polygon fill="#e0e0e0" stroke="#999999" points="633.5,-74.5 585.25,-74.5 585.25,-55.25 633.5,-55.25 633.5,-74.5"/>
<text text-anchor="middle" x="609.38" y="-61" font-family="Helvetica,sans-Serif" font-size="10.00">cstddef</text>
</a>
</g>
</g>
<!-- Node15&#45;&gt;Node16 -->
<g id="edge17_Node000015_Node000016" class="edge">
<title>Node15&#45;&gt;Node16</title>
<g id="a_edge17_Node000015_Node000016"><a xlink:title=" ">
<path fill="none" stroke="#63b8ff" d="M1045.61,-117.18C1031.48,-114.89 1015.79,-112.47 1001.38,-110.5 870.19,-92.54 713.6,-76.26 644.78,-69.36"/>
<polygon fill="#63b8ff" stroke="#63b8ff" points="645.54,-65.92 635.24,-68.41 644.85,-72.89 645.54,-65.92"/>
</a>
</g>
</g>
<!-- Node19&#45;&gt;Node10 -->
<g id="edge22_Node000019_Node000010" class="edge">
<title>Node19&#45;&gt;Node10</title>
<g id="a_edge22_Node000019_Node000010"><a xlink:title=" ">
<path fill="none" stroke="#63b8ff" d="M1174.41,-303.93C1198.09,-294.18 1235.99,-278.58 1263.05,-267.43"/>
<polygon fill="#63b8ff" stroke="#63b8ff" points="1264.24,-270.73 1272.15,-263.69 1261.58,-264.26 1264.24,-270.73"/>
</a>
</g>
</g>
<!-- Node19&#45;&gt;Node20 -->
<g id="edge23_Node000019_Node000020" class="edge">
<title>Node19&#45;&gt;Node20</title>
<g id="a_edge23_Node000019_Node000020"><a xlink:title=" ">
<path fill="none" stroke="#63b8ff" d="M1152.38,-304C1152.38,-286.17 1152.38,-245.77 1152.38,-219.02"/>
<polygon fill="#63b8ff" stroke="#63b8ff" points="1155.88,-219.33 1152.38,-209.33 1148.88,-219.33 1155.88,-219.33"/>
</a>
</g>
</g>
<!-- Node20&#45;&gt;Node15 -->
<g id="edge24_Node000020_Node000015" class="edge">
<title>Node20&#45;&gt;Node15</title>
<g id="a_edge24_Node000020_Node000015"><a xlink:title=" ">
<path fill="none" stroke="#63b8ff" d="M1138.31,-176.61C1128.91,-166.84 1116.52,-153.95 1106.69,-143.73"/>
<polygon fill="#63b8ff" stroke="#63b8ff" points="1109.36,-141.45 1099.9,-136.66 1104.31,-146.3 1109.36,-141.45"/>
</a>
</g>
</g>
<!-- Node20&#45;&gt;Node17 -->
<g id="edge25_Node000020_Node000017" class="edge">
<title>Node20&#45;&gt;Node17</title>
<g id="a_edge25_Node000020_Node000017"><a xlink:title=" ">
<path fill="none" stroke="#63b8ff" d="M1109.26,-176.61C1076.26,-165.41 1031.2,-150.11 999.72,-139.43"/>
<polygon fill="#63b8ff" stroke="#63b8ff" points="1001.22,-136.24 990.63,-136.34 998.97,-142.87 1001.22,-136.24"/>
</a>
</g>
</g>
<!-- Node21 -->
<g id="Node000021" class="node">
<title>Node21</title>
<g id="a_Node000021"><a xlink:href="intrusive__ptr__impl_8hpp.html" target="_top" xlink:title=" ">
<polygon fill="white" stroke="#666666" points="1283.12,-141 1169.62,-141 1169.62,-110.5 1283.12,-110.5 1283.12,-141"/>
<text text-anchor="start" x="1177.62" y="-127.5" font-family="Helvetica,sans-Serif" font-size="10.00">yaclib/util/detail</text>
<text text-anchor="middle" x="1226.38" y="-116.25" font-family="Helvetica,sans-Serif" font-size="10.00">/intrusive_ptr_impl.hpp</text>
</a>
</g>
</g>
<!-- Node20&#45;&gt;Node21 -->
<g id="edge26_Node000020_Node000021" class="edge">
<title>Node20&#45;&gt;Node21</title>
<g id="a_edge26_Node000020_Node000021"><a xlink:title=" ">
<path fill="none" stroke="#63b8ff" d="M1169.17,-176.61C1178.63,-168.37 1190.63,-157.9 1201.2,-148.69"/>
<polygon fill="#63b8ff" stroke="#63b8ff" points="1203.27,-151.53 1208.51,-142.32 1198.67,-146.25 1203.27,-151.53"/>
</a>
</g>
</g>
<!-- Node21&#45;&gt;Node11 -->
<g id="edge27_Node000021_Node000011" class="edge">
<title>Node21&#45;&gt;Node11</title>
<g id="a_edge27_Node000021_Node000011"><a xlink:title=" ">
<path fill="none" stroke="#63b8ff" d="M1238.98,-110.2C1246,-102.09 1254.79,-91.95 1262.18,-83.41"/>
<polygon fill="#63b8ff" stroke="#63b8ff" points="1264.62,-85.95 1268.52,-76.1 1259.33,-81.36 1264.62,-85.95"/>
</a>
</g>
</g>
<!-- Node22&#45;&gt;Node19 -->
<g id="edge29_Node000022_Node000019" class="edge">
<title>Node22&#45;&gt;Node19</title>
<g id="a_edge29_Node000022_Node000019"><a xlink:title=" ">
<path fill="none" stroke="#63b8ff" d="M788.82,-370.4C797.23,-368.59 806.08,-366.77 814.38,-365.25 906.82,-348.27 1014.29,-333.06 1082.79,-323.93"/>
<polygon fill="#63b8ff" stroke="#63b8ff" points="1082.9,-327.45 1092.36,-322.66 1081.98,-320.51 1082.9,-327.45"/>
</a>
</g>
</g>
<!-- Node23 -->
<g id="Node000023" class="node">
<title>Node23</title>
<g id="a_Node000023"><a xlink:href="fwd_8hpp.html" target="_top" xlink:title=" ">
<polygon fill="white" stroke="#666666" points="606.12,-262.75 528.62,-262.75 528.62,-243.5 606.12,-243.5 606.12,-262.75"/>
<text text-anchor="middle" x="567.38" y="-249.25" font-family="Helvetica,sans-Serif" font-size="10.00">yaclib/fwd.hpp</text>
</a>
</g>
</g>
<!-- Node22&#45;&gt;Node23 -->
<g id="edge30_Node000022_Node000023" class="edge">
<title>Node22&#45;&gt;Node23</title>
<g id="a_edge30_Node000022_Node000023"><a xlink:title=" ">
<path fill="none" stroke="#63b8ff" d="M745.39,-370.62C737.56,-354.14 718.61,-318.68 692.38,-298.75 670.41,-282.07 641.67,-271.24 617.28,-264.42"/>
<polygon fill="#63b8ff" stroke="#63b8ff" points="618.45,-261.11 607.89,-261.95 616.67,-267.88 618.45,-261.11"/>
</a>
</g>
</g>
<!-- Node24&#45;&gt;Node17 -->
<g id="edge37_Node000024_Node000017" class="edge">
<title>Node24&#45;&gt;Node17</title>
<g id="a_edge37_Node000024_Node000017"><a xlink:title=" ">
<path fill="none" stroke="#63b8ff" d="M632.94,-370.4C647.69,-360.46 671.89,-343.98 692.38,-329.25 786.59,-261.53 896.6,-177.41 941.6,-142.78"/>
<polygon fill="#63b8ff" stroke="#63b8ff" points="943.67,-145.6 949.46,-136.73 939.4,-140.06 943.67,-145.6"/>
</a>
</g>
</g>
<!-- Node24&#45;&gt;Node18 -->
<g id="edge38_Node000024_Node000018" class="edge">
<title>Node24&#45;&gt;Node18</title>
<g id="a_edge38_Node000024_Node000018"><a xlink:title=" ">
<path fill="none" stroke="#63b8ff" d="M605.96,-370.5C550.07,-333.04 335.44,-189.14 264.95,-141.88"/>
<polygon fill="#63b8ff" stroke="#63b8ff" points="267.14,-139.14 256.89,-136.48 263.25,-144.96 267.14,-139.14"/>
</a>
</g>
</g>
<!-- Node24&#45;&gt;Node23 -->
<g id="edge32_Node000024_Node000023" class="edge">
<title>Node24&#45;&gt;Node23</title>
<g id="a_edge32_Node000024_Node000023"><a xlink:title=" ">
<path fill="none" stroke="#63b8ff" d="M605.59,-370.65C593.26,-361.84 575.98,-347.09 568.38,-329.25 560.87,-311.64 561.64,-289.53 563.66,-273.87"/>
<polygon fill="#63b8ff" stroke="#63b8ff" points="567.06,-274.82 565.18,-264.39 560.14,-273.71 567.06,-274.82"/>
</a>
</g>
</g>
<!-- Node25 -->
<g id="Node000025" class="node">
<title>Node25</title>
<g id="a_Node000025"><a xlink:href="type__traits__impl_8hpp.html" target="_top" xlink:title=" ">
<polygon fill="white" stroke="#666666" points="683,-329.25 577.75,-329.25 577.75,-298.75 683,-298.75 683,-329.25"/>
<text text-anchor="start" x="585.75" y="-315.75" font-family="Helvetica,sans-Serif" font-size="10.00">yaclib/util/detail</text>
<text text-anchor="middle" x="630.38" y="-304.5" font-family="Helvetica,sans-Serif" font-size="10.00">/type_traits_impl.hpp</text>
</a>
</g>
</g>
<!-- Node24&#45;&gt;Node25 -->
<g id="edge33_Node000024_Node000025" class="edge">
<title>Node24&#45;&gt;Node25</title>
<g id="a_edge33_Node000024_Node000025"><a xlink:title=" ">
<path fill="none" stroke="#63b8ff" d="M620.9,-370.53C622.23,-362.79 624.2,-351.2 626.01,-340.62"/>
<polygon fill="#63b8ff" stroke="#63b8ff" points="629.44,-341.28 627.67,-330.84 622.54,-340.11 629.44,-341.28"/>
</a>
</g>
</g>
<!-- Node24&#45;&gt;Node26 -->
<g id="edge36_Node000024_Node000026" class="edge">
<title>Node24&#45;&gt;Node26</title>
<g id="a_edge36_Node000024_Node000026"><a xlink:title=" ">
<path fill="none" stroke="#63b8ff" d="M578.28,-370.44C536.71,-361.04 470.72,-345.46 414.38,-329.25 412.42,-328.69 410.42,-328.09 408.41,-327.48"/>
<polygon fill="#63b8ff" stroke="#63b8ff" points="409.68,-324.21 399.09,-324.53 407.57,-330.89 409.68,-324.21"/>
</a>
</g>
</g>
<!-- Node25&#45;&gt;Node17 -->
<g id="edge35_Node000025_Node000017" class="edge">
<title>Node25&#45;&gt;Node17</title>
<g id="a_edge35_Node000025_Node000017"><a xlink:title=" ">
<path fill="none" stroke="#63b8ff" d="M633.11,-298.37C639.21,-270.07 656.73,-207.91 697.38,-177 731.83,-150.79 854.76,-136.23 920.38,-130.16"/>
<polygon fill="#63b8ff" stroke="#63b8ff" points="920.39,-133.67 930.04,-129.29 919.77,-126.7 920.39,-133.67"/>
</a>
</g>
</g>
<!-- Node25&#45;&gt;Node23 -->
<g id="edge34_Node000025_Node000023" class="edge">
<title>Node25&#45;&gt;Node23</title>
<g id="a_edge34_Node000025_Node000023"><a xlink:title=" ">
<path fill="none" stroke="#63b8ff" d="M614.8,-298.45C605.86,-290.09 594.58,-279.55 585.27,-270.85"/>
<polygon fill="#63b8ff" stroke="#63b8ff" points="587.89,-268.51 578.19,-264.23 583.11,-273.62 587.89,-268.51"/>
</a>
</g>
</g>
<!-- Node29&#45;&gt;Node17 -->
<g id="edge43_Node000029_Node000017" class="edge">
<title>Node29&#45;&gt;Node17</title>
<g id="a_edge43_Node000029_Node000017"><a xlink:title=" ">
<path fill="none" stroke="#63b8ff" d="M958.83,-437.11C959.88,-415.95 962.38,-360.96 962.38,-315 962.38,-315 962.38,-315 962.38,-252.12 962.38,-215.22 962.38,-172.21 962.38,-147.37"/>
<polygon fill="#63b8ff" stroke="#63b8ff" points="965.88,-147.39 962.38,-137.39 958.88,-147.39 965.88,-147.39"/>
</a>
</g>
</g>
<!-- Node30 -->
<g id="Node000030" class="node">
<title>Node30</title>
<g id="a_Node000030"><a xlink:title=" ">
<polygon fill="#e0e0e0" stroke="#999999" points="1040.62,-390.12 990.12,-390.12 990.12,-370.88 1040.62,-370.88 1040.62,-390.12"/>
<text text-anchor="middle" x="1015.38" y="-376.62" font-family="Helvetica,sans-Serif" font-size="10.00">memory</text>
</a>
</g>
</g>
<!-- Node29&#45;&gt;Node30 -->
<g id="edge42_Node000029_Node000030" class="edge">
<title>Node29&#45;&gt;Node30</title>
<g id="a_edge42_Node000029_Node000030"><a xlink:title=" ">
<path fill="none" stroke="#63b8ff" d="M966.3,-437.03C974.98,-427.21 989.11,-411.23 999.98,-398.92"/>
<polygon fill="#63b8ff" stroke="#63b8ff" points="1002.52,-401.34 1006.51,-391.53 997.27,-396.7 1002.52,-401.34"/>
</a>
</g>
</g>
<!-- Node31&#45;&gt;Node18 -->
<g id="edge48_Node000031_Node000018" class="edge">
<title>Node31&#45;&gt;Node18</title>
<g id="a_edge48_Node000031_Node000018"><a xlink:title=" ">
<path fill="none" stroke="#63b8ff" d="M440.39,-441.7C367.54,-432.45 242.38,-403.66 242.38,-315 242.38,-315 242.38,-315 242.38,-252.12 242.38,-215.22 242.38,-172.21 242.38,-147.37"/>
<polygon fill="#63b8ff" stroke="#63b8ff" points="245.88,-147.39 242.38,-137.39 238.88,-147.39 245.88,-147.39"/>
</a>
</g>
</g>
<!-- Node31&#45;&gt;Node23 -->
<g id="edge45_Node000031_Node000023" class="edge">
<title>Node31&#45;&gt;Node23</title>
<g id="a_edge45_Node000031_Node000023"><a xlink:title=" ">
<path fill="none" stroke="#63b8ff" d="M488.58,-437.25C484.22,-422.14 477.12,-390.35 485.38,-365.25 497.97,-326.96 529.39,-291.04 549.47,-270.88"/>
<polygon fill="#63b8ff" stroke="#63b8ff" points="551.74,-273.56 556.46,-264.07 546.86,-268.54 551.74,-273.56"/>
</a>
</g>
</g>
<!-- Node31&#45;&gt;Node24 -->
<g id="edge46_Node000031_Node000024" class="edge">
<title>Node31&#45;&gt;Node24</title>
<g id="a_edge46_Node000031_Node000024"><a xlink:title=" ">
<path fill="none" stroke="#63b8ff" d="M509.44,-436.9C530.69,-426.19 566.22,-408.28 591.12,-395.74"/>
<polygon fill="#63b8ff" stroke="#63b8ff" points="592.69,-398.86 600.05,-391.24 589.54,-392.61 592.69,-398.86"/>
</a>
</g>
</g>
<!-- Node31&#45;&gt;Node26 -->
<g id="edge47_Node000031_Node000026" class="edge">
<title>Node31&#45;&gt;Node26</title>
<g id="a_edge47_Node000031_Node000026"><a xlink:title=" ">
<path fill="none" stroke="#63b8ff" d="M483.13,-437C463.35,-415.4 412.94,-360.37 387.13,-332.2"/>
<polygon fill="#63b8ff" stroke="#63b8ff" points="390.04,-330.19 380.7,-325.18 384.88,-334.92 390.04,-330.19"/>
</a>
</g>
</g>
<!-- Node32 -->
<g id="Node000032" class="node">
<title>Node32</title>
<g id="a_Node000032"><a xlink:title=" ">
<polygon fill="#e0e0e0" stroke="#999999" points="540,-390.12 494.75,-390.12 494.75,-370.88 540,-370.88 540,-390.12"/>
<text text-anchor="middle" x="517.38" y="-376.62" font-family="Helvetica,sans-Serif" font-size="10.00">variant</text>
</a>
</g>
</g>
<!-- Node31&#45;&gt;Node32 -->
<g id="edge49_Node000031_Node000032" class="edge">
<title>Node31&#45;&gt;Node32</title>
<g id="a_edge49_Node000031_Node000032"><a xlink:title=" ">
<path fill="none" stroke="#63b8ff" d="M494.99,-437.03C498.75,-427.69 504.77,-412.78 509.61,-400.76"/>
<polygon fill="#63b8ff" stroke="#63b8ff" points="512.73,-402.38 513.22,-391.8 506.24,-399.76 512.73,-402.38"/>
</a>
</g>
</g>
<!-- Node33&#45;&gt;Node7 -->
<g id="edge52_Node000033_Node000007" class="edge">
<title>Node33&#45;&gt;Node7</title>
<g id="a_edge52_Node000033_Node000007"><a xlink:title=" ">
<path fill="none" stroke="#63b8ff" d="M836.87,-564.36C822.23,-555.62 803.42,-544.39 787.37,-534.8"/>
<polygon fill="#63b8ff" stroke="#63b8ff" points="789.46,-531.98 779.08,-529.85 785.88,-537.99 789.46,-531.98"/>
</a>
</g>
</g>
<!-- Node34&#45;&gt;Node4 -->
<g id="edge56_Node000034_Node000004" class="edge">
<title>Node34&#45;&gt;Node4</title>
<g id="a_edge56_Node000034_Node000004"><a xlink:title=" ">
<path fill="none" stroke="#63b8ff" d="M182.7,-442.98C336.86,-433.97 780.33,-407.19 809.38,-395.75 829.53,-387.82 827.32,-373.41 847.38,-365.25 1001.23,-302.65 1055.94,-358.92 1219.38,-329.25 1223.19,-328.56 1227.14,-327.72 1231.07,-326.81"/>
<polygon fill="#63b8ff" stroke="#63b8ff" points="1231.69,-330.26 1240.55,-324.45 1230.01,-323.47 1231.69,-330.26"/>
</a>
</g>
</g>
<!-- Node34&#45;&gt;Node16 -->
<g id="edge58_Node000034_Node000016" class="edge">
<title>Node34&#45;&gt;Node16</title>
<g id="a_edge58_Node000034_Node000016"><a xlink:title=" ">
<path fill="none" stroke="#63b8ff" d="M130.01,-431.46C129.43,-407.29 128.38,-357.31 128.38,-315 128.38,-315 128.38,-315 128.38,-191.25 128.38,-138.82 166.79,-132.51 214.38,-110.5 277.87,-81.13 488.55,-70.29 573.45,-67.05"/>
<polygon fill="#63b8ff" stroke="#63b8ff" points="573.42,-70.56 583.29,-66.69 573.17,-63.56 573.42,-70.56"/>
</a>
</g>
</g>
<!-- Node34&#45;&gt;Node18 -->
<g id="edge59_Node000034_Node000018" class="edge">
<title>Node34&#45;&gt;Node18</title>
<g id="a_edge59_Node000034_Node000018"><a xlink:title=" ">
<path fill="none" stroke="#63b8ff" d="M137.15,-431.43C147.57,-407.62 166.38,-358.63 166.38,-315 166.38,-315 166.38,-315 166.38,-252.12 166.38,-217.07 171.88,-206.77 190.38,-177 198.47,-163.97 210.69,-151.93 221.24,-142.9"/>
<polygon fill="#63b8ff" stroke="#63b8ff" points="223.24,-145.79 228.78,-136.75 218.82,-140.36 223.24,-145.79"/>
</a>
</g>
</g>
<!-- Node34&#45;&gt;Node28 -->
<g id="edge60_Node000034_Node000028" class="edge">
<title>Node34&#45;&gt;Node28</title>
<g id="a_edge60_Node000034_Node000028"><a xlink:title=" ">
<path fill="none" stroke="#63b8ff" d="M181.48,-431.28C220.92,-419.93 274.82,-404.41 311.91,-393.73"/>
<polygon fill="#63b8ff" stroke="#63b8ff" points="312.74,-397.13 321.38,-391 310.81,-390.4 312.74,-397.13"/>
</a>
</g>
</g>
<!-- Node35 -->
<g id="Node000035" class="node">
<title>Node35</title>
<g id="a_Node000035"><a xlink:href="default__deleter_8hpp.html" target="_top" xlink:title=" ">
<polygon fill="white" stroke="#666666" points="100.75,-395.75 0,-395.75 0,-365.25 100.75,-365.25 100.75,-395.75"/>
<text text-anchor="start" x="8" y="-382.25" font-family="Helvetica,sans-Serif" font-size="10.00">yaclib/util/detail</text>
<text text-anchor="middle" x="50.38" y="-371" font-family="Helvetica,sans-Serif" font-size="10.00">/default_deleter.hpp</text>
</a>
</g>
</g>
<!-- Node34&#45;&gt;Node35 -->
<g id="edge57_Node000034_Node000035" class="edge">
<title>Node34&#45;&gt;Node35</title>
<g id="a_edge57_Node000034_Node000035"><a xlink:title=" ">
<path fill="none" stroke="#63b8ff" d="M112.22,-431.36C101.89,-423.03 88.76,-412.44 77.25,-403.17"/>
<polygon fill="#63b8ff" stroke="#63b8ff" points="79.62,-400.58 69.63,-397.03 75.22,-406.03 79.62,-400.58"/>
</a>
</g>
</g>
<!-- Node36&#45;&gt;Node35 -->
<g id="edge62_Node000036_Node000035" class="edge">
<title>Node36&#45;&gt;Node35</title>
<g id="a_edge62_Node000036_Node000035"><a xlink:title=" ">
<path fill="none" stroke="#63b8ff" d="M93.32,-498.12C85.32,-488.58 75.46,-475.43 69.38,-462.25 61.34,-444.85 56.52,-423.72 53.75,-407.44"/>
<polygon fill="#63b8ff" stroke="#63b8ff" points="57.21,-406.93 52.24,-397.57 50.29,-407.99 57.21,-406.93"/>
</a>
</g>
</g>
</g>
</svg>
