<?xml version="1.0" encoding="UTF-8" standalone="no"?>
<!DOCTYPE svg PUBLIC "-//W3C//DTD SVG 1.1//EN"
 "http://www.w3.org/Graphics/SVG/1.1/DTD/svg11.dtd">
<!-- Generated by graphviz version 9.0.0 (20230911.1827)
 -->
<!-- Title: include/yaclib/coro/detail/on_awaiter.hpp Pages: 1 -->
<svg width="1297pt" height="670pt"
 viewBox="0.00 0.00 1297.12 669.75" xmlns="http://www.w3.org/2000/svg" xmlns:xlink="http://www.w3.org/1999/xlink">
<g id="graph0" class="graph" transform="scale(1 1) rotate(0) translate(4 665.75)">
<title>include/yaclib/coro/detail/on_awaiter.hpp</title>
<!-- Node1 -->
<g id="Node000001" class="node">
<title>Node1</title>
<g id="a_Node000001"><a xlink:title=" ">
<polygon fill="#999999" stroke="#666666" points="265.88,-661.75 155.38,-661.75 155.38,-631.25 265.88,-631.25 265.88,-661.75"/>
<text text-anchor="start" x="163.38" y="-648.25" font-family="Helvetica,sans-Serif" font-size="10.00">include/yaclib/coro</text>
<text text-anchor="middle" x="210.62" y="-637" font-family="Helvetica,sans-Serif" font-size="10.00">/detail/on_awaiter.hpp</text>
</a>
</g>
</g>
<!-- Node2 -->
<g id="Node000002" class="node">
<title>Node2</title>
<g id="a_Node000002"><a xlink:href="coro_8hpp.html" target="_top" xlink:title=" ">
<polygon fill="white" stroke="#666666" points="163.75,-523.12 61.5,-523.12 61.5,-503.88 163.75,-503.88 163.75,-523.12"/>
<text text-anchor="middle" x="112.62" y="-509.62" font-family="Helvetica,sans-Serif" font-size="10.00">yaclib/coro/coro.hpp</text>
</a>
</g>
</g>
<!-- Node1&#45;&gt;Node2 -->
<g id="edge1_Node000001_Node000002" class="edge">
<title>Node1&#45;&gt;Node2</title>
<g id="a_edge1_Node000001_Node000002"><a xlink:title=" ">
<path fill="none" stroke="#63b8ff" d="M199.76,-630.98C181.73,-606.88 145.68,-558.68 126.07,-532.47"/>
<polygon fill="#63b8ff" stroke="#63b8ff" points="129.13,-530.72 120.34,-524.81 123.53,-534.92 129.13,-530.72"/>
</a>
</g>
</g>
<!-- Node4 -->
<g id="Node000004" class="node">
<title>Node4</title>
<g id="a_Node000004"><a xlink:href="promise__type_8hpp.html" target="_top" xlink:title=" ">
<polygon fill="white" stroke="#666666" points="718,-595.25 623.25,-595.25 623.25,-564.75 718,-564.75 718,-595.25"/>
<text text-anchor="start" x="631.25" y="-581.75" font-family="Helvetica,sans-Serif" font-size="10.00">yaclib/coro/detail</text>
<text text-anchor="middle" x="670.62" y="-570.5" font-family="Helvetica,sans-Serif" font-size="10.00">/promise_type.hpp</text>
</a>
</g>
</g>
<!-- Node1&#45;&gt;Node4 -->
<g id="edge3_Node000001_Node000004" class="edge">
<title>Node1&#45;&gt;Node4</title>
<g id="a_edge3_Node000001_Node000004"><a xlink:title=" ">
<path fill="none" stroke="#63b8ff" d="M266.11,-637.72C353.45,-625.47 522.22,-601.81 611.66,-589.27"/>
<polygon fill="#63b8ff" stroke="#63b8ff" points="612.03,-592.75 621.45,-587.89 611.06,-585.82 612.03,-592.75"/>
</a>
</g>
</g>
<!-- Node9 -->
<g id="Node000009" class="node">
<title>Node9</title>
<g id="a_Node000009"><a xlink:href="job_8hpp.html" target="_top" xlink:title=" ">
<polygon fill="white" stroke="#666666" points="247.88,-201.88 155.38,-201.88 155.38,-182.62 247.88,-182.62 247.88,-201.88"/>
<text text-anchor="middle" x="201.62" y="-188.38" font-family="Helvetica,sans-Serif" font-size="10.00">yaclib/exe/job.hpp</text>
</a>
</g>
</g>
<!-- Node1&#45;&gt;Node9 -->
<g id="edge55_Node000001_Node000009" class="edge">
<title>Node1&#45;&gt;Node9</title>
<g id="a_edge55_Node000001_Node000009"><a xlink:title=" ">
<path fill="none" stroke="#63b8ff" d="M207.14,-631.06C201.65,-607.03 191.62,-557.24 191.62,-514.5 191.62,-514.5 191.62,-514.5 191.62,-313 191.62,-277.97 195.93,-237.38 198.89,-213.59"/>
<polygon fill="#63b8ff" stroke="#63b8ff" points="202.35,-214.11 200.16,-203.74 195.41,-213.21 202.35,-214.11"/>
</a>
</g>
</g>
<!-- Node18 -->
<g id="Node000018" class="node">
<title>Node18</title>
<g id="a_Node000018"><a xlink:href="executor_8hpp.html" target="_top" xlink:title=" ">
<polygon fill="white" stroke="#666666" points="335.88,-262.75 219.38,-262.75 219.38,-243.5 335.88,-243.5 335.88,-262.75"/>
<text text-anchor="middle" x="277.62" y="-249.25" font-family="Helvetica,sans-Serif" font-size="10.00">yaclib/exe/executor.hpp</text>
</a>
</g>
</g>
<!-- Node1&#45;&gt;Node18 -->
<g id="edge54_Node000001_Node000018" class="edge">
<title>Node1&#45;&gt;Node18</title>
<g id="a_edge54_Node000001_Node000018"><a xlink:title=" ">
<path fill="none" stroke="#63b8ff" d="M214.11,-631.06C219.6,-607.03 229.62,-557.24 229.62,-514.5 229.62,-514.5 229.62,-514.5 229.62,-379.5 229.62,-339.28 251.44,-296.31 265.65,-272.58"/>
<polygon fill="#63b8ff" stroke="#63b8ff" points="268.44,-274.73 270.75,-264.39 262.49,-271.03 268.44,-274.73"/>
</a>
</g>
</g>
<!-- Node3 -->
<g id="Node000003" class="node">
<title>Node3</title>
<g id="a_Node000003"><a xlink:title=" ">
<polygon fill="#e0e0e0" stroke="#999999" points="87.25,-262.75 0,-262.75 0,-243.5 87.25,-243.5 87.25,-262.75"/>
<text text-anchor="middle" x="43.62" y="-249.25" font-family="Helvetica,sans-Serif" font-size="10.00">yaclib/config.hpp</text>
</a>
</g>
</g>
<!-- Node2&#45;&gt;Node3 -->
<g id="edge2_Node000002_Node000003" class="edge">
<title>Node2&#45;&gt;Node3</title>
<g id="a_edge2_Node000002_Node000003"><a xlink:title=" ">
<path fill="none" stroke="#63b8ff" d="M110.25,-503.61C100.44,-466.89 62.97,-326.55 48.95,-274.08"/>
<polygon fill="#63b8ff" stroke="#63b8ff" points="52.41,-273.47 46.45,-264.71 45.65,-275.28 52.41,-273.47"/>
</a>
</g>
</g>
<!-- Node4&#45;&gt;Node2 -->
<g id="edge48_Node000004_Node000002" class="edge">
<title>Node4&#45;&gt;Node2</title>
<g id="a_edge48_Node000004_Node000002"><a xlink:title=" ">
<path fill="none" stroke="#63b8ff" d="M623.05,-573.5C522.4,-561.87 287.94,-534.76 175.26,-521.74"/>
<polygon fill="#63b8ff" stroke="#63b8ff" points="175.94,-518.29 165.6,-520.62 175.13,-525.25 175.94,-518.29"/>
</a>
</g>
</g>
<!-- Node5 -->
<g id="Node000005" class="node">
<title>Node5</title>
<g id="a_Node000005"><a xlink:href="unique__core_8hpp.html" target="_top" xlink:title=" ">
<polygon fill="white" stroke="#666666" points="715.38,-528.75 625.88,-528.75 625.88,-498.25 715.38,-498.25 715.38,-528.75"/>
<text text-anchor="start" x="633.88" y="-515.25" font-family="Helvetica,sans-Serif" font-size="10.00">yaclib/algo/detail</text>
<text text-anchor="middle" x="670.62" y="-504" font-family="Helvetica,sans-Serif" font-size="10.00">/unique_core.hpp</text>
</a>
</g>
</g>
<!-- Node4&#45;&gt;Node5 -->
<g id="edge4_Node000004_Node000005" class="edge">
<title>Node4&#45;&gt;Node5</title>
<g id="a_edge4_Node000004_Node000005"><a xlink:title=" ">
<path fill="none" stroke="#63b8ff" d="M670.62,-564.36C670.62,-557.27 670.62,-548.54 670.62,-540.38"/>
<polygon fill="#63b8ff" stroke="#63b8ff" points="674.13,-540.59 670.63,-530.59 667.13,-540.59 674.13,-540.59"/>
</a>
</g>
</g>
<!-- Node19 -->
<g id="Node000019" class="node">
<title>Node19</title>
<g id="a_Node000019"><a xlink:href="intrusive__ptr_8hpp.html" target="_top" xlink:title=" ">
<polygon fill="white" stroke="#666666" points="371.75,-207.5 275.5,-207.5 275.5,-177 371.75,-177 371.75,-207.5"/>
<text text-anchor="start" x="283.5" y="-194" font-family="Helvetica,sans-Serif" font-size="10.00">yaclib/util/intrusive</text>
<text text-anchor="middle" x="323.62" y="-182.75" font-family="Helvetica,sans-Serif" font-size="10.00">_ptr.hpp</text>
</a>
</g>
</g>
<!-- Node4&#45;&gt;Node19 -->
<g id="edge52_Node000004_Node000019" class="edge">
<title>Node4&#45;&gt;Node19</title>
<g id="a_edge52_Node000004_Node000019"><a xlink:title=" ">
<path fill="none" stroke="#63b8ff" d="M650.04,-564.36C638.68,-555.29 625.18,-542.73 616.62,-528.75 597.14,-496.93 593.62,-485.32 593.62,-448 593.62,-448 593.62,-448 593.62,-313 593.62,-221.73 463.1,-199.49 383.55,-194.41"/>
<polygon fill="#63b8ff" stroke="#63b8ff" points="383.9,-190.92 373.72,-193.86 383.51,-197.91 383.9,-190.92"/>
</a>
</g>
</g>
<!-- Node25 -->
<g id="Node000025" class="node">
<title>Node25</title>
<g id="a_Node000025"><a xlink:href="cast_8hpp.html" target="_top" xlink:title=" ">
<polygon fill="white" stroke="#666666" points="793.75,-390.12 697.5,-390.12 697.5,-370.88 793.75,-370.88 793.75,-390.12"/>
<text text-anchor="middle" x="745.62" y="-376.62" font-family="Helvetica,sans-Serif" font-size="10.00">yaclib/util/cast.hpp</text>
</a>
</g>
</g>
<!-- Node4&#45;&gt;Node25 -->
<g id="edge49_Node000004_Node000025" class="edge">
<title>Node4&#45;&gt;Node25</title>
<g id="a_edge49_Node000004_Node000025"><a xlink:title=" ">
<path fill="none" stroke="#63b8ff" d="M692.48,-564.35C703.95,-555.45 717.15,-543.05 724.62,-528.75 746.19,-487.48 747.79,-431.29 746.86,-401.68"/>
<polygon fill="#63b8ff" stroke="#63b8ff" points="750.37,-401.75 746.4,-391.92 743.37,-402.08 750.37,-401.75"/>
</a>
</g>
</g>
<!-- Node30 -->
<g id="Node000030" class="node">
<title>Node30</title>
<g id="a_Node000030"><a xlink:title=" ">
<polygon fill="#e0e0e0" stroke="#999999" points="1103.25,-135.38 1046,-135.38 1046,-116.12 1103.25,-116.12 1103.25,-135.38"/>
<text text-anchor="middle" x="1074.62" y="-121.88" font-family="Helvetica,sans-Serif" font-size="10.00">exception</text>
</a>
</g>
</g>
<!-- Node4&#45;&gt;Node30 -->
<g id="edge53_Node000004_Node000030" class="edge">
<title>Node4&#45;&gt;Node30</title>
<g id="a_edge53_Node000004_Node000030"><a xlink:title=" ">
<path fill="none" stroke="#63b8ff" d="M718.21,-576.34C840.75,-568.2 1157.62,-538.4 1157.62,-448 1157.62,-448 1157.62,-448 1157.62,-252.12 1157.62,-217.68 1157.4,-205.87 1138.62,-177 1129.24,-162.56 1114.28,-150.48 1101.18,-141.78"/>
<polygon fill="#63b8ff" stroke="#63b8ff" points="1103.26,-138.96 1092.93,-136.61 1099.54,-144.89 1103.26,-138.96"/>
</a>
</g>
</g>
<!-- Node32 -->
<g id="Node000032" class="node">
<title>Node32</title>
<g id="a_Node000032"><a xlink:href="unique__counter_8hpp.html" target="_top" xlink:title=" ">
<polygon fill="white" stroke="#666666" points="1289.12,-528.75 1186.12,-528.75 1186.12,-498.25 1289.12,-498.25 1289.12,-528.75"/>
<text text-anchor="start" x="1194.12" y="-515.25" font-family="Helvetica,sans-Serif" font-size="10.00">yaclib/util/detail</text>
<text text-anchor="middle" x="1237.62" y="-504" font-family="Helvetica,sans-Serif" font-size="10.00">/unique_counter.hpp</text>
</a>
</g>
</g>
<!-- Node4&#45;&gt;Node32 -->
<g id="edge50_Node000004_Node000032" class="edge">
<title>Node4&#45;&gt;Node32</title>
<g id="a_edge50_Node000004_Node000032"><a xlink:title=" ">
<path fill="none" stroke="#63b8ff" d="M718.17,-576.02C807.43,-570.04 1006.05,-554.84 1171.62,-528.75 1172.64,-528.59 1173.66,-528.42 1174.69,-528.25"/>
<polygon fill="#63b8ff" stroke="#63b8ff" points="1175.13,-531.73 1184.36,-526.52 1173.9,-524.84 1175.13,-531.73"/>
</a>
</g>
</g>
<!-- Node6 -->
<g id="Node000006" class="node">
<title>Node6</title>
<g id="a_Node000006"><a xlink:href="result__core_8hpp.html" target="_top" xlink:title=" ">
<polygon fill="white" stroke="#666666" points="714.62,-462.25 626.62,-462.25 626.62,-431.75 714.62,-431.75 714.62,-462.25"/>
<text text-anchor="start" x="634.62" y="-448.75" font-family="Helvetica,sans-Serif" font-size="10.00">yaclib/algo/detail</text>
<text text-anchor="middle" x="670.62" y="-437.5" font-family="Helvetica,sans-Serif" font-size="10.00">/result_core.hpp</text>
</a>
</g>
</g>
<!-- Node5&#45;&gt;Node6 -->
<g id="edge5_Node000005_Node000006" class="edge">
<title>Node5&#45;&gt;Node6</title>
<g id="a_edge5_Node000005_Node000006"><a xlink:title=" ">
<path fill="none" stroke="#63b8ff" d="M670.62,-497.86C670.62,-490.77 670.62,-482.04 670.62,-473.88"/>
<polygon fill="#63b8ff" stroke="#63b8ff" points="674.13,-474.09 670.63,-464.09 667.13,-474.09 674.13,-474.09"/>
</a>
</g>
</g>
<!-- Node7 -->
<g id="Node000007" class="node">
<title>Node7</title>
<g id="a_Node000007"><a xlink:href="base__core_8hpp.html" target="_top" xlink:title=" ">
<polygon fill="white" stroke="#666666" points="435.62,-395.75 347.62,-395.75 347.62,-365.25 435.62,-365.25 435.62,-395.75"/>
<text text-anchor="start" x="355.62" y="-382.25" font-family="Helvetica,sans-Serif" font-size="10.00">yaclib/algo/detail</text>
<text text-anchor="middle" x="391.62" y="-371" font-family="Helvetica,sans-Serif" font-size="10.00">/base_core.hpp</text>
</a>
</g>
</g>
<!-- Node6&#45;&gt;Node7 -->
<g id="edge6_Node000006_Node000007" class="edge">
<title>Node6&#45;&gt;Node7</title>
<g id="a_edge6_Node000006_Node000007"><a xlink:title=" ">
<path fill="none" stroke="#63b8ff" d="M626.42,-435.78C577.89,-424.56 499.89,-406.53 447.25,-394.36"/>
<polygon fill="#63b8ff" stroke="#63b8ff" points="448.09,-390.96 437.56,-392.12 446.52,-397.78 448.09,-390.96"/>
</a>
</g>
</g>
<!-- Node17 -->
<g id="Node000017" class="node">
<title>Node17</title>
<g id="a_Node000017"><a xlink:title=" ">
<polygon fill="#e0e0e0" stroke="#999999" points="976.88,-74.5 938.38,-74.5 938.38,-55.25 976.88,-55.25 976.88,-74.5"/>
<text text-anchor="middle" x="957.62" y="-61" font-family="Helvetica,sans-Serif" font-size="10.00">utility</text>
</a>
</g>
</g>
<!-- Node6&#45;&gt;Node17 -->
<g id="edge47_Node000006_Node000017" class="edge">
<title>Node6&#45;&gt;Node17</title>
<g id="a_edge47_Node000006_Node000017"><a xlink:title=" ">
<path fill="none" stroke="#63b8ff" d="M714.9,-446.58C800.34,-445.16 979.62,-428.62 979.62,-315 979.62,-315 979.62,-315 979.62,-191.25 979.62,-153.61 969.89,-110.56 963.37,-85.96"/>
<polygon fill="#63b8ff" stroke="#63b8ff" points="966.76,-85.07 960.72,-76.36 960.01,-86.93 966.76,-85.07"/>
</a>
</g>
</g>
<!-- Node6&#45;&gt;Node25 -->
<g id="edge31_Node000006_Node000025" class="edge">
<title>Node6&#45;&gt;Node25</title>
<g id="a_edge31_Node000006_Node000025"><a xlink:title=" ">
<path fill="none" stroke="#63b8ff" d="M687.64,-431.36C699.35,-421.29 714.91,-407.92 726.96,-397.56"/>
<polygon fill="#63b8ff" stroke="#63b8ff" points="728.92,-400.48 734.22,-391.31 724.35,-395.18 728.92,-400.48"/>
</a>
</g>
</g>
<!-- Node27 -->
<g id="Node000027" class="node">
<title>Node27</title>
<g id="a_Node000027"><a xlink:href="result_8hpp.html" target="_top" xlink:title=" ">
<polygon fill="white" stroke="#666666" points="946.38,-262.75 844.88,-262.75 844.88,-243.5 946.38,-243.5 946.38,-262.75"/>
<text text-anchor="middle" x="895.62" y="-249.25" font-family="Helvetica,sans-Serif" font-size="10.00">yaclib/util/result.hpp</text>
</a>
</g>
</g>
<!-- Node6&#45;&gt;Node27 -->
<g id="edge34_Node000006_Node000027" class="edge">
<title>Node6&#45;&gt;Node27</title>
<g id="a_edge34_Node000006_Node000027"><a xlink:title=" ">
<path fill="none" stroke="#63b8ff" d="M669.98,-431.29C669.55,-401.47 673.14,-333.74 711.62,-298.75 729.49,-282.51 787.43,-270.21 833.58,-262.68"/>
<polygon fill="#63b8ff" stroke="#63b8ff" points="833.9,-266.18 843.23,-261.16 832.8,-259.26 833.9,-266.18"/>
</a>
</g>
</g>
<!-- Node8 -->
<g id="Node000008" class="node">
<title>Node8</title>
<g id="a_Node000008"><a xlink:href="inline__core_8hpp.html" target="_top" xlink:title=" ">
<polygon fill="white" stroke="#666666" points="162.62,-329.25 74.62,-329.25 74.62,-298.75 162.62,-298.75 162.62,-329.25"/>
<text text-anchor="start" x="82.62" y="-315.75" font-family="Helvetica,sans-Serif" font-size="10.00">yaclib/algo/detail</text>
<text text-anchor="middle" x="118.62" y="-304.5" font-family="Helvetica,sans-Serif" font-size="10.00">/inline_core.hpp</text>
</a>
</g>
</g>
<!-- Node7&#45;&gt;Node8 -->
<g id="edge7_Node000007_Node000008" class="edge">
<title>Node7&#45;&gt;Node8</title>
<g id="a_edge7_Node000007_Node000008"><a xlink:title=" ">
<path fill="none" stroke="#63b8ff" d="M347.16,-368.99C299.96,-357.84 225.29,-340.2 174.23,-328.14"/>
<polygon fill="#63b8ff" stroke="#63b8ff" points="175.09,-324.74 164.55,-325.85 173.48,-331.56 175.09,-324.74"/>
</a>
</g>
</g>
<!-- Node7&#45;&gt;Node18 -->
<g id="edge19_Node000007_Node000018" class="edge">
<title>Node7&#45;&gt;Node18</title>
<g id="a_edge19_Node000007_Node000018"><a xlink:title=" ">
<path fill="none" stroke="#63b8ff" d="M347.24,-369.08C325.51,-361.64 300.99,-349.29 286.62,-329.25 275.27,-313.41 274.06,-290.7 275.04,-274.4"/>
<polygon fill="#63b8ff" stroke="#63b8ff" points="278.52,-274.76 276,-264.47 271.55,-274.08 278.52,-274.76"/>
</a>
</g>
</g>
<!-- Node21 -->
<g id="Node000021" class="node">
<title>Node21</title>
<g id="a_Node000021"><a xlink:href="inline_8hpp.html" target="_top" xlink:title=" ">
<polygon fill="white" stroke="#666666" points="397.75,-323.62 295.5,-323.62 295.5,-304.38 397.75,-304.38 397.75,-323.62"/>
<text text-anchor="middle" x="346.62" y="-310.12" font-family="Helvetica,sans-Serif" font-size="10.00">yaclib/exe/inline.hpp</text>
</a>
</g>
</g>
<!-- Node7&#45;&gt;Node21 -->
<g id="edge26_Node000007_Node000021" class="edge">
<title>Node7&#45;&gt;Node21</title>
<g id="a_edge26_Node000007_Node000021"><a xlink:title=" ">
<path fill="none" stroke="#63b8ff" d="M381.41,-364.86C374.87,-355.48 366.33,-343.24 359.34,-333.23"/>
<polygon fill="#63b8ff" stroke="#63b8ff" points="362.24,-331.26 353.65,-325.06 356.5,-335.27 362.24,-331.26"/>
</a>
</g>
</g>
<!-- Node23 -->
<g id="Node000023" class="node">
<title>Node23</title>
<g id="a_Node000023"><a xlink:title=" ">
<polygon fill="#e0e0e0" stroke="#999999" points="455.25,-323.62 416,-323.62 416,-304.38 455.25,-304.38 455.25,-323.62"/>
<text text-anchor="middle" x="435.62" y="-310.12" font-family="Helvetica,sans-Serif" font-size="10.00">limits</text>
</a>
</g>
</g>
<!-- Node7&#45;&gt;Node23 -->
<g id="edge29_Node000007_Node000023" class="edge">
<title>Node7&#45;&gt;Node23</title>
<g id="a_edge29_Node000007_Node000023"><a xlink:title=" ">
<path fill="none" stroke="#63b8ff" d="M401.61,-364.86C408.01,-355.48 416.36,-343.24 423.19,-333.23"/>
<polygon fill="#63b8ff" stroke="#63b8ff" points="426.01,-335.31 428.75,-325.07 420.23,-331.36 426.01,-335.31"/>
</a>
</g>
</g>
<!-- Node24 -->
<g id="Node000024" class="node">
<title>Node24</title>
<g id="a_Node000024"><a xlink:title=" ">
<polygon fill="#e0e0e0" stroke="#999999" points="565.5,-323.62 473.75,-323.62 473.75,-304.38 565.5,-304.38 565.5,-323.62"/>
<text text-anchor="middle" x="519.62" y="-310.12" font-family="Helvetica,sans-Serif" font-size="10.00">yaclib_std/atomic</text>
</a>
</g>
</g>
<!-- Node7&#45;&gt;Node24 -->
<g id="edge30_Node000007_Node000024" class="edge">
<title>Node7&#45;&gt;Node24</title>
<g id="a_edge30_Node000007_Node000024"><a xlink:title=" ">
<path fill="none" stroke="#63b8ff" d="M420.67,-364.86C441.9,-354.17 470.53,-339.74 491.54,-329.15"/>
<polygon fill="#63b8ff" stroke="#63b8ff" points="493.04,-332.32 500.39,-324.69 489.89,-326.07 493.04,-332.32"/>
</a>
</g>
</g>
<!-- Node8&#45;&gt;Node3 -->
<g id="edge8_Node000008_Node000003" class="edge">
<title>Node8&#45;&gt;Node3</title>
<g id="a_edge8_Node000008_Node000003"><a xlink:title=" ">
<path fill="none" stroke="#63b8ff" d="M100.09,-298.45C89.11,-289.83 75.18,-278.9 63.91,-270.05"/>
<polygon fill="#63b8ff" stroke="#63b8ff" points="66.4,-267.56 56.38,-264.14 62.08,-273.06 66.4,-267.56"/>
</a>
</g>
</g>
<!-- Node8&#45;&gt;Node9 -->
<g id="edge9_Node000008_Node000009" class="edge">
<title>Node8&#45;&gt;Node9</title>
<g id="a_edge9_Node000008_Node000009"><a xlink:title=" ">
<path fill="none" stroke="#63b8ff" d="M128.8,-298.32C143.96,-276.45 172.45,-235.34 188.94,-211.55"/>
<polygon fill="#63b8ff" stroke="#63b8ff" points="191.71,-213.7 194.53,-203.48 185.96,-209.71 191.71,-213.7"/>
</a>
</g>
</g>
<!-- Node10 -->
<g id="Node000010" class="node">
<title>Node10</title>
<g id="a_Node000010"><a xlink:href="log_8hpp.html" target="_top" xlink:title=" ">
<polygon fill="white" stroke="#666666" points="190.88,-74.5 116.38,-74.5 116.38,-55.25 190.88,-55.25 190.88,-74.5"/>
<text text-anchor="middle" x="153.62" y="-61" font-family="Helvetica,sans-Serif" font-size="10.00">yaclib/log.hpp</text>
</a>
</g>
</g>
<!-- Node8&#45;&gt;Node10 -->
<g id="edge18_Node000008_Node000010" class="edge">
<title>Node8&#45;&gt;Node10</title>
<g id="a_edge18_Node000008_Node000010"><a xlink:title=" ">
<path fill="none" stroke="#63b8ff" d="M120.71,-298.28C126.68,-256.12 143.86,-134.8 150.73,-86.28"/>
<polygon fill="#63b8ff" stroke="#63b8ff" points="154.2,-86.78 152.14,-76.39 147.27,-85.8 154.2,-86.78"/>
</a>
</g>
</g>
<!-- Node9&#45;&gt;Node10 -->
<g id="edge10_Node000009_Node000010" class="edge">
<title>Node9&#45;&gt;Node10</title>
<g id="a_edge10_Node000009_Node000010"><a xlink:title=" ">
<path fill="none" stroke="#63b8ff" d="M195.49,-182.38C188.99,-172.62 178.84,-156.31 172.62,-141 165.35,-123.08 160.26,-101.6 157.19,-86.2"/>
<polygon fill="#63b8ff" stroke="#63b8ff" points="160.63,-85.59 155.36,-76.4 153.75,-86.88 160.63,-85.59"/>
</a>
</g>
</g>
<!-- Node12 -->
<g id="Node000012" class="node">
<title>Node12</title>
<g id="a_Node000012"><a xlink:href="node_8hpp.html" target="_top" xlink:title=" ">
<polygon fill="white" stroke="#666666" points="549,-141 466.25,-141 466.25,-110.5 549,-110.5 549,-141"/>
<text text-anchor="start" x="474.25" y="-127.5" font-family="Helvetica,sans-Serif" font-size="10.00">yaclib/util/detail</text>
<text text-anchor="middle" x="507.62" y="-116.25" font-family="Helvetica,sans-Serif" font-size="10.00">/node.hpp</text>
</a>
</g>
</g>
<!-- Node9&#45;&gt;Node12 -->
<g id="edge12_Node000009_Node000012" class="edge">
<title>Node9&#45;&gt;Node12</title>
<g id="a_edge12_Node000009_Node000012"><a xlink:title=" ">
<path fill="none" stroke="#63b8ff" d="M242.16,-182.18C250.25,-180.42 258.7,-178.62 266.62,-177 347.38,-160.5 371.02,-160.55 454.85,-141.29"/>
<polygon fill="#63b8ff" stroke="#63b8ff" points="455.53,-144.72 464.48,-139.05 453.94,-137.9 455.53,-144.72"/>
</a>
</g>
</g>
<!-- Node13 -->
<g id="Node000013" class="node">
<title>Node13</title>
<g id="a_Node000013"><a xlink:href="func_8hpp.html" target="_top" xlink:title=" ">
<polygon fill="white" stroke="#666666" points="447.75,-135.38 351.5,-135.38 351.5,-116.12 447.75,-116.12 447.75,-135.38"/>
<text text-anchor="middle" x="399.62" y="-121.88" font-family="Helvetica,sans-Serif" font-size="10.00">yaclib/util/func.hpp</text>
</a>
</g>
</g>
<!-- Node9&#45;&gt;Node13 -->
<g id="edge13_Node000009_Node000013" class="edge">
<title>Node9&#45;&gt;Node13</title>
<g id="a_edge13_Node000009_Node000013"><a xlink:title=" ">
<path fill="none" stroke="#63b8ff" d="M229.57,-182.15C263.92,-170.96 322.38,-151.91 361,-139.33"/>
<polygon fill="#63b8ff" stroke="#63b8ff" points="361.96,-142.7 370.38,-136.28 359.79,-136.05 361.96,-142.7"/>
</a>
</g>
</g>
<!-- Node11 -->
<g id="Node000011" class="node">
<title>Node11</title>
<g id="a_Node000011"><a xlink:title=" ">
<polygon fill="#e0e0e0" stroke="#999999" points="186.38,-19.25 120.88,-19.25 120.88,0 186.38,0 186.38,-19.25"/>
<text text-anchor="middle" x="153.62" y="-5.75" font-family="Helvetica,sans-Serif" font-size="10.00">string_view</text>
</a>
</g>
</g>
<!-- Node10&#45;&gt;Node11 -->
<g id="edge11_Node000010_Node000011" class="edge">
<title>Node10&#45;&gt;Node11</title>
<g id="a_edge11_Node000010_Node000011"><a xlink:title=" ">
<path fill="none" stroke="#63b8ff" d="M153.62,-55.08C153.62,-48.57 153.62,-39.42 153.62,-31.12"/>
<polygon fill="#63b8ff" stroke="#63b8ff" points="157.13,-31.12 153.63,-21.12 150.13,-31.12 157.13,-31.12"/>
</a>
</g>
</g>
<!-- Node14 -->
<g id="Node000014" class="node">
<title>Node14</title>
<g id="a_Node000014"><a xlink:href="ref_8hpp.html" target="_top" xlink:title=" ">
<polygon fill="white" stroke="#666666" points="406,-74.5 317.25,-74.5 317.25,-55.25 406,-55.25 406,-74.5"/>
<text text-anchor="middle" x="361.62" y="-61" font-family="Helvetica,sans-Serif" font-size="10.00">yaclib/util/ref.hpp</text>
</a>
</g>
</g>
<!-- Node13&#45;&gt;Node14 -->
<g id="edge14_Node000013_Node000014" class="edge">
<title>Node13&#45;&gt;Node14</title>
<g id="a_edge14_Node000013_Node000014"><a xlink:title=" ">
<path fill="none" stroke="#63b8ff" d="M393.85,-115.81C388.5,-107.51 380.36,-94.89 373.6,-84.42"/>
<polygon fill="#63b8ff" stroke="#63b8ff" points="376.64,-82.68 368.27,-76.17 370.75,-86.47 376.64,-82.68"/>
</a>
</g>
</g>
<!-- Node16 -->
<g id="Node000016" class="node">
<title>Node16</title>
<g id="a_Node000016"><a xlink:title=" ">
<polygon fill="#e0e0e0" stroke="#999999" points="645.12,-74.5 584.12,-74.5 584.12,-55.25 645.12,-55.25 645.12,-74.5"/>
<text text-anchor="middle" x="614.62" y="-61" font-family="Helvetica,sans-Serif" font-size="10.00">type_traits</text>
</a>
</g>
</g>
<!-- Node13&#45;&gt;Node16 -->
<g id="edge16_Node000013_Node000016" class="edge">
<title>Node13&#45;&gt;Node16</title>
<g id="a_edge16_Node000013_Node000016"><a xlink:title=" ">
<path fill="none" stroke="#63b8ff" d="M432.75,-115.68C470.43,-105.36 532.03,-88.49 572.95,-77.29"/>
<polygon fill="#63b8ff" stroke="#63b8ff" points="573.72,-80.7 582.44,-74.69 571.88,-73.95 573.72,-80.7"/>
</a>
</g>
</g>
<!-- Node13&#45;&gt;Node17 -->
<g id="edge17_Node000013_Node000017" class="edge">
<title>Node13&#45;&gt;Node17</title>
<g id="a_edge17_Node000013_Node000017"><a xlink:title=" ">
<path fill="none" stroke="#63b8ff" d="M432.87,-115.64C440.92,-113.69 449.54,-111.83 457.62,-110.5 644.25,-79.84 693.43,-93.16 881.62,-74.5 896.44,-73.03 912.87,-71.19 926.64,-69.59"/>
<polygon fill="#63b8ff" stroke="#63b8ff" points="926.93,-73.08 936.45,-68.44 926.11,-66.13 926.93,-73.08"/>
</a>
</g>
</g>
<!-- Node15 -->
<g id="Node000015" class="node">
<title>Node15</title>
<g id="a_Node000015"><a xlink:title=" ">
<polygon fill="#e0e0e0" stroke="#999999" points="385.75,-19.25 337.5,-19.25 337.5,0 385.75,0 385.75,-19.25"/>
<text text-anchor="middle" x="361.62" y="-5.75" font-family="Helvetica,sans-Serif" font-size="10.00">cstddef</text>
</a>
</g>
</g>
<!-- Node14&#45;&gt;Node15 -->
<g id="edge15_Node000014_Node000015" class="edge">
<title>Node14&#45;&gt;Node15</title>
<g id="a_edge15_Node000014_Node000015"><a xlink:title=" ">
<path fill="none" stroke="#63b8ff" d="M361.62,-55.08C361.62,-48.57 361.62,-39.42 361.62,-31.12"/>
<polygon fill="#63b8ff" stroke="#63b8ff" points="365.13,-31.12 361.63,-21.12 358.13,-31.12 365.13,-31.12"/>
</a>
</g>
</g>
<!-- Node18&#45;&gt;Node9 -->
<g id="edge20_Node000018_Node000009" class="edge">
<title>Node18&#45;&gt;Node9</title>
<g id="a_edge20_Node000018_Node000009"><a xlink:title=" ">
<path fill="none" stroke="#63b8ff" d="M266.08,-243.18C254.48,-234.19 236.33,-220.14 222.25,-209.23"/>
<polygon fill="#63b8ff" stroke="#63b8ff" points="224.52,-206.56 214.47,-203.2 220.23,-212.09 224.52,-206.56"/>
</a>
</g>
</g>
<!-- Node18&#45;&gt;Node19 -->
<g id="edge21_Node000018_Node000019" class="edge">
<title>Node18&#45;&gt;Node19</title>
<g id="a_edge21_Node000018_Node000019"><a xlink:title=" ">
<path fill="none" stroke="#63b8ff" d="M284.61,-243.18C290.12,-236.14 298.05,-225.98 305.33,-216.67"/>
<polygon fill="#63b8ff" stroke="#63b8ff" points="307.94,-219.01 311.34,-208.97 302.42,-214.7 307.94,-219.01"/>
</a>
</g>
</g>
<!-- Node19&#45;&gt;Node14 -->
<g id="edge22_Node000019_Node000014" class="edge">
<title>Node19&#45;&gt;Node14</title>
<g id="a_edge22_Node000019_Node000014"><a xlink:title=" ">
<path fill="none" stroke="#63b8ff" d="M326.26,-176.75C329.4,-160.43 335.18,-133.22 342.62,-110.5 345.38,-102.1 349.07,-93.1 352.46,-85.38"/>
<polygon fill="#63b8ff" stroke="#63b8ff" points="355.63,-86.86 356.6,-76.31 349.27,-83.95 355.63,-86.86"/>
</a>
</g>
</g>
<!-- Node19&#45;&gt;Node16 -->
<g id="edge23_Node000019_Node000016" class="edge">
<title>Node19&#45;&gt;Node16</title>
<g id="a_edge23_Node000019_Node000016"><a xlink:title=" ">
<path fill="none" stroke="#63b8ff" d="M372.13,-190.52C422.21,-187.66 500.83,-177.13 557.62,-141 579.15,-127.3 595.6,-102.44 605.17,-85.08"/>
<polygon fill="#63b8ff" stroke="#63b8ff" points="608.23,-86.78 609.75,-76.29 602.02,-83.54 608.23,-86.78"/>
</a>
</g>
</g>
<!-- Node20 -->
<g id="Node000020" class="node">
<title>Node20</title>
<g id="a_Node000020"><a xlink:href="intrusive__ptr__impl_8hpp.html" target="_top" xlink:title=" ">
<polygon fill="white" stroke="#666666" points="295.38,-141 181.88,-141 181.88,-110.5 295.38,-110.5 295.38,-141"/>
<text text-anchor="start" x="189.88" y="-127.5" font-family="Helvetica,sans-Serif" font-size="10.00">yaclib/util/detail</text>
<text text-anchor="middle" x="238.62" y="-116.25" font-family="Helvetica,sans-Serif" font-size="10.00">/intrusive_ptr_impl.hpp</text>
</a>
</g>
</g>
<!-- Node19&#45;&gt;Node20 -->
<g id="edge24_Node000019_Node000020" class="edge">
<title>Node19&#45;&gt;Node20</title>
<g id="a_edge24_Node000019_Node000020"><a xlink:title=" ">
<path fill="none" stroke="#63b8ff" d="M304.34,-176.61C293.25,-168.2 279.13,-157.48 266.82,-148.14"/>
<polygon fill="#63b8ff" stroke="#63b8ff" points="269.12,-145.5 259.04,-142.24 264.89,-151.08 269.12,-145.5"/>
</a>
</g>
</g>
<!-- Node20&#45;&gt;Node10 -->
<g id="edge25_Node000020_Node000010" class="edge">
<title>Node20&#45;&gt;Node10</title>
<g id="a_edge25_Node000020_Node000010"><a xlink:title=" ">
<path fill="none" stroke="#63b8ff" d="M217.61,-110.2C204.92,-101.4 188.76,-90.21 175.85,-81.27"/>
<polygon fill="#63b8ff" stroke="#63b8ff" points="178.19,-78.63 167.97,-75.81 174.2,-84.38 178.19,-78.63"/>
</a>
</g>
</g>
<!-- Node21&#45;&gt;Node18 -->
<g id="edge27_Node000021_Node000018" class="edge">
<title>Node21&#45;&gt;Node18</title>
<g id="a_edge27_Node000021_Node000018"><a xlink:title=" ">
<path fill="none" stroke="#63b8ff" d="M336.15,-304.06C325.71,-295.15 309.45,-281.28 296.72,-270.42"/>
<polygon fill="#63b8ff" stroke="#63b8ff" points="299.23,-267.96 289.35,-264.13 294.69,-273.29 299.23,-267.96"/>
</a>
</g>
</g>
<!-- Node22 -->
<g id="Node000022" class="node">
<title>Node22</title>
<g id="a_Node000022"><a xlink:href="fwd_8hpp.html" target="_top" xlink:title=" ">
<polygon fill="white" stroke="#666666" points="872.38,-74.5 794.88,-74.5 794.88,-55.25 872.38,-55.25 872.38,-74.5"/>
<text text-anchor="middle" x="833.62" y="-61" font-family="Helvetica,sans-Serif" font-size="10.00">yaclib/fwd.hpp</text>
</a>
</g>
</g>
<!-- Node21&#45;&gt;Node22 -->
<g id="edge28_Node000021_Node000022" class="edge">
<title>Node21&#45;&gt;Node22</title>
<g id="a_edge28_Node000021_Node000022"><a xlink:title=" ">
<path fill="none" stroke="#63b8ff" d="M378.93,-303.93C470.72,-277.66 730.63,-199.65 795.62,-141 812.21,-126.03 822.54,-102.14 828.17,-85.33"/>
<polygon fill="#63b8ff" stroke="#63b8ff" points="831.44,-86.6 831.02,-76.02 824.75,-84.56 831.44,-86.6"/>
</a>
</g>
</g>
<!-- Node25&#45;&gt;Node16 -->
<g id="edge33_Node000025_Node000016" class="edge">
<title>Node25&#45;&gt;Node16</title>
<g id="a_edge33_Node000025_Node000016"><a xlink:title=" ">
<path fill="none" stroke="#63b8ff" d="M738.74,-370.61C731.39,-360.85 719.71,-344.52 711.62,-329.25 669.48,-249.66 665.98,-226.14 636.62,-141 630.19,-122.35 623.98,-100.69 619.81,-85.43"/>
<polygon fill="#63b8ff" stroke="#63b8ff" points="623.3,-84.96 617.33,-76.21 616.55,-86.78 623.3,-84.96"/>
</a>
</g>
</g>
<!-- Node26 -->
<g id="Node000026" class="node">
<title>Node26</title>
<g id="a_Node000026"><a xlink:title=" ">
<polygon fill="#e0e0e0" stroke="#999999" points="770.88,-323.62 720.38,-323.62 720.38,-304.38 770.88,-304.38 770.88,-323.62"/>
<text text-anchor="middle" x="745.62" y="-310.12" font-family="Helvetica,sans-Serif" font-size="10.00">memory</text>
</a>
</g>
</g>
<!-- Node25&#45;&gt;Node26 -->
<g id="edge32_Node000025_Node000026" class="edge">
<title>Node25&#45;&gt;Node26</title>
<g id="a_edge32_Node000025_Node000026"><a xlink:title=" ">
<path fill="none" stroke="#63b8ff" d="M745.62,-370.53C745.62,-361.48 745.62,-347.2 745.62,-335.38"/>
<polygon fill="#63b8ff" stroke="#63b8ff" points="749.13,-335.41 745.63,-325.41 742.13,-335.41 749.13,-335.41"/>
</a>
</g>
</g>
<!-- Node27&#45;&gt;Node17 -->
<g id="edge45_Node000027_Node000017" class="edge">
<title>Node27&#45;&gt;Node17</title>
<g id="a_edge45_Node000027_Node000017"><a xlink:title=" ">
<path fill="none" stroke="#63b8ff" d="M918.72,-243.08C933.62,-235.88 951.83,-224.21 960.62,-207.5 981.18,-168.45 971.45,-114.56 963.78,-85.82"/>
<polygon fill="#63b8ff" stroke="#63b8ff" points="967.17,-84.94 961.04,-76.3 960.45,-86.87 967.17,-84.94"/>
</a>
</g>
</g>
<!-- Node27&#45;&gt;Node22 -->
<g id="edge35_Node000027_Node000022" class="edge">
<title>Node27&#45;&gt;Node22</title>
<g id="a_edge35_Node000027_Node000022"><a xlink:title=" ">
<path fill="none" stroke="#63b8ff" d="M866.84,-243.1C850.14,-236.21 830.51,-224.89 820.62,-207.5 813.92,-195.72 819.15,-190.47 820.62,-177 822.41,-160.71 826.3,-157.22 828.62,-141 831.29,-122.4 832.54,-101 833.12,-85.81"/>
<polygon fill="#63b8ff" stroke="#63b8ff" points="836.61,-86.33 833.42,-76.22 829.61,-86.11 836.61,-86.33"/>
</a>
</g>
</g>
<!-- Node28 -->
<g id="Node000028" class="node">
<title>Node28</title>
<g id="a_Node000028"><a xlink:href="type__traits_8hpp.html" target="_top" xlink:title=" ">
<polygon fill="white" stroke="#666666" points="951.88,-201.88 829.38,-201.88 829.38,-182.62 951.88,-182.62 951.88,-201.88"/>
<text text-anchor="middle" x="890.62" y="-188.38" font-family="Helvetica,sans-Serif" font-size="10.00">yaclib/util/type_traits.hpp</text>
</a>
</g>
</g>
<!-- Node27&#45;&gt;Node28 -->
<g id="edge36_Node000027_Node000028" class="edge">
<title>Node27&#45;&gt;Node28</title>
<g id="a_edge36_Node000027_Node000028"><a xlink:title=" ">
<path fill="none" stroke="#63b8ff" d="M894.87,-243.18C894.2,-235.32 893.2,-223.57 892.34,-213.45"/>
<polygon fill="#63b8ff" stroke="#63b8ff" points="895.85,-213.45 891.52,-203.78 888.88,-214.04 895.85,-213.45"/>
</a>
</g>
</g>
<!-- Node27&#45;&gt;Node30 -->
<g id="edge44_Node000027_Node000030" class="edge">
<title>Node27&#45;&gt;Node30</title>
<g id="a_edge44_Node000027_Node000030"><a xlink:title=" ">
<path fill="none" stroke="#63b8ff" d="M946.68,-244.88C974.34,-238.78 1007.66,-227.65 1031.62,-207.5 1050.68,-191.48 1062.52,-164.8 1068.84,-146.52"/>
<polygon fill="#63b8ff" stroke="#63b8ff" points="1072.13,-147.72 1071.82,-137.13 1065.46,-145.6 1072.13,-147.72"/>
</a>
</g>
</g>
<!-- Node31 -->
<g id="Node000031" class="node">
<title>Node31</title>
<g id="a_Node000031"><a xlink:title=" ">
<polygon fill="#e0e0e0" stroke="#999999" points="1129.25,-201.88 1084,-201.88 1084,-182.62 1129.25,-182.62 1129.25,-201.88"/>
<text text-anchor="middle" x="1106.62" y="-188.38" font-family="Helvetica,sans-Serif" font-size="10.00">variant</text>
</a>
</g>
</g>
<!-- Node27&#45;&gt;Node31 -->
<g id="edge46_Node000027_Node000031" class="edge">
<title>Node27&#45;&gt;Node31</title>
<g id="a_edge46_Node000027_Node000031"><a xlink:title=" ">
<path fill="none" stroke="#63b8ff" d="M936.44,-243.08C971.94,-234.87 1024.62,-221.88 1069.62,-207.5 1070.99,-207.06 1072.38,-206.6 1073.77,-206.13"/>
<polygon fill="#63b8ff" stroke="#63b8ff" points="1074.83,-209.47 1083.05,-202.78 1072.45,-202.88 1074.83,-209.47"/>
</a>
</g>
</g>
<!-- Node28&#45;&gt;Node16 -->
<g id="edge42_Node000028_Node000016" class="edge">
<title>Node28&#45;&gt;Node16</title>
<g id="a_edge42_Node000028_Node000016"><a xlink:title=" ">
<path fill="none" stroke="#63b8ff" d="M829.12,-188.37C782.64,-183.66 718.97,-171.59 671.62,-141 650.19,-127.15 633.73,-102.32 624.13,-85.01"/>
<polygon fill="#63b8ff" stroke="#63b8ff" points="627.28,-83.48 619.53,-76.25 621.08,-86.74 627.28,-83.48"/>
</a>
</g>
</g>
<!-- Node28&#45;&gt;Node17 -->
<g id="edge43_Node000028_Node000017" class="edge">
<title>Node28&#45;&gt;Node17</title>
<g id="a_edge43_Node000028_Node000017"><a xlink:title=" ">
<path fill="none" stroke="#63b8ff" d="M895.44,-182.23C906.31,-161.9 932.91,-112.13 947.55,-84.73"/>
<polygon fill="#63b8ff" stroke="#63b8ff" points="950.51,-86.61 952.14,-76.14 944.34,-83.31 950.51,-86.61"/>
</a>
</g>
</g>
<!-- Node28&#45;&gt;Node22 -->
<g id="edge37_Node000028_Node000022" class="edge">
<title>Node28&#45;&gt;Node22</title>
<g id="a_edge37_Node000028_Node000022"><a xlink:title=" ">
<path fill="none" stroke="#63b8ff" d="M889.04,-182.39C886.09,-167.12 878.9,-135.1 866.62,-110.5 861.91,-101.04 855.17,-91.5 849.02,-83.68"/>
<polygon fill="#63b8ff" stroke="#63b8ff" points="851.75,-81.49 842.69,-75.99 846.35,-85.94 851.75,-81.49"/>
</a>
</g>
</g>
<!-- Node29 -->
<g id="Node000029" class="node">
<title>Node29</title>
<g id="a_Node000029"><a xlink:href="type__traits__impl_8hpp.html" target="_top" xlink:title=" ">
<polygon fill="white" stroke="#666666" points="786.25,-141 681,-141 681,-110.5 786.25,-110.5 786.25,-141"/>
<text text-anchor="start" x="689" y="-127.5" font-family="Helvetica,sans-Serif" font-size="10.00">yaclib/util/detail</text>
<text text-anchor="middle" x="733.62" y="-116.25" font-family="Helvetica,sans-Serif" font-size="10.00">/type_traits_impl.hpp</text>
</a>
</g>
</g>
<!-- Node28&#45;&gt;Node29 -->
<g id="edge38_Node000028_Node000029" class="edge">
<title>Node28&#45;&gt;Node29</title>
<g id="a_edge38_Node000028_Node000029"><a xlink:title=" ">
<path fill="none" stroke="#63b8ff" d="M868.46,-182.15C845.5,-172.71 808.95,-157.7 779.69,-145.68"/>
<polygon fill="#63b8ff" stroke="#63b8ff" points="781.26,-142.54 770.68,-141.97 778.6,-149.01 781.26,-142.54"/>
</a>
</g>
</g>
<!-- Node28&#45;&gt;Node30 -->
<g id="edge41_Node000028_Node000030" class="edge">
<title>Node28&#45;&gt;Node30</title>
<g id="a_edge41_Node000028_Node000030"><a xlink:title=" ">
<path fill="none" stroke="#63b8ff" d="M916.6,-182.15C948.38,-171.01 1002.38,-152.08 1038.27,-139.49"/>
<polygon fill="#63b8ff" stroke="#63b8ff" points="1039.08,-142.92 1047.36,-136.31 1036.76,-136.31 1039.08,-142.92"/>
</a>
</g>
</g>
<!-- Node29&#45;&gt;Node16 -->
<g id="edge40_Node000029_Node000016" class="edge">
<title>Node29&#45;&gt;Node16</title>
<g id="a_edge40_Node000029_Node000016"><a xlink:title=" ">
<path fill="none" stroke="#63b8ff" d="M703.9,-110.05C685.26,-100.82 661.36,-89 642.98,-79.9"/>
<polygon fill="#63b8ff" stroke="#63b8ff" points="644.75,-76.87 634.23,-75.58 641.64,-83.15 644.75,-76.87"/>
</a>
</g>
</g>
<!-- Node29&#45;&gt;Node22 -->
<g id="edge39_Node000029_Node000022" class="edge">
<title>Node29&#45;&gt;Node22</title>
<g id="a_edge39_Node000029_Node000022"><a xlink:title=" ">
<path fill="none" stroke="#63b8ff" d="M758.6,-110.05C773.83,-101.08 793.23,-89.66 808.49,-80.67"/>
<polygon fill="#63b8ff" stroke="#63b8ff" points="810.14,-83.76 816.98,-75.67 806.59,-77.73 810.14,-83.76"/>
</a>
</g>
</g>
<!-- Node33 -->
<g id="Node000033" class="node">
<title>Node33</title>
<g id="a_Node000033"><a xlink:href="default__deleter_8hpp.html" target="_top" xlink:title=" ">
<polygon fill="white" stroke="#666666" points="1288,-462.25 1187.25,-462.25 1187.25,-431.75 1288,-431.75 1288,-462.25"/>
<text text-anchor="start" x="1195.25" y="-448.75" font-family="Helvetica,sans-Serif" font-size="10.00">yaclib/util/detail</text>
<text text-anchor="middle" x="1237.62" y="-437.5" font-family="Helvetica,sans-Serif" font-size="10.00">/default_deleter.hpp</text>
</a>
</g>
</g>
<!-- Node32&#45;&gt;Node33 -->
<g id="edge51_Node000032_Node000033" class="edge">
<title>Node32&#45;&gt;Node33</title>
<g id="a_edge51_Node000032_Node000033"><a xlink:title=" ">
<path fill="none" stroke="#63b8ff" d="M1237.62,-497.86C1237.62,-490.77 1237.62,-482.04 1237.62,-473.88"/>
<polygon fill="#63b8ff" stroke="#63b8ff" points="1241.13,-474.09 1237.63,-464.09 1234.13,-474.09 1241.13,-474.09"/>
</a>
</g>
</g>
</g>
</svg>
