<?xml version="1.0" encoding="UTF-8" standalone="no"?>
<!DOCTYPE svg PUBLIC "-//W3C//DTD SVG 1.1//EN"
 "http://www.w3.org/Graphics/SVG/1.1/DTD/svg11.dtd">
<!-- Generated by graphviz version 3.0.0 (20221109.1736)
 -->
<!-- Title: include/yaclib/coro/detail/on_awaiter.hpp Pages: 1 -->
<!--zoomable 609 -->
<svg id="main" version="1.1" xmlns="http://www.w3.org/2000/svg" xmlns:xlink="http://www.w3.org/1999/xlink" xml:space="preserve" onload="init(evt)">
<style type="text/css"><![CDATA[
.edge:hover path { stroke: red; }
.edge:hover polygon { stroke: red; fill: red; }
]]></style>
<script type="text/javascript"><![CDATA[
var edges = document.getElementsByTagName('g');
if (edges && edges.length) {
  for (var i=0;i<edges.length;i++) {
    if (edges[i].id.substr(0,4)=='edge') {
      edges[i].setAttribute('class','edge');
    }
  }
}
]]></script>
        <defs>
                <circle id="rim" cx="0" cy="0" r="7"/>
                <circle id="rim2" cx="0" cy="0" r="3.5"/>
                <g id="zoomPlus">
                        <use xlink:href="#rim" fill="#404040">
                                <set attributeName="fill" to="#808080" begin="zoomplus.mouseover" end="zoomplus.mouseout"/>
                        </use>
                        <path d="M-4,0h8M0,-4v8" fill="none" stroke="white" stroke-width="1.5" pointer-events="none"/>
                </g>
                <g id="zoomMin">
                        <use xlink:href="#rim" fill="#404040">
                                <set attributeName="fill" to="#808080" begin="zoomminus.mouseover" end="zoomminus.mouseout"/>
                        </use>
                        <path d="M-4,0h8" fill="none" stroke="white" stroke-width="1.5" pointer-events="none"/>
                </g>
                <g id="dirArrow">
                        <path fill="none" stroke="white" stroke-width="1.5" d="M0,-3.0v7 M-2.5,-0.5L0,-3.0L2.5,-0.5"/>
                </g>
               <g id="resetDef">
                       <use xlink:href="#rim2" fill="#404040">
                               <set attributeName="fill" to="#808080" begin="reset.mouseover" end="reset.mouseout"/>
                       </use>
               </g>
        </defs>

<script type="text/javascript">
var viewWidth = 1472;
var viewHeight = 609;
var sectionId = 'dynsection-0';
</script>
<script xlink:href="svgpan.js"/>
<svg id="graph" class="graph">
<g id="viewport">
<title>include/yaclib/coro/detail/on_awaiter.hpp</title>
<!-- Node1 -->
<g id="node1" class="node">
<title>Node1</title>
<g id="a_node1"><a xlink:title=" ">
<polygon fill="#bfbfbf" stroke="black" points="225.5,-570.5 225.5,-600.5 336.5,-600.5 336.5,-570.5 225.5,-570.5"/>
<text text-anchor="start" x="233.5" y="-588.5" font-family="Helvetica,sans-Serif" font-size="10.00">include/yaclib/coro</text>
<text text-anchor="middle" x="281" y="-577.5" font-family="Helvetica,sans-Serif" font-size="10.00">/detail/on_awaiter.hpp</text>
</a>
</g>
</g>
<!-- Node2 -->
<g id="node2" class="node">
<title>Node2</title>
<g id="a_node2"><a xlink:href="coro_8hpp.html" target="_top" xlink:title=" ">
<polygon fill="none" stroke="black" points="130.5,-442 130.5,-461 233.5,-461 233.5,-442 130.5,-442"/>
<text text-anchor="middle" x="182" y="-449" font-family="Helvetica,sans-Serif" font-size="10.00">yaclib/coro/coro.hpp</text>
</a>
</g>
</g>
<!-- Node1&#45;&gt;Node2 -->
<g id="edge1" class="edge">
<title>Node1&#45;&gt;Node2</title>
<path fill="none" stroke="midnightblue" d="M270.41,-570.37C252.02,-545.86 214.3,-495.56 194.6,-469.3"/>
<polygon fill="midnightblue" stroke="midnightblue" points="197.25,-467 188.45,-461.1 191.65,-471.2 197.25,-467"/>
</g>
<!-- Node4 -->
<g id="node4" class="node">
<title>Node4</title>
<g id="a_node4"><a xlink:href="promise__type_8hpp.html" target="_top" xlink:title=" ">
<polygon fill="none" stroke="black" points="486.5,-503.5 486.5,-533.5 581.5,-533.5 581.5,-503.5 486.5,-503.5"/>
<text text-anchor="start" x="494.5" y="-521.5" font-family="Helvetica,sans-Serif" font-size="10.00">yaclib/coro/detail</text>
<text text-anchor="middle" x="534" y="-510.5" font-family="Helvetica,sans-Serif" font-size="10.00">/promise_type.hpp</text>
</a>
</g>
</g>
<!-- Node1&#45;&gt;Node4 -->
<g id="edge3" class="edge">
<title>Node1&#45;&gt;Node4</title>
<path fill="none" stroke="midnightblue" d="M335.59,-570.48C377.14,-559.8 434.2,-545.14 476.47,-534.28"/>
<polygon fill="midnightblue" stroke="midnightblue" points="477.52,-537.63 486.33,-531.75 475.77,-530.85 477.52,-537.63"/>
</g>
<!-- Node8 -->
<g id="node8" class="node">
<title>Node8</title>
<g id="a_node8"><a xlink:href="job_8hpp.html" target="_top" xlink:title=" ">
<polygon fill="none" stroke="black" points="243.5,-185 243.5,-204 336.5,-204 336.5,-185 243.5,-185"/>
<text text-anchor="middle" x="290" y="-192" font-family="Helvetica,sans-Serif" font-size="10.00">yaclib/exe/job.hpp</text>
</a>
</g>
</g>
<!-- Node1&#45;&gt;Node8 -->
<g id="edge54" class="edge">
<title>Node1&#45;&gt;Node8</title>
<path fill="none" stroke="midnightblue" d="M277.6,-570.34C272.14,-546.27 262,-495.8 262,-452.5 262,-452.5 262,-452.5 262,-316.5 262,-279.27 274.74,-237.22 283.03,-213.79"/>
<polygon fill="midnightblue" stroke="midnightblue" points="286.41,-214.74 286.57,-204.15 279.84,-212.33 286.41,-214.74"/>
</g>
<!-- Node16 -->
<g id="node16" class="node">
<title>Node16</title>
<g id="a_node16"><a xlink:href="executor_8hpp.html" target="_top" xlink:title=" ">
<polygon fill="none" stroke="black" points="290.5,-246.5 290.5,-265.5 407.5,-265.5 407.5,-246.5 290.5,-246.5"/>
<text text-anchor="middle" x="349" y="-253.5" font-family="Helvetica,sans-Serif" font-size="10.00">yaclib/exe/executor.hpp</text>
</a>
</g>
</g>
<!-- Node1&#45;&gt;Node16 -->
<g id="edge53" class="edge">
<title>Node1&#45;&gt;Node16</title>
<path fill="none" stroke="midnightblue" d="M284.4,-570.34C289.86,-546.27 300,-495.8 300,-452.5 300,-452.5 300,-452.5 300,-383.5 300,-342.1 323.1,-297.91 337.58,-274.28"/>
<polygon fill="midnightblue" stroke="midnightblue" points="340.59,-276.07 342.99,-265.75 334.68,-272.32 340.59,-276.07"/>
</g>
<!-- Node3 -->
<g id="node3" class="node">
<title>Node3</title>
<g id="a_node3"><a xlink:title=" ">
<polygon fill="none" stroke="#bfbfbf" points="0,-246.5 0,-265.5 88,-265.5 88,-246.5 0,-246.5"/>
<text text-anchor="middle" x="44" y="-253.5" font-family="Helvetica,sans-Serif" font-size="10.00">yaclib/config.hpp</text>
</a>
</g>
</g>
<!-- Node2&#45;&gt;Node3 -->
<g id="edge2" class="edge">
<title>Node2&#45;&gt;Node3</title>
<path fill="none" stroke="midnightblue" d="M170.35,-441.82C147.23,-424 95.34,-380.9 67,-333 56.38,-315.05 50.28,-291.78 47.07,-275.74"/>
<polygon fill="midnightblue" stroke="midnightblue" points="50.44,-274.73 45.21,-265.52 43.55,-275.98 50.44,-274.73"/>
</g>
<!-- Node4&#45;&gt;Node2 -->
<g id="edge48" class="edge">
<title>Node4&#45;&gt;Node2</title>
<path fill="none" stroke="midnightblue" d="M486.16,-508.67C421.62,-496.75 306.84,-475.55 238.24,-462.89"/>
<polygon fill="midnightblue" stroke="midnightblue" points="238.52,-459.38 228.06,-461 237.25,-466.26 238.52,-459.38"/>
</g>
<!-- Node5 -->
<g id="node5" class="node">
<title>Node5</title>
<g id="a_node5"><a xlink:href="result__core_8hpp.html" target="_top" xlink:title=" ">
<polygon fill="none" stroke="black" points="526.5,-436.5 526.5,-466.5 615.5,-466.5 615.5,-436.5 526.5,-436.5"/>
<text text-anchor="start" x="534.5" y="-454.5" font-family="Helvetica,sans-Serif" font-size="10.00">yaclib/algo/detail</text>
<text text-anchor="middle" x="571" y="-443.5" font-family="Helvetica,sans-Serif" font-size="10.00">/result_core.hpp</text>
</a>
</g>
</g>
<!-- Node4&#45;&gt;Node5 -->
<g id="edge4" class="edge">
<title>Node4&#45;&gt;Node5</title>
<path fill="none" stroke="midnightblue" d="M542.03,-503.4C546.68,-495.22 552.66,-484.73 557.97,-475.39"/>
<polygon fill="midnightblue" stroke="midnightblue" points="561.08,-477 562.99,-466.58 555,-473.54 561.08,-477"/>
</g>
<!-- Node17 -->
<g id="node17" class="node">
<title>Node17</title>
<g id="a_node17"><a xlink:href="intrusive__ptr_8hpp.html" target="_top" xlink:title=" ">
<polygon fill="none" stroke="black" points="448.5,-179.5 448.5,-209.5 545.5,-209.5 545.5,-179.5 448.5,-179.5"/>
<text text-anchor="start" x="456.5" y="-197.5" font-family="Helvetica,sans-Serif" font-size="10.00">yaclib/util/intrusive</text>
<text text-anchor="middle" x="497" y="-186.5" font-family="Helvetica,sans-Serif" font-size="10.00">_ptr.hpp</text>
</a>
</g>
</g>
<!-- Node4&#45;&gt;Node17 -->
<g id="edge51" class="edge">
<title>Node4&#45;&gt;Node17</title>
<path fill="none" stroke="midnightblue" d="M527.4,-503.2C517,-479.34 498,-429.68 498,-385.5 498,-385.5 498,-385.5 498,-316.5 498,-282.98 497.61,-244.24 497.32,-219.81"/>
<polygon fill="midnightblue" stroke="midnightblue" points="500.82,-219.61 497.19,-209.66 493.82,-219.7 500.82,-219.61"/>
</g>
<!-- Node27 -->
<g id="node27" class="node">
<title>Node27</title>
<g id="a_node27"><a xlink:title=" ">
<polygon fill="none" stroke="#bfbfbf" points="1220,-118 1220,-137 1278,-137 1278,-118 1220,-118"/>
<text text-anchor="middle" x="1249" y="-125" font-family="Helvetica,sans-Serif" font-size="10.00">exception</text>
</a>
</g>
</g>
<!-- Node4&#45;&gt;Node27 -->
<g id="edge52" class="edge">
<title>Node4&#45;&gt;Node27</title>
<path fill="none" stroke="midnightblue" d="M581.53,-514.7C753.32,-503.94 1332,-462.03 1332,-385.5 1332,-385.5 1332,-385.5 1332,-255 1332,-220.18 1331.9,-208.24 1313,-179 1303.26,-163.93 1287.48,-151.41 1274.02,-142.6"/>
<polygon fill="midnightblue" stroke="midnightblue" points="1275.52,-139.41 1265.18,-137.11 1271.83,-145.36 1275.52,-139.41"/>
</g>
<!-- Node29 -->
<g id="node29" class="node">
<title>Node29</title>
<g id="a_node29"><a xlink:href="unique__counter_8hpp.html" target="_top" xlink:title=" ">
<polygon fill="none" stroke="black" points="1360,-436.5 1360,-466.5 1464,-466.5 1464,-436.5 1360,-436.5"/>
<text text-anchor="start" x="1368" y="-454.5" font-family="Helvetica,sans-Serif" font-size="10.00">yaclib/util/detail</text>
<text text-anchor="middle" x="1412" y="-443.5" font-family="Helvetica,sans-Serif" font-size="10.00">/unique_counter.hpp</text>
</a>
</g>
</g>
<!-- Node4&#45;&gt;Node29 -->
<g id="edge49" class="edge">
<title>Node4&#45;&gt;Node29</title>
<path fill="none" stroke="midnightblue" d="M581.85,-517.09C707.65,-515.47 1057.85,-507.37 1346,-467 1347.27,-466.82 1348.56,-466.63 1349.86,-466.43"/>
<polygon fill="midnightblue" stroke="midnightblue" points="1350.62,-469.85 1359.9,-464.72 1349.45,-462.95 1350.62,-469.85"/>
</g>
<!-- Node6 -->
<g id="node6" class="node">
<title>Node6</title>
<g id="a_node6"><a xlink:href="base__core_8hpp.html" target="_top" xlink:title=" ">
<polygon fill="none" stroke="black" points="377.5,-369.5 377.5,-399.5 466.5,-399.5 466.5,-369.5 377.5,-369.5"/>
<text text-anchor="start" x="385.5" y="-387.5" font-family="Helvetica,sans-Serif" font-size="10.00">yaclib/algo/detail</text>
<text text-anchor="middle" x="422" y="-376.5" font-family="Helvetica,sans-Serif" font-size="10.00">/base_core.hpp</text>
</a>
</g>
</g>
<!-- Node5&#45;&gt;Node6 -->
<g id="edge5" class="edge">
<title>Node5&#45;&gt;Node6</title>
<path fill="none" stroke="midnightblue" d="M538.67,-436.4C516.7,-426.81 487.44,-414.05 463.72,-403.7"/>
<polygon fill="midnightblue" stroke="midnightblue" points="464.83,-400.37 454.27,-399.58 462.03,-406.78 464.83,-400.37"/>
</g>
<!-- Node15 -->
<g id="node15" class="node">
<title>Node15</title>
<g id="a_node15"><a xlink:title=" ">
<polygon fill="none" stroke="#bfbfbf" points="877.5,-56.5 877.5,-75.5 916.5,-75.5 916.5,-56.5 877.5,-56.5"/>
<text text-anchor="middle" x="897" y="-63.5" font-family="Helvetica,sans-Serif" font-size="10.00">utility</text>
</a>
</g>
</g>
<!-- Node5&#45;&gt;Node15 -->
<g id="edge47" class="edge">
<title>Node5&#45;&gt;Node15</title>
<path fill="none" stroke="midnightblue" d="M615.7,-441.94C672.73,-428.67 770.48,-397.61 825,-333 888.15,-258.17 896.34,-132.98 897.09,-85.78"/>
<polygon fill="midnightblue" stroke="midnightblue" points="900.59,-85.55 897.15,-75.53 893.59,-85.51 900.59,-85.55"/>
</g>
<!-- Node5&#45;&gt;Node17 -->
<g id="edge33" class="edge">
<title>Node5&#45;&gt;Node17</title>
<path fill="none" stroke="midnightblue" d="M566.89,-436.11C557.34,-402.7 532.87,-317.28 512,-246 509.44,-237.26 506.61,-227.69 504.09,-219.24"/>
<polygon fill="midnightblue" stroke="midnightblue" points="507.44,-218.22 501.23,-209.64 500.73,-220.22 507.44,-218.22"/>
</g>
<!-- Node24 -->
<g id="node24" class="node">
<title>Node24</title>
<g id="a_node24"><a xlink:href="result_8hpp.html" target="_top" xlink:title=" ">
<polygon fill="none" stroke="black" points="1179,-246.5 1179,-265.5 1281,-265.5 1281,-246.5 1179,-246.5"/>
<text text-anchor="middle" x="1230" y="-253.5" font-family="Helvetica,sans-Serif" font-size="10.00">yaclib/util/result.hpp</text>
</a>
</g>
</g>
<!-- Node5&#45;&gt;Node24 -->
<g id="edge34" class="edge">
<title>Node5&#45;&gt;Node24</title>
<path fill="none" stroke="midnightblue" d="M615.52,-437.43C737.61,-401.58 1076.27,-302.14 1191.23,-268.38"/>
<polygon fill="midnightblue" stroke="midnightblue" points="1192.41,-271.68 1201.02,-265.51 1190.44,-264.97 1192.41,-271.68"/>
</g>
<!-- Node6&#45;&gt;Node3 -->
<g id="edge17" class="edge">
<title>Node6&#45;&gt;Node3</title>
<path fill="none" stroke="midnightblue" d="M377.4,-380.55C300.72,-374.81 147.71,-360.26 102,-333 79.01,-319.29 61.97,-292.7 52.51,-274.89"/>
<polygon fill="midnightblue" stroke="midnightblue" points="55.56,-273.17 47.93,-265.81 49.31,-276.32 55.56,-273.17"/>
</g>
<!-- Node7 -->
<g id="node7" class="node">
<title>Node7</title>
<g id="a_node7"><a xlink:href="inline__core_8hpp.html" target="_top" xlink:title=" ">
<polygon fill="none" stroke="black" points="144.5,-302.5 144.5,-332.5 233.5,-332.5 233.5,-302.5 144.5,-302.5"/>
<text text-anchor="start" x="152.5" y="-320.5" font-family="Helvetica,sans-Serif" font-size="10.00">yaclib/algo/detail</text>
<text text-anchor="middle" x="189" y="-309.5" font-family="Helvetica,sans-Serif" font-size="10.00">/inline_core.hpp</text>
</a>
</g>
</g>
<!-- Node6&#45;&gt;Node7 -->
<g id="edge6" class="edge">
<title>Node6&#45;&gt;Node7</title>
<path fill="none" stroke="midnightblue" d="M377.35,-371.04C339.26,-360.42 284.37,-345.1 243.66,-333.75"/>
<polygon fill="midnightblue" stroke="midnightblue" points="244.47,-330.34 233.89,-331.02 242.59,-337.08 244.47,-330.34"/>
</g>
<!-- Node9 -->
<g id="node9" class="node">
<title>Node9</title>
<g id="a_node9"><a xlink:href="log_8hpp.html" target="_top" xlink:title=" ">
<polygon fill="none" stroke="black" points="195.5,-56.5 195.5,-75.5 270.5,-75.5 270.5,-56.5 195.5,-56.5"/>
<text text-anchor="middle" x="233" y="-63.5" font-family="Helvetica,sans-Serif" font-size="10.00">yaclib/log.hpp</text>
</a>
</g>
</g>
<!-- Node6&#45;&gt;Node9 -->
<g id="edge28" class="edge">
<title>Node6&#45;&gt;Node9</title>
<path fill="none" stroke="midnightblue" d="M377.37,-381.45C305.7,-377.23 169.47,-365.11 135,-333 109.52,-309.27 116,-291.82 116,-257 116,-257 116,-257 116,-193.5 116,-140.59 171.85,-100.41 206.38,-80.62"/>
<polygon fill="midnightblue" stroke="midnightblue" points="208.42,-83.49 215.48,-75.59 205.04,-77.36 208.42,-83.49"/>
</g>
<!-- Node13 -->
<g id="node13" class="node">
<title>Node13</title>
<g id="a_node13"><a xlink:href="ref_8hpp.html" target="_top" xlink:title=" ">
<polygon fill="none" stroke="black" points="502.5,-56.5 502.5,-75.5 591.5,-75.5 591.5,-56.5 502.5,-56.5"/>
<text text-anchor="middle" x="547" y="-63.5" font-family="Helvetica,sans-Serif" font-size="10.00">yaclib/util/ref.hpp</text>
</a>
</g>
</g>
<!-- Node6&#45;&gt;Node13 -->
<g id="edge29" class="edge">
<title>Node6&#45;&gt;Node13</title>
<path fill="none" stroke="midnightblue" d="M440.46,-369.47C452.28,-359.95 467.51,-346.66 479,-333 520.38,-283.84 537.44,-271.82 555,-210 567.3,-166.69 558.2,-113.12 551.82,-85.46"/>
<polygon fill="midnightblue" stroke="midnightblue" points="555.18,-84.47 549.4,-75.6 548.38,-86.14 555.18,-84.47"/>
</g>
<!-- Node6&#45;&gt;Node16 -->
<g id="edge18" class="edge">
<title>Node6&#45;&gt;Node16</title>
<path fill="none" stroke="midnightblue" d="M395.66,-369.49C382.1,-360.84 366.64,-348.44 358,-333 348.18,-315.46 346.82,-292.11 347.36,-275.94"/>
<polygon fill="midnightblue" stroke="midnightblue" points="350.87,-275.82 347.99,-265.62 343.88,-275.39 350.87,-275.82"/>
</g>
<!-- Node19 -->
<g id="node19" class="node">
<title>Node19</title>
<g id="a_node19"><a xlink:href="inline_8hpp.html" target="_top" xlink:title=" ">
<polygon fill="none" stroke="black" points="366.5,-308 366.5,-327 469.5,-327 469.5,-308 366.5,-308"/>
<text text-anchor="middle" x="418" y="-315" font-family="Helvetica,sans-Serif" font-size="10.00">yaclib/exe/inline.hpp</text>
</a>
</g>
</g>
<!-- Node6&#45;&gt;Node19 -->
<g id="edge25" class="edge">
<title>Node6&#45;&gt;Node19</title>
<path fill="none" stroke="midnightblue" d="M421.13,-369.4C420.55,-359.96 419.78,-347.45 419.15,-337.19"/>
<polygon fill="midnightblue" stroke="midnightblue" points="422.64,-336.96 418.54,-327.19 415.66,-337.39 422.64,-336.96"/>
</g>
<!-- Node21 -->
<g id="node21" class="node">
<title>Node21</title>
<g id="a_node21"><a xlink:title=" ">
<polygon fill="none" stroke="#bfbfbf" points="602,-308 602,-327 648,-327 648,-308 602,-308"/>
<text text-anchor="middle" x="625" y="-315" font-family="Helvetica,sans-Serif" font-size="10.00">cstdint</text>
</a>
</g>
</g>
<!-- Node6&#45;&gt;Node21 -->
<g id="edge30" class="edge">
<title>Node6&#45;&gt;Node21</title>
<path fill="none" stroke="midnightblue" d="M466.69,-370.93C500.28,-361.24 547.31,-347.14 588,-333 590.12,-332.26 592.29,-331.48 594.48,-330.68"/>
<polygon fill="midnightblue" stroke="midnightblue" points="595.87,-333.89 603.97,-327.07 593.38,-327.35 595.87,-333.89"/>
</g>
<!-- Node22 -->
<g id="node22" class="node">
<title>Node22</title>
<g id="a_node22"><a xlink:title=" ">
<polygon fill="none" stroke="#bfbfbf" points="666,-308 666,-327 706,-327 706,-308 666,-308"/>
<text text-anchor="middle" x="686" y="-315" font-family="Helvetica,sans-Serif" font-size="10.00">limits</text>
</a>
</g>
</g>
<!-- Node6&#45;&gt;Node22 -->
<g id="edge31" class="edge">
<title>Node6&#45;&gt;Node22</title>
<path fill="none" stroke="midnightblue" d="M466.66,-377.34C514.62,-369.93 592.62,-355.6 657,-333 658.43,-332.5 659.87,-331.94 661.32,-331.35"/>
<polygon fill="midnightblue" stroke="midnightblue" points="663.03,-334.42 670.66,-327.07 660.11,-328.05 663.03,-334.42"/>
</g>
<!-- Node23 -->
<g id="node23" class="node">
<title>Node23</title>
<g id="a_node23"><a xlink:title=" ">
<polygon fill="none" stroke="#bfbfbf" points="724,-308 724,-327 816,-327 816,-308 724,-308"/>
<text text-anchor="middle" x="770" y="-315" font-family="Helvetica,sans-Serif" font-size="10.00">yaclib_std/atomic</text>
</a>
</g>
</g>
<!-- Node6&#45;&gt;Node23 -->
<g id="edge32" class="edge">
<title>Node6&#45;&gt;Node23</title>
<path fill="none" stroke="midnightblue" d="M466.91,-377C524.61,-368.37 627.74,-351.98 715,-333 719.76,-331.97 724.72,-330.79 729.63,-329.57"/>
<polygon fill="midnightblue" stroke="midnightblue" points="730.75,-332.9 739.57,-327.03 729.01,-326.12 730.75,-332.9"/>
</g>
<!-- Node7&#45;&gt;Node3 -->
<g id="edge7" class="edge">
<title>Node7&#45;&gt;Node3</title>
<path fill="none" stroke="midnightblue" d="M154.64,-302.4C130.31,-292.42 97.97,-279.15 74.54,-269.53"/>
<polygon fill="midnightblue" stroke="midnightblue" points="75.68,-266.22 65.1,-265.66 73.02,-272.69 75.68,-266.22"/>
</g>
<!-- Node7&#45;&gt;Node8 -->
<g id="edge8" class="edge">
<title>Node7&#45;&gt;Node8</title>
<path fill="none" stroke="midnightblue" d="M200.98,-302.14C219.88,-279.51 256.48,-235.65 276.36,-211.84"/>
<polygon fill="midnightblue" stroke="midnightblue" points="279.14,-213.97 282.86,-204.05 273.77,-209.49 279.14,-213.97"/>
</g>
<!-- Node7&#45;&gt;Node9 -->
<g id="edge16" class="edge">
<title>Node7&#45;&gt;Node9</title>
<path fill="none" stroke="midnightblue" d="M191.49,-302.37C198.96,-260 221.19,-133.96 229.67,-85.9"/>
<polygon fill="midnightblue" stroke="midnightblue" points="233.14,-86.39 231.43,-75.93 226.24,-85.17 233.14,-86.39"/>
</g>
<!-- Node8&#45;&gt;Node9 -->
<g id="edge9" class="edge">
<title>Node8&#45;&gt;Node9</title>
<path fill="none" stroke="midnightblue" d="M286.08,-184.81C276.85,-164.31 253.57,-112.65 241.13,-85.04"/>
<polygon fill="midnightblue" stroke="midnightblue" points="244.24,-83.44 236.95,-75.76 237.86,-86.31 244.24,-83.44"/>
</g>
<!-- Node11 -->
<g id="node11" class="node">
<title>Node11</title>
<g id="a_node11"><a xlink:href="node_8hpp.html" target="_top" xlink:title=" ">
<polygon fill="none" stroke="black" points="690.5,-112.5 690.5,-142.5 773.5,-142.5 773.5,-112.5 690.5,-112.5"/>
<text text-anchor="start" x="698.5" y="-130.5" font-family="Helvetica,sans-Serif" font-size="10.00">yaclib/util/detail</text>
<text text-anchor="middle" x="732" y="-119.5" font-family="Helvetica,sans-Serif" font-size="10.00">/node.hpp</text>
</a>
</g>
</g>
<!-- Node8&#45;&gt;Node11 -->
<g id="edge11" class="edge">
<title>Node8&#45;&gt;Node11</title>
<path fill="none" stroke="midnightblue" d="M336.72,-188.4C421.98,-178.94 600.69,-158.41 680.28,-143.12"/>
<polygon fill="midnightblue" stroke="midnightblue" points="681.26,-146.49 690.38,-141.09 679.89,-139.63 681.26,-146.49"/>
</g>
<!-- Node12 -->
<g id="node12" class="node">
<title>Node12</title>
<g id="a_node12"><a xlink:href="func_8hpp.html" target="_top" xlink:title=" ">
<polygon fill="none" stroke="black" points="575.5,-118 575.5,-137 672.5,-137 672.5,-118 575.5,-118"/>
<text text-anchor="middle" x="624" y="-125" font-family="Helvetica,sans-Serif" font-size="10.00">yaclib/util/func.hpp</text>
</a>
</g>
</g>
<!-- Node8&#45;&gt;Node12 -->
<g id="edge12" class="edge">
<title>Node8&#45;&gt;Node12</title>
<path fill="none" stroke="midnightblue" d="M334.01,-184.94C394.79,-173.11 504.36,-151.78 570.01,-139.01"/>
<polygon fill="midnightblue" stroke="midnightblue" points="571.01,-142.38 580.16,-137.03 569.68,-135.51 571.01,-142.38"/>
</g>
<!-- Node10 -->
<g id="node10" class="node">
<title>Node10</title>
<g id="a_node10"><a xlink:title=" ">
<polygon fill="none" stroke="#bfbfbf" points="200,-0.5 200,-19.5 266,-19.5 266,-0.5 200,-0.5"/>
<text text-anchor="middle" x="233" y="-7.5" font-family="Helvetica,sans-Serif" font-size="10.00">string_view</text>
</a>
</g>
</g>
<!-- Node9&#45;&gt;Node10 -->
<g id="edge10" class="edge">
<title>Node9&#45;&gt;Node10</title>
<path fill="none" stroke="midnightblue" d="M233,-56.08C233,-49.01 233,-38.86 233,-29.99"/>
<polygon fill="midnightblue" stroke="midnightblue" points="236.5,-29.75 233,-19.75 229.5,-29.75 236.5,-29.75"/>
</g>
<!-- Node12&#45;&gt;Node13 -->
<g id="edge13" class="edge">
<title>Node12&#45;&gt;Node13</title>
<path fill="none" stroke="midnightblue" d="M612.97,-117.98C600.73,-108.52 580.77,-93.1 566.01,-81.69"/>
<polygon fill="midnightblue" stroke="midnightblue" points="568.06,-78.85 558.01,-75.51 563.78,-84.39 568.06,-78.85"/>
</g>
<!-- Node14 -->
<g id="node14" class="node">
<title>Node14</title>
<g id="a_node14"><a xlink:title=" ">
<polygon fill="none" stroke="#bfbfbf" points="774,-56.5 774,-75.5 836,-75.5 836,-56.5 774,-56.5"/>
<text text-anchor="middle" x="805" y="-63.5" font-family="Helvetica,sans-Serif" font-size="10.00">type_traits</text>
</a>
</g>
</g>
<!-- Node12&#45;&gt;Node14 -->
<g id="edge14" class="edge">
<title>Node12&#45;&gt;Node14</title>
<path fill="none" stroke="midnightblue" d="M649.93,-117.98C681.25,-107.68 734.09,-90.31 769.26,-78.75"/>
<polygon fill="midnightblue" stroke="midnightblue" points="770.71,-81.96 779.12,-75.51 768.52,-75.31 770.71,-81.96"/>
</g>
<!-- Node12&#45;&gt;Node15 -->
<g id="edge15" class="edge">
<title>Node12&#45;&gt;Node15</title>
<path fill="none" stroke="midnightblue" d="M657.07,-118C665.21,-115.97 673.91,-113.86 682,-112 747.99,-96.85 825.86,-81.07 867.39,-72.82"/>
<polygon fill="midnightblue" stroke="midnightblue" points="868.25,-76.22 877.38,-70.84 866.89,-69.35 868.25,-76.22"/>
</g>
<!-- Node16&#45;&gt;Node8 -->
<g id="edge19" class="edge">
<title>Node16&#45;&gt;Node8</title>
<path fill="none" stroke="midnightblue" d="M340.55,-246.48C331.43,-237.28 316.73,-222.46 305.52,-211.16"/>
<polygon fill="midnightblue" stroke="midnightblue" points="307.96,-208.65 298.44,-204.01 302.99,-213.57 307.96,-208.65"/>
</g>
<!-- Node16&#45;&gt;Node17 -->
<g id="edge20" class="edge">
<title>Node16&#45;&gt;Node17</title>
<path fill="none" stroke="midnightblue" d="M370.2,-246.48C391.65,-237.85 425.45,-224.26 452.76,-213.29"/>
<polygon fill="midnightblue" stroke="midnightblue" points="454.15,-216.5 462.12,-209.52 451.54,-210.01 454.15,-216.5"/>
</g>
<!-- Node17&#45;&gt;Node13 -->
<g id="edge21" class="edge">
<title>Node17&#45;&gt;Node13</title>
<path fill="none" stroke="midnightblue" d="M502.54,-179.48C511.62,-156.51 529.65,-110.89 539.74,-85.37"/>
<polygon fill="midnightblue" stroke="midnightblue" points="543.11,-86.38 543.53,-75.79 536.6,-83.8 543.11,-86.38"/>
</g>
<!-- Node17&#45;&gt;Node14 -->
<g id="edge22" class="edge">
<title>Node17&#45;&gt;Node14</title>
<path fill="none" stroke="midnightblue" d="M545.72,-191.01C618,-186.32 748.77,-173.75 783,-143 799.09,-128.54 803.71,-103.11 804.88,-85.67"/>
<polygon fill="midnightblue" stroke="midnightblue" points="808.38,-85.69 805.24,-75.57 801.39,-85.44 808.38,-85.69"/>
</g>
<!-- Node18 -->
<g id="node18" class="node">
<title>Node18</title>
<g id="a_node18"><a xlink:href="intrusive__ptr__impl_8hpp.html" target="_top" xlink:title=" ">
<polygon fill="none" stroke="black" points="327,-112.5 327,-142.5 441,-142.5 441,-112.5 327,-112.5"/>
<text text-anchor="start" x="335" y="-130.5" font-family="Helvetica,sans-Serif" font-size="10.00">yaclib/util/detail</text>
<text text-anchor="middle" x="384" y="-119.5" font-family="Helvetica,sans-Serif" font-size="10.00">/intrusive_ptr_impl.hpp</text>
</a>
</g>
</g>
<!-- Node17&#45;&gt;Node18 -->
<g id="edge23" class="edge">
<title>Node17&#45;&gt;Node18</title>
<path fill="none" stroke="midnightblue" d="M472.48,-179.4C456.34,-170.11 435.01,-157.84 417.33,-147.67"/>
<polygon fill="midnightblue" stroke="midnightblue" points="418.88,-144.53 408.47,-142.58 415.39,-150.6 418.88,-144.53"/>
</g>
<!-- Node18&#45;&gt;Node9 -->
<g id="edge24" class="edge">
<title>Node18&#45;&gt;Node9</title>
<path fill="none" stroke="midnightblue" d="M348.22,-112.4C322.77,-102.37 288.9,-89.03 264.48,-79.4"/>
<polygon fill="midnightblue" stroke="midnightblue" points="265.56,-76.07 254.97,-75.66 262.99,-82.58 265.56,-76.07"/>
</g>
<!-- Node19&#45;&gt;Node16 -->
<g id="edge26" class="edge">
<title>Node19&#45;&gt;Node16</title>
<path fill="none" stroke="midnightblue" d="M408.11,-307.98C397.35,-298.7 379.93,-283.67 366.78,-272.33"/>
<polygon fill="midnightblue" stroke="midnightblue" points="368.73,-269.39 358.87,-265.51 364.16,-274.69 368.73,-269.39"/>
</g>
<!-- Node20 -->
<g id="node20" class="node">
<title>Node20</title>
<g id="a_node20"><a xlink:href="fwd_8hpp.html" target="_top" xlink:title=" ">
<polygon fill="none" stroke="black" points="1096,-56.5 1096,-75.5 1174,-75.5 1174,-56.5 1096,-56.5"/>
<text text-anchor="middle" x="1135" y="-63.5" font-family="Helvetica,sans-Serif" font-size="10.00">yaclib/fwd.hpp</text>
</a>
</g>
</g>
<!-- Node19&#45;&gt;Node20 -->
<g id="edge27" class="edge">
<title>Node19&#45;&gt;Node20</title>
<path fill="none" stroke="midnightblue" d="M469.76,-310.68C630.72,-292.32 1113.1,-235.39 1135,-210 1165.18,-175 1151.47,-115.3 1141.74,-85.32"/>
<polygon fill="midnightblue" stroke="midnightblue" points="1145,-84.03 1138.43,-75.72 1138.38,-86.31 1145,-84.03"/>
</g>
<!-- Node24&#45;&gt;Node15 -->
<g id="edge45" class="edge">
<title>Node24&#45;&gt;Node15</title>
<path fill="none" stroke="midnightblue" d="M1178.84,-254.67C1128.69,-252.27 1051.6,-242.87 994,-210 944.82,-181.93 915.43,-117.52 903.38,-85.61"/>
<polygon fill="midnightblue" stroke="midnightblue" points="906.53,-84.01 899.84,-75.79 899.94,-86.39 906.53,-84.01"/>
</g>
<!-- Node24&#45;&gt;Node20 -->
<g id="edge35" class="edge">
<title>Node24&#45;&gt;Node20</title>
<path fill="none" stroke="midnightblue" d="M1227,-246.3C1218.98,-223.48 1195.74,-160.35 1168,-112 1162.33,-102.13 1154.92,-91.84 1148.55,-83.59"/>
<polygon fill="midnightblue" stroke="midnightblue" points="1151.14,-81.23 1142.19,-75.57 1145.66,-85.58 1151.14,-81.23"/>
</g>
<!-- Node25 -->
<g id="node25" class="node">
<title>Node25</title>
<g id="a_node25"><a xlink:href="type__traits_8hpp.html" target="_top" xlink:title=" ">
<polygon fill="none" stroke="black" points="1002.5,-185 1002.5,-204 1125.5,-204 1125.5,-185 1002.5,-185"/>
<text text-anchor="middle" x="1064" y="-192" font-family="Helvetica,sans-Serif" font-size="10.00">yaclib/util/type_traits.hpp</text>
</a>
</g>
</g>
<!-- Node24&#45;&gt;Node25 -->
<g id="edge36" class="edge">
<title>Node24&#45;&gt;Node25</title>
<path fill="none" stroke="midnightblue" d="M1206.22,-246.48C1177.62,-236.22 1129.45,-218.96 1097.2,-207.4"/>
<polygon fill="midnightblue" stroke="midnightblue" points="1098.33,-204.09 1087.74,-204.01 1095.97,-210.68 1098.33,-204.09"/>
</g>
<!-- Node24&#45;&gt;Node27 -->
<g id="edge44" class="edge">
<title>Node24&#45;&gt;Node27</title>
<path fill="none" stroke="midnightblue" d="M1231.31,-246.31C1234.36,-225.99 1242.01,-175.05 1246.18,-147.28"/>
<polygon fill="midnightblue" stroke="midnightblue" points="1249.66,-147.66 1247.68,-137.26 1242.74,-146.62 1249.66,-147.66"/>
</g>
<!-- Node28 -->
<g id="node28" class="node">
<title>Node28</title>
<g id="a_node28"><a xlink:title=" ">
<polygon fill="none" stroke="#bfbfbf" points="1258,-185 1258,-204 1304,-204 1304,-185 1258,-185"/>
<text text-anchor="middle" x="1281" y="-192" font-family="Helvetica,sans-Serif" font-size="10.00">variant</text>
</a>
</g>
</g>
<!-- Node24&#45;&gt;Node28 -->
<g id="edge46" class="edge">
<title>Node24&#45;&gt;Node28</title>
<path fill="none" stroke="midnightblue" d="M1237.31,-246.48C1245.03,-237.46 1257.41,-223.02 1267.02,-211.81"/>
<polygon fill="midnightblue" stroke="midnightblue" points="1269.86,-213.88 1273.71,-204.01 1264.54,-209.32 1269.86,-213.88"/>
</g>
<!-- Node25&#45;&gt;Node14 -->
<g id="edge42" class="edge">
<title>Node25&#45;&gt;Node14</title>
<path fill="none" stroke="midnightblue" d="M1038.78,-184.94C1012.41,-175.7 970.07,-159.99 935,-143 895.6,-123.92 852.13,-97.29 826.77,-81.14"/>
<polygon fill="midnightblue" stroke="midnightblue" points="828.59,-78.15 818.28,-75.7 824.81,-84.05 828.59,-78.15"/>
</g>
<!-- Node25&#45;&gt;Node15 -->
<g id="edge43" class="edge">
<title>Node25&#45;&gt;Node15</title>
<path fill="none" stroke="midnightblue" d="M1066.43,-184.73C1070.38,-168.42 1076.13,-133.15 1059,-112 1042.41,-91.5 968.53,-77.52 926.5,-71.07"/>
<polygon fill="midnightblue" stroke="midnightblue" points="926.96,-67.6 916.56,-69.59 925.94,-74.52 926.96,-67.6"/>
</g>
<!-- Node25&#45;&gt;Node20 -->
<g id="edge37" class="edge">
<title>Node25&#45;&gt;Node20</title>
<path fill="none" stroke="midnightblue" d="M1068.88,-184.81C1080.43,-164.22 1109.64,-112.19 1125.08,-84.68"/>
<polygon fill="midnightblue" stroke="midnightblue" points="1128.24,-86.19 1130.09,-75.76 1122.14,-82.76 1128.24,-86.19"/>
</g>
<!-- Node26 -->
<g id="node26" class="node">
<title>Node26</title>
<g id="a_node26"><a xlink:href="type__traits__impl_8hpp.html" target="_top" xlink:title=" ">
<polygon fill="none" stroke="black" points="944,-112.5 944,-142.5 1050,-142.5 1050,-112.5 944,-112.5"/>
<text text-anchor="start" x="952" y="-130.5" font-family="Helvetica,sans-Serif" font-size="10.00">yaclib/util/detail</text>
<text text-anchor="middle" x="997" y="-119.5" font-family="Helvetica,sans-Serif" font-size="10.00">/type_traits_impl.hpp</text>
</a>
</g>
</g>
<!-- Node25&#45;&gt;Node26 -->
<g id="edge38" class="edge">
<title>Node25&#45;&gt;Node26</title>
<path fill="none" stroke="midnightblue" d="M1054.96,-184.73C1045.74,-175.78 1031.06,-161.54 1018.78,-149.63"/>
<polygon fill="midnightblue" stroke="midnightblue" points="1021.14,-147.04 1011.52,-142.59 1016.26,-152.06 1021.14,-147.04"/>
</g>
<!-- Node25&#45;&gt;Node27 -->
<g id="edge41" class="edge">
<title>Node25&#45;&gt;Node27</title>
<path fill="none" stroke="midnightblue" d="M1088.57,-184.87C1121,-173.47 1178.27,-153.35 1214.88,-140.49"/>
<polygon fill="midnightblue" stroke="midnightblue" points="1216.35,-143.68 1224.63,-137.06 1214.03,-137.08 1216.35,-143.68"/>
</g>
<!-- Node26&#45;&gt;Node14 -->
<g id="edge40" class="edge">
<title>Node26&#45;&gt;Node14</title>
<path fill="none" stroke="midnightblue" d="M951.5,-112.4C918.18,-102.07 873.51,-88.23 842.29,-78.56"/>
<polygon fill="midnightblue" stroke="midnightblue" points="843.25,-75.19 832.66,-75.57 841.17,-81.87 843.25,-75.19"/>
</g>
<!-- Node26&#45;&gt;Node20 -->
<g id="edge39" class="edge">
<title>Node26&#45;&gt;Node20</title>
<path fill="none" stroke="midnightblue" d="M1029.7,-112.4C1052.75,-102.46 1083.36,-89.26 1105.63,-79.66"/>
<polygon fill="midnightblue" stroke="midnightblue" points="1107.12,-82.83 1114.92,-75.66 1104.35,-76.4 1107.12,-82.83"/>
</g>
<!-- Node30 -->
<g id="node30" class="node">
<title>Node30</title>
<g id="a_node30"><a xlink:href="default__deleter_8hpp.html" target="_top" xlink:title=" ">
<polygon fill="none" stroke="black" points="1361.5,-369.5 1361.5,-399.5 1462.5,-399.5 1462.5,-369.5 1361.5,-369.5"/>
<text text-anchor="start" x="1369.5" y="-387.5" font-family="Helvetica,sans-Serif" font-size="10.00">yaclib/util/detail</text>
<text text-anchor="middle" x="1412" y="-376.5" font-family="Helvetica,sans-Serif" font-size="10.00">/default_deleter.hpp</text>
</a>
</g>
</g>
<!-- Node29&#45;&gt;Node30 -->
<g id="edge50" class="edge">
<title>Node29&#45;&gt;Node30</title>
<path fill="none" stroke="midnightblue" d="M1412,-436.4C1412,-428.64 1412,-418.81 1412,-409.86"/>
<polygon fill="midnightblue" stroke="midnightblue" points="1415.5,-409.58 1412,-399.58 1408.5,-409.58 1415.5,-409.58"/>
</g>
</g>
</svg>
        <g id="navigator" transform="translate(0 0)" fill="#404254">
                <rect fill="#f2f5e9" fill-opacity="0.5" stroke="#606060" stroke-width=".5" x="0" y="0" width="60" height="60"/>
                <use id="zoomplus" xlink:href="#zoomPlus" x="17" y="9" onmousedown="handleZoom(evt,'in')"/>
                <use id="zoomminus" xlink:href="#zoomMin" x="42" y="9" onmousedown="handleZoom(evt,'out')"/>
                <use id="reset" xlink:href="#resetDef" x="30" y="36" onmousedown="handleReset()"/>
                <g id="arrowUp" xlink:href="#dirArrow" transform="translate(30 24)" onmousedown="handlePan(0,-1)">
                  <use xlink:href="#rim" fill="#404040">
                        <set attributeName="fill" to="#808080" begin="arrowUp.mouseover" end="arrowUp.mouseout"/>
                  </use>
                  <path fill="none" stroke="white" stroke-width="1.5" d="M0,-3.0v7 M-2.5,-0.5L0,-3.0L2.5,-0.5"/>
                </g>
                <g id="arrowRight" xlink:href="#dirArrow" transform="rotate(90) translate(36 -43)" onmousedown="handlePan(1,0)">
                  <use xlink:href="#rim" fill="#404040">
                        <set attributeName="fill" to="#808080" begin="arrowRight.mouseover" end="arrowRight.mouseout"/>
                  </use>
                  <path fill="none" stroke="white" stroke-width="1.5" d="M0,-3.0v7 M-2.5,-0.5L0,-3.0L2.5,-0.5"/>
                </g>
                <g id="arrowDown" xlink:href="#dirArrow" transform="rotate(180) translate(-30 -48)" onmousedown="handlePan(0,1)">
                  <use xlink:href="#rim" fill="#404040">
                        <set attributeName="fill" to="#808080" begin="arrowDown.mouseover" end="arrowDown.mouseout"/>
                  </use>
                  <path fill="none" stroke="white" stroke-width="1.5" d="M0,-3.0v7 M-2.5,-0.5L0,-3.0L2.5,-0.5"/>
                </g>
                <g id="arrowLeft" xlink:href="#dirArrow" transform="rotate(270) translate(-36 17)" onmousedown="handlePan(-1,0)">
                  <use xlink:href="#rim" fill="#404040">
                        <set attributeName="fill" to="#808080" begin="arrowLeft.mouseover" end="arrowLeft.mouseout"/>
                  </use>
                  <path fill="none" stroke="white" stroke-width="1.5" d="M0,-3.0v7 M-2.5,-0.5L0,-3.0L2.5,-0.5"/>
                </g>
        </g>
        <svg viewBox="0 0 15 15" width="100%" height="30px" preserveAspectRatio="xMaxYMin meet">
         <g id="arrow_out" transform="scale(0.3 0.3)">
          <a xlink:href="on__awaiter_8hpp__incl_org.svg" target="_base">
           <rect id="button" ry="5" rx="5" y="6" x="6" height="38" width="38"
                fill="#f2f5e9" fill-opacity="0.5" stroke="#606060" stroke-width="1.0"/>
           <path id="arrow"
             d="M 11.500037,31.436501 C 11.940474,20.09759 22.043105,11.32322 32.158766,21.979434 L 37.068811,17.246167 C 37.068811,17.246167 37.088388,32 37.088388,32 L 22.160133,31.978069 C 22.160133,31.978069 26.997745,27.140456 26.997745,27.140456 C 18.528582,18.264221 13.291696,25.230495 11.500037,31.436501 z"
             style="fill:#404040;"/>
          </a>
         </g>
        </svg>
</svg>
