<?xml version="1.0" encoding="UTF-8" standalone="no"?>
<!DOCTYPE svg PUBLIC "-//W3C//DTD SVG 1.1//EN"
 "http://www.w3.org/Graphics/SVG/1.1/DTD/svg11.dtd">
<!-- Generated by graphviz version 3.0.0 (20220413.0242)
 -->
<!-- Title: include/yaclib/coroutine/detail/on_awaiter.hpp Pages: 1 -->
<!--zoomable 553 -->
<svg id="main" version="1.1" xmlns="http://www.w3.org/2000/svg" xmlns:xlink="http://www.w3.org/1999/xlink" xml:space="preserve" onload="init(evt)">
<style type="text/css"><![CDATA[
.edge:hover path { stroke: red; }
.edge:hover polygon { stroke: red; fill: red; }
]]></style>
<script type="text/javascript"><![CDATA[
var edges = document.getElementsByTagName('g');
if (edges && edges.length) {
  for (var i=0;i<edges.length;i++) {
    if (edges[i].id.substr(0,4)=='edge') {
      edges[i].setAttribute('class','edge');
    }
  }
}
]]></script>
        <defs>
                <circle id="rim" cx="0" cy="0" r="7"/>
                <circle id="rim2" cx="0" cy="0" r="3.5"/>
                <g id="zoomPlus">
                        <use xlink:href="#rim" fill="#404040">
                                <set attributeName="fill" to="#808080" begin="zoomplus.mouseover" end="zoomplus.mouseout"/>
                        </use>
                        <path d="M-4,0h8M0,-4v8" fill="none" stroke="white" stroke-width="1.5" pointer-events="none"/>
                </g>
                <g id="zoomMin">
                        <use xlink:href="#rim" fill="#404040">
                                <set attributeName="fill" to="#808080" begin="zoomminus.mouseover" end="zoomminus.mouseout"/>
                        </use>
                        <path d="M-4,0h8" fill="none" stroke="white" stroke-width="1.5" pointer-events="none"/>
                </g>
                <g id="dirArrow">
                        <path fill="none" stroke="white" stroke-width="1.5" d="M0,-3.0v7 M-2.5,-0.5L0,-3.0L2.5,-0.5"/>
                </g>
               <g id="resetDef">
                       <use xlink:href="#rim2" fill="#404040">
                               <set attributeName="fill" to="#808080" begin="reset.mouseover" end="reset.mouseout"/>
                       </use>
               </g>
        </defs>

<script type="text/javascript">
var viewWidth = 1161;
var viewHeight = 553;
var sectionId = 'dynsection-0';
</script>
<script xlink:href="svgpan.js"/>
<svg id="graph" class="graph">
<g id="viewport">
<title>include/yaclib/coroutine/detail/on_awaiter.hpp</title>
<!-- Node1 -->
<g id="node1" class="node">
<title>Node1</title>
<g id="a_node1"><a xlink:title=" ">
<polygon fill="#bfbfbf" stroke="black" points="611.5,-514.5 611.5,-544.5 729.5,-544.5 729.5,-514.5 611.5,-514.5"/>
<text text-anchor="start" x="619.5" y="-532.5" font-family="Helvetica,sans-Serif" font-size="10.00">include/yaclib/coroutine</text>
<text text-anchor="middle" x="670.5" y="-521.5" font-family="Helvetica,sans-Serif" font-size="10.00">/detail/on_awaiter.hpp</text>
</a>
</g>
</g>
<!-- Node2 -->
<g id="node2" class="node">
<title>Node2</title>
<g id="a_node2"><a xlink:href="coroutine_8hpp.html" target="_top" xlink:title=" ">
<polygon fill="none" stroke="black" points="0,-386 0,-405 145,-405 145,-386 0,-386"/>
<text text-anchor="middle" x="72.5" y="-393" font-family="Helvetica,sans-Serif" font-size="10.00">yaclib/coroutine/coroutine.hpp</text>
</a>
</g>
</g>
<!-- Node1&#45;&gt;Node2 -->
<g id="edge1" class="edge">
<title>Node1&#45;&gt;Node2</title>
<path fill="none" stroke="midnightblue" d="M611.37,-520.22C551,-511.35 454.75,-496.1 372.5,-478 277.03,-456.99 166.48,-424.92 109.98,-407.95"/>
<polygon fill="midnightblue" stroke="midnightblue" points="110.98,-404.59 100.4,-405.06 108.96,-411.3 110.98,-404.59"/>
</g>
<!-- Node4 -->
<g id="node4" class="node">
<title>Node4</title>
<g id="a_node4"><a xlink:href="promise__type_8hpp.html" target="_top" xlink:title=" ">
<polygon fill="none" stroke="black" points="381.5,-447.5 381.5,-477.5 491.5,-477.5 491.5,-447.5 381.5,-447.5"/>
<text text-anchor="start" x="389.5" y="-465.5" font-family="Helvetica,sans-Serif" font-size="10.00">yaclib/coroutine/detail</text>
<text text-anchor="middle" x="436.5" y="-454.5" font-family="Helvetica,sans-Serif" font-size="10.00">/promise_type.hpp</text>
</a>
</g>
</g>
<!-- Node1&#45;&gt;Node4 -->
<g id="edge3" class="edge">
<title>Node1&#45;&gt;Node4</title>
<path fill="none" stroke="midnightblue" d="M620.01,-514.48C584,-504.47 535.4,-490.97 497.26,-480.38"/>
<polygon fill="midnightblue" stroke="midnightblue" points="497.87,-476.92 487.3,-477.61 496,-483.66 497.87,-476.92"/>
</g>
<!-- Node8 -->
<g id="node8" class="node">
<title>Node8</title>
<g id="a_node8"><a xlink:href="job_8hpp.html" target="_top" xlink:title=" ">
<polygon fill="none" stroke="black" points="678,-185 678,-204 793,-204 793,-185 678,-185"/>
<text text-anchor="middle" x="735.5" y="-192" font-family="Helvetica,sans-Serif" font-size="10.00">yaclib/executor/job.hpp</text>
</a>
</g>
</g>
<!-- Node1&#45;&gt;Node8 -->
<g id="edge45" class="edge">
<title>Node1&#45;&gt;Node8</title>
<path fill="none" stroke="midnightblue" d="M723.05,-514.4C776.18,-496.57 850.5,-460.25 850.5,-396.5 850.5,-396.5 850.5,-396.5 850.5,-327.5 850.5,-290.31 854.24,-275.43 831.5,-246 817.45,-227.81 794.98,-215.49 775.31,-207.57"/>
<polygon fill="midnightblue" stroke="midnightblue" points="776.52,-204.29 765.93,-204.03 774.05,-210.84 776.52,-204.29"/>
</g>
<!-- Node15 -->
<g id="node15" class="node">
<title>Node15</title>
<g id="a_node15"><a xlink:href="executor_8hpp.html" target="_top" xlink:title=" ">
<polygon fill="none" stroke="black" points="531,-252 531,-271 670,-271 670,-252 531,-252"/>
<text text-anchor="middle" x="600.5" y="-259" font-family="Helvetica,sans-Serif" font-size="10.00">yaclib/executor/executor.hpp</text>
</a>
</g>
</g>
<!-- Node1&#45;&gt;Node15 -->
<g id="edge44" class="edge">
<title>Node1&#45;&gt;Node15</title>
<path fill="none" stroke="midnightblue" d="M668.12,-514.45C663.51,-487.94 652.65,-428.83 639.5,-380 629.9,-344.35 615.62,-303.63 607.27,-280.7"/>
<polygon fill="midnightblue" stroke="midnightblue" points="610.52,-279.42 603.78,-271.24 603.95,-281.83 610.52,-279.42"/>
</g>
<!-- Node3 -->
<g id="node3" class="node">
<title>Node3</title>
<g id="a_node3"><a xlink:title=" ">
<polygon fill="none" stroke="#bfbfbf" points="200.5,-252 200.5,-271 288.5,-271 288.5,-252 200.5,-252"/>
<text text-anchor="middle" x="244.5" y="-259" font-family="Helvetica,sans-Serif" font-size="10.00">yaclib/config.hpp</text>
</a>
</g>
</g>
<!-- Node2&#45;&gt;Node3 -->
<g id="edge2" class="edge">
<title>Node2&#45;&gt;Node3</title>
<path fill="none" stroke="midnightblue" d="M77.78,-385.84C87.98,-369.7 111.84,-334.72 139.5,-313 160.75,-296.32 188.4,-283.3 210,-274.66"/>
<polygon fill="midnightblue" stroke="midnightblue" points="211.38,-277.88 219.45,-271 208.86,-271.35 211.38,-277.88"/>
</g>
<!-- Node4&#45;&gt;Node2 -->
<g id="edge39" class="edge">
<title>Node4&#45;&gt;Node2</title>
<path fill="none" stroke="midnightblue" d="M381.22,-451.63C313.49,-439.53 199.3,-419.14 130.4,-406.84"/>
<polygon fill="midnightblue" stroke="midnightblue" points="130.62,-403.32 120.16,-405.01 129.39,-410.21 130.62,-403.32"/>
</g>
<!-- Node5 -->
<g id="node5" class="node">
<title>Node5</title>
<g id="a_node5"><a xlink:href="result__core_8hpp.html" target="_top" xlink:title=" ">
<polygon fill="none" stroke="black" points="534.5,-380.5 534.5,-410.5 630.5,-410.5 630.5,-380.5 534.5,-380.5"/>
<text text-anchor="start" x="542.5" y="-398.5" font-family="Helvetica,sans-Serif" font-size="10.00">yaclib/async/detail</text>
<text text-anchor="middle" x="582.5" y="-387.5" font-family="Helvetica,sans-Serif" font-size="10.00">/result_core.hpp</text>
</a>
</g>
</g>
<!-- Node4&#45;&gt;Node5 -->
<g id="edge4" class="edge">
<title>Node4&#45;&gt;Node5</title>
<path fill="none" stroke="midnightblue" d="M468.18,-447.4C489.7,-437.81 518.37,-425.05 541.62,-414.7"/>
<polygon fill="midnightblue" stroke="midnightblue" points="543.17,-417.84 550.88,-410.58 540.32,-411.45 543.17,-417.84"/>
</g>
<!-- Node16 -->
<g id="node16" class="node">
<title>Node16</title>
<g id="a_node16"><a xlink:href="intrusive__ptr_8hpp.html" target="_top" xlink:title=" ">
<polygon fill="none" stroke="black" points="268,-179.5 268,-209.5 365,-209.5 365,-179.5 268,-179.5"/>
<text text-anchor="start" x="276" y="-197.5" font-family="Helvetica,sans-Serif" font-size="10.00">yaclib/util/intrusive</text>
<text text-anchor="middle" x="316.5" y="-186.5" font-family="Helvetica,sans-Serif" font-size="10.00">_ptr.hpp</text>
</a>
</g>
</g>
<!-- Node4&#45;&gt;Node16 -->
<g id="edge42" class="edge">
<title>Node4&#45;&gt;Node16</title>
<path fill="none" stroke="midnightblue" d="M421.62,-447.28C392.06,-419.45 323.19,-356.71 258.5,-313 230.49,-294.08 208.85,-306.01 191.5,-277 184.43,-265.17 183.8,-257.42 191.5,-246 206.52,-223.73 233.2,-211.28 258.06,-204.32"/>
<polygon fill="midnightblue" stroke="midnightblue" points="259.01,-207.69 267.83,-201.83 257.28,-200.91 259.01,-207.69"/>
</g>
<!-- Node25 -->
<g id="node25" class="node">
<title>Node25</title>
<g id="a_node25"><a xlink:title=" ">
<polygon fill="none" stroke="#bfbfbf" points="1094.5,-185 1094.5,-204 1152.5,-204 1152.5,-185 1094.5,-185"/>
<text text-anchor="middle" x="1123.5" y="-192" font-family="Helvetica,sans-Serif" font-size="10.00">exception</text>
</a>
</g>
</g>
<!-- Node4&#45;&gt;Node25 -->
<g id="edge43" class="edge">
<title>Node4&#45;&gt;Node25</title>
<path fill="none" stroke="midnightblue" d="M491.65,-460.08C599.86,-455.3 845.2,-434.47 1026.5,-344 1066.49,-324.04 1078.04,-315.04 1101.5,-277 1113.49,-257.56 1119.04,-231.58 1121.54,-214.23"/>
<polygon fill="midnightblue" stroke="midnightblue" points="1125.02,-214.59 1122.78,-204.23 1118.08,-213.72 1125.02,-214.59"/>
</g>
<!-- Node27 -->
<g id="node27" class="node">
<title>Node27</title>
<g id="a_node27"><a xlink:href="unique__counter_8hpp.html" target="_top" xlink:title=" ">
<polygon fill="none" stroke="black" points="163.5,-380.5 163.5,-410.5 267.5,-410.5 267.5,-380.5 163.5,-380.5"/>
<text text-anchor="start" x="171.5" y="-398.5" font-family="Helvetica,sans-Serif" font-size="10.00">yaclib/util/detail</text>
<text text-anchor="middle" x="215.5" y="-387.5" font-family="Helvetica,sans-Serif" font-size="10.00">/unique_counter.hpp</text>
</a>
</g>
</g>
<!-- Node4&#45;&gt;Node27 -->
<g id="edge40" class="edge">
<title>Node4&#45;&gt;Node27</title>
<path fill="none" stroke="midnightblue" d="M388.82,-447.48C354.95,-437.51 309.29,-424.09 273.34,-413.51"/>
<polygon fill="midnightblue" stroke="midnightblue" points="274.06,-410.07 263.48,-410.61 272.08,-416.79 274.06,-410.07"/>
</g>
<!-- Node6 -->
<g id="node6" class="node">
<title>Node6</title>
<g id="a_node6"><a xlink:href="base__core_8hpp.html" target="_top" xlink:title=" ">
<polygon fill="none" stroke="black" points="418.5,-313.5 418.5,-343.5 514.5,-343.5 514.5,-313.5 418.5,-313.5"/>
<text text-anchor="start" x="426.5" y="-331.5" font-family="Helvetica,sans-Serif" font-size="10.00">yaclib/async/detail</text>
<text text-anchor="middle" x="466.5" y="-320.5" font-family="Helvetica,sans-Serif" font-size="10.00">/base_core.hpp</text>
</a>
</g>
</g>
<!-- Node5&#45;&gt;Node6 -->
<g id="edge5" class="edge">
<title>Node5&#45;&gt;Node6</title>
<path fill="none" stroke="midnightblue" d="M557.33,-380.4C540.76,-371.11 518.86,-358.84 500.72,-348.67"/>
<polygon fill="midnightblue" stroke="midnightblue" points="502.06,-345.41 491.62,-343.58 498.63,-351.52 502.06,-345.41"/>
</g>
<!-- Node7 -->
<g id="node7" class="node">
<title>Node7</title>
<g id="a_node7"><a xlink:href="inline__core_8hpp.html" target="_top" xlink:title=" ">
<polygon fill="none" stroke="black" points="726.5,-246.5 726.5,-276.5 822.5,-276.5 822.5,-246.5 726.5,-246.5"/>
<text text-anchor="start" x="734.5" y="-264.5" font-family="Helvetica,sans-Serif" font-size="10.00">yaclib/async/detail</text>
<text text-anchor="middle" x="774.5" y="-253.5" font-family="Helvetica,sans-Serif" font-size="10.00">/inline_core.hpp</text>
</a>
</g>
</g>
<!-- Node5&#45;&gt;Node7 -->
<g id="edge26" class="edge">
<title>Node5&#45;&gt;Node7</title>
<path fill="none" stroke="midnightblue" d="M630.79,-382.67C656.76,-374.67 688.32,-362.21 712.5,-344 733.54,-328.15 751,-303.35 761.97,-285.26"/>
<polygon fill="midnightblue" stroke="midnightblue" points="765.06,-286.9 767.1,-276.5 759.02,-283.36 765.06,-286.9"/>
</g>
<!-- Node13 -->
<g id="node13" class="node">
<title>Node13</title>
<g id="a_node13"><a xlink:title=" ">
<polygon fill="none" stroke="#bfbfbf" points="658,-56.5 658,-75.5 697,-75.5 697,-56.5 658,-56.5"/>
<text text-anchor="middle" x="677.5" y="-63.5" font-family="Helvetica,sans-Serif" font-size="10.00">utility</text>
</a>
</g>
</g>
<!-- Node5&#45;&gt;Node13 -->
<g id="edge38" class="edge">
<title>Node5&#45;&gt;Node13</title>
<path fill="none" stroke="midnightblue" d="M599.81,-380.38C622.94,-360.28 662.84,-320.92 678.5,-277 683.13,-264.02 680.36,-259.65 678.5,-246 676.26,-229.55 672.07,-226.22 668.5,-210 662.01,-180.53 659.95,-173.08 657.5,-143 656.38,-129.27 654.64,-125.48 657.5,-112 659.5,-102.59 663.6,-92.76 667.57,-84.7"/>
<polygon fill="midnightblue" stroke="midnightblue" points="670.81,-86.07 672.37,-75.59 664.61,-82.81 670.81,-86.07"/>
</g>
<!-- Node5&#45;&gt;Node16 -->
<g id="edge27" class="edge">
<title>Node5&#45;&gt;Node16</title>
<path fill="none" stroke="midnightblue" d="M534.19,-387.48C497.85,-380.59 447.91,-367.55 409.5,-344 374.66,-322.63 367.99,-311.77 346.5,-277 335.34,-258.94 327.38,-236.1 322.48,-219.19"/>
<polygon fill="midnightblue" stroke="midnightblue" points="325.85,-218.24 319.82,-209.53 319.1,-220.1 325.85,-218.24"/>
</g>
<!-- Node21 -->
<g id="node21" class="node">
<title>Node21</title>
<g id="a_node21"><a xlink:href="result_8hpp.html" target="_top" xlink:title=" ">
<polygon fill="none" stroke="black" points="915.5,-319 915.5,-338 1017.5,-338 1017.5,-319 915.5,-319"/>
<text text-anchor="middle" x="966.5" y="-326" font-family="Helvetica,sans-Serif" font-size="10.00">yaclib/util/result.hpp</text>
</a>
</g>
</g>
<!-- Node5&#45;&gt;Node21 -->
<g id="edge28" class="edge">
<title>Node5&#45;&gt;Node21</title>
<path fill="none" stroke="midnightblue" d="M630.75,-386.33C700.63,-374.5 829.96,-352.61 906.09,-339.73"/>
<polygon fill="midnightblue" stroke="midnightblue" points="906.74,-343.17 916.02,-338.05 905.57,-336.26 906.74,-343.17"/>
</g>
<!-- Node6&#45;&gt;Node3 -->
<g id="edge14" class="edge">
<title>Node6&#45;&gt;Node3</title>
<path fill="none" stroke="midnightblue" d="M418.6,-313.48C378.29,-301.67 321.35,-285 283.7,-273.98"/>
<polygon fill="midnightblue" stroke="midnightblue" points="284.21,-270.48 273.63,-271.03 282.24,-277.2 284.21,-270.48"/>
</g>
<!-- Node6&#45;&gt;Node7 -->
<g id="edge6" class="edge">
<title>Node6&#45;&gt;Node7</title>
<path fill="none" stroke="midnightblue" d="M514.62,-317.34C569.24,-305.82 658.3,-287.02 716.65,-274.71"/>
<polygon fill="midnightblue" stroke="midnightblue" points="717.4,-278.13 726.46,-272.64 715.95,-271.28 717.4,-278.13"/>
</g>
<!-- Node11 -->
<g id="node11" class="node">
<title>Node11</title>
<g id="a_node11"><a xlink:href="ref_8hpp.html" target="_top" xlink:title=" ">
<polygon fill="none" stroke="black" points="349,-56.5 349,-75.5 438,-75.5 438,-56.5 349,-56.5"/>
<text text-anchor="middle" x="393.5" y="-63.5" font-family="Helvetica,sans-Serif" font-size="10.00">yaclib/util/ref.hpp</text>
</a>
</g>
</g>
<!-- Node6&#45;&gt;Node11 -->
<g id="edge24" class="edge">
<title>Node6&#45;&gt;Node11</title>
<path fill="none" stroke="midnightblue" d="M444.49,-313.42C432.57,-304.52 418.82,-291.89 411.5,-277 379.91,-212.71 386.11,-123.96 390.77,-85.74"/>
<polygon fill="midnightblue" stroke="midnightblue" points="394.27,-85.96 392.13,-75.58 387.34,-85.03 394.27,-85.96"/>
</g>
<!-- Node6&#45;&gt;Node15 -->
<g id="edge15" class="edge">
<title>Node6&#45;&gt;Node15</title>
<path fill="none" stroke="midnightblue" d="M495.58,-313.4C518.88,-302.09 551.31,-286.36 573.93,-275.39"/>
<polygon fill="midnightblue" stroke="midnightblue" points="575.49,-278.52 582.96,-271.01 572.44,-272.22 575.49,-278.52"/>
</g>
<!-- Node6&#45;&gt;Node16 -->
<g id="edge23" class="edge">
<title>Node6&#45;&gt;Node16</title>
<path fill="none" stroke="midnightblue" d="M435.21,-313.41C417.44,-304.5 395.44,-291.88 378.5,-277 358.94,-259.82 341.46,-235.62 330.09,-218.05"/>
<polygon fill="midnightblue" stroke="midnightblue" points="333.02,-216.14 324.72,-209.55 327.1,-219.87 333.02,-216.14"/>
</g>
<!-- Node20 -->
<g id="node20" class="node">
<title>Node20</title>
<g id="a_node20"><a xlink:title=" ">
<polygon fill="none" stroke="#bfbfbf" points="420.5,-252 420.5,-271 512.5,-271 512.5,-252 420.5,-252"/>
<text text-anchor="middle" x="466.5" y="-259" font-family="Helvetica,sans-Serif" font-size="10.00">yaclib_std/atomic</text>
</a>
</g>
</g>
<!-- Node6&#45;&gt;Node20 -->
<g id="edge25" class="edge">
<title>Node6&#45;&gt;Node20</title>
<path fill="none" stroke="midnightblue" d="M466.5,-313.4C466.5,-304.06 466.5,-291.71 466.5,-281.52"/>
<polygon fill="midnightblue" stroke="midnightblue" points="470,-281.19 466.5,-271.19 463,-281.19 470,-281.19"/>
</g>
<!-- Node7&#45;&gt;Node8 -->
<g id="edge7" class="edge">
<title>Node7&#45;&gt;Node8</title>
<path fill="none" stroke="midnightblue" d="M766.04,-246.4C760.14,-236.56 752.23,-223.38 745.94,-212.89"/>
<polygon fill="midnightblue" stroke="midnightblue" points="748.86,-210.97 740.72,-204.19 742.86,-214.57 748.86,-210.97"/>
</g>
<!-- Node14 -->
<g id="node14" class="node">
<title>Node14</title>
<g id="a_node14"><a xlink:title=" ">
<polygon fill="none" stroke="#bfbfbf" points="811.5,-185 811.5,-204 857.5,-204 857.5,-185 811.5,-185"/>
<text text-anchor="middle" x="834.5" y="-192" font-family="Helvetica,sans-Serif" font-size="10.00">cstdint</text>
</a>
</g>
</g>
<!-- Node7&#45;&gt;Node14 -->
<g id="edge13" class="edge">
<title>Node7&#45;&gt;Node14</title>
<path fill="none" stroke="midnightblue" d="M787.52,-246.4C796.97,-236.16 809.77,-222.3 819.62,-211.62"/>
<polygon fill="midnightblue" stroke="midnightblue" points="822.26,-213.92 826.47,-204.19 817.12,-209.17 822.26,-213.92"/>
</g>
<!-- Node9 -->
<g id="node9" class="node">
<title>Node9</title>
<g id="a_node9"><a xlink:href="node_8hpp.html" target="_top" xlink:title=" ">
<polygon fill="none" stroke="black" points="821,-112.5 821,-142.5 904,-142.5 904,-112.5 821,-112.5"/>
<text text-anchor="start" x="829" y="-130.5" font-family="Helvetica,sans-Serif" font-size="10.00">yaclib/util/detail</text>
<text text-anchor="middle" x="862.5" y="-119.5" font-family="Helvetica,sans-Serif" font-size="10.00">/node.hpp</text>
</a>
</g>
</g>
<!-- Node8&#45;&gt;Node9 -->
<g id="edge8" class="edge">
<title>Node8&#45;&gt;Node9</title>
<path fill="none" stroke="midnightblue" d="M752.36,-184.87C771.03,-175.31 801.68,-159.63 825.91,-147.22"/>
<polygon fill="midnightblue" stroke="midnightblue" points="827.54,-150.32 834.85,-142.65 824.35,-144.09 827.54,-150.32"/>
</g>
<!-- Node10 -->
<g id="node10" class="node">
<title>Node10</title>
<g id="a_node10"><a xlink:href="func_8hpp.html" target="_top" xlink:title=" ">
<polygon fill="none" stroke="black" points="667,-118 667,-137 764,-137 764,-118 667,-118"/>
<text text-anchor="middle" x="715.5" y="-125" font-family="Helvetica,sans-Serif" font-size="10.00">yaclib/util/func.hpp</text>
</a>
</g>
</g>
<!-- Node8&#45;&gt;Node10 -->
<g id="edge9" class="edge">
<title>Node8&#45;&gt;Node10</title>
<path fill="none" stroke="midnightblue" d="M732.8,-184.73C729.83,-175.09 724.98,-159.3 721.16,-146.91"/>
<polygon fill="midnightblue" stroke="midnightblue" points="724.44,-145.66 718.15,-137.13 717.75,-147.71 724.44,-145.66"/>
</g>
<!-- Node10&#45;&gt;Node11 -->
<g id="edge10" class="edge">
<title>Node10&#45;&gt;Node11</title>
<path fill="none" stroke="midnightblue" d="M669.37,-117.98C610.97,-107.18 510.51,-88.62 448.28,-77.12"/>
<polygon fill="midnightblue" stroke="midnightblue" points="448.72,-73.64 438.25,-75.27 447.45,-80.53 448.72,-73.64"/>
</g>
<!-- Node12 -->
<g id="node12" class="node">
<title>Node12</title>
<g id="a_node12"><a xlink:title=" ">
<polygon fill="none" stroke="#bfbfbf" points="831.5,-56.5 831.5,-75.5 893.5,-75.5 893.5,-56.5 831.5,-56.5"/>
<text text-anchor="middle" x="862.5" y="-63.5" font-family="Helvetica,sans-Serif" font-size="10.00">type_traits</text>
</a>
</g>
</g>
<!-- Node10&#45;&gt;Node12 -->
<g id="edge11" class="edge">
<title>Node10&#45;&gt;Node12</title>
<path fill="none" stroke="midnightblue" d="M736.56,-117.98C761.56,-107.86 803.44,-90.9 831.99,-79.35"/>
<polygon fill="midnightblue" stroke="midnightblue" points="833.52,-82.51 841.48,-75.51 830.89,-76.02 833.52,-82.51"/>
</g>
<!-- Node10&#45;&gt;Node13 -->
<g id="edge12" class="edge">
<title>Node10&#45;&gt;Node13</title>
<path fill="none" stroke="midnightblue" d="M710.06,-117.98C704.41,-109.14 695.44,-95.09 688.34,-83.98"/>
<polygon fill="midnightblue" stroke="midnightblue" points="691.27,-82.05 682.93,-75.51 685.37,-85.82 691.27,-82.05"/>
</g>
<!-- Node15&#45;&gt;Node8 -->
<g id="edge16" class="edge">
<title>Node15&#45;&gt;Node8</title>
<path fill="none" stroke="midnightblue" d="M618.43,-251.87C641.42,-240.8 681.53,-221.49 708.3,-208.6"/>
<polygon fill="midnightblue" stroke="midnightblue" points="710.01,-211.66 717.5,-204.17 706.97,-205.35 710.01,-211.66"/>
</g>
<!-- Node15&#45;&gt;Node16 -->
<g id="edge17" class="edge">
<title>Node15&#45;&gt;Node16</title>
<path fill="none" stroke="midnightblue" d="M563.08,-251.94C515.2,-240.98 431.71,-221.87 375.29,-208.96"/>
<polygon fill="midnightblue" stroke="midnightblue" points="375.97,-205.52 365.44,-206.7 374.41,-212.34 375.97,-205.52"/>
</g>
<!-- Node16&#45;&gt;Node11 -->
<g id="edge18" class="edge">
<title>Node16&#45;&gt;Node11</title>
<path fill="none" stroke="midnightblue" d="M325.03,-179.48C339.2,-156.21 367.53,-109.66 382.94,-84.36"/>
<polygon fill="midnightblue" stroke="midnightblue" points="385.94,-86.15 388.15,-75.79 379.96,-82.51 385.94,-86.15"/>
</g>
<!-- Node16&#45;&gt;Node12 -->
<g id="edge19" class="edge">
<title>Node16&#45;&gt;Node12</title>
<path fill="none" stroke="midnightblue" d="M365.34,-191.67C467.48,-187.28 700.14,-174.09 772.5,-143 776.74,-141.18 819.78,-104.11 844.77,-82.43"/>
<polygon fill="midnightblue" stroke="midnightblue" points="847.22,-84.94 852.48,-75.74 842.63,-79.65 847.22,-84.94"/>
</g>
<!-- Node17 -->
<g id="node17" class="node">
<title>Node17</title>
<g id="a_node17"><a xlink:href="intrusive__ptr__impl_8hpp.html" target="_top" xlink:title=" ">
<polygon fill="none" stroke="black" points="213.5,-112.5 213.5,-142.5 327.5,-142.5 327.5,-112.5 213.5,-112.5"/>
<text text-anchor="start" x="221.5" y="-130.5" font-family="Helvetica,sans-Serif" font-size="10.00">yaclib/util/detail</text>
<text text-anchor="middle" x="270.5" y="-119.5" font-family="Helvetica,sans-Serif" font-size="10.00">/intrusive_ptr_impl.hpp</text>
</a>
</g>
</g>
<!-- Node16&#45;&gt;Node17 -->
<g id="edge20" class="edge">
<title>Node16&#45;&gt;Node17</title>
<path fill="none" stroke="midnightblue" d="M306.52,-179.4C300.61,-171.05 293,-160.29 286.29,-150.81"/>
<polygon fill="midnightblue" stroke="midnightblue" points="289.1,-148.72 280.46,-142.58 283.38,-152.76 289.1,-148.72"/>
</g>
<!-- Node18 -->
<g id="node18" class="node">
<title>Node18</title>
<g id="a_node18"><a xlink:href="log_8hpp.html" target="_top" xlink:title=" ">
<polygon fill="none" stroke="black" points="233,-56.5 233,-75.5 308,-75.5 308,-56.5 233,-56.5"/>
<text text-anchor="middle" x="270.5" y="-63.5" font-family="Helvetica,sans-Serif" font-size="10.00">yaclib/log.hpp</text>
</a>
</g>
</g>
<!-- Node17&#45;&gt;Node18 -->
<g id="edge21" class="edge">
<title>Node17&#45;&gt;Node18</title>
<path fill="none" stroke="midnightblue" d="M270.5,-112.4C270.5,-104.47 270.5,-94.46 270.5,-85.86"/>
<polygon fill="midnightblue" stroke="midnightblue" points="274,-85.66 270.5,-75.66 267,-85.66 274,-85.66"/>
</g>
<!-- Node19 -->
<g id="node19" class="node">
<title>Node19</title>
<g id="a_node19"><a xlink:title=" ">
<polygon fill="none" stroke="#bfbfbf" points="237.5,-0.5 237.5,-19.5 303.5,-19.5 303.5,-0.5 237.5,-0.5"/>
<text text-anchor="middle" x="270.5" y="-7.5" font-family="Helvetica,sans-Serif" font-size="10.00">string_view</text>
</a>
</g>
</g>
<!-- Node18&#45;&gt;Node19 -->
<g id="edge22" class="edge">
<title>Node18&#45;&gt;Node19</title>
<path fill="none" stroke="midnightblue" d="M270.5,-56.08C270.5,-49.01 270.5,-38.86 270.5,-29.99"/>
<polygon fill="midnightblue" stroke="midnightblue" points="274,-29.75 270.5,-19.75 267,-29.75 274,-29.75"/>
</g>
<!-- Node22 -->
<g id="node22" class="node">
<title>Node22</title>
<g id="a_node22"><a xlink:href="type__traits_8hpp.html" target="_top" xlink:title=" ">
<polygon fill="none" stroke="black" points="943,-252 943,-271 1066,-271 1066,-252 943,-252"/>
<text text-anchor="middle" x="1004.5" y="-259" font-family="Helvetica,sans-Serif" font-size="10.00">yaclib/util/type_traits.hpp</text>
</a>
</g>
</g>
<!-- Node21&#45;&gt;Node22 -->
<g id="edge29" class="edge">
<title>Node21&#45;&gt;Node22</title>
<path fill="none" stroke="midnightblue" d="M971.62,-318.73C977.44,-308.79 987.06,-292.34 994.39,-279.79"/>
<polygon fill="midnightblue" stroke="midnightblue" points="997.43,-281.53 999.46,-271.13 991.39,-277.99 997.43,-281.53"/>
</g>
<!-- Node21&#45;&gt;Node25 -->
<g id="edge36" class="edge">
<title>Node21&#45;&gt;Node25</title>
<path fill="none" stroke="midnightblue" d="M996.27,-318.91C1019.64,-311 1051.9,-297.37 1074.5,-277 1094.18,-259.26 1108.45,-231.73 1116.35,-213.66"/>
<polygon fill="midnightblue" stroke="midnightblue" points="1119.65,-214.83 1120.26,-204.26 1113.19,-212.14 1119.65,-214.83"/>
</g>
<!-- Node26 -->
<g id="node26" class="node">
<title>Node26</title>
<g id="a_node26"><a xlink:title=" ">
<polygon fill="none" stroke="#bfbfbf" points="878.5,-252 878.5,-271 924.5,-271 924.5,-252 878.5,-252"/>
<text text-anchor="middle" x="901.5" y="-259" font-family="Helvetica,sans-Serif" font-size="10.00">variant</text>
</a>
</g>
</g>
<!-- Node21&#45;&gt;Node26 -->
<g id="edge37" class="edge">
<title>Node21&#45;&gt;Node26</title>
<path fill="none" stroke="midnightblue" d="M957.73,-318.73C947.4,-308.4 930.04,-291.04 917.33,-278.33"/>
<polygon fill="midnightblue" stroke="midnightblue" points="919.67,-275.72 910.13,-271.13 914.72,-280.67 919.67,-275.72"/>
</g>
<!-- Node22&#45;&gt;Node12 -->
<g id="edge35" class="edge">
<title>Node22&#45;&gt;Node12</title>
<path fill="none" stroke="midnightblue" d="M1011.82,-251.78C1031.57,-227.17 1082.16,-156.11 1047.5,-112 1029.96,-89.68 952.66,-77.05 903.7,-71.16"/>
<polygon fill="midnightblue" stroke="midnightblue" points="904.05,-67.68 893.71,-70 903.24,-74.63 904.05,-67.68"/>
</g>
<!-- Node23 -->
<g id="node23" class="node">
<title>Node23</title>
<g id="a_node23"><a xlink:href="fwd_8hpp.html" target="_top" xlink:title=" ">
<polygon fill="none" stroke="black" points="960.5,-118 960.5,-137 1038.5,-137 1038.5,-118 960.5,-118"/>
<text text-anchor="middle" x="999.5" y="-125" font-family="Helvetica,sans-Serif" font-size="10.00">yaclib/fwd.hpp</text>
</a>
</g>
</g>
<!-- Node22&#45;&gt;Node23 -->
<g id="edge30" class="edge">
<title>Node22&#45;&gt;Node23</title>
<path fill="none" stroke="midnightblue" d="M1004.17,-251.84C1003.37,-230.67 1001.3,-175.95 1000.2,-147.03"/>
<polygon fill="midnightblue" stroke="midnightblue" points="1003.7,-146.88 999.82,-137.02 996.7,-147.15 1003.7,-146.88"/>
</g>
<!-- Node24 -->
<g id="node24" class="node">
<title>Node24</title>
<g id="a_node24"><a xlink:href="type__traits__impl_8hpp.html" target="_top" xlink:title=" ">
<polygon fill="none" stroke="black" points="879.5,-179.5 879.5,-209.5 985.5,-209.5 985.5,-179.5 879.5,-179.5"/>
<text text-anchor="start" x="887.5" y="-197.5" font-family="Helvetica,sans-Serif" font-size="10.00">yaclib/util/detail</text>
<text text-anchor="middle" x="932.5" y="-186.5" font-family="Helvetica,sans-Serif" font-size="10.00">/type_traits_impl.hpp</text>
</a>
</g>
</g>
<!-- Node22&#45;&gt;Node24 -->
<g id="edge31" class="edge">
<title>Node22&#45;&gt;Node24</title>
<path fill="none" stroke="midnightblue" d="M994.79,-251.73C984.78,-242.7 968.8,-228.27 955.54,-216.3"/>
<polygon fill="midnightblue" stroke="midnightblue" points="957.87,-213.69 948.11,-209.59 953.18,-218.89 957.87,-213.69"/>
</g>
<!-- Node22&#45;&gt;Node25 -->
<g id="edge34" class="edge">
<title>Node22&#45;&gt;Node25</title>
<path fill="none" stroke="midnightblue" d="M1020.55,-251.73C1040.62,-240.77 1075.2,-221.88 1098.69,-209.05"/>
<polygon fill="midnightblue" stroke="midnightblue" points="1100.61,-211.99 1107.71,-204.13 1097.25,-205.85 1100.61,-211.99"/>
</g>
<!-- Node24&#45;&gt;Node12 -->
<g id="edge33" class="edge">
<title>Node24&#45;&gt;Node12</title>
<path fill="none" stroke="midnightblue" d="M931.55,-179.28C929.87,-162.22 925.22,-133.25 912.5,-112 905.38,-100.1 894.1,-89.56 884.06,-81.67"/>
<polygon fill="midnightblue" stroke="midnightblue" points="886.15,-78.86 876.04,-75.7 881.97,-84.48 886.15,-78.86"/>
</g>
<!-- Node24&#45;&gt;Node23 -->
<g id="edge32" class="edge">
<title>Node24&#45;&gt;Node23</title>
<path fill="none" stroke="midnightblue" d="M947.04,-179.4C957.69,-169.06 972.16,-155.02 983.2,-144.31"/>
<polygon fill="midnightblue" stroke="midnightblue" points="985.8,-146.67 990.54,-137.19 980.92,-141.65 985.8,-146.67"/>
</g>
<!-- Node28 -->
<g id="node28" class="node">
<title>Node28</title>
<g id="a_node28"><a xlink:href="default__deleter_8hpp.html" target="_top" xlink:title=" ">
<polygon fill="none" stroke="black" points="149,-313.5 149,-343.5 250,-343.5 250,-313.5 149,-313.5"/>
<text text-anchor="start" x="157" y="-331.5" font-family="Helvetica,sans-Serif" font-size="10.00">yaclib/util/detail</text>
<text text-anchor="middle" x="199.5" y="-320.5" font-family="Helvetica,sans-Serif" font-size="10.00">/default_deleter.hpp</text>
</a>
</g>
</g>
<!-- Node27&#45;&gt;Node28 -->
<g id="edge41" class="edge">
<title>Node27&#45;&gt;Node28</title>
<path fill="none" stroke="midnightblue" d="M212.03,-380.4C210.1,-372.56 207.65,-362.6 205.42,-353.57"/>
<polygon fill="midnightblue" stroke="midnightblue" points="208.75,-352.45 202.96,-343.58 201.96,-354.12 208.75,-352.45"/>
</g>
</g>
</svg>
        <g id="navigator" transform="translate(0 0)" fill="#404254">
                <rect fill="#f2f5e9" fill-opacity="0.5" stroke="#606060" stroke-width=".5" x="0" y="0" width="60" height="60"/>
                <use id="zoomplus" xlink:href="#zoomPlus" x="17" y="9" onmousedown="handleZoom(evt,'in')"/>
                <use id="zoomminus" xlink:href="#zoomMin" x="42" y="9" onmousedown="handleZoom(evt,'out')"/>
                <use id="reset" xlink:href="#resetDef" x="30" y="36" onmousedown="handleReset()"/>
                <g id="arrowUp" xlink:href="#dirArrow" transform="translate(30 24)" onmousedown="handlePan(0,-1)">
                  <use xlink:href="#rim" fill="#404040">
                        <set attributeName="fill" to="#808080" begin="arrowUp.mouseover" end="arrowUp.mouseout"/>
                  </use>
                  <path fill="none" stroke="white" stroke-width="1.5" d="M0,-3.0v7 M-2.5,-0.5L0,-3.0L2.5,-0.5"/>
                </g>
                <g id="arrowRight" xlink:href="#dirArrow" transform="rotate(90) translate(36 -43)" onmousedown="handlePan(1,0)">
                  <use xlink:href="#rim" fill="#404040">
                        <set attributeName="fill" to="#808080" begin="arrowRight.mouseover" end="arrowRight.mouseout"/>
                  </use>
                  <path fill="none" stroke="white" stroke-width="1.5" d="M0,-3.0v7 M-2.5,-0.5L0,-3.0L2.5,-0.5"/>
                </g>
                <g id="arrowDown" xlink:href="#dirArrow" transform="rotate(180) translate(-30 -48)" onmousedown="handlePan(0,1)">
                  <use xlink:href="#rim" fill="#404040">
                        <set attributeName="fill" to="#808080" begin="arrowDown.mouseover" end="arrowDown.mouseout"/>
                  </use>
                  <path fill="none" stroke="white" stroke-width="1.5" d="M0,-3.0v7 M-2.5,-0.5L0,-3.0L2.5,-0.5"/>
                </g>
                <g id="arrowLeft" xlink:href="#dirArrow" transform="rotate(270) translate(-36 17)" onmousedown="handlePan(-1,0)">
                  <use xlink:href="#rim" fill="#404040">
                        <set attributeName="fill" to="#808080" begin="arrowLeft.mouseover" end="arrowLeft.mouseout"/>
                  </use>
                  <path fill="none" stroke="white" stroke-width="1.5" d="M0,-3.0v7 M-2.5,-0.5L0,-3.0L2.5,-0.5"/>
                </g>
        </g>
        <svg viewBox="0 0 15 15" width="100%" height="30px" preserveAspectRatio="xMaxYMin meet">
         <g id="arrow_out" transform="scale(0.3 0.3)">
          <a xlink:href="on__awaiter_8hpp__incl_org.svg" target="_base">
           <rect id="button" ry="5" rx="5" y="6" x="6" height="38" width="38"
                fill="#f2f5e9" fill-opacity="0.5" stroke="#606060" stroke-width="1.0"/>
           <path id="arrow"
             d="M 11.500037,31.436501 C 11.940474,20.09759 22.043105,11.32322 32.158766,21.979434 L 37.068811,17.246167 C 37.068811,17.246167 37.088388,32 37.088388,32 L 22.160133,31.978069 C 22.160133,31.978069 26.997745,27.140456 26.997745,27.140456 C 18.528582,18.264221 13.291696,25.230495 11.500037,31.436501 z"
             style="fill:#404040;"/>
          </a>
         </g>
        </svg>
</svg>
