<?xml version="1.0" encoding="UTF-8" standalone="no"?>
<!DOCTYPE svg PUBLIC "-//W3C//DTD SVG 1.1//EN"
 "http://www.w3.org/Graphics/SVG/1.1/DTD/svg11.dtd">
<!-- Generated by graphviz version 9.0.0 (20230911.1827)
 -->
<!-- Title: include/yaclib/algo/one_shot_event.hpp Pages: 1 -->
<!--zoomable 482 -->

<svg id="main" version="1.1" xmlns="http://www.w3.org/2000/svg" xmlns:xlink="http://www.w3.org/1999/xlink" xml:space="preserve" onload="init(evt)">
<style type="text/css"><![CDATA[
.node, .edge {opacity: 0.7;}
.node.selected, .edge.selected {opacity: 1;}
.edge:hover path { stroke: red; }
.edge:hover polygon { stroke: red; fill: red; }
]]></style>

<defs>
  <circle id="rim" cx="0" cy="0" r="7"/>
  <circle id="rim2" cx="0" cy="0" r="3.5"/>
  <g id="zoomPlus">
    <use xlink:href="#rim" fill="#404040"><set attributeName="fill" to="#808080" begin="zoomplus.mouseover" end="zoomplus.mouseout"/></use>
    <path d="M-4,0h8M0,-4v8" fill="none" stroke="white" stroke-width="1.5" pointer-events="none"/>
  </g>
  <g id="zoomMin">
    <use xlink:href="#rim" fill="#404040"><set attributeName="fill" to="#808080" begin="zoomminus.mouseover" end="zoomminus.mouseout"/></use>
    <path d="M-4,0h8" fill="none" stroke="white" stroke-width="1.5" pointer-events="none"/>
  </g>
  <g id="arrowUp" transform="translate(30 24)">
    <use xlink:href="#rim"/>
    <path pointer-events="none" fill="none" stroke="white" stroke-width="1.5" d="M0,-3.0v7 M-2.5,-0.5L0,-3.0L2.5,-0.5"/>
  </g>
  <g id="arrowRight" transform="rotate(90) translate(36 -43)">
    <use xlink:href="#rim"/>
    <path pointer-events="none" fill="none" stroke="white" stroke-width="1.5" d="M0,-3.0v7 M-2.5,-0.5L0,-3.0L2.5,-0.5"/>
  </g>
  <g id="arrowDown" transform="rotate(180) translate(-30 -48)">
    <use xlink:href="#rim"/>
    <path pointer-events="none" fill="none" stroke="white" stroke-width="1.5" d="M0,-3.0v7 M-2.5,-0.5L0,-3.0L2.5,-0.5"/>
  </g>
  <g id="arrowLeft" transform="rotate(270) translate(-36 17)">
    <use xlink:href="#rim"/>
    <path pointer-events="none" fill="none" stroke="white" stroke-width="1.5" d="M0,-3.0v7 M-2.5,-0.5L0,-3.0L2.5,-0.5"/>
  </g>
  <g id="resetDef">
    <use xlink:href="#rim2" fill="#404040"><set attributeName="fill" to="#808080" begin="reset.mouseover" end="reset.mouseout"/></use>
  </g>
</defs>
<script type="application/ecmascript">
var viewWidth = 1134;
var viewHeight = 482;
var sectionId = 'dynsection-0';
</script>
<script type="application/ecmascript" xlink:href="svg.min.js"/>
<svg id="graph" class="graph">
<g id="viewport">
<title>include/yaclib/algo/one_shot_event.hpp</title>
<!-- Node1 -->
<g id="Node000001" class="node">
<title>Node1</title>
<g id="a_Node000001"><a xlink:title=" ">
<polygon fill="#999999" stroke="#666666" points="493.08,-473.5 387.08,-473.5 387.08,-443 493.08,-443 493.08,-473.5"/>
<text text-anchor="start" x="395.08" y="-460" font-family="Helvetica,sans-Serif" font-size="10.00">include/yaclib/algo</text>
<text text-anchor="middle" x="440.08" y="-448.75" font-family="Helvetica,sans-Serif" font-size="10.00">/one_shot_event.hpp</text>
</a>
</g>
</g>
<!-- Node2 -->
<g id="Node000002" class="node">
<title>Node2</title>
<g id="a_Node000002"><a xlink:href="base__core_8hpp.html" target="_top" xlink:title=" ">
<polygon fill="white" stroke="#666666" points="328.08,-407 240.08,-407 240.08,-376.5 328.08,-376.5 328.08,-407"/>
<text text-anchor="start" x="248.08" y="-393.5" font-family="Helvetica,sans-Serif" font-size="10.00">yaclib/algo/detail</text>
<text text-anchor="middle" x="284.08" y="-382.25" font-family="Helvetica,sans-Serif" font-size="10.00">/base_core.hpp</text>
</a>
</g>
</g>
<!-- Node1&#45;&gt;Node2 -->
<g id="edge1_Node000001_Node000002" class="edge">
<title>Node1&#45;&gt;Node2</title>
<g id="a_edge1_Node000001_Node000002"><a xlink:title=" ">
<path fill="none" stroke="#63b8ff" d="M404.68,-442.61C382.62,-433.49 354,-421.66 330.18,-411.81"/>
<polygon fill="#63b8ff" stroke="#63b8ff" points="331.59,-408.6 321.01,-408.02 328.91,-415.07 331.59,-408.6"/>
</a>
</g>
</g>
<!-- Node10 -->
<g id="Node000010" class="node">
<title>Node10</title>
<g id="a_Node000010"><a xlink:href="ref_8hpp.html" target="_top" xlink:title=" ">
<polygon fill="white" stroke="#666666" points="532.46,-74.5 443.71,-74.5 443.71,-55.25 532.46,-55.25 532.46,-74.5"/>
<text text-anchor="middle" x="488.08" y="-61" font-family="Helvetica,sans-Serif" font-size="10.00">yaclib/util/ref.hpp</text>
</a>
</g>
</g>
<!-- Node1&#45;&gt;Node10 -->
<g id="edge46_Node000001_Node000010" class="edge">
<title>Node1&#45;&gt;Node10</title>
<g id="a_edge46_Node000001_Node000010"><a xlink:title=" ">
<path fill="none" stroke="#63b8ff" d="M432.93,-442.72C421.93,-418.96 402.08,-370.06 402.08,-326.25 402.08,-326.25 402.08,-326.25 402.08,-257.75 402.08,-220.88 402.71,-208.96 421.08,-177 432.68,-156.83 446.13,-160.33 459.08,-141 470.62,-123.79 478.52,-101.32 483.12,-85.46"/>
<polygon fill="#63b8ff" stroke="#63b8ff" points="486.37,-86.84 485.61,-76.27 479.62,-85.01 486.37,-86.84"/>
</a>
</g>
</g>
<!-- Node14 -->
<g id="Node000014" class="node">
<title>Node14</title>
<g id="a_Node000014"><a xlink:href="executor_8hpp.html" target="_top" xlink:title=" ">
<polygon fill="white" stroke="#666666" points="278.33,-268.38 161.83,-268.38 161.83,-249.12 278.33,-249.12 278.33,-268.38"/>
<text text-anchor="middle" x="220.08" y="-254.88" font-family="Helvetica,sans-Serif" font-size="10.00">yaclib/exe/executor.hpp</text>
</a>
</g>
</g>
<!-- Node1&#45;&gt;Node14 -->
<g id="edge26_Node000001_Node000014" class="edge">
<title>Node1&#45;&gt;Node14</title>
<g id="a_edge26_Node000001_Node000014"><a xlink:title=" ">
<path fill="none" stroke="#63b8ff" d="M386.8,-452.8C342.64,-447.21 279.49,-434.73 231.08,-407 195.49,-386.61 182.41,-378.55 167.08,-340.5 162.01,-327.93 161.73,-322.45 167.08,-310 173.05,-296.13 184.93,-284.28 195.94,-275.59"/>
<polygon fill="#63b8ff" stroke="#63b8ff" points="198,-278.41 204,-269.68 193.86,-272.77 198,-278.41"/>
</a>
</g>
</g>
<!-- Node21 -->
<g id="Node000021" class="node">
<title>Node21</title>
<g id="a_Node000021"><a xlink:href="default__event_8hpp.html" target="_top" xlink:title=" ">
<polygon fill="white" stroke="#666666" points="525.83,-407 430.33,-407 430.33,-376.5 525.83,-376.5 525.83,-407"/>
<text text-anchor="start" x="438.33" y="-393.5" font-family="Helvetica,sans-Serif" font-size="10.00">yaclib/util/detail</text>
<text text-anchor="middle" x="478.08" y="-382.25" font-family="Helvetica,sans-Serif" font-size="10.00">/default_event.hpp</text>
</a>
</g>
</g>
<!-- Node1&#45;&gt;Node21 -->
<g id="edge27_Node000001_Node000021" class="edge">
<title>Node1&#45;&gt;Node21</title>
<g id="a_edge27_Node000001_Node000021"><a xlink:title=" ">
<path fill="none" stroke="#63b8ff" d="M448.7,-442.61C453.12,-435.11 458.63,-425.77 463.67,-417.21"/>
<polygon fill="#63b8ff" stroke="#63b8ff" points="466.66,-419.02 468.72,-408.63 460.63,-415.47 466.66,-419.02"/>
</a>
</g>
</g>
<!-- Node22 -->
<g id="Node000022" class="node">
<title>Node22</title>
<g id="a_Node000022"><a xlink:href="mutex__event_8hpp.html" target="_top" xlink:title=" ">
<polygon fill="white" stroke="#666666" points="632.33,-340.5 539.83,-340.5 539.83,-310 632.33,-310 632.33,-340.5"/>
<text text-anchor="start" x="547.83" y="-327" font-family="Helvetica,sans-Serif" font-size="10.00">yaclib/util/detail</text>
<text text-anchor="middle" x="586.08" y="-315.75" font-family="Helvetica,sans-Serif" font-size="10.00">/mutex_event.hpp</text>
</a>
</g>
</g>
<!-- Node1&#45;&gt;Node22 -->
<g id="edge34_Node000001_Node000022" class="edge">
<title>Node1&#45;&gt;Node22</title>
<g id="a_edge34_Node000001_Node000022"><a xlink:title=" ">
<path fill="none" stroke="#63b8ff" d="M478.12,-442.65C496.75,-434.2 518.65,-422.21 535.08,-407 552.21,-391.14 565.92,-368.3 574.8,-350.96"/>
<polygon fill="#63b8ff" stroke="#63b8ff" points="577.76,-352.86 579.02,-342.34 571.48,-349.78 577.76,-352.86"/>
</a>
</g>
</g>
<!-- Node26 -->
<g id="Node000026" class="node">
<title>Node26</title>
<g id="a_Node000026"><a xlink:href="helper_8hpp.html" target="_top" xlink:title=" ">
<polygon fill="white" stroke="#666666" points="974.96,-334.88 871.21,-334.88 871.21,-315.62 974.96,-315.62 974.96,-334.88"/>
<text text-anchor="middle" x="923.08" y="-321.38" font-family="Helvetica,sans-Serif" font-size="10.00">yaclib/util/helper.hpp</text>
</a>
</g>
</g>
<!-- Node1&#45;&gt;Node26 -->
<g id="edge35_Node000001_Node000026" class="edge">
<title>Node1&#45;&gt;Node26</title>
<g id="a_edge35_Node000001_Node000026"><a xlink:title=" ">
<path fill="none" stroke="#63b8ff" d="M493.15,-442.86C588.94,-416.88 789.04,-362.61 878.36,-338.38"/>
<polygon fill="#63b8ff" stroke="#63b8ff" points="879.25,-341.76 887.99,-335.77 877.42,-335.01 879.25,-341.76"/>
</a>
</g>
</g>
<!-- Node3 -->
<g id="Node000003" class="node">
<title>Node3</title>
<g id="a_Node000003"><a xlink:href="inline__core_8hpp.html" target="_top" xlink:title=" ">
<polygon fill="white" stroke="#666666" points="144.08,-274 56.08,-274 56.08,-243.5 144.08,-243.5 144.08,-274"/>
<text text-anchor="start" x="64.08" y="-260.5" font-family="Helvetica,sans-Serif" font-size="10.00">yaclib/algo/detail</text>
<text text-anchor="middle" x="100.08" y="-249.25" font-family="Helvetica,sans-Serif" font-size="10.00">/inline_core.hpp</text>
</a>
</g>
</g>
<!-- Node2&#45;&gt;Node3 -->
<g id="edge2_Node000002_Node000003" class="edge">
<title>Node2&#45;&gt;Node3</title>
<g id="a_edge2_Node000002_Node000003"><a xlink:title=" ">
<path fill="none" stroke="#63b8ff" d="M239.79,-377.34C216.72,-369.02 188.86,-356.78 167.08,-340.5 146.03,-324.76 127.43,-301.12 115.2,-283.47"/>
<polygon fill="#63b8ff" stroke="#63b8ff" points="118.41,-281.98 109.93,-275.63 112.6,-285.88 118.41,-281.98"/>
</a>
</g>
</g>
<!-- Node2&#45;&gt;Node14 -->
<g id="edge14_Node000002_Node000014" class="edge">
<title>Node2&#45;&gt;Node14</title>
<g id="a_edge14_Node000002_Node000014"><a xlink:title=" ">
<path fill="none" stroke="#63b8ff" d="M276.99,-376.23C265.42,-352.55 242.49,-305.62 229.55,-279.13"/>
<polygon fill="#63b8ff" stroke="#63b8ff" points="232.73,-277.66 225.19,-270.21 226.44,-280.73 232.73,-277.66"/>
</a>
</g>
</g>
<!-- Node17 -->
<g id="Node000017" class="node">
<title>Node17</title>
<g id="a_Node000017"><a xlink:href="inline_8hpp.html" target="_top" xlink:title=" ">
<polygon fill="white" stroke="#666666" points="374.21,-334.88 271.96,-334.88 271.96,-315.62 374.21,-315.62 374.21,-334.88"/>
<text text-anchor="middle" x="323.08" y="-321.38" font-family="Helvetica,sans-Serif" font-size="10.00">yaclib/exe/inline.hpp</text>
</a>
</g>
</g>
<!-- Node2&#45;&gt;Node17 -->
<g id="edge21_Node000002_Node000017" class="edge">
<title>Node2&#45;&gt;Node17</title>
<g id="a_edge21_Node000002_Node000017"><a xlink:title=" ">
<path fill="none" stroke="#63b8ff" d="M292.93,-376.11C298.54,-366.83 305.85,-354.75 311.87,-344.8"/>
<polygon fill="#63b8ff" stroke="#63b8ff" points="314.78,-346.74 316.96,-336.37 308.79,-343.11 314.78,-346.74"/>
</a>
</g>
</g>
<!-- Node19 -->
<g id="Node000019" class="node">
<title>Node19</title>
<g id="a_Node000019"><a xlink:title=" ">
<polygon fill="#e0e0e0" stroke="#999999" points="215.71,-334.88 176.46,-334.88 176.46,-315.62 215.71,-315.62 215.71,-334.88"/>
<text text-anchor="middle" x="196.08" y="-321.38" font-family="Helvetica,sans-Serif" font-size="10.00">limits</text>
</a>
</g>
</g>
<!-- Node2&#45;&gt;Node19 -->
<g id="edge24_Node000002_Node000019" class="edge">
<title>Node2&#45;&gt;Node19</title>
<g id="a_edge24_Node000002_Node000019"><a xlink:title=" ">
<path fill="none" stroke="#63b8ff" d="M264.11,-376.11C250.19,-365.91 231.63,-352.3 217.41,-341.88"/>
<polygon fill="#63b8ff" stroke="#63b8ff" points="219.73,-339.24 209.59,-336.15 215.59,-344.89 219.73,-339.24"/>
</a>
</g>
</g>
<!-- Node20 -->
<g id="Node000020" class="node">
<title>Node20</title>
<g id="a_Node000020"><a xlink:title=" ">
<polygon fill="#e0e0e0" stroke="#999999" points="888.96,-201.88 797.21,-201.88 797.21,-182.62 888.96,-182.62 888.96,-201.88"/>
<text text-anchor="middle" x="843.08" y="-188.38" font-family="Helvetica,sans-Serif" font-size="10.00">yaclib_std/atomic</text>
</a>
</g>
</g>
<!-- Node2&#45;&gt;Node20 -->
<g id="edge25_Node000002_Node000020" class="edge">
<title>Node2&#45;&gt;Node20</title>
<g id="a_edge25_Node000002_Node000020"><a xlink:title=" ">
<path fill="none" stroke="#63b8ff" d="M328.43,-386.21C410.6,-377.51 583.38,-357.82 641.08,-340.5 707.06,-320.69 727.51,-317.3 781.08,-274 802.82,-256.43 821.37,-229.74 832.36,-211.92"/>
<polygon fill="#63b8ff" stroke="#63b8ff" points="835.31,-213.8 837.42,-203.42 829.3,-210.22 835.31,-213.8"/>
</a>
</g>
</g>
<!-- Node4 -->
<g id="Node000004" class="node">
<title>Node4</title>
<g id="a_Node000004"><a xlink:title=" ">
<polygon fill="#e0e0e0" stroke="#999999" points="517.71,-201.88 430.46,-201.88 430.46,-182.62 517.71,-182.62 517.71,-201.88"/>
<text text-anchor="middle" x="474.08" y="-188.38" font-family="Helvetica,sans-Serif" font-size="10.00">yaclib/config.hpp</text>
</a>
</g>
</g>
<!-- Node3&#45;&gt;Node4 -->
<g id="edge3_Node000003_Node000004" class="edge">
<title>Node3&#45;&gt;Node4</title>
<g id="a_edge3_Node000003_Node000004"><a xlink:title=" ">
<path fill="none" stroke="#63b8ff" d="M144.53,-245.43C147.42,-244.74 150.28,-244.09 153.08,-243.5 245.74,-223.85 354.95,-208.36 419.13,-200.02"/>
<polygon fill="#63b8ff" stroke="#63b8ff" points="419.22,-203.54 428.69,-198.79 418.33,-196.6 419.22,-203.54"/>
</a>
</g>
</g>
<!-- Node5 -->
<g id="Node000005" class="node">
<title>Node5</title>
<g id="a_Node000005"><a xlink:href="job_8hpp.html" target="_top" xlink:title=" ">
<polygon fill="white" stroke="#666666" points="174.33,-201.88 81.83,-201.88 81.83,-182.62 174.33,-182.62 174.33,-201.88"/>
<text text-anchor="middle" x="128.08" y="-188.38" font-family="Helvetica,sans-Serif" font-size="10.00">yaclib/exe/job.hpp</text>
</a>
</g>
</g>
<!-- Node3&#45;&gt;Node5 -->
<g id="edge4_Node000003_Node000005" class="edge">
<title>Node3&#45;&gt;Node5</title>
<g id="a_edge4_Node000003_Node000005"><a xlink:title=" ">
<path fill="none" stroke="#63b8ff" d="M106.43,-243.11C110.38,-234.03 115.49,-222.26 119.75,-212.43"/>
<polygon fill="#63b8ff" stroke="#63b8ff" points="122.88,-214.03 123.65,-203.46 116.46,-211.24 122.88,-214.03"/>
</a>
</g>
</g>
<!-- Node6 -->
<g id="Node000006" class="node">
<title>Node6</title>
<g id="a_Node000006"><a xlink:href="log_8hpp.html" target="_top" xlink:title=" ">
<polygon fill="white" stroke="#666666" points="165.33,-74.5 90.83,-74.5 90.83,-55.25 165.33,-55.25 165.33,-74.5"/>
<text text-anchor="middle" x="128.08" y="-61" font-family="Helvetica,sans-Serif" font-size="10.00">yaclib/log.hpp</text>
</a>
</g>
</g>
<!-- Node3&#45;&gt;Node6 -->
<g id="edge13_Node000003_Node000006" class="edge">
<title>Node3&#45;&gt;Node6</title>
<g id="a_edge13_Node000003_Node000006"><a xlink:title=" ">
<path fill="none" stroke="#63b8ff" d="M78.85,-243.01C42.78,-216.12 -23.53,-157.55 9.08,-110.5 24.9,-87.67 53.93,-76.5 79.36,-71.05"/>
<polygon fill="#63b8ff" stroke="#63b8ff" points="79.69,-74.55 88.87,-69.26 78.4,-67.67 79.69,-74.55"/>
</a>
</g>
</g>
<!-- Node5&#45;&gt;Node6 -->
<g id="edge5_Node000005_Node000006" class="edge">
<title>Node5&#45;&gt;Node6</title>
<g id="a_edge5_Node000005_Node000006"><a xlink:title=" ">
<path fill="none" stroke="#63b8ff" d="M128.08,-182.23C128.08,-162.26 128.08,-113.89 128.08,-86.21"/>
<polygon fill="#63b8ff" stroke="#63b8ff" points="131.58,-86.32 128.08,-76.32 124.58,-86.32 131.58,-86.32"/>
</a>
</g>
</g>
<!-- Node8 -->
<g id="Node000008" class="node">
<title>Node8</title>
<g id="a_Node000008"><a xlink:href="node_8hpp.html" target="_top" xlink:title=" ">
<polygon fill="white" stroke="#666666" points="100.46,-141 17.71,-141 17.71,-110.5 100.46,-110.5 100.46,-141"/>
<text text-anchor="start" x="25.71" y="-127.5" font-family="Helvetica,sans-Serif" font-size="10.00">yaclib/util/detail</text>
<text text-anchor="middle" x="59.08" y="-116.25" font-family="Helvetica,sans-Serif" font-size="10.00">/node.hpp</text>
</a>
</g>
</g>
<!-- Node5&#45;&gt;Node8 -->
<g id="edge7_Node000005_Node000008" class="edge">
<title>Node5&#45;&gt;Node8</title>
<g id="a_edge7_Node000005_Node000008"><a xlink:title=" ">
<path fill="none" stroke="#63b8ff" d="M118.49,-182.28C109.28,-173.68 95.01,-160.33 82.76,-148.88"/>
<polygon fill="#63b8ff" stroke="#63b8ff" points="85.49,-146.65 75.8,-142.37 80.71,-151.76 85.49,-146.65"/>
</a>
</g>
</g>
<!-- Node9 -->
<g id="Node000009" class="node">
<title>Node9</title>
<g id="a_Node000009"><a xlink:href="func_8hpp.html" target="_top" xlink:title=" ">
<polygon fill="white" stroke="#666666" points="422.21,-135.38 325.96,-135.38 325.96,-116.12 422.21,-116.12 422.21,-135.38"/>
<text text-anchor="middle" x="374.08" y="-121.88" font-family="Helvetica,sans-Serif" font-size="10.00">yaclib/util/func.hpp</text>
</a>
</g>
</g>
<!-- Node5&#45;&gt;Node9 -->
<g id="edge8_Node000005_Node000009" class="edge">
<title>Node5&#45;&gt;Node9</title>
<g id="a_edge8_Node000005_Node000009"><a xlink:title=" ">
<path fill="none" stroke="#63b8ff" d="M162.8,-182.15C206.21,-170.77 280.61,-151.26 328.54,-138.69"/>
<polygon fill="#63b8ff" stroke="#63b8ff" points="329.28,-142.11 338.07,-136.19 327.51,-135.34 329.28,-142.11"/>
</a>
</g>
</g>
<!-- Node7 -->
<g id="Node000007" class="node">
<title>Node7</title>
<g id="a_Node000007"><a xlink:title=" ">
<polygon fill="#e0e0e0" stroke="#999999" points="160.83,-19.25 95.33,-19.25 95.33,0 160.83,0 160.83,-19.25"/>
<text text-anchor="middle" x="128.08" y="-5.75" font-family="Helvetica,sans-Serif" font-size="10.00">string_view</text>
</a>
</g>
</g>
<!-- Node6&#45;&gt;Node7 -->
<g id="edge6_Node000006_Node000007" class="edge">
<title>Node6&#45;&gt;Node7</title>
<g id="a_edge6_Node000006_Node000007"><a xlink:title=" ">
<path fill="none" stroke="#63b8ff" d="M128.08,-55.08C128.08,-48.57 128.08,-39.42 128.08,-31.12"/>
<polygon fill="#63b8ff" stroke="#63b8ff" points="131.58,-31.12 128.08,-21.12 124.58,-31.12 131.58,-31.12"/>
</a>
</g>
</g>
<!-- Node9&#45;&gt;Node10 -->
<g id="edge9_Node000009_Node000010" class="edge">
<title>Node9&#45;&gt;Node10</title>
<g id="a_edge9_Node000009_Node000010"><a xlink:title=" ">
<path fill="none" stroke="#63b8ff" d="M391.39,-115.81C409.72,-106.34 438.92,-91.26 460.44,-80.15"/>
<polygon fill="#63b8ff" stroke="#63b8ff" points="461.98,-83.29 469.26,-75.6 458.77,-77.07 461.98,-83.29"/>
</a>
</g>
</g>
<!-- Node12 -->
<g id="Node000012" class="node">
<title>Node12</title>
<g id="a_Node000012"><a xlink:title=" ">
<polygon fill="#e0e0e0" stroke="#999999" points="366.58,-74.5 305.58,-74.5 305.58,-55.25 366.58,-55.25 366.58,-74.5"/>
<text text-anchor="middle" x="336.08" y="-61" font-family="Helvetica,sans-Serif" font-size="10.00">type_traits</text>
</a>
</g>
</g>
<!-- Node9&#45;&gt;Node12 -->
<g id="edge11_Node000009_Node000012" class="edge">
<title>Node9&#45;&gt;Node12</title>
<g id="a_edge11_Node000009_Node000012"><a xlink:title=" ">
<path fill="none" stroke="#63b8ff" d="M368.31,-115.81C362.95,-107.51 354.81,-94.89 348.05,-84.42"/>
<polygon fill="#63b8ff" stroke="#63b8ff" points="351.09,-82.68 342.73,-76.17 345.21,-86.47 351.09,-82.68"/>
</a>
</g>
</g>
<!-- Node13 -->
<g id="Node000013" class="node">
<title>Node13</title>
<g id="a_Node000013"><a xlink:title=" ">
<polygon fill="#e0e0e0" stroke="#999999" points="758.33,-74.5 719.83,-74.5 719.83,-55.25 758.33,-55.25 758.33,-74.5"/>
<text text-anchor="middle" x="739.08" y="-61" font-family="Helvetica,sans-Serif" font-size="10.00">utility</text>
</a>
</g>
</g>
<!-- Node9&#45;&gt;Node13 -->
<g id="edge12_Node000009_Node000013" class="edge">
<title>Node9&#45;&gt;Node13</title>
<g id="a_edge12_Node000009_Node000013"><a xlink:title=" ">
<path fill="none" stroke="#63b8ff" d="M422.55,-116.93C498.88,-104.62 644.94,-81.06 708.39,-70.83"/>
<polygon fill="#63b8ff" stroke="#63b8ff" points="708.78,-74.31 718.09,-69.26 707.66,-67.4 708.78,-74.31"/>
</a>
</g>
</g>
<!-- Node11 -->
<g id="Node000011" class="node">
<title>Node11</title>
<g id="a_Node000011"><a xlink:title=" ">
<polygon fill="#e0e0e0" stroke="#999999" points="979.21,-19.25 930.96,-19.25 930.96,0 979.21,0 979.21,-19.25"/>
<text text-anchor="middle" x="955.08" y="-5.75" font-family="Helvetica,sans-Serif" font-size="10.00">cstddef</text>
</a>
</g>
</g>
<!-- Node10&#45;&gt;Node11 -->
<g id="edge10_Node000010_Node000011" class="edge">
<title>Node10&#45;&gt;Node11</title>
<g id="a_edge10_Node000010_Node000011"><a xlink:title=" ">
<path fill="none" stroke="#63b8ff" d="M532.86,-58.77C625.21,-48.24 835.21,-24.29 919.29,-14.71"/>
<polygon fill="#63b8ff" stroke="#63b8ff" points="919.49,-18.21 929.02,-13.6 918.69,-11.25 919.49,-18.21"/>
</a>
</g>
</g>
<!-- Node14&#45;&gt;Node5 -->
<g id="edge15_Node000014_Node000005" class="edge">
<title>Node14&#45;&gt;Node5</title>
<g id="a_edge15_Node000014_Node000005"><a xlink:title=" ">
<path fill="none" stroke="#63b8ff" d="M207.29,-248.78C192.61,-238.49 168.27,-221.43 150.44,-208.93"/>
<polygon fill="#63b8ff" stroke="#63b8ff" points="152.5,-206.09 142.3,-203.22 148.48,-211.83 152.5,-206.09"/>
</a>
</g>
</g>
<!-- Node15 -->
<g id="Node000015" class="node">
<title>Node15</title>
<g id="a_Node000015"><a xlink:href="intrusive__ptr_8hpp.html" target="_top" xlink:title=" ">
<polygon fill="white" stroke="#666666" points="346.21,-207.5 249.96,-207.5 249.96,-177 346.21,-177 346.21,-207.5"/>
<text text-anchor="start" x="257.96" y="-194" font-family="Helvetica,sans-Serif" font-size="10.00">yaclib/util/intrusive</text>
<text text-anchor="middle" x="298.08" y="-182.75" font-family="Helvetica,sans-Serif" font-size="10.00">_ptr.hpp</text>
</a>
</g>
</g>
<!-- Node14&#45;&gt;Node15 -->
<g id="edge16_Node000014_Node000015" class="edge">
<title>Node14&#45;&gt;Node15</title>
<g id="a_edge16_Node000014_Node000015"><a xlink:title=" ">
<path fill="none" stroke="#63b8ff" d="M230.93,-248.78C241.43,-240.09 257.78,-226.58 271.71,-215.05"/>
<polygon fill="#63b8ff" stroke="#63b8ff" points="273.79,-217.88 279.27,-208.81 269.33,-212.48 273.79,-217.88"/>
</a>
</g>
</g>
<!-- Node15&#45;&gt;Node10 -->
<g id="edge17_Node000015_Node000010" class="edge">
<title>Node15&#45;&gt;Node10</title>
<g id="a_edge17_Node000015_Node000010"><a xlink:title=" ">
<path fill="none" stroke="#63b8ff" d="M346.54,-180.03C373.29,-172.17 406.06,-159.68 431.08,-141 451.53,-125.73 468.2,-101.21 478.12,-84.36"/>
<polygon fill="#63b8ff" stroke="#63b8ff" points="481.04,-86.32 482.9,-75.89 474.94,-82.88 481.04,-86.32"/>
</a>
</g>
</g>
<!-- Node15&#45;&gt;Node12 -->
<g id="edge18_Node000015_Node000012" class="edge">
<title>Node15&#45;&gt;Node12</title>
<g id="a_edge18_Node000015_Node000012"><a xlink:title=" ">
<path fill="none" stroke="#63b8ff" d="M300.71,-176.75C303.85,-160.43 309.63,-133.22 317.08,-110.5 319.83,-102.1 323.52,-93.1 326.92,-85.38"/>
<polygon fill="#63b8ff" stroke="#63b8ff" points="330.09,-86.86 331.05,-76.31 323.72,-83.95 330.09,-86.86"/>
</a>
</g>
</g>
<!-- Node16 -->
<g id="Node000016" class="node">
<title>Node16</title>
<g id="a_Node000016"><a xlink:href="intrusive__ptr__impl_8hpp.html" target="_top" xlink:title=" ">
<polygon fill="white" stroke="#666666" points="269.83,-141 156.33,-141 156.33,-110.5 269.83,-110.5 269.83,-141"/>
<text text-anchor="start" x="164.33" y="-127.5" font-family="Helvetica,sans-Serif" font-size="10.00">yaclib/util/detail</text>
<text text-anchor="middle" x="213.08" y="-116.25" font-family="Helvetica,sans-Serif" font-size="10.00">/intrusive_ptr_impl.hpp</text>
</a>
</g>
</g>
<!-- Node15&#45;&gt;Node16 -->
<g id="edge19_Node000015_Node000016" class="edge">
<title>Node15&#45;&gt;Node16</title>
<g id="a_edge19_Node000015_Node000016"><a xlink:title=" ">
<path fill="none" stroke="#63b8ff" d="M278.79,-176.61C267.71,-168.2 253.58,-157.48 241.27,-148.14"/>
<polygon fill="#63b8ff" stroke="#63b8ff" points="243.58,-145.5 233.5,-142.24 239.35,-151.08 243.58,-145.5"/>
</a>
</g>
</g>
<!-- Node16&#45;&gt;Node6 -->
<g id="edge20_Node000016_Node000006" class="edge">
<title>Node16&#45;&gt;Node6</title>
<g id="a_edge20_Node000016_Node000006"><a xlink:title=" ">
<path fill="none" stroke="#63b8ff" d="M192.07,-110.2C179.38,-101.4 163.21,-90.21 150.31,-81.27"/>
<polygon fill="#63b8ff" stroke="#63b8ff" points="152.64,-78.63 142.43,-75.81 148.66,-84.38 152.64,-78.63"/>
</a>
</g>
</g>
<!-- Node17&#45;&gt;Node14 -->
<g id="edge22_Node000017_Node000014" class="edge">
<title>Node17&#45;&gt;Node14</title>
<g id="a_edge22_Node000017_Node000014"><a xlink:title=" ">
<path fill="none" stroke="#63b8ff" d="M308.76,-315.28C292.1,-304.85 264.31,-287.45 244.28,-274.9"/>
<polygon fill="#63b8ff" stroke="#63b8ff" points="246.23,-271.99 235.9,-269.65 242.51,-277.93 246.23,-271.99"/>
</a>
</g>
</g>
<!-- Node18 -->
<g id="Node000018" class="node">
<title>Node18</title>
<g id="a_Node000018"><a xlink:href="fwd_8hpp.html" target="_top" xlink:title=" ">
<polygon fill="white" stroke="#666666" points="373.83,-268.38 296.33,-268.38 296.33,-249.12 373.83,-249.12 373.83,-268.38"/>
<text text-anchor="middle" x="335.08" y="-254.88" font-family="Helvetica,sans-Serif" font-size="10.00">yaclib/fwd.hpp</text>
</a>
</g>
</g>
<!-- Node17&#45;&gt;Node18 -->
<g id="edge23_Node000017_Node000018" class="edge">
<title>Node17&#45;&gt;Node18</title>
<g id="a_edge23_Node000017_Node000018"><a xlink:title=" ">
<path fill="none" stroke="#63b8ff" d="M324.75,-315.28C326.45,-306.14 329.15,-291.64 331.36,-279.75"/>
<polygon fill="#63b8ff" stroke="#63b8ff" points="334.76,-280.6 333.15,-270.13 327.88,-279.32 334.76,-280.6"/>
</a>
</g>
</g>
<!-- Node21&#45;&gt;Node4 -->
<g id="edge28_Node000021_Node000004" class="edge">
<title>Node21&#45;&gt;Node4</title>
<g id="a_edge28_Node000021_Node000004"><a xlink:title=" ">
<path fill="none" stroke="#63b8ff" d="M473.53,-376.1C465.9,-349.6 452,-291.96 459.08,-243.5 460.58,-233.23 463.72,-222.14 466.74,-212.99"/>
<polygon fill="#63b8ff" stroke="#63b8ff" points="469.97,-214.35 469.99,-203.76 463.37,-212.03 469.97,-214.35"/>
</a>
</g>
</g>
<!-- Node21&#45;&gt;Node22 -->
<g id="edge29_Node000021_Node000022" class="edge">
<title>Node21&#45;&gt;Node22</title>
<g id="a_edge29_Node000021_Node000022"><a xlink:title=" ">
<path fill="none" stroke="#63b8ff" d="M502.59,-376.11C517.22,-367.37 536.03,-356.14 552.09,-346.55"/>
<polygon fill="#63b8ff" stroke="#63b8ff" points="553.58,-349.74 560.37,-341.6 549.99,-343.73 553.58,-349.74"/>
</a>
</g>
</g>
<!-- Node22&#45;&gt;Node10 -->
<g id="edge30_Node000022_Node000010" class="edge">
<title>Node22&#45;&gt;Node10</title>
<g id="a_edge30_Node000022_Node000010"><a xlink:title=" ">
<path fill="none" stroke="#63b8ff" d="M632.42,-311.33C679.02,-298.12 744.5,-278.86 748.08,-274 756.12,-263.09 754.41,-255.49 748.08,-243.5 700.99,-154.3 586.71,-101.41 526.56,-78.82"/>
<polygon fill="#63b8ff" stroke="#63b8ff" points="528,-75.62 517.41,-75.48 525.6,-82.2 528,-75.62"/>
</a>
</g>
</g>
<!-- Node23 -->
<g id="Node000023" class="node">
<title>Node23</title>
<g id="a_Node000023"><a xlink:title=" ">
<polygon fill="#e0e0e0" stroke="#999999" points="619.71,-268.38 574.46,-268.38 574.46,-249.12 619.71,-249.12 619.71,-268.38"/>
<text text-anchor="middle" x="597.08" y="-254.88" font-family="Helvetica,sans-Serif" font-size="10.00">chrono</text>
</a>
</g>
</g>
<!-- Node22&#45;&gt;Node23 -->
<g id="edge31_Node000022_Node000023" class="edge">
<title>Node22&#45;&gt;Node23</title>
<g id="a_edge31_Node000022_Node000023"><a xlink:title=" ">
<path fill="none" stroke="#63b8ff" d="M588.58,-309.61C590.08,-300.83 592,-289.52 593.64,-279.9"/>
<polygon fill="#63b8ff" stroke="#63b8ff" points="597.09,-280.51 595.32,-270.06 590.19,-279.33 597.09,-280.51"/>
</a>
</g>
</g>
<!-- Node24 -->
<g id="Node000024" class="node">
<title>Node24</title>
<g id="a_Node000024"><a xlink:title=" ">
<polygon fill="#e0e0e0" stroke="#999999" points="738.83,-274 637.33,-274 637.33,-243.5 738.83,-243.5 738.83,-274"/>
<text text-anchor="start" x="645.33" y="-260.5" font-family="Helvetica,sans-Serif" font-size="10.00">yaclib_std/condition</text>
<text text-anchor="middle" x="688.08" y="-249.25" font-family="Helvetica,sans-Serif" font-size="10.00">_variable</text>
</a>
</g>
</g>
<!-- Node22&#45;&gt;Node24 -->
<g id="edge32_Node000022_Node000024" class="edge">
<title>Node22&#45;&gt;Node24</title>
<g id="a_edge32_Node000022_Node000024"><a xlink:title=" ">
<path fill="none" stroke="#63b8ff" d="M609.23,-309.61C622.92,-300.95 640.48,-289.85 655.55,-280.32"/>
<polygon fill="#63b8ff" stroke="#63b8ff" points="657.17,-283.44 663.75,-275.14 653.43,-277.52 657.17,-283.44"/>
</a>
</g>
</g>
<!-- Node25 -->
<g id="Node000025" class="node">
<title>Node25</title>
<g id="a_Node000025"><a xlink:title=" ">
<polygon fill="#e0e0e0" stroke="#999999" points="556.46,-268.38 467.71,-268.38 467.71,-249.12 556.46,-249.12 556.46,-268.38"/>
<text text-anchor="middle" x="512.08" y="-254.88" font-family="Helvetica,sans-Serif" font-size="10.00">yaclib_std/mutex</text>
</a>
</g>
</g>
<!-- Node22&#45;&gt;Node25 -->
<g id="edge33_Node000022_Node000025" class="edge">
<title>Node22&#45;&gt;Node25</title>
<g id="a_edge33_Node000022_Node000025"><a xlink:title=" ">
<path fill="none" stroke="#63b8ff" d="M569.29,-309.61C557.85,-299.64 542.69,-286.43 530.85,-276.11"/>
<polygon fill="#63b8ff" stroke="#63b8ff" points="533.18,-273.5 523.34,-269.57 528.58,-278.78 533.18,-273.5"/>
</a>
</g>
</g>
<!-- Node26&#45;&gt;Node11 -->
<g id="edge45_Node000026_Node000011" class="edge">
<title>Node26&#45;&gt;Node11</title>
<g id="a_edge45_Node000026_Node000011"><a xlink:title=" ">
<path fill="none" stroke="#63b8ff" d="M975.38,-323.6C1016.24,-320.21 1071.55,-308.84 1105.08,-274 1130.65,-247.44 1124.08,-230.12 1124.08,-193.25 1124.08,-193.25 1124.08,-193.25 1124.08,-124.75 1124.08,-60.87 1040.12,-30.34 990.55,-17.89"/>
<polygon fill="#63b8ff" stroke="#63b8ff" points="991.67,-14.55 981.13,-15.65 990.05,-21.36 991.67,-14.55"/>
</a>
</g>
</g>
<!-- Node26&#45;&gt;Node15 -->
<g id="edge44_Node000026_Node000015" class="edge">
<title>Node26&#45;&gt;Node15</title>
<g id="a_edge44_Node000026_Node000015"><a xlink:title=" ">
<path fill="none" stroke="#63b8ff" d="M907.81,-315.13C878.17,-297.9 810.3,-260.79 748.08,-243.5 607.2,-204.36 566.37,-223.91 421.08,-207.5 400.45,-205.17 377.88,-202.57 357.77,-200.23"/>
<polygon fill="#63b8ff" stroke="#63b8ff" points="358.4,-196.78 348.06,-199.11 357.59,-203.74 358.4,-196.78"/>
</a>
</g>
</g>
<!-- Node27 -->
<g id="Node000027" class="node">
<title>Node27</title>
<g id="a_Node000027"><a xlink:href="atomic__counter_8hpp.html" target="_top" xlink:title=" ">
<polygon fill="white" stroke="#666666" points="974.96,-274 871.21,-274 871.21,-243.5 974.96,-243.5 974.96,-274"/>
<text text-anchor="start" x="879.21" y="-260.5" font-family="Helvetica,sans-Serif" font-size="10.00">yaclib/util/detail</text>
<text text-anchor="middle" x="923.08" y="-249.25" font-family="Helvetica,sans-Serif" font-size="10.00">/atomic_counter.hpp</text>
</a>
</g>
</g>
<!-- Node26&#45;&gt;Node27 -->
<g id="edge36_Node000026_Node000027" class="edge">
<title>Node26&#45;&gt;Node27</title>
<g id="a_edge36_Node000026_Node000027"><a xlink:title=" ">
<path fill="none" stroke="#63b8ff" d="M923.08,-315.28C923.08,-307.54 923.08,-295.95 923.08,-285.37"/>
<polygon fill="#63b8ff" stroke="#63b8ff" points="926.58,-285.61 923.08,-275.61 919.58,-285.61 926.58,-285.61"/>
</a>
</g>
</g>
<!-- Node29 -->
<g id="Node000029" class="node">
<title>Node29</title>
<g id="a_Node000029"><a xlink:href="unique__counter_8hpp.html" target="_top" xlink:title=" ">
<polygon fill="white" stroke="#666666" points="1095.58,-274 992.58,-274 992.58,-243.5 1095.58,-243.5 1095.58,-274"/>
<text text-anchor="start" x="1000.58" y="-260.5" font-family="Helvetica,sans-Serif" font-size="10.00">yaclib/util/detail</text>
<text text-anchor="middle" x="1044.08" y="-249.25" font-family="Helvetica,sans-Serif" font-size="10.00">/unique_counter.hpp</text>
</a>
</g>
</g>
<!-- Node26&#45;&gt;Node29 -->
<g id="edge42_Node000026_Node000029" class="edge">
<title>Node26&#45;&gt;Node29</title>
<g id="a_edge42_Node000026_Node000029"><a xlink:title=" ">
<path fill="none" stroke="#63b8ff" d="M940.16,-315.15C957.37,-305.97 984.48,-291.52 1006.7,-279.68"/>
<polygon fill="#63b8ff" stroke="#63b8ff" points="1008.32,-282.78 1015.49,-274.99 1005.02,-276.6 1008.32,-282.78"/>
</a>
</g>
</g>
<!-- Node27&#45;&gt;Node4 -->
<g id="edge37_Node000027_Node000004" class="edge">
<title>Node27&#45;&gt;Node4</title>
<g id="a_edge37_Node000027_Node000004"><a xlink:title=" ">
<path fill="none" stroke="#63b8ff" d="M871.14,-250.29C785.86,-238.04 616.94,-213.77 529.47,-201.21"/>
<polygon fill="#63b8ff" stroke="#63b8ff" points="530.09,-197.76 519.69,-199.8 529.09,-204.69 530.09,-197.76"/>
</a>
</g>
</g>
<!-- Node27&#45;&gt;Node11 -->
<g id="edge39_Node000027_Node000011" class="edge">
<title>Node27&#45;&gt;Node11</title>
<g id="a_edge39_Node000027_Node000011"><a xlink:title=" ">
<path fill="none" stroke="#63b8ff" d="M924.99,-243.03C930.45,-200.87 946.16,-79.55 952.44,-31.03"/>
<polygon fill="#63b8ff" stroke="#63b8ff" points="955.91,-31.51 953.72,-21.14 948.96,-30.61 955.91,-31.51"/>
</a>
</g>
</g>
<!-- Node27&#45;&gt;Node13 -->
<g id="edge40_Node000027_Node000013" class="edge">
<title>Node27&#45;&gt;Node13</title>
<g id="a_edge40_Node000027_Node000013"><a xlink:title=" ">
<path fill="none" stroke="#63b8ff" d="M921.45,-243.05C918.91,-225.81 912.7,-197.03 898.08,-177 864.16,-130.53 804.71,-96.6 768.91,-79.16"/>
<polygon fill="#63b8ff" stroke="#63b8ff" points="770.51,-76.05 759.98,-74.93 767.52,-82.37 770.51,-76.05"/>
</a>
</g>
</g>
<!-- Node27&#45;&gt;Node20 -->
<g id="edge41_Node000027_Node000020" class="edge">
<title>Node27&#45;&gt;Node20</title>
<g id="a_edge41_Node000027_Node000020"><a xlink:title=" ">
<path fill="none" stroke="#63b8ff" d="M904.93,-243.11C892.31,-232.94 875.52,-219.41 862.62,-209"/>
<polygon fill="#63b8ff" stroke="#63b8ff" points="865.18,-206.57 855.2,-203.02 860.79,-212.02 865.18,-206.57"/>
</a>
</g>
</g>
<!-- Node28 -->
<g id="Node000028" class="node">
<title>Node28</title>
<g id="a_Node000028"><a xlink:href="default__deleter_8hpp.html" target="_top" xlink:title=" ">
<polygon fill="white" stroke="#666666" points="1089.46,-207.5 988.71,-207.5 988.71,-177 1089.46,-177 1089.46,-207.5"/>
<text text-anchor="start" x="996.71" y="-194" font-family="Helvetica,sans-Serif" font-size="10.00">yaclib/util/detail</text>
<text text-anchor="middle" x="1039.08" y="-182.75" font-family="Helvetica,sans-Serif" font-size="10.00">/default_deleter.hpp</text>
</a>
</g>
</g>
<!-- Node27&#45;&gt;Node28 -->
<g id="edge38_Node000027_Node000028" class="edge">
<title>Node27&#45;&gt;Node28</title>
<g id="a_edge38_Node000027_Node000028"><a xlink:title=" ">
<path fill="none" stroke="#63b8ff" d="M949.4,-243.11C965.27,-234.29 985.71,-222.93 1003.06,-213.28"/>
<polygon fill="#63b8ff" stroke="#63b8ff" points="1004.5,-216.48 1011.54,-208.56 1001.1,-210.36 1004.5,-216.48"/>
</a>
</g>
</g>
<!-- Node29&#45;&gt;Node28 -->
<g id="edge43_Node000029_Node000028" class="edge">
<title>Node29&#45;&gt;Node28</title>
<g id="a_edge43_Node000029_Node000028"><a xlink:title=" ">
<path fill="none" stroke="#63b8ff" d="M1042.95,-243.11C1042.4,-236.02 1041.72,-227.29 1041.09,-219.13"/>
<polygon fill="#63b8ff" stroke="#63b8ff" points="1044.59,-219.04 1040.33,-209.34 1037.61,-219.58 1044.59,-219.04"/>
</a>
</g>
</g>
</g>
</svg>

<g id="navigator" transform="translate(0 0)" fill="#404254">
  <rect fill="#f2f5e9" fill-opacity="0.5" stroke="#606060" stroke-width=".5" x="0" y="0" width="60" height="60"/>
  <use id="zoomplus" xlink:href="#zoomPlus" x="17" y="9" onmousedown="handleZoom(evt,'in')"/>
  <use id="zoomminus" xlink:href="#zoomMin" x="42" y="9" onmousedown="handleZoom(evt,'out')"/>
  <use id="reset" xlink:href="#resetDef" x="30" y="36" onmousedown="handleReset()"/>
   <use id="arrowup" xlink:href="#arrowUp" x="0" y="0" onmousedown="handlePan(0,-1)"/>
  <use id="arrowright" xlink:href="#arrowRight" x="0" y="0" onmousedown="handlePan(1,0)"/>
  <use id="arrowdown" xlink:href="#arrowDown" x="0" y="0" onmousedown="handlePan(0,1)"/>
  <use id="arrowleft" xlink:href="#arrowLeft" x="0" y="0" onmousedown="handlePan(-1,0)"/>
</g>
<svg viewBox="0 0 15 15" width="100%" height="30px" preserveAspectRatio="xMaxYMin meet">
 <g id="arrow_out" transform="scale(0.3 0.3)">
  <a xlink:href="one__shot__event_8hpp__incl_org.svg" target="_base">
   <rect id="button" ry="5" rx="5" y="6" x="6" height="38" width="38"
        fill="#f2f5e9" fill-opacity="0.5" stroke="#606060" stroke-width="1.0"/>
   <path id="arrow"
     d="M 11.500037,31.436501 C 11.940474,20.09759 22.043105,11.32322 32.158766,21.979434 L 37.068811,17.246167 C 37.068811,17.246167 37.088388,32 37.088388,32 L 22.160133,31.978069 C 22.160133,31.978069 26.997745,27.140456 26.997745,27.140456 C 18.528582,18.264221 13.291696,25.230495 11.500037,31.436501 z"
     style="fill:#404040;"/>
  </a>
 </g>
</svg>

<style type='text/css'>
<![CDATA[
[data-mouse-over-selected='false'] { opacity: 0.7; }
[data-mouse-over-selected='true']  { opacity: 1.0; }
]]>
</style>
<script type="application/ecmascript"><![CDATA[
document.addEventListener('DOMContentLoaded', (event) => {
  highlightEdges();
  highlightAdjacentNodes();
});
]]></script>
</svg>
