<?xml version="1.0" encoding="UTF-8" standalone="no"?>
<!DOCTYPE svg PUBLIC "-//W3C//DTD SVG 1.1//EN"
 "http://www.w3.org/Graphics/SVG/1.1/DTD/svg11.dtd">
<!-- Generated by graphviz version 9.0.0 (20230911.1827)
 -->
<!-- Title: src/algo/one_shot_event.cpp Pages: 1 -->
<svg width="1212pt" height="603pt"
 viewBox="0.00 0.00 1212.47 603.25" xmlns="http://www.w3.org/2000/svg" xmlns:xlink="http://www.w3.org/1999/xlink">
<g id="graph0" class="graph" transform="scale(1 1) rotate(0) translate(4 599.25)">
<title>src/algo/one_shot_event.cpp</title>
<!-- Node1 -->
<g id="Node000001" class="node">
<title>Node1</title>
<g id="a_Node000001"><a xlink:title=" ">
<polygon fill="#999999" stroke="#666666" points="709.72,-595.25 569.22,-595.25 569.22,-576 709.72,-576 709.72,-595.25"/>
<text text-anchor="middle" x="639.47" y="-581.75" font-family="Helvetica,sans-Serif" font-size="10.00">src/algo/one_shot_event.cpp</text>
</a>
</g>
</g>
<!-- Node2 -->
<g id="Node000002" class="node">
<title>Node2</title>
<g id="a_Node000002"><a xlink:href="one__shot__event_8hpp.html" target="_top" xlink:title=" ">
<polygon fill="white" stroke="#666666" points="691.72,-540 587.22,-540 587.22,-509.5 691.72,-509.5 691.72,-540"/>
<text text-anchor="start" x="595.22" y="-526.5" font-family="Helvetica,sans-Serif" font-size="10.00">yaclib/algo/one_shot</text>
<text text-anchor="middle" x="639.47" y="-515.25" font-family="Helvetica,sans-Serif" font-size="10.00">_event.hpp</text>
</a>
</g>
</g>
<!-- Node1&#45;&gt;Node2 -->
<g id="edge1_Node000001_Node000002" class="edge">
<title>Node1&#45;&gt;Node2</title>
<g id="a_edge1_Node000001_Node000002"><a xlink:title=" ">
<path fill="none" stroke="#63b8ff" d="M639.47,-575.68C639.47,-569.23 639.47,-560.16 639.47,-551.51"/>
<polygon fill="#63b8ff" stroke="#63b8ff" points="642.97,-551.8 639.47,-541.8 635.97,-551.8 642.97,-551.8"/>
</a>
</g>
</g>
<!-- Node3 -->
<g id="Node000003" class="node">
<title>Node3</title>
<g id="a_Node000003"><a xlink:href="base__core_8hpp.html" target="_top" xlink:title=" ">
<polygon fill="white" stroke="#666666" points="380.47,-473.5 292.47,-473.5 292.47,-443 380.47,-443 380.47,-473.5"/>
<text text-anchor="start" x="300.47" y="-460" font-family="Helvetica,sans-Serif" font-size="10.00">yaclib/algo/detail</text>
<text text-anchor="middle" x="336.47" y="-448.75" font-family="Helvetica,sans-Serif" font-size="10.00">/base_core.hpp</text>
</a>
</g>
</g>
<!-- Node2&#45;&gt;Node3 -->
<g id="edge2_Node000002_Node000003" class="edge">
<title>Node2&#45;&gt;Node3</title>
<g id="a_edge2_Node000002_Node000003"><a xlink:title=" ">
<path fill="none" stroke="#63b8ff" d="M587.04,-512.59C532.53,-500.98 447.55,-482.89 391.94,-471.06"/>
<polygon fill="#63b8ff" stroke="#63b8ff" points="392.87,-467.68 382.36,-469.02 391.41,-474.52 392.87,-467.68"/>
</a>
</g>
</g>
<!-- Node11 -->
<g id="Node000011" class="node">
<title>Node11</title>
<g id="a_Node000011"><a xlink:href="ref_8hpp.html" target="_top" xlink:title=" ">
<polygon fill="white" stroke="#666666" points="895.85,-135.38 807.1,-135.38 807.1,-116.12 895.85,-116.12 895.85,-135.38"/>
<text text-anchor="middle" x="851.47" y="-121.88" font-family="Helvetica,sans-Serif" font-size="10.00">yaclib/util/ref.hpp</text>
</a>
</g>
</g>
<!-- Node2&#45;&gt;Node11 -->
<g id="edge56_Node000002_Node000011" class="edge">
<title>Node2&#45;&gt;Node11</title>
<g id="a_edge56_Node000002_Node000011"><a xlink:title=" ">
<path fill="none" stroke="#63b8ff" d="M691.93,-521.82C825.23,-515.51 1166.47,-489.86 1166.47,-392.75 1166.47,-392.75 1166.47,-392.75 1166.47,-257.75 1166.47,-146.96 998.3,-128.14 907.71,-126.03"/>
<polygon fill="#63b8ff" stroke="#63b8ff" points="907.84,-122.53 897.78,-125.87 907.72,-129.53 907.84,-122.53"/>
</a>
</g>
</g>
<!-- Node15 -->
<g id="Node000015" class="node">
<title>Node15</title>
<g id="a_Node000015"><a xlink:href="executor_8hpp.html" target="_top" xlink:title=" ">
<polygon fill="white" stroke="#666666" points="454.72,-334.88 338.22,-334.88 338.22,-315.62 454.72,-315.62 454.72,-334.88"/>
<text text-anchor="middle" x="396.47" y="-321.38" font-family="Helvetica,sans-Serif" font-size="10.00">yaclib/exe/executor.hpp</text>
</a>
</g>
</g>
<!-- Node2&#45;&gt;Node15 -->
<g id="edge36_Node000002_Node000015" class="edge">
<title>Node2&#45;&gt;Node15</title>
<g id="a_edge36_Node000002_Node000015"><a xlink:title=" ">
<path fill="none" stroke="#63b8ff" d="M605.95,-509.03C587.08,-500.03 563.55,-487.55 544.47,-473.5 489.93,-433.34 436.15,-373.35 411.09,-343.88"/>
<polygon fill="#63b8ff" stroke="#63b8ff" points="413.82,-341.68 404.7,-336.28 408.46,-346.19 413.82,-341.68"/>
</a>
</g>
</g>
<!-- Node25 -->
<g id="Node000025" class="node">
<title>Node25</title>
<g id="a_Node000025"><a xlink:href="default__event_8hpp.html" target="_top" xlink:title=" ">
<polygon fill="white" stroke="#666666" points="649.22,-473.5 553.72,-473.5 553.72,-443 649.22,-443 649.22,-473.5"/>
<text text-anchor="start" x="561.72" y="-460" font-family="Helvetica,sans-Serif" font-size="10.00">yaclib/util/detail</text>
<text text-anchor="middle" x="601.47" y="-448.75" font-family="Helvetica,sans-Serif" font-size="10.00">/default_event.hpp</text>
</a>
</g>
</g>
<!-- Node2&#45;&gt;Node25 -->
<g id="edge37_Node000002_Node000025" class="edge">
<title>Node2&#45;&gt;Node25</title>
<g id="a_edge37_Node000002_Node000025"><a xlink:title=" ">
<path fill="none" stroke="#63b8ff" d="M630.85,-509.11C626.43,-501.61 620.93,-492.27 615.88,-483.71"/>
<polygon fill="#63b8ff" stroke="#63b8ff" points="618.92,-481.97 610.83,-475.13 612.89,-485.52 618.92,-481.97"/>
</a>
</g>
</g>
<!-- Node26 -->
<g id="Node000026" class="node">
<title>Node26</title>
<g id="a_Node000026"><a xlink:href="mutex__event_8hpp.html" target="_top" xlink:title=" ">
<polygon fill="white" stroke="#666666" points="723.72,-407 631.22,-407 631.22,-376.5 723.72,-376.5 723.72,-407"/>
<text text-anchor="start" x="639.22" y="-393.5" font-family="Helvetica,sans-Serif" font-size="10.00">yaclib/util/detail</text>
<text text-anchor="middle" x="677.47" y="-382.25" font-family="Helvetica,sans-Serif" font-size="10.00">/mutex_event.hpp</text>
</a>
</g>
</g>
<!-- Node2&#45;&gt;Node26 -->
<g id="edge44_Node000002_Node000026" class="edge">
<title>Node2&#45;&gt;Node26</title>
<g id="a_edge44_Node000002_Node000026"><a xlink:title=" ">
<path fill="none" stroke="#63b8ff" d="M645.47,-509.41C649.49,-499.45 654.71,-485.81 658.47,-473.5 664,-455.39 668.86,-434.58 672.28,-418.62"/>
<polygon fill="#63b8ff" stroke="#63b8ff" points="675.68,-419.48 674.3,-408.97 668.83,-418.05 675.68,-419.48"/>
</a>
</g>
</g>
<!-- Node30 -->
<g id="Node000030" class="node">
<title>Node30</title>
<g id="a_Node000030"><a xlink:href="helper_8hpp.html" target="_top" xlink:title=" ">
<polygon fill="white" stroke="#666666" points="1100.35,-401.38 996.6,-401.38 996.6,-382.12 1100.35,-382.12 1100.35,-401.38"/>
<text text-anchor="middle" x="1048.47" y="-387.88" font-family="Helvetica,sans-Serif" font-size="10.00">yaclib/util/helper.hpp</text>
</a>
</g>
</g>
<!-- Node2&#45;&gt;Node30 -->
<g id="edge45_Node000002_Node000030" class="edge">
<title>Node2&#45;&gt;Node30</title>
<g id="a_edge45_Node000002_Node000030"><a xlink:title=" ">
<path fill="none" stroke="#63b8ff" d="M685.2,-509.1C766.26,-483.14 933.75,-429.5 1009.62,-405.2"/>
<polygon fill="#63b8ff" stroke="#63b8ff" points="1010.23,-408.68 1018.68,-402.29 1008.09,-402.01 1010.23,-408.68"/>
</a>
</g>
</g>
<!-- Node4 -->
<g id="Node000004" class="node">
<title>Node4</title>
<g id="a_Node000004"><a xlink:href="inline__core_8hpp.html" target="_top" xlink:title=" ">
<polygon fill="white" stroke="#666666" points="320.47,-340.5 232.47,-340.5 232.47,-310 320.47,-310 320.47,-340.5"/>
<text text-anchor="start" x="240.47" y="-327" font-family="Helvetica,sans-Serif" font-size="10.00">yaclib/algo/detail</text>
<text text-anchor="middle" x="276.47" y="-315.75" font-family="Helvetica,sans-Serif" font-size="10.00">/inline_core.hpp</text>
</a>
</g>
</g>
<!-- Node3&#45;&gt;Node4 -->
<g id="edge3_Node000003_Node000004" class="edge">
<title>Node3&#45;&gt;Node4</title>
<g id="a_edge3_Node000003_Node000004"><a xlink:title=" ">
<path fill="none" stroke="#63b8ff" d="M329.82,-442.73C319.69,-420.6 300.24,-378.15 287.84,-351.06"/>
<polygon fill="#63b8ff" stroke="#63b8ff" points="291.13,-349.85 283.78,-342.21 284.76,-352.76 291.13,-349.85"/>
</a>
</g>
</g>
<!-- Node3&#45;&gt;Node15 -->
<g id="edge16_Node000003_Node000015" class="edge">
<title>Node3&#45;&gt;Node15</title>
<g id="a_edge16_Node000003_Node000015"><a xlink:title=" ">
<path fill="none" stroke="#63b8ff" d="M337.91,-442.58C340,-425.86 344.84,-398.08 355.47,-376.5 361.44,-364.38 370.82,-352.58 379.11,-343.47"/>
<polygon fill="#63b8ff" stroke="#63b8ff" points="381.45,-346.08 385.81,-336.43 376.38,-341.25 381.45,-346.08"/>
</a>
</g>
</g>
<!-- Node18 -->
<g id="Node000018" class="node">
<title>Node18</title>
<g id="a_Node000018"><a xlink:href="inline_8hpp.html" target="_top" xlink:title=" ">
<polygon fill="white" stroke="#666666" points="176.6,-401.38 74.35,-401.38 74.35,-382.12 176.6,-382.12 176.6,-401.38"/>
<text text-anchor="middle" x="125.47" y="-387.88" font-family="Helvetica,sans-Serif" font-size="10.00">yaclib/exe/inline.hpp</text>
</a>
</g>
</g>
<!-- Node3&#45;&gt;Node18 -->
<g id="edge23_Node000003_Node000018" class="edge">
<title>Node3&#45;&gt;Node18</title>
<g id="a_edge23_Node000003_Node000018"><a xlink:title=" ">
<path fill="none" stroke="#63b8ff" d="M291.98,-443.65C254.73,-432.26 202.01,-416.15 165.93,-405.12"/>
<polygon fill="#63b8ff" stroke="#63b8ff" points="167.34,-401.89 156.75,-402.31 165.29,-408.58 167.34,-401.89"/>
</a>
</g>
</g>
<!-- Node20 -->
<g id="Node000020" class="node">
<title>Node20</title>
<g id="a_Node000020"><a xlink:href="type__traits_8hpp.html" target="_top" xlink:title=" ">
<polygon fill="white" stroke="#666666" points="253.72,-268.38 131.22,-268.38 131.22,-249.12 253.72,-249.12 253.72,-268.38"/>
<text text-anchor="middle" x="192.47" y="-254.88" font-family="Helvetica,sans-Serif" font-size="10.00">yaclib/util/type_traits.hpp</text>
</a>
</g>
</g>
<!-- Node3&#45;&gt;Node20 -->
<g id="edge26_Node000003_Node000020" class="edge">
<title>Node3&#45;&gt;Node20</title>
<g id="a_edge26_Node000003_Node000020"><a xlink:title=" ">
<path fill="none" stroke="#63b8ff" d="M318.5,-442.78C294.06,-422.29 250.32,-382.59 223.47,-340.5 211.25,-321.35 202.65,-296.63 197.66,-279.62"/>
<polygon fill="#63b8ff" stroke="#63b8ff" points="201.1,-278.94 195.06,-270.24 194.35,-280.81 201.1,-278.94"/>
</a>
</g>
</g>
<!-- Node23 -->
<g id="Node000023" class="node">
<title>Node23</title>
<g id="a_Node000023"><a xlink:title=" ">
<polygon fill="#e0e0e0" stroke="#999999" points="404.1,-401.38 364.85,-401.38 364.85,-382.12 404.1,-382.12 404.1,-401.38"/>
<text text-anchor="middle" x="384.47" y="-387.88" font-family="Helvetica,sans-Serif" font-size="10.00">limits</text>
</a>
</g>
</g>
<!-- Node3&#45;&gt;Node23 -->
<g id="edge34_Node000003_Node000023" class="edge">
<title>Node3&#45;&gt;Node23</title>
<g id="a_edge34_Node000003_Node000023"><a xlink:title=" ">
<path fill="none" stroke="#63b8ff" d="M347.36,-442.61C354.42,-433.14 363.65,-420.73 371.14,-410.66"/>
<polygon fill="#63b8ff" stroke="#63b8ff" points="373.84,-412.9 377,-402.79 368.22,-408.72 373.84,-412.9"/>
</a>
</g>
</g>
<!-- Node24 -->
<g id="Node000024" class="node">
<title>Node24</title>
<g id="a_Node000024"><a xlink:title=" ">
<polygon fill="#e0e0e0" stroke="#999999" points="704.35,-268.38 612.6,-268.38 612.6,-249.12 704.35,-249.12 704.35,-268.38"/>
<text text-anchor="middle" x="658.47" y="-254.88" font-family="Helvetica,sans-Serif" font-size="10.00">yaclib_std/atomic</text>
</a>
</g>
</g>
<!-- Node3&#45;&gt;Node24 -->
<g id="edge35_Node000003_Node000024" class="edge">
<title>Node3&#45;&gt;Node24</title>
<g id="a_edge35_Node000003_Node000024"><a xlink:title=" ">
<path fill="none" stroke="#63b8ff" d="M360.04,-442.54C375.45,-432.76 395.9,-419.47 413.47,-407 471.11,-366.1 478.42,-345.59 539.47,-310 565.4,-294.89 596.73,-281.84 620.74,-272.84"/>
<polygon fill="#63b8ff" stroke="#63b8ff" points="621.94,-276.12 630.12,-269.39 619.53,-269.55 621.94,-276.12"/>
</a>
</g>
</g>
<!-- Node5 -->
<g id="Node000005" class="node">
<title>Node5</title>
<g id="a_Node000005"><a xlink:title=" ">
<polygon fill="#e0e0e0" stroke="#999999" points="594.1,-268.38 506.85,-268.38 506.85,-249.12 594.1,-249.12 594.1,-268.38"/>
<text text-anchor="middle" x="550.47" y="-254.88" font-family="Helvetica,sans-Serif" font-size="10.00">yaclib/config.hpp</text>
</a>
</g>
</g>
<!-- Node4&#45;&gt;Node5 -->
<g id="edge4_Node000004_Node000005" class="edge">
<title>Node4&#45;&gt;Node5</title>
<g id="a_edge4_Node000004_Node000005"><a xlink:title=" ">
<path fill="none" stroke="#63b8ff" d="M320.68,-312.22C323.66,-311.46 326.61,-310.71 329.47,-310 386.56,-295.84 452.33,-281.08 497.18,-271.25"/>
<polygon fill="#63b8ff" stroke="#63b8ff" points="497.9,-274.68 506.92,-269.13 496.4,-267.84 497.9,-274.68"/>
</a>
</g>
</g>
<!-- Node6 -->
<g id="Node000006" class="node">
<title>Node6</title>
<g id="a_Node000006"><a xlink:href="job_8hpp.html" target="_top" xlink:title=" ">
<polygon fill="white" stroke="#666666" points="450.72,-268.38 358.22,-268.38 358.22,-249.12 450.72,-249.12 450.72,-268.38"/>
<text text-anchor="middle" x="404.47" y="-254.88" font-family="Helvetica,sans-Serif" font-size="10.00">yaclib/exe/job.hpp</text>
</a>
</g>
</g>
<!-- Node4&#45;&gt;Node6 -->
<g id="edge5_Node000004_Node000006" class="edge">
<title>Node4&#45;&gt;Node6</title>
<g id="a_edge5_Node000004_Node000006"><a xlink:title=" ">
<path fill="none" stroke="#63b8ff" d="M305.52,-309.61C326.75,-298.92 355.38,-284.49 376.38,-273.9"/>
<polygon fill="#63b8ff" stroke="#63b8ff" points="377.89,-277.07 385.24,-269.44 374.74,-270.82 377.89,-277.07"/>
</a>
</g>
</g>
<!-- Node7 -->
<g id="Node000007" class="node">
<title>Node7</title>
<g id="a_Node000007"><a xlink:href="log_8hpp.html" target="_top" xlink:title=" ">
<polygon fill="white" stroke="#666666" points="727.72,-74.5 653.22,-74.5 653.22,-55.25 727.72,-55.25 727.72,-74.5"/>
<text text-anchor="middle" x="690.47" y="-61" font-family="Helvetica,sans-Serif" font-size="10.00">yaclib/log.hpp</text>
</a>
</g>
</g>
<!-- Node4&#45;&gt;Node7 -->
<g id="edge15_Node000004_Node000007" class="edge">
<title>Node4&#45;&gt;Node7</title>
<g id="a_edge15_Node000004_Node000007"><a xlink:title=" ">
<path fill="none" stroke="#63b8ff" d="M279.16,-309.57C287.25,-270.02 315.24,-160.88 385.47,-110.5 425.59,-81.72 566.34,-71.24 641.81,-67.64"/>
<polygon fill="#63b8ff" stroke="#63b8ff" points="641.55,-71.15 651.38,-67.2 641.23,-64.16 641.55,-71.15"/>
</a>
</g>
</g>
<!-- Node6&#45;&gt;Node7 -->
<g id="edge6_Node000006_Node000007" class="edge">
<title>Node6&#45;&gt;Node7</title>
<g id="a_edge6_Node000006_Node000007"><a xlink:title=" ">
<path fill="none" stroke="#63b8ff" d="M436.44,-248.64C483.29,-235.22 565.7,-211.3 571.47,-207.5 621.4,-174.63 661.64,-114.69 679.88,-84.42"/>
<polygon fill="#63b8ff" stroke="#63b8ff" points="682.77,-86.41 684.81,-76.02 676.73,-82.87 682.77,-86.41"/>
</a>
</g>
</g>
<!-- Node9 -->
<g id="Node000009" class="node">
<title>Node9</title>
<g id="a_Node000009"><a xlink:href="node_8hpp.html" target="_top" xlink:title=" ">
<polygon fill="white" stroke="#666666" points="562.85,-207.5 480.1,-207.5 480.1,-177 562.85,-177 562.85,-207.5"/>
<text text-anchor="start" x="488.1" y="-194" font-family="Helvetica,sans-Serif" font-size="10.00">yaclib/util/detail</text>
<text text-anchor="middle" x="521.47" y="-182.75" font-family="Helvetica,sans-Serif" font-size="10.00">/node.hpp</text>
</a>
</g>
</g>
<!-- Node6&#45;&gt;Node9 -->
<g id="edge8_Node000006_Node000009" class="edge">
<title>Node6&#45;&gt;Node9</title>
<g id="a_edge8_Node000006_Node000009"><a xlink:title=" ">
<path fill="none" stroke="#63b8ff" d="M420.99,-248.65C437.63,-239.47 463.85,-225.02 485.33,-213.18"/>
<polygon fill="#63b8ff" stroke="#63b8ff" points="486.73,-216.4 493.8,-208.51 483.35,-210.27 486.73,-216.4"/>
</a>
</g>
</g>
<!-- Node10 -->
<g id="Node000010" class="node">
<title>Node10</title>
<g id="a_Node000010"><a xlink:href="func_8hpp.html" target="_top" xlink:title=" ">
<polygon fill="white" stroke="#666666" points="461.6,-201.88 365.35,-201.88 365.35,-182.62 461.6,-182.62 461.6,-201.88"/>
<text text-anchor="middle" x="413.47" y="-188.38" font-family="Helvetica,sans-Serif" font-size="10.00">yaclib/util/func.hpp</text>
</a>
</g>
</g>
<!-- Node6&#45;&gt;Node10 -->
<g id="edge9_Node000006_Node000010" class="edge">
<title>Node6&#45;&gt;Node10</title>
<g id="a_edge9_Node000006_Node000010"><a xlink:title=" ">
<path fill="none" stroke="#63b8ff" d="M405.72,-248.78C407,-239.64 409.02,-225.14 410.68,-213.25"/>
<polygon fill="#63b8ff" stroke="#63b8ff" points="414.11,-214.03 412.02,-203.64 407.17,-213.06 414.11,-214.03"/>
</a>
</g>
</g>
<!-- Node8 -->
<g id="Node000008" class="node">
<title>Node8</title>
<g id="a_Node000008"><a xlink:title=" ">
<polygon fill="#e0e0e0" stroke="#999999" points="723.22,-19.25 657.72,-19.25 657.72,0 723.22,0 723.22,-19.25"/>
<text text-anchor="middle" x="690.47" y="-5.75" font-family="Helvetica,sans-Serif" font-size="10.00">string_view</text>
</a>
</g>
</g>
<!-- Node7&#45;&gt;Node8 -->
<g id="edge7_Node000007_Node000008" class="edge">
<title>Node7&#45;&gt;Node8</title>
<g id="a_edge7_Node000007_Node000008"><a xlink:title=" ">
<path fill="none" stroke="#63b8ff" d="M690.47,-55.08C690.47,-48.57 690.47,-39.42 690.47,-31.12"/>
<polygon fill="#63b8ff" stroke="#63b8ff" points="693.97,-31.12 690.47,-21.12 686.97,-31.12 693.97,-31.12"/>
</a>
</g>
</g>
<!-- Node10&#45;&gt;Node11 -->
<g id="edge10_Node000010_Node000011" class="edge">
<title>Node10&#45;&gt;Node11</title>
<g id="a_edge10_Node000010_Node000011"><a xlink:title=" ">
<path fill="none" stroke="#63b8ff" d="M447.36,-182.13C455.23,-180.24 463.61,-178.39 471.47,-177 615.44,-151.5 654.79,-168.06 798.47,-141 802.12,-140.31 805.89,-139.5 809.66,-138.63"/>
<polygon fill="#63b8ff" stroke="#63b8ff" points="810.5,-142.02 819.36,-136.21 808.81,-135.23 810.5,-142.02"/>
</a>
</g>
</g>
<!-- Node13 -->
<g id="Node000013" class="node">
<title>Node13</title>
<g id="a_Node000013"><a xlink:title=" ">
<polygon fill="#e0e0e0" stroke="#999999" points="299.97,-135.38 238.97,-135.38 238.97,-116.12 299.97,-116.12 299.97,-135.38"/>
<text text-anchor="middle" x="269.47" y="-121.88" font-family="Helvetica,sans-Serif" font-size="10.00">type_traits</text>
</a>
</g>
</g>
<!-- Node10&#45;&gt;Node13 -->
<g id="edge13_Node000010_Node000013" class="edge">
<title>Node10&#45;&gt;Node13</title>
<g id="a_edge13_Node000010_Node000013"><a xlink:title=" ">
<path fill="none" stroke="#63b8ff" d="M393.15,-182.15C368.92,-171.29 328.19,-153.05 300.13,-140.48"/>
<polygon fill="#63b8ff" stroke="#63b8ff" points="301.63,-137.32 291.08,-136.43 298.77,-143.71 301.63,-137.32"/>
</a>
</g>
</g>
<!-- Node14 -->
<g id="Node000014" class="node">
<title>Node14</title>
<g id="a_Node000014"><a xlink:title=" ">
<polygon fill="#e0e0e0" stroke="#999999" points="432.72,-135.38 394.22,-135.38 394.22,-116.12 432.72,-116.12 432.72,-135.38"/>
<text text-anchor="middle" x="413.47" y="-121.88" font-family="Helvetica,sans-Serif" font-size="10.00">utility</text>
</a>
</g>
</g>
<!-- Node10&#45;&gt;Node14 -->
<g id="edge14_Node000010_Node000014" class="edge">
<title>Node10&#45;&gt;Node14</title>
<g id="a_edge14_Node000010_Node000014"><a xlink:title=" ">
<path fill="none" stroke="#63b8ff" d="M413.47,-182.28C413.47,-173.23 413.47,-158.95 413.47,-147.13"/>
<polygon fill="#63b8ff" stroke="#63b8ff" points="416.97,-147.16 413.47,-137.16 409.97,-147.16 416.97,-147.16"/>
</a>
</g>
</g>
<!-- Node11&#45;&gt;Node7 -->
<g id="edge11_Node000011_Node000007" class="edge">
<title>Node11&#45;&gt;Node7</title>
<g id="a_edge11_Node000011_Node000007"><a xlink:title=" ">
<path fill="none" stroke="#63b8ff" d="M826.67,-115.68C799.72,-105.83 756.45,-90 725.92,-78.84"/>
<polygon fill="#63b8ff" stroke="#63b8ff" points="727.32,-75.62 716.73,-75.48 724.91,-82.2 727.32,-75.62"/>
</a>
</g>
</g>
<!-- Node12 -->
<g id="Node000012" class="node">
<title>Node12</title>
<g id="a_Node000012"><a xlink:title=" ">
<polygon fill="#e0e0e0" stroke="#999999" points="951.6,-74.5 903.35,-74.5 903.35,-55.25 951.6,-55.25 951.6,-74.5"/>
<text text-anchor="middle" x="927.47" y="-61" font-family="Helvetica,sans-Serif" font-size="10.00">cstddef</text>
</a>
</g>
</g>
<!-- Node11&#45;&gt;Node12 -->
<g id="edge12_Node000011_Node000012" class="edge">
<title>Node11&#45;&gt;Node12</title>
<g id="a_edge12_Node000011_Node000012"><a xlink:title=" ">
<path fill="none" stroke="#63b8ff" d="M863.01,-115.81C874.62,-106.82 892.76,-92.76 906.85,-81.85"/>
<polygon fill="#63b8ff" stroke="#63b8ff" points="908.86,-84.72 914.62,-75.83 904.58,-79.19 908.86,-84.72"/>
</a>
</g>
</g>
<!-- Node15&#45;&gt;Node6 -->
<g id="edge17_Node000015_Node000006" class="edge">
<title>Node15&#45;&gt;Node6</title>
<g id="a_edge17_Node000015_Node000006"><a xlink:title=" ">
<path fill="none" stroke="#63b8ff" d="M397.58,-315.28C398.72,-306.14 400.52,-291.64 401.99,-279.75"/>
<polygon fill="#63b8ff" stroke="#63b8ff" points="405.43,-280.5 403.18,-270.14 398.48,-279.64 405.43,-280.5"/>
</a>
</g>
</g>
<!-- Node16 -->
<g id="Node000016" class="node">
<title>Node16</title>
<g id="a_Node000016"><a xlink:href="intrusive__ptr_8hpp.html" target="_top" xlink:title=" ">
<polygon fill="white" stroke="#666666" points="780.6,-207.5 684.35,-207.5 684.35,-177 780.6,-177 780.6,-207.5"/>
<text text-anchor="start" x="692.35" y="-194" font-family="Helvetica,sans-Serif" font-size="10.00">yaclib/util/intrusive</text>
<text text-anchor="middle" x="732.47" y="-182.75" font-family="Helvetica,sans-Serif" font-size="10.00">_ptr.hpp</text>
</a>
</g>
</g>
<!-- Node15&#45;&gt;Node16 -->
<g id="edge18_Node000015_Node000016" class="edge">
<title>Node15&#45;&gt;Node16</title>
<g id="a_edge18_Node000015_Node000016"><a xlink:title=" ">
<path fill="none" stroke="#63b8ff" d="M407.63,-315.36C420.23,-305.33 441.34,-288.51 459.47,-274 476.38,-260.47 477.91,-252.79 497.47,-243.5 505.45,-239.71 605.83,-218.92 672.79,-205.3"/>
<polygon fill="#63b8ff" stroke="#63b8ff" points="673.46,-208.73 682.56,-203.31 672.07,-201.87 673.46,-208.73"/>
</a>
</g>
</g>
<!-- Node16&#45;&gt;Node11 -->
<g id="edge19_Node000016_Node000011" class="edge">
<title>Node16&#45;&gt;Node11</title>
<g id="a_edge19_Node000016_Node000011"><a xlink:title=" ">
<path fill="none" stroke="#63b8ff" d="M759.47,-176.61C779.03,-166.01 805.34,-151.75 824.82,-141.2"/>
<polygon fill="#63b8ff" stroke="#63b8ff" points="826.39,-144.32 833.52,-136.48 823.06,-138.17 826.39,-144.32"/>
</a>
</g>
</g>
<!-- Node16&#45;&gt;Node13 -->
<g id="edge20_Node000016_Node000013" class="edge">
<title>Node16&#45;&gt;Node13</title>
<g id="a_edge20_Node000016_Node000013"><a xlink:title=" ">
<path fill="none" stroke="#63b8ff" d="M684.23,-184.53C593.22,-171.85 397.62,-144.6 311.56,-132.61"/>
<polygon fill="#63b8ff" stroke="#63b8ff" points="312.3,-129.18 301.91,-131.27 311.33,-136.12 312.3,-129.18"/>
</a>
</g>
</g>
<!-- Node17 -->
<g id="Node000017" class="node">
<title>Node17</title>
<g id="a_Node000017"><a xlink:href="intrusive__ptr__impl_8hpp.html" target="_top" xlink:title=" ">
<polygon fill="white" stroke="#666666" points="789.22,-141 675.72,-141 675.72,-110.5 789.22,-110.5 789.22,-141"/>
<text text-anchor="start" x="683.72" y="-127.5" font-family="Helvetica,sans-Serif" font-size="10.00">yaclib/util/detail</text>
<text text-anchor="middle" x="732.47" y="-116.25" font-family="Helvetica,sans-Serif" font-size="10.00">/intrusive_ptr_impl.hpp</text>
</a>
</g>
</g>
<!-- Node16&#45;&gt;Node17 -->
<g id="edge21_Node000016_Node000017" class="edge">
<title>Node16&#45;&gt;Node17</title>
<g id="a_edge21_Node000016_Node000017"><a xlink:title=" ">
<path fill="none" stroke="#63b8ff" d="M732.47,-176.61C732.47,-169.52 732.47,-160.79 732.47,-152.63"/>
<polygon fill="#63b8ff" stroke="#63b8ff" points="735.97,-152.84 732.47,-142.84 728.97,-152.84 735.97,-152.84"/>
</a>
</g>
</g>
<!-- Node17&#45;&gt;Node7 -->
<g id="edge22_Node000017_Node000007" class="edge">
<title>Node17&#45;&gt;Node7</title>
<g id="a_edge22_Node000017_Node000007"><a xlink:title=" ">
<path fill="none" stroke="#63b8ff" d="M722.09,-110.2C716.49,-102.35 709.53,-92.6 703.57,-84.24"/>
<polygon fill="#63b8ff" stroke="#63b8ff" points="706.48,-82.29 697.83,-76.18 700.78,-86.36 706.48,-82.29"/>
</a>
</g>
</g>
<!-- Node18&#45;&gt;Node15 -->
<g id="edge24_Node000018_Node000015" class="edge">
<title>Node18&#45;&gt;Node15</title>
<g id="a_edge24_Node000018_Node000015"><a xlink:title=" ">
<path fill="none" stroke="#63b8ff" d="M163.72,-381.65C211.84,-370.19 294.54,-350.51 347.31,-337.95"/>
<polygon fill="#63b8ff" stroke="#63b8ff" points="348.02,-341.38 356.94,-335.66 346.4,-334.57 348.02,-341.38"/>
</a>
</g>
</g>
<!-- Node19 -->
<g id="Node000019" class="node">
<title>Node19</title>
<g id="a_Node000019"><a xlink:href="fwd_8hpp.html" target="_top" xlink:title=" ">
<polygon fill="white" stroke="#666666" points="138.22,-135.38 60.72,-135.38 60.72,-116.12 138.22,-116.12 138.22,-135.38"/>
<text text-anchor="middle" x="99.47" y="-121.88" font-family="Helvetica,sans-Serif" font-size="10.00">yaclib/fwd.hpp</text>
</a>
</g>
</g>
<!-- Node18&#45;&gt;Node19 -->
<g id="edge25_Node000018_Node000019" class="edge">
<title>Node18&#45;&gt;Node19</title>
<g id="a_edge25_Node000018_Node000019"><a xlink:title=" ">
<path fill="none" stroke="#63b8ff" d="M116.71,-381.85C92.91,-356.95 27.28,-283.45 4.47,-207.5 0.57,-194.52 -2.52,-188.61 4.47,-177 15.09,-159.36 34.21,-147.6 52.52,-139.91"/>
<polygon fill="#63b8ff" stroke="#63b8ff" points="53.64,-143.23 61.73,-136.39 51.14,-136.7 53.64,-143.23"/>
</a>
</g>
</g>
<!-- Node20&#45;&gt;Node13 -->
<g id="edge32_Node000020_Node000013" class="edge">
<title>Node20&#45;&gt;Node13</title>
<g id="a_edge32_Node000020_Node000013"><a xlink:title=" ">
<path fill="none" stroke="#63b8ff" d="M203.93,-248.92C215.19,-239.7 232.13,-224.26 242.47,-207.5 254.21,-188.47 261.51,-163.73 265.51,-146.68"/>
<polygon fill="#63b8ff" stroke="#63b8ff" points="268.85,-147.8 267.54,-137.29 262,-146.32 268.85,-147.8"/>
</a>
</g>
</g>
<!-- Node20&#45;&gt;Node14 -->
<g id="edge33_Node000020_Node000014" class="edge">
<title>Node20&#45;&gt;Node14</title>
<g id="a_edge33_Node000020_Node000014"><a xlink:title=" ">
<path fill="none" stroke="#63b8ff" d="M207.66,-248.75C245.12,-226.54 342.2,-169 388.37,-141.63"/>
<polygon fill="#63b8ff" stroke="#63b8ff" points="390.06,-144.7 396.87,-136.59 386.49,-138.68 390.06,-144.7"/>
</a>
</g>
</g>
<!-- Node20&#45;&gt;Node19 -->
<g id="edge27_Node000020_Node000019" class="edge">
<title>Node20&#45;&gt;Node19</title>
<g id="a_edge27_Node000020_Node000019"><a xlink:title=" ">
<path fill="none" stroke="#63b8ff" d="M171.37,-248.74C154.5,-240.46 131.59,-226.56 118.47,-207.5 106.12,-189.54 101.73,-164.59 100.21,-147.2"/>
<polygon fill="#63b8ff" stroke="#63b8ff" points="103.71,-147.12 99.62,-137.35 96.72,-147.54 103.71,-147.12"/>
</a>
</g>
</g>
<!-- Node21 -->
<g id="Node000021" class="node">
<title>Node21</title>
<g id="a_Node000021"><a xlink:href="type__traits__impl_8hpp.html" target="_top" xlink:title=" ">
<polygon fill="white" stroke="#666666" points="233.1,-207.5 127.85,-207.5 127.85,-177 233.1,-177 233.1,-207.5"/>
<text text-anchor="start" x="135.85" y="-194" font-family="Helvetica,sans-Serif" font-size="10.00">yaclib/util/detail</text>
<text text-anchor="middle" x="180.47" y="-182.75" font-family="Helvetica,sans-Serif" font-size="10.00">/type_traits_impl.hpp</text>
</a>
</g>
</g>
<!-- Node20&#45;&gt;Node21 -->
<g id="edge28_Node000020_Node000021" class="edge">
<title>Node20&#45;&gt;Node21</title>
<g id="a_edge28_Node000020_Node000021"><a xlink:title=" ">
<path fill="none" stroke="#63b8ff" d="M190.8,-248.78C189.36,-241.04 187.21,-229.45 185.24,-218.87"/>
<polygon fill="#63b8ff" stroke="#63b8ff" points="188.69,-218.27 183.42,-209.08 181.81,-219.55 188.69,-218.27"/>
</a>
</g>
</g>
<!-- Node22 -->
<g id="Node000022" class="node">
<title>Node22</title>
<g id="a_Node000022"><a xlink:title=" ">
<polygon fill="#e0e0e0" stroke="#999999" points="71.1,-201.88 13.85,-201.88 13.85,-182.62 71.1,-182.62 71.1,-201.88"/>
<text text-anchor="middle" x="42.47" y="-188.38" font-family="Helvetica,sans-Serif" font-size="10.00">exception</text>
</a>
</g>
</g>
<!-- Node20&#45;&gt;Node22 -->
<g id="edge31_Node000020_Node000022" class="edge">
<title>Node20&#45;&gt;Node22</title>
<g id="a_edge31_Node000020_Node000022"><a xlink:title=" ">
<path fill="none" stroke="#63b8ff" d="M171.3,-248.65C145.95,-237.75 103.26,-219.39 74.02,-206.82"/>
<polygon fill="#63b8ff" stroke="#63b8ff" points="75.5,-203.64 64.93,-202.91 72.73,-210.07 75.5,-203.64"/>
</a>
</g>
</g>
<!-- Node21&#45;&gt;Node13 -->
<g id="edge30_Node000021_Node000013" class="edge">
<title>Node21&#45;&gt;Node13</title>
<g id="a_edge30_Node000021_Node000013"><a xlink:title=" ">
<path fill="none" stroke="#63b8ff" d="M200.67,-176.61C214.75,-166.41 233.52,-152.8 247.9,-142.38"/>
<polygon fill="#63b8ff" stroke="#63b8ff" points="249.77,-145.35 255.81,-136.65 245.66,-139.68 249.77,-145.35"/>
</a>
</g>
</g>
<!-- Node21&#45;&gt;Node19 -->
<g id="edge29_Node000021_Node000019" class="edge">
<title>Node21&#45;&gt;Node19</title>
<g id="a_edge29_Node000021_Node000019"><a xlink:title=" ">
<path fill="none" stroke="#63b8ff" d="M162.09,-176.61C149.32,-166.44 132.32,-152.91 119.25,-142.5"/>
<polygon fill="#63b8ff" stroke="#63b8ff" points="121.74,-140.01 111.74,-136.52 117.38,-145.48 121.74,-140.01"/>
</a>
</g>
</g>
<!-- Node25&#45;&gt;Node5 -->
<g id="edge38_Node000025_Node000005" class="edge">
<title>Node25&#45;&gt;Node5</title>
<g id="a_edge38_Node000025_Node000005"><a xlink:title=" ">
<path fill="none" stroke="#63b8ff" d="M590.71,-442.74C575.76,-421.56 549.4,-380.36 539.47,-340.5 534.35,-319.95 538.98,-295.83 543.71,-279.33"/>
<polygon fill="#63b8ff" stroke="#63b8ff" points="546.89,-280.87 546.57,-270.28 540.22,-278.76 546.89,-280.87"/>
</a>
</g>
</g>
<!-- Node25&#45;&gt;Node26 -->
<g id="edge39_Node000025_Node000026" class="edge">
<title>Node25&#45;&gt;Node26</title>
<g id="a_edge39_Node000025_Node000026"><a xlink:title=" ">
<path fill="none" stroke="#63b8ff" d="M618.72,-442.61C628.43,-434.37 640.76,-423.9 651.62,-414.69"/>
<polygon fill="#63b8ff" stroke="#63b8ff" points="653.78,-417.45 659.14,-408.31 649.25,-412.11 653.78,-417.45"/>
</a>
</g>
</g>
<!-- Node26&#45;&gt;Node11 -->
<g id="edge40_Node000026_Node000011" class="edge">
<title>Node26&#45;&gt;Node11</title>
<g id="a_edge40_Node000026_Node000011"><a xlink:title=" ">
<path fill="none" stroke="#63b8ff" d="M724.2,-388.15C758.54,-383.59 803.42,-371.58 828.47,-340.5 874.43,-283.47 863.45,-188.28 855.81,-146.94"/>
<polygon fill="#63b8ff" stroke="#63b8ff" points="859.26,-146.33 853.87,-137.21 852.4,-147.71 859.26,-146.33"/>
</a>
</g>
</g>
<!-- Node27 -->
<g id="Node000027" class="node">
<title>Node27</title>
<g id="a_Node000027"><a xlink:title=" ">
<polygon fill="#e0e0e0" stroke="#999999" points="700.1,-334.88 654.85,-334.88 654.85,-315.62 700.1,-315.62 700.1,-334.88"/>
<text text-anchor="middle" x="677.47" y="-321.38" font-family="Helvetica,sans-Serif" font-size="10.00">chrono</text>
</a>
</g>
</g>
<!-- Node26&#45;&gt;Node27 -->
<g id="edge41_Node000026_Node000027" class="edge">
<title>Node26&#45;&gt;Node27</title>
<g id="a_edge41_Node000026_Node000027"><a xlink:title=" ">
<path fill="none" stroke="#63b8ff" d="M677.47,-376.11C677.47,-367.33 677.47,-356.02 677.47,-346.4"/>
<polygon fill="#63b8ff" stroke="#63b8ff" points="680.97,-346.59 677.47,-336.59 673.97,-346.59 680.97,-346.59"/>
</a>
</g>
</g>
<!-- Node28 -->
<g id="Node000028" class="node">
<title>Node28</title>
<g id="a_Node000028"><a xlink:title=" ">
<polygon fill="#e0e0e0" stroke="#999999" points="819.22,-340.5 717.72,-340.5 717.72,-310 819.22,-310 819.22,-340.5"/>
<text text-anchor="start" x="725.72" y="-327" font-family="Helvetica,sans-Serif" font-size="10.00">yaclib_std/condition</text>
<text text-anchor="middle" x="768.47" y="-315.75" font-family="Helvetica,sans-Serif" font-size="10.00">_variable</text>
</a>
</g>
</g>
<!-- Node26&#45;&gt;Node28 -->
<g id="edge42_Node000026_Node000028" class="edge">
<title>Node26&#45;&gt;Node28</title>
<g id="a_edge42_Node000026_Node000028"><a xlink:title=" ">
<path fill="none" stroke="#63b8ff" d="M698.12,-376.11C710.11,-367.62 725.41,-356.77 738.68,-347.37"/>
<polygon fill="#63b8ff" stroke="#63b8ff" points="740.53,-350.34 746.67,-341.7 736.49,-344.63 740.53,-350.34"/>
</a>
</g>
</g>
<!-- Node29 -->
<g id="Node000029" class="node">
<title>Node29</title>
<g id="a_Node000029"><a xlink:title=" ">
<polygon fill="#e0e0e0" stroke="#999999" points="636.85,-334.88 548.1,-334.88 548.1,-315.62 636.85,-315.62 636.85,-334.88"/>
<text text-anchor="middle" x="592.47" y="-321.38" font-family="Helvetica,sans-Serif" font-size="10.00">yaclib_std/mutex</text>
</a>
</g>
</g>
<!-- Node26&#45;&gt;Node29 -->
<g id="edge43_Node000026_Node000029" class="edge">
<title>Node26&#45;&gt;Node29</title>
<g id="a_edge43_Node000026_Node000029"><a xlink:title=" ">
<path fill="none" stroke="#63b8ff" d="M658.18,-376.11C644.78,-365.94 626.94,-352.41 613.23,-342"/>
<polygon fill="#63b8ff" stroke="#63b8ff" points="615.39,-339.24 605.3,-335.99 611.15,-344.82 615.39,-339.24"/>
</a>
</g>
</g>
<!-- Node30&#45;&gt;Node12 -->
<g id="edge55_Node000030_Node000012" class="edge">
<title>Node30&#45;&gt;Node12</title>
<g id="a_edge55_Node000030_Node000012"><a xlink:title=" ">
<path fill="none" stroke="#63b8ff" d="M1076.36,-381.74C1121.23,-365.3 1204.47,-325.88 1204.47,-259.75 1204.47,-259.75 1204.47,-259.75 1204.47,-191.25 1204.47,-86.53 1038.12,-68.82 963.25,-66.15"/>
<polygon fill="#63b8ff" stroke="#63b8ff" points="963.66,-62.67 953.57,-65.89 963.47,-69.66 963.66,-62.67"/>
</a>
</g>
</g>
<!-- Node30&#45;&gt;Node16 -->
<g id="edge54_Node000030_Node000016" class="edge">
<title>Node30&#45;&gt;Node16</title>
<g id="a_edge54_Node000030_Node000016"><a xlink:title=" ">
<path fill="none" stroke="#63b8ff" d="M1066.38,-381.78C1081,-373.35 1100.63,-359.24 1109.47,-340.5 1128.42,-300.34 1119.92,-271.53 1085.47,-243.5 1041.7,-207.89 881.24,-197.51 792.49,-194.49"/>
<polygon fill="#63b8ff" stroke="#63b8ff" points="792.61,-190.99 782.5,-194.18 792.39,-197.99 792.61,-190.99"/>
</a>
</g>
</g>
<!-- Node31 -->
<g id="Node000031" class="node">
<title>Node31</title>
<g id="a_Node000031"><a xlink:href="atomic__counter_8hpp.html" target="_top" xlink:title=" ">
<polygon fill="white" stroke="#666666" points="979.35,-340.5 875.6,-340.5 875.6,-310 979.35,-310 979.35,-340.5"/>
<text text-anchor="start" x="883.6" y="-327" font-family="Helvetica,sans-Serif" font-size="10.00">yaclib/util/detail</text>
<text text-anchor="middle" x="927.47" y="-315.75" font-family="Helvetica,sans-Serif" font-size="10.00">/atomic_counter.hpp</text>
</a>
</g>
</g>
<!-- Node30&#45;&gt;Node31 -->
<g id="edge46_Node000030_Node000031" class="edge">
<title>Node30&#45;&gt;Node31</title>
<g id="a_edge46_Node000030_Node000031"><a xlink:title=" ">
<path fill="none" stroke="#63b8ff" d="M1031.39,-381.65C1014.18,-372.47 987.07,-358.02 964.85,-346.18"/>
<polygon fill="#63b8ff" stroke="#63b8ff" points="966.53,-343.1 956.06,-341.49 963.24,-349.28 966.53,-343.1"/>
</a>
</g>
</g>
<!-- Node33 -->
<g id="Node000033" class="node">
<title>Node33</title>
<g id="a_Node000033"><a xlink:href="unique__counter_8hpp.html" target="_top" xlink:title=" ">
<polygon fill="white" stroke="#666666" points="1099.97,-340.5 996.97,-340.5 996.97,-310 1099.97,-310 1099.97,-340.5"/>
<text text-anchor="start" x="1004.97" y="-327" font-family="Helvetica,sans-Serif" font-size="10.00">yaclib/util/detail</text>
<text text-anchor="middle" x="1048.47" y="-315.75" font-family="Helvetica,sans-Serif" font-size="10.00">/unique_counter.hpp</text>
</a>
</g>
</g>
<!-- Node30&#45;&gt;Node33 -->
<g id="edge52_Node000030_Node000033" class="edge">
<title>Node30&#45;&gt;Node33</title>
<g id="a_edge52_Node000030_Node000033"><a xlink:title=" ">
<path fill="none" stroke="#63b8ff" d="M1048.47,-381.78C1048.47,-374.04 1048.47,-362.45 1048.47,-351.87"/>
<polygon fill="#63b8ff" stroke="#63b8ff" points="1051.97,-352.11 1048.47,-342.11 1044.97,-352.11 1051.97,-352.11"/>
</a>
</g>
</g>
<!-- Node31&#45;&gt;Node5 -->
<g id="edge47_Node000031_Node000005" class="edge">
<title>Node31&#45;&gt;Node5</title>
<g id="a_edge47_Node000031_Node000005"><a xlink:title=" ">
<path fill="none" stroke="#63b8ff" d="M875.22,-316.47C790.39,-303.78 629.51,-279.5 603.47,-274 600.09,-273.28 596.59,-272.48 593.09,-271.64"/>
<polygon fill="#63b8ff" stroke="#63b8ff" points="594.03,-268.27 583.47,-269.2 592.31,-275.05 594.03,-268.27"/>
</a>
</g>
</g>
<!-- Node31&#45;&gt;Node12 -->
<g id="edge49_Node000031_Node000012" class="edge">
<title>Node31&#45;&gt;Node12</title>
<g id="a_edge49_Node000031_Node000012"><a xlink:title=" ">
<path fill="none" stroke="#63b8ff" d="M927.47,-309.62C927.47,-265.92 927.47,-136.28 927.47,-86.06"/>
<polygon fill="#63b8ff" stroke="#63b8ff" points="930.97,-86.38 927.47,-76.38 923.97,-86.38 930.97,-86.38"/>
</a>
</g>
</g>
<!-- Node31&#45;&gt;Node14 -->
<g id="edge50_Node000031_Node000014" class="edge">
<title>Node31&#45;&gt;Node14</title>
<g id="a_edge50_Node000031_Node000014"><a xlink:title=" ">
<path fill="none" stroke="#63b8ff" d="M894.95,-309.72C832.77,-282.17 692.42,-221.16 571.47,-177 527.64,-161 475.97,-145.11 443.96,-135.61"/>
<polygon fill="#63b8ff" stroke="#63b8ff" points="445.14,-132.31 434.56,-132.84 443.16,-139.03 445.14,-132.31"/>
</a>
</g>
</g>
<!-- Node31&#45;&gt;Node24 -->
<g id="edge51_Node000031_Node000024" class="edge">
<title>Node31&#45;&gt;Node24</title>
<g id="a_edge51_Node000031_Node000024"><a xlink:title=" ">
<path fill="none" stroke="#63b8ff" d="M875.29,-311.74C826.63,-300.07 754.62,-282.8 707.13,-271.42"/>
<polygon fill="#63b8ff" stroke="#63b8ff" points="708.22,-268.08 697.68,-269.15 706.59,-274.89 708.22,-268.08"/>
</a>
</g>
</g>
<!-- Node32 -->
<g id="Node000032" class="node">
<title>Node32</title>
<g id="a_Node000032"><a xlink:href="default__deleter_8hpp.html" target="_top" xlink:title=" ">
<polygon fill="white" stroke="#666666" points="1076.85,-274 976.1,-274 976.1,-243.5 1076.85,-243.5 1076.85,-274"/>
<text text-anchor="start" x="984.1" y="-260.5" font-family="Helvetica,sans-Serif" font-size="10.00">yaclib/util/detail</text>
<text text-anchor="middle" x="1026.47" y="-249.25" font-family="Helvetica,sans-Serif" font-size="10.00">/default_deleter.hpp</text>
</a>
</g>
</g>
<!-- Node31&#45;&gt;Node32 -->
<g id="edge48_Node000031_Node000032" class="edge">
<title>Node31&#45;&gt;Node32</title>
<g id="a_edge48_Node000031_Node000032"><a xlink:title=" ">
<path fill="none" stroke="#63b8ff" d="M949.94,-309.61C963.1,-301.04 979.94,-290.06 994.48,-280.59"/>
<polygon fill="#63b8ff" stroke="#63b8ff" points="996.36,-283.55 1002.83,-275.15 992.54,-277.68 996.36,-283.55"/>
</a>
</g>
</g>
<!-- Node33&#45;&gt;Node32 -->
<g id="edge53_Node000033_Node000032" class="edge">
<title>Node33&#45;&gt;Node32</title>
<g id="a_edge53_Node000033_Node000032"><a xlink:title=" ">
<path fill="none" stroke="#63b8ff" d="M1043.48,-309.61C1041,-302.36 1037.94,-293.38 1035.1,-285.06"/>
<polygon fill="#63b8ff" stroke="#63b8ff" points="1038.47,-284.1 1031.93,-275.76 1031.85,-286.36 1038.47,-284.1"/>
</a>
</g>
</g>
</g>
</svg>
