<?xml version="1.0" encoding="UTF-8" standalone="no"?>
<!DOCTYPE svg PUBLIC "-//W3C//DTD SVG 1.1//EN"
 "http://www.w3.org/Graphics/SVG/1.1/DTD/svg11.dtd">
<!-- Generated by graphviz version 3.0.0 (20221109.1736)
 -->
<!-- Title: include/yaclib/algo/one_shot_event.hpp Pages: 1 -->
<svg width="1229pt" height="486pt"
 viewBox="0.00 0.00 1229.00 486.00" xmlns="http://www.w3.org/2000/svg" xmlns:xlink="http://www.w3.org/1999/xlink">
<g id="graph0" class="graph" transform="scale(1 1) rotate(0) translate(4 482)">
<title>include/yaclib/algo/one_shot_event.hpp</title>
<!-- Node1 -->
<g id="node1" class="node">
<title>Node1</title>
<g id="a_node1"><a xlink:title=" ">
<polygon fill="#bfbfbf" stroke="black" points="313.5,-447.5 313.5,-477.5 420.5,-477.5 420.5,-447.5 313.5,-447.5"/>
<text text-anchor="start" x="321.5" y="-465.5" font-family="Helvetica,sans-Serif" font-size="10.00">include/yaclib/algo</text>
<text text-anchor="middle" x="367" y="-454.5" font-family="Helvetica,sans-Serif" font-size="10.00">/one_shot_event.hpp</text>
</a>
</g>
</g>
<!-- Node2 -->
<g id="node2" class="node">
<title>Node2</title>
<g id="a_node2"><a xlink:href="base__core_8hpp.html" target="_top" xlink:title=" ">
<polygon fill="none" stroke="black" points="578.5,-380.5 578.5,-410.5 667.5,-410.5 667.5,-380.5 578.5,-380.5"/>
<text text-anchor="start" x="586.5" y="-398.5" font-family="Helvetica,sans-Serif" font-size="10.00">yaclib/algo/detail</text>
<text text-anchor="middle" x="623" y="-387.5" font-family="Helvetica,sans-Serif" font-size="10.00">/base_core.hpp</text>
</a>
</g>
</g>
<!-- Node1&#45;&gt;Node2 -->
<g id="edge1" class="edge">
<title>Node1&#45;&gt;Node2</title>
<path fill="none" stroke="midnightblue" d="M420.67,-447.87C464.06,-436.86 524.89,-421.41 568.5,-410.34"/>
<polygon fill="midnightblue" stroke="midnightblue" points="569.53,-413.69 578.36,-407.83 567.81,-406.9 569.53,-413.69"/>
</g>
<!-- Node10 -->
<g id="node10" class="node">
<title>Node10</title>
<g id="a_node10"><a xlink:href="ref_8hpp.html" target="_top" xlink:title=" ">
<polygon fill="none" stroke="black" points="196.5,-56.5 196.5,-75.5 285.5,-75.5 285.5,-56.5 196.5,-56.5"/>
<text text-anchor="middle" x="241" y="-63.5" font-family="Helvetica,sans-Serif" font-size="10.00">yaclib/util/ref.hpp</text>
</a>
</g>
</g>
<!-- Node1&#45;&gt;Node10 -->
<g id="edge48" class="edge">
<title>Node1&#45;&gt;Node10</title>
<path fill="none" stroke="midnightblue" d="M313.24,-453.64C211.3,-437.23 0,-395.26 0,-329.5 0,-329.5 0,-329.5 0,-193.5 0,-109.95 114.95,-81.47 186.08,-71.84"/>
<polygon fill="midnightblue" stroke="midnightblue" points="186.75,-75.28 196.23,-70.55 185.87,-68.34 186.75,-75.28"/>
</g>
<!-- Node13 -->
<g id="node13" class="node">
<title>Node13</title>
<g id="a_node13"><a xlink:href="executor_8hpp.html" target="_top" xlink:title=" ">
<polygon fill="none" stroke="black" points="395.5,-252 395.5,-271 512.5,-271 512.5,-252 395.5,-252"/>
<text text-anchor="middle" x="454" y="-259" font-family="Helvetica,sans-Serif" font-size="10.00">yaclib/exe/executor.hpp</text>
</a>
</g>
</g>
<!-- Node1&#45;&gt;Node13 -->
<g id="edge29" class="edge">
<title>Node1&#45;&gt;Node13</title>
<path fill="none" stroke="midnightblue" d="M358.7,-447.31C350.16,-430.76 339.24,-402.78 348,-380 365.11,-335.5 407.73,-297.34 433.42,-277.37"/>
<polygon fill="midnightblue" stroke="midnightblue" points="435.86,-279.91 441.72,-271.08 431.64,-274.32 435.86,-279.91"/>
</g>
<!-- Node21 -->
<g id="node21" class="node">
<title>Node21</title>
<g id="a_node21"><a xlink:href="default__event_8hpp.html" target="_top" xlink:title=" ">
<polygon fill="none" stroke="black" points="357,-380.5 357,-410.5 453,-410.5 453,-380.5 357,-380.5"/>
<text text-anchor="start" x="365" y="-398.5" font-family="Helvetica,sans-Serif" font-size="10.00">yaclib/util/detail</text>
<text text-anchor="middle" x="405" y="-387.5" font-family="Helvetica,sans-Serif" font-size="10.00">/default_event.hpp</text>
</a>
</g>
</g>
<!-- Node1&#45;&gt;Node21 -->
<g id="edge30" class="edge">
<title>Node1&#45;&gt;Node21</title>
<path fill="none" stroke="midnightblue" d="M375.25,-447.4C380.03,-439.22 386.16,-428.73 391.62,-419.39"/>
<polygon fill="midnightblue" stroke="midnightblue" points="394.75,-420.98 396.77,-410.58 388.7,-417.44 394.75,-420.98"/>
</g>
<!-- Node22 -->
<g id="node22" class="node">
<title>Node22</title>
<g id="a_node22"><a xlink:href="mutex__event_8hpp.html" target="_top" xlink:title=" ">
<polygon fill="none" stroke="black" points="195.5,-313.5 195.5,-343.5 288.5,-343.5 288.5,-313.5 195.5,-313.5"/>
<text text-anchor="start" x="203.5" y="-331.5" font-family="Helvetica,sans-Serif" font-size="10.00">yaclib/util/detail</text>
<text text-anchor="middle" x="242" y="-320.5" font-family="Helvetica,sans-Serif" font-size="10.00">/mutex_event.hpp</text>
</a>
</g>
</g>
<!-- Node1&#45;&gt;Node22 -->
<g id="edge37" class="edge">
<title>Node1&#45;&gt;Node22</title>
<path fill="none" stroke="midnightblue" d="M351.71,-447.19C341.2,-437.22 327.03,-423.53 315,-411 296,-391.22 275.22,-367.83 260.7,-351.19"/>
<polygon fill="midnightblue" stroke="midnightblue" points="263.31,-348.86 254.11,-343.61 258.03,-353.46 263.31,-348.86"/>
</g>
<!-- Node26 -->
<g id="node26" class="node">
<title>Node26</title>
<g id="a_node26"><a xlink:href="helper_8hpp.html" target="_top" xlink:title=" ">
<polygon fill="none" stroke="black" points="955,-386 955,-405 1059,-405 1059,-386 955,-386"/>
<text text-anchor="middle" x="1007" y="-393" font-family="Helvetica,sans-Serif" font-size="10.00">yaclib/util/helper.hpp</text>
</a>
</g>
</g>
<!-- Node1&#45;&gt;Node26 -->
<g id="edge38" class="edge">
<title>Node1&#45;&gt;Node26</title>
<path fill="none" stroke="midnightblue" d="M420.74,-456.04C538.54,-444.08 818.96,-415.6 944.43,-402.85"/>
<polygon fill="midnightblue" stroke="midnightblue" points="945.05,-406.31 954.64,-401.82 944.34,-399.35 945.05,-406.31"/>
</g>
<!-- Node3 -->
<g id="node3" class="node">
<title>Node3</title>
<g id="a_node3"><a xlink:href="inline__core_8hpp.html" target="_top" xlink:title=" ">
<polygon fill="none" stroke="black" points="689.5,-313.5 689.5,-343.5 778.5,-343.5 778.5,-313.5 689.5,-313.5"/>
<text text-anchor="start" x="697.5" y="-331.5" font-family="Helvetica,sans-Serif" font-size="10.00">yaclib/algo/detail</text>
<text text-anchor="middle" x="734" y="-320.5" font-family="Helvetica,sans-Serif" font-size="10.00">/inline_core.hpp</text>
</a>
</g>
</g>
<!-- Node2&#45;&gt;Node3 -->
<g id="edge2" class="edge">
<title>Node2&#45;&gt;Node3</title>
<path fill="none" stroke="midnightblue" d="M647.09,-380.4C662.94,-371.11 683.89,-358.84 701.26,-348.67"/>
<polygon fill="midnightblue" stroke="midnightblue" points="703.1,-351.65 709.96,-343.58 699.56,-345.61 703.1,-351.65"/>
</g>
<!-- Node4 -->
<g id="node4" class="node">
<title>Node4</title>
<g id="a_node4"><a xlink:title=" ">
<polygon fill="none" stroke="#bfbfbf" points="665,-252 665,-271 753,-271 753,-252 665,-252"/>
<text text-anchor="middle" x="709" y="-259" font-family="Helvetica,sans-Serif" font-size="10.00">yaclib/config.hpp</text>
</a>
</g>
</g>
<!-- Node2&#45;&gt;Node4 -->
<g id="edge13" class="edge">
<title>Node2&#45;&gt;Node4</title>
<path fill="none" stroke="midnightblue" d="M632.2,-380.37C648.1,-355.97 680.66,-306 697.83,-279.65"/>
<polygon fill="midnightblue" stroke="midnightblue" points="700.87,-281.39 703.4,-271.1 695.01,-277.57 700.87,-281.39"/>
</g>
<!-- Node6 -->
<g id="node6" class="node">
<title>Node6</title>
<g id="a_node6"><a xlink:href="log_8hpp.html" target="_top" xlink:title=" ">
<polygon fill="none" stroke="black" points="700.5,-56.5 700.5,-75.5 775.5,-75.5 775.5,-56.5 700.5,-56.5"/>
<text text-anchor="middle" x="738" y="-63.5" font-family="Helvetica,sans-Serif" font-size="10.00">yaclib/log.hpp</text>
</a>
</g>
</g>
<!-- Node2&#45;&gt;Node6 -->
<g id="edge24" class="edge">
<title>Node2&#45;&gt;Node6</title>
<path fill="none" stroke="midnightblue" d="M623.47,-380.46C624.95,-352.95 631.02,-290.74 656,-246 688.02,-188.64 736.43,-203.51 762,-143 770.3,-123.37 759.92,-99.85 750.34,-84.22"/>
<polygon fill="midnightblue" stroke="midnightblue" points="753.09,-82.03 744.65,-75.62 747.25,-85.89 753.09,-82.03"/>
</g>
<!-- Node2&#45;&gt;Node10 -->
<g id="edge25" class="edge">
<title>Node2&#45;&gt;Node10</title>
<path fill="none" stroke="midnightblue" d="M578.15,-390.19C537.63,-384.6 477.68,-372.01 433,-344 431.44,-343.02 260.85,-144.64 260,-143 250.64,-124.92 245.73,-102.01 243.27,-86.09"/>
<polygon fill="midnightblue" stroke="midnightblue" points="246.7,-85.34 241.88,-75.9 239.76,-86.28 246.7,-85.34"/>
</g>
<!-- Node2&#45;&gt;Node13 -->
<g id="edge14" class="edge">
<title>Node2&#45;&gt;Node13</title>
<path fill="none" stroke="midnightblue" d="M578.18,-388.09C530.64,-380.26 460.17,-365.37 444,-344 430.19,-325.76 437.63,-298.35 445.1,-280.45"/>
<polygon fill="midnightblue" stroke="midnightblue" points="448.38,-281.69 449.34,-271.14 442.01,-278.79 448.38,-281.69"/>
</g>
<!-- Node16 -->
<g id="node16" class="node">
<title>Node16</title>
<g id="a_node16"><a xlink:href="inline_8hpp.html" target="_top" xlink:title=" ">
<polygon fill="none" stroke="black" points="453.5,-319 453.5,-338 556.5,-338 556.5,-319 453.5,-319"/>
<text text-anchor="middle" x="505" y="-326" font-family="Helvetica,sans-Serif" font-size="10.00">yaclib/exe/inline.hpp</text>
</a>
</g>
</g>
<!-- Node2&#45;&gt;Node16 -->
<g id="edge21" class="edge">
<title>Node2&#45;&gt;Node16</title>
<path fill="none" stroke="midnightblue" d="M597.4,-380.4C577.15,-369.24 549.08,-353.78 529.21,-342.83"/>
<polygon fill="midnightblue" stroke="midnightblue" points="530.89,-339.77 520.44,-338.01 527.51,-345.9 530.89,-339.77"/>
</g>
<!-- Node18 -->
<g id="node18" class="node">
<title>Node18</title>
<g id="a_node18"><a xlink:title=" ">
<polygon fill="none" stroke="#bfbfbf" points="797,-319 797,-338 843,-338 843,-319 797,-319"/>
<text text-anchor="middle" x="820" y="-326" font-family="Helvetica,sans-Serif" font-size="10.00">cstdint</text>
</a>
</g>
</g>
<!-- Node2&#45;&gt;Node18 -->
<g id="edge26" class="edge">
<title>Node2&#45;&gt;Node18</title>
<path fill="none" stroke="midnightblue" d="M667.66,-382.26C700.91,-372.78 747.21,-358.81 787,-344 788.65,-343.38 790.34,-342.73 792.04,-342.05"/>
<polygon fill="midnightblue" stroke="midnightblue" points="793.79,-345.11 801.65,-338.01 791.08,-338.66 793.79,-345.11"/>
</g>
<!-- Node19 -->
<g id="node19" class="node">
<title>Node19</title>
<g id="a_node19"><a xlink:title=" ">
<polygon fill="none" stroke="#bfbfbf" points="861,-319 861,-338 901,-338 901,-319 861,-319"/>
<text text-anchor="middle" x="881" y="-326" font-family="Helvetica,sans-Serif" font-size="10.00">limits</text>
</a>
</g>
</g>
<!-- Node2&#45;&gt;Node19 -->
<g id="edge27" class="edge">
<title>Node2&#45;&gt;Node19</title>
<path fill="none" stroke="midnightblue" d="M667.81,-387.98C714.64,-380.39 789.83,-366.02 852,-344 853.43,-343.5 854.87,-342.94 856.32,-342.34"/>
<polygon fill="midnightblue" stroke="midnightblue" points="858.03,-345.41 865.66,-338.05 855.11,-339.05 858.03,-345.41"/>
</g>
<!-- Node20 -->
<g id="node20" class="node">
<title>Node20</title>
<g id="a_node20"><a xlink:title=" ">
<polygon fill="none" stroke="#bfbfbf" points="847,-252 847,-271 939,-271 939,-252 847,-252"/>
<text text-anchor="middle" x="893" y="-259" font-family="Helvetica,sans-Serif" font-size="10.00">yaclib_std/atomic</text>
</a>
</g>
</g>
<!-- Node2&#45;&gt;Node20 -->
<g id="edge28" class="edge">
<title>Node2&#45;&gt;Node20</title>
<path fill="none" stroke="midnightblue" d="M667.68,-393.37C740.47,-390.48 879.59,-380.23 910,-344 925.05,-326.07 914.25,-298.19 904.28,-280.14"/>
<polygon fill="midnightblue" stroke="midnightblue" points="907.12,-278.06 899,-271.25 901.1,-281.63 907.12,-278.06"/>
</g>
<!-- Node3&#45;&gt;Node4 -->
<g id="edge3" class="edge">
<title>Node3&#45;&gt;Node4</title>
<path fill="none" stroke="midnightblue" d="M728.58,-313.4C724.87,-303.76 719.93,-290.91 715.94,-280.54"/>
<polygon fill="midnightblue" stroke="midnightblue" points="719.2,-279.27 712.34,-271.19 712.67,-281.78 719.2,-279.27"/>
</g>
<!-- Node5 -->
<g id="node5" class="node">
<title>Node5</title>
<g id="a_node5"><a xlink:href="job_8hpp.html" target="_top" xlink:title=" ">
<polygon fill="none" stroke="black" points="409.5,-185 409.5,-204 502.5,-204 502.5,-185 409.5,-185"/>
<text text-anchor="middle" x="456" y="-192" font-family="Helvetica,sans-Serif" font-size="10.00">yaclib/exe/job.hpp</text>
</a>
</g>
</g>
<!-- Node3&#45;&gt;Node5 -->
<g id="edge4" class="edge">
<title>Node3&#45;&gt;Node5</title>
<path fill="none" stroke="midnightblue" d="M746.51,-313.21C760.42,-295.55 778.85,-265.44 762,-246 725.09,-203.42 566.22,-221.2 511,-210 505.99,-208.98 500.75,-207.78 495.59,-206.52"/>
<polygon fill="midnightblue" stroke="midnightblue" points="496.38,-203.11 485.83,-204.03 494.65,-209.89 496.38,-203.11"/>
</g>
<!-- Node3&#45;&gt;Node6 -->
<g id="edge12" class="edge">
<title>Node3&#45;&gt;Node6</title>
<path fill="none" stroke="midnightblue" d="M751.38,-313.47C761.52,-304.24 773.54,-291.26 780,-277 804.72,-222.41 791.66,-202.83 795,-143 795.77,-129.24 801.01,-124.4 795,-112 788.6,-98.8 776.25,-88.3 764.67,-80.78"/>
<polygon fill="midnightblue" stroke="midnightblue" points="766.45,-77.77 756.08,-75.61 762.84,-83.77 766.45,-77.77"/>
</g>
<!-- Node5&#45;&gt;Node6 -->
<g id="edge5" class="edge">
<title>Node5&#45;&gt;Node6</title>
<path fill="none" stroke="midnightblue" d="M473.67,-184.91C504.98,-169.77 572.34,-137.5 630,-112 655.94,-100.53 685.71,-88.19 707.41,-79.33"/>
<polygon fill="midnightblue" stroke="midnightblue" points="708.83,-82.53 716.78,-75.53 706.19,-76.05 708.83,-82.53"/>
</g>
<!-- Node8 -->
<g id="node8" class="node">
<title>Node8</title>
<g id="a_node8"><a xlink:href="node_8hpp.html" target="_top" xlink:title=" ">
<polygon fill="none" stroke="black" points="269.5,-112.5 269.5,-142.5 352.5,-142.5 352.5,-112.5 269.5,-112.5"/>
<text text-anchor="start" x="277.5" y="-130.5" font-family="Helvetica,sans-Serif" font-size="10.00">yaclib/util/detail</text>
<text text-anchor="middle" x="311" y="-119.5" font-family="Helvetica,sans-Serif" font-size="10.00">/node.hpp</text>
</a>
</g>
</g>
<!-- Node5&#45;&gt;Node8 -->
<g id="edge7" class="edge">
<title>Node5&#45;&gt;Node8</title>
<path fill="none" stroke="midnightblue" d="M436.75,-184.87C415.18,-175.2 379.59,-159.25 351.77,-146.78"/>
<polygon fill="midnightblue" stroke="midnightblue" points="352.85,-143.42 342.29,-142.53 349.99,-149.81 352.85,-143.42"/>
</g>
<!-- Node9 -->
<g id="node9" class="node">
<title>Node9</title>
<g id="a_node9"><a xlink:href="func_8hpp.html" target="_top" xlink:title=" ">
<polygon fill="none" stroke="black" points="409.5,-118 409.5,-137 506.5,-137 506.5,-118 409.5,-118"/>
<text text-anchor="middle" x="458" y="-125" font-family="Helvetica,sans-Serif" font-size="10.00">yaclib/util/func.hpp</text>
</a>
</g>
</g>
<!-- Node5&#45;&gt;Node9 -->
<g id="edge8" class="edge">
<title>Node5&#45;&gt;Node9</title>
<path fill="none" stroke="midnightblue" d="M456.27,-184.73C456.56,-175.18 457.04,-159.62 457.42,-147.28"/>
<polygon fill="midnightblue" stroke="midnightblue" points="460.93,-147.23 457.73,-137.13 453.93,-147.01 460.93,-147.23"/>
</g>
<!-- Node7 -->
<g id="node7" class="node">
<title>Node7</title>
<g id="a_node7"><a xlink:title=" ">
<polygon fill="none" stroke="#bfbfbf" points="705,-0.5 705,-19.5 771,-19.5 771,-0.5 705,-0.5"/>
<text text-anchor="middle" x="738" y="-7.5" font-family="Helvetica,sans-Serif" font-size="10.00">string_view</text>
</a>
</g>
</g>
<!-- Node6&#45;&gt;Node7 -->
<g id="edge6" class="edge">
<title>Node6&#45;&gt;Node7</title>
<path fill="none" stroke="midnightblue" d="M738,-56.08C738,-49.01 738,-38.86 738,-29.99"/>
<polygon fill="midnightblue" stroke="midnightblue" points="741.5,-29.75 738,-19.75 734.5,-29.75 741.5,-29.75"/>
</g>
<!-- Node9&#45;&gt;Node10 -->
<g id="edge9" class="edge">
<title>Node9&#45;&gt;Node10</title>
<path fill="none" stroke="midnightblue" d="M426.91,-117.98C388.72,-107.5 323.83,-89.71 281.7,-78.16"/>
<polygon fill="midnightblue" stroke="midnightblue" points="282.6,-74.78 272.03,-75.51 280.75,-81.53 282.6,-74.78"/>
</g>
<!-- Node11 -->
<g id="node11" class="node">
<title>Node11</title>
<g id="a_node11"><a xlink:title=" ">
<polygon fill="none" stroke="#bfbfbf" points="448,-56.5 448,-75.5 510,-75.5 510,-56.5 448,-56.5"/>
<text text-anchor="middle" x="479" y="-63.5" font-family="Helvetica,sans-Serif" font-size="10.00">type_traits</text>
</a>
</g>
</g>
<!-- Node9&#45;&gt;Node11 -->
<g id="edge10" class="edge">
<title>Node9&#45;&gt;Node11</title>
<path fill="none" stroke="midnightblue" d="M461.01,-117.98C464.03,-109.4 468.79,-95.93 472.65,-84.98"/>
<polygon fill="midnightblue" stroke="midnightblue" points="475.97,-86.1 476,-75.51 469.37,-83.77 475.97,-86.1"/>
</g>
<!-- Node12 -->
<g id="node12" class="node">
<title>Node12</title>
<g id="a_node12"><a xlink:title=" ">
<polygon fill="none" stroke="#bfbfbf" points="549.5,-56.5 549.5,-75.5 588.5,-75.5 588.5,-56.5 549.5,-56.5"/>
<text text-anchor="middle" x="569" y="-63.5" font-family="Helvetica,sans-Serif" font-size="10.00">utility</text>
</a>
</g>
</g>
<!-- Node9&#45;&gt;Node12 -->
<g id="edge11" class="edge">
<title>Node9&#45;&gt;Node12</title>
<path fill="none" stroke="midnightblue" d="M473.9,-117.98C492.28,-108.12 522.76,-91.79 544.24,-80.27"/>
<polygon fill="midnightblue" stroke="midnightblue" points="545.97,-83.32 553.13,-75.51 542.66,-77.15 545.97,-83.32"/>
</g>
<!-- Node13&#45;&gt;Node5 -->
<g id="edge15" class="edge">
<title>Node13&#45;&gt;Node5</title>
<path fill="none" stroke="midnightblue" d="M454.27,-251.73C454.56,-242.18 455.04,-226.62 455.42,-214.28"/>
<polygon fill="midnightblue" stroke="midnightblue" points="458.93,-214.23 455.73,-204.13 451.93,-214.01 458.93,-214.23"/>
</g>
<!-- Node14 -->
<g id="node14" class="node">
<title>Node14</title>
<g id="a_node14"><a xlink:href="intrusive__ptr_8hpp.html" target="_top" xlink:title=" ">
<polygon fill="none" stroke="black" points="520.5,-179.5 520.5,-209.5 617.5,-209.5 617.5,-179.5 520.5,-179.5"/>
<text text-anchor="start" x="528.5" y="-197.5" font-family="Helvetica,sans-Serif" font-size="10.00">yaclib/util/intrusive</text>
<text text-anchor="middle" x="569" y="-186.5" font-family="Helvetica,sans-Serif" font-size="10.00">_ptr.hpp</text>
</a>
</g>
</g>
<!-- Node13&#45;&gt;Node14 -->
<g id="edge16" class="edge">
<title>Node13&#45;&gt;Node14</title>
<path fill="none" stroke="midnightblue" d="M469.51,-251.73C486.25,-242.27 513.42,-226.91 535.14,-214.64"/>
<polygon fill="midnightblue" stroke="midnightblue" points="537.09,-217.56 544.07,-209.59 533.65,-211.46 537.09,-217.56"/>
</g>
<!-- Node14&#45;&gt;Node10 -->
<g id="edge17" class="edge">
<title>Node14&#45;&gt;Node10</title>
<path fill="none" stroke="midnightblue" d="M520.26,-181.14C478.18,-170.07 420.97,-153.94 400,-143 380.37,-132.76 380.27,-122.91 361,-112 335.84,-97.76 305.31,-86.38 281.34,-78.63"/>
<polygon fill="midnightblue" stroke="midnightblue" points="282.09,-75.19 271.5,-75.53 279.99,-81.87 282.09,-75.19"/>
</g>
<!-- Node14&#45;&gt;Node11 -->
<g id="edge18" class="edge">
<title>Node14&#45;&gt;Node11</title>
<path fill="none" stroke="midnightblue" d="M560.2,-179.4C549.8,-162.94 531.8,-135.04 515,-112 508,-102.4 499.75,-92.02 492.91,-83.66"/>
<polygon fill="midnightblue" stroke="midnightblue" points="495.48,-81.27 486.41,-75.78 490.08,-85.72 495.48,-81.27"/>
</g>
<!-- Node15 -->
<g id="node15" class="node">
<title>Node15</title>
<g id="a_node15"><a xlink:href="intrusive__ptr__impl_8hpp.html" target="_top" xlink:title=" ">
<polygon fill="none" stroke="black" points="639,-112.5 639,-142.5 753,-142.5 753,-112.5 639,-112.5"/>
<text text-anchor="start" x="647" y="-130.5" font-family="Helvetica,sans-Serif" font-size="10.00">yaclib/util/detail</text>
<text text-anchor="middle" x="696" y="-119.5" font-family="Helvetica,sans-Serif" font-size="10.00">/intrusive_ptr_impl.hpp</text>
</a>
</g>
</g>
<!-- Node14&#45;&gt;Node15 -->
<g id="edge19" class="edge">
<title>Node14&#45;&gt;Node15</title>
<path fill="none" stroke="midnightblue" d="M596.56,-179.4C614.95,-169.98 639.33,-157.5 659.35,-147.26"/>
<polygon fill="midnightblue" stroke="midnightblue" points="661.19,-150.25 668.5,-142.58 658,-144.02 661.19,-150.25"/>
</g>
<!-- Node15&#45;&gt;Node6 -->
<g id="edge20" class="edge">
<title>Node15&#45;&gt;Node6</title>
<path fill="none" stroke="midnightblue" d="M705.95,-112.4C711.99,-103.84 719.74,-92.87 726.1,-83.86"/>
<polygon fill="midnightblue" stroke="midnightblue" points="728.98,-85.85 731.89,-75.66 723.26,-81.81 728.98,-85.85"/>
</g>
<!-- Node16&#45;&gt;Node13 -->
<g id="edge22" class="edge">
<title>Node16&#45;&gt;Node13</title>
<path fill="none" stroke="midnightblue" d="M498.12,-318.73C490.17,-308.6 476.9,-291.69 466.99,-279.06"/>
<polygon fill="midnightblue" stroke="midnightblue" points="469.7,-276.83 460.77,-271.13 464.19,-281.16 469.7,-276.83"/>
</g>
<!-- Node17 -->
<g id="node17" class="node">
<title>Node17</title>
<g id="a_node17"><a xlink:href="fwd_8hpp.html" target="_top" xlink:title=" ">
<polygon fill="none" stroke="black" points="531,-252 531,-271 609,-271 609,-252 531,-252"/>
<text text-anchor="middle" x="570" y="-259" font-family="Helvetica,sans-Serif" font-size="10.00">yaclib/fwd.hpp</text>
</a>
</g>
</g>
<!-- Node16&#45;&gt;Node17 -->
<g id="edge23" class="edge">
<title>Node16&#45;&gt;Node17</title>
<path fill="none" stroke="midnightblue" d="M513.77,-318.73C524.1,-308.4 541.46,-291.04 554.17,-278.33"/>
<polygon fill="midnightblue" stroke="midnightblue" points="556.78,-280.67 561.37,-271.13 551.83,-275.72 556.78,-280.67"/>
</g>
<!-- Node21&#45;&gt;Node4 -->
<g id="edge31" class="edge">
<title>Node21&#45;&gt;Node4</title>
<path fill="none" stroke="midnightblue" d="M453.21,-382.13C485.47,-373.17 528.54,-359.86 565,-344 610.44,-324.23 660.02,-294.1 687.54,-276.55"/>
<polygon fill="midnightblue" stroke="midnightblue" points="689.47,-279.46 695.98,-271.11 685.68,-273.58 689.47,-279.46"/>
</g>
<!-- Node21&#45;&gt;Node22 -->
<g id="edge32" class="edge">
<title>Node21&#45;&gt;Node22</title>
<path fill="none" stroke="midnightblue" d="M369.63,-380.4C345.28,-370.69 312.74,-357.71 286.61,-347.29"/>
<polygon fill="midnightblue" stroke="midnightblue" points="287.88,-344.03 277.3,-343.58 285.29,-350.53 287.88,-344.03"/>
</g>
<!-- Node22&#45;&gt;Node10 -->
<g id="edge33" class="edge">
<title>Node22&#45;&gt;Node10</title>
<path fill="none" stroke="midnightblue" d="M195.26,-321.24C146.14,-313.59 73.72,-298.9 57,-277 -2.74,-198.76 148.08,-112.51 213,-80.18"/>
<polygon fill="midnightblue" stroke="midnightblue" points="214.83,-83.18 222.28,-75.64 211.76,-76.9 214.83,-83.18"/>
</g>
<!-- Node23 -->
<g id="node23" class="node">
<title>Node23</title>
<g id="a_node23"><a xlink:title=" ">
<polygon fill="none" stroke="#bfbfbf" points="293,-252 293,-271 339,-271 339,-252 293,-252"/>
<text text-anchor="middle" x="316" y="-259" font-family="Helvetica,sans-Serif" font-size="10.00">chrono</text>
</a>
</g>
</g>
<!-- Node22&#45;&gt;Node23 -->
<g id="edge34" class="edge">
<title>Node22&#45;&gt;Node23</title>
<path fill="none" stroke="midnightblue" d="M258.06,-313.4C269.94,-302.96 286.11,-288.75 298.36,-278"/>
<polygon fill="midnightblue" stroke="midnightblue" points="300.9,-280.42 306.1,-271.19 296.28,-275.16 300.9,-280.42"/>
</g>
<!-- Node24 -->
<g id="node24" class="node">
<title>Node24</title>
<g id="a_node24"><a xlink:title=" ">
<polygon fill="none" stroke="#bfbfbf" points="66,-246.5 66,-276.5 168,-276.5 168,-246.5 66,-246.5"/>
<text text-anchor="start" x="74" y="-264.5" font-family="Helvetica,sans-Serif" font-size="10.00">yaclib_std/condition</text>
<text text-anchor="middle" x="117" y="-253.5" font-family="Helvetica,sans-Serif" font-size="10.00">_variable</text>
</a>
</g>
</g>
<!-- Node22&#45;&gt;Node24 -->
<g id="edge35" class="edge">
<title>Node22&#45;&gt;Node24</title>
<path fill="none" stroke="midnightblue" d="M214.88,-313.4C196.78,-303.98 172.77,-291.5 153.07,-281.26"/>
<polygon fill="midnightblue" stroke="midnightblue" points="154.56,-278.08 144.07,-276.58 151.33,-284.3 154.56,-278.08"/>
</g>
<!-- Node25 -->
<g id="node25" class="node">
<title>Node25</title>
<g id="a_node25"><a xlink:title=" ">
<polygon fill="none" stroke="#bfbfbf" points="185.5,-252 185.5,-271 274.5,-271 274.5,-252 185.5,-252"/>
<text text-anchor="middle" x="230" y="-259" font-family="Helvetica,sans-Serif" font-size="10.00">yaclib_std/mutex</text>
</a>
</g>
</g>
<!-- Node22&#45;&gt;Node25 -->
<g id="edge36" class="edge">
<title>Node22&#45;&gt;Node25</title>
<path fill="none" stroke="midnightblue" d="M239.4,-313.4C237.65,-303.96 235.34,-291.45 233.45,-281.19"/>
<polygon fill="midnightblue" stroke="midnightblue" points="236.86,-280.39 231.61,-271.19 229.98,-281.66 236.86,-280.39"/>
</g>
<!-- Node26&#45;&gt;Node14 -->
<g id="edge47" class="edge">
<title>Node26&#45;&gt;Node14</title>
<path fill="none" stroke="midnightblue" d="M1003.37,-385.95C999.13,-375.93 991.95,-358.8 986,-344 968.59,-300.65 984.86,-274.7 948,-246 896.24,-205.7 719.92,-219.46 655,-210 646.09,-208.7 636.67,-207.22 627.47,-205.72"/>
<polygon fill="midnightblue" stroke="midnightblue" points="628.04,-202.27 617.61,-204.09 626.9,-209.17 628.04,-202.27"/>
</g>
<!-- Node27 -->
<g id="node27" class="node">
<title>Node27</title>
<g id="a_node27"><a xlink:href="atomic__counter_8hpp.html" target="_top" xlink:title=" ">
<polygon fill="none" stroke="black" points="995,-313.5 995,-343.5 1099,-343.5 1099,-313.5 995,-313.5"/>
<text text-anchor="start" x="1003" y="-331.5" font-family="Helvetica,sans-Serif" font-size="10.00">yaclib/util/detail</text>
<text text-anchor="middle" x="1047" y="-320.5" font-family="Helvetica,sans-Serif" font-size="10.00">/atomic_counter.hpp</text>
</a>
</g>
</g>
<!-- Node26&#45;&gt;Node27 -->
<g id="edge39" class="edge">
<title>Node26&#45;&gt;Node27</title>
<path fill="none" stroke="midnightblue" d="M1012.39,-385.73C1017.64,-377.2 1025.85,-363.87 1032.95,-352.33"/>
<polygon fill="midnightblue" stroke="midnightblue" points="1036.07,-353.94 1038.33,-343.59 1030.11,-350.27 1036.07,-353.94"/>
</g>
<!-- Node30 -->
<g id="node30" class="node">
<title>Node30</title>
<g id="a_node30"><a xlink:href="unique__counter_8hpp.html" target="_top" xlink:title=" ">
<polygon fill="none" stroke="black" points="1117,-313.5 1117,-343.5 1221,-343.5 1221,-313.5 1117,-313.5"/>
<text text-anchor="start" x="1125" y="-331.5" font-family="Helvetica,sans-Serif" font-size="10.00">yaclib/util/detail</text>
<text text-anchor="middle" x="1169" y="-320.5" font-family="Helvetica,sans-Serif" font-size="10.00">/unique_counter.hpp</text>
</a>
</g>
</g>
<!-- Node26&#45;&gt;Node30 -->
<g id="edge45" class="edge">
<title>Node26&#45;&gt;Node30</title>
<path fill="none" stroke="midnightblue" d="M1028.51,-385.87C1052.93,-376.07 1093.41,-359.83 1124.66,-347.29"/>
<polygon fill="midnightblue" stroke="midnightblue" points="1126.06,-350.5 1134.04,-343.53 1123.45,-344 1126.06,-350.5"/>
</g>
<!-- Node27&#45;&gt;Node4 -->
<g id="edge40" class="edge">
<title>Node27&#45;&gt;Node4</title>
<path fill="none" stroke="midnightblue" d="M994.93,-317.49C932,-305.38 826.65,-285.12 762.91,-272.87"/>
<polygon fill="midnightblue" stroke="midnightblue" points="763.53,-269.42 753.05,-270.97 762.21,-276.3 763.53,-269.42"/>
</g>
<!-- Node27&#45;&gt;Node12 -->
<g id="edge43" class="edge">
<title>Node27&#45;&gt;Node12</title>
<path fill="none" stroke="midnightblue" d="M1053.27,-313.44C1060.09,-295.73 1068.16,-265.3 1053,-246 933.46,-93.85 793.25,-246.87 630,-143 607.09,-128.42 588.93,-102.25 578.57,-84.75"/>
<polygon fill="midnightblue" stroke="midnightblue" points="581.36,-82.58 573.39,-75.61 575.27,-86.03 581.36,-82.58"/>
</g>
<!-- Node27&#45;&gt;Node20 -->
<g id="edge44" class="edge">
<title>Node27&#45;&gt;Node20</title>
<path fill="none" stroke="midnightblue" d="M1013.58,-313.4C986.44,-301.94 948.53,-285.94 922.5,-274.95"/>
<polygon fill="midnightblue" stroke="midnightblue" points="923.73,-271.67 913.16,-271.01 921.01,-278.12 923.73,-271.67"/>
</g>
<!-- Node28 -->
<g id="node28" class="node">
<title>Node28</title>
<g id="a_node28"><a xlink:href="default__deleter_8hpp.html" target="_top" xlink:title=" ">
<polygon fill="none" stroke="black" points="1110.5,-246.5 1110.5,-276.5 1211.5,-276.5 1211.5,-246.5 1110.5,-246.5"/>
<text text-anchor="start" x="1118.5" y="-264.5" font-family="Helvetica,sans-Serif" font-size="10.00">yaclib/util/detail</text>
<text text-anchor="middle" x="1161" y="-253.5" font-family="Helvetica,sans-Serif" font-size="10.00">/default_deleter.hpp</text>
</a>
</g>
</g>
<!-- Node27&#45;&gt;Node28 -->
<g id="edge41" class="edge">
<title>Node27&#45;&gt;Node28</title>
<path fill="none" stroke="midnightblue" d="M1071.74,-313.4C1088.02,-304.11 1109.54,-291.84 1127.37,-281.67"/>
<polygon fill="midnightblue" stroke="midnightblue" points="1129.36,-284.57 1136.31,-276.58 1125.89,-278.49 1129.36,-284.57"/>
</g>
<!-- Node29 -->
<g id="node29" class="node">
<title>Node29</title>
<g id="a_node29"><a xlink:title=" ">
<polygon fill="none" stroke="#bfbfbf" points="995.5,-252 995.5,-271 1044.5,-271 1044.5,-252 995.5,-252"/>
<text text-anchor="middle" x="1020" y="-259" font-family="Helvetica,sans-Serif" font-size="10.00">cstddef</text>
</a>
</g>
</g>
<!-- Node27&#45;&gt;Node29 -->
<g id="edge42" class="edge">
<title>Node27&#45;&gt;Node29</title>
<path fill="none" stroke="midnightblue" d="M1041.14,-313.4C1037.14,-303.76 1031.8,-290.91 1027.49,-280.54"/>
<polygon fill="midnightblue" stroke="midnightblue" points="1030.68,-279.09 1023.61,-271.19 1024.22,-281.77 1030.68,-279.09"/>
</g>
<!-- Node30&#45;&gt;Node28 -->
<g id="edge46" class="edge">
<title>Node30&#45;&gt;Node28</title>
<path fill="none" stroke="midnightblue" d="M1167.26,-313.4C1166.3,-305.56 1165.07,-295.6 1163.96,-286.57"/>
<polygon fill="midnightblue" stroke="midnightblue" points="1167.43,-286.07 1162.73,-276.58 1160.48,-286.93 1167.43,-286.07"/>
</g>
</g>
</svg>
