<?xml version="1.0" encoding="UTF-8" standalone="no"?>
<!DOCTYPE svg PUBLIC "-//W3C//DTD SVG 1.1//EN"
 "http://www.w3.org/Graphics/SVG/1.1/DTD/svg11.dtd">
<!-- Generated by graphviz version 9.0.0 (20230911.1827)
 -->
<!-- Title: include/yaclib/algo/detail/promise_core.hpp Pages: 1 -->
<svg width="1230pt" height="603pt"
 viewBox="0.00 0.00 1230.00 603.25" xmlns="http://www.w3.org/2000/svg" xmlns:xlink="http://www.w3.org/1999/xlink">
<g id="graph0" class="graph" transform="scale(1 1) rotate(0) translate(4 599.25)">
<title>include/yaclib/algo/detail/promise_core.hpp</title>
<!-- Node1 -->
<g id="Node000001" class="node">
<title>Node1</title>
<g id="a_Node000001"><a xlink:title=" ">
<polygon fill="#999999" stroke="#666666" points="655.88,-595.25 534.12,-595.25 534.12,-564.75 655.88,-564.75 655.88,-595.25"/>
<text text-anchor="start" x="542.12" y="-581.75" font-family="Helvetica,sans-Serif" font-size="10.00">include/yaclib/algo</text>
<text text-anchor="middle" x="595" y="-570.5" font-family="Helvetica,sans-Serif" font-size="10.00">/detail/promise_core.hpp</text>
</a>
</g>
</g>
<!-- Node2 -->
<g id="Node000002" class="node">
<title>Node2</title>
<g id="a_Node000002"><a xlink:href="func__core_8hpp.html" target="_top" xlink:title=" ">
<polygon fill="white" stroke="#666666" points="506,-141 418,-141 418,-110.5 506,-110.5 506,-141"/>
<text text-anchor="start" x="426" y="-127.5" font-family="Helvetica,sans-Serif" font-size="10.00">yaclib/algo/detail</text>
<text text-anchor="middle" x="462" y="-116.25" font-family="Helvetica,sans-Serif" font-size="10.00">/func_core.hpp</text>
</a>
</g>
</g>
<!-- Node1&#45;&gt;Node2 -->
<g id="edge1_Node000001_Node000002" class="edge">
<title>Node1&#45;&gt;Node2</title>
<g id="a_edge1_Node000001_Node000002"><a xlink:title=" ">
<path fill="none" stroke="#63b8ff" d="M567.1,-564.28C531.93,-543.48 476,-501.92 476,-448 476,-448 476,-448 476,-257.75 476,-221.02 470.49,-178.83 466.39,-152.48"/>
<polygon fill="#63b8ff" stroke="#63b8ff" points="469.86,-152.04 464.81,-142.73 462.95,-153.16 469.86,-152.04"/>
</a>
</g>
</g>
<!-- Node5 -->
<g id="Node000005" class="node">
<title>Node5</title>
<g id="a_Node000005"><a xlink:title=" ">
<polygon fill="#e0e0e0" stroke="#999999" points="187.5,-74.5 126.5,-74.5 126.5,-55.25 187.5,-55.25 187.5,-74.5"/>
<text text-anchor="middle" x="157" y="-61" font-family="Helvetica,sans-Serif" font-size="10.00">type_traits</text>
</a>
</g>
</g>
<!-- Node1&#45;&gt;Node5 -->
<g id="edge51_Node000001_Node000005" class="edge">
<title>Node1&#45;&gt;Node5</title>
<g id="a_edge51_Node000001_Node000005"><a xlink:title=" ">
<path fill="none" stroke="#63b8ff" d="M533.84,-578.39C382.01,-575.22 0,-556.48 0,-448 0,-448 0,-448 0,-191.25 0,-131.99 69.14,-96.17 115.65,-78.78"/>
<polygon fill="#63b8ff" stroke="#63b8ff" points="116.7,-82.12 124.93,-75.46 114.34,-75.53 116.7,-82.12"/>
</a>
</g>
</g>
<!-- Node6 -->
<g id="Node000006" class="node">
<title>Node6</title>
<g id="a_Node000006"><a xlink:title=" ">
<polygon fill="#e0e0e0" stroke="#999999" points="648.25,-74.5 609.75,-74.5 609.75,-55.25 648.25,-55.25 648.25,-74.5"/>
<text text-anchor="middle" x="629" y="-61" font-family="Helvetica,sans-Serif" font-size="10.00">utility</text>
</a>
</g>
</g>
<!-- Node1&#45;&gt;Node6 -->
<g id="edge52_Node000001_Node000006" class="edge">
<title>Node1&#45;&gt;Node6</title>
<g id="a_edge52_Node000001_Node000006"><a xlink:title=" ">
<path fill="none" stroke="#63b8ff" d="M656.34,-577.3C799.96,-571.67 1146,-547.74 1146,-448 1146,-448 1146,-448 1146,-191.25 1146,-147.32 1126.98,-132.57 1089,-110.5 1070.42,-99.7 760.57,-75.71 660.14,-68.18"/>
<polygon fill="#63b8ff" stroke="#63b8ff" points="660.45,-64.69 650.22,-67.44 659.93,-71.67 660.45,-64.69"/>
</a>
</g>
</g>
<!-- Node7 -->
<g id="Node000007" class="node">
<title>Node7</title>
<g id="a_Node000007"><a xlink:href="unique__core_8hpp.html" target="_top" xlink:title=" ">
<polygon fill="white" stroke="#666666" points="639.75,-528.75 550.25,-528.75 550.25,-498.25 639.75,-498.25 639.75,-528.75"/>
<text text-anchor="start" x="558.25" y="-515.25" font-family="Helvetica,sans-Serif" font-size="10.00">yaclib/algo/detail</text>
<text text-anchor="middle" x="595" y="-504" font-family="Helvetica,sans-Serif" font-size="10.00">/unique_core.hpp</text>
</a>
</g>
</g>
<!-- Node1&#45;&gt;Node7 -->
<g id="edge6_Node000001_Node000007" class="edge">
<title>Node1&#45;&gt;Node7</title>
<g id="a_edge6_Node000001_Node000007"><a xlink:title=" ">
<path fill="none" stroke="#63b8ff" d="M595,-564.36C595,-557.27 595,-548.54 595,-540.38"/>
<polygon fill="#63b8ff" stroke="#63b8ff" points="598.5,-540.59 595,-530.59 591.5,-540.59 598.5,-540.59"/>
</a>
</g>
</g>
<!-- Node12 -->
<g id="Node000012" class="node">
<title>Node12</title>
<g id="a_Node000012"><a xlink:href="log_8hpp.html" target="_top" xlink:title=" ">
<polygon fill="white" stroke="#666666" points="1183.25,-74.5 1108.75,-74.5 1108.75,-55.25 1183.25,-55.25 1183.25,-74.5"/>
<text text-anchor="middle" x="1146" y="-61" font-family="Helvetica,sans-Serif" font-size="10.00">yaclib/log.hpp</text>
</a>
</g>
</g>
<!-- Node1&#45;&gt;Node12 -->
<g id="edge50_Node000001_Node000012" class="edge">
<title>Node1&#45;&gt;Node12</title>
<g id="a_edge50_Node000001_Node000012"><a xlink:title=" ">
<path fill="none" stroke="#63b8ff" d="M656.26,-579.08C814.03,-577.64 1222,-562.82 1222,-448 1222,-448 1222,-448 1222,-191.25 1222,-146.98 1186.92,-105 1164.43,-82.63"/>
<polygon fill="#63b8ff" stroke="#63b8ff" points="1166.99,-80.23 1157.34,-75.84 1162.15,-85.28 1166.99,-80.23"/>
</a>
</g>
</g>
<!-- Node3 -->
<g id="Node000003" class="node">
<title>Node3</title>
<g id="a_Node000003"><a xlink:title=" ">
<polygon fill="#e0e0e0" stroke="#999999" points="538.62,-74.5 451.38,-74.5 451.38,-55.25 538.62,-55.25 538.62,-74.5"/>
<text text-anchor="middle" x="495" y="-61" font-family="Helvetica,sans-Serif" font-size="10.00">yaclib/config.hpp</text>
</a>
</g>
</g>
<!-- Node2&#45;&gt;Node3 -->
<g id="edge2_Node000002_Node000003" class="edge">
<title>Node2&#45;&gt;Node3</title>
<g id="a_edge2_Node000002_Node000003"><a xlink:title=" ">
<path fill="none" stroke="#63b8ff" d="M470.16,-110.2C474.46,-102.53 479.78,-93.02 484.4,-84.79"/>
<polygon fill="#63b8ff" stroke="#63b8ff" points="487.34,-86.71 489.17,-76.27 481.23,-83.28 487.34,-86.71"/>
</a>
</g>
</g>
<!-- Node4 -->
<g id="Node000004" class="node">
<title>Node4</title>
<g id="a_Node000004"><a xlink:href="fwd_8hpp.html" target="_top" xlink:title=" ">
<polygon fill="white" stroke="#666666" points="390.75,-74.5 313.25,-74.5 313.25,-55.25 390.75,-55.25 390.75,-74.5"/>
<text text-anchor="middle" x="352" y="-61" font-family="Helvetica,sans-Serif" font-size="10.00">yaclib/fwd.hpp</text>
</a>
</g>
</g>
<!-- Node2&#45;&gt;Node4 -->
<g id="edge3_Node000002_Node000004" class="edge">
<title>Node2&#45;&gt;Node4</title>
<g id="a_edge3_Node000002_Node000004"><a xlink:title=" ">
<path fill="none" stroke="#63b8ff" d="M434.53,-110.05C417.45,-100.91 395.61,-89.22 378.69,-80.16"/>
<polygon fill="#63b8ff" stroke="#63b8ff" points="380.67,-77.25 370.2,-75.62 377.37,-83.42 380.67,-77.25"/>
</a>
</g>
</g>
<!-- Node2&#45;&gt;Node5 -->
<g id="edge4_Node000002_Node000005" class="edge">
<title>Node2&#45;&gt;Node5</title>
<g id="a_edge4_Node000002_Node000005"><a xlink:title=" ">
<path fill="none" stroke="#63b8ff" d="M417.73,-113.57C413.1,-112.49 408.46,-111.45 404,-110.5 332.39,-95.25 248.37,-80.79 199.09,-72.66"/>
<polygon fill="#63b8ff" stroke="#63b8ff" points="199.85,-69.24 189.42,-71.07 198.72,-76.15 199.85,-69.24"/>
</a>
</g>
</g>
<!-- Node2&#45;&gt;Node6 -->
<g id="edge5_Node000002_Node000006" class="edge">
<title>Node2&#45;&gt;Node6</title>
<g id="a_edge5_Node000002_Node000006"><a xlink:title=" ">
<path fill="none" stroke="#63b8ff" d="M503.71,-110.05C533.3,-99.61 572.32,-85.86 598.9,-76.49"/>
<polygon fill="#63b8ff" stroke="#63b8ff" points="599.77,-79.89 608.04,-73.27 597.44,-73.29 599.77,-79.89"/>
</a>
</g>
</g>
<!-- Node8 -->
<g id="Node000008" class="node">
<title>Node8</title>
<g id="a_Node000008"><a xlink:href="result__core_8hpp.html" target="_top" xlink:title=" ">
<polygon fill="white" stroke="#666666" points="639,-462.25 551,-462.25 551,-431.75 639,-431.75 639,-462.25"/>
<text text-anchor="start" x="559" y="-448.75" font-family="Helvetica,sans-Serif" font-size="10.00">yaclib/algo/detail</text>
<text text-anchor="middle" x="595" y="-437.5" font-family="Helvetica,sans-Serif" font-size="10.00">/result_core.hpp</text>
</a>
</g>
</g>
<!-- Node7&#45;&gt;Node8 -->
<g id="edge7_Node000007_Node000008" class="edge">
<title>Node7&#45;&gt;Node8</title>
<g id="a_edge7_Node000007_Node000008"><a xlink:title=" ">
<path fill="none" stroke="#63b8ff" d="M595,-497.86C595,-490.77 595,-482.04 595,-473.88"/>
<polygon fill="#63b8ff" stroke="#63b8ff" points="598.5,-474.09 595,-464.09 591.5,-474.09 598.5,-474.09"/>
</a>
</g>
</g>
<!-- Node8&#45;&gt;Node6 -->
<g id="edge49_Node000008_Node000006" class="edge">
<title>Node8&#45;&gt;Node6</title>
<g id="a_edge49_Node000008_Node000006"><a xlink:title=" ">
<path fill="none" stroke="#63b8ff" d="M605.73,-431.41C621.21,-408.86 648,-363.63 648,-320.62 648,-320.62 648,-320.62 648,-191.25 648,-153.76 639.59,-110.66 633.96,-86.01"/>
<polygon fill="#63b8ff" stroke="#63b8ff" points="637.4,-85.32 631.68,-76.4 630.58,-86.94 637.4,-85.32"/>
</a>
</g>
</g>
<!-- Node9 -->
<g id="Node000009" class="node">
<title>Node9</title>
<g id="a_Node000009"><a xlink:href="base__core_8hpp.html" target="_top" xlink:title=" ">
<polygon fill="white" stroke="#666666" points="902,-395.75 814,-395.75 814,-365.25 902,-365.25 902,-395.75"/>
<text text-anchor="start" x="822" y="-382.25" font-family="Helvetica,sans-Serif" font-size="10.00">yaclib/algo/detail</text>
<text text-anchor="middle" x="858" y="-371" font-family="Helvetica,sans-Serif" font-size="10.00">/base_core.hpp</text>
</a>
</g>
</g>
<!-- Node8&#45;&gt;Node9 -->
<g id="edge8_Node000008_Node000009" class="edge">
<title>Node8&#45;&gt;Node9</title>
<g id="a_edge8_Node000008_Node000009"><a xlink:title=" ">
<path fill="none" stroke="#63b8ff" d="M639.32,-435.13C684.27,-424.11 753.97,-407.01 802.55,-395.1"/>
<polygon fill="#63b8ff" stroke="#63b8ff" points="803.15,-398.55 812.03,-392.77 801.49,-391.76 803.15,-398.55"/>
</a>
</g>
</g>
<!-- Node24 -->
<g id="Node000024" class="node">
<title>Node24</title>
<g id="a_Node000024"><a xlink:href="cast_8hpp.html" target="_top" xlink:title=" ">
<polygon fill="white" stroke="#666666" points="252.12,-390.12 155.88,-390.12 155.88,-370.88 252.12,-370.88 252.12,-390.12"/>
<text text-anchor="middle" x="204" y="-376.62" font-family="Helvetica,sans-Serif" font-size="10.00">yaclib/util/cast.hpp</text>
</a>
</g>
</g>
<!-- Node8&#45;&gt;Node24 -->
<g id="edge33_Node000008_Node000024" class="edge">
<title>Node8&#45;&gt;Node24</title>
<g id="a_edge33_Node000008_Node000024"><a xlink:title=" ">
<path fill="none" stroke="#63b8ff" d="M550.53,-438.66C480.04,-427.04 342.56,-404.36 263.61,-391.33"/>
<polygon fill="#63b8ff" stroke="#63b8ff" points="264.33,-387.9 253.89,-389.73 263.19,-394.81 264.33,-387.9"/>
</a>
</g>
</g>
<!-- Node26 -->
<g id="Node000026" class="node">
<title>Node26</title>
<g id="a_Node000026"><a xlink:href="result_8hpp.html" target="_top" xlink:title=" ">
<polygon fill="white" stroke="#666666" points="440.75,-268.38 339.25,-268.38 339.25,-249.12 440.75,-249.12 440.75,-268.38"/>
<text text-anchor="middle" x="390" y="-254.88" font-family="Helvetica,sans-Serif" font-size="10.00">yaclib/util/result.hpp</text>
</a>
</g>
</g>
<!-- Node8&#45;&gt;Node26 -->
<g id="edge36_Node000008_Node000026" class="edge">
<title>Node8&#45;&gt;Node26</title>
<g id="a_edge36_Node000008_Node000026"><a xlink:title=" ">
<path fill="none" stroke="#63b8ff" d="M578.91,-431.39C541.34,-397.25 447.99,-312.44 408.31,-276.39"/>
<polygon fill="#63b8ff" stroke="#63b8ff" points="410.74,-273.86 400.98,-269.73 406.03,-279.04 410.74,-273.86"/>
</a>
</g>
</g>
<!-- Node10 -->
<g id="Node000010" class="node">
<title>Node10</title>
<g id="a_Node000010"><a xlink:href="inline__core_8hpp.html" target="_top" xlink:title=" ">
<polygon fill="white" stroke="#666666" points="1056,-274 968,-274 968,-243.5 1056,-243.5 1056,-274"/>
<text text-anchor="start" x="976" y="-260.5" font-family="Helvetica,sans-Serif" font-size="10.00">yaclib/algo/detail</text>
<text text-anchor="middle" x="1012" y="-249.25" font-family="Helvetica,sans-Serif" font-size="10.00">/inline_core.hpp</text>
</a>
</g>
</g>
<!-- Node9&#45;&gt;Node10 -->
<g id="edge9_Node000009_Node000010" class="edge">
<title>Node9&#45;&gt;Node10</title>
<g id="a_edge9_Node000009_Node000010"><a xlink:title=" ">
<path fill="none" stroke="#63b8ff" d="M902.4,-366.94C924.87,-358.91 951.45,-346.68 971,-329.25 984.67,-317.07 995.06,-299.21 1001.97,-284.65"/>
<polygon fill="#63b8ff" stroke="#63b8ff" points="1005.09,-286.25 1005.95,-275.69 998.69,-283.4 1005.09,-286.25"/>
</a>
</g>
</g>
<!-- Node18 -->
<g id="Node000018" class="node">
<title>Node18</title>
<g id="a_Node000018"><a xlink:href="executor_8hpp.html" target="_top" xlink:title=" ">
<polygon fill="white" stroke="#666666" points="871.25,-268.38 754.75,-268.38 754.75,-249.12 871.25,-249.12 871.25,-268.38"/>
<text text-anchor="middle" x="813" y="-254.88" font-family="Helvetica,sans-Serif" font-size="10.00">yaclib/exe/executor.hpp</text>
</a>
</g>
</g>
<!-- Node9&#45;&gt;Node18 -->
<g id="edge21_Node000009_Node000018" class="edge">
<title>Node9&#45;&gt;Node18</title>
<g id="a_edge21_Node000009_Node000018"><a xlink:title=" ">
<path fill="none" stroke="#63b8ff" d="M902.35,-367.02C935.82,-355.26 973.12,-335.63 955,-310 938.42,-286.54 909.91,-273.96 882.78,-267.24"/>
<polygon fill="#63b8ff" stroke="#63b8ff" points="883.67,-263.86 873.15,-265.12 882.16,-270.69 883.67,-263.86"/>
</a>
</g>
</g>
<!-- Node21 -->
<g id="Node000021" class="node">
<title>Node21</title>
<g id="a_Node000021"><a xlink:href="inline_8hpp.html" target="_top" xlink:title=" ">
<polygon fill="white" stroke="#666666" points="778.12,-329.25 675.88,-329.25 675.88,-310 778.12,-310 778.12,-329.25"/>
<text text-anchor="middle" x="727" y="-315.75" font-family="Helvetica,sans-Serif" font-size="10.00">yaclib/exe/inline.hpp</text>
</a>
</g>
</g>
<!-- Node9&#45;&gt;Node21 -->
<g id="edge28_Node000009_Node000021" class="edge">
<title>Node9&#45;&gt;Node21</title>
<g id="a_edge28_Node000009_Node000021"><a xlink:title=" ">
<path fill="none" stroke="#63b8ff" d="M825.28,-364.8C804.47,-355.44 777.7,-343.41 757.36,-334.27"/>
<polygon fill="#63b8ff" stroke="#63b8ff" points="759.03,-331.18 748.47,-330.27 756.16,-337.57 759.03,-331.18"/>
</a>
</g>
</g>
<!-- Node22 -->
<g id="Node000022" class="node">
<title>Node22</title>
<g id="a_Node000022"><a xlink:title=" ">
<polygon fill="#e0e0e0" stroke="#999999" points="835.62,-329.25 796.38,-329.25 796.38,-310 835.62,-310 835.62,-329.25"/>
<text text-anchor="middle" x="816" y="-315.75" font-family="Helvetica,sans-Serif" font-size="10.00">limits</text>
</a>
</g>
</g>
<!-- Node9&#45;&gt;Node22 -->
<g id="edge31_Node000009_Node000022" class="edge">
<title>Node9&#45;&gt;Node22</title>
<g id="a_edge31_Node000009_Node000022"><a xlink:title=" ">
<path fill="none" stroke="#63b8ff" d="M847.62,-364.95C842.02,-357.1 835.06,-347.35 829.1,-338.99"/>
<polygon fill="#63b8ff" stroke="#63b8ff" points="832.01,-337.04 823.35,-330.93 826.31,-341.11 832.01,-337.04"/>
</a>
</g>
</g>
<!-- Node23 -->
<g id="Node000023" class="node">
<title>Node23</title>
<g id="a_Node000023"><a xlink:title=" ">
<polygon fill="#e0e0e0" stroke="#999999" points="945.88,-329.25 854.12,-329.25 854.12,-310 945.88,-310 945.88,-329.25"/>
<text text-anchor="middle" x="900" y="-315.75" font-family="Helvetica,sans-Serif" font-size="10.00">yaclib_std/atomic</text>
</a>
</g>
</g>
<!-- Node9&#45;&gt;Node23 -->
<g id="edge32_Node000009_Node000023" class="edge">
<title>Node9&#45;&gt;Node23</title>
<g id="a_edge32_Node000009_Node000023"><a xlink:title=" ">
<path fill="none" stroke="#63b8ff" d="M868.38,-364.95C873.98,-357.1 880.94,-347.35 886.9,-338.99"/>
<polygon fill="#63b8ff" stroke="#63b8ff" points="889.69,-341.11 892.65,-330.93 883.99,-337.04 889.69,-341.11"/>
</a>
</g>
</g>
<!-- Node10&#45;&gt;Node3 -->
<g id="edge10_Node000010_Node000003" class="edge">
<title>Node10&#45;&gt;Node3</title>
<g id="a_edge10_Node000010_Node000003"><a xlink:title=" ">
<path fill="none" stroke="#63b8ff" d="M972.29,-243.01C874.46,-206.7 623.07,-113.4 530.18,-78.93"/>
<polygon fill="#63b8ff" stroke="#63b8ff" points="531.42,-75.66 520.82,-75.46 528.98,-82.22 531.42,-75.66"/>
</a>
</g>
</g>
<!-- Node11 -->
<g id="Node000011" class="node">
<title>Node11</title>
<g id="a_Node000011"><a xlink:href="job_8hpp.html" target="_top" xlink:title=" ">
<polygon fill="white" stroke="#666666" points="1058.25,-201.88 965.75,-201.88 965.75,-182.62 1058.25,-182.62 1058.25,-201.88"/>
<text text-anchor="middle" x="1012" y="-188.38" font-family="Helvetica,sans-Serif" font-size="10.00">yaclib/exe/job.hpp</text>
</a>
</g>
</g>
<!-- Node10&#45;&gt;Node11 -->
<g id="edge11_Node000010_Node000011" class="edge">
<title>Node10&#45;&gt;Node11</title>
<g id="a_edge11_Node000010_Node000011"><a xlink:title=" ">
<path fill="none" stroke="#63b8ff" d="M1012,-243.11C1012,-234.33 1012,-223.02 1012,-213.4"/>
<polygon fill="#63b8ff" stroke="#63b8ff" points="1015.5,-213.59 1012,-203.59 1008.5,-213.59 1015.5,-213.59"/>
</a>
</g>
</g>
<!-- Node10&#45;&gt;Node12 -->
<g id="edge20_Node000010_Node000012" class="edge">
<title>Node10&#45;&gt;Node12</title>
<g id="a_edge20_Node000010_Node000012"><a xlink:title=" ">
<path fill="none" stroke="#63b8ff" d="M1029.71,-243.21C1040.94,-233.6 1055.47,-220.44 1067,-207.5 1091.25,-180.29 1097.26,-172.84 1115,-141 1125.07,-122.93 1133.77,-100.91 1139.37,-85.4"/>
<polygon fill="#63b8ff" stroke="#63b8ff" points="1142.52,-87 1142.52,-76.41 1135.91,-84.69 1142.52,-87"/>
</a>
</g>
</g>
<!-- Node11&#45;&gt;Node12 -->
<g id="edge12_Node000011_Node000012" class="edge">
<title>Node11&#45;&gt;Node12</title>
<g id="a_edge12_Node000011_Node000012"><a xlink:title=" ">
<path fill="none" stroke="#63b8ff" d="M1029.41,-182.18C1045.86,-173.11 1070.66,-158.08 1089,-141 1107.28,-123.97 1124.02,-100.56 1134.56,-84.41"/>
<polygon fill="#63b8ff" stroke="#63b8ff" points="1137.32,-86.59 1139.73,-76.28 1131.41,-82.84 1137.32,-86.59"/>
</a>
</g>
</g>
<!-- Node14 -->
<g id="Node000014" class="node">
<title>Node14</title>
<g id="a_Node000014"><a xlink:href="node_8hpp.html" target="_top" xlink:title=" ">
<polygon fill="white" stroke="#666666" points="1080.38,-141 997.62,-141 997.62,-110.5 1080.38,-110.5 1080.38,-141"/>
<text text-anchor="start" x="1005.62" y="-127.5" font-family="Helvetica,sans-Serif" font-size="10.00">yaclib/util/detail</text>
<text text-anchor="middle" x="1039" y="-116.25" font-family="Helvetica,sans-Serif" font-size="10.00">/node.hpp</text>
</a>
</g>
</g>
<!-- Node11&#45;&gt;Node14 -->
<g id="edge14_Node000011_Node000014" class="edge">
<title>Node11&#45;&gt;Node14</title>
<g id="a_edge14_Node000011_Node000014"><a xlink:title=" ">
<path fill="none" stroke="#63b8ff" d="M1015.75,-182.28C1019.07,-174.37 1024.05,-162.45 1028.56,-151.68"/>
<polygon fill="#63b8ff" stroke="#63b8ff" points="1031.78,-153.07 1032.41,-142.49 1025.32,-150.36 1031.78,-153.07"/>
</a>
</g>
</g>
<!-- Node15 -->
<g id="Node000015" class="node">
<title>Node15</title>
<g id="a_Node000015"><a xlink:href="func_8hpp.html" target="_top" xlink:title=" ">
<polygon fill="white" stroke="#666666" points="810.12,-135.38 713.88,-135.38 713.88,-116.12 810.12,-116.12 810.12,-135.38"/>
<text text-anchor="middle" x="762" y="-121.88" font-family="Helvetica,sans-Serif" font-size="10.00">yaclib/util/func.hpp</text>
</a>
</g>
</g>
<!-- Node11&#45;&gt;Node15 -->
<g id="edge15_Node000011_Node000015" class="edge">
<title>Node11&#45;&gt;Node15</title>
<g id="a_edge15_Node000011_Node000015"><a xlink:title=" ">
<path fill="none" stroke="#63b8ff" d="M976.71,-182.15C932.51,-170.74 856.67,-151.17 807.97,-138.61"/>
<polygon fill="#63b8ff" stroke="#63b8ff" points="809.13,-135.3 798.57,-136.19 807.38,-142.07 809.13,-135.3"/>
</a>
</g>
</g>
<!-- Node13 -->
<g id="Node000013" class="node">
<title>Node13</title>
<g id="a_Node000013"><a xlink:title=" ">
<polygon fill="#e0e0e0" stroke="#999999" points="1178.75,-19.25 1113.25,-19.25 1113.25,0 1178.75,0 1178.75,-19.25"/>
<text text-anchor="middle" x="1146" y="-5.75" font-family="Helvetica,sans-Serif" font-size="10.00">string_view</text>
</a>
</g>
</g>
<!-- Node12&#45;&gt;Node13 -->
<g id="edge13_Node000012_Node000013" class="edge">
<title>Node12&#45;&gt;Node13</title>
<g id="a_edge13_Node000012_Node000013"><a xlink:title=" ">
<path fill="none" stroke="#63b8ff" d="M1146,-55.08C1146,-48.57 1146,-39.42 1146,-31.12"/>
<polygon fill="#63b8ff" stroke="#63b8ff" points="1149.5,-31.12 1146,-21.12 1142.5,-31.12 1149.5,-31.12"/>
</a>
</g>
</g>
<!-- Node15&#45;&gt;Node5 -->
<g id="edge18_Node000015_Node000005" class="edge">
<title>Node15&#45;&gt;Node5</title>
<g id="a_edge18_Node000015_Node000005"><a xlink:title=" ">
<path fill="none" stroke="#63b8ff" d="M713.51,-120.03C597.97,-108.79 307.96,-80.57 199.13,-69.98"/>
<polygon fill="#63b8ff" stroke="#63b8ff" points="199.47,-66.49 189.18,-69.01 198.8,-73.46 199.47,-66.49"/>
</a>
</g>
</g>
<!-- Node15&#45;&gt;Node6 -->
<g id="edge19_Node000015_Node000006" class="edge">
<title>Node15&#45;&gt;Node6</title>
<g id="a_edge19_Node000015_Node000006"><a xlink:title=" ">
<path fill="none" stroke="#63b8ff" d="M741.51,-115.68C719.42,-105.9 684.05,-90.24 658.87,-79.1"/>
<polygon fill="#63b8ff" stroke="#63b8ff" points="660.38,-75.94 649.81,-75.09 657.54,-82.34 660.38,-75.94"/>
</a>
</g>
</g>
<!-- Node16 -->
<g id="Node000016" class="node">
<title>Node16</title>
<g id="a_Node000016"><a xlink:href="ref_8hpp.html" target="_top" xlink:title=" ">
<polygon fill="white" stroke="#666666" points="844.38,-74.5 755.62,-74.5 755.62,-55.25 844.38,-55.25 844.38,-74.5"/>
<text text-anchor="middle" x="800" y="-61" font-family="Helvetica,sans-Serif" font-size="10.00">yaclib/util/ref.hpp</text>
</a>
</g>
</g>
<!-- Node15&#45;&gt;Node16 -->
<g id="edge16_Node000015_Node000016" class="edge">
<title>Node15&#45;&gt;Node16</title>
<g id="a_edge16_Node000015_Node000016"><a xlink:title=" ">
<path fill="none" stroke="#63b8ff" d="M767.77,-115.81C773.13,-107.51 781.27,-94.89 788.03,-84.42"/>
<polygon fill="#63b8ff" stroke="#63b8ff" points="790.87,-86.47 793.35,-76.17 784.99,-82.68 790.87,-86.47"/>
</a>
</g>
</g>
<!-- Node17 -->
<g id="Node000017" class="node">
<title>Node17</title>
<g id="a_Node000017"><a xlink:title=" ">
<polygon fill="#e0e0e0" stroke="#999999" points="824.12,-19.25 775.88,-19.25 775.88,0 824.12,0 824.12,-19.25"/>
<text text-anchor="middle" x="800" y="-5.75" font-family="Helvetica,sans-Serif" font-size="10.00">cstddef</text>
</a>
</g>
</g>
<!-- Node16&#45;&gt;Node17 -->
<g id="edge17_Node000016_Node000017" class="edge">
<title>Node16&#45;&gt;Node17</title>
<g id="a_edge17_Node000016_Node000017"><a xlink:title=" ">
<path fill="none" stroke="#63b8ff" d="M800,-55.08C800,-48.57 800,-39.42 800,-31.12"/>
<polygon fill="#63b8ff" stroke="#63b8ff" points="803.5,-31.12 800,-21.12 796.5,-31.12 803.5,-31.12"/>
</a>
</g>
</g>
<!-- Node18&#45;&gt;Node11 -->
<g id="edge22_Node000018_Node000011" class="edge">
<title>Node18&#45;&gt;Node11</title>
<g id="a_edge22_Node000018_Node000011"><a xlink:title=" ">
<path fill="none" stroke="#63b8ff" d="M841.09,-248.65C875.61,-237.46 934.36,-218.41 973.18,-205.83"/>
<polygon fill="#63b8ff" stroke="#63b8ff" points="974.18,-209.19 982.61,-202.77 972.02,-202.53 974.18,-209.19"/>
</a>
</g>
</g>
<!-- Node19 -->
<g id="Node000019" class="node">
<title>Node19</title>
<g id="a_Node000019"><a xlink:href="intrusive__ptr_8hpp.html" target="_top" xlink:title=" ">
<polygon fill="white" stroke="#666666" points="772.12,-207.5 675.88,-207.5 675.88,-177 772.12,-177 772.12,-207.5"/>
<text text-anchor="start" x="683.88" y="-194" font-family="Helvetica,sans-Serif" font-size="10.00">yaclib/util/intrusive</text>
<text text-anchor="middle" x="724" y="-182.75" font-family="Helvetica,sans-Serif" font-size="10.00">_ptr.hpp</text>
</a>
</g>
</g>
<!-- Node18&#45;&gt;Node19 -->
<g id="edge23_Node000018_Node000019" class="edge">
<title>Node18&#45;&gt;Node19</title>
<g id="a_edge23_Node000018_Node000019"><a xlink:title=" ">
<path fill="none" stroke="#63b8ff" d="M800.62,-248.78C788.41,-239.93 769.27,-226.06 753.18,-214.4"/>
<polygon fill="#63b8ff" stroke="#63b8ff" points="755.51,-211.76 745.36,-208.73 751.4,-217.43 755.51,-211.76"/>
</a>
</g>
</g>
<!-- Node19&#45;&gt;Node5 -->
<g id="edge25_Node000019_Node000005" class="edge">
<title>Node19&#45;&gt;Node5</title>
<g id="a_edge25_Node000019_Node000005"><a xlink:title=" ">
<path fill="none" stroke="#63b8ff" d="M675.52,-186.91C613.05,-180.55 501.47,-166.58 409,-141 373.92,-131.29 367.61,-121.78 333,-110.5 287.84,-95.78 234.86,-82.93 198.92,-74.85"/>
<polygon fill="#63b8ff" stroke="#63b8ff" points="199.88,-71.47 189.35,-72.72 198.36,-78.31 199.88,-71.47"/>
</a>
</g>
</g>
<!-- Node19&#45;&gt;Node16 -->
<g id="edge24_Node000019_Node000016" class="edge">
<title>Node19&#45;&gt;Node16</title>
<g id="a_edge24_Node000019_Node000016"><a xlink:title=" ">
<path fill="none" stroke="#63b8ff" d="M772.62,-177.38C790.41,-169.69 808.7,-158.1 819,-141 829.49,-123.58 820.97,-100.55 812.24,-84.6"/>
<polygon fill="#63b8ff" stroke="#63b8ff" points="815.31,-82.92 807.16,-76.14 809.3,-86.52 815.31,-82.92"/>
</a>
</g>
</g>
<!-- Node20 -->
<g id="Node000020" class="node">
<title>Node20</title>
<g id="a_Node000020"><a xlink:href="intrusive__ptr__impl_8hpp.html" target="_top" xlink:title=" ">
<polygon fill="white" stroke="#666666" points="979.75,-141 866.25,-141 866.25,-110.5 979.75,-110.5 979.75,-141"/>
<text text-anchor="start" x="874.25" y="-127.5" font-family="Helvetica,sans-Serif" font-size="10.00">yaclib/util/detail</text>
<text text-anchor="middle" x="923" y="-116.25" font-family="Helvetica,sans-Serif" font-size="10.00">/intrusive_ptr_impl.hpp</text>
</a>
</g>
</g>
<!-- Node19&#45;&gt;Node20 -->
<g id="edge26_Node000019_Node000020" class="edge">
<title>Node19&#45;&gt;Node20</title>
<g id="a_edge26_Node000019_Node000020"><a xlink:title=" ">
<path fill="none" stroke="#63b8ff" d="M769.16,-176.61C798.19,-167.2 836.12,-154.91 867.05,-144.88"/>
<polygon fill="#63b8ff" stroke="#63b8ff" points="867.81,-148.32 876.24,-141.91 865.65,-141.66 867.81,-148.32"/>
</a>
</g>
</g>
<!-- Node20&#45;&gt;Node12 -->
<g id="edge27_Node000020_Node000012" class="edge">
<title>Node20&#45;&gt;Node12</title>
<g id="a_edge27_Node000020_Node000012"><a xlink:title=" ">
<path fill="none" stroke="#63b8ff" d="M978.7,-110.05C1016.3,-100.12 1065.3,-87.18 1100.55,-77.88"/>
<polygon fill="#63b8ff" stroke="#63b8ff" points="1101.23,-81.31 1110.01,-75.38 1099.45,-74.55 1101.23,-81.31"/>
</a>
</g>
</g>
<!-- Node21&#45;&gt;Node4 -->
<g id="edge30_Node000021_Node000004" class="edge">
<title>Node21&#45;&gt;Node4</title>
<g id="a_edge30_Node000021_Node000004"><a xlink:title=" ">
<path fill="none" stroke="#63b8ff" d="M720.82,-309.93C697.67,-278.06 612.48,-166.53 515,-110.5 480.03,-90.4 435.62,-79.02 401.99,-72.79"/>
<polygon fill="#63b8ff" stroke="#63b8ff" points="402.97,-69.41 392.52,-71.13 401.76,-76.3 402.97,-69.41"/>
</a>
</g>
</g>
<!-- Node21&#45;&gt;Node18 -->
<g id="edge29_Node000021_Node000018" class="edge">
<title>Node21&#45;&gt;Node18</title>
<g id="a_edge29_Node000021_Node000018"><a xlink:title=" ">
<path fill="none" stroke="#63b8ff" d="M740.06,-309.68C753.45,-300.52 774.52,-286.09 790.58,-275.1"/>
<polygon fill="#63b8ff" stroke="#63b8ff" points="792.29,-278.17 798.57,-269.63 788.34,-272.39 792.29,-278.17"/>
</a>
</g>
</g>
<!-- Node24&#45;&gt;Node5 -->
<g id="edge35_Node000024_Node000005" class="edge">
<title>Node24&#45;&gt;Node5</title>
<g id="a_edge35_Node000024_Node000005"><a xlink:title=" ">
<path fill="none" stroke="#63b8ff" d="M166.75,-370.42C117.8,-356 38,-322.83 38,-259.75 38,-259.75 38,-259.75 38,-191.25 38,-139.08 92.87,-99.95 128.1,-80.21"/>
<polygon fill="#63b8ff" stroke="#63b8ff" points="129.41,-83.48 136.55,-75.65 126.08,-77.31 129.41,-83.48"/>
</a>
</g>
</g>
<!-- Node25 -->
<g id="Node000025" class="node">
<title>Node25</title>
<g id="a_Node000025"><a xlink:title=" ">
<polygon fill="#e0e0e0" stroke="#999999" points="229.25,-329.25 178.75,-329.25 178.75,-310 229.25,-310 229.25,-329.25"/>
<text text-anchor="middle" x="204" y="-315.75" font-family="Helvetica,sans-Serif" font-size="10.00">memory</text>
</a>
</g>
</g>
<!-- Node24&#45;&gt;Node25 -->
<g id="edge34_Node000024_Node000025" class="edge">
<title>Node24&#45;&gt;Node25</title>
<g id="a_edge34_Node000024_Node000025"><a xlink:title=" ">
<path fill="none" stroke="#63b8ff" d="M204,-370.56C204,-362.78 204,-351.2 204,-341.16"/>
<polygon fill="#63b8ff" stroke="#63b8ff" points="207.5,-341.16 204,-331.16 200.5,-341.16 207.5,-341.16"/>
</a>
</g>
</g>
<!-- Node26&#45;&gt;Node4 -->
<g id="edge37_Node000026_Node000004" class="edge">
<title>Node26&#45;&gt;Node4</title>
<g id="a_edge37_Node000026_Node000004"><a xlink:title=" ">
<path fill="none" stroke="#63b8ff" d="M385.85,-248.69C381.49,-238.78 374.75,-222.33 371,-207.5 360.3,-165.14 355.33,-114.04 353.27,-86.27"/>
<polygon fill="#63b8ff" stroke="#63b8ff" points="356.77,-86.21 352.6,-76.47 349.79,-86.68 356.77,-86.21"/>
</a>
</g>
</g>
<!-- Node26&#45;&gt;Node6 -->
<g id="edge47_Node000026_Node000006" class="edge">
<title>Node26&#45;&gt;Node6</title>
<g id="a_edge47_Node000026_Node000006"><a xlink:title=" ">
<path fill="none" stroke="#63b8ff" d="M404.42,-248.9C434.07,-230.45 503.47,-185.82 556,-141 577.51,-122.65 599.82,-98.88 614.02,-83.04"/>
<polygon fill="#63b8ff" stroke="#63b8ff" points="616.37,-85.67 620.38,-75.86 611.13,-81.03 616.37,-85.67"/>
</a>
</g>
</g>
<!-- Node27 -->
<g id="Node000027" class="node">
<title>Node27</title>
<g id="a_Node000027"><a xlink:href="type__traits_8hpp.html" target="_top" xlink:title=" ">
<polygon fill="white" stroke="#666666" points="286.25,-201.88 163.75,-201.88 163.75,-182.62 286.25,-182.62 286.25,-201.88"/>
<text text-anchor="middle" x="225" y="-188.38" font-family="Helvetica,sans-Serif" font-size="10.00">yaclib/util/type_traits.hpp</text>
</a>
</g>
</g>
<!-- Node26&#45;&gt;Node27 -->
<g id="edge38_Node000026_Node000027" class="edge">
<title>Node26&#45;&gt;Node27</title>
<g id="a_edge38_Node000026_Node000027"><a xlink:title=" ">
<path fill="none" stroke="#63b8ff" d="M366.71,-248.65C338.58,-237.65 291.04,-219.06 258.86,-206.49"/>
<polygon fill="#63b8ff" stroke="#63b8ff" points="260.17,-203.24 249.58,-202.86 257.62,-209.76 260.17,-203.24"/>
</a>
</g>
</g>
<!-- Node29 -->
<g id="Node000029" class="node">
<title>Node29</title>
<g id="a_Node000029"><a xlink:title=" ">
<polygon fill="#e0e0e0" stroke="#999999" points="323.62,-135.38 266.38,-135.38 266.38,-116.12 323.62,-116.12 323.62,-135.38"/>
<text text-anchor="middle" x="295" y="-121.88" font-family="Helvetica,sans-Serif" font-size="10.00">exception</text>
</a>
</g>
</g>
<!-- Node26&#45;&gt;Node29 -->
<g id="edge46_Node000026_Node000029" class="edge">
<title>Node26&#45;&gt;Node29</title>
<g id="a_edge46_Node000026_Node000029"><a xlink:title=" ">
<path fill="none" stroke="#63b8ff" d="M379.07,-248.97C367.81,-239.55 350.24,-223.74 338,-207.5 323.4,-188.13 310.91,-163.12 303.22,-146.11"/>
<polygon fill="#63b8ff" stroke="#63b8ff" points="306.51,-144.91 299.29,-137.15 300.1,-147.72 306.51,-144.91"/>
</a>
</g>
</g>
<!-- Node30 -->
<g id="Node000030" class="node">
<title>Node30</title>
<g id="a_Node000030"><a xlink:title=" ">
<polygon fill="#e0e0e0" stroke="#999999" points="425.62,-201.88 380.38,-201.88 380.38,-182.62 425.62,-182.62 425.62,-201.88"/>
<text text-anchor="middle" x="403" y="-188.38" font-family="Helvetica,sans-Serif" font-size="10.00">variant</text>
</a>
</g>
</g>
<!-- Node26&#45;&gt;Node30 -->
<g id="edge48_Node000026_Node000030" class="edge">
<title>Node26&#45;&gt;Node30</title>
<g id="a_edge48_Node000026_Node000030"><a xlink:title=" ">
<path fill="none" stroke="#63b8ff" d="M391.81,-248.78C393.65,-239.64 396.57,-225.14 398.97,-213.25"/>
<polygon fill="#63b8ff" stroke="#63b8ff" points="402.36,-214.12 400.91,-203.63 395.5,-212.74 402.36,-214.12"/>
</a>
</g>
</g>
<!-- Node27&#45;&gt;Node4 -->
<g id="edge39_Node000027_Node000004" class="edge">
<title>Node27&#45;&gt;Node4</title>
<g id="a_edge39_Node000027_Node000004"><a xlink:title=" ">
<path fill="none" stroke="#63b8ff" d="M226.33,-182.33C229.17,-166.11 237.27,-131.49 257,-110.5 270.54,-96.1 289.66,-85.89 307.21,-78.9"/>
<polygon fill="#63b8ff" stroke="#63b8ff" points="308.28,-82.24 316.44,-75.49 305.85,-75.67 308.28,-82.24"/>
</a>
</g>
</g>
<!-- Node27&#45;&gt;Node5 -->
<g id="edge44_Node000027_Node000005" class="edge">
<title>Node27&#45;&gt;Node5</title>
<g id="a_edge44_Node000027_Node000005"><a xlink:title=" ">
<path fill="none" stroke="#63b8ff" d="M163.44,-182.93C137.84,-176.09 110.53,-163.65 95,-141 87.34,-129.82 88.82,-122.56 95,-110.5 101.61,-97.59 113.89,-87.57 125.79,-80.32"/>
<polygon fill="#63b8ff" stroke="#63b8ff" points="127.2,-83.54 134.24,-75.62 123.8,-77.42 127.2,-83.54"/>
</a>
</g>
</g>
<!-- Node27&#45;&gt;Node6 -->
<g id="edge45_Node000027_Node000006" class="edge">
<title>Node27&#45;&gt;Node6</title>
<g id="a_edge45_Node000027_Node000006"><a xlink:title=" ">
<path fill="none" stroke="#63b8ff" d="M286.57,-183.59C358.97,-174.05 474.44,-157.06 515,-141 551.31,-126.62 588.1,-99.63 609.72,-82.22"/>
<polygon fill="#63b8ff" stroke="#63b8ff" points="611.86,-84.99 617.36,-75.94 607.41,-79.59 611.86,-84.99"/>
</a>
</g>
</g>
<!-- Node28 -->
<g id="Node000028" class="node">
<title>Node28</title>
<g id="a_Node000028"><a xlink:href="type__traits__impl_8hpp.html" target="_top" xlink:title=" ">
<polygon fill="white" stroke="#666666" points="209.62,-141 104.38,-141 104.38,-110.5 209.62,-110.5 209.62,-141"/>
<text text-anchor="start" x="112.38" y="-127.5" font-family="Helvetica,sans-Serif" font-size="10.00">yaclib/util/detail</text>
<text text-anchor="middle" x="157" y="-116.25" font-family="Helvetica,sans-Serif" font-size="10.00">/type_traits_impl.hpp</text>
</a>
</g>
</g>
<!-- Node27&#45;&gt;Node28 -->
<g id="edge40_Node000027_Node000028" class="edge">
<title>Node27&#45;&gt;Node28</title>
<g id="a_edge40_Node000027_Node000028"><a xlink:title=" ">
<path fill="none" stroke="#63b8ff" d="M215.54,-182.28C206.56,-173.76 192.68,-160.59 180.68,-149.21"/>
<polygon fill="#63b8ff" stroke="#63b8ff" points="183.14,-146.72 173.48,-142.38 178.33,-151.8 183.14,-146.72"/>
</a>
</g>
</g>
<!-- Node27&#45;&gt;Node29 -->
<g id="edge43_Node000027_Node000029" class="edge">
<title>Node27&#45;&gt;Node29</title>
<g id="a_edge43_Node000027_Node000029"><a xlink:title=" ">
<path fill="none" stroke="#63b8ff" d="M234.73,-182.28C245.7,-172.17 263.77,-155.53 277.26,-143.1"/>
<polygon fill="#63b8ff" stroke="#63b8ff" points="279.25,-146.02 284.24,-136.67 274.51,-140.87 279.25,-146.02"/>
</a>
</g>
</g>
<!-- Node28&#45;&gt;Node4 -->
<g id="edge41_Node000028_Node000004" class="edge">
<title>Node28&#45;&gt;Node4</title>
<g id="a_edge41_Node000028_Node000004"><a xlink:title=" ">
<path fill="none" stroke="#63b8ff" d="M205.7,-110.05C238.16,-100.25 280.32,-87.52 311.05,-78.24"/>
<polygon fill="#63b8ff" stroke="#63b8ff" points="311.8,-81.67 320.36,-75.43 309.77,-74.97 311.8,-81.67"/>
</a>
</g>
</g>
<!-- Node28&#45;&gt;Node5 -->
<g id="edge42_Node000028_Node000005" class="edge">
<title>Node28&#45;&gt;Node5</title>
<g id="a_edge42_Node000028_Node000005"><a xlink:title=" ">
<path fill="none" stroke="#63b8ff" d="M157,-110.2C157,-102.96 157,-94.09 157,-86.19"/>
<polygon fill="#63b8ff" stroke="#63b8ff" points="160.5,-86.46 157,-76.46 153.5,-86.46 160.5,-86.46"/>
</a>
</g>
</g>
</g>
</svg>
