<?xml version="1.0" encoding="UTF-8" standalone="no"?>
<!DOCTYPE svg PUBLIC "-//W3C//DTD SVG 1.1//EN"
 "http://www.w3.org/Graphics/SVG/1.1/DTD/svg11.dtd">
<!-- Generated by graphviz version 3.0.0 (20221109.1736)
 -->
<!-- Title: include/yaclib/async/promise.hpp Pages: 1 -->
<svg width="1193pt" height="553pt"
 viewBox="0.00 0.00 1193.48 553.00" xmlns="http://www.w3.org/2000/svg" xmlns:xlink="http://www.w3.org/1999/xlink">
<g id="graph0" class="graph" transform="scale(1 1) rotate(0) translate(4 549)">
<title>include/yaclib/async/promise.hpp</title>
<!-- Node1 -->
<g id="node1" class="node">
<title>Node1</title>
<g id="a_node1"><a xlink:title=" ">
<polygon fill="#bfbfbf" stroke="black" points="845.48,-514.5 845.48,-544.5 949.48,-544.5 949.48,-514.5 845.48,-514.5"/>
<text text-anchor="start" x="853.48" y="-532.5" font-family="Helvetica,sans-Serif" font-size="10.00">include/yaclib/async</text>
<text text-anchor="middle" x="897.48" y="-521.5" font-family="Helvetica,sans-Serif" font-size="10.00">/promise.hpp</text>
</a>
</g>
</g>
<!-- Node2 -->
<g id="node2" class="node">
<title>Node2</title>
<g id="a_node2"><a xlink:href="result__core_8hpp.html" target="_top" xlink:title=" ">
<polygon fill="none" stroke="black" points="610.98,-447.5 610.98,-477.5 699.98,-477.5 699.98,-447.5 610.98,-447.5"/>
<text text-anchor="start" x="618.98" y="-465.5" font-family="Helvetica,sans-Serif" font-size="10.00">yaclib/algo/detail</text>
<text text-anchor="middle" x="655.48" y="-454.5" font-family="Helvetica,sans-Serif" font-size="10.00">/result_core.hpp</text>
</a>
</g>
</g>
<!-- Node1&#45;&gt;Node2 -->
<g id="edge1" class="edge">
<title>Node1&#45;&gt;Node2</title>
<path fill="none" stroke="midnightblue" d="M845.27,-514.48C805.34,-503.75 750.46,-489.01 709.98,-478.14"/>
<polygon fill="midnightblue" stroke="midnightblue" points="710.85,-474.75 700.28,-475.53 709.03,-481.51 710.85,-474.75"/>
</g>
<!-- Node18 -->
<g id="node18" class="node">
<title>Node18</title>
<g id="a_node18"><a xlink:href="fwd_8hpp.html" target="_top" xlink:title=" ">
<polygon fill="none" stroke="black" points="794.48,-185 794.48,-204 872.48,-204 872.48,-185 794.48,-185"/>
<text text-anchor="middle" x="833.48" y="-192" font-family="Helvetica,sans-Serif" font-size="10.00">yaclib/fwd.hpp</text>
</a>
</g>
</g>
<!-- Node1&#45;&gt;Node18 -->
<g id="edge45" class="edge">
<title>Node1&#45;&gt;Node18</title>
<path fill="none" stroke="midnightblue" d="M885.14,-514.17C866.54,-491.05 833.48,-443.36 833.48,-396.5 833.48,-396.5 833.48,-396.5 833.48,-327.5 833.48,-287.16 833.48,-239.88 833.48,-214.28"/>
<polygon fill="midnightblue" stroke="midnightblue" points="836.98,-214.15 833.48,-204.15 829.98,-214.15 836.98,-214.15"/>
</g>
<!-- Node23 -->
<g id="node23" class="node">
<title>Node23</title>
<g id="a_node23"><a xlink:href="type__traits_8hpp.html" target="_top" xlink:title=" ">
<polygon fill="none" stroke="black" points="899.98,-319 899.98,-338 1022.98,-338 1022.98,-319 899.98,-319"/>
<text text-anchor="middle" x="961.48" y="-326" font-family="Helvetica,sans-Serif" font-size="10.00">yaclib/util/type_traits.hpp</text>
</a>
</g>
</g>
<!-- Node1&#45;&gt;Node23 -->
<g id="edge46" class="edge">
<title>Node1&#45;&gt;Node23</title>
<path fill="none" stroke="midnightblue" d="M902.08,-514.19C913.45,-478.83 942.86,-387.39 955.53,-348"/>
<polygon fill="midnightblue" stroke="midnightblue" points="958.9,-348.95 958.63,-338.36 952.23,-346.81 958.9,-348.95"/>
</g>
<!-- Node27 -->
<g id="node27" class="node">
<title>Node27</title>
<g id="a_node27"><a xlink:href="promise__impl_8hpp.html" target="_top" xlink:title=" ">
<polygon fill="none" stroke="black" points="1063.48,-447.5 1063.48,-477.5 1159.48,-477.5 1159.48,-447.5 1063.48,-447.5"/>
<text text-anchor="start" x="1071.48" y="-465.5" font-family="Helvetica,sans-Serif" font-size="10.00">yaclib/async/detail</text>
<text text-anchor="middle" x="1111.48" y="-454.5" font-family="Helvetica,sans-Serif" font-size="10.00">/promise_impl.hpp</text>
</a>
</g>
</g>
<!-- Node1&#45;&gt;Node27 -->
<g id="edge47" class="edge">
<title>Node1&#45;&gt;Node27</title>
<path fill="none" stroke="midnightblue" d="M943.65,-514.48C976.3,-504.56 1020.28,-491.2 1055.02,-480.65"/>
<polygon fill="midnightblue" stroke="midnightblue" points="1056.47,-483.87 1065.02,-477.61 1054.43,-477.17 1056.47,-483.87"/>
</g>
<!-- Node3 -->
<g id="node3" class="node">
<title>Node3</title>
<g id="a_node3"><a xlink:href="base__core_8hpp.html" target="_top" xlink:title=" ">
<polygon fill="none" stroke="black" points="206.98,-380.5 206.98,-410.5 295.98,-410.5 295.98,-380.5 206.98,-380.5"/>
<text text-anchor="start" x="214.98" y="-398.5" font-family="Helvetica,sans-Serif" font-size="10.00">yaclib/algo/detail</text>
<text text-anchor="middle" x="251.48" y="-387.5" font-family="Helvetica,sans-Serif" font-size="10.00">/base_core.hpp</text>
</a>
</g>
</g>
<!-- Node2&#45;&gt;Node3 -->
<g id="edge2" class="edge">
<title>Node2&#45;&gt;Node3</title>
<path fill="none" stroke="midnightblue" d="M610.7,-454.3C536.13,-442.3 386.75,-418.26 306.11,-405.29"/>
<polygon fill="midnightblue" stroke="midnightblue" points="306.58,-401.82 296.15,-403.69 305.47,-408.73 306.58,-401.82"/>
</g>
<!-- Node13 -->
<g id="node13" class="node">
<title>Node13</title>
<g id="a_node13"><a xlink:title=" ">
<polygon fill="none" stroke="#bfbfbf" points="686.98,-56.5 686.98,-75.5 725.98,-75.5 725.98,-56.5 686.98,-56.5"/>
<text text-anchor="middle" x="706.48" y="-63.5" font-family="Helvetica,sans-Serif" font-size="10.00">utility</text>
</a>
</g>
</g>
<!-- Node2&#45;&gt;Node13 -->
<g id="edge44" class="edge">
<title>Node2&#45;&gt;Node13</title>
<path fill="none" stroke="midnightblue" d="M655.48,-447.24C655.48,-423.03 655.48,-372.35 655.48,-329.5 655.48,-329.5 655.48,-329.5 655.48,-193.5 655.48,-151.88 679.52,-107.77 694.59,-84.22"/>
<polygon fill="midnightblue" stroke="midnightblue" points="697.62,-85.98 700.22,-75.71 691.78,-82.12 697.62,-85.98"/>
</g>
<!-- Node15 -->
<g id="node15" class="node">
<title>Node15</title>
<g id="a_node15"><a xlink:href="intrusive__ptr_8hpp.html" target="_top" xlink:title=" ">
<polygon fill="none" stroke="black" points="380.98,-179.5 380.98,-209.5 477.98,-209.5 477.98,-179.5 380.98,-179.5"/>
<text text-anchor="start" x="388.98" y="-197.5" font-family="Helvetica,sans-Serif" font-size="10.00">yaclib/util/intrusive</text>
<text text-anchor="middle" x="429.48" y="-186.5" font-family="Helvetica,sans-Serif" font-size="10.00">_ptr.hpp</text>
</a>
</g>
</g>
<!-- Node2&#45;&gt;Node15 -->
<g id="edge30" class="edge">
<title>Node2&#45;&gt;Node15</title>
<path fill="none" stroke="midnightblue" d="M651.13,-447.4C640.88,-414.73 614.76,-334.97 597.48,-313 562.59,-268.64 506.47,-234.15 468.8,-214.33"/>
<polygon fill="midnightblue" stroke="midnightblue" points="470.14,-211.08 459.65,-209.61 466.93,-217.3 470.14,-211.08"/>
</g>
<!-- Node22 -->
<g id="node22" class="node">
<title>Node22</title>
<g id="a_node22"><a xlink:href="result_8hpp.html" target="_top" xlink:title=" ">
<polygon fill="none" stroke="black" points="703.48,-386 703.48,-405 805.48,-405 805.48,-386 703.48,-386"/>
<text text-anchor="middle" x="754.48" y="-393" font-family="Helvetica,sans-Serif" font-size="10.00">yaclib/util/result.hpp</text>
</a>
</g>
</g>
<!-- Node2&#45;&gt;Node22 -->
<g id="edge31" class="edge">
<title>Node2&#45;&gt;Node22</title>
<path fill="none" stroke="midnightblue" d="M676.96,-447.4C693.56,-436.5 716.43,-421.48 733.03,-410.58"/>
<polygon fill="midnightblue" stroke="midnightblue" points="735.08,-413.42 741.52,-405.01 731.24,-407.57 735.08,-413.42"/>
</g>
<!-- Node4 -->
<g id="node4" class="node">
<title>Node4</title>
<g id="a_node4"><a xlink:href="inline__core_8hpp.html" target="_top" xlink:title=" ">
<polygon fill="none" stroke="black" points="31.98,-313.5 31.98,-343.5 120.98,-343.5 120.98,-313.5 31.98,-313.5"/>
<text text-anchor="start" x="39.98" y="-331.5" font-family="Helvetica,sans-Serif" font-size="10.00">yaclib/algo/detail</text>
<text text-anchor="middle" x="76.48" y="-320.5" font-family="Helvetica,sans-Serif" font-size="10.00">/inline_core.hpp</text>
</a>
</g>
</g>
<!-- Node3&#45;&gt;Node4 -->
<g id="edge3" class="edge">
<title>Node3&#45;&gt;Node4</title>
<path fill="none" stroke="midnightblue" d="M213.51,-380.4C187.25,-370.64 152.12,-357.59 124,-347.15"/>
<polygon fill="midnightblue" stroke="midnightblue" points="124.97,-343.78 114.38,-343.58 122.53,-350.34 124.97,-343.78"/>
</g>
<!-- Node5 -->
<g id="node5" class="node">
<title>Node5</title>
<g id="a_node5"><a xlink:title=" ">
<polygon fill="none" stroke="#bfbfbf" points="105.48,-252 105.48,-271 193.48,-271 193.48,-252 105.48,-252"/>
<text text-anchor="middle" x="149.48" y="-259" font-family="Helvetica,sans-Serif" font-size="10.00">yaclib/config.hpp</text>
</a>
</g>
</g>
<!-- Node3&#45;&gt;Node5 -->
<g id="edge14" class="edge">
<title>Node3&#45;&gt;Node5</title>
<path fill="none" stroke="midnightblue" d="M219.42,-380.44C203.52,-371.98 185.25,-359.77 173.48,-344 159.59,-325.39 153.7,-298.85 151.23,-281.17"/>
<polygon fill="midnightblue" stroke="midnightblue" points="154.71,-280.76 150.07,-271.23 147.76,-281.57 154.71,-280.76"/>
</g>
<!-- Node7 -->
<g id="node7" class="node">
<title>Node7</title>
<g id="a_node7"><a xlink:href="log_8hpp.html" target="_top" xlink:title=" ">
<polygon fill="none" stroke="black" points="71.98,-56.5 71.98,-75.5 146.98,-75.5 146.98,-56.5 71.98,-56.5"/>
<text text-anchor="middle" x="109.48" y="-63.5" font-family="Helvetica,sans-Serif" font-size="10.00">yaclib/log.hpp</text>
</a>
</g>
</g>
<!-- Node3&#45;&gt;Node7 -->
<g id="edge25" class="edge">
<title>Node3&#45;&gt;Node7</title>
<path fill="none" stroke="midnightblue" d="M206.92,-390.19C147.95,-383.59 48.4,-369.03 22.48,-344 -4.43,-318.02 1.48,-299.91 1.48,-262.5 1.48,-262.5 1.48,-262.5 1.48,-193.5 1.48,-142.25 53.39,-101.26 85.23,-80.94"/>
<polygon fill="midnightblue" stroke="midnightblue" points="87.32,-83.76 94,-75.53 83.65,-77.8 87.32,-83.76"/>
</g>
<!-- Node11 -->
<g id="node11" class="node">
<title>Node11</title>
<g id="a_node11"><a xlink:href="ref_8hpp.html" target="_top" xlink:title=" ">
<polygon fill="none" stroke="black" points="384.98,-56.5 384.98,-75.5 473.98,-75.5 473.98,-56.5 384.98,-56.5"/>
<text text-anchor="middle" x="429.48" y="-63.5" font-family="Helvetica,sans-Serif" font-size="10.00">yaclib/util/ref.hpp</text>
</a>
</g>
</g>
<!-- Node3&#45;&gt;Node11 -->
<g id="edge26" class="edge">
<title>Node3&#45;&gt;Node11</title>
<path fill="none" stroke="midnightblue" d="M244.56,-380.31C240.13,-370.4 234.79,-356.72 232.48,-344 217.94,-264.06 211.52,-170.11 263.48,-112 278.36,-95.36 332.48,-82.81 374.93,-75.24"/>
<polygon fill="midnightblue" stroke="midnightblue" points="375.63,-78.67 384.89,-73.52 374.44,-71.78 375.63,-78.67"/>
</g>
<!-- Node14 -->
<g id="node14" class="node">
<title>Node14</title>
<g id="a_node14"><a xlink:href="executor_8hpp.html" target="_top" xlink:title=" ">
<polygon fill="none" stroke="black" points="367.98,-252 367.98,-271 484.98,-271 484.98,-252 367.98,-252"/>
<text text-anchor="middle" x="426.48" y="-259" font-family="Helvetica,sans-Serif" font-size="10.00">yaclib/exe/executor.hpp</text>
</a>
</g>
</g>
<!-- Node3&#45;&gt;Node14 -->
<g id="edge15" class="edge">
<title>Node3&#45;&gt;Node14</title>
<path fill="none" stroke="midnightblue" d="M244.94,-380.21C237.94,-362.55 229.69,-332.44 244.48,-313 258.48,-294.58 312.37,-281.12 357.9,-272.75"/>
<polygon fill="midnightblue" stroke="midnightblue" points="358.54,-276.19 367.77,-270.99 357.31,-269.3 358.54,-276.19"/>
</g>
<!-- Node17 -->
<g id="node17" class="node">
<title>Node17</title>
<g id="a_node17"><a xlink:href="inline_8hpp.html" target="_top" xlink:title=" ">
<polygon fill="none" stroke="black" points="485.98,-319 485.98,-338 588.98,-338 588.98,-319 485.98,-319"/>
<text text-anchor="middle" x="537.48" y="-326" font-family="Helvetica,sans-Serif" font-size="10.00">yaclib/exe/inline.hpp</text>
</a>
</g>
</g>
<!-- Node3&#45;&gt;Node17 -->
<g id="edge22" class="edge">
<title>Node3&#45;&gt;Node17</title>
<path fill="none" stroke="midnightblue" d="M296.34,-384.61C341.78,-374.54 414.07,-358.42 476.48,-344 481.52,-342.84 486.79,-341.6 492.03,-340.37"/>
<polygon fill="midnightblue" stroke="midnightblue" points="493.09,-343.72 502.01,-338.01 491.48,-336.9 493.09,-343.72"/>
</g>
<!-- Node19 -->
<g id="node19" class="node">
<title>Node19</title>
<g id="a_node19"><a xlink:title=" ">
<polygon fill="none" stroke="#bfbfbf" points="253.48,-319 253.48,-338 299.48,-338 299.48,-319 253.48,-319"/>
<text text-anchor="middle" x="276.48" y="-326" font-family="Helvetica,sans-Serif" font-size="10.00">cstdint</text>
</a>
</g>
</g>
<!-- Node3&#45;&gt;Node19 -->
<g id="edge27" class="edge">
<title>Node3&#45;&gt;Node19</title>
<path fill="none" stroke="midnightblue" d="M256.9,-380.4C260.61,-370.76 265.55,-357.91 269.54,-347.54"/>
<polygon fill="midnightblue" stroke="midnightblue" points="272.81,-348.78 273.13,-338.19 266.28,-346.27 272.81,-348.78"/>
</g>
<!-- Node20 -->
<g id="node20" class="node">
<title>Node20</title>
<g id="a_node20"><a xlink:title=" ">
<polygon fill="none" stroke="#bfbfbf" points="317.48,-319 317.48,-338 357.48,-338 357.48,-319 317.48,-319"/>
<text text-anchor="middle" x="337.48" y="-326" font-family="Helvetica,sans-Serif" font-size="10.00">limits</text>
</a>
</g>
</g>
<!-- Node3&#45;&gt;Node20 -->
<g id="edge28" class="edge">
<title>Node3&#45;&gt;Node20</title>
<path fill="none" stroke="midnightblue" d="M270.14,-380.4C284.21,-369.76 303.47,-355.2 317.79,-344.38"/>
<polygon fill="midnightblue" stroke="midnightblue" points="320.11,-347.02 325.97,-338.19 315.89,-341.43 320.11,-347.02"/>
</g>
<!-- Node21 -->
<g id="node21" class="node">
<title>Node21</title>
<g id="a_node21"><a xlink:title=" ">
<polygon fill="none" stroke="#bfbfbf" points="375.48,-319 375.48,-338 467.48,-338 467.48,-319 375.48,-319"/>
<text text-anchor="middle" x="421.48" y="-326" font-family="Helvetica,sans-Serif" font-size="10.00">yaclib_std/atomic</text>
</a>
</g>
</g>
<!-- Node3&#45;&gt;Node21 -->
<g id="edge29" class="edge">
<title>Node3&#45;&gt;Node21</title>
<path fill="none" stroke="midnightblue" d="M288.36,-380.4C318.59,-368.84 360.92,-352.66 389.67,-341.66"/>
<polygon fill="midnightblue" stroke="midnightblue" points="391.14,-344.85 399.23,-338.01 388.64,-338.31 391.14,-344.85"/>
</g>
<!-- Node4&#45;&gt;Node5 -->
<g id="edge4" class="edge">
<title>Node4&#45;&gt;Node5</title>
<path fill="none" stroke="midnightblue" d="M92.32,-313.4C104.04,-302.96 120,-288.75 132.07,-278"/>
<polygon fill="midnightblue" stroke="midnightblue" points="134.57,-280.46 139.71,-271.19 129.92,-275.23 134.57,-280.46"/>
</g>
<!-- Node6 -->
<g id="node6" class="node">
<title>Node6</title>
<g id="a_node6"><a xlink:href="job_8hpp.html" target="_top" xlink:title=" ">
<polygon fill="none" stroke="black" points="99.98,-185 99.98,-204 192.98,-204 192.98,-185 99.98,-185"/>
<text text-anchor="middle" x="146.48" y="-192" font-family="Helvetica,sans-Serif" font-size="10.00">yaclib/exe/job.hpp</text>
</a>
</g>
</g>
<!-- Node4&#45;&gt;Node6 -->
<g id="edge5" class="edge">
<title>Node4&#45;&gt;Node6</title>
<path fill="none" stroke="midnightblue" d="M77.63,-313.4C79.53,-296.46 84.38,-267.61 96.48,-246 104.09,-232.41 116.35,-219.94 126.83,-210.79"/>
<polygon fill="midnightblue" stroke="midnightblue" points="129.29,-213.3 134.73,-204.21 124.8,-207.93 129.29,-213.3"/>
</g>
<!-- Node4&#45;&gt;Node7 -->
<g id="edge13" class="edge">
<title>Node4&#45;&gt;Node7</title>
<path fill="none" stroke="midnightblue" d="M70.75,-313.34C57.26,-277.67 26.9,-181.98 58.48,-112 64.09,-99.56 75.04,-89.17 85.36,-81.53"/>
<polygon fill="midnightblue" stroke="midnightblue" points="87.48,-84.31 93.74,-75.76 83.52,-78.54 87.48,-84.31"/>
</g>
<!-- Node6&#45;&gt;Node7 -->
<g id="edge6" class="edge">
<title>Node6&#45;&gt;Node7</title>
<path fill="none" stroke="midnightblue" d="M151.06,-184.51C158.29,-169.03 170.44,-136.61 159.48,-112 153.91,-99.5 142.96,-89.01 132.73,-81.32"/>
<polygon fill="midnightblue" stroke="midnightblue" points="134.63,-78.38 124.43,-75.53 130.63,-84.12 134.63,-78.38"/>
</g>
<!-- Node9 -->
<g id="node9" class="node">
<title>Node9</title>
<g id="a_node9"><a xlink:href="node_8hpp.html" target="_top" xlink:title=" ">
<polygon fill="none" stroke="black" points="67.98,-112.5 67.98,-142.5 150.98,-142.5 150.98,-112.5 67.98,-112.5"/>
<text text-anchor="start" x="75.98" y="-130.5" font-family="Helvetica,sans-Serif" font-size="10.00">yaclib/util/detail</text>
<text text-anchor="middle" x="109.48" y="-119.5" font-family="Helvetica,sans-Serif" font-size="10.00">/node.hpp</text>
</a>
</g>
</g>
<!-- Node6&#45;&gt;Node9 -->
<g id="edge8" class="edge">
<title>Node6&#45;&gt;Node9</title>
<path fill="none" stroke="midnightblue" d="M141.49,-184.73C136.63,-176.2 129.04,-162.87 122.48,-151.33"/>
<polygon fill="midnightblue" stroke="midnightblue" points="125.49,-149.55 117.5,-142.59 119.4,-153.01 125.49,-149.55"/>
</g>
<!-- Node10 -->
<g id="node10" class="node">
<title>Node10</title>
<g id="a_node10"><a xlink:href="func_8hpp.html" target="_top" xlink:title=" ">
<polygon fill="none" stroke="black" points="460.98,-118 460.98,-137 557.98,-137 557.98,-118 460.98,-118"/>
<text text-anchor="middle" x="509.48" y="-125" font-family="Helvetica,sans-Serif" font-size="10.00">yaclib/util/func.hpp</text>
</a>
</g>
</g>
<!-- Node6&#45;&gt;Node10 -->
<g id="edge9" class="edge">
<title>Node6&#45;&gt;Node10</title>
<path fill="none" stroke="midnightblue" d="M193.19,-185.14C259.26,-173.31 379.92,-151.7 451.59,-138.87"/>
<polygon fill="midnightblue" stroke="midnightblue" points="452.56,-142.25 461.79,-137.04 451.33,-135.36 452.56,-142.25"/>
</g>
<!-- Node8 -->
<g id="node8" class="node">
<title>Node8</title>
<g id="a_node8"><a xlink:title=" ">
<polygon fill="none" stroke="#bfbfbf" points="76.48,-0.5 76.48,-19.5 142.48,-19.5 142.48,-0.5 76.48,-0.5"/>
<text text-anchor="middle" x="109.48" y="-7.5" font-family="Helvetica,sans-Serif" font-size="10.00">string_view</text>
</a>
</g>
</g>
<!-- Node7&#45;&gt;Node8 -->
<g id="edge7" class="edge">
<title>Node7&#45;&gt;Node8</title>
<path fill="none" stroke="midnightblue" d="M109.48,-56.08C109.48,-49.01 109.48,-38.86 109.48,-29.99"/>
<polygon fill="midnightblue" stroke="midnightblue" points="112.98,-29.75 109.48,-19.75 105.98,-29.75 112.98,-29.75"/>
</g>
<!-- Node10&#45;&gt;Node11 -->
<g id="edge10" class="edge">
<title>Node10&#45;&gt;Node11</title>
<path fill="none" stroke="midnightblue" d="M498.02,-117.98C485.3,-108.52 464.56,-93.1 449.22,-81.69"/>
<polygon fill="midnightblue" stroke="midnightblue" points="451.03,-78.67 440.92,-75.51 446.85,-84.29 451.03,-78.67"/>
</g>
<!-- Node12 -->
<g id="node12" class="node">
<title>Node12</title>
<g id="a_node12"><a xlink:title=" ">
<polygon fill="none" stroke="#bfbfbf" points="1078.48,-56.5 1078.48,-75.5 1140.48,-75.5 1140.48,-56.5 1078.48,-56.5"/>
<text text-anchor="middle" x="1109.48" y="-63.5" font-family="Helvetica,sans-Serif" font-size="10.00">type_traits</text>
</a>
</g>
</g>
<!-- Node10&#45;&gt;Node12 -->
<g id="edge11" class="edge">
<title>Node10&#45;&gt;Node12</title>
<path fill="none" stroke="midnightblue" d="M548.36,-117.95C559.35,-115.76 571.35,-113.58 582.48,-112 762.46,-86.52 979.2,-73.54 1068.24,-68.96"/>
<polygon fill="midnightblue" stroke="midnightblue" points="1068.64,-72.45 1078.45,-68.44 1068.29,-65.45 1068.64,-72.45"/>
</g>
<!-- Node10&#45;&gt;Node13 -->
<g id="edge12" class="edge">
<title>Node10&#45;&gt;Node13</title>
<path fill="none" stroke="midnightblue" d="M537.7,-117.98C574.75,-106.78 639.49,-87.23 677.1,-75.87"/>
<polygon fill="midnightblue" stroke="midnightblue" points="678.39,-79.14 686.95,-72.9 676.36,-72.44 678.39,-79.14"/>
</g>
<!-- Node14&#45;&gt;Node6 -->
<g id="edge16" class="edge">
<title>Node14&#45;&gt;Node6</title>
<path fill="none" stroke="midnightblue" d="M389.58,-251.94C339.12,-240.22 248.54,-219.19 193.33,-206.38"/>
<polygon fill="midnightblue" stroke="midnightblue" points="193.98,-202.94 183.45,-204.08 192.4,-209.75 193.98,-202.94"/>
</g>
<!-- Node14&#45;&gt;Node15 -->
<g id="edge17" class="edge">
<title>Node14&#45;&gt;Node15</title>
<path fill="none" stroke="midnightblue" d="M426.88,-251.73C427.26,-243.54 427.84,-230.92 428.36,-219.71"/>
<polygon fill="midnightblue" stroke="midnightblue" points="431.86,-219.74 428.83,-209.59 424.87,-219.42 431.86,-219.74"/>
</g>
<!-- Node15&#45;&gt;Node11 -->
<g id="edge18" class="edge">
<title>Node15&#45;&gt;Node11</title>
<path fill="none" stroke="midnightblue" d="M429.48,-179.48C429.48,-156.72 429.48,-111.7 429.48,-86.06"/>
<polygon fill="midnightblue" stroke="midnightblue" points="432.98,-85.79 429.48,-75.79 425.98,-85.79 432.98,-85.79"/>
</g>
<!-- Node15&#45;&gt;Node12 -->
<g id="edge19" class="edge">
<title>Node15&#45;&gt;Node12</title>
<path fill="none" stroke="midnightblue" d="M478.11,-184.45C605.87,-160.69 949.36,-96.79 1068.28,-74.66"/>
<polygon fill="midnightblue" stroke="midnightblue" points="1069.23,-78.05 1078.42,-72.78 1067.95,-71.17 1069.23,-78.05"/>
</g>
<!-- Node16 -->
<g id="node16" class="node">
<title>Node16</title>
<g id="a_node16"><a xlink:href="intrusive__ptr__impl_8hpp.html" target="_top" xlink:title=" ">
<polygon fill="none" stroke="black" points="272.48,-112.5 272.48,-142.5 386.48,-142.5 386.48,-112.5 272.48,-112.5"/>
<text text-anchor="start" x="280.48" y="-130.5" font-family="Helvetica,sans-Serif" font-size="10.00">yaclib/util/detail</text>
<text text-anchor="middle" x="329.48" y="-119.5" font-family="Helvetica,sans-Serif" font-size="10.00">/intrusive_ptr_impl.hpp</text>
</a>
</g>
</g>
<!-- Node15&#45;&gt;Node16 -->
<g id="edge20" class="edge">
<title>Node15&#45;&gt;Node16</title>
<path fill="none" stroke="midnightblue" d="M407.78,-179.4C393.76,-170.28 375.31,-158.29 359.84,-148.24"/>
<polygon fill="midnightblue" stroke="midnightblue" points="361.43,-145.09 351.13,-142.58 357.61,-150.96 361.43,-145.09"/>
</g>
<!-- Node16&#45;&gt;Node7 -->
<g id="edge21" class="edge">
<title>Node16&#45;&gt;Node7</title>
<path fill="none" stroke="midnightblue" d="M277.62,-112.47C238.84,-101.99 186.52,-87.84 150.6,-78.12"/>
<polygon fill="midnightblue" stroke="midnightblue" points="151.5,-74.74 140.93,-75.51 149.67,-81.5 151.5,-74.74"/>
</g>
<!-- Node17&#45;&gt;Node14 -->
<g id="edge23" class="edge">
<title>Node17&#45;&gt;Node14</title>
<path fill="none" stroke="midnightblue" d="M522.51,-318.73C503.87,-307.82 471.81,-289.05 449.91,-276.22"/>
<polygon fill="midnightblue" stroke="midnightblue" points="451.61,-273.16 441.21,-271.13 448.07,-279.2 451.61,-273.16"/>
</g>
<!-- Node17&#45;&gt;Node18 -->
<g id="edge24" class="edge">
<title>Node17&#45;&gt;Node18</title>
<path fill="none" stroke="midnightblue" d="M556.9,-318.84C607.83,-296.13 745.4,-234.78 805.14,-208.14"/>
<polygon fill="midnightblue" stroke="midnightblue" points="806.66,-211.29 814.37,-204.02 803.81,-204.9 806.66,-211.29"/>
</g>
<!-- Node22&#45;&gt;Node13 -->
<g id="edge42" class="edge">
<title>Node22&#45;&gt;Node13</title>
<path fill="none" stroke="midnightblue" d="M754.81,-385.85C755.59,-364.77 757.48,-309.03 757.48,-262.5 757.48,-262.5 757.48,-262.5 757.48,-193.5 757.48,-151.88 733.43,-107.77 718.36,-84.22"/>
<polygon fill="midnightblue" stroke="midnightblue" points="721.17,-82.12 712.73,-75.71 715.33,-85.98 721.17,-82.12"/>
</g>
<!-- Node22&#45;&gt;Node18 -->
<g id="edge32" class="edge">
<title>Node22&#45;&gt;Node18</title>
<path fill="none" stroke="midnightblue" d="M757.87,-385.95C769.77,-355.97 809.77,-255.23 826.27,-213.67"/>
<polygon fill="midnightblue" stroke="midnightblue" points="829.57,-214.83 830.01,-204.24 823.06,-212.25 829.57,-214.83"/>
</g>
<!-- Node22&#45;&gt;Node23 -->
<g id="edge33" class="edge">
<title>Node22&#45;&gt;Node23</title>
<path fill="none" stroke="midnightblue" d="M781.97,-385.87C818.64,-374.35 883.7,-353.92 924.61,-341.08"/>
<polygon fill="midnightblue" stroke="midnightblue" points="925.71,-344.4 934.21,-338.06 923.62,-337.72 925.71,-344.4"/>
</g>
<!-- Node25 -->
<g id="node25" class="node">
<title>Node25</title>
<g id="a_node25"><a xlink:title=" ">
<polygon fill="none" stroke="#bfbfbf" points="861.48,-252 861.48,-271 919.48,-271 919.48,-252 861.48,-252"/>
<text text-anchor="middle" x="890.48" y="-259" font-family="Helvetica,sans-Serif" font-size="10.00">exception</text>
</a>
</g>
</g>
<!-- Node22&#45;&gt;Node25 -->
<g id="edge41" class="edge">
<title>Node22&#45;&gt;Node25</title>
<path fill="none" stroke="midnightblue" d="M764.34,-385.69C775.44,-375.72 793.96,-358.91 809.48,-344 832.71,-321.67 858.88,-295.06 875.03,-278.47"/>
<polygon fill="midnightblue" stroke="midnightblue" points="877.64,-280.81 882.09,-271.19 872.61,-275.93 877.64,-280.81"/>
</g>
<!-- Node26 -->
<g id="node26" class="node">
<title>Node26</title>
<g id="a_node26"><a xlink:title=" ">
<polygon fill="none" stroke="#bfbfbf" points="683.48,-319 683.48,-338 729.48,-338 729.48,-319 683.48,-319"/>
<text text-anchor="middle" x="706.48" y="-326" font-family="Helvetica,sans-Serif" font-size="10.00">variant</text>
</a>
</g>
</g>
<!-- Node22&#45;&gt;Node26 -->
<g id="edge43" class="edge">
<title>Node22&#45;&gt;Node26</title>
<path fill="none" stroke="midnightblue" d="M748,-385.73C740.59,-375.7 728.27,-359.01 718.97,-346.42"/>
<polygon fill="midnightblue" stroke="midnightblue" points="721.6,-344.09 712.85,-338.13 715.97,-348.25 721.6,-344.09"/>
</g>
<!-- Node23&#45;&gt;Node12 -->
<g id="edge39" class="edge">
<title>Node23&#45;&gt;Node12</title>
<path fill="none" stroke="midnightblue" d="M1023.27,-325.37C1058.72,-320.58 1100.61,-308.09 1123.48,-277 1166.52,-218.5 1134.28,-124.24 1117.72,-85.02"/>
<polygon fill="midnightblue" stroke="midnightblue" points="1120.85,-83.44 1113.62,-75.69 1114.44,-86.25 1120.85,-83.44"/>
</g>
<!-- Node23&#45;&gt;Node13 -->
<g id="edge40" class="edge">
<title>Node23&#45;&gt;Node13</title>
<path fill="none" stroke="midnightblue" d="M1003.56,-318.95C1049.85,-307.46 1114.68,-283.98 1090.48,-246 1009.48,-118.88 812.1,-80.58 736.57,-70.35"/>
<polygon fill="midnightblue" stroke="midnightblue" points="736.7,-66.84 726.33,-69.04 735.81,-73.78 736.7,-66.84"/>
</g>
<!-- Node23&#45;&gt;Node18 -->
<g id="edge34" class="edge">
<title>Node23&#45;&gt;Node18</title>
<path fill="none" stroke="midnightblue" d="M960,-318.85C956.85,-302.73 948.1,-267.77 928.48,-246 912.75,-228.55 889.55,-216.06 870.02,-207.86"/>
<polygon fill="midnightblue" stroke="midnightblue" points="871.07,-204.52 860.48,-204.08 868.48,-211.02 871.07,-204.52"/>
</g>
<!-- Node24 -->
<g id="node24" class="node">
<title>Node24</title>
<g id="a_node24"><a xlink:href="type__traits__impl_8hpp.html" target="_top" xlink:title=" ">
<polygon fill="none" stroke="black" points="975.48,-246.5 975.48,-276.5 1081.48,-276.5 1081.48,-246.5 975.48,-246.5"/>
<text text-anchor="start" x="983.48" y="-264.5" font-family="Helvetica,sans-Serif" font-size="10.00">yaclib/util/detail</text>
<text text-anchor="middle" x="1028.48" y="-253.5" font-family="Helvetica,sans-Serif" font-size="10.00">/type_traits_impl.hpp</text>
</a>
</g>
</g>
<!-- Node23&#45;&gt;Node24 -->
<g id="edge35" class="edge">
<title>Node23&#45;&gt;Node24</title>
<path fill="none" stroke="midnightblue" d="M970.51,-318.73C979.74,-309.78 994.42,-295.54 1006.69,-283.63"/>
<polygon fill="midnightblue" stroke="midnightblue" points="1009.21,-286.06 1013.96,-276.59 1004.34,-281.04 1009.21,-286.06"/>
</g>
<!-- Node23&#45;&gt;Node25 -->
<g id="edge38" class="edge">
<title>Node23&#45;&gt;Node25</title>
<path fill="none" stroke="midnightblue" d="M951.9,-318.73C940.51,-308.31 921.29,-290.71 907.38,-277.97"/>
<polygon fill="midnightblue" stroke="midnightblue" points="909.64,-275.3 899.9,-271.13 904.91,-280.46 909.64,-275.3"/>
</g>
<!-- Node24&#45;&gt;Node12 -->
<g id="edge37" class="edge">
<title>Node24&#45;&gt;Node12</title>
<path fill="none" stroke="midnightblue" d="M1034.43,-246.27C1048.93,-211.65 1086.01,-123.06 1101.98,-84.91"/>
<polygon fill="midnightblue" stroke="midnightblue" points="1105.25,-86.15 1105.89,-75.58 1098.8,-83.45 1105.25,-86.15"/>
</g>
<!-- Node24&#45;&gt;Node18 -->
<g id="edge36" class="edge">
<title>Node24&#45;&gt;Node18</title>
<path fill="none" stroke="midnightblue" d="M986.17,-246.4C951.04,-234.69 901.67,-218.23 868.68,-207.23"/>
<polygon fill="midnightblue" stroke="midnightblue" points="869.59,-203.85 859,-204.01 867.38,-210.49 869.59,-203.85"/>
</g>
<!-- Node27&#45;&gt;Node12 -->
<g id="edge48" class="edge">
<title>Node27&#45;&gt;Node12</title>
<path fill="none" stroke="midnightblue" d="M1126.1,-447.15C1147.66,-424.37 1185.48,-377.58 1185.48,-329.5 1185.48,-329.5 1185.48,-329.5 1185.48,-193.5 1185.48,-148.12 1149.1,-104.98 1126.68,-82.7"/>
<polygon fill="midnightblue" stroke="midnightblue" points="1129.05,-80.13 1119.41,-75.73 1124.2,-85.18 1129.05,-80.13"/>
</g>
</g>
</svg>
