<?xml version="1.0" encoding="UTF-8" standalone="no"?>
<!DOCTYPE svg PUBLIC "-//W3C//DTD SVG 1.1//EN"
 "http://www.w3.org/Graphics/SVG/1.1/DTD/svg11.dtd">
<!-- Generated by graphviz version 9.0.0 (20230911.1827)
 -->
<!-- Title: include/yaclib/algo/detail/promise_core.hpp Pages: 1 -->
<svg width="1088pt" height="725pt"
 viewBox="0.00 0.00 1088.00 725.00" xmlns="http://www.w3.org/2000/svg" xmlns:xlink="http://www.w3.org/1999/xlink">
<g id="graph0" class="graph" transform="scale(1 1) rotate(0) translate(4 721)">
<title>include/yaclib/algo/detail/promise_core.hpp</title>
<!-- Node1 -->
<g id="Node000001" class="node">
<title>Node1</title>
<g id="a_Node000001"><a xlink:title=" ">
<polygon fill="#999999" stroke="#666666" points="621.88,-717 500.12,-717 500.12,-686.5 621.88,-686.5 621.88,-717"/>
<text text-anchor="start" x="508.12" y="-703.5" font-family="Helvetica,sans-Serif" font-size="10.00">include/yaclib/algo</text>
<text text-anchor="middle" x="561" y="-692.25" font-family="Helvetica,sans-Serif" font-size="10.00">/detail/promise_core.hpp</text>
</a>
</g>
</g>
<!-- Node2 -->
<g id="Node000002" class="node">
<title>Node2</title>
<g id="a_Node000002"><a xlink:href="func__core_8hpp.html" target="_top" xlink:title=" ">
<polygon fill="white" stroke="#666666" points="870,-329.25 782,-329.25 782,-298.75 870,-298.75 870,-329.25"/>
<text text-anchor="start" x="790" y="-315.75" font-family="Helvetica,sans-Serif" font-size="10.00">yaclib/algo/detail</text>
<text text-anchor="middle" x="826" y="-304.5" font-family="Helvetica,sans-Serif" font-size="10.00">/func_core.hpp</text>
</a>
</g>
</g>
<!-- Node1&#45;&gt;Node2 -->
<g id="edge1_Node000001_Node000002" class="edge">
<title>Node1&#45;&gt;Node2</title>
<g id="a_edge1_Node000001_Node000002"><a xlink:title=" ">
<path fill="none" stroke="#63b8ff" d="M622.07,-693.87C735.21,-679.41 966,-641.16 966,-569.75 966,-569.75 966,-569.75 966,-434.75 966,-386.31 916.99,-353.27 876.97,-334.36"/>
<polygon fill="#63b8ff" stroke="#63b8ff" points="878.43,-331.18 867.87,-330.25 875.55,-337.56 878.43,-331.18"/>
</a>
</g>
</g>
<!-- Node5 -->
<g id="Node000005" class="node">
<title>Node5</title>
<g id="a_Node000005"><a xlink:title=" ">
<polygon fill="#e0e0e0" stroke="#999999" points="639.5,-135.38 578.5,-135.38 578.5,-116.12 639.5,-116.12 639.5,-135.38"/>
<text text-anchor="middle" x="609" y="-121.88" font-family="Helvetica,sans-Serif" font-size="10.00">type_traits</text>
</a>
</g>
</g>
<!-- Node1&#45;&gt;Node5 -->
<g id="edge63_Node000001_Node000005" class="edge">
<title>Node1&#45;&gt;Node5</title>
<g id="a_edge63_Node000001_Node000005"><a xlink:title=" ">
<path fill="none" stroke="#63b8ff" d="M621.92,-696.97C751.35,-687.26 1042,-655.87 1042,-569.75 1042,-569.75 1042,-569.75 1042,-252.12 1042,-144.77 702.46,-149.45 662,-141 658.41,-140.25 654.7,-139.4 650.99,-138.51"/>
<polygon fill="#63b8ff" stroke="#63b8ff" points="651.99,-135.15 641.43,-136.08 650.26,-141.93 651.99,-135.15"/>
</a>
</g>
</g>
<!-- Node6 -->
<g id="Node000006" class="node">
<title>Node6</title>
<g id="a_Node000006"><a xlink:title=" ">
<polygon fill="#e0e0e0" stroke="#999999" points="185.25,-135.38 146.75,-135.38 146.75,-116.12 185.25,-116.12 185.25,-135.38"/>
<text text-anchor="middle" x="166" y="-121.88" font-family="Helvetica,sans-Serif" font-size="10.00">utility</text>
</a>
</g>
</g>
<!-- Node1&#45;&gt;Node6 -->
<g id="edge64_Node000001_Node000006" class="edge">
<title>Node1&#45;&gt;Node6</title>
<g id="a_edge64_Node000001_Node000006"><a xlink:title=" ">
<path fill="none" stroke="#63b8ff" d="M499.63,-699.31C354.06,-694.24 0,-671.45 0,-569.75 0,-569.75 0,-569.75 0,-252.12 0,-185.06 87.34,-149.32 135.31,-134.75"/>
<polygon fill="#63b8ff" stroke="#63b8ff" points="136.22,-138.13 144.85,-131.99 134.27,-131.41 136.22,-138.13"/>
</a>
</g>
</g>
<!-- Node7 -->
<g id="Node000007" class="node">
<title>Node7</title>
<g id="a_Node000007"><a xlink:href="shared__core_8hpp.html" target="_top" xlink:title=" ">
<polygon fill="white" stroke="#666666" points="392.12,-584 301.88,-584 301.88,-553.5 392.12,-553.5 392.12,-584"/>
<text text-anchor="start" x="309.88" y="-570.5" font-family="Helvetica,sans-Serif" font-size="10.00">yaclib/algo/detail</text>
<text text-anchor="middle" x="347" y="-559.25" font-family="Helvetica,sans-Serif" font-size="10.00">/shared_core.hpp</text>
</a>
</g>
</g>
<!-- Node1&#45;&gt;Node7 -->
<g id="edge6_Node000001_Node000007" class="edge">
<title>Node1&#45;&gt;Node7</title>
<g id="a_edge6_Node000001_Node000007"><a xlink:title=" ">
<path fill="none" stroke="#63b8ff" d="M519.62,-686.09C496.83,-677.23 468.5,-664.87 445,-650.5 441.09,-648.11 400.95,-614.78 373.27,-591.7"/>
<polygon fill="#63b8ff" stroke="#63b8ff" points="375.51,-589.01 365.59,-585.29 371.03,-594.39 375.51,-589.01"/>
</a>
</g>
</g>
<!-- Node12 -->
<g id="Node000012" class="node">
<title>Node12</title>
<g id="a_Node000012"><a xlink:href="log_8hpp.html" target="_top" xlink:title=" ">
<polygon fill="white" stroke="#666666" points="863.25,-74.5 788.75,-74.5 788.75,-55.25 863.25,-55.25 863.25,-74.5"/>
<text text-anchor="middle" x="826" y="-61" font-family="Helvetica,sans-Serif" font-size="10.00">yaclib/log.hpp</text>
</a>
</g>
</g>
<!-- Node1&#45;&gt;Node12 -->
<g id="edge62_Node000001_Node000012" class="edge">
<title>Node1&#45;&gt;Node12</title>
<g id="a_edge62_Node000001_Node000012"><a xlink:title=" ">
<path fill="none" stroke="#63b8ff" d="M622.23,-697.73C723.14,-692.05 919.55,-677.81 983,-650.5 1034.53,-628.33 1080,-625.84 1080,-569.75 1080,-569.75 1080,-569.75 1080,-191.25 1080,-100.69 948.57,-75.54 874.8,-68.56"/>
<polygon fill="#63b8ff" stroke="#63b8ff" points="875.25,-65.09 864.99,-67.72 874.65,-72.06 875.25,-65.09"/>
</a>
</g>
</g>
<!-- Node31 -->
<g id="Node000031" class="node">
<title>Node31</title>
<g id="a_Node000031"><a xlink:href="unique__core_8hpp.html" target="_top" xlink:title=" ">
<polygon fill="white" stroke="#666666" points="641.75,-584 552.25,-584 552.25,-553.5 641.75,-553.5 641.75,-584"/>
<text text-anchor="start" x="560.25" y="-570.5" font-family="Helvetica,sans-Serif" font-size="10.00">yaclib/algo/detail</text>
<text text-anchor="middle" x="597" y="-559.25" font-family="Helvetica,sans-Serif" font-size="10.00">/unique_core.hpp</text>
</a>
</g>
</g>
<!-- Node1&#45;&gt;Node31 -->
<g id="edge53_Node000001_Node000031" class="edge">
<title>Node1&#45;&gt;Node31</title>
<g id="a_edge53_Node000001_Node000031"><a xlink:title=" ">
<path fill="none" stroke="#63b8ff" d="M570.18,-686.39C575.96,-676.65 583.05,-663.26 587,-650.5 592.53,-632.65 595.01,-611.69 596.12,-595.59"/>
<polygon fill="#63b8ff" stroke="#63b8ff" points="599.6,-596.05 596.65,-585.88 592.61,-595.68 599.6,-596.05"/>
</a>
</g>
</g>
<!-- Node32 -->
<g id="Node000032" class="node">
<title>Node32</title>
<g id="a_Node000032"><a xlink:href="promise_8hpp.html" target="_top" xlink:title=" ">
<polygon fill="white" stroke="#666666" points="578.38,-644.88 453.62,-644.88 453.62,-625.62 578.38,-625.62 578.38,-644.88"/>
<text text-anchor="middle" x="516" y="-631.38" font-family="Helvetica,sans-Serif" font-size="10.00">yaclib/async/promise.hpp</text>
</a>
</g>
</g>
<!-- Node1&#45;&gt;Node32 -->
<g id="edge56_Node000001_Node000032" class="edge">
<title>Node1&#45;&gt;Node32</title>
<g id="a_edge56_Node000001_Node000032"><a xlink:title=" ">
<path fill="none" stroke="#63b8ff" d="M550.79,-686.11C544.25,-676.73 535.7,-664.49 528.72,-654.48"/>
<polygon fill="#63b8ff" stroke="#63b8ff" points="531.61,-652.51 523.02,-646.31 525.87,-656.52 531.61,-652.51"/>
</a>
</g>
</g>
<!-- Node33 -->
<g id="Node000033" class="node">
<title>Node33</title>
<g id="a_Node000033"><a xlink:href="shared__promise_8hpp.html" target="_top" xlink:title=" ">
<polygon fill="white" stroke="#666666" points="397.75,-650.5 296.25,-650.5 296.25,-620 397.75,-620 397.75,-650.5"/>
<text text-anchor="start" x="304.25" y="-637" font-family="Helvetica,sans-Serif" font-size="10.00">yaclib/async/shared</text>
<text text-anchor="middle" x="347" y="-625.75" font-family="Helvetica,sans-Serif" font-size="10.00">_promise.hpp</text>
</a>
</g>
</g>
<!-- Node1&#45;&gt;Node33 -->
<g id="edge60_Node000001_Node000033" class="edge">
<title>Node1&#45;&gt;Node33</title>
<g id="a_edge60_Node000001_Node000033"><a xlink:title=" ">
<path fill="none" stroke="#63b8ff" d="M512.17,-686.03C480.81,-676.58 439.86,-664.24 406.58,-654.21"/>
<polygon fill="#63b8ff" stroke="#63b8ff" points="407.65,-650.88 397.07,-651.34 405.63,-657.58 407.65,-650.88"/>
</a>
</g>
</g>
<!-- Node3 -->
<g id="Node000003" class="node">
<title>Node3</title>
<g id="a_Node000003"><a xlink:title=" ">
<polygon fill="#e0e0e0" stroke="#999999" points="903.62,-262.75 816.38,-262.75 816.38,-243.5 903.62,-243.5 903.62,-262.75"/>
<text text-anchor="middle" x="860" y="-249.25" font-family="Helvetica,sans-Serif" font-size="10.00">yaclib/config.hpp</text>
</a>
</g>
</g>
<!-- Node2&#45;&gt;Node3 -->
<g id="edge2_Node000002_Node000003" class="edge">
<title>Node2&#45;&gt;Node3</title>
<g id="a_edge2_Node000002_Node000003"><a xlink:title=" ">
<path fill="none" stroke="#63b8ff" d="M834.4,-298.45C838.83,-290.78 844.32,-281.27 849.08,-273.04"/>
<polygon fill="#63b8ff" stroke="#63b8ff" points="852.03,-274.92 854,-264.51 845.97,-271.42 852.03,-274.92"/>
</a>
</g>
</g>
<!-- Node4 -->
<g id="Node000004" class="node">
<title>Node4</title>
<g id="a_Node000004"><a xlink:href="fwd_8hpp.html" target="_top" xlink:title=" ">
<polygon fill="white" stroke="#666666" points="573.75,-262.75 496.25,-262.75 496.25,-243.5 573.75,-243.5 573.75,-262.75"/>
<text text-anchor="middle" x="535" y="-249.25" font-family="Helvetica,sans-Serif" font-size="10.00">yaclib/fwd.hpp</text>
</a>
</g>
</g>
<!-- Node2&#45;&gt;Node4 -->
<g id="edge3_Node000002_Node000004" class="edge">
<title>Node2&#45;&gt;Node4</title>
<g id="a_edge3_Node000002_Node000004"><a xlink:title=" ">
<path fill="none" stroke="#63b8ff" d="M781.53,-300.78C778.65,-300.07 775.79,-299.38 773,-298.75 708.49,-284.05 633.35,-270.56 585.03,-262.35"/>
<polygon fill="#63b8ff" stroke="#63b8ff" points="585.88,-258.94 575.43,-260.73 584.71,-265.84 585.88,-258.94"/>
</a>
</g>
</g>
<!-- Node2&#45;&gt;Node5 -->
<g id="edge4_Node000002_Node000005" class="edge">
<title>Node2&#45;&gt;Node5</title>
<g id="a_edge4_Node000002_Node000005"><a xlink:title=" ">
<path fill="none" stroke="#63b8ff" d="M820.52,-298.56C807.8,-265.35 776.64,-185.71 767,-177 758.16,-169.01 694.65,-150.33 650.9,-138.14"/>
<polygon fill="#63b8ff" stroke="#63b8ff" points="652,-134.81 641.43,-135.51 650.13,-141.56 652,-134.81"/>
</a>
</g>
</g>
<!-- Node2&#45;&gt;Node6 -->
<g id="edge5_Node000002_Node000006" class="edge">
<title>Node2&#45;&gt;Node6</title>
<g id="a_edge5_Node000002_Node000006"><a xlink:title=" ">
<path fill="none" stroke="#63b8ff" d="M781.74,-299.37C722.68,-281.36 621.1,-251.01 583,-243.5 440.85,-215.48 391.71,-265.63 259,-207.5 241.87,-200 204.74,-165.05 182.93,-143.67"/>
<polygon fill="#63b8ff" stroke="#63b8ff" points="185.53,-141.32 175.96,-136.77 180.61,-146.29 185.53,-141.32"/>
</a>
</g>
</g>
<!-- Node8 -->
<g id="Node000008" class="node">
<title>Node8</title>
<g id="a_Node000008"><a xlink:href="result__core_8hpp.html" target="_top" xlink:title=" ">
<polygon fill="white" stroke="#666666" points="365,-517.5 277,-517.5 277,-487 365,-487 365,-517.5"/>
<text text-anchor="start" x="285" y="-504" font-family="Helvetica,sans-Serif" font-size="10.00">yaclib/algo/detail</text>
<text text-anchor="middle" x="321" y="-492.75" font-family="Helvetica,sans-Serif" font-size="10.00">/result_core.hpp</text>
</a>
</g>
</g>
<!-- Node7&#45;&gt;Node8 -->
<g id="edge7_Node000007_Node000008" class="edge">
<title>Node7&#45;&gt;Node8</title>
<g id="a_edge7_Node000007_Node000008"><a xlink:title=" ">
<path fill="none" stroke="#63b8ff" d="M341.1,-553.11C338.14,-545.77 334.48,-536.68 331.09,-528.27"/>
<polygon fill="#63b8ff" stroke="#63b8ff" points="334.43,-527.2 327.44,-519.23 327.93,-529.82 334.43,-527.2"/>
</a>
</g>
</g>
<!-- Node8&#45;&gt;Node6 -->
<g id="edge52_Node000008_Node000006" class="edge">
<title>Node8&#45;&gt;Node6</title>
<g id="a_edge52_Node000008_Node000006"><a xlink:title=" ">
<path fill="none" stroke="#63b8ff" d="M276.66,-497.16C213.84,-490.56 103.09,-475.76 72,-451 43.33,-428.17 38,-412.52 38,-375.88 38,-375.88 38,-375.88 38,-252.12 38,-197.39 98.47,-158.67 136.28,-139.8"/>
<polygon fill="#63b8ff" stroke="#63b8ff" points="137.41,-143.14 144.92,-135.67 134.39,-136.83 137.41,-143.14"/>
</a>
</g>
</g>
<!-- Node9 -->
<g id="Node000009" class="node">
<title>Node9</title>
<g id="a_Node000009"><a xlink:href="base__core_8hpp.html" target="_top" xlink:title=" ">
<polygon fill="white" stroke="#666666" points="692,-451 604,-451 604,-420.5 692,-420.5 692,-451"/>
<text text-anchor="start" x="612" y="-437.5" font-family="Helvetica,sans-Serif" font-size="10.00">yaclib/algo/detail</text>
<text text-anchor="middle" x="648" y="-426.25" font-family="Helvetica,sans-Serif" font-size="10.00">/base_core.hpp</text>
</a>
</g>
</g>
<!-- Node8&#45;&gt;Node9 -->
<g id="edge8_Node000008_Node000009" class="edge">
<title>Node8&#45;&gt;Node9</title>
<g id="a_edge8_Node000008_Node000009"><a xlink:title=" ">
<path fill="none" stroke="#63b8ff" d="M365.44,-492.48C424.42,-480.85 528.53,-460.32 592.57,-447.68"/>
<polygon fill="#63b8ff" stroke="#63b8ff" points="593.04,-451.16 602.17,-445.79 591.68,-444.29 593.04,-451.16"/>
</a>
</g>
</g>
<!-- Node28 -->
<g id="Node000028" class="node">
<title>Node28</title>
<g id="a_Node000028"><a xlink:href="cast_8hpp.html" target="_top" xlink:title=" ">
<polygon fill="white" stroke="#666666" points="177.12,-445.38 80.88,-445.38 80.88,-426.12 177.12,-426.12 177.12,-445.38"/>
<text text-anchor="middle" x="129" y="-431.88" font-family="Helvetica,sans-Serif" font-size="10.00">yaclib/util/cast.hpp</text>
</a>
</g>
</g>
<!-- Node8&#45;&gt;Node28 -->
<g id="edge43_Node000008_Node000028" class="edge">
<title>Node8&#45;&gt;Node28</title>
<g id="a_edge43_Node000008_Node000028"><a xlink:title=" ">
<path fill="none" stroke="#63b8ff" d="M277.43,-486.61C244.08,-475.41 198.54,-460.11 166.74,-449.43"/>
<polygon fill="#63b8ff" stroke="#63b8ff" points="168.13,-446.2 157.53,-446.34 165.9,-452.84 168.13,-446.2"/>
</a>
</g>
</g>
<!-- Node30 -->
<g id="Node000030" class="node">
<title>Node30</title>
<g id="a_Node000030"><a xlink:href="result_8hpp.html" target="_top" xlink:title=" ">
<polygon fill="white" stroke="#666666" points="327.75,-445.38 226.25,-445.38 226.25,-426.12 327.75,-426.12 327.75,-445.38"/>
<text text-anchor="middle" x="277" y="-431.88" font-family="Helvetica,sans-Serif" font-size="10.00">yaclib/util/result.hpp</text>
</a>
</g>
</g>
<!-- Node8&#45;&gt;Node30 -->
<g id="edge46_Node000008_Node000030" class="edge">
<title>Node8&#45;&gt;Node30</title>
<g id="a_edge46_Node000008_Node000030"><a xlink:title=" ">
<path fill="none" stroke="#63b8ff" d="M311.02,-486.61C304.62,-477.23 296.26,-464.99 289.44,-454.98"/>
<polygon fill="#63b8ff" stroke="#63b8ff" points="292.4,-453.11 283.87,-446.82 286.62,-457.06 292.4,-453.11"/>
</a>
</g>
</g>
<!-- Node10 -->
<g id="Node000010" class="node">
<title>Node10</title>
<g id="a_Node000010"><a xlink:href="inline__core_8hpp.html" target="_top" xlink:title=" ">
<polygon fill="white" stroke="#666666" points="976,-329.25 888,-329.25 888,-298.75 976,-298.75 976,-329.25"/>
<text text-anchor="start" x="896" y="-315.75" font-family="Helvetica,sans-Serif" font-size="10.00">yaclib/algo/detail</text>
<text text-anchor="middle" x="932" y="-304.5" font-family="Helvetica,sans-Serif" font-size="10.00">/inline_core.hpp</text>
</a>
</g>
</g>
<!-- Node9&#45;&gt;Node10 -->
<g id="edge9_Node000009_Node000010" class="edge">
<title>Node9&#45;&gt;Node10</title>
<g id="a_edge9_Node000009_Node000010"><a xlink:title=" ">
<path fill="none" stroke="#63b8ff" d="M692.15,-428.1C731.98,-420.97 791.44,-407.44 839,-384.5 864.51,-372.19 890.03,-352.46 907.87,-337.16"/>
<polygon fill="#63b8ff" stroke="#63b8ff" points="910.11,-339.85 915.32,-330.62 905.49,-334.59 910.11,-339.85"/>
</a>
</g>
</g>
<!-- Node18 -->
<g id="Node000018" class="node">
<title>Node18</title>
<g id="a_Node000018"><a xlink:href="executor_8hpp.html" target="_top" xlink:title=" ">
<polygon fill="white" stroke="#666666" points="764.25,-323.62 647.75,-323.62 647.75,-304.38 764.25,-304.38 764.25,-323.62"/>
<text text-anchor="middle" x="706" y="-310.12" font-family="Helvetica,sans-Serif" font-size="10.00">yaclib/exe/executor.hpp</text>
</a>
</g>
</g>
<!-- Node9&#45;&gt;Node18 -->
<g id="edge22_Node000009_Node000018" class="edge">
<title>Node9&#45;&gt;Node18</title>
<g id="a_edge22_Node000009_Node000018"><a xlink:title=" ">
<path fill="none" stroke="#63b8ff" d="M692.25,-428.18C738.73,-420.27 807.26,-405.39 823,-384.5 843.92,-356.73 802.12,-337.92 762.8,-326.95"/>
<polygon fill="#63b8ff" stroke="#63b8ff" points="763.86,-323.6 753.3,-324.44 762.08,-330.37 763.86,-323.6"/>
</a>
</g>
</g>
<!-- Node21 -->
<g id="Node000021" class="node">
<title>Node21</title>
<g id="a_Node000021"><a xlink:href="inline_8hpp.html" target="_top" xlink:title=" ">
<polygon fill="white" stroke="#666666" points="814.12,-384.5 711.88,-384.5 711.88,-365.25 814.12,-365.25 814.12,-384.5"/>
<text text-anchor="middle" x="763" y="-371" font-family="Helvetica,sans-Serif" font-size="10.00">yaclib/exe/inline.hpp</text>
</a>
</g>
</g>
<!-- Node9&#45;&gt;Node21 -->
<g id="edge29_Node000009_Node000021" class="edge">
<title>Node9&#45;&gt;Node21</title>
<g id="a_edge29_Node000009_Node000021"><a xlink:title=" ">
<path fill="none" stroke="#63b8ff" d="M676.72,-420.05C694.74,-410.82 717.84,-399 735.6,-389.9"/>
<polygon fill="#63b8ff" stroke="#63b8ff" points="736.71,-393.27 744.02,-385.59 733.52,-387.04 736.71,-393.27"/>
</a>
</g>
</g>
<!-- Node22 -->
<g id="Node000022" class="node">
<title>Node22</title>
<g id="a_Node000022"><a xlink:href="type__traits_8hpp.html" target="_top" xlink:title=" ">
<polygon fill="white" stroke="#666666" points="446.25,-384.5 323.75,-384.5 323.75,-365.25 446.25,-365.25 446.25,-384.5"/>
<text text-anchor="middle" x="385" y="-371" font-family="Helvetica,sans-Serif" font-size="10.00">yaclib/util/type_traits.hpp</text>
</a>
</g>
</g>
<!-- Node9&#45;&gt;Node22 -->
<g id="edge32_Node000009_Node000022" class="edge">
<title>Node9&#45;&gt;Node22</title>
<g id="a_edge32_Node000009_Node000022"><a xlink:title=" ">
<path fill="none" stroke="#63b8ff" d="M603.68,-424.83C557.6,-414.51 485.53,-398.38 436.84,-387.48"/>
<polygon fill="#63b8ff" stroke="#63b8ff" points="437.61,-384.06 427.08,-385.3 436.08,-390.9 437.61,-384.06"/>
</a>
</g>
</g>
<!-- Node26 -->
<g id="Node000026" class="node">
<title>Node26</title>
<g id="a_Node000026"><a xlink:title=" ">
<polygon fill="#e0e0e0" stroke="#999999" points="583.62,-384.5 544.38,-384.5 544.38,-365.25 583.62,-365.25 583.62,-384.5"/>
<text text-anchor="middle" x="564" y="-371" font-family="Helvetica,sans-Serif" font-size="10.00">limits</text>
</a>
</g>
</g>
<!-- Node9&#45;&gt;Node26 -->
<g id="edge41_Node000009_Node000026" class="edge">
<title>Node9&#45;&gt;Node26</title>
<g id="a_edge41_Node000009_Node000026"><a xlink:title=" ">
<path fill="none" stroke="#63b8ff" d="M627.24,-420.2C614.82,-411.49 599.03,-400.43 586.34,-391.53"/>
<polygon fill="#63b8ff" stroke="#63b8ff" points="588.39,-388.69 578.19,-385.82 584.37,-394.43 588.39,-388.69"/>
</a>
</g>
</g>
<!-- Node27 -->
<g id="Node000027" class="node">
<title>Node27</title>
<g id="a_Node000027"><a xlink:title=" ">
<polygon fill="#e0e0e0" stroke="#999999" points="693.88,-384.5 602.12,-384.5 602.12,-365.25 693.88,-365.25 693.88,-384.5"/>
<text text-anchor="middle" x="648" y="-371" font-family="Helvetica,sans-Serif" font-size="10.00">yaclib_std/atomic</text>
</a>
</g>
</g>
<!-- Node9&#45;&gt;Node27 -->
<g id="edge42_Node000009_Node000027" class="edge">
<title>Node9&#45;&gt;Node27</title>
<g id="a_edge42_Node000009_Node000027"><a xlink:title=" ">
<path fill="none" stroke="#63b8ff" d="M648,-420.2C648,-412.96 648,-404.09 648,-396.19"/>
<polygon fill="#63b8ff" stroke="#63b8ff" points="651.5,-396.46 648,-386.46 644.5,-396.46 651.5,-396.46"/>
</a>
</g>
</g>
<!-- Node10&#45;&gt;Node3 -->
<g id="edge10_Node000010_Node000003" class="edge">
<title>Node10&#45;&gt;Node3</title>
<g id="a_edge10_Node000010_Node000003"><a xlink:title=" ">
<path fill="none" stroke="#63b8ff" d="M914.2,-298.45C903.77,-289.91 890.56,-279.12 879.8,-270.31"/>
<polygon fill="#63b8ff" stroke="#63b8ff" points="882.23,-267.78 872.27,-264.16 877.8,-273.2 882.23,-267.78"/>
</a>
</g>
</g>
<!-- Node11 -->
<g id="Node000011" class="node">
<title>Node11</title>
<g id="a_Node000011"><a xlink:href="job_8hpp.html" target="_top" xlink:title=" ">
<polygon fill="white" stroke="#666666" points="760.25,-262.75 667.75,-262.75 667.75,-243.5 760.25,-243.5 760.25,-262.75"/>
<text text-anchor="middle" x="714" y="-249.25" font-family="Helvetica,sans-Serif" font-size="10.00">yaclib/exe/job.hpp</text>
</a>
</g>
</g>
<!-- Node10&#45;&gt;Node11 -->
<g id="edge11_Node000010_Node000011" class="edge">
<title>Node10&#45;&gt;Node11</title>
<g id="a_edge11_Node000010_Node000011"><a xlink:title=" ">
<path fill="none" stroke="#63b8ff" d="M887.62,-301.01C849.89,-290.82 795.99,-276.27 758.29,-266.09"/>
<polygon fill="#63b8ff" stroke="#63b8ff" points="759.65,-262.83 749.09,-263.6 757.83,-269.59 759.65,-262.83"/>
</a>
</g>
</g>
<!-- Node10&#45;&gt;Node12 -->
<g id="edge21_Node000010_Node000012" class="edge">
<title>Node10&#45;&gt;Node12</title>
<g id="a_edge21_Node000010_Node000012"><a xlink:title=" ">
<path fill="none" stroke="#63b8ff" d="M928.85,-298.37C925.58,-284.13 919.98,-261.99 913,-243.5 890.32,-183.44 854.36,-116.37 836.62,-84.56"/>
<polygon fill="#63b8ff" stroke="#63b8ff" points="839.85,-83.17 831.9,-76.17 833.75,-86.6 839.85,-83.17"/>
</a>
</g>
</g>
<!-- Node11&#45;&gt;Node12 -->
<g id="edge12_Node000011_Node000012" class="edge">
<title>Node11&#45;&gt;Node12</title>
<g id="a_edge12_Node000011_Node000012"><a xlink:title=" ">
<path fill="none" stroke="#63b8ff" d="M727.78,-243.31C739.53,-235.21 756.19,-222.24 767,-207.5 795.27,-168.96 812.9,-114.86 820.91,-85.96"/>
<polygon fill="#63b8ff" stroke="#63b8ff" points="824.27,-86.94 823.45,-76.37 817.51,-85.14 824.27,-86.94"/>
</a>
</g>
</g>
<!-- Node14 -->
<g id="Node000014" class="node">
<title>Node14</title>
<g id="a_Node000014"><a xlink:href="node_8hpp.html" target="_top" xlink:title=" ">
<polygon fill="white" stroke="#666666" points="758.38,-207.5 675.62,-207.5 675.62,-177 758.38,-177 758.38,-207.5"/>
<text text-anchor="start" x="683.62" y="-194" font-family="Helvetica,sans-Serif" font-size="10.00">yaclib/util/detail</text>
<text text-anchor="middle" x="717" y="-182.75" font-family="Helvetica,sans-Serif" font-size="10.00">/node.hpp</text>
</a>
</g>
</g>
<!-- Node11&#45;&gt;Node14 -->
<g id="edge14_Node000011_Node000014" class="edge">
<title>Node11&#45;&gt;Node14</title>
<g id="a_edge14_Node000011_Node000014"><a xlink:title=" ">
<path fill="none" stroke="#63b8ff" d="M714.46,-243.18C714.78,-236.73 715.25,-227.66 715.69,-219.01"/>
<polygon fill="#63b8ff" stroke="#63b8ff" points="719.17,-219.46 716.18,-209.29 712.18,-219.1 719.17,-219.46"/>
</a>
</g>
</g>
<!-- Node15 -->
<g id="Node000015" class="node">
<title>Node15</title>
<g id="a_Node000015"><a xlink:href="func_8hpp.html" target="_top" xlink:title=" ">
<polygon fill="white" stroke="#666666" points="364.12,-201.88 267.88,-201.88 267.88,-182.62 364.12,-182.62 364.12,-201.88"/>
<text text-anchor="middle" x="316" y="-188.38" font-family="Helvetica,sans-Serif" font-size="10.00">yaclib/util/func.hpp</text>
</a>
</g>
</g>
<!-- Node11&#45;&gt;Node15 -->
<g id="edge15_Node000011_Node000015" class="edge">
<title>Node11&#45;&gt;Node15</title>
<g id="a_edge15_Node000011_Node000015"><a xlink:title=" ">
<path fill="none" stroke="#63b8ff" d="M667.57,-245.26C595.25,-234.56 455.76,-213.93 375.95,-202.12"/>
<polygon fill="#63b8ff" stroke="#63b8ff" points="376.52,-198.66 366.12,-200.66 375.5,-205.59 376.52,-198.66"/>
</a>
</g>
</g>
<!-- Node13 -->
<g id="Node000013" class="node">
<title>Node13</title>
<g id="a_Node000013"><a xlink:title=" ">
<polygon fill="#e0e0e0" stroke="#999999" points="858.75,-19.25 793.25,-19.25 793.25,0 858.75,0 858.75,-19.25"/>
<text text-anchor="middle" x="826" y="-5.75" font-family="Helvetica,sans-Serif" font-size="10.00">string_view</text>
</a>
</g>
</g>
<!-- Node12&#45;&gt;Node13 -->
<g id="edge13_Node000012_Node000013" class="edge">
<title>Node12&#45;&gt;Node13</title>
<g id="a_edge13_Node000012_Node000013"><a xlink:title=" ">
<path fill="none" stroke="#63b8ff" d="M826,-55.08C826,-48.57 826,-39.42 826,-31.12"/>
<polygon fill="#63b8ff" stroke="#63b8ff" points="829.5,-31.12 826,-21.12 822.5,-31.12 829.5,-31.12"/>
</a>
</g>
</g>
<!-- Node15&#45;&gt;Node5 -->
<g id="edge19_Node000015_Node000005" class="edge">
<title>Node15&#45;&gt;Node5</title>
<g id="a_edge19_Node000015_Node000005"><a xlink:title=" ">
<path fill="none" stroke="#63b8ff" d="M354.31,-182.19C362.14,-180.42 370.32,-178.6 378,-177 462.56,-159.32 485.62,-163.56 569,-141 570.86,-140.5 572.76,-139.95 574.66,-139.37"/>
<polygon fill="#63b8ff" stroke="#63b8ff" points="575.66,-142.73 584.07,-136.28 573.47,-136.07 575.66,-142.73"/>
</a>
</g>
</g>
<!-- Node15&#45;&gt;Node6 -->
<g id="edge20_Node000015_Node000006" class="edge">
<title>Node15&#45;&gt;Node6</title>
<g id="a_edge20_Node000015_Node000006"><a xlink:title=" ">
<path fill="none" stroke="#63b8ff" d="M294.83,-182.15C269.05,-171.06 225.34,-152.26 196.07,-139.68"/>
<polygon fill="#63b8ff" stroke="#63b8ff" points="197.59,-136.53 187.02,-135.79 194.83,-142.96 197.59,-136.53"/>
</a>
</g>
</g>
<!-- Node16 -->
<g id="Node000016" class="node">
<title>Node16</title>
<g id="a_Node000016"><a xlink:href="ref_8hpp.html" target="_top" xlink:title=" ">
<polygon fill="white" stroke="#666666" points="560.38,-135.38 471.62,-135.38 471.62,-116.12 560.38,-116.12 560.38,-135.38"/>
<text text-anchor="middle" x="516" y="-121.88" font-family="Helvetica,sans-Serif" font-size="10.00">yaclib/util/ref.hpp</text>
</a>
</g>
</g>
<!-- Node15&#45;&gt;Node16 -->
<g id="edge16_Node000015_Node000016" class="edge">
<title>Node15&#45;&gt;Node16</title>
<g id="a_edge16_Node000015_Node000016"><a xlink:title=" ">
<path fill="none" stroke="#63b8ff" d="M344.23,-182.15C378.92,-170.96 437.97,-151.91 476.99,-139.33"/>
<polygon fill="#63b8ff" stroke="#63b8ff" points="478.03,-142.67 486.47,-136.27 475.88,-136.01 478.03,-142.67"/>
</a>
</g>
</g>
<!-- Node16&#45;&gt;Node12 -->
<g id="edge17_Node000016_Node000012" class="edge">
<title>Node16&#45;&gt;Node12</title>
<g id="a_edge17_Node000016_Node000012"><a xlink:title=" ">
<path fill="none" stroke="#63b8ff" d="M548.73,-115.63C555.72,-113.82 563.09,-112.01 570,-110.5 641.7,-94.82 725.67,-81.05 777.34,-73.09"/>
<polygon fill="#63b8ff" stroke="#63b8ff" points="777.64,-76.58 787,-71.61 776.59,-69.66 777.64,-76.58"/>
</a>
</g>
</g>
<!-- Node17 -->
<g id="Node000017" class="node">
<title>Node17</title>
<g id="a_Node000017"><a xlink:title=" ">
<polygon fill="#e0e0e0" stroke="#999999" points="540.12,-74.5 491.88,-74.5 491.88,-55.25 540.12,-55.25 540.12,-74.5"/>
<text text-anchor="middle" x="516" y="-61" font-family="Helvetica,sans-Serif" font-size="10.00">cstddef</text>
</a>
</g>
</g>
<!-- Node16&#45;&gt;Node17 -->
<g id="edge18_Node000016_Node000017" class="edge">
<title>Node16&#45;&gt;Node17</title>
<g id="a_edge18_Node000016_Node000017"><a xlink:title=" ">
<path fill="none" stroke="#63b8ff" d="M516,-115.81C516,-108.03 516,-96.45 516,-86.41"/>
<polygon fill="#63b8ff" stroke="#63b8ff" points="519.5,-86.41 516,-76.41 512.5,-86.41 519.5,-86.41"/>
</a>
</g>
</g>
<!-- Node18&#45;&gt;Node11 -->
<g id="edge23_Node000018_Node000011" class="edge">
<title>Node18&#45;&gt;Node11</title>
<g id="a_edge23_Node000018_Node000011"><a xlink:title=" ">
<path fill="none" stroke="#63b8ff" d="M707.22,-304.06C708.28,-296.19 709.88,-284.45 711.26,-274.32"/>
<polygon fill="#63b8ff" stroke="#63b8ff" points="714.69,-275.03 712.57,-264.65 707.76,-274.09 714.69,-275.03"/>
</a>
</g>
</g>
<!-- Node19 -->
<g id="Node000019" class="node">
<title>Node19</title>
<g id="a_Node000019"><a xlink:href="intrusive__ptr_8hpp.html" target="_top" xlink:title=" ">
<polygon fill="white" stroke="#666666" points="657.12,-207.5 560.88,-207.5 560.88,-177 657.12,-177 657.12,-207.5"/>
<text text-anchor="start" x="568.88" y="-194" font-family="Helvetica,sans-Serif" font-size="10.00">yaclib/util/intrusive</text>
<text text-anchor="middle" x="609" y="-182.75" font-family="Helvetica,sans-Serif" font-size="10.00">_ptr.hpp</text>
</a>
</g>
</g>
<!-- Node18&#45;&gt;Node19 -->
<g id="edge24_Node000018_Node000019" class="edge">
<title>Node18&#45;&gt;Node19</title>
<g id="a_edge24_Node000018_Node000019"><a xlink:title=" ">
<path fill="none" stroke="#63b8ff" d="M696.97,-304.06C687.23,-294.25 671.44,-277.89 659,-262.75 646.93,-248.06 634.43,-230.69 624.95,-216.99"/>
<polygon fill="#63b8ff" stroke="#63b8ff" points="628.02,-215.28 619.49,-209.01 622.25,-219.24 628.02,-215.28"/>
</a>
</g>
</g>
<!-- Node19&#45;&gt;Node5 -->
<g id="edge26_Node000019_Node000005" class="edge">
<title>Node19&#45;&gt;Node5</title>
<g id="a_edge26_Node000019_Node000005"><a xlink:title=" ">
<path fill="none" stroke="#63b8ff" d="M609,-176.61C609,-167.83 609,-156.52 609,-146.9"/>
<polygon fill="#63b8ff" stroke="#63b8ff" points="612.5,-147.09 609,-137.09 605.5,-147.09 612.5,-147.09"/>
</a>
</g>
</g>
<!-- Node19&#45;&gt;Node16 -->
<g id="edge25_Node000019_Node000016" class="edge">
<title>Node19&#45;&gt;Node16</title>
<g id="a_edge25_Node000019_Node000016"><a xlink:title=" ">
<path fill="none" stroke="#63b8ff" d="M587.9,-176.61C573.04,-166.31 553.19,-152.54 538.11,-142.08"/>
<polygon fill="#63b8ff" stroke="#63b8ff" points="540.45,-139.45 530.23,-136.62 536.46,-145.2 540.45,-139.45"/>
</a>
</g>
</g>
<!-- Node20 -->
<g id="Node000020" class="node">
<title>Node20</title>
<g id="a_Node000020"><a xlink:href="intrusive__ptr__impl_8hpp.html" target="_top" xlink:title=" ">
<polygon fill="white" stroke="#666666" points="784.75,-141 671.25,-141 671.25,-110.5 784.75,-110.5 784.75,-141"/>
<text text-anchor="start" x="679.25" y="-127.5" font-family="Helvetica,sans-Serif" font-size="10.00">yaclib/util/detail</text>
<text text-anchor="middle" x="728" y="-116.25" font-family="Helvetica,sans-Serif" font-size="10.00">/intrusive_ptr_impl.hpp</text>
</a>
</g>
</g>
<!-- Node19&#45;&gt;Node20 -->
<g id="edge27_Node000019_Node000020" class="edge">
<title>Node19&#45;&gt;Node20</title>
<g id="a_edge27_Node000019_Node000020"><a xlink:title=" ">
<path fill="none" stroke="#63b8ff" d="M636,-176.61C652.28,-167.79 673.24,-156.43 691.05,-146.78"/>
<polygon fill="#63b8ff" stroke="#63b8ff" points="692.65,-149.89 699.77,-142.05 689.31,-143.74 692.65,-149.89"/>
</a>
</g>
</g>
<!-- Node20&#45;&gt;Node12 -->
<g id="edge28_Node000020_Node000012" class="edge">
<title>Node20&#45;&gt;Node12</title>
<g id="a_edge28_Node000020_Node000012"><a xlink:title=" ">
<path fill="none" stroke="#63b8ff" d="M752.48,-110.05C767.4,-101.08 786.42,-89.66 801.37,-80.67"/>
<polygon fill="#63b8ff" stroke="#63b8ff" points="802.9,-83.83 809.67,-75.68 799.3,-77.83 802.9,-83.83"/>
</a>
</g>
</g>
<!-- Node21&#45;&gt;Node4 -->
<g id="edge31_Node000021_Node000004" class="edge">
<title>Node21&#45;&gt;Node4</title>
<g id="a_edge31_Node000021_Node000004"><a xlink:title=" ">
<path fill="none" stroke="#63b8ff" d="M730.09,-364.79C704.47,-357.08 668.44,-344.78 639,-329.25 634.58,-326.92 585.12,-290.85 556.04,-269.55"/>
<polygon fill="#63b8ff" stroke="#63b8ff" points="558.4,-266.94 548.27,-263.86 554.26,-272.59 558.4,-266.94"/>
</a>
</g>
</g>
<!-- Node21&#45;&gt;Node18 -->
<g id="edge30_Node000021_Node000018" class="edge">
<title>Node21&#45;&gt;Node18</title>
<g id="a_edge30_Node000021_Node000018"><a xlink:title=" ">
<path fill="none" stroke="#63b8ff" d="M754.34,-364.93C745.97,-356.29 733.07,-342.96 722.7,-332.25"/>
<polygon fill="#63b8ff" stroke="#63b8ff" points="725.26,-329.86 715.79,-325.11 720.23,-334.73 725.26,-329.86"/>
</a>
</g>
</g>
<!-- Node22&#45;&gt;Node4 -->
<g id="edge33_Node000022_Node000004" class="edge">
<title>Node22&#45;&gt;Node4</title>
<g id="a_edge33_Node000022_Node000004"><a xlink:title=" ">
<path fill="none" stroke="#63b8ff" d="M446.69,-369C474.68,-363.51 505.75,-352.23 525,-329.25 537.66,-314.14 538.93,-290.99 537.8,-274.38"/>
<polygon fill="#63b8ff" stroke="#63b8ff" points="541.31,-274.28 536.78,-264.7 534.35,-275.01 541.31,-274.28"/>
</a>
</g>
</g>
<!-- Node22&#45;&gt;Node5 -->
<g id="edge38_Node000022_Node000005" class="edge">
<title>Node22&#45;&gt;Node5</title>
<g id="a_edge38_Node000022_Node000005"><a xlink:title=" ">
<path fill="none" stroke="#63b8ff" d="M385.4,-365.05C386.38,-350.49 389.72,-320.84 401,-298.75 434.18,-233.81 453.16,-221.42 511,-177 530.7,-161.87 555.65,-149.15 575.45,-140.3"/>
<polygon fill="#63b8ff" stroke="#63b8ff" points="576.68,-143.58 584.46,-136.39 573.89,-137.16 576.68,-143.58"/>
</a>
</g>
</g>
<!-- Node22&#45;&gt;Node6 -->
<g id="edge39_Node000022_Node000006" class="edge">
<title>Node22&#45;&gt;Node6</title>
<g id="a_edge39_Node000022_Node000006"><a xlink:title=" ">
<path fill="none" stroke="#63b8ff" d="M378.86,-365.08C368.54,-350.55 346.7,-320.95 325,-298.75 280.84,-253.56 257.38,-255.24 216,-207.5 199.35,-188.28 184.61,-162.92 175.53,-145.78"/>
<polygon fill="#63b8ff" stroke="#63b8ff" points="178.8,-144.49 171.11,-137.2 172.58,-147.69 178.8,-144.49"/>
</a>
</g>
</g>
<!-- Node23 -->
<g id="Node000023" class="node">
<title>Node23</title>
<g id="a_Node000023"><a xlink:href="type__traits__impl_8hpp.html" target="_top" xlink:title=" ">
<polygon fill="white" stroke="#666666" points="515.62,-329.25 410.38,-329.25 410.38,-298.75 515.62,-298.75 515.62,-329.25"/>
<text text-anchor="start" x="418.38" y="-315.75" font-family="Helvetica,sans-Serif" font-size="10.00">yaclib/util/detail</text>
<text text-anchor="middle" x="463" y="-304.5" font-family="Helvetica,sans-Serif" font-size="10.00">/type_traits_impl.hpp</text>
</a>
</g>
</g>
<!-- Node22&#45;&gt;Node23 -->
<g id="edge34_Node000022_Node000023" class="edge">
<title>Node22&#45;&gt;Node23</title>
<g id="a_edge34_Node000022_Node000023"><a xlink:title=" ">
<path fill="none" stroke="#63b8ff" d="M396.85,-364.93C406.86,-357.37 421.62,-346.24 434.65,-336.4"/>
<polygon fill="#63b8ff" stroke="#63b8ff" points="436.67,-339.26 442.54,-330.44 432.45,-333.67 436.67,-339.26"/>
</a>
</g>
</g>
<!-- Node24 -->
<g id="Node000024" class="node">
<title>Node24</title>
<g id="a_Node000024"><a xlink:title=" ">
<polygon fill="#e0e0e0" stroke="#999999" points="252.62,-323.62 195.38,-323.62 195.38,-304.38 252.62,-304.38 252.62,-323.62"/>
<text text-anchor="middle" x="224" y="-310.12" font-family="Helvetica,sans-Serif" font-size="10.00">exception</text>
</a>
</g>
</g>
<!-- Node22&#45;&gt;Node24 -->
<g id="edge37_Node000022_Node000024" class="edge">
<title>Node22&#45;&gt;Node24</title>
<g id="a_edge37_Node000022_Node000024"><a xlink:title=" ">
<path fill="none" stroke="#63b8ff" d="M359.29,-364.81C334.17,-355.91 294.88,-341.87 261,-329.25 260.04,-328.89 259.07,-328.53 258.09,-328.16"/>
<polygon fill="#63b8ff" stroke="#63b8ff" points="259.46,-324.94 248.87,-324.66 256.98,-331.48 259.46,-324.94"/>
</a>
</g>
</g>
<!-- Node25 -->
<g id="Node000025" class="node">
<title>Node25</title>
<g id="a_Node000025"><a xlink:title=" ">
<polygon fill="#e0e0e0" stroke="#999999" points="315.62,-323.62 270.38,-323.62 270.38,-304.38 315.62,-304.38 315.62,-323.62"/>
<text text-anchor="middle" x="293" y="-310.12" font-family="Helvetica,sans-Serif" font-size="10.00">variant</text>
</a>
</g>
</g>
<!-- Node22&#45;&gt;Node25 -->
<g id="edge40_Node000022_Node000025" class="edge">
<title>Node22&#45;&gt;Node25</title>
<g id="a_edge40_Node000022_Node000025"><a xlink:title=" ">
<path fill="none" stroke="#63b8ff" d="M371.03,-364.93C356.57,-355.68 333.74,-341.07 316.5,-330.04"/>
<polygon fill="#63b8ff" stroke="#63b8ff" points="318.69,-327.28 308.38,-324.84 314.92,-333.18 318.69,-327.28"/>
</a>
</g>
</g>
<!-- Node23&#45;&gt;Node4 -->
<g id="edge35_Node000023_Node000004" class="edge">
<title>Node23&#45;&gt;Node4</title>
<g id="a_edge35_Node000023_Node000004"><a xlink:title=" ">
<path fill="none" stroke="#63b8ff" d="M480.8,-298.45C491.23,-289.91 504.44,-279.12 515.2,-270.31"/>
<polygon fill="#63b8ff" stroke="#63b8ff" points="517.2,-273.2 522.73,-264.16 512.77,-267.78 517.2,-273.2"/>
</a>
</g>
</g>
<!-- Node23&#45;&gt;Node5 -->
<g id="edge36_Node000023_Node000005" class="edge">
<title>Node23&#45;&gt;Node5</title>
<g id="a_edge36_Node000023_Node000005"><a xlink:title=" ">
<path fill="none" stroke="#63b8ff" d="M466.07,-298.34C469.58,-283.68 476.27,-260.88 487,-243.5 513.48,-200.63 559.4,-162.69 586.72,-142.39"/>
<polygon fill="#63b8ff" stroke="#63b8ff" points="588.62,-145.34 594.65,-136.63 584.5,-139.68 588.62,-145.34"/>
</a>
</g>
</g>
<!-- Node28&#45;&gt;Node5 -->
<g id="edge45_Node000028_Node000005" class="edge">
<title>Node28&#45;&gt;Node5</title>
<g id="a_edge45_Node000028_Node000005"><a xlink:title=" ">
<path fill="none" stroke="#63b8ff" d="M119.04,-425.78C105.63,-412.57 84.6,-387.08 95,-365.25 115.19,-322.89 136.71,-322.8 177,-298.75 297.73,-226.67 337.9,-227.82 469,-177 478.97,-173.13 534.66,-153.23 572.72,-139.67"/>
<polygon fill="#63b8ff" stroke="#63b8ff" points="573.74,-143.02 581.99,-136.36 571.39,-136.42 573.74,-143.02"/>
</a>
</g>
</g>
<!-- Node29 -->
<g id="Node000029" class="node">
<title>Node29</title>
<g id="a_Node000029"><a xlink:title=" ">
<polygon fill="#e0e0e0" stroke="#999999" points="154.25,-384.5 103.75,-384.5 103.75,-365.25 154.25,-365.25 154.25,-384.5"/>
<text text-anchor="middle" x="129" y="-371" font-family="Helvetica,sans-Serif" font-size="10.00">memory</text>
</a>
</g>
</g>
<!-- Node28&#45;&gt;Node29 -->
<g id="edge44_Node000028_Node000029" class="edge">
<title>Node28&#45;&gt;Node29</title>
<g id="a_edge44_Node000028_Node000029"><a xlink:title=" ">
<path fill="none" stroke="#63b8ff" d="M129,-425.81C129,-418.03 129,-406.45 129,-396.41"/>
<polygon fill="#63b8ff" stroke="#63b8ff" points="132.5,-396.41 129,-386.41 125.5,-396.41 132.5,-396.41"/>
</a>
</g>
</g>
<!-- Node30&#45;&gt;Node4 -->
<g id="edge47_Node000030_Node000004" class="edge">
<title>Node30&#45;&gt;Node4</title>
<g id="a_edge47_Node000030_Node000004"><a xlink:title=" ">
<path fill="none" stroke="#63b8ff" d="M264.84,-425.66C243.94,-409.18 201.93,-372.1 186,-329.25 181.28,-316.54 177.04,-308.92 186,-298.75 205.4,-276.71 392.54,-262.6 484.5,-256.95"/>
<polygon fill="#63b8ff" stroke="#63b8ff" points="484.47,-260.45 494.24,-256.36 484.05,-253.47 484.47,-260.45"/>
</a>
</g>
</g>
<!-- Node30&#45;&gt;Node6 -->
<g id="edge50_Node000030_Node000006" class="edge">
<title>Node30&#45;&gt;Node6</title>
<g id="a_edge50_Node000030_Node000006"><a xlink:title=" ">
<path fill="none" stroke="#63b8ff" d="M258.2,-425.66C241.85,-416.98 218.43,-402.56 203,-384.5 185.37,-363.87 183.64,-355.56 177,-329.25 160.59,-264.2 162.52,-183.81 164.57,-146.94"/>
<polygon fill="#63b8ff" stroke="#63b8ff" points="168.04,-147.53 165.18,-137.33 161.06,-147.09 168.04,-147.53"/>
</a>
</g>
</g>
<!-- Node30&#45;&gt;Node22 -->
<g id="edge48_Node000030_Node000022" class="edge">
<title>Node30&#45;&gt;Node22</title>
<g id="a_edge48_Node000030_Node000022"><a xlink:title=" ">
<path fill="none" stroke="#63b8ff" d="M293.4,-425.81C310.69,-416.38 338.18,-401.4 358.54,-390.3"/>
<polygon fill="#63b8ff" stroke="#63b8ff" points="360.01,-393.48 367.11,-385.63 356.66,-387.34 360.01,-393.48"/>
</a>
</g>
</g>
<!-- Node30&#45;&gt;Node24 -->
<g id="edge49_Node000030_Node000024" class="edge">
<title>Node30&#45;&gt;Node24</title>
<g id="a_edge49_Node000030_Node000024"><a xlink:title=" ">
<path fill="none" stroke="#63b8ff" d="M273.02,-425.75C264.46,-406.42 244.16,-360.56 232.55,-334.32"/>
<polygon fill="#63b8ff" stroke="#63b8ff" points="235.89,-333.22 228.64,-325.49 229.49,-336.05 235.89,-333.22"/>
</a>
</g>
</g>
<!-- Node30&#45;&gt;Node25 -->
<g id="edge51_Node000030_Node000025" class="edge">
<title>Node30&#45;&gt;Node25</title>
<g id="a_edge51_Node000030_Node000025"><a xlink:title=" ">
<path fill="none" stroke="#63b8ff" d="M278.2,-425.75C280.75,-406.68 286.75,-361.79 290.28,-335.39"/>
<polygon fill="#63b8ff" stroke="#63b8ff" points="293.73,-335.98 291.58,-325.61 286.79,-335.05 293.73,-335.98"/>
</a>
</g>
</g>
<!-- Node31&#45;&gt;Node5 -->
<g id="edge55_Node000031_Node000005" class="edge">
<title>Node31&#45;&gt;Node5</title>
<g id="a_edge55_Node000031_Node000005"><a xlink:title=" ">
<path fill="none" stroke="#63b8ff" d="M642.11,-566.87C748.08,-562.19 1004,-534.46 1004,-375.88 1004,-375.88 1004,-375.88 1004,-252.12 1004,-150.48 884.97,-207.44 788,-177 762.57,-169.02 695.47,-150.43 651.04,-138.23"/>
<polygon fill="#63b8ff" stroke="#63b8ff" points="652.02,-134.87 641.46,-135.61 650.17,-141.62 652.02,-134.87"/>
</a>
</g>
</g>
<!-- Node31&#45;&gt;Node8 -->
<g id="edge54_Node000031_Node000008" class="edge">
<title>Node31&#45;&gt;Node8</title>
<g id="a_edge54_Node000031_Node000008"><a xlink:title=" ">
<path fill="none" stroke="#63b8ff" d="M552.04,-557.24C504.08,-546.04 428.06,-528.27 376.43,-516.2"/>
<polygon fill="#63b8ff" stroke="#63b8ff" points="377.49,-512.86 366.96,-513.99 375.9,-519.67 377.49,-512.86"/>
</a>
</g>
</g>
<!-- Node32&#45;&gt;Node4 -->
<g id="edge58_Node000032_Node000004" class="edge">
<title>Node32&#45;&gt;Node4</title>
<g id="a_edge58_Node000032_Node000004"><a xlink:title=" ">
<path fill="none" stroke="#63b8ff" d="M516,-625.36C516,-604.19 516,-549.19 516,-503.25 516,-503.25 516,-503.25 516,-434.75 516,-410.44 541.72,-353.34 545,-329.25 546.83,-315.82 546.49,-312.22 545,-298.75 544.09,-290.56 542.28,-281.68 540.44,-274.01"/>
<polygon fill="#63b8ff" stroke="#63b8ff" points="543.84,-273.19 537.95,-264.38 537.07,-274.94 543.84,-273.19"/>
</a>
</g>
</g>
<!-- Node32&#45;&gt;Node22 -->
<g id="edge59_Node000032_Node000022" class="edge">
<title>Node32&#45;&gt;Node22</title>
<g id="a_edge59_Node000032_Node000022"><a xlink:title=" ">
<path fill="none" stroke="#63b8ff" d="M511.49,-625.36C492.79,-588.48 421.12,-447.11 394.78,-395.17"/>
<polygon fill="#63b8ff" stroke="#63b8ff" points="397.95,-393.69 390.31,-386.35 391.71,-396.85 397.95,-393.69"/>
</a>
</g>
</g>
<!-- Node32&#45;&gt;Node31 -->
<g id="edge57_Node000032_Node000031" class="edge">
<title>Node32&#45;&gt;Node31</title>
<g id="a_edge57_Node000032_Node000031"><a xlink:title=" ">
<path fill="none" stroke="#63b8ff" d="M527.26,-625.28C538.28,-616.51 555.47,-602.82 570.03,-591.23"/>
<polygon fill="#63b8ff" stroke="#63b8ff" points="571.85,-594.25 577.49,-585.28 567.49,-588.77 571.85,-594.25"/>
</a>
</g>
</g>
<!-- Node33&#45;&gt;Node7 -->
<g id="edge61_Node000033_Node000007" class="edge">
<title>Node33&#45;&gt;Node7</title>
<g id="a_edge61_Node000033_Node000007"><a xlink:title=" ">
<path fill="none" stroke="#63b8ff" d="M347,-619.61C347,-612.52 347,-603.79 347,-595.63"/>
<polygon fill="#63b8ff" stroke="#63b8ff" points="350.5,-595.84 347,-585.84 343.5,-595.84 350.5,-595.84"/>
</a>
</g>
</g>
</g>
</svg>
