<?xml version="1.0" encoding="UTF-8" standalone="no"?>
<!DOCTYPE svg PUBLIC "-//W3C//DTD SVG 1.1//EN"
 "http://www.w3.org/Graphics/SVG/1.1/DTD/svg11.dtd">
<!-- Generated by graphviz version 9.0.0 (20230911.1827)
 -->
<!-- Title: include/yaclib/algo/detail/promise_core.hpp Pages: 1 -->
<svg width="1230pt" height="603pt"
 viewBox="0.00 0.00 1230.00 603.25" xmlns="http://www.w3.org/2000/svg" xmlns:xlink="http://www.w3.org/1999/xlink">
<g id="graph0" class="graph" transform="scale(1 1) rotate(0) translate(4 599.25)">
<title>include/yaclib/algo/detail/promise_core.hpp</title>
<!-- Node1 -->
<g id="Node000001" class="node">
<title>Node1</title>
<g id="a_Node000001"><a xlink:title=" ">
<polygon fill="#999999" stroke="#666666" points="938.88,-595.25 817.12,-595.25 817.12,-564.75 938.88,-564.75 938.88,-595.25"/>
<text text-anchor="start" x="825.12" y="-581.75" font-family="Helvetica,sans-Serif" font-size="10.00">include/yaclib/algo</text>
<text text-anchor="middle" x="878" y="-570.5" font-family="Helvetica,sans-Serif" font-size="10.00">/detail/promise_core.hpp</text>
</a>
</g>
</g>
<!-- Node2 -->
<g id="Node000002" class="node">
<title>Node2</title>
<g id="a_Node000002"><a xlink:href="func__core_8hpp.html" target="_top" xlink:title=" ">
<polygon fill="white" stroke="#666666" points="1042,-141 954,-141 954,-110.5 1042,-110.5 1042,-141"/>
<text text-anchor="start" x="962" y="-127.5" font-family="Helvetica,sans-Serif" font-size="10.00">yaclib/algo/detail</text>
<text text-anchor="middle" x="998" y="-116.25" font-family="Helvetica,sans-Serif" font-size="10.00">/func_core.hpp</text>
</a>
</g>
</g>
<!-- Node1&#45;&gt;Node2 -->
<g id="edge1_Node000001_Node000002" class="edge">
<title>Node1&#45;&gt;Node2</title>
<g id="a_edge1_Node000001_Node000002"><a xlink:title=" ">
<path fill="none" stroke="#63b8ff" d="M939.19,-578.89C1028.49,-575.14 1184,-553.46 1184,-448 1184,-448 1184,-448 1184,-257.75 1184,-193.09 1107.93,-157.55 1053.08,-140.34"/>
<polygon fill="#63b8ff" stroke="#63b8ff" points="1054.11,-136.99 1043.53,-137.47 1052.1,-143.7 1054.11,-136.99"/>
</a>
</g>
</g>
<!-- Node5 -->
<g id="Node000005" class="node">
<title>Node5</title>
<g id="a_Node000005"><a xlink:title=" ">
<polygon fill="#e0e0e0" stroke="#999999" points="604.5,-74.5 543.5,-74.5 543.5,-55.25 604.5,-55.25 604.5,-74.5"/>
<text text-anchor="middle" x="574" y="-61" font-family="Helvetica,sans-Serif" font-size="10.00">type_traits</text>
</a>
</g>
</g>
<!-- Node1&#45;&gt;Node5 -->
<g id="edge50_Node000001_Node000005" class="edge">
<title>Node1&#45;&gt;Node5</title>
<g id="a_edge50_Node000001_Node000005"><a xlink:title=" ">
<path fill="none" stroke="#63b8ff" d="M816.92,-572.68C701.09,-558.98 461,-521.7 461,-448 461,-448 461,-448 461,-379.5 461,-326.41 497.43,-323.34 517,-274 543.56,-207.05 562.38,-123.27 570.1,-85.7"/>
<polygon fill="#63b8ff" stroke="#63b8ff" points="573.45,-86.8 571.99,-76.31 566.59,-85.42 573.45,-86.8"/>
</a>
</g>
</g>
<!-- Node6 -->
<g id="Node000006" class="node">
<title>Node6</title>
<g id="a_Node000006"><a xlink:title=" ">
<polygon fill="#e0e0e0" stroke="#999999" points="1089.25,-74.5 1050.75,-74.5 1050.75,-55.25 1089.25,-55.25 1089.25,-74.5"/>
<text text-anchor="middle" x="1070" y="-61" font-family="Helvetica,sans-Serif" font-size="10.00">utility</text>
</a>
</g>
</g>
<!-- Node1&#45;&gt;Node6 -->
<g id="edge51_Node000001_Node000006" class="edge">
<title>Node1&#45;&gt;Node6</title>
<g id="a_edge51_Node000001_Node000006"><a xlink:title=" ">
<path fill="none" stroke="#63b8ff" d="M939.36,-573.95C1012.72,-566.96 1130.24,-552.44 1167,-528.75 1203.5,-505.23 1222,-491.42 1222,-448 1222,-448 1222,-448 1222,-191.25 1222,-128.79 1144.66,-91.64 1100.32,-75.48"/>
<polygon fill="#63b8ff" stroke="#63b8ff" points="1101.58,-72.21 1090.99,-72.23 1099.28,-78.82 1101.58,-72.21"/>
</a>
</g>
</g>
<!-- Node7 -->
<g id="Node000007" class="node">
<title>Node7</title>
<g id="a_Node000007"><a xlink:href="unique__core_8hpp.html" target="_top" xlink:title=" ">
<polygon fill="white" stroke="#666666" points="922.75,-528.75 833.25,-528.75 833.25,-498.25 922.75,-498.25 922.75,-528.75"/>
<text text-anchor="start" x="841.25" y="-515.25" font-family="Helvetica,sans-Serif" font-size="10.00">yaclib/algo/detail</text>
<text text-anchor="middle" x="878" y="-504" font-family="Helvetica,sans-Serif" font-size="10.00">/unique_core.hpp</text>
</a>
</g>
</g>
<!-- Node1&#45;&gt;Node7 -->
<g id="edge6_Node000001_Node000007" class="edge">
<title>Node1&#45;&gt;Node7</title>
<g id="a_edge6_Node000001_Node000007"><a xlink:title=" ">
<path fill="none" stroke="#63b8ff" d="M878,-564.36C878,-557.27 878,-548.54 878,-540.38"/>
<polygon fill="#63b8ff" stroke="#63b8ff" points="881.5,-540.59 878,-530.59 874.5,-540.59 881.5,-540.59"/>
</a>
</g>
</g>
<!-- Node12 -->
<g id="Node000012" class="node">
<title>Node12</title>
<g id="a_Node000012"><a xlink:href="log_8hpp.html" target="_top" xlink:title=" ">
<polygon fill="white" stroke="#666666" points="94.25,-74.5 19.75,-74.5 19.75,-55.25 94.25,-55.25 94.25,-74.5"/>
<text text-anchor="middle" x="57" y="-61" font-family="Helvetica,sans-Serif" font-size="10.00">yaclib/log.hpp</text>
</a>
</g>
</g>
<!-- Node1&#45;&gt;Node12 -->
<g id="edge49_Node000001_Node000012" class="edge">
<title>Node1&#45;&gt;Node12</title>
<g id="a_edge49_Node000001_Node000012"><a xlink:title=" ">
<path fill="none" stroke="#63b8ff" d="M816.96,-576.34C617.85,-566.85 0,-530.74 0,-448 0,-448 0,-448 0,-191.25 0,-150.01 25.87,-107.43 42.76,-84.03"/>
<polygon fill="#63b8ff" stroke="#63b8ff" points="45.44,-86.29 48.64,-76.19 39.84,-82.09 45.44,-86.29"/>
</a>
</g>
</g>
<!-- Node3 -->
<g id="Node000003" class="node">
<title>Node3</title>
<g id="a_Node000003"><a xlink:title=" ">
<polygon fill="#e0e0e0" stroke="#999999" points="789.62,-74.5 702.38,-74.5 702.38,-55.25 789.62,-55.25 789.62,-74.5"/>
<text text-anchor="middle" x="746" y="-61" font-family="Helvetica,sans-Serif" font-size="10.00">yaclib/config.hpp</text>
</a>
</g>
</g>
<!-- Node2&#45;&gt;Node3 -->
<g id="edge2_Node000002_Node000003" class="edge">
<title>Node2&#45;&gt;Node3</title>
<g id="a_edge2_Node000002_Node000003"><a xlink:title=" ">
<path fill="none" stroke="#63b8ff" d="M953.53,-114.36C909.37,-104.04 841.8,-88.26 795.85,-77.52"/>
<polygon fill="#63b8ff" stroke="#63b8ff" points="796.67,-74.12 786.14,-75.25 795.08,-80.94 796.67,-74.12"/>
</a>
</g>
</g>
<!-- Node4 -->
<g id="Node000004" class="node">
<title>Node4</title>
<g id="a_Node000004"><a xlink:href="fwd_8hpp.html" target="_top" xlink:title=" ">
<polygon fill="white" stroke="#666666" points="964.75,-74.5 887.25,-74.5 887.25,-55.25 964.75,-55.25 964.75,-74.5"/>
<text text-anchor="middle" x="926" y="-61" font-family="Helvetica,sans-Serif" font-size="10.00">yaclib/fwd.hpp</text>
</a>
</g>
</g>
<!-- Node2&#45;&gt;Node4 -->
<g id="edge3_Node000002_Node000004" class="edge">
<title>Node2&#45;&gt;Node4</title>
<g id="a_edge3_Node000002_Node000004"><a xlink:title=" ">
<path fill="none" stroke="#63b8ff" d="M980.2,-110.2C969.77,-101.66 956.56,-90.87 945.8,-82.06"/>
<polygon fill="#63b8ff" stroke="#63b8ff" points="948.23,-79.53 938.27,-75.91 943.8,-84.95 948.23,-79.53"/>
</a>
</g>
</g>
<!-- Node2&#45;&gt;Node5 -->
<g id="edge4_Node000002_Node000005" class="edge">
<title>Node2&#45;&gt;Node5</title>
<g id="a_edge4_Node000002_Node000005"><a xlink:title=" ">
<path fill="none" stroke="#63b8ff" d="M953.82,-118.62C871.65,-107.2 696.34,-82.86 615.91,-71.69"/>
<polygon fill="#63b8ff" stroke="#63b8ff" points="616.64,-68.26 606.25,-70.35 615.67,-75.2 616.64,-68.26"/>
</a>
</g>
</g>
<!-- Node2&#45;&gt;Node6 -->
<g id="edge5_Node000002_Node000006" class="edge">
<title>Node2&#45;&gt;Node6</title>
<g id="a_edge5_Node000002_Node000006"><a xlink:title=" ">
<path fill="none" stroke="#63b8ff" d="M1015.8,-110.2C1026.23,-101.66 1039.44,-90.87 1050.2,-82.06"/>
<polygon fill="#63b8ff" stroke="#63b8ff" points="1052.2,-84.95 1057.73,-75.91 1047.77,-79.53 1052.2,-84.95"/>
</a>
</g>
</g>
<!-- Node8 -->
<g id="Node000008" class="node">
<title>Node8</title>
<g id="a_Node000008"><a xlink:href="result__core_8hpp.html" target="_top" xlink:title=" ">
<polygon fill="white" stroke="#666666" points="922,-462.25 834,-462.25 834,-431.75 922,-431.75 922,-462.25"/>
<text text-anchor="start" x="842" y="-448.75" font-family="Helvetica,sans-Serif" font-size="10.00">yaclib/algo/detail</text>
<text text-anchor="middle" x="878" y="-437.5" font-family="Helvetica,sans-Serif" font-size="10.00">/result_core.hpp</text>
</a>
</g>
</g>
<!-- Node7&#45;&gt;Node8 -->
<g id="edge7_Node000007_Node000008" class="edge">
<title>Node7&#45;&gt;Node8</title>
<g id="a_edge7_Node000007_Node000008"><a xlink:title=" ">
<path fill="none" stroke="#63b8ff" d="M878,-497.86C878,-490.77 878,-482.04 878,-473.88"/>
<polygon fill="#63b8ff" stroke="#63b8ff" points="881.5,-474.09 878,-464.09 874.5,-474.09 881.5,-474.09"/>
</a>
</g>
</g>
<!-- Node9 -->
<g id="Node000009" class="node">
<title>Node9</title>
<g id="a_Node000009"><a xlink:href="base__core_8hpp.html" target="_top" xlink:title=" ">
<polygon fill="white" stroke="#666666" points="671,-395.75 583,-395.75 583,-365.25 671,-365.25 671,-395.75"/>
<text text-anchor="start" x="591" y="-382.25" font-family="Helvetica,sans-Serif" font-size="10.00">yaclib/algo/detail</text>
<text text-anchor="middle" x="627" y="-371" font-family="Helvetica,sans-Serif" font-size="10.00">/base_core.hpp</text>
</a>
</g>
</g>
<!-- Node8&#45;&gt;Node9 -->
<g id="edge8_Node000008_Node000009" class="edge">
<title>Node8&#45;&gt;Node9</title>
<g id="a_edge8_Node000008_Node000009"><a xlink:title=" ">
<path fill="none" stroke="#63b8ff" d="M833.7,-434.62C791.45,-423.76 727.67,-407.37 682.14,-395.67"/>
<polygon fill="#63b8ff" stroke="#63b8ff" points="683.3,-392.35 672.74,-393.25 681.55,-399.13 683.3,-392.35"/>
</a>
</g>
</g>
<!-- Node24 -->
<g id="Node000024" class="node">
<title>Node24</title>
<g id="a_Node000024"><a xlink:href="cast_8hpp.html" target="_top" xlink:title=" ">
<polygon fill="white" stroke="#666666" points="926.12,-390.12 829.88,-390.12 829.88,-370.88 926.12,-370.88 926.12,-390.12"/>
<text text-anchor="middle" x="878" y="-376.62" font-family="Helvetica,sans-Serif" font-size="10.00">yaclib/util/cast.hpp</text>
</a>
</g>
</g>
<!-- Node8&#45;&gt;Node24 -->
<g id="edge33_Node000008_Node000024" class="edge">
<title>Node8&#45;&gt;Node24</title>
<g id="a_edge33_Node000008_Node000024"><a xlink:title=" ">
<path fill="none" stroke="#63b8ff" d="M878,-431.36C878,-422.58 878,-411.27 878,-401.65"/>
<polygon fill="#63b8ff" stroke="#63b8ff" points="881.5,-401.84 878,-391.84 874.5,-401.84 881.5,-401.84"/>
</a>
</g>
</g>
<!-- Node26 -->
<g id="Node000026" class="node">
<title>Node26</title>
<g id="a_Node000026"><a xlink:href="result_8hpp.html" target="_top" xlink:title=" ">
<polygon fill="white" stroke="#666666" points="1055.75,-268.38 954.25,-268.38 954.25,-249.12 1055.75,-249.12 1055.75,-268.38"/>
<text text-anchor="middle" x="1005" y="-254.88" font-family="Helvetica,sans-Serif" font-size="10.00">yaclib/util/result.hpp</text>
</a>
</g>
</g>
<!-- Node8&#45;&gt;Node26 -->
<g id="edge36_Node000008_Node000026" class="edge">
<title>Node8&#45;&gt;Node26</title>
<g id="a_edge36_Node000008_Node000026"><a xlink:title=" ">
<path fill="none" stroke="#63b8ff" d="M898.17,-431.3C909.93,-422.03 924.46,-409.28 935,-395.75 964.14,-358.34 986.69,-306.95 997.66,-279.28"/>
<polygon fill="#63b8ff" stroke="#63b8ff" points="1000.87,-280.68 1001.21,-270.09 994.34,-278.16 1000.87,-280.68"/>
</a>
</g>
</g>
<!-- Node10 -->
<g id="Node000010" class="node">
<title>Node10</title>
<g id="a_Node000010"><a xlink:href="inline__core_8hpp.html" target="_top" xlink:title=" ">
<polygon fill="white" stroke="#666666" points="374,-274 286,-274 286,-243.5 374,-243.5 374,-274"/>
<text text-anchor="start" x="294" y="-260.5" font-family="Helvetica,sans-Serif" font-size="10.00">yaclib/algo/detail</text>
<text text-anchor="middle" x="330" y="-249.25" font-family="Helvetica,sans-Serif" font-size="10.00">/inline_core.hpp</text>
</a>
</g>
</g>
<!-- Node9&#45;&gt;Node10 -->
<g id="edge9_Node000009_Node000010" class="edge">
<title>Node9&#45;&gt;Node10</title>
<g id="a_edge9_Node000009_Node000010"><a xlink:title=" ">
<path fill="none" stroke="#63b8ff" d="M590.58,-364.82C536.77,-343.12 436.03,-302.5 376.81,-278.62"/>
<polygon fill="#63b8ff" stroke="#63b8ff" points="378.24,-275.43 367.65,-274.93 375.62,-281.92 378.24,-275.43"/>
</a>
</g>
</g>
<!-- Node18 -->
<g id="Node000018" class="node">
<title>Node18</title>
<g id="a_Node000018"><a xlink:href="executor_8hpp.html" target="_top" xlink:title=" ">
<polygon fill="white" stroke="#666666" points="508.25,-268.38 391.75,-268.38 391.75,-249.12 508.25,-249.12 508.25,-268.38"/>
<text text-anchor="middle" x="450" y="-254.88" font-family="Helvetica,sans-Serif" font-size="10.00">yaclib/exe/executor.hpp</text>
</a>
</g>
</g>
<!-- Node9&#45;&gt;Node18 -->
<g id="edge21_Node000009_Node000018" class="edge">
<title>Node9&#45;&gt;Node18</title>
<g id="a_edge21_Node000009_Node000018"><a xlink:title=" ">
<path fill="none" stroke="#63b8ff" d="M605.3,-364.82C571.52,-341.97 506.71,-298.12 472.47,-274.95"/>
<polygon fill="#63b8ff" stroke="#63b8ff" points="474.78,-272.29 464.54,-269.59 470.86,-278.09 474.78,-272.29"/>
</a>
</g>
</g>
<!-- Node21 -->
<g id="Node000021" class="node">
<title>Node21</title>
<g id="a_Node000021"><a xlink:href="inline_8hpp.html" target="_top" xlink:title=" ">
<polygon fill="white" stroke="#666666" points="835.12,-329.25 732.88,-329.25 732.88,-310 835.12,-310 835.12,-329.25"/>
<text text-anchor="middle" x="784" y="-315.75" font-family="Helvetica,sans-Serif" font-size="10.00">yaclib/exe/inline.hpp</text>
</a>
</g>
</g>
<!-- Node9&#45;&gt;Node21 -->
<g id="edge28_Node000009_Node000021" class="edge">
<title>Node9&#45;&gt;Node21</title>
<g id="a_edge28_Node000009_Node000021"><a xlink:title=" ">
<path fill="none" stroke="#63b8ff" d="M666.21,-364.8C691.73,-355.23 724.71,-342.86 749.28,-333.64"/>
<polygon fill="#63b8ff" stroke="#63b8ff" points="750.37,-336.97 758.51,-330.19 747.91,-330.42 750.37,-336.97"/>
</a>
</g>
</g>
<!-- Node22 -->
<g id="Node000022" class="node">
<title>Node22</title>
<g id="a_Node000022"><a xlink:title=" ">
<polygon fill="#e0e0e0" stroke="#999999" points="604.62,-329.25 565.38,-329.25 565.38,-310 604.62,-310 604.62,-329.25"/>
<text text-anchor="middle" x="585" y="-315.75" font-family="Helvetica,sans-Serif" font-size="10.00">limits</text>
</a>
</g>
</g>
<!-- Node9&#45;&gt;Node22 -->
<g id="edge31_Node000009_Node000022" class="edge">
<title>Node9&#45;&gt;Node22</title>
<g id="a_edge31_Node000009_Node000022"><a xlink:title=" ">
<path fill="none" stroke="#63b8ff" d="M616.62,-364.95C611.02,-357.1 604.06,-347.35 598.1,-338.99"/>
<polygon fill="#63b8ff" stroke="#63b8ff" points="601.01,-337.04 592.35,-330.93 595.31,-341.11 601.01,-337.04"/>
</a>
</g>
</g>
<!-- Node23 -->
<g id="Node000023" class="node">
<title>Node23</title>
<g id="a_Node000023"><a xlink:title=" ">
<polygon fill="#e0e0e0" stroke="#999999" points="714.88,-329.25 623.12,-329.25 623.12,-310 714.88,-310 714.88,-329.25"/>
<text text-anchor="middle" x="669" y="-315.75" font-family="Helvetica,sans-Serif" font-size="10.00">yaclib_std/atomic</text>
</a>
</g>
</g>
<!-- Node9&#45;&gt;Node23 -->
<g id="edge32_Node000009_Node000023" class="edge">
<title>Node9&#45;&gt;Node23</title>
<g id="a_edge32_Node000009_Node000023"><a xlink:title=" ">
<path fill="none" stroke="#63b8ff" d="M637.38,-364.95C642.98,-357.1 649.94,-347.35 655.9,-338.99"/>
<polygon fill="#63b8ff" stroke="#63b8ff" points="658.69,-341.11 661.65,-330.93 652.99,-337.04 658.69,-341.11"/>
</a>
</g>
</g>
<!-- Node10&#45;&gt;Node3 -->
<g id="edge10_Node000010_Node000003" class="edge">
<title>Node10&#45;&gt;Node3</title>
<g id="a_edge10_Node000010_Node000003"><a xlink:title=" ">
<path fill="none" stroke="#63b8ff" d="M374.38,-245.76C421.69,-232.84 491.37,-213.34 503,-207.5 566.78,-175.45 568.68,-145.3 631,-110.5 654.51,-97.37 682.68,-86.37 705.25,-78.58"/>
<polygon fill="#63b8ff" stroke="#63b8ff" points="706.36,-81.9 714.72,-75.39 704.13,-75.26 706.36,-81.9"/>
</a>
</g>
</g>
<!-- Node11 -->
<g id="Node000011" class="node">
<title>Node11</title>
<g id="a_Node000011"><a xlink:href="job_8hpp.html" target="_top" xlink:title=" ">
<polygon fill="white" stroke="#666666" points="376.25,-201.88 283.75,-201.88 283.75,-182.62 376.25,-182.62 376.25,-201.88"/>
<text text-anchor="middle" x="330" y="-188.38" font-family="Helvetica,sans-Serif" font-size="10.00">yaclib/exe/job.hpp</text>
</a>
</g>
</g>
<!-- Node10&#45;&gt;Node11 -->
<g id="edge11_Node000010_Node000011" class="edge">
<title>Node10&#45;&gt;Node11</title>
<g id="a_edge11_Node000010_Node000011"><a xlink:title=" ">
<path fill="none" stroke="#63b8ff" d="M330,-243.11C330,-234.33 330,-223.02 330,-213.4"/>
<polygon fill="#63b8ff" stroke="#63b8ff" points="333.5,-213.59 330,-203.59 326.5,-213.59 333.5,-213.59"/>
</a>
</g>
</g>
<!-- Node10&#45;&gt;Node12 -->
<g id="edge20_Node000010_Node000012" class="edge">
<title>Node10&#45;&gt;Node12</title>
<g id="a_edge20_Node000010_Node000012"><a xlink:title=" ">
<path fill="none" stroke="#63b8ff" d="M285.5,-251.28C225.81,-240.09 121.16,-211.15 68,-141 56.07,-125.26 54.34,-102.22 54.95,-85.81"/>
<polygon fill="#63b8ff" stroke="#63b8ff" points="58.41,-86.52 55.64,-76.29 51.43,-86.01 58.41,-86.52"/>
</a>
</g>
</g>
<!-- Node11&#45;&gt;Node12 -->
<g id="edge12_Node000011_Node000012" class="edge">
<title>Node11&#45;&gt;Node12</title>
<g id="a_edge12_Node000011_Node000012"><a xlink:title=" ">
<path fill="none" stroke="#63b8ff" d="M283.51,-186.1C223.68,-178.67 124,-163.35 95,-141 77.3,-127.36 67.19,-103.22 61.91,-85.98"/>
<polygon fill="#63b8ff" stroke="#63b8ff" points="65.3,-85.09 59.29,-76.36 58.54,-86.93 65.3,-85.09"/>
</a>
</g>
</g>
<!-- Node14 -->
<g id="Node000014" class="node">
<title>Node14</title>
<g id="a_Node000014"><a xlink:href="node_8hpp.html" target="_top" xlink:title=" ">
<polygon fill="white" stroke="#666666" points="186.38,-141 103.62,-141 103.62,-110.5 186.38,-110.5 186.38,-141"/>
<text text-anchor="start" x="111.62" y="-127.5" font-family="Helvetica,sans-Serif" font-size="10.00">yaclib/util/detail</text>
<text text-anchor="middle" x="145" y="-116.25" font-family="Helvetica,sans-Serif" font-size="10.00">/node.hpp</text>
</a>
</g>
</g>
<!-- Node11&#45;&gt;Node14 -->
<g id="edge14_Node000011_Node000014" class="edge">
<title>Node11&#45;&gt;Node14</title>
<g id="a_edge14_Node000011_Node000014"><a xlink:title=" ">
<path fill="none" stroke="#63b8ff" d="M303.89,-182.15C276.27,-172.52 231.95,-157.07 197.14,-144.93"/>
<polygon fill="#63b8ff" stroke="#63b8ff" points="198.69,-141.76 188.09,-141.77 196.38,-148.37 198.69,-141.76"/>
</a>
</g>
</g>
<!-- Node15 -->
<g id="Node000015" class="node">
<title>Node15</title>
<g id="a_Node000015"><a xlink:href="func_8hpp.html" target="_top" xlink:title=" ">
<polygon fill="white" stroke="#666666" points="470.12,-135.38 373.88,-135.38 373.88,-116.12 470.12,-116.12 470.12,-135.38"/>
<text text-anchor="middle" x="422" y="-121.88" font-family="Helvetica,sans-Serif" font-size="10.00">yaclib/util/func.hpp</text>
</a>
</g>
</g>
<!-- Node11&#45;&gt;Node15 -->
<g id="edge15_Node000011_Node000015" class="edge">
<title>Node11&#45;&gt;Node15</title>
<g id="a_edge15_Node000011_Node000015"><a xlink:title=" ">
<path fill="none" stroke="#63b8ff" d="M342.79,-182.28C357.47,-171.99 381.81,-154.93 399.64,-142.43"/>
<polygon fill="#63b8ff" stroke="#63b8ff" points="401.6,-145.33 407.78,-136.72 397.58,-139.59 401.6,-145.33"/>
</a>
</g>
</g>
<!-- Node13 -->
<g id="Node000013" class="node">
<title>Node13</title>
<g id="a_Node000013"><a xlink:title=" ">
<polygon fill="#e0e0e0" stroke="#999999" points="89.75,-19.25 24.25,-19.25 24.25,0 89.75,0 89.75,-19.25"/>
<text text-anchor="middle" x="57" y="-5.75" font-family="Helvetica,sans-Serif" font-size="10.00">string_view</text>
</a>
</g>
</g>
<!-- Node12&#45;&gt;Node13 -->
<g id="edge13_Node000012_Node000013" class="edge">
<title>Node12&#45;&gt;Node13</title>
<g id="a_edge13_Node000012_Node000013"><a xlink:title=" ">
<path fill="none" stroke="#63b8ff" d="M57,-55.08C57,-48.57 57,-39.42 57,-31.12"/>
<polygon fill="#63b8ff" stroke="#63b8ff" points="60.5,-31.12 57,-21.12 53.5,-31.12 60.5,-31.12"/>
</a>
</g>
</g>
<!-- Node15&#45;&gt;Node5 -->
<g id="edge18_Node000015_Node000005" class="edge">
<title>Node15&#45;&gt;Node5</title>
<g id="a_edge18_Node000015_Node000005"><a xlink:title=" ">
<path fill="none" stroke="#63b8ff" d="M445.42,-115.68C470.74,-105.87 511.36,-90.14 540.15,-78.98"/>
<polygon fill="#63b8ff" stroke="#63b8ff" points="541.08,-82.38 549.15,-75.5 538.56,-75.85 541.08,-82.38"/>
</a>
</g>
</g>
<!-- Node15&#45;&gt;Node6 -->
<g id="edge19_Node000015_Node000006" class="edge">
<title>Node15&#45;&gt;Node6</title>
<g id="a_edge19_Node000015_Node000006"><a xlink:title=" ">
<path fill="none" stroke="#63b8ff" d="M470.44,-120.35C597.06,-108.84 935.27,-78.12 1039.19,-68.67"/>
<polygon fill="#63b8ff" stroke="#63b8ff" points="1039.26,-72.18 1048.9,-67.79 1038.62,-65.21 1039.26,-72.18"/>
</a>
</g>
</g>
<!-- Node16 -->
<g id="Node000016" class="node">
<title>Node16</title>
<g id="a_Node000016"><a xlink:href="ref_8hpp.html" target="_top" xlink:title=" ">
<polygon fill="white" stroke="#666666" points="428.38,-74.5 339.62,-74.5 339.62,-55.25 428.38,-55.25 428.38,-74.5"/>
<text text-anchor="middle" x="384" y="-61" font-family="Helvetica,sans-Serif" font-size="10.00">yaclib/util/ref.hpp</text>
</a>
</g>
</g>
<!-- Node15&#45;&gt;Node16 -->
<g id="edge16_Node000015_Node000016" class="edge">
<title>Node15&#45;&gt;Node16</title>
<g id="a_edge16_Node000015_Node000016"><a xlink:title=" ">
<path fill="none" stroke="#63b8ff" d="M416.23,-115.81C410.87,-107.51 402.73,-94.89 395.97,-84.42"/>
<polygon fill="#63b8ff" stroke="#63b8ff" points="399.01,-82.68 390.65,-76.17 393.13,-86.47 399.01,-82.68"/>
</a>
</g>
</g>
<!-- Node17 -->
<g id="Node000017" class="node">
<title>Node17</title>
<g id="a_Node000017"><a xlink:title=" ">
<polygon fill="#e0e0e0" stroke="#999999" points="408.12,-19.25 359.88,-19.25 359.88,0 408.12,0 408.12,-19.25"/>
<text text-anchor="middle" x="384" y="-5.75" font-family="Helvetica,sans-Serif" font-size="10.00">cstddef</text>
</a>
</g>
</g>
<!-- Node16&#45;&gt;Node17 -->
<g id="edge17_Node000016_Node000017" class="edge">
<title>Node16&#45;&gt;Node17</title>
<g id="a_edge17_Node000016_Node000017"><a xlink:title=" ">
<path fill="none" stroke="#63b8ff" d="M384,-55.08C384,-48.57 384,-39.42 384,-31.12"/>
<polygon fill="#63b8ff" stroke="#63b8ff" points="387.5,-31.12 384,-21.12 380.5,-31.12 387.5,-31.12"/>
</a>
</g>
</g>
<!-- Node18&#45;&gt;Node11 -->
<g id="edge22_Node000018_Node000011" class="edge">
<title>Node18&#45;&gt;Node11</title>
<g id="a_edge22_Node000018_Node000011"><a xlink:title=" ">
<path fill="none" stroke="#63b8ff" d="M433.06,-248.65C413.23,-237.99 380.13,-220.19 356.8,-207.66"/>
<polygon fill="#63b8ff" stroke="#63b8ff" points="358.65,-204.68 348.19,-203.02 355.34,-210.84 358.65,-204.68"/>
</a>
</g>
</g>
<!-- Node19 -->
<g id="Node000019" class="node">
<title>Node19</title>
<g id="a_Node000019"><a xlink:href="intrusive__ptr_8hpp.html" target="_top" xlink:title=" ">
<polygon fill="white" stroke="#666666" points="494.12,-207.5 397.88,-207.5 397.88,-177 494.12,-177 494.12,-207.5"/>
<text text-anchor="start" x="405.88" y="-194" font-family="Helvetica,sans-Serif" font-size="10.00">yaclib/util/intrusive</text>
<text text-anchor="middle" x="446" y="-182.75" font-family="Helvetica,sans-Serif" font-size="10.00">_ptr.hpp</text>
</a>
</g>
</g>
<!-- Node18&#45;&gt;Node19 -->
<g id="edge23_Node000018_Node000019" class="edge">
<title>Node18&#45;&gt;Node19</title>
<g id="a_edge23_Node000018_Node000019"><a xlink:title=" ">
<path fill="none" stroke="#63b8ff" d="M449.44,-248.78C448.96,-241.04 448.25,-229.45 447.59,-218.87"/>
<polygon fill="#63b8ff" stroke="#63b8ff" points="451.1,-218.87 446.98,-209.11 444.11,-219.3 451.1,-218.87"/>
</a>
</g>
</g>
<!-- Node19&#45;&gt;Node5 -->
<g id="edge25_Node000019_Node000005" class="edge">
<title>Node19&#45;&gt;Node5</title>
<g id="a_edge25_Node000019_Node000005"><a xlink:title=" ">
<path fill="none" stroke="#63b8ff" d="M459.01,-176.51C473.79,-159.97 498.89,-132.57 522,-110.5 532.3,-100.66 544.34,-90.26 554.24,-81.98"/>
<polygon fill="#63b8ff" stroke="#63b8ff" points="556.31,-84.81 561.78,-75.74 551.85,-79.42 556.31,-84.81"/>
</a>
</g>
</g>
<!-- Node19&#45;&gt;Node16 -->
<g id="edge24_Node000019_Node000016" class="edge">
<title>Node19&#45;&gt;Node16</title>
<g id="a_edge24_Node000019_Node000016"><a xlink:title=" ">
<path fill="none" stroke="#63b8ff" d="M406.08,-176.6C390.35,-168.63 373.93,-157.05 365,-141 355.11,-123.23 363.52,-100.26 372.07,-84.42"/>
<polygon fill="#63b8ff" stroke="#63b8ff" points="374.94,-86.44 377.02,-76.05 368.92,-82.88 374.94,-86.44"/>
</a>
</g>
</g>
<!-- Node20 -->
<g id="Node000020" class="node">
<title>Node20</title>
<g id="a_Node000020"><a xlink:href="intrusive__ptr__impl_8hpp.html" target="_top" xlink:title=" ">
<polygon fill="white" stroke="#666666" points="317.75,-141 204.25,-141 204.25,-110.5 317.75,-110.5 317.75,-141"/>
<text text-anchor="start" x="212.25" y="-127.5" font-family="Helvetica,sans-Serif" font-size="10.00">yaclib/util/detail</text>
<text text-anchor="middle" x="261" y="-116.25" font-family="Helvetica,sans-Serif" font-size="10.00">/intrusive_ptr_impl.hpp</text>
</a>
</g>
</g>
<!-- Node19&#45;&gt;Node20 -->
<g id="edge26_Node000019_Node000020" class="edge">
<title>Node19&#45;&gt;Node20</title>
<g id="a_edge26_Node000019_Node000020"><a xlink:title=" ">
<path fill="none" stroke="#63b8ff" d="M404.02,-176.61C377.27,-167.29 342.38,-155.12 313.76,-145.15"/>
<polygon fill="#63b8ff" stroke="#63b8ff" points="315.16,-141.93 304.56,-141.94 312.85,-148.54 315.16,-141.93"/>
</a>
</g>
</g>
<!-- Node20&#45;&gt;Node12 -->
<g id="edge27_Node000020_Node000012" class="edge">
<title>Node20&#45;&gt;Node12</title>
<g id="a_edge27_Node000020_Node000012"><a xlink:title=" ">
<path fill="none" stroke="#63b8ff" d="M210.05,-110.05C175.95,-100.2 131.6,-87.4 99.42,-78.12"/>
<polygon fill="#63b8ff" stroke="#63b8ff" points="100.62,-74.82 90.04,-75.41 98.68,-81.55 100.62,-74.82"/>
</a>
</g>
</g>
<!-- Node21&#45;&gt;Node4 -->
<g id="edge30_Node000021_Node000004" class="edge">
<title>Node21&#45;&gt;Node4</title>
<g id="a_edge30_Node000021_Node000004"><a xlink:title=" ">
<path fill="none" stroke="#63b8ff" d="M796.2,-309.75C818.79,-292.63 867.08,-252.75 892,-207.5 913.79,-167.93 921.73,-114.62 924.53,-86.02"/>
<polygon fill="#63b8ff" stroke="#63b8ff" points="928,-86.52 925.36,-76.26 921.03,-85.93 928,-86.52"/>
</a>
</g>
</g>
<!-- Node21&#45;&gt;Node18 -->
<g id="edge29_Node000021_Node000018" class="edge">
<title>Node21&#45;&gt;Node18</title>
<g id="a_edge29_Node000021_Node000018"><a xlink:title=" ">
<path fill="none" stroke="#63b8ff" d="M732.54,-309.55C673.33,-299.12 576.12,-281.98 512.58,-270.78"/>
<polygon fill="#63b8ff" stroke="#63b8ff" points="513.46,-267.38 503,-269.09 512.25,-274.28 513.46,-267.38"/>
</a>
</g>
</g>
<!-- Node24&#45;&gt;Node5 -->
<g id="edge35_Node000024_Node000005" class="edge">
<title>Node24&#45;&gt;Node5</title>
<g id="a_edge35_Node000024_Node000005"><a xlink:title=" ">
<path fill="none" stroke="#63b8ff" d="M875.19,-370.62C870.43,-356.61 859.77,-329.03 844,-310 795.49,-251.43 766.1,-255.35 707,-207.5 672.12,-179.26 661.61,-173.82 631,-141 613.96,-122.73 596.99,-99.55 586.05,-83.81"/>
<polygon fill="#63b8ff" stroke="#63b8ff" points="589.18,-82.19 580.65,-75.91 583.41,-86.14 589.18,-82.19"/>
</a>
</g>
</g>
<!-- Node25 -->
<g id="Node000025" class="node">
<title>Node25</title>
<g id="a_Node000025"><a xlink:title=" ">
<polygon fill="#e0e0e0" stroke="#999999" points="941.25,-329.25 890.75,-329.25 890.75,-310 941.25,-310 941.25,-329.25"/>
<text text-anchor="middle" x="916" y="-315.75" font-family="Helvetica,sans-Serif" font-size="10.00">memory</text>
</a>
</g>
</g>
<!-- Node24&#45;&gt;Node25 -->
<g id="edge34_Node000024_Node000025" class="edge">
<title>Node24&#45;&gt;Node25</title>
<g id="a_edge34_Node000024_Node000025"><a xlink:title=" ">
<path fill="none" stroke="#63b8ff" d="M883.77,-370.56C889.13,-362.26 897.27,-349.64 904.03,-339.17"/>
<polygon fill="#63b8ff" stroke="#63b8ff" points="906.87,-341.22 909.35,-330.92 900.99,-337.43 906.87,-341.22"/>
</a>
</g>
</g>
<!-- Node26&#45;&gt;Node4 -->
<g id="edge37_Node000026_Node000004" class="edge">
<title>Node26&#45;&gt;Node4</title>
<g id="a_edge37_Node000026_Node000004"><a xlink:title=" ">
<path fill="none" stroke="#63b8ff" d="M1012.63,-248.96C1032.67,-224.78 1083.09,-156.03 1051,-110.5 1034.1,-86.52 1003.09,-75.36 976.19,-70.19"/>
<polygon fill="#63b8ff" stroke="#63b8ff" points="976.9,-66.76 966.46,-68.57 975.75,-73.66 976.9,-66.76"/>
</a>
</g>
</g>
<!-- Node26&#45;&gt;Node6 -->
<g id="edge47_Node000026_Node000006" class="edge">
<title>Node26&#45;&gt;Node6</title>
<g id="a_edge47_Node000026_Node000006"><a xlink:title=" ">
<path fill="none" stroke="#63b8ff" d="M1056.02,-249.2C1080.34,-242.28 1107.28,-229.84 1122,-207.5 1145.72,-171.5 1140,-149.67 1122,-110.5 1116.54,-98.62 1106.19,-88.72 1096.15,-81.28"/>
<polygon fill="#63b8ff" stroke="#63b8ff" points="1098.28,-78.5 1088.04,-75.78 1094.35,-84.29 1098.28,-78.5"/>
</a>
</g>
</g>
<!-- Node27 -->
<g id="Node000027" class="node">
<title>Node27</title>
<g id="a_Node000027"><a xlink:href="type__traits_8hpp.html" target="_top" xlink:title=" ">
<polygon fill="white" stroke="#666666" points="883.25,-201.88 760.75,-201.88 760.75,-182.62 883.25,-182.62 883.25,-201.88"/>
<text text-anchor="middle" x="822" y="-188.38" font-family="Helvetica,sans-Serif" font-size="10.00">yaclib/util/type_traits.hpp</text>
</a>
</g>
</g>
<!-- Node26&#45;&gt;Node27 -->
<g id="edge38_Node000026_Node000027" class="edge">
<title>Node26&#45;&gt;Node27</title>
<g id="a_edge38_Node000026_Node000027"><a xlink:title=" ">
<path fill="none" stroke="#63b8ff" d="M979.17,-248.65C947.56,-237.51 893.86,-218.58 858.16,-205.99"/>
<polygon fill="#63b8ff" stroke="#63b8ff" points="859.72,-202.83 849.13,-202.81 857.4,-209.44 859.72,-202.83"/>
</a>
</g>
</g>
<!-- Node29 -->
<g id="Node000029" class="node">
<title>Node29</title>
<g id="a_Node000029"><a xlink:title=" ">
<polygon fill="#e0e0e0" stroke="#999999" points="697.62,-135.38 640.38,-135.38 640.38,-116.12 697.62,-116.12 697.62,-135.38"/>
<text text-anchor="middle" x="669" y="-121.88" font-family="Helvetica,sans-Serif" font-size="10.00">exception</text>
</a>
</g>
</g>
<!-- Node26&#45;&gt;Node29 -->
<g id="edge46_Node000026_Node000029" class="edge">
<title>Node26&#45;&gt;Node29</title>
<g id="a_edge46_Node000026_Node000029"><a xlink:title=" ">
<path fill="none" stroke="#63b8ff" d="M954.18,-256.08C900.99,-252.48 816.42,-241.35 752,-207.5 722.89,-192.2 697.09,-163.48 682.25,-144.74"/>
<polygon fill="#63b8ff" stroke="#63b8ff" points="685.14,-142.75 676.29,-136.94 679.58,-147 685.14,-142.75"/>
</a>
</g>
</g>
<!-- Node30 -->
<g id="Node000030" class="node">
<title>Node30</title>
<g id="a_Node000030"><a xlink:title=" ">
<polygon fill="#e0e0e0" stroke="#999999" points="1027.62,-201.88 982.38,-201.88 982.38,-182.62 1027.62,-182.62 1027.62,-201.88"/>
<text text-anchor="middle" x="1005" y="-188.38" font-family="Helvetica,sans-Serif" font-size="10.00">variant</text>
</a>
</g>
</g>
<!-- Node26&#45;&gt;Node30 -->
<g id="edge48_Node000026_Node000030" class="edge">
<title>Node26&#45;&gt;Node30</title>
<g id="a_edge48_Node000026_Node000030"><a xlink:title=" ">
<path fill="none" stroke="#63b8ff" d="M1005,-248.78C1005,-239.73 1005,-225.45 1005,-213.63"/>
<polygon fill="#63b8ff" stroke="#63b8ff" points="1008.5,-213.66 1005,-203.66 1001.5,-213.66 1008.5,-213.66"/>
</a>
</g>
</g>
<!-- Node27&#45;&gt;Node4 -->
<g id="edge39_Node000027_Node000004" class="edge">
<title>Node27&#45;&gt;Node4</title>
<g id="a_edge39_Node000027_Node000004"><a xlink:title=" ">
<path fill="none" stroke="#63b8ff" d="M830.95,-182.25C840.63,-172.39 856.37,-155.98 869,-141 884.93,-122.11 901.89,-99.38 913.13,-83.9"/>
<polygon fill="#63b8ff" stroke="#63b8ff" points="915.73,-86.28 918.73,-76.12 910.05,-82.19 915.73,-86.28"/>
</a>
</g>
</g>
<!-- Node27&#45;&gt;Node5 -->
<g id="edge44_Node000027_Node000005" class="edge">
<title>Node27&#45;&gt;Node5</title>
<g id="a_edge44_Node000027_Node000005"><a xlink:title=" ">
<path fill="none" stroke="#63b8ff" d="M807.24,-182.22C791.52,-172.47 766.07,-156.27 745,-141 727.47,-128.29 726,-120.88 707,-110.5 678.2,-94.76 642.87,-83.23 615.86,-75.83"/>
<polygon fill="#63b8ff" stroke="#63b8ff" points="616.87,-72.48 606.3,-73.31 615.08,-79.25 616.87,-72.48"/>
</a>
</g>
</g>
<!-- Node27&#45;&gt;Node6 -->
<g id="edge45_Node000027_Node000006" class="edge">
<title>Node27&#45;&gt;Node6</title>
<g id="a_edge45_Node000027_Node000006"><a xlink:title=" ">
<path fill="none" stroke="#63b8ff" d="M883.48,-185.04C942.96,-177.8 1027.47,-163.8 1051,-141 1065.55,-126.9 1069.56,-103.39 1070.39,-86.42"/>
<polygon fill="#63b8ff" stroke="#63b8ff" points="1073.89,-86.54 1070.51,-76.5 1066.89,-86.45 1073.89,-86.54"/>
</a>
</g>
</g>
<!-- Node28 -->
<g id="Node000028" class="node">
<title>Node28</title>
<g id="a_Node000028"><a xlink:href="type__traits__impl_8hpp.html" target="_top" xlink:title=" ">
<polygon fill="white" stroke="#666666" points="859.62,-141 754.38,-141 754.38,-110.5 859.62,-110.5 859.62,-141"/>
<text text-anchor="start" x="762.38" y="-127.5" font-family="Helvetica,sans-Serif" font-size="10.00">yaclib/util/detail</text>
<text text-anchor="middle" x="807" y="-116.25" font-family="Helvetica,sans-Serif" font-size="10.00">/type_traits_impl.hpp</text>
</a>
</g>
</g>
<!-- Node27&#45;&gt;Node28 -->
<g id="edge40_Node000027_Node000028" class="edge">
<title>Node27&#45;&gt;Node28</title>
<g id="a_edge40_Node000027_Node000028"><a xlink:title=" ">
<path fill="none" stroke="#63b8ff" d="M819.91,-182.28C818.09,-174.45 815.36,-162.7 812.88,-152.02"/>
<polygon fill="#63b8ff" stroke="#63b8ff" points="816.35,-151.52 810.68,-142.57 809.53,-153.1 816.35,-151.52"/>
</a>
</g>
</g>
<!-- Node27&#45;&gt;Node29 -->
<g id="edge43_Node000027_Node000029" class="edge">
<title>Node27&#45;&gt;Node29</title>
<g id="a_edge43_Node000027_Node000029"><a xlink:title=" ">
<path fill="none" stroke="#63b8ff" d="M800.4,-182.15C774.43,-171.2 730.62,-152.73 700.79,-140.15"/>
<polygon fill="#63b8ff" stroke="#63b8ff" points="702.46,-137.06 691.88,-136.4 699.74,-143.51 702.46,-137.06"/>
</a>
</g>
</g>
<!-- Node28&#45;&gt;Node4 -->
<g id="edge41_Node000028_Node000004" class="edge">
<title>Node28&#45;&gt;Node4</title>
<g id="a_edge41_Node000028_Node000004"><a xlink:title=" ">
<path fill="none" stroke="#63b8ff" d="M836.72,-110.05C855.37,-100.82 879.27,-89 897.65,-79.9"/>
<polygon fill="#63b8ff" stroke="#63b8ff" points="898.98,-83.15 906.39,-75.58 895.88,-76.87 898.98,-83.15"/>
</a>
</g>
</g>
<!-- Node28&#45;&gt;Node5 -->
<g id="edge42_Node000028_Node000005" class="edge">
<title>Node28&#45;&gt;Node5</title>
<g id="a_edge42_Node000028_Node000005"><a xlink:title=" ">
<path fill="none" stroke="#63b8ff" d="M754.13,-111.39C712.21,-100.8 654.44,-86.2 615.74,-76.42"/>
<polygon fill="#63b8ff" stroke="#63b8ff" points="616.89,-73.1 606.33,-74.05 615.17,-79.89 616.89,-73.1"/>
</a>
</g>
</g>
</g>
</svg>
