<?xml version="1.0" encoding="UTF-8" standalone="no"?>
<!DOCTYPE svg PUBLIC "-//W3C//DTD SVG 1.1//EN"
 "http://www.w3.org/Graphics/SVG/1.1/DTD/svg11.dtd">
<!-- Generated by graphviz version 3.0.0 (20220413.0242)
 -->
<!-- Title: include/yaclib/async/promise.hpp Pages: 1 -->
<svg width="882pt" height="486pt"
 viewBox="0.00 0.00 881.97 486.00" xmlns="http://www.w3.org/2000/svg" xmlns:xlink="http://www.w3.org/1999/xlink">
<g id="graph0" class="graph" transform="scale(1 1) rotate(0) translate(4 482)">
<title>include/yaclib/async/promise.hpp</title>
<!-- Node1 -->
<g id="node1" class="node">
<title>Node1</title>
<g id="a_node1"><a xlink:title=" ">
<polygon fill="#bfbfbf" stroke="black" points="674.97,-447.5 674.97,-477.5 778.97,-477.5 778.97,-447.5 674.97,-447.5"/>
<text text-anchor="start" x="682.97" y="-465.5" font-family="Helvetica,sans-Serif" font-size="10.00">include/yaclib/async</text>
<text text-anchor="middle" x="726.97" y="-454.5" font-family="Helvetica,sans-Serif" font-size="10.00">/promise.hpp</text>
</a>
</g>
</g>
<!-- Node2 -->
<g id="node2" class="node">
<title>Node2</title>
<g id="a_node2"><a xlink:href="result__core_8hpp.html" target="_top" xlink:title=" ">
<polygon fill="none" stroke="black" points="467.97,-380.5 467.97,-410.5 563.97,-410.5 563.97,-380.5 467.97,-380.5"/>
<text text-anchor="start" x="475.97" y="-398.5" font-family="Helvetica,sans-Serif" font-size="10.00">yaclib/async/detail</text>
<text text-anchor="middle" x="515.97" y="-387.5" font-family="Helvetica,sans-Serif" font-size="10.00">/result_core.hpp</text>
</a>
</g>
</g>
<!-- Node1&#45;&gt;Node2 -->
<g id="edge1" class="edge">
<title>Node1&#45;&gt;Node2</title>
<path fill="none" stroke="midnightblue" d="M681.45,-447.48C649.25,-437.56 605.89,-424.2 571.64,-413.65"/>
<polygon fill="midnightblue" stroke="midnightblue" points="572.37,-410.21 561.78,-410.61 570.31,-416.9 572.37,-410.21"/>
</g>
<!-- Node20 -->
<g id="node20" class="node">
<title>Node20</title>
<g id="a_node20"><a xlink:href="type__traits_8hpp.html" target="_top" xlink:title=" ">
<polygon fill="none" stroke="black" points="665.47,-252 665.47,-271 788.47,-271 788.47,-252 665.47,-252"/>
<text text-anchor="middle" x="726.97" y="-259" font-family="Helvetica,sans-Serif" font-size="10.00">yaclib/util/type_traits.hpp</text>
</a>
</g>
</g>
<!-- Node1&#45;&gt;Node20 -->
<g id="edge36" class="edge">
<title>Node1&#45;&gt;Node20</title>
<path fill="none" stroke="midnightblue" d="M726.97,-447.19C726.97,-411.99 726.97,-321.17 726.97,-281.51"/>
<polygon fill="midnightblue" stroke="midnightblue" points="730.47,-281.36 726.97,-271.36 723.47,-281.36 730.47,-281.36"/>
</g>
<!-- Node25 -->
<g id="node25" class="node">
<title>Node25</title>
<g id="a_node25"><a xlink:href="promise__impl_8hpp.html" target="_top" xlink:title=" ">
<polygon fill="none" stroke="black" points="777.97,-380.5 777.97,-410.5 873.97,-410.5 873.97,-380.5 777.97,-380.5"/>
<text text-anchor="start" x="785.97" y="-398.5" font-family="Helvetica,sans-Serif" font-size="10.00">yaclib/async/detail</text>
<text text-anchor="middle" x="825.97" y="-387.5" font-family="Helvetica,sans-Serif" font-size="10.00">/promise_impl.hpp</text>
</a>
</g>
</g>
<!-- Node1&#45;&gt;Node25 -->
<g id="edge37" class="edge">
<title>Node1&#45;&gt;Node25</title>
<path fill="none" stroke="midnightblue" d="M748.45,-447.4C762.34,-438.28 780.6,-426.29 795.91,-416.24"/>
<polygon fill="midnightblue" stroke="midnightblue" points="798.1,-418.99 804.53,-410.58 794.25,-413.14 798.1,-418.99"/>
</g>
<!-- Node3 -->
<g id="node3" class="node">
<title>Node3</title>
<g id="a_node3"><a xlink:href="base__core_8hpp.html" target="_top" xlink:title=" ">
<polygon fill="none" stroke="black" points="140.97,-313.5 140.97,-343.5 236.97,-343.5 236.97,-313.5 140.97,-313.5"/>
<text text-anchor="start" x="148.97" y="-331.5" font-family="Helvetica,sans-Serif" font-size="10.00">yaclib/async/detail</text>
<text text-anchor="middle" x="188.97" y="-320.5" font-family="Helvetica,sans-Serif" font-size="10.00">/base_core.hpp</text>
</a>
</g>
</g>
<!-- Node2&#45;&gt;Node3 -->
<g id="edge2" class="edge">
<title>Node2&#45;&gt;Node3</title>
<path fill="none" stroke="midnightblue" d="M467.72,-384.91C409.07,-373.25 310.17,-353.59 247.31,-341.1"/>
<polygon fill="midnightblue" stroke="midnightblue" points="247.64,-337.59 237.15,-339.08 246.28,-344.46 247.64,-337.59"/>
</g>
<!-- Node4 -->
<g id="node4" class="node">
<title>Node4</title>
<g id="a_node4"><a xlink:href="inline__core_8hpp.html" target="_top" xlink:title=" ">
<polygon fill="none" stroke="black" points="410.97,-246.5 410.97,-276.5 506.97,-276.5 506.97,-246.5 410.97,-246.5"/>
<text text-anchor="start" x="418.97" y="-264.5" font-family="Helvetica,sans-Serif" font-size="10.00">yaclib/async/detail</text>
<text text-anchor="middle" x="458.97" y="-253.5" font-family="Helvetica,sans-Serif" font-size="10.00">/inline_core.hpp</text>
</a>
</g>
</g>
<!-- Node2&#45;&gt;Node4 -->
<g id="edge23" class="edge">
<title>Node2&#45;&gt;Node4</title>
<path fill="none" stroke="midnightblue" d="M509.87,-380.37C500.1,-357.75 480.84,-313.14 469.02,-285.76"/>
<polygon fill="midnightblue" stroke="midnightblue" points="472.21,-284.32 465.03,-276.52 465.78,-287.09 472.21,-284.32"/>
</g>
<!-- Node10 -->
<g id="node10" class="node">
<title>Node10</title>
<g id="a_node10"><a xlink:title=" ">
<polygon fill="none" stroke="#bfbfbf" points="406.47,-56.5 406.47,-75.5 445.47,-75.5 445.47,-56.5 406.47,-56.5"/>
<text text-anchor="middle" x="425.97" y="-63.5" font-family="Helvetica,sans-Serif" font-size="10.00">utility</text>
</a>
</g>
</g>
<!-- Node2&#45;&gt;Node10 -->
<g id="edge35" class="edge">
<title>Node2&#45;&gt;Node10</title>
<path fill="none" stroke="midnightblue" d="M519.37,-380.34C524.84,-356.27 534.97,-305.8 534.97,-262.5 534.97,-262.5 534.97,-262.5 534.97,-193.5 534.97,-156.31 539.01,-141.2 515.97,-112 500.79,-92.76 475.22,-81.09 455.2,-74.48"/>
<polygon fill="midnightblue" stroke="midnightblue" points="456.2,-71.12 445.61,-71.54 454.15,-77.82 456.2,-71.12"/>
</g>
<!-- Node14 -->
<g id="node14" class="node">
<title>Node14</title>
<g id="a_node14"><a xlink:href="intrusive__ptr_8hpp.html" target="_top" xlink:title=" ">
<polygon fill="none" stroke="black" points="49.47,-179.5 49.47,-209.5 146.47,-209.5 146.47,-179.5 49.47,-179.5"/>
<text text-anchor="start" x="57.47" y="-197.5" font-family="Helvetica,sans-Serif" font-size="10.00">yaclib/util/intrusive</text>
<text text-anchor="middle" x="97.97" y="-186.5" font-family="Helvetica,sans-Serif" font-size="10.00">_ptr.hpp</text>
</a>
</g>
</g>
<!-- Node2&#45;&gt;Node14 -->
<g id="edge24" class="edge">
<title>Node2&#45;&gt;Node14</title>
<path fill="none" stroke="midnightblue" d="M467.87,-394.32C393.72,-392.7 247.95,-384.11 131.97,-344 76.79,-324.92 47.87,-327.73 18.97,-277 12.15,-265.03 12.36,-258.08 18.97,-246 26.28,-232.66 38.78,-222.33 51.7,-214.59"/>
<polygon fill="midnightblue" stroke="midnightblue" points="53.6,-217.54 60.66,-209.64 50.21,-211.41 53.6,-217.54"/>
</g>
<!-- Node19 -->
<g id="node19" class="node">
<title>Node19</title>
<g id="a_node19"><a xlink:href="result_8hpp.html" target="_top" xlink:title=" ">
<polygon fill="none" stroke="black" points="574.97,-319 574.97,-338 676.97,-338 676.97,-319 574.97,-319"/>
<text text-anchor="middle" x="625.97" y="-326" font-family="Helvetica,sans-Serif" font-size="10.00">yaclib/util/result.hpp</text>
</a>
</g>
</g>
<!-- Node2&#45;&gt;Node19 -->
<g id="edge25" class="edge">
<title>Node2&#45;&gt;Node19</title>
<path fill="none" stroke="midnightblue" d="M539.84,-380.4C558.54,-369.34 584.41,-354.06 602.9,-343.13"/>
<polygon fill="midnightblue" stroke="midnightblue" points="604.75,-346.11 611.58,-338.01 601.19,-340.08 604.75,-346.11"/>
</g>
<!-- Node3&#45;&gt;Node4 -->
<g id="edge3" class="edge">
<title>Node3&#45;&gt;Node4</title>
<path fill="none" stroke="midnightblue" d="M237,-316.22C280,-306.08 344.74,-290.73 400.97,-277 401.07,-276.98 401.17,-276.95 401.28,-276.93"/>
<polygon fill="midnightblue" stroke="midnightblue" points="402,-280.35 410.88,-274.57 400.33,-273.55 402,-280.35"/>
</g>
<!-- Node8 -->
<g id="node8" class="node">
<title>Node8</title>
<g id="a_node8"><a xlink:href="ref_8hpp.html" target="_top" xlink:title=" ">
<polygon fill="none" stroke="black" points="7.47,-56.5 7.47,-75.5 96.47,-75.5 96.47,-56.5 7.47,-56.5"/>
<text text-anchor="middle" x="51.97" y="-63.5" font-family="Helvetica,sans-Serif" font-size="10.00">yaclib/util/ref.hpp</text>
</a>
</g>
</g>
<!-- Node3&#45;&gt;Node8 -->
<g id="edge21" class="edge">
<title>Node3&#45;&gt;Node8</title>
<path fill="none" stroke="midnightblue" d="M140.55,-319.69C95.64,-311.35 33.61,-296.62 18.97,-277 -25.08,-217.95 19.63,-123.3 41.47,-84.48"/>
<polygon fill="midnightblue" stroke="midnightblue" points="44.59,-86.07 46.57,-75.67 38.53,-82.56 44.59,-86.07"/>
</g>
<!-- Node12 -->
<g id="node12" class="node">
<title>Node12</title>
<g id="a_node12"><a xlink:title=" ">
<polygon fill="none" stroke="#bfbfbf" points="36.97,-252 36.97,-271 124.97,-271 124.97,-252 36.97,-252"/>
<text text-anchor="middle" x="80.97" y="-259" font-family="Helvetica,sans-Serif" font-size="10.00">yaclib/config.hpp</text>
</a>
</g>
</g>
<!-- Node3&#45;&gt;Node12 -->
<g id="edge11" class="edge">
<title>Node3&#45;&gt;Node12</title>
<path fill="none" stroke="midnightblue" d="M165.54,-313.4C147.26,-302.39 122.01,-287.2 103.87,-276.28"/>
<polygon fill="midnightblue" stroke="midnightblue" points="105.48,-273.16 95.11,-271.01 101.87,-279.16 105.48,-273.16"/>
</g>
<!-- Node13 -->
<g id="node13" class="node">
<title>Node13</title>
<g id="a_node13"><a xlink:href="executor_8hpp.html" target="_top" xlink:title=" ">
<polygon fill="none" stroke="black" points="253.47,-252 253.47,-271 392.47,-271 392.47,-252 253.47,-252"/>
<text text-anchor="middle" x="322.97" y="-259" font-family="Helvetica,sans-Serif" font-size="10.00">yaclib/executor/executor.hpp</text>
</a>
</g>
</g>
<!-- Node3&#45;&gt;Node13 -->
<g id="edge12" class="edge">
<title>Node3&#45;&gt;Node13</title>
<path fill="none" stroke="midnightblue" d="M218.05,-313.4C241.35,-302.09 273.78,-286.36 296.4,-275.39"/>
<polygon fill="midnightblue" stroke="midnightblue" points="297.97,-278.52 305.44,-271.01 294.91,-272.22 297.97,-278.52"/>
</g>
<!-- Node3&#45;&gt;Node14 -->
<g id="edge20" class="edge">
<title>Node3&#45;&gt;Node14</title>
<path fill="none" stroke="midnightblue" d="M140.89,-326.78C103.44,-323.36 53.64,-311.94 27.97,-277 19.82,-265.9 21.7,-258.27 27.97,-246 34.56,-233.12 46.14,-222.77 58.01,-214.88"/>
<polygon fill="midnightblue" stroke="midnightblue" points="59.95,-217.79 66.63,-209.56 56.28,-211.83 59.95,-217.79"/>
</g>
<!-- Node18 -->
<g id="node18" class="node">
<title>Node18</title>
<g id="a_node18"><a xlink:title=" ">
<polygon fill="none" stroke="#bfbfbf" points="142.97,-252 142.97,-271 234.97,-271 234.97,-252 142.97,-252"/>
<text text-anchor="middle" x="188.97" y="-259" font-family="Helvetica,sans-Serif" font-size="10.00">yaclib_std/atomic</text>
</a>
</g>
</g>
<!-- Node3&#45;&gt;Node18 -->
<g id="edge22" class="edge">
<title>Node3&#45;&gt;Node18</title>
<path fill="none" stroke="midnightblue" d="M188.97,-313.4C188.97,-304.06 188.97,-291.71 188.97,-281.52"/>
<polygon fill="midnightblue" stroke="midnightblue" points="192.47,-281.19 188.97,-271.19 185.47,-281.19 192.47,-281.19"/>
</g>
<!-- Node5 -->
<g id="node5" class="node">
<title>Node5</title>
<g id="a_node5"><a xlink:href="job_8hpp.html" target="_top" xlink:title=" ">
<polygon fill="none" stroke="black" points="283.47,-185 283.47,-204 398.47,-204 398.47,-185 283.47,-185"/>
<text text-anchor="middle" x="340.97" y="-192" font-family="Helvetica,sans-Serif" font-size="10.00">yaclib/executor/job.hpp</text>
</a>
</g>
</g>
<!-- Node4&#45;&gt;Node5 -->
<g id="edge4" class="edge">
<title>Node4&#45;&gt;Node5</title>
<path fill="none" stroke="midnightblue" d="M433.37,-246.4C413.12,-235.24 385.05,-219.78 365.18,-208.83"/>
<polygon fill="midnightblue" stroke="midnightblue" points="366.86,-205.77 356.42,-204.01 363.49,-211.9 366.86,-205.77"/>
</g>
<!-- Node11 -->
<g id="node11" class="node">
<title>Node11</title>
<g id="a_node11"><a xlink:title=" ">
<polygon fill="none" stroke="#bfbfbf" points="435.97,-185 435.97,-204 481.97,-204 481.97,-185 435.97,-185"/>
<text text-anchor="middle" x="458.97" y="-192" font-family="Helvetica,sans-Serif" font-size="10.00">cstdint</text>
</a>
</g>
</g>
<!-- Node4&#45;&gt;Node11 -->
<g id="edge10" class="edge">
<title>Node4&#45;&gt;Node11</title>
<path fill="none" stroke="midnightblue" d="M458.97,-246.4C458.97,-237.06 458.97,-224.71 458.97,-214.52"/>
<polygon fill="midnightblue" stroke="midnightblue" points="462.47,-214.19 458.97,-204.19 455.47,-214.19 462.47,-214.19"/>
</g>
<!-- Node6 -->
<g id="node6" class="node">
<title>Node6</title>
<g id="a_node6"><a xlink:href="node_8hpp.html" target="_top" xlink:title=" ">
<polygon fill="none" stroke="black" points="423.47,-112.5 423.47,-142.5 506.47,-142.5 506.47,-112.5 423.47,-112.5"/>
<text text-anchor="start" x="431.47" y="-130.5" font-family="Helvetica,sans-Serif" font-size="10.00">yaclib/util/detail</text>
<text text-anchor="middle" x="464.97" y="-119.5" font-family="Helvetica,sans-Serif" font-size="10.00">/node.hpp</text>
</a>
</g>
</g>
<!-- Node5&#45;&gt;Node6 -->
<g id="edge5" class="edge">
<title>Node5&#45;&gt;Node6</title>
<path fill="none" stroke="midnightblue" d="M357.44,-184.87C375.59,-175.36 405.33,-159.77 428.94,-147.39"/>
<polygon fill="midnightblue" stroke="midnightblue" points="430.74,-150.39 437.98,-142.65 427.49,-144.19 430.74,-150.39"/>
</g>
<!-- Node7 -->
<g id="node7" class="node">
<title>Node7</title>
<g id="a_node7"><a xlink:href="func_8hpp.html" target="_top" xlink:title=" ">
<polygon fill="none" stroke="black" points="269.47,-118 269.47,-137 366.47,-137 366.47,-118 269.47,-118"/>
<text text-anchor="middle" x="317.97" y="-125" font-family="Helvetica,sans-Serif" font-size="10.00">yaclib/util/func.hpp</text>
</a>
</g>
</g>
<!-- Node5&#45;&gt;Node7 -->
<g id="edge6" class="edge">
<title>Node5&#45;&gt;Node7</title>
<path fill="none" stroke="midnightblue" d="M337.87,-184.73C334.46,-175.09 328.87,-159.3 324.49,-146.91"/>
<polygon fill="midnightblue" stroke="midnightblue" points="327.66,-145.39 321.03,-137.13 321.06,-147.72 327.66,-145.39"/>
</g>
<!-- Node7&#45;&gt;Node8 -->
<g id="edge7" class="edge">
<title>Node7&#45;&gt;Node8</title>
<path fill="none" stroke="midnightblue" d="M279.86,-117.98C232.46,-107.37 151.49,-89.26 99.92,-77.72"/>
<polygon fill="midnightblue" stroke="midnightblue" points="100.54,-74.28 90.01,-75.51 99.01,-81.11 100.54,-74.28"/>
</g>
<!-- Node9 -->
<g id="node9" class="node">
<title>Node9</title>
<g id="a_node9"><a xlink:title=" ">
<polygon fill="none" stroke="#bfbfbf" points="698.97,-56.5 698.97,-75.5 760.97,-75.5 760.97,-56.5 698.97,-56.5"/>
<text text-anchor="middle" x="729.97" y="-63.5" font-family="Helvetica,sans-Serif" font-size="10.00">type_traits</text>
</a>
</g>
</g>
<!-- Node7&#45;&gt;Node9 -->
<g id="edge8" class="edge">
<title>Node7&#45;&gt;Node9</title>
<path fill="none" stroke="midnightblue" d="M352.18,-117.99C361.48,-115.85 371.58,-113.68 380.97,-112 491.2,-92.26 622.5,-77.72 688.19,-71.05"/>
<polygon fill="midnightblue" stroke="midnightblue" points="688.93,-74.49 698.53,-70.01 688.23,-67.53 688.93,-74.49"/>
</g>
<!-- Node7&#45;&gt;Node10 -->
<g id="edge9" class="edge">
<title>Node7&#45;&gt;Node10</title>
<path fill="none" stroke="midnightblue" d="M333.45,-117.98C351.25,-108.17 380.71,-91.93 401.61,-80.42"/>
<polygon fill="midnightblue" stroke="midnightblue" points="403.46,-83.4 410.53,-75.51 400.08,-77.27 403.46,-83.4"/>
</g>
<!-- Node13&#45;&gt;Node5 -->
<g id="edge13" class="edge">
<title>Node13&#45;&gt;Node5</title>
<path fill="none" stroke="midnightblue" d="M325.4,-251.73C328.07,-242.09 332.44,-226.3 335.88,-213.91"/>
<polygon fill="midnightblue" stroke="midnightblue" points="339.29,-214.7 338.58,-204.13 332.54,-212.83 339.29,-214.7"/>
</g>
<!-- Node13&#45;&gt;Node14 -->
<g id="edge14" class="edge">
<title>Node13&#45;&gt;Node14</title>
<path fill="none" stroke="midnightblue" d="M293.09,-251.87C258.31,-241.82 200.04,-224.99 156.21,-212.32"/>
<polygon fill="midnightblue" stroke="midnightblue" points="157.11,-208.94 146.53,-209.53 155.17,-215.67 157.11,-208.94"/>
</g>
<!-- Node14&#45;&gt;Node8 -->
<g id="edge15" class="edge">
<title>Node14&#45;&gt;Node8</title>
<path fill="none" stroke="midnightblue" d="M92.87,-179.48C84.52,-156.51 67.93,-110.89 58.65,-85.37"/>
<polygon fill="midnightblue" stroke="midnightblue" points="61.88,-83.99 55.17,-75.79 55.3,-86.38 61.88,-83.99"/>
</g>
<!-- Node14&#45;&gt;Node9 -->
<g id="edge16" class="edge">
<title>Node14&#45;&gt;Node9</title>
<path fill="none" stroke="midnightblue" d="M146.65,-191.76C203.69,-188.14 299.97,-177.03 374.97,-143 395.14,-133.85 393.64,-120.76 413.97,-112 506.35,-72.23 626.58,-66.23 688.73,-66.11"/>
<polygon fill="midnightblue" stroke="midnightblue" points="688.91,-69.61 698.92,-66.14 688.93,-62.61 688.91,-69.61"/>
</g>
<!-- Node15 -->
<g id="node15" class="node">
<title>Node15</title>
<g id="a_node15"><a xlink:href="intrusive__ptr__impl_8hpp.html" target="_top" xlink:title=" ">
<polygon fill="none" stroke="black" points="90.97,-112.5 90.97,-142.5 204.97,-142.5 204.97,-112.5 90.97,-112.5"/>
<text text-anchor="start" x="98.97" y="-130.5" font-family="Helvetica,sans-Serif" font-size="10.00">yaclib/util/detail</text>
<text text-anchor="middle" x="147.97" y="-119.5" font-family="Helvetica,sans-Serif" font-size="10.00">/intrusive_ptr_impl.hpp</text>
</a>
</g>
</g>
<!-- Node14&#45;&gt;Node15 -->
<g id="edge17" class="edge">
<title>Node14&#45;&gt;Node15</title>
<path fill="none" stroke="midnightblue" d="M108.82,-179.4C115.31,-170.96 123.69,-160.07 131.03,-150.52"/>
<polygon fill="midnightblue" stroke="midnightblue" points="133.82,-152.64 137.15,-142.58 128.27,-148.37 133.82,-152.64"/>
</g>
<!-- Node16 -->
<g id="node16" class="node">
<title>Node16</title>
<g id="a_node16"><a xlink:href="log_8hpp.html" target="_top" xlink:title=" ">
<polygon fill="none" stroke="black" points="114.47,-56.5 114.47,-75.5 189.47,-75.5 189.47,-56.5 114.47,-56.5"/>
<text text-anchor="middle" x="151.97" y="-63.5" font-family="Helvetica,sans-Serif" font-size="10.00">yaclib/log.hpp</text>
</a>
</g>
</g>
<!-- Node15&#45;&gt;Node16 -->
<g id="edge18" class="edge">
<title>Node15&#45;&gt;Node16</title>
<path fill="none" stroke="midnightblue" d="M148.92,-112.4C149.45,-104.47 150.13,-94.46 150.71,-85.86"/>
<polygon fill="midnightblue" stroke="midnightblue" points="154.21,-85.87 151.39,-75.66 147.23,-85.4 154.21,-85.87"/>
</g>
<!-- Node17 -->
<g id="node17" class="node">
<title>Node17</title>
<g id="a_node17"><a xlink:title=" ">
<polygon fill="none" stroke="#bfbfbf" points="118.97,-0.5 118.97,-19.5 184.97,-19.5 184.97,-0.5 118.97,-0.5"/>
<text text-anchor="middle" x="151.97" y="-7.5" font-family="Helvetica,sans-Serif" font-size="10.00">string_view</text>
</a>
</g>
</g>
<!-- Node16&#45;&gt;Node17 -->
<g id="edge19" class="edge">
<title>Node16&#45;&gt;Node17</title>
<path fill="none" stroke="midnightblue" d="M151.97,-56.08C151.97,-49.01 151.97,-38.86 151.97,-29.99"/>
<polygon fill="midnightblue" stroke="midnightblue" points="155.47,-29.75 151.97,-19.75 148.47,-29.75 155.47,-29.75"/>
</g>
<!-- Node19&#45;&gt;Node20 -->
<g id="edge26" class="edge">
<title>Node19&#45;&gt;Node20</title>
<path fill="none" stroke="midnightblue" d="M639.59,-318.73C656.4,-307.92 685.2,-289.38 705.12,-276.57"/>
<polygon fill="midnightblue" stroke="midnightblue" points="707.05,-279.48 713.57,-271.13 703.26,-273.6 707.05,-279.48"/>
</g>
<!-- Node23 -->
<g id="node23" class="node">
<title>Node23</title>
<g id="a_node23"><a xlink:title=" ">
<polygon fill="none" stroke="#bfbfbf" points="562.97,-185 562.97,-204 620.97,-204 620.97,-185 562.97,-185"/>
<text text-anchor="middle" x="591.97" y="-192" font-family="Helvetica,sans-Serif" font-size="10.00">exception</text>
</a>
</g>
</g>
<!-- Node19&#45;&gt;Node23 -->
<g id="edge33" class="edge">
<title>Node19&#45;&gt;Node23</title>
<path fill="none" stroke="midnightblue" d="M626.18,-318.73C626.3,-303.57 625.53,-271.64 617.97,-246 614.54,-234.35 608.39,-222.21 602.93,-212.76"/>
<polygon fill="midnightblue" stroke="midnightblue" points="605.81,-210.76 597.64,-204.01 599.82,-214.38 605.81,-210.76"/>
</g>
<!-- Node24 -->
<g id="node24" class="node">
<title>Node24</title>
<g id="a_node24"><a xlink:title=" ">
<polygon fill="none" stroke="#bfbfbf" points="562.97,-252 562.97,-271 608.97,-271 608.97,-252 562.97,-252"/>
<text text-anchor="middle" x="585.97" y="-259" font-family="Helvetica,sans-Serif" font-size="10.00">variant</text>
</a>
</g>
</g>
<!-- Node19&#45;&gt;Node24 -->
<g id="edge34" class="edge">
<title>Node19&#45;&gt;Node24</title>
<path fill="none" stroke="midnightblue" d="M620.58,-318.73C614.46,-308.79 604.33,-292.34 596.61,-279.79"/>
<polygon fill="midnightblue" stroke="midnightblue" points="599.5,-277.81 591.28,-271.13 593.54,-281.48 599.5,-277.81"/>
</g>
<!-- Node20&#45;&gt;Node9 -->
<g id="edge32" class="edge">
<title>Node20&#45;&gt;Node9</title>
<path fill="none" stroke="midnightblue" d="M745.71,-251.93C761.3,-243.66 782.42,-229.51 791.97,-210 814.18,-164.63 771.03,-109.38 746.03,-82.79"/>
<polygon fill="midnightblue" stroke="midnightblue" points="748.43,-80.24 738.95,-75.5 743.41,-85.12 748.43,-80.24"/>
</g>
<!-- Node21 -->
<g id="node21" class="node">
<title>Node21</title>
<g id="a_node21"><a xlink:href="fwd_8hpp.html" target="_top" xlink:title=" ">
<polygon fill="none" stroke="black" points="616.97,-118 616.97,-137 694.97,-137 694.97,-118 616.97,-118"/>
<text text-anchor="middle" x="655.97" y="-125" font-family="Helvetica,sans-Serif" font-size="10.00">yaclib/fwd.hpp</text>
</a>
</g>
</g>
<!-- Node20&#45;&gt;Node21 -->
<g id="edge27" class="edge">
<title>Node20&#45;&gt;Node21</title>
<path fill="none" stroke="midnightblue" d="M711.92,-252C698.08,-243.33 678.21,-228.53 667.97,-210 657.3,-190.67 655.14,-165.02 655.1,-147.7"/>
<polygon fill="midnightblue" stroke="midnightblue" points="658.61,-147.29 655.34,-137.21 651.61,-147.13 658.61,-147.29"/>
</g>
<!-- Node22 -->
<g id="node22" class="node">
<title>Node22</title>
<g id="a_node22"><a xlink:href="type__traits__impl_8hpp.html" target="_top" xlink:title=" ">
<polygon fill="none" stroke="black" points="676.97,-179.5 676.97,-209.5 782.97,-209.5 782.97,-179.5 676.97,-179.5"/>
<text text-anchor="start" x="684.97" y="-197.5" font-family="Helvetica,sans-Serif" font-size="10.00">yaclib/util/detail</text>
<text text-anchor="middle" x="729.97" y="-186.5" font-family="Helvetica,sans-Serif" font-size="10.00">/type_traits_impl.hpp</text>
</a>
</g>
</g>
<!-- Node20&#45;&gt;Node22 -->
<g id="edge28" class="edge">
<title>Node20&#45;&gt;Node22</title>
<path fill="none" stroke="midnightblue" d="M727.38,-251.73C727.76,-243.54 728.34,-230.92 728.86,-219.71"/>
<polygon fill="midnightblue" stroke="midnightblue" points="732.36,-219.74 729.32,-209.59 725.37,-219.42 732.36,-219.74"/>
</g>
<!-- Node20&#45;&gt;Node23 -->
<g id="edge31" class="edge">
<title>Node20&#45;&gt;Node23</title>
<path fill="none" stroke="midnightblue" d="M709.05,-251.87C686.05,-240.8 645.94,-221.49 619.18,-208.6"/>
<polygon fill="midnightblue" stroke="midnightblue" points="620.5,-205.35 609.97,-204.17 617.47,-211.66 620.5,-205.35"/>
</g>
<!-- Node22&#45;&gt;Node9 -->
<g id="edge30" class="edge">
<title>Node22&#45;&gt;Node9</title>
<path fill="none" stroke="midnightblue" d="M729.97,-179.48C729.97,-156.72 729.97,-111.7 729.97,-86.06"/>
<polygon fill="midnightblue" stroke="midnightblue" points="733.47,-85.79 729.97,-75.79 726.47,-85.79 733.47,-85.79"/>
</g>
<!-- Node22&#45;&gt;Node21 -->
<g id="edge29" class="edge">
<title>Node22&#45;&gt;Node21</title>
<path fill="none" stroke="midnightblue" d="M713.92,-179.4C702.04,-168.96 685.86,-154.75 673.62,-144"/>
<polygon fill="midnightblue" stroke="midnightblue" points="675.69,-141.16 665.87,-137.19 671.07,-146.42 675.69,-141.16"/>
</g>
<!-- Node25&#45;&gt;Node9 -->
<g id="edge38" class="edge">
<title>Node25&#45;&gt;Node9</title>
<path fill="none" stroke="midnightblue" d="M830.09,-380.38C836.7,-356.38 848.97,-306 848.97,-262.5 848.97,-262.5 848.97,-262.5 848.97,-193.5 848.97,-139.94 791.68,-99.81 756.6,-80.25"/>
<polygon fill="midnightblue" stroke="midnightblue" points="758.25,-77.16 747.79,-75.51 754.94,-83.33 758.25,-77.16"/>
</g>
</g>
</svg>
