<?xml version="1.0" encoding="UTF-8" standalone="no"?>
<!DOCTYPE svg PUBLIC "-//W3C//DTD SVG 1.1//EN"
 "http://www.w3.org/Graphics/SVG/1.1/DTD/svg11.dtd">
<!-- Generated by graphviz version 3.0.0 (20221109.1736)
 -->
<!-- Title: include/yaclib/coro/detail/promise_type.hpp Pages: 1 -->
<svg width="541pt" height="173pt"
 viewBox="0.00 0.00 541.00 173.00" xmlns="http://www.w3.org/2000/svg" xmlns:xlink="http://www.w3.org/1999/xlink">
<g id="graph0" class="graph" transform="scale(1 1) rotate(0) translate(4 169)">
<title>include/yaclib/coro/detail/promise_type.hpp</title>
<!-- Node1 -->
<g id="node1" class="node">
<title>Node1</title>
<g id="a_node1"><a xlink:title=" ">
<polygon fill="#bfbfbf" stroke="black" points="193.5,-134.5 193.5,-164.5 315.5,-164.5 315.5,-134.5 193.5,-134.5"/>
<text text-anchor="start" x="201.5" y="-152.5" font-family="Helvetica,sans-Serif" font-size="10.00">include/yaclib/coro</text>
<text text-anchor="middle" x="254.5" y="-141.5" font-family="Helvetica,sans-Serif" font-size="10.00">/detail/promise_type.hpp</text>
</a>
</g>
</g>
<!-- Node2 -->
<g id="node2" class="node">
<title>Node2</title>
<g id="a_node2"><a xlink:href="on__awaiter_8hpp.html" target="_top" xlink:title=" ">
<polygon fill="none" stroke="black" points="77,-67.5 77,-97.5 188,-97.5 188,-67.5 77,-67.5"/>
<text text-anchor="start" x="85" y="-85.5" font-family="Helvetica,sans-Serif" font-size="10.00">include/yaclib/coro</text>
<text text-anchor="middle" x="132.5" y="-74.5" font-family="Helvetica,sans-Serif" font-size="10.00">/detail/on_awaiter.hpp</text>
</a>
</g>
</g>
<!-- Node1&#45;&gt;Node2 -->
<g id="edge1" class="edge">
<title>Node1&#45;&gt;Node2</title>
<path fill="none" stroke="midnightblue" d="M218.98,-129.57C199.79,-119.35 176.5,-106.94 158.92,-97.58"/>
<polygon fill="midnightblue" stroke="midnightblue" points="217.56,-132.78 228.03,-134.4 220.85,-126.6 217.56,-132.78"/>
</g>
<!-- Node3 -->
<g id="node3" class="node">
<title>Node3</title>
<g id="a_node3"><a xlink:href="coro_2mutex_8hpp.html" target="_top" xlink:title=" ">
<polygon fill="none" stroke="black" points="0,-0.5 0,-30.5 97,-30.5 97,-0.5 0,-0.5"/>
<text text-anchor="start" x="8" y="-18.5" font-family="Helvetica,sans-Serif" font-size="10.00">include/yaclib/coro</text>
<text text-anchor="middle" x="48.5" y="-7.5" font-family="Helvetica,sans-Serif" font-size="10.00">/mutex.hpp</text>
</a>
</g>
</g>
<!-- Node1&#45;&gt;Node3 -->
<g id="edge5" class="edge">
<title>Node1&#45;&gt;Node3</title>
<path fill="none" stroke="midnightblue" d="M183.15,-146.14C144.29,-141.11 98.21,-128.45 68.5,-98 50.8,-79.86 47.92,-48.73 47.89,-30.64"/>
<polygon fill="midnightblue" stroke="midnightblue" points="183.04,-149.65 193.37,-147.31 183.84,-142.7 183.04,-149.65"/>
</g>
<!-- Node5 -->
<g id="node5" class="node">
<title>Node5</title>
<g id="a_node5"><a xlink:href="coro_2future_8hpp.html" target="_top" xlink:title=" ">
<polygon fill="none" stroke="black" points="206,-67.5 206,-97.5 303,-97.5 303,-67.5 206,-67.5"/>
<text text-anchor="start" x="214" y="-85.5" font-family="Helvetica,sans-Serif" font-size="10.00">include/yaclib/coro</text>
<text text-anchor="middle" x="254.5" y="-74.5" font-family="Helvetica,sans-Serif" font-size="10.00">/future.hpp</text>
</a>
</g>
</g>
<!-- Node1&#45;&gt;Node5 -->
<g id="edge4" class="edge">
<title>Node1&#45;&gt;Node5</title>
<path fill="none" stroke="midnightblue" d="M254.5,-124.11C254.5,-115.15 254.5,-105.32 254.5,-97.58"/>
<polygon fill="midnightblue" stroke="midnightblue" points="251,-124.4 254.5,-134.4 258,-124.4 251,-124.4"/>
</g>
<!-- Node6 -->
<g id="node6" class="node">
<title>Node6</title>
<g id="a_node6"><a xlink:href="coro_2shared__mutex_8hpp.html" target="_top" xlink:title=" ">
<polygon fill="none" stroke="black" points="320.5,-67.5 320.5,-97.5 418.5,-97.5 418.5,-67.5 320.5,-67.5"/>
<text text-anchor="start" x="328.5" y="-85.5" font-family="Helvetica,sans-Serif" font-size="10.00">include/yaclib/coro</text>
<text text-anchor="middle" x="369.5" y="-74.5" font-family="Helvetica,sans-Serif" font-size="10.00">/shared_mutex.hpp</text>
</a>
</g>
</g>
<!-- Node1&#45;&gt;Node6 -->
<g id="edge6" class="edge">
<title>Node1&#45;&gt;Node6</title>
<path fill="none" stroke="midnightblue" d="M288.48,-129.3C306.47,-119.12 328.18,-106.85 344.6,-97.58"/>
<polygon fill="midnightblue" stroke="midnightblue" points="286.44,-126.43 279.45,-134.4 289.88,-132.52 286.44,-126.43"/>
</g>
<!-- Node7 -->
<g id="node7" class="node">
<title>Node7</title>
<g id="a_node7"><a xlink:href="coro_2task_8hpp.html" target="_top" xlink:title=" ">
<polygon fill="none" stroke="black" points="436,-67.5 436,-97.5 533,-97.5 533,-67.5 436,-67.5"/>
<text text-anchor="start" x="444" y="-85.5" font-family="Helvetica,sans-Serif" font-size="10.00">include/yaclib/coro</text>
<text text-anchor="middle" x="484.5" y="-74.5" font-family="Helvetica,sans-Serif" font-size="10.00">/task.hpp</text>
</a>
</g>
</g>
<!-- Node1&#45;&gt;Node7 -->
<g id="edge7" class="edge">
<title>Node1&#45;&gt;Node7</title>
<path fill="none" stroke="midnightblue" d="M314,-131.69C351.83,-120.99 400.2,-107.32 435.76,-97.28"/>
<polygon fill="midnightblue" stroke="midnightblue" points="312.79,-128.39 304.12,-134.48 314.7,-135.12 312.79,-128.39"/>
</g>
<!-- Node2&#45;&gt;Node3 -->
<g id="edge2" class="edge">
<title>Node2&#45;&gt;Node3</title>
<path fill="none" stroke="midnightblue" d="M106.22,-61.17C93.38,-51.23 78.24,-39.51 66.69,-30.58"/>
<polygon fill="midnightblue" stroke="midnightblue" points="104.22,-64.04 114.27,-67.4 108.51,-58.51 104.22,-64.04"/>
</g>
<!-- Node4 -->
<g id="node4" class="node">
<title>Node4</title>
<g id="a_node4"><a xlink:href="on_8hpp.html" target="_top" xlink:title=" ">
<polygon fill="none" stroke="black" points="115,-0.5 115,-30.5 212,-30.5 212,-0.5 115,-0.5"/>
<text text-anchor="start" x="123" y="-18.5" font-family="Helvetica,sans-Serif" font-size="10.00">include/yaclib/coro</text>
<text text-anchor="middle" x="163.5" y="-7.5" font-family="Helvetica,sans-Serif" font-size="10.00">/on.hpp</text>
</a>
</g>
</g>
<!-- Node2&#45;&gt;Node4 -->
<g id="edge3" class="edge">
<title>Node2&#45;&gt;Node4</title>
<path fill="none" stroke="midnightblue" d="M143.57,-58.28C147.99,-49.02 152.93,-38.66 156.79,-30.58"/>
<polygon fill="midnightblue" stroke="midnightblue" points="140.37,-56.86 139.23,-67.4 146.69,-59.88 140.37,-56.86"/>
</g>
</g>
</svg>
