<?xml version="1.0" encoding="UTF-8" standalone="no"?>
<!DOCTYPE svg PUBLIC "-//W3C//DTD SVG 1.1//EN"
 "http://www.w3.org/Graphics/SVG/1.1/DTD/svg11.dtd">
<!-- Generated by graphviz version 9.0.0 (20230911.1827)
 -->
<!-- Title: include/yaclib/coro/detail/promise_type.hpp Pages: 1 -->
<!--zoomable 603 -->

<svg id="main" version="1.1" xmlns="http://www.w3.org/2000/svg" xmlns:xlink="http://www.w3.org/1999/xlink" xml:space="preserve" onload="init(evt)">
<style type="text/css"><![CDATA[
.node, .edge {opacity: 0.7;}
.node.selected, .edge.selected {opacity: 1;}
.edge:hover path { stroke: red; }
.edge:hover polygon { stroke: red; fill: red; }
]]></style>

<defs>
  <circle id="rim" cx="0" cy="0" r="7"/>
  <circle id="rim2" cx="0" cy="0" r="3.5"/>
  <g id="zoomPlus">
    <use xlink:href="#rim" fill="#404040"><set attributeName="fill" to="#808080" begin="zoomplus.mouseover" end="zoomplus.mouseout"/></use>
    <path d="M-4,0h8M0,-4v8" fill="none" stroke="white" stroke-width="1.5" pointer-events="none"/>
  </g>
  <g id="zoomMin">
    <use xlink:href="#rim" fill="#404040"><set attributeName="fill" to="#808080" begin="zoomminus.mouseover" end="zoomminus.mouseout"/></use>
    <path d="M-4,0h8" fill="none" stroke="white" stroke-width="1.5" pointer-events="none"/>
  </g>
  <g id="arrowUp" transform="translate(30 24)">
    <use xlink:href="#rim"/>
    <path pointer-events="none" fill="none" stroke="white" stroke-width="1.5" d="M0,-3.0v7 M-2.5,-0.5L0,-3.0L2.5,-0.5"/>
  </g>
  <g id="arrowRight" transform="rotate(90) translate(36 -43)">
    <use xlink:href="#rim"/>
    <path pointer-events="none" fill="none" stroke="white" stroke-width="1.5" d="M0,-3.0v7 M-2.5,-0.5L0,-3.0L2.5,-0.5"/>
  </g>
  <g id="arrowDown" transform="rotate(180) translate(-30 -48)">
    <use xlink:href="#rim"/>
    <path pointer-events="none" fill="none" stroke="white" stroke-width="1.5" d="M0,-3.0v7 M-2.5,-0.5L0,-3.0L2.5,-0.5"/>
  </g>
  <g id="arrowLeft" transform="rotate(270) translate(-36 17)">
    <use xlink:href="#rim"/>
    <path pointer-events="none" fill="none" stroke="white" stroke-width="1.5" d="M0,-3.0v7 M-2.5,-0.5L0,-3.0L2.5,-0.5"/>
  </g>
  <g id="resetDef">
    <use xlink:href="#rim2" fill="#404040"><set attributeName="fill" to="#808080" begin="reset.mouseover" end="reset.mouseout"/></use>
  </g>
</defs>
<script type="application/ecmascript">
var viewWidth = 1284;
var viewHeight = 603;
var sectionId = 'dynsection-0';
</script>
<script type="application/ecmascript" xlink:href="svg.min.js"/>
<svg id="graph" class="graph">
<g id="viewport">
<title>include/yaclib/coro/detail/promise_type.hpp</title>
<!-- Node1 -->
<g id="Node000001" class="node">
<title>Node1</title>
<g id="a_Node000001"><a xlink:title=" ">
<polygon fill="#999999" stroke="#666666" points="740.12,-595.25 619.12,-595.25 619.12,-564.75 740.12,-564.75 740.12,-595.25"/>
<text text-anchor="start" x="627.12" y="-581.75" font-family="Helvetica,sans-Serif" font-size="10.00">include/yaclib/coro</text>
<text text-anchor="middle" x="679.62" y="-570.5" font-family="Helvetica,sans-Serif" font-size="10.00">/detail/promise_type.hpp</text>
</a>
</g>
</g>
<!-- Node2 -->
<g id="Node000002" class="node">
<title>Node2</title>
<g id="a_Node000002"><a xlink:href="unique__core_8hpp.html" target="_top" xlink:title=" ">
<polygon fill="white" stroke="#666666" points="688.38,-528.75 598.88,-528.75 598.88,-498.25 688.38,-498.25 688.38,-528.75"/>
<text text-anchor="start" x="606.88" y="-515.25" font-family="Helvetica,sans-Serif" font-size="10.00">yaclib/algo/detail</text>
<text text-anchor="middle" x="643.62" y="-504" font-family="Helvetica,sans-Serif" font-size="10.00">/unique_core.hpp</text>
</a>
</g>
</g>
<!-- Node1&#45;&gt;Node2 -->
<g id="edge1_Node000001_Node000002" class="edge">
<title>Node1&#45;&gt;Node2</title>
<g id="a_edge1_Node000001_Node000002"><a xlink:title=" ">
<path fill="none" stroke="#63b8ff" d="M671.46,-564.36C667.27,-556.86 662.05,-547.52 657.28,-538.96"/>
<polygon fill="#63b8ff" stroke="#63b8ff" points="660.43,-537.43 652.5,-530.4 654.32,-540.84 660.43,-537.43"/>
</a>
</g>
</g>
<!-- Node17 -->
<g id="Node000017" class="node">
<title>Node17</title>
<g id="a_Node000017"><a xlink:href="intrusive__ptr_8hpp.html" target="_top" xlink:title=" ">
<polygon fill="white" stroke="#666666" points="385.75,-207.5 289.5,-207.5 289.5,-177 385.75,-177 385.75,-207.5"/>
<text text-anchor="start" x="297.5" y="-194" font-family="Helvetica,sans-Serif" font-size="10.00">yaclib/util/intrusive</text>
<text text-anchor="middle" x="337.62" y="-182.75" font-family="Helvetica,sans-Serif" font-size="10.00">_ptr.hpp</text>
</a>
</g>
</g>
<!-- Node1&#45;&gt;Node17 -->
<g id="edge50_Node000001_Node000017" class="edge">
<title>Node1&#45;&gt;Node17</title>
<g id="a_edge50_Node000001_Node000017"><a xlink:title=" ">
<path fill="none" stroke="#63b8ff" d="M637.69,-564.38C620.43,-556.37 601.7,-544.75 589.62,-528.75 567.42,-499.32 570.62,-484.87 570.62,-448 570.62,-448 570.62,-448 570.62,-313 570.62,-235.13 466.4,-207.85 397.36,-198.33"/>
<polygon fill="#63b8ff" stroke="#63b8ff" points="398.05,-194.89 387.69,-197.09 397.16,-201.83 398.05,-194.89"/>
</a>
</g>
</g>
<!-- Node23 -->
<g id="Node000023" class="node">
<title>Node23</title>
<g id="a_Node000023"><a xlink:href="cast_8hpp.html" target="_top" xlink:title=" ">
<polygon fill="white" stroke="#666666" points="747.75,-390.12 651.5,-390.12 651.5,-370.88 747.75,-370.88 747.75,-390.12"/>
<text text-anchor="middle" x="699.62" y="-376.62" font-family="Helvetica,sans-Serif" font-size="10.00">yaclib/util/cast.hpp</text>
</a>
</g>
</g>
<!-- Node1&#45;&gt;Node23 -->
<g id="edge47_Node000001_Node000023" class="edge">
<title>Node1&#45;&gt;Node23</title>
<g id="a_edge47_Node000001_Node000023"><a xlink:title=" ">
<path fill="none" stroke="#63b8ff" d="M686.31,-564.4C690.44,-554.56 695.38,-541.15 697.62,-528.75 705.71,-484.02 703.53,-430.41 701.44,-401.82"/>
<polygon fill="#63b8ff" stroke="#63b8ff" points="704.95,-401.75 700.65,-392.07 697.97,-402.32 704.95,-401.75"/>
</a>
</g>
</g>
<!-- Node28 -->
<g id="Node000028" class="node">
<title>Node28</title>
<g id="a_Node000028"><a xlink:title=" ">
<polygon fill="#e0e0e0" stroke="#999999" points="1090.25,-135.38 1033,-135.38 1033,-116.12 1090.25,-116.12 1090.25,-135.38"/>
<text text-anchor="middle" x="1061.62" y="-121.88" font-family="Helvetica,sans-Serif" font-size="10.00">exception</text>
</a>
</g>
</g>
<!-- Node1&#45;&gt;Node28 -->
<g id="edge51_Node000001_Node000028" class="edge">
<title>Node1&#45;&gt;Node28</title>
<g id="a_edge51_Node000001_Node000028"><a xlink:title=" ">
<path fill="none" stroke="#63b8ff" d="M740.42,-574.66C866.46,-563.99 1144.62,-531.03 1144.62,-448 1144.62,-448 1144.62,-448 1144.62,-252.12 1144.62,-217.68 1144.4,-205.87 1125.62,-177 1116.24,-162.56 1101.28,-150.48 1088.18,-141.78"/>
<polygon fill="#63b8ff" stroke="#63b8ff" points="1090.26,-138.96 1079.93,-136.61 1086.54,-144.89 1090.26,-138.96"/>
</a>
</g>
</g>
<!-- Node30 -->
<g id="Node000030" class="node">
<title>Node30</title>
<g id="a_Node000030"><a xlink:href="coro_8hpp.html" target="_top" xlink:title=" ">
<polygon fill="white" stroke="#666666" points="325.75,-456.62 223.5,-456.62 223.5,-437.38 325.75,-437.38 325.75,-456.62"/>
<text text-anchor="middle" x="274.62" y="-443.12" font-family="Helvetica,sans-Serif" font-size="10.00">yaclib/coro/coro.hpp</text>
</a>
</g>
</g>
<!-- Node1&#45;&gt;Node30 -->
<g id="edge45_Node000001_Node000030" class="edge">
<title>Node1&#45;&gt;Node30</title>
<g id="a_edge45_Node000001_Node000030"><a xlink:title=" ">
<path fill="none" stroke="#63b8ff" d="M634.35,-564.35C554.24,-538.44 388.91,-484.96 313.56,-460.6"/>
<polygon fill="#63b8ff" stroke="#63b8ff" points="314.73,-457.29 304.14,-457.55 312.57,-463.95 314.73,-457.29"/>
</a>
</g>
</g>
<!-- Node31 -->
<g id="Node000031" class="node">
<title>Node31</title>
<g id="a_Node000031"><a xlink:href="unique__counter_8hpp.html" target="_top" xlink:title=" ">
<polygon fill="white" stroke="#666666" points="1276.12,-528.75 1173.12,-528.75 1173.12,-498.25 1276.12,-498.25 1276.12,-528.75"/>
<text text-anchor="start" x="1181.12" y="-515.25" font-family="Helvetica,sans-Serif" font-size="10.00">yaclib/util/detail</text>
<text text-anchor="middle" x="1224.62" y="-504" font-family="Helvetica,sans-Serif" font-size="10.00">/unique_counter.hpp</text>
</a>
</g>
</g>
<!-- Node1&#45;&gt;Node31 -->
<g id="edge48_Node000001_Node000031" class="edge">
<title>Node1&#45;&gt;Node31</title>
<g id="a_edge48_Node000001_Node000031"><a xlink:title=" ">
<path fill="none" stroke="#63b8ff" d="M740.39,-574.74C831.61,-567.87 1009.18,-552.65 1158.62,-528.75 1159.64,-528.59 1160.66,-528.42 1161.69,-528.25"/>
<polygon fill="#63b8ff" stroke="#63b8ff" points="1162.14,-531.72 1171.35,-526.5 1160.89,-524.83 1162.14,-531.72"/>
</a>
</g>
</g>
<!-- Node3 -->
<g id="Node000003" class="node">
<title>Node3</title>
<g id="a_Node000003"><a xlink:href="result__core_8hpp.html" target="_top" xlink:title=" ">
<polygon fill="white" stroke="#666666" points="687.62,-462.25 599.62,-462.25 599.62,-431.75 687.62,-431.75 687.62,-462.25"/>
<text text-anchor="start" x="607.62" y="-448.75" font-family="Helvetica,sans-Serif" font-size="10.00">yaclib/algo/detail</text>
<text text-anchor="middle" x="643.62" y="-437.5" font-family="Helvetica,sans-Serif" font-size="10.00">/result_core.hpp</text>
</a>
</g>
</g>
<!-- Node2&#45;&gt;Node3 -->
<g id="edge2_Node000002_Node000003" class="edge">
<title>Node2&#45;&gt;Node3</title>
<g id="a_edge2_Node000002_Node000003"><a xlink:title=" ">
<path fill="none" stroke="#63b8ff" d="M643.62,-497.86C643.62,-490.77 643.62,-482.04 643.62,-473.88"/>
<polygon fill="#63b8ff" stroke="#63b8ff" points="647.13,-474.09 643.63,-464.09 640.13,-474.09 647.13,-474.09"/>
</a>
</g>
</g>
<!-- Node4 -->
<g id="Node000004" class="node">
<title>Node4</title>
<g id="a_Node000004"><a xlink:href="base__core_8hpp.html" target="_top" xlink:title=" ">
<polygon fill="white" stroke="#666666" points="412.62,-395.75 324.62,-395.75 324.62,-365.25 412.62,-365.25 412.62,-395.75"/>
<text text-anchor="start" x="332.62" y="-382.25" font-family="Helvetica,sans-Serif" font-size="10.00">yaclib/algo/detail</text>
<text text-anchor="middle" x="368.62" y="-371" font-family="Helvetica,sans-Serif" font-size="10.00">/base_core.hpp</text>
</a>
</g>
</g>
<!-- Node3&#45;&gt;Node4 -->
<g id="edge3_Node000003_Node000004" class="edge">
<title>Node3&#45;&gt;Node4</title>
<g id="a_edge3_Node000003_Node000004"><a xlink:title=" ">
<path fill="none" stroke="#63b8ff" d="M599.14,-435.57C551.41,-424.37 475.54,-406.58 423.98,-394.48"/>
<polygon fill="#63b8ff" stroke="#63b8ff" points="425.06,-391.14 414.52,-392.27 423.46,-397.96 425.06,-391.14"/>
</a>
</g>
</g>
<!-- Node15 -->
<g id="Node000015" class="node">
<title>Node15</title>
<g id="a_Node000015"><a xlink:title=" ">
<polygon fill="#e0e0e0" stroke="#999999" points="728.88,-74.5 690.38,-74.5 690.38,-55.25 728.88,-55.25 728.88,-74.5"/>
<text text-anchor="middle" x="709.62" y="-61" font-family="Helvetica,sans-Serif" font-size="10.00">utility</text>
</a>
</g>
</g>
<!-- Node3&#45;&gt;Node15 -->
<g id="edge44_Node000003_Node000015" class="edge">
<title>Node3&#45;&gt;Node15</title>
<g id="a_edge44_Node000003_Node000015"><a xlink:title=" ">
<path fill="none" stroke="#63b8ff" d="M688.04,-438.4C712.74,-431.65 741.48,-419.07 756.62,-395.75 764.01,-384.38 757.68,-378.76 756.62,-365.25 752.33,-310.15 723.42,-143.83 713.2,-85.97"/>
<polygon fill="#63b8ff" stroke="#63b8ff" points="716.68,-85.53 711.48,-76.29 709.78,-86.75 716.68,-85.53"/>
</a>
</g>
</g>
<!-- Node3&#45;&gt;Node23 -->
<g id="edge28_Node000003_Node000023" class="edge">
<title>Node3&#45;&gt;Node23</title>
<g id="a_edge28_Node000003_Node000023"><a xlink:title=" ">
<path fill="none" stroke="#63b8ff" d="M656.33,-431.36C664.73,-421.69 675.78,-408.96 684.62,-398.79"/>
<polygon fill="#63b8ff" stroke="#63b8ff" points="687.06,-401.31 690.97,-391.47 681.77,-396.72 687.06,-401.31"/>
</a>
</g>
</g>
<!-- Node25 -->
<g id="Node000025" class="node">
<title>Node25</title>
<g id="a_Node000025"><a xlink:href="result_8hpp.html" target="_top" xlink:title=" ">
<polygon fill="white" stroke="#666666" points="1093.38,-262.75 991.88,-262.75 991.88,-243.5 1093.38,-243.5 1093.38,-262.75"/>
<text text-anchor="middle" x="1042.62" y="-249.25" font-family="Helvetica,sans-Serif" font-size="10.00">yaclib/util/result.hpp</text>
</a>
</g>
</g>
<!-- Node3&#45;&gt;Node25 -->
<g id="edge31_Node000003_Node000025" class="edge">
<title>Node3&#45;&gt;Node25</title>
<g id="a_edge31_Node000003_Node000025"><a xlink:title=" ">
<path fill="none" stroke="#63b8ff" d="M640.91,-431.48C636.13,-400.75 630.25,-329.45 671.62,-298.75 726.61,-257.95 909.69,-271.25 977.62,-262.75 978.47,-262.64 979.33,-262.54 980.18,-262.43"/>
<polygon fill="#63b8ff" stroke="#63b8ff" points="980.56,-265.91 990.04,-261.17 979.68,-258.97 980.56,-265.91"/>
</a>
</g>
</g>
<!-- Node5 -->
<g id="Node000005" class="node">
<title>Node5</title>
<g id="a_Node000005"><a xlink:href="inline__core_8hpp.html" target="_top" xlink:title=" ">
<polygon fill="white" stroke="#666666" points="204.62,-329.25 116.62,-329.25 116.62,-298.75 204.62,-298.75 204.62,-329.25"/>
<text text-anchor="start" x="124.62" y="-315.75" font-family="Helvetica,sans-Serif" font-size="10.00">yaclib/algo/detail</text>
<text text-anchor="middle" x="160.62" y="-304.5" font-family="Helvetica,sans-Serif" font-size="10.00">/inline_core.hpp</text>
</a>
</g>
</g>
<!-- Node4&#45;&gt;Node5 -->
<g id="edge4_Node000004_Node000005" class="edge">
<title>Node4&#45;&gt;Node5</title>
<g id="a_edge4_Node000004_Node000005"><a xlink:title=" ">
<path fill="none" stroke="#63b8ff" d="M324.26,-365.74C292.5,-355.89 249.53,-342.57 215.6,-332.05"/>
<polygon fill="#63b8ff" stroke="#63b8ff" points="216.96,-328.8 206.37,-329.18 214.88,-335.49 216.96,-328.8"/>
</a>
</g>
</g>
<!-- Node16 -->
<g id="Node000016" class="node">
<title>Node16</title>
<g id="a_Node000016"><a xlink:href="executor_8hpp.html" target="_top" xlink:title=" ">
<polygon fill="white" stroke="#666666" points="366.88,-262.75 250.38,-262.75 250.38,-243.5 366.88,-243.5 366.88,-262.75"/>
<text text-anchor="middle" x="308.62" y="-249.25" font-family="Helvetica,sans-Serif" font-size="10.00">yaclib/exe/executor.hpp</text>
</a>
</g>
</g>
<!-- Node4&#45;&gt;Node16 -->
<g id="edge16_Node000004_Node000016" class="edge">
<title>Node4&#45;&gt;Node16</title>
<g id="a_edge16_Node000004_Node000016"><a xlink:title=" ">
<path fill="none" stroke="#63b8ff" d="M324.32,-370.11C302.04,-362.9 276.98,-350.45 263.62,-329.25 256.4,-317.78 258.41,-311.26 263.62,-298.75 268.27,-287.59 277.22,-277.8 285.92,-270.24"/>
<polygon fill="#63b8ff" stroke="#63b8ff" points="287.89,-273.15 293.52,-264.17 283.52,-267.68 287.89,-273.15"/>
</a>
</g>
</g>
<!-- Node19 -->
<g id="Node000019" class="node">
<title>Node19</title>
<g id="a_Node000019"><a xlink:href="inline_8hpp.html" target="_top" xlink:title=" ">
<polygon fill="white" stroke="#666666" points="374.75,-323.62 272.5,-323.62 272.5,-304.38 374.75,-304.38 374.75,-323.62"/>
<text text-anchor="middle" x="323.62" y="-310.12" font-family="Helvetica,sans-Serif" font-size="10.00">yaclib/exe/inline.hpp</text>
</a>
</g>
</g>
<!-- Node4&#45;&gt;Node19 -->
<g id="edge23_Node000004_Node000019" class="edge">
<title>Node4&#45;&gt;Node19</title>
<g id="a_edge23_Node000004_Node000019"><a xlink:title=" ">
<path fill="none" stroke="#63b8ff" d="M358.41,-364.86C351.87,-355.48 343.33,-343.24 336.34,-333.23"/>
<polygon fill="#63b8ff" stroke="#63b8ff" points="339.24,-331.26 330.65,-325.06 333.5,-335.27 339.24,-331.26"/>
</a>
</g>
</g>
<!-- Node21 -->
<g id="Node000021" class="node">
<title>Node21</title>
<g id="a_Node000021"><a xlink:title=" ">
<polygon fill="#e0e0e0" stroke="#999999" points="432.25,-323.62 393,-323.62 393,-304.38 432.25,-304.38 432.25,-323.62"/>
<text text-anchor="middle" x="412.62" y="-310.12" font-family="Helvetica,sans-Serif" font-size="10.00">limits</text>
</a>
</g>
</g>
<!-- Node4&#45;&gt;Node21 -->
<g id="edge26_Node000004_Node000021" class="edge">
<title>Node4&#45;&gt;Node21</title>
<g id="a_edge26_Node000004_Node000021"><a xlink:title=" ">
<path fill="none" stroke="#63b8ff" d="M378.61,-364.86C385.01,-355.48 393.36,-343.24 400.19,-333.23"/>
<polygon fill="#63b8ff" stroke="#63b8ff" points="403.01,-335.31 405.75,-325.07 397.23,-331.36 403.01,-335.31"/>
</a>
</g>
</g>
<!-- Node22 -->
<g id="Node000022" class="node">
<title>Node22</title>
<g id="a_Node000022"><a xlink:title=" ">
<polygon fill="#e0e0e0" stroke="#999999" points="542.5,-323.62 450.75,-323.62 450.75,-304.38 542.5,-304.38 542.5,-323.62"/>
<text text-anchor="middle" x="496.62" y="-310.12" font-family="Helvetica,sans-Serif" font-size="10.00">yaclib_std/atomic</text>
</a>
</g>
</g>
<!-- Node4&#45;&gt;Node22 -->
<g id="edge27_Node000004_Node000022" class="edge">
<title>Node4&#45;&gt;Node22</title>
<g id="a_edge27_Node000004_Node000022"><a xlink:title=" ">
<path fill="none" stroke="#63b8ff" d="M397.67,-364.86C418.9,-354.17 447.53,-339.74 468.54,-329.15"/>
<polygon fill="#63b8ff" stroke="#63b8ff" points="470.04,-332.32 477.39,-324.69 466.89,-326.07 470.04,-332.32"/>
</a>
</g>
</g>
<!-- Node6 -->
<g id="Node000006" class="node">
<title>Node6</title>
<g id="a_Node000006"><a xlink:title=" ">
<polygon fill="#e0e0e0" stroke="#999999" points="87.25,-262.75 0,-262.75 0,-243.5 87.25,-243.5 87.25,-262.75"/>
<text text-anchor="middle" x="43.62" y="-249.25" font-family="Helvetica,sans-Serif" font-size="10.00">yaclib/config.hpp</text>
</a>
</g>
</g>
<!-- Node5&#45;&gt;Node6 -->
<g id="edge5_Node000005_Node000006" class="edge">
<title>Node5&#45;&gt;Node6</title>
<g id="a_edge5_Node000005_Node000006"><a xlink:title=" ">
<path fill="none" stroke="#63b8ff" d="M131.4,-298.3C113.16,-289.11 89.79,-277.36 71.75,-268.28"/>
<polygon fill="#63b8ff" stroke="#63b8ff" points="73.43,-265.2 62.92,-263.83 70.28,-271.46 73.43,-265.2"/>
</a>
</g>
</g>
<!-- Node7 -->
<g id="Node000007" class="node">
<title>Node7</title>
<g id="a_Node000007"><a xlink:href="job_8hpp.html" target="_top" xlink:title=" ">
<polygon fill="white" stroke="#666666" points="271.88,-201.88 179.38,-201.88 179.38,-182.62 271.88,-182.62 271.88,-201.88"/>
<text text-anchor="middle" x="225.62" y="-188.38" font-family="Helvetica,sans-Serif" font-size="10.00">yaclib/exe/job.hpp</text>
</a>
</g>
</g>
<!-- Node5&#45;&gt;Node7 -->
<g id="edge6_Node000005_Node000007" class="edge">
<title>Node5&#45;&gt;Node7</title>
<g id="a_edge6_Node000005_Node000007"><a xlink:title=" ">
<path fill="none" stroke="#63b8ff" d="M168.6,-298.32C180.36,-276.64 202.38,-236.08 215.34,-212.19"/>
<polygon fill="#63b8ff" stroke="#63b8ff" points="218.33,-214.03 220.02,-203.57 212.18,-210.69 218.33,-214.03"/>
</a>
</g>
</g>
<!-- Node8 -->
<g id="Node000008" class="node">
<title>Node8</title>
<g id="a_Node000008"><a xlink:href="log_8hpp.html" target="_top" xlink:title=" ">
<polygon fill="white" stroke="#666666" points="190.88,-74.5 116.38,-74.5 116.38,-55.25 190.88,-55.25 190.88,-74.5"/>
<text text-anchor="middle" x="153.62" y="-61" font-family="Helvetica,sans-Serif" font-size="10.00">yaclib/log.hpp</text>
</a>
</g>
</g>
<!-- Node5&#45;&gt;Node8 -->
<g id="edge15_Node000005_Node000008" class="edge">
<title>Node5&#45;&gt;Node8</title>
<g id="a_edge15_Node000005_Node000008"><a xlink:title=" ">
<path fill="none" stroke="#63b8ff" d="M160.21,-298.28C159.01,-256.12 155.58,-134.8 154.2,-86.28"/>
<polygon fill="#63b8ff" stroke="#63b8ff" points="157.71,-86.3 153.92,-76.4 150.71,-86.5 157.71,-86.3"/>
</a>
</g>
</g>
<!-- Node7&#45;&gt;Node8 -->
<g id="edge7_Node000007_Node000008" class="edge">
<title>Node7&#45;&gt;Node8</title>
<g id="a_edge7_Node000007_Node000008"><a xlink:title=" ">
<path fill="none" stroke="#63b8ff" d="M212.72,-182.4C200.57,-173.38 182.75,-158.29 172.62,-141 162.65,-123.96 157.86,-101.77 155.6,-85.93"/>
<polygon fill="#63b8ff" stroke="#63b8ff" points="159.11,-85.83 154.45,-76.31 152.16,-86.66 159.11,-85.83"/>
</a>
</g>
</g>
<!-- Node10 -->
<g id="Node000010" class="node">
<title>Node10</title>
<g id="a_Node000010"><a xlink:href="node_8hpp.html" target="_top" xlink:title=" ">
<polygon fill="white" stroke="#666666" points="549,-141 466.25,-141 466.25,-110.5 549,-110.5 549,-141"/>
<text text-anchor="start" x="474.25" y="-127.5" font-family="Helvetica,sans-Serif" font-size="10.00">yaclib/util/detail</text>
<text text-anchor="middle" x="507.62" y="-116.25" font-family="Helvetica,sans-Serif" font-size="10.00">/node.hpp</text>
</a>
</g>
</g>
<!-- Node7&#45;&gt;Node10 -->
<g id="edge9_Node000007_Node000010" class="edge">
<title>Node7&#45;&gt;Node10</title>
<g id="a_edge9_Node000007_Node000010"><a xlink:title=" ">
<path fill="none" stroke="#63b8ff" d="M259.59,-182.16C266.53,-180.38 273.8,-178.58 280.62,-177 355.06,-159.76 377.14,-159.72 455.09,-141.26"/>
<polygon fill="#63b8ff" stroke="#63b8ff" points="455.56,-144.75 464.47,-139.01 453.93,-137.94 455.56,-144.75"/>
</a>
</g>
</g>
<!-- Node11 -->
<g id="Node000011" class="node">
<title>Node11</title>
<g id="a_Node000011"><a xlink:href="func_8hpp.html" target="_top" xlink:title=" ">
<polygon fill="white" stroke="#666666" points="447.75,-135.38 351.5,-135.38 351.5,-116.12 447.75,-116.12 447.75,-135.38"/>
<text text-anchor="middle" x="399.62" y="-121.88" font-family="Helvetica,sans-Serif" font-size="10.00">yaclib/util/func.hpp</text>
</a>
</g>
</g>
<!-- Node7&#45;&gt;Node11 -->
<g id="edge10_Node000007_Node000011" class="edge">
<title>Node7&#45;&gt;Node11</title>
<g id="a_edge10_Node000007_Node000011"><a xlink:title=" ">
<path fill="none" stroke="#63b8ff" d="M250.19,-182.15C280.11,-171.05 330.86,-152.24 364.81,-139.66"/>
<polygon fill="#63b8ff" stroke="#63b8ff" points="365.61,-143.09 373.77,-136.33 363.18,-136.53 365.61,-143.09"/>
</a>
</g>
</g>
<!-- Node9 -->
<g id="Node000009" class="node">
<title>Node9</title>
<g id="a_Node000009"><a xlink:title=" ">
<polygon fill="#e0e0e0" stroke="#999999" points="186.38,-19.25 120.88,-19.25 120.88,0 186.38,0 186.38,-19.25"/>
<text text-anchor="middle" x="153.62" y="-5.75" font-family="Helvetica,sans-Serif" font-size="10.00">string_view</text>
</a>
</g>
</g>
<!-- Node8&#45;&gt;Node9 -->
<g id="edge8_Node000008_Node000009" class="edge">
<title>Node8&#45;&gt;Node9</title>
<g id="a_edge8_Node000008_Node000009"><a xlink:title=" ">
<path fill="none" stroke="#63b8ff" d="M153.62,-55.08C153.62,-48.57 153.62,-39.42 153.62,-31.12"/>
<polygon fill="#63b8ff" stroke="#63b8ff" points="157.13,-31.12 153.63,-21.12 150.13,-31.12 157.13,-31.12"/>
</a>
</g>
</g>
<!-- Node12 -->
<g id="Node000012" class="node">
<title>Node12</title>
<g id="a_Node000012"><a xlink:href="ref_8hpp.html" target="_top" xlink:title=" ">
<polygon fill="white" stroke="#666666" points="406,-74.5 317.25,-74.5 317.25,-55.25 406,-55.25 406,-74.5"/>
<text text-anchor="middle" x="361.62" y="-61" font-family="Helvetica,sans-Serif" font-size="10.00">yaclib/util/ref.hpp</text>
</a>
</g>
</g>
<!-- Node11&#45;&gt;Node12 -->
<g id="edge11_Node000011_Node000012" class="edge">
<title>Node11&#45;&gt;Node12</title>
<g id="a_edge11_Node000011_Node000012"><a xlink:title=" ">
<path fill="none" stroke="#63b8ff" d="M393.85,-115.81C388.5,-107.51 380.36,-94.89 373.6,-84.42"/>
<polygon fill="#63b8ff" stroke="#63b8ff" points="376.64,-82.68 368.27,-76.17 370.75,-86.47 376.64,-82.68"/>
</a>
</g>
</g>
<!-- Node14 -->
<g id="Node000014" class="node">
<title>Node14</title>
<g id="a_Node000014"><a xlink:title=" ">
<polygon fill="#e0e0e0" stroke="#999999" points="645.12,-74.5 584.12,-74.5 584.12,-55.25 645.12,-55.25 645.12,-74.5"/>
<text text-anchor="middle" x="614.62" y="-61" font-family="Helvetica,sans-Serif" font-size="10.00">type_traits</text>
</a>
</g>
</g>
<!-- Node11&#45;&gt;Node14 -->
<g id="edge13_Node000011_Node000014" class="edge">
<title>Node11&#45;&gt;Node14</title>
<g id="a_edge13_Node000011_Node000014"><a xlink:title=" ">
<path fill="none" stroke="#63b8ff" d="M432.75,-115.68C470.43,-105.36 532.03,-88.49 572.95,-77.29"/>
<polygon fill="#63b8ff" stroke="#63b8ff" points="573.72,-80.7 582.44,-74.69 571.88,-73.95 573.72,-80.7"/>
</a>
</g>
</g>
<!-- Node11&#45;&gt;Node15 -->
<g id="edge14_Node000011_Node000015" class="edge">
<title>Node11&#45;&gt;Node15</title>
<g id="a_edge14_Node000011_Node000015"><a xlink:title=" ">
<path fill="none" stroke="#63b8ff" d="M435.12,-115.64C442.54,-113.84 450.32,-112.04 457.62,-110.5 536.81,-93.78 630.88,-78.26 678.58,-70.7"/>
<polygon fill="#63b8ff" stroke="#63b8ff" points="679.11,-74.16 688.44,-69.15 678.02,-67.24 679.11,-74.16"/>
</a>
</g>
</g>
<!-- Node13 -->
<g id="Node000013" class="node">
<title>Node13</title>
<g id="a_Node000013"><a xlink:title=" ">
<polygon fill="#e0e0e0" stroke="#999999" points="385.75,-19.25 337.5,-19.25 337.5,0 385.75,0 385.75,-19.25"/>
<text text-anchor="middle" x="361.62" y="-5.75" font-family="Helvetica,sans-Serif" font-size="10.00">cstddef</text>
</a>
</g>
</g>
<!-- Node12&#45;&gt;Node13 -->
<g id="edge12_Node000012_Node000013" class="edge">
<title>Node12&#45;&gt;Node13</title>
<g id="a_edge12_Node000012_Node000013"><a xlink:title=" ">
<path fill="none" stroke="#63b8ff" d="M361.62,-55.08C361.62,-48.57 361.62,-39.42 361.62,-31.12"/>
<polygon fill="#63b8ff" stroke="#63b8ff" points="365.13,-31.12 361.63,-21.12 358.13,-31.12 365.13,-31.12"/>
</a>
</g>
</g>
<!-- Node16&#45;&gt;Node7 -->
<g id="edge17_Node000016_Node000007" class="edge">
<title>Node16&#45;&gt;Node7</title>
<g id="a_edge17_Node000016_Node000007"><a xlink:title=" ">
<path fill="none" stroke="#63b8ff" d="M296.02,-243.18C283.22,-234.11 263.15,-219.87 247.71,-208.91"/>
<polygon fill="#63b8ff" stroke="#63b8ff" points="249.77,-206.08 239.58,-203.15 245.72,-211.79 249.77,-206.08"/>
</a>
</g>
</g>
<!-- Node16&#45;&gt;Node17 -->
<g id="edge18_Node000016_Node000017" class="edge">
<title>Node16&#45;&gt;Node17</title>
<g id="a_edge18_Node000016_Node000017"><a xlink:title=" ">
<path fill="none" stroke="#63b8ff" d="M313.03,-243.18C316.35,-236.43 321.09,-226.83 325.51,-217.84"/>
<polygon fill="#63b8ff" stroke="#63b8ff" points="328.52,-219.66 329.8,-209.14 322.24,-216.56 328.52,-219.66"/>
</a>
</g>
</g>
<!-- Node17&#45;&gt;Node12 -->
<g id="edge19_Node000017_Node000012" class="edge">
<title>Node17&#45;&gt;Node12</title>
<g id="a_edge19_Node000017_Node000012"><a xlink:title=" ">
<path fill="none" stroke="#63b8ff" d="M337.06,-176.74C336.75,-160.41 337.26,-133.19 342.62,-110.5 344.68,-101.8 348.3,-92.64 351.83,-84.9"/>
<polygon fill="#63b8ff" stroke="#63b8ff" points="354.86,-86.68 356.09,-76.16 348.56,-83.62 354.86,-86.68"/>
</a>
</g>
</g>
<!-- Node17&#45;&gt;Node14 -->
<g id="edge20_Node000017_Node000014" class="edge">
<title>Node17&#45;&gt;Node14</title>
<g id="a_edge20_Node000017_Node000014"><a xlink:title=" ">
<path fill="none" stroke="#63b8ff" d="M385.9,-189.62C433.1,-185.98 505.29,-174.78 557.62,-141 579.06,-127.16 595.53,-102.33 605.12,-85.02"/>
<polygon fill="#63b8ff" stroke="#63b8ff" points="608.17,-86.74 609.72,-76.26 601.97,-83.49 608.17,-86.74"/>
</a>
</g>
</g>
<!-- Node18 -->
<g id="Node000018" class="node">
<title>Node18</title>
<g id="a_Node000018"><a xlink:href="intrusive__ptr__impl_8hpp.html" target="_top" xlink:title=" ">
<polygon fill="white" stroke="#666666" points="295.38,-141 181.88,-141 181.88,-110.5 295.38,-110.5 295.38,-141"/>
<text text-anchor="start" x="189.88" y="-127.5" font-family="Helvetica,sans-Serif" font-size="10.00">yaclib/util/detail</text>
<text text-anchor="middle" x="238.62" y="-116.25" font-family="Helvetica,sans-Serif" font-size="10.00">/intrusive_ptr_impl.hpp</text>
</a>
</g>
</g>
<!-- Node17&#45;&gt;Node18 -->
<g id="edge21_Node000017_Node000018" class="edge">
<title>Node17&#45;&gt;Node18</title>
<g id="a_edge21_Node000017_Node000018"><a xlink:title=" ">
<path fill="none" stroke="#63b8ff" d="M315.16,-176.61C302,-168.04 285.15,-157.06 270.62,-147.59"/>
<polygon fill="#63b8ff" stroke="#63b8ff" points="272.56,-144.68 262.27,-142.15 268.74,-150.55 272.56,-144.68"/>
</a>
</g>
</g>
<!-- Node18&#45;&gt;Node8 -->
<g id="edge22_Node000018_Node000008" class="edge">
<title>Node18&#45;&gt;Node8</title>
<g id="a_edge22_Node000018_Node000008"><a xlink:title=" ">
<path fill="none" stroke="#63b8ff" d="M217.61,-110.2C204.92,-101.4 188.76,-90.21 175.85,-81.27"/>
<polygon fill="#63b8ff" stroke="#63b8ff" points="178.19,-78.63 167.97,-75.81 174.2,-84.38 178.19,-78.63"/>
</a>
</g>
</g>
<!-- Node19&#45;&gt;Node16 -->
<g id="edge24_Node000019_Node000016" class="edge">
<title>Node19&#45;&gt;Node16</title>
<g id="a_edge24_Node000019_Node000016"><a xlink:title=" ">
<path fill="none" stroke="#63b8ff" d="M321.35,-304.06C319.32,-296.1 316.28,-284.19 313.69,-273.99"/>
<polygon fill="#63b8ff" stroke="#63b8ff" points="317.16,-273.44 311.3,-264.62 310.38,-275.17 317.16,-273.44"/>
</a>
</g>
</g>
<!-- Node20 -->
<g id="Node000020" class="node">
<title>Node20</title>
<g id="a_Node000020"><a xlink:href="fwd_8hpp.html" target="_top" xlink:title=" ">
<polygon fill="white" stroke="#666666" points="986.38,-74.5 908.88,-74.5 908.88,-55.25 986.38,-55.25 986.38,-74.5"/>
<text text-anchor="middle" x="947.62" y="-61" font-family="Helvetica,sans-Serif" font-size="10.00">yaclib/fwd.hpp</text>
</a>
</g>
</g>
<!-- Node19&#45;&gt;Node20 -->
<g id="edge25_Node000019_Node000020" class="edge">
<title>Node19&#45;&gt;Node20</title>
<g id="a_edge25_Node000019_Node000020"><a xlink:title=" ">
<path fill="none" stroke="#63b8ff" d="M360.02,-303.91C367.79,-302.09 375.96,-300.28 383.62,-298.75 508.14,-273.93 865.33,-304.18 947.62,-207.5 976.76,-173.27 964.28,-115.71 954.77,-85.59"/>
<polygon fill="#63b8ff" stroke="#63b8ff" points="958.13,-84.62 951.61,-76.27 951.51,-86.87 958.13,-84.62"/>
</a>
</g>
</g>
<!-- Node23&#45;&gt;Node14 -->
<g id="edge30_Node000023_Node000014" class="edge">
<title>Node23&#45;&gt;Node14</title>
<g id="a_edge30_Node000023_Node000014"><a xlink:title=" ">
<path fill="none" stroke="#63b8ff" d="M687.81,-370.56C664.45,-351.78 614.62,-305.67 614.62,-254.12 614.62,-254.12 614.62,-254.12 614.62,-191.25 614.62,-154.35 614.62,-111.34 614.62,-86.49"/>
<polygon fill="#63b8ff" stroke="#63b8ff" points="618.13,-86.51 614.63,-76.51 611.13,-86.51 618.13,-86.51"/>
</a>
</g>
</g>
<!-- Node24 -->
<g id="Node000024" class="node">
<title>Node24</title>
<g id="a_Node000024"><a xlink:title=" ">
<polygon fill="#e0e0e0" stroke="#999999" points="730.88,-323.62 680.38,-323.62 680.38,-304.38 730.88,-304.38 730.88,-323.62"/>
<text text-anchor="middle" x="705.62" y="-310.12" font-family="Helvetica,sans-Serif" font-size="10.00">memory</text>
</a>
</g>
</g>
<!-- Node23&#45;&gt;Node24 -->
<g id="edge29_Node000023_Node000024" class="edge">
<title>Node23&#45;&gt;Node24</title>
<g id="a_edge29_Node000023_Node000024"><a xlink:title=" ">
<path fill="none" stroke="#63b8ff" d="M700.46,-370.53C701.31,-361.39 702.66,-346.89 703.76,-335"/>
<polygon fill="#63b8ff" stroke="#63b8ff" points="707.22,-335.68 704.66,-325.4 700.25,-335.03 707.22,-335.68"/>
</a>
</g>
</g>
<!-- Node25&#45;&gt;Node15 -->
<g id="edge42_Node000025_Node000015" class="edge">
<title>Node25&#45;&gt;Node15</title>
<g id="a_edge42_Node000025_Node000015"><a xlink:title=" ">
<path fill="none" stroke="#63b8ff" d="M991.77,-251.7C941.89,-249.24 865.18,-239.86 807.62,-207.5 759.09,-180.21 729.31,-117.69 716.68,-85.63"/>
<polygon fill="#63b8ff" stroke="#63b8ff" points="720,-84.52 713.21,-76.39 713.45,-86.98 720,-84.52"/>
</a>
</g>
</g>
<!-- Node25&#45;&gt;Node20 -->
<g id="edge32_Node000025_Node000020" class="edge">
<title>Node25&#45;&gt;Node20</title>
<g id="a_edge32_Node000025_Node000020"><a xlink:title=" ">
<path fill="none" stroke="#63b8ff" d="M1039.51,-243.17C1031.36,-220.29 1008.19,-158.12 980.62,-110.5 975.26,-101.24 968.34,-91.61 962.22,-83.68"/>
<polygon fill="#63b8ff" stroke="#63b8ff" points="964.98,-81.53 956.02,-75.88 959.5,-85.88 964.98,-81.53"/>
</a>
</g>
</g>
<!-- Node26 -->
<g id="Node000026" class="node">
<title>Node26</title>
<g id="a_Node000026"><a xlink:href="type__traits_8hpp.html" target="_top" xlink:title=" ">
<polygon fill="white" stroke="#666666" points="938.88,-201.88 816.38,-201.88 816.38,-182.62 938.88,-182.62 938.88,-201.88"/>
<text text-anchor="middle" x="877.62" y="-188.38" font-family="Helvetica,sans-Serif" font-size="10.00">yaclib/util/type_traits.hpp</text>
</a>
</g>
</g>
<!-- Node25&#45;&gt;Node26 -->
<g id="edge33_Node000025_Node000026" class="edge">
<title>Node25&#45;&gt;Node26</title>
<g id="a_edge33_Node000025_Node000026"><a xlink:title=" ">
<path fill="none" stroke="#63b8ff" d="M1017.21,-243.05C989.47,-233.16 944.85,-217.24 913.54,-206.07"/>
<polygon fill="#63b8ff" stroke="#63b8ff" points="915.09,-202.9 904.5,-202.84 912.74,-209.5 915.09,-202.9"/>
</a>
</g>
</g>
<!-- Node25&#45;&gt;Node28 -->
<g id="edge41_Node000025_Node000028" class="edge">
<title>Node25&#45;&gt;Node28</title>
<g id="a_edge41_Node000025_Node000028"><a xlink:title=" ">
<path fill="none" stroke="#63b8ff" d="M1043.99,-243.11C1047.03,-223.05 1054.42,-174.32 1058.6,-146.71"/>
<polygon fill="#63b8ff" stroke="#63b8ff" points="1062.01,-147.59 1060.04,-137.18 1055.09,-146.54 1062.01,-147.59"/>
</a>
</g>
</g>
<!-- Node29 -->
<g id="Node000029" class="node">
<title>Node29</title>
<g id="a_Node000029"><a xlink:title=" ">
<polygon fill="#e0e0e0" stroke="#999999" points="1116.25,-201.88 1071,-201.88 1071,-182.62 1116.25,-182.62 1116.25,-201.88"/>
<text text-anchor="middle" x="1093.62" y="-188.38" font-family="Helvetica,sans-Serif" font-size="10.00">variant</text>
</a>
</g>
</g>
<!-- Node25&#45;&gt;Node29 -->
<g id="edge43_Node000025_Node000029" class="edge">
<title>Node25&#45;&gt;Node29</title>
<g id="a_edge43_Node000025_Node000029"><a xlink:title=" ">
<path fill="none" stroke="#63b8ff" d="M1050.37,-243.18C1057.78,-234.62 1069.17,-221.48 1078.4,-210.82"/>
<polygon fill="#63b8ff" stroke="#63b8ff" points="1080.91,-213.27 1084.82,-203.42 1075.62,-208.69 1080.91,-213.27"/>
</a>
</g>
</g>
<!-- Node26&#45;&gt;Node14 -->
<g id="edge39_Node000026_Node000014" class="edge">
<title>Node26&#45;&gt;Node14</title>
<g id="a_edge39_Node000026_Node000014"><a xlink:title=" ">
<path fill="none" stroke="#63b8ff" d="M850.76,-182.15C824.13,-172.84 782.41,-157.44 747.62,-141 708.26,-122.39 664.67,-96.75 638.48,-80.75"/>
<polygon fill="#63b8ff" stroke="#63b8ff" points="640.66,-77.98 630.31,-75.72 636.99,-83.94 640.66,-77.98"/>
</a>
</g>
</g>
<!-- Node26&#45;&gt;Node15 -->
<g id="edge40_Node000026_Node000015" class="edge">
<title>Node26&#45;&gt;Node15</title>
<g id="a_edge40_Node000026_Node000015"><a xlink:title=" ">
<path fill="none" stroke="#63b8ff" d="M879.96,-182.29C883.62,-165.98 888.68,-131.24 871.62,-110.5 855.06,-90.36 782.63,-76.58 740.44,-70.11"/>
<polygon fill="#63b8ff" stroke="#63b8ff" points="741.06,-66.66 730.66,-68.66 740.04,-73.59 741.06,-66.66"/>
</a>
</g>
</g>
<!-- Node26&#45;&gt;Node20 -->
<g id="edge34_Node000026_Node000020" class="edge">
<title>Node26&#45;&gt;Node20</title>
<g id="a_edge34_Node000026_Node000020"><a xlink:title=" ">
<path fill="none" stroke="#63b8ff" d="M882.66,-182.23C894.01,-161.9 921.8,-112.13 937.1,-84.73"/>
<polygon fill="#63b8ff" stroke="#63b8ff" points="940.08,-86.57 941.9,-76.13 933.97,-83.16 940.08,-86.57"/>
</a>
</g>
</g>
<!-- Node27 -->
<g id="Node000027" class="node">
<title>Node27</title>
<g id="a_Node000027"><a xlink:href="type__traits__impl_8hpp.html" target="_top" xlink:title=" ">
<polygon fill="white" stroke="#666666" points="862.25,-141 757,-141 757,-110.5 862.25,-110.5 862.25,-141"/>
<text text-anchor="start" x="765" y="-127.5" font-family="Helvetica,sans-Serif" font-size="10.00">yaclib/util/detail</text>
<text text-anchor="middle" x="809.62" y="-116.25" font-family="Helvetica,sans-Serif" font-size="10.00">/type_traits_impl.hpp</text>
</a>
</g>
</g>
<!-- Node26&#45;&gt;Node27 -->
<g id="edge35_Node000026_Node000027" class="edge">
<title>Node26&#45;&gt;Node27</title>
<g id="a_edge35_Node000026_Node000027"><a xlink:title=" ">
<path fill="none" stroke="#63b8ff" d="M868.17,-182.28C859.18,-173.76 845.3,-160.59 833.31,-149.21"/>
<polygon fill="#63b8ff" stroke="#63b8ff" points="835.77,-146.72 826.11,-142.38 830.95,-151.8 835.77,-146.72"/>
</a>
</g>
</g>
<!-- Node26&#45;&gt;Node28 -->
<g id="edge38_Node000026_Node000028" class="edge">
<title>Node26&#45;&gt;Node28</title>
<g id="a_edge38_Node000026_Node000028"><a xlink:title=" ">
<path fill="none" stroke="#63b8ff" d="M903.6,-182.15C935.38,-171.01 989.38,-152.08 1025.27,-139.49"/>
<polygon fill="#63b8ff" stroke="#63b8ff" points="1026.08,-142.92 1034.36,-136.31 1023.76,-136.31 1026.08,-142.92"/>
</a>
</g>
</g>
<!-- Node27&#45;&gt;Node14 -->
<g id="edge37_Node000027_Node000014" class="edge">
<title>Node27&#45;&gt;Node14</title>
<g id="a_edge37_Node000027_Node000014"><a xlink:title=" ">
<path fill="none" stroke="#63b8ff" d="M760.92,-110.05C728.47,-100.25 686.3,-87.52 655.58,-78.24"/>
<polygon fill="#63b8ff" stroke="#63b8ff" points="656.85,-74.97 646.27,-75.43 654.83,-81.67 656.85,-74.97"/>
</a>
</g>
</g>
<!-- Node27&#45;&gt;Node20 -->
<g id="edge36_Node000027_Node000020" class="edge">
<title>Node27&#45;&gt;Node20</title>
<g id="a_edge36_Node000027_Node000020"><a xlink:title=" ">
<path fill="none" stroke="#63b8ff" d="M844.09,-110.05C866.12,-100.65 894.47,-88.55 915.94,-79.39"/>
<polygon fill="#63b8ff" stroke="#63b8ff" points="917.24,-82.64 925.07,-75.5 914.5,-76.2 917.24,-82.64"/>
</a>
</g>
</g>
<!-- Node30&#45;&gt;Node6 -->
<g id="edge46_Node000030_Node000006" class="edge">
<title>Node30&#45;&gt;Node6</title>
<g id="a_edge46_Node000030_Node000006"><a xlink:title=" ">
<path fill="none" stroke="#63b8ff" d="M258.92,-436.9C228.13,-418.65 158.41,-375.41 107.62,-329.25 88.09,-311.5 68.9,-287.91 56.7,-271.94"/>
<polygon fill="#63b8ff" stroke="#63b8ff" points="59.78,-270.21 50.98,-264.31 54.18,-274.41 59.78,-270.21"/>
</a>
</g>
</g>
<!-- Node32 -->
<g id="Node000032" class="node">
<title>Node32</title>
<g id="a_Node000032"><a xlink:href="default__deleter_8hpp.html" target="_top" xlink:title=" ">
<polygon fill="white" stroke="#666666" points="1275,-462.25 1174.25,-462.25 1174.25,-431.75 1275,-431.75 1275,-462.25"/>
<text text-anchor="start" x="1182.25" y="-448.75" font-family="Helvetica,sans-Serif" font-size="10.00">yaclib/util/detail</text>
<text text-anchor="middle" x="1224.62" y="-437.5" font-family="Helvetica,sans-Serif" font-size="10.00">/default_deleter.hpp</text>
</a>
</g>
</g>
<!-- Node31&#45;&gt;Node32 -->
<g id="edge49_Node000031_Node000032" class="edge">
<title>Node31&#45;&gt;Node32</title>
<g id="a_edge49_Node000031_Node000032"><a xlink:title=" ">
<path fill="none" stroke="#63b8ff" d="M1224.62,-497.86C1224.62,-490.77 1224.62,-482.04 1224.62,-473.88"/>
<polygon fill="#63b8ff" stroke="#63b8ff" points="1228.13,-474.09 1224.63,-464.09 1221.13,-474.09 1228.13,-474.09"/>
</a>
</g>
</g>
</g>
</svg>

<g id="navigator" transform="translate(0 0)" fill="#404254">
  <rect fill="#f2f5e9" fill-opacity="0.5" stroke="#606060" stroke-width=".5" x="0" y="0" width="60" height="60"/>
  <use id="zoomplus" xlink:href="#zoomPlus" x="17" y="9" onmousedown="handleZoom(evt,'in')"/>
  <use id="zoomminus" xlink:href="#zoomMin" x="42" y="9" onmousedown="handleZoom(evt,'out')"/>
  <use id="reset" xlink:href="#resetDef" x="30" y="36" onmousedown="handleReset()"/>
   <use id="arrowup" xlink:href="#arrowUp" x="0" y="0" onmousedown="handlePan(0,-1)"/>
  <use id="arrowright" xlink:href="#arrowRight" x="0" y="0" onmousedown="handlePan(1,0)"/>
  <use id="arrowdown" xlink:href="#arrowDown" x="0" y="0" onmousedown="handlePan(0,1)"/>
  <use id="arrowleft" xlink:href="#arrowLeft" x="0" y="0" onmousedown="handlePan(-1,0)"/>
</g>
<svg viewBox="0 0 15 15" width="100%" height="30px" preserveAspectRatio="xMaxYMin meet">
 <g id="arrow_out" transform="scale(0.3 0.3)">
  <a xlink:href="promise__type_8hpp__incl_org.svg" target="_base">
   <rect id="button" ry="5" rx="5" y="6" x="6" height="38" width="38"
        fill="#f2f5e9" fill-opacity="0.5" stroke="#606060" stroke-width="1.0"/>
   <path id="arrow"
     d="M 11.500037,31.436501 C 11.940474,20.09759 22.043105,11.32322 32.158766,21.979434 L 37.068811,17.246167 C 37.068811,17.246167 37.088388,32 37.088388,32 L 22.160133,31.978069 C 22.160133,31.978069 26.997745,27.140456 26.997745,27.140456 C 18.528582,18.264221 13.291696,25.230495 11.500037,31.436501 z"
     style="fill:#404040;"/>
  </a>
 </g>
</svg>

<style type='text/css'>
<![CDATA[
[data-mouse-over-selected='false'] { opacity: 0.7; }
[data-mouse-over-selected='true']  { opacity: 1.0; }
]]>
</style>
<script type="application/ecmascript"><![CDATA[
document.addEventListener('DOMContentLoaded', (event) => {
  highlightEdges();
  highlightAdjacentNodes();
});
]]></script>
</svg>
