<?xml version="1.0" encoding="UTF-8" standalone="no"?>
<!DOCTYPE svg PUBLIC "-//W3C//DTD SVG 1.1//EN"
 "http://www.w3.org/Graphics/SVG/1.1/DTD/svg11.dtd">
<!-- Generated by graphviz version 3.0.0 (20221109.1736)
 -->
<!-- Title: include/yaclib/coro/detail/promise_type.hpp Pages: 1 -->
<svg width="1418pt" height="542pt"
 viewBox="0.00 0.00 1418.00 542.00" xmlns="http://www.w3.org/2000/svg" xmlns:xlink="http://www.w3.org/1999/xlink">
<g id="graph0" class="graph" transform="scale(1 1) rotate(0) translate(4 538)">
<title>include/yaclib/coro/detail/promise_type.hpp</title>
<!-- Node1 -->
<g id="node1" class="node">
<title>Node1</title>
<g id="a_node1"><a xlink:title=" ">
<polygon fill="#bfbfbf" stroke="black" points="742,-503.5 742,-533.5 864,-533.5 864,-503.5 742,-503.5"/>
<text text-anchor="start" x="750" y="-521.5" font-family="Helvetica,sans-Serif" font-size="10.00">include/yaclib/coro</text>
<text text-anchor="middle" x="803" y="-510.5" font-family="Helvetica,sans-Serif" font-size="10.00">/detail/promise_type.hpp</text>
</a>
</g>
</g>
<!-- Node2 -->
<g id="node2" class="node">
<title>Node2</title>
<g id="a_node2"><a xlink:href="result__core_8hpp.html" target="_top" xlink:title=" ">
<polygon fill="none" stroke="black" points="758.5,-436.5 758.5,-466.5 847.5,-466.5 847.5,-436.5 758.5,-436.5"/>
<text text-anchor="start" x="766.5" y="-454.5" font-family="Helvetica,sans-Serif" font-size="10.00">yaclib/algo/detail</text>
<text text-anchor="middle" x="803" y="-443.5" font-family="Helvetica,sans-Serif" font-size="10.00">/result_core.hpp</text>
</a>
</g>
</g>
<!-- Node1&#45;&gt;Node2 -->
<g id="edge1" class="edge">
<title>Node1&#45;&gt;Node2</title>
<path fill="none" stroke="midnightblue" d="M803,-503.4C803,-495.64 803,-485.81 803,-476.86"/>
<polygon fill="midnightblue" stroke="midnightblue" points="806.5,-476.58 803,-466.58 799.5,-476.58 806.5,-476.58"/>
</g>
<!-- Node15 -->
<g id="node15" class="node">
<title>Node15</title>
<g id="a_node15"><a xlink:href="intrusive__ptr_8hpp.html" target="_top" xlink:title=" ">
<polygon fill="none" stroke="black" points="609.5,-179.5 609.5,-209.5 706.5,-209.5 706.5,-179.5 609.5,-179.5"/>
<text text-anchor="start" x="617.5" y="-197.5" font-family="Helvetica,sans-Serif" font-size="10.00">yaclib/util/intrusive</text>
<text text-anchor="middle" x="658" y="-186.5" font-family="Helvetica,sans-Serif" font-size="10.00">_ptr.hpp</text>
</a>
</g>
</g>
<!-- Node1&#45;&gt;Node15 -->
<g id="edge49" class="edge">
<title>Node1&#45;&gt;Node15</title>
<path fill="none" stroke="midnightblue" d="M777.26,-503.33C743.08,-482.41 687,-439.8 687,-385.5 687,-385.5 687,-385.5 687,-316.5 687,-282.06 675.76,-243.6 667.27,-219.47"/>
<polygon fill="midnightblue" stroke="midnightblue" points="670.44,-217.96 663.73,-209.76 663.87,-220.36 670.44,-217.96"/>
</g>
<!-- Node25 -->
<g id="node25" class="node">
<title>Node25</title>
<g id="a_node25"><a xlink:title=" ">
<polygon fill="none" stroke="#bfbfbf" points="1164,-118 1164,-137 1222,-137 1222,-118 1164,-118"/>
<text text-anchor="middle" x="1193" y="-125" font-family="Helvetica,sans-Serif" font-size="10.00">exception</text>
</a>
</g>
</g>
<!-- Node1&#45;&gt;Node25 -->
<g id="edge50" class="edge">
<title>Node1&#45;&gt;Node25</title>
<path fill="none" stroke="midnightblue" d="M864.13,-513.37C992.42,-503.02 1278,-470.45 1278,-385.5 1278,-385.5 1278,-385.5 1278,-255 1278,-208.17 1237.37,-165.63 1212.29,-143.83"/>
<polygon fill="midnightblue" stroke="midnightblue" points="1214.37,-141.01 1204.46,-137.25 1209.87,-146.37 1214.37,-141.01"/>
</g>
<!-- Node27 -->
<g id="node27" class="node">
<title>Node27</title>
<g id="a_node27"><a xlink:href="coro_8hpp.html" target="_top" xlink:title=" ">
<polygon fill="none" stroke="black" points="69.5,-375 69.5,-394 172.5,-394 172.5,-375 69.5,-375"/>
<text text-anchor="middle" x="121" y="-382" font-family="Helvetica,sans-Serif" font-size="10.00">yaclib/coro/coro.hpp</text>
</a>
</g>
</g>
<!-- Node1&#45;&gt;Node27 -->
<g id="edge45" class="edge">
<title>Node1&#45;&gt;Node27</title>
<path fill="none" stroke="midnightblue" d="M741.88,-505.67C610.06,-480.16 300.86,-420.31 175.37,-396.02"/>
<polygon fill="midnightblue" stroke="midnightblue" points="175.71,-392.52 165.23,-394.06 174.38,-399.4 175.71,-392.52"/>
</g>
<!-- Node28 -->
<g id="node28" class="node">
<title>Node28</title>
<g id="a_node28"><a xlink:href="unique__counter_8hpp.html" target="_top" xlink:title=" ">
<polygon fill="none" stroke="black" points="1306,-436.5 1306,-466.5 1410,-466.5 1410,-436.5 1306,-436.5"/>
<text text-anchor="start" x="1314" y="-454.5" font-family="Helvetica,sans-Serif" font-size="10.00">yaclib/util/detail</text>
<text text-anchor="middle" x="1358" y="-443.5" font-family="Helvetica,sans-Serif" font-size="10.00">/unique_counter.hpp</text>
</a>
</g>
</g>
<!-- Node1&#45;&gt;Node28 -->
<g id="edge47" class="edge">
<title>Node1&#45;&gt;Node28</title>
<path fill="none" stroke="midnightblue" d="M864.28,-513.41C957.19,-506.71 1139.06,-491.62 1292,-467 1293.27,-466.8 1294.55,-466.58 1295.84,-466.36"/>
<polygon fill="midnightblue" stroke="midnightblue" points="1296.66,-469.77 1305.87,-464.53 1295.4,-462.88 1296.66,-469.77"/>
</g>
<!-- Node3 -->
<g id="node3" class="node">
<title>Node3</title>
<g id="a_node3"><a xlink:href="base__core_8hpp.html" target="_top" xlink:title=" ">
<polygon fill="none" stroke="black" points="341.5,-369.5 341.5,-399.5 430.5,-399.5 430.5,-369.5 341.5,-369.5"/>
<text text-anchor="start" x="349.5" y="-387.5" font-family="Helvetica,sans-Serif" font-size="10.00">yaclib/algo/detail</text>
<text text-anchor="middle" x="386" y="-376.5" font-family="Helvetica,sans-Serif" font-size="10.00">/base_core.hpp</text>
</a>
</g>
</g>
<!-- Node2&#45;&gt;Node3 -->
<g id="edge2" class="edge">
<title>Node2&#45;&gt;Node3</title>
<path fill="none" stroke="midnightblue" d="M758.37,-443.54C681.43,-431.55 524.04,-407.02 440.66,-394.02"/>
<polygon fill="midnightblue" stroke="midnightblue" points="441.04,-390.54 430.62,-392.46 439.96,-397.45 441.04,-390.54"/>
</g>
<!-- Node13 -->
<g id="node13" class="node">
<title>Node13</title>
<g id="a_node13"><a xlink:title=" ">
<polygon fill="none" stroke="#bfbfbf" points="821.5,-56.5 821.5,-75.5 860.5,-75.5 860.5,-56.5 821.5,-56.5"/>
<text text-anchor="middle" x="841" y="-63.5" font-family="Helvetica,sans-Serif" font-size="10.00">utility</text>
</a>
</g>
</g>
<!-- Node2&#45;&gt;Node13 -->
<g id="edge44" class="edge">
<title>Node2&#45;&gt;Node13</title>
<path fill="none" stroke="midnightblue" d="M806.4,-436.34C811.86,-412.27 822,-361.8 822,-318.5 822,-318.5 822,-318.5 822,-193.5 822,-154.77 830.82,-110.11 836.44,-85.57"/>
<polygon fill="midnightblue" stroke="midnightblue" points="839.92,-86.06 838.82,-75.52 833.11,-84.44 839.92,-86.06"/>
</g>
<!-- Node2&#45;&gt;Node15 -->
<g id="edge30" class="edge">
<title>Node2&#45;&gt;Node15</title>
<path fill="none" stroke="midnightblue" d="M797.4,-436.47C783.53,-402.41 745.41,-313.19 701,-246 694.46,-236.1 686.21,-225.99 678.7,-217.43"/>
<polygon fill="midnightblue" stroke="midnightblue" points="681.09,-214.86 671.8,-209.77 675.89,-219.55 681.09,-214.86"/>
</g>
<!-- Node22 -->
<g id="node22" class="node">
<title>Node22</title>
<g id="a_node22"><a xlink:href="result_8hpp.html" target="_top" xlink:title=" ">
<polygon fill="none" stroke="black" points="1021,-246.5 1021,-265.5 1123,-265.5 1123,-246.5 1021,-246.5"/>
<text text-anchor="middle" x="1072" y="-253.5" font-family="Helvetica,sans-Serif" font-size="10.00">yaclib/util/result.hpp</text>
</a>
</g>
</g>
<!-- Node2&#45;&gt;Node22 -->
<g id="edge31" class="edge">
<title>Node2&#45;&gt;Node22</title>
<path fill="none" stroke="midnightblue" d="M822.78,-436.27C872.35,-400.61 1001.51,-307.71 1051.67,-271.63"/>
<polygon fill="midnightblue" stroke="midnightblue" points="1054,-274.26 1060.08,-265.58 1049.91,-268.58 1054,-274.26"/>
</g>
<!-- Node4 -->
<g id="node4" class="node">
<title>Node4</title>
<g id="a_node4"><a xlink:href="inline__core_8hpp.html" target="_top" xlink:title=" ">
<polygon fill="none" stroke="black" points="304.5,-302.5 304.5,-332.5 393.5,-332.5 393.5,-302.5 304.5,-302.5"/>
<text text-anchor="start" x="312.5" y="-320.5" font-family="Helvetica,sans-Serif" font-size="10.00">yaclib/algo/detail</text>
<text text-anchor="middle" x="349" y="-309.5" font-family="Helvetica,sans-Serif" font-size="10.00">/inline_core.hpp</text>
</a>
</g>
</g>
<!-- Node3&#45;&gt;Node4 -->
<g id="edge3" class="edge">
<title>Node3&#45;&gt;Node4</title>
<path fill="none" stroke="midnightblue" d="M377.97,-369.4C373.32,-361.22 367.34,-350.73 362.03,-341.39"/>
<polygon fill="midnightblue" stroke="midnightblue" points="365,-339.54 357.01,-332.58 358.92,-343 365,-339.54"/>
</g>
<!-- Node5 -->
<g id="node5" class="node">
<title>Node5</title>
<g id="a_node5"><a xlink:title=" ">
<polygon fill="none" stroke="#bfbfbf" points="0,-246.5 0,-265.5 88,-265.5 88,-246.5 0,-246.5"/>
<text text-anchor="middle" x="44" y="-253.5" font-family="Helvetica,sans-Serif" font-size="10.00">yaclib/config.hpp</text>
</a>
</g>
</g>
<!-- Node3&#45;&gt;Node5 -->
<g id="edge14" class="edge">
<title>Node3&#45;&gt;Node5</title>
<path fill="none" stroke="midnightblue" d="M341.27,-379.25C257.43,-370.9 83.27,-351.52 63,-333 47.19,-318.55 43.64,-293.11 43.25,-275.68"/>
<polygon fill="midnightblue" stroke="midnightblue" points="46.75,-275.61 43.35,-265.57 39.75,-275.54 46.75,-275.61"/>
</g>
<!-- Node7 -->
<g id="node7" class="node">
<title>Node7</title>
<g id="a_node7"><a xlink:href="log_8hpp.html" target="_top" xlink:title=" ">
<polygon fill="none" stroke="black" points="314.5,-56.5 314.5,-75.5 389.5,-75.5 389.5,-56.5 314.5,-56.5"/>
<text text-anchor="middle" x="352" y="-63.5" font-family="Helvetica,sans-Serif" font-size="10.00">yaclib/log.hpp</text>
</a>
</g>
</g>
<!-- Node3&#45;&gt;Node7 -->
<g id="edge25" class="edge">
<title>Node3&#45;&gt;Node7</title>
<path fill="none" stroke="midnightblue" d="M393.2,-369.34C400.59,-352.83 409.97,-324.87 402,-302 384.82,-252.71 355.54,-254.95 329,-210 312.59,-182.21 307.35,-174.64 301,-143 298.29,-129.49 295.33,-124.56 301,-112 306.62,-99.56 317.56,-89.17 327.88,-81.53"/>
<polygon fill="midnightblue" stroke="midnightblue" points="330.01,-84.31 336.27,-75.76 326.04,-78.54 330.01,-84.31"/>
</g>
<!-- Node11 -->
<g id="node11" class="node">
<title>Node11</title>
<g id="a_node11"><a xlink:href="ref_8hpp.html" target="_top" xlink:title=" ">
<polygon fill="none" stroke="black" points="585.5,-56.5 585.5,-75.5 674.5,-75.5 674.5,-56.5 585.5,-56.5"/>
<text text-anchor="middle" x="630" y="-63.5" font-family="Helvetica,sans-Serif" font-size="10.00">yaclib/util/ref.hpp</text>
</a>
</g>
</g>
<!-- Node3&#45;&gt;Node11 -->
<g id="edge26" class="edge">
<title>Node3&#45;&gt;Node11</title>
<path fill="none" stroke="midnightblue" d="M401.33,-369.15C423.01,-347.22 460,-303.05 460,-257 460,-257 460,-257 460,-193.5 460,-156.31 453.51,-139.08 479,-112 503.7,-85.76 542.97,-74.61 575.27,-69.97"/>
<polygon fill="midnightblue" stroke="midnightblue" points="576,-73.4 585.48,-68.68 575.12,-66.46 576,-73.4"/>
</g>
<!-- Node14 -->
<g id="node14" class="node">
<title>Node14</title>
<g id="a_node14"><a xlink:href="executor_8hpp.html" target="_top" xlink:title=" ">
<polygon fill="none" stroke="black" points="504.5,-246.5 504.5,-265.5 621.5,-265.5 621.5,-246.5 504.5,-246.5"/>
<text text-anchor="middle" x="563" y="-253.5" font-family="Helvetica,sans-Serif" font-size="10.00">yaclib/exe/executor.hpp</text>
</a>
</g>
</g>
<!-- Node3&#45;&gt;Node14 -->
<g id="edge15" class="edge">
<title>Node3&#45;&gt;Node14</title>
<path fill="none" stroke="midnightblue" d="M413.37,-369.5C431.15,-359.99 454.56,-346.7 474,-333 500.83,-314.09 529.25,-288.78 546.56,-272.68"/>
<polygon fill="midnightblue" stroke="midnightblue" points="549.22,-274.98 554.11,-265.58 544.42,-269.88 549.22,-274.98"/>
</g>
<!-- Node17 -->
<g id="node17" class="node">
<title>Node17</title>
<g id="a_node17"><a xlink:href="inline_8hpp.html" target="_top" xlink:title=" ">
<polygon fill="none" stroke="black" points="526.5,-308 526.5,-327 629.5,-327 629.5,-308 526.5,-308"/>
<text text-anchor="middle" x="578" y="-315" font-family="Helvetica,sans-Serif" font-size="10.00">yaclib/exe/inline.hpp</text>
</a>
</g>
</g>
<!-- Node3&#45;&gt;Node17 -->
<g id="edge22" class="edge">
<title>Node3&#45;&gt;Node17</title>
<path fill="none" stroke="midnightblue" d="M427.66,-369.4C462.24,-357.69 510.86,-341.23 543.34,-330.23"/>
<polygon fill="midnightblue" stroke="midnightblue" points="544.52,-333.53 552.87,-327.01 542.28,-326.9 544.52,-333.53"/>
</g>
<!-- Node19 -->
<g id="node19" class="node">
<title>Node19</title>
<g id="a_node19"><a xlink:title=" ">
<polygon fill="none" stroke="#bfbfbf" points="72,-308 72,-327 118,-327 118,-308 72,-308"/>
<text text-anchor="middle" x="95" y="-315" font-family="Helvetica,sans-Serif" font-size="10.00">cstdint</text>
</a>
</g>
</g>
<!-- Node3&#45;&gt;Node19 -->
<g id="edge27" class="edge">
<title>Node3&#45;&gt;Node19</title>
<path fill="none" stroke="midnightblue" d="M341.22,-378C288.95,-370.84 200.32,-356.41 127,-333 125.13,-332.4 123.22,-331.72 121.31,-331"/>
<polygon fill="midnightblue" stroke="midnightblue" points="122.56,-327.72 111.98,-327.08 119.85,-334.18 122.56,-327.72"/>
</g>
<!-- Node20 -->
<g id="node20" class="node">
<title>Node20</title>
<g id="a_node20"><a xlink:title=" ">
<polygon fill="none" stroke="#bfbfbf" points="136,-308 136,-327 176,-327 176,-308 136,-308"/>
<text text-anchor="middle" x="156" y="-315" font-family="Helvetica,sans-Serif" font-size="10.00">limits</text>
</a>
</g>
</g>
<!-- Node3&#45;&gt;Node20 -->
<g id="edge28" class="edge">
<title>Node3&#45;&gt;Node20</title>
<path fill="none" stroke="midnightblue" d="M341.25,-375.17C299.95,-366.8 237.29,-352.38 185,-333 183.61,-332.49 182.21,-331.93 180.8,-331.33"/>
<polygon fill="midnightblue" stroke="midnightblue" points="182.22,-328.14 171.68,-327.12 179.29,-334.49 182.22,-328.14"/>
</g>
<!-- Node21 -->
<g id="node21" class="node">
<title>Node21</title>
<g id="a_node21"><a xlink:title=" ">
<polygon fill="none" stroke="#bfbfbf" points="194,-308 194,-327 286,-327 286,-308 194,-308"/>
<text text-anchor="middle" x="240" y="-315" font-family="Helvetica,sans-Serif" font-size="10.00">yaclib_std/atomic</text>
</a>
</g>
</g>
<!-- Node3&#45;&gt;Node21 -->
<g id="edge29" class="edge">
<title>Node3&#45;&gt;Node21</title>
<path fill="none" stroke="midnightblue" d="M354.32,-369.4C328.7,-357.99 292.96,-342.08 268.3,-331.1"/>
<polygon fill="midnightblue" stroke="midnightblue" points="269.67,-327.88 259.11,-327.01 266.82,-334.27 269.67,-327.88"/>
</g>
<!-- Node4&#45;&gt;Node5 -->
<g id="edge4" class="edge">
<title>Node4&#45;&gt;Node5</title>
<path fill="none" stroke="midnightblue" d="M304.28,-304.18C301.15,-303.41 298.03,-302.68 295,-302 227.7,-286.96 149.37,-273.56 98.35,-265.38"/>
<polygon fill="midnightblue" stroke="midnightblue" points="98.63,-261.88 88.21,-263.76 97.53,-268.79 98.63,-261.88"/>
</g>
<!-- Node6 -->
<g id="node6" class="node">
<title>Node6</title>
<g id="a_node6"><a xlink:href="job_8hpp.html" target="_top" xlink:title=" ">
<polygon fill="none" stroke="black" points="338.5,-185 338.5,-204 431.5,-204 431.5,-185 338.5,-185"/>
<text text-anchor="middle" x="385" y="-192" font-family="Helvetica,sans-Serif" font-size="10.00">yaclib/exe/job.hpp</text>
</a>
</g>
</g>
<!-- Node4&#45;&gt;Node6 -->
<g id="edge5" class="edge">
<title>Node4&#45;&gt;Node6</title>
<path fill="none" stroke="midnightblue" d="M353.27,-302.14C359.83,-280.1 372.37,-237.95 379.57,-213.76"/>
<polygon fill="midnightblue" stroke="midnightblue" points="382.96,-214.64 382.46,-204.05 376.25,-212.64 382.96,-214.64"/>
</g>
<!-- Node4&#45;&gt;Node7 -->
<g id="edge13" class="edge">
<title>Node4&#45;&gt;Node7</title>
<path fill="none" stroke="midnightblue" d="M334.9,-302.39C302.44,-268.13 228.18,-178.51 268,-112 277.15,-96.72 293.46,-86.33 309.29,-79.43"/>
<polygon fill="midnightblue" stroke="midnightblue" points="311.01,-82.51 319.01,-75.56 308.43,-76 311.01,-82.51"/>
</g>
<!-- Node6&#45;&gt;Node7 -->
<g id="edge6" class="edge">
<title>Node6&#45;&gt;Node7</title>
<path fill="none" stroke="midnightblue" d="M390.3,-184.56C398.7,-169.14 413.06,-136.82 402,-112 396.43,-99.5 385.48,-89.01 375.25,-81.32"/>
<polygon fill="midnightblue" stroke="midnightblue" points="377.16,-78.38 366.95,-75.53 373.15,-84.12 377.16,-78.38"/>
</g>
<!-- Node9 -->
<g id="node9" class="node">
<title>Node9</title>
<g id="a_node9"><a xlink:href="node_8hpp.html" target="_top" xlink:title=" ">
<polygon fill="none" stroke="black" points="310.5,-112.5 310.5,-142.5 393.5,-142.5 393.5,-112.5 310.5,-112.5"/>
<text text-anchor="start" x="318.5" y="-130.5" font-family="Helvetica,sans-Serif" font-size="10.00">yaclib/util/detail</text>
<text text-anchor="middle" x="352" y="-119.5" font-family="Helvetica,sans-Serif" font-size="10.00">/node.hpp</text>
</a>
</g>
</g>
<!-- Node6&#45;&gt;Node9 -->
<g id="edge8" class="edge">
<title>Node6&#45;&gt;Node9</title>
<path fill="none" stroke="midnightblue" d="M380.55,-184.73C376.26,-176.29 369.59,-163.14 363.77,-151.68"/>
<polygon fill="midnightblue" stroke="midnightblue" points="366.8,-149.92 359.15,-142.59 360.56,-153.09 366.8,-149.92"/>
</g>
<!-- Node10 -->
<g id="node10" class="node">
<title>Node10</title>
<g id="a_node10"><a xlink:href="func_8hpp.html" target="_top" xlink:title=" ">
<polygon fill="none" stroke="black" points="658.5,-118 658.5,-137 755.5,-137 755.5,-118 658.5,-118"/>
<text text-anchor="middle" x="707" y="-125" font-family="Helvetica,sans-Serif" font-size="10.00">yaclib/util/func.hpp</text>
</a>
</g>
</g>
<!-- Node6&#45;&gt;Node10 -->
<g id="edge9" class="edge">
<title>Node6&#45;&gt;Node10</title>
<path fill="none" stroke="midnightblue" d="M427.43,-184.94C485.91,-173.13 591.22,-151.87 654.56,-139.09"/>
<polygon fill="midnightblue" stroke="midnightblue" points="655.63,-142.44 664.74,-137.03 654.24,-135.58 655.63,-142.44"/>
</g>
<!-- Node8 -->
<g id="node8" class="node">
<title>Node8</title>
<g id="a_node8"><a xlink:title=" ">
<polygon fill="none" stroke="#bfbfbf" points="319,-0.5 319,-19.5 385,-19.5 385,-0.5 319,-0.5"/>
<text text-anchor="middle" x="352" y="-7.5" font-family="Helvetica,sans-Serif" font-size="10.00">string_view</text>
</a>
</g>
</g>
<!-- Node7&#45;&gt;Node8 -->
<g id="edge7" class="edge">
<title>Node7&#45;&gt;Node8</title>
<path fill="none" stroke="midnightblue" d="M352,-56.08C352,-49.01 352,-38.86 352,-29.99"/>
<polygon fill="midnightblue" stroke="midnightblue" points="355.5,-29.75 352,-19.75 348.5,-29.75 355.5,-29.75"/>
</g>
<!-- Node10&#45;&gt;Node11 -->
<g id="edge10" class="edge">
<title>Node10&#45;&gt;Node11</title>
<path fill="none" stroke="midnightblue" d="M695.97,-117.98C683.73,-108.52 663.77,-93.1 649.01,-81.69"/>
<polygon fill="midnightblue" stroke="midnightblue" points="651.06,-78.85 641.01,-75.51 646.78,-84.39 651.06,-78.85"/>
</g>
<!-- Node12 -->
<g id="node12" class="node">
<title>Node12</title>
<g id="a_node12"><a xlink:title=" ">
<polygon fill="none" stroke="#bfbfbf" points="902,-56.5 902,-75.5 964,-75.5 964,-56.5 902,-56.5"/>
<text text-anchor="middle" x="933" y="-63.5" font-family="Helvetica,sans-Serif" font-size="10.00">type_traits</text>
</a>
</g>
</g>
<!-- Node10&#45;&gt;Node12 -->
<g id="edge11" class="edge">
<title>Node10&#45;&gt;Node12</title>
<path fill="none" stroke="midnightblue" d="M739.38,-117.98C779.58,-107.39 848.18,-89.33 892,-77.79"/>
<polygon fill="midnightblue" stroke="midnightblue" points="892.99,-81.15 901.77,-75.22 891.21,-74.38 892.99,-81.15"/>
</g>
<!-- Node10&#45;&gt;Node13 -->
<g id="edge12" class="edge">
<title>Node10&#45;&gt;Node13</title>
<path fill="none" stroke="midnightblue" d="M726.2,-117.98C748.79,-107.95 786.5,-91.2 812.5,-79.65"/>
<polygon fill="midnightblue" stroke="midnightblue" points="814.12,-82.77 821.84,-75.51 811.28,-76.37 814.12,-82.77"/>
</g>
<!-- Node14&#45;&gt;Node6 -->
<g id="edge16" class="edge">
<title>Node14&#45;&gt;Node6</title>
<path fill="none" stroke="midnightblue" d="M537.5,-246.48C506.7,-236.18 454.73,-218.81 420.15,-207.25"/>
<polygon fill="midnightblue" stroke="midnightblue" points="421.05,-203.86 410.46,-204.01 418.83,-210.5 421.05,-203.86"/>
</g>
<!-- Node14&#45;&gt;Node15 -->
<g id="edge17" class="edge">
<title>Node14&#45;&gt;Node15</title>
<path fill="none" stroke="midnightblue" d="M576.61,-246.48C589.72,-238.27 610.01,-225.56 627.05,-214.88"/>
<polygon fill="midnightblue" stroke="midnightblue" points="628.99,-217.8 635.61,-209.52 625.28,-211.86 628.99,-217.8"/>
</g>
<!-- Node15&#45;&gt;Node11 -->
<g id="edge18" class="edge">
<title>Node15&#45;&gt;Node11</title>
<path fill="none" stroke="midnightblue" d="M654.9,-179.48C649.84,-156.62 639.8,-111.3 634.14,-85.71"/>
<polygon fill="midnightblue" stroke="midnightblue" points="637.52,-84.8 631.95,-75.79 630.69,-86.31 637.52,-84.8"/>
</g>
<!-- Node15&#45;&gt;Node12 -->
<g id="edge19" class="edge">
<title>Node15&#45;&gt;Node12</title>
<path fill="none" stroke="midnightblue" d="M688.48,-179.48C742.21,-154.76 853.01,-103.8 904.96,-79.9"/>
<polygon fill="midnightblue" stroke="midnightblue" points="906.62,-82.99 914.24,-75.63 903.69,-76.63 906.62,-82.99"/>
</g>
<!-- Node16 -->
<g id="node16" class="node">
<title>Node16</title>
<g id="a_node16"><a xlink:href="intrusive__ptr__impl_8hpp.html" target="_top" xlink:title=" ">
<polygon fill="none" stroke="black" points="488,-112.5 488,-142.5 602,-142.5 602,-112.5 488,-112.5"/>
<text text-anchor="start" x="496" y="-130.5" font-family="Helvetica,sans-Serif" font-size="10.00">yaclib/util/detail</text>
<text text-anchor="middle" x="545" y="-119.5" font-family="Helvetica,sans-Serif" font-size="10.00">/intrusive_ptr_impl.hpp</text>
</a>
</g>
</g>
<!-- Node15&#45;&gt;Node16 -->
<g id="edge20" class="edge">
<title>Node15&#45;&gt;Node16</title>
<path fill="none" stroke="midnightblue" d="M633.48,-179.4C617.34,-170.11 596.01,-157.84 578.33,-147.67"/>
<polygon fill="midnightblue" stroke="midnightblue" points="579.88,-144.53 569.47,-142.58 576.39,-150.6 579.88,-144.53"/>
</g>
<!-- Node16&#45;&gt;Node7 -->
<g id="edge21" class="edge">
<title>Node16&#45;&gt;Node7</title>
<path fill="none" stroke="midnightblue" d="M499.26,-112.4C465.77,-102.07 420.87,-88.23 389.48,-78.56"/>
<polygon fill="midnightblue" stroke="midnightblue" points="390.39,-75.17 379.8,-75.57 388.33,-81.86 390.39,-75.17"/>
</g>
<!-- Node17&#45;&gt;Node14 -->
<g id="edge23" class="edge">
<title>Node17&#45;&gt;Node14</title>
<path fill="none" stroke="midnightblue" d="M575.85,-307.98C573.71,-299.49 570.36,-286.2 567.62,-275.32"/>
<polygon fill="midnightblue" stroke="midnightblue" points="570.98,-274.35 565.15,-265.51 564.2,-276.06 570.98,-274.35"/>
</g>
<!-- Node18 -->
<g id="node18" class="node">
<title>Node18</title>
<g id="a_node18"><a xlink:href="fwd_8hpp.html" target="_top" xlink:title=" ">
<polygon fill="none" stroke="black" points="1078,-56.5 1078,-75.5 1156,-75.5 1156,-56.5 1078,-56.5"/>
<text text-anchor="middle" x="1117" y="-63.5" font-family="Helvetica,sans-Serif" font-size="10.00">yaclib/fwd.hpp</text>
</a>
</g>
</g>
<!-- Node17&#45;&gt;Node18 -->
<g id="edge24" class="edge">
<title>Node17&#45;&gt;Node18</title>
<path fill="none" stroke="midnightblue" d="M629.8,-311.03C741.86,-298.32 1002.24,-263.69 1071,-210 1109.46,-179.97 1116.27,-117.45 1117.15,-85.97"/>
<polygon fill="midnightblue" stroke="midnightblue" points="1120.66,-85.6 1117.26,-75.56 1113.66,-85.53 1120.66,-85.6"/>
</g>
<!-- Node22&#45;&gt;Node13 -->
<g id="edge42" class="edge">
<title>Node22&#45;&gt;Node13</title>
<path fill="none" stroke="midnightblue" d="M1020.94,-247.8C991.92,-241.65 956.24,-230.39 930,-210 886.81,-176.45 859.22,-115.59 847.49,-85.24"/>
<polygon fill="midnightblue" stroke="midnightblue" points="850.66,-83.7 843.89,-75.54 844.09,-86.14 850.66,-83.7"/>
</g>
<!-- Node22&#45;&gt;Node18 -->
<g id="edge32" class="edge">
<title>Node22&#45;&gt;Node18</title>
<path fill="none" stroke="midnightblue" d="M1119.56,-246.44C1144.63,-239.93 1174.54,-228.77 1196,-210 1221.29,-187.88 1222.99,-175.63 1231,-143 1234.28,-129.62 1238.75,-123.39 1231,-112 1216.44,-90.6 1189.99,-79.38 1166.22,-73.49"/>
<polygon fill="midnightblue" stroke="midnightblue" points="1166.77,-70.03 1156.25,-71.28 1165.25,-76.86 1166.77,-70.03"/>
</g>
<!-- Node23 -->
<g id="node23" class="node">
<title>Node23</title>
<g id="a_node23"><a xlink:href="type__traits_8hpp.html" target="_top" xlink:title=" ">
<polygon fill="none" stroke="black" points="939.5,-185 939.5,-204 1062.5,-204 1062.5,-185 939.5,-185"/>
<text text-anchor="middle" x="1001" y="-192" font-family="Helvetica,sans-Serif" font-size="10.00">yaclib/util/type_traits.hpp</text>
</a>
</g>
</g>
<!-- Node22&#45;&gt;Node23 -->
<g id="edge33" class="edge">
<title>Node22&#45;&gt;Node23</title>
<path fill="none" stroke="midnightblue" d="M1061.83,-246.48C1050.65,-237.11 1032.48,-221.88 1018.91,-210.51"/>
<polygon fill="midnightblue" stroke="midnightblue" points="1021.07,-207.75 1011.15,-204.01 1016.57,-213.11 1021.07,-207.75"/>
</g>
<!-- Node22&#45;&gt;Node25 -->
<g id="edge41" class="edge">
<title>Node22&#45;&gt;Node25</title>
<path fill="none" stroke="midnightblue" d="M1112.15,-246.5C1133.48,-239.97 1158.44,-228.77 1174,-210 1188.67,-192.3 1192.47,-165.34 1193.22,-147.33"/>
<polygon fill="midnightblue" stroke="midnightblue" points="1196.72,-147.26 1193.37,-137.21 1189.73,-147.16 1196.72,-147.26"/>
</g>
<!-- Node26 -->
<g id="node26" class="node">
<title>Node26</title>
<g id="a_node26"><a xlink:title=" ">
<polygon fill="none" stroke="#bfbfbf" points="1119,-185 1119,-204 1165,-204 1165,-185 1119,-185"/>
<text text-anchor="middle" x="1142" y="-192" font-family="Helvetica,sans-Serif" font-size="10.00">variant</text>
</a>
</g>
</g>
<!-- Node22&#45;&gt;Node26 -->
<g id="edge43" class="edge">
<title>Node22&#45;&gt;Node26</title>
<path fill="none" stroke="midnightblue" d="M1082.03,-246.48C1093.05,-237.11 1110.96,-221.88 1124.34,-210.51"/>
<polygon fill="midnightblue" stroke="midnightblue" points="1126.64,-213.15 1131.99,-204.01 1122.1,-207.82 1126.64,-213.15"/>
</g>
<!-- Node23&#45;&gt;Node12 -->
<g id="edge39" class="edge">
<title>Node23&#45;&gt;Node12</title>
<path fill="none" stroke="midnightblue" d="M990.74,-184.85C980.31,-175.53 964.38,-159.76 955,-143 944.96,-125.06 939.14,-102.12 936.04,-86.16"/>
<polygon fill="midnightblue" stroke="midnightblue" points="939.42,-85.18 934.24,-75.94 932.52,-86.39 939.42,-85.18"/>
</g>
<!-- Node23&#45;&gt;Node13 -->
<g id="edge40" class="edge">
<title>Node23&#45;&gt;Node13</title>
<path fill="none" stroke="midnightblue" d="M990,-184.81C963.17,-163.59 894.08,-108.96 860.24,-82.22"/>
<polygon fill="midnightblue" stroke="midnightblue" points="862.09,-79.21 852.07,-75.76 857.75,-84.7 862.09,-79.21"/>
</g>
<!-- Node23&#45;&gt;Node18 -->
<g id="edge34" class="edge">
<title>Node23&#45;&gt;Node18</title>
<path fill="none" stroke="midnightblue" d="M1019.73,-184.99C1036.93,-176.4 1062.22,-161.75 1079,-143 1094.17,-126.05 1104.85,-101.94 1110.95,-85.45"/>
<polygon fill="midnightblue" stroke="midnightblue" points="1114.3,-86.46 1114.3,-75.86 1107.7,-84.15 1114.3,-86.46"/>
</g>
<!-- Node24 -->
<g id="node24" class="node">
<title>Node24</title>
<g id="a_node24"><a xlink:href="type__traits__impl_8hpp.html" target="_top" xlink:title=" ">
<polygon fill="none" stroke="black" points="964,-112.5 964,-142.5 1070,-142.5 1070,-112.5 964,-112.5"/>
<text text-anchor="start" x="972" y="-130.5" font-family="Helvetica,sans-Serif" font-size="10.00">yaclib/util/detail</text>
<text text-anchor="middle" x="1017" y="-119.5" font-family="Helvetica,sans-Serif" font-size="10.00">/type_traits_impl.hpp</text>
</a>
</g>
</g>
<!-- Node23&#45;&gt;Node24 -->
<g id="edge35" class="edge">
<title>Node23&#45;&gt;Node24</title>
<path fill="none" stroke="midnightblue" d="M1003.16,-184.73C1005.2,-176.46 1008.34,-163.66 1011.12,-152.37"/>
<polygon fill="midnightblue" stroke="midnightblue" points="1014.54,-153.14 1013.53,-142.59 1007.74,-151.46 1014.54,-153.14"/>
</g>
<!-- Node23&#45;&gt;Node25 -->
<g id="edge38" class="edge">
<title>Node23&#45;&gt;Node25</title>
<path fill="none" stroke="midnightblue" d="M1026.5,-184.87C1060.3,-173.42 1120.1,-153.18 1158.08,-140.32"/>
<polygon fill="midnightblue" stroke="midnightblue" points="1159.35,-143.59 1167.7,-137.06 1157.11,-136.96 1159.35,-143.59"/>
</g>
<!-- Node24&#45;&gt;Node12 -->
<g id="edge37" class="edge">
<title>Node24&#45;&gt;Node12</title>
<path fill="none" stroke="midnightblue" d="M997.09,-112.4C984.01,-103.13 966.92,-91.03 953.68,-81.65"/>
<polygon fill="midnightblue" stroke="midnightblue" points="955.41,-78.58 945.22,-75.66 951.36,-84.29 955.41,-78.58"/>
</g>
<!-- Node24&#45;&gt;Node18 -->
<g id="edge36" class="edge">
<title>Node24&#45;&gt;Node18</title>
<path fill="none" stroke="midnightblue" d="M1040.7,-112.4C1056.73,-102.86 1077.8,-90.32 1093.74,-80.84"/>
<polygon fill="midnightblue" stroke="midnightblue" points="1095.64,-83.78 1102.45,-75.66 1092.07,-77.76 1095.64,-83.78"/>
</g>
<!-- Node27&#45;&gt;Node5 -->
<g id="edge46" class="edge">
<title>Node27&#45;&gt;Node5</title>
<path fill="none" stroke="midnightblue" d="M88.88,-374.9C68.11,-367.48 42.65,-354.49 30,-333 19.4,-315 26.87,-290.78 34.35,-274.57"/>
<polygon fill="midnightblue" stroke="midnightblue" points="37.48,-276.14 38.85,-265.64 31.23,-273 37.48,-276.14"/>
</g>
<!-- Node29 -->
<g id="node29" class="node">
<title>Node29</title>
<g id="a_node29"><a xlink:href="default__deleter_8hpp.html" target="_top" xlink:title=" ">
<polygon fill="none" stroke="black" points="1307.5,-369.5 1307.5,-399.5 1408.5,-399.5 1408.5,-369.5 1307.5,-369.5"/>
<text text-anchor="start" x="1315.5" y="-387.5" font-family="Helvetica,sans-Serif" font-size="10.00">yaclib/util/detail</text>
<text text-anchor="middle" x="1358" y="-376.5" font-family="Helvetica,sans-Serif" font-size="10.00">/default_deleter.hpp</text>
</a>
</g>
</g>
<!-- Node28&#45;&gt;Node29 -->
<g id="edge48" class="edge">
<title>Node28&#45;&gt;Node29</title>
<path fill="none" stroke="midnightblue" d="M1358,-436.4C1358,-428.64 1358,-418.81 1358,-409.86"/>
<polygon fill="midnightblue" stroke="midnightblue" points="1361.5,-409.58 1358,-399.58 1354.5,-409.58 1361.5,-409.58"/>
</g>
</g>
</svg>
