<?xml version="1.0" encoding="UTF-8" standalone="no"?>
<!DOCTYPE svg PUBLIC "-//W3C//DTD SVG 1.1//EN"
 "http://www.w3.org/Graphics/SVG/1.1/DTD/svg11.dtd">
<!-- Generated by graphviz version 9.0.0 (20230911.1827)
 -->
<!-- Title: include/yaclib/async/promise.hpp Pages: 1 -->
<!--zoomable 548 -->

<svg id="main" version="1.1" xmlns="http://www.w3.org/2000/svg" xmlns:xlink="http://www.w3.org/1999/xlink" xml:space="preserve" onload="init(evt)">
<style type="text/css"><![CDATA[
.node, .edge {opacity: 0.7;}
.node.selected, .edge.selected {opacity: 1;}
.edge:hover path { stroke: red; }
.edge:hover polygon { stroke: red; fill: red; }
]]></style>

<defs>
  <circle id="rim" cx="0" cy="0" r="7"/>
  <circle id="rim2" cx="0" cy="0" r="3.5"/>
  <g id="zoomPlus">
    <use xlink:href="#rim" fill="#404040"><set attributeName="fill" to="#808080" begin="zoomplus.mouseover" end="zoomplus.mouseout"/></use>
    <path d="M-4,0h8M0,-4v8" fill="none" stroke="white" stroke-width="1.5" pointer-events="none"/>
  </g>
  <g id="zoomMin">
    <use xlink:href="#rim" fill="#404040"><set attributeName="fill" to="#808080" begin="zoomminus.mouseover" end="zoomminus.mouseout"/></use>
    <path d="M-4,0h8" fill="none" stroke="white" stroke-width="1.5" pointer-events="none"/>
  </g>
  <g id="arrowUp" transform="translate(30 24)">
    <use xlink:href="#rim"/>
    <path pointer-events="none" fill="none" stroke="white" stroke-width="1.5" d="M0,-3.0v7 M-2.5,-0.5L0,-3.0L2.5,-0.5"/>
  </g>
  <g id="arrowRight" transform="rotate(90) translate(36 -43)">
    <use xlink:href="#rim"/>
    <path pointer-events="none" fill="none" stroke="white" stroke-width="1.5" d="M0,-3.0v7 M-2.5,-0.5L0,-3.0L2.5,-0.5"/>
  </g>
  <g id="arrowDown" transform="rotate(180) translate(-30 -48)">
    <use xlink:href="#rim"/>
    <path pointer-events="none" fill="none" stroke="white" stroke-width="1.5" d="M0,-3.0v7 M-2.5,-0.5L0,-3.0L2.5,-0.5"/>
  </g>
  <g id="arrowLeft" transform="rotate(270) translate(-36 17)">
    <use xlink:href="#rim"/>
    <path pointer-events="none" fill="none" stroke="white" stroke-width="1.5" d="M0,-3.0v7 M-2.5,-0.5L0,-3.0L2.5,-0.5"/>
  </g>
  <g id="resetDef">
    <use xlink:href="#rim2" fill="#404040"><set attributeName="fill" to="#808080" begin="reset.mouseover" end="reset.mouseout"/></use>
  </g>
</defs>
<script type="application/ecmascript">
var viewWidth = 1087;
var viewHeight = 548;
var sectionId = 'dynsection-0';
</script>
<script type="application/ecmascript" xlink:href="svg.min.js"/>
<svg id="graph" class="graph">
<g id="viewport">
<title>include/yaclib/async/promise.hpp</title>
<!-- Node1 -->
<g id="Node000001" class="node">
<title>Node1</title>
<g id="a_Node000001"><a xlink:title=" ">
<polygon fill="#999999" stroke="#666666" points="893.5,-540 790.5,-540 790.5,-509.5 893.5,-509.5 893.5,-540"/>
<text text-anchor="start" x="798.5" y="-526.5" font-family="Helvetica,sans-Serif" font-size="10.00">include/yaclib/async</text>
<text text-anchor="middle" x="842" y="-515.25" font-family="Helvetica,sans-Serif" font-size="10.00">/promise.hpp</text>
</a>
</g>
</g>
<!-- Node2 -->
<g id="Node000002" class="node">
<title>Node2</title>
<g id="a_Node000002"><a xlink:href="result__core_8hpp.html" target="_top" xlink:title=" ">
<polygon fill="white" stroke="#666666" points="797,-473.5 709,-473.5 709,-443 797,-443 797,-473.5"/>
<text text-anchor="start" x="717" y="-460" font-family="Helvetica,sans-Serif" font-size="10.00">yaclib/algo/detail</text>
<text text-anchor="middle" x="753" y="-448.75" font-family="Helvetica,sans-Serif" font-size="10.00">/result_core.hpp</text>
</a>
</g>
</g>
<!-- Node1&#45;&gt;Node2 -->
<g id="edge1_Node000001_Node000002" class="edge">
<title>Node1&#45;&gt;Node2</title>
<g id="a_edge1_Node000001_Node000002"><a xlink:title=" ">
<path fill="none" stroke="#63b8ff" d="M821.8,-509.11C810.08,-500.62 795.12,-489.77 782.14,-480.37"/>
<polygon fill="#63b8ff" stroke="#63b8ff" points="784.49,-477.75 774.34,-474.72 780.38,-483.42 784.49,-477.75"/>
</a>
</g>
</g>
<!-- Node18 -->
<g id="Node000018" class="node">
<title>Node18</title>
<g id="a_Node000018"><a xlink:href="fwd_8hpp.html" target="_top" xlink:title=" ">
<polygon fill="white" stroke="#666666" points="863.75,-201.88 786.25,-201.88 786.25,-182.62 863.75,-182.62 863.75,-201.88"/>
<text text-anchor="middle" x="825" y="-188.38" font-family="Helvetica,sans-Serif" font-size="10.00">yaclib/fwd.hpp</text>
</a>
</g>
</g>
<!-- Node1&#45;&gt;Node18 -->
<g id="edge45_Node000001_Node000018" class="edge">
<title>Node1&#45;&gt;Node18</title>
<g id="a_edge45_Node000001_Node000018"><a xlink:title=" ">
<path fill="none" stroke="#63b8ff" d="M856.15,-509.26C896.72,-465.9 1006.79,-334.58 946,-243.5 930.21,-219.85 900.99,-207.32 875.22,-200.68"/>
<polygon fill="#63b8ff" stroke="#63b8ff" points="876.07,-197.28 865.54,-198.45 874.5,-204.1 876.07,-197.28"/>
</a>
</g>
</g>
<!-- Node23 -->
<g id="Node000023" class="node">
<title>Node23</title>
<g id="a_Node000023"><a xlink:href="type__traits_8hpp.html" target="_top" xlink:title=" ">
<polygon fill="white" stroke="#666666" points="903.25,-334.88 780.75,-334.88 780.75,-315.62 903.25,-315.62 903.25,-334.88"/>
<text text-anchor="middle" x="842" y="-321.38" font-family="Helvetica,sans-Serif" font-size="10.00">yaclib/util/type_traits.hpp</text>
</a>
</g>
</g>
<!-- Node1&#45;&gt;Node23 -->
<g id="edge46_Node000001_Node000023" class="edge">
<title>Node1&#45;&gt;Node23</title>
<g id="a_edge46_Node000001_Node000023"><a xlink:title=" ">
<path fill="none" stroke="#63b8ff" d="M842,-509.23C842,-474.42 842,-386.16 842,-346.31"/>
<polygon fill="#63b8ff" stroke="#63b8ff" points="845.5,-346.52 842,-336.52 838.5,-346.52 845.5,-346.52"/>
</a>
</g>
</g>
<!-- Node3 -->
<g id="Node000003" class="node">
<title>Node3</title>
<g id="a_Node000003"><a xlink:href="base__core_8hpp.html" target="_top" xlink:title=" ">
<polygon fill="white" stroke="#666666" points="341,-407 253,-407 253,-376.5 341,-376.5 341,-407"/>
<text text-anchor="start" x="261" y="-393.5" font-family="Helvetica,sans-Serif" font-size="10.00">yaclib/algo/detail</text>
<text text-anchor="middle" x="297" y="-382.25" font-family="Helvetica,sans-Serif" font-size="10.00">/base_core.hpp</text>
</a>
</g>
</g>
<!-- Node2&#45;&gt;Node3 -->
<g id="edge2_Node000002_Node000003" class="edge">
<title>Node2&#45;&gt;Node3</title>
<g id="a_edge2_Node000002_Node000003"><a xlink:title=" ">
<path fill="none" stroke="#63b8ff" d="M708.86,-451.01C625.38,-439.2 444.5,-413.61 352.76,-400.64"/>
<polygon fill="#63b8ff" stroke="#63b8ff" points="353.39,-397.19 343,-399.26 352.41,-404.12 353.39,-397.19"/>
</a>
</g>
</g>
<!-- Node13 -->
<g id="Node000013" class="node">
<title>Node13</title>
<g id="a_Node000013"><a xlink:title=" ">
<polygon fill="#e0e0e0" stroke="#999999" points="1022.25,-74.5 983.75,-74.5 983.75,-55.25 1022.25,-55.25 1022.25,-74.5"/>
<text text-anchor="middle" x="1003" y="-61" font-family="Helvetica,sans-Serif" font-size="10.00">utility</text>
</a>
</g>
</g>
<!-- Node2&#45;&gt;Node13 -->
<g id="edge44_Node000002_Node000013" class="edge">
<title>Node2&#45;&gt;Node13</title>
<g id="a_edge44_Node000002_Node000013"><a xlink:title=" ">
<path fill="none" stroke="#63b8ff" d="M797.31,-451.33C886.44,-436.68 1079,-389.95 1079,-259.75 1079,-259.75 1079,-259.75 1079,-191.25 1079,-146.98 1043.92,-105 1021.43,-82.63"/>
<polygon fill="#63b8ff" stroke="#63b8ff" points="1023.99,-80.23 1014.34,-75.84 1019.15,-85.28 1023.99,-80.23"/>
</a>
</g>
</g>
<!-- Node15 -->
<g id="Node000015" class="node">
<title>Node15</title>
<g id="a_Node000015"><a xlink:href="intrusive__ptr_8hpp.html" target="_top" xlink:title=" ">
<polygon fill="white" stroke="#666666" points="495.12,-207.5 398.88,-207.5 398.88,-177 495.12,-177 495.12,-207.5"/>
<text text-anchor="start" x="406.88" y="-194" font-family="Helvetica,sans-Serif" font-size="10.00">yaclib/util/intrusive</text>
<text text-anchor="middle" x="447" y="-182.75" font-family="Helvetica,sans-Serif" font-size="10.00">_ptr.hpp</text>
</a>
</g>
</g>
<!-- Node2&#45;&gt;Node15 -->
<g id="edge30_Node000002_Node000015" class="edge">
<title>Node2&#45;&gt;Node15</title>
<g id="a_edge30_Node000002_Node000015"><a xlink:title=" ">
<path fill="none" stroke="#63b8ff" d="M734.84,-442.66C722.77,-432.81 706.69,-419.41 693,-407 647.35,-365.64 640.18,-350.77 594,-310 554.32,-274.97 505.81,-237.39 475.66,-214.6"/>
<polygon fill="#63b8ff" stroke="#63b8ff" points="477.85,-211.87 467.76,-208.66 473.64,-217.46 477.85,-211.87"/>
</a>
</g>
</g>
<!-- Node22 -->
<g id="Node000022" class="node">
<title>Node22</title>
<g id="a_Node000022"><a xlink:href="result_8hpp.html" target="_top" xlink:title=" ">
<polygon fill="white" stroke="#666666" points="803.75,-401.38 702.25,-401.38 702.25,-382.12 803.75,-382.12 803.75,-401.38"/>
<text text-anchor="middle" x="753" y="-387.88" font-family="Helvetica,sans-Serif" font-size="10.00">yaclib/util/result.hpp</text>
</a>
</g>
</g>
<!-- Node2&#45;&gt;Node22 -->
<g id="edge31_Node000002_Node000022" class="edge">
<title>Node2&#45;&gt;Node22</title>
<g id="a_edge31_Node000002_Node000022"><a xlink:title=" ">
<path fill="none" stroke="#63b8ff" d="M753,-442.61C753,-433.83 753,-422.52 753,-412.9"/>
<polygon fill="#63b8ff" stroke="#63b8ff" points="756.5,-413.09 753,-403.09 749.5,-413.09 756.5,-413.09"/>
</a>
</g>
</g>
<!-- Node4 -->
<g id="Node000004" class="node">
<title>Node4</title>
<g id="a_Node000004"><a xlink:href="inline__core_8hpp.html" target="_top" xlink:title=" ">
<polygon fill="white" stroke="#666666" points="158,-340.5 70,-340.5 70,-310 158,-310 158,-340.5"/>
<text text-anchor="start" x="78" y="-327" font-family="Helvetica,sans-Serif" font-size="10.00">yaclib/algo/detail</text>
<text text-anchor="middle" x="114" y="-315.75" font-family="Helvetica,sans-Serif" font-size="10.00">/inline_core.hpp</text>
</a>
</g>
</g>
<!-- Node3&#45;&gt;Node4 -->
<g id="edge3_Node000003_Node000004" class="edge">
<title>Node3&#45;&gt;Node4</title>
<g id="a_edge3_Node000003_Node000004"><a xlink:title=" ">
<path fill="none" stroke="#63b8ff" d="M255.47,-376.11C229.01,-366.79 194.5,-354.62 166.19,-344.65"/>
<polygon fill="#63b8ff" stroke="#63b8ff" points="167.7,-341.47 157.11,-341.44 165.37,-348.07 167.7,-341.47"/>
</a>
</g>
</g>
<!-- Node5 -->
<g id="Node000005" class="node">
<title>Node5</title>
<g id="a_Node000005"><a xlink:title=" ">
<polygon fill="#e0e0e0" stroke="#999999" points="229.62,-268.38 142.38,-268.38 142.38,-249.12 229.62,-249.12 229.62,-268.38"/>
<text text-anchor="middle" x="186" y="-254.88" font-family="Helvetica,sans-Serif" font-size="10.00">yaclib/config.hpp</text>
</a>
</g>
</g>
<!-- Node3&#45;&gt;Node5 -->
<g id="edge14_Node000003_Node000005" class="edge">
<title>Node3&#45;&gt;Node5</title>
<g id="a_edge14_Node000003_Node000005"><a xlink:title=" ">
<path fill="none" stroke="#63b8ff" d="M253.67,-376.12C236.16,-368.15 217.24,-356.57 205,-340.5 191.72,-323.07 187.52,-297.83 186.29,-280.23"/>
<polygon fill="#63b8ff" stroke="#63b8ff" points="189.79,-280.11 185.89,-270.26 182.79,-280.39 189.79,-280.11"/>
</a>
</g>
</g>
<!-- Node7 -->
<g id="Node000007" class="node">
<title>Node7</title>
<g id="a_Node000007"><a xlink:href="log_8hpp.html" target="_top" xlink:title=" ">
<polygon fill="white" stroke="#666666" points="94.25,-74.5 19.75,-74.5 19.75,-55.25 94.25,-55.25 94.25,-74.5"/>
<text text-anchor="middle" x="57" y="-61" font-family="Helvetica,sans-Serif" font-size="10.00">yaclib/log.hpp</text>
</a>
</g>
</g>
<!-- Node3&#45;&gt;Node7 -->
<g id="edge25_Node000003_Node000007" class="edge">
<title>Node3&#45;&gt;Node7</title>
<g id="a_edge25_Node000003_Node000007"><a xlink:title=" ">
<path fill="none" stroke="#63b8ff" d="M252.54,-390.64C169.68,-387.84 0,-368.8 0,-259.75 0,-259.75 0,-259.75 0,-191.25 0,-150.01 25.87,-107.43 42.76,-84.03"/>
<polygon fill="#63b8ff" stroke="#63b8ff" points="45.44,-86.29 48.64,-76.19 39.84,-82.09 45.44,-86.29"/>
</a>
</g>
</g>
<!-- Node11 -->
<g id="Node000011" class="node">
<title>Node11</title>
<g id="a_Node000011"><a xlink:href="ref_8hpp.html" target="_top" xlink:title=" ">
<polygon fill="white" stroke="#666666" points="491.38,-74.5 402.62,-74.5 402.62,-55.25 491.38,-55.25 491.38,-74.5"/>
<text text-anchor="middle" x="447" y="-61" font-family="Helvetica,sans-Serif" font-size="10.00">yaclib/util/ref.hpp</text>
</a>
</g>
</g>
<!-- Node3&#45;&gt;Node11 -->
<g id="edge26_Node000003_Node000011" class="edge">
<title>Node3&#45;&gt;Node11</title>
<g id="a_edge26_Node000003_Node000011"><a xlink:title=" ">
<path fill="none" stroke="#63b8ff" d="M252.71,-387.8C191.17,-382.67 84.66,-369.72 61,-340.5 52.47,-329.96 57.83,-323.18 61,-310 84.31,-213.18 82.36,-168.93 163,-110.5 198.49,-84.79 318.92,-73.35 391.07,-68.71"/>
<polygon fill="#63b8ff" stroke="#63b8ff" points="390.93,-72.22 400.7,-68.11 390.5,-65.23 390.93,-72.22"/>
</a>
</g>
</g>
<!-- Node14 -->
<g id="Node000014" class="node">
<title>Node14</title>
<g id="a_Node000014"><a xlink:href="executor_8hpp.html" target="_top" xlink:title=" ">
<polygon fill="white" stroke="#666666" points="487.25,-268.38 370.75,-268.38 370.75,-249.12 487.25,-249.12 487.25,-268.38"/>
<text text-anchor="middle" x="429" y="-254.88" font-family="Helvetica,sans-Serif" font-size="10.00">yaclib/exe/executor.hpp</text>
</a>
</g>
</g>
<!-- Node3&#45;&gt;Node14 -->
<g id="edge15_Node000003_Node000014" class="edge">
<title>Node3&#45;&gt;Node14</title>
<g id="a_edge15_Node000003_Node000014"><a xlink:title=" ">
<path fill="none" stroke="#63b8ff" d="M304.87,-376.1C314.59,-358.89 332.39,-330.16 353,-310 367.33,-295.98 386.1,-283.53 401.4,-274.52"/>
<polygon fill="#63b8ff" stroke="#63b8ff" points="403.07,-277.6 410.03,-269.61 399.61,-271.52 403.07,-277.6"/>
</a>
</g>
</g>
<!-- Node17 -->
<g id="Node000017" class="node">
<title>Node17</title>
<g id="a_Node000017"><a xlink:href="inline_8hpp.html" target="_top" xlink:title=" ">
<polygon fill="white" stroke="#666666" points="585.12,-334.88 482.88,-334.88 482.88,-315.62 585.12,-315.62 585.12,-334.88"/>
<text text-anchor="middle" x="534" y="-321.38" font-family="Helvetica,sans-Serif" font-size="10.00">yaclib/exe/inline.hpp</text>
</a>
</g>
</g>
<!-- Node3&#45;&gt;Node17 -->
<g id="edge22_Node000003_Node000017" class="edge">
<title>Node3&#45;&gt;Node17</title>
<g id="a_edge22_Node000003_Node000017"><a xlink:title=" ">
<path fill="none" stroke="#63b8ff" d="M341.3,-378.69C383.64,-367.17 447.13,-349.89 489.53,-338.35"/>
<polygon fill="#63b8ff" stroke="#63b8ff" points="490.43,-341.73 499.16,-335.73 488.59,-334.98 490.43,-341.73"/>
</a>
</g>
</g>
<!-- Node19 -->
<g id="Node000019" class="node">
<title>Node19</title>
<g id="a_Node000019"><a xlink:title=" ">
<polygon fill="#e0e0e0" stroke="#999999" points="407.62,-334.88 362.38,-334.88 362.38,-315.62 407.62,-315.62 407.62,-334.88"/>
<text text-anchor="middle" x="385" y="-321.38" font-family="Helvetica,sans-Serif" font-size="10.00">cstdint</text>
</a>
</g>
</g>
<!-- Node3&#45;&gt;Node19 -->
<g id="edge27_Node000003_Node000019" class="edge">
<title>Node3&#45;&gt;Node19</title>
<g id="a_edge27_Node000003_Node000019"><a xlink:title=" ">
<path fill="none" stroke="#63b8ff" d="M316.97,-376.11C330.89,-365.91 349.45,-352.3 363.67,-341.88"/>
<polygon fill="#63b8ff" stroke="#63b8ff" points="365.49,-344.89 371.49,-336.15 361.35,-339.24 365.49,-344.89"/>
</a>
</g>
</g>
<!-- Node20 -->
<g id="Node000020" class="node">
<title>Node20</title>
<g id="a_Node000020"><a xlink:title=" ">
<polygon fill="#e0e0e0" stroke="#999999" points="464.62,-334.88 425.38,-334.88 425.38,-315.62 464.62,-315.62 464.62,-334.88"/>
<text text-anchor="middle" x="445" y="-321.38" font-family="Helvetica,sans-Serif" font-size="10.00">limits</text>
</a>
</g>
</g>
<!-- Node3&#45;&gt;Node20 -->
<g id="edge28_Node000003_Node000020" class="edge">
<title>Node3&#45;&gt;Node20</title>
<g id="a_edge28_Node000003_Node000020"><a xlink:title=" ">
<path fill="none" stroke="#63b8ff" d="M334.07,-376.06C357.95,-366.39 389.54,-353.22 417,-340.5 417.11,-340.45 417.22,-340.4 417.33,-340.35"/>
<polygon fill="#63b8ff" stroke="#63b8ff" points="418.8,-343.53 426.26,-336.01 415.74,-337.23 418.8,-343.53"/>
</a>
</g>
</g>
<!-- Node21 -->
<g id="Node000021" class="node">
<title>Node21</title>
<g id="a_Node000021"><a xlink:title=" ">
<polygon fill="#e0e0e0" stroke="#999999" points="305.88,-334.88 214.12,-334.88 214.12,-315.62 305.88,-315.62 305.88,-334.88"/>
<text text-anchor="middle" x="260" y="-321.38" font-family="Helvetica,sans-Serif" font-size="10.00">yaclib_std/atomic</text>
</a>
</g>
</g>
<!-- Node3&#45;&gt;Node21 -->
<g id="edge29_Node000003_Node000021" class="edge">
<title>Node3&#45;&gt;Node21</title>
<g id="a_edge29_Node000003_Node000021"><a xlink:title=" ">
<path fill="none" stroke="#63b8ff" d="M288.6,-376.11C283.28,-366.83 276.35,-354.75 270.64,-344.8"/>
<polygon fill="#63b8ff" stroke="#63b8ff" points="273.83,-343.32 265.81,-336.39 267.75,-346.8 273.83,-343.32"/>
</a>
</g>
</g>
<!-- Node4&#45;&gt;Node5 -->
<g id="edge4_Node000004_Node000005" class="edge">
<title>Node4&#45;&gt;Node5</title>
<g id="a_edge4_Node000004_Node000005"><a xlink:title=" ">
<path fill="none" stroke="#63b8ff" d="M130.34,-309.61C141.47,-299.64 156.22,-286.43 167.74,-276.11"/>
<polygon fill="#63b8ff" stroke="#63b8ff" points="169.91,-278.86 175.02,-269.58 165.24,-273.65 169.91,-278.86"/>
</a>
</g>
</g>
<!-- Node6 -->
<g id="Node000006" class="node">
<title>Node6</title>
<g id="a_Node000006"><a xlink:href="job_8hpp.html" target="_top" xlink:title=" ">
<polygon fill="white" stroke="#666666" points="259.25,-201.88 166.75,-201.88 166.75,-182.62 259.25,-182.62 259.25,-201.88"/>
<text text-anchor="middle" x="213" y="-188.38" font-family="Helvetica,sans-Serif" font-size="10.00">yaclib/exe/job.hpp</text>
</a>
</g>
</g>
<!-- Node4&#45;&gt;Node6 -->
<g id="edge5_Node000004_Node000006" class="edge">
<title>Node4&#45;&gt;Node6</title>
<g id="a_edge5_Node000004_Node000006"><a xlink:title=" ">
<path fill="none" stroke="#63b8ff" d="M114.17,-309.78C115.06,-292.49 118.76,-263.42 133,-243.5 144.42,-227.52 162.67,-215.49 178.85,-207.22"/>
<polygon fill="#63b8ff" stroke="#63b8ff" points="180.22,-210.44 187.73,-202.97 177.2,-204.13 180.22,-210.44"/>
</a>
</g>
</g>
<!-- Node4&#45;&gt;Node7 -->
<g id="edge13_Node000004_Node000007" class="edge">
<title>Node4&#45;&gt;Node7</title>
<g id="a_edge13_Node000004_Node000007"><a xlink:title=" ">
<path fill="none" stroke="#63b8ff" d="M110.77,-309.62C101.13,-265.92 72.53,-136.28 61.45,-86.06"/>
<polygon fill="#63b8ff" stroke="#63b8ff" points="64.88,-85.35 59.31,-76.34 58.05,-86.86 64.88,-85.35"/>
</a>
</g>
</g>
<!-- Node6&#45;&gt;Node7 -->
<g id="edge6_Node000006_Node000007" class="edge">
<title>Node6&#45;&gt;Node7</title>
<g id="a_edge6_Node000006_Node000007"><a xlink:title=" ">
<path fill="none" stroke="#63b8ff" d="M201.78,-182.23C175.58,-161.18 110.1,-108.55 76.93,-81.89"/>
<polygon fill="#63b8ff" stroke="#63b8ff" points="79.28,-79.29 69.3,-75.76 74.9,-84.75 79.28,-79.29"/>
</a>
</g>
</g>
<!-- Node9 -->
<g id="Node000009" class="node">
<title>Node9</title>
<g id="a_Node000009"><a xlink:href="node_8hpp.html" target="_top" xlink:title=" ">
<polygon fill="white" stroke="#666666" points="254.38,-141 171.62,-141 171.62,-110.5 254.38,-110.5 254.38,-141"/>
<text text-anchor="start" x="179.62" y="-127.5" font-family="Helvetica,sans-Serif" font-size="10.00">yaclib/util/detail</text>
<text text-anchor="middle" x="213" y="-116.25" font-family="Helvetica,sans-Serif" font-size="10.00">/node.hpp</text>
</a>
</g>
</g>
<!-- Node6&#45;&gt;Node9 -->
<g id="edge8_Node000006_Node000009" class="edge">
<title>Node6&#45;&gt;Node9</title>
<g id="a_edge8_Node000006_Node000009"><a xlink:title=" ">
<path fill="none" stroke="#63b8ff" d="M213,-182.28C213,-174.54 213,-162.95 213,-152.37"/>
<polygon fill="#63b8ff" stroke="#63b8ff" points="216.5,-152.61 213,-142.61 209.5,-152.61 216.5,-152.61"/>
</a>
</g>
</g>
<!-- Node10 -->
<g id="Node000010" class="node">
<title>Node10</title>
<g id="a_Node000010"><a xlink:href="func_8hpp.html" target="_top" xlink:title=" ">
<polygon fill="white" stroke="#666666" points="583.12,-135.38 486.88,-135.38 486.88,-116.12 583.12,-116.12 583.12,-135.38"/>
<text text-anchor="middle" x="535" y="-121.88" font-family="Helvetica,sans-Serif" font-size="10.00">yaclib/util/func.hpp</text>
</a>
</g>
</g>
<!-- Node6&#45;&gt;Node10 -->
<g id="edge9_Node000006_Node000010" class="edge">
<title>Node6&#45;&gt;Node10</title>
<g id="a_edge9_Node000006_Node000010"><a xlink:title=" ">
<path fill="none" stroke="#63b8ff" d="M258.45,-182.15C316.14,-170.59 415.67,-150.65 478.28,-138.11"/>
<polygon fill="#63b8ff" stroke="#63b8ff" points="478.92,-141.55 488.04,-136.16 477.54,-134.69 478.92,-141.55"/>
</a>
</g>
</g>
<!-- Node8 -->
<g id="Node000008" class="node">
<title>Node8</title>
<g id="a_Node000008"><a xlink:title=" ">
<polygon fill="#e0e0e0" stroke="#999999" points="89.75,-19.25 24.25,-19.25 24.25,0 89.75,0 89.75,-19.25"/>
<text text-anchor="middle" x="57" y="-5.75" font-family="Helvetica,sans-Serif" font-size="10.00">string_view</text>
</a>
</g>
</g>
<!-- Node7&#45;&gt;Node8 -->
<g id="edge7_Node000007_Node000008" class="edge">
<title>Node7&#45;&gt;Node8</title>
<g id="a_edge7_Node000007_Node000008"><a xlink:title=" ">
<path fill="none" stroke="#63b8ff" d="M57,-55.08C57,-48.57 57,-39.42 57,-31.12"/>
<polygon fill="#63b8ff" stroke="#63b8ff" points="60.5,-31.12 57,-21.12 53.5,-31.12 60.5,-31.12"/>
</a>
</g>
</g>
<!-- Node10&#45;&gt;Node11 -->
<g id="edge10_Node000010_Node000011" class="edge">
<title>Node10&#45;&gt;Node11</title>
<g id="a_edge10_Node000010_Node000011"><a xlink:title=" ">
<path fill="none" stroke="#63b8ff" d="M521.63,-115.81C507.94,-106.64 486.38,-92.22 469.94,-81.23"/>
<polygon fill="#63b8ff" stroke="#63b8ff" points="472.01,-78.39 461.75,-75.74 468.11,-84.21 472.01,-78.39"/>
</a>
</g>
</g>
<!-- Node12 -->
<g id="Node000012" class="node">
<title>Node12</title>
<g id="a_Node000012"><a xlink:title=" ">
<polygon fill="#e0e0e0" stroke="#999999" points="732.5,-74.5 671.5,-74.5 671.5,-55.25 732.5,-55.25 732.5,-74.5"/>
<text text-anchor="middle" x="702" y="-61" font-family="Helvetica,sans-Serif" font-size="10.00">type_traits</text>
</a>
</g>
</g>
<!-- Node10&#45;&gt;Node12 -->
<g id="edge11_Node000010_Node000012" class="edge">
<title>Node10&#45;&gt;Node12</title>
<g id="a_edge11_Node000010_Node000012"><a xlink:title=" ">
<path fill="none" stroke="#63b8ff" d="M560.73,-115.68C588.8,-105.78 633.96,-89.86 665.65,-78.69"/>
<polygon fill="#63b8ff" stroke="#63b8ff" points="666.55,-82.08 674.82,-75.46 664.22,-75.48 666.55,-82.08"/>
</a>
</g>
</g>
<!-- Node10&#45;&gt;Node13 -->
<g id="edge12_Node000010_Node000013" class="edge">
<title>Node10&#45;&gt;Node13</title>
<g id="a_edge12_Node000010_Node000013"><a xlink:title=" ">
<path fill="none" stroke="#63b8ff" d="M583.32,-118.67C679.51,-106.57 892.51,-79.77 972.15,-69.76"/>
<polygon fill="#63b8ff" stroke="#63b8ff" points="972.34,-73.26 981.83,-68.54 971.47,-66.31 972.34,-73.26"/>
</a>
</g>
</g>
<!-- Node14&#45;&gt;Node6 -->
<g id="edge16_Node000014_Node000006" class="edge">
<title>Node14&#45;&gt;Node6</title>
<g id="a_edge16_Node000014_Node000006"><a xlink:title=" ">
<path fill="none" stroke="#63b8ff" d="M398.51,-248.65C360.8,-237.39 296.45,-218.17 254.32,-205.59"/>
<polygon fill="#63b8ff" stroke="#63b8ff" points="255.37,-202.25 244.78,-202.74 253.37,-208.96 255.37,-202.25"/>
</a>
</g>
</g>
<!-- Node14&#45;&gt;Node15 -->
<g id="edge17_Node000014_Node000015" class="edge">
<title>Node14&#45;&gt;Node15</title>
<g id="a_edge17_Node000014_Node000015"><a xlink:title=" ">
<path fill="none" stroke="#63b8ff" d="M431.5,-248.78C433.69,-240.95 436.97,-229.2 439.95,-218.52"/>
<polygon fill="#63b8ff" stroke="#63b8ff" points="443.27,-219.63 442.59,-209.05 436.53,-217.74 443.27,-219.63"/>
</a>
</g>
</g>
<!-- Node15&#45;&gt;Node11 -->
<g id="edge18_Node000015_Node000011" class="edge">
<title>Node15&#45;&gt;Node11</title>
<g id="a_edge18_Node000015_Node000011"><a xlink:title=" ">
<path fill="none" stroke="#63b8ff" d="M447,-176.87C447,-154.53 447,-111.42 447,-86"/>
<polygon fill="#63b8ff" stroke="#63b8ff" points="450.5,-86.33 447,-76.33 443.5,-86.33 450.5,-86.33"/>
</a>
</g>
</g>
<!-- Node15&#45;&gt;Node12 -->
<g id="edge19_Node000015_Node000012" class="edge">
<title>Node15&#45;&gt;Node12</title>
<g id="a_edge19_Node000015_Node000012"><a xlink:title=" ">
<path fill="none" stroke="#63b8ff" d="M495.32,-178.03C524.16,-169.29 561.06,-156.57 592,-141 625.52,-124.12 660.75,-98.45 682.05,-81.92"/>
<polygon fill="#63b8ff" stroke="#63b8ff" points="684.18,-84.7 689.87,-75.76 679.85,-79.2 684.18,-84.7"/>
</a>
</g>
</g>
<!-- Node16 -->
<g id="Node000016" class="node">
<title>Node16</title>
<g id="a_Node000016"><a xlink:href="intrusive__ptr__impl_8hpp.html" target="_top" xlink:title=" ">
<polygon fill="white" stroke="#666666" points="407.75,-141 294.25,-141 294.25,-110.5 407.75,-110.5 407.75,-141"/>
<text text-anchor="start" x="302.25" y="-127.5" font-family="Helvetica,sans-Serif" font-size="10.00">yaclib/util/detail</text>
<text text-anchor="middle" x="351" y="-116.25" font-family="Helvetica,sans-Serif" font-size="10.00">/intrusive_ptr_impl.hpp</text>
</a>
</g>
</g>
<!-- Node15&#45;&gt;Node16 -->
<g id="edge20_Node000015_Node000016" class="edge">
<title>Node15&#45;&gt;Node16</title>
<g id="a_edge20_Node000015_Node000016"><a xlink:title=" ">
<path fill="none" stroke="#63b8ff" d="M425.22,-176.61C412.45,-168.04 396.12,-157.06 382.02,-147.59"/>
<polygon fill="#63b8ff" stroke="#63b8ff" points="384.21,-144.84 373.95,-142.17 380.3,-150.65 384.21,-144.84"/>
</a>
</g>
</g>
<!-- Node16&#45;&gt;Node7 -->
<g id="edge21_Node000016_Node000007" class="edge">
<title>Node16&#45;&gt;Node7</title>
<g id="a_edge21_Node000016_Node000007"><a xlink:title=" ">
<path fill="none" stroke="#63b8ff" d="M293.97,-113.33C239.32,-102.39 157.72,-86.05 105.95,-75.68"/>
<polygon fill="#63b8ff" stroke="#63b8ff" points="106.72,-72.26 96.22,-73.73 105.34,-79.13 106.72,-72.26"/>
</a>
</g>
</g>
<!-- Node17&#45;&gt;Node14 -->
<g id="edge23_Node000017_Node000014" class="edge">
<title>Node17&#45;&gt;Node14</title>
<g id="a_edge23_Node000017_Node000014"><a xlink:title=" ">
<path fill="none" stroke="#63b8ff" d="M519.4,-315.28C502.34,-304.8 473.83,-287.29 453.39,-274.73"/>
<polygon fill="#63b8ff" stroke="#63b8ff" points="455.46,-271.89 445.1,-269.64 451.79,-277.86 455.46,-271.89"/>
</a>
</g>
</g>
<!-- Node17&#45;&gt;Node18 -->
<g id="edge24_Node000017_Node000018" class="edge">
<title>Node17&#45;&gt;Node18</title>
<g id="a_edge24_Node000017_Node000018"><a xlink:title=" ">
<path fill="none" stroke="#63b8ff" d="M542.78,-315.29C559.55,-298.67 597.97,-262.99 637,-243.5 681.02,-221.52 735.79,-208.29 774.84,-200.96"/>
<polygon fill="#63b8ff" stroke="#63b8ff" points="775.21,-204.45 784.43,-199.23 773.97,-197.56 775.21,-204.45"/>
</a>
</g>
</g>
<!-- Node22&#45;&gt;Node13 -->
<g id="edge42_Node000022_Node000013" class="edge">
<title>Node22&#45;&gt;Node13</title>
<g id="a_edge42_Node000022_Node000013"><a xlink:title=" ">
<path fill="none" stroke="#63b8ff" d="M804.07,-382.04C836.88,-374.72 879.31,-361.91 912,-340.5 944.81,-319.01 948.82,-307.01 970,-274 1003.55,-221.72 1007.01,-202.83 1013,-141 1014.31,-127.51 1014.49,-123.97 1013,-110.5 1012.09,-102.31 1010.28,-93.43 1008.44,-85.76"/>
<polygon fill="#63b8ff" stroke="#63b8ff" points="1011.84,-84.94 1005.95,-76.13 1005.07,-86.69 1011.84,-84.94"/>
</a>
</g>
</g>
<!-- Node22&#45;&gt;Node18 -->
<g id="edge32_Node000022_Node000018" class="edge">
<title>Node22&#45;&gt;Node18</title>
<g id="a_edge32_Node000022_Node000018"><a xlink:title=" ">
<path fill="none" stroke="#63b8ff" d="M746.71,-381.77C736.23,-366.83 714.55,-335.98 696,-310 684.53,-293.94 676.07,-292.78 670,-274 665.83,-261.1 662.03,-254.46 670,-243.5 693.72,-210.88 739.09,-199.01 774.64,-194.89"/>
<polygon fill="#63b8ff" stroke="#63b8ff" points="774.68,-198.4 784.3,-193.96 774.01,-191.44 774.68,-198.4"/>
</a>
</g>
</g>
<!-- Node22&#45;&gt;Node23 -->
<g id="edge33_Node000022_Node000023" class="edge">
<title>Node22&#45;&gt;Node23</title>
<g id="a_edge33_Node000022_Node000023"><a xlink:title=" ">
<path fill="none" stroke="#63b8ff" d="M765.38,-381.78C779.51,-371.54 802.9,-354.59 820.13,-342.1"/>
<polygon fill="#63b8ff" stroke="#63b8ff" points="822.17,-344.94 828.22,-336.24 818.07,-339.27 822.17,-344.94"/>
</a>
</g>
</g>
<!-- Node25 -->
<g id="Node000025" class="node">
<title>Node25</title>
<g id="a_Node000025"><a xlink:title=" ">
<polygon fill="#e0e0e0" stroke="#999999" points="736.62,-268.38 679.38,-268.38 679.38,-249.12 736.62,-249.12 736.62,-268.38"/>
<text text-anchor="middle" x="708" y="-254.88" font-family="Helvetica,sans-Serif" font-size="10.00">exception</text>
</a>
</g>
</g>
<!-- Node22&#45;&gt;Node25 -->
<g id="edge41_Node000022_Node000025" class="edge">
<title>Node22&#45;&gt;Node25</title>
<g id="a_edge41_Node000022_Node000025"><a xlink:title=" ">
<path fill="none" stroke="#63b8ff" d="M750.65,-381.69C746.66,-366.64 738.13,-335.62 729,-310 725.29,-299.6 720.6,-288.24 716.59,-278.96"/>
<polygon fill="#63b8ff" stroke="#63b8ff" points="719.85,-277.66 712.62,-269.92 713.44,-280.48 719.85,-277.66"/>
</a>
</g>
</g>
<!-- Node26 -->
<g id="Node000026" class="node">
<title>Node26</title>
<g id="a_Node000026"><a xlink:title=" ">
<polygon fill="#e0e0e0" stroke="#999999" points="686.62,-334.88 641.38,-334.88 641.38,-315.62 686.62,-315.62 686.62,-334.88"/>
<text text-anchor="middle" x="664" y="-321.38" font-family="Helvetica,sans-Serif" font-size="10.00">variant</text>
</a>
</g>
</g>
<!-- Node22&#45;&gt;Node26 -->
<g id="edge43_Node000022_Node000026" class="edge">
<title>Node22&#45;&gt;Node26</title>
<g id="a_edge43_Node000022_Node000026"><a xlink:title=" ">
<path fill="none" stroke="#63b8ff" d="M740.62,-381.78C726.49,-371.54 703.1,-354.59 685.87,-342.1"/>
<polygon fill="#63b8ff" stroke="#63b8ff" points="687.93,-339.27 677.78,-336.24 683.83,-344.94 687.93,-339.27"/>
</a>
</g>
</g>
<!-- Node23&#45;&gt;Node12 -->
<g id="edge39_Node000023_Node000012" class="edge">
<title>Node23&#45;&gt;Node12</title>
<g id="a_edge39_Node000023_Node000012"><a xlink:title=" ">
<path fill="none" stroke="#63b8ff" d="M836.88,-315.2C825.82,-295.63 798.92,-247.87 777,-207.5 753.3,-163.86 726.19,-112.22 711.94,-84.96"/>
<polygon fill="#63b8ff" stroke="#63b8ff" points="715.1,-83.45 707.37,-76.2 708.9,-86.68 715.1,-83.45"/>
</a>
</g>
</g>
<!-- Node23&#45;&gt;Node13 -->
<g id="edge40_Node000023_Node000013" class="edge">
<title>Node23&#45;&gt;Node13</title>
<g id="a_edge40_Node000023_Node000013"><a xlink:title=" ">
<path fill="none" stroke="#63b8ff" d="M878.13,-315.13C900.71,-307.65 928.68,-294.81 946,-274 992.6,-217.99 1001.29,-126.96 1002.78,-86.45"/>
<polygon fill="#63b8ff" stroke="#63b8ff" points="1006.28,-86.57 1003.02,-76.49 999.28,-86.4 1006.28,-86.57"/>
</a>
</g>
</g>
<!-- Node23&#45;&gt;Node18 -->
<g id="edge34_Node000023_Node000018" class="edge">
<title>Node23&#45;&gt;Node18</title>
<g id="a_edge34_Node000023_Node000018"><a xlink:title=" ">
<path fill="none" stroke="#63b8ff" d="M837.23,-315.3C832.29,-305.49 824.9,-289.12 822,-274 818.09,-253.58 819.71,-229.74 821.77,-213.28"/>
<polygon fill="#63b8ff" stroke="#63b8ff" points="825.17,-214.21 823.13,-203.81 818.24,-213.21 825.17,-214.21"/>
</a>
</g>
</g>
<!-- Node24 -->
<g id="Node000024" class="node">
<title>Node24</title>
<g id="a_Node000024"><a xlink:href="type__traits__impl_8hpp.html" target="_top" xlink:title=" ">
<polygon fill="white" stroke="#666666" points="936.62,-274 831.38,-274 831.38,-243.5 936.62,-243.5 936.62,-274"/>
<text text-anchor="start" x="839.38" y="-260.5" font-family="Helvetica,sans-Serif" font-size="10.00">yaclib/util/detail</text>
<text text-anchor="middle" x="884" y="-249.25" font-family="Helvetica,sans-Serif" font-size="10.00">/type_traits_impl.hpp</text>
</a>
</g>
</g>
<!-- Node23&#45;&gt;Node24 -->
<g id="edge35_Node000023_Node000024" class="edge">
<title>Node23&#45;&gt;Node24</title>
<g id="a_edge35_Node000023_Node000024"><a xlink:title=" ">
<path fill="none" stroke="#63b8ff" d="M847.84,-315.28C853.16,-307.12 861.24,-294.7 868.43,-283.67"/>
<polygon fill="#63b8ff" stroke="#63b8ff" points="871.31,-285.65 873.83,-275.36 865.44,-281.83 871.31,-285.65"/>
</a>
</g>
</g>
<!-- Node23&#45;&gt;Node25 -->
<g id="edge38_Node000023_Node000025" class="edge">
<title>Node23&#45;&gt;Node25</title>
<g id="a_edge38_Node000023_Node000025"><a xlink:title=" ">
<path fill="none" stroke="#63b8ff" d="M823.09,-315.15C800.64,-304.34 762.97,-286.21 736.88,-273.65"/>
<polygon fill="#63b8ff" stroke="#63b8ff" points="738.71,-270.65 728.18,-269.46 735.67,-276.96 738.71,-270.65"/>
</a>
</g>
</g>
<!-- Node24&#45;&gt;Node12 -->
<g id="edge37_Node000024_Node000012" class="edge">
<title>Node24&#45;&gt;Node12</title>
<g id="a_edge37_Node000024_Node000012"><a xlink:title=" ">
<path fill="none" stroke="#63b8ff" d="M885.47,-243.12C886.45,-225.94 885.74,-197.23 873,-177 841.79,-127.43 779.5,-95.52 739.34,-79.14"/>
<polygon fill="#63b8ff" stroke="#63b8ff" points="740.63,-75.89 730.05,-75.49 738.07,-82.41 740.63,-75.89"/>
</a>
</g>
</g>
<!-- Node24&#45;&gt;Node18 -->
<g id="edge36_Node000024_Node000018" class="edge">
<title>Node24&#45;&gt;Node18</title>
<g id="a_edge36_Node000024_Node000018"><a xlink:title=" ">
<path fill="none" stroke="#63b8ff" d="M870.61,-243.11C861.76,-233.44 850.12,-220.71 840.81,-210.54"/>
<polygon fill="#63b8ff" stroke="#63b8ff" points="843.42,-208.21 834.09,-203.19 838.26,-212.93 843.42,-208.21"/>
</a>
</g>
</g>
</g>
</svg>

<g id="navigator" transform="translate(0 0)" fill="#404254">
  <rect fill="#f2f5e9" fill-opacity="0.5" stroke="#606060" stroke-width=".5" x="0" y="0" width="60" height="60"/>
  <use id="zoomplus" xlink:href="#zoomPlus" x="17" y="9" onmousedown="handleZoom(evt,'in')"/>
  <use id="zoomminus" xlink:href="#zoomMin" x="42" y="9" onmousedown="handleZoom(evt,'out')"/>
  <use id="reset" xlink:href="#resetDef" x="30" y="36" onmousedown="handleReset()"/>
   <use id="arrowup" xlink:href="#arrowUp" x="0" y="0" onmousedown="handlePan(0,-1)"/>
  <use id="arrowright" xlink:href="#arrowRight" x="0" y="0" onmousedown="handlePan(1,0)"/>
  <use id="arrowdown" xlink:href="#arrowDown" x="0" y="0" onmousedown="handlePan(0,1)"/>
  <use id="arrowleft" xlink:href="#arrowLeft" x="0" y="0" onmousedown="handlePan(-1,0)"/>
</g>
<svg viewBox="0 0 15 15" width="100%" height="30px" preserveAspectRatio="xMaxYMin meet">
 <g id="arrow_out" transform="scale(0.3 0.3)">
  <a xlink:href="promise_8hpp__incl_org.svg" target="_base">
   <rect id="button" ry="5" rx="5" y="6" x="6" height="38" width="38"
        fill="#f2f5e9" fill-opacity="0.5" stroke="#606060" stroke-width="1.0"/>
   <path id="arrow"
     d="M 11.500037,31.436501 C 11.940474,20.09759 22.043105,11.32322 32.158766,21.979434 L 37.068811,17.246167 C 37.068811,17.246167 37.088388,32 37.088388,32 L 22.160133,31.978069 C 22.160133,31.978069 26.997745,27.140456 26.997745,27.140456 C 18.528582,18.264221 13.291696,25.230495 11.500037,31.436501 z"
     style="fill:#404040;"/>
  </a>
 </g>
</svg>

<style type='text/css'>
<![CDATA[
[data-mouse-over-selected='false'] { opacity: 0.7; }
[data-mouse-over-selected='true']  { opacity: 1.0; }
]]>
</style>
<script type="application/ecmascript"><![CDATA[
document.addEventListener('DOMContentLoaded', (event) => {
  highlightEdges();
  highlightAdjacentNodes();
});
]]></script>
</svg>
