<?xml version="1.0" encoding="UTF-8" standalone="no"?>
<!DOCTYPE svg PUBLIC "-//W3C//DTD SVG 1.1//EN"
 "http://www.w3.org/Graphics/SVG/1.1/DTD/svg11.dtd">
<!-- Generated by graphviz version 3.0.0 (20220413.0242)
 -->
<!-- Title: include/yaclib/fault/detail/fiber/queue.hpp Pages: 1 -->
<svg width="1204pt" height="441pt"
 viewBox="0.00 0.00 1203.50 441.00" xmlns="http://www.w3.org/2000/svg" xmlns:xlink="http://www.w3.org/1999/xlink">
<g id="graph0" class="graph" transform="scale(1 1) rotate(0) translate(4 437)">
<title>include/yaclib/fault/detail/fiber/queue.hpp</title>
<!-- Node1 -->
<g id="node1" class="node">
<title>Node1</title>
<g id="a_node1"><a xlink:title=" ">
<polygon fill="#bfbfbf" stroke="black" points="931.5,-402.5 931.5,-432.5 1042.5,-432.5 1042.5,-402.5 931.5,-402.5"/>
<text text-anchor="start" x="939.5" y="-420.5" font-family="Helvetica,sans-Serif" font-size="10.00">include/yaclib/fault</text>
<text text-anchor="middle" x="987" y="-409.5" font-family="Helvetica,sans-Serif" font-size="10.00">/detail/fiber/queue.hpp</text>
</a>
</g>
</g>
<!-- Node2 -->
<g id="node2" class="node">
<title>Node2</title>
<g id="a_node2"><a xlink:href="fiber__base_8hpp.html" target="_top" xlink:title=" ">
<polygon fill="none" stroke="black" points="504.5,-201.5 504.5,-231.5 607.5,-231.5 607.5,-201.5 504.5,-201.5"/>
<text text-anchor="start" x="512.5" y="-219.5" font-family="Helvetica,sans-Serif" font-size="10.00">yaclib/fault/detail</text>
<text text-anchor="middle" x="556" y="-208.5" font-family="Helvetica,sans-Serif" font-size="10.00">/fiber/fiber_base.hpp</text>
</a>
</g>
</g>
<!-- Node1&#45;&gt;Node2 -->
<g id="edge1" class="edge">
<title>Node1&#45;&gt;Node2</title>
<path fill="none" stroke="midnightblue" d="M956.35,-402.35C879.89,-367.04 680.75,-275.1 595.58,-235.77"/>
<polygon fill="midnightblue" stroke="midnightblue" points="597.04,-232.59 586.49,-231.58 594.11,-238.95 597.04,-232.59"/>
</g>
<!-- Node11 -->
<g id="node11" class="node">
<title>Node11</title>
<g id="a_node11"><a xlink:title=" ">
<polygon fill="none" stroke="#bfbfbf" points="1029,-62 1029,-81 1073,-81 1073,-62 1029,-62"/>
<text text-anchor="middle" x="1051" y="-69" font-family="Helvetica,sans-Serif" font-size="10.00">vector</text>
</a>
</g>
</g>
<!-- Node1&#45;&gt;Node11 -->
<g id="edge37" class="edge">
<title>Node1&#45;&gt;Node11</title>
<path fill="none" stroke="midnightblue" d="M1014.47,-402.38C1028.81,-393.7 1045.5,-381.3 1056,-366 1077.23,-335.06 1078,-322.02 1078,-284.5 1078,-284.5 1078,-284.5 1078,-215.5 1078,-169.98 1064.63,-117.7 1056.7,-90.72"/>
<polygon fill="midnightblue" stroke="midnightblue" points="1060.04,-89.65 1053.79,-81.1 1053.34,-91.68 1060.04,-89.65"/>
</g>
<!-- Node18 -->
<g id="node18" class="node">
<title>Node18</title>
<g id="a_node18"><a xlink:href="scheduler_8hpp.html" target="_top" xlink:title=" ">
<polygon fill="none" stroke="black" points="835.5,-268.5 835.5,-298.5 936.5,-298.5 936.5,-268.5 835.5,-268.5"/>
<text text-anchor="start" x="843.5" y="-286.5" font-family="Helvetica,sans-Serif" font-size="10.00">yaclib/fault/detail</text>
<text text-anchor="middle" x="886" y="-275.5" font-family="Helvetica,sans-Serif" font-size="10.00">/fiber/scheduler.hpp</text>
</a>
</g>
</g>
<!-- Node1&#45;&gt;Node18 -->
<g id="edge23" class="edge">
<title>Node1&#45;&gt;Node18</title>
<path fill="none" stroke="midnightblue" d="M961.64,-402.42C947.52,-393.51 930.52,-380.89 919,-366 905.77,-348.9 897.08,-325.78 891.96,-308.53"/>
<polygon fill="midnightblue" stroke="midnightblue" points="895.26,-307.36 889.22,-298.66 888.52,-309.23 895.26,-307.36"/>
</g>
<!-- Node22 -->
<g id="node22" class="node">
<title>Node22</title>
<g id="a_node22"><a xlink:href="system__clock_8hpp.html" target="_top" xlink:title=" ">
<polygon fill="none" stroke="black" points="927.5,-335.5 927.5,-365.5 1046.5,-365.5 1046.5,-335.5 927.5,-335.5"/>
<text text-anchor="start" x="935.5" y="-353.5" font-family="Helvetica,sans-Serif" font-size="10.00">yaclib/fault/detail</text>
<text text-anchor="middle" x="987" y="-342.5" font-family="Helvetica,sans-Serif" font-size="10.00">/fiber/system_clock.hpp</text>
</a>
</g>
</g>
<!-- Node1&#45;&gt;Node22 -->
<g id="edge33" class="edge">
<title>Node1&#45;&gt;Node22</title>
<path fill="none" stroke="midnightblue" d="M987,-402.4C987,-394.64 987,-384.81 987,-375.86"/>
<polygon fill="midnightblue" stroke="midnightblue" points="990.5,-375.58 987,-365.58 983.5,-375.58 990.5,-375.58"/>
</g>
<!-- Node23 -->
<g id="node23" class="node">
<title>Node23</title>
<g id="a_node23"><a xlink:href="wait__status_8hpp.html" target="_top" xlink:title=" ">
<polygon fill="none" stroke="black" points="1106.5,-335.5 1106.5,-365.5 1195.5,-365.5 1195.5,-335.5 1106.5,-335.5"/>
<text text-anchor="start" x="1114.5" y="-353.5" font-family="Helvetica,sans-Serif" font-size="10.00">yaclib/fault/detail</text>
<text text-anchor="middle" x="1151" y="-342.5" font-family="Helvetica,sans-Serif" font-size="10.00">/wait_status.hpp</text>
</a>
</g>
</g>
<!-- Node1&#45;&gt;Node23 -->
<g id="edge36" class="edge">
<title>Node1&#45;&gt;Node23</title>
<path fill="none" stroke="midnightblue" d="M1022.59,-402.4C1047.09,-392.69 1079.83,-379.71 1106.12,-369.29"/>
<polygon fill="midnightblue" stroke="midnightblue" points="1107.48,-372.51 1115.48,-365.58 1104.9,-366.01 1107.48,-372.51"/>
</g>
<!-- Node3 -->
<g id="node3" class="node">
<title>Node3</title>
<g id="a_node3"><a xlink:title=" ">
<polygon fill="none" stroke="#bfbfbf" points="0,-62 0,-81 88,-81 88,-62 0,-62"/>
<text text-anchor="middle" x="44" y="-69" font-family="Helvetica,sans-Serif" font-size="10.00">yaclib/config.hpp</text>
</a>
</g>
</g>
<!-- Node2&#45;&gt;Node3 -->
<g id="edge2" class="edge">
<title>Node2&#45;&gt;Node3</title>
<path fill="none" stroke="midnightblue" d="M504.39,-213.69C384.16,-209 93.14,-194.66 61,-165 40.86,-146.41 39.82,-112.44 41.49,-91.24"/>
<polygon fill="midnightblue" stroke="midnightblue" points="44.98,-91.53 42.56,-81.22 38.02,-90.79 44.98,-91.53"/>
</g>
<!-- Node4 -->
<g id="node4" class="node">
<title>Node4</title>
<g id="a_node4"><a xlink:href="bidirectional__intrusive__list_8hpp.html" target="_top" xlink:title=" ">
<polygon fill="none" stroke="black" points="768.5,-123.5 768.5,-164.5 863.5,-164.5 863.5,-123.5 768.5,-123.5"/>
<text text-anchor="start" x="776.5" y="-152.5" font-family="Helvetica,sans-Serif" font-size="10.00">yaclib/fault/detail</text>
<text text-anchor="start" x="776.5" y="-141.5" font-family="Helvetica,sans-Serif" font-size="10.00">/fiber/bidirectional</text>
<text text-anchor="middle" x="816" y="-130.5" font-family="Helvetica,sans-Serif" font-size="10.00">_intrusive_list.hpp</text>
</a>
</g>
</g>
<!-- Node2&#45;&gt;Node4 -->
<g id="edge3" class="edge">
<title>Node2&#45;&gt;Node4</title>
<path fill="none" stroke="midnightblue" d="M607.68,-201.49C651.19,-189.69 713.35,-172.83 758.44,-160.61"/>
<polygon fill="midnightblue" stroke="midnightblue" points="759.63,-163.91 768.36,-157.92 757.79,-157.16 759.63,-163.91"/>
</g>
<!-- Node8 -->
<g id="node8" class="node">
<title>Node8</title>
<g id="a_node8"><a xlink:href="default__allocator_8hpp.html" target="_top" xlink:title=" ">
<polygon fill="none" stroke="black" points="882,-129 882,-159 1012,-159 1012,-129 882,-129"/>
<text text-anchor="start" x="890" y="-147" font-family="Helvetica,sans-Serif" font-size="10.00">yaclib/fault/detail</text>
<text text-anchor="middle" x="947" y="-136" font-family="Helvetica,sans-Serif" font-size="10.00">/fiber/default_allocator.hpp</text>
</a>
</g>
</g>
<!-- Node2&#45;&gt;Node8 -->
<g id="edge7" class="edge">
<title>Node2&#45;&gt;Node8</title>
<path fill="none" stroke="midnightblue" d="M607.65,-208.99C670.65,-200.65 780.23,-184.87 873,-165 877.92,-163.95 882.99,-162.77 888.08,-161.53"/>
<polygon fill="midnightblue" stroke="midnightblue" points="888.98,-164.91 897.82,-159.07 887.27,-158.12 888.98,-164.91"/>
</g>
<!-- Node9 -->
<g id="node9" class="node">
<title>Node9</title>
<g id="a_node9"><a xlink:href="stack__allocator_8hpp.html" target="_top" xlink:title=" ">
<polygon fill="none" stroke="black" points="603.5,-56.5 603.5,-86.5 728.5,-86.5 728.5,-56.5 603.5,-56.5"/>
<text text-anchor="start" x="611.5" y="-74.5" font-family="Helvetica,sans-Serif" font-size="10.00">yaclib/fault/detail</text>
<text text-anchor="middle" x="666" y="-63.5" font-family="Helvetica,sans-Serif" font-size="10.00">/fiber/stack_allocator.hpp</text>
</a>
</g>
</g>
<!-- Node2&#45;&gt;Node9 -->
<g id="edge19" class="edge">
<title>Node2&#45;&gt;Node9</title>
<path fill="none" stroke="midnightblue" d="M555.6,-201.19C555.78,-181.66 558.72,-146.39 576,-123 586.14,-109.28 601.19,-98.77 616.09,-91"/>
<polygon fill="midnightblue" stroke="midnightblue" points="617.86,-94.03 625.31,-86.5 614.79,-87.74 617.86,-94.03"/>
</g>
<!-- Node12 -->
<g id="node12" class="node">
<title>Node12</title>
<g id="a_node12"><a xlink:href="execution__context_8hpp.html" target="_top" xlink:title=" ">
<polygon fill="none" stroke="black" points="70.5,-129 70.5,-159 207.5,-159 207.5,-129 70.5,-129"/>
<text text-anchor="start" x="78.5" y="-147" font-family="Helvetica,sans-Serif" font-size="10.00">yaclib/fault/detail</text>
<text text-anchor="middle" x="139" y="-136" font-family="Helvetica,sans-Serif" font-size="10.00">/fiber/execution_context.hpp</text>
</a>
</g>
</g>
<!-- Node2&#45;&gt;Node12 -->
<g id="edge12" class="edge">
<title>Node2&#45;&gt;Node12</title>
<path fill="none" stroke="midnightblue" d="M504.31,-209.48C437.59,-201.33 318.05,-185.42 217,-165 211.69,-163.93 206.2,-162.72 200.71,-161.45"/>
<polygon fill="midnightblue" stroke="midnightblue" points="201.39,-158.01 190.85,-159.09 199.77,-164.82 201.39,-158.01"/>
</g>
<!-- Node14 -->
<g id="node14" class="node">
<title>Node14</title>
<g id="a_node14"><a xlink:href="stack_8hpp.html" target="_top" xlink:title=" ">
<polygon fill="none" stroke="black" points="584.5,-129 584.5,-159 673.5,-159 673.5,-129 584.5,-129"/>
<text text-anchor="start" x="592.5" y="-147" font-family="Helvetica,sans-Serif" font-size="10.00">yaclib/fault/detail</text>
<text text-anchor="middle" x="629" y="-136" font-family="Helvetica,sans-Serif" font-size="10.00">/fiber/stack.hpp</text>
</a>
</g>
</g>
<!-- Node2&#45;&gt;Node14 -->
<g id="edge16" class="edge">
<title>Node2&#45;&gt;Node14</title>
<path fill="none" stroke="midnightblue" d="M570.77,-201.23C581.16,-191.2 595.24,-177.6 606.96,-166.29"/>
<polygon fill="midnightblue" stroke="midnightblue" points="609.49,-168.71 614.25,-159.25 604.62,-163.67 609.49,-168.71"/>
</g>
<!-- Node15 -->
<g id="node15" class="node">
<title>Node15</title>
<g id="a_node15"><a xlink:href="wakeup__helper_8hpp.html" target="_top" xlink:title=" ">
<polygon fill="none" stroke="black" points="226,-129 226,-159 350,-159 350,-129 226,-129"/>
<text text-anchor="start" x="234" y="-147" font-family="Helvetica,sans-Serif" font-size="10.00">yaclib/fault/detail</text>
<text text-anchor="middle" x="288" y="-136" font-family="Helvetica,sans-Serif" font-size="10.00">/fiber/wakeup_helper.hpp</text>
</a>
</g>
</g>
<!-- Node2&#45;&gt;Node15 -->
<g id="edge20" class="edge">
<title>Node2&#45;&gt;Node15</title>
<path fill="none" stroke="midnightblue" d="M504.48,-202.65C464.68,-192.63 408.27,-178.25 359,-165 355.15,-163.96 351.18,-162.88 347.18,-161.78"/>
<polygon fill="midnightblue" stroke="midnightblue" points="347.8,-158.32 337.23,-159.03 345.93,-165.07 347.8,-158.32"/>
</g>
<!-- Node16 -->
<g id="node16" class="node">
<title>Node16</title>
<g id="a_node16"><a xlink:title=" ">
<polygon fill="none" stroke="#bfbfbf" points="368,-134.5 368,-153.5 426,-153.5 426,-134.5 368,-134.5"/>
<text text-anchor="middle" x="397" y="-141.5" font-family="Helvetica,sans-Serif" font-size="10.00">exception</text>
</a>
</g>
</g>
<!-- Node2&#45;&gt;Node16 -->
<g id="edge21" class="edge">
<title>Node2&#45;&gt;Node16</title>
<path fill="none" stroke="midnightblue" d="M520.78,-201.49C496.7,-191.72 464.17,-178.13 436,-165 431.5,-162.9 426.75,-160.57 422.18,-158.26"/>
<polygon fill="midnightblue" stroke="midnightblue" points="423.68,-155.1 413.18,-153.65 420.48,-161.33 423.68,-155.1"/>
</g>
<!-- Node17 -->
<g id="node17" class="node">
<title>Node17</title>
<g id="a_node17"><a xlink:title=" ">
<polygon fill="none" stroke="#bfbfbf" points="444.5,-134.5 444.5,-153.5 527.5,-153.5 527.5,-134.5 444.5,-134.5"/>
<text text-anchor="middle" x="486" y="-141.5" font-family="Helvetica,sans-Serif" font-size="10.00">unordered_map</text>
</a>
</g>
</g>
<!-- Node2&#45;&gt;Node17 -->
<g id="edge22" class="edge">
<title>Node2&#45;&gt;Node17</title>
<path fill="none" stroke="midnightblue" d="M541.83,-201.23C530.3,-189.62 514.02,-173.22 502.01,-161.12"/>
<polygon fill="midnightblue" stroke="midnightblue" points="504.36,-158.52 494.83,-153.89 499.39,-163.46 504.36,-158.52"/>
</g>
<!-- Node5 -->
<g id="node5" class="node">
<title>Node5</title>
<g id="a_node5"><a xlink:href="log_8hpp.html" target="_top" xlink:title=" ">
<polygon fill="none" stroke="black" points="909.5,-62 909.5,-81 984.5,-81 984.5,-62 909.5,-62"/>
<text text-anchor="middle" x="947" y="-69" font-family="Helvetica,sans-Serif" font-size="10.00">yaclib/log.hpp</text>
</a>
</g>
</g>
<!-- Node4&#45;&gt;Node5 -->
<g id="edge4" class="edge">
<title>Node4&#45;&gt;Node5</title>
<path fill="none" stroke="midnightblue" d="M852.49,-123.36C874.61,-111.46 902.26,-96.58 921.93,-85.99"/>
<polygon fill="midnightblue" stroke="midnightblue" points="923.74,-88.99 930.88,-81.17 920.42,-82.83 923.74,-88.99"/>
</g>
<!-- Node7 -->
<g id="node7" class="node">
<title>Node7</title>
<g id="a_node7"><a xlink:title=" ">
<polygon fill="none" stroke="#bfbfbf" points="788,-62 788,-81 834,-81 834,-62 788,-62"/>
<text text-anchor="middle" x="811" y="-69" font-family="Helvetica,sans-Serif" font-size="10.00">cstdint</text>
</a>
</g>
</g>
<!-- Node4&#45;&gt;Node7 -->
<g id="edge6" class="edge">
<title>Node4&#45;&gt;Node7</title>
<path fill="none" stroke="midnightblue" d="M814.61,-123.36C813.89,-113.3 813.03,-101.1 812.32,-91.18"/>
<polygon fill="midnightblue" stroke="midnightblue" points="815.81,-90.9 811.62,-81.17 808.83,-91.4 815.81,-90.9"/>
</g>
<!-- Node6 -->
<g id="node6" class="node">
<title>Node6</title>
<g id="a_node6"><a xlink:title=" ">
<polygon fill="none" stroke="#bfbfbf" points="914,-0.5 914,-19.5 980,-19.5 980,-0.5 914,-0.5"/>
<text text-anchor="middle" x="947" y="-7.5" font-family="Helvetica,sans-Serif" font-size="10.00">string_view</text>
</a>
</g>
</g>
<!-- Node5&#45;&gt;Node6 -->
<g id="edge5" class="edge">
<title>Node5&#45;&gt;Node6</title>
<path fill="none" stroke="midnightblue" d="M947,-61.98C947,-53.58 947,-40.48 947,-29.66"/>
<polygon fill="midnightblue" stroke="midnightblue" points="950.5,-29.51 947,-19.51 943.5,-29.51 950.5,-29.51"/>
</g>
<!-- Node8&#45;&gt;Node5 -->
<g id="edge10" class="edge">
<title>Node8&#45;&gt;Node5</title>
<path fill="none" stroke="midnightblue" d="M947,-128.73C947,-118 947,-103.19 947,-91.46"/>
<polygon fill="midnightblue" stroke="midnightblue" points="950.5,-91.39 947,-81.39 943.5,-91.39 950.5,-91.39"/>
</g>
<!-- Node8&#45;&gt;Node9 -->
<g id="edge8" class="edge">
<title>Node8&#45;&gt;Node9</title>
<path fill="none" stroke="midnightblue" d="M895.69,-128.96C888.09,-126.93 880.35,-124.89 873,-123 827.26,-111.24 775.65,-98.65 735.41,-88.98"/>
<polygon fill="midnightblue" stroke="midnightblue" points="735.97,-85.52 725.43,-86.59 734.34,-92.32 735.97,-85.52"/>
</g>
<!-- Node8&#45;&gt;Node11 -->
<g id="edge11" class="edge">
<title>Node8&#45;&gt;Node11</title>
<path fill="none" stroke="midnightblue" d="M968.05,-128.73C985.94,-116.6 1011.52,-99.26 1029.53,-87.05"/>
<polygon fill="midnightblue" stroke="midnightblue" points="1031.87,-89.7 1038.18,-81.19 1027.94,-83.91 1031.87,-89.7"/>
</g>
<!-- Node10 -->
<g id="node10" class="node">
<title>Node10</title>
<g id="a_node10"><a xlink:title=" ">
<polygon fill="none" stroke="#bfbfbf" points="596.5,-0.5 596.5,-19.5 645.5,-19.5 645.5,-0.5 596.5,-0.5"/>
<text text-anchor="middle" x="621" y="-7.5" font-family="Helvetica,sans-Serif" font-size="10.00">cstddef</text>
</a>
</g>
</g>
<!-- Node9&#45;&gt;Node10 -->
<g id="edge9" class="edge">
<title>Node9&#45;&gt;Node10</title>
<path fill="none" stroke="midnightblue" d="M655.34,-56.4C648.86,-47.84 640.57,-36.87 633.75,-27.86"/>
<polygon fill="midnightblue" stroke="midnightblue" points="636.37,-25.52 627.55,-19.66 630.79,-29.74 636.37,-25.52"/>
</g>
<!-- Node12&#45;&gt;Node3 -->
<g id="edge13" class="edge">
<title>Node12&#45;&gt;Node3</title>
<path fill="none" stroke="midnightblue" d="M119.78,-128.73C103.58,-116.72 80.49,-99.58 64.07,-87.39"/>
<polygon fill="midnightblue" stroke="midnightblue" points="65.83,-84.34 55.71,-81.19 61.66,-89.96 65.83,-84.34"/>
</g>
<!-- Node12&#45;&gt;Node9 -->
<g id="edge14" class="edge">
<title>Node12&#45;&gt;Node9</title>
<path fill="none" stroke="midnightblue" d="M189.54,-128.95C198.63,-126.74 208.06,-124.64 217,-123 348.68,-98.83 504.35,-84.44 593.49,-77.54"/>
<polygon fill="midnightblue" stroke="midnightblue" points="593.79,-81.02 603.5,-76.77 593.26,-74.04 593.79,-81.02"/>
</g>
<!-- Node13 -->
<g id="node13" class="node">
<title>Node13</title>
<g id="a_node13"><a xlink:title=" ">
<polygon fill="none" stroke="#bfbfbf" points="108.5,-62 108.5,-81 169.5,-81 169.5,-62 108.5,-62"/>
<text text-anchor="middle" x="139" y="-69" font-family="Helvetica,sans-Serif" font-size="10.00">ucontext.h</text>
</a>
</g>
</g>
<!-- Node12&#45;&gt;Node13 -->
<g id="edge15" class="edge">
<title>Node12&#45;&gt;Node13</title>
<path fill="none" stroke="midnightblue" d="M139,-128.73C139,-118 139,-103.19 139,-91.46"/>
<polygon fill="midnightblue" stroke="midnightblue" points="142.5,-91.39 139,-81.39 135.5,-91.39 142.5,-91.39"/>
</g>
<!-- Node14&#45;&gt;Node9 -->
<g id="edge17" class="edge">
<title>Node14&#45;&gt;Node9</title>
<path fill="none" stroke="midnightblue" d="M636.49,-128.73C641.45,-119.27 648.08,-106.64 653.8,-95.75"/>
<polygon fill="midnightblue" stroke="midnightblue" points="656.98,-97.23 658.52,-86.75 650.78,-93.97 656.98,-97.23"/>
</g>
<!-- Node14&#45;&gt;Node10 -->
<g id="edge18" class="edge">
<title>Node14&#45;&gt;Node10</title>
<path fill="none" stroke="midnightblue" d="M617.37,-128.83C609.34,-118.08 599.35,-102.55 595,-87 591.29,-73.73 591.43,-69.31 595,-56 597.65,-46.1 603.07,-36.13 608.27,-28.1"/>
<polygon fill="midnightblue" stroke="midnightblue" points="611.29,-29.89 614.11,-19.68 605.54,-25.91 611.29,-29.89"/>
</g>
<!-- Node18&#45;&gt;Node2 -->
<g id="edge25" class="edge">
<title>Node18&#45;&gt;Node2</title>
<path fill="none" stroke="midnightblue" d="M835.16,-272.49C776.67,-260.97 680.65,-242.05 617.88,-229.69"/>
<polygon fill="midnightblue" stroke="midnightblue" points="618.2,-226.18 607.71,-227.69 616.85,-233.05 618.2,-226.18"/>
</g>
<!-- Node18&#45;&gt;Node5 -->
<g id="edge30" class="edge">
<title>Node18&#45;&gt;Node5</title>
<path fill="none" stroke="midnightblue" d="M892.67,-268.37C901.67,-250.6 919.25,-220.09 942,-201 971.56,-176.2 1000.13,-197.45 1021,-165 1031.1,-149.3 1029.72,-139.51 1021,-123 1012.01,-105.99 994.43,-93.62 978.66,-85.39"/>
<polygon fill="midnightblue" stroke="midnightblue" points="980.18,-82.24 969.66,-81.01 977.12,-88.53 980.18,-82.24"/>
</g>
<!-- Node18&#45;&gt;Node8 -->
<g id="edge24" class="edge">
<title>Node18&#45;&gt;Node8</title>
<path fill="none" stroke="midnightblue" d="M888.27,-268.44C891.3,-251.78 897.54,-223.45 908,-201 913.5,-189.21 921.45,-177.22 928.75,-167.39"/>
<polygon fill="midnightblue" stroke="midnightblue" points="931.6,-169.42 934.91,-159.35 926.05,-165.16 931.6,-169.42"/>
</g>
<!-- Node18&#45;&gt;Node9 -->
<g id="edge27" class="edge">
<title>Node18&#45;&gt;Node9</title>
<path fill="none" stroke="midnightblue" d="M835.43,-277.1C802.09,-271.11 759.49,-258.51 731,-232 720.53,-222.26 689.43,-138.07 674.37,-96.09"/>
<polygon fill="midnightblue" stroke="midnightblue" points="677.65,-94.87 670.99,-86.63 671.06,-97.23 677.65,-94.87"/>
</g>
<!-- Node18&#45;&gt;Node14 -->
<g id="edge26" class="edge">
<title>Node18&#45;&gt;Node14</title>
<path fill="none" stroke="midnightblue" d="M835.1,-279.47C792.44,-274.75 731.69,-262.69 688,-232 665.26,-216.03 648.7,-188.28 639.01,-168.41"/>
<polygon fill="midnightblue" stroke="midnightblue" points="642.08,-166.7 634.69,-159.11 635.73,-169.65 642.08,-166.7"/>
</g>
<!-- Node19 -->
<g id="node19" class="node">
<title>Node19</title>
<g id="a_node19"><a xlink:href="inject_8hpp.html" target="_top" xlink:title=" ">
<polygon fill="none" stroke="black" points="739.5,-207 739.5,-226 846.5,-226 846.5,-207 739.5,-207"/>
<text text-anchor="middle" x="793" y="-214" font-family="Helvetica,sans-Serif" font-size="10.00">yaclib/fault/inject.hpp</text>
</a>
</g>
</g>
<!-- Node18&#45;&gt;Node19 -->
<g id="edge28" class="edge">
<title>Node18&#45;&gt;Node19</title>
<path fill="none" stroke="midnightblue" d="M865.82,-268.4C850.37,-257.6 829.14,-242.76 813.58,-231.89"/>
<polygon fill="midnightblue" stroke="midnightblue" points="815.37,-228.87 805.17,-226.01 811.36,-234.6 815.37,-228.87"/>
</g>
<!-- Node20 -->
<g id="node20" class="node">
<title>Node20</title>
<g id="a_node20"><a xlink:title=" ">
<polygon fill="none" stroke="#bfbfbf" points="1004,-207 1004,-226 1050,-226 1050,-207 1004,-207"/>
<text text-anchor="middle" x="1027" y="-214" font-family="Helvetica,sans-Serif" font-size="10.00">chrono</text>
</a>
</g>
</g>
<!-- Node18&#45;&gt;Node20 -->
<g id="edge31" class="edge">
<title>Node18&#45;&gt;Node20</title>
<path fill="none" stroke="midnightblue" d="M916.59,-268.4C941.23,-257.04 975.55,-241.22 999.36,-230.24"/>
<polygon fill="midnightblue" stroke="midnightblue" points="1000.93,-233.37 1008.55,-226.01 998,-227.02 1000.93,-233.37"/>
</g>
<!-- Node21 -->
<g id="node21" class="node">
<title>Node21</title>
<g id="a_node21"><a xlink:title=" ">
<polygon fill="none" stroke="#bfbfbf" points="950.5,-207 950.5,-226 985.5,-226 985.5,-207 950.5,-207"/>
<text text-anchor="middle" x="968" y="-214" font-family="Helvetica,sans-Serif" font-size="10.00">map</text>
</a>
</g>
</g>
<!-- Node18&#45;&gt;Node21 -->
<g id="edge32" class="edge">
<title>Node18&#45;&gt;Node21</title>
<path fill="none" stroke="midnightblue" d="M903.79,-268.4C917.08,-257.86 935.23,-243.48 948.84,-232.69"/>
<polygon fill="midnightblue" stroke="midnightblue" points="951.37,-235.15 957.03,-226.19 947.02,-229.66 951.37,-235.15"/>
</g>
<!-- Node19&#45;&gt;Node7 -->
<g id="edge29" class="edge">
<title>Node19&#45;&gt;Node7</title>
<path fill="none" stroke="midnightblue" d="M785.18,-207C777.07,-197.56 764.9,-181.46 760,-165 754.67,-147.11 752.81,-140.23 760,-123 766.04,-108.52 778.47,-96.07 789.55,-87.15"/>
<polygon fill="midnightblue" stroke="midnightblue" points="791.76,-89.87 797.63,-81.05 787.54,-84.28 791.76,-89.87"/>
</g>
<!-- Node22&#45;&gt;Node18 -->
<g id="edge34" class="edge">
<title>Node22&#45;&gt;Node18</title>
<path fill="none" stroke="midnightblue" d="M965.08,-335.4C950.92,-326.28 932.29,-314.29 916.67,-304.24"/>
<polygon fill="midnightblue" stroke="midnightblue" points="918.18,-301.05 907.87,-298.58 914.39,-306.93 918.18,-301.05"/>
</g>
<!-- Node22&#45;&gt;Node20 -->
<g id="edge35" class="edge">
<title>Node22&#45;&gt;Node20</title>
<path fill="none" stroke="midnightblue" d="M991.28,-335.37C998.58,-311.29 1013.42,-262.31 1021.48,-235.7"/>
<polygon fill="midnightblue" stroke="midnightblue" points="1024.84,-236.68 1024.39,-226.1 1018.15,-234.65 1024.84,-236.68"/>
</g>
</g>
</svg>
