<?xml version="1.0" encoding="UTF-8" standalone="no"?>
<!DOCTYPE svg PUBLIC "-//W3C//DTD SVG 1.1//EN"
 "http://www.w3.org/Graphics/SVG/1.1/DTD/svg11.dtd">
<!-- Generated by graphviz version 9.0.0 (20230911.1827)
 -->
<!-- Title: src/fault/fiber/queue.cpp Pages: 1 -->
<!--zoomable 493 -->

<svg id="main" version="1.1" xmlns="http://www.w3.org/2000/svg" xmlns:xlink="http://www.w3.org/1999/xlink" xml:space="preserve" onload="init(evt)">
<style type="text/css"><![CDATA[
.node, .edge {opacity: 0.7;}
.node.selected, .edge.selected {opacity: 1;}
.edge:hover path { stroke: red; }
.edge:hover polygon { stroke: red; fill: red; }
]]></style>

<defs>
  <circle id="rim" cx="0" cy="0" r="7"/>
  <circle id="rim2" cx="0" cy="0" r="3.5"/>
  <g id="zoomPlus">
    <use xlink:href="#rim" fill="#404040"><set attributeName="fill" to="#808080" begin="zoomplus.mouseover" end="zoomplus.mouseout"/></use>
    <path d="M-4,0h8M0,-4v8" fill="none" stroke="white" stroke-width="1.5" pointer-events="none"/>
  </g>
  <g id="zoomMin">
    <use xlink:href="#rim" fill="#404040"><set attributeName="fill" to="#808080" begin="zoomminus.mouseover" end="zoomminus.mouseout"/></use>
    <path d="M-4,0h8" fill="none" stroke="white" stroke-width="1.5" pointer-events="none"/>
  </g>
  <g id="arrowUp" transform="translate(30 24)">
    <use xlink:href="#rim"/>
    <path pointer-events="none" fill="none" stroke="white" stroke-width="1.5" d="M0,-3.0v7 M-2.5,-0.5L0,-3.0L2.5,-0.5"/>
  </g>
  <g id="arrowRight" transform="rotate(90) translate(36 -43)">
    <use xlink:href="#rim"/>
    <path pointer-events="none" fill="none" stroke="white" stroke-width="1.5" d="M0,-3.0v7 M-2.5,-0.5L0,-3.0L2.5,-0.5"/>
  </g>
  <g id="arrowDown" transform="rotate(180) translate(-30 -48)">
    <use xlink:href="#rim"/>
    <path pointer-events="none" fill="none" stroke="white" stroke-width="1.5" d="M0,-3.0v7 M-2.5,-0.5L0,-3.0L2.5,-0.5"/>
  </g>
  <g id="arrowLeft" transform="rotate(270) translate(-36 17)">
    <use xlink:href="#rim"/>
    <path pointer-events="none" fill="none" stroke="white" stroke-width="1.5" d="M0,-3.0v7 M-2.5,-0.5L0,-3.0L2.5,-0.5"/>
  </g>
  <g id="resetDef">
    <use xlink:href="#rim2" fill="#404040"><set attributeName="fill" to="#808080" begin="reset.mouseover" end="reset.mouseout"/></use>
  </g>
</defs>
<script type="application/ecmascript">
var viewWidth = 1141;
var viewHeight = 493;
var sectionId = 'dynsection-0';
</script>
<script type="application/ecmascript" xlink:href="svg.min.js"/>
<svg id="graph" class="graph">
<g id="viewport">
<title>src/fault/fiber/queue.cpp</title>
<!-- Node1 -->
<g id="Node000001" class="node">
<title>Node1</title>
<g id="a_Node000001"><a xlink:title=" ">
<polygon fill="#999999" stroke="#666666" points="757.75,-484.75 638.25,-484.75 638.25,-465.5 757.75,-465.5 757.75,-484.75"/>
<text text-anchor="middle" x="698" y="-471.25" font-family="Helvetica,sans-Serif" font-size="10.00">src/fault/fiber/queue.cpp</text>
</a>
</g>
</g>
<!-- Node2 -->
<g id="Node000002" class="node">
<title>Node2</title>
<g id="a_Node000002"><a xlink:href="queue_8hpp.html" target="_top" xlink:title=" ">
<polygon fill="white" stroke="#666666" points="742.38,-429.5 653.62,-429.5 653.62,-399 742.38,-399 742.38,-429.5"/>
<text text-anchor="start" x="661.62" y="-416" font-family="Helvetica,sans-Serif" font-size="10.00">yaclib/fault/detail</text>
<text text-anchor="middle" x="698" y="-404.75" font-family="Helvetica,sans-Serif" font-size="10.00">/fiber/queue.hpp</text>
</a>
</g>
</g>
<!-- Node1&#45;&gt;Node2 -->
<g id="edge1_Node000001_Node000002" class="edge">
<title>Node1&#45;&gt;Node2</title>
<g id="a_edge1_Node000001_Node000002"><a xlink:title=" ">
<path fill="none" stroke="#63b8ff" d="M698,-465.18C698,-458.73 698,-449.66 698,-441.01"/>
<polygon fill="#63b8ff" stroke="#63b8ff" points="701.5,-441.3 698,-431.3 694.5,-441.3 701.5,-441.3"/>
</a>
</g>
</g>
<!-- Node3 -->
<g id="Node000003" class="node">
<title>Node3</title>
<g id="a_Node000003"><a xlink:href="fiber__base_8hpp.html" target="_top" xlink:title=" ">
<polygon fill="white" stroke="#666666" points="547.12,-230 444.88,-230 444.88,-199.5 547.12,-199.5 547.12,-230"/>
<text text-anchor="start" x="452.88" y="-216.5" font-family="Helvetica,sans-Serif" font-size="10.00">yaclib/fault/detail</text>
<text text-anchor="middle" x="496" y="-205.25" font-family="Helvetica,sans-Serif" font-size="10.00">/fiber/fiber_base.hpp</text>
</a>
</g>
</g>
<!-- Node2&#45;&gt;Node3 -->
<g id="edge2_Node000002_Node000003" class="edge">
<title>Node2&#45;&gt;Node3</title>
<g id="a_edge2_Node000002_Node000003"><a xlink:title=" ">
<path fill="none" stroke="#63b8ff" d="M683.15,-398.73C648.27,-364.63 560.94,-279.25 519.08,-238.32"/>
<polygon fill="#63b8ff" stroke="#63b8ff" points="521.55,-235.84 511.96,-231.35 516.66,-240.85 521.55,-235.84"/>
</a>
</g>
</g>
<!-- Node12 -->
<g id="Node000012" class="node">
<title>Node12</title>
<g id="a_Node000012"><a xlink:title=" ">
<polygon fill="#e0e0e0" stroke="#999999" points="444.5,-80.12 401.5,-80.12 401.5,-60.88 444.5,-60.88 444.5,-80.12"/>
<text text-anchor="middle" x="423" y="-66.62" font-family="Helvetica,sans-Serif" font-size="10.00">vector</text>
</a>
</g>
</g>
<!-- Node2&#45;&gt;Node12 -->
<g id="edge39_Node000002_Node000012" class="edge">
<title>Node2&#45;&gt;Node12</title>
<g id="a_edge39_Node000002_Node000012"><a xlink:title=" ">
<path fill="none" stroke="#63b8ff" d="M653.28,-409.62C499.22,-396.54 0,-348.98 0,-282.25 0,-282.25 0,-282.25 0,-213.75 0,-165.65 16.49,-147.68 57,-121.75 112.07,-86.5 284.42,-95.94 349,-85.75 362.46,-83.63 377.21,-80.87 389.98,-78.35"/>
<polygon fill="#63b8ff" stroke="#63b8ff" points="390.45,-81.83 399.57,-76.43 389.07,-74.97 390.45,-81.83"/>
</a>
</g>
</g>
<!-- Node19 -->
<g id="Node000019" class="node">
<title>Node19</title>
<g id="a_Node000019"><a xlink:href="scheduler_8hpp.html" target="_top" xlink:title=" ">
<polygon fill="white" stroke="#666666" points="835,-296.5 735,-296.5 735,-266 835,-266 835,-296.5"/>
<text text-anchor="start" x="743" y="-283" font-family="Helvetica,sans-Serif" font-size="10.00">yaclib/fault/detail</text>
<text text-anchor="middle" x="785" y="-271.75" font-family="Helvetica,sans-Serif" font-size="10.00">/fiber/scheduler.hpp</text>
</a>
</g>
</g>
<!-- Node2&#45;&gt;Node19 -->
<g id="edge25_Node000002_Node000019" class="edge">
<title>Node2&#45;&gt;Node19</title>
<g id="a_edge25_Node000002_Node000019"><a xlink:title=" ">
<path fill="none" stroke="#63b8ff" d="M698.45,-398.65C699.62,-381.5 703.61,-352.82 717,-332.5 724.7,-320.82 736.09,-310.87 747.36,-302.98"/>
<polygon fill="#63b8ff" stroke="#63b8ff" points="749,-306.09 755.45,-297.68 745.16,-300.24 749,-306.09"/>
</a>
</g>
</g>
<!-- Node23 -->
<g id="Node000023" class="node">
<title>Node23</title>
<g id="a_Node000023"><a xlink:href="system__clock_8hpp.html" target="_top" xlink:title=" ">
<polygon fill="white" stroke="#666666" points="844,-363 726,-363 726,-332.5 844,-332.5 844,-363"/>
<text text-anchor="start" x="734" y="-349.5" font-family="Helvetica,sans-Serif" font-size="10.00">yaclib/fault/detail</text>
<text text-anchor="middle" x="785" y="-338.25" font-family="Helvetica,sans-Serif" font-size="10.00">/fiber/system_clock.hpp</text>
</a>
</g>
</g>
<!-- Node2&#45;&gt;Node23 -->
<g id="edge35_Node000002_Node000023" class="edge">
<title>Node2&#45;&gt;Node23</title>
<g id="a_edge35_Node000002_Node000023"><a xlink:title=" ">
<path fill="none" stroke="#63b8ff" d="M717.74,-398.61C729.09,-390.2 743.54,-379.48 756.14,-370.14"/>
<polygon fill="#63b8ff" stroke="#63b8ff" points="758.17,-373 764.12,-364.23 754,-367.37 758.17,-373"/>
</a>
</g>
</g>
<!-- Node24 -->
<g id="Node000024" class="node">
<title>Node24</title>
<g id="a_Node000024"><a xlink:href="wait__status_8hpp.html" target="_top" xlink:title=" ">
<polygon fill="white" stroke="#666666" points="950.38,-363 861.62,-363 861.62,-332.5 950.38,-332.5 950.38,-363"/>
<text text-anchor="start" x="869.62" y="-349.5" font-family="Helvetica,sans-Serif" font-size="10.00">yaclib/fault/detail</text>
<text text-anchor="middle" x="906" y="-338.25" font-family="Helvetica,sans-Serif" font-size="10.00">/wait_status.hpp</text>
</a>
</g>
</g>
<!-- Node2&#45;&gt;Node24 -->
<g id="edge38_Node000002_Node000024" class="edge">
<title>Node2&#45;&gt;Node24</title>
<g id="a_edge38_Node000002_Node000024"><a xlink:title=" ">
<path fill="none" stroke="#63b8ff" d="M742.62,-399.41C774.29,-389.59 817,-376.35 850.81,-365.86"/>
<polygon fill="#63b8ff" stroke="#63b8ff" points="851.49,-369.32 860.01,-363.01 849.42,-362.63 851.49,-369.32"/>
</a>
</g>
</g>
<!-- Node4 -->
<g id="Node000004" class="node">
<title>Node4</title>
<g id="a_Node000004"><a xlink:title=" ">
<polygon fill="#e0e0e0" stroke="#999999" points="171.62,-80.12 84.38,-80.12 84.38,-60.88 171.62,-60.88 171.62,-80.12"/>
<text text-anchor="middle" x="128" y="-66.62" font-family="Helvetica,sans-Serif" font-size="10.00">yaclib/config.hpp</text>
</a>
</g>
</g>
<!-- Node3&#45;&gt;Node4 -->
<g id="edge3_Node000003_Node000004" class="edge">
<title>Node3&#45;&gt;Node4</title>
<g id="a_edge3_Node000003_Node000004"><a xlink:title=" ">
<path fill="none" stroke="#63b8ff" d="M444.6,-211.64C334.22,-206.58 82.44,-192.02 57,-163.5 44.65,-149.65 48.47,-138.23 57,-121.75 65.23,-105.84 81.08,-93.88 95.72,-85.64"/>
<polygon fill="#63b8ff" stroke="#63b8ff" points="96.96,-88.94 104.21,-81.21 93.72,-82.73 96.96,-88.94"/>
</a>
</g>
</g>
<!-- Node5 -->
<g id="Node000005" class="node">
<title>Node5</title>
<g id="a_Node000005"><a xlink:href="bidirectional__intrusive__list_8hpp.html" target="_top" xlink:title=" ">
<polygon fill="white" stroke="#666666" points="962,-163.5 868,-163.5 868,-121.75 962,-121.75 962,-163.5"/>
<text text-anchor="start" x="876" y="-150" font-family="Helvetica,sans-Serif" font-size="10.00">yaclib/fault/detail</text>
<text text-anchor="start" x="876" y="-138.75" font-family="Helvetica,sans-Serif" font-size="10.00">/fiber/bidirectional</text>
<text text-anchor="middle" x="915" y="-127.5" font-family="Helvetica,sans-Serif" font-size="10.00">_intrusive_list.hpp</text>
</a>
</g>
</g>
<!-- Node3&#45;&gt;Node5 -->
<g id="edge4_Node000003_Node000005" class="edge">
<title>Node3&#45;&gt;Node5</title>
<g id="a_edge4_Node000003_Node000005"><a xlink:title=" ">
<path fill="none" stroke="#63b8ff" d="M547.42,-209.95C616.11,-204.14 741.6,-191.01 856.46,-163.88"/>
<polygon fill="#63b8ff" stroke="#63b8ff" points="857.17,-167.31 866.07,-161.56 855.53,-160.5 857.17,-167.31"/>
</a>
</g>
</g>
<!-- Node9 -->
<g id="Node000009" class="node">
<title>Node9</title>
<g id="a_Node000009"><a xlink:href="default__allocator_8hpp.html" target="_top" xlink:title=" ">
<polygon fill="white" stroke="#666666" points="849.62,-157.88 720.38,-157.88 720.38,-127.38 849.62,-127.38 849.62,-157.88"/>
<text text-anchor="start" x="728.38" y="-144.38" font-family="Helvetica,sans-Serif" font-size="10.00">yaclib/fault/detail</text>
<text text-anchor="middle" x="785" y="-133.12" font-family="Helvetica,sans-Serif" font-size="10.00">/fiber/default_allocator.hpp</text>
</a>
</g>
</g>
<!-- Node3&#45;&gt;Node9 -->
<g id="edge8_Node000003_Node000009" class="edge">
<title>Node3&#45;&gt;Node9</title>
<g id="a_edge8_Node000003_Node000009"><a xlink:title=" ">
<path fill="none" stroke="#63b8ff" d="M547.37,-202.24C591,-192.35 655.23,-177.5 711,-163.5 714.08,-162.73 717.24,-161.92 720.42,-161.1"/>
<polygon fill="#63b8ff" stroke="#63b8ff" points="721.04,-164.56 729.83,-158.65 719.27,-157.78 721.04,-164.56"/>
</a>
</g>
</g>
<!-- Node10 -->
<g id="Node000010" class="node">
<title>Node10</title>
<g id="a_Node000010"><a xlink:href="stack__allocator_8hpp.html" target="_top" xlink:title=" ">
<polygon fill="white" stroke="#666666" points="639,-85.75 515,-85.75 515,-55.25 639,-55.25 639,-85.75"/>
<text text-anchor="start" x="523" y="-72.25" font-family="Helvetica,sans-Serif" font-size="10.00">yaclib/fault/detail</text>
<text text-anchor="middle" x="577" y="-61" font-family="Helvetica,sans-Serif" font-size="10.00">/fiber/stack_allocator.hpp</text>
</a>
</g>
</g>
<!-- Node3&#45;&gt;Node10 -->
<g id="edge21_Node000003_Node000010" class="edge">
<title>Node3&#45;&gt;Node10</title>
<g id="a_edge21_Node000003_Node000010"><a xlink:title=" ">
<path fill="none" stroke="#63b8ff" d="M462.74,-199.06C448.38,-190.83 433.05,-179.06 425,-163.5 416.47,-147.02 414.13,-136.79 425,-121.75 443.12,-96.68 474.2,-83.91 503.56,-77.49"/>
<polygon fill="#63b8ff" stroke="#63b8ff" points="504.07,-80.95 513.21,-75.61 502.73,-74.08 504.07,-80.95"/>
</a>
</g>
</g>
<!-- Node13 -->
<g id="Node000013" class="node">
<title>Node13</title>
<g id="a_Node000013"><a xlink:href="execution__context_8hpp.html" target="_top" xlink:title=" ">
<polygon fill="white" stroke="#666666" points="378,-157.88 242,-157.88 242,-127.38 378,-127.38 378,-157.88"/>
<text text-anchor="start" x="250" y="-144.38" font-family="Helvetica,sans-Serif" font-size="10.00">yaclib/fault/detail</text>
<text text-anchor="middle" x="310" y="-133.12" font-family="Helvetica,sans-Serif" font-size="10.00">/fiber/execution_context.hpp</text>
</a>
</g>
</g>
<!-- Node3&#45;&gt;Node13 -->
<g id="edge14_Node000003_Node000013" class="edge">
<title>Node3&#45;&gt;Node13</title>
<g id="a_edge14_Node000003_Node000013"><a xlink:title=" ">
<path fill="none" stroke="#63b8ff" d="M457.01,-199.05C428.61,-188.34 389.93,-173.76 359.38,-162.24"/>
<polygon fill="#63b8ff" stroke="#63b8ff" points="360.95,-159.09 350.36,-158.84 358.48,-165.64 360.95,-159.09"/>
</a>
</g>
</g>
<!-- Node15 -->
<g id="Node000015" class="node">
<title>Node15</title>
<g id="a_Node000015"><a xlink:href="stack_8hpp.html" target="_top" xlink:title=" ">
<polygon fill="white" stroke="#666666" points="702.38,-157.88 613.62,-157.88 613.62,-127.38 702.38,-127.38 702.38,-157.88"/>
<text text-anchor="start" x="621.62" y="-144.38" font-family="Helvetica,sans-Serif" font-size="10.00">yaclib/fault/detail</text>
<text text-anchor="middle" x="658" y="-133.12" font-family="Helvetica,sans-Serif" font-size="10.00">/fiber/stack.hpp</text>
</a>
</g>
</g>
<!-- Node3&#45;&gt;Node15 -->
<g id="edge18_Node000003_Node000015" class="edge">
<title>Node3&#45;&gt;Node15</title>
<g id="a_edge18_Node000003_Node000015"><a xlink:title=" ">
<path fill="none" stroke="#63b8ff" d="M529.96,-199.05C554.26,-188.53 587.21,-174.27 613.59,-162.85"/>
<polygon fill="#63b8ff" stroke="#63b8ff" points="614.91,-166.09 622.7,-158.91 612.13,-159.67 614.91,-166.09"/>
</a>
</g>
</g>
<!-- Node16 -->
<g id="Node000016" class="node">
<title>Node16</title>
<g id="a_Node000016"><a xlink:href="wakeup__helper_8hpp.html" target="_top" xlink:title=" ">
<polygon fill="white" stroke="#666666" points="557.62,-157.88 434.38,-157.88 434.38,-127.38 557.62,-127.38 557.62,-157.88"/>
<text text-anchor="start" x="442.38" y="-144.38" font-family="Helvetica,sans-Serif" font-size="10.00">yaclib/fault/detail</text>
<text text-anchor="middle" x="496" y="-133.12" font-family="Helvetica,sans-Serif" font-size="10.00">/fiber/wakeup_helper.hpp</text>
</a>
</g>
</g>
<!-- Node3&#45;&gt;Node16 -->
<g id="edge22_Node000003_Node000016" class="edge">
<title>Node3&#45;&gt;Node16</title>
<g id="a_edge22_Node000003_Node000016"><a xlink:title=" ">
<path fill="none" stroke="#63b8ff" d="M496,-199.22C496,-190.66 496,-179.59 496,-169.58"/>
<polygon fill="#63b8ff" stroke="#63b8ff" points="499.5,-169.65 496,-159.65 492.5,-169.65 499.5,-169.65"/>
</a>
</g>
</g>
<!-- Node17 -->
<g id="Node000017" class="node">
<title>Node17</title>
<g id="a_Node000017"><a xlink:title=" ">
<polygon fill="#e0e0e0" stroke="#999999" points="123.62,-152.25 66.38,-152.25 66.38,-133 123.62,-133 123.62,-152.25"/>
<text text-anchor="middle" x="95" y="-138.75" font-family="Helvetica,sans-Serif" font-size="10.00">exception</text>
</a>
</g>
</g>
<!-- Node3&#45;&gt;Node17 -->
<g id="edge23_Node000003_Node000017" class="edge">
<title>Node3&#45;&gt;Node17</title>
<g id="a_edge23_Node000003_Node000017"><a xlink:title=" ">
<path fill="none" stroke="#63b8ff" d="M444.57,-212.17C373.1,-208.74 240.4,-197.87 133,-163.5 128.37,-162.02 123.64,-160 119.15,-157.82"/>
<polygon fill="#63b8ff" stroke="#63b8ff" points="121.1,-154.89 110.62,-153.3 117.82,-161.08 121.1,-154.89"/>
</a>
</g>
</g>
<!-- Node18 -->
<g id="Node000018" class="node">
<title>Node18</title>
<g id="a_Node000018"><a xlink:title=" ">
<polygon fill="#e0e0e0" stroke="#999999" points="224.38,-152.25 141.62,-152.25 141.62,-133 224.38,-133 224.38,-152.25"/>
<text text-anchor="middle" x="183" y="-138.75" font-family="Helvetica,sans-Serif" font-size="10.00">unordered_map</text>
</a>
</g>
</g>
<!-- Node3&#45;&gt;Node18 -->
<g id="edge24_Node000003_Node000018" class="edge">
<title>Node3&#45;&gt;Node18</title>
<g id="a_edge24_Node000003_Node000018"><a xlink:title=" ">
<path fill="none" stroke="#63b8ff" d="M444.41,-206.85C390.88,-199.01 305.08,-184.5 233,-163.5 226.57,-161.62 219.81,-159.24 213.42,-156.78"/>
<polygon fill="#63b8ff" stroke="#63b8ff" points="215.12,-153.69 204.53,-153.2 212.5,-160.18 215.12,-153.69"/>
</a>
</g>
</g>
<!-- Node6 -->
<g id="Node000006" class="node">
<title>Node6</title>
<g id="a_Node000006"><a xlink:href="log_8hpp.html" target="_top" xlink:title=" ">
<polygon fill="white" stroke="#666666" points="991.25,-80.12 916.75,-80.12 916.75,-60.88 991.25,-60.88 991.25,-80.12"/>
<text text-anchor="middle" x="954" y="-66.62" font-family="Helvetica,sans-Serif" font-size="10.00">yaclib/log.hpp</text>
</a>
</g>
</g>
<!-- Node5&#45;&gt;Node6 -->
<g id="edge5_Node000005_Node000006" class="edge">
<title>Node5&#45;&gt;Node6</title>
<g id="a_edge5_Node000005_Node000006"><a xlink:title=" ">
<path fill="none" stroke="#63b8ff" d="M926.28,-121.34C931.71,-111.57 938.19,-99.93 943.51,-90.36"/>
<polygon fill="#63b8ff" stroke="#63b8ff" points="946.57,-92.06 948.37,-81.62 940.45,-88.66 946.57,-92.06"/>
</a>
</g>
</g>
<!-- Node8 -->
<g id="Node000008" class="node">
<title>Node8</title>
<g id="a_Node000008"><a xlink:title=" ">
<polygon fill="#e0e0e0" stroke="#999999" points="898.62,-80.12 853.38,-80.12 853.38,-60.88 898.62,-60.88 898.62,-80.12"/>
<text text-anchor="middle" x="876" y="-66.62" font-family="Helvetica,sans-Serif" font-size="10.00">cstdint</text>
</a>
</g>
</g>
<!-- Node5&#45;&gt;Node8 -->
<g id="edge7_Node000005_Node000008" class="edge">
<title>Node5&#45;&gt;Node8</title>
<g id="a_edge7_Node000005_Node000008"><a xlink:title=" ">
<path fill="none" stroke="#63b8ff" d="M903.72,-121.34C898.29,-111.57 891.81,-99.93 886.49,-90.36"/>
<polygon fill="#63b8ff" stroke="#63b8ff" points="889.55,-88.66 881.63,-81.62 883.43,-92.06 889.55,-88.66"/>
</a>
</g>
</g>
<!-- Node7 -->
<g id="Node000007" class="node">
<title>Node7</title>
<g id="a_Node000007"><a xlink:title=" ">
<polygon fill="#e0e0e0" stroke="#999999" points="986.75,-19.25 921.25,-19.25 921.25,0 986.75,0 986.75,-19.25"/>
<text text-anchor="middle" x="954" y="-5.75" font-family="Helvetica,sans-Serif" font-size="10.00">string_view</text>
</a>
</g>
</g>
<!-- Node6&#45;&gt;Node7 -->
<g id="edge6_Node000006_Node000007" class="edge">
<title>Node6&#45;&gt;Node7</title>
<g id="a_edge6_Node000006_Node000007"><a xlink:title=" ">
<path fill="none" stroke="#63b8ff" d="M954,-60.56C954,-52.78 954,-41.2 954,-31.16"/>
<polygon fill="#63b8ff" stroke="#63b8ff" points="957.5,-31.16 954,-21.16 950.5,-31.16 957.5,-31.16"/>
</a>
</g>
</g>
<!-- Node9&#45;&gt;Node6 -->
<g id="edge11_Node000009_Node000006" class="edge">
<title>Node9&#45;&gt;Node6</title>
<g id="a_edge11_Node000009_Node000006"><a xlink:title=" ">
<path fill="none" stroke="#63b8ff" d="M820.43,-126.92C850.3,-114.53 892.68,-96.94 921.64,-84.93"/>
<polygon fill="#63b8ff" stroke="#63b8ff" points="922.74,-88.26 930.64,-81.19 920.06,-81.79 922.74,-88.26"/>
</a>
</g>
</g>
<!-- Node9&#45;&gt;Node8 -->
<g id="edge12_Node000009_Node000008" class="edge">
<title>Node9&#45;&gt;Node8</title>
<g id="a_edge12_Node000009_Node000008"><a xlink:title=" ">
<path fill="none" stroke="#63b8ff" d="M803.86,-127.1C818.94,-115.47 840.07,-99.19 855.56,-87.25"/>
<polygon fill="#63b8ff" stroke="#63b8ff" points="857.39,-90.26 863.18,-81.38 853.12,-84.71 857.39,-90.26"/>
</a>
</g>
</g>
<!-- Node9&#45;&gt;Node10 -->
<g id="edge9_Node000009_Node000010" class="edge">
<title>Node9&#45;&gt;Node10</title>
<g id="a_edge9_Node000009_Node000010"><a xlink:title=" ">
<path fill="none" stroke="#63b8ff" d="M741.4,-126.92C709.36,-116.13 665.63,-101.38 631.33,-89.82"/>
<polygon fill="#63b8ff" stroke="#63b8ff" points="632.57,-86.54 621.98,-86.66 630.34,-93.18 632.57,-86.54"/>
</a>
</g>
</g>
<!-- Node9&#45;&gt;Node12 -->
<g id="edge13_Node000009_Node000012" class="edge">
<title>Node9&#45;&gt;Node12</title>
<g id="a_edge13_Node000009_Node000012"><a xlink:title=" ">
<path fill="none" stroke="#63b8ff" d="M732.59,-126.93C725.36,-125.08 718.01,-123.3 711,-121.75 698.59,-119.01 529.21,-89.78 456.16,-77.2"/>
<polygon fill="#63b8ff" stroke="#63b8ff" points="456.83,-73.77 446.39,-75.52 455.65,-80.67 456.83,-73.77"/>
</a>
</g>
</g>
<!-- Node11 -->
<g id="Node000011" class="node">
<title>Node11</title>
<g id="a_Node000011"><a xlink:title=" ">
<polygon fill="#e0e0e0" stroke="#999999" points="646.12,-19.25 597.88,-19.25 597.88,0 646.12,0 646.12,-19.25"/>
<text text-anchor="middle" x="622" y="-5.75" font-family="Helvetica,sans-Serif" font-size="10.00">cstddef</text>
</a>
</g>
</g>
<!-- Node10&#45;&gt;Node11 -->
<g id="edge10_Node000010_Node000011" class="edge">
<title>Node10&#45;&gt;Node11</title>
<g id="a_edge10_Node000010_Node000011"><a xlink:title=" ">
<path fill="none" stroke="#63b8ff" d="M588.12,-54.95C594.18,-47.02 601.74,-37.13 608.18,-28.71"/>
<polygon fill="#63b8ff" stroke="#63b8ff" points="610.85,-30.97 614.14,-20.9 605.29,-26.72 610.85,-30.97"/>
</a>
</g>
</g>
<!-- Node13&#45;&gt;Node4 -->
<g id="edge15_Node000013_Node000004" class="edge">
<title>Node13&#45;&gt;Node4</title>
<g id="a_edge15_Node000013_Node000004"><a xlink:title=" ">
<path fill="none" stroke="#63b8ff" d="M271.85,-126.92C239.4,-114.42 193.23,-96.63 162.02,-84.61"/>
<polygon fill="#63b8ff" stroke="#63b8ff" points="163.66,-81.49 153.07,-81.16 161.14,-88.02 163.66,-81.49"/>
</a>
</g>
</g>
<!-- Node13&#45;&gt;Node10 -->
<g id="edge16_Node000013_Node000010" class="edge">
<title>Node13&#45;&gt;Node10</title>
<g id="a_edge16_Node000013_Node000010"><a xlink:title=" ">
<path fill="none" stroke="#63b8ff" d="M365.97,-126.92C407.98,-115.89 465.66,-100.74 510.11,-89.07"/>
<polygon fill="#63b8ff" stroke="#63b8ff" points="510.85,-92.49 519.64,-86.57 509.08,-85.72 510.85,-92.49"/>
</a>
</g>
</g>
<!-- Node14 -->
<g id="Node000014" class="node">
<title>Node14</title>
<g id="a_Node000014"><a xlink:title=" ">
<polygon fill="#e0e0e0" stroke="#999999" points="340.12,-80.12 279.88,-80.12 279.88,-60.88 340.12,-60.88 340.12,-80.12"/>
<text text-anchor="middle" x="310" y="-66.62" font-family="Helvetica,sans-Serif" font-size="10.00">ucontext.h</text>
</a>
</g>
</g>
<!-- Node13&#45;&gt;Node14 -->
<g id="edge17_Node000013_Node000014" class="edge">
<title>Node13&#45;&gt;Node14</title>
<g id="a_edge17_Node000013_Node000014"><a xlink:title=" ">
<path fill="none" stroke="#63b8ff" d="M310,-127.1C310,-116.84 310,-102.95 310,-91.63"/>
<polygon fill="#63b8ff" stroke="#63b8ff" points="313.5,-91.77 310,-81.77 306.5,-91.77 313.5,-91.77"/>
</a>
</g>
</g>
<!-- Node15&#45;&gt;Node10 -->
<g id="edge19_Node000015_Node000010" class="edge">
<title>Node15&#45;&gt;Node10</title>
<g id="a_edge19_Node000015_Node000010"><a xlink:title=" ">
<path fill="none" stroke="#63b8ff" d="M641.22,-127.1C629.92,-117.32 614.83,-104.25 602.11,-93.24"/>
<polygon fill="#63b8ff" stroke="#63b8ff" points="604.76,-90.9 594.91,-87 600.18,-96.19 604.76,-90.9"/>
</a>
</g>
</g>
<!-- Node15&#45;&gt;Node11 -->
<g id="edge20_Node000015_Node000011" class="edge">
<title>Node15&#45;&gt;Node11</title>
<g id="a_edge20_Node000015_Node000011"><a xlink:title=" ">
<path fill="none" stroke="#63b8ff" d="M658.12,-127.17C657.86,-109.7 656.11,-79.6 648,-55.25 644.96,-46.13 639.91,-36.81 635.06,-29.07"/>
<polygon fill="#63b8ff" stroke="#63b8ff" points="638.08,-27.3 629.62,-20.92 632.25,-31.18 638.08,-27.3"/>
</a>
</g>
</g>
<!-- Node19&#45;&gt;Node3 -->
<g id="edge27_Node000019_Node000003" class="edge">
<title>Node19&#45;&gt;Node3</title>
<g id="a_edge27_Node000019_Node000003"><a xlink:title=" ">
<path fill="none" stroke="#63b8ff" d="M734.66,-269.01C685.69,-258.09 611.18,-241.46 558.46,-229.69"/>
<polygon fill="#63b8ff" stroke="#63b8ff" points="559.22,-226.27 548.7,-227.51 557.69,-233.11 559.22,-226.27"/>
</a>
</g>
</g>
<!-- Node19&#45;&gt;Node6 -->
<g id="edge32_Node000019_Node000006" class="edge">
<title>Node19&#45;&gt;Node6</title>
<g id="a_edge32_Node000019_Node000006"><a xlink:title=" ">
<path fill="none" stroke="#63b8ff" d="M835.36,-279.26C876.26,-275.76 932.75,-264.41 968,-230 1003.01,-195.82 1002.34,-168.53 988,-121.75 984.37,-109.92 976.91,-98.36 969.9,-89.32"/>
<polygon fill="#63b8ff" stroke="#63b8ff" points="972.72,-87.23 963.64,-81.77 967.33,-91.7 972.72,-87.23"/>
</a>
</g>
</g>
<!-- Node19&#45;&gt;Node9 -->
<g id="edge26_Node000019_Node000009" class="edge">
<title>Node19&#45;&gt;Node9</title>
<g id="a_edge26_Node000019_Node000009"><a xlink:title=" ">
<path fill="none" stroke="#63b8ff" d="M785,-265.63C785,-242.72 785,-198.06 785,-169.59"/>
<polygon fill="#63b8ff" stroke="#63b8ff" points="788.5,-169.65 785,-159.65 781.5,-169.65 788.5,-169.65"/>
</a>
</g>
</g>
<!-- Node19&#45;&gt;Node10 -->
<g id="edge29_Node000019_Node000010" class="edge">
<title>Node19&#45;&gt;Node10</title>
<g id="a_edge29_Node000019_Node000010"><a xlink:title=" ">
<path fill="none" stroke="#63b8ff" d="M748,-265.63C707.11,-247.62 642.14,-213.17 605,-163.5 590.43,-144.01 583.37,-116.89 580,-97.15"/>
<polygon fill="#63b8ff" stroke="#63b8ff" points="583.49,-96.82 578.56,-87.44 576.56,-97.85 583.49,-96.82"/>
</a>
</g>
</g>
<!-- Node19&#45;&gt;Node15 -->
<g id="edge28_Node000019_Node000015" class="edge">
<title>Node19&#45;&gt;Node15</title>
<g id="a_edge28_Node000019_Node000015"><a xlink:title=" ">
<path fill="none" stroke="#63b8ff" d="M771.41,-265.63C749.26,-241.8 705.21,-194.42 679.01,-166.23"/>
<polygon fill="#63b8ff" stroke="#63b8ff" points="681.9,-164.19 672.52,-159.25 676.77,-168.96 681.9,-164.19"/>
</a>
</g>
</g>
<!-- Node20 -->
<g id="Node000020" class="node">
<title>Node20</title>
<g id="a_Node000020"><a xlink:href="inject_8hpp.html" target="_top" xlink:title=" ">
<polygon fill="white" stroke="#666666" points="959.38,-224.38 852.62,-224.38 852.62,-205.12 959.38,-205.12 959.38,-224.38"/>
<text text-anchor="middle" x="906" y="-210.88" font-family="Helvetica,sans-Serif" font-size="10.00">yaclib/fault/inject.hpp</text>
</a>
</g>
</g>
<!-- Node19&#45;&gt;Node20 -->
<g id="edge30_Node000019_Node000020" class="edge">
<title>Node19&#45;&gt;Node20</title>
<g id="a_edge30_Node000019_Node000020"><a xlink:title=" ">
<path fill="none" stroke="#63b8ff" d="M812.46,-265.61C832.43,-254.96 859.35,-240.62 879.17,-230.05"/>
<polygon fill="#63b8ff" stroke="#63b8ff" points="880.58,-233.26 887.76,-225.47 877.29,-227.09 880.58,-233.26"/>
</a>
</g>
</g>
<!-- Node21 -->
<g id="Node000021" class="node">
<title>Node21</title>
<g id="a_Node000021"><a xlink:title=" ">
<polygon fill="#e0e0e0" stroke="#999999" points="1132.62,-224.38 1087.38,-224.38 1087.38,-205.12 1132.62,-205.12 1132.62,-224.38"/>
<text text-anchor="middle" x="1110" y="-210.88" font-family="Helvetica,sans-Serif" font-size="10.00">chrono</text>
</a>
</g>
</g>
<!-- Node19&#45;&gt;Node21 -->
<g id="edge33_Node000019_Node000021" class="edge">
<title>Node19&#45;&gt;Node21</title>
<g id="a_edge33_Node000019_Node000021"><a xlink:title=" ">
<path fill="none" stroke="#63b8ff" d="M835.39,-275.47C894.47,-268.98 994.9,-255.2 1078,-230 1078.99,-229.7 1080,-229.37 1081,-229.03"/>
<polygon fill="#63b8ff" stroke="#63b8ff" points="1082.25,-232.3 1090.28,-225.39 1079.69,-225.79 1082.25,-232.3"/>
</a>
</g>
</g>
<!-- Node22 -->
<g id="Node000022" class="node">
<title>Node22</title>
<g id="a_Node000022"><a xlink:title=" ">
<polygon fill="#e0e0e0" stroke="#999999" points="1069.38,-224.38 1034.62,-224.38 1034.62,-205.12 1069.38,-205.12 1069.38,-224.38"/>
<text text-anchor="middle" x="1052" y="-210.88" font-family="Helvetica,sans-Serif" font-size="10.00">map</text>
</a>
</g>
</g>
<!-- Node19&#45;&gt;Node22 -->
<g id="edge34_Node000019_Node000022" class="edge">
<title>Node19&#45;&gt;Node22</title>
<g id="a_edge34_Node000019_Node000022"><a xlink:title=" ">
<path fill="none" stroke="#63b8ff" d="M835.12,-272.88C883.48,-265.01 958.38,-250.78 1021,-230 1021.96,-229.68 1022.93,-229.34 1023.9,-228.99"/>
<polygon fill="#63b8ff" stroke="#63b8ff" points="1024.93,-232.35 1032.84,-225.3 1022.26,-225.88 1024.93,-232.35"/>
</a>
</g>
</g>
<!-- Node20&#45;&gt;Node8 -->
<g id="edge31_Node000020_Node000008" class="edge">
<title>Node20&#45;&gt;Node8</title>
<g id="a_edge31_Node000020_Node000008"><a xlink:title=" ">
<path fill="none" stroke="#63b8ff" d="M925.67,-204.75C941.15,-196.47 961.63,-182.58 971,-163.5 979.18,-146.84 980.57,-137.64 971,-121.75 967.21,-115.46 932.2,-97.93 905.77,-85.34"/>
<polygon fill="#63b8ff" stroke="#63b8ff" points="907.35,-82.21 896.81,-81.11 904.36,-88.54 907.35,-82.21"/>
</a>
</g>
</g>
<!-- Node23&#45;&gt;Node19 -->
<g id="edge36_Node000023_Node000019" class="edge">
<title>Node23&#45;&gt;Node19</title>
<g id="a_edge36_Node000023_Node000019"><a xlink:title=" ">
<path fill="none" stroke="#63b8ff" d="M785,-332.11C785,-325.02 785,-316.29 785,-308.13"/>
<polygon fill="#63b8ff" stroke="#63b8ff" points="788.5,-308.34 785,-298.34 781.5,-308.34 788.5,-308.34"/>
</a>
</g>
</g>
<!-- Node23&#45;&gt;Node21 -->
<g id="edge37_Node000023_Node000021" class="edge">
<title>Node23&#45;&gt;Node21</title>
<g id="a_edge37_Node000023_Node000021"><a xlink:title=" ">
<path fill="none" stroke="#63b8ff" d="M823.12,-332.12C879.22,-310.46 987.18,-268.3 1078,-230 1078.61,-229.74 1079.23,-229.48 1079.86,-229.21"/>
<polygon fill="#63b8ff" stroke="#63b8ff" points="1080.92,-232.57 1088.69,-225.37 1078.13,-226.15 1080.92,-232.57"/>
</a>
</g>
</g>
</g>
</svg>

<g id="navigator" transform="translate(0 0)" fill="#404254">
  <rect fill="#f2f5e9" fill-opacity="0.5" stroke="#606060" stroke-width=".5" x="0" y="0" width="60" height="60"/>
  <use id="zoomplus" xlink:href="#zoomPlus" x="17" y="9" onmousedown="handleZoom(evt,'in')"/>
  <use id="zoomminus" xlink:href="#zoomMin" x="42" y="9" onmousedown="handleZoom(evt,'out')"/>
  <use id="reset" xlink:href="#resetDef" x="30" y="36" onmousedown="handleReset()"/>
   <use id="arrowup" xlink:href="#arrowUp" x="0" y="0" onmousedown="handlePan(0,-1)"/>
  <use id="arrowright" xlink:href="#arrowRight" x="0" y="0" onmousedown="handlePan(1,0)"/>
  <use id="arrowdown" xlink:href="#arrowDown" x="0" y="0" onmousedown="handlePan(0,1)"/>
  <use id="arrowleft" xlink:href="#arrowLeft" x="0" y="0" onmousedown="handlePan(-1,0)"/>
</g>
<svg viewBox="0 0 15 15" width="100%" height="30px" preserveAspectRatio="xMaxYMin meet">
 <g id="arrow_out" transform="scale(0.3 0.3)">
  <a xlink:href="queue_8cpp__incl_org.svg" target="_base">
   <rect id="button" ry="5" rx="5" y="6" x="6" height="38" width="38"
        fill="#f2f5e9" fill-opacity="0.5" stroke="#606060" stroke-width="1.0"/>
   <path id="arrow"
     d="M 11.500037,31.436501 C 11.940474,20.09759 22.043105,11.32322 32.158766,21.979434 L 37.068811,17.246167 C 37.068811,17.246167 37.088388,32 37.088388,32 L 22.160133,31.978069 C 22.160133,31.978069 26.997745,27.140456 26.997745,27.140456 C 18.528582,18.264221 13.291696,25.230495 11.500037,31.436501 z"
     style="fill:#404040;"/>
  </a>
 </g>
</svg>

<style type='text/css'>
<![CDATA[
[data-mouse-over-selected='false'] { opacity: 0.7; }
[data-mouse-over-selected='true']  { opacity: 1.0; }
]]>
</style>
<script type="application/ecmascript"><![CDATA[
document.addEventListener('DOMContentLoaded', (event) => {
  highlightEdges();
  highlightAdjacentNodes();
});
]]></script>
</svg>
