<?xml version="1.0" encoding="UTF-8" standalone="no"?>
<!DOCTYPE svg PUBLIC "-//W3C//DTD SVG 1.1//EN"
 "http://www.w3.org/Graphics/SVG/1.1/DTD/svg11.dtd">
<!-- Generated by graphviz version 3.0.0 (20221109.1736)
 -->
<!-- Title: include/yaclib/algo/detail/result_core.hpp Pages: 1 -->
<svg width="2121pt" height="508pt"
 viewBox="0.00 0.00 2121.10 508.00" xmlns="http://www.w3.org/2000/svg" xmlns:xlink="http://www.w3.org/1999/xlink">
<g id="graph0" class="graph" transform="scale(1 1) rotate(0) translate(4 504)">
<title>include/yaclib/algo/detail/result_core.hpp</title>
<!-- Node1 -->
<g id="node1" class="node">
<title>Node1</title>
<g id="a_node1"><a xlink:title=" ">
<polygon fill="#bfbfbf" stroke="black" points="1134.6,-469.5 1134.6,-499.5 1246.6,-499.5 1246.6,-469.5 1134.6,-469.5"/>
<text text-anchor="start" x="1142.6" y="-487.5" font-family="Helvetica,sans-Serif" font-size="10.00">include/yaclib/algo</text>
<text text-anchor="middle" x="1190.6" y="-476.5" font-family="Helvetica,sans-Serif" font-size="10.00">/detail/result_core.hpp</text>
</a>
</g>
</g>
<!-- Node2 -->
<g id="node2" class="node">
<title>Node2</title>
<g id="a_node2"><a xlink:href="core_8hpp.html" target="_top" xlink:title=" ">
<polygon fill="none" stroke="black" points="1024.6,-402.5 1024.6,-432.5 1120.6,-432.5 1120.6,-402.5 1024.6,-402.5"/>
<text text-anchor="start" x="1032.6" y="-420.5" font-family="Helvetica,sans-Serif" font-size="10.00">include/yaclib/algo</text>
<text text-anchor="middle" x="1072.6" y="-409.5" font-family="Helvetica,sans-Serif" font-size="10.00">/detail/core.hpp</text>
</a>
</g>
</g>
<!-- Node1&#45;&gt;Node2 -->
<g id="edge1" class="edge">
<title>Node1&#45;&gt;Node2</title>
<path fill="none" stroke="midnightblue" d="M1155.99,-464.44C1137.47,-454.24 1115.07,-441.9 1098.15,-432.58"/>
<polygon fill="midnightblue" stroke="midnightblue" points="1154.54,-467.64 1164.99,-469.4 1157.92,-461.51 1154.54,-467.64"/>
</g>
<!-- Node4 -->
<g id="node4" class="node">
<title>Node4</title>
<g id="a_node4"><a xlink:href="async_2future_8hpp.html" target="_top" xlink:title=" ">
<polygon fill="none" stroke="black" points="764.6,-268.5 764.6,-298.5 868.6,-298.5 868.6,-268.5 764.6,-268.5"/>
<text text-anchor="start" x="772.6" y="-286.5" font-family="Helvetica,sans-Serif" font-size="10.00">include/yaclib/async</text>
<text text-anchor="middle" x="816.6" y="-275.5" font-family="Helvetica,sans-Serif" font-size="10.00">/future.hpp</text>
</a>
</g>
</g>
<!-- Node1&#45;&gt;Node4 -->
<g id="edge54" class="edge">
<title>Node1&#45;&gt;Node4</title>
<path fill="none" stroke="midnightblue" d="M1124.56,-476.42C1051.78,-465.23 935.75,-436.85 865.6,-366 845.62,-345.82 830.37,-315.97 822.51,-298.55"/>
<polygon fill="midnightblue" stroke="midnightblue" points="1124.13,-479.9 1134.53,-477.89 1125.15,-472.97 1124.13,-479.9"/>
</g>
<!-- Node10 -->
<g id="node10" class="node">
<title>Node10</title>
<g id="a_node10"><a xlink:href="when__all__impl_8hpp.html" target="_top" xlink:title=" ">
<polygon fill="none" stroke="black" points="18.1,-134.5 18.1,-164.5 143.1,-164.5 143.1,-134.5 18.1,-134.5"/>
<text text-anchor="start" x="26.1" y="-152.5" font-family="Helvetica,sans-Serif" font-size="10.00">include/yaclib/async</text>
<text text-anchor="middle" x="80.6" y="-141.5" font-family="Helvetica,sans-Serif" font-size="10.00">/detail/when_all_impl.hpp</text>
</a>
</g>
</g>
<!-- Node1&#45;&gt;Node10 -->
<g id="edge52" class="edge">
<title>Node1&#45;&gt;Node10</title>
<path fill="none" stroke="midnightblue" d="M1124.22,-482.85C880.43,-479.6 48.6,-460.52 48.6,-351.5 48.6,-351.5 48.6,-351.5 48.6,-282.5 48.6,-238.64 65.49,-188.83 74.73,-164.87"/>
<polygon fill="midnightblue" stroke="midnightblue" points="1124.31,-486.35 1134.35,-482.98 1124.4,-479.35 1124.31,-486.35"/>
</g>
<!-- Node13 -->
<g id="node13" class="node">
<title>Node13</title>
<g id="a_node13"><a xlink:href="when__any__impl_8hpp.html" target="_top" xlink:title=" ">
<polygon fill="none" stroke="black" points="593.1,-134.5 593.1,-164.5 724.1,-164.5 724.1,-134.5 593.1,-134.5"/>
<text text-anchor="start" x="601.1" y="-152.5" font-family="Helvetica,sans-Serif" font-size="10.00">include/yaclib/async</text>
<text text-anchor="middle" x="658.6" y="-141.5" font-family="Helvetica,sans-Serif" font-size="10.00">/detail/when_any_impl.hpp</text>
</a>
</g>
</g>
<!-- Node1&#45;&gt;Node13 -->
<g id="edge53" class="edge">
<title>Node1&#45;&gt;Node13</title>
<path fill="none" stroke="midnightblue" d="M1201.75,-459.86C1212.96,-433.89 1228.6,-390.66 1228.6,-351.5 1228.6,-351.5 1228.6,-351.5 1228.6,-282.5 1228.6,-245.31 1237.84,-225.21 1209.6,-201 1169.33,-166.48 786.17,-172.05 733.6,-165 730.57,-164.59 727.49,-164.15 724.38,-163.66"/>
<polygon fill="midnightblue" stroke="midnightblue" points="1198.44,-458.68 1197.57,-469.24 1204.84,-461.53 1198.44,-458.68"/>
</g>
<!-- Node16 -->
<g id="node16" class="node">
<title>Node16</title>
<g id="a_node16"><a xlink:href="async_2make_8hpp.html" target="_top" xlink:title=" ">
<polygon fill="none" stroke="black" points="1096.6,-201.5 1096.6,-231.5 1200.6,-231.5 1200.6,-201.5 1096.6,-201.5"/>
<text text-anchor="start" x="1104.6" y="-219.5" font-family="Helvetica,sans-Serif" font-size="10.00">include/yaclib/async</text>
<text text-anchor="middle" x="1148.6" y="-208.5" font-family="Helvetica,sans-Serif" font-size="10.00">/make.hpp</text>
</a>
</g>
</g>
<!-- Node1&#45;&gt;Node16 -->
<g id="edge55" class="edge">
<title>Node1&#45;&gt;Node16</title>
<path fill="none" stroke="midnightblue" d="M1186.74,-459.07C1178.13,-404.57 1157.6,-274.52 1150.82,-231.55"/>
<polygon fill="midnightblue" stroke="midnightblue" points="1183.32,-459.87 1188.34,-469.2 1190.24,-458.78 1183.32,-459.87"/>
</g>
<!-- Node26 -->
<g id="node26" class="node">
<title>Node26</title>
<g id="a_node26"><a xlink:href="lazy_2task_8hpp.html" target="_top" xlink:title=" ">
<polygon fill="none" stroke="black" points="1539.1,-201.5 1539.1,-231.5 1634.1,-231.5 1634.1,-201.5 1539.1,-201.5"/>
<text text-anchor="start" x="1547.1" y="-219.5" font-family="Helvetica,sans-Serif" font-size="10.00">include/yaclib/lazy</text>
<text text-anchor="middle" x="1586.6" y="-208.5" font-family="Helvetica,sans-Serif" font-size="10.00">/task.hpp</text>
</a>
</g>
</g>
<!-- Node1&#45;&gt;Node26 -->
<g id="edge68" class="edge">
<title>Node1&#45;&gt;Node26</title>
<path fill="none" stroke="midnightblue" d="M1256.96,-476.89C1354.59,-463.13 1533.54,-421.65 1609.6,-299 1622.77,-277.76 1608.3,-248.79 1597.1,-231.72"/>
<polygon fill="midnightblue" stroke="midnightblue" points="1256.35,-473.44 1246.91,-478.24 1257.29,-480.37 1256.35,-473.44"/>
</g>
<!-- Node32 -->
<g id="node32" class="node">
<title>Node32</title>
<g id="a_node32"><a xlink:href="result__core_8cpp.html" target="_top" xlink:title=" ">
<polygon fill="none" stroke="black" points="874.6,-341 874.6,-360 994.6,-360 994.6,-341 874.6,-341"/>
<text text-anchor="middle" x="934.6" y="-348" font-family="Helvetica,sans-Serif" font-size="10.00">src/algo/result_core.cpp</text>
</a>
</g>
</g>
<!-- Node1&#45;&gt;Node32 -->
<g id="edge69" class="edge">
<title>Node1&#45;&gt;Node32</title>
<path fill="none" stroke="midnightblue" d="M1124.58,-472.71C1090.37,-465.13 1048.9,-452.73 1015.6,-433 982.3,-413.28 952.95,-376.64 940.69,-360.06"/>
<polygon fill="midnightblue" stroke="midnightblue" points="1123.98,-476.16 1134.49,-474.82 1125.43,-469.31 1123.98,-476.16"/>
</g>
<!-- Node33 -->
<g id="node33" class="node">
<title>Node33</title>
<g id="a_node33"><a xlink:href="promise__core_8hpp.html" target="_top" xlink:title=" ">
<polygon fill="none" stroke="black" points="1256.6,-335.5 1256.6,-365.5 1378.6,-365.5 1378.6,-335.5 1256.6,-335.5"/>
<text text-anchor="start" x="1264.6" y="-353.5" font-family="Helvetica,sans-Serif" font-size="10.00">include/yaclib/algo</text>
<text text-anchor="middle" x="1317.6" y="-342.5" font-family="Helvetica,sans-Serif" font-size="10.00">/detail/promise_core.hpp</text>
</a>
</g>
</g>
<!-- Node1&#45;&gt;Node33 -->
<g id="edge48" class="edge">
<title>Node1&#45;&gt;Node33</title>
<path fill="none" stroke="midnightblue" d="M1213.18,-462.1C1222.42,-453.21 1233.13,-442.72 1242.6,-433 1265.13,-409.85 1290.39,-381.99 1305.09,-365.56"/>
<polygon fill="midnightblue" stroke="midnightblue" points="1210.64,-459.69 1205.84,-469.13 1215.48,-464.75 1210.64,-459.69"/>
</g>
<!-- Node35 -->
<g id="node35" class="node">
<title>Node35</title>
<g id="a_node35"><a xlink:href="promise_8hpp.html" target="_top" xlink:title=" ">
<polygon fill="none" stroke="black" points="1372.6,-268.5 1372.6,-298.5 1476.6,-298.5 1476.6,-268.5 1372.6,-268.5"/>
<text text-anchor="start" x="1380.6" y="-286.5" font-family="Helvetica,sans-Serif" font-size="10.00">include/yaclib/async</text>
<text text-anchor="middle" x="1424.6" y="-275.5" font-family="Helvetica,sans-Serif" font-size="10.00">/promise.hpp</text>
</a>
</g>
</g>
<!-- Node1&#45;&gt;Node35 -->
<g id="edge56" class="edge">
<title>Node1&#45;&gt;Node35</title>
<path fill="none" stroke="midnightblue" d="M1237.12,-465.45C1280.9,-446.43 1345.8,-412.74 1387.6,-366 1405.41,-346.08 1415.99,-316.13 1421.01,-298.63"/>
<polygon fill="midnightblue" stroke="midnightblue" points="1235.68,-462.26 1227.85,-469.4 1238.42,-468.7 1235.68,-462.26"/>
</g>
<!-- Node37 -->
<g id="node37" class="node">
<title>Node37</title>
<g id="a_node37"><a xlink:href="promise__type_8hpp.html" target="_top" xlink:title=" ">
<polygon fill="none" stroke="black" points="1846.6,-201.5 1846.6,-231.5 1968.6,-231.5 1968.6,-201.5 1846.6,-201.5"/>
<text text-anchor="start" x="1854.6" y="-219.5" font-family="Helvetica,sans-Serif" font-size="10.00">include/yaclib/coro</text>
<text text-anchor="middle" x="1907.6" y="-208.5" font-family="Helvetica,sans-Serif" font-size="10.00">/detail/promise_type.hpp</text>
</a>
</g>
</g>
<!-- Node1&#45;&gt;Node37 -->
<g id="edge60" class="edge">
<title>Node1&#45;&gt;Node37</title>
<path fill="none" stroke="midnightblue" d="M1256.7,-477.45C1315.96,-470.74 1404.68,-457.46 1478.6,-433 1643.18,-378.54 1823.52,-270.31 1885.37,-231.64"/>
<polygon fill="midnightblue" stroke="midnightblue" points="1256.28,-473.98 1246.72,-478.55 1257.04,-480.93 1256.28,-473.98"/>
</g>
<!-- Node3 -->
<g id="node3" class="node">
<title>Node3</title>
<g id="a_node3"><a xlink:href="future__impl_8hpp.html" target="_top" xlink:title=" ">
<polygon fill="none" stroke="black" points="1012.6,-335.5 1012.6,-365.5 1124.6,-365.5 1124.6,-335.5 1012.6,-335.5"/>
<text text-anchor="start" x="1020.6" y="-353.5" font-family="Helvetica,sans-Serif" font-size="10.00">include/yaclib/async</text>
<text text-anchor="middle" x="1068.6" y="-342.5" font-family="Helvetica,sans-Serif" font-size="10.00">/detail/future_impl.hpp</text>
</a>
</g>
</g>
<!-- Node2&#45;&gt;Node3 -->
<g id="edge2" class="edge">
<title>Node2&#45;&gt;Node3</title>
<path fill="none" stroke="midnightblue" d="M1071.11,-392.4C1070.56,-383.37 1069.95,-373.41 1069.46,-365.58"/>
<polygon fill="midnightblue" stroke="midnightblue" points="1067.62,-392.63 1071.73,-402.4 1074.61,-392.2 1067.62,-392.63"/>
</g>
<!-- Node17 -->
<g id="node17" class="node">
<title>Node17</title>
<g id="a_node17"><a xlink:href="run_8hpp.html" target="_top" xlink:title=" ">
<polygon fill="none" stroke="black" points="1256.6,-201.5 1256.6,-231.5 1360.6,-231.5 1360.6,-201.5 1256.6,-201.5"/>
<text text-anchor="start" x="1264.6" y="-219.5" font-family="Helvetica,sans-Serif" font-size="10.00">include/yaclib/async</text>
<text text-anchor="middle" x="1308.6" y="-208.5" font-family="Helvetica,sans-Serif" font-size="10.00">/run.hpp</text>
</a>
</g>
</g>
<!-- Node2&#45;&gt;Node17 -->
<g id="edge46" class="edge">
<title>Node2&#45;&gt;Node17</title>
<path fill="none" stroke="midnightblue" d="M1097.71,-395.82C1108.75,-386.71 1121.84,-375.85 1133.6,-366 1191.92,-317.11 1260.63,-258.51 1291.76,-231.9"/>
<polygon fill="midnightblue" stroke="midnightblue" points="1095.22,-393.34 1089.73,-402.41 1099.67,-398.74 1095.22,-393.34"/>
</g>
<!-- Node2&#45;&gt;Node32 -->
<g id="edge47" class="edge">
<title>Node2&#45;&gt;Node32</title>
<path fill="none" stroke="midnightblue" d="M1033.6,-398.13C1007.04,-385.62 973.11,-369.64 952.66,-360.01"/>
<polygon fill="midnightblue" stroke="midnightblue" points="1032.11,-401.3 1042.65,-402.4 1035.1,-394.97 1032.11,-401.3"/>
</g>
<!-- Node3&#45;&gt;Node4 -->
<g id="edge3" class="edge">
<title>Node3&#45;&gt;Node4</title>
<path fill="none" stroke="midnightblue" d="M1004.36,-332.93C962.32,-322.09 908.08,-308.1 868.71,-297.94"/>
<polygon fill="midnightblue" stroke="midnightblue" points="1003.67,-336.37 1014.23,-335.48 1005.42,-329.59 1003.67,-336.37"/>
</g>
<!-- Node5 -->
<g id="node5" class="node">
<title>Node5</title>
<g id="a_node5"><a xlink:href="wait__group_8hpp.html" target="_top" xlink:title=" ">
<polygon fill="none" stroke="black" points="236.6,-201.5 236.6,-231.5 332.6,-231.5 332.6,-201.5 236.6,-201.5"/>
<text text-anchor="start" x="244.6" y="-219.5" font-family="Helvetica,sans-Serif" font-size="10.00">include/yaclib/algo</text>
<text text-anchor="middle" x="284.6" y="-208.5" font-family="Helvetica,sans-Serif" font-size="10.00">/wait_group.hpp</text>
</a>
</g>
</g>
<!-- Node4&#45;&gt;Node5 -->
<g id="edge4" class="edge">
<title>Node4&#45;&gt;Node5</title>
<path fill="none" stroke="midnightblue" d="M754.43,-278.26C664.15,-271.56 491.69,-256.67 346.6,-232 342.13,-231.24 337.5,-230.35 332.88,-229.4"/>
<polygon fill="midnightblue" stroke="midnightblue" points="754.27,-281.76 764.5,-279 754.78,-274.78 754.27,-281.76"/>
</g>
<!-- Node7 -->
<g id="node7" class="node">
<title>Node7</title>
<g id="a_node7"><a xlink:href="contract_8hpp.html" target="_top" xlink:title=" ">
<polygon fill="none" stroke="black" points="1378.6,-201.5 1378.6,-231.5 1482.6,-231.5 1482.6,-201.5 1378.6,-201.5"/>
<text text-anchor="start" x="1386.6" y="-219.5" font-family="Helvetica,sans-Serif" font-size="10.00">include/yaclib/async</text>
<text text-anchor="middle" x="1430.6" y="-208.5" font-family="Helvetica,sans-Serif" font-size="10.00">/contract.hpp</text>
</a>
</g>
</g>
<!-- Node4&#45;&gt;Node7 -->
<g id="edge6" class="edge">
<title>Node4&#45;&gt;Node7</title>
<path fill="none" stroke="midnightblue" d="M878.95,-279.7C981.75,-274.44 1192.99,-260.9 1369.6,-232 1372.5,-231.53 1375.46,-230.99 1378.45,-230.41"/>
<polygon fill="midnightblue" stroke="midnightblue" points="878.56,-276.22 868.75,-280.21 878.92,-283.21 878.56,-276.22"/>
</g>
<!-- Node8 -->
<g id="node8" class="node">
<title>Node8</title>
<g id="a_node8"><a xlink:href="simple_8cpp.html" target="_top" xlink:title=" ">
<polygon fill="none" stroke="black" points="1220.1,-134.5 1220.1,-164.5 1321.1,-164.5 1321.1,-134.5 1220.1,-134.5"/>
<text text-anchor="start" x="1228.1" y="-152.5" font-family="Helvetica,sans-Serif" font-size="10.00">test/example/async</text>
<text text-anchor="middle" x="1270.6" y="-141.5" font-family="Helvetica,sans-Serif" font-size="10.00">/simple.cpp</text>
</a>
</g>
</g>
<!-- Node4&#45;&gt;Node8 -->
<g id="edge45" class="edge">
<title>Node4&#45;&gt;Node8</title>
<path fill="none" stroke="midnightblue" d="M878.89,-277.02C927.36,-270.9 995.29,-258.16 1049.6,-232 1069.23,-222.54 1068.23,-211 1087.6,-201 1129.62,-179.3 1182.03,-166.06 1219.98,-158.61"/>
<polygon fill="midnightblue" stroke="midnightblue" points="878.36,-273.56 868.85,-278.23 879.2,-280.51 878.36,-273.56"/>
</g>
<!-- Node9 -->
<g id="node9" class="node">
<title>Node9</title>
<g id="a_node9"><a xlink:href="when__impl_8hpp.html" target="_top" xlink:title=" ">
<polygon fill="none" stroke="black" points="610.6,-201.5 610.6,-231.5 720.6,-231.5 720.6,-201.5 610.6,-201.5"/>
<text text-anchor="start" x="618.6" y="-219.5" font-family="Helvetica,sans-Serif" font-size="10.00">include/yaclib/async</text>
<text text-anchor="middle" x="665.6" y="-208.5" font-family="Helvetica,sans-Serif" font-size="10.00">/detail/when_impl.hpp</text>
</a>
</g>
</g>
<!-- Node4&#45;&gt;Node9 -->
<g id="edge8" class="edge">
<title>Node4&#45;&gt;Node9</title>
<path fill="none" stroke="midnightblue" d="M774.56,-264.41C750.46,-254.03 720.64,-241.2 698.3,-231.58"/>
<polygon fill="midnightblue" stroke="midnightblue" points="773.26,-267.66 783.83,-268.4 776.03,-261.23 773.26,-267.66"/>
</g>
<!-- Node11 -->
<g id="node11" class="node">
<title>Node11</title>
<g id="a_node11"><a xlink:href="when__all_8hpp.html" target="_top" xlink:title=" ">
<polygon fill="none" stroke="black" points="432.6,-67.5 432.6,-97.5 536.6,-97.5 536.6,-67.5 432.6,-67.5"/>
<text text-anchor="start" x="440.6" y="-85.5" font-family="Helvetica,sans-Serif" font-size="10.00">include/yaclib/async</text>
<text text-anchor="middle" x="484.6" y="-74.5" font-family="Helvetica,sans-Serif" font-size="10.00">/when_all.hpp</text>
</a>
</g>
</g>
<!-- Node4&#45;&gt;Node11 -->
<g id="edge26" class="edge">
<title>Node4&#45;&gt;Node11</title>
<path fill="none" stroke="midnightblue" d="M754.36,-278.44C654,-271.26 465.57,-254.87 445.6,-232 411.24,-192.64 452.35,-126.5 473.51,-97.66"/>
<polygon fill="midnightblue" stroke="midnightblue" points="754.15,-281.94 764.38,-279.15 754.65,-274.95 754.15,-281.94"/>
</g>
<!-- Node14 -->
<g id="node14" class="node">
<title>Node14</title>
<g id="a_node14"><a xlink:href="when__any_8hpp.html" target="_top" xlink:title=" ">
<polygon fill="none" stroke="black" points="811.6,-67.5 811.6,-97.5 915.6,-97.5 915.6,-67.5 811.6,-67.5"/>
<text text-anchor="start" x="819.6" y="-85.5" font-family="Helvetica,sans-Serif" font-size="10.00">include/yaclib/async</text>
<text text-anchor="middle" x="863.6" y="-74.5" font-family="Helvetica,sans-Serif" font-size="10.00">/when_any.hpp</text>
</a>
</g>
</g>
<!-- Node4&#45;&gt;Node14 -->
<g id="edge27" class="edge">
<title>Node4&#45;&gt;Node14</title>
<path fill="none" stroke="midnightblue" d="M805.44,-258.8C799.04,-241.42 794.29,-217.99 805.6,-201 828.55,-166.5 868.64,-199.5 891.6,-165 905.69,-143.83 888.72,-114.83 875.72,-97.74"/>
<polygon fill="midnightblue" stroke="midnightblue" points="802.27,-260.3 809.29,-268.23 808.75,-257.65 802.27,-260.3"/>
</g>
<!-- Node4&#45;&gt;Node16 -->
<g id="edge17" class="edge">
<title>Node4&#45;&gt;Node16</title>
<path fill="none" stroke="midnightblue" d="M878.77,-271.22C932.74,-261.3 1012.95,-246.26 1082.6,-232 1087.08,-231.08 1091.73,-230.11 1096.39,-229.11"/>
<polygon fill="midnightblue" stroke="midnightblue" points="877.88,-267.82 868.67,-273.07 879.14,-274.71 877.88,-267.82"/>
</g>
<!-- Node4&#45;&gt;Node17 -->
<g id="edge18" class="edge">
<title>Node4&#45;&gt;Node17</title>
<path fill="none" stroke="midnightblue" d="M878.84,-274.85C956.37,-265.23 1092.85,-248.05 1209.6,-232 1224.83,-229.91 1241.36,-227.53 1256.47,-225.31"/>
<polygon fill="midnightblue" stroke="midnightblue" points="878.26,-271.39 868.76,-276.09 879.12,-278.34 878.26,-271.39"/>
</g>
<!-- Node18 -->
<g id="node18" class="node">
<title>Node18</title>
<g id="a_node18"><a xlink:href="wait_8hpp.html" target="_top" xlink:title=" ">
<polygon fill="none" stroke="black" points="76.6,-201.5 76.6,-231.5 180.6,-231.5 180.6,-201.5 76.6,-201.5"/>
<text text-anchor="start" x="84.6" y="-219.5" font-family="Helvetica,sans-Serif" font-size="10.00">include/yaclib/async</text>
<text text-anchor="middle" x="128.6" y="-208.5" font-family="Helvetica,sans-Serif" font-size="10.00">/wait.hpp</text>
</a>
</g>
</g>
<!-- Node4&#45;&gt;Node18 -->
<g id="edge22" class="edge">
<title>Node4&#45;&gt;Node18</title>
<path fill="none" stroke="midnightblue" d="M754.17,-280.23C641.74,-275.51 397.99,-262.46 194.6,-232 190.07,-231.32 185.39,-230.51 180.71,-229.63"/>
<polygon fill="midnightblue" stroke="midnightblue" points="754.17,-283.73 764.31,-280.64 754.46,-276.74 754.17,-283.73"/>
</g>
<!-- Node19 -->
<g id="node19" class="node">
<title>Node19</title>
<g id="a_node19"><a xlink:href="wait__for_8hpp.html" target="_top" xlink:title=" ">
<polygon fill="none" stroke="black" points="814.6,-201.5 814.6,-231.5 918.6,-231.5 918.6,-201.5 814.6,-201.5"/>
<text text-anchor="start" x="822.6" y="-219.5" font-family="Helvetica,sans-Serif" font-size="10.00">include/yaclib/async</text>
<text text-anchor="middle" x="866.6" y="-208.5" font-family="Helvetica,sans-Serif" font-size="10.00">/wait_for.hpp</text>
</a>
</g>
</g>
<!-- Node4&#45;&gt;Node19 -->
<g id="edge24" class="edge">
<title>Node4&#45;&gt;Node19</title>
<path fill="none" stroke="midnightblue" d="M833.56,-260.45C840.91,-250.9 849.29,-240 855.77,-231.58"/>
<polygon fill="midnightblue" stroke="midnightblue" points="830.77,-258.34 827.45,-268.4 836.32,-262.6 830.77,-258.34"/>
</g>
<!-- Node20 -->
<g id="node20" class="node">
<title>Node20</title>
<g id="a_node20"><a xlink:href="wait__until_8hpp.html" target="_top" xlink:title=" ">
<polygon fill="none" stroke="black" points="936.6,-201.5 936.6,-231.5 1040.6,-231.5 1040.6,-201.5 936.6,-201.5"/>
<text text-anchor="start" x="944.6" y="-219.5" font-family="Helvetica,sans-Serif" font-size="10.00">include/yaclib/async</text>
<text text-anchor="middle" x="988.6" y="-208.5" font-family="Helvetica,sans-Serif" font-size="10.00">/wait_until.hpp</text>
</a>
</g>
</g>
<!-- Node4&#45;&gt;Node20 -->
<g id="edge25" class="edge">
<title>Node4&#45;&gt;Node20</title>
<path fill="none" stroke="midnightblue" d="M863.38,-264.82C891.03,-254.37 925.56,-241.32 951.35,-231.58"/>
<polygon fill="midnightblue" stroke="midnightblue" points="862.04,-261.59 853.92,-268.4 864.51,-268.13 862.04,-261.59"/>
</g>
<!-- Node21 -->
<g id="node21" class="node">
<title>Node21</title>
<g id="a_node21"><a xlink:href="await_8hpp.html" target="_top" xlink:title=" ">
<polygon fill="none" stroke="black" points="127.1,-67.5 127.1,-97.5 224.1,-97.5 224.1,-67.5 127.1,-67.5"/>
<text text-anchor="start" x="135.1" y="-85.5" font-family="Helvetica,sans-Serif" font-size="10.00">include/yaclib/coro</text>
<text text-anchor="middle" x="175.6" y="-74.5" font-family="Helvetica,sans-Serif" font-size="10.00">/await.hpp</text>
</a>
</g>
</g>
<!-- Node4&#45;&gt;Node21 -->
<g id="edge28" class="edge">
<title>Node4&#45;&gt;Node21</title>
<path fill="none" stroke="midnightblue" d="M754.16,-278.14C607.54,-267.77 251.72,-241.77 227.6,-232 207.4,-223.82 209.31,-210.29 189.6,-201 115.4,-166.04 60.63,-228.4 8.6,-165 -27.58,-120.92 65.81,-98.86 127.09,-89.42"/>
<polygon fill="midnightblue" stroke="midnightblue" points="754.13,-281.65 764.35,-278.86 754.62,-274.67 754.13,-281.65"/>
</g>
<!-- Node22 -->
<g id="node22" class="node">
<title>Node22</title>
<g id="a_node22"><a xlink:href="await__on_8hpp.html" target="_top" xlink:title=" ">
<polygon fill="none" stroke="black" points="649.1,-67.5 649.1,-97.5 746.1,-97.5 746.1,-67.5 649.1,-67.5"/>
<text text-anchor="start" x="657.1" y="-85.5" font-family="Helvetica,sans-Serif" font-size="10.00">include/yaclib/coro</text>
<text text-anchor="middle" x="697.6" y="-74.5" font-family="Helvetica,sans-Serif" font-size="10.00">/await_on.hpp</text>
</a>
</g>
</g>
<!-- Node4&#45;&gt;Node22 -->
<g id="edge29" class="edge">
<title>Node4&#45;&gt;Node22</title>
<path fill="none" stroke="midnightblue" d="M754.21,-278.18C656.1,-270.74 474.88,-254.16 455.6,-232 446.55,-221.6 448.64,-212.89 455.6,-201 495.96,-131.95 590.61,-102.7 648.86,-90.9"/>
<polygon fill="midnightblue" stroke="midnightblue" points="754.07,-281.68 764.3,-278.93 754.59,-274.7 754.07,-281.68"/>
</g>
<!-- Node23 -->
<g id="node23" class="node">
<title>Node23</title>
<g id="a_node23"><a xlink:href="await__awaiter_8hpp.html" target="_top" xlink:title=" ">
<polygon fill="none" stroke="black" points="298.6,-134.5 298.6,-164.5 422.6,-164.5 422.6,-134.5 298.6,-134.5"/>
<text text-anchor="start" x="306.6" y="-152.5" font-family="Helvetica,sans-Serif" font-size="10.00">include/yaclib/coro</text>
<text text-anchor="middle" x="360.6" y="-141.5" font-family="Helvetica,sans-Serif" font-size="10.00">/detail/await_awaiter.hpp</text>
</a>
</g>
</g>
<!-- Node4&#45;&gt;Node23 -->
<g id="edge30" class="edge">
<title>Node4&#45;&gt;Node23</title>
<path fill="none" stroke="midnightblue" d="M754.05,-283.39C647.99,-283.58 439.07,-277.92 384.6,-232 364.75,-215.27 360.85,-183.02 360.35,-164.5"/>
<polygon fill="midnightblue" stroke="midnightblue" points="754.3,-286.88 764.29,-283.35 754.28,-279.88 754.3,-286.88"/>
</g>
<!-- Node24 -->
<g id="node24" class="node">
<title>Node24</title>
<g id="a_node24"><a xlink:href="await__on__awaiter_8hpp.html" target="_top" xlink:title=" ">
<polygon fill="none" stroke="black" points="742.6,-134.5 742.6,-164.5 882.6,-164.5 882.6,-134.5 742.6,-134.5"/>
<text text-anchor="start" x="750.6" y="-152.5" font-family="Helvetica,sans-Serif" font-size="10.00">include/yaclib/coro</text>
<text text-anchor="middle" x="812.6" y="-141.5" font-family="Helvetica,sans-Serif" font-size="10.00">/detail/await_on_awaiter.hpp</text>
</a>
</g>
</g>
<!-- Node4&#45;&gt;Node24 -->
<g id="edge32" class="edge">
<title>Node4&#45;&gt;Node24</title>
<path fill="none" stroke="midnightblue" d="M791.69,-260.86C784.06,-252.68 776.62,-242.73 772.6,-232 767.76,-219.1 768.07,-214.01 772.6,-201 777.45,-187.06 787.93,-174.07 796.95,-164.75"/>
<polygon fill="midnightblue" stroke="midnightblue" points="789.42,-263.54 798.97,-268.13 794.37,-258.59 789.42,-263.54"/>
</g>
<!-- Node25 -->
<g id="node25" class="node">
<title>Node25</title>
<g id="a_node25"><a xlink:href="coro_2future_8hpp.html" target="_top" xlink:title=" ">
<polygon fill="none" stroke="black" points="1622.1,-134.5 1622.1,-164.5 1719.1,-164.5 1719.1,-134.5 1622.1,-134.5"/>
<text text-anchor="start" x="1630.1" y="-152.5" font-family="Helvetica,sans-Serif" font-size="10.00">include/yaclib/coro</text>
<text text-anchor="middle" x="1670.6" y="-141.5" font-family="Helvetica,sans-Serif" font-size="10.00">/future.hpp</text>
</a>
</g>
</g>
<!-- Node4&#45;&gt;Node25 -->
<g id="edge34" class="edge">
<title>Node4&#45;&gt;Node25</title>
<path fill="none" stroke="midnightblue" d="M878.83,-280.6C1066.1,-274.62 1613.39,-255.25 1643.6,-232 1664.39,-216 1669.35,-183.48 1670.43,-164.72"/>
<polygon fill="midnightblue" stroke="midnightblue" points="878.49,-277.11 868.6,-280.92 878.71,-284.1 878.49,-277.11"/>
</g>
<!-- Node4&#45;&gt;Node26 -->
<g id="edge35" class="edge">
<title>Node4&#45;&gt;Node26</title>
<path fill="none" stroke="midnightblue" d="M878.85,-279.44C998.04,-273.24 1266.67,-257.54 1491.6,-232 1507.01,-230.25 1523.77,-227.86 1538.85,-225.52"/>
<polygon fill="midnightblue" stroke="midnightblue" points="878.62,-275.95 868.81,-279.96 878.98,-282.94 878.62,-275.95"/>
</g>
<!-- Node31 -->
<g id="node31" class="node">
<title>Node31</title>
<g id="a_node31"><a xlink:href="future__impl_8cpp.html" target="_top" xlink:title=" ">
<polygon fill="none" stroke="black" points="464.6,-207 464.6,-226 592.6,-226 592.6,-207 464.6,-207"/>
<text text-anchor="middle" x="528.6" y="-214" font-family="Helvetica,sans-Serif" font-size="10.00">src/async/future_impl.cpp</text>
</a>
</g>
</g>
<!-- Node4&#45;&gt;Node31 -->
<g id="edge44" class="edge">
<title>Node4&#45;&gt;Node31</title>
<path fill="none" stroke="midnightblue" d="M754.44,-268.47C697.31,-255.58 614.43,-236.87 566.58,-226.07"/>
<polygon fill="midnightblue" stroke="midnightblue" points="753.92,-271.94 764.44,-270.73 755.46,-265.11 753.92,-271.94"/>
</g>
<!-- Node6 -->
<g id="node6" class="node">
<title>Node6</title>
<g id="a_node6"><a xlink:href="wait__group_8cpp.html" target="_top" xlink:title=" ">
<polygon fill="none" stroke="black" points="161.1,-140 161.1,-159 280.1,-159 280.1,-140 161.1,-140"/>
<text text-anchor="middle" x="220.6" y="-147" font-family="Helvetica,sans-Serif" font-size="10.00">src/algo/wait_group.cpp</text>
</a>
</g>
</g>
<!-- Node5&#45;&gt;Node6 -->
<g id="edge5" class="edge">
<title>Node5&#45;&gt;Node6</title>
<path fill="none" stroke="midnightblue" d="M263.42,-194C251.74,-182.13 237.88,-168.05 229.16,-159.19"/>
<polygon fill="midnightblue" stroke="midnightblue" points="261.2,-196.73 270.71,-201.4 266.19,-191.81 261.2,-196.73"/>
</g>
<!-- Node7&#45;&gt;Node8 -->
<g id="edge7" class="edge">
<title>Node7&#45;&gt;Node8</title>
<path fill="none" stroke="midnightblue" d="M1386.4,-197.54C1360.8,-187.14 1329.03,-174.24 1305.25,-164.58"/>
<polygon fill="midnightblue" stroke="midnightblue" points="1385.3,-200.87 1395.88,-201.4 1387.93,-194.39 1385.3,-200.87"/>
</g>
<!-- Node9&#45;&gt;Node10 -->
<g id="edge9" class="edge">
<title>Node9&#45;&gt;Node10</title>
<path fill="none" stroke="midnightblue" d="M600.63,-201.01C401.5,-171.46 347.05,-192.67 151.6,-165 148.86,-164.61 146.06,-164.18 143.25,-163.72"/>
<polygon fill="midnightblue" stroke="midnightblue" points="600.12,-204.47 610.53,-202.5 601.17,-197.55 600.12,-204.47"/>
</g>
<!-- Node9&#45;&gt;Node11 -->
<g id="edge15" class="edge">
<title>Node9&#45;&gt;Node11</title>
<path fill="none" stroke="midnightblue" d="M611.19,-197.79C590.99,-189.68 568.63,-178.76 550.6,-165 525.56,-145.89 504.22,-115.39 493.02,-97.62"/>
<polygon fill="midnightblue" stroke="midnightblue" points="610.01,-201.09 620.6,-201.43 612.54,-194.56 610.01,-201.09"/>
</g>
<!-- Node9&#45;&gt;Node13 -->
<g id="edge12" class="edge">
<title>Node9&#45;&gt;Node13</title>
<path fill="none" stroke="midnightblue" d="M663,-191.4C662.03,-182.37 660.96,-172.41 660.11,-164.58"/>
<polygon fill="midnightblue" stroke="midnightblue" points="659.53,-191.83 664.08,-201.4 666.49,-191.08 659.53,-191.83"/>
</g>
<!-- Node9&#45;&gt;Node14 -->
<g id="edge16" class="edge">
<title>Node9&#45;&gt;Node14</title>
<path fill="none" stroke="midnightblue" d="M624.59,-196.74C595.38,-180.82 564.41,-156.96 583.6,-134 590.88,-125.28 732.34,-103.01 811.34,-91.17"/>
<polygon fill="midnightblue" stroke="midnightblue" points="623.06,-199.89 633.54,-201.42 626.3,-193.68 623.06,-199.89"/>
</g>
<!-- Node10&#45;&gt;Node11 -->
<g id="edge10" class="edge">
<title>Node10&#45;&gt;Node11</title>
<path fill="none" stroke="midnightblue" d="M153.37,-133.73C257.84,-115.35 368.95,-99.36 432.55,-90.56"/>
<polygon fill="midnightblue" stroke="midnightblue" points="152.52,-130.33 143.28,-135.52 153.74,-137.22 152.52,-130.33"/>
</g>
<!-- Node12 -->
<g id="node12" class="node">
<title>Node12</title>
<g id="a_node12"><a xlink:href="when__all_8cpp.html" target="_top" xlink:title=" ">
<polygon fill="none" stroke="black" points="702.1,-0.5 702.1,-30.5 803.1,-30.5 803.1,-0.5 702.1,-0.5"/>
<text text-anchor="start" x="710.1" y="-18.5" font-family="Helvetica,sans-Serif" font-size="10.00">test/example/async</text>
<text text-anchor="middle" x="752.6" y="-7.5" font-family="Helvetica,sans-Serif" font-size="10.00">/when_all.cpp</text>
</a>
</g>
</g>
<!-- Node11&#45;&gt;Node12 -->
<g id="edge11" class="edge">
<title>Node11&#45;&gt;Node12</title>
<path fill="none" stroke="midnightblue" d="M546.69,-66.44C593.78,-55.02 657.71,-39.51 701.78,-28.82"/>
<polygon fill="midnightblue" stroke="midnightblue" points="545.8,-63.05 536.91,-68.81 547.45,-69.86 545.8,-63.05"/>
</g>
<!-- Node13&#45;&gt;Node14 -->
<g id="edge13" class="edge">
<title>Node13&#45;&gt;Node14</title>
<path fill="none" stroke="midnightblue" d="M712.39,-131.44C745.62,-120.91 787.75,-107.55 819.09,-97.61"/>
<polygon fill="midnightblue" stroke="midnightblue" points="711.3,-128.12 702.83,-134.48 713.42,-134.79 711.3,-128.12"/>
</g>
<!-- Node15 -->
<g id="node15" class="node">
<title>Node15</title>
<g id="a_node15"><a xlink:href="when__any_8cpp.html" target="_top" xlink:title=" ">
<polygon fill="none" stroke="black" points="951.1,-0.5 951.1,-30.5 1052.1,-30.5 1052.1,-0.5 951.1,-0.5"/>
<text text-anchor="start" x="959.1" y="-18.5" font-family="Helvetica,sans-Serif" font-size="10.00">test/example/async</text>
<text text-anchor="middle" x="1001.6" y="-7.5" font-family="Helvetica,sans-Serif" font-size="10.00">/when_any.cpp</text>
</a>
</g>
</g>
<!-- Node14&#45;&gt;Node15 -->
<g id="edge14" class="edge">
<title>Node14&#45;&gt;Node15</title>
<path fill="none" stroke="midnightblue" d="M902.6,-63.13C924.52,-52.8 951.47,-40.11 971.71,-30.58"/>
<polygon fill="midnightblue" stroke="midnightblue" points="901.1,-59.97 893.54,-67.4 904.08,-66.3 901.1,-59.97"/>
</g>
<!-- Node17&#45;&gt;Node8 -->
<g id="edge19" class="edge">
<title>Node17&#45;&gt;Node8</title>
<path fill="none" stroke="midnightblue" d="M1295.2,-192.58C1289.74,-183.24 1283.6,-172.75 1278.83,-164.58"/>
<polygon fill="midnightblue" stroke="midnightblue" points="1292.28,-194.53 1300.35,-201.4 1298.33,-191 1292.28,-194.53"/>
</g>
<!-- Node17&#45;&gt;Node12 -->
<g id="edge20" class="edge">
<title>Node17&#45;&gt;Node12</title>
<path fill="none" stroke="midnightblue" d="M1255.25,-198.22C1226.96,-188.83 1191.72,-176.76 1160.6,-165 1054.35,-124.86 1031.68,-104.83 924.6,-67 884.25,-52.75 837.62,-39.24 803.1,-29.78"/>
<polygon fill="midnightblue" stroke="midnightblue" points="1254.35,-201.61 1264.94,-201.43 1256.55,-194.97 1254.35,-201.61"/>
</g>
<!-- Node17&#45;&gt;Node15 -->
<g id="edge21" class="edge">
<title>Node17&#45;&gt;Node15</title>
<path fill="none" stroke="midnightblue" d="M1270.08,-196.96C1252.01,-187.88 1230.37,-176.45 1211.6,-165 1137.83,-120 1055.6,-58.19 1019.85,-30.69"/>
<polygon fill="midnightblue" stroke="midnightblue" points="1268.66,-200.16 1279.17,-201.48 1271.77,-193.89 1268.66,-200.16"/>
</g>
<!-- Node18&#45;&gt;Node3 -->
<g id="edge23" class="edge">
<title>Node18&#45;&gt;Node3</title>
<path fill="none" stroke="midnightblue" d="M190.76,-231.32C192.05,-231.55 193.33,-231.78 194.6,-232 373.17,-262.92 825.08,-303.79 1003.6,-335 1006.44,-335.5 1009.36,-336.04 1012.29,-336.6"/>
<polygon fill="midnightblue" stroke="midnightblue" points="191.23,-227.85 180.75,-229.41 189.92,-234.72 191.23,-227.85"/>
</g>
<!-- Node23&#45;&gt;Node21 -->
<g id="edge31" class="edge">
<title>Node23&#45;&gt;Node21</title>
<path fill="none" stroke="midnightblue" d="M310.66,-130.96C280.86,-120.48 243.52,-107.37 215.66,-97.58"/>
<polygon fill="midnightblue" stroke="midnightblue" points="309.86,-134.38 320.45,-134.4 312.18,-127.78 309.86,-134.38"/>
</g>
<!-- Node24&#45;&gt;Node22 -->
<g id="edge33" class="edge">
<title>Node24&#45;&gt;Node22</title>
<path fill="none" stroke="midnightblue" d="M778.62,-129.3C760.63,-119.12 738.92,-106.85 722.5,-97.58"/>
<polygon fill="midnightblue" stroke="midnightblue" points="777.22,-132.52 787.64,-134.4 780.66,-126.43 777.22,-132.52"/>
</g>
<!-- Node26&#45;&gt;Node23 -->
<g id="edge36" class="edge">
<title>Node26&#45;&gt;Node23</title>
<path fill="none" stroke="midnightblue" d="M1528.78,-205.62C1516.53,-203.82 1503.66,-202.16 1491.6,-201 1089.57,-162.47 986.92,-186.1 583.6,-165 529.36,-162.16 467.75,-158.09 423.05,-154.99"/>
<polygon fill="midnightblue" stroke="midnightblue" points="1528.47,-209.11 1538.89,-207.15 1529.52,-202.19 1528.47,-209.11"/>
</g>
<!-- Node26&#45;&gt;Node24 -->
<g id="edge37" class="edge">
<title>Node26&#45;&gt;Node24</title>
<path fill="none" stroke="midnightblue" d="M1528.74,-205.94C1516.5,-204.12 1503.64,-202.37 1491.6,-201 1269.9,-175.87 1006,-160.35 882.65,-153.92"/>
<polygon fill="midnightblue" stroke="midnightblue" points="1528.44,-209.44 1538.85,-207.48 1529.49,-202.51 1528.44,-209.44"/>
</g>
<!-- Node26&#45;&gt;Node25 -->
<g id="edge38" class="edge">
<title>Node26&#45;&gt;Node25</title>
<path fill="none" stroke="midnightblue" d="M1612.87,-195.17C1625.72,-185.23 1640.86,-173.51 1652.41,-164.58"/>
<polygon fill="midnightblue" stroke="midnightblue" points="1610.59,-192.51 1604.82,-201.4 1614.87,-198.04 1610.59,-192.51"/>
</g>
<!-- Node27 -->
<g id="node27" class="node">
<title>Node27</title>
<g id="a_node27"><a xlink:href="coro_2task_8hpp.html" target="_top" xlink:title=" ">
<polygon fill="none" stroke="black" points="1737.1,-134.5 1737.1,-164.5 1834.1,-164.5 1834.1,-134.5 1737.1,-134.5"/>
<text text-anchor="start" x="1745.1" y="-152.5" font-family="Helvetica,sans-Serif" font-size="10.00">include/yaclib/coro</text>
<text text-anchor="middle" x="1785.6" y="-141.5" font-family="Helvetica,sans-Serif" font-size="10.00">/task.hpp</text>
</a>
</g>
</g>
<!-- Node26&#45;&gt;Node27 -->
<g id="edge39" class="edge">
<title>Node26&#45;&gt;Node27</title>
<path fill="none" stroke="midnightblue" d="M1639.48,-198.23C1671.67,-187.71 1712.27,-174.45 1742.5,-164.58"/>
<polygon fill="midnightblue" stroke="midnightblue" points="1638.2,-194.96 1629.78,-201.4 1640.37,-201.62 1638.2,-194.96"/>
</g>
<!-- Node28 -->
<g id="node28" class="node">
<title>Node28</title>
<g id="a_node28"><a xlink:href="lazy_2make_8hpp.html" target="_top" xlink:title=" ">
<polygon fill="none" stroke="black" points="1443.1,-67.5 1443.1,-97.5 1538.1,-97.5 1538.1,-67.5 1443.1,-67.5"/>
<text text-anchor="start" x="1451.1" y="-85.5" font-family="Helvetica,sans-Serif" font-size="10.00">include/yaclib/lazy</text>
<text text-anchor="middle" x="1490.6" y="-74.5" font-family="Helvetica,sans-Serif" font-size="10.00">/make.hpp</text>
</a>
</g>
</g>
<!-- Node26&#45;&gt;Node28 -->
<g id="edge40" class="edge">
<title>Node26&#45;&gt;Node28</title>
<path fill="none" stroke="midnightblue" d="M1588.28,-190.83C1588.26,-173.56 1585.72,-150.69 1574.6,-134 1563.65,-117.57 1545.38,-105.67 1528.66,-97.55"/>
<polygon fill="midnightblue" stroke="midnightblue" points="1584.77,-191.15 1587.99,-201.24 1591.77,-191.34 1584.77,-191.15"/>
</g>
<!-- Node29 -->
<g id="node29" class="node">
<title>Node29</title>
<g id="a_node29"><a xlink:href="schedule_8hpp.html" target="_top" xlink:title=" ">
<polygon fill="none" stroke="black" points="1339.1,-134.5 1339.1,-164.5 1434.1,-164.5 1434.1,-134.5 1339.1,-134.5"/>
<text text-anchor="start" x="1347.1" y="-152.5" font-family="Helvetica,sans-Serif" font-size="10.00">include/yaclib/lazy</text>
<text text-anchor="middle" x="1386.6" y="-141.5" font-family="Helvetica,sans-Serif" font-size="10.00">/schedule.hpp</text>
</a>
</g>
</g>
<!-- Node26&#45;&gt;Node29 -->
<g id="edge41" class="edge">
<title>Node26&#45;&gt;Node29</title>
<path fill="none" stroke="midnightblue" d="M1533.45,-198.23C1501.1,-187.71 1460.29,-174.45 1429.91,-164.58"/>
<polygon fill="midnightblue" stroke="midnightblue" points="1532.61,-201.63 1543.2,-201.4 1534.77,-194.98 1532.61,-201.63"/>
</g>
<!-- Node30 -->
<g id="node30" class="node">
<title>Node30</title>
<g id="a_node30"><a xlink:href="task__impl_8cpp.html" target="_top" xlink:title=" ">
<polygon fill="none" stroke="black" points="1452.1,-140 1452.1,-159 1565.1,-159 1565.1,-140 1452.1,-140"/>
<text text-anchor="middle" x="1508.6" y="-147" font-family="Helvetica,sans-Serif" font-size="10.00">src/lazy/task_impl.cpp</text>
</a>
</g>
</g>
<!-- Node26&#45;&gt;Node30 -->
<g id="edge43" class="edge">
<title>Node26&#45;&gt;Node30</title>
<path fill="none" stroke="midnightblue" d="M1561.6,-194.67C1547.2,-182.67 1529.86,-168.22 1519.03,-159.19"/>
<polygon fill="midnightblue" stroke="midnightblue" points="1559.75,-197.68 1569.67,-201.4 1564.23,-192.31 1559.75,-197.68"/>
</g>
<!-- Node29&#45;&gt;Node28 -->
<g id="edge42" class="edge">
<title>Node29&#45;&gt;Node28</title>
<path fill="none" stroke="midnightblue" d="M1417.77,-129.02C1433.96,-118.9 1453.37,-106.77 1468.07,-97.58"/>
<polygon fill="midnightblue" stroke="midnightblue" points="1415.79,-126.13 1409.16,-134.4 1419.5,-132.06 1415.79,-126.13"/>
</g>
<!-- Node33&#45;&gt;Node17 -->
<g id="edge49" class="edge">
<title>Node33&#45;&gt;Node17</title>
<path fill="none" stroke="midnightblue" d="M1315.95,-325.39C1314.08,-297.9 1311.08,-253.89 1309.55,-231.52"/>
<polygon fill="midnightblue" stroke="midnightblue" points="1312.46,-325.63 1316.63,-335.37 1319.45,-325.16 1312.46,-325.63"/>
</g>
<!-- Node34 -->
<g id="node34" class="node">
<title>Node34</title>
<g id="a_node34"><a xlink:href="task__impl_8hpp.html" target="_top" xlink:title=" ">
<polygon fill="none" stroke="black" points="1494.6,-268.5 1494.6,-298.5 1600.6,-298.5 1600.6,-268.5 1494.6,-268.5"/>
<text text-anchor="start" x="1502.6" y="-286.5" font-family="Helvetica,sans-Serif" font-size="10.00">include/yaclib/lazy</text>
<text text-anchor="middle" x="1547.6" y="-275.5" font-family="Helvetica,sans-Serif" font-size="10.00">/detail/task_impl.hpp</text>
</a>
</g>
</g>
<!-- Node33&#45;&gt;Node34 -->
<g id="edge50" class="edge">
<title>Node33&#45;&gt;Node34</title>
<path fill="none" stroke="midnightblue" d="M1376.99,-332.71C1414.42,-322.14 1462.2,-308.63 1497.67,-298.61"/>
<polygon fill="midnightblue" stroke="midnightblue" points="1375.89,-329.39 1367.22,-335.48 1377.8,-336.12 1375.89,-329.39"/>
</g>
<!-- Node34&#45;&gt;Node26 -->
<g id="edge51" class="edge">
<title>Node34&#45;&gt;Node26</title>
<path fill="none" stroke="midnightblue" d="M1561.35,-259.58C1566.95,-250.24 1573.25,-239.75 1578.15,-231.58"/>
<polygon fill="midnightblue" stroke="midnightblue" points="1558.2,-258.02 1556.06,-268.4 1564.21,-261.62 1558.2,-258.02"/>
</g>
<!-- Node35&#45;&gt;Node7 -->
<g id="edge57" class="edge">
<title>Node35&#45;&gt;Node7</title>
<path fill="none" stroke="midnightblue" d="M1426.82,-258.4C1427.66,-249.37 1428.57,-239.41 1429.3,-231.58"/>
<polygon fill="midnightblue" stroke="midnightblue" points="1423.33,-258.12 1425.9,-268.4 1430.3,-258.76 1423.33,-258.12"/>
</g>
<!-- Node35&#45;&gt;Node8 -->
<g id="edge59" class="edge">
<title>Node35&#45;&gt;Node8</title>
<path fill="none" stroke="midnightblue" d="M1458.68,-262.98C1483.03,-246.54 1508.7,-222.36 1491.6,-201 1445.75,-143.78 1402.01,-181.61 1330.6,-165 1327.57,-164.3 1324.46,-163.57 1321.32,-162.82"/>
<polygon fill="midnightblue" stroke="midnightblue" points="1456.7,-260.09 1450.19,-268.45 1460.5,-265.97 1456.7,-260.09"/>
</g>
<!-- Node36 -->
<g id="node36" class="node">
<title>Node36</title>
<g id="a_node36"><a xlink:href="promise__impl_8cpp.html" target="_top" xlink:title=" ">
<polygon fill="none" stroke="black" points="1691.1,-207 1691.1,-226 1828.1,-226 1828.1,-207 1691.1,-207"/>
<text text-anchor="middle" x="1759.6" y="-214" font-family="Helvetica,sans-Serif" font-size="10.00">src/async/promise_impl.cpp</text>
</a>
</g>
</g>
<!-- Node35&#45;&gt;Node36 -->
<g id="edge58" class="edge">
<title>Node35&#45;&gt;Node36</title>
<path fill="none" stroke="midnightblue" d="M1486.79,-267.83C1541.95,-256.54 1649.07,-237.22 1711.64,-226.03"/>
<polygon fill="midnightblue" stroke="midnightblue" points="1485.88,-264.44 1476.8,-269.91 1487.3,-271.3 1485.88,-264.44"/>
</g>
<!-- Node37&#45;&gt;Node25 -->
<g id="edge64" class="edge">
<title>Node37&#45;&gt;Node25</title>
<path fill="none" stroke="midnightblue" d="M1846.65,-198.79C1807.04,-187.92 1756.1,-173.95 1719.21,-163.83"/>
<polygon fill="midnightblue" stroke="midnightblue" points="1845.89,-202.21 1856.46,-201.48 1847.75,-195.46 1845.89,-202.21"/>
</g>
<!-- Node37&#45;&gt;Node27 -->
<g id="edge67" class="edge">
<title>Node37&#45;&gt;Node27</title>
<path fill="none" stroke="midnightblue" d="M1872.08,-196.57C1852.89,-186.35 1829.59,-173.94 1812.02,-164.58"/>
<polygon fill="midnightblue" stroke="midnightblue" points="1870.65,-199.78 1881.12,-201.4 1873.95,-193.6 1870.65,-199.78"/>
</g>
<!-- Node38 -->
<g id="node38" class="node">
<title>Node38</title>
<g id="a_node38"><a xlink:href="on__awaiter_8hpp.html" target="_top" xlink:title=" ">
<polygon fill="none" stroke="black" points="1852.1,-134.5 1852.1,-164.5 1963.1,-164.5 1963.1,-134.5 1852.1,-134.5"/>
<text text-anchor="start" x="1860.1" y="-152.5" font-family="Helvetica,sans-Serif" font-size="10.00">include/yaclib/coro</text>
<text text-anchor="middle" x="1907.6" y="-141.5" font-family="Helvetica,sans-Serif" font-size="10.00">/detail/on_awaiter.hpp</text>
</a>
</g>
</g>
<!-- Node37&#45;&gt;Node38 -->
<g id="edge61" class="edge">
<title>Node37&#45;&gt;Node38</title>
<path fill="none" stroke="midnightblue" d="M1907.6,-191.11C1907.6,-182.15 1907.6,-172.32 1907.6,-164.58"/>
<polygon fill="midnightblue" stroke="midnightblue" points="1904.1,-191.4 1907.6,-201.4 1911.1,-191.4 1904.1,-191.4"/>
</g>
<!-- Node39 -->
<g id="node39" class="node">
<title>Node39</title>
<g id="a_node39"><a xlink:href="coro_2mutex_8hpp.html" target="_top" xlink:title=" ">
<polygon fill="none" stroke="black" points="2016.1,-67.5 2016.1,-97.5 2113.1,-97.5 2113.1,-67.5 2016.1,-67.5"/>
<text text-anchor="start" x="2024.1" y="-85.5" font-family="Helvetica,sans-Serif" font-size="10.00">include/yaclib/coro</text>
<text text-anchor="middle" x="2064.6" y="-74.5" font-family="Helvetica,sans-Serif" font-size="10.00">/mutex.hpp</text>
</a>
</g>
</g>
<!-- Node37&#45;&gt;Node39 -->
<g id="edge65" class="edge">
<title>Node37&#45;&gt;Node39</title>
<path fill="none" stroke="midnightblue" d="M1978.84,-204.5C2023.12,-196.05 2074.11,-182.79 2087.6,-165 2102.87,-144.85 2087.24,-114.99 2075.34,-97.56"/>
<polygon fill="midnightblue" stroke="midnightblue" points="1978.12,-201.08 1968.93,-206.34 1979.4,-207.96 1978.12,-201.08"/>
</g>
<!-- Node41 -->
<g id="node41" class="node">
<title>Node41</title>
<g id="a_node41"><a xlink:href="coro_2shared__mutex_8hpp.html" target="_top" xlink:title=" ">
<polygon fill="none" stroke="black" points="1980.6,-134.5 1980.6,-164.5 2078.6,-164.5 2078.6,-134.5 1980.6,-134.5"/>
<text text-anchor="start" x="1988.6" y="-152.5" font-family="Helvetica,sans-Serif" font-size="10.00">include/yaclib/coro</text>
<text text-anchor="middle" x="2029.6" y="-141.5" font-family="Helvetica,sans-Serif" font-size="10.00">/shared_mutex.hpp</text>
</a>
</g>
</g>
<!-- Node37&#45;&gt;Node41 -->
<g id="edge66" class="edge">
<title>Node37&#45;&gt;Node41</title>
<path fill="none" stroke="midnightblue" d="M1943.12,-196.57C1962.31,-186.35 1985.6,-173.94 2003.18,-164.58"/>
<polygon fill="midnightblue" stroke="midnightblue" points="1941.25,-193.6 1934.07,-201.4 1944.54,-199.78 1941.25,-193.6"/>
</g>
<!-- Node38&#45;&gt;Node39 -->
<g id="edge62" class="edge">
<title>Node38&#45;&gt;Node39</title>
<path fill="none" stroke="midnightblue" d="M1950.97,-130.54C1976.09,-120.14 2007.26,-107.24 2030.6,-97.58"/>
<polygon fill="midnightblue" stroke="midnightblue" points="1949.56,-127.34 1941.66,-134.4 1952.24,-133.8 1949.56,-127.34"/>
</g>
<!-- Node40 -->
<g id="node40" class="node">
<title>Node40</title>
<g id="a_node40"><a xlink:href="on_8hpp.html" target="_top" xlink:title=" ">
<polygon fill="none" stroke="black" points="1859.1,-67.5 1859.1,-97.5 1956.1,-97.5 1956.1,-67.5 1859.1,-67.5"/>
<text text-anchor="start" x="1867.1" y="-85.5" font-family="Helvetica,sans-Serif" font-size="10.00">include/yaclib/coro</text>
<text text-anchor="middle" x="1907.6" y="-74.5" font-family="Helvetica,sans-Serif" font-size="10.00">/on.hpp</text>
</a>
</g>
</g>
<!-- Node38&#45;&gt;Node40 -->
<g id="edge63" class="edge">
<title>Node38&#45;&gt;Node40</title>
<path fill="none" stroke="midnightblue" d="M1907.6,-124.11C1907.6,-115.15 1907.6,-105.32 1907.6,-97.58"/>
<polygon fill="midnightblue" stroke="midnightblue" points="1904.1,-124.4 1907.6,-134.4 1911.1,-124.4 1904.1,-124.4"/>
</g>
</g>
</svg>
