<?xml version="1.0" encoding="UTF-8" standalone="no"?>
<!DOCTYPE svg PUBLIC "-//W3C//DTD SVG 1.1//EN"
 "http://www.w3.org/Graphics/SVG/1.1/DTD/svg11.dtd">
<!-- Generated by graphviz version 9.0.0 (20230911.1827)
 -->
<!-- Title: src/util/result.cpp Pages: 1 -->
<svg width="414pt" height="260pt"
 viewBox="0.00 0.00 414.38 259.50" xmlns="http://www.w3.org/2000/svg" xmlns:xlink="http://www.w3.org/1999/xlink">

<svg id="main" version="1.1" xmlns="http://www.w3.org/2000/svg" xmlns:xlink="http://www.w3.org/1999/xlink" xml:space="preserve" onload="init(evt)">
<style type="text/css"><![CDATA[
.node, .edge {opacity: 0.7;}
.node.selected, .edge.selected {opacity: 1;}
.edge:hover path { stroke: red; }
.edge:hover polygon { stroke: red; fill: red; }
]]></style>
<script type="application/ecmascript" xlink:href="svg.min.js"/>
<svg id="graph" class="graph">
<g id="graph0" class="graph" transform="scale(1 1) rotate(0) translate(4 255.5)">
<title>src/util/result.cpp</title>
<!-- Node1 -->
<g id="Node000001" class="node">
<title>Node1</title>
<g id="a_Node000001"><a xlink:title=" ">
<polygon fill="#999999" stroke="#666666" points="332.88,-251.5 242.62,-251.5 242.62,-232.25 332.88,-232.25 332.88,-251.5"/>
<text text-anchor="middle" x="287.75" y="-238" font-family="Helvetica,sans-Serif" font-size="10.00">src/util/result.cpp</text>
</a>
</g>
</g>
<!-- Node2 -->
<g id="Node000002" class="node">
<title>Node2</title>
<g id="a_Node000002"><a xlink:href="result_8hpp.html" target="_top" xlink:title=" ">
<polygon fill="white" stroke="#666666" points="338.5,-196.25 237,-196.25 237,-177 338.5,-177 338.5,-196.25"/>
<text text-anchor="middle" x="287.75" y="-182.75" font-family="Helvetica,sans-Serif" font-size="10.00">yaclib/util/result.hpp</text>
</a>
</g>
</g>
<!-- Node1&#45;&gt;Node2 -->
<g id="edge1_Node000001_Node000002" class="edge">
<title>Node1&#45;&gt;Node2</title>
<g id="a_edge1_Node000001_Node000002"><a xlink:title=" ">
<path fill="none" stroke="#63b8ff" d="M287.75,-232.08C287.75,-225.57 287.75,-216.42 287.75,-208.12"/>
<polygon fill="#63b8ff" stroke="#63b8ff" points="291.25,-208.12 287.75,-198.12 284.25,-208.12 291.25,-208.12"/>
</a>
</g>
</g>
<!-- Node3 -->
<g id="Node000003" class="node">
<title>Node3</title>
<g id="a_Node000003"><a xlink:href="fwd_8hpp.html" target="_top" xlink:title=" ">
<polygon fill="white" stroke="#666666" points="77.5,-19.25 0,-19.25 0,0 77.5,0 77.5,-19.25"/>
<text text-anchor="middle" x="38.75" y="-5.75" font-family="Helvetica,sans-Serif" font-size="10.00">yaclib/fwd.hpp</text>
</a>
</g>
</g>
<!-- Node2&#45;&gt;Node3 -->
<g id="edge2_Node000002_Node000003" class="edge">
<title>Node2&#45;&gt;Node3</title>
<g id="a_edge2_Node000002_Node000003"><a xlink:title=" ">
<path fill="none" stroke="#63b8ff" d="M236.75,-182.92C175.96,-176.53 77.7,-155.36 38.75,-85.75 29.4,-69.05 30.77,-46.8 33.64,-30.86"/>
<polygon fill="#63b8ff" stroke="#63b8ff" points="37.05,-31.65 35.77,-21.13 30.22,-30.16 37.05,-31.65"/>
</a>
</g>
</g>
<!-- Node4 -->
<g id="Node000004" class="node">
<title>Node4</title>
<g id="a_Node000004"><a xlink:href="type__traits_8hpp.html" target="_top" xlink:title=" ">
<polygon fill="white" stroke="#666666" points="260,-141 137.5,-141 137.5,-121.75 260,-121.75 260,-141"/>
<text text-anchor="middle" x="198.75" y="-127.5" font-family="Helvetica,sans-Serif" font-size="10.00">yaclib/util/type_traits.hpp</text>
</a>
</g>
</g>
<!-- Node2&#45;&gt;Node4 -->
<g id="edge3_Node000002_Node000004" class="edge">
<title>Node2&#45;&gt;Node4</title>
<g id="a_edge3_Node000002_Node000004"><a xlink:title=" ">
<path fill="none" stroke="#63b8ff" d="M272.65,-176.59C259.23,-168.56 239.34,-156.66 223.58,-147.23"/>
<polygon fill="#63b8ff" stroke="#63b8ff" points="225.6,-144.36 215.22,-142.23 222,-150.37 225.6,-144.36"/>
</a>
</g>
</g>
<!-- Node7 -->
<g id="Node000007" class="node">
<title>Node7</title>
<g id="a_Node000007"><a xlink:title=" ">
<polygon fill="#e0e0e0" stroke="#999999" points="286.38,-80.12 229.12,-80.12 229.12,-60.88 286.38,-60.88 286.38,-80.12"/>
<text text-anchor="middle" x="257.75" y="-66.62" font-family="Helvetica,sans-Serif" font-size="10.00">exception</text>
</a>
</g>
</g>
<!-- Node2&#45;&gt;Node7 -->
<g id="edge12_Node000002_Node000007" class="edge">
<title>Node2&#45;&gt;Node7</title>
<g id="a_edge12_Node000002_Node000007"><a xlink:title=" ">
<path fill="none" stroke="#63b8ff" d="M285.4,-176.67C280.6,-158.42 269.59,-116.53 263,-91.48"/>
<polygon fill="#63b8ff" stroke="#63b8ff" points="266.41,-90.66 260.48,-81.88 259.64,-92.44 266.41,-90.66"/>
</a>
</g>
</g>
<!-- Node8 -->
<g id="Node000008" class="node">
<title>Node8</title>
<g id="a_Node000008"><a xlink:title=" ">
<polygon fill="#e0e0e0" stroke="#999999" points="343,-80.12 304.5,-80.12 304.5,-60.88 343,-60.88 343,-80.12"/>
<text text-anchor="middle" x="323.75" y="-66.62" font-family="Helvetica,sans-Serif" font-size="10.00">utility</text>
</a>
</g>
</g>
<!-- Node2&#45;&gt;Node8 -->
<g id="edge13_Node000002_Node000008" class="edge">
<title>Node2&#45;&gt;Node8</title>
<g id="a_edge13_Node000002_Node000008"><a xlink:title=" ">
<path fill="none" stroke="#63b8ff" d="M290.57,-176.67C296.36,-158.34 309.67,-116.15 317.56,-91.13"/>
<polygon fill="#63b8ff" stroke="#63b8ff" points="320.81,-92.45 320.48,-81.86 314.14,-90.34 320.81,-92.45"/>
</a>
</g>
</g>
<!-- Node9 -->
<g id="Node000009" class="node">
<title>Node9</title>
<g id="a_Node000009"><a xlink:title=" ">
<polygon fill="#e0e0e0" stroke="#999999" points="406.38,-80.12 361.12,-80.12 361.12,-60.88 406.38,-60.88 406.38,-80.12"/>
<text text-anchor="middle" x="383.75" y="-66.62" font-family="Helvetica,sans-Serif" font-size="10.00">variant</text>
</a>
</g>
</g>
<!-- Node2&#45;&gt;Node9 -->
<g id="edge14_Node000002_Node000009" class="edge">
<title>Node2&#45;&gt;Node9</title>
<g id="a_edge14_Node000002_Node000009"><a xlink:title=" ">
<path fill="none" stroke="#63b8ff" d="M295.28,-176.67C311.13,-157.84 348.14,-113.83 368.92,-89.13"/>
<polygon fill="#63b8ff" stroke="#63b8ff" points="371.52,-91.48 375.28,-81.57 366.16,-86.97 371.52,-91.48"/>
</a>
</g>
</g>
<!-- Node4&#45;&gt;Node3 -->
<g id="edge4_Node000004_Node000003" class="edge">
<title>Node4&#45;&gt;Node3</title>
<g id="a_edge4_Node000004_Node000003"><a xlink:title=" ">
<path fill="none" stroke="#63b8ff" d="M137.05,-124.45C109.31,-118.71 78.27,-107.51 57.75,-85.75 43.78,-70.93 39.69,-47.36 38.68,-30.58"/>
<polygon fill="#63b8ff" stroke="#63b8ff" points="42.18,-30.74 38.43,-20.83 35.18,-30.92 42.18,-30.74"/>
</a>
</g>
</g>
<!-- Node5 -->
<g id="Node000005" class="node">
<title>Node5</title>
<g id="a_Node000005"><a xlink:href="type__traits__impl_8hpp.html" target="_top" xlink:title=" ">
<polygon fill="white" stroke="#666666" points="172.38,-85.75 67.12,-85.75 67.12,-55.25 172.38,-55.25 172.38,-85.75"/>
<text text-anchor="start" x="75.12" y="-72.25" font-family="Helvetica,sans-Serif" font-size="10.00">yaclib/util/detail</text>
<text text-anchor="middle" x="119.75" y="-61" font-family="Helvetica,sans-Serif" font-size="10.00">/type_traits_impl.hpp</text>
</a>
</g>
</g>
<!-- Node4&#45;&gt;Node5 -->
<g id="edge5_Node000004_Node000005" class="edge">
<title>Node4&#45;&gt;Node5</title>
<g id="a_edge5_Node000004_Node000005"><a xlink:title=" ">
<path fill="none" stroke="#63b8ff" d="M186.75,-121.43C176.61,-113.87 161.66,-102.74 148.46,-92.9"/>
<polygon fill="#63b8ff" stroke="#63b8ff" points="150.57,-90.11 140.46,-86.94 146.39,-95.72 150.57,-90.11"/>
</a>
</g>
</g>
<!-- Node6 -->
<g id="Node000006" class="node">
<title>Node6</title>
<g id="a_Node000006"><a xlink:title=" ">
<polygon fill="#e0e0e0" stroke="#999999" points="193.25,-19.25 132.25,-19.25 132.25,0 193.25,0 193.25,-19.25"/>
<text text-anchor="middle" x="162.75" y="-5.75" font-family="Helvetica,sans-Serif" font-size="10.00">type_traits</text>
</a>
</g>
</g>
<!-- Node4&#45;&gt;Node6 -->
<g id="edge9_Node000004_Node000006" class="edge">
<title>Node4&#45;&gt;Node6</title>
<g id="a_edge9_Node000004_Node000006"><a xlink:title=" ">
<path fill="none" stroke="#63b8ff" d="M197.27,-121.45C194.79,-107.23 189.32,-78.66 181.75,-55.25 179.03,-46.84 175.35,-37.83 171.95,-30.12"/>
<polygon fill="#63b8ff" stroke="#63b8ff" points="175.14,-28.69 167.8,-21.05 168.78,-31.6 175.14,-28.69"/>
</a>
</g>
</g>
<!-- Node4&#45;&gt;Node7 -->
<g id="edge8_Node000004_Node000007" class="edge">
<title>Node4&#45;&gt;Node7</title>
<g id="a_edge8_Node000004_Node000007"><a xlink:title=" ">
<path fill="none" stroke="#63b8ff" d="M207.71,-121.43C216.46,-112.7 230,-99.19 240.79,-88.43"/>
<polygon fill="#63b8ff" stroke="#63b8ff" points="243.03,-91.14 247.63,-81.6 238.08,-86.18 243.03,-91.14"/>
</a>
</g>
</g>
<!-- Node4&#45;&gt;Node8 -->
<g id="edge10_Node000004_Node000008" class="edge">
<title>Node4&#45;&gt;Node8</title>
<g id="a_edge10_Node000004_Node000008"><a xlink:title=" ">
<path fill="none" stroke="#63b8ff" d="M218.92,-121.38C238.62,-112.52 269.39,-98.52 295.75,-85.75 295.86,-85.7 295.96,-85.65 296.07,-85.59"/>
<polygon fill="#63b8ff" stroke="#63b8ff" points="297.57,-88.76 304.97,-81.17 294.46,-82.49 297.57,-88.76"/>
</a>
</g>
</g>
<!-- Node4&#45;&gt;Node9 -->
<g id="edge11_Node000004_Node000009" class="edge">
<title>Node4&#45;&gt;Node9</title>
<g id="a_edge11_Node000004_Node000009"><a xlink:title=" ">
<path fill="none" stroke="#63b8ff" d="M235.06,-121.27C266.34,-113.07 312.52,-100.13 351.75,-85.75 352.54,-85.46 353.34,-85.16 354.15,-84.85"/>
<polygon fill="#63b8ff" stroke="#63b8ff" points="355.33,-88.15 363.23,-81.1 352.65,-81.68 355.33,-88.15"/>
</a>
</g>
</g>
<!-- Node5&#45;&gt;Node3 -->
<g id="edge6_Node000005_Node000003" class="edge">
<title>Node5&#45;&gt;Node3</title>
<g id="a_edge6_Node000005_Node000003"><a xlink:title=" ">
<path fill="none" stroke="#63b8ff" d="M99.73,-54.95C87.75,-46.24 72.53,-35.18 60.29,-26.28"/>
<polygon fill="#63b8ff" stroke="#63b8ff" points="62.61,-23.64 52.46,-20.59 58.49,-29.3 62.61,-23.64"/>
</a>
</g>
</g>
<!-- Node5&#45;&gt;Node6 -->
<g id="edge7_Node000005_Node000006" class="edge">
<title>Node5&#45;&gt;Node6</title>
<g id="a_edge7_Node000005_Node000006"><a xlink:title=" ">
<path fill="none" stroke="#63b8ff" d="M130.38,-54.95C136.11,-47.1 143.23,-37.35 149.34,-28.99"/>
<polygon fill="#63b8ff" stroke="#63b8ff" points="152.16,-31.06 155.23,-20.92 146.5,-26.93 152.16,-31.06"/>
</a>
</g>
</g>
</g>
</svg>
</svg>

<style type='text/css'>
<![CDATA[
[data-mouse-over-selected='false'] { opacity: 0.7; }
[data-mouse-over-selected='true']  { opacity: 1.0; }
]]>
</style>
<script type="application/ecmascript"><![CDATA[
document.addEventListener('DOMContentLoaded', (event) => {
  highlightEdges();
  highlightAdjacentNodes();
});
]]></script>
</svg>
