<?xml version="1.0" encoding="UTF-8" standalone="no"?>
<!DOCTYPE svg PUBLIC "-//W3C//DTD SVG 1.1//EN"
 "http://www.w3.org/Graphics/SVG/1.1/DTD/svg11.dtd">
<!-- Generated by graphviz version 9.0.0 (20230911.1827)
 -->
<!-- Title: include/yaclib/algo/detail/result_core.hpp Pages: 1 -->
<!--zoomable 470 -->

<svg id="main" version="1.1" xmlns="http://www.w3.org/2000/svg" xmlns:xlink="http://www.w3.org/1999/xlink" xml:space="preserve" onload="init(evt)">
<style type="text/css"><![CDATA[
.node, .edge {opacity: 0.7;}
.node.selected, .edge.selected {opacity: 1;}
.edge:hover path { stroke: red; }
.edge:hover polygon { stroke: red; fill: red; }
]]></style>

<defs>
  <circle id="rim" cx="0" cy="0" r="7"/>
  <circle id="rim2" cx="0" cy="0" r="3.5"/>
  <g id="zoomPlus">
    <use xlink:href="#rim" fill="#404040"><set attributeName="fill" to="#808080" begin="zoomplus.mouseover" end="zoomplus.mouseout"/></use>
    <path d="M-4,0h8M0,-4v8" fill="none" stroke="white" stroke-width="1.5" pointer-events="none"/>
  </g>
  <g id="zoomMin">
    <use xlink:href="#rim" fill="#404040"><set attributeName="fill" to="#808080" begin="zoomminus.mouseover" end="zoomminus.mouseout"/></use>
    <path d="M-4,0h8" fill="none" stroke="white" stroke-width="1.5" pointer-events="none"/>
  </g>
  <g id="arrowUp" transform="translate(30 24)">
    <use xlink:href="#rim"/>
    <path pointer-events="none" fill="none" stroke="white" stroke-width="1.5" d="M0,-3.0v7 M-2.5,-0.5L0,-3.0L2.5,-0.5"/>
  </g>
  <g id="arrowRight" transform="rotate(90) translate(36 -43)">
    <use xlink:href="#rim"/>
    <path pointer-events="none" fill="none" stroke="white" stroke-width="1.5" d="M0,-3.0v7 M-2.5,-0.5L0,-3.0L2.5,-0.5"/>
  </g>
  <g id="arrowDown" transform="rotate(180) translate(-30 -48)">
    <use xlink:href="#rim"/>
    <path pointer-events="none" fill="none" stroke="white" stroke-width="1.5" d="M0,-3.0v7 M-2.5,-0.5L0,-3.0L2.5,-0.5"/>
  </g>
  <g id="arrowLeft" transform="rotate(270) translate(-36 17)">
    <use xlink:href="#rim"/>
    <path pointer-events="none" fill="none" stroke="white" stroke-width="1.5" d="M0,-3.0v7 M-2.5,-0.5L0,-3.0L2.5,-0.5"/>
  </g>
  <g id="resetDef">
    <use xlink:href="#rim2" fill="#404040"><set attributeName="fill" to="#808080" begin="reset.mouseover" end="reset.mouseout"/></use>
  </g>
</defs>
<script type="application/ecmascript">
var viewWidth = 1186;
var viewHeight = 470;
var sectionId = 'dynsection-0';
</script>
<script type="application/ecmascript" xlink:href="svg.min.js"/>
<svg id="graph" class="graph">
<g id="viewport">
<title>include/yaclib/algo/detail/result_core.hpp</title>
<!-- Node1 -->
<g id="Node000001" class="node">
<title>Node1</title>
<g id="a_Node000001"><a xlink:title=" ">
<polygon fill="#999999" stroke="#666666" points="784.24,-462.25 672.99,-462.25 672.99,-431.75 784.24,-431.75 784.24,-462.25"/>
<text text-anchor="start" x="680.99" y="-448.75" font-family="Helvetica,sans-Serif" font-size="10.00">include/yaclib/algo</text>
<text text-anchor="middle" x="728.61" y="-437.5" font-family="Helvetica,sans-Serif" font-size="10.00">/detail/result_core.hpp</text>
</a>
</g>
</g>
<!-- Node2 -->
<g id="Node000002" class="node">
<title>Node2</title>
<g id="a_Node000002"><a xlink:href="base__core_8hpp.html" target="_top" xlink:title=" ">
<polygon fill="white" stroke="#666666" points="384.61,-395.75 296.61,-395.75 296.61,-365.25 384.61,-365.25 384.61,-395.75"/>
<text text-anchor="start" x="304.61" y="-382.25" font-family="Helvetica,sans-Serif" font-size="10.00">yaclib/algo/detail</text>
<text text-anchor="middle" x="340.61" y="-371" font-family="Helvetica,sans-Serif" font-size="10.00">/base_core.hpp</text>
</a>
</g>
</g>
<!-- Node1&#45;&gt;Node2 -->
<g id="edge1_Node000001_Node000002" class="edge">
<title>Node1&#45;&gt;Node2</title>
<g id="a_edge1_Node000001_Node000002"><a xlink:title=" ">
<path fill="none" stroke="#63b8ff" d="M672.61,-436.69C598.8,-424.42 469.75,-402.97 396.17,-390.74"/>
<polygon fill="#63b8ff" stroke="#63b8ff" points="396.78,-387.29 386.34,-389.1 395.64,-394.2 396.78,-387.29"/>
</a>
</g>
</g>
<!-- Node12 -->
<g id="Node000012" class="node">
<title>Node12</title>
<g id="a_Node000012"><a xlink:title=" ">
<polygon fill="#e0e0e0" stroke="#999999" points="806.86,-74.5 768.36,-74.5 768.36,-55.25 806.86,-55.25 806.86,-74.5"/>
<text text-anchor="middle" x="787.61" y="-61" font-family="Helvetica,sans-Serif" font-size="10.00">utility</text>
</a>
</g>
</g>
<!-- Node1&#45;&gt;Node12 -->
<g id="edge43_Node000001_Node000012" class="edge">
<title>Node1&#45;&gt;Node12</title>
<g id="a_edge43_Node000001_Node000012"><a xlink:title=" ">
<path fill="none" stroke="#63b8ff" d="M736.14,-431.51C747.72,-407.81 768.61,-358.99 768.61,-315 768.61,-315 768.61,-315 768.61,-191.25 768.61,-153.76 777.02,-110.66 782.65,-86.01"/>
<polygon fill="#63b8ff" stroke="#63b8ff" points="786.03,-86.94 784.93,-76.4 779.22,-85.32 786.03,-86.94"/>
</a>
</g>
</g>
<!-- Node14 -->
<g id="Node000014" class="node">
<title>Node14</title>
<g id="a_Node000014"><a xlink:href="intrusive__ptr_8hpp.html" target="_top" xlink:title=" ">
<polygon fill="white" stroke="#666666" points="626.74,-207.5 530.49,-207.5 530.49,-177 626.74,-177 626.74,-207.5"/>
<text text-anchor="start" x="538.49" y="-194" font-family="Helvetica,sans-Serif" font-size="10.00">yaclib/util/intrusive</text>
<text text-anchor="middle" x="578.61" y="-182.75" font-family="Helvetica,sans-Serif" font-size="10.00">_ptr.hpp</text>
</a>
</g>
</g>
<!-- Node1&#45;&gt;Node14 -->
<g id="edge29_Node000001_Node000014" class="edge">
<title>Node1&#45;&gt;Node14</title>
<g id="a_edge29_Node000001_Node000014"><a xlink:title=" ">
<path fill="none" stroke="#63b8ff" d="M719.9,-431.32C695.1,-389.53 623.92,-269.59 593.11,-217.68"/>
<polygon fill="#63b8ff" stroke="#63b8ff" points="596.23,-216.09 588.12,-209.27 590.21,-219.66 596.23,-216.09"/>
</a>
</g>
</g>
<!-- Node21 -->
<g id="Node000021" class="node">
<title>Node21</title>
<g id="a_Node000021"><a xlink:href="result_8hpp.html" target="_top" xlink:title=" ">
<polygon fill="white" stroke="#666666" points="924.36,-262.75 822.86,-262.75 822.86,-243.5 924.36,-243.5 924.36,-262.75"/>
<text text-anchor="middle" x="873.61" y="-249.25" font-family="Helvetica,sans-Serif" font-size="10.00">yaclib/util/result.hpp</text>
</a>
</g>
</g>
<!-- Node1&#45;&gt;Node21 -->
<g id="edge30_Node000001_Node000021" class="edge">
<title>Node1&#45;&gt;Node21</title>
<g id="a_edge30_Node000001_Node000021"><a xlink:title=" ">
<path fill="none" stroke="#63b8ff" d="M746.22,-431.61C757.33,-422.07 771.61,-408.92 782.61,-395.75 816.55,-355.15 848,-301.14 863.51,-272.99"/>
<polygon fill="#63b8ff" stroke="#63b8ff" points="866.55,-274.72 868.25,-264.27 860.4,-271.38 866.55,-274.72"/>
</a>
</g>
</g>
<!-- Node3 -->
<g id="Node000003" class="node">
<title>Node3</title>
<g id="a_Node000003"><a xlink:href="inline__core_8hpp.html" target="_top" xlink:title=" ">
<polygon fill="white" stroke="#666666" points="348.61,-329.25 260.61,-329.25 260.61,-298.75 348.61,-298.75 348.61,-329.25"/>
<text text-anchor="start" x="268.61" y="-315.75" font-family="Helvetica,sans-Serif" font-size="10.00">yaclib/algo/detail</text>
<text text-anchor="middle" x="304.61" y="-304.5" font-family="Helvetica,sans-Serif" font-size="10.00">/inline_core.hpp</text>
</a>
</g>
</g>
<!-- Node2&#45;&gt;Node3 -->
<g id="edge2_Node000002_Node000003" class="edge">
<title>Node2&#45;&gt;Node3</title>
<g id="a_edge2_Node000002_Node000003"><a xlink:title=" ">
<path fill="none" stroke="#63b8ff" d="M332.44,-364.86C328.25,-357.36 323.04,-348.02 318.26,-339.46"/>
<polygon fill="#63b8ff" stroke="#63b8ff" points="321.42,-337.93 313.49,-330.9 315.3,-341.34 321.42,-337.93"/>
</a>
</g>
</g>
<!-- Node4 -->
<g id="Node000004" class="node">
<title>Node4</title>
<g id="a_Node000004"><a xlink:title=" ">
<polygon fill="#e0e0e0" stroke="#999999" points="386.24,-262.75 298.99,-262.75 298.99,-243.5 386.24,-243.5 386.24,-262.75"/>
<text text-anchor="middle" x="342.61" y="-249.25" font-family="Helvetica,sans-Serif" font-size="10.00">yaclib/config.hpp</text>
</a>
</g>
</g>
<!-- Node2&#45;&gt;Node4 -->
<g id="edge13_Node000002_Node000004" class="edge">
<title>Node2&#45;&gt;Node4</title>
<g id="a_edge13_Node000002_Node000004"><a xlink:title=" ">
<path fill="none" stroke="#63b8ff" d="M346.98,-364.87C350.91,-355.02 355.58,-341.61 357.61,-329.25 359.81,-315.87 359.8,-312.13 357.61,-298.75 356.24,-290.39 353.52,-281.48 350.77,-273.84"/>
<polygon fill="#63b8ff" stroke="#63b8ff" points="354.04,-272.6 347.16,-264.54 347.52,-275.13 354.04,-272.6"/>
</a>
</g>
</g>
<!-- Node6 -->
<g id="Node000006" class="node">
<title>Node6</title>
<g id="a_Node000006"><a xlink:href="log_8hpp.html" target="_top" xlink:title=" ">
<polygon fill="white" stroke="#666666" points="288.86,-74.5 214.36,-74.5 214.36,-55.25 288.86,-55.25 288.86,-74.5"/>
<text text-anchor="middle" x="251.61" y="-61" font-family="Helvetica,sans-Serif" font-size="10.00">yaclib/log.hpp</text>
</a>
</g>
</g>
<!-- Node2&#45;&gt;Node6 -->
<g id="edge24_Node000002_Node000006" class="edge">
<title>Node2&#45;&gt;Node6</title>
<g id="a_edge24_Node000002_Node000006"><a xlink:title=" ">
<path fill="none" stroke="#63b8ff" d="M296.26,-378.4C218.06,-375.55 60.19,-365.35 20.61,-329.25 -4.83,-306.04 1.61,-288.57 1.61,-254.12 1.61,-254.12 1.61,-254.12 1.61,-191.25 1.61,-102.18 129.97,-76.38 202.74,-68.92"/>
<polygon fill="#63b8ff" stroke="#63b8ff" points="202.78,-72.43 212.41,-68.01 202.12,-65.46 202.78,-72.43"/>
</a>
</g>
</g>
<!-- Node10 -->
<g id="Node000010" class="node">
<title>Node10</title>
<g id="a_Node000010"><a xlink:href="ref_8hpp.html" target="_top" xlink:title=" ">
<polygon fill="white" stroke="#666666" points="622.99,-74.5 534.24,-74.5 534.24,-55.25 622.99,-55.25 622.99,-74.5"/>
<text text-anchor="middle" x="578.61" y="-61" font-family="Helvetica,sans-Serif" font-size="10.00">yaclib/util/ref.hpp</text>
</a>
</g>
</g>
<!-- Node2&#45;&gt;Node10 -->
<g id="edge25_Node000002_Node000010" class="edge">
<title>Node2&#45;&gt;Node10</title>
<g id="a_edge25_Node000002_Node000010"><a xlink:title=" ">
<path fill="none" stroke="#63b8ff" d="M351.08,-365.08C357.84,-355.31 366.49,-341.92 372.61,-329.25 386.21,-301.09 387.27,-292.89 395.61,-262.75 414.06,-196.11 380.72,-161.31 427.61,-110.5 451.82,-84.26 490.63,-73.18 522.84,-68.62"/>
<polygon fill="#63b8ff" stroke="#63b8ff" points="522.92,-72.14 532.42,-67.45 522.07,-65.19 522.92,-72.14"/>
</a>
</g>
</g>
<!-- Node13 -->
<g id="Node000013" class="node">
<title>Node13</title>
<g id="a_Node000013"><a xlink:href="executor_8hpp.html" target="_top" xlink:title=" ">
<polygon fill="white" stroke="#666666" points="573.86,-262.75 457.36,-262.75 457.36,-243.5 573.86,-243.5 573.86,-262.75"/>
<text text-anchor="middle" x="515.61" y="-249.25" font-family="Helvetica,sans-Serif" font-size="10.00">yaclib/exe/executor.hpp</text>
</a>
</g>
</g>
<!-- Node2&#45;&gt;Node13 -->
<g id="edge14_Node000002_Node000013" class="edge">
<title>Node2&#45;&gt;Node13</title>
<g id="a_edge14_Node000002_Node000013"><a xlink:title=" ">
<path fill="none" stroke="#63b8ff" d="M369.61,-364.78C387.19,-355.4 409.79,-342.56 428.61,-329.25 454.42,-311 481.6,-286.57 498.57,-270.6"/>
<polygon fill="#63b8ff" stroke="#63b8ff" points="500.53,-273.57 505.36,-264.14 495.7,-268.5 500.53,-273.57"/>
</a>
</g>
</g>
<!-- Node16 -->
<g id="Node000016" class="node">
<title>Node16</title>
<g id="a_Node000016"><a xlink:href="inline_8hpp.html" target="_top" xlink:title=" ">
<polygon fill="white" stroke="#666666" points="582.74,-323.62 480.49,-323.62 480.49,-304.38 582.74,-304.38 582.74,-323.62"/>
<text text-anchor="middle" x="531.61" y="-310.12" font-family="Helvetica,sans-Serif" font-size="10.00">yaclib/exe/inline.hpp</text>
</a>
</g>
</g>
<!-- Node2&#45;&gt;Node16 -->
<g id="edge21_Node000002_Node000016" class="edge">
<title>Node2&#45;&gt;Node16</title>
<g id="a_edge21_Node000002_Node000016"><a xlink:title=" ">
<path fill="none" stroke="#63b8ff" d="M383.95,-364.86C417.13,-353.66 462.43,-338.36 494.07,-327.68"/>
<polygon fill="#63b8ff" stroke="#63b8ff" points="494.86,-331.1 503.22,-324.59 492.62,-324.47 494.86,-331.1"/>
</a>
</g>
</g>
<!-- Node18 -->
<g id="Node000018" class="node">
<title>Node18</title>
<g id="a_Node000018"><a xlink:title=" ">
<polygon fill="#e0e0e0" stroke="#999999" points="75.24,-323.62 29.99,-323.62 29.99,-304.38 75.24,-304.38 75.24,-323.62"/>
<text text-anchor="middle" x="52.61" y="-310.12" font-family="Helvetica,sans-Serif" font-size="10.00">cstdint</text>
</a>
</g>
</g>
<!-- Node2&#45;&gt;Node18 -->
<g id="edge26_Node000002_Node000018" class="edge">
<title>Node2&#45;&gt;Node18</title>
<g id="a_edge26_Node000002_Node000018"><a xlink:title=" ">
<path fill="none" stroke="#63b8ff" d="M296.15,-374.08C244.27,-367.01 156.3,-352.69 83.61,-329.25 82.65,-328.94 81.68,-328.61 80.7,-328.26"/>
<polygon fill="#63b8ff" stroke="#63b8ff" points="82.34,-325.14 71.76,-324.6 79.69,-331.62 82.34,-325.14"/>
</a>
</g>
</g>
<!-- Node19 -->
<g id="Node000019" class="node">
<title>Node19</title>
<g id="a_Node000019"><a xlink:title=" ">
<polygon fill="#e0e0e0" stroke="#999999" points="132.24,-323.62 92.99,-323.62 92.99,-304.38 132.24,-304.38 132.24,-323.62"/>
<text text-anchor="middle" x="112.61" y="-310.12" font-family="Helvetica,sans-Serif" font-size="10.00">limits</text>
</a>
</g>
</g>
<!-- Node2&#45;&gt;Node19 -->
<g id="edge27_Node000002_Node000019" class="edge">
<title>Node2&#45;&gt;Node19</title>
<g id="a_edge27_Node000002_Node000019"><a xlink:title=" ">
<path fill="none" stroke="#63b8ff" d="M296.34,-371.1C255.47,-362.7 193.46,-348.29 141.61,-329.25 140.99,-329.02 140.36,-328.78 139.72,-328.53"/>
<polygon fill="#63b8ff" stroke="#63b8ff" points="141.47,-325.48 130.91,-324.66 138.66,-331.89 141.47,-325.48"/>
</a>
</g>
</g>
<!-- Node20 -->
<g id="Node000020" class="node">
<title>Node20</title>
<g id="a_Node000020"><a xlink:title=" ">
<polygon fill="#e0e0e0" stroke="#999999" points="242.49,-323.62 150.74,-323.62 150.74,-304.38 242.49,-304.38 242.49,-323.62"/>
<text text-anchor="middle" x="196.61" y="-310.12" font-family="Helvetica,sans-Serif" font-size="10.00">yaclib_std/atomic</text>
</a>
</g>
</g>
<!-- Node2&#45;&gt;Node20 -->
<g id="edge28_Node000002_Node000020" class="edge">
<title>Node2&#45;&gt;Node20</title>
<g id="a_edge28_Node000002_Node000020"><a xlink:title=" ">
<path fill="none" stroke="#63b8ff" d="M307.94,-364.86C283.61,-353.97 250.65,-339.21 226.92,-328.58"/>
<polygon fill="#63b8ff" stroke="#63b8ff" points="228.66,-325.52 218.11,-324.63 225.8,-331.91 228.66,-325.52"/>
</a>
</g>
</g>
<!-- Node3&#45;&gt;Node4 -->
<g id="edge3_Node000003_Node000004" class="edge">
<title>Node3&#45;&gt;Node4</title>
<g id="a_edge3_Node000003_Node000004"><a xlink:title=" ">
<path fill="none" stroke="#63b8ff" d="M314,-298.45C319.01,-290.69 325.23,-281.06 330.58,-272.76"/>
<polygon fill="#63b8ff" stroke="#63b8ff" points="333.45,-274.77 335.93,-264.47 327.57,-270.98 333.45,-274.77"/>
</a>
</g>
</g>
<!-- Node5 -->
<g id="Node000005" class="node">
<title>Node5</title>
<g id="a_Node000005"><a xlink:href="job_8hpp.html" target="_top" xlink:title=" ">
<polygon fill="white" stroke="#666666" points="385.86,-201.88 293.36,-201.88 293.36,-182.62 385.86,-182.62 385.86,-201.88"/>
<text text-anchor="middle" x="339.61" y="-188.38" font-family="Helvetica,sans-Serif" font-size="10.00">yaclib/exe/job.hpp</text>
</a>
</g>
</g>
<!-- Node3&#45;&gt;Node5 -->
<g id="edge4_Node000003_Node000005" class="edge">
<title>Node3&#45;&gt;Node5</title>
<g id="a_edge4_Node000003_Node000005"><a xlink:title=" ">
<path fill="none" stroke="#63b8ff" d="M296.56,-298.44C289.72,-284.06 282.12,-261.64 289.61,-243.5 295.28,-229.77 306.71,-217.82 317.21,-209.03"/>
<polygon fill="#63b8ff" stroke="#63b8ff" points="319.11,-211.98 324.84,-203.07 314.81,-206.46 319.11,-211.98"/>
</a>
</g>
</g>
<!-- Node3&#45;&gt;Node6 -->
<g id="edge12_Node000003_Node000006" class="edge">
<title>Node3&#45;&gt;Node6</title>
<g id="a_edge12_Node000003_Node000006"><a xlink:title=" ">
<path fill="none" stroke="#63b8ff" d="M297.04,-298.42C292.23,-288.59 286.25,-275.18 282.61,-262.75 264.19,-199.75 256.05,-122.01 253.07,-85.97"/>
<polygon fill="#63b8ff" stroke="#63b8ff" points="256.57,-85.89 252.31,-76.19 249.59,-86.43 256.57,-85.89"/>
</a>
</g>
</g>
<!-- Node5&#45;&gt;Node6 -->
<g id="edge5_Node000005_Node000006" class="edge">
<title>Node5&#45;&gt;Node6</title>
<g id="a_edge5_Node000005_Node000006"><a xlink:title=" ">
<path fill="none" stroke="#63b8ff" d="M329.06,-182.44C318.21,-172.99 301.29,-157.16 289.61,-141 276.93,-123.44 266.19,-101.03 259.4,-85.27"/>
<polygon fill="#63b8ff" stroke="#63b8ff" points="262.66,-84 255.59,-76.11 256.2,-86.69 262.66,-84"/>
</a>
</g>
</g>
<!-- Node8 -->
<g id="Node000008" class="node">
<title>Node8</title>
<g id="a_Node000008"><a xlink:href="node_8hpp.html" target="_top" xlink:title=" ">
<polygon fill="white" stroke="#666666" points="380.99,-141 298.24,-141 298.24,-110.5 380.99,-110.5 380.99,-141"/>
<text text-anchor="start" x="306.24" y="-127.5" font-family="Helvetica,sans-Serif" font-size="10.00">yaclib/util/detail</text>
<text text-anchor="middle" x="339.61" y="-116.25" font-family="Helvetica,sans-Serif" font-size="10.00">/node.hpp</text>
</a>
</g>
</g>
<!-- Node5&#45;&gt;Node8 -->
<g id="edge7_Node000005_Node000008" class="edge">
<title>Node5&#45;&gt;Node8</title>
<g id="a_edge7_Node000005_Node000008"><a xlink:title=" ">
<path fill="none" stroke="#63b8ff" d="M339.61,-182.28C339.61,-174.54 339.61,-162.95 339.61,-152.37"/>
<polygon fill="#63b8ff" stroke="#63b8ff" points="343.11,-152.61 339.61,-142.61 336.11,-152.61 343.11,-152.61"/>
</a>
</g>
</g>
<!-- Node9 -->
<g id="Node000009" class="node">
<title>Node9</title>
<g id="a_Node000009"><a xlink:href="func_8hpp.html" target="_top" xlink:title=" ">
<polygon fill="white" stroke="#666666" points="702.74,-135.38 606.49,-135.38 606.49,-116.12 702.74,-116.12 702.74,-135.38"/>
<text text-anchor="middle" x="654.61" y="-121.88" font-family="Helvetica,sans-Serif" font-size="10.00">yaclib/util/func.hpp</text>
</a>
</g>
</g>
<!-- Node5&#45;&gt;Node9 -->
<g id="edge8_Node000005_Node000009" class="edge">
<title>Node5&#45;&gt;Node9</title>
<g id="a_edge8_Node000005_Node000009"><a xlink:title=" ">
<path fill="none" stroke="#63b8ff" d="M384.08,-182.15C440.51,-170.59 537.88,-150.65 599.12,-138.11"/>
<polygon fill="#63b8ff" stroke="#63b8ff" points="599.54,-141.6 608.64,-136.16 598.14,-134.74 599.54,-141.6"/>
</a>
</g>
</g>
<!-- Node7 -->
<g id="Node000007" class="node">
<title>Node7</title>
<g id="a_Node000007"><a xlink:title=" ">
<polygon fill="#e0e0e0" stroke="#999999" points="284.36,-19.25 218.86,-19.25 218.86,0 284.36,0 284.36,-19.25"/>
<text text-anchor="middle" x="251.61" y="-5.75" font-family="Helvetica,sans-Serif" font-size="10.00">string_view</text>
</a>
</g>
</g>
<!-- Node6&#45;&gt;Node7 -->
<g id="edge6_Node000006_Node000007" class="edge">
<title>Node6&#45;&gt;Node7</title>
<g id="a_edge6_Node000006_Node000007"><a xlink:title=" ">
<path fill="none" stroke="#63b8ff" d="M251.61,-55.08C251.61,-48.57 251.61,-39.42 251.61,-31.12"/>
<polygon fill="#63b8ff" stroke="#63b8ff" points="255.11,-31.12 251.61,-21.12 248.11,-31.12 255.11,-31.12"/>
</a>
</g>
</g>
<!-- Node9&#45;&gt;Node10 -->
<g id="edge9_Node000009_Node000010" class="edge">
<title>Node9&#45;&gt;Node10</title>
<g id="a_edge9_Node000009_Node000010"><a xlink:title=" ">
<path fill="none" stroke="#63b8ff" d="M643.07,-115.81C631.46,-106.82 613.32,-92.76 599.24,-81.85"/>
<polygon fill="#63b8ff" stroke="#63b8ff" points="601.51,-79.19 591.46,-75.83 597.22,-84.72 601.51,-79.19"/>
</a>
</g>
</g>
<!-- Node11 -->
<g id="Node000011" class="node">
<title>Node11</title>
<g id="a_Node000011"><a xlink:title=" ">
<polygon fill="#e0e0e0" stroke="#999999" points="938.11,-74.5 877.11,-74.5 877.11,-55.25 938.11,-55.25 938.11,-74.5"/>
<text text-anchor="middle" x="907.61" y="-61" font-family="Helvetica,sans-Serif" font-size="10.00">type_traits</text>
</a>
</g>
</g>
<!-- Node9&#45;&gt;Node11 -->
<g id="edge10_Node000009_Node000011" class="edge">
<title>Node9&#45;&gt;Node11</title>
<g id="a_edge10_Node000009_Node000011"><a xlink:title=" ">
<path fill="none" stroke="#63b8ff" d="M693.59,-115.68C740.2,-104.83 817.91,-86.75 865.76,-75.62"/>
<polygon fill="#63b8ff" stroke="#63b8ff" points="866.53,-79.03 875.47,-73.35 864.94,-72.21 866.53,-79.03"/>
</a>
</g>
</g>
<!-- Node9&#45;&gt;Node12 -->
<g id="edge11_Node000009_Node000012" class="edge">
<title>Node9&#45;&gt;Node12</title>
<g id="a_edge11_Node000009_Node000012"><a xlink:title=" ">
<path fill="none" stroke="#63b8ff" d="M675.1,-115.68C697.19,-105.9 732.56,-90.24 757.75,-79.1"/>
<polygon fill="#63b8ff" stroke="#63b8ff" points="759.07,-82.34 766.8,-75.09 756.24,-75.94 759.07,-82.34"/>
</a>
</g>
</g>
<!-- Node13&#45;&gt;Node5 -->
<g id="edge15_Node000013_Node000005" class="edge">
<title>Node13&#45;&gt;Node5</title>
<g id="a_edge15_Node000013_Node000005"><a xlink:title=" ">
<path fill="none" stroke="#63b8ff" d="M488.5,-243.05C458.78,-233.11 410.9,-217.1 377.49,-205.92"/>
<polygon fill="#63b8ff" stroke="#63b8ff" points="378.79,-202.66 368.19,-202.81 376.57,-209.3 378.79,-202.66"/>
</a>
</g>
</g>
<!-- Node13&#45;&gt;Node14 -->
<g id="edge16_Node000013_Node000014" class="edge">
<title>Node13&#45;&gt;Node14</title>
<g id="a_edge16_Node000013_Node000014"><a xlink:title=" ">
<path fill="none" stroke="#63b8ff" d="M525.18,-243.18C533.03,-235.84 544.49,-225.13 554.79,-215.51"/>
<polygon fill="#63b8ff" stroke="#63b8ff" points="557.04,-218.2 561.96,-208.82 552.26,-213.09 557.04,-218.2"/>
</a>
</g>
</g>
<!-- Node14&#45;&gt;Node10 -->
<g id="edge17_Node000014_Node000010" class="edge">
<title>Node14&#45;&gt;Node10</title>
<g id="a_edge17_Node000014_Node000010"><a xlink:title=" ">
<path fill="none" stroke="#63b8ff" d="M578.61,-176.87C578.61,-154.53 578.61,-111.42 578.61,-86"/>
<polygon fill="#63b8ff" stroke="#63b8ff" points="582.11,-86.33 578.61,-76.33 575.11,-86.33 582.11,-86.33"/>
</a>
</g>
</g>
<!-- Node14&#45;&gt;Node11 -->
<g id="edge18_Node000014_Node000011" class="edge">
<title>Node14&#45;&gt;Node11</title>
<g id="a_edge18_Node000014_Node000011"><a xlink:title=" ">
<path fill="none" stroke="#63b8ff" d="M617.62,-176.57C644.14,-166.57 680.01,-153.03 711.61,-141 768.46,-119.37 834.5,-94.01 873.58,-78.98"/>
<polygon fill="#63b8ff" stroke="#63b8ff" points="874.6,-82.33 882.68,-75.47 872.09,-75.8 874.6,-82.33"/>
</a>
</g>
</g>
<!-- Node15 -->
<g id="Node000015" class="node">
<title>Node15</title>
<g id="a_Node000015"><a xlink:href="intrusive__ptr__impl_8hpp.html" target="_top" xlink:title=" ">
<polygon fill="white" stroke="#666666" points="550.36,-141 436.86,-141 436.86,-110.5 550.36,-110.5 550.36,-141"/>
<text text-anchor="start" x="444.86" y="-127.5" font-family="Helvetica,sans-Serif" font-size="10.00">yaclib/util/detail</text>
<text text-anchor="middle" x="493.61" y="-116.25" font-family="Helvetica,sans-Serif" font-size="10.00">/intrusive_ptr_impl.hpp</text>
</a>
</g>
</g>
<!-- Node14&#45;&gt;Node15 -->
<g id="edge19_Node000014_Node000015" class="edge">
<title>Node14&#45;&gt;Node15</title>
<g id="a_edge19_Node000014_Node000015"><a xlink:title=" ">
<path fill="none" stroke="#63b8ff" d="M559.32,-176.61C548.24,-168.2 534.11,-157.48 521.8,-148.14"/>
<polygon fill="#63b8ff" stroke="#63b8ff" points="524.11,-145.5 514.03,-142.24 519.88,-151.08 524.11,-145.5"/>
</a>
</g>
</g>
<!-- Node15&#45;&gt;Node6 -->
<g id="edge20_Node000015_Node000006" class="edge">
<title>Node15&#45;&gt;Node6</title>
<g id="a_edge20_Node000015_Node000006"><a xlink:title=" ">
<path fill="none" stroke="#63b8ff" d="M436.57,-110.87C395.11,-100.78 339.58,-87.28 300.22,-77.7"/>
<polygon fill="#63b8ff" stroke="#63b8ff" points="301.08,-74.31 290.54,-75.35 299.43,-81.11 301.08,-74.31"/>
</a>
</g>
</g>
<!-- Node16&#45;&gt;Node13 -->
<g id="edge22_Node000016_Node000013" class="edge">
<title>Node16&#45;&gt;Node13</title>
<g id="a_edge22_Node000016_Node000013"><a xlink:title=" ">
<path fill="none" stroke="#63b8ff" d="M529.18,-304.06C527.02,-296.1 523.78,-284.19 521.01,-273.99"/>
<polygon fill="#63b8ff" stroke="#63b8ff" points="524.46,-273.34 518.46,-264.61 517.71,-275.18 524.46,-273.34"/>
</a>
</g>
</g>
<!-- Node17 -->
<g id="Node000017" class="node">
<title>Node17</title>
<g id="a_Node000017"><a xlink:href="fwd_8hpp.html" target="_top" xlink:title=" ">
<polygon fill="white" stroke="#666666" points="1178.36,-74.5 1100.86,-74.5 1100.86,-55.25 1178.36,-55.25 1178.36,-74.5"/>
<text text-anchor="middle" x="1139.61" y="-61" font-family="Helvetica,sans-Serif" font-size="10.00">yaclib/fwd.hpp</text>
</a>
</g>
</g>
<!-- Node16&#45;&gt;Node17 -->
<g id="edge23_Node000016_Node000017" class="edge">
<title>Node16&#45;&gt;Node17</title>
<g id="a_edge23_Node000016_Node000017"><a xlink:title=" ">
<path fill="none" stroke="#63b8ff" d="M582.8,-309.38C706.7,-299.7 1018.5,-269.64 1099.61,-207.5 1127.74,-185.95 1133.4,-174.94 1143.61,-141 1149.02,-123.02 1147.09,-101.55 1144.36,-86.17"/>
<polygon fill="#63b8ff" stroke="#63b8ff" points="1147.79,-85.46 1142.33,-76.38 1140.94,-86.88 1147.79,-85.46"/>
</a>
</g>
</g>
<!-- Node21&#45;&gt;Node12 -->
<g id="edge41_Node000021_Node000012" class="edge">
<title>Node21&#45;&gt;Node12</title>
<g id="a_edge41_Node000021_Node000012"><a xlink:title=" ">
<path fill="none" stroke="#63b8ff" d="M869.46,-243.14C856.24,-214.5 814.87,-124.9 796.52,-85.17"/>
<polygon fill="#63b8ff" stroke="#63b8ff" points="799.72,-83.75 792.35,-76.14 793.37,-86.69 799.72,-83.75"/>
</a>
</g>
</g>
<!-- Node21&#45;&gt;Node17 -->
<g id="edge31_Node000021_Node000017" class="edge">
<title>Node21&#45;&gt;Node17</title>
<g id="a_edge31_Node000021_Node000017"><a xlink:title=" ">
<path fill="none" stroke="#63b8ff" d="M924.64,-249.04C965.75,-244.6 1023.74,-233.79 1067.61,-207.5 1101.25,-187.34 1108.53,-176.3 1125.61,-141 1134.01,-123.65 1137.38,-101.79 1138.73,-86.13"/>
<polygon fill="#63b8ff" stroke="#63b8ff" points="1142.22,-86.38 1139.36,-76.18 1135.24,-85.94 1142.22,-86.38"/>
</a>
</g>
</g>
<!-- Node22 -->
<g id="Node000022" class="node">
<title>Node22</title>
<g id="a_Node000022"><a xlink:href="type__traits_8hpp.html" target="_top" xlink:title=" ">
<polygon fill="white" stroke="#666666" points="1058.86,-201.88 936.36,-201.88 936.36,-182.62 1058.86,-182.62 1058.86,-201.88"/>
<text text-anchor="middle" x="997.61" y="-188.38" font-family="Helvetica,sans-Serif" font-size="10.00">yaclib/util/type_traits.hpp</text>
</a>
</g>
</g>
<!-- Node21&#45;&gt;Node22 -->
<g id="edge32_Node000021_Node000022" class="edge">
<title>Node21&#45;&gt;Node22</title>
<g id="a_edge32_Node000021_Node000022"><a xlink:title=" ">
<path fill="none" stroke="#63b8ff" d="M892.71,-243.05C912.89,-233.48 944.95,-218.25 968.32,-207.16"/>
<polygon fill="#63b8ff" stroke="#63b8ff" points="969.79,-210.33 977.32,-202.88 966.79,-204.01 969.79,-210.33"/>
</a>
</g>
</g>
<!-- Node24 -->
<g id="Node000024" class="node">
<title>Node24</title>
<g id="a_Node000024"><a xlink:title=" ">
<polygon fill="#e0e0e0" stroke="#999999" points="892.24,-135.38 834.99,-135.38 834.99,-116.12 892.24,-116.12 892.24,-135.38"/>
<text text-anchor="middle" x="863.61" y="-121.88" font-family="Helvetica,sans-Serif" font-size="10.00">exception</text>
</a>
</g>
</g>
<!-- Node21&#45;&gt;Node24 -->
<g id="edge40_Node000021_Node000024" class="edge">
<title>Node21&#45;&gt;Node24</title>
<g id="a_edge40_Node000021_Node000024"><a xlink:title=" ">
<path fill="none" stroke="#63b8ff" d="M871.04,-243.33C868.57,-234.4 865.01,-220.13 863.61,-207.5 861.35,-187.05 861.68,-163.51 862.38,-147.14"/>
<polygon fill="#63b8ff" stroke="#63b8ff" points="865.87,-147.43 862.89,-137.26 858.87,-147.06 865.87,-147.43"/>
</a>
</g>
</g>
<!-- Node25 -->
<g id="Node000025" class="node">
<title>Node25</title>
<g id="a_Node000025"><a xlink:title=" ">
<polygon fill="#e0e0e0" stroke="#999999" points="918.24,-201.88 872.99,-201.88 872.99,-182.62 918.24,-182.62 918.24,-201.88"/>
<text text-anchor="middle" x="895.61" y="-188.38" font-family="Helvetica,sans-Serif" font-size="10.00">variant</text>
</a>
</g>
</g>
<!-- Node21&#45;&gt;Node25 -->
<g id="edge42_Node000021_Node000025" class="edge">
<title>Node21&#45;&gt;Node25</title>
<g id="a_edge42_Node000021_Node000025"><a xlink:title=" ">
<path fill="none" stroke="#63b8ff" d="M876.95,-243.18C879.96,-235.14 884.47,-223.05 888.31,-212.78"/>
<polygon fill="#63b8ff" stroke="#63b8ff" points="891.49,-214.29 891.71,-203.69 884.93,-211.84 891.49,-214.29"/>
</a>
</g>
</g>
<!-- Node22&#45;&gt;Node11 -->
<g id="edge38_Node000022_Node000011" class="edge">
<title>Node22&#45;&gt;Node11</title>
<g id="a_edge38_Node000022_Node000011"><a xlink:title=" ">
<path fill="none" stroke="#63b8ff" d="M991.14,-182.23C976.41,-161.72 940.18,-111.24 920.62,-84"/>
<polygon fill="#63b8ff" stroke="#63b8ff" points="923.58,-82.12 914.91,-76.04 917.9,-86.2 923.58,-82.12"/>
</a>
</g>
</g>
<!-- Node22&#45;&gt;Node12 -->
<g id="edge39_Node000022_Node000012" class="edge">
<title>Node22&#45;&gt;Node12</title>
<g id="a_edge39_Node000022_Node000012"><a xlink:title=" ">
<path fill="none" stroke="#63b8ff" d="M987.23,-182.36C963.38,-161.96 906.34,-113.31 901.61,-110.5 874.92,-94.64 841.57,-82.35 817.85,-74.72"/>
<polygon fill="#63b8ff" stroke="#63b8ff" points="819.08,-71.44 808.49,-71.8 817,-78.12 819.08,-71.44"/>
</a>
</g>
</g>
<!-- Node22&#45;&gt;Node17 -->
<g id="edge33_Node000022_Node000017" class="edge">
<title>Node22&#45;&gt;Node17</title>
<g id="a_edge33_Node000022_Node000017"><a xlink:title=" ">
<path fill="none" stroke="#63b8ff" d="M1028.55,-182.26C1051.1,-174.42 1081.15,-161.09 1101.61,-141 1117.39,-125.51 1127.79,-102.09 1133.66,-85.53"/>
<polygon fill="#63b8ff" stroke="#63b8ff" points="1136.89,-86.92 1136.67,-76.32 1130.23,-84.74 1136.89,-86.92"/>
</a>
</g>
</g>
<!-- Node23 -->
<g id="Node000023" class="node">
<title>Node23</title>
<g id="a_Node000023"><a xlink:href="type__traits__impl_8hpp.html" target="_top" xlink:title=" ">
<polygon fill="white" stroke="#666666" points="1092.24,-141 986.99,-141 986.99,-110.5 1092.24,-110.5 1092.24,-141"/>
<text text-anchor="start" x="994.99" y="-127.5" font-family="Helvetica,sans-Serif" font-size="10.00">yaclib/util/detail</text>
<text text-anchor="middle" x="1039.61" y="-116.25" font-family="Helvetica,sans-Serif" font-size="10.00">/type_traits_impl.hpp</text>
</a>
</g>
</g>
<!-- Node22&#45;&gt;Node23 -->
<g id="edge34_Node000022_Node000023" class="edge">
<title>Node22&#45;&gt;Node23</title>
<g id="a_edge34_Node000022_Node000023"><a xlink:title=" ">
<path fill="none" stroke="#63b8ff" d="M1003.45,-182.28C1008.77,-174.12 1016.86,-161.7 1024.04,-150.67"/>
<polygon fill="#63b8ff" stroke="#63b8ff" points="1026.92,-152.65 1029.44,-142.36 1021.06,-148.83 1026.92,-152.65"/>
</a>
</g>
</g>
<!-- Node22&#45;&gt;Node24 -->
<g id="edge37_Node000022_Node000024" class="edge">
<title>Node22&#45;&gt;Node24</title>
<g id="a_edge37_Node000022_Node000024"><a xlink:title=" ">
<path fill="none" stroke="#63b8ff" d="M978.7,-182.15C956.25,-171.34 918.59,-153.21 892.49,-140.65"/>
<polygon fill="#63b8ff" stroke="#63b8ff" points="894.32,-137.65 883.79,-136.46 891.29,-143.96 894.32,-137.65"/>
</a>
</g>
</g>
<!-- Node23&#45;&gt;Node11 -->
<g id="edge36_Node000023_Node000011" class="edge">
<title>Node23&#45;&gt;Node11</title>
<g id="a_edge36_Node000023_Node000011"><a xlink:title=" ">
<path fill="none" stroke="#63b8ff" d="M1006.64,-110.05C985.67,-100.69 958.7,-88.66 938.21,-79.52"/>
<polygon fill="#63b8ff" stroke="#63b8ff" points="939.8,-76.4 929.24,-75.52 936.94,-82.79 939.8,-76.4"/>
</a>
</g>
</g>
<!-- Node23&#45;&gt;Node17 -->
<g id="edge35_Node000023_Node000017" class="edge">
<title>Node23&#45;&gt;Node17</title>
<g id="a_edge35_Node000023_Node000017"><a xlink:title=" ">
<path fill="none" stroke="#63b8ff" d="M1064.59,-110.05C1079.82,-101.08 1099.22,-89.66 1114.48,-80.67"/>
<polygon fill="#63b8ff" stroke="#63b8ff" points="1116.13,-83.76 1122.97,-75.67 1112.58,-77.73 1116.13,-83.76"/>
</a>
</g>
</g>
</g>
</svg>

<g id="navigator" transform="translate(0 0)" fill="#404254">
  <rect fill="#f2f5e9" fill-opacity="0.5" stroke="#606060" stroke-width=".5" x="0" y="0" width="60" height="60"/>
  <use id="zoomplus" xlink:href="#zoomPlus" x="17" y="9" onmousedown="handleZoom(evt,'in')"/>
  <use id="zoomminus" xlink:href="#zoomMin" x="42" y="9" onmousedown="handleZoom(evt,'out')"/>
  <use id="reset" xlink:href="#resetDef" x="30" y="36" onmousedown="handleReset()"/>
   <use id="arrowup" xlink:href="#arrowUp" x="0" y="0" onmousedown="handlePan(0,-1)"/>
  <use id="arrowright" xlink:href="#arrowRight" x="0" y="0" onmousedown="handlePan(1,0)"/>
  <use id="arrowdown" xlink:href="#arrowDown" x="0" y="0" onmousedown="handlePan(0,1)"/>
  <use id="arrowleft" xlink:href="#arrowLeft" x="0" y="0" onmousedown="handlePan(-1,0)"/>
</g>
<svg viewBox="0 0 15 15" width="100%" height="30px" preserveAspectRatio="xMaxYMin meet">
 <g id="arrow_out" transform="scale(0.3 0.3)">
  <a xlink:href="result__core_8hpp__incl_org.svg" target="_base">
   <rect id="button" ry="5" rx="5" y="6" x="6" height="38" width="38"
        fill="#f2f5e9" fill-opacity="0.5" stroke="#606060" stroke-width="1.0"/>
   <path id="arrow"
     d="M 11.500037,31.436501 C 11.940474,20.09759 22.043105,11.32322 32.158766,21.979434 L 37.068811,17.246167 C 37.068811,17.246167 37.088388,32 37.088388,32 L 22.160133,31.978069 C 22.160133,31.978069 26.997745,27.140456 26.997745,27.140456 C 18.528582,18.264221 13.291696,25.230495 11.500037,31.436501 z"
     style="fill:#404040;"/>
  </a>
 </g>
</svg>

<style type='text/css'>
<![CDATA[
[data-mouse-over-selected='false'] { opacity: 0.7; }
[data-mouse-over-selected='true']  { opacity: 1.0; }
]]>
</style>
<script type="application/ecmascript"><![CDATA[
document.addEventListener('DOMContentLoaded', (event) => {
  highlightEdges();
  highlightAdjacentNodes();
});
]]></script>
</svg>
