<?xml version="1.0" encoding="UTF-8" standalone="no"?>
<!DOCTYPE svg PUBLIC "-//W3C//DTD SVG 1.1//EN"
 "http://www.w3.org/Graphics/SVG/1.1/DTD/svg11.dtd">
<!-- Generated by graphviz version 3.0.0 (20221109.1736)
 -->
<!-- Title: src/algo/result_core.cpp Pages: 1 -->
<!--zoomable 598 -->
<svg id="main" version="1.1" xmlns="http://www.w3.org/2000/svg" xmlns:xlink="http://www.w3.org/1999/xlink" xml:space="preserve" onload="init(evt)">
<style type="text/css"><![CDATA[
.edge:hover path { stroke: red; }
.edge:hover polygon { stroke: red; fill: red; }
]]></style>
<script type="text/javascript"><![CDATA[
var edges = document.getElementsByTagName('g');
if (edges && edges.length) {
  for (var i=0;i<edges.length;i++) {
    if (edges[i].id.substr(0,4)=='edge') {
      edges[i].setAttribute('class','edge');
    }
  }
}
]]></script>
        <defs>
                <circle id="rim" cx="0" cy="0" r="7"/>
                <circle id="rim2" cx="0" cy="0" r="3.5"/>
                <g id="zoomPlus">
                        <use xlink:href="#rim" fill="#404040">
                                <set attributeName="fill" to="#808080" begin="zoomplus.mouseover" end="zoomplus.mouseout"/>
                        </use>
                        <path d="M-4,0h8M0,-4v8" fill="none" stroke="white" stroke-width="1.5" pointer-events="none"/>
                </g>
                <g id="zoomMin">
                        <use xlink:href="#rim" fill="#404040">
                                <set attributeName="fill" to="#808080" begin="zoomminus.mouseover" end="zoomminus.mouseout"/>
                        </use>
                        <path d="M-4,0h8" fill="none" stroke="white" stroke-width="1.5" pointer-events="none"/>
                </g>
                <g id="dirArrow">
                        <path fill="none" stroke="white" stroke-width="1.5" d="M0,-3.0v7 M-2.5,-0.5L0,-3.0L2.5,-0.5"/>
                </g>
               <g id="resetDef">
                       <use xlink:href="#rim2" fill="#404040">
                               <set attributeName="fill" to="#808080" begin="reset.mouseover" end="reset.mouseout"/>
                       </use>
               </g>
        </defs>

<script type="text/javascript">
var viewWidth = 1273;
var viewHeight = 598;
var sectionId = 'dynsection-0';
</script>
<script xlink:href="svgpan.js"/>
<svg id="graph" class="graph">
<g id="viewport">
<title>src/algo/result_core.cpp</title>
<!-- Node1 -->
<g id="node1" class="node">
<title>Node1</title>
<g id="a_node1"><a xlink:title=" ">
<polygon fill="#bfbfbf" stroke="black" points="804.5,-570.5 804.5,-589.5 924.5,-589.5 924.5,-570.5 804.5,-570.5"/>
<text text-anchor="middle" x="864.5" y="-577.5" font-family="Helvetica,sans-Serif" font-size="10.00">src/algo/result_core.cpp</text>
</a>
</g>
</g>
<!-- Node2 -->
<g id="node2" class="node">
<title>Node2</title>
<g id="a_node2"><a xlink:href="core_8hpp.html" target="_top" xlink:title=" ">
<polygon fill="none" stroke="black" points="912,-503.5 912,-533.5 1001,-533.5 1001,-503.5 912,-503.5"/>
<text text-anchor="start" x="920" y="-521.5" font-family="Helvetica,sans-Serif" font-size="10.00">yaclib/algo/detail</text>
<text text-anchor="middle" x="956.5" y="-510.5" font-family="Helvetica,sans-Serif" font-size="10.00">/core.hpp</text>
</a>
</g>
</g>
<!-- Node1&#45;&gt;Node2 -->
<g id="edge1" class="edge">
<title>Node1&#45;&gt;Node2</title>
<path fill="none" stroke="midnightblue" d="M877.68,-570.48C890.26,-562.34 909.66,-549.79 926.07,-539.18"/>
<polygon fill="midnightblue" stroke="midnightblue" points="928.32,-541.89 934.82,-533.52 924.52,-536.01 928.32,-541.89"/>
</g>
<!-- Node8 -->
<g id="node8" class="node">
<title>Node8</title>
<g id="a_node8"><a xlink:href="result__core_8hpp.html" target="_top" xlink:title=" ">
<polygon fill="none" stroke="black" points="691,-436.5 691,-466.5 780,-466.5 780,-436.5 691,-436.5"/>
<text text-anchor="start" x="699" y="-454.5" font-family="Helvetica,sans-Serif" font-size="10.00">yaclib/algo/detail</text>
<text text-anchor="middle" x="735.5" y="-443.5" font-family="Helvetica,sans-Serif" font-size="10.00">/result_core.hpp</text>
</a>
</g>
</g>
<!-- Node1&#45;&gt;Node8 -->
<g id="edge64" class="edge">
<title>Node1&#45;&gt;Node8</title>
<path fill="none" stroke="midnightblue" d="M855.63,-570.31C835.57,-550.63 786.19,-502.21 757.37,-473.95"/>
<polygon fill="midnightblue" stroke="midnightblue" points="759.76,-471.39 750.17,-466.89 754.86,-476.39 759.76,-471.39"/>
</g>
<!-- Node3 -->
<g id="node3" class="node">
<title>Node3</title>
<g id="a_node3"><a xlink:href="func__core_8hpp.html" target="_top" xlink:title=" ">
<polygon fill="none" stroke="black" points="912,-302.5 912,-332.5 1001,-332.5 1001,-302.5 912,-302.5"/>
<text text-anchor="start" x="920" y="-320.5" font-family="Helvetica,sans-Serif" font-size="10.00">yaclib/algo/detail</text>
<text text-anchor="middle" x="956.5" y="-309.5" font-family="Helvetica,sans-Serif" font-size="10.00">/func_core.hpp</text>
</a>
</g>
</g>
<!-- Node2&#45;&gt;Node3 -->
<g id="edge2" class="edge">
<title>Node2&#45;&gt;Node3</title>
<path fill="none" stroke="midnightblue" d="M956.5,-503.19C956.5,-469.48 956.5,-384.8 956.5,-342.84"/>
<polygon fill="midnightblue" stroke="midnightblue" points="960,-342.68 956.5,-332.68 953,-342.68 960,-342.68"/>
</g>
<!-- Node4 -->
<g id="node4" class="node">
<title>Node4</title>
<g id="a_node4"><a xlink:title=" ">
<polygon fill="none" stroke="#bfbfbf" points="807.5,-246.5 807.5,-265.5 895.5,-265.5 895.5,-246.5 807.5,-246.5"/>
<text text-anchor="middle" x="851.5" y="-253.5" font-family="Helvetica,sans-Serif" font-size="10.00">yaclib/config.hpp</text>
</a>
</g>
</g>
<!-- Node2&#45;&gt;Node4 -->
<g id="edge51" class="edge">
<title>Node2&#45;&gt;Node4</title>
<path fill="none" stroke="midnightblue" d="M948.61,-503.07C932.15,-472.5 893.76,-398.62 870.5,-333 863.7,-313.81 858.36,-291.08 855.09,-275.51"/>
<polygon fill="midnightblue" stroke="midnightblue" points="858.5,-274.7 853.09,-265.59 851.64,-276.09 858.5,-274.7"/>
</g>
<!-- Node2&#45;&gt;Node8 -->
<g id="edge7" class="edge">
<title>Node2&#45;&gt;Node8</title>
<path fill="none" stroke="midnightblue" d="M911.78,-504.35C876.58,-493.99 827.38,-479.52 789.9,-468.5"/>
<polygon fill="midnightblue" stroke="midnightblue" points="790.74,-465.1 780.16,-465.63 788.76,-471.81 790.74,-465.1"/>
</g>
<!-- Node29 -->
<g id="node29" class="node">
<title>Node29</title>
<g id="a_node29"><a xlink:href="atomic__counter_8hpp.html" target="_top" xlink:title=" ">
<polygon fill="none" stroke="black" points="1030.5,-369.5 1030.5,-399.5 1134.5,-399.5 1134.5,-369.5 1030.5,-369.5"/>
<text text-anchor="start" x="1038.5" y="-387.5" font-family="Helvetica,sans-Serif" font-size="10.00">yaclib/util/detail</text>
<text text-anchor="middle" x="1082.5" y="-376.5" font-family="Helvetica,sans-Serif" font-size="10.00">/atomic_counter.hpp</text>
</a>
</g>
</g>
<!-- Node2&#45;&gt;Node29 -->
<g id="edge52" class="edge">
<title>Node2&#45;&gt;Node29</title>
<path fill="none" stroke="midnightblue" d="M965.4,-503.34C976.46,-486.34 996.45,-457.44 1017.5,-436 1028.3,-425.01 1041.53,-414.31 1053.23,-405.62"/>
<polygon fill="midnightblue" stroke="midnightblue" points="1055.39,-408.38 1061.43,-399.67 1051.28,-402.71 1055.39,-408.38"/>
</g>
<!-- Node32 -->
<g id="node32" class="node">
<title>Node32</title>
<g id="a_node32"><a xlink:href="unique__counter_8hpp.html" target="_top" xlink:title=" ">
<polygon fill="none" stroke="black" points="1152.5,-369.5 1152.5,-399.5 1256.5,-399.5 1256.5,-369.5 1152.5,-369.5"/>
<text text-anchor="start" x="1160.5" y="-387.5" font-family="Helvetica,sans-Serif" font-size="10.00">yaclib/util/detail</text>
<text text-anchor="middle" x="1204.5" y="-376.5" font-family="Helvetica,sans-Serif" font-size="10.00">/unique_counter.hpp</text>
</a>
</g>
</g>
<!-- Node2&#45;&gt;Node32 -->
<g id="edge58" class="edge">
<title>Node2&#45;&gt;Node32</title>
<path fill="none" stroke="midnightblue" d="M1001.1,-513.04C1040.27,-507.39 1097.41,-494.78 1139.5,-467 1162.11,-452.07 1180.51,-426.73 1191.88,-408.26"/>
<polygon fill="midnightblue" stroke="midnightblue" points="1194.95,-409.96 1197.03,-399.57 1188.92,-406.39 1194.95,-409.96"/>
</g>
<!-- Node33 -->
<g id="node33" class="node">
<title>Node33</title>
<g id="a_node33"><a xlink:href="helper_8hpp.html" target="_top" xlink:title=" ">
<polygon fill="none" stroke="black" points="1026.5,-442 1026.5,-461 1130.5,-461 1130.5,-442 1026.5,-442"/>
<text text-anchor="middle" x="1078.5" y="-449" font-family="Helvetica,sans-Serif" font-size="10.00">yaclib/util/helper.hpp</text>
</a>
</g>
</g>
<!-- Node2&#45;&gt;Node33 -->
<g id="edge60" class="edge">
<title>Node2&#45;&gt;Node33</title>
<path fill="none" stroke="midnightblue" d="M982.97,-503.4C1003.9,-492.24 1032.93,-476.78 1053.47,-465.83"/>
<polygon fill="midnightblue" stroke="midnightblue" points="1055.35,-468.8 1062.53,-461.01 1052.06,-462.62 1055.35,-468.8"/>
</g>
<!-- Node3&#45;&gt;Node4 -->
<g id="edge3" class="edge">
<title>Node3&#45;&gt;Node4</title>
<path fill="none" stroke="midnightblue" d="M931.62,-302.4C914.79,-292.86 892.66,-280.32 875.93,-270.84"/>
<polygon fill="midnightblue" stroke="midnightblue" points="877.2,-267.54 866.78,-265.66 873.75,-273.63 877.2,-267.54"/>
</g>
<!-- Node5 -->
<g id="node5" class="node">
<title>Node5</title>
<g id="a_node5"><a xlink:href="fwd_8hpp.html" target="_top" xlink:title=" ">
<polygon fill="none" stroke="black" points="808.5,-56.5 808.5,-75.5 886.5,-75.5 886.5,-56.5 808.5,-56.5"/>
<text text-anchor="middle" x="847.5" y="-63.5" font-family="Helvetica,sans-Serif" font-size="10.00">yaclib/fwd.hpp</text>
</a>
</g>
</g>
<!-- Node3&#45;&gt;Node5 -->
<g id="edge4" class="edge">
<title>Node3&#45;&gt;Node5</title>
<path fill="none" stroke="midnightblue" d="M955.38,-302.48C952.04,-267.66 939.73,-175.52 899.5,-112 891.91,-100.02 880.18,-89.47 869.77,-81.61"/>
<polygon fill="midnightblue" stroke="midnightblue" points="871.63,-78.63 861.47,-75.66 867.56,-84.33 871.63,-78.63"/>
</g>
<!-- Node6 -->
<g id="node6" class="node">
<title>Node6</title>
<g id="a_node6"><a xlink:title=" ">
<polygon fill="none" stroke="#bfbfbf" points="502.5,-56.5 502.5,-75.5 564.5,-75.5 564.5,-56.5 502.5,-56.5"/>
<text text-anchor="middle" x="533.5" y="-63.5" font-family="Helvetica,sans-Serif" font-size="10.00">type_traits</text>
</a>
</g>
</g>
<!-- Node3&#45;&gt;Node6 -->
<g id="edge5" class="edge">
<title>Node3&#45;&gt;Node6</title>
<path fill="none" stroke="midnightblue" d="M912,-311.11C830.39,-300.99 662.97,-278.97 639.5,-266 570.77,-228.01 544.67,-127.36 536.59,-85.58"/>
<polygon fill="midnightblue" stroke="midnightblue" points="540.02,-84.89 534.8,-75.67 533.13,-86.13 540.02,-84.89"/>
</g>
<!-- Node7 -->
<g id="node7" class="node">
<title>Node7</title>
<g id="a_node7"><a xlink:title=" ">
<polygon fill="none" stroke="#bfbfbf" points="999,-56.5 999,-75.5 1038,-75.5 1038,-56.5 999,-56.5"/>
<text text-anchor="middle" x="1018.5" y="-63.5" font-family="Helvetica,sans-Serif" font-size="10.00">utility</text>
</a>
</g>
</g>
<!-- Node3&#45;&gt;Node7 -->
<g id="edge6" class="edge">
<title>Node3&#45;&gt;Node7</title>
<path fill="none" stroke="midnightblue" d="M960.01,-302.37C970.54,-260 1001.86,-133.96 1013.8,-85.9"/>
<polygon fill="midnightblue" stroke="midnightblue" points="1017.27,-86.48 1016.28,-75.93 1010.47,-84.79 1017.27,-86.48"/>
</g>
<!-- Node8&#45;&gt;Node7 -->
<g id="edge50" class="edge">
<title>Node8&#45;&gt;Node7</title>
<path fill="none" stroke="midnightblue" d="M780.09,-445.91C843.44,-436.75 957.66,-409.92 1010.5,-333 1064.02,-255.09 1037.1,-131.81 1024.14,-85.44"/>
<polygon fill="midnightblue" stroke="midnightblue" points="1027.49,-84.46 1021.33,-75.84 1020.77,-86.42 1027.49,-84.46"/>
</g>
<!-- Node9 -->
<g id="node9" class="node">
<title>Node9</title>
<g id="a_node9"><a xlink:href="base__core_8hpp.html" target="_top" xlink:title=" ">
<polygon fill="none" stroke="black" points="399,-369.5 399,-399.5 488,-399.5 488,-369.5 399,-369.5"/>
<text text-anchor="start" x="407" y="-387.5" font-family="Helvetica,sans-Serif" font-size="10.00">yaclib/algo/detail</text>
<text text-anchor="middle" x="443.5" y="-376.5" font-family="Helvetica,sans-Serif" font-size="10.00">/base_core.hpp</text>
</a>
</g>
</g>
<!-- Node8&#45;&gt;Node9 -->
<g id="edge8" class="edge">
<title>Node8&#45;&gt;Node9</title>
<path fill="none" stroke="midnightblue" d="M690.83,-440.56C639.1,-429.04 553.86,-410.07 498.2,-397.68"/>
<polygon fill="midnightblue" stroke="midnightblue" points="498.68,-394.2 488.16,-395.44 497.16,-401.03 498.68,-394.2"/>
</g>
<!-- Node18 -->
<g id="node18" class="node">
<title>Node18</title>
<g id="a_node18"><a xlink:href="intrusive__ptr_8hpp.html" target="_top" xlink:title=" ">
<polygon fill="none" stroke="black" points="77,-179.5 77,-209.5 174,-209.5 174,-179.5 77,-179.5"/>
<text text-anchor="start" x="85" y="-197.5" font-family="Helvetica,sans-Serif" font-size="10.00">yaclib/util/intrusive</text>
<text text-anchor="middle" x="125.5" y="-186.5" font-family="Helvetica,sans-Serif" font-size="10.00">_ptr.hpp</text>
</a>
</g>
</g>
<!-- Node8&#45;&gt;Node18 -->
<g id="edge36" class="edge">
<title>Node8&#45;&gt;Node18</title>
<path fill="none" stroke="midnightblue" d="M690.96,-450.3C554.76,-449.22 150.65,-442.44 111.5,-400 65.49,-350.11 95.8,-261.06 114.25,-218.88"/>
<polygon fill="midnightblue" stroke="midnightblue" points="117.48,-220.24 118.42,-209.69 111.1,-217.35 117.48,-220.24"/>
</g>
<!-- Node24 -->
<g id="node24" class="node">
<title>Node24</title>
<g id="a_node24"><a xlink:href="result_8hpp.html" target="_top" xlink:title=" ">
<polygon fill="none" stroke="black" points="648.5,-246.5 648.5,-265.5 750.5,-265.5 750.5,-246.5 648.5,-246.5"/>
<text text-anchor="middle" x="699.5" y="-253.5" font-family="Helvetica,sans-Serif" font-size="10.00">yaclib/util/result.hpp</text>
</a>
</g>
</g>
<!-- Node8&#45;&gt;Node24 -->
<g id="edge37" class="edge">
<title>Node8&#45;&gt;Node24</title>
<path fill="none" stroke="midnightblue" d="M732.85,-436.27C726.47,-401.94 710.21,-314.57 703.02,-275.9"/>
<polygon fill="midnightblue" stroke="midnightblue" points="706.37,-274.77 701.1,-265.58 699.48,-276.05 706.37,-274.77"/>
</g>
<!-- Node9&#45;&gt;Node4 -->
<g id="edge20" class="edge">
<title>Node9&#45;&gt;Node4</title>
<path fill="none" stroke="midnightblue" d="M488.21,-373.87C528.46,-364.77 589.04,-350 640.5,-333 675.14,-321.56 682.29,-314.66 716.5,-302 749.41,-289.82 787.37,-277.3 814.63,-268.57"/>
<polygon fill="midnightblue" stroke="midnightblue" points="815.7,-271.9 824.17,-265.53 813.58,-265.23 815.7,-271.9"/>
</g>
<!-- Node10 -->
<g id="node10" class="node">
<title>Node10</title>
<g id="a_node10"><a xlink:href="inline__core_8hpp.html" target="_top" xlink:title=" ">
<polygon fill="none" stroke="black" points="356,-302.5 356,-332.5 445,-332.5 445,-302.5 356,-302.5"/>
<text text-anchor="start" x="364" y="-320.5" font-family="Helvetica,sans-Serif" font-size="10.00">yaclib/algo/detail</text>
<text text-anchor="middle" x="400.5" y="-309.5" font-family="Helvetica,sans-Serif" font-size="10.00">/inline_core.hpp</text>
</a>
</g>
</g>
<!-- Node9&#45;&gt;Node10 -->
<g id="edge9" class="edge">
<title>Node9&#45;&gt;Node10</title>
<path fill="none" stroke="midnightblue" d="M434.17,-369.4C428.7,-361.13 421.67,-350.51 415.45,-341.1"/>
<polygon fill="midnightblue" stroke="midnightblue" points="418.25,-338.99 409.81,-332.58 412.41,-342.85 418.25,-338.99"/>
</g>
<!-- Node12 -->
<g id="node12" class="node">
<title>Node12</title>
<g id="a_node12"><a xlink:href="log_8hpp.html" target="_top" xlink:title=" ">
<polygon fill="none" stroke="black" points="0,-56.5 0,-75.5 75,-75.5 75,-56.5 0,-56.5"/>
<text text-anchor="middle" x="37.5" y="-63.5" font-family="Helvetica,sans-Serif" font-size="10.00">yaclib/log.hpp</text>
</a>
</g>
</g>
<!-- Node9&#45;&gt;Node12 -->
<g id="edge31" class="edge">
<title>Node9&#45;&gt;Node12</title>
<path fill="none" stroke="midnightblue" d="M398.97,-379.28C311.94,-368.46 119.83,-331.36 28.5,-210 1.72,-174.41 -5.41,-154.63 7.5,-112 10.62,-101.7 16.95,-91.61 23,-83.6"/>
<polygon fill="midnightblue" stroke="midnightblue" points="25.73,-85.8 29.29,-75.82 20.28,-81.4 25.73,-85.8"/>
</g>
<!-- Node16 -->
<g id="node16" class="node">
<title>Node16</title>
<g id="a_node16"><a xlink:href="ref_8hpp.html" target="_top" xlink:title=" ">
<polygon fill="none" stroke="black" points="158,-56.5 158,-75.5 247,-75.5 247,-56.5 158,-56.5"/>
<text text-anchor="middle" x="202.5" y="-63.5" font-family="Helvetica,sans-Serif" font-size="10.00">yaclib/util/ref.hpp</text>
</a>
</g>
</g>
<!-- Node9&#45;&gt;Node16 -->
<g id="edge32" class="edge">
<title>Node9&#45;&gt;Node16</title>
<path fill="none" stroke="midnightblue" d="M398.73,-379.95C329.04,-371.7 202.5,-344.66 202.5,-257 202.5,-257 202.5,-257 202.5,-193.5 202.5,-155.2 202.5,-110.38 202.5,-85.7"/>
<polygon fill="midnightblue" stroke="midnightblue" points="206,-85.59 202.5,-75.59 199,-85.59 206,-85.59"/>
</g>
<!-- Node17 -->
<g id="node17" class="node">
<title>Node17</title>
<g id="a_node17"><a xlink:href="executor_8hpp.html" target="_top" xlink:title=" ">
<polygon fill="none" stroke="black" points="269,-246.5 269,-265.5 386,-265.5 386,-246.5 269,-246.5"/>
<text text-anchor="middle" x="327.5" y="-253.5" font-family="Helvetica,sans-Serif" font-size="10.00">yaclib/exe/executor.hpp</text>
</a>
</g>
</g>
<!-- Node9&#45;&gt;Node17 -->
<g id="edge21" class="edge">
<title>Node9&#45;&gt;Node17</title>
<path fill="none" stroke="midnightblue" d="M399.5,-369.42C381,-361.45 360.75,-349.65 347.5,-333 334.39,-316.52 329.82,-292.28 328.25,-275.63"/>
<polygon fill="midnightblue" stroke="midnightblue" points="331.74,-275.25 327.58,-265.5 324.75,-275.71 331.74,-275.25"/>
</g>
<!-- Node20 -->
<g id="node20" class="node">
<title>Node20</title>
<g id="a_node20"><a xlink:href="inline_8hpp.html" target="_top" xlink:title=" ">
<polygon fill="none" stroke="black" points="528,-308 528,-327 631,-327 631,-308 528,-308"/>
<text text-anchor="middle" x="579.5" y="-315" font-family="Helvetica,sans-Serif" font-size="10.00">yaclib/exe/inline.hpp</text>
</a>
</g>
</g>
<!-- Node9&#45;&gt;Node20 -->
<g id="edge28" class="edge">
<title>Node9&#45;&gt;Node20</title>
<path fill="none" stroke="midnightblue" d="M473.01,-369.4C496.66,-358.09 529.58,-342.36 552.53,-331.39"/>
<polygon fill="midnightblue" stroke="midnightblue" points="554.19,-334.48 561.7,-327.01 551.17,-328.16 554.19,-334.48"/>
</g>
<!-- Node21 -->
<g id="node21" class="node">
<title>Node21</title>
<g id="a_node21"><a xlink:title=" ">
<polygon fill="none" stroke="#bfbfbf" points="463.5,-308 463.5,-327 509.5,-327 509.5,-308 463.5,-308"/>
<text text-anchor="middle" x="486.5" y="-315" font-family="Helvetica,sans-Serif" font-size="10.00">cstdint</text>
</a>
</g>
</g>
<!-- Node9&#45;&gt;Node21 -->
<g id="edge33" class="edge">
<title>Node9&#45;&gt;Node21</title>
<path fill="none" stroke="midnightblue" d="M452.83,-369.4C459.4,-359.46 468.24,-346.11 475.21,-335.57"/>
<polygon fill="midnightblue" stroke="midnightblue" points="478.15,-337.47 480.75,-327.19 472.31,-333.6 478.15,-337.47"/>
</g>
<!-- Node22 -->
<g id="node22" class="node">
<title>Node22</title>
<g id="a_node22"><a xlink:title=" ">
<polygon fill="none" stroke="#bfbfbf" points="259.5,-308 259.5,-327 299.5,-327 299.5,-308 259.5,-308"/>
<text text-anchor="middle" x="279.5" y="-315" font-family="Helvetica,sans-Serif" font-size="10.00">limits</text>
</a>
</g>
</g>
<!-- Node9&#45;&gt;Node22 -->
<g id="edge34" class="edge">
<title>Node9&#45;&gt;Node22</title>
<path fill="none" stroke="midnightblue" d="M406.39,-369.45C380.32,-359.49 344.67,-345.7 313.5,-333 311.91,-332.35 310.27,-331.68 308.63,-331"/>
<polygon fill="midnightblue" stroke="midnightblue" points="309.81,-327.69 299.23,-327.04 307.09,-334.15 309.81,-327.69"/>
</g>
<!-- Node23 -->
<g id="node23" class="node">
<title>Node23</title>
<g id="a_node23"><a xlink:title=" ">
<polygon fill="none" stroke="#bfbfbf" points="725.5,-308 725.5,-327 817.5,-327 817.5,-308 725.5,-308"/>
<text text-anchor="middle" x="771.5" y="-315" font-family="Helvetica,sans-Serif" font-size="10.00">yaclib_std/atomic</text>
</a>
</g>
</g>
<!-- Node9&#45;&gt;Node23 -->
<g id="edge35" class="edge">
<title>Node9&#45;&gt;Node23</title>
<path fill="none" stroke="midnightblue" d="M488.08,-374.67C548.1,-362.77 654.73,-341.64 718.7,-328.96"/>
<polygon fill="midnightblue" stroke="midnightblue" points="719.46,-332.38 728.58,-327 718.1,-325.52 719.46,-332.38"/>
</g>
<!-- Node10&#45;&gt;Node4 -->
<g id="edge10" class="edge">
<title>Node10&#45;&gt;Node4</title>
<path fill="none" stroke="midnightblue" d="M445.17,-303.95C448.32,-303.24 451.45,-302.58 454.5,-302 487.4,-295.75 696.58,-273.32 797.36,-262.68"/>
<polygon fill="midnightblue" stroke="midnightblue" points="797.77,-266.16 807.35,-261.63 797.04,-259.2 797.77,-266.16"/>
</g>
<!-- Node11 -->
<g id="node11" class="node">
<title>Node11</title>
<g id="a_node11"><a xlink:href="job_8hpp.html" target="_top" xlink:title=" ">
<polygon fill="none" stroke="black" points="302,-185 302,-204 395,-204 395,-185 302,-185"/>
<text text-anchor="middle" x="348.5" y="-192" font-family="Helvetica,sans-Serif" font-size="10.00">yaclib/exe/job.hpp</text>
</a>
</g>
</g>
<!-- Node10&#45;&gt;Node11 -->
<g id="edge11" class="edge">
<title>Node10&#45;&gt;Node11</title>
<path fill="none" stroke="midnightblue" d="M402.18,-302.34C403.32,-287.62 403.43,-264.23 395.5,-246 389.47,-232.13 377.96,-219.66 367.84,-210.58"/>
<polygon fill="midnightblue" stroke="midnightblue" points="370.04,-207.86 360.15,-204.06 365.51,-213.2 370.04,-207.86"/>
</g>
<!-- Node10&#45;&gt;Node12 -->
<g id="edge19" class="edge">
<title>Node10&#45;&gt;Node12</title>
<path fill="none" stroke="midnightblue" d="M356.22,-302.47C266.52,-274.03 71.58,-212.09 68.5,-210 36.64,-188.34 26.48,-179.27 13.5,-143 6.32,-122.93 16.47,-99.5 25.69,-84.02"/>
<polygon fill="midnightblue" stroke="midnightblue" points="28.7,-85.81 31.15,-75.5 22.81,-82.03 28.7,-85.81"/>
</g>
<!-- Node11&#45;&gt;Node12 -->
<g id="edge12" class="edge">
<title>Node11&#45;&gt;Node12</title>
<path fill="none" stroke="midnightblue" d="M327.12,-184.81C273.06,-162.82 130.75,-104.93 67.98,-79.4"/>
<polygon fill="midnightblue" stroke="midnightblue" points="69.2,-76.11 58.61,-75.59 66.56,-82.6 69.2,-76.11"/>
</g>
<!-- Node14 -->
<g id="node14" class="node">
<title>Node14</title>
<g id="a_node14"><a xlink:href="node_8hpp.html" target="_top" xlink:title=" ">
<polygon fill="none" stroke="black" points="307,-112.5 307,-142.5 390,-142.5 390,-112.5 307,-112.5"/>
<text text-anchor="start" x="315" y="-130.5" font-family="Helvetica,sans-Serif" font-size="10.00">yaclib/util/detail</text>
<text text-anchor="middle" x="348.5" y="-119.5" font-family="Helvetica,sans-Serif" font-size="10.00">/node.hpp</text>
</a>
</g>
</g>
<!-- Node11&#45;&gt;Node14 -->
<g id="edge14" class="edge">
<title>Node11&#45;&gt;Node14</title>
<path fill="none" stroke="midnightblue" d="M348.5,-184.73C348.5,-176.54 348.5,-163.92 348.5,-152.71"/>
<polygon fill="midnightblue" stroke="midnightblue" points="352,-152.59 348.5,-142.59 345,-152.59 352,-152.59"/>
</g>
<!-- Node15 -->
<g id="node15" class="node">
<title>Node15</title>
<g id="a_node15"><a xlink:href="func_8hpp.html" target="_top" xlink:title=" ">
<polygon fill="none" stroke="black" points="408,-118 408,-137 505,-137 505,-118 408,-118"/>
<text text-anchor="middle" x="456.5" y="-125" font-family="Helvetica,sans-Serif" font-size="10.00">yaclib/util/func.hpp</text>
</a>
</g>
</g>
<!-- Node11&#45;&gt;Node15 -->
<g id="edge15" class="edge">
<title>Node11&#45;&gt;Node15</title>
<path fill="none" stroke="midnightblue" d="M363.07,-184.73C381.12,-173.87 412.11,-155.22 433.42,-142.39"/>
<polygon fill="midnightblue" stroke="midnightblue" points="435.4,-145.28 442.17,-137.13 431.79,-139.29 435.4,-145.28"/>
</g>
<!-- Node13 -->
<g id="node13" class="node">
<title>Node13</title>
<g id="a_node13"><a xlink:title=" ">
<polygon fill="none" stroke="#bfbfbf" points="4.5,-0.5 4.5,-19.5 70.5,-19.5 70.5,-0.5 4.5,-0.5"/>
<text text-anchor="middle" x="37.5" y="-7.5" font-family="Helvetica,sans-Serif" font-size="10.00">string_view</text>
</a>
</g>
</g>
<!-- Node12&#45;&gt;Node13 -->
<g id="edge13" class="edge">
<title>Node12&#45;&gt;Node13</title>
<path fill="none" stroke="midnightblue" d="M37.5,-56.08C37.5,-49.01 37.5,-38.86 37.5,-29.99"/>
<polygon fill="midnightblue" stroke="midnightblue" points="41,-29.75 37.5,-19.75 34,-29.75 41,-29.75"/>
</g>
<!-- Node15&#45;&gt;Node6 -->
<g id="edge17" class="edge">
<title>Node15&#45;&gt;Node6</title>
<path fill="none" stroke="midnightblue" d="M467.53,-117.98C479.77,-108.52 499.73,-93.1 514.49,-81.69"/>
<polygon fill="midnightblue" stroke="midnightblue" points="516.72,-84.39 522.49,-75.51 512.44,-78.85 516.72,-84.39"/>
</g>
<!-- Node15&#45;&gt;Node7 -->
<g id="edge18" class="edge">
<title>Node15&#45;&gt;Node7</title>
<path fill="none" stroke="midnightblue" d="M505.27,-118.62C520.38,-116.31 537.11,-113.9 552.5,-112 716.69,-91.69 914.39,-75.23 988.51,-69.33"/>
<polygon fill="midnightblue" stroke="midnightblue" points="989.23,-72.79 998.93,-68.51 988.68,-65.81 989.23,-72.79"/>
</g>
<!-- Node15&#45;&gt;Node16 -->
<g id="edge16" class="edge">
<title>Node15&#45;&gt;Node16</title>
<path fill="none" stroke="midnightblue" d="M423.38,-117.93C415.56,-115.94 407.24,-113.87 399.5,-112 348.99,-99.81 290.99,-86.66 251.07,-77.75"/>
<polygon fill="midnightblue" stroke="midnightblue" points="251.59,-74.28 241.07,-75.52 250.07,-81.11 251.59,-74.28"/>
</g>
<!-- Node17&#45;&gt;Node11 -->
<g id="edge22" class="edge">
<title>Node17&#45;&gt;Node11</title>
<path fill="none" stroke="midnightblue" d="M330.51,-246.48C333.53,-237.9 338.29,-224.43 342.15,-213.48"/>
<polygon fill="midnightblue" stroke="midnightblue" points="345.47,-214.6 345.5,-204.01 338.87,-212.27 345.47,-214.6"/>
</g>
<!-- Node17&#45;&gt;Node18 -->
<g id="edge23" class="edge">
<title>Node17&#45;&gt;Node18</title>
<path fill="none" stroke="midnightblue" d="M298.56,-246.48C268.52,-237.63 220.72,-223.55 182.97,-212.43"/>
<polygon fill="midnightblue" stroke="midnightblue" points="183.69,-208.99 173.11,-209.52 181.71,-215.71 183.69,-208.99"/>
</g>
<!-- Node18&#45;&gt;Node6 -->
<g id="edge25" class="edge">
<title>Node18&#45;&gt;Node6</title>
<path fill="none" stroke="midnightblue" d="M150.19,-179.43C183.04,-161.29 243.41,-129.93 298.5,-112 364.6,-90.48 444.7,-77.87 492.25,-71.71"/>
<polygon fill="midnightblue" stroke="midnightblue" points="492.98,-75.15 502.46,-70.42 492.1,-68.2 492.98,-75.15"/>
</g>
<!-- Node18&#45;&gt;Node16 -->
<g id="edge24" class="edge">
<title>Node18&#45;&gt;Node16</title>
<path fill="none" stroke="midnightblue" d="M134.03,-179.48C148.2,-156.21 176.53,-109.66 191.94,-84.36"/>
<polygon fill="midnightblue" stroke="midnightblue" points="194.94,-86.15 197.15,-75.79 188.96,-82.51 194.94,-86.15"/>
</g>
<!-- Node19 -->
<g id="node19" class="node">
<title>Node19</title>
<g id="a_node19"><a xlink:href="intrusive__ptr__impl_8hpp.html" target="_top" xlink:title=" ">
<polygon fill="none" stroke="black" points="22.5,-112.5 22.5,-142.5 136.5,-142.5 136.5,-112.5 22.5,-112.5"/>
<text text-anchor="start" x="30.5" y="-130.5" font-family="Helvetica,sans-Serif" font-size="10.00">yaclib/util/detail</text>
<text text-anchor="middle" x="79.5" y="-119.5" font-family="Helvetica,sans-Serif" font-size="10.00">/intrusive_ptr_impl.hpp</text>
</a>
</g>
</g>
<!-- Node18&#45;&gt;Node19 -->
<g id="edge26" class="edge">
<title>Node18&#45;&gt;Node19</title>
<path fill="none" stroke="midnightblue" d="M115.52,-179.4C109.61,-171.05 102,-160.29 95.29,-150.81"/>
<polygon fill="midnightblue" stroke="midnightblue" points="98.1,-148.72 89.46,-142.58 92.38,-152.76 98.1,-148.72"/>
</g>
<!-- Node19&#45;&gt;Node12 -->
<g id="edge27" class="edge">
<title>Node19&#45;&gt;Node12</title>
<path fill="none" stroke="midnightblue" d="M69.55,-112.4C63.51,-103.84 55.76,-92.87 49.4,-83.86"/>
<polygon fill="midnightblue" stroke="midnightblue" points="52.24,-81.81 43.61,-75.66 46.52,-85.85 52.24,-81.81"/>
</g>
<!-- Node20&#45;&gt;Node5 -->
<g id="edge30" class="edge">
<title>Node20&#45;&gt;Node5</title>
<path fill="none" stroke="midnightblue" d="M612.19,-307.99C660.36,-295.35 746.15,-272.42 759.5,-266 778.73,-256.76 824.88,-227.21 837.5,-210 863.9,-174 865.3,-156.26 859.5,-112 858.34,-103.18 855.97,-93.63 853.63,-85.61"/>
<polygon fill="midnightblue" stroke="midnightblue" points="856.9,-84.34 850.59,-75.83 850.21,-86.42 856.9,-84.34"/>
</g>
<!-- Node20&#45;&gt;Node17 -->
<g id="edge29" class="edge">
<title>Node20&#45;&gt;Node17</title>
<path fill="none" stroke="midnightblue" d="M543.7,-307.98C535.42,-306.01 526.66,-303.93 518.5,-302 469.05,-290.3 412.38,-276.95 373.69,-267.85"/>
<polygon fill="midnightblue" stroke="midnightblue" points="374.3,-264.4 363.77,-265.52 372.7,-271.22 374.3,-264.4"/>
</g>
<!-- Node24&#45;&gt;Node5 -->
<g id="edge38" class="edge">
<title>Node24&#45;&gt;Node5</title>
<path fill="none" stroke="midnightblue" d="M750.68,-246.47C773.59,-240.11 799.09,-229.08 815.5,-210 846.11,-174.42 849.22,-115.84 848.57,-85.9"/>
<polygon fill="midnightblue" stroke="midnightblue" points="852.06,-85.47 848.17,-75.61 845.06,-85.74 852.06,-85.47"/>
</g>
<!-- Node24&#45;&gt;Node7 -->
<g id="edge48" class="edge">
<title>Node24&#45;&gt;Node7</title>
<path fill="none" stroke="midnightblue" d="M737.56,-246.46C766.12,-239.15 805.63,-227.08 837.5,-210 904.93,-173.86 972.52,-112.03 1002.48,-82.97"/>
<polygon fill="midnightblue" stroke="midnightblue" points="1005.21,-85.19 1009.9,-75.69 1000.31,-80.2 1005.21,-85.19"/>
</g>
<!-- Node25 -->
<g id="node25" class="node">
<title>Node25</title>
<g id="a_node25"><a xlink:href="type__traits_8hpp.html" target="_top" xlink:title=" ">
<polygon fill="none" stroke="black" points="683,-185 683,-204 806,-204 806,-185 683,-185"/>
<text text-anchor="middle" x="744.5" y="-192" font-family="Helvetica,sans-Serif" font-size="10.00">yaclib/util/type_traits.hpp</text>
</a>
</g>
</g>
<!-- Node24&#45;&gt;Node25 -->
<g id="edge39" class="edge">
<title>Node24&#45;&gt;Node25</title>
<path fill="none" stroke="midnightblue" d="M705.95,-246.48C712.7,-237.55 723.47,-223.31 731.91,-212.14"/>
<polygon fill="midnightblue" stroke="midnightblue" points="734.82,-214.1 738.06,-204.01 729.24,-209.87 734.82,-214.1"/>
</g>
<!-- Node27 -->
<g id="node27" class="node">
<title>Node27</title>
<g id="a_node27"><a xlink:title=" ">
<polygon fill="none" stroke="#bfbfbf" points="561.5,-118 561.5,-137 619.5,-137 619.5,-118 561.5,-118"/>
<text text-anchor="middle" x="590.5" y="-125" font-family="Helvetica,sans-Serif" font-size="10.00">exception</text>
</a>
</g>
</g>
<!-- Node24&#45;&gt;Node27 -->
<g id="edge47" class="edge">
<title>Node24&#45;&gt;Node27</title>
<path fill="none" stroke="midnightblue" d="M667.1,-246.45C647.62,-239.67 623.89,-228.24 609.5,-210 595.26,-191.95 591.36,-165.07 590.47,-147.18"/>
<polygon fill="midnightblue" stroke="midnightblue" points="593.96,-147.04 590.23,-137.13 586.96,-147.21 593.96,-147.04"/>
</g>
<!-- Node28 -->
<g id="node28" class="node">
<title>Node28</title>
<g id="a_node28"><a xlink:title=" ">
<polygon fill="none" stroke="#bfbfbf" points="618.5,-185 618.5,-204 664.5,-204 664.5,-185 618.5,-185"/>
<text text-anchor="middle" x="641.5" y="-192" font-family="Helvetica,sans-Serif" font-size="10.00">variant</text>
</a>
</g>
</g>
<!-- Node24&#45;&gt;Node28 -->
<g id="edge49" class="edge">
<title>Node24&#45;&gt;Node28</title>
<path fill="none" stroke="midnightblue" d="M691.19,-246.48C682.32,-237.37 668.05,-222.74 657.08,-211.48"/>
<polygon fill="midnightblue" stroke="midnightblue" points="659.28,-208.73 649.79,-204.01 654.27,-213.61 659.28,-208.73"/>
</g>
<!-- Node25&#45;&gt;Node5 -->
<g id="edge40" class="edge">
<title>Node25&#45;&gt;Node5</title>
<path fill="none" stroke="midnightblue" d="M752.91,-184.79C762.34,-174.9 777.95,-158.17 790.5,-143 806.85,-123.24 824.36,-99.45 835.6,-83.81"/>
<polygon fill="midnightblue" stroke="midnightblue" points="838.47,-85.81 841.43,-75.64 832.77,-81.74 838.47,-85.81"/>
</g>
<!-- Node25&#45;&gt;Node6 -->
<g id="edge45" class="edge">
<title>Node25&#45;&gt;Node6</title>
<path fill="none" stroke="midnightblue" d="M730.1,-184.83C714.2,-175.12 688.02,-158.67 666.5,-143 648.88,-130.17 646.93,-123.64 628.5,-112 608.27,-99.22 583.83,-87.72 564.81,-79.55"/>
<polygon fill="midnightblue" stroke="midnightblue" points="565.98,-76.25 555.41,-75.59 563.27,-82.7 565.98,-76.25"/>
</g>
<!-- Node25&#45;&gt;Node7 -->
<g id="edge46" class="edge">
<title>Node25&#45;&gt;Node7</title>
<path fill="none" stroke="midnightblue" d="M763.33,-184.81C810.67,-162.95 934.8,-105.64 990.61,-79.87"/>
<polygon fill="midnightblue" stroke="midnightblue" points="992.29,-82.96 999.9,-75.59 989.35,-76.6 992.29,-82.96"/>
</g>
<!-- Node26 -->
<g id="node26" class="node">
<title>Node26</title>
<g id="a_node26"><a xlink:href="type__traits__impl_8hpp.html" target="_top" xlink:title=" ">
<polygon fill="none" stroke="black" points="675.5,-112.5 675.5,-142.5 781.5,-142.5 781.5,-112.5 675.5,-112.5"/>
<text text-anchor="start" x="683.5" y="-130.5" font-family="Helvetica,sans-Serif" font-size="10.00">yaclib/util/detail</text>
<text text-anchor="middle" x="728.5" y="-119.5" font-family="Helvetica,sans-Serif" font-size="10.00">/type_traits_impl.hpp</text>
</a>
</g>
</g>
<!-- Node25&#45;&gt;Node26 -->
<g id="edge41" class="edge">
<title>Node25&#45;&gt;Node26</title>
<path fill="none" stroke="midnightblue" d="M742.34,-184.73C740.3,-176.46 737.16,-163.66 734.38,-152.37"/>
<polygon fill="midnightblue" stroke="midnightblue" points="737.76,-151.46 731.97,-142.59 730.96,-153.14 737.76,-151.46"/>
</g>
<!-- Node25&#45;&gt;Node27 -->
<g id="edge44" class="edge">
<title>Node25&#45;&gt;Node27</title>
<path fill="none" stroke="midnightblue" d="M724.05,-184.87C697.47,-173.65 650.86,-153.98 620.33,-141.09"/>
<polygon fill="midnightblue" stroke="midnightblue" points="621.61,-137.83 611.03,-137.17 618.89,-144.28 621.61,-137.83"/>
</g>
<!-- Node26&#45;&gt;Node5 -->
<g id="edge42" class="edge">
<title>Node26&#45;&gt;Node5</title>
<path fill="none" stroke="midnightblue" d="M756.7,-112.4C776.22,-102.64 802.03,-89.74 821.13,-80.18"/>
<polygon fill="midnightblue" stroke="midnightblue" points="822.81,-83.26 830.18,-75.66 819.67,-77 822.81,-83.26"/>
</g>
<!-- Node26&#45;&gt;Node6 -->
<g id="edge43" class="edge">
<title>Node26&#45;&gt;Node6</title>
<path fill="none" stroke="midnightblue" d="M682.29,-112.4C648.45,-102.07 603.08,-88.23 571.37,-78.56"/>
<polygon fill="midnightblue" stroke="midnightblue" points="572.18,-75.14 561.59,-75.57 570.13,-81.84 572.18,-75.14"/>
</g>
<!-- Node29&#45;&gt;Node4 -->
<g id="edge53" class="edge">
<title>Node29&#45;&gt;Node4</title>
<path fill="none" stroke="midnightblue" d="M1030.18,-378.35C992.1,-372.45 940.87,-359.84 903.5,-333 882.85,-318.17 867.79,-292.44 859.35,-275.08"/>
<polygon fill="midnightblue" stroke="midnightblue" points="862.31,-273.14 854.95,-265.52 855.95,-276.07 862.31,-273.14"/>
</g>
<!-- Node29&#45;&gt;Node7 -->
<g id="edge56" class="edge">
<title>Node29&#45;&gt;Node7</title>
<path fill="none" stroke="midnightblue" d="M1094.06,-369.27C1101.42,-359.56 1110.65,-346.13 1116.5,-333 1130.66,-301.19 1135.5,-291.82 1135.5,-257 1135.5,-257 1135.5,-257 1135.5,-193.5 1135.5,-140.59 1079.65,-100.41 1045.12,-80.62"/>
<polygon fill="midnightblue" stroke="midnightblue" points="1046.46,-77.36 1036.02,-75.59 1043.08,-83.49 1046.46,-77.36"/>
</g>
<!-- Node29&#45;&gt;Node23 -->
<g id="edge57" class="edge">
<title>Node29&#45;&gt;Node23</title>
<path fill="none" stroke="midnightblue" d="M1030.45,-372.62C972.54,-360.52 879.6,-341.09 822.23,-329.1"/>
<polygon fill="midnightblue" stroke="midnightblue" points="822.8,-325.65 812.3,-327.03 821.37,-332.5 822.8,-325.65"/>
</g>
<!-- Node30 -->
<g id="node30" class="node">
<title>Node30</title>
<g id="a_node30"><a xlink:href="default__deleter_8hpp.html" target="_top" xlink:title=" ">
<polygon fill="none" stroke="black" points="1164,-302.5 1164,-332.5 1265,-332.5 1265,-302.5 1164,-302.5"/>
<text text-anchor="start" x="1172" y="-320.5" font-family="Helvetica,sans-Serif" font-size="10.00">yaclib/util/detail</text>
<text text-anchor="middle" x="1214.5" y="-309.5" font-family="Helvetica,sans-Serif" font-size="10.00">/default_deleter.hpp</text>
</a>
</g>
</g>
<!-- Node29&#45;&gt;Node30 -->
<g id="edge54" class="edge">
<title>Node29&#45;&gt;Node30</title>
<path fill="none" stroke="midnightblue" d="M1111.14,-369.4C1130.34,-359.94 1155.83,-347.39 1176.69,-337.12"/>
<polygon fill="midnightblue" stroke="midnightblue" points="1178.49,-340.13 1185.91,-332.58 1175.4,-333.85 1178.49,-340.13"/>
</g>
<!-- Node31 -->
<g id="node31" class="node">
<title>Node31</title>
<g id="a_node31"><a xlink:title=" ">
<polygon fill="none" stroke="#bfbfbf" points="1058,-308 1058,-327 1107,-327 1107,-308 1058,-308"/>
<text text-anchor="middle" x="1082.5" y="-315" font-family="Helvetica,sans-Serif" font-size="10.00">cstddef</text>
</a>
</g>
</g>
<!-- Node29&#45;&gt;Node31 -->
<g id="edge55" class="edge">
<title>Node29&#45;&gt;Node31</title>
<path fill="none" stroke="midnightblue" d="M1082.5,-369.4C1082.5,-360.06 1082.5,-347.71 1082.5,-337.52"/>
<polygon fill="midnightblue" stroke="midnightblue" points="1086,-337.19 1082.5,-327.19 1079,-337.19 1086,-337.19"/>
</g>
<!-- Node32&#45;&gt;Node30 -->
<g id="edge59" class="edge">
<title>Node32&#45;&gt;Node30</title>
<path fill="none" stroke="midnightblue" d="M1206.67,-369.4C1207.88,-361.56 1209.41,-351.6 1210.8,-342.57"/>
<polygon fill="midnightblue" stroke="midnightblue" points="1214.27,-342.99 1212.33,-332.58 1207.35,-341.93 1214.27,-342.99"/>
</g>
<!-- Node33&#45;&gt;Node18 -->
<g id="edge63" class="edge">
<title>Node33&#45;&gt;Node18</title>
<path fill="none" stroke="midnightblue" d="M1026.35,-447.42C876.63,-438.46 452.24,-412.31 390.5,-400 297.74,-381.51 258.94,-396.13 188.5,-333 154.57,-302.59 137.69,-250.22 130.34,-219.64"/>
<polygon fill="midnightblue" stroke="midnightblue" points="133.73,-218.79 128.12,-209.81 126.9,-220.33 133.73,-218.79"/>
</g>
<!-- Node33&#45;&gt;Node29 -->
<g id="edge61" class="edge">
<title>Node33&#45;&gt;Node29</title>
<path fill="none" stroke="midnightblue" d="M1079.04,-441.73C1079.54,-433.54 1080.32,-420.92 1081.01,-409.71"/>
<polygon fill="midnightblue" stroke="midnightblue" points="1084.51,-409.79 1081.63,-399.59 1077.53,-409.36 1084.51,-409.79"/>
</g>
<!-- Node33&#45;&gt;Node32 -->
<g id="edge62" class="edge">
<title>Node33&#45;&gt;Node32</title>
<path fill="none" stroke="midnightblue" d="M1095.23,-441.87C1113.67,-432.36 1143.89,-416.77 1167.88,-404.39"/>
<polygon fill="midnightblue" stroke="midnightblue" points="1169.79,-407.35 1177.07,-399.65 1166.58,-401.13 1169.79,-407.35"/>
</g>
</g>
</svg>
        <g id="navigator" transform="translate(0 0)" fill="#404254">
                <rect fill="#f2f5e9" fill-opacity="0.5" stroke="#606060" stroke-width=".5" x="0" y="0" width="60" height="60"/>
                <use id="zoomplus" xlink:href="#zoomPlus" x="17" y="9" onmousedown="handleZoom(evt,'in')"/>
                <use id="zoomminus" xlink:href="#zoomMin" x="42" y="9" onmousedown="handleZoom(evt,'out')"/>
                <use id="reset" xlink:href="#resetDef" x="30" y="36" onmousedown="handleReset()"/>
                <g id="arrowUp" xlink:href="#dirArrow" transform="translate(30 24)" onmousedown="handlePan(0,-1)">
                  <use xlink:href="#rim" fill="#404040">
                        <set attributeName="fill" to="#808080" begin="arrowUp.mouseover" end="arrowUp.mouseout"/>
                  </use>
                  <path fill="none" stroke="white" stroke-width="1.5" d="M0,-3.0v7 M-2.5,-0.5L0,-3.0L2.5,-0.5"/>
                </g>
                <g id="arrowRight" xlink:href="#dirArrow" transform="rotate(90) translate(36 -43)" onmousedown="handlePan(1,0)">
                  <use xlink:href="#rim" fill="#404040">
                        <set attributeName="fill" to="#808080" begin="arrowRight.mouseover" end="arrowRight.mouseout"/>
                  </use>
                  <path fill="none" stroke="white" stroke-width="1.5" d="M0,-3.0v7 M-2.5,-0.5L0,-3.0L2.5,-0.5"/>
                </g>
                <g id="arrowDown" xlink:href="#dirArrow" transform="rotate(180) translate(-30 -48)" onmousedown="handlePan(0,1)">
                  <use xlink:href="#rim" fill="#404040">
                        <set attributeName="fill" to="#808080" begin="arrowDown.mouseover" end="arrowDown.mouseout"/>
                  </use>
                  <path fill="none" stroke="white" stroke-width="1.5" d="M0,-3.0v7 M-2.5,-0.5L0,-3.0L2.5,-0.5"/>
                </g>
                <g id="arrowLeft" xlink:href="#dirArrow" transform="rotate(270) translate(-36 17)" onmousedown="handlePan(-1,0)">
                  <use xlink:href="#rim" fill="#404040">
                        <set attributeName="fill" to="#808080" begin="arrowLeft.mouseover" end="arrowLeft.mouseout"/>
                  </use>
                  <path fill="none" stroke="white" stroke-width="1.5" d="M0,-3.0v7 M-2.5,-0.5L0,-3.0L2.5,-0.5"/>
                </g>
        </g>
        <svg viewBox="0 0 15 15" width="100%" height="30px" preserveAspectRatio="xMaxYMin meet">
         <g id="arrow_out" transform="scale(0.3 0.3)">
          <a xlink:href="result__core_8cpp__incl_org.svg" target="_base">
           <rect id="button" ry="5" rx="5" y="6" x="6" height="38" width="38"
                fill="#f2f5e9" fill-opacity="0.5" stroke="#606060" stroke-width="1.0"/>
           <path id="arrow"
             d="M 11.500037,31.436501 C 11.940474,20.09759 22.043105,11.32322 32.158766,21.979434 L 37.068811,17.246167 C 37.068811,17.246167 37.088388,32 37.088388,32 L 22.160133,31.978069 C 22.160133,31.978069 26.997745,27.140456 26.997745,27.140456 C 18.528582,18.264221 13.291696,25.230495 11.500037,31.436501 z"
             style="fill:#404040;"/>
          </a>
         </g>
        </svg>
</svg>
