<?xml version="1.0" encoding="UTF-8" standalone="no"?>
<!DOCTYPE svg PUBLIC "-//W3C//DTD SVG 1.1//EN"
 "http://www.w3.org/Graphics/SVG/1.1/DTD/svg11.dtd">
<!-- Generated by graphviz version 3.0.0 (20220413.0242)
 -->
<!-- Title: include/yaclib/async/detail/result_core.hpp Pages: 1 -->
<!--zoomable 441 -->
<svg id="main" version="1.1" xmlns="http://www.w3.org/2000/svg" xmlns:xlink="http://www.w3.org/1999/xlink" xml:space="preserve" onload="init(evt)">
<style type="text/css"><![CDATA[
.edge:hover path { stroke: red; }
.edge:hover polygon { stroke: red; fill: red; }
]]></style>
<script type="text/javascript"><![CDATA[
var edges = document.getElementsByTagName('g');
if (edges && edges.length) {
  for (var i=0;i<edges.length;i++) {
    if (edges[i].id.substr(0,4)=='edge') {
      edges[i].setAttribute('class','edge');
    }
  }
}
]]></script>
        <defs>
                <circle id="rim" cx="0" cy="0" r="7"/>
                <circle id="rim2" cx="0" cy="0" r="3.5"/>
                <g id="zoomPlus">
                        <use xlink:href="#rim" fill="#404040">
                                <set attributeName="fill" to="#808080" begin="zoomplus.mouseover" end="zoomplus.mouseout"/>
                        </use>
                        <path d="M-4,0h8M0,-4v8" fill="none" stroke="white" stroke-width="1.5" pointer-events="none"/>
                </g>
                <g id="zoomMin">
                        <use xlink:href="#rim" fill="#404040">
                                <set attributeName="fill" to="#808080" begin="zoomminus.mouseover" end="zoomminus.mouseout"/>
                        </use>
                        <path d="M-4,0h8" fill="none" stroke="white" stroke-width="1.5" pointer-events="none"/>
                </g>
                <g id="dirArrow">
                        <path fill="none" stroke="white" stroke-width="1.5" d="M0,-3.0v7 M-2.5,-0.5L0,-3.0L2.5,-0.5"/>
                </g>
               <g id="resetDef">
                       <use xlink:href="#rim2" fill="#404040">
                               <set attributeName="fill" to="#808080" begin="reset.mouseover" end="reset.mouseout"/>
                       </use>
               </g>
        </defs>

<script type="text/javascript">
var viewWidth = 1986;
var viewHeight = 441;
var sectionId = 'dynsection-1';
</script>
<script xlink:href="svgpan.js"/>
<svg id="graph" class="graph">
<g id="viewport">
<title>include/yaclib/async/detail/result_core.hpp</title>
<!-- Node1 -->
<g id="node1" class="node">
<title>Node1</title>
<g id="a_node1"><a xlink:title=" ">
<polygon fill="#bfbfbf" stroke="black" points="1141.83,-402.5 1141.83,-432.5 1253.83,-432.5 1253.83,-402.5 1141.83,-402.5"/>
<text text-anchor="start" x="1149.83" y="-420.5" font-family="Helvetica,sans-Serif" font-size="10.00">include/yaclib/async</text>
<text text-anchor="middle" x="1197.83" y="-409.5" font-family="Helvetica,sans-Serif" font-size="10.00">/detail/result_core.hpp</text>
</a>
</g>
</g>
<!-- Node2 -->
<g id="node2" class="node">
<title>Node2</title>
<g id="a_node2"><a xlink:href="when__all__impl_8hpp.html" target="_top" xlink:title=" ">
<polygon fill="none" stroke="black" points="557.33,-268.5 557.33,-298.5 682.33,-298.5 682.33,-268.5 557.33,-268.5"/>
<text text-anchor="start" x="565.33" y="-286.5" font-family="Helvetica,sans-Serif" font-size="10.00">include/yaclib/algo</text>
<text text-anchor="middle" x="619.83" y="-275.5" font-family="Helvetica,sans-Serif" font-size="10.00">/detail/when_all_impl.hpp</text>
</a>
</g>
</g>
<!-- Node1&#45;&gt;Node2 -->
<g id="edge1" class="edge">
<title>Node1&#45;&gt;Node2</title>
<path fill="none" stroke="midnightblue" d="M1131.73,-401.4C1018.95,-375.65 790.96,-323.58 681.37,-298.56"/>
<polygon fill="midnightblue" stroke="midnightblue" points="1131.09,-404.85 1141.62,-403.66 1132.65,-398.02 1131.09,-404.85"/>
</g>
<!-- Node5 -->
<g id="node5" class="node">
<title>Node5</title>
<g id="a_node5"><a xlink:href="when__any__impl_8hpp.html" target="_top" xlink:title=" ">
<polygon fill="none" stroke="black" points="181.33,-268.5 181.33,-298.5 312.33,-298.5 312.33,-268.5 181.33,-268.5"/>
<text text-anchor="start" x="189.33" y="-286.5" font-family="Helvetica,sans-Serif" font-size="10.00">include/yaclib/algo</text>
<text text-anchor="middle" x="246.83" y="-275.5" font-family="Helvetica,sans-Serif" font-size="10.00">/detail/when_any_impl.hpp</text>
</a>
</g>
</g>
<!-- Node1&#45;&gt;Node5 -->
<g id="edge4" class="edge">
<title>Node1&#45;&gt;Node5</title>
<path fill="none" stroke="midnightblue" d="M1131.46,-407.29C956.88,-383.06 486.35,-317.75 312.53,-293.62"/>
<polygon fill="midnightblue" stroke="midnightblue" points="1131.15,-410.78 1141.54,-408.69 1132.11,-403.85 1131.15,-410.78"/>
</g>
<!-- Node8 -->
<g id="node8" class="node">
<title>Node8</title>
<g id="a_node8"><a xlink:href="core_8hpp.html" target="_top" xlink:title=" ">
<polygon fill="none" stroke="black" points="1027.83,-335.5 1027.83,-365.5 1131.83,-365.5 1131.83,-335.5 1027.83,-335.5"/>
<text text-anchor="start" x="1035.83" y="-353.5" font-family="Helvetica,sans-Serif" font-size="10.00">include/yaclib/async</text>
<text text-anchor="middle" x="1079.83" y="-342.5" font-family="Helvetica,sans-Serif" font-size="10.00">/detail/core.hpp</text>
</a>
</g>
</g>
<!-- Node1&#45;&gt;Node8 -->
<g id="edge7" class="edge">
<title>Node1&#45;&gt;Node8</title>
<path fill="none" stroke="midnightblue" d="M1163.22,-397.44C1144.7,-387.24 1122.3,-374.9 1105.38,-365.58"/>
<polygon fill="midnightblue" stroke="midnightblue" points="1161.77,-400.64 1172.22,-402.4 1165.15,-394.51 1161.77,-400.64"/>
</g>
<!-- Node10 -->
<g id="node10" class="node">
<title>Node10</title>
<g id="a_node10"><a xlink:href="future_8hpp.html" target="_top" xlink:title=" ">
<polygon fill="none" stroke="black" points="817.83,-201.5 817.83,-231.5 921.83,-231.5 921.83,-201.5 817.83,-201.5"/>
<text text-anchor="start" x="825.83" y="-219.5" font-family="Helvetica,sans-Serif" font-size="10.00">include/yaclib/async</text>
<text text-anchor="middle" x="869.83" y="-208.5" font-family="Helvetica,sans-Serif" font-size="10.00">/future.hpp</text>
</a>
</g>
</g>
<!-- Node1&#45;&gt;Node10 -->
<g id="edge35" class="edge">
<title>Node1&#45;&gt;Node10</title>
<path fill="none" stroke="midnightblue" d="M1186.11,-393.11C1176.14,-375.2 1160.35,-350.94 1140.83,-335 1074.79,-281.08 980.23,-247.64 922.05,-230.82"/>
<polygon fill="midnightblue" stroke="midnightblue" points="1183.23,-395.15 1191.03,-402.31 1189.4,-391.84 1183.23,-395.15"/>
</g>
<!-- Node25 -->
<g id="node25" class="node">
<title>Node25</title>
<g id="a_node25"><a xlink:href="promise_8hpp.html" target="_top" xlink:title=" ">
<polygon fill="none" stroke="black" points="1557.83,-201.5 1557.83,-231.5 1661.83,-231.5 1661.83,-201.5 1557.83,-201.5"/>
<text text-anchor="start" x="1565.83" y="-219.5" font-family="Helvetica,sans-Serif" font-size="10.00">include/yaclib/async</text>
<text text-anchor="middle" x="1609.83" y="-208.5" font-family="Helvetica,sans-Serif" font-size="10.00">/promise.hpp</text>
</a>
</g>
</g>
<!-- Node1&#45;&gt;Node25 -->
<g id="edge36" class="edge">
<title>Node1&#45;&gt;Node25</title>
<path fill="none" stroke="midnightblue" d="M1206.67,-392.68C1214.16,-375.05 1226.32,-351.36 1242.83,-335 1329.43,-249.18 1478.73,-226 1557.56,-219.77"/>
<polygon fill="midnightblue" stroke="midnightblue" points="1203.3,-391.67 1202.8,-402.25 1209.79,-394.29 1203.3,-391.67"/>
</g>
<!-- Node27 -->
<g id="node27" class="node">
<title>Node27</title>
<g id="a_node27"><a xlink:href="task_8hpp.html" target="_top" xlink:title=" ">
<polygon fill="none" stroke="black" points="1251.83,-335.5 1251.83,-365.5 1355.83,-365.5 1355.83,-335.5 1251.83,-335.5"/>
<text text-anchor="start" x="1259.83" y="-353.5" font-family="Helvetica,sans-Serif" font-size="10.00">include/yaclib/async</text>
<text text-anchor="middle" x="1303.83" y="-342.5" font-family="Helvetica,sans-Serif" font-size="10.00">/task.hpp</text>
</a>
</g>
</g>
<!-- Node1&#45;&gt;Node27 -->
<g id="edge40" class="edge">
<title>Node1&#45;&gt;Node27</title>
<path fill="none" stroke="midnightblue" d="M1229.6,-397.02C1246.1,-386.9 1265.88,-374.77 1280.87,-365.58"/>
<polygon fill="midnightblue" stroke="midnightblue" points="1227.52,-394.18 1220.83,-402.4 1231.18,-400.15 1227.52,-394.18"/>
</g>
<!-- Node28 -->
<g id="node28" class="node">
<title>Node28</title>
<g id="a_node28"><a xlink:href="promise__type_8hpp.html" target="_top" xlink:title=" ">
<polygon fill="none" stroke="black" points="1373.83,-335.5 1373.83,-365.5 1495.83,-365.5 1495.83,-335.5 1373.83,-335.5"/>
<text text-anchor="start" x="1381.83" y="-353.5" font-family="Helvetica,sans-Serif" font-size="10.00">include/yaclib/coroutine</text>
<text text-anchor="middle" x="1434.83" y="-342.5" font-family="Helvetica,sans-Serif" font-size="10.00">/detail/promise_type.hpp</text>
</a>
</g>
</g>
<!-- Node1&#45;&gt;Node28 -->
<g id="edge41" class="edge">
<title>Node1&#45;&gt;Node28</title>
<path fill="none" stroke="midnightblue" d="M1259.03,-399.71C1297.59,-389.14 1346.83,-375.63 1383.37,-365.61"/>
<polygon fill="midnightblue" stroke="midnightblue" points="1257.68,-396.46 1248.96,-402.48 1259.53,-403.21 1257.68,-396.46"/>
</g>
<!-- Node34 -->
<g id="node34" class="node">
<title>Node34</title>
<g id="a_node34"><a xlink:href="result__core_8cpp.html" target="_top" xlink:title=" ">
<polygon fill="none" stroke="black" points="1513.83,-341 1513.83,-360 1641.83,-360 1641.83,-341 1513.83,-341"/>
<text text-anchor="middle" x="1577.83" y="-348" font-family="Helvetica,sans-Serif" font-size="10.00">src/async/result_core.cpp</text>
</a>
</g>
</g>
<!-- Node1&#45;&gt;Node34 -->
<g id="edge48" class="edge">
<title>Node1&#45;&gt;Node34</title>
<path fill="none" stroke="midnightblue" d="M1264.02,-406.26C1326.27,-396.47 1422.01,-381.03 1504.83,-366 1515,-364.15 1525.94,-362.05 1536.18,-360.02"/>
<polygon fill="midnightblue" stroke="midnightblue" points="1263.28,-402.83 1253.94,-407.84 1264.36,-409.75 1263.28,-402.83"/>
</g>
<!-- Node3 -->
<g id="node3" class="node">
<title>Node3</title>
<g id="a_node3"><a xlink:href="when__all_8hpp.html" target="_top" xlink:title=" ">
<polygon fill="none" stroke="black" points="433.83,-67.5 433.83,-97.5 529.83,-97.5 529.83,-67.5 433.83,-67.5"/>
<text text-anchor="start" x="441.83" y="-85.5" font-family="Helvetica,sans-Serif" font-size="10.00">include/yaclib/algo</text>
<text text-anchor="middle" x="481.83" y="-74.5" font-family="Helvetica,sans-Serif" font-size="10.00">/when_all.hpp</text>
</a>
</g>
</g>
<!-- Node2&#45;&gt;Node3 -->
<g id="edge2" class="edge">
<title>Node2&#45;&gt;Node3</title>
<path fill="none" stroke="midnightblue" d="M546.81,-275.94C422.75,-263.12 179.23,-230.12 127.83,-165 17.01,-24.6 -185.32,-180.12 383.83,-98 400.08,-95.65 417.85,-93.04 433.73,-90.69"/>
<polygon fill="midnightblue" stroke="midnightblue" points="546.68,-279.45 556.98,-276.97 547.39,-272.48 546.68,-279.45"/>
</g>
<!-- Node4 -->
<g id="node4" class="node">
<title>Node4</title>
<g id="a_node4"><a xlink:href="when__all_8cpp.html" target="_top" xlink:title=" ">
<polygon fill="none" stroke="black" points="1031.33,-0.5 1031.33,-30.5 1132.33,-30.5 1132.33,-0.5 1031.33,-0.5"/>
<text text-anchor="start" x="1039.33" y="-18.5" font-family="Helvetica,sans-Serif" font-size="10.00">test/example/async</text>
<text text-anchor="middle" x="1081.83" y="-7.5" font-family="Helvetica,sans-Serif" font-size="10.00">/when_all.cpp</text>
</a>
</g>
</g>
<!-- Node3&#45;&gt;Node4 -->
<g id="edge3" class="edge">
<title>Node3&#45;&gt;Node4</title>
<path fill="none" stroke="midnightblue" d="M540.17,-74.68C561.46,-72.22 585.73,-69.45 607.83,-67 762.05,-49.91 944.63,-30.76 1031.3,-21.74"/>
<polygon fill="midnightblue" stroke="midnightblue" points="539.51,-71.23 529.98,-75.86 540.32,-78.19 539.51,-71.23"/>
</g>
<!-- Node6 -->
<g id="node6" class="node">
<title>Node6</title>
<g id="a_node6"><a xlink:href="when__any_8hpp.html" target="_top" xlink:title=" ">
<polygon fill="none" stroke="black" points="278.83,-67.5 278.83,-97.5 374.83,-97.5 374.83,-67.5 278.83,-67.5"/>
<text text-anchor="start" x="286.83" y="-85.5" font-family="Helvetica,sans-Serif" font-size="10.00">include/yaclib/algo</text>
<text text-anchor="middle" x="326.83" y="-74.5" font-family="Helvetica,sans-Serif" font-size="10.00">/when_any.hpp</text>
</a>
</g>
</g>
<!-- Node5&#45;&gt;Node6 -->
<g id="edge5" class="edge">
<title>Node5&#45;&gt;Node6</title>
<path fill="none" stroke="midnightblue" d="M170.97,-275.84C142.33,-269.2 112.44,-256.41 94.83,-232 69.34,-196.68 67.5,-167.92 94.83,-134 117.46,-105.91 217.56,-92.63 278.64,-87.03"/>
<polygon fill="midnightblue" stroke="midnightblue" points="170.52,-279.33 181.02,-277.94 171.95,-272.47 170.52,-279.33"/>
</g>
<!-- Node7 -->
<g id="node7" class="node">
<title>Node7</title>
<g id="a_node7"><a xlink:href="when__any_8cpp.html" target="_top" xlink:title=" ">
<polygon fill="none" stroke="black" points="700.33,-0.5 700.33,-30.5 801.33,-30.5 801.33,-0.5 700.33,-0.5"/>
<text text-anchor="start" x="708.33" y="-18.5" font-family="Helvetica,sans-Serif" font-size="10.00">test/example/async</text>
<text text-anchor="middle" x="750.83" y="-7.5" font-family="Helvetica,sans-Serif" font-size="10.00">/when_any.cpp</text>
</a>
</g>
</g>
<!-- Node6&#45;&gt;Node7 -->
<g id="edge6" class="edge">
<title>Node6&#45;&gt;Node7</title>
<path fill="none" stroke="midnightblue" d="M385.13,-72.56C468.62,-59.76 620.88,-36.42 700.01,-24.29"/>
<polygon fill="midnightblue" stroke="midnightblue" points="384.4,-69.13 375.05,-74.11 385.47,-76.05 384.4,-69.13"/>
</g>
<!-- Node9 -->
<g id="node9" class="node">
<title>Node9</title>
<g id="a_node9"><a xlink:href="future__impl_8hpp.html" target="_top" xlink:title=" ">
<polygon fill="none" stroke="black" points="813.83,-268.5 813.83,-298.5 925.83,-298.5 925.83,-268.5 813.83,-268.5"/>
<text text-anchor="start" x="821.83" y="-286.5" font-family="Helvetica,sans-Serif" font-size="10.00">include/yaclib/async</text>
<text text-anchor="middle" x="869.83" y="-275.5" font-family="Helvetica,sans-Serif" font-size="10.00">/detail/future_impl.hpp</text>
</a>
</g>
</g>
<!-- Node8&#45;&gt;Node9 -->
<g id="edge8" class="edge">
<title>Node8&#45;&gt;Node9</title>
<path fill="none" stroke="midnightblue" d="M1024.72,-332.44C990.68,-321.91 947.52,-308.55 915.41,-298.61"/>
<polygon fill="midnightblue" stroke="midnightblue" points="1023.93,-335.86 1034.52,-335.48 1026,-329.18 1023.93,-335.86"/>
</g>
<!-- Node19 -->
<g id="node19" class="node">
<title>Node19</title>
<g id="a_node19"><a xlink:href="run_8hpp.html" target="_top" xlink:title=" ">
<polygon fill="none" stroke="black" points="1258.83,-134.5 1258.83,-164.5 1362.83,-164.5 1362.83,-134.5 1258.83,-134.5"/>
<text text-anchor="start" x="1266.83" y="-152.5" font-family="Helvetica,sans-Serif" font-size="10.00">include/yaclib/async</text>
<text text-anchor="middle" x="1310.83" y="-141.5" font-family="Helvetica,sans-Serif" font-size="10.00">/run.hpp</text>
</a>
</g>
</g>
<!-- Node8&#45;&gt;Node19 -->
<g id="edge34" class="edge">
<title>Node8&#45;&gt;Node19</title>
<path fill="none" stroke="midnightblue" d="M1104.04,-328.64C1151.19,-288.02 1254.23,-199.26 1294.36,-164.68"/>
<polygon fill="midnightblue" stroke="midnightblue" points="1101.73,-326.01 1096.44,-335.19 1106.3,-331.31 1101.73,-326.01"/>
</g>
<!-- Node9&#45;&gt;Node10 -->
<g id="edge9" class="edge">
<title>Node9&#45;&gt;Node10</title>
<path fill="none" stroke="midnightblue" d="M869.83,-258.11C869.83,-249.15 869.83,-239.32 869.83,-231.58"/>
<polygon fill="midnightblue" stroke="midnightblue" points="866.33,-258.4 869.83,-268.4 873.33,-258.4 866.33,-258.4"/>
</g>
<!-- Node10&#45;&gt;Node3 -->
<g id="edge19" class="edge">
<title>Node10&#45;&gt;Node3</title>
<path fill="none" stroke="midnightblue" d="M807.63,-210.07C729.84,-202.47 601.79,-187.08 559.83,-165 543.97,-156.65 510.92,-118.59 493.37,-97.57"/>
<polygon fill="midnightblue" stroke="midnightblue" points="807.5,-213.57 817.79,-211.04 808.17,-206.6 807.5,-213.57"/>
</g>
<!-- Node10&#45;&gt;Node6 -->
<g id="edge20" class="edge">
<title>Node10&#45;&gt;Node6</title>
<path fill="none" stroke="midnightblue" d="M807.51,-212.42C659.43,-204.79 297.5,-184.25 279.83,-165 260.94,-144.43 288.25,-114.97 308.47,-97.68"/>
<polygon fill="midnightblue" stroke="midnightblue" points="807.63,-215.93 817.79,-212.94 807.98,-208.94 807.63,-215.93"/>
</g>
<!-- Node11 -->
<g id="node11" class="node">
<title>Node11</title>
<g id="a_node11"><a xlink:href="when__impl_8hpp.html" target="_top" xlink:title=" ">
<polygon fill="none" stroke="black" points="402.83,-134.5 402.83,-164.5 512.83,-164.5 512.83,-134.5 402.83,-134.5"/>
<text text-anchor="start" x="410.83" y="-152.5" font-family="Helvetica,sans-Serif" font-size="10.00">include/yaclib/algo</text>
<text text-anchor="middle" x="457.83" y="-141.5" font-family="Helvetica,sans-Serif" font-size="10.00">/detail/when_impl.hpp</text>
</a>
</g>
</g>
<!-- Node10&#45;&gt;Node11 -->
<g id="edge10" class="edge">
<title>Node10&#45;&gt;Node11</title>
<path fill="none" stroke="midnightblue" d="M807.41,-207.47C738.53,-198.35 624.47,-182.43 526.83,-165 522.37,-164.2 517.76,-163.34 513.13,-162.43"/>
<polygon fill="midnightblue" stroke="midnightblue" points="807.29,-210.99 817.66,-208.83 808.2,-204.05 807.29,-210.99"/>
</g>
<!-- Node12 -->
<g id="node12" class="node">
<title>Node12</title>
<g id="a_node12"><a xlink:href="wait_8hpp.html" target="_top" xlink:title=" ">
<polygon fill="none" stroke="black" points="136.83,-134.5 136.83,-164.5 232.83,-164.5 232.83,-134.5 136.83,-134.5"/>
<text text-anchor="start" x="144.83" y="-152.5" font-family="Helvetica,sans-Serif" font-size="10.00">include/yaclib/algo</text>
<text text-anchor="middle" x="184.83" y="-141.5" font-family="Helvetica,sans-Serif" font-size="10.00">/wait.hpp</text>
</a>
</g>
</g>
<!-- Node10&#45;&gt;Node12 -->
<g id="edge13" class="edge">
<title>Node10&#45;&gt;Node12</title>
<path fill="none" stroke="midnightblue" d="M807.25,-213.51C694.58,-209.24 450.33,-196.86 246.83,-165 242.35,-164.3 237.71,-163.45 233.09,-162.52"/>
<polygon fill="midnightblue" stroke="midnightblue" points="807.29,-217.01 817.42,-213.89 807.55,-210.02 807.29,-217.01"/>
</g>
<!-- Node13 -->
<g id="node13" class="node">
<title>Node13</title>
<g id="a_node13"><a xlink:href="wait__for_8hpp.html" target="_top" xlink:title=" ">
<polygon fill="none" stroke="black" points="1144.83,-134.5 1144.83,-164.5 1240.83,-164.5 1240.83,-134.5 1144.83,-134.5"/>
<text text-anchor="start" x="1152.83" y="-152.5" font-family="Helvetica,sans-Serif" font-size="10.00">include/yaclib/algo</text>
<text text-anchor="middle" x="1192.83" y="-141.5" font-family="Helvetica,sans-Serif" font-size="10.00">/wait_for.hpp</text>
</a>
</g>
</g>
<!-- Node10&#45;&gt;Node13 -->
<g id="edge15" class="edge">
<title>Node10&#45;&gt;Node13</title>
<path fill="none" stroke="midnightblue" d="M932.12,-204.79C986.17,-195.23 1066.42,-180.4 1135.83,-165 1138.72,-164.36 1141.68,-163.68 1144.67,-162.97"/>
<polygon fill="midnightblue" stroke="midnightblue" points="931.25,-201.39 922.01,-206.57 932.46,-208.28 931.25,-201.39"/>
</g>
<!-- Node14 -->
<g id="node14" class="node">
<title>Node14</title>
<g id="a_node14"><a xlink:href="wait__group_8hpp.html" target="_top" xlink:title=" ">
<polygon fill="none" stroke="black" points="884.83,-134.5 884.83,-164.5 980.83,-164.5 980.83,-134.5 884.83,-134.5"/>
<text text-anchor="start" x="892.83" y="-152.5" font-family="Helvetica,sans-Serif" font-size="10.00">include/yaclib/algo</text>
<text text-anchor="middle" x="932.83" y="-141.5" font-family="Helvetica,sans-Serif" font-size="10.00">/wait_group.hpp</text>
</a>
</g>
</g>
<!-- Node10&#45;&gt;Node14 -->
<g id="edge16" class="edge">
<title>Node10&#45;&gt;Node14</title>
<path fill="none" stroke="midnightblue" d="M890.64,-194.02C900.03,-184.34 910.85,-173.17 919.18,-164.58"/>
<polygon fill="midnightblue" stroke="midnightblue" points="887.94,-191.78 883.5,-201.4 892.97,-196.65 887.94,-191.78"/>
</g>
<!-- Node16 -->
<g id="node16" class="node">
<title>Node16</title>
<g id="a_node16"><a xlink:href="wait__until_8hpp.html" target="_top" xlink:title=" ">
<polygon fill="none" stroke="black" points="288.83,-134.5 288.83,-164.5 384.83,-164.5 384.83,-134.5 288.83,-134.5"/>
<text text-anchor="start" x="296.83" y="-152.5" font-family="Helvetica,sans-Serif" font-size="10.00">include/yaclib/algo</text>
<text text-anchor="middle" x="336.83" y="-141.5" font-family="Helvetica,sans-Serif" font-size="10.00">/wait_until.hpp</text>
</a>
</g>
</g>
<!-- Node10&#45;&gt;Node16 -->
<g id="edge18" class="edge">
<title>Node10&#45;&gt;Node16</title>
<path fill="none" stroke="midnightblue" d="M807.53,-211.75C716.22,-205.61 540.92,-191.37 393.83,-165 390.91,-164.48 387.92,-163.89 384.92,-163.25"/>
<polygon fill="midnightblue" stroke="midnightblue" points="807.5,-215.26 817.71,-212.43 807.96,-208.27 807.5,-215.26"/>
</g>
<!-- Node17 -->
<g id="node17" class="node">
<title>Node17</title>
<g id="a_node17"><a xlink:href="contract_8hpp.html" target="_top" xlink:title=" ">
<polygon fill="none" stroke="black" points="1554.83,-134.5 1554.83,-164.5 1658.83,-164.5 1658.83,-134.5 1554.83,-134.5"/>
<text text-anchor="start" x="1562.83" y="-152.5" font-family="Helvetica,sans-Serif" font-size="10.00">include/yaclib/async</text>
<text text-anchor="middle" x="1606.83" y="-141.5" font-family="Helvetica,sans-Serif" font-size="10.00">/contract.hpp</text>
</a>
</g>
</g>
<!-- Node10&#45;&gt;Node17 -->
<g id="edge21" class="edge">
<title>Node10&#45;&gt;Node17</title>
<path fill="none" stroke="midnightblue" d="M931.94,-214.15C1051.47,-210.83 1321.52,-199.81 1545.83,-165 1548.73,-164.55 1551.7,-164.03 1554.69,-163.47"/>
<polygon fill="midnightblue" stroke="midnightblue" points="931.78,-210.66 921.88,-214.42 931.97,-217.65 931.78,-210.66"/>
</g>
<!-- Node18 -->
<g id="node18" class="node">
<title>Node18</title>
<g id="a_node18"><a xlink:href="simple_8cpp.html" target="_top" xlink:title=" ">
<polygon fill="none" stroke="black" points="1448.33,-67.5 1448.33,-97.5 1549.33,-97.5 1549.33,-67.5 1448.33,-67.5"/>
<text text-anchor="start" x="1456.33" y="-85.5" font-family="Helvetica,sans-Serif" font-size="10.00">test/example/async</text>
<text text-anchor="middle" x="1498.83" y="-74.5" font-family="Helvetica,sans-Serif" font-size="10.00">/simple.cpp</text>
</a>
</g>
</g>
<!-- Node10&#45;&gt;Node18 -->
<g id="edge33" class="edge">
<title>Node10&#45;&gt;Node18</title>
<path fill="none" stroke="midnightblue" d="M932.01,-213.7C1048.24,-209.6 1293.75,-197.3 1371.83,-165 1391.97,-156.67 1391.84,-146.31 1409.83,-134 1429.62,-120.45 1453.28,-107.15 1471.24,-97.6"/>
<polygon fill="midnightblue" stroke="midnightblue" points="931.72,-210.2 921.85,-214.05 931.96,-217.2 931.72,-210.2"/>
</g>
<!-- Node10&#45;&gt;Node19 -->
<g id="edge23" class="edge">
<title>Node10&#45;&gt;Node19</title>
<path fill="none" stroke="midnightblue" d="M932.31,-209.16C1007.87,-201.04 1138.72,-185.53 1249.83,-165 1252.72,-164.47 1255.67,-163.88 1258.66,-163.27"/>
<polygon fill="midnightblue" stroke="midnightblue" points="931.6,-205.72 922.03,-210.26 932.34,-212.68 931.6,-205.72"/>
</g>
<!-- Node20 -->
<g id="node20" class="node">
<title>Node20</title>
<g id="a_node20"><a xlink:href="await_8hpp.html" target="_top" xlink:title=" ">
<polygon fill="none" stroke="black" points="616.83,-67.5 616.83,-97.5 734.83,-97.5 734.83,-67.5 616.83,-67.5"/>
<text text-anchor="start" x="624.83" y="-85.5" font-family="Helvetica,sans-Serif" font-size="10.00">include/yaclib/coroutine</text>
<text text-anchor="middle" x="675.83" y="-74.5" font-family="Helvetica,sans-Serif" font-size="10.00">/await.hpp</text>
</a>
</g>
</g>
<!-- Node10&#45;&gt;Node20 -->
<g id="edge27" class="edge">
<title>Node10&#45;&gt;Node20</title>
<path fill="none" stroke="midnightblue" d="M807.95,-199.02C785.15,-191.07 760,-179.95 739.83,-165 714.82,-146.47 694.38,-115.76 683.76,-97.8"/>
<polygon fill="midnightblue" stroke="midnightblue" points="806.96,-202.38 817.55,-202.23 809.18,-195.74 806.96,-202.38"/>
</g>
<!-- Node21 -->
<g id="node21" class="node">
<title>Node21</title>
<g id="a_node21"><a xlink:href="await__group_8hpp.html" target="_top" xlink:title=" ">
<polygon fill="none" stroke="black" points="748.83,-134.5 748.83,-164.5 866.83,-164.5 866.83,-134.5 748.83,-134.5"/>
<text text-anchor="start" x="756.83" y="-152.5" font-family="Helvetica,sans-Serif" font-size="10.00">include/yaclib/coroutine</text>
<text text-anchor="middle" x="807.83" y="-141.5" font-family="Helvetica,sans-Serif" font-size="10.00">/await_group.hpp</text>
</a>
</g>
</g>
<!-- Node10&#45;&gt;Node21 -->
<g id="edge28" class="edge">
<title>Node10&#45;&gt;Node21</title>
<path fill="none" stroke="midnightblue" d="M849.34,-194.02C840.1,-184.34 829.45,-173.17 821.25,-164.58"/>
<polygon fill="midnightblue" stroke="midnightblue" points="846.94,-196.58 856.37,-201.4 852,-191.74 846.94,-196.58"/>
</g>
<!-- Node22 -->
<g id="node22" class="node">
<title>Node22</title>
<g id="a_node22"><a xlink:href="await__awaiter_8hpp.html" target="_top" xlink:title=" ">
<polygon fill="none" stroke="black" points="568.83,-134.5 568.83,-164.5 692.83,-164.5 692.83,-134.5 568.83,-134.5"/>
<text text-anchor="start" x="576.83" y="-152.5" font-family="Helvetica,sans-Serif" font-size="10.00">include/yaclib/coroutine</text>
<text text-anchor="middle" x="630.83" y="-141.5" font-family="Helvetica,sans-Serif" font-size="10.00">/detail/await_awaiter.hpp</text>
</a>
</g>
</g>
<!-- Node10&#45;&gt;Node22 -->
<g id="edge29" class="edge">
<title>Node10&#45;&gt;Node22</title>
<path fill="none" stroke="midnightblue" d="M808.6,-198.85C769.64,-188.25 719.72,-174.68 682.71,-164.61"/>
<polygon fill="midnightblue" stroke="midnightblue" points="807.69,-202.23 818.26,-201.48 809.53,-195.47 807.69,-202.23"/>
</g>
<!-- Node23 -->
<g id="node23" class="node">
<title>Node23</title>
<g id="a_node23"><a xlink:href="future__traits_8hpp.html" target="_top" xlink:title=" ">
<polygon fill="none" stroke="black" points="1418.83,-134.5 1418.83,-164.5 1536.83,-164.5 1536.83,-134.5 1418.83,-134.5"/>
<text text-anchor="start" x="1426.83" y="-152.5" font-family="Helvetica,sans-Serif" font-size="10.00">include/yaclib/coroutine</text>
<text text-anchor="middle" x="1477.83" y="-141.5" font-family="Helvetica,sans-Serif" font-size="10.00">/future_traits.hpp</text>
</a>
</g>
</g>
<!-- Node10&#45;&gt;Node23 -->
<g id="edge31" class="edge">
<title>Node10&#45;&gt;Node23</title>
<path fill="none" stroke="midnightblue" d="M932.29,-211.68C1032.39,-205.09 1234.75,-189.85 1404.83,-165 1409.3,-164.35 1413.92,-163.6 1418.55,-162.8"/>
<polygon fill="midnightblue" stroke="midnightblue" points="931.81,-208.2 922.06,-212.34 932.26,-215.19 931.81,-208.2"/>
</g>
<!-- Node24 -->
<g id="node24" class="node">
<title>Node24</title>
<g id="a_node24"><a xlink:href="future__impl_8cpp.html" target="_top" xlink:title=" ">
<polygon fill="none" stroke="black" points="998.83,-140 998.83,-159 1126.83,-159 1126.83,-140 998.83,-140"/>
<text text-anchor="middle" x="1062.83" y="-147" font-family="Helvetica,sans-Serif" font-size="10.00">src/async/future_impl.cpp</text>
</a>
</g>
</g>
<!-- Node10&#45;&gt;Node24 -->
<g id="edge32" class="edge">
<title>Node10&#45;&gt;Node24</title>
<path fill="none" stroke="midnightblue" d="M921.47,-198.11C959.01,-185.46 1008.21,-168.89 1037.57,-159.01"/>
<polygon fill="midnightblue" stroke="midnightblue" points="920.06,-194.89 911.7,-201.4 922.3,-201.52 920.06,-194.89"/>
</g>
<!-- Node11&#45;&gt;Node3 -->
<g id="edge11" class="edge">
<title>Node11&#45;&gt;Node3</title>
<path fill="none" stroke="midnightblue" d="M466.51,-124.99C469.9,-115.8 473.67,-105.58 476.63,-97.58"/>
<polygon fill="midnightblue" stroke="midnightblue" points="463.21,-123.8 463.03,-134.4 469.78,-126.23 463.21,-123.8"/>
</g>
<!-- Node11&#45;&gt;Node6 -->
<g id="edge12" class="edge">
<title>Node11&#45;&gt;Node6</title>
<path fill="none" stroke="midnightblue" d="M420.25,-129.85C399.53,-119.58 374.24,-107.03 355.19,-97.58"/>
<polygon fill="midnightblue" stroke="midnightblue" points="418.89,-133.09 429.4,-134.4 422,-126.82 418.89,-133.09"/>
</g>
<!-- Node12&#45;&gt;Node9 -->
<g id="edge14" class="edge">
<title>Node12&#45;&gt;Node9</title>
<path fill="none" stroke="midnightblue" d="M243.44,-161.79C373.72,-186.9 685.91,-247.06 813.77,-271.7"/>
<polygon fill="midnightblue" stroke="midnightblue" points="243.74,-158.29 233.26,-159.83 242.42,-165.16 243.74,-158.29"/>
</g>
<!-- Node15 -->
<g id="node15" class="node">
<title>Node15</title>
<g id="a_node15"><a xlink:href="wait__group_8cpp.html" target="_top" xlink:title=" ">
<polygon fill="none" stroke="black" points="873.33,-73 873.33,-92 992.33,-92 992.33,-73 873.33,-73"/>
<text text-anchor="middle" x="932.83" y="-80" font-family="Helvetica,sans-Serif" font-size="10.00">src/algo/wait_group.cpp</text>
</a>
</g>
</g>
<!-- Node14&#45;&gt;Node15 -->
<g id="edge17" class="edge">
<title>Node14&#45;&gt;Node15</title>
<path fill="none" stroke="midnightblue" d="M932.83,-124.25C932.83,-113.02 932.83,-100.38 932.83,-92.19"/>
<polygon fill="midnightblue" stroke="midnightblue" points="929.33,-124.4 932.83,-134.4 936.33,-124.4 929.33,-124.4"/>
</g>
<!-- Node17&#45;&gt;Node18 -->
<g id="edge22" class="edge">
<title>Node17&#45;&gt;Node18</title>
<path fill="none" stroke="midnightblue" d="M1574.45,-129.02C1557.64,-118.9 1537.49,-106.77 1522.21,-97.58"/>
<polygon fill="midnightblue" stroke="midnightblue" points="1573.02,-132.24 1583.39,-134.4 1576.63,-126.24 1573.02,-132.24"/>
</g>
<!-- Node19&#45;&gt;Node4 -->
<g id="edge25" class="edge">
<title>Node19&#45;&gt;Node4</title>
<path fill="none" stroke="midnightblue" d="M1277.51,-129.3C1230.91,-102.44 1147.36,-54.27 1106.16,-30.52"/>
<polygon fill="midnightblue" stroke="midnightblue" points="1275.91,-132.41 1286.32,-134.37 1279.4,-126.35 1275.91,-132.41"/>
</g>
<!-- Node19&#45;&gt;Node7 -->
<g id="edge26" class="edge">
<title>Node19&#45;&gt;Node7</title>
<path fill="none" stroke="midnightblue" d="M1251.47,-131.8C1189.26,-114.56 1088.55,-87.37 1000.83,-67 932.25,-51.07 852.42,-35.45 801.77,-25.9"/>
<polygon fill="midnightblue" stroke="midnightblue" points="1250.54,-135.18 1261.11,-134.48 1252.41,-128.43 1250.54,-135.18"/>
</g>
<!-- Node19&#45;&gt;Node18 -->
<g id="edge24" class="edge">
<title>Node19&#45;&gt;Node18</title>
<path fill="none" stroke="midnightblue" d="M1361.18,-131.09C1391.52,-120.6 1429.68,-107.41 1458.11,-97.58"/>
<polygon fill="midnightblue" stroke="midnightblue" points="1359.93,-127.82 1351.62,-134.4 1362.21,-134.44 1359.93,-127.82"/>
</g>
<!-- Node22&#45;&gt;Node20 -->
<g id="edge30" class="edge">
<title>Node22&#45;&gt;Node20</title>
<path fill="none" stroke="midnightblue" d="M646.29,-126.16C652.86,-116.68 660.3,-105.92 666.08,-97.58"/>
<polygon fill="midnightblue" stroke="midnightblue" points="643.4,-124.18 640.59,-134.4 649.16,-128.17 643.4,-124.18"/>
</g>
<!-- Node25&#45;&gt;Node17 -->
<g id="edge37" class="edge">
<title>Node25&#45;&gt;Node17</title>
<path fill="none" stroke="midnightblue" d="M1608.71,-191.4C1608.3,-182.37 1607.84,-172.41 1607.47,-164.58"/>
<polygon fill="midnightblue" stroke="midnightblue" points="1605.22,-191.57 1609.17,-201.4 1612.21,-191.25 1605.22,-191.57"/>
</g>
<!-- Node25&#45;&gt;Node18 -->
<g id="edge39" class="edge">
<title>Node25&#45;&gt;Node18</title>
<path fill="none" stroke="midnightblue" d="M1640.53,-195.04C1661.56,-178.45 1683.12,-154.53 1667.83,-134 1640.84,-97.78 1588.85,-86.53 1549.62,-83.5"/>
<polygon fill="midnightblue" stroke="midnightblue" points="1638.16,-192.43 1632.26,-201.23 1642.36,-198.03 1638.16,-192.43"/>
</g>
<!-- Node26 -->
<g id="node26" class="node">
<title>Node26</title>
<g id="a_node26"><a xlink:href="promise__impl_8cpp.html" target="_top" xlink:title=" ">
<polygon fill="none" stroke="black" points="1715.33,-140 1715.33,-159 1852.33,-159 1852.33,-140 1715.33,-140"/>
<text text-anchor="middle" x="1783.83" y="-147" font-family="Helvetica,sans-Serif" font-size="10.00">src/async/promise_impl.cpp</text>
</a>
</g>
</g>
<!-- Node25&#45;&gt;Node26 -->
<g id="edge38" class="edge">
<title>Node25&#45;&gt;Node26</title>
<path fill="none" stroke="midnightblue" d="M1657.25,-197.78C1690.99,-185.18 1734.82,-168.81 1761.05,-159.01"/>
<polygon fill="midnightblue" stroke="midnightblue" points="1655.72,-194.62 1647.58,-201.4 1658.17,-201.18 1655.72,-194.62"/>
</g>
<!-- Node28&#45;&gt;Node23 -->
<g id="edge47" class="edge">
<title>Node28&#45;&gt;Node23</title>
<path fill="none" stroke="midnightblue" d="M1395.93,-329.86C1384.41,-321.96 1373.2,-311.67 1366.83,-299 1360.63,-286.69 1361.73,-280.8 1366.83,-268 1384.97,-222.37 1430.18,-184.21 1456.97,-164.64"/>
<polygon fill="midnightblue" stroke="midnightblue" points="1394.39,-333.03 1404.71,-335.44 1398.15,-327.13 1394.39,-333.03"/>
</g>
<!-- Node29 -->
<g id="node29" class="node">
<title>Node29</title>
<g id="a_node29"><a xlink:href="async__mutex_8hpp.html" target="_top" xlink:title=" ">
<polygon fill="none" stroke="black" points="1375.83,-268.5 1375.83,-298.5 1493.83,-298.5 1493.83,-268.5 1375.83,-268.5"/>
<text text-anchor="start" x="1383.83" y="-286.5" font-family="Helvetica,sans-Serif" font-size="10.00">include/yaclib/coroutine</text>
<text text-anchor="middle" x="1434.83" y="-275.5" font-family="Helvetica,sans-Serif" font-size="10.00">/async_mutex.hpp</text>
</a>
</g>
</g>
<!-- Node28&#45;&gt;Node29 -->
<g id="edge42" class="edge">
<title>Node28&#45;&gt;Node29</title>
<path fill="none" stroke="midnightblue" d="M1434.83,-325.11C1434.83,-316.15 1434.83,-306.32 1434.83,-298.58"/>
<polygon fill="midnightblue" stroke="midnightblue" points="1431.33,-325.4 1434.83,-335.4 1438.33,-325.4 1431.33,-325.4"/>
</g>
<!-- Node30 -->
<g id="node30" class="node">
<title>Node30</title>
<g id="a_node30"><a xlink:href="on__awaiter_8hpp.html" target="_top" xlink:title=" ">
<polygon fill="none" stroke="black" points="1704.83,-268.5 1704.83,-298.5 1822.83,-298.5 1822.83,-268.5 1704.83,-268.5"/>
<text text-anchor="start" x="1712.83" y="-286.5" font-family="Helvetica,sans-Serif" font-size="10.00">include/yaclib/coroutine</text>
<text text-anchor="middle" x="1763.83" y="-275.5" font-family="Helvetica,sans-Serif" font-size="10.00">/detail/on_awaiter.hpp</text>
</a>
</g>
</g>
<!-- Node28&#45;&gt;Node30 -->
<g id="edge43" class="edge">
<title>Node28&#45;&gt;Node30</title>
<path fill="none" stroke="midnightblue" d="M1505.89,-334.8C1580.04,-319.93 1654.37,-305.51 1704.64,-295.84"/>
<polygon fill="midnightblue" stroke="midnightblue" points="1505.01,-331.4 1495.9,-336.8 1506.39,-338.27 1505.01,-331.4"/>
</g>
<!-- Node31 -->
<g id="node31" class="node">
<title>Node31</title>
<g id="a_node31"><a xlink:href="on_8hpp.html" target="_top" xlink:title=" ">
<polygon fill="none" stroke="black" points="1859.83,-201.5 1859.83,-231.5 1977.83,-231.5 1977.83,-201.5 1859.83,-201.5"/>
<text text-anchor="start" x="1867.83" y="-219.5" font-family="Helvetica,sans-Serif" font-size="10.00">include/yaclib/coroutine</text>
<text text-anchor="middle" x="1918.83" y="-208.5" font-family="Helvetica,sans-Serif" font-size="10.00">/on.hpp</text>
</a>
</g>
</g>
<!-- Node30&#45;&gt;Node31 -->
<g id="edge44" class="edge">
<title>Node30&#45;&gt;Node31</title>
<path fill="none" stroke="midnightblue" d="M1806.97,-264.41C1831.72,-254.03 1862.32,-241.2 1885.26,-231.58"/>
<polygon fill="midnightblue" stroke="midnightblue" points="1805.33,-261.3 1797.46,-268.4 1808.03,-267.76 1805.33,-261.3"/>
</g>
<!-- Node33 -->
<g id="node33" class="node">
<title>Node33</title>
<g id="a_node33"><a xlink:href="on__awaiter_8cpp.html" target="_top" xlink:title=" ">
<polygon fill="none" stroke="black" points="1693.33,-207 1693.33,-226 1834.33,-226 1834.33,-207 1693.33,-207"/>
<text text-anchor="middle" x="1763.83" y="-214" font-family="Helvetica,sans-Serif" font-size="10.00">src/coroutine/on_awaiter.cpp</text>
</a>
</g>
</g>
<!-- Node30&#45;&gt;Node33 -->
<g id="edge46" class="edge">
<title>Node30&#45;&gt;Node33</title>
<path fill="none" stroke="midnightblue" d="M1763.83,-258.25C1763.83,-247.02 1763.83,-234.38 1763.83,-226.19"/>
<polygon fill="midnightblue" stroke="midnightblue" points="1760.33,-258.4 1763.83,-268.4 1767.33,-258.4 1760.33,-258.4"/>
</g>
<!-- Node32 -->
<g id="node32" class="node">
<title>Node32</title>
<g id="a_node32"><a xlink:href="on_8cpp.html" target="_top" xlink:title=" ">
<polygon fill="none" stroke="black" points="1870.83,-140 1870.83,-159 1974.83,-159 1974.83,-140 1870.83,-140"/>
<text text-anchor="middle" x="1922.83" y="-147" font-family="Helvetica,sans-Serif" font-size="10.00">src/coroutine/on.cpp</text>
</a>
</g>
</g>
<!-- Node31&#45;&gt;Node32 -->
<g id="edge45" class="edge">
<title>Node31&#45;&gt;Node32</title>
<path fill="none" stroke="midnightblue" d="M1920.32,-191.25C1921.01,-180.02 1921.79,-167.38 1922.29,-159.19"/>
<polygon fill="midnightblue" stroke="midnightblue" points="1916.81,-191.2 1919.69,-201.4 1923.8,-191.63 1916.81,-191.2"/>
</g>
</g>
</svg>
        <g id="navigator" transform="translate(0 0)" fill="#404254">
                <rect fill="#f2f5e9" fill-opacity="0.5" stroke="#606060" stroke-width=".5" x="0" y="0" width="60" height="60"/>
                <use id="zoomplus" xlink:href="#zoomPlus" x="17" y="9" onmousedown="handleZoom(evt,'in')"/>
                <use id="zoomminus" xlink:href="#zoomMin" x="42" y="9" onmousedown="handleZoom(evt,'out')"/>
                <use id="reset" xlink:href="#resetDef" x="30" y="36" onmousedown="handleReset()"/>
                <g id="arrowUp" xlink:href="#dirArrow" transform="translate(30 24)" onmousedown="handlePan(0,-1)">
                  <use xlink:href="#rim" fill="#404040">
                        <set attributeName="fill" to="#808080" begin="arrowUp.mouseover" end="arrowUp.mouseout"/>
                  </use>
                  <path fill="none" stroke="white" stroke-width="1.5" d="M0,-3.0v7 M-2.5,-0.5L0,-3.0L2.5,-0.5"/>
                </g>
                <g id="arrowRight" xlink:href="#dirArrow" transform="rotate(90) translate(36 -43)" onmousedown="handlePan(1,0)">
                  <use xlink:href="#rim" fill="#404040">
                        <set attributeName="fill" to="#808080" begin="arrowRight.mouseover" end="arrowRight.mouseout"/>
                  </use>
                  <path fill="none" stroke="white" stroke-width="1.5" d="M0,-3.0v7 M-2.5,-0.5L0,-3.0L2.5,-0.5"/>
                </g>
                <g id="arrowDown" xlink:href="#dirArrow" transform="rotate(180) translate(-30 -48)" onmousedown="handlePan(0,1)">
                  <use xlink:href="#rim" fill="#404040">
                        <set attributeName="fill" to="#808080" begin="arrowDown.mouseover" end="arrowDown.mouseout"/>
                  </use>
                  <path fill="none" stroke="white" stroke-width="1.5" d="M0,-3.0v7 M-2.5,-0.5L0,-3.0L2.5,-0.5"/>
                </g>
                <g id="arrowLeft" xlink:href="#dirArrow" transform="rotate(270) translate(-36 17)" onmousedown="handlePan(-1,0)">
                  <use xlink:href="#rim" fill="#404040">
                        <set attributeName="fill" to="#808080" begin="arrowLeft.mouseover" end="arrowLeft.mouseout"/>
                  </use>
                  <path fill="none" stroke="white" stroke-width="1.5" d="M0,-3.0v7 M-2.5,-0.5L0,-3.0L2.5,-0.5"/>
                </g>
        </g>
        <svg viewBox="0 0 15 15" width="100%" height="30px" preserveAspectRatio="xMaxYMin meet">
         <g id="arrow_out" transform="scale(0.3 0.3)">
          <a xlink:href="result__core_8hpp__dep__incl_org.svg" target="_base">
           <rect id="button" ry="5" rx="5" y="6" x="6" height="38" width="38"
                fill="#f2f5e9" fill-opacity="0.5" stroke="#606060" stroke-width="1.0"/>
           <path id="arrow"
             d="M 11.500037,31.436501 C 11.940474,20.09759 22.043105,11.32322 32.158766,21.979434 L 37.068811,17.246167 C 37.068811,17.246167 37.088388,32 37.088388,32 L 22.160133,31.978069 C 22.160133,31.978069 26.997745,27.140456 26.997745,27.140456 C 18.528582,18.264221 13.291696,25.230495 11.500037,31.436501 z"
             style="fill:#404040;"/>
          </a>
         </g>
        </svg>
</svg>
