<?xml version="1.0" encoding="UTF-8" standalone="no"?>
<!DOCTYPE svg PUBLIC "-//W3C//DTD SVG 1.1//EN"
 "http://www.w3.org/Graphics/SVG/1.1/DTD/svg11.dtd">
<!-- Generated by graphviz version 9.0.0 (20230911.1827)
 -->
<!-- Title: include/yaclib/fault/detail/fiber/scheduler.hpp Pages: 1 -->
<!--zoomable 405 -->

<svg id="main" version="1.1" xmlns="http://www.w3.org/2000/svg" xmlns:xlink="http://www.w3.org/1999/xlink" xml:space="preserve" onload="init(evt)">
<style type="text/css"><![CDATA[
.node, .edge {opacity: 0.7;}
.node.selected, .edge.selected {opacity: 1;}
.edge:hover path { stroke: red; }
.edge:hover polygon { stroke: red; fill: red; }
]]></style>

<defs>
  <circle id="rim" cx="0" cy="0" r="7"/>
  <circle id="rim2" cx="0" cy="0" r="3.5"/>
  <g id="zoomPlus">
    <use xlink:href="#rim" fill="#404040"><set attributeName="fill" to="#808080" begin="zoomplus.mouseover" end="zoomplus.mouseout"/></use>
    <path d="M-4,0h8M0,-4v8" fill="none" stroke="white" stroke-width="1.5" pointer-events="none"/>
  </g>
  <g id="zoomMin">
    <use xlink:href="#rim" fill="#404040"><set attributeName="fill" to="#808080" begin="zoomminus.mouseover" end="zoomminus.mouseout"/></use>
    <path d="M-4,0h8" fill="none" stroke="white" stroke-width="1.5" pointer-events="none"/>
  </g>
  <g id="arrowUp" transform="translate(30 24)">
    <use xlink:href="#rim"/>
    <path pointer-events="none" fill="none" stroke="white" stroke-width="1.5" d="M0,-3.0v7 M-2.5,-0.5L0,-3.0L2.5,-0.5"/>
  </g>
  <g id="arrowRight" transform="rotate(90) translate(36 -43)">
    <use xlink:href="#rim"/>
    <path pointer-events="none" fill="none" stroke="white" stroke-width="1.5" d="M0,-3.0v7 M-2.5,-0.5L0,-3.0L2.5,-0.5"/>
  </g>
  <g id="arrowDown" transform="rotate(180) translate(-30 -48)">
    <use xlink:href="#rim"/>
    <path pointer-events="none" fill="none" stroke="white" stroke-width="1.5" d="M0,-3.0v7 M-2.5,-0.5L0,-3.0L2.5,-0.5"/>
  </g>
  <g id="arrowLeft" transform="rotate(270) translate(-36 17)">
    <use xlink:href="#rim"/>
    <path pointer-events="none" fill="none" stroke="white" stroke-width="1.5" d="M0,-3.0v7 M-2.5,-0.5L0,-3.0L2.5,-0.5"/>
  </g>
  <g id="resetDef">
    <use xlink:href="#rim2" fill="#404040"><set attributeName="fill" to="#808080" begin="reset.mouseover" end="reset.mouseout"/></use>
  </g>
</defs>
<script type="application/ecmascript">
var viewWidth = 1287;
var viewHeight = 405;
var sectionId = 'dynsection-1';
</script>
<script type="application/ecmascript" xlink:href="svg.min.js"/>
<svg id="graph" class="graph">
<g id="viewport">
<title>include/yaclib/fault/detail/fiber/scheduler.hpp</title>
<!-- Node1 -->
<g id="Node000001" class="node">
<title>Node1</title>
<g id="a_Node000001"><a xlink:title=" ">
<polygon fill="#999999" stroke="#666666" points="757.25,-396.75 631,-396.75 631,-366.25 757.25,-366.25 757.25,-396.75"/>
<text text-anchor="start" x="639" y="-383.25" font-family="Helvetica,sans-Serif" font-size="10.00">include/yaclib/fault</text>
<text text-anchor="middle" x="694.12" y="-372" font-family="Helvetica,sans-Serif" font-size="10.00">/detail/fiber/scheduler.hpp</text>
</a>
</g>
</g>
<!-- Node2 -->
<g id="Node000002" class="node">
<title>Node2</title>
<g id="a_Node000002"><a xlink:href="queue_8hpp.html" target="_top" xlink:title=" ">
<polygon fill="white" stroke="#666666" points="655.38,-252.5 544.88,-252.5 544.88,-222 655.38,-222 655.38,-252.5"/>
<text text-anchor="start" x="552.88" y="-239" font-family="Helvetica,sans-Serif" font-size="10.00">include/yaclib/fault</text>
<text text-anchor="middle" x="600.12" y="-227.75" font-family="Helvetica,sans-Serif" font-size="10.00">/detail/fiber/queue.hpp</text>
</a>
</g>
</g>
<!-- Node1&#45;&gt;Node2 -->
<g id="edge1_Node000001_Node000002" class="edge">
<title>Node1&#45;&gt;Node2</title>
<g id="a_edge1_Node000001_Node000002"><a xlink:title=" ">
<path fill="none" stroke="#63b8ff" d="M619.94,-366.69C600.15,-359.26 581,-347.83 569.12,-330.25 552.61,-305.81 573.16,-271.79 587.82,-252.71"/>
<polygon fill="#63b8ff" stroke="#63b8ff" points="618.6,-369.93 629.19,-369.83 620.85,-363.3 618.6,-369.93"/>
</a>
</g>
</g>
<!-- Node17 -->
<g id="Node000017" class="node">
<title>Node17</title>
<g id="a_Node000017"><a xlink:href="fault_2detail_2fiber_2thread_8hpp.html" target="_top" xlink:title=" ">
<polygon fill="white" stroke="#666666" points="395.75,-180.38 284.5,-180.38 284.5,-149.88 395.75,-149.88 395.75,-180.38"/>
<text text-anchor="start" x="292.5" y="-166.88" font-family="Helvetica,sans-Serif" font-size="10.00">include/yaclib/fault</text>
<text text-anchor="middle" x="340.12" y="-155.62" font-family="Helvetica,sans-Serif" font-size="10.00">/detail/fiber/thread.hpp</text>
</a>
</g>
</g>
<!-- Node1&#45;&gt;Node17 -->
<g id="edge24_Node000001_Node000017" class="edge">
<title>Node1&#45;&gt;Node17</title>
<g id="a_edge24_Node000001_Node000017"><a xlink:title=" ">
<path fill="none" stroke="#63b8ff" d="M633.81,-362.2C609.88,-353.89 582.54,-343.03 559.12,-330.25 476.55,-285.17 390.7,-211.64 356.04,-180.64"/>
<polygon fill="#63b8ff" stroke="#63b8ff" points="632.51,-365.46 643.1,-365.35 634.75,-358.83 632.51,-365.46"/>
</a>
</g>
</g>
<!-- Node20 -->
<g id="Node000020" class="node">
<title>Node20</title>
<g id="a_Node000020"><a xlink:href="system__clock_8hpp.html" target="_top" xlink:title=" ">
<polygon fill="white" stroke="#666666" points="676,-330.25 578.25,-330.25 578.25,-288.5 676,-288.5 676,-330.25"/>
<text text-anchor="start" x="586.25" y="-316.75" font-family="Helvetica,sans-Serif" font-size="10.00">include/yaclib/fault</text>
<text text-anchor="start" x="586.25" y="-305.5" font-family="Helvetica,sans-Serif" font-size="10.00">/detail/fiber/system</text>
<text text-anchor="middle" x="627.12" y="-294.25" font-family="Helvetica,sans-Serif" font-size="10.00">_clock.hpp</text>
</a>
</g>
</g>
<!-- Node1&#45;&gt;Node20 -->
<g id="edge21_Node000001_Node000020" class="edge">
<title>Node1&#45;&gt;Node20</title>
<g id="a_edge21_Node000001_Node000020"><a xlink:title=" ">
<path fill="none" stroke="#63b8ff" d="M672.39,-357.75C664.08,-349.05 654.66,-339.2 646.58,-330.74"/>
<polygon fill="#63b8ff" stroke="#63b8ff" points="669.76,-360.06 679.2,-364.88 674.82,-355.23 669.76,-360.06"/>
</a>
</g>
</g>
<!-- Node22 -->
<g id="Node000022" class="node">
<title>Node22</title>
<g id="a_Node000022"><a xlink:href="scheduler_8cpp.html" target="_top" xlink:title=" ">
<polygon fill="white" stroke="#666666" points="829.75,-319 694.5,-319 694.5,-299.75 829.75,-299.75 829.75,-319"/>
<text text-anchor="middle" x="762.12" y="-305.5" font-family="Helvetica,sans-Serif" font-size="10.00">src/fault/fiber/scheduler.cpp</text>
</a>
</g>
</g>
<!-- Node1&#45;&gt;Node22 -->
<g id="edge25_Node000001_Node000022" class="edge">
<title>Node1&#45;&gt;Node22</title>
<g id="a_edge25_Node000001_Node000022"><a xlink:title=" ">
<path fill="none" stroke="#63b8ff" d="M716.15,-357.79C728.93,-344.61 744.3,-328.76 753.63,-319.13"/>
<polygon fill="#63b8ff" stroke="#63b8ff" points="713.72,-355.27 709.27,-364.88 718.74,-360.14 713.72,-355.27"/>
</a>
</g>
</g>
<!-- Node23 -->
<g id="Node000023" class="node">
<title>Node23</title>
<g id="a_Node000023"><a xlink:href="thread__local__proxy_8cpp.html" target="_top" xlink:title=" ">
<polygon fill="white" stroke="#666666" points="950.25,-324.62 848,-324.62 848,-294.12 950.25,-294.12 950.25,-324.62"/>
<text text-anchor="start" x="856" y="-311.12" font-family="Helvetica,sans-Serif" font-size="10.00">src/fault/fiber/thread</text>
<text text-anchor="middle" x="899.12" y="-299.88" font-family="Helvetica,sans-Serif" font-size="10.00">_local_proxy.cpp</text>
</a>
</g>
</g>
<!-- Node1&#45;&gt;Node23 -->
<g id="edge26_Node000001_Node000023" class="edge">
<title>Node1&#45;&gt;Node23</title>
<g id="a_edge26_Node000001_Node000023"><a xlink:title=" ">
<path fill="none" stroke="#63b8ff" d="M747.73,-362.16C781.55,-350.59 824.65,-335.85 856.21,-325.06"/>
<polygon fill="#63b8ff" stroke="#63b8ff" points="746.86,-358.76 738.53,-365.31 749.13,-365.38 746.86,-358.76"/>
</a>
</g>
</g>
<!-- Node24 -->
<g id="Node000024" class="node">
<title>Node24</title>
<g id="a_Node000024"><a xlink:href="wakeup__helper_8cpp.html" target="_top" xlink:title=" ">
<polygon fill="white" stroke="#666666" points="1077.62,-324.62 968.62,-324.62 968.62,-294.12 1077.62,-294.12 1077.62,-324.62"/>
<text text-anchor="start" x="976.62" y="-311.12" font-family="Helvetica,sans-Serif" font-size="10.00">src/fault/fiber/wakeup</text>
<text text-anchor="middle" x="1023.12" y="-299.88" font-family="Helvetica,sans-Serif" font-size="10.00">_helper.cpp</text>
</a>
</g>
</g>
<!-- Node1&#45;&gt;Node24 -->
<g id="edge27_Node000001_Node000024" class="edge">
<title>Node1&#45;&gt;Node24</title>
<g id="a_edge27_Node000001_Node000024"><a xlink:title=" ">
<path fill="none" stroke="#63b8ff" d="M768.82,-368.67C822.18,-359.65 895.5,-346.11 959.12,-330.25 965.33,-328.7 971.83,-326.9 978.2,-325.03"/>
<polygon fill="#63b8ff" stroke="#63b8ff" points="768.52,-365.17 759.24,-370.28 769.68,-372.08 768.52,-365.17"/>
</a>
</g>
</g>
<!-- Node3 -->
<g id="Node000003" class="node">
<title>Node3</title>
<g id="a_Node000003"><a xlink:href="fiber_2atomic__wait_8hpp.html" target="_top" xlink:title=" ">
<polygon fill="white" stroke="#666666" points="1156.25,-186 1060,-186 1060,-144.25 1156.25,-144.25 1156.25,-186"/>
<text text-anchor="start" x="1068" y="-172.5" font-family="Helvetica,sans-Serif" font-size="10.00">include/yaclib/fault</text>
<text text-anchor="start" x="1068" y="-161.25" font-family="Helvetica,sans-Serif" font-size="10.00">/detail/fiber/atomic</text>
<text text-anchor="middle" x="1108.12" y="-150" font-family="Helvetica,sans-Serif" font-size="10.00">_wait.hpp</text>
</a>
</g>
</g>
<!-- Node2&#45;&gt;Node3 -->
<g id="edge2_Node000002_Node000003" class="edge">
<title>Node2&#45;&gt;Node3</title>
<g id="a_edge2_Node000002_Node000003"><a xlink:title=" ">
<path fill="none" stroke="#63b8ff" d="M666.8,-221.88C825.01,-197.51 868.93,-211.67 1023.12,-186 1035.08,-184.01 1047.87,-181.32 1059.8,-178.57"/>
<polygon fill="#63b8ff" stroke="#63b8ff" points="666.54,-218.38 657.21,-223.39 667.63,-225.29 666.54,-218.38"/>
</a>
</g>
</g>
<!-- Node6 -->
<g id="Node000006" class="node">
<title>Node6</title>
<g id="a_Node000006"><a xlink:href="fault_2detail_2fiber_2mutex_8hpp.html" target="_top" xlink:title=" ">
<polygon fill="white" stroke="#666666" points="524.38,-180.38 413.88,-180.38 413.88,-149.88 524.38,-149.88 524.38,-180.38"/>
<text text-anchor="start" x="421.88" y="-166.88" font-family="Helvetica,sans-Serif" font-size="10.00">include/yaclib/fault</text>
<text text-anchor="middle" x="469.12" y="-155.62" font-family="Helvetica,sans-Serif" font-size="10.00">/detail/fiber/mutex.hpp</text>
</a>
</g>
</g>
<!-- Node2&#45;&gt;Node6 -->
<g id="edge5_Node000002_Node000006" class="edge">
<title>Node2&#45;&gt;Node6</title>
<g id="a_edge5_Node000002_Node000006"><a xlink:title=" ">
<path fill="none" stroke="#63b8ff" d="M562.74,-216.24C541.65,-204.95 515.76,-191.09 496.55,-180.81"/>
<polygon fill="#63b8ff" stroke="#63b8ff" points="560.86,-219.2 571.33,-220.84 564.16,-213.03 560.86,-219.2"/>
</a>
</g>
</g>
<!-- Node9 -->
<g id="Node000009" class="node">
<title>Node9</title>
<g id="a_Node000009"><a xlink:href="fault_2detail_2fiber_2timed__mutex_8hpp.html" target="_top" xlink:title=" ">
<polygon fill="white" stroke="#666666" points="539,-102.62 399.25,-102.62 399.25,-72.12 539,-72.12 539,-102.62"/>
<text text-anchor="start" x="407.25" y="-89.12" font-family="Helvetica,sans-Serif" font-size="10.00">include/yaclib/fault</text>
<text text-anchor="middle" x="469.12" y="-77.88" font-family="Helvetica,sans-Serif" font-size="10.00">/detail/fiber/timed_mutex.hpp</text>
</a>
</g>
</g>
<!-- Node2&#45;&gt;Node9 -->
<g id="edge19_Node000002_Node000009" class="edge">
<title>Node2&#45;&gt;Node9</title>
<g id="a_edge19_Node000002_Node000009"><a xlink:title=" ">
<path fill="none" stroke="#63b8ff" d="M584.82,-212.26C572.05,-193.01 552.8,-165.75 533.12,-144.25 519.18,-129.02 501.35,-113.74 488.05,-103.01"/>
<polygon fill="#63b8ff" stroke="#63b8ff" points="581.82,-214.06 590.22,-220.52 587.68,-210.23 581.82,-214.06"/>
</a>
</g>
</g>
<!-- Node11 -->
<g id="Node000011" class="node">
<title>Node11</title>
<g id="a_Node000011"><a xlink:href="fault_2detail_2fiber_2recursive__mutex_8hpp.html" target="_top" xlink:title=" ">
<polygon fill="white" stroke="#666666" points="734.12,-186 628.12,-186 628.12,-144.25 734.12,-144.25 734.12,-186"/>
<text text-anchor="start" x="636.12" y="-172.5" font-family="Helvetica,sans-Serif" font-size="10.00">include/yaclib/fault</text>
<text text-anchor="start" x="636.12" y="-161.25" font-family="Helvetica,sans-Serif" font-size="10.00">/detail/fiber/recursive</text>
<text text-anchor="middle" x="681.12" y="-150" font-family="Helvetica,sans-Serif" font-size="10.00">_mutex.hpp</text>
</a>
</g>
</g>
<!-- Node2&#45;&gt;Node11 -->
<g id="edge10_Node000002_Node000011" class="edge">
<title>Node2&#45;&gt;Node11</title>
<g id="a_edge10_Node000002_Node000011"><a xlink:title=" ">
<path fill="none" stroke="#63b8ff" d="M625.46,-214.31C635.73,-205.42 647.53,-195.21 657.61,-186.49"/>
<polygon fill="#63b8ff" stroke="#63b8ff" points="623.32,-211.54 618.05,-220.73 627.9,-216.83 623.32,-211.54"/>
</a>
</g>
</g>
<!-- Node12 -->
<g id="Node000012" class="node">
<title>Node12</title>
<g id="a_Node000012"><a xlink:href="fault_2detail_2fiber_2recursive__timed__mutex_8hpp.html" target="_top" xlink:title=" ">
<polygon fill="white" stroke="#666666" points="663.12,-108.25 557.12,-108.25 557.12,-66.5 663.12,-66.5 663.12,-108.25"/>
<text text-anchor="start" x="565.12" y="-94.75" font-family="Helvetica,sans-Serif" font-size="10.00">include/yaclib/fault</text>
<text text-anchor="start" x="565.12" y="-83.5" font-family="Helvetica,sans-Serif" font-size="10.00">/detail/fiber/recursive</text>
<text text-anchor="middle" x="610.12" y="-72.25" font-family="Helvetica,sans-Serif" font-size="10.00">_timed_mutex.hpp</text>
</a>
</g>
</g>
<!-- Node2&#45;&gt;Node12 -->
<g id="edge13_Node000002_Node000012" class="edge">
<title>Node2&#45;&gt;Node12</title>
<g id="a_edge13_Node000002_Node000012"><a xlink:title=" ">
<path fill="none" stroke="#63b8ff" d="M601.88,-210.28C603.84,-181.32 606.97,-135.08 608.75,-108.66"/>
<polygon fill="#63b8ff" stroke="#63b8ff" points="598.41,-209.81 601.22,-220.02 605.39,-210.28 598.41,-209.81"/>
</a>
</g>
</g>
<!-- Node14 -->
<g id="Node000014" class="node">
<title>Node14</title>
<g id="a_Node000014"><a xlink:href="fault_2detail_2fiber_2shared__mutex_8hpp.html" target="_top" xlink:title=" ">
<polygon fill="white" stroke="#666666" points="876.25,-186 780,-186 780,-144.25 876.25,-144.25 876.25,-186"/>
<text text-anchor="start" x="788" y="-172.5" font-family="Helvetica,sans-Serif" font-size="10.00">include/yaclib/fault</text>
<text text-anchor="start" x="788" y="-161.25" font-family="Helvetica,sans-Serif" font-size="10.00">/detail/fiber/shared</text>
<text text-anchor="middle" x="828.12" y="-150" font-family="Helvetica,sans-Serif" font-size="10.00">_mutex.hpp</text>
</a>
</g>
</g>
<!-- Node2&#45;&gt;Node14 -->
<g id="edge14_Node000002_Node000014" class="edge">
<title>Node2&#45;&gt;Node14</title>
<g id="a_edge14_Node000002_Node000014"><a xlink:title=" ">
<path fill="none" stroke="#63b8ff" d="M658.69,-218.24C696.19,-206.7 744.25,-191.92 779.61,-181.05"/>
<polygon fill="#63b8ff" stroke="#63b8ff" points="657.9,-214.82 649.37,-221.1 659.96,-221.51 657.9,-214.82"/>
</a>
</g>
</g>
<!-- Node2&#45;&gt;Node17 -->
<g id="edge17_Node000002_Node000017" class="edge">
<title>Node2&#45;&gt;Node17</title>
<g id="a_edge17_Node000002_Node000017"><a xlink:title=" ">
<path fill="none" stroke="#63b8ff" d="M533.6,-219.89C495.82,-210.4 447.7,-197.99 405.12,-186 399.33,-184.37 393.27,-182.6 387.27,-180.81"/>
<polygon fill="#63b8ff" stroke="#63b8ff" points="532.45,-223.21 543.01,-222.24 534.15,-216.42 532.45,-223.21"/>
</a>
</g>
</g>
<!-- Node19 -->
<g id="Node000019" class="node">
<title>Node19</title>
<g id="a_Node000019"><a xlink:href="queue_8cpp.html" target="_top" xlink:title=" ">
<polygon fill="white" stroke="#666666" points="1013.88,-174.75 894.38,-174.75 894.38,-155.5 1013.88,-155.5 1013.88,-174.75"/>
<text text-anchor="middle" x="954.12" y="-161.25" font-family="Helvetica,sans-Serif" font-size="10.00">src/fault/fiber/queue.cpp</text>
</a>
</g>
</g>
<!-- Node2&#45;&gt;Node19 -->
<g id="edge20_Node000002_Node000019" class="edge">
<title>Node2&#45;&gt;Node19</title>
<g id="a_edge20_Node000002_Node000019"><a xlink:title=" ">
<path fill="none" stroke="#63b8ff" d="M667.01,-221.73C764.41,-203.67 791.96,-206.96 885.12,-186 898.5,-182.99 913.12,-178.9 925.45,-175.21"/>
<polygon fill="#63b8ff" stroke="#63b8ff" points="666.42,-218.28 657.24,-223.57 667.72,-225.15 666.42,-218.28"/>
</a>
</g>
</g>
<!-- Node4 -->
<g id="Node000004" class="node">
<title>Node4</title>
<g id="a_Node000004"><a xlink:href="fault_2detail_2fiber_2atomic_8hpp.html" target="_top" xlink:title=" ">
<polygon fill="white" stroke="#666666" points="1164.88,-102.62 1051.38,-102.62 1051.38,-72.12 1164.88,-72.12 1164.88,-102.62"/>
<text text-anchor="start" x="1059.38" y="-89.12" font-family="Helvetica,sans-Serif" font-size="10.00">include/yaclib/fault</text>
<text text-anchor="middle" x="1108.12" y="-77.88" font-family="Helvetica,sans-Serif" font-size="10.00">/detail/fiber/atomic.hpp</text>
</a>
</g>
</g>
<!-- Node3&#45;&gt;Node4 -->
<g id="edge3_Node000003_Node000004" class="edge">
<title>Node3&#45;&gt;Node4</title>
<g id="a_edge3_Node000003_Node000004"><a xlink:title=" ">
<path fill="none" stroke="#63b8ff" d="M1108.12,-132.56C1108.12,-122.19 1108.12,-111.17 1108.12,-102.73"/>
<polygon fill="#63b8ff" stroke="#63b8ff" points="1104.63,-132.31 1108.13,-142.31 1111.63,-132.31 1104.63,-132.31"/>
</a>
</g>
</g>
<!-- Node5 -->
<g id="Node000005" class="node">
<title>Node5</title>
<g id="a_Node000005"><a xlink:href="fault_2detail_2fiber_2atomic__flag_8hpp.html" target="_top" xlink:title=" ">
<polygon fill="white" stroke="#666666" points="1279.25,-108.25 1183,-108.25 1183,-66.5 1279.25,-66.5 1279.25,-108.25"/>
<text text-anchor="start" x="1191" y="-94.75" font-family="Helvetica,sans-Serif" font-size="10.00">include/yaclib/fault</text>
<text text-anchor="start" x="1191" y="-83.5" font-family="Helvetica,sans-Serif" font-size="10.00">/detail/fiber/atomic</text>
<text text-anchor="middle" x="1231.12" y="-72.25" font-family="Helvetica,sans-Serif" font-size="10.00">_flag.hpp</text>
</a>
</g>
</g>
<!-- Node3&#45;&gt;Node5 -->
<g id="edge4_Node000003_Node000005" class="edge">
<title>Node3&#45;&gt;Node5</title>
<g id="a_edge4_Node000003_Node000005"><a xlink:title=" ">
<path fill="none" stroke="#63b8ff" d="M1150.5,-138.03C1166.07,-128.44 1183.45,-117.74 1198.07,-108.73"/>
<polygon fill="#63b8ff" stroke="#63b8ff" points="1149.05,-134.81 1142.38,-143.03 1152.73,-140.77 1149.05,-134.81"/>
</a>
</g>
</g>
<!-- Node7 -->
<g id="Node000007" class="node">
<title>Node7</title>
<g id="a_Node000007"><a xlink:href="fault_2detail_2fiber_2condition__variable_8hpp.html" target="_top" xlink:title=" ">
<polygon fill="white" stroke="#666666" points="243.75,-108.25 138.5,-108.25 138.5,-66.5 243.75,-66.5 243.75,-108.25"/>
<text text-anchor="start" x="146.5" y="-94.75" font-family="Helvetica,sans-Serif" font-size="10.00">include/yaclib/fault</text>
<text text-anchor="start" x="146.5" y="-83.5" font-family="Helvetica,sans-Serif" font-size="10.00">/detail/fiber/condition</text>
<text text-anchor="middle" x="191.12" y="-72.25" font-family="Helvetica,sans-Serif" font-size="10.00">_variable.hpp</text>
</a>
</g>
</g>
<!-- Node6&#45;&gt;Node7 -->
<g id="edge6_Node000006_Node000007" class="edge">
<title>Node6&#45;&gt;Node7</title>
<g id="a_edge6_Node000006_Node000007"><a xlink:title=" ">
<path fill="none" stroke="#63b8ff" d="M412.07,-146.19C409.73,-145.52 407.41,-144.87 405.12,-144.25 337.73,-125.88 319.39,-127.09 252.12,-108.25 249.44,-107.5 246.7,-106.71 243.94,-105.88"/>
<polygon fill="#63b8ff" stroke="#63b8ff" points="411.06,-149.54 421.64,-148.98 413.02,-142.82 411.06,-149.54"/>
</a>
</g>
</g>
<!-- Node6&#45;&gt;Node9 -->
<g id="edge8_Node000006_Node000009" class="edge">
<title>Node6&#45;&gt;Node9</title>
<g id="a_edge8_Node000006_Node000009"><a xlink:title=" ">
<path fill="none" stroke="#63b8ff" d="M469.12,-138.1C469.12,-126.34 469.12,-112.88 469.12,-102.94"/>
<polygon fill="#63b8ff" stroke="#63b8ff" points="465.63,-138.01 469.13,-148.01 472.63,-138.01 465.63,-138.01"/>
</a>
</g>
</g>
<!-- Node10 -->
<g id="Node000010" class="node">
<title>Node10</title>
<g id="a_Node000010"><a xlink:href="mutex_8cpp.html" target="_top" xlink:title=" ">
<polygon fill="white" stroke="#666666" points="380.88,-97 261.38,-97 261.38,-77.75 380.88,-77.75 380.88,-97"/>
<text text-anchor="middle" x="321.12" y="-83.5" font-family="Helvetica,sans-Serif" font-size="10.00">src/fault/fiber/mutex.cpp</text>
</a>
</g>
</g>
<!-- Node6&#45;&gt;Node10 -->
<g id="edge9_Node000006_Node000010" class="edge">
<title>Node6&#45;&gt;Node10</title>
<g id="a_edge9_Node000006_Node000010"><a xlink:title=" ">
<path fill="none" stroke="#63b8ff" d="M430.57,-144.39C400.96,-129.24 361.43,-109.01 338.89,-97.47"/>
<polygon fill="#63b8ff" stroke="#63b8ff" points="428.75,-147.39 439.24,-148.83 431.93,-141.16 428.75,-147.39"/>
</a>
</g>
</g>
<!-- Node8 -->
<g id="Node000008" class="node">
<title>Node8</title>
<g id="a_Node000008"><a xlink:href="fiber_2condition__variable_8cpp.html" target="_top" xlink:title=" ">
<polygon fill="white" stroke="#666666" points="248.25,-30.5 134,-30.5 134,0 248.25,0 248.25,-30.5"/>
<text text-anchor="start" x="142" y="-17" font-family="Helvetica,sans-Serif" font-size="10.00">src/fault/fiber/condition</text>
<text text-anchor="middle" x="191.12" y="-5.75" font-family="Helvetica,sans-Serif" font-size="10.00">_variable.cpp</text>
</a>
</g>
</g>
<!-- Node7&#45;&gt;Node8 -->
<g id="edge7_Node000007_Node000008" class="edge">
<title>Node7&#45;&gt;Node8</title>
<g id="a_edge7_Node000007_Node000008"><a xlink:title=" ">
<path fill="none" stroke="#63b8ff" d="M191.12,-54.63C191.12,-46.27 191.12,-37.65 191.12,-30.7"/>
<polygon fill="#63b8ff" stroke="#63b8ff" points="187.63,-54.58 191.13,-64.58 194.63,-54.58 187.63,-54.58"/>
</a>
</g>
</g>
<!-- Node11&#45;&gt;Node12 -->
<g id="edge11_Node000011_Node000012" class="edge">
<title>Node11&#45;&gt;Node12</title>
<g id="a_edge11_Node000011_Node000012"><a xlink:title=" ">
<path fill="none" stroke="#63b8ff" d="M654.35,-135.56C645.99,-126.64 636.93,-116.97 629.2,-108.73"/>
<polygon fill="#63b8ff" stroke="#63b8ff" points="651.67,-137.82 661.06,-142.72 656.78,-133.03 651.67,-137.82"/>
</a>
</g>
</g>
<!-- Node13 -->
<g id="Node000013" class="node">
<title>Node13</title>
<g id="a_Node000013"><a xlink:href="recursive__mutex_8cpp.html" target="_top" xlink:title=" ">
<polygon fill="white" stroke="#666666" points="796.62,-102.62 681.62,-102.62 681.62,-72.12 796.62,-72.12 796.62,-102.62"/>
<text text-anchor="start" x="689.62" y="-89.12" font-family="Helvetica,sans-Serif" font-size="10.00">src/fault/fiber/recursive</text>
<text text-anchor="middle" x="739.12" y="-77.88" font-family="Helvetica,sans-Serif" font-size="10.00">_mutex.cpp</text>
</a>
</g>
</g>
<!-- Node11&#45;&gt;Node13 -->
<g id="edge12_Node000011_Node000013" class="edge">
<title>Node11&#45;&gt;Node13</title>
<g id="a_edge12_Node000011_Node000013"><a xlink:title=" ">
<path fill="none" stroke="#63b8ff" d="M703.51,-134.89C711.95,-123.87 721.18,-111.81 728.13,-102.73"/>
<polygon fill="#63b8ff" stroke="#63b8ff" points="700.89,-132.56 697.59,-142.62 706.45,-136.81 700.89,-132.56"/>
</a>
</g>
</g>
<!-- Node15 -->
<g id="Node000015" class="node">
<title>Node15</title>
<g id="a_Node000015"><a xlink:href="fault_2detail_2fiber_2shared__timed__mutex_8hpp.html" target="_top" xlink:title=" ">
<polygon fill="white" stroke="#666666" points="911.25,-108.25 815,-108.25 815,-66.5 911.25,-66.5 911.25,-108.25"/>
<text text-anchor="start" x="823" y="-94.75" font-family="Helvetica,sans-Serif" font-size="10.00">include/yaclib/fault</text>
<text text-anchor="start" x="823" y="-83.5" font-family="Helvetica,sans-Serif" font-size="10.00">/detail/fiber/shared</text>
<text text-anchor="middle" x="863.12" y="-72.25" font-family="Helvetica,sans-Serif" font-size="10.00">_timed_mutex.hpp</text>
</a>
</g>
</g>
<!-- Node14&#45;&gt;Node15 -->
<g id="edge15_Node000014_Node000015" class="edge">
<title>Node14&#45;&gt;Node15</title>
<g id="a_edge15_Node000014_Node000015"><a xlink:title=" ">
<path fill="none" stroke="#63b8ff" d="M842.22,-133.62C846.09,-125.25 850.19,-116.38 853.72,-108.73"/>
<polygon fill="#63b8ff" stroke="#63b8ff" points="839.16,-131.91 838.14,-142.45 845.51,-134.84 839.16,-131.91"/>
</a>
</g>
</g>
<!-- Node16 -->
<g id="Node000016" class="node">
<title>Node16</title>
<g id="a_Node000016"><a xlink:href="shared__mutex_8cpp.html" target="_top" xlink:title=" ">
<polygon fill="white" stroke="#666666" points="1033.38,-102.62 928.88,-102.62 928.88,-72.12 1033.38,-72.12 1033.38,-102.62"/>
<text text-anchor="start" x="936.88" y="-89.12" font-family="Helvetica,sans-Serif" font-size="10.00">src/fault/fiber/shared</text>
<text text-anchor="middle" x="981.12" y="-77.88" font-family="Helvetica,sans-Serif" font-size="10.00">_mutex.cpp</text>
</a>
</g>
</g>
<!-- Node14&#45;&gt;Node16 -->
<g id="edge16_Node000014_Node000016" class="edge">
<title>Node14&#45;&gt;Node16</title>
<g id="a_edge16_Node000014_Node000016"><a xlink:title=" ">
<path fill="none" stroke="#63b8ff" d="M879.18,-138.85C903.27,-126.92 931.15,-113.12 951.66,-102.96"/>
<polygon fill="#63b8ff" stroke="#63b8ff" points="877.89,-135.58 870.48,-143.15 881,-141.85 877.89,-135.58"/>
</a>
</g>
</g>
<!-- Node18 -->
<g id="Node000018" class="node">
<title>Node18</title>
<g id="a_Node000018"><a xlink:href="thread_8cpp.html" target="_top" xlink:title=" ">
<polygon fill="white" stroke="#666666" points="120.25,-97 0,-97 0,-77.75 120.25,-77.75 120.25,-97"/>
<text text-anchor="middle" x="60.12" y="-83.5" font-family="Helvetica,sans-Serif" font-size="10.00">src/fault/fiber/thread.cpp</text>
</a>
</g>
</g>
<!-- Node17&#45;&gt;Node18 -->
<g id="edge18_Node000017_Node000018" class="edge">
<title>Node17&#45;&gt;Node18</title>
<g id="a_edge18_Node000017_Node000018"><a xlink:title=" ">
<path fill="none" stroke="#63b8ff" d="M272.98,-146.74C231.47,-135.89 177.14,-121.52 129.12,-108.25 116.63,-104.8 102.9,-100.87 91,-97.42"/>
<polygon fill="#63b8ff" stroke="#63b8ff" points="272.04,-150.11 282.6,-149.25 273.8,-143.34 272.04,-150.11"/>
</a>
</g>
</g>
<!-- Node20&#45;&gt;Node2 -->
<g id="edge22_Node000020_Node000002" class="edge">
<title>Node20&#45;&gt;Node2</title>
<g id="a_edge22_Node000020_Node000002"><a xlink:title=" ">
<path fill="none" stroke="#63b8ff" d="M615.24,-277.5C611.91,-268.87 608.46,-259.89 605.69,-252.7"/>
<polygon fill="#63b8ff" stroke="#63b8ff" points="611.91,-278.6 618.77,-286.68 618.44,-276.09 611.91,-278.6"/>
</a>
</g>
</g>
<!-- Node21 -->
<g id="Node000021" class="node">
<title>Node21</title>
<g id="a_Node000021"><a xlink:href="system__clock_8cpp.html" target="_top" xlink:title=" ">
<polygon fill="white" stroke="#666666" points="780.5,-252.5 673.75,-252.5 673.75,-222 780.5,-222 780.5,-252.5"/>
<text text-anchor="start" x="681.75" y="-239" font-family="Helvetica,sans-Serif" font-size="10.00">src/fault/fiber/system</text>
<text text-anchor="middle" x="727.12" y="-227.75" font-family="Helvetica,sans-Serif" font-size="10.00">_clock.cpp</text>
</a>
</g>
</g>
<!-- Node20&#45;&gt;Node21 -->
<g id="edge23_Node000020_Node000021" class="edge">
<title>Node20&#45;&gt;Node21</title>
<g id="a_edge23_Node000020_Node000021"><a xlink:title=" ">
<path fill="none" stroke="#63b8ff" d="M665.39,-281.54C679.25,-271.82 694.39,-261.21 706.21,-252.92"/>
<polygon fill="#63b8ff" stroke="#63b8ff" points="663.47,-278.62 657.29,-287.22 667.49,-284.35 663.47,-278.62"/>
</a>
</g>
</g>
</g>
</svg>

<g id="navigator" transform="translate(0 0)" fill="#404254">
  <rect fill="#f2f5e9" fill-opacity="0.5" stroke="#606060" stroke-width=".5" x="0" y="0" width="60" height="60"/>
  <use id="zoomplus" xlink:href="#zoomPlus" x="17" y="9" onmousedown="handleZoom(evt,'in')"/>
  <use id="zoomminus" xlink:href="#zoomMin" x="42" y="9" onmousedown="handleZoom(evt,'out')"/>
  <use id="reset" xlink:href="#resetDef" x="30" y="36" onmousedown="handleReset()"/>
   <use id="arrowup" xlink:href="#arrowUp" x="0" y="0" onmousedown="handlePan(0,-1)"/>
  <use id="arrowright" xlink:href="#arrowRight" x="0" y="0" onmousedown="handlePan(1,0)"/>
  <use id="arrowdown" xlink:href="#arrowDown" x="0" y="0" onmousedown="handlePan(0,1)"/>
  <use id="arrowleft" xlink:href="#arrowLeft" x="0" y="0" onmousedown="handlePan(-1,0)"/>
</g>
<svg viewBox="0 0 15 15" width="100%" height="30px" preserveAspectRatio="xMaxYMin meet">
 <g id="arrow_out" transform="scale(0.3 0.3)">
  <a xlink:href="scheduler_8hpp__dep__incl_org.svg" target="_base">
   <rect id="button" ry="5" rx="5" y="6" x="6" height="38" width="38"
        fill="#f2f5e9" fill-opacity="0.5" stroke="#606060" stroke-width="1.0"/>
   <path id="arrow"
     d="M 11.500037,31.436501 C 11.940474,20.09759 22.043105,11.32322 32.158766,21.979434 L 37.068811,17.246167 C 37.068811,17.246167 37.088388,32 37.088388,32 L 22.160133,31.978069 C 22.160133,31.978069 26.997745,27.140456 26.997745,27.140456 C 18.528582,18.264221 13.291696,25.230495 11.500037,31.436501 z"
     style="fill:#404040;"/>
  </a>
 </g>
</svg>

<style type='text/css'>
<![CDATA[
[data-mouse-over-selected='false'] { opacity: 0.7; }
[data-mouse-over-selected='true']  { opacity: 1.0; }
]]>
</style>
<script type="application/ecmascript"><![CDATA[
document.addEventListener('DOMContentLoaded', (event) => {
  highlightEdges();
  highlightAdjacentNodes();
});
]]></script>
</svg>
