<?xml version="1.0" encoding="UTF-8" standalone="no"?>
<!DOCTYPE svg PUBLIC "-//W3C//DTD SVG 1.1//EN"
 "http://www.w3.org/Graphics/SVG/1.1/DTD/svg11.dtd">
<!-- Generated by graphviz version 9.0.0 (20230911.1827)
 -->
<!-- Title: src/fault/fiber/scheduler.cpp Pages: 1 -->
<svg width="1250pt" height="360pt"
 viewBox="0.00 0.00 1249.50 359.75" xmlns="http://www.w3.org/2000/svg" xmlns:xlink="http://www.w3.org/1999/xlink">
<g id="graph0" class="graph" transform="scale(1 1) rotate(0) translate(4 355.75)">
<title>src/fault/fiber/scheduler.cpp</title>
<!-- Node1 -->
<g id="Node000001" class="node">
<title>Node1</title>
<g id="a_Node000001"><a xlink:title=" ">
<polygon fill="#999999" stroke="#666666" points="1161,-351.75 1025.75,-351.75 1025.75,-332.5 1161,-332.5 1161,-351.75"/>
<text text-anchor="middle" x="1093.38" y="-338.25" font-family="Helvetica,sans-Serif" font-size="10.00">src/fault/fiber/scheduler.cpp</text>
</a>
</g>
</g>
<!-- Node2 -->
<g id="Node000002" class="node">
<title>Node2</title>
<g id="a_Node000002"><a xlink:href="util_8hpp.html" target="_top" xlink:title=" ">
<polygon fill="white" stroke="#666666" points="1181.62,-290.88 1113.12,-290.88 1113.12,-271.62 1181.62,-271.62 1181.62,-290.88"/>
<text text-anchor="middle" x="1147.38" y="-277.38" font-family="Helvetica,sans-Serif" font-size="10.00">fault/util.hpp</text>
</a>
</g>
</g>
<!-- Node1&#45;&gt;Node2 -->
<g id="edge1_Node000001_Node000002" class="edge">
<title>Node1&#45;&gt;Node2</title>
<g id="a_edge1_Node000001_Node000002"><a xlink:title=" ">
<path fill="none" stroke="#63b8ff" d="M1101.58,-332.18C1109.51,-323.54 1121.73,-310.21 1131.55,-299.5"/>
<polygon fill="#63b8ff" stroke="#63b8ff" points="1133.89,-302.13 1138.07,-292.39 1128.73,-297.4 1133.89,-302.13"/>
</a>
</g>
</g>
<!-- Node6 -->
<g id="Node000006" class="node">
<title>Node6</title>
<g id="a_Node000006"><a xlink:href="config_8hpp.html" target="_top" xlink:title=" ">
<polygon fill="white" stroke="#666666" points="1094.88,-290.88 985.88,-290.88 985.88,-271.62 1094.88,-271.62 1094.88,-290.88"/>
<text text-anchor="middle" x="1040.38" y="-277.38" font-family="Helvetica,sans-Serif" font-size="10.00">yaclib/fault/config.hpp</text>
</a>
</g>
</g>
<!-- Node1&#45;&gt;Node6 -->
<g id="edge5_Node000001_Node000006" class="edge">
<title>Node1&#45;&gt;Node6</title>
<g id="a_edge5_Node000001_Node000006"><a xlink:title=" ">
<path fill="none" stroke="#63b8ff" d="M1085.33,-332.18C1077.62,-323.62 1065.79,-310.48 1056.19,-299.82"/>
<polygon fill="#63b8ff" stroke="#63b8ff" points="1058.8,-297.49 1049.51,-292.4 1053.6,-302.17 1058.8,-297.49"/>
</a>
</g>
</g>
<!-- Node8 -->
<g id="Node000008" class="node">
<title>Node8</title>
<g id="a_Node000008"><a xlink:href="scheduler_8hpp.html" target="_top" xlink:title=" ">
<polygon fill="white" stroke="#666666" points="797.38,-296.5 697.38,-296.5 697.38,-266 797.38,-266 797.38,-296.5"/>
<text text-anchor="start" x="705.38" y="-283" font-family="Helvetica,sans-Serif" font-size="10.00">yaclib/fault/detail</text>
<text text-anchor="middle" x="747.38" y="-271.75" font-family="Helvetica,sans-Serif" font-size="10.00">/fiber/scheduler.hpp</text>
</a>
</g>
</g>
<!-- Node1&#45;&gt;Node8 -->
<g id="edge7_Node000001_Node000008" class="edge">
<title>Node1&#45;&gt;Node8</title>
<g id="a_edge7_Node000001_Node000008"><a xlink:title=" ">
<path fill="none" stroke="#63b8ff" d="M1040.07,-332.05C977.62,-321.43 874.36,-303.86 808.66,-292.68"/>
<polygon fill="#63b8ff" stroke="#63b8ff" points="809.58,-289.28 799.14,-291.06 808.41,-296.19 809.58,-289.28"/>
</a>
</g>
</g>
<!-- Node26 -->
<g id="Node000026" class="node">
<title>Node26</title>
<g id="a_Node000026"><a xlink:title=" ">
<polygon fill="#e0e0e0" stroke="#999999" points="1241.5,-290.88 1199.25,-290.88 1199.25,-271.62 1241.5,-271.62 1241.5,-290.88"/>
<text text-anchor="middle" x="1220.38" y="-277.38" font-family="Helvetica,sans-Serif" font-size="10.00">cstdio</text>
</a>
</g>
</g>
<!-- Node1&#45;&gt;Node26 -->
<g id="edge39_Node000001_Node000026" class="edge">
<title>Node1&#45;&gt;Node26</title>
<g id="a_edge39_Node000001_Node000026"><a xlink:title=" ">
<path fill="none" stroke="#63b8ff" d="M1113.1,-332.14C1132.72,-323.17 1163.68,-308.98 1190.38,-296.5 1190.6,-296.4 1190.82,-296.29 1191.04,-296.19"/>
<polygon fill="#63b8ff" stroke="#63b8ff" points="1192.42,-299.41 1199.98,-291.98 1189.44,-293.07 1192.42,-299.41"/>
</a>
</g>
</g>
<!-- Node3 -->
<g id="Node000003" class="node">
<title>Node3</title>
<g id="a_Node000003"><a xlink:title=" ">
<polygon fill="#e0e0e0" stroke="#999999" points="198,-80.12 110.75,-80.12 110.75,-60.88 198,-60.88 198,-80.12"/>
<text text-anchor="middle" x="154.38" y="-66.62" font-family="Helvetica,sans-Serif" font-size="10.00">yaclib/config.hpp</text>
</a>
</g>
</g>
<!-- Node2&#45;&gt;Node3 -->
<g id="edge2_Node000002_Node000003" class="edge">
<title>Node2&#45;&gt;Node3</title>
<g id="a_edge2_Node000002_Node000003"><a xlink:title=" ">
<path fill="none" stroke="#63b8ff" d="M1123.56,-271.13C1117.4,-269.11 1110.71,-267.21 1104.38,-266 894.96,-225.88 285.9,-328.1 150.38,-163.5 133.81,-143.38 139.96,-111.58 146.62,-91.14"/>
<polygon fill="#63b8ff" stroke="#63b8ff" points="149.81,-92.6 149.91,-82.01 143.23,-90.22 149.81,-92.6"/>
</a>
</g>
</g>
<!-- Node4 -->
<g id="Node000004" class="node">
<title>Node4</title>
<g id="a_Node000004"><a xlink:title=" ">
<polygon fill="#e0e0e0" stroke="#999999" points="1170,-224.38 1124.75,-224.38 1124.75,-205.12 1170,-205.12 1170,-224.38"/>
<text text-anchor="middle" x="1147.38" y="-210.88" font-family="Helvetica,sans-Serif" font-size="10.00">atomic</text>
</a>
</g>
</g>
<!-- Node2&#45;&gt;Node4 -->
<g id="edge3_Node000002_Node000004" class="edge">
<title>Node2&#45;&gt;Node4</title>
<g id="a_edge3_Node000002_Node000004"><a xlink:title=" ">
<path fill="none" stroke="#63b8ff" d="M1147.38,-271.28C1147.38,-262.23 1147.38,-247.95 1147.38,-236.13"/>
<polygon fill="#63b8ff" stroke="#63b8ff" points="1150.88,-236.16 1147.38,-226.16 1143.88,-236.16 1150.88,-236.16"/>
</a>
</g>
</g>
<!-- Node5 -->
<g id="Node000005" class="node">
<title>Node5</title>
<g id="a_Node000005"><a xlink:title=" ">
<polygon fill="#e0e0e0" stroke="#999999" points="1236.5,-224.38 1188.25,-224.38 1188.25,-205.12 1236.5,-205.12 1236.5,-224.38"/>
<text text-anchor="middle" x="1212.38" y="-210.88" font-family="Helvetica,sans-Serif" font-size="10.00">random</text>
</a>
</g>
</g>
<!-- Node2&#45;&gt;Node5 -->
<g id="edge4_Node000002_Node000005" class="edge">
<title>Node2&#45;&gt;Node5</title>
<g id="a_edge4_Node000002_Node000005"><a xlink:title=" ">
<path fill="none" stroke="#63b8ff" d="M1156.41,-271.28C1166.5,-261.27 1183.05,-244.85 1195.54,-232.45"/>
<polygon fill="#63b8ff" stroke="#63b8ff" points="1197.71,-235.24 1202.34,-225.71 1192.78,-230.27 1197.71,-235.24"/>
</a>
</g>
</g>
<!-- Node7 -->
<g id="Node000007" class="node">
<title>Node7</title>
<g id="a_Node000007"><a xlink:title=" ">
<polygon fill="#e0e0e0" stroke="#999999" points="1042,-80.12 996.75,-80.12 996.75,-60.88 1042,-60.88 1042,-80.12"/>
<text text-anchor="middle" x="1019.38" y="-66.62" font-family="Helvetica,sans-Serif" font-size="10.00">cstdint</text>
</a>
</g>
</g>
<!-- Node6&#45;&gt;Node7 -->
<g id="edge6_Node000006_Node000007" class="edge">
<title>Node6&#45;&gt;Node7</title>
<g id="a_edge6_Node000006_Node000007"><a xlink:title=" ">
<path fill="none" stroke="#63b8ff" d="M1049.8,-271.3C1058.87,-261.98 1071.97,-246.47 1077.38,-230 1081.6,-217.12 1080.24,-212.75 1077.38,-199.5 1068.44,-158.14 1044.99,-114.07 1030.79,-89.95"/>
<polygon fill="#63b8ff" stroke="#63b8ff" points="1033.95,-88.4 1025.79,-81.64 1027.95,-92.02 1033.95,-88.4"/>
</a>
</g>
</g>
<!-- Node9 -->
<g id="Node000009" class="node">
<title>Node9</title>
<g id="a_Node000009"><a xlink:href="default__allocator_8hpp.html" target="_top" xlink:title=" ">
<polygon fill="white" stroke="#666666" points="859,-157.88 729.75,-157.88 729.75,-127.38 859,-127.38 859,-157.88"/>
<text text-anchor="start" x="737.75" y="-144.38" font-family="Helvetica,sans-Serif" font-size="10.00">yaclib/fault/detail</text>
<text text-anchor="middle" x="794.38" y="-133.12" font-family="Helvetica,sans-Serif" font-size="10.00">/fiber/default_allocator.hpp</text>
</a>
</g>
</g>
<!-- Node8&#45;&gt;Node9 -->
<g id="edge8_Node000008_Node000009" class="edge">
<title>Node8&#45;&gt;Node9</title>
<g id="a_edge8_Node000008_Node000009"><a xlink:title=" ">
<path fill="none" stroke="#63b8ff" d="M756.07,-265.72C761.65,-255.91 768.69,-242.51 773.38,-230 780.76,-210.25 786.25,-186.97 789.76,-169.56"/>
<polygon fill="#63b8ff" stroke="#63b8ff" points="793.18,-170.27 791.63,-159.79 786.31,-168.96 793.18,-170.27"/>
</a>
</g>
</g>
<!-- Node10 -->
<g id="Node000010" class="node">
<title>Node10</title>
<g id="a_Node000010"><a xlink:href="stack__allocator_8hpp.html" target="_top" xlink:title=" ">
<polygon fill="white" stroke="#666666" points="574.38,-85.75 450.38,-85.75 450.38,-55.25 574.38,-55.25 574.38,-85.75"/>
<text text-anchor="start" x="458.38" y="-72.25" font-family="Helvetica,sans-Serif" font-size="10.00">yaclib/fault/detail</text>
<text text-anchor="middle" x="512.38" y="-61" font-family="Helvetica,sans-Serif" font-size="10.00">/fiber/stack_allocator.hpp</text>
</a>
</g>
</g>
<!-- Node8&#45;&gt;Node10 -->
<g id="edge33_Node000008_Node000010" class="edge">
<title>Node8&#45;&gt;Node10</title>
<g id="a_edge33_Node000008_Node000010"><a xlink:title=" ">
<path fill="none" stroke="#63b8ff" d="M739.71,-265.62C719.39,-226.87 665.47,-124.36 662.38,-121.75 640.61,-103.38 611.86,-91.65 585.36,-84.19"/>
<polygon fill="#63b8ff" stroke="#63b8ff" points="586.58,-80.89 576.02,-81.73 584.8,-87.66 586.58,-80.89"/>
</a>
</g>
</g>
<!-- Node12 -->
<g id="Node000012" class="node">
<title>Node12</title>
<g id="a_Node000012"><a xlink:href="log_8hpp.html" target="_top" xlink:title=" ">
<polygon fill="white" stroke="#666666" points="961.62,-80.12 887.12,-80.12 887.12,-60.88 961.62,-60.88 961.62,-80.12"/>
<text text-anchor="middle" x="924.38" y="-66.62" font-family="Helvetica,sans-Serif" font-size="10.00">yaclib/log.hpp</text>
</a>
</g>
</g>
<!-- Node8&#45;&gt;Node12 -->
<g id="edge36_Node000008_Node000012" class="edge">
<title>Node8&#45;&gt;Node12</title>
<g id="a_edge36_Node000008_Node000012"><a xlink:title=" ">
<path fill="none" stroke="#63b8ff" d="M797.38,-271.16C853.1,-258.07 940.56,-227.98 980.38,-163.5 990.12,-147.71 987.94,-138.69 980.38,-121.75 974.01,-107.49 961.38,-95.59 949.73,-86.96"/>
<polygon fill="#63b8ff" stroke="#63b8ff" points="951.79,-84.13 941.57,-81.35 947.83,-89.9 951.79,-84.13"/>
</a>
</g>
</g>
<!-- Node15 -->
<g id="Node000015" class="node">
<title>Node15</title>
<g id="a_Node000015"><a xlink:href="fiber__base_8hpp.html" target="_top" xlink:title=" ">
<polygon fill="white" stroke="#666666" points="601.5,-230 499.25,-230 499.25,-199.5 601.5,-199.5 601.5,-230"/>
<text text-anchor="start" x="507.25" y="-216.5" font-family="Helvetica,sans-Serif" font-size="10.00">yaclib/fault/detail</text>
<text text-anchor="middle" x="550.38" y="-205.25" font-family="Helvetica,sans-Serif" font-size="10.00">/fiber/fiber_base.hpp</text>
</a>
</g>
</g>
<!-- Node8&#45;&gt;Node15 -->
<g id="edge15_Node000008_Node000015" class="edge">
<title>Node8&#45;&gt;Node15</title>
<g id="a_edge15_Node000008_Node000015"><a xlink:title=" ">
<path fill="none" stroke="#63b8ff" d="M702.67,-265.61C674.06,-256.25 636.71,-244.02 606.16,-234.01"/>
<polygon fill="#63b8ff" stroke="#63b8ff" points="607.27,-230.7 596.68,-230.91 605.09,-237.35 607.27,-230.7"/>
</a>
</g>
</g>
<!-- Node19 -->
<g id="Node000019" class="node">
<title>Node19</title>
<g id="a_Node000019"><a xlink:href="stack_8hpp.html" target="_top" xlink:title=" ">
<polygon fill="white" stroke="#666666" points="88.75,-157.88 0,-157.88 0,-127.38 88.75,-127.38 88.75,-157.88"/>
<text text-anchor="start" x="8" y="-144.38" font-family="Helvetica,sans-Serif" font-size="10.00">yaclib/fault/detail</text>
<text text-anchor="middle" x="44.38" y="-133.12" font-family="Helvetica,sans-Serif" font-size="10.00">/fiber/stack.hpp</text>
</a>
</g>
</g>
<!-- Node8&#45;&gt;Node19 -->
<g id="edge32_Node000008_Node000019" class="edge">
<title>Node8&#45;&gt;Node19</title>
<g id="a_edge32_Node000008_Node000019"><a xlink:title=" ">
<path fill="none" stroke="#63b8ff" d="M697.06,-280.4C544.28,-280.34 93.44,-276.23 48.38,-230 33.1,-214.33 33.92,-188.51 37.46,-169.17"/>
<polygon fill="#63b8ff" stroke="#63b8ff" points="40.84,-170.11 39.57,-159.59 34,-168.61 40.84,-170.11"/>
</a>
</g>
</g>
<!-- Node23 -->
<g id="Node000023" class="node">
<title>Node23</title>
<g id="a_Node000023"><a xlink:href="inject_8hpp.html" target="_top" xlink:title=" ">
<polygon fill="white" stroke="#666666" points="1068.75,-224.38 962,-224.38 962,-205.12 1068.75,-205.12 1068.75,-224.38"/>
<text text-anchor="middle" x="1015.38" y="-210.88" font-family="Helvetica,sans-Serif" font-size="10.00">yaclib/fault/inject.hpp</text>
</a>
</g>
</g>
<!-- Node8&#45;&gt;Node23 -->
<g id="edge34_Node000008_Node000023" class="edge">
<title>Node8&#45;&gt;Node23</title>
<g id="a_edge34_Node000008_Node000023"><a xlink:title=" ">
<path fill="none" stroke="#63b8ff" d="M797.78,-268.12C846.21,-256.46 918.9,-238.97 966.73,-227.46"/>
<polygon fill="#63b8ff" stroke="#63b8ff" points="967.35,-230.91 976.25,-225.17 965.71,-224.1 967.35,-230.91"/>
</a>
</g>
</g>
<!-- Node24 -->
<g id="Node000024" class="node">
<title>Node24</title>
<g id="a_Node000024"><a xlink:title=" ">
<polygon fill="#e0e0e0" stroke="#999999" points="103,-224.38 57.75,-224.38 57.75,-205.12 103,-205.12 103,-224.38"/>
<text text-anchor="middle" x="80.38" y="-210.88" font-family="Helvetica,sans-Serif" font-size="10.00">chrono</text>
</a>
</g>
</g>
<!-- Node8&#45;&gt;Node24 -->
<g id="edge37_Node000008_Node000024" class="edge">
<title>Node8&#45;&gt;Node24</title>
<g id="a_edge37_Node000008_Node000024"><a xlink:title=" ">
<path fill="none" stroke="#63b8ff" d="M697.23,-281.1C589.58,-281.88 328.95,-278.11 117.38,-230 115.48,-229.57 113.56,-229.06 111.63,-228.5"/>
<polygon fill="#63b8ff" stroke="#63b8ff" points="112.82,-225.2 102.22,-225.3 110.57,-231.83 112.82,-225.2"/>
</a>
</g>
</g>
<!-- Node25 -->
<g id="Node000025" class="node">
<title>Node25</title>
<g id="a_Node000025"><a xlink:title=" ">
<polygon fill="#e0e0e0" stroke="#999999" points="764.75,-224.38 730,-224.38 730,-205.12 764.75,-205.12 764.75,-224.38"/>
<text text-anchor="middle" x="747.38" y="-210.88" font-family="Helvetica,sans-Serif" font-size="10.00">map</text>
</a>
</g>
</g>
<!-- Node8&#45;&gt;Node25 -->
<g id="edge38_Node000008_Node000025" class="edge">
<title>Node8&#45;&gt;Node25</title>
<g id="a_edge38_Node000008_Node000025"><a xlink:title=" ">
<path fill="none" stroke="#63b8ff" d="M747.38,-265.61C747.38,-256.83 747.38,-245.52 747.38,-235.9"/>
<polygon fill="#63b8ff" stroke="#63b8ff" points="750.88,-236.09 747.38,-226.09 743.88,-236.09 750.88,-236.09"/>
</a>
</g>
</g>
<!-- Node9&#45;&gt;Node7 -->
<g id="edge13_Node000009_Node000007" class="edge">
<title>Node9&#45;&gt;Node7</title>
<g id="a_edge13_Node000009_Node000007"><a xlink:title=" ">
<path fill="none" stroke="#63b8ff" d="M841.54,-126.92C884.7,-113.47 947.5,-93.9 985.77,-81.97"/>
<polygon fill="#63b8ff" stroke="#63b8ff" points="986.39,-85.45 994.9,-79.13 984.31,-78.76 986.39,-85.45"/>
</a>
</g>
</g>
<!-- Node9&#45;&gt;Node10 -->
<g id="edge9_Node000009_Node000010" class="edge">
<title>Node9&#45;&gt;Node10</title>
<g id="a_edge9_Node000009_Node000010"><a xlink:title=" ">
<path fill="none" stroke="#63b8ff" d="M736.14,-126.95C729.14,-125.19 722.1,-123.43 715.38,-121.75 671.36,-110.76 621.94,-98.53 582.89,-88.89"/>
<polygon fill="#63b8ff" stroke="#63b8ff" points="583.92,-85.53 573.37,-86.54 582.24,-92.33 583.92,-85.53"/>
</a>
</g>
</g>
<!-- Node9&#45;&gt;Node12 -->
<g id="edge11_Node000009_Node000012" class="edge">
<title>Node9&#45;&gt;Node12</title>
<g id="a_edge11_Node000009_Node000012"><a xlink:title=" ">
<path fill="none" stroke="#63b8ff" d="M821.63,-126.92C843.89,-114.91 875.2,-98.02 897.4,-86.05"/>
<polygon fill="#63b8ff" stroke="#63b8ff" points="899.01,-89.16 906.15,-81.33 895.68,-83 899.01,-89.16"/>
</a>
</g>
</g>
<!-- Node14 -->
<g id="Node000014" class="node">
<title>Node14</title>
<g id="a_Node000014"><a xlink:title=" ">
<polygon fill="#e0e0e0" stroke="#999999" points="815.88,-80.12 772.88,-80.12 772.88,-60.88 815.88,-60.88 815.88,-80.12"/>
<text text-anchor="middle" x="794.38" y="-66.62" font-family="Helvetica,sans-Serif" font-size="10.00">vector</text>
</a>
</g>
</g>
<!-- Node9&#45;&gt;Node14 -->
<g id="edge14_Node000009_Node000014" class="edge">
<title>Node9&#45;&gt;Node14</title>
<g id="a_edge14_Node000009_Node000014"><a xlink:title=" ">
<path fill="none" stroke="#63b8ff" d="M794.38,-127.1C794.38,-116.84 794.38,-102.95 794.38,-91.63"/>
<polygon fill="#63b8ff" stroke="#63b8ff" points="797.88,-91.77 794.38,-81.77 790.88,-91.77 797.88,-91.77"/>
</a>
</g>
</g>
<!-- Node11 -->
<g id="Node000011" class="node">
<title>Node11</title>
<g id="a_Node000011"><a xlink:title=" ">
<polygon fill="#e0e0e0" stroke="#999999" points="246.5,-19.25 198.25,-19.25 198.25,0 246.5,0 246.5,-19.25"/>
<text text-anchor="middle" x="222.38" y="-5.75" font-family="Helvetica,sans-Serif" font-size="10.00">cstddef</text>
</a>
</g>
</g>
<!-- Node10&#45;&gt;Node11 -->
<g id="edge10_Node000010_Node000011" class="edge">
<title>Node10&#45;&gt;Node11</title>
<g id="a_edge10_Node000010_Node000011"><a xlink:title=" ">
<path fill="none" stroke="#63b8ff" d="M450.16,-56.87C391.43,-44.95 305.44,-27.49 257.68,-17.79"/>
<polygon fill="#63b8ff" stroke="#63b8ff" points="258.66,-14.42 248.16,-15.86 257.26,-21.28 258.66,-14.42"/>
</a>
</g>
</g>
<!-- Node13 -->
<g id="Node000013" class="node">
<title>Node13</title>
<g id="a_Node000013"><a xlink:title=" ">
<polygon fill="#e0e0e0" stroke="#999999" points="957.12,-19.25 891.62,-19.25 891.62,0 957.12,0 957.12,-19.25"/>
<text text-anchor="middle" x="924.38" y="-5.75" font-family="Helvetica,sans-Serif" font-size="10.00">string_view</text>
</a>
</g>
</g>
<!-- Node12&#45;&gt;Node13 -->
<g id="edge12_Node000012_Node000013" class="edge">
<title>Node12&#45;&gt;Node13</title>
<g id="a_edge12_Node000012_Node000013"><a xlink:title=" ">
<path fill="none" stroke="#63b8ff" d="M924.38,-60.56C924.38,-52.78 924.38,-41.2 924.38,-31.16"/>
<polygon fill="#63b8ff" stroke="#63b8ff" points="927.88,-31.16 924.38,-21.16 920.88,-31.16 927.88,-31.16"/>
</a>
</g>
</g>
<!-- Node15&#45;&gt;Node3 -->
<g id="edge16_Node000015_Node000003" class="edge">
<title>Node15&#45;&gt;Node3</title>
<g id="a_edge16_Node000015_Node000003"><a xlink:title=" ">
<path fill="none" stroke="#63b8ff" d="M499.09,-213.99C407.16,-213.31 219.58,-206.53 173.38,-163.5 153.9,-145.37 151.53,-112.98 152.38,-91.88"/>
<polygon fill="#63b8ff" stroke="#63b8ff" points="155.86,-92.15 153.08,-81.93 148.88,-91.65 155.86,-92.15"/>
</a>
</g>
</g>
<!-- Node15&#45;&gt;Node9 -->
<g id="edge20_Node000015_Node000009" class="edge">
<title>Node15&#45;&gt;Node9</title>
<g id="a_edge20_Node000015_Node000009"><a xlink:title=" ">
<path fill="none" stroke="#63b8ff" d="M601.53,-199.05C639.67,-188.09 691.96,-173.06 732.47,-161.42"/>
<polygon fill="#63b8ff" stroke="#63b8ff" points="733.19,-164.85 741.84,-158.72 731.26,-158.12 733.19,-164.85"/>
</a>
</g>
</g>
<!-- Node15&#45;&gt;Node10 -->
<g id="edge28_Node000015_Node000010" class="edge">
<title>Node15&#45;&gt;Node10</title>
<g id="a_edge28_Node000015_Node000010"><a xlink:title=" ">
<path fill="none" stroke="#63b8ff" d="M599.98,-199.1C617.11,-191.4 634.48,-180.01 644.38,-163.5 653.91,-147.58 654.91,-137.03 644.38,-121.75 630.8,-102.06 608.41,-90.08 585.89,-82.79"/>
<polygon fill="#63b8ff" stroke="#63b8ff" points="586.89,-79.44 576.31,-80 584.93,-86.16 586.89,-79.44"/>
</a>
</g>
</g>
<!-- Node16 -->
<g id="Node000016" class="node">
<title>Node16</title>
<g id="a_Node000016"><a xlink:href="bidirectional__intrusive__list_8hpp.html" target="_top" xlink:title=" ">
<polygon fill="white" stroke="#666666" points="971.38,-163.5 877.38,-163.5 877.38,-121.75 971.38,-121.75 971.38,-163.5"/>
<text text-anchor="start" x="885.38" y="-150" font-family="Helvetica,sans-Serif" font-size="10.00">yaclib/fault/detail</text>
<text text-anchor="start" x="885.38" y="-138.75" font-family="Helvetica,sans-Serif" font-size="10.00">/fiber/bidirectional</text>
<text text-anchor="middle" x="924.38" y="-127.5" font-family="Helvetica,sans-Serif" font-size="10.00">_intrusive_list.hpp</text>
</a>
</g>
</g>
<!-- Node15&#45;&gt;Node16 -->
<g id="edge17_Node000015_Node000016" class="edge">
<title>Node15&#45;&gt;Node16</title>
<g id="a_edge17_Node000015_Node000016"><a xlink:title=" ">
<path fill="none" stroke="#63b8ff" d="M601.91,-208.56C663.01,-201.77 767.95,-188.05 865.91,-163.9"/>
<polygon fill="#63b8ff" stroke="#63b8ff" points="866.59,-167.34 875.43,-161.51 864.88,-160.56 866.59,-167.34"/>
</a>
</g>
</g>
<!-- Node17 -->
<g id="Node000017" class="node">
<title>Node17</title>
<g id="a_Node000017"><a xlink:href="execution__context_8hpp.html" target="_top" xlink:title=" ">
<polygon fill="white" stroke="#666666" points="318.38,-157.88 182.38,-157.88 182.38,-127.38 318.38,-127.38 318.38,-157.88"/>
<text text-anchor="start" x="190.38" y="-144.38" font-family="Helvetica,sans-Serif" font-size="10.00">yaclib/fault/detail</text>
<text text-anchor="middle" x="250.38" y="-133.12" font-family="Helvetica,sans-Serif" font-size="10.00">/fiber/execution_context.hpp</text>
</a>
</g>
</g>
<!-- Node15&#45;&gt;Node17 -->
<g id="edge21_Node000015_Node000017" class="edge">
<title>Node15&#45;&gt;Node17</title>
<g id="a_edge21_Node000015_Node000017"><a xlink:title=" ">
<path fill="none" stroke="#63b8ff" d="M498.9,-202.62C453.63,-192.73 386.01,-177.67 327.38,-163.5 324.23,-162.74 321.01,-161.95 317.77,-161.15"/>
<polygon fill="#63b8ff" stroke="#63b8ff" points="318.69,-157.77 308.14,-158.74 316.99,-164.56 318.69,-157.77"/>
</a>
</g>
</g>
<!-- Node15&#45;&gt;Node19 -->
<g id="edge25_Node000015_Node000019" class="edge">
<title>Node15&#45;&gt;Node19</title>
<g id="a_edge25_Node000015_Node000019"><a xlink:title=" ">
<path fill="none" stroke="#63b8ff" d="M499.05,-208.83C421.22,-201.06 268.81,-184.63 140.38,-163.5 127.39,-161.36 113.48,-158.7 100.4,-156.03"/>
<polygon fill="#63b8ff" stroke="#63b8ff" points="101.15,-152.61 90.65,-154 99.72,-159.47 101.15,-152.61"/>
</a>
</g>
</g>
<!-- Node20 -->
<g id="Node000020" class="node">
<title>Node20</title>
<g id="a_Node000020"><a xlink:href="wakeup__helper_8hpp.html" target="_top" xlink:title=" ">
<polygon fill="white" stroke="#666666" points="460,-157.88 336.75,-157.88 336.75,-127.38 460,-127.38 460,-157.88"/>
<text text-anchor="start" x="344.75" y="-144.38" font-family="Helvetica,sans-Serif" font-size="10.00">yaclib/fault/detail</text>
<text text-anchor="middle" x="398.38" y="-133.12" font-family="Helvetica,sans-Serif" font-size="10.00">/fiber/wakeup_helper.hpp</text>
</a>
</g>
</g>
<!-- Node15&#45;&gt;Node20 -->
<g id="edge29_Node000015_Node000020" class="edge">
<title>Node15&#45;&gt;Node20</title>
<g id="a_edge29_Node000015_Node000020"><a xlink:title=" ">
<path fill="none" stroke="#63b8ff" d="M518.51,-199.05C495.81,-188.58 465.07,-174.4 440.37,-163"/>
<polygon fill="#63b8ff" stroke="#63b8ff" points="442.12,-159.95 431.57,-158.94 439.19,-166.31 442.12,-159.95"/>
</a>
</g>
</g>
<!-- Node21 -->
<g id="Node000021" class="node">
<title>Node21</title>
<g id="a_Node000021"><a xlink:title=" ">
<polygon fill="#e0e0e0" stroke="#999999" points="535,-152.25 477.75,-152.25 477.75,-133 535,-133 535,-152.25"/>
<text text-anchor="middle" x="506.38" y="-138.75" font-family="Helvetica,sans-Serif" font-size="10.00">exception</text>
</a>
</g>
</g>
<!-- Node15&#45;&gt;Node21 -->
<g id="edge30_Node000015_Node000021" class="edge">
<title>Node15&#45;&gt;Node21</title>
<g id="a_edge30_Node000015_Node000021"><a xlink:title=" ">
<path fill="none" stroke="#63b8ff" d="M541.26,-199.22C534.47,-188.41 525.17,-173.58 517.87,-161.95"/>
<polygon fill="#63b8ff" stroke="#63b8ff" points="520.95,-160.27 512.67,-153.66 515.02,-164 520.95,-160.27"/>
</a>
</g>
</g>
<!-- Node22 -->
<g id="Node000022" class="node">
<title>Node22</title>
<g id="a_Node000022"><a xlink:title=" ">
<polygon fill="#e0e0e0" stroke="#999999" points="635.75,-152.25 553,-152.25 553,-133 635.75,-133 635.75,-152.25"/>
<text text-anchor="middle" x="594.38" y="-138.75" font-family="Helvetica,sans-Serif" font-size="10.00">unordered_map</text>
</a>
</g>
</g>
<!-- Node15&#45;&gt;Node22 -->
<g id="edge31_Node000015_Node000022" class="edge">
<title>Node15&#45;&gt;Node22</title>
<g id="a_edge31_Node000015_Node000022"><a xlink:title=" ">
<path fill="none" stroke="#63b8ff" d="M559.49,-199.22C566.28,-188.41 575.58,-173.58 582.88,-161.95"/>
<polygon fill="#63b8ff" stroke="#63b8ff" points="585.73,-164 588.08,-153.66 579.8,-160.27 585.73,-164"/>
</a>
</g>
</g>
<!-- Node16&#45;&gt;Node7 -->
<g id="edge19_Node000016_Node000007" class="edge">
<title>Node16&#45;&gt;Node7</title>
<g id="a_edge19_Node000016_Node000007"><a xlink:title=" ">
<path fill="none" stroke="#63b8ff" d="M951.85,-121.34C966.58,-110.47 984.45,-97.28 998.11,-87.2"/>
<polygon fill="#63b8ff" stroke="#63b8ff" points="1000.02,-90.14 1005.99,-81.38 995.86,-84.51 1000.02,-90.14"/>
</a>
</g>
</g>
<!-- Node16&#45;&gt;Node12 -->
<g id="edge18_Node000016_Node000012" class="edge">
<title>Node16&#45;&gt;Node12</title>
<g id="a_edge18_Node000016_Node000012"><a xlink:title=" ">
<path fill="none" stroke="#63b8ff" d="M924.38,-121.34C924.38,-112 924.38,-100.94 924.38,-91.62"/>
<polygon fill="#63b8ff" stroke="#63b8ff" points="927.88,-91.82 924.38,-81.82 920.88,-91.82 927.88,-91.82"/>
</a>
</g>
</g>
<!-- Node17&#45;&gt;Node3 -->
<g id="edge22_Node000017_Node000003" class="edge">
<title>Node17&#45;&gt;Node3</title>
<g id="a_edge22_Node000017_Node000003"><a xlink:title=" ">
<path fill="none" stroke="#63b8ff" d="M230.48,-127.1C214.42,-115.36 191.86,-98.88 175.48,-86.91"/>
<polygon fill="#63b8ff" stroke="#63b8ff" points="178,-84.42 167.86,-81.35 173.87,-90.08 178,-84.42"/>
</a>
</g>
</g>
<!-- Node17&#45;&gt;Node10 -->
<g id="edge23_Node000017_Node000010" class="edge">
<title>Node17&#45;&gt;Node10</title>
<g id="a_edge23_Node000017_Node000010"><a xlink:title=" ">
<path fill="none" stroke="#63b8ff" d="M305.3,-126.92C346.43,-115.91 402.88,-100.81 446.46,-89.14"/>
<polygon fill="#63b8ff" stroke="#63b8ff" points="447.31,-92.54 456.06,-86.57 445.5,-85.78 447.31,-92.54"/>
</a>
</g>
</g>
<!-- Node18 -->
<g id="Node000018" class="node">
<title>Node18</title>
<g id="a_Node000018"><a xlink:title=" ">
<polygon fill="#e0e0e0" stroke="#999999" points="280.5,-80.12 220.25,-80.12 220.25,-60.88 280.5,-60.88 280.5,-80.12"/>
<text text-anchor="middle" x="250.38" y="-66.62" font-family="Helvetica,sans-Serif" font-size="10.00">ucontext.h</text>
</a>
</g>
</g>
<!-- Node17&#45;&gt;Node18 -->
<g id="edge24_Node000017_Node000018" class="edge">
<title>Node17&#45;&gt;Node18</title>
<g id="a_edge24_Node000017_Node000018"><a xlink:title=" ">
<path fill="none" stroke="#63b8ff" d="M250.38,-127.1C250.38,-116.84 250.38,-102.95 250.38,-91.63"/>
<polygon fill="#63b8ff" stroke="#63b8ff" points="253.88,-91.77 250.38,-81.77 246.88,-91.77 253.88,-91.77"/>
</a>
</g>
</g>
<!-- Node19&#45;&gt;Node10 -->
<g id="edge26_Node000019_Node000010" class="edge">
<title>Node19&#45;&gt;Node10</title>
<g id="a_edge26_Node000019_Node000010"><a xlink:title=" ">
<path fill="none" stroke="#63b8ff" d="M89.14,-134.66C113.96,-130.82 145.37,-125.98 173.38,-121.75 264.77,-107.94 370.08,-92.38 438.76,-82.29"/>
<polygon fill="#63b8ff" stroke="#63b8ff" points="439,-85.79 448.38,-80.87 437.98,-78.87 439,-85.79"/>
</a>
</g>
</g>
<!-- Node19&#45;&gt;Node11 -->
<g id="edge27_Node000019_Node000011" class="edge">
<title>Node19&#45;&gt;Node11</title>
<g id="a_edge27_Node000019_Node000011"><a xlink:title=" ">
<path fill="none" stroke="#63b8ff" d="M50.48,-127.02C59.15,-107.97 76.74,-74.78 101.38,-55.25 126.33,-35.47 160.9,-23.89 186.7,-17.51"/>
<polygon fill="#63b8ff" stroke="#63b8ff" points="187.44,-20.93 196.4,-15.27 185.87,-14.11 187.44,-20.93"/>
</a>
</g>
</g>
<!-- Node23&#45;&gt;Node7 -->
<g id="edge35_Node000023_Node000007" class="edge">
<title>Node23&#45;&gt;Node7</title>
<g id="a_edge35_Node000023_Node000007"><a xlink:title=" ">
<path fill="none" stroke="#63b8ff" d="M1015.63,-204.85C1016.26,-182.4 1017.93,-123 1018.81,-91.61"/>
<polygon fill="#63b8ff" stroke="#63b8ff" points="1022.3,-92 1019.08,-81.91 1015.3,-91.81 1022.3,-92"/>
</a>
</g>
</g>
</g>
</svg>
