<?xml version="1.0" encoding="UTF-8" standalone="no"?>
<!DOCTYPE svg PUBLIC "-//W3C//DTD SVG 1.1//EN"
 "http://www.w3.org/Graphics/SVG/1.1/DTD/svg11.dtd">
<!-- Generated by graphviz version 3.0.0 (20221109.1736)
 -->
<!-- Title: include/yaclib/fault/detail/fiber/scheduler.hpp Pages: 1 -->
<svg width="1295pt" height="407pt"
 viewBox="0.00 0.00 1295.00 407.00" xmlns="http://www.w3.org/2000/svg" xmlns:xlink="http://www.w3.org/1999/xlink">
<g id="graph0" class="graph" transform="scale(1 1) rotate(0) translate(4 403)">
<title>include/yaclib/fault/detail/fiber/scheduler.hpp</title>
<!-- Node1 -->
<g id="node1" class="node">
<title>Node1</title>
<g id="a_node1"><a xlink:title=" ">
<polygon fill="#bfbfbf" stroke="black" points="634,-368.5 634,-398.5 761,-398.5 761,-368.5 634,-368.5"/>
<text text-anchor="start" x="642" y="-386.5" font-family="Helvetica,sans-Serif" font-size="10.00">include/yaclib/fault</text>
<text text-anchor="middle" x="697.5" y="-375.5" font-family="Helvetica,sans-Serif" font-size="10.00">/detail/fiber/scheduler.hpp</text>
</a>
</g>
</g>
<!-- Node2 -->
<g id="node2" class="node">
<title>Node2</title>
<g id="a_node2"><a xlink:href="queue_8hpp.html" target="_top" xlink:title=" ">
<polygon fill="none" stroke="black" points="548,-223.5 548,-253.5 659,-253.5 659,-223.5 548,-223.5"/>
<text text-anchor="start" x="556" y="-241.5" font-family="Helvetica,sans-Serif" font-size="10.00">include/yaclib/fault</text>
<text text-anchor="middle" x="603.5" y="-230.5" font-family="Helvetica,sans-Serif" font-size="10.00">/detail/fiber/queue.hpp</text>
</a>
</g>
</g>
<!-- Node1&#45;&gt;Node2 -->
<g id="edge1" class="edge">
<title>Node1&#45;&gt;Node2</title>
<path fill="none" stroke="midnightblue" d="M624.4,-368.95C604.23,-361.49 584.59,-349.92 572.5,-332 555.83,-307.29 576.73,-272.83 591.43,-253.71"/>
<polygon fill="midnightblue" stroke="midnightblue" points="623.4,-372.3 633.99,-372.19 625.64,-365.67 623.4,-372.3"/>
</g>
<!-- Node17 -->
<g id="node17" class="node">
<title>Node17</title>
<g id="a_node17"><a xlink:href="fault_2detail_2fiber_2thread_8hpp.html" target="_top" xlink:title=" ">
<polygon fill="none" stroke="black" points="285.5,-151 285.5,-181 397.5,-181 397.5,-151 285.5,-151"/>
<text text-anchor="start" x="293.5" y="-169" font-family="Helvetica,sans-Serif" font-size="10.00">include/yaclib/fault</text>
<text text-anchor="middle" x="341.5" y="-158" font-family="Helvetica,sans-Serif" font-size="10.00">/detail/fiber/thread.hpp</text>
</a>
</g>
</g>
<!-- Node1&#45;&gt;Node17 -->
<g id="edge24" class="edge">
<title>Node1&#45;&gt;Node17</title>
<path fill="none" stroke="midnightblue" d="M640.55,-365.21C615.85,-356.71 587.03,-345.39 562.5,-332 478.86,-286.35 391.71,-211.97 357.05,-181.11"/>
<polygon fill="midnightblue" stroke="midnightblue" points="639.55,-368.57 650.14,-368.45 641.79,-361.94 639.55,-368.57"/>
</g>
<!-- Node20 -->
<g id="node20" class="node">
<title>Node20</title>
<g id="a_node20"><a xlink:href="system__clock_8hpp.html" target="_top" xlink:title=" ">
<polygon fill="none" stroke="black" points="581.5,-290.5 581.5,-331.5 679.5,-331.5 679.5,-290.5 581.5,-290.5"/>
<text text-anchor="start" x="589.5" y="-319.5" font-family="Helvetica,sans-Serif" font-size="10.00">include/yaclib/fault</text>
<text text-anchor="start" x="589.5" y="-308.5" font-family="Helvetica,sans-Serif" font-size="10.00">/detail/fiber/system</text>
<text text-anchor="middle" x="630.5" y="-297.5" font-family="Helvetica,sans-Serif" font-size="10.00">_clock.hpp</text>
</a>
</g>
</g>
<!-- Node1&#45;&gt;Node20 -->
<g id="edge21" class="edge">
<title>Node1&#45;&gt;Node20</title>
<path fill="none" stroke="midnightblue" d="M676.9,-360.82C668.03,-351.49 657.75,-340.67 649.12,-331.59"/>
<polygon fill="midnightblue" stroke="midnightblue" points="674.52,-363.4 683.94,-368.23 679.59,-358.57 674.52,-363.4"/>
</g>
<!-- Node22 -->
<g id="node22" class="node">
<title>Node22</title>
<g id="a_node22"><a xlink:href="scheduler_8cpp.html" target="_top" xlink:title=" ">
<polygon fill="none" stroke="black" points="697.5,-301.5 697.5,-320.5 833.5,-320.5 833.5,-301.5 697.5,-301.5"/>
<text text-anchor="middle" x="765.5" y="-308.5" font-family="Helvetica,sans-Serif" font-size="10.00">src/fault/fiber/scheduler.cpp</text>
</a>
</g>
</g>
<!-- Node1&#45;&gt;Node22 -->
<g id="edge25" class="edge">
<title>Node1&#45;&gt;Node22</title>
<path fill="none" stroke="midnightblue" d="M718.47,-360.76C731.41,-347.34 747.32,-330.85 756.92,-320.89"/>
<polygon fill="midnightblue" stroke="midnightblue" points="715.68,-358.61 711.26,-368.23 720.72,-363.47 715.68,-358.61"/>
</g>
<!-- Node23 -->
<g id="node23" class="node">
<title>Node23</title>
<g id="a_node23"><a xlink:href="thread__local__proxy_8cpp.html" target="_top" xlink:title=" ">
<polygon fill="none" stroke="black" points="852,-296 852,-326 955,-326 955,-296 852,-296"/>
<text text-anchor="start" x="860" y="-314" font-family="Helvetica,sans-Serif" font-size="10.00">src/fault/fiber/thread</text>
<text text-anchor="middle" x="903.5" y="-303" font-family="Helvetica,sans-Serif" font-size="10.00">_local_proxy.cpp</text>
</a>
</g>
</g>
<!-- Node1&#45;&gt;Node23 -->
<g id="edge26" class="edge">
<title>Node1&#45;&gt;Node23</title>
<path fill="none" stroke="midnightblue" d="M748.29,-365.12C783.41,-353.1 829.56,-337.31 862.38,-326.07"/>
<polygon fill="midnightblue" stroke="midnightblue" points="747.02,-361.85 738.69,-368.4 749.29,-368.48 747.02,-361.85"/>
</g>
<!-- Node24 -->
<g id="node24" class="node">
<title>Node24</title>
<g id="a_node24"><a xlink:href="wakeup__helper_8cpp.html" target="_top" xlink:title=" ">
<polygon fill="none" stroke="black" points="973.5,-296 973.5,-326 1083.5,-326 1083.5,-296 973.5,-296"/>
<text text-anchor="start" x="981.5" y="-314" font-family="Helvetica,sans-Serif" font-size="10.00">src/fault/fiber/wakeup</text>
<text text-anchor="middle" x="1028.5" y="-303" font-family="Helvetica,sans-Serif" font-size="10.00">_helper.cpp</text>
</a>
</g>
</g>
<!-- Node1&#45;&gt;Node24 -->
<g id="edge27" class="edge">
<title>Node1&#45;&gt;Node24</title>
<path fill="none" stroke="midnightblue" d="M771.22,-370.92C825.11,-361.89 899.79,-348.17 964.5,-332 971.5,-330.25 978.87,-328.17 986.01,-326.03"/>
<polygon fill="midnightblue" stroke="midnightblue" points="770.36,-367.52 761.07,-372.61 771.51,-374.42 770.36,-367.52"/>
</g>
<!-- Node3 -->
<g id="node3" class="node">
<title>Node3</title>
<g id="a_node3"><a xlink:href="fiber_2atomic__wait_8hpp.html" target="_top" xlink:title=" ">
<polygon fill="none" stroke="black" points="1066,-145.5 1066,-186.5 1163,-186.5 1163,-145.5 1066,-145.5"/>
<text text-anchor="start" x="1074" y="-174.5" font-family="Helvetica,sans-Serif" font-size="10.00">include/yaclib/fault</text>
<text text-anchor="start" x="1074" y="-163.5" font-family="Helvetica,sans-Serif" font-size="10.00">/detail/fiber/atomic</text>
<text text-anchor="middle" x="1114.5" y="-152.5" font-family="Helvetica,sans-Serif" font-size="10.00">_wait.hpp</text>
</a>
</g>
</g>
<!-- Node2&#45;&gt;Node3 -->
<g id="edge2" class="edge">
<title>Node2&#45;&gt;Node3</title>
<path fill="none" stroke="midnightblue" d="M669.3,-223.02C829.5,-198.04 873.72,-212.98 1029.5,-187 1041.31,-185.03 1053.93,-182.37 1065.73,-179.64"/>
<polygon fill="midnightblue" stroke="midnightblue" points="668.41,-219.62 659.08,-224.64 669.51,-226.53 668.41,-219.62"/>
</g>
<!-- Node6 -->
<g id="node6" class="node">
<title>Node6</title>
<g id="a_node6"><a xlink:href="fault_2detail_2fiber_2mutex_8hpp.html" target="_top" xlink:title=" ">
<polygon fill="none" stroke="black" points="416,-151 416,-181 527,-181 527,-151 416,-151"/>
<text text-anchor="start" x="424" y="-169" font-family="Helvetica,sans-Serif" font-size="10.00">include/yaclib/fault</text>
<text text-anchor="middle" x="471.5" y="-158" font-family="Helvetica,sans-Serif" font-size="10.00">/detail/fiber/mutex.hpp</text>
</a>
</g>
</g>
<!-- Node2&#45;&gt;Node6 -->
<g id="edge5" class="edge">
<title>Node2&#45;&gt;Node6</title>
<path fill="none" stroke="midnightblue" d="M568.03,-218.56C545.94,-206.76 517.98,-191.83 497.85,-181.07"/>
<polygon fill="midnightblue" stroke="midnightblue" points="566.64,-221.78 577.11,-223.4 569.93,-215.6 566.64,-221.78"/>
</g>
<!-- Node9 -->
<g id="node9" class="node">
<title>Node9</title>
<g id="a_node9"><a xlink:href="fault_2detail_2fiber_2timed__mutex_8hpp.html" target="_top" xlink:title=" ">
<polygon fill="none" stroke="black" points="401.5,-73 401.5,-103 541.5,-103 541.5,-73 401.5,-73"/>
<text text-anchor="start" x="409.5" y="-91" font-family="Helvetica,sans-Serif" font-size="10.00">include/yaclib/fault</text>
<text text-anchor="middle" x="471.5" y="-80" font-family="Helvetica,sans-Serif" font-size="10.00">/detail/fiber/timed_mutex.hpp</text>
</a>
</g>
</g>
<!-- Node2&#45;&gt;Node9 -->
<g id="edge19" class="edge">
<title>Node2&#45;&gt;Node9</title>
<path fill="none" stroke="midnightblue" d="M588.86,-214.8C575.88,-195.39 555.87,-167.18 535.5,-145 521.22,-129.45 502.92,-113.8 489.55,-103.01"/>
<polygon fill="midnightblue" stroke="midnightblue" points="586.04,-216.88 594.47,-223.29 591.88,-213.02 586.04,-216.88"/>
</g>
<!-- Node11 -->
<g id="node11" class="node">
<title>Node11</title>
<g id="a_node11"><a xlink:href="fault_2detail_2fiber_2recursive__mutex_8hpp.html" target="_top" xlink:title=" ">
<polygon fill="none" stroke="black" points="632,-145.5 632,-186.5 739,-186.5 739,-145.5 632,-145.5"/>
<text text-anchor="start" x="640" y="-174.5" font-family="Helvetica,sans-Serif" font-size="10.00">include/yaclib/fault</text>
<text text-anchor="start" x="640" y="-163.5" font-family="Helvetica,sans-Serif" font-size="10.00">/detail/fiber/recursive</text>
<text text-anchor="middle" x="685.5" y="-152.5" font-family="Helvetica,sans-Serif" font-size="10.00">_mutex.hpp</text>
</a>
</g>
</g>
<!-- Node2&#45;&gt;Node11 -->
<g id="edge10" class="edge">
<title>Node2&#45;&gt;Node11</title>
<path fill="none" stroke="midnightblue" d="M627.74,-216.66C638.81,-207.15 651.84,-195.94 662.72,-186.59"/>
<polygon fill="midnightblue" stroke="midnightblue" points="625.39,-214.06 620.09,-223.23 629.96,-219.37 625.39,-214.06"/>
</g>
<!-- Node12 -->
<g id="node12" class="node">
<title>Node12</title>
<g id="a_node12"><a xlink:href="fault_2detail_2fiber_2recursive__timed__mutex_8hpp.html" target="_top" xlink:title=" ">
<polygon fill="none" stroke="black" points="560,-67.5 560,-108.5 667,-108.5 667,-67.5 560,-67.5"/>
<text text-anchor="start" x="568" y="-96.5" font-family="Helvetica,sans-Serif" font-size="10.00">include/yaclib/fault</text>
<text text-anchor="start" x="568" y="-85.5" font-family="Helvetica,sans-Serif" font-size="10.00">/detail/fiber/recursive</text>
<text text-anchor="middle" x="613.5" y="-74.5" font-family="Helvetica,sans-Serif" font-size="10.00">_timed_mutex.hpp</text>
</a>
</g>
</g>
<!-- Node2&#45;&gt;Node12 -->
<g id="edge13" class="edge">
<title>Node2&#45;&gt;Node12</title>
<path fill="none" stroke="midnightblue" d="M605.14,-213.08C607.11,-183.83 610.37,-135.44 612.18,-108.55"/>
<polygon fill="midnightblue" stroke="midnightblue" points="601.64,-213.05 604.46,-223.26 608.62,-213.52 601.64,-213.05"/>
</g>
<!-- Node14 -->
<g id="node14" class="node">
<title>Node14</title>
<g id="a_node14"><a xlink:href="fault_2detail_2fiber_2shared__mutex_8hpp.html" target="_top" xlink:title=" ">
<polygon fill="none" stroke="black" points="786,-145.5 786,-186.5 883,-186.5 883,-145.5 786,-145.5"/>
<text text-anchor="start" x="794" y="-174.5" font-family="Helvetica,sans-Serif" font-size="10.00">include/yaclib/fault</text>
<text text-anchor="start" x="794" y="-163.5" font-family="Helvetica,sans-Serif" font-size="10.00">/detail/fiber/shared</text>
<text text-anchor="middle" x="834.5" y="-152.5" font-family="Helvetica,sans-Serif" font-size="10.00">_mutex.hpp</text>
</a>
</g>
</g>
<!-- Node2&#45;&gt;Node14 -->
<g id="edge14" class="edge">
<title>Node2&#45;&gt;Node14</title>
<path fill="none" stroke="midnightblue" d="M659.46,-220.42C698.09,-208.63 748.95,-193.11 785.88,-181.84"/>
<polygon fill="midnightblue" stroke="midnightblue" points="657.96,-217.22 649.41,-223.49 660,-223.92 657.96,-217.22"/>
</g>
<!-- Node2&#45;&gt;Node17 -->
<g id="edge17" class="edge">
<title>Node2&#45;&gt;Node17</title>
<path fill="none" stroke="midnightblue" d="M537.67,-221.46C499.29,-211.9 450.02,-199.27 406.5,-187 399.91,-185.14 392.97,-183.1 386.17,-181.05"/>
<polygon fill="midnightblue" stroke="midnightblue" points="537.14,-224.93 547.69,-223.94 538.83,-218.14 537.14,-224.93"/>
</g>
<!-- Node19 -->
<g id="node19" class="node">
<title>Node19</title>
<g id="a_node19"><a xlink:href="queue_8cpp.html" target="_top" xlink:title=" ">
<polygon fill="none" stroke="black" points="900.5,-156.5 900.5,-175.5 1020.5,-175.5 1020.5,-156.5 900.5,-156.5"/>
<text text-anchor="middle" x="960.5" y="-163.5" font-family="Helvetica,sans-Serif" font-size="10.00">src/fault/fiber/queue.cpp</text>
</a>
</g>
</g>
<!-- Node2&#45;&gt;Node19 -->
<g id="edge20" class="edge">
<title>Node2&#45;&gt;Node19</title>
<path fill="none" stroke="midnightblue" d="M669.05,-222.98C769.26,-204.32 797.23,-208.57 892.5,-187 906.42,-183.85 921.69,-179.45 934.22,-175.57"/>
<polygon fill="midnightblue" stroke="midnightblue" points="668.3,-219.56 659.12,-224.86 669.6,-226.44 668.3,-219.56"/>
</g>
<!-- Node4 -->
<g id="node4" class="node">
<title>Node4</title>
<g id="a_node4"><a xlink:href="fault_2detail_2fiber_2atomic_8hpp.html" target="_top" xlink:title=" ">
<polygon fill="none" stroke="black" points="1057.5,-73 1057.5,-103 1171.5,-103 1171.5,-73 1057.5,-73"/>
<text text-anchor="start" x="1065.5" y="-91" font-family="Helvetica,sans-Serif" font-size="10.00">include/yaclib/fault</text>
<text text-anchor="middle" x="1114.5" y="-80" font-family="Helvetica,sans-Serif" font-size="10.00">/detail/fiber/atomic.hpp</text>
</a>
</g>
</g>
<!-- Node3&#45;&gt;Node4 -->
<g id="edge3" class="edge">
<title>Node3&#45;&gt;Node4</title>
<path fill="none" stroke="midnightblue" d="M1114.5,-135.28C1114.5,-124.25 1114.5,-112.25 1114.5,-103.23"/>
<polygon fill="midnightblue" stroke="midnightblue" points="1111,-135.43 1114.5,-145.43 1118,-135.43 1111,-135.43"/>
</g>
<!-- Node5 -->
<g id="node5" class="node">
<title>Node5</title>
<g id="a_node5"><a xlink:href="fault_2detail_2fiber_2atomic__flag_8hpp.html" target="_top" xlink:title=" ">
<polygon fill="none" stroke="black" points="1190,-67.5 1190,-108.5 1287,-108.5 1287,-67.5 1190,-67.5"/>
<text text-anchor="start" x="1198" y="-96.5" font-family="Helvetica,sans-Serif" font-size="10.00">include/yaclib/fault</text>
<text text-anchor="start" x="1198" y="-85.5" font-family="Helvetica,sans-Serif" font-size="10.00">/detail/fiber/atomic</text>
<text text-anchor="middle" x="1238.5" y="-74.5" font-family="Helvetica,sans-Serif" font-size="10.00">_flag.hpp</text>
</a>
</g>
</g>
<!-- Node3&#45;&gt;Node5 -->
<g id="edge4" class="edge">
<title>Node3&#45;&gt;Node5</title>
<path fill="none" stroke="midnightblue" d="M1155.42,-139.92C1172.09,-129.7 1191.07,-118.07 1206.68,-108.51"/>
<polygon fill="midnightblue" stroke="midnightblue" points="1153.13,-137.22 1146.43,-145.43 1156.79,-143.19 1153.13,-137.22"/>
</g>
<!-- Node7 -->
<g id="node7" class="node">
<title>Node7</title>
<g id="a_node7"><a xlink:href="fault_2detail_2fiber_2condition__variable_8hpp.html" target="_top" xlink:title=" ">
<polygon fill="none" stroke="black" points="139.5,-67.5 139.5,-108.5 245.5,-108.5 245.5,-67.5 139.5,-67.5"/>
<text text-anchor="start" x="147.5" y="-96.5" font-family="Helvetica,sans-Serif" font-size="10.00">include/yaclib/fault</text>
<text text-anchor="start" x="147.5" y="-85.5" font-family="Helvetica,sans-Serif" font-size="10.00">/detail/fiber/condition</text>
<text text-anchor="middle" x="192.5" y="-74.5" font-family="Helvetica,sans-Serif" font-size="10.00">_variable.hpp</text>
</a>
</g>
</g>
<!-- Node6&#45;&gt;Node7 -->
<g id="edge6" class="edge">
<title>Node6&#45;&gt;Node7</title>
<path fill="none" stroke="midnightblue" d="M417.43,-148.07C413.74,-147 410.07,-145.97 406.5,-145 339.51,-126.78 321.37,-127.67 254.5,-109 251.56,-108.18 248.55,-107.31 245.52,-106.41"/>
<polygon fill="midnightblue" stroke="midnightblue" points="416.63,-151.48 427.21,-150.94 418.6,-144.76 416.63,-151.48"/>
</g>
<!-- Node6&#45;&gt;Node9 -->
<g id="edge8" class="edge">
<title>Node6&#45;&gt;Node9</title>
<path fill="none" stroke="midnightblue" d="M471.5,-140.59C471.5,-128.26 471.5,-113.72 471.5,-103.23"/>
<polygon fill="midnightblue" stroke="midnightblue" points="468,-140.7 471.5,-150.7 475,-140.71 468,-140.7"/>
</g>
<!-- Node10 -->
<g id="node10" class="node">
<title>Node10</title>
<g id="a_node10"><a xlink:href="mutex_8cpp.html" target="_top" xlink:title=" ">
<polygon fill="none" stroke="black" points="263.5,-78.5 263.5,-97.5 383.5,-97.5 383.5,-78.5 263.5,-78.5"/>
<text text-anchor="middle" x="323.5" y="-85.5" font-family="Helvetica,sans-Serif" font-size="10.00">src/fault/fiber/mutex.cpp</text>
</a>
</g>
</g>
<!-- Node6&#45;&gt;Node10 -->
<g id="edge9" class="edge">
<title>Node6&#45;&gt;Node10</title>
<path fill="none" stroke="midnightblue" d="M435.02,-146.27C404.77,-130.73 363.14,-109.36 340.26,-97.61"/>
<polygon fill="midnightblue" stroke="midnightblue" points="433.51,-149.43 444.01,-150.88 436.71,-143.2 433.51,-149.43"/>
</g>
<!-- Node8 -->
<g id="node8" class="node">
<title>Node8</title>
<g id="a_node8"><a xlink:href="fiber_2condition__variable_8cpp.html" target="_top" xlink:title=" ">
<polygon fill="none" stroke="black" points="135,-0.5 135,-30.5 250,-30.5 250,-0.5 135,-0.5"/>
<text text-anchor="start" x="143" y="-18.5" font-family="Helvetica,sans-Serif" font-size="10.00">src/fault/fiber/condition</text>
<text text-anchor="middle" x="192.5" y="-7.5" font-family="Helvetica,sans-Serif" font-size="10.00">_variable.cpp</text>
</a>
</g>
</g>
<!-- Node7&#45;&gt;Node8 -->
<g id="edge7" class="edge">
<title>Node7&#45;&gt;Node8</title>
<path fill="none" stroke="midnightblue" d="M192.5,-57.08C192.5,-48.01 192.5,-38.45 192.5,-30.89"/>
<polygon fill="midnightblue" stroke="midnightblue" points="189,-57.36 192.5,-67.36 196,-57.36 189,-57.36"/>
</g>
<!-- Node11&#45;&gt;Node12 -->
<g id="edge11" class="edge">
<title>Node11&#45;&gt;Node12</title>
<path fill="none" stroke="midnightblue" d="M659.84,-137.92C650.64,-128.2 640.45,-117.45 631.98,-108.51"/>
<polygon fill="midnightblue" stroke="midnightblue" points="657.54,-140.58 666.96,-145.43 662.62,-135.76 657.54,-140.58"/>
</g>
<!-- Node13 -->
<g id="node13" class="node">
<title>Node13</title>
<g id="a_node13"><a xlink:href="recursive__mutex_8cpp.html" target="_top" xlink:title=" ">
<polygon fill="none" stroke="black" points="685.5,-73 685.5,-103 801.5,-103 801.5,-73 685.5,-73"/>
<text text-anchor="start" x="693.5" y="-91" font-family="Helvetica,sans-Serif" font-size="10.00">src/fault/fiber/recursive</text>
<text text-anchor="middle" x="743.5" y="-80" font-family="Helvetica,sans-Serif" font-size="10.00">_mutex.cpp</text>
</a>
</g>
</g>
<!-- Node11&#45;&gt;Node13 -->
<g id="edge12" class="edge">
<title>Node11&#45;&gt;Node13</title>
<path fill="none" stroke="midnightblue" d="M706.63,-137.32C715.45,-125.75 725.33,-112.8 732.64,-103.23"/>
<polygon fill="midnightblue" stroke="midnightblue" points="703.72,-135.36 700.44,-145.43 709.29,-139.6 703.72,-135.36"/>
</g>
<!-- Node15 -->
<g id="node15" class="node">
<title>Node15</title>
<g id="a_node15"><a xlink:href="fault_2detail_2fiber_2shared__timed__mutex_8hpp.html" target="_top" xlink:title=" ">
<polygon fill="none" stroke="black" points="819,-67.5 819,-108.5 916,-108.5 916,-67.5 819,-67.5"/>
<text text-anchor="start" x="827" y="-96.5" font-family="Helvetica,sans-Serif" font-size="10.00">include/yaclib/fault</text>
<text text-anchor="start" x="827" y="-85.5" font-family="Helvetica,sans-Serif" font-size="10.00">/detail/fiber/shared</text>
<text text-anchor="middle" x="867.5" y="-74.5" font-family="Helvetica,sans-Serif" font-size="10.00">_timed_mutex.hpp</text>
</a>
</g>
</g>
<!-- Node14&#45;&gt;Node15 -->
<g id="edge15" class="edge">
<title>Node14&#45;&gt;Node15</title>
<path fill="none" stroke="midnightblue" d="M847.02,-136.17C851.03,-126.93 855.38,-116.92 859.03,-108.51"/>
<polygon fill="midnightblue" stroke="midnightblue" points="843.77,-134.86 843,-145.43 850.19,-137.65 843.77,-134.86"/>
</g>
<!-- Node16 -->
<g id="node16" class="node">
<title>Node16</title>
<g id="a_node16"><a xlink:href="shared__mutex_8cpp.html" target="_top" xlink:title=" ">
<polygon fill="none" stroke="black" points="934,-73 934,-103 1039,-103 1039,-73 934,-73"/>
<text text-anchor="start" x="942" y="-91" font-family="Helvetica,sans-Serif" font-size="10.00">src/fault/fiber/shared</text>
<text text-anchor="middle" x="986.5" y="-80" font-family="Helvetica,sans-Serif" font-size="10.00">_mutex.cpp</text>
</a>
</g>
</g>
<!-- Node14&#45;&gt;Node16 -->
<g id="edge16" class="edge">
<title>Node14&#45;&gt;Node16</title>
<path fill="none" stroke="midnightblue" d="M882.89,-140.81C907.65,-128.43 936.94,-113.78 958.05,-103.23"/>
<polygon fill="midnightblue" stroke="midnightblue" points="881.02,-137.83 873.64,-145.43 884.15,-144.09 881.02,-137.83"/>
</g>
<!-- Node18 -->
<g id="node18" class="node">
<title>Node18</title>
<g id="a_node18"><a xlink:href="thread_8cpp.html" target="_top" xlink:title=" ">
<polygon fill="none" stroke="black" points="0,-78.5 0,-97.5 121,-97.5 121,-78.5 0,-78.5"/>
<text text-anchor="middle" x="60.5" y="-85.5" font-family="Helvetica,sans-Serif" font-size="10.00">src/fault/fiber/thread.cpp</text>
</a>
</g>
</g>
<!-- Node17&#45;&gt;Node18 -->
<g id="edge18" class="edge">
<title>Node17&#45;&gt;Node18</title>
<path fill="none" stroke="midnightblue" d="M277.43,-148.33C235.56,-137.36 179.72,-122.56 130.5,-109 117.22,-105.34 102.56,-101.17 90.1,-97.59"/>
<polygon fill="midnightblue" stroke="midnightblue" points="276.66,-151.75 287.22,-150.89 278.43,-144.97 276.66,-151.75"/>
</g>
<!-- Node20&#45;&gt;Node2 -->
<g id="edge22" class="edge">
<title>Node20&#45;&gt;Node2</title>
<path fill="none" stroke="midnightblue" d="M619.38,-280.97C615.81,-271.63 612,-261.7 609.01,-253.89"/>
<polygon fill="midnightblue" stroke="midnightblue" points="616.13,-282.28 622.98,-290.36 622.67,-279.77 616.13,-282.28"/>
</g>
<!-- Node21 -->
<g id="node21" class="node">
<title>Node21</title>
<g id="a_node21"><a xlink:href="system__clock_8cpp.html" target="_top" xlink:title=" ">
<polygon fill="none" stroke="black" points="677,-223.5 677,-253.5 784,-253.5 784,-223.5 677,-223.5"/>
<text text-anchor="start" x="685" y="-241.5" font-family="Helvetica,sans-Serif" font-size="10.00">src/fault/fiber/system</text>
<text text-anchor="middle" x="730.5" y="-230.5" font-family="Helvetica,sans-Serif" font-size="10.00">_clock.cpp</text>
</a>
</g>
</g>
<!-- Node20&#45;&gt;Node21 -->
<g id="edge23" class="edge">
<title>Node20&#45;&gt;Node21</title>
<path fill="none" stroke="midnightblue" d="M666.77,-284.43C681.48,-274.06 697.91,-262.48 710.4,-253.67"/>
<polygon fill="midnightblue" stroke="midnightblue" points="664.51,-281.74 658.36,-290.36 668.55,-287.46 664.51,-281.74"/>
</g>
</g>
</svg>
