<?xml version="1.0" encoding="UTF-8" standalone="no"?>
<!DOCTYPE svg PUBLIC "-//W3C//DTD SVG 1.1//EN"
 "http://www.w3.org/Graphics/SVG/1.1/DTD/svg11.dtd">
<!-- Generated by graphviz version 9.0.0 (20230911.1827)
 -->
<!-- Title: include/yaclib/util/detail/set_deleter.hpp Pages: 1 -->
<svg width="2467pt" height="571pt"
 viewBox="0.00 0.00 2466.75 570.50" xmlns="http://www.w3.org/2000/svg" xmlns:xlink="http://www.w3.org/1999/xlink">
<g id="graph0" class="graph" transform="scale(1 1) rotate(0) translate(4 566.5)">
<title>include/yaclib/util/detail/set_deleter.hpp</title>
<!-- Node1 -->
<g id="Node000001" class="node">
<title>Node1</title>
<g id="a_Node000001"><a xlink:title=" ">
<polygon fill="#999999" stroke="#666666" points="220,-562.5 108.75,-562.5 108.75,-532 220,-532 220,-562.5"/>
<text text-anchor="start" x="116.75" y="-549" font-family="Helvetica,sans-Serif" font-size="10.00">include/yaclib/util</text>
<text text-anchor="middle" x="164.38" y="-537.75" font-family="Helvetica,sans-Serif" font-size="10.00">/detail/set_deleter.hpp</text>
</a>
</g>
</g>
<!-- Node2 -->
<g id="Node000002" class="node">
<title>Node2</title>
<g id="a_Node000002"><a xlink:href="wait__event_8hpp.html" target="_top" xlink:title=" ">
<polygon fill="white" stroke="#666666" points="219.62,-496 109.12,-496 109.12,-465.5 219.62,-465.5 219.62,-496"/>
<text text-anchor="start" x="117.12" y="-482.5" font-family="Helvetica,sans-Serif" font-size="10.00">include/yaclib/algo</text>
<text text-anchor="middle" x="164.38" y="-471.25" font-family="Helvetica,sans-Serif" font-size="10.00">/detail/wait_event.hpp</text>
</a>
</g>
</g>
<!-- Node1&#45;&gt;Node2 -->
<g id="edge1_Node000001_Node000002" class="edge">
<title>Node1&#45;&gt;Node2</title>
<g id="a_edge1_Node000001_Node000002"><a xlink:title=" ">
<path fill="none" stroke="#63b8ff" d="M164.38,-520.31C164.38,-512.14 164.38,-503.41 164.38,-496.33"/>
<polygon fill="#63b8ff" stroke="#63b8ff" points="160.88,-520.1 164.38,-530.1 167.88,-520.1 160.88,-520.1"/>
</a>
</g>
</g>
<!-- Node3 -->
<g id="Node000003" class="node">
<title>Node3</title>
<g id="a_Node000003"><a xlink:href="wait__group_8hpp.html" target="_top" xlink:title=" ">
<polygon fill="white" stroke="#666666" points="107.12,-230 11.62,-230 11.62,-199.5 107.12,-199.5 107.12,-230"/>
<text text-anchor="start" x="19.62" y="-216.5" font-family="Helvetica,sans-Serif" font-size="10.00">include/yaclib/algo</text>
<text text-anchor="middle" x="59.38" y="-205.25" font-family="Helvetica,sans-Serif" font-size="10.00">/wait_group.hpp</text>
</a>
</g>
</g>
<!-- Node1&#45;&gt;Node3 -->
<g id="edge63_Node000001_Node000003" class="edge">
<title>Node1&#45;&gt;Node3</title>
<g id="a_edge63_Node000001_Node000003"><a xlink:title=" ">
<path fill="none" stroke="#63b8ff" d="M131.26,-524.89C120.45,-516.78 109.02,-506.85 100.38,-496 75.67,-464.97 62.38,-454.91 62.38,-415.25 62.38,-415.25 62.38,-415.25 62.38,-346.75 62.38,-304.44 60.79,-254.46 59.93,-230.29"/>
<polygon fill="#63b8ff" stroke="#63b8ff" points="129.12,-527.66 139.28,-530.64 133.2,-521.97 129.12,-527.66"/>
</a>
</g>
</g>
<!-- Node5 -->
<g id="Node000005" class="node">
<title>Node5</title>
<g id="a_Node000005"><a xlink:href="wait__impl_8hpp.html" target="_top" xlink:title=" ">
<polygon fill="white" stroke="#666666" points="311.62,-429.5 207.12,-429.5 207.12,-399 311.62,-399 311.62,-429.5"/>
<text text-anchor="start" x="215.12" y="-416" font-family="Helvetica,sans-Serif" font-size="10.00">include/yaclib/async</text>
<text text-anchor="middle" x="259.38" y="-404.75" font-family="Helvetica,sans-Serif" font-size="10.00">/detail/wait_impl.hpp</text>
</a>
</g>
</g>
<!-- Node1&#45;&gt;Node5 -->
<g id="edge64_Node000001_Node000005" class="edge">
<title>Node1&#45;&gt;Node5</title>
<g id="a_edge64_Node000001_Node000005"><a xlink:title=" ">
<path fill="none" stroke="#63b8ff" d="M198.2,-525.05C208.97,-517 220.2,-507.08 228.38,-496 243.45,-475.58 252.13,-446.93 256.29,-429.81"/>
<polygon fill="#63b8ff" stroke="#63b8ff" points="196.31,-522.1 190.18,-530.74 200.36,-527.81 196.31,-522.1"/>
</a>
</g>
</g>
<!-- Node2&#45;&gt;Node3 -->
<g id="edge2_Node000002_Node000003" class="edge">
<title>Node2&#45;&gt;Node3</title>
<g id="a_edge2_Node000002_Node000003"><a xlink:title=" ">
<path fill="none" stroke="#63b8ff" d="M154.44,-454.76C132.86,-400.5 82.27,-273.31 65.15,-230.27"/>
<polygon fill="#63b8ff" stroke="#63b8ff" points="151.07,-455.78 158.02,-463.77 157.58,-453.19 151.07,-455.78"/>
</a>
</g>
</g>
<!-- Node2&#45;&gt;Node5 -->
<g id="edge4_Node000002_Node000005" class="edge">
<title>Node2&#45;&gt;Node5</title>
<g id="a_edge4_Node000002_Node000005"><a xlink:title=" ">
<path fill="none" stroke="#63b8ff" d="M195.17,-458.84C209.13,-449.37 225.29,-438.39 237.9,-429.83"/>
<polygon fill="#63b8ff" stroke="#63b8ff" points="193.49,-455.75 187.18,-464.26 197.42,-461.54 193.49,-455.75"/>
</a>
</g>
</g>
<!-- Node4 -->
<g id="Node000004" class="node">
<title>Node4</title>
<g id="a_Node000004"><a xlink:href="wait__group_8cpp.html" target="_top" xlink:title=" ">
<polygon fill="white" stroke="#666666" points="118.75,-157.88 0,-157.88 0,-138.62 118.75,-138.62 118.75,-157.88"/>
<text text-anchor="middle" x="59.38" y="-144.38" font-family="Helvetica,sans-Serif" font-size="10.00">src/algo/wait_group.cpp</text>
</a>
</g>
</g>
<!-- Node3&#45;&gt;Node4 -->
<g id="edge3_Node000003_Node000004" class="edge">
<title>Node3&#45;&gt;Node4</title>
<g id="a_edge3_Node000003_Node000004"><a xlink:title=" ">
<path fill="none" stroke="#63b8ff" d="M59.38,-187.84C59.38,-177.26 59.38,-165.75 59.38,-158.07"/>
<polygon fill="#63b8ff" stroke="#63b8ff" points="55.88,-187.6 59.38,-197.6 62.88,-187.6 55.88,-187.6"/>
</a>
</g>
</g>
<!-- Node6 -->
<g id="Node000006" class="node">
<title>Node6</title>
<g id="a_Node000006"><a xlink:href="wait_8hpp.html" target="_top" xlink:title=" ">
<polygon fill="white" stroke="#666666" points="1202.88,-363 1099.88,-363 1099.88,-332.5 1202.88,-332.5 1202.88,-363"/>
<text text-anchor="start" x="1107.88" y="-349.5" font-family="Helvetica,sans-Serif" font-size="10.00">include/yaclib/async</text>
<text text-anchor="middle" x="1151.38" y="-338.25" font-family="Helvetica,sans-Serif" font-size="10.00">/wait.hpp</text>
</a>
</g>
</g>
<!-- Node5&#45;&gt;Node6 -->
<g id="edge5_Node000005_Node000006" class="edge">
<title>Node5&#45;&gt;Node6</title>
<g id="a_edge5_Node000005_Node000006"><a xlink:title=" ">
<path fill="none" stroke="#63b8ff" d="M323.23,-408.63C491.68,-396.45 945.63,-363.63 1099.53,-352.5"/>
<polygon fill="#63b8ff" stroke="#63b8ff" points="323.07,-405.13 313.35,-409.35 323.58,-412.12 323.07,-405.13"/>
</a>
</g>
</g>
<!-- Node22 -->
<g id="Node000022" class="node">
<title>Node22</title>
<g id="a_Node000022"><a xlink:href="wait__for_8hpp.html" target="_top" xlink:title=" ">
<polygon fill="white" stroke="#666666" points="1921.88,-230 1818.88,-230 1818.88,-199.5 1921.88,-199.5 1921.88,-230"/>
<text text-anchor="start" x="1826.88" y="-216.5" font-family="Helvetica,sans-Serif" font-size="10.00">include/yaclib/async</text>
<text text-anchor="middle" x="1870.38" y="-205.25" font-family="Helvetica,sans-Serif" font-size="10.00">/wait_for.hpp</text>
</a>
</g>
</g>
<!-- Node5&#45;&gt;Node22 -->
<g id="edge60_Node000005_Node000022" class="edge">
<title>Node5&#45;&gt;Node22</title>
<g id="a_edge60_Node000005_Node000022"><a xlink:title=" ">
<path fill="none" stroke="#63b8ff" d="M323.17,-413.56C476.93,-413.52 879.9,-408.64 1212.38,-363 1441.13,-331.6 1708.01,-261.17 1818.46,-230.49"/>
<polygon fill="#63b8ff" stroke="#63b8ff" points="323.61,-410.06 313.61,-413.56 323.61,-417.06 323.61,-410.06"/>
</a>
</g>
</g>
<!-- Node23 -->
<g id="Node000023" class="node">
<title>Node23</title>
<g id="a_Node000023"><a xlink:href="wait__until_8hpp.html" target="_top" xlink:title=" ">
<polygon fill="white" stroke="#666666" points="227.88,-230 124.88,-230 124.88,-199.5 227.88,-199.5 227.88,-230"/>
<text text-anchor="start" x="132.88" y="-216.5" font-family="Helvetica,sans-Serif" font-size="10.00">include/yaclib/async</text>
<text text-anchor="middle" x="176.38" y="-205.25" font-family="Helvetica,sans-Serif" font-size="10.00">/wait_until.hpp</text>
</a>
</g>
</g>
<!-- Node5&#45;&gt;Node23 -->
<g id="edge61_Node000005_Node000023" class="edge">
<title>Node5&#45;&gt;Node23</title>
<g id="a_edge61_Node000005_Node000023"><a xlink:title=" ">
<path fill="none" stroke="#63b8ff" d="M222.93,-392.31C212.39,-384.46 201.96,-374.59 195.38,-363 170.8,-319.75 172.48,-258.02 174.8,-230.26"/>
<polygon fill="#63b8ff" stroke="#63b8ff" points="220.67,-395 230.88,-397.81 224.65,-389.25 220.67,-395"/>
</a>
</g>
</g>
<!-- Node39 -->
<g id="Node000039" class="node">
<title>Node39</title>
<g id="a_Node000039"><a xlink:href="wait__impl_8cpp.html" target="_top" xlink:title=" ">
<polygon fill="white" stroke="#666666" points="324.5,-357.38 204.25,-357.38 204.25,-338.12 324.5,-338.12 324.5,-357.38"/>
<text text-anchor="middle" x="264.38" y="-343.88" font-family="Helvetica,sans-Serif" font-size="10.00">src/async/wait_impl.cpp</text>
</a>
</g>
</g>
<!-- Node5&#45;&gt;Node39 -->
<g id="edge62_Node000005_Node000039" class="edge">
<title>Node5&#45;&gt;Node39</title>
<g id="a_edge62_Node000005_Node000039"><a xlink:title=" ">
<path fill="none" stroke="#63b8ff" d="M261.38,-387.34C262.2,-376.76 263.1,-365.25 263.69,-357.57"/>
<polygon fill="#63b8ff" stroke="#63b8ff" points="257.91,-386.86 260.63,-397.1 264.89,-387.41 257.91,-386.86"/>
</a>
</g>
</g>
<!-- Node7 -->
<g id="Node000007" class="node">
<title>Node7</title>
<g id="a_Node000007"><a xlink:href="async_2future_8hpp.html" target="_top" xlink:title=" ">
<polygon fill="white" stroke="#666666" points="1202.88,-296.5 1099.88,-296.5 1099.88,-266 1202.88,-266 1202.88,-296.5"/>
<text text-anchor="start" x="1107.88" y="-283" font-family="Helvetica,sans-Serif" font-size="10.00">include/yaclib/async</text>
<text text-anchor="middle" x="1151.38" y="-271.75" font-family="Helvetica,sans-Serif" font-size="10.00">/future.hpp</text>
</a>
</g>
</g>
<!-- Node6&#45;&gt;Node7 -->
<g id="edge6_Node000006_Node000007" class="edge">
<title>Node6&#45;&gt;Node7</title>
<g id="a_edge6_Node000006_Node000007"><a xlink:title=" ">
<path fill="none" stroke="#63b8ff" d="M1144.74,-320.81C1144.44,-312.64 1144.73,-303.91 1145.62,-296.83"/>
<polygon fill="#63b8ff" stroke="#63b8ff" points="1141.24,-320.9 1145.5,-330.6 1148.22,-320.37 1141.24,-320.9"/>
</a>
</g>
</g>
<!-- Node35 -->
<g id="Node000035" class="node">
<title>Node35</title>
<g id="a_Node000035"><a xlink:href="async_2shared__future_8hpp.html" target="_top" xlink:title=" ">
<polygon fill="white" stroke="#666666" points="2122.88,-296.5 2019.88,-296.5 2019.88,-266 2122.88,-266 2122.88,-296.5"/>
<text text-anchor="start" x="2027.88" y="-283" font-family="Helvetica,sans-Serif" font-size="10.00">include/yaclib/async</text>
<text text-anchor="middle" x="2071.38" y="-271.75" font-family="Helvetica,sans-Serif" font-size="10.00">/shared_future.hpp</text>
</a>
</g>
</g>
<!-- Node6&#45;&gt;Node35 -->
<g id="edge52_Node000006_Node000035" class="edge">
<title>Node6&#45;&gt;Node35</title>
<g id="a_edge52_Node000006_Node000035"><a xlink:title=" ">
<path fill="none" stroke="#63b8ff" d="M1214.52,-342.32C1386.61,-330.26 1861.53,-296.96 2019.51,-285.89"/>
<polygon fill="#63b8ff" stroke="#63b8ff" points="1214.38,-338.82 1204.65,-343.01 1214.87,-345.81 1214.38,-338.82"/>
</a>
</g>
</g>
<!-- Node7&#45;&gt;Node3 -->
<g id="edge7_Node000007_Node000003" class="edge">
<title>Node7&#45;&gt;Node3</title>
<g id="a_edge7_Node000007_Node000003"><a xlink:title=" ">
<path fill="none" stroke="#63b8ff" d="M1087.95,-278.84C893.02,-274.25 304.51,-258.36 115.38,-230 112.8,-229.61 110.16,-229.16 107.51,-228.65"/>
<polygon fill="#63b8ff" stroke="#63b8ff" points="1087.8,-282.34 1097.88,-279.07 1087.96,-275.34 1087.8,-282.34"/>
</a>
</g>
</g>
<!-- Node7&#45;&gt;Node6 -->
<g id="edge29_Node000007_Node000006" class="edge">
<title>Node7&#45;&gt;Node6</title>
<g id="a_edge29_Node000007_Node000006"><a xlink:title=" ">
<path fill="none" stroke="#63b8ff" d="M1158.01,-308.13C1158.31,-316.29 1158.02,-325.02 1157.14,-332.11"/>
<polygon fill="#63b8ff" stroke="#63b8ff" points="1161.51,-308.04 1157.25,-298.34 1154.53,-308.58 1161.51,-308.04"/>
</a>
</g>
</g>
<!-- Node8 -->
<g id="Node000008" class="node">
<title>Node8</title>
<g id="a_Node000008"><a xlink:href="connect_8hpp.html" target="_top" xlink:title=" ">
<polygon fill="white" stroke="#666666" points="2042.88,-230 1939.88,-230 1939.88,-199.5 2042.88,-199.5 2042.88,-230"/>
<text text-anchor="start" x="1947.88" y="-216.5" font-family="Helvetica,sans-Serif" font-size="10.00">include/yaclib/async</text>
<text text-anchor="middle" x="1991.38" y="-205.25" font-family="Helvetica,sans-Serif" font-size="10.00">/connect.hpp</text>
</a>
</g>
</g>
<!-- Node7&#45;&gt;Node8 -->
<g id="edge8_Node000007_Node000008" class="edge">
<title>Node7&#45;&gt;Node8</title>
<g id="a_edge8_Node000007_Node000008"><a xlink:title=" ">
<path fill="none" stroke="#63b8ff" d="M1214.43,-279.79C1347.59,-278.02 1666.99,-269.62 1931.38,-230 1934.02,-229.6 1936.72,-229.15 1939.45,-228.65"/>
<polygon fill="#63b8ff" stroke="#63b8ff" points="1214.73,-276.28 1204.78,-279.91 1214.82,-283.28 1214.73,-276.28"/>
</a>
</g>
</g>
<!-- Node10 -->
<g id="Node000010" class="node">
<title>Node10</title>
<g id="a_Node000010"><a xlink:href="split_8hpp.html" target="_top" xlink:title=" ">
<polygon fill="white" stroke="#666666" points="2103.88,-163.5 2000.88,-163.5 2000.88,-133 2103.88,-133 2103.88,-163.5"/>
<text text-anchor="start" x="2008.88" y="-150" font-family="Helvetica,sans-Serif" font-size="10.00">include/yaclib/async</text>
<text text-anchor="middle" x="2052.38" y="-138.75" font-family="Helvetica,sans-Serif" font-size="10.00">/split.hpp</text>
</a>
</g>
</g>
<!-- Node7&#45;&gt;Node10 -->
<g id="edge28_Node000007_Node000010" class="edge">
<title>Node7&#45;&gt;Node10</title>
<g id="a_edge28_Node000007_Node000010"><a xlink:title=" ">
<path fill="none" stroke="#63b8ff" d="M1214.41,-277.2C1361.81,-269.77 1720.42,-249.9 1771.38,-230 1791.87,-222 1790.37,-208.66 1810.38,-199.5 1885.34,-165.16 1911.8,-181.03 1992.38,-163.5 1995.1,-162.91 1997.88,-162.29 2000.69,-161.66"/>
<polygon fill="#63b8ff" stroke="#63b8ff" points="1214.65,-273.68 1204.84,-277.68 1215,-280.67 1214.65,-273.68"/>
</a>
</g>
</g>
<!-- Node11 -->
<g id="Node000011" class="node">
<title>Node11</title>
<g id="a_Node000011"><a xlink:href="contract_8hpp.html" target="_top" xlink:title=" ">
<polygon fill="white" stroke="#666666" points="1761.88,-230 1658.88,-230 1658.88,-199.5 1761.88,-199.5 1761.88,-230"/>
<text text-anchor="start" x="1666.88" y="-216.5" font-family="Helvetica,sans-Serif" font-size="10.00">include/yaclib/async</text>
<text text-anchor="middle" x="1710.38" y="-205.25" font-family="Helvetica,sans-Serif" font-size="10.00">/contract.hpp</text>
</a>
</g>
</g>
<!-- Node7&#45;&gt;Node11 -->
<g id="edge11_Node000007_Node000011" class="edge">
<title>Node7&#45;&gt;Node11</title>
<g id="a_edge11_Node000007_Node000011"><a xlink:title=" ">
<path fill="none" stroke="#63b8ff" d="M1214.37,-276.08C1308.39,-269.35 1490.82,-254.33 1644.38,-230 1649.01,-229.27 1653.8,-228.41 1658.6,-227.5"/>
<polygon fill="#63b8ff" stroke="#63b8ff" points="1214.31,-272.58 1204.58,-276.77 1214.81,-279.56 1214.31,-272.58"/>
</a>
</g>
</g>
<!-- Node12 -->
<g id="Node000012" class="node">
<title>Node12</title>
<g id="a_Node000012"><a xlink:href="simple_8cpp.html" target="_top" xlink:title=" ">
<polygon fill="white" stroke="#666666" points="1765.38,-163.5 1665.38,-163.5 1665.38,-133 1765.38,-133 1765.38,-163.5"/>
<text text-anchor="start" x="1673.38" y="-150" font-family="Helvetica,sans-Serif" font-size="10.00">test/example/async</text>
<text text-anchor="middle" x="1715.38" y="-138.75" font-family="Helvetica,sans-Serif" font-size="10.00">/simple.cpp</text>
</a>
</g>
</g>
<!-- Node7&#45;&gt;Node12 -->
<g id="edge51_Node000007_Node000012" class="edge">
<title>Node7&#45;&gt;Node12</title>
<g id="a_edge51_Node000007_Node000012"><a xlink:title=" ">
<path fill="none" stroke="#63b8ff" d="M1214.77,-277.61C1323.59,-272.38 1541.01,-258.62 1611.38,-230 1631.76,-221.71 1633,-213.01 1650.38,-199.5 1665.8,-187.5 1683.33,-173.96 1696.3,-163.95"/>
<polygon fill="#63b8ff" stroke="#63b8ff" points="1214.65,-274.11 1204.83,-278.08 1214.98,-281.11 1214.65,-274.11"/>
</a>
</g>
</g>
<!-- Node13 -->
<g id="Node000013" class="node">
<title>Node13</title>
<g id="a_Node000013"><a xlink:href="when__impl_8hpp.html" target="_top" xlink:title=" ">
<polygon fill="white" stroke="#666666" points="1434.25,-230 1324.5,-230 1324.5,-199.5 1434.25,-199.5 1434.25,-230"/>
<text text-anchor="start" x="1332.5" y="-216.5" font-family="Helvetica,sans-Serif" font-size="10.00">include/yaclib/async</text>
<text text-anchor="middle" x="1379.38" y="-205.25" font-family="Helvetica,sans-Serif" font-size="10.00">/detail/when_impl.hpp</text>
</a>
</g>
</g>
<!-- Node7&#45;&gt;Node13 -->
<g id="edge14_Node000007_Node000013" class="edge">
<title>Node7&#45;&gt;Node13</title>
<g id="a_edge14_Node000007_Node000013"><a xlink:title=" ">
<path fill="none" stroke="#63b8ff" d="M1213.88,-262.57C1249.54,-252.48 1293.71,-239.98 1327.45,-230.44"/>
<polygon fill="#63b8ff" stroke="#63b8ff" points="1213.24,-259.11 1204.57,-265.2 1215.14,-265.85 1213.24,-259.11"/>
</a>
</g>
</g>
<!-- Node15 -->
<g id="Node000015" class="node">
<title>Node15</title>
<g id="a_Node000015"><a xlink:href="when__all_8hpp.html" target="_top" xlink:title=" ">
<polygon fill="white" stroke="#666666" points="1291.88,-97 1188.88,-97 1188.88,-66.5 1291.88,-66.5 1291.88,-97"/>
<text text-anchor="start" x="1196.88" y="-83.5" font-family="Helvetica,sans-Serif" font-size="10.00">include/yaclib/async</text>
<text text-anchor="middle" x="1240.38" y="-72.25" font-family="Helvetica,sans-Serif" font-size="10.00">/when_all.hpp</text>
</a>
</g>
</g>
<!-- Node7&#45;&gt;Node15 -->
<g id="edge32_Node000007_Node000015" class="edge">
<title>Node7&#45;&gt;Node15</title>
<g id="a_edge32_Node000007_Node000015"><a xlink:title=" ">
<path fill="none" stroke="#63b8ff" d="M1156.26,-254.47C1159.67,-238.4 1164.79,-217.44 1171.38,-199.5 1182.74,-168.53 1187.38,-161.28 1204.38,-133 1211.89,-120.49 1221.58,-107.09 1229.02,-97.28"/>
<polygon fill="#63b8ff" stroke="#63b8ff" points="1152.85,-253.69 1154.29,-264.19 1159.71,-255.08 1152.85,-253.69"/>
</a>
</g>
</g>
<!-- Node18 -->
<g id="Node000018" class="node">
<title>Node18</title>
<g id="a_Node000018"><a xlink:href="when__any_8hpp.html" target="_top" xlink:title=" ">
<polygon fill="white" stroke="#666666" points="1544.88,-97 1441.88,-97 1441.88,-66.5 1544.88,-66.5 1544.88,-97"/>
<text text-anchor="start" x="1449.88" y="-83.5" font-family="Helvetica,sans-Serif" font-size="10.00">include/yaclib/async</text>
<text text-anchor="middle" x="1493.38" y="-72.25" font-family="Helvetica,sans-Serif" font-size="10.00">/when_any.hpp</text>
</a>
</g>
</g>
<!-- Node7&#45;&gt;Node18 -->
<g id="edge33_Node000007_Node000018" class="edge">
<title>Node7&#45;&gt;Node18</title>
<g id="a_edge33_Node000007_Node000018"><a xlink:title=" ">
<path fill="none" stroke="#63b8ff" d="M1214.56,-277.02C1275.14,-272.18 1368.23,-260.1 1443.38,-230 1446.45,-228.77 1540.82,-166.42 1542.38,-163.5 1548.75,-151.54 1547.48,-145.56 1542.38,-133 1536.59,-118.78 1524.63,-106.38 1513.97,-97.46"/>
<polygon fill="#63b8ff" stroke="#63b8ff" points="1214.48,-273.52 1204.77,-277.76 1215,-280.5 1214.48,-273.52"/>
</a>
</g>
</g>
<!-- Node20 -->
<g id="Node000020" class="node">
<title>Node20</title>
<g id="a_Node000020"><a xlink:href="async_2make_8hpp.html" target="_top" xlink:title=" ">
<polygon fill="white" stroke="#666666" points="348.88,-230 245.88,-230 245.88,-199.5 348.88,-199.5 348.88,-230"/>
<text text-anchor="start" x="253.88" y="-216.5" font-family="Helvetica,sans-Serif" font-size="10.00">include/yaclib/async</text>
<text text-anchor="middle" x="297.38" y="-205.25" font-family="Helvetica,sans-Serif" font-size="10.00">/make.hpp</text>
</a>
</g>
</g>
<!-- Node7&#45;&gt;Node20 -->
<g id="edge23_Node000007_Node000020" class="edge">
<title>Node7&#45;&gt;Node20</title>
<g id="a_edge23_Node000007_Node000020"><a xlink:title=" ">
<path fill="none" stroke="#63b8ff" d="M1088.24,-279.41C954.13,-276.93 631.2,-267.24 363.38,-230 358.73,-229.35 353.93,-228.56 349.13,-227.69"/>
<polygon fill="#63b8ff" stroke="#63b8ff" points="1087.9,-282.9 1097.96,-279.58 1088.03,-275.9 1087.9,-282.9"/>
</a>
</g>
</g>
<!-- Node21 -->
<g id="Node000021" class="node">
<title>Node21</title>
<g id="a_Node000021"><a xlink:href="run_8hpp.html" target="_top" xlink:title=" ">
<polygon fill="white" stroke="#666666" points="1601.88,-230 1498.88,-230 1498.88,-199.5 1601.88,-199.5 1601.88,-230"/>
<text text-anchor="start" x="1506.88" y="-216.5" font-family="Helvetica,sans-Serif" font-size="10.00">include/yaclib/async</text>
<text text-anchor="middle" x="1550.38" y="-205.25" font-family="Helvetica,sans-Serif" font-size="10.00">/run.hpp</text>
</a>
</g>
</g>
<!-- Node7&#45;&gt;Node21 -->
<g id="edge24_Node000007_Node000021" class="edge">
<title>Node7&#45;&gt;Node21</title>
<g id="a_edge24_Node000007_Node000021"><a xlink:title=" ">
<path fill="none" stroke="#63b8ff" d="M1214.38,-271.94C1281.49,-262.82 1390.73,-247.16 1484.38,-230 1488.99,-229.15 1493.77,-228.23 1498.56,-227.26"/>
<polygon fill="#63b8ff" stroke="#63b8ff" points="1214.11,-268.45 1204.67,-273.26 1215.05,-275.39 1214.11,-268.45"/>
</a>
</g>
</g>
<!-- Node7&#45;&gt;Node22 -->
<g id="edge30_Node000007_Node000022" class="edge">
<title>Node7&#45;&gt;Node22</title>
<g id="a_edge30_Node000007_Node000022"><a xlink:title=" ">
<path fill="none" stroke="#63b8ff" d="M1214.48,-278.24C1331.38,-273.89 1589.32,-261.34 1804.38,-230 1809.01,-229.32 1813.82,-228.51 1818.62,-227.62"/>
<polygon fill="#63b8ff" stroke="#63b8ff" points="1214.66,-274.73 1204.79,-278.6 1214.91,-281.73 1214.66,-274.73"/>
</a>
</g>
</g>
<!-- Node7&#45;&gt;Node23 -->
<g id="edge31_Node000007_Node000023" class="edge">
<title>Node7&#45;&gt;Node23</title>
<g id="a_edge31_Node000007_Node000023"><a xlink:title=" ">
<path fill="none" stroke="#63b8ff" d="M1088.3,-280.64C939.27,-280.73 554.01,-276.07 236.38,-230 233.73,-229.62 231.02,-229.17 228.3,-228.68"/>
<polygon fill="#63b8ff" stroke="#63b8ff" points="1087.95,-284.14 1097.95,-280.63 1087.94,-277.14 1087.95,-284.14"/>
</a>
</g>
</g>
<!-- Node24 -->
<g id="Node000024" class="node">
<title>Node24</title>
<g id="a_Node000024"><a xlink:href="await_8hpp.html" target="_top" xlink:title=" ">
<polygon fill="white" stroke="#666666" points="382.5,-97 286.25,-97 286.25,-66.5 382.5,-66.5 382.5,-97"/>
<text text-anchor="start" x="294.25" y="-83.5" font-family="Helvetica,sans-Serif" font-size="10.00">include/yaclib/coro</text>
<text text-anchor="middle" x="334.38" y="-72.25" font-family="Helvetica,sans-Serif" font-size="10.00">/await.hpp</text>
</a>
</g>
</g>
<!-- Node7&#45;&gt;Node24 -->
<g id="edge34_Node000007_Node000024" class="edge">
<title>Node7&#45;&gt;Node24</title>
<g id="a_edge34_Node000007_Node000024"><a xlink:title=" ">
<path fill="none" stroke="#63b8ff" d="M1088.22,-280.69C930.54,-281.04 523.2,-277.22 397.38,-230 376.44,-222.15 376.09,-211.73 357.38,-199.5 329.73,-181.44 309.14,-191.95 292.38,-163.5 279.06,-140.9 300.67,-113.66 317.51,-97.29"/>
<polygon fill="#63b8ff" stroke="#63b8ff" points="1088.08,-284.19 1098.07,-280.66 1088.06,-277.19 1088.08,-284.19"/>
</a>
</g>
</g>
<!-- Node25 -->
<g id="Node000025" class="node">
<title>Node25</title>
<g id="a_Node000025"><a xlink:href="await__on_8hpp.html" target="_top" xlink:title=" ">
<polygon fill="white" stroke="#666666" points="529.5,-97 433.25,-97 433.25,-66.5 529.5,-66.5 529.5,-97"/>
<text text-anchor="start" x="441.25" y="-83.5" font-family="Helvetica,sans-Serif" font-size="10.00">include/yaclib/coro</text>
<text text-anchor="middle" x="481.38" y="-72.25" font-family="Helvetica,sans-Serif" font-size="10.00">/await_on.hpp</text>
</a>
</g>
</g>
<!-- Node7&#45;&gt;Node25 -->
<g id="edge35_Node000007_Node000025" class="edge">
<title>Node7&#45;&gt;Node25</title>
<g id="a_edge35_Node000007_Node000025"><a xlink:title=" ">
<path fill="none" stroke="#63b8ff" d="M1088.19,-279.44C991.37,-276.98 801.06,-267.32 644.38,-230 564.65,-211.01 518.72,-231.1 472.38,-163.5 458.82,-143.72 467.23,-114.6 474.42,-97.27"/>
<polygon fill="#63b8ff" stroke="#63b8ff" points="1087.93,-282.93 1098.01,-279.67 1088.09,-275.93 1087.93,-282.93"/>
</a>
</g>
</g>
<!-- Node26 -->
<g id="Node000026" class="node">
<title>Node26</title>
<g id="a_Node000026"><a xlink:href="await__awaiter_8hpp.html" target="_top" xlink:title=" ">
<polygon fill="white" stroke="#666666" points="425,-163.5 301.75,-163.5 301.75,-133 425,-133 425,-163.5"/>
<text text-anchor="start" x="309.75" y="-150" font-family="Helvetica,sans-Serif" font-size="10.00">include/yaclib/coro</text>
<text text-anchor="middle" x="363.38" y="-138.75" font-family="Helvetica,sans-Serif" font-size="10.00">/detail/await_awaiter.hpp</text>
</a>
</g>
</g>
<!-- Node7&#45;&gt;Node26 -->
<g id="edge36_Node000007_Node000026" class="edge">
<title>Node7&#45;&gt;Node26</title>
<g id="a_edge36_Node000007_Node000026"><a xlink:title=" ">
<path fill="none" stroke="#63b8ff" d="M1088.1,-278.41C924.67,-273.29 497.15,-257.42 439.38,-230 408.76,-215.47 384.32,-182.75 372.03,-163.72"/>
<polygon fill="#63b8ff" stroke="#63b8ff" points="1087.79,-281.9 1097.89,-278.71 1088.01,-274.91 1087.79,-281.9"/>
</a>
</g>
</g>
<!-- Node27 -->
<g id="Node000027" class="node">
<title>Node27</title>
<g id="a_Node000027"><a xlink:href="await__on__awaiter_8hpp.html" target="_top" xlink:title=" ">
<polygon fill="white" stroke="#666666" points="620.88,-163.5 481.88,-163.5 481.88,-133 620.88,-133 620.88,-163.5"/>
<text text-anchor="start" x="489.88" y="-150" font-family="Helvetica,sans-Serif" font-size="10.00">include/yaclib/coro</text>
<text text-anchor="middle" x="551.38" y="-138.75" font-family="Helvetica,sans-Serif" font-size="10.00">/detail/await_on_awaiter.hpp</text>
</a>
</g>
</g>
<!-- Node7&#45;&gt;Node27 -->
<g id="edge38_Node000007_Node000027" class="edge">
<title>Node7&#45;&gt;Node27</title>
<g id="a_edge38_Node000007_Node000027"><a xlink:title=" ">
<path fill="none" stroke="#63b8ff" d="M1088.27,-278.95C1004.2,-275.83 851.52,-265.31 726.38,-230 670.34,-214.19 609.63,-182.57 576.49,-163.93"/>
<polygon fill="#63b8ff" stroke="#63b8ff" points="1088.04,-282.44 1098.15,-279.29 1088.28,-275.44 1088.04,-282.44"/>
</a>
</g>
</g>
<!-- Node28 -->
<g id="Node000028" class="node">
<title>Node28</title>
<g id="a_Node000028"><a xlink:href="coro_2future_8hpp.html" target="_top" xlink:title=" ">
<polygon fill="white" stroke="#666666" points="735.5,-163.5 639.25,-163.5 639.25,-133 735.5,-133 735.5,-163.5"/>
<text text-anchor="start" x="647.25" y="-150" font-family="Helvetica,sans-Serif" font-size="10.00">include/yaclib/coro</text>
<text text-anchor="middle" x="687.38" y="-138.75" font-family="Helvetica,sans-Serif" font-size="10.00">/future.hpp</text>
</a>
</g>
</g>
<!-- Node7&#45;&gt;Node28 -->
<g id="edge40_Node000007_Node000028" class="edge">
<title>Node7&#45;&gt;Node28</title>
<g id="a_edge40_Node000007_Node000028"><a xlink:title=" ">
<path fill="none" stroke="#63b8ff" d="M1088.2,-276.74C994.81,-270.73 825.05,-256.51 770.38,-230 738.72,-214.65 711.56,-182.55 697.54,-163.78"/>
<polygon fill="#63b8ff" stroke="#63b8ff" points="1087.77,-280.21 1097.97,-277.35 1088.21,-273.23 1087.77,-280.21"/>
</a>
</g>
</g>
<!-- Node29 -->
<g id="Node000029" class="node">
<title>Node29</title>
<g id="a_Node000029"><a xlink:href="lazy_2task_8hpp.html" target="_top" xlink:title=" ">
<polygon fill="white" stroke="#666666" points="873.38,-230 779.38,-230 779.38,-199.5 873.38,-199.5 873.38,-230"/>
<text text-anchor="start" x="787.38" y="-216.5" font-family="Helvetica,sans-Serif" font-size="10.00">include/yaclib/lazy</text>
<text text-anchor="middle" x="826.38" y="-205.25" font-family="Helvetica,sans-Serif" font-size="10.00">/task.hpp</text>
</a>
</g>
</g>
<!-- Node7&#45;&gt;Node29 -->
<g id="edge41_Node000007_Node000029" class="edge">
<title>Node7&#45;&gt;Node29</title>
<g id="a_edge41_Node000007_Node000029"><a xlink:title=" ">
<path fill="none" stroke="#63b8ff" d="M1088.57,-267.79C1025.76,-255.32 930.57,-236.43 873.82,-225.17"/>
<polygon fill="#63b8ff" stroke="#63b8ff" points="1087.54,-271.15 1098.03,-269.66 1088.91,-264.28 1087.54,-271.15"/>
</a>
</g>
</g>
<!-- Node34 -->
<g id="Node000034" class="node">
<title>Node34</title>
<g id="a_Node000034"><a xlink:href="future__impl_8cpp.html" target="_top" xlink:title=" ">
<polygon fill="white" stroke="#666666" points="1306.88,-224.38 1179.88,-224.38 1179.88,-205.12 1306.88,-205.12 1306.88,-224.38"/>
<text text-anchor="middle" x="1243.38" y="-210.88" font-family="Helvetica,sans-Serif" font-size="10.00">src/async/future_impl.cpp</text>
</a>
</g>
</g>
<!-- Node7&#45;&gt;Node34 -->
<g id="edge50_Node000007_Node000034" class="edge">
<title>Node7&#45;&gt;Node34</title>
<g id="a_edge50_Node000007_Node000034"><a xlink:title=" ">
<path fill="none" stroke="#63b8ff" d="M1181.59,-259.07C1198.18,-247.43 1217.9,-233.61 1230.52,-224.76"/>
<polygon fill="#63b8ff" stroke="#63b8ff" points="1179.67,-256.14 1173.49,-264.75 1183.69,-261.87 1179.67,-256.14"/>
</a>
</g>
</g>
<!-- Node9 -->
<g id="Node000009" class="node">
<title>Node9</title>
<g id="a_Node000009"><a xlink:href="share_8hpp.html" target="_top" xlink:title=" ">
<polygon fill="white" stroke="#666666" points="1982.88,-163.5 1879.88,-163.5 1879.88,-133 1982.88,-133 1982.88,-163.5"/>
<text text-anchor="start" x="1887.88" y="-150" font-family="Helvetica,sans-Serif" font-size="10.00">include/yaclib/async</text>
<text text-anchor="middle" x="1931.38" y="-138.75" font-family="Helvetica,sans-Serif" font-size="10.00">/share.hpp</text>
</a>
</g>
</g>
<!-- Node8&#45;&gt;Node9 -->
<g id="edge9_Node000008_Node000009" class="edge">
<title>Node8&#45;&gt;Node9</title>
<g id="a_edge9_Node000008_Node000009"><a xlink:title=" ">
<path fill="none" stroke="#63b8ff" d="M1970.13,-190.91C1961.75,-181.9 1952.37,-171.82 1944.94,-163.83"/>
<polygon fill="#63b8ff" stroke="#63b8ff" points="1967.36,-193.07 1976.73,-198.01 1972.48,-188.3 1967.36,-193.07"/>
</a>
</g>
</g>
<!-- Node8&#45;&gt;Node10 -->
<g id="edge10_Node000008_Node000010" class="edge">
<title>Node8&#45;&gt;Node10</title>
<g id="a_edge10_Node000008_Node000010"><a xlink:title=" ">
<path fill="none" stroke="#63b8ff" d="M2012.98,-190.91C2021.5,-181.9 2031.03,-171.82 2038.59,-163.83"/>
<polygon fill="#63b8ff" stroke="#63b8ff" points="2010.59,-188.34 2006.26,-198.01 2015.67,-193.15 2010.59,-188.34"/>
</a>
</g>
</g>
<!-- Node11&#45;&gt;Node9 -->
<g id="edge12_Node000011_Node000009" class="edge">
<title>Node11&#45;&gt;Node9</title>
<g id="a_edge12_Node000011_Node000009"><a xlink:title=" ">
<path fill="none" stroke="#63b8ff" d="M1771.69,-195.85C1806.17,-185.79 1848.68,-173.39 1881.17,-163.9"/>
<polygon fill="#63b8ff" stroke="#63b8ff" points="1770.87,-192.45 1762.25,-198.61 1772.83,-199.17 1770.87,-192.45"/>
</a>
</g>
</g>
<!-- Node11&#45;&gt;Node12 -->
<g id="edge13_Node000011_Node000012" class="edge">
<title>Node11&#45;&gt;Node12</title>
<g id="a_edge13_Node000011_Node000012"><a xlink:title=" ">
<path fill="none" stroke="#63b8ff" d="M1712.39,-187.81C1713.02,-179.64 1713.7,-170.91 1714.24,-163.83"/>
<polygon fill="#63b8ff" stroke="#63b8ff" points="1708.91,-187.36 1711.63,-197.6 1715.89,-187.91 1708.91,-187.36"/>
</a>
</g>
</g>
<!-- Node14 -->
<g id="Node000014" class="node">
<title>Node14</title>
<g id="a_Node000014"><a xlink:href="when__all__impl_8hpp.html" target="_top" xlink:title=" ">
<polygon fill="white" stroke="#666666" points="1347.75,-163.5 1223,-163.5 1223,-133 1347.75,-133 1347.75,-163.5"/>
<text text-anchor="start" x="1231" y="-150" font-family="Helvetica,sans-Serif" font-size="10.00">include/yaclib/async</text>
<text text-anchor="middle" x="1285.38" y="-138.75" font-family="Helvetica,sans-Serif" font-size="10.00">/detail/when_all_impl.hpp</text>
</a>
</g>
</g>
<!-- Node13&#45;&gt;Node14 -->
<g id="edge15_Node000013_Node000014" class="edge">
<title>Node13&#45;&gt;Node14</title>
<g id="a_edge15_Node000013_Node000014"><a xlink:title=" ">
<path fill="none" stroke="#63b8ff" d="M1348.9,-192.84C1335.09,-183.37 1319.1,-172.39 1306.62,-163.83"/>
<polygon fill="#63b8ff" stroke="#63b8ff" points="1346.57,-195.49 1356.8,-198.26 1350.53,-189.71 1346.57,-195.49"/>
</a>
</g>
</g>
<!-- Node13&#45;&gt;Node15 -->
<g id="edge21_Node000013_Node000015" class="edge">
<title>Node13&#45;&gt;Node15</title>
<g id="a_edge21_Node000013_Node000015"><a xlink:title=" ">
<path fill="none" stroke="#63b8ff" d="M1312.97,-197.51C1269.9,-186.31 1220.65,-171.97 1214.38,-163.5 1199.56,-143.5 1215.64,-114.71 1228.27,-97.46"/>
<polygon fill="#63b8ff" stroke="#63b8ff" points="1312.03,-200.88 1322.58,-199.98 1313.77,-194.11 1312.03,-200.88"/>
</a>
</g>
</g>
<!-- Node17 -->
<g id="Node000017" class="node">
<title>Node17</title>
<g id="a_Node000017"><a xlink:href="when__any__impl_8hpp.html" target="_top" xlink:title=" ">
<polygon fill="white" stroke="#666666" points="1533.38,-163.5 1403.38,-163.5 1403.38,-133 1533.38,-133 1533.38,-163.5"/>
<text text-anchor="start" x="1411.38" y="-150" font-family="Helvetica,sans-Serif" font-size="10.00">include/yaclib/async</text>
<text text-anchor="middle" x="1468.38" y="-138.75" font-family="Helvetica,sans-Serif" font-size="10.00">/detail/when_any_impl.hpp</text>
</a>
</g>
</g>
<!-- Node13&#45;&gt;Node17 -->
<g id="edge18_Node000013_Node000017" class="edge">
<title>Node13&#45;&gt;Node17</title>
<g id="a_edge18_Node000013_Node000017"><a xlink:title=" ">
<path fill="none" stroke="#63b8ff" d="M1408.6,-192.57C1421.59,-183.16 1436.55,-172.31 1448.26,-163.83"/>
<polygon fill="#63b8ff" stroke="#63b8ff" points="1406.84,-189.52 1400.8,-198.23 1410.95,-195.19 1406.84,-189.52"/>
</a>
</g>
</g>
<!-- Node13&#45;&gt;Node18 -->
<g id="edge22_Node000013_Node000018" class="edge">
<title>Node13&#45;&gt;Node18</title>
<g id="a_edge22_Node000013_Node000018"><a xlink:title=" ">
<path fill="none" stroke="#63b8ff" d="M1378.5,-187.69C1379.21,-170.6 1382.69,-148.62 1394.38,-133 1406.62,-116.64 1425.69,-105.21 1443.85,-97.44"/>
<polygon fill="#63b8ff" stroke="#63b8ff" points="1375,-187.56 1378.41,-197.59 1382,-187.62 1375,-187.56"/>
</a>
</g>
</g>
<!-- Node14&#45;&gt;Node15 -->
<g id="edge16_Node000014_Node000015" class="edge">
<title>Node14&#45;&gt;Node15</title>
<g id="a_edge16_Node000014_Node000015"><a xlink:title=" ">
<path fill="none" stroke="#63b8ff" d="M1268.66,-123.29C1262.58,-114.57 1255.89,-104.99 1250.55,-97.33"/>
<polygon fill="#63b8ff" stroke="#63b8ff" points="1265.71,-125.17 1274.3,-131.37 1271.45,-121.17 1265.71,-125.17"/>
</a>
</g>
</g>
<!-- Node16 -->
<g id="Node000016" class="node">
<title>Node16</title>
<g id="a_Node000016"><a xlink:href="when__all_8cpp.html" target="_top" xlink:title=" ">
<polygon fill="white" stroke="#666666" points="1477.38,-30.5 1377.38,-30.5 1377.38,0 1477.38,0 1477.38,-30.5"/>
<text text-anchor="start" x="1385.38" y="-17" font-family="Helvetica,sans-Serif" font-size="10.00">test/example/async</text>
<text text-anchor="middle" x="1427.38" y="-5.75" font-family="Helvetica,sans-Serif" font-size="10.00">/when_all.cpp</text>
</a>
</g>
</g>
<!-- Node15&#45;&gt;Node16 -->
<g id="edge17_Node000015_Node000016" class="edge">
<title>Node15&#45;&gt;Node16</title>
<g id="a_edge17_Node000015_Node000016"><a xlink:title=" ">
<path fill="none" stroke="#63b8ff" d="M1293.54,-62.41C1322.45,-52.44 1357.71,-40.28 1384.79,-30.94"/>
<polygon fill="#63b8ff" stroke="#63b8ff" points="1292.55,-59.05 1284.24,-65.62 1294.83,-65.67 1292.55,-59.05"/>
</a>
</g>
</g>
<!-- Node17&#45;&gt;Node18 -->
<g id="edge19_Node000017_Node000018" class="edge">
<title>Node17&#45;&gt;Node18</title>
<g id="a_edge19_Node000017_Node000018"><a xlink:title=" ">
<path fill="none" stroke="#63b8ff" d="M1478.1,-122.16C1481.36,-113.75 1484.88,-104.66 1487.72,-97.33"/>
<polygon fill="#63b8ff" stroke="#63b8ff" points="1474.95,-120.61 1474.59,-131.2 1481.47,-123.14 1474.95,-120.61"/>
</a>
</g>
</g>
<!-- Node19 -->
<g id="Node000019" class="node">
<title>Node19</title>
<g id="a_Node000019"><a xlink:href="when__any_8cpp.html" target="_top" xlink:title=" ">
<polygon fill="white" stroke="#666666" points="1627.38,-30.5 1527.38,-30.5 1527.38,0 1627.38,0 1627.38,-30.5"/>
<text text-anchor="start" x="1535.38" y="-17" font-family="Helvetica,sans-Serif" font-size="10.00">test/example/async</text>
<text text-anchor="middle" x="1577.38" y="-5.75" font-family="Helvetica,sans-Serif" font-size="10.00">/when_any.cpp</text>
</a>
</g>
</g>
<!-- Node18&#45;&gt;Node19 -->
<g id="edge20_Node000018_Node000019" class="edge">
<title>Node18&#45;&gt;Node19</title>
<g id="a_edge20_Node000018_Node000019"><a xlink:title=" ">
<path fill="none" stroke="#63b8ff" d="M1521.32,-59.29C1533.49,-49.94 1547.45,-39.23 1558.39,-30.83"/>
<polygon fill="#63b8ff" stroke="#63b8ff" points="1519.44,-56.33 1513.64,-65.19 1523.7,-61.88 1519.44,-56.33"/>
</a>
</g>
</g>
<!-- Node21&#45;&gt;Node12 -->
<g id="edge25_Node000021_Node000012" class="edge">
<title>Node21&#45;&gt;Node12</title>
<g id="a_edge25_Node000021_Node000012"><a xlink:title=" ">
<path fill="none" stroke="#63b8ff" d="M1598.3,-195.01C1623.61,-185.12 1654.22,-173.15 1677.8,-163.94"/>
<polygon fill="#63b8ff" stroke="#63b8ff" points="1597.27,-191.66 1589.23,-198.56 1599.81,-198.18 1597.27,-191.66"/>
</a>
</g>
</g>
<!-- Node21&#45;&gt;Node16 -->
<g id="edge26_Node000021_Node000016" class="edge">
<title>Node21&#45;&gt;Node16</title>
<g id="a_edge26_Node000021_Node000016"><a xlink:title=" ">
<path fill="none" stroke="#63b8ff" d="M1565.47,-189.08C1569.51,-181.2 1573.32,-172.24 1575.38,-163.5 1585.47,-120.56 1584.44,-98.78 1554.38,-66.5 1534.33,-44.99 1503.91,-32.52 1477.87,-25.39"/>
<polygon fill="#63b8ff" stroke="#63b8ff" points="1562.46,-187.28 1560.69,-197.73 1568.59,-190.66 1562.46,-187.28"/>
</a>
</g>
</g>
<!-- Node21&#45;&gt;Node19 -->
<g id="edge27_Node000021_Node000019" class="edge">
<title>Node21&#45;&gt;Node19</title>
<g id="a_edge27_Node000021_Node000019"><a xlink:title=" ">
<path fill="none" stroke="#63b8ff" d="M1587.98,-192.55C1598.11,-184.82 1607.8,-175.08 1613.38,-163.5 1632.08,-124.66 1626.56,-107.55 1613.38,-66.5 1609.04,-53.01 1599.61,-40.07 1591.48,-30.7"/>
<polygon fill="#63b8ff" stroke="#63b8ff" points="1586.08,-189.61 1579.9,-198.21 1590.1,-195.34 1586.08,-189.61"/>
</a>
</g>
</g>
<!-- Node26&#45;&gt;Node24 -->
<g id="edge37_Node000026_Node000024" class="edge">
<title>Node26&#45;&gt;Node24</title>
<g id="a_edge37_Node000026_Node000024"><a xlink:title=" ">
<path fill="none" stroke="#63b8ff" d="M352.09,-122.16C348.31,-113.75 344.23,-104.66 340.93,-97.33"/>
<polygon fill="#63b8ff" stroke="#63b8ff" points="348.88,-123.55 356.17,-131.23 355.27,-120.68 348.88,-123.55"/>
</a>
</g>
</g>
<!-- Node27&#45;&gt;Node25 -->
<g id="edge39_Node000027_Node000025" class="edge">
<title>Node27&#45;&gt;Node25</title>
<g id="a_edge39_Node000027_Node000025"><a xlink:title=" ">
<path fill="none" stroke="#63b8ff" d="M527.19,-124.96C517.26,-115.82 506.05,-105.48 497.2,-97.33"/>
<polygon fill="#63b8ff" stroke="#63b8ff" points="524.65,-127.39 534.38,-131.59 529.4,-122.24 524.65,-127.39"/>
</a>
</g>
</g>
<!-- Node29&#45;&gt;Node26 -->
<g id="edge42_Node000029_Node000026" class="edge">
<title>Node29&#45;&gt;Node26</title>
<g id="a_edge42_Node000029_Node000026"><a xlink:title=" ">
<path fill="none" stroke="#63b8ff" d="M767.65,-205.57C679.81,-193.33 514.96,-170.37 425.3,-157.88"/>
<polygon fill="#63b8ff" stroke="#63b8ff" points="767.12,-209.03 777.5,-206.94 768.08,-202.1 767.12,-209.03"/>
</a>
</g>
</g>
<!-- Node29&#45;&gt;Node27 -->
<g id="edge43_Node000029_Node000027" class="edge">
<title>Node29&#45;&gt;Node27</title>
<g id="a_edge43_Node000029_Node000027"><a xlink:title=" ">
<path fill="none" stroke="#63b8ff" d="M768.02,-200.06C722.88,-189.47 660.48,-174.84 614.24,-164"/>
<polygon fill="#63b8ff" stroke="#63b8ff" points="767.09,-203.44 777.63,-202.32 768.69,-196.63 767.09,-203.44"/>
</a>
</g>
</g>
<!-- Node29&#45;&gt;Node28 -->
<g id="edge44_Node000029_Node000028" class="edge">
<title>Node29&#45;&gt;Node28</title>
<g id="a_edge44_Node000029_Node000028"><a xlink:title=" ">
<path fill="none" stroke="#63b8ff" d="M784.53,-194.33C763.41,-184.53 738.23,-172.85 718.79,-163.83"/>
<polygon fill="#63b8ff" stroke="#63b8ff" points="782.92,-197.44 793.46,-198.48 785.86,-191.09 782.92,-197.44"/>
</a>
</g>
</g>
<!-- Node30 -->
<g id="Node000030" class="node">
<title>Node30</title>
<g id="a_Node000030"><a xlink:href="coro_2task_8hpp.html" target="_top" xlink:title=" ">
<polygon fill="white" stroke="#666666" points="1017.5,-163.5 921.25,-163.5 921.25,-133 1017.5,-133 1017.5,-163.5"/>
<text text-anchor="start" x="929.25" y="-150" font-family="Helvetica,sans-Serif" font-size="10.00">include/yaclib/coro</text>
<text text-anchor="middle" x="969.38" y="-138.75" font-family="Helvetica,sans-Serif" font-size="10.00">/task.hpp</text>
</a>
</g>
</g>
<!-- Node29&#45;&gt;Node30 -->
<g id="edge45_Node000029_Node000030" class="edge">
<title>Node29&#45;&gt;Node30</title>
<g id="a_edge45_Node000029_Node000030"><a xlink:title=" ">
<path fill="none" stroke="#63b8ff" d="M869.13,-194.47C890.91,-184.64 916.97,-172.89 937.05,-163.83"/>
<polygon fill="#63b8ff" stroke="#63b8ff" points="867.88,-191.19 860.2,-198.49 870.76,-197.57 867.88,-191.19"/>
</a>
</g>
</g>
<!-- Node31 -->
<g id="Node000031" class="node">
<title>Node31</title>
<g id="a_Node000031"><a xlink:href="lazy_2make_8hpp.html" target="_top" xlink:title=" ">
<polygon fill="white" stroke="#666666" points="969.38,-97 875.38,-97 875.38,-66.5 969.38,-66.5 969.38,-97"/>
<text text-anchor="start" x="883.38" y="-83.5" font-family="Helvetica,sans-Serif" font-size="10.00">include/yaclib/lazy</text>
<text text-anchor="middle" x="922.38" y="-72.25" font-family="Helvetica,sans-Serif" font-size="10.00">/make.hpp</text>
</a>
</g>
</g>
<!-- Node29&#45;&gt;Node31 -->
<g id="edge46_Node000029_Node000031" class="edge">
<title>Node29&#45;&gt;Node31</title>
<g id="a_edge46_Node000029_Node000031"><a xlink:title=" ">
<path fill="none" stroke="#63b8ff" d="M800.72,-191.53C784.62,-174.85 769.19,-151.74 782.38,-133 803.18,-103.43 843.1,-91.17 875,-86.14"/>
<polygon fill="#63b8ff" stroke="#63b8ff" points="797.86,-193.64 807.47,-198.11 802.75,-188.62 797.86,-193.64"/>
</a>
</g>
</g>
<!-- Node32 -->
<g id="Node000032" class="node">
<title>Node32</title>
<g id="a_Node000032"><a xlink:href="schedule_8hpp.html" target="_top" xlink:title=" ">
<polygon fill="white" stroke="#666666" points="1129.38,-163.5 1035.38,-163.5 1035.38,-133 1129.38,-133 1129.38,-163.5"/>
<text text-anchor="start" x="1043.38" y="-150" font-family="Helvetica,sans-Serif" font-size="10.00">include/yaclib/lazy</text>
<text text-anchor="middle" x="1082.38" y="-138.75" font-family="Helvetica,sans-Serif" font-size="10.00">/schedule.hpp</text>
</a>
</g>
</g>
<!-- Node29&#45;&gt;Node32 -->
<g id="edge47_Node000029_Node000032" class="edge">
<title>Node29&#45;&gt;Node32</title>
<g id="a_edge47_Node000029_Node000032"><a xlink:title=" ">
<path fill="none" stroke="#63b8ff" d="M884.78,-199.12C924.67,-189.12 978.73,-175.55 1026.38,-163.5 1029.2,-162.79 1032.1,-162.05 1035.02,-161.31"/>
<polygon fill="#63b8ff" stroke="#63b8ff" points="883.98,-195.72 875.13,-201.54 885.68,-202.51 883.98,-195.72"/>
</a>
</g>
</g>
<!-- Node33 -->
<g id="Node000033" class="node">
<title>Node33</title>
<g id="a_Node000033"><a xlink:href="task__impl_8cpp.html" target="_top" xlink:title=" ">
<polygon fill="white" stroke="#666666" points="903.38,-157.88 791.38,-157.88 791.38,-138.62 903.38,-138.62 903.38,-157.88"/>
<text text-anchor="middle" x="847.38" y="-144.38" font-family="Helvetica,sans-Serif" font-size="10.00">src/lazy/task_impl.cpp</text>
</a>
</g>
</g>
<!-- Node29&#45;&gt;Node33 -->
<g id="edge49_Node000029_Node000033" class="edge">
<title>Node29&#45;&gt;Node33</title>
<g id="a_edge49_Node000029_Node000033"><a xlink:title=" ">
<path fill="none" stroke="#63b8ff" d="M834.7,-188.18C838.17,-177.51 841.98,-165.83 844.5,-158.07"/>
<polygon fill="#63b8ff" stroke="#63b8ff" points="831.38,-187.08 831.61,-197.67 838.03,-189.25 831.38,-187.08"/>
</a>
</g>
</g>
<!-- Node32&#45;&gt;Node31 -->
<g id="edge48_Node000032_Node000031" class="edge">
<title>Node32&#45;&gt;Node31</title>
<g id="a_edge48_Node000032_Node000031"><a xlink:title=" ">
<path fill="none" stroke="#63b8ff" d="M1035.57,-128.38C1011.09,-118.51 981.57,-106.61 958.81,-97.44"/>
<polygon fill="#63b8ff" stroke="#63b8ff" points="1034.08,-131.56 1044.66,-132.05 1036.7,-125.06 1034.08,-131.56"/>
</a>
</g>
</g>
<!-- Node35&#45;&gt;Node8 -->
<g id="edge53_Node000035_Node000008" class="edge">
<title>Node35&#45;&gt;Node8</title>
<g id="a_edge53_Node000035_Node000008"><a xlink:title=" ">
<path fill="none" stroke="#63b8ff" d="M2044.42,-258.52C2032.91,-249.23 2019.77,-238.65 2009.46,-230.33"/>
<polygon fill="#63b8ff" stroke="#63b8ff" points="2042.06,-261.11 2052.04,-264.66 2046.46,-255.66 2042.06,-261.11"/>
</a>
</g>
</g>
<!-- Node35&#45;&gt;Node9 -->
<g id="edge55_Node000035_Node000009" class="edge">
<title>Node35&#45;&gt;Node9</title>
<g id="a_edge55_Node000035_Node000009"><a xlink:title=" ">
<path fill="none" stroke="#63b8ff" d="M2071.2,-254.35C2069.77,-237.02 2065.27,-214.68 2052.38,-199.5 2042.25,-187.58 2008.1,-173.97 1978.64,-163.92"/>
<polygon fill="#63b8ff" stroke="#63b8ff" points="2067.69,-254.34 2071.68,-264.15 2074.68,-253.99 2067.69,-254.34"/>
</a>
</g>
</g>
<!-- Node35&#45;&gt;Node21 -->
<g id="edge54_Node000035_Node000021" class="edge">
<title>Node35&#45;&gt;Node21</title>
<g id="a_edge54_Node000035_Node000021"><a xlink:title=" ">
<path fill="none" stroke="#63b8ff" d="M2008.05,-273.15C1925.62,-263.79 1777.11,-246.59 1650.38,-230 1634.73,-227.95 1617.72,-225.58 1602.25,-223.37"/>
<polygon fill="#63b8ff" stroke="#63b8ff" points="2007.64,-276.62 2017.97,-274.27 2008.43,-269.67 2007.64,-276.62"/>
</a>
</g>
</g>
<!-- Node36 -->
<g id="Node000036" class="node">
<title>Node36</title>
<g id="a_Node000036"><a xlink:href="shared__contract_8hpp.html" target="_top" xlink:title=" ">
<polygon fill="white" stroke="#666666" points="2458.75,-230 2352,-230 2352,-199.5 2458.75,-199.5 2458.75,-230"/>
<text text-anchor="start" x="2360" y="-216.5" font-family="Helvetica,sans-Serif" font-size="10.00">include/yaclib/async</text>
<text text-anchor="middle" x="2405.38" y="-205.25" font-family="Helvetica,sans-Serif" font-size="10.00">/shared_contract.hpp</text>
</a>
</g>
</g>
<!-- Node35&#45;&gt;Node36 -->
<g id="edge56_Node000035_Node000036" class="edge">
<title>Node35&#45;&gt;Node36</title>
<g id="a_edge56_Node000035_Node000036"><a xlink:title=" ">
<path fill="none" stroke="#63b8ff" d="M2134.51,-269.26C2189.52,-259.52 2271.38,-244.61 2342.38,-230 2345.45,-229.37 2348.61,-228.7 2351.79,-228.02"/>
<polygon fill="#63b8ff" stroke="#63b8ff" points="2133.92,-265.81 2124.68,-271 2135.14,-272.71 2133.92,-265.81"/>
</a>
</g>
</g>
<!-- Node37 -->
<g id="Node000037" class="node">
<title>Node37</title>
<g id="a_Node000037"><a xlink:href="coro_2shared__future_8hpp.html" target="_top" xlink:title=" ">
<polygon fill="white" stroke="#666666" points="2195.5,-230 2099.25,-230 2099.25,-199.5 2195.5,-199.5 2195.5,-230"/>
<text text-anchor="start" x="2107.25" y="-216.5" font-family="Helvetica,sans-Serif" font-size="10.00">include/yaclib/coro</text>
<text text-anchor="middle" x="2147.38" y="-205.25" font-family="Helvetica,sans-Serif" font-size="10.00">/shared_future.hpp</text>
</a>
</g>
</g>
<!-- Node35&#45;&gt;Node37 -->
<g id="edge58_Node000035_Node000037" class="edge">
<title>Node35&#45;&gt;Node37</title>
<g id="a_edge58_Node000035_Node000037"><a xlink:title=" ">
<path fill="none" stroke="#63b8ff" d="M2097.31,-258.24C2108.17,-249.03 2120.49,-238.56 2130.2,-230.33"/>
<polygon fill="#63b8ff" stroke="#63b8ff" points="2095.13,-255.5 2089.77,-264.63 2099.66,-260.83 2095.13,-255.5"/>
</a>
</g>
</g>
<!-- Node38 -->
<g id="Node000038" class="node">
<title>Node38</title>
<g id="a_Node000038"><a xlink:href="shared__future__impl_8cpp.html" target="_top" xlink:title=" ">
<polygon fill="white" stroke="#666666" points="2333.5,-230 2213.25,-230 2213.25,-199.5 2333.5,-199.5 2333.5,-230"/>
<text text-anchor="start" x="2221.25" y="-216.5" font-family="Helvetica,sans-Serif" font-size="10.00">src/async/shared_future</text>
<text text-anchor="middle" x="2273.38" y="-205.25" font-family="Helvetica,sans-Serif" font-size="10.00">_impl.cpp</text>
</a>
</g>
</g>
<!-- Node35&#45;&gt;Node38 -->
<g id="edge59_Node000035_Node000038" class="edge">
<title>Node35&#45;&gt;Node38</title>
<g id="a_edge59_Node000035_Node000038"><a xlink:title=" ">
<path fill="none" stroke="#63b8ff" d="M2128.24,-262.09C2159.61,-252.08 2198.05,-239.8 2227.48,-230.4"/>
<polygon fill="#63b8ff" stroke="#63b8ff" points="2127.37,-258.7 2118.91,-265.07 2129.5,-265.37 2127.37,-258.7"/>
</a>
</g>
</g>
<!-- Node36&#45;&gt;Node10 -->
<g id="edge57_Node000036_Node000010" class="edge">
<title>Node36&#45;&gt;Node10</title>
<g id="a_edge57_Node000036_Node000010"><a xlink:title=" ">
<path fill="none" stroke="#63b8ff" d="M2340.67,-199.22C2251.61,-181.64 2159.92,-166.37 2104.12,-157.4"/>
<polygon fill="#63b8ff" stroke="#63b8ff" points="2339.82,-202.62 2350.31,-201.14 2341.19,-195.76 2339.82,-202.62"/>
</a>
</g>
</g>
</g>
</svg>
