<?xml version="1.0" encoding="UTF-8" standalone="no"?>
<!DOCTYPE svg PUBLIC "-//W3C//DTD SVG 1.1//EN"
 "http://www.w3.org/Graphics/SVG/1.1/DTD/svg11.dtd">
<!-- Generated by graphviz version 9.0.0 (20230911.1827)
 -->
<!-- Title: include/yaclib/util/detail/set_deleter.hpp Pages: 1 -->
<svg width="1726pt" height="571pt"
 viewBox="0.00 0.00 1725.50 570.50" xmlns="http://www.w3.org/2000/svg" xmlns:xlink="http://www.w3.org/1999/xlink">
<g id="graph0" class="graph" transform="scale(1 1) rotate(0) translate(4 566.5)">
<title>include/yaclib/util/detail/set_deleter.hpp</title>
<!-- Node1 -->
<g id="Node000001" class="node">
<title>Node1</title>
<g id="a_Node000001"><a xlink:title=" ">
<polygon fill="#999999" stroke="#666666" points="1622.75,-562.5 1511.5,-562.5 1511.5,-532 1622.75,-532 1622.75,-562.5"/>
<text text-anchor="start" x="1519.5" y="-549" font-family="Helvetica,sans-Serif" font-size="10.00">include/yaclib/util</text>
<text text-anchor="middle" x="1567.12" y="-537.75" font-family="Helvetica,sans-Serif" font-size="10.00">/detail/set_deleter.hpp</text>
</a>
</g>
</g>
<!-- Node2 -->
<g id="Node000002" class="node">
<title>Node2</title>
<g id="a_Node000002"><a xlink:href="wait__event_8hpp.html" target="_top" xlink:title=" ">
<polygon fill="white" stroke="#666666" points="1622.38,-496 1511.88,-496 1511.88,-465.5 1622.38,-465.5 1622.38,-496"/>
<text text-anchor="start" x="1519.88" y="-482.5" font-family="Helvetica,sans-Serif" font-size="10.00">include/yaclib/algo</text>
<text text-anchor="middle" x="1567.12" y="-471.25" font-family="Helvetica,sans-Serif" font-size="10.00">/detail/wait_event.hpp</text>
</a>
</g>
</g>
<!-- Node1&#45;&gt;Node2 -->
<g id="edge1_Node000001_Node000002" class="edge">
<title>Node1&#45;&gt;Node2</title>
<g id="a_edge1_Node000001_Node000002"><a xlink:title=" ">
<path fill="none" stroke="#63b8ff" d="M1567.12,-520.31C1567.12,-512.14 1567.12,-503.41 1567.12,-496.33"/>
<polygon fill="#63b8ff" stroke="#63b8ff" points="1563.63,-520.1 1567.13,-530.1 1570.63,-520.1 1563.63,-520.1"/>
</a>
</g>
</g>
<!-- Node3 -->
<g id="Node000003" class="node">
<title>Node3</title>
<g id="a_Node000003"><a xlink:href="wait__group_8hpp.html" target="_top" xlink:title=" ">
<polygon fill="white" stroke="#666666" points="1705.88,-230 1610.38,-230 1610.38,-199.5 1705.88,-199.5 1705.88,-230"/>
<text text-anchor="start" x="1618.38" y="-216.5" font-family="Helvetica,sans-Serif" font-size="10.00">include/yaclib/algo</text>
<text text-anchor="middle" x="1658.12" y="-205.25" font-family="Helvetica,sans-Serif" font-size="10.00">/wait_group.hpp</text>
</a>
</g>
</g>
<!-- Node1&#45;&gt;Node3 -->
<g id="edge50_Node000001_Node000003" class="edge">
<title>Node1&#45;&gt;Node3</title>
<g id="a_edge50_Node000001_Node000003"><a xlink:title=" ">
<path fill="none" stroke="#63b8ff" d="M1601.97,-525.02C1612.62,-517.07 1623.51,-507.2 1631.12,-496 1652.17,-465.04 1655.12,-452.69 1655.12,-415.25 1655.12,-415.25 1655.12,-415.25 1655.12,-346.75 1655.12,-304.44 1656.71,-254.46 1657.57,-230.29"/>
<polygon fill="#63b8ff" stroke="#63b8ff" points="1600.17,-522.01 1594.01,-530.63 1604.2,-527.73 1600.17,-522.01"/>
</a>
</g>
</g>
<!-- Node5 -->
<g id="Node000005" class="node">
<title>Node5</title>
<g id="a_Node000005"><a xlink:href="wait__impl_8hpp.html" target="_top" xlink:title=" ">
<polygon fill="white" stroke="#666666" points="1507.38,-429.5 1402.88,-429.5 1402.88,-399 1507.38,-399 1507.38,-429.5"/>
<text text-anchor="start" x="1410.88" y="-416" font-family="Helvetica,sans-Serif" font-size="10.00">include/yaclib/async</text>
<text text-anchor="middle" x="1455.12" y="-404.75" font-family="Helvetica,sans-Serif" font-size="10.00">/detail/wait_impl.hpp</text>
</a>
</g>
</g>
<!-- Node1&#45;&gt;Node5 -->
<g id="edge51_Node000001_Node000005" class="edge">
<title>Node1&#45;&gt;Node5</title>
<g id="a_edge51_Node000001_Node000005"><a xlink:title=" ">
<path fill="none" stroke="#63b8ff" d="M1535.1,-524.78C1524.2,-516.56 1512.43,-506.59 1503.12,-496 1484.94,-475.29 1469.84,-446.73 1461.69,-429.71"/>
<polygon fill="#63b8ff" stroke="#63b8ff" points="1533.01,-527.58 1543.16,-530.64 1537.13,-521.92 1533.01,-527.58"/>
</a>
</g>
</g>
<!-- Node2&#45;&gt;Node3 -->
<g id="edge2_Node000002_Node000003" class="edge">
<title>Node2&#45;&gt;Node3</title>
<g id="a_edge2_Node000002_Node000003"><a xlink:title=" ">
<path fill="none" stroke="#63b8ff" d="M1575.86,-454.42C1594.62,-399.97 1638.32,-273.22 1653.12,-230.27"/>
<polygon fill="#63b8ff" stroke="#63b8ff" points="1572.59,-453.15 1572.64,-463.75 1579.21,-455.44 1572.59,-453.15"/>
</a>
</g>
</g>
<!-- Node2&#45;&gt;Node5 -->
<g id="edge4_Node000002_Node000005" class="edge">
<title>Node2&#45;&gt;Node5</title>
<g id="a_edge4_Node000002_Node000005"><a xlink:title=" ">
<path fill="none" stroke="#63b8ff" d="M1531.76,-459.39C1515.1,-449.79 1495.6,-438.56 1480.44,-429.83"/>
<polygon fill="#63b8ff" stroke="#63b8ff" points="1529.99,-462.4 1540.4,-464.36 1533.48,-456.34 1529.99,-462.4"/>
</a>
</g>
</g>
<!-- Node4 -->
<g id="Node000004" class="node">
<title>Node4</title>
<g id="a_Node000004"><a xlink:href="wait__group_8cpp.html" target="_top" xlink:title=" ">
<polygon fill="white" stroke="#666666" points="1717.5,-157.88 1598.75,-157.88 1598.75,-138.62 1717.5,-138.62 1717.5,-157.88"/>
<text text-anchor="middle" x="1658.12" y="-144.38" font-family="Helvetica,sans-Serif" font-size="10.00">src/algo/wait_group.cpp</text>
</a>
</g>
</g>
<!-- Node3&#45;&gt;Node4 -->
<g id="edge3_Node000003_Node000004" class="edge">
<title>Node3&#45;&gt;Node4</title>
<g id="a_edge3_Node000003_Node000004"><a xlink:title=" ">
<path fill="none" stroke="#63b8ff" d="M1658.12,-187.84C1658.12,-177.26 1658.12,-165.75 1658.12,-158.07"/>
<polygon fill="#63b8ff" stroke="#63b8ff" points="1654.63,-187.6 1658.13,-197.6 1661.63,-187.6 1654.63,-187.6"/>
</a>
</g>
</g>
<!-- Node6 -->
<g id="Node000006" class="node">
<title>Node6</title>
<g id="a_Node000006"><a xlink:href="wait_8hpp.html" target="_top" xlink:title=" ">
<polygon fill="white" stroke="#666666" points="985.62,-363 882.62,-363 882.62,-332.5 985.62,-332.5 985.62,-363"/>
<text text-anchor="start" x="890.62" y="-349.5" font-family="Helvetica,sans-Serif" font-size="10.00">include/yaclib/async</text>
<text text-anchor="middle" x="934.12" y="-338.25" font-family="Helvetica,sans-Serif" font-size="10.00">/wait.hpp</text>
</a>
</g>
</g>
<!-- Node5&#45;&gt;Node6 -->
<g id="edge5_Node000005_Node000006" class="edge">
<title>Node5&#45;&gt;Node6</title>
<g id="a_edge5_Node000005_Node000006"><a xlink:title=" ">
<path fill="none" stroke="#63b8ff" d="M1391.5,-405.37C1287.26,-392.47 1082.11,-367.07 986.04,-355.18"/>
<polygon fill="#63b8ff" stroke="#63b8ff" points="1390.93,-408.83 1401.28,-406.58 1391.79,-401.88 1390.93,-408.83"/>
</a>
</g>
</g>
<!-- Node19 -->
<g id="Node000019" class="node">
<title>Node19</title>
<g id="a_Node000019"><a xlink:href="wait__for_8hpp.html" target="_top" xlink:title=" ">
<polygon fill="white" stroke="#666666" points="1592.62,-230 1489.62,-230 1489.62,-199.5 1592.62,-199.5 1592.62,-230"/>
<text text-anchor="start" x="1497.62" y="-216.5" font-family="Helvetica,sans-Serif" font-size="10.00">include/yaclib/async</text>
<text text-anchor="middle" x="1541.12" y="-205.25" font-family="Helvetica,sans-Serif" font-size="10.00">/wait_for.hpp</text>
</a>
</g>
</g>
<!-- Node5&#45;&gt;Node19 -->
<g id="edge47_Node000005_Node000019" class="edge">
<title>Node5&#45;&gt;Node19</title>
<g id="a_edge47_Node000005_Node000019"><a xlink:title=" ">
<path fill="none" stroke="#63b8ff" d="M1493.81,-392.24C1504.65,-384.47 1515.33,-374.66 1522.12,-363 1547.18,-320.02 1545.26,-258.15 1542.79,-230.31"/>
<polygon fill="#63b8ff" stroke="#63b8ff" points="1491.98,-389.25 1485.58,-397.7 1495.85,-395.08 1491.98,-389.25"/>
</a>
</g>
</g>
<!-- Node20 -->
<g id="Node000020" class="node">
<title>Node20</title>
<g id="a_Node000020"><a xlink:href="wait__until_8hpp.html" target="_top" xlink:title=" ">
<polygon fill="white" stroke="#666666" points="326.62,-230 223.62,-230 223.62,-199.5 326.62,-199.5 326.62,-230"/>
<text text-anchor="start" x="231.62" y="-216.5" font-family="Helvetica,sans-Serif" font-size="10.00">include/yaclib/async</text>
<text text-anchor="middle" x="275.12" y="-205.25" font-family="Helvetica,sans-Serif" font-size="10.00">/wait_until.hpp</text>
</a>
</g>
</g>
<!-- Node5&#45;&gt;Node20 -->
<g id="edge48_Node000005_Node000020" class="edge">
<title>Node5&#45;&gt;Node20</title>
<g id="a_edge48_Node000005_Node000020"><a xlink:title=" ">
<path fill="none" stroke="#63b8ff" d="M1391.44,-410.96C1284.11,-406.38 1060.63,-393.76 874.12,-363 629.4,-322.64 572.88,-289.63 332.12,-230 330.44,-229.58 328.73,-229.16 327,-228.73"/>
<polygon fill="#63b8ff" stroke="#63b8ff" points="1391.06,-414.45 1401.2,-411.36 1391.35,-407.45 1391.06,-414.45"/>
</a>
</g>
</g>
<!-- Node32 -->
<g id="Node000032" class="node">
<title>Node32</title>
<g id="a_Node000032"><a xlink:href="wait__impl_8cpp.html" target="_top" xlink:title=" ">
<polygon fill="white" stroke="#666666" points="1513.25,-357.38 1393,-357.38 1393,-338.12 1513.25,-338.12 1513.25,-357.38"/>
<text text-anchor="middle" x="1453.12" y="-343.88" font-family="Helvetica,sans-Serif" font-size="10.00">src/async/wait_impl.cpp</text>
</a>
</g>
</g>
<!-- Node5&#45;&gt;Node32 -->
<g id="edge49_Node000005_Node000032" class="edge">
<title>Node5&#45;&gt;Node32</title>
<g id="a_edge49_Node000005_Node000032"><a xlink:title=" ">
<path fill="none" stroke="#63b8ff" d="M1454.32,-387.34C1453.99,-376.76 1453.64,-365.25 1453.4,-357.57"/>
<polygon fill="#63b8ff" stroke="#63b8ff" points="1450.82,-387.21 1454.62,-397.1 1457.81,-387 1450.82,-387.21"/>
</a>
</g>
</g>
<!-- Node7 -->
<g id="Node000007" class="node">
<title>Node7</title>
<g id="a_Node000007"><a xlink:href="async_2future_8hpp.html" target="_top" xlink:title=" ">
<polygon fill="white" stroke="#666666" points="985.62,-296.5 882.62,-296.5 882.62,-266 985.62,-266 985.62,-296.5"/>
<text text-anchor="start" x="890.62" y="-283" font-family="Helvetica,sans-Serif" font-size="10.00">include/yaclib/async</text>
<text text-anchor="middle" x="934.12" y="-271.75" font-family="Helvetica,sans-Serif" font-size="10.00">/future.hpp</text>
</a>
</g>
</g>
<!-- Node6&#45;&gt;Node7 -->
<g id="edge6_Node000006_Node000007" class="edge">
<title>Node6&#45;&gt;Node7</title>
<g id="a_edge6_Node000006_Node000007"><a xlink:title=" ">
<path fill="none" stroke="#63b8ff" d="M927.49,-320.81C927.19,-312.64 927.48,-303.91 928.37,-296.83"/>
<polygon fill="#63b8ff" stroke="#63b8ff" points="923.99,-320.9 928.25,-330.6 930.97,-320.37 923.99,-320.9"/>
</a>
</g>
</g>
<!-- Node7&#45;&gt;Node3 -->
<g id="edge7_Node000007_Node000003" class="edge">
<title>Node7&#45;&gt;Node3</title>
<g id="a_edge7_Node000007_Node000003"><a xlink:title=" ">
<path fill="none" stroke="#63b8ff" d="M997.44,-279.15C1116.58,-276.27 1381.92,-266.02 1602.12,-230 1604.7,-229.58 1607.33,-229.1 1609.97,-228.57"/>
<polygon fill="#63b8ff" stroke="#63b8ff" points="997.46,-275.65 987.54,-279.38 997.62,-282.65 997.46,-275.65"/>
</a>
</g>
</g>
<!-- Node7&#45;&gt;Node6 -->
<g id="edge24_Node000007_Node000006" class="edge">
<title>Node7&#45;&gt;Node6</title>
<g id="a_edge24_Node000007_Node000006"><a xlink:title=" ">
<path fill="none" stroke="#63b8ff" d="M940.76,-308.13C941.06,-316.29 940.77,-325.02 939.89,-332.11"/>
<polygon fill="#63b8ff" stroke="#63b8ff" points="944.26,-308.04 940,-298.34 937.28,-308.58 944.26,-308.04"/>
</a>
</g>
</g>
<!-- Node8 -->
<g id="Node000008" class="node">
<title>Node8</title>
<g id="a_Node000008"><a xlink:href="contract_8hpp.html" target="_top" xlink:title=" ">
<polygon fill="white" stroke="#666666" points="1350.62,-230 1247.62,-230 1247.62,-199.5 1350.62,-199.5 1350.62,-230"/>
<text text-anchor="start" x="1255.62" y="-216.5" font-family="Helvetica,sans-Serif" font-size="10.00">include/yaclib/async</text>
<text text-anchor="middle" x="1299.12" y="-205.25" font-family="Helvetica,sans-Serif" font-size="10.00">/contract.hpp</text>
</a>
</g>
</g>
<!-- Node7&#45;&gt;Node8 -->
<g id="edge8_Node000007_Node000008" class="edge">
<title>Node7&#45;&gt;Node8</title>
<g id="a_edge8_Node000007_Node000008"><a xlink:title=" ">
<path fill="none" stroke="#63b8ff" d="M997.4,-270.48C1058.03,-260.92 1152.02,-245.56 1233.12,-230 1237.73,-229.12 1242.51,-228.16 1247.29,-227.18"/>
<polygon fill="#63b8ff" stroke="#63b8ff" points="996.94,-267.01 987.61,-272.02 998.03,-273.93 996.94,-267.01"/>
</a>
</g>
</g>
<!-- Node9 -->
<g id="Node000009" class="node">
<title>Node9</title>
<g id="a_Node000009"><a xlink:href="simple_8cpp.html" target="_top" xlink:title=" ">
<polygon fill="white" stroke="#666666" points="1426.12,-163.5 1326.12,-163.5 1326.12,-133 1426.12,-133 1426.12,-163.5"/>
<text text-anchor="start" x="1334.12" y="-150" font-family="Helvetica,sans-Serif" font-size="10.00">test/example/async</text>
<text text-anchor="middle" x="1376.12" y="-138.75" font-family="Helvetica,sans-Serif" font-size="10.00">/simple.cpp</text>
</a>
</g>
</g>
<!-- Node7&#45;&gt;Node9 -->
<g id="edge46_Node000007_Node000009" class="edge">
<title>Node7&#45;&gt;Node9</title>
<g id="a_edge46_Node000007_Node000009"><a xlink:title=" ">
<path fill="none" stroke="#63b8ff" d="M997.15,-275.49C1051.38,-269.69 1130.79,-257.06 1195.12,-230 1217.06,-220.77 1218.01,-210.46 1239.12,-199.5 1267.12,-184.97 1300.29,-172.69 1326.98,-163.9"/>
<polygon fill="#63b8ff" stroke="#63b8ff" points="997.08,-271.98 987.49,-276.47 997.79,-278.94 997.08,-271.98"/>
</a>
</g>
</g>
<!-- Node10 -->
<g id="Node000010" class="node">
<title>Node10</title>
<g id="a_Node000010"><a xlink:href="when__impl_8hpp.html" target="_top" xlink:title=" ">
<polygon fill="white" stroke="#666666" points="1153,-230 1043.25,-230 1043.25,-199.5 1153,-199.5 1153,-230"/>
<text text-anchor="start" x="1051.25" y="-216.5" font-family="Helvetica,sans-Serif" font-size="10.00">include/yaclib/async</text>
<text text-anchor="middle" x="1098.12" y="-205.25" font-family="Helvetica,sans-Serif" font-size="10.00">/detail/when_impl.hpp</text>
</a>
</g>
</g>
<!-- Node7&#45;&gt;Node10 -->
<g id="edge10_Node000007_Node000010" class="edge">
<title>Node7&#45;&gt;Node10</title>
<g id="a_edge10_Node000007_Node000010"><a xlink:title=" ">
<path fill="none" stroke="#63b8ff" d="M981.76,-261.51C1006.92,-251.62 1037.35,-239.65 1060.77,-230.44"/>
<polygon fill="#63b8ff" stroke="#63b8ff" points="980.77,-258.14 972.75,-265.06 983.33,-264.66 980.77,-258.14"/>
</a>
</g>
</g>
<!-- Node12 -->
<g id="Node000012" class="node">
<title>Node12</title>
<g id="a_Node000012"><a xlink:href="when__all_8hpp.html" target="_top" xlink:title=" ">
<polygon fill="white" stroke="#666666" points="1080.62,-97 977.62,-97 977.62,-66.5 1080.62,-66.5 1080.62,-97"/>
<text text-anchor="start" x="985.62" y="-83.5" font-family="Helvetica,sans-Serif" font-size="10.00">include/yaclib/async</text>
<text text-anchor="middle" x="1029.12" y="-72.25" font-family="Helvetica,sans-Serif" font-size="10.00">/when_all.hpp</text>
</a>
</g>
</g>
<!-- Node7&#45;&gt;Node12 -->
<g id="edge27_Node000007_Node000012" class="edge">
<title>Node7&#45;&gt;Node12</title>
<g id="a_edge27_Node000007_Node000012"><a xlink:title=" ">
<path fill="none" stroke="#63b8ff" d="M921.34,-255.92C906.93,-224.8 888.53,-170.46 913.12,-133 927.46,-111.17 953.53,-98.78 977.33,-91.76"/>
<polygon fill="#63b8ff" stroke="#63b8ff" points="918,-257.07 925.53,-264.53 924.3,-254.01 918,-257.07"/>
</a>
</g>
</g>
<!-- Node15 -->
<g id="Node000015" class="node">
<title>Node15</title>
<g id="a_Node000015"><a xlink:href="when__any_8hpp.html" target="_top" xlink:title=" ">
<polygon fill="white" stroke="#666666" points="1302.62,-97 1199.62,-97 1199.62,-66.5 1302.62,-66.5 1302.62,-97"/>
<text text-anchor="start" x="1207.62" y="-83.5" font-family="Helvetica,sans-Serif" font-size="10.00">include/yaclib/async</text>
<text text-anchor="middle" x="1251.12" y="-72.25" font-family="Helvetica,sans-Serif" font-size="10.00">/when_any.hpp</text>
</a>
</g>
</g>
<!-- Node7&#45;&gt;Node15 -->
<g id="edge28_Node000007_Node000015" class="edge">
<title>Node7&#45;&gt;Node15</title>
<g id="a_edge28_Node000007_Node000015"><a xlink:title=" ">
<path fill="none" stroke="#63b8ff" d="M997.5,-275.29C1045.03,-269.49 1110.52,-256.97 1162.12,-230 1179.83,-220.75 1178.37,-210.37 1195.12,-199.5 1229.2,-177.39 1256.77,-197.41 1279.12,-163.5 1292.85,-142.69 1276.5,-114.42 1263.64,-97.44"/>
<polygon fill="#63b8ff" stroke="#63b8ff" points="997.16,-271.81 987.63,-276.42 997.96,-278.76 997.16,-271.81"/>
</a>
</g>
</g>
<!-- Node17 -->
<g id="Node000017" class="node">
<title>Node17</title>
<g id="a_Node000017"><a xlink:href="async_2make_8hpp.html" target="_top" xlink:title=" ">
<polygon fill="white" stroke="#666666" points="1025.62,-230 922.62,-230 922.62,-199.5 1025.62,-199.5 1025.62,-230"/>
<text text-anchor="start" x="930.62" y="-216.5" font-family="Helvetica,sans-Serif" font-size="10.00">include/yaclib/async</text>
<text text-anchor="middle" x="974.12" y="-205.25" font-family="Helvetica,sans-Serif" font-size="10.00">/make.hpp</text>
</a>
</g>
</g>
<!-- Node7&#45;&gt;Node17 -->
<g id="edge19_Node000007_Node000017" class="edge">
<title>Node7&#45;&gt;Node17</title>
<g id="a_edge19_Node000007_Node000017"><a xlink:title=" ">
<path fill="none" stroke="#63b8ff" d="M949.16,-256.01C954.52,-247.37 960.39,-237.91 965.08,-230.33"/>
<polygon fill="#63b8ff" stroke="#63b8ff" points="946.3,-253.98 944,-264.33 952.24,-257.67 946.3,-253.98"/>
</a>
</g>
</g>
<!-- Node18 -->
<g id="Node000018" class="node">
<title>Node18</title>
<g id="a_Node000018"><a xlink:href="run_8hpp.html" target="_top" xlink:title=" ">
<polygon fill="white" stroke="#666666" points="1471.62,-230 1368.62,-230 1368.62,-199.5 1471.62,-199.5 1471.62,-230"/>
<text text-anchor="start" x="1376.62" y="-216.5" font-family="Helvetica,sans-Serif" font-size="10.00">include/yaclib/async</text>
<text text-anchor="middle" x="1420.12" y="-205.25" font-family="Helvetica,sans-Serif" font-size="10.00">/run.hpp</text>
</a>
</g>
</g>
<!-- Node7&#45;&gt;Node18 -->
<g id="edge20_Node000007_Node000018" class="edge">
<title>Node7&#45;&gt;Node18</title>
<g id="a_edge20_Node000007_Node000018"><a xlink:title=" ">
<path fill="none" stroke="#63b8ff" d="M997.2,-275.11C1080.65,-267.79 1232.13,-252.67 1360.12,-230 1362.76,-229.53 1365.45,-229.02 1368.17,-228.48"/>
<polygon fill="#63b8ff" stroke="#63b8ff" points="997.05,-271.61 987.39,-275.96 997.66,-278.58 997.05,-271.61"/>
</a>
</g>
</g>
<!-- Node7&#45;&gt;Node19 -->
<g id="edge25_Node000007_Node000019" class="edge">
<title>Node7&#45;&gt;Node19</title>
<g id="a_edge25_Node000007_Node000019"><a xlink:title=" ">
<path fill="none" stroke="#63b8ff" d="M997.44,-277.35C1099.71,-272.01 1307.36,-258.47 1481.12,-230 1483.77,-229.57 1486.46,-229.08 1489.18,-228.56"/>
<polygon fill="#63b8ff" stroke="#63b8ff" points="997.41,-273.85 987.61,-277.85 997.77,-280.84 997.41,-273.85"/>
</a>
</g>
</g>
<!-- Node7&#45;&gt;Node20 -->
<g id="edge26_Node000007_Node000020" class="edge">
<title>Node7&#45;&gt;Node20</title>
<g id="a_edge26_Node000007_Node000020"><a xlink:title=" ">
<path fill="none" stroke="#63b8ff" d="M870.91,-277.56C762.16,-272.33 532.88,-258.7 341.12,-230 336.49,-229.31 331.69,-228.48 326.89,-227.58"/>
<polygon fill="#63b8ff" stroke="#63b8ff" points="870.64,-281.05 880.8,-278.02 870.97,-274.05 870.64,-281.05"/>
</a>
</g>
</g>
<!-- Node21 -->
<g id="Node000021" class="node">
<title>Node21</title>
<g id="a_Node000021"><a xlink:href="await_8hpp.html" target="_top" xlink:title=" ">
<polygon fill="white" stroke="#666666" points="871.25,-97 775,-97 775,-66.5 871.25,-66.5 871.25,-97"/>
<text text-anchor="start" x="783" y="-83.5" font-family="Helvetica,sans-Serif" font-size="10.00">include/yaclib/coro</text>
<text text-anchor="middle" x="823.12" y="-72.25" font-family="Helvetica,sans-Serif" font-size="10.00">/await.hpp</text>
</a>
</g>
</g>
<!-- Node7&#45;&gt;Node21 -->
<g id="edge29_Node000007_Node000021" class="edge">
<title>Node7&#45;&gt;Node21</title>
<g id="a_edge29_Node000007_Node000021"><a xlink:title=" ">
<path fill="none" stroke="#63b8ff" d="M916.5,-256.32C910.72,-248.13 904.43,-238.8 899.12,-230 870.76,-182.94 842.42,-124.13 829.85,-97.31"/>
<polygon fill="#63b8ff" stroke="#63b8ff" points="913.63,-258.32 922.3,-264.41 919.32,-254.24 913.63,-258.32"/>
</a>
</g>
</g>
<!-- Node22 -->
<g id="Node000022" class="node">
<title>Node22</title>
<g id="a_Node000022"><a xlink:href="await__on_8hpp.html" target="_top" xlink:title=" ">
<polygon fill="white" stroke="#666666" points="675.25,-97 579,-97 579,-66.5 675.25,-66.5 675.25,-97"/>
<text text-anchor="start" x="587" y="-83.5" font-family="Helvetica,sans-Serif" font-size="10.00">include/yaclib/coro</text>
<text text-anchor="middle" x="627.12" y="-72.25" font-family="Helvetica,sans-Serif" font-size="10.00">/await_on.hpp</text>
</a>
</g>
</g>
<!-- Node7&#45;&gt;Node22 -->
<g id="edge30_Node000007_Node000022" class="edge">
<title>Node7&#45;&gt;Node22</title>
<g id="a_edge30_Node000007_Node000022"><a xlink:title=" ">
<path fill="none" stroke="#63b8ff" d="M877.3,-261.73C825.72,-242.9 749.62,-209.9 695.12,-163.5 671.54,-143.42 649.46,-114.66 637.18,-97.43"/>
<polygon fill="#63b8ff" stroke="#63b8ff" points="875.9,-264.95 886.49,-265.02 878.26,-258.36 875.9,-264.95"/>
</a>
</g>
</g>
<!-- Node23 -->
<g id="Node000023" class="node">
<title>Node23</title>
<g id="a_Node000023"><a xlink:href="await__awaiter_8hpp.html" target="_top" xlink:title=" ">
<polygon fill="white" stroke="#666666" points="827.75,-163.5 704.5,-163.5 704.5,-133 827.75,-133 827.75,-163.5"/>
<text text-anchor="start" x="712.5" y="-150" font-family="Helvetica,sans-Serif" font-size="10.00">include/yaclib/coro</text>
<text text-anchor="middle" x="766.12" y="-138.75" font-family="Helvetica,sans-Serif" font-size="10.00">/detail/await_awaiter.hpp</text>
</a>
</g>
</g>
<!-- Node7&#45;&gt;Node23 -->
<g id="edge31_Node000007_Node000023" class="edge">
<title>Node7&#45;&gt;Node23</title>
<g id="a_edge31_Node000007_Node000023"><a xlink:title=" ">
<path fill="none" stroke="#63b8ff" d="M891.26,-260.42C875.16,-252.07 857.13,-241.59 842.12,-230 816.38,-210.11 791.5,-181.29 777.57,-164"/>
<polygon fill="#63b8ff" stroke="#63b8ff" points="889.66,-263.54 900.17,-264.91 892.81,-257.29 889.66,-263.54"/>
</a>
</g>
</g>
<!-- Node24 -->
<g id="Node000024" class="node">
<title>Node24</title>
<g id="a_Node000024"><a xlink:href="await__on__awaiter_8hpp.html" target="_top" xlink:title=" ">
<polygon fill="white" stroke="#666666" points="647.62,-163.5 508.62,-163.5 508.62,-133 647.62,-133 647.62,-163.5"/>
<text text-anchor="start" x="516.62" y="-150" font-family="Helvetica,sans-Serif" font-size="10.00">include/yaclib/coro</text>
<text text-anchor="middle" x="578.12" y="-138.75" font-family="Helvetica,sans-Serif" font-size="10.00">/detail/await_on_awaiter.hpp</text>
</a>
</g>
</g>
<!-- Node7&#45;&gt;Node24 -->
<g id="edge33_Node000007_Node000024" class="edge">
<title>Node7&#45;&gt;Node24</title>
<g id="a_edge33_Node000007_Node000024"><a xlink:title=" ">
<path fill="none" stroke="#63b8ff" d="M870.95,-276.81C816.75,-271.84 737.71,-259.69 675.12,-230 657.21,-221.5 616.14,-184.65 593.61,-163.79"/>
<polygon fill="#63b8ff" stroke="#63b8ff" points="870.36,-280.27 880.62,-277.63 870.95,-273.3 870.36,-280.27"/>
</a>
</g>
</g>
<!-- Node25 -->
<g id="Node000025" class="node">
<title>Node25</title>
<g id="a_Node000025"><a xlink:href="coro_2future_8hpp.html" target="_top" xlink:title=" ">
<polygon fill="white" stroke="#666666" points="96.25,-163.5 0,-163.5 0,-133 96.25,-133 96.25,-163.5"/>
<text text-anchor="start" x="8" y="-150" font-family="Helvetica,sans-Serif" font-size="10.00">include/yaclib/coro</text>
<text text-anchor="middle" x="48.12" y="-138.75" font-family="Helvetica,sans-Serif" font-size="10.00">/future.hpp</text>
</a>
</g>
</g>
<!-- Node7&#45;&gt;Node25 -->
<g id="edge35_Node000007_Node000025" class="edge">
<title>Node7&#45;&gt;Node25</title>
<g id="a_edge35_Node000007_Node000025"><a xlink:title=" ">
<path fill="none" stroke="#63b8ff" d="M871.21,-276.66C734.58,-268.57 419.31,-248.2 374.12,-230 354.04,-221.91 355.94,-208.24 336.12,-199.5 241.06,-157.56 206.96,-184.12 105.12,-163.5 102.33,-162.93 99.46,-162.32 96.57,-161.68"/>
<polygon fill="#63b8ff" stroke="#63b8ff" points="870.61,-280.13 880.79,-277.23 871.02,-273.14 870.61,-280.13"/>
</a>
</g>
</g>
<!-- Node26 -->
<g id="Node000026" class="node">
<title>Node26</title>
<g id="a_Node000026"><a xlink:href="lazy_2task_8hpp.html" target="_top" xlink:title=" ">
<polygon fill="white" stroke="#666666" points="477.12,-230 383.12,-230 383.12,-199.5 477.12,-199.5 477.12,-230"/>
<text text-anchor="start" x="391.12" y="-216.5" font-family="Helvetica,sans-Serif" font-size="10.00">include/yaclib/lazy</text>
<text text-anchor="middle" x="430.12" y="-205.25" font-family="Helvetica,sans-Serif" font-size="10.00">/task.hpp</text>
</a>
</g>
</g>
<!-- Node7&#45;&gt;Node26 -->
<g id="edge36_Node000007_Node000026" class="edge">
<title>Node7&#45;&gt;Node26</title>
<g id="a_edge36_Node000007_Node000026"><a xlink:title=" ">
<path fill="none" stroke="#63b8ff" d="M870.93,-275.81C783.98,-269.09 622.83,-254.48 487.12,-230 484.01,-229.44 480.82,-228.8 477.61,-228.12"/>
<polygon fill="#63b8ff" stroke="#63b8ff" points="870.43,-279.28 880.67,-276.55 870.96,-272.3 870.43,-279.28"/>
</a>
</g>
</g>
<!-- Node31 -->
<g id="Node000031" class="node">
<title>Node31</title>
<g id="a_Node000031"><a xlink:href="future__impl_8cpp.html" target="_top" xlink:title=" ">
<polygon fill="white" stroke="#666666" points="622.62,-224.38 495.62,-224.38 495.62,-205.12 622.62,-205.12 622.62,-224.38"/>
<text text-anchor="middle" x="559.12" y="-210.88" font-family="Helvetica,sans-Serif" font-size="10.00">src/async/future_impl.cpp</text>
</a>
</g>
</g>
<!-- Node7&#45;&gt;Node31 -->
<g id="edge45_Node000007_Node000031" class="edge">
<title>Node7&#45;&gt;Node31</title>
<g id="a_edge45_Node000007_Node000031"><a xlink:title=" ">
<path fill="none" stroke="#63b8ff" d="M871.11,-269.83C810.96,-259.83 717.81,-244.19 637.12,-230 627.77,-228.35 617.79,-226.56 608.21,-224.82"/>
<polygon fill="#63b8ff" stroke="#63b8ff" points="870.38,-273.26 880.82,-271.45 871.53,-266.36 870.38,-273.26"/>
</a>
</g>
</g>
<!-- Node8&#45;&gt;Node9 -->
<g id="edge9_Node000008_Node000009" class="edge">
<title>Node8&#45;&gt;Node9</title>
<g id="a_edge9_Node000008_Node000009"><a xlink:title=" ">
<path fill="none" stroke="#63b8ff" d="M1325.4,-191.74C1336.4,-182.53 1348.89,-172.06 1358.72,-163.83"/>
<polygon fill="#63b8ff" stroke="#63b8ff" points="1323.18,-189.04 1317.76,-198.14 1327.67,-194.4 1323.18,-189.04"/>
</a>
</g>
</g>
<!-- Node11 -->
<g id="Node000011" class="node">
<title>Node11</title>
<g id="a_Node000011"><a xlink:href="when__all__impl_8hpp.html" target="_top" xlink:title=" ">
<polygon fill="white" stroke="#666666" points="1046.5,-163.5 921.75,-163.5 921.75,-133 1046.5,-133 1046.5,-163.5"/>
<text text-anchor="start" x="929.75" y="-150" font-family="Helvetica,sans-Serif" font-size="10.00">include/yaclib/async</text>
<text text-anchor="middle" x="984.12" y="-138.75" font-family="Helvetica,sans-Serif" font-size="10.00">/detail/when_all_impl.hpp</text>
</a>
</g>
</g>
<!-- Node10&#45;&gt;Node11 -->
<g id="edge11_Node000010_Node000011" class="edge">
<title>Node10&#45;&gt;Node11</title>
<g id="a_edge11_Node000010_Node000011"><a xlink:title=" ">
<path fill="none" stroke="#63b8ff" d="M1062.61,-193.66C1045.55,-184 1025.47,-172.64 1009.89,-163.83"/>
<polygon fill="#63b8ff" stroke="#63b8ff" points="1060.51,-196.49 1070.94,-198.37 1063.96,-190.4 1060.51,-196.49"/>
</a>
</g>
</g>
<!-- Node10&#45;&gt;Node12 -->
<g id="edge17_Node000010_Node000012" class="edge">
<title>Node10&#45;&gt;Node12</title>
<g id="a_edge17_Node000010_Node000012"><a xlink:title=" ">
<path fill="none" stroke="#63b8ff" d="M1085.29,-189.38C1071.05,-162.34 1048.54,-119.6 1036.81,-97.33"/>
<polygon fill="#63b8ff" stroke="#63b8ff" points="1082.01,-190.67 1089.77,-197.89 1088.21,-187.41 1082.01,-190.67"/>
</a>
</g>
</g>
<!-- Node14 -->
<g id="Node000014" class="node">
<title>Node14</title>
<g id="a_Node000014"><a xlink:href="when__any__impl_8hpp.html" target="_top" xlink:title=" ">
<polygon fill="white" stroke="#666666" points="1270.12,-163.5 1140.12,-163.5 1140.12,-133 1270.12,-133 1270.12,-163.5"/>
<text text-anchor="start" x="1148.12" y="-150" font-family="Helvetica,sans-Serif" font-size="10.00">include/yaclib/async</text>
<text text-anchor="middle" x="1205.12" y="-138.75" font-family="Helvetica,sans-Serif" font-size="10.00">/detail/when_any_impl.hpp</text>
</a>
</g>
</g>
<!-- Node10&#45;&gt;Node14 -->
<g id="edge14_Node000010_Node000014" class="edge">
<title>Node10&#45;&gt;Node14</title>
<g id="a_edge14_Node000010_Node000014"><a xlink:title=" ">
<path fill="none" stroke="#63b8ff" d="M1131.91,-193.39C1147.83,-183.79 1166.46,-172.56 1180.94,-163.83"/>
<polygon fill="#63b8ff" stroke="#63b8ff" points="1130.46,-190.17 1123.7,-198.33 1134.07,-196.17 1130.46,-190.17"/>
</a>
</g>
</g>
<!-- Node10&#45;&gt;Node15 -->
<g id="edge18_Node000010_Node000015" class="edge">
<title>Node10&#45;&gt;Node15</title>
<g id="a_edge18_Node000010_Node000015"><a xlink:title=" ">
<path fill="none" stroke="#63b8ff" d="M1103.22,-187.91C1107.86,-170.45 1116.31,-147.94 1131.12,-133 1149.57,-114.39 1175.94,-102.33 1199.26,-94.7"/>
<polygon fill="#63b8ff" stroke="#63b8ff" points="1099.83,-187.03 1100.94,-197.56 1106.65,-188.64 1099.83,-187.03"/>
</a>
</g>
</g>
<!-- Node11&#45;&gt;Node12 -->
<g id="edge12_Node000011_Node000012" class="edge">
<title>Node11&#45;&gt;Node12</title>
<g id="a_edge12_Node000011_Node000012"><a xlink:title=" ">
<path fill="none" stroke="#63b8ff" d="M1000.84,-123.29C1006.92,-114.57 1013.61,-104.99 1018.95,-97.33"/>
<polygon fill="#63b8ff" stroke="#63b8ff" points="998.05,-121.17 995.2,-131.37 1003.79,-125.17 998.05,-121.17"/>
</a>
</g>
</g>
<!-- Node13 -->
<g id="Node000013" class="node">
<title>Node13</title>
<g id="a_Node000013"><a xlink:href="when__all_8cpp.html" target="_top" xlink:title=" ">
<polygon fill="white" stroke="#666666" points="1320.12,-30.5 1220.12,-30.5 1220.12,0 1320.12,0 1320.12,-30.5"/>
<text text-anchor="start" x="1228.12" y="-17" font-family="Helvetica,sans-Serif" font-size="10.00">test/example/async</text>
<text text-anchor="middle" x="1270.12" y="-5.75" font-family="Helvetica,sans-Serif" font-size="10.00">/when_all.cpp</text>
</a>
</g>
</g>
<!-- Node12&#45;&gt;Node13 -->
<g id="edge13_Node000012_Node000013" class="edge">
<title>Node12&#45;&gt;Node13</title>
<g id="a_edge13_Node000012_Node000013"><a xlink:title=" ">
<path fill="none" stroke="#63b8ff" d="M1092.05,-63.91C1131.9,-53.24 1182.73,-39.64 1219.87,-29.7"/>
<polygon fill="#63b8ff" stroke="#63b8ff" points="1091.34,-60.48 1082.58,-66.44 1093.15,-67.24 1091.34,-60.48"/>
</a>
</g>
</g>
<!-- Node14&#45;&gt;Node15 -->
<g id="edge15_Node000014_Node000015" class="edge">
<title>Node14&#45;&gt;Node15</title>
<g id="a_edge15_Node000014_Node000015"><a xlink:title=" ">
<path fill="none" stroke="#63b8ff" d="M1222.21,-123.29C1228.43,-114.57 1235.27,-104.99 1240.73,-97.33"/>
<polygon fill="#63b8ff" stroke="#63b8ff" points="1219.4,-121.21 1216.44,-131.38 1225.1,-125.27 1219.4,-121.21"/>
</a>
</g>
</g>
<!-- Node16 -->
<g id="Node000016" class="node">
<title>Node16</title>
<g id="a_Node000016"><a xlink:href="when__any_8cpp.html" target="_top" xlink:title=" ">
<polygon fill="white" stroke="#666666" points="1444.12,-30.5 1344.12,-30.5 1344.12,0 1444.12,0 1444.12,-30.5"/>
<text text-anchor="start" x="1352.12" y="-17" font-family="Helvetica,sans-Serif" font-size="10.00">test/example/async</text>
<text text-anchor="middle" x="1394.12" y="-5.75" font-family="Helvetica,sans-Serif" font-size="10.00">/when_any.cpp</text>
</a>
</g>
</g>
<!-- Node15&#45;&gt;Node16 -->
<g id="edge16_Node000015_Node000016" class="edge">
<title>Node15&#45;&gt;Node16</title>
<g id="a_edge16_Node000015_Node000016"><a xlink:title=" ">
<path fill="none" stroke="#63b8ff" d="M1293.88,-61.47C1315.66,-51.64 1341.72,-39.89 1361.8,-30.83"/>
<polygon fill="#63b8ff" stroke="#63b8ff" points="1292.63,-58.19 1284.95,-65.49 1295.51,-64.57 1292.63,-58.19"/>
</a>
</g>
</g>
<!-- Node18&#45;&gt;Node9 -->
<g id="edge21_Node000018_Node000009" class="edge">
<title>Node18&#45;&gt;Node9</title>
<g id="a_edge21_Node000018_Node000009"><a xlink:title=" ">
<path fill="none" stroke="#63b8ff" d="M1403.78,-189.79C1397.83,-181.07 1391.3,-171.49 1386.07,-163.83"/>
<polygon fill="#63b8ff" stroke="#63b8ff" points="1400.76,-191.58 1409.29,-197.86 1406.54,-187.63 1400.76,-191.58"/>
</a>
</g>
</g>
<!-- Node18&#45;&gt;Node13 -->
<g id="edge22_Node000018_Node000013" class="edge">
<title>Node18&#45;&gt;Node13</title>
<g id="a_edge22_Node000018_Node000013"><a xlink:title=" ">
<path fill="none" stroke="#63b8ff" d="M1432.73,-188.69C1439.21,-172.1 1444.07,-150.29 1435.12,-133 1408.68,-81.89 1348.4,-48.35 1308.49,-30.84"/>
<polygon fill="#63b8ff" stroke="#63b8ff" points="1429.53,-187.27 1428.73,-197.84 1435.94,-190.08 1429.53,-187.27"/>
</a>
</g>
</g>
<!-- Node18&#45;&gt;Node16 -->
<g id="edge23_Node000018_Node000016" class="edge">
<title>Node18&#45;&gt;Node16</title>
<g id="a_edge23_Node000018_Node000016"><a xlink:title=" ">
<path fill="none" stroke="#63b8ff" d="M1448.14,-191.75C1456.15,-183.8 1463.86,-174.14 1468.12,-163.5 1484.17,-123.48 1488.31,-104.6 1468.12,-66.5 1459.77,-50.72 1443.98,-38.98 1429.13,-30.83"/>
<polygon fill="#63b8ff" stroke="#63b8ff" points="1445.94,-189.02 1440.93,-198.35 1450.67,-194.18 1445.94,-189.02"/>
</a>
</g>
</g>
<!-- Node23&#45;&gt;Node21 -->
<g id="edge32_Node000023_Node000021" class="edge">
<title>Node23&#45;&gt;Node21</title>
<g id="a_edge32_Node000023_Node000021"><a xlink:title=" ">
<path fill="none" stroke="#63b8ff" d="M786.56,-124.13C794.46,-115.19 803.25,-105.24 810.24,-97.33"/>
<polygon fill="#63b8ff" stroke="#63b8ff" points="784.06,-121.67 780.06,-131.48 789.31,-126.3 784.06,-121.67"/>
</a>
</g>
</g>
<!-- Node24&#45;&gt;Node22 -->
<g id="edge34_Node000024_Node000022" class="edge">
<title>Node24&#45;&gt;Node22</title>
<g id="a_edge34_Node000024_Node000022"><a xlink:title=" ">
<path fill="none" stroke="#63b8ff" d="M596.11,-123.57C602.79,-114.78 610.17,-105.07 616.05,-97.33"/>
<polygon fill="#63b8ff" stroke="#63b8ff" points="593.42,-121.33 590.16,-131.41 599,-125.56 593.42,-121.33"/>
</a>
</g>
</g>
<!-- Node26&#45;&gt;Node23 -->
<g id="edge37_Node000026_Node000023" class="edge">
<title>Node26&#45;&gt;Node23</title>
<g id="a_edge37_Node000026_Node000023"><a xlink:title=" ">
<path fill="none" stroke="#63b8ff" d="M488.18,-199.37C568.69,-182.28 649.86,-168.18 704.11,-159.2"/>
<polygon fill="#63b8ff" stroke="#63b8ff" points="487.87,-195.85 478.83,-201.37 489.34,-202.7 487.87,-195.85"/>
</a>
</g>
</g>
<!-- Node26&#45;&gt;Node24 -->
<g id="edge38_Node000026_Node000024" class="edge">
<title>Node26&#45;&gt;Node24</title>
<g id="a_edge38_Node000026_Node000024"><a xlink:title=" ">
<path fill="none" stroke="#63b8ff" d="M474.03,-194.62C496.55,-184.8 523.56,-173.03 544.42,-163.94"/>
<polygon fill="#63b8ff" stroke="#63b8ff" points="472.86,-191.31 465.1,-198.51 475.66,-197.72 472.86,-191.31"/>
</a>
</g>
</g>
<!-- Node26&#45;&gt;Node25 -->
<g id="edge39_Node000026_Node000025" class="edge">
<title>Node26&#45;&gt;Node25</title>
<g id="a_edge39_Node000026_Node000025"><a xlink:title=" ">
<path fill="none" stroke="#63b8ff" d="M371.67,-199.98C370.82,-199.81 369.97,-199.66 369.12,-199.5 252.67,-178.01 221.41,-185.89 105.12,-163.5 102.32,-162.96 99.45,-162.37 96.55,-161.74"/>
<polygon fill="#63b8ff" stroke="#63b8ff" points="370.95,-203.4 381.45,-201.96 372.34,-196.54 370.95,-203.4"/>
</a>
</g>
</g>
<!-- Node27 -->
<g id="Node000027" class="node">
<title>Node27</title>
<g id="a_Node000027"><a xlink:href="coro_2task_8hpp.html" target="_top" xlink:title=" ">
<polygon fill="white" stroke="#666666" points="490.25,-163.5 394,-163.5 394,-133 490.25,-133 490.25,-163.5"/>
<text text-anchor="start" x="402" y="-150" font-family="Helvetica,sans-Serif" font-size="10.00">include/yaclib/coro</text>
<text text-anchor="middle" x="442.12" y="-138.75" font-family="Helvetica,sans-Serif" font-size="10.00">/task.hpp</text>
</a>
</g>
</g>
<!-- Node26&#45;&gt;Node27 -->
<g id="edge40_Node000026_Node000027" class="edge">
<title>Node26&#45;&gt;Node27</title>
<g id="a_edge40_Node000026_Node000027"><a xlink:title=" ">
<path fill="none" stroke="#63b8ff" d="M434.95,-187.81C436.47,-179.64 438.09,-170.91 439.41,-163.83"/>
<polygon fill="#63b8ff" stroke="#63b8ff" points="431.51,-187.15 433.12,-197.63 438.39,-188.43 431.51,-187.15"/>
</a>
</g>
</g>
<!-- Node28 -->
<g id="Node000028" class="node">
<title>Node28</title>
<g id="a_Node000028"><a xlink:href="lazy_2make_8hpp.html" target="_top" xlink:title=" ">
<polygon fill="white" stroke="#666666" points="246.12,-97 152.12,-97 152.12,-66.5 246.12,-66.5 246.12,-97"/>
<text text-anchor="start" x="160.12" y="-83.5" font-family="Helvetica,sans-Serif" font-size="10.00">include/yaclib/lazy</text>
<text text-anchor="middle" x="199.12" y="-72.25" font-family="Helvetica,sans-Serif" font-size="10.00">/make.hpp</text>
</a>
</g>
</g>
<!-- Node26&#45;&gt;Node28 -->
<g id="edge41_Node000026_Node000028" class="edge">
<title>Node26&#45;&gt;Node28</title>
<g id="a_edge41_Node000026_Node000028"><a xlink:title=" ">
<path fill="none" stroke="#63b8ff" d="M371.62,-199.03C324.62,-186.86 264.88,-170.49 255.12,-163.5 231.14,-146.3 214,-115.47 205.4,-97.29"/>
<polygon fill="#63b8ff" stroke="#63b8ff" points="370.62,-202.39 381.18,-201.49 372.37,-195.61 370.62,-202.39"/>
</a>
</g>
</g>
<!-- Node29 -->
<g id="Node000029" class="node">
<title>Node29</title>
<g id="a_Node000029"><a xlink:href="schedule_8hpp.html" target="_top" xlink:title=" ">
<polygon fill="white" stroke="#666666" points="208.12,-163.5 114.12,-163.5 114.12,-133 208.12,-133 208.12,-163.5"/>
<text text-anchor="start" x="122.12" y="-150" font-family="Helvetica,sans-Serif" font-size="10.00">include/yaclib/lazy</text>
<text text-anchor="middle" x="161.12" y="-138.75" font-family="Helvetica,sans-Serif" font-size="10.00">/schedule.hpp</text>
</a>
</g>
</g>
<!-- Node26&#45;&gt;Node29 -->
<g id="edge42_Node000026_Node000029" class="edge">
<title>Node26&#45;&gt;Node29</title>
<g id="a_edge42_Node000026_Node000029"><a xlink:title=" ">
<path fill="none" stroke="#63b8ff" d="M371.62,-199.72C322.78,-188.01 254.04,-171.53 208.57,-160.63"/>
<polygon fill="#63b8ff" stroke="#63b8ff" points="370.64,-203.09 381.18,-202.01 372.27,-196.28 370.64,-203.09"/>
</a>
</g>
</g>
<!-- Node30 -->
<g id="Node000030" class="node">
<title>Node30</title>
<g id="a_Node000030"><a xlink:href="task__impl_8cpp.html" target="_top" xlink:title=" ">
<polygon fill="white" stroke="#666666" points="376.12,-157.88 264.12,-157.88 264.12,-138.62 376.12,-138.62 376.12,-157.88"/>
<text text-anchor="middle" x="320.12" y="-144.38" font-family="Helvetica,sans-Serif" font-size="10.00">src/lazy/task_impl.cpp</text>
</a>
</g>
</g>
<!-- Node26&#45;&gt;Node30 -->
<g id="edge44_Node000026_Node000030" class="edge">
<title>Node26&#45;&gt;Node30</title>
<g id="a_edge44_Node000026_Node000030"><a xlink:title=" ">
<path fill="none" stroke="#63b8ff" d="M395.39,-193.38C375.26,-181.58 350.93,-167.31 335.49,-158.26"/>
<polygon fill="#63b8ff" stroke="#63b8ff" points="393.46,-196.31 403.86,-198.35 397,-190.27 393.46,-196.31"/>
</a>
</g>
</g>
<!-- Node29&#45;&gt;Node28 -->
<g id="edge43_Node000029_Node000028" class="edge">
<title>Node29&#45;&gt;Node28</title>
<g id="a_edge43_Node000029_Node000028"><a xlink:title=" ">
<path fill="none" stroke="#63b8ff" d="M175.57,-122.73C180.62,-114.16 186.12,-104.82 190.54,-97.33"/>
<polygon fill="#63b8ff" stroke="#63b8ff" points="172.58,-120.92 170.52,-131.31 178.61,-124.47 172.58,-120.92"/>
</a>
</g>
</g>
</g>
</svg>
