<?xml version="1.0" encoding="UTF-8" standalone="no"?>
<!DOCTYPE svg PUBLIC "-//W3C//DTD SVG 1.1//EN"
 "http://www.w3.org/Graphics/SVG/1.1/DTD/svg11.dtd">
<!-- Generated by graphviz version 9.0.0 (20230911.1827)
 -->
<!-- Title: include/yaclib/util/detail/shared_func.hpp Pages: 1 -->
<svg width="782pt" height="337pt"
 viewBox="0.00 0.00 782.24 337.25" xmlns="http://www.w3.org/2000/svg" xmlns:xlink="http://www.w3.org/1999/xlink">
<g id="graph0" class="graph" transform="scale(1 1) rotate(0) translate(4 333.25)">
<title>include/yaclib/util/detail/shared_func.hpp</title>
<!-- Node1 -->
<g id="Node000001" class="node">
<title>Node1</title>
<g id="a_Node000001"><a xlink:title=" ">
<polygon fill="#999999" stroke="#666666" points="297,-329.25 180.5,-329.25 180.5,-298.75 297,-298.75 297,-329.25"/>
<text text-anchor="start" x="188.5" y="-315.75" font-family="Helvetica,sans-Serif" font-size="10.00">include/yaclib/util</text>
<text text-anchor="middle" x="238.75" y="-304.5" font-family="Helvetica,sans-Serif" font-size="10.00">/detail/shared_func.hpp</text>
</a>
</g>
</g>
<!-- Node2 -->
<g id="Node000002" class="node">
<title>Node2</title>
<g id="a_Node000002"><a xlink:href="safe__call_8hpp.html" target="_top" xlink:title=" ">
<polygon fill="white" stroke="#666666" points="211.12,-207.5 128.37,-207.5 128.37,-177 211.12,-177 211.12,-207.5"/>
<text text-anchor="start" x="136.37" y="-194" font-family="Helvetica,sans-Serif" font-size="10.00">yaclib/util/detail</text>
<text text-anchor="middle" x="169.75" y="-182.75" font-family="Helvetica,sans-Serif" font-size="10.00">/safe_call.hpp</text>
</a>
</g>
</g>
<!-- Node1&#45;&gt;Node2 -->
<g id="edge1_Node000001_Node000002" class="edge">
<title>Node1&#45;&gt;Node2</title>
<g id="a_edge1_Node000001_Node000002"><a xlink:title=" ">
<path fill="none" stroke="#63b8ff" d="M230.29,-298.32C218.69,-278.19 197.7,-241.77 183.74,-217.54"/>
<polygon fill="#63b8ff" stroke="#63b8ff" points="186.84,-215.91 178.82,-208.99 180.78,-219.4 186.84,-215.91"/>
</a>
</g>
</g>
<!-- Node4 -->
<g id="Node000004" class="node">
<title>Node4</title>
<g id="a_Node000004"><a xlink:title=" ">
<polygon fill="#e0e0e0" stroke="#999999" points="140.25,-135.38 79.25,-135.38 79.25,-116.12 140.25,-116.12 140.25,-135.38"/>
<text text-anchor="middle" x="109.75" y="-121.88" font-family="Helvetica,sans-Serif" font-size="10.00">type_traits</text>
</a>
</g>
</g>
<!-- Node1&#45;&gt;Node4 -->
<g id="edge28_Node000001_Node000004" class="edge">
<title>Node1&#45;&gt;Node4</title>
<g id="a_edge28_Node000001_Node000004"><a xlink:title=" ">
<path fill="none" stroke="#63b8ff" d="M240.91,-298.63C244.11,-271.85 247.1,-213.7 219.75,-177 214.75,-170.3 173.42,-152.49 142.88,-139.99"/>
<polygon fill="#63b8ff" stroke="#63b8ff" points="144.59,-136.91 134.01,-136.39 141.95,-143.39 144.59,-136.91"/>
</a>
</g>
</g>
<!-- Node5 -->
<g id="Node000005" class="node">
<title>Node5</title>
<g id="a_Node000005"><a xlink:title=" ">
<polygon fill="#e0e0e0" stroke="#999999" points="61,-135.38 22.5,-135.38 22.5,-116.12 61,-116.12 61,-135.38"/>
<text text-anchor="middle" x="41.75" y="-121.88" font-family="Helvetica,sans-Serif" font-size="10.00">utility</text>
</a>
</g>
</g>
<!-- Node1&#45;&gt;Node5 -->
<g id="edge29_Node000001_Node000005" class="edge">
<title>Node1&#45;&gt;Node5</title>
<g id="a_edge29_Node000001_Node000005"><a xlink:title=" ">
<path fill="none" stroke="#63b8ff" d="M180.24,-304.73C124.41,-293.38 43.26,-267.11 4.75,-207.5 -8.65,-186.76 9.18,-160.38 24.42,-143.53"/>
<polygon fill="#63b8ff" stroke="#63b8ff" points="26.52,-146.39 30.92,-136.75 21.47,-141.54 26.52,-146.39"/>
</a>
</g>
</g>
<!-- Node6 -->
<g id="Node000006" class="node">
<title>Node6</title>
<g id="a_Node000006"><a xlink:href="func_8hpp.html" target="_top" xlink:title=" ">
<polygon fill="white" stroke="#666666" points="109.87,-201.88 13.62,-201.88 13.62,-182.62 109.87,-182.62 109.87,-201.88"/>
<text text-anchor="middle" x="61.75" y="-188.38" font-family="Helvetica,sans-Serif" font-size="10.00">yaclib/util/func.hpp</text>
</a>
</g>
</g>
<!-- Node1&#45;&gt;Node6 -->
<g id="edge5_Node000001_Node000006" class="edge">
<title>Node1&#45;&gt;Node6</title>
<g id="a_edge5_Node000001_Node000006"><a xlink:title=" ">
<path fill="none" stroke="#63b8ff" d="M217.04,-298.32C183.27,-275.47 118.46,-231.62 84.22,-208.45"/>
<polygon fill="#63b8ff" stroke="#63b8ff" points="86.53,-205.79 76.29,-203.09 82.61,-211.59 86.53,-205.79"/>
</a>
</g>
</g>
<!-- Node7 -->
<g id="Node000007" class="node">
<title>Node7</title>
<g id="a_Node000007"><a xlink:href="ref_8hpp.html" target="_top" xlink:title=" ">
<polygon fill="white" stroke="#666666" points="378.12,-135.38 289.37,-135.38 289.37,-116.12 378.12,-116.12 378.12,-135.38"/>
<text text-anchor="middle" x="333.75" y="-121.88" font-family="Helvetica,sans-Serif" font-size="10.00">yaclib/util/ref.hpp</text>
</a>
</g>
</g>
<!-- Node1&#45;&gt;Node7 -->
<g id="edge27_Node000001_Node000007" class="edge">
<title>Node1&#45;&gt;Node7</title>
<g id="a_edge27_Node000001_Node000007"><a xlink:title=" ">
<path fill="none" stroke="#63b8ff" d="M270.67,-298.32C302.94,-281.51 350.91,-250.62 371.75,-207.5 382.33,-185.61 365.65,-160.21 351.17,-143.83"/>
<polygon fill="#63b8ff" stroke="#63b8ff" points="353.98,-141.71 344.57,-136.84 348.89,-146.52 353.98,-141.71"/>
</a>
</g>
</g>
<!-- Node9 -->
<g id="Node000009" class="node">
<title>Node9</title>
<g id="a_Node000009"><a xlink:href="helper_8hpp.html" target="_top" xlink:title=" ">
<polygon fill="white" stroke="#666666" points="599.62,-262.75 495.87,-262.75 495.87,-243.5 599.62,-243.5 599.62,-262.75"/>
<text text-anchor="middle" x="547.75" y="-249.25" font-family="Helvetica,sans-Serif" font-size="10.00">yaclib/util/helper.hpp</text>
</a>
</g>
</g>
<!-- Node1&#45;&gt;Node9 -->
<g id="edge10_Node000001_Node000009" class="edge">
<title>Node1&#45;&gt;Node9</title>
<g id="a_edge10_Node000001_Node000009"><a xlink:title=" ">
<path fill="none" stroke="#63b8ff" d="M297.23,-301.86C352.23,-291.38 434.12,-275.77 489.16,-265.29"/>
<polygon fill="#63b8ff" stroke="#63b8ff" points="489.48,-268.79 498.65,-263.48 488.17,-261.91 489.48,-268.79"/>
</a>
</g>
</g>
<!-- Node14 -->
<g id="Node000014" class="node">
<title>Node14</title>
<g id="a_Node000014"><a xlink:href="intrusive__ptr_8hpp.html" target="_top" xlink:title=" ">
<polygon fill="white" stroke="#666666" points="362.87,-207.5 266.62,-207.5 266.62,-177 362.87,-177 362.87,-207.5"/>
<text text-anchor="start" x="274.62" y="-194" font-family="Helvetica,sans-Serif" font-size="10.00">yaclib/util/intrusive</text>
<text text-anchor="middle" x="314.75" y="-182.75" font-family="Helvetica,sans-Serif" font-size="10.00">_ptr.hpp</text>
</a>
</g>
</g>
<!-- Node1&#45;&gt;Node14 -->
<g id="edge26_Node000001_Node000014" class="edge">
<title>Node1&#45;&gt;Node14</title>
<g id="a_edge26_Node000001_Node000014"><a xlink:title=" ">
<path fill="none" stroke="#63b8ff" d="M248.07,-298.32C260.9,-278.1 284.16,-241.44 299.54,-217.22"/>
<polygon fill="#63b8ff" stroke="#63b8ff" points="302.37,-219.28 304.78,-208.96 296.46,-215.53 302.37,-219.28"/>
</a>
</g>
</g>
<!-- Node3 -->
<g id="Node000003" class="node">
<title>Node3</title>
<g id="a_Node000003"><a xlink:title=" ">
<polygon fill="#e0e0e0" stroke="#999999" points="483.37,-135.38 396.12,-135.38 396.12,-116.12 483.37,-116.12 483.37,-135.38"/>
<text text-anchor="middle" x="439.75" y="-121.88" font-family="Helvetica,sans-Serif" font-size="10.00">yaclib/config.hpp</text>
</a>
</g>
</g>
<!-- Node2&#45;&gt;Node3 -->
<g id="edge2_Node000002_Node000003" class="edge">
<title>Node2&#45;&gt;Node3</title>
<g id="a_edge2_Node000002_Node000003"><a xlink:title=" ">
<path fill="none" stroke="#63b8ff" d="M211.45,-182.05C255.22,-172.29 325.97,-156.2 386.75,-141 389.68,-140.27 392.7,-139.5 395.74,-138.71"/>
<polygon fill="#63b8ff" stroke="#63b8ff" points="396.47,-142.14 405.25,-136.21 394.69,-135.37 396.47,-142.14"/>
</a>
</g>
</g>
<!-- Node2&#45;&gt;Node4 -->
<g id="edge3_Node000002_Node000004" class="edge">
<title>Node2&#45;&gt;Node4</title>
<g id="a_edge3_Node000002_Node000004"><a xlink:title=" ">
<path fill="none" stroke="#63b8ff" d="M156.13,-176.61C147.04,-166.84 135.05,-153.95 125.54,-143.73"/>
<polygon fill="#63b8ff" stroke="#63b8ff" points="128.36,-141.62 118.99,-136.68 123.23,-146.39 128.36,-141.62"/>
</a>
</g>
</g>
<!-- Node2&#45;&gt;Node5 -->
<g id="edge4_Node000002_Node000005" class="edge">
<title>Node2&#45;&gt;Node5</title>
<g id="a_edge4_Node000002_Node000005"><a xlink:title=" ">
<path fill="none" stroke="#63b8ff" d="M140.41,-176.56C122.5,-167.57 98.91,-155.73 69.65,-140.94"/>
<polygon fill="#63b8ff" stroke="#63b8ff" points="71.37,-137.88 60.87,-136.49 68.21,-144.13 71.37,-137.88"/>
</a>
</g>
</g>
<!-- Node6&#45;&gt;Node4 -->
<g id="edge8_Node000006_Node000004" class="edge">
<title>Node6&#45;&gt;Node4</title>
<g id="a_edge8_Node000006_Node000004"><a xlink:title=" ">
<path fill="none" stroke="#63b8ff" d="M68.42,-182.28C75.66,-172.56 87.39,-156.79 96.51,-144.53"/>
<polygon fill="#63b8ff" stroke="#63b8ff" points="99.06,-146.97 102.23,-136.86 93.45,-142.79 99.06,-146.97"/>
</a>
</g>
</g>
<!-- Node6&#45;&gt;Node5 -->
<g id="edge9_Node000006_Node000005" class="edge">
<title>Node6&#45;&gt;Node5</title>
<g id="a_edge9_Node000006_Node000005"><a xlink:title=" ">
<path fill="none" stroke="#63b8ff" d="M58.97,-182.28C56.1,-173.04 51.54,-158.33 47.83,-146.38"/>
<polygon fill="#63b8ff" stroke="#63b8ff" points="51.26,-145.6 44.95,-137.09 44.57,-147.68 51.26,-145.6"/>
</a>
</g>
</g>
<!-- Node6&#45;&gt;Node7 -->
<g id="edge6_Node000006_Node000007" class="edge">
<title>Node6&#45;&gt;Node7</title>
<g id="a_edge6_Node000006_Node000007"><a xlink:title=" ">
<path fill="none" stroke="#63b8ff" d="M98.23,-182.16C105.36,-180.42 112.78,-178.63 119.75,-177 191.13,-160.25 209.55,-158.52 280.75,-141 283.68,-140.28 286.7,-139.52 289.74,-138.73"/>
<polygon fill="#63b8ff" stroke="#63b8ff" points="290.47,-142.16 299.26,-136.25 288.7,-135.39 290.47,-142.16"/>
</a>
</g>
</g>
<!-- Node8 -->
<g id="Node000008" class="node">
<title>Node8</title>
<g id="a_Node000008"><a xlink:title=" ">
<polygon fill="#e0e0e0" stroke="#999999" points="645.87,-74.5 597.62,-74.5 597.62,-55.25 645.87,-55.25 645.87,-74.5"/>
<text text-anchor="middle" x="621.75" y="-61" font-family="Helvetica,sans-Serif" font-size="10.00">cstddef</text>
</a>
</g>
</g>
<!-- Node7&#45;&gt;Node8 -->
<g id="edge7_Node000007_Node000008" class="edge">
<title>Node7&#45;&gt;Node8</title>
<g id="a_edge7_Node000007_Node000008"><a xlink:title=" ">
<path fill="none" stroke="#63b8ff" d="M365.88,-115.7C372.74,-113.88 379.97,-112.05 386.75,-110.5 456.94,-94.42 539.86,-79.65 586.07,-71.79"/>
<polygon fill="#63b8ff" stroke="#63b8ff" points="586.49,-75.27 595.77,-70.15 585.33,-68.37 586.49,-75.27"/>
</a>
</g>
</g>
<!-- Node9&#45;&gt;Node8 -->
<g id="edge25_Node000009_Node000008" class="edge">
<title>Node9&#45;&gt;Node8</title>
<g id="a_edge25_Node000009_Node000008"><a xlink:title=" ">
<path fill="none" stroke="#63b8ff" d="M599.86,-246.68C651.22,-240.23 724.82,-227.74 744.75,-207.5 775.31,-176.47 784.34,-145.75 758.75,-110.5 735.78,-78.86 689.78,-69.22 657.45,-66.51"/>
<polygon fill="#63b8ff" stroke="#63b8ff" points="657.93,-63.04 647.73,-65.89 657.49,-70.02 657.93,-63.04"/>
</a>
</g>
</g>
<!-- Node10 -->
<g id="Node000010" class="node">
<title>Node10</title>
<g id="a_Node000010"><a xlink:href="atomic__counter_8hpp.html" target="_top" xlink:title=" ">
<polygon fill="white" stroke="#666666" points="599.62,-207.5 495.87,-207.5 495.87,-177 599.62,-177 599.62,-207.5"/>
<text text-anchor="start" x="503.87" y="-194" font-family="Helvetica,sans-Serif" font-size="10.00">yaclib/util/detail</text>
<text text-anchor="middle" x="547.75" y="-182.75" font-family="Helvetica,sans-Serif" font-size="10.00">/atomic_counter.hpp</text>
</a>
</g>
</g>
<!-- Node9&#45;&gt;Node10 -->
<g id="edge11_Node000009_Node000010" class="edge">
<title>Node9&#45;&gt;Node10</title>
<g id="a_edge11_Node000009_Node000010"><a xlink:title=" ">
<path fill="none" stroke="#63b8ff" d="M547.75,-243.18C547.75,-236.73 547.75,-227.66 547.75,-219.01"/>
<polygon fill="#63b8ff" stroke="#63b8ff" points="551.25,-219.3 547.75,-209.3 544.25,-219.3 551.25,-219.3"/>
</a>
</g>
</g>
<!-- Node13 -->
<g id="Node000013" class="node">
<title>Node13</title>
<g id="a_Node000013"><a xlink:href="unique__counter_8hpp.html" target="_top" xlink:title=" ">
<polygon fill="white" stroke="#666666" points="735.25,-207.5 632.25,-207.5 632.25,-177 735.25,-177 735.25,-207.5"/>
<text text-anchor="start" x="640.25" y="-194" font-family="Helvetica,sans-Serif" font-size="10.00">yaclib/util/detail</text>
<text text-anchor="middle" x="683.75" y="-182.75" font-family="Helvetica,sans-Serif" font-size="10.00">/unique_counter.hpp</text>
</a>
</g>
</g>
<!-- Node9&#45;&gt;Node13 -->
<g id="edge17_Node000009_Node000013" class="edge">
<title>Node9&#45;&gt;Node13</title>
<g id="a_edge17_Node000009_Node000013"><a xlink:title=" ">
<path fill="none" stroke="#63b8ff" d="M568.7,-243.05C587.44,-234.94 615.52,-222.78 639.25,-212.51"/>
<polygon fill="#63b8ff" stroke="#63b8ff" points="640.63,-215.73 648.41,-208.55 637.85,-209.31 640.63,-215.73"/>
</a>
</g>
</g>
<!-- Node9&#45;&gt;Node14 -->
<g id="edge19_Node000009_Node000014" class="edge">
<title>Node9&#45;&gt;Node14</title>
<g id="a_edge19_Node000009_Node000014"><a xlink:title=" ">
<path fill="none" stroke="#63b8ff" d="M511.85,-243.05C475.21,-233.8 417.71,-219.27 374.25,-208.29"/>
<polygon fill="#63b8ff" stroke="#63b8ff" points="375.27,-204.93 364.71,-205.88 373.55,-211.72 375.27,-204.93"/>
</a>
</g>
</g>
<!-- Node10&#45;&gt;Node3 -->
<g id="edge12_Node000010_Node000003" class="edge">
<title>Node10&#45;&gt;Node3</title>
<g id="a_edge12_Node000010_Node000003"><a xlink:title=" ">
<path fill="none" stroke="#63b8ff" d="M523.24,-176.61C505.66,-166.11 482.05,-152.02 464.43,-141.49"/>
<polygon fill="#63b8ff" stroke="#63b8ff" points="466.51,-138.66 456.13,-136.54 462.92,-144.67 466.51,-138.66"/>
</a>
</g>
</g>
<!-- Node10&#45;&gt;Node5 -->
<g id="edge15_Node000010_Node000005" class="edge">
<title>Node10&#45;&gt;Node5</title>
<g id="a_edge15_Node000010_Node000005"><a xlink:title=" ">
<path fill="none" stroke="#63b8ff" d="M495.74,-186.86C380.35,-176.97 109.85,-152.87 69.75,-141 68.94,-140.76 68.13,-140.5 67.32,-140.22"/>
<polygon fill="#63b8ff" stroke="#63b8ff" points="68.98,-137.13 58.42,-136.39 66.22,-143.56 68.98,-137.13"/>
</a>
</g>
</g>
<!-- Node10&#45;&gt;Node8 -->
<g id="edge14_Node000010_Node000008" class="edge">
<title>Node10&#45;&gt;Node8</title>
<g id="a_edge14_Node000010_Node000008"><a xlink:title=" ">
<path fill="none" stroke="#63b8ff" d="M569.15,-176.57C580.71,-167.57 594.31,-155.1 602.75,-141 612.88,-124.06 617.64,-101.85 619.86,-85.98"/>
<polygon fill="#63b8ff" stroke="#63b8ff" points="623.3,-86.68 620.97,-76.34 616.35,-85.87 623.3,-86.68"/>
</a>
</g>
</g>
<!-- Node11 -->
<g id="Node000011" class="node">
<title>Node11</title>
<g id="a_Node000011"><a xlink:href="default__deleter_8hpp.html" target="_top" xlink:title=" ">
<polygon fill="white" stroke="#666666" points="750.12,-141 649.37,-141 649.37,-110.5 750.12,-110.5 750.12,-141"/>
<text text-anchor="start" x="657.37" y="-127.5" font-family="Helvetica,sans-Serif" font-size="10.00">yaclib/util/detail</text>
<text text-anchor="middle" x="699.75" y="-116.25" font-family="Helvetica,sans-Serif" font-size="10.00">/default_deleter.hpp</text>
</a>
</g>
</g>
<!-- Node10&#45;&gt;Node11 -->
<g id="edge13_Node000010_Node000011" class="edge">
<title>Node10&#45;&gt;Node11</title>
<g id="a_edge13_Node000010_Node000011"><a xlink:title=" ">
<path fill="none" stroke="#63b8ff" d="M582.24,-176.61C603.73,-167.49 631.62,-155.66 654.83,-145.81"/>
<polygon fill="#63b8ff" stroke="#63b8ff" points="655.9,-149.16 663.74,-142.03 653.16,-142.72 655.9,-149.16"/>
</a>
</g>
</g>
<!-- Node12 -->
<g id="Node000012" class="node">
<title>Node12</title>
<g id="a_Node000012"><a xlink:title=" ">
<polygon fill="#e0e0e0" stroke="#999999" points="593.62,-135.38 501.87,-135.38 501.87,-116.12 593.62,-116.12 593.62,-135.38"/>
<text text-anchor="middle" x="547.75" y="-121.88" font-family="Helvetica,sans-Serif" font-size="10.00">yaclib_std/atomic</text>
</a>
</g>
</g>
<!-- Node10&#45;&gt;Node12 -->
<g id="edge16_Node000010_Node000012" class="edge">
<title>Node10&#45;&gt;Node12</title>
<g id="a_edge16_Node000010_Node000012"><a xlink:title=" ">
<path fill="none" stroke="#63b8ff" d="M547.75,-176.61C547.75,-167.83 547.75,-156.52 547.75,-146.9"/>
<polygon fill="#63b8ff" stroke="#63b8ff" points="551.25,-147.09 547.75,-137.09 544.25,-147.09 551.25,-147.09"/>
</a>
</g>
</g>
<!-- Node13&#45;&gt;Node11 -->
<g id="edge18_Node000013_Node000011" class="edge">
<title>Node13&#45;&gt;Node11</title>
<g id="a_edge18_Node000013_Node000011"><a xlink:title=" ">
<path fill="none" stroke="#63b8ff" d="M687.38,-176.61C689.16,-169.44 691.35,-160.59 693.4,-152.34"/>
<polygon fill="#63b8ff" stroke="#63b8ff" points="696.76,-153.35 695.77,-142.8 689.96,-151.66 696.76,-153.35"/>
</a>
</g>
</g>
<!-- Node14&#45;&gt;Node4 -->
<g id="edge21_Node000014_Node000004" class="edge">
<title>Node14&#45;&gt;Node4</title>
<g id="a_edge21_Node000014_Node000004"><a xlink:title=" ">
<path fill="none" stroke="#63b8ff" d="M266.22,-177.34C232.99,-167.63 188.02,-154.11 148.75,-141 147.4,-140.55 146.03,-140.09 144.65,-139.61"/>
<polygon fill="#63b8ff" stroke="#63b8ff" points="146.04,-136.39 135.44,-136.36 143.7,-142.99 146.04,-136.39"/>
</a>
</g>
</g>
<!-- Node14&#45;&gt;Node7 -->
<g id="edge20_Node000014_Node000007" class="edge">
<title>Node14&#45;&gt;Node7</title>
<g id="a_edge20_Node000014_Node000007"><a xlink:title=" ">
<path fill="none" stroke="#63b8ff" d="M319.06,-176.61C321.68,-167.73 325.05,-156.27 327.91,-146.58"/>
<polygon fill="#63b8ff" stroke="#63b8ff" points="331.25,-147.61 330.72,-137.02 324.54,-145.63 331.25,-147.61"/>
</a>
</g>
</g>
<!-- Node15 -->
<g id="Node000015" class="node">
<title>Node15</title>
<g id="a_Node000015"><a xlink:href="intrusive__ptr__impl_8hpp.html" target="_top" xlink:title=" ">
<polygon fill="white" stroke="#666666" points="271.5,-141 158,-141 158,-110.5 271.5,-110.5 271.5,-141"/>
<text text-anchor="start" x="166" y="-127.5" font-family="Helvetica,sans-Serif" font-size="10.00">yaclib/util/detail</text>
<text text-anchor="middle" x="214.75" y="-116.25" font-family="Helvetica,sans-Serif" font-size="10.00">/intrusive_ptr_impl.hpp</text>
</a>
</g>
</g>
<!-- Node14&#45;&gt;Node15 -->
<g id="edge22_Node000014_Node000015" class="edge">
<title>Node14&#45;&gt;Node15</title>
<g id="a_edge22_Node000014_Node000015"><a xlink:title=" ">
<path fill="none" stroke="#63b8ff" d="M292.06,-176.61C278.63,-167.95 261.42,-156.85 246.64,-147.32"/>
<polygon fill="#63b8ff" stroke="#63b8ff" points="248.92,-144.63 238.62,-142.15 245.13,-150.51 248.92,-144.63"/>
</a>
</g>
</g>
<!-- Node16 -->
<g id="Node000016" class="node">
<title>Node16</title>
<g id="a_Node000016"><a xlink:href="log_8hpp.html" target="_top" xlink:title=" ">
<polygon fill="white" stroke="#666666" points="252,-74.5 177.5,-74.5 177.5,-55.25 252,-55.25 252,-74.5"/>
<text text-anchor="middle" x="214.75" y="-61" font-family="Helvetica,sans-Serif" font-size="10.00">yaclib/log.hpp</text>
</a>
</g>
</g>
<!-- Node15&#45;&gt;Node16 -->
<g id="edge23_Node000015_Node000016" class="edge">
<title>Node15&#45;&gt;Node16</title>
<g id="a_edge23_Node000015_Node000016"><a xlink:title=" ">
<path fill="none" stroke="#63b8ff" d="M214.75,-110.2C214.75,-102.96 214.75,-94.09 214.75,-86.19"/>
<polygon fill="#63b8ff" stroke="#63b8ff" points="218.25,-86.46 214.75,-76.46 211.25,-86.46 218.25,-86.46"/>
</a>
</g>
</g>
<!-- Node17 -->
<g id="Node000017" class="node">
<title>Node17</title>
<g id="a_Node000017"><a xlink:title=" ">
<polygon fill="#e0e0e0" stroke="#999999" points="247.5,-19.25 182,-19.25 182,0 247.5,0 247.5,-19.25"/>
<text text-anchor="middle" x="214.75" y="-5.75" font-family="Helvetica,sans-Serif" font-size="10.00">string_view</text>
</a>
</g>
</g>
<!-- Node16&#45;&gt;Node17 -->
<g id="edge24_Node000016_Node000017" class="edge">
<title>Node16&#45;&gt;Node17</title>
<g id="a_edge24_Node000016_Node000017"><a xlink:title=" ">
<path fill="none" stroke="#63b8ff" d="M214.75,-55.08C214.75,-48.57 214.75,-39.42 214.75,-31.12"/>
<polygon fill="#63b8ff" stroke="#63b8ff" points="218.25,-31.12 214.75,-21.12 211.25,-31.12 218.25,-31.12"/>
</a>
</g>
</g>
</g>
</svg>
