<?xml version="1.0" encoding="UTF-8" standalone="no"?>
<!DOCTYPE svg PUBLIC "-//W3C//DTD SVG 1.1//EN"
 "http://www.w3.org/Graphics/SVG/1.1/DTD/svg11.dtd">
<!-- Generated by graphviz version 9.0.0 (20230911.1827)
 -->
<!-- Title: include/yaclib/async/shared_contract.hpp Pages: 1 -->
<svg width="1492pt" height="670pt"
 viewBox="0.00 0.00 1492.16 669.75" xmlns="http://www.w3.org/2000/svg" xmlns:xlink="http://www.w3.org/1999/xlink">
<g id="graph0" class="graph" transform="scale(1 1) rotate(0) translate(4 665.75)">
<title>include/yaclib/async/shared_contract.hpp</title>
<!-- Node1 -->
<g id="Node000001" class="node">
<title>Node1</title>
<g id="a_Node000001"><a xlink:title=" ">
<polygon fill="#999999" stroke="#666666" points="553,-661.75 446.25,-661.75 446.25,-631.25 553,-631.25 553,-661.75"/>
<text text-anchor="start" x="454.25" y="-648.25" font-family="Helvetica,sans-Serif" font-size="10.00">include/yaclib/async</text>
<text text-anchor="middle" x="499.62" y="-637" font-family="Helvetica,sans-Serif" font-size="10.00">/shared_contract.hpp</text>
</a>
</g>
</g>
<!-- Node2 -->
<g id="Node000002" class="node">
<title>Node2</title>
<g id="a_Node000002"><a xlink:href="shared__future_8hpp.html" target="_top" xlink:title=" ">
<polygon fill="white" stroke="#666666" points="391.38,-595.25 289.88,-595.25 289.88,-564.75 391.38,-564.75 391.38,-595.25"/>
<text text-anchor="start" x="297.88" y="-581.75" font-family="Helvetica,sans-Serif" font-size="10.00">yaclib/async/shared</text>
<text text-anchor="middle" x="340.62" y="-570.5" font-family="Helvetica,sans-Serif" font-size="10.00">_future.hpp</text>
</a>
</g>
</g>
<!-- Node1&#45;&gt;Node2 -->
<g id="edge1_Node000001_Node000002" class="edge">
<title>Node1&#45;&gt;Node2</title>
<g id="a_edge1_Node000001_Node000002"><a xlink:title=" ">
<path fill="none" stroke="#63b8ff" d="M463.55,-630.86C440.96,-621.7 411.63,-609.8 387.28,-599.93"/>
<polygon fill="#63b8ff" stroke="#63b8ff" points="388.82,-596.77 378.24,-596.26 386.19,-603.26 388.82,-596.77"/>
</a>
</g>
</g>
<!-- Node16 -->
<g id="Node000016" class="node">
<title>Node16</title>
<g id="a_Node000016"><a xlink:title=" ">
<polygon fill="#e0e0e0" stroke="#999999" points="558.88,-74.5 520.38,-74.5 520.38,-55.25 558.88,-55.25 558.88,-74.5"/>
<text text-anchor="middle" x="539.62" y="-61" font-family="Helvetica,sans-Serif" font-size="10.00">utility</text>
</a>
</g>
</g>
<!-- Node1&#45;&gt;Node16 -->
<g id="edge58_Node000001_Node000016" class="edge">
<title>Node1&#45;&gt;Node16</title>
<g id="a_edge58_Node000001_Node000016"><a xlink:title=" ">
<path fill="none" stroke="#63b8ff" d="M507.15,-631.01C518.74,-607.31 539.62,-558.49 539.62,-514.5 539.62,-514.5 539.62,-514.5 539.62,-191.25 539.62,-154.35 539.62,-111.34 539.62,-86.49"/>
<polygon fill="#63b8ff" stroke="#63b8ff" points="543.13,-86.51 539.63,-76.51 536.13,-86.51 543.13,-86.51"/>
</a>
</g>
</g>
<!-- Node31 -->
<g id="Node000031" class="node">
<title>Node31</title>
<g id="a_Node000031"><a xlink:href="shared__promise_8hpp.html" target="_top" xlink:title=" ">
<polygon fill="white" stroke="#666666" points="511.38,-595.25 409.88,-595.25 409.88,-564.75 511.38,-564.75 511.38,-595.25"/>
<text text-anchor="start" x="417.88" y="-581.75" font-family="Helvetica,sans-Serif" font-size="10.00">yaclib/async/shared</text>
<text text-anchor="middle" x="460.62" y="-570.5" font-family="Helvetica,sans-Serif" font-size="10.00">_promise.hpp</text>
</a>
</g>
</g>
<!-- Node1&#45;&gt;Node31 -->
<g id="edge45_Node000001_Node000031" class="edge">
<title>Node1&#45;&gt;Node31</title>
<g id="a_edge45_Node000001_Node000031"><a xlink:title=" ">
<path fill="none" stroke="#63b8ff" d="M490.78,-630.86C486.19,-623.28 480.47,-613.81 475.24,-605.18"/>
<polygon fill="#63b8ff" stroke="#63b8ff" points="478.39,-603.62 470.22,-596.87 472.4,-607.24 478.39,-603.62"/>
</a>
</g>
</g>
<!-- Node32 -->
<g id="Node000032" class="node">
<title>Node32</title>
<g id="a_Node000032"><a xlink:href="helper_8hpp.html" target="_top" xlink:title=" ">
<polygon fill="white" stroke="#666666" points="1336.5,-268.38 1232.75,-268.38 1232.75,-249.12 1336.5,-249.12 1336.5,-268.38"/>
<text text-anchor="middle" x="1284.62" y="-254.88" font-family="Helvetica,sans-Serif" font-size="10.00">yaclib/util/helper.hpp</text>
</a>
</g>
</g>
<!-- Node1&#45;&gt;Node32 -->
<g id="edge47_Node000001_Node000032" class="edge">
<title>Node1&#45;&gt;Node32</title>
<g id="a_edge47_Node000001_Node000032"><a xlink:title=" ">
<path fill="none" stroke="#63b8ff" d="M553.44,-641.67C723.73,-628.84 1239.62,-584.22 1239.62,-514.5 1239.62,-514.5 1239.62,-514.5 1239.62,-379.5 1239.62,-341.71 1259.51,-301.25 1272.84,-278.37"/>
<polygon fill="#63b8ff" stroke="#63b8ff" points="1275.76,-280.29 1277.96,-269.93 1269.78,-276.66 1275.76,-280.29"/>
</a>
</g>
</g>
<!-- Node3 -->
<g id="Node000003" class="node">
<title>Node3</title>
<g id="a_Node000003"><a xlink:href="shared__core_8hpp.html" target="_top" xlink:title=" ">
<polygon fill="white" stroke="#666666" points="488.75,-528.75 398.5,-528.75 398.5,-498.25 488.75,-498.25 488.75,-528.75"/>
<text text-anchor="start" x="406.5" y="-515.25" font-family="Helvetica,sans-Serif" font-size="10.00">yaclib/algo/detail</text>
<text text-anchor="middle" x="443.62" y="-504" font-family="Helvetica,sans-Serif" font-size="10.00">/shared_core.hpp</text>
</a>
</g>
</g>
<!-- Node2&#45;&gt;Node3 -->
<g id="edge2_Node000002_Node000003" class="edge">
<title>Node2&#45;&gt;Node3</title>
<g id="a_edge2_Node000002_Node000003"><a xlink:title=" ">
<path fill="none" stroke="#63b8ff" d="M364,-564.36C377.82,-555.7 395.56,-544.6 410.77,-535.07"/>
<polygon fill="#63b8ff" stroke="#63b8ff" points="412.44,-538.16 419.06,-529.88 408.73,-532.22 412.44,-538.16"/>
</a>
</g>
</g>
<!-- Node4 -->
<g id="Node000004" class="node">
<title>Node4</title>
<g id="a_Node000004"><a xlink:href="result__core_8hpp.html" target="_top" xlink:title=" ">
<polygon fill="white" stroke="#666666" points="487.62,-462.25 399.62,-462.25 399.62,-431.75 487.62,-431.75 487.62,-462.25"/>
<text text-anchor="start" x="407.62" y="-448.75" font-family="Helvetica,sans-Serif" font-size="10.00">yaclib/algo/detail</text>
<text text-anchor="middle" x="443.62" y="-437.5" font-family="Helvetica,sans-Serif" font-size="10.00">/result_core.hpp</text>
</a>
</g>
</g>
<!-- Node3&#45;&gt;Node4 -->
<g id="edge3_Node000003_Node000004" class="edge">
<title>Node3&#45;&gt;Node4</title>
<g id="a_edge3_Node000003_Node000004"><a xlink:title=" ">
<path fill="none" stroke="#63b8ff" d="M443.62,-497.86C443.62,-490.77 443.62,-482.04 443.62,-473.88"/>
<polygon fill="#63b8ff" stroke="#63b8ff" points="447.13,-474.09 443.63,-464.09 440.13,-474.09 447.13,-474.09"/>
</a>
</g>
</g>
<!-- Node5 -->
<g id="Node000005" class="node">
<title>Node5</title>
<g id="a_Node000005"><a xlink:href="base__core_8hpp.html" target="_top" xlink:title=" ">
<polygon fill="white" stroke="#666666" points="792.62,-395.75 704.62,-395.75 704.62,-365.25 792.62,-365.25 792.62,-395.75"/>
<text text-anchor="start" x="712.62" y="-382.25" font-family="Helvetica,sans-Serif" font-size="10.00">yaclib/algo/detail</text>
<text text-anchor="middle" x="748.62" y="-371" font-family="Helvetica,sans-Serif" font-size="10.00">/base_core.hpp</text>
</a>
</g>
</g>
<!-- Node4&#45;&gt;Node5 -->
<g id="edge4_Node000004_Node000005" class="edge">
<title>Node4&#45;&gt;Node5</title>
<g id="a_edge4_Node000004_Node000005"><a xlink:title=" ">
<path fill="none" stroke="#63b8ff" d="M487.97,-436.62C542.3,-425.13 634.35,-405.67 693.26,-393.21"/>
<polygon fill="#63b8ff" stroke="#63b8ff" points="693.68,-396.7 702.74,-391.2 692.23,-389.85 693.68,-396.7"/>
</a>
</g>
</g>
<!-- Node24 -->
<g id="Node000024" class="node">
<title>Node24</title>
<g id="a_Node000024"><a xlink:href="cast_8hpp.html" target="_top" xlink:title=" ">
<polygon fill="white" stroke="#666666" points="491.75,-390.12 395.5,-390.12 395.5,-370.88 491.75,-370.88 491.75,-390.12"/>
<text text-anchor="middle" x="443.62" y="-376.62" font-family="Helvetica,sans-Serif" font-size="10.00">yaclib/util/cast.hpp</text>
</a>
</g>
</g>
<!-- Node4&#45;&gt;Node24 -->
<g id="edge29_Node000004_Node000024" class="edge">
<title>Node4&#45;&gt;Node24</title>
<g id="a_edge29_Node000004_Node000024"><a xlink:title=" ">
<path fill="none" stroke="#63b8ff" d="M443.62,-431.36C443.62,-422.58 443.62,-411.27 443.62,-401.65"/>
<polygon fill="#63b8ff" stroke="#63b8ff" points="447.13,-401.84 443.63,-391.84 440.13,-401.84 447.13,-401.84"/>
</a>
</g>
</g>
<!-- Node26 -->
<g id="Node000026" class="node">
<title>Node26</title>
<g id="a_Node000026"><a xlink:href="result_8hpp.html" target="_top" xlink:title=" ">
<polygon fill="white" stroke="#666666" points="255.38,-268.38 153.88,-268.38 153.88,-249.12 255.38,-249.12 255.38,-268.38"/>
<text text-anchor="middle" x="204.62" y="-254.88" font-family="Helvetica,sans-Serif" font-size="10.00">yaclib/util/result.hpp</text>
</a>
</g>
</g>
<!-- Node4&#45;&gt;Node26 -->
<g id="edge32_Node000004_Node000026" class="edge">
<title>Node4&#45;&gt;Node26</title>
<g id="a_edge32_Node000004_Node000026"><a xlink:title=" ">
<path fill="none" stroke="#63b8ff" d="M424.87,-431.39C380.79,-397.03 270.85,-311.36 225.1,-275.71"/>
<polygon fill="#63b8ff" stroke="#63b8ff" points="227.36,-273.03 217.32,-269.64 223.05,-278.55 227.36,-273.03"/>
</a>
</g>
</g>
<!-- Node6 -->
<g id="Node000006" class="node">
<title>Node6</title>
<g id="a_Node000006"><a xlink:href="inline__core_8hpp.html" target="_top" xlink:title=" ">
<polygon fill="white" stroke="#666666" points="914.62,-274 826.62,-274 826.62,-243.5 914.62,-243.5 914.62,-274"/>
<text text-anchor="start" x="834.62" y="-260.5" font-family="Helvetica,sans-Serif" font-size="10.00">yaclib/algo/detail</text>
<text text-anchor="middle" x="870.62" y="-249.25" font-family="Helvetica,sans-Serif" font-size="10.00">/inline_core.hpp</text>
</a>
</g>
</g>
<!-- Node5&#45;&gt;Node6 -->
<g id="edge5_Node000005_Node000006" class="edge">
<title>Node5&#45;&gt;Node6</title>
<g id="a_edge5_Node000005_Node000006"><a xlink:title=" ">
<path fill="none" stroke="#63b8ff" d="M763.58,-364.82C784.64,-344.15 823.21,-306.29 847.84,-282.11"/>
<polygon fill="#63b8ff" stroke="#63b8ff" points="850.16,-284.74 854.84,-275.24 845.26,-279.75 850.16,-284.74"/>
</a>
</g>
</g>
<!-- Node17 -->
<g id="Node000017" class="node">
<title>Node17</title>
<g id="a_Node000017"><a xlink:href="executor_8hpp.html" target="_top" xlink:title=" ">
<polygon fill="white" stroke="#666666" points="808.88,-268.38 692.38,-268.38 692.38,-249.12 808.88,-249.12 808.88,-268.38"/>
<text text-anchor="middle" x="750.62" y="-254.88" font-family="Helvetica,sans-Serif" font-size="10.00">yaclib/exe/executor.hpp</text>
</a>
</g>
</g>
<!-- Node5&#45;&gt;Node17 -->
<g id="edge17_Node000005_Node000017" class="edge">
<title>Node5&#45;&gt;Node17</title>
<g id="a_edge17_Node000005_Node000017"><a xlink:title=" ">
<path fill="none" stroke="#63b8ff" d="M750.45,-365.02C751.62,-354.99 753.03,-341.33 753.62,-329.25 754.45,-312.63 753.52,-293.76 752.48,-279.88"/>
<polygon fill="#63b8ff" stroke="#63b8ff" points="756,-279.93 751.67,-270.26 749.02,-280.51 756,-279.93"/>
</a>
</g>
</g>
<!-- Node20 -->
<g id="Node000020" class="node">
<title>Node20</title>
<g id="a_Node000020"><a xlink:href="inline_8hpp.html" target="_top" xlink:title=" ">
<polygon fill="white" stroke="#666666" points="686.75,-329.25 584.5,-329.25 584.5,-310 686.75,-310 686.75,-329.25"/>
<text text-anchor="middle" x="635.62" y="-315.75" font-family="Helvetica,sans-Serif" font-size="10.00">yaclib/exe/inline.hpp</text>
</a>
</g>
</g>
<!-- Node5&#45;&gt;Node20 -->
<g id="edge24_Node000005_Node000020" class="edge">
<title>Node5&#45;&gt;Node20</title>
<g id="a_edge24_Node000005_Node000020"><a xlink:title=" ">
<path fill="none" stroke="#63b8ff" d="M720.4,-364.8C702.86,-355.66 680.42,-343.97 663.04,-334.91"/>
<polygon fill="#63b8ff" stroke="#63b8ff" points="664.78,-331.87 654.3,-330.35 661.55,-338.08 664.78,-331.87"/>
</a>
</g>
</g>
<!-- Node22 -->
<g id="Node000022" class="node">
<title>Node22</title>
<g id="a_Node000022"><a xlink:title=" ">
<polygon fill="#e0e0e0" stroke="#999999" points="744.25,-329.25 705,-329.25 705,-310 744.25,-310 744.25,-329.25"/>
<text text-anchor="middle" x="724.62" y="-315.75" font-family="Helvetica,sans-Serif" font-size="10.00">limits</text>
</a>
</g>
</g>
<!-- Node5&#45;&gt;Node22 -->
<g id="edge27_Node000005_Node000022" class="edge">
<title>Node5&#45;&gt;Node22</title>
<g id="a_edge27_Node000005_Node000022"><a xlink:title=" ">
<path fill="none" stroke="#63b8ff" d="M742.69,-364.95C739.64,-357.45 735.87,-348.2 732.56,-340.1"/>
<polygon fill="#63b8ff" stroke="#63b8ff" points="735.91,-339.04 728.9,-331.1 729.43,-341.68 735.91,-339.04"/>
</a>
</g>
</g>
<!-- Node23 -->
<g id="Node000023" class="node">
<title>Node23</title>
<g id="a_Node000023"><a xlink:title=" ">
<polygon fill="#e0e0e0" stroke="#999999" points="1263.5,-135.38 1171.75,-135.38 1171.75,-116.12 1263.5,-116.12 1263.5,-135.38"/>
<text text-anchor="middle" x="1217.62" y="-121.88" font-family="Helvetica,sans-Serif" font-size="10.00">yaclib_std/atomic</text>
</a>
</g>
</g>
<!-- Node5&#45;&gt;Node23 -->
<g id="edge28_Node000005_Node000023" class="edge">
<title>Node5&#45;&gt;Node23</title>
<g id="a_edge28_Node000005_Node000023"><a xlink:title=" ">
<path fill="none" stroke="#63b8ff" d="M775.87,-364.82C858.94,-320.05 1108.4,-185.61 1190.85,-141.18"/>
<polygon fill="#63b8ff" stroke="#63b8ff" points="1192.44,-144.3 1199.58,-136.48 1189.12,-138.14 1192.44,-144.3"/>
</a>
</g>
</g>
<!-- Node7 -->
<g id="Node000007" class="node">
<title>Node7</title>
<g id="a_Node000007"><a xlink:title=" ">
<polygon fill="#e0e0e0" stroke="#999999" points="1153.25,-135.38 1066,-135.38 1066,-116.12 1153.25,-116.12 1153.25,-135.38"/>
<text text-anchor="middle" x="1109.62" y="-121.88" font-family="Helvetica,sans-Serif" font-size="10.00">yaclib/config.hpp</text>
</a>
</g>
</g>
<!-- Node6&#45;&gt;Node7 -->
<g id="edge6_Node000006_Node000007" class="edge">
<title>Node6&#45;&gt;Node7</title>
<g id="a_edge6_Node000006_Node000007"><a xlink:title=" ">
<path fill="none" stroke="#63b8ff" d="M914.83,-245.89C942.99,-237.36 979.67,-224.38 1009.62,-207.5 1041.54,-189.52 1073.64,-161.4 1092.56,-143.53"/>
<polygon fill="#63b8ff" stroke="#63b8ff" points="1094.86,-146.18 1099.65,-136.73 1090.01,-141.13 1094.86,-146.18"/>
</a>
</g>
</g>
<!-- Node8 -->
<g id="Node000008" class="node">
<title>Node8</title>
<g id="a_Node000008"><a xlink:href="job_8hpp.html" target="_top" xlink:title=" ">
<polygon fill="white" stroke="#666666" points="799.88,-201.88 707.38,-201.88 707.38,-182.62 799.88,-182.62 799.88,-201.88"/>
<text text-anchor="middle" x="753.62" y="-188.38" font-family="Helvetica,sans-Serif" font-size="10.00">yaclib/exe/job.hpp</text>
</a>
</g>
</g>
<!-- Node6&#45;&gt;Node8 -->
<g id="edge7_Node000006_Node000008" class="edge">
<title>Node6&#45;&gt;Node8</title>
<g id="a_edge7_Node000006_Node000008"><a xlink:title=" ">
<path fill="none" stroke="#63b8ff" d="M844.08,-243.11C824.85,-232.51 798.98,-218.25 779.83,-207.7"/>
<polygon fill="#63b8ff" stroke="#63b8ff" points="781.74,-204.75 771.29,-202.99 778.36,-210.88 781.74,-204.75"/>
</a>
</g>
</g>
<!-- Node9 -->
<g id="Node000009" class="node">
<title>Node9</title>
<g id="a_Node000009"><a xlink:href="log_8hpp.html" target="_top" xlink:title=" ">
<polygon fill="white" stroke="#666666" points="904.88,-74.5 830.38,-74.5 830.38,-55.25 904.88,-55.25 904.88,-74.5"/>
<text text-anchor="middle" x="867.62" y="-61" font-family="Helvetica,sans-Serif" font-size="10.00">yaclib/log.hpp</text>
</a>
</g>
</g>
<!-- Node6&#45;&gt;Node9 -->
<g id="edge16_Node000006_Node000009" class="edge">
<title>Node6&#45;&gt;Node9</title>
<g id="a_edge16_Node000006_Node000009"><a xlink:title=" ">
<path fill="none" stroke="#63b8ff" d="M870.39,-243.01C869.86,-208.95 868.55,-124.74 867.94,-85.98"/>
<polygon fill="#63b8ff" stroke="#63b8ff" points="871.44,-86.18 867.79,-76.23 864.44,-86.29 871.44,-86.18"/>
</a>
</g>
</g>
<!-- Node8&#45;&gt;Node9 -->
<g id="edge8_Node000008_Node000009" class="edge">
<title>Node8&#45;&gt;Node9</title>
<g id="a_edge8_Node000008_Node000009"><a xlink:title=" ">
<path fill="none" stroke="#63b8ff" d="M765.15,-182.23C777.12,-172.62 796.08,-156.66 810.62,-141 827.63,-122.7 844.61,-99.53 855.56,-83.79"/>
<polygon fill="#63b8ff" stroke="#63b8ff" points="858.2,-86.13 860.96,-75.9 852.43,-82.17 858.2,-86.13"/>
</a>
</g>
</g>
<!-- Node11 -->
<g id="Node000011" class="node">
<title>Node11</title>
<g id="a_Node000011"><a xlink:href="node_8hpp.html" target="_top" xlink:title=" ">
<polygon fill="white" stroke="#666666" points="650,-141 567.25,-141 567.25,-110.5 650,-110.5 650,-141"/>
<text text-anchor="start" x="575.25" y="-127.5" font-family="Helvetica,sans-Serif" font-size="10.00">yaclib/util/detail</text>
<text text-anchor="middle" x="608.62" y="-116.25" font-family="Helvetica,sans-Serif" font-size="10.00">/node.hpp</text>
</a>
</g>
</g>
<!-- Node8&#45;&gt;Node11 -->
<g id="edge10_Node000008_Node000011" class="edge">
<title>Node8&#45;&gt;Node11</title>
<g id="a_edge10_Node000008_Node000011"><a xlink:title=" ">
<path fill="none" stroke="#63b8ff" d="M733.16,-182.15C712.14,-172.8 678.79,-157.96 651.88,-145.99"/>
<polygon fill="#63b8ff" stroke="#63b8ff" points="653.5,-142.88 642.94,-142.01 650.65,-149.28 653.5,-142.88"/>
</a>
</g>
</g>
<!-- Node12 -->
<g id="Node000012" class="node">
<title>Node12</title>
<g id="a_Node000012"><a xlink:href="func_8hpp.html" target="_top" xlink:title=" ">
<polygon fill="white" stroke="#666666" points="801.75,-135.38 705.5,-135.38 705.5,-116.12 801.75,-116.12 801.75,-135.38"/>
<text text-anchor="middle" x="753.62" y="-121.88" font-family="Helvetica,sans-Serif" font-size="10.00">yaclib/util/func.hpp</text>
</a>
</g>
</g>
<!-- Node8&#45;&gt;Node12 -->
<g id="edge11_Node000008_Node000012" class="edge">
<title>Node8&#45;&gt;Node12</title>
<g id="a_edge11_Node000008_Node000012"><a xlink:title=" ">
<path fill="none" stroke="#63b8ff" d="M753.62,-182.28C753.62,-173.23 753.62,-158.95 753.62,-147.13"/>
<polygon fill="#63b8ff" stroke="#63b8ff" points="757.13,-147.16 753.63,-137.16 750.13,-147.16 757.13,-147.16"/>
</a>
</g>
</g>
<!-- Node10 -->
<g id="Node000010" class="node">
<title>Node10</title>
<g id="a_Node000010"><a xlink:title=" ">
<polygon fill="#e0e0e0" stroke="#999999" points="900.38,-19.25 834.88,-19.25 834.88,0 900.38,0 900.38,-19.25"/>
<text text-anchor="middle" x="867.62" y="-5.75" font-family="Helvetica,sans-Serif" font-size="10.00">string_view</text>
</a>
</g>
</g>
<!-- Node9&#45;&gt;Node10 -->
<g id="edge9_Node000009_Node000010" class="edge">
<title>Node9&#45;&gt;Node10</title>
<g id="a_edge9_Node000009_Node000010"><a xlink:title=" ">
<path fill="none" stroke="#63b8ff" d="M867.62,-55.08C867.62,-48.57 867.62,-39.42 867.62,-31.12"/>
<polygon fill="#63b8ff" stroke="#63b8ff" points="871.13,-31.12 867.63,-21.12 864.13,-31.12 871.13,-31.12"/>
</a>
</g>
</g>
<!-- Node13 -->
<g id="Node000013" class="node">
<title>Node13</title>
<g id="a_Node000013"><a xlink:href="ref_8hpp.html" target="_top" xlink:title=" ">
<polygon fill="white" stroke="#666666" points="1082,-74.5 993.25,-74.5 993.25,-55.25 1082,-55.25 1082,-74.5"/>
<text text-anchor="middle" x="1037.62" y="-61" font-family="Helvetica,sans-Serif" font-size="10.00">yaclib/util/ref.hpp</text>
</a>
</g>
</g>
<!-- Node12&#45;&gt;Node13 -->
<g id="edge12_Node000012_Node000013" class="edge">
<title>Node12&#45;&gt;Node13</title>
<g id="a_edge12_Node000012_Node000013"><a xlink:title=" ">
<path fill="none" stroke="#63b8ff" d="M797.38,-115.68C847.2,-105.35 928.68,-88.46 982.73,-77.26"/>
<polygon fill="#63b8ff" stroke="#63b8ff" points="983.26,-80.72 992.34,-75.26 981.84,-73.87 983.26,-80.72"/>
</a>
</g>
</g>
<!-- Node15 -->
<g id="Node000015" class="node">
<title>Node15</title>
<g id="a_Node000015"><a xlink:title=" ">
<polygon fill="#e0e0e0" stroke="#999999" points="456.12,-74.5 395.12,-74.5 395.12,-55.25 456.12,-55.25 456.12,-74.5"/>
<text text-anchor="middle" x="425.62" y="-61" font-family="Helvetica,sans-Serif" font-size="10.00">type_traits</text>
</a>
</g>
</g>
<!-- Node12&#45;&gt;Node15 -->
<g id="edge14_Node000012_Node000015" class="edge">
<title>Node12&#45;&gt;Node15</title>
<g id="a_edge14_Node000012_Node000015"><a xlink:title=" ">
<path fill="none" stroke="#63b8ff" d="M715.67,-115.65C707.74,-113.85 699.42,-112.05 691.62,-110.5 612.84,-94.85 520.22,-80.14 467.67,-72.13"/>
<polygon fill="#63b8ff" stroke="#63b8ff" points="468.36,-68.7 457.95,-70.66 467.31,-75.62 468.36,-68.7"/>
</a>
</g>
</g>
<!-- Node12&#45;&gt;Node16 -->
<g id="edge15_Node000012_Node000016" class="edge">
<title>Node12&#45;&gt;Node16</title>
<g id="a_edge15_Node000012_Node000016"><a xlink:title=" ">
<path fill="none" stroke="#63b8ff" d="M720.66,-115.68C679.57,-104.38 609.93,-85.22 570.06,-74.25"/>
<polygon fill="#63b8ff" stroke="#63b8ff" points="571.21,-70.94 560.64,-71.66 569.36,-77.68 571.21,-70.94"/>
</a>
</g>
</g>
<!-- Node14 -->
<g id="Node000014" class="node">
<title>Node14</title>
<g id="a_Node000014"><a xlink:title=" ">
<polygon fill="#e0e0e0" stroke="#999999" points="1353.75,-19.25 1305.5,-19.25 1305.5,0 1353.75,0 1353.75,-19.25"/>
<text text-anchor="middle" x="1329.62" y="-5.75" font-family="Helvetica,sans-Serif" font-size="10.00">cstddef</text>
</a>
</g>
</g>
<!-- Node13&#45;&gt;Node14 -->
<g id="edge13_Node000013_Node000014" class="edge">
<title>Node13&#45;&gt;Node14</title>
<g id="a_edge13_Node000013_Node000014"><a xlink:title=" ">
<path fill="none" stroke="#63b8ff" d="M1082.29,-55.73C1140.37,-45.14 1240.65,-26.85 1293.93,-17.13"/>
<polygon fill="#63b8ff" stroke="#63b8ff" points="1294.48,-20.59 1303.69,-15.35 1293.22,-13.71 1294.48,-20.59"/>
</a>
</g>
</g>
<!-- Node17&#45;&gt;Node8 -->
<g id="edge18_Node000017_Node000008" class="edge">
<title>Node17&#45;&gt;Node8</title>
<g id="a_edge18_Node000017_Node000008"><a xlink:title=" ">
<path fill="none" stroke="#63b8ff" d="M751.04,-248.78C751.46,-239.73 752.13,-225.45 752.68,-213.63"/>
<polygon fill="#63b8ff" stroke="#63b8ff" points="756.17,-213.81 753.14,-203.65 749.18,-213.48 756.17,-213.81"/>
</a>
</g>
</g>
<!-- Node18 -->
<g id="Node000018" class="node">
<title>Node18</title>
<g id="a_Node000018"><a xlink:href="intrusive__ptr_8hpp.html" target="_top" xlink:title=" ">
<polygon fill="white" stroke="#666666" points="1000.75,-207.5 904.5,-207.5 904.5,-177 1000.75,-177 1000.75,-207.5"/>
<text text-anchor="start" x="912.5" y="-194" font-family="Helvetica,sans-Serif" font-size="10.00">yaclib/util/intrusive</text>
<text text-anchor="middle" x="952.62" y="-182.75" font-family="Helvetica,sans-Serif" font-size="10.00">_ptr.hpp</text>
</a>
</g>
</g>
<!-- Node17&#45;&gt;Node18 -->
<g id="edge19_Node000017_Node000018" class="edge">
<title>Node17&#45;&gt;Node18</title>
<g id="a_edge19_Node000017_Node000018"><a xlink:title=" ">
<path fill="none" stroke="#63b8ff" d="M779.14,-248.65C809.33,-239.01 857.78,-223.53 895.82,-211.39"/>
<polygon fill="#63b8ff" stroke="#63b8ff" points="896.84,-214.74 905.31,-208.36 894.71,-208.07 896.84,-214.74"/>
</a>
</g>
</g>
<!-- Node18&#45;&gt;Node13 -->
<g id="edge20_Node000018_Node000013" class="edge">
<title>Node18&#45;&gt;Node13</title>
<g id="a_edge20_Node000018_Node000013"><a xlink:title=" ">
<path fill="none" stroke="#63b8ff" d="M979.65,-176.62C993.24,-167.96 1008.86,-155.78 1018.62,-141 1029.51,-124.53 1034.16,-102.25 1036.14,-86.24"/>
<polygon fill="#63b8ff" stroke="#63b8ff" points="1039.61,-86.77 1037.09,-76.48 1032.64,-86.09 1039.61,-86.77"/>
</a>
</g>
</g>
<!-- Node18&#45;&gt;Node15 -->
<g id="edge21_Node000018_Node000015" class="edge">
<title>Node18&#45;&gt;Node15</title>
<g id="a_edge21_Node000018_Node000015"><a xlink:title=" ">
<path fill="none" stroke="#63b8ff" d="M904.27,-188.66C851.15,-184.27 764.4,-172.5 696.62,-141 676.99,-131.87 678.28,-119.58 658.62,-110.5 625.31,-95.11 525.45,-79.52 467.85,-71.47"/>
<polygon fill="#63b8ff" stroke="#63b8ff" points="468.47,-68.02 458.08,-70.12 467.51,-74.95 468.47,-68.02"/>
</a>
</g>
</g>
<!-- Node19 -->
<g id="Node000019" class="node">
<title>Node19</title>
<g id="a_Node000019"><a xlink:href="intrusive__ptr__impl_8hpp.html" target="_top" xlink:title=" ">
<polygon fill="white" stroke="#666666" points="1009.38,-141 895.88,-141 895.88,-110.5 1009.38,-110.5 1009.38,-141"/>
<text text-anchor="start" x="903.88" y="-127.5" font-family="Helvetica,sans-Serif" font-size="10.00">yaclib/util/detail</text>
<text text-anchor="middle" x="952.62" y="-116.25" font-family="Helvetica,sans-Serif" font-size="10.00">/intrusive_ptr_impl.hpp</text>
</a>
</g>
</g>
<!-- Node18&#45;&gt;Node19 -->
<g id="edge22_Node000018_Node000019" class="edge">
<title>Node18&#45;&gt;Node19</title>
<g id="a_edge22_Node000018_Node000019"><a xlink:title=" ">
<path fill="none" stroke="#63b8ff" d="M952.62,-176.61C952.62,-169.52 952.62,-160.79 952.62,-152.63"/>
<polygon fill="#63b8ff" stroke="#63b8ff" points="956.13,-152.84 952.63,-142.84 949.13,-152.84 956.13,-152.84"/>
</a>
</g>
</g>
<!-- Node19&#45;&gt;Node9 -->
<g id="edge23_Node000019_Node000009" class="edge">
<title>Node19&#45;&gt;Node9</title>
<g id="a_edge23_Node000019_Node000009"><a xlink:title=" ">
<path fill="none" stroke="#63b8ff" d="M931.61,-110.2C918.92,-101.4 902.76,-90.21 889.85,-81.27"/>
<polygon fill="#63b8ff" stroke="#63b8ff" points="892.19,-78.63 881.97,-75.81 888.2,-84.38 892.19,-78.63"/>
</a>
</g>
</g>
<!-- Node20&#45;&gt;Node17 -->
<g id="edge25_Node000020_Node000017" class="edge">
<title>Node20&#45;&gt;Node17</title>
<g id="a_edge25_Node000020_Node000017"><a xlink:title=" ">
<path fill="none" stroke="#63b8ff" d="M653.09,-309.68C671.67,-300.17 701.31,-285 723.04,-273.87"/>
<polygon fill="#63b8ff" stroke="#63b8ff" points="724.34,-277.14 731.65,-269.47 721.15,-270.91 724.34,-277.14"/>
</a>
</g>
</g>
<!-- Node21 -->
<g id="Node000021" class="node">
<title>Node21</title>
<g id="a_Node000021"><a xlink:href="fwd_8hpp.html" target="_top" xlink:title=" ">
<polygon fill="white" stroke="#666666" points="245.38,-74.5 167.88,-74.5 167.88,-55.25 245.38,-55.25 245.38,-74.5"/>
<text text-anchor="middle" x="206.62" y="-61" font-family="Helvetica,sans-Serif" font-size="10.00">yaclib/fwd.hpp</text>
</a>
</g>
</g>
<!-- Node20&#45;&gt;Node21 -->
<g id="edge26_Node000020_Node000021" class="edge">
<title>Node20&#45;&gt;Node21</title>
<g id="a_edge26_Node000020_Node000021"><a xlink:title=" ">
<path fill="none" stroke="#63b8ff" d="M617.77,-309.5C571.95,-286.22 446.24,-223.18 338.62,-177 297.51,-159.36 277.84,-170.97 244.62,-141 228.03,-126.03 217.71,-102.14 212.08,-85.33"/>
<polygon fill="#63b8ff" stroke="#63b8ff" points="215.5,-84.56 209.23,-76.02 208.81,-86.6 215.5,-84.56"/>
</a>
</g>
</g>
<!-- Node24&#45;&gt;Node15 -->
<g id="edge31_Node000024_Node000015" class="edge">
<title>Node24&#45;&gt;Node15</title>
<g id="a_edge31_Node000024_Node000015"><a xlink:title=" ">
<path fill="none" stroke="#63b8ff" d="M441.35,-370.56C436.5,-350.74 425.62,-301.59 425.62,-259.75 425.62,-259.75 425.62,-259.75 425.62,-191.25 425.62,-154.35 425.62,-111.34 425.62,-86.49"/>
<polygon fill="#63b8ff" stroke="#63b8ff" points="429.13,-86.51 425.63,-76.51 422.13,-86.51 429.13,-86.51"/>
</a>
</g>
</g>
<!-- Node25 -->
<g id="Node000025" class="node">
<title>Node25</title>
<g id="a_Node000025"><a xlink:title=" ">
<polygon fill="#e0e0e0" stroke="#999999" points="503.88,-329.25 453.38,-329.25 453.38,-310 503.88,-310 503.88,-329.25"/>
<text text-anchor="middle" x="478.62" y="-315.75" font-family="Helvetica,sans-Serif" font-size="10.00">memory</text>
</a>
</g>
</g>
<!-- Node24&#45;&gt;Node25 -->
<g id="edge30_Node000024_Node000025" class="edge">
<title>Node24&#45;&gt;Node25</title>
<g id="a_edge30_Node000024_Node000025"><a xlink:title=" ">
<path fill="none" stroke="#63b8ff" d="M448.94,-370.56C453.82,-362.35 461.22,-349.91 467.4,-339.5"/>
<polygon fill="#63b8ff" stroke="#63b8ff" points="470.38,-341.34 472.49,-330.95 464.37,-337.76 470.38,-341.34"/>
</a>
</g>
</g>
<!-- Node26&#45;&gt;Node16 -->
<g id="edge43_Node000026_Node000016" class="edge">
<title>Node26&#45;&gt;Node16</title>
<g id="a_edge43_Node000026_Node000016"><a xlink:title=" ">
<path fill="none" stroke="#63b8ff" d="M234.14,-248.71C261.81,-239.77 304,-224.92 338.62,-207.5 387.3,-183.02 397.08,-172.38 441.62,-141 469.21,-121.57 499.92,-97.63 519.49,-82.07"/>
<polygon fill="#63b8ff" stroke="#63b8ff" points="521.57,-84.89 527.2,-75.91 517.2,-79.42 521.57,-84.89"/>
</a>
</g>
</g>
<!-- Node26&#45;&gt;Node21 -->
<g id="edge33_Node000026_Node000021" class="edge">
<title>Node26&#45;&gt;Node21</title>
<g id="a_edge33_Node000026_Node000021"><a xlink:title=" ">
<path fill="none" stroke="#63b8ff" d="M188.07,-248.69C148.74,-225.99 55.69,-164.62 92.62,-110.5 107,-89.43 132.95,-78.31 156.46,-72.44"/>
<polygon fill="#63b8ff" stroke="#63b8ff" points="156.9,-75.93 165.91,-70.35 155.39,-69.09 156.9,-75.93"/>
</a>
</g>
</g>
<!-- Node27 -->
<g id="Node000027" class="node">
<title>Node27</title>
<g id="a_Node000027"><a xlink:href="type__traits_8hpp.html" target="_top" xlink:title=" ">
<polygon fill="white" stroke="#666666" points="329.88,-201.88 207.38,-201.88 207.38,-182.62 329.88,-182.62 329.88,-201.88"/>
<text text-anchor="middle" x="268.62" y="-188.38" font-family="Helvetica,sans-Serif" font-size="10.00">yaclib/util/type_traits.hpp</text>
</a>
</g>
</g>
<!-- Node26&#45;&gt;Node27 -->
<g id="edge34_Node000026_Node000027" class="edge">
<title>Node26&#45;&gt;Node27</title>
<g id="a_edge34_Node000026_Node000027"><a xlink:title=" ">
<path fill="none" stroke="#63b8ff" d="M213.52,-248.78C223.36,-238.87 239.44,-222.66 251.7,-210.31"/>
<polygon fill="#63b8ff" stroke="#63b8ff" points="254.18,-212.78 258.74,-203.22 249.21,-207.85 254.18,-212.78"/>
</a>
</g>
</g>
<!-- Node29 -->
<g id="Node000029" class="node">
<title>Node29</title>
<g id="a_Node000029"><a xlink:title=" ">
<polygon fill="#e0e0e0" stroke="#999999" points="159.25,-135.38 102,-135.38 102,-116.12 159.25,-116.12 159.25,-135.38"/>
<text text-anchor="middle" x="130.62" y="-121.88" font-family="Helvetica,sans-Serif" font-size="10.00">exception</text>
</a>
</g>
</g>
<!-- Node26&#45;&gt;Node29 -->
<g id="edge42_Node000026_Node000029" class="edge">
<title>Node26&#45;&gt;Node29</title>
<g id="a_edge42_Node000026_Node000029"><a xlink:title=" ">
<path fill="none" stroke="#63b8ff" d="M199.54,-248.75C187.6,-227.62 157.59,-174.49 141.39,-145.81"/>
<polygon fill="#63b8ff" stroke="#63b8ff" points="144.46,-144.12 136.49,-137.13 138.36,-147.56 144.46,-144.12"/>
</a>
</g>
</g>
<!-- Node30 -->
<g id="Node000030" class="node">
<title>Node30</title>
<g id="a_Node000030"><a xlink:title=" ">
<polygon fill="#e0e0e0" stroke="#999999" points="45.25,-201.88 0,-201.88 0,-182.62 45.25,-182.62 45.25,-201.88"/>
<text text-anchor="middle" x="22.62" y="-188.38" font-family="Helvetica,sans-Serif" font-size="10.00">variant</text>
</a>
</g>
</g>
<!-- Node26&#45;&gt;Node30 -->
<g id="edge44_Node000026_Node000030" class="edge">
<title>Node26&#45;&gt;Node30</title>
<g id="a_edge44_Node000026_Node000030"><a xlink:title=" ">
<path fill="none" stroke="#63b8ff" d="M177.54,-248.67C148.33,-238.81 100.54,-222.46 59.62,-207.5 58.49,-207.09 57.34,-206.66 56.18,-206.23"/>
<polygon fill="#63b8ff" stroke="#63b8ff" points="57.68,-203.06 47.09,-202.8 55.21,-209.6 57.68,-203.06"/>
</a>
</g>
</g>
<!-- Node27&#45;&gt;Node15 -->
<g id="edge40_Node000027_Node000015" class="edge">
<title>Node27&#45;&gt;Node15</title>
<g id="a_edge40_Node000027_Node000015"><a xlink:title=" ">
<path fill="none" stroke="#63b8ff" d="M293.91,-182.29C315.33,-173.87 346.07,-159.76 368.62,-141 388.04,-124.86 404.75,-100.9 414.97,-84.4"/>
<polygon fill="#63b8ff" stroke="#63b8ff" points="417.8,-86.47 419.93,-76.09 411.8,-82.88 417.8,-86.47"/>
</a>
</g>
</g>
<!-- Node27&#45;&gt;Node16 -->
<g id="edge41_Node000027_Node000016" class="edge">
<title>Node27&#45;&gt;Node16</title>
<g id="a_edge41_Node000027_Node000016"><a xlink:title=" ">
<path fill="none" stroke="#63b8ff" d="M294.2,-182.28C320.49,-172.82 362.44,-157.1 397.62,-141 439.46,-121.86 486.33,-96.2 514.38,-80.37"/>
<polygon fill="#63b8ff" stroke="#63b8ff" points="515.88,-83.54 522.85,-75.56 512.42,-77.46 515.88,-83.54"/>
</a>
</g>
</g>
<!-- Node27&#45;&gt;Node21 -->
<g id="edge35_Node000027_Node000021" class="edge">
<title>Node27&#45;&gt;Node21</title>
<g id="a_edge35_Node000027_Node000021"><a xlink:title=" ">
<path fill="none" stroke="#63b8ff" d="M252.7,-182.19C239.16,-173.52 220.54,-159.11 211.62,-141 203.15,-123.79 202.75,-101.62 203.95,-85.83"/>
<polygon fill="#63b8ff" stroke="#63b8ff" points="207.39,-86.58 204.97,-76.27 200.43,-85.84 207.39,-86.58"/>
</a>
</g>
</g>
<!-- Node28 -->
<g id="Node000028" class="node">
<title>Node28</title>
<g id="a_Node000028"><a xlink:href="type__traits__impl_8hpp.html" target="_top" xlink:title=" ">
<polygon fill="white" stroke="#666666" points="359.25,-141 254,-141 254,-110.5 359.25,-110.5 359.25,-141"/>
<text text-anchor="start" x="262" y="-127.5" font-family="Helvetica,sans-Serif" font-size="10.00">yaclib/util/detail</text>
<text text-anchor="middle" x="306.62" y="-116.25" font-family="Helvetica,sans-Serif" font-size="10.00">/type_traits_impl.hpp</text>
</a>
</g>
</g>
<!-- Node27&#45;&gt;Node28 -->
<g id="edge36_Node000027_Node000028" class="edge">
<title>Node27&#45;&gt;Node28</title>
<g id="a_edge36_Node000027_Node000028"><a xlink:title=" ">
<path fill="none" stroke="#63b8ff" d="M273.91,-182.28C278.67,-174.2 285.89,-161.95 292.33,-151.01"/>
<polygon fill="#63b8ff" stroke="#63b8ff" points="295.35,-152.79 297.41,-142.4 289.31,-149.24 295.35,-152.79"/>
</a>
</g>
</g>
<!-- Node27&#45;&gt;Node29 -->
<g id="edge39_Node000027_Node000029" class="edge">
<title>Node27&#45;&gt;Node29</title>
<g id="a_edge39_Node000027_Node000029"><a xlink:title=" ">
<path fill="none" stroke="#63b8ff" d="M249.15,-182.15C226.03,-171.34 187.24,-153.21 160.36,-140.65"/>
<polygon fill="#63b8ff" stroke="#63b8ff" points="161.92,-137.51 151.38,-136.45 158.95,-143.85 161.92,-137.51"/>
</a>
</g>
</g>
<!-- Node28&#45;&gt;Node15 -->
<g id="edge38_Node000028_Node000015" class="edge">
<title>Node28&#45;&gt;Node15</title>
<g id="a_edge38_Node000028_Node000015"><a xlink:title=" ">
<path fill="none" stroke="#63b8ff" d="M336.35,-110.05C354.99,-100.82 378.89,-89 397.27,-79.9"/>
<polygon fill="#63b8ff" stroke="#63b8ff" points="398.61,-83.15 406.02,-75.58 395.5,-76.87 398.61,-83.15"/>
</a>
</g>
</g>
<!-- Node28&#45;&gt;Node21 -->
<g id="edge37_Node000028_Node000021" class="edge">
<title>Node28&#45;&gt;Node21</title>
<g id="a_edge37_Node000028_Node000021"><a xlink:title=" ">
<path fill="none" stroke="#63b8ff" d="M281.65,-110.05C266.42,-101.08 247.02,-89.66 231.76,-80.67"/>
<polygon fill="#63b8ff" stroke="#63b8ff" points="233.66,-77.73 223.27,-75.67 230.11,-83.76 233.66,-77.73"/>
</a>
</g>
</g>
<!-- Node31&#45;&gt;Node3 -->
<g id="edge46_Node000031_Node000003" class="edge">
<title>Node31&#45;&gt;Node3</title>
<g id="a_edge46_Node000031_Node000003"><a xlink:title=" ">
<path fill="none" stroke="#63b8ff" d="M456.77,-564.36C454.88,-557.19 452.54,-548.34 450.37,-540.09"/>
<polygon fill="#63b8ff" stroke="#63b8ff" points="453.79,-539.32 447.85,-530.54 447.02,-541.1 453.79,-539.32"/>
</a>
</g>
</g>
<!-- Node32&#45;&gt;Node14 -->
<g id="edge57_Node000032_Node000014" class="edge">
<title>Node32&#45;&gt;Node14</title>
<g id="a_edge57_Node000032_Node000014"><a xlink:title=" ">
<path fill="none" stroke="#63b8ff" d="M1336.87,-250.43C1384.87,-242.51 1450.89,-228.17 1466.62,-207.5 1492.74,-173.2 1486.17,-148.93 1466.62,-110.5 1445.14,-68.24 1396.45,-39.62 1363.31,-24.21"/>
<polygon fill="#63b8ff" stroke="#63b8ff" points="1365.08,-21.17 1354.52,-20.28 1362.23,-27.56 1365.08,-21.17"/>
</a>
</g>
</g>
<!-- Node32&#45;&gt;Node18 -->
<g id="edge56_Node000032_Node000018" class="edge">
<title>Node32&#45;&gt;Node18</title>
<g id="a_edge56_Node000032_Node000018"><a xlink:title=" ">
<path fill="none" stroke="#63b8ff" d="M1237.76,-248.65C1178.66,-237.16 1076.98,-217.41 1012.36,-204.85"/>
<polygon fill="#63b8ff" stroke="#63b8ff" points="1013.11,-201.43 1002.62,-202.96 1011.77,-208.31 1013.11,-201.43"/>
</a>
</g>
</g>
<!-- Node33 -->
<g id="Node000033" class="node">
<title>Node33</title>
<g id="a_Node000033"><a xlink:href="atomic__counter_8hpp.html" target="_top" xlink:title=" ">
<polygon fill="white" stroke="#666666" points="1336.5,-207.5 1232.75,-207.5 1232.75,-177 1336.5,-177 1336.5,-207.5"/>
<text text-anchor="start" x="1240.75" y="-194" font-family="Helvetica,sans-Serif" font-size="10.00">yaclib/util/detail</text>
<text text-anchor="middle" x="1284.62" y="-182.75" font-family="Helvetica,sans-Serif" font-size="10.00">/atomic_counter.hpp</text>
</a>
</g>
</g>
<!-- Node32&#45;&gt;Node33 -->
<g id="edge48_Node000032_Node000033" class="edge">
<title>Node32&#45;&gt;Node33</title>
<g id="a_edge48_Node000032_Node000033"><a xlink:title=" ">
<path fill="none" stroke="#63b8ff" d="M1284.62,-248.78C1284.62,-241.04 1284.62,-229.45 1284.62,-218.87"/>
<polygon fill="#63b8ff" stroke="#63b8ff" points="1288.13,-219.11 1284.63,-209.11 1281.13,-219.11 1288.13,-219.11"/>
</a>
</g>
</g>
<!-- Node35 -->
<g id="Node000035" class="node">
<title>Node35</title>
<g id="a_Node000035"><a xlink:href="unique__counter_8hpp.html" target="_top" xlink:title=" ">
<polygon fill="white" stroke="#666666" points="1457.12,-207.5 1354.12,-207.5 1354.12,-177 1457.12,-177 1457.12,-207.5"/>
<text text-anchor="start" x="1362.12" y="-194" font-family="Helvetica,sans-Serif" font-size="10.00">yaclib/util/detail</text>
<text text-anchor="middle" x="1405.62" y="-182.75" font-family="Helvetica,sans-Serif" font-size="10.00">/unique_counter.hpp</text>
</a>
</g>
</g>
<!-- Node32&#45;&gt;Node35 -->
<g id="edge54_Node000032_Node000035" class="edge">
<title>Node32&#45;&gt;Node35</title>
<g id="a_edge54_Node000032_Node000035"><a xlink:title=" ">
<path fill="none" stroke="#63b8ff" d="M1301.7,-248.65C1318.91,-239.47 1346.03,-225.02 1368.25,-213.18"/>
<polygon fill="#63b8ff" stroke="#63b8ff" points="1369.86,-216.28 1377.04,-208.49 1366.57,-210.1 1369.86,-216.28"/>
</a>
</g>
</g>
<!-- Node33&#45;&gt;Node7 -->
<g id="edge49_Node000033_Node000007" class="edge">
<title>Node33&#45;&gt;Node7</title>
<g id="a_edge49_Node000033_Node000007"><a xlink:title=" ">
<path fill="none" stroke="#63b8ff" d="M1244.91,-176.61C1214.78,-165.51 1173.74,-150.38 1144.78,-139.71"/>
<polygon fill="#63b8ff" stroke="#63b8ff" points="1146.34,-136.55 1135.75,-136.38 1143.92,-143.12 1146.34,-136.55"/>
</a>
</g>
</g>
<!-- Node33&#45;&gt;Node14 -->
<g id="edge51_Node000033_Node000014" class="edge">
<title>Node33&#45;&gt;Node14</title>
<g id="a_edge51_Node000033_Node000014"><a xlink:title=" ">
<path fill="none" stroke="#63b8ff" d="M1288.23,-176.77C1296.25,-144.58 1315.57,-67.03 1324.7,-30.41"/>
<polygon fill="#63b8ff" stroke="#63b8ff" points="1327.98,-31.7 1327,-21.15 1321.19,-30.01 1327.98,-31.7"/>
</a>
</g>
</g>
<!-- Node33&#45;&gt;Node16 -->
<g id="edge52_Node000033_Node000016" class="edge">
<title>Node33&#45;&gt;Node16</title>
<g id="a_edge52_Node000033_Node000016"><a xlink:title=" ">
<path fill="none" stroke="#63b8ff" d="M1287.36,-176.51C1289.82,-158.12 1290.7,-127.07 1272.62,-110.5 1246.34,-86.4 706.07,-70.34 570.35,-66.67"/>
<polygon fill="#63b8ff" stroke="#63b8ff" points="570.79,-63.18 560.7,-66.42 570.6,-70.18 570.79,-63.18"/>
</a>
</g>
</g>
<!-- Node33&#45;&gt;Node23 -->
<g id="edge53_Node000033_Node000023" class="edge">
<title>Node33&#45;&gt;Node23</title>
<g id="a_edge53_Node000033_Node000023"><a xlink:title=" ">
<path fill="none" stroke="#63b8ff" d="M1269.42,-176.61C1259.17,-166.74 1245.61,-153.69 1234.94,-143.42"/>
<polygon fill="#63b8ff" stroke="#63b8ff" points="1237.51,-141.04 1227.88,-136.62 1232.66,-146.08 1237.51,-141.04"/>
</a>
</g>
</g>
<!-- Node34 -->
<g id="Node000034" class="node">
<title>Node34</title>
<g id="a_Node000034"><a xlink:href="default__deleter_8hpp.html" target="_top" xlink:title=" ">
<polygon fill="white" stroke="#666666" points="1458,-141 1357.25,-141 1357.25,-110.5 1458,-110.5 1458,-141"/>
<text text-anchor="start" x="1365.25" y="-127.5" font-family="Helvetica,sans-Serif" font-size="10.00">yaclib/util/detail</text>
<text text-anchor="middle" x="1407.62" y="-116.25" font-family="Helvetica,sans-Serif" font-size="10.00">/default_deleter.hpp</text>
</a>
</g>
</g>
<!-- Node33&#45;&gt;Node34 -->
<g id="edge50_Node000033_Node000034" class="edge">
<title>Node33&#45;&gt;Node34</title>
<g id="a_edge50_Node000033_Node000034"><a xlink:title=" ">
<path fill="none" stroke="#63b8ff" d="M1312.54,-176.61C1329.44,-167.75 1351.23,-156.32 1369.69,-146.64"/>
<polygon fill="#63b8ff" stroke="#63b8ff" points="1371.25,-149.77 1378.48,-142.03 1368,-143.58 1371.25,-149.77"/>
</a>
</g>
</g>
<!-- Node35&#45;&gt;Node34 -->
<g id="edge55_Node000035_Node000034" class="edge">
<title>Node35&#45;&gt;Node34</title>
<g id="a_edge55_Node000035_Node000034"><a xlink:title=" ">
<path fill="none" stroke="#63b8ff" d="M1406.08,-176.61C1406.3,-169.52 1406.57,-160.79 1406.82,-152.63"/>
<polygon fill="#63b8ff" stroke="#63b8ff" points="1410.31,-152.94 1407.13,-142.84 1403.32,-152.73 1410.31,-152.94"/>
</a>
</g>
</g>
</g>
</svg>
