<?xml version="1.0" encoding="UTF-8" standalone="no"?>
<!DOCTYPE svg PUBLIC "-//W3C//DTD SVG 1.1//EN"
 "http://www.w3.org/Graphics/SVG/1.1/DTD/svg11.dtd">
<!-- Generated by graphviz version 9.0.0 (20230911.1827)
 -->
<!-- Title: include/yaclib/async/shared_promise.hpp Pages: 1 -->
<svg width="1151pt" height="371pt"
 viewBox="0.00 0.00 1151.00 371.00" xmlns="http://www.w3.org/2000/svg" xmlns:xlink="http://www.w3.org/1999/xlink">
<g id="graph0" class="graph" transform="scale(1 1) rotate(0) translate(4 367)">
<title>include/yaclib/async/shared_promise.hpp</title>
<!-- Node1 -->
<g id="Node000001" class="node">
<title>Node1</title>
<g id="a_Node000001"><a xlink:title=" ">
<polygon fill="#999999" stroke="#666666" points="934,-363 828,-363 828,-332.5 934,-332.5 934,-363"/>
<text text-anchor="start" x="836" y="-349.5" font-family="Helvetica,sans-Serif" font-size="10.00">include/yaclib/async</text>
<text text-anchor="middle" x="881" y="-338.25" font-family="Helvetica,sans-Serif" font-size="10.00">/shared_promise.hpp</text>
</a>
</g>
</g>
<!-- Node2 -->
<g id="Node000002" class="node">
<title>Node2</title>
<g id="a_Node000002"><a xlink:href="promise__core_8hpp.html" target="_top" xlink:title=" ">
<polygon fill="white" stroke="#666666" points="811.88,-296.5 690.12,-296.5 690.12,-266 811.88,-266 811.88,-296.5"/>
<text text-anchor="start" x="698.12" y="-283" font-family="Helvetica,sans-Serif" font-size="10.00">include/yaclib/algo</text>
<text text-anchor="middle" x="751" y="-271.75" font-family="Helvetica,sans-Serif" font-size="10.00">/detail/promise_core.hpp</text>
</a>
</g>
</g>
<!-- Node1&#45;&gt;Node2 -->
<g id="edge1_Node000001_Node000002" class="edge">
<title>Node1&#45;&gt;Node2</title>
<g id="a_edge1_Node000001_Node000002"><a xlink:title=" ">
<path fill="none" stroke="#63b8ff" d="M841.32,-327.06C821.68,-317.32 798.39,-305.76 780.38,-296.83"/>
<polygon fill="#63b8ff" stroke="#63b8ff" points="839.63,-330.13 850.15,-331.44 842.74,-323.86 839.63,-330.13"/>
</a>
</g>
</g>
<!-- Node19 -->
<g id="Node000019" class="node">
<title>Node19</title>
<g id="a_Node000019"><a xlink:href="connect_8hpp.html" target="_top" xlink:title=" ">
<polygon fill="white" stroke="#666666" points="932.5,-296.5 829.5,-296.5 829.5,-266 932.5,-266 932.5,-296.5"/>
<text text-anchor="start" x="837.5" y="-283" font-family="Helvetica,sans-Serif" font-size="10.00">include/yaclib/async</text>
<text text-anchor="middle" x="881" y="-271.75" font-family="Helvetica,sans-Serif" font-size="10.00">/connect.hpp</text>
</a>
</g>
</g>
<!-- Node1&#45;&gt;Node19 -->
<g id="edge20_Node000001_Node000019" class="edge">
<title>Node1&#45;&gt;Node19</title>
<g id="a_edge20_Node000001_Node000019"><a xlink:title=" ">
<path fill="none" stroke="#63b8ff" d="M881,-320.81C881,-312.64 881,-303.91 881,-296.83"/>
<polygon fill="#63b8ff" stroke="#63b8ff" points="877.5,-320.6 881,-330.6 884.5,-320.6 877.5,-320.6"/>
</a>
</g>
</g>
<!-- Node22 -->
<g id="Node000022" class="node">
<title>Node22</title>
<g id="a_Node000022"><a xlink:href="shared__contract_8hpp.html" target="_top" xlink:title=" ">
<polygon fill="white" stroke="#666666" points="1057.38,-296.5 950.62,-296.5 950.62,-266 1057.38,-266 1057.38,-296.5"/>
<text text-anchor="start" x="958.62" y="-283" font-family="Helvetica,sans-Serif" font-size="10.00">include/yaclib/async</text>
<text text-anchor="middle" x="1004" y="-271.75" font-family="Helvetica,sans-Serif" font-size="10.00">/shared_contract.hpp</text>
</a>
</g>
</g>
<!-- Node1&#45;&gt;Node22 -->
<g id="edge23_Node000001_Node000022" class="edge">
<title>Node1&#45;&gt;Node22</title>
<g id="a_edge23_Node000001_Node000022"><a xlink:title=" ">
<path fill="none" stroke="#63b8ff" d="M919.06,-326.79C937.53,-317.11 959.32,-305.68 976.2,-296.83"/>
<polygon fill="#63b8ff" stroke="#63b8ff" points="917.48,-323.67 910.25,-331.41 920.73,-329.87 917.48,-323.67"/>
</a>
</g>
</g>
<!-- Node3 -->
<g id="Node000003" class="node">
<title>Node3</title>
<g id="a_Node000003"><a xlink:href="run_8hpp.html" target="_top" xlink:title=" ">
<polygon fill="white" stroke="#666666" points="278.5,-230 175.5,-230 175.5,-199.5 278.5,-199.5 278.5,-230"/>
<text text-anchor="start" x="183.5" y="-216.5" font-family="Helvetica,sans-Serif" font-size="10.00">include/yaclib/async</text>
<text text-anchor="middle" x="227" y="-205.25" font-family="Helvetica,sans-Serif" font-size="10.00">/run.hpp</text>
</a>
</g>
</g>
<!-- Node2&#45;&gt;Node3 -->
<g id="edge2_Node000002_Node000003" class="edge">
<title>Node2&#45;&gt;Node3</title>
<g id="a_edge2_Node000002_Node000003"><a xlink:title=" ">
<path fill="none" stroke="#63b8ff" d="M678.51,-271.33C571.18,-258.12 372.62,-233.67 278.74,-222.12"/>
<polygon fill="#63b8ff" stroke="#63b8ff" points="678.01,-274.79 688.36,-272.54 678.87,-267.84 678.01,-274.79"/>
</a>
</g>
</g>
<!-- Node7 -->
<g id="Node000007" class="node">
<title>Node7</title>
<g id="a_Node000007"><a xlink:href="lazy_2task_8hpp.html" target="_top" xlink:title=" ">
<polygon fill="white" stroke="#666666" points="805,-230 711,-230 711,-199.5 805,-199.5 805,-230"/>
<text text-anchor="start" x="719" y="-216.5" font-family="Helvetica,sans-Serif" font-size="10.00">include/yaclib/lazy</text>
<text text-anchor="middle" x="758" y="-205.25" font-family="Helvetica,sans-Serif" font-size="10.00">/task.hpp</text>
</a>
</g>
</g>
<!-- Node2&#45;&gt;Node7 -->
<g id="edge6_Node000002_Node000007" class="edge">
<title>Node2&#45;&gt;Node7</title>
<g id="a_edge6_Node000002_Node000007"><a xlink:title=" ">
<path fill="none" stroke="#63b8ff" d="M753.82,-254.31C754.7,-246.14 755.65,-237.41 756.42,-230.33"/>
<polygon fill="#63b8ff" stroke="#63b8ff" points="750.35,-253.79 752.75,-264.11 757.31,-254.55 750.35,-253.79"/>
</a>
</g>
</g>
<!-- Node4 -->
<g id="Node000004" class="node">
<title>Node4</title>
<g id="a_Node000004"><a xlink:href="simple_8cpp.html" target="_top" xlink:title=" ">
<polygon fill="white" stroke="#666666" points="100,-163.5 0,-163.5 0,-133 100,-133 100,-163.5"/>
<text text-anchor="start" x="8" y="-150" font-family="Helvetica,sans-Serif" font-size="10.00">test/example/async</text>
<text text-anchor="middle" x="50" y="-138.75" font-family="Helvetica,sans-Serif" font-size="10.00">/simple.cpp</text>
</a>
</g>
</g>
<!-- Node3&#45;&gt;Node4 -->
<g id="edge3_Node000003_Node000004" class="edge">
<title>Node3&#45;&gt;Node4</title>
<g id="a_edge3_Node000003_Node000004"><a xlink:title=" ">
<path fill="none" stroke="#63b8ff" d="M176.31,-195.28C149.02,-185.33 115.82,-173.24 90.31,-163.94"/>
<polygon fill="#63b8ff" stroke="#63b8ff" points="174.82,-198.46 185.41,-198.6 177.22,-191.88 174.82,-198.46"/>
</a>
</g>
</g>
<!-- Node5 -->
<g id="Node000005" class="node">
<title>Node5</title>
<g id="a_Node000005"><a xlink:href="when__all_8cpp.html" target="_top" xlink:title=" ">
<polygon fill="white" stroke="#666666" points="218,-163.5 118,-163.5 118,-133 218,-133 218,-163.5"/>
<text text-anchor="start" x="126" y="-150" font-family="Helvetica,sans-Serif" font-size="10.00">test/example/async</text>
<text text-anchor="middle" x="168" y="-138.75" font-family="Helvetica,sans-Serif" font-size="10.00">/when_all.cpp</text>
</a>
</g>
</g>
<!-- Node3&#45;&gt;Node5 -->
<g id="edge4_Node000003_Node000005" class="edge">
<title>Node3&#45;&gt;Node5</title>
<g id="a_edge4_Node000003_Node000005"><a xlink:title=" ">
<path fill="none" stroke="#63b8ff" d="M205.85,-190.63C197.68,-181.69 188.57,-171.74 181.34,-163.83"/>
<polygon fill="#63b8ff" stroke="#63b8ff" points="203.26,-192.98 212.59,-198 208.42,-188.26 203.26,-192.98"/>
</a>
</g>
</g>
<!-- Node6 -->
<g id="Node000006" class="node">
<title>Node6</title>
<g id="a_Node000006"><a xlink:href="when__any_8cpp.html" target="_top" xlink:title=" ">
<polygon fill="white" stroke="#666666" points="336,-163.5 236,-163.5 236,-133 336,-133 336,-163.5"/>
<text text-anchor="start" x="244" y="-150" font-family="Helvetica,sans-Serif" font-size="10.00">test/example/async</text>
<text text-anchor="middle" x="286" y="-138.75" font-family="Helvetica,sans-Serif" font-size="10.00">/when_any.cpp</text>
</a>
</g>
</g>
<!-- Node3&#45;&gt;Node6 -->
<g id="edge5_Node000003_Node000006" class="edge">
<title>Node3&#45;&gt;Node6</title>
<g id="a_edge5_Node000003_Node000006"><a xlink:title=" ">
<path fill="none" stroke="#63b8ff" d="M248.15,-190.63C256.32,-181.69 265.43,-171.74 272.66,-163.83"/>
<polygon fill="#63b8ff" stroke="#63b8ff" points="245.58,-188.26 241.41,-198 250.74,-192.98 245.58,-188.26"/>
</a>
</g>
</g>
<!-- Node8 -->
<g id="Node000008" class="node">
<title>Node8</title>
<g id="a_Node000008"><a xlink:href="await__awaiter_8hpp.html" target="_top" xlink:title=" ">
<polygon fill="white" stroke="#666666" points="477.62,-163.5 354.38,-163.5 354.38,-133 477.62,-133 477.62,-163.5"/>
<text text-anchor="start" x="362.38" y="-150" font-family="Helvetica,sans-Serif" font-size="10.00">include/yaclib/coro</text>
<text text-anchor="middle" x="416" y="-138.75" font-family="Helvetica,sans-Serif" font-size="10.00">/detail/await_awaiter.hpp</text>
</a>
</g>
</g>
<!-- Node7&#45;&gt;Node8 -->
<g id="edge7_Node000007_Node000008" class="edge">
<title>Node7&#45;&gt;Node8</title>
<g id="a_edge7_Node000007_Node000008"><a xlink:title=" ">
<path fill="none" stroke="#63b8ff" d="M699.48,-203.26C644.36,-193.3 559.5,-177.77 486,-163.5 483.32,-162.98 480.59,-162.44 477.82,-161.9"/>
<polygon fill="#63b8ff" stroke="#63b8ff" points="698.83,-206.69 709.29,-205.03 700.07,-199.81 698.83,-206.69"/>
</a>
</g>
</g>
<!-- Node12 -->
<g id="Node000012" class="node">
<title>Node12</title>
<g id="a_Node000012"><a xlink:href="await__on__awaiter_8hpp.html" target="_top" xlink:title=" ">
<polygon fill="white" stroke="#666666" points="634.5,-163.5 495.5,-163.5 495.5,-133 634.5,-133 634.5,-163.5"/>
<text text-anchor="start" x="503.5" y="-150" font-family="Helvetica,sans-Serif" font-size="10.00">include/yaclib/coro</text>
<text text-anchor="middle" x="565" y="-138.75" font-family="Helvetica,sans-Serif" font-size="10.00">/detail/await_on_awaiter.hpp</text>
</a>
</g>
</g>
<!-- Node7&#45;&gt;Node12 -->
<g id="edge12_Node000007_Node000012" class="edge">
<title>Node7&#45;&gt;Node12</title>
<g id="a_edge12_Node000007_Node000012"><a xlink:title=" ">
<path fill="none" stroke="#63b8ff" d="M703.52,-195.54C673.61,-185.55 637.02,-173.32 608.96,-163.94"/>
<polygon fill="#63b8ff" stroke="#63b8ff" points="702.18,-198.78 712.77,-198.63 704.39,-192.14 702.18,-198.78"/>
</a>
</g>
</g>
<!-- Node14 -->
<g id="Node000014" class="node">
<title>Node14</title>
<g id="a_Node000014"><a xlink:href="coro_2future_8hpp.html" target="_top" xlink:title=" ">
<polygon fill="white" stroke="#666666" points="749.12,-163.5 652.88,-163.5 652.88,-133 749.12,-133 749.12,-163.5"/>
<text text-anchor="start" x="660.88" y="-150" font-family="Helvetica,sans-Serif" font-size="10.00">include/yaclib/coro</text>
<text text-anchor="middle" x="701" y="-138.75" font-family="Helvetica,sans-Serif" font-size="10.00">/future.hpp</text>
</a>
</g>
</g>
<!-- Node7&#45;&gt;Node14 -->
<g id="edge14_Node000007_Node000014" class="edge">
<title>Node7&#45;&gt;Node14</title>
<g id="a_edge14_Node000007_Node000014"><a xlink:title=" ">
<path fill="none" stroke="#63b8ff" d="M737.57,-190.63C729.67,-181.69 720.87,-171.74 713.88,-163.83"/>
<polygon fill="#63b8ff" stroke="#63b8ff" points="734.82,-192.8 744.06,-197.98 740.06,-188.17 734.82,-192.8"/>
</a>
</g>
</g>
<!-- Node15 -->
<g id="Node000015" class="node">
<title>Node15</title>
<g id="a_Node000015"><a xlink:href="coro_2task_8hpp.html" target="_top" xlink:title=" ">
<polygon fill="white" stroke="#666666" points="863.12,-163.5 766.88,-163.5 766.88,-133 863.12,-133 863.12,-163.5"/>
<text text-anchor="start" x="774.88" y="-150" font-family="Helvetica,sans-Serif" font-size="10.00">include/yaclib/coro</text>
<text text-anchor="middle" x="815" y="-138.75" font-family="Helvetica,sans-Serif" font-size="10.00">/task.hpp</text>
</a>
</g>
</g>
<!-- Node7&#45;&gt;Node15 -->
<g id="edge15_Node000007_Node000015" class="edge">
<title>Node7&#45;&gt;Node15</title>
<g id="a_edge15_Node000007_Node000015"><a xlink:title=" ">
<path fill="none" stroke="#63b8ff" d="M778.43,-190.63C786.33,-181.69 795.13,-171.74 802.12,-163.83"/>
<polygon fill="#63b8ff" stroke="#63b8ff" points="775.94,-188.17 771.94,-197.98 781.18,-192.8 775.94,-188.17"/>
</a>
</g>
</g>
<!-- Node16 -->
<g id="Node000016" class="node">
<title>Node16</title>
<g id="a_Node000016"><a xlink:href="lazy_2make_8hpp.html" target="_top" xlink:title=" ">
<polygon fill="white" stroke="#666666" points="975,-97 881,-97 881,-66.5 975,-66.5 975,-97"/>
<text text-anchor="start" x="889" y="-83.5" font-family="Helvetica,sans-Serif" font-size="10.00">include/yaclib/lazy</text>
<text text-anchor="middle" x="928" y="-72.25" font-family="Helvetica,sans-Serif" font-size="10.00">/make.hpp</text>
</a>
</g>
</g>
<!-- Node7&#45;&gt;Node16 -->
<g id="edge16_Node000007_Node000016" class="edge">
<title>Node7&#45;&gt;Node16</title>
<g id="a_edge16_Node000007_Node000016"><a xlink:title=" ">
<path fill="none" stroke="#63b8ff" d="M815.81,-195.44C834.99,-187.58 855.6,-177.03 872,-163.5 894.5,-144.93 911.93,-115.14 921.02,-97.4"/>
<polygon fill="#63b8ff" stroke="#63b8ff" points="814.79,-192.08 806.76,-198.98 817.34,-198.6 814.79,-192.08"/>
</a>
</g>
</g>
<!-- Node17 -->
<g id="Node000017" class="node">
<title>Node17</title>
<g id="a_Node000017"><a xlink:href="schedule_8hpp.html" target="_top" xlink:title=" ">
<polygon fill="white" stroke="#666666" points="1013,-163.5 919,-163.5 919,-133 1013,-133 1013,-163.5"/>
<text text-anchor="start" x="927" y="-150" font-family="Helvetica,sans-Serif" font-size="10.00">include/yaclib/lazy</text>
<text text-anchor="middle" x="966" y="-138.75" font-family="Helvetica,sans-Serif" font-size="10.00">/schedule.hpp</text>
</a>
</g>
</g>
<!-- Node7&#45;&gt;Node17 -->
<g id="edge17_Node000007_Node000017" class="edge">
<title>Node7&#45;&gt;Node17</title>
<g id="a_edge17_Node000007_Node000017"><a xlink:title=" ">
<path fill="none" stroke="#63b8ff" d="M816.13,-195.72C848.51,-185.68 888.3,-173.34 918.75,-163.9"/>
<polygon fill="#63b8ff" stroke="#63b8ff" points="815.42,-192.28 806.9,-198.58 817.49,-198.97 815.42,-192.28"/>
</a>
</g>
</g>
<!-- Node18 -->
<g id="Node000018" class="node">
<title>Node18</title>
<g id="a_Node000018"><a xlink:href="task__impl_8cpp.html" target="_top" xlink:title=" ">
<polygon fill="white" stroke="#666666" points="1143,-157.88 1031,-157.88 1031,-138.62 1143,-138.62 1143,-157.88"/>
<text text-anchor="middle" x="1087" y="-144.38" font-family="Helvetica,sans-Serif" font-size="10.00">src/lazy/task_impl.cpp</text>
</a>
</g>
</g>
<!-- Node7&#45;&gt;Node18 -->
<g id="edge19_Node000007_Node000018" class="edge">
<title>Node7&#45;&gt;Node18</title>
<g id="a_edge19_Node000007_Node000018"><a xlink:title=" ">
<path fill="none" stroke="#63b8ff" d="M816.4,-200.24C817.61,-199.99 818.81,-199.74 820,-199.5 909.35,-181.28 932.56,-181.27 1022,-163.5 1030.05,-161.9 1038.63,-160.09 1046.83,-158.32"/>
<polygon fill="#63b8ff" stroke="#63b8ff" points="815.86,-196.78 806.82,-202.3 817.33,-203.62 815.86,-196.78"/>
</a>
</g>
</g>
<!-- Node9 -->
<g id="Node000009" class="node">
<title>Node9</title>
<g id="a_Node000009"><a xlink:href="await_8hpp.html" target="_top" xlink:title=" ">
<polygon fill="white" stroke="#666666" points="386.12,-30.5 289.88,-30.5 289.88,0 386.12,0 386.12,-30.5"/>
<text text-anchor="start" x="297.88" y="-17" font-family="Helvetica,sans-Serif" font-size="10.00">include/yaclib/coro</text>
<text text-anchor="middle" x="338" y="-5.75" font-family="Helvetica,sans-Serif" font-size="10.00">/await.hpp</text>
</a>
</g>
</g>
<!-- Node8&#45;&gt;Node9 -->
<g id="edge8_Node000008_Node000009" class="edge">
<title>Node8&#45;&gt;Node9</title>
<g id="a_edge8_Node000008_Node000009"><a xlink:title=" ">
<path fill="none" stroke="#63b8ff" d="M353.72,-127.6C339.96,-120.24 327.09,-110.3 319,-97 306.43,-76.33 318.54,-48.01 328.35,-30.99"/>
<polygon fill="#63b8ff" stroke="#63b8ff" points="351.95,-130.63 362.48,-131.86 355.01,-124.34 351.95,-130.63"/>
</a>
</g>
</g>
<!-- Node10 -->
<g id="Node000010" class="node">
<title>Node10</title>
<g id="a_Node000010"><a xlink:href="await__inline_8hpp.html" target="_top" xlink:title=" ">
<polygon fill="white" stroke="#666666" points="424.12,-97 327.88,-97 327.88,-66.5 424.12,-66.5 424.12,-97"/>
<text text-anchor="start" x="335.88" y="-83.5" font-family="Helvetica,sans-Serif" font-size="10.00">include/yaclib/coro</text>
<text text-anchor="middle" x="376" y="-72.25" font-family="Helvetica,sans-Serif" font-size="10.00">/await_inline.hpp</text>
</a>
</g>
</g>
<!-- Node8&#45;&gt;Node10 -->
<g id="edge9_Node000008_Node000010" class="edge">
<title>Node8&#45;&gt;Node10</title>
<g id="a_edge9_Node000008_Node000010"><a xlink:title=" ">
<path fill="none" stroke="#63b8ff" d="M400.97,-123.01C395.61,-114.37 389.74,-104.91 385.04,-97.33"/>
<polygon fill="#63b8ff" stroke="#63b8ff" points="397.88,-124.67 406.13,-131.33 403.83,-120.98 397.88,-124.67"/>
</a>
</g>
</g>
<!-- Node11 -->
<g id="Node000011" class="node">
<title>Node11</title>
<g id="a_Node000011"><a xlink:href="await__sticky_8hpp.html" target="_top" xlink:title=" ">
<polygon fill="white" stroke="#666666" points="538.12,-97 441.88,-97 441.88,-66.5 538.12,-66.5 538.12,-97"/>
<text text-anchor="start" x="449.88" y="-83.5" font-family="Helvetica,sans-Serif" font-size="10.00">include/yaclib/coro</text>
<text text-anchor="middle" x="490" y="-72.25" font-family="Helvetica,sans-Serif" font-size="10.00">/await_sticky.hpp</text>
</a>
</g>
</g>
<!-- Node8&#45;&gt;Node11 -->
<g id="edge11_Node000008_Node000011" class="edge">
<title>Node8&#45;&gt;Node11</title>
<g id="a_edge11_Node000008_Node000011"><a xlink:title=" ">
<path fill="none" stroke="#63b8ff" d="M441.25,-125.24C451.82,-116.03 463.83,-105.56 473.27,-97.33"/>
<polygon fill="#63b8ff" stroke="#63b8ff" points="439.17,-122.41 433.93,-131.62 443.77,-127.69 439.17,-122.41"/>
</a>
</g>
</g>
<!-- Node10&#45;&gt;Node9 -->
<g id="edge10_Node000010_Node000009" class="edge">
<title>Node10&#45;&gt;Node9</title>
<g id="a_edge10_Node000010_Node000009"><a xlink:title=" ">
<path fill="none" stroke="#63b8ff" d="M361.55,-56.23C356.51,-47.66 351,-38.32 346.59,-30.83"/>
<polygon fill="#63b8ff" stroke="#63b8ff" points="358.52,-57.97 366.61,-64.81 364.55,-54.42 358.52,-57.97"/>
</a>
</g>
</g>
<!-- Node13 -->
<g id="Node000013" class="node">
<title>Node13</title>
<g id="a_Node000013"><a xlink:href="await__on_8hpp.html" target="_top" xlink:title=" ">
<polygon fill="white" stroke="#666666" points="652.12,-97 555.88,-97 555.88,-66.5 652.12,-66.5 652.12,-97"/>
<text text-anchor="start" x="563.88" y="-83.5" font-family="Helvetica,sans-Serif" font-size="10.00">include/yaclib/coro</text>
<text text-anchor="middle" x="604" y="-72.25" font-family="Helvetica,sans-Serif" font-size="10.00">/await_on.hpp</text>
</a>
</g>
</g>
<!-- Node12&#45;&gt;Node13 -->
<g id="edge13_Node000012_Node000013" class="edge">
<title>Node12&#45;&gt;Node13</title>
<g id="a_edge13_Node000012_Node000013"><a xlink:title=" ">
<path fill="none" stroke="#63b8ff" d="M579.66,-123.01C584.88,-114.37 590.6,-104.91 595.19,-97.33"/>
<polygon fill="#63b8ff" stroke="#63b8ff" points="576.81,-120.95 574.63,-131.32 582.8,-124.57 576.81,-120.95"/>
</a>
</g>
</g>
<!-- Node17&#45;&gt;Node16 -->
<g id="edge18_Node000017_Node000016" class="edge">
<title>Node17&#45;&gt;Node16</title>
<g id="a_edge18_Node000017_Node000016"><a xlink:title=" ">
<path fill="none" stroke="#63b8ff" d="M951.55,-122.73C946.51,-114.16 941,-104.82 936.59,-97.33"/>
<polygon fill="#63b8ff" stroke="#63b8ff" points="948.52,-124.47 956.61,-131.31 954.55,-120.92 948.52,-124.47"/>
</a>
</g>
</g>
<!-- Node20 -->
<g id="Node000020" class="node">
<title>Node20</title>
<g id="a_Node000020"><a xlink:href="share_8hpp.html" target="_top" xlink:title=" ">
<polygon fill="white" stroke="#666666" points="932.5,-230 829.5,-230 829.5,-199.5 932.5,-199.5 932.5,-230"/>
<text text-anchor="start" x="837.5" y="-216.5" font-family="Helvetica,sans-Serif" font-size="10.00">include/yaclib/async</text>
<text text-anchor="middle" x="881" y="-205.25" font-family="Helvetica,sans-Serif" font-size="10.00">/share.hpp</text>
</a>
</g>
</g>
<!-- Node19&#45;&gt;Node20 -->
<g id="edge21_Node000019_Node000020" class="edge">
<title>Node19&#45;&gt;Node20</title>
<g id="a_edge21_Node000019_Node000020"><a xlink:title=" ">
<path fill="none" stroke="#63b8ff" d="M881,-254.31C881,-246.14 881,-237.41 881,-230.33"/>
<polygon fill="#63b8ff" stroke="#63b8ff" points="877.5,-254.1 881,-264.1 884.5,-254.1 877.5,-254.1"/>
</a>
</g>
</g>
<!-- Node21 -->
<g id="Node000021" class="node">
<title>Node21</title>
<g id="a_Node000021"><a xlink:href="split_8hpp.html" target="_top" xlink:title=" ">
<polygon fill="white" stroke="#666666" points="1054.5,-230 951.5,-230 951.5,-199.5 1054.5,-199.5 1054.5,-230"/>
<text text-anchor="start" x="959.5" y="-216.5" font-family="Helvetica,sans-Serif" font-size="10.00">include/yaclib/async</text>
<text text-anchor="middle" x="1003" y="-205.25" font-family="Helvetica,sans-Serif" font-size="10.00">/split.hpp</text>
</a>
</g>
</g>
<!-- Node19&#45;&gt;Node21 -->
<g id="edge22_Node000019_Node000021" class="edge">
<title>Node19&#45;&gt;Node21</title>
<g id="a_edge22_Node000019_Node000021"><a xlink:title=" ">
<path fill="none" stroke="#63b8ff" d="M918.75,-260.29C937.07,-250.61 958.68,-239.18 975.43,-230.33"/>
<polygon fill="#63b8ff" stroke="#63b8ff" points="917.23,-257.14 910.02,-264.91 920.5,-263.33 917.23,-257.14"/>
</a>
</g>
</g>
<!-- Node22&#45;&gt;Node21 -->
<g id="edge24_Node000022_Node000021" class="edge">
<title>Node22&#45;&gt;Node21</title>
<g id="a_edge24_Node000022_Node000021"><a xlink:title=" ">
<path fill="none" stroke="#63b8ff" d="M1003.6,-254.31C1003.47,-246.14 1003.34,-237.41 1003.23,-230.33"/>
<polygon fill="#63b8ff" stroke="#63b8ff" points="1000.09,-254.16 1003.75,-264.1 1007.09,-254.05 1000.09,-254.16"/>
</a>
</g>
</g>
</g>
</svg>
