<?xml version="1.0" encoding="UTF-8" standalone="no"?>
<!DOCTYPE svg PUBLIC "-//W3C//DTD SVG 1.1//EN"
 "http://www.w3.org/Graphics/SVG/1.1/DTD/svg11.dtd">
<!-- Generated by graphviz version 9.0.0 (20230911.1827)
 -->
<!-- Title: include/yaclib/util/detail/shared_func.hpp Pages: 1 -->
<svg width="779pt" height="337pt"
 viewBox="0.00 0.00 779.12 337.25" xmlns="http://www.w3.org/2000/svg" xmlns:xlink="http://www.w3.org/1999/xlink">
<g id="graph0" class="graph" transform="scale(1 1) rotate(0) translate(4 333.25)">
<title>include/yaclib/util/detail/shared_func.hpp</title>
<!-- Node1 -->
<g id="Node000001" class="node">
<title>Node1</title>
<g id="a_Node000001"><a xlink:title=" ">
<polygon fill="#999999" stroke="#666666" points="297,-329.25 180.5,-329.25 180.5,-298.75 297,-298.75 297,-329.25"/>
<text text-anchor="start" x="188.5" y="-315.75" font-family="Helvetica,sans-Serif" font-size="10.00">include/yaclib/util</text>
<text text-anchor="middle" x="238.75" y="-304.5" font-family="Helvetica,sans-Serif" font-size="10.00">/detail/shared_func.hpp</text>
</a>
</g>
</g>
<!-- Node2 -->
<g id="Node000002" class="node">
<title>Node2</title>
<g id="a_Node000002"><a xlink:href="safe__call_8hpp.html" target="_top" xlink:title=" ">
<polygon fill="white" stroke="#666666" points="211.12,-207.5 128.37,-207.5 128.37,-177 211.12,-177 211.12,-207.5"/>
<text text-anchor="start" x="136.37" y="-194" font-family="Helvetica,sans-Serif" font-size="10.00">yaclib/util/detail</text>
<text text-anchor="middle" x="169.75" y="-182.75" font-family="Helvetica,sans-Serif" font-size="10.00">/safe_call.hpp</text>
</a>
</g>
</g>
<!-- Node1&#45;&gt;Node2 -->
<g id="edge1_Node000001_Node000002" class="edge">
<title>Node1&#45;&gt;Node2</title>
<g id="a_edge1_Node000001_Node000002"><a xlink:title=" ">
<path fill="none" stroke="#63b8ff" d="M230.28,-298.32C218.69,-278.19 197.7,-241.77 183.74,-217.54"/>
<polygon fill="#63b8ff" stroke="#63b8ff" points="186.84,-215.91 178.82,-208.99 180.78,-219.4 186.84,-215.91"/>
</a>
</g>
</g>
<!-- Node4 -->
<g id="Node000004" class="node">
<title>Node4</title>
<g id="a_Node000004"><a xlink:title=" ">
<polygon fill="#e0e0e0" stroke="#999999" points="76.25,-135.38 15.25,-135.38 15.25,-116.12 76.25,-116.12 76.25,-135.38"/>
<text text-anchor="middle" x="45.75" y="-121.88" font-family="Helvetica,sans-Serif" font-size="10.00">type_traits</text>
</a>
</g>
</g>
<!-- Node1&#45;&gt;Node4 -->
<g id="edge26_Node000001_Node000004" class="edge">
<title>Node1&#45;&gt;Node4</title>
<g id="a_edge26_Node000001_Node000004"><a xlink:title=" ">
<path fill="none" stroke="#63b8ff" d="M180.24,-304.73C124.41,-293.38 43.26,-267.11 4.75,-207.5 -8.84,-186.47 10.34,-160.36 26.78,-143.62"/>
<polygon fill="#63b8ff" stroke="#63b8ff" points="29.05,-146.3 33.85,-136.85 24.2,-141.24 29.05,-146.3"/>
</a>
</g>
</g>
<!-- Node5 -->
<g id="Node000005" class="node">
<title>Node5</title>
<g id="a_Node000005"><a xlink:title=" ">
<polygon fill="#e0e0e0" stroke="#999999" points="133,-135.38 94.5,-135.38 94.5,-116.12 133,-116.12 133,-135.38"/>
<text text-anchor="middle" x="113.75" y="-121.88" font-family="Helvetica,sans-Serif" font-size="10.00">utility</text>
</a>
</g>
</g>
<!-- Node1&#45;&gt;Node5 -->
<g id="edge27_Node000001_Node000005" class="edge">
<title>Node1&#45;&gt;Node5</title>
<g id="a_edge27_Node000001_Node000005"><a xlink:title=" ">
<path fill="none" stroke="#63b8ff" d="M240.88,-298.65C244.03,-271.91 246.94,-213.82 219.75,-177 197.3,-146.61 176.81,-157.33 142.75,-141 142.64,-140.95 142.53,-140.9 142.42,-140.85"/>
<polygon fill="#63b8ff" stroke="#63b8ff" points="144.02,-137.73 133.49,-136.51 140.96,-144.03 144.02,-137.73"/>
</a>
</g>
</g>
<!-- Node6 -->
<g id="Node000006" class="node">
<title>Node6</title>
<g id="a_Node000006"><a xlink:href="func_8hpp.html" target="_top" xlink:title=" ">
<polygon fill="white" stroke="#666666" points="109.87,-201.88 13.62,-201.88 13.62,-182.62 109.87,-182.62 109.87,-201.88"/>
<text text-anchor="middle" x="61.75" y="-188.38" font-family="Helvetica,sans-Serif" font-size="10.00">yaclib/util/func.hpp</text>
</a>
</g>
</g>
<!-- Node1&#45;&gt;Node6 -->
<g id="edge5_Node000001_Node000006" class="edge">
<title>Node1&#45;&gt;Node6</title>
<g id="a_edge5_Node000001_Node000006"><a xlink:title=" ">
<path fill="none" stroke="#63b8ff" d="M217.04,-298.32C183.27,-275.47 118.46,-231.62 84.22,-208.45"/>
<polygon fill="#63b8ff" stroke="#63b8ff" points="86.53,-205.79 76.28,-203.09 82.61,-211.59 86.53,-205.79"/>
</a>
</g>
</g>
<!-- Node7 -->
<g id="Node000007" class="node">
<title>Node7</title>
<g id="a_Node000007"><a xlink:href="ref_8hpp.html" target="_top" xlink:title=" ">
<polygon fill="white" stroke="#666666" points="240.12,-135.38 151.37,-135.38 151.37,-116.12 240.12,-116.12 240.12,-135.38"/>
<text text-anchor="middle" x="195.75" y="-121.88" font-family="Helvetica,sans-Serif" font-size="10.00">yaclib/util/ref.hpp</text>
</a>
</g>
</g>
<!-- Node1&#45;&gt;Node7 -->
<g id="edge25_Node000001_Node000007" class="edge">
<title>Node1&#45;&gt;Node7</title>
<g id="a_edge25_Node000001_Node000007"><a xlink:title=" ">
<path fill="none" stroke="#63b8ff" d="M244.91,-298.33C254.78,-272.53 271.21,-217.89 252.75,-177 246.3,-162.72 233.57,-150.88 221.77,-142.28"/>
<polygon fill="#63b8ff" stroke="#63b8ff" points="223.74,-139.39 213.49,-136.69 219.82,-145.19 223.74,-139.39"/>
</a>
</g>
</g>
<!-- Node8 -->
<g id="Node000008" class="node">
<title>Node8</title>
<g id="a_Node000008"><a xlink:href="helper_8hpp.html" target="_top" xlink:title=" ">
<polygon fill="white" stroke="#666666" points="493.62,-262.75 389.87,-262.75 389.87,-243.5 493.62,-243.5 493.62,-262.75"/>
<text text-anchor="middle" x="441.75" y="-249.25" font-family="Helvetica,sans-Serif" font-size="10.00">yaclib/util/helper.hpp</text>
</a>
</g>
</g>
<!-- Node1&#45;&gt;Node8 -->
<g id="edge9_Node000001_Node000008" class="edge">
<title>Node1&#45;&gt;Node8</title>
<g id="a_edge9_Node000001_Node000008"><a xlink:title=" ">
<path fill="none" stroke="#63b8ff" d="M289.45,-298.3C323.38,-288.45 367.51,-275.65 399.53,-266.37"/>
<polygon fill="#63b8ff" stroke="#63b8ff" points="400.23,-269.81 408.86,-263.66 398.28,-263.09 400.23,-269.81"/>
</a>
</g>
</g>
<!-- Node14 -->
<g id="Node000014" class="node">
<title>Node14</title>
<g id="a_Node000014"><a xlink:href="intrusive__ptr_8hpp.html" target="_top" xlink:title=" ">
<polygon fill="white" stroke="#666666" points="400.87,-207.5 304.62,-207.5 304.62,-177 400.87,-177 400.87,-207.5"/>
<text text-anchor="start" x="312.62" y="-194" font-family="Helvetica,sans-Serif" font-size="10.00">yaclib/util/intrusive</text>
<text text-anchor="middle" x="352.75" y="-182.75" font-family="Helvetica,sans-Serif" font-size="10.00">_ptr.hpp</text>
</a>
</g>
</g>
<!-- Node1&#45;&gt;Node14 -->
<g id="edge24_Node000001_Node000014" class="edge">
<title>Node1&#45;&gt;Node14</title>
<g id="a_edge24_Node000001_Node000014"><a xlink:title=" ">
<path fill="none" stroke="#63b8ff" d="M254.51,-298.34C264.98,-288.47 278.92,-275.06 290.75,-262.75 305.27,-247.64 320.98,-230.01 332.95,-216.29"/>
<polygon fill="#63b8ff" stroke="#63b8ff" points="335.32,-218.9 339.23,-209.05 330.04,-214.31 335.32,-218.9"/>
</a>
</g>
</g>
<!-- Node3 -->
<g id="Node000003" class="node">
<title>Node3</title>
<g id="a_Node000003"><a xlink:title=" ">
<polygon fill="#e0e0e0" stroke="#999999" points="345.37,-135.38 258.12,-135.38 258.12,-116.12 345.37,-116.12 345.37,-135.38"/>
<text text-anchor="middle" x="301.75" y="-121.88" font-family="Helvetica,sans-Serif" font-size="10.00">yaclib/config.hpp</text>
</a>
</g>
</g>
<!-- Node2&#45;&gt;Node3 -->
<g id="edge2_Node000002_Node000003" class="edge">
<title>Node2&#45;&gt;Node3</title>
<g id="a_edge2_Node000002_Node000003"><a xlink:title=" ">
<path fill="none" stroke="#63b8ff" d="M199.7,-176.61C221.69,-165.87 251.39,-151.36 273.08,-140.76"/>
<polygon fill="#63b8ff" stroke="#63b8ff" points="274.5,-143.96 281.95,-136.42 271.43,-137.67 274.5,-143.96"/>
</a>
</g>
</g>
<!-- Node2&#45;&gt;Node4 -->
<g id="edge3_Node000002_Node000004" class="edge">
<title>Node2&#45;&gt;Node4</title>
<g id="a_edge3_Node000002_Node000004"><a xlink:title=" ">
<path fill="none" stroke="#63b8ff" d="M141.61,-176.61C121.14,-165.96 93.56,-151.62 73.24,-141.05"/>
<polygon fill="#63b8ff" stroke="#63b8ff" points="74.9,-137.97 64.41,-136.46 71.67,-144.18 74.9,-137.97"/>
</a>
</g>
</g>
<!-- Node2&#45;&gt;Node5 -->
<g id="edge4_Node000002_Node000005" class="edge">
<title>Node2&#45;&gt;Node5</title>
<g id="a_edge4_Node000002_Node000005"><a xlink:title=" ">
<path fill="none" stroke="#63b8ff" d="M157.04,-176.61C148.64,-166.94 137.59,-154.21 128.76,-144.04"/>
<polygon fill="#63b8ff" stroke="#63b8ff" points="131.6,-141.97 122.4,-136.72 126.31,-146.56 131.6,-141.97"/>
</a>
</g>
</g>
<!-- Node6&#45;&gt;Node4 -->
<g id="edge7_Node000006_Node000004" class="edge">
<title>Node6&#45;&gt;Node4</title>
<g id="a_edge7_Node000006_Node000004"><a xlink:title=" ">
<path fill="none" stroke="#63b8ff" d="M59.52,-182.28C57.25,-173.14 53.66,-158.64 50.71,-146.75"/>
<polygon fill="#63b8ff" stroke="#63b8ff" points="54.12,-145.97 48.32,-137.11 47.33,-147.66 54.12,-145.97"/>
</a>
</g>
</g>
<!-- Node6&#45;&gt;Node5 -->
<g id="edge8_Node000006_Node000005" class="edge">
<title>Node6&#45;&gt;Node5</title>
<g id="a_edge8_Node000006_Node000005"><a xlink:title=" ">
<path fill="none" stroke="#63b8ff" d="M68.98,-182.28C76.82,-172.56 89.53,-156.79 99.41,-144.53"/>
<polygon fill="#63b8ff" stroke="#63b8ff" points="102.07,-146.8 105.63,-136.82 96.63,-142.41 102.07,-146.8"/>
</a>
</g>
</g>
<!-- Node6&#45;&gt;Node7 -->
<g id="edge6_Node000006_Node000007" class="edge">
<title>Node6&#45;&gt;Node7</title>
<g id="a_edge6_Node000006_Node000007"><a xlink:title=" ">
<path fill="none" stroke="#63b8ff" d="M80.66,-182.15C103.11,-171.34 140.77,-153.21 166.87,-140.65"/>
<polygon fill="#63b8ff" stroke="#63b8ff" points="168.07,-143.96 175.56,-136.46 165.03,-137.65 168.07,-143.96"/>
</a>
</g>
</g>
<!-- Node9 -->
<g id="Node000009" class="node">
<title>Node9</title>
<g id="a_Node000009"><a xlink:href="atomic__counter_8hpp.html" target="_top" xlink:title=" ">
<polygon fill="white" stroke="#666666" points="554.62,-207.5 450.87,-207.5 450.87,-177 554.62,-177 554.62,-207.5"/>
<text text-anchor="start" x="458.87" y="-194" font-family="Helvetica,sans-Serif" font-size="10.00">yaclib/util/detail</text>
<text text-anchor="middle" x="502.75" y="-182.75" font-family="Helvetica,sans-Serif" font-size="10.00">/atomic_counter.hpp</text>
</a>
</g>
</g>
<!-- Node8&#45;&gt;Node9 -->
<g id="edge10_Node000008_Node000009" class="edge">
<title>Node8&#45;&gt;Node9</title>
<g id="a_edge10_Node000008_Node000009"><a xlink:title=" ">
<path fill="none" stroke="#63b8ff" d="M451.01,-243.18C458.61,-235.84 469.71,-225.13 479.68,-215.51"/>
<polygon fill="#63b8ff" stroke="#63b8ff" points="481.84,-218.3 486.6,-208.83 476.97,-213.26 481.84,-218.3"/>
</a>
</g>
</g>
<!-- Node13 -->
<g id="Node000013" class="node">
<title>Node13</title>
<g id="a_Node000013"><a xlink:href="unique__counter_8hpp.html" target="_top" xlink:title=" ">
<polygon fill="white" stroke="#666666" points="715.25,-207.5 612.25,-207.5 612.25,-177 715.25,-177 715.25,-207.5"/>
<text text-anchor="start" x="620.25" y="-194" font-family="Helvetica,sans-Serif" font-size="10.00">yaclib/util/detail</text>
<text text-anchor="middle" x="663.75" y="-182.75" font-family="Helvetica,sans-Serif" font-size="10.00">/unique_counter.hpp</text>
</a>
</g>
</g>
<!-- Node8&#45;&gt;Node13 -->
<g id="edge16_Node000008_Node000013" class="edge">
<title>Node8&#45;&gt;Node13</title>
<g id="a_edge16_Node000008_Node000013"><a xlink:title=" ">
<path fill="none" stroke="#63b8ff" d="M475.95,-243.05C509.26,-234.22 560.67,-220.59 601.29,-209.81"/>
<polygon fill="#63b8ff" stroke="#63b8ff" points="601.93,-213.26 610.7,-207.32 600.14,-206.5 601.93,-213.26"/>
</a>
</g>
</g>
<!-- Node8&#45;&gt;Node14 -->
<g id="edge18_Node000008_Node000014" class="edge">
<title>Node8&#45;&gt;Node14</title>
<g id="a_edge18_Node000008_Node000014"><a xlink:title=" ">
<path fill="none" stroke="#63b8ff" d="M428.23,-243.18C416.58,-235.48 399.31,-224.05 384.23,-214.08"/>
<polygon fill="#63b8ff" stroke="#63b8ff" points="386.25,-211.22 375.98,-208.62 382.38,-217.05 386.25,-211.22"/>
</a>
</g>
</g>
<!-- Node9&#45;&gt;Node3 -->
<g id="edge11_Node000009_Node000003" class="edge">
<title>Node9&#45;&gt;Node3</title>
<g id="a_edge11_Node000009_Node000003"><a xlink:title=" ">
<path fill="none" stroke="#63b8ff" d="M456.88,-176.53C421.8,-165.28 373.96,-149.92 340.72,-139.26"/>
<polygon fill="#63b8ff" stroke="#63b8ff" points="342.08,-136.02 331.48,-136.29 339.94,-142.68 342.08,-136.02"/>
</a>
</g>
</g>
<!-- Node9&#45;&gt;Node5 -->
<g id="edge14_Node000009_Node000005" class="edge">
<title>Node9&#45;&gt;Node5</title>
<g id="a_edge14_Node000009_Node000005"><a xlink:title=" ">
<path fill="none" stroke="#63b8ff" d="M450.63,-183.1C437.31,-181.06 423,-178.91 409.75,-177 291.23,-159.93 257.3,-175.86 142.75,-141 141.94,-140.76 141.13,-140.49 140.32,-140.21"/>
<polygon fill="#63b8ff" stroke="#63b8ff" points="141.9,-137.08 131.33,-136.43 139.19,-143.53 141.9,-137.08"/>
</a>
</g>
</g>
<!-- Node10 -->
<g id="Node000010" class="node">
<title>Node10</title>
<g id="a_Node000010"><a xlink:href="default__deleter_8hpp.html" target="_top" xlink:title=" ">
<polygon fill="white" stroke="#666666" points="771.12,-141 670.37,-141 670.37,-110.5 771.12,-110.5 771.12,-141"/>
<text text-anchor="start" x="678.37" y="-127.5" font-family="Helvetica,sans-Serif" font-size="10.00">yaclib/util/detail</text>
<text text-anchor="middle" x="720.75" y="-116.25" font-family="Helvetica,sans-Serif" font-size="10.00">/default_deleter.hpp</text>
</a>
</g>
</g>
<!-- Node9&#45;&gt;Node10 -->
<g id="edge12_Node000009_Node000010" class="edge">
<title>Node9&#45;&gt;Node10</title>
<g id="a_edge12_Node000009_Node000010"><a xlink:title=" ">
<path fill="none" stroke="#63b8ff" d="M552.49,-176.53C584.58,-167.04 626.51,-154.63 660.49,-144.58"/>
<polygon fill="#63b8ff" stroke="#63b8ff" points="661.17,-148.03 669.77,-141.83 659.19,-141.31 661.17,-148.03"/>
</a>
</g>
</g>
<!-- Node11 -->
<g id="Node000011" class="node">
<title>Node11</title>
<g id="a_Node000011"><a xlink:title=" ">
<polygon fill="#e0e0e0" stroke="#999999" points="542.87,-135.38 494.62,-135.38 494.62,-116.12 542.87,-116.12 542.87,-135.38"/>
<text text-anchor="middle" x="518.75" y="-121.88" font-family="Helvetica,sans-Serif" font-size="10.00">cstddef</text>
</a>
</g>
</g>
<!-- Node9&#45;&gt;Node11 -->
<g id="edge13_Node000009_Node000011" class="edge">
<title>Node9&#45;&gt;Node11</title>
<g id="a_edge13_Node000009_Node000011"><a xlink:title=" ">
<path fill="none" stroke="#63b8ff" d="M506.38,-176.61C508.58,-167.73 511.42,-156.27 513.83,-146.58"/>
<polygon fill="#63b8ff" stroke="#63b8ff" points="517.18,-147.59 516.19,-137.04 510.39,-145.9 517.18,-147.59"/>
</a>
</g>
</g>
<!-- Node12 -->
<g id="Node000012" class="node">
<title>Node12</title>
<g id="a_Node000012"><a xlink:title=" ">
<polygon fill="#e0e0e0" stroke="#999999" points="652.62,-135.38 560.87,-135.38 560.87,-116.12 652.62,-116.12 652.62,-135.38"/>
<text text-anchor="middle" x="606.75" y="-121.88" font-family="Helvetica,sans-Serif" font-size="10.00">yaclib_std/atomic</text>
</a>
</g>
</g>
<!-- Node9&#45;&gt;Node12 -->
<g id="edge15_Node000009_Node000012" class="edge">
<title>Node9&#45;&gt;Node12</title>
<g id="a_edge15_Node000009_Node000012"><a xlink:title=" ">
<path fill="none" stroke="#63b8ff" d="M526.34,-176.61C543.12,-166.21 565.58,-152.28 582.5,-141.79"/>
<polygon fill="#63b8ff" stroke="#63b8ff" points="584.28,-144.8 590.93,-136.56 580.59,-138.85 584.28,-144.8"/>
</a>
</g>
</g>
<!-- Node13&#45;&gt;Node10 -->
<g id="edge17_Node000013_Node000010" class="edge">
<title>Node13&#45;&gt;Node10</title>
<g id="a_edge17_Node000013_Node000010"><a xlink:title=" ">
<path fill="none" stroke="#63b8ff" d="M676.68,-176.61C683.68,-168.7 692.48,-158.74 700.37,-149.8"/>
<polygon fill="#63b8ff" stroke="#63b8ff" points="702.86,-152.27 706.86,-142.46 697.62,-147.64 702.86,-152.27"/>
</a>
</g>
</g>
<!-- Node14&#45;&gt;Node4 -->
<g id="edge20_Node000014_Node000004" class="edge">
<title>Node14&#45;&gt;Node4</title>
<g id="a_edge20_Node000014_Node000004"><a xlink:title=" ">
<path fill="none" stroke="#63b8ff" d="M304.49,-184.49C250.61,-176.41 161.1,-161.38 85.75,-141 83.89,-140.5 81.99,-139.95 80.08,-139.37"/>
<polygon fill="#63b8ff" stroke="#63b8ff" points="81.27,-136.08 70.68,-136.28 79.09,-142.73 81.27,-136.08"/>
</a>
</g>
</g>
<!-- Node14&#45;&gt;Node7 -->
<g id="edge19_Node000014_Node000007" class="edge">
<title>Node14&#45;&gt;Node7</title>
<g id="a_edge19_Node000014_Node000007"><a xlink:title=" ">
<path fill="none" stroke="#63b8ff" d="M317.12,-176.61C290.36,-165.62 254.02,-150.69 228.09,-140.04"/>
<polygon fill="#63b8ff" stroke="#63b8ff" points="229.66,-136.9 219.08,-136.33 227,-143.37 229.66,-136.9"/>
</a>
</g>
</g>
<!-- Node15 -->
<g id="Node000015" class="node">
<title>Node15</title>
<g id="a_Node000015"><a xlink:href="intrusive__ptr__impl_8hpp.html" target="_top" xlink:title=" ">
<polygon fill="white" stroke="#666666" points="476.5,-141 363,-141 363,-110.5 476.5,-110.5 476.5,-141"/>
<text text-anchor="start" x="371" y="-127.5" font-family="Helvetica,sans-Serif" font-size="10.00">yaclib/util/detail</text>
<text text-anchor="middle" x="419.75" y="-116.25" font-family="Helvetica,sans-Serif" font-size="10.00">/intrusive_ptr_impl.hpp</text>
</a>
</g>
</g>
<!-- Node14&#45;&gt;Node15 -->
<g id="edge21_Node000014_Node000015" class="edge">
<title>Node14&#45;&gt;Node15</title>
<g id="a_edge21_Node000014_Node000015"><a xlink:title=" ">
<path fill="none" stroke="#63b8ff" d="M367.95,-176.61C376.34,-168.53 386.95,-158.32 396.38,-149.25"/>
<polygon fill="#63b8ff" stroke="#63b8ff" points="398.74,-151.83 403.51,-142.38 393.88,-146.79 398.74,-151.83"/>
</a>
</g>
</g>
<!-- Node16 -->
<g id="Node000016" class="node">
<title>Node16</title>
<g id="a_Node000016"><a xlink:href="log_8hpp.html" target="_top" xlink:title=" ">
<polygon fill="white" stroke="#666666" points="457,-74.5 382.5,-74.5 382.5,-55.25 457,-55.25 457,-74.5"/>
<text text-anchor="middle" x="419.75" y="-61" font-family="Helvetica,sans-Serif" font-size="10.00">yaclib/log.hpp</text>
</a>
</g>
</g>
<!-- Node15&#45;&gt;Node16 -->
<g id="edge22_Node000015_Node000016" class="edge">
<title>Node15&#45;&gt;Node16</title>
<g id="a_edge22_Node000015_Node000016"><a xlink:title=" ">
<path fill="none" stroke="#63b8ff" d="M419.75,-110.2C419.75,-102.96 419.75,-94.09 419.75,-86.19"/>
<polygon fill="#63b8ff" stroke="#63b8ff" points="423.25,-86.46 419.75,-76.46 416.25,-86.46 423.25,-86.46"/>
</a>
</g>
</g>
<!-- Node17 -->
<g id="Node000017" class="node">
<title>Node17</title>
<g id="a_Node000017"><a xlink:title=" ">
<polygon fill="#e0e0e0" stroke="#999999" points="452.5,-19.25 387,-19.25 387,0 452.5,0 452.5,-19.25"/>
<text text-anchor="middle" x="419.75" y="-5.75" font-family="Helvetica,sans-Serif" font-size="10.00">string_view</text>
</a>
</g>
</g>
<!-- Node16&#45;&gt;Node17 -->
<g id="edge23_Node000016_Node000017" class="edge">
<title>Node16&#45;&gt;Node17</title>
<g id="a_edge23_Node000016_Node000017"><a xlink:title=" ">
<path fill="none" stroke="#63b8ff" d="M419.75,-55.08C419.75,-48.57 419.75,-39.42 419.75,-31.12"/>
<polygon fill="#63b8ff" stroke="#63b8ff" points="423.25,-31.12 419.75,-21.12 416.25,-31.12 423.25,-31.12"/>
</a>
</g>
</g>
</g>
</svg>
