<?xml version="1.0" encoding="UTF-8" standalone="no"?>
<!DOCTYPE svg PUBLIC "-//W3C//DTD SVG 1.1//EN"
 "http://www.w3.org/Graphics/SVG/1.1/DTD/svg11.dtd">
<!-- Generated by graphviz version 3.0.0 (20220413.0242)
 -->
<!-- Title: include/yaclib/util/detail/shared_func.hpp Pages: 1 -->
<svg width="998pt" height="240pt"
 viewBox="0.00 0.00 998.00 240.00" xmlns="http://www.w3.org/2000/svg" xmlns:xlink="http://www.w3.org/1999/xlink">
<g id="graph0" class="graph" transform="scale(1 1) rotate(0) translate(4 236)">
<title>include/yaclib/util/detail/shared_func.hpp</title>
<!-- Node1 -->
<g id="node1" class="node">
<title>Node1</title>
<g id="a_node1"><a xlink:title=" ">
<polygon fill="#bfbfbf" stroke="black" points="382.5,-201.5 382.5,-231.5 499.5,-231.5 499.5,-201.5 382.5,-201.5"/>
<text text-anchor="start" x="390.5" y="-219.5" font-family="Helvetica,sans-Serif" font-size="10.00">include/yaclib/util</text>
<text text-anchor="middle" x="441" y="-208.5" font-family="Helvetica,sans-Serif" font-size="10.00">/detail/shared_func.hpp</text>
</a>
</g>
</g>
<!-- Node2 -->
<g id="node2" class="node">
<title>Node2</title>
<g id="a_node2"><a xlink:href="thread__factory_8hpp.html" target="_top" xlink:title=" ">
<polygon fill="none" stroke="black" points="383.5,-134.5 383.5,-164.5 498.5,-164.5 498.5,-134.5 383.5,-134.5"/>
<text text-anchor="start" x="391.5" y="-152.5" font-family="Helvetica,sans-Serif" font-size="10.00">include/yaclib/executor</text>
<text text-anchor="middle" x="441" y="-141.5" font-family="Helvetica,sans-Serif" font-size="10.00">/thread_factory.hpp</text>
</a>
</g>
</g>
<!-- Node1&#45;&gt;Node2 -->
<g id="edge1" class="edge">
<title>Node1&#45;&gt;Node2</title>
<path fill="none" stroke="midnightblue" d="M441,-191.11C441,-182.15 441,-172.32 441,-164.58"/>
<polygon fill="midnightblue" stroke="midnightblue" points="437.5,-191.4 441,-201.4 444.5,-191.4 437.5,-191.4"/>
</g>
<!-- Node3 -->
<g id="node3" class="node">
<title>Node3</title>
<g id="a_node3"><a xlink:href="thread__pool_8hpp.html" target="_top" xlink:title=" ">
<polygon fill="none" stroke="black" points="383.5,-67.5 383.5,-97.5 498.5,-97.5 498.5,-67.5 383.5,-67.5"/>
<text text-anchor="start" x="391.5" y="-85.5" font-family="Helvetica,sans-Serif" font-size="10.00">include/yaclib/executor</text>
<text text-anchor="middle" x="441" y="-74.5" font-family="Helvetica,sans-Serif" font-size="10.00">/thread_pool.hpp</text>
</a>
</g>
</g>
<!-- Node2&#45;&gt;Node3 -->
<g id="edge2" class="edge">
<title>Node2&#45;&gt;Node3</title>
<path fill="none" stroke="midnightblue" d="M441,-124.11C441,-115.15 441,-105.32 441,-97.58"/>
<polygon fill="midnightblue" stroke="midnightblue" points="437.5,-124.4 441,-134.4 444.5,-124.4 437.5,-124.4"/>
</g>
<!-- Node6 -->
<g id="node6" class="node">
<title>Node6</title>
<g id="a_node6"><a xlink:href="src_2executor_2thread__pool_8cpp.html" target="_top" xlink:title=" ">
<polygon fill="none" stroke="black" points="0,-0.5 0,-30.5 100,-30.5 100,-0.5 0,-0.5"/>
<text text-anchor="start" x="8" y="-18.5" font-family="Helvetica,sans-Serif" font-size="10.00">src/executor/thread</text>
<text text-anchor="middle" x="50" y="-7.5" font-family="Helvetica,sans-Serif" font-size="10.00">_pool.cpp</text>
</a>
</g>
</g>
<!-- Node2&#45;&gt;Node6 -->
<g id="edge12" class="edge">
<title>Node2&#45;&gt;Node6</title>
<path fill="none" stroke="midnightblue" d="M389.88,-131.24C311.66,-104.83 163.75,-54.9 91.64,-30.56"/>
<polygon fill="midnightblue" stroke="midnightblue" points="388.93,-134.62 399.53,-134.5 391.17,-127.98 388.93,-134.62"/>
</g>
<!-- Node12 -->
<g id="node12" class="node">
<title>Node12</title>
<g id="a_node12"><a xlink:href="thread__factory_8cpp.html" target="_top" xlink:title=" ">
<polygon fill="none" stroke="black" points="517,-67.5 517,-97.5 617,-97.5 617,-67.5 517,-67.5"/>
<text text-anchor="start" x="525" y="-85.5" font-family="Helvetica,sans-Serif" font-size="10.00">src/executor/thread</text>
<text text-anchor="middle" x="567" y="-74.5" font-family="Helvetica,sans-Serif" font-size="10.00">_factory.cpp</text>
</a>
</g>
</g>
<!-- Node2&#45;&gt;Node12 -->
<g id="edge11" class="edge">
<title>Node2&#45;&gt;Node12</title>
<path fill="none" stroke="midnightblue" d="M477.42,-129.71C497.29,-119.46 521.48,-106.98 539.71,-97.58"/>
<polygon fill="midnightblue" stroke="midnightblue" points="475.62,-126.7 468.34,-134.4 478.83,-132.92 475.62,-126.7"/>
</g>
<!-- Node4 -->
<g id="node4" class="node">
<title>Node4</title>
<g id="a_node4"><a xlink:href="async__mutex_8hpp.html" target="_top" xlink:title=" ">
<polygon fill="none" stroke="black" points="118,-0.5 118,-30.5 236,-30.5 236,-0.5 118,-0.5"/>
<text text-anchor="start" x="126" y="-18.5" font-family="Helvetica,sans-Serif" font-size="10.00">include/yaclib/coroutine</text>
<text text-anchor="middle" x="177" y="-7.5" font-family="Helvetica,sans-Serif" font-size="10.00">/async_mutex.hpp</text>
</a>
</g>
</g>
<!-- Node3&#45;&gt;Node4 -->
<g id="edge3" class="edge">
<title>Node3&#45;&gt;Node4</title>
<path fill="none" stroke="midnightblue" d="M374.19,-65.05C331.03,-54.43 275.46,-40.74 234.31,-30.61"/>
<polygon fill="midnightblue" stroke="midnightblue" points="373.49,-68.48 384.04,-67.48 375.17,-61.69 373.49,-68.48"/>
</g>
<!-- Node5 -->
<g id="node5" class="node">
<title>Node5</title>
<g id="a_node5"><a xlink:href="await__group_8hpp.html" target="_top" xlink:title=" ">
<polygon fill="none" stroke="black" points="254,-0.5 254,-30.5 372,-30.5 372,-0.5 254,-0.5"/>
<text text-anchor="start" x="262" y="-18.5" font-family="Helvetica,sans-Serif" font-size="10.00">include/yaclib/coroutine</text>
<text text-anchor="middle" x="313" y="-7.5" font-family="Helvetica,sans-Serif" font-size="10.00">/await_group.hpp</text>
</a>
</g>
</g>
<!-- Node3&#45;&gt;Node5 -->
<g id="edge4" class="edge">
<title>Node3&#45;&gt;Node5</title>
<path fill="none" stroke="midnightblue" d="M404.28,-62.85C384.04,-52.58 359.33,-40.03 340.72,-30.58"/>
<polygon fill="midnightblue" stroke="midnightblue" points="402.72,-65.99 413.23,-67.4 405.89,-59.75 402.72,-65.99"/>
</g>
<!-- Node3&#45;&gt;Node6 -->
<g id="edge5" class="edge">
<title>Node3&#45;&gt;Node6</title>
<path fill="none" stroke="midnightblue" d="M373.39,-73.03C306.09,-64.18 199.97,-49.06 109,-31 106.1,-30.42 103.13,-29.8 100.14,-29.15"/>
<polygon fill="midnightblue" stroke="midnightblue" points="373.08,-76.52 383.45,-74.35 373.98,-69.58 373.08,-76.52"/>
</g>
<!-- Node7 -->
<g id="node7" class="node">
<title>Node7</title>
<g id="a_node7"><a xlink:href="simple_8cpp.html" target="_top" xlink:title=" ">
<polygon fill="none" stroke="black" points="390.5,-0.5 390.5,-30.5 491.5,-30.5 491.5,-0.5 390.5,-0.5"/>
<text text-anchor="start" x="398.5" y="-18.5" font-family="Helvetica,sans-Serif" font-size="10.00">test/example/async</text>
<text text-anchor="middle" x="441" y="-7.5" font-family="Helvetica,sans-Serif" font-size="10.00">/simple.cpp</text>
</a>
</g>
</g>
<!-- Node3&#45;&gt;Node7 -->
<g id="edge6" class="edge">
<title>Node3&#45;&gt;Node7</title>
<path fill="none" stroke="midnightblue" d="M441,-57.11C441,-48.15 441,-38.32 441,-30.58"/>
<polygon fill="midnightblue" stroke="midnightblue" points="437.5,-57.4 441,-67.4 444.5,-57.4 437.5,-57.4"/>
</g>
<!-- Node8 -->
<g id="node8" class="node">
<title>Node8</title>
<g id="a_node8"><a xlink:href="when__all_8cpp.html" target="_top" xlink:title=" ">
<polygon fill="none" stroke="black" points="509.5,-0.5 509.5,-30.5 610.5,-30.5 610.5,-0.5 509.5,-0.5"/>
<text text-anchor="start" x="517.5" y="-18.5" font-family="Helvetica,sans-Serif" font-size="10.00">test/example/async</text>
<text text-anchor="middle" x="560" y="-7.5" font-family="Helvetica,sans-Serif" font-size="10.00">/when_all.cpp</text>
</a>
</g>
</g>
<!-- Node3&#45;&gt;Node8 -->
<g id="edge7" class="edge">
<title>Node3&#45;&gt;Node8</title>
<path fill="none" stroke="midnightblue" d="M475.65,-62.57C494.37,-52.35 517.09,-39.94 534.23,-30.58"/>
<polygon fill="midnightblue" stroke="midnightblue" points="473.92,-59.53 466.82,-67.4 477.28,-65.67 473.92,-59.53"/>
</g>
<!-- Node9 -->
<g id="node9" class="node">
<title>Node9</title>
<g id="a_node9"><a xlink:href="when__any_8cpp.html" target="_top" xlink:title=" ">
<polygon fill="none" stroke="black" points="628.5,-0.5 628.5,-30.5 729.5,-30.5 729.5,-0.5 628.5,-0.5"/>
<text text-anchor="start" x="636.5" y="-18.5" font-family="Helvetica,sans-Serif" font-size="10.00">test/example/async</text>
<text text-anchor="middle" x="679" y="-7.5" font-family="Helvetica,sans-Serif" font-size="10.00">/when_any.cpp</text>
</a>
</g>
</g>
<!-- Node3&#45;&gt;Node9 -->
<g id="edge8" class="edge">
<title>Node3&#45;&gt;Node9</title>
<path fill="none" stroke="midnightblue" d="M502.03,-64.83C541.11,-54.16 591.23,-40.47 628.15,-30.39"/>
<polygon fill="midnightblue" stroke="midnightblue" points="501.07,-61.46 492.35,-67.48 502.92,-68.22 501.07,-61.46"/>
</g>
<!-- Node10 -->
<g id="node10" class="node">
<title>Node10</title>
<g id="a_node10"><a xlink:href="test_2example_2executor_2strand_8cpp.html" target="_top" xlink:title=" ">
<polygon fill="none" stroke="black" points="748,-0.5 748,-30.5 860,-30.5 860,-0.5 748,-0.5"/>
<text text-anchor="start" x="756" y="-18.5" font-family="Helvetica,sans-Serif" font-size="10.00">test/example/executor</text>
<text text-anchor="middle" x="804" y="-7.5" font-family="Helvetica,sans-Serif" font-size="10.00">/strand.cpp</text>
</a>
</g>
</g>
<!-- Node3&#45;&gt;Node10 -->
<g id="edge9" class="edge">
<title>Node3&#45;&gt;Node10</title>
<path fill="none" stroke="midnightblue" d="M508.59,-66.96C611.84,-48.12 640,-49.74 739,-31 741.84,-30.46 744.75,-29.89 747.68,-29.3"/>
<polygon fill="midnightblue" stroke="midnightblue" points="507.9,-63.53 498.7,-68.79 509.17,-70.42 507.9,-63.53"/>
</g>
<!-- Node11 -->
<g id="node11" class="node">
<title>Node11</title>
<g id="a_node11"><a xlink:href="test_2example_2executor_2thread__pool_8cpp.html" target="_top" xlink:title=" ">
<polygon fill="none" stroke="black" points="878,-0.5 878,-30.5 990,-30.5 990,-0.5 878,-0.5"/>
<text text-anchor="start" x="886" y="-18.5" font-family="Helvetica,sans-Serif" font-size="10.00">test/example/executor</text>
<text text-anchor="middle" x="934" y="-7.5" font-family="Helvetica,sans-Serif" font-size="10.00">/thread_pool.cpp</text>
</a>
</g>
</g>
<!-- Node3&#45;&gt;Node11 -->
<g id="edge10" class="edge">
<title>Node3&#45;&gt;Node11</title>
<path fill="none" stroke="midnightblue" d="M508.88,-66.99C669.07,-42.49 713.07,-56.07 869,-31 871.85,-30.54 874.77,-30.03 877.71,-29.49"/>
<polygon fill="midnightblue" stroke="midnightblue" points="508.01,-63.59 498.67,-68.58 509.08,-70.51 508.01,-63.59"/>
</g>
</g>
</svg>
