<?xml version="1.0" encoding="UTF-8" standalone="no"?>
<!DOCTYPE svg PUBLIC "-//W3C//DTD SVG 1.1//EN"
 "http://www.w3.org/Graphics/SVG/1.1/DTD/svg11.dtd">
<!-- Generated by graphviz version 9.0.0 (20230911.1827)
 -->
<!-- Title: src/exe/strand.cpp Pages: 1 -->
<svg width="850pt" height="437pt"
 viewBox="0.00 0.00 850.09 436.50" xmlns="http://www.w3.org/2000/svg" xmlns:xlink="http://www.w3.org/1999/xlink">
<g id="graph0" class="graph" transform="scale(1 1) rotate(0) translate(4 432.5)">
<title>src/exe/strand.cpp</title>
<!-- Node1 -->
<g id="Node000001" class="node">
<title>Node1</title>
<g id="a_Node000001"><a xlink:title=" ">
<polygon fill="#999999" stroke="#666666" points="491.75,-428.5 396.25,-428.5 396.25,-409.25 491.75,-409.25 491.75,-428.5"/>
<text text-anchor="middle" x="444" y="-415" font-family="Helvetica,sans-Serif" font-size="10.00">src/exe/strand.cpp</text>
</a>
</g>
</g>
<!-- Node2 -->
<g id="Node000002" class="node">
<title>Node2</title>
<g id="a_Node000002"><a xlink:href="strand_8hpp.html" target="_top" xlink:title=" ">
<polygon fill="white" stroke="#666666" points="383.38,-373.25 276.62,-373.25 276.62,-354 383.38,-354 383.38,-373.25"/>
<text text-anchor="middle" x="330" y="-359.75" font-family="Helvetica,sans-Serif" font-size="10.00">yaclib/exe/strand.hpp</text>
</a>
</g>
</g>
<!-- Node1&#45;&gt;Node2 -->
<g id="edge1_Node000001_Node000002" class="edge">
<title>Node1&#45;&gt;Node2</title>
<g id="a_edge1_Node000001_Node000002"><a xlink:title=" ">
<path fill="none" stroke="#63b8ff" d="M424.66,-408.84C406.89,-400.54 380.28,-388.11 359.8,-378.54"/>
<polygon fill="#63b8ff" stroke="#63b8ff" points="361.35,-375.4 350.8,-374.34 358.38,-381.75 361.35,-375.4"/>
</a>
</g>
</g>
<!-- Node5 -->
<g id="Node000005" class="node">
<title>Node5</title>
<g id="a_Node000005"><a xlink:href="log_8hpp.html" target="_top" xlink:title=" ">
<polygon fill="white" stroke="#666666" points="144.25,-74.5 69.75,-74.5 69.75,-55.25 144.25,-55.25 144.25,-74.5"/>
<text text-anchor="middle" x="107" y="-61" font-family="Helvetica,sans-Serif" font-size="10.00">yaclib/log.hpp</text>
</a>
</g>
</g>
<!-- Node1&#45;&gt;Node5 -->
<g id="edge20_Node000001_Node000005" class="edge">
<title>Node1&#45;&gt;Node5</title>
<g id="a_edge20_Node000001_Node000005"><a xlink:title=" ">
<path fill="none" stroke="#63b8ff" d="M396.06,-416.26C281.25,-411.1 0,-390.21 0,-309.38 0,-309.38 0,-309.38 0,-191.25 0,-141.41 49.52,-101.36 81.18,-80.85"/>
<polygon fill="#63b8ff" stroke="#63b8ff" points="82.83,-83.94 89.46,-75.68 79.13,-78 82.83,-83.94"/>
</a>
</g>
</g>
<!-- Node12 -->
<g id="Node000012" class="node">
<title>Node12</title>
<g id="a_Node000012"><a xlink:title=" ">
<polygon fill="#e0e0e0" stroke="#999999" points="448.25,-135.38 409.75,-135.38 409.75,-116.12 448.25,-116.12 448.25,-135.38"/>
<text text-anchor="middle" x="429" y="-121.88" font-family="Helvetica,sans-Serif" font-size="10.00">utility</text>
</a>
</g>
</g>
<!-- Node1&#45;&gt;Node12 -->
<g id="edge32_Node000001_Node000012" class="edge">
<title>Node1&#45;&gt;Node12</title>
<g id="a_edge32_Node000001_Node000012"><a xlink:title=" ">
<path fill="none" stroke="#63b8ff" d="M448.44,-408.84C457.01,-390.53 475,-347.58 475,-309.38 475,-309.38 475,-309.38 475,-252.12 475,-212.29 454.28,-169.46 440.66,-145.59"/>
<polygon fill="#63b8ff" stroke="#63b8ff" points="443.71,-143.88 435.6,-137.07 437.69,-147.45 443.71,-143.88"/>
</a>
</g>
</g>
<!-- Node16 -->
<g id="Node000016" class="node">
<title>Node16</title>
<g id="a_Node000016"><a xlink:href="helper_8hpp.html" target="_top" xlink:title=" ">
<polygon fill="white" stroke="#666666" points="637.88,-262.75 534.12,-262.75 534.12,-243.5 637.88,-243.5 637.88,-262.75"/>
<text text-anchor="middle" x="586" y="-249.25" font-family="Helvetica,sans-Serif" font-size="10.00">yaclib/util/helper.hpp</text>
</a>
</g>
</g>
<!-- Node1&#45;&gt;Node16 -->
<g id="edge21_Node000001_Node000016" class="edge">
<title>Node1&#45;&gt;Node16</title>
<g id="a_edge21_Node000001_Node000016"><a xlink:title=" ">
<path fill="none" stroke="#63b8ff" d="M453.6,-408.93C462.92,-400.11 477.32,-386.13 489,-373.25 520.35,-338.67 554.17,-295.7 572.43,-271.97"/>
<polygon fill="#63b8ff" stroke="#63b8ff" points="575.03,-274.33 578.33,-264.26 569.47,-270.07 575.03,-274.33"/>
</a>
</g>
</g>
<!-- Node3 -->
<g id="Node000003" class="node">
<title>Node3</title>
<g id="a_Node000003"><a xlink:href="executor_8hpp.html" target="_top" xlink:title=" ">
<polygon fill="white" stroke="#666666" points="331.25,-318 214.75,-318 214.75,-298.75 331.25,-298.75 331.25,-318"/>
<text text-anchor="middle" x="273" y="-304.5" font-family="Helvetica,sans-Serif" font-size="10.00">yaclib/exe/executor.hpp</text>
</a>
</g>
</g>
<!-- Node2&#45;&gt;Node3 -->
<g id="edge2_Node000002_Node000003" class="edge">
<title>Node2&#45;&gt;Node3</title>
<g id="a_edge2_Node000002_Node000003"><a xlink:title=" ">
<path fill="none" stroke="#63b8ff" d="M320.33,-353.59C312.26,-346.05 300.53,-335.1 290.78,-325.98"/>
<polygon fill="#63b8ff" stroke="#63b8ff" points="293.33,-323.58 283.63,-319.31 288.55,-328.69 293.33,-323.58"/>
</a>
</g>
</g>
<!-- Node4 -->
<g id="Node000004" class="node">
<title>Node4</title>
<g id="a_Node000004"><a xlink:href="job_8hpp.html" target="_top" xlink:title=" ">
<polygon fill="white" stroke="#666666" points="233.25,-262.75 140.75,-262.75 140.75,-243.5 233.25,-243.5 233.25,-262.75"/>
<text text-anchor="middle" x="187" y="-249.25" font-family="Helvetica,sans-Serif" font-size="10.00">yaclib/exe/job.hpp</text>
</a>
</g>
</g>
<!-- Node2&#45;&gt;Node4 -->
<g id="edge18_Node000002_Node000004" class="edge">
<title>Node2&#45;&gt;Node4</title>
<g id="a_edge18_Node000002_Node000004"><a xlink:title=" ">
<path fill="none" stroke="#63b8ff" d="M276.29,-354.65C251.87,-348.45 224.39,-337.45 206,-318 194.93,-306.28 190.28,-288.4 188.34,-274.53"/>
<polygon fill="#63b8ff" stroke="#63b8ff" points="191.84,-274.33 187.37,-264.72 184.87,-275.02 191.84,-274.33"/>
</a>
</g>
</g>
<!-- Node15 -->
<g id="Node000015" class="node">
<title>Node15</title>
<g id="a_Node000015"><a xlink:title=" ">
<polygon fill="#e0e0e0" stroke="#999999" points="557.88,-135.38 466.12,-135.38 466.12,-116.12 557.88,-116.12 557.88,-135.38"/>
<text text-anchor="middle" x="512" y="-121.88" font-family="Helvetica,sans-Serif" font-size="10.00">yaclib_std/atomic</text>
</a>
</g>
</g>
<!-- Node2&#45;&gt;Node15 -->
<g id="edge19_Node000002_Node000015" class="edge">
<title>Node2&#45;&gt;Node15</title>
<g id="a_edge19_Node000002_Node000015"><a xlink:title=" ">
<path fill="none" stroke="#63b8ff" d="M336.91,-353.67C363.77,-318.86 461.51,-192.18 498.07,-144.8"/>
<polygon fill="#63b8ff" stroke="#63b8ff" points="500.82,-146.97 504.16,-136.92 495.28,-142.69 500.82,-146.97"/>
</a>
</g>
</g>
<!-- Node3&#45;&gt;Node4 -->
<g id="edge3_Node000003_Node000004" class="edge">
<title>Node3&#45;&gt;Node4</title>
<g id="a_edge3_Node000003_Node000004"><a xlink:title=" ">
<path fill="none" stroke="#63b8ff" d="M258.41,-298.34C245.56,-290.39 226.59,-278.64 211.43,-269.25"/>
<polygon fill="#63b8ff" stroke="#63b8ff" points="213.29,-266.29 202.95,-264 209.61,-272.24 213.29,-266.29"/>
</a>
</g>
</g>
<!-- Node13 -->
<g id="Node000013" class="node">
<title>Node13</title>
<g id="a_Node000013"><a xlink:href="intrusive__ptr_8hpp.html" target="_top" xlink:title=" ">
<polygon fill="white" stroke="#666666" points="295.12,-207.5 198.88,-207.5 198.88,-177 295.12,-177 295.12,-207.5"/>
<text text-anchor="start" x="206.88" y="-194" font-family="Helvetica,sans-Serif" font-size="10.00">yaclib/util/intrusive</text>
<text text-anchor="middle" x="247" y="-182.75" font-family="Helvetica,sans-Serif" font-size="10.00">_ptr.hpp</text>
</a>
</g>
</g>
<!-- Node3&#45;&gt;Node13 -->
<g id="edge13_Node000003_Node000013" class="edge">
<title>Node3&#45;&gt;Node13</title>
<g id="a_edge13_Node000003_Node000013"><a xlink:title=" ">
<path fill="none" stroke="#63b8ff" d="M270.96,-298.42C267.09,-281.45 258.58,-244.06 252.81,-218.76"/>
<polygon fill="#63b8ff" stroke="#63b8ff" points="256.28,-218.22 250.64,-209.24 249.45,-219.77 256.28,-218.22"/>
</a>
</g>
</g>
<!-- Node4&#45;&gt;Node5 -->
<g id="edge4_Node000004_Node000005" class="edge">
<title>Node4&#45;&gt;Node5</title>
<g id="a_edge4_Node000004_Node000005"><a xlink:title=" ">
<path fill="none" stroke="#63b8ff" d="M179.18,-243.21C166.68,-229 141.31,-200.45 119,-177 103.4,-160.61 91.66,-161.91 83,-141 75.17,-122.09 84.67,-99.64 93.93,-84.24"/>
<polygon fill="#63b8ff" stroke="#63b8ff" points="96.71,-86.39 99.26,-76.1 90.85,-82.55 96.71,-86.39"/>
</a>
</g>
</g>
<!-- Node7 -->
<g id="Node000007" class="node">
<title>Node7</title>
<g id="a_Node000007"><a xlink:href="node_8hpp.html" target="_top" xlink:title=" ">
<polygon fill="white" stroke="#666666" points="110.38,-207.5 27.62,-207.5 27.62,-177 110.38,-177 110.38,-207.5"/>
<text text-anchor="start" x="35.62" y="-194" font-family="Helvetica,sans-Serif" font-size="10.00">yaclib/util/detail</text>
<text text-anchor="middle" x="69" y="-182.75" font-family="Helvetica,sans-Serif" font-size="10.00">/node.hpp</text>
</a>
</g>
</g>
<!-- Node4&#45;&gt;Node7 -->
<g id="edge6_Node000004_Node000007" class="edge">
<title>Node4&#45;&gt;Node7</title>
<g id="a_edge6_Node000004_Node000007"><a xlink:title=" ">
<path fill="none" stroke="#63b8ff" d="M168.82,-243.05C152.86,-235.09 129.07,-223.22 108.72,-213.07"/>
<polygon fill="#63b8ff" stroke="#63b8ff" points="110.32,-209.95 99.81,-208.62 107.19,-216.22 110.32,-209.95"/>
</a>
</g>
</g>
<!-- Node8 -->
<g id="Node000008" class="node">
<title>Node8</title>
<g id="a_Node000008"><a xlink:href="func_8hpp.html" target="_top" xlink:title=" ">
<polygon fill="white" stroke="#666666" points="409.12,-201.88 312.88,-201.88 312.88,-182.62 409.12,-182.62 409.12,-201.88"/>
<text text-anchor="middle" x="361" y="-188.38" font-family="Helvetica,sans-Serif" font-size="10.00">yaclib/util/func.hpp</text>
</a>
</g>
</g>
<!-- Node4&#45;&gt;Node8 -->
<g id="edge7_Node000004_Node000008" class="edge">
<title>Node4&#45;&gt;Node8</title>
<g id="a_edge7_Node000004_Node000008"><a xlink:title=" ">
<path fill="none" stroke="#63b8ff" d="M213.81,-243.05C243.18,-233.11 290.52,-217.1 323.56,-205.92"/>
<polygon fill="#63b8ff" stroke="#63b8ff" points="324.38,-209.34 332.73,-202.82 322.14,-202.71 324.38,-209.34"/>
</a>
</g>
</g>
<!-- Node6 -->
<g id="Node000006" class="node">
<title>Node6</title>
<g id="a_Node000006"><a xlink:title=" ">
<polygon fill="#e0e0e0" stroke="#999999" points="139.75,-19.25 74.25,-19.25 74.25,0 139.75,0 139.75,-19.25"/>
<text text-anchor="middle" x="107" y="-5.75" font-family="Helvetica,sans-Serif" font-size="10.00">string_view</text>
</a>
</g>
</g>
<!-- Node5&#45;&gt;Node6 -->
<g id="edge5_Node000005_Node000006" class="edge">
<title>Node5&#45;&gt;Node6</title>
<g id="a_edge5_Node000005_Node000006"><a xlink:title=" ">
<path fill="none" stroke="#63b8ff" d="M107,-55.08C107,-48.57 107,-39.42 107,-31.12"/>
<polygon fill="#63b8ff" stroke="#63b8ff" points="110.5,-31.12 107,-21.12 103.5,-31.12 110.5,-31.12"/>
</a>
</g>
</g>
<!-- Node9 -->
<g id="Node000009" class="node">
<title>Node9</title>
<g id="a_Node000009"><a xlink:href="ref_8hpp.html" target="_top" xlink:title=" ">
<polygon fill="white" stroke="#666666" points="312.38,-135.38 223.62,-135.38 223.62,-116.12 312.38,-116.12 312.38,-135.38"/>
<text text-anchor="middle" x="268" y="-121.88" font-family="Helvetica,sans-Serif" font-size="10.00">yaclib/util/ref.hpp</text>
</a>
</g>
</g>
<!-- Node8&#45;&gt;Node9 -->
<g id="edge8_Node000008_Node000009" class="edge">
<title>Node8&#45;&gt;Node9</title>
<g id="a_edge8_Node000008_Node000009"><a xlink:title=" ">
<path fill="none" stroke="#63b8ff" d="M348.07,-182.28C333.16,-171.94 308.4,-154.77 290.35,-142.25"/>
<polygon fill="#63b8ff" stroke="#63b8ff" points="292.58,-139.54 282.36,-136.71 288.59,-145.29 292.58,-139.54"/>
</a>
</g>
</g>
<!-- Node11 -->
<g id="Node000011" class="node">
<title>Node11</title>
<g id="a_Node000011"><a xlink:title=" ">
<polygon fill="#e0e0e0" stroke="#999999" points="391.5,-135.38 330.5,-135.38 330.5,-116.12 391.5,-116.12 391.5,-135.38"/>
<text text-anchor="middle" x="361" y="-121.88" font-family="Helvetica,sans-Serif" font-size="10.00">type_traits</text>
</a>
</g>
</g>
<!-- Node8&#45;&gt;Node11 -->
<g id="edge11_Node000008_Node000011" class="edge">
<title>Node8&#45;&gt;Node11</title>
<g id="a_edge11_Node000008_Node000011"><a xlink:title=" ">
<path fill="none" stroke="#63b8ff" d="M361,-182.28C361,-173.23 361,-158.95 361,-147.13"/>
<polygon fill="#63b8ff" stroke="#63b8ff" points="364.5,-147.16 361,-137.16 357.5,-147.16 364.5,-147.16"/>
</a>
</g>
</g>
<!-- Node8&#45;&gt;Node12 -->
<g id="edge12_Node000008_Node000012" class="edge">
<title>Node8&#45;&gt;Node12</title>
<g id="a_edge12_Node000008_Node000012"><a xlink:title=" ">
<path fill="none" stroke="#63b8ff" d="M370.46,-182.28C381.01,-172.27 398.32,-155.85 411.39,-143.45"/>
<polygon fill="#63b8ff" stroke="#63b8ff" points="413.68,-146.11 418.53,-136.68 408.86,-141.03 413.68,-146.11"/>
</a>
</g>
</g>
<!-- Node9&#45;&gt;Node5 -->
<g id="edge9_Node000009_Node000005" class="edge">
<title>Node9&#45;&gt;Node5</title>
<g id="a_edge9_Node000009_Node000005"><a xlink:title=" ">
<path fill="none" stroke="#63b8ff" d="M243.2,-115.68C216.25,-105.83 172.97,-90 142.45,-78.84"/>
<polygon fill="#63b8ff" stroke="#63b8ff" points="143.85,-75.62 133.25,-75.48 141.44,-82.2 143.85,-75.62"/>
</a>
</g>
</g>
<!-- Node10 -->
<g id="Node000010" class="node">
<title>Node10</title>
<g id="a_Node000010"><a xlink:title=" ">
<polygon fill="#e0e0e0" stroke="#999999" points="610.12,-74.5 561.88,-74.5 561.88,-55.25 610.12,-55.25 610.12,-74.5"/>
<text text-anchor="middle" x="586" y="-61" font-family="Helvetica,sans-Serif" font-size="10.00">cstddef</text>
</a>
</g>
</g>
<!-- Node9&#45;&gt;Node10 -->
<g id="edge10_Node000009_Node000010" class="edge">
<title>Node9&#45;&gt;Node10</title>
<g id="a_edge10_Node000009_Node000010"><a xlink:title=" ">
<path fill="none" stroke="#63b8ff" d="M299.83,-115.66C306.78,-113.83 314.11,-112 321,-110.5 402.45,-92.74 499.29,-78.03 550.37,-70.77"/>
<polygon fill="#63b8ff" stroke="#63b8ff" points="550.82,-74.24 560.24,-69.38 549.85,-67.31 550.82,-74.24"/>
</a>
</g>
</g>
<!-- Node13&#45;&gt;Node9 -->
<g id="edge14_Node000013_Node000009" class="edge">
<title>Node13&#45;&gt;Node9</title>
<g id="a_edge14_Node000013_Node000009"><a xlink:title=" ">
<path fill="none" stroke="#63b8ff" d="M251.77,-176.61C254.69,-167.63 258.47,-156.01 261.65,-146.26"/>
<polygon fill="#63b8ff" stroke="#63b8ff" points="264.89,-147.6 264.66,-137.01 258.23,-145.44 264.89,-147.6"/>
</a>
</g>
</g>
<!-- Node13&#45;&gt;Node11 -->
<g id="edge15_Node000013_Node000011" class="edge">
<title>Node13&#45;&gt;Node11</title>
<g id="a_edge15_Node000013_Node000011"><a xlink:title=" ">
<path fill="none" stroke="#63b8ff" d="M272.87,-176.61C291.52,-166.06 316.58,-151.88 335.21,-141.34"/>
<polygon fill="#63b8ff" stroke="#63b8ff" points="336.78,-144.48 343.76,-136.51 333.33,-138.38 336.78,-144.48"/>
</a>
</g>
</g>
<!-- Node14 -->
<g id="Node000014" class="node">
<title>Node14</title>
<g id="a_Node000014"><a xlink:href="intrusive__ptr__impl_8hpp.html" target="_top" xlink:title=" ">
<polygon fill="white" stroke="#666666" points="205.75,-141 92.25,-141 92.25,-110.5 205.75,-110.5 205.75,-141"/>
<text text-anchor="start" x="100.25" y="-127.5" font-family="Helvetica,sans-Serif" font-size="10.00">yaclib/util/detail</text>
<text text-anchor="middle" x="149" y="-116.25" font-family="Helvetica,sans-Serif" font-size="10.00">/intrusive_ptr_impl.hpp</text>
</a>
</g>
</g>
<!-- Node13&#45;&gt;Node14 -->
<g id="edge16_Node000013_Node000014" class="edge">
<title>Node13&#45;&gt;Node14</title>
<g id="a_edge16_Node000013_Node000014"><a xlink:title=" ">
<path fill="none" stroke="#63b8ff" d="M224.76,-176.61C211.73,-168.04 195.06,-157.06 180.67,-147.59"/>
<polygon fill="#63b8ff" stroke="#63b8ff" points="182.69,-144.73 172.41,-142.16 178.84,-150.58 182.69,-144.73"/>
</a>
</g>
</g>
<!-- Node14&#45;&gt;Node5 -->
<g id="edge17_Node000014_Node000005" class="edge">
<title>Node14&#45;&gt;Node5</title>
<g id="a_edge17_Node000014_Node000005"><a xlink:title=" ">
<path fill="none" stroke="#63b8ff" d="M138.62,-110.2C133.02,-102.35 126.06,-92.6 120.1,-84.24"/>
<polygon fill="#63b8ff" stroke="#63b8ff" points="123.01,-82.29 114.35,-76.18 117.31,-86.36 123.01,-82.29"/>
</a>
</g>
</g>
<!-- Node16&#45;&gt;Node10 -->
<g id="edge31_Node000016_Node000010" class="edge">
<title>Node16&#45;&gt;Node10</title>
<g id="a_edge31_Node000016_Node000010"><a xlink:title=" ">
<path fill="none" stroke="#63b8ff" d="M637.9,-246.68C692.75,-239.99 774.63,-227.08 799,-207.5 834.18,-179.24 857.88,-145.17 829,-110.5 803.07,-79.37 683.09,-69.88 621.98,-67.05"/>
<polygon fill="#63b8ff" stroke="#63b8ff" points="622.24,-63.56 612.1,-66.63 621.94,-70.55 622.24,-63.56"/>
</a>
</g>
</g>
<!-- Node16&#45;&gt;Node13 -->
<g id="edge30_Node000016_Node000013" class="edge">
<title>Node16&#45;&gt;Node13</title>
<g id="a_edge30_Node000016_Node000013"><a xlink:title=" ">
<path fill="none" stroke="#63b8ff" d="M533.78,-245.26C479.37,-237.8 391.43,-224.87 306.58,-207.92"/>
<polygon fill="#63b8ff" stroke="#63b8ff" points="307.42,-204.52 296.93,-205.97 306.04,-211.38 307.42,-204.52"/>
</a>
</g>
</g>
<!-- Node17 -->
<g id="Node000017" class="node">
<title>Node17</title>
<g id="a_Node000017"><a xlink:href="atomic__counter_8hpp.html" target="_top" xlink:title=" ">
<polygon fill="white" stroke="#666666" points="637.88,-207.5 534.12,-207.5 534.12,-177 637.88,-177 637.88,-207.5"/>
<text text-anchor="start" x="542.12" y="-194" font-family="Helvetica,sans-Serif" font-size="10.00">yaclib/util/detail</text>
<text text-anchor="middle" x="586" y="-182.75" font-family="Helvetica,sans-Serif" font-size="10.00">/atomic_counter.hpp</text>
</a>
</g>
</g>
<!-- Node16&#45;&gt;Node17 -->
<g id="edge22_Node000016_Node000017" class="edge">
<title>Node16&#45;&gt;Node17</title>
<g id="a_edge22_Node000016_Node000017"><a xlink:title=" ">
<path fill="none" stroke="#63b8ff" d="M586,-243.18C586,-236.73 586,-227.66 586,-219.01"/>
<polygon fill="#63b8ff" stroke="#63b8ff" points="589.5,-219.3 586,-209.3 582.5,-219.3 589.5,-219.3"/>
</a>
</g>
</g>
<!-- Node20 -->
<g id="Node000020" class="node">
<title>Node20</title>
<g id="a_Node000020"><a xlink:href="unique__counter_8hpp.html" target="_top" xlink:title=" ">
<polygon fill="white" stroke="#666666" points="789.5,-207.5 686.5,-207.5 686.5,-177 789.5,-177 789.5,-207.5"/>
<text text-anchor="start" x="694.5" y="-194" font-family="Helvetica,sans-Serif" font-size="10.00">yaclib/util/detail</text>
<text text-anchor="middle" x="738" y="-182.75" font-family="Helvetica,sans-Serif" font-size="10.00">/unique_counter.hpp</text>
</a>
</g>
</g>
<!-- Node16&#45;&gt;Node20 -->
<g id="edge28_Node000016_Node000020" class="edge">
<title>Node16&#45;&gt;Node20</title>
<g id="a_edge28_Node000016_Node000020"><a xlink:title=" ">
<path fill="none" stroke="#63b8ff" d="M609.42,-243.05C630.64,-234.83 662.6,-222.45 689.35,-212.1"/>
<polygon fill="#63b8ff" stroke="#63b8ff" points="690.59,-215.37 698.65,-208.49 688.06,-208.84 690.59,-215.37"/>
</a>
</g>
</g>
<!-- Node17&#45;&gt;Node10 -->
<g id="edge25_Node000017_Node000010" class="edge">
<title>Node17&#45;&gt;Node10</title>
<g id="a_edge25_Node000017_Node000010"><a xlink:title=" ">
<path fill="none" stroke="#63b8ff" d="M586,-176.87C586,-154.53 586,-111.42 586,-86"/>
<polygon fill="#63b8ff" stroke="#63b8ff" points="589.5,-86.33 586,-76.33 582.5,-86.33 589.5,-86.33"/>
</a>
</g>
</g>
<!-- Node17&#45;&gt;Node12 -->
<g id="edge26_Node000017_Node000012" class="edge">
<title>Node17&#45;&gt;Node12</title>
<g id="a_edge26_Node000017_Node000012"><a xlink:title=" ">
<path fill="none" stroke="#63b8ff" d="M545.19,-176.54C519.6,-167.02 486.06,-154.02 457,-141 456.78,-140.9 456.55,-140.8 456.33,-140.7"/>
<polygon fill="#63b8ff" stroke="#63b8ff" points="457.94,-137.59 447.41,-136.42 454.91,-143.9 457.94,-137.59"/>
</a>
</g>
</g>
<!-- Node17&#45;&gt;Node15 -->
<g id="edge27_Node000017_Node000015" class="edge">
<title>Node17&#45;&gt;Node15</title>
<g id="a_edge27_Node000017_Node000015"><a xlink:title=" ">
<path fill="none" stroke="#63b8ff" d="M569.21,-176.61C557.77,-166.64 542.61,-153.43 530.77,-143.11"/>
<polygon fill="#63b8ff" stroke="#63b8ff" points="533.1,-140.5 523.26,-136.57 528.5,-145.78 533.1,-140.5"/>
</a>
</g>
</g>
<!-- Node18 -->
<g id="Node000018" class="node">
<title>Node18</title>
<g id="a_Node000018"><a xlink:title=" ">
<polygon fill="#e0e0e0" stroke="#999999" points="701.62,-135.38 614.38,-135.38 614.38,-116.12 701.62,-116.12 701.62,-135.38"/>
<text text-anchor="middle" x="658" y="-121.88" font-family="Helvetica,sans-Serif" font-size="10.00">yaclib/config.hpp</text>
</a>
</g>
</g>
<!-- Node17&#45;&gt;Node18 -->
<g id="edge23_Node000017_Node000018" class="edge">
<title>Node17&#45;&gt;Node18</title>
<g id="a_edge23_Node000017_Node000018"><a xlink:title=" ">
<path fill="none" stroke="#63b8ff" d="M602.34,-176.61C613.47,-166.64 628.22,-153.43 639.74,-143.11"/>
<polygon fill="#63b8ff" stroke="#63b8ff" points="641.91,-145.86 647.02,-136.58 637.24,-140.65 641.91,-145.86"/>
</a>
</g>
</g>
<!-- Node19 -->
<g id="Node000019" class="node">
<title>Node19</title>
<g id="a_Node000019"><a xlink:href="default__deleter_8hpp.html" target="_top" xlink:title=" ">
<polygon fill="white" stroke="#666666" points="820.38,-141 719.62,-141 719.62,-110.5 820.38,-110.5 820.38,-141"/>
<text text-anchor="start" x="727.62" y="-127.5" font-family="Helvetica,sans-Serif" font-size="10.00">yaclib/util/detail</text>
<text text-anchor="middle" x="770" y="-116.25" font-family="Helvetica,sans-Serif" font-size="10.00">/default_deleter.hpp</text>
</a>
</g>
</g>
<!-- Node17&#45;&gt;Node19 -->
<g id="edge24_Node000017_Node000019" class="edge">
<title>Node17&#45;&gt;Node19</title>
<g id="a_edge24_Node000017_Node000019"><a xlink:title=" ">
<path fill="none" stroke="#63b8ff" d="M627.75,-176.61C654.36,-167.29 689.06,-155.12 717.52,-145.15"/>
<polygon fill="#63b8ff" stroke="#63b8ff" points="718.39,-148.55 726.67,-141.94 716.07,-141.95 718.39,-148.55"/>
</a>
</g>
</g>
<!-- Node20&#45;&gt;Node19 -->
<g id="edge29_Node000020_Node000019" class="edge">
<title>Node20&#45;&gt;Node19</title>
<g id="a_edge29_Node000020_Node000019"><a xlink:title=" ">
<path fill="none" stroke="#63b8ff" d="M745.26,-176.61C748.94,-169.19 753.52,-159.97 757.73,-151.49"/>
<polygon fill="#63b8ff" stroke="#63b8ff" points="760.79,-153.2 762.09,-142.68 754.52,-150.09 760.79,-153.2"/>
</a>
</g>
</g>
</g>
</svg>
