<?xml version="1.0" encoding="UTF-8" standalone="no"?>
<!DOCTYPE svg PUBLIC "-//W3C//DTD SVG 1.1//EN"
 "http://www.w3.org/Graphics/SVG/1.1/DTD/svg11.dtd">
<!-- Generated by graphviz version 3.0.0 (20220413.0242)
 -->
<!-- Title: include/yaclib/fault/detail/fiber/stack_allocator.hpp Pages: 1 -->
<!--zoomable 619 -->
<svg id="main" version="1.1" xmlns="http://www.w3.org/2000/svg" xmlns:xlink="http://www.w3.org/1999/xlink" xml:space="preserve" onload="init(evt)">
<style type="text/css"><![CDATA[
.edge:hover path { stroke: red; }
.edge:hover polygon { stroke: red; fill: red; }
]]></style>
<script type="text/javascript"><![CDATA[
var edges = document.getElementsByTagName('g');
if (edges && edges.length) {
  for (var i=0;i<edges.length;i++) {
    if (edges[i].id.substr(0,4)=='edge') {
      edges[i].setAttribute('class','edge');
    }
  }
}
]]></script>
        <defs>
                <circle id="rim" cx="0" cy="0" r="7"/>
                <circle id="rim2" cx="0" cy="0" r="3.5"/>
                <g id="zoomPlus">
                        <use xlink:href="#rim" fill="#404040">
                                <set attributeName="fill" to="#808080" begin="zoomplus.mouseover" end="zoomplus.mouseout"/>
                        </use>
                        <path d="M-4,0h8M0,-4v8" fill="none" stroke="white" stroke-width="1.5" pointer-events="none"/>
                </g>
                <g id="zoomMin">
                        <use xlink:href="#rim" fill="#404040">
                                <set attributeName="fill" to="#808080" begin="zoomminus.mouseover" end="zoomminus.mouseout"/>
                        </use>
                        <path d="M-4,0h8" fill="none" stroke="white" stroke-width="1.5" pointer-events="none"/>
                </g>
                <g id="dirArrow">
                        <path fill="none" stroke="white" stroke-width="1.5" d="M0,-3.0v7 M-2.5,-0.5L0,-3.0L2.5,-0.5"/>
                </g>
               <g id="resetDef">
                       <use xlink:href="#rim2" fill="#404040">
                               <set attributeName="fill" to="#808080" begin="reset.mouseover" end="reset.mouseout"/>
                       </use>
               </g>
        </defs>

<script type="text/javascript">
var viewWidth = 1337;
var viewHeight = 619;
var sectionId = 'dynsection-1';
</script>
<script xlink:href="svgpan.js"/>
<svg id="graph" class="graph">
<g id="viewport">
<title>include/yaclib/fault/detail/fiber/stack_allocator.hpp</title>
<!-- Node1 -->
<g id="node1" class="node">
<title>Node1</title>
<g id="a_node1"><a xlink:title=" ">
<polygon fill="#bfbfbf" stroke="black" points="961,-580.5 961,-610.5 1112,-610.5 1112,-580.5 961,-580.5"/>
<text text-anchor="start" x="969" y="-598.5" font-family="Helvetica,sans-Serif" font-size="10.00">include/yaclib/fault</text>
<text text-anchor="middle" x="1036.5" y="-587.5" font-family="Helvetica,sans-Serif" font-size="10.00">/detail/fiber/stack_allocator.hpp</text>
</a>
</g>
</g>
<!-- Node2 -->
<g id="node2" class="node">
<title>Node2</title>
<g id="a_node2"><a xlink:href="default__allocator_8hpp.html" target="_top" xlink:title=" ">
<polygon fill="none" stroke="black" points="988,-502.5 988,-543.5 1085,-543.5 1085,-502.5 988,-502.5"/>
<text text-anchor="start" x="996" y="-531.5" font-family="Helvetica,sans-Serif" font-size="10.00">include/yaclib/fault</text>
<text text-anchor="start" x="996" y="-520.5" font-family="Helvetica,sans-Serif" font-size="10.00">/detail/fiber/default</text>
<text text-anchor="middle" x="1036.5" y="-509.5" font-family="Helvetica,sans-Serif" font-size="10.00">_allocator.hpp</text>
</a>
</g>
</g>
<!-- Node1&#45;&gt;Node2 -->
<g id="edge1" class="edge">
<title>Node1&#45;&gt;Node2</title>
<path fill="none" stroke="midnightblue" d="M1036.5,-569.98C1036.5,-561.35 1036.5,-551.76 1036.5,-543.59"/>
<polygon fill="midnightblue" stroke="midnightblue" points="1033,-570.23 1036.5,-580.23 1040,-570.23 1033,-570.23"/>
</g>
<!-- Node3 -->
<g id="node3" class="node">
<title>Node3</title>
<g id="a_node3"><a xlink:href="fiber__base_8hpp.html" target="_top" xlink:title=" ">
<polygon fill="none" stroke="black" points="1065,-435.5 1065,-465.5 1194,-465.5 1194,-435.5 1065,-435.5"/>
<text text-anchor="start" x="1073" y="-453.5" font-family="Helvetica,sans-Serif" font-size="10.00">include/yaclib/fault</text>
<text text-anchor="middle" x="1129.5" y="-442.5" font-family="Helvetica,sans-Serif" font-size="10.00">/detail/fiber/fiber_base.hpp</text>
</a>
</g>
</g>
<!-- Node1&#45;&gt;Node3 -->
<g id="edge42" class="edge">
<title>Node1&#45;&gt;Node3</title>
<path fill="none" stroke="midnightblue" d="M1064.79,-574.01C1074.89,-565.6 1085.69,-555.21 1093.5,-544 1110.84,-519.11 1121.35,-484.73 1126.23,-465.66"/>
<polygon fill="midnightblue" stroke="midnightblue" points="1062.55,-571.33 1056.92,-580.3 1066.91,-576.8 1062.55,-571.33"/>
</g>
<!-- Node23 -->
<g id="node23" class="node">
<title>Node23</title>
<g id="a_node23"><a xlink:href="scheduler_8hpp.html" target="_top" xlink:title=" ">
<polygon fill="none" stroke="black" points="815,-368.5 815,-398.5 942,-398.5 942,-368.5 815,-368.5"/>
<text text-anchor="start" x="823" y="-386.5" font-family="Helvetica,sans-Serif" font-size="10.00">include/yaclib/fault</text>
<text text-anchor="middle" x="878.5" y="-375.5" font-family="Helvetica,sans-Serif" font-size="10.00">/detail/fiber/scheduler.hpp</text>
</a>
</g>
</g>
<!-- Node1&#45;&gt;Node23 -->
<g id="edge43" class="edge">
<title>Node1&#45;&gt;Node23</title>
<path fill="none" stroke="midnightblue" d="M950.65,-581.35C908.52,-572.96 864.13,-560.54 851.5,-544 817.75,-499.8 852.36,-428.56 869.77,-398.55"/>
<polygon fill="midnightblue" stroke="midnightblue" points="950.24,-584.84 960.72,-583.29 951.56,-577.96 950.24,-584.84"/>
</g>
<!-- Node31 -->
<g id="node31" class="node">
<title>Node31</title>
<g id="a_node31"><a xlink:href="execution__context_8hpp.html" target="_top" xlink:title=" ">
<polygon fill="none" stroke="black" points="1141.5,-502.5 1141.5,-543.5 1249.5,-543.5 1249.5,-502.5 1141.5,-502.5"/>
<text text-anchor="start" x="1149.5" y="-531.5" font-family="Helvetica,sans-Serif" font-size="10.00">include/yaclib/fault</text>
<text text-anchor="start" x="1149.5" y="-520.5" font-family="Helvetica,sans-Serif" font-size="10.00">/detail/fiber/execution</text>
<text text-anchor="middle" x="1195.5" y="-509.5" font-family="Helvetica,sans-Serif" font-size="10.00">_context.hpp</text>
</a>
</g>
</g>
<!-- Node1&#45;&gt;Node31 -->
<g id="edge39" class="edge">
<title>Node1&#45;&gt;Node31</title>
<path fill="none" stroke="midnightblue" d="M1077.63,-576.26C1100.25,-566.23 1128.34,-553.78 1151.42,-543.55"/>
<polygon fill="midnightblue" stroke="midnightblue" points="1076.02,-573.15 1068.29,-580.4 1078.85,-579.55 1076.02,-573.15"/>
</g>
<!-- Node33 -->
<g id="node33" class="node">
<title>Node33</title>
<g id="a_node33"><a xlink:href="stack_8hpp.html" target="_top" xlink:title=" ">
<polygon fill="none" stroke="black" points="861,-508 861,-538 970,-538 970,-508 861,-508"/>
<text text-anchor="start" x="869" y="-526" font-family="Helvetica,sans-Serif" font-size="10.00">include/yaclib/fault</text>
<text text-anchor="middle" x="915.5" y="-515" font-family="Helvetica,sans-Serif" font-size="10.00">/detail/fiber/stack.hpp</text>
</a>
</g>
</g>
<!-- Node1&#45;&gt;Node33 -->
<g id="edge44" class="edge">
<title>Node1&#45;&gt;Node33</title>
<path fill="none" stroke="midnightblue" d="M1003.45,-575.24C983.28,-563.49 957.94,-548.73 939.65,-538.07"/>
<polygon fill="midnightblue" stroke="midnightblue" points="1001.9,-578.39 1012.3,-580.4 1005.43,-572.34 1001.9,-578.39"/>
</g>
<!-- Node2&#45;&gt;Node3 -->
<g id="edge2" class="edge">
<title>Node2&#45;&gt;Node3</title>
<path fill="none" stroke="midnightblue" d="M1070.62,-496.14C1084.2,-485.84 1099.3,-474.39 1110.81,-465.67"/>
<polygon fill="midnightblue" stroke="midnightblue" points="1068.26,-493.53 1062.41,-502.36 1072.49,-499.11 1068.26,-493.53"/>
</g>
<!-- Node2&#45;&gt;Node23 -->
<g id="edge37" class="edge">
<title>Node2&#45;&gt;Node23</title>
<path fill="none" stroke="midnightblue" d="M1036.58,-492.32C1035.1,-473.81 1030.28,-450.62 1016.5,-435 997.51,-413.48 968.56,-401.12 942.07,-394.03"/>
<polygon fill="midnightblue" stroke="midnightblue" points="1033.08,-492.51 1037.09,-502.32 1040.07,-492.15 1033.08,-492.51"/>
</g>
<!-- Node30 -->
<g id="node30" class="node">
<title>Node30</title>
<g id="a_node30"><a xlink:href="default__allocator_8cpp.html" target="_top" xlink:title=" ">
<polygon fill="none" stroke="black" points="899,-435.5 899,-465.5 1008,-465.5 1008,-435.5 899,-435.5"/>
<text text-anchor="start" x="907" y="-453.5" font-family="Helvetica,sans-Serif" font-size="10.00">src/fault/fiber/context</text>
<text text-anchor="middle" x="953.5" y="-442.5" font-family="Helvetica,sans-Serif" font-size="10.00">/default_allocator.cpp</text>
</a>
</g>
</g>
<!-- Node2&#45;&gt;Node30 -->
<g id="edge38" class="edge">
<title>Node2&#45;&gt;Node30</title>
<path fill="none" stroke="midnightblue" d="M1005.71,-495.84C993.68,-485.62 980.36,-474.31 970.18,-465.67"/>
<polygon fill="midnightblue" stroke="midnightblue" points="1003.49,-498.56 1013.38,-502.36 1008.02,-493.22 1003.49,-498.56"/>
</g>
<!-- Node4 -->
<g id="node4" class="node">
<title>Node4</title>
<g id="a_node4"><a xlink:href="fiber_8hpp.html" target="_top" xlink:title=" ">
<polygon fill="none" stroke="black" points="1145,-223.5 1145,-253.5 1248,-253.5 1248,-223.5 1145,-223.5"/>
<text text-anchor="start" x="1153" y="-241.5" font-family="Helvetica,sans-Serif" font-size="10.00">include/yaclib/fault</text>
<text text-anchor="middle" x="1196.5" y="-230.5" font-family="Helvetica,sans-Serif" font-size="10.00">/detail/fiber/fiber.hpp</text>
</a>
</g>
</g>
<!-- Node3&#45;&gt;Node4 -->
<g id="edge3" class="edge">
<title>Node3&#45;&gt;Node4</title>
<path fill="none" stroke="midnightblue" d="M1161.5,-429.31C1171.61,-421.2 1181.66,-410.92 1187.5,-399 1211.41,-350.18 1203.98,-282.62 1199.19,-253.63"/>
<polygon fill="midnightblue" stroke="midnightblue" points="1159.36,-426.55 1153.46,-435.35 1163.56,-432.15 1159.36,-426.55"/>
</g>
<!-- Node7 -->
<g id="node7" class="node">
<title>Node7</title>
<g id="a_node7"><a xlink:href="queue_8hpp.html" target="_top" xlink:title=" ">
<polygon fill="none" stroke="black" points="746,-223.5 746,-253.5 857,-253.5 857,-223.5 746,-223.5"/>
<text text-anchor="start" x="754" y="-241.5" font-family="Helvetica,sans-Serif" font-size="10.00">include/yaclib/fault</text>
<text text-anchor="middle" x="801.5" y="-230.5" font-family="Helvetica,sans-Serif" font-size="10.00">/detail/fiber/queue.hpp</text>
</a>
</g>
</g>
<!-- Node3&#45;&gt;Node7 -->
<g id="edge6" class="edge">
<title>Node3&#45;&gt;Node7</title>
<path fill="none" stroke="midnightblue" d="M1143.24,-426.31C1161.48,-392.18 1187.73,-328.33 1154.5,-290 1116.68,-246.38 946.62,-239.52 857.06,-239"/>
<polygon fill="midnightblue" stroke="midnightblue" points="1140.16,-424.66 1138.37,-435.1 1146.28,-428.06 1140.16,-424.66"/>
</g>
<!-- Node3&#45;&gt;Node23 -->
<g id="edge25" class="edge">
<title>Node3&#45;&gt;Node23</title>
<path fill="none" stroke="midnightblue" d="M1065.46,-432.92C1024.5,-422.31 971.94,-408.7 932.99,-398.61"/>
<polygon fill="midnightblue" stroke="midnightblue" points="1064.79,-436.36 1075.35,-435.48 1066.54,-429.58 1064.79,-436.36"/>
</g>
<!-- Node27 -->
<g id="node27" class="node">
<title>Node27</title>
<g id="a_node27"><a xlink:href="thread__local__proxy_8cpp.html" target="_top" xlink:title=" ">
<polygon fill="none" stroke="black" points="1042,-296 1042,-326 1145,-326 1145,-296 1042,-296"/>
<text text-anchor="start" x="1050" y="-314" font-family="Helvetica,sans-Serif" font-size="10.00">src/fault/fiber/thread</text>
<text text-anchor="middle" x="1093.5" y="-303" font-family="Helvetica,sans-Serif" font-size="10.00">_local_proxy.cpp</text>
</a>
</g>
</g>
<!-- Node3&#45;&gt;Node27 -->
<g id="edge35" class="edge">
<title>Node3&#45;&gt;Node27</title>
<path fill="none" stroke="midnightblue" d="M1124.34,-425.5C1120.73,-409.21 1115.65,-387.22 1110.5,-368 1106.66,-353.67 1101.67,-337.47 1098.09,-326.2"/>
<polygon fill="midnightblue" stroke="midnightblue" points="1120.93,-426.28 1126.49,-435.3 1127.76,-424.78 1120.93,-426.28"/>
</g>
<!-- Node28 -->
<g id="node28" class="node">
<title>Node28</title>
<g id="a_node28"><a xlink:href="wakeup__helper_8cpp.html" target="_top" xlink:title=" ">
<polygon fill="none" stroke="black" points="913.5,-296 913.5,-326 1023.5,-326 1023.5,-296 913.5,-296"/>
<text text-anchor="start" x="921.5" y="-314" font-family="Helvetica,sans-Serif" font-size="10.00">src/fault/fiber/wakeup</text>
<text text-anchor="middle" x="968.5" y="-303" font-family="Helvetica,sans-Serif" font-size="10.00">_helper.cpp</text>
</a>
</g>
</g>
<!-- Node3&#45;&gt;Node28 -->
<g id="edge36" class="edge">
<title>Node3&#45;&gt;Node28</title>
<path fill="none" stroke="midnightblue" d="M1055.05,-433.3C1034.54,-425.77 1013.77,-414.82 998.5,-399 978.98,-378.76 972.12,-345.23 969.74,-326.25"/>
<polygon fill="midnightblue" stroke="midnightblue" points="1054.15,-436.7 1064.75,-436.63 1056.42,-430.08 1054.15,-436.7"/>
</g>
<!-- Node29 -->
<g id="node29" class="node">
<title>Node29</title>
<g id="a_node29"><a xlink:href="fiber__base_8cpp.html" target="_top" xlink:title=" ">
<polygon fill="none" stroke="black" points="1007.5,-368.5 1007.5,-398.5 1101.5,-398.5 1101.5,-368.5 1007.5,-368.5"/>
<text text-anchor="start" x="1015.5" y="-386.5" font-family="Helvetica,sans-Serif" font-size="10.00">src/fault/fiber/fiber</text>
<text text-anchor="middle" x="1054.5" y="-375.5" font-family="Helvetica,sans-Serif" font-size="10.00">_base.cpp</text>
</a>
</g>
</g>
<!-- Node3&#45;&gt;Node29 -->
<g id="edge34" class="edge">
<title>Node3&#45;&gt;Node29</title>
<path fill="none" stroke="midnightblue" d="M1105.38,-428.6C1094.06,-418.78 1080.86,-407.34 1070.74,-398.58"/>
<polygon fill="midnightblue" stroke="midnightblue" points="1103.38,-431.49 1113.23,-435.4 1107.96,-426.2 1103.38,-431.49"/>
</g>
<!-- Node5 -->
<g id="node5" class="node">
<title>Node5</title>
<g id="a_node5"><a xlink:href="fault_2detail_2fiber_2thread_8hpp.html" target="_top" xlink:title=" ">
<polygon fill="none" stroke="black" points="1138.5,-151 1138.5,-181 1250.5,-181 1250.5,-151 1138.5,-151"/>
<text text-anchor="start" x="1146.5" y="-169" font-family="Helvetica,sans-Serif" font-size="10.00">include/yaclib/fault</text>
<text text-anchor="middle" x="1194.5" y="-158" font-family="Helvetica,sans-Serif" font-size="10.00">/detail/fiber/thread.hpp</text>
</a>
</g>
</g>
<!-- Node4&#45;&gt;Node5 -->
<g id="edge4" class="edge">
<title>Node4&#45;&gt;Node5</title>
<path fill="none" stroke="midnightblue" d="M1195.81,-213.23C1195.51,-202.57 1195.16,-190.41 1194.9,-181.25"/>
<polygon fill="midnightblue" stroke="midnightblue" points="1192.31,-213.34 1196.1,-223.23 1199.31,-213.14 1192.31,-213.34"/>
</g>
<!-- Node6 -->
<g id="node6" class="node">
<title>Node6</title>
<g id="a_node6"><a xlink:href="thread_8cpp.html" target="_top" xlink:title=" ">
<polygon fill="none" stroke="black" points="1166,-78.5 1166,-97.5 1287,-97.5 1287,-78.5 1166,-78.5"/>
<text text-anchor="middle" x="1226.5" y="-85.5" font-family="Helvetica,sans-Serif" font-size="10.00">src/fault/fiber/thread.cpp</text>
</a>
</g>
</g>
<!-- Node5&#45;&gt;Node6 -->
<g id="edge5" class="edge">
<title>Node5&#45;&gt;Node6</title>
<path fill="none" stroke="midnightblue" d="M1204.57,-141.09C1210.82,-126.24 1218.48,-108.05 1222.89,-97.56"/>
<polygon fill="midnightblue" stroke="midnightblue" points="1201.17,-140.13 1200.52,-150.7 1207.63,-142.85 1201.17,-140.13"/>
</g>
<!-- Node7&#45;&gt;Node5 -->
<g id="edge22" class="edge">
<title>Node7&#45;&gt;Node5</title>
<path fill="none" stroke="midnightblue" d="M867.1,-223.78C868.58,-223.51 870.05,-223.25 871.5,-223 983.82,-203.43 1014.02,-210.93 1125.5,-187 1133.3,-185.32 1141.52,-183.24 1149.45,-181.05"/>
<polygon fill="midnightblue" stroke="midnightblue" points="866.41,-220.35 857.22,-225.62 867.7,-227.23 866.41,-220.35"/>
</g>
<!-- Node8 -->
<g id="node8" class="node">
<title>Node8</title>
<g id="a_node8"><a xlink:href="fiber_2atomic__wait_8hpp.html" target="_top" xlink:title=" ">
<polygon fill="none" stroke="black" points="124,-145.5 124,-186.5 221,-186.5 221,-145.5 124,-145.5"/>
<text text-anchor="start" x="132" y="-174.5" font-family="Helvetica,sans-Serif" font-size="10.00">include/yaclib/fault</text>
<text text-anchor="start" x="132" y="-163.5" font-family="Helvetica,sans-Serif" font-size="10.00">/detail/fiber/atomic</text>
<text text-anchor="middle" x="172.5" y="-152.5" font-family="Helvetica,sans-Serif" font-size="10.00">_wait.hpp</text>
</a>
</g>
</g>
<!-- Node7&#45;&gt;Node8 -->
<g id="edge7" class="edge">
<title>Node7&#45;&gt;Node8</title>
<path fill="none" stroke="midnightblue" d="M735.74,-223.13C655.02,-212 342.52,-182.74 221.05,-171.48"/>
<polygon fill="midnightblue" stroke="midnightblue" points="735.51,-226.64 745.92,-224.64 736.54,-219.71 735.51,-226.64"/>
</g>
<!-- Node11 -->
<g id="node11" class="node">
<title>Node11</title>
<g id="a_node11"><a xlink:href="fault_2detail_2fiber_2mutex_8hpp.html" target="_top" xlink:title=" ">
<polygon fill="none" stroke="black" points="411,-151 411,-181 522,-181 522,-151 411,-151"/>
<text text-anchor="start" x="419" y="-169" font-family="Helvetica,sans-Serif" font-size="10.00">include/yaclib/fault</text>
<text text-anchor="middle" x="466.5" y="-158" font-family="Helvetica,sans-Serif" font-size="10.00">/detail/fiber/mutex.hpp</text>
</a>
</g>
</g>
<!-- Node7&#45;&gt;Node11 -->
<g id="edge10" class="edge">
<title>Node7&#45;&gt;Node11</title>
<path fill="none" stroke="midnightblue" d="M736.06,-222.92C655.79,-205.69 574.63,-188.99 522.14,-178.29"/>
<polygon fill="midnightblue" stroke="midnightblue" points="735.33,-226.35 745.84,-225.03 736.8,-219.5 735.33,-226.35"/>
</g>
<!-- Node14 -->
<g id="node14" class="node">
<title>Node14</title>
<g id="a_node14"><a xlink:href="fault_2detail_2fiber_2timed__mutex_8hpp.html" target="_top" xlink:title=" ">
<polygon fill="none" stroke="black" points="509.5,-73 509.5,-103 649.5,-103 649.5,-73 509.5,-73"/>
<text text-anchor="start" x="517.5" y="-91" font-family="Helvetica,sans-Serif" font-size="10.00">include/yaclib/fault</text>
<text text-anchor="middle" x="579.5" y="-80" font-family="Helvetica,sans-Serif" font-size="10.00">/detail/fiber/timed_mutex.hpp</text>
</a>
</g>
</g>
<!-- Node7&#45;&gt;Node14 -->
<g id="edge23" class="edge">
<title>Node7&#45;&gt;Node14</title>
<path fill="none" stroke="midnightblue" d="M770.25,-217.85C755.67,-208.6 738.12,-197.34 722.5,-187 678.33,-157.76 627.3,-122.4 599.73,-103.16"/>
<polygon fill="midnightblue" stroke="midnightblue" points="768.58,-220.93 778.9,-223.32 772.32,-215.02 768.58,-220.93"/>
</g>
<!-- Node16 -->
<g id="node16" class="node">
<title>Node16</title>
<g id="a_node16"><a xlink:href="fault_2detail_2fiber_2recursive__mutex_8hpp.html" target="_top" xlink:title=" ">
<polygon fill="none" stroke="black" points="750,-145.5 750,-186.5 857,-186.5 857,-145.5 750,-145.5"/>
<text text-anchor="start" x="758" y="-174.5" font-family="Helvetica,sans-Serif" font-size="10.00">include/yaclib/fault</text>
<text text-anchor="start" x="758" y="-163.5" font-family="Helvetica,sans-Serif" font-size="10.00">/detail/fiber/recursive</text>
<text text-anchor="middle" x="803.5" y="-152.5" font-family="Helvetica,sans-Serif" font-size="10.00">_mutex.hpp</text>
</a>
</g>
</g>
<!-- Node7&#45;&gt;Node16 -->
<g id="edge15" class="edge">
<title>Node7&#45;&gt;Node16</title>
<path fill="none" stroke="midnightblue" d="M802.2,-212.98C802.44,-204.35 802.71,-194.76 802.94,-186.59"/>
<polygon fill="midnightblue" stroke="midnightblue" points="798.69,-213.14 801.9,-223.23 805.69,-213.34 798.69,-213.14"/>
</g>
<!-- Node17 -->
<g id="node17" class="node">
<title>Node17</title>
<g id="a_node17"><a xlink:href="fault_2detail_2fiber_2recursive__timed__mutex_8hpp.html" target="_top" xlink:title=" ">
<polygon fill="none" stroke="black" points="668,-67.5 668,-108.5 775,-108.5 775,-67.5 668,-67.5"/>
<text text-anchor="start" x="676" y="-96.5" font-family="Helvetica,sans-Serif" font-size="10.00">include/yaclib/fault</text>
<text text-anchor="start" x="676" y="-85.5" font-family="Helvetica,sans-Serif" font-size="10.00">/detail/fiber/recursive</text>
<text text-anchor="middle" x="721.5" y="-74.5" font-family="Helvetica,sans-Serif" font-size="10.00">_timed_mutex.hpp</text>
</a>
</g>
</g>
<!-- Node7&#45;&gt;Node17 -->
<g id="edge18" class="edge">
<title>Node7&#45;&gt;Node17</title>
<path fill="none" stroke="midnightblue" d="M769.03,-217.32C758.4,-209.16 747.53,-198.85 740.5,-187 726.09,-162.7 722.33,-129.62 721.49,-108.78"/>
<polygon fill="midnightblue" stroke="midnightblue" points="767.27,-220.37 777.43,-223.39 771.38,-214.7 767.27,-220.37"/>
</g>
<!-- Node19 -->
<g id="node19" class="node">
<title>Node19</title>
<g id="a_node19"><a xlink:href="fault_2detail_2fiber_2shared__mutex_8hpp.html" target="_top" xlink:title=" ">
<polygon fill="none" stroke="black" points="882,-145.5 882,-186.5 979,-186.5 979,-145.5 882,-145.5"/>
<text text-anchor="start" x="890" y="-174.5" font-family="Helvetica,sans-Serif" font-size="10.00">include/yaclib/fault</text>
<text text-anchor="start" x="890" y="-163.5" font-family="Helvetica,sans-Serif" font-size="10.00">/detail/fiber/shared</text>
<text text-anchor="middle" x="930.5" y="-152.5" font-family="Helvetica,sans-Serif" font-size="10.00">_mutex.hpp</text>
</a>
</g>
</g>
<!-- Node7&#45;&gt;Node19 -->
<g id="edge19" class="edge">
<title>Node7&#45;&gt;Node19</title>
<path fill="none" stroke="midnightblue" d="M836.32,-218.47C854.33,-208.63 876.3,-196.62 894.49,-186.68"/>
<polygon fill="midnightblue" stroke="midnightblue" points="834.39,-215.54 827.3,-223.4 837.75,-221.68 834.39,-215.54"/>
</g>
<!-- Node22 -->
<g id="node22" class="node">
<title>Node22</title>
<g id="a_node22"><a xlink:href="queue_8cpp.html" target="_top" xlink:title=" ">
<polygon fill="none" stroke="black" points="996.5,-156.5 996.5,-175.5 1116.5,-175.5 1116.5,-156.5 996.5,-156.5"/>
<text text-anchor="middle" x="1056.5" y="-163.5" font-family="Helvetica,sans-Serif" font-size="10.00">src/fault/fiber/queue.cpp</text>
</a>
</g>
</g>
<!-- Node7&#45;&gt;Node22 -->
<g id="edge24" class="edge">
<title>Node7&#45;&gt;Node22</title>
<path fill="none" stroke="midnightblue" d="M863.99,-220.82C900.12,-211.1 946.42,-198.53 987.5,-187 1000.59,-183.33 1015.04,-179.16 1027.32,-175.58"/>
<polygon fill="midnightblue" stroke="midnightblue" points="862.83,-217.51 854.08,-223.48 864.64,-224.27 862.83,-217.51"/>
</g>
<!-- Node9 -->
<g id="node9" class="node">
<title>Node9</title>
<g id="a_node9"><a xlink:href="fault_2detail_2fiber_2atomic_8hpp.html" target="_top" xlink:title=" ">
<polygon fill="none" stroke="black" points="115.5,-73 115.5,-103 229.5,-103 229.5,-73 115.5,-73"/>
<text text-anchor="start" x="123.5" y="-91" font-family="Helvetica,sans-Serif" font-size="10.00">include/yaclib/fault</text>
<text text-anchor="middle" x="172.5" y="-80" font-family="Helvetica,sans-Serif" font-size="10.00">/detail/fiber/atomic.hpp</text>
</a>
</g>
</g>
<!-- Node8&#45;&gt;Node9 -->
<g id="edge8" class="edge">
<title>Node8&#45;&gt;Node9</title>
<path fill="none" stroke="midnightblue" d="M172.5,-135.28C172.5,-124.25 172.5,-112.25 172.5,-103.23"/>
<polygon fill="midnightblue" stroke="midnightblue" points="169,-135.43 172.5,-145.43 176,-135.43 169,-135.43"/>
</g>
<!-- Node10 -->
<g id="node10" class="node">
<title>Node10</title>
<g id="a_node10"><a xlink:href="fault_2detail_2fiber_2atomic__flag_8hpp.html" target="_top" xlink:title=" ">
<polygon fill="none" stroke="black" points="0,-67.5 0,-108.5 97,-108.5 97,-67.5 0,-67.5"/>
<text text-anchor="start" x="8" y="-96.5" font-family="Helvetica,sans-Serif" font-size="10.00">include/yaclib/fault</text>
<text text-anchor="start" x="8" y="-85.5" font-family="Helvetica,sans-Serif" font-size="10.00">/detail/fiber/atomic</text>
<text text-anchor="middle" x="48.5" y="-74.5" font-family="Helvetica,sans-Serif" font-size="10.00">_flag.hpp</text>
</a>
</g>
</g>
<!-- Node8&#45;&gt;Node10 -->
<g id="edge9" class="edge">
<title>Node8&#45;&gt;Node10</title>
<path fill="none" stroke="midnightblue" d="M131.58,-139.92C114.91,-129.7 95.93,-118.07 80.32,-108.51"/>
<polygon fill="midnightblue" stroke="midnightblue" points="130.21,-143.19 140.57,-145.43 133.87,-137.22 130.21,-143.19"/>
</g>
<!-- Node12 -->
<g id="node12" class="node">
<title>Node12</title>
<g id="a_node12"><a xlink:href="fault_2detail_2fiber_2condition__variable_8hpp.html" target="_top" xlink:title=" ">
<polygon fill="none" stroke="black" points="385.5,-67.5 385.5,-108.5 491.5,-108.5 491.5,-67.5 385.5,-67.5"/>
<text text-anchor="start" x="393.5" y="-96.5" font-family="Helvetica,sans-Serif" font-size="10.00">include/yaclib/fault</text>
<text text-anchor="start" x="393.5" y="-85.5" font-family="Helvetica,sans-Serif" font-size="10.00">/detail/fiber/condition</text>
<text text-anchor="middle" x="438.5" y="-74.5" font-family="Helvetica,sans-Serif" font-size="10.00">_variable.hpp</text>
</a>
</g>
</g>
<!-- Node11&#45;&gt;Node12 -->
<g id="edge11" class="edge">
<title>Node11&#45;&gt;Node12</title>
<path fill="none" stroke="midnightblue" d="M457.77,-141.31C453.91,-130.83 449.42,-118.65 445.75,-108.68"/>
<polygon fill="midnightblue" stroke="midnightblue" points="454.49,-142.53 461.23,-150.7 461.06,-140.11 454.49,-142.53"/>
</g>
<!-- Node11&#45;&gt;Node14 -->
<g id="edge13" class="edge">
<title>Node11&#45;&gt;Node14</title>
<path fill="none" stroke="midnightblue" d="M495.81,-145.29C515.5,-132.05 540.98,-114.91 558.62,-103.04"/>
<polygon fill="midnightblue" stroke="midnightblue" points="493.83,-142.4 487.49,-150.88 497.74,-148.21 493.83,-142.4"/>
</g>
<!-- Node15 -->
<g id="node15" class="node">
<title>Node15</title>
<g id="a_node15"><a xlink:href="mutex_8cpp.html" target="_top" xlink:title=" ">
<polygon fill="none" stroke="black" points="247.5,-78.5 247.5,-97.5 367.5,-97.5 367.5,-78.5 247.5,-78.5"/>
<text text-anchor="middle" x="307.5" y="-85.5" font-family="Helvetica,sans-Serif" font-size="10.00">src/fault/fiber/mutex.cpp</text>
</a>
</g>
</g>
<!-- Node11&#45;&gt;Node15 -->
<g id="edge14" class="edge">
<title>Node11&#45;&gt;Node15</title>
<path fill="none" stroke="midnightblue" d="M427.73,-146.47C395.19,-130.92 350.19,-109.41 325.5,-97.61"/>
<polygon fill="midnightblue" stroke="midnightblue" points="426.43,-149.73 436.97,-150.88 429.45,-143.41 426.43,-149.73"/>
</g>
<!-- Node13 -->
<g id="node13" class="node">
<title>Node13</title>
<g id="a_node13"><a xlink:href="fiber_2condition__variable_8cpp.html" target="_top" xlink:title=" ">
<polygon fill="none" stroke="black" points="381,-0.5 381,-30.5 496,-30.5 496,-0.5 381,-0.5"/>
<text text-anchor="start" x="389" y="-18.5" font-family="Helvetica,sans-Serif" font-size="10.00">src/fault/fiber/condition</text>
<text text-anchor="middle" x="438.5" y="-7.5" font-family="Helvetica,sans-Serif" font-size="10.00">_variable.cpp</text>
</a>
</g>
</g>
<!-- Node12&#45;&gt;Node13 -->
<g id="edge12" class="edge">
<title>Node12&#45;&gt;Node13</title>
<path fill="none" stroke="midnightblue" d="M438.5,-57.08C438.5,-48.01 438.5,-38.45 438.5,-30.89"/>
<polygon fill="midnightblue" stroke="midnightblue" points="435,-57.36 438.5,-67.36 442,-57.36 435,-57.36"/>
</g>
<!-- Node16&#45;&gt;Node17 -->
<g id="edge16" class="edge">
<title>Node16&#45;&gt;Node17</title>
<path fill="none" stroke="midnightblue" d="M774.9,-138.49C764.26,-128.63 752.39,-117.63 742.55,-108.51"/>
<polygon fill="midnightblue" stroke="midnightblue" points="772.67,-141.2 782.38,-145.43 777.43,-136.06 772.67,-141.2"/>
</g>
<!-- Node18 -->
<g id="node18" class="node">
<title>Node18</title>
<g id="a_node18"><a xlink:href="recursive__mutex_8cpp.html" target="_top" xlink:title=" ">
<polygon fill="none" stroke="black" points="793.5,-73 793.5,-103 909.5,-103 909.5,-73 793.5,-73"/>
<text text-anchor="start" x="801.5" y="-91" font-family="Helvetica,sans-Serif" font-size="10.00">src/fault/fiber/recursive</text>
<text text-anchor="middle" x="851.5" y="-80" font-family="Helvetica,sans-Serif" font-size="10.00">_mutex.cpp</text>
</a>
</g>
</g>
<!-- Node16&#45;&gt;Node18 -->
<g id="edge17" class="edge">
<title>Node16&#45;&gt;Node18</title>
<path fill="none" stroke="midnightblue" d="M821.41,-136.64C828.61,-125.25 836.58,-112.62 842.52,-103.23"/>
<polygon fill="midnightblue" stroke="midnightblue" points="818.24,-135.1 815.86,-145.43 824.16,-138.84 818.24,-135.1"/>
</g>
<!-- Node20 -->
<g id="node20" class="node">
<title>Node20</title>
<g id="a_node20"><a xlink:href="fault_2detail_2fiber_2shared__timed__mutex_8hpp.html" target="_top" xlink:title=" ">
<polygon fill="none" stroke="black" points="1051,-67.5 1051,-108.5 1148,-108.5 1148,-67.5 1051,-67.5"/>
<text text-anchor="start" x="1059" y="-96.5" font-family="Helvetica,sans-Serif" font-size="10.00">include/yaclib/fault</text>
<text text-anchor="start" x="1059" y="-85.5" font-family="Helvetica,sans-Serif" font-size="10.00">/detail/fiber/shared</text>
<text text-anchor="middle" x="1099.5" y="-74.5" font-family="Helvetica,sans-Serif" font-size="10.00">_timed_mutex.hpp</text>
</a>
</g>
</g>
<!-- Node19&#45;&gt;Node20 -->
<g id="edge20" class="edge">
<title>Node19&#45;&gt;Node20</title>
<path fill="none" stroke="midnightblue" d="M983.45,-141.19C1006.83,-130.67 1033.97,-118.47 1056.13,-108.51"/>
<polygon fill="midnightblue" stroke="midnightblue" points="981.71,-138.13 974.02,-145.43 984.58,-144.52 981.71,-138.13"/>
</g>
<!-- Node21 -->
<g id="node21" class="node">
<title>Node21</title>
<g id="a_node21"><a xlink:href="shared__mutex_8cpp.html" target="_top" xlink:title=" ">
<polygon fill="none" stroke="black" points="928,-73 928,-103 1033,-103 1033,-73 928,-73"/>
<text text-anchor="start" x="936" y="-91" font-family="Helvetica,sans-Serif" font-size="10.00">src/fault/fiber/shared</text>
<text text-anchor="middle" x="980.5" y="-80" font-family="Helvetica,sans-Serif" font-size="10.00">_mutex.cpp</text>
</a>
</g>
</g>
<!-- Node19&#45;&gt;Node21 -->
<g id="edge21" class="edge">
<title>Node19&#45;&gt;Node21</title>
<path fill="none" stroke="midnightblue" d="M948.93,-136.98C956.49,-125.5 964.9,-112.71 971.14,-103.23"/>
<polygon fill="midnightblue" stroke="midnightblue" points="945.95,-135.15 943.38,-145.43 951.8,-139 945.95,-135.15"/>
</g>
<!-- Node23&#45;&gt;Node5 -->
<g id="edge30" class="edge">
<title>Node23&#45;&gt;Node5</title>
<path fill="none" stroke="midnightblue" d="M879.64,-358.08C881.81,-337.65 887.87,-308.89 904.5,-290 938.06,-251.88 1075.6,-204.32 1148.55,-181.09"/>
<polygon fill="midnightblue" stroke="midnightblue" points="876.14,-357.92 878.81,-368.18 883.12,-358.5 876.14,-357.92"/>
</g>
<!-- Node23&#45;&gt;Node7 -->
<g id="edge26" class="edge">
<title>Node23&#45;&gt;Node7</title>
<path fill="none" stroke="midnightblue" d="M804.63,-379.68C730.15,-375.11 622.57,-363.15 596.5,-332 584.52,-317.68 584.99,-304.69 596.5,-290 598.87,-286.98 685.9,-266.29 745.79,-252.35"/>
<polygon fill="midnightblue" stroke="midnightblue" points="804.72,-383.19 814.9,-380.28 805.12,-376.21 804.72,-383.19"/>
</g>
<!-- Node24 -->
<g id="node24" class="node">
<title>Node24</title>
<g id="a_node24"><a xlink:href="system__clock_8hpp.html" target="_top" xlink:title=" ">
<polygon fill="none" stroke="black" points="759.5,-290.5 759.5,-331.5 857.5,-331.5 857.5,-290.5 759.5,-290.5"/>
<text text-anchor="start" x="767.5" y="-319.5" font-family="Helvetica,sans-Serif" font-size="10.00">include/yaclib/fault</text>
<text text-anchor="start" x="767.5" y="-308.5" font-family="Helvetica,sans-Serif" font-size="10.00">/detail/fiber/system</text>
<text text-anchor="middle" x="808.5" y="-297.5" font-family="Helvetica,sans-Serif" font-size="10.00">_clock.hpp</text>
</a>
</g>
</g>
<!-- Node23&#45;&gt;Node24 -->
<g id="edge27" class="edge">
<title>Node23&#45;&gt;Node24</title>
<path fill="none" stroke="midnightblue" d="M857.25,-361.1C847.93,-351.71 837.06,-340.76 827.95,-331.59"/>
<polygon fill="midnightblue" stroke="midnightblue" points="854.8,-363.6 864.33,-368.23 859.77,-358.67 854.8,-363.6"/>
</g>
<!-- Node26 -->
<g id="node26" class="node">
<title>Node26</title>
<g id="a_node26"><a xlink:href="scheduler_8cpp.html" target="_top" xlink:title=" ">
<polygon fill="none" stroke="black" points="605.5,-301.5 605.5,-320.5 741.5,-320.5 741.5,-301.5 605.5,-301.5"/>
<text text-anchor="middle" x="673.5" y="-308.5" font-family="Helvetica,sans-Serif" font-size="10.00">src/fault/fiber/scheduler.cpp</text>
</a>
</g>
</g>
<!-- Node23&#45;&gt;Node26 -->
<g id="edge31" class="edge">
<title>Node23&#45;&gt;Node26</title>
<path fill="none" stroke="midnightblue" d="M827.91,-365.1C786.71,-350.93 730.3,-331.54 698.31,-320.53"/>
<polygon fill="midnightblue" stroke="midnightblue" points="826.91,-368.46 837.51,-368.4 829.19,-361.84 826.91,-368.46"/>
</g>
<!-- Node23&#45;&gt;Node27 -->
<g id="edge32" class="edge">
<title>Node23&#45;&gt;Node27</title>
<path fill="none" stroke="midnightblue" d="M930.78,-365.36C967.49,-353.32 1016,-337.41 1050.48,-326.11"/>
<polygon fill="midnightblue" stroke="midnightblue" points="929.65,-362.05 921.23,-368.49 931.83,-368.7 929.65,-362.05"/>
</g>
<!-- Node23&#45;&gt;Node28 -->
<g id="edge33" class="edge">
<title>Node23&#45;&gt;Node28</title>
<path fill="none" stroke="midnightblue" d="M904.94,-361.79C919.65,-350.27 937.56,-336.23 950.62,-326"/>
<polygon fill="midnightblue" stroke="midnightblue" points="902.43,-359.31 896.71,-368.23 906.74,-364.82 902.43,-359.31"/>
</g>
<!-- Node24&#45;&gt;Node7 -->
<g id="edge28" class="edge">
<title>Node24&#45;&gt;Node7</title>
<path fill="none" stroke="midnightblue" d="M805.56,-280.38C804.65,-271.21 803.69,-261.53 802.93,-253.89"/>
<polygon fill="midnightblue" stroke="midnightblue" points="802.08,-280.76 806.55,-290.36 809.04,-280.06 802.08,-280.76"/>
</g>
<!-- Node25 -->
<g id="node25" class="node">
<title>Node25</title>
<g id="a_node25"><a xlink:href="system__clock_8cpp.html" target="_top" xlink:title=" ">
<polygon fill="none" stroke="black" points="621,-223.5 621,-253.5 728,-253.5 728,-223.5 621,-223.5"/>
<text text-anchor="start" x="629" y="-241.5" font-family="Helvetica,sans-Serif" font-size="10.00">src/fault/fiber/system</text>
<text text-anchor="middle" x="674.5" y="-230.5" font-family="Helvetica,sans-Serif" font-size="10.00">_clock.cpp</text>
</a>
</g>
</g>
<!-- Node24&#45;&gt;Node25 -->
<g id="edge29" class="edge">
<title>Node24&#45;&gt;Node25</title>
<path fill="none" stroke="midnightblue" d="M762.09,-285.58C741.84,-274.93 718.8,-262.81 701.43,-253.67"/>
<polygon fill="midnightblue" stroke="midnightblue" points="760.69,-288.8 771.17,-290.36 763.95,-282.61 760.69,-288.8"/>
</g>
<!-- Node31&#45;&gt;Node3 -->
<g id="edge40" class="edge">
<title>Node31&#45;&gt;Node3</title>
<path fill="none" stroke="midnightblue" d="M1170.24,-495.02C1160.96,-485.11 1150.82,-474.27 1142.97,-465.89"/>
<polygon fill="midnightblue" stroke="midnightblue" points="1167.73,-497.45 1177.12,-502.36 1172.84,-492.67 1167.73,-497.45"/>
</g>
<!-- Node32 -->
<g id="node32" class="node">
<title>Node32</title>
<g id="a_node32"><a xlink:href="execution__context_8cpp.html" target="_top" xlink:title=" ">
<polygon fill="none" stroke="black" points="1212.5,-435.5 1212.5,-465.5 1328.5,-465.5 1328.5,-435.5 1212.5,-435.5"/>
<text text-anchor="start" x="1220.5" y="-453.5" font-family="Helvetica,sans-Serif" font-size="10.00">src/fault/fiber/context</text>
<text text-anchor="middle" x="1270.5" y="-442.5" font-family="Helvetica,sans-Serif" font-size="10.00">/execution_context.cpp</text>
</a>
</g>
</g>
<!-- Node31&#45;&gt;Node32 -->
<g id="edge41" class="edge">
<title>Node31&#45;&gt;Node32</title>
<path fill="none" stroke="midnightblue" d="M1223.89,-495.31C1234.52,-485.32 1246.19,-474.35 1255.19,-465.89"/>
<polygon fill="midnightblue" stroke="midnightblue" points="1221.28,-492.96 1216.39,-502.36 1226.08,-498.06 1221.28,-492.96"/>
</g>
<!-- Node33&#45;&gt;Node3 -->
<g id="edge45" class="edge">
<title>Node33&#45;&gt;Node3</title>
<path fill="none" stroke="midnightblue" d="M968,-504.7C1004.49,-492.68 1052.51,-476.86 1086.68,-465.61"/>
<polygon fill="midnightblue" stroke="midnightblue" points="966.44,-501.53 958.04,-507.99 968.63,-508.18 966.44,-501.53"/>
</g>
<!-- Node33&#45;&gt;Node23 -->
<g id="edge46" class="edge">
<title>Node33&#45;&gt;Node23</title>
<path fill="none" stroke="midnightblue" d="M902.73,-498.63C897.88,-488.81 892.75,-477.11 889.5,-466 882.77,-442.98 880.14,-415.07 879.12,-398.61"/>
<polygon fill="midnightblue" stroke="midnightblue" points="899.73,-500.44 907.41,-507.73 905.95,-497.24 899.73,-500.44"/>
</g>
</g>
</svg>
        <g id="navigator" transform="translate(0 0)" fill="#404254">
                <rect fill="#f2f5e9" fill-opacity="0.5" stroke="#606060" stroke-width=".5" x="0" y="0" width="60" height="60"/>
                <use id="zoomplus" xlink:href="#zoomPlus" x="17" y="9" onmousedown="handleZoom(evt,'in')"/>
                <use id="zoomminus" xlink:href="#zoomMin" x="42" y="9" onmousedown="handleZoom(evt,'out')"/>
                <use id="reset" xlink:href="#resetDef" x="30" y="36" onmousedown="handleReset()"/>
                <g id="arrowUp" xlink:href="#dirArrow" transform="translate(30 24)" onmousedown="handlePan(0,-1)">
                  <use xlink:href="#rim" fill="#404040">
                        <set attributeName="fill" to="#808080" begin="arrowUp.mouseover" end="arrowUp.mouseout"/>
                  </use>
                  <path fill="none" stroke="white" stroke-width="1.5" d="M0,-3.0v7 M-2.5,-0.5L0,-3.0L2.5,-0.5"/>
                </g>
                <g id="arrowRight" xlink:href="#dirArrow" transform="rotate(90) translate(36 -43)" onmousedown="handlePan(1,0)">
                  <use xlink:href="#rim" fill="#404040">
                        <set attributeName="fill" to="#808080" begin="arrowRight.mouseover" end="arrowRight.mouseout"/>
                  </use>
                  <path fill="none" stroke="white" stroke-width="1.5" d="M0,-3.0v7 M-2.5,-0.5L0,-3.0L2.5,-0.5"/>
                </g>
                <g id="arrowDown" xlink:href="#dirArrow" transform="rotate(180) translate(-30 -48)" onmousedown="handlePan(0,1)">
                  <use xlink:href="#rim" fill="#404040">
                        <set attributeName="fill" to="#808080" begin="arrowDown.mouseover" end="arrowDown.mouseout"/>
                  </use>
                  <path fill="none" stroke="white" stroke-width="1.5" d="M0,-3.0v7 M-2.5,-0.5L0,-3.0L2.5,-0.5"/>
                </g>
                <g id="arrowLeft" xlink:href="#dirArrow" transform="rotate(270) translate(-36 17)" onmousedown="handlePan(-1,0)">
                  <use xlink:href="#rim" fill="#404040">
                        <set attributeName="fill" to="#808080" begin="arrowLeft.mouseover" end="arrowLeft.mouseout"/>
                  </use>
                  <path fill="none" stroke="white" stroke-width="1.5" d="M0,-3.0v7 M-2.5,-0.5L0,-3.0L2.5,-0.5"/>
                </g>
        </g>
        <svg viewBox="0 0 15 15" width="100%" height="30px" preserveAspectRatio="xMaxYMin meet">
         <g id="arrow_out" transform="scale(0.3 0.3)">
          <a xlink:href="stack__allocator_8hpp__dep__incl_org.svg" target="_base">
           <rect id="button" ry="5" rx="5" y="6" x="6" height="38" width="38"
                fill="#f2f5e9" fill-opacity="0.5" stroke="#606060" stroke-width="1.0"/>
           <path id="arrow"
             d="M 11.500037,31.436501 C 11.940474,20.09759 22.043105,11.32322 32.158766,21.979434 L 37.068811,17.246167 C 37.068811,17.246167 37.088388,32 37.088388,32 L 22.160133,31.978069 C 22.160133,31.978069 26.997745,27.140456 26.997745,27.140456 C 18.528582,18.264221 13.291696,25.230495 11.500037,31.436501 z"
             style="fill:#404040;"/>
          </a>
         </g>
        </svg>
</svg>
