<?xml version="1.0" encoding="UTF-8" standalone="no"?>
<!DOCTYPE svg PUBLIC "-//W3C//DTD SVG 1.1//EN"
 "http://www.w3.org/Graphics/SVG/1.1/DTD/svg11.dtd">
<!-- Generated by graphviz version 3.0.0 (20220413.0242)
 -->
<!-- Title: include/yaclib_std/detail/atomic.hpp Pages: 1 -->
<svg width="186pt" height="95pt"
 viewBox="0.00 0.00 186.00 95.00" xmlns="http://www.w3.org/2000/svg" xmlns:xlink="http://www.w3.org/1999/xlink">
<g id="graph0" class="graph" transform="scale(1 1) rotate(0) translate(4 91)">
<title>include/yaclib_std/detail/atomic.hpp</title>
<!-- Node1 -->
<g id="node1" class="node">
<title>Node1</title>
<g id="a_node1"><a xlink:title=" ">
<polygon fill="#bfbfbf" stroke="black" points="42,-56.5 42,-86.5 136,-86.5 136,-56.5 42,-56.5"/>
<text text-anchor="start" x="50" y="-74.5" font-family="Helvetica,sans-Serif" font-size="10.00">include/yaclib_std</text>
<text text-anchor="middle" x="89" y="-63.5" font-family="Helvetica,sans-Serif" font-size="10.00">/detail/atomic.hpp</text>
</a>
</g>
</g>
<!-- Node2 -->
<g id="node2" class="node">
<title>Node2</title>
<g id="a_node2"><a xlink:title=" ">
<polygon fill="none" stroke="#bfbfbf" points="0,-0.5 0,-19.5 46,-19.5 46,-0.5 0,-0.5"/>
<text text-anchor="middle" x="23" y="-7.5" font-family="Helvetica,sans-Serif" font-size="10.00">atomic</text>
</a>
</g>
</g>
<!-- Node1&#45;&gt;Node2 -->
<g id="edge1" class="edge">
<title>Node1&#45;&gt;Node2</title>
<path fill="none" stroke="midnightblue" d="M73.36,-56.4C63.37,-47.4 50.42,-35.72 40.15,-26.47"/>
<polygon fill="midnightblue" stroke="midnightblue" points="42.37,-23.75 32.6,-19.66 37.69,-28.95 42.37,-23.75"/>
</g>
<!-- Node3 -->
<g id="node3" class="node">
<title>Node3</title>
<g id="a_node3"><a xlink:title=" ">
<polygon fill="none" stroke="#bfbfbf" points="64.5,-0.5 64.5,-19.5 113.5,-19.5 113.5,-0.5 64.5,-0.5"/>
<text text-anchor="middle" x="89" y="-7.5" font-family="Helvetica,sans-Serif" font-size="10.00">cstddef</text>
</a>
</g>
</g>
<!-- Node1&#45;&gt;Node3 -->
<g id="edge2" class="edge">
<title>Node1&#45;&gt;Node3</title>
<path fill="none" stroke="midnightblue" d="M89,-56.4C89,-48.47 89,-38.46 89,-29.86"/>
<polygon fill="midnightblue" stroke="midnightblue" points="92.5,-29.66 89,-19.66 85.5,-29.66 92.5,-29.66"/>
</g>
<!-- Node4 -->
<g id="node4" class="node">
<title>Node4</title>
<g id="a_node4"><a xlink:title=" ">
<polygon fill="none" stroke="#bfbfbf" points="132,-0.5 132,-19.5 178,-19.5 178,-0.5 132,-0.5"/>
<text text-anchor="middle" x="155" y="-7.5" font-family="Helvetica,sans-Serif" font-size="10.00">cstdint</text>
</a>
</g>
</g>
<!-- Node1&#45;&gt;Node4 -->
<g id="edge3" class="edge">
<title>Node1&#45;&gt;Node4</title>
<path fill="none" stroke="midnightblue" d="M104.64,-56.4C114.63,-47.4 127.58,-35.72 137.85,-26.47"/>
<polygon fill="midnightblue" stroke="midnightblue" points="140.31,-28.95 145.4,-19.66 135.63,-23.75 140.31,-28.95"/>
</g>
</g>
</svg>
