<?xml version="1.0" encoding="UTF-8" standalone="no"?>
<!DOCTYPE svg PUBLIC "-//W3C//DTD SVG 1.1//EN"
 "http://www.w3.org/Graphics/SVG/1.1/DTD/svg11.dtd">
<!-- Generated by graphviz version 9.0.0 (20230911.1827)
 -->
<!-- Title: include/yaclib_std/detail/atomic.hpp Pages: 1 -->
<svg width="232pt" height="238pt"
 viewBox="0.00 0.00 232.00 238.00" xmlns="http://www.w3.org/2000/svg" xmlns:xlink="http://www.w3.org/1999/xlink">
<g id="graph0" class="graph" transform="scale(1 1) rotate(0) translate(4 234)">
<title>include/yaclib_std/detail/atomic.hpp</title>
<!-- Node1 -->
<g id="Node000001" class="node">
<title>Node1</title>
<g id="a_Node000001"><a xlink:title=" ">
<polygon fill="#999999" stroke="#666666" points="158.12,-230 64.88,-230 64.88,-199.5 158.12,-199.5 158.12,-230"/>
<text text-anchor="start" x="72.88" y="-216.5" font-family="Helvetica,sans-Serif" font-size="10.00">include/yaclib_std</text>
<text text-anchor="middle" x="111.5" y="-205.25" font-family="Helvetica,sans-Serif" font-size="10.00">/detail/atomic.hpp</text>
</a>
</g>
</g>
<!-- Node2 -->
<g id="Node000002" class="node">
<title>Node2</title>
<g id="a_Node000002"><a xlink:href="all_8hpp.html" target="_top" xlink:title=" ">
<polygon fill="white" stroke="#666666" points="103,-163.5 0,-163.5 0,-133 103,-133 103,-163.5"/>
<text text-anchor="start" x="8" y="-150" font-family="Helvetica,sans-Serif" font-size="10.00">include/yaclib/async</text>
<text text-anchor="middle" x="51.5" y="-138.75" font-family="Helvetica,sans-Serif" font-size="10.00">/when/all.hpp</text>
</a>
</g>
</g>
<!-- Node1&#45;&gt;Node2 -->
<g id="edge1_Node000001_Node000002" class="edge">
<title>Node1&#45;&gt;Node2</title>
<g id="a_edge1_Node000001_Node000002"><a xlink:title=" ">
<path fill="none" stroke="#63b8ff" d="M90.25,-190.91C81.87,-181.9 72.49,-171.82 65.06,-163.83"/>
<polygon fill="#63b8ff" stroke="#63b8ff" points="87.48,-193.07 96.85,-198.01 92.61,-188.3 87.48,-193.07"/>
</a>
</g>
</g>
<!-- Node5 -->
<g id="Node000005" class="node">
<title>Node5</title>
<g id="a_Node000005"><a xlink:href="all__tuple_8hpp.html" target="_top" xlink:title=" ">
<polygon fill="white" stroke="#666666" points="224,-163.5 121,-163.5 121,-133 224,-133 224,-163.5"/>
<text text-anchor="start" x="129" y="-150" font-family="Helvetica,sans-Serif" font-size="10.00">include/yaclib/async</text>
<text text-anchor="middle" x="172.5" y="-138.75" font-family="Helvetica,sans-Serif" font-size="10.00">/when/all_tuple.hpp</text>
</a>
</g>
</g>
<!-- Node1&#45;&gt;Node5 -->
<g id="edge4_Node000001_Node000005" class="edge">
<title>Node1&#45;&gt;Node5</title>
<g id="a_edge4_Node000001_Node000005"><a xlink:title=" ">
<path fill="none" stroke="#63b8ff" d="M133.1,-190.91C141.62,-181.9 151.16,-171.82 158.71,-163.83"/>
<polygon fill="#63b8ff" stroke="#63b8ff" points="130.71,-188.34 126.38,-198.01 135.8,-193.15 130.71,-188.34"/>
</a>
</g>
</g>
<!-- Node3 -->
<g id="Node000003" class="node">
<title>Node3</title>
<g id="a_Node000003"><a xlink:href="when__all_8hpp.html" target="_top" xlink:title=" ">
<polygon fill="white" stroke="#666666" points="163,-97 60,-97 60,-66.5 163,-66.5 163,-97"/>
<text text-anchor="start" x="68" y="-83.5" font-family="Helvetica,sans-Serif" font-size="10.00">include/yaclib/async</text>
<text text-anchor="middle" x="111.5" y="-72.25" font-family="Helvetica,sans-Serif" font-size="10.00">/when_all.hpp</text>
</a>
</g>
</g>
<!-- Node2&#45;&gt;Node3 -->
<g id="edge2_Node000002_Node000003" class="edge">
<title>Node2&#45;&gt;Node3</title>
<g id="a_edge2_Node000002_Node000003"><a xlink:title=" ">
<path fill="none" stroke="#63b8ff" d="M72.75,-124.41C81.13,-115.4 90.51,-105.32 97.94,-97.33"/>
<polygon fill="#63b8ff" stroke="#63b8ff" points="70.39,-121.8 66.15,-131.51 75.52,-126.57 70.39,-121.8"/>
</a>
</g>
</g>
<!-- Node4 -->
<g id="Node000004" class="node">
<title>Node4</title>
<g id="a_Node000004"><a xlink:href="when__all_8cpp.html" target="_top" xlink:title=" ">
<polygon fill="white" stroke="#666666" points="161.5,-30.5 61.5,-30.5 61.5,0 161.5,0 161.5,-30.5"/>
<text text-anchor="start" x="69.5" y="-17" font-family="Helvetica,sans-Serif" font-size="10.00">test/example/async</text>
<text text-anchor="middle" x="111.5" y="-5.75" font-family="Helvetica,sans-Serif" font-size="10.00">/when_all.cpp</text>
</a>
</g>
</g>
<!-- Node3&#45;&gt;Node4 -->
<g id="edge3_Node000003_Node000004" class="edge">
<title>Node3&#45;&gt;Node4</title>
<g id="a_edge3_Node000003_Node000004"><a xlink:title=" ">
<path fill="none" stroke="#63b8ff" d="M111.5,-54.81C111.5,-46.64 111.5,-37.91 111.5,-30.83"/>
<polygon fill="#63b8ff" stroke="#63b8ff" points="108,-54.6 111.5,-64.6 115,-54.6 108,-54.6"/>
</a>
</g>
</g>
<!-- Node5&#45;&gt;Node3 -->
<g id="edge5_Node000005_Node000003" class="edge">
<title>Node5&#45;&gt;Node3</title>
<g id="a_edge5_Node000005_Node000003"><a xlink:title=" ">
<path fill="none" stroke="#63b8ff" d="M150.9,-124.41C142.38,-115.4 132.84,-105.32 125.29,-97.33"/>
<polygon fill="#63b8ff" stroke="#63b8ff" points="148.2,-126.65 157.62,-131.51 153.29,-121.84 148.2,-126.65"/>
</a>
</g>
</g>
</g>
</svg>
