<?xml version="1.0" encoding="UTF-8" standalone="no"?>
<!DOCTYPE svg PUBLIC "-//W3C//DTD SVG 1.1//EN"
 "http://www.w3.org/Graphics/SVG/1.1/DTD/svg11.dtd">
<!-- Generated by graphviz version 9.0.0 (20230911.1827)
 -->
<!-- Title: yaclib::detail::OneCounter&lt; CounterBase, Deleter &gt; Pages: 1 -->
<svg width="195pt" height="274pt"
 viewBox="0.00 0.00 195.25 273.75" xmlns="http://www.w3.org/2000/svg" xmlns:xlink="http://www.w3.org/1999/xlink">
<g id="graph0" class="graph" transform="scale(1 1) rotate(0) translate(4 269.75)">
<title>yaclib::detail::OneCounter&lt; CounterBase, Deleter &gt;</title>
<!-- Node1 -->
<g id="Node000001" class="node">
<title>Node1</title>
<g id="a_Node000001"><a xlink:title=" ">
<polygon fill="#999999" stroke="#666666" points="148.38,-209.5 23.63,-209.5 23.63,-179 148.38,-179 148.38,-209.5"/>
<text text-anchor="start" x="31.62" y="-196" font-family="Helvetica,sans-Serif" font-size="10.00">yaclib::detail::OneCounter</text>
<text text-anchor="middle" x="86" y="-184.75" font-family="Helvetica,sans-Serif" font-size="10.00">&lt; CounterBase, Deleter &gt;</text>
</a>
</g>
</g>
<!-- Node3 -->
<g id="Node000003" class="node">
<title>Node3</title>
<g id="a_Node000003"><a xlink:href="structyaclib_1_1detail_1_1OneCounter.html" target="_top" xlink:title=" ">
<polygon fill="white" stroke="#666666" points="172,-109.25 0,-109.25 0,-67.5 172,-67.5 172,-109.25"/>
<text text-anchor="start" x="8" y="-95.75" font-family="Helvetica,sans-Serif" font-size="10.00">yaclib::detail::OneCounter</text>
<text text-anchor="start" x="8" y="-84.5" font-family="Helvetica,sans-Serif" font-size="10.00">&lt; UniqueCore&lt; V, E &gt;, PromiseType</text>
<text text-anchor="middle" x="86" y="-73.25" font-family="Helvetica,sans-Serif" font-size="10.00">Deleter&lt; Lazy &gt; &gt;</text>
</a>
</g>
</g>
<!-- Node1&#45;&gt;Node3 -->
<g id="edge2_Node000001_Node000003" class="edge">
<title>Node1&#45;&gt;Node3</title>
<g id="a_edge2_Node000001_Node000003"><a xlink:title=" ">
<path fill="none" stroke="orange" stroke-dasharray="5,2" d="M86,-167.44C86,-149.49 86,-125.92 86,-109.39"/>
<polygon fill="orange" stroke="orange" points="82.5,-167.29 86,-177.29 89.5,-167.29 82.5,-167.29"/>
</a>
</g>
<text text-anchor="start" x="86" y="-151.5" font-family="Helvetica,sans-Serif" font-size="10.00" fill="grey"> &lt; UniqueCore&lt; V, E</text>
<text text-anchor="start" x="86" y="-140.25" font-family="Helvetica,sans-Serif" font-size="10.00" fill="grey"> &gt;, PromiseTypeDeleter</text>
<text text-anchor="middle" x="136.62" y="-129" font-family="Helvetica,sans-Serif" font-size="10.00" fill="grey">&lt; Lazy &gt; &gt;</text>
</g>
<!-- Node2 -->
<g id="Node000002" class="node">
<title>Node2</title>
<g id="a_Node000002"><a xlink:href="classCounterBase.html" target="_top" xlink:title=" ">
<polygon fill="white" stroke="#666666" points="122.12,-265.75 49.88,-265.75 49.88,-246.5 122.12,-246.5 122.12,-265.75"/>
<text text-anchor="middle" x="86" y="-252.25" font-family="Helvetica,sans-Serif" font-size="10.00">CounterBase</text>
</a>
</g>
</g>
<!-- Node2&#45;&gt;Node1 -->
<g id="edge1_Node000001_Node000002" class="edge">
<title>Node2&#45;&gt;Node1</title>
<g id="a_edge1_Node000001_Node000002"><a xlink:title=" ">
<path fill="none" stroke="#63b8ff" d="M86,-234.69C86,-226.43 86,-217.09 86,-209.57"/>
<polygon fill="#63b8ff" stroke="#63b8ff" points="82.5,-234.52 86,-244.52 89.5,-234.52 82.5,-234.52"/>
</a>
</g>
</g>
<!-- Node4 -->
<g id="Node000004" class="node">
<title>Node4</title>
<g id="a_Node000004"><a xlink:href="classyaclib_1_1detail_1_1PromiseType.html" target="_top" xlink:title=" ">
<polygon fill="white" stroke="#666666" points="151,-30.5 21,-30.5 21,0 151,0 151,-30.5"/>
<text text-anchor="start" x="29" y="-17" font-family="Helvetica,sans-Serif" font-size="10.00">yaclib::detail::PromiseType</text>
<text text-anchor="middle" x="86" y="-5.75" font-family="Helvetica,sans-Serif" font-size="10.00">&lt; V, E, Lazy &gt;</text>
</a>
</g>
</g>
<!-- Node3&#45;&gt;Node4 -->
<g id="edge3_Node000003_Node000004" class="edge">
<title>Node3&#45;&gt;Node4</title>
<g id="a_edge3_Node000003_Node000004"><a xlink:title=" ">
<path fill="none" stroke="#63b8ff" d="M86,-55.95C86,-47.11 86,-37.92 86,-30.62"/>
<polygon fill="#63b8ff" stroke="#63b8ff" points="82.5,-55.67 86,-65.67 89.5,-55.67 82.5,-55.67"/>
</a>
</g>
</g>
</g>
</svg>
