<?xml version="1.0" encoding="UTF-8" standalone="no"?>
<!DOCTYPE svg PUBLIC "-//W3C//DTD SVG 1.1//EN"
 "http://www.w3.org/Graphics/SVG/1.1/DTD/svg11.dtd">
<!-- Generated by graphviz version 3.0.0 (20220413.0242)
 -->
<!-- Title: yaclib::detail::Node Pages: 1 -->
<svg width="1526pt" height="181pt"
 viewBox="0.00 0.00 1526.00 181.00" xmlns="http://www.w3.org/2000/svg" xmlns:xlink="http://www.w3.org/1999/xlink">
<g id="graph0" class="graph" transform="scale(1 1) rotate(0) translate(4 177)">
<title>yaclib::detail::Node</title>
<!-- Node1 -->
<g id="node1" class="node">
<title>Node1</title>
<g id="a_node1"><a xlink:title="Node class, used in intrusive data structure.">
<polygon fill="#bfbfbf" stroke="black" points="0,-118 0,-137 97,-137 97,-118 0,-118"/>
<text text-anchor="middle" x="48.5" y="-125" font-family="Helvetica,sans-Serif" font-size="10.00">yaclib::detail::Node</text>
</a>
</g>
</g>
<!-- Node2 -->
<g id="node2" class="node">
<title>Node2</title>
<g id="a_node2"><a xlink:href="classyaclib_1_1IThread.html" target="_top" xlink:title=" ">
<polygon fill="none" stroke="black" points="134,-137 134,-156 213,-156 213,-137 134,-137"/>
<text text-anchor="middle" x="173.5" y="-144" font-family="Helvetica,sans-Serif" font-size="10.00">yaclib::IThread</text>
</a>
</g>
</g>
<!-- Node1&#45;&gt;Node2 -->
<g id="edge1" class="edge">
<title>Node1&#45;&gt;Node2</title>
<path fill="none" stroke="midnightblue" d="M107.17,-136.41C116.2,-137.8 125.35,-139.22 133.82,-140.53"/>
<polygon fill="midnightblue" stroke="midnightblue" points="107.47,-132.91 97.06,-134.85 106.4,-139.83 107.47,-132.91"/>
</g>
<!-- Node3 -->
<g id="node3" class="node">
<title>Node3</title>
<g id="a_node3"><a xlink:href="classyaclib_1_1Job.html" target="_top" xlink:title="Callable that can be executed in an IExecutor.">
<polygon fill="none" stroke="black" points="142.5,-99 142.5,-118 204.5,-118 204.5,-99 142.5,-99"/>
<text text-anchor="middle" x="173.5" y="-106" font-family="Helvetica,sans-Serif" font-size="10.00">yaclib::Job</text>
</a>
</g>
</g>
<!-- Node1&#45;&gt;Node3 -->
<g id="edge2" class="edge">
<title>Node1&#45;&gt;Node3</title>
<path fill="none" stroke="midnightblue" d="M107.21,-118.59C119.41,-116.7 131.81,-114.79 142.48,-113.14"/>
<polygon fill="midnightblue" stroke="midnightblue" points="106.4,-115.17 97.06,-120.15 107.47,-122.09 106.4,-115.17"/>
</g>
<!-- Node4 -->
<g id="node4" class="node">
<title>Node4</title>
<g id="a_node4"><a xlink:href="classyaclib_1_1detail_1_1InlineCore.html" target="_top" xlink:title=" ">
<polygon fill="none" stroke="black" points="250,-99 250,-118 367,-118 367,-99 250,-99"/>
<text text-anchor="middle" x="308.5" y="-106" font-family="Helvetica,sans-Serif" font-size="10.00">yaclib::detail::InlineCore</text>
</a>
</g>
</g>
<!-- Node3&#45;&gt;Node4 -->
<g id="edge3" class="edge">
<title>Node3&#45;&gt;Node4</title>
<path fill="none" stroke="midnightblue" d="M214.88,-108.5C225.93,-108.5 238.12,-108.5 249.94,-108.5"/>
<polygon fill="midnightblue" stroke="midnightblue" points="214.68,-105 204.68,-108.5 214.68,-112 214.68,-105"/>
</g>
<!-- Node5 -->
<g id="node5" class="node">
<title>Node5</title>
<g id="a_node5"><a xlink:href="classyaclib_1_1detail_1_1AllCombinator.html" target="_top" xlink:title=" ">
<polygon fill="none" stroke="black" points="407,-142.5 407,-172.5 541,-172.5 541,-142.5 407,-142.5"/>
<text text-anchor="start" x="415" y="-160.5" font-family="Helvetica,sans-Serif" font-size="10.00">yaclib::detail::AllCombinator</text>
<text text-anchor="middle" x="474" y="-149.5" font-family="Helvetica,sans-Serif" font-size="10.00">&lt; V, E, N, FutureValue &gt;</text>
</a>
</g>
</g>
<!-- Node4&#45;&gt;Node5 -->
<g id="edge4" class="edge">
<title>Node4&#45;&gt;Node5</title>
<path fill="none" stroke="midnightblue" d="M351.06,-120.95C372.9,-127.5 399.83,-135.57 422.83,-142.46"/>
<polygon fill="midnightblue" stroke="midnightblue" points="352,-117.58 341.41,-118.06 349.99,-124.29 352,-117.58"/>
</g>
<!-- Node6 -->
<g id="node6" class="node">
<title>Node6</title>
<g id="a_node6"><a xlink:href="classyaclib_1_1detail_1_1AnyCombinator.html" target="_top" xlink:title=" ">
<polygon fill="none" stroke="black" points="404,-93.5 404,-123.5 544,-123.5 544,-93.5 404,-93.5"/>
<text text-anchor="start" x="412" y="-111.5" font-family="Helvetica,sans-Serif" font-size="10.00">yaclib::detail::AnyCombinator</text>
<text text-anchor="middle" x="474" y="-100.5" font-family="Helvetica,sans-Serif" font-size="10.00">&lt; V, E, P &gt;</text>
</a>
</g>
</g>
<!-- Node4&#45;&gt;Node6 -->
<g id="edge5" class="edge">
<title>Node4&#45;&gt;Node6</title>
<path fill="none" stroke="midnightblue" d="M377.3,-108.5C386.06,-108.5 395.04,-108.5 403.83,-108.5"/>
<polygon fill="midnightblue" stroke="midnightblue" points="377.14,-105 367.14,-108.5 377.14,-112 377.14,-105"/>
</g>
<!-- Node7 -->
<g id="node7" class="node">
<title>Node7</title>
<g id="a_node7"><a xlink:href="classyaclib_1_1detail_1_1BaseCore.html" target="_top" xlink:title=" ">
<polygon fill="none" stroke="black" points="416,-55 416,-74 532,-74 532,-55 416,-55"/>
<text text-anchor="middle" x="474" y="-62" font-family="Helvetica,sans-Serif" font-size="10.00">yaclib::detail::BaseCore</text>
</a>
</g>
</g>
<!-- Node4&#45;&gt;Node7 -->
<g id="edge6" class="edge">
<title>Node4&#45;&gt;Node7</title>
<path fill="none" stroke="midnightblue" d="M354.67,-96.35C380.83,-89.3 413.29,-80.57 437.59,-74.03"/>
<polygon fill="midnightblue" stroke="midnightblue" points="353.72,-92.97 344.98,-98.95 355.54,-99.73 353.72,-92.97"/>
</g>
<!-- Node8 -->
<g id="node8" class="node">
<title>Node8</title>
<g id="a_node8"><a xlink:href="classyaclib_1_1detail_1_1ResultCore.html" target="_top" xlink:title=" ">
<polygon fill="none" stroke="black" points="812,-90.5 812,-120.5 934,-120.5 934,-90.5 812,-90.5"/>
<text text-anchor="start" x="820" y="-108.5" font-family="Helvetica,sans-Serif" font-size="10.00">yaclib::detail::ResultCore</text>
<text text-anchor="middle" x="873" y="-97.5" font-family="Helvetica,sans-Serif" font-size="10.00">&lt; void, E &gt;</text>
</a>
</g>
</g>
<!-- Node7&#45;&gt;Node8 -->
<g id="edge7" class="edge">
<title>Node7&#45;&gt;Node8</title>
<path fill="none" stroke="midnightblue" d="M518.48,-76.59C537.52,-81.4 560.22,-86.5 581,-89.5 660.25,-100.93 752.72,-104.34 811.78,-105.28"/>
<polygon fill="midnightblue" stroke="midnightblue" points="519.16,-73.15 508.6,-74.03 517.41,-79.92 519.16,-73.15"/>
</g>
<!-- Node12 -->
<g id="node12" class="node">
<title>Node12</title>
<g id="a_node12"><a xlink:href="classyaclib_1_1detail_1_1ResultCore.html" target="_top" xlink:title=" ">
<polygon fill="none" stroke="black" points="581,-49.5 581,-79.5 703,-79.5 703,-49.5 581,-49.5"/>
<text text-anchor="start" x="589" y="-67.5" font-family="Helvetica,sans-Serif" font-size="10.00">yaclib::detail::ResultCore</text>
<text text-anchor="middle" x="642" y="-56.5" font-family="Helvetica,sans-Serif" font-size="10.00">&lt; V, E &gt;</text>
</a>
</g>
</g>
<!-- Node7&#45;&gt;Node12 -->
<g id="edge11" class="edge">
<title>Node7&#45;&gt;Node12</title>
<path fill="none" stroke="midnightblue" d="M542.26,-64.5C555.06,-64.5 568.38,-64.5 580.94,-64.5"/>
<polygon fill="midnightblue" stroke="midnightblue" points="542.13,-61 532.13,-64.5 542.13,-68 542.13,-61"/>
</g>
<!-- Node16 -->
<g id="node16" class="node">
<title>Node16</title>
<g id="a_node16"><a xlink:href="classyaclib_1_1detail_1_1ResultCore_3_01void_00_01void_01_4.html" target="_top" xlink:title=" ">
<polygon fill="none" stroke="black" points="581,-0.5 581,-30.5 703,-30.5 703,-0.5 581,-0.5"/>
<text text-anchor="start" x="589" y="-18.5" font-family="Helvetica,sans-Serif" font-size="10.00">yaclib::detail::ResultCore</text>
<text text-anchor="middle" x="642" y="-7.5" font-family="Helvetica,sans-Serif" font-size="10.00">&lt; void, void &gt;</text>
</a>
</g>
</g>
<!-- Node7&#45;&gt;Node16 -->
<g id="edge17" class="edge">
<title>Node7&#45;&gt;Node16</title>
<path fill="none" stroke="midnightblue" d="M517.19,-52.05C539.36,-45.5 566.71,-37.43 590.06,-30.54"/>
<polygon fill="midnightblue" stroke="midnightblue" points="516,-48.75 507.4,-54.94 517.98,-55.46 516,-48.75"/>
</g>
<!-- Node9 -->
<g id="node9" class="node">
<title>Node9</title>
<g id="a_node9"><a xlink:href="structyaclib_1_1detail_1_1UniqueCounter.html" target="_top" xlink:title=" ">
<polygon fill="none" stroke="black" points="995,-85 995,-126 1133,-126 1133,-85 995,-85"/>
<text text-anchor="start" x="1003" y="-114" font-family="Helvetica,sans-Serif" font-size="10.00">yaclib::detail::UniqueCounter</text>
<text text-anchor="start" x="1003" y="-103" font-family="Helvetica,sans-Serif" font-size="10.00">&lt; ResultCore&lt; void, E &gt;,</text>
<text text-anchor="middle" x="1064" y="-92" font-family="Helvetica,sans-Serif" font-size="10.00"> PromiseTypeDeleter &gt;</text>
</a>
</g>
</g>
<!-- Node8&#45;&gt;Node9 -->
<g id="edge8" class="edge">
<title>Node8&#45;&gt;Node9</title>
<path fill="none" stroke="midnightblue" d="M944.21,-105.5C960.78,-105.5 978.41,-105.5 994.87,-105.5"/>
<polygon fill="midnightblue" stroke="midnightblue" points="944.06,-102 934.06,-105.5 944.06,-109 944.06,-102"/>
</g>
<!-- Node10 -->
<g id="node10" class="node">
<title>Node10</title>
<g id="a_node10"><a xlink:href="classyaclib_1_1detail_1_1BasePromiseType.html" target="_top" xlink:title=" ">
<polygon fill="none" stroke="black" points="1218,-85.5 1218,-115.5 1350,-115.5 1350,-85.5 1218,-85.5"/>
<text text-anchor="start" x="1226" y="-103.5" font-family="Helvetica,sans-Serif" font-size="10.00">yaclib::detail::BasePromise</text>
<text text-anchor="middle" x="1284" y="-92.5" font-family="Helvetica,sans-Serif" font-size="10.00">Type&lt; void, E &gt;</text>
</a>
</g>
</g>
<!-- Node9&#45;&gt;Node10 -->
<g id="edge9" class="edge">
<title>Node9&#45;&gt;Node10</title>
<path fill="none" stroke="midnightblue" d="M1143.37,-103.7C1167.72,-103.14 1194.3,-102.53 1217.67,-102"/>
<polygon fill="midnightblue" stroke="midnightblue" points="1143,-100.21 1133.08,-103.94 1143.16,-107.21 1143,-100.21"/>
</g>
<!-- Node11 -->
<g id="node11" class="node">
<title>Node11</title>
<g id="a_node11"><a xlink:href="classyaclib_1_1detail_1_1PromiseType_3_01void_00_01E_01_4.html" target="_top" xlink:title=" ">
<polygon fill="none" stroke="black" points="1387,-85.5 1387,-115.5 1518,-115.5 1518,-85.5 1387,-85.5"/>
<text text-anchor="start" x="1395" y="-103.5" font-family="Helvetica,sans-Serif" font-size="10.00">yaclib::detail::PromiseType</text>
<text text-anchor="middle" x="1452.5" y="-92.5" font-family="Helvetica,sans-Serif" font-size="10.00">&lt; void, E &gt;</text>
</a>
</g>
</g>
<!-- Node10&#45;&gt;Node11 -->
<g id="edge10" class="edge">
<title>Node10&#45;&gt;Node11</title>
<path fill="none" stroke="midnightblue" d="M1360.57,-100.5C1369.37,-100.5 1378.28,-100.5 1386.91,-100.5"/>
<polygon fill="midnightblue" stroke="midnightblue" points="1360.33,-97 1350.33,-100.5 1360.33,-104 1360.33,-97"/>
</g>
<!-- Node12&#45;&gt;Node8 -->
<g id="edge16" class="edge">
<title>Node12&#45;&gt;Node8</title>
<path fill="none" stroke="orange" stroke-dasharray="5,2" d="M713.31,-74.2C731.79,-76.97 751.68,-80.16 770,-83.5 783.63,-85.99 798.23,-88.95 811.99,-91.89"/>
<polygon fill="orange" stroke="orange" points="713.62,-70.71 703.21,-72.7 712.59,-77.63 713.62,-70.71"/>
<text text-anchor="middle" x="745.5" y="-86.5" font-family="Helvetica,sans-Serif" font-size="10.00"> &lt; void, E &gt;</text>
</g>
<!-- Node13 -->
<g id="node13" class="node">
<title>Node13</title>
<g id="a_node13"><a xlink:href="structyaclib_1_1detail_1_1UniqueCounter.html" target="_top" xlink:title=" ">
<polygon fill="none" stroke="black" points="788,-29 788,-70 958,-70 958,-29 788,-29"/>
<text text-anchor="start" x="796" y="-58" font-family="Helvetica,sans-Serif" font-size="10.00">yaclib::detail::UniqueCounter</text>
<text text-anchor="start" x="796" y="-47" font-family="Helvetica,sans-Serif" font-size="10.00">&lt; ResultCore&lt; V, E &gt;, PromiseType</text>
<text text-anchor="middle" x="873" y="-36" font-family="Helvetica,sans-Serif" font-size="10.00">Deleter &gt;</text>
</a>
</g>
</g>
<!-- Node12&#45;&gt;Node13 -->
<g id="edge12" class="edge">
<title>Node12&#45;&gt;Node13</title>
<path fill="none" stroke="midnightblue" d="M713.38,-59.89C736.87,-58.35 763.27,-56.62 787.7,-55.02"/>
<polygon fill="midnightblue" stroke="midnightblue" points="712.92,-56.41 703.17,-60.56 713.37,-63.4 712.92,-56.41"/>
</g>
<!-- Node14 -->
<g id="node14" class="node">
<title>Node14</title>
<g id="a_node14"><a xlink:href="classyaclib_1_1detail_1_1BasePromiseType.html" target="_top" xlink:title=" ">
<polygon fill="none" stroke="black" points="998,-34.5 998,-64.5 1130,-64.5 1130,-34.5 998,-34.5"/>
<text text-anchor="start" x="1006" y="-52.5" font-family="Helvetica,sans-Serif" font-size="10.00">yaclib::detail::BasePromise</text>
<text text-anchor="middle" x="1064" y="-41.5" font-family="Helvetica,sans-Serif" font-size="10.00">Type&lt; V, E &gt;</text>
</a>
</g>
</g>
<!-- Node13&#45;&gt;Node14 -->
<g id="edge13" class="edge">
<title>Node13&#45;&gt;Node14</title>
<path fill="none" stroke="midnightblue" d="M968.28,-49.5C978.29,-49.5 988.32,-49.5 997.89,-49.5"/>
<polygon fill="midnightblue" stroke="midnightblue" points="968.27,-46 958.27,-49.5 968.27,-53 968.27,-46"/>
</g>
<!-- Node14&#45;&gt;Node10 -->
<g id="edge15" class="edge">
<title>Node14&#45;&gt;Node10</title>
<path fill="none" stroke="orange" stroke-dasharray="5,2" d="M1139,-66.81C1164.93,-72.88 1193.81,-79.63 1218.85,-85.49"/>
<polygon fill="orange" stroke="orange" points="1139.76,-63.4 1129.23,-64.53 1138.17,-70.21 1139.76,-63.4"/>
<text text-anchor="middle" x="1175.5" y="-83.5" font-family="Helvetica,sans-Serif" font-size="10.00"> &lt; void, E &gt;</text>
</g>
<!-- Node15 -->
<g id="node15" class="node">
<title>Node15</title>
<g id="a_node15"><a xlink:href="classyaclib_1_1detail_1_1PromiseType.html" target="_top" xlink:title=" ">
<polygon fill="none" stroke="black" points="1218.5,-31.5 1218.5,-61.5 1349.5,-61.5 1349.5,-31.5 1218.5,-31.5"/>
<text text-anchor="start" x="1226.5" y="-49.5" font-family="Helvetica,sans-Serif" font-size="10.00">yaclib::detail::PromiseType</text>
<text text-anchor="middle" x="1284" y="-38.5" font-family="Helvetica,sans-Serif" font-size="10.00">&lt; V, E &gt;</text>
</a>
</g>
</g>
<!-- Node14&#45;&gt;Node15 -->
<g id="edge14" class="edge">
<title>Node14&#45;&gt;Node15</title>
<path fill="none" stroke="midnightblue" d="M1140.42,-48.46C1165.75,-48.11 1193.78,-47.73 1218.22,-47.39"/>
<polygon fill="midnightblue" stroke="midnightblue" points="1140.06,-44.97 1130.11,-48.6 1140.16,-51.97 1140.06,-44.97"/>
</g>
</g>
</svg>
