<?xml version="1.0" encoding="UTF-8" standalone="no"?>
<!DOCTYPE svg PUBLIC "-//W3C//DTD SVG 1.1//EN"
 "http://www.w3.org/Graphics/SVG/1.1/DTD/svg11.dtd">
<!-- Generated by graphviz version 9.0.0 (20230911.1827)
 -->
<!-- Title: yaclib::detail::AllCombinatorBase&lt; OrderPolicy::Fifo, Result&lt; V, E &gt; &gt; Pages: 1 -->
<svg width="228pt" height="194pt"
 viewBox="0.00 0.00 228.12 194.00" xmlns="http://www.w3.org/2000/svg" xmlns:xlink="http://www.w3.org/1999/xlink">
<g id="graph0" class="graph" transform="scale(1 1) rotate(0) translate(4 190)">
<title>yaclib::detail::AllCombinatorBase&lt; OrderPolicy::Fifo, Result&lt; V, E &gt; &gt;</title>
<!-- Node1 -->
<g id="Node000001" class="node">
<title>Node1</title>
<g id="a_Node000001"><a xlink:title=" ">
<polygon fill="#999999" stroke="#666666" points="178.5,-41.75 44.75,-41.75 44.75,0 178.5,0 178.5,-41.75"/>
<text text-anchor="start" x="52.75" y="-28.25" font-family="Helvetica,sans-Serif" font-size="10.00">yaclib::detail::AllCombinator</text>
<text text-anchor="start" x="52.75" y="-17" font-family="Helvetica,sans-Serif" font-size="10.00">Base&lt; OrderPolicy::Fifo,</text>
<text text-anchor="middle" x="111.62" y="-5.75" font-family="Helvetica,sans-Serif" font-size="10.00"> Result&lt; V, E &gt; &gt;</text>
</a>
</g>
</g>
<!-- Node2 -->
<g id="Node000002" class="node">
<title>Node2</title>
<g id="a_Node000002"><a xlink:title=" ">
<polygon fill="white" stroke="#666666" points="105.25,-113.88 0,-113.88 0,-94.62 105.25,-94.62 105.25,-113.88"/>
<text text-anchor="middle" x="52.62" y="-100.38" font-family="Helvetica,sans-Serif" font-size="10.00">atomic&lt; std::size_t &gt;</text>
</a>
</g>
</g>
<!-- Node2&#45;&gt;Node1 -->
<g id="edge1_Node000001_Node000002" class="edge">
<title>Node2&#45;&gt;Node1</title>
<g id="a_edge1_Node000001_Node000002"><a xlink:title=" ">
<path fill="none" stroke="#9a32cd" stroke-dasharray="5,2" d="M65.79,-85.09C75.04,-72.34 87.4,-55.28 96.96,-42.1"/>
<polygon fill="#9a32cd" stroke="#9a32cd" points="63.09,-82.85 60.05,-93.01 68.76,-86.96 63.09,-82.85"/>
</a>
</g>
<text text-anchor="middle" x="100.38" y="-61.5" font-family="Helvetica,sans-Serif" font-size="10.00" fill="grey"> _ticket</text>
</g>
<!-- Node3 -->
<g id="Node000003" class="node">
<title>Node3</title>
<g id="a_Node000003"><a xlink:title=" ">
<polygon fill="white" stroke="#666666" points="75.25,-186 30,-186 30,-166.75 75.25,-166.75 75.25,-186"/>
<text text-anchor="middle" x="52.62" y="-172.5" font-family="Helvetica,sans-Serif" font-size="10.00">atomic</text>
</a>
</g>
</g>
<!-- Node3&#45;&gt;Node2 -->
<g id="edge2_Node000002_Node000003" class="edge">
<title>Node3&#45;&gt;Node2</title>
<g id="a_edge2_Node000002_Node000003"><a xlink:title=" ">
<path fill="none" stroke="orange" stroke-dasharray="5,2" d="M52.62,-154.99C52.62,-141.52 52.62,-124.51 52.62,-114.28"/>
<polygon fill="orange" stroke="orange" points="49.13,-154.98 52.63,-164.98 56.13,-154.98 49.13,-154.98"/>
</a>
</g>
<text text-anchor="middle" x="83.75" y="-139.25" font-family="Helvetica,sans-Serif" font-size="10.00" fill="grey"> &lt; std::size_t &gt;</text>
</g>
<!-- Node4 -->
<g id="Node000004" class="node">
<title>Node4</title>
<g id="a_Node000004"><a xlink:title=" ">
<polygon fill="white" stroke="#666666" points="220.12,-119.5 123.12,-119.5 123.12,-89 220.12,-89 220.12,-119.5"/>
<text text-anchor="start" x="131.12" y="-106" font-family="Helvetica,sans-Serif" font-size="10.00">vector&lt; Result&lt; V,</text>
<text text-anchor="middle" x="171.62" y="-94.75" font-family="Helvetica,sans-Serif" font-size="10.00"> E &gt; &gt;</text>
</a>
</g>
</g>
<!-- Node4&#45;&gt;Node1 -->
<g id="edge3_Node000001_Node000004" class="edge">
<title>Node4&#45;&gt;Node1</title>
<g id="a_edge3_Node000001_Node000004"><a xlink:title=" ">
<path fill="none" stroke="#9a32cd" stroke-dasharray="5,2" d="M154.31,-79.77C145.52,-67.85 134.96,-53.52 126.54,-42.1"/>
<polygon fill="#9a32cd" stroke="#9a32cd" points="151.25,-81.51 160,-87.48 156.88,-77.36 151.25,-81.51"/>
</a>
</g>
<text text-anchor="middle" x="165" y="-61.5" font-family="Helvetica,sans-Serif" font-size="10.00" fill="grey"> _results</text>
</g>
</g>
</svg>
