<?xml version="1.0" encoding="UTF-8" standalone="no"?>
<!DOCTYPE svg PUBLIC "-//W3C//DTD SVG 1.1//EN"
 "http://www.w3.org/Graphics/SVG/1.1/DTD/svg11.dtd">
<!-- Generated by graphviz version 3.0.0 (20221109.1736)
 -->
<!-- Title: yaclib::detail::AllCombinatorBase&lt; OrderPolicy::Fifo, Result&lt; V, E &gt; &gt; Pages: 1 -->
<svg width="230pt" height="195pt"
 viewBox="0.00 0.00 230.00 195.00" xmlns="http://www.w3.org/2000/svg" xmlns:xlink="http://www.w3.org/1999/xlink">
<g id="graph0" class="graph" transform="scale(1 1) rotate(0) translate(4 191)">
<title>yaclib::detail::AllCombinatorBase&lt; OrderPolicy::Fifo, Result&lt; V, E &gt; &gt;</title>
<!-- Node1 -->
<g id="node1" class="node">
<title>Node1</title>
<g id="a_node1"><a xlink:title=" ">
<polygon fill="#bfbfbf" stroke="black" points="46,-0.5 46,-41.5 180,-41.5 180,-0.5 46,-0.5"/>
<text text-anchor="start" x="54" y="-29.5" font-family="Helvetica,sans-Serif" font-size="10.00">yaclib::detail::AllCombinator</text>
<text text-anchor="start" x="54" y="-18.5" font-family="Helvetica,sans-Serif" font-size="10.00">Base&lt; OrderPolicy::Fifo,</text>
<text text-anchor="middle" x="113" y="-7.5" font-family="Helvetica,sans-Serif" font-size="10.00"> Result&lt; V, E &gt; &gt;</text>
</a>
</g>
</g>
<!-- Node2 -->
<g id="node2" class="node">
<title>Node2</title>
<g id="a_node2"><a xlink:title=" ">
<polygon fill="none" stroke="black" points="0,-95 0,-114 106,-114 106,-95 0,-95"/>
<text text-anchor="middle" x="53" y="-102" font-family="Helvetica,sans-Serif" font-size="10.00">atomic&lt; std::size_t &gt;</text>
</a>
</g>
</g>
<!-- Node2&#45;&gt;Node1 -->
<g id="edge1" class="edge">
<title>Node2&#45;&gt;Node1</title>
<path fill="none" stroke="#9a32cd" stroke-dasharray="5,2" d="M65.39,-86.67C75,-73.62 88.34,-55.5 98.45,-41.76"/>
<polygon fill="#9a32cd" stroke="#9a32cd" points="62.53,-84.65 59.42,-94.78 68.17,-88.8 62.53,-84.65"/>
<text text-anchor="middle" x="101" y="-63" font-family="Helvetica,sans-Serif" font-size="10.00"> _ticket</text>
</g>
<!-- Node3 -->
<g id="node3" class="node">
<title>Node3</title>
<g id="a_node3"><a xlink:title=" ">
<polygon fill="none" stroke="black" points="30,-167.5 30,-186.5 76,-186.5 76,-167.5 30,-167.5"/>
<text text-anchor="middle" x="53" y="-174.5" font-family="Helvetica,sans-Serif" font-size="10.00">atomic</text>
</a>
</g>
</g>
<!-- Node3&#45;&gt;Node2 -->
<g id="edge2" class="edge">
<title>Node3&#45;&gt;Node2</title>
<path fill="none" stroke="orange" stroke-dasharray="5,2" d="M53,-156.94C53,-143.03 53,-124.82 53,-114.22"/>
<polygon fill="orange" stroke="orange" points="49.5,-157.36 53,-167.36 56.5,-157.36 49.5,-157.36"/>
<text text-anchor="middle" x="84.5" y="-141" font-family="Helvetica,sans-Serif" font-size="10.00"> &lt; std::size_t &gt;</text>
</g>
<!-- Node4 -->
<g id="node4" class="node">
<title>Node4</title>
<g id="a_node4"><a xlink:title=" ">
<polygon fill="none" stroke="black" points="124,-89.5 124,-119.5 222,-119.5 222,-89.5 124,-89.5"/>
<text text-anchor="start" x="132" y="-107.5" font-family="Helvetica,sans-Serif" font-size="10.00">vector&lt; Result&lt; V,</text>
<text text-anchor="middle" x="173" y="-96.5" font-family="Helvetica,sans-Serif" font-size="10.00"> E &gt; &gt;</text>
</a>
</g>
</g>
<!-- Node4&#45;&gt;Node1 -->
<g id="edge3" class="edge">
<title>Node4&#45;&gt;Node1</title>
<path fill="none" stroke="#9a32cd" stroke-dasharray="5,2" d="M156.62,-81.24C147.47,-68.82 136.18,-53.48 127.38,-41.53"/>
<polygon fill="#9a32cd" stroke="#9a32cd" points="153.8,-83.33 162.55,-89.3 159.44,-79.18 153.8,-83.33"/>
<text text-anchor="middle" x="166.5" y="-63" font-family="Helvetica,sans-Serif" font-size="10.00"> _results</text>
</g>
</g>
</svg>
