<?xml version="1.0" encoding="UTF-8" standalone="no"?>
<!DOCTYPE svg PUBLIC "-//W3C//DTD SVG 1.1//EN"
 "http://www.w3.org/Graphics/SVG/1.1/DTD/svg11.dtd">
<!-- Generated by graphviz version 9.0.0 (20230911.1827)
 -->
<!-- Title: yaclib::detail::Node Pages: 1 -->
<!--zoomable 485 -->

<svg id="main" version="1.1" xmlns="http://www.w3.org/2000/svg" xmlns:xlink="http://www.w3.org/1999/xlink" xml:space="preserve" onload="init(evt)">
<style type="text/css"><![CDATA[
.node, .edge {opacity: 0.7;}
.node.selected, .edge.selected {opacity: 1;}
.edge:hover path { stroke: red; }
.edge:hover polygon { stroke: red; fill: red; }
]]></style>

<defs>
  <circle id="rim" cx="0" cy="0" r="7"/>
  <circle id="rim2" cx="0" cy="0" r="3.5"/>
  <g id="zoomPlus">
    <use xlink:href="#rim" fill="#404040"><set attributeName="fill" to="#808080" begin="zoomplus.mouseover" end="zoomplus.mouseout"/></use>
    <path d="M-4,0h8M0,-4v8" fill="none" stroke="white" stroke-width="1.5" pointer-events="none"/>
  </g>
  <g id="zoomMin">
    <use xlink:href="#rim" fill="#404040"><set attributeName="fill" to="#808080" begin="zoomminus.mouseover" end="zoomminus.mouseout"/></use>
    <path d="M-4,0h8" fill="none" stroke="white" stroke-width="1.5" pointer-events="none"/>
  </g>
  <g id="arrowUp" transform="translate(30 24)">
    <use xlink:href="#rim"/>
    <path pointer-events="none" fill="none" stroke="white" stroke-width="1.5" d="M0,-3.0v7 M-2.5,-0.5L0,-3.0L2.5,-0.5"/>
  </g>
  <g id="arrowRight" transform="rotate(90) translate(36 -43)">
    <use xlink:href="#rim"/>
    <path pointer-events="none" fill="none" stroke="white" stroke-width="1.5" d="M0,-3.0v7 M-2.5,-0.5L0,-3.0L2.5,-0.5"/>
  </g>
  <g id="arrowDown" transform="rotate(180) translate(-30 -48)">
    <use xlink:href="#rim"/>
    <path pointer-events="none" fill="none" stroke="white" stroke-width="1.5" d="M0,-3.0v7 M-2.5,-0.5L0,-3.0L2.5,-0.5"/>
  </g>
  <g id="arrowLeft" transform="rotate(270) translate(-36 17)">
    <use xlink:href="#rim"/>
    <path pointer-events="none" fill="none" stroke="white" stroke-width="1.5" d="M0,-3.0v7 M-2.5,-0.5L0,-3.0L2.5,-0.5"/>
  </g>
  <g id="resetDef">
    <use xlink:href="#rim2" fill="#404040"><set attributeName="fill" to="#808080" begin="reset.mouseover" end="reset.mouseout"/></use>
  </g>
</defs>
<script type="application/ecmascript">
var viewWidth = 1126;
var viewHeight = 485;
var sectionId = 'dynsection-0';
</script>
<script type="application/ecmascript" xlink:href="svg.min.js"/>
<svg id="graph" class="graph">
<g id="viewport">
<title>yaclib::detail::Node</title>
<!-- Node1 -->
<g id="Node000001" class="node">
<title>Node1</title>
<g id="a_Node000001"><a xlink:title="Node class, used in intrusive data structure.">
<polygon fill="#999999" stroke="#666666" points="96.25,-276.88 0,-276.88 0,-257.62 96.25,-257.62 96.25,-276.88"/>
<text text-anchor="middle" x="48.12" y="-263.38" font-family="Helvetica,sans-Serif" font-size="10.00">yaclib::detail::Node</text>
</a>
</g>
</g>
<!-- Node2 -->
<g id="Node000002" class="node">
<title>Node2</title>
<g id="a_Node000002"><a xlink:href="classyaclib_1_1Job.html" target="_top" xlink:title="Callable that can be executed in an IExecutor.">
<polygon fill="white" stroke="#666666" points="194.25,-276.88 133.25,-276.88 133.25,-257.62 194.25,-257.62 194.25,-276.88"/>
<text text-anchor="middle" x="163.75" y="-263.38" font-family="Helvetica,sans-Serif" font-size="10.00">yaclib::Job</text>
</a>
</g>
</g>
<!-- Node1&#45;&gt;Node2 -->
<g id="edge1_Node000001_Node000002" class="edge">
<title>Node1&#45;&gt;Node2</title>
<g id="a_edge1_Node000001_Node000002"><a xlink:title=" ">
<path fill="none" stroke="#63b8ff" d="M107.98,-267.25C116.62,-267.25 125.2,-267.25 132.91,-267.25"/>
<polygon fill="#63b8ff" stroke="#63b8ff" points="108.17,-263.75 98.17,-267.25 108.17,-270.75 108.17,-263.75"/>
</a>
</g>
</g>
<!-- Node3 -->
<g id="Node000003" class="node">
<title>Node3</title>
<g id="a_Node000003"><a xlink:href="structyaclib_1_1OneShotEvent_1_1TimedWaiter.html" target="_top" xlink:title="Public only because Waiter is public.">
<polygon fill="white" stroke="#666666" points="345.12,-374.5 236.88,-374.5 236.88,-344 345.12,-344 345.12,-374.5"/>
<text text-anchor="start" x="244.88" y="-361" font-family="Helvetica,sans-Serif" font-size="10.00">yaclib::OneShotEvent</text>
<text text-anchor="middle" x="291" y="-349.75" font-family="Helvetica,sans-Serif" font-size="10.00">::TimedWaiter</text>
</a>
</g>
</g>
<!-- Node2&#45;&gt;Node3 -->
<g id="edge2_Node000002_Node000003" class="edge">
<title>Node2&#45;&gt;Node3</title>
<g id="a_edge2_Node000002_Node000003"><a xlink:title=" ">
<path fill="none" stroke="#63b8ff" d="M179.64,-285.8C192.17,-300.47 211.22,-320.67 231.25,-334.25 236.3,-337.67 241.89,-340.78 247.55,-343.54"/>
<polygon fill="#63b8ff" stroke="#63b8ff" points="182.45,-283.7 173.36,-278.25 177.06,-288.17 182.45,-283.7"/>
</a>
</g>
</g>
<!-- Node4 -->
<g id="Node000004" class="node">
<title>Node4</title>
<g id="a_Node000004"><a xlink:href="structyaclib_1_1OneShotEvent_1_1Waiter.html" target="_top" xlink:title="Waiter is public for advanced users.">
<polygon fill="white" stroke="#666666" points="345.12,-325.5 236.88,-325.5 236.88,-295 345.12,-295 345.12,-325.5"/>
<text text-anchor="start" x="244.88" y="-312" font-family="Helvetica,sans-Serif" font-size="10.00">yaclib::OneShotEvent</text>
<text text-anchor="middle" x="291" y="-300.75" font-family="Helvetica,sans-Serif" font-size="10.00">::Waiter</text>
</a>
</g>
</g>
<!-- Node2&#45;&gt;Node4 -->
<g id="edge3_Node000002_Node000004" class="edge">
<title>Node2&#45;&gt;Node4</title>
<g id="a_edge3_Node000002_Node000004"><a xlink:title=" ">
<path fill="none" stroke="#63b8ff" d="M204.72,-280.97C217.27,-285.28 231.23,-290.07 244.15,-294.51"/>
<polygon fill="#63b8ff" stroke="#63b8ff" points="206.14,-277.76 195.55,-277.82 203.87,-284.38 206.14,-277.76"/>
</a>
</g>
</g>
<!-- Node5 -->
<g id="Node000005" class="node">
<title>Node5</title>
<g id="a_Node000005"><a xlink:href="classyaclib_1_1Strand.html" target="_top" xlink:title=" ">
<polygon fill="white" stroke="#666666" points="327.88,-276.88 254.12,-276.88 254.12,-257.62 327.88,-257.62 327.88,-276.88"/>
<text text-anchor="middle" x="291" y="-263.38" font-family="Helvetica,sans-Serif" font-size="10.00">yaclib::Strand</text>
</a>
</g>
</g>
<!-- Node2&#45;&gt;Node5 -->
<g id="edge4_Node000002_Node000005" class="edge">
<title>Node2&#45;&gt;Node5</title>
<g id="a_edge4_Node000002_Node000005"><a xlink:title=" ">
<path fill="none" stroke="#8b1a1a" d="M205.82,-267.25C221.31,-267.25 238.81,-267.25 253.83,-267.25"/>
<polygon fill="#8b1a1a" stroke="#8b1a1a" points="205.95,-263.75 195.95,-267.25 205.95,-270.75 205.95,-263.75"/>
</a>
</g>
</g>
<!-- Node6 -->
<g id="Node000006" class="node">
<title>Node6</title>
<g id="a_Node000006"><a xlink:href="classyaclib_1_1detail_1_1InlineCore.html" target="_top" xlink:title=" ">
<polygon fill="white" stroke="#666666" points="349.25,-239.88 232.75,-239.88 232.75,-220.62 349.25,-220.62 349.25,-239.88"/>
<text text-anchor="middle" x="291" y="-226.38" font-family="Helvetica,sans-Serif" font-size="10.00">yaclib::detail::InlineCore</text>
</a>
</g>
</g>
<!-- Node2&#45;&gt;Node6 -->
<g id="edge5_Node000002_Node000006" class="edge">
<title>Node2&#45;&gt;Node6</title>
<g id="a_edge5_Node000002_Node000006"><a xlink:title=" ">
<path fill="none" stroke="#63b8ff" d="M205.35,-255.26C221.75,-250.41 240.46,-244.89 256.11,-240.26"/>
<polygon fill="#63b8ff" stroke="#63b8ff" points="204.48,-251.86 195.88,-258.05 206.47,-258.58 204.48,-251.86"/>
</a>
</g>
</g>
<!-- Node25 -->
<g id="Node000025" class="node">
<title>Node25</title>
<g id="a_Node000025"><a xlink:href="classyaclib_1_1detail_1_1UniqueJob.html" target="_top" xlink:title=" ">
<polygon fill="white" stroke="#666666" points="350.75,-202.5 231.25,-202.5 231.25,-172 350.75,-172 350.75,-202.5"/>
<text text-anchor="start" x="239.25" y="-189" font-family="Helvetica,sans-Serif" font-size="10.00">yaclib::detail::UniqueJob</text>
<text text-anchor="middle" x="291" y="-177.75" font-family="Helvetica,sans-Serif" font-size="10.00">&lt; Func &gt;</text>
</a>
</g>
</g>
<!-- Node2&#45;&gt;Node25 -->
<g id="edge26_Node000002_Node000025" class="edge">
<title>Node2&#45;&gt;Node25</title>
<g id="a_edge26_Node000002_Node000025"><a xlink:title=" ">
<path fill="none" stroke="#63b8ff" d="M182.64,-249.5C195.39,-237.55 213.37,-222.06 231.25,-211.25 236.25,-208.23 241.69,-205.43 247.19,-202.89"/>
<polygon fill="#63b8ff" stroke="#63b8ff" points="180.23,-246.96 175.45,-256.41 185.08,-252 180.23,-246.96"/>
</a>
</g>
</g>
<!-- Node7 -->
<g id="Node000007" class="node">
<title>Node7</title>
<g id="a_Node000007"><a xlink:href="classyaclib_1_1detail_1_1AwaitOnEvent.html" target="_top" xlink:title=" ">
<polygon fill="white" stroke="#666666" points="745.25,-474.5 610,-474.5 610,-444 745.25,-444 745.25,-474.5"/>
<text text-anchor="start" x="618" y="-461" font-family="Helvetica,sans-Serif" font-size="10.00">yaclib::detail::AwaitOnEvent</text>
<text text-anchor="middle" x="677.62" y="-449.75" font-family="Helvetica,sans-Serif" font-size="10.00">&lt; true &gt;</text>
</a>
</g>
</g>
<!-- Node6&#45;&gt;Node7 -->
<g id="edge6_Node000006_Node000007" class="edge">
<title>Node6&#45;&gt;Node7</title>
<g id="a_edge6_Node000006_Node000007"><a xlink:title=" ">
<path fill="none" stroke="#63b8ff" d="M349.99,-247.37C350.24,-247.66 350.5,-247.95 350.75,-248.25 372.42,-274.18 359.22,-366.83 368.75,-399.25 374.19,-417.75 371.78,-427.44 387.75,-438.25 453.12,-482.51 546.96,-480.38 609.76,-472.11"/>
<polygon fill="#63b8ff" stroke="#63b8ff" points="352.44,-244.85 342.49,-241.2 347.99,-250.26 352.44,-244.85"/>
</a>
</g>
</g>
<!-- Node8 -->
<g id="Node000008" class="node">
<title>Node8</title>
<g id="a_Node000008"><a xlink:href="classyaclib_1_1detail_1_1AwaitOnEvent.html" target="_top" xlink:title=" ">
<polygon fill="white" stroke="#666666" points="745.25,-403.5 610,-403.5 610,-373 745.25,-373 745.25,-403.5"/>
<text text-anchor="start" x="618" y="-390" font-family="Helvetica,sans-Serif" font-size="10.00">yaclib::detail::AwaitOnEvent</text>
<text text-anchor="middle" x="677.62" y="-378.75" font-family="Helvetica,sans-Serif" font-size="10.00">&lt; false &gt;</text>
</a>
</g>
</g>
<!-- Node6&#45;&gt;Node8 -->
<g id="edge7_Node000006_Node000008" class="edge">
<title>Node6&#45;&gt;Node8</title>
<g id="a_edge7_Node000006_Node000008"><a xlink:title=" ">
<path fill="none" stroke="#63b8ff" d="M348.83,-246.52C349.49,-247.08 350.13,-247.66 350.75,-248.25 386.2,-282.16 349.49,-321.54 387.75,-352.25 420.9,-378.87 535.26,-386.05 609.76,-387.84"/>
<polygon fill="#63b8ff" stroke="#63b8ff" points="350.98,-243.75 340.71,-241.15 347.12,-249.59 350.98,-243.75"/>
</a>
</g>
</g>
<!-- Node9 -->
<g id="Node000009" class="node">
<title>Node9</title>
<g id="a_Node000009"><a xlink:href="classyaclib_1_1detail_1_1AllCombinator.html" target="_top" xlink:title=" ">
<polygon fill="white" stroke="#666666" points="527.88,-343.5 394.12,-343.5 394.12,-313 527.88,-313 527.88,-343.5"/>
<text text-anchor="start" x="402.12" y="-330" font-family="Helvetica,sans-Serif" font-size="10.00">yaclib::detail::AllCombinator</text>
<text text-anchor="middle" x="461" y="-318.75" font-family="Helvetica,sans-Serif" font-size="10.00">&lt; O, R, E &gt;</text>
</a>
</g>
</g>
<!-- Node6&#45;&gt;Node9 -->
<g id="edge8_Node000006_Node000009" class="edge">
<title>Node6&#45;&gt;Node9</title>
<g id="a_edge8_Node000006_Node000009"><a xlink:title=" ">
<path fill="none" stroke="#63b8ff" d="M346.58,-245.43C348.02,-246.32 349.41,-247.26 350.75,-248.25 374.42,-265.8 364.4,-285.28 387.75,-303.25 392.38,-306.81 397.55,-309.89 402.94,-312.54"/>
<polygon fill="#63b8ff" stroke="#63b8ff" points="348.42,-242.44 337.92,-240.98 345.22,-248.67 348.42,-242.44"/>
</a>
</g>
</g>
<!-- Node10 -->
<g id="Node000010" class="node">
<title>Node10</title>
<g id="a_Node000010"><a xlink:href="classyaclib_1_1detail_1_1AllCombinator_3_01OrderPolicy_1_1Same_00_01R_00_01E_01_4.html" target="_top" xlink:title=" ">
<polygon fill="white" stroke="#666666" points="529,-294.5 393,-294.5 393,-264 529,-264 529,-294.5"/>
<text text-anchor="start" x="401" y="-281" font-family="Helvetica,sans-Serif" font-size="10.00">yaclib::detail::AllCombinator</text>
<text text-anchor="middle" x="461" y="-269.75" font-family="Helvetica,sans-Serif" font-size="10.00">&lt; OrderPolicy::Same, R, E &gt;</text>
</a>
</g>
</g>
<!-- Node6&#45;&gt;Node10 -->
<g id="edge9_Node000006_Node000010" class="edge">
<title>Node6&#45;&gt;Node10</title>
<g id="a_edge9_Node000006_Node000010"><a xlink:title=" ">
<path fill="none" stroke="#63b8ff" d="M337.38,-243.49C358.58,-249.67 383.96,-257.07 406.13,-263.54"/>
<polygon fill="#63b8ff" stroke="#63b8ff" points="338.44,-240.15 327.86,-240.71 336.48,-246.87 338.44,-240.15"/>
</a>
</g>
</g>
<!-- Node11 -->
<g id="Node000011" class="node">
<title>Node11</title>
<g id="a_Node000011"><a xlink:href="classyaclib_1_1detail_1_1AnyCombinator.html" target="_top" xlink:title=" ">
<polygon fill="white" stroke="#666666" points="530.5,-245.5 391.5,-245.5 391.5,-215 530.5,-215 530.5,-245.5"/>
<text text-anchor="start" x="399.5" y="-232" font-family="Helvetica,sans-Serif" font-size="10.00">yaclib::detail::AnyCombinator</text>
<text text-anchor="middle" x="461" y="-220.75" font-family="Helvetica,sans-Serif" font-size="10.00">&lt; V, E, P &gt;</text>
</a>
</g>
</g>
<!-- Node6&#45;&gt;Node11 -->
<g id="edge10_Node000006_Node000011" class="edge">
<title>Node6&#45;&gt;Node11</title>
<g id="a_edge10_Node000006_Node000011"><a xlink:title=" ">
<path fill="none" stroke="#63b8ff" d="M360.86,-230.25C370.81,-230.25 381.06,-230.25 391.01,-230.25"/>
<polygon fill="#63b8ff" stroke="#63b8ff" points="360.86,-226.75 350.86,-230.25 360.86,-233.75 360.86,-226.75"/>
</a>
</g>
</g>
<!-- Node12 -->
<g id="Node000012" class="node">
<title>Node12</title>
<g id="a_Node000012"><a xlink:href="classyaclib_1_1detail_1_1AwaitEvent.html" target="_top" xlink:title=" ">
<polygon fill="white" stroke="#666666" points="522.25,-196.88 399.75,-196.88 399.75,-177.62 522.25,-177.62 522.25,-196.88"/>
<text text-anchor="middle" x="461" y="-183.38" font-family="Helvetica,sans-Serif" font-size="10.00">yaclib::detail::AwaitEvent</text>
</a>
</g>
</g>
<!-- Node6&#45;&gt;Node12 -->
<g id="edge11_Node000006_Node000012" class="edge">
<title>Node6&#45;&gt;Node12</title>
<g id="a_edge11_Node000006_Node000012"><a xlink:title=" ">
<path fill="none" stroke="#63b8ff" d="M342.51,-217.32C367.52,-210.92 397.26,-203.31 420.57,-197.34"/>
<polygon fill="#63b8ff" stroke="#63b8ff" points="341.67,-213.92 332.85,-219.79 343.41,-220.7 341.67,-213.92"/>
</a>
</g>
</g>
<!-- Node13 -->
<g id="Node000013" class="node">
<title>Node13</title>
<g id="a_Node000013"><a xlink:href="classyaclib_1_1detail_1_1AwaitOnEvent.html" target="_top" xlink:title=" ">
<polygon fill="white" stroke="#666666" points="528.62,-429.5 393.38,-429.5 393.38,-399 528.62,-399 528.62,-429.5"/>
<text text-anchor="start" x="401.38" y="-416" font-family="Helvetica,sans-Serif" font-size="10.00">yaclib::detail::AwaitOnEvent</text>
<text text-anchor="middle" x="461" y="-404.75" font-family="Helvetica,sans-Serif" font-size="10.00">&lt; Single &gt;</text>
</a>
</g>
</g>
<!-- Node6&#45;&gt;Node13 -->
<g id="edge12_Node000006_Node000013" class="edge">
<title>Node6&#45;&gt;Node13</title>
<g id="a_edge12_Node000006_Node000013"><a xlink:title=" ">
<path fill="none" stroke="#63b8ff" d="M349.98,-247.37C350.24,-247.66 350.5,-247.95 350.75,-248.25 390.41,-295.14 329.33,-338.16 368.75,-385.25 375.26,-393.03 383.85,-398.74 393.15,-402.94"/>
<polygon fill="#63b8ff" stroke="#63b8ff" points="352.42,-244.84 342.46,-241.23 347.99,-250.27 352.42,-244.84"/>
</a>
</g>
</g>
<!-- Node14 -->
<g id="Node000014" class="node">
<title>Node14</title>
<g id="a_Node000014"><a xlink:href="classyaclib_1_1detail_1_1BaseCore.html" target="_top" xlink:title=" ">
<polygon fill="white" stroke="#666666" points="518.88,-159.88 403.12,-159.88 403.12,-140.62 518.88,-140.62 518.88,-159.88"/>
<text text-anchor="middle" x="461" y="-146.38" font-family="Helvetica,sans-Serif" font-size="10.00">yaclib::detail::BaseCore</text>
</a>
</g>
</g>
<!-- Node6&#45;&gt;Node14 -->
<g id="edge15_Node000006_Node000014" class="edge">
<title>Node6&#45;&gt;Node14</title>
<g id="a_edge15_Node000006_Node000014"><a xlink:title=" ">
<path fill="none" stroke="#63b8ff" d="M343.64,-215.43C346.1,-214.14 348.49,-212.75 350.75,-211.25 371.75,-197.3 366.29,-181.48 387.75,-168.25 392.92,-165.06 398.63,-162.44 404.5,-160.28"/>
<polygon fill="#63b8ff" stroke="#63b8ff" points="342.22,-212.23 334.54,-219.53 345.1,-218.61 342.22,-212.23"/>
</a>
</g>
</g>
<!-- Node21 -->
<g id="Node000021" class="node">
<title>Node21</title>
<g id="a_Node000021"><a xlink:href="structyaclib_1_1detail_1_1CallCallback.html" target="_top" xlink:title=" ">
<polygon fill="white" stroke="#666666" points="524.5,-122.5 397.5,-122.5 397.5,-92 524.5,-92 524.5,-122.5"/>
<text text-anchor="start" x="405.5" y="-109" font-family="Helvetica,sans-Serif" font-size="10.00">yaclib::detail::CallCallback</text>
<text text-anchor="middle" x="461" y="-97.75" font-family="Helvetica,sans-Serif" font-size="10.00">&lt; Derived &gt;</text>
</a>
</g>
</g>
<!-- Node6&#45;&gt;Node21 -->
<g id="edge22_Node000006_Node000021" class="edge">
<title>Node6&#45;&gt;Node21</title>
<g id="a_edge22_Node000006_Node000021"><a xlink:title=" ">
<path fill="none" stroke="#63b8ff" d="M346.72,-214.45C348.12,-213.45 349.47,-212.38 350.75,-211.25 380.07,-185.27 358.54,-157.35 387.75,-131.25 391.3,-128.08 395.28,-125.33 399.5,-122.94"/>
<polygon fill="#63b8ff" stroke="#63b8ff" points="345.02,-211.39 338.12,-219.43 348.53,-217.45 345.02,-211.39"/>
</a>
</g>
</g>
<!-- Node22 -->
<g id="Node000022" class="node">
<title>Node22</title>
<g id="a_Node000022"><a xlink:href="structyaclib_1_1detail_1_1DropCallback.html" target="_top" xlink:title=" ">
<polygon fill="white" stroke="#666666" points="526.38,-73.5 395.62,-73.5 395.62,-43 526.38,-43 526.38,-73.5"/>
<text text-anchor="start" x="403.62" y="-60" font-family="Helvetica,sans-Serif" font-size="10.00">yaclib::detail::DropCallback</text>
<text text-anchor="middle" x="461" y="-48.75" font-family="Helvetica,sans-Serif" font-size="10.00">&lt; Derived &gt;</text>
</a>
</g>
</g>
<!-- Node6&#45;&gt;Node22 -->
<g id="edge23_Node000006_Node000022" class="edge">
<title>Node6&#45;&gt;Node22</title>
<g id="a_edge23_Node000006_Node000022"><a xlink:title=" ">
<path fill="none" stroke="#63b8ff" d="M348,-213.84C348.95,-213.02 349.87,-212.15 350.75,-211.25 371.36,-189.99 367.36,-104.72 387.75,-83.25 391.22,-79.59 395.26,-76.47 399.61,-73.8"/>
<polygon fill="#63b8ff" stroke="#63b8ff" points="346.15,-210.86 339.78,-219.33 350.04,-216.68 346.15,-210.86"/>
</a>
</g>
</g>
<!-- Node23 -->
<g id="Node000023" class="node">
<title>Node23</title>
<g id="a_Node000023"><a xlink:href="classyaclib_1_1detail_1_1SharedBaseCore.html" target="_top" xlink:title=" ">
<polygon fill="white" stroke="#666666" points="534.25,-24.88 387.75,-24.88 387.75,-5.62 534.25,-5.62 534.25,-24.88"/>
<text text-anchor="middle" x="461" y="-11.38" font-family="Helvetica,sans-Serif" font-size="10.00">yaclib::detail::SharedBaseCore</text>
</a>
</g>
</g>
<!-- Node6&#45;&gt;Node23 -->
<g id="edge24_Node000006_Node000023" class="edge">
<title>Node6&#45;&gt;Node23</title>
<g id="a_edge24_Node000006_Node000023"><a xlink:title=" ">
<path fill="none" stroke="#63b8ff" d="M348.15,-213.87C349.06,-213.04 349.93,-212.17 350.75,-211.25 377.61,-181.36 360.07,-63.38 387.75,-34.25 391.14,-30.68 395.12,-27.75 399.44,-25.35"/>
<polygon fill="#63b8ff" stroke="#63b8ff" points="346.47,-210.77 340.32,-219.4 350.51,-216.49 346.47,-210.77"/>
</a>
</g>
</g>
<!-- Node13&#45;&gt;Node7 -->
<g id="edge13_Node000013_Node000007" class="edge">
<title>Node13&#45;&gt;Node7</title>
<g id="a_edge13_Node000013_Node000007"><a xlink:title=" ">
<path fill="none" stroke="orange" stroke-dasharray="5,2" d="M540.04,-428.49C557.19,-431.79 575.23,-435.4 592,-439 598.65,-440.43 605.57,-441.98 612.47,-443.57"/>
<polygon fill="orange" stroke="orange" points="540.89,-425.09 530.41,-426.66 539.58,-431.97 540.89,-425.09"/>
</a>
</g>
<text text-anchor="middle" x="572.12" y="-440" font-family="Helvetica,sans-Serif" font-size="10.00" fill="grey"> &lt; true &gt;</text>
</g>
<!-- Node13&#45;&gt;Node8 -->
<g id="edge14_Node000013_Node000008" class="edge">
<title>Node13&#45;&gt;Node8</title>
<g id="a_edge14_Node000013_Node000008"><a xlink:title=" ">
<path fill="none" stroke="orange" stroke-dasharray="5,2" d="M540.38,-404.76C563.13,-402 587.76,-399.02 609.74,-396.35"/>
<polygon fill="orange" stroke="orange" points="540.03,-401.27 530.53,-405.95 540.88,-408.22 540.03,-401.27"/>
</a>
</g>
<text text-anchor="middle" x="572.12" y="-404" font-family="Helvetica,sans-Serif" font-size="10.00" fill="grey"> &lt; false &gt;</text>
</g>
<!-- Node15 -->
<g id="Node000015" class="node">
<title>Node15</title>
<g id="a_Node000015"><a xlink:href="classyaclib_1_1detail_1_1NoResultCore.html" target="_top" xlink:title=" ">
<polygon fill="white" stroke="#666666" points="744.5,-180.88 610.75,-180.88 610.75,-161.62 744.5,-161.62 744.5,-180.88"/>
<text text-anchor="middle" x="677.62" y="-167.38" font-family="Helvetica,sans-Serif" font-size="10.00">yaclib::detail::NoResultCore</text>
</a>
</g>
</g>
<!-- Node14&#45;&gt;Node15 -->
<g id="edge16_Node000014_Node000015" class="edge">
<title>Node14&#45;&gt;Node15</title>
<g id="a_edge16_Node000014_Node000015"><a xlink:title=" ">
<path fill="none" stroke="#63b8ff" d="M530.36,-156.94C555.97,-159.44 585.01,-162.29 610.43,-164.77"/>
<polygon fill="#63b8ff" stroke="#63b8ff" points="531.03,-153.49 520.74,-156 530.35,-160.45 531.03,-153.49"/>
</a>
</g>
</g>
<!-- Node16 -->
<g id="Node000016" class="node">
<title>Node16</title>
<g id="a_Node000016"><a xlink:href="classyaclib_1_1detail_1_1ResultCore.html" target="_top" xlink:title=" ">
<polygon fill="white" stroke="#666666" points="738.12,-143.5 617.12,-143.5 617.12,-113 738.12,-113 738.12,-143.5"/>
<text text-anchor="start" x="625.12" y="-130" font-family="Helvetica,sans-Serif" font-size="10.00">yaclib::detail::ResultCore</text>
<text text-anchor="middle" x="677.62" y="-118.75" font-family="Helvetica,sans-Serif" font-size="10.00">&lt; V, E &gt;</text>
</a>
</g>
</g>
<!-- Node14&#45;&gt;Node16 -->
<g id="edge17_Node000014_Node000016" class="edge">
<title>Node14&#45;&gt;Node16</title>
<g id="a_edge17_Node000014_Node000016"><a xlink:title=" ">
<path fill="none" stroke="#63b8ff" d="M530.47,-143.23C558.27,-140.38 590.09,-137.12 616.93,-134.37"/>
<polygon fill="#63b8ff" stroke="#63b8ff" points="530.33,-139.73 520.74,-144.23 531.04,-146.69 530.33,-139.73"/>
</a>
</g>
</g>
<!-- Node17 -->
<g id="Node000017" class="node">
<title>Node17</title>
<g id="a_Node000017"><a xlink:href="structyaclib_1_1detail_1_1OneCounter.html" target="_top" xlink:title=" ">
<polygon fill="white" stroke="#666666" points="951.25,-203.12 782.25,-203.12 782.25,-161.38 951.25,-161.38 951.25,-203.12"/>
<text text-anchor="start" x="790.25" y="-189.62" font-family="Helvetica,sans-Serif" font-size="10.00">yaclib::detail::OneCounter</text>
<text text-anchor="start" x="790.25" y="-178.38" font-family="Helvetica,sans-Serif" font-size="10.00">&lt; ResultCore&lt; V, E &gt;, PromiseType</text>
<text text-anchor="middle" x="866.75" y="-167.12" font-family="Helvetica,sans-Serif" font-size="10.00">Deleter&lt; Lazy &gt; &gt;</text>
</a>
</g>
</g>
<!-- Node16&#45;&gt;Node17 -->
<g id="edge18_Node000016_Node000017" class="edge">
<title>Node16&#45;&gt;Node17</title>
<g id="a_edge18_Node000016_Node000017"><a xlink:title=" ">
<path fill="none" stroke="#63b8ff" d="M744,-147.12C759.42,-151.57 775.97,-156.34 791.74,-160.89"/>
<polygon fill="#63b8ff" stroke="#63b8ff" points="745.03,-143.77 734.45,-144.36 743.09,-150.5 745.03,-143.77"/>
</a>
</g>
</g>
<!-- Node19 -->
<g id="Node000019" class="node">
<title>Node19</title>
<g id="a_Node000019"><a xlink:href="classyaclib_1_1detail_1_1PromiseCore.html" target="_top" xlink:title=" ">
<polygon fill="white" stroke="#666666" points="931.38,-143.5 802.12,-143.5 802.12,-113 931.38,-113 931.38,-143.5"/>
<text text-anchor="start" x="810.12" y="-130" font-family="Helvetica,sans-Serif" font-size="10.00">yaclib::detail::PromiseCore</text>
<text text-anchor="middle" x="866.75" y="-118.75" font-family="Helvetica,sans-Serif" font-size="10.00">&lt; V, E, Func &gt;</text>
</a>
</g>
</g>
<!-- Node16&#45;&gt;Node19 -->
<g id="edge20_Node000016_Node000019" class="edge">
<title>Node16&#45;&gt;Node19</title>
<g id="a_edge20_Node000016_Node000019"><a xlink:title=" ">
<path fill="none" stroke="#63b8ff" d="M749.7,-128.25C766.87,-128.25 785.1,-128.25 801.91,-128.25"/>
<polygon fill="#63b8ff" stroke="#63b8ff" points="750.12,-124.75 740.12,-128.25 750.12,-131.75 750.12,-124.75"/>
</a>
</g>
</g>
<!-- Node20 -->
<g id="Node000020" class="node">
<title>Node20</title>
<g id="a_Node000020"><a xlink:href="classyaclib_1_1detail_1_1ReadyCore.html" target="_top" xlink:title=" ">
<polygon fill="white" stroke="#666666" points="926.88,-94.5 806.62,-94.5 806.62,-64 926.88,-64 926.88,-94.5"/>
<text text-anchor="start" x="814.62" y="-81" font-family="Helvetica,sans-Serif" font-size="10.00">yaclib::detail::ReadyCore</text>
<text text-anchor="middle" x="866.75" y="-69.75" font-family="Helvetica,sans-Serif" font-size="10.00">&lt; V, E &gt;</text>
</a>
</g>
</g>
<!-- Node16&#45;&gt;Node20 -->
<g id="edge21_Node000016_Node000020" class="edge">
<title>Node16&#45;&gt;Node20</title>
<g id="a_edge21_Node000016_Node000020"><a xlink:title=" ">
<path fill="none" stroke="#63b8ff" d="M749.49,-109.69C768.26,-104.78 788.34,-99.52 806.43,-94.78"/>
<polygon fill="#63b8ff" stroke="#63b8ff" points="748.86,-106.24 740.07,-112.16 750.63,-113.01 748.86,-106.24"/>
</a>
</g>
</g>
<!-- Node18 -->
<g id="Node000018" class="node">
<title>Node18</title>
<g id="a_Node000018"><a xlink:href="classyaclib_1_1detail_1_1PromiseType.html" target="_top" xlink:title=" ">
<polygon fill="white" stroke="#666666" points="1118.25,-197.5 988.25,-197.5 988.25,-167 1118.25,-167 1118.25,-197.5"/>
<text text-anchor="start" x="996.25" y="-184" font-family="Helvetica,sans-Serif" font-size="10.00">yaclib::detail::PromiseType</text>
<text text-anchor="middle" x="1053.25" y="-172.75" font-family="Helvetica,sans-Serif" font-size="10.00">&lt; V, E, Lazy &gt;</text>
</a>
</g>
</g>
<!-- Node17&#45;&gt;Node18 -->
<g id="edge19_Node000017_Node000018" class="edge">
<title>Node17&#45;&gt;Node18</title>
<g id="a_edge19_Node000017_Node000018"><a xlink:title=" ">
<path fill="none" stroke="#63b8ff" d="M963.09,-182.25C971.49,-182.25 979.86,-182.25 987.92,-182.25"/>
<polygon fill="#63b8ff" stroke="#63b8ff" points="963.15,-178.75 953.15,-182.25 963.15,-185.75 963.15,-178.75"/>
</a>
</g>
</g>
<!-- Node24 -->
<g id="Node000024" class="node">
<title>Node24</title>
<g id="a_Node000024"><a xlink:href="classyaclib_1_1detail_1_1SharedCore.html" target="_top" xlink:title=" ">
<polygon fill="white" stroke="#666666" points="739.62,-30.5 615.62,-30.5 615.62,0 739.62,0 739.62,-30.5"/>
<text text-anchor="start" x="623.62" y="-17" font-family="Helvetica,sans-Serif" font-size="10.00">yaclib::detail::SharedCore</text>
<text text-anchor="middle" x="677.62" y="-5.75" font-family="Helvetica,sans-Serif" font-size="10.00">&lt; V, E &gt;</text>
</a>
</g>
</g>
<!-- Node23&#45;&gt;Node24 -->
<g id="edge25_Node000023_Node000024" class="edge">
<title>Node23&#45;&gt;Node24</title>
<g id="a_edge25_Node000023_Node000024"><a xlink:title=" ">
<path fill="none" stroke="#63b8ff" d="M546.17,-15.25C569.17,-15.25 593.66,-15.25 615.13,-15.25"/>
<polygon fill="#63b8ff" stroke="#63b8ff" points="546.18,-11.75 536.18,-15.25 546.18,-18.75 546.18,-11.75"/>
</a>
</g>
</g>
</g>
</svg>

<g id="navigator" transform="translate(0 0)" fill="#404254">
  <rect fill="#f2f5e9" fill-opacity="0.5" stroke="#606060" stroke-width=".5" x="0" y="0" width="60" height="60"/>
  <use id="zoomplus" xlink:href="#zoomPlus" x="17" y="9" onmousedown="handleZoom(evt,'in')"/>
  <use id="zoomminus" xlink:href="#zoomMin" x="42" y="9" onmousedown="handleZoom(evt,'out')"/>
  <use id="reset" xlink:href="#resetDef" x="30" y="36" onmousedown="handleReset()"/>
   <use id="arrowup" xlink:href="#arrowUp" x="0" y="0" onmousedown="handlePan(0,-1)"/>
  <use id="arrowright" xlink:href="#arrowRight" x="0" y="0" onmousedown="handlePan(1,0)"/>
  <use id="arrowdown" xlink:href="#arrowDown" x="0" y="0" onmousedown="handlePan(0,1)"/>
  <use id="arrowleft" xlink:href="#arrowLeft" x="0" y="0" onmousedown="handlePan(-1,0)"/>
</g>
<svg viewBox="0 0 15 15" width="100%" height="30px" preserveAspectRatio="xMaxYMin meet">
 <g id="arrow_out" transform="scale(0.3 0.3)">
  <a xlink:href="structyaclib_1_1detail_1_1Node__inherit__graph_org.svg" target="_base">
   <rect id="button" ry="5" rx="5" y="6" x="6" height="38" width="38"
        fill="#f2f5e9" fill-opacity="0.5" stroke="#606060" stroke-width="1.0"/>
   <path id="arrow"
     d="M 11.500037,31.436501 C 11.940474,20.09759 22.043105,11.32322 32.158766,21.979434 L 37.068811,17.246167 C 37.068811,17.246167 37.088388,32 37.088388,32 L 22.160133,31.978069 C 22.160133,31.978069 26.997745,27.140456 26.997745,27.140456 C 18.528582,18.264221 13.291696,25.230495 11.500037,31.436501 z"
     style="fill:#404040;"/>
  </a>
 </g>
</svg>

<style type='text/css'>
<![CDATA[
[data-mouse-over-selected='false'] { opacity: 0.7; }
[data-mouse-over-selected='true']  { opacity: 1.0; }
]]>
</style>
<script type="application/ecmascript"><![CDATA[
document.addEventListener('DOMContentLoaded', (event) => {
  highlightEdges();
  highlightAdjacentNodes();
});
]]></script>
</svg>
