<?xml version="1.0" encoding="UTF-8" standalone="no"?>
<!DOCTYPE svg PUBLIC "-//W3C//DTD SVG 1.1//EN"
 "http://www.w3.org/Graphics/SVG/1.1/DTD/svg11.dtd">
<!-- Generated by graphviz version 3.0.0 (20221109.1736)
 -->
<!-- Title: yaclib::OneShotEvent::Waiter Pages: 1 -->
<svg width="244pt" height="207pt"
 viewBox="0.00 0.00 243.50 207.00" xmlns="http://www.w3.org/2000/svg" xmlns:xlink="http://www.w3.org/1999/xlink">
<g id="graph0" class="graph" transform="scale(1 1) rotate(0) translate(4 203)">
<title>yaclib::OneShotEvent::Waiter</title>
<!-- Node1 -->
<g id="node1" class="node">
<title>Node1</title>
<g id="a_node1"><a xlink:title="Waiter is public for advanced users.">
<polygon fill="#bfbfbf" stroke="black" points="81,-0.5 81,-30.5 190,-30.5 190,-0.5 81,-0.5"/>
<text text-anchor="start" x="89" y="-18.5" font-family="Helvetica,sans-Serif" font-size="10.00">yaclib::OneShotEvent</text>
<text text-anchor="middle" x="135.5" y="-7.5" font-family="Helvetica,sans-Serif" font-size="10.00">::Waiter</text>
</a>
</g>
</g>
<!-- Node2 -->
<g id="node2" class="node">
<title>Node2</title>
<g id="a_node2"><a xlink:href="classyaclib_1_1Job.html" target="_top" xlink:title="Callable that can be executed in an IExecutor.">
<polygon fill="none" stroke="black" points="55.5,-67.5 55.5,-86.5 117.5,-86.5 117.5,-67.5 55.5,-67.5"/>
<text text-anchor="middle" x="86.5" y="-74.5" font-family="Helvetica,sans-Serif" font-size="10.00">yaclib::Job</text>
</a>
</g>
</g>
<!-- Node2&#45;&gt;Node1 -->
<g id="edge1" class="edge">
<title>Node2&#45;&gt;Node1</title>
<path fill="none" stroke="midnightblue" d="M100.06,-59.53C107.57,-50.42 116.79,-39.21 123.95,-30.52"/>
<polygon fill="midnightblue" stroke="midnightblue" points="97.18,-57.53 93.52,-67.48 102.58,-61.98 97.18,-57.53"/>
</g>
<!-- Node3 -->
<g id="node3" class="node">
<title>Node3</title>
<g id="a_node3"><a xlink:href="classyaclib_1_1IFunc.html" target="_top" xlink:title="Callable interface.">
<polygon fill="none" stroke="black" points="0,-123.5 0,-142.5 71,-142.5 71,-123.5 0,-123.5"/>
<text text-anchor="middle" x="35.5" y="-130.5" font-family="Helvetica,sans-Serif" font-size="10.00">yaclib::IFunc</text>
</a>
</g>
</g>
<!-- Node3&#45;&gt;Node2 -->
<g id="edge2" class="edge">
<title>Node3&#45;&gt;Node2</title>
<path fill="none" stroke="midnightblue" d="M50.88,-115.72C59.87,-106.2 70.86,-94.56 78.24,-86.75"/>
<polygon fill="midnightblue" stroke="midnightblue" points="48.24,-113.41 43.92,-123.08 53.33,-118.22 48.24,-113.41"/>
</g>
<!-- Node4 -->
<g id="node4" class="node">
<title>Node4</title>
<g id="a_node4"><a xlink:href="classyaclib_1_1IRef.html" target="_top" xlink:title="Reference counting interface.">
<polygon fill="none" stroke="black" points="3.5,-179.5 3.5,-198.5 67.5,-198.5 67.5,-179.5 3.5,-179.5"/>
<text text-anchor="middle" x="35.5" y="-186.5" font-family="Helvetica,sans-Serif" font-size="10.00">yaclib::IRef</text>
</a>
</g>
</g>
<!-- Node4&#45;&gt;Node3 -->
<g id="edge3" class="edge">
<title>Node4&#45;&gt;Node3</title>
<path fill="none" stroke="midnightblue" d="M35.5,-168.8C35.5,-159.91 35.5,-149.78 35.5,-142.75"/>
<polygon fill="midnightblue" stroke="midnightblue" points="32,-169.08 35.5,-179.08 39,-169.08 32,-169.08"/>
</g>
<!-- Node5 -->
<g id="node5" class="node">
<title>Node5</title>
<g id="a_node5"><a xlink:href="structyaclib_1_1detail_1_1Node.html" target="_top" xlink:title="Node class, used in intrusive data structure.">
<polygon fill="none" stroke="black" points="89,-123.5 89,-142.5 186,-142.5 186,-123.5 89,-123.5"/>
<text text-anchor="middle" x="137.5" y="-130.5" font-family="Helvetica,sans-Serif" font-size="10.00">yaclib::detail::Node</text>
</a>
</g>
</g>
<!-- Node5&#45;&gt;Node2 -->
<g id="edge4" class="edge">
<title>Node5&#45;&gt;Node2</title>
<path fill="none" stroke="midnightblue" d="M122.12,-115.72C113.13,-106.2 102.14,-94.56 94.76,-86.75"/>
<polygon fill="midnightblue" stroke="midnightblue" points="119.67,-118.22 129.08,-123.08 124.76,-113.41 119.67,-118.22"/>
</g>
<!-- Node6 -->
<g id="node6" class="node">
<title>Node6</title>
<g id="a_node6"><a xlink:href="classyaclib_1_1detail_1_1MutexEvent.html" target="_top" xlink:title=" ">
<polygon fill="none" stroke="black" points="135.5,-67.5 135.5,-86.5 235.5,-86.5 235.5,-67.5 135.5,-67.5"/>
<text text-anchor="middle" x="185.5" y="-74.5" font-family="Helvetica,sans-Serif" font-size="10.00">detail::DefaultEvent</text>
</a>
</g>
</g>
<!-- Node6&#45;&gt;Node1 -->
<g id="edge5" class="edge">
<title>Node6&#45;&gt;Node1</title>
<path fill="none" stroke="midnightblue" d="M171.9,-59.81C164.2,-50.65 154.66,-39.3 147.28,-30.52"/>
<polygon fill="midnightblue" stroke="midnightblue" points="169.22,-62.07 178.34,-67.48 174.58,-57.57 169.22,-62.07"/>
</g>
</g>
</svg>
