<?xml version="1.0" encoding="UTF-8" standalone="no"?>
<!DOCTYPE svg PUBLIC "-//W3C//DTD SVG 1.1//EN"
 "http://www.w3.org/Graphics/SVG/1.1/DTD/svg11.dtd">
<!-- Generated by graphviz version 9.0.0 (20230911.1827)
 -->
<!-- Title: yaclib::when::CombinatorCallback&lt; Combinator, Core, Index &gt; Pages: 1 -->
<svg width="192pt" height="271pt"
 viewBox="0.00 0.00 192.12 270.75" xmlns="http://www.w3.org/2000/svg" xmlns:xlink="http://www.w3.org/1999/xlink">
<g id="graph0" class="graph" transform="scale(1 1) rotate(0) translate(4 266.75)">
<title>yaclib::when::CombinatorCallback&lt; Combinator, Core, Index &gt;</title>
<!-- Node1 -->
<g id="Node000001" class="node">
<title>Node1</title>
<g id="a_Node000001"><a xlink:title=" ">
<polygon fill="#999999" stroke="#666666" points="146.25,-41.75 23.75,-41.75 23.75,0 146.25,0 146.25,-41.75"/>
<text text-anchor="start" x="31.75" y="-28.25" font-family="Helvetica,sans-Serif" font-size="10.00">yaclib::when::Combinator</text>
<text text-anchor="start" x="31.75" y="-17" font-family="Helvetica,sans-Serif" font-size="10.00">Callback&lt; Combinator,</text>
<text text-anchor="middle" x="85" y="-5.75" font-family="Helvetica,sans-Serif" font-size="10.00"> Core, Index &gt;</text>
</a>
</g>
</g>
<!-- Node2 -->
<g id="Node000002" class="node">
<title>Node2</title>
<g id="a_Node000002"><a xlink:href="classyaclib_1_1detail_1_1InlineCore.html" target="_top" xlink:title=" ">
<polygon fill="white" stroke="#666666" points="143.25,-97 26.75,-97 26.75,-77.75 143.25,-77.75 143.25,-97"/>
<text text-anchor="middle" x="85" y="-83.5" font-family="Helvetica,sans-Serif" font-size="10.00">yaclib::detail::InlineCore</text>
</a>
</g>
</g>
<!-- Node2&#45;&gt;Node1 -->
<g id="edge1_Node000001_Node000002" class="edge">
<title>Node2&#45;&gt;Node1</title>
<g id="a_edge1_Node000001_Node000002"><a xlink:title=" ">
<path fill="none" stroke="#63b8ff" d="M85,-65.95C85,-58.36 85,-49.76 85,-42.18"/>
<polygon fill="#63b8ff" stroke="#63b8ff" points="81.5,-65.89 85,-75.89 88.5,-65.89 81.5,-65.89"/>
</a>
</g>
</g>
<!-- Node3 -->
<g id="Node000003" class="node">
<title>Node3</title>
<g id="a_Node000003"><a xlink:href="classyaclib_1_1Job.html" target="_top" xlink:title="Callable that can be executed in an IExecutor.">
<polygon fill="white" stroke="#666666" points="115.5,-152.25 54.5,-152.25 54.5,-133 115.5,-133 115.5,-152.25"/>
<text text-anchor="middle" x="85" y="-138.75" font-family="Helvetica,sans-Serif" font-size="10.00">yaclib::Job</text>
</a>
</g>
</g>
<!-- Node3&#45;&gt;Node2 -->
<g id="edge2_Node000002_Node000003" class="edge">
<title>Node3&#45;&gt;Node2</title>
<g id="a_edge2_Node000002_Node000003"><a xlink:title=" ">
<path fill="none" stroke="#63b8ff" d="M85,-121.38C85,-113.09 85,-103.92 85,-97.36"/>
<polygon fill="#63b8ff" stroke="#63b8ff" points="81.5,-121.32 85,-131.32 88.5,-121.32 81.5,-121.32"/>
</a>
</g>
</g>
<!-- Node4 -->
<g id="Node000004" class="node">
<title>Node4</title>
<g id="a_Node000004"><a xlink:href="classyaclib_1_1IFunc.html" target="_top" xlink:title="Callable interface.">
<polygon fill="white" stroke="#666666" points="70,-207.5 0,-207.5 0,-188.25 70,-188.25 70,-207.5"/>
<text text-anchor="middle" x="35" y="-194" font-family="Helvetica,sans-Serif" font-size="10.00">yaclib::IFunc</text>
</a>
</g>
</g>
<!-- Node4&#45;&gt;Node3 -->
<g id="edge3_Node000003_Node000004" class="edge">
<title>Node4&#45;&gt;Node3</title>
<g id="a_edge3_Node000003_Node000004"><a xlink:title=" ">
<path fill="none" stroke="#63b8ff" d="M51.04,-179.79C59.53,-170.75 69.6,-160.02 76.56,-152.61"/>
<polygon fill="#63b8ff" stroke="#63b8ff" points="48.59,-177.29 44.29,-186.98 53.69,-182.08 48.59,-177.29"/>
</a>
</g>
</g>
<!-- Node5 -->
<g id="Node000005" class="node">
<title>Node5</title>
<g id="a_Node000005"><a xlink:href="classyaclib_1_1IRef.html" target="_top" xlink:title="Reference counting interface.">
<polygon fill="white" stroke="#666666" points="66.62,-262.75 3.38,-262.75 3.38,-243.5 66.62,-243.5 66.62,-262.75"/>
<text text-anchor="middle" x="35" y="-249.25" font-family="Helvetica,sans-Serif" font-size="10.00">yaclib::IRef</text>
</a>
</g>
</g>
<!-- Node5&#45;&gt;Node4 -->
<g id="edge4_Node000004_Node000005" class="edge">
<title>Node5&#45;&gt;Node4</title>
<g id="a_edge4_Node000004_Node000005"><a xlink:title=" ">
<path fill="none" stroke="#63b8ff" d="M35,-231.88C35,-223.59 35,-214.42 35,-207.86"/>
<polygon fill="#63b8ff" stroke="#63b8ff" points="31.5,-231.82 35,-241.82 38.5,-231.82 31.5,-231.82"/>
</a>
</g>
</g>
<!-- Node6 -->
<g id="Node000006" class="node">
<title>Node6</title>
<g id="a_Node000006"><a xlink:href="structyaclib_1_1detail_1_1Node.html" target="_top" xlink:title="Node class, used in intrusive data structure.">
<polygon fill="white" stroke="#666666" points="184.12,-207.5 87.88,-207.5 87.88,-188.25 184.12,-188.25 184.12,-207.5"/>
<text text-anchor="middle" x="136" y="-194" font-family="Helvetica,sans-Serif" font-size="10.00">yaclib::detail::Node</text>
</a>
</g>
</g>
<!-- Node6&#45;&gt;Node3 -->
<g id="edge5_Node000003_Node000006" class="edge">
<title>Node6&#45;&gt;Node3</title>
<g id="a_edge5_Node000003_Node000006"><a xlink:title=" ">
<path fill="none" stroke="#63b8ff" d="M119.64,-179.79C110.98,-170.75 100.7,-160.02 93.6,-152.61"/>
<polygon fill="#63b8ff" stroke="#63b8ff" points="117.09,-182.19 126.53,-186.99 122.14,-177.35 117.09,-182.19"/>
</a>
</g>
</g>
</g>
</svg>
