<?xml version="1.0" encoding="UTF-8" standalone="no"?>
<!DOCTYPE svg PUBLIC "-//W3C//DTD SVG 1.1//EN"
 "http://www.w3.org/Graphics/SVG/1.1/DTD/svg11.dtd">
<!-- Generated by graphviz version 9.0.0 (20230911.1827)
 -->
<!-- Title: yaclib::when::StaticCombinator&lt; Strategy, Cores &gt; Pages: 1 -->
<svg width="463pt" height="157pt"
 viewBox="0.00 0.00 463.00 157.38" xmlns="http://www.w3.org/2000/svg" xmlns:xlink="http://www.w3.org/1999/xlink">
<g id="graph0" class="graph" transform="scale(1 1) rotate(0) translate(4 153.38)">
<title>yaclib::when::StaticCombinator&lt; Strategy, Cores &gt;</title>
<!-- Node1 -->
<g id="Node000001" class="node">
<title>Node1</title>
<g id="a_Node000001"><a xlink:title=" ">
<polygon fill="#999999" stroke="#666666" points="455,-118 307,-118 307,-87.5 455,-87.5 455,-118"/>
<text text-anchor="start" x="315" y="-104.5" font-family="Helvetica,sans-Serif" font-size="10.00">yaclib::when::StaticCombinator</text>
<text text-anchor="middle" x="381" y="-93.25" font-family="Helvetica,sans-Serif" font-size="10.00">&lt; Strategy, Cores &gt;</text>
</a>
</g>
</g>
<!-- Node2 -->
<g id="Node000002" class="node">
<title>Node2</title>
<g id="a_Node000002"><a xlink:href="classyaclib_1_1IRef.html" target="_top" xlink:title="Reference counting interface.">
<polygon fill="white" stroke="#666666" points="145.38,-149.38 82.12,-149.38 82.12,-130.12 145.38,-130.12 145.38,-149.38"/>
<text text-anchor="middle" x="113.75" y="-135.88" font-family="Helvetica,sans-Serif" font-size="10.00">yaclib::IRef</text>
</a>
</g>
</g>
<!-- Node2&#45;&gt;Node1 -->
<g id="edge1_Node000001_Node000002" class="edge">
<title>Node2&#45;&gt;Node1</title>
<g id="a_edge1_Node000001_Node000002"><a xlink:title=" ">
<path fill="none" stroke="#63b8ff" d="M156.96,-134.87C192.29,-130.68 244,-124.3 289,-117.75 294.7,-116.92 300.6,-116.03 306.53,-115.1"/>
<polygon fill="#63b8ff" stroke="#63b8ff" points="156.67,-131.38 147.15,-136.03 157.49,-138.34 156.67,-131.38"/>
</a>
</g>
</g>
<!-- Node3 -->
<g id="Node000003" class="node">
<title>Node3</title>
<g id="a_Node000003"><a xlink:title=" ">
<polygon fill="white" stroke="#666666" points="139.75,-112.38 87.75,-112.38 87.75,-93.12 139.75,-93.12 139.75,-112.38"/>
<text text-anchor="middle" x="113.75" y="-98.88" font-family="Helvetica,sans-Serif" font-size="10.00">Strategy</text>
</a>
</g>
</g>
<!-- Node3&#45;&gt;Node1 -->
<g id="edge2_Node000001_Node000003" class="edge">
<title>Node3&#45;&gt;Node1</title>
<g id="a_edge2_Node000001_Node000003"><a xlink:title=" ">
<path fill="none" stroke="#9a32cd" stroke-dasharray="5,2" d="M151.49,-102.75C191.44,-102.75 256.32,-102.75 306.76,-102.75"/>
<polygon fill="#9a32cd" stroke="#9a32cd" points="151.7,-99.25 141.7,-102.75 151.7,-106.25 151.7,-99.25"/>
</a>
</g>
<text text-anchor="middle" x="267.25" y="-104.5" font-family="Helvetica,sans-Serif" font-size="10.00" fill="grey"> st</text>
</g>
<!-- Node4 -->
<g id="Node000004" class="node">
<title>Node4</title>
<g id="a_Node000004"><a xlink:title=" ">
<polygon fill="white" stroke="#666666" points="227.5,-75.5 0,-75.5 0,0 227.5,0 227.5,-75.5"/>
<text text-anchor="start" x="8" y="-62" font-family="Helvetica,sans-Serif" font-size="10.00">conditional_t&lt; kIsOrdered</text>
<text text-anchor="start" x="8" y="-50.75" font-family="Helvetica,sans-Serif" font-size="10.00">&lt; Strategy::kConsumePolicy</text>
<text text-anchor="start" x="8" y="-39.5" font-family="Helvetica,sans-Serif" font-size="10.00"> &gt;, typename OrderedCallbacks</text>
<text text-anchor="start" x="8" y="-28.25" font-family="Helvetica,sans-Serif" font-size="10.00">&lt; decltype(std::make_index_sequence</text>
<text text-anchor="start" x="8" y="-17" font-family="Helvetica,sans-Serif" font-size="10.00">&lt; sizeof...(Cores)&gt;{})&gt;::Type, UnorderedCallbacks</text>
<text text-anchor="middle" x="113.75" y="-5.75" font-family="Helvetica,sans-Serif" font-size="10.00">&lt; UniqueUniqueCores, SharedCores &gt; &gt;</text>
</a>
</g>
</g>
<!-- Node4&#45;&gt;Node1 -->
<g id="edge3_Node000001_Node000004" class="edge">
<title>Node4&#45;&gt;Node1</title>
<g id="a_edge3_Node000001_Node000004"><a xlink:title=" ">
<path fill="none" stroke="#9a32cd" stroke-dasharray="5,2" d="M238.64,-68.11C265.37,-74.66 292.58,-81.33 315.9,-87.04"/>
<polygon fill="#9a32cd" stroke="#9a32cd" points="239.64,-64.75 229.09,-65.77 237.97,-71.55 239.64,-64.75"/>
</a>
</g>
<text text-anchor="middle" x="267.25" y="-81.5" font-family="Helvetica,sans-Serif" font-size="10.00" fill="grey"> callbacks</text>
</g>
</g>
</svg>
