<?xml version="1.0" encoding="UTF-8" standalone="no"?>
<!DOCTYPE svg PUBLIC "-//W3C//DTD SVG 1.1//EN"
 "http://www.w3.org/Graphics/SVG/1.1/DTD/svg11.dtd">
<!-- Generated by graphviz version 9.0.0 (20230911.1827)
 -->
<!-- Title: yaclib::detail::EventHelperCallback&lt; Event &gt; Pages: 1 -->
<svg width="230pt" height="274pt"
 viewBox="0.00 0.00 230.38 273.75" xmlns="http://www.w3.org/2000/svg" xmlns:xlink="http://www.w3.org/1999/xlink">

<svg id="main" version="1.1" xmlns="http://www.w3.org/2000/svg" xmlns:xlink="http://www.w3.org/1999/xlink" xml:space="preserve" onload="init(evt)">
<style type="text/css"><![CDATA[
.node, .edge {opacity: 0.7;}
.node.selected, .edge.selected {opacity: 1;}
.edge:hover path { stroke: red; }
.edge:hover polygon { stroke: red; fill: red; }
]]></style>
<script type="application/ecmascript" xlink:href="svg.min.js"/>
<svg id="graph" class="graph">
<g id="graph0" class="graph" transform="scale(1 1) rotate(0) translate(4 269.75)">
<title>yaclib::detail::EventHelperCallback&lt; Event &gt;</title>
<!-- Node1 -->
<g id="Node000001" class="node">
<title>Node1</title>
<g id="a_Node000001"><a xlink:title=" ">
<polygon fill="#999999" stroke="#666666" points="198.12,-30.5 71.88,-30.5 71.88,0 198.12,0 198.12,-30.5"/>
<text text-anchor="start" x="79.88" y="-17" font-family="Helvetica,sans-Serif" font-size="10.00">yaclib::detail::EventHelper</text>
<text text-anchor="middle" x="135" y="-5.75" font-family="Helvetica,sans-Serif" font-size="10.00">Callback&lt; Event &gt;</text>
</a>
</g>
</g>
<!-- Node2 -->
<g id="Node000002" class="node">
<title>Node2</title>
<g id="a_Node000002"><a xlink:href="classyaclib_1_1detail_1_1InlineCore.html" target="_top" xlink:title=" ">
<polygon fill="white" stroke="#666666" points="143.25,-97 26.75,-97 26.75,-77.75 143.25,-77.75 143.25,-97"/>
<text text-anchor="middle" x="85" y="-83.5" font-family="Helvetica,sans-Serif" font-size="10.00">yaclib::detail::InlineCore</text>
</a>
</g>
</g>
<!-- Node2&#45;&gt;Node1 -->
<g id="edge1_Node000001_Node000002" class="edge">
<title>Node2&#45;&gt;Node1</title>
<g id="a_edge1_Node000001_Node000002"><a xlink:title=" ">
<path fill="none" stroke="#63b8ff" d="M97.88,-68.32C106.16,-56.7 116.78,-41.8 124.54,-30.92"/>
<polygon fill="#63b8ff" stroke="#63b8ff" points="95.17,-66.09 92.21,-76.26 100.87,-70.15 95.17,-66.09"/>
</a>
</g>
</g>
<!-- Node3 -->
<g id="Node000003" class="node">
<title>Node3</title>
<g id="a_Node000003"><a xlink:href="classyaclib_1_1Job.html" target="_top" xlink:title="Callable that can be executed in an IExecutor.">
<polygon fill="white" stroke="#666666" points="115.5,-153.25 54.5,-153.25 54.5,-134 115.5,-134 115.5,-153.25"/>
<text text-anchor="middle" x="85" y="-139.75" font-family="Helvetica,sans-Serif" font-size="10.00">yaclib::Job</text>
</a>
</g>
</g>
<!-- Node3&#45;&gt;Node2 -->
<g id="edge2_Node000002_Node000003" class="edge">
<title>Node3&#45;&gt;Node2</title>
<g id="a_edge2_Node000002_Node000003"><a xlink:title=" ">
<path fill="none" stroke="#63b8ff" d="M85,-122.44C85,-113.73 85,-103.99 85,-97.17"/>
<polygon fill="#63b8ff" stroke="#63b8ff" points="81.5,-122.15 85,-132.15 88.5,-122.15 81.5,-122.15"/>
</a>
</g>
</g>
<!-- Node4 -->
<g id="Node000004" class="node">
<title>Node4</title>
<g id="a_Node000004"><a xlink:href="classyaclib_1_1IFunc.html" target="_top" xlink:title="Callable interface.">
<polygon fill="white" stroke="#666666" points="70,-209.5 0,-209.5 0,-190.25 70,-190.25 70,-209.5"/>
<text text-anchor="middle" x="35" y="-196" font-family="Helvetica,sans-Serif" font-size="10.00">yaclib::IFunc</text>
</a>
</g>
</g>
<!-- Node4&#45;&gt;Node3 -->
<g id="edge3_Node000003_Node000004" class="edge">
<title>Node4&#45;&gt;Node3</title>
<g id="a_edge3_Node000003_Node000004"><a xlink:title=" ">
<path fill="none" stroke="#63b8ff" d="M50.87,-181.65C59.53,-172.26 69.88,-161.03 76.9,-153.42"/>
<polygon fill="#63b8ff" stroke="#63b8ff" points="48.49,-179.08 44.28,-188.8 53.63,-183.82 48.49,-179.08"/>
</a>
</g>
</g>
<!-- Node5 -->
<g id="Node000005" class="node">
<title>Node5</title>
<g id="a_Node000005"><a xlink:href="classyaclib_1_1IRef.html" target="_top" xlink:title="Reference counting interface.">
<polygon fill="white" stroke="#666666" points="66.62,-265.75 3.38,-265.75 3.38,-246.5 66.62,-246.5 66.62,-265.75"/>
<text text-anchor="middle" x="35" y="-252.25" font-family="Helvetica,sans-Serif" font-size="10.00">yaclib::IRef</text>
</a>
</g>
</g>
<!-- Node5&#45;&gt;Node4 -->
<g id="edge4_Node000004_Node000005" class="edge">
<title>Node5&#45;&gt;Node4</title>
<g id="a_edge4_Node000004_Node000005"><a xlink:title=" ">
<path fill="none" stroke="#63b8ff" d="M35,-234.94C35,-226.23 35,-216.49 35,-209.67"/>
<polygon fill="#63b8ff" stroke="#63b8ff" points="31.5,-234.65 35,-244.65 38.5,-234.65 31.5,-234.65"/>
</a>
</g>
</g>
<!-- Node6 -->
<g id="Node000006" class="node">
<title>Node6</title>
<g id="a_Node000006"><a xlink:href="structyaclib_1_1detail_1_1Node.html" target="_top" xlink:title="Node class, used in intrusive data structure.">
<polygon fill="white" stroke="#666666" points="184.12,-209.5 87.88,-209.5 87.88,-190.25 184.12,-190.25 184.12,-209.5"/>
<text text-anchor="middle" x="136" y="-196" font-family="Helvetica,sans-Serif" font-size="10.00">yaclib::detail::Node</text>
</a>
</g>
</g>
<!-- Node6&#45;&gt;Node3 -->
<g id="edge5_Node000003_Node000006" class="edge">
<title>Node6&#45;&gt;Node3</title>
<g id="a_edge5_Node000003_Node000006"><a xlink:title=" ">
<path fill="none" stroke="#63b8ff" d="M119.81,-181.65C110.98,-172.26 100.42,-161.03 93.26,-153.42"/>
<polygon fill="#63b8ff" stroke="#63b8ff" points="117.14,-183.93 126.54,-188.81 122.24,-179.13 117.14,-183.93"/>
</a>
</g>
</g>
<!-- Node6&#45;&gt;Node6 -->
<g id="edge6_Node000006_Node000006" class="edge">
<title>Node6&#45;&gt;Node6</title>
<g id="a_edge6_Node000006_Node000006"><a xlink:title=" ">
<path fill="none" stroke="#9a32cd" stroke-dasharray="5,2" d="M195.57,-203.69C199.65,-202.81 202.12,-201.54 202.12,-199.88 202.12,-196.99 194.71,-195.29 184.44,-194.77"/>
<polygon fill="#9a32cd" stroke="#9a32cd" points="195.47,-200.18 185.94,-204.8 196.28,-207.13 195.47,-200.18"/>
</a>
</g>
<text text-anchor="middle" x="212.25" y="-196" font-family="Helvetica,sans-Serif" font-size="10.00" fill="grey"> next</text>
</g>
<!-- Node7 -->
<g id="Node000007" class="node">
<title>Node7</title>
<g id="a_Node000007"><a xlink:title=" ">
<polygon fill="white" stroke="#666666" points="208.38,-97 161.62,-97 161.62,-77.75 208.38,-77.75 208.38,-97"/>
<text text-anchor="middle" x="185" y="-83.5" font-family="Helvetica,sans-Serif" font-size="10.00">Event *</text>
</a>
</g>
</g>
<!-- Node7&#45;&gt;Node1 -->
<g id="edge7_Node000001_Node000007" class="edge">
<title>Node7&#45;&gt;Node1</title>
<g id="a_edge7_Node000001_Node000007"><a xlink:title=" ">
<path fill="none" stroke="#9a32cd" stroke-dasharray="5,2" d="M172.12,-68.32C163.84,-56.7 153.22,-41.8 145.46,-30.92"/>
<polygon fill="#9a32cd" stroke="#9a32cd" points="169.13,-70.15 177.79,-76.26 174.83,-66.09 169.13,-70.15"/>
</a>
</g>
<text text-anchor="middle" x="178.12" y="-50.25" font-family="Helvetica,sans-Serif" font-size="10.00" fill="grey"> event</text>
</g>
</g>
</svg>
</svg>

<style type='text/css'>
<![CDATA[
[data-mouse-over-selected='false'] { opacity: 0.7; }
[data-mouse-over-selected='true']  { opacity: 1.0; }
]]>
</style>
<script type="application/ecmascript"><![CDATA[
document.addEventListener('DOMContentLoaded', (event) => {
  highlightEdges();
  highlightAdjacentNodes();
});
]]></script>
</svg>
