<?xml version="1.0" encoding="UTF-8" standalone="no"?>
<!DOCTYPE svg PUBLIC "-//W3C//DTD SVG 1.1//EN"
 "http://www.w3.org/Graphics/SVG/1.1/DTD/svg11.dtd">
<!-- Generated by graphviz version 9.0.0 (20230911.1827)
 -->
<!-- Title: yaclib::detail::AwaitAwaiter&lt; Handle, true &gt; Pages: 1 -->
<svg width="315pt" height="271pt"
 viewBox="0.00 0.00 314.50 270.75" xmlns="http://www.w3.org/2000/svg" xmlns:xlink="http://www.w3.org/1999/xlink">
<g id="graph0" class="graph" transform="scale(1 1) rotate(0) translate(4 266.75)">
<title>yaclib::detail::AwaitAwaiter&lt; Handle, true &gt;</title>
<!-- Node1 -->
<g id="Node000001" class="node">
<title>Node1</title>
<g id="a_Node000001"><a xlink:title=" ">
<polygon fill="#999999" stroke="#666666" points="201.75,-30.5 71,-30.5 71,0 201.75,0 201.75,-30.5"/>
<text text-anchor="start" x="79" y="-17" font-family="Helvetica,sans-Serif" font-size="10.00">yaclib::detail::AwaitAwaiter</text>
<text text-anchor="middle" x="136.38" y="-5.75" font-family="Helvetica,sans-Serif" font-size="10.00">&lt; Handle, true &gt;</text>
</a>
</g>
</g>
<!-- Node2 -->
<g id="Node000002" class="node">
<title>Node2</title>
<g id="a_Node000002"><a xlink:href="structyaclib_1_1detail_1_1AwaitAwaiterBase.html" target="_top" xlink:title=" ">
<polygon fill="white" stroke="#666666" points="130.75,-97 0,-97 0,-66.5 130.75,-66.5 130.75,-97"/>
<text text-anchor="start" x="8" y="-83.5" font-family="Helvetica,sans-Serif" font-size="10.00">yaclib::detail::AwaitAwaiter</text>
<text text-anchor="middle" x="65.38" y="-72.25" font-family="Helvetica,sans-Serif" font-size="10.00">Base&lt; Handle &gt;</text>
</a>
</g>
</g>
<!-- Node2&#45;&gt;Node1 -->
<g id="edge1_Node000001_Node000002" class="edge">
<title>Node2&#45;&gt;Node1</title>
<g id="a_edge1_Node000001_Node000002"><a xlink:title=" ">
<path fill="none" stroke="#63b8ff" d="M89.91,-58.46C99.98,-49.32 111.35,-38.98 120.33,-30.83"/>
<polygon fill="#63b8ff" stroke="#63b8ff" points="87.65,-55.78 82.61,-65.1 92.36,-60.96 87.65,-55.78"/>
</a>
</g>
</g>
<!-- Node3 -->
<g id="Node000003" class="node">
<title>Node3</title>
<g id="a_Node000003"><a xlink:href="classyaclib_1_1detail_1_1InlineCore.html" target="_top" xlink:title=" ">
<polygon fill="white" stroke="#666666" points="265.62,-91.38 149.12,-91.38 149.12,-72.12 265.62,-72.12 265.62,-91.38"/>
<text text-anchor="middle" x="207.38" y="-77.88" font-family="Helvetica,sans-Serif" font-size="10.00">yaclib::detail::InlineCore</text>
</a>
</g>
</g>
<!-- Node3&#45;&gt;Node1 -->
<g id="edge2_Node000001_Node000003" class="edge">
<title>Node3&#45;&gt;Node1</title>
<g id="a_edge2_Node000001_Node000003"><a xlink:title=" ">
<path fill="none" stroke="#63b8ff" d="M189.2,-64.24C177.85,-53.92 163.36,-40.77 152.44,-30.84"/>
<polygon fill="#63b8ff" stroke="#63b8ff" points="186.63,-66.63 196.38,-70.76 191.33,-61.45 186.63,-66.63"/>
</a>
</g>
</g>
<!-- Node4 -->
<g id="Node000004" class="node">
<title>Node4</title>
<g id="a_Node000004"><a xlink:href="classyaclib_1_1Job.html" target="_top" xlink:title="Callable that can be executed in an IExecutor.">
<polygon fill="white" stroke="#666666" points="237.88,-152.25 176.88,-152.25 176.88,-133 237.88,-133 237.88,-152.25"/>
<text text-anchor="middle" x="207.38" y="-138.75" font-family="Helvetica,sans-Serif" font-size="10.00">yaclib::Job</text>
</a>
</g>
</g>
<!-- Node4&#45;&gt;Node3 -->
<g id="edge3_Node000003_Node000004" class="edge">
<title>Node4&#45;&gt;Node3</title>
<g id="a_edge3_Node000003_Node000004"><a xlink:title=" ">
<path fill="none" stroke="#63b8ff" d="M207.38,-121.2C207.38,-111.17 207.38,-99.58 207.38,-91.78"/>
<polygon fill="#63b8ff" stroke="#63b8ff" points="203.88,-121.17 207.38,-131.17 210.88,-121.17 203.88,-121.17"/>
</a>
</g>
</g>
<!-- Node5 -->
<g id="Node000005" class="node">
<title>Node5</title>
<g id="a_Node000005"><a xlink:href="classyaclib_1_1IFunc.html" target="_top" xlink:title="Callable interface.">
<polygon fill="white" stroke="#666666" points="192.38,-207.5 122.38,-207.5 122.38,-188.25 192.38,-188.25 192.38,-207.5"/>
<text text-anchor="middle" x="157.38" y="-194" font-family="Helvetica,sans-Serif" font-size="10.00">yaclib::IFunc</text>
</a>
</g>
</g>
<!-- Node5&#45;&gt;Node4 -->
<g id="edge4_Node000004_Node000005" class="edge">
<title>Node5&#45;&gt;Node4</title>
<g id="a_edge4_Node000004_Node000005"><a xlink:title=" ">
<path fill="none" stroke="#63b8ff" d="M173.42,-179.79C181.9,-170.75 191.98,-160.02 198.94,-152.61"/>
<polygon fill="#63b8ff" stroke="#63b8ff" points="170.96,-177.29 166.67,-186.98 176.06,-182.08 170.96,-177.29"/>
</a>
</g>
</g>
<!-- Node6 -->
<g id="Node000006" class="node">
<title>Node6</title>
<g id="a_Node000006"><a xlink:href="classyaclib_1_1IRef.html" target="_top" xlink:title="Reference counting interface.">
<polygon fill="white" stroke="#666666" points="189,-262.75 125.75,-262.75 125.75,-243.5 189,-243.5 189,-262.75"/>
<text text-anchor="middle" x="157.38" y="-249.25" font-family="Helvetica,sans-Serif" font-size="10.00">yaclib::IRef</text>
</a>
</g>
</g>
<!-- Node6&#45;&gt;Node5 -->
<g id="edge5_Node000005_Node000006" class="edge">
<title>Node6&#45;&gt;Node5</title>
<g id="a_edge5_Node000005_Node000006"><a xlink:title=" ">
<path fill="none" stroke="#63b8ff" d="M157.38,-231.88C157.38,-223.59 157.38,-214.42 157.38,-207.86"/>
<polygon fill="#63b8ff" stroke="#63b8ff" points="153.88,-231.82 157.38,-241.82 160.88,-231.82 153.88,-231.82"/>
</a>
</g>
</g>
<!-- Node7 -->
<g id="Node000007" class="node">
<title>Node7</title>
<g id="a_Node000007"><a xlink:href="structyaclib_1_1detail_1_1Node.html" target="_top" xlink:title="Node class, used in intrusive data structure.">
<polygon fill="white" stroke="#666666" points="306.5,-207.5 210.25,-207.5 210.25,-188.25 306.5,-188.25 306.5,-207.5"/>
<text text-anchor="middle" x="258.38" y="-194" font-family="Helvetica,sans-Serif" font-size="10.00">yaclib::detail::Node</text>
</a>
</g>
</g>
<!-- Node7&#45;&gt;Node4 -->
<g id="edge6_Node000004_Node000007" class="edge">
<title>Node7&#45;&gt;Node4</title>
<g id="a_edge6_Node000004_Node000007"><a xlink:title=" ">
<path fill="none" stroke="#63b8ff" d="M242.01,-179.79C233.36,-170.75 223.08,-160.02 215.98,-152.61"/>
<polygon fill="#63b8ff" stroke="#63b8ff" points="239.46,-182.19 248.91,-186.99 244.52,-177.35 239.46,-182.19"/>
</a>
</g>
</g>
</g>
</svg>
