<?xml version="1.0" encoding="UTF-8" standalone="no"?>
<!DOCTYPE svg PUBLIC "-//W3C//DTD SVG 1.1//EN"
 "http://www.w3.org/Graphics/SVG/1.1/DTD/svg11.dtd">
<!-- Generated by graphviz version 9.0.0 (20230911.1827)
 -->
<!-- Title: yaclib::detail::AwaitAwaiterBase&lt; Handle &gt; Pages: 1 -->
<svg width="973pt" height="141pt"
 viewBox="0.00 0.00 973.00 141.25" xmlns="http://www.w3.org/2000/svg" xmlns:xlink="http://www.w3.org/1999/xlink">
<g id="graph0" class="graph" transform="scale(1 1) rotate(0) translate(4 137.25)">
<title>yaclib::detail::AwaitAwaiterBase&lt; Handle &gt;</title>
<!-- Node1 -->
<g id="Node000001" class="node">
<title>Node1</title>
<g id="a_Node000001"><a xlink:title=" ">
<polygon fill="#999999" stroke="#666666" points="965,-67.88 834.25,-67.88 834.25,-37.38 965,-37.38 965,-67.88"/>
<text text-anchor="start" x="842.25" y="-54.38" font-family="Helvetica,sans-Serif" font-size="10.00">yaclib::detail::AwaitAwaiter</text>
<text text-anchor="middle" x="899.62" y="-43.12" font-family="Helvetica,sans-Serif" font-size="10.00">Base&lt; Handle &gt;</text>
</a>
</g>
</g>
<!-- Node2 -->
<g id="Node000002" class="node">
<title>Node2</title>
<g id="a_Node000002"><a xlink:href="classyaclib_1_1detail_1_1BaseCore.html" target="_top" xlink:title=" ">
<polygon fill="white" stroke="#666666" points="772,-62.25 656.25,-62.25 656.25,-43 772,-43 772,-62.25"/>
<text text-anchor="middle" x="714.12" y="-48.75" font-family="Helvetica,sans-Serif" font-size="10.00">yaclib::detail::BaseCore</text>
</a>
</g>
</g>
<!-- Node2&#45;&gt;Node1 -->
<g id="edge1_Node000001_Node000002" class="edge">
<title>Node2&#45;&gt;Node1</title>
<g id="a_edge1_Node000001_Node000002"><a xlink:title=" ">
<path fill="none" stroke="#9a32cd" stroke-dasharray="5,2" d="M783.6,-52.62C800.02,-52.62 817.51,-52.62 833.76,-52.62"/>
<polygon fill="#9a32cd" stroke="#9a32cd" points="783.94,-49.13 773.94,-52.63 783.94,-56.13 783.94,-49.13"/>
</a>
</g>
<text text-anchor="middle" x="803.12" y="-54.38" font-family="Helvetica,sans-Serif" font-size="10.00" fill="grey"> _core</text>
</g>
<!-- Node3 -->
<g id="Node000003" class="node">
<title>Node3</title>
<g id="a_Node000003"><a xlink:href="classyaclib_1_1detail_1_1InlineCore.html" target="_top" xlink:title=" ">
<polygon fill="white" stroke="#666666" points="576,-105.25 459.5,-105.25 459.5,-86 576,-86 576,-105.25"/>
<text text-anchor="middle" x="517.75" y="-91.75" font-family="Helvetica,sans-Serif" font-size="10.00">yaclib::detail::InlineCore</text>
</a>
</g>
</g>
<!-- Node3&#45;&gt;Node2 -->
<g id="edge2_Node000002_Node000003" class="edge">
<title>Node3&#45;&gt;Node2</title>
<g id="a_edge2_Node000002_Node000003"><a xlink:title=" ">
<path fill="none" stroke="#63b8ff" d="M575.24,-83.13C604.57,-76.64 639.93,-68.82 667.5,-62.72"/>
<polygon fill="#63b8ff" stroke="#63b8ff" points="574.81,-79.64 565.8,-85.22 576.32,-86.47 574.81,-79.64"/>
</a>
</g>
</g>
<!-- Node4 -->
<g id="Node000004" class="node">
<title>Node4</title>
<g id="a_Node000004"><a xlink:href="classyaclib_1_1Job.html" target="_top" xlink:title="Callable that can be executed in an IExecutor.">
<polygon fill="white" stroke="#666666" points="323,-105.25 262,-105.25 262,-86 323,-86 323,-105.25"/>
<text text-anchor="middle" x="292.5" y="-91.75" font-family="Helvetica,sans-Serif" font-size="10.00">yaclib::Job</text>
</a>
</g>
</g>
<!-- Node4&#45;&gt;Node3 -->
<g id="edge3_Node000003_Node000004" class="edge">
<title>Node4&#45;&gt;Node3</title>
<g id="a_edge3_Node000003_Node000004"><a xlink:title=" ">
<path fill="none" stroke="#63b8ff" d="M334.38,-95.62C369.43,-95.62 420.3,-95.62 459.42,-95.62"/>
<polygon fill="#63b8ff" stroke="#63b8ff" points="334.66,-92.13 324.66,-95.63 334.66,-99.13 334.66,-92.13"/>
</a>
</g>
</g>
<!-- Node5 -->
<g id="Node000005" class="node">
<title>Node5</title>
<g id="a_Node000005"><a xlink:href="classyaclib_1_1IFunc.html" target="_top" xlink:title="Callable interface.">
<polygon fill="white" stroke="#666666" points="183.38,-133.25 113.38,-133.25 113.38,-114 183.38,-114 183.38,-133.25"/>
<text text-anchor="middle" x="148.38" y="-119.75" font-family="Helvetica,sans-Serif" font-size="10.00">yaclib::IFunc</text>
</a>
</g>
</g>
<!-- Node5&#45;&gt;Node4 -->
<g id="edge4_Node000004_Node000005" class="edge">
<title>Node5&#45;&gt;Node4</title>
<g id="a_edge4_Node000004_Node000005"><a xlink:title=" ">
<path fill="none" stroke="#63b8ff" d="M194.84,-114.67C216.73,-110.35 242.37,-105.3 261.74,-101.49"/>
<polygon fill="#63b8ff" stroke="#63b8ff" points="194.4,-111.19 185.26,-116.55 195.75,-118.06 194.4,-111.19"/>
</a>
</g>
</g>
<!-- Node6 -->
<g id="Node000006" class="node">
<title>Node6</title>
<g id="a_Node000006"><a xlink:href="classyaclib_1_1IRef.html" target="_top" xlink:title="Reference counting interface.">
<polygon fill="white" stroke="#666666" points="63.25,-133.25 0,-133.25 0,-114 63.25,-114 63.25,-133.25"/>
<text text-anchor="middle" x="31.62" y="-119.75" font-family="Helvetica,sans-Serif" font-size="10.00">yaclib::IRef</text>
</a>
</g>
</g>
<!-- Node6&#45;&gt;Node5 -->
<g id="edge5_Node000005_Node000006" class="edge">
<title>Node6&#45;&gt;Node5</title>
<g id="a_edge5_Node000005_Node000006"><a xlink:title=" ">
<path fill="none" stroke="#63b8ff" d="M74.86,-123.62C87.44,-123.62 101.06,-123.62 113.07,-123.62"/>
<polygon fill="#63b8ff" stroke="#63b8ff" points="75.19,-120.13 65.19,-123.63 75.19,-127.13 75.19,-120.13"/>
</a>
</g>
</g>
<!-- Node7 -->
<g id="Node000007" class="node">
<title>Node7</title>
<g id="a_Node000007"><a xlink:href="structyaclib_1_1detail_1_1Node.html" target="_top" xlink:title="Node class, used in intrusive data structure.">
<polygon fill="white" stroke="#666666" points="196.5,-66.25 100.25,-66.25 100.25,-47 196.5,-47 196.5,-66.25"/>
<text text-anchor="middle" x="148.38" y="-52.75" font-family="Helvetica,sans-Serif" font-size="10.00">yaclib::detail::Node</text>
</a>
</g>
</g>
<!-- Node7&#45;&gt;Node4 -->
<g id="edge6_Node000004_Node000007" class="edge">
<title>Node7&#45;&gt;Node4</title>
<g id="a_edge6_Node000004_Node000007"><a xlink:title=" ">
<path fill="none" stroke="#63b8ff" d="M196.84,-69.65C218.28,-75.53 242.94,-82.3 261.72,-87.45"/>
<polygon fill="#63b8ff" stroke="#63b8ff" points="198.01,-66.34 187.44,-67.07 196.15,-73.09 198.01,-66.34"/>
</a>
</g>
</g>
<!-- Node7&#45;&gt;Node7 -->
<g id="edge7_Node000007_Node000007" class="edge">
<title>Node7&#45;&gt;Node7</title>
<g id="a_edge7_Node000007_Node000007"><a xlink:title=" ">
<path fill="none" stroke="#9a32cd" stroke-dasharray="5,2" d="M136.68,-77.98C138.26,-81.68 142.15,-84.25 148.38,-84.25 160.09,-84.25 163.56,-75.15 158.81,-66.54"/>
<polygon fill="#9a32cd" stroke="#9a32cd" points="140.16,-78.37 137.78,-68.04 133.2,-77.6 140.16,-78.37"/>
</a>
</g>
<text text-anchor="middle" x="148.38" y="-86" font-family="Helvetica,sans-Serif" font-size="10.00" fill="grey"> next</text>
</g>
<!-- Node8 -->
<g id="Node000008" class="node">
<title>Node8</title>
<g id="a_Node000008"><a xlink:href="classyaclib_1_1IntrusivePtr.html" target="_top" xlink:title=" ">
<polygon fill="white" stroke="#666666" points="565.5,-67.88 470,-67.88 470,-37.38 565.5,-37.38 565.5,-67.88"/>
<text text-anchor="start" x="478" y="-54.38" font-family="Helvetica,sans-Serif" font-size="10.00">yaclib::IntrusivePtr</text>
<text text-anchor="middle" x="517.75" y="-43.12" font-family="Helvetica,sans-Serif" font-size="10.00">&lt; IExecutor &gt;</text>
</a>
</g>
</g>
<!-- Node8&#45;&gt;Node2 -->
<g id="edge8_Node000002_Node000008" class="edge">
<title>Node8&#45;&gt;Node2</title>
<g id="a_edge8_Node000002_Node000008"><a xlink:title=" ">
<path fill="none" stroke="#9a32cd" stroke-dasharray="5,2" d="M577.28,-52.62C602.14,-52.62 631.02,-52.62 655.75,-52.62"/>
<polygon fill="#9a32cd" stroke="#9a32cd" points="577.32,-49.13 567.32,-52.63 577.32,-56.13 577.32,-49.13"/>
</a>
</g>
<text text-anchor="middle" x="616.12" y="-54.38" font-family="Helvetica,sans-Serif" font-size="10.00" fill="grey"> _executor</text>
</g>
<!-- Node9 -->
<g id="Node000009" class="node">
<title>Node9</title>
<g id="a_Node000009"><a xlink:href="classyaclib_1_1IntrusivePtr.html" target="_top" xlink:title="A intrusive pointer to objects with an embedded reference count.">
<polygon fill="white" stroke="#666666" points="351.5,-62.25 233.5,-62.25 233.5,-43 351.5,-43 351.5,-62.25"/>
<text text-anchor="middle" x="292.5" y="-48.75" font-family="Helvetica,sans-Serif" font-size="10.00">yaclib::IntrusivePtr&lt; T &gt;</text>
</a>
</g>
</g>
<!-- Node9&#45;&gt;Node8 -->
<g id="edge9_Node000008_Node000009" class="edge">
<title>Node9&#45;&gt;Node8</title>
<g id="a_edge9_Node000008_Node000009"><a xlink:title=" ">
<path fill="none" stroke="orange" stroke-dasharray="5,2" d="M363.33,-52.62C397.92,-52.62 438.76,-52.62 469.61,-52.62"/>
<polygon fill="orange" stroke="orange" points="363.38,-49.13 353.38,-52.63 363.38,-56.13 363.38,-49.13"/>
</a>
</g>
<text text-anchor="middle" x="405.5" y="-54.38" font-family="Helvetica,sans-Serif" font-size="10.00" fill="grey"> &lt; IExecutor &gt;</text>
</g>
<!-- Node10 -->
<g id="Node000010" class="node">
<title>Node10</title>
<g id="a_Node000010"><a xlink:title=" ">
<polygon fill="white" stroke="#666666" points="575.25,-19.25 460.25,-19.25 460.25,0 575.25,0 575.25,-19.25"/>
<text text-anchor="middle" x="517.75" y="-5.75" font-family="Helvetica,sans-Serif" font-size="10.00">atomic&lt; std::uintptr_t &gt;</text>
</a>
</g>
</g>
<!-- Node10&#45;&gt;Node2 -->
<g id="edge10_Node000002_Node000010" class="edge">
<title>Node10&#45;&gt;Node2</title>
<g id="a_edge10_Node000002_Node000010"><a xlink:title=" ">
<path fill="none" stroke="#9a32cd" stroke-dasharray="5,2" d="M575.24,-22.12C604.57,-28.61 639.93,-36.43 667.5,-42.53"/>
<polygon fill="#9a32cd" stroke="#9a32cd" points="576.32,-18.78 565.8,-20.03 574.81,-25.61 576.32,-18.78"/>
</a>
</g>
<text text-anchor="middle" x="616.12" y="-37.38" font-family="Helvetica,sans-Serif" font-size="10.00" fill="grey"> _callback</text>
</g>
<!-- Node11 -->
<g id="Node000011" class="node">
<title>Node11</title>
<g id="a_Node000011"><a xlink:title=" ">
<polygon fill="white" stroke="#666666" points="315.12,-19.25 269.88,-19.25 269.88,0 315.12,0 315.12,-19.25"/>
<text text-anchor="middle" x="292.5" y="-5.75" font-family="Helvetica,sans-Serif" font-size="10.00">atomic</text>
</a>
</g>
</g>
<!-- Node11&#45;&gt;Node10 -->
<g id="edge11_Node000010_Node000011" class="edge">
<title>Node11&#45;&gt;Node10</title>
<g id="a_edge11_Node000010_Node000011"><a xlink:title=" ">
<path fill="none" stroke="orange" stroke-dasharray="5,2" d="M326.82,-9.62C361.96,-9.62 417.97,-9.62 460.08,-9.62"/>
<polygon fill="orange" stroke="orange" points="326.83,-6.13 316.83,-9.63 326.83,-13.13 326.83,-6.13"/>
</a>
</g>
<text text-anchor="middle" x="405.5" y="-11.38" font-family="Helvetica,sans-Serif" font-size="10.00" fill="grey"> &lt; std::uintptr_t &gt;</text>
</g>
</g>
</svg>
