<?xml version="1.0" encoding="UTF-8" standalone="no"?>
<!DOCTYPE svg PUBLIC "-//W3C//DTD SVG 1.1//EN"
 "http://www.w3.org/Graphics/SVG/1.1/DTD/svg11.dtd">
<!-- Generated by graphviz version 9.0.0 (20230911.1827)
 -->
<!-- Title: yaclib::detail::AtomicCounter&lt; CounterBase, Deleter &gt; Pages: 1 -->
<svg width="201pt" height="240pt"
 viewBox="0.00 0.00 200.50 240.00" xmlns="http://www.w3.org/2000/svg" xmlns:xlink="http://www.w3.org/1999/xlink">
<g id="graph0" class="graph" transform="scale(1 1) rotate(0) translate(4 236)">
<title>yaclib::detail::AtomicCounter&lt; CounterBase, Deleter &gt;</title>
<!-- Node1 -->
<g id="Node000001" class="node">
<title>Node1</title>
<g id="a_Node000001"><a xlink:title=" ">
<polygon fill="#999999" stroke="#666666" points="137.5,-175.75 0,-175.75 0,-145.25 137.5,-145.25 137.5,-175.75"/>
<text text-anchor="start" x="8" y="-162.25" font-family="Helvetica,sans-Serif" font-size="10.00">yaclib::detail::AtomicCounter</text>
<text text-anchor="middle" x="68.75" y="-151" font-family="Helvetica,sans-Serif" font-size="10.00">&lt; CounterBase, Deleter &gt;</text>
</a>
</g>
</g>
<!-- Node3 -->
<g id="Node000003" class="node">
<title>Node3</title>
<g id="a_Node000003"><a xlink:href="structyaclib_1_1detail_1_1AtomicCounter.html" target="_top" xlink:title=" ">
<polygon fill="white" stroke="#666666" points="137.5,-98 0,-98 0,-67.5 137.5,-67.5 137.5,-98"/>
<text text-anchor="start" x="8" y="-84.5" font-family="Helvetica,sans-Serif" font-size="10.00">yaclib::detail::AtomicCounter</text>
<text text-anchor="middle" x="68.75" y="-73.25" font-family="Helvetica,sans-Serif" font-size="10.00">&lt; NopeBase, NopeDeleter &gt;</text>
</a>
</g>
</g>
<!-- Node1&#45;&gt;Node3 -->
<g id="edge2_Node000001_Node000003" class="edge">
<title>Node1&#45;&gt;Node3</title>
<g id="a_edge2_Node000001_Node000003"><a xlink:title=" ">
<path fill="none" stroke="orange" stroke-dasharray="5,2" d="M68.75,-133.47C68.75,-121.71 68.75,-108.26 68.75,-98.31"/>
<polygon fill="orange" stroke="orange" points="65.25,-133.38 68.75,-143.38 72.25,-133.38 65.25,-133.38"/>
</a>
</g>
<text text-anchor="middle" x="130.62" y="-117.75" font-family="Helvetica,sans-Serif" font-size="10.00" fill="grey"> &lt; NopeBase, NopeDeleter &gt;</text>
</g>
<!-- Node2 -->
<g id="Node000002" class="node">
<title>Node2</title>
<g id="a_Node000002"><a xlink:href="classCounterBase.html" target="_top" xlink:title=" ">
<polygon fill="white" stroke="#666666" points="104.88,-232 32.62,-232 32.62,-212.75 104.88,-212.75 104.88,-232"/>
<text text-anchor="middle" x="68.75" y="-218.5" font-family="Helvetica,sans-Serif" font-size="10.00">CounterBase</text>
</a>
</g>
</g>
<!-- Node2&#45;&gt;Node1 -->
<g id="edge1_Node000001_Node000002" class="edge">
<title>Node2&#45;&gt;Node1</title>
<g id="a_edge1_Node000001_Node000002"><a xlink:title=" ">
<path fill="none" stroke="#63b8ff" d="M68.75,-200.94C68.75,-192.68 68.75,-183.34 68.75,-175.82"/>
<polygon fill="#63b8ff" stroke="#63b8ff" points="65.25,-200.77 68.75,-210.77 72.25,-200.77 65.25,-200.77"/>
</a>
</g>
</g>
<!-- Node4 -->
<g id="Node000004" class="node">
<title>Node4</title>
<g id="a_Node000004"><a xlink:href="classyaclib_1_1detail_1_1AwaitEvent.html" target="_top" xlink:title=" ">
<polygon fill="white" stroke="#666666" points="130,-30.5 7.5,-30.5 7.5,0 130,0 130,-30.5"/>
<text text-anchor="start" x="15.5" y="-17" font-family="Helvetica,sans-Serif" font-size="10.00">yaclib::detail::AwaitEvent</text>
<text text-anchor="middle" x="68.75" y="-5.75" font-family="Helvetica,sans-Serif" font-size="10.00">&lt; Sticky &gt;</text>
</a>
</g>
</g>
<!-- Node3&#45;&gt;Node4 -->
<g id="edge3_Node000003_Node000004" class="edge">
<title>Node3&#45;&gt;Node4</title>
<g id="a_edge3_Node000003_Node000004"><a xlink:title=" ">
<path fill="none" stroke="#63b8ff" d="M68.75,-55.84C68.75,-47.3 68.75,-38.12 68.75,-30.75"/>
<polygon fill="#63b8ff" stroke="#63b8ff" points="65.25,-55.7 68.75,-65.7 72.25,-55.7 65.25,-55.7"/>
</a>
</g>
</g>
</g>
</svg>
