<?xml version="1.0" encoding="UTF-8" standalone="no"?>
<!DOCTYPE svg PUBLIC "-//W3C//DTD SVG 1.1//EN"
 "http://www.w3.org/Graphics/SVG/1.1/DTD/svg11.dtd">
<!-- Generated by graphviz version 9.0.0 (20230911.1827)
 -->
<!-- Title: yaclib::OneShotEvent::TimedWaiter Pages: 1 -->
<svg width="266pt" height="204pt"
 viewBox="0.00 0.00 266.00 204.25" xmlns="http://www.w3.org/2000/svg" xmlns:xlink="http://www.w3.org/1999/xlink">
<g id="graph0" class="graph" transform="scale(1 1) rotate(0) translate(4 200.25)">
<title>yaclib::OneShotEvent::TimedWaiter</title>
<!-- Node1 -->
<g id="Node000001" class="node">
<title>Node1</title>
<g id="a_Node000001"><a xlink:title="Public only because Waiter is public.">
<polygon fill="#999999" stroke="#666666" points="194.12,-30.5 85.88,-30.5 85.88,0 194.12,0 194.12,-30.5"/>
<text text-anchor="start" x="93.88" y="-17" font-family="Helvetica,sans-Serif" font-size="10.00">yaclib::OneShotEvent</text>
<text text-anchor="middle" x="140" y="-5.75" font-family="Helvetica,sans-Serif" font-size="10.00">::TimedWaiter</text>
</a>
</g>
</g>
<!-- Node2 -->
<g id="Node000002" class="node">
<title>Node2</title>
<g id="a_Node000002"><a xlink:href="classyaclib_1_1Job.html" target="_top" xlink:title="Callable that can be executed in an IExecutor.">
<polygon fill="white" stroke="#666666" points="115.5,-85.75 54.5,-85.75 54.5,-66.5 115.5,-66.5 115.5,-85.75"/>
<text text-anchor="middle" x="85" y="-72.25" font-family="Helvetica,sans-Serif" font-size="10.00">yaclib::Job</text>
</a>
</g>
</g>
<!-- Node2&#45;&gt;Node1 -->
<g id="edge1_Node000001_Node000002" class="edge">
<title>Node2&#45;&gt;Node1</title>
<g id="a_edge1_Node000001_Node000002"><a xlink:title=" ">
<path fill="none" stroke="#63b8ff" d="M101.02,-57.98C109.08,-49.35 118.74,-39.01 126.42,-30.78"/>
<polygon fill="#63b8ff" stroke="#63b8ff" points="98.66,-55.38 94.39,-65.08 103.77,-60.16 98.66,-55.38"/>
</a>
</g>
</g>
<!-- Node3 -->
<g id="Node000003" class="node">
<title>Node3</title>
<g id="a_Node000003"><a xlink:href="classyaclib_1_1IFunc.html" target="_top" xlink:title="Callable interface.">
<polygon fill="white" stroke="#666666" points="70,-141 0,-141 0,-121.75 70,-121.75 70,-141"/>
<text text-anchor="middle" x="35" y="-127.5" font-family="Helvetica,sans-Serif" font-size="10.00">yaclib::IFunc</text>
</a>
</g>
</g>
<!-- Node3&#45;&gt;Node2 -->
<g id="edge2_Node000002_Node000003" class="edge">
<title>Node3&#45;&gt;Node2</title>
<g id="a_edge2_Node000002_Node000003"><a xlink:title=" ">
<path fill="none" stroke="#63b8ff" d="M51.04,-113.29C59.53,-104.25 69.6,-93.52 76.56,-86.11"/>
<polygon fill="#63b8ff" stroke="#63b8ff" points="48.59,-110.79 44.29,-120.48 53.69,-115.58 48.59,-110.79"/>
</a>
</g>
</g>
<!-- Node4 -->
<g id="Node000004" class="node">
<title>Node4</title>
<g id="a_Node000004"><a xlink:href="classyaclib_1_1IRef.html" target="_top" xlink:title="Reference counting interface.">
<polygon fill="white" stroke="#666666" points="66.62,-196.25 3.38,-196.25 3.38,-177 66.62,-177 66.62,-196.25"/>
<text text-anchor="middle" x="35" y="-182.75" font-family="Helvetica,sans-Serif" font-size="10.00">yaclib::IRef</text>
</a>
</g>
</g>
<!-- Node4&#45;&gt;Node3 -->
<g id="edge3_Node000003_Node000004" class="edge">
<title>Node4&#45;&gt;Node3</title>
<g id="a_edge3_Node000003_Node000004"><a xlink:title=" ">
<path fill="none" stroke="#63b8ff" d="M35,-165.38C35,-157.09 35,-147.92 35,-141.36"/>
<polygon fill="#63b8ff" stroke="#63b8ff" points="31.5,-165.32 35,-175.32 38.5,-165.32 31.5,-165.32"/>
</a>
</g>
</g>
<!-- Node5 -->
<g id="Node000005" class="node">
<title>Node5</title>
<g id="a_Node000005"><a xlink:href="structyaclib_1_1detail_1_1Node.html" target="_top" xlink:title="Node class, used in intrusive data structure.">
<polygon fill="white" stroke="#666666" points="184.12,-141 87.88,-141 87.88,-121.75 184.12,-121.75 184.12,-141"/>
<text text-anchor="middle" x="136" y="-127.5" font-family="Helvetica,sans-Serif" font-size="10.00">yaclib::detail::Node</text>
</a>
</g>
</g>
<!-- Node5&#45;&gt;Node2 -->
<g id="edge4_Node000002_Node000005" class="edge">
<title>Node5&#45;&gt;Node2</title>
<g id="a_edge4_Node000002_Node000005"><a xlink:title=" ">
<path fill="none" stroke="#63b8ff" d="M119.64,-113.29C110.98,-104.25 100.7,-93.52 93.6,-86.11"/>
<polygon fill="#63b8ff" stroke="#63b8ff" points="117.09,-115.69 126.53,-120.49 122.14,-110.85 117.09,-115.69"/>
</a>
</g>
</g>
<!-- Node6 -->
<g id="Node000006" class="node">
<title>Node6</title>
<g id="a_Node000006"><a xlink:href="classyaclib_1_1detail_1_1MutexEvent.html" target="_top" xlink:title=" ">
<polygon fill="white" stroke="#666666" points="258,-85.75 134,-85.75 134,-66.5 258,-66.5 258,-85.75"/>
<text text-anchor="middle" x="196" y="-72.25" font-family="Helvetica,sans-Serif" font-size="10.00">yaclib::detail::MutexEvent</text>
</a>
</g>
</g>
<!-- Node6&#45;&gt;Node1 -->
<g id="edge5_Node000001_Node000006" class="edge">
<title>Node6&#45;&gt;Node1</title>
<g id="a_edge5_Node000001_Node000006"><a xlink:title=" ">
<path fill="none" stroke="#63b8ff" d="M179.69,-57.98C171.49,-49.35 161.65,-39.01 153.82,-30.78"/>
<polygon fill="#63b8ff" stroke="#63b8ff" points="177.02,-60.25 186.45,-65.09 182.1,-55.43 177.02,-60.25"/>
</a>
</g>
</g>
</g>
</svg>
