<?xml version="1.0" encoding="UTF-8" standalone="no"?>
<!DOCTYPE svg PUBLIC "-//W3C//DTD SVG 1.1//EN"
 "http://www.w3.org/Graphics/SVG/1.1/DTD/svg11.dtd">
<!-- Generated by graphviz version 9.0.0 (20230911.1827)
 -->
<!-- Title: yaclib::detail::AwaitOnAwaiter&lt; Handle &gt; Pages: 1 -->
<svg width="1040pt" height="86pt"
 viewBox="0.00 0.00 1040.00 86.25" xmlns="http://www.w3.org/2000/svg" xmlns:xlink="http://www.w3.org/1999/xlink">
<g id="graph0" class="graph" transform="scale(1 1) rotate(0) translate(4 82.25)">
<title>yaclib::detail::AwaitOnAwaiter&lt; Handle &gt;</title>
<!-- Node1 -->
<g id="Node000001" class="node">
<title>Node1</title>
<g id="a_Node000001"><a xlink:title=" ">
<polygon fill="#999999" stroke="#666666" points="1032,-59.88 888.5,-59.88 888.5,-29.38 1032,-29.38 1032,-59.88"/>
<text text-anchor="start" x="896.5" y="-46.38" font-family="Helvetica,sans-Serif" font-size="10.00">yaclib::detail::AwaitOnAwaiter</text>
<text text-anchor="middle" x="960.25" y="-35.12" font-family="Helvetica,sans-Serif" font-size="10.00">&lt; Handle &gt;</text>
</a>
</g>
</g>
<!-- Node2 -->
<g id="Node000002" class="node">
<title>Node2</title>
<g id="a_Node000002"><a xlink:href="classyaclib_1_1detail_1_1AwaitOnEvent.html" target="_top" xlink:title=" ">
<polygon fill="white" stroke="#666666" points="851.5,-59.88 716.25,-59.88 716.25,-29.38 851.5,-29.38 851.5,-59.88"/>
<text text-anchor="start" x="724.25" y="-46.38" font-family="Helvetica,sans-Serif" font-size="10.00">yaclib::detail::AwaitOnEvent</text>
<text text-anchor="middle" x="783.88" y="-35.12" font-family="Helvetica,sans-Serif" font-size="10.00">&lt; false &gt;</text>
</a>
</g>
</g>
<!-- Node2&#45;&gt;Node1 -->
<g id="edge1_Node000001_Node000002" class="edge">
<title>Node2&#45;&gt;Node1</title>
<g id="a_edge1_Node000001_Node000002"><a xlink:title=" ">
<path fill="none" stroke="#63b8ff" d="M863.09,-44.62C871.44,-44.62 879.9,-44.62 888.17,-44.62"/>
<polygon fill="#63b8ff" stroke="#63b8ff" points="863.31,-41.13 853.31,-44.63 863.31,-48.13 863.31,-41.13"/>
</a>
</g>
</g>
<!-- Node3 -->
<g id="Node000003" class="node">
<title>Node3</title>
<g id="a_Node000003"><a xlink:href="classyaclib_1_1detail_1_1InlineCore.html" target="_top" xlink:title=" ">
<polygon fill="white" stroke="#666666" points="458.12,-31.25 341.62,-31.25 341.62,-12 458.12,-12 458.12,-31.25"/>
<text text-anchor="middle" x="399.88" y="-17.75" font-family="Helvetica,sans-Serif" font-size="10.00">yaclib::detail::InlineCore</text>
</a>
</g>
</g>
<!-- Node3&#45;&gt;Node2 -->
<g id="edge2_Node000002_Node000003" class="edge">
<title>Node3&#45;&gt;Node2</title>
<g id="a_edge2_Node000002_Node000003"><a xlink:title=" ">
<path fill="none" stroke="#63b8ff" d="M469.78,-20.87C481.61,-20.77 493.78,-20.68 505.25,-20.62 565.36,-20.34 580.6,-15.61 640.5,-20.62 665.23,-22.69 692.12,-26.75 715.81,-30.95"/>
<polygon fill="#63b8ff" stroke="#63b8ff" points="470.05,-17.37 460.08,-20.96 470.12,-24.37 470.05,-17.37"/>
</a>
</g>
</g>
<!-- Node9 -->
<g id="Node000009" class="node">
<title>Node9</title>
<g id="a_Node000009"><a xlink:href="classyaclib_1_1detail_1_1AwaitOnEvent.html" target="_top" xlink:title=" ">
<polygon fill="white" stroke="#666666" points="640.5,-59.88 505.25,-59.88 505.25,-29.38 640.5,-29.38 640.5,-59.88"/>
<text text-anchor="start" x="513.25" y="-46.38" font-family="Helvetica,sans-Serif" font-size="10.00">yaclib::detail::AwaitOnEvent</text>
<text text-anchor="middle" x="572.88" y="-35.12" font-family="Helvetica,sans-Serif" font-size="10.00">&lt; Single &gt;</text>
</a>
</g>
</g>
<!-- Node3&#45;&gt;Node9 -->
<g id="edge9_Node000009_Node000003" class="edge">
<title>Node3&#45;&gt;Node9</title>
<g id="a_edge9_Node000009_Node000003"><a xlink:title=" ">
<path fill="none" stroke="#63b8ff" d="M469.34,-30.83C481.05,-32.41 493.19,-34.04 504.85,-35.61"/>
<polygon fill="#63b8ff" stroke="#63b8ff" points="470.17,-27.41 459.79,-29.55 469.24,-34.35 470.17,-27.41"/>
</a>
</g>
</g>
<!-- Node4 -->
<g id="Node000004" class="node">
<title>Node4</title>
<g id="a_Node000004"><a xlink:href="classyaclib_1_1Job.html" target="_top" xlink:title="Callable that can be executed in an IExecutor.">
<polygon fill="white" stroke="#666666" points="294.5,-31.25 233.5,-31.25 233.5,-12 294.5,-12 294.5,-31.25"/>
<text text-anchor="middle" x="264" y="-17.75" font-family="Helvetica,sans-Serif" font-size="10.00">yaclib::Job</text>
</a>
</g>
</g>
<!-- Node4&#45;&gt;Node3 -->
<g id="edge3_Node000003_Node000004" class="edge">
<title>Node4&#45;&gt;Node3</title>
<g id="a_edge3_Node000003_Node000004"><a xlink:title=" ">
<path fill="none" stroke="#63b8ff" d="M306.21,-21.62C317.28,-21.62 329.45,-21.62 341.23,-21.62"/>
<polygon fill="#63b8ff" stroke="#63b8ff" points="306.22,-18.13 296.22,-21.63 306.22,-25.13 306.22,-18.13"/>
</a>
</g>
</g>
<!-- Node5 -->
<g id="Node000005" class="node">
<title>Node5</title>
<g id="a_Node000005"><a xlink:href="classyaclib_1_1IFunc.html" target="_top" xlink:title="Callable interface.">
<polygon fill="white" stroke="#666666" points="183.38,-56.25 113.38,-56.25 113.38,-37 183.38,-37 183.38,-56.25"/>
<text text-anchor="middle" x="148.38" y="-42.75" font-family="Helvetica,sans-Serif" font-size="10.00">yaclib::IFunc</text>
</a>
</g>
</g>
<!-- Node5&#45;&gt;Node4 -->
<g id="edge4_Node000004_Node000005" class="edge">
<title>Node5&#45;&gt;Node4</title>
<g id="a_edge4_Node000004_Node000005"><a xlink:title=" ">
<path fill="none" stroke="#63b8ff" d="M194.87,-36.61C207.82,-33.77 221.59,-30.74 233.33,-28.15"/>
<polygon fill="#63b8ff" stroke="#63b8ff" points="194.27,-33.16 185.25,-38.73 195.77,-40 194.27,-33.16"/>
</a>
</g>
</g>
<!-- Node6 -->
<g id="Node000006" class="node">
<title>Node6</title>
<g id="a_Node000006"><a xlink:href="classyaclib_1_1IRef.html" target="_top" xlink:title="Reference counting interface.">
<polygon fill="white" stroke="#666666" points="63.25,-56.25 0,-56.25 0,-37 63.25,-37 63.25,-56.25"/>
<text text-anchor="middle" x="31.62" y="-42.75" font-family="Helvetica,sans-Serif" font-size="10.00">yaclib::IRef</text>
</a>
</g>
</g>
<!-- Node6&#45;&gt;Node5 -->
<g id="edge5_Node000005_Node000006" class="edge">
<title>Node6&#45;&gt;Node5</title>
<g id="a_edge5_Node000005_Node000006"><a xlink:title=" ">
<path fill="none" stroke="#63b8ff" d="M74.86,-46.62C87.44,-46.62 101.06,-46.62 113.07,-46.62"/>
<polygon fill="#63b8ff" stroke="#63b8ff" points="75.19,-43.13 65.19,-46.63 75.19,-50.13 75.19,-43.13"/>
</a>
</g>
</g>
<!-- Node7 -->
<g id="Node000007" class="node">
<title>Node7</title>
<g id="a_Node000007"><a xlink:href="structyaclib_1_1detail_1_1Node.html" target="_top" xlink:title="Node class, used in intrusive data structure.">
<polygon fill="white" stroke="#666666" points="196.5,-19.25 100.25,-19.25 100.25,0 196.5,0 196.5,-19.25"/>
<text text-anchor="middle" x="148.38" y="-5.75" font-family="Helvetica,sans-Serif" font-size="10.00">yaclib::detail::Node</text>
</a>
</g>
</g>
<!-- Node7&#45;&gt;Node4 -->
<g id="edge6_Node000004_Node000007" class="edge">
<title>Node7&#45;&gt;Node4</title>
<g id="a_edge6_Node000004_Node000007"><a xlink:title=" ">
<path fill="none" stroke="#63b8ff" d="M208.23,-15.84C216.87,-16.75 225.45,-17.66 233.16,-18.47"/>
<polygon fill="#63b8ff" stroke="#63b8ff" points="208.72,-12.37 198.41,-14.8 207.99,-19.33 208.72,-12.37"/>
</a>
</g>
</g>
<!-- Node8 -->
<g id="Node000008" class="node">
<title>Node8</title>
<g id="a_Node000008"><a xlink:title=" ">
<polygon fill="white" stroke="#666666" points="468.25,-78.25 331.5,-78.25 331.5,-59 468.25,-59 468.25,-78.25"/>
<text text-anchor="middle" x="399.88" y="-64.75" font-family="Helvetica,sans-Serif" font-size="10.00">AwaitOnCounterT&lt; Single &gt;</text>
</a>
</g>
</g>
<!-- Node8&#45;&gt;Node2 -->
<g id="edge7_Node000002_Node000008" class="edge">
<title>Node8&#45;&gt;Node2</title>
<g id="a_edge7_Node000002_Node000008"><a xlink:title=" ">
<path fill="none" stroke="#63b8ff" d="M479.94,-70.54C482.07,-70.57 484.17,-70.6 486.25,-70.62 554.81,-71.43 572.18,-74.37 640.5,-68.62 666.39,-66.45 672.63,-63.89 698.25,-59.62 703.99,-58.67 709.95,-57.66 715.92,-56.63"/>
<polygon fill="#63b8ff" stroke="#63b8ff" points="480.02,-67.04 469.96,-70.38 479.9,-74.04 480.02,-67.04"/>
</a>
</g>
</g>
<!-- Node8&#45;&gt;Node9 -->
<g id="edge10_Node000009_Node000008" class="edge">
<title>Node8&#45;&gt;Node9</title>
<g id="a_edge10_Node000009_Node000008"><a xlink:title=" ">
<path fill="none" stroke="#63b8ff" d="M479.77,-57.55C488.13,-56.38 496.58,-55.19 504.78,-54.04"/>
<polygon fill="#63b8ff" stroke="#63b8ff" points="479.37,-54.07 469.96,-58.93 480.35,-61.01 479.37,-54.07"/>
</a>
</g>
</g>
<!-- Node9&#45;&gt;Node2 -->
<g id="edge8_Node000002_Node000009" class="edge">
<title>Node9&#45;&gt;Node2</title>
<g id="a_edge8_Node000002_Node000009"><a xlink:title=" ">
<path fill="none" stroke="orange" stroke-dasharray="5,2" d="M652.32,-44.62C673.24,-44.62 695.66,-44.62 715.9,-44.62"/>
<polygon fill="orange" stroke="orange" points="652.38,-41.13 642.38,-44.63 652.38,-48.13 652.38,-41.13"/>
</a>
</g>
<text text-anchor="middle" x="678.38" y="-46.38" font-family="Helvetica,sans-Serif" font-size="10.00" fill="grey"> &lt; false &gt;</text>
</g>
</g>
</svg>
