<?xml version="1.0" encoding="UTF-8" standalone="no"?>
<!DOCTYPE svg PUBLIC "-//W3C//DTD SVG 1.1//EN"
 "http://www.w3.org/Graphics/SVG/1.1/DTD/svg11.dtd">
<!-- Generated by graphviz version 9.0.0 (20230911.1827)
 -->
<!-- Title: yaclib::detail::AwaitAwaiter&lt; Handle, true &gt; Pages: 1 -->
<svg width="412pt" height="429pt"
 viewBox="0.00 0.00 412.00 429.25" xmlns="http://www.w3.org/2000/svg" xmlns:xlink="http://www.w3.org/1999/xlink">

<svg id="main" version="1.1" xmlns="http://www.w3.org/2000/svg" xmlns:xlink="http://www.w3.org/1999/xlink" xml:space="preserve" onload="init(evt)">
<style type="text/css"><![CDATA[
.node, .edge {opacity: 0.7;}
.node.selected, .edge.selected {opacity: 1;}
.edge:hover path { stroke: red; }
.edge:hover polygon { stroke: red; fill: red; }
]]></style>
<script type="application/ecmascript" xlink:href="svg.min.js"/>
<svg id="graph" class="graph">
<g id="graph0" class="graph" transform="scale(1 1) rotate(0) translate(4 425.25)">
<title>yaclib::detail::AwaitAwaiter&lt; Handle, true &gt;</title>
<!-- Node1 -->
<g id="Node000001" class="node">
<title>Node1</title>
<g id="a_Node000001"><a xlink:title=" ">
<polygon fill="#999999" stroke="#666666" points="177.38,-30.5 46.62,-30.5 46.62,0 177.38,0 177.38,-30.5"/>
<text text-anchor="start" x="54.62" y="-17" font-family="Helvetica,sans-Serif" font-size="10.00">yaclib::detail::AwaitAwaiter</text>
<text text-anchor="middle" x="112" y="-5.75" font-family="Helvetica,sans-Serif" font-size="10.00">&lt; Handle, true &gt;</text>
</a>
</g>
</g>
<!-- Node2 -->
<g id="Node000002" class="node">
<title>Node2</title>
<g id="a_Node000002"><a xlink:href="structyaclib_1_1detail_1_1AwaitAwaiterBase.html" target="_top" xlink:title=" ">
<polygon fill="white" stroke="#666666" points="266.38,-98 135.62,-98 135.62,-67.5 266.38,-67.5 266.38,-98"/>
<text text-anchor="start" x="143.62" y="-84.5" font-family="Helvetica,sans-Serif" font-size="10.00">yaclib::detail::AwaitAwaiter</text>
<text text-anchor="middle" x="201" y="-73.25" font-family="Helvetica,sans-Serif" font-size="10.00">Base&lt; Handle &gt;</text>
</a>
</g>
</g>
<!-- Node2&#45;&gt;Node1 -->
<g id="edge1_Node000001_Node000002" class="edge">
<title>Node2&#45;&gt;Node1</title>
<g id="a_edge1_Node000001_Node000002"><a xlink:title=" ">
<path fill="none" stroke="#63b8ff" d="M172.14,-60.51C159.03,-50.86 143.84,-39.68 132,-30.97"/>
<polygon fill="#63b8ff" stroke="#63b8ff" points="169.9,-63.21 180.03,-66.32 174.05,-57.57 169.9,-63.21"/>
</a>
</g>
</g>
<!-- Node3 -->
<g id="Node000003" class="node">
<title>Node3</title>
<g id="a_Node000003"><a xlink:href="classyaclib_1_1detail_1_1BaseCore.html" target="_top" xlink:title=" ">
<polygon fill="white" stroke="#666666" points="264.88,-164.5 149.12,-164.5 149.12,-145.25 264.88,-145.25 264.88,-164.5"/>
<text text-anchor="middle" x="207" y="-151" font-family="Helvetica,sans-Serif" font-size="10.00">yaclib::detail::BaseCore</text>
</a>
</g>
</g>
<!-- Node3&#45;&gt;Node2 -->
<g id="edge2_Node000002_Node000003" class="edge">
<title>Node3&#45;&gt;Node2</title>
<g id="a_edge2_Node000002_Node000003"><a xlink:title=" ">
<path fill="none" stroke="#9a32cd" stroke-dasharray="5,2" d="M205.27,-133.67C204.31,-122.41 203.13,-108.64 202.25,-98.42"/>
<polygon fill="#9a32cd" stroke="#9a32cd" points="201.77,-133.82 206.11,-143.49 208.75,-133.22 201.77,-133.82"/>
</a>
</g>
<text text-anchor="middle" x="218.12" y="-117.75" font-family="Helvetica,sans-Serif" font-size="10.00" fill="grey"> _core</text>
</g>
<!-- Node4 -->
<g id="Node000004" class="node">
<title>Node4</title>
<g id="a_Node000004"><a xlink:href="classyaclib_1_1detail_1_1InlineCore.html" target="_top" xlink:title=" ">
<polygon fill="white" stroke="#666666" points="143.25,-236.62 26.75,-236.62 26.75,-217.38 143.25,-217.38 143.25,-236.62"/>
<text text-anchor="middle" x="85" y="-223.12" font-family="Helvetica,sans-Serif" font-size="10.00">yaclib::detail::InlineCore</text>
</a>
</g>
</g>
<!-- Node4&#45;&gt;Node1 -->
<g id="edge13_Node000001_Node000004" class="edge">
<title>Node4&#45;&gt;Node1</title>
<g id="a_edge13_Node000001_Node000004"><a xlink:title=" ">
<path fill="none" stroke="#63b8ff" d="M87.6,-205.78C93.03,-163.65 105.42,-67.37 110.13,-30.75"/>
<polygon fill="#63b8ff" stroke="#63b8ff" points="84.16,-205.12 86.35,-215.49 91.1,-206.01 84.16,-205.12"/>
</a>
</g>
</g>
<!-- Node4&#45;&gt;Node3 -->
<g id="edge3_Node000003_Node000004" class="edge">
<title>Node4&#45;&gt;Node3</title>
<g id="a_edge3_Node000003_Node000004"><a xlink:title=" ">
<path fill="none" stroke="#63b8ff" d="M110.42,-211.39C134.8,-197.38 170.83,-176.67 191.29,-164.91"/>
<polygon fill="#63b8ff" stroke="#63b8ff" points="108.69,-208.35 101.76,-216.36 112.18,-214.42 108.69,-208.35"/>
</a>
</g>
</g>
<!-- Node5 -->
<g id="Node000005" class="node">
<title>Node5</title>
<g id="a_Node000005"><a xlink:href="classyaclib_1_1Job.html" target="_top" xlink:title="Callable that can be executed in an IExecutor.">
<polygon fill="white" stroke="#666666" points="115.5,-308.75 54.5,-308.75 54.5,-289.5 115.5,-289.5 115.5,-308.75"/>
<text text-anchor="middle" x="85" y="-295.25" font-family="Helvetica,sans-Serif" font-size="10.00">yaclib::Job</text>
</a>
</g>
</g>
<!-- Node5&#45;&gt;Node4 -->
<g id="edge4_Node000004_Node000005" class="edge">
<title>Node5&#45;&gt;Node4</title>
<g id="a_edge4_Node000004_Node000005"><a xlink:title=" ">
<path fill="none" stroke="#63b8ff" d="M85,-277.74C85,-264.27 85,-247.26 85,-237.03"/>
<polygon fill="#63b8ff" stroke="#63b8ff" points="81.5,-277.73 85,-287.73 88.5,-277.73 81.5,-277.73"/>
</a>
</g>
</g>
<!-- Node6 -->
<g id="Node000006" class="node">
<title>Node6</title>
<g id="a_Node000006"><a xlink:href="classyaclib_1_1IFunc.html" target="_top" xlink:title="Callable interface.">
<polygon fill="white" stroke="#666666" points="70,-365 0,-365 0,-345.75 70,-345.75 70,-365"/>
<text text-anchor="middle" x="35" y="-351.5" font-family="Helvetica,sans-Serif" font-size="10.00">yaclib::IFunc</text>
</a>
</g>
</g>
<!-- Node6&#45;&gt;Node5 -->
<g id="edge5_Node000005_Node000006" class="edge">
<title>Node6&#45;&gt;Node5</title>
<g id="a_edge5_Node000005_Node000006"><a xlink:title=" ">
<path fill="none" stroke="#63b8ff" d="M50.87,-337.15C59.53,-327.76 69.88,-316.53 76.9,-308.92"/>
<polygon fill="#63b8ff" stroke="#63b8ff" points="48.49,-334.58 44.28,-344.3 53.63,-339.32 48.49,-334.58"/>
</a>
</g>
</g>
<!-- Node7 -->
<g id="Node000007" class="node">
<title>Node7</title>
<g id="a_Node000007"><a xlink:href="classyaclib_1_1IRef.html" target="_top" xlink:title="Reference counting interface.">
<polygon fill="white" stroke="#666666" points="66.62,-421.25 3.38,-421.25 3.38,-402 66.62,-402 66.62,-421.25"/>
<text text-anchor="middle" x="35" y="-407.75" font-family="Helvetica,sans-Serif" font-size="10.00">yaclib::IRef</text>
</a>
</g>
</g>
<!-- Node7&#45;&gt;Node6 -->
<g id="edge6_Node000006_Node000007" class="edge">
<title>Node7&#45;&gt;Node6</title>
<g id="a_edge6_Node000006_Node000007"><a xlink:title=" ">
<path fill="none" stroke="#63b8ff" d="M35,-390.44C35,-381.73 35,-371.99 35,-365.17"/>
<polygon fill="#63b8ff" stroke="#63b8ff" points="31.5,-390.15 35,-400.15 38.5,-390.15 31.5,-390.15"/>
</a>
</g>
</g>
<!-- Node8 -->
<g id="Node000008" class="node">
<title>Node8</title>
<g id="a_Node000008"><a xlink:href="structyaclib_1_1detail_1_1Node.html" target="_top" xlink:title="Node class, used in intrusive data structure.">
<polygon fill="white" stroke="#666666" points="184.12,-365 87.88,-365 87.88,-345.75 184.12,-345.75 184.12,-365"/>
<text text-anchor="middle" x="136" y="-351.5" font-family="Helvetica,sans-Serif" font-size="10.00">yaclib::detail::Node</text>
</a>
</g>
</g>
<!-- Node8&#45;&gt;Node5 -->
<g id="edge7_Node000005_Node000008" class="edge">
<title>Node8&#45;&gt;Node5</title>
<g id="a_edge7_Node000005_Node000008"><a xlink:title=" ">
<path fill="none" stroke="#63b8ff" d="M119.81,-337.15C110.98,-327.76 100.42,-316.53 93.26,-308.92"/>
<polygon fill="#63b8ff" stroke="#63b8ff" points="117.14,-339.43 126.54,-344.31 122.24,-334.63 117.14,-339.43"/>
</a>
</g>
</g>
<!-- Node8&#45;&gt;Node8 -->
<g id="edge8_Node000008_Node000008" class="edge">
<title>Node8&#45;&gt;Node8</title>
<g id="a_edge8_Node000008_Node000008"><a xlink:title=" ">
<path fill="none" stroke="#9a32cd" stroke-dasharray="5,2" d="M195.57,-359.19C199.65,-358.31 202.12,-357.04 202.12,-355.38 202.12,-352.49 194.71,-350.79 184.44,-350.27"/>
<polygon fill="#9a32cd" stroke="#9a32cd" points="195.47,-355.68 185.94,-360.3 196.28,-362.63 195.47,-355.68"/>
</a>
</g>
<text text-anchor="middle" x="212.25" y="-351.5" font-family="Helvetica,sans-Serif" font-size="10.00" fill="grey"> next</text>
</g>
<!-- Node9 -->
<g id="Node000009" class="node">
<title>Node9</title>
<g id="a_Node000009"><a xlink:href="classyaclib_1_1IntrusivePtr.html" target="_top" xlink:title=" ">
<polygon fill="white" stroke="#666666" points="256.75,-242.25 161.25,-242.25 161.25,-211.75 256.75,-211.75 256.75,-242.25"/>
<text text-anchor="start" x="169.25" y="-228.75" font-family="Helvetica,sans-Serif" font-size="10.00">yaclib::IntrusivePtr</text>
<text text-anchor="middle" x="209" y="-217.5" font-family="Helvetica,sans-Serif" font-size="10.00">&lt; IExecutor &gt;</text>
</a>
</g>
</g>
<!-- Node9&#45;&gt;Node3 -->
<g id="edge9_Node000003_Node000009" class="edge">
<title>Node9&#45;&gt;Node3</title>
<g id="a_edge9_Node000003_Node000009"><a xlink:title=" ">
<path fill="none" stroke="#9a32cd" stroke-dasharray="5,2" d="M208.27,-200.23C207.91,-187.73 207.5,-173.52 207.25,-164.63"/>
<polygon fill="#9a32cd" stroke="#9a32cd" points="204.76,-200.06 208.54,-209.96 211.76,-199.86 204.76,-200.06"/>
</a>
</g>
<text text-anchor="middle" x="231.12" y="-184.25" font-family="Helvetica,sans-Serif" font-size="10.00" fill="grey"> _executor</text>
</g>
<!-- Node10 -->
<g id="Node000010" class="node">
<title>Node10</title>
<g id="a_Node000010"><a xlink:href="classyaclib_1_1IntrusivePtr.html" target="_top" xlink:title="A intrusive pointer to objects with an embedded reference count.">
<polygon fill="white" stroke="#666666" points="268,-308.75 150,-308.75 150,-289.5 268,-289.5 268,-308.75"/>
<text text-anchor="middle" x="209" y="-295.25" font-family="Helvetica,sans-Serif" font-size="10.00">yaclib::IntrusivePtr&lt; T &gt;</text>
</a>
</g>
</g>
<!-- Node10&#45;&gt;Node9 -->
<g id="edge10_Node000009_Node000010" class="edge">
<title>Node10&#45;&gt;Node9</title>
<g id="a_edge10_Node000009_Node000010"><a xlink:title=" ">
<path fill="none" stroke="orange" stroke-dasharray="5,2" d="M209,-277.92C209,-266.66 209,-252.89 209,-242.67"/>
<polygon fill="orange" stroke="orange" points="205.5,-277.73 209,-287.73 212.5,-277.73 205.5,-277.73"/>
</a>
</g>
<text text-anchor="middle" x="238.62" y="-262" font-family="Helvetica,sans-Serif" font-size="10.00" fill="grey"> &lt; IExecutor &gt;</text>
</g>
<!-- Node11 -->
<g id="Node000011" class="node">
<title>Node11</title>
<g id="a_Node000011"><a xlink:title=" ">
<polygon fill="white" stroke="#666666" points="389.5,-236.62 274.5,-236.62 274.5,-217.38 389.5,-217.38 389.5,-236.62"/>
<text text-anchor="middle" x="332" y="-223.12" font-family="Helvetica,sans-Serif" font-size="10.00">atomic&lt; std::uintptr_t &gt;</text>
</a>
</g>
</g>
<!-- Node11&#45;&gt;Node3 -->
<g id="edge11_Node000003_Node000011" class="edge">
<title>Node11&#45;&gt;Node3</title>
<g id="a_edge11_Node000003_Node000011"><a xlink:title=" ">
<path fill="none" stroke="#9a32cd" stroke-dasharray="5,2" d="M307.11,-211.26C292.57,-202.73 273.83,-191.86 257,-182.5 246.17,-176.48 233.89,-169.93 224.21,-164.84"/>
<polygon fill="#9a32cd" stroke="#9a32cd" points="305.17,-214.18 315.56,-216.24 308.72,-208.15 305.17,-214.18"/>
</a>
</g>
<text text-anchor="middle" x="297.75" y="-184.25" font-family="Helvetica,sans-Serif" font-size="10.00" fill="grey"> _callback</text>
</g>
<!-- Node12 -->
<g id="Node000012" class="node">
<title>Node12</title>
<g id="a_Node000012"><a xlink:title=" ">
<polygon fill="white" stroke="#666666" points="354.62,-308.75 309.38,-308.75 309.38,-289.5 354.62,-289.5 354.62,-308.75"/>
<text text-anchor="middle" x="332" y="-295.25" font-family="Helvetica,sans-Serif" font-size="10.00">atomic</text>
</a>
</g>
</g>
<!-- Node12&#45;&gt;Node11 -->
<g id="edge12_Node000011_Node000012" class="edge">
<title>Node12&#45;&gt;Node11</title>
<g id="a_edge12_Node000011_Node000012"><a xlink:title=" ">
<path fill="none" stroke="orange" stroke-dasharray="5,2" d="M332,-277.74C332,-264.27 332,-247.26 332,-237.03"/>
<polygon fill="orange" stroke="orange" points="328.5,-277.73 332,-287.73 335.5,-277.73 328.5,-277.73"/>
</a>
</g>
<text text-anchor="middle" x="368" y="-262" font-family="Helvetica,sans-Serif" font-size="10.00" fill="grey"> &lt; std::uintptr_t &gt;</text>
</g>
</g>
</svg>
</svg>

<style type='text/css'>
<![CDATA[
[data-mouse-over-selected='false'] { opacity: 0.7; }
[data-mouse-over-selected='true']  { opacity: 1.0; }
]]>
</style>
<script type="application/ecmascript"><![CDATA[
document.addEventListener('DOMContentLoaded', (event) => {
  highlightEdges();
  highlightAdjacentNodes();
});
]]></script>
</svg>
