<?xml version="1.0" encoding="UTF-8" standalone="no"?>
<!DOCTYPE svg PUBLIC "-//W3C//DTD SVG 1.1//EN"
 "http://www.w3.org/Graphics/SVG/1.1/DTD/svg11.dtd">
<!-- Generated by graphviz version 3.0.0 (20221109.1736)
 -->
<!-- Title: yaclib::detail::MultiEvent&lt; Event, Counter, Callbacks &gt; Pages: 1 -->
<svg width="651pt" height="90pt"
 viewBox="0.00 0.00 651.00 89.50" xmlns="http://www.w3.org/2000/svg" xmlns:xlink="http://www.w3.org/1999/xlink">
<g id="graph0" class="graph" transform="scale(1 1) rotate(0) translate(4 85.5)">
<title>yaclib::detail::MultiEvent&lt; Event, Counter, Callbacks &gt;</title>
<!-- Node1 -->
<g id="node1" class="node">
<title>Node1</title>
<g id="a_node1"><a xlink:title=" ">
<polygon fill="#bfbfbf" stroke="black" points="197,-22.5 197,-52.5 342,-52.5 342,-22.5 197,-22.5"/>
<text text-anchor="start" x="205" y="-40.5" font-family="Helvetica,sans-Serif" font-size="10.00">yaclib::detail::MultiEvent</text>
<text text-anchor="middle" x="269.5" y="-29.5" font-family="Helvetica,sans-Serif" font-size="10.00">&lt; Event, Counter, Callbacks &gt;</text>
</a>
</g>
</g>
<!-- Node4 -->
<g id="node4" class="node">
<title>Node4</title>
<g id="a_node4"><a xlink:href="structyaclib_1_1detail_1_1MultiEvent.html" target="_top" xlink:title=" ">
<polygon fill="none" stroke="black" points="504,-6 504,-69 643,-69 643,-6 504,-6"/>
<text text-anchor="start" x="512" y="-57" font-family="Helvetica,sans-Serif" font-size="10.00">yaclib::detail::MultiEvent</text>
<text text-anchor="start" x="512" y="-46" font-family="Helvetica,sans-Serif" font-size="10.00">&lt; OneShotEvent, yaclib::</text>
<text text-anchor="start" x="512" y="-35" font-family="Helvetica,sans-Serif" font-size="10.00">detail::AtomicCounter, yaclib</text>
<text text-anchor="start" x="512" y="-24" font-family="Helvetica,sans-Serif" font-size="10.00">::detail::CallCallback, yaclib</text>
<text text-anchor="middle" x="573.5" y="-13" font-family="Helvetica,sans-Serif" font-size="10.00">::detail::DropCallback &gt;</text>
</a>
</g>
</g>
<!-- Node1&#45;&gt;Node4 -->
<g id="edge3" class="edge">
<title>Node1&#45;&gt;Node4</title>
<path fill="none" stroke="orange" stroke-dasharray="5,2" d="M352.31,-37.5C399.74,-37.5 458.78,-37.5 503.78,-37.5"/>
<polygon fill="orange" stroke="orange" points="352.07,-34 342.07,-37.5 352.07,-41 352.07,-34"/>
<text text-anchor="start" x="360" y="-73.5" font-family="Helvetica,sans-Serif" font-size="10.00"> &lt; OneShotEvent, yaclib</text>
<text text-anchor="start" x="360" y="-62.5" font-family="Helvetica,sans-Serif" font-size="10.00">::detail::AtomicCounter,</text>
<text text-anchor="start" x="360" y="-51.5" font-family="Helvetica,sans-Serif" font-size="10.00"> yaclib::detail::CallCallback,</text>
<text text-anchor="middle" x="423" y="-40.5" font-family="Helvetica,sans-Serif" font-size="10.00"> yaclib::detail::DropCallback &gt;</text>
</g>
<!-- Node2 -->
<g id="node2" class="node">
<title>Node2</title>
<g id="a_node2"><a xlink:href="classCounter.html" target="_top" xlink:title=" ">
<polygon fill="none" stroke="black" points="8.5,-50 8.5,-69 151.5,-69 151.5,-50 8.5,-50"/>
<text text-anchor="middle" x="80" y="-57" font-family="Helvetica,sans-Serif" font-size="10.00">Counter&lt; Event, SetDeleter &gt;</text>
</a>
</g>
</g>
<!-- Node2&#45;&gt;Node1 -->
<g id="edge1" class="edge">
<title>Node2&#45;&gt;Node1</title>
<path fill="none" stroke="midnightblue" d="M161.74,-50.03C173.37,-48.66 185.26,-47.27 196.7,-45.92"/>
<polygon fill="midnightblue" stroke="midnightblue" points="161.14,-46.57 151.62,-51.21 161.96,-53.52 161.14,-46.57"/>
</g>
<!-- Node3 -->
<g id="node3" class="node">
<title>Node3</title>
<g id="a_node3"><a xlink:href="classCallbacks.html" target="_top" xlink:title=" ">
<polygon fill="none" stroke="black" points="0,-0.5 0,-30.5 160,-30.5 160,-0.5 0,-0.5"/>
<text text-anchor="start" x="8" y="-18.5" font-family="Helvetica,sans-Serif" font-size="10.00">Callbacks&lt; MultiEvent</text>
<text text-anchor="middle" x="80" y="-7.5" font-family="Helvetica,sans-Serif" font-size="10.00">&lt; Event, Counter, Callbacks... &gt; &gt;</text>
</a>
</g>
</g>
<!-- Node3&#45;&gt;Node1 -->
<g id="edge2" class="edge">
<title>Node3&#45;&gt;Node1</title>
<path fill="none" stroke="midnightblue" d="M170.31,-25.98C179.25,-27.03 188.25,-28.08 196.98,-29.11"/>
<polygon fill="midnightblue" stroke="midnightblue" points="170.58,-22.49 160.25,-24.8 169.77,-29.44 170.58,-22.49"/>
</g>
</g>
</svg>
