<?xml version="1.0" encoding="UTF-8" standalone="no"?>
<!DOCTYPE svg PUBLIC "-//W3C//DTD SVG 1.1//EN"
 "http://www.w3.org/Graphics/SVG/1.1/DTD/svg11.dtd">
<!-- Generated by graphviz version 9.0.0 (20230911.1827)
 -->
<!-- Title: yaclib::detail::MultiEvent&lt; Event, Counter, Callbacks &gt; Pages: 1 -->
<svg width="348pt" height="76pt"
 viewBox="0.00 0.00 347.50 75.88" xmlns="http://www.w3.org/2000/svg" xmlns:xlink="http://www.w3.org/1999/xlink">
<g id="graph0" class="graph" transform="scale(1 1) rotate(0) translate(4 71.88)">
<title>yaclib::detail::MultiEvent&lt; Event, Counter, Callbacks &gt;</title>
<!-- Node1 -->
<g id="Node000001" class="node">
<title>Node1</title>
<g id="a_Node000001"><a xlink:title=" ">
<polygon fill="#999999" stroke="#666666" points="339.5,-51.5 195.25,-51.5 195.25,-21 339.5,-21 339.5,-51.5"/>
<text text-anchor="start" x="203.25" y="-38" font-family="Helvetica,sans-Serif" font-size="10.00">yaclib::detail::MultiEvent</text>
<text text-anchor="middle" x="267.38" y="-26.75" font-family="Helvetica,sans-Serif" font-size="10.00">&lt; Event, Counter, Callbacks &gt;</text>
</a>
</g>
</g>
<!-- Node2 -->
<g id="Node000002" class="node">
<title>Node2</title>
<g id="a_Node000002"><a xlink:href="classCounter.html" target="_top" xlink:title=" ">
<polygon fill="white" stroke="#666666" points="150.62,-67.88 8.62,-67.88 8.62,-48.62 150.62,-48.62 150.62,-67.88"/>
<text text-anchor="middle" x="79.62" y="-54.38" font-family="Helvetica,sans-Serif" font-size="10.00">Counter&lt; Event, SetDeleter &gt;</text>
</a>
</g>
</g>
<!-- Node2&#45;&gt;Node1 -->
<g id="edge1_Node000001_Node000002" class="edge">
<title>Node2&#45;&gt;Node1</title>
<g id="a_edge1_Node000001_Node000002"><a xlink:title=" ">
<path fill="none" stroke="#63b8ff" d="M162.35,-48.57C173.23,-47.28 184.32,-45.97 195.01,-44.7"/>
<polygon fill="#63b8ff" stroke="#63b8ff" points="162.14,-45.07 152.62,-49.72 162.96,-52.02 162.14,-45.07"/>
</a>
</g>
</g>
<!-- Node3 -->
<g id="Node000003" class="node">
<title>Node3</title>
<g id="a_Node000003"><a xlink:href="classCallbacks.html" target="_top" xlink:title=" ">
<polygon fill="white" stroke="#666666" points="159.25,-30.5 0,-30.5 0,0 159.25,0 159.25,-30.5"/>
<text text-anchor="start" x="8" y="-17" font-family="Helvetica,sans-Serif" font-size="10.00">Callbacks&lt; MultiEvent</text>
<text text-anchor="middle" x="79.62" y="-5.75" font-family="Helvetica,sans-Serif" font-size="10.00">&lt; Event, Counter, Callbacks... &gt; &gt;</text>
</a>
</g>
</g>
<!-- Node3&#45;&gt;Node1 -->
<g id="edge2_Node000001_Node000003" class="edge">
<title>Node3&#45;&gt;Node1</title>
<g id="a_edge2_Node000001_Node000003"><a xlink:title=" ">
<path fill="none" stroke="#63b8ff" d="M170.93,-25.46C178.93,-26.36 186.95,-27.27 194.76,-28.15"/>
<polygon fill="#63b8ff" stroke="#63b8ff" points="171.5,-22 161.17,-24.36 170.72,-28.96 171.5,-22"/>
</a>
</g>
</g>
</g>
</svg>
