<?xml version="1.0" encoding="UTF-8" standalone="no"?>
<!DOCTYPE svg PUBLIC "-//W3C//DTD SVG 1.1//EN"
 "http://www.w3.org/Graphics/SVG/1.1/DTD/svg11.dtd">
<!-- Generated by graphviz version 9.0.0 (20230911.1827)
 -->
<!-- Title: yaclib::when::CombinatorCallback&lt; Combinator, Core, Index &gt; Pages: 1 -->
<svg width="230pt" height="275pt"
 viewBox="0.00 0.00 230.38 274.75" xmlns="http://www.w3.org/2000/svg" xmlns:xlink="http://www.w3.org/1999/xlink">

<svg id="main" version="1.1" xmlns="http://www.w3.org/2000/svg" xmlns:xlink="http://www.w3.org/1999/xlink" xml:space="preserve" onload="init(evt)">
<style type="text/css"><![CDATA[
.node, .edge {opacity: 0.7;}
.node.selected, .edge.selected {opacity: 1;}
.edge:hover path { stroke: red; }
.edge:hover polygon { stroke: red; fill: red; }
]]></style>
<script type="application/ecmascript" xlink:href="svg.min.js"/>
<svg id="graph" class="graph">
<g id="graph0" class="graph" transform="scale(1 1) rotate(0) translate(4 270.75)">
<title>yaclib::when::CombinatorCallback&lt; Combinator, Core, Index &gt;</title>
<!-- Node1 -->
<g id="Node000001" class="node">
<title>Node1</title>
<g id="a_Node000001"><a xlink:title=" ">
<polygon fill="#999999" stroke="#666666" points="146.25,-41.75 23.75,-41.75 23.75,0 146.25,0 146.25,-41.75"/>
<text text-anchor="start" x="31.75" y="-28.25" font-family="Helvetica,sans-Serif" font-size="10.00">yaclib::when::Combinator</text>
<text text-anchor="start" x="31.75" y="-17" font-family="Helvetica,sans-Serif" font-size="10.00">Callback&lt; Combinator,</text>
<text text-anchor="middle" x="85" y="-5.75" font-family="Helvetica,sans-Serif" font-size="10.00"> Core, Index &gt;</text>
</a>
</g>
</g>
<!-- Node2 -->
<g id="Node000002" class="node">
<title>Node2</title>
<g id="a_Node000002"><a xlink:href="classyaclib_1_1detail_1_1InlineCore.html" target="_top" xlink:title=" ">
<polygon fill="white" stroke="#666666" points="143.25,-98 26.75,-98 26.75,-78.75 143.25,-78.75 143.25,-98"/>
<text text-anchor="middle" x="85" y="-84.5" font-family="Helvetica,sans-Serif" font-size="10.00">yaclib::detail::InlineCore</text>
</a>
</g>
</g>
<!-- Node2&#45;&gt;Node1 -->
<g id="edge1_Node000001_Node000002" class="edge">
<title>Node2&#45;&gt;Node1</title>
<g id="a_edge1_Node000001_Node000002"><a xlink:title=" ">
<path fill="none" stroke="#63b8ff" d="M85,-66.82C85,-58.98 85,-50.04 85,-42.22"/>
<polygon fill="#63b8ff" stroke="#63b8ff" points="81.5,-66.75 85,-76.75 88.5,-66.75 81.5,-66.75"/>
</a>
</g>
</g>
<!-- Node3 -->
<g id="Node000003" class="node">
<title>Node3</title>
<g id="a_Node000003"><a xlink:href="classyaclib_1_1Job.html" target="_top" xlink:title="Callable that can be executed in an IExecutor.">
<polygon fill="white" stroke="#666666" points="115.5,-154.25 54.5,-154.25 54.5,-135 115.5,-135 115.5,-154.25"/>
<text text-anchor="middle" x="85" y="-140.75" font-family="Helvetica,sans-Serif" font-size="10.00">yaclib::Job</text>
</a>
</g>
</g>
<!-- Node3&#45;&gt;Node2 -->
<g id="edge2_Node000002_Node000003" class="edge">
<title>Node3&#45;&gt;Node2</title>
<g id="a_edge2_Node000002_Node000003"><a xlink:title=" ">
<path fill="none" stroke="#63b8ff" d="M85,-123.44C85,-114.73 85,-104.99 85,-98.17"/>
<polygon fill="#63b8ff" stroke="#63b8ff" points="81.5,-123.15 85,-133.15 88.5,-123.15 81.5,-123.15"/>
</a>
</g>
</g>
<!-- Node4 -->
<g id="Node000004" class="node">
<title>Node4</title>
<g id="a_Node000004"><a xlink:href="classyaclib_1_1IFunc.html" target="_top" xlink:title="Callable interface.">
<polygon fill="white" stroke="#666666" points="70,-210.5 0,-210.5 0,-191.25 70,-191.25 70,-210.5"/>
<text text-anchor="middle" x="35" y="-197" font-family="Helvetica,sans-Serif" font-size="10.00">yaclib::IFunc</text>
</a>
</g>
</g>
<!-- Node4&#45;&gt;Node3 -->
<g id="edge3_Node000003_Node000004" class="edge">
<title>Node4&#45;&gt;Node3</title>
<g id="a_edge3_Node000003_Node000004"><a xlink:title=" ">
<path fill="none" stroke="#63b8ff" d="M50.87,-182.65C59.53,-173.26 69.88,-162.03 76.9,-154.42"/>
<polygon fill="#63b8ff" stroke="#63b8ff" points="48.49,-180.08 44.28,-189.8 53.63,-184.82 48.49,-180.08"/>
</a>
</g>
</g>
<!-- Node5 -->
<g id="Node000005" class="node">
<title>Node5</title>
<g id="a_Node000005"><a xlink:href="classyaclib_1_1IRef.html" target="_top" xlink:title="Reference counting interface.">
<polygon fill="white" stroke="#666666" points="66.62,-266.75 3.38,-266.75 3.38,-247.5 66.62,-247.5 66.62,-266.75"/>
<text text-anchor="middle" x="35" y="-253.25" font-family="Helvetica,sans-Serif" font-size="10.00">yaclib::IRef</text>
</a>
</g>
</g>
<!-- Node5&#45;&gt;Node4 -->
<g id="edge4_Node000004_Node000005" class="edge">
<title>Node5&#45;&gt;Node4</title>
<g id="a_edge4_Node000004_Node000005"><a xlink:title=" ">
<path fill="none" stroke="#63b8ff" d="M35,-235.94C35,-227.23 35,-217.49 35,-210.67"/>
<polygon fill="#63b8ff" stroke="#63b8ff" points="31.5,-235.65 35,-245.65 38.5,-235.65 31.5,-235.65"/>
</a>
</g>
</g>
<!-- Node6 -->
<g id="Node000006" class="node">
<title>Node6</title>
<g id="a_Node000006"><a xlink:href="structyaclib_1_1detail_1_1Node.html" target="_top" xlink:title="Node class, used in intrusive data structure.">
<polygon fill="white" stroke="#666666" points="184.12,-210.5 87.88,-210.5 87.88,-191.25 184.12,-191.25 184.12,-210.5"/>
<text text-anchor="middle" x="136" y="-197" font-family="Helvetica,sans-Serif" font-size="10.00">yaclib::detail::Node</text>
</a>
</g>
</g>
<!-- Node6&#45;&gt;Node3 -->
<g id="edge5_Node000003_Node000006" class="edge">
<title>Node6&#45;&gt;Node3</title>
<g id="a_edge5_Node000003_Node000006"><a xlink:title=" ">
<path fill="none" stroke="#63b8ff" d="M119.81,-182.65C110.98,-173.26 100.42,-162.03 93.26,-154.42"/>
<polygon fill="#63b8ff" stroke="#63b8ff" points="117.14,-184.93 126.54,-189.81 122.24,-180.13 117.14,-184.93"/>
</a>
</g>
</g>
<!-- Node6&#45;&gt;Node6 -->
<g id="edge6_Node000006_Node000006" class="edge">
<title>Node6&#45;&gt;Node6</title>
<g id="a_edge6_Node000006_Node000006"><a xlink:title=" ">
<path fill="none" stroke="#9a32cd" stroke-dasharray="5,2" d="M195.57,-204.69C199.65,-203.81 202.12,-202.54 202.12,-200.88 202.12,-197.99 194.71,-196.29 184.44,-195.77"/>
<polygon fill="#9a32cd" stroke="#9a32cd" points="195.47,-201.18 185.94,-205.8 196.28,-208.13 195.47,-201.18"/>
</a>
</g>
<text text-anchor="middle" x="212.25" y="-197" font-family="Helvetica,sans-Serif" font-size="10.00" fill="grey"> next</text>
</g>
</g>
</svg>
</svg>

<style type='text/css'>
<![CDATA[
[data-mouse-over-selected='false'] { opacity: 0.7; }
[data-mouse-over-selected='true']  { opacity: 1.0; }
]]>
</style>
<script type="application/ecmascript"><![CDATA[
document.addEventListener('DOMContentLoaded', (event) => {
  highlightEdges();
  highlightAdjacentNodes();
});
]]></script>
</svg>
