<?xml version="1.0" encoding="UTF-8" standalone="no"?>
<!DOCTYPE svg PUBLIC "-//W3C//DTD SVG 1.1//EN"
 "http://www.w3.org/Graphics/SVG/1.1/DTD/svg11.dtd">
<!-- Generated by graphviz version 9.0.0 (20230911.1827)
 -->
<!-- Title: include/yaclib/fault/detail/fiber/system_clock.hpp Pages: 1 -->
<!--zoomable 382 -->

<svg id="main" version="1.1" xmlns="http://www.w3.org/2000/svg" xmlns:xlink="http://www.w3.org/1999/xlink" xml:space="preserve" onload="init(evt)">
<style type="text/css"><![CDATA[
.node, .edge {opacity: 0.7;}
.node.selected, .edge.selected {opacity: 1;}
.edge:hover path { stroke: red; }
.edge:hover polygon { stroke: red; fill: red; }
]]></style>

<defs>
  <circle id="rim" cx="0" cy="0" r="7"/>
  <circle id="rim2" cx="0" cy="0" r="3.5"/>
  <g id="zoomPlus">
    <use xlink:href="#rim" fill="#404040"><set attributeName="fill" to="#808080" begin="zoomplus.mouseover" end="zoomplus.mouseout"/></use>
    <path d="M-4,0h8M0,-4v8" fill="none" stroke="white" stroke-width="1.5" pointer-events="none"/>
  </g>
  <g id="zoomMin">
    <use xlink:href="#rim" fill="#404040"><set attributeName="fill" to="#808080" begin="zoomminus.mouseover" end="zoomminus.mouseout"/></use>
    <path d="M-4,0h8" fill="none" stroke="white" stroke-width="1.5" pointer-events="none"/>
  </g>
  <g id="arrowUp" transform="translate(30 24)">
    <use xlink:href="#rim"/>
    <path pointer-events="none" fill="none" stroke="white" stroke-width="1.5" d="M0,-3.0v7 M-2.5,-0.5L0,-3.0L2.5,-0.5"/>
  </g>
  <g id="arrowRight" transform="rotate(90) translate(36 -43)">
    <use xlink:href="#rim"/>
    <path pointer-events="none" fill="none" stroke="white" stroke-width="1.5" d="M0,-3.0v7 M-2.5,-0.5L0,-3.0L2.5,-0.5"/>
  </g>
  <g id="arrowDown" transform="rotate(180) translate(-30 -48)">
    <use xlink:href="#rim"/>
    <path pointer-events="none" fill="none" stroke="white" stroke-width="1.5" d="M0,-3.0v7 M-2.5,-0.5L0,-3.0L2.5,-0.5"/>
  </g>
  <g id="arrowLeft" transform="rotate(270) translate(-36 17)">
    <use xlink:href="#rim"/>
    <path pointer-events="none" fill="none" stroke="white" stroke-width="1.5" d="M0,-3.0v7 M-2.5,-0.5L0,-3.0L2.5,-0.5"/>
  </g>
  <g id="resetDef">
    <use xlink:href="#rim2" fill="#404040"><set attributeName="fill" to="#808080" begin="reset.mouseover" end="reset.mouseout"/></use>
  </g>
</defs>
<script type="application/ecmascript">
var viewWidth = 996;
var viewHeight = 382;
var sectionId = 'dynsection-0';
</script>
<script type="application/ecmascript" xlink:href="svg.min.js"/>
<svg id="graph" class="graph">
<g id="viewport">
<title>include/yaclib/fault/detail/fiber/system_clock.hpp</title>
<!-- Node1 -->
<g id="Node000001" class="node">
<title>Node1</title>
<g id="a_Node000001"><a xlink:title=" ">
<polygon fill="#999999" stroke="#666666" points="654.26,-374.25 556.51,-374.25 556.51,-332.5 654.26,-332.5 654.26,-374.25"/>
<text text-anchor="start" x="564.51" y="-360.75" font-family="Helvetica,sans-Serif" font-size="10.00">include/yaclib/fault</text>
<text text-anchor="start" x="564.51" y="-349.5" font-family="Helvetica,sans-Serif" font-size="10.00">/detail/fiber/system</text>
<text text-anchor="middle" x="605.38" y="-338.25" font-family="Helvetica,sans-Serif" font-size="10.00">_clock.hpp</text>
</a>
</g>
</g>
<!-- Node2 -->
<g id="Node000002" class="node">
<title>Node2</title>
<g id="a_Node000002"><a xlink:href="scheduler_8hpp.html" target="_top" xlink:title=" ">
<polygon fill="white" stroke="#666666" points="616.38,-296.5 516.38,-296.5 516.38,-266 616.38,-266 616.38,-296.5"/>
<text text-anchor="start" x="524.38" y="-283" font-family="Helvetica,sans-Serif" font-size="10.00">yaclib/fault/detail</text>
<text text-anchor="middle" x="566.38" y="-271.75" font-family="Helvetica,sans-Serif" font-size="10.00">/fiber/scheduler.hpp</text>
</a>
</g>
</g>
<!-- Node1&#45;&gt;Node2 -->
<g id="edge1_Node000001_Node000002" class="edge">
<title>Node1&#45;&gt;Node2</title>
<g id="a_edge1_Node000001_Node000002"><a xlink:title=" ">
<path fill="none" stroke="#63b8ff" d="M594.1,-332.09C589.67,-324.13 584.55,-314.92 579.93,-306.6"/>
<polygon fill="#63b8ff" stroke="#63b8ff" points="583.07,-305.06 575.16,-298.02 576.96,-308.46 583.07,-305.06"/>
</a>
</g>
</g>
<!-- Node20 -->
<g id="Node000020" class="node">
<title>Node20</title>
<g id="a_Node000020"><a xlink:title=" ">
<polygon fill="#e0e0e0" stroke="#999999" points="983.01,-224.38 937.76,-224.38 937.76,-205.12 983.01,-205.12 983.01,-224.38"/>
<text text-anchor="middle" x="960.38" y="-210.88" font-family="Helvetica,sans-Serif" font-size="10.00">chrono</text>
</a>
</g>
</g>
<!-- Node1&#45;&gt;Node20 -->
<g id="edge33_Node000001_Node000020" class="edge">
<title>Node1&#45;&gt;Node20</title>
<g id="a_edge33_Node000001_Node000020"><a xlink:title=" ">
<path fill="none" stroke="#63b8ff" d="M654.74,-333.38C728.07,-305.16 863.87,-252.89 926.78,-228.68"/>
<polygon fill="#63b8ff" stroke="#63b8ff" points="927.81,-232.04 935.88,-225.18 925.29,-225.5 927.81,-232.04"/>
</a>
</g>
</g>
<!-- Node3 -->
<g id="Node000003" class="node">
<title>Node3</title>
<g id="a_Node000003"><a xlink:href="default__allocator_8hpp.html" target="_top" xlink:title=" ">
<polygon fill="white" stroke="#666666" points="296.01,-157.88 166.76,-157.88 166.76,-127.38 296.01,-127.38 296.01,-157.88"/>
<text text-anchor="start" x="174.76" y="-144.38" font-family="Helvetica,sans-Serif" font-size="10.00">yaclib/fault/detail</text>
<text text-anchor="middle" x="231.38" y="-133.12" font-family="Helvetica,sans-Serif" font-size="10.00">/fiber/default_allocator.hpp</text>
</a>
</g>
</g>
<!-- Node2&#45;&gt;Node3 -->
<g id="edge2_Node000002_Node000003" class="edge">
<title>Node2&#45;&gt;Node3</title>
<g id="a_edge2_Node000002_Node000003"><a xlink:title=" ">
<path fill="none" stroke="#63b8ff" d="M548.93,-265.69C521.38,-242.74 470.69,-200.62 468.38,-199.5 401.27,-166.86 376.85,-181.31 304.38,-163.5 301.44,-162.78 298.42,-162.02 295.39,-161.24"/>
<polygon fill="#63b8ff" stroke="#63b8ff" points="296.35,-157.88 285.8,-158.75 294.59,-164.66 296.35,-157.88"/>
</a>
</g>
</g>
<!-- Node4 -->
<g id="Node000004" class="node">
<title>Node4</title>
<g id="a_Node000004"><a xlink:href="stack__allocator_8hpp.html" target="_top" xlink:title=" ">
<polygon fill="white" stroke="#666666" points="912.38,-85.75 788.38,-85.75 788.38,-55.25 912.38,-55.25 912.38,-85.75"/>
<text text-anchor="start" x="796.38" y="-72.25" font-family="Helvetica,sans-Serif" font-size="10.00">yaclib/fault/detail</text>
<text text-anchor="middle" x="850.38" y="-61" font-family="Helvetica,sans-Serif" font-size="10.00">/fiber/stack_allocator.hpp</text>
</a>
</g>
</g>
<!-- Node2&#45;&gt;Node4 -->
<g id="edge27_Node000002_Node000004" class="edge">
<title>Node2&#45;&gt;Node4</title>
<g id="a_edge27_Node000002_Node000004"><a xlink:title=" ">
<path fill="none" stroke="#63b8ff" d="M616.78,-274.33C680.43,-263.96 788.04,-236.14 841.38,-163.5 855.23,-144.65 856.23,-117.44 854.52,-97.5"/>
<polygon fill="#63b8ff" stroke="#63b8ff" points="858,-97.2 853.37,-87.67 851.05,-98.01 858,-97.2"/>
</a>
</g>
</g>
<!-- Node6 -->
<g id="Node000006" class="node">
<title>Node6</title>
<g id="a_Node000006"><a xlink:href="log_8hpp.html" target="_top" xlink:title=" ">
<polygon fill="white" stroke="#666666" points="99.63,-80.12 25.13,-80.12 25.13,-60.88 99.63,-60.88 99.63,-80.12"/>
<text text-anchor="middle" x="62.38" y="-66.62" font-family="Helvetica,sans-Serif" font-size="10.00">yaclib/log.hpp</text>
</a>
</g>
</g>
<!-- Node2&#45;&gt;Node6 -->
<g id="edge30_Node000002_Node000006" class="edge">
<title>Node2&#45;&gt;Node6</title>
<g id="a_edge30_Node000002_Node000006"><a xlink:title=" ">
<path fill="none" stroke="#63b8ff" d="M516.18,-277.68C391,-270.09 70.52,-243.13 7.38,-163.5 -4.15,-148.96 -0.1,-138.73 7.38,-121.75 13.62,-107.6 26.02,-95.71 37.47,-87.05"/>
<polygon fill="#63b8ff" stroke="#63b8ff" points="39.3,-90.05 45.48,-81.43 35.28,-84.32 39.3,-90.05"/>
</a>
</g>
</g>
<!-- Node10 -->
<g id="Node000010" class="node">
<title>Node10</title>
<g id="a_Node000010"><a xlink:href="fiber__base_8hpp.html" target="_top" xlink:title=" ">
<polygon fill="white" stroke="#666666" points="617.51,-230 515.26,-230 515.26,-199.5 617.51,-199.5 617.51,-230"/>
<text text-anchor="start" x="523.26" y="-216.5" font-family="Helvetica,sans-Serif" font-size="10.00">yaclib/fault/detail</text>
<text text-anchor="middle" x="566.38" y="-205.25" font-family="Helvetica,sans-Serif" font-size="10.00">/fiber/fiber_base.hpp</text>
</a>
</g>
</g>
<!-- Node2&#45;&gt;Node10 -->
<g id="edge9_Node000002_Node000010" class="edge">
<title>Node2&#45;&gt;Node10</title>
<g id="a_edge9_Node000002_Node000010"><a xlink:title=" ">
<path fill="none" stroke="#63b8ff" d="M566.38,-265.61C566.38,-258.52 566.38,-249.79 566.38,-241.63"/>
<polygon fill="#63b8ff" stroke="#63b8ff" points="569.88,-241.84 566.38,-231.84 562.88,-241.84 569.88,-241.84"/>
</a>
</g>
</g>
<!-- Node15 -->
<g id="Node000015" class="node">
<title>Node15</title>
<g id="a_Node000015"><a xlink:href="stack_8hpp.html" target="_top" xlink:title=" ">
<polygon fill="white" stroke="#666666" points="987.76,-157.88 899.01,-157.88 899.01,-127.38 987.76,-127.38 987.76,-157.88"/>
<text text-anchor="start" x="907.01" y="-144.38" font-family="Helvetica,sans-Serif" font-size="10.00">yaclib/fault/detail</text>
<text text-anchor="middle" x="943.38" y="-133.12" font-family="Helvetica,sans-Serif" font-size="10.00">/fiber/stack.hpp</text>
</a>
</g>
</g>
<!-- Node2&#45;&gt;Node15 -->
<g id="edge26_Node000002_Node000015" class="edge">
<title>Node2&#45;&gt;Node15</title>
<g id="a_edge26_Node000002_Node000015"><a xlink:title=" ">
<path fill="none" stroke="#63b8ff" d="M616.61,-277.21C694.94,-271.68 841.72,-257.85 885.38,-230 908.02,-215.56 923.92,-188.77 933.28,-168.83"/>
<polygon fill="#63b8ff" stroke="#63b8ff" points="936.48,-170.26 937.31,-159.7 930.07,-167.43 936.48,-170.26"/>
</a>
</g>
</g>
<!-- Node19 -->
<g id="Node000019" class="node">
<title>Node19</title>
<g id="a_Node000019"><a xlink:href="inject_8hpp.html" target="_top" xlink:title=" ">
<polygon fill="white" stroke="#666666" points="459.76,-224.38 353.01,-224.38 353.01,-205.12 459.76,-205.12 459.76,-224.38"/>
<text text-anchor="middle" x="406.38" y="-210.88" font-family="Helvetica,sans-Serif" font-size="10.00">yaclib/fault/inject.hpp</text>
</a>
</g>
</g>
<!-- Node2&#45;&gt;Node19 -->
<g id="edge28_Node000002_Node000019" class="edge">
<title>Node2&#45;&gt;Node19</title>
<g id="a_edge28_Node000002_Node000019"><a xlink:title=" ">
<path fill="none" stroke="#63b8ff" d="M530.08,-265.61C502.81,-254.62 465.77,-239.69 439.35,-229.04"/>
<polygon fill="#63b8ff" stroke="#63b8ff" points="440.72,-225.82 430.14,-225.33 438.1,-232.31 440.72,-225.82"/>
</a>
</g>
</g>
<!-- Node2&#45;&gt;Node20 -->
<g id="edge31_Node000002_Node000020" class="edge">
<title>Node2&#45;&gt;Node20</title>
<g id="a_edge31_Node000002_Node000020"><a xlink:title=" ">
<path fill="none" stroke="#63b8ff" d="M616.76,-276.79C686.54,-271.18 816.15,-257.81 923.38,-230 925.13,-229.55 926.91,-229.04 928.7,-228.49"/>
<polygon fill="#63b8ff" stroke="#63b8ff" points="929.79,-231.81 938.09,-225.23 927.5,-225.2 929.79,-231.81"/>
</a>
</g>
</g>
<!-- Node21 -->
<g id="Node000021" class="node">
<title>Node21</title>
<g id="a_Node000021"><a xlink:title=" ">
<polygon fill="#e0e0e0" stroke="#999999" points="334.76,-224.38 300.01,-224.38 300.01,-205.12 334.76,-205.12 334.76,-224.38"/>
<text text-anchor="middle" x="317.38" y="-210.88" font-family="Helvetica,sans-Serif" font-size="10.00">map</text>
</a>
</g>
</g>
<!-- Node2&#45;&gt;Node21 -->
<g id="edge32_Node000002_Node000021" class="edge">
<title>Node2&#45;&gt;Node21</title>
<g id="a_edge32_Node000002_Node000021"><a xlink:title=" ">
<path fill="none" stroke="#63b8ff" d="M515.92,-272.73C470.21,-265 401.46,-251.1 344.38,-230 343.9,-229.82 343.41,-229.63 342.92,-229.44"/>
<polygon fill="#63b8ff" stroke="#63b8ff" points="344.69,-226.4 334.14,-225.39 341.76,-232.76 344.69,-226.4"/>
</a>
</g>
</g>
<!-- Node3&#45;&gt;Node4 -->
<g id="edge3_Node000003_Node000004" class="edge">
<title>Node3&#45;&gt;Node4</title>
<g id="a_edge3_Node000003_Node000004"><a xlink:title=" ">
<path fill="none" stroke="#63b8ff" d="M280.18,-126.97C288.21,-124.96 296.49,-123.11 304.38,-121.75 511.7,-85.95 567.86,-113.69 776.38,-85.75 776.5,-85.73 776.62,-85.72 776.74,-85.7"/>
<polygon fill="#63b8ff" stroke="#63b8ff" points="777.01,-89.2 786.39,-84.28 775.99,-82.28 777.01,-89.2"/>
</a>
</g>
</g>
<!-- Node3&#45;&gt;Node6 -->
<g id="edge5_Node000003_Node000006" class="edge">
<title>Node3&#45;&gt;Node6</title>
<g id="a_edge5_Node000003_Node000006"><a xlink:title=" ">
<path fill="none" stroke="#63b8ff" d="M195.96,-126.92C166.09,-114.53 123.7,-96.94 94.74,-84.93"/>
<polygon fill="#63b8ff" stroke="#63b8ff" points="96.33,-81.79 85.75,-81.19 93.64,-88.26 96.33,-81.79"/>
</a>
</g>
</g>
<!-- Node8 -->
<g id="Node000008" class="node">
<title>Node8</title>
<g id="a_Node000008"><a xlink:title=" ">
<polygon fill="#e0e0e0" stroke="#999999" points="163.01,-80.12 117.76,-80.12 117.76,-60.88 163.01,-60.88 163.01,-80.12"/>
<text text-anchor="middle" x="140.38" y="-66.62" font-family="Helvetica,sans-Serif" font-size="10.00">cstdint</text>
</a>
</g>
</g>
<!-- Node3&#45;&gt;Node8 -->
<g id="edge7_Node000003_Node000008" class="edge">
<title>Node3&#45;&gt;Node8</title>
<g id="a_edge7_Node000003_Node000008"><a xlink:title=" ">
<path fill="none" stroke="#63b8ff" d="M212.53,-127.1C197.44,-115.47 176.31,-99.19 160.82,-87.25"/>
<polygon fill="#63b8ff" stroke="#63b8ff" points="163.26,-84.71 153.21,-81.38 158.99,-90.26 163.26,-84.71"/>
</a>
</g>
</g>
<!-- Node9 -->
<g id="Node000009" class="node">
<title>Node9</title>
<g id="a_Node000009"><a xlink:title=" ">
<polygon fill="#e0e0e0" stroke="#999999" points="252.88,-80.12 209.88,-80.12 209.88,-60.88 252.88,-60.88 252.88,-80.12"/>
<text text-anchor="middle" x="231.38" y="-66.62" font-family="Helvetica,sans-Serif" font-size="10.00">vector</text>
</a>
</g>
</g>
<!-- Node3&#45;&gt;Node9 -->
<g id="edge8_Node000003_Node000009" class="edge">
<title>Node3&#45;&gt;Node9</title>
<g id="a_edge8_Node000003_Node000009"><a xlink:title=" ">
<path fill="none" stroke="#63b8ff" d="M231.38,-127.1C231.38,-116.84 231.38,-102.95 231.38,-91.63"/>
<polygon fill="#63b8ff" stroke="#63b8ff" points="234.88,-91.77 231.38,-81.77 227.88,-91.77 234.88,-91.77"/>
</a>
</g>
</g>
<!-- Node5 -->
<g id="Node000005" class="node">
<title>Node5</title>
<g id="a_Node000005"><a xlink:title=" ">
<polygon fill="#e0e0e0" stroke="#999999" points="919.51,-19.25 871.26,-19.25 871.26,0 919.51,0 919.51,-19.25"/>
<text text-anchor="middle" x="895.38" y="-5.75" font-family="Helvetica,sans-Serif" font-size="10.00">cstddef</text>
</a>
</g>
</g>
<!-- Node4&#45;&gt;Node5 -->
<g id="edge4_Node000004_Node000005" class="edge">
<title>Node4&#45;&gt;Node5</title>
<g id="a_edge4_Node000004_Node000005"><a xlink:title=" ">
<path fill="none" stroke="#63b8ff" d="M861.51,-54.95C867.57,-47.02 875.12,-37.13 881.56,-28.71"/>
<polygon fill="#63b8ff" stroke="#63b8ff" points="884.23,-30.97 887.53,-20.9 878.67,-26.72 884.23,-30.97"/>
</a>
</g>
</g>
<!-- Node7 -->
<g id="Node000007" class="node">
<title>Node7</title>
<g id="a_Node000007"><a xlink:title=" ">
<polygon fill="#e0e0e0" stroke="#999999" points="95.13,-19.25 29.63,-19.25 29.63,0 95.13,0 95.13,-19.25"/>
<text text-anchor="middle" x="62.38" y="-5.75" font-family="Helvetica,sans-Serif" font-size="10.00">string_view</text>
</a>
</g>
</g>
<!-- Node6&#45;&gt;Node7 -->
<g id="edge6_Node000006_Node000007" class="edge">
<title>Node6&#45;&gt;Node7</title>
<g id="a_edge6_Node000006_Node000007"><a xlink:title=" ">
<path fill="none" stroke="#63b8ff" d="M62.38,-60.56C62.38,-52.78 62.38,-41.2 62.38,-31.16"/>
<polygon fill="#63b8ff" stroke="#63b8ff" points="65.88,-31.16 62.38,-21.16 58.88,-31.16 65.88,-31.16"/>
</a>
</g>
</g>
<!-- Node10&#45;&gt;Node3 -->
<g id="edge14_Node000010_Node000003" class="edge">
<title>Node10&#45;&gt;Node3</title>
<g id="a_edge14_Node000010_Node000003"><a xlink:title=" ">
<path fill="none" stroke="#63b8ff" d="M514.97,-202.3C510.38,-201.34 505.8,-200.39 501.38,-199.5 414.12,-181.97 391.18,-183.21 304.38,-163.5 301.03,-162.74 297.6,-161.93 294.15,-161.08"/>
<polygon fill="#63b8ff" stroke="#63b8ff" points="295.11,-157.71 284.56,-158.66 293.4,-164.5 295.11,-157.71"/>
</a>
</g>
</g>
<!-- Node10&#45;&gt;Node4 -->
<g id="edge22_Node000010_Node000004" class="edge">
<title>Node10&#45;&gt;Node4</title>
<g id="a_edge22_Node000010_Node000004"><a xlink:title=" ">
<path fill="none" stroke="#63b8ff" d="M617.96,-209.1C681.67,-202.38 785.21,-188.02 814.38,-163.5 834.03,-146.99 843.01,-118.35 847.08,-97.4"/>
<polygon fill="#63b8ff" stroke="#63b8ff" points="850.52,-98.03 848.7,-87.6 843.62,-96.89 850.52,-98.03"/>
</a>
</g>
</g>
<!-- Node11 -->
<g id="Node000011" class="node">
<title>Node11</title>
<g id="a_Node000011"><a xlink:title=" ">
<polygon fill="#e0e0e0" stroke="#999999" points="599.01,-80.12 511.76,-80.12 511.76,-60.88 599.01,-60.88 599.01,-80.12"/>
<text text-anchor="middle" x="555.38" y="-66.62" font-family="Helvetica,sans-Serif" font-size="10.00">yaclib/config.hpp</text>
</a>
</g>
</g>
<!-- Node10&#45;&gt;Node11 -->
<g id="edge10_Node000010_Node000011" class="edge">
<title>Node10&#45;&gt;Node11</title>
<g id="a_edge10_Node000010_Node000011"><a xlink:title=" ">
<path fill="none" stroke="#63b8ff" d="M525.98,-199.21C510.06,-191.26 493.44,-179.67 484.38,-163.5 475.32,-147.31 475.86,-138.23 484.38,-121.75 492.61,-105.84 508.46,-93.88 523.1,-85.64"/>
<polygon fill="#63b8ff" stroke="#63b8ff" points="524.34,-88.94 531.59,-81.21 521.11,-82.73 524.34,-88.94"/>
</a>
</g>
</g>
<!-- Node12 -->
<g id="Node000012" class="node">
<title>Node12</title>
<g id="a_Node000012"><a xlink:href="bidirectional__intrusive__list_8hpp.html" target="_top" xlink:title=" ">
<polygon fill="white" stroke="#666666" points="110.38,-163.5 16.38,-163.5 16.38,-121.75 110.38,-121.75 110.38,-163.5"/>
<text text-anchor="start" x="24.38" y="-150" font-family="Helvetica,sans-Serif" font-size="10.00">yaclib/fault/detail</text>
<text text-anchor="start" x="24.38" y="-138.75" font-family="Helvetica,sans-Serif" font-size="10.00">/fiber/bidirectional</text>
<text text-anchor="middle" x="63.38" y="-127.5" font-family="Helvetica,sans-Serif" font-size="10.00">_intrusive_list.hpp</text>
</a>
</g>
</g>
<!-- Node10&#45;&gt;Node12 -->
<g id="edge11_Node000010_Node000012" class="edge">
<title>Node10&#45;&gt;Node12</title>
<g id="a_edge11_Node000010_Node000012"><a xlink:title=" ">
<path fill="none" stroke="#63b8ff" d="M514.8,-205.96C499.84,-203.78 483.47,-201.47 468.38,-199.5 330.41,-181.49 294.71,-185.92 157.38,-163.5 145.78,-161.61 133.44,-159.25 121.65,-156.83"/>
<polygon fill="#63b8ff" stroke="#63b8ff" points="122.55,-153.44 112.04,-154.81 121.11,-160.29 122.55,-153.44"/>
</a>
</g>
</g>
<!-- Node13 -->
<g id="Node000013" class="node">
<title>Node13</title>
<g id="a_Node000013"><a xlink:href="execution__context_8hpp.html" target="_top" xlink:title=" ">
<polygon fill="white" stroke="#666666" points="805.38,-157.88 669.38,-157.88 669.38,-127.38 805.38,-127.38 805.38,-157.88"/>
<text text-anchor="start" x="677.38" y="-144.38" font-family="Helvetica,sans-Serif" font-size="10.00">yaclib/fault/detail</text>
<text text-anchor="middle" x="737.38" y="-133.12" font-family="Helvetica,sans-Serif" font-size="10.00">/fiber/execution_context.hpp</text>
</a>
</g>
</g>
<!-- Node10&#45;&gt;Node13 -->
<g id="edge15_Node000010_Node000013" class="edge">
<title>Node10&#45;&gt;Node13</title>
<g id="a_edge15_Node000010_Node000013"><a xlink:title=" ">
<path fill="none" stroke="#63b8ff" d="M602.23,-199.05C628.11,-188.44 663.27,-174.02 691.25,-162.54"/>
<polygon fill="#63b8ff" stroke="#63b8ff" points="692.26,-165.91 700.18,-158.88 689.6,-159.44 692.26,-165.91"/>
</a>
</g>
</g>
<!-- Node10&#45;&gt;Node15 -->
<g id="edge19_Node000010_Node000015" class="edge">
<title>Node10&#45;&gt;Node15</title>
<g id="a_edge19_Node000010_Node000015"><a xlink:title=" ">
<path fill="none" stroke="#63b8ff" d="M617.99,-204.95C674.42,-195.24 767.46,-178.92 847.38,-163.5 860.57,-160.96 874.75,-158.09 888.05,-155.35"/>
<polygon fill="#63b8ff" stroke="#63b8ff" points="888.42,-158.85 897.5,-153.39 887,-151.99 888.42,-158.85"/>
</a>
</g>
</g>
<!-- Node16 -->
<g id="Node000016" class="node">
<title>Node16</title>
<g id="a_Node000016"><a xlink:href="wakeup__helper_8hpp.html" target="_top" xlink:title=" ">
<polygon fill="white" stroke="#666666" points="437.01,-157.88 313.76,-157.88 313.76,-127.38 437.01,-127.38 437.01,-157.88"/>
<text text-anchor="start" x="321.76" y="-144.38" font-family="Helvetica,sans-Serif" font-size="10.00">yaclib/fault/detail</text>
<text text-anchor="middle" x="375.38" y="-133.12" font-family="Helvetica,sans-Serif" font-size="10.00">/fiber/wakeup_helper.hpp</text>
</a>
</g>
</g>
<!-- Node10&#45;&gt;Node16 -->
<g id="edge23_Node000010_Node000016" class="edge">
<title>Node10&#45;&gt;Node16</title>
<g id="a_edge23_Node000010_Node000016"><a xlink:title=" ">
<path fill="none" stroke="#63b8ff" d="M526.34,-199.05C497.18,-188.34 457.47,-173.76 426.09,-162.24"/>
<polygon fill="#63b8ff" stroke="#63b8ff" points="427.38,-158.99 416.79,-158.83 424.97,-165.56 427.38,-158.99"/>
</a>
</g>
</g>
<!-- Node17 -->
<g id="Node000017" class="node">
<title>Node17</title>
<g id="a_Node000017"><a xlink:title=" ">
<polygon fill="#e0e0e0" stroke="#999999" points="551.01,-152.25 493.76,-152.25 493.76,-133 551.01,-133 551.01,-152.25"/>
<text text-anchor="middle" x="522.38" y="-138.75" font-family="Helvetica,sans-Serif" font-size="10.00">exception</text>
</a>
</g>
</g>
<!-- Node10&#45;&gt;Node17 -->
<g id="edge24_Node000010_Node000017" class="edge">
<title>Node10&#45;&gt;Node17</title>
<g id="a_edge24_Node000010_Node000017"><a xlink:title=" ">
<path fill="none" stroke="#63b8ff" d="M557.27,-199.22C550.48,-188.41 541.18,-173.58 533.88,-161.95"/>
<polygon fill="#63b8ff" stroke="#63b8ff" points="536.96,-160.27 528.68,-153.66 531.03,-164 536.96,-160.27"/>
</a>
</g>
</g>
<!-- Node18 -->
<g id="Node000018" class="node">
<title>Node18</title>
<g id="a_Node000018"><a xlink:title=" ">
<polygon fill="#e0e0e0" stroke="#999999" points="651.76,-152.25 569.01,-152.25 569.01,-133 651.76,-133 651.76,-152.25"/>
<text text-anchor="middle" x="610.38" y="-138.75" font-family="Helvetica,sans-Serif" font-size="10.00">unordered_map</text>
</a>
</g>
</g>
<!-- Node10&#45;&gt;Node18 -->
<g id="edge25_Node000010_Node000018" class="edge">
<title>Node10&#45;&gt;Node18</title>
<g id="a_edge25_Node000010_Node000018"><a xlink:title=" ">
<path fill="none" stroke="#63b8ff" d="M575.5,-199.22C582.28,-188.41 591.59,-173.58 598.89,-161.95"/>
<polygon fill="#63b8ff" stroke="#63b8ff" points="601.73,-164 604.08,-153.66 595.8,-160.27 601.73,-164"/>
</a>
</g>
</g>
<!-- Node12&#45;&gt;Node6 -->
<g id="edge12_Node000012_Node000006" class="edge">
<title>Node12&#45;&gt;Node6</title>
<g id="a_edge12_Node000012_Node000006"><a xlink:title=" ">
<path fill="none" stroke="#63b8ff" d="M63.09,-121.34C62.96,-112 62.8,-100.94 62.67,-91.62"/>
<polygon fill="#63b8ff" stroke="#63b8ff" points="66.17,-91.76 62.53,-81.81 59.17,-91.86 66.17,-91.76"/>
</a>
</g>
</g>
<!-- Node12&#45;&gt;Node8 -->
<g id="edge13_Node000012_Node000008" class="edge">
<title>Node12&#45;&gt;Node8</title>
<g id="a_edge13_Node000012_Node000008"><a xlink:title=" ">
<path fill="none" stroke="#63b8ff" d="M85.65,-121.34C97.31,-110.72 111.4,-97.89 122.37,-87.91"/>
<polygon fill="#63b8ff" stroke="#63b8ff" points="124.56,-90.64 129.6,-81.32 119.85,-85.47 124.56,-90.64"/>
</a>
</g>
</g>
<!-- Node13&#45;&gt;Node4 -->
<g id="edge17_Node000013_Node000004" class="edge">
<title>Node13&#45;&gt;Node4</title>
<g id="a_edge17_Node000013_Node000004"><a xlink:title=" ">
<path fill="none" stroke="#63b8ff" d="M761.07,-126.92C777.34,-116.83 799.17,-103.28 817.18,-92.11"/>
<polygon fill="#63b8ff" stroke="#63b8ff" points="818.79,-95.23 825.44,-86.98 815.1,-89.28 818.79,-95.23"/>
</a>
</g>
</g>
<!-- Node13&#45;&gt;Node11 -->
<g id="edge16_Node000013_Node000011" class="edge">
<title>Node13&#45;&gt;Node11</title>
<g id="a_edge16_Node000013_Node000011"><a xlink:title=" ">
<path fill="none" stroke="#63b8ff" d="M699.23,-126.92C666.78,-114.42 620.62,-96.63 589.41,-84.61"/>
<polygon fill="#63b8ff" stroke="#63b8ff" points="591.04,-81.49 580.45,-81.16 588.52,-88.02 591.04,-81.49"/>
</a>
</g>
</g>
<!-- Node14 -->
<g id="Node000014" class="node">
<title>Node14</title>
<g id="a_Node000014"><a xlink:title=" ">
<polygon fill="#e0e0e0" stroke="#999999" points="767.51,-80.12 707.26,-80.12 707.26,-60.88 767.51,-60.88 767.51,-80.12"/>
<text text-anchor="middle" x="737.38" y="-66.62" font-family="Helvetica,sans-Serif" font-size="10.00">ucontext.h</text>
</a>
</g>
</g>
<!-- Node13&#45;&gt;Node14 -->
<g id="edge18_Node000013_Node000014" class="edge">
<title>Node13&#45;&gt;Node14</title>
<g id="a_edge18_Node000013_Node000014"><a xlink:title=" ">
<path fill="none" stroke="#63b8ff" d="M737.38,-127.1C737.38,-116.84 737.38,-102.95 737.38,-91.63"/>
<polygon fill="#63b8ff" stroke="#63b8ff" points="740.88,-91.77 737.38,-81.77 733.88,-91.77 740.88,-91.77"/>
</a>
</g>
</g>
<!-- Node15&#45;&gt;Node4 -->
<g id="edge20_Node000015_Node000004" class="edge">
<title>Node15&#45;&gt;Node4</title>
<g id="a_edge20_Node000015_Node000004"><a xlink:title=" ">
<path fill="none" stroke="#63b8ff" d="M924.11,-127.1C911.02,-117.22 893.48,-104 878.79,-92.92"/>
<polygon fill="#63b8ff" stroke="#63b8ff" points="880.93,-90.15 870.84,-86.92 876.71,-95.74 880.93,-90.15"/>
</a>
</g>
</g>
<!-- Node15&#45;&gt;Node5 -->
<g id="edge21_Node000015_Node000005" class="edge">
<title>Node15&#45;&gt;Node5</title>
<g id="a_edge21_Node000015_Node000005"><a xlink:title=" ">
<path fill="none" stroke="#63b8ff" d="M940.98,-127.17C937.78,-109.7 931.35,-79.6 921.38,-55.25 917.69,-46.24 912.45,-36.84 907.64,-29"/>
<polygon fill="#63b8ff" stroke="#63b8ff" points="910.7,-27.28 902.35,-20.75 904.8,-31.06 910.7,-27.28"/>
</a>
</g>
</g>
<!-- Node19&#45;&gt;Node8 -->
<g id="edge29_Node000019_Node000008" class="edge">
<title>Node19&#45;&gt;Node8</title>
<g id="a_edge29_Node000019_Node000008"><a xlink:title=" ">
<path fill="none" stroke="#63b8ff" d="M367.1,-204.67C359.26,-202.91 351.07,-201.11 343.38,-199.5 260.98,-182.21 216.67,-223.29 157.38,-163.5 138.82,-144.78 136.96,-112.81 138.09,-91.92"/>
<polygon fill="#63b8ff" stroke="#63b8ff" points="141.57,-92.34 138.92,-82.07 134.59,-91.74 141.57,-92.34"/>
</a>
</g>
</g>
</g>
</svg>

<g id="navigator" transform="translate(0 0)" fill="#404254">
  <rect fill="#f2f5e9" fill-opacity="0.5" stroke="#606060" stroke-width=".5" x="0" y="0" width="60" height="60"/>
  <use id="zoomplus" xlink:href="#zoomPlus" x="17" y="9" onmousedown="handleZoom(evt,'in')"/>
  <use id="zoomminus" xlink:href="#zoomMin" x="42" y="9" onmousedown="handleZoom(evt,'out')"/>
  <use id="reset" xlink:href="#resetDef" x="30" y="36" onmousedown="handleReset()"/>
   <use id="arrowup" xlink:href="#arrowUp" x="0" y="0" onmousedown="handlePan(0,-1)"/>
  <use id="arrowright" xlink:href="#arrowRight" x="0" y="0" onmousedown="handlePan(1,0)"/>
  <use id="arrowdown" xlink:href="#arrowDown" x="0" y="0" onmousedown="handlePan(0,1)"/>
  <use id="arrowleft" xlink:href="#arrowLeft" x="0" y="0" onmousedown="handlePan(-1,0)"/>
</g>
<svg viewBox="0 0 15 15" width="100%" height="30px" preserveAspectRatio="xMaxYMin meet">
 <g id="arrow_out" transform="scale(0.3 0.3)">
  <a xlink:href="system__clock_8hpp__incl_org.svg" target="_base">
   <rect id="button" ry="5" rx="5" y="6" x="6" height="38" width="38"
        fill="#f2f5e9" fill-opacity="0.5" stroke="#606060" stroke-width="1.0"/>
   <path id="arrow"
     d="M 11.500037,31.436501 C 11.940474,20.09759 22.043105,11.32322 32.158766,21.979434 L 37.068811,17.246167 C 37.068811,17.246167 37.088388,32 37.088388,32 L 22.160133,31.978069 C 22.160133,31.978069 26.997745,27.140456 26.997745,27.140456 C 18.528582,18.264221 13.291696,25.230495 11.500037,31.436501 z"
     style="fill:#404040;"/>
  </a>
 </g>
</svg>

<style type='text/css'>
<![CDATA[
[data-mouse-over-selected='false'] { opacity: 0.7; }
[data-mouse-over-selected='true']  { opacity: 1.0; }
]]>
</style>
<script type="application/ecmascript"><![CDATA[
document.addEventListener('DOMContentLoaded', (event) => {
  highlightEdges();
  highlightAdjacentNodes();
});
]]></script>
</svg>
