<?xml version="1.0" encoding="UTF-8" standalone="no"?>
<!DOCTYPE svg PUBLIC "-//W3C//DTD SVG 1.1//EN"
 "http://www.w3.org/Graphics/SVG/1.1/DTD/svg11.dtd">
<!-- Generated by graphviz version 9.0.0 (20230911.1827)
 -->
<!-- Title: include/yaclib/fault/detail/fiber/system_clock.hpp Pages: 1 -->
<svg width="1287pt" height="338pt"
 viewBox="0.00 0.00 1286.88 338.25" xmlns="http://www.w3.org/2000/svg" xmlns:xlink="http://www.w3.org/1999/xlink">
<g id="graph0" class="graph" transform="scale(1 1) rotate(0) translate(4 334.25)">
<title>include/yaclib/fault/detail/fiber/system_clock.hpp</title>
<!-- Node1 -->
<g id="Node000001" class="node">
<title>Node1</title>
<g id="a_Node000001"><a xlink:title=" ">
<polygon fill="#999999" stroke="#666666" points="869.62,-330.25 771.88,-330.25 771.88,-288.5 869.62,-288.5 869.62,-330.25"/>
<text text-anchor="start" x="779.88" y="-316.75" font-family="Helvetica,sans-Serif" font-size="10.00">include/yaclib/fault</text>
<text text-anchor="start" x="779.88" y="-305.5" font-family="Helvetica,sans-Serif" font-size="10.00">/detail/fiber/system</text>
<text text-anchor="middle" x="820.75" y="-294.25" font-family="Helvetica,sans-Serif" font-size="10.00">_clock.hpp</text>
</a>
</g>
</g>
<!-- Node2 -->
<g id="Node000002" class="node">
<title>Node2</title>
<g id="a_Node000002"><a xlink:href="queue_8hpp.html" target="_top" xlink:title=" ">
<polygon fill="white" stroke="#666666" points="813,-252.5 702.5,-252.5 702.5,-222 813,-222 813,-252.5"/>
<text text-anchor="start" x="710.5" y="-239" font-family="Helvetica,sans-Serif" font-size="10.00">include/yaclib/fault</text>
<text text-anchor="middle" x="757.75" y="-227.75" font-family="Helvetica,sans-Serif" font-size="10.00">/detail/fiber/queue.hpp</text>
</a>
</g>
</g>
<!-- Node1&#45;&gt;Node2 -->
<g id="edge1_Node000001_Node000002" class="edge">
<title>Node1&#45;&gt;Node2</title>
<g id="a_edge1_Node000001_Node000002"><a xlink:title=" ">
<path fill="none" stroke="#63b8ff" d="M795.07,-279.79C786.7,-270.48 777.76,-260.53 770.73,-252.7"/>
<polygon fill="#63b8ff" stroke="#63b8ff" points="792.23,-281.87 801.52,-286.97 797.44,-277.19 792.23,-281.87"/>
</a>
</g>
</g>
<!-- Node20 -->
<g id="Node000020" class="node">
<title>Node20</title>
<g id="a_Node000020"><a xlink:href="system__clock_8cpp.html" target="_top" xlink:title=" ">
<polygon fill="white" stroke="#666666" points="938.12,-252.5 831.38,-252.5 831.38,-222 938.12,-222 938.12,-252.5"/>
<text text-anchor="start" x="839.38" y="-239" font-family="Helvetica,sans-Serif" font-size="10.00">src/fault/fiber/system</text>
<text text-anchor="middle" x="884.75" y="-227.75" font-family="Helvetica,sans-Serif" font-size="10.00">_clock.cpp</text>
</a>
</g>
</g>
<!-- Node1&#45;&gt;Node20 -->
<g id="edge21_Node000001_Node000020" class="edge">
<title>Node1&#45;&gt;Node20</title>
<g id="a_edge21_Node000001_Node000020"><a xlink:title=" ">
<path fill="none" stroke="#63b8ff" d="M846.84,-279.79C855.34,-270.48 864.42,-260.53 871.56,-252.7"/>
<polygon fill="#63b8ff" stroke="#63b8ff" points="844.44,-277.23 840.28,-286.97 849.61,-281.95 844.44,-277.23"/>
</a>
</g>
</g>
<!-- Node3 -->
<g id="Node000003" class="node">
<title>Node3</title>
<g id="a_Node000003"><a xlink:href="fiber_2atomic__wait_8hpp.html" target="_top" xlink:title=" ">
<polygon fill="white" stroke="#666666" points="227.88,-186 131.62,-186 131.62,-144.25 227.88,-144.25 227.88,-186"/>
<text text-anchor="start" x="139.62" y="-172.5" font-family="Helvetica,sans-Serif" font-size="10.00">include/yaclib/fault</text>
<text text-anchor="start" x="139.62" y="-161.25" font-family="Helvetica,sans-Serif" font-size="10.00">/detail/fiber/atomic</text>
<text text-anchor="middle" x="179.75" y="-150" font-family="Helvetica,sans-Serif" font-size="10.00">_wait.hpp</text>
</a>
</g>
</g>
<!-- Node2&#45;&gt;Node3 -->
<g id="edge2_Node000002_Node000003" class="edge">
<title>Node2&#45;&gt;Node3</title>
<g id="a_edge2_Node000002_Node000003"><a xlink:title=" ">
<path fill="none" stroke="#63b8ff" d="M690.72,-228.12C572.95,-213.83 331.59,-184.55 228.35,-172.02"/>
<polygon fill="#63b8ff" stroke="#63b8ff" points="690.22,-231.58 700.56,-229.31 691.06,-224.63 690.22,-231.58"/>
</a>
</g>
</g>
<!-- Node6 -->
<g id="Node000006" class="node">
<title>Node6</title>
<g id="a_Node000006"><a xlink:href="fault_2detail_2fiber_2mutex_8hpp.html" target="_top" xlink:title=" ">
<polygon fill="white" stroke="#666666" points="542,-180.38 431.5,-180.38 431.5,-149.88 542,-149.88 542,-180.38"/>
<text text-anchor="start" x="439.5" y="-166.88" font-family="Helvetica,sans-Serif" font-size="10.00">include/yaclib/fault</text>
<text text-anchor="middle" x="486.75" y="-155.62" font-family="Helvetica,sans-Serif" font-size="10.00">/detail/fiber/mutex.hpp</text>
</a>
</g>
</g>
<!-- Node2&#45;&gt;Node6 -->
<g id="edge5_Node000002_Node000006" class="edge">
<title>Node2&#45;&gt;Node6</title>
<g id="a_edge5_Node000002_Node000006"><a xlink:title=" ">
<path fill="none" stroke="#63b8ff" d="M691.24,-219.04C645.46,-207.19 585.35,-191.64 542.17,-180.47"/>
<polygon fill="#63b8ff" stroke="#63b8ff" points="690.23,-222.39 700.79,-221.51 691.99,-215.62 690.23,-222.39"/>
</a>
</g>
</g>
<!-- Node9 -->
<g id="Node000009" class="node">
<title>Node9</title>
<g id="a_Node000009"><a xlink:href="fault_2detail_2fiber_2timed__mutex_8hpp.html" target="_top" xlink:title=" ">
<polygon fill="white" stroke="#666666" points="646.62,-102.62 506.88,-102.62 506.88,-72.12 646.62,-72.12 646.62,-102.62"/>
<text text-anchor="start" x="514.88" y="-89.12" font-family="Helvetica,sans-Serif" font-size="10.00">include/yaclib/fault</text>
<text text-anchor="middle" x="576.75" y="-77.88" font-family="Helvetica,sans-Serif" font-size="10.00">/detail/fiber/timed_mutex.hpp</text>
</a>
</g>
</g>
<!-- Node2&#45;&gt;Node9 -->
<g id="edge19_Node000002_Node000009" class="edge">
<title>Node2&#45;&gt;Node9</title>
<g id="a_edge19_Node000002_Node000009"><a xlink:title=" ">
<path fill="none" stroke="#63b8ff" d="M730.89,-214.31C693.46,-183.73 626.62,-129.12 594.69,-103.03"/>
<polygon fill="#63b8ff" stroke="#63b8ff" points="728.6,-216.96 738.56,-220.57 733.03,-211.54 728.6,-216.96"/>
</a>
</g>
</g>
<!-- Node11 -->
<g id="Node000011" class="node">
<title>Node11</title>
<g id="a_Node000011"><a xlink:href="fault_2detail_2fiber_2recursive__mutex_8hpp.html" target="_top" xlink:title=" ">
<polygon fill="white" stroke="#666666" points="851.75,-186 745.75,-186 745.75,-144.25 851.75,-144.25 851.75,-186"/>
<text text-anchor="start" x="753.75" y="-172.5" font-family="Helvetica,sans-Serif" font-size="10.00">include/yaclib/fault</text>
<text text-anchor="start" x="753.75" y="-161.25" font-family="Helvetica,sans-Serif" font-size="10.00">/detail/fiber/recursive</text>
<text text-anchor="middle" x="798.75" y="-150" font-family="Helvetica,sans-Serif" font-size="10.00">_mutex.hpp</text>
</a>
</g>
</g>
<!-- Node2&#45;&gt;Node11 -->
<g id="edge10_Node000002_Node000011" class="edge">
<title>Node2&#45;&gt;Node11</title>
<g id="a_edge10_Node000002_Node000011"><a xlink:title=" ">
<path fill="none" stroke="#63b8ff" d="M772.01,-211.86C776.85,-203.58 782.21,-194.42 786.85,-186.49"/>
<polygon fill="#63b8ff" stroke="#63b8ff" points="769.04,-210.01 767.01,-220.41 775.08,-213.55 769.04,-210.01"/>
</a>
</g>
</g>
<!-- Node12 -->
<g id="Node000012" class="node">
<title>Node12</title>
<g id="a_Node000012"><a xlink:href="fault_2detail_2fiber_2recursive__timed__mutex_8hpp.html" target="_top" xlink:title=" ">
<polygon fill="white" stroke="#666666" points="770.75,-108.25 664.75,-108.25 664.75,-66.5 770.75,-66.5 770.75,-108.25"/>
<text text-anchor="start" x="672.75" y="-94.75" font-family="Helvetica,sans-Serif" font-size="10.00">include/yaclib/fault</text>
<text text-anchor="start" x="672.75" y="-83.5" font-family="Helvetica,sans-Serif" font-size="10.00">/detail/fiber/recursive</text>
<text text-anchor="middle" x="717.75" y="-72.25" font-family="Helvetica,sans-Serif" font-size="10.00">_timed_mutex.hpp</text>
</a>
</g>
</g>
<!-- Node2&#45;&gt;Node12 -->
<g id="edge13_Node000002_Node000012" class="edge">
<title>Node2&#45;&gt;Node12</title>
<g id="a_edge13_Node000002_Node000012"><a xlink:title=" ">
<path fill="none" stroke="#63b8ff" d="M746.09,-211.17C742.72,-203.24 739.28,-194.36 736.75,-186 728.79,-159.72 723.39,-128.43 720.44,-108.48"/>
<polygon fill="#63b8ff" stroke="#63b8ff" points="742.84,-212.47 750.08,-220.21 749.24,-209.64 742.84,-212.47"/>
</a>
</g>
</g>
<!-- Node14 -->
<g id="Node000014" class="node">
<title>Node14</title>
<g id="a_Node000014"><a xlink:href="fault_2detail_2fiber_2shared__mutex_8hpp.html" target="_top" xlink:title=" ">
<polygon fill="white" stroke="#666666" points="991.88,-186 895.62,-186 895.62,-144.25 991.88,-144.25 991.88,-186"/>
<text text-anchor="start" x="903.62" y="-172.5" font-family="Helvetica,sans-Serif" font-size="10.00">include/yaclib/fault</text>
<text text-anchor="start" x="903.62" y="-161.25" font-family="Helvetica,sans-Serif" font-size="10.00">/detail/fiber/shared</text>
<text text-anchor="middle" x="943.75" y="-150" font-family="Helvetica,sans-Serif" font-size="10.00">_mutex.hpp</text>
</a>
</g>
</g>
<!-- Node2&#45;&gt;Node14 -->
<g id="edge14_Node000002_Node000014" class="edge">
<title>Node2&#45;&gt;Node14</title>
<g id="a_edge14_Node000002_Node000014"><a xlink:title=" ">
<path fill="none" stroke="#63b8ff" d="M807.22,-217.6C834.45,-207.33 868.12,-194.64 895.2,-184.43"/>
<polygon fill="#63b8ff" stroke="#63b8ff" points="806.28,-214.21 798.16,-221.02 808.75,-220.76 806.28,-214.21"/>
</a>
</g>
</g>
<!-- Node17 -->
<g id="Node000017" class="node">
<title>Node17</title>
<g id="a_Node000017"><a xlink:href="fault_2detail_2fiber_2thread_8hpp.html" target="_top" xlink:title=" ">
<polygon fill="white" stroke="#666666" points="1121.38,-180.38 1010.12,-180.38 1010.12,-149.88 1121.38,-149.88 1121.38,-180.38"/>
<text text-anchor="start" x="1018.12" y="-166.88" font-family="Helvetica,sans-Serif" font-size="10.00">include/yaclib/fault</text>
<text text-anchor="middle" x="1065.75" y="-155.62" font-family="Helvetica,sans-Serif" font-size="10.00">/detail/fiber/thread.hpp</text>
</a>
</g>
</g>
<!-- Node2&#45;&gt;Node17 -->
<g id="edge17_Node000002_Node000017" class="edge">
<title>Node2&#45;&gt;Node17</title>
<g id="a_edge17_Node000002_Node000017"><a xlink:title=" ">
<path fill="none" stroke="#63b8ff" d="M824.43,-221.69C903.62,-205.36 925.87,-204.97 1000.75,-186 1006.93,-184.43 1013.39,-182.65 1019.74,-180.8"/>
<polygon fill="#63b8ff" stroke="#63b8ff" points="823.96,-218.21 814.89,-223.68 825.39,-225.06 823.96,-218.21"/>
</a>
</g>
</g>
<!-- Node19 -->
<g id="Node000019" class="node">
<title>Node19</title>
<g id="a_Node000019"><a xlink:href="queue_8cpp.html" target="_top" xlink:title=" ">
<polygon fill="white" stroke="#666666" points="1258.5,-174.75 1139,-174.75 1139,-155.5 1258.5,-155.5 1258.5,-174.75"/>
<text text-anchor="middle" x="1198.75" y="-161.25" font-family="Helvetica,sans-Serif" font-size="10.00">src/fault/fiber/queue.cpp</text>
</a>
</g>
</g>
<!-- Node2&#45;&gt;Node19 -->
<g id="edge20_Node000002_Node000019" class="edge">
<title>Node2&#45;&gt;Node19</title>
<g id="a_edge20_Node000002_Node000019"><a xlink:title=" ">
<path fill="none" stroke="#63b8ff" d="M824.62,-221.82C960.69,-199.94 999.25,-212.71 1130.75,-186 1144.37,-183.23 1159.22,-179.04 1171.55,-175.21"/>
<polygon fill="#63b8ff" stroke="#63b8ff" points="824.14,-218.36 814.84,-223.43 825.28,-225.26 824.14,-218.36"/>
</a>
</g>
</g>
<!-- Node4 -->
<g id="Node000004" class="node">
<title>Node4</title>
<g id="a_Node000004"><a xlink:href="fault_2detail_2fiber_2atomic_8hpp.html" target="_top" xlink:title=" ">
<polygon fill="white" stroke="#666666" points="113.5,-102.62 0,-102.62 0,-72.12 113.5,-72.12 113.5,-102.62"/>
<text text-anchor="start" x="8" y="-89.12" font-family="Helvetica,sans-Serif" font-size="10.00">include/yaclib/fault</text>
<text text-anchor="middle" x="56.75" y="-77.88" font-family="Helvetica,sans-Serif" font-size="10.00">/detail/fiber/atomic.hpp</text>
</a>
</g>
</g>
<!-- Node3&#45;&gt;Node4 -->
<g id="edge3_Node000003_Node000004" class="edge">
<title>Node3&#45;&gt;Node4</title>
<g id="a_edge3_Node000003_Node000004"><a xlink:title=" ">
<path fill="none" stroke="#63b8ff" d="M137.14,-137.88C118.15,-126.19 96.49,-112.85 80.44,-102.96"/>
<polygon fill="#63b8ff" stroke="#63b8ff" points="135.15,-140.77 145.5,-143.03 138.82,-134.81 135.15,-140.77"/>
</a>
</g>
</g>
<!-- Node5 -->
<g id="Node000005" class="node">
<title>Node5</title>
<g id="a_Node000005"><a xlink:href="fault_2detail_2fiber_2atomic__flag_8hpp.html" target="_top" xlink:title=" ">
<polygon fill="white" stroke="#666666" points="227.88,-108.25 131.62,-108.25 131.62,-66.5 227.88,-66.5 227.88,-108.25"/>
<text text-anchor="start" x="139.62" y="-94.75" font-family="Helvetica,sans-Serif" font-size="10.00">include/yaclib/fault</text>
<text text-anchor="start" x="139.62" y="-83.5" font-family="Helvetica,sans-Serif" font-size="10.00">/detail/fiber/atomic</text>
<text text-anchor="middle" x="179.75" y="-72.25" font-family="Helvetica,sans-Serif" font-size="10.00">_flag.hpp</text>
</a>
</g>
</g>
<!-- Node3&#45;&gt;Node5 -->
<g id="edge4_Node000003_Node000005" class="edge">
<title>Node3&#45;&gt;Node5</title>
<g id="a_edge4_Node000003_Node000005"><a xlink:title=" ">
<path fill="none" stroke="#63b8ff" d="M179.75,-132.5C179.75,-124.46 179.75,-116.04 179.75,-108.73"/>
<polygon fill="#63b8ff" stroke="#63b8ff" points="176.25,-132.31 179.75,-142.31 183.25,-132.31 176.25,-132.31"/>
</a>
</g>
</g>
<!-- Node7 -->
<g id="Node000007" class="node">
<title>Node7</title>
<g id="a_Node000007"><a xlink:href="fault_2detail_2fiber_2condition__variable_8hpp.html" target="_top" xlink:title=" ">
<polygon fill="white" stroke="#666666" points="351.38,-108.25 246.12,-108.25 246.12,-66.5 351.38,-66.5 351.38,-108.25"/>
<text text-anchor="start" x="254.12" y="-94.75" font-family="Helvetica,sans-Serif" font-size="10.00">include/yaclib/fault</text>
<text text-anchor="start" x="254.12" y="-83.5" font-family="Helvetica,sans-Serif" font-size="10.00">/detail/fiber/condition</text>
<text text-anchor="middle" x="298.75" y="-72.25" font-family="Helvetica,sans-Serif" font-size="10.00">_variable.hpp</text>
</a>
</g>
</g>
<!-- Node6&#45;&gt;Node7 -->
<g id="edge6_Node000006_Node000007" class="edge">
<title>Node6&#45;&gt;Node7</title>
<g id="a_edge6_Node000006_Node000007"><a xlink:title=" ">
<path fill="none" stroke="#63b8ff" d="M439.92,-145.26C412.29,-134.12 377.32,-120.03 349.1,-108.66"/>
<polygon fill="#63b8ff" stroke="#63b8ff" points="438.51,-148.46 449.1,-148.95 441.13,-141.97 438.51,-148.46"/>
</a>
</g>
</g>
<!-- Node6&#45;&gt;Node9 -->
<g id="edge8_Node000006_Node000009" class="edge">
<title>Node6&#45;&gt;Node9</title>
<g id="a_edge8_Node000006_Node000009"><a xlink:title=" ">
<path fill="none" stroke="#63b8ff" d="M512.49,-142.46C527.54,-129.79 546.14,-114.14 559.45,-102.94"/>
<polygon fill="#63b8ff" stroke="#63b8ff" points="510.66,-139.43 505.26,-148.55 515.17,-144.78 510.66,-139.43"/>
</a>
</g>
</g>
<!-- Node10 -->
<g id="Node000010" class="node">
<title>Node10</title>
<g id="a_Node000010"><a xlink:href="mutex_8cpp.html" target="_top" xlink:title=" ">
<polygon fill="white" stroke="#666666" points="488.5,-97 369,-97 369,-77.75 488.5,-77.75 488.5,-97"/>
<text text-anchor="middle" x="428.75" y="-83.5" font-family="Helvetica,sans-Serif" font-size="10.00">src/fault/fiber/mutex.cpp</text>
</a>
</g>
</g>
<!-- Node6&#45;&gt;Node10 -->
<g id="edge9_Node000006_Node000010" class="edge">
<title>Node6&#45;&gt;Node10</title>
<g id="a_edge9_Node000006_Node000010"><a xlink:title=" ">
<path fill="none" stroke="#63b8ff" d="M468.64,-140.47C457.4,-125.8 443.62,-107.79 435.55,-97.25"/>
<polygon fill="#63b8ff" stroke="#63b8ff" points="465.79,-142.51 474.65,-148.32 471.35,-138.25 465.79,-142.51"/>
</a>
</g>
</g>
<!-- Node8 -->
<g id="Node000008" class="node">
<title>Node8</title>
<g id="a_Node000008"><a xlink:href="fiber_2condition__variable_8cpp.html" target="_top" xlink:title=" ">
<polygon fill="white" stroke="#666666" points="355.88,-30.5 241.62,-30.5 241.62,0 355.88,0 355.88,-30.5"/>
<text text-anchor="start" x="249.62" y="-17" font-family="Helvetica,sans-Serif" font-size="10.00">src/fault/fiber/condition</text>
<text text-anchor="middle" x="298.75" y="-5.75" font-family="Helvetica,sans-Serif" font-size="10.00">_variable.cpp</text>
</a>
</g>
</g>
<!-- Node7&#45;&gt;Node8 -->
<g id="edge7_Node000007_Node000008" class="edge">
<title>Node7&#45;&gt;Node8</title>
<g id="a_edge7_Node000007_Node000008"><a xlink:title=" ">
<path fill="none" stroke="#63b8ff" d="M298.75,-54.63C298.75,-46.27 298.75,-37.65 298.75,-30.7"/>
<polygon fill="#63b8ff" stroke="#63b8ff" points="295.25,-54.58 298.75,-64.58 302.25,-54.58 295.25,-54.58"/>
</a>
</g>
</g>
<!-- Node11&#45;&gt;Node12 -->
<g id="edge11_Node000011_Node000012" class="edge">
<title>Node11&#45;&gt;Node12</title>
<g id="a_edge11_Node000011_Node000012"><a xlink:title=" ">
<path fill="none" stroke="#63b8ff" d="M768.8,-136.11C759.09,-127.03 748.51,-117.14 739.52,-108.73"/>
<polygon fill="#63b8ff" stroke="#63b8ff" points="766.24,-138.52 775.94,-142.79 771.02,-133.4 766.24,-138.52"/>
</a>
</g>
</g>
<!-- Node13 -->
<g id="Node000013" class="node">
<title>Node13</title>
<g id="a_Node000013"><a xlink:href="recursive__mutex_8cpp.html" target="_top" xlink:title=" ">
<polygon fill="white" stroke="#666666" points="904.25,-102.62 789.25,-102.62 789.25,-72.12 904.25,-72.12 904.25,-102.62"/>
<text text-anchor="start" x="797.25" y="-89.12" font-family="Helvetica,sans-Serif" font-size="10.00">src/fault/fiber/recursive</text>
<text text-anchor="middle" x="846.75" y="-77.88" font-family="Helvetica,sans-Serif" font-size="10.00">_mutex.cpp</text>
</a>
</g>
</g>
<!-- Node11&#45;&gt;Node13 -->
<g id="edge12_Node000011_Node000013" class="edge">
<title>Node11&#45;&gt;Node13</title>
<g id="a_edge12_Node000011_Node000013"><a xlink:title=" ">
<path fill="none" stroke="#63b8ff" d="M817.69,-134.23C824.57,-123.38 832.02,-111.62 837.65,-102.73"/>
<polygon fill="#63b8ff" stroke="#63b8ff" points="814.82,-132.23 812.42,-142.55 820.73,-135.97 814.82,-132.23"/>
</a>
</g>
</g>
<!-- Node15 -->
<g id="Node000015" class="node">
<title>Node15</title>
<g id="a_Node000015"><a xlink:href="fault_2detail_2fiber_2shared__timed__mutex_8hpp.html" target="_top" xlink:title=" ">
<polygon fill="white" stroke="#666666" points="1018.88,-108.25 922.62,-108.25 922.62,-66.5 1018.88,-66.5 1018.88,-108.25"/>
<text text-anchor="start" x="930.62" y="-94.75" font-family="Helvetica,sans-Serif" font-size="10.00">include/yaclib/fault</text>
<text text-anchor="start" x="930.62" y="-83.5" font-family="Helvetica,sans-Serif" font-size="10.00">/detail/fiber/shared</text>
<text text-anchor="middle" x="970.75" y="-72.25" font-family="Helvetica,sans-Serif" font-size="10.00">_timed_mutex.hpp</text>
</a>
</g>
</g>
<!-- Node14&#45;&gt;Node15 -->
<g id="edge15_Node000014_Node000015" class="edge">
<title>Node14&#45;&gt;Node15</title>
<g id="a_edge15_Node000014_Node000015"><a xlink:title=" ">
<path fill="none" stroke="#63b8ff" d="M954.82,-133.06C957.75,-124.86 960.83,-116.21 963.49,-108.73"/>
<polygon fill="#63b8ff" stroke="#63b8ff" points="951.55,-131.81 951.49,-142.4 958.15,-134.16 951.55,-131.81"/>
</a>
</g>
</g>
<!-- Node16 -->
<g id="Node000016" class="node">
<title>Node16</title>
<g id="a_Node000016"><a xlink:href="shared__mutex_8cpp.html" target="_top" xlink:title=" ">
<polygon fill="white" stroke="#666666" points="1141,-102.62 1036.5,-102.62 1036.5,-72.12 1141,-72.12 1141,-102.62"/>
<text text-anchor="start" x="1044.5" y="-89.12" font-family="Helvetica,sans-Serif" font-size="10.00">src/fault/fiber/shared</text>
<text text-anchor="middle" x="1088.75" y="-77.88" font-family="Helvetica,sans-Serif" font-size="10.00">_mutex.cpp</text>
</a>
</g>
</g>
<!-- Node14&#45;&gt;Node16 -->
<g id="edge16_Node000014_Node000016" class="edge">
<title>Node14&#45;&gt;Node16</title>
<g id="a_edge16_Node000014_Node000016"><a xlink:title=" ">
<path fill="none" stroke="#63b8ff" d="M992.75,-138.53C1015.43,-126.68 1041.56,-113.03 1060.82,-102.96"/>
<polygon fill="#63b8ff" stroke="#63b8ff" points="991.19,-135.39 983.95,-143.12 994.43,-141.6 991.19,-135.39"/>
</a>
</g>
</g>
<!-- Node18 -->
<g id="Node000018" class="node">
<title>Node18</title>
<g id="a_Node000018"><a xlink:href="thread_8cpp.html" target="_top" xlink:title=" ">
<polygon fill="white" stroke="#666666" points="1278.88,-97 1158.62,-97 1158.62,-77.75 1278.88,-77.75 1278.88,-97"/>
<text text-anchor="middle" x="1218.75" y="-83.5" font-family="Helvetica,sans-Serif" font-size="10.00">src/fault/fiber/thread.cpp</text>
</a>
</g>
</g>
<!-- Node17&#45;&gt;Node18 -->
<g id="edge18_Node000017_Node000018" class="edge">
<title>Node17&#45;&gt;Node18</title>
<g id="a_edge18_Node000017_Node000018"><a xlink:title=" ">
<path fill="none" stroke="#63b8ff" d="M1105.2,-144.59C1135.86,-129.41 1176.98,-109.06 1200.39,-97.47"/>
<polygon fill="#63b8ff" stroke="#63b8ff" points="1104.02,-141.27 1096.61,-148.85 1107.12,-147.55 1104.02,-141.27"/>
</a>
</g>
</g>
</g>
</svg>
