<?xml version="1.0" encoding="UTF-8" standalone="no"?>
<!DOCTYPE svg PUBLIC "-//W3C//DTD SVG 1.1//EN"
 "http://www.w3.org/Graphics/SVG/1.1/DTD/svg11.dtd">
<!-- Generated by graphviz version 3.0.0 (20221109.1736)
 -->
<!-- Title: include/yaclib/lazy/detail/task_impl.hpp Pages: 1 -->
<!--zoomable 609 -->
<svg id="main" version="1.1" xmlns="http://www.w3.org/2000/svg" xmlns:xlink="http://www.w3.org/1999/xlink" xml:space="preserve" onload="init(evt)">
<style type="text/css"><![CDATA[
.edge:hover path { stroke: red; }
.edge:hover polygon { stroke: red; fill: red; }
]]></style>
<script type="text/javascript"><![CDATA[
var edges = document.getElementsByTagName('g');
if (edges && edges.length) {
  for (var i=0;i<edges.length;i++) {
    if (edges[i].id.substr(0,4)=='edge') {
      edges[i].setAttribute('class','edge');
    }
  }
}
]]></script>
        <defs>
                <circle id="rim" cx="0" cy="0" r="7"/>
                <circle id="rim2" cx="0" cy="0" r="3.5"/>
                <g id="zoomPlus">
                        <use xlink:href="#rim" fill="#404040">
                                <set attributeName="fill" to="#808080" begin="zoomplus.mouseover" end="zoomplus.mouseout"/>
                        </use>
                        <path d="M-4,0h8M0,-4v8" fill="none" stroke="white" stroke-width="1.5" pointer-events="none"/>
                </g>
                <g id="zoomMin">
                        <use xlink:href="#rim" fill="#404040">
                                <set attributeName="fill" to="#808080" begin="zoomminus.mouseover" end="zoomminus.mouseout"/>
                        </use>
                        <path d="M-4,0h8" fill="none" stroke="white" stroke-width="1.5" pointer-events="none"/>
                </g>
                <g id="dirArrow">
                        <path fill="none" stroke="white" stroke-width="1.5" d="M0,-3.0v7 M-2.5,-0.5L0,-3.0L2.5,-0.5"/>
                </g>
               <g id="resetDef">
                       <use xlink:href="#rim2" fill="#404040">
                               <set attributeName="fill" to="#808080" begin="reset.mouseover" end="reset.mouseout"/>
                       </use>
               </g>
        </defs>

<script type="text/javascript">
var viewWidth = 1284;
var viewHeight = 609;
var sectionId = 'dynsection-0';
</script>
<script xlink:href="svgpan.js"/>
<svg id="graph" class="graph">
<g id="viewport">
<title>include/yaclib/lazy/detail/task_impl.hpp</title>
<!-- Node1 -->
<g id="node1" class="node">
<title>Node1</title>
<g id="a_node1"><a xlink:title=" ">
<polygon fill="#bfbfbf" stroke="black" points="295,-570.5 295,-600.5 401,-600.5 401,-570.5 295,-570.5"/>
<text text-anchor="start" x="303" y="-588.5" font-family="Helvetica,sans-Serif" font-size="10.00">include/yaclib/lazy</text>
<text text-anchor="middle" x="348" y="-577.5" font-family="Helvetica,sans-Serif" font-size="10.00">/detail/task_impl.hpp</text>
</a>
</g>
</g>
<!-- Node2 -->
<g id="node2" class="node">
<title>Node2</title>
<g id="a_node2"><a xlink:href="promise__core_8hpp.html" target="_top" xlink:title=" ">
<polygon fill="none" stroke="black" points="646,-503.5 646,-533.5 742,-533.5 742,-503.5 646,-503.5"/>
<text text-anchor="start" x="654" y="-521.5" font-family="Helvetica,sans-Serif" font-size="10.00">yaclib/algo/detail</text>
<text text-anchor="middle" x="694" y="-510.5" font-family="Helvetica,sans-Serif" font-size="10.00">/promise_core.hpp</text>
</a>
</g>
</g>
<!-- Node1&#45;&gt;Node2 -->
<g id="edge1" class="edge">
<title>Node1&#45;&gt;Node2</title>
<path fill="none" stroke="midnightblue" d="M401.3,-574.49C464.73,-562.57 570.26,-542.75 635.78,-530.44"/>
<polygon fill="midnightblue" stroke="midnightblue" points="636.75,-533.82 645.94,-528.53 635.46,-526.94 636.75,-533.82"/>
</g>
<!-- Node17 -->
<g id="node17" class="node">
<title>Node17</title>
<g id="a_node17"><a xlink:href="executor_8hpp.html" target="_top" xlink:title=" ">
<polygon fill="none" stroke="black" points="173.5,-252 173.5,-271 290.5,-271 290.5,-252 173.5,-252"/>
<text text-anchor="middle" x="232" y="-259" font-family="Helvetica,sans-Serif" font-size="10.00">yaclib/exe/executor.hpp</text>
</a>
</g>
</g>
<!-- Node1&#45;&gt;Node17 -->
<g id="edge54" class="edge">
<title>Node1&#45;&gt;Node17</title>
<path fill="none" stroke="midnightblue" d="M294.71,-584.81C206.08,-582.21 38,-562.76 38,-452.5 38,-452.5 38,-452.5 38,-383.5 38,-345.68 145.49,-297.12 200.45,-274.76"/>
<polygon fill="midnightblue" stroke="midnightblue" points="201.77,-278 209.75,-271.03 199.16,-271.51 201.77,-278"/>
</g>
<!-- Node3 -->
<g id="node3" class="node">
<title>Node3</title>
<g id="a_node3"><a xlink:href="func__core_8hpp.html" target="_top" xlink:title=" ">
<polygon fill="none" stroke="black" points="695.5,-246.5 695.5,-276.5 784.5,-276.5 784.5,-246.5 695.5,-246.5"/>
<text text-anchor="start" x="703.5" y="-264.5" font-family="Helvetica,sans-Serif" font-size="10.00">yaclib/algo/detail</text>
<text text-anchor="middle" x="740" y="-253.5" font-family="Helvetica,sans-Serif" font-size="10.00">/func_core.hpp</text>
</a>
</g>
</g>
<!-- Node2&#45;&gt;Node3 -->
<g id="edge2" class="edge">
<title>Node2&#45;&gt;Node3</title>
<path fill="none" stroke="midnightblue" d="M696.54,-503.43C704.05,-461.8 726.21,-338.94 735.66,-286.58"/>
<polygon fill="midnightblue" stroke="midnightblue" points="739.14,-286.99 737.47,-276.53 732.25,-285.75 739.14,-286.99"/>
</g>
<!-- Node6 -->
<g id="node6" class="node">
<title>Node6</title>
<g id="a_node6"><a xlink:title=" ">
<polygon fill="none" stroke="#bfbfbf" points="646,-56.5 646,-75.5 708,-75.5 708,-56.5 646,-56.5"/>
<text text-anchor="middle" x="677" y="-63.5" font-family="Helvetica,sans-Serif" font-size="10.00">type_traits</text>
</a>
</g>
</g>
<!-- Node2&#45;&gt;Node6 -->
<g id="edge52" class="edge">
<title>Node2&#45;&gt;Node6</title>
<path fill="none" stroke="midnightblue" d="M693.46,-503.27C690.97,-437.26 680.54,-160.83 677.71,-85.84"/>
<polygon fill="midnightblue" stroke="midnightblue" points="681.2,-85.46 677.32,-75.6 674.2,-85.72 681.2,-85.46"/>
</g>
<!-- Node7 -->
<g id="node7" class="node">
<title>Node7</title>
<g id="a_node7"><a xlink:title=" ">
<polygon fill="none" stroke="#bfbfbf" points="1161.5,-56.5 1161.5,-75.5 1200.5,-75.5 1200.5,-56.5 1161.5,-56.5"/>
<text text-anchor="middle" x="1181" y="-63.5" font-family="Helvetica,sans-Serif" font-size="10.00">utility</text>
</a>
</g>
</g>
<!-- Node2&#45;&gt;Node7 -->
<g id="edge53" class="edge">
<title>Node2&#45;&gt;Node7</title>
<path fill="none" stroke="midnightblue" d="M742.12,-516.82C881.56,-513.56 1276,-494.68 1276,-385.5 1276,-385.5 1276,-385.5 1276,-193.5 1276,-144.93 1230.66,-103.09 1202.62,-81.87"/>
<polygon fill="midnightblue" stroke="midnightblue" points="1204.35,-78.79 1194.21,-75.72 1200.22,-84.44 1204.35,-78.79"/>
</g>
<!-- Node8 -->
<g id="node8" class="node">
<title>Node8</title>
<g id="a_node8"><a xlink:href="result__core_8hpp.html" target="_top" xlink:title=" ">
<polygon fill="none" stroke="black" points="741.5,-436.5 741.5,-466.5 830.5,-466.5 830.5,-436.5 741.5,-436.5"/>
<text text-anchor="start" x="749.5" y="-454.5" font-family="Helvetica,sans-Serif" font-size="10.00">yaclib/algo/detail</text>
<text text-anchor="middle" x="786" y="-443.5" font-family="Helvetica,sans-Serif" font-size="10.00">/result_core.hpp</text>
</a>
</g>
</g>
<!-- Node2&#45;&gt;Node8 -->
<g id="edge7" class="edge">
<title>Node2&#45;&gt;Node8</title>
<path fill="none" stroke="midnightblue" d="M713.96,-503.4C726.74,-494.37 743.52,-482.51 757.67,-472.52"/>
<polygon fill="midnightblue" stroke="midnightblue" points="759.93,-475.21 766.08,-466.58 755.89,-469.49 759.93,-475.21"/>
</g>
<!-- Node12 -->
<g id="node12" class="node">
<title>Node12</title>
<g id="a_node12"><a xlink:href="log_8hpp.html" target="_top" xlink:title=" ">
<polygon fill="none" stroke="black" points="73.5,-56.5 73.5,-75.5 148.5,-75.5 148.5,-56.5 73.5,-56.5"/>
<text text-anchor="middle" x="111" y="-63.5" font-family="Helvetica,sans-Serif" font-size="10.00">yaclib/log.hpp</text>
</a>
</g>
</g>
<!-- Node2&#45;&gt;Node12 -->
<g id="edge51" class="edge">
<title>Node2&#45;&gt;Node12</title>
<path fill="none" stroke="midnightblue" d="M645.75,-514.51C488.37,-503.45 0,-458.31 0,-324 0,-324 0,-324 0,-193.5 0,-141.69 53.26,-100.96 85.99,-80.82"/>
<polygon fill="midnightblue" stroke="midnightblue" points="87.81,-83.81 94.62,-75.69 84.24,-77.79 87.81,-83.81"/>
</g>
<!-- Node4 -->
<g id="node4" class="node">
<title>Node4</title>
<g id="a_node4"><a xlink:title=" ">
<polygon fill="none" stroke="#bfbfbf" points="551,-185 551,-204 639,-204 639,-185 551,-185"/>
<text text-anchor="middle" x="595" y="-192" font-family="Helvetica,sans-Serif" font-size="10.00">yaclib/config.hpp</text>
</a>
</g>
</g>
<!-- Node3&#45;&gt;Node4 -->
<g id="edge3" class="edge">
<title>Node3&#45;&gt;Node4</title>
<path fill="none" stroke="midnightblue" d="M708.54,-246.4C683.1,-234.99 647.6,-219.08 623.1,-208.1"/>
<polygon fill="midnightblue" stroke="midnightblue" points="624.53,-204.9 613.98,-204.01 621.67,-211.29 624.53,-204.9"/>
</g>
<!-- Node5 -->
<g id="node5" class="node">
<title>Node5</title>
<g id="a_node5"><a xlink:href="fwd_8hpp.html" target="_top" xlink:title=" ">
<polygon fill="none" stroke="black" points="852,-56.5 852,-75.5 930,-75.5 930,-56.5 852,-56.5"/>
<text text-anchor="middle" x="891" y="-63.5" font-family="Helvetica,sans-Serif" font-size="10.00">yaclib/fwd.hpp</text>
</a>
</g>
</g>
<!-- Node3&#45;&gt;Node5 -->
<g id="edge4" class="edge">
<title>Node3&#45;&gt;Node5</title>
<path fill="none" stroke="midnightblue" d="M746.2,-246.16C758.81,-218.11 789.62,-155 829,-112 840.13,-99.84 855.01,-88.91 867.41,-80.87"/>
<polygon fill="midnightblue" stroke="midnightblue" points="869.29,-83.82 875.9,-75.54 865.57,-77.89 869.29,-83.82"/>
</g>
<!-- Node3&#45;&gt;Node6 -->
<g id="edge5" class="edge">
<title>Node3&#45;&gt;Node6</title>
<path fill="none" stroke="midnightblue" d="M735.37,-246.27C724.14,-211.8 695.5,-123.81 682.99,-85.4"/>
<polygon fill="midnightblue" stroke="midnightblue" points="686.22,-84 679.79,-75.58 679.56,-86.17 686.22,-84"/>
</g>
<!-- Node3&#45;&gt;Node7 -->
<g id="edge6" class="edge">
<title>Node3&#45;&gt;Node7</title>
<path fill="none" stroke="midnightblue" d="M784.72,-256.54C876.32,-248.11 1078.9,-227.71 1105,-210 1148.72,-180.33 1169.21,-117.17 1177.01,-85.67"/>
<polygon fill="midnightblue" stroke="midnightblue" points="1180.49,-86.15 1179.33,-75.61 1173.67,-84.57 1180.49,-86.15"/>
</g>
<!-- Node8&#45;&gt;Node7 -->
<g id="edge50" class="edge">
<title>Node8&#45;&gt;Node7</title>
<path fill="none" stroke="midnightblue" d="M830.58,-447.55C944.61,-438.77 1238,-408.03 1238,-324 1238,-324 1238,-324 1238,-193.5 1238,-150.97 1210.89,-106.93 1194.06,-83.7"/>
<polygon fill="midnightblue" stroke="midnightblue" points="1196.79,-81.5 1187.99,-75.6 1191.18,-85.7 1196.79,-81.5"/>
</g>
<!-- Node9 -->
<g id="node9" class="node">
<title>Node9</title>
<g id="a_node9"><a xlink:href="base__core_8hpp.html" target="_top" xlink:title=" ">
<polygon fill="none" stroke="black" points="297.5,-369.5 297.5,-399.5 386.5,-399.5 386.5,-369.5 297.5,-369.5"/>
<text text-anchor="start" x="305.5" y="-387.5" font-family="Helvetica,sans-Serif" font-size="10.00">yaclib/algo/detail</text>
<text text-anchor="middle" x="342" y="-376.5" font-family="Helvetica,sans-Serif" font-size="10.00">/base_core.hpp</text>
</a>
</g>
</g>
<!-- Node8&#45;&gt;Node9 -->
<g id="edge8" class="edge">
<title>Node8&#45;&gt;Node9</title>
<path fill="none" stroke="midnightblue" d="M741.39,-443.97C659.53,-431.99 485.58,-406.52 396.72,-393.51"/>
<polygon fill="midnightblue" stroke="midnightblue" points="396.98,-390.01 386.58,-392.03 395.96,-396.94 396.98,-390.01"/>
</g>
<!-- Node18 -->
<g id="node18" class="node">
<title>Node18</title>
<g id="a_node18"><a xlink:href="intrusive__ptr_8hpp.html" target="_top" xlink:title=" ">
<polygon fill="none" stroke="black" points="397.5,-179.5 397.5,-209.5 494.5,-209.5 494.5,-179.5 397.5,-179.5"/>
<text text-anchor="start" x="405.5" y="-197.5" font-family="Helvetica,sans-Serif" font-size="10.00">yaclib/util/intrusive</text>
<text text-anchor="middle" x="446" y="-186.5" font-family="Helvetica,sans-Serif" font-size="10.00">_ptr.hpp</text>
</a>
</g>
</g>
<!-- Node8&#45;&gt;Node18 -->
<g id="edge36" class="edge">
<title>Node8&#45;&gt;Node18</title>
<path fill="none" stroke="midnightblue" d="M767.24,-436.43C710.35,-393.76 539.63,-265.72 473.03,-215.77"/>
<polygon fill="midnightblue" stroke="midnightblue" points="474.81,-212.73 464.71,-209.53 470.61,-218.33 474.81,-212.73"/>
</g>
<!-- Node24 -->
<g id="node24" class="node">
<title>Node24</title>
<g id="a_node24"><a xlink:href="result_8hpp.html" target="_top" xlink:title=" ">
<polygon fill="none" stroke="black" points="938,-252 938,-271 1040,-271 1040,-252 938,-252"/>
<text text-anchor="middle" x="989" y="-259" font-family="Helvetica,sans-Serif" font-size="10.00">yaclib/util/result.hpp</text>
</a>
</g>
</g>
<!-- Node8&#45;&gt;Node24 -->
<g id="edge37" class="edge">
<title>Node8&#45;&gt;Node24</title>
<path fill="none" stroke="midnightblue" d="M801.26,-436.37C838.45,-401.93 933.54,-313.86 972.24,-278.02"/>
<polygon fill="midnightblue" stroke="midnightblue" points="974.64,-280.57 979.6,-271.21 969.88,-275.43 974.64,-280.57"/>
</g>
<!-- Node9&#45;&gt;Node4 -->
<g id="edge20" class="edge">
<title>Node9&#45;&gt;Node4</title>
<path fill="none" stroke="midnightblue" d="M386.55,-380.1C447.88,-374.44 553.66,-360.85 579,-333 608.7,-300.36 604.03,-243.8 599.01,-214.43"/>
<polygon fill="midnightblue" stroke="midnightblue" points="602.39,-213.46 597.07,-204.29 595.51,-214.77 602.39,-213.46"/>
</g>
<!-- Node10 -->
<g id="node10" class="node">
<title>Node10</title>
<g id="a_node10"><a xlink:href="inline__core_8hpp.html" target="_top" xlink:title=" ">
<polygon fill="none" stroke="black" points="66.5,-246.5 66.5,-276.5 155.5,-276.5 155.5,-246.5 66.5,-246.5"/>
<text text-anchor="start" x="74.5" y="-264.5" font-family="Helvetica,sans-Serif" font-size="10.00">yaclib/algo/detail</text>
<text text-anchor="middle" x="111" y="-253.5" font-family="Helvetica,sans-Serif" font-size="10.00">/inline_core.hpp</text>
</a>
</g>
</g>
<!-- Node9&#45;&gt;Node10 -->
<g id="edge9" class="edge">
<title>Node9&#45;&gt;Node10</title>
<path fill="none" stroke="midnightblue" d="M297.24,-375.75C263.24,-368.45 216.31,-355.22 180,-333 159.42,-320.4 140.59,-300.32 127.82,-284.8"/>
<polygon fill="midnightblue" stroke="midnightblue" points="130.35,-282.36 121.37,-276.73 124.88,-286.72 130.35,-282.36"/>
</g>
<!-- Node9&#45;&gt;Node12 -->
<g id="edge31" class="edge">
<title>Node9&#45;&gt;Node12</title>
<path fill="none" stroke="midnightblue" d="M297.34,-382.96C229.87,-379.35 104.76,-361.04 57,-277 19.97,-211.83 73.22,-120.99 98.7,-83.84"/>
<polygon fill="midnightblue" stroke="midnightblue" points="101.61,-85.79 104.51,-75.6 95.89,-81.76 101.61,-85.79"/>
</g>
<!-- Node16 -->
<g id="node16" class="node">
<title>Node16</title>
<g id="a_node16"><a xlink:href="ref_8hpp.html" target="_top" xlink:title=" ">
<polygon fill="none" stroke="black" points="421.5,-56.5 421.5,-75.5 510.5,-75.5 510.5,-56.5 421.5,-56.5"/>
<text text-anchor="middle" x="466" y="-63.5" font-family="Helvetica,sans-Serif" font-size="10.00">yaclib/util/ref.hpp</text>
</a>
</g>
</g>
<!-- Node9&#45;&gt;Node16 -->
<g id="edge32" class="edge">
<title>Node9&#45;&gt;Node16</title>
<path fill="none" stroke="midnightblue" d="M338.17,-369.39C325.04,-319.63 284.28,-153.21 315,-112 337,-82.48 377.6,-71.57 411.16,-67.85"/>
<polygon fill="midnightblue" stroke="midnightblue" points="411.69,-71.31 421.33,-66.91 411.05,-64.34 411.69,-71.31"/>
</g>
<!-- Node9&#45;&gt;Node17 -->
<g id="edge21" class="edge">
<title>Node9&#45;&gt;Node17</title>
<path fill="none" stroke="midnightblue" d="M297.39,-382.28C261.38,-378.64 212.76,-367.18 188,-333 174.69,-314.63 194.34,-292.22 211.47,-277.67"/>
<polygon fill="midnightblue" stroke="midnightblue" points="213.92,-280.2 219.53,-271.21 209.54,-274.74 213.92,-280.2"/>
</g>
<!-- Node20 -->
<g id="node20" class="node">
<title>Node20</title>
<g id="a_node20"><a xlink:href="inline_8hpp.html" target="_top" xlink:title=" ">
<polygon fill="none" stroke="black" points="467.5,-313.5 467.5,-332.5 570.5,-332.5 570.5,-313.5 467.5,-313.5"/>
<text text-anchor="middle" x="519" y="-320.5" font-family="Helvetica,sans-Serif" font-size="10.00">yaclib/exe/inline.hpp</text>
</a>
</g>
</g>
<!-- Node9&#45;&gt;Node20 -->
<g id="edge28" class="edge">
<title>Node9&#45;&gt;Node20</title>
<path fill="none" stroke="midnightblue" d="M383.95,-369.4C414.4,-359.16 455.13,-345.47 483.87,-335.81"/>
<polygon fill="midnightblue" stroke="midnightblue" points="485.14,-339.07 493.5,-332.57 482.91,-332.44 485.14,-339.07"/>
</g>
<!-- Node21 -->
<g id="node21" class="node">
<title>Node21</title>
<g id="a_node21"><a xlink:title=" ">
<polygon fill="none" stroke="#bfbfbf" points="345,-313.5 345,-332.5 391,-332.5 391,-313.5 345,-313.5"/>
<text text-anchor="middle" x="368" y="-320.5" font-family="Helvetica,sans-Serif" font-size="10.00">cstdint</text>
</a>
</g>
</g>
<!-- Node9&#45;&gt;Node21 -->
<g id="edge33" class="edge">
<title>Node9&#45;&gt;Node21</title>
<path fill="none" stroke="midnightblue" d="M348.16,-369.4C351.74,-361.2 356.3,-350.78 360.14,-341.99"/>
<polygon fill="midnightblue" stroke="midnightblue" points="363.42,-343.22 364.22,-332.66 357.01,-340.42 363.42,-343.22"/>
</g>
<!-- Node22 -->
<g id="node22" class="node">
<title>Node22</title>
<g id="a_node22"><a xlink:title=" ">
<polygon fill="none" stroke="#bfbfbf" points="409,-313.5 409,-332.5 449,-332.5 449,-313.5 409,-313.5"/>
<text text-anchor="middle" x="429" y="-320.5" font-family="Helvetica,sans-Serif" font-size="10.00">limits</text>
</a>
</g>
</g>
<!-- Node9&#45;&gt;Node22 -->
<g id="edge34" class="edge">
<title>Node9&#45;&gt;Node22</title>
<path fill="none" stroke="midnightblue" d="M362.62,-369.4C376.3,-360.04 394.21,-347.79 407.98,-338.38"/>
<polygon fill="midnightblue" stroke="midnightblue" points="410.06,-341.19 416.34,-332.66 406.11,-335.41 410.06,-341.19"/>
</g>
<!-- Node23 -->
<g id="node23" class="node">
<title>Node23</title>
<g id="a_node23"><a xlink:title=" ">
<polygon fill="none" stroke="#bfbfbf" points="197,-313.5 197,-332.5 289,-332.5 289,-313.5 197,-313.5"/>
<text text-anchor="middle" x="243" y="-320.5" font-family="Helvetica,sans-Serif" font-size="10.00">yaclib_std/atomic</text>
</a>
</g>
</g>
<!-- Node9&#45;&gt;Node23 -->
<g id="edge35" class="edge">
<title>Node9&#45;&gt;Node23</title>
<path fill="none" stroke="midnightblue" d="M318.54,-369.4C302.67,-359.86 281.81,-347.32 266.03,-337.84"/>
<polygon fill="midnightblue" stroke="midnightblue" points="267.78,-334.81 257.41,-332.66 264.17,-340.81 267.78,-334.81"/>
</g>
<!-- Node10&#45;&gt;Node4 -->
<g id="edge10" class="edge">
<title>Node10&#45;&gt;Node4</title>
<path fill="none" stroke="midnightblue" d="M155.7,-247.73C158.5,-247.1 161.28,-246.51 164,-246 312.89,-217.92 352.79,-229.8 503,-210 515.15,-208.4 528.17,-206.47 540.47,-204.56"/>
<polygon fill="midnightblue" stroke="midnightblue" points="541.28,-207.98 550.61,-202.96 540.19,-201.06 541.28,-207.98"/>
</g>
<!-- Node11 -->
<g id="node11" class="node">
<title>Node11</title>
<g id="a_node11"><a xlink:href="job_8hpp.html" target="_top" xlink:title=" ">
<polygon fill="none" stroke="black" points="178.5,-185 178.5,-204 271.5,-204 271.5,-185 178.5,-185"/>
<text text-anchor="middle" x="225" y="-192" font-family="Helvetica,sans-Serif" font-size="10.00">yaclib/exe/job.hpp</text>
</a>
</g>
</g>
<!-- Node10&#45;&gt;Node11 -->
<g id="edge11" class="edge">
<title>Node10&#45;&gt;Node11</title>
<path fill="none" stroke="midnightblue" d="M135.74,-246.4C155.21,-235.29 182.17,-219.92 201.35,-208.98"/>
<polygon fill="midnightblue" stroke="midnightblue" points="203.13,-212 210.08,-204.01 199.66,-205.92 203.13,-212"/>
</g>
<!-- Node10&#45;&gt;Node12 -->
<g id="edge19" class="edge">
<title>Node10&#45;&gt;Node12</title>
<path fill="none" stroke="midnightblue" d="M111,-246.27C111,-211.94 111,-124.57 111,-85.9"/>
<polygon fill="midnightblue" stroke="midnightblue" points="114.5,-85.58 111,-75.58 107.5,-85.58 114.5,-85.58"/>
</g>
<!-- Node11&#45;&gt;Node12 -->
<g id="edge12" class="edge">
<title>Node11&#45;&gt;Node12</title>
<path fill="none" stroke="midnightblue" d="M215.7,-184.82C205.26,-174.96 187.97,-158.26 174,-143 156.01,-123.34 136.63,-99.53 124.19,-83.86"/>
<polygon fill="midnightblue" stroke="midnightblue" points="126.67,-81.35 117.73,-75.67 121.17,-85.68 126.67,-81.35"/>
</g>
<!-- Node14 -->
<g id="node14" class="node">
<title>Node14</title>
<g id="a_node14"><a xlink:href="node_8hpp.html" target="_top" xlink:title=" ">
<polygon fill="none" stroke="black" points="183.5,-112.5 183.5,-142.5 266.5,-142.5 266.5,-112.5 183.5,-112.5"/>
<text text-anchor="start" x="191.5" y="-130.5" font-family="Helvetica,sans-Serif" font-size="10.00">yaclib/util/detail</text>
<text text-anchor="middle" x="225" y="-119.5" font-family="Helvetica,sans-Serif" font-size="10.00">/node.hpp</text>
</a>
</g>
</g>
<!-- Node11&#45;&gt;Node14 -->
<g id="edge14" class="edge">
<title>Node11&#45;&gt;Node14</title>
<path fill="none" stroke="midnightblue" d="M225,-184.73C225,-176.54 225,-163.92 225,-152.71"/>
<polygon fill="midnightblue" stroke="midnightblue" points="228.5,-152.59 225,-142.59 221.5,-152.59 228.5,-152.59"/>
</g>
<!-- Node15 -->
<g id="node15" class="node">
<title>Node15</title>
<g id="a_node15"><a xlink:href="func_8hpp.html" target="_top" xlink:title=" ">
<polygon fill="none" stroke="black" points="494.5,-118 494.5,-137 591.5,-137 591.5,-118 494.5,-118"/>
<text text-anchor="middle" x="543" y="-125" font-family="Helvetica,sans-Serif" font-size="10.00">yaclib/util/func.hpp</text>
</a>
</g>
</g>
<!-- Node11&#45;&gt;Node15 -->
<g id="edge15" class="edge">
<title>Node11&#45;&gt;Node15</title>
<path fill="none" stroke="midnightblue" d="M266.9,-184.94C324.65,-173.13 428.66,-151.87 491.21,-139.09"/>
<polygon fill="midnightblue" stroke="midnightblue" points="492.16,-142.46 501.26,-137.03 490.76,-135.61 492.16,-142.46"/>
</g>
<!-- Node13 -->
<g id="node13" class="node">
<title>Node13</title>
<g id="a_node13"><a xlink:title=" ">
<polygon fill="none" stroke="#bfbfbf" points="78,-0.5 78,-19.5 144,-19.5 144,-0.5 78,-0.5"/>
<text text-anchor="middle" x="111" y="-7.5" font-family="Helvetica,sans-Serif" font-size="10.00">string_view</text>
</a>
</g>
</g>
<!-- Node12&#45;&gt;Node13 -->
<g id="edge13" class="edge">
<title>Node12&#45;&gt;Node13</title>
<path fill="none" stroke="midnightblue" d="M111,-56.08C111,-49.01 111,-38.86 111,-29.99"/>
<polygon fill="midnightblue" stroke="midnightblue" points="114.5,-29.75 111,-19.75 107.5,-29.75 114.5,-29.75"/>
</g>
<!-- Node15&#45;&gt;Node6 -->
<g id="edge17" class="edge">
<title>Node15&#45;&gt;Node6</title>
<path fill="none" stroke="midnightblue" d="M562.2,-117.98C584.79,-107.95 622.5,-91.2 648.5,-79.65"/>
<polygon fill="midnightblue" stroke="midnightblue" points="650.12,-82.77 657.84,-75.51 647.28,-76.37 650.12,-82.77"/>
</g>
<!-- Node15&#45;&gt;Node7 -->
<g id="edge18" class="edge">
<title>Node15&#45;&gt;Node7</title>
<path fill="none" stroke="midnightblue" d="M591.74,-121.95C717.37,-110.24 1049.47,-79.27 1151.05,-69.79"/>
<polygon fill="midnightblue" stroke="midnightblue" points="1151.58,-73.26 1161.22,-68.85 1150.93,-66.29 1151.58,-73.26"/>
</g>
<!-- Node15&#45;&gt;Node16 -->
<g id="edge16" class="edge">
<title>Node15&#45;&gt;Node16</title>
<path fill="none" stroke="midnightblue" d="M531.97,-117.98C519.73,-108.52 499.77,-93.1 485.01,-81.69"/>
<polygon fill="midnightblue" stroke="midnightblue" points="487.06,-78.85 477.01,-75.51 482.78,-84.39 487.06,-78.85"/>
</g>
<!-- Node17&#45;&gt;Node11 -->
<g id="edge22" class="edge">
<title>Node17&#45;&gt;Node11</title>
<path fill="none" stroke="midnightblue" d="M231.06,-251.73C230.03,-242.18 228.35,-226.62 227.02,-214.28"/>
<polygon fill="midnightblue" stroke="midnightblue" points="230.48,-213.7 225.93,-204.13 223.52,-214.44 230.48,-213.7"/>
</g>
<!-- Node17&#45;&gt;Node18 -->
<g id="edge23" class="edge">
<title>Node17&#45;&gt;Node18</title>
<path fill="none" stroke="midnightblue" d="M260.42,-251.87C293.36,-241.86 348.46,-225.13 390.08,-212.48"/>
<polygon fill="midnightblue" stroke="midnightblue" points="391.26,-215.78 399.82,-209.53 389.23,-209.09 391.26,-215.78"/>
</g>
<!-- Node18&#45;&gt;Node6 -->
<g id="edge25" class="edge">
<title>Node18&#45;&gt;Node6</title>
<path fill="none" stroke="midnightblue" d="M494.84,-180.13C532.87,-169.23 582.11,-153.92 600,-143 626.08,-127.09 650.1,-100.72 664.15,-83.6"/>
<polygon fill="midnightblue" stroke="midnightblue" points="667.04,-85.59 670.55,-75.6 661.57,-81.22 667.04,-85.59"/>
</g>
<!-- Node18&#45;&gt;Node16 -->
<g id="edge24" class="edge">
<title>Node18&#45;&gt;Node16</title>
<path fill="none" stroke="midnightblue" d="M448.22,-179.48C451.83,-156.62 459,-111.3 463.04,-85.71"/>
<polygon fill="midnightblue" stroke="midnightblue" points="466.51,-86.21 464.61,-75.79 459.59,-85.12 466.51,-86.21"/>
</g>
<!-- Node19 -->
<g id="node19" class="node">
<title>Node19</title>
<g id="a_node19"><a xlink:href="intrusive__ptr__impl_8hpp.html" target="_top" xlink:title=" ">
<polygon fill="none" stroke="black" points="324,-112.5 324,-142.5 438,-142.5 438,-112.5 324,-112.5"/>
<text text-anchor="start" x="332" y="-130.5" font-family="Helvetica,sans-Serif" font-size="10.00">yaclib/util/detail</text>
<text text-anchor="middle" x="381" y="-119.5" font-family="Helvetica,sans-Serif" font-size="10.00">/intrusive_ptr_impl.hpp</text>
</a>
</g>
</g>
<!-- Node18&#45;&gt;Node19 -->
<g id="edge26" class="edge">
<title>Node18&#45;&gt;Node19</title>
<path fill="none" stroke="midnightblue" d="M431.9,-179.4C423.21,-170.71 411.9,-159.4 402.16,-149.66"/>
<polygon fill="midnightblue" stroke="midnightblue" points="404.62,-147.17 395.08,-142.58 399.67,-152.12 404.62,-147.17"/>
</g>
<!-- Node19&#45;&gt;Node12 -->
<g id="edge27" class="edge">
<title>Node19&#45;&gt;Node12</title>
<path fill="none" stroke="midnightblue" d="M323.74,-113.88C274.67,-103.07 204.8,-87.67 158.71,-77.51"/>
<polygon fill="midnightblue" stroke="midnightblue" points="159.19,-74.04 148.68,-75.3 157.69,-80.87 159.19,-74.04"/>
</g>
<!-- Node20&#45;&gt;Node5 -->
<g id="edge30" class="edge">
<title>Node20&#45;&gt;Node5</title>
<path fill="none" stroke="midnightblue" d="M517.58,-313.34C514.09,-288.95 507.75,-218.86 542,-179 552.45,-166.84 762.64,-104.44 851.68,-78.42"/>
<polygon fill="midnightblue" stroke="midnightblue" points="852.8,-81.74 861.42,-75.58 850.84,-75.02 852.8,-81.74"/>
</g>
<!-- Node20&#45;&gt;Node17 -->
<g id="edge29" class="edge">
<title>Node20&#45;&gt;Node17</title>
<path fill="none" stroke="midnightblue" d="M477.88,-313.48C426.52,-302.83 338.64,-284.61 283.04,-273.08"/>
<polygon fill="midnightblue" stroke="midnightblue" points="283.55,-269.61 273.04,-271.01 282.13,-276.47 283.55,-269.61"/>
</g>
<!-- Node24&#45;&gt;Node5 -->
<g id="edge38" class="edge">
<title>Node24&#45;&gt;Node5</title>
<path fill="none" stroke="midnightblue" d="M983.6,-251.94C977.73,-242.19 968.58,-225.58 964,-210 951.65,-167.95 975.06,-149.87 953,-112 945.19,-98.59 931.62,-88.06 919.16,-80.56"/>
<polygon fill="midnightblue" stroke="midnightblue" points="920.82,-77.48 910.39,-75.64 917.4,-83.59 920.82,-77.48"/>
</g>
<!-- Node24&#45;&gt;Node7 -->
<g id="edge48" class="edge">
<title>Node24&#45;&gt;Node7</title>
<path fill="none" stroke="midnightblue" d="M1040.19,-253.56C1089.54,-245.71 1159.17,-231.2 1176,-210 1204.62,-173.94 1194.43,-115.15 1186.61,-85.44"/>
<polygon fill="midnightblue" stroke="midnightblue" points="1189.91,-84.25 1183.82,-75.58 1183.18,-86.15 1189.91,-84.25"/>
</g>
<!-- Node25 -->
<g id="node25" class="node">
<title>Node25</title>
<g id="a_node25"><a xlink:href="type__traits_8hpp.html" target="_top" xlink:title=" ">
<polygon fill="none" stroke="black" points="972.5,-185 972.5,-204 1095.5,-204 1095.5,-185 972.5,-185"/>
<text text-anchor="middle" x="1034" y="-192" font-family="Helvetica,sans-Serif" font-size="10.00">yaclib/util/type_traits.hpp</text>
</a>
</g>
</g>
<!-- Node24&#45;&gt;Node25 -->
<g id="edge39" class="edge">
<title>Node24&#45;&gt;Node25</title>
<path fill="none" stroke="midnightblue" d="M995.07,-251.73C1002.02,-241.7 1013.57,-225.01 1022.29,-212.42"/>
<polygon fill="midnightblue" stroke="midnightblue" points="1025.21,-214.34 1028.03,-204.13 1019.46,-210.36 1025.21,-214.34"/>
</g>
<!-- Node27 -->
<g id="node27" class="node">
<title>Node27</title>
<g id="a_node27"><a xlink:title=" ">
<polygon fill="none" stroke="#bfbfbf" points="1076,-118 1076,-137 1134,-137 1134,-118 1076,-118"/>
<text text-anchor="middle" x="1105" y="-125" font-family="Helvetica,sans-Serif" font-size="10.00">exception</text>
</a>
</g>
</g>
<!-- Node24&#45;&gt;Node27 -->
<g id="edge47" class="edge">
<title>Node24&#45;&gt;Node27</title>
<path fill="none" stroke="midnightblue" d="M1038.7,-251.98C1063.06,-245.04 1090.25,-232.5 1105,-210 1117.27,-191.28 1114.38,-164.58 1110.37,-146.91"/>
<polygon fill="midnightblue" stroke="midnightblue" points="1113.76,-146.03 1107.86,-137.22 1106.98,-147.78 1113.76,-146.03"/>
</g>
<!-- Node28 -->
<g id="node28" class="node">
<title>Node28</title>
<g id="a_node28"><a xlink:title=" ">
<polygon fill="none" stroke="#bfbfbf" points="870,-185 870,-204 916,-204 916,-185 870,-185"/>
<text text-anchor="middle" x="893" y="-192" font-family="Helvetica,sans-Serif" font-size="10.00">variant</text>
</a>
</g>
</g>
<!-- Node24&#45;&gt;Node28 -->
<g id="edge49" class="edge">
<title>Node24&#45;&gt;Node28</title>
<path fill="none" stroke="midnightblue" d="M976.05,-251.73C960.15,-240.96 932.95,-222.55 914.03,-209.74"/>
<polygon fill="midnightblue" stroke="midnightblue" points="915.98,-206.84 905.74,-204.13 912.06,-212.63 915.98,-206.84"/>
</g>
<!-- Node25&#45;&gt;Node5 -->
<g id="edge40" class="edge">
<title>Node25&#45;&gt;Node5</title>
<path fill="none" stroke="midnightblue" d="M1030.86,-184.75C1024.64,-168.48 1009.27,-133.27 986,-112 969.82,-97.22 947.92,-86.4 929.23,-79.08"/>
<polygon fill="midnightblue" stroke="midnightblue" points="930.38,-75.78 919.79,-75.57 927.94,-82.34 930.38,-75.78"/>
</g>
<!-- Node25&#45;&gt;Node6 -->
<g id="edge45" class="edge">
<title>Node25&#45;&gt;Node6</title>
<path fill="none" stroke="midnightblue" d="M986.71,-184.96C944.58,-176.62 881.63,-162.37 829,-143 781.73,-125.61 729.92,-97.62 700.64,-80.9"/>
<polygon fill="midnightblue" stroke="midnightblue" points="702.02,-77.65 691.61,-75.69 698.52,-83.72 702.02,-77.65"/>
</g>
<!-- Node25&#45;&gt;Node7 -->
<g id="edge46" class="edge">
<title>Node25&#45;&gt;Node7</title>
<path fill="none" stroke="midnightblue" d="M1035.25,-184.63C1038.03,-168.16 1046.18,-132.63 1067,-112 1090.11,-89.09 1126.29,-77.49 1151.68,-71.87"/>
<polygon fill="midnightblue" stroke="midnightblue" points="1152.4,-75.3 1161.5,-69.87 1151,-68.44 1152.4,-75.3"/>
</g>
<!-- Node26 -->
<g id="node26" class="node">
<title>Node26</title>
<g id="a_node26"><a xlink:href="type__traits__impl_8hpp.html" target="_top" xlink:title=" ">
<polygon fill="none" stroke="black" points="838,-112.5 838,-142.5 944,-142.5 944,-112.5 838,-112.5"/>
<text text-anchor="start" x="846" y="-130.5" font-family="Helvetica,sans-Serif" font-size="10.00">yaclib/util/detail</text>
<text text-anchor="middle" x="891" y="-119.5" font-family="Helvetica,sans-Serif" font-size="10.00">/type_traits_impl.hpp</text>
</a>
</g>
</g>
<!-- Node25&#45;&gt;Node26 -->
<g id="edge41" class="edge">
<title>Node25&#45;&gt;Node26</title>
<path fill="none" stroke="midnightblue" d="M1015.01,-184.87C993.74,-175.2 958.65,-159.25 931.21,-146.78"/>
<polygon fill="midnightblue" stroke="midnightblue" points="932.41,-143.48 921.86,-142.53 929.52,-149.85 932.41,-143.48"/>
</g>
<!-- Node25&#45;&gt;Node27 -->
<g id="edge44" class="edge">
<title>Node25&#45;&gt;Node27</title>
<path fill="none" stroke="midnightblue" d="M1043.58,-184.73C1054.97,-174.31 1074.19,-156.71 1088.1,-143.97"/>
<polygon fill="midnightblue" stroke="midnightblue" points="1090.56,-146.46 1095.58,-137.13 1085.84,-141.3 1090.56,-146.46"/>
</g>
<!-- Node26&#45;&gt;Node5 -->
<g id="edge42" class="edge">
<title>Node26&#45;&gt;Node5</title>
<path fill="none" stroke="midnightblue" d="M891,-112.4C891,-104.47 891,-94.46 891,-85.86"/>
<polygon fill="midnightblue" stroke="midnightblue" points="894.5,-85.66 891,-75.66 887.5,-85.66 894.5,-85.66"/>
</g>
<!-- Node26&#45;&gt;Node6 -->
<g id="edge43" class="edge">
<title>Node26&#45;&gt;Node6</title>
<path fill="none" stroke="midnightblue" d="M840.56,-112.47C802.99,-102.03 752.38,-87.96 717.45,-78.25"/>
<polygon fill="midnightblue" stroke="midnightblue" points="718.17,-74.81 707.59,-75.51 716.29,-81.56 718.17,-74.81"/>
</g>
</g>
</svg>
        <g id="navigator" transform="translate(0 0)" fill="#404254">
                <rect fill="#f2f5e9" fill-opacity="0.5" stroke="#606060" stroke-width=".5" x="0" y="0" width="60" height="60"/>
                <use id="zoomplus" xlink:href="#zoomPlus" x="17" y="9" onmousedown="handleZoom(evt,'in')"/>
                <use id="zoomminus" xlink:href="#zoomMin" x="42" y="9" onmousedown="handleZoom(evt,'out')"/>
                <use id="reset" xlink:href="#resetDef" x="30" y="36" onmousedown="handleReset()"/>
                <g id="arrowUp" xlink:href="#dirArrow" transform="translate(30 24)" onmousedown="handlePan(0,-1)">
                  <use xlink:href="#rim" fill="#404040">
                        <set attributeName="fill" to="#808080" begin="arrowUp.mouseover" end="arrowUp.mouseout"/>
                  </use>
                  <path fill="none" stroke="white" stroke-width="1.5" d="M0,-3.0v7 M-2.5,-0.5L0,-3.0L2.5,-0.5"/>
                </g>
                <g id="arrowRight" xlink:href="#dirArrow" transform="rotate(90) translate(36 -43)" onmousedown="handlePan(1,0)">
                  <use xlink:href="#rim" fill="#404040">
                        <set attributeName="fill" to="#808080" begin="arrowRight.mouseover" end="arrowRight.mouseout"/>
                  </use>
                  <path fill="none" stroke="white" stroke-width="1.5" d="M0,-3.0v7 M-2.5,-0.5L0,-3.0L2.5,-0.5"/>
                </g>
                <g id="arrowDown" xlink:href="#dirArrow" transform="rotate(180) translate(-30 -48)" onmousedown="handlePan(0,1)">
                  <use xlink:href="#rim" fill="#404040">
                        <set attributeName="fill" to="#808080" begin="arrowDown.mouseover" end="arrowDown.mouseout"/>
                  </use>
                  <path fill="none" stroke="white" stroke-width="1.5" d="M0,-3.0v7 M-2.5,-0.5L0,-3.0L2.5,-0.5"/>
                </g>
                <g id="arrowLeft" xlink:href="#dirArrow" transform="rotate(270) translate(-36 17)" onmousedown="handlePan(-1,0)">
                  <use xlink:href="#rim" fill="#404040">
                        <set attributeName="fill" to="#808080" begin="arrowLeft.mouseover" end="arrowLeft.mouseout"/>
                  </use>
                  <path fill="none" stroke="white" stroke-width="1.5" d="M0,-3.0v7 M-2.5,-0.5L0,-3.0L2.5,-0.5"/>
                </g>
        </g>
        <svg viewBox="0 0 15 15" width="100%" height="30px" preserveAspectRatio="xMaxYMin meet">
         <g id="arrow_out" transform="scale(0.3 0.3)">
          <a xlink:href="task__impl_8hpp__incl_org.svg" target="_base">
           <rect id="button" ry="5" rx="5" y="6" x="6" height="38" width="38"
                fill="#f2f5e9" fill-opacity="0.5" stroke="#606060" stroke-width="1.0"/>
           <path id="arrow"
             d="M 11.500037,31.436501 C 11.940474,20.09759 22.043105,11.32322 32.158766,21.979434 L 37.068811,17.246167 C 37.068811,17.246167 37.088388,32 37.088388,32 L 22.160133,31.978069 C 22.160133,31.978069 26.997745,27.140456 26.997745,27.140456 C 18.528582,18.264221 13.291696,25.230495 11.500037,31.436501 z"
             style="fill:#404040;"/>
          </a>
         </g>
        </svg>
</svg>
