<?xml version="1.0" encoding="UTF-8" standalone="no"?>
<!DOCTYPE svg PUBLIC "-//W3C//DTD SVG 1.1//EN"
 "http://www.w3.org/Graphics/SVG/1.1/DTD/svg11.dtd">
<!-- Generated by graphviz version 3.0.0 (20220413.0242)
 -->
<!-- Title: include/yaclib/async/task.hpp Pages: 1 -->
<!--zoomable 486 -->
<svg id="main" version="1.1" xmlns="http://www.w3.org/2000/svg" xmlns:xlink="http://www.w3.org/1999/xlink" xml:space="preserve" onload="init(evt)">
<style type="text/css"><![CDATA[
.edge:hover path { stroke: red; }
.edge:hover polygon { stroke: red; fill: red; }
]]></style>
<script type="text/javascript"><![CDATA[
var edges = document.getElementsByTagName('g');
if (edges && edges.length) {
  for (var i=0;i<edges.length;i++) {
    if (edges[i].id.substr(0,4)=='edge') {
      edges[i].setAttribute('class','edge');
    }
  }
}
]]></script>
        <defs>
                <circle id="rim" cx="0" cy="0" r="7"/>
                <circle id="rim2" cx="0" cy="0" r="3.5"/>
                <g id="zoomPlus">
                        <use xlink:href="#rim" fill="#404040">
                                <set attributeName="fill" to="#808080" begin="zoomplus.mouseover" end="zoomplus.mouseout"/>
                        </use>
                        <path d="M-4,0h8M0,-4v8" fill="none" stroke="white" stroke-width="1.5" pointer-events="none"/>
                </g>
                <g id="zoomMin">
                        <use xlink:href="#rim" fill="#404040">
                                <set attributeName="fill" to="#808080" begin="zoomminus.mouseover" end="zoomminus.mouseout"/>
                        </use>
                        <path d="M-4,0h8" fill="none" stroke="white" stroke-width="1.5" pointer-events="none"/>
                </g>
                <g id="dirArrow">
                        <path fill="none" stroke="white" stroke-width="1.5" d="M0,-3.0v7 M-2.5,-0.5L0,-3.0L2.5,-0.5"/>
                </g>
               <g id="resetDef">
                       <use xlink:href="#rim2" fill="#404040">
                               <set attributeName="fill" to="#808080" begin="reset.mouseover" end="reset.mouseout"/>
                       </use>
               </g>
        </defs>

<script type="text/javascript">
var viewWidth = 1142;
var viewHeight = 486;
var sectionId = 'dynsection-0';
</script>
<script xlink:href="svgpan.js"/>
<svg id="graph" class="graph">
<g id="viewport">
<title>include/yaclib/async/task.hpp</title>
<!-- Node1 -->
<g id="node1" class="node">
<title>Node1</title>
<g id="a_node1"><a xlink:title=" ">
<polygon fill="#bfbfbf" stroke="black" points="537.31,-447.5 537.31,-477.5 641.31,-477.5 641.31,-447.5 537.31,-447.5"/>
<text text-anchor="start" x="545.31" y="-465.5" font-family="Helvetica,sans-Serif" font-size="10.00">include/yaclib/async</text>
<text text-anchor="middle" x="589.31" y="-454.5" font-family="Helvetica,sans-Serif" font-size="10.00">/task.hpp</text>
</a>
</g>
</g>
<!-- Node2 -->
<g id="node2" class="node">
<title>Node2</title>
<g id="a_node2"><a xlink:href="result__core_8hpp.html" target="_top" xlink:title=" ">
<polygon fill="none" stroke="black" points="482.31,-380.5 482.31,-410.5 578.31,-410.5 578.31,-380.5 482.31,-380.5"/>
<text text-anchor="start" x="490.31" y="-398.5" font-family="Helvetica,sans-Serif" font-size="10.00">yaclib/async/detail</text>
<text text-anchor="middle" x="530.31" y="-387.5" font-family="Helvetica,sans-Serif" font-size="10.00">/result_core.hpp</text>
</a>
</g>
</g>
<!-- Node1&#45;&gt;Node2 -->
<g id="edge1" class="edge">
<title>Node1&#45;&gt;Node2</title>
<path fill="none" stroke="midnightblue" d="M576.51,-447.4C568.78,-438.88 558.76,-427.85 550.04,-418.23"/>
<polygon fill="midnightblue" stroke="midnightblue" points="552.4,-415.63 543.09,-410.58 547.22,-420.33 552.4,-415.63"/>
</g>
<!-- Node20 -->
<g id="node20" class="node">
<title>Node20</title>
<g id="a_node20"><a xlink:href="type__traits_8hpp.html" target="_top" xlink:title=" ">
<polygon fill="none" stroke="black" points="4.81,-252 4.81,-271 127.81,-271 127.81,-252 4.81,-252"/>
<text text-anchor="middle" x="66.31" y="-259" font-family="Helvetica,sans-Serif" font-size="10.00">yaclib/util/type_traits.hpp</text>
</a>
</g>
</g>
<!-- Node1&#45;&gt;Node20 -->
<g id="edge47" class="edge">
<title>Node1&#45;&gt;Node20</title>
<path fill="none" stroke="midnightblue" d="M537.2,-461.81C442.66,-459.77 240.72,-443.13 111.31,-344 90.5,-328.06 78,-299.61 71.63,-280.9"/>
<polygon fill="midnightblue" stroke="midnightblue" points="74.91,-279.66 68.57,-271.17 68.23,-281.76 74.91,-279.66"/>
</g>
<!-- Node25 -->
<g id="node25" class="node">
<title>Node25</title>
<g id="a_node25"><a xlink:title=" ">
<polygon fill="none" stroke="#bfbfbf" points="718.81,-386 718.81,-405 835.81,-405 835.81,-386 718.81,-386"/>
<text text-anchor="middle" x="777.31" y="-393" font-family="Helvetica,sans-Serif" font-size="10.00">yaclib/exe/executor.hpp</text>
</a>
</g>
</g>
<!-- Node1&#45;&gt;Node25 -->
<g id="edge36" class="edge">
<title>Node1&#45;&gt;Node25</title>
<path fill="none" stroke="midnightblue" d="M630.1,-447.4C663.82,-435.74 711.15,-419.37 742.96,-408.38"/>
<polygon fill="midnightblue" stroke="midnightblue" points="744.4,-411.58 752.7,-405.01 742.11,-404.97 744.4,-411.58"/>
</g>
<!-- Node26 -->
<g id="node26" class="node">
<title>Node26</title>
<g id="a_node26"><a xlink:href="helper_8hpp.html" target="_top" xlink:title=" ">
<polygon fill="none" stroke="black" points="596.31,-386 596.31,-405 700.31,-405 700.31,-386 596.31,-386"/>
<text text-anchor="middle" x="648.31" y="-393" font-family="Helvetica,sans-Serif" font-size="10.00">yaclib/util/helper.hpp</text>
</a>
</g>
</g>
<!-- Node1&#45;&gt;Node26 -->
<g id="edge37" class="edge">
<title>Node1&#45;&gt;Node26</title>
<path fill="none" stroke="midnightblue" d="M602.11,-447.4C611.4,-437.16 623.99,-423.3 633.68,-412.62"/>
<polygon fill="midnightblue" stroke="midnightblue" points="636.29,-414.95 640.42,-405.19 631.11,-410.25 636.29,-414.95"/>
</g>
<!-- Node3 -->
<g id="node3" class="node">
<title>Node3</title>
<g id="a_node3"><a xlink:href="base__core_8hpp.html" target="_top" xlink:title=" ">
<polygon fill="none" stroke="black" points="482.31,-313.5 482.31,-343.5 578.31,-343.5 578.31,-313.5 482.31,-313.5"/>
<text text-anchor="start" x="490.31" y="-331.5" font-family="Helvetica,sans-Serif" font-size="10.00">yaclib/async/detail</text>
<text text-anchor="middle" x="530.31" y="-320.5" font-family="Helvetica,sans-Serif" font-size="10.00">/base_core.hpp</text>
</a>
</g>
</g>
<!-- Node2&#45;&gt;Node3 -->
<g id="edge2" class="edge">
<title>Node2&#45;&gt;Node3</title>
<path fill="none" stroke="midnightblue" d="M530.31,-380.4C530.31,-372.64 530.31,-362.81 530.31,-353.86"/>
<polygon fill="midnightblue" stroke="midnightblue" points="533.81,-353.58 530.31,-343.58 526.81,-353.58 533.81,-353.58"/>
</g>
<!-- Node4 -->
<g id="node4" class="node">
<title>Node4</title>
<g id="a_node4"><a xlink:href="inline__core_8hpp.html" target="_top" xlink:title=" ">
<polygon fill="none" stroke="black" points="558.31,-246.5 558.31,-276.5 654.31,-276.5 654.31,-246.5 558.31,-246.5"/>
<text text-anchor="start" x="566.31" y="-264.5" font-family="Helvetica,sans-Serif" font-size="10.00">yaclib/async/detail</text>
<text text-anchor="middle" x="606.31" y="-253.5" font-family="Helvetica,sans-Serif" font-size="10.00">/inline_core.hpp</text>
</a>
</g>
</g>
<!-- Node2&#45;&gt;Node4 -->
<g id="edge23" class="edge">
<title>Node2&#45;&gt;Node4</title>
<path fill="none" stroke="midnightblue" d="M552.03,-380.36C564.17,-371.36 578.58,-358.65 587.31,-344 597.68,-326.6 602.39,-303.97 604.53,-286.97"/>
<polygon fill="midnightblue" stroke="midnightblue" points="608.04,-287.04 605.6,-276.73 601.08,-286.31 608.04,-287.04"/>
</g>
<!-- Node10 -->
<g id="node10" class="node">
<title>Node10</title>
<g id="a_node10"><a xlink:title=" ">
<polygon fill="none" stroke="#bfbfbf" points="768.81,-56.5 768.81,-75.5 807.81,-75.5 807.81,-56.5 768.81,-56.5"/>
<text text-anchor="middle" x="788.31" y="-63.5" font-family="Helvetica,sans-Serif" font-size="10.00">utility</text>
</a>
</g>
</g>
<!-- Node2&#45;&gt;Node10 -->
<g id="edge35" class="edge">
<title>Node2&#45;&gt;Node10</title>
<path fill="none" stroke="midnightblue" d="M578.53,-380.51C653.21,-357.38 788.31,-309.1 788.31,-262.5 788.31,-262.5 788.31,-262.5 788.31,-193.5 788.31,-155.2 788.31,-110.38 788.31,-85.7"/>
<polygon fill="midnightblue" stroke="midnightblue" points="791.81,-85.59 788.31,-75.59 784.81,-85.59 791.81,-85.59"/>
</g>
<!-- Node14 -->
<g id="node14" class="node">
<title>Node14</title>
<g id="a_node14"><a xlink:href="intrusive__ptr_8hpp.html" target="_top" xlink:title=" ">
<polygon fill="none" stroke="black" points="273.81,-179.5 273.81,-209.5 370.81,-209.5 370.81,-179.5 273.81,-179.5"/>
<text text-anchor="start" x="281.81" y="-197.5" font-family="Helvetica,sans-Serif" font-size="10.00">yaclib/util/intrusive</text>
<text text-anchor="middle" x="322.31" y="-186.5" font-family="Helvetica,sans-Serif" font-size="10.00">_ptr.hpp</text>
</a>
</g>
</g>
<!-- Node2&#45;&gt;Node14 -->
<g id="edge24" class="edge">
<title>Node2&#45;&gt;Node14</title>
<path fill="none" stroke="midnightblue" d="M482.16,-391.73C417.28,-386.87 307.05,-374.29 282.31,-344 254.75,-310.27 267.99,-287.14 282.31,-246 285.95,-235.54 292.76,-225.62 299.74,-217.38"/>
<polygon fill="midnightblue" stroke="midnightblue" points="302.53,-219.51 306.66,-209.75 297.35,-214.81 302.53,-219.51"/>
</g>
<!-- Node19 -->
<g id="node19" class="node">
<title>Node19</title>
<g id="a_node19"><a xlink:href="result_8hpp.html" target="_top" xlink:title=" ">
<polygon fill="none" stroke="black" points="120.31,-319 120.31,-338 222.31,-338 222.31,-319 120.31,-319"/>
<text text-anchor="middle" x="171.31" y="-326" font-family="Helvetica,sans-Serif" font-size="10.00">yaclib/util/result.hpp</text>
</a>
</g>
</g>
<!-- Node2&#45;&gt;Node19 -->
<g id="edge25" class="edge">
<title>Node2&#45;&gt;Node19</title>
<path fill="none" stroke="midnightblue" d="M482.18,-386.32C425.3,-376.59 327.81,-359.66 244.31,-344 237.57,-342.74 230.49,-341.37 223.49,-340.01"/>
<polygon fill="midnightblue" stroke="midnightblue" points="223.84,-336.51 213.36,-338.01 222.49,-343.38 223.84,-336.51"/>
</g>
<!-- Node3&#45;&gt;Node4 -->
<g id="edge3" class="edge">
<title>Node3&#45;&gt;Node4</title>
<path fill="none" stroke="midnightblue" d="M546.8,-313.4C557.16,-304.54 570.69,-292.96 582.24,-283.09"/>
<polygon fill="midnightblue" stroke="midnightblue" points="584.53,-285.74 589.85,-276.58 579.98,-280.42 584.53,-285.74"/>
</g>
<!-- Node8 -->
<g id="node8" class="node">
<title>Node8</title>
<g id="a_node8"><a xlink:href="ref_8hpp.html" target="_top" xlink:title=" ">
<polygon fill="none" stroke="black" points="480.81,-56.5 480.81,-75.5 569.81,-75.5 569.81,-56.5 480.81,-56.5"/>
<text text-anchor="middle" x="525.31" y="-63.5" font-family="Helvetica,sans-Serif" font-size="10.00">yaclib/util/ref.hpp</text>
</a>
</g>
</g>
<!-- Node3&#45;&gt;Node8 -->
<g id="edge21" class="edge">
<title>Node3&#45;&gt;Node8</title>
<path fill="none" stroke="midnightblue" d="M530.04,-313.49C529.2,-269.76 526.63,-135.7 525.67,-85.89"/>
<polygon fill="midnightblue" stroke="midnightblue" points="529.17,-85.56 525.48,-75.63 522.17,-85.69 529.17,-85.56"/>
</g>
<!-- Node12 -->
<g id="node12" class="node">
<title>Node12</title>
<g id="a_node12"><a xlink:title=" ">
<polygon fill="none" stroke="#bfbfbf" points="672.31,-252 672.31,-271 760.31,-271 760.31,-252 672.31,-252"/>
<text text-anchor="middle" x="716.31" y="-259" font-family="Helvetica,sans-Serif" font-size="10.00">yaclib/config.hpp</text>
</a>
</g>
</g>
<!-- Node3&#45;&gt;Node12 -->
<g id="edge11" class="edge">
<title>Node3&#45;&gt;Node12</title>
<path fill="none" stroke="midnightblue" d="M570.67,-313.4C604.03,-301.74 650.86,-285.37 682.33,-274.38"/>
<polygon fill="midnightblue" stroke="midnightblue" points="683.68,-277.61 691.97,-271.01 681.37,-271 683.68,-277.61"/>
</g>
<!-- Node13 -->
<g id="node13" class="node">
<title>Node13</title>
<g id="a_node13"><a xlink:href="executor_8hpp.html" target="_top" xlink:title=" ">
<polygon fill="none" stroke="black" points="362.81,-252 362.81,-271 501.81,-271 501.81,-252 362.81,-252"/>
<text text-anchor="middle" x="432.31" y="-259" font-family="Helvetica,sans-Serif" font-size="10.00">yaclib/executor/executor.hpp</text>
</a>
</g>
</g>
<!-- Node3&#45;&gt;Node13 -->
<g id="edge12" class="edge">
<title>Node3&#45;&gt;Node13</title>
<path fill="none" stroke="midnightblue" d="M509.05,-313.4C492.61,-302.5 469.97,-287.48 453.54,-276.58"/>
<polygon fill="midnightblue" stroke="midnightblue" points="455.4,-273.62 445.14,-271.01 451.53,-279.45 455.4,-273.62"/>
</g>
<!-- Node3&#45;&gt;Node14 -->
<g id="edge20" class="edge">
<title>Node3&#45;&gt;Node14</title>
<path fill="none" stroke="midnightblue" d="M482.17,-325.33C442.96,-321.1 388.5,-309.31 353.31,-277 337.09,-262.11 329.29,-237.83 325.58,-219.64"/>
<polygon fill="midnightblue" stroke="midnightblue" points="329.02,-218.99 323.84,-209.75 322.13,-220.2 329.02,-218.99"/>
</g>
<!-- Node18 -->
<g id="node18" class="node">
<title>Node18</title>
<g id="a_node18"><a xlink:title=" ">
<polygon fill="none" stroke="#bfbfbf" points="816.31,-252 816.31,-271 908.31,-271 908.31,-252 816.31,-252"/>
<text text-anchor="middle" x="862.31" y="-259" font-family="Helvetica,sans-Serif" font-size="10.00">yaclib_std/atomic</text>
</a>
</g>
</g>
<!-- Node3&#45;&gt;Node18 -->
<g id="edge22" class="edge">
<title>Node3&#45;&gt;Node18</title>
<path fill="none" stroke="midnightblue" d="M578.59,-318.05C639.87,-306.05 745.26,-285.42 808.9,-272.96"/>
<polygon fill="midnightblue" stroke="midnightblue" points="809.6,-276.39 818.74,-271.03 808.25,-269.52 809.6,-276.39"/>
</g>
<!-- Node5 -->
<g id="node5" class="node">
<title>Node5</title>
<g id="a_node5"><a xlink:href="job_8hpp.html" target="_top" xlink:title=" ">
<polygon fill="none" stroke="black" points="553.81,-185 553.81,-204 668.81,-204 668.81,-185 553.81,-185"/>
<text text-anchor="middle" x="611.31" y="-192" font-family="Helvetica,sans-Serif" font-size="10.00">yaclib/executor/job.hpp</text>
</a>
</g>
</g>
<!-- Node4&#45;&gt;Node5 -->
<g id="edge4" class="edge">
<title>Node4&#45;&gt;Node5</title>
<path fill="none" stroke="midnightblue" d="M607.39,-246.4C608.12,-236.96 609.08,-224.45 609.87,-214.19"/>
<polygon fill="midnightblue" stroke="midnightblue" points="613.36,-214.43 610.64,-204.19 606.38,-213.9 613.36,-214.43"/>
</g>
<!-- Node11 -->
<g id="node11" class="node">
<title>Node11</title>
<g id="a_node11"><a xlink:title=" ">
<polygon fill="none" stroke="#bfbfbf" points="687.31,-185 687.31,-204 733.31,-204 733.31,-185 687.31,-185"/>
<text text-anchor="middle" x="710.31" y="-192" font-family="Helvetica,sans-Serif" font-size="10.00">cstdint</text>
</a>
</g>
</g>
<!-- Node4&#45;&gt;Node11 -->
<g id="edge10" class="edge">
<title>Node4&#45;&gt;Node11</title>
<path fill="none" stroke="midnightblue" d="M628.88,-246.4C646.32,-235.5 670.34,-220.48 687.78,-209.58"/>
<polygon fill="midnightblue" stroke="midnightblue" points="690.07,-212.28 696.7,-204.01 686.36,-206.34 690.07,-212.28"/>
</g>
<!-- Node6 -->
<g id="node6" class="node">
<title>Node6</title>
<g id="a_node6"><a xlink:href="node_8hpp.html" target="_top" xlink:title=" ">
<polygon fill="none" stroke="black" points="553.81,-112.5 553.81,-142.5 636.81,-142.5 636.81,-112.5 553.81,-112.5"/>
<text text-anchor="start" x="561.81" y="-130.5" font-family="Helvetica,sans-Serif" font-size="10.00">yaclib/util/detail</text>
<text text-anchor="middle" x="595.31" y="-119.5" font-family="Helvetica,sans-Serif" font-size="10.00">/node.hpp</text>
</a>
</g>
</g>
<!-- Node5&#45;&gt;Node6 -->
<g id="edge5" class="edge">
<title>Node5&#45;&gt;Node6</title>
<path fill="none" stroke="midnightblue" d="M609.15,-184.73C607.11,-176.46 603.97,-163.66 601.18,-152.37"/>
<polygon fill="midnightblue" stroke="midnightblue" points="604.57,-151.46 598.78,-142.59 597.77,-153.14 604.57,-151.46"/>
</g>
<!-- Node7 -->
<g id="node7" class="node">
<title>Node7</title>
<g id="a_node7"><a xlink:href="func_8hpp.html" target="_top" xlink:title=" ">
<polygon fill="none" stroke="black" points="654.81,-118 654.81,-137 751.81,-137 751.81,-118 654.81,-118"/>
<text text-anchor="middle" x="703.31" y="-125" font-family="Helvetica,sans-Serif" font-size="10.00">yaclib/util/func.hpp</text>
</a>
</g>
</g>
<!-- Node5&#45;&gt;Node7 -->
<g id="edge6" class="edge">
<title>Node5&#45;&gt;Node7</title>
<path fill="none" stroke="midnightblue" d="M623.72,-184.73C638.89,-174.01 664.79,-155.72 682.91,-142.91"/>
<polygon fill="midnightblue" stroke="midnightblue" points="684.95,-145.76 691.1,-137.13 680.91,-140.04 684.95,-145.76"/>
</g>
<!-- Node7&#45;&gt;Node8 -->
<g id="edge7" class="edge">
<title>Node7&#45;&gt;Node8</title>
<path fill="none" stroke="midnightblue" d="M677.81,-117.98C647.01,-107.68 595.04,-90.31 560.46,-78.75"/>
<polygon fill="midnightblue" stroke="midnightblue" points="561.36,-75.36 550.77,-75.51 559.14,-82 561.36,-75.36"/>
</g>
<!-- Node9 -->
<g id="node9" class="node">
<title>Node9</title>
<g id="a_node9"><a xlink:title=" ">
<polygon fill="none" stroke="#bfbfbf" points="114.31,-56.5 114.31,-75.5 176.31,-75.5 176.31,-56.5 114.31,-56.5"/>
<text text-anchor="middle" x="145.31" y="-63.5" font-family="Helvetica,sans-Serif" font-size="10.00">type_traits</text>
</a>
</g>
</g>
<!-- Node7&#45;&gt;Node9 -->
<g id="edge8" class="edge">
<title>Node7&#45;&gt;Node9</title>
<path fill="none" stroke="midnightblue" d="M672.79,-117.93C663.98,-115.71 654.32,-113.52 645.31,-112 557.24,-97.12 289.69,-77.22 186.51,-69.88"/>
<polygon fill="midnightblue" stroke="midnightblue" points="186.69,-66.38 176.47,-69.17 186.2,-73.37 186.69,-66.38"/>
</g>
<!-- Node7&#45;&gt;Node10 -->
<g id="edge9" class="edge">
<title>Node7&#45;&gt;Node10</title>
<path fill="none" stroke="midnightblue" d="M715.49,-117.98C729.12,-108.43 751.44,-92.81 767.78,-81.37"/>
<polygon fill="midnightblue" stroke="midnightblue" points="769.97,-84.11 776.15,-75.51 765.95,-78.38 769.97,-84.11"/>
</g>
<!-- Node13&#45;&gt;Node5 -->
<g id="edge13" class="edge">
<title>Node13&#45;&gt;Node5</title>
<path fill="none" stroke="midnightblue" d="M456.08,-251.87C487.46,-240.47 542.87,-220.35 578.3,-207.49"/>
<polygon fill="midnightblue" stroke="midnightblue" points="579.52,-210.77 587.73,-204.06 577.13,-204.19 579.52,-210.77"/>
</g>
<!-- Node13&#45;&gt;Node14 -->
<g id="edge14" class="edge">
<title>Node13&#45;&gt;Node14</title>
<path fill="none" stroke="midnightblue" d="M417.47,-251.73C401.54,-242.32 375.7,-227.05 354.97,-214.8"/>
<polygon fill="midnightblue" stroke="midnightblue" points="356.54,-211.66 346.15,-209.59 352.98,-217.69 356.54,-211.66"/>
</g>
<!-- Node14&#45;&gt;Node8 -->
<g id="edge15" class="edge">
<title>Node14&#45;&gt;Node8</title>
<path fill="none" stroke="midnightblue" d="M344.81,-179.48C383.8,-155.18 463.5,-105.52 502.62,-81.14"/>
<polygon fill="midnightblue" stroke="midnightblue" points="504.57,-84.05 511.21,-75.79 500.87,-78.11 504.57,-84.05"/>
</g>
<!-- Node14&#45;&gt;Node9 -->
<g id="edge16" class="edge">
<title>Node14&#45;&gt;Node9</title>
<path fill="none" stroke="midnightblue" d="M302.69,-179.48C268.98,-155.39 200.37,-106.35 165.96,-81.76"/>
<polygon fill="midnightblue" stroke="midnightblue" points="167.78,-78.76 157.61,-75.79 163.71,-84.45 167.78,-78.76"/>
</g>
<!-- Node15 -->
<g id="node15" class="node">
<title>Node15</title>
<g id="a_node15"><a xlink:href="intrusive__ptr__impl_8hpp.html" target="_top" xlink:title=" ">
<polygon fill="none" stroke="black" points="265.31,-112.5 265.31,-142.5 379.31,-142.5 379.31,-112.5 265.31,-112.5"/>
<text text-anchor="start" x="273.31" y="-130.5" font-family="Helvetica,sans-Serif" font-size="10.00">yaclib/util/detail</text>
<text text-anchor="middle" x="322.31" y="-119.5" font-family="Helvetica,sans-Serif" font-size="10.00">/intrusive_ptr_impl.hpp</text>
</a>
</g>
</g>
<!-- Node14&#45;&gt;Node15 -->
<g id="edge17" class="edge">
<title>Node14&#45;&gt;Node15</title>
<path fill="none" stroke="midnightblue" d="M322.31,-179.4C322.31,-171.64 322.31,-161.81 322.31,-152.86"/>
<polygon fill="midnightblue" stroke="midnightblue" points="325.81,-152.58 322.31,-142.58 318.81,-152.58 325.81,-152.58"/>
</g>
<!-- Node16 -->
<g id="node16" class="node">
<title>Node16</title>
<g id="a_node16"><a xlink:href="log_8hpp.html" target="_top" xlink:title=" ">
<polygon fill="none" stroke="black" points="284.81,-56.5 284.81,-75.5 359.81,-75.5 359.81,-56.5 284.81,-56.5"/>
<text text-anchor="middle" x="322.31" y="-63.5" font-family="Helvetica,sans-Serif" font-size="10.00">yaclib/log.hpp</text>
</a>
</g>
</g>
<!-- Node15&#45;&gt;Node16 -->
<g id="edge18" class="edge">
<title>Node15&#45;&gt;Node16</title>
<path fill="none" stroke="midnightblue" d="M322.31,-112.4C322.31,-104.47 322.31,-94.46 322.31,-85.86"/>
<polygon fill="midnightblue" stroke="midnightblue" points="325.81,-85.66 322.31,-75.66 318.81,-85.66 325.81,-85.66"/>
</g>
<!-- Node17 -->
<g id="node17" class="node">
<title>Node17</title>
<g id="a_node17"><a xlink:title=" ">
<polygon fill="none" stroke="#bfbfbf" points="289.31,-0.5 289.31,-19.5 355.31,-19.5 355.31,-0.5 289.31,-0.5"/>
<text text-anchor="middle" x="322.31" y="-7.5" font-family="Helvetica,sans-Serif" font-size="10.00">string_view</text>
</a>
</g>
</g>
<!-- Node16&#45;&gt;Node17 -->
<g id="edge19" class="edge">
<title>Node16&#45;&gt;Node17</title>
<path fill="none" stroke="midnightblue" d="M322.31,-56.08C322.31,-49.01 322.31,-38.86 322.31,-29.99"/>
<polygon fill="midnightblue" stroke="midnightblue" points="325.81,-29.75 322.31,-19.75 318.81,-29.75 325.81,-29.75"/>
</g>
<!-- Node19&#45;&gt;Node20 -->
<g id="edge26" class="edge">
<title>Node19&#45;&gt;Node20</title>
<path fill="none" stroke="midnightblue" d="M157.15,-318.73C139.59,-307.87 109.47,-289.22 88.75,-276.39"/>
<polygon fill="midnightblue" stroke="midnightblue" points="90.59,-273.41 80.25,-271.13 86.91,-279.37 90.59,-273.41"/>
</g>
<!-- Node23 -->
<g id="node23" class="node">
<title>Node23</title>
<g id="a_node23"><a xlink:title=" ">
<polygon fill="none" stroke="#bfbfbf" points="175.31,-185 175.31,-204 233.31,-204 233.31,-185 175.31,-185"/>
<text text-anchor="middle" x="204.31" y="-192" font-family="Helvetica,sans-Serif" font-size="10.00">exception</text>
</a>
</g>
</g>
<!-- Node19&#45;&gt;Node23 -->
<g id="edge33" class="edge">
<title>Node19&#45;&gt;Node23</title>
<path fill="none" stroke="midnightblue" d="M170.42,-318.71C169.17,-303.53 167.82,-271.56 175.31,-246 178.81,-234.07 185.64,-221.94 191.79,-212.57"/>
<polygon fill="midnightblue" stroke="midnightblue" points="194.76,-214.43 197.57,-204.21 189,-210.45 194.76,-214.43"/>
</g>
<!-- Node24 -->
<g id="node24" class="node">
<title>Node24</title>
<g id="a_node24"><a xlink:title=" ">
<polygon fill="none" stroke="#bfbfbf" points="184.31,-252 184.31,-271 230.31,-271 230.31,-252 184.31,-252"/>
<text text-anchor="middle" x="207.31" y="-259" font-family="Helvetica,sans-Serif" font-size="10.00">variant</text>
</a>
</g>
</g>
<!-- Node19&#45;&gt;Node24 -->
<g id="edge34" class="edge">
<title>Node19&#45;&gt;Node24</title>
<path fill="none" stroke="midnightblue" d="M176.16,-318.73C181.62,-308.89 190.61,-292.66 197.53,-280.16"/>
<polygon fill="midnightblue" stroke="midnightblue" points="200.75,-281.57 202.53,-271.13 194.62,-278.18 200.75,-281.57"/>
</g>
<!-- Node20&#45;&gt;Node9 -->
<g id="edge32" class="edge">
<title>Node20&#45;&gt;Node9</title>
<path fill="none" stroke="midnightblue" d="M48.7,-251.87C33.79,-243.48 13.43,-229.18 4.31,-210 -1.6,-197.56 -1.1,-191.67 4.31,-179 25.19,-130.12 80.52,-96.77 115.34,-79.87"/>
<polygon fill="midnightblue" stroke="midnightblue" points="117,-82.96 124.57,-75.55 114.03,-76.62 117,-82.96"/>
</g>
<!-- Node21 -->
<g id="node21" class="node">
<title>Node21</title>
<g id="a_node21"><a xlink:href="fwd_8hpp.html" target="_top" xlink:title=" ">
<polygon fill="none" stroke="black" points="101.31,-118 101.31,-137 179.31,-137 179.31,-118 101.31,-118"/>
<text text-anchor="middle" x="140.31" y="-125" font-family="Helvetica,sans-Serif" font-size="10.00">yaclib/fwd.hpp</text>
</a>
</g>
</g>
<!-- Node20&#45;&gt;Node21 -->
<g id="edge27" class="edge">
<title>Node20&#45;&gt;Node21</title>
<path fill="none" stroke="midnightblue" d="M82.68,-251.86C97.19,-243.28 117.68,-228.71 128.31,-210 139.27,-190.7 141.36,-164.85 141.29,-147.48"/>
<polygon fill="midnightblue" stroke="midnightblue" points="144.78,-146.9 140.99,-137 137.78,-147.1 144.78,-146.9"/>
</g>
<!-- Node22 -->
<g id="node22" class="node">
<title>Node22</title>
<g id="a_node22"><a xlink:href="type__traits__impl_8hpp.html" target="_top" xlink:title=" ">
<polygon fill="none" stroke="black" points="13.31,-179.5 13.31,-209.5 119.31,-209.5 119.31,-179.5 13.31,-179.5"/>
<text text-anchor="start" x="21.31" y="-197.5" font-family="Helvetica,sans-Serif" font-size="10.00">yaclib/util/detail</text>
<text text-anchor="middle" x="66.31" y="-186.5" font-family="Helvetica,sans-Serif" font-size="10.00">/type_traits_impl.hpp</text>
</a>
</g>
</g>
<!-- Node20&#45;&gt;Node22 -->
<g id="edge28" class="edge">
<title>Node20&#45;&gt;Node22</title>
<path fill="none" stroke="midnightblue" d="M66.31,-251.73C66.31,-243.54 66.31,-230.92 66.31,-219.71"/>
<polygon fill="midnightblue" stroke="midnightblue" points="69.81,-219.59 66.31,-209.59 62.81,-219.59 69.81,-219.59"/>
</g>
<!-- Node20&#45;&gt;Node23 -->
<g id="edge31" class="edge">
<title>Node20&#45;&gt;Node23</title>
<path fill="none" stroke="midnightblue" d="M84.64,-251.87C108.25,-240.75 149.5,-221.32 176.86,-208.43"/>
<polygon fill="midnightblue" stroke="midnightblue" points="178.35,-211.59 185.91,-204.17 175.37,-205.26 178.35,-211.59"/>
</g>
<!-- Node22&#45;&gt;Node9 -->
<g id="edge30" class="edge">
<title>Node22&#45;&gt;Node9</title>
<path fill="none" stroke="midnightblue" d="M68.4,-179.2C71.44,-162.06 78.31,-133.01 92.31,-112 100.26,-100.07 112.24,-89.53 122.8,-81.65"/>
<polygon fill="midnightblue" stroke="midnightblue" points="125.08,-84.32 131.21,-75.69 121.03,-78.61 125.08,-84.32"/>
</g>
<!-- Node22&#45;&gt;Node21 -->
<g id="edge29" class="edge">
<title>Node22&#45;&gt;Node21</title>
<path fill="none" stroke="midnightblue" d="M82.37,-179.4C94.25,-168.96 110.42,-154.75 122.67,-144"/>
<polygon fill="midnightblue" stroke="midnightblue" points="125.21,-146.42 130.41,-137.19 120.59,-141.16 125.21,-146.42"/>
</g>
<!-- Node26&#45;&gt;Node14 -->
<g id="edge46" class="edge">
<title>Node26&#45;&gt;Node14</title>
<path fill="none" stroke="midnightblue" d="M612.58,-385.95C576.84,-376.98 520.52,-361.75 473.31,-344 407.61,-319.31 370.82,-334.32 330.31,-277 318.62,-260.46 317.46,-237.1 318.74,-219.62"/>
<polygon fill="midnightblue" stroke="midnightblue" points="322.22,-219.92 319.77,-209.62 315.26,-219.2 322.22,-219.92"/>
</g>
<!-- Node27 -->
<g id="node27" class="node">
<title>Node27</title>
<g id="a_node27"><a xlink:href="atomic__counter_8hpp.html" target="_top" xlink:title=" ">
<polygon fill="none" stroke="black" points="857.31,-313.5 857.31,-343.5 961.31,-343.5 961.31,-313.5 857.31,-313.5"/>
<text text-anchor="start" x="865.31" y="-331.5" font-family="Helvetica,sans-Serif" font-size="10.00">yaclib/util/detail</text>
<text text-anchor="middle" x="909.31" y="-320.5" font-family="Helvetica,sans-Serif" font-size="10.00">/atomic_counter.hpp</text>
</a>
</g>
</g>
<!-- Node26&#45;&gt;Node27 -->
<g id="edge38" class="edge">
<title>Node26&#45;&gt;Node27</title>
<path fill="none" stroke="midnightblue" d="M682.7,-385.94C724.49,-375.53 795.77,-357.78 847.25,-344.96"/>
<polygon fill="midnightblue" stroke="midnightblue" points="848.41,-348.27 857.27,-342.46 846.72,-341.48 848.41,-348.27"/>
</g>
<!-- Node30 -->
<g id="node30" class="node">
<title>Node30</title>
<g id="a_node30"><a xlink:href="unique__counter_8hpp.html" target="_top" xlink:title=" ">
<polygon fill="none" stroke="black" points="1005.31,-313.5 1005.31,-343.5 1109.31,-343.5 1109.31,-313.5 1005.31,-313.5"/>
<text text-anchor="start" x="1013.31" y="-331.5" font-family="Helvetica,sans-Serif" font-size="10.00">yaclib/util/detail</text>
<text text-anchor="middle" x="1057.31" y="-320.5" font-family="Helvetica,sans-Serif" font-size="10.00">/unique_counter.hpp</text>
</a>
</g>
</g>
<!-- Node26&#45;&gt;Node30 -->
<g id="edge44" class="edge">
<title>Node26&#45;&gt;Node30</title>
<path fill="none" stroke="midnightblue" d="M681.75,-385.94C690.67,-383.82 700.32,-381.68 709.31,-380 824.41,-358.43 854.55,-361.63 970.31,-344 978.27,-342.79 986.64,-341.46 994.9,-340.12"/>
<polygon fill="midnightblue" stroke="midnightblue" points="995.6,-343.55 1004.9,-338.48 994.47,-336.64 995.6,-343.55"/>
</g>
<!-- Node27&#45;&gt;Node10 -->
<g id="edge42" class="edge">
<title>Node27&#45;&gt;Node10</title>
<path fill="none" stroke="midnightblue" d="M944.45,-313.45C959.92,-305.29 976.55,-293.34 985.31,-277 991.82,-264.86 990.89,-258.6 985.31,-246 949.78,-165.71 858.49,-106.01 813.77,-80.55"/>
<polygon fill="midnightblue" stroke="midnightblue" points="815.4,-77.46 804.97,-75.65 812,-83.57 815.4,-77.46"/>
</g>
<!-- Node27&#45;&gt;Node12 -->
<g id="edge39" class="edge">
<title>Node27&#45;&gt;Node12</title>
<path fill="none" stroke="midnightblue" d="M867.43,-313.4C832.67,-301.69 783.8,-285.23 751.15,-274.23"/>
<polygon fill="midnightblue" stroke="midnightblue" points="752.16,-270.88 741.57,-271.01 749.93,-277.52 752.16,-270.88"/>
</g>
<!-- Node27&#45;&gt;Node18 -->
<g id="edge43" class="edge">
<title>Node27&#45;&gt;Node18</title>
<path fill="none" stroke="midnightblue" d="M899.11,-313.4C891.93,-303.46 882.27,-290.11 874.65,-279.57"/>
<polygon fill="midnightblue" stroke="midnightblue" points="877.29,-277.25 868.6,-271.19 871.62,-281.35 877.29,-277.25"/>
</g>
<!-- Node28 -->
<g id="node28" class="node">
<title>Node28</title>
<g id="a_node28"><a xlink:href="default__deleter_8hpp.html" target="_top" xlink:title=" ">
<polygon fill="none" stroke="black" points="1032.81,-246.5 1032.81,-276.5 1133.81,-276.5 1133.81,-246.5 1032.81,-246.5"/>
<text text-anchor="start" x="1040.81" y="-264.5" font-family="Helvetica,sans-Serif" font-size="10.00">yaclib/util/detail</text>
<text text-anchor="middle" x="1083.31" y="-253.5" font-family="Helvetica,sans-Serif" font-size="10.00">/default_deleter.hpp</text>
</a>
</g>
</g>
<!-- Node27&#45;&gt;Node28 -->
<g id="edge40" class="edge">
<title>Node27&#45;&gt;Node28</title>
<path fill="none" stroke="midnightblue" d="M947.07,-313.4C973.17,-303.64 1008.1,-290.59 1036.06,-280.15"/>
<polygon fill="midnightblue" stroke="midnightblue" points="1037.49,-283.35 1045.63,-276.58 1035.04,-276.8 1037.49,-283.35"/>
</g>
<!-- Node29 -->
<g id="node29" class="node">
<title>Node29</title>
<g id="a_node29"><a xlink:title=" ">
<polygon fill="none" stroke="#bfbfbf" points="926.81,-252 926.81,-271 975.81,-271 975.81,-252 926.81,-252"/>
<text text-anchor="middle" x="951.31" y="-259" font-family="Helvetica,sans-Serif" font-size="10.00">cstddef</text>
</a>
</g>
</g>
<!-- Node27&#45;&gt;Node29 -->
<g id="edge41" class="edge">
<title>Node27&#45;&gt;Node29</title>
<path fill="none" stroke="midnightblue" d="M918.42,-313.4C924.78,-303.56 933.3,-290.38 940.07,-279.89"/>
<polygon fill="midnightblue" stroke="midnightblue" points="943.2,-281.49 945.69,-271.19 937.32,-277.69 943.2,-281.49"/>
</g>
<!-- Node30&#45;&gt;Node28 -->
<g id="edge45" class="edge">
<title>Node30&#45;&gt;Node28</title>
<path fill="none" stroke="midnightblue" d="M1062.95,-313.4C1066.15,-305.39 1070.25,-295.16 1073.92,-285.98"/>
<polygon fill="midnightblue" stroke="midnightblue" points="1077.21,-287.16 1077.68,-276.58 1070.72,-284.56 1077.21,-287.16"/>
</g>
</g>
</svg>
        <g id="navigator" transform="translate(0 0)" fill="#404254">
                <rect fill="#f2f5e9" fill-opacity="0.5" stroke="#606060" stroke-width=".5" x="0" y="0" width="60" height="60"/>
                <use id="zoomplus" xlink:href="#zoomPlus" x="17" y="9" onmousedown="handleZoom(evt,'in')"/>
                <use id="zoomminus" xlink:href="#zoomMin" x="42" y="9" onmousedown="handleZoom(evt,'out')"/>
                <use id="reset" xlink:href="#resetDef" x="30" y="36" onmousedown="handleReset()"/>
                <g id="arrowUp" xlink:href="#dirArrow" transform="translate(30 24)" onmousedown="handlePan(0,-1)">
                  <use xlink:href="#rim" fill="#404040">
                        <set attributeName="fill" to="#808080" begin="arrowUp.mouseover" end="arrowUp.mouseout"/>
                  </use>
                  <path fill="none" stroke="white" stroke-width="1.5" d="M0,-3.0v7 M-2.5,-0.5L0,-3.0L2.5,-0.5"/>
                </g>
                <g id="arrowRight" xlink:href="#dirArrow" transform="rotate(90) translate(36 -43)" onmousedown="handlePan(1,0)">
                  <use xlink:href="#rim" fill="#404040">
                        <set attributeName="fill" to="#808080" begin="arrowRight.mouseover" end="arrowRight.mouseout"/>
                  </use>
                  <path fill="none" stroke="white" stroke-width="1.5" d="M0,-3.0v7 M-2.5,-0.5L0,-3.0L2.5,-0.5"/>
                </g>
                <g id="arrowDown" xlink:href="#dirArrow" transform="rotate(180) translate(-30 -48)" onmousedown="handlePan(0,1)">
                  <use xlink:href="#rim" fill="#404040">
                        <set attributeName="fill" to="#808080" begin="arrowDown.mouseover" end="arrowDown.mouseout"/>
                  </use>
                  <path fill="none" stroke="white" stroke-width="1.5" d="M0,-3.0v7 M-2.5,-0.5L0,-3.0L2.5,-0.5"/>
                </g>
                <g id="arrowLeft" xlink:href="#dirArrow" transform="rotate(270) translate(-36 17)" onmousedown="handlePan(-1,0)">
                  <use xlink:href="#rim" fill="#404040">
                        <set attributeName="fill" to="#808080" begin="arrowLeft.mouseover" end="arrowLeft.mouseout"/>
                  </use>
                  <path fill="none" stroke="white" stroke-width="1.5" d="M0,-3.0v7 M-2.5,-0.5L0,-3.0L2.5,-0.5"/>
                </g>
        </g>
        <svg viewBox="0 0 15 15" width="100%" height="30px" preserveAspectRatio="xMaxYMin meet">
         <g id="arrow_out" transform="scale(0.3 0.3)">
          <a xlink:href="task_8hpp__incl_org.svg" target="_base">
           <rect id="button" ry="5" rx="5" y="6" x="6" height="38" width="38"
                fill="#f2f5e9" fill-opacity="0.5" stroke="#606060" stroke-width="1.0"/>
           <path id="arrow"
             d="M 11.500037,31.436501 C 11.940474,20.09759 22.043105,11.32322 32.158766,21.979434 L 37.068811,17.246167 C 37.068811,17.246167 37.088388,32 37.088388,32 L 22.160133,31.978069 C 22.160133,31.978069 26.997745,27.140456 26.997745,27.140456 C 18.528582,18.264221 13.291696,25.230495 11.500037,31.436501 z"
             style="fill:#404040;"/>
          </a>
         </g>
        </svg>
</svg>
