<?xml version="1.0" encoding="UTF-8" standalone="no"?>
<!DOCTYPE svg PUBLIC "-//W3C//DTD SVG 1.1//EN"
 "http://www.w3.org/Graphics/SVG/1.1/DTD/svg11.dtd">
<!-- Generated by graphviz version 3.0.0 (20220413.0242)
 -->
<!-- Title: test/example/executor/thread_pool.cpp Pages: 1 -->
<!--zoomable 553 -->
<svg id="main" version="1.1" xmlns="http://www.w3.org/2000/svg" xmlns:xlink="http://www.w3.org/1999/xlink" xml:space="preserve" onload="init(evt)">
<style type="text/css"><![CDATA[
.edge:hover path { stroke: red; }
.edge:hover polygon { stroke: red; fill: red; }
]]></style>
<script type="text/javascript"><![CDATA[
var edges = document.getElementsByTagName('g');
if (edges && edges.length) {
  for (var i=0;i<edges.length;i++) {
    if (edges[i].id.substr(0,4)=='edge') {
      edges[i].setAttribute('class','edge');
    }
  }
}
]]></script>
        <defs>
                <circle id="rim" cx="0" cy="0" r="7"/>
                <circle id="rim2" cx="0" cy="0" r="3.5"/>
                <g id="zoomPlus">
                        <use xlink:href="#rim" fill="#404040">
                                <set attributeName="fill" to="#808080" begin="zoomplus.mouseover" end="zoomplus.mouseout"/>
                        </use>
                        <path d="M-4,0h8M0,-4v8" fill="none" stroke="white" stroke-width="1.5" pointer-events="none"/>
                </g>
                <g id="zoomMin">
                        <use xlink:href="#rim" fill="#404040">
                                <set attributeName="fill" to="#808080" begin="zoomminus.mouseover" end="zoomminus.mouseout"/>
                        </use>
                        <path d="M-4,0h8" fill="none" stroke="white" stroke-width="1.5" pointer-events="none"/>
                </g>
                <g id="dirArrow">
                        <path fill="none" stroke="white" stroke-width="1.5" d="M0,-3.0v7 M-2.5,-0.5L0,-3.0L2.5,-0.5"/>
                </g>
               <g id="resetDef">
                       <use xlink:href="#rim2" fill="#404040">
                               <set attributeName="fill" to="#808080" begin="reset.mouseover" end="reset.mouseout"/>
                       </use>
               </g>
        </defs>

<script type="text/javascript">
var viewWidth = 1282;
var viewHeight = 553;
var sectionId = 'dynsection-0';
</script>
<script xlink:href="svgpan.js"/>
<svg id="graph" class="graph">
<g id="viewport">
<title>test/example/executor/thread_pool.cpp</title>
<!-- Node1 -->
<g id="node1" class="node">
<title>Node1</title>
<g id="a_node1"><a xlink:title=" ">
<polygon fill="#bfbfbf" stroke="black" points="858,-514.5 858,-544.5 970,-544.5 970,-514.5 858,-514.5"/>
<text text-anchor="start" x="866" y="-532.5" font-family="Helvetica,sans-Serif" font-size="10.00">test/example/executor</text>
<text text-anchor="middle" x="914" y="-521.5" font-family="Helvetica,sans-Serif" font-size="10.00">/thread_pool.cpp</text>
</a>
</g>
</g>
<!-- Node2 -->
<g id="node2" class="node">
<title>Node2</title>
<g id="a_node2"><a xlink:href="submit_8hpp.html" target="_top" xlink:title=" ">
<polygon fill="none" stroke="black" points="131.5,-386 131.5,-405 262.5,-405 262.5,-386 131.5,-386"/>
<text text-anchor="middle" x="197" y="-393" font-family="Helvetica,sans-Serif" font-size="10.00">yaclib/executor/submit.hpp</text>
</a>
</g>
</g>
<!-- Node1&#45;&gt;Node2 -->
<g id="edge1" class="edge">
<title>Node1&#45;&gt;Node2</title>
<path fill="none" stroke="midnightblue" d="M857.76,-523.13C782.33,-515.47 644.41,-499.88 528,-478 421.66,-458.02 298.39,-425.01 236.61,-407.77"/>
<polygon fill="midnightblue" stroke="midnightblue" points="237.45,-404.37 226.88,-405.05 235.56,-411.11 237.45,-404.37"/>
</g>
<!-- Node14 -->
<g id="node14" class="node">
<title>Node14</title>
<g id="a_node14"><a xlink:href="intrusive__ptr_8hpp.html" target="_top" xlink:title=" ">
<polygon fill="none" stroke="black" points="656.5,-179.5 656.5,-209.5 753.5,-209.5 753.5,-179.5 656.5,-179.5"/>
<text text-anchor="start" x="664.5" y="-197.5" font-family="Helvetica,sans-Serif" font-size="10.00">yaclib/util/intrusive</text>
<text text-anchor="middle" x="705" y="-186.5" font-family="Helvetica,sans-Serif" font-size="10.00">_ptr.hpp</text>
</a>
</g>
</g>
<!-- Node1&#45;&gt;Node14 -->
<g id="edge50" class="edge">
<title>Node1&#45;&gt;Node14</title>
<path fill="none" stroke="midnightblue" d="M862.23,-514.47C809.36,-496.63 735,-460.21 735,-396.5 735,-396.5 735,-396.5 735,-327.5 735,-288.87 722.63,-245.44 713.78,-219.29"/>
<polygon fill="midnightblue" stroke="midnightblue" points="716.97,-217.8 710.36,-209.52 710.36,-220.12 716.97,-217.8"/>
</g>
<!-- Node18 -->
<g id="node18" class="node">
<title>Node18</title>
<g id="a_node18"><a xlink:href="thread__pool_8hpp.html" target="_top" xlink:title=" ">
<polygon fill="none" stroke="black" points="537.5,-447.5 537.5,-477.5 648.5,-477.5 648.5,-447.5 537.5,-447.5"/>
<text text-anchor="start" x="545.5" y="-465.5" font-family="Helvetica,sans-Serif" font-size="10.00">yaclib/executor/thread</text>
<text text-anchor="middle" x="593" y="-454.5" font-family="Helvetica,sans-Serif" font-size="10.00">_pool.hpp</text>
</a>
</g>
</g>
<!-- Node1&#45;&gt;Node18 -->
<g id="edge24" class="edge">
<title>Node1&#45;&gt;Node18</title>
<path fill="none" stroke="midnightblue" d="M857.72,-517.1C802.14,-505.85 717.18,-488.65 658.57,-476.78"/>
<polygon fill="midnightblue" stroke="midnightblue" points="659.17,-473.33 648.68,-474.77 657.78,-480.19 659.17,-473.33"/>
</g>
<!-- Node24 -->
<g id="node24" class="node">
<title>Node24</title>
<g id="a_node24"><a xlink:title=" ">
<polygon fill="none" stroke="#bfbfbf" points="1041.5,-118 1041.5,-137 1090.5,-137 1090.5,-118 1041.5,-118"/>
<text text-anchor="middle" x="1066" y="-125" font-family="Helvetica,sans-Serif" font-size="10.00">cstddef</text>
</a>
</g>
</g>
<!-- Node1&#45;&gt;Node24 -->
<g id="edge51" class="edge">
<title>Node1&#45;&gt;Node24</title>
<path fill="none" stroke="midnightblue" d="M970.15,-514.71C1025.55,-497.35 1102,-461.61 1102,-396.5 1102,-396.5 1102,-396.5 1102,-260.5 1102,-218.52 1084.84,-171.58 1074.21,-146.55"/>
<polygon fill="midnightblue" stroke="midnightblue" points="1077.35,-144.99 1070.13,-137.24 1070.94,-147.8 1077.35,-144.99"/>
</g>
<!-- Node28 -->
<g id="node28" class="node">
<title>Node28</title>
<g id="a_node28"><a xlink:title=" ">
<polygon fill="none" stroke="#bfbfbf" points="1130,-453 1130,-472 1184,-472 1184,-453 1130,-453"/>
<text text-anchor="middle" x="1157" y="-460" font-family="Helvetica,sans-Serif" font-size="10.00">iostream</text>
</a>
</g>
</g>
<!-- Node1&#45;&gt;Node28 -->
<g id="edge52" class="edge">
<title>Node1&#45;&gt;Node28</title>
<path fill="none" stroke="midnightblue" d="M970.12,-515.98C1010.87,-506.52 1067.19,-492.69 1116,-478 1118.78,-477.16 1121.65,-476.25 1124.52,-475.3"/>
<polygon fill="midnightblue" stroke="midnightblue" points="1125.81,-478.56 1134.14,-472.02 1123.55,-471.94 1125.81,-478.56"/>
</g>
<!-- Node29 -->
<g id="node29" class="node">
<title>Node29</title>
<g id="a_node29"><a xlink:title=" ">
<polygon fill="none" stroke="#bfbfbf" points="1202.5,-453 1202.5,-472 1273.5,-472 1273.5,-453 1202.5,-453"/>
<text text-anchor="middle" x="1238" y="-460" font-family="Helvetica,sans-Serif" font-size="10.00">gtest/gtest.h</text>
</a>
</g>
</g>
<!-- Node1&#45;&gt;Node29 -->
<g id="edge53" class="edge">
<title>Node1&#45;&gt;Node29</title>
<path fill="none" stroke="midnightblue" d="M970.05,-520.59C1026.72,-512.08 1116.6,-497.13 1193,-478 1196.45,-477.14 1200.02,-476.15 1203.57,-475.11"/>
<polygon fill="midnightblue" stroke="midnightblue" points="1204.89,-478.36 1213.41,-472.07 1202.83,-471.67 1204.89,-478.36"/>
</g>
<!-- Node3 -->
<g id="node3" class="node">
<title>Node3</title>
<g id="a_node3"><a xlink:href="unique__job_8hpp.html" target="_top" xlink:title=" ">
<polygon fill="none" stroke="black" points="133.5,-313.5 133.5,-343.5 240.5,-343.5 240.5,-313.5 133.5,-313.5"/>
<text text-anchor="start" x="141.5" y="-331.5" font-family="Helvetica,sans-Serif" font-size="10.00">yaclib/executor/detail</text>
<text text-anchor="middle" x="187" y="-320.5" font-family="Helvetica,sans-Serif" font-size="10.00">/unique_job.hpp</text>
</a>
</g>
</g>
<!-- Node2&#45;&gt;Node3 -->
<g id="edge2" class="edge">
<title>Node2&#45;&gt;Node3</title>
<path fill="none" stroke="midnightblue" d="M195.65,-385.73C194.39,-377.54 192.45,-364.92 190.73,-353.71"/>
<polygon fill="midnightblue" stroke="midnightblue" points="194.15,-352.94 189.17,-343.59 187.23,-354 194.15,-352.94"/>
</g>
<!-- Node9 -->
<g id="node9" class="node">
<title>Node9</title>
<g id="a_node9"><a xlink:title=" ">
<polygon fill="none" stroke="#bfbfbf" points="321.5,-118 321.5,-137 360.5,-137 360.5,-118 321.5,-118"/>
<text text-anchor="middle" x="341" y="-125" font-family="Helvetica,sans-Serif" font-size="10.00">utility</text>
</a>
</g>
</g>
<!-- Node2&#45;&gt;Node9 -->
<g id="edge23" class="edge">
<title>Node2&#45;&gt;Node9</title>
<path fill="none" stroke="midnightblue" d="M176.6,-385.89C129.3,-364.66 19.01,-307.07 57,-246 112.44,-156.89 250.34,-135.35 311.26,-130.15"/>
<polygon fill="midnightblue" stroke="midnightblue" points="311.66,-133.63 321.37,-129.38 311.13,-126.65 311.66,-133.63"/>
</g>
<!-- Node13 -->
<g id="node13" class="node">
<title>Node13</title>
<g id="a_node13"><a xlink:href="executor_8hpp.html" target="_top" xlink:title=" ">
<polygon fill="none" stroke="black" points="384.5,-319 384.5,-338 523.5,-338 523.5,-319 384.5,-319"/>
<text text-anchor="middle" x="454" y="-326" font-family="Helvetica,sans-Serif" font-size="10.00">yaclib/executor/executor.hpp</text>
</a>
</g>
</g>
<!-- Node2&#45;&gt;Node13 -->
<g id="edge15" class="edge">
<title>Node2&#45;&gt;Node13</title>
<path fill="none" stroke="midnightblue" d="M230.86,-385.94C276.99,-374.27 359.63,-353.37 410.36,-340.54"/>
<polygon fill="midnightblue" stroke="midnightblue" points="411.23,-343.93 420.06,-338.08 409.51,-337.14 411.23,-343.93"/>
</g>
<!-- Node4 -->
<g id="node4" class="node">
<title>Node4</title>
<g id="a_node4"><a xlink:href="job_8hpp.html" target="_top" xlink:title=" ">
<polygon fill="none" stroke="black" points="294.5,-252 294.5,-271 409.5,-271 409.5,-252 294.5,-252"/>
<text text-anchor="middle" x="352" y="-259" font-family="Helvetica,sans-Serif" font-size="10.00">yaclib/executor/job.hpp</text>
</a>
</g>
</g>
<!-- Node3&#45;&gt;Node4 -->
<g id="edge3" class="edge">
<title>Node3&#45;&gt;Node4</title>
<path fill="none" stroke="midnightblue" d="M222.8,-313.4C252.01,-301.89 292.86,-285.8 320.76,-274.81"/>
<polygon fill="midnightblue" stroke="midnightblue" points="322.38,-277.93 330.41,-271.01 319.82,-271.42 322.38,-277.93"/>
</g>
<!-- Node3&#45;&gt;Node9 -->
<g id="edge14" class="edge">
<title>Node3&#45;&gt;Node9</title>
<path fill="none" stroke="midnightblue" d="M185.39,-313.4C182.92,-284.68 181.46,-218.74 214,-179 238.1,-149.57 281.82,-137.19 311.13,-132.06"/>
<polygon fill="midnightblue" stroke="midnightblue" points="311.88,-135.48 321.22,-130.47 310.8,-128.57 311.88,-135.48"/>
</g>
<!-- Node10 -->
<g id="node10" class="node">
<title>Node10</title>
<g id="a_node10"><a xlink:href="nope__counter_8hpp.html" target="_top" xlink:title=" ">
<polygon fill="none" stroke="black" points="66,-246.5 66,-276.5 162,-276.5 162,-246.5 66,-246.5"/>
<text text-anchor="start" x="74" y="-264.5" font-family="Helvetica,sans-Serif" font-size="10.00">yaclib/util/detail</text>
<text text-anchor="middle" x="114" y="-253.5" font-family="Helvetica,sans-Serif" font-size="10.00">/nope_counter.hpp</text>
</a>
</g>
</g>
<!-- Node3&#45;&gt;Node10 -->
<g id="edge9" class="edge">
<title>Node3&#45;&gt;Node10</title>
<path fill="none" stroke="midnightblue" d="M171.16,-313.4C161.31,-304.62 148.46,-293.18 137.44,-283.37"/>
<polygon fill="midnightblue" stroke="midnightblue" points="139.6,-280.61 129.81,-276.58 134.95,-285.84 139.6,-280.61"/>
</g>
<!-- Node11 -->
<g id="node11" class="node">
<title>Node11</title>
<g id="a_node11"><a xlink:href="safe__call_8hpp.html" target="_top" xlink:title=" ">
<polygon fill="none" stroke="black" points="363.5,-179.5 363.5,-209.5 446.5,-209.5 446.5,-179.5 363.5,-179.5"/>
<text text-anchor="start" x="371.5" y="-197.5" font-family="Helvetica,sans-Serif" font-size="10.00">yaclib/util/detail</text>
<text text-anchor="middle" x="405" y="-186.5" font-family="Helvetica,sans-Serif" font-size="10.00">/safe_call.hpp</text>
</a>
</g>
</g>
<!-- Node3&#45;&gt;Node11 -->
<g id="edge10" class="edge">
<title>Node3&#45;&gt;Node11</title>
<path fill="none" stroke="midnightblue" d="M201.22,-313.32C219.42,-295.76 252.47,-265.77 285,-246 306.45,-232.96 331.88,-221.73 353.79,-213.2"/>
<polygon fill="midnightblue" stroke="midnightblue" points="355.17,-216.42 363.26,-209.59 352.67,-209.88 355.17,-216.42"/>
</g>
<!-- Node5 -->
<g id="node5" class="node">
<title>Node5</title>
<g id="a_node5"><a xlink:href="node_8hpp.html" target="_top" xlink:title=" ">
<polygon fill="none" stroke="black" points="223.5,-179.5 223.5,-209.5 306.5,-209.5 306.5,-179.5 223.5,-179.5"/>
<text text-anchor="start" x="231.5" y="-197.5" font-family="Helvetica,sans-Serif" font-size="10.00">yaclib/util/detail</text>
<text text-anchor="middle" x="265" y="-186.5" font-family="Helvetica,sans-Serif" font-size="10.00">/node.hpp</text>
</a>
</g>
</g>
<!-- Node4&#45;&gt;Node5 -->
<g id="edge4" class="edge">
<title>Node4&#45;&gt;Node5</title>
<path fill="none" stroke="midnightblue" d="M340.27,-251.73C327.94,-242.53 308.14,-227.73 291.94,-215.63"/>
<polygon fill="midnightblue" stroke="midnightblue" points="293.96,-212.77 283.86,-209.59 289.77,-218.38 293.96,-212.77"/>
</g>
<!-- Node6 -->
<g id="node6" class="node">
<title>Node6</title>
<g id="a_node6"><a xlink:href="func_8hpp.html" target="_top" xlink:title=" ">
<polygon fill="none" stroke="black" points="464.5,-185 464.5,-204 561.5,-204 561.5,-185 464.5,-185"/>
<text text-anchor="middle" x="513" y="-192" font-family="Helvetica,sans-Serif" font-size="10.00">yaclib/util/func.hpp</text>
</a>
</g>
</g>
<!-- Node4&#45;&gt;Node6 -->
<g id="edge5" class="edge">
<title>Node4&#45;&gt;Node6</title>
<path fill="none" stroke="midnightblue" d="M373.38,-251.87C401.36,-240.57 450.59,-220.7 482.49,-207.82"/>
<polygon fill="midnightblue" stroke="midnightblue" points="483.83,-211.05 491.79,-204.06 481.21,-204.56 483.83,-211.05"/>
</g>
<!-- Node7 -->
<g id="node7" class="node">
<title>Node7</title>
<g id="a_node7"><a xlink:href="ref_8hpp.html" target="_top" xlink:title=" ">
<polygon fill="none" stroke="black" points="466.5,-118 466.5,-137 555.5,-137 555.5,-118 466.5,-118"/>
<text text-anchor="middle" x="511" y="-125" font-family="Helvetica,sans-Serif" font-size="10.00">yaclib/util/ref.hpp</text>
</a>
</g>
</g>
<!-- Node6&#45;&gt;Node7 -->
<g id="edge6" class="edge">
<title>Node6&#45;&gt;Node7</title>
<path fill="none" stroke="midnightblue" d="M512.73,-184.73C512.44,-175.18 511.96,-159.62 511.58,-147.28"/>
<polygon fill="midnightblue" stroke="midnightblue" points="515.07,-147.01 511.27,-137.13 508.07,-147.23 515.07,-147.01"/>
</g>
<!-- Node8 -->
<g id="node8" class="node">
<title>Node8</title>
<g id="a_node8"><a xlink:title=" ">
<polygon fill="none" stroke="#bfbfbf" points="387,-118 387,-137 449,-137 449,-118 387,-118"/>
<text text-anchor="middle" x="418" y="-125" font-family="Helvetica,sans-Serif" font-size="10.00">type_traits</text>
</a>
</g>
</g>
<!-- Node6&#45;&gt;Node8 -->
<g id="edge7" class="edge">
<title>Node6&#45;&gt;Node8</title>
<path fill="none" stroke="midnightblue" d="M500.19,-184.73C484.52,-174.01 457.78,-155.72 439.07,-142.91"/>
<polygon fill="midnightblue" stroke="midnightblue" points="440.84,-139.89 430.61,-137.13 436.89,-145.66 440.84,-139.89"/>
</g>
<!-- Node6&#45;&gt;Node9 -->
<g id="edge8" class="edge">
<title>Node6&#45;&gt;Node9</title>
<path fill="none" stroke="midnightblue" d="M489.55,-184.85C462.58,-174.88 417.03,-157.95 378,-143 375.43,-142.02 372.76,-140.99 370.09,-139.95"/>
<polygon fill="midnightblue" stroke="midnightblue" points="371.15,-136.61 360.56,-136.23 368.61,-143.13 371.15,-136.61"/>
</g>
<!-- Node11&#45;&gt;Node8 -->
<g id="edge12" class="edge">
<title>Node11&#45;&gt;Node8</title>
<path fill="none" stroke="midnightblue" d="M407.82,-179.4C409.71,-169.96 412.21,-157.45 414.26,-147.19"/>
<polygon fill="midnightblue" stroke="midnightblue" points="417.73,-147.69 416.26,-137.19 410.87,-146.31 417.73,-147.69"/>
</g>
<!-- Node11&#45;&gt;Node9 -->
<g id="edge13" class="edge">
<title>Node11&#45;&gt;Node9</title>
<path fill="none" stroke="midnightblue" d="M391.11,-179.4C381.04,-169.16 367.38,-155.3 356.87,-144.62"/>
<polygon fill="midnightblue" stroke="midnightblue" points="359.07,-141.86 349.56,-137.19 354.08,-146.78 359.07,-141.86"/>
</g>
<!-- Node12 -->
<g id="node12" class="node">
<title>Node12</title>
<g id="a_node12"><a xlink:title=" ">
<polygon fill="none" stroke="#bfbfbf" points="706,-118 706,-137 794,-137 794,-118 706,-118"/>
<text text-anchor="middle" x="750" y="-125" font-family="Helvetica,sans-Serif" font-size="10.00">yaclib/config.hpp</text>
</a>
</g>
</g>
<!-- Node11&#45;&gt;Node12 -->
<g id="edge11" class="edge">
<title>Node11&#45;&gt;Node12</title>
<path fill="none" stroke="midnightblue" d="M446.63,-180.97C449.46,-180.26 452.26,-179.6 455,-179 561.24,-155.8 590.59,-165.39 697,-143 701.71,-142.01 706.62,-140.84 711.48,-139.61"/>
<polygon fill="midnightblue" stroke="midnightblue" points="712.49,-142.97 721.27,-137.03 710.71,-136.2 712.49,-142.97"/>
</g>
<!-- Node13&#45;&gt;Node4 -->
<g id="edge16" class="edge">
<title>Node13&#45;&gt;Node4</title>
<path fill="none" stroke="midnightblue" d="M440.24,-318.73C423.27,-307.92 394.19,-289.38 374.07,-276.57"/>
<polygon fill="midnightblue" stroke="midnightblue" points="375.85,-273.55 365.54,-271.13 372.09,-279.45 375.85,-273.55"/>
</g>
<!-- Node13&#45;&gt;Node14 -->
<g id="edge17" class="edge">
<title>Node13&#45;&gt;Node14</title>
<path fill="none" stroke="midnightblue" d="M470.47,-318.84C510.57,-297.75 614.05,-243.33 669.18,-214.34"/>
<polygon fill="midnightblue" stroke="midnightblue" points="671.02,-217.32 678.24,-209.57 667.76,-211.13 671.02,-217.32"/>
</g>
<!-- Node14&#45;&gt;Node7 -->
<g id="edge18" class="edge">
<title>Node14&#45;&gt;Node7</title>
<path fill="none" stroke="midnightblue" d="M662.9,-179.4C627.96,-167.69 578.84,-151.23 546.02,-140.23"/>
<polygon fill="midnightblue" stroke="midnightblue" points="546.98,-136.87 536.39,-137.01 544.76,-143.5 546.98,-136.87"/>
</g>
<!-- Node14&#45;&gt;Node8 -->
<g id="edge19" class="edge">
<title>Node14&#45;&gt;Node8</title>
<path fill="none" stroke="midnightblue" d="M656.46,-185.91C606.07,-177.5 525.23,-162.5 457,-143 454.36,-142.24 451.64,-141.39 448.92,-140.49"/>
<polygon fill="midnightblue" stroke="midnightblue" points="449.85,-137.11 439.26,-137.08 447.52,-143.71 449.85,-137.11"/>
</g>
<!-- Node15 -->
<g id="node15" class="node">
<title>Node15</title>
<g id="a_node15"><a xlink:href="intrusive__ptr__impl_8hpp.html" target="_top" xlink:title=" ">
<polygon fill="none" stroke="black" points="574,-112.5 574,-142.5 688,-142.5 688,-112.5 574,-112.5"/>
<text text-anchor="start" x="582" y="-130.5" font-family="Helvetica,sans-Serif" font-size="10.00">yaclib/util/detail</text>
<text text-anchor="middle" x="631" y="-119.5" font-family="Helvetica,sans-Serif" font-size="10.00">/intrusive_ptr_impl.hpp</text>
</a>
</g>
</g>
<!-- Node14&#45;&gt;Node15 -->
<g id="edge20" class="edge">
<title>Node14&#45;&gt;Node15</title>
<path fill="none" stroke="midnightblue" d="M688.94,-179.4C678.96,-170.62 665.93,-159.18 654.76,-149.37"/>
<polygon fill="midnightblue" stroke="midnightblue" points="656.85,-146.55 647.03,-142.58 652.23,-151.81 656.85,-146.55"/>
</g>
<!-- Node16 -->
<g id="node16" class="node">
<title>Node16</title>
<g id="a_node16"><a xlink:href="log_8hpp.html" target="_top" xlink:title=" ">
<polygon fill="none" stroke="black" points="309.5,-56.5 309.5,-75.5 384.5,-75.5 384.5,-56.5 309.5,-56.5"/>
<text text-anchor="middle" x="347" y="-63.5" font-family="Helvetica,sans-Serif" font-size="10.00">yaclib/log.hpp</text>
</a>
</g>
</g>
<!-- Node15&#45;&gt;Node16 -->
<g id="edge21" class="edge">
<title>Node15&#45;&gt;Node16</title>
<path fill="none" stroke="midnightblue" d="M573.99,-114.13C570.61,-113.4 567.26,-112.69 564,-112 505.68,-99.64 438.47,-85.76 394.49,-76.73"/>
<polygon fill="midnightblue" stroke="midnightblue" points="395.15,-73.29 384.65,-74.71 393.75,-80.15 395.15,-73.29"/>
</g>
<!-- Node17 -->
<g id="node17" class="node">
<title>Node17</title>
<g id="a_node17"><a xlink:title=" ">
<polygon fill="none" stroke="#bfbfbf" points="0,-0.5 0,-19.5 66,-19.5 66,-0.5 0,-0.5"/>
<text text-anchor="middle" x="33" y="-7.5" font-family="Helvetica,sans-Serif" font-size="10.00">string_view</text>
</a>
</g>
</g>
<!-- Node16&#45;&gt;Node17 -->
<g id="edge22" class="edge">
<title>Node16&#45;&gt;Node17</title>
<path fill="none" stroke="midnightblue" d="M309.44,-58.54C250.96,-48.48 138.46,-29.14 76.53,-18.49"/>
<polygon fill="midnightblue" stroke="midnightblue" points="76.76,-14.97 66.31,-16.73 75.58,-21.87 76.76,-14.97"/>
</g>
<!-- Node18&#45;&gt;Node13 -->
<g id="edge25" class="edge">
<title>Node18&#45;&gt;Node13</title>
<path fill="none" stroke="midnightblue" d="M593.41,-447.41C593.19,-429.68 590.21,-399.21 574,-380 557.61,-360.57 532.47,-348.47 509.43,-341"/>
<polygon fill="midnightblue" stroke="midnightblue" points="510.3,-337.61 499.71,-338.08 508.28,-344.31 510.3,-337.61"/>
</g>
<!-- Node19 -->
<g id="node19" class="node">
<title>Node19</title>
<g id="a_node19"><a xlink:href="thread__factory_8hpp.html" target="_top" xlink:title=" ">
<polygon fill="none" stroke="black" points="323.5,-380.5 323.5,-410.5 434.5,-410.5 434.5,-380.5 323.5,-380.5"/>
<text text-anchor="start" x="331.5" y="-398.5" font-family="Helvetica,sans-Serif" font-size="10.00">yaclib/executor/thread</text>
<text text-anchor="middle" x="379" y="-387.5" font-family="Helvetica,sans-Serif" font-size="10.00">_factory.hpp</text>
</a>
</g>
</g>
<!-- Node18&#45;&gt;Node19 -->
<g id="edge26" class="edge">
<title>Node18&#45;&gt;Node19</title>
<path fill="none" stroke="midnightblue" d="M546.83,-447.48C514.17,-437.56 470.2,-424.2 435.46,-413.65"/>
<polygon fill="midnightblue" stroke="midnightblue" points="436.04,-410.17 425.46,-410.61 434.01,-416.87 436.04,-410.17"/>
</g>
<!-- Node18&#45;&gt;Node24 -->
<g id="edge48" class="edge">
<title>Node18&#45;&gt;Node24</title>
<path fill="none" stroke="midnightblue" d="M648.88,-457.66C773.64,-447.55 1064,-414.85 1064,-329.5 1064,-329.5 1064,-329.5 1064,-260.5 1064,-220.15 1064.95,-172.88 1065.54,-147.28"/>
<polygon fill="midnightblue" stroke="midnightblue" points="1069.04,-147.23 1065.78,-137.15 1062.04,-147.06 1069.04,-147.23"/>
</g>
<!-- Node27 -->
<g id="node27" class="node">
<title>Node27</title>
<g id="a_node27"><a xlink:title=" ">
<polygon fill="none" stroke="#bfbfbf" points="475,-386 475,-405 565,-405 565,-386 475,-386"/>
<text text-anchor="middle" x="520" y="-393" font-family="Helvetica,sans-Serif" font-size="10.00">yaclib_std/thread</text>
</a>
</g>
</g>
<!-- Node18&#45;&gt;Node27 -->
<g id="edge49" class="edge">
<title>Node18&#45;&gt;Node27</title>
<path fill="none" stroke="midnightblue" d="M577.16,-447.4C565.44,-436.96 549.48,-422.75 537.41,-412"/>
<polygon fill="midnightblue" stroke="midnightblue" points="539.56,-409.23 529.76,-405.19 534.91,-414.46 539.56,-409.23"/>
</g>
<!-- Node19&#45;&gt;Node4 -->
<g id="edge27" class="edge">
<title>Node19&#45;&gt;Node4</title>
<path fill="none" stroke="midnightblue" d="M376.11,-380.37C371.21,-356.4 361.26,-307.75 355.8,-281.06"/>
<polygon fill="midnightblue" stroke="midnightblue" points="359.19,-280.19 353.76,-271.1 352.33,-281.6 359.19,-280.19"/>
</g>
<!-- Node19&#45;&gt;Node5 -->
<g id="edge28" class="edge">
<title>Node19&#45;&gt;Node5</title>
<path fill="none" stroke="midnightblue" d="M364.21,-380.39C343.39,-359.68 305.66,-318.95 285,-277 276.08,-258.88 270.95,-236.49 268.13,-219.76"/>
<polygon fill="midnightblue" stroke="midnightblue" points="271.56,-219.04 266.59,-209.69 264.64,-220.1 271.56,-219.04"/>
</g>
<!-- Node19&#45;&gt;Node17 -->
<g id="edge47" class="edge">
<title>Node19&#45;&gt;Node17</title>
<path fill="none" stroke="midnightblue" d="M323.46,-387.35C259.19,-378.41 157.84,-362.07 124,-344 48.15,-303.5 0,-281.48 0,-195.5 0,-195.5 0,-195.5 0,-126.5 0,-90.85 14.71,-51.32 24.49,-28.98"/>
<polygon fill="midnightblue" stroke="midnightblue" points="27.74,-30.29 28.69,-19.74 21.36,-27.4 27.74,-30.29"/>
</g>
<!-- Node20 -->
<g id="node20" class="node">
<title>Node20</title>
<g id="a_node20"><a xlink:href="shared__func_8hpp.html" target="_top" xlink:title=" ">
<polygon fill="none" stroke="black" points="543.5,-313.5 543.5,-343.5 634.5,-343.5 634.5,-313.5 543.5,-313.5"/>
<text text-anchor="start" x="551.5" y="-331.5" font-family="Helvetica,sans-Serif" font-size="10.00">yaclib/util/detail</text>
<text text-anchor="middle" x="589" y="-320.5" font-family="Helvetica,sans-Serif" font-size="10.00">/shared_func.hpp</text>
</a>
</g>
</g>
<!-- Node19&#45;&gt;Node20 -->
<g id="edge29" class="edge">
<title>Node19&#45;&gt;Node20</title>
<path fill="none" stroke="midnightblue" d="M424.31,-380.48C456.35,-370.56 499.5,-357.2 533.6,-346.65"/>
<polygon fill="midnightblue" stroke="midnightblue" points="534.89,-349.91 543.41,-343.61 532.82,-343.22 534.89,-349.91"/>
</g>
<!-- Node19&#45;&gt;Node24 -->
<g id="edge46" class="edge">
<title>Node19&#45;&gt;Node24</title>
<path fill="none" stroke="midnightblue" d="M434.68,-385.37C488.33,-376.21 571.63,-361.05 643,-344 747.8,-318.96 775.79,-316.61 876,-277 936.82,-252.96 957.34,-252.55 1007,-210 1028.49,-191.59 1046.41,-163.84 1056.67,-145.95"/>
<polygon fill="midnightblue" stroke="midnightblue" points="1059.76,-147.58 1061.56,-137.14 1053.64,-144.19 1059.76,-147.58"/>
</g>
<!-- Node20&#45;&gt;Node6 -->
<g id="edge31" class="edge">
<title>Node20&#45;&gt;Node6</title>
<path fill="none" stroke="midnightblue" d="M580.87,-313.37C566.88,-289.08 538.3,-239.44 523.07,-213"/>
<polygon fill="midnightblue" stroke="midnightblue" points="525.97,-211.02 517.95,-204.1 519.91,-214.51 525.97,-211.02"/>
</g>
<!-- Node20&#45;&gt;Node7 -->
<g id="edge43" class="edge">
<title>Node20&#45;&gt;Node7</title>
<path fill="none" stroke="midnightblue" d="M595.74,-313.19C607.84,-285.21 629.7,-222.2 604,-179 592.99,-160.49 572.57,-148.35 553.66,-140.62"/>
<polygon fill="midnightblue" stroke="midnightblue" points="554.85,-137.33 544.26,-137.07 552.38,-143.88 554.85,-137.33"/>
</g>
<!-- Node20&#45;&gt;Node8 -->
<g id="edge44" class="edge">
<title>Node20&#45;&gt;Node8</title>
<path fill="none" stroke="midnightblue" d="M591.73,-313.3C596.43,-284.39 602.62,-218.13 570,-179 536.25,-138.51 506.83,-160.19 457,-143 454.75,-142.22 452.44,-141.41 450.11,-140.58"/>
<polygon fill="midnightblue" stroke="midnightblue" points="451.21,-137.25 440.62,-137.12 448.82,-143.83 451.21,-137.25"/>
</g>
<!-- Node20&#45;&gt;Node9 -->
<g id="edge45" class="edge">
<title>Node20&#45;&gt;Node9</title>
<path fill="none" stroke="midnightblue" d="M555.86,-313.34C533.4,-303.55 503.17,-290 477,-277 473.52,-275.27 356.25,-213.18 354,-210 340.98,-191.57 339.06,-164.97 339.51,-147.23"/>
<polygon fill="midnightblue" stroke="midnightblue" points="343.02,-147.19 340.05,-137.02 336.03,-146.82 343.02,-147.19"/>
</g>
<!-- Node20&#45;&gt;Node11 -->
<g id="edge30" class="edge">
<title>Node20&#45;&gt;Node11</title>
<path fill="none" stroke="midnightblue" d="M569.31,-313.37C536.52,-289.85 470.64,-242.59 433.02,-215.6"/>
<polygon fill="midnightblue" stroke="midnightblue" points="434.72,-212.51 424.55,-209.52 430.63,-218.2 434.72,-212.51"/>
</g>
<!-- Node20&#45;&gt;Node14 -->
<g id="edge42" class="edge">
<title>Node20&#45;&gt;Node14</title>
<path fill="none" stroke="midnightblue" d="M605.39,-313.08C616.19,-303.29 630.42,-289.84 642,-277 659.24,-257.89 677,-234.51 689.26,-217.7"/>
<polygon fill="midnightblue" stroke="midnightblue" points="692.11,-219.72 695.13,-209.56 686.44,-215.62 692.11,-219.72"/>
</g>
<!-- Node21 -->
<g id="node21" class="node">
<title>Node21</title>
<g id="a_node21"><a xlink:href="helper_8hpp.html" target="_top" xlink:title=" ">
<polygon fill="none" stroke="black" points="763,-252 763,-271 867,-271 867,-252 763,-252"/>
<text text-anchor="middle" x="815" y="-259" font-family="Helvetica,sans-Serif" font-size="10.00">yaclib/util/helper.hpp</text>
</a>
</g>
</g>
<!-- Node20&#45;&gt;Node21 -->
<g id="edge32" class="edge">
<title>Node20&#45;&gt;Node21</title>
<path fill="none" stroke="midnightblue" d="M634.73,-314.35C676.03,-302.47 736.16,-285.18 775.42,-273.88"/>
<polygon fill="midnightblue" stroke="midnightblue" points="776.54,-277.2 785.18,-271.08 774.6,-270.48 776.54,-277.2"/>
</g>
<!-- Node21&#45;&gt;Node14 -->
<g id="edge41" class="edge">
<title>Node21&#45;&gt;Node14</title>
<path fill="none" stroke="midnightblue" d="M800.16,-251.73C784.23,-242.32 758.39,-227.05 737.66,-214.8"/>
<polygon fill="midnightblue" stroke="midnightblue" points="739.23,-211.66 728.84,-209.59 735.67,-217.69 739.23,-211.66"/>
</g>
<!-- Node22 -->
<g id="node22" class="node">
<title>Node22</title>
<g id="a_node22"><a xlink:href="atomic__counter_8hpp.html" target="_top" xlink:title=" ">
<polygon fill="none" stroke="black" points="772,-179.5 772,-209.5 876,-209.5 876,-179.5 772,-179.5"/>
<text text-anchor="start" x="780" y="-197.5" font-family="Helvetica,sans-Serif" font-size="10.00">yaclib/util/detail</text>
<text text-anchor="middle" x="824" y="-186.5" font-family="Helvetica,sans-Serif" font-size="10.00">/atomic_counter.hpp</text>
</a>
</g>
</g>
<!-- Node21&#45;&gt;Node22 -->
<g id="edge33" class="edge">
<title>Node21&#45;&gt;Node22</title>
<path fill="none" stroke="midnightblue" d="M816.21,-251.73C817.35,-243.54 819.1,-230.92 820.65,-219.71"/>
<polygon fill="midnightblue" stroke="midnightblue" points="824.14,-219.97 822.05,-209.59 817.21,-219.01 824.14,-219.97"/>
</g>
<!-- Node26 -->
<g id="node26" class="node">
<title>Node26</title>
<g id="a_node26"><a xlink:href="unique__counter_8hpp.html" target="_top" xlink:title=" ">
<polygon fill="none" stroke="black" points="894,-179.5 894,-209.5 998,-209.5 998,-179.5 894,-179.5"/>
<text text-anchor="start" x="902" y="-197.5" font-family="Helvetica,sans-Serif" font-size="10.00">yaclib/util/detail</text>
<text text-anchor="middle" x="946" y="-186.5" font-family="Helvetica,sans-Serif" font-size="10.00">/unique_counter.hpp</text>
</a>
</g>
</g>
<!-- Node21&#45;&gt;Node26 -->
<g id="edge39" class="edge">
<title>Node21&#45;&gt;Node26</title>
<path fill="none" stroke="midnightblue" d="M832.4,-251.87C851.65,-242.31 883.27,-226.63 908.26,-214.22"/>
<polygon fill="midnightblue" stroke="midnightblue" points="910.08,-217.23 917.48,-209.65 906.97,-210.96 910.08,-217.23"/>
</g>
<!-- Node22&#45;&gt;Node9 -->
<g id="edge37" class="edge">
<title>Node22&#45;&gt;Node9</title>
<path fill="none" stroke="midnightblue" d="M771.67,-180.73C768.41,-180.1 765.16,-179.52 762,-179 592.82,-151.42 544.76,-182.66 378,-143 375.17,-142.33 372.27,-141.48 369.39,-140.54"/>
<polygon fill="midnightblue" stroke="midnightblue" points="370.47,-137.21 359.88,-137.07 368.07,-143.78 370.47,-137.21"/>
</g>
<!-- Node22&#45;&gt;Node12 -->
<g id="edge34" class="edge">
<title>Node22&#45;&gt;Node12</title>
<path fill="none" stroke="midnightblue" d="M807.94,-179.4C796.06,-168.96 779.89,-154.75 767.64,-144"/>
<polygon fill="midnightblue" stroke="midnightblue" points="769.72,-141.16 759.9,-137.19 765.1,-146.42 769.72,-141.16"/>
</g>
<!-- Node23 -->
<g id="node23" class="node">
<title>Node23</title>
<g id="a_node23"><a xlink:href="default__deleter_8hpp.html" target="_top" xlink:title=" ">
<polygon fill="none" stroke="black" points="922.5,-112.5 922.5,-142.5 1023.5,-142.5 1023.5,-112.5 922.5,-112.5"/>
<text text-anchor="start" x="930.5" y="-130.5" font-family="Helvetica,sans-Serif" font-size="10.00">yaclib/util/detail</text>
<text text-anchor="middle" x="973" y="-119.5" font-family="Helvetica,sans-Serif" font-size="10.00">/default_deleter.hpp</text>
</a>
</g>
</g>
<!-- Node22&#45;&gt;Node23 -->
<g id="edge35" class="edge">
<title>Node22&#45;&gt;Node23</title>
<path fill="none" stroke="midnightblue" d="M856.33,-179.4C878.3,-169.81 907.56,-157.05 931.28,-146.7"/>
<polygon fill="midnightblue" stroke="midnightblue" points="932.97,-149.78 940.73,-142.58 930.17,-143.37 932.97,-149.78"/>
</g>
<!-- Node22&#45;&gt;Node24 -->
<g id="edge36" class="edge">
<title>Node22&#45;&gt;Node24</title>
<path fill="none" stroke="midnightblue" d="M876.04,-181.04C936.7,-166.51 1029.21,-144.28 1033,-143 1034.87,-142.37 1036.78,-141.67 1038.68,-140.94"/>
<polygon fill="midnightblue" stroke="midnightblue" points="1040.17,-144.12 1048.07,-137.06 1037.49,-137.65 1040.17,-144.12"/>
</g>
<!-- Node25 -->
<g id="node25" class="node">
<title>Node25</title>
<g id="a_node25"><a xlink:title=" ">
<polygon fill="none" stroke="#bfbfbf" points="812,-118 812,-137 904,-137 904,-118 812,-118"/>
<text text-anchor="middle" x="858" y="-125" font-family="Helvetica,sans-Serif" font-size="10.00">yaclib_std/atomic</text>
</a>
</g>
</g>
<!-- Node22&#45;&gt;Node25 -->
<g id="edge38" class="edge">
<title>Node22&#45;&gt;Node25</title>
<path fill="none" stroke="midnightblue" d="M831.38,-179.4C836.47,-169.66 843.28,-156.65 848.73,-146.21"/>
<polygon fill="midnightblue" stroke="midnightblue" points="851.92,-147.68 853.45,-137.19 845.72,-144.43 851.92,-147.68"/>
</g>
<!-- Node26&#45;&gt;Node23 -->
<g id="edge40" class="edge">
<title>Node26&#45;&gt;Node23</title>
<path fill="none" stroke="midnightblue" d="M951.86,-179.4C955.18,-171.39 959.43,-161.16 963.25,-151.98"/>
<polygon fill="midnightblue" stroke="midnightblue" points="966.55,-153.15 967.15,-142.58 960.08,-150.47 966.55,-153.15"/>
</g>
</g>
</svg>
        <g id="navigator" transform="translate(0 0)" fill="#404254">
                <rect fill="#f2f5e9" fill-opacity="0.5" stroke="#606060" stroke-width=".5" x="0" y="0" width="60" height="60"/>
                <use id="zoomplus" xlink:href="#zoomPlus" x="17" y="9" onmousedown="handleZoom(evt,'in')"/>
                <use id="zoomminus" xlink:href="#zoomMin" x="42" y="9" onmousedown="handleZoom(evt,'out')"/>
                <use id="reset" xlink:href="#resetDef" x="30" y="36" onmousedown="handleReset()"/>
                <g id="arrowUp" xlink:href="#dirArrow" transform="translate(30 24)" onmousedown="handlePan(0,-1)">
                  <use xlink:href="#rim" fill="#404040">
                        <set attributeName="fill" to="#808080" begin="arrowUp.mouseover" end="arrowUp.mouseout"/>
                  </use>
                  <path fill="none" stroke="white" stroke-width="1.5" d="M0,-3.0v7 M-2.5,-0.5L0,-3.0L2.5,-0.5"/>
                </g>
                <g id="arrowRight" xlink:href="#dirArrow" transform="rotate(90) translate(36 -43)" onmousedown="handlePan(1,0)">
                  <use xlink:href="#rim" fill="#404040">
                        <set attributeName="fill" to="#808080" begin="arrowRight.mouseover" end="arrowRight.mouseout"/>
                  </use>
                  <path fill="none" stroke="white" stroke-width="1.5" d="M0,-3.0v7 M-2.5,-0.5L0,-3.0L2.5,-0.5"/>
                </g>
                <g id="arrowDown" xlink:href="#dirArrow" transform="rotate(180) translate(-30 -48)" onmousedown="handlePan(0,1)">
                  <use xlink:href="#rim" fill="#404040">
                        <set attributeName="fill" to="#808080" begin="arrowDown.mouseover" end="arrowDown.mouseout"/>
                  </use>
                  <path fill="none" stroke="white" stroke-width="1.5" d="M0,-3.0v7 M-2.5,-0.5L0,-3.0L2.5,-0.5"/>
                </g>
                <g id="arrowLeft" xlink:href="#dirArrow" transform="rotate(270) translate(-36 17)" onmousedown="handlePan(-1,0)">
                  <use xlink:href="#rim" fill="#404040">
                        <set attributeName="fill" to="#808080" begin="arrowLeft.mouseover" end="arrowLeft.mouseout"/>
                  </use>
                  <path fill="none" stroke="white" stroke-width="1.5" d="M0,-3.0v7 M-2.5,-0.5L0,-3.0L2.5,-0.5"/>
                </g>
        </g>
        <svg viewBox="0 0 15 15" width="100%" height="30px" preserveAspectRatio="xMaxYMin meet">
         <g id="arrow_out" transform="scale(0.3 0.3)">
          <a xlink:href="test_2example_2executor_2thread__pool_8cpp__incl_org.svg" target="_base">
           <rect id="button" ry="5" rx="5" y="6" x="6" height="38" width="38"
                fill="#f2f5e9" fill-opacity="0.5" stroke="#606060" stroke-width="1.0"/>
           <path id="arrow"
             d="M 11.500037,31.436501 C 11.940474,20.09759 22.043105,11.32322 32.158766,21.979434 L 37.068811,17.246167 C 37.068811,17.246167 37.088388,32 37.088388,32 L 22.160133,31.978069 C 22.160133,31.978069 26.997745,27.140456 26.997745,27.140456 C 18.528582,18.264221 13.291696,25.230495 11.500037,31.436501 z"
             style="fill:#404040;"/>
          </a>
         </g>
        </svg>
</svg>
