<?xml version="1.0" encoding="UTF-8" standalone="no"?>
<!DOCTYPE svg PUBLIC "-//W3C//DTD SVG 1.1//EN"
 "http://www.w3.org/Graphics/SVG/1.1/DTD/svg11.dtd">
<!-- Generated by graphviz version 3.0.0 (20221109.1736)
 -->
<!-- Title: test/example/exe/strand.cpp Pages: 1 -->
<svg width="1328pt" height="408pt"
 viewBox="0.00 0.00 1327.66 408.00" xmlns="http://www.w3.org/2000/svg" xmlns:xlink="http://www.w3.org/1999/xlink">
<g id="graph0" class="graph" transform="scale(1 1) rotate(0) translate(4 404)">
<title>test/example/exe/strand.cpp</title>
<!-- Node1 -->
<g id="node1" class="node">
<title>Node1</title>
<g id="a_node1"><a xlink:title=" ">
<polygon fill="#bfbfbf" stroke="black" points="930.16,-380.5 930.16,-399.5 1068.16,-399.5 1068.16,-380.5 930.16,-380.5"/>
<text text-anchor="middle" x="999.16" y="-387.5" font-family="Helvetica,sans-Serif" font-size="10.00">test/example/exe/strand.cpp</text>
</a>
</g>
</g>
<!-- Node2 -->
<g id="node2" class="node">
<title>Node2</title>
<g id="a_node2"><a xlink:href="strand_8hpp.html" target="_top" xlink:title=" ">
<polygon fill="none" stroke="black" points="358.66,-319 358.66,-338 465.66,-338 465.66,-319 358.66,-319"/>
<text text-anchor="middle" x="412.16" y="-326" font-family="Helvetica,sans-Serif" font-size="10.00">yaclib/exe/strand.hpp</text>
</a>
</g>
</g>
<!-- Node1&#45;&gt;Node2 -->
<g id="edge1" class="edge">
<title>Node1&#45;&gt;Node2</title>
<path fill="none" stroke="midnightblue" d="M930.1,-382C815.33,-370.37 587.01,-347.22 475.88,-335.96"/>
<polygon fill="midnightblue" stroke="midnightblue" points="476.12,-332.47 465.82,-334.94 475.42,-339.43 476.12,-332.47"/>
</g>
<!-- Node7 -->
<g id="node7" class="node">
<title>Node7</title>
<g id="a_node7"><a xlink:href="node_8hpp.html" target="_top" xlink:title=" ">
<polygon fill="none" stroke="black" points="888.66,-112.5 888.66,-142.5 971.66,-142.5 971.66,-112.5 888.66,-112.5"/>
<text text-anchor="start" x="896.66" y="-130.5" font-family="Helvetica,sans-Serif" font-size="10.00">yaclib/util/detail</text>
<text text-anchor="middle" x="930.16" y="-119.5" font-family="Helvetica,sans-Serif" font-size="10.00">/node.hpp</text>
</a>
</g>
</g>
<!-- Node1&#45;&gt;Node7 -->
<g id="edge38" class="edge">
<title>Node1&#45;&gt;Node7</title>
<path fill="none" stroke="midnightblue" d="M1001.52,-380.21C1007.21,-357.7 1020.56,-296.2 1011.16,-246 1005.28,-214.6 1003.17,-205.38 985.16,-179 977.62,-167.96 967.23,-157.62 957.51,-149.21"/>
<polygon fill="midnightblue" stroke="midnightblue" points="959.51,-146.32 949.58,-142.62 955.03,-151.7 959.51,-146.32"/>
</g>
<!-- Node12 -->
<g id="node12" class="node">
<title>Node12</title>
<g id="a_node12"><a xlink:href="intrusive__ptr_8hpp.html" target="_top" xlink:title=" ">
<polygon fill="none" stroke="black" points="280.66,-179.5 280.66,-209.5 377.66,-209.5 377.66,-179.5 280.66,-179.5"/>
<text text-anchor="start" x="288.66" y="-197.5" font-family="Helvetica,sans-Serif" font-size="10.00">yaclib/util/intrusive</text>
<text text-anchor="middle" x="329.16" y="-186.5" font-family="Helvetica,sans-Serif" font-size="10.00">_ptr.hpp</text>
</a>
</g>
</g>
<!-- Node1&#45;&gt;Node12 -->
<g id="edge39" class="edge">
<title>Node1&#45;&gt;Node12</title>
<path fill="none" stroke="midnightblue" d="M930.14,-387.09C786.11,-382.64 457.89,-369.91 349.16,-344 274.56,-326.22 232.57,-340.89 190.16,-277 166.06,-240.7 222.75,-218.4 270.84,-206.5"/>
<polygon fill="midnightblue" stroke="midnightblue" points="271.7,-209.89 280.62,-204.19 270.09,-203.08 271.7,-209.89"/>
</g>
<!-- Node15 -->
<g id="node15" class="node">
<title>Node15</title>
<g id="a_node15"><a xlink:href="submit_8hpp.html" target="_top" xlink:title=" ">
<polygon fill="none" stroke="black" points="31.16,-319 31.16,-338 141.16,-338 141.16,-319 31.16,-319"/>
<text text-anchor="middle" x="86.16" y="-326" font-family="Helvetica,sans-Serif" font-size="10.00">yaclib/exe/submit.hpp</text>
</a>
</g>
</g>
<!-- Node1&#45;&gt;Node15 -->
<g id="edge18" class="edge">
<title>Node1&#45;&gt;Node15</title>
<path fill="none" stroke="midnightblue" d="M930.09,-388.76C785.87,-387.51 442.48,-380.56 157.16,-344 149.26,-342.99 140.93,-341.59 132.86,-340.06"/>
<polygon fill="midnightblue" stroke="midnightblue" points="133.33,-336.58 122.84,-338.07 131.96,-343.45 133.33,-336.58"/>
</g>
<!-- Node19 -->
<g id="node19" class="node">
<title>Node19</title>
<g id="a_node19"><a xlink:href="fair__thread__pool_8hpp.html" target="_top" xlink:title=" ">
<polygon fill="none" stroke="black" points="702.66,-313.5 702.66,-343.5 795.66,-343.5 795.66,-313.5 702.66,-313.5"/>
<text text-anchor="start" x="710.66" y="-331.5" font-family="Helvetica,sans-Serif" font-size="10.00">yaclib/runtime/fair</text>
<text text-anchor="middle" x="749.16" y="-320.5" font-family="Helvetica,sans-Serif" font-size="10.00">_thread_pool.hpp</text>
</a>
</g>
</g>
<!-- Node1&#45;&gt;Node19 -->
<g id="edge28" class="edge">
<title>Node1&#45;&gt;Node19</title>
<path fill="none" stroke="midnightblue" d="M963.34,-380.48C922.25,-370.7 854.33,-354.53 805.99,-343.03"/>
<polygon fill="midnightblue" stroke="midnightblue" points="806.53,-339.56 795.99,-340.65 804.91,-346.37 806.53,-339.56"/>
</g>
<!-- Node22 -->
<g id="node22" class="node">
<title>Node22</title>
<g id="a_node22"><a xlink:title=" ">
<polygon fill="none" stroke="#bfbfbf" points="958.16,-252 958.16,-271 1002.16,-271 1002.16,-252 958.16,-252"/>
<text text-anchor="middle" x="980.16" y="-259" font-family="Helvetica,sans-Serif" font-size="10.00">vector</text>
</a>
</g>
</g>
<!-- Node1&#45;&gt;Node22 -->
<g id="edge43" class="edge">
<title>Node1&#45;&gt;Node22</title>
<path fill="none" stroke="midnightblue" d="M997.85,-380.31C994.8,-359.99 987.15,-309.05 982.98,-281.28"/>
<polygon fill="midnightblue" stroke="midnightblue" points="986.42,-280.62 981.47,-271.26 979.5,-281.66 986.42,-280.62"/>
</g>
<!-- Node26 -->
<g id="node26" class="node">
<title>Node26</title>
<g id="a_node26"><a xlink:title=" ">
<polygon fill="none" stroke="#bfbfbf" points="1046.66,-319 1046.66,-338 1095.66,-338 1095.66,-319 1046.66,-319"/>
<text text-anchor="middle" x="1071.16" y="-326" font-family="Helvetica,sans-Serif" font-size="10.00">cstddef</text>
</a>
</g>
</g>
<!-- Node1&#45;&gt;Node26 -->
<g id="edge40" class="edge">
<title>Node1&#45;&gt;Node26</title>
<path fill="none" stroke="midnightblue" d="M1009.47,-380.48C1020.81,-371.11 1039.23,-355.88 1053,-344.51"/>
<polygon fill="midnightblue" stroke="midnightblue" points="1055.38,-347.08 1060.86,-338.01 1050.92,-341.68 1055.38,-347.08"/>
</g>
<!-- Node27 -->
<g id="node27" class="node">
<title>Node27</title>
<g id="a_node27"><a xlink:title=" ">
<polygon fill="none" stroke="#bfbfbf" points="1114.16,-319 1114.16,-338 1168.16,-338 1168.16,-319 1114.16,-319"/>
<text text-anchor="middle" x="1141.16" y="-326" font-family="Helvetica,sans-Serif" font-size="10.00">iostream</text>
</a>
</g>
</g>
<!-- Node1&#45;&gt;Node27 -->
<g id="edge41" class="edge">
<title>Node1&#45;&gt;Node27</title>
<path fill="none" stroke="midnightblue" d="M1019.5,-380.48C1043.54,-370.4 1083.76,-353.55 1111.32,-342"/>
<polygon fill="midnightblue" stroke="midnightblue" points="1112.98,-345.1 1120.85,-338.01 1110.27,-338.65 1112.98,-345.1"/>
</g>
<!-- Node28 -->
<g id="node28" class="node">
<title>Node28</title>
<g id="a_node28"><a xlink:title=" ">
<polygon fill="none" stroke="#bfbfbf" points="1186.16,-319 1186.16,-338 1230.16,-338 1230.16,-319 1186.16,-319"/>
<text text-anchor="middle" x="1208.16" y="-326" font-family="Helvetica,sans-Serif" font-size="10.00">thread</text>
</a>
</g>
</g>
<!-- Node1&#45;&gt;Node28 -->
<g id="edge42" class="edge">
<title>Node1&#45;&gt;Node28</title>
<path fill="none" stroke="midnightblue" d="M1042.64,-380.43C1079.11,-372.66 1132.27,-360.01 1177.16,-344 1178.77,-343.42 1180.42,-342.79 1182.07,-342.13"/>
<polygon fill="midnightblue" stroke="midnightblue" points="1183.59,-345.28 1191.35,-338.07 1180.78,-338.87 1183.59,-345.28"/>
</g>
<!-- Node29 -->
<g id="node29" class="node">
<title>Node29</title>
<g id="a_node29"><a xlink:title=" ">
<polygon fill="none" stroke="#bfbfbf" points="1248.66,-319 1248.66,-338 1319.66,-338 1319.66,-319 1248.66,-319"/>
<text text-anchor="middle" x="1284.16" y="-326" font-family="Helvetica,sans-Serif" font-size="10.00">gtest/gtest.h</text>
</a>
</g>
</g>
<!-- Node1&#45;&gt;Node29 -->
<g id="edge44" class="edge">
<title>Node1&#45;&gt;Node29</title>
<path fill="none" stroke="midnightblue" d="M1055.85,-380.45C1104.76,-372.57 1177.11,-359.75 1239.16,-344 1242.6,-343.13 1246.17,-342.13 1249.72,-341.08"/>
<polygon fill="midnightblue" stroke="midnightblue" points="1251.04,-344.34 1259.56,-338.04 1248.98,-337.65 1251.04,-344.34"/>
</g>
<!-- Node3 -->
<g id="node3" class="node">
<title>Node3</title>
<g id="a_node3"><a xlink:href="executor_8hpp.html" target="_top" xlink:title=" ">
<polygon fill="none" stroke="black" points="309.66,-252 309.66,-271 426.66,-271 426.66,-252 309.66,-252"/>
<text text-anchor="middle" x="368.16" y="-259" font-family="Helvetica,sans-Serif" font-size="10.00">yaclib/exe/executor.hpp</text>
</a>
</g>
</g>
<!-- Node2&#45;&gt;Node3 -->
<g id="edge2" class="edge">
<title>Node2&#45;&gt;Node3</title>
<path fill="none" stroke="midnightblue" d="M406.22,-318.73C399.43,-308.7 388.14,-292.01 379.61,-279.42"/>
<polygon fill="midnightblue" stroke="midnightblue" points="382.5,-277.45 374,-271.13 376.71,-281.37 382.5,-277.45"/>
</g>
<!-- Node4 -->
<g id="node4" class="node">
<title>Node4</title>
<g id="a_node4"><a xlink:href="job_8hpp.html" target="_top" xlink:title=" ">
<polygon fill="none" stroke="black" points="408.66,-185 408.66,-204 501.66,-204 501.66,-185 408.66,-185"/>
<text text-anchor="middle" x="455.16" y="-192" font-family="Helvetica,sans-Serif" font-size="10.00">yaclib/exe/job.hpp</text>
</a>
</g>
</g>
<!-- Node2&#45;&gt;Node4 -->
<g id="edge16" class="edge">
<title>Node2&#45;&gt;Node4</title>
<path fill="none" stroke="midnightblue" d="M416.74,-318.77C421.8,-308.86 429.92,-292.11 435.16,-277 442.45,-255.98 448.16,-231.02 451.58,-214.32"/>
<polygon fill="midnightblue" stroke="midnightblue" points="455.07,-214.71 453.57,-204.22 448.21,-213.35 455.07,-214.71"/>
</g>
<!-- Node14 -->
<g id="node14" class="node">
<title>Node14</title>
<g id="a_node14"><a xlink:title=" ">
<polygon fill="none" stroke="#bfbfbf" points="199.16,-252 199.16,-271 291.16,-271 291.16,-252 199.16,-252"/>
<text text-anchor="middle" x="245.16" y="-259" font-family="Helvetica,sans-Serif" font-size="10.00">yaclib_std/atomic</text>
</a>
</g>
</g>
<!-- Node2&#45;&gt;Node14 -->
<g id="edge17" class="edge">
<title>Node2&#45;&gt;Node14</title>
<path fill="none" stroke="midnightblue" d="M389.98,-318.87C360.95,-307.57 309.89,-287.7 276.81,-274.82"/>
<polygon fill="midnightblue" stroke="midnightblue" points="277.75,-271.43 267.16,-271.06 275.21,-277.95 277.75,-271.43"/>
</g>
<!-- Node3&#45;&gt;Node4 -->
<g id="edge3" class="edge">
<title>Node3&#45;&gt;Node4</title>
<path fill="none" stroke="midnightblue" d="M379.89,-251.73C394.11,-241.11 418.29,-223.05 435.4,-210.26"/>
<polygon fill="midnightblue" stroke="midnightblue" points="437.69,-212.92 443.61,-204.13 433.5,-207.31 437.69,-212.92"/>
</g>
<!-- Node3&#45;&gt;Node12 -->
<g id="edge11" class="edge">
<title>Node3&#45;&gt;Node12</title>
<path fill="none" stroke="midnightblue" d="M362.9,-251.73C357.78,-243.2 349.78,-229.87 342.86,-218.33"/>
<polygon fill="midnightblue" stroke="midnightblue" points="345.76,-216.36 337.61,-209.59 339.76,-219.96 345.76,-216.36"/>
</g>
<!-- Node5 -->
<g id="node5" class="node">
<title>Node5</title>
<g id="a_node5"><a xlink:href="log_8hpp.html" target="_top" xlink:title=" ">
<polygon fill="none" stroke="black" points="389.66,-56.5 389.66,-75.5 464.66,-75.5 464.66,-56.5 389.66,-56.5"/>
<text text-anchor="middle" x="427.16" y="-63.5" font-family="Helvetica,sans-Serif" font-size="10.00">yaclib/log.hpp</text>
</a>
</g>
</g>
<!-- Node4&#45;&gt;Node5 -->
<g id="edge4" class="edge">
<title>Node4&#45;&gt;Node5</title>
<path fill="none" stroke="midnightblue" d="M461.99,-184.65C472.88,-169.37 491.84,-137.25 480.16,-112 474.24,-99.21 462.69,-88.72 451.88,-81.1"/>
<polygon fill="midnightblue" stroke="midnightblue" points="453.78,-78.16 443.49,-75.61 449.94,-84.02 453.78,-78.16"/>
</g>
<!-- Node4&#45;&gt;Node7 -->
<g id="edge6" class="edge">
<title>Node4&#45;&gt;Node7</title>
<path fill="none" stroke="midnightblue" d="M502,-187.09C591.34,-174.86 785.43,-148.31 878.43,-135.58"/>
<polygon fill="midnightblue" stroke="midnightblue" points="879.02,-139.03 888.46,-134.21 878.07,-132.09 879.02,-139.03"/>
</g>
<!-- Node8 -->
<g id="node8" class="node">
<title>Node8</title>
<g id="a_node8"><a xlink:href="func_8hpp.html" target="_top" xlink:title=" ">
<polygon fill="none" stroke="black" points="203.66,-118 203.66,-137 300.66,-137 300.66,-118 203.66,-118"/>
<text text-anchor="middle" x="252.16" y="-125" font-family="Helvetica,sans-Serif" font-size="10.00">yaclib/util/func.hpp</text>
</a>
</g>
</g>
<!-- Node4&#45;&gt;Node8 -->
<g id="edge7" class="edge">
<title>Node4&#45;&gt;Node8</title>
<path fill="none" stroke="midnightblue" d="M428.2,-184.87C392.31,-173.38 328.7,-153.01 288.57,-140.16"/>
<polygon fill="midnightblue" stroke="midnightblue" points="289.49,-136.78 278.9,-137.06 287.36,-143.45 289.49,-136.78"/>
</g>
<!-- Node6 -->
<g id="node6" class="node">
<title>Node6</title>
<g id="a_node6"><a xlink:title=" ">
<polygon fill="none" stroke="#bfbfbf" points="394.16,-0.5 394.16,-19.5 460.16,-19.5 460.16,-0.5 394.16,-0.5"/>
<text text-anchor="middle" x="427.16" y="-7.5" font-family="Helvetica,sans-Serif" font-size="10.00">string_view</text>
</a>
</g>
</g>
<!-- Node5&#45;&gt;Node6 -->
<g id="edge5" class="edge">
<title>Node5&#45;&gt;Node6</title>
<path fill="none" stroke="midnightblue" d="M427.16,-56.08C427.16,-49.01 427.16,-38.86 427.16,-29.99"/>
<polygon fill="midnightblue" stroke="midnightblue" points="430.66,-29.75 427.16,-19.75 423.66,-29.75 430.66,-29.75"/>
</g>
<!-- Node9 -->
<g id="node9" class="node">
<title>Node9</title>
<g id="a_node9"><a xlink:href="ref_8hpp.html" target="_top" xlink:title=" ">
<polygon fill="none" stroke="black" points="271.66,-56.5 271.66,-75.5 360.66,-75.5 360.66,-56.5 271.66,-56.5"/>
<text text-anchor="middle" x="316.16" y="-63.5" font-family="Helvetica,sans-Serif" font-size="10.00">yaclib/util/ref.hpp</text>
</a>
</g>
</g>
<!-- Node8&#45;&gt;Node9 -->
<g id="edge8" class="edge">
<title>Node8&#45;&gt;Node9</title>
<path fill="none" stroke="midnightblue" d="M261.33,-117.98C271.31,-108.7 287.47,-93.67 299.67,-82.33"/>
<polygon fill="midnightblue" stroke="midnightblue" points="302.06,-84.88 307.01,-75.51 297.3,-79.75 302.06,-84.88"/>
</g>
<!-- Node10 -->
<g id="node10" class="node">
<title>Node10</title>
<g id="a_node10"><a xlink:title=" ">
<polygon fill="none" stroke="#bfbfbf" points="173.16,-56.5 173.16,-75.5 235.16,-75.5 235.16,-56.5 173.16,-56.5"/>
<text text-anchor="middle" x="204.16" y="-63.5" font-family="Helvetica,sans-Serif" font-size="10.00">type_traits</text>
</a>
</g>
</g>
<!-- Node8&#45;&gt;Node10 -->
<g id="edge9" class="edge">
<title>Node8&#45;&gt;Node10</title>
<path fill="none" stroke="midnightblue" d="M245.28,-117.98C238.01,-108.96 226.36,-94.52 217.32,-83.31"/>
<polygon fill="midnightblue" stroke="midnightblue" points="220.03,-81.09 211.02,-75.51 214.58,-85.49 220.03,-81.09"/>
</g>
<!-- Node11 -->
<g id="node11" class="node">
<title>Node11</title>
<g id="a_node11"><a xlink:title=" ">
<polygon fill="none" stroke="#bfbfbf" points="9.66,-56.5 9.66,-75.5 48.66,-75.5 48.66,-56.5 9.66,-56.5"/>
<text text-anchor="middle" x="29.16" y="-63.5" font-family="Helvetica,sans-Serif" font-size="10.00">utility</text>
</a>
</g>
</g>
<!-- Node8&#45;&gt;Node11 -->
<g id="edge10" class="edge">
<title>Node8&#45;&gt;Node11</title>
<path fill="none" stroke="midnightblue" d="M217.33,-117.95C180.38,-108.77 120.07,-93.45 58.64,-76.04"/>
<polygon fill="midnightblue" stroke="midnightblue" points="59.35,-72.6 48.78,-73.22 57.43,-79.33 59.35,-72.6"/>
</g>
<!-- Node12&#45;&gt;Node9 -->
<g id="edge12" class="edge">
<title>Node12&#45;&gt;Node9</title>
<path fill="none" stroke="midnightblue" d="M327.72,-179.48C325.38,-156.72 320.75,-111.7 318.12,-86.06"/>
<polygon fill="midnightblue" stroke="midnightblue" points="321.57,-85.38 317.06,-75.79 314.6,-86.09 321.57,-85.38"/>
</g>
<!-- Node12&#45;&gt;Node10 -->
<g id="edge13" class="edge">
<title>Node12&#45;&gt;Node10</title>
<path fill="none" stroke="midnightblue" d="M280.43,-188.99C250.17,-183.38 213.48,-170.86 194.16,-143 182.35,-125.98 188.6,-101.55 195.32,-85.02"/>
<polygon fill="midnightblue" stroke="midnightblue" points="198.51,-86.44 199.4,-75.89 192.12,-83.59 198.51,-86.44"/>
</g>
<!-- Node13 -->
<g id="node13" class="node">
<title>Node13</title>
<g id="a_node13"><a xlink:href="intrusive__ptr__impl_8hpp.html" target="_top" xlink:title=" ">
<polygon fill="none" stroke="black" points="357.16,-112.5 357.16,-142.5 471.16,-142.5 471.16,-112.5 357.16,-112.5"/>
<text text-anchor="start" x="365.16" y="-130.5" font-family="Helvetica,sans-Serif" font-size="10.00">yaclib/util/detail</text>
<text text-anchor="middle" x="414.16" y="-119.5" font-family="Helvetica,sans-Serif" font-size="10.00">/intrusive_ptr_impl.hpp</text>
</a>
</g>
</g>
<!-- Node12&#45;&gt;Node13 -->
<g id="edge14" class="edge">
<title>Node12&#45;&gt;Node13</title>
<path fill="none" stroke="midnightblue" d="M347.6,-179.4C359.3,-170.45 374.62,-158.74 387.61,-148.8"/>
<polygon fill="midnightblue" stroke="midnightblue" points="389.93,-151.43 395.75,-142.58 385.68,-145.87 389.93,-151.43"/>
</g>
<!-- Node13&#45;&gt;Node5 -->
<g id="edge15" class="edge">
<title>Node13&#45;&gt;Node5</title>
<path fill="none" stroke="midnightblue" d="M417.24,-112.4C418.99,-104.38 421.21,-94.23 423.1,-85.57"/>
<polygon fill="midnightblue" stroke="midnightblue" points="426.55,-86.17 425.27,-75.66 419.71,-84.68 426.55,-86.17"/>
</g>
<!-- Node15&#45;&gt;Node3 -->
<g id="edge26" class="edge">
<title>Node15&#45;&gt;Node3</title>
<path fill="none" stroke="midnightblue" d="M123.31,-318.94C174.14,-307.22 265.37,-286.19 320.97,-273.38"/>
<polygon fill="midnightblue" stroke="midnightblue" points="321.96,-276.74 330.92,-271.08 320.39,-269.92 321.96,-276.74"/>
</g>
<!-- Node15&#45;&gt;Node11 -->
<g id="edge27" class="edge">
<title>Node15&#45;&gt;Node11</title>
<path fill="none" stroke="midnightblue" d="M65.36,-318.99C48.67,-310.91 26.4,-297.01 16.16,-277 -16.55,-213.07 8.64,-123.48 22.1,-85.35"/>
<polygon fill="midnightblue" stroke="midnightblue" points="25.5,-86.23 25.67,-75.63 18.94,-83.81 25.5,-86.23"/>
</g>
<!-- Node16 -->
<g id="node16" class="node">
<title>Node16</title>
<g id="a_node16"><a xlink:href="unique__job_8hpp.html" target="_top" xlink:title=" ">
<polygon fill="none" stroke="black" points="25.66,-246.5 25.66,-276.5 142.66,-276.5 142.66,-246.5 25.66,-246.5"/>
<text text-anchor="start" x="33.66" y="-264.5" font-family="Helvetica,sans-Serif" font-size="10.00">yaclib/exe/detail/unique</text>
<text text-anchor="middle" x="84.16" y="-253.5" font-family="Helvetica,sans-Serif" font-size="10.00">_job.hpp</text>
</a>
</g>
</g>
<!-- Node15&#45;&gt;Node16 -->
<g id="edge19" class="edge">
<title>Node15&#45;&gt;Node16</title>
<path fill="none" stroke="midnightblue" d="M85.89,-318.73C85.64,-310.54 85.25,-297.92 84.9,-286.71"/>
<polygon fill="midnightblue" stroke="midnightblue" points="88.4,-286.48 84.59,-276.59 81.4,-286.69 88.4,-286.48"/>
</g>
<!-- Node16&#45;&gt;Node4 -->
<g id="edge20" class="edge">
<title>Node16&#45;&gt;Node4</title>
<path fill="none" stroke="midnightblue" d="M142.74,-251.44C203.68,-241.84 301.79,-225.91 386.16,-210 392.47,-208.81 399.1,-207.5 405.64,-206.16"/>
<polygon fill="midnightblue" stroke="midnightblue" points="406.72,-209.51 415.81,-204.06 405.31,-202.66 406.72,-209.51"/>
</g>
<!-- Node16&#45;&gt;Node11 -->
<g id="edge25" class="edge">
<title>Node16&#45;&gt;Node11</title>
<path fill="none" stroke="midnightblue" d="M80.11,-246.27C70.31,-211.8 45.31,-123.81 34.39,-85.4"/>
<polygon fill="midnightblue" stroke="midnightblue" points="37.7,-84.24 31.6,-75.58 30.96,-86.15 37.7,-84.24"/>
</g>
<!-- Node17 -->
<g id="node17" class="node">
<title>Node17</title>
<g id="a_node17"><a xlink:href="safe__call_8hpp.html" target="_top" xlink:title=" ">
<polygon fill="none" stroke="black" points="63.66,-112.5 63.66,-142.5 146.66,-142.5 146.66,-112.5 63.66,-112.5"/>
<text text-anchor="start" x="71.66" y="-130.5" font-family="Helvetica,sans-Serif" font-size="10.00">yaclib/util/detail</text>
<text text-anchor="middle" x="105.16" y="-119.5" font-family="Helvetica,sans-Serif" font-size="10.00">/safe_call.hpp</text>
</a>
</g>
</g>
<!-- Node16&#45;&gt;Node17 -->
<g id="edge21" class="edge">
<title>Node16&#45;&gt;Node17</title>
<path fill="none" stroke="midnightblue" d="M86.41,-246.37C89.97,-223.94 96.98,-179.92 101.34,-152.49"/>
<polygon fill="midnightblue" stroke="midnightblue" points="104.81,-152.95 102.93,-142.52 97.9,-151.85 104.81,-152.95"/>
</g>
<!-- Node17&#45;&gt;Node10 -->
<g id="edge23" class="edge">
<title>Node17&#45;&gt;Node10</title>
<path fill="none" stroke="midnightblue" d="M128.62,-112.4C144.49,-102.86 165.35,-90.32 181.13,-80.84"/>
<polygon fill="midnightblue" stroke="midnightblue" points="182.98,-83.81 189.75,-75.66 179.38,-77.81 182.98,-83.81"/>
</g>
<!-- Node17&#45;&gt;Node11 -->
<g id="edge24" class="edge">
<title>Node17&#45;&gt;Node11</title>
<path fill="none" stroke="midnightblue" d="M87.15,-112.4C75.42,-103.22 60.14,-91.26 48.21,-81.92"/>
<polygon fill="midnightblue" stroke="midnightblue" points="50.25,-79.07 40.22,-75.66 45.93,-84.58 50.25,-79.07"/>
</g>
<!-- Node18 -->
<g id="node18" class="node">
<title>Node18</title>
<g id="a_node18"><a xlink:title=" ">
<polygon fill="none" stroke="#bfbfbf" points="67.16,-56.5 67.16,-75.5 155.16,-75.5 155.16,-56.5 67.16,-56.5"/>
<text text-anchor="middle" x="111.16" y="-63.5" font-family="Helvetica,sans-Serif" font-size="10.00">yaclib/config.hpp</text>
</a>
</g>
</g>
<!-- Node17&#45;&gt;Node18 -->
<g id="edge22" class="edge">
<title>Node17&#45;&gt;Node18</title>
<path fill="none" stroke="midnightblue" d="M106.58,-112.4C107.38,-104.47 108.39,-94.46 109.26,-85.86"/>
<polygon fill="midnightblue" stroke="midnightblue" points="112.76,-85.96 110.28,-75.66 105.8,-85.26 112.76,-85.96"/>
</g>
<!-- Node19&#45;&gt;Node3 -->
<g id="edge29" class="edge">
<title>Node19&#45;&gt;Node3</title>
<path fill="none" stroke="midnightblue" d="M702.44,-319.53C633.41,-307.75 504.16,-285.7 428.19,-272.74"/>
<polygon fill="midnightblue" stroke="midnightblue" points="428.73,-269.28 418.29,-271.05 427.55,-276.18 428.73,-269.28"/>
</g>
<!-- Node19&#45;&gt;Node4 -->
<g id="edge30" class="edge">
<title>Node19&#45;&gt;Node4</title>
<path fill="none" stroke="midnightblue" d="M702.54,-327.43C651.75,-325.24 570.02,-315.34 512.16,-277 488.48,-261.31 471.69,-232.12 462.72,-213.27"/>
<polygon fill="midnightblue" stroke="midnightblue" points="465.84,-211.69 458.54,-204.01 459.46,-214.56 465.84,-211.69"/>
</g>
<!-- Node20 -->
<g id="node20" class="node">
<title>Node20</title>
<g id="a_node20"><a xlink:href="intrusive__list_8hpp.html" target="_top" xlink:title=" ">
<polygon fill="none" stroke="black" points="884.16,-179.5 884.16,-209.5 976.16,-209.5 976.16,-179.5 884.16,-179.5"/>
<text text-anchor="start" x="892.16" y="-197.5" font-family="Helvetica,sans-Serif" font-size="10.00">yaclib/util/detail</text>
<text text-anchor="middle" x="930.16" y="-186.5" font-family="Helvetica,sans-Serif" font-size="10.00">/intrusive_list.hpp</text>
</a>
</g>
</g>
<!-- Node19&#45;&gt;Node20 -->
<g id="edge31" class="edge">
<title>Node19&#45;&gt;Node20</title>
<path fill="none" stroke="midnightblue" d="M795.85,-325.13C832.3,-320.74 881.58,-308.83 911.16,-277 925.48,-261.59 929.68,-237.55 930.62,-219.56"/>
<polygon fill="midnightblue" stroke="midnightblue" points="934.12,-219.61 930.86,-209.53 927.13,-219.45 934.12,-219.61"/>
</g>
<!-- Node21 -->
<g id="node21" class="node">
<title>Node21</title>
<g id="a_node21"><a xlink:title=" ">
<polygon fill="none" stroke="#bfbfbf" points="521.16,-252 521.16,-271 567.16,-271 567.16,-252 521.16,-252"/>
<text text-anchor="middle" x="544.16" y="-259" font-family="Helvetica,sans-Serif" font-size="10.00">cstdint</text>
</a>
</g>
</g>
<!-- Node19&#45;&gt;Node21 -->
<g id="edge33" class="edge">
<title>Node19&#45;&gt;Node21</title>
<path fill="none" stroke="midnightblue" d="M702.32,-315.75C667.18,-306.48 618.11,-292.54 576.16,-277 574.55,-276.4 572.9,-275.76 571.25,-275.09"/>
<polygon fill="midnightblue" stroke="midnightblue" points="572.48,-271.81 561.91,-271.08 569.72,-278.24 572.48,-271.81"/>
</g>
<!-- Node19&#45;&gt;Node22 -->
<g id="edge34" class="edge">
<title>Node19&#45;&gt;Node22</title>
<path fill="none" stroke="midnightblue" d="M795.74,-317.23C835.56,-308.02 894.17,-293.46 944.16,-277 946.29,-276.3 948.48,-275.53 950.67,-274.73"/>
<polygon fill="midnightblue" stroke="midnightblue" points="952.06,-277.95 960.15,-271.09 949.56,-271.41 952.06,-277.95"/>
</g>
<!-- Node23 -->
<g id="node23" class="node">
<title>Node23</title>
<g id="a_node23"><a xlink:title=" ">
<polygon fill="none" stroke="#bfbfbf" points="585.16,-246.5 585.16,-276.5 687.16,-276.5 687.16,-246.5 585.16,-246.5"/>
<text text-anchor="start" x="593.16" y="-264.5" font-family="Helvetica,sans-Serif" font-size="10.00">yaclib_std/condition</text>
<text text-anchor="middle" x="636.16" y="-253.5" font-family="Helvetica,sans-Serif" font-size="10.00">_variable</text>
</a>
</g>
</g>
<!-- Node19&#45;&gt;Node23 -->
<g id="edge35" class="edge">
<title>Node19&#45;&gt;Node23</title>
<path fill="none" stroke="midnightblue" d="M724.64,-313.4C708.5,-304.11 687.17,-291.84 669.49,-281.67"/>
<polygon fill="midnightblue" stroke="midnightblue" points="671.04,-278.53 660.63,-276.58 667.55,-284.6 671.04,-278.53"/>
</g>
<!-- Node24 -->
<g id="node24" class="node">
<title>Node24</title>
<g id="a_node24"><a xlink:title=" ">
<polygon fill="none" stroke="#bfbfbf" points="704.66,-252 704.66,-271 793.66,-271 793.66,-252 704.66,-252"/>
<text text-anchor="middle" x="749.16" y="-259" font-family="Helvetica,sans-Serif" font-size="10.00">yaclib_std/mutex</text>
</a>
</g>
</g>
<!-- Node19&#45;&gt;Node24 -->
<g id="edge36" class="edge">
<title>Node19&#45;&gt;Node24</title>
<path fill="none" stroke="midnightblue" d="M749.16,-313.4C749.16,-304.06 749.16,-291.71 749.16,-281.52"/>
<polygon fill="midnightblue" stroke="midnightblue" points="752.66,-281.19 749.16,-271.19 745.66,-281.19 752.66,-281.19"/>
</g>
<!-- Node25 -->
<g id="node25" class="node">
<title>Node25</title>
<g id="a_node25"><a xlink:title=" ">
<polygon fill="none" stroke="#bfbfbf" points="812.16,-252 812.16,-271 902.16,-271 902.16,-252 812.16,-252"/>
<text text-anchor="middle" x="857.16" y="-259" font-family="Helvetica,sans-Serif" font-size="10.00">yaclib_std/thread</text>
</a>
</g>
</g>
<!-- Node19&#45;&gt;Node25 -->
<g id="edge37" class="edge">
<title>Node19&#45;&gt;Node25</title>
<path fill="none" stroke="midnightblue" d="M772.59,-313.4C790.87,-302.39 816.12,-287.2 834.26,-276.28"/>
<polygon fill="midnightblue" stroke="midnightblue" points="836.26,-279.16 843.02,-271.01 832.65,-273.16 836.26,-279.16"/>
</g>
<!-- Node20&#45;&gt;Node7 -->
<g id="edge32" class="edge">
<title>Node20&#45;&gt;Node7</title>
<path fill="none" stroke="midnightblue" d="M930.16,-179.4C930.16,-171.64 930.16,-161.81 930.16,-152.86"/>
<polygon fill="midnightblue" stroke="midnightblue" points="933.66,-152.58 930.16,-142.58 926.66,-152.58 933.66,-152.58"/>
</g>
</g>
</svg>
