<?xml version="1.0" encoding="UTF-8" standalone="no"?>
<!DOCTYPE svg PUBLIC "-//W3C//DTD SVG 1.1//EN"
 "http://www.w3.org/Graphics/SVG/1.1/DTD/svg11.dtd">
<!-- Generated by graphviz version 3.0.0 (20220413.0242)
 -->
<!-- Title: src/fault/fiber/thread.cpp Pages: 1 -->
<svg width="1230pt" height="564pt"
 viewBox="0.00 0.00 1229.50 564.00" xmlns="http://www.w3.org/2000/svg" xmlns:xlink="http://www.w3.org/1999/xlink">
<g id="graph0" class="graph" transform="scale(1 1) rotate(0) translate(4 560)">
<title>src/fault/fiber/thread.cpp</title>
<!-- Node1 -->
<g id="node1" class="node">
<title>Node1</title>
<g id="a_node1"><a xlink:title=" ">
<polygon fill="#bfbfbf" stroke="black" points="1093.5,-536.5 1093.5,-555.5 1214.5,-555.5 1214.5,-536.5 1093.5,-536.5"/>
<text text-anchor="middle" x="1154" y="-543.5" font-family="Helvetica,sans-Serif" font-size="10.00">src/fault/fiber/thread.cpp</text>
</a>
</g>
</g>
<!-- Node2 -->
<g id="node2" class="node">
<title>Node2</title>
<g id="a_node2"><a xlink:href="fault_2detail_2fiber_2thread_8hpp.html" target="_top" xlink:title=" ">
<polygon fill="none" stroke="black" points="616.5,-469.5 616.5,-499.5 705.5,-499.5 705.5,-469.5 616.5,-469.5"/>
<text text-anchor="start" x="624.5" y="-487.5" font-family="Helvetica,sans-Serif" font-size="10.00">yaclib/fault/detail</text>
<text text-anchor="middle" x="661" y="-476.5" font-family="Helvetica,sans-Serif" font-size="10.00">/fiber/thread.hpp</text>
</a>
</g>
</g>
<!-- Node1&#45;&gt;Node2 -->
<g id="edge1" class="edge">
<title>Node1&#45;&gt;Node2</title>
<path fill="none" stroke="midnightblue" d="M1093.05,-537.64C996.21,-525.96 808.68,-503.32 715.82,-492.12"/>
<polygon fill="midnightblue" stroke="midnightblue" points="716.14,-488.63 705.79,-490.91 715.3,-495.58 716.14,-488.63"/>
</g>
<!-- Node7 -->
<g id="node7" class="node">
<title>Node7</title>
<g id="a_node7"><a xlink:href="log_8hpp.html" target="_top" xlink:title=" ">
<polygon fill="none" stroke="black" points="1040.5,-62 1040.5,-81 1115.5,-81 1115.5,-62 1040.5,-62"/>
<text text-anchor="middle" x="1078" y="-69" font-family="Helvetica,sans-Serif" font-size="10.00">yaclib/log.hpp</text>
</a>
</g>
</g>
<!-- Node1&#45;&gt;Node7 -->
<g id="edge47" class="edge">
<title>Node1&#45;&gt;Node7</title>
<path fill="none" stroke="midnightblue" d="M1154,-536.41C1154,-515.98 1154,-462.86 1154,-418.5 1154,-418.5 1154,-418.5 1154,-215.5 1154,-164.22 1115.43,-113.43 1093.24,-88.45"/>
<polygon fill="midnightblue" stroke="midnightblue" points="1095.76,-86.02 1086.42,-81.01 1090.6,-90.75 1095.76,-86.02"/>
</g>
<!-- Node29 -->
<g id="node29" class="node">
<title>Node29</title>
<g id="a_node29"><a xlink:title=" ">
<polygon fill="none" stroke="#bfbfbf" points="1182.5,-475 1182.5,-494 1221.5,-494 1221.5,-475 1182.5,-475"/>
<text text-anchor="middle" x="1202" y="-482" font-family="Helvetica,sans-Serif" font-size="10.00">utility</text>
</a>
</g>
</g>
<!-- Node1&#45;&gt;Node29 -->
<g id="edge48" class="edge">
<title>Node1&#45;&gt;Node29</title>
<path fill="none" stroke="midnightblue" d="M1160.88,-536.48C1168.15,-527.46 1179.8,-513.02 1188.84,-501.81"/>
<polygon fill="midnightblue" stroke="midnightblue" points="1191.58,-503.99 1195.14,-494.01 1186.13,-499.59 1191.58,-503.99"/>
</g>
<!-- Node3 -->
<g id="node3" class="node">
<title>Node3</title>
<g id="a_node3"><a xlink:href="fiber_8hpp.html" target="_top" xlink:title=" ">
<polygon fill="none" stroke="black" points="397.5,-402.5 397.5,-432.5 486.5,-432.5 486.5,-402.5 397.5,-402.5"/>
<text text-anchor="start" x="405.5" y="-420.5" font-family="Helvetica,sans-Serif" font-size="10.00">yaclib/fault/detail</text>
<text text-anchor="middle" x="442" y="-409.5" font-family="Helvetica,sans-Serif" font-size="10.00">/fiber/fiber.hpp</text>
</a>
</g>
</g>
<!-- Node2&#45;&gt;Node3 -->
<g id="edge2" class="edge">
<title>Node2&#45;&gt;Node3</title>
<path fill="none" stroke="midnightblue" d="M616.42,-470.27C581.63,-459.94 533.17,-445.56 496.15,-434.57"/>
<polygon fill="midnightblue" stroke="midnightblue" points="497.1,-431.2 486.52,-431.71 495.11,-437.91 497.1,-431.2"/>
</g>
<!-- Node2&#45;&gt;Node7 -->
<g id="edge44" class="edge">
<title>Node2&#45;&gt;Node7</title>
<path fill="none" stroke="midnightblue" d="M705.87,-480.09C820.66,-470.15 1116,-436.32 1116,-351.5 1116,-351.5 1116,-351.5 1116,-215.5 1116,-169.24 1097.19,-117.29 1086.04,-90.56"/>
<polygon fill="midnightblue" stroke="midnightblue" points="1089.23,-89.12 1082.07,-81.32 1082.8,-91.89 1089.23,-89.12"/>
</g>
<!-- Node20 -->
<g id="node20" class="node">
<title>Node20</title>
<g id="a_node20"><a xlink:title=" ">
<polygon fill="none" stroke="#bfbfbf" points="339.5,-341 339.5,-360 398.5,-360 398.5,-341 339.5,-341"/>
<text text-anchor="middle" x="369" y="-348" font-family="Helvetica,sans-Serif" font-size="10.00">functional</text>
</a>
</g>
</g>
<!-- Node2&#45;&gt;Node20 -->
<g id="edge45" class="edge">
<title>Node2&#45;&gt;Node20</title>
<path fill="none" stroke="midnightblue" d="M616.25,-481.05C547.42,-476.35 420.11,-463.67 388,-433 371.12,-416.88 367.94,-388.9 367.92,-370.29"/>
<polygon fill="midnightblue" stroke="midnightblue" points="371.42,-370.2 368.22,-360.1 364.43,-369.99 371.42,-370.2"/>
</g>
<!-- Node21 -->
<g id="node21" class="node">
<title>Node21</title>
<g id="a_node21"><a xlink:href="queue_8hpp.html" target="_top" xlink:title=" ">
<polygon fill="none" stroke="black" points="616.5,-402.5 616.5,-432.5 705.5,-432.5 705.5,-402.5 616.5,-402.5"/>
<text text-anchor="start" x="624.5" y="-420.5" font-family="Helvetica,sans-Serif" font-size="10.00">yaclib/fault/detail</text>
<text text-anchor="middle" x="661" y="-409.5" font-family="Helvetica,sans-Serif" font-size="10.00">/fiber/queue.hpp</text>
</a>
</g>
</g>
<!-- Node2&#45;&gt;Node21 -->
<g id="edge26" class="edge">
<title>Node2&#45;&gt;Node21</title>
<path fill="none" stroke="midnightblue" d="M661,-469.4C661,-461.64 661,-451.81 661,-442.86"/>
<polygon fill="midnightblue" stroke="midnightblue" points="664.5,-442.58 661,-432.58 657.5,-442.58 664.5,-442.58"/>
</g>
<!-- Node22 -->
<g id="node22" class="node">
<title>Node22</title>
<g id="a_node22"><a xlink:href="scheduler_8hpp.html" target="_top" xlink:title=" ">
<polygon fill="none" stroke="black" points="769.5,-268.5 769.5,-298.5 870.5,-298.5 870.5,-268.5 769.5,-268.5"/>
<text text-anchor="start" x="777.5" y="-286.5" font-family="Helvetica,sans-Serif" font-size="10.00">yaclib/fault/detail</text>
<text text-anchor="middle" x="820" y="-275.5" font-family="Helvetica,sans-Serif" font-size="10.00">/fiber/scheduler.hpp</text>
</a>
</g>
</g>
<!-- Node2&#45;&gt;Node22 -->
<g id="edge43" class="edge">
<title>Node2&#45;&gt;Node22</title>
<path fill="none" stroke="midnightblue" d="M696.92,-469.35C736.09,-451.74 796.72,-417.53 823,-366 831.97,-348.41 830.28,-325.8 826.88,-308.86"/>
<polygon fill="midnightblue" stroke="midnightblue" points="830.18,-307.59 824.49,-298.65 823.36,-309.19 830.18,-307.59"/>
</g>
<!-- Node28 -->
<g id="node28" class="node">
<title>Node28</title>
<g id="a_node28"><a xlink:title=" ">
<polygon fill="none" stroke="#bfbfbf" points="555,-408 555,-427 599,-427 599,-408 555,-408"/>
<text text-anchor="middle" x="577" y="-415" font-family="Helvetica,sans-Serif" font-size="10.00">thread</text>
</a>
</g>
</g>
<!-- Node2&#45;&gt;Node28 -->
<g id="edge46" class="edge">
<title>Node2&#45;&gt;Node28</title>
<path fill="none" stroke="midnightblue" d="M642.77,-469.4C629.03,-458.76 610.22,-444.2 596.23,-433.38"/>
<polygon fill="midnightblue" stroke="midnightblue" points="598.29,-430.55 588.24,-427.19 594,-436.08 598.29,-430.55"/>
</g>
<!-- Node4 -->
<g id="node4" class="node">
<title>Node4</title>
<g id="a_node4"><a xlink:href="fiber__base_8hpp.html" target="_top" xlink:title=" ">
<polygon fill="none" stroke="black" points="486.5,-201.5 486.5,-231.5 589.5,-231.5 589.5,-201.5 486.5,-201.5"/>
<text text-anchor="start" x="494.5" y="-219.5" font-family="Helvetica,sans-Serif" font-size="10.00">yaclib/fault/detail</text>
<text text-anchor="middle" x="538" y="-208.5" font-family="Helvetica,sans-Serif" font-size="10.00">/fiber/fiber_base.hpp</text>
</a>
</g>
</g>
<!-- Node3&#45;&gt;Node4 -->
<g id="edge3" class="edge">
<title>Node3&#45;&gt;Node4</title>
<path fill="none" stroke="midnightblue" d="M448.9,-402.19C465.3,-368.2 506.71,-282.35 526.77,-240.78"/>
<polygon fill="midnightblue" stroke="midnightblue" points="529.97,-242.21 531.16,-231.68 523.66,-239.17 529.97,-242.21"/>
</g>
<!-- Node3&#45;&gt;Node20 -->
<g id="edge25" class="edge">
<title>Node3&#45;&gt;Node20</title>
<path fill="none" stroke="midnightblue" d="M426.16,-402.4C414.44,-391.96 398.48,-377.75 386.41,-367"/>
<polygon fill="midnightblue" stroke="midnightblue" points="388.56,-364.23 378.76,-360.19 383.91,-369.46 388.56,-364.23"/>
</g>
<!-- Node5 -->
<g id="node5" class="node">
<title>Node5</title>
<g id="a_node5"><a xlink:title=" ">
<polygon fill="none" stroke="#bfbfbf" points="0,-62 0,-81 88,-81 88,-62 0,-62"/>
<text text-anchor="middle" x="44" y="-69" font-family="Helvetica,sans-Serif" font-size="10.00">yaclib/config.hpp</text>
</a>
</g>
</g>
<!-- Node4&#45;&gt;Node5 -->
<g id="edge4" class="edge">
<title>Node4&#45;&gt;Node5</title>
<path fill="none" stroke="midnightblue" d="M486.48,-215.08C385.06,-213.38 163.9,-205.03 101,-165 73.91,-147.76 57.64,-112.54 49.78,-90.88"/>
<polygon fill="midnightblue" stroke="midnightblue" points="53.03,-89.57 46.51,-81.22 46.4,-91.81 53.03,-89.57"/>
</g>
<!-- Node6 -->
<g id="node6" class="node">
<title>Node6</title>
<g id="a_node6"><a xlink:href="bidirectional__intrusive__list_8hpp.html" target="_top" xlink:title=" ">
<polygon fill="none" stroke="black" points="916.5,-123.5 916.5,-164.5 1011.5,-164.5 1011.5,-123.5 916.5,-123.5"/>
<text text-anchor="start" x="924.5" y="-152.5" font-family="Helvetica,sans-Serif" font-size="10.00">yaclib/fault/detail</text>
<text text-anchor="start" x="924.5" y="-141.5" font-family="Helvetica,sans-Serif" font-size="10.00">/fiber/bidirectional</text>
<text text-anchor="middle" x="964" y="-130.5" font-family="Helvetica,sans-Serif" font-size="10.00">_intrusive_list.hpp</text>
</a>
</g>
</g>
<!-- Node4&#45;&gt;Node6 -->
<g id="edge5" class="edge">
<title>Node4&#45;&gt;Node6</title>
<path fill="none" stroke="midnightblue" d="M589.7,-205.3C598.14,-203.76 606.8,-202.27 615,-201 741.48,-181.34 778.53,-194.57 906.47,-165.13"/>
<polygon fill="midnightblue" stroke="midnightblue" points="907.31,-168.53 916.25,-162.84 905.71,-161.71 907.31,-168.53"/>
</g>
<!-- Node10 -->
<g id="node10" class="node">
<title>Node10</title>
<g id="a_node10"><a xlink:href="default__allocator_8hpp.html" target="_top" xlink:title=" ">
<polygon fill="none" stroke="black" points="623,-129 623,-159 753,-159 753,-129 623,-129"/>
<text text-anchor="start" x="631" y="-147" font-family="Helvetica,sans-Serif" font-size="10.00">yaclib/fault/detail</text>
<text text-anchor="middle" x="688" y="-136" font-family="Helvetica,sans-Serif" font-size="10.00">/fiber/default_allocator.hpp</text>
</a>
</g>
</g>
<!-- Node4&#45;&gt;Node10 -->
<g id="edge9" class="edge">
<title>Node4&#45;&gt;Node10</title>
<path fill="none" stroke="midnightblue" d="M567.99,-201.4C591.19,-190.5 623.51,-175.31 648.76,-163.44"/>
<polygon fill="midnightblue" stroke="midnightblue" points="650.5,-166.49 658.06,-159.07 647.52,-160.16 650.5,-166.49"/>
</g>
<!-- Node11 -->
<g id="node11" class="node">
<title>Node11</title>
<g id="a_node11"><a xlink:href="stack__allocator_8hpp.html" target="_top" xlink:title=" ">
<polygon fill="none" stroke="black" points="644.5,-56.5 644.5,-86.5 769.5,-86.5 769.5,-56.5 644.5,-56.5"/>
<text text-anchor="start" x="652.5" y="-74.5" font-family="Helvetica,sans-Serif" font-size="10.00">yaclib/fault/detail</text>
<text text-anchor="middle" x="707" y="-63.5" font-family="Helvetica,sans-Serif" font-size="10.00">/fiber/stack_allocator.hpp</text>
</a>
</g>
</g>
<!-- Node4&#45;&gt;Node11 -->
<g id="edge21" class="edge">
<title>Node4&#45;&gt;Node11</title>
<path fill="none" stroke="midnightblue" d="M548.6,-201.29C565.73,-178.56 599.1,-135.31 614,-123 629.3,-110.37 648.24,-99.4 665.03,-90.95"/>
<polygon fill="midnightblue" stroke="midnightblue" points="666.65,-94.06 674.1,-86.52 663.58,-87.77 666.65,-94.06"/>
</g>
<!-- Node14 -->
<g id="node14" class="node">
<title>Node14</title>
<g id="a_node14"><a xlink:href="execution__context_8hpp.html" target="_top" xlink:title=" ">
<polygon fill="none" stroke="black" points="110.5,-129 110.5,-159 247.5,-159 247.5,-129 110.5,-129"/>
<text text-anchor="start" x="118.5" y="-147" font-family="Helvetica,sans-Serif" font-size="10.00">yaclib/fault/detail</text>
<text text-anchor="middle" x="179" y="-136" font-family="Helvetica,sans-Serif" font-size="10.00">/fiber/execution_context.hpp</text>
</a>
</g>
</g>
<!-- Node4&#45;&gt;Node14 -->
<g id="edge14" class="edge">
<title>Node4&#45;&gt;Node14</title>
<path fill="none" stroke="midnightblue" d="M486.31,-207.47C429.57,-198.37 335.92,-182.51 256,-165 251.07,-163.92 245.97,-162.74 240.86,-161.51"/>
<polygon fill="midnightblue" stroke="midnightblue" points="241.6,-158.09 231.06,-159.1 239.93,-164.89 241.6,-158.09"/>
</g>
<!-- Node16 -->
<g id="node16" class="node">
<title>Node16</title>
<g id="a_node16"><a xlink:href="stack_8hpp.html" target="_top" xlink:title=" ">
<polygon fill="none" stroke="black" points="809.5,-129 809.5,-159 898.5,-159 898.5,-129 809.5,-129"/>
<text text-anchor="start" x="817.5" y="-147" font-family="Helvetica,sans-Serif" font-size="10.00">yaclib/fault/detail</text>
<text text-anchor="middle" x="854" y="-136" font-family="Helvetica,sans-Serif" font-size="10.00">/fiber/stack.hpp</text>
</a>
</g>
</g>
<!-- Node4&#45;&gt;Node16 -->
<g id="edge18" class="edge">
<title>Node4&#45;&gt;Node16</title>
<path fill="none" stroke="midnightblue" d="M589.83,-203.94C647.59,-191.05 740.6,-170.3 799.45,-157.17"/>
<polygon fill="midnightblue" stroke="midnightblue" points="800.31,-160.57 809.3,-154.97 798.78,-153.73 800.31,-160.57"/>
</g>
<!-- Node17 -->
<g id="node17" class="node">
<title>Node17</title>
<g id="a_node17"><a xlink:href="wakeup__helper_8hpp.html" target="_top" xlink:title=" ">
<polygon fill="none" stroke="black" points="367,-129 367,-159 491,-159 491,-129 367,-129"/>
<text text-anchor="start" x="375" y="-147" font-family="Helvetica,sans-Serif" font-size="10.00">yaclib/fault/detail</text>
<text text-anchor="middle" x="429" y="-136" font-family="Helvetica,sans-Serif" font-size="10.00">/fiber/wakeup_helper.hpp</text>
</a>
</g>
</g>
<!-- Node4&#45;&gt;Node17 -->
<g id="edge22" class="edge">
<title>Node4&#45;&gt;Node17</title>
<path fill="none" stroke="midnightblue" d="M516.2,-201.4C499.87,-190.84 477.31,-176.24 459.23,-164.55"/>
<polygon fill="midnightblue" stroke="midnightblue" points="461.06,-161.56 450.76,-159.07 457.25,-167.44 461.06,-161.56"/>
</g>
<!-- Node18 -->
<g id="node18" class="node">
<title>Node18</title>
<g id="a_node18"><a xlink:title=" ">
<polygon fill="none" stroke="#bfbfbf" points="509,-134.5 509,-153.5 567,-153.5 567,-134.5 509,-134.5"/>
<text text-anchor="middle" x="538" y="-141.5" font-family="Helvetica,sans-Serif" font-size="10.00">exception</text>
</a>
</g>
</g>
<!-- Node4&#45;&gt;Node18 -->
<g id="edge23" class="edge">
<title>Node4&#45;&gt;Node18</title>
<path fill="none" stroke="midnightblue" d="M538,-201.23C538,-190.5 538,-175.69 538,-163.96"/>
<polygon fill="midnightblue" stroke="midnightblue" points="541.5,-163.89 538,-153.89 534.5,-163.89 541.5,-163.89"/>
</g>
<!-- Node19 -->
<g id="node19" class="node">
<title>Node19</title>
<g id="a_node19"><a xlink:title=" ">
<polygon fill="none" stroke="#bfbfbf" points="265.5,-134.5 265.5,-153.5 348.5,-153.5 348.5,-134.5 265.5,-134.5"/>
<text text-anchor="middle" x="307" y="-141.5" font-family="Helvetica,sans-Serif" font-size="10.00">unordered_map</text>
</a>
</g>
</g>
<!-- Node4&#45;&gt;Node19 -->
<g id="edge24" class="edge">
<title>Node4&#45;&gt;Node19</title>
<path fill="none" stroke="midnightblue" d="M486.38,-202.49C450.16,-193 400.77,-179.35 358,-165 351.21,-162.72 344.01,-160.06 337.22,-157.43"/>
<polygon fill="midnightblue" stroke="midnightblue" points="338.26,-154.07 327.67,-153.65 335.68,-160.58 338.26,-154.07"/>
</g>
<!-- Node6&#45;&gt;Node7 -->
<g id="edge6" class="edge">
<title>Node6&#45;&gt;Node7</title>
<path fill="none" stroke="midnightblue" d="M995.76,-123.36C1014.66,-111.67 1038.2,-97.12 1055.24,-86.57"/>
<polygon fill="midnightblue" stroke="midnightblue" points="1057.31,-89.41 1063.97,-81.17 1053.63,-83.46 1057.31,-89.41"/>
</g>
<!-- Node9 -->
<g id="node9" class="node">
<title>Node9</title>
<g id="a_node9"><a xlink:title=" ">
<polygon fill="none" stroke="#bfbfbf" points="958,-62 958,-81 1004,-81 1004,-62 958,-62"/>
<text text-anchor="middle" x="981" y="-69" font-family="Helvetica,sans-Serif" font-size="10.00">cstdint</text>
</a>
</g>
</g>
<!-- Node6&#45;&gt;Node9 -->
<g id="edge8" class="edge">
<title>Node6&#45;&gt;Node9</title>
<path fill="none" stroke="midnightblue" d="M968.74,-123.36C971.16,-113.3 974.1,-101.1 976.5,-91.18"/>
<polygon fill="midnightblue" stroke="midnightblue" points="979.97,-91.72 978.91,-81.17 973.16,-90.07 979.97,-91.72"/>
</g>
<!-- Node8 -->
<g id="node8" class="node">
<title>Node8</title>
<g id="a_node8"><a xlink:title=" ">
<polygon fill="none" stroke="#bfbfbf" points="1045,-0.5 1045,-19.5 1111,-19.5 1111,-0.5 1045,-0.5"/>
<text text-anchor="middle" x="1078" y="-7.5" font-family="Helvetica,sans-Serif" font-size="10.00">string_view</text>
</a>
</g>
</g>
<!-- Node7&#45;&gt;Node8 -->
<g id="edge7" class="edge">
<title>Node7&#45;&gt;Node8</title>
<path fill="none" stroke="midnightblue" d="M1078,-61.98C1078,-53.58 1078,-40.48 1078,-29.66"/>
<polygon fill="midnightblue" stroke="midnightblue" points="1081.5,-29.51 1078,-19.51 1074.5,-29.51 1081.5,-29.51"/>
</g>
<!-- Node10&#45;&gt;Node7 -->
<g id="edge12" class="edge">
<title>Node10&#45;&gt;Node7</title>
<path fill="none" stroke="midnightblue" d="M753.12,-131.39C768.79,-128.62 785.49,-125.69 801,-123 895.17,-106.67 919.22,-105.41 1013,-87 1018.89,-85.84 1025.06,-84.56 1031.16,-83.25"/>
<polygon fill="midnightblue" stroke="midnightblue" points="1032.27,-86.59 1041.29,-81.03 1030.77,-79.75 1032.27,-86.59"/>
</g>
<!-- Node10&#45;&gt;Node11 -->
<g id="edge10" class="edge">
<title>Node10&#45;&gt;Node11</title>
<path fill="none" stroke="midnightblue" d="M691.84,-128.73C694.34,-119.46 697.66,-107.15 700.56,-96.41"/>
<polygon fill="midnightblue" stroke="midnightblue" points="703.94,-97.31 703.16,-86.75 697.18,-95.49 703.94,-97.31"/>
</g>
<!-- Node13 -->
<g id="node13" class="node">
<title>Node13</title>
<g id="a_node13"><a xlink:title=" ">
<polygon fill="none" stroke="#bfbfbf" points="106,-62 106,-81 150,-81 150,-62 106,-62"/>
<text text-anchor="middle" x="128" y="-69" font-family="Helvetica,sans-Serif" font-size="10.00">vector</text>
</a>
</g>
</g>
<!-- Node10&#45;&gt;Node13 -->
<g id="edge13" class="edge">
<title>Node10&#45;&gt;Node13</title>
<path fill="none" stroke="midnightblue" d="M622.71,-130.31C607.43,-127.63 591.18,-125.01 576,-123 391.58,-98.62 338.68,-135.15 159,-87 157.06,-86.48 155.1,-85.85 153.15,-85.14"/>
<polygon fill="midnightblue" stroke="midnightblue" points="154.26,-81.81 143.68,-81.14 151.53,-88.25 154.26,-81.81"/>
</g>
<!-- Node12 -->
<g id="node12" class="node">
<title>Node12</title>
<g id="a_node12"><a xlink:title=" ">
<polygon fill="none" stroke="#bfbfbf" points="765.5,-0.5 765.5,-19.5 814.5,-19.5 814.5,-0.5 765.5,-0.5"/>
<text text-anchor="middle" x="790" y="-7.5" font-family="Helvetica,sans-Serif" font-size="10.00">cstddef</text>
</a>
</g>
</g>
<!-- Node11&#45;&gt;Node12 -->
<g id="edge11" class="edge">
<title>Node11&#45;&gt;Node12</title>
<path fill="none" stroke="midnightblue" d="M726.67,-56.4C739.6,-47.13 756.49,-35.03 769.57,-25.65"/>
<polygon fill="midnightblue" stroke="midnightblue" points="771.83,-28.33 777.92,-19.66 767.76,-22.64 771.83,-28.33"/>
</g>
<!-- Node14&#45;&gt;Node5 -->
<g id="edge15" class="edge">
<title>Node14&#45;&gt;Node5</title>
<path fill="none" stroke="midnightblue" d="M152.01,-128.9C127.93,-116.33 92.94,-98.06 69.37,-85.75"/>
<polygon fill="midnightblue" stroke="midnightblue" points="70.83,-82.56 60.34,-81.03 67.58,-88.77 70.83,-82.56"/>
</g>
<!-- Node14&#45;&gt;Node11 -->
<g id="edge16" class="edge">
<title>Node14&#45;&gt;Node11</title>
<path fill="none" stroke="midnightblue" d="M228.89,-128.94C237.86,-126.72 247.17,-124.63 256,-123 388.23,-98.55 544.6,-84.26 634.16,-77.44"/>
<polygon fill="midnightblue" stroke="midnightblue" points="634.5,-80.93 644.21,-76.69 633.97,-73.95 634.5,-80.93"/>
</g>
<!-- Node15 -->
<g id="node15" class="node">
<title>Node15</title>
<g id="a_node15"><a xlink:title=" ">
<polygon fill="none" stroke="#bfbfbf" points="168.5,-62 168.5,-81 229.5,-81 229.5,-62 168.5,-62"/>
<text text-anchor="middle" x="199" y="-69" font-family="Helvetica,sans-Serif" font-size="10.00">ucontext.h</text>
</a>
</g>
</g>
<!-- Node14&#45;&gt;Node15 -->
<g id="edge17" class="edge">
<title>Node14&#45;&gt;Node15</title>
<path fill="none" stroke="midnightblue" d="M183.05,-128.73C186.12,-117.89 190.38,-102.88 193.72,-91.1"/>
<polygon fill="midnightblue" stroke="midnightblue" points="197.11,-91.97 196.48,-81.39 190.38,-90.06 197.11,-91.97"/>
</g>
<!-- Node16&#45;&gt;Node11 -->
<g id="edge19" class="edge">
<title>Node16&#45;&gt;Node11</title>
<path fill="none" stroke="midnightblue" d="M824.61,-128.9C801.87,-118 770.2,-102.81 745.46,-90.94"/>
<polygon fill="midnightblue" stroke="midnightblue" points="746.87,-87.74 736.34,-86.57 743.85,-94.05 746.87,-87.74"/>
</g>
<!-- Node16&#45;&gt;Node12 -->
<g id="edge20" class="edge">
<title>Node16&#45;&gt;Node12</title>
<path fill="none" stroke="midnightblue" d="M847.15,-128.87C835.42,-104.68 811.52,-55.38 798.65,-28.85"/>
<polygon fill="midnightblue" stroke="midnightblue" points="801.68,-27.07 794.17,-19.6 795.38,-30.12 801.68,-27.07"/>
</g>
<!-- Node21&#45;&gt;Node4 -->
<g id="edge27" class="edge">
<title>Node21&#45;&gt;Node4</title>
<path fill="none" stroke="midnightblue" d="M622.99,-402.48C596.84,-392.05 565.37,-377.66 557,-366 530.55,-329.18 531.32,-273.59 534.5,-241.91"/>
<polygon fill="midnightblue" stroke="midnightblue" points="538,-242.1 535.69,-231.77 531.05,-241.29 538,-242.1"/>
</g>
<!-- Node21&#45;&gt;Node13 -->
<g id="edge42" class="edge">
<title>Node21&#45;&gt;Node13</title>
<path fill="none" stroke="midnightblue" d="M616.07,-403.27C493.91,-366.29 160.87,-258.44 101,-165 85.81,-141.29 102.27,-108.76 115.33,-89.27"/>
<polygon fill="midnightblue" stroke="midnightblue" points="118.21,-91.26 121.13,-81.07 112.5,-87.21 118.21,-91.26"/>
</g>
<!-- Node21&#45;&gt;Node22 -->
<g id="edge28" class="edge">
<title>Node21&#45;&gt;Node22</title>
<path fill="none" stroke="midnightblue" d="M705.79,-411.8C737.17,-406.13 777.68,-393.61 802,-366 815.72,-350.42 819.72,-326.76 820.59,-308.93"/>
<polygon fill="midnightblue" stroke="midnightblue" points="824.09,-308.78 820.78,-298.71 817.09,-308.65 824.09,-308.78"/>
</g>
<!-- Node26 -->
<g id="node26" class="node">
<title>Node26</title>
<g id="a_node26"><a xlink:href="system__clock_8hpp.html" target="_top" xlink:title=" ">
<polygon fill="none" stroke="black" points="566.5,-335.5 566.5,-365.5 685.5,-365.5 685.5,-335.5 566.5,-335.5"/>
<text text-anchor="start" x="574.5" y="-353.5" font-family="Helvetica,sans-Serif" font-size="10.00">yaclib/fault/detail</text>
<text text-anchor="middle" x="626" y="-342.5" font-family="Helvetica,sans-Serif" font-size="10.00">/fiber/system_clock.hpp</text>
</a>
</g>
</g>
<!-- Node21&#45;&gt;Node26 -->
<g id="edge38" class="edge">
<title>Node21&#45;&gt;Node26</title>
<path fill="none" stroke="midnightblue" d="M653.41,-402.4C649,-394.22 643.35,-383.73 638.33,-374.39"/>
<polygon fill="midnightblue" stroke="midnightblue" points="641.4,-372.72 633.58,-365.58 635.24,-376.04 641.4,-372.72"/>
</g>
<!-- Node27 -->
<g id="node27" class="node">
<title>Node27</title>
<g id="a_node27"><a xlink:href="wait__status_8hpp.html" target="_top" xlink:title=" ">
<polygon fill="none" stroke="black" points="703.5,-335.5 703.5,-365.5 792.5,-365.5 792.5,-335.5 703.5,-335.5"/>
<text text-anchor="start" x="711.5" y="-353.5" font-family="Helvetica,sans-Serif" font-size="10.00">yaclib/fault/detail</text>
<text text-anchor="middle" x="748" y="-342.5" font-family="Helvetica,sans-Serif" font-size="10.00">/wait_status.hpp</text>
</a>
</g>
</g>
<!-- Node21&#45;&gt;Node27 -->
<g id="edge41" class="edge">
<title>Node21&#45;&gt;Node27</title>
<path fill="none" stroke="midnightblue" d="M679.88,-402.4C691.85,-393.45 707.53,-381.74 720.83,-371.8"/>
<polygon fill="midnightblue" stroke="midnightblue" points="723.24,-374.37 729.16,-365.58 719.05,-368.76 723.24,-374.37"/>
</g>
<!-- Node22&#45;&gt;Node4 -->
<g id="edge30" class="edge">
<title>Node22&#45;&gt;Node4</title>
<path fill="none" stroke="midnightblue" d="M769.26,-270.8C721.69,-259.84 650.47,-243.42 599.64,-231.71"/>
<polygon fill="midnightblue" stroke="midnightblue" points="600.29,-228.27 589.76,-229.43 598.72,-235.09 600.29,-228.27"/>
</g>
<!-- Node22&#45;&gt;Node7 -->
<g id="edge35" class="edge">
<title>Node22&#45;&gt;Node7</title>
<path fill="none" stroke="midnightblue" d="M870.73,-282.14C914.74,-279.18 977.57,-268.21 1018,-232 1059.8,-194.57 1072.59,-125.07 1076.42,-91.55"/>
<polygon fill="midnightblue" stroke="midnightblue" points="1079.93,-91.6 1077.43,-81.31 1072.97,-90.91 1079.93,-91.6"/>
</g>
<!-- Node22&#45;&gt;Node10 -->
<g id="edge29" class="edge">
<title>Node22&#45;&gt;Node10</title>
<path fill="none" stroke="midnightblue" d="M804.41,-268.2C793.7,-258.24 779.25,-244.55 767,-232 745.87,-210.35 722.71,-184.59 706.96,-166.75"/>
<polygon fill="midnightblue" stroke="midnightblue" points="709.51,-164.35 700.28,-159.15 704.26,-168.97 709.51,-164.35"/>
</g>
<!-- Node22&#45;&gt;Node11 -->
<g id="edge32" class="edge">
<title>Node22&#45;&gt;Node11</title>
<path fill="none" stroke="midnightblue" d="M817.22,-268.24C811.02,-239.01 794.05,-171.04 762,-123 754.58,-111.88 744.21,-101.52 734.48,-93.12"/>
<polygon fill="midnightblue" stroke="midnightblue" points="736.46,-90.22 726.53,-86.55 732,-95.62 736.46,-90.22"/>
</g>
<!-- Node22&#45;&gt;Node16 -->
<g id="edge31" class="edge">
<title>Node22&#45;&gt;Node16</title>
<path fill="none" stroke="midnightblue" d="M823.45,-268.36C827.42,-252.1 834.15,-224.62 840,-201 842.58,-190.57 845.46,-179.05 847.93,-169.19"/>
<polygon fill="midnightblue" stroke="midnightblue" points="851.38,-169.82 850.42,-159.27 844.59,-168.12 851.38,-169.82"/>
</g>
<!-- Node23 -->
<g id="node23" class="node">
<title>Node23</title>
<g id="a_node23"><a xlink:href="inject_8hpp.html" target="_top" xlink:title=" ">
<polygon fill="none" stroke="black" points="848.5,-207 848.5,-226 955.5,-226 955.5,-207 848.5,-207"/>
<text text-anchor="middle" x="902" y="-214" font-family="Helvetica,sans-Serif" font-size="10.00">yaclib/fault/inject.hpp</text>
</a>
</g>
</g>
<!-- Node22&#45;&gt;Node23 -->
<g id="edge33" class="edge">
<title>Node22&#45;&gt;Node23</title>
<path fill="none" stroke="midnightblue" d="M837.79,-268.4C851.08,-257.86 869.23,-243.48 882.84,-232.69"/>
<polygon fill="midnightblue" stroke="midnightblue" points="885.37,-235.15 891.03,-226.19 881.02,-229.66 885.37,-235.15"/>
</g>
<!-- Node24 -->
<g id="node24" class="node">
<title>Node24</title>
<g id="a_node24"><a xlink:title=" ">
<polygon fill="none" stroke="#bfbfbf" points="624,-207 624,-226 670,-226 670,-207 624,-207"/>
<text text-anchor="middle" x="647" y="-214" font-family="Helvetica,sans-Serif" font-size="10.00">chrono</text>
</a>
</g>
</g>
<!-- Node22&#45;&gt;Node24 -->
<g id="edge36" class="edge">
<title>Node22&#45;&gt;Node24</title>
<path fill="none" stroke="midnightblue" d="M782.46,-268.4C751.7,-256.84 708.63,-240.66 679.37,-229.66"/>
<polygon fill="midnightblue" stroke="midnightblue" points="680.23,-226.25 669.64,-226.01 677.77,-232.8 680.23,-226.25"/>
</g>
<!-- Node25 -->
<g id="node25" class="node">
<title>Node25</title>
<g id="a_node25"><a xlink:title=" ">
<polygon fill="none" stroke="#bfbfbf" points="973.5,-207 973.5,-226 1008.5,-226 1008.5,-207 973.5,-207"/>
<text text-anchor="middle" x="991" y="-214" font-family="Helvetica,sans-Serif" font-size="10.00">map</text>
</a>
</g>
</g>
<!-- Node22&#45;&gt;Node25 -->
<g id="edge37" class="edge">
<title>Node22&#45;&gt;Node25</title>
<path fill="none" stroke="midnightblue" d="M866.84,-268.47C895.64,-259.29 933.02,-246.36 965,-232 965.85,-231.62 966.7,-231.22 967.56,-230.81"/>
<polygon fill="midnightblue" stroke="midnightblue" points="969.39,-233.8 976.65,-226.08 966.17,-227.59 969.39,-233.8"/>
</g>
<!-- Node23&#45;&gt;Node9 -->
<g id="edge34" class="edge">
<title>Node23&#45;&gt;Node9</title>
<path fill="none" stroke="midnightblue" d="M931.97,-206.92C963.73,-197.16 1010.72,-180.53 1021,-165 1037.39,-140.23 1014.46,-107.64 997.14,-88.49"/>
<polygon fill="midnightblue" stroke="midnightblue" points="999.62,-86.02 990.2,-81.17 994.54,-90.83 999.62,-86.02"/>
</g>
<!-- Node26&#45;&gt;Node22 -->
<g id="edge39" class="edge">
<title>Node26&#45;&gt;Node22</title>
<path fill="none" stroke="midnightblue" d="M668.1,-335.4C697.46,-325.56 736.83,-312.37 768.13,-301.88"/>
<polygon fill="midnightblue" stroke="midnightblue" points="769.62,-305.07 777.99,-298.58 767.39,-298.43 769.62,-305.07"/>
</g>
<!-- Node26&#45;&gt;Node24 -->
<g id="edge40" class="edge">
<title>Node26&#45;&gt;Node24</title>
<path fill="none" stroke="midnightblue" d="M628.25,-335.37C632.06,-311.4 639.8,-262.75 644.05,-236.06"/>
<polygon fill="midnightblue" stroke="midnightblue" points="647.52,-236.52 645.63,-226.1 640.6,-235.42 647.52,-236.52"/>
</g>
</g>
</svg>
