<?xml version="1.0" encoding="UTF-8" standalone="no"?>
<!DOCTYPE svg PUBLIC "-//W3C//DTD SVG 1.1//EN"
 "http://www.w3.org/Graphics/SVG/1.1/DTD/svg11.dtd">
<!-- Generated by graphviz version 9.0.0 (20230911.1827)
 -->
<!-- Title: test/example/exe/thread_pool.cpp Pages: 1 -->
<svg width="1054pt" height="415pt"
 viewBox="0.00 0.00 1053.88 415.00" xmlns="http://www.w3.org/2000/svg" xmlns:xlink="http://www.w3.org/1999/xlink">
<g id="graph0" class="graph" transform="scale(1 1) rotate(0) translate(4 411)">
<title>test/example/exe/thread_pool.cpp</title>
<!-- Node1 -->
<g id="Node000001" class="node">
<title>Node1</title>
<g id="a_Node000001"><a xlink:title=" ">
<polygon fill="#999999" stroke="#666666" points="631,-407 511.5,-407 511.5,-376.5 631,-376.5 631,-407"/>
<text text-anchor="start" x="519.5" y="-393.5" font-family="Helvetica,sans-Serif" font-size="10.00">test/example/exe/thread</text>
<text text-anchor="middle" x="571.25" y="-382.25" font-family="Helvetica,sans-Serif" font-size="10.00">_pool.cpp</text>
</a>
</g>
</g>
<!-- Node2 -->
<g id="Node000002" class="node">
<title>Node2</title>
<g id="a_Node000002"><a xlink:href="submit_8hpp.html" target="_top" xlink:title=" ">
<polygon fill="white" stroke="#666666" points="231.75,-334.88 122.75,-334.88 122.75,-315.62 231.75,-315.62 231.75,-334.88"/>
<text text-anchor="middle" x="177.25" y="-321.38" font-family="Helvetica,sans-Serif" font-size="10.00">yaclib/exe/submit.hpp</text>
</a>
</g>
</g>
<!-- Node1&#45;&gt;Node2 -->
<g id="edge1_Node000001_Node000002" class="edge">
<title>Node1&#45;&gt;Node2</title>
<g id="a_edge1_Node000001_Node000002"><a xlink:title=" ">
<path fill="none" stroke="#63b8ff" d="M511.41,-380.95C439.23,-369.14 318.28,-349.34 243.4,-337.08"/>
<polygon fill="#63b8ff" stroke="#63b8ff" points="244.17,-333.66 233.73,-335.5 243.04,-340.57 244.17,-333.66"/>
</a>
</g>
</g>
<!-- Node10 -->
<g id="Node000010" class="node">
<title>Node10</title>
<g id="a_Node000010"><a xlink:title=" ">
<polygon fill="#e0e0e0" stroke="#999999" points="369.38,-19.25 321.12,-19.25 321.12,0 369.38,0 369.38,-19.25"/>
<text text-anchor="middle" x="345.25" y="-5.75" font-family="Helvetica,sans-Serif" font-size="10.00">cstddef</text>
</a>
</g>
</g>
<!-- Node1&#45;&gt;Node10 -->
<g id="edge36_Node000001_Node000010" class="edge">
<title>Node1&#45;&gt;Node10</title>
<g id="a_edge36_Node000001_Node000010"><a xlink:title=" ">
<path fill="none" stroke="#63b8ff" d="M559.38,-376.09C539.42,-349.57 502.95,-291.9 520.25,-243.5 543.78,-177.67 640.73,-170.14 604.25,-110.5 580.05,-70.94 445.87,-34.42 380.74,-18.72"/>
<polygon fill="#63b8ff" stroke="#63b8ff" points="381.8,-15.38 371.27,-16.47 380.19,-22.19 381.8,-15.38"/>
</a>
</g>
</g>
<!-- Node16 -->
<g id="Node000016" class="node">
<title>Node16</title>
<g id="a_Node000016"><a xlink:href="intrusive__ptr_8hpp.html" target="_top" xlink:title=" ">
<polygon fill="white" stroke="#666666" points="377.38,-207.5 281.12,-207.5 281.12,-177 377.38,-177 377.38,-207.5"/>
<text text-anchor="start" x="289.12" y="-194" font-family="Helvetica,sans-Serif" font-size="10.00">yaclib/util/intrusive</text>
<text text-anchor="middle" x="329.25" y="-182.75" font-family="Helvetica,sans-Serif" font-size="10.00">_ptr.hpp</text>
</a>
</g>
</g>
<!-- Node1&#45;&gt;Node16 -->
<g id="edge35_Node000001_Node000016" class="edge">
<title>Node1&#45;&gt;Node16</title>
<g id="a_edge35_Node000001_Node000016"><a xlink:title=" ">
<path fill="none" stroke="#63b8ff" d="M515.37,-376.04C464.18,-359.64 390.17,-328.04 348.25,-274 336.17,-258.43 331.58,-236.45 329.92,-219.34"/>
<polygon fill="#63b8ff" stroke="#63b8ff" points="333.41,-219.17 329.26,-209.43 326.43,-219.64 333.41,-219.17"/>
</a>
</g>
</g>
<!-- Node18 -->
<g id="Node000018" class="node">
<title>Node18</title>
<g id="a_Node000018"><a xlink:href="fair__thread__pool_8hpp.html" target="_top" xlink:title=" ">
<polygon fill="white" stroke="#666666" points="687.5,-340.5 595,-340.5 595,-310 687.5,-310 687.5,-340.5"/>
<text text-anchor="start" x="603" y="-327" font-family="Helvetica,sans-Serif" font-size="10.00">yaclib/runtime/fair</text>
<text text-anchor="middle" x="641.25" y="-315.75" font-family="Helvetica,sans-Serif" font-size="10.00">_thread_pool.hpp</text>
</a>
</g>
</g>
<!-- Node1&#45;&gt;Node18 -->
<g id="edge25_Node000001_Node000018" class="edge">
<title>Node1&#45;&gt;Node18</title>
<g id="a_edge25_Node000001_Node000018"><a xlink:title=" ">
<path fill="none" stroke="#63b8ff" d="M587.13,-376.11C595.99,-367.95 607.21,-357.61 617.13,-348.47"/>
<polygon fill="#63b8ff" stroke="#63b8ff" points="619.33,-351.2 624.32,-341.85 614.59,-346.06 619.33,-351.2"/>
</a>
</g>
</g>
<!-- Node25 -->
<g id="Node000025" class="node">
<title>Node25</title>
<g id="a_Node000025"><a xlink:title=" ">
<polygon fill="#e0e0e0" stroke="#999999" points="759,-334.88 705.5,-334.88 705.5,-315.62 759,-315.62 759,-334.88"/>
<text text-anchor="middle" x="732.25" y="-321.38" font-family="Helvetica,sans-Serif" font-size="10.00">iostream</text>
</a>
</g>
</g>
<!-- Node1&#45;&gt;Node25 -->
<g id="edge37_Node000001_Node000025" class="edge">
<title>Node1&#45;&gt;Node25</title>
<g id="a_edge37_Node000001_Node000025"><a xlink:title=" ">
<path fill="none" stroke="#63b8ff" d="M607.78,-376.11C635.22,-365.12 672.49,-350.19 699.08,-339.54"/>
<polygon fill="#63b8ff" stroke="#63b8ff" points="700.37,-342.79 708.36,-335.82 697.77,-336.29 700.37,-342.79"/>
</a>
</g>
</g>
<!-- Node26 -->
<g id="Node000026" class="node">
<title>Node26</title>
<g id="a_Node000026"><a xlink:title=" ">
<polygon fill="#e0e0e0" stroke="#999999" points="847.25,-334.88 777.25,-334.88 777.25,-315.62 847.25,-315.62 847.25,-334.88"/>
<text text-anchor="middle" x="812.25" y="-321.38" font-family="Helvetica,sans-Serif" font-size="10.00">gtest/gtest.h</text>
</a>
</g>
</g>
<!-- Node1&#45;&gt;Node26 -->
<g id="edge38_Node000001_Node000026" class="edge">
<title>Node1&#45;&gt;Node26</title>
<g id="a_edge38_Node000001_Node000026"><a xlink:title=" ">
<path fill="none" stroke="#63b8ff" d="M631.44,-376.45C670.58,-366.89 722.64,-353.69 768.25,-340.5 770.33,-339.9 772.47,-339.26 774.61,-338.61"/>
<polygon fill="#63b8ff" stroke="#63b8ff" points="775.39,-342.04 783.9,-335.71 773.31,-335.35 775.39,-342.04"/>
</a>
</g>
</g>
<!-- Node3 -->
<g id="Node000003" class="node">
<title>Node3</title>
<g id="a_Node000003"><a xlink:href="unique__job_8hpp.html" target="_top" xlink:title=" ">
<polygon fill="white" stroke="#666666" points="210.5,-274 94,-274 94,-243.5 210.5,-243.5 210.5,-274"/>
<text text-anchor="start" x="102" y="-260.5" font-family="Helvetica,sans-Serif" font-size="10.00">yaclib/exe/detail/unique</text>
<text text-anchor="middle" x="152.25" y="-249.25" font-family="Helvetica,sans-Serif" font-size="10.00">_job.hpp</text>
</a>
</g>
</g>
<!-- Node2&#45;&gt;Node3 -->
<g id="edge2_Node000002_Node000003" class="edge">
<title>Node2&#45;&gt;Node3</title>
<g id="a_edge2_Node000002_Node000003"><a xlink:title=" ">
<path fill="none" stroke="#63b8ff" d="M173.77,-315.28C170.71,-307.37 166.09,-295.45 161.91,-284.68"/>
<polygon fill="#63b8ff" stroke="#63b8ff" points="165.23,-283.57 158.36,-275.51 158.71,-286.09 165.23,-283.57"/>
</a>
</g>
</g>
<!-- Node12 -->
<g id="Node000012" class="node">
<title>Node12</title>
<g id="a_Node000012"><a xlink:title=" ">
<polygon fill="#e0e0e0" stroke="#999999" points="38.5,-74.5 0,-74.5 0,-55.25 38.5,-55.25 38.5,-74.5"/>
<text text-anchor="middle" x="19.25" y="-61" font-family="Helvetica,sans-Serif" font-size="10.00">utility</text>
</a>
</g>
</g>
<!-- Node2&#45;&gt;Node12 -->
<g id="edge24_Node000002_Node000012" class="edge">
<title>Node2&#45;&gt;Node12</title>
<g id="a_edge24_Node000002_Node000012"><a xlink:title=" ">
<path fill="none" stroke="#63b8ff" d="M150.82,-315.25C130.59,-307.19 103.19,-293.6 85.25,-274 41.72,-226.42 43.74,-203.34 27.25,-141 22.43,-122.77 20.5,-101.33 19.73,-86.03"/>
<polygon fill="#63b8ff" stroke="#63b8ff" points="23.24,-86.2 19.38,-76.34 16.25,-86.46 23.24,-86.2"/>
</a>
</g>
</g>
<!-- Node15 -->
<g id="Node000015" class="node">
<title>Node15</title>
<g id="a_Node000015"><a xlink:href="executor_8hpp.html" target="_top" xlink:title=" ">
<polygon fill="white" stroke="#666666" points="473.5,-268.38 357,-268.38 357,-249.12 473.5,-249.12 473.5,-268.38"/>
<text text-anchor="middle" x="415.25" y="-254.88" font-family="Helvetica,sans-Serif" font-size="10.00">yaclib/exe/executor.hpp</text>
</a>
</g>
</g>
<!-- Node2&#45;&gt;Node15 -->
<g id="edge17_Node000002_Node000015" class="edge">
<title>Node2&#45;&gt;Node15</title>
<g id="a_edge17_Node000002_Node000015"><a xlink:title=" ">
<path fill="none" stroke="#63b8ff" d="M210.84,-315.15C252.75,-303.79 324.52,-284.34 370.9,-271.77"/>
<polygon fill="#63b8ff" stroke="#63b8ff" points="371.63,-275.2 380.37,-269.2 369.8,-268.44 371.63,-275.2"/>
</a>
</g>
</g>
<!-- Node4 -->
<g id="Node000004" class="node">
<title>Node4</title>
<g id="a_Node000004"><a xlink:href="job_8hpp.html" target="_top" xlink:title=" ">
<polygon fill="white" stroke="#666666" points="516.5,-201.88 424,-201.88 424,-182.62 516.5,-182.62 516.5,-201.88"/>
<text text-anchor="middle" x="470.25" y="-188.38" font-family="Helvetica,sans-Serif" font-size="10.00">yaclib/exe/job.hpp</text>
</a>
</g>
</g>
<!-- Node3&#45;&gt;Node4 -->
<g id="edge3_Node000003_Node000004" class="edge">
<title>Node3&#45;&gt;Node4</title>
<g id="a_edge3_Node000003_Node000004"><a xlink:title=" ">
<path fill="none" stroke="#63b8ff" d="M210.95,-245.84C269.16,-234.04 357.69,-216.08 414.76,-204.51"/>
<polygon fill="#63b8ff" stroke="#63b8ff" points="415.15,-208 424.25,-202.58 413.75,-201.14 415.15,-208"/>
</a>
</g>
</g>
<!-- Node3&#45;&gt;Node12 -->
<g id="edge16_Node000003_Node000012" class="edge">
<title>Node3&#45;&gt;Node12</title>
<g id="a_edge16_Node000003_Node000012"><a xlink:title=" ">
<path fill="none" stroke="#63b8ff" d="M134.85,-243.28C111.23,-222.78 69.12,-183.07 44.25,-141 33.98,-123.63 27.27,-101.49 23.41,-85.75"/>
<polygon fill="#63b8ff" stroke="#63b8ff" points="26.87,-85.17 21.25,-76.19 20.04,-86.72 26.87,-85.17"/>
</a>
</g>
</g>
<!-- Node13 -->
<g id="Node000013" class="node">
<title>Node13</title>
<g id="a_Node000013"><a xlink:href="safe__call_8hpp.html" target="_top" xlink:title=" ">
<polygon fill="white" stroke="#666666" points="135.62,-141 52.88,-141 52.88,-110.5 135.62,-110.5 135.62,-141"/>
<text text-anchor="start" x="60.88" y="-127.5" font-family="Helvetica,sans-Serif" font-size="10.00">yaclib/util/detail</text>
<text text-anchor="middle" x="94.25" y="-116.25" font-family="Helvetica,sans-Serif" font-size="10.00">/safe_call.hpp</text>
</a>
</g>
</g>
<!-- Node3&#45;&gt;Node13 -->
<g id="edge12_Node000003_Node000013" class="edge">
<title>Node3&#45;&gt;Node13</title>
<g id="a_edge12_Node000003_Node000013"><a xlink:title=" ">
<path fill="none" stroke="#63b8ff" d="M145.82,-243.23C136.02,-221.1 117.23,-178.65 105.24,-151.56"/>
<polygon fill="#63b8ff" stroke="#63b8ff" points="108.57,-150.45 101.32,-142.72 102.17,-153.28 108.57,-150.45"/>
</a>
</g>
</g>
<!-- Node5 -->
<g id="Node000005" class="node">
<title>Node5</title>
<g id="a_Node000005"><a xlink:href="log_8hpp.html" target="_top" xlink:title=" ">
<polygon fill="white" stroke="#666666" points="487.5,-74.5 413,-74.5 413,-55.25 487.5,-55.25 487.5,-74.5"/>
<text text-anchor="middle" x="450.25" y="-61" font-family="Helvetica,sans-Serif" font-size="10.00">yaclib/log.hpp</text>
</a>
</g>
</g>
<!-- Node4&#45;&gt;Node5 -->
<g id="edge4_Node000004_Node000005" class="edge">
<title>Node4&#45;&gt;Node5</title>
<g id="a_edge4_Node000004_Node000005"><a xlink:title=" ">
<path fill="none" stroke="#63b8ff" d="M470.66,-182.18C471.15,-167.13 471.36,-136.1 466.25,-110.5 464.56,-102.03 461.57,-93.01 458.63,-85.31"/>
<polygon fill="#63b8ff" stroke="#63b8ff" points="461.96,-84.22 454.94,-76.28 455.48,-86.86 461.96,-84.22"/>
</a>
</g>
</g>
<!-- Node7 -->
<g id="Node000007" class="node">
<title>Node7</title>
<g id="a_Node000007"><a xlink:href="node_8hpp.html" target="_top" xlink:title=" ">
<polygon fill="white" stroke="#666666" points="595.62,-141 512.88,-141 512.88,-110.5 595.62,-110.5 595.62,-141"/>
<text text-anchor="start" x="520.88" y="-127.5" font-family="Helvetica,sans-Serif" font-size="10.00">yaclib/util/detail</text>
<text text-anchor="middle" x="554.25" y="-116.25" font-family="Helvetica,sans-Serif" font-size="10.00">/node.hpp</text>
</a>
</g>
</g>
<!-- Node4&#45;&gt;Node7 -->
<g id="edge6_Node000004_Node000007" class="edge">
<title>Node4&#45;&gt;Node7</title>
<g id="a_edge6_Node000004_Node000007"><a xlink:title=" ">
<path fill="none" stroke="#63b8ff" d="M481.93,-182.28C493.35,-173.51 511.18,-159.82 526.28,-148.23"/>
<polygon fill="#63b8ff" stroke="#63b8ff" points="528.25,-151.13 534.05,-142.26 523.98,-145.58 528.25,-151.13"/>
</a>
</g>
</g>
<!-- Node8 -->
<g id="Node000008" class="node">
<title>Node8</title>
<g id="a_Node000008"><a xlink:href="func_8hpp.html" target="_top" xlink:title=" ">
<polygon fill="white" stroke="#666666" points="287.38,-135.38 191.12,-135.38 191.12,-116.12 287.38,-116.12 287.38,-135.38"/>
<text text-anchor="middle" x="239.25" y="-121.88" font-family="Helvetica,sans-Serif" font-size="10.00">yaclib/util/func.hpp</text>
</a>
</g>
</g>
<!-- Node4&#45;&gt;Node8 -->
<g id="edge7_Node000004_Node000008" class="edge">
<title>Node4&#45;&gt;Node8</title>
<g id="a_edge7_Node000004_Node000008"><a xlink:title=" ">
<path fill="none" stroke="#63b8ff" d="M437.64,-182.15C397.06,-170.81 327.61,-151.42 282.58,-138.85"/>
<polygon fill="#63b8ff" stroke="#63b8ff" points="283.72,-135.53 273.15,-136.22 281.84,-142.28 283.72,-135.53"/>
</a>
</g>
</g>
<!-- Node6 -->
<g id="Node000006" class="node">
<title>Node6</title>
<g id="a_Node000006"><a xlink:title=" ">
<polygon fill="#e0e0e0" stroke="#999999" points="483,-19.25 417.5,-19.25 417.5,0 483,0 483,-19.25"/>
<text text-anchor="middle" x="450.25" y="-5.75" font-family="Helvetica,sans-Serif" font-size="10.00">string_view</text>
</a>
</g>
</g>
<!-- Node5&#45;&gt;Node6 -->
<g id="edge5_Node000005_Node000006" class="edge">
<title>Node5&#45;&gt;Node6</title>
<g id="a_edge5_Node000005_Node000006"><a xlink:title=" ">
<path fill="none" stroke="#63b8ff" d="M450.25,-55.08C450.25,-48.57 450.25,-39.42 450.25,-31.12"/>
<polygon fill="#63b8ff" stroke="#63b8ff" points="453.75,-31.12 450.25,-21.12 446.75,-31.12 453.75,-31.12"/>
</a>
</g>
</g>
<!-- Node9 -->
<g id="Node000009" class="node">
<title>Node9</title>
<g id="a_Node000009"><a xlink:href="ref_8hpp.html" target="_top" xlink:title=" ">
<polygon fill="white" stroke="#666666" points="359.62,-74.5 270.88,-74.5 270.88,-55.25 359.62,-55.25 359.62,-74.5"/>
<text text-anchor="middle" x="315.25" y="-61" font-family="Helvetica,sans-Serif" font-size="10.00">yaclib/util/ref.hpp</text>
</a>
</g>
</g>
<!-- Node8&#45;&gt;Node9 -->
<g id="edge8_Node000008_Node000009" class="edge">
<title>Node8&#45;&gt;Node9</title>
<g id="a_edge8_Node000008_Node000009"><a xlink:title=" ">
<path fill="none" stroke="#63b8ff" d="M250.79,-115.81C262.4,-106.82 280.54,-92.76 294.63,-81.85"/>
<polygon fill="#63b8ff" stroke="#63b8ff" points="296.64,-84.72 302.4,-75.83 292.35,-79.19 296.64,-84.72"/>
</a>
</g>
</g>
<!-- Node11 -->
<g id="Node000011" class="node">
<title>Node11</title>
<g id="a_Node000011"><a xlink:title=" ">
<polygon fill="#e0e0e0" stroke="#999999" points="222.75,-74.5 161.75,-74.5 161.75,-55.25 222.75,-55.25 222.75,-74.5"/>
<text text-anchor="middle" x="192.25" y="-61" font-family="Helvetica,sans-Serif" font-size="10.00">type_traits</text>
</a>
</g>
</g>
<!-- Node8&#45;&gt;Node11 -->
<g id="edge10_Node000008_Node000011" class="edge">
<title>Node8&#45;&gt;Node11</title>
<g id="a_edge10_Node000008_Node000011"><a xlink:title=" ">
<path fill="none" stroke="#63b8ff" d="M232.11,-115.81C225.35,-107.34 215,-94.37 206.54,-83.77"/>
<polygon fill="#63b8ff" stroke="#63b8ff" points="209.37,-81.72 200.4,-76.08 203.9,-86.08 209.37,-81.72"/>
</a>
</g>
</g>
<!-- Node8&#45;&gt;Node12 -->
<g id="edge11_Node000008_Node000012" class="edge">
<title>Node8&#45;&gt;Node12</title>
<g id="a_edge11_Node000008_Node000012"><a xlink:title=" ">
<path fill="none" stroke="#63b8ff" d="M202.67,-115.67C166.22,-106.52 108.38,-91.7 49.75,-75.13"/>
<polygon fill="#63b8ff" stroke="#63b8ff" points="50.83,-71.8 40.26,-72.43 48.92,-78.53 50.83,-71.8"/>
</a>
</g>
</g>
<!-- Node9&#45;&gt;Node10 -->
<g id="edge9_Node000009_Node000010" class="edge">
<title>Node9&#45;&gt;Node10</title>
<g id="a_edge9_Node000009_Node000010"><a xlink:title=" ">
<path fill="none" stroke="#63b8ff" d="M320.2,-55.08C324.13,-48.11 329.76,-38.12 334.69,-29.37"/>
<polygon fill="#63b8ff" stroke="#63b8ff" points="337.59,-31.36 339.45,-20.93 331.49,-27.92 337.59,-31.36"/>
</a>
</g>
</g>
<!-- Node13&#45;&gt;Node11 -->
<g id="edge14_Node000013_Node000011" class="edge">
<title>Node13&#45;&gt;Node11</title>
<g id="a_edge14_Node000013_Node000011"><a xlink:title=" ">
<path fill="none" stroke="#63b8ff" d="M118.73,-110.05C133.65,-101.08 152.67,-89.66 167.62,-80.67"/>
<polygon fill="#63b8ff" stroke="#63b8ff" points="169.15,-83.83 175.92,-75.68 165.55,-77.83 169.15,-83.83"/>
</a>
</g>
</g>
<!-- Node13&#45;&gt;Node12 -->
<g id="edge15_Node000013_Node000012" class="edge">
<title>Node13&#45;&gt;Node12</title>
<g id="a_edge15_Node000013_Node000012"><a xlink:title=" ">
<path fill="none" stroke="#63b8ff" d="M75.71,-110.2C64.73,-101.58 50.81,-90.65 39.53,-81.8"/>
<polygon fill="#63b8ff" stroke="#63b8ff" points="42.03,-79.31 32,-75.89 37.71,-84.81 42.03,-79.31"/>
</a>
</g>
</g>
<!-- Node14 -->
<g id="Node000014" class="node">
<title>Node14</title>
<g id="a_Node000014"><a xlink:title=" ">
<polygon fill="#e0e0e0" stroke="#999999" points="143.88,-74.5 56.62,-74.5 56.62,-55.25 143.88,-55.25 143.88,-74.5"/>
<text text-anchor="middle" x="100.25" y="-61" font-family="Helvetica,sans-Serif" font-size="10.00">yaclib/config.hpp</text>
</a>
</g>
</g>
<!-- Node13&#45;&gt;Node14 -->
<g id="edge13_Node000013_Node000014" class="edge">
<title>Node13&#45;&gt;Node14</title>
<g id="a_edge13_Node000013_Node000014"><a xlink:title=" ">
<path fill="none" stroke="#63b8ff" d="M95.73,-110.2C96.47,-102.96 97.38,-94.09 98.18,-86.19"/>
<polygon fill="#63b8ff" stroke="#63b8ff" points="101.64,-86.76 99.17,-76.46 94.68,-86.05 101.64,-86.76"/>
</a>
</g>
</g>
<!-- Node15&#45;&gt;Node4 -->
<g id="edge18_Node000015_Node000004" class="edge">
<title>Node15&#45;&gt;Node4</title>
<g id="a_edge18_Node000015_Node000004"><a xlink:title=" ">
<path fill="none" stroke="#63b8ff" d="M422.9,-248.78C431.27,-238.96 444.9,-222.98 455.39,-210.67"/>
<polygon fill="#63b8ff" stroke="#63b8ff" points="457.86,-213.17 461.69,-203.29 452.53,-208.63 457.86,-213.17"/>
</a>
</g>
</g>
<!-- Node15&#45;&gt;Node16 -->
<g id="edge19_Node000015_Node000016" class="edge">
<title>Node15&#45;&gt;Node16</title>
<g id="a_edge19_Node000015_Node000016"><a xlink:title=" ">
<path fill="none" stroke="#63b8ff" d="M403.29,-248.78C391.6,-240.01 373.34,-226.32 357.88,-214.73"/>
<polygon fill="#63b8ff" stroke="#63b8ff" points="360.02,-211.95 349.92,-208.75 355.82,-217.55 360.02,-211.95"/>
</a>
</g>
</g>
<!-- Node16&#45;&gt;Node9 -->
<g id="edge20_Node000016_Node000009" class="edge">
<title>Node16&#45;&gt;Node9</title>
<g id="a_edge20_Node000016_Node000009"><a xlink:title=" ">
<path fill="none" stroke="#63b8ff" d="M327.64,-176.87C325.15,-154.53 320.34,-111.42 317.5,-86"/>
<polygon fill="#63b8ff" stroke="#63b8ff" points="321,-85.87 316.42,-76.32 314.05,-86.65 321,-85.87"/>
</a>
</g>
</g>
<!-- Node16&#45;&gt;Node11 -->
<g id="edge21_Node000016_Node000011" class="edge">
<title>Node16&#45;&gt;Node11</title>
<g id="a_edge21_Node000016_Node000011"><a xlink:title=" ">
<path fill="none" stroke="#63b8ff" d="M280.66,-188.72C247.02,-184.12 204.45,-172.04 182.25,-141 170.67,-124.81 176.27,-101.52 182.79,-85.17"/>
<polygon fill="#63b8ff" stroke="#63b8ff" points="185.97,-86.64 186.85,-76.08 179.57,-83.79 185.97,-86.64"/>
</a>
</g>
</g>
<!-- Node17 -->
<g id="Node000017" class="node">
<title>Node17</title>
<g id="a_Node000017"><a xlink:href="intrusive__ptr__impl_8hpp.html" target="_top" xlink:title=" ">
<polygon fill="white" stroke="#666666" points="457,-141 343.5,-141 343.5,-110.5 457,-110.5 457,-141"/>
<text text-anchor="start" x="351.5" y="-127.5" font-family="Helvetica,sans-Serif" font-size="10.00">yaclib/util/detail</text>
<text text-anchor="middle" x="400.25" y="-116.25" font-family="Helvetica,sans-Serif" font-size="10.00">/intrusive_ptr_impl.hpp</text>
</a>
</g>
</g>
<!-- Node16&#45;&gt;Node17 -->
<g id="edge22_Node000016_Node000017" class="edge">
<title>Node16&#45;&gt;Node17</title>
<g id="a_edge22_Node000016_Node000017"><a xlink:title=" ">
<path fill="none" stroke="#63b8ff" d="M345.36,-176.61C354.35,-168.45 365.73,-158.11 375.79,-148.97"/>
<polygon fill="#63b8ff" stroke="#63b8ff" points="378.03,-151.66 383.08,-142.35 373.33,-146.48 378.03,-151.66"/>
</a>
</g>
</g>
<!-- Node17&#45;&gt;Node5 -->
<g id="edge23_Node000017_Node000005" class="edge">
<title>Node17&#45;&gt;Node5</title>
<g id="a_edge23_Node000017_Node000005"><a xlink:title=" ">
<path fill="none" stroke="#63b8ff" d="M412.61,-110.2C419.42,-102.18 427.92,-92.17 435.12,-83.69"/>
<polygon fill="#63b8ff" stroke="#63b8ff" points="437.76,-85.99 441.56,-76.1 432.42,-81.46 437.76,-85.99"/>
</a>
</g>
</g>
<!-- Node18&#45;&gt;Node4 -->
<g id="edge27_Node000018_Node000004" class="edge">
<title>Node18&#45;&gt;Node4</title>
<g id="a_edge27_Node000018_Node000004"><a xlink:title=" ">
<path fill="none" stroke="#63b8ff" d="M665.03,-309.7C688.81,-293.33 719.44,-266.07 701.25,-243.5 679.93,-217.04 589.55,-203.79 528.37,-197.73"/>
<polygon fill="#63b8ff" stroke="#63b8ff" points="528.72,-194.24 518.44,-196.79 528.06,-201.21 528.72,-194.24"/>
</a>
</g>
</g>
<!-- Node18&#45;&gt;Node15 -->
<g id="edge26_Node000018_Node000015" class="edge">
<title>Node18&#45;&gt;Node15</title>
<g id="a_edge26_Node000018_Node000015"><a xlink:title=" ">
<path fill="none" stroke="#63b8ff" d="M594.7,-310.96C554.59,-299.52 497.17,-283.13 458.16,-272"/>
<polygon fill="#63b8ff" stroke="#63b8ff" points="459.22,-268.66 448.64,-269.28 457.3,-275.39 459.22,-268.66"/>
</a>
</g>
</g>
<!-- Node19 -->
<g id="Node000019" class="node">
<title>Node19</title>
<g id="a_Node000019"><a xlink:href="intrusive__list_8hpp.html" target="_top" xlink:title=" ">
<polygon fill="white" stroke="#666666" points="864.12,-207.5 772.38,-207.5 772.38,-177 864.12,-177 864.12,-207.5"/>
<text text-anchor="start" x="780.38" y="-194" font-family="Helvetica,sans-Serif" font-size="10.00">yaclib/util/detail</text>
<text text-anchor="middle" x="818.25" y="-182.75" font-family="Helvetica,sans-Serif" font-size="10.00">/intrusive_list.hpp</text>
</a>
</g>
</g>
<!-- Node18&#45;&gt;Node19 -->
<g id="edge28_Node000018_Node000019" class="edge">
<title>Node18&#45;&gt;Node19</title>
<g id="a_edge28_Node000018_Node000019"><a xlink:title=" ">
<path fill="none" stroke="#63b8ff" d="M687.97,-311.76C690.77,-311.13 693.54,-310.54 696.25,-310 752.81,-298.75 915.41,-317.51 953.25,-274 981.43,-241.59 924.05,-218.53 875.59,-205.56"/>
<polygon fill="#63b8ff" stroke="#63b8ff" points="876.5,-202.18 865.94,-203.09 874.76,-208.96 876.5,-202.18"/>
</a>
</g>
</g>
<!-- Node20 -->
<g id="Node000020" class="node">
<title>Node20</title>
<g id="a_Node000020"><a xlink:title=" ">
<polygon fill="#e0e0e0" stroke="#999999" points="1045.88,-268.38 1000.62,-268.38 1000.62,-249.12 1045.88,-249.12 1045.88,-268.38"/>
<text text-anchor="middle" x="1023.25" y="-254.88" font-family="Helvetica,sans-Serif" font-size="10.00">cstdint</text>
</a>
</g>
</g>
<!-- Node18&#45;&gt;Node20 -->
<g id="edge30_Node000018_Node000020" class="edge">
<title>Node18&#45;&gt;Node20</title>
<g id="a_edge30_Node000018_Node000020"><a xlink:title=" ">
<path fill="none" stroke="#63b8ff" d="M687.96,-311.71C690.76,-311.09 693.54,-310.52 696.25,-310 823.83,-285.66 860.27,-305.57 986.25,-274 988,-273.56 989.79,-273.06 991.57,-272.52"/>
<polygon fill="#63b8ff" stroke="#63b8ff" points="992.65,-275.85 1000.97,-269.29 990.38,-269.23 992.65,-275.85"/>
</a>
</g>
</g>
<!-- Node21 -->
<g id="Node000021" class="node">
<title>Node21</title>
<g id="a_Node000021"><a xlink:title=" ">
<polygon fill="#e0e0e0" stroke="#999999" points="572.75,-268.38 529.75,-268.38 529.75,-249.12 572.75,-249.12 572.75,-268.38"/>
<text text-anchor="middle" x="551.25" y="-254.88" font-family="Helvetica,sans-Serif" font-size="10.00">vector</text>
</a>
</g>
</g>
<!-- Node18&#45;&gt;Node21 -->
<g id="edge31_Node000018_Node000021" class="edge">
<title>Node18&#45;&gt;Node21</title>
<g id="a_edge31_Node000018_Node000021"><a xlink:title=" ">
<path fill="none" stroke="#63b8ff" d="M620.83,-309.61C606.58,-299.41 587.6,-285.8 573.06,-275.38"/>
<polygon fill="#63b8ff" stroke="#63b8ff" points="575.22,-272.62 565.05,-269.64 571.14,-278.31 575.22,-272.62"/>
</a>
</g>
</g>
<!-- Node22 -->
<g id="Node000022" class="node">
<title>Node22</title>
<g id="a_Node000022"><a xlink:title=" ">
<polygon fill="#e0e0e0" stroke="#999999" points="692,-274 590.5,-274 590.5,-243.5 692,-243.5 692,-274"/>
<text text-anchor="start" x="598.5" y="-260.5" font-family="Helvetica,sans-Serif" font-size="10.00">yaclib_std/condition</text>
<text text-anchor="middle" x="641.25" y="-249.25" font-family="Helvetica,sans-Serif" font-size="10.00">_variable</text>
</a>
</g>
</g>
<!-- Node18&#45;&gt;Node22 -->
<g id="edge32_Node000018_Node000022" class="edge">
<title>Node18&#45;&gt;Node22</title>
<g id="a_edge32_Node000018_Node000022"><a xlink:title=" ">
<path fill="none" stroke="#63b8ff" d="M641.25,-309.61C641.25,-302.52 641.25,-293.79 641.25,-285.63"/>
<polygon fill="#63b8ff" stroke="#63b8ff" points="644.75,-285.84 641.25,-275.84 637.75,-285.84 644.75,-285.84"/>
</a>
</g>
</g>
<!-- Node23 -->
<g id="Node000023" class="node">
<title>Node23</title>
<g id="a_Node000023"><a xlink:title=" ">
<polygon fill="#e0e0e0" stroke="#999999" points="836.62,-268.38 747.88,-268.38 747.88,-249.12 836.62,-249.12 836.62,-268.38"/>
<text text-anchor="middle" x="792.25" y="-254.88" font-family="Helvetica,sans-Serif" font-size="10.00">yaclib_std/mutex</text>
</a>
</g>
</g>
<!-- Node18&#45;&gt;Node23 -->
<g id="edge33_Node000018_Node000023" class="edge">
<title>Node18&#45;&gt;Node23</title>
<g id="a_edge33_Node000018_Node000023"><a xlink:title=" ">
<path fill="none" stroke="#63b8ff" d="M675.51,-309.61C701.13,-298.67 735.89,-283.82 760.81,-273.18"/>
<polygon fill="#63b8ff" stroke="#63b8ff" points="761.94,-276.5 769.77,-269.35 759.19,-270.06 761.94,-276.5"/>
</a>
</g>
</g>
<!-- Node24 -->
<g id="Node000024" class="node">
<title>Node24</title>
<g id="a_Node000024"><a xlink:title=" ">
<polygon fill="#e0e0e0" stroke="#999999" points="944,-268.38 854.5,-268.38 854.5,-249.12 944,-249.12 944,-268.38"/>
<text text-anchor="middle" x="899.25" y="-254.88" font-family="Helvetica,sans-Serif" font-size="10.00">yaclib_std/thread</text>
</a>
</g>
</g>
<!-- Node18&#45;&gt;Node24 -->
<g id="edge34_Node000018_Node000024" class="edge">
<title>Node18&#45;&gt;Node24</title>
<g id="a_edge34_Node000018_Node000024"><a xlink:title=" ">
<path fill="none" stroke="#63b8ff" d="M687.75,-312.15C690.62,-311.41 693.48,-310.69 696.25,-310 762.34,-293.46 779.2,-290.69 845.25,-274 848.19,-273.26 851.22,-272.48 854.26,-271.7"/>
<polygon fill="#63b8ff" stroke="#63b8ff" points="855.03,-275.12 863.82,-269.21 853.26,-268.34 855.03,-275.12"/>
</a>
</g>
</g>
<!-- Node19&#45;&gt;Node7 -->
<g id="edge29_Node000019_Node000007" class="edge">
<title>Node19&#45;&gt;Node7</title>
<g id="a_edge29_Node000019_Node000007"><a xlink:title=" ">
<path fill="none" stroke="#63b8ff" d="M771.96,-179.94C725.83,-168.67 655.08,-151.38 606.84,-139.6"/>
<polygon fill="#63b8ff" stroke="#63b8ff" points="607.72,-136.21 597.17,-137.24 606.05,-143.01 607.72,-136.21"/>
</a>
</g>
</g>
</g>
</svg>
