<?xml version="1.0" encoding="UTF-8" standalone="no"?>
<!DOCTYPE svg PUBLIC "-//W3C//DTD SVG 1.1//EN"
 "http://www.w3.org/Graphics/SVG/1.1/DTD/svg11.dtd">
<!-- Generated by graphviz version 3.0.0 (20221109.1736)
 -->
<!-- Title: test/example/exe/thread_pool.cpp Pages: 1 -->
<svg width="863pt" height="419pt"
 viewBox="0.00 0.00 863.34 419.00" xmlns="http://www.w3.org/2000/svg" xmlns:xlink="http://www.w3.org/1999/xlink">
<g id="graph0" class="graph" transform="scale(1 1) rotate(0) translate(4 415)">
<title>test/example/exe/thread_pool.cpp</title>
<!-- Node1 -->
<g id="node1" class="node">
<title>Node1</title>
<g id="a_node1"><a xlink:title=" ">
<polygon fill="#bfbfbf" stroke="black" points="508.34,-380.5 508.34,-410.5 628.34,-410.5 628.34,-380.5 508.34,-380.5"/>
<text text-anchor="start" x="516.34" y="-398.5" font-family="Helvetica,sans-Serif" font-size="10.00">test/example/exe/thread</text>
<text text-anchor="middle" x="568.34" y="-387.5" font-family="Helvetica,sans-Serif" font-size="10.00">_pool.cpp</text>
</a>
</g>
</g>
<!-- Node2 -->
<g id="node2" class="node">
<title>Node2</title>
<g id="a_node2"><a xlink:href="submit_8hpp.html" target="_top" xlink:title=" ">
<polygon fill="none" stroke="black" points="32.34,-319 32.34,-338 142.34,-338 142.34,-319 32.34,-319"/>
<text text-anchor="middle" x="87.34" y="-326" font-family="Helvetica,sans-Serif" font-size="10.00">yaclib/exe/submit.hpp</text>
</a>
</g>
</g>
<!-- Node1&#45;&gt;Node2 -->
<g id="edge1" class="edge">
<title>Node1&#45;&gt;Node2</title>
<path fill="none" stroke="midnightblue" d="M508.04,-388.58C427.9,-380.36 282.03,-364.21 158.34,-344 151.17,-342.83 143.62,-341.45 136.23,-340.01"/>
<polygon fill="midnightblue" stroke="midnightblue" points="136.79,-336.55 126.3,-338.03 135.43,-343.42 136.79,-336.55"/>
</g>
<!-- Node15 -->
<g id="node15" class="node">
<title>Node15</title>
<g id="a_node15"><a xlink:href="intrusive__ptr_8hpp.html" target="_top" xlink:title=" ">
<polygon fill="none" stroke="black" points="210.84,-179.5 210.84,-209.5 307.84,-209.5 307.84,-179.5 210.84,-179.5"/>
<text text-anchor="start" x="218.84" y="-197.5" font-family="Helvetica,sans-Serif" font-size="10.00">yaclib/util/intrusive</text>
<text text-anchor="middle" x="259.34" y="-186.5" font-family="Helvetica,sans-Serif" font-size="10.00">_ptr.hpp</text>
</a>
</g>
</g>
<!-- Node1&#45;&gt;Node15 -->
<g id="edge34" class="edge">
<title>Node1&#45;&gt;Node15</title>
<path fill="none" stroke="midnightblue" d="M508.06,-384.54C411.51,-367.22 229.18,-328.42 191.34,-277 183.18,-265.9 185.15,-258.31 191.34,-246 197.71,-233.33 208.93,-223.04 220.44,-215.14"/>
<polygon fill="midnightblue" stroke="midnightblue" points="222.66,-217.87 229.23,-209.56 218.91,-211.97 222.66,-217.87"/>
</g>
<!-- Node17 -->
<g id="node17" class="node">
<title>Node17</title>
<g id="a_node17"><a xlink:href="fair__thread__pool_8hpp.html" target="_top" xlink:title=" ">
<polygon fill="none" stroke="black" points="477.84,-313.5 477.84,-343.5 570.84,-343.5 570.84,-313.5 477.84,-313.5"/>
<text text-anchor="start" x="485.84" y="-331.5" font-family="Helvetica,sans-Serif" font-size="10.00">yaclib/runtime/fair</text>
<text text-anchor="middle" x="524.34" y="-320.5" font-family="Helvetica,sans-Serif" font-size="10.00">_thread_pool.hpp</text>
</a>
</g>
</g>
<!-- Node1&#45;&gt;Node17 -->
<g id="edge24" class="edge">
<title>Node1&#45;&gt;Node17</title>
<path fill="none" stroke="midnightblue" d="M558.8,-380.4C553.2,-372.13 546.01,-361.51 539.64,-352.1"/>
<polygon fill="midnightblue" stroke="midnightblue" points="542.38,-349.9 533.87,-343.58 536.58,-353.82 542.38,-349.9"/>
</g>
<!-- Node24 -->
<g id="node24" class="node">
<title>Node24</title>
<g id="a_node24"><a xlink:title=" ">
<polygon fill="none" stroke="#bfbfbf" points="588.84,-319 588.84,-338 637.84,-338 637.84,-319 588.84,-319"/>
<text text-anchor="middle" x="613.34" y="-326" font-family="Helvetica,sans-Serif" font-size="10.00">cstddef</text>
</a>
</g>
</g>
<!-- Node1&#45;&gt;Node24 -->
<g id="edge35" class="edge">
<title>Node1&#45;&gt;Node24</title>
<path fill="none" stroke="midnightblue" d="M578.11,-380.4C584.98,-370.46 594.23,-357.11 601.52,-346.57"/>
<polygon fill="midnightblue" stroke="midnightblue" points="604.51,-348.41 607.32,-338.19 598.75,-344.42 604.51,-348.41"/>
</g>
<!-- Node25 -->
<g id="node25" class="node">
<title>Node25</title>
<g id="a_node25"><a xlink:title=" ">
<polygon fill="none" stroke="#bfbfbf" points="656.34,-319 656.34,-338 710.34,-338 710.34,-319 656.34,-319"/>
<text text-anchor="middle" x="683.34" y="-326" font-family="Helvetica,sans-Serif" font-size="10.00">iostream</text>
</a>
</g>
</g>
<!-- Node1&#45;&gt;Node25 -->
<g id="edge36" class="edge">
<title>Node1&#45;&gt;Node25</title>
<path fill="none" stroke="midnightblue" d="M593.3,-380.4C612.94,-369.29 640.14,-353.92 659.49,-342.98"/>
<polygon fill="midnightblue" stroke="midnightblue" points="661.31,-345.97 668.29,-338.01 657.86,-339.88 661.31,-345.97"/>
</g>
<!-- Node26 -->
<g id="node26" class="node">
<title>Node26</title>
<g id="a_node26"><a xlink:title=" ">
<polygon fill="none" stroke="#bfbfbf" points="728.84,-319 728.84,-338 799.84,-338 799.84,-319 728.84,-319"/>
<text text-anchor="middle" x="764.34" y="-326" font-family="Helvetica,sans-Serif" font-size="10.00">gtest/gtest.h</text>
</a>
</g>
</g>
<!-- Node1&#45;&gt;Node26 -->
<g id="edge37" class="edge">
<title>Node1&#45;&gt;Node26</title>
<path fill="none" stroke="midnightblue" d="M610.87,-380.4C646.18,-368.69 695.8,-352.23 728.96,-341.23"/>
<polygon fill="midnightblue" stroke="midnightblue" points="730.3,-344.48 738.69,-338.01 728.1,-337.83 730.3,-344.48"/>
</g>
<!-- Node3 -->
<g id="node3" class="node">
<title>Node3</title>
<g id="a_node3"><a xlink:href="unique__job_8hpp.html" target="_top" xlink:title=" ">
<polygon fill="none" stroke="black" points="26.84,-246.5 26.84,-276.5 143.84,-276.5 143.84,-246.5 26.84,-246.5"/>
<text text-anchor="start" x="34.84" y="-264.5" font-family="Helvetica,sans-Serif" font-size="10.00">yaclib/exe/detail/unique</text>
<text text-anchor="middle" x="85.34" y="-253.5" font-family="Helvetica,sans-Serif" font-size="10.00">_job.hpp</text>
</a>
</g>
</g>
<!-- Node2&#45;&gt;Node3 -->
<g id="edge2" class="edge">
<title>Node2&#45;&gt;Node3</title>
<path fill="none" stroke="midnightblue" d="M87.07,-318.73C86.82,-310.54 86.43,-297.92 86.09,-286.71"/>
<polygon fill="midnightblue" stroke="midnightblue" points="89.58,-286.48 85.78,-276.59 82.59,-286.69 89.58,-286.48"/>
</g>
<!-- Node11 -->
<g id="node11" class="node">
<title>Node11</title>
<g id="a_node11"><a xlink:title=" ">
<polygon fill="none" stroke="#bfbfbf" points="4.84,-56.5 4.84,-75.5 43.84,-75.5 43.84,-56.5 4.84,-56.5"/>
<text text-anchor="middle" x="24.34" y="-63.5" font-family="Helvetica,sans-Serif" font-size="10.00">utility</text>
</a>
</g>
</g>
<!-- Node2&#45;&gt;Node11 -->
<g id="edge23" class="edge">
<title>Node2&#45;&gt;Node11</title>
<path fill="none" stroke="midnightblue" d="M66.54,-318.99C49.85,-310.91 27.58,-297.01 17.34,-277 -15.32,-213.16 6.31,-123.52 18.11,-85.36"/>
<polygon fill="midnightblue" stroke="midnightblue" points="21.51,-86.23 21.26,-75.64 14.85,-84.08 21.51,-86.23"/>
</g>
<!-- Node14 -->
<g id="node14" class="node">
<title>Node14</title>
<g id="a_node14"><a xlink:href="executor_8hpp.html" target="_top" xlink:title=" ">
<polygon fill="none" stroke="black" points="200.84,-252 200.84,-271 317.84,-271 317.84,-252 200.84,-252"/>
<text text-anchor="middle" x="259.34" y="-259" font-family="Helvetica,sans-Serif" font-size="10.00">yaclib/exe/executor.hpp</text>
</a>
</g>
</g>
<!-- Node2&#45;&gt;Node14 -->
<g id="edge16" class="edge">
<title>Node2&#45;&gt;Node14</title>
<path fill="none" stroke="midnightblue" d="M110.18,-318.87C140.21,-307.52 193.12,-287.52 227.19,-274.65"/>
<polygon fill="midnightblue" stroke="midnightblue" points="228.57,-277.87 236.68,-271.06 226.09,-271.32 228.57,-277.87"/>
</g>
<!-- Node4 -->
<g id="node4" class="node">
<title>Node4</title>
<g id="a_node4"><a xlink:href="job_8hpp.html" target="_top" xlink:title=" ">
<polygon fill="none" stroke="black" points="398.84,-185 398.84,-204 491.84,-204 491.84,-185 398.84,-185"/>
<text text-anchor="middle" x="445.34" y="-192" font-family="Helvetica,sans-Serif" font-size="10.00">yaclib/exe/job.hpp</text>
</a>
</g>
</g>
<!-- Node3&#45;&gt;Node4 -->
<g id="edge3" class="edge">
<title>Node3&#45;&gt;Node4</title>
<path fill="none" stroke="midnightblue" d="M143.98,-249.91C211.64,-237.7 322.11,-217.75 388.84,-205.7"/>
<polygon fill="midnightblue" stroke="midnightblue" points="389.55,-209.13 398.76,-203.91 388.3,-202.24 389.55,-209.13"/>
</g>
<!-- Node3&#45;&gt;Node11 -->
<g id="edge15" class="edge">
<title>Node3&#45;&gt;Node11</title>
<path fill="none" stroke="midnightblue" d="M80.86,-246.27C69.99,-211.8 42.25,-123.81 30.14,-85.4"/>
<polygon fill="midnightblue" stroke="midnightblue" points="33.39,-84.06 27.05,-75.58 26.72,-86.17 33.39,-84.06"/>
</g>
<!-- Node12 -->
<g id="node12" class="node">
<title>Node12</title>
<g id="a_node12"><a xlink:href="safe__call_8hpp.html" target="_top" xlink:title=" ">
<polygon fill="none" stroke="black" points="58.84,-112.5 58.84,-142.5 141.84,-142.5 141.84,-112.5 58.84,-112.5"/>
<text text-anchor="start" x="66.84" y="-130.5" font-family="Helvetica,sans-Serif" font-size="10.00">yaclib/util/detail</text>
<text text-anchor="middle" x="100.34" y="-119.5" font-family="Helvetica,sans-Serif" font-size="10.00">/safe_call.hpp</text>
</a>
</g>
</g>
<!-- Node3&#45;&gt;Node12 -->
<g id="edge11" class="edge">
<title>Node3&#45;&gt;Node12</title>
<path fill="none" stroke="midnightblue" d="M86.95,-246.37C89.5,-223.94 94.5,-179.92 97.62,-152.49"/>
<polygon fill="midnightblue" stroke="midnightblue" points="101.1,-152.86 98.75,-142.52 94.14,-152.07 101.1,-152.86"/>
</g>
<!-- Node5 -->
<g id="node5" class="node">
<title>Node5</title>
<g id="a_node5"><a xlink:href="log_8hpp.html" target="_top" xlink:title=" ">
<polygon fill="none" stroke="black" points="384.84,-56.5 384.84,-75.5 459.84,-75.5 459.84,-56.5 384.84,-56.5"/>
<text text-anchor="middle" x="422.34" y="-63.5" font-family="Helvetica,sans-Serif" font-size="10.00">yaclib/log.hpp</text>
</a>
</g>
</g>
<!-- Node4&#45;&gt;Node5 -->
<g id="edge4" class="edge">
<title>Node4&#45;&gt;Node5</title>
<path fill="none" stroke="midnightblue" d="M453.09,-184.75C465.49,-169.62 487.25,-137.72 475.34,-112 469.42,-99.21 457.87,-88.72 447.07,-81.1"/>
<polygon fill="midnightblue" stroke="midnightblue" points="448.96,-78.16 438.68,-75.61 445.13,-84.02 448.96,-78.16"/>
</g>
<!-- Node7 -->
<g id="node7" class="node">
<title>Node7</title>
<g id="a_node7"><a xlink:href="node_8hpp.html" target="_top" xlink:title=" ">
<polygon fill="none" stroke="black" points="542.84,-112.5 542.84,-142.5 625.84,-142.5 625.84,-112.5 542.84,-112.5"/>
<text text-anchor="start" x="550.84" y="-130.5" font-family="Helvetica,sans-Serif" font-size="10.00">yaclib/util/detail</text>
<text text-anchor="middle" x="584.34" y="-119.5" font-family="Helvetica,sans-Serif" font-size="10.00">/node.hpp</text>
</a>
</g>
</g>
<!-- Node4&#45;&gt;Node7 -->
<g id="edge6" class="edge">
<title>Node4&#45;&gt;Node7</title>
<path fill="none" stroke="midnightblue" d="M463.8,-184.87C484.48,-175.2 518.59,-159.25 545.26,-146.78"/>
<polygon fill="midnightblue" stroke="midnightblue" points="546.77,-149.93 554.34,-142.53 543.8,-143.59 546.77,-149.93"/>
</g>
<!-- Node8 -->
<g id="node8" class="node">
<title>Node8</title>
<g id="a_node8"><a xlink:href="func_8hpp.html" target="_top" xlink:title=" ">
<polygon fill="none" stroke="black" points="198.84,-118 198.84,-137 295.84,-137 295.84,-118 198.84,-118"/>
<text text-anchor="middle" x="247.34" y="-125" font-family="Helvetica,sans-Serif" font-size="10.00">yaclib/util/func.hpp</text>
</a>
</g>
</g>
<!-- Node4&#45;&gt;Node8 -->
<g id="edge7" class="edge">
<title>Node4&#45;&gt;Node8</title>
<path fill="none" stroke="midnightblue" d="M419.05,-184.87C384.12,-173.4 322.26,-153.09 283.11,-140.24"/>
<polygon fill="midnightblue" stroke="midnightblue" points="284.02,-136.86 273.43,-137.06 281.84,-143.51 284.02,-136.86"/>
</g>
<!-- Node6 -->
<g id="node6" class="node">
<title>Node6</title>
<g id="a_node6"><a xlink:title=" ">
<polygon fill="none" stroke="#bfbfbf" points="389.34,-0.5 389.34,-19.5 455.34,-19.5 455.34,-0.5 389.34,-0.5"/>
<text text-anchor="middle" x="422.34" y="-7.5" font-family="Helvetica,sans-Serif" font-size="10.00">string_view</text>
</a>
</g>
</g>
<!-- Node5&#45;&gt;Node6 -->
<g id="edge5" class="edge">
<title>Node5&#45;&gt;Node6</title>
<path fill="none" stroke="midnightblue" d="M422.34,-56.08C422.34,-49.01 422.34,-38.86 422.34,-29.99"/>
<polygon fill="midnightblue" stroke="midnightblue" points="425.84,-29.75 422.34,-19.75 418.84,-29.75 425.84,-29.75"/>
</g>
<!-- Node9 -->
<g id="node9" class="node">
<title>Node9</title>
<g id="a_node9"><a xlink:href="ref_8hpp.html" target="_top" xlink:title=" ">
<polygon fill="none" stroke="black" points="266.84,-56.5 266.84,-75.5 355.84,-75.5 355.84,-56.5 266.84,-56.5"/>
<text text-anchor="middle" x="311.34" y="-63.5" font-family="Helvetica,sans-Serif" font-size="10.00">yaclib/util/ref.hpp</text>
</a>
</g>
</g>
<!-- Node8&#45;&gt;Node9 -->
<g id="edge8" class="edge">
<title>Node8&#45;&gt;Node9</title>
<path fill="none" stroke="midnightblue" d="M256.51,-117.98C266.49,-108.7 282.66,-93.67 294.85,-82.33"/>
<polygon fill="midnightblue" stroke="midnightblue" points="297.25,-84.88 302.19,-75.51 292.48,-79.75 297.25,-84.88"/>
</g>
<!-- Node10 -->
<g id="node10" class="node">
<title>Node10</title>
<g id="a_node10"><a xlink:title=" ">
<polygon fill="none" stroke="#bfbfbf" points="168.34,-56.5 168.34,-75.5 230.34,-75.5 230.34,-56.5 168.34,-56.5"/>
<text text-anchor="middle" x="199.34" y="-63.5" font-family="Helvetica,sans-Serif" font-size="10.00">type_traits</text>
</a>
</g>
</g>
<!-- Node8&#45;&gt;Node10 -->
<g id="edge9" class="edge">
<title>Node8&#45;&gt;Node10</title>
<path fill="none" stroke="midnightblue" d="M240.47,-117.98C233.19,-108.96 221.55,-94.52 212.5,-83.31"/>
<polygon fill="midnightblue" stroke="midnightblue" points="215.21,-81.09 206.21,-75.51 209.76,-85.49 215.21,-81.09"/>
</g>
<!-- Node8&#45;&gt;Node11 -->
<g id="edge10" class="edge">
<title>Node8&#45;&gt;Node11</title>
<path fill="none" stroke="midnightblue" d="M212.52,-117.95C175.56,-108.77 115.25,-93.45 53.83,-76.04"/>
<polygon fill="midnightblue" stroke="midnightblue" points="54.54,-72.6 43.96,-73.22 52.62,-79.33 54.54,-72.6"/>
</g>
<!-- Node12&#45;&gt;Node10 -->
<g id="edge13" class="edge">
<title>Node12&#45;&gt;Node10</title>
<path fill="none" stroke="midnightblue" d="M123.8,-112.4C139.67,-102.86 160.53,-90.32 176.31,-80.84"/>
<polygon fill="midnightblue" stroke="midnightblue" points="178.17,-83.81 184.94,-75.66 174.56,-77.81 178.17,-83.81"/>
</g>
<!-- Node12&#45;&gt;Node11 -->
<g id="edge14" class="edge">
<title>Node12&#45;&gt;Node11</title>
<path fill="none" stroke="midnightblue" d="M82.33,-112.4C70.61,-103.22 55.33,-91.26 43.4,-81.92"/>
<polygon fill="midnightblue" stroke="midnightblue" points="45.43,-79.07 35.4,-75.66 41.12,-84.58 45.43,-79.07"/>
</g>
<!-- Node13 -->
<g id="node13" class="node">
<title>Node13</title>
<g id="a_node13"><a xlink:title=" ">
<polygon fill="none" stroke="#bfbfbf" points="62.34,-56.5 62.34,-75.5 150.34,-75.5 150.34,-56.5 62.34,-56.5"/>
<text text-anchor="middle" x="106.34" y="-63.5" font-family="Helvetica,sans-Serif" font-size="10.00">yaclib/config.hpp</text>
</a>
</g>
</g>
<!-- Node12&#45;&gt;Node13 -->
<g id="edge12" class="edge">
<title>Node12&#45;&gt;Node13</title>
<path fill="none" stroke="midnightblue" d="M101.76,-112.4C102.56,-104.47 103.57,-94.46 104.44,-85.86"/>
<polygon fill="midnightblue" stroke="midnightblue" points="107.95,-85.96 105.47,-75.66 100.98,-85.26 107.95,-85.96"/>
</g>
<!-- Node14&#45;&gt;Node4 -->
<g id="edge17" class="edge">
<title>Node14&#45;&gt;Node4</title>
<path fill="none" stroke="midnightblue" d="M284.04,-251.87C316.65,-240.47 374.23,-220.35 411.04,-207.49"/>
<polygon fill="midnightblue" stroke="midnightblue" points="412.55,-210.67 420.84,-204.06 410.24,-204.06 412.55,-210.67"/>
</g>
<!-- Node14&#45;&gt;Node15 -->
<g id="edge18" class="edge">
<title>Node14&#45;&gt;Node15</title>
<path fill="none" stroke="midnightblue" d="M259.34,-251.73C259.34,-243.54 259.34,-230.92 259.34,-219.71"/>
<polygon fill="midnightblue" stroke="midnightblue" points="262.84,-219.59 259.34,-209.59 255.84,-219.59 262.84,-219.59"/>
</g>
<!-- Node15&#45;&gt;Node9 -->
<g id="edge19" class="edge">
<title>Node15&#45;&gt;Node9</title>
<path fill="none" stroke="midnightblue" d="M276.44,-179.44C286.4,-170.2 298.17,-157.22 304.34,-143 312.25,-124.81 313.3,-101.91 312.81,-86.03"/>
<polygon fill="midnightblue" stroke="midnightblue" points="316.3,-85.66 312.26,-75.87 309.31,-86.04 316.3,-85.66"/>
</g>
<!-- Node15&#45;&gt;Node10 -->
<g id="edge20" class="edge">
<title>Node15&#45;&gt;Node10</title>
<path fill="none" stroke="midnightblue" d="M228,-179.44C213.43,-171.11 197.53,-159.01 189.34,-143 179.99,-124.73 185.54,-100.89 191.42,-84.82"/>
<polygon fill="midnightblue" stroke="midnightblue" points="194.68,-86.11 195.19,-75.52 188.19,-83.48 194.68,-86.11"/>
</g>
<!-- Node16 -->
<g id="node16" class="node">
<title>Node16</title>
<g id="a_node16"><a xlink:href="intrusive__ptr__impl_8hpp.html" target="_top" xlink:title=" ">
<polygon fill="none" stroke="black" points="352.34,-112.5 352.34,-142.5 466.34,-142.5 466.34,-112.5 352.34,-112.5"/>
<text text-anchor="start" x="360.34" y="-130.5" font-family="Helvetica,sans-Serif" font-size="10.00">yaclib/util/detail</text>
<text text-anchor="middle" x="409.34" y="-119.5" font-family="Helvetica,sans-Serif" font-size="10.00">/intrusive_ptr_impl.hpp</text>
</a>
</g>
</g>
<!-- Node15&#45;&gt;Node16 -->
<g id="edge21" class="edge">
<title>Node15&#45;&gt;Node16</title>
<path fill="none" stroke="midnightblue" d="M291.89,-179.4C314.1,-169.77 343.72,-156.94 367.66,-146.56"/>
<polygon fill="midnightblue" stroke="midnightblue" points="369.07,-149.76 376.86,-142.58 366.29,-143.34 369.07,-149.76"/>
</g>
<!-- Node16&#45;&gt;Node5 -->
<g id="edge22" class="edge">
<title>Node16&#45;&gt;Node5</title>
<path fill="none" stroke="midnightblue" d="M412.42,-112.4C414.18,-104.38 416.39,-94.23 418.29,-85.57"/>
<polygon fill="midnightblue" stroke="midnightblue" points="421.74,-86.17 420.45,-75.66 414.9,-84.68 421.74,-86.17"/>
</g>
<!-- Node17&#45;&gt;Node4 -->
<g id="edge26" class="edge">
<title>Node17&#45;&gt;Node4</title>
<path fill="none" stroke="midnightblue" d="M533.4,-313.22C542.99,-296.09 555.12,-267.06 542.34,-246 531.05,-227.39 510.42,-215.32 491.08,-207.67"/>
<polygon fill="midnightblue" stroke="midnightblue" points="492.04,-204.29 481.44,-204.16 489.64,-210.87 492.04,-204.29"/>
</g>
<!-- Node17&#45;&gt;Node14 -->
<g id="edge25" class="edge">
<title>Node17&#45;&gt;Node14</title>
<path fill="none" stroke="midnightblue" d="M477.58,-316.03C428.61,-304.02 352.26,-285.29 304.07,-273.47"/>
<polygon fill="midnightblue" stroke="midnightblue" points="304.78,-270.04 294.24,-271.06 303.11,-276.84 304.78,-270.04"/>
</g>
<!-- Node18 -->
<g id="node18" class="node">
<title>Node18</title>
<g id="a_node18"><a xlink:href="intrusive__list_8hpp.html" target="_top" xlink:title=" ">
<polygon fill="none" stroke="black" points="548.34,-179.5 548.34,-209.5 640.34,-209.5 640.34,-179.5 548.34,-179.5"/>
<text text-anchor="start" x="556.34" y="-197.5" font-family="Helvetica,sans-Serif" font-size="10.00">yaclib/util/detail</text>
<text text-anchor="middle" x="594.34" y="-186.5" font-family="Helvetica,sans-Serif" font-size="10.00">/intrusive_list.hpp</text>
</a>
</g>
</g>
<!-- Node17&#45;&gt;Node18 -->
<g id="edge27" class="edge">
<title>Node17&#45;&gt;Node18</title>
<path fill="none" stroke="midnightblue" d="M543.25,-313.33C554.21,-304.14 567.38,-291.25 575.34,-277 585.23,-259.31 589.98,-236.71 592.26,-219.8"/>
<polygon fill="midnightblue" stroke="midnightblue" points="595.77,-219.95 593.43,-209.61 588.81,-219.15 595.77,-219.95"/>
</g>
<!-- Node19 -->
<g id="node19" class="node">
<title>Node19</title>
<g id="a_node19"><a xlink:title=" ">
<polygon fill="none" stroke="#bfbfbf" points="627.34,-252 627.34,-271 673.34,-271 673.34,-252 627.34,-252"/>
<text text-anchor="middle" x="650.34" y="-259" font-family="Helvetica,sans-Serif" font-size="10.00">cstdint</text>
</a>
</g>
</g>
<!-- Node17&#45;&gt;Node19 -->
<g id="edge29" class="edge">
<title>Node17&#45;&gt;Node19</title>
<path fill="none" stroke="midnightblue" d="M551.68,-313.4C573.4,-302.19 603.55,-286.64 624.78,-275.69"/>
<polygon fill="midnightblue" stroke="midnightblue" points="626.57,-278.7 633.85,-271.01 623.36,-272.48 626.57,-278.7"/>
</g>
<!-- Node20 -->
<g id="node20" class="node">
<title>Node20</title>
<g id="a_node20"><a xlink:title=" ">
<polygon fill="none" stroke="#bfbfbf" points="691.34,-252 691.34,-271 735.34,-271 735.34,-252 691.34,-252"/>
<text text-anchor="middle" x="713.34" y="-259" font-family="Helvetica,sans-Serif" font-size="10.00">vector</text>
</a>
</g>
</g>
<!-- Node17&#45;&gt;Node20 -->
<g id="edge30" class="edge">
<title>Node17&#45;&gt;Node20</title>
<path fill="none" stroke="midnightblue" d="M570.87,-314.34C602.63,-304.94 645.48,-291.45 682.34,-277 683.76,-276.44 685.21,-275.86 686.66,-275.24"/>
<polygon fill="midnightblue" stroke="midnightblue" points="688.42,-278.29 696.13,-271.03 685.58,-271.89 688.42,-278.29"/>
</g>
<!-- Node21 -->
<g id="node21" class="node">
<title>Node21</title>
<g id="a_node21"><a xlink:title=" ">
<polygon fill="none" stroke="#bfbfbf" points="753.34,-246.5 753.34,-276.5 855.34,-276.5 855.34,-246.5 753.34,-246.5"/>
<text text-anchor="start" x="761.34" y="-264.5" font-family="Helvetica,sans-Serif" font-size="10.00">yaclib_std/condition</text>
<text text-anchor="middle" x="804.34" y="-253.5" font-family="Helvetica,sans-Serif" font-size="10.00">_variable</text>
</a>
</g>
</g>
<!-- Node17&#45;&gt;Node21 -->
<g id="edge31" class="edge">
<title>Node17&#45;&gt;Node21</title>
<path fill="none" stroke="midnightblue" d="M571.06,-315.26C574.2,-314.49 577.32,-313.72 580.34,-313 649.8,-296.39 669.92,-293.96 743.11,-277.25"/>
<polygon fill="midnightblue" stroke="midnightblue" points="744.33,-280.56 753.3,-274.91 742.77,-273.74 744.33,-280.56"/>
</g>
<!-- Node22 -->
<g id="node22" class="node">
<title>Node22</title>
<g id="a_node22"><a xlink:title=" ">
<polygon fill="none" stroke="#bfbfbf" points="335.84,-252 335.84,-271 424.84,-271 424.84,-252 335.84,-252"/>
<text text-anchor="middle" x="380.34" y="-259" font-family="Helvetica,sans-Serif" font-size="10.00">yaclib_std/mutex</text>
</a>
</g>
</g>
<!-- Node17&#45;&gt;Node22 -->
<g id="edge32" class="edge">
<title>Node17&#45;&gt;Node22</title>
<path fill="none" stroke="midnightblue" d="M493.1,-313.4C467.94,-302.04 432.89,-286.22 408.58,-275.24"/>
<polygon fill="midnightblue" stroke="midnightblue" points="409.74,-271.93 399.19,-271.01 406.86,-278.31 409.74,-271.93"/>
</g>
<!-- Node23 -->
<g id="node23" class="node">
<title>Node23</title>
<g id="a_node23"><a xlink:title=" ">
<polygon fill="none" stroke="#bfbfbf" points="443.34,-252 443.34,-271 533.34,-271 533.34,-252 443.34,-252"/>
<text text-anchor="middle" x="488.34" y="-259" font-family="Helvetica,sans-Serif" font-size="10.00">yaclib_std/thread</text>
</a>
</g>
</g>
<!-- Node17&#45;&gt;Node23 -->
<g id="edge33" class="edge">
<title>Node17&#45;&gt;Node23</title>
<path fill="none" stroke="midnightblue" d="M516.53,-313.4C511.14,-303.66 503.93,-290.65 498.15,-280.21"/>
<polygon fill="midnightblue" stroke="midnightblue" points="501.07,-278.25 493.16,-271.19 494.94,-281.64 501.07,-278.25"/>
</g>
<!-- Node18&#45;&gt;Node7 -->
<g id="edge28" class="edge">
<title>Node18&#45;&gt;Node7</title>
<path fill="none" stroke="midnightblue" d="M592.17,-179.4C590.97,-171.56 589.43,-161.6 588.05,-152.57"/>
<polygon fill="midnightblue" stroke="midnightblue" points="591.49,-151.93 586.51,-142.58 584.57,-152.99 591.49,-151.93"/>
</g>
</g>
</svg>
