<?xml version="1.0" encoding="UTF-8" standalone="no"?>
<!DOCTYPE svg PUBLIC "-//W3C//DTD SVG 1.1//EN"
 "http://www.w3.org/Graphics/SVG/1.1/DTD/svg11.dtd">
<!-- Generated by graphviz version 3.0.0 (20220413.0242)
 -->
<!-- Title: include/yaclib/util/type_traits.hpp Pages: 1 -->
<svg width="277pt" height="162pt"
 viewBox="0.00 0.00 277.00 162.00" xmlns="http://www.w3.org/2000/svg" xmlns:xlink="http://www.w3.org/1999/xlink">
<g id="graph0" class="graph" transform="scale(1 1) rotate(0) translate(4 158)">
<title>include/yaclib/util/type_traits.hpp</title>
<!-- Node1 -->
<g id="node1" class="node">
<title>Node1</title>
<g id="a_node1"><a xlink:title=" ">
<polygon fill="#bfbfbf" stroke="black" points="96.5,-123.5 96.5,-153.5 187.5,-153.5 187.5,-123.5 96.5,-123.5"/>
<text text-anchor="start" x="104.5" y="-141.5" font-family="Helvetica,sans-Serif" font-size="10.00">include/yaclib/util</text>
<text text-anchor="middle" x="142" y="-130.5" font-family="Helvetica,sans-Serif" font-size="10.00">/type_traits.hpp</text>
</a>
</g>
</g>
<!-- Node2 -->
<g id="node2" class="node">
<title>Node2</title>
<g id="a_node2"><a xlink:href="fwd_8hpp.html" target="_top" xlink:title=" ">
<polygon fill="none" stroke="black" points="0,-0.5 0,-19.5 78,-19.5 78,-0.5 0,-0.5"/>
<text text-anchor="middle" x="39" y="-7.5" font-family="Helvetica,sans-Serif" font-size="10.00">yaclib/fwd.hpp</text>
</a>
</g>
</g>
<!-- Node1&#45;&gt;Node2 -->
<g id="edge1" class="edge">
<title>Node1&#45;&gt;Node2</title>
<path fill="none" stroke="midnightblue" d="M96.4,-126.69C75.45,-119.21 52.53,-106.9 40,-87 29.26,-69.95 30.98,-46.18 34.11,-29.79"/>
<polygon fill="midnightblue" stroke="midnightblue" points="37.58,-30.32 36.38,-19.8 30.76,-28.78 37.58,-30.32"/>
</g>
<!-- Node3 -->
<g id="node3" class="node">
<title>Node3</title>
<g id="a_node3"><a xlink:href="type__traits__impl_8hpp.html" target="_top" xlink:title=" ">
<polygon fill="none" stroke="black" points="49,-56.5 49,-86.5 155,-86.5 155,-56.5 49,-56.5"/>
<text text-anchor="start" x="57" y="-74.5" font-family="Helvetica,sans-Serif" font-size="10.00">yaclib/util/detail</text>
<text text-anchor="middle" x="102" y="-63.5" font-family="Helvetica,sans-Serif" font-size="10.00">/type_traits_impl.hpp</text>
</a>
</g>
</g>
<!-- Node1&#45;&gt;Node3 -->
<g id="edge2" class="edge">
<title>Node1&#45;&gt;Node3</title>
<path fill="none" stroke="midnightblue" d="M133.32,-123.4C128.24,-115.13 121.7,-104.51 115.91,-95.1"/>
<polygon fill="midnightblue" stroke="midnightblue" points="118.88,-93.26 110.66,-86.58 112.92,-96.93 118.88,-93.26"/>
</g>
<!-- Node4 -->
<g id="node4" class="node">
<title>Node4</title>
<g id="a_node4"><a xlink:title=" ">
<polygon fill="none" stroke="#bfbfbf" points="133,-0.5 133,-19.5 195,-19.5 195,-0.5 133,-0.5"/>
<text text-anchor="middle" x="164" y="-7.5" font-family="Helvetica,sans-Serif" font-size="10.00">type_traits</text>
</a>
</g>
</g>
<!-- Node1&#45;&gt;Node4 -->
<g id="edge6" class="edge">
<title>Node1&#45;&gt;Node4</title>
<path fill="none" stroke="midnightblue" d="M150,-123.44C155.13,-113.59 161.31,-99.92 164,-87 167.99,-67.85 167.36,-45.4 166.12,-29.89"/>
<polygon fill="midnightblue" stroke="midnightblue" points="169.57,-29.17 165.12,-19.55 162.6,-29.84 169.57,-29.17"/>
</g>
<!-- Node5 -->
<g id="node5" class="node">
<title>Node5</title>
<g id="a_node5"><a xlink:title=" ">
<polygon fill="none" stroke="#bfbfbf" points="211,-62 211,-81 269,-81 269,-62 211,-62"/>
<text text-anchor="middle" x="240" y="-69" font-family="Helvetica,sans-Serif" font-size="10.00">exception</text>
</a>
</g>
</g>
<!-- Node1&#45;&gt;Node5 -->
<g id="edge5" class="edge">
<title>Node1&#45;&gt;Node5</title>
<path fill="none" stroke="midnightblue" d="M163.26,-123.4C179.7,-112.5 202.34,-97.48 218.77,-86.58"/>
<polygon fill="midnightblue" stroke="midnightblue" points="220.78,-89.45 227.17,-81.01 216.91,-83.62 220.78,-89.45"/>
</g>
<!-- Node3&#45;&gt;Node2 -->
<g id="edge3" class="edge">
<title>Node3&#45;&gt;Node2</title>
<path fill="none" stroke="midnightblue" d="M87.07,-56.4C77.63,-47.49 65.42,-35.95 55.67,-26.74"/>
<polygon fill="midnightblue" stroke="midnightblue" points="57.84,-23.98 48.17,-19.66 53.03,-29.07 57.84,-23.98"/>
</g>
<!-- Node3&#45;&gt;Node4 -->
<g id="edge4" class="edge">
<title>Node3&#45;&gt;Node4</title>
<path fill="none" stroke="midnightblue" d="M116.69,-56.4C125.98,-47.49 138,-35.95 147.6,-26.74"/>
<polygon fill="midnightblue" stroke="midnightblue" points="150.19,-29.11 154.98,-19.66 145.34,-24.06 150.19,-29.11"/>
</g>
</g>
</svg>
