<?xml version="1.0" encoding="UTF-8" standalone="no"?>
<!DOCTYPE svg PUBLIC "-//W3C//DTD SVG 1.1//EN"
 "http://www.w3.org/Graphics/SVG/1.1/DTD/svg11.dtd">
<!-- Generated by graphviz version 3.0.0 (20221109.1736)
 -->
<!-- Title: include/yaclib/util/type_traits.hpp Pages: 1 -->
<svg width="316pt" height="162pt"
 viewBox="0.00 0.00 315.50 162.00" xmlns="http://www.w3.org/2000/svg" xmlns:xlink="http://www.w3.org/1999/xlink">
<g id="graph0" class="graph" transform="scale(1 1) rotate(0) translate(4 158)">
<title>include/yaclib/util/type_traits.hpp</title>
<!-- Node1 -->
<g id="node1" class="node">
<title>Node1</title>
<g id="a_node1"><a xlink:title=" ">
<polygon fill="#bfbfbf" stroke="black" points="118.5,-123.5 118.5,-153.5 209.5,-153.5 209.5,-123.5 118.5,-123.5"/>
<text text-anchor="start" x="126.5" y="-141.5" font-family="Helvetica,sans-Serif" font-size="10.00">include/yaclib/util</text>
<text text-anchor="middle" x="164" y="-130.5" font-family="Helvetica,sans-Serif" font-size="10.00">/type_traits.hpp</text>
</a>
</g>
</g>
<!-- Node2 -->
<g id="node2" class="node">
<title>Node2</title>
<g id="a_node2"><a xlink:href="fwd_8hpp.html" target="_top" xlink:title=" ">
<polygon fill="none" stroke="black" points="0,-0.5 0,-19.5 78,-19.5 78,-0.5 0,-0.5"/>
<text text-anchor="middle" x="39" y="-7.5" font-family="Helvetica,sans-Serif" font-size="10.00">yaclib/fwd.hpp</text>
</a>
</g>
</g>
<!-- Node1&#45;&gt;Node2 -->
<g id="edge1" class="edge">
<title>Node1&#45;&gt;Node2</title>
<path fill="none" stroke="midnightblue" d="M118.41,-134.73C85.4,-130.06 42.9,-117.95 21,-87 8.69,-69.6 18.28,-44.92 27.52,-28.46"/>
<polygon fill="midnightblue" stroke="midnightblue" points="30.56,-30.2 32.75,-19.83 24.57,-26.57 30.56,-30.2"/>
</g>
<!-- Node3 -->
<g id="node3" class="node">
<title>Node3</title>
<g id="a_node3"><a xlink:href="type__traits__impl_8hpp.html" target="_top" xlink:title=" ">
<polygon fill="none" stroke="black" points="30,-56.5 30,-86.5 136,-86.5 136,-56.5 30,-56.5"/>
<text text-anchor="start" x="38" y="-74.5" font-family="Helvetica,sans-Serif" font-size="10.00">yaclib/util/detail</text>
<text text-anchor="middle" x="83" y="-63.5" font-family="Helvetica,sans-Serif" font-size="10.00">/type_traits_impl.hpp</text>
</a>
</g>
</g>
<!-- Node1&#45;&gt;Node3 -->
<g id="edge2" class="edge">
<title>Node1&#45;&gt;Node3</title>
<path fill="none" stroke="midnightblue" d="M146.42,-123.4C135.39,-114.54 120.96,-102.96 108.65,-93.09"/>
<polygon fill="midnightblue" stroke="midnightblue" points="110.53,-90.11 100.54,-86.58 106.15,-95.56 110.53,-90.11"/>
</g>
<!-- Node4 -->
<g id="node4" class="node">
<title>Node4</title>
<g id="a_node4"><a xlink:title=" ">
<polygon fill="none" stroke="#bfbfbf" points="114,-0.5 114,-19.5 176,-19.5 176,-0.5 114,-0.5"/>
<text text-anchor="middle" x="145" y="-7.5" font-family="Helvetica,sans-Serif" font-size="10.00">type_traits</text>
</a>
</g>
</g>
<!-- Node1&#45;&gt;Node4 -->
<g id="edge6" class="edge">
<title>Node1&#45;&gt;Node4</title>
<path fill="none" stroke="midnightblue" d="M161.89,-123.48C158.46,-100.62 151.65,-55.3 147.81,-29.71"/>
<polygon fill="midnightblue" stroke="midnightblue" points="151.27,-29.16 146.32,-19.79 144.34,-30.2 151.27,-29.16"/>
</g>
<!-- Node5 -->
<g id="node5" class="node">
<title>Node5</title>
<g id="a_node5"><a xlink:title=" ">
<polygon fill="none" stroke="#bfbfbf" points="192,-62 192,-81 250,-81 250,-62 192,-62"/>
<text text-anchor="middle" x="221" y="-69" font-family="Helvetica,sans-Serif" font-size="10.00">exception</text>
</a>
</g>
</g>
<!-- Node1&#45;&gt;Node5 -->
<g id="edge5" class="edge">
<title>Node1&#45;&gt;Node5</title>
<path fill="none" stroke="midnightblue" d="M176.37,-123.4C185.26,-113.26 197.26,-99.57 206.59,-88.94"/>
<polygon fill="midnightblue" stroke="midnightblue" points="209.41,-91.02 213.38,-81.19 204.15,-86.41 209.41,-91.02"/>
</g>
<!-- Node6 -->
<g id="node6" class="node">
<title>Node6</title>
<g id="a_node6"><a xlink:title=" ">
<polygon fill="none" stroke="#bfbfbf" points="268.5,-62 268.5,-81 307.5,-81 307.5,-62 268.5,-62"/>
<text text-anchor="middle" x="288" y="-69" font-family="Helvetica,sans-Serif" font-size="10.00">utility</text>
</a>
</g>
</g>
<!-- Node1&#45;&gt;Node6 -->
<g id="edge7" class="edge">
<title>Node1&#45;&gt;Node6</title>
<path fill="none" stroke="midnightblue" d="M190.91,-123.4C212.28,-112.19 241.95,-96.64 262.85,-85.69"/>
<polygon fill="midnightblue" stroke="midnightblue" points="264.54,-88.75 271.77,-81.01 261.29,-82.55 264.54,-88.75"/>
</g>
<!-- Node3&#45;&gt;Node2 -->
<g id="edge3" class="edge">
<title>Node3&#45;&gt;Node2</title>
<path fill="none" stroke="midnightblue" d="M72.57,-56.4C66.24,-47.84 58.13,-36.87 51.47,-27.86"/>
<polygon fill="midnightblue" stroke="midnightblue" points="54.16,-25.62 45.4,-19.66 48.53,-29.78 54.16,-25.62"/>
</g>
<!-- Node3&#45;&gt;Node4 -->
<g id="edge4" class="edge">
<title>Node3&#45;&gt;Node4</title>
<path fill="none" stroke="midnightblue" d="M97.69,-56.4C106.98,-47.49 119,-35.95 128.6,-26.74"/>
<polygon fill="midnightblue" stroke="midnightblue" points="131.19,-29.11 135.98,-19.66 126.34,-24.06 131.19,-29.11"/>
</g>
</g>
</svg>
