<?xml version="1.0" encoding="UTF-8" standalone="no"?>
<!DOCTYPE svg PUBLIC "-//W3C//DTD SVG 1.1//EN"
 "http://www.w3.org/Graphics/SVG/1.1/DTD/svg11.dtd">
<!-- Generated by graphviz version 3.0.0 (20220413.0242)
 -->
<!-- Title: include/yaclib/util/detail/unique_counter.hpp Pages: 1 -->
<!--zoomable 441 -->
<svg id="main" version="1.1" xmlns="http://www.w3.org/2000/svg" xmlns:xlink="http://www.w3.org/1999/xlink" xml:space="preserve" onload="init(evt)">
<style type="text/css"><![CDATA[
.edge:hover path { stroke: red; }
.edge:hover polygon { stroke: red; fill: red; }
]]></style>
<script type="text/javascript"><![CDATA[
var edges = document.getElementsByTagName('g');
if (edges && edges.length) {
  for (var i=0;i<edges.length;i++) {
    if (edges[i].id.substr(0,4)=='edge') {
      edges[i].setAttribute('class','edge');
    }
  }
}
]]></script>
        <defs>
                <circle id="rim" cx="0" cy="0" r="7"/>
                <circle id="rim2" cx="0" cy="0" r="3.5"/>
                <g id="zoomPlus">
                        <use xlink:href="#rim" fill="#404040">
                                <set attributeName="fill" to="#808080" begin="zoomplus.mouseover" end="zoomplus.mouseout"/>
                        </use>
                        <path d="M-4,0h8M0,-4v8" fill="none" stroke="white" stroke-width="1.5" pointer-events="none"/>
                </g>
                <g id="zoomMin">
                        <use xlink:href="#rim" fill="#404040">
                                <set attributeName="fill" to="#808080" begin="zoomminus.mouseover" end="zoomminus.mouseout"/>
                        </use>
                        <path d="M-4,0h8" fill="none" stroke="white" stroke-width="1.5" pointer-events="none"/>
                </g>
                <g id="dirArrow">
                        <path fill="none" stroke="white" stroke-width="1.5" d="M0,-3.0v7 M-2.5,-0.5L0,-3.0L2.5,-0.5"/>
                </g>
               <g id="resetDef">
                       <use xlink:href="#rim2" fill="#404040">
                               <set attributeName="fill" to="#808080" begin="reset.mouseover" end="reset.mouseout"/>
                       </use>
               </g>
        </defs>

<script type="text/javascript">
var viewWidth = 2171;
var viewHeight = 441;
var sectionId = 'dynsection-1';
</script>
<script xlink:href="svgpan.js"/>
<svg id="graph" class="graph">
<g id="viewport">
<title>include/yaclib/util/detail/unique_counter.hpp</title>
<!-- Node1 -->
<g id="node1" class="node">
<title>Node1</title>
<g id="a_node1"><a xlink:title=" ">
<polygon fill="#bfbfbf" stroke="black" points="797.62,-402.5 797.62,-432.5 927.62,-432.5 927.62,-402.5 797.62,-402.5"/>
<text text-anchor="start" x="805.62" y="-420.5" font-family="Helvetica,sans-Serif" font-size="10.00">include/yaclib/util</text>
<text text-anchor="middle" x="862.62" y="-409.5" font-family="Helvetica,sans-Serif" font-size="10.00">/detail/unique_counter.hpp</text>
</a>
</g>
</g>
<!-- Node2 -->
<g id="node2" class="node">
<title>Node2</title>
<g id="a_node2"><a xlink:href="when__all__impl_8hpp.html" target="_top" xlink:title=" ">
<polygon fill="none" stroke="black" points="26.12,-335.5 26.12,-365.5 151.12,-365.5 151.12,-335.5 26.12,-335.5"/>
<text text-anchor="start" x="34.12" y="-353.5" font-family="Helvetica,sans-Serif" font-size="10.00">include/yaclib/algo</text>
<text text-anchor="middle" x="88.62" y="-342.5" font-family="Helvetica,sans-Serif" font-size="10.00">/detail/when_all_impl.hpp</text>
</a>
</g>
</g>
<!-- Node1&#45;&gt;Node2 -->
<g id="edge1" class="edge">
<title>Node1&#45;&gt;Node2</title>
<path fill="none" stroke="midnightblue" d="M787.09,-410.16C634.59,-397.35 292.46,-368.62 151.33,-356.77"/>
<polygon fill="midnightblue" stroke="midnightblue" points="787.03,-413.66 797.29,-411.01 787.62,-406.69 787.03,-413.66"/>
</g>
<!-- Node5 -->
<g id="node5" class="node">
<title>Node5</title>
<g id="a_node5"><a xlink:href="when__any__impl_8hpp.html" target="_top" xlink:title=" ">
<polygon fill="none" stroke="black" points="497.12,-335.5 497.12,-365.5 628.12,-365.5 628.12,-335.5 497.12,-335.5"/>
<text text-anchor="start" x="505.12" y="-353.5" font-family="Helvetica,sans-Serif" font-size="10.00">include/yaclib/algo</text>
<text text-anchor="middle" x="562.62" y="-342.5" font-family="Helvetica,sans-Serif" font-size="10.00">/detail/when_any_impl.hpp</text>
</a>
</g>
</g>
<!-- Node1&#45;&gt;Node5 -->
<g id="edge4" class="edge">
<title>Node1&#45;&gt;Node5</title>
<path fill="none" stroke="midnightblue" d="M787.92,-400.32C738.61,-389.63 674.65,-375.77 627.48,-365.55"/>
<polygon fill="midnightblue" stroke="midnightblue" points="787.38,-403.78 797.89,-402.48 788.86,-396.94 787.38,-403.78"/>
</g>
<!-- Node8 -->
<g id="node8" class="node">
<title>Node8</title>
<g id="a_node8"><a xlink:href="core_8hpp.html" target="_top" xlink:title=" ">
<polygon fill="none" stroke="black" points="810.62,-335.5 810.62,-365.5 914.62,-365.5 914.62,-335.5 810.62,-335.5"/>
<text text-anchor="start" x="818.62" y="-353.5" font-family="Helvetica,sans-Serif" font-size="10.00">include/yaclib/async</text>
<text text-anchor="middle" x="862.62" y="-342.5" font-family="Helvetica,sans-Serif" font-size="10.00">/detail/core.hpp</text>
</a>
</g>
</g>
<!-- Node1&#45;&gt;Node8 -->
<g id="edge7" class="edge">
<title>Node1&#45;&gt;Node8</title>
<path fill="none" stroke="midnightblue" d="M862.62,-392.11C862.62,-383.15 862.62,-373.32 862.62,-365.58"/>
<polygon fill="midnightblue" stroke="midnightblue" points="859.12,-392.4 862.62,-402.4 866.12,-392.4 859.12,-392.4"/>
</g>
<!-- Node25 -->
<g id="node25" class="node">
<title>Node25</title>
<g id="a_node25"><a xlink:href="promise__type_8hpp.html" target="_top" xlink:title=" ">
<polygon fill="none" stroke="black" points="1418.62,-201.5 1418.62,-231.5 1540.62,-231.5 1540.62,-201.5 1418.62,-201.5"/>
<text text-anchor="start" x="1426.62" y="-219.5" font-family="Helvetica,sans-Serif" font-size="10.00">include/yaclib/coroutine</text>
<text text-anchor="middle" x="1479.62" y="-208.5" font-family="Helvetica,sans-Serif" font-size="10.00">/detail/promise_type.hpp</text>
</a>
</g>
</g>
<!-- Node1&#45;&gt;Node25 -->
<g id="edge35" class="edge">
<title>Node1&#45;&gt;Node25</title>
<path fill="none" stroke="midnightblue" d="M916.23,-399.21C1036.47,-360.43 1325.74,-267.13 1435.96,-231.58"/>
<polygon fill="midnightblue" stroke="midnightblue" points="914.94,-395.95 906.49,-402.35 917.09,-402.61 914.94,-395.95"/>
</g>
<!-- Node31 -->
<g id="node31" class="node">
<title>Node31</title>
<g id="a_node31"><a xlink:href="helper_8hpp.html" target="_top" xlink:title=" ">
<polygon fill="none" stroke="black" points="1725.12,-335.5 1725.12,-365.5 1816.12,-365.5 1816.12,-335.5 1725.12,-335.5"/>
<text text-anchor="start" x="1733.12" y="-353.5" font-family="Helvetica,sans-Serif" font-size="10.00">include/yaclib/util</text>
<text text-anchor="middle" x="1770.62" y="-342.5" font-family="Helvetica,sans-Serif" font-size="10.00">/helper.hpp</text>
</a>
</g>
</g>
<!-- Node1&#45;&gt;Node31 -->
<g id="edge42" class="edge">
<title>Node1&#45;&gt;Node31</title>
<path fill="none" stroke="midnightblue" d="M937.93,-411.11C1119.83,-398.09 1578.87,-365.23 1725.11,-354.76"/>
<polygon fill="midnightblue" stroke="midnightblue" points="937.64,-407.62 927.92,-411.83 938.14,-414.6 937.64,-407.62"/>
</g>
<!-- Node3 -->
<g id="node3" class="node">
<title>Node3</title>
<g id="a_node3"><a xlink:href="when__all_8hpp.html" target="_top" xlink:title=" ">
<polygon fill="none" stroke="black" points="159.62,-67.5 159.62,-97.5 255.62,-97.5 255.62,-67.5 159.62,-67.5"/>
<text text-anchor="start" x="167.62" y="-85.5" font-family="Helvetica,sans-Serif" font-size="10.00">include/yaclib/algo</text>
<text text-anchor="middle" x="207.62" y="-74.5" font-family="Helvetica,sans-Serif" font-size="10.00">/when_all.hpp</text>
</a>
</g>
</g>
<!-- Node2&#45;&gt;Node3 -->
<g id="edge2" class="edge">
<title>Node2&#45;&gt;Node3</title>
<path fill="none" stroke="midnightblue" d="M54.9,-329.51C44.49,-321.46 34.28,-311.18 28.62,-299 -2.33,-232.51 -15.64,-192.47 28.62,-134 44.4,-113.15 111.89,-98.46 159.32,-90.49"/>
<polygon fill="midnightblue" stroke="midnightblue" points="53.04,-332.49 63.2,-335.48 57.12,-326.81 53.04,-332.49"/>
</g>
<!-- Node4 -->
<g id="node4" class="node">
<title>Node4</title>
<g id="a_node4"><a xlink:href="when__all_8cpp.html" target="_top" xlink:title=" ">
<polygon fill="none" stroke="black" points="837.12,-0.5 837.12,-30.5 938.12,-30.5 938.12,-0.5 837.12,-0.5"/>
<text text-anchor="start" x="845.12" y="-18.5" font-family="Helvetica,sans-Serif" font-size="10.00">test/example/async</text>
<text text-anchor="middle" x="887.62" y="-7.5" font-family="Helvetica,sans-Serif" font-size="10.00">/when_all.cpp</text>
</a>
</g>
</g>
<!-- Node3&#45;&gt;Node4 -->
<g id="edge3" class="edge">
<title>Node3&#45;&gt;Node4</title>
<path fill="none" stroke="midnightblue" d="M265.81,-70.66C274.12,-69.31 282.57,-68.04 290.62,-67 492.03,-40.94 733.49,-25.26 836.74,-19.28"/>
<polygon fill="midnightblue" stroke="midnightblue" points="265.07,-67.24 255.78,-72.34 266.22,-74.14 265.07,-67.24"/>
</g>
<!-- Node6 -->
<g id="node6" class="node">
<title>Node6</title>
<g id="a_node6"><a xlink:href="when__any_8hpp.html" target="_top" xlink:title=" ">
<polygon fill="none" stroke="black" points="299.62,-67.5 299.62,-97.5 395.62,-97.5 395.62,-67.5 299.62,-67.5"/>
<text text-anchor="start" x="307.62" y="-85.5" font-family="Helvetica,sans-Serif" font-size="10.00">include/yaclib/algo</text>
<text text-anchor="middle" x="347.62" y="-74.5" font-family="Helvetica,sans-Serif" font-size="10.00">/when_any.hpp</text>
</a>
</g>
</g>
<!-- Node5&#45;&gt;Node6 -->
<g id="edge5" class="edge">
<title>Node5&#45;&gt;Node6</title>
<path fill="none" stroke="midnightblue" d="M486.81,-346.95C372.34,-338.53 158.5,-303.93 61.62,-165 53.73,-153.7 52.76,-144.56 61.62,-134 61.86,-133.71 218.04,-106.25 299.47,-91.95"/>
<polygon fill="midnightblue" stroke="midnightblue" points="486.68,-350.45 496.89,-347.65 487.16,-343.47 486.68,-350.45"/>
</g>
<!-- Node7 -->
<g id="node7" class="node">
<title>Node7</title>
<g id="a_node7"><a xlink:href="when__any_8cpp.html" target="_top" xlink:title=" ">
<polygon fill="none" stroke="black" points="956.12,-0.5 956.12,-30.5 1057.12,-30.5 1057.12,-0.5 956.12,-0.5"/>
<text text-anchor="start" x="964.12" y="-18.5" font-family="Helvetica,sans-Serif" font-size="10.00">test/example/async</text>
<text text-anchor="middle" x="1006.62" y="-7.5" font-family="Helvetica,sans-Serif" font-size="10.00">/when_any.cpp</text>
</a>
</g>
</g>
<!-- Node6&#45;&gt;Node7 -->
<g id="edge6" class="edge">
<title>Node6&#45;&gt;Node7</title>
<path fill="none" stroke="midnightblue" d="M405.81,-74.81C429.34,-72.21 456.75,-69.31 481.62,-67 688.01,-47.85 741.89,-63.45 946.62,-31 949.69,-30.51 952.83,-29.95 955.99,-29.34"/>
<polygon fill="midnightblue" stroke="midnightblue" points="405.2,-71.36 395.65,-75.94 405.97,-78.32 405.2,-71.36"/>
</g>
<!-- Node9 -->
<g id="node9" class="node">
<title>Node9</title>
<g id="a_node9"><a xlink:href="future__impl_8hpp.html" target="_top" xlink:title=" ">
<polygon fill="none" stroke="black" points="745.62,-268.5 745.62,-298.5 857.62,-298.5 857.62,-268.5 745.62,-268.5"/>
<text text-anchor="start" x="753.62" y="-286.5" font-family="Helvetica,sans-Serif" font-size="10.00">include/yaclib/async</text>
<text text-anchor="middle" x="801.62" y="-275.5" font-family="Helvetica,sans-Serif" font-size="10.00">/detail/future_impl.hpp</text>
</a>
</g>
</g>
<!-- Node8&#45;&gt;Node9 -->
<g id="edge8" class="edge">
<title>Node8&#45;&gt;Node9</title>
<path fill="none" stroke="midnightblue" d="M842.46,-328.02C833.37,-318.34 822.89,-307.17 814.83,-298.58"/>
<polygon fill="midnightblue" stroke="midnightblue" points="839.98,-330.5 849.38,-335.4 845.09,-325.71 839.98,-330.5"/>
</g>
<!-- Node19 -->
<g id="node19" class="node">
<title>Node19</title>
<g id="a_node19"><a xlink:href="run_8hpp.html" target="_top" xlink:title=" ">
<polygon fill="none" stroke="black" points="890.62,-134.5 890.62,-164.5 994.62,-164.5 994.62,-134.5 890.62,-134.5"/>
<text text-anchor="start" x="898.62" y="-152.5" font-family="Helvetica,sans-Serif" font-size="10.00">include/yaclib/async</text>
<text text-anchor="middle" x="942.62" y="-141.5" font-family="Helvetica,sans-Serif" font-size="10.00">/run.hpp</text>
</a>
</g>
</g>
<!-- Node8&#45;&gt;Node19 -->
<g id="edge34" class="edge">
<title>Node8&#45;&gt;Node19</title>
<path fill="none" stroke="midnightblue" d="M872.14,-325.8C888.94,-284.01 923.33,-198.47 936.91,-164.68"/>
<polygon fill="midnightblue" stroke="midnightblue" points="868.85,-324.6 868.37,-335.19 875.35,-327.22 868.85,-324.6"/>
</g>
<!-- Node10 -->
<g id="node10" class="node">
<title>Node10</title>
<g id="a_node10"><a xlink:href="future_8hpp.html" target="_top" xlink:title=" ">
<polygon fill="none" stroke="black" points="749.62,-201.5 749.62,-231.5 853.62,-231.5 853.62,-201.5 749.62,-201.5"/>
<text text-anchor="start" x="757.62" y="-219.5" font-family="Helvetica,sans-Serif" font-size="10.00">include/yaclib/async</text>
<text text-anchor="middle" x="801.62" y="-208.5" font-family="Helvetica,sans-Serif" font-size="10.00">/future.hpp</text>
</a>
</g>
</g>
<!-- Node9&#45;&gt;Node10 -->
<g id="edge9" class="edge">
<title>Node9&#45;&gt;Node10</title>
<path fill="none" stroke="midnightblue" d="M801.62,-258.11C801.62,-249.15 801.62,-239.32 801.62,-231.58"/>
<polygon fill="midnightblue" stroke="midnightblue" points="798.12,-258.4 801.62,-268.4 805.12,-258.4 798.12,-258.4"/>
</g>
<!-- Node10&#45;&gt;Node3 -->
<g id="edge19" class="edge">
<title>Node10&#45;&gt;Node3</title>
<path fill="none" stroke="midnightblue" d="M739.33,-212.31C591.79,-204.46 231.91,-183.52 213.62,-165 196.17,-147.34 199.77,-115.74 203.8,-97.51"/>
<polygon fill="midnightblue" stroke="midnightblue" points="739.41,-215.82 749.58,-212.85 739.78,-208.83 739.41,-215.82"/>
</g>
<!-- Node10&#45;&gt;Node6 -->
<g id="edge20" class="edge">
<title>Node10&#45;&gt;Node6</title>
<path fill="none" stroke="midnightblue" d="M739.31,-215.68C635.82,-214.74 434.43,-207.35 379.62,-165 358.45,-148.64 351.26,-116.25 348.84,-97.61"/>
<polygon fill="midnightblue" stroke="midnightblue" points="739.29,-219.18 749.31,-215.75 739.34,-212.18 739.29,-219.18"/>
</g>
<!-- Node11 -->
<g id="node11" class="node">
<title>Node11</title>
<g id="a_node11"><a xlink:href="when__impl_8hpp.html" target="_top" xlink:title=" ">
<polygon fill="none" stroke="black" points="222.62,-134.5 222.62,-164.5 332.62,-164.5 332.62,-134.5 222.62,-134.5"/>
<text text-anchor="start" x="230.62" y="-152.5" font-family="Helvetica,sans-Serif" font-size="10.00">include/yaclib/algo</text>
<text text-anchor="middle" x="277.62" y="-141.5" font-family="Helvetica,sans-Serif" font-size="10.00">/detail/when_impl.hpp</text>
</a>
</g>
</g>
<!-- Node10&#45;&gt;Node11 -->
<g id="edge10" class="edge">
<title>Node10&#45;&gt;Node11</title>
<path fill="none" stroke="midnightblue" d="M739.47,-210.52C651.63,-203.04 486.27,-187.37 346.62,-165 342.14,-164.28 337.52,-163.47 332.89,-162.61"/>
<polygon fill="midnightblue" stroke="midnightblue" points="739.28,-214.01 749.54,-211.37 739.87,-207.04 739.28,-214.01"/>
</g>
<!-- Node12 -->
<g id="node12" class="node">
<title>Node12</title>
<g id="a_node12"><a xlink:href="wait_8hpp.html" target="_top" xlink:title=" ">
<polygon fill="none" stroke="black" points="70.62,-134.5 70.62,-164.5 166.62,-164.5 166.62,-134.5 70.62,-134.5"/>
<text text-anchor="start" x="78.62" y="-152.5" font-family="Helvetica,sans-Serif" font-size="10.00">include/yaclib/algo</text>
<text text-anchor="middle" x="118.62" y="-141.5" font-family="Helvetica,sans-Serif" font-size="10.00">/wait.hpp</text>
</a>
</g>
</g>
<!-- Node10&#45;&gt;Node12 -->
<g id="edge13" class="edge">
<title>Node10&#45;&gt;Node12</title>
<path fill="none" stroke="midnightblue" d="M739.25,-213.49C626.93,-209.2 383.47,-196.79 180.62,-165 176.14,-164.3 171.5,-163.45 166.88,-162.52"/>
<polygon fill="midnightblue" stroke="midnightblue" points="739.25,-217 749.38,-213.87 739.51,-210 739.25,-217"/>
</g>
<!-- Node13 -->
<g id="node13" class="node">
<title>Node13</title>
<g id="a_node13"><a xlink:href="wait__for_8hpp.html" target="_top" xlink:title=" ">
<polygon fill="none" stroke="black" points="388.62,-134.5 388.62,-164.5 484.62,-164.5 484.62,-134.5 388.62,-134.5"/>
<text text-anchor="start" x="396.62" y="-152.5" font-family="Helvetica,sans-Serif" font-size="10.00">include/yaclib/algo</text>
<text text-anchor="middle" x="436.62" y="-141.5" font-family="Helvetica,sans-Serif" font-size="10.00">/wait_for.hpp</text>
</a>
</g>
</g>
<!-- Node10&#45;&gt;Node13 -->
<g id="edge15" class="edge">
<title>Node10&#45;&gt;Node13</title>
<path fill="none" stroke="midnightblue" d="M739.52,-206.93C677.1,-197.94 578.28,-182.67 493.62,-165 490.72,-164.39 487.74,-163.74 484.75,-163.06"/>
<polygon fill="midnightblue" stroke="midnightblue" points="739.2,-210.42 749.59,-208.37 740.19,-203.49 739.2,-210.42"/>
</g>
<!-- Node14 -->
<g id="node14" class="node">
<title>Node14</title>
<g id="a_node14"><a xlink:href="wait__group_8hpp.html" target="_top" xlink:title=" ">
<polygon fill="none" stroke="black" points="502.62,-134.5 502.62,-164.5 598.62,-164.5 598.62,-134.5 502.62,-134.5"/>
<text text-anchor="start" x="510.62" y="-152.5" font-family="Helvetica,sans-Serif" font-size="10.00">include/yaclib/algo</text>
<text text-anchor="middle" x="550.62" y="-141.5" font-family="Helvetica,sans-Serif" font-size="10.00">/wait_group.hpp</text>
</a>
</g>
</g>
<!-- Node10&#45;&gt;Node14 -->
<g id="edge16" class="edge">
<title>Node10&#45;&gt;Node14</title>
<path fill="none" stroke="midnightblue" d="M739.71,-199.47C696.2,-188.2 638.82,-173.34 598.73,-162.96"/>
<polygon fill="midnightblue" stroke="midnightblue" points="739.05,-202.91 749.61,-202.03 740.81,-196.14 739.05,-202.91"/>
</g>
<!-- Node16 -->
<g id="node16" class="node">
<title>Node16</title>
<g id="a_node16"><a xlink:href="wait__until_8hpp.html" target="_top" xlink:title=" ">
<polygon fill="none" stroke="black" points="616.62,-134.5 616.62,-164.5 712.62,-164.5 712.62,-134.5 616.62,-134.5"/>
<text text-anchor="start" x="624.62" y="-152.5" font-family="Helvetica,sans-Serif" font-size="10.00">include/yaclib/algo</text>
<text text-anchor="middle" x="664.62" y="-141.5" font-family="Helvetica,sans-Serif" font-size="10.00">/wait_until.hpp</text>
</a>
</g>
</g>
<!-- Node10&#45;&gt;Node16 -->
<g id="edge18" class="edge">
<title>Node10&#45;&gt;Node16</title>
<path fill="none" stroke="midnightblue" d="M762.61,-196.99C740.89,-186.69 714.29,-174.07 694.29,-164.58"/>
<polygon fill="midnightblue" stroke="midnightblue" points="761.35,-200.27 771.89,-201.4 764.35,-193.95 761.35,-200.27"/>
</g>
<!-- Node17 -->
<g id="node17" class="node">
<title>Node17</title>
<g id="a_node17"><a xlink:href="contract_8hpp.html" target="_top" xlink:title=" ">
<polygon fill="none" stroke="black" points="730.62,-134.5 730.62,-164.5 834.62,-164.5 834.62,-134.5 730.62,-134.5"/>
<text text-anchor="start" x="738.62" y="-152.5" font-family="Helvetica,sans-Serif" font-size="10.00">include/yaclib/async</text>
<text text-anchor="middle" x="782.62" y="-141.5" font-family="Helvetica,sans-Serif" font-size="10.00">/contract.hpp</text>
</a>
</g>
</g>
<!-- Node10&#45;&gt;Node17 -->
<g id="edge21" class="edge">
<title>Node10&#45;&gt;Node17</title>
<path fill="none" stroke="midnightblue" d="M794.66,-191.7C792,-182.59 789.04,-172.49 786.73,-164.58"/>
<polygon fill="midnightblue" stroke="midnightblue" points="791.33,-192.78 797.49,-201.4 798.05,-190.82 791.33,-192.78"/>
</g>
<!-- Node18 -->
<g id="node18" class="node">
<title>Node18</title>
<g id="a_node18"><a xlink:href="simple_8cpp.html" target="_top" xlink:title=" ">
<polygon fill="none" stroke="black" points="799.12,-67.5 799.12,-97.5 900.12,-97.5 900.12,-67.5 799.12,-67.5"/>
<text text-anchor="start" x="807.12" y="-85.5" font-family="Helvetica,sans-Serif" font-size="10.00">test/example/async</text>
<text text-anchor="middle" x="849.62" y="-74.5" font-family="Helvetica,sans-Serif" font-size="10.00">/simple.cpp</text>
</a>
</g>
</g>
<!-- Node10&#45;&gt;Node18 -->
<g id="edge33" class="edge">
<title>Node10&#45;&gt;Node18</title>
<path fill="none" stroke="midnightblue" d="M824.64,-193.88C832,-185.6 839.35,-175.58 843.62,-165 852.59,-142.77 852.33,-114.37 851.12,-97.64"/>
<polygon fill="midnightblue" stroke="midnightblue" points="821.99,-191.59 817.67,-201.26 827.08,-196.39 821.99,-191.59"/>
</g>
<!-- Node10&#45;&gt;Node19 -->
<g id="edge23" class="edge">
<title>Node10&#45;&gt;Node19</title>
<path fill="none" stroke="midnightblue" d="M841.46,-197.13C863.87,-186.8 891.4,-174.11 912.08,-164.58"/>
<polygon fill="midnightblue" stroke="midnightblue" points="839.83,-194.03 832.21,-201.4 842.76,-200.39 839.83,-194.03"/>
</g>
<!-- Node20 -->
<g id="node20" class="node">
<title>Node20</title>
<g id="a_node20"><a xlink:href="await_8hpp.html" target="_top" xlink:title=" ">
<polygon fill="none" stroke="black" points="994.62,-67.5 994.62,-97.5 1112.62,-97.5 1112.62,-67.5 994.62,-67.5"/>
<text text-anchor="start" x="1002.62" y="-85.5" font-family="Helvetica,sans-Serif" font-size="10.00">include/yaclib/coroutine</text>
<text text-anchor="middle" x="1053.62" y="-74.5" font-family="Helvetica,sans-Serif" font-size="10.00">/await.hpp</text>
</a>
</g>
</g>
<!-- Node10&#45;&gt;Node20 -->
<g id="edge27" class="edge">
<title>Node10&#45;&gt;Node20</title>
<path fill="none" stroke="midnightblue" d="M863.93,-212.15C906.76,-207.11 963,-194.78 1003.62,-165 1027.04,-147.82 1041.81,-116.04 1048.8,-97.65"/>
<polygon fill="midnightblue" stroke="midnightblue" points="863.48,-208.68 853.91,-213.23 864.22,-215.64 863.48,-208.68"/>
</g>
<!-- Node21 -->
<g id="node21" class="node">
<title>Node21</title>
<g id="a_node21"><a xlink:href="await__group_8hpp.html" target="_top" xlink:title=" ">
<polygon fill="none" stroke="black" points="1130.62,-67.5 1130.62,-97.5 1248.62,-97.5 1248.62,-67.5 1130.62,-67.5"/>
<text text-anchor="start" x="1138.62" y="-85.5" font-family="Helvetica,sans-Serif" font-size="10.00">include/yaclib/coroutine</text>
<text text-anchor="middle" x="1189.62" y="-74.5" font-family="Helvetica,sans-Serif" font-size="10.00">/await_group.hpp</text>
</a>
</g>
</g>
<!-- Node10&#45;&gt;Node21 -->
<g id="edge28" class="edge">
<title>Node10&#45;&gt;Node21</title>
<path fill="none" stroke="midnightblue" d="M864.03,-216.39C961.02,-216.32 1141.2,-209.95 1183.62,-165 1200.56,-147.05 1197.24,-115.85 1193.38,-97.7"/>
<polygon fill="midnightblue" stroke="midnightblue" points="863.78,-212.89 853.77,-216.37 863.77,-219.89 863.78,-212.89"/>
</g>
<!-- Node22 -->
<g id="node22" class="node">
<title>Node22</title>
<g id="a_node22"><a xlink:href="await__awaiter_8hpp.html" target="_top" xlink:title=" ">
<polygon fill="none" stroke="black" points="1050.62,-134.5 1050.62,-164.5 1174.62,-164.5 1174.62,-134.5 1050.62,-134.5"/>
<text text-anchor="start" x="1058.62" y="-152.5" font-family="Helvetica,sans-Serif" font-size="10.00">include/yaclib/coroutine</text>
<text text-anchor="middle" x="1112.62" y="-141.5" font-family="Helvetica,sans-Serif" font-size="10.00">/detail/await_awaiter.hpp</text>
</a>
</g>
</g>
<!-- Node10&#45;&gt;Node22 -->
<g id="edge29" class="edge">
<title>Node10&#45;&gt;Node22</title>
<path fill="none" stroke="midnightblue" d="M863.5,-202.57C917.74,-191.23 996.17,-174.84 1050.48,-163.49"/>
<polygon fill="midnightblue" stroke="midnightblue" points="862.74,-199.15 853.67,-204.62 864.18,-206 862.74,-199.15"/>
</g>
<!-- Node23 -->
<g id="node23" class="node">
<title>Node23</title>
<g id="a_node23"><a xlink:href="future__traits_8hpp.html" target="_top" xlink:title=" ">
<polygon fill="none" stroke="black" points="1376.62,-134.5 1376.62,-164.5 1494.62,-164.5 1494.62,-134.5 1376.62,-134.5"/>
<text text-anchor="start" x="1384.62" y="-152.5" font-family="Helvetica,sans-Serif" font-size="10.00">include/yaclib/coroutine</text>
<text text-anchor="middle" x="1435.62" y="-141.5" font-family="Helvetica,sans-Serif" font-size="10.00">/future_traits.hpp</text>
</a>
</g>
</g>
<!-- Node10&#45;&gt;Node23 -->
<g id="edge31" class="edge">
<title>Node10&#45;&gt;Node23</title>
<path fill="none" stroke="midnightblue" d="M863.82,-212.42C968.34,-206.69 1185.64,-192.42 1367.62,-165 1370.48,-164.57 1373.41,-164.09 1376.36,-163.58"/>
<polygon fill="midnightblue" stroke="midnightblue" points="863.56,-208.93 853.76,-212.96 863.94,-215.92 863.56,-208.93"/>
</g>
<!-- Node24 -->
<g id="node24" class="node">
<title>Node24</title>
<g id="a_node24"><a xlink:href="future__impl_8cpp.html" target="_top" xlink:title=" ">
<polygon fill="none" stroke="black" points="1230.62,-140 1230.62,-159 1358.62,-159 1358.62,-140 1230.62,-140"/>
<text text-anchor="middle" x="1294.62" y="-147" font-family="Helvetica,sans-Serif" font-size="10.00">src/async/future_impl.cpp</text>
</a>
</g>
</g>
<!-- Node10&#45;&gt;Node24 -->
<g id="edge32" class="edge">
<title>Node10&#45;&gt;Node24</title>
<path fill="none" stroke="midnightblue" d="M863.91,-209.15C945.24,-200.58 1091.92,-184.16 1216.62,-165 1227.92,-163.26 1240.09,-161.13 1251.38,-159.04"/>
<polygon fill="midnightblue" stroke="midnightblue" points="863.42,-205.68 853.84,-210.21 864.15,-212.64 863.42,-205.68"/>
</g>
<!-- Node11&#45;&gt;Node3 -->
<g id="edge11" class="edge">
<title>Node11&#45;&gt;Node3</title>
<path fill="none" stroke="midnightblue" d="M254.8,-127.31C244.3,-117.56 232.13,-106.26 222.78,-97.58"/>
<polygon fill="midnightblue" stroke="midnightblue" points="252.72,-130.16 262.43,-134.4 257.48,-125.03 252.72,-130.16"/>
</g>
<!-- Node11&#45;&gt;Node6 -->
<g id="edge12" class="edge">
<title>Node11&#45;&gt;Node6</title>
<path fill="none" stroke="midnightblue" d="M300.43,-127.31C310.93,-117.56 323.11,-106.26 332.46,-97.58"/>
<polygon fill="midnightblue" stroke="midnightblue" points="297.75,-125.03 292.81,-134.4 302.51,-130.16 297.75,-125.03"/>
</g>
<!-- Node12&#45;&gt;Node9 -->
<g id="edge14" class="edge">
<title>Node12&#45;&gt;Node9</title>
<path fill="none" stroke="midnightblue" d="M176.99,-161.78C306.76,-186.86 617.74,-246.96 745.43,-271.64"/>
<polygon fill="midnightblue" stroke="midnightblue" points="177.34,-158.28 166.86,-159.82 176.01,-165.16 177.34,-158.28"/>
</g>
<!-- Node15 -->
<g id="node15" class="node">
<title>Node15</title>
<g id="a_node15"><a xlink:href="wait__group_8cpp.html" target="_top" xlink:title=" ">
<polygon fill="none" stroke="black" points="491.12,-73 491.12,-92 610.12,-92 610.12,-73 491.12,-73"/>
<text text-anchor="middle" x="550.62" y="-80" font-family="Helvetica,sans-Serif" font-size="10.00">src/algo/wait_group.cpp</text>
</a>
</g>
</g>
<!-- Node14&#45;&gt;Node15 -->
<g id="edge17" class="edge">
<title>Node14&#45;&gt;Node15</title>
<path fill="none" stroke="midnightblue" d="M550.62,-124.25C550.62,-113.02 550.62,-100.38 550.62,-92.19"/>
<polygon fill="midnightblue" stroke="midnightblue" points="547.12,-124.4 550.62,-134.4 554.12,-124.4 547.12,-124.4"/>
</g>
<!-- Node17&#45;&gt;Node18 -->
<g id="edge22" class="edge">
<title>Node17&#45;&gt;Node18</title>
<path fill="none" stroke="midnightblue" d="M804.46,-127.31C814.51,-117.56 826.16,-106.26 835.11,-97.58"/>
<polygon fill="midnightblue" stroke="midnightblue" points="801.89,-124.92 797.15,-134.4 806.77,-129.94 801.89,-124.92"/>
</g>
<!-- Node19&#45;&gt;Node4 -->
<g id="edge25" class="edge">
<title>Node19&#45;&gt;Node4</title>
<path fill="none" stroke="midnightblue" d="M932.87,-125.12C921.44,-97.68 902.86,-53.09 893.46,-30.52"/>
<polygon fill="midnightblue" stroke="midnightblue" points="929.65,-126.49 936.73,-134.37 936.11,-123.8 929.65,-126.49"/>
</g>
<!-- Node19&#45;&gt;Node7 -->
<g id="edge26" class="edge">
<title>Node19&#45;&gt;Node7</title>
<path fill="none" stroke="midnightblue" d="M953.95,-125.12C967.26,-97.68 988.88,-53.09 999.82,-30.52"/>
<polygon fill="midnightblue" stroke="midnightblue" points="950.68,-123.85 949.47,-134.37 956.98,-126.9 950.68,-123.85"/>
</g>
<!-- Node19&#45;&gt;Node18 -->
<g id="edge24" class="edge">
<title>Node19&#45;&gt;Node18</title>
<path fill="none" stroke="midnightblue" d="M913.93,-128.45C899.62,-118.45 882.67,-106.6 869.76,-97.58"/>
<polygon fill="midnightblue" stroke="midnightblue" points="912.24,-131.54 922.44,-134.4 916.25,-125.8 912.24,-131.54"/>
</g>
<!-- Node22&#45;&gt;Node20 -->
<g id="edge30" class="edge">
<title>Node22&#45;&gt;Node20</title>
<path fill="none" stroke="midnightblue" d="M1092.86,-126.74C1084.13,-117.12 1074.12,-106.09 1066.39,-97.58"/>
<polygon fill="midnightblue" stroke="midnightblue" points="1090.5,-129.34 1099.81,-134.4 1095.68,-124.64 1090.5,-129.34"/>
</g>
<!-- Node25&#45;&gt;Node23 -->
<g id="edge41" class="edge">
<title>Node25&#45;&gt;Node23</title>
<path fill="none" stroke="midnightblue" d="M1464.3,-192.87C1457.93,-183.46 1450.73,-172.83 1445.14,-164.58"/>
<polygon fill="midnightblue" stroke="midnightblue" points="1461.56,-195.08 1470.07,-201.4 1467.36,-191.15 1461.56,-195.08"/>
</g>
<!-- Node26 -->
<g id="node26" class="node">
<title>Node26</title>
<g id="a_node26"><a xlink:href="async__mutex_8hpp.html" target="_top" xlink:title=" ">
<polygon fill="none" stroke="black" points="1266.62,-67.5 1266.62,-97.5 1384.62,-97.5 1384.62,-67.5 1266.62,-67.5"/>
<text text-anchor="start" x="1274.62" y="-85.5" font-family="Helvetica,sans-Serif" font-size="10.00">include/yaclib/coroutine</text>
<text text-anchor="middle" x="1325.62" y="-74.5" font-family="Helvetica,sans-Serif" font-size="10.00">/async_mutex.hpp</text>
</a>
</g>
</g>
<!-- Node25&#45;&gt;Node26 -->
<g id="edge36" class="edge">
<title>Node25&#45;&gt;Node26</title>
<path fill="none" stroke="midnightblue" d="M1496.19,-192.97C1506.91,-175.43 1516.64,-151.24 1503.62,-134 1496.18,-124.17 1433.67,-107.97 1384.8,-96.57"/>
<polygon fill="midnightblue" stroke="midnightblue" points="1493.17,-191.19 1490.61,-201.47 1499.03,-195.03 1493.17,-191.19"/>
</g>
<!-- Node27 -->
<g id="node27" class="node">
<title>Node27</title>
<g id="a_node27"><a xlink:href="on__awaiter_8hpp.html" target="_top" xlink:title=" ">
<polygon fill="none" stroke="black" points="1550.62,-134.5 1550.62,-164.5 1668.62,-164.5 1668.62,-134.5 1550.62,-134.5"/>
<text text-anchor="start" x="1558.62" y="-152.5" font-family="Helvetica,sans-Serif" font-size="10.00">include/yaclib/coroutine</text>
<text text-anchor="middle" x="1609.62" y="-141.5" font-family="Helvetica,sans-Serif" font-size="10.00">/detail/on_awaiter.hpp</text>
</a>
</g>
</g>
<!-- Node25&#45;&gt;Node27 -->
<g id="edge37" class="edge">
<title>Node25&#45;&gt;Node27</title>
<path fill="none" stroke="midnightblue" d="M1516.91,-196.85C1537.46,-186.58 1562.57,-174.03 1581.46,-164.58"/>
<polygon fill="midnightblue" stroke="midnightblue" points="1515.2,-193.79 1507.82,-201.4 1518.33,-200.05 1515.2,-193.79"/>
</g>
<!-- Node28 -->
<g id="node28" class="node">
<title>Node28</title>
<g id="a_node28"><a xlink:href="on_8hpp.html" target="_top" xlink:title=" ">
<polygon fill="none" stroke="black" points="1402.62,-67.5 1402.62,-97.5 1520.62,-97.5 1520.62,-67.5 1402.62,-67.5"/>
<text text-anchor="start" x="1410.62" y="-85.5" font-family="Helvetica,sans-Serif" font-size="10.00">include/yaclib/coroutine</text>
<text text-anchor="middle" x="1461.62" y="-74.5" font-family="Helvetica,sans-Serif" font-size="10.00">/on.hpp</text>
</a>
</g>
</g>
<!-- Node27&#45;&gt;Node28 -->
<g id="edge38" class="edge">
<title>Node27&#45;&gt;Node28</title>
<path fill="none" stroke="midnightblue" d="M1568.1,-130.27C1544.53,-119.92 1515.47,-107.15 1493.67,-97.58"/>
<polygon fill="midnightblue" stroke="midnightblue" points="1566.94,-133.58 1577.5,-134.4 1569.75,-127.17 1566.94,-133.58"/>
</g>
<!-- Node30 -->
<g id="node30" class="node">
<title>Node30</title>
<g id="a_node30"><a xlink:href="on__awaiter_8cpp.html" target="_top" xlink:title=" ">
<polygon fill="none" stroke="black" points="1539.12,-73 1539.12,-92 1680.12,-92 1680.12,-73 1539.12,-73"/>
<text text-anchor="middle" x="1609.62" y="-80" font-family="Helvetica,sans-Serif" font-size="10.00">src/coroutine/on_awaiter.cpp</text>
</a>
</g>
</g>
<!-- Node27&#45;&gt;Node30 -->
<g id="edge40" class="edge">
<title>Node27&#45;&gt;Node30</title>
<path fill="none" stroke="midnightblue" d="M1609.62,-124.25C1609.62,-113.02 1609.62,-100.38 1609.62,-92.19"/>
<polygon fill="midnightblue" stroke="midnightblue" points="1606.12,-124.4 1609.62,-134.4 1613.12,-124.4 1606.12,-124.4"/>
</g>
<!-- Node29 -->
<g id="node29" class="node">
<title>Node29</title>
<g id="a_node29"><a xlink:href="on_8cpp.html" target="_top" xlink:title=" ">
<polygon fill="none" stroke="black" points="1409.62,-6 1409.62,-25 1513.62,-25 1513.62,-6 1409.62,-6"/>
<text text-anchor="middle" x="1461.62" y="-13" font-family="Helvetica,sans-Serif" font-size="10.00">src/coroutine/on.cpp</text>
</a>
</g>
</g>
<!-- Node28&#45;&gt;Node29 -->
<g id="edge39" class="edge">
<title>Node28&#45;&gt;Node29</title>
<path fill="none" stroke="midnightblue" d="M1461.62,-57.25C1461.62,-46.02 1461.62,-33.38 1461.62,-25.19"/>
<polygon fill="midnightblue" stroke="midnightblue" points="1458.12,-57.4 1461.62,-67.4 1465.12,-57.4 1458.12,-57.4"/>
</g>
<!-- Node31&#45;&gt;Node10 -->
<g id="edge43" class="edge">
<title>Node31&#45;&gt;Node10</title>
<path fill="none" stroke="midnightblue" d="M1714.74,-341.89C1542.47,-318.42 1021.09,-247.4 853.85,-224.62"/>
<polygon fill="midnightblue" stroke="midnightblue" points="1714.47,-345.38 1724.86,-343.27 1715.42,-338.45 1714.47,-345.38"/>
</g>
<!-- Node32 -->
<g id="node32" class="node">
<title>Node32</title>
<g id="a_node32"><a xlink:href="task_8hpp.html" target="_top" xlink:title=" ">
<polygon fill="none" stroke="black" points="1504.62,-268.5 1504.62,-298.5 1608.62,-298.5 1608.62,-268.5 1504.62,-268.5"/>
<text text-anchor="start" x="1512.62" y="-286.5" font-family="Helvetica,sans-Serif" font-size="10.00">include/yaclib/async</text>
<text text-anchor="middle" x="1556.62" y="-275.5" font-family="Helvetica,sans-Serif" font-size="10.00">/task.hpp</text>
</a>
</g>
</g>
<!-- Node31&#45;&gt;Node32 -->
<g id="edge44" class="edge">
<title>Node31&#45;&gt;Node32</title>
<path fill="none" stroke="midnightblue" d="M1714.96,-332.59C1680.14,-322.02 1635.82,-308.56 1602.93,-298.57"/>
<polygon fill="midnightblue" stroke="midnightblue" points="1714.38,-336.08 1724.97,-335.64 1716.42,-329.38 1714.38,-336.08"/>
</g>
<!-- Node33 -->
<g id="node33" class="node">
<title>Node33</title>
<g id="a_node33"><a xlink:href="manual_8hpp.html" target="_top" xlink:title=" ">
<polygon fill="none" stroke="black" points="1627.12,-268.5 1627.12,-298.5 1742.12,-298.5 1742.12,-268.5 1627.12,-268.5"/>
<text text-anchor="start" x="1635.12" y="-286.5" font-family="Helvetica,sans-Serif" font-size="10.00">include/yaclib/executor</text>
<text text-anchor="middle" x="1684.62" y="-275.5" font-family="Helvetica,sans-Serif" font-size="10.00">/manual.hpp</text>
</a>
</g>
</g>
<!-- Node31&#45;&gt;Node33 -->
<g id="edge45" class="edge">
<title>Node31&#45;&gt;Node33</title>
<path fill="none" stroke="midnightblue" d="M1743.71,-329.17C1730.56,-319.23 1715.07,-307.51 1703.24,-298.58"/>
<polygon fill="midnightblue" stroke="midnightblue" points="1741.87,-332.16 1751.96,-335.4 1746.09,-326.57 1741.87,-332.16"/>
</g>
<!-- Node34 -->
<g id="node34" class="node">
<title>Node34</title>
<g id="a_node34"><a xlink:href="manual_8cpp.html" target="_top" xlink:title=" ">
<polygon fill="none" stroke="black" points="1633.62,-207 1633.62,-226 1755.62,-226 1755.62,-207 1633.62,-207"/>
<text text-anchor="middle" x="1694.62" y="-214" font-family="Helvetica,sans-Serif" font-size="10.00">src/executor/manual.cpp</text>
</a>
</g>
</g>
<!-- Node31&#45;&gt;Node34 -->
<g id="edge60" class="edge">
<title>Node31&#45;&gt;Node34</title>
<path fill="none" stroke="midnightblue" d="M1768.84,-325.03C1766.7,-308.03 1761.99,-285.4 1751.62,-268 1740.92,-250.06 1721.72,-235.02 1708.58,-226.15"/>
<polygon fill="midnightblue" stroke="midnightblue" points="1765.39,-325.69 1769.9,-335.27 1772.35,-324.96 1765.39,-325.69"/>
</g>
<!-- Node35 -->
<g id="node35" class="node">
<title>Node35</title>
<g id="a_node35"><a xlink:href="shared__func_8hpp.html" target="_top" xlink:title=" ">
<polygon fill="none" stroke="black" points="1799.12,-268.5 1799.12,-298.5 1916.12,-298.5 1916.12,-268.5 1799.12,-268.5"/>
<text text-anchor="start" x="1807.12" y="-286.5" font-family="Helvetica,sans-Serif" font-size="10.00">include/yaclib/util</text>
<text text-anchor="middle" x="1857.62" y="-275.5" font-family="Helvetica,sans-Serif" font-size="10.00">/detail/shared_func.hpp</text>
</a>
</g>
</g>
<!-- Node31&#45;&gt;Node35 -->
<g id="edge47" class="edge">
<title>Node31&#45;&gt;Node35</title>
<path fill="none" stroke="midnightblue" d="M1797.83,-329.17C1811.13,-319.23 1826.81,-307.51 1838.78,-298.58"/>
<polygon fill="midnightblue" stroke="midnightblue" points="1795.41,-326.61 1789.49,-335.4 1799.6,-332.21 1795.41,-326.61"/>
</g>
<!-- Node38 -->
<g id="node38" class="node">
<title>Node38</title>
<g id="a_node38"><a xlink:href="src_2executor_2thread__pool_8cpp.html" target="_top" xlink:title=" ">
<polygon fill="none" stroke="black" points="2034.62,-67.5 2034.62,-97.5 2134.62,-97.5 2134.62,-67.5 2034.62,-67.5"/>
<text text-anchor="start" x="2042.62" y="-85.5" font-family="Helvetica,sans-Serif" font-size="10.00">src/executor/thread</text>
<text text-anchor="middle" x="2084.62" y="-74.5" font-family="Helvetica,sans-Serif" font-size="10.00">_pool.cpp</text>
</a>
</g>
</g>
<!-- Node31&#45;&gt;Node38 -->
<g id="edge63" class="edge">
<title>Node31&#45;&gt;Node38</title>
<path fill="none" stroke="midnightblue" d="M1826.32,-340.09C1857.68,-332.76 1896.31,-320.14 1925.62,-299 2003.85,-242.55 2059.72,-136.03 2078.08,-97.7"/>
<polygon fill="midnightblue" stroke="midnightblue" points="1825.41,-336.71 1816.41,-342.29 1826.93,-343.54 1825.41,-336.71"/>
</g>
<!-- Node41 -->
<g id="node41" class="node">
<title>Node41</title>
<g id="a_node41"><a xlink:href="thread__factory_8cpp.html" target="_top" xlink:title=" ">
<polygon fill="none" stroke="black" points="1859.62,-134.5 1859.62,-164.5 1959.62,-164.5 1959.62,-134.5 1859.62,-134.5"/>
<text text-anchor="start" x="1867.62" y="-152.5" font-family="Helvetica,sans-Serif" font-size="10.00">src/executor/thread</text>
<text text-anchor="middle" x="1909.62" y="-141.5" font-family="Helvetica,sans-Serif" font-size="10.00">_factory.cpp</text>
</a>
</g>
</g>
<!-- Node31&#45;&gt;Node41 -->
<g id="edge62" class="edge">
<title>Node31&#45;&gt;Node41</title>
<path fill="none" stroke="midnightblue" d="M1826.25,-347.11C1860.91,-342.38 1903.07,-330.06 1925.62,-299 1955.32,-258.08 1930.49,-193.34 1916.97,-164.81"/>
<polygon fill="midnightblue" stroke="midnightblue" points="1825.75,-343.64 1816.23,-348.29 1826.57,-350.59 1825.75,-343.64"/>
</g>
<!-- Node42 -->
<g id="node42" class="node">
<title>Node42</title>
<g id="a_node42"><a xlink:href="src_2executor_2strand_8cpp.html" target="_top" xlink:title=" ">
<polygon fill="none" stroke="black" points="2044.62,-274 2044.62,-293 2162.62,-293 2162.62,-274 2044.62,-274"/>
<text text-anchor="middle" x="2103.62" y="-281" font-family="Helvetica,sans-Serif" font-size="10.00">src/executor/strand.cpp</text>
</a>
</g>
</g>
<!-- Node31&#45;&gt;Node42 -->
<g id="edge61" class="edge">
<title>Node31&#45;&gt;Node42</title>
<path fill="none" stroke="midnightblue" d="M1826.32,-338.75C1878.98,-328.57 1960.19,-312.83 2030.62,-299 2040.38,-297.08 2050.87,-295.01 2060.78,-293.04"/>
<polygon fill="midnightblue" stroke="midnightblue" points="1825.34,-335.38 1816.19,-340.71 1826.67,-342.25 1825.34,-335.38"/>
</g>
<!-- Node33&#45;&gt;Node34 -->
<g id="edge46" class="edge">
<title>Node33&#45;&gt;Node34</title>
<path fill="none" stroke="midnightblue" d="M1688.35,-258.25C1690.08,-247.02 1692.02,-234.38 1693.28,-226.19"/>
<polygon fill="midnightblue" stroke="midnightblue" points="1684.85,-257.98 1686.79,-268.4 1691.77,-259.04 1684.85,-257.98"/>
</g>
<!-- Node36 -->
<g id="node36" class="node">
<title>Node36</title>
<g id="a_node36"><a xlink:href="thread__factory_8hpp.html" target="_top" xlink:title=" ">
<polygon fill="none" stroke="black" points="1783.12,-201.5 1783.12,-231.5 1898.12,-231.5 1898.12,-201.5 1783.12,-201.5"/>
<text text-anchor="start" x="1791.12" y="-219.5" font-family="Helvetica,sans-Serif" font-size="10.00">include/yaclib/executor</text>
<text text-anchor="middle" x="1840.62" y="-208.5" font-family="Helvetica,sans-Serif" font-size="10.00">/thread_factory.hpp</text>
</a>
</g>
</g>
<!-- Node35&#45;&gt;Node36 -->
<g id="edge48" class="edge">
<title>Node35&#45;&gt;Node36</title>
<path fill="none" stroke="midnightblue" d="M1851.39,-258.7C1849.01,-249.59 1846.37,-239.49 1844.3,-231.58"/>
<polygon fill="midnightblue" stroke="midnightblue" points="1848.01,-259.61 1853.93,-268.4 1854.78,-257.84 1848.01,-259.61"/>
</g>
<!-- Node37 -->
<g id="node37" class="node">
<title>Node37</title>
<g id="a_node37"><a xlink:href="thread__pool_8hpp.html" target="_top" xlink:title=" ">
<polygon fill="none" stroke="black" points="1688.12,-134.5 1688.12,-164.5 1803.12,-164.5 1803.12,-134.5 1688.12,-134.5"/>
<text text-anchor="start" x="1696.12" y="-152.5" font-family="Helvetica,sans-Serif" font-size="10.00">include/yaclib/executor</text>
<text text-anchor="middle" x="1745.62" y="-141.5" font-family="Helvetica,sans-Serif" font-size="10.00">/thread_pool.hpp</text>
</a>
</g>
</g>
<!-- Node36&#45;&gt;Node37 -->
<g id="edge49" class="edge">
<title>Node36&#45;&gt;Node37</title>
<path fill="none" stroke="midnightblue" d="M1811.73,-195.73C1797.03,-185.68 1779.5,-173.68 1766.19,-164.58"/>
<polygon fill="midnightblue" stroke="midnightblue" points="1809.77,-198.64 1820,-201.4 1813.73,-192.86 1809.77,-198.64"/>
</g>
<!-- Node36&#45;&gt;Node38 -->
<g id="edge59" class="edge">
<title>Node36&#45;&gt;Node38</title>
<path fill="none" stroke="midnightblue" d="M1836.72,-191.31C1835.26,-173.25 1836.62,-149.17 1850.62,-134 1904.45,-75.63 1948.16,-115.48 2025.62,-98 2028.5,-97.35 2031.45,-96.67 2034.43,-95.97"/>
<polygon fill="midnightblue" stroke="midnightblue" points="1833.25,-191.84 1837.86,-201.38 1840.21,-191.05 1833.25,-191.84"/>
</g>
<!-- Node36&#45;&gt;Node41 -->
<g id="edge58" class="edge">
<title>Node36&#45;&gt;Node41</title>
<path fill="none" stroke="midnightblue" d="M1863.11,-194.31C1873.46,-184.56 1885.46,-173.26 1894.67,-164.58"/>
<polygon fill="midnightblue" stroke="midnightblue" points="1860.47,-191.99 1855.59,-201.4 1865.27,-197.09 1860.47,-191.99"/>
</g>
<!-- Node37&#45;&gt;Node4 -->
<g id="edge54" class="edge">
<title>Node37&#45;&gt;Node4</title>
<path fill="none" stroke="midnightblue" d="M1736.46,-124.88C1727.62,-105.62 1712.22,-79.6 1689.62,-67 1617.43,-26.75 1028.4,-42.92 946.62,-31 943.9,-30.6 941.13,-30.14 938.34,-29.62"/>
<polygon fill="midnightblue" stroke="midnightblue" points="1733.32,-126.44 1740.49,-134.23 1739.75,-123.66 1733.32,-126.44"/>
</g>
<!-- Node37&#45;&gt;Node7 -->
<g id="edge55" class="edge">
<title>Node37&#45;&gt;Node7</title>
<path fill="none" stroke="midnightblue" d="M1745.78,-124.22C1744.48,-105.53 1739.39,-80.65 1722.62,-67 1696.82,-46.01 1216.05,-24.91 1057.13,-18.48"/>
<polygon fill="midnightblue" stroke="midnightblue" points="1742.29,-124.52 1746.16,-134.38 1749.28,-124.26 1742.29,-124.52"/>
</g>
<!-- Node37&#45;&gt;Node18 -->
<g id="edge53" class="edge">
<title>Node37&#45;&gt;Node18</title>
<path fill="none" stroke="midnightblue" d="M1677.93,-134.04C1677.83,-134.03 1677.72,-134.01 1677.62,-134 1372.28,-93.76 1292.62,-122.33 985.62,-98 957.33,-95.76 925.82,-92.45 900.25,-89.56"/>
<polygon fill="midnightblue" stroke="midnightblue" points="1677.44,-137.51 1687.85,-135.53 1678.48,-130.59 1677.44,-137.51"/>
</g>
<!-- Node37&#45;&gt;Node21 -->
<g id="edge51" class="edge">
<title>Node37&#45;&gt;Node21</title>
<path fill="none" stroke="midnightblue" d="M1677.93,-134.05C1677.83,-134.03 1677.72,-134.02 1677.62,-134 1492.31,-106.41 1442.92,-125.59 1257.62,-98 1254.75,-97.57 1251.82,-97.1 1248.88,-96.59"/>
<polygon fill="midnightblue" stroke="midnightblue" points="1677.4,-137.51 1687.83,-135.67 1678.53,-130.6 1677.4,-137.51"/>
</g>
<!-- Node37&#45;&gt;Node26 -->
<g id="edge50" class="edge">
<title>Node37&#45;&gt;Node26</title>
<path fill="none" stroke="midnightblue" d="M1677.93,-134.05C1677.82,-134.04 1677.72,-134.02 1677.62,-134 1552.18,-112.71 1519.06,-119.29 1393.62,-98 1390.76,-97.52 1387.84,-96.99 1384.9,-96.45"/>
<polygon fill="midnightblue" stroke="midnightblue" points="1677.35,-137.5 1687.81,-135.83 1678.58,-130.61 1677.35,-137.5"/>
</g>
<!-- Node37&#45;&gt;Node38 -->
<g id="edge52" class="edge">
<title>Node37&#45;&gt;Node38</title>
<path fill="none" stroke="midnightblue" d="M1813.23,-134.83C1814.7,-134.55 1816.17,-134.27 1817.62,-134 1909.83,-116.74 1933.78,-117.21 2025.62,-98 2028.51,-97.4 2031.47,-96.75 2034.46,-96.08"/>
<polygon fill="midnightblue" stroke="midnightblue" points="1812.52,-131.4 1803.36,-136.73 1813.84,-138.27 1812.52,-131.4"/>
</g>
<!-- Node39 -->
<g id="node39" class="node">
<title>Node39</title>
<g id="a_node39"><a xlink:href="test_2example_2executor_2strand_8cpp.html" target="_top" xlink:title=" ">
<polygon fill="none" stroke="black" points="1774.62,-67.5 1774.62,-97.5 1886.62,-97.5 1886.62,-67.5 1774.62,-67.5"/>
<text text-anchor="start" x="1782.62" y="-85.5" font-family="Helvetica,sans-Serif" font-size="10.00">test/example/executor</text>
<text text-anchor="middle" x="1830.62" y="-74.5" font-family="Helvetica,sans-Serif" font-size="10.00">/strand.cpp</text>
</a>
</g>
</g>
<!-- Node37&#45;&gt;Node39 -->
<g id="edge56" class="edge">
<title>Node37&#45;&gt;Node39</title>
<path fill="none" stroke="midnightblue" d="M1772.2,-128.17C1785.2,-118.23 1800.52,-106.51 1812.21,-97.58"/>
<polygon fill="midnightblue" stroke="midnightblue" points="1769.88,-125.54 1764.06,-134.4 1774.13,-131.1 1769.88,-125.54"/>
</g>
<!-- Node40 -->
<g id="node40" class="node">
<title>Node40</title>
<g id="a_node40"><a xlink:href="test_2example_2executor_2thread__pool_8cpp.html" target="_top" xlink:title=" ">
<polygon fill="none" stroke="black" points="1904.62,-67.5 1904.62,-97.5 2016.62,-97.5 2016.62,-67.5 1904.62,-67.5"/>
<text text-anchor="start" x="1912.62" y="-85.5" font-family="Helvetica,sans-Serif" font-size="10.00">test/example/executor</text>
<text text-anchor="middle" x="1960.62" y="-74.5" font-family="Helvetica,sans-Serif" font-size="10.00">/thread_pool.cpp</text>
</a>
</g>
</g>
<!-- Node37&#45;&gt;Node40 -->
<g id="edge57" class="edge">
<title>Node37&#45;&gt;Node40</title>
<path fill="none" stroke="midnightblue" d="M1801.58,-131.58C1836.5,-121.02 1880.93,-107.59 1913.94,-97.61"/>
<polygon fill="midnightblue" stroke="midnightblue" points="1800.56,-128.23 1792,-134.48 1802.59,-134.93 1800.56,-128.23"/>
</g>
</g>
</svg>
        <g id="navigator" transform="translate(0 0)" fill="#404254">
                <rect fill="#f2f5e9" fill-opacity="0.5" stroke="#606060" stroke-width=".5" x="0" y="0" width="60" height="60"/>
                <use id="zoomplus" xlink:href="#zoomPlus" x="17" y="9" onmousedown="handleZoom(evt,'in')"/>
                <use id="zoomminus" xlink:href="#zoomMin" x="42" y="9" onmousedown="handleZoom(evt,'out')"/>
                <use id="reset" xlink:href="#resetDef" x="30" y="36" onmousedown="handleReset()"/>
                <g id="arrowUp" xlink:href="#dirArrow" transform="translate(30 24)" onmousedown="handlePan(0,-1)">
                  <use xlink:href="#rim" fill="#404040">
                        <set attributeName="fill" to="#808080" begin="arrowUp.mouseover" end="arrowUp.mouseout"/>
                  </use>
                  <path fill="none" stroke="white" stroke-width="1.5" d="M0,-3.0v7 M-2.5,-0.5L0,-3.0L2.5,-0.5"/>
                </g>
                <g id="arrowRight" xlink:href="#dirArrow" transform="rotate(90) translate(36 -43)" onmousedown="handlePan(1,0)">
                  <use xlink:href="#rim" fill="#404040">
                        <set attributeName="fill" to="#808080" begin="arrowRight.mouseover" end="arrowRight.mouseout"/>
                  </use>
                  <path fill="none" stroke="white" stroke-width="1.5" d="M0,-3.0v7 M-2.5,-0.5L0,-3.0L2.5,-0.5"/>
                </g>
                <g id="arrowDown" xlink:href="#dirArrow" transform="rotate(180) translate(-30 -48)" onmousedown="handlePan(0,1)">
                  <use xlink:href="#rim" fill="#404040">
                        <set attributeName="fill" to="#808080" begin="arrowDown.mouseover" end="arrowDown.mouseout"/>
                  </use>
                  <path fill="none" stroke="white" stroke-width="1.5" d="M0,-3.0v7 M-2.5,-0.5L0,-3.0L2.5,-0.5"/>
                </g>
                <g id="arrowLeft" xlink:href="#dirArrow" transform="rotate(270) translate(-36 17)" onmousedown="handlePan(-1,0)">
                  <use xlink:href="#rim" fill="#404040">
                        <set attributeName="fill" to="#808080" begin="arrowLeft.mouseover" end="arrowLeft.mouseout"/>
                  </use>
                  <path fill="none" stroke="white" stroke-width="1.5" d="M0,-3.0v7 M-2.5,-0.5L0,-3.0L2.5,-0.5"/>
                </g>
        </g>
        <svg viewBox="0 0 15 15" width="100%" height="30px" preserveAspectRatio="xMaxYMin meet">
         <g id="arrow_out" transform="scale(0.3 0.3)">
          <a xlink:href="unique__counter_8hpp__dep__incl_org.svg" target="_base">
           <rect id="button" ry="5" rx="5" y="6" x="6" height="38" width="38"
                fill="#f2f5e9" fill-opacity="0.5" stroke="#606060" stroke-width="1.0"/>
           <path id="arrow"
             d="M 11.500037,31.436501 C 11.940474,20.09759 22.043105,11.32322 32.158766,21.979434 L 37.068811,17.246167 C 37.068811,17.246167 37.088388,32 37.088388,32 L 22.160133,31.978069 C 22.160133,31.978069 26.997745,27.140456 26.997745,27.140456 C 18.528582,18.264221 13.291696,25.230495 11.500037,31.436501 z"
             style="fill:#404040;"/>
          </a>
         </g>
        </svg>
</svg>
