<?xml version="1.0" encoding="UTF-8" standalone="no"?>
<!DOCTYPE svg PUBLIC "-//W3C//DTD SVG 1.1//EN"
 "http://www.w3.org/Graphics/SVG/1.1/DTD/svg11.dtd">
<!-- Generated by graphviz version 3.0.0 (20220413.0242)
 -->
<!-- Title: include/yaclib/executor/detail/unique_job.hpp Pages: 1 -->
<svg width="460pt" height="229pt"
 viewBox="0.00 0.00 459.50 229.00" xmlns="http://www.w3.org/2000/svg" xmlns:xlink="http://www.w3.org/1999/xlink">
<g id="graph0" class="graph" transform="scale(1 1) rotate(0) translate(4 225)">
<title>include/yaclib/executor/detail/unique_job.hpp</title>
<!-- Node1 -->
<g id="node1" class="node">
<title>Node1</title>
<g id="a_node1"><a xlink:title=" ">
<polygon fill="#bfbfbf" stroke="black" points="251,-190.5 251,-220.5 366,-220.5 366,-190.5 251,-190.5"/>
<text text-anchor="start" x="259" y="-208.5" font-family="Helvetica,sans-Serif" font-size="10.00">include/yaclib/executor</text>
<text text-anchor="middle" x="308.5" y="-197.5" font-family="Helvetica,sans-Serif" font-size="10.00">/detail/unique_job.hpp</text>
</a>
</g>
</g>
<!-- Node2 -->
<g id="node2" class="node">
<title>Node2</title>
<g id="a_node2"><a xlink:href="job_8hpp.html" target="_top" xlink:title=" ">
<polygon fill="none" stroke="black" points="92,-129 92,-148 207,-148 207,-129 92,-129"/>
<text text-anchor="middle" x="149.5" y="-136" font-family="Helvetica,sans-Serif" font-size="10.00">yaclib/executor/job.hpp</text>
</a>
</g>
</g>
<!-- Node1&#45;&gt;Node2 -->
<g id="edge1" class="edge">
<title>Node1&#45;&gt;Node2</title>
<path fill="none" stroke="midnightblue" d="M274,-190.4C245.85,-178.89 206.49,-162.8 179.61,-151.81"/>
<polygon fill="midnightblue" stroke="midnightblue" points="180.89,-148.55 170.31,-148.01 178.24,-155.03 180.89,-148.55"/>
</g>
<!-- Node7 -->
<g id="node7" class="node">
<title>Node7</title>
<g id="a_node7"><a xlink:title=" ">
<polygon fill="none" stroke="#bfbfbf" points="238,-0.5 238,-19.5 277,-19.5 277,-0.5 238,-0.5"/>
<text text-anchor="middle" x="257.5" y="-7.5" font-family="Helvetica,sans-Serif" font-size="10.00">utility</text>
</a>
</g>
</g>
<!-- Node1&#45;&gt;Node7 -->
<g id="edge12" class="edge">
<title>Node1&#45;&gt;Node7</title>
<path fill="none" stroke="midnightblue" d="M312.22,-190.19C318.57,-162.73 328.97,-101.35 308.5,-56 302.88,-43.56 291.94,-33.17 281.62,-25.53"/>
<polygon fill="midnightblue" stroke="midnightblue" points="283.46,-22.54 273.23,-19.76 279.49,-28.31 283.46,-22.54"/>
</g>
<!-- Node8 -->
<g id="node8" class="node">
<title>Node8</title>
<g id="a_node8"><a xlink:href="nope__counter_8hpp.html" target="_top" xlink:title=" ">
<polygon fill="none" stroke="black" points="355.5,-123.5 355.5,-153.5 451.5,-153.5 451.5,-123.5 355.5,-123.5"/>
<text text-anchor="start" x="363.5" y="-141.5" font-family="Helvetica,sans-Serif" font-size="10.00">yaclib/util/detail</text>
<text text-anchor="middle" x="403.5" y="-130.5" font-family="Helvetica,sans-Serif" font-size="10.00">/nope_counter.hpp</text>
</a>
</g>
</g>
<!-- Node1&#45;&gt;Node8 -->
<g id="edge7" class="edge">
<title>Node1&#45;&gt;Node8</title>
<path fill="none" stroke="midnightblue" d="M329.11,-190.4C342.43,-181.28 359.96,-169.29 374.66,-159.24"/>
<polygon fill="midnightblue" stroke="midnightblue" points="376.65,-162.11 382.93,-153.58 372.7,-156.33 376.65,-162.11"/>
</g>
<!-- Node9 -->
<g id="node9" class="node">
<title>Node9</title>
<g id="a_node9"><a xlink:href="safe__call_8hpp.html" target="_top" xlink:title=" ">
<polygon fill="none" stroke="black" points="216,-56.5 216,-86.5 299,-86.5 299,-56.5 216,-56.5"/>
<text text-anchor="start" x="224" y="-74.5" font-family="Helvetica,sans-Serif" font-size="10.00">yaclib/util/detail</text>
<text text-anchor="middle" x="257.5" y="-63.5" font-family="Helvetica,sans-Serif" font-size="10.00">/safe_call.hpp</text>
</a>
</g>
</g>
<!-- Node1&#45;&gt;Node9 -->
<g id="edge8" class="edge">
<title>Node1&#45;&gt;Node9</title>
<path fill="none" stroke="midnightblue" d="M303.04,-190.37C294.34,-167.85 277.22,-123.53 266.63,-96.12"/>
<polygon fill="midnightblue" stroke="midnightblue" points="269.79,-94.59 262.92,-86.52 263.26,-97.11 269.79,-94.59"/>
</g>
<!-- Node3 -->
<g id="node3" class="node">
<title>Node3</title>
<g id="a_node3"><a xlink:href="node_8hpp.html" target="_top" xlink:title=" ">
<polygon fill="none" stroke="black" points="0,-56.5 0,-86.5 83,-86.5 83,-56.5 0,-56.5"/>
<text text-anchor="start" x="8" y="-74.5" font-family="Helvetica,sans-Serif" font-size="10.00">yaclib/util/detail</text>
<text text-anchor="middle" x="41.5" y="-63.5" font-family="Helvetica,sans-Serif" font-size="10.00">/node.hpp</text>
</a>
</g>
</g>
<!-- Node2&#45;&gt;Node3 -->
<g id="edge2" class="edge">
<title>Node2&#45;&gt;Node3</title>
<path fill="none" stroke="midnightblue" d="M134.93,-128.73C119.29,-119.32 93.92,-104.05 73.57,-91.8"/>
<polygon fill="midnightblue" stroke="midnightblue" points="75.28,-88.75 64.91,-86.59 71.67,-94.74 75.28,-88.75"/>
</g>
<!-- Node4 -->
<g id="node4" class="node">
<title>Node4</title>
<g id="a_node4"><a xlink:href="func_8hpp.html" target="_top" xlink:title=" ">
<polygon fill="none" stroke="black" points="101,-62 101,-81 198,-81 198,-62 101,-62"/>
<text text-anchor="middle" x="149.5" y="-69" font-family="Helvetica,sans-Serif" font-size="10.00">yaclib/util/func.hpp</text>
</a>
</g>
</g>
<!-- Node2&#45;&gt;Node4 -->
<g id="edge3" class="edge">
<title>Node2&#45;&gt;Node4</title>
<path fill="none" stroke="midnightblue" d="M149.5,-128.73C149.5,-119.18 149.5,-103.62 149.5,-91.28"/>
<polygon fill="midnightblue" stroke="midnightblue" points="153,-91.13 149.5,-81.13 146,-91.13 153,-91.13"/>
</g>
<!-- Node5 -->
<g id="node5" class="node">
<title>Node5</title>
<g id="a_node5"><a xlink:href="ref_8hpp.html" target="_top" xlink:title=" ">
<polygon fill="none" stroke="black" points="51,-0.5 51,-19.5 140,-19.5 140,-0.5 51,-0.5"/>
<text text-anchor="middle" x="95.5" y="-7.5" font-family="Helvetica,sans-Serif" font-size="10.00">yaclib/util/ref.hpp</text>
</a>
</g>
</g>
<!-- Node4&#45;&gt;Node5 -->
<g id="edge4" class="edge">
<title>Node4&#45;&gt;Node5</title>
<path fill="none" stroke="midnightblue" d="M141.76,-61.98C133.5,-52.87 120.22,-38.24 110.01,-26.98"/>
<polygon fill="midnightblue" stroke="midnightblue" points="112.53,-24.56 103.22,-19.51 107.35,-29.27 112.53,-24.56"/>
</g>
<!-- Node6 -->
<g id="node6" class="node">
<title>Node6</title>
<g id="a_node6"><a xlink:title=" ">
<polygon fill="none" stroke="#bfbfbf" points="157.5,-0.5 157.5,-19.5 219.5,-19.5 219.5,-0.5 157.5,-0.5"/>
<text text-anchor="middle" x="188.5" y="-7.5" font-family="Helvetica,sans-Serif" font-size="10.00">type_traits</text>
</a>
</g>
</g>
<!-- Node4&#45;&gt;Node6 -->
<g id="edge5" class="edge">
<title>Node4&#45;&gt;Node6</title>
<path fill="none" stroke="midnightblue" d="M155.09,-61.98C160.88,-53.14 170.09,-39.09 177.37,-27.98"/>
<polygon fill="midnightblue" stroke="midnightblue" points="180.37,-29.79 182.92,-19.51 174.51,-25.95 180.37,-29.79"/>
</g>
<!-- Node4&#45;&gt;Node7 -->
<g id="edge6" class="edge">
<title>Node4&#45;&gt;Node7</title>
<path fill="none" stroke="midnightblue" d="M164.97,-61.98C182.78,-52.17 212.24,-35.93 233.13,-24.42"/>
<polygon fill="midnightblue" stroke="midnightblue" points="234.99,-27.4 242.05,-19.51 231.61,-21.27 234.99,-27.4"/>
</g>
<!-- Node9&#45;&gt;Node6 -->
<g id="edge10" class="edge">
<title>Node9&#45;&gt;Node6</title>
<path fill="none" stroke="midnightblue" d="M241.15,-56.4C230.6,-47.31 216.9,-35.49 206.12,-26.19"/>
<polygon fill="midnightblue" stroke="midnightblue" points="208.4,-23.54 198.54,-19.66 203.83,-28.84 208.4,-23.54"/>
</g>
<!-- Node9&#45;&gt;Node7 -->
<g id="edge11" class="edge">
<title>Node9&#45;&gt;Node7</title>
<path fill="none" stroke="midnightblue" d="M257.5,-56.4C257.5,-48.47 257.5,-38.46 257.5,-29.86"/>
<polygon fill="midnightblue" stroke="midnightblue" points="261,-29.66 257.5,-19.66 254,-29.66 261,-29.66"/>
</g>
<!-- Node10 -->
<g id="node10" class="node">
<title>Node10</title>
<g id="a_node10"><a xlink:title=" ">
<polygon fill="none" stroke="#bfbfbf" points="295.5,-0.5 295.5,-19.5 383.5,-19.5 383.5,-0.5 295.5,-0.5"/>
<text text-anchor="middle" x="339.5" y="-7.5" font-family="Helvetica,sans-Serif" font-size="10.00">yaclib/config.hpp</text>
</a>
</g>
</g>
<!-- Node9&#45;&gt;Node10 -->
<g id="edge9" class="edge">
<title>Node9&#45;&gt;Node10</title>
<path fill="none" stroke="midnightblue" d="M276.93,-56.4C289.71,-47.13 306.39,-35.03 319.31,-25.65"/>
<polygon fill="midnightblue" stroke="midnightblue" points="321.53,-28.36 327.57,-19.66 317.42,-22.7 321.53,-28.36"/>
</g>
</g>
</svg>
