<?xml version="1.0" encoding="UTF-8" standalone="no"?>
<!DOCTYPE svg PUBLIC "-//W3C//DTD SVG 1.1//EN"
 "http://www.w3.org/Graphics/SVG/1.1/DTD/svg11.dtd">
<!-- Generated by graphviz version 3.0.0 (20221109.1736)
 -->
<!-- Title: src/fault/util.hpp Pages: 1 -->
<svg width="888pt" height="95pt"
 viewBox="0.00 0.00 888.00 95.00" xmlns="http://www.w3.org/2000/svg" xmlns:xlink="http://www.w3.org/1999/xlink">
<g id="graph0" class="graph" transform="scale(1 1) rotate(0) translate(4 91)">
<title>src/fault/util.hpp</title>
<!-- Node1 -->
<g id="node1" class="node">
<title>Node1</title>
<g id="a_node1"><a xlink:title=" ">
<polygon fill="#bfbfbf" stroke="black" points="400,-67.5 400,-86.5 486,-86.5 486,-67.5 400,-67.5"/>
<text text-anchor="middle" x="443" y="-74.5" font-family="Helvetica,sans-Serif" font-size="10.00">src/fault/util.hpp</text>
</a>
</g>
</g>
<!-- Node2 -->
<g id="node2" class="node">
<title>Node2</title>
<g id="a_node2"><a xlink:href="atomic_8cpp.html" target="_top" xlink:title=" ">
<polygon fill="none" stroke="black" points="0,-6 0,-25 102,-25 102,-6 0,-6"/>
<text text-anchor="middle" x="51" y="-13" font-family="Helvetica,sans-Serif" font-size="10.00">src/fault/atomic.cpp</text>
</a>
</g>
</g>
<!-- Node1&#45;&gt;Node2 -->
<g id="edge1" class="edge">
<title>Node1&#45;&gt;Node2</title>
<path fill="none" stroke="midnightblue" d="M389.67,-70.47C323.85,-63.26 208.67,-49.37 111,-31 102.05,-29.32 92.43,-27.15 83.57,-25.01"/>
<polygon fill="midnightblue" stroke="midnightblue" points="389.48,-73.97 399.8,-71.57 390.23,-67.02 389.48,-73.97"/>
</g>
<!-- Node3 -->
<g id="node3" class="node">
<title>Node3</title>
<g id="a_node3"><a xlink:href="config_8cpp.html" target="_top" xlink:title=" ">
<polygon fill="none" stroke="black" points="120,-6 120,-25 218,-25 218,-6 120,-6"/>
<text text-anchor="middle" x="169" y="-13" font-family="Helvetica,sans-Serif" font-size="10.00">src/fault/config.cpp</text>
</a>
</g>
</g>
<!-- Node1&#45;&gt;Node3 -->
<g id="edge2" class="edge">
<title>Node1&#45;&gt;Node3</title>
<path fill="none" stroke="midnightblue" d="M390,-65.57C346.2,-56.8 282.42,-43.7 227,-31 218.91,-29.15 210.21,-27.03 202.07,-25.01"/>
<polygon fill="midnightblue" stroke="midnightblue" points="389.37,-69.01 399.86,-67.54 390.74,-62.15 389.37,-69.01"/>
</g>
<!-- Node4 -->
<g id="node4" class="node">
<title>Node4</title>
<g id="a_node4"><a xlink:href="scheduler_8cpp.html" target="_top" xlink:title=" ">
<polygon fill="none" stroke="black" points="236,-6 236,-25 372,-25 372,-6 236,-6"/>
<text text-anchor="middle" x="304" y="-13" font-family="Helvetica,sans-Serif" font-size="10.00">src/fault/fiber/scheduler.cpp</text>
</a>
</g>
</g>
<!-- Node1&#45;&gt;Node4 -->
<g id="edge3" class="edge">
<title>Node1&#45;&gt;Node4</title>
<path fill="none" stroke="midnightblue" d="M413.75,-63.48C386.75,-51.92 347.4,-35.08 323.88,-25.01"/>
<polygon fill="midnightblue" stroke="midnightblue" points="412.51,-66.76 423.08,-67.48 415.27,-60.32 412.51,-66.76"/>
</g>
<!-- Node5 -->
<g id="node5" class="node">
<title>Node5</title>
<g id="a_node5"><a xlink:href="shared__mutex_8cpp.html" target="_top" xlink:title=" ">
<polygon fill="none" stroke="black" points="390.5,-0.5 390.5,-30.5 495.5,-30.5 495.5,-0.5 390.5,-0.5"/>
<text text-anchor="start" x="398.5" y="-18.5" font-family="Helvetica,sans-Serif" font-size="10.00">src/fault/fiber/shared</text>
<text text-anchor="middle" x="443" y="-7.5" font-family="Helvetica,sans-Serif" font-size="10.00">_mutex.cpp</text>
</a>
</g>
</g>
<!-- Node1&#45;&gt;Node5 -->
<g id="edge4" class="edge">
<title>Node1&#45;&gt;Node5</title>
<path fill="none" stroke="midnightblue" d="M443,-57.23C443,-48.59 443,-38.5 443,-30.52"/>
<polygon fill="midnightblue" stroke="midnightblue" points="439.5,-57.48 443,-67.48 446.5,-57.48 439.5,-57.48"/>
</g>
<!-- Node6 -->
<g id="node6" class="node">
<title>Node6</title>
<g id="a_node6"><a xlink:href="injector_8cpp.html" target="_top" xlink:title=" ">
<polygon fill="none" stroke="black" points="514,-6 514,-25 618,-25 618,-6 514,-6"/>
<text text-anchor="middle" x="566" y="-13" font-family="Helvetica,sans-Serif" font-size="10.00">src/fault/injector.cpp</text>
</a>
</g>
</g>
<!-- Node1&#45;&gt;Node6 -->
<g id="edge5" class="edge">
<title>Node1&#45;&gt;Node6</title>
<path fill="none" stroke="midnightblue" d="M469.83,-63.02C493.69,-51.48 527.87,-34.94 548.41,-25.01"/>
<polygon fill="midnightblue" stroke="midnightblue" points="468.1,-59.97 460.62,-67.48 471.15,-66.27 468.1,-59.97"/>
</g>
<!-- Node7 -->
<g id="node7" class="node">
<title>Node7</title>
<g id="a_node7"><a xlink:href="random__device_8cpp.html" target="_top" xlink:title=" ">
<polygon fill="none" stroke="black" points="636.5,-6 636.5,-25 775.5,-25 775.5,-6 636.5,-6"/>
<text text-anchor="middle" x="706" y="-13" font-family="Helvetica,sans-Serif" font-size="10.00">src/fault/random_device.cpp</text>
</a>
</g>
</g>
<!-- Node1&#45;&gt;Node7 -->
<g id="edge6" class="edge">
<title>Node1&#45;&gt;Node7</title>
<path fill="none" stroke="midnightblue" d="M490.48,-65.26C541.5,-53.72 621.55,-35.61 668.39,-25.01"/>
<polygon fill="midnightblue" stroke="midnightblue" points="489.66,-61.85 480.68,-67.48 491.21,-68.68 489.66,-61.85"/>
</g>
<!-- Node8 -->
<g id="node8" class="node">
<title>Node8</title>
<g id="a_node8"><a xlink:href="util_8cpp.html" target="_top" xlink:title=" ">
<polygon fill="none" stroke="black" points="794,-6 794,-25 880,-25 880,-6 794,-6"/>
<text text-anchor="middle" x="837" y="-13" font-family="Helvetica,sans-Serif" font-size="10.00">src/fault/util.cpp</text>
</a>
</g>
</g>
<!-- Node1&#45;&gt;Node8 -->
<g id="edge7" class="edge">
<title>Node1&#45;&gt;Node8</title>
<path fill="none" stroke="midnightblue" d="M496.23,-71.34C563.83,-64.9 683.84,-51.65 785,-31 792.9,-29.39 801.36,-27.22 809.11,-25.06"/>
<polygon fill="midnightblue" stroke="midnightblue" points="495.87,-67.86 486.25,-72.28 496.53,-74.83 495.87,-67.86"/>
</g>
</g>
</svg>
