<?xml version="1.0" encoding="UTF-8" standalone="no"?>
<!DOCTYPE svg PUBLIC "-//W3C//DTD SVG 1.1//EN"
 "http://www.w3.org/Graphics/SVG/1.1/DTD/svg11.dtd">
<!-- Generated by graphviz version 9.0.0 (20230911.1827)
 -->
<!-- Title: src/fault/util.cpp Pages: 1 -->
<svg width="225pt" height="138pt"
 viewBox="0.00 0.00 224.75 137.75" xmlns="http://www.w3.org/2000/svg" xmlns:xlink="http://www.w3.org/1999/xlink">
<g id="graph0" class="graph" transform="scale(1 1) rotate(0) translate(4 133.75)">
<title>src/fault/util.cpp</title>
<!-- Node1 -->
<g id="Node000001" class="node">
<title>Node1</title>
<g id="a_Node000001"><a xlink:title=" ">
<polygon fill="#999999" stroke="#666666" points="170.12,-129.75 85.12,-129.75 85.12,-110.5 170.12,-110.5 170.12,-129.75"/>
<text text-anchor="middle" x="127.62" y="-116.25" font-family="Helvetica,sans-Serif" font-size="10.00">src/fault/util.cpp</text>
</a>
</g>
</g>
<!-- Node2 -->
<g id="Node000002" class="node">
<title>Node2</title>
<g id="a_Node000002"><a xlink:href="util_8hpp.html" target="_top" xlink:title=" ">
<polygon fill="white" stroke="#666666" points="161.88,-74.5 93.38,-74.5 93.38,-55.25 161.88,-55.25 161.88,-74.5"/>
<text text-anchor="middle" x="127.62" y="-61" font-family="Helvetica,sans-Serif" font-size="10.00">fault/util.hpp</text>
</a>
</g>
</g>
<!-- Node1&#45;&gt;Node2 -->
<g id="edge1_Node000001_Node000002" class="edge">
<title>Node1&#45;&gt;Node2</title>
<g id="a_edge1_Node000001_Node000002"><a xlink:title=" ">
<path fill="none" stroke="#63b8ff" d="M127.62,-110.33C127.62,-103.82 127.62,-94.67 127.62,-86.37"/>
<polygon fill="#63b8ff" stroke="#63b8ff" points="131.13,-86.37 127.63,-76.37 124.13,-86.37 131.13,-86.37"/>
</a>
</g>
</g>
<!-- Node3 -->
<g id="Node000003" class="node">
<title>Node3</title>
<g id="a_Node000003"><a xlink:title=" ">
<polygon fill="#e0e0e0" stroke="#999999" points="87.25,-19.25 0,-19.25 0,0 87.25,0 87.25,-19.25"/>
<text text-anchor="middle" x="43.62" y="-5.75" font-family="Helvetica,sans-Serif" font-size="10.00">yaclib/config.hpp</text>
</a>
</g>
</g>
<!-- Node2&#45;&gt;Node3 -->
<g id="edge2_Node000002_Node000003" class="edge">
<title>Node2&#45;&gt;Node3</title>
<g id="a_edge2_Node000002_Node000003"><a xlink:title=" ">
<path fill="none" stroke="#63b8ff" d="M113.38,-54.84C100.83,-46.89 82.29,-35.14 67.48,-25.75"/>
<polygon fill="#63b8ff" stroke="#63b8ff" points="69.54,-22.91 59.22,-20.51 65.79,-28.82 69.54,-22.91"/>
</a>
</g>
</g>
<!-- Node4 -->
<g id="Node000004" class="node">
<title>Node4</title>
<g id="a_Node000004"><a xlink:title=" ">
<polygon fill="#e0e0e0" stroke="#999999" points="150.25,-19.25 105,-19.25 105,0 150.25,0 150.25,-19.25"/>
<text text-anchor="middle" x="127.62" y="-5.75" font-family="Helvetica,sans-Serif" font-size="10.00">atomic</text>
</a>
</g>
</g>
<!-- Node2&#45;&gt;Node4 -->
<g id="edge3_Node000002_Node000004" class="edge">
<title>Node2&#45;&gt;Node4</title>
<g id="a_edge3_Node000002_Node000004"><a xlink:title=" ">
<path fill="none" stroke="#63b8ff" d="M127.62,-55.08C127.62,-48.57 127.62,-39.42 127.62,-31.12"/>
<polygon fill="#63b8ff" stroke="#63b8ff" points="131.13,-31.12 127.63,-21.12 124.13,-31.12 131.13,-31.12"/>
</a>
</g>
</g>
<!-- Node5 -->
<g id="Node000005" class="node">
<title>Node5</title>
<g id="a_Node000005"><a xlink:title=" ">
<polygon fill="#e0e0e0" stroke="#999999" points="216.75,-19.25 168.5,-19.25 168.5,0 216.75,0 216.75,-19.25"/>
<text text-anchor="middle" x="192.62" y="-5.75" font-family="Helvetica,sans-Serif" font-size="10.00">random</text>
</a>
</g>
</g>
<!-- Node2&#45;&gt;Node5 -->
<g id="edge4_Node000002_Node000005" class="edge">
<title>Node2&#45;&gt;Node5</title>
<g id="a_edge4_Node000002_Node000005"><a xlink:title=" ">
<path fill="none" stroke="#63b8ff" d="M138.65,-54.84C148.05,-47.15 161.77,-35.9 173.03,-26.68"/>
<polygon fill="#63b8ff" stroke="#63b8ff" points="175.07,-29.53 180.59,-20.48 170.64,-24.11 175.07,-29.53"/>
</a>
</g>
</g>
</g>
</svg>
