<?xml version="1.0" encoding="UTF-8" standalone="no"?>
<!DOCTYPE svg PUBLIC "-//W3C//DTD SVG 1.1//EN"
 "http://www.w3.org/Graphics/SVG/1.1/DTD/svg11.dtd">
<!-- Generated by graphviz version 9.0.0 (20230911.1827)
 -->
<!-- Title: include/yaclib/async/detail/wait_impl.hpp Pages: 1 -->
<svg width="1691pt" height="438pt"
 viewBox="0.00 0.00 1690.90 437.50" xmlns="http://www.w3.org/2000/svg" xmlns:xlink="http://www.w3.org/1999/xlink">
<g id="graph0" class="graph" transform="scale(1 1) rotate(0) translate(4 433.5)">
<title>include/yaclib/async/detail/wait_impl.hpp</title>
<!-- Node1 -->
<g id="Node000001" class="node">
<title>Node1</title>
<g id="a_Node000001"><a xlink:title=" ">
<polygon fill="#999999" stroke="#666666" points="1467.77,-429.5 1363.27,-429.5 1363.27,-399 1467.77,-399 1467.77,-429.5"/>
<text text-anchor="start" x="1371.27" y="-416" font-family="Helvetica,sans-Serif" font-size="10.00">include/yaclib/async</text>
<text text-anchor="middle" x="1415.52" y="-404.75" font-family="Helvetica,sans-Serif" font-size="10.00">/detail/wait_impl.hpp</text>
</a>
</g>
</g>
<!-- Node2 -->
<g id="Node000002" class="node">
<title>Node2</title>
<g id="a_Node000002"><a xlink:href="wait_8hpp.html" target="_top" xlink:title=" ">
<polygon fill="white" stroke="#666666" points="902.02,-363 799.02,-363 799.02,-332.5 902.02,-332.5 902.02,-363"/>
<text text-anchor="start" x="807.02" y="-349.5" font-family="Helvetica,sans-Serif" font-size="10.00">include/yaclib/async</text>
<text text-anchor="middle" x="850.52" y="-338.25" font-family="Helvetica,sans-Serif" font-size="10.00">/wait.hpp</text>
</a>
</g>
</g>
<!-- Node1&#45;&gt;Node2 -->
<g id="edge1_Node000001_Node000002" class="edge">
<title>Node1&#45;&gt;Node2</title>
<g id="a_edge1_Node000001_Node000002"><a xlink:title=" ">
<path fill="none" stroke="#63b8ff" d="M1351.68,-405.96C1238.81,-393.08 1006.15,-366.52 902.42,-354.67"/>
<polygon fill="#63b8ff" stroke="#63b8ff" points="1351.04,-409.41 1361.37,-407.07 1351.83,-402.46 1351.04,-409.41"/>
</a>
</g>
</g>
<!-- Node17 -->
<g id="Node000017" class="node">
<title>Node17</title>
<g id="a_Node000017"><a xlink:href="wait__for_8hpp.html" target="_top" xlink:title=" ">
<polygon fill="white" stroke="#666666" points="1448.02,-230 1345.02,-230 1345.02,-199.5 1448.02,-199.5 1448.02,-230"/>
<text text-anchor="start" x="1353.02" y="-216.5" font-family="Helvetica,sans-Serif" font-size="10.00">include/yaclib/async</text>
<text text-anchor="middle" x="1396.52" y="-205.25" font-family="Helvetica,sans-Serif" font-size="10.00">/wait_for.hpp</text>
</a>
</g>
</g>
<!-- Node1&#45;&gt;Node17 -->
<g id="edge44_Node000001_Node000017" class="edge">
<title>Node1&#45;&gt;Node17</title>
<g id="a_edge44_Node000001_Node000017"><a xlink:title=" ">
<path fill="none" stroke="#63b8ff" d="M1413.02,-387.27C1408.97,-345.19 1401.11,-263.49 1397.92,-230.29"/>
<polygon fill="#63b8ff" stroke="#63b8ff" points="1409.54,-387.6 1413.98,-397.22 1416.5,-386.93 1409.54,-387.6"/>
</a>
</g>
</g>
<!-- Node18 -->
<g id="Node000018" class="node">
<title>Node18</title>
<g id="a_Node000018"><a xlink:href="wait__until_8hpp.html" target="_top" xlink:title=" ">
<polygon fill="white" stroke="#666666" points="1569.02,-230 1466.02,-230 1466.02,-199.5 1569.02,-199.5 1569.02,-230"/>
<text text-anchor="start" x="1474.02" y="-216.5" font-family="Helvetica,sans-Serif" font-size="10.00">include/yaclib/async</text>
<text text-anchor="middle" x="1517.52" y="-205.25" font-family="Helvetica,sans-Serif" font-size="10.00">/wait_until.hpp</text>
</a>
</g>
</g>
<!-- Node1&#45;&gt;Node18 -->
<g id="edge45_Node000001_Node000018" class="edge">
<title>Node1&#45;&gt;Node18</title>
<g id="a_edge45_Node000001_Node000018"><a xlink:title=" ">
<path fill="none" stroke="#63b8ff" d="M1426.76,-388.34C1434.13,-372.28 1444.1,-351.01 1453.52,-332.5 1472.49,-295.21 1496.63,-252.29 1509.14,-230.34"/>
<polygon fill="#63b8ff" stroke="#63b8ff" points="1423.71,-386.6 1422.74,-397.15 1430.08,-389.51 1423.71,-386.6"/>
</a>
</g>
</g>
<!-- Node30 -->
<g id="Node000030" class="node">
<title>Node30</title>
<g id="a_Node000030"><a xlink:href="wait__impl_8cpp.html" target="_top" xlink:title=" ">
<polygon fill="white" stroke="#666666" points="1582.65,-357.38 1462.4,-357.38 1462.4,-338.12 1582.65,-338.12 1582.65,-357.38"/>
<text text-anchor="middle" x="1522.52" y="-343.88" font-family="Helvetica,sans-Serif" font-size="10.00">src/async/wait_impl.cpp</text>
</a>
</g>
</g>
<!-- Node1&#45;&gt;Node30 -->
<g id="edge46_Node000001_Node000030" class="edge">
<title>Node1&#45;&gt;Node30</title>
<g id="a_edge46_Node000001_Node000030"><a xlink:title=" ">
<path fill="none" stroke="#63b8ff" d="M1449.58,-392.72C1469.1,-380.95 1492.62,-366.77 1507.57,-357.76"/>
<polygon fill="#63b8ff" stroke="#63b8ff" points="1447.85,-389.67 1441.1,-397.83 1451.47,-395.67 1447.85,-389.67"/>
</a>
</g>
</g>
<!-- Node3 -->
<g id="Node000003" class="node">
<title>Node3</title>
<g id="a_Node000003"><a xlink:href="async_2future_8hpp.html" target="_top" xlink:title=" ">
<polygon fill="white" stroke="#666666" points="902.02,-296.5 799.02,-296.5 799.02,-266 902.02,-266 902.02,-296.5"/>
<text text-anchor="start" x="807.02" y="-283" font-family="Helvetica,sans-Serif" font-size="10.00">include/yaclib/async</text>
<text text-anchor="middle" x="850.52" y="-271.75" font-family="Helvetica,sans-Serif" font-size="10.00">/future.hpp</text>
</a>
</g>
</g>
<!-- Node2&#45;&gt;Node3 -->
<g id="edge2_Node000002_Node000003" class="edge">
<title>Node2&#45;&gt;Node3</title>
<g id="a_edge2_Node000002_Node000003"><a xlink:title=" ">
<path fill="none" stroke="#63b8ff" d="M843.89,-320.81C843.58,-312.64 843.88,-303.91 844.77,-296.83"/>
<polygon fill="#63b8ff" stroke="#63b8ff" points="840.38,-320.9 844.64,-330.6 847.36,-320.37 840.38,-320.9"/>
</a>
</g>
</g>
<!-- Node3&#45;&gt;Node2 -->
<g id="edge21_Node000003_Node000002" class="edge">
<title>Node3&#45;&gt;Node2</title>
<g id="a_edge21_Node000003_Node000002"><a xlink:title=" ">
<path fill="none" stroke="#63b8ff" d="M857.15,-308.13C857.46,-316.29 857.17,-325.02 856.28,-332.11"/>
<polygon fill="#63b8ff" stroke="#63b8ff" points="860.66,-308.04 856.39,-298.34 853.68,-308.58 860.66,-308.04"/>
</a>
</g>
</g>
<!-- Node4 -->
<g id="Node000004" class="node">
<title>Node4</title>
<g id="a_Node000004"><a xlink:href="wait__group_8hpp.html" target="_top" xlink:title=" ">
<polygon fill="white" stroke="#666666" points="1327.27,-230 1231.77,-230 1231.77,-199.5 1327.27,-199.5 1327.27,-230"/>
<text text-anchor="start" x="1239.77" y="-216.5" font-family="Helvetica,sans-Serif" font-size="10.00">include/yaclib/algo</text>
<text text-anchor="middle" x="1279.52" y="-205.25" font-family="Helvetica,sans-Serif" font-size="10.00">/wait_group.hpp</text>
</a>
</g>
</g>
<!-- Node3&#45;&gt;Node4 -->
<g id="edge3_Node000003_Node000004" class="edge">
<title>Node3&#45;&gt;Node4</title>
<g id="a_edge3_Node000003_Node000004"><a xlink:title=" ">
<path fill="none" stroke="#63b8ff" d="M913.74,-273.34C987.09,-264.93 1111.54,-249.39 1217.52,-230 1222.08,-229.16 1226.82,-228.22 1231.54,-227.22"/>
<polygon fill="#63b8ff" stroke="#63b8ff" points="913.46,-269.85 903.92,-274.46 914.25,-276.81 913.46,-269.85"/>
</a>
</g>
</g>
<!-- Node6 -->
<g id="Node000006" class="node">
<title>Node6</title>
<g id="a_Node000006"><a xlink:href="contract_8hpp.html" target="_top" xlink:title=" ">
<polygon fill="white" stroke="#666666" points="119.02,-230 16.02,-230 16.02,-199.5 119.02,-199.5 119.02,-230"/>
<text text-anchor="start" x="24.02" y="-216.5" font-family="Helvetica,sans-Serif" font-size="10.00">include/yaclib/async</text>
<text text-anchor="middle" x="67.52" y="-205.25" font-family="Helvetica,sans-Serif" font-size="10.00">/contract.hpp</text>
</a>
</g>
</g>
<!-- Node3&#45;&gt;Node6 -->
<g id="edge5_Node000003_Node000006" class="edge">
<title>Node3&#45;&gt;Node6</title>
<g id="a_edge5_Node000003_Node000006"><a xlink:title=" ">
<path fill="none" stroke="#63b8ff" d="M787.61,-279.34C661.63,-276.74 369.67,-266.92 127.52,-230 124.87,-229.6 122.17,-229.14 119.45,-228.63"/>
<polygon fill="#63b8ff" stroke="#63b8ff" points="787.34,-282.83 797.41,-279.53 787.48,-275.83 787.34,-282.83"/>
</a>
</g>
</g>
<!-- Node7 -->
<g id="Node000007" class="node">
<title>Node7</title>
<g id="a_Node000007"><a xlink:href="simple_8cpp.html" target="_top" xlink:title=" ">
<polygon fill="white" stroke="#666666" points="117.52,-163.5 17.52,-163.5 17.52,-133 117.52,-133 117.52,-163.5"/>
<text text-anchor="start" x="25.52" y="-150" font-family="Helvetica,sans-Serif" font-size="10.00">test/example/async</text>
<text text-anchor="middle" x="67.52" y="-138.75" font-family="Helvetica,sans-Serif" font-size="10.00">/simple.cpp</text>
</a>
</g>
</g>
<!-- Node3&#45;&gt;Node7 -->
<g id="edge43_Node000003_Node000007" class="edge">
<title>Node3&#45;&gt;Node7</title>
<g id="a_edge43_Node000003_Node000007"><a xlink:title=" ">
<path fill="none" stroke="#63b8ff" d="M787.44,-278.83C596.02,-274.24 33.23,-258.35 6.52,-230 -13.72,-208.52 18.87,-180.45 43.68,-163.7"/>
<polygon fill="#63b8ff" stroke="#63b8ff" points="787.1,-282.33 797.18,-279.07 787.27,-275.33 787.1,-282.33"/>
</a>
</g>
</g>
<!-- Node8 -->
<g id="Node000008" class="node">
<title>Node8</title>
<g id="a_Node000008"><a xlink:href="when__impl_8hpp.html" target="_top" xlink:title=" ">
<polygon fill="white" stroke="#666666" points="502.4,-230 392.65,-230 392.65,-199.5 502.4,-199.5 502.4,-230"/>
<text text-anchor="start" x="400.65" y="-216.5" font-family="Helvetica,sans-Serif" font-size="10.00">include/yaclib/async</text>
<text text-anchor="middle" x="447.52" y="-205.25" font-family="Helvetica,sans-Serif" font-size="10.00">/detail/when_impl.hpp</text>
</a>
</g>
</g>
<!-- Node3&#45;&gt;Node8 -->
<g id="edge7_Node000003_Node000008" class="edge">
<title>Node3&#45;&gt;Node8</title>
<g id="a_edge7_Node000003_Node000008"><a xlink:title=" ">
<path fill="none" stroke="#63b8ff" d="M787.76,-272.42C719.35,-263.55 606.78,-247.97 510.52,-230 507.98,-229.53 505.4,-229.02 502.79,-228.5"/>
<polygon fill="#63b8ff" stroke="#63b8ff" points="786.9,-275.84 797.26,-273.65 787.79,-268.9 786.9,-275.84"/>
</a>
</g>
</g>
<!-- Node10 -->
<g id="Node000010" class="node">
<title>Node10</title>
<g id="a_Node000010"><a xlink:href="when__all_8hpp.html" target="_top" xlink:title=" ">
<polygon fill="white" stroke="#666666" points="568.02,-97 465.02,-97 465.02,-66.5 568.02,-66.5 568.02,-97"/>
<text text-anchor="start" x="473.02" y="-83.5" font-family="Helvetica,sans-Serif" font-size="10.00">include/yaclib/async</text>
<text text-anchor="middle" x="516.52" y="-72.25" font-family="Helvetica,sans-Serif" font-size="10.00">/when_all.hpp</text>
</a>
</g>
</g>
<!-- Node3&#45;&gt;Node10 -->
<g id="edge24_Node000003_Node000010" class="edge">
<title>Node3&#45;&gt;Node10</title>
<g id="a_edge24_Node000003_Node000010"><a xlink:title=" ">
<path fill="none" stroke="#63b8ff" d="M793.41,-261.5C772.71,-253.4 749.72,-242.81 730.52,-230 679.54,-195.98 683.29,-167.33 632.52,-133 610.43,-118.06 583.18,-105.99 560.64,-97.42"/>
<polygon fill="#63b8ff" stroke="#63b8ff" points="791.98,-264.7 802.58,-264.97 794.46,-258.16 791.98,-264.7"/>
</a>
</g>
</g>
<!-- Node13 -->
<g id="Node000013" class="node">
<title>Node13</title>
<g id="a_Node000013"><a xlink:href="when__any_8hpp.html" target="_top" xlink:title=" ">
<polygon fill="white" stroke="#666666" points="339.02,-97 236.02,-97 236.02,-66.5 339.02,-66.5 339.02,-97"/>
<text text-anchor="start" x="244.02" y="-83.5" font-family="Helvetica,sans-Serif" font-size="10.00">include/yaclib/async</text>
<text text-anchor="middle" x="287.52" y="-72.25" font-family="Helvetica,sans-Serif" font-size="10.00">/when_any.hpp</text>
</a>
</g>
</g>
<!-- Node3&#45;&gt;Node13 -->
<g id="edge25_Node000003_Node000013" class="edge">
<title>Node3&#45;&gt;Node13</title>
<g id="a_edge25_Node000003_Node000013"><a xlink:title=" ">
<path fill="none" stroke="#63b8ff" d="M787.52,-277.29C677.72,-271.5 456.1,-256.83 383.52,-230 334.49,-211.88 310.88,-209.74 286.52,-163.5 275.54,-142.66 279.4,-114.4 283.35,-97.43"/>
<polygon fill="#63b8ff" stroke="#63b8ff" points="787.06,-280.77 797.23,-277.79 787.43,-273.78 787.06,-280.77"/>
</a>
</g>
</g>
<!-- Node15 -->
<g id="Node000015" class="node">
<title>Node15</title>
<g id="a_Node000015"><a xlink:href="async_2make_8hpp.html" target="_top" xlink:title=" ">
<polygon fill="white" stroke="#666666" points="623.02,-230 520.02,-230 520.02,-199.5 623.02,-199.5 623.02,-230"/>
<text text-anchor="start" x="528.02" y="-216.5" font-family="Helvetica,sans-Serif" font-size="10.00">include/yaclib/async</text>
<text text-anchor="middle" x="571.52" y="-205.25" font-family="Helvetica,sans-Serif" font-size="10.00">/make.hpp</text>
</a>
</g>
</g>
<!-- Node3&#45;&gt;Node15 -->
<g id="edge16_Node000003_Node000015" class="edge">
<title>Node3&#45;&gt;Node15</title>
<g id="a_edge16_Node000003_Node000015"><a xlink:title=" ">
<path fill="none" stroke="#63b8ff" d="M787.77,-265.74C738.09,-254.26 669.57,-238.42 623.07,-227.67"/>
<polygon fill="#63b8ff" stroke="#63b8ff" points="786.69,-269.09 797.22,-267.93 788.27,-262.27 786.69,-269.09"/>
</a>
</g>
</g>
<!-- Node16 -->
<g id="Node000016" class="node">
<title>Node16</title>
<g id="a_Node000016"><a xlink:href="run_8hpp.html" target="_top" xlink:title=" ">
<polygon fill="white" stroke="#666666" points="240.02,-230 137.02,-230 137.02,-199.5 240.02,-199.5 240.02,-230"/>
<text text-anchor="start" x="145.02" y="-216.5" font-family="Helvetica,sans-Serif" font-size="10.00">include/yaclib/async</text>
<text text-anchor="middle" x="188.52" y="-205.25" font-family="Helvetica,sans-Serif" font-size="10.00">/run.hpp</text>
</a>
</g>
</g>
<!-- Node3&#45;&gt;Node16 -->
<g id="edge17_Node000003_Node000016" class="edge">
<title>Node3&#45;&gt;Node16</title>
<g id="a_edge17_Node000003_Node000016"><a xlink:title=" ">
<path fill="none" stroke="#63b8ff" d="M787.4,-277.6C678.28,-272.42 447.49,-258.85 254.52,-230 249.88,-229.31 245.08,-228.48 240.29,-227.58"/>
<polygon fill="#63b8ff" stroke="#63b8ff" points="787.18,-281.09 797.33,-278.06 787.5,-274.1 787.18,-281.09"/>
</a>
</g>
</g>
<!-- Node3&#45;&gt;Node17 -->
<g id="edge22_Node000003_Node000017" class="edge">
<title>Node3&#45;&gt;Node17</title>
<g id="a_edge22_Node000003_Node000017"><a xlink:title=" ">
<path fill="none" stroke="#63b8ff" d="M913.71,-276.35C1006.77,-270.02 1185.95,-255.55 1336.52,-230 1339.16,-229.55 1341.85,-229.06 1344.57,-228.52"/>
<polygon fill="#63b8ff" stroke="#63b8ff" points="913.5,-272.86 903.76,-277.02 913.97,-279.84 913.5,-272.86"/>
</a>
</g>
</g>
<!-- Node3&#45;&gt;Node18 -->
<g id="edge23_Node000003_Node000018" class="edge">
<title>Node3&#45;&gt;Node18</title>
<g id="a_edge23_Node000003_Node000018"><a xlink:title=" ">
<path fill="none" stroke="#63b8ff" d="M913.68,-278.15C1024.42,-273.78 1260.6,-261.35 1457.52,-230 1460.16,-229.58 1462.86,-229.1 1465.58,-228.59"/>
<polygon fill="#63b8ff" stroke="#63b8ff" points="913.77,-274.65 903.91,-278.53 914.04,-281.64 913.77,-274.65"/>
</a>
</g>
</g>
<!-- Node19 -->
<g id="Node000019" class="node">
<title>Node19</title>
<g id="a_Node000019"><a xlink:href="await_8hpp.html" target="_top" xlink:title=" ">
<polygon fill="white" stroke="#666666" points="770.65,-97 674.4,-97 674.4,-66.5 770.65,-66.5 770.65,-97"/>
<text text-anchor="start" x="682.4" y="-83.5" font-family="Helvetica,sans-Serif" font-size="10.00">include/yaclib/coro</text>
<text text-anchor="middle" x="722.52" y="-72.25" font-family="Helvetica,sans-Serif" font-size="10.00">/await.hpp</text>
</a>
</g>
</g>
<!-- Node3&#45;&gt;Node19 -->
<g id="edge26_Node000003_Node000019" class="edge">
<title>Node3&#45;&gt;Node19</title>
<g id="a_edge26_Node000003_Node000019"><a xlink:title=" ">
<path fill="none" stroke="#63b8ff" d="M810.12,-260.17C775.97,-240.69 729.37,-207.62 708.52,-163.5 698.37,-142.02 707.42,-114.2 714.94,-97.45"/>
<polygon fill="#63b8ff" stroke="#63b8ff" points="808.07,-263.03 818.51,-264.8 811.45,-256.9 808.07,-263.03"/>
</a>
</g>
</g>
<!-- Node20 -->
<g id="Node000020" class="node">
<title>Node20</title>
<g id="a_Node000020"><a xlink:href="await__on_8hpp.html" target="_top" xlink:title=" ">
<polygon fill="white" stroke="#666666" points="958.65,-97 862.4,-97 862.4,-66.5 958.65,-66.5 958.65,-97"/>
<text text-anchor="start" x="870.4" y="-83.5" font-family="Helvetica,sans-Serif" font-size="10.00">include/yaclib/coro</text>
<text text-anchor="middle" x="910.52" y="-72.25" font-family="Helvetica,sans-Serif" font-size="10.00">/await_on.hpp</text>
</a>
</g>
</g>
<!-- Node3&#45;&gt;Node20 -->
<g id="edge27_Node000003_Node000020" class="edge">
<title>Node3&#45;&gt;Node20</title>
<g id="a_edge27_Node000003_Node000020"><a xlink:title=" ">
<path fill="none" stroke="#63b8ff" d="M855.78,-254.81C862.22,-225.16 874.05,-174.89 888.52,-133 892.75,-120.76 898.69,-107.34 903.34,-97.45"/>
<polygon fill="#63b8ff" stroke="#63b8ff" points="852.42,-253.82 853.76,-264.33 859.26,-255.28 852.42,-253.82"/>
</a>
</g>
</g>
<!-- Node21 -->
<g id="Node000021" class="node">
<title>Node21</title>
<g id="a_Node000021"><a xlink:href="await__awaiter_8hpp.html" target="_top" xlink:title=" ">
<polygon fill="white" stroke="#666666" points="841.15,-163.5 717.9,-163.5 717.9,-133 841.15,-133 841.15,-163.5"/>
<text text-anchor="start" x="725.9" y="-150" font-family="Helvetica,sans-Serif" font-size="10.00">include/yaclib/coro</text>
<text text-anchor="middle" x="779.52" y="-138.75" font-family="Helvetica,sans-Serif" font-size="10.00">/detail/await_awaiter.hpp</text>
</a>
</g>
</g>
<!-- Node3&#45;&gt;Node21 -->
<g id="edge28_Node000003_Node000021" class="edge">
<title>Node3&#45;&gt;Node21</title>
<g id="a_edge28_Node000003_Node000021"><a xlink:title=" ">
<path fill="none" stroke="#63b8ff" d="M837.31,-255.88C822.66,-228.84 799.49,-186.1 787.42,-163.83"/>
<polygon fill="#63b8ff" stroke="#63b8ff" points="834.09,-257.28 841.93,-264.4 840.24,-253.94 834.09,-257.28"/>
</a>
</g>
</g>
<!-- Node22 -->
<g id="Node000022" class="node">
<title>Node22</title>
<g id="a_Node000022"><a xlink:href="await__on__awaiter_8hpp.html" target="_top" xlink:title=" ">
<polygon fill="white" stroke="#666666" points="1037.02,-163.5 898.02,-163.5 898.02,-133 1037.02,-133 1037.02,-163.5"/>
<text text-anchor="start" x="906.02" y="-150" font-family="Helvetica,sans-Serif" font-size="10.00">include/yaclib/coro</text>
<text text-anchor="middle" x="967.52" y="-138.75" font-family="Helvetica,sans-Serif" font-size="10.00">/detail/await_on_awaiter.hpp</text>
</a>
</g>
</g>
<!-- Node3&#45;&gt;Node22 -->
<g id="edge30_Node000003_Node000022" class="edge">
<title>Node3&#45;&gt;Node22</title>
<g id="a_edge30_Node000003_Node000022"><a xlink:title=" ">
<path fill="none" stroke="#63b8ff" d="M871.02,-257.3C895.08,-230.36 934.25,-186.5 954.49,-163.83"/>
<polygon fill="#63b8ff" stroke="#63b8ff" points="868.55,-254.81 864.5,-264.6 873.77,-259.47 868.55,-254.81"/>
</a>
</g>
</g>
<!-- Node23 -->
<g id="Node000023" class="node">
<title>Node23</title>
<g id="a_Node000023"><a xlink:href="coro_2future_8hpp.html" target="_top" xlink:title=" ">
<polygon fill="white" stroke="#666666" points="1545.65,-163.5 1449.4,-163.5 1449.4,-133 1545.65,-133 1545.65,-163.5"/>
<text text-anchor="start" x="1457.4" y="-150" font-family="Helvetica,sans-Serif" font-size="10.00">include/yaclib/coro</text>
<text text-anchor="middle" x="1497.52" y="-138.75" font-family="Helvetica,sans-Serif" font-size="10.00">/future.hpp</text>
</a>
</g>
</g>
<!-- Node3&#45;&gt;Node23 -->
<g id="edge32_Node000003_Node000023" class="edge">
<title>Node3&#45;&gt;Node23</title>
<g id="a_edge32_Node000003_Node000023"><a xlink:title=" ">
<path fill="none" stroke="#63b8ff" d="M913.45,-280.43C982.68,-278.48 1095.86,-268.83 1184.52,-230 1204.36,-221.31 1202.75,-208.33 1222.52,-199.5 1312.19,-159.46 1344.36,-183.43 1440.52,-163.5 1443.32,-162.92 1446.18,-162.3 1449.07,-161.65"/>
<polygon fill="#63b8ff" stroke="#63b8ff" points="913.74,-276.93 903.83,-280.66 913.91,-283.92 913.74,-276.93"/>
</a>
</g>
</g>
<!-- Node24 -->
<g id="Node000024" class="node">
<title>Node24</title>
<g id="a_Node000024"><a xlink:href="lazy_2task_8hpp.html" target="_top" xlink:title=" ">
<polygon fill="white" stroke="#666666" points="1029.52,-230 935.52,-230 935.52,-199.5 1029.52,-199.5 1029.52,-230"/>
<text text-anchor="start" x="943.52" y="-216.5" font-family="Helvetica,sans-Serif" font-size="10.00">include/yaclib/lazy</text>
<text text-anchor="middle" x="982.52" y="-205.25" font-family="Helvetica,sans-Serif" font-size="10.00">/task.hpp</text>
</a>
</g>
</g>
<!-- Node3&#45;&gt;Node24 -->
<g id="edge33_Node000003_Node000024" class="edge">
<title>Node3&#45;&gt;Node24</title>
<g id="a_edge33_Node000003_Node000024"><a xlink:title=" ">
<path fill="none" stroke="#63b8ff" d="M890.81,-260.56C910.75,-250.82 934.4,-239.26 952.69,-230.33"/>
<polygon fill="#63b8ff" stroke="#63b8ff" points="889.28,-257.41 881.83,-264.95 892.35,-263.7 889.28,-257.41"/>
</a>
</g>
</g>
<!-- Node29 -->
<g id="Node000029" class="node">
<title>Node29</title>
<g id="a_Node000029"><a xlink:href="future__impl_8cpp.html" target="_top" xlink:title=" ">
<polygon fill="white" stroke="#666666" points="1175.02,-224.38 1048.02,-224.38 1048.02,-205.12 1175.02,-205.12 1175.02,-224.38"/>
<text text-anchor="middle" x="1111.52" y="-210.88" font-family="Helvetica,sans-Serif" font-size="10.00">src/async/future_impl.cpp</text>
</a>
</g>
</g>
<!-- Node3&#45;&gt;Node29 -->
<g id="edge42_Node000003_Node000029" class="edge">
<title>Node3&#45;&gt;Node29</title>
<g id="a_edge42_Node000003_Node000029"><a xlink:title=" ">
<path fill="none" stroke="#63b8ff" d="M913.51,-264.68C963.99,-252.21 1033.07,-235.14 1074.88,-224.81"/>
<polygon fill="#63b8ff" stroke="#63b8ff" points="912.73,-261.27 903.87,-267.07 914.41,-268.07 912.73,-261.27"/>
</a>
</g>
</g>
<!-- Node5 -->
<g id="Node000005" class="node">
<title>Node5</title>
<g id="a_Node000005"><a xlink:href="wait__group_8cpp.html" target="_top" xlink:title=" ">
<polygon fill="white" stroke="#666666" points="1682.9,-157.88 1564.15,-157.88 1564.15,-138.62 1682.9,-138.62 1682.9,-157.88"/>
<text text-anchor="middle" x="1623.52" y="-144.38" font-family="Helvetica,sans-Serif" font-size="10.00">src/algo/wait_group.cpp</text>
</a>
</g>
</g>
<!-- Node4&#45;&gt;Node5 -->
<g id="edge4_Node000004_Node000005" class="edge">
<title>Node4&#45;&gt;Node5</title>
<g id="a_edge4_Node000004_Node000005"><a xlink:title=" ">
<path fill="none" stroke="#63b8ff" d="M1338.74,-199.15C1434.6,-179.68 1461.46,-180.79 1554.52,-163.5 1563.06,-161.91 1572.17,-160.11 1580.88,-158.33"/>
<polygon fill="#63b8ff" stroke="#63b8ff" points="1338.23,-195.68 1329.14,-201.12 1339.64,-202.53 1338.23,-195.68"/>
</a>
</g>
</g>
<!-- Node6&#45;&gt;Node7 -->
<g id="edge6_Node000006_Node000007" class="edge">
<title>Node6&#45;&gt;Node7</title>
<g id="a_edge6_Node000006_Node000007"><a xlink:title=" ">
<path fill="none" stroke="#63b8ff" d="M67.52,-187.81C67.52,-179.64 67.52,-170.91 67.52,-163.83"/>
<polygon fill="#63b8ff" stroke="#63b8ff" points="64.02,-187.6 67.52,-197.6 71.02,-187.6 64.02,-187.6"/>
</a>
</g>
</g>
<!-- Node9 -->
<g id="Node000009" class="node">
<title>Node9</title>
<g id="a_Node000009"><a xlink:href="when__all__impl_8hpp.html" target="_top" xlink:title=" ">
<polygon fill="white" stroke="#666666" points="623.9,-163.5 499.15,-163.5 499.15,-133 623.9,-133 623.9,-163.5"/>
<text text-anchor="start" x="507.15" y="-150" font-family="Helvetica,sans-Serif" font-size="10.00">include/yaclib/async</text>
<text text-anchor="middle" x="561.52" y="-138.75" font-family="Helvetica,sans-Serif" font-size="10.00">/detail/when_all_impl.hpp</text>
</a>
</g>
</g>
<!-- Node8&#45;&gt;Node9 -->
<g id="edge8_Node000008_Node000009" class="edge">
<title>Node8&#45;&gt;Node9</title>
<g id="a_edge8_Node000008_Node000009"><a xlink:title=" ">
<path fill="none" stroke="#63b8ff" d="M483.03,-193.66C500.1,-184 520.18,-172.64 535.75,-163.83"/>
<polygon fill="#63b8ff" stroke="#63b8ff" points="481.69,-190.4 474.71,-198.37 485.13,-196.49 481.69,-190.4"/>
</a>
</g>
</g>
<!-- Node8&#45;&gt;Node10 -->
<g id="edge14_Node000008_Node000010" class="edge">
<title>Node8&#45;&gt;Node10</title>
<g id="a_edge14_Node000008_Node000010"><a xlink:title=" ">
<path fill="none" stroke="#63b8ff" d="M460.36,-189.38C474.6,-162.34 497.11,-119.6 508.84,-97.33"/>
<polygon fill="#63b8ff" stroke="#63b8ff" points="457.44,-187.41 455.87,-197.89 463.63,-190.67 457.44,-187.41"/>
</a>
</g>
</g>
<!-- Node12 -->
<g id="Node000012" class="node">
<title>Node12</title>
<g id="a_Node000012"><a xlink:href="when__any__impl_8hpp.html" target="_top" xlink:title=" ">
<polygon fill="white" stroke="#666666" points="443.52,-163.5 313.52,-163.5 313.52,-133 443.52,-133 443.52,-163.5"/>
<text text-anchor="start" x="321.52" y="-150" font-family="Helvetica,sans-Serif" font-size="10.00">include/yaclib/async</text>
<text text-anchor="middle" x="378.52" y="-138.75" font-family="Helvetica,sans-Serif" font-size="10.00">/detail/when_any_impl.hpp</text>
</a>
</g>
</g>
<!-- Node8&#45;&gt;Node12 -->
<g id="edge11_Node000008_Node000012" class="edge">
<title>Node8&#45;&gt;Node12</title>
<g id="a_edge11_Node000008_Node000012"><a xlink:title=" ">
<path fill="none" stroke="#63b8ff" d="M423.68,-191.46C413.89,-182.32 402.84,-171.98 394.12,-163.83"/>
<polygon fill="#63b8ff" stroke="#63b8ff" points="421.06,-193.81 430.76,-198.08 425.84,-188.69 421.06,-193.81"/>
</a>
</g>
</g>
<!-- Node8&#45;&gt;Node13 -->
<g id="edge15_Node000008_Node000013" class="edge">
<title>Node8&#45;&gt;Node13</title>
<g id="a_edge15_Node000008_Node000013"><a xlink:title=" ">
<path fill="none" stroke="#63b8ff" d="M381.18,-204.98C353.79,-198.05 323.97,-185.67 304.52,-163.5 288.36,-145.09 286.21,-115.24 286.55,-97.45"/>
<polygon fill="#63b8ff" stroke="#63b8ff" points="380.32,-208.37 390.85,-207.2 381.89,-201.55 380.32,-208.37"/>
</a>
</g>
</g>
<!-- Node9&#45;&gt;Node10 -->
<g id="edge9_Node000009_Node000010" class="edge">
<title>Node9&#45;&gt;Node10</title>
<g id="a_edge9_Node000009_Node000010"><a xlink:title=" ">
<path fill="none" stroke="#63b8ff" d="M544.8,-123.29C538.72,-114.57 532.03,-104.99 526.69,-97.33"/>
<polygon fill="#63b8ff" stroke="#63b8ff" points="541.85,-125.17 550.44,-131.37 547.59,-121.17 541.85,-125.17"/>
</a>
</g>
</g>
<!-- Node11 -->
<g id="Node000011" class="node">
<title>Node11</title>
<g id="a_Node000011"><a xlink:href="when__all_8cpp.html" target="_top" xlink:title=" ">
<polygon fill="white" stroke="#666666" points="457.52,-30.5 357.52,-30.5 357.52,0 457.52,0 457.52,-30.5"/>
<text text-anchor="start" x="365.52" y="-17" font-family="Helvetica,sans-Serif" font-size="10.00">test/example/async</text>
<text text-anchor="middle" x="407.52" y="-5.75" font-family="Helvetica,sans-Serif" font-size="10.00">/when_all.cpp</text>
</a>
</g>
</g>
<!-- Node10&#45;&gt;Node11 -->
<g id="edge10_Node000010_Node000011" class="edge">
<title>Node10&#45;&gt;Node11</title>
<g id="a_edge10_Node000010_Node000011"><a xlink:title=" ">
<path fill="none" stroke="#63b8ff" d="M482.11,-60.39C465.89,-50.79 446.91,-39.56 432.16,-30.83"/>
<polygon fill="#63b8ff" stroke="#63b8ff" points="480.1,-63.26 490.48,-65.34 483.66,-57.24 480.1,-63.26"/>
</a>
</g>
</g>
<!-- Node12&#45;&gt;Node13 -->
<g id="edge12_Node000012_Node000013" class="edge">
<title>Node12&#45;&gt;Node13</title>
<g id="a_edge12_Node000012_Node000013"><a xlink:title=" ">
<path fill="none" stroke="#63b8ff" d="M348.63,-126.07C335.36,-116.66 320.06,-105.81 308.09,-97.33"/>
<polygon fill="#63b8ff" stroke="#63b8ff" points="346.45,-128.81 356.64,-131.74 350.5,-123.1 346.45,-128.81"/>
</a>
</g>
</g>
<!-- Node14 -->
<g id="Node000014" class="node">
<title>Node14</title>
<g id="a_Node000014"><a xlink:href="when__any_8cpp.html" target="_top" xlink:title=" ">
<polygon fill="white" stroke="#666666" points="278.52,-30.5 178.52,-30.5 178.52,0 278.52,0 278.52,-30.5"/>
<text text-anchor="start" x="186.52" y="-17" font-family="Helvetica,sans-Serif" font-size="10.00">test/example/async</text>
<text text-anchor="middle" x="228.52" y="-5.75" font-family="Helvetica,sans-Serif" font-size="10.00">/when_any.cpp</text>
</a>
</g>
</g>
<!-- Node13&#45;&gt;Node14 -->
<g id="edge13_Node000013_Node000014" class="edge">
<title>Node13&#45;&gt;Node14</title>
<g id="a_edge13_Node000013_Node000014"><a xlink:title=" ">
<path fill="none" stroke="#63b8ff" d="M266.37,-57.63C258.2,-48.69 249.09,-38.74 241.86,-30.83"/>
<polygon fill="#63b8ff" stroke="#63b8ff" points="263.78,-59.98 273.11,-65 268.94,-55.26 263.78,-59.98"/>
</a>
</g>
</g>
<!-- Node16&#45;&gt;Node7 -->
<g id="edge18_Node000016_Node000007" class="edge">
<title>Node16&#45;&gt;Node7</title>
<g id="a_edge18_Node000016_Node000007"><a xlink:title=" ">
<path fill="none" stroke="#63b8ff" d="M151.08,-193.79C132.91,-184.11 111.48,-172.68 94.87,-163.83"/>
<polygon fill="#63b8ff" stroke="#63b8ff" points="149.26,-196.79 159.73,-198.4 152.55,-190.61 149.26,-196.79"/>
</a>
</g>
</g>
<!-- Node16&#45;&gt;Node11 -->
<g id="edge19_Node000016_Node000011" class="edge">
<title>Node16&#45;&gt;Node11</title>
<g id="a_edge19_Node000016_Node000011"><a xlink:title=" ">
<path fill="none" stroke="#63b8ff" d="M191.97,-188.42C197.55,-151.04 209.66,-83.67 226.52,-66.5 260.68,-31.71 316.67,-20.42 357.34,-17.04"/>
<polygon fill="#63b8ff" stroke="#63b8ff" points="188.56,-187.5 190.6,-197.9 195.49,-188.5 188.56,-187.5"/>
</a>
</g>
</g>
<!-- Node16&#45;&gt;Node14 -->
<g id="edge20_Node000016_Node000014" class="edge">
<title>Node16&#45;&gt;Node14</title>
<g id="a_edge20_Node000016_Node000014"><a xlink:title=" ">
<path fill="none" stroke="#63b8ff" d="M185.07,-187.9C182.04,-157.87 179.97,-107.24 193.52,-66.5 197.95,-53.18 207.12,-40.24 214.96,-30.83"/>
<polygon fill="#63b8ff" stroke="#63b8ff" points="181.56,-188.01 186.17,-197.55 188.52,-187.22 181.56,-188.01"/>
</a>
</g>
</g>
<!-- Node21&#45;&gt;Node19 -->
<g id="edge29_Node000021_Node000019" class="edge">
<title>Node21&#45;&gt;Node19</title>
<g id="a_edge29_Node000021_Node000019"><a xlink:title=" ">
<path fill="none" stroke="#63b8ff" d="M759.09,-124.13C751.19,-115.19 742.39,-105.24 735.4,-97.33"/>
<polygon fill="#63b8ff" stroke="#63b8ff" points="756.34,-126.3 765.58,-131.48 761.58,-121.67 756.34,-126.3"/>
</a>
</g>
</g>
<!-- Node22&#45;&gt;Node20 -->
<g id="edge31_Node000022_Node000020" class="edge">
<title>Node22&#45;&gt;Node20</title>
<g id="a_edge31_Node000022_Node000020"><a xlink:title=" ">
<path fill="none" stroke="#63b8ff" d="M947.09,-124.13C939.19,-115.19 930.39,-105.24 923.4,-97.33"/>
<polygon fill="#63b8ff" stroke="#63b8ff" points="944.34,-126.3 953.58,-131.48 949.58,-121.67 944.34,-126.3"/>
</a>
</g>
</g>
<!-- Node24&#45;&gt;Node21 -->
<g id="edge34_Node000024_Node000021" class="edge">
<title>Node24&#45;&gt;Node21</title>
<g id="a_edge34_Node000024_Node000021"><a xlink:title=" ">
<path fill="none" stroke="#63b8ff" d="M925.37,-195.59C893.85,-185.58 855.22,-173.3 825.64,-163.9"/>
<polygon fill="#63b8ff" stroke="#63b8ff" points="924.17,-198.88 934.76,-198.57 926.29,-192.21 924.17,-198.88"/>
</a>
</g>
</g>
<!-- Node24&#45;&gt;Node22 -->
<g id="edge35_Node000024_Node000022" class="edge">
<title>Node24&#45;&gt;Node22</title>
<g id="a_edge35_Node000024_Node000022"><a xlink:title=" ">
<path fill="none" stroke="#63b8ff" d="M976.55,-188.09C974.63,-179.84 972.58,-170.99 970.91,-163.83"/>
<polygon fill="#63b8ff" stroke="#63b8ff" points="973.1,-188.69 978.77,-197.64 979.92,-187.11 973.1,-188.69"/>
</a>
</g>
</g>
<!-- Node24&#45;&gt;Node23 -->
<g id="edge36_Node000024_Node000023" class="edge">
<title>Node24&#45;&gt;Node23</title>
<g id="a_edge36_Node000024_Node000023"><a xlink:title=" ">
<path fill="none" stroke="#63b8ff" d="M1041.01,-199.27C1217.37,-170.25 1267.27,-192.73 1440.52,-163.5 1443.34,-163.02 1446.22,-162.48 1449.12,-161.9"/>
<polygon fill="#63b8ff" stroke="#63b8ff" points="1040.54,-195.8 1031.26,-200.91 1041.7,-202.7 1040.54,-195.8"/>
</a>
</g>
</g>
<!-- Node25 -->
<g id="Node000025" class="node">
<title>Node25</title>
<g id="a_Node000025"><a xlink:href="coro_2task_8hpp.html" target="_top" xlink:title=" ">
<polygon fill="white" stroke="#666666" points="1319.65,-163.5 1223.4,-163.5 1223.4,-133 1319.65,-133 1319.65,-163.5"/>
<text text-anchor="start" x="1231.4" y="-150" font-family="Helvetica,sans-Serif" font-size="10.00">include/yaclib/coro</text>
<text text-anchor="middle" x="1271.52" y="-138.75" font-family="Helvetica,sans-Serif" font-size="10.00">/task.hpp</text>
</a>
</g>
</g>
<!-- Node24&#45;&gt;Node25 -->
<g id="edge37_Node000024_Node000025" class="edge">
<title>Node24&#45;&gt;Node25</title>
<g id="a_edge37_Node000024_Node000025"><a xlink:title=" ">
<path fill="none" stroke="#63b8ff" d="M1040.63,-199.08C1118.19,-181.58 1140.01,-180.43 1214.52,-163.5 1217.31,-162.87 1220.16,-162.2 1223.04,-161.52"/>
<polygon fill="#63b8ff" stroke="#63b8ff" points="1040.29,-195.57 1031.31,-201.21 1041.84,-202.4 1040.29,-195.57"/>
</a>
</g>
</g>
<!-- Node26 -->
<g id="Node000026" class="node">
<title>Node26</title>
<g id="a_Node000026"><a xlink:href="lazy_2make_8hpp.html" target="_top" xlink:title=" ">
<polygon fill="white" stroke="#666666" points="1271.52,-97 1177.52,-97 1177.52,-66.5 1271.52,-66.5 1271.52,-97"/>
<text text-anchor="start" x="1185.52" y="-83.5" font-family="Helvetica,sans-Serif" font-size="10.00">include/yaclib/lazy</text>
<text text-anchor="middle" x="1224.52" y="-72.25" font-family="Helvetica,sans-Serif" font-size="10.00">/make.hpp</text>
</a>
</g>
</g>
<!-- Node24&#45;&gt;Node26 -->
<g id="edge38_Node000024_Node000026" class="edge">
<title>Node24&#45;&gt;Node26</title>
<g id="a_edge38_Node000024_Node000026"><a xlink:title=" ">
<path fill="none" stroke="#63b8ff" d="M1009.36,-192.33C1038.88,-168.8 1082.44,-134.16 1084.52,-133 1113.75,-116.76 1149.24,-104.09 1177.16,-95.54"/>
<polygon fill="#63b8ff" stroke="#63b8ff" points="1007.53,-189.31 1001.9,-198.28 1011.9,-194.78 1007.53,-189.31"/>
</a>
</g>
</g>
<!-- Node27 -->
<g id="Node000027" class="node">
<title>Node27</title>
<g id="a_Node000027"><a xlink:href="schedule_8hpp.html" target="_top" xlink:title=" ">
<polygon fill="white" stroke="#666666" points="1431.52,-163.5 1337.52,-163.5 1337.52,-133 1431.52,-133 1431.52,-163.5"/>
<text text-anchor="start" x="1345.52" y="-150" font-family="Helvetica,sans-Serif" font-size="10.00">include/yaclib/lazy</text>
<text text-anchor="middle" x="1384.52" y="-138.75" font-family="Helvetica,sans-Serif" font-size="10.00">/schedule.hpp</text>
</a>
</g>
</g>
<!-- Node24&#45;&gt;Node27 -->
<g id="edge39_Node000024_Node000027" class="edge">
<title>Node24&#45;&gt;Node27</title>
<g id="a_edge39_Node000024_Node000027"><a xlink:title=" ">
<path fill="none" stroke="#63b8ff" d="M1040.75,-199.24C1168.12,-176.07 1204.38,-186.9 1328.52,-163.5 1331.38,-162.96 1334.31,-162.36 1337.26,-161.72"/>
<polygon fill="#63b8ff" stroke="#63b8ff" points="1040.46,-195.73 1031.27,-201 1041.74,-202.62 1040.46,-195.73"/>
</a>
</g>
</g>
<!-- Node28 -->
<g id="Node000028" class="node">
<title>Node28</title>
<g id="a_Node000028"><a xlink:href="task__impl_8cpp.html" target="_top" xlink:title=" ">
<polygon fill="white" stroke="#666666" points="1205.52,-157.88 1093.52,-157.88 1093.52,-138.62 1205.52,-138.62 1205.52,-157.88"/>
<text text-anchor="middle" x="1149.52" y="-144.38" font-family="Helvetica,sans-Serif" font-size="10.00">src/lazy/task_impl.cpp</text>
</a>
</g>
</g>
<!-- Node24&#45;&gt;Node28 -->
<g id="edge41_Node000024_Node000028" class="edge">
<title>Node24&#45;&gt;Node28</title>
<g id="a_edge41_Node000024_Node000028"><a xlink:title=" ">
<path fill="none" stroke="#63b8ff" d="M1031.11,-194.98C1062.41,-182.9 1101.68,-167.73 1126.19,-158.26"/>
<polygon fill="#63b8ff" stroke="#63b8ff" points="1029.89,-191.7 1021.83,-198.57 1032.42,-198.23 1029.89,-191.7"/>
</a>
</g>
</g>
<!-- Node27&#45;&gt;Node26 -->
<g id="edge40_Node000027_Node000026" class="edge">
<title>Node27&#45;&gt;Node26</title>
<g id="a_edge40_Node000027_Node000026"><a xlink:title=" ">
<path fill="none" stroke="#63b8ff" d="M1337.72,-128.38C1313.24,-118.51 1283.72,-106.61 1260.96,-97.44"/>
<polygon fill="#63b8ff" stroke="#63b8ff" points="1336.23,-131.56 1346.81,-132.05 1338.84,-125.06 1336.23,-131.56"/>
</a>
</g>
</g>
</g>
</svg>
