<?xml version="1.0" encoding="UTF-8" standalone="no"?>
<!DOCTYPE svg PUBLIC "-//W3C//DTD SVG 1.1//EN"
 "http://www.w3.org/Graphics/SVG/1.1/DTD/svg11.dtd">
<!-- Generated by graphviz version 9.0.0 (20230911.1827)
 -->
<!-- Title: include/yaclib/async/wait.hpp Pages: 1 -->
<!--zoomable 371 -->

<svg id="main" version="1.1" xmlns="http://www.w3.org/2000/svg" xmlns:xlink="http://www.w3.org/1999/xlink" xml:space="preserve" onload="init(evt)">
<style type="text/css"><![CDATA[
.node, .edge {opacity: 0.7;}
.node.selected, .edge.selected {opacity: 1;}
.edge:hover path { stroke: red; }
.edge:hover polygon { stroke: red; fill: red; }
]]></style>

<defs>
  <circle id="rim" cx="0" cy="0" r="7"/>
  <circle id="rim2" cx="0" cy="0" r="3.5"/>
  <g id="zoomPlus">
    <use xlink:href="#rim" fill="#404040"><set attributeName="fill" to="#808080" begin="zoomplus.mouseover" end="zoomplus.mouseout"/></use>
    <path d="M-4,0h8M0,-4v8" fill="none" stroke="white" stroke-width="1.5" pointer-events="none"/>
  </g>
  <g id="zoomMin">
    <use xlink:href="#rim" fill="#404040"><set attributeName="fill" to="#808080" begin="zoomminus.mouseover" end="zoomminus.mouseout"/></use>
    <path d="M-4,0h8" fill="none" stroke="white" stroke-width="1.5" pointer-events="none"/>
  </g>
  <g id="arrowUp" transform="translate(30 24)">
    <use xlink:href="#rim"/>
    <path pointer-events="none" fill="none" stroke="white" stroke-width="1.5" d="M0,-3.0v7 M-2.5,-0.5L0,-3.0L2.5,-0.5"/>
  </g>
  <g id="arrowRight" transform="rotate(90) translate(36 -43)">
    <use xlink:href="#rim"/>
    <path pointer-events="none" fill="none" stroke="white" stroke-width="1.5" d="M0,-3.0v7 M-2.5,-0.5L0,-3.0L2.5,-0.5"/>
  </g>
  <g id="arrowDown" transform="rotate(180) translate(-30 -48)">
    <use xlink:href="#rim"/>
    <path pointer-events="none" fill="none" stroke="white" stroke-width="1.5" d="M0,-3.0v7 M-2.5,-0.5L0,-3.0L2.5,-0.5"/>
  </g>
  <g id="arrowLeft" transform="rotate(270) translate(-36 17)">
    <use xlink:href="#rim"/>
    <path pointer-events="none" fill="none" stroke="white" stroke-width="1.5" d="M0,-3.0v7 M-2.5,-0.5L0,-3.0L2.5,-0.5"/>
  </g>
  <g id="resetDef">
    <use xlink:href="#rim2" fill="#404040"><set attributeName="fill" to="#808080" begin="reset.mouseover" end="reset.mouseout"/></use>
  </g>
</defs>
<script type="application/ecmascript">
var viewWidth = 2299;
var viewHeight = 371;
var sectionId = 'dynsection-1';
</script>
<script type="application/ecmascript" xlink:href="svg.min.js"/>
<svg id="graph" class="graph">
<g id="viewport">
<title>include/yaclib/async/wait.hpp</title>
<!-- Node1 -->
<g id="Node000001" class="node">
<title>Node1</title>
<g id="a_Node000001"><a xlink:title=" ">
<polygon fill="#999999" stroke="#666666" points="946,-363 843,-363 843,-332.5 946,-332.5 946,-363"/>
<text text-anchor="start" x="851" y="-349.5" font-family="Helvetica,sans-Serif" font-size="10.00">include/yaclib/async</text>
<text text-anchor="middle" x="894.5" y="-338.25" font-family="Helvetica,sans-Serif" font-size="10.00">/wait.hpp</text>
</a>
</g>
</g>
<!-- Node2 -->
<g id="Node000002" class="node">
<title>Node2</title>
<g id="a_Node000002"><a xlink:href="async_2future_8hpp.html" target="_top" xlink:title=" ">
<polygon fill="white" stroke="#666666" points="946,-296.5 843,-296.5 843,-266 946,-266 946,-296.5"/>
<text text-anchor="start" x="851" y="-283" font-family="Helvetica,sans-Serif" font-size="10.00">include/yaclib/async</text>
<text text-anchor="middle" x="894.5" y="-271.75" font-family="Helvetica,sans-Serif" font-size="10.00">/future.hpp</text>
</a>
</g>
</g>
<!-- Node1&#45;&gt;Node2 -->
<g id="edge1_Node000001_Node000002" class="edge">
<title>Node1&#45;&gt;Node2</title>
<g id="a_edge1_Node000001_Node000002"><a xlink:title=" ">
<path fill="none" stroke="#63b8ff" d="M887.87,-320.81C887.56,-312.64 887.86,-303.91 888.75,-296.83"/>
<polygon fill="#63b8ff" stroke="#63b8ff" points="884.36,-320.9 888.62,-330.6 891.34,-320.37 884.36,-320.9"/>
</a>
</g>
</g>
<!-- Node34 -->
<g id="Node000034" class="node">
<title>Node34</title>
<g id="a_Node000034"><a xlink:href="async_2shared__future_8hpp.html" target="_top" xlink:title=" ">
<polygon fill="white" stroke="#666666" points="1954,-296.5 1851,-296.5 1851,-266 1954,-266 1954,-296.5"/>
<text text-anchor="start" x="1859" y="-283" font-family="Helvetica,sans-Serif" font-size="10.00">include/yaclib/async</text>
<text text-anchor="middle" x="1902.5" y="-271.75" font-family="Helvetica,sans-Serif" font-size="10.00">/shared_future.hpp</text>
</a>
</g>
</g>
<!-- Node1&#45;&gt;Node34 -->
<g id="edge49_Node000001_Node000034" class="edge">
<title>Node1&#45;&gt;Node34</title>
<g id="a_edge49_Node000001_Node000034"><a xlink:title=" ">
<path fill="none" stroke="#63b8ff" d="M957.63,-342.71C1142.62,-330.87 1681.05,-296.42 1850.68,-285.57"/>
<polygon fill="#63b8ff" stroke="#63b8ff" points="957.49,-339.21 947.73,-343.34 957.94,-346.2 957.49,-339.21"/>
</a>
</g>
</g>
<!-- Node2&#45;&gt;Node1 -->
<g id="edge23_Node000002_Node000001" class="edge">
<title>Node2&#45;&gt;Node1</title>
<g id="a_edge23_Node000002_Node000001"><a xlink:title=" ">
<path fill="none" stroke="#63b8ff" d="M901.13,-308.13C901.44,-316.29 901.15,-325.02 900.26,-332.11"/>
<polygon fill="#63b8ff" stroke="#63b8ff" points="904.64,-308.04 900.37,-298.34 897.66,-308.58 904.64,-308.04"/>
</a>
</g>
</g>
<!-- Node3 -->
<g id="Node000003" class="node">
<title>Node3</title>
<g id="a_Node000003"><a xlink:href="wait__group_8hpp.html" target="_top" xlink:title=" ">
<polygon fill="white" stroke="#666666" points="279.25,-230 183.75,-230 183.75,-199.5 279.25,-199.5 279.25,-230"/>
<text text-anchor="start" x="191.75" y="-216.5" font-family="Helvetica,sans-Serif" font-size="10.00">include/yaclib/algo</text>
<text text-anchor="middle" x="231.5" y="-205.25" font-family="Helvetica,sans-Serif" font-size="10.00">/wait_group.hpp</text>
</a>
</g>
</g>
<!-- Node2&#45;&gt;Node3 -->
<g id="edge2_Node000002_Node000003" class="edge">
<title>Node2&#45;&gt;Node3</title>
<g id="a_edge2_Node000002_Node000003"><a xlink:title=" ">
<path fill="none" stroke="#63b8ff" d="M831.41,-278.39C720.79,-274.37 484.91,-262.47 288.5,-230 285.58,-229.52 282.59,-228.96 279.59,-228.35"/>
<polygon fill="#63b8ff" stroke="#63b8ff" points="831.05,-281.88 841.16,-278.73 831.29,-274.88 831.05,-281.88"/>
</a>
</g>
</g>
<!-- Node5 -->
<g id="Node000005" class="node">
<title>Node5</title>
<g id="a_Node000005"><a xlink:href="connect_8hpp.html" target="_top" xlink:title=" ">
<polygon fill="white" stroke="#666666" points="1836,-230 1733,-230 1733,-199.5 1836,-199.5 1836,-230"/>
<text text-anchor="start" x="1741" y="-216.5" font-family="Helvetica,sans-Serif" font-size="10.00">include/yaclib/async</text>
<text text-anchor="middle" x="1784.5" y="-205.25" font-family="Helvetica,sans-Serif" font-size="10.00">/connect.hpp</text>
</a>
</g>
</g>
<!-- Node2&#45;&gt;Node5 -->
<g id="edge4_Node000002_Node000005" class="edge">
<title>Node2&#45;&gt;Node5</title>
<g id="a_edge4_Node000002_Node000005"><a xlink:title=" ">
<path fill="none" stroke="#63b8ff" d="M957.55,-280.14C1096.73,-279.07 1440.44,-272.01 1724.5,-230 1727.15,-229.61 1729.85,-229.16 1732.57,-228.66"/>
<polygon fill="#63b8ff" stroke="#63b8ff" points="957.79,-276.63 947.81,-280.2 957.84,-283.63 957.79,-276.63"/>
</a>
</g>
</g>
<!-- Node7 -->
<g id="Node000007" class="node">
<title>Node7</title>
<g id="a_Node000007"><a xlink:href="split_8hpp.html" target="_top" xlink:title=" ">
<polygon fill="white" stroke="#666666" points="2054,-163.5 1951,-163.5 1951,-133 2054,-133 2054,-163.5"/>
<text text-anchor="start" x="1959" y="-150" font-family="Helvetica,sans-Serif" font-size="10.00">include/yaclib/async</text>
<text text-anchor="middle" x="2002.5" y="-138.75" font-family="Helvetica,sans-Serif" font-size="10.00">/split.hpp</text>
</a>
</g>
</g>
<!-- Node2&#45;&gt;Node7 -->
<g id="edge22_Node000002_Node000007" class="edge">
<title>Node2&#45;&gt;Node7</title>
<g id="a_edge22_Node000002_Node000007"><a xlink:title=" ">
<path fill="none" stroke="#63b8ff" d="M957.74,-280.35C1142.24,-280.12 1677.42,-275.42 1845.5,-230 1897.58,-215.93 1952.26,-183.04 1981.34,-163.86"/>
<polygon fill="#63b8ff" stroke="#63b8ff" points="957.87,-276.85 947.87,-280.36 957.88,-283.85 957.87,-276.85"/>
</a>
</g>
</g>
<!-- Node8 -->
<g id="Node000008" class="node">
<title>Node8</title>
<g id="a_Node000008"><a xlink:href="contract_8hpp.html" target="_top" xlink:title=" ">
<polygon fill="white" stroke="#666666" points="1594,-230 1491,-230 1491,-199.5 1594,-199.5 1594,-230"/>
<text text-anchor="start" x="1499" y="-216.5" font-family="Helvetica,sans-Serif" font-size="10.00">include/yaclib/async</text>
<text text-anchor="middle" x="1542.5" y="-205.25" font-family="Helvetica,sans-Serif" font-size="10.00">/contract.hpp</text>
</a>
</g>
</g>
<!-- Node2&#45;&gt;Node8 -->
<g id="edge7_Node000002_Node000008" class="edge">
<title>Node2&#45;&gt;Node8</title>
<g id="a_edge7_Node000002_Node000008"><a xlink:title=" ">
<path fill="none" stroke="#63b8ff" d="M957.57,-273.97C1085.43,-261.25 1373.04,-232.62 1490.77,-220.9"/>
<polygon fill="#63b8ff" stroke="#63b8ff" points="957.54,-270.46 947.94,-274.93 958.24,-277.42 957.54,-270.46"/>
</a>
</g>
</g>
<!-- Node15 -->
<g id="Node000015" class="node">
<title>Node15</title>
<g id="a_Node000015"><a xlink:href="simple_8cpp.html" target="_top" xlink:title=" ">
<polygon fill="white" stroke="#666666" points="1613.5,-163.5 1513.5,-163.5 1513.5,-133 1613.5,-133 1613.5,-163.5"/>
<text text-anchor="start" x="1521.5" y="-150" font-family="Helvetica,sans-Serif" font-size="10.00">test/example/async</text>
<text text-anchor="middle" x="1563.5" y="-138.75" font-family="Helvetica,sans-Serif" font-size="10.00">/simple.cpp</text>
</a>
</g>
</g>
<!-- Node2&#45;&gt;Node15 -->
<g id="edge48_Node000002_Node000015" class="edge">
<title>Node2&#45;&gt;Node15</title>
<g id="a_edge48_Node000002_Node000015"><a xlink:title=" ">
<path fill="none" stroke="#63b8ff" d="M957.38,-270.04C1016.39,-260.3 1107.08,-244.94 1185.5,-230 1327.77,-202.9 1363.2,-195.28 1504.5,-163.5 1507.38,-162.85 1510.33,-162.18 1513.31,-161.49"/>
<polygon fill="#63b8ff" stroke="#63b8ff" points="957.17,-266.52 947.87,-271.6 958.3,-273.43 957.17,-266.52"/>
</a>
</g>
</g>
<!-- Node16 -->
<g id="Node000016" class="node">
<title>Node16</title>
<g id="a_Node000016"><a xlink:href="when__impl_8hpp.html" target="_top" xlink:title=" ">
<polygon fill="white" stroke="#666666" points="407.38,-230 297.62,-230 297.62,-199.5 407.38,-199.5 407.38,-230"/>
<text text-anchor="start" x="305.62" y="-216.5" font-family="Helvetica,sans-Serif" font-size="10.00">include/yaclib/async</text>
<text text-anchor="middle" x="352.5" y="-205.25" font-family="Helvetica,sans-Serif" font-size="10.00">/detail/when_impl.hpp</text>
</a>
</g>
</g>
<!-- Node2&#45;&gt;Node16 -->
<g id="edge16_Node000002_Node000016" class="edge">
<title>Node2&#45;&gt;Node16</title>
<g id="a_edge16_Node000002_Node000016"><a xlink:title=" ">
<path fill="none" stroke="#63b8ff" d="M831.52,-276.02C739.64,-269.32 563.65,-254.44 415.5,-230 412.96,-229.58 410.36,-229.12 407.74,-228.63"/>
<polygon fill="#63b8ff" stroke="#63b8ff" points="831.11,-279.5 841.33,-276.73 831.61,-272.52 831.11,-279.5"/>
</a>
</g>
</g>
<!-- Node17 -->
<g id="Node000017" class="node">
<title>Node17</title>
<g id="a_Node000017"><a xlink:href="async_2make_8hpp.html" target="_top" xlink:title=" ">
<polygon fill="white" stroke="#666666" points="528,-230 425,-230 425,-199.5 528,-199.5 528,-230"/>
<text text-anchor="start" x="433" y="-216.5" font-family="Helvetica,sans-Serif" font-size="10.00">include/yaclib/async</text>
<text text-anchor="middle" x="476.5" y="-205.25" font-family="Helvetica,sans-Serif" font-size="10.00">/make.hpp</text>
</a>
</g>
</g>
<!-- Node2&#45;&gt;Node17 -->
<g id="edge17_Node000002_Node000017" class="edge">
<title>Node2&#45;&gt;Node17</title>
<g id="a_edge17_Node000002_Node000017"><a xlink:title=" ">
<path fill="none" stroke="#63b8ff" d="M831.59,-273.23C759.87,-264.81 639.24,-249.37 536.5,-230 533.87,-229.5 531.18,-228.97 528.47,-228.41"/>
<polygon fill="#63b8ff" stroke="#63b8ff" points="830.83,-276.67 841.17,-274.35 831.64,-269.71 830.83,-276.67"/>
</a>
</g>
</g>
<!-- Node18 -->
<g id="Node000018" class="node">
<title>Node18</title>
<g id="a_Node000018"><a xlink:href="run_8hpp.html" target="_top" xlink:title=" ">
<polygon fill="white" stroke="#666666" points="1715,-230 1612,-230 1612,-199.5 1715,-199.5 1715,-230"/>
<text text-anchor="start" x="1620" y="-216.5" font-family="Helvetica,sans-Serif" font-size="10.00">include/yaclib/async</text>
<text text-anchor="middle" x="1663.5" y="-205.25" font-family="Helvetica,sans-Serif" font-size="10.00">/run.hpp</text>
</a>
</g>
</g>
<!-- Node2&#45;&gt;Node18 -->
<g id="edge18_Node000002_Node000018" class="edge">
<title>Node2&#45;&gt;Node18</title>
<g id="a_edge18_Node000002_Node000018"><a xlink:title=" ">
<path fill="none" stroke="#63b8ff" d="M957.58,-279.21C1081.88,-276.41 1366.93,-266.23 1603.5,-230 1606.15,-229.59 1608.85,-229.13 1611.57,-228.63"/>
<polygon fill="#63b8ff" stroke="#63b8ff" points="957.85,-275.7 947.93,-279.42 958,-282.7 957.85,-275.7"/>
</a>
</g>
</g>
<!-- Node19 -->
<g id="Node000019" class="node">
<title>Node19</title>
<g id="a_Node000019"><a xlink:href="wait__for_8hpp.html" target="_top" xlink:title=" ">
<polygon fill="white" stroke="#666666" points="649,-230 546,-230 546,-199.5 649,-199.5 649,-230"/>
<text text-anchor="start" x="554" y="-216.5" font-family="Helvetica,sans-Serif" font-size="10.00">include/yaclib/async</text>
<text text-anchor="middle" x="597.5" y="-205.25" font-family="Helvetica,sans-Serif" font-size="10.00">/wait_for.hpp</text>
</a>
</g>
</g>
<!-- Node2&#45;&gt;Node19 -->
<g id="edge24_Node000002_Node000019" class="edge">
<title>Node2&#45;&gt;Node19</title>
<g id="a_edge24_Node000002_Node000019"><a xlink:title=" ">
<path fill="none" stroke="#63b8ff" d="M831.55,-266.58C777.27,-254.79 699.84,-237.98 649.14,-226.96"/>
<polygon fill="#63b8ff" stroke="#63b8ff" points="830.77,-269.99 841.29,-268.69 832.26,-263.15 830.77,-269.99"/>
</a>
</g>
</g>
<!-- Node20 -->
<g id="Node000020" class="node">
<title>Node20</title>
<g id="a_Node000020"><a xlink:href="wait__until_8hpp.html" target="_top" xlink:title=" ">
<polygon fill="white" stroke="#666666" points="809,-230 706,-230 706,-199.5 809,-199.5 809,-230"/>
<text text-anchor="start" x="714" y="-216.5" font-family="Helvetica,sans-Serif" font-size="10.00">include/yaclib/async</text>
<text text-anchor="middle" x="757.5" y="-205.25" font-family="Helvetica,sans-Serif" font-size="10.00">/wait_until.hpp</text>
</a>
</g>
</g>
<!-- Node2&#45;&gt;Node20 -->
<g id="edge25_Node000002_Node000020" class="edge">
<title>Node2&#45;&gt;Node20</title>
<g id="a_edge25_Node000002_Node000020"><a xlink:title=" ">
<path fill="none" stroke="#63b8ff" d="M853.25,-260.83C832.44,-251.03 807.62,-239.35 788.46,-230.33"/>
<polygon fill="#63b8ff" stroke="#63b8ff" points="851.5,-263.88 862.04,-264.97 854.49,-257.54 851.5,-263.88"/>
</a>
</g>
</g>
<!-- Node21 -->
<g id="Node000021" class="node">
<title>Node21</title>
<g id="a_Node000021"><a xlink:href="await_8hpp.html" target="_top" xlink:title=" ">
<polygon fill="white" stroke="#666666" points="849.62,-30.5 753.38,-30.5 753.38,0 849.62,0 849.62,-30.5"/>
<text text-anchor="start" x="761.38" y="-17" font-family="Helvetica,sans-Serif" font-size="10.00">include/yaclib/coro</text>
<text text-anchor="middle" x="801.5" y="-5.75" font-family="Helvetica,sans-Serif" font-size="10.00">/await.hpp</text>
</a>
</g>
</g>
<!-- Node2&#45;&gt;Node21 -->
<g id="edge26_Node000002_Node000021" class="edge">
<title>Node2&#45;&gt;Node21</title>
<g id="a_edge26_Node000002_Node000021"><a xlink:title=" ">
<path fill="none" stroke="#63b8ff" d="M831.25,-280.64C663.81,-281.02 218.81,-277.51 174.5,-230 3.4,-46.55 579.07,-20.54 753.15,-16.86"/>
<polygon fill="#63b8ff" stroke="#63b8ff" points="831.07,-284.14 841.06,-280.61 831.05,-277.14 831.07,-284.14"/>
</a>
</g>
</g>
<!-- Node22 -->
<g id="Node000022" class="node">
<title>Node22</title>
<g id="a_Node000022"><a xlink:href="await__inline_8hpp.html" target="_top" xlink:title=" ">
<polygon fill="white" stroke="#666666" points="849.62,-97 753.38,-97 753.38,-66.5 849.62,-66.5 849.62,-97"/>
<text text-anchor="start" x="761.38" y="-83.5" font-family="Helvetica,sans-Serif" font-size="10.00">include/yaclib/coro</text>
<text text-anchor="middle" x="801.5" y="-72.25" font-family="Helvetica,sans-Serif" font-size="10.00">/await_inline.hpp</text>
</a>
</g>
</g>
<!-- Node2&#45;&gt;Node22 -->
<g id="edge27_Node000002_Node000022" class="edge">
<title>Node2&#45;&gt;Node22</title>
<g id="a_edge27_Node000002_Node000022"><a xlink:title=" ">
<path fill="none" stroke="#63b8ff" d="M882.71,-255.68C874.35,-239.2 862.37,-217.33 849.5,-199.5 836.8,-181.9 826.19,-182.92 816.5,-163.5 805.81,-142.07 802.69,-113.99 801.81,-97.22"/>
<polygon fill="#63b8ff" stroke="#63b8ff" points="879.4,-256.88 886.98,-264.28 885.67,-253.77 879.4,-256.88"/>
</a>
</g>
</g>
<!-- Node23 -->
<g id="Node000023" class="node">
<title>Node23</title>
<g id="a_Node000023"><a xlink:href="await__on_8hpp.html" target="_top" xlink:title=" ">
<polygon fill="white" stroke="#666666" points="687.62,-97 591.38,-97 591.38,-66.5 687.62,-66.5 687.62,-97"/>
<text text-anchor="start" x="599.38" y="-83.5" font-family="Helvetica,sans-Serif" font-size="10.00">include/yaclib/coro</text>
<text text-anchor="middle" x="639.5" y="-72.25" font-family="Helvetica,sans-Serif" font-size="10.00">/await_on.hpp</text>
</a>
</g>
</g>
<!-- Node2&#45;&gt;Node23 -->
<g id="edge29_Node000002_Node000023" class="edge">
<title>Node2&#45;&gt;Node23</title>
<g id="a_edge29_Node000002_Node000023"><a xlink:title=" ">
<path fill="none" stroke="#63b8ff" d="M831.6,-272.03C791.27,-264.93 738.74,-252.19 696.5,-230 686.57,-224.78 625.14,-173.72 620.5,-163.5 610.56,-141.6 621.68,-113.91 630.6,-97.3"/>
<polygon fill="#63b8ff" stroke="#63b8ff" points="830.97,-275.48 841.41,-273.68 832.13,-268.57 830.97,-275.48"/>
</a>
</g>
</g>
<!-- Node24 -->
<g id="Node000024" class="node">
<title>Node24</title>
<g id="a_Node000024"><a xlink:href="await__sticky_8hpp.html" target="_top" xlink:title=" ">
<polygon fill="white" stroke="#666666" points="1018.62,-97 922.38,-97 922.38,-66.5 1018.62,-66.5 1018.62,-97"/>
<text text-anchor="start" x="930.38" y="-83.5" font-family="Helvetica,sans-Serif" font-size="10.00">include/yaclib/coro</text>
<text text-anchor="middle" x="970.5" y="-72.25" font-family="Helvetica,sans-Serif" font-size="10.00">/await_sticky.hpp</text>
</a>
</g>
</g>
<!-- Node2&#45;&gt;Node24 -->
<g id="edge30_Node000002_Node000024" class="edge">
<title>Node2&#45;&gt;Node24</title>
<g id="a_edge30_Node000002_Node000024"><a xlink:title=" ">
<path fill="none" stroke="#63b8ff" d="M911.13,-256.03C925.96,-233.2 947.06,-197.51 958.5,-163.5 966,-141.2 968.82,-113.87 969.87,-97.41"/>
<polygon fill="#63b8ff" stroke="#63b8ff" points="908.25,-254.03 905.64,-264.3 914.09,-257.9 908.25,-254.03"/>
</a>
</g>
</g>
<!-- Node25 -->
<g id="Node000025" class="node">
<title>Node25</title>
<g id="a_Node000025"><a xlink:href="await__awaiter_8hpp.html" target="_top" xlink:title=" ">
<polygon fill="white" stroke="#666666" points="949.12,-163.5 825.88,-163.5 825.88,-133 949.12,-133 949.12,-163.5"/>
<text text-anchor="start" x="833.88" y="-150" font-family="Helvetica,sans-Serif" font-size="10.00">include/yaclib/coro</text>
<text text-anchor="middle" x="887.5" y="-138.75" font-family="Helvetica,sans-Serif" font-size="10.00">/detail/await_awaiter.hpp</text>
</a>
</g>
</g>
<!-- Node2&#45;&gt;Node25 -->
<g id="edge31_Node000002_Node000025" class="edge">
<title>Node2&#45;&gt;Node25</title>
<g id="a_edge31_Node000002_Node000025"><a xlink:title=" ">
<path fill="none" stroke="#63b8ff" d="M893.12,-254.43C891.67,-227.34 889.45,-185.71 888.28,-163.83"/>
<polygon fill="#63b8ff" stroke="#63b8ff" points="889.61,-254.42 893.64,-264.22 896.6,-254.05 889.61,-254.42"/>
</a>
</g>
</g>
<!-- Node26 -->
<g id="Node000026" class="node">
<title>Node26</title>
<g id="a_Node000026"><a xlink:href="await__on__awaiter_8hpp.html" target="_top" xlink:title=" ">
<polygon fill="white" stroke="#666666" points="769,-163.5 630,-163.5 630,-133 769,-133 769,-163.5"/>
<text text-anchor="start" x="638" y="-150" font-family="Helvetica,sans-Serif" font-size="10.00">include/yaclib/coro</text>
<text text-anchor="middle" x="699.5" y="-138.75" font-family="Helvetica,sans-Serif" font-size="10.00">/detail/await_on_awaiter.hpp</text>
</a>
</g>
</g>
<!-- Node2&#45;&gt;Node26 -->
<g id="edge35_Node000002_Node000026" class="edge">
<title>Node2&#45;&gt;Node26</title>
<g id="a_edge35_Node000002_Node000026"><a xlink:title=" ">
<path fill="none" stroke="#63b8ff" d="M876.83,-257.12C862.41,-239.48 840.69,-215.56 817.5,-199.5 795.63,-184.35 768.46,-172.39 745.71,-163.95"/>
<polygon fill="#63b8ff" stroke="#63b8ff" points="873.76,-258.88 882.73,-264.51 879.23,-254.51 873.76,-258.88"/>
</a>
</g>
</g>
<!-- Node27 -->
<g id="Node000027" class="node">
<title>Node27</title>
<g id="a_Node000027"><a xlink:href="coro_2future_8hpp.html" target="_top" xlink:title=" ">
<polygon fill="white" stroke="#666666" points="1101.62,-163.5 1005.38,-163.5 1005.38,-133 1101.62,-133 1101.62,-163.5"/>
<text text-anchor="start" x="1013.38" y="-150" font-family="Helvetica,sans-Serif" font-size="10.00">include/yaclib/coro</text>
<text text-anchor="middle" x="1053.5" y="-138.75" font-family="Helvetica,sans-Serif" font-size="10.00">/future.hpp</text>
</a>
</g>
</g>
<!-- Node2&#45;&gt;Node27 -->
<g id="edge37_Node000002_Node000027" class="edge">
<title>Node2&#45;&gt;Node27</title>
<g id="a_edge37_Node000002_Node000027"><a xlink:title=" ">
<path fill="none" stroke="#63b8ff" d="M941.95,-260.82C958.6,-252.72 976.81,-242.3 991.5,-230 1014.54,-210.71 1034.32,-181.43 1045.01,-163.94"/>
<polygon fill="#63b8ff" stroke="#63b8ff" points="940.76,-257.51 933.19,-264.93 943.74,-263.85 940.76,-257.51"/>
</a>
</g>
</g>
<!-- Node28 -->
<g id="Node000028" class="node">
<title>Node28</title>
<g id="a_Node000028"><a xlink:href="lazy_2task_8hpp.html" target="_top" xlink:title=" ">
<polygon fill="white" stroke="#666666" points="1176.5,-230 1082.5,-230 1082.5,-199.5 1176.5,-199.5 1176.5,-230"/>
<text text-anchor="start" x="1090.5" y="-216.5" font-family="Helvetica,sans-Serif" font-size="10.00">include/yaclib/lazy</text>
<text text-anchor="middle" x="1129.5" y="-205.25" font-family="Helvetica,sans-Serif" font-size="10.00">/task.hpp</text>
</a>
</g>
</g>
<!-- Node2&#45;&gt;Node28 -->
<g id="edge38_Node000002_Node000028" class="edge">
<title>Node2&#45;&gt;Node28</title>
<g id="a_edge38_Node000002_Node000028"><a xlink:title=" ">
<path fill="none" stroke="#63b8ff" d="M957.39,-262.99C996.61,-252.22 1046.28,-238.59 1082.16,-228.74"/>
<polygon fill="#63b8ff" stroke="#63b8ff" points="956.54,-259.59 947.82,-265.61 958.39,-266.34 956.54,-259.59"/>
</a>
</g>
</g>
<!-- Node33 -->
<g id="Node000033" class="node">
<title>Node33</title>
<g id="a_Node000033"><a xlink:href="future__impl_8cpp.html" target="_top" xlink:title=" ">
<polygon fill="white" stroke="#666666" points="127,-224.38 0,-224.38 0,-205.12 127,-205.12 127,-224.38"/>
<text text-anchor="middle" x="63.5" y="-210.88" font-family="Helvetica,sans-Serif" font-size="10.00">src/async/future_impl.cpp</text>
</a>
</g>
</g>
<!-- Node2&#45;&gt;Node33 -->
<g id="edge47_Node000002_Node000033" class="edge">
<title>Node2&#45;&gt;Node33</title>
<g id="a_edge47_Node000002_Node000033"><a xlink:title=" ">
<path fill="none" stroke="#63b8ff" d="M831.48,-278.47C701.85,-274.28 396.13,-261.65 141.5,-230 130.71,-228.66 119.15,-226.79 108.32,-224.84"/>
<polygon fill="#63b8ff" stroke="#63b8ff" points="831.11,-281.96 841.21,-278.78 831.33,-274.97 831.11,-281.96"/>
</a>
</g>
</g>
<!-- Node4 -->
<g id="Node000004" class="node">
<title>Node4</title>
<g id="a_Node000004"><a xlink:href="wait__group_8cpp.html" target="_top" xlink:title=" ">
<polygon fill="white" stroke="#666666" points="301.88,-157.88 183.12,-157.88 183.12,-138.62 301.88,-138.62 301.88,-157.88"/>
<text text-anchor="middle" x="242.5" y="-144.38" font-family="Helvetica,sans-Serif" font-size="10.00">src/algo/wait_group.cpp</text>
</a>
</g>
</g>
<!-- Node3&#45;&gt;Node4 -->
<g id="edge3_Node000003_Node000004" class="edge">
<title>Node3&#45;&gt;Node4</title>
<g id="a_edge3_Node000003_Node000004"><a xlink:title=" ">
<path fill="none" stroke="#63b8ff" d="M235.92,-187.84C237.72,-177.26 239.69,-165.75 241,-158.07"/>
<polygon fill="#63b8ff" stroke="#63b8ff" points="232.48,-187.18 234.25,-197.62 239.38,-188.35 232.48,-187.18"/>
</a>
</g>
</g>
<!-- Node6 -->
<g id="Node000006" class="node">
<title>Node6</title>
<g id="a_Node000006"><a xlink:href="share_8hpp.html" target="_top" xlink:title=" ">
<polygon fill="white" stroke="#666666" points="1933,-163.5 1830,-163.5 1830,-133 1933,-133 1933,-163.5"/>
<text text-anchor="start" x="1838" y="-150" font-family="Helvetica,sans-Serif" font-size="10.00">include/yaclib/async</text>
<text text-anchor="middle" x="1881.5" y="-138.75" font-family="Helvetica,sans-Serif" font-size="10.00">/share.hpp</text>
</a>
</g>
</g>
<!-- Node5&#45;&gt;Node6 -->
<g id="edge5_Node000005_Node000006" class="edge">
<title>Node5&#45;&gt;Node6</title>
<g id="a_edge5_Node000005_Node000006"><a xlink:title=" ">
<path fill="none" stroke="#63b8ff" d="M1815.94,-192.84C1830.19,-183.37 1846.69,-172.39 1859.58,-163.83"/>
<polygon fill="#63b8ff" stroke="#63b8ff" points="1814.16,-189.82 1807.77,-198.28 1818.04,-195.65 1814.16,-189.82"/>
</a>
</g>
</g>
<!-- Node5&#45;&gt;Node7 -->
<g id="edge6_Node000005_Node000007" class="edge">
<title>Node5&#45;&gt;Node7</title>
<g id="a_edge6_Node000005_Node000007"><a xlink:title=" ">
<path fill="none" stroke="#63b8ff" d="M1844.98,-195.85C1879,-185.79 1920.93,-173.39 1952.97,-163.9"/>
<polygon fill="#63b8ff" stroke="#63b8ff" points="1844.29,-192.41 1835.69,-198.6 1846.27,-199.12 1844.29,-192.41"/>
</a>
</g>
</g>
<!-- Node8&#45;&gt;Node6 -->
<g id="edge8_Node000008_Node000006" class="edge">
<title>Node8&#45;&gt;Node6</title>
<g id="a_edge8_Node000008_Node000006"><a xlink:title=" ">
<path fill="none" stroke="#63b8ff" d="M1605.43,-199.16C1689.66,-181.91 1775.99,-166.86 1829.6,-157.82"/>
<polygon fill="#63b8ff" stroke="#63b8ff" points="1604.94,-195.69 1595.86,-201.14 1606.36,-202.55 1604.94,-195.69"/>
</a>
</g>
</g>
<!-- Node9 -->
<g id="Node000009" class="node">
<title>Node9</title>
<g id="a_Node000009"><a xlink:href="when_8hpp.html" target="_top" xlink:title=" ">
<polygon fill="white" stroke="#666666" points="1735,-163.5 1632,-163.5 1632,-133 1735,-133 1735,-163.5"/>
<text text-anchor="start" x="1640" y="-150" font-family="Helvetica,sans-Serif" font-size="10.00">include/yaclib/async</text>
<text text-anchor="middle" x="1683.5" y="-138.75" font-family="Helvetica,sans-Serif" font-size="10.00">/when/when.hpp</text>
</a>
</g>
</g>
<!-- Node8&#45;&gt;Node9 -->
<g id="edge9_Node000008_Node000009" class="edge">
<title>Node8&#45;&gt;Node9</title>
<g id="a_edge9_Node000008_Node000009"><a xlink:title=" ">
<path fill="none" stroke="#63b8ff" d="M1584.95,-194.33C1606.37,-184.53 1631.92,-172.85 1651.63,-163.83"/>
<polygon fill="#63b8ff" stroke="#63b8ff" points="1583.51,-191.14 1575.87,-198.48 1586.42,-197.51 1583.51,-191.14"/>
</a>
</g>
</g>
<!-- Node8&#45;&gt;Node15 -->
<g id="edge15_Node000008_Node000015" class="edge">
<title>Node8&#45;&gt;Node15</title>
<g id="a_edge15_Node000008_Node000015"><a xlink:title=" ">
<path fill="none" stroke="#63b8ff" d="M1550.76,-188.38C1553.47,-180.05 1556.39,-171.08 1558.75,-163.83"/>
<polygon fill="#63b8ff" stroke="#63b8ff" points="1547.5,-187.08 1547.73,-197.67 1554.16,-189.25 1547.5,-187.08"/>
</a>
</g>
</g>
<!-- Node10 -->
<g id="Node000010" class="node">
<title>Node10</title>
<g id="a_Node000010"><a xlink:href="join_8hpp.html" target="_top" xlink:title=" ">
<polygon fill="white" stroke="#666666" points="1493,-97 1390,-97 1390,-66.5 1493,-66.5 1493,-97"/>
<text text-anchor="start" x="1398" y="-83.5" font-family="Helvetica,sans-Serif" font-size="10.00">include/yaclib/async</text>
<text text-anchor="middle" x="1441.5" y="-72.25" font-family="Helvetica,sans-Serif" font-size="10.00">/join.hpp</text>
</a>
</g>
</g>
<!-- Node9&#45;&gt;Node10 -->
<g id="edge10_Node000009_Node000010" class="edge">
<title>Node9&#45;&gt;Node10</title>
<g id="a_edge10_Node000009_Node000010"><a xlink:title=" ">
<path fill="none" stroke="#63b8ff" d="M1620.47,-130.45C1580.92,-119.91 1530.55,-106.48 1493.33,-96.56"/>
<polygon fill="#63b8ff" stroke="#63b8ff" points="1619.56,-133.83 1630.12,-133.02 1621.36,-127.07 1619.56,-133.83"/>
</a>
</g>
</g>
<!-- Node11 -->
<g id="Node000011" class="node">
<title>Node11</title>
<g id="a_Node000011"><a xlink:href="when__all_8hpp.html" target="_top" xlink:title=" ">
<polygon fill="white" stroke="#666666" points="1614,-97 1511,-97 1511,-66.5 1614,-66.5 1614,-97"/>
<text text-anchor="start" x="1519" y="-83.5" font-family="Helvetica,sans-Serif" font-size="10.00">include/yaclib/async</text>
<text text-anchor="middle" x="1562.5" y="-72.25" font-family="Helvetica,sans-Serif" font-size="10.00">/when_all.hpp</text>
</a>
</g>
</g>
<!-- Node9&#45;&gt;Node11 -->
<g id="edge11_Node000009_Node000011" class="edge">
<title>Node9&#45;&gt;Node11</title>
<g id="a_edge11_Node000009_Node000011"><a xlink:title=" ">
<path fill="none" stroke="#63b8ff" d="M1646.06,-127.29C1627.89,-117.61 1606.46,-106.18 1589.85,-97.33"/>
<polygon fill="#63b8ff" stroke="#63b8ff" points="1644.24,-130.29 1654.71,-131.9 1647.53,-124.11 1644.24,-130.29"/>
</a>
</g>
</g>
<!-- Node13 -->
<g id="Node000013" class="node">
<title>Node13</title>
<g id="a_Node000013"><a xlink:href="when__any_8hpp.html" target="_top" xlink:title=" ">
<polygon fill="white" stroke="#666666" points="1735,-97 1632,-97 1632,-66.5 1735,-66.5 1735,-97"/>
<text text-anchor="start" x="1640" y="-83.5" font-family="Helvetica,sans-Serif" font-size="10.00">include/yaclib/async</text>
<text text-anchor="middle" x="1683.5" y="-72.25" font-family="Helvetica,sans-Serif" font-size="10.00">/when_any.hpp</text>
</a>
</g>
</g>
<!-- Node9&#45;&gt;Node13 -->
<g id="edge13_Node000009_Node000013" class="edge">
<title>Node9&#45;&gt;Node13</title>
<g id="a_edge13_Node000009_Node000013"><a xlink:title=" ">
<path fill="none" stroke="#63b8ff" d="M1683.5,-121.31C1683.5,-113.14 1683.5,-104.41 1683.5,-97.33"/>
<polygon fill="#63b8ff" stroke="#63b8ff" points="1680,-121.1 1683.5,-131.1 1687,-121.1 1680,-121.1"/>
</a>
</g>
</g>
<!-- Node12 -->
<g id="Node000012" class="node">
<title>Node12</title>
<g id="a_Node000012"><a xlink:href="when__all_8cpp.html" target="_top" xlink:title=" ">
<polygon fill="white" stroke="#666666" points="1613.5,-30.5 1513.5,-30.5 1513.5,0 1613.5,0 1613.5,-30.5"/>
<text text-anchor="start" x="1521.5" y="-17" font-family="Helvetica,sans-Serif" font-size="10.00">test/example/async</text>
<text text-anchor="middle" x="1563.5" y="-5.75" font-family="Helvetica,sans-Serif" font-size="10.00">/when_all.cpp</text>
</a>
</g>
</g>
<!-- Node11&#45;&gt;Node12 -->
<g id="edge12_Node000011_Node000012" class="edge">
<title>Node11&#45;&gt;Node12</title>
<g id="a_edge12_Node000011_Node000012"><a xlink:title=" ">
<path fill="none" stroke="#63b8ff" d="M1562.9,-54.81C1563.03,-46.64 1563.16,-37.91 1563.27,-30.83"/>
<polygon fill="#63b8ff" stroke="#63b8ff" points="1559.41,-54.55 1562.75,-64.6 1566.41,-54.66 1559.41,-54.55"/>
</a>
</g>
</g>
<!-- Node14 -->
<g id="Node000014" class="node">
<title>Node14</title>
<g id="a_Node000014"><a xlink:href="when__any_8cpp.html" target="_top" xlink:title=" ">
<polygon fill="white" stroke="#666666" points="1792.5,-30.5 1692.5,-30.5 1692.5,0 1792.5,0 1792.5,-30.5"/>
<text text-anchor="start" x="1700.5" y="-17" font-family="Helvetica,sans-Serif" font-size="10.00">test/example/async</text>
<text text-anchor="middle" x="1742.5" y="-5.75" font-family="Helvetica,sans-Serif" font-size="10.00">/when_any.cpp</text>
</a>
</g>
</g>
<!-- Node13&#45;&gt;Node14 -->
<g id="edge14_Node000013_Node000014" class="edge">
<title>Node13&#45;&gt;Node14</title>
<g id="a_edge14_Node000013_Node000014"><a xlink:title=" ">
<path fill="none" stroke="#63b8ff" d="M1704.65,-57.63C1712.82,-48.69 1721.93,-38.74 1729.16,-30.83"/>
<polygon fill="#63b8ff" stroke="#63b8ff" points="1702.08,-55.26 1697.91,-65 1707.24,-59.98 1702.08,-55.26"/>
</a>
</g>
</g>
<!-- Node18&#45;&gt;Node12 -->
<g id="edge20_Node000018_Node000012" class="edge">
<title>Node18&#45;&gt;Node12</title>
<g id="a_edge20_Node000018_Node000012"><a xlink:title=" ">
<path fill="none" stroke="#63b8ff" d="M1713.39,-193.57C1725.75,-186.05 1737.45,-176.17 1744.5,-163.5 1765.46,-125.83 1770.59,-100.82 1744.5,-66.5 1728.66,-45.67 1661.54,-31.2 1613.66,-23.31"/>
<polygon fill="#63b8ff" stroke="#63b8ff" points="1711.79,-190.45 1704.75,-198.36 1715.19,-196.57 1711.79,-190.45"/>
</a>
</g>
</g>
<!-- Node18&#45;&gt;Node14 -->
<g id="edge21_Node000018_Node000014" class="edge">
<title>Node18&#45;&gt;Node14</title>
<g id="a_edge21_Node000018_Node000014"><a xlink:title=" ">
<path fill="none" stroke="#63b8ff" d="M1720.46,-195.24C1745.34,-185.9 1770.47,-174.28 1777.5,-163.5 1801.05,-127.39 1790.41,-107.63 1777.5,-66.5 1773.3,-53.11 1764.12,-40.17 1756.22,-30.77"/>
<polygon fill="#63b8ff" stroke="#63b8ff" points="1719.49,-191.87 1711.29,-198.58 1721.88,-198.45 1719.49,-191.87"/>
</a>
</g>
</g>
<!-- Node18&#45;&gt;Node15 -->
<g id="edge19_Node000018_Node000015" class="edge">
<title>Node18&#45;&gt;Node15</title>
<g id="a_edge19_Node000018_Node000015"><a xlink:title=" ">
<path fill="none" stroke="#63b8ff" d="M1631.51,-193.11C1616.72,-183.58 1599.51,-172.48 1586.1,-163.83"/>
<polygon fill="#63b8ff" stroke="#63b8ff" points="1629.24,-195.81 1639.54,-198.29 1633.03,-189.93 1629.24,-195.81"/>
</a>
</g>
</g>
<!-- Node22&#45;&gt;Node21 -->
<g id="edge28_Node000022_Node000021" class="edge">
<title>Node22&#45;&gt;Node21</title>
<g id="a_edge28_Node000022_Node000021"><a xlink:title=" ">
<path fill="none" stroke="#63b8ff" d="M801.5,-54.81C801.5,-46.64 801.5,-37.91 801.5,-30.83"/>
<polygon fill="#63b8ff" stroke="#63b8ff" points="798,-54.6 801.5,-64.6 805,-54.6 798,-54.6"/>
</a>
</g>
</g>
<!-- Node25&#45;&gt;Node21 -->
<g id="edge32_Node000025_Node000021" class="edge">
<title>Node25&#45;&gt;Node21</title>
<g id="a_edge32_Node000025_Node000021"><a xlink:title=" ">
<path fill="none" stroke="#63b8ff" d="M881.78,-121.4C877.26,-104.74 869.81,-83.16 858.5,-66.5 849.01,-52.53 834.76,-39.97 822.89,-30.9"/>
<polygon fill="#63b8ff" stroke="#63b8ff" points="878.37,-122.2 884.19,-131.06 885.16,-120.51 878.37,-122.2"/>
</a>
</g>
</g>
<!-- Node25&#45;&gt;Node22 -->
<g id="edge33_Node000025_Node000022" class="edge">
<title>Node25&#45;&gt;Node22</title>
<g id="a_edge33_Node000025_Node000022"><a xlink:title=" ">
<path fill="none" stroke="#63b8ff" d="M858.89,-125.79C846.43,-116.44 832.14,-105.73 820.94,-97.33"/>
<polygon fill="#63b8ff" stroke="#63b8ff" points="856.67,-128.51 866.77,-131.71 860.87,-122.91 856.67,-128.51"/>
</a>
</g>
</g>
<!-- Node25&#45;&gt;Node24 -->
<g id="edge34_Node000025_Node000024" class="edge">
<title>Node25&#45;&gt;Node24</title>
<g id="a_edge34_Node000025_Node000024"><a xlink:title=" ">
<path fill="none" stroke="#63b8ff" d="M915.11,-125.79C927.14,-116.44 940.93,-105.73 951.74,-97.33"/>
<polygon fill="#63b8ff" stroke="#63b8ff" points="913.28,-122.79 907.53,-131.69 917.57,-128.31 913.28,-122.79"/>
</a>
</g>
</g>
<!-- Node26&#45;&gt;Node23 -->
<g id="edge36_Node000026_Node000023" class="edge">
<title>Node26&#45;&gt;Node23</title>
<g id="a_edge36_Node000026_Node000023"><a xlink:title=" ">
<path fill="none" stroke="#63b8ff" d="M678.25,-124.41C669.87,-115.4 660.49,-105.32 653.06,-97.33"/>
<polygon fill="#63b8ff" stroke="#63b8ff" points="675.48,-126.57 684.85,-131.51 680.61,-121.8 675.48,-126.57"/>
</a>
</g>
</g>
<!-- Node28&#45;&gt;Node25 -->
<g id="edge39_Node000028_Node000025" class="edge">
<title>Node28&#45;&gt;Node25</title>
<g id="a_edge39_Node000028_Node000025"><a xlink:title=" ">
<path fill="none" stroke="#63b8ff" d="M1071.33,-198.25C1032.26,-187.83 981.09,-174.19 942.66,-163.95"/>
<polygon fill="#63b8ff" stroke="#63b8ff" points="1070.24,-201.58 1080.8,-200.77 1072.04,-194.81 1070.24,-201.58"/>
</a>
</g>
</g>
<!-- Node28&#45;&gt;Node26 -->
<g id="edge40_Node000028_Node000026" class="edge">
<title>Node28&#45;&gt;Node26</title>
<g id="a_edge40_Node000028_Node000026"><a xlink:title=" ">
<path fill="none" stroke="#63b8ff" d="M1071.12,-204.99C992.58,-193.21 853.09,-172.29 769.16,-159.7"/>
<polygon fill="#63b8ff" stroke="#63b8ff" points="1070.35,-208.42 1080.76,-206.44 1071.39,-201.49 1070.35,-208.42"/>
</a>
</g>
</g>
<!-- Node28&#45;&gt;Node27 -->
<g id="edge41_Node000028_Node000027" class="edge">
<title>Node28&#45;&gt;Node27</title>
<g id="a_edge41_Node000028_Node000027"><a xlink:title=" ">
<path fill="none" stroke="#63b8ff" d="M1103.57,-191.74C1092.71,-182.53 1080.38,-172.06 1070.68,-163.83"/>
<polygon fill="#63b8ff" stroke="#63b8ff" points="1101.21,-194.33 1111.1,-198.13 1105.74,-189 1101.21,-194.33"/>
</a>
</g>
</g>
<!-- Node29 -->
<g id="Node000029" class="node">
<title>Node29</title>
<g id="a_Node000029"><a xlink:href="coro_2task_8hpp.html" target="_top" xlink:title=" ">
<polygon fill="white" stroke="#666666" points="1383.62,-163.5 1287.38,-163.5 1287.38,-133 1383.62,-133 1383.62,-163.5"/>
<text text-anchor="start" x="1295.38" y="-150" font-family="Helvetica,sans-Serif" font-size="10.00">include/yaclib/coro</text>
<text text-anchor="middle" x="1335.5" y="-138.75" font-family="Helvetica,sans-Serif" font-size="10.00">/task.hpp</text>
</a>
</g>
</g>
<!-- Node28&#45;&gt;Node29 -->
<g id="edge42_Node000028_Node000029" class="edge">
<title>Node28&#45;&gt;Node29</title>
<g id="a_edge42_Node000028_Node000029"><a xlink:title=" ">
<path fill="none" stroke="#63b8ff" d="M1187.49,-195.59C1219.48,-185.58 1258.68,-173.3 1288.7,-163.9"/>
<polygon fill="#63b8ff" stroke="#63b8ff" points="1186.44,-192.25 1177.95,-198.58 1188.54,-198.93 1186.44,-192.25"/>
</a>
</g>
</g>
<!-- Node30 -->
<g id="Node000030" class="node">
<title>Node30</title>
<g id="a_Node000030"><a xlink:href="lazy_2make_8hpp.html" target="_top" xlink:title=" ">
<polygon fill="white" stroke="#666666" points="1273.5,-97 1179.5,-97 1179.5,-66.5 1273.5,-66.5 1273.5,-97"/>
<text text-anchor="start" x="1187.5" y="-83.5" font-family="Helvetica,sans-Serif" font-size="10.00">include/yaclib/lazy</text>
<text text-anchor="middle" x="1226.5" y="-72.25" font-family="Helvetica,sans-Serif" font-size="10.00">/make.hpp</text>
</a>
</g>
</g>
<!-- Node28&#45;&gt;Node30 -->
<g id="edge43_Node000028_Node000030" class="edge">
<title>Node28&#45;&gt;Node30</title>
<g id="a_edge43_Node000028_Node000030"><a xlink:title=" ">
<path fill="none" stroke="#63b8ff" d="M1130.63,-188C1132.49,-171.05 1137.14,-149.09 1148.5,-133 1159.37,-117.6 1176.6,-105.78 1192.1,-97.49"/>
<polygon fill="#63b8ff" stroke="#63b8ff" points="1127.16,-187.55 1129.83,-197.8 1134.13,-188.11 1127.16,-187.55"/>
</a>
</g>
</g>
<!-- Node31 -->
<g id="Node000031" class="node">
<title>Node31</title>
<g id="a_Node000031"><a xlink:href="schedule_8hpp.html" target="_top" xlink:title=" ">
<polygon fill="white" stroke="#666666" points="1495.5,-163.5 1401.5,-163.5 1401.5,-133 1495.5,-133 1495.5,-163.5"/>
<text text-anchor="start" x="1409.5" y="-150" font-family="Helvetica,sans-Serif" font-size="10.00">include/yaclib/lazy</text>
<text text-anchor="middle" x="1448.5" y="-138.75" font-family="Helvetica,sans-Serif" font-size="10.00">/schedule.hpp</text>
</a>
</g>
</g>
<!-- Node28&#45;&gt;Node31 -->
<g id="edge44_Node000028_Node000031" class="edge">
<title>Node28&#45;&gt;Node31</title>
<g id="a_edge44_Node000028_Node000031"><a xlink:title=" ">
<path fill="none" stroke="#63b8ff" d="M1188.01,-203.62C1241.45,-194.11 1322.54,-179.07 1392.5,-163.5 1395.34,-162.87 1398.25,-162.2 1401.19,-161.5"/>
<polygon fill="#63b8ff" stroke="#63b8ff" points="1187.44,-200.16 1178.2,-205.35 1188.66,-207.06 1187.44,-200.16"/>
</a>
</g>
</g>
<!-- Node32 -->
<g id="Node000032" class="node">
<title>Node32</title>
<g id="a_Node000032"><a xlink:href="task__impl_8cpp.html" target="_top" xlink:title=" ">
<polygon fill="white" stroke="#666666" points="1269.5,-157.88 1157.5,-157.88 1157.5,-138.62 1269.5,-138.62 1269.5,-157.88"/>
<text text-anchor="middle" x="1213.5" y="-144.38" font-family="Helvetica,sans-Serif" font-size="10.00">src/lazy/task_impl.cpp</text>
</a>
</g>
</g>
<!-- Node28&#45;&gt;Node32 -->
<g id="edge46_Node000028_Node000032" class="edge">
<title>Node28&#45;&gt;Node32</title>
<g id="a_edge46_Node000028_Node000032"><a xlink:title=" ">
<path fill="none" stroke="#63b8ff" d="M1157.57,-192.2C1172.73,-180.56 1190.62,-166.82 1202.01,-158.07"/>
<polygon fill="#63b8ff" stroke="#63b8ff" points="1155.56,-189.33 1149.76,-198.19 1159.82,-194.88 1155.56,-189.33"/>
</a>
</g>
</g>
<!-- Node31&#45;&gt;Node30 -->
<g id="edge45_Node000031_Node000030" class="edge">
<title>Node31&#45;&gt;Node30</title>
<g id="a_edge45_Node000031_Node000030"><a xlink:title=" ">
<path fill="none" stroke="#63b8ff" d="M1390.22,-130.32C1353.91,-119.77 1307.81,-106.37 1273.78,-96.49"/>
<polygon fill="#63b8ff" stroke="#63b8ff" points="1389.11,-133.64 1399.69,-133.07 1391.07,-126.92 1389.11,-133.64"/>
</a>
</g>
</g>
<!-- Node34&#45;&gt;Node5 -->
<g id="edge50_Node000034_Node000005" class="edge">
<title>Node34&#45;&gt;Node5</title>
<g id="a_edge50_Node000034_Node000005"><a xlink:title=" ">
<path fill="none" stroke="#63b8ff" d="M1865.74,-260.16C1848.08,-250.5 1827.29,-239.14 1811.17,-230.33"/>
<polygon fill="#63b8ff" stroke="#63b8ff" points="1863.94,-263.16 1874.4,-264.89 1867.3,-257.02 1863.94,-263.16"/>
</a>
</g>
</g>
<!-- Node34&#45;&gt;Node6 -->
<g id="edge52_Node000034_Node000006" class="edge">
<title>Node34&#45;&gt;Node6</title>
<g id="a_edge52_Node000034_Node000006"><a xlink:title=" ">
<path fill="none" stroke="#63b8ff" d="M1898.36,-254.43C1894.02,-227.34 1887.34,-185.71 1883.84,-163.83"/>
<polygon fill="#63b8ff" stroke="#63b8ff" points="1894.89,-254.92 1899.93,-264.24 1901.81,-253.81 1894.89,-254.92"/>
</a>
</g>
</g>
<!-- Node34&#45;&gt;Node18 -->
<g id="edge51_Node000034_Node000018" class="edge">
<title>Node34&#45;&gt;Node18</title>
<g id="a_edge51_Node000034_Node000018"><a xlink:title=" ">
<path fill="none" stroke="#63b8ff" d="M1839.99,-263.38C1801.17,-252.9 1751.88,-239.6 1715.26,-229.72"/>
<polygon fill="#63b8ff" stroke="#63b8ff" points="1838.61,-266.63 1849.18,-265.86 1840.44,-259.88 1838.61,-266.63"/>
</a>
</g>
</g>
<!-- Node35 -->
<g id="Node000035" class="node">
<title>Node35</title>
<g id="a_Node000035"><a xlink:href="shared__contract_8hpp.html" target="_top" xlink:title=" ">
<polygon fill="white" stroke="#666666" points="2175.88,-230 2069.12,-230 2069.12,-199.5 2175.88,-199.5 2175.88,-230"/>
<text text-anchor="start" x="2077.12" y="-216.5" font-family="Helvetica,sans-Serif" font-size="10.00">include/yaclib/async</text>
<text text-anchor="middle" x="2122.5" y="-205.25" font-family="Helvetica,sans-Serif" font-size="10.00">/shared_contract.hpp</text>
</a>
</g>
</g>
<!-- Node34&#45;&gt;Node35 -->
<g id="edge53_Node000034_Node000035" class="edge">
<title>Node34&#45;&gt;Node35</title>
<g id="a_edge53_Node000034_Node000035"><a xlink:title=" ">
<path fill="none" stroke="#63b8ff" d="M1963.54,-262.35C1997.86,-252.29 2040.18,-239.89 2072.52,-230.4"/>
<polygon fill="#63b8ff" stroke="#63b8ff" points="1962.76,-258.94 1954.15,-265.11 1964.73,-265.65 1962.76,-258.94"/>
</a>
</g>
</g>
<!-- Node36 -->
<g id="Node000036" class="node">
<title>Node36</title>
<g id="a_Node000036"><a xlink:href="coro_2shared__future_8hpp.html" target="_top" xlink:title=" ">
<polygon fill="white" stroke="#666666" points="2290.62,-230 2194.38,-230 2194.38,-199.5 2290.62,-199.5 2290.62,-230"/>
<text text-anchor="start" x="2202.38" y="-216.5" font-family="Helvetica,sans-Serif" font-size="10.00">include/yaclib/coro</text>
<text text-anchor="middle" x="2242.5" y="-205.25" font-family="Helvetica,sans-Serif" font-size="10.00">/shared_future.hpp</text>
</a>
</g>
</g>
<!-- Node34&#45;&gt;Node36 -->
<g id="edge55_Node000034_Node000036" class="edge">
<title>Node34&#45;&gt;Node36</title>
<g id="a_edge55_Node000034_Node000036"><a xlink:title=" ">
<path fill="none" stroke="#63b8ff" d="M1965.46,-270.23C2022.76,-260.82 2109.58,-245.86 2184.5,-230 2187.64,-229.33 2190.88,-228.62 2194.13,-227.88"/>
<polygon fill="#63b8ff" stroke="#63b8ff" points="1965.21,-266.72 1955.9,-271.79 1966.34,-273.63 1965.21,-266.72"/>
</a>
</g>
</g>
<!-- Node37 -->
<g id="Node000037" class="node">
<title>Node37</title>
<g id="a_Node000037"><a xlink:href="shared__future__impl_8cpp.html" target="_top" xlink:title=" ">
<polygon fill="white" stroke="#666666" points="2050.62,-230 1930.38,-230 1930.38,-199.5 2050.62,-199.5 2050.62,-230"/>
<text text-anchor="start" x="1938.38" y="-216.5" font-family="Helvetica,sans-Serif" font-size="10.00">src/async/shared_future</text>
<text text-anchor="middle" x="1990.5" y="-205.25" font-family="Helvetica,sans-Serif" font-size="10.00">_impl.cpp</text>
</a>
</g>
</g>
<!-- Node34&#45;&gt;Node37 -->
<g id="edge56_Node000034_Node000037" class="edge">
<title>Node34&#45;&gt;Node37</title>
<g id="a_edge56_Node000034_Node000037"><a xlink:title=" ">
<path fill="none" stroke="#63b8ff" d="M1931.4,-259.07C1944.24,-249.66 1959.04,-238.81 1970.61,-230.33"/>
<polygon fill="#63b8ff" stroke="#63b8ff" points="1929.69,-255.98 1923.69,-264.72 1933.82,-261.63 1929.69,-255.98"/>
</a>
</g>
</g>
<!-- Node35&#45;&gt;Node7 -->
<g id="edge54_Node000035_Node000007" class="edge">
<title>Node35&#45;&gt;Node7</title>
<g id="a_edge54_Node000035_Node000007"><a xlink:title=" ">
<path fill="none" stroke="#63b8ff" d="M2085.37,-193.79C2067.35,-184.11 2046.09,-172.68 2029.62,-163.83"/>
<polygon fill="#63b8ff" stroke="#63b8ff" points="2083.47,-196.75 2093.94,-198.4 2086.79,-190.58 2083.47,-196.75"/>
</a>
</g>
</g>
</g>
</svg>

<g id="navigator" transform="translate(0 0)" fill="#404254">
  <rect fill="#f2f5e9" fill-opacity="0.5" stroke="#606060" stroke-width=".5" x="0" y="0" width="60" height="60"/>
  <use id="zoomplus" xlink:href="#zoomPlus" x="17" y="9" onmousedown="handleZoom(evt,'in')"/>
  <use id="zoomminus" xlink:href="#zoomMin" x="42" y="9" onmousedown="handleZoom(evt,'out')"/>
  <use id="reset" xlink:href="#resetDef" x="30" y="36" onmousedown="handleReset()"/>
   <use id="arrowup" xlink:href="#arrowUp" x="0" y="0" onmousedown="handlePan(0,-1)"/>
  <use id="arrowright" xlink:href="#arrowRight" x="0" y="0" onmousedown="handlePan(1,0)"/>
  <use id="arrowdown" xlink:href="#arrowDown" x="0" y="0" onmousedown="handlePan(0,1)"/>
  <use id="arrowleft" xlink:href="#arrowLeft" x="0" y="0" onmousedown="handlePan(-1,0)"/>
</g>
<svg viewBox="0 0 15 15" width="100%" height="30px" preserveAspectRatio="xMaxYMin meet">
 <g id="arrow_out" transform="scale(0.3 0.3)">
  <a xlink:href="wait_8hpp__dep__incl_org.svg" target="_base">
   <rect id="button" ry="5" rx="5" y="6" x="6" height="38" width="38"
        fill="#f2f5e9" fill-opacity="0.5" stroke="#606060" stroke-width="1.0"/>
   <path id="arrow"
     d="M 11.500037,31.436501 C 11.940474,20.09759 22.043105,11.32322 32.158766,21.979434 L 37.068811,17.246167 C 37.068811,17.246167 37.088388,32 37.088388,32 L 22.160133,31.978069 C 22.160133,31.978069 26.997745,27.140456 26.997745,27.140456 C 18.528582,18.264221 13.291696,25.230495 11.500037,31.436501 z"
     style="fill:#404040;"/>
  </a>
 </g>
</svg>

<style type='text/css'>
<![CDATA[
[data-mouse-over-selected='false'] { opacity: 0.7; }
[data-mouse-over-selected='true']  { opacity: 1.0; }
]]>
</style>
<script type="application/ecmascript"><![CDATA[
document.addEventListener('DOMContentLoaded', (event) => {
  highlightEdges();
  highlightAdjacentNodes();
});
]]></script>
</svg>
