<?xml version="1.0" encoding="UTF-8" standalone="no"?>
<!DOCTYPE svg PUBLIC "-//W3C//DTD SVG 1.1//EN"
 "http://www.w3.org/Graphics/SVG/1.1/DTD/svg11.dtd">
<!-- Generated by graphviz version 3.0.0 (20220413.0242)
 -->
<!-- Title: include/yaclib/algo/wait_until.hpp Pages: 1 -->
<svg width="1711pt" height="676pt"
 viewBox="0.00 0.00 1711.00 676.00" xmlns="http://www.w3.org/2000/svg" xmlns:xlink="http://www.w3.org/1999/xlink">
<g id="graph0" class="graph" transform="scale(1 1) rotate(0) translate(4 672)">
<title>include/yaclib/algo/wait_until.hpp</title>
<!-- Node1 -->
<g id="node1" class="node">
<title>Node1</title>
<g id="a_node1"><a xlink:title=" ">
<polygon fill="#bfbfbf" stroke="black" points="1395,-637.5 1395,-667.5 1491,-667.5 1491,-637.5 1395,-637.5"/>
<text text-anchor="start" x="1403" y="-655.5" font-family="Helvetica,sans-Serif" font-size="10.00">include/yaclib/algo</text>
<text text-anchor="middle" x="1443" y="-644.5" font-family="Helvetica,sans-Serif" font-size="10.00">/wait_until.hpp</text>
</a>
</g>
</g>
<!-- Node2 -->
<g id="node2" class="node">
<title>Node2</title>
<g id="a_node2"><a xlink:href="wait__impl_8hpp.html" target="_top" xlink:title=" ">
<polygon fill="none" stroke="black" points="798.5,-380.5 798.5,-410.5 887.5,-410.5 887.5,-380.5 798.5,-380.5"/>
<text text-anchor="start" x="806.5" y="-398.5" font-family="Helvetica,sans-Serif" font-size="10.00">yaclib/algo/detail</text>
<text text-anchor="middle" x="843" y="-387.5" font-family="Helvetica,sans-Serif" font-size="10.00">/wait_impl.hpp</text>
</a>
</g>
</g>
<!-- Node1&#45;&gt;Node2 -->
<g id="edge1" class="edge">
<title>Node1&#45;&gt;Node2</title>
<path fill="none" stroke="midnightblue" d="M1409.89,-637.43C1307.96,-594.11 998.96,-462.78 885.43,-414.53"/>
<polygon fill="midnightblue" stroke="midnightblue" points="886.58,-411.22 876.01,-410.53 883.85,-417.66 886.58,-411.22"/>
</g>
<!-- Node21 -->
<g id="node21" class="node">
<title>Node21</title>
<g id="a_node21"><a xlink:title=" ">
<polygon fill="none" stroke="#bfbfbf" points="1289.5,-252 1289.5,-271 1338.5,-271 1338.5,-252 1289.5,-252"/>
<text text-anchor="middle" x="1314" y="-259" font-family="Helvetica,sans-Serif" font-size="10.00">cstddef</text>
</a>
</g>
</g>
<!-- Node1&#45;&gt;Node21 -->
<g id="edge80" class="edge">
<title>Node1&#45;&gt;Node21</title>
<path fill="none" stroke="midnightblue" d="M1443,-637.34C1443,-614.75 1443,-569.15 1443,-530.5 1443,-530.5 1443,-530.5 1443,-394.5 1443,-337.19 1380.04,-295.53 1342.09,-275.63"/>
<polygon fill="midnightblue" stroke="midnightblue" points="1343.54,-272.44 1333.03,-271.04 1340.37,-278.68 1343.54,-272.44"/>
</g>
<!-- Node23 -->
<g id="node23" class="node">
<title>Node23</title>
<g id="a_node23"><a xlink:href="mutex__event_8hpp.html" target="_top" xlink:title=" ">
<polygon fill="none" stroke="black" points="1434.5,-246.5 1434.5,-276.5 1527.5,-276.5 1527.5,-246.5 1434.5,-246.5"/>
<text text-anchor="start" x="1442.5" y="-264.5" font-family="Helvetica,sans-Serif" font-size="10.00">yaclib/util/detail</text>
<text text-anchor="middle" x="1481" y="-253.5" font-family="Helvetica,sans-Serif" font-size="10.00">/mutex_event.hpp</text>
</a>
</g>
</g>
<!-- Node1&#45;&gt;Node23 -->
<g id="edge78" class="edge">
<title>Node1&#45;&gt;Node23</title>
<path fill="none" stroke="midnightblue" d="M1450.51,-637.42C1461.58,-615.31 1481,-570.79 1481,-530.5 1481,-530.5 1481,-530.5 1481,-394.5 1481,-357 1481,-313.51 1481,-287.01"/>
<polygon fill="midnightblue" stroke="midnightblue" points="1484.5,-286.76 1481,-276.76 1477.5,-286.76 1484.5,-286.76"/>
</g>
<!-- Node24 -->
<g id="node24" class="node">
<title>Node24</title>
<g id="a_node24"><a xlink:title=" ">
<polygon fill="none" stroke="#bfbfbf" points="1657,-185 1657,-204 1703,-204 1703,-185 1657,-185"/>
<text text-anchor="middle" x="1680" y="-192" font-family="Helvetica,sans-Serif" font-size="10.00">chrono</text>
</a>
</g>
</g>
<!-- Node1&#45;&gt;Node24 -->
<g id="edge79" class="edge">
<title>Node1&#45;&gt;Node24</title>
<path fill="none" stroke="midnightblue" d="M1491.28,-640.3C1543.08,-625.08 1618,-592.37 1618,-530.5 1618,-530.5 1618,-530.5 1618,-327.5 1618,-282.37 1648.05,-236.1 1666.31,-212.15"/>
<polygon fill="midnightblue" stroke="midnightblue" points="1669.2,-214.13 1672.64,-204.11 1663.71,-209.8 1669.2,-214.13"/>
</g>
<!-- Node33 -->
<g id="node33" class="node">
<title>Node33</title>
<g id="a_node33"><a xlink:href="future_8hpp.html" target="_top" xlink:title=" ">
<polygon fill="none" stroke="black" points="679,-581.5 679,-600.5 795,-600.5 795,-581.5 679,-581.5"/>
<text text-anchor="middle" x="737" y="-588.5" font-family="Helvetica,sans-Serif" font-size="10.00">yaclib/async/future.hpp</text>
</a>
</g>
</g>
<!-- Node1&#45;&gt;Node33 -->
<g id="edge47" class="edge">
<title>Node1&#45;&gt;Node33</title>
<path fill="none" stroke="midnightblue" d="M1394.75,-647.43C1272.04,-637.09 947.75,-609.76 805.51,-597.77"/>
<polygon fill="midnightblue" stroke="midnightblue" points="805.44,-594.26 795.18,-596.9 804.85,-601.23 805.44,-594.26"/>
</g>
<!-- Node3 -->
<g id="node3" class="node">
<title>Node3</title>
<g id="a_node3"><a xlink:href="base__core_8hpp.html" target="_top" xlink:title=" ">
<polygon fill="none" stroke="black" points="504,-313.5 504,-343.5 600,-343.5 600,-313.5 504,-313.5"/>
<text text-anchor="start" x="512" y="-331.5" font-family="Helvetica,sans-Serif" font-size="10.00">yaclib/async/detail</text>
<text text-anchor="middle" x="552" y="-320.5" font-family="Helvetica,sans-Serif" font-size="10.00">/base_core.hpp</text>
</a>
</g>
</g>
<!-- Node2&#45;&gt;Node3 -->
<g id="edge2" class="edge">
<title>Node2&#45;&gt;Node3</title>
<path fill="none" stroke="midnightblue" d="M798.49,-384.56C748.13,-373.31 665.91,-354.94 610.43,-342.55"/>
<polygon fill="midnightblue" stroke="midnightblue" points="610.91,-339.07 600.39,-340.31 609.39,-345.9 610.91,-339.07"/>
</g>
<!-- Node9 -->
<g id="node9" class="node">
<title>Node9</title>
<g id="a_node9"><a xlink:title=" ">
<polygon fill="none" stroke="#bfbfbf" points="293,-56.5 293,-75.5 355,-75.5 355,-56.5 293,-56.5"/>
<text text-anchor="middle" x="324" y="-63.5" font-family="Helvetica,sans-Serif" font-size="10.00">type_traits</text>
</a>
</g>
</g>
<!-- Node2&#45;&gt;Node9 -->
<g id="edge46" class="edge">
<title>Node2&#45;&gt;Node9</title>
<path fill="none" stroke="midnightblue" d="M798.24,-391.89C731.19,-387.11 601.21,-374.5 495,-344 490.57,-342.73 345.69,-280.75 343,-277 300.82,-218.28 312.41,-125.17 319.92,-85.69"/>
<polygon fill="midnightblue" stroke="midnightblue" points="323.39,-86.14 321.96,-75.64 316.54,-84.74 323.39,-86.14"/>
</g>
<!-- Node19 -->
<g id="node19" class="node">
<title>Node19</title>
<g id="a_node19"><a xlink:href="atomic__counter_8hpp.html" target="_top" xlink:title=" ">
<polygon fill="none" stroke="black" points="885,-313.5 885,-343.5 989,-343.5 989,-313.5 885,-313.5"/>
<text text-anchor="start" x="893" y="-331.5" font-family="Helvetica,sans-Serif" font-size="10.00">yaclib/util/detail</text>
<text text-anchor="middle" x="937" y="-320.5" font-family="Helvetica,sans-Serif" font-size="10.00">/atomic_counter.hpp</text>
</a>
</g>
</g>
<!-- Node2&#45;&gt;Node19 -->
<g id="edge23" class="edge">
<title>Node2&#45;&gt;Node19</title>
<path fill="none" stroke="midnightblue" d="M863.4,-380.4C876.45,-371.37 893.6,-359.51 908.05,-349.52"/>
<polygon fill="midnightblue" stroke="midnightblue" points="910.41,-352.14 916.64,-343.58 906.43,-346.39 910.41,-352.14"/>
</g>
<!-- Node2&#45;&gt;Node21 -->
<g id="edge44" class="edge">
<title>Node2&#45;&gt;Node21</title>
<path fill="none" stroke="midnightblue" d="M887.53,-384.66C919.51,-376.5 962.97,-363.12 998,-344 1017.13,-333.56 1016.21,-322.13 1036,-313 1078.94,-293.2 1214.84,-274.59 1279.36,-266.6"/>
<polygon fill="midnightblue" stroke="midnightblue" points="1279.94,-270.05 1289.44,-265.36 1279.09,-263.1 1279.94,-270.05"/>
</g>
<!-- Node22 -->
<g id="node22" class="node">
<title>Node22</title>
<g id="a_node22"><a xlink:href="default__event_8hpp.html" target="_top" xlink:title=" ">
<polygon fill="none" stroke="black" points="1045,-313.5 1045,-343.5 1141,-343.5 1141,-313.5 1045,-313.5"/>
<text text-anchor="start" x="1053" y="-331.5" font-family="Helvetica,sans-Serif" font-size="10.00">yaclib/util/detail</text>
<text text-anchor="middle" x="1093" y="-320.5" font-family="Helvetica,sans-Serif" font-size="10.00">/default_event.hpp</text>
</a>
</g>
</g>
<!-- Node2&#45;&gt;Node22 -->
<g id="edge29" class="edge">
<title>Node2&#45;&gt;Node22</title>
<path fill="none" stroke="midnightblue" d="M887.69,-382.88C928.83,-372.19 990.07,-356.26 1034.97,-344.59"/>
<polygon fill="midnightblue" stroke="midnightblue" points="1036.06,-347.92 1044.86,-342.02 1034.3,-341.15 1036.06,-347.92"/>
</g>
<!-- Node27 -->
<g id="node27" class="node">
<title>Node27</title>
<g id="a_node27"><a xlink:href="set__one__deleter_8hpp.html" target="_top" xlink:title=" ">
<polygon fill="none" stroke="black" points="694.5,-313.5 694.5,-343.5 801.5,-343.5 801.5,-313.5 694.5,-313.5"/>
<text text-anchor="start" x="702.5" y="-331.5" font-family="Helvetica,sans-Serif" font-size="10.00">yaclib/util/detail</text>
<text text-anchor="middle" x="748" y="-320.5" font-family="Helvetica,sans-Serif" font-size="10.00">/set_one_deleter.hpp</text>
</a>
</g>
</g>
<!-- Node2&#45;&gt;Node27 -->
<g id="edge36" class="edge">
<title>Node2&#45;&gt;Node27</title>
<path fill="none" stroke="midnightblue" d="M822.39,-380.4C809.07,-371.28 791.54,-359.29 776.84,-349.24"/>
<polygon fill="midnightblue" stroke="midnightblue" points="778.8,-346.33 768.57,-343.58 774.85,-352.11 778.8,-346.33"/>
</g>
<!-- Node28 -->
<g id="node28" class="node">
<title>Node28</title>
<g id="a_node28"><a xlink:href="type__traits_8hpp.html" target="_top" xlink:title=" ">
<polygon fill="none" stroke="black" points="134.5,-252 134.5,-271 257.5,-271 257.5,-252 134.5,-252"/>
<text text-anchor="middle" x="196" y="-259" font-family="Helvetica,sans-Serif" font-size="10.00">yaclib/util/type_traits.hpp</text>
</a>
</g>
</g>
<!-- Node2&#45;&gt;Node28 -->
<g id="edge37" class="edge">
<title>Node2&#45;&gt;Node28</title>
<path fill="none" stroke="midnightblue" d="M798.3,-390.99C726.69,-384.83 582.12,-370.17 462,-344 376.35,-325.34 278.44,-292.17 228.71,-274.45"/>
<polygon fill="midnightblue" stroke="midnightblue" points="229.73,-271.1 219.14,-271.02 227.37,-277.69 229.73,-271.1"/>
</g>
<!-- Node32 -->
<g id="node32" class="node">
<title>Node32</title>
<g id="a_node32"><a xlink:title=" ">
<polygon fill="none" stroke="#bfbfbf" points="819.5,-319 819.5,-338 866.5,-338 866.5,-319 819.5,-319"/>
<text text-anchor="middle" x="843" y="-326" font-family="Helvetica,sans-Serif" font-size="10.00">iterator</text>
</a>
</g>
</g>
<!-- Node2&#45;&gt;Node32 -->
<g id="edge45" class="edge">
<title>Node2&#45;&gt;Node32</title>
<path fill="none" stroke="midnightblue" d="M843,-380.4C843,-371.06 843,-358.71 843,-348.52"/>
<polygon fill="midnightblue" stroke="midnightblue" points="846.5,-348.19 843,-338.19 839.5,-348.19 846.5,-348.19"/>
</g>
<!-- Node4 -->
<g id="node4" class="node">
<title>Node4</title>
<g id="a_node4"><a xlink:href="inline__core_8hpp.html" target="_top" xlink:title=" ">
<polygon fill="none" stroke="black" points="352,-246.5 352,-276.5 448,-276.5 448,-246.5 352,-246.5"/>
<text text-anchor="start" x="360" y="-264.5" font-family="Helvetica,sans-Serif" font-size="10.00">yaclib/async/detail</text>
<text text-anchor="middle" x="400" y="-253.5" font-family="Helvetica,sans-Serif" font-size="10.00">/inline_core.hpp</text>
</a>
</g>
</g>
<!-- Node3&#45;&gt;Node4 -->
<g id="edge3" class="edge">
<title>Node3&#45;&gt;Node4</title>
<path fill="none" stroke="midnightblue" d="M519.02,-313.4C496.51,-303.77 466.5,-290.94 442.24,-280.56"/>
<polygon fill="midnightblue" stroke="midnightblue" points="443.49,-277.29 432.92,-276.58 440.74,-283.73 443.49,-277.29"/>
</g>
<!-- Node8 -->
<g id="node8" class="node">
<title>Node8</title>
<g id="a_node8"><a xlink:href="ref_8hpp.html" target="_top" xlink:title=" ">
<polygon fill="none" stroke="black" points="660.5,-56.5 660.5,-75.5 749.5,-75.5 749.5,-56.5 660.5,-56.5"/>
<text text-anchor="middle" x="705" y="-63.5" font-family="Helvetica,sans-Serif" font-size="10.00">yaclib/util/ref.hpp</text>
</a>
</g>
</g>
<!-- Node3&#45;&gt;Node8 -->
<g id="edge21" class="edge">
<title>Node3&#45;&gt;Node8</title>
<path fill="none" stroke="midnightblue" d="M599.48,-313.4C622.06,-305.18 648.51,-293.18 669,-277 727.31,-230.94 745.59,-213.53 769,-143 773.34,-129.92 775.35,-124.23 769,-112 761.85,-98.23 748.33,-87.78 735.55,-80.44"/>
<polygon fill="midnightblue" stroke="midnightblue" points="736.96,-77.23 726.48,-75.64 733.68,-83.41 736.96,-77.23"/>
</g>
<!-- Node12 -->
<g id="node12" class="node">
<title>Node12</title>
<g id="a_node12"><a xlink:title=" ">
<polygon fill="none" stroke="#bfbfbf" points="871,-252 871,-271 959,-271 959,-252 871,-252"/>
<text text-anchor="middle" x="915" y="-259" font-family="Helvetica,sans-Serif" font-size="10.00">yaclib/config.hpp</text>
</a>
</g>
</g>
<!-- Node3&#45;&gt;Node12 -->
<g id="edge11" class="edge">
<title>Node3&#45;&gt;Node12</title>
<path fill="none" stroke="midnightblue" d="M600.32,-315.78C604.93,-314.79 609.55,-313.84 614,-313 723.44,-292.3 752.97,-299.74 862,-277 866.71,-276.02 871.63,-274.86 876.48,-273.63"/>
<polygon fill="midnightblue" stroke="midnightblue" points="877.5,-276.98 886.27,-271.05 875.71,-270.21 877.5,-276.98"/>
</g>
<!-- Node13 -->
<g id="node13" class="node">
<title>Node13</title>
<g id="a_node13"><a xlink:href="executor_8hpp.html" target="_top" xlink:title=" ">
<polygon fill="none" stroke="black" points="504.5,-252 504.5,-271 643.5,-271 643.5,-252 504.5,-252"/>
<text text-anchor="middle" x="574" y="-259" font-family="Helvetica,sans-Serif" font-size="10.00">yaclib/executor/executor.hpp</text>
</a>
</g>
</g>
<!-- Node3&#45;&gt;Node13 -->
<g id="edge12" class="edge">
<title>Node3&#45;&gt;Node13</title>
<path fill="none" stroke="midnightblue" d="M556.77,-313.4C560,-303.86 564.29,-291.18 567.79,-280.86"/>
<polygon fill="midnightblue" stroke="midnightblue" points="571.17,-281.79 571.06,-271.19 564.54,-279.54 571.17,-281.79"/>
</g>
<!-- Node14 -->
<g id="node14" class="node">
<title>Node14</title>
<g id="a_node14"><a xlink:href="intrusive__ptr_8hpp.html" target="_top" xlink:title=" ">
<polygon fill="none" stroke="black" points="572.5,-179.5 572.5,-209.5 669.5,-209.5 669.5,-179.5 572.5,-179.5"/>
<text text-anchor="start" x="580.5" y="-197.5" font-family="Helvetica,sans-Serif" font-size="10.00">yaclib/util/intrusive</text>
<text text-anchor="middle" x="621" y="-186.5" font-family="Helvetica,sans-Serif" font-size="10.00">_ptr.hpp</text>
</a>
</g>
</g>
<!-- Node3&#45;&gt;Node14 -->
<g id="edge20" class="edge">
<title>Node3&#45;&gt;Node14</title>
<path fill="none" stroke="midnightblue" d="M600.17,-315.57C620.12,-308 641.3,-295.93 653,-277 664.5,-258.39 652.96,-234.95 640.65,-217.99"/>
<polygon fill="midnightblue" stroke="midnightblue" points="643.16,-215.51 634.25,-209.77 637.63,-219.81 643.16,-215.51"/>
</g>
<!-- Node18 -->
<g id="node18" class="node">
<title>Node18</title>
<g id="a_node18"><a xlink:title=" ">
<polygon fill="none" stroke="#bfbfbf" points="761,-252 761,-271 853,-271 853,-252 761,-252"/>
<text text-anchor="middle" x="807" y="-259" font-family="Helvetica,sans-Serif" font-size="10.00">yaclib_std/atomic</text>
</a>
</g>
</g>
<!-- Node3&#45;&gt;Node18 -->
<g id="edge22" class="edge">
<title>Node3&#45;&gt;Node18</title>
<path fill="none" stroke="midnightblue" d="M600.26,-315.2C647.38,-303.19 718.42,-285.08 763.74,-273.53"/>
<polygon fill="midnightblue" stroke="midnightblue" points="764.74,-276.88 773.56,-271.02 763.01,-270.1 764.74,-276.88"/>
</g>
<!-- Node5 -->
<g id="node5" class="node">
<title>Node5</title>
<g id="a_node5"><a xlink:href="job_8hpp.html" target="_top" xlink:title=" ">
<polygon fill="none" stroke="black" points="439.5,-185 439.5,-204 554.5,-204 554.5,-185 439.5,-185"/>
<text text-anchor="middle" x="497" y="-192" font-family="Helvetica,sans-Serif" font-size="10.00">yaclib/executor/job.hpp</text>
</a>
</g>
</g>
<!-- Node4&#45;&gt;Node5 -->
<g id="edge4" class="edge">
<title>Node4&#45;&gt;Node5</title>
<path fill="none" stroke="midnightblue" d="M421.05,-246.4C437.31,-235.5 459.72,-220.48 475.98,-209.58"/>
<polygon fill="midnightblue" stroke="midnightblue" points="477.95,-212.48 484.3,-204.01 474.05,-206.67 477.95,-212.48"/>
</g>
<!-- Node11 -->
<g id="node11" class="node">
<title>Node11</title>
<g id="a_node11"><a xlink:title=" ">
<polygon fill="none" stroke="#bfbfbf" points="375,-185 375,-204 421,-204 421,-185 375,-185"/>
<text text-anchor="middle" x="398" y="-192" font-family="Helvetica,sans-Serif" font-size="10.00">cstdint</text>
</a>
</g>
</g>
<!-- Node4&#45;&gt;Node11 -->
<g id="edge10" class="edge">
<title>Node4&#45;&gt;Node11</title>
<path fill="none" stroke="midnightblue" d="M399.57,-246.4C399.28,-237.06 398.9,-224.71 398.59,-214.52"/>
<polygon fill="midnightblue" stroke="midnightblue" points="402.07,-214.08 398.27,-204.19 395.08,-214.3 402.07,-214.08"/>
</g>
<!-- Node6 -->
<g id="node6" class="node">
<title>Node6</title>
<g id="a_node6"><a xlink:href="node_8hpp.html" target="_top" xlink:title=" ">
<polygon fill="none" stroke="black" points="352.5,-112.5 352.5,-142.5 435.5,-142.5 435.5,-112.5 352.5,-112.5"/>
<text text-anchor="start" x="360.5" y="-130.5" font-family="Helvetica,sans-Serif" font-size="10.00">yaclib/util/detail</text>
<text text-anchor="middle" x="394" y="-119.5" font-family="Helvetica,sans-Serif" font-size="10.00">/node.hpp</text>
</a>
</g>
</g>
<!-- Node5&#45;&gt;Node6 -->
<g id="edge5" class="edge">
<title>Node5&#45;&gt;Node6</title>
<path fill="none" stroke="midnightblue" d="M483.11,-184.73C468.25,-175.36 444.21,-160.19 424.85,-147.97"/>
<polygon fill="midnightblue" stroke="midnightblue" points="426.65,-144.97 416.33,-142.59 422.91,-150.89 426.65,-144.97"/>
</g>
<!-- Node7 -->
<g id="node7" class="node">
<title>Node7</title>
<g id="a_node7"><a xlink:href="func_8hpp.html" target="_top" xlink:title=" ">
<polygon fill="none" stroke="black" points="492.5,-118 492.5,-137 589.5,-137 589.5,-118 492.5,-118"/>
<text text-anchor="middle" x="541" y="-125" font-family="Helvetica,sans-Serif" font-size="10.00">yaclib/util/func.hpp</text>
</a>
</g>
</g>
<!-- Node5&#45;&gt;Node7 -->
<g id="edge6" class="edge">
<title>Node5&#45;&gt;Node7</title>
<path fill="none" stroke="midnightblue" d="M502.93,-184.73C509.73,-174.7 521.02,-158.01 529.55,-145.42"/>
<polygon fill="midnightblue" stroke="midnightblue" points="532.45,-147.37 535.16,-137.13 526.66,-143.45 532.45,-147.37"/>
</g>
<!-- Node7&#45;&gt;Node8 -->
<g id="edge7" class="edge">
<title>Node7&#45;&gt;Node8</title>
<path fill="none" stroke="midnightblue" d="M564.5,-117.98C592.63,-107.77 639.93,-90.61 671.79,-79.05"/>
<polygon fill="midnightblue" stroke="midnightblue" points="673.34,-82.21 681.55,-75.51 670.95,-75.63 673.34,-82.21"/>
</g>
<!-- Node7&#45;&gt;Node9 -->
<g id="edge8" class="edge">
<title>Node7&#45;&gt;Node9</title>
<path fill="none" stroke="midnightblue" d="M509.91,-117.98C471.72,-107.5 406.83,-89.71 364.7,-78.16"/>
<polygon fill="midnightblue" stroke="midnightblue" points="365.6,-74.78 355.03,-75.51 363.75,-81.53 365.6,-74.78"/>
</g>
<!-- Node10 -->
<g id="node10" class="node">
<title>Node10</title>
<g id="a_node10"><a xlink:title=" ">
<polygon fill="none" stroke="#bfbfbf" points="521.5,-56.5 521.5,-75.5 560.5,-75.5 560.5,-56.5 521.5,-56.5"/>
<text text-anchor="middle" x="541" y="-63.5" font-family="Helvetica,sans-Serif" font-size="10.00">utility</text>
</a>
</g>
</g>
<!-- Node7&#45;&gt;Node10 -->
<g id="edge9" class="edge">
<title>Node7&#45;&gt;Node10</title>
<path fill="none" stroke="midnightblue" d="M541,-117.98C541,-109.58 541,-96.48 541,-85.66"/>
<polygon fill="midnightblue" stroke="midnightblue" points="544.5,-85.51 541,-75.51 537.5,-85.51 544.5,-85.51"/>
</g>
<!-- Node13&#45;&gt;Node5 -->
<g id="edge13" class="edge">
<title>Node13&#45;&gt;Node5</title>
<path fill="none" stroke="midnightblue" d="M563.62,-251.73C551.15,-241.21 530.03,-223.38 514.91,-210.62"/>
<polygon fill="midnightblue" stroke="midnightblue" points="517.12,-207.9 507.22,-204.13 512.6,-213.25 517.12,-207.9"/>
</g>
<!-- Node13&#45;&gt;Node14 -->
<g id="edge14" class="edge">
<title>Node13&#45;&gt;Node14</title>
<path fill="none" stroke="midnightblue" d="M580.34,-251.73C586.57,-243.12 596.34,-229.61 604.74,-217.99"/>
<polygon fill="midnightblue" stroke="midnightblue" points="607.79,-219.74 610.81,-209.59 602.12,-215.64 607.79,-219.74"/>
</g>
<!-- Node14&#45;&gt;Node8 -->
<g id="edge15" class="edge">
<title>Node14&#45;&gt;Node8</title>
<path fill="none" stroke="midnightblue" d="M620.58,-179.29C620.75,-161.97 623.28,-132.49 637,-112 646.22,-98.24 661.21,-87.66 674.78,-80.22"/>
<polygon fill="midnightblue" stroke="midnightblue" points="676.55,-83.25 683.85,-75.58 673.36,-77.02 676.55,-83.25"/>
</g>
<!-- Node14&#45;&gt;Node9 -->
<g id="edge16" class="edge">
<title>Node14&#45;&gt;Node9</title>
<path fill="none" stroke="midnightblue" d="M572.43,-179.77C545.46,-171.14 511.84,-158.66 484,-143 464.7,-132.14 464.28,-122.88 445,-112 419.61,-97.67 388.78,-86.28 364.6,-78.55"/>
<polygon fill="midnightblue" stroke="midnightblue" points="365.6,-75.2 355.01,-75.56 363.52,-81.88 365.6,-75.2"/>
</g>
<!-- Node15 -->
<g id="node15" class="node">
<title>Node15</title>
<g id="a_node15"><a xlink:href="intrusive__ptr__impl_8hpp.html" target="_top" xlink:title=" ">
<polygon fill="none" stroke="black" points="646,-112.5 646,-142.5 760,-142.5 760,-112.5 646,-112.5"/>
<text text-anchor="start" x="654" y="-130.5" font-family="Helvetica,sans-Serif" font-size="10.00">yaclib/util/detail</text>
<text text-anchor="middle" x="703" y="-119.5" font-family="Helvetica,sans-Serif" font-size="10.00">/intrusive_ptr_impl.hpp</text>
</a>
</g>
</g>
<!-- Node14&#45;&gt;Node15 -->
<g id="edge17" class="edge">
<title>Node14&#45;&gt;Node15</title>
<path fill="none" stroke="midnightblue" d="M638.79,-179.4C650.08,-170.45 664.85,-158.74 677.39,-148.8"/>
<polygon fill="midnightblue" stroke="midnightblue" points="679.58,-151.53 685.24,-142.58 675.23,-146.05 679.58,-151.53"/>
</g>
<!-- Node16 -->
<g id="node16" class="node">
<title>Node16</title>
<g id="a_node16"><a xlink:href="log_8hpp.html" target="_top" xlink:title=" ">
<polygon fill="none" stroke="black" points="1046.5,-56.5 1046.5,-75.5 1121.5,-75.5 1121.5,-56.5 1046.5,-56.5"/>
<text text-anchor="middle" x="1084" y="-63.5" font-family="Helvetica,sans-Serif" font-size="10.00">yaclib/log.hpp</text>
</a>
</g>
</g>
<!-- Node15&#45;&gt;Node16 -->
<g id="edge18" class="edge">
<title>Node15&#45;&gt;Node16</title>
<path fill="none" stroke="midnightblue" d="M760.04,-117.59C835.33,-105.84 966.5,-85.35 1036.61,-74.4"/>
<polygon fill="midnightblue" stroke="midnightblue" points="1037.16,-77.86 1046.5,-72.86 1036.08,-70.94 1037.16,-77.86"/>
</g>
<!-- Node17 -->
<g id="node17" class="node">
<title>Node17</title>
<g id="a_node17"><a xlink:title=" ">
<polygon fill="none" stroke="#bfbfbf" points="1051,-0.5 1051,-19.5 1117,-19.5 1117,-0.5 1051,-0.5"/>
<text text-anchor="middle" x="1084" y="-7.5" font-family="Helvetica,sans-Serif" font-size="10.00">string_view</text>
</a>
</g>
</g>
<!-- Node16&#45;&gt;Node17 -->
<g id="edge19" class="edge">
<title>Node16&#45;&gt;Node17</title>
<path fill="none" stroke="midnightblue" d="M1084,-56.08C1084,-49.01 1084,-38.86 1084,-29.99"/>
<polygon fill="midnightblue" stroke="midnightblue" points="1087.5,-29.75 1084,-19.75 1080.5,-29.75 1087.5,-29.75"/>
</g>
<!-- Node19&#45;&gt;Node10 -->
<g id="edge27" class="edge">
<title>Node19&#45;&gt;Node10</title>
<path fill="none" stroke="midnightblue" d="M949.47,-313.48C962.66,-296.87 980.02,-268.58 968,-246 917.9,-151.87 867.47,-152.91 769,-112 701.53,-83.97 615.44,-73.08 570.82,-69.11"/>
<polygon fill="midnightblue" stroke="midnightblue" points="570.92,-65.6 560.67,-68.26 570.34,-72.58 570.92,-65.6"/>
</g>
<!-- Node19&#45;&gt;Node12 -->
<g id="edge24" class="edge">
<title>Node19&#45;&gt;Node12</title>
<path fill="none" stroke="midnightblue" d="M932.23,-313.4C929,-303.86 924.71,-291.18 921.21,-280.86"/>
<polygon fill="midnightblue" stroke="midnightblue" points="924.46,-279.54 917.94,-271.19 917.83,-281.79 924.46,-279.54"/>
</g>
<!-- Node19&#45;&gt;Node18 -->
<g id="edge28" class="edge">
<title>Node19&#45;&gt;Node18</title>
<path fill="none" stroke="midnightblue" d="M908.79,-313.4C886.28,-302.14 855,-286.5 833.08,-275.54"/>
<polygon fill="midnightblue" stroke="midnightblue" points="834.52,-272.35 824.01,-271.01 831.39,-278.61 834.52,-272.35"/>
</g>
<!-- Node20 -->
<g id="node20" class="node">
<title>Node20</title>
<g id="a_node20"><a xlink:href="default__deleter_8hpp.html" target="_top" xlink:title=" ">
<polygon fill="none" stroke="black" points="1084.5,-246.5 1084.5,-276.5 1185.5,-276.5 1185.5,-246.5 1084.5,-246.5"/>
<text text-anchor="start" x="1092.5" y="-264.5" font-family="Helvetica,sans-Serif" font-size="10.00">yaclib/util/detail</text>
<text text-anchor="middle" x="1135" y="-253.5" font-family="Helvetica,sans-Serif" font-size="10.00">/default_deleter.hpp</text>
</a>
</g>
</g>
<!-- Node19&#45;&gt;Node20 -->
<g id="edge25" class="edge">
<title>Node19&#45;&gt;Node20</title>
<path fill="none" stroke="midnightblue" d="M979.96,-313.4C1010.06,-303.52 1050.46,-290.25 1082.48,-279.74"/>
<polygon fill="midnightblue" stroke="midnightblue" points="1083.71,-283.02 1092.12,-276.58 1081.53,-276.37 1083.71,-283.02"/>
</g>
<!-- Node19&#45;&gt;Node21 -->
<g id="edge26" class="edge">
<title>Node19&#45;&gt;Node21</title>
<path fill="none" stroke="midnightblue" d="M989.18,-315.76C993.85,-314.79 998.51,-313.86 1003,-313 1102.9,-293.93 1221.74,-275.92 1279.31,-267.49"/>
<polygon fill="midnightblue" stroke="midnightblue" points="1279.94,-270.94 1289.33,-266.03 1278.93,-264.01 1279.94,-270.94"/>
</g>
<!-- Node22&#45;&gt;Node12 -->
<g id="edge30" class="edge">
<title>Node22&#45;&gt;Node12</title>
<path fill="none" stroke="midnightblue" d="M1054.38,-313.4C1022.59,-301.79 978.02,-285.51 947.91,-274.52"/>
<polygon fill="midnightblue" stroke="midnightblue" points="948.89,-271.15 938.3,-271.01 946.49,-277.72 948.89,-271.15"/>
</g>
<!-- Node22&#45;&gt;Node23 -->
<g id="edge31" class="edge">
<title>Node22&#45;&gt;Node23</title>
<path fill="none" stroke="midnightblue" d="M1141.13,-314.91C1144.12,-314.23 1147.1,-313.59 1150,-313 1245.58,-293.6 1358.05,-277.94 1424.21,-269.45"/>
<polygon fill="midnightblue" stroke="midnightblue" points="1424.95,-272.88 1434.43,-268.15 1424.06,-265.94 1424.95,-272.88"/>
</g>
<!-- Node23&#45;&gt;Node8 -->
<g id="edge32" class="edge">
<title>Node23&#45;&gt;Node8</title>
<path fill="none" stroke="midnightblue" d="M1442.65,-246.48C1361.96,-217.47 1168.28,-150.37 1001,-112 917.67,-92.89 819.22,-79.76 759.49,-72.81"/>
<polygon fill="midnightblue" stroke="midnightblue" points="759.85,-69.33 749.52,-71.67 759.06,-76.29 759.85,-69.33"/>
</g>
<!-- Node23&#45;&gt;Node24 -->
<g id="edge33" class="edge">
<title>Node23&#45;&gt;Node24</title>
<path fill="none" stroke="midnightblue" d="M1527.62,-248.18C1561.42,-238.82 1608.02,-225.03 1648,-210 1649.61,-209.4 1651.25,-208.75 1652.9,-208.07"/>
<polygon fill="midnightblue" stroke="midnightblue" points="1654.44,-211.22 1662.23,-204.05 1651.67,-204.8 1654.44,-211.22"/>
</g>
<!-- Node25 -->
<g id="node25" class="node">
<title>Node25</title>
<g id="a_node25"><a xlink:title=" ">
<polygon fill="none" stroke="#bfbfbf" points="1430,-179.5 1430,-209.5 1532,-209.5 1532,-179.5 1430,-179.5"/>
<text text-anchor="start" x="1438" y="-197.5" font-family="Helvetica,sans-Serif" font-size="10.00">yaclib_std/condition</text>
<text text-anchor="middle" x="1481" y="-186.5" font-family="Helvetica,sans-Serif" font-size="10.00">_variable</text>
</a>
</g>
</g>
<!-- Node23&#45;&gt;Node25 -->
<g id="edge34" class="edge">
<title>Node23&#45;&gt;Node25</title>
<path fill="none" stroke="midnightblue" d="M1481,-246.4C1481,-238.64 1481,-228.81 1481,-219.86"/>
<polygon fill="midnightblue" stroke="midnightblue" points="1484.5,-219.58 1481,-209.58 1477.5,-219.58 1484.5,-219.58"/>
</g>
<!-- Node26 -->
<g id="node26" class="node">
<title>Node26</title>
<g id="a_node26"><a xlink:title=" ">
<polygon fill="none" stroke="#bfbfbf" points="1549.5,-185 1549.5,-204 1638.5,-204 1638.5,-185 1549.5,-185"/>
<text text-anchor="middle" x="1594" y="-192" font-family="Helvetica,sans-Serif" font-size="10.00">yaclib_std/mutex</text>
</a>
</g>
</g>
<!-- Node23&#45;&gt;Node26 -->
<g id="edge35" class="edge">
<title>Node23&#45;&gt;Node26</title>
<path fill="none" stroke="midnightblue" d="M1505.52,-246.4C1524.73,-235.34 1551.3,-220.06 1570.3,-209.13"/>
<polygon fill="midnightblue" stroke="midnightblue" points="1572.29,-212.03 1579.21,-204.01 1568.8,-205.96 1572.29,-212.03"/>
</g>
<!-- Node28&#45;&gt;Node9 -->
<g id="edge43" class="edge">
<title>Node28&#45;&gt;Node9</title>
<path fill="none" stroke="midnightblue" d="M199.09,-251.79C207.88,-227.81 234.82,-159.4 272,-112 280.98,-100.55 293.2,-89.81 303.53,-81.69"/>
<polygon fill="midnightblue" stroke="midnightblue" points="305.8,-84.36 311.66,-75.53 301.57,-78.78 305.8,-84.36"/>
</g>
<!-- Node29 -->
<g id="node29" class="node">
<title>Node29</title>
<g id="a_node29"><a xlink:href="fwd_8hpp.html" target="_top" xlink:title=" ">
<polygon fill="none" stroke="black" points="142,-118 142,-137 220,-137 220,-118 142,-118"/>
<text text-anchor="middle" x="181" y="-125" font-family="Helvetica,sans-Serif" font-size="10.00">yaclib/fwd.hpp</text>
</a>
</g>
</g>
<!-- Node28&#45;&gt;Node29 -->
<g id="edge38" class="edge">
<title>Node28&#45;&gt;Node29</title>
<path fill="none" stroke="midnightblue" d="M195.85,-251.9C195.51,-237 194.41,-205.43 191,-179 189.62,-168.3 187.32,-156.46 185.27,-146.93"/>
<polygon fill="midnightblue" stroke="midnightblue" points="188.65,-146.02 183.05,-137.02 181.82,-147.54 188.65,-146.02"/>
</g>
<!-- Node30 -->
<g id="node30" class="node">
<title>Node30</title>
<g id="a_node30"><a xlink:href="type__traits__impl_8hpp.html" target="_top" xlink:title=" ">
<polygon fill="none" stroke="black" points="76,-179.5 76,-209.5 182,-209.5 182,-179.5 76,-179.5"/>
<text text-anchor="start" x="84" y="-197.5" font-family="Helvetica,sans-Serif" font-size="10.00">yaclib/util/detail</text>
<text text-anchor="middle" x="129" y="-186.5" font-family="Helvetica,sans-Serif" font-size="10.00">/type_traits_impl.hpp</text>
</a>
</g>
</g>
<!-- Node28&#45;&gt;Node30 -->
<g id="edge39" class="edge">
<title>Node28&#45;&gt;Node30</title>
<path fill="none" stroke="midnightblue" d="M186.96,-251.73C177.74,-242.78 163.06,-228.54 150.78,-216.63"/>
<polygon fill="midnightblue" stroke="midnightblue" points="153.14,-214.04 143.52,-209.59 148.26,-219.06 153.14,-214.04"/>
</g>
<!-- Node31 -->
<g id="node31" class="node">
<title>Node31</title>
<g id="a_node31"><a xlink:title=" ">
<polygon fill="none" stroke="#bfbfbf" points="0,-185 0,-204 58,-204 58,-185 0,-185"/>
<text text-anchor="middle" x="29" y="-192" font-family="Helvetica,sans-Serif" font-size="10.00">exception</text>
</a>
</g>
</g>
<!-- Node28&#45;&gt;Node31 -->
<g id="edge42" class="edge">
<title>Node28&#45;&gt;Node31</title>
<path fill="none" stroke="midnightblue" d="M173.82,-251.87C144.8,-240.57 93.73,-220.7 60.65,-207.82"/>
<polygon fill="midnightblue" stroke="midnightblue" points="61.59,-204.43 51,-204.06 59.05,-210.95 61.59,-204.43"/>
</g>
<!-- Node30&#45;&gt;Node9 -->
<g id="edge41" class="edge">
<title>Node30&#45;&gt;Node9</title>
<path fill="none" stroke="midnightblue" d="M125.04,-179.29C121.01,-161.43 117.32,-130.84 133,-112 151.82,-89.39 232.19,-76.81 282.48,-71.01"/>
<polygon fill="midnightblue" stroke="midnightblue" points="283.17,-74.46 292.73,-69.88 282.4,-67.5 283.17,-74.46"/>
</g>
<!-- Node30&#45;&gt;Node29 -->
<g id="edge40" class="edge">
<title>Node30&#45;&gt;Node29</title>
<path fill="none" stroke="midnightblue" d="M140.28,-179.4C148.31,-169.36 159.13,-155.84 167.6,-145.25"/>
<polygon fill="midnightblue" stroke="midnightblue" points="170.53,-147.19 174.04,-137.19 165.06,-142.82 170.53,-147.19"/>
</g>
<!-- Node33&#45;&gt;Node13 -->
<g id="edge57" class="edge">
<title>Node33&#45;&gt;Node13</title>
<path fill="none" stroke="midnightblue" d="M684.34,-581.48C589.56,-564.65 400,-523.49 400,-463.5 400,-463.5 400,-463.5 400,-394.5 400,-328.42 480.63,-291.14 532.12,-274.07"/>
<polygon fill="midnightblue" stroke="midnightblue" points="533.22,-277.39 541.68,-271.02 531.09,-270.72 533.22,-277.39"/>
</g>
<!-- Node33&#45;&gt;Node28 -->
<g id="edge63" class="edge">
<title>Node33&#45;&gt;Node28</title>
<path fill="none" stroke="midnightblue" d="M678.84,-588.27C541.79,-582.62 210,-559.06 210,-463.5 210,-463.5 210,-463.5 210,-394.5 210,-353.93 203.38,-306.74 199.24,-281.22"/>
<polygon fill="midnightblue" stroke="midnightblue" points="202.66,-280.4 197.55,-271.12 195.75,-281.56 202.66,-280.4"/>
</g>
<!-- Node34 -->
<g id="node34" class="node">
<title>Node34</title>
<g id="a_node34"><a xlink:href="result__core_8hpp.html" target="_top" xlink:title=" ">
<polygon fill="none" stroke="black" points="276,-380.5 276,-410.5 372,-410.5 372,-380.5 276,-380.5"/>
<text text-anchor="start" x="284" y="-398.5" font-family="Helvetica,sans-Serif" font-size="10.00">yaclib/async/detail</text>
<text text-anchor="middle" x="324" y="-387.5" font-family="Helvetica,sans-Serif" font-size="10.00">/result_core.hpp</text>
</a>
</g>
</g>
<!-- Node33&#45;&gt;Node34 -->
<g id="edge48" class="edge">
<title>Node33&#45;&gt;Node34</title>
<path fill="none" stroke="midnightblue" d="M678.92,-589.43C591.29,-587.46 430.76,-579.13 386,-545 346.31,-514.74 331.82,-454.38 326.69,-420.68"/>
<polygon fill="midnightblue" stroke="midnightblue" points="330.15,-420.18 325.33,-410.75 323.22,-421.13 330.15,-420.18"/>
</g>
<!-- Node37 -->
<g id="node37" class="node">
<title>Node37</title>
<g id="a_node37"><a xlink:href="helper_8hpp.html" target="_top" xlink:title=" ">
<polygon fill="none" stroke="black" points="1128,-386 1128,-405 1232,-405 1232,-386 1128,-386"/>
<text text-anchor="middle" x="1180" y="-393" font-family="Helvetica,sans-Serif" font-size="10.00">yaclib/util/helper.hpp</text>
</a>
</g>
</g>
<!-- Node33&#45;&gt;Node37 -->
<g id="edge58" class="edge">
<title>Node33&#45;&gt;Node37</title>
<path fill="none" stroke="midnightblue" d="M756.61,-581.44C827,-550.69 1067.26,-445.75 1150.96,-409.18"/>
<polygon fill="midnightblue" stroke="midnightblue" points="1152.61,-412.28 1160.37,-405.07 1149.8,-405.87 1152.61,-412.28"/>
</g>
<!-- Node39 -->
<g id="node39" class="node">
<title>Node39</title>
<g id="a_node39"><a xlink:href="future__impl_8hpp.html" target="_top" xlink:title=" ">
<polygon fill="none" stroke="black" points="689,-514.5 689,-544.5 785,-544.5 785,-514.5 689,-514.5"/>
<text text-anchor="start" x="697" y="-532.5" font-family="Helvetica,sans-Serif" font-size="10.00">yaclib/async/detail</text>
<text text-anchor="middle" x="737" y="-521.5" font-family="Helvetica,sans-Serif" font-size="10.00">/future_impl.hpp</text>
</a>
</g>
</g>
<!-- Node33&#45;&gt;Node39 -->
<g id="edge64" class="edge">
<title>Node33&#45;&gt;Node39</title>
<path fill="none" stroke="midnightblue" d="M737,-581.48C737,-574.47 737,-564.19 737,-554.7"/>
<polygon fill="midnightblue" stroke="midnightblue" points="740.5,-554.52 737,-544.52 733.5,-554.52 740.5,-554.52"/>
</g>
<!-- Node34&#45;&gt;Node3 -->
<g id="edge49" class="edge">
<title>Node34&#45;&gt;Node3</title>
<path fill="none" stroke="midnightblue" d="M372.07,-380.79C407.69,-370.64 456.4,-356.76 494.15,-345.99"/>
<polygon fill="midnightblue" stroke="midnightblue" points="495.33,-349.29 503.99,-343.19 493.41,-342.56 495.33,-349.29"/>
</g>
<!-- Node34&#45;&gt;Node4 -->
<g id="edge50" class="edge">
<title>Node34&#45;&gt;Node4</title>
<path fill="none" stroke="midnightblue" d="M325.92,-380.35C328.71,-363.36 335.04,-334.47 348,-313 354.71,-301.89 364.45,-291.54 373.69,-283.13"/>
<polygon fill="midnightblue" stroke="midnightblue" points="376.01,-285.76 381.26,-276.56 371.42,-280.47 376.01,-285.76"/>
</g>
<!-- Node34&#45;&gt;Node10 -->
<g id="edge56" class="edge">
<title>Node34&#45;&gt;Node10</title>
<path fill="none" stroke="midnightblue" d="M317.03,-380.24C306.06,-356.44 286,-306.86 286,-262.5 286,-262.5 286,-262.5 286,-193.5 286,-94.02 443.66,-72.77 511.04,-68.23"/>
<polygon fill="midnightblue" stroke="midnightblue" points="511.64,-71.7 521.41,-67.62 511.22,-64.72 511.64,-71.7"/>
</g>
<!-- Node34&#45;&gt;Node14 -->
<g id="edge51" class="edge">
<title>Node34&#45;&gt;Node14</title>
<path fill="none" stroke="midnightblue" d="M332.06,-380.26C342.6,-362.64 362.51,-332.58 386,-313 413.18,-290.35 427.22,-296.11 457,-277 475.64,-265.04 476.87,-257.15 496,-246 518.56,-232.85 545.19,-221.57 568.07,-213.03"/>
<polygon fill="midnightblue" stroke="midnightblue" points="569.43,-216.26 577.62,-209.54 567.03,-209.68 569.43,-216.26"/>
</g>
<!-- Node35 -->
<g id="node35" class="node">
<title>Node35</title>
<g id="a_node35"><a xlink:href="result_8hpp.html" target="_top" xlink:title=" ">
<polygon fill="none" stroke="black" points="80,-319 80,-338 182,-338 182,-319 80,-319"/>
<text text-anchor="middle" x="131" y="-326" font-family="Helvetica,sans-Serif" font-size="10.00">yaclib/util/result.hpp</text>
</a>
</g>
</g>
<!-- Node34&#45;&gt;Node35 -->
<g id="edge52" class="edge">
<title>Node34&#45;&gt;Node35</title>
<path fill="none" stroke="midnightblue" d="M282.12,-380.4C247.36,-368.69 198.49,-352.23 165.84,-341.23"/>
<polygon fill="midnightblue" stroke="midnightblue" points="166.85,-337.88 156.26,-338.01 164.62,-344.52 166.85,-337.88"/>
</g>
<!-- Node35&#45;&gt;Node28 -->
<g id="edge53" class="edge">
<title>Node35&#45;&gt;Node28</title>
<path fill="none" stroke="midnightblue" d="M139.77,-318.73C150.1,-308.4 167.46,-291.04 180.17,-278.33"/>
<polygon fill="midnightblue" stroke="midnightblue" points="182.78,-280.67 187.37,-271.13 177.83,-275.72 182.78,-280.67"/>
</g>
<!-- Node35&#45;&gt;Node31 -->
<g id="edge54" class="edge">
<title>Node35&#45;&gt;Node31</title>
<path fill="none" stroke="midnightblue" d="M113.86,-318.86C98.19,-310.18 75.33,-295.47 61,-277 46.33,-258.1 37.6,-231.62 33.05,-214.04"/>
<polygon fill="midnightblue" stroke="midnightblue" points="36.42,-213.07 30.7,-204.16 29.61,-214.7 36.42,-213.07"/>
</g>
<!-- Node36 -->
<g id="node36" class="node">
<title>Node36</title>
<g id="a_node36"><a xlink:title=" ">
<polygon fill="none" stroke="#bfbfbf" points="70,-252 70,-271 116,-271 116,-252 70,-252"/>
<text text-anchor="middle" x="93" y="-259" font-family="Helvetica,sans-Serif" font-size="10.00">variant</text>
</a>
</g>
</g>
<!-- Node35&#45;&gt;Node36 -->
<g id="edge55" class="edge">
<title>Node35&#45;&gt;Node36</title>
<path fill="none" stroke="midnightblue" d="M125.88,-318.73C120.06,-308.79 110.44,-292.34 103.11,-279.79"/>
<polygon fill="midnightblue" stroke="midnightblue" points="106.11,-277.99 98.04,-271.13 100.07,-281.53 106.11,-277.99"/>
</g>
<!-- Node37&#45;&gt;Node14 -->
<g id="edge62" class="edge">
<title>Node37&#45;&gt;Node14</title>
<path fill="none" stroke="midnightblue" d="M1212.46,-386C1233.46,-378.62 1259.19,-365.64 1272,-344 1300.21,-296.33 1245.98,-267.67 1195,-246 1103.44,-207.08 807.63,-198.15 680.25,-196.11"/>
<polygon fill="midnightblue" stroke="midnightblue" points="679.97,-192.6 669.91,-195.95 679.86,-199.6 679.97,-192.6"/>
</g>
<!-- Node37&#45;&gt;Node19 -->
<g id="edge59" class="edge">
<title>Node37&#45;&gt;Node19</title>
<path fill="none" stroke="midnightblue" d="M1147.98,-385.94C1110.2,-375.83 1046.52,-358.8 998.98,-346.08"/>
<polygon fill="midnightblue" stroke="midnightblue" points="999.66,-342.64 989.1,-343.44 997.85,-349.4 999.66,-342.64"/>
</g>
<!-- Node38 -->
<g id="node38" class="node">
<title>Node38</title>
<g id="a_node38"><a xlink:href="unique__counter_8hpp.html" target="_top" xlink:title=" ">
<polygon fill="none" stroke="black" points="1159,-313.5 1159,-343.5 1263,-343.5 1263,-313.5 1159,-313.5"/>
<text text-anchor="start" x="1167" y="-331.5" font-family="Helvetica,sans-Serif" font-size="10.00">yaclib/util/detail</text>
<text text-anchor="middle" x="1211" y="-320.5" font-family="Helvetica,sans-Serif" font-size="10.00">/unique_counter.hpp</text>
</a>
</g>
</g>
<!-- Node37&#45;&gt;Node38 -->
<g id="edge60" class="edge">
<title>Node37&#45;&gt;Node38</title>
<path fill="none" stroke="midnightblue" d="M1184.18,-385.73C1188.21,-377.29 1194.48,-364.14 1199.95,-352.68"/>
<polygon fill="midnightblue" stroke="midnightblue" points="1203.13,-354.12 1204.28,-343.59 1196.82,-351.11 1203.13,-354.12"/>
</g>
<!-- Node38&#45;&gt;Node20 -->
<g id="edge61" class="edge">
<title>Node38&#45;&gt;Node20</title>
<path fill="none" stroke="midnightblue" d="M1194.51,-313.4C1184.15,-304.54 1170.62,-292.96 1159.07,-283.09"/>
<polygon fill="midnightblue" stroke="midnightblue" points="1161.33,-280.42 1151.46,-276.58 1156.78,-285.74 1161.33,-280.42"/>
</g>
<!-- Node39&#45;&gt;Node16 -->
<g id="edge76" class="edge">
<title>Node39&#45;&gt;Node16</title>
<path fill="none" stroke="midnightblue" d="M785.13,-528.65C932.4,-527.82 1367,-515.3 1367,-396.5 1367,-396.5 1367,-396.5 1367,-327.5 1367,-290.31 1369.06,-276.66 1348,-246 1288.54,-159.46 1172.33,-102.92 1116.06,-79.41"/>
<polygon fill="midnightblue" stroke="midnightblue" points="1117.17,-76.09 1106.59,-75.53 1114.52,-82.56 1117.17,-76.09"/>
</g>
<!-- Node39&#45;&gt;Node35 -->
<g id="edge77" class="edge">
<title>Node39&#45;&gt;Node35</title>
<path fill="none" stroke="midnightblue" d="M688.83,-521.28C602.03,-507.24 414.66,-472.12 267,-411 223.09,-392.83 176.55,-362.1 150.9,-344.01"/>
<polygon fill="midnightblue" stroke="midnightblue" points="152.91,-341.15 142.74,-338.19 148.84,-346.85 152.91,-341.15"/>
</g>
<!-- Node40 -->
<g id="node40" class="node">
<title>Node40</title>
<g id="a_node40"><a xlink:href="wait_8hpp.html" target="_top" xlink:title=" ">
<polygon fill="none" stroke="black" points="792.5,-453 792.5,-472 893.5,-472 893.5,-453 792.5,-453"/>
<text text-anchor="middle" x="843" y="-460" font-family="Helvetica,sans-Serif" font-size="10.00">yaclib/algo/wait.hpp</text>
</a>
</g>
</g>
<!-- Node39&#45;&gt;Node40 -->
<g id="edge65" class="edge">
<title>Node39&#45;&gt;Node40</title>
<path fill="none" stroke="midnightblue" d="M760,-514.4C777.94,-503.39 802.72,-488.2 820.52,-477.28"/>
<polygon fill="midnightblue" stroke="midnightblue" points="822.43,-480.22 829.13,-472.01 818.77,-474.25 822.43,-480.22"/>
</g>
<!-- Node41 -->
<g id="node41" class="node">
<title>Node41</title>
<g id="a_node41"><a xlink:href="core_8hpp.html" target="_top" xlink:title=" ">
<polygon fill="none" stroke="black" points="678,-447.5 678,-477.5 774,-477.5 774,-447.5 678,-447.5"/>
<text text-anchor="start" x="686" y="-465.5" font-family="Helvetica,sans-Serif" font-size="10.00">yaclib/async/detail</text>
<text text-anchor="middle" x="726" y="-454.5" font-family="Helvetica,sans-Serif" font-size="10.00">/core.hpp</text>
</a>
</g>
</g>
<!-- Node39&#45;&gt;Node41 -->
<g id="edge71" class="edge">
<title>Node39&#45;&gt;Node41</title>
<path fill="none" stroke="midnightblue" d="M734.61,-514.4C733.29,-506.56 731.6,-496.6 730.07,-487.57"/>
<polygon fill="midnightblue" stroke="midnightblue" points="733.5,-486.85 728.38,-477.58 726.6,-488.02 733.5,-486.85"/>
</g>
<!-- Node40&#45;&gt;Node2 -->
<g id="edge66" class="edge">
<title>Node40&#45;&gt;Node2</title>
<path fill="none" stroke="midnightblue" d="M843,-452.73C843,-444.54 843,-431.92 843,-420.71"/>
<polygon fill="midnightblue" stroke="midnightblue" points="846.5,-420.59 843,-410.59 839.5,-420.59 846.5,-420.59"/>
</g>
<!-- Node40&#45;&gt;Node12 -->
<g id="edge68" class="edge">
<title>Node40&#45;&gt;Node12</title>
<path fill="none" stroke="midnightblue" d="M820.21,-452.95C766.04,-431.39 637.61,-372.3 686,-313 736.48,-251.14 784.34,-295.54 862,-277 866.35,-275.96 870.87,-274.82 875.37,-273.64"/>
<polygon fill="midnightblue" stroke="midnightblue" points="876.34,-277.01 885.1,-271.05 874.53,-270.25 876.34,-277.01"/>
</g>
<!-- Node40&#45;&gt;Node21 -->
<g id="edge70" class="edge">
<title>Node40&#45;&gt;Node21</title>
<path fill="none" stroke="midnightblue" d="M893.63,-459.28C986.77,-454.5 1181.22,-441.16 1241,-411 1277.77,-392.45 1287.6,-381.32 1305,-344 1314.29,-324.08 1315.65,-298.55 1315.26,-281.42"/>
<polygon fill="midnightblue" stroke="midnightblue" points="1318.74,-280.9 1314.79,-271.07 1311.75,-281.22 1318.74,-280.9"/>
</g>
<!-- Node40&#45;&gt;Node22 -->
<g id="edge69" class="edge">
<title>Node40&#45;&gt;Node22</title>
<path fill="none" stroke="midnightblue" d="M859.4,-452.84C899.35,-431.75 1002.41,-377.33 1057.32,-348.34"/>
<polygon fill="midnightblue" stroke="midnightblue" points="1059.14,-351.34 1066.35,-343.57 1055.87,-345.15 1059.14,-351.34"/>
</g>
<!-- Node40&#45;&gt;Node33 -->
<g id="edge67" class="edge">
<title>Node40&#45;&gt;Node33</title>
<path fill="none" stroke="midnightblue" d="M839.16,-472.02C831.86,-487.61 814.84,-521.33 794,-545 783.88,-556.5 770.52,-567.22 759.28,-575.31"/>
<polygon fill="midnightblue" stroke="midnightblue" points="757.03,-572.61 750.83,-581.2 761.03,-578.36 757.03,-572.61"/>
</g>
<!-- Node41&#45;&gt;Node12 -->
<g id="edge74" class="edge">
<title>Node41&#45;&gt;Node12</title>
<path fill="none" stroke="midnightblue" d="M712.29,-447.25C686.6,-418.83 636.78,-354.27 671,-313 726.14,-246.5 777.83,-296.41 862,-277 866.41,-275.98 871,-274.85 875.56,-273.67"/>
<polygon fill="midnightblue" stroke="midnightblue" points="876.63,-277 885.39,-271.05 874.83,-270.24 876.63,-277"/>
</g>
<!-- Node41&#45;&gt;Node19 -->
<g id="edge75" class="edge">
<title>Node41&#45;&gt;Node19</title>
<path fill="none" stroke="midnightblue" d="M774.36,-449.34C821.49,-437.16 887.42,-419.08 897,-411 914.6,-396.15 925.14,-371.69 930.95,-353.44"/>
<polygon fill="midnightblue" stroke="midnightblue" points="934.32,-354.37 933.77,-343.79 927.61,-352.4 934.32,-354.37"/>
</g>
<!-- Node41&#45;&gt;Node34 -->
<g id="edge73" class="edge">
<title>Node41&#45;&gt;Node34</title>
<path fill="none" stroke="midnightblue" d="M677.91,-453.72C603.76,-441.74 461.77,-418.78 382.03,-405.88"/>
<polygon fill="midnightblue" stroke="midnightblue" points="382.58,-402.43 372.15,-404.28 381.46,-409.34 382.58,-402.43"/>
</g>
<!-- Node41&#45;&gt;Node38 -->
<g id="edge72" class="edge">
<title>Node41&#45;&gt;Node38</title>
<path fill="none" stroke="midnightblue" d="M774.01,-449.45C813.74,-439.41 871.62,-424.59 922,-411 1002.17,-389.37 1094.46,-363.11 1152.75,-346.35"/>
<polygon fill="midnightblue" stroke="midnightblue" points="1153.87,-349.67 1162.52,-343.54 1151.94,-342.94 1153.87,-349.67"/>
</g>
</g>
</svg>
