<?xml version="1.0" encoding="UTF-8" standalone="no"?>
<!DOCTYPE svg PUBLIC "-//W3C//DTD SVG 1.1//EN"
 "http://www.w3.org/Graphics/SVG/1.1/DTD/svg11.dtd">
<!-- Generated by graphviz version 9.0.0 (20230911.1827)
 -->
<!-- Title: include/yaclib/algo/detail/wait_event.hpp Pages: 1 -->
<svg width="533pt" height="337pt"
 viewBox="0.00 0.00 533.12 337.25" xmlns="http://www.w3.org/2000/svg" xmlns:xlink="http://www.w3.org/1999/xlink">
<g id="graph0" class="graph" transform="scale(1 1) rotate(0) translate(4 333.25)">
<title>include/yaclib/algo/detail/wait_event.hpp</title>
<!-- Node1 -->
<g id="Node000001" class="node">
<title>Node1</title>
<g id="a_Node000001"><a xlink:title=" ">
<polygon fill="#999999" stroke="#666666" points="428.88,-329.25 318.38,-329.25 318.38,-298.75 428.88,-298.75 428.88,-329.25"/>
<text text-anchor="start" x="326.38" y="-315.75" font-family="Helvetica,sans-Serif" font-size="10.00">include/yaclib/algo</text>
<text text-anchor="middle" x="373.62" y="-304.5" font-family="Helvetica,sans-Serif" font-size="10.00">/detail/wait_event.hpp</text>
</a>
</g>
</g>
<!-- Node2 -->
<g id="Node000002" class="node">
<title>Node2</title>
<g id="a_Node000002"><a xlink:href="inline__core_8hpp.html" target="_top" xlink:title=" ">
<polygon fill="white" stroke="#666666" points="196.62,-262.75 108.62,-262.75 108.62,-232.25 196.62,-232.25 196.62,-262.75"/>
<text text-anchor="start" x="116.62" y="-249.25" font-family="Helvetica,sans-Serif" font-size="10.00">yaclib/algo/detail</text>
<text text-anchor="middle" x="152.62" y="-238" font-family="Helvetica,sans-Serif" font-size="10.00">/inline_core.hpp</text>
</a>
</g>
</g>
<!-- Node1&#45;&gt;Node2 -->
<g id="edge1_Node000001_Node000002" class="edge">
<title>Node1&#45;&gt;Node2</title>
<g id="a_edge1_Node000001_Node000002"><a xlink:title=" ">
<path fill="none" stroke="#63b8ff" d="M323.2,-298.28C288.68,-288.21 242.92,-274.85 207.49,-264.51"/>
<polygon fill="#63b8ff" stroke="#63b8ff" points="208.88,-261.27 198.3,-261.83 206.92,-267.99 208.88,-261.27"/>
</a>
</g>
</g>
<!-- Node13 -->
<g id="Node000013" class="node">
<title>Node13</title>
<g id="a_Node000013"><a xlink:href="cast_8hpp.html" target="_top" xlink:title=" ">
<polygon fill="white" stroke="#666666" points="421.75,-257.12 325.5,-257.12 325.5,-237.88 421.75,-237.88 421.75,-257.12"/>
<text text-anchor="middle" x="373.62" y="-243.62" font-family="Helvetica,sans-Serif" font-size="10.00">yaclib/util/cast.hpp</text>
</a>
</g>
</g>
<!-- Node1&#45;&gt;Node13 -->
<g id="edge13_Node000001_Node000013" class="edge">
<title>Node1&#45;&gt;Node13</title>
<g id="a_edge13_Node000001_Node000013"><a xlink:title=" ">
<path fill="none" stroke="#63b8ff" d="M373.62,-298.36C373.62,-289.58 373.62,-278.27 373.62,-268.65"/>
<polygon fill="#63b8ff" stroke="#63b8ff" points="377.13,-268.84 373.63,-258.84 370.13,-268.84 377.13,-268.84"/>
</a>
</g>
</g>
<!-- Node15 -->
<g id="Node000015" class="node">
<title>Node15</title>
<g id="a_Node000015"><a xlink:href="set__deleter_8hpp.html" target="_top" xlink:title=" ">
<polygon fill="white" stroke="#666666" points="525.12,-262.75 440.12,-262.75 440.12,-232.25 525.12,-232.25 525.12,-262.75"/>
<text text-anchor="start" x="448.12" y="-249.25" font-family="Helvetica,sans-Serif" font-size="10.00">yaclib/util/detail</text>
<text text-anchor="middle" x="482.62" y="-238" font-family="Helvetica,sans-Serif" font-size="10.00">/set_deleter.hpp</text>
</a>
</g>
</g>
<!-- Node1&#45;&gt;Node15 -->
<g id="edge16_Node000001_Node000015" class="edge">
<title>Node1&#45;&gt;Node15</title>
<g id="a_edge16_Node000001_Node000015"><a xlink:title=" ">
<path fill="none" stroke="#63b8ff" d="M398.36,-298.36C413.13,-289.62 432.11,-278.39 448.32,-268.8"/>
<polygon fill="#63b8ff" stroke="#63b8ff" points="449.86,-271.95 456.69,-263.85 446.3,-265.93 449.86,-271.95"/>
</a>
</g>
</g>
<!-- Node3 -->
<g id="Node000003" class="node">
<title>Node3</title>
<g id="a_Node000003"><a xlink:title=" ">
<polygon fill="#e0e0e0" stroke="#999999" points="87.25,-196.25 0,-196.25 0,-177 87.25,-177 87.25,-196.25"/>
<text text-anchor="middle" x="43.62" y="-182.75" font-family="Helvetica,sans-Serif" font-size="10.00">yaclib/config.hpp</text>
</a>
</g>
</g>
<!-- Node2&#45;&gt;Node3 -->
<g id="edge2_Node000002_Node000003" class="edge">
<title>Node2&#45;&gt;Node3</title>
<g id="a_edge2_Node000002_Node000003"><a xlink:title=" ">
<path fill="none" stroke="#63b8ff" d="M125.4,-231.8C108.48,-222.66 86.84,-210.97 70.07,-201.91"/>
<polygon fill="#63b8ff" stroke="#63b8ff" points="72.13,-199.05 61.67,-197.37 68.81,-205.21 72.13,-199.05"/>
</a>
</g>
</g>
<!-- Node4 -->
<g id="Node000004" class="node">
<title>Node4</title>
<g id="a_Node000004"><a xlink:href="job_8hpp.html" target="_top" xlink:title=" ">
<polygon fill="white" stroke="#666666" points="235.88,-196.25 143.38,-196.25 143.38,-177 235.88,-177 235.88,-196.25"/>
<text text-anchor="middle" x="189.62" y="-182.75" font-family="Helvetica,sans-Serif" font-size="10.00">yaclib/exe/job.hpp</text>
</a>
</g>
</g>
<!-- Node2&#45;&gt;Node4 -->
<g id="edge3_Node000002_Node000004" class="edge">
<title>Node2&#45;&gt;Node4</title>
<g id="a_edge3_Node000002_Node000004"><a xlink:title=" ">
<path fill="none" stroke="#63b8ff" d="M161.77,-231.95C166.65,-224.19 172.7,-214.56 177.91,-206.26"/>
<polygon fill="#63b8ff" stroke="#63b8ff" points="180.76,-208.31 183.12,-197.98 174.83,-204.59 180.76,-208.31"/>
</a>
</g>
</g>
<!-- Node5 -->
<g id="Node000005" class="node">
<title>Node5</title>
<g id="a_Node000005"><a xlink:href="log_8hpp.html" target="_top" xlink:title=" ">
<polygon fill="white" stroke="#666666" points="129.88,-135.38 55.38,-135.38 55.38,-116.12 129.88,-116.12 129.88,-135.38"/>
<text text-anchor="middle" x="92.62" y="-121.88" font-family="Helvetica,sans-Serif" font-size="10.00">yaclib/log.hpp</text>
</a>
</g>
</g>
<!-- Node2&#45;&gt;Node5 -->
<g id="edge12_Node000002_Node000005" class="edge">
<title>Node2&#45;&gt;Node5</title>
<g id="a_edge12_Node000002_Node000005"><a xlink:title=" ">
<path fill="none" stroke="#63b8ff" d="M145.27,-231.82C134.46,-210.24 114.27,-169.95 102.28,-146.02"/>
<polygon fill="#63b8ff" stroke="#63b8ff" points="105.42,-144.46 97.81,-137.09 99.16,-147.6 105.42,-144.46"/>
</a>
</g>
</g>
<!-- Node4&#45;&gt;Node5 -->
<g id="edge4_Node000004_Node000005" class="edge">
<title>Node4&#45;&gt;Node5</title>
<g id="a_edge4_Node000004_Node000005"><a xlink:title=" ">
<path fill="none" stroke="#63b8ff" d="M174.89,-176.68C159.58,-167.39 135.36,-152.69 117.15,-141.64"/>
<polygon fill="#63b8ff" stroke="#63b8ff" points="119.15,-138.76 108.79,-136.56 115.52,-144.74 119.15,-138.76"/>
</a>
</g>
</g>
<!-- Node7 -->
<g id="Node000007" class="node">
<title>Node7</title>
<g id="a_Node000007"><a xlink:href="node_8hpp.html" target="_top" xlink:title=" ">
<polygon fill="white" stroke="#666666" points="231,-141 148.25,-141 148.25,-110.5 231,-110.5 231,-141"/>
<text text-anchor="start" x="156.25" y="-127.5" font-family="Helvetica,sans-Serif" font-size="10.00">yaclib/util/detail</text>
<text text-anchor="middle" x="189.62" y="-116.25" font-family="Helvetica,sans-Serif" font-size="10.00">/node.hpp</text>
</a>
</g>
</g>
<!-- Node4&#45;&gt;Node7 -->
<g id="edge6_Node000004_Node000007" class="edge">
<title>Node4&#45;&gt;Node7</title>
<g id="a_edge6_Node000004_Node000007"><a xlink:title=" ">
<path fill="none" stroke="#63b8ff" d="M189.62,-176.68C189.62,-170.23 189.62,-161.16 189.62,-152.51"/>
<polygon fill="#63b8ff" stroke="#63b8ff" points="193.13,-152.8 189.63,-142.8 186.13,-152.8 193.13,-152.8"/>
</a>
</g>
</g>
<!-- Node8 -->
<g id="Node000008" class="node">
<title>Node8</title>
<g id="a_Node000008"><a xlink:href="func_8hpp.html" target="_top" xlink:title=" ">
<polygon fill="white" stroke="#666666" points="345.75,-135.38 249.5,-135.38 249.5,-116.12 345.75,-116.12 345.75,-135.38"/>
<text text-anchor="middle" x="297.62" y="-121.88" font-family="Helvetica,sans-Serif" font-size="10.00">yaclib/util/func.hpp</text>
</a>
</g>
</g>
<!-- Node4&#45;&gt;Node8 -->
<g id="edge7_Node000004_Node000008" class="edge">
<title>Node4&#45;&gt;Node8</title>
<g id="a_edge7_Node000004_Node000008"><a xlink:title=" ">
<path fill="none" stroke="#63b8ff" d="M206.03,-176.68C223.31,-167.26 250.8,-152.27 271.16,-141.18"/>
<polygon fill="#63b8ff" stroke="#63b8ff" points="272.63,-144.36 279.74,-136.5 269.28,-138.21 272.63,-144.36"/>
</a>
</g>
</g>
<!-- Node6 -->
<g id="Node000006" class="node">
<title>Node6</title>
<g id="a_Node000006"><a xlink:title=" ">
<polygon fill="#e0e0e0" stroke="#999999" points="125.38,-74.5 59.88,-74.5 59.88,-55.25 125.38,-55.25 125.38,-74.5"/>
<text text-anchor="middle" x="92.62" y="-61" font-family="Helvetica,sans-Serif" font-size="10.00">string_view</text>
</a>
</g>
</g>
<!-- Node5&#45;&gt;Node6 -->
<g id="edge5_Node000005_Node000006" class="edge">
<title>Node5&#45;&gt;Node6</title>
<g id="a_edge5_Node000005_Node000006"><a xlink:title=" ">
<path fill="none" stroke="#63b8ff" d="M92.62,-115.81C92.62,-108.03 92.62,-96.45 92.62,-86.41"/>
<polygon fill="#63b8ff" stroke="#63b8ff" points="96.13,-86.41 92.63,-76.41 89.13,-86.41 96.13,-86.41"/>
</a>
</g>
</g>
<!-- Node9 -->
<g id="Node000009" class="node">
<title>Node9</title>
<g id="a_Node000009"><a xlink:href="ref_8hpp.html" target="_top" xlink:title=" ">
<polygon fill="white" stroke="#666666" points="262,-74.5 173.25,-74.5 173.25,-55.25 262,-55.25 262,-74.5"/>
<text text-anchor="middle" x="217.62" y="-61" font-family="Helvetica,sans-Serif" font-size="10.00">yaclib/util/ref.hpp</text>
</a>
</g>
</g>
<!-- Node8&#45;&gt;Node9 -->
<g id="edge8_Node000008_Node000009" class="edge">
<title>Node8&#45;&gt;Node9</title>
<g id="a_edge8_Node000008_Node000009"><a xlink:title=" ">
<path fill="none" stroke="#63b8ff" d="M285.47,-115.81C273.14,-106.73 253.79,-92.49 238.91,-81.54"/>
<polygon fill="#63b8ff" stroke="#63b8ff" points="241.24,-78.91 231.11,-75.8 237.09,-84.54 241.24,-78.91"/>
</a>
</g>
</g>
<!-- Node11 -->
<g id="Node000011" class="node">
<title>Node11</title>
<g id="a_Node000011"><a xlink:title=" ">
<polygon fill="#e0e0e0" stroke="#999999" points="402.12,-74.5 341.12,-74.5 341.12,-55.25 402.12,-55.25 402.12,-74.5"/>
<text text-anchor="middle" x="371.62" y="-61" font-family="Helvetica,sans-Serif" font-size="10.00">type_traits</text>
</a>
</g>
</g>
<!-- Node8&#45;&gt;Node11 -->
<g id="edge10_Node000008_Node000011" class="edge">
<title>Node8&#45;&gt;Node11</title>
<g id="a_edge10_Node000008_Node000011"><a xlink:title=" ">
<path fill="none" stroke="#63b8ff" d="M308.86,-115.81C320.16,-106.82 337.83,-92.76 351.54,-81.85"/>
<polygon fill="#63b8ff" stroke="#63b8ff" points="353.45,-84.81 359.1,-75.84 349.09,-79.33 353.45,-84.81"/>
</a>
</g>
</g>
<!-- Node12 -->
<g id="Node000012" class="node">
<title>Node12</title>
<g id="a_Node000012"><a xlink:title=" ">
<polygon fill="#e0e0e0" stroke="#999999" points="318.88,-74.5 280.38,-74.5 280.38,-55.25 318.88,-55.25 318.88,-74.5"/>
<text text-anchor="middle" x="299.62" y="-61" font-family="Helvetica,sans-Serif" font-size="10.00">utility</text>
</a>
</g>
</g>
<!-- Node8&#45;&gt;Node12 -->
<g id="edge11_Node000008_Node000012" class="edge">
<title>Node8&#45;&gt;Node12</title>
<g id="a_edge11_Node000008_Node000012"><a xlink:title=" ">
<path fill="none" stroke="#63b8ff" d="M297.93,-115.81C298.2,-107.94 298.59,-96.2 298.94,-86.07"/>
<polygon fill="#63b8ff" stroke="#63b8ff" points="302.43,-86.53 299.27,-76.41 295.43,-86.29 302.43,-86.53"/>
</a>
</g>
</g>
<!-- Node10 -->
<g id="Node000010" class="node">
<title>Node10</title>
<g id="a_Node000010"><a xlink:title=" ">
<polygon fill="#e0e0e0" stroke="#999999" points="241.75,-19.25 193.5,-19.25 193.5,0 241.75,0 241.75,-19.25"/>
<text text-anchor="middle" x="217.62" y="-5.75" font-family="Helvetica,sans-Serif" font-size="10.00">cstddef</text>
</a>
</g>
</g>
<!-- Node9&#45;&gt;Node10 -->
<g id="edge9_Node000009_Node000010" class="edge">
<title>Node9&#45;&gt;Node10</title>
<g id="a_edge9_Node000009_Node000010"><a xlink:title=" ">
<path fill="none" stroke="#63b8ff" d="M217.62,-55.08C217.62,-48.57 217.62,-39.42 217.62,-31.12"/>
<polygon fill="#63b8ff" stroke="#63b8ff" points="221.13,-31.12 217.63,-21.12 214.13,-31.12 221.13,-31.12"/>
</a>
</g>
</g>
<!-- Node13&#45;&gt;Node11 -->
<g id="edge15_Node000013_Node000011" class="edge">
<title>Node13&#45;&gt;Node11</title>
<g id="a_edge15_Node000013_Node000011"><a xlink:title=" ">
<path fill="none" stroke="#63b8ff" d="M373.53,-237.79C373.23,-210.44 372.29,-125.76 371.85,-86.39"/>
<polygon fill="#63b8ff" stroke="#63b8ff" points="375.35,-86.4 371.74,-76.44 368.35,-86.48 375.35,-86.4"/>
</a>
</g>
</g>
<!-- Node14 -->
<g id="Node000014" class="node">
<title>Node14</title>
<g id="a_Node000014"><a xlink:title=" ">
<polygon fill="#e0e0e0" stroke="#999999" points="451.88,-196.25 401.38,-196.25 401.38,-177 451.88,-177 451.88,-196.25"/>
<text text-anchor="middle" x="426.62" y="-182.75" font-family="Helvetica,sans-Serif" font-size="10.00">memory</text>
</a>
</g>
</g>
<!-- Node13&#45;&gt;Node14 -->
<g id="edge14_Node000013_Node000014" class="edge">
<title>Node13&#45;&gt;Node14</title>
<g id="a_edge14_Node000013_Node000014"><a xlink:title=" ">
<path fill="none" stroke="#63b8ff" d="M381.67,-237.56C389.38,-229 401.21,-215.85 410.81,-205.2"/>
<polygon fill="#63b8ff" stroke="#63b8ff" points="413.4,-207.55 417.49,-197.78 408.2,-202.87 413.4,-207.55"/>
</a>
</g>
</g>
</g>
</svg>
