<?xml version="1.0" encoding="UTF-8" standalone="no"?>
<!DOCTYPE svg PUBLIC "-//W3C//DTD SVG 1.1//EN"
 "http://www.w3.org/Graphics/SVG/1.1/DTD/svg11.dtd">
<!-- Generated by graphviz version 9.0.0 (20230911.1827)
 -->
<!-- Title: include/yaclib/async/detail/wait_impl.hpp Pages: 1 -->
<svg width="2421pt" height="438pt"
 viewBox="0.00 0.00 2421.25 437.50" xmlns="http://www.w3.org/2000/svg" xmlns:xlink="http://www.w3.org/1999/xlink">
<g id="graph0" class="graph" transform="scale(1 1) rotate(0) translate(4 433.5)">
<title>include/yaclib/async/detail/wait_impl.hpp</title>
<!-- Node1 -->
<g id="Node000001" class="node">
<title>Node1</title>
<g id="a_Node000001"><a xlink:title=" ">
<polygon fill="#999999" stroke="#666666" points="2298.38,-429.5 2193.88,-429.5 2193.88,-399 2298.38,-399 2298.38,-429.5"/>
<text text-anchor="start" x="2201.88" y="-416" font-family="Helvetica,sans-Serif" font-size="10.00">include/yaclib/async</text>
<text text-anchor="middle" x="2246.12" y="-404.75" font-family="Helvetica,sans-Serif" font-size="10.00">/detail/wait_impl.hpp</text>
</a>
</g>
</g>
<!-- Node2 -->
<g id="Node000002" class="node">
<title>Node2</title>
<g id="a_Node000002"><a xlink:href="wait_8hpp.html" target="_top" xlink:title=" ">
<polygon fill="white" stroke="#666666" points="1223.62,-363 1120.62,-363 1120.62,-332.5 1223.62,-332.5 1223.62,-363"/>
<text text-anchor="start" x="1128.62" y="-349.5" font-family="Helvetica,sans-Serif" font-size="10.00">include/yaclib/async</text>
<text text-anchor="middle" x="1172.12" y="-338.25" font-family="Helvetica,sans-Serif" font-size="10.00">/wait.hpp</text>
</a>
</g>
</g>
<!-- Node1&#45;&gt;Node2 -->
<g id="edge1_Node000001_Node000002" class="edge">
<title>Node1&#45;&gt;Node2</title>
<g id="a_edge1_Node000001_Node000002"><a xlink:title=" ">
<path fill="none" stroke="#63b8ff" d="M2182.13,-409.41C1986.95,-397.68 1401.72,-362.54 1223.92,-351.86"/>
<polygon fill="#63b8ff" stroke="#63b8ff" points="2181.89,-412.9 2192.09,-410 2182.31,-405.91 2181.89,-412.9"/>
</a>
</g>
</g>
<!-- Node20 -->
<g id="Node000020" class="node">
<title>Node20</title>
<g id="a_Node000020"><a xlink:href="wait__for_8hpp.html" target="_top" xlink:title=" ">
<polygon fill="white" stroke="#666666" points="2278.62,-230 2175.62,-230 2175.62,-199.5 2278.62,-199.5 2278.62,-230"/>
<text text-anchor="start" x="2183.62" y="-216.5" font-family="Helvetica,sans-Serif" font-size="10.00">include/yaclib/async</text>
<text text-anchor="middle" x="2227.12" y="-205.25" font-family="Helvetica,sans-Serif" font-size="10.00">/wait_for.hpp</text>
</a>
</g>
</g>
<!-- Node1&#45;&gt;Node20 -->
<g id="edge57_Node000001_Node000020" class="edge">
<title>Node1&#45;&gt;Node20</title>
<g id="a_edge57_Node000001_Node000020"><a xlink:title=" ">
<path fill="none" stroke="#63b8ff" d="M2243.63,-387.27C2239.58,-345.19 2231.72,-263.49 2228.52,-230.29"/>
<polygon fill="#63b8ff" stroke="#63b8ff" points="2240.14,-387.6 2244.58,-397.22 2247.11,-386.93 2240.14,-387.6"/>
</a>
</g>
</g>
<!-- Node21 -->
<g id="Node000021" class="node">
<title>Node21</title>
<g id="a_Node000021"><a xlink:href="wait__until_8hpp.html" target="_top" xlink:title=" ">
<polygon fill="white" stroke="#666666" points="2399.62,-230 2296.62,-230 2296.62,-199.5 2399.62,-199.5 2399.62,-230"/>
<text text-anchor="start" x="2304.62" y="-216.5" font-family="Helvetica,sans-Serif" font-size="10.00">include/yaclib/async</text>
<text text-anchor="middle" x="2348.12" y="-205.25" font-family="Helvetica,sans-Serif" font-size="10.00">/wait_until.hpp</text>
</a>
</g>
</g>
<!-- Node1&#45;&gt;Node21 -->
<g id="edge58_Node000001_Node000021" class="edge">
<title>Node1&#45;&gt;Node21</title>
<g id="a_edge58_Node000001_Node000021"><a xlink:title=" ">
<path fill="none" stroke="#63b8ff" d="M2257.37,-388.34C2264.73,-372.28 2274.71,-351.01 2284.12,-332.5 2303.1,-295.21 2327.23,-252.29 2339.75,-230.34"/>
<polygon fill="#63b8ff" stroke="#63b8ff" points="2254.31,-386.6 2253.35,-397.15 2260.68,-389.51 2254.31,-386.6"/>
</a>
</g>
</g>
<!-- Node37 -->
<g id="Node000037" class="node">
<title>Node37</title>
<g id="a_Node000037"><a xlink:href="wait__impl_8cpp.html" target="_top" xlink:title=" ">
<polygon fill="white" stroke="#666666" points="2413.25,-357.38 2293,-357.38 2293,-338.12 2413.25,-338.12 2413.25,-357.38"/>
<text text-anchor="middle" x="2353.12" y="-343.88" font-family="Helvetica,sans-Serif" font-size="10.00">src/async/wait_impl.cpp</text>
</a>
</g>
</g>
<!-- Node1&#45;&gt;Node37 -->
<g id="edge59_Node000001_Node000037" class="edge">
<title>Node1&#45;&gt;Node37</title>
<g id="a_edge59_Node000001_Node000037"><a xlink:title=" ">
<path fill="none" stroke="#63b8ff" d="M2280.18,-392.72C2299.71,-380.95 2323.23,-366.77 2338.18,-357.76"/>
<polygon fill="#63b8ff" stroke="#63b8ff" points="2278.46,-389.67 2271.7,-397.83 2282.07,-395.67 2278.46,-389.67"/>
</a>
</g>
</g>
<!-- Node3 -->
<g id="Node000003" class="node">
<title>Node3</title>
<g id="a_Node000003"><a xlink:href="async_2future_8hpp.html" target="_top" xlink:title=" ">
<polygon fill="white" stroke="#666666" points="1223.62,-296.5 1120.62,-296.5 1120.62,-266 1223.62,-266 1223.62,-296.5"/>
<text text-anchor="start" x="1128.62" y="-283" font-family="Helvetica,sans-Serif" font-size="10.00">include/yaclib/async</text>
<text text-anchor="middle" x="1172.12" y="-271.75" font-family="Helvetica,sans-Serif" font-size="10.00">/future.hpp</text>
</a>
</g>
</g>
<!-- Node2&#45;&gt;Node3 -->
<g id="edge2_Node000002_Node000003" class="edge">
<title>Node2&#45;&gt;Node3</title>
<g id="a_edge2_Node000002_Node000003"><a xlink:title=" ">
<path fill="none" stroke="#63b8ff" d="M1165.49,-320.81C1165.19,-312.64 1165.48,-303.91 1166.37,-296.83"/>
<polygon fill="#63b8ff" stroke="#63b8ff" points="1161.99,-320.9 1166.25,-330.6 1168.97,-320.37 1161.99,-320.9"/>
</a>
</g>
</g>
<!-- Node33 -->
<g id="Node000033" class="node">
<title>Node33</title>
<g id="a_Node000033"><a xlink:href="async_2shared__future_8hpp.html" target="_top" xlink:title=" ">
<polygon fill="white" stroke="#666666" points="439.62,-296.5 336.62,-296.5 336.62,-266 439.62,-266 439.62,-296.5"/>
<text text-anchor="start" x="344.62" y="-283" font-family="Helvetica,sans-Serif" font-size="10.00">include/yaclib/async</text>
<text text-anchor="middle" x="388.12" y="-271.75" font-family="Helvetica,sans-Serif" font-size="10.00">/shared_future.hpp</text>
</a>
</g>
</g>
<!-- Node2&#45;&gt;Node33 -->
<g id="edge49_Node000002_Node000033" class="edge">
<title>Node2&#45;&gt;Node33</title>
<g id="a_edge49_Node000002_Node000033"><a xlink:title=" ">
<path fill="none" stroke="#63b8ff" d="M1109.06,-341.56C958.19,-329.15 578.69,-297.93 439.95,-286.51"/>
<polygon fill="#63b8ff" stroke="#63b8ff" points="1108.62,-345.04 1118.87,-342.37 1109.19,-338.06 1108.62,-345.04"/>
</a>
</g>
</g>
<!-- Node3&#45;&gt;Node2 -->
<g id="edge26_Node000003_Node000002" class="edge">
<title>Node3&#45;&gt;Node2</title>
<g id="a_edge26_Node000003_Node000002"><a xlink:title=" ">
<path fill="none" stroke="#63b8ff" d="M1178.76,-308.13C1179.06,-316.29 1178.77,-325.02 1177.89,-332.11"/>
<polygon fill="#63b8ff" stroke="#63b8ff" points="1182.26,-308.04 1178,-298.34 1175.28,-308.58 1182.26,-308.04"/>
</a>
</g>
</g>
<!-- Node4 -->
<g id="Node000004" class="node">
<title>Node4</title>
<g id="a_Node000004"><a xlink:href="wait__group_8hpp.html" target="_top" xlink:title=" ">
<polygon fill="white" stroke="#666666" points="1997.88,-230 1902.38,-230 1902.38,-199.5 1997.88,-199.5 1997.88,-230"/>
<text text-anchor="start" x="1910.38" y="-216.5" font-family="Helvetica,sans-Serif" font-size="10.00">include/yaclib/algo</text>
<text text-anchor="middle" x="1950.12" y="-205.25" font-family="Helvetica,sans-Serif" font-size="10.00">/wait_group.hpp</text>
</a>
</g>
</g>
<!-- Node3&#45;&gt;Node4 -->
<g id="edge3_Node000003_Node000004" class="edge">
<title>Node3&#45;&gt;Node4</title>
<g id="a_edge3_Node000003_Node000004"><a xlink:title=" ">
<path fill="none" stroke="#63b8ff" d="M1235.37,-279.56C1361.33,-277.37 1652.17,-268.21 1893.12,-230 1896.05,-229.54 1899.04,-229 1902.05,-228.4"/>
<polygon fill="#63b8ff" stroke="#63b8ff" points="1235.51,-276.06 1225.57,-279.72 1235.63,-283.06 1235.51,-276.06"/>
</a>
</g>
</g>
<!-- Node6 -->
<g id="Node000006" class="node">
<title>Node6</title>
<g id="a_Node000006"><a xlink:href="connect_8hpp.html" target="_top" xlink:title=" ">
<polygon fill="white" stroke="#666666" points="557.62,-230 454.62,-230 454.62,-199.5 557.62,-199.5 557.62,-230"/>
<text text-anchor="start" x="462.62" y="-216.5" font-family="Helvetica,sans-Serif" font-size="10.00">include/yaclib/async</text>
<text text-anchor="middle" x="506.12" y="-205.25" font-family="Helvetica,sans-Serif" font-size="10.00">/connect.hpp</text>
</a>
</g>
</g>
<!-- Node3&#45;&gt;Node6 -->
<g id="edge5_Node000003_Node000006" class="edge">
<title>Node3&#45;&gt;Node6</title>
<g id="a_edge5_Node000003_Node000006"><a xlink:title=" ">
<path fill="none" stroke="#63b8ff" d="M1109.07,-278.15C998.51,-273.76 762.73,-261.32 566.12,-230 563.48,-229.58 560.78,-229.1 558.06,-228.59"/>
<polygon fill="#63b8ff" stroke="#63b8ff" points="1108.69,-281.63 1118.82,-278.52 1108.96,-274.64 1108.69,-281.63"/>
</a>
</g>
</g>
<!-- Node8 -->
<g id="Node000008" class="node">
<title>Node8</title>
<g id="a_Node000008"><a xlink:href="split_8hpp.html" target="_top" xlink:title=" ">
<polygon fill="white" stroke="#666666" points="456.62,-163.5 353.62,-163.5 353.62,-133 456.62,-133 456.62,-163.5"/>
<text text-anchor="start" x="361.62" y="-150" font-family="Helvetica,sans-Serif" font-size="10.00">include/yaclib/async</text>
<text text-anchor="middle" x="405.12" y="-138.75" font-family="Helvetica,sans-Serif" font-size="10.00">/split.hpp</text>
</a>
</g>
</g>
<!-- Node3&#45;&gt;Node8 -->
<g id="edge25_Node000003_Node000008" class="edge">
<title>Node3&#45;&gt;Node8</title>
<g id="a_edge25_Node000003_Node000008"><a xlink:title=" ">
<path fill="none" stroke="#63b8ff" d="M1109.27,-279.45C942.82,-276.83 499.63,-266.49 445.12,-230 422.37,-214.77 412.04,-182.63 407.77,-163.81"/>
<polygon fill="#63b8ff" stroke="#63b8ff" points="1108.73,-282.94 1118.78,-279.59 1108.84,-275.94 1108.73,-282.94"/>
</a>
</g>
</g>
<!-- Node9 -->
<g id="Node000009" class="node">
<title>Node9</title>
<g id="a_Node000009"><a xlink:href="contract_8hpp.html" target="_top" xlink:title=" ">
<polygon fill="white" stroke="#666666" points="678.62,-230 575.62,-230 575.62,-199.5 678.62,-199.5 678.62,-230"/>
<text text-anchor="start" x="583.62" y="-216.5" font-family="Helvetica,sans-Serif" font-size="10.00">include/yaclib/async</text>
<text text-anchor="middle" x="627.12" y="-205.25" font-family="Helvetica,sans-Serif" font-size="10.00">/contract.hpp</text>
</a>
</g>
</g>
<!-- Node3&#45;&gt;Node9 -->
<g id="edge8_Node000003_Node000009" class="edge">
<title>Node3&#45;&gt;Node9</title>
<g id="a_edge8_Node000003_Node000009"><a xlink:title=" ">
<path fill="none" stroke="#63b8ff" d="M1108.81,-275.8C1016.87,-268.84 841.19,-253.68 693.12,-230 688.49,-229.26 683.7,-228.4 678.91,-227.48"/>
<polygon fill="#63b8ff" stroke="#63b8ff" points="1108.4,-279.28 1118.63,-276.53 1108.92,-272.3 1108.4,-279.28"/>
</a>
</g>
</g>
<!-- Node10 -->
<g id="Node000010" class="node">
<title>Node10</title>
<g id="a_Node000010"><a xlink:href="simple_8cpp.html" target="_top" xlink:title=" ">
<polygon fill="white" stroke="#666666" points="757.12,-163.5 657.12,-163.5 657.12,-133 757.12,-133 757.12,-163.5"/>
<text text-anchor="start" x="665.12" y="-150" font-family="Helvetica,sans-Serif" font-size="10.00">test/example/async</text>
<text text-anchor="middle" x="707.12" y="-138.75" font-family="Helvetica,sans-Serif" font-size="10.00">/simple.cpp</text>
</a>
</g>
</g>
<!-- Node3&#45;&gt;Node10 -->
<g id="edge48_Node000003_Node000010" class="edge">
<title>Node3&#45;&gt;Node10</title>
<g id="a_edge48_Node000003_Node000010"><a xlink:title=" ">
<path fill="none" stroke="#63b8ff" d="M1109.19,-277.14C993.04,-270.82 754.22,-254.94 726.12,-230 707.49,-213.46 705.37,-182.4 705.95,-163.99"/>
<polygon fill="#63b8ff" stroke="#63b8ff" points="1108.69,-280.61 1118.86,-277.65 1109.06,-273.62 1108.69,-280.61"/>
</a>
</g>
</g>
<!-- Node11 -->
<g id="Node000011" class="node">
<title>Node11</title>
<g id="a_Node000011"><a xlink:href="when__impl_8hpp.html" target="_top" xlink:title=" ">
<polygon fill="white" stroke="#666666" points="1884,-230 1774.25,-230 1774.25,-199.5 1884,-199.5 1884,-230"/>
<text text-anchor="start" x="1782.25" y="-216.5" font-family="Helvetica,sans-Serif" font-size="10.00">include/yaclib/async</text>
<text text-anchor="middle" x="1829.12" y="-205.25" font-family="Helvetica,sans-Serif" font-size="10.00">/detail/when_impl.hpp</text>
</a>
</g>
</g>
<!-- Node3&#45;&gt;Node11 -->
<g id="edge11_Node000003_Node000011" class="edge">
<title>Node3&#45;&gt;Node11</title>
<g id="a_edge11_Node000003_Node000011"><a xlink:title=" ">
<path fill="none" stroke="#63b8ff" d="M1235.12,-274.07C1363.4,-261.47 1653.02,-233.04 1774.19,-221.14"/>
<polygon fill="#63b8ff" stroke="#63b8ff" points="1235.07,-270.55 1225.46,-275.01 1235.75,-277.52 1235.07,-270.55"/>
</a>
</g>
</g>
<!-- Node13 -->
<g id="Node000013" class="node">
<title>Node13</title>
<g id="a_Node000013"><a xlink:href="when__all_8hpp.html" target="_top" xlink:title=" ">
<polygon fill="white" stroke="#666666" points="1762.62,-97 1659.62,-97 1659.62,-66.5 1762.62,-66.5 1762.62,-97"/>
<text text-anchor="start" x="1667.62" y="-83.5" font-family="Helvetica,sans-Serif" font-size="10.00">include/yaclib/async</text>
<text text-anchor="middle" x="1711.12" y="-72.25" font-family="Helvetica,sans-Serif" font-size="10.00">/when_all.hpp</text>
</a>
</g>
</g>
<!-- Node3&#45;&gt;Node13 -->
<g id="edge29_Node000003_Node000013" class="edge">
<title>Node3&#45;&gt;Node13</title>
<g id="a_edge29_Node000003_Node000013"><a xlink:title=" ">
<path fill="none" stroke="#63b8ff" d="M1109.2,-268.2C1014.89,-247.59 854.48,-201.09 919.12,-133 945.71,-105 1574.7,-100.78 1613.12,-97 1628.18,-95.52 1644.47,-93.37 1659.36,-91.19"/>
<polygon fill="#63b8ff" stroke="#63b8ff" points="1108.36,-271.6 1118.88,-270.27 1109.83,-264.76 1108.36,-271.6"/>
</a>
</g>
</g>
<!-- Node16 -->
<g id="Node000016" class="node">
<title>Node16</title>
<g id="a_Node000016"><a xlink:href="when__any_8hpp.html" target="_top" xlink:title=" ">
<polygon fill="white" stroke="#666666" points="2061.62,-97 1958.62,-97 1958.62,-66.5 2061.62,-66.5 2061.62,-97"/>
<text text-anchor="start" x="1966.62" y="-83.5" font-family="Helvetica,sans-Serif" font-size="10.00">include/yaclib/async</text>
<text text-anchor="middle" x="2010.12" y="-72.25" font-family="Helvetica,sans-Serif" font-size="10.00">/when_any.hpp</text>
</a>
</g>
</g>
<!-- Node3&#45;&gt;Node16 -->
<g id="edge30_Node000003_Node000016" class="edge">
<title>Node3&#45;&gt;Node16</title>
<g id="a_edge30_Node000003_Node000016"><a xlink:title=" ">
<path fill="none" stroke="#63b8ff" d="M1235.14,-278.62C1417.23,-273.59 1935.65,-257.06 2007.12,-230 2027.7,-222.21 2025.97,-208.32 2046.12,-199.5 2137.29,-159.6 2202.66,-239.32 2267.12,-163.5 2325.14,-95.27 2152.55,-83.93 2061.9,-82.55"/>
<polygon fill="#63b8ff" stroke="#63b8ff" points="1235.31,-275.11 1225.41,-278.88 1235.51,-282.11 1235.31,-275.11"/>
</a>
</g>
</g>
<!-- Node18 -->
<g id="Node000018" class="node">
<title>Node18</title>
<g id="a_Node000018"><a xlink:href="async_2make_8hpp.html" target="_top" xlink:title=" ">
<polygon fill="white" stroke="#666666" points="2157.62,-230 2054.62,-230 2054.62,-199.5 2157.62,-199.5 2157.62,-230"/>
<text text-anchor="start" x="2062.62" y="-216.5" font-family="Helvetica,sans-Serif" font-size="10.00">include/yaclib/async</text>
<text text-anchor="middle" x="2106.12" y="-205.25" font-family="Helvetica,sans-Serif" font-size="10.00">/make.hpp</text>
</a>
</g>
</g>
<!-- Node3&#45;&gt;Node18 -->
<g id="edge20_Node000003_Node000018" class="edge">
<title>Node3&#45;&gt;Node18</title>
<g id="a_edge20_Node000003_Node000018"><a xlink:title=" ">
<path fill="none" stroke="#63b8ff" d="M1234.92,-279.94C1378.29,-278.5 1740.5,-270.77 2040.12,-230 2044.77,-229.37 2049.58,-228.59 2054.38,-227.71"/>
<polygon fill="#63b8ff" stroke="#63b8ff" points="1235.24,-276.44 1225.27,-280.03 1235.3,-283.43 1235.24,-276.44"/>
</a>
</g>
</g>
<!-- Node19 -->
<g id="Node000019" class="node">
<title>Node19</title>
<g id="a_Node000019"><a xlink:href="run_8hpp.html" target="_top" xlink:title=" ">
<polygon fill="white" stroke="#666666" points="838.62,-230 735.62,-230 735.62,-199.5 838.62,-199.5 838.62,-230"/>
<text text-anchor="start" x="743.62" y="-216.5" font-family="Helvetica,sans-Serif" font-size="10.00">include/yaclib/async</text>
<text text-anchor="middle" x="787.12" y="-205.25" font-family="Helvetica,sans-Serif" font-size="10.00">/run.hpp</text>
</a>
</g>
</g>
<!-- Node3&#45;&gt;Node19 -->
<g id="edge21_Node000003_Node000019" class="edge">
<title>Node3&#45;&gt;Node19</title>
<g id="a_edge21_Node000003_Node000019"><a xlink:title=" ">
<path fill="none" stroke="#63b8ff" d="M1109.13,-271.4C1044.65,-262.09 941.64,-246.51 853.12,-230 848.52,-229.14 843.74,-228.2 838.95,-227.23"/>
<polygon fill="#63b8ff" stroke="#63b8ff" points="1108.42,-274.83 1118.81,-272.79 1109.41,-267.9 1108.42,-274.83"/>
</a>
</g>
</g>
<!-- Node3&#45;&gt;Node20 -->
<g id="edge27_Node000003_Node000020" class="edge">
<title>Node3&#45;&gt;Node20</title>
<g id="a_edge27_Node000003_Node000020"><a xlink:title=" ">
<path fill="none" stroke="#63b8ff" d="M1235.33,-281.05C1393.31,-282.17 1817.79,-279.88 2167.12,-230 2169.77,-229.62 2172.48,-229.18 2175.2,-228.69"/>
<polygon fill="#63b8ff" stroke="#63b8ff" points="1235.51,-277.55 1225.49,-280.97 1235.46,-284.55 1235.51,-277.55"/>
</a>
</g>
</g>
<!-- Node3&#45;&gt;Node21 -->
<g id="edge28_Node000003_Node000021" class="edge">
<title>Node3&#45;&gt;Node21</title>
<g id="a_edge28_Node000003_Node000021"><a xlink:title=" ">
<path fill="none" stroke="#63b8ff" d="M1235.52,-278.97C1440.27,-274.57 2082.52,-258.78 2288.12,-230 2290.78,-229.63 2293.48,-229.19 2296.2,-228.71"/>
<polygon fill="#63b8ff" stroke="#63b8ff" points="1235.53,-275.46 1225.61,-279.18 1235.68,-282.46 1235.53,-275.46"/>
</a>
</g>
</g>
<!-- Node22 -->
<g id="Node000022" class="node">
<title>Node22</title>
<g id="a_Node000022"><a xlink:href="await_8hpp.html" target="_top" xlink:title=" ">
<polygon fill="white" stroke="#666666" points="1009.25,-97 913,-97 913,-66.5 1009.25,-66.5 1009.25,-97"/>
<text text-anchor="start" x="921" y="-83.5" font-family="Helvetica,sans-Serif" font-size="10.00">include/yaclib/coro</text>
<text text-anchor="middle" x="961.12" y="-72.25" font-family="Helvetica,sans-Serif" font-size="10.00">/await.hpp</text>
</a>
</g>
</g>
<!-- Node3&#45;&gt;Node22 -->
<g id="edge31_Node000003_Node000022" class="edge">
<title>Node3&#45;&gt;Node22</title>
<g id="a_edge31_Node000003_Node000022"><a xlink:title=" ">
<path fill="none" stroke="#63b8ff" d="M1108.66,-277.68C1034.85,-273.25 919.46,-261.38 891.12,-230 862.19,-197.96 865.8,-171.08 886.12,-133 894.54,-117.24 910.33,-105.55 925.26,-97.43"/>
<polygon fill="#63b8ff" stroke="#63b8ff" points="1108.44,-281.17 1118.62,-278.24 1108.84,-274.19 1108.44,-281.17"/>
</a>
</g>
</g>
<!-- Node23 -->
<g id="Node000023" class="node">
<title>Node23</title>
<g id="a_Node000023"><a xlink:href="await__on_8hpp.html" target="_top" xlink:title=" ">
<polygon fill="white" stroke="#666666" points="1156.25,-97 1060,-97 1060,-66.5 1156.25,-66.5 1156.25,-97"/>
<text text-anchor="start" x="1068" y="-83.5" font-family="Helvetica,sans-Serif" font-size="10.00">include/yaclib/coro</text>
<text text-anchor="middle" x="1108.12" y="-72.25" font-family="Helvetica,sans-Serif" font-size="10.00">/await_on.hpp</text>
</a>
</g>
</g>
<!-- Node3&#45;&gt;Node23 -->
<g id="edge32_Node000003_Node000023" class="edge">
<title>Node3&#45;&gt;Node23</title>
<g id="a_edge32_Node000003_Node000023"><a xlink:title=" ">
<path fill="none" stroke="#63b8ff" d="M1127.92,-259.69C1116.47,-252.07 1105.56,-242.24 1099.12,-230 1076.13,-186.25 1092.92,-124.77 1102.58,-97.16"/>
<polygon fill="#63b8ff" stroke="#63b8ff" points="1125.92,-262.57 1136.28,-264.78 1129.56,-256.59 1125.92,-262.57"/>
</a>
</g>
</g>
<!-- Node24 -->
<g id="Node000024" class="node">
<title>Node24</title>
<g id="a_Node000024"><a xlink:href="await__awaiter_8hpp.html" target="_top" xlink:title=" ">
<polygon fill="white" stroke="#666666" points="1051.75,-163.5 928.5,-163.5 928.5,-133 1051.75,-133 1051.75,-163.5"/>
<text text-anchor="start" x="936.5" y="-150" font-family="Helvetica,sans-Serif" font-size="10.00">include/yaclib/coro</text>
<text text-anchor="middle" x="990.12" y="-138.75" font-family="Helvetica,sans-Serif" font-size="10.00">/detail/await_awaiter.hpp</text>
</a>
</g>
</g>
<!-- Node3&#45;&gt;Node24 -->
<g id="edge33_Node000003_Node000024" class="edge">
<title>Node3&#45;&gt;Node24</title>
<g id="a_edge33_Node000003_Node000024"><a xlink:title=" ">
<path fill="none" stroke="#63b8ff" d="M1121.87,-261.04C1103.49,-252.85 1083.06,-242.32 1066.12,-230 1039.66,-210.74 1014.83,-181.45 1001.13,-163.95"/>
<polygon fill="#63b8ff" stroke="#63b8ff" points="1120.46,-264.25 1131.03,-264.99 1123.23,-257.82 1120.46,-264.25"/>
</a>
</g>
</g>
<!-- Node25 -->
<g id="Node000025" class="node">
<title>Node25</title>
<g id="a_Node000025"><a xlink:href="await__on__awaiter_8hpp.html" target="_top" xlink:title=" ">
<polygon fill="white" stroke="#666666" points="1247.62,-163.5 1108.62,-163.5 1108.62,-133 1247.62,-133 1247.62,-163.5"/>
<text text-anchor="start" x="1116.62" y="-150" font-family="Helvetica,sans-Serif" font-size="10.00">include/yaclib/coro</text>
<text text-anchor="middle" x="1178.12" y="-138.75" font-family="Helvetica,sans-Serif" font-size="10.00">/detail/await_on_awaiter.hpp</text>
</a>
</g>
</g>
<!-- Node3&#45;&gt;Node25 -->
<g id="edge35_Node000003_Node000025" class="edge">
<title>Node3&#45;&gt;Node25</title>
<g id="a_edge35_Node000003_Node000025"><a xlink:title=" ">
<path fill="none" stroke="#63b8ff" d="M1215.45,-259.77C1226.85,-252.12 1237.74,-242.25 1244.12,-230 1250.39,-217.98 1250.14,-211.65 1244.12,-199.5 1236.52,-184.14 1221.72,-172.21 1208.06,-163.83"/>
<polygon fill="#63b8ff" stroke="#63b8ff" points="1213.82,-256.66 1207.13,-264.88 1217.48,-262.63 1213.82,-256.66"/>
</a>
</g>
</g>
<!-- Node26 -->
<g id="Node000026" class="node">
<title>Node26</title>
<g id="a_Node000026"><a xlink:href="coro_2future_8hpp.html" target="_top" xlink:title=" ">
<polygon fill="white" stroke="#666666" points="1756.25,-163.5 1660,-163.5 1660,-133 1756.25,-133 1756.25,-163.5"/>
<text text-anchor="start" x="1668" y="-150" font-family="Helvetica,sans-Serif" font-size="10.00">include/yaclib/coro</text>
<text text-anchor="middle" x="1708.12" y="-138.75" font-family="Helvetica,sans-Serif" font-size="10.00">/future.hpp</text>
</a>
</g>
</g>
<!-- Node3&#45;&gt;Node26 -->
<g id="edge37_Node000003_Node000026" class="edge">
<title>Node3&#45;&gt;Node26</title>
<g id="a_edge37_Node000003_Node000026"><a xlink:title=" ">
<path fill="none" stroke="#63b8ff" d="M1235.11,-271.01C1291.35,-262.23 1375.77,-247.75 1448.12,-230 1526.16,-210.85 1615.21,-181.53 1666.23,-163.98"/>
<polygon fill="#63b8ff" stroke="#63b8ff" points="1234.74,-267.52 1225.39,-272.51 1235.81,-274.44 1234.74,-267.52"/>
</a>
</g>
</g>
<!-- Node27 -->
<g id="Node000027" class="node">
<title>Node27</title>
<g id="a_Node000027"><a xlink:href="lazy_2task_8hpp.html" target="_top" xlink:title=" ">
<polygon fill="white" stroke="#666666" points="1439.12,-230 1345.12,-230 1345.12,-199.5 1439.12,-199.5 1439.12,-230"/>
<text text-anchor="start" x="1353.12" y="-216.5" font-family="Helvetica,sans-Serif" font-size="10.00">include/yaclib/lazy</text>
<text text-anchor="middle" x="1392.12" y="-205.25" font-family="Helvetica,sans-Serif" font-size="10.00">/task.hpp</text>
</a>
</g>
</g>
<!-- Node3&#45;&gt;Node27 -->
<g id="edge38_Node000003_Node000027" class="edge">
<title>Node3&#45;&gt;Node27</title>
<g id="a_edge38_Node000003_Node000027"><a xlink:title=" ">
<path fill="none" stroke="#63b8ff" d="M1232.98,-262.41C1268.28,-252.06 1312.07,-239.22 1344.78,-229.63"/>
<polygon fill="#63b8ff" stroke="#63b8ff" points="1232.39,-258.94 1223.77,-265.11 1234.35,-265.65 1232.39,-258.94"/>
</a>
</g>
</g>
<!-- Node32 -->
<g id="Node000032" class="node">
<title>Node32</title>
<g id="a_Node000032"><a xlink:href="future__impl_8cpp.html" target="_top" xlink:title=" ">
<polygon fill="white" stroke="#666666" points="1235.62,-224.38 1108.62,-224.38 1108.62,-205.12 1235.62,-205.12 1235.62,-224.38"/>
<text text-anchor="middle" x="1172.12" y="-210.88" font-family="Helvetica,sans-Serif" font-size="10.00">src/async/future_impl.cpp</text>
</a>
</g>
</g>
<!-- Node3&#45;&gt;Node32 -->
<g id="edge47_Node000003_Node000032" class="edge">
<title>Node3&#45;&gt;Node32</title>
<g id="a_edge47_Node000003_Node000032"><a xlink:title=" ">
<path fill="none" stroke="#63b8ff" d="M1172.12,-254.34C1172.12,-243.76 1172.12,-232.25 1172.12,-224.57"/>
<polygon fill="#63b8ff" stroke="#63b8ff" points="1168.63,-254.1 1172.13,-264.1 1175.63,-254.1 1168.63,-254.1"/>
</a>
</g>
</g>
<!-- Node5 -->
<g id="Node000005" class="node">
<title>Node5</title>
<g id="a_Node000005"><a xlink:href="wait__group_8cpp.html" target="_top" xlink:title=" ">
<polygon fill="white" stroke="#666666" points="2258.5,-157.88 2139.75,-157.88 2139.75,-138.62 2258.5,-138.62 2258.5,-157.88"/>
<text text-anchor="middle" x="2199.12" y="-144.38" font-family="Helvetica,sans-Serif" font-size="10.00">src/algo/wait_group.cpp</text>
</a>
</g>
</g>
<!-- Node4&#45;&gt;Node5 -->
<g id="edge4_Node000004_Node000005" class="edge">
<title>Node4&#45;&gt;Node5</title>
<g id="a_edge4_Node000004_Node000005"><a xlink:title=" ">
<path fill="none" stroke="#63b8ff" d="M2009.05,-198.49C2057.29,-185.99 2123.9,-168.74 2164.11,-158.32"/>
<polygon fill="#63b8ff" stroke="#63b8ff" points="2008.4,-195.04 1999.6,-200.93 2010.16,-201.81 2008.4,-195.04"/>
</a>
</g>
</g>
<!-- Node7 -->
<g id="Node000007" class="node">
<title>Node7</title>
<g id="a_Node000007"><a xlink:href="share_8hpp.html" target="_top" xlink:title=" ">
<polygon fill="white" stroke="#666666" points="577.62,-163.5 474.62,-163.5 474.62,-133 577.62,-133 577.62,-163.5"/>
<text text-anchor="start" x="482.62" y="-150" font-family="Helvetica,sans-Serif" font-size="10.00">include/yaclib/async</text>
<text text-anchor="middle" x="526.12" y="-138.75" font-family="Helvetica,sans-Serif" font-size="10.00">/share.hpp</text>
</a>
</g>
</g>
<!-- Node6&#45;&gt;Node7 -->
<g id="edge6_Node000006_Node000007" class="edge">
<title>Node6&#45;&gt;Node7</title>
<g id="a_edge6_Node000006_Node000007"><a xlink:title=" ">
<path fill="none" stroke="#63b8ff" d="M513.99,-188.38C516.58,-180.05 519.36,-171.08 521.6,-163.83"/>
<polygon fill="#63b8ff" stroke="#63b8ff" points="510.73,-187.08 511.11,-197.67 517.42,-189.15 510.73,-187.08"/>
</a>
</g>
</g>
<!-- Node6&#45;&gt;Node8 -->
<g id="edge7_Node000006_Node000008" class="edge">
<title>Node6&#45;&gt;Node8</title>
<g id="a_edge7_Node000006_Node000008"><a xlink:title=" ">
<path fill="none" stroke="#63b8ff" d="M473.81,-193.11C458.88,-183.58 441.49,-172.48 427.95,-163.83"/>
<polygon fill="#63b8ff" stroke="#63b8ff" points="471.62,-195.87 481.93,-198.3 475.39,-189.97 471.62,-195.87"/>
</a>
</g>
</g>
<!-- Node9&#45;&gt;Node7 -->
<g id="edge9_Node000009_Node000007" class="edge">
<title>Node9&#45;&gt;Node7</title>
<g id="a_edge9_Node000009_Node000007"><a xlink:title=" ">
<path fill="none" stroke="#63b8ff" d="M594.81,-193.11C579.88,-183.58 562.49,-172.48 548.95,-163.83"/>
<polygon fill="#63b8ff" stroke="#63b8ff" points="592.62,-195.87 602.93,-198.3 596.39,-189.97 592.62,-195.87"/>
</a>
</g>
</g>
<!-- Node9&#45;&gt;Node10 -->
<g id="edge10_Node000009_Node000010" class="edge">
<title>Node9&#45;&gt;Node10</title>
<g id="a_edge10_Node000009_Node000010"><a xlink:title=" ">
<path fill="none" stroke="#63b8ff" d="M654.08,-192.02C665.59,-182.73 678.73,-172.15 689.04,-163.83"/>
<polygon fill="#63b8ff" stroke="#63b8ff" points="652.04,-189.16 646.46,-198.16 656.44,-194.61 652.04,-189.16"/>
</a>
</g>
</g>
<!-- Node12 -->
<g id="Node000012" class="node">
<title>Node12</title>
<g id="a_Node000012"><a xlink:href="when__all__impl_8hpp.html" target="_top" xlink:title=" ">
<polygon fill="white" stroke="#666666" points="1936.5,-163.5 1811.75,-163.5 1811.75,-133 1936.5,-133 1936.5,-163.5"/>
<text text-anchor="start" x="1819.75" y="-150" font-family="Helvetica,sans-Serif" font-size="10.00">include/yaclib/async</text>
<text text-anchor="middle" x="1874.12" y="-138.75" font-family="Helvetica,sans-Serif" font-size="10.00">/detail/when_all_impl.hpp</text>
</a>
</g>
</g>
<!-- Node11&#45;&gt;Node12 -->
<g id="edge12_Node000011_Node000012" class="edge">
<title>Node11&#45;&gt;Node12</title>
<g id="a_edge12_Node000011_Node000012"><a xlink:title=" ">
<path fill="none" stroke="#63b8ff" d="M1845.84,-189.79C1851.92,-181.07 1858.61,-171.49 1863.95,-163.83"/>
<polygon fill="#63b8ff" stroke="#63b8ff" points="1843.05,-187.67 1840.2,-197.87 1848.79,-191.67 1843.05,-187.67"/>
</a>
</g>
</g>
<!-- Node11&#45;&gt;Node13 -->
<g id="edge18_Node000011_Node000013" class="edge">
<title>Node11&#45;&gt;Node13</title>
<g id="a_edge18_Node000011_Node000013"><a xlink:title=" ">
<path fill="none" stroke="#63b8ff" d="M1811.97,-190.23C1799.57,-173.69 1782.07,-151.34 1765.12,-133 1753.31,-120.21 1738.81,-106.82 1727.81,-97.09"/>
<polygon fill="#63b8ff" stroke="#63b8ff" points="1808.97,-192.06 1817.74,-198 1814.59,-187.88 1808.97,-192.06"/>
</a>
</g>
</g>
<!-- Node15 -->
<g id="Node000015" class="node">
<title>Node15</title>
<g id="a_Node000015"><a xlink:href="when__any__impl_8hpp.html" target="_top" xlink:title=" ">
<polygon fill="white" stroke="#666666" points="2122.12,-163.5 1992.12,-163.5 1992.12,-133 2122.12,-133 2122.12,-163.5"/>
<text text-anchor="start" x="2000.12" y="-150" font-family="Helvetica,sans-Serif" font-size="10.00">include/yaclib/async</text>
<text text-anchor="middle" x="2057.12" y="-138.75" font-family="Helvetica,sans-Serif" font-size="10.00">/detail/when_any_impl.hpp</text>
</a>
</g>
</g>
<!-- Node11&#45;&gt;Node15 -->
<g id="edge15_Node000011_Node000015" class="edge">
<title>Node11&#45;&gt;Node15</title>
<g id="a_edge15_Node000011_Node000015"><a xlink:title=" ">
<path fill="none" stroke="#63b8ff" d="M1891.92,-195.99C1927.58,-185.9 1971.66,-173.43 2005.33,-163.9"/>
<polygon fill="#63b8ff" stroke="#63b8ff" points="1891.27,-192.53 1882.6,-198.62 1893.18,-199.27 1891.27,-192.53"/>
</a>
</g>
</g>
<!-- Node11&#45;&gt;Node16 -->
<g id="edge19_Node000011_Node000016" class="edge">
<title>Node11&#45;&gt;Node16</title>
<g id="a_edge19_Node000011_Node000016"><a xlink:title=" ">
<path fill="none" stroke="#63b8ff" d="M1887.41,-194.92C1906.88,-187.01 1927.96,-176.57 1945.12,-163.5 1969.61,-144.85 1990.38,-115.09 2001.48,-97.38"/>
<polygon fill="#63b8ff" stroke="#63b8ff" points="1886.26,-191.61 1878.21,-198.5 1888.8,-198.13 1886.26,-191.61"/>
</a>
</g>
</g>
<!-- Node12&#45;&gt;Node13 -->
<g id="edge13_Node000012_Node000013" class="edge">
<title>Node12&#45;&gt;Node13</title>
<g id="a_edge13_Node000012_Node000013"><a xlink:title=" ">
<path fill="none" stroke="#63b8ff" d="M1826.44,-128.38C1801.5,-118.51 1771.43,-106.61 1748.25,-97.44"/>
<polygon fill="#63b8ff" stroke="#63b8ff" points="1825.14,-131.63 1835.73,-132.06 1827.72,-125.12 1825.14,-131.63"/>
</a>
</g>
</g>
<!-- Node14 -->
<g id="Node000014" class="node">
<title>Node14</title>
<g id="a_Node000014"><a xlink:href="when__all_8cpp.html" target="_top" xlink:title=" ">
<polygon fill="white" stroke="#666666" points="1335.12,-30.5 1235.12,-30.5 1235.12,0 1335.12,0 1335.12,-30.5"/>
<text text-anchor="start" x="1243.12" y="-17" font-family="Helvetica,sans-Serif" font-size="10.00">test/example/async</text>
<text text-anchor="middle" x="1285.12" y="-5.75" font-family="Helvetica,sans-Serif" font-size="10.00">/when_all.cpp</text>
</a>
</g>
</g>
<!-- Node13&#45;&gt;Node14 -->
<g id="edge14_Node000013_Node000014" class="edge">
<title>Node13&#45;&gt;Node14</title>
<g id="a_edge14_Node000013_Node000014"><a xlink:title=" ">
<path fill="none" stroke="#63b8ff" d="M1648.02,-71.2C1563.04,-58.33 1413.52,-35.69 1335.58,-23.89"/>
<polygon fill="#63b8ff" stroke="#63b8ff" points="1647.41,-74.64 1657.82,-72.68 1648.46,-67.72 1647.41,-74.64"/>
</a>
</g>
</g>
<!-- Node15&#45;&gt;Node16 -->
<g id="edge16_Node000015_Node000016" class="edge">
<title>Node15&#45;&gt;Node16</title>
<g id="a_edge16_Node000015_Node000016"><a xlink:title=" ">
<path fill="none" stroke="#63b8ff" d="M2039.87,-123.57C2033.46,-114.78 2026.39,-105.07 2020.75,-97.33"/>
<polygon fill="#63b8ff" stroke="#63b8ff" points="2036.85,-125.37 2045.57,-131.39 2042.51,-121.25 2036.85,-125.37"/>
</a>
</g>
</g>
<!-- Node17 -->
<g id="Node000017" class="node">
<title>Node17</title>
<g id="a_Node000017"><a xlink:href="when__any_8cpp.html" target="_top" xlink:title=" ">
<polygon fill="white" stroke="#666666" points="1733.12,-30.5 1633.12,-30.5 1633.12,0 1733.12,0 1733.12,-30.5"/>
<text text-anchor="start" x="1641.12" y="-17" font-family="Helvetica,sans-Serif" font-size="10.00">test/example/async</text>
<text text-anchor="middle" x="1683.12" y="-5.75" font-family="Helvetica,sans-Serif" font-size="10.00">/when_any.cpp</text>
</a>
</g>
</g>
<!-- Node16&#45;&gt;Node17 -->
<g id="edge17_Node000016_Node000017" class="edge">
<title>Node16&#45;&gt;Node17</title>
<g id="a_edge17_Node000016_Node000017"><a xlink:title=" ">
<path fill="none" stroke="#63b8ff" d="M1947.08,-68.32C1884.9,-56.05 1791.05,-37.54 1733.62,-26.21"/>
<polygon fill="#63b8ff" stroke="#63b8ff" points="1946.34,-71.74 1956.83,-70.24 1947.69,-64.87 1946.34,-71.74"/>
</a>
</g>
</g>
<!-- Node19&#45;&gt;Node10 -->
<g id="edge22_Node000019_Node000010" class="edge">
<title>Node19&#45;&gt;Node10</title>
<g id="a_edge22_Node000019_Node000010"><a xlink:title=" ">
<path fill="none" stroke="#63b8ff" d="M760.17,-192.02C748.66,-182.73 735.52,-172.15 725.21,-163.83"/>
<polygon fill="#63b8ff" stroke="#63b8ff" points="757.81,-194.61 767.79,-198.16 762.21,-189.16 757.81,-194.61"/>
</a>
</g>
</g>
<!-- Node19&#45;&gt;Node14 -->
<g id="edge23_Node000019_Node000014" class="edge">
<title>Node19&#45;&gt;Node14</title>
<g id="a_edge23_Node000019_Node000014"><a xlink:title=" ">
<path fill="none" stroke="#63b8ff" d="M782.69,-187.98C778.61,-154.78 777.41,-97.64 810.12,-66.5 840.46,-37.63 1118.67,-23.03 1234.69,-18.16"/>
<polygon fill="#63b8ff" stroke="#63b8ff" points="779.18,-188.13 784.06,-197.54 786.11,-187.14 779.18,-188.13"/>
</a>
</g>
</g>
<!-- Node19&#45;&gt;Node17 -->
<g id="edge24_Node000019_Node000017" class="edge">
<title>Node19&#45;&gt;Node17</title>
<g id="a_edge24_Node000019_Node000017"><a xlink:title=" ">
<path fill="none" stroke="#63b8ff" d="M798.55,-188.96C815.91,-154.56 852.43,-93.54 904.12,-66.5 936.44,-49.6 1465.15,-25.59 1632.65,-18.38"/>
<polygon fill="#63b8ff" stroke="#63b8ff" points="795.5,-187.23 794.26,-197.75 801.79,-190.3 795.5,-187.23"/>
</a>
</g>
</g>
<!-- Node24&#45;&gt;Node22 -->
<g id="edge34_Node000024_Node000022" class="edge">
<title>Node24&#45;&gt;Node22</title>
<g id="a_edge34_Node000024_Node000022"><a xlink:title=" ">
<path fill="none" stroke="#63b8ff" d="M978.84,-122.16C975.06,-113.75 970.98,-104.66 967.68,-97.33"/>
<polygon fill="#63b8ff" stroke="#63b8ff" points="975.63,-123.55 982.92,-131.23 982.02,-120.68 975.63,-123.55"/>
</a>
</g>
</g>
<!-- Node25&#45;&gt;Node23 -->
<g id="edge36_Node000025_Node000023" class="edge">
<title>Node25&#45;&gt;Node23</title>
<g id="a_edge36_Node000025_Node000023"><a xlink:title=" ">
<path fill="none" stroke="#63b8ff" d="M1153.94,-124.96C1144.01,-115.82 1132.8,-105.48 1123.95,-97.33"/>
<polygon fill="#63b8ff" stroke="#63b8ff" points="1151.4,-127.39 1161.13,-131.59 1156.15,-122.24 1151.4,-127.39"/>
</a>
</g>
</g>
<!-- Node27&#45;&gt;Node24 -->
<g id="edge39_Node000027_Node000024" class="edge">
<title>Node27&#45;&gt;Node24</title>
<g id="a_edge39_Node000027_Node000024"><a xlink:title=" ">
<path fill="none" stroke="#63b8ff" d="M1333.71,-204.38C1258.61,-192.33 1128.77,-171.5 1052.02,-159.18"/>
<polygon fill="#63b8ff" stroke="#63b8ff" points="1332.91,-207.79 1343.33,-205.92 1334.01,-200.88 1332.91,-207.79"/>
</a>
</g>
</g>
<!-- Node27&#45;&gt;Node25 -->
<g id="edge40_Node000027_Node000025" class="edge">
<title>Node27&#45;&gt;Node25</title>
<g id="a_edge40_Node000027_Node000025"><a xlink:title=" ">
<path fill="none" stroke="#63b8ff" d="M1333.62,-196.12C1300.16,-186.03 1258.67,-173.53 1226.97,-163.97"/>
<polygon fill="#63b8ff" stroke="#63b8ff" points="1332.6,-199.46 1343.18,-199 1334.62,-192.76 1332.6,-199.46"/>
</a>
</g>
</g>
<!-- Node27&#45;&gt;Node26 -->
<g id="edge41_Node000027_Node000026" class="edge">
<title>Node27&#45;&gt;Node26</title>
<g id="a_edge41_Node000027_Node000026"><a xlink:title=" ">
<path fill="none" stroke="#63b8ff" d="M1450.68,-203.31C1503.29,-193.71 1582.59,-178.7 1651.12,-163.5 1653.91,-162.88 1656.77,-162.23 1659.66,-161.55"/>
<polygon fill="#63b8ff" stroke="#63b8ff" points="1450.25,-199.83 1441.03,-205.06 1451.5,-206.72 1450.25,-199.83"/>
</a>
</g>
</g>
<!-- Node28 -->
<g id="Node000028" class="node">
<title>Node28</title>
<g id="a_Node000028"><a xlink:href="coro_2task_8hpp.html" target="_top" xlink:title=" ">
<polygon fill="white" stroke="#666666" points="1492.25,-163.5 1396,-163.5 1396,-133 1492.25,-133 1492.25,-163.5"/>
<text text-anchor="start" x="1404" y="-150" font-family="Helvetica,sans-Serif" font-size="10.00">include/yaclib/coro</text>
<text text-anchor="middle" x="1444.12" y="-138.75" font-family="Helvetica,sans-Serif" font-size="10.00">/task.hpp</text>
</a>
</g>
</g>
<!-- Node27&#45;&gt;Node28 -->
<g id="edge42_Node000027_Node000028" class="edge">
<title>Node27&#45;&gt;Node28</title>
<g id="a_edge42_Node000027_Node000028"><a xlink:title=" ">
<path fill="none" stroke="#63b8ff" d="M1410.99,-190.35C1418.14,-181.48 1426.06,-171.65 1432.37,-163.83"/>
<polygon fill="#63b8ff" stroke="#63b8ff" points="1408.43,-187.95 1404.87,-197.94 1413.88,-192.35 1408.43,-187.95"/>
</a>
</g>
</g>
<!-- Node29 -->
<g id="Node000029" class="node">
<title>Node29</title>
<g id="a_Node000029"><a xlink:href="lazy_2make_8hpp.html" target="_top" xlink:title=" ">
<polygon fill="white" stroke="#666666" points="1604.12,-97 1510.12,-97 1510.12,-66.5 1604.12,-66.5 1604.12,-97"/>
<text text-anchor="start" x="1518.12" y="-83.5" font-family="Helvetica,sans-Serif" font-size="10.00">include/yaclib/lazy</text>
<text text-anchor="middle" x="1557.12" y="-72.25" font-family="Helvetica,sans-Serif" font-size="10.00">/make.hpp</text>
</a>
</g>
</g>
<!-- Node27&#45;&gt;Node29 -->
<g id="edge43_Node000027_Node000029" class="edge">
<title>Node27&#45;&gt;Node29</title>
<g id="a_edge43_Node000027_Node000029"><a xlink:title=" ">
<path fill="none" stroke="#63b8ff" d="M1448.14,-194.71C1466.26,-186.85 1485.65,-176.49 1501.12,-163.5 1523.47,-144.75 1540.95,-115.02 1550.09,-97.34"/>
<polygon fill="#63b8ff" stroke="#63b8ff" points="1446.95,-191.41 1439.05,-198.46 1449.63,-197.87 1446.95,-191.41"/>
</a>
</g>
</g>
<!-- Node30 -->
<g id="Node000030" class="node">
<title>Node30</title>
<g id="a_Node000030"><a xlink:href="schedule_8hpp.html" target="_top" xlink:title=" ">
<polygon fill="white" stroke="#666666" points="1642.12,-163.5 1548.12,-163.5 1548.12,-133 1642.12,-133 1642.12,-163.5"/>
<text text-anchor="start" x="1556.12" y="-150" font-family="Helvetica,sans-Serif" font-size="10.00">include/yaclib/lazy</text>
<text text-anchor="middle" x="1595.12" y="-138.75" font-family="Helvetica,sans-Serif" font-size="10.00">/schedule.hpp</text>
</a>
</g>
</g>
<!-- Node27&#45;&gt;Node30 -->
<g id="edge44_Node000027_Node000030" class="edge">
<title>Node27&#45;&gt;Node30</title>
<g id="a_edge44_Node000027_Node000030"><a xlink:title=" ">
<path fill="none" stroke="#63b8ff" d="M1449.27,-195.59C1480.79,-185.58 1519.42,-173.3 1549.01,-163.9"/>
<polygon fill="#63b8ff" stroke="#63b8ff" points="1448.36,-192.21 1439.89,-198.57 1450.48,-198.88 1448.36,-192.21"/>
</a>
</g>
</g>
<!-- Node31 -->
<g id="Node000031" class="node">
<title>Node31</title>
<g id="a_Node000031"><a xlink:href="task__impl_8cpp.html" target="_top" xlink:title=" ">
<polygon fill="white" stroke="#666666" points="1378.12,-157.88 1266.12,-157.88 1266.12,-138.62 1378.12,-138.62 1378.12,-157.88"/>
<text text-anchor="middle" x="1322.12" y="-144.38" font-family="Helvetica,sans-Serif" font-size="10.00">src/lazy/task_impl.cpp</text>
</a>
</g>
</g>
<!-- Node27&#45;&gt;Node31 -->
<g id="edge46_Node000027_Node000031" class="edge">
<title>Node27&#45;&gt;Node31</title>
<g id="a_edge46_Node000027_Node000031"><a xlink:title=" ">
<path fill="none" stroke="#63b8ff" d="M1368.02,-191.54C1355.54,-180.04 1341.01,-166.65 1331.7,-158.07"/>
<polygon fill="#63b8ff" stroke="#63b8ff" points="1365.4,-193.89 1375.13,-198.09 1370.15,-188.74 1365.4,-193.89"/>
</a>
</g>
</g>
<!-- Node30&#45;&gt;Node29 -->
<g id="edge45_Node000030_Node000029" class="edge">
<title>Node30&#45;&gt;Node29</title>
<g id="a_edge45_Node000030_Node000029"><a xlink:title=" ">
<path fill="none" stroke="#63b8ff" d="M1580.68,-122.73C1575.63,-114.16 1570.13,-104.82 1565.71,-97.33"/>
<polygon fill="#63b8ff" stroke="#63b8ff" points="1577.64,-124.47 1585.73,-131.31 1583.67,-120.92 1577.64,-124.47"/>
</a>
</g>
</g>
<!-- Node33&#45;&gt;Node6 -->
<g id="edge50_Node000033_Node000006" class="edge">
<title>Node33&#45;&gt;Node6</title>
<g id="a_edge50_Node000033_Node000006"><a xlink:title=" ">
<path fill="none" stroke="#63b8ff" d="M424.88,-260.16C442.55,-250.5 463.33,-239.14 479.45,-230.33"/>
<polygon fill="#63b8ff" stroke="#63b8ff" points="423.33,-257.02 416.23,-264.89 426.68,-263.16 423.33,-257.02"/>
</a>
</g>
</g>
<!-- Node33&#45;&gt;Node7 -->
<g id="edge52_Node000033_Node000007" class="edge">
<title>Node33&#45;&gt;Node7</title>
<g id="a_edge52_Node000033_Node000007"><a xlink:title=" ">
<path fill="none" stroke="#63b8ff" d="M401.87,-255.67C412.24,-238.57 427.65,-215.97 445.12,-199.5 460.3,-185.2 480.16,-172.8 496.42,-163.9"/>
<polygon fill="#63b8ff" stroke="#63b8ff" points="398.91,-253.8 396.85,-264.2 404.94,-257.35 398.91,-253.8"/>
</a>
</g>
</g>
<!-- Node33&#45;&gt;Node19 -->
<g id="edge51_Node000033_Node000019" class="edge">
<title>Node33&#45;&gt;Node19</title>
<g id="a_edge51_Node000033_Node000019"><a xlink:title=" ">
<path fill="none" stroke="#63b8ff" d="M451.05,-270.08C529.51,-257.39 662.17,-235.95 735.15,-224.15"/>
<polygon fill="#63b8ff" stroke="#63b8ff" points="450.69,-266.59 441.37,-271.64 451.8,-273.5 450.69,-266.59"/>
</a>
</g>
</g>
<!-- Node34 -->
<g id="Node000034" class="node">
<title>Node34</title>
<g id="a_Node000034"><a xlink:href="shared__contract_8hpp.html" target="_top" xlink:title=" ">
<polygon fill="white" stroke="#666666" points="245.5,-230 138.75,-230 138.75,-199.5 245.5,-199.5 245.5,-230"/>
<text text-anchor="start" x="146.75" y="-216.5" font-family="Helvetica,sans-Serif" font-size="10.00">include/yaclib/async</text>
<text text-anchor="middle" x="192.12" y="-205.25" font-family="Helvetica,sans-Serif" font-size="10.00">/shared_contract.hpp</text>
</a>
</g>
</g>
<!-- Node33&#45;&gt;Node34 -->
<g id="edge53_Node000033_Node000034" class="edge">
<title>Node33&#45;&gt;Node34</title>
<g id="a_edge53_Node000033_Node000034"><a xlink:title=" ">
<path fill="none" stroke="#63b8ff" d="M332.8,-262.04C302.43,-252.05 265.26,-239.82 236.76,-230.44"/>
<polygon fill="#63b8ff" stroke="#63b8ff" points="331.62,-265.34 342.21,-265.14 333.81,-258.69 331.62,-265.34"/>
</a>
</g>
</g>
<!-- Node35 -->
<g id="Node000035" class="node">
<title>Node35</title>
<g id="a_Node000035"><a xlink:href="coro_2shared__future_8hpp.html" target="_top" xlink:title=" ">
<polygon fill="white" stroke="#666666" points="360.25,-230 264,-230 264,-199.5 360.25,-199.5 360.25,-230"/>
<text text-anchor="start" x="272" y="-216.5" font-family="Helvetica,sans-Serif" font-size="10.00">include/yaclib/coro</text>
<text text-anchor="middle" x="312.12" y="-205.25" font-family="Helvetica,sans-Serif" font-size="10.00">/shared_future.hpp</text>
</a>
</g>
</g>
<!-- Node33&#45;&gt;Node35 -->
<g id="edge55_Node000033_Node000035" class="edge">
<title>Node33&#45;&gt;Node35</title>
<g id="a_edge55_Node000033_Node000035"><a xlink:title=" ">
<path fill="none" stroke="#63b8ff" d="M362.19,-258.24C351.33,-249.03 339.01,-238.56 329.3,-230.33"/>
<polygon fill="#63b8ff" stroke="#63b8ff" points="359.84,-260.83 369.73,-264.63 364.37,-255.5 359.84,-260.83"/>
</a>
</g>
</g>
<!-- Node36 -->
<g id="Node000036" class="node">
<title>Node36</title>
<g id="a_Node000036"><a xlink:href="shared__future__impl_8cpp.html" target="_top" xlink:title=" ">
<polygon fill="white" stroke="#666666" points="120.25,-230 0,-230 0,-199.5 120.25,-199.5 120.25,-230"/>
<text text-anchor="start" x="8" y="-216.5" font-family="Helvetica,sans-Serif" font-size="10.00">src/async/shared_future</text>
<text text-anchor="middle" x="60.12" y="-205.25" font-family="Helvetica,sans-Serif" font-size="10.00">_impl.cpp</text>
</a>
</g>
</g>
<!-- Node33&#45;&gt;Node36 -->
<g id="edge56_Node000033_Node000036" class="edge">
<title>Node33&#45;&gt;Node36</title>
<g id="a_edge56_Node000033_Node000036"><a xlink:title=" ">
<path fill="none" stroke="#63b8ff" d="M325.11,-268.13C272.85,-258.04 196.63,-243.25 130.12,-230 126.96,-229.37 123.72,-228.72 120.45,-228.06"/>
<polygon fill="#63b8ff" stroke="#63b8ff" points="324.24,-271.53 334.73,-269.99 325.57,-264.66 324.24,-271.53"/>
</a>
</g>
</g>
<!-- Node34&#45;&gt;Node8 -->
<g id="edge54_Node000034_Node000008" class="edge">
<title>Node34&#45;&gt;Node8</title>
<g id="a_edge54_Node000034_Node000008"><a xlink:title=" ">
<path fill="none" stroke="#63b8ff" d="M251.65,-195.72C284.81,-185.68 325.56,-173.34 356.73,-163.9"/>
<polygon fill="#63b8ff" stroke="#63b8ff" points="250.73,-192.35 242.17,-198.59 252.76,-199.05 250.73,-192.35"/>
</a>
</g>
</g>
</g>
</svg>
