<?xml version="1.0" encoding="UTF-8" standalone="no"?>
<!DOCTYPE svg PUBLIC "-//W3C//DTD SVG 1.1//EN"
 "http://www.w3.org/Graphics/SVG/1.1/DTD/svg11.dtd">
<!-- Generated by graphviz version 9.0.0 (20230911.1827)
 -->
<!-- Title: src/async/wait_impl.cpp Pages: 1 -->
<svg width="1430pt" height="537pt"
 viewBox="0.00 0.00 1430.38 536.75" xmlns="http://www.w3.org/2000/svg" xmlns:xlink="http://www.w3.org/1999/xlink">
<g id="graph0" class="graph" transform="scale(1 1) rotate(0) translate(4 532.75)">
<title>src/async/wait_impl.cpp</title>
<!-- Node1 -->
<g id="Node000001" class="node">
<title>Node1</title>
<g id="a_Node000001"><a xlink:title=" ">
<polygon fill="#999999" stroke="#666666" points="995.5,-528.75 875.25,-528.75 875.25,-509.5 995.5,-509.5 995.5,-528.75"/>
<text text-anchor="middle" x="935.38" y="-515.25" font-family="Helvetica,sans-Serif" font-size="10.00">src/async/wait_impl.cpp</text>
</a>
</g>
</g>
<!-- Node2 -->
<g id="Node000002" class="node">
<title>Node2</title>
<g id="a_Node000002"><a xlink:href="wait__impl_8hpp.html" target="_top" xlink:title=" ">
<polygon fill="white" stroke="#666666" points="983.12,-473.5 887.62,-473.5 887.62,-443 983.12,-443 983.12,-473.5"/>
<text text-anchor="start" x="895.62" y="-460" font-family="Helvetica,sans-Serif" font-size="10.00">yaclib/async/detail</text>
<text text-anchor="middle" x="935.38" y="-448.75" font-family="Helvetica,sans-Serif" font-size="10.00">/wait_impl.hpp</text>
</a>
</g>
</g>
<!-- Node1&#45;&gt;Node2 -->
<g id="edge1_Node000001_Node000002" class="edge">
<title>Node1&#45;&gt;Node2</title>
<g id="a_edge1_Node000001_Node000002"><a xlink:title=" ">
<path fill="none" stroke="#63b8ff" d="M935.38,-509.18C935.38,-502.73 935.38,-493.66 935.38,-485.01"/>
<polygon fill="#63b8ff" stroke="#63b8ff" points="938.88,-485.3 935.38,-475.3 931.88,-485.3 938.88,-485.3"/>
</a>
</g>
</g>
<!-- Node3 -->
<g id="Node000003" class="node">
<title>Node3</title>
<g id="a_Node000003"><a xlink:href="base__core_8hpp.html" target="_top" xlink:title=" ">
<polygon fill="white" stroke="#666666" points="657.38,-407 569.38,-407 569.38,-376.5 657.38,-376.5 657.38,-407"/>
<text text-anchor="start" x="577.38" y="-393.5" font-family="Helvetica,sans-Serif" font-size="10.00">yaclib/algo/detail</text>
<text text-anchor="middle" x="613.38" y="-382.25" font-family="Helvetica,sans-Serif" font-size="10.00">/base_core.hpp</text>
</a>
</g>
</g>
<!-- Node2&#45;&gt;Node3 -->
<g id="edge2_Node000002_Node000003" class="edge">
<title>Node2&#45;&gt;Node3</title>
<g id="a_edge2_Node000002_Node000003"><a xlink:title=" ">
<path fill="none" stroke="#63b8ff" d="M887.17,-447.59C828.7,-435.88 730.35,-416.18 668.8,-403.85"/>
<polygon fill="#63b8ff" stroke="#63b8ff" points="669.74,-400.47 659.24,-401.94 668.36,-407.33 669.74,-400.47"/>
</a>
</g>
</g>
<!-- Node12 -->
<g id="Node000012" class="node">
<title>Node12</title>
<g id="a_Node000012"><a xlink:title=" ">
<polygon fill="#e0e0e0" stroke="#999999" points="906.5,-19.25 858.25,-19.25 858.25,0 906.5,0 906.5,-19.25"/>
<text text-anchor="middle" x="882.38" y="-5.75" font-family="Helvetica,sans-Serif" font-size="10.00">cstddef</text>
</a>
</g>
</g>
<!-- Node2&#45;&gt;Node12 -->
<g id="edge57_Node000002_Node000012" class="edge">
<title>Node2&#45;&gt;Node12</title>
<g id="a_edge57_Node000002_Node000012"><a xlink:title=" ">
<path fill="none" stroke="#63b8ff" d="M983.56,-452.27C1092.5,-439.68 1348.38,-402.04 1348.38,-326.25 1348.38,-326.25 1348.38,-326.25 1348.38,-124.75 1348.38,-36.24 1027.19,-16.03 918.12,-11.72"/>
<polygon fill="#63b8ff" stroke="#63b8ff" points="918.41,-8.23 908.29,-11.36 918.15,-15.23 918.41,-8.23"/>
</a>
</g>
</g>
<!-- Node13 -->
<g id="Node000013" class="node">
<title>Node13</title>
<g id="a_Node000013"><a xlink:title=" ">
<polygon fill="#e0e0e0" stroke="#999999" points="971.88,-74.5 910.88,-74.5 910.88,-55.25 971.88,-55.25 971.88,-74.5"/>
<text text-anchor="middle" x="941.38" y="-61" font-family="Helvetica,sans-Serif" font-size="10.00">type_traits</text>
</a>
</g>
</g>
<!-- Node2&#45;&gt;Node13 -->
<g id="edge59_Node000002_Node000013" class="edge">
<title>Node2&#45;&gt;Node13</title>
<g id="a_edge59_Node000002_Node000013"><a xlink:title=" ">
<path fill="none" stroke="#63b8ff" d="M983.52,-450.55C1010.08,-444.12 1040.93,-431.55 1057.38,-407 1126.21,-304.21 1027.89,-253.01 975.38,-141 966.47,-121.99 956.61,-100.11 949.81,-84.89"/>
<polygon fill="#63b8ff" stroke="#63b8ff" points="953.16,-83.8 945.89,-76.08 946.76,-86.64 953.16,-83.8"/>
</a>
</g>
</g>
<!-- Node22 -->
<g id="Node000022" class="node">
<title>Node22</title>
<g id="a_Node000022"><a xlink:href="wait__event_8hpp.html" target="_top" xlink:title=" ">
<polygon fill="white" stroke="#666666" points="463.38,-407 375.38,-407 375.38,-376.5 463.38,-376.5 463.38,-407"/>
<text text-anchor="start" x="383.38" y="-393.5" font-family="Helvetica,sans-Serif" font-size="10.00">yaclib/algo/detail</text>
<text text-anchor="middle" x="419.38" y="-382.25" font-family="Helvetica,sans-Serif" font-size="10.00">/wait_event.hpp</text>
</a>
</g>
</g>
<!-- Node2&#45;&gt;Node22 -->
<g id="edge27_Node000002_Node000022" class="edge">
<title>Node2&#45;&gt;Node22</title>
<g id="a_edge27_Node000002_Node000022"><a xlink:title=" ">
<path fill="none" stroke="#63b8ff" d="M887.29,-451.24C791.41,-439.25 576.92,-412.44 475.09,-399.71"/>
<polygon fill="#63b8ff" stroke="#63b8ff" points="475.69,-396.26 465.33,-398.49 474.82,-403.21 475.69,-396.26"/>
</a>
</g>
</g>
<!-- Node25 -->
<g id="Node000025" class="node">
<title>Node25</title>
<g id="a_Node000025"><a xlink:href="set__deleter_8hpp.html" target="_top" xlink:title=" ">
<polygon fill="white" stroke="#666666" points="269.88,-340.5 184.88,-340.5 184.88,-310 269.88,-310 269.88,-340.5"/>
<text text-anchor="start" x="192.88" y="-327" font-family="Helvetica,sans-Serif" font-size="10.00">yaclib/util/detail</text>
<text text-anchor="middle" x="227.38" y="-315.75" font-family="Helvetica,sans-Serif" font-size="10.00">/set_deleter.hpp</text>
</a>
</g>
</g>
<!-- Node2&#45;&gt;Node25 -->
<g id="edge46_Node000002_Node000025" class="edge">
<title>Node2&#45;&gt;Node25</title>
<g id="a_edge46_Node000002_Node000025"><a xlink:title=" ">
<path fill="none" stroke="#63b8ff" d="M887.29,-455.69C768.36,-451.4 463.03,-437.66 366.38,-407 324.91,-393.85 282.41,-366.78 255.51,-347.61"/>
<polygon fill="#63b8ff" stroke="#63b8ff" points="257.71,-344.88 247.56,-341.84 253.59,-350.55 257.71,-344.88"/>
</a>
</g>
</g>
<!-- Node26 -->
<g id="Node000026" class="node">
<title>Node26</title>
<g id="a_Node000026"><a xlink:href="atomic__counter_8hpp.html" target="_top" xlink:title=" ">
<polygon fill="white" stroke="#666666" points="927.25,-407 823.5,-407 823.5,-376.5 927.25,-376.5 927.25,-407"/>
<text text-anchor="start" x="831.5" y="-393.5" font-family="Helvetica,sans-Serif" font-size="10.00">yaclib/util/detail</text>
<text text-anchor="middle" x="875.38" y="-382.25" font-family="Helvetica,sans-Serif" font-size="10.00">/atomic_counter.hpp</text>
</a>
</g>
</g>
<!-- Node2&#45;&gt;Node26 -->
<g id="edge33_Node000002_Node000026" class="edge">
<title>Node2&#45;&gt;Node26</title>
<g id="a_edge33_Node000002_Node000026"><a xlink:title=" ">
<path fill="none" stroke="#63b8ff" d="M921.76,-442.61C914.32,-434.61 904.94,-424.53 896.56,-415.53"/>
<polygon fill="#63b8ff" stroke="#63b8ff" points="899.34,-413.37 889.97,-408.44 894.22,-418.14 899.34,-413.37"/>
</a>
</g>
</g>
<!-- Node28 -->
<g id="Node000028" class="node">
<title>Node28</title>
<g id="a_Node000028"><a xlink:href="default__event_8hpp.html" target="_top" xlink:title=" ">
<polygon fill="white" stroke="#666666" points="167.12,-340.5 71.62,-340.5 71.62,-310 167.12,-310 167.12,-340.5"/>
<text text-anchor="start" x="79.62" y="-327" font-family="Helvetica,sans-Serif" font-size="10.00">yaclib/util/detail</text>
<text text-anchor="middle" x="119.38" y="-315.75" font-family="Helvetica,sans-Serif" font-size="10.00">/default_event.hpp</text>
</a>
</g>
</g>
<!-- Node2&#45;&gt;Node28 -->
<g id="edge39_Node000002_Node000028" class="edge">
<title>Node2&#45;&gt;Node28</title>
<g id="a_edge39_Node000002_Node000028"><a xlink:title=" ">
<path fill="none" stroke="#63b8ff" d="M887.53,-455.59C759.4,-450.8 410.71,-435.46 299.38,-407 246.52,-393.49 189.76,-365.53 154.41,-346.33"/>
<polygon fill="#63b8ff" stroke="#63b8ff" points="156.37,-343.42 145.92,-341.66 152.99,-349.55 156.37,-343.42"/>
</a>
</g>
</g>
<!-- Node33 -->
<g id="Node000033" class="node">
<title>Node33</title>
<g id="a_Node000033"><a xlink:href="unique__counter_8hpp.html" target="_top" xlink:title=" ">
<polygon fill="white" stroke="#666666" points="1047.88,-407 944.88,-407 944.88,-376.5 1047.88,-376.5 1047.88,-407"/>
<text text-anchor="start" x="952.88" y="-393.5" font-family="Helvetica,sans-Serif" font-size="10.00">yaclib/util/detail</text>
<text text-anchor="middle" x="996.38" y="-382.25" font-family="Helvetica,sans-Serif" font-size="10.00">/unique_counter.hpp</text>
</a>
</g>
</g>
<!-- Node2&#45;&gt;Node33 -->
<g id="edge47_Node000002_Node000033" class="edge">
<title>Node2&#45;&gt;Node33</title>
<g id="a_edge47_Node000002_Node000033"><a xlink:title=" ">
<path fill="none" stroke="#63b8ff" d="M949.22,-442.61C956.78,-434.61 966.32,-424.53 974.83,-415.53"/>
<polygon fill="#63b8ff" stroke="#63b8ff" points="977.22,-418.1 981.55,-408.43 972.13,-413.29 977.22,-418.1"/>
</a>
</g>
</g>
<!-- Node34 -->
<g id="Node000034" class="node">
<title>Node34</title>
<g id="a_Node000034"><a xlink:href="type__traits_8hpp.html" target="_top" xlink:title=" ">
<polygon fill="white" stroke="#666666" points="1197.62,-201.88 1075.12,-201.88 1075.12,-182.62 1197.62,-182.62 1197.62,-201.88"/>
<text text-anchor="middle" x="1136.38" y="-188.38" font-family="Helvetica,sans-Serif" font-size="10.00">yaclib/util/type_traits.hpp</text>
</a>
</g>
</g>
<!-- Node2&#45;&gt;Node34 -->
<g id="edge49_Node000002_Node000034" class="edge">
<title>Node2&#45;&gt;Node34</title>
<g id="a_edge49_Node000002_Node000034"><a xlink:title=" ">
<path fill="none" stroke="#63b8ff" d="M983.46,-454.07C1018.07,-449.18 1063.26,-437.02 1090.38,-407 1140.31,-351.72 1140.72,-255.6 1138.19,-213.72"/>
<polygon fill="#63b8ff" stroke="#63b8ff" points="1141.69,-213.59 1137.45,-203.87 1134.71,-214.11 1141.69,-213.59"/>
</a>
</g>
</g>
<!-- Node37 -->
<g id="Node000037" class="node">
<title>Node37</title>
<g id="a_Node000037"><a xlink:title=" ">
<polygon fill="#e0e0e0" stroke="#999999" points="1422.38,-401.38 1376.38,-401.38 1376.38,-382.12 1422.38,-382.12 1422.38,-401.38"/>
<text text-anchor="middle" x="1399.38" y="-387.88" font-family="Helvetica,sans-Serif" font-size="10.00">iterator</text>
</a>
</g>
</g>
<!-- Node2&#45;&gt;Node37 -->
<g id="edge58_Node000002_Node000037" class="edge">
<title>Node2&#45;&gt;Node37</title>
<g id="a_edge58_Node000002_Node000037"><a xlink:title=" ">
<path fill="none" stroke="#63b8ff" d="M983.46,-455.51C1063.26,-451.75 1227.6,-440.32 1362.38,-407 1364.13,-406.57 1365.91,-406.07 1367.7,-405.53"/>
<polygon fill="#63b8ff" stroke="#63b8ff" points="1368.78,-408.86 1377.1,-402.31 1366.51,-402.24 1368.78,-408.86"/>
</a>
</g>
</g>
<!-- Node4 -->
<g id="Node000004" class="node">
<title>Node4</title>
<g id="a_Node000004"><a xlink:href="inline__core_8hpp.html" target="_top" xlink:title=" ">
<polygon fill="white" stroke="#666666" points="490.38,-340.5 402.38,-340.5 402.38,-310 490.38,-310 490.38,-340.5"/>
<text text-anchor="start" x="410.38" y="-327" font-family="Helvetica,sans-Serif" font-size="10.00">yaclib/algo/detail</text>
<text text-anchor="middle" x="446.38" y="-315.75" font-family="Helvetica,sans-Serif" font-size="10.00">/inline_core.hpp</text>
</a>
</g>
</g>
<!-- Node3&#45;&gt;Node4 -->
<g id="edge3_Node000003_Node000004" class="edge">
<title>Node3&#45;&gt;Node4</title>
<g id="a_edge3_Node000003_Node000004"><a xlink:title=" ">
<path fill="none" stroke="#63b8ff" d="M575.48,-376.11C551.65,-366.91 520.67,-354.95 495.03,-345.04"/>
<polygon fill="#63b8ff" stroke="#63b8ff" points="496.41,-341.82 485.82,-341.48 493.89,-348.35 496.41,-341.82"/>
</a>
</g>
</g>
<!-- Node15 -->
<g id="Node000015" class="node">
<title>Node15</title>
<g id="a_Node000015"><a xlink:href="executor_8hpp.html" target="_top" xlink:title=" ">
<polygon fill="white" stroke="#666666" points="684.62,-268.38 568.12,-268.38 568.12,-249.12 684.62,-249.12 684.62,-268.38"/>
<text text-anchor="middle" x="626.38" y="-254.88" font-family="Helvetica,sans-Serif" font-size="10.00">yaclib/exe/executor.hpp</text>
</a>
</g>
</g>
<!-- Node3&#45;&gt;Node15 -->
<g id="edge15_Node000003_Node000015" class="edge">
<title>Node3&#45;&gt;Node15</title>
<g id="a_edge15_Node000003_Node000015"><a xlink:title=" ">
<path fill="none" stroke="#63b8ff" d="M605.72,-376.04C598.25,-359.75 588.91,-332.8 595.38,-310 598.67,-298.39 605.49,-286.84 611.89,-277.74"/>
<polygon fill="#63b8ff" stroke="#63b8ff" points="614.61,-279.94 617.83,-269.85 609.02,-275.73 614.61,-279.94"/>
</a>
</g>
</g>
<!-- Node18 -->
<g id="Node000018" class="node">
<title>Node18</title>
<g id="a_Node000018"><a xlink:href="inline_8hpp.html" target="_top" xlink:title=" ">
<polygon fill="white" stroke="#666666" points="854.5,-334.88 752.25,-334.88 752.25,-315.62 854.5,-315.62 854.5,-334.88"/>
<text text-anchor="middle" x="803.38" y="-321.38" font-family="Helvetica,sans-Serif" font-size="10.00">yaclib/exe/inline.hpp</text>
</a>
</g>
</g>
<!-- Node3&#45;&gt;Node18 -->
<g id="edge22_Node000003_Node000018" class="edge">
<title>Node3&#45;&gt;Node18</title>
<g id="a_edge22_Node000003_Node000018"><a xlink:title=" ">
<path fill="none" stroke="#63b8ff" d="M656.49,-376.11C689.49,-364.91 734.55,-349.61 766.03,-338.93"/>
<polygon fill="#63b8ff" stroke="#63b8ff" points="766.78,-342.37 775.12,-335.84 764.53,-335.74 766.78,-342.37"/>
</a>
</g>
</g>
<!-- Node20 -->
<g id="Node000020" class="node">
<title>Node20</title>
<g id="a_Node000020"><a xlink:title=" ">
<polygon fill="#e0e0e0" stroke="#999999" points="548,-334.88 508.75,-334.88 508.75,-315.62 548,-315.62 548,-334.88"/>
<text text-anchor="middle" x="528.38" y="-321.38" font-family="Helvetica,sans-Serif" font-size="10.00">limits</text>
</a>
</g>
</g>
<!-- Node3&#45;&gt;Node20 -->
<g id="edge25_Node000003_Node000020" class="edge">
<title>Node3&#45;&gt;Node20</title>
<g id="a_edge25_Node000003_Node000020"><a xlink:title=" ">
<path fill="none" stroke="#63b8ff" d="M594.09,-376.11C580.69,-365.94 562.84,-352.41 549.13,-342"/>
<polygon fill="#63b8ff" stroke="#63b8ff" points="551.29,-339.24 541.21,-335.99 547.06,-344.82 551.29,-339.24"/>
</a>
</g>
</g>
<!-- Node21 -->
<g id="Node000021" class="node">
<title>Node21</title>
<g id="a_Node000021"><a xlink:title=" ">
<polygon fill="#e0e0e0" stroke="#999999" points="696.25,-334.88 604.5,-334.88 604.5,-315.62 696.25,-315.62 696.25,-334.88"/>
<text text-anchor="middle" x="650.38" y="-321.38" font-family="Helvetica,sans-Serif" font-size="10.00">yaclib_std/atomic</text>
</a>
</g>
</g>
<!-- Node3&#45;&gt;Node21 -->
<g id="edge26_Node000003_Node000021" class="edge">
<title>Node3&#45;&gt;Node21</title>
<g id="a_edge26_Node000003_Node000021"><a xlink:title=" ">
<path fill="none" stroke="#63b8ff" d="M621.77,-376.11C627.09,-366.83 634.03,-354.75 639.74,-344.8"/>
<polygon fill="#63b8ff" stroke="#63b8ff" points="642.62,-346.8 644.56,-336.39 636.55,-343.32 642.62,-346.8"/>
</a>
</g>
</g>
<!-- Node5 -->
<g id="Node000005" class="node">
<title>Node5</title>
<g id="a_Node000005"><a xlink:title=" ">
<polygon fill="#e0e0e0" stroke="#999999" points="452,-268.38 364.75,-268.38 364.75,-249.12 452,-249.12 452,-268.38"/>
<text text-anchor="middle" x="408.38" y="-254.88" font-family="Helvetica,sans-Serif" font-size="10.00">yaclib/config.hpp</text>
</a>
</g>
</g>
<!-- Node4&#45;&gt;Node5 -->
<g id="edge4_Node000004_Node000005" class="edge">
<title>Node4&#45;&gt;Node5</title>
<g id="a_edge4_Node000004_Node000005"><a xlink:title=" ">
<path fill="none" stroke="#63b8ff" d="M437.75,-309.61C432.28,-300.33 425.16,-288.25 419.3,-278.3"/>
<polygon fill="#63b8ff" stroke="#63b8ff" points="422.43,-276.72 414.34,-269.88 416.4,-280.27 422.43,-276.72"/>
</a>
</g>
</g>
<!-- Node6 -->
<g id="Node000006" class="node">
<title>Node6</title>
<g id="a_Node000006"><a xlink:href="job_8hpp.html" target="_top" xlink:title=" ">
<polygon fill="white" stroke="#666666" points="564.62,-201.88 472.12,-201.88 472.12,-182.62 564.62,-182.62 564.62,-201.88"/>
<text text-anchor="middle" x="518.38" y="-188.38" font-family="Helvetica,sans-Serif" font-size="10.00">yaclib/exe/job.hpp</text>
</a>
</g>
</g>
<!-- Node4&#45;&gt;Node6 -->
<g id="edge5_Node000004_Node000006" class="edge">
<title>Node4&#45;&gt;Node6</title>
<g id="a_edge5_Node000004_Node000006"><a xlink:title=" ">
<path fill="none" stroke="#63b8ff" d="M464.09,-309.57C474.25,-300.31 486.5,-287.57 494.38,-274 505.48,-254.86 511.84,-230.14 515.19,-213.12"/>
<polygon fill="#63b8ff" stroke="#63b8ff" points="518.54,-214.23 516.85,-203.77 511.65,-213 518.54,-214.23"/>
</a>
</g>
</g>
<!-- Node7 -->
<g id="Node000007" class="node">
<title>Node7</title>
<g id="a_Node000007"><a xlink:href="log_8hpp.html" target="_top" xlink:title=" ">
<polygon fill="white" stroke="#666666" points="459.62,-74.5 385.12,-74.5 385.12,-55.25 459.62,-55.25 459.62,-74.5"/>
<text text-anchor="middle" x="422.38" y="-61" font-family="Helvetica,sans-Serif" font-size="10.00">yaclib/log.hpp</text>
</a>
</g>
</g>
<!-- Node4&#45;&gt;Node7 -->
<g id="edge14_Node000004_Node000007" class="edge">
<title>Node4&#45;&gt;Node7</title>
<g id="a_edge14_Node000004_Node000007"><a xlink:title=" ">
<path fill="none" stroke="#63b8ff" d="M451.99,-309.55C455.46,-299.67 459.59,-286.25 461.38,-274 470.23,-213.4 436.87,-201.15 425.38,-141 421.85,-122.57 421.34,-101.15 421.57,-85.91"/>
<polygon fill="#63b8ff" stroke="#63b8ff" points="425.06,-86.37 421.84,-76.27 418.06,-86.17 425.06,-86.37"/>
</a>
</g>
</g>
<!-- Node6&#45;&gt;Node7 -->
<g id="edge6_Node000006_Node000007" class="edge">
<title>Node6&#45;&gt;Node7</title>
<g id="a_edge6_Node000006_Node000007"><a xlink:title=" ">
<path fill="none" stroke="#63b8ff" d="M496.16,-182.23C478.7,-174.02 455.1,-160.23 441.38,-141 429.78,-124.76 425.24,-102.11 423.48,-85.94"/>
<polygon fill="#63b8ff" stroke="#63b8ff" points="426.98,-85.8 422.69,-76.11 420,-86.36 426.98,-85.8"/>
</a>
</g>
</g>
<!-- Node9 -->
<g id="Node000009" class="node">
<title>Node9</title>
<g id="a_Node000009"><a xlink:href="node_8hpp.html" target="_top" xlink:title=" ">
<polygon fill="white" stroke="#666666" points="532.75,-141 450,-141 450,-110.5 532.75,-110.5 532.75,-141"/>
<text text-anchor="start" x="458" y="-127.5" font-family="Helvetica,sans-Serif" font-size="10.00">yaclib/util/detail</text>
<text text-anchor="middle" x="491.38" y="-116.25" font-family="Helvetica,sans-Serif" font-size="10.00">/node.hpp</text>
</a>
</g>
</g>
<!-- Node6&#45;&gt;Node9 -->
<g id="edge8_Node000006_Node000009" class="edge">
<title>Node6&#45;&gt;Node9</title>
<g id="a_edge8_Node000006_Node000009"><a xlink:title=" ">
<path fill="none" stroke="#63b8ff" d="M514.62,-182.28C511.31,-174.37 506.32,-162.45 501.81,-151.68"/>
<polygon fill="#63b8ff" stroke="#63b8ff" points="505.05,-150.36 497.96,-142.49 498.6,-153.07 505.05,-150.36"/>
</a>
</g>
</g>
<!-- Node10 -->
<g id="Node000010" class="node">
<title>Node10</title>
<g id="a_Node000010"><a xlink:href="func_8hpp.html" target="_top" xlink:title=" ">
<polygon fill="white" stroke="#666666" points="816.5,-135.38 720.25,-135.38 720.25,-116.12 816.5,-116.12 816.5,-135.38"/>
<text text-anchor="middle" x="768.38" y="-121.88" font-family="Helvetica,sans-Serif" font-size="10.00">yaclib/util/func.hpp</text>
</a>
</g>
</g>
<!-- Node6&#45;&gt;Node10 -->
<g id="edge9_Node000006_Node000010" class="edge">
<title>Node6&#45;&gt;Node10</title>
<g id="a_edge9_Node000006_Node000010"><a xlink:title=" ">
<path fill="none" stroke="#63b8ff" d="M553.66,-182.15C597.87,-170.74 673.71,-151.17 722.41,-138.61"/>
<polygon fill="#63b8ff" stroke="#63b8ff" points="722.99,-142.07 731.8,-136.19 721.24,-135.3 722.99,-142.07"/>
</a>
</g>
</g>
<!-- Node8 -->
<g id="Node000008" class="node">
<title>Node8</title>
<g id="a_Node000008"><a xlink:title=" ">
<polygon fill="#e0e0e0" stroke="#999999" points="455.12,-19.25 389.62,-19.25 389.62,0 455.12,0 455.12,-19.25"/>
<text text-anchor="middle" x="422.38" y="-5.75" font-family="Helvetica,sans-Serif" font-size="10.00">string_view</text>
</a>
</g>
</g>
<!-- Node7&#45;&gt;Node8 -->
<g id="edge7_Node000007_Node000008" class="edge">
<title>Node7&#45;&gt;Node8</title>
<g id="a_edge7_Node000007_Node000008"><a xlink:title=" ">
<path fill="none" stroke="#63b8ff" d="M422.38,-55.08C422.38,-48.57 422.38,-39.42 422.38,-31.12"/>
<polygon fill="#63b8ff" stroke="#63b8ff" points="425.88,-31.12 422.38,-21.12 418.88,-31.12 425.88,-31.12"/>
</a>
</g>
</g>
<!-- Node11 -->
<g id="Node000011" class="node">
<title>Node11</title>
<g id="a_Node000011"><a xlink:href="ref_8hpp.html" target="_top" xlink:title=" ">
<polygon fill="white" stroke="#666666" points="774.75,-74.5 686,-74.5 686,-55.25 774.75,-55.25 774.75,-74.5"/>
<text text-anchor="middle" x="730.38" y="-61" font-family="Helvetica,sans-Serif" font-size="10.00">yaclib/util/ref.hpp</text>
</a>
</g>
</g>
<!-- Node10&#45;&gt;Node11 -->
<g id="edge10_Node000010_Node000011" class="edge">
<title>Node10&#45;&gt;Node11</title>
<g id="a_edge10_Node000010_Node000011"><a xlink:title=" ">
<path fill="none" stroke="#63b8ff" d="M762.6,-115.81C757.25,-107.51 749.11,-94.89 742.35,-84.42"/>
<polygon fill="#63b8ff" stroke="#63b8ff" points="745.39,-82.68 737.02,-76.17 739.5,-86.47 745.39,-82.68"/>
</a>
</g>
</g>
<!-- Node10&#45;&gt;Node13 -->
<g id="edge12_Node000010_Node000013" class="edge">
<title>Node10&#45;&gt;Node13</title>
<g id="a_edge12_Node000010_Node000013"><a xlink:title=" ">
<path fill="none" stroke="#63b8ff" d="M795.03,-115.68C824.24,-105.74 871.3,-89.72 904.15,-78.54"/>
<polygon fill="#63b8ff" stroke="#63b8ff" points="904.92,-81.98 913.26,-75.44 902.67,-75.35 904.92,-81.98"/>
</a>
</g>
</g>
<!-- Node14 -->
<g id="Node000014" class="node">
<title>Node14</title>
<g id="a_Node000014"><a xlink:title=" ">
<polygon fill="#e0e0e0" stroke="#999999" points="1028.62,-74.5 990.12,-74.5 990.12,-55.25 1028.62,-55.25 1028.62,-74.5"/>
<text text-anchor="middle" x="1009.38" y="-61" font-family="Helvetica,sans-Serif" font-size="10.00">utility</text>
</a>
</g>
</g>
<!-- Node10&#45;&gt;Node14 -->
<g id="edge13_Node000010_Node000014" class="edge">
<title>Node10&#45;&gt;Node14</title>
<g id="a_edge13_Node000010_Node000014"><a xlink:title=" ">
<path fill="none" stroke="#63b8ff" d="M810.62,-115.66C851.39,-106.7 915.08,-92.18 978.79,-75.07"/>
<polygon fill="#63b8ff" stroke="#63b8ff" points="979.64,-78.47 988.38,-72.47 977.81,-71.71 979.64,-78.47"/>
</a>
</g>
</g>
<!-- Node11&#45;&gt;Node12 -->
<g id="edge11_Node000011_Node000012" class="edge">
<title>Node11&#45;&gt;Node12</title>
<g id="a_edge11_Node000011_Node000012"><a xlink:title=" ">
<path fill="none" stroke="#63b8ff" d="M756.16,-54.84C781.17,-46.08 819.32,-32.71 847.13,-22.97"/>
<polygon fill="#63b8ff" stroke="#63b8ff" points="848.27,-26.28 856.55,-19.67 845.95,-19.68 848.27,-26.28"/>
</a>
</g>
</g>
<!-- Node15&#45;&gt;Node6 -->
<g id="edge16_Node000015_Node000006" class="edge">
<title>Node15&#45;&gt;Node6</title>
<g id="a_edge16_Node000015_Node000006"><a xlink:title=" ">
<path fill="none" stroke="#63b8ff" d="M611.36,-248.78C593.81,-238.3 564.49,-220.79 543.46,-208.23"/>
<polygon fill="#63b8ff" stroke="#63b8ff" points="545.29,-205.25 534.91,-203.13 541.7,-211.26 545.29,-205.25"/>
</a>
</g>
</g>
<!-- Node16 -->
<g id="Node000016" class="node">
<title>Node16</title>
<g id="a_Node000016"><a xlink:href="intrusive__ptr_8hpp.html" target="_top" xlink:title=" ">
<polygon fill="white" stroke="#666666" points="718.5,-207.5 622.25,-207.5 622.25,-177 718.5,-177 718.5,-207.5"/>
<text text-anchor="start" x="630.25" y="-194" font-family="Helvetica,sans-Serif" font-size="10.00">yaclib/util/intrusive</text>
<text text-anchor="middle" x="670.38" y="-182.75" font-family="Helvetica,sans-Serif" font-size="10.00">_ptr.hpp</text>
</a>
</g>
</g>
<!-- Node15&#45;&gt;Node16 -->
<g id="edge17_Node000015_Node000016" class="edge">
<title>Node15&#45;&gt;Node16</title>
<g id="a_edge17_Node000015_Node000016"><a xlink:title=" ">
<path fill="none" stroke="#63b8ff" d="M632.49,-248.78C638.12,-240.54 646.71,-227.94 654.29,-216.83"/>
<polygon fill="#63b8ff" stroke="#63b8ff" points="656.99,-219.08 659.74,-208.84 651.21,-215.13 656.99,-219.08"/>
</a>
</g>
</g>
<!-- Node16&#45;&gt;Node11 -->
<g id="edge18_Node000016_Node000011" class="edge">
<title>Node16&#45;&gt;Node11</title>
<g id="a_edge18_Node000016_Node000011"><a xlink:title=" ">
<path fill="none" stroke="#63b8ff" d="M677.26,-176.87C688.1,-154.22 709.15,-110.24 721.24,-84.97"/>
<polygon fill="#63b8ff" stroke="#63b8ff" points="724.28,-86.72 725.44,-76.18 717.97,-83.69 724.28,-86.72"/>
</a>
</g>
</g>
<!-- Node16&#45;&gt;Node13 -->
<g id="edge19_Node000016_Node000013" class="edge">
<title>Node16&#45;&gt;Node13</title>
<g id="a_edge19_Node000016_Node000013"><a xlink:title=" ">
<path fill="none" stroke="#63b8ff" d="M718.76,-179.08C749.98,-170.39 791.02,-157.35 825.38,-141 860.86,-124.12 898.41,-98.09 920.87,-81.53"/>
<polygon fill="#63b8ff" stroke="#63b8ff" points="922.67,-84.56 928.58,-75.76 918.47,-78.95 922.67,-84.56"/>
</a>
</g>
</g>
<!-- Node17 -->
<g id="Node000017" class="node">
<title>Node17</title>
<g id="a_Node000017"><a xlink:href="intrusive__ptr__impl_8hpp.html" target="_top" xlink:title=" ">
<polygon fill="white" stroke="#666666" points="664.12,-141 550.62,-141 550.62,-110.5 664.12,-110.5 664.12,-141"/>
<text text-anchor="start" x="558.62" y="-127.5" font-family="Helvetica,sans-Serif" font-size="10.00">yaclib/util/detail</text>
<text text-anchor="middle" x="607.38" y="-116.25" font-family="Helvetica,sans-Serif" font-size="10.00">/intrusive_ptr_impl.hpp</text>
</a>
</g>
</g>
<!-- Node16&#45;&gt;Node17 -->
<g id="edge20_Node000016_Node000017" class="edge">
<title>Node16&#45;&gt;Node17</title>
<g id="a_edge20_Node000016_Node000017"><a xlink:title=" ">
<path fill="none" stroke="#63b8ff" d="M656.08,-176.61C648.27,-168.61 638.42,-158.53 629.62,-149.53"/>
<polygon fill="#63b8ff" stroke="#63b8ff" points="632.16,-147.12 622.67,-142.41 627.16,-152.01 632.16,-147.12"/>
</a>
</g>
</g>
<!-- Node17&#45;&gt;Node7 -->
<g id="edge21_Node000017_Node000007" class="edge">
<title>Node17&#45;&gt;Node7</title>
<g id="a_edge21_Node000017_Node000007"><a xlink:title=" ">
<path fill="none" stroke="#63b8ff" d="M561.17,-110.05C530.52,-100.29 490.73,-87.63 461.61,-78.36"/>
<polygon fill="#63b8ff" stroke="#63b8ff" points="463.05,-75.15 452.46,-75.45 460.93,-81.82 463.05,-75.15"/>
</a>
</g>
</g>
<!-- Node18&#45;&gt;Node15 -->
<g id="edge23_Node000018_Node000015" class="edge">
<title>Node18&#45;&gt;Node15</title>
<g id="a_edge23_Node000018_Node000015"><a xlink:title=" ">
<path fill="none" stroke="#63b8ff" d="M778.39,-315.15C747.95,-304.05 696.32,-285.24 661.79,-272.66"/>
<polygon fill="#63b8ff" stroke="#63b8ff" points="663.25,-269.46 652.65,-269.33 660.85,-276.04 663.25,-269.46"/>
</a>
</g>
</g>
<!-- Node19 -->
<g id="Node000019" class="node">
<title>Node19</title>
<g id="a_Node000019"><a xlink:href="fwd_8hpp.html" target="_top" xlink:title=" ">
<polygon fill="white" stroke="#666666" points="1235.12,-74.5 1157.62,-74.5 1157.62,-55.25 1235.12,-55.25 1235.12,-74.5"/>
<text text-anchor="middle" x="1196.38" y="-61" font-family="Helvetica,sans-Serif" font-size="10.00">yaclib/fwd.hpp</text>
</a>
</g>
</g>
<!-- Node18&#45;&gt;Node19 -->
<g id="edge24_Node000018_Node000019" class="edge">
<title>Node18&#45;&gt;Node19</title>
<g id="a_edge24_Node000018_Node000019"><a xlink:title=" ">
<path fill="none" stroke="#63b8ff" d="M849.34,-315.17C962.96,-291.57 1250.79,-224.28 1291.38,-141 1297.31,-128.81 1298.64,-121.94 1291.38,-110.5 1281.18,-94.45 1263.52,-84.07 1246.16,-77.4"/>
<polygon fill="#63b8ff" stroke="#63b8ff" points="1247.49,-74.16 1236.9,-74.21 1245.21,-80.78 1247.49,-74.16"/>
</a>
</g>
</g>
<!-- Node22&#45;&gt;Node4 -->
<g id="edge28_Node000022_Node000004" class="edge">
<title>Node22&#45;&gt;Node4</title>
<g id="a_edge28_Node000022_Node000004"><a xlink:title=" ">
<path fill="none" stroke="#63b8ff" d="M425.5,-376.11C428.57,-368.77 432.38,-359.68 435.9,-351.27"/>
<polygon fill="#63b8ff" stroke="#63b8ff" points="439.06,-352.8 439.69,-342.22 432.6,-350.1 439.06,-352.8"/>
</a>
</g>
</g>
<!-- Node23 -->
<g id="Node000023" class="node">
<title>Node23</title>
<g id="a_Node000023"><a xlink:href="cast_8hpp.html" target="_top" xlink:title=" ">
<polygon fill="white" stroke="#666666" points="384.5,-334.88 288.25,-334.88 288.25,-315.62 384.5,-315.62 384.5,-334.88"/>
<text text-anchor="middle" x="336.38" y="-321.38" font-family="Helvetica,sans-Serif" font-size="10.00">yaclib/util/cast.hpp</text>
</a>
</g>
</g>
<!-- Node22&#45;&gt;Node23 -->
<g id="edge29_Node000022_Node000023" class="edge">
<title>Node22&#45;&gt;Node23</title>
<g id="a_edge29_Node000022_Node000023"><a xlink:title=" ">
<path fill="none" stroke="#63b8ff" d="M400.54,-376.11C387.46,-365.94 370.03,-352.41 356.64,-342"/>
<polygon fill="#63b8ff" stroke="#63b8ff" points="358.97,-339.37 348.92,-336 354.67,-344.9 358.97,-339.37"/>
</a>
</g>
</g>
<!-- Node22&#45;&gt;Node25 -->
<g id="edge32_Node000022_Node000025" class="edge">
<title>Node22&#45;&gt;Node25</title>
<g id="a_edge32_Node000022_Node000025"><a xlink:title=" ">
<path fill="none" stroke="#63b8ff" d="M375.81,-376.11C347.62,-366.65 310.75,-354.26 280.8,-344.2"/>
<polygon fill="#63b8ff" stroke="#63b8ff" points="282.14,-340.95 271.54,-341.09 279.91,-347.59 282.14,-340.95"/>
</a>
</g>
</g>
<!-- Node23&#45;&gt;Node13 -->
<g id="edge31_Node000023_Node000013" class="edge">
<title>Node23&#45;&gt;Node13</title>
<g id="a_edge31_Node000023_Node000013"><a xlink:title=" ">
<path fill="none" stroke="#63b8ff" d="M337.4,-315.55C341.93,-281.58 363.5,-157.49 441.38,-110.5 460.88,-98.73 782.01,-76.42 899.09,-68.64"/>
<polygon fill="#63b8ff" stroke="#63b8ff" points="899.16,-72.14 908.9,-67.99 898.69,-65.16 899.16,-72.14"/>
</a>
</g>
</g>
<!-- Node24 -->
<g id="Node000024" class="node">
<title>Node24</title>
<g id="a_Node000024"><a xlink:title=" ">
<polygon fill="#e0e0e0" stroke="#999999" points="308.62,-268.38 258.12,-268.38 258.12,-249.12 308.62,-249.12 308.62,-268.38"/>
<text text-anchor="middle" x="283.38" y="-254.88" font-family="Helvetica,sans-Serif" font-size="10.00">memory</text>
</a>
</g>
</g>
<!-- Node23&#45;&gt;Node24 -->
<g id="edge30_Node000023_Node000024" class="edge">
<title>Node23&#45;&gt;Node24</title>
<g id="a_edge30_Node000023_Node000024"><a xlink:title=" ">
<path fill="none" stroke="#63b8ff" d="M329.01,-315.28C321.02,-305.56 308.06,-289.79 297.99,-277.53"/>
<polygon fill="#63b8ff" stroke="#63b8ff" points="300.7,-275.32 291.64,-269.81 295.29,-279.76 300.7,-275.32"/>
</a>
</g>
</g>
<!-- Node26&#45;&gt;Node5 -->
<g id="edge34_Node000026_Node000005" class="edge">
<title>Node26&#45;&gt;Node5</title>
<g id="a_edge34_Node000026_Node000005"><a xlink:title=" ">
<path fill="none" stroke="#63b8ff" d="M826.08,-376.08C800.53,-367.47 769.34,-355.37 743.38,-340.5 724.58,-329.74 725.13,-318.87 705.38,-310 663.15,-291.04 537.3,-274.27 463.67,-265.73"/>
<polygon fill="#63b8ff" stroke="#63b8ff" points="464.16,-262.27 453.83,-264.61 463.36,-269.22 464.16,-262.27"/>
</a>
</g>
</g>
<!-- Node26&#45;&gt;Node12 -->
<g id="edge36_Node000026_Node000012" class="edge">
<title>Node26&#45;&gt;Node12</title>
<g id="a_edge36_Node000026_Node000012"><a xlink:title=" ">
<path fill="none" stroke="#63b8ff" d="M876.66,-376.22C878.68,-352.07 882.38,-302.11 882.38,-259.75 882.38,-259.75 882.38,-259.75 882.38,-124.75 882.38,-91.8 882.38,-53.5 882.38,-30.71"/>
<polygon fill="#63b8ff" stroke="#63b8ff" points="885.88,-31.02 882.38,-21.02 878.88,-31.02 885.88,-31.02"/>
</a>
</g>
</g>
<!-- Node26&#45;&gt;Node14 -->
<g id="edge37_Node000026_Node000014" class="edge">
<title>Node26&#45;&gt;Node14</title>
<g id="a_edge37_Node000026_Node000014"><a xlink:title=" ">
<path fill="none" stroke="#63b8ff" d="M883.84,-376.38C896.87,-352.84 920.38,-304.24 920.38,-259.75 920.38,-259.75 920.38,-259.75 920.38,-191.25 920.38,-144.89 961.34,-103.73 987.68,-82.05"/>
<polygon fill="#63b8ff" stroke="#63b8ff" points="989.77,-84.86 995.44,-75.91 985.42,-79.37 989.77,-84.86"/>
</a>
</g>
</g>
<!-- Node26&#45;&gt;Node21 -->
<g id="edge38_Node000026_Node000021" class="edge">
<title>Node26&#45;&gt;Node21</title>
<g id="a_edge38_Node000026_Node000021"><a xlink:title=" ">
<path fill="none" stroke="#63b8ff" d="M824.04,-376.03C784.43,-364.68 730.28,-349.16 693.03,-338.48"/>
<polygon fill="#63b8ff" stroke="#63b8ff" points="694.08,-335.14 683.51,-335.75 692.15,-341.87 694.08,-335.14"/>
</a>
</g>
</g>
<!-- Node27 -->
<g id="Node000027" class="node">
<title>Node27</title>
<g id="a_Node000027"><a xlink:href="default__deleter_8hpp.html" target="_top" xlink:title=" ">
<polygon fill="white" stroke="#666666" points="1048.75,-340.5 948,-340.5 948,-310 1048.75,-310 1048.75,-340.5"/>
<text text-anchor="start" x="956" y="-327" font-family="Helvetica,sans-Serif" font-size="10.00">yaclib/util/detail</text>
<text text-anchor="middle" x="998.38" y="-315.75" font-family="Helvetica,sans-Serif" font-size="10.00">/default_deleter.hpp</text>
</a>
</g>
</g>
<!-- Node26&#45;&gt;Node27 -->
<g id="edge35_Node000026_Node000027" class="edge">
<title>Node26&#45;&gt;Node27</title>
<g id="a_edge35_Node000026_Node000027"><a xlink:title=" ">
<path fill="none" stroke="#63b8ff" d="M903.29,-376.11C920.19,-367.25 941.98,-355.82 960.44,-346.14"/>
<polygon fill="#63b8ff" stroke="#63b8ff" points="962,-349.27 969.23,-341.53 958.75,-343.08 962,-349.27"/>
</a>
</g>
</g>
<!-- Node28&#45;&gt;Node5 -->
<g id="edge40_Node000028_Node000005" class="edge">
<title>Node28&#45;&gt;Node5</title>
<g id="a_edge40_Node000028_Node000005"><a xlink:title=" ">
<path fill="none" stroke="#63b8ff" d="M167.61,-311.86C170.23,-311.22 172.84,-310.6 175.38,-310 236.04,-295.75 305.95,-280.87 353.25,-271.04"/>
<polygon fill="#63b8ff" stroke="#63b8ff" points="353.9,-274.48 362.98,-269.02 352.48,-267.63 353.9,-274.48"/>
</a>
</g>
</g>
<!-- Node29 -->
<g id="Node000029" class="node">
<title>Node29</title>
<g id="a_Node000029"><a xlink:href="mutex__event_8hpp.html" target="_top" xlink:title=" ">
<polygon fill="white" stroke="#666666" points="175.62,-274 83.12,-274 83.12,-243.5 175.62,-243.5 175.62,-274"/>
<text text-anchor="start" x="91.12" y="-260.5" font-family="Helvetica,sans-Serif" font-size="10.00">yaclib/util/detail</text>
<text text-anchor="middle" x="129.38" y="-249.25" font-family="Helvetica,sans-Serif" font-size="10.00">/mutex_event.hpp</text>
</a>
</g>
</g>
<!-- Node28&#45;&gt;Node29 -->
<g id="edge41_Node000028_Node000029" class="edge">
<title>Node28&#45;&gt;Node29</title>
<g id="a_edge41_Node000028_Node000029"><a xlink:title=" ">
<path fill="none" stroke="#63b8ff" d="M121.64,-309.61C122.74,-302.52 124.1,-293.79 125.36,-285.63"/>
<polygon fill="#63b8ff" stroke="#63b8ff" points="128.81,-286.24 126.88,-275.82 121.89,-285.17 128.81,-286.24"/>
</a>
</g>
</g>
<!-- Node29&#45;&gt;Node11 -->
<g id="edge42_Node000029_Node000011" class="edge">
<title>Node29&#45;&gt;Node11</title>
<g id="a_edge42_Node000029_Node000011"><a xlink:title=" ">
<path fill="none" stroke="#63b8ff" d="M175.95,-248.64C207.24,-241.04 248.43,-228.07 280.38,-207.5 329.82,-175.66 318.02,-137.29 370.38,-110.5 422.15,-84 586.62,-72.51 674.21,-68.16"/>
<polygon fill="#63b8ff" stroke="#63b8ff" points="674.2,-71.67 684.02,-67.69 673.86,-64.68 674.2,-71.67"/>
</a>
</g>
</g>
<!-- Node30 -->
<g id="Node000030" class="node">
<title>Node30</title>
<g id="a_Node000030"><a xlink:title=" ">
<polygon fill="#e0e0e0" stroke="#999999" points="152,-201.88 106.75,-201.88 106.75,-182.62 152,-182.62 152,-201.88"/>
<text text-anchor="middle" x="129.38" y="-188.38" font-family="Helvetica,sans-Serif" font-size="10.00">chrono</text>
</a>
</g>
</g>
<!-- Node29&#45;&gt;Node30 -->
<g id="edge43_Node000029_Node000030" class="edge">
<title>Node29&#45;&gt;Node30</title>
<g id="a_edge43_Node000029_Node000030"><a xlink:title=" ">
<path fill="none" stroke="#63b8ff" d="M129.38,-243.11C129.38,-234.33 129.38,-223.02 129.38,-213.4"/>
<polygon fill="#63b8ff" stroke="#63b8ff" points="132.88,-213.59 129.38,-203.59 125.88,-213.59 132.88,-213.59"/>
</a>
</g>
</g>
<!-- Node31 -->
<g id="Node000031" class="node">
<title>Node31</title>
<g id="a_Node000031"><a xlink:title=" ">
<polygon fill="#e0e0e0" stroke="#999999" points="271.12,-207.5 169.62,-207.5 169.62,-177 271.12,-177 271.12,-207.5"/>
<text text-anchor="start" x="177.62" y="-194" font-family="Helvetica,sans-Serif" font-size="10.00">yaclib_std/condition</text>
<text text-anchor="middle" x="220.38" y="-182.75" font-family="Helvetica,sans-Serif" font-size="10.00">_variable</text>
</a>
</g>
</g>
<!-- Node29&#45;&gt;Node31 -->
<g id="edge44_Node000029_Node000031" class="edge">
<title>Node29&#45;&gt;Node31</title>
<g id="a_edge44_Node000029_Node000031"><a xlink:title=" ">
<path fill="none" stroke="#63b8ff" d="M150.02,-243.11C162.01,-234.62 177.31,-223.77 190.58,-214.37"/>
<polygon fill="#63b8ff" stroke="#63b8ff" points="192.44,-217.34 198.57,-208.7 188.39,-211.63 192.44,-217.34"/>
</a>
</g>
</g>
<!-- Node32 -->
<g id="Node000032" class="node">
<title>Node32</title>
<g id="a_Node000032"><a xlink:title=" ">
<polygon fill="#e0e0e0" stroke="#999999" points="88.75,-201.88 0,-201.88 0,-182.62 88.75,-182.62 88.75,-201.88"/>
<text text-anchor="middle" x="44.38" y="-188.38" font-family="Helvetica,sans-Serif" font-size="10.00">yaclib_std/mutex</text>
</a>
</g>
</g>
<!-- Node29&#45;&gt;Node32 -->
<g id="edge45_Node000029_Node000032" class="edge">
<title>Node29&#45;&gt;Node32</title>
<g id="a_edge45_Node000029_Node000032"><a xlink:title=" ">
<path fill="none" stroke="#63b8ff" d="M110.09,-243.11C96.69,-232.94 78.84,-219.41 65.13,-209"/>
<polygon fill="#63b8ff" stroke="#63b8ff" points="67.29,-206.24 57.21,-202.99 63.06,-211.82 67.29,-206.24"/>
</a>
</g>
</g>
<!-- Node33&#45;&gt;Node27 -->
<g id="edge48_Node000033_Node000027" class="edge">
<title>Node33&#45;&gt;Node27</title>
<g id="a_edge48_Node000033_Node000027"><a xlink:title=" ">
<path fill="none" stroke="#63b8ff" d="M996.83,-376.11C997.05,-369.02 997.32,-360.29 997.57,-352.13"/>
<polygon fill="#63b8ff" stroke="#63b8ff" points="1001.06,-352.44 997.88,-342.34 994.07,-352.23 1001.06,-352.44"/>
</a>
</g>
</g>
<!-- Node34&#45;&gt;Node13 -->
<g id="edge55_Node000034_Node000013" class="edge">
<title>Node34&#45;&gt;Node13</title>
<g id="a_edge55_Node000034_Node000013"><a xlink:title=" ">
<path fill="none" stroke="#63b8ff" d="M1105.36,-182.18C1079.86,-173.86 1043.48,-159.95 1015.38,-141 991.52,-124.91 969.07,-100.27 955.28,-83.63"/>
<polygon fill="#63b8ff" stroke="#63b8ff" points="958.18,-81.65 949.18,-76.07 952.73,-86.04 958.18,-81.65"/>
</a>
</g>
</g>
<!-- Node34&#45;&gt;Node14 -->
<g id="edge56_Node000034_Node000014" class="edge">
<title>Node34&#45;&gt;Node14</title>
<g id="a_edge56_Node000034_Node000014"><a xlink:title=" ">
<path fill="none" stroke="#63b8ff" d="M1139.96,-182.24C1145.71,-166.17 1154.86,-132.19 1139.38,-110.5 1116.97,-79.13 1071.07,-69.58 1040.25,-66.8"/>
<polygon fill="#63b8ff" stroke="#63b8ff" points="1040.6,-63.32 1030.38,-66.13 1040.12,-70.3 1040.6,-63.32"/>
</a>
</g>
</g>
<!-- Node34&#45;&gt;Node19 -->
<g id="edge50_Node000034_Node000019" class="edge">
<title>Node34&#45;&gt;Node19</title>
<g id="a_edge50_Node000034_Node000019"><a xlink:title=" ">
<path fill="none" stroke="#63b8ff" d="M1144.22,-182.18C1152.23,-172.53 1164.57,-156.54 1172.38,-141 1181.39,-123.04 1187.96,-100.98 1191.92,-85.43"/>
<polygon fill="#63b8ff" stroke="#63b8ff" points="1195.25,-86.56 1194.18,-76.02 1188.44,-84.93 1195.25,-86.56"/>
</a>
</g>
</g>
<!-- Node35 -->
<g id="Node000035" class="node">
<title>Node35</title>
<g id="a_Node000035"><a xlink:href="type__traits__impl_8hpp.html" target="_top" xlink:title=" ">
<polygon fill="white" stroke="#666666" points="1130,-141 1024.75,-141 1024.75,-110.5 1130,-110.5 1130,-141"/>
<text text-anchor="start" x="1032.75" y="-127.5" font-family="Helvetica,sans-Serif" font-size="10.00">yaclib/util/detail</text>
<text text-anchor="middle" x="1077.38" y="-116.25" font-family="Helvetica,sans-Serif" font-size="10.00">/type_traits_impl.hpp</text>
</a>
</g>
</g>
<!-- Node34&#45;&gt;Node35 -->
<g id="edge51_Node000034_Node000035" class="edge">
<title>Node34&#45;&gt;Node35</title>
<g id="a_edge51_Node000034_Node000035"><a xlink:title=" ">
<path fill="none" stroke="#63b8ff" d="M1128.17,-182.28C1120.4,-173.79 1108.41,-160.67 1098.02,-149.32"/>
<polygon fill="#63b8ff" stroke="#63b8ff" points="1100.85,-147.23 1091.52,-142.21 1095.69,-151.95 1100.85,-147.23"/>
</a>
</g>
</g>
<!-- Node36 -->
<g id="Node000036" class="node">
<title>Node36</title>
<g id="a_Node000036"><a xlink:title=" ">
<polygon fill="#e0e0e0" stroke="#999999" points="1282,-135.38 1224.75,-135.38 1224.75,-116.12 1282,-116.12 1282,-135.38"/>
<text text-anchor="middle" x="1253.38" y="-121.88" font-family="Helvetica,sans-Serif" font-size="10.00">exception</text>
</a>
</g>
</g>
<!-- Node34&#45;&gt;Node36 -->
<g id="edge54_Node000034_Node000036" class="edge">
<title>Node34&#45;&gt;Node36</title>
<g id="a_edge54_Node000034_Node000036"><a xlink:title=" ">
<path fill="none" stroke="#63b8ff" d="M1152.89,-182.15C1172.14,-171.53 1204.21,-153.85 1226.94,-141.32"/>
<polygon fill="#63b8ff" stroke="#63b8ff" points="1228.55,-144.43 1235.62,-136.54 1225.17,-138.3 1228.55,-144.43"/>
</a>
</g>
</g>
<!-- Node35&#45;&gt;Node13 -->
<g id="edge53_Node000035_Node000013" class="edge">
<title>Node35&#45;&gt;Node13</title>
<g id="a_edge53_Node000035_Node000013"><a xlink:title=" ">
<path fill="none" stroke="#63b8ff" d="M1043.41,-110.05C1021.7,-100.65 993.76,-88.55 972.61,-79.39"/>
<polygon fill="#63b8ff" stroke="#63b8ff" points="974.19,-76.27 963.62,-75.51 971.41,-82.69 974.19,-76.27"/>
</a>
</g>
</g>
<!-- Node35&#45;&gt;Node19 -->
<g id="edge52_Node000035_Node000019" class="edge">
<title>Node35&#45;&gt;Node19</title>
<g id="a_edge52_Node000035_Node000019"><a xlink:title=" ">
<path fill="none" stroke="#63b8ff" d="M1107.1,-110.05C1125.74,-100.82 1149.64,-89 1168.02,-79.9"/>
<polygon fill="#63b8ff" stroke="#63b8ff" points="1169.36,-83.15 1176.77,-75.58 1166.25,-76.87 1169.36,-83.15"/>
</a>
</g>
</g>
</g>
</svg>
