<?xml version="1.0" encoding="UTF-8" standalone="no"?>
<!DOCTYPE svg PUBLIC "-//W3C//DTD SVG 1.1//EN"
 "http://www.w3.org/Graphics/SVG/1.1/DTD/svg11.dtd">
<!-- Generated by graphviz version 9.0.0 (20230911.1827)
 -->
<!-- Title: include/yaclib/async/wait.hpp Pages: 1 -->
<!--zoomable 371 -->

<svg id="main" version="1.1" xmlns="http://www.w3.org/2000/svg" xmlns:xlink="http://www.w3.org/1999/xlink" xml:space="preserve" onload="init(evt)">
<style type="text/css"><![CDATA[
.node, .edge {opacity: 0.7;}
.node.selected, .edge.selected {opacity: 1;}
.edge:hover path { stroke: red; }
.edge:hover polygon { stroke: red; fill: red; }
]]></style>

<defs>
  <circle id="rim" cx="0" cy="0" r="7"/>
  <circle id="rim2" cx="0" cy="0" r="3.5"/>
  <g id="zoomPlus">
    <use xlink:href="#rim" fill="#404040"><set attributeName="fill" to="#808080" begin="zoomplus.mouseover" end="zoomplus.mouseout"/></use>
    <path d="M-4,0h8M0,-4v8" fill="none" stroke="white" stroke-width="1.5" pointer-events="none"/>
  </g>
  <g id="zoomMin">
    <use xlink:href="#rim" fill="#404040"><set attributeName="fill" to="#808080" begin="zoomminus.mouseover" end="zoomminus.mouseout"/></use>
    <path d="M-4,0h8" fill="none" stroke="white" stroke-width="1.5" pointer-events="none"/>
  </g>
  <g id="arrowUp" transform="translate(30 24)">
    <use xlink:href="#rim"/>
    <path pointer-events="none" fill="none" stroke="white" stroke-width="1.5" d="M0,-3.0v7 M-2.5,-0.5L0,-3.0L2.5,-0.5"/>
  </g>
  <g id="arrowRight" transform="rotate(90) translate(36 -43)">
    <use xlink:href="#rim"/>
    <path pointer-events="none" fill="none" stroke="white" stroke-width="1.5" d="M0,-3.0v7 M-2.5,-0.5L0,-3.0L2.5,-0.5"/>
  </g>
  <g id="arrowDown" transform="rotate(180) translate(-30 -48)">
    <use xlink:href="#rim"/>
    <path pointer-events="none" fill="none" stroke="white" stroke-width="1.5" d="M0,-3.0v7 M-2.5,-0.5L0,-3.0L2.5,-0.5"/>
  </g>
  <g id="arrowLeft" transform="rotate(270) translate(-36 17)">
    <use xlink:href="#rim"/>
    <path pointer-events="none" fill="none" stroke="white" stroke-width="1.5" d="M0,-3.0v7 M-2.5,-0.5L0,-3.0L2.5,-0.5"/>
  </g>
  <g id="resetDef">
    <use xlink:href="#rim2" fill="#404040"><set attributeName="fill" to="#808080" begin="reset.mouseover" end="reset.mouseout"/></use>
  </g>
</defs>
<script type="application/ecmascript">
var viewWidth = 1792;
var viewHeight = 371;
var sectionId = 'dynsection-1';
</script>
<script type="application/ecmascript" xlink:href="svg.min.js"/>
<svg id="graph" class="graph">
<g id="viewport">
<title>include/yaclib/async/wait.hpp</title>
<!-- Node1 -->
<g id="Node000001" class="node">
<title>Node1</title>
<g id="a_Node000001"><a xlink:title=" ">
<polygon fill="#999999" stroke="#666666" points="855.88,-363 752.88,-363 752.88,-332.5 855.88,-332.5 855.88,-363"/>
<text text-anchor="start" x="760.88" y="-349.5" font-family="Helvetica,sans-Serif" font-size="10.00">include/yaclib/async</text>
<text text-anchor="middle" x="804.38" y="-338.25" font-family="Helvetica,sans-Serif" font-size="10.00">/wait.hpp</text>
</a>
</g>
</g>
<!-- Node2 -->
<g id="Node000002" class="node">
<title>Node2</title>
<g id="a_Node000002"><a xlink:href="async_2future_8hpp.html" target="_top" xlink:title=" ">
<polygon fill="white" stroke="#666666" points="855.88,-296.5 752.88,-296.5 752.88,-266 855.88,-266 855.88,-296.5"/>
<text text-anchor="start" x="760.88" y="-283" font-family="Helvetica,sans-Serif" font-size="10.00">include/yaclib/async</text>
<text text-anchor="middle" x="804.38" y="-271.75" font-family="Helvetica,sans-Serif" font-size="10.00">/future.hpp</text>
</a>
</g>
</g>
<!-- Node1&#45;&gt;Node2 -->
<g id="edge1_Node000001_Node000002" class="edge">
<title>Node1&#45;&gt;Node2</title>
<g id="a_edge1_Node000001_Node000002"><a xlink:title=" ">
<path fill="none" stroke="#63b8ff" d="M797.74,-320.81C797.44,-312.64 797.73,-303.91 798.62,-296.83"/>
<polygon fill="#63b8ff" stroke="#63b8ff" points="794.24,-320.9 798.5,-330.6 801.22,-320.37 794.24,-320.9"/>
</a>
</g>
</g>
<!-- Node2&#45;&gt;Node1 -->
<g id="edge20_Node000002_Node000001" class="edge">
<title>Node2&#45;&gt;Node1</title>
<g id="a_edge20_Node000002_Node000001"><a xlink:title=" ">
<path fill="none" stroke="#63b8ff" d="M811.01,-308.13C811.31,-316.29 811.02,-325.02 810.14,-332.11"/>
<polygon fill="#63b8ff" stroke="#63b8ff" points="814.51,-308.04 810.25,-298.34 807.53,-308.58 814.51,-308.04"/>
</a>
</g>
</g>
<!-- Node3 -->
<g id="Node000003" class="node">
<title>Node3</title>
<g id="a_Node000003"><a xlink:href="wait__group_8hpp.html" target="_top" xlink:title=" ">
<polygon fill="white" stroke="#666666" points="107.12,-230 11.62,-230 11.62,-199.5 107.12,-199.5 107.12,-230"/>
<text text-anchor="start" x="19.62" y="-216.5" font-family="Helvetica,sans-Serif" font-size="10.00">include/yaclib/algo</text>
<text text-anchor="middle" x="59.38" y="-205.25" font-family="Helvetica,sans-Serif" font-size="10.00">/wait_group.hpp</text>
</a>
</g>
</g>
<!-- Node2&#45;&gt;Node3 -->
<g id="edge2_Node000002_Node000003" class="edge">
<title>Node2&#45;&gt;Node3</title>
<g id="a_edge2_Node000002_Node000003"><a xlink:title=" ">
<path fill="none" stroke="#63b8ff" d="M741.29,-279.36C619.51,-276.83 343.89,-267.11 115.38,-230 112.8,-229.58 110.17,-229.1 107.52,-228.58"/>
<polygon fill="#63b8ff" stroke="#63b8ff" points="741,-282.86 751.07,-279.55 741.14,-275.86 741,-282.86"/>
</a>
</g>
</g>
<!-- Node5 -->
<g id="Node000005" class="node">
<title>Node5</title>
<g id="a_Node000005"><a xlink:href="contract_8hpp.html" target="_top" xlink:title=" ">
<polygon fill="white" stroke="#666666" points="227.88,-230 124.88,-230 124.88,-199.5 227.88,-199.5 227.88,-230"/>
<text text-anchor="start" x="132.88" y="-216.5" font-family="Helvetica,sans-Serif" font-size="10.00">include/yaclib/async</text>
<text text-anchor="middle" x="176.38" y="-205.25" font-family="Helvetica,sans-Serif" font-size="10.00">/contract.hpp</text>
</a>
</g>
</g>
<!-- Node2&#45;&gt;Node5 -->
<g id="edge4_Node000002_Node000005" class="edge">
<title>Node2&#45;&gt;Node5</title>
<g id="a_edge4_Node000002_Node000005"><a xlink:title=" ">
<path fill="none" stroke="#63b8ff" d="M741.34,-277.16C637.06,-271.47 422.3,-257.36 242.38,-230 237.74,-229.3 232.94,-228.46 228.14,-227.56"/>
<polygon fill="#63b8ff" stroke="#63b8ff" points="740.91,-280.64 751.08,-277.68 741.28,-273.65 740.91,-280.64"/>
</a>
</g>
</g>
<!-- Node6 -->
<g id="Node000006" class="node">
<title>Node6</title>
<g id="a_Node000006"><a xlink:href="simple_8cpp.html" target="_top" xlink:title=" ">
<polygon fill="white" stroke="#666666" points="288.38,-163.5 188.38,-163.5 188.38,-133 288.38,-133 288.38,-163.5"/>
<text text-anchor="start" x="196.38" y="-150" font-family="Helvetica,sans-Serif" font-size="10.00">test/example/async</text>
<text text-anchor="middle" x="238.38" y="-138.75" font-family="Helvetica,sans-Serif" font-size="10.00">/simple.cpp</text>
</a>
</g>
</g>
<!-- Node2&#45;&gt;Node6 -->
<g id="edge42_Node000002_Node000006" class="edge">
<title>Node2&#45;&gt;Node6</title>
<g id="a_edge42_Node000002_Node000006"><a xlink:title=" ">
<path fill="none" stroke="#63b8ff" d="M741.39,-277.77C609.36,-272.08 312.64,-256.49 275.38,-230 253.38,-214.37 244.17,-182.37 240.54,-163.69"/>
<polygon fill="#63b8ff" stroke="#63b8ff" points="740.86,-281.25 751,-278.18 741.16,-274.26 740.86,-281.25"/>
</a>
</g>
</g>
<!-- Node7 -->
<g id="Node000007" class="node">
<title>Node7</title>
<g id="a_Node000007"><a xlink:href="when__impl_8hpp.html" target="_top" xlink:title=" ">
<polygon fill="white" stroke="#666666" points="575.25,-230 465.5,-230 465.5,-199.5 575.25,-199.5 575.25,-230"/>
<text text-anchor="start" x="473.5" y="-216.5" font-family="Helvetica,sans-Serif" font-size="10.00">include/yaclib/async</text>
<text text-anchor="middle" x="520.38" y="-205.25" font-family="Helvetica,sans-Serif" font-size="10.00">/detail/when_impl.hpp</text>
</a>
</g>
</g>
<!-- Node2&#45;&gt;Node7 -->
<g id="edge6_Node000002_Node000007" class="edge">
<title>Node2&#45;&gt;Node7</title>
<g id="a_edge6_Node000002_Node000007"><a xlink:title=" ">
<path fill="none" stroke="#63b8ff" d="M741.69,-266.01C692.02,-254.73 623.29,-239.12 575.66,-228.31"/>
<polygon fill="#63b8ff" stroke="#63b8ff" points="740.61,-269.36 751.14,-268.16 742.16,-262.53 740.61,-269.36"/>
</a>
</g>
</g>
<!-- Node9 -->
<g id="Node000009" class="node">
<title>Node9</title>
<g id="a_Node000009"><a xlink:href="when__all_8hpp.html" target="_top" xlink:title=" ">
<polygon fill="white" stroke="#666666" points="485.88,-97 382.88,-97 382.88,-66.5 485.88,-66.5 485.88,-97"/>
<text text-anchor="start" x="390.88" y="-83.5" font-family="Helvetica,sans-Serif" font-size="10.00">include/yaclib/async</text>
<text text-anchor="middle" x="434.38" y="-72.25" font-family="Helvetica,sans-Serif" font-size="10.00">/when_all.hpp</text>
</a>
</g>
</g>
<!-- Node2&#45;&gt;Node9 -->
<g id="edge23_Node000002_Node000009" class="edge">
<title>Node2&#45;&gt;Node9</title>
<g id="a_edge23_Node000002_Node000009"><a xlink:title=" ">
<path fill="none" stroke="#63b8ff" d="M740.89,-278.89C652.47,-275.73 498.36,-265.17 456.38,-230 417.34,-197.3 425.36,-127.73 431.12,-97.4"/>
<polygon fill="#63b8ff" stroke="#63b8ff" points="740.76,-282.39 750.87,-279.23 740.99,-275.39 740.76,-282.39"/>
</a>
</g>
</g>
<!-- Node12 -->
<g id="Node000012" class="node">
<title>Node12</title>
<g id="a_Node000012"><a xlink:href="when__any_8hpp.html" target="_top" xlink:title=" ">
<polygon fill="white" stroke="#666666" points="762.88,-97 659.88,-97 659.88,-66.5 762.88,-66.5 762.88,-97"/>
<text text-anchor="start" x="667.88" y="-83.5" font-family="Helvetica,sans-Serif" font-size="10.00">include/yaclib/async</text>
<text text-anchor="middle" x="711.38" y="-72.25" font-family="Helvetica,sans-Serif" font-size="10.00">/when_any.hpp</text>
</a>
</g>
</g>
<!-- Node2&#45;&gt;Node12 -->
<g id="edge24_Node000002_Node000012" class="edge">
<title>Node2&#45;&gt;Node12</title>
<g id="a_edge24_Node000002_Node000012"><a xlink:title=" ">
<path fill="none" stroke="#63b8ff" d="M741.32,-271.09C694.73,-262.87 636.96,-249.16 622.38,-230 614.16,-219.21 614.12,-210.25 622.38,-199.5 660.21,-150.26 719.54,-212.74 757.38,-163.5 773.79,-142.13 749.21,-114.28 730.14,-97.5"/>
<polygon fill="#63b8ff" stroke="#63b8ff" points="740.65,-274.52 751.09,-272.75 741.82,-267.62 740.65,-274.52"/>
</a>
</g>
</g>
<!-- Node14 -->
<g id="Node000014" class="node">
<title>Node14</title>
<g id="a_Node000014"><a xlink:href="async_2make_8hpp.html" target="_top" xlink:title=" ">
<polygon fill="white" stroke="#666666" points="734.88,-230 631.88,-230 631.88,-199.5 734.88,-199.5 734.88,-230"/>
<text text-anchor="start" x="639.88" y="-216.5" font-family="Helvetica,sans-Serif" font-size="10.00">include/yaclib/async</text>
<text text-anchor="middle" x="683.38" y="-205.25" font-family="Helvetica,sans-Serif" font-size="10.00">/make.hpp</text>
</a>
</g>
</g>
<!-- Node2&#45;&gt;Node14 -->
<g id="edge15_Node000002_Node000014" class="edge">
<title>Node2&#45;&gt;Node14</title>
<g id="a_edge15_Node000002_Node000014"><a xlink:title=" ">
<path fill="none" stroke="#63b8ff" d="M766.94,-260.29C748.77,-250.61 727.33,-239.18 710.72,-230.33"/>
<polygon fill="#63b8ff" stroke="#63b8ff" points="765.11,-263.29 775.58,-264.9 768.4,-257.11 765.11,-263.29"/>
</a>
</g>
</g>
<!-- Node15 -->
<g id="Node000015" class="node">
<title>Node15</title>
<g id="a_Node000015"><a xlink:href="run_8hpp.html" target="_top" xlink:title=" ">
<polygon fill="white" stroke="#666666" points="387.88,-230 284.88,-230 284.88,-199.5 387.88,-199.5 387.88,-230"/>
<text text-anchor="start" x="292.88" y="-216.5" font-family="Helvetica,sans-Serif" font-size="10.00">include/yaclib/async</text>
<text text-anchor="middle" x="336.38" y="-205.25" font-family="Helvetica,sans-Serif" font-size="10.00">/run.hpp</text>
</a>
</g>
</g>
<!-- Node2&#45;&gt;Node15 -->
<g id="edge16_Node000002_Node000015" class="edge">
<title>Node2&#45;&gt;Node15</title>
<g id="a_edge16_Node000002_Node000015"><a xlink:title=" ">
<path fill="none" stroke="#63b8ff" d="M741.18,-274.09C661.78,-265.96 521.5,-250.26 402.38,-230 397.75,-229.21 392.96,-228.33 388.17,-227.39"/>
<polygon fill="#63b8ff" stroke="#63b8ff" points="740.63,-277.56 750.94,-275.09 741.34,-270.59 740.63,-277.56"/>
</a>
</g>
</g>
<!-- Node16 -->
<g id="Node000016" class="node">
<title>Node16</title>
<g id="a_Node000016"><a xlink:href="wait__for_8hpp.html" target="_top" xlink:title=" ">
<polygon fill="white" stroke="#666666" points="855.88,-230 752.88,-230 752.88,-199.5 855.88,-199.5 855.88,-230"/>
<text text-anchor="start" x="760.88" y="-216.5" font-family="Helvetica,sans-Serif" font-size="10.00">include/yaclib/async</text>
<text text-anchor="middle" x="804.38" y="-205.25" font-family="Helvetica,sans-Serif" font-size="10.00">/wait_for.hpp</text>
</a>
</g>
</g>
<!-- Node2&#45;&gt;Node16 -->
<g id="edge21_Node000002_Node000016" class="edge">
<title>Node2&#45;&gt;Node16</title>
<g id="a_edge21_Node000002_Node000016"><a xlink:title=" ">
<path fill="none" stroke="#63b8ff" d="M804.38,-254.31C804.38,-246.14 804.38,-237.41 804.38,-230.33"/>
<polygon fill="#63b8ff" stroke="#63b8ff" points="800.88,-254.1 804.38,-264.1 807.88,-254.1 800.88,-254.1"/>
</a>
</g>
</g>
<!-- Node17 -->
<g id="Node000017" class="node">
<title>Node17</title>
<g id="a_Node000017"><a xlink:href="wait__until_8hpp.html" target="_top" xlink:title=" ">
<polygon fill="white" stroke="#666666" points="976.88,-230 873.88,-230 873.88,-199.5 976.88,-199.5 976.88,-230"/>
<text text-anchor="start" x="881.88" y="-216.5" font-family="Helvetica,sans-Serif" font-size="10.00">include/yaclib/async</text>
<text text-anchor="middle" x="925.38" y="-205.25" font-family="Helvetica,sans-Serif" font-size="10.00">/wait_until.hpp</text>
</a>
</g>
</g>
<!-- Node2&#45;&gt;Node17 -->
<g id="edge22_Node000002_Node000017" class="edge">
<title>Node2&#45;&gt;Node17</title>
<g id="a_edge22_Node000002_Node000017"><a xlink:title=" ">
<path fill="none" stroke="#63b8ff" d="M841.81,-260.29C859.98,-250.61 881.42,-239.18 898.03,-230.33"/>
<polygon fill="#63b8ff" stroke="#63b8ff" points="840.35,-257.11 833.17,-264.9 843.64,-263.29 840.35,-257.11"/>
</a>
</g>
</g>
<!-- Node18 -->
<g id="Node000018" class="node">
<title>Node18</title>
<g id="a_Node000018"><a xlink:href="await_8hpp.html" target="_top" xlink:title=" ">
<polygon fill="white" stroke="#666666" points="1008.5,-97 912.25,-97 912.25,-66.5 1008.5,-66.5 1008.5,-97"/>
<text text-anchor="start" x="920.25" y="-83.5" font-family="Helvetica,sans-Serif" font-size="10.00">include/yaclib/coro</text>
<text text-anchor="middle" x="960.38" y="-72.25" font-family="Helvetica,sans-Serif" font-size="10.00">/await.hpp</text>
</a>
</g>
</g>
<!-- Node2&#45;&gt;Node18 -->
<g id="edge25_Node000002_Node000018" class="edge">
<title>Node2&#45;&gt;Node18</title>
<g id="a_edge25_Node000002_Node000018"><a xlink:title=" ">
<path fill="none" stroke="#63b8ff" d="M867.53,-270.96C913.79,-262.71 970.93,-249.01 985.38,-230 993.58,-219.21 990.81,-211.92 985.38,-199.5 975.91,-177.89 955.84,-185.11 946.38,-163.5 936.85,-141.73 945.71,-114 953.02,-97.35"/>
<polygon fill="#63b8ff" stroke="#63b8ff" points="867.09,-267.48 857.83,-272.63 868.27,-274.38 867.09,-267.48"/>
</a>
</g>
</g>
<!-- Node19 -->
<g id="Node000019" class="node">
<title>Node19</title>
<g id="a_Node000019"><a xlink:href="await__on_8hpp.html" target="_top" xlink:title=" ">
<polygon fill="white" stroke="#666666" points="1204.5,-97 1108.25,-97 1108.25,-66.5 1204.5,-66.5 1204.5,-97"/>
<text text-anchor="start" x="1116.25" y="-83.5" font-family="Helvetica,sans-Serif" font-size="10.00">include/yaclib/coro</text>
<text text-anchor="middle" x="1156.38" y="-72.25" font-family="Helvetica,sans-Serif" font-size="10.00">/await_on.hpp</text>
</a>
</g>
</g>
<!-- Node2&#45;&gt;Node19 -->
<g id="edge26_Node000002_Node000019" class="edge">
<title>Node2&#45;&gt;Node19</title>
<g id="a_edge26_Node000002_Node000019"><a xlink:title=" ">
<path fill="none" stroke="#63b8ff" d="M867.21,-278.14C916.92,-273.91 986.39,-262.11 1038.38,-230 1066.52,-212.61 1123.72,-130.98 1146.6,-97.32"/>
<polygon fill="#63b8ff" stroke="#63b8ff" points="867.18,-274.63 857.48,-278.88 867.71,-281.61 867.18,-274.63"/>
</a>
</g>
</g>
<!-- Node20 -->
<g id="Node000020" class="node">
<title>Node20</title>
<g id="a_Node000020"><a xlink:href="await__awaiter_8hpp.html" target="_top" xlink:title=" ">
<polygon fill="white" stroke="#666666" points="1079,-163.5 955.75,-163.5 955.75,-133 1079,-133 1079,-163.5"/>
<text text-anchor="start" x="963.75" y="-150" font-family="Helvetica,sans-Serif" font-size="10.00">include/yaclib/coro</text>
<text text-anchor="middle" x="1017.38" y="-138.75" font-family="Helvetica,sans-Serif" font-size="10.00">/detail/await_awaiter.hpp</text>
</a>
</g>
</g>
<!-- Node2&#45;&gt;Node20 -->
<g id="edge27_Node000002_Node000020" class="edge">
<title>Node2&#45;&gt;Node20</title>
<g id="a_edge27_Node000002_Node000020"><a xlink:title=" ">
<path fill="none" stroke="#63b8ff" d="M867.64,-274.09C924.11,-267.12 1000.68,-253.57 1019.38,-230 1034.28,-211.21 1028.38,-181.49 1022.82,-163.83"/>
<polygon fill="#63b8ff" stroke="#63b8ff" points="867.31,-270.6 857.79,-275.25 868.13,-277.55 867.31,-270.6"/>
</a>
</g>
</g>
<!-- Node21 -->
<g id="Node000021" class="node">
<title>Node21</title>
<g id="a_Node000021"><a xlink:href="await__on__awaiter_8hpp.html" target="_top" xlink:title=" ">
<polygon fill="white" stroke="#666666" points="1274.88,-163.5 1135.88,-163.5 1135.88,-133 1274.88,-133 1274.88,-163.5"/>
<text text-anchor="start" x="1143.88" y="-150" font-family="Helvetica,sans-Serif" font-size="10.00">include/yaclib/coro</text>
<text text-anchor="middle" x="1205.38" y="-138.75" font-family="Helvetica,sans-Serif" font-size="10.00">/detail/await_on_awaiter.hpp</text>
</a>
</g>
</g>
<!-- Node2&#45;&gt;Node21 -->
<g id="edge29_Node000002_Node000021" class="edge">
<title>Node2&#45;&gt;Node21</title>
<g id="a_edge29_Node000002_Node000021"><a xlink:title=" ">
<path fill="none" stroke="#63b8ff" d="M867.5,-274.75C946.84,-267.07 1077.92,-251.61 1121.38,-230 1152.89,-214.33 1180.37,-182.66 1194.74,-163.97"/>
<polygon fill="#63b8ff" stroke="#63b8ff" points="867.32,-271.26 857.69,-275.69 867.98,-278.22 867.32,-271.26"/>
</a>
</g>
</g>
<!-- Node22 -->
<g id="Node000022" class="node">
<title>Node22</title>
<g id="a_Node000022"><a xlink:href="coro_2future_8hpp.html" target="_top" xlink:title=" ">
<polygon fill="white" stroke="#666666" points="1389.5,-163.5 1293.25,-163.5 1293.25,-133 1389.5,-133 1389.5,-163.5"/>
<text text-anchor="start" x="1301.25" y="-150" font-family="Helvetica,sans-Serif" font-size="10.00">include/yaclib/coro</text>
<text text-anchor="middle" x="1341.38" y="-138.75" font-family="Helvetica,sans-Serif" font-size="10.00">/future.hpp</text>
</a>
</g>
</g>
<!-- Node2&#45;&gt;Node22 -->
<g id="edge31_Node000002_Node000022" class="edge">
<title>Node2&#45;&gt;Node22</title>
<g id="a_edge31_Node000002_Node000022"><a xlink:title=" ">
<path fill="none" stroke="#63b8ff" d="M867.74,-276.36C939.05,-270.81 1057.79,-257.99 1156.38,-230 1214.7,-213.44 1278.68,-182.38 1314.04,-163.99"/>
<polygon fill="#63b8ff" stroke="#63b8ff" points="867.5,-272.87 857.79,-277.11 868.03,-279.85 867.5,-272.87"/>
</a>
</g>
</g>
<!-- Node23 -->
<g id="Node000023" class="node">
<title>Node23</title>
<g id="a_Node000023"><a xlink:href="lazy_2task_8hpp.html" target="_top" xlink:title=" ">
<polygon fill="white" stroke="#666666" points="1388.38,-230 1294.38,-230 1294.38,-199.5 1388.38,-199.5 1388.38,-230"/>
<text text-anchor="start" x="1302.38" y="-216.5" font-family="Helvetica,sans-Serif" font-size="10.00">include/yaclib/lazy</text>
<text text-anchor="middle" x="1341.38" y="-205.25" font-family="Helvetica,sans-Serif" font-size="10.00">/task.hpp</text>
</a>
</g>
</g>
<!-- Node2&#45;&gt;Node23 -->
<g id="edge32_Node000002_Node000023" class="edge">
<title>Node2&#45;&gt;Node23</title>
<g id="a_edge32_Node000002_Node000023"><a xlink:title=" ">
<path fill="none" stroke="#63b8ff" d="M867.5,-275.2C957.14,-267.62 1126.34,-251.84 1269.38,-230 1277.44,-228.77 1285.97,-227.26 1294.23,-225.7"/>
<polygon fill="#63b8ff" stroke="#63b8ff" points="867.36,-271.7 857.68,-276.02 867.94,-278.67 867.36,-271.7"/>
</a>
</g>
</g>
<!-- Node28 -->
<g id="Node000028" class="node">
<title>Node28</title>
<g id="a_Node000028"><a xlink:href="future__impl_8cpp.html" target="_top" xlink:title=" ">
<polygon fill="white" stroke="#666666" points="1533.88,-224.38 1406.88,-224.38 1406.88,-205.12 1533.88,-205.12 1533.88,-224.38"/>
<text text-anchor="middle" x="1470.38" y="-210.88" font-family="Helvetica,sans-Serif" font-size="10.00">src/async/future_impl.cpp</text>
</a>
</g>
</g>
<!-- Node2&#45;&gt;Node28 -->
<g id="edge41_Node000002_Node000028" class="edge">
<title>Node2&#45;&gt;Node28</title>
<g id="a_edge41_Node000002_Node000028"><a xlink:title=" ">
<path fill="none" stroke="#63b8ff" d="M867.53,-277.15C976.19,-271.31 1205.34,-256.8 1397.38,-230 1407.35,-228.61 1418.02,-226.74 1428.04,-224.82"/>
<polygon fill="#63b8ff" stroke="#63b8ff" points="867.45,-273.65 857.65,-277.67 867.83,-280.64 867.45,-273.65"/>
</a>
</g>
</g>
<!-- Node4 -->
<g id="Node000004" class="node">
<title>Node4</title>
<g id="a_Node000004"><a xlink:href="wait__group_8cpp.html" target="_top" xlink:title=" ">
<polygon fill="white" stroke="#666666" points="118.75,-157.88 0,-157.88 0,-138.62 118.75,-138.62 118.75,-157.88"/>
<text text-anchor="middle" x="59.38" y="-144.38" font-family="Helvetica,sans-Serif" font-size="10.00">src/algo/wait_group.cpp</text>
</a>
</g>
</g>
<!-- Node3&#45;&gt;Node4 -->
<g id="edge3_Node000003_Node000004" class="edge">
<title>Node3&#45;&gt;Node4</title>
<g id="a_edge3_Node000003_Node000004"><a xlink:title=" ">
<path fill="none" stroke="#63b8ff" d="M59.38,-187.84C59.38,-177.26 59.38,-165.75 59.38,-158.07"/>
<polygon fill="#63b8ff" stroke="#63b8ff" points="55.88,-187.6 59.38,-197.6 62.88,-187.6 55.88,-187.6"/>
</a>
</g>
</g>
<!-- Node5&#45;&gt;Node6 -->
<g id="edge5_Node000005_Node000006" class="edge">
<title>Node5&#45;&gt;Node6</title>
<g id="a_edge5_Node000005_Node000006"><a xlink:title=" ">
<path fill="none" stroke="#63b8ff" d="M198.33,-190.91C206.99,-181.9 216.68,-171.82 224.36,-163.83"/>
<polygon fill="#63b8ff" stroke="#63b8ff" points="195.9,-188.39 191.49,-198.02 200.95,-193.24 195.9,-188.39"/>
</a>
</g>
</g>
<!-- Node8 -->
<g id="Node000008" class="node">
<title>Node8</title>
<g id="a_Node000008"><a xlink:href="when__all__impl_8hpp.html" target="_top" xlink:title=" ">
<polygon fill="white" stroke="#666666" points="582.75,-163.5 458,-163.5 458,-133 582.75,-133 582.75,-163.5"/>
<text text-anchor="start" x="466" y="-150" font-family="Helvetica,sans-Serif" font-size="10.00">include/yaclib/async</text>
<text text-anchor="middle" x="520.38" y="-138.75" font-family="Helvetica,sans-Serif" font-size="10.00">/detail/when_all_impl.hpp</text>
</a>
</g>
</g>
<!-- Node7&#45;&gt;Node8 -->
<g id="edge7_Node000007_Node000008" class="edge">
<title>Node7&#45;&gt;Node8</title>
<g id="a_edge7_Node000007_Node000008"><a xlink:title=" ">
<path fill="none" stroke="#63b8ff" d="M520.38,-187.81C520.38,-179.64 520.38,-170.91 520.38,-163.83"/>
<polygon fill="#63b8ff" stroke="#63b8ff" points="516.88,-187.6 520.38,-197.6 523.88,-187.6 516.88,-187.6"/>
</a>
</g>
</g>
<!-- Node7&#45;&gt;Node9 -->
<g id="edge13_Node000007_Node000009" class="edge">
<title>Node7&#45;&gt;Node9</title>
<g id="a_edge13_Node000007_Node000009"><a xlink:title=" ">
<path fill="none" stroke="#63b8ff" d="M480.16,-193.15C468.57,-185.35 457.01,-175.42 449.38,-163.5 436.39,-143.2 434.01,-114.51 433.89,-97.36"/>
<polygon fill="#63b8ff" stroke="#63b8ff" points="478.2,-196.05 488.54,-198.39 481.92,-190.12 478.2,-196.05"/>
</a>
</g>
</g>
<!-- Node11 -->
<g id="Node000011" class="node">
<title>Node11</title>
<g id="a_Node000011"><a xlink:href="when__any__impl_8hpp.html" target="_top" xlink:title=" ">
<polygon fill="white" stroke="#666666" points="730.38,-163.5 600.38,-163.5 600.38,-133 730.38,-133 730.38,-163.5"/>
<text text-anchor="start" x="608.38" y="-150" font-family="Helvetica,sans-Serif" font-size="10.00">include/yaclib/async</text>
<text text-anchor="middle" x="665.38" y="-138.75" font-family="Helvetica,sans-Serif" font-size="10.00">/detail/when_any_impl.hpp</text>
</a>
</g>
</g>
<!-- Node7&#45;&gt;Node11 -->
<g id="edge10_Node000007_Node000011" class="edge">
<title>Node7&#45;&gt;Node11</title>
<g id="a_edge10_Node000007_Node000011"><a xlink:title=" ">
<path fill="none" stroke="#63b8ff" d="M563.69,-194.48C585.7,-184.69 612.01,-172.99 632.35,-163.94"/>
<polygon fill="#63b8ff" stroke="#63b8ff" points="562.37,-191.24 554.66,-198.5 565.22,-197.63 562.37,-191.24"/>
</a>
</g>
</g>
<!-- Node7&#45;&gt;Node12 -->
<g id="edge14_Node000007_Node000012" class="edge">
<title>Node7&#45;&gt;Node12</title>
<g id="a_edge14_Node000007_Node000012"><a xlink:title=" ">
<path fill="none" stroke="#63b8ff" d="M586.81,-199.54C650.35,-185.78 736.92,-166.58 739.38,-163.5 755.09,-143.77 737.59,-114.63 724.05,-97.29"/>
<polygon fill="#63b8ff" stroke="#63b8ff" points="586.15,-196.1 577.11,-201.63 587.63,-202.94 586.15,-196.1"/>
</a>
</g>
</g>
<!-- Node8&#45;&gt;Node9 -->
<g id="edge8_Node000008_Node000009" class="edge">
<title>Node8&#45;&gt;Node9</title>
<g id="a_edge8_Node000008_Node000009"><a xlink:title=" ">
<path fill="none" stroke="#63b8ff" d="M491.77,-125.79C479.3,-116.44 465.01,-105.73 453.81,-97.33"/>
<polygon fill="#63b8ff" stroke="#63b8ff" points="489.55,-128.51 499.65,-131.71 493.75,-122.91 489.55,-128.51"/>
</a>
</g>
</g>
<!-- Node10 -->
<g id="Node000010" class="node">
<title>Node10</title>
<g id="a_Node000010"><a xlink:href="when__all_8cpp.html" target="_top" xlink:title=" ">
<polygon fill="white" stroke="#666666" points="425.38,-30.5 325.38,-30.5 325.38,0 425.38,0 425.38,-30.5"/>
<text text-anchor="start" x="333.38" y="-17" font-family="Helvetica,sans-Serif" font-size="10.00">test/example/async</text>
<text text-anchor="middle" x="375.38" y="-5.75" font-family="Helvetica,sans-Serif" font-size="10.00">/when_all.cpp</text>
</a>
</g>
</g>
<!-- Node9&#45;&gt;Node10 -->
<g id="edge9_Node000009_Node000010" class="edge">
<title>Node9&#45;&gt;Node10</title>
<g id="a_edge9_Node000009_Node000010"><a xlink:title=" ">
<path fill="none" stroke="#63b8ff" d="M413.23,-57.63C405.05,-48.69 395.94,-38.74 388.71,-30.83"/>
<polygon fill="#63b8ff" stroke="#63b8ff" points="410.63,-59.98 419.97,-65 415.8,-55.26 410.63,-59.98"/>
</a>
</g>
</g>
<!-- Node11&#45;&gt;Node12 -->
<g id="edge11_Node000011_Node000012" class="edge">
<title>Node11&#45;&gt;Node12</title>
<g id="a_edge11_Node000011_Node000012"><a xlink:title=" ">
<path fill="none" stroke="#63b8ff" d="M682.46,-123.29C688.68,-114.57 695.52,-104.99 700.98,-97.33"/>
<polygon fill="#63b8ff" stroke="#63b8ff" points="679.65,-121.21 676.69,-131.38 685.35,-125.27 679.65,-121.21"/>
</a>
</g>
</g>
<!-- Node13 -->
<g id="Node000013" class="node">
<title>Node13</title>
<g id="a_Node000013"><a xlink:href="when__any_8cpp.html" target="_top" xlink:title=" ">
<polygon fill="white" stroke="#666666" points="629.38,-30.5 529.38,-30.5 529.38,0 629.38,0 629.38,-30.5"/>
<text text-anchor="start" x="537.38" y="-17" font-family="Helvetica,sans-Serif" font-size="10.00">test/example/async</text>
<text text-anchor="middle" x="579.38" y="-5.75" font-family="Helvetica,sans-Serif" font-size="10.00">/when_any.cpp</text>
</a>
</g>
</g>
<!-- Node12&#45;&gt;Node13 -->
<g id="edge12_Node000012_Node000013" class="edge">
<title>Node12&#45;&gt;Node13</title>
<g id="a_edge12_Node000012_Node000013"><a xlink:title=" ">
<path fill="none" stroke="#63b8ff" d="M671.08,-61.06C651.15,-51.32 627.5,-39.76 609.21,-30.83"/>
<polygon fill="#63b8ff" stroke="#63b8ff" points="669.54,-64.2 680.06,-65.45 672.61,-57.91 669.54,-64.2"/>
</a>
</g>
</g>
<!-- Node15&#45;&gt;Node6 -->
<g id="edge17_Node000015_Node000006" class="edge">
<title>Node15&#45;&gt;Node6</title>
<g id="a_edge17_Node000015_Node000006"><a xlink:title=" ">
<path fill="none" stroke="#63b8ff" d="M304.61,-192.84C290.21,-183.37 273.54,-172.39 260.52,-163.83"/>
<polygon fill="#63b8ff" stroke="#63b8ff" points="302.6,-195.71 312.87,-198.28 306.44,-189.86 302.6,-195.71"/>
</a>
</g>
</g>
<!-- Node15&#45;&gt;Node10 -->
<g id="edge18_Node000015_Node000010" class="edge">
<title>Node15&#45;&gt;Node10</title>
<g id="a_edge18_Node000015_Node000010"><a xlink:title=" ">
<path fill="none" stroke="#63b8ff" d="M332.7,-187.91C329.42,-157.9 326.96,-107.28 340.38,-66.5 344.76,-53.17 353.93,-40.23 361.78,-30.81"/>
<polygon fill="#63b8ff" stroke="#63b8ff" points="329.19,-188.06 333.88,-197.56 336.14,-187.21 329.19,-188.06"/>
</a>
</g>
</g>
<!-- Node15&#45;&gt;Node13 -->
<g id="edge19_Node000015_Node000013" class="edge">
<title>Node15&#45;&gt;Node13</title>
<g id="a_edge19_Node000015_Node000013"><a xlink:title=" ">
<path fill="none" stroke="#63b8ff" d="M339.57,-188.36C344.8,-150.9 356.33,-83.43 373.38,-66.5 395.05,-44.97 475.24,-30.23 528.93,-22.53"/>
<polygon fill="#63b8ff" stroke="#63b8ff" points="336.16,-187.49 338.3,-197.86 343.1,-188.42 336.16,-187.49"/>
</a>
</g>
</g>
<!-- Node20&#45;&gt;Node18 -->
<g id="edge28_Node000020_Node000018" class="edge">
<title>Node20&#45;&gt;Node18</title>
<g id="a_edge28_Node000020_Node000018"><a xlink:title=" ">
<path fill="none" stroke="#63b8ff" d="M996.94,-124.13C989.04,-115.19 980.25,-105.24 973.26,-97.33"/>
<polygon fill="#63b8ff" stroke="#63b8ff" points="994.19,-126.3 1003.44,-131.48 999.44,-121.67 994.19,-126.3"/>
</a>
</g>
</g>
<!-- Node21&#45;&gt;Node19 -->
<g id="edge30_Node000021_Node000019" class="edge">
<title>Node21&#45;&gt;Node19</title>
<g id="a_edge30_Node000021_Node000019"><a xlink:title=" ">
<path fill="none" stroke="#63b8ff" d="M1187.39,-123.57C1180.71,-114.78 1173.33,-105.07 1167.45,-97.33"/>
<polygon fill="#63b8ff" stroke="#63b8ff" points="1184.5,-125.56 1193.34,-131.41 1190.08,-121.33 1184.5,-125.56"/>
</a>
</g>
</g>
<!-- Node23&#45;&gt;Node20 -->
<g id="edge33_Node000023_Node000020" class="edge">
<title>Node23&#45;&gt;Node20</title>
<g id="a_edge33_Node000023_Node000020"><a xlink:title=" ">
<path fill="none" stroke="#63b8ff" d="M1282.84,-202.1C1225.37,-190.66 1138.03,-173.27 1079.39,-161.6"/>
<polygon fill="#63b8ff" stroke="#63b8ff" points="1281.94,-205.49 1292.43,-204.01 1283.31,-198.62 1281.94,-205.49"/>
</a>
</g>
</g>
<!-- Node23&#45;&gt;Node21 -->
<g id="edge34_Node000023_Node000021" class="edge">
<title>Node23&#45;&gt;Node21</title>
<g id="a_edge34_Node000023_Node000021"><a xlink:title=" ">
<path fill="none" stroke="#63b8ff" d="M1300.15,-194.2C1279.55,-184.43 1255.04,-172.81 1236.11,-163.83"/>
<polygon fill="#63b8ff" stroke="#63b8ff" points="1298.61,-197.34 1309.15,-198.47 1301.61,-191.02 1298.61,-197.34"/>
</a>
</g>
</g>
<!-- Node23&#45;&gt;Node22 -->
<g id="edge35_Node000023_Node000022" class="edge">
<title>Node23&#45;&gt;Node22</title>
<g id="a_edge35_Node000023_Node000022"><a xlink:title=" ">
<path fill="none" stroke="#63b8ff" d="M1341.38,-187.81C1341.38,-179.64 1341.38,-170.91 1341.38,-163.83"/>
<polygon fill="#63b8ff" stroke="#63b8ff" points="1337.88,-187.6 1341.38,-197.6 1344.88,-187.6 1337.88,-187.6"/>
</a>
</g>
</g>
<!-- Node24 -->
<g id="Node000024" class="node">
<title>Node24</title>
<g id="a_Node000024"><a xlink:href="coro_2task_8hpp.html" target="_top" xlink:title=" ">
<polygon fill="white" stroke="#666666" points="1783.5,-163.5 1687.25,-163.5 1687.25,-133 1783.5,-133 1783.5,-163.5"/>
<text text-anchor="start" x="1695.25" y="-150" font-family="Helvetica,sans-Serif" font-size="10.00">include/yaclib/coro</text>
<text text-anchor="middle" x="1735.38" y="-138.75" font-family="Helvetica,sans-Serif" font-size="10.00">/task.hpp</text>
</a>
</g>
</g>
<!-- Node23&#45;&gt;Node24 -->
<g id="edge36_Node000023_Node000024" class="edge">
<title>Node23&#45;&gt;Node24</title>
<g id="a_edge36_Node000023_Node000024"><a xlink:title=" ">
<path fill="none" stroke="#63b8ff" d="M1399.66,-199.22C1523.03,-176.52 1558.15,-186.15 1678.38,-163.5 1681.18,-162.97 1684.06,-162.39 1686.95,-161.77"/>
<polygon fill="#63b8ff" stroke="#63b8ff" points="1399.31,-195.73 1390.13,-201.01 1400.6,-202.61 1399.31,-195.73"/>
</a>
</g>
</g>
<!-- Node25 -->
<g id="Node000025" class="node">
<title>Node25</title>
<g id="a_Node000025"><a xlink:href="lazy_2make_8hpp.html" target="_top" xlink:title=" ">
<polygon fill="white" stroke="#666666" points="1538.38,-97 1444.38,-97 1444.38,-66.5 1538.38,-66.5 1538.38,-97"/>
<text text-anchor="start" x="1452.38" y="-83.5" font-family="Helvetica,sans-Serif" font-size="10.00">include/yaclib/lazy</text>
<text text-anchor="middle" x="1491.38" y="-72.25" font-family="Helvetica,sans-Serif" font-size="10.00">/make.hpp</text>
</a>
</g>
</g>
<!-- Node23&#45;&gt;Node25 -->
<g id="edge37_Node000023_Node000025" class="edge">
<title>Node23&#45;&gt;Node25</title>
<g id="a_edge37_Node000023_Node000025"><a xlink:title=" ">
<path fill="none" stroke="#63b8ff" d="M1399.66,-198.19C1447.13,-185.24 1506.87,-168.19 1510.38,-163.5 1525.01,-143.88 1511.83,-114.71 1501.32,-97.32"/>
<polygon fill="#63b8ff" stroke="#63b8ff" points="1399.02,-194.74 1390.29,-200.74 1400.85,-201.49 1399.02,-194.74"/>
</a>
</g>
</g>
<!-- Node26 -->
<g id="Node000026" class="node">
<title>Node26</title>
<g id="a_Node000026"><a xlink:href="schedule_8hpp.html" target="_top" xlink:title=" ">
<polygon fill="white" stroke="#666666" points="1501.38,-163.5 1407.38,-163.5 1407.38,-133 1501.38,-133 1501.38,-163.5"/>
<text text-anchor="start" x="1415.38" y="-150" font-family="Helvetica,sans-Serif" font-size="10.00">include/yaclib/lazy</text>
<text text-anchor="middle" x="1454.38" y="-138.75" font-family="Helvetica,sans-Serif" font-size="10.00">/schedule.hpp</text>
</a>
</g>
</g>
<!-- Node23&#45;&gt;Node26 -->
<g id="edge38_Node000023_Node000026" class="edge">
<title>Node23&#45;&gt;Node26</title>
<g id="a_edge38_Node000023_Node000026"><a xlink:title=" ">
<path fill="none" stroke="#63b8ff" d="M1376.58,-193.66C1393.49,-184 1413.4,-172.64 1428.84,-163.83"/>
<polygon fill="#63b8ff" stroke="#63b8ff" points="1375.28,-190.37 1368.33,-198.36 1378.75,-196.45 1375.28,-190.37"/>
</a>
</g>
</g>
<!-- Node27 -->
<g id="Node000027" class="node">
<title>Node27</title>
<g id="a_Node000027"><a xlink:href="task__impl_8cpp.html" target="_top" xlink:title=" ">
<polygon fill="white" stroke="#666666" points="1669.38,-157.88 1557.38,-157.88 1557.38,-138.62 1669.38,-138.62 1669.38,-157.88"/>
<text text-anchor="middle" x="1613.38" y="-144.38" font-family="Helvetica,sans-Serif" font-size="10.00">src/lazy/task_impl.cpp</text>
</a>
</g>
</g>
<!-- Node23&#45;&gt;Node27 -->
<g id="edge40_Node000023_Node000027" class="edge">
<title>Node23&#45;&gt;Node27</title>
<g id="a_edge40_Node000023_Node000027"><a xlink:title=" ">
<path fill="none" stroke="#63b8ff" d="M1399.77,-198.94C1465.96,-182.9 1531.97,-167.72 1573.11,-158.36"/>
<polygon fill="#63b8ff" stroke="#63b8ff" points="1399.08,-195.51 1390.19,-201.27 1400.73,-202.31 1399.08,-195.51"/>
</a>
</g>
</g>
<!-- Node26&#45;&gt;Node25 -->
<g id="edge39_Node000026_Node000025" class="edge">
<title>Node26&#45;&gt;Node25</title>
<g id="a_edge39_Node000026_Node000025"><a xlink:title=" ">
<path fill="none" stroke="#63b8ff" d="M1468.44,-122.73C1473.36,-114.16 1478.71,-104.82 1483.01,-97.33"/>
<polygon fill="#63b8ff" stroke="#63b8ff" points="1465.46,-120.89 1463.52,-131.3 1471.54,-124.37 1465.46,-120.89"/>
</a>
</g>
</g>
</g>
</svg>

<g id="navigator" transform="translate(0 0)" fill="#404254">
  <rect fill="#f2f5e9" fill-opacity="0.5" stroke="#606060" stroke-width=".5" x="0" y="0" width="60" height="60"/>
  <use id="zoomplus" xlink:href="#zoomPlus" x="17" y="9" onmousedown="handleZoom(evt,'in')"/>
  <use id="zoomminus" xlink:href="#zoomMin" x="42" y="9" onmousedown="handleZoom(evt,'out')"/>
  <use id="reset" xlink:href="#resetDef" x="30" y="36" onmousedown="handleReset()"/>
   <use id="arrowup" xlink:href="#arrowUp" x="0" y="0" onmousedown="handlePan(0,-1)"/>
  <use id="arrowright" xlink:href="#arrowRight" x="0" y="0" onmousedown="handlePan(1,0)"/>
  <use id="arrowdown" xlink:href="#arrowDown" x="0" y="0" onmousedown="handlePan(0,1)"/>
  <use id="arrowleft" xlink:href="#arrowLeft" x="0" y="0" onmousedown="handlePan(-1,0)"/>
</g>
<svg viewBox="0 0 15 15" width="100%" height="30px" preserveAspectRatio="xMaxYMin meet">
 <g id="arrow_out" transform="scale(0.3 0.3)">
  <a xlink:href="wait_8hpp__dep__incl_org.svg" target="_base">
   <rect id="button" ry="5" rx="5" y="6" x="6" height="38" width="38"
        fill="#f2f5e9" fill-opacity="0.5" stroke="#606060" stroke-width="1.0"/>
   <path id="arrow"
     d="M 11.500037,31.436501 C 11.940474,20.09759 22.043105,11.32322 32.158766,21.979434 L 37.068811,17.246167 C 37.068811,17.246167 37.088388,32 37.088388,32 L 22.160133,31.978069 C 22.160133,31.978069 26.997745,27.140456 26.997745,27.140456 C 18.528582,18.264221 13.291696,25.230495 11.500037,31.436501 z"
     style="fill:#404040;"/>
  </a>
 </g>
</svg>

<style type='text/css'>
<![CDATA[
[data-mouse-over-selected='false'] { opacity: 0.7; }
[data-mouse-over-selected='true']  { opacity: 1.0; }
]]>
</style>
<script type="application/ecmascript"><![CDATA[
document.addEventListener('DOMContentLoaded', (event) => {
  highlightEdges();
  highlightAdjacentNodes();
});
]]></script>
</svg>
