<?xml version="1.0" encoding="UTF-8" standalone="no"?>
<!DOCTYPE svg PUBLIC "-//W3C//DTD SVG 1.1//EN"
 "http://www.w3.org/Graphics/SVG/1.1/DTD/svg11.dtd">
<!-- Generated by graphviz version 9.0.0 (20230911.1827)
 -->
<!-- Title: include/yaclib/algo/detail/wait_event.hpp Pages: 1 -->
<!--zoomable 470 -->

<svg id="main" version="1.1" xmlns="http://www.w3.org/2000/svg" xmlns:xlink="http://www.w3.org/1999/xlink" xml:space="preserve" onload="init(evt)">
<style type="text/css"><![CDATA[
.node, .edge {opacity: 0.7;}
.node.selected, .edge.selected {opacity: 1;}
.edge:hover path { stroke: red; }
.edge:hover polygon { stroke: red; fill: red; }
]]></style>

<defs>
  <circle id="rim" cx="0" cy="0" r="7"/>
  <circle id="rim2" cx="0" cy="0" r="3.5"/>
  <g id="zoomPlus">
    <use xlink:href="#rim" fill="#404040"><set attributeName="fill" to="#808080" begin="zoomplus.mouseover" end="zoomplus.mouseout"/></use>
    <path d="M-4,0h8M0,-4v8" fill="none" stroke="white" stroke-width="1.5" pointer-events="none"/>
  </g>
  <g id="zoomMin">
    <use xlink:href="#rim" fill="#404040"><set attributeName="fill" to="#808080" begin="zoomminus.mouseover" end="zoomminus.mouseout"/></use>
    <path d="M-4,0h8" fill="none" stroke="white" stroke-width="1.5" pointer-events="none"/>
  </g>
  <g id="arrowUp" transform="translate(30 24)">
    <use xlink:href="#rim"/>
    <path pointer-events="none" fill="none" stroke="white" stroke-width="1.5" d="M0,-3.0v7 M-2.5,-0.5L0,-3.0L2.5,-0.5"/>
  </g>
  <g id="arrowRight" transform="rotate(90) translate(36 -43)">
    <use xlink:href="#rim"/>
    <path pointer-events="none" fill="none" stroke="white" stroke-width="1.5" d="M0,-3.0v7 M-2.5,-0.5L0,-3.0L2.5,-0.5"/>
  </g>
  <g id="arrowDown" transform="rotate(180) translate(-30 -48)">
    <use xlink:href="#rim"/>
    <path pointer-events="none" fill="none" stroke="white" stroke-width="1.5" d="M0,-3.0v7 M-2.5,-0.5L0,-3.0L2.5,-0.5"/>
  </g>
  <g id="arrowLeft" transform="rotate(270) translate(-36 17)">
    <use xlink:href="#rim"/>
    <path pointer-events="none" fill="none" stroke="white" stroke-width="1.5" d="M0,-3.0v7 M-2.5,-0.5L0,-3.0L2.5,-0.5"/>
  </g>
  <g id="resetDef">
    <use xlink:href="#rim2" fill="#404040"><set attributeName="fill" to="#808080" begin="reset.mouseover" end="reset.mouseout"/></use>
  </g>
</defs>
<script type="application/ecmascript">
var viewWidth = 772;
var viewHeight = 470;
var sectionId = 'dynsection-0';
</script>
<script type="application/ecmascript" xlink:href="svg.min.js"/>
<svg id="graph" class="graph">
<g id="viewport">
<title>include/yaclib/algo/detail/wait_event.hpp</title>
<!-- Node1 -->
<g id="Node000001" class="node">
<title>Node1</title>
<g id="a_Node000001"><a xlink:title=" ">
<polygon fill="#999999" stroke="#666666" points="667.48,-462.25 556.98,-462.25 556.98,-431.75 667.48,-431.75 667.48,-462.25"/>
<text text-anchor="start" x="564.98" y="-448.75" font-family="Helvetica,sans-Serif" font-size="10.00">include/yaclib/algo</text>
<text text-anchor="middle" x="612.23" y="-437.5" font-family="Helvetica,sans-Serif" font-size="10.00">/detail/wait_event.hpp</text>
</a>
</g>
</g>
<!-- Node2 -->
<g id="Node000002" class="node">
<title>Node2</title>
<g id="a_Node000002"><a xlink:href="base__core_8hpp.html" target="_top" xlink:title=" ">
<polygon fill="white" stroke="#666666" points="392.23,-395.75 304.23,-395.75 304.23,-365.25 392.23,-365.25 392.23,-395.75"/>
<text text-anchor="start" x="312.23" y="-382.25" font-family="Helvetica,sans-Serif" font-size="10.00">yaclib/algo/detail</text>
<text text-anchor="middle" x="348.23" y="-371" font-family="Helvetica,sans-Serif" font-size="10.00">/base_core.hpp</text>
</a>
</g>
</g>
<!-- Node1&#45;&gt;Node2 -->
<g id="edge1_Node000001_Node000002" class="edge">
<title>Node1&#45;&gt;Node2</title>
<g id="a_edge1_Node000001_Node000002"><a xlink:title=" ">
<path fill="none" stroke="#63b8ff" d="M556.57,-432.4C511.52,-421.39 448.41,-405.97 403.48,-395"/>
<polygon fill="#63b8ff" stroke="#63b8ff" points="404.48,-391.64 393.94,-392.67 402.82,-398.44 404.48,-391.64"/>
</a>
</g>
</g>
<!-- Node21 -->
<g id="Node000021" class="node">
<title>Node21</title>
<g id="a_Node000021"><a xlink:href="cast_8hpp.html" target="_top" xlink:title=" ">
<polygon fill="white" stroke="#666666" points="660.36,-390.12 564.11,-390.12 564.11,-370.88 660.36,-370.88 660.36,-390.12"/>
<text text-anchor="middle" x="612.23" y="-376.62" font-family="Helvetica,sans-Serif" font-size="10.00">yaclib/util/cast.hpp</text>
</a>
</g>
</g>
<!-- Node1&#45;&gt;Node21 -->
<g id="edge29_Node000001_Node000021" class="edge">
<title>Node1&#45;&gt;Node21</title>
<g id="a_edge29_Node000001_Node000021"><a xlink:title=" ">
<path fill="none" stroke="#63b8ff" d="M612.23,-431.36C612.23,-422.58 612.23,-411.27 612.23,-401.65"/>
<polygon fill="#63b8ff" stroke="#63b8ff" points="615.73,-401.84 612.23,-391.84 608.73,-401.84 615.73,-401.84"/>
</a>
</g>
</g>
<!-- Node23 -->
<g id="Node000023" class="node">
<title>Node23</title>
<g id="a_Node000023"><a xlink:href="set__deleter_8hpp.html" target="_top" xlink:title=" ">
<polygon fill="white" stroke="#666666" points="763.73,-395.75 678.73,-395.75 678.73,-365.25 763.73,-365.25 763.73,-395.75"/>
<text text-anchor="start" x="686.73" y="-382.25" font-family="Helvetica,sans-Serif" font-size="10.00">yaclib/util/detail</text>
<text text-anchor="middle" x="721.23" y="-371" font-family="Helvetica,sans-Serif" font-size="10.00">/set_deleter.hpp</text>
</a>
</g>
</g>
<!-- Node1&#45;&gt;Node23 -->
<g id="edge32_Node000001_Node000023" class="edge">
<title>Node1&#45;&gt;Node23</title>
<g id="a_edge32_Node000001_Node000023"><a xlink:title=" ">
<path fill="none" stroke="#63b8ff" d="M636.97,-431.36C651.74,-422.62 670.72,-411.39 686.93,-401.8"/>
<polygon fill="#63b8ff" stroke="#63b8ff" points="688.47,-404.95 695.3,-396.85 684.91,-398.93 688.47,-404.95"/>
</a>
</g>
</g>
<!-- Node3 -->
<g id="Node000003" class="node">
<title>Node3</title>
<g id="a_Node000003"><a xlink:href="inline__core_8hpp.html" target="_top" xlink:title=" ">
<polygon fill="white" stroke="#666666" points="119.23,-329.25 31.23,-329.25 31.23,-298.75 119.23,-298.75 119.23,-329.25"/>
<text text-anchor="start" x="39.23" y="-315.75" font-family="Helvetica,sans-Serif" font-size="10.00">yaclib/algo/detail</text>
<text text-anchor="middle" x="75.23" y="-304.5" font-family="Helvetica,sans-Serif" font-size="10.00">/inline_core.hpp</text>
</a>
</g>
</g>
<!-- Node2&#45;&gt;Node3 -->
<g id="edge2_Node000002_Node000003" class="edge">
<title>Node2&#45;&gt;Node3</title>
<g id="a_edge2_Node000002_Node000003"><a xlink:title=" ">
<path fill="none" stroke="#63b8ff" d="M304.14,-369.35C260.66,-359.3 192.32,-343.41 133.23,-329.25 132.4,-329.05 131.56,-328.85 130.72,-328.65"/>
<polygon fill="#63b8ff" stroke="#63b8ff" points="131.57,-325.25 121.03,-326.3 129.92,-332.05 131.57,-325.25"/>
</a>
</g>
</g>
<!-- Node4 -->
<g id="Node000004" class="node">
<title>Node4</title>
<g id="a_Node000004"><a xlink:title=" ">
<polygon fill="#e0e0e0" stroke="#999999" points="192.86,-262.75 105.61,-262.75 105.61,-243.5 192.86,-243.5 192.86,-262.75"/>
<text text-anchor="middle" x="149.23" y="-249.25" font-family="Helvetica,sans-Serif" font-size="10.00">yaclib/config.hpp</text>
</a>
</g>
</g>
<!-- Node2&#45;&gt;Node4 -->
<g id="edge13_Node000002_Node000004" class="edge">
<title>Node2&#45;&gt;Node4</title>
<g id="a_edge13_Node000002_Node000004"><a xlink:title=" ">
<path fill="none" stroke="#63b8ff" d="M303.97,-379.5C262.55,-377.01 201.88,-366.6 166.23,-329.25 152.26,-314.6 148.87,-291 148.43,-274.16"/>
<polygon fill="#63b8ff" stroke="#63b8ff" points="151.93,-274.41 148.53,-264.38 144.93,-274.34 151.93,-274.41"/>
</a>
</g>
</g>
<!-- Node6 -->
<g id="Node000006" class="node">
<title>Node6</title>
<g id="a_Node000006"><a xlink:href="log_8hpp.html" target="_top" xlink:title=" ">
<polygon fill="white" stroke="#666666" points="95.48,-74.5 20.98,-74.5 20.98,-55.25 95.48,-55.25 95.48,-74.5"/>
<text text-anchor="middle" x="58.23" y="-61" font-family="Helvetica,sans-Serif" font-size="10.00">yaclib/log.hpp</text>
</a>
</g>
</g>
<!-- Node2&#45;&gt;Node6 -->
<g id="edge24_Node000002_Node000006" class="edge">
<title>Node2&#45;&gt;Node6</title>
<g id="a_edge24_Node000002_Node000006"><a xlink:title=" ">
<path fill="none" stroke="#63b8ff" d="M303.77,-378.45C224.48,-375.65 63.15,-365.54 22.23,-329.25 -3.7,-306.24 1.23,-288.79 1.23,-254.12 1.23,-254.12 1.23,-254.12 1.23,-191.25 1.23,-150.01 27.11,-107.43 43.99,-84.03"/>
<polygon fill="#63b8ff" stroke="#63b8ff" points="46.68,-86.29 49.87,-76.19 41.08,-82.09 46.68,-86.29"/>
</a>
</g>
</g>
<!-- Node10 -->
<g id="Node000010" class="node">
<title>Node10</title>
<g id="a_Node000010"><a xlink:href="ref_8hpp.html" target="_top" xlink:title=" ">
<polygon fill="white" stroke="#666666" points="505.61,-74.5 416.86,-74.5 416.86,-55.25 505.61,-55.25 505.61,-74.5"/>
<text text-anchor="middle" x="461.23" y="-61" font-family="Helvetica,sans-Serif" font-size="10.00">yaclib/util/ref.hpp</text>
</a>
</g>
</g>
<!-- Node2&#45;&gt;Node10 -->
<g id="edge25_Node000002_Node000010" class="edge">
<title>Node2&#45;&gt;Node10</title>
<g id="a_edge25_Node000002_Node000010"><a xlink:title=" ">
<path fill="none" stroke="#63b8ff" d="M392.6,-377.17C433.08,-372.97 492.61,-361.32 533.23,-329.25 563.09,-305.68 574.23,-292.16 574.23,-254.12 574.23,-254.12 574.23,-254.12 574.23,-191.25 574.23,-140.26 522.03,-100.67 488.59,-80.53"/>
<polygon fill="#63b8ff" stroke="#63b8ff" points="490.61,-77.66 480.2,-75.67 487.1,-83.71 490.61,-77.66"/>
</a>
</g>
</g>
<!-- Node13 -->
<g id="Node000013" class="node">
<title>Node13</title>
<g id="a_Node000013"><a xlink:href="executor_8hpp.html" target="_top" xlink:title=" ">
<polygon fill="white" stroke="#666666" points="447.48,-262.75 330.98,-262.75 330.98,-243.5 447.48,-243.5 447.48,-262.75"/>
<text text-anchor="middle" x="389.23" y="-249.25" font-family="Helvetica,sans-Serif" font-size="10.00">yaclib/exe/executor.hpp</text>
</a>
</g>
</g>
<!-- Node2&#45;&gt;Node13 -->
<g id="edge14_Node000002_Node000013" class="edge">
<title>Node2&#45;&gt;Node13</title>
<g id="a_edge14_Node000002_Node000013"><a xlink:title=" ">
<path fill="none" stroke="#63b8ff" d="M392.62,-372.42C437.49,-364.24 502.27,-349.31 517.23,-329.25 540.46,-298.12 491.96,-277.6 448.15,-266"/>
<polygon fill="#63b8ff" stroke="#63b8ff" points="449.18,-262.65 438.63,-263.6 447.47,-269.43 449.18,-262.65"/>
</a>
</g>
</g>
<!-- Node16 -->
<g id="Node000016" class="node">
<title>Node16</title>
<g id="a_Node000016"><a xlink:href="inline_8hpp.html" target="_top" xlink:title=" ">
<polygon fill="white" stroke="#666666" points="277.36,-323.62 175.11,-323.62 175.11,-304.38 277.36,-304.38 277.36,-323.62"/>
<text text-anchor="middle" x="226.23" y="-310.12" font-family="Helvetica,sans-Serif" font-size="10.00">yaclib/exe/inline.hpp</text>
</a>
</g>
</g>
<!-- Node2&#45;&gt;Node16 -->
<g id="edge21_Node000002_Node000016" class="edge">
<title>Node2&#45;&gt;Node16</title>
<g id="a_edge21_Node000002_Node000016"><a xlink:title=" ">
<path fill="none" stroke="#63b8ff" d="M320.55,-364.86C300.41,-354.21 273.27,-339.87 253.28,-329.3"/>
<polygon fill="#63b8ff" stroke="#63b8ff" points="255.09,-326.3 244.61,-324.72 251.82,-332.49 255.09,-326.3"/>
</a>
</g>
</g>
<!-- Node18 -->
<g id="Node000018" class="node">
<title>Node18</title>
<g id="a_Node000018"><a xlink:title=" ">
<polygon fill="#e0e0e0" stroke="#999999" points="340.86,-323.62 295.61,-323.62 295.61,-304.38 340.86,-304.38 340.86,-323.62"/>
<text text-anchor="middle" x="318.23" y="-310.12" font-family="Helvetica,sans-Serif" font-size="10.00">cstdint</text>
</a>
</g>
</g>
<!-- Node2&#45;&gt;Node18 -->
<g id="edge26_Node000002_Node000018" class="edge">
<title>Node2&#45;&gt;Node18</title>
<g id="a_edge26_Node000002_Node000018"><a xlink:title=" ">
<path fill="none" stroke="#63b8ff" d="M341.43,-364.86C337.2,-355.78 331.73,-344.01 327.16,-334.18"/>
<polygon fill="#63b8ff" stroke="#63b8ff" points="330.37,-332.79 322.98,-325.2 324.02,-335.74 330.37,-332.79"/>
</a>
</g>
</g>
<!-- Node19 -->
<g id="Node000019" class="node">
<title>Node19</title>
<g id="a_Node000019"><a xlink:title=" ">
<polygon fill="#e0e0e0" stroke="#999999" points="397.86,-323.62 358.61,-323.62 358.61,-304.38 397.86,-304.38 397.86,-323.62"/>
<text text-anchor="middle" x="378.23" y="-310.12" font-family="Helvetica,sans-Serif" font-size="10.00">limits</text>
</a>
</g>
</g>
<!-- Node2&#45;&gt;Node19 -->
<g id="edge27_Node000002_Node000019" class="edge">
<title>Node2&#45;&gt;Node19</title>
<g id="a_edge27_Node000002_Node000019"><a xlink:title=" ">
<path fill="none" stroke="#63b8ff" d="M355.04,-364.86C359.27,-355.78 364.74,-344.01 369.31,-334.18"/>
<polygon fill="#63b8ff" stroke="#63b8ff" points="372.45,-335.74 373.49,-325.2 366.1,-332.79 372.45,-335.74"/>
</a>
</g>
</g>
<!-- Node20 -->
<g id="Node000020" class="node">
<title>Node20</title>
<g id="a_Node000020"><a xlink:title=" ">
<polygon fill="#e0e0e0" stroke="#999999" points="508.11,-323.62 416.36,-323.62 416.36,-304.38 508.11,-304.38 508.11,-323.62"/>
<text text-anchor="middle" x="462.23" y="-310.12" font-family="Helvetica,sans-Serif" font-size="10.00">yaclib_std/atomic</text>
</a>
</g>
</g>
<!-- Node2&#45;&gt;Node20 -->
<g id="edge28_Node000002_Node000020" class="edge">
<title>Node2&#45;&gt;Node20</title>
<g id="a_edge28_Node000002_Node000020"><a xlink:title=" ">
<path fill="none" stroke="#63b8ff" d="M374.1,-364.86C392.75,-354.31 417.81,-340.13 436.44,-329.59"/>
<polygon fill="#63b8ff" stroke="#63b8ff" points="438.01,-332.73 444.99,-324.76 434.57,-326.63 438.01,-332.73"/>
</a>
</g>
</g>
<!-- Node3&#45;&gt;Node4 -->
<g id="edge3_Node000003_Node000004" class="edge">
<title>Node3&#45;&gt;Node4</title>
<g id="a_edge3_Node000003_Node000004"><a xlink:title=" ">
<path fill="none" stroke="#63b8ff" d="M93.53,-298.45C104.25,-289.91 117.82,-279.12 128.89,-270.31"/>
<polygon fill="#63b8ff" stroke="#63b8ff" points="131,-273.11 136.64,-264.14 126.64,-267.63 131,-273.11"/>
</a>
</g>
</g>
<!-- Node5 -->
<g id="Node000005" class="node">
<title>Node5</title>
<g id="a_Node000005"><a xlink:href="job_8hpp.html" target="_top" xlink:title=" ">
<polygon fill="white" stroke="#666666" points="192.48,-201.88 99.98,-201.88 99.98,-182.62 192.48,-182.62 192.48,-201.88"/>
<text text-anchor="middle" x="146.23" y="-188.38" font-family="Helvetica,sans-Serif" font-size="10.00">yaclib/exe/job.hpp</text>
</a>
</g>
</g>
<!-- Node3&#45;&gt;Node5 -->
<g id="edge4_Node000003_Node000005" class="edge">
<title>Node3&#45;&gt;Node5</title>
<g id="a_edge4_Node000003_Node000005"><a xlink:title=" ">
<path fill="none" stroke="#63b8ff" d="M77.52,-298.32C80.28,-283.64 85.9,-260.82 96.23,-243.5 103.86,-230.72 115.45,-218.79 125.55,-209.77"/>
<polygon fill="#63b8ff" stroke="#63b8ff" points="127.75,-212.49 133.09,-203.34 123.21,-207.17 127.75,-212.49"/>
</a>
</g>
</g>
<!-- Node3&#45;&gt;Node6 -->
<g id="edge12_Node000003_Node000006" class="edge">
<title>Node3&#45;&gt;Node6</title>
<g id="a_edge12_Node000003_Node000006"><a xlink:title=" ">
<path fill="none" stroke="#63b8ff" d="M74.22,-298.28C71.32,-256.12 62.98,-134.8 59.64,-86.28"/>
<polygon fill="#63b8ff" stroke="#63b8ff" points="63.14,-86.14 58.96,-76.4 56.15,-86.62 63.14,-86.14"/>
</a>
</g>
</g>
<!-- Node5&#45;&gt;Node6 -->
<g id="edge5_Node000005_Node000006" class="edge">
<title>Node5&#45;&gt;Node6</title>
<g id="a_edge5_Node000005_Node000006"><a xlink:title=" ">
<path fill="none" stroke="#63b8ff" d="M135.68,-182.44C124.83,-172.99 107.91,-157.16 96.23,-141 83.55,-123.44 72.81,-101.03 66.02,-85.27"/>
<polygon fill="#63b8ff" stroke="#63b8ff" points="69.28,-84 62.21,-76.11 62.82,-86.69 69.28,-84"/>
</a>
</g>
</g>
<!-- Node8 -->
<g id="Node000008" class="node">
<title>Node8</title>
<g id="a_Node000008"><a xlink:href="node_8hpp.html" target="_top" xlink:title=" ">
<polygon fill="white" stroke="#666666" points="187.61,-141 104.86,-141 104.86,-110.5 187.61,-110.5 187.61,-141"/>
<text text-anchor="start" x="112.86" y="-127.5" font-family="Helvetica,sans-Serif" font-size="10.00">yaclib/util/detail</text>
<text text-anchor="middle" x="146.23" y="-116.25" font-family="Helvetica,sans-Serif" font-size="10.00">/node.hpp</text>
</a>
</g>
</g>
<!-- Node5&#45;&gt;Node8 -->
<g id="edge7_Node000005_Node000008" class="edge">
<title>Node5&#45;&gt;Node8</title>
<g id="a_edge7_Node000005_Node000008"><a xlink:title=" ">
<path fill="none" stroke="#63b8ff" d="M146.23,-182.28C146.23,-174.54 146.23,-162.95 146.23,-152.37"/>
<polygon fill="#63b8ff" stroke="#63b8ff" points="149.73,-152.61 146.23,-142.61 142.73,-152.61 149.73,-152.61"/>
</a>
</g>
</g>
<!-- Node9 -->
<g id="Node000009" class="node">
<title>Node9</title>
<g id="a_Node000009"><a xlink:href="func_8hpp.html" target="_top" xlink:title=" ">
<polygon fill="white" stroke="#666666" points="433.36,-135.38 337.11,-135.38 337.11,-116.12 433.36,-116.12 433.36,-135.38"/>
<text text-anchor="middle" x="385.23" y="-121.88" font-family="Helvetica,sans-Serif" font-size="10.00">yaclib/util/func.hpp</text>
</a>
</g>
</g>
<!-- Node5&#45;&gt;Node9 -->
<g id="edge8_Node000005_Node000009" class="edge">
<title>Node5&#45;&gt;Node9</title>
<g id="a_edge8_Node000005_Node000009"><a xlink:title=" ">
<path fill="none" stroke="#63b8ff" d="M179.97,-182.15C222.05,-170.79 294.12,-151.34 340.7,-138.77"/>
<polygon fill="#63b8ff" stroke="#63b8ff" points="341.47,-142.19 350.21,-136.2 339.64,-135.43 341.47,-142.19"/>
</a>
</g>
</g>
<!-- Node7 -->
<g id="Node000007" class="node">
<title>Node7</title>
<g id="a_Node000007"><a xlink:title=" ">
<polygon fill="#e0e0e0" stroke="#999999" points="90.98,-19.25 25.48,-19.25 25.48,0 90.98,0 90.98,-19.25"/>
<text text-anchor="middle" x="58.23" y="-5.75" font-family="Helvetica,sans-Serif" font-size="10.00">string_view</text>
</a>
</g>
</g>
<!-- Node6&#45;&gt;Node7 -->
<g id="edge6_Node000006_Node000007" class="edge">
<title>Node6&#45;&gt;Node7</title>
<g id="a_edge6_Node000006_Node000007"><a xlink:title=" ">
<path fill="none" stroke="#63b8ff" d="M58.23,-55.08C58.23,-48.57 58.23,-39.42 58.23,-31.12"/>
<polygon fill="#63b8ff" stroke="#63b8ff" points="61.73,-31.12 58.23,-21.12 54.73,-31.12 61.73,-31.12"/>
</a>
</g>
</g>
<!-- Node9&#45;&gt;Node10 -->
<g id="edge9_Node000009_Node000010" class="edge">
<title>Node9&#45;&gt;Node10</title>
<g id="a_edge9_Node000009_Node000010"><a xlink:title=" ">
<path fill="none" stroke="#63b8ff" d="M396.78,-115.81C408.38,-106.82 426.53,-92.76 440.61,-81.85"/>
<polygon fill="#63b8ff" stroke="#63b8ff" points="442.62,-84.72 448.39,-75.83 438.34,-79.19 442.62,-84.72"/>
</a>
</g>
</g>
<!-- Node11 -->
<g id="Node000011" class="node">
<title>Node11</title>
<g id="a_Node000011"><a xlink:title=" ">
<polygon fill="#e0e0e0" stroke="#999999" points="584.73,-74.5 523.73,-74.5 523.73,-55.25 584.73,-55.25 584.73,-74.5"/>
<text text-anchor="middle" x="554.23" y="-61" font-family="Helvetica,sans-Serif" font-size="10.00">type_traits</text>
</a>
</g>
</g>
<!-- Node9&#45;&gt;Node11 -->
<g id="edge10_Node000009_Node000011" class="edge">
<title>Node9&#45;&gt;Node11</title>
<g id="a_edge10_Node000009_Node000011"><a xlink:title=" ">
<path fill="none" stroke="#63b8ff" d="M411.27,-115.68C439.68,-105.78 485.38,-89.86 517.45,-78.69"/>
<polygon fill="#63b8ff" stroke="#63b8ff" points="518.45,-82.05 526.74,-75.45 516.14,-75.44 518.45,-82.05"/>
</a>
</g>
</g>
<!-- Node12 -->
<g id="Node000012" class="node">
<title>Node12</title>
<g id="a_Node000012"><a xlink:title=" ">
<polygon fill="#e0e0e0" stroke="#999999" points="398.48,-74.5 359.98,-74.5 359.98,-55.25 398.48,-55.25 398.48,-74.5"/>
<text text-anchor="middle" x="379.23" y="-61" font-family="Helvetica,sans-Serif" font-size="10.00">utility</text>
</a>
</g>
</g>
<!-- Node9&#45;&gt;Node12 -->
<g id="edge11_Node000009_Node000012" class="edge">
<title>Node9&#45;&gt;Node12</title>
<g id="a_edge11_Node000009_Node000012"><a xlink:title=" ">
<path fill="none" stroke="#63b8ff" d="M384.32,-115.81C383.52,-107.94 382.32,-96.2 381.29,-86.07"/>
<polygon fill="#63b8ff" stroke="#63b8ff" points="384.8,-86 380.31,-76.41 377.84,-86.71 384.8,-86"/>
</a>
</g>
</g>
<!-- Node13&#45;&gt;Node5 -->
<g id="edge15_Node000013_Node000005" class="edge">
<title>Node13&#45;&gt;Node5</title>
<g id="a_edge15_Node000013_Node000005"><a xlink:title=" ">
<path fill="none" stroke="#63b8ff" d="M351.8,-243.05C309.61,-232.83 240.91,-216.19 194.67,-204.98"/>
<polygon fill="#63b8ff" stroke="#63b8ff" points="195.73,-201.64 185.18,-202.69 194.08,-208.44 195.73,-201.64"/>
</a>
</g>
</g>
<!-- Node14 -->
<g id="Node000014" class="node">
<title>Node14</title>
<g id="a_Node000014"><a xlink:href="intrusive__ptr_8hpp.html" target="_top" xlink:title=" ">
<polygon fill="white" stroke="#666666" points="461.36,-207.5 365.11,-207.5 365.11,-177 461.36,-177 461.36,-207.5"/>
<text text-anchor="start" x="373.11" y="-194" font-family="Helvetica,sans-Serif" font-size="10.00">yaclib/util/intrusive</text>
<text text-anchor="middle" x="413.23" y="-182.75" font-family="Helvetica,sans-Serif" font-size="10.00">_ptr.hpp</text>
</a>
</g>
</g>
<!-- Node13&#45;&gt;Node14 -->
<g id="edge16_Node000013_Node000014" class="edge">
<title>Node13&#45;&gt;Node14</title>
<g id="a_edge16_Node000013_Node000014"><a xlink:title=" ">
<path fill="none" stroke="#63b8ff" d="M392.88,-243.18C395.57,-236.58 399.38,-227.24 402.97,-218.43"/>
<polygon fill="#63b8ff" stroke="#63b8ff" points="406.2,-219.77 406.74,-209.18 399.72,-217.12 406.2,-219.77"/>
</a>
</g>
</g>
<!-- Node14&#45;&gt;Node10 -->
<g id="edge17_Node000014_Node000010" class="edge">
<title>Node14&#45;&gt;Node10</title>
<g id="a_edge17_Node000014_Node000010"><a xlink:title=" ">
<path fill="none" stroke="#63b8ff" d="M422.98,-176.84C429.22,-167.08 437.08,-153.69 442.23,-141 449.51,-123.08 454.6,-101.6 457.67,-86.2"/>
<polygon fill="#63b8ff" stroke="#63b8ff" points="461.11,-86.88 459.5,-76.4 454.23,-85.59 461.11,-86.88"/>
</a>
</g>
</g>
<!-- Node14&#45;&gt;Node11 -->
<g id="edge18_Node000014_Node000011" class="edge">
<title>Node14&#45;&gt;Node11</title>
<g id="a_edge18_Node000014_Node000011"><a xlink:title=" ">
<path fill="none" stroke="#63b8ff" d="M429.68,-176.62C456.18,-153.06 508.14,-106.86 535.83,-82.24"/>
<polygon fill="#63b8ff" stroke="#63b8ff" points="537.94,-85.04 543.09,-75.78 533.29,-79.81 537.94,-85.04"/>
</a>
</g>
</g>
<!-- Node15 -->
<g id="Node000015" class="node">
<title>Node15</title>
<g id="a_Node000015"><a xlink:href="intrusive__ptr__impl_8hpp.html" target="_top" xlink:title=" ">
<polygon fill="white" stroke="#666666" points="318.98,-141 205.48,-141 205.48,-110.5 318.98,-110.5 318.98,-141"/>
<text text-anchor="start" x="213.48" y="-127.5" font-family="Helvetica,sans-Serif" font-size="10.00">yaclib/util/detail</text>
<text text-anchor="middle" x="262.23" y="-116.25" font-family="Helvetica,sans-Serif" font-size="10.00">/intrusive_ptr_impl.hpp</text>
</a>
</g>
</g>
<!-- Node14&#45;&gt;Node15 -->
<g id="edge19_Node000014_Node000015" class="edge">
<title>Node14&#45;&gt;Node15</title>
<g id="a_edge19_Node000014_Node000015"><a xlink:title=" ">
<path fill="none" stroke="#63b8ff" d="M378.97,-176.61C357.71,-167.53 330.16,-155.77 307.16,-145.94"/>
<polygon fill="#63b8ff" stroke="#63b8ff" points="308.59,-142.74 298.02,-142.03 305.84,-149.18 308.59,-142.74"/>
</a>
</g>
</g>
<!-- Node15&#45;&gt;Node6 -->
<g id="edge20_Node000015_Node000006" class="edge">
<title>Node15&#45;&gt;Node6</title>
<g id="a_edge20_Node000015_Node000006"><a xlink:title=" ">
<path fill="none" stroke="#63b8ff" d="M211.28,-110.05C177.18,-100.2 132.83,-87.4 100.66,-78.12"/>
<polygon fill="#63b8ff" stroke="#63b8ff" points="101.85,-74.82 91.27,-75.41 99.91,-81.55 101.85,-74.82"/>
</a>
</g>
</g>
<!-- Node16&#45;&gt;Node13 -->
<g id="edge22_Node000016_Node000013" class="edge">
<title>Node16&#45;&gt;Node13</title>
<g id="a_edge22_Node000016_Node000013"><a xlink:title=" ">
<path fill="none" stroke="#63b8ff" d="M251.35,-303.93C278.63,-294.08 322.44,-278.25 353.35,-267.09"/>
<polygon fill="#63b8ff" stroke="#63b8ff" points="354.45,-270.41 362.67,-263.72 352.08,-263.83 354.45,-270.41"/>
</a>
</g>
</g>
<!-- Node17 -->
<g id="Node000017" class="node">
<title>Node17</title>
<g id="a_Node000017"><a xlink:href="fwd_8hpp.html" target="_top" xlink:title=" ">
<polygon fill="white" stroke="#666666" points="287.98,-262.75 210.48,-262.75 210.48,-243.5 287.98,-243.5 287.98,-262.75"/>
<text text-anchor="middle" x="249.23" y="-249.25" font-family="Helvetica,sans-Serif" font-size="10.00">yaclib/fwd.hpp</text>
</a>
</g>
</g>
<!-- Node16&#45;&gt;Node17 -->
<g id="edge23_Node000016_Node000017" class="edge">
<title>Node16&#45;&gt;Node17</title>
<g id="a_edge23_Node000016_Node000017"><a xlink:title=" ">
<path fill="none" stroke="#63b8ff" d="M229.73,-304.06C232.87,-296.02 237.59,-283.93 241.6,-273.66"/>
<polygon fill="#63b8ff" stroke="#63b8ff" points="244.78,-275.15 245.16,-264.56 238.26,-272.6 244.78,-275.15"/>
</a>
</g>
</g>
<!-- Node21&#45;&gt;Node11 -->
<g id="edge31_Node000021_Node000011" class="edge">
<title>Node21&#45;&gt;Node11</title>
<g id="a_edge31_Node000021_Node000011"><a xlink:title=" ">
<path fill="none" stroke="#63b8ff" d="M612.23,-370.38C612.23,-349.69 612.23,-297.66 612.23,-254.12 612.23,-254.12 612.23,-254.12 612.23,-191.25 612.23,-153.81 605.19,-143.88 588.23,-110.5 583.34,-100.87 576.31,-91.21 569.9,-83.35"/>
<polygon fill="#63b8ff" stroke="#63b8ff" points="572.73,-81.27 563.58,-75.93 567.41,-85.81 572.73,-81.27"/>
</a>
</g>
</g>
<!-- Node22 -->
<g id="Node000022" class="node">
<title>Node22</title>
<g id="a_Node000022"><a xlink:title=" ">
<polygon fill="#e0e0e0" stroke="#999999" points="690.48,-323.62 639.98,-323.62 639.98,-304.38 690.48,-304.38 690.48,-323.62"/>
<text text-anchor="middle" x="665.23" y="-310.12" font-family="Helvetica,sans-Serif" font-size="10.00">memory</text>
</a>
</g>
</g>
<!-- Node21&#45;&gt;Node22 -->
<g id="edge30_Node000021_Node000022" class="edge">
<title>Node21&#45;&gt;Node22</title>
<g id="a_edge30_Node000021_Node000022"><a xlink:title=" ">
<path fill="none" stroke="#63b8ff" d="M619.6,-370.53C627.59,-360.81 640.55,-345.04 650.62,-332.78"/>
<polygon fill="#63b8ff" stroke="#63b8ff" points="653.32,-335.01 656.97,-325.06 647.91,-330.57 653.32,-335.01"/>
</a>
</g>
</g>
</g>
</svg>

<g id="navigator" transform="translate(0 0)" fill="#404254">
  <rect fill="#f2f5e9" fill-opacity="0.5" stroke="#606060" stroke-width=".5" x="0" y="0" width="60" height="60"/>
  <use id="zoomplus" xlink:href="#zoomPlus" x="17" y="9" onmousedown="handleZoom(evt,'in')"/>
  <use id="zoomminus" xlink:href="#zoomMin" x="42" y="9" onmousedown="handleZoom(evt,'out')"/>
  <use id="reset" xlink:href="#resetDef" x="30" y="36" onmousedown="handleReset()"/>
   <use id="arrowup" xlink:href="#arrowUp" x="0" y="0" onmousedown="handlePan(0,-1)"/>
  <use id="arrowright" xlink:href="#arrowRight" x="0" y="0" onmousedown="handlePan(1,0)"/>
  <use id="arrowdown" xlink:href="#arrowDown" x="0" y="0" onmousedown="handlePan(0,1)"/>
  <use id="arrowleft" xlink:href="#arrowLeft" x="0" y="0" onmousedown="handlePan(-1,0)"/>
</g>
<svg viewBox="0 0 15 15" width="100%" height="30px" preserveAspectRatio="xMaxYMin meet">
 <g id="arrow_out" transform="scale(0.3 0.3)">
  <a xlink:href="wait__event_8hpp__incl_org.svg" target="_base">
   <rect id="button" ry="5" rx="5" y="6" x="6" height="38" width="38"
        fill="#f2f5e9" fill-opacity="0.5" stroke="#606060" stroke-width="1.0"/>
   <path id="arrow"
     d="M 11.500037,31.436501 C 11.940474,20.09759 22.043105,11.32322 32.158766,21.979434 L 37.068811,17.246167 C 37.068811,17.246167 37.088388,32 37.088388,32 L 22.160133,31.978069 C 22.160133,31.978069 26.997745,27.140456 26.997745,27.140456 C 18.528582,18.264221 13.291696,25.230495 11.500037,31.436501 z"
     style="fill:#404040;"/>
  </a>
 </g>
</svg>

<style type='text/css'>
<![CDATA[
[data-mouse-over-selected='false'] { opacity: 0.7; }
[data-mouse-over-selected='true']  { opacity: 1.0; }
]]>
</style>
<script type="application/ecmascript"><![CDATA[
document.addEventListener('DOMContentLoaded', (event) => {
  highlightEdges();
  highlightAdjacentNodes();
});
]]></script>
</svg>
