<?xml version="1.0" encoding="UTF-8" standalone="no"?>
<!DOCTYPE svg PUBLIC "-//W3C//DTD SVG 1.1//EN"
 "http://www.w3.org/Graphics/SVG/1.1/DTD/svg11.dtd">
<!-- Generated by graphviz version 9.0.0 (20230911.1827)
 -->
<!-- Title: src/async/wait_impl.cpp Pages: 1 -->
<!--zoomable 603 -->

<svg id="main" version="1.1" xmlns="http://www.w3.org/2000/svg" xmlns:xlink="http://www.w3.org/1999/xlink" xml:space="preserve" onload="init(evt)">
<style type="text/css"><![CDATA[
.node, .edge {opacity: 0.7;}
.node.selected, .edge.selected {opacity: 1;}
.edge:hover path { stroke: red; }
.edge:hover polygon { stroke: red; fill: red; }
]]></style>

<defs>
  <circle id="rim" cx="0" cy="0" r="7"/>
  <circle id="rim2" cx="0" cy="0" r="3.5"/>
  <g id="zoomPlus">
    <use xlink:href="#rim" fill="#404040"><set attributeName="fill" to="#808080" begin="zoomplus.mouseover" end="zoomplus.mouseout"/></use>
    <path d="M-4,0h8M0,-4v8" fill="none" stroke="white" stroke-width="1.5" pointer-events="none"/>
  </g>
  <g id="zoomMin">
    <use xlink:href="#rim" fill="#404040"><set attributeName="fill" to="#808080" begin="zoomminus.mouseover" end="zoomminus.mouseout"/></use>
    <path d="M-4,0h8" fill="none" stroke="white" stroke-width="1.5" pointer-events="none"/>
  </g>
  <g id="arrowUp" transform="translate(30 24)">
    <use xlink:href="#rim"/>
    <path pointer-events="none" fill="none" stroke="white" stroke-width="1.5" d="M0,-3.0v7 M-2.5,-0.5L0,-3.0L2.5,-0.5"/>
  </g>
  <g id="arrowRight" transform="rotate(90) translate(36 -43)">
    <use xlink:href="#rim"/>
    <path pointer-events="none" fill="none" stroke="white" stroke-width="1.5" d="M0,-3.0v7 M-2.5,-0.5L0,-3.0L2.5,-0.5"/>
  </g>
  <g id="arrowDown" transform="rotate(180) translate(-30 -48)">
    <use xlink:href="#rim"/>
    <path pointer-events="none" fill="none" stroke="white" stroke-width="1.5" d="M0,-3.0v7 M-2.5,-0.5L0,-3.0L2.5,-0.5"/>
  </g>
  <g id="arrowLeft" transform="rotate(270) translate(-36 17)">
    <use xlink:href="#rim"/>
    <path pointer-events="none" fill="none" stroke="white" stroke-width="1.5" d="M0,-3.0v7 M-2.5,-0.5L0,-3.0L2.5,-0.5"/>
  </g>
  <g id="resetDef">
    <use xlink:href="#rim2" fill="#404040"><set attributeName="fill" to="#808080" begin="reset.mouseover" end="reset.mouseout"/></use>
  </g>
</defs>
<script type="application/ecmascript">
var viewWidth = 1309;
var viewHeight = 603;
var sectionId = 'dynsection-0';
</script>
<script type="application/ecmascript" xlink:href="svg.min.js"/>
<svg id="graph" class="graph">
<g id="viewport">
<title>src/async/wait_impl.cpp</title>
<!-- Node1 -->
<g id="Node000001" class="node">
<title>Node1</title>
<g id="a_Node000001"><a xlink:title=" ">
<polygon fill="#999999" stroke="#666666" points="1007.12,-595.25 886.88,-595.25 886.88,-576 1007.12,-576 1007.12,-595.25"/>
<text text-anchor="middle" x="947" y="-581.75" font-family="Helvetica,sans-Serif" font-size="10.00">src/async/wait_impl.cpp</text>
</a>
</g>
</g>
<!-- Node2 -->
<g id="Node000002" class="node">
<title>Node2</title>
<g id="a_Node000002"><a xlink:href="wait__impl_8hpp.html" target="_top" xlink:title=" ">
<polygon fill="white" stroke="#666666" points="994.75,-540 899.25,-540 899.25,-509.5 994.75,-509.5 994.75,-540"/>
<text text-anchor="start" x="907.25" y="-526.5" font-family="Helvetica,sans-Serif" font-size="10.00">yaclib/async/detail</text>
<text text-anchor="middle" x="947" y="-515.25" font-family="Helvetica,sans-Serif" font-size="10.00">/wait_impl.hpp</text>
</a>
</g>
</g>
<!-- Node1&#45;&gt;Node2 -->
<g id="edge1_Node000001_Node000002" class="edge">
<title>Node1&#45;&gt;Node2</title>
<g id="a_edge1_Node000001_Node000002"><a xlink:title=" ">
<path fill="none" stroke="#63b8ff" d="M947,-575.68C947,-569.23 947,-560.16 947,-551.51"/>
<polygon fill="#63b8ff" stroke="#63b8ff" points="950.5,-551.8 947,-541.8 943.5,-551.8 950.5,-551.8"/>
</a>
</g>
</g>
<!-- Node3 -->
<g id="Node000003" class="node">
<title>Node3</title>
<g id="a_Node000003"><a xlink:href="base__core_8hpp.html" target="_top" xlink:title=" ">
<polygon fill="white" stroke="#666666" points="415,-407 327,-407 327,-376.5 415,-376.5 415,-407"/>
<text text-anchor="start" x="335" y="-393.5" font-family="Helvetica,sans-Serif" font-size="10.00">yaclib/algo/detail</text>
<text text-anchor="middle" x="371" y="-382.25" font-family="Helvetica,sans-Serif" font-size="10.00">/base_core.hpp</text>
</a>
</g>
</g>
<!-- Node2&#45;&gt;Node3 -->
<g id="edge2_Node000002_Node000003" class="edge">
<title>Node2&#45;&gt;Node3</title>
<g id="a_edge2_Node000002_Node000003"><a xlink:title=" ">
<path fill="none" stroke="#63b8ff" d="M898.96,-520.8C828.03,-515.63 691.53,-502.59 579,-473.5 519.44,-458.1 453.73,-430.73 412.42,-412.17"/>
<polygon fill="#63b8ff" stroke="#63b8ff" points="413.89,-408.99 403.33,-408.05 410.99,-415.37 413.89,-408.99"/>
</a>
</g>
</g>
<!-- Node12 -->
<g id="Node000012" class="node">
<title>Node12</title>
<g id="a_Node000012"><a xlink:title=" ">
<polygon fill="#e0e0e0" stroke="#999999" points="642.5,-74.5 581.5,-74.5 581.5,-55.25 642.5,-55.25 642.5,-74.5"/>
<text text-anchor="middle" x="612" y="-61" font-family="Helvetica,sans-Serif" font-size="10.00">type_traits</text>
</a>
</g>
</g>
<!-- Node2&#45;&gt;Node12 -->
<g id="edge62_Node000002_Node000012" class="edge">
<title>Node2&#45;&gt;Node12</title>
<g id="a_edge62_Node000002_Node000012"><a xlink:title=" ">
<path fill="none" stroke="#63b8ff" d="M935.44,-509.16C900.26,-464.61 791.7,-326.14 707,-207.5 676.02,-164.1 641.61,-111.68 623.93,-84.4"/>
<polygon fill="#63b8ff" stroke="#63b8ff" points="627.01,-82.72 618.64,-76.22 621.13,-86.52 627.01,-82.72"/>
</a>
</g>
</g>
<!-- Node22 -->
<g id="Node000022" class="node">
<title>Node22</title>
<g id="a_Node000022"><a xlink:href="wait__event_8hpp.html" target="_top" xlink:title=" ">
<polygon fill="white" stroke="#666666" points="676,-473.5 588,-473.5 588,-443 676,-443 676,-473.5"/>
<text text-anchor="start" x="596" y="-460" font-family="Helvetica,sans-Serif" font-size="10.00">yaclib/algo/detail</text>
<text text-anchor="middle" x="632" y="-448.75" font-family="Helvetica,sans-Serif" font-size="10.00">/wait_event.hpp</text>
</a>
</g>
</g>
<!-- Node2&#45;&gt;Node22 -->
<g id="edge30_Node000002_Node000022" class="edge">
<title>Node2&#45;&gt;Node22</title>
<g id="a_edge30_Node000002_Node000022"><a xlink:title=" ">
<path fill="none" stroke="#63b8ff" d="M898.82,-513.88C841.9,-502.23 747.42,-482.88 687.5,-470.61"/>
<polygon fill="#63b8ff" stroke="#63b8ff" points="688.34,-467.21 677.84,-468.64 686.94,-474.07 688.34,-467.21"/>
</a>
</g>
</g>
<!-- Node25 -->
<g id="Node000025" class="node">
<title>Node25</title>
<g id="a_Node000025"><a xlink:href="set__deleter_8hpp.html" target="_top" xlink:title=" ">
<polygon fill="white" stroke="#666666" points="764.5,-407 679.5,-407 679.5,-376.5 764.5,-376.5 764.5,-407"/>
<text text-anchor="start" x="687.5" y="-393.5" font-family="Helvetica,sans-Serif" font-size="10.00">yaclib/util/detail</text>
<text text-anchor="middle" x="722" y="-382.25" font-family="Helvetica,sans-Serif" font-size="10.00">/set_deleter.hpp</text>
</a>
</g>
</g>
<!-- Node2&#45;&gt;Node25 -->
<g id="edge49_Node000002_Node000025" class="edge">
<title>Node2&#45;&gt;Node25</title>
<g id="a_edge49_Node000002_Node000025"><a xlink:title=" ">
<path fill="none" stroke="#63b8ff" d="M899.11,-518.01C863.3,-511.79 814.59,-499.09 779,-473.5 758.95,-459.08 743.42,-435.35 733.68,-417.33"/>
<polygon fill="#63b8ff" stroke="#63b8ff" points="736.87,-415.88 729.18,-408.59 730.64,-419.09 736.87,-415.88"/>
</a>
</g>
</g>
<!-- Node26 -->
<g id="Node000026" class="node">
<title>Node26</title>
<g id="a_Node000026"><a xlink:href="atomic__counter_8hpp.html" target="_top" xlink:title=" ">
<polygon fill="white" stroke="#666666" points="1038.88,-473.5 935.12,-473.5 935.12,-443 1038.88,-443 1038.88,-473.5"/>
<text text-anchor="start" x="943.12" y="-460" font-family="Helvetica,sans-Serif" font-size="10.00">yaclib/util/detail</text>
<text text-anchor="middle" x="987" y="-448.75" font-family="Helvetica,sans-Serif" font-size="10.00">/atomic_counter.hpp</text>
</a>
</g>
</g>
<!-- Node2&#45;&gt;Node26 -->
<g id="edge36_Node000002_Node000026" class="edge">
<title>Node2&#45;&gt;Node26</title>
<g id="a_edge36_Node000002_Node000026"><a xlink:title=" ">
<path fill="none" stroke="#63b8ff" d="M956.08,-509.11C960.78,-501.53 966.65,-492.06 972.01,-483.43"/>
<polygon fill="#63b8ff" stroke="#63b8ff" points="974.87,-485.46 977.16,-475.11 968.92,-481.77 974.87,-485.46"/>
</a>
</g>
</g>
<!-- Node28 -->
<g id="Node000028" class="node">
<title>Node28</title>
<g id="a_Node000028"><a xlink:title=" ">
<polygon fill="#e0e0e0" stroke="#999999" points="1080.12,-401.38 1031.88,-401.38 1031.88,-382.12 1080.12,-382.12 1080.12,-401.38"/>
<text text-anchor="middle" x="1056" y="-387.88" font-family="Helvetica,sans-Serif" font-size="10.00">cstddef</text>
</a>
</g>
</g>
<!-- Node2&#45;&gt;Node28 -->
<g id="edge60_Node000002_Node000028" class="edge">
<title>Node2&#45;&gt;Node28</title>
<g id="a_edge60_Node000002_Node000028"><a xlink:title=" ">
<path fill="none" stroke="#63b8ff" d="M995.1,-511.08C1014.65,-503.43 1035.54,-491.56 1048,-473.5 1060.23,-455.77 1060.71,-430.42 1059.1,-412.87"/>
<polygon fill="#63b8ff" stroke="#63b8ff" points="1062.61,-412.68 1057.9,-403.19 1055.66,-413.55 1062.61,-412.68"/>
</a>
</g>
</g>
<!-- Node29 -->
<g id="Node000029" class="node">
<title>Node29</title>
<g id="a_Node000029"><a xlink:href="default__event_8hpp.html" target="_top" xlink:title=" ">
<polygon fill="white" stroke="#666666" points="954.75,-340.5 859.25,-340.5 859.25,-310 954.75,-310 954.75,-340.5"/>
<text text-anchor="start" x="867.25" y="-327" font-family="Helvetica,sans-Serif" font-size="10.00">yaclib/util/detail</text>
<text text-anchor="middle" x="907" y="-315.75" font-family="Helvetica,sans-Serif" font-size="10.00">/default_event.hpp</text>
</a>
</g>
</g>
<!-- Node2&#45;&gt;Node29 -->
<g id="edge42_Node000002_Node000029" class="edge">
<title>Node2&#45;&gt;Node29</title>
<g id="a_edge42_Node000002_Node000029"><a xlink:title=" ">
<path fill="none" stroke="#63b8ff" d="M939.68,-509.16C935.05,-499.33 929.33,-485.92 926,-473.5 914.84,-431.89 910.15,-381.85 908.24,-352.13"/>
<polygon fill="#63b8ff" stroke="#63b8ff" points="911.74,-352 907.67,-342.22 904.75,-352.41 911.74,-352"/>
</a>
</g>
</g>
<!-- Node34 -->
<g id="Node000034" class="node">
<title>Node34</title>
<g id="a_Node000034"><a xlink:href="unique__counter_8hpp.html" target="_top" xlink:title=" ">
<polygon fill="white" stroke="#666666" points="1198.5,-473.5 1095.5,-473.5 1095.5,-443 1198.5,-443 1198.5,-473.5"/>
<text text-anchor="start" x="1103.5" y="-460" font-family="Helvetica,sans-Serif" font-size="10.00">yaclib/util/detail</text>
<text text-anchor="middle" x="1147" y="-448.75" font-family="Helvetica,sans-Serif" font-size="10.00">/unique_counter.hpp</text>
</a>
</g>
</g>
<!-- Node2&#45;&gt;Node34 -->
<g id="edge50_Node000002_Node000034" class="edge">
<title>Node2&#45;&gt;Node34</title>
<g id="a_edge50_Node000002_Node000034"><a xlink:title=" ">
<path fill="none" stroke="#63b8ff" d="M992.63,-509.03C1021.82,-499.62 1059.88,-487.35 1090.91,-477.34"/>
<polygon fill="#63b8ff" stroke="#63b8ff" points="1091.68,-480.77 1100.12,-474.37 1089.53,-474.11 1091.68,-480.77"/>
</a>
</g>
</g>
<!-- Node35 -->
<g id="Node000035" class="node">
<title>Node35</title>
<g id="a_Node000035"><a xlink:href="type__traits_8hpp.html" target="_top" xlink:title=" ">
<polygon fill="white" stroke="#666666" points="1231.25,-201.88 1108.75,-201.88 1108.75,-182.62 1231.25,-182.62 1231.25,-201.88"/>
<text text-anchor="middle" x="1170" y="-188.38" font-family="Helvetica,sans-Serif" font-size="10.00">yaclib/util/type_traits.hpp</text>
</a>
</g>
</g>
<!-- Node2&#45;&gt;Node35 -->
<g id="edge52_Node000002_Node000035" class="edge">
<title>Node2&#45;&gt;Node35</title>
<g id="a_edge52_Node000002_Node000035"><a xlink:title=" ">
<path fill="none" stroke="#63b8ff" d="M994.99,-520.65C1061.83,-515.35 1178.12,-502.18 1208,-473.5 1234.6,-447.97 1227,-429.62 1227,-392.75 1227,-392.75 1227,-392.75 1227,-324.25 1227,-280.85 1200.36,-235.57 1183.51,-211.26"/>
<polygon fill="#63b8ff" stroke="#63b8ff" points="1186.55,-209.5 1177.87,-203.42 1180.87,-213.58 1186.55,-209.5"/>
</a>
</g>
</g>
<!-- Node38 -->
<g id="Node000038" class="node">
<title>Node38</title>
<g id="a_Node000038"><a xlink:title=" ">
<polygon fill="#e0e0e0" stroke="#999999" points="1301,-467.88 1255,-467.88 1255,-448.62 1301,-448.62 1301,-467.88"/>
<text text-anchor="middle" x="1278" y="-454.38" font-family="Helvetica,sans-Serif" font-size="10.00">iterator</text>
</a>
</g>
</g>
<!-- Node2&#45;&gt;Node38 -->
<g id="edge61_Node000002_Node000038" class="edge">
<title>Node2&#45;&gt;Node38</title>
<g id="a_edge61_Node000002_Node000038"><a xlink:title=" ">
<path fill="none" stroke="#63b8ff" d="M994.99,-518.51C1053.73,-511.43 1155.87,-496.92 1241,-473.5 1242.62,-473.05 1244.26,-472.57 1245.92,-472.04"/>
<polygon fill="#63b8ff" stroke="#63b8ff" points="1247,-475.37 1255.29,-468.77 1244.7,-468.76 1247,-475.37"/>
</a>
</g>
</g>
<!-- Node4 -->
<g id="Node000004" class="node">
<title>Node4</title>
<g id="a_Node000004"><a xlink:href="inline__core_8hpp.html" target="_top" xlink:title=" ">
<polygon fill="white" stroke="#666666" points="194,-340.5 106,-340.5 106,-310 194,-310 194,-340.5"/>
<text text-anchor="start" x="114" y="-327" font-family="Helvetica,sans-Serif" font-size="10.00">yaclib/algo/detail</text>
<text text-anchor="middle" x="150" y="-315.75" font-family="Helvetica,sans-Serif" font-size="10.00">/inline_core.hpp</text>
</a>
</g>
</g>
<!-- Node3&#45;&gt;Node4 -->
<g id="edge3_Node000003_Node000004" class="edge">
<title>Node3&#45;&gt;Node4</title>
<g id="a_edge3_Node000003_Node000004"><a xlink:title=" ">
<path fill="none" stroke="#63b8ff" d="M326.54,-377.78C291.55,-367.56 242.61,-353.28 205.13,-342.34"/>
<polygon fill="#63b8ff" stroke="#63b8ff" points="206.42,-339.07 195.84,-339.63 204.46,-345.79 206.42,-339.07"/>
</a>
</g>
</g>
<!-- Node5 -->
<g id="Node000005" class="node">
<title>Node5</title>
<g id="a_Node000005"><a xlink:title=" ">
<polygon fill="#e0e0e0" stroke="#999999" points="548.62,-268.38 461.38,-268.38 461.38,-249.12 548.62,-249.12 548.62,-268.38"/>
<text text-anchor="middle" x="505" y="-254.88" font-family="Helvetica,sans-Serif" font-size="10.00">yaclib/config.hpp</text>
</a>
</g>
</g>
<!-- Node3&#45;&gt;Node5 -->
<g id="edge14_Node000003_Node000005" class="edge">
<title>Node3&#45;&gt;Node5</title>
<g id="a_edge14_Node000003_Node000005"><a xlink:title=" ">
<path fill="none" stroke="#63b8ff" d="M415.25,-389.03C450,-385.06 496.35,-373.43 520,-340.5 533.02,-322.36 524.5,-296.2 515.92,-278.61"/>
<polygon fill="#63b8ff" stroke="#63b8ff" points="519.14,-277.21 511.34,-270.03 512.96,-280.5 519.14,-277.21"/>
</a>
</g>
</g>
<!-- Node7 -->
<g id="Node000007" class="node">
<title>Node7</title>
<g id="a_Node000007"><a xlink:href="log_8hpp.html" target="_top" xlink:title=" ">
<polygon fill="white" stroke="#666666" points="94.25,-74.5 19.75,-74.5 19.75,-55.25 94.25,-55.25 94.25,-74.5"/>
<text text-anchor="middle" x="57" y="-61" font-family="Helvetica,sans-Serif" font-size="10.00">yaclib/log.hpp</text>
</a>
</g>
</g>
<!-- Node3&#45;&gt;Node7 -->
<g id="edge25_Node000003_Node000007" class="edge">
<title>Node3&#45;&gt;Node7</title>
<g id="a_edge25_Node000003_Node000007"><a xlink:title=" ">
<path fill="none" stroke="#63b8ff" d="M326.68,-389.49C270.7,-386.39 172.56,-375.87 97,-340.5 46.2,-316.72 0,-315.84 0,-259.75 0,-259.75 0,-259.75 0,-191.25 0,-150.01 25.87,-107.43 42.76,-84.03"/>
<polygon fill="#63b8ff" stroke="#63b8ff" points="45.44,-86.29 48.64,-76.19 39.84,-82.09 45.44,-86.29"/>
</a>
</g>
</g>
<!-- Node11 -->
<g id="Node000011" class="node">
<title>Node11</title>
<g id="a_Node000011"><a xlink:href="ref_8hpp.html" target="_top" xlink:title=" ">
<polygon fill="white" stroke="#666666" points="466.38,-74.5 377.62,-74.5 377.62,-55.25 466.38,-55.25 466.38,-74.5"/>
<text text-anchor="middle" x="422" y="-61" font-family="Helvetica,sans-Serif" font-size="10.00">yaclib/util/ref.hpp</text>
</a>
</g>
</g>
<!-- Node3&#45;&gt;Node11 -->
<g id="edge26_Node000003_Node000011" class="edge">
<title>Node3&#45;&gt;Node11</title>
<g id="a_edge26_Node000003_Node000011"><a xlink:title=" ">
<path fill="none" stroke="#63b8ff" d="M326.55,-379.9C305.94,-372.43 283.34,-360.17 271,-340.5 248.1,-303.97 256.54,-284.46 270,-243.5 293.85,-170.94 364.77,-109.07 400.67,-81.39"/>
<polygon fill="#63b8ff" stroke="#63b8ff" points="402.32,-84.53 408.19,-75.72 398.1,-78.95 402.32,-84.53"/>
</a>
</g>
</g>
<!-- Node14 -->
<g id="Node000014" class="node">
<title>Node14</title>
<g id="a_Node000014"><a xlink:href="executor_8hpp.html" target="_top" xlink:title=" ">
<polygon fill="white" stroke="#666666" points="395.25,-268.38 278.75,-268.38 278.75,-249.12 395.25,-249.12 395.25,-268.38"/>
<text text-anchor="middle" x="337" y="-254.88" font-family="Helvetica,sans-Serif" font-size="10.00">yaclib/exe/executor.hpp</text>
</a>
</g>
</g>
<!-- Node3&#45;&gt;Node14 -->
<g id="edge15_Node000003_Node000014" class="edge">
<title>Node3&#45;&gt;Node14</title>
<g id="a_edge15_Node000003_Node000014"><a xlink:title=" ">
<path fill="none" stroke="#63b8ff" d="M326.77,-377.79C308.65,-370.05 289.49,-358.19 279,-340.5 272.08,-328.84 273.37,-322.33 279,-310 285.64,-295.47 298.79,-283.52 310.89,-274.93"/>
<polygon fill="#63b8ff" stroke="#63b8ff" points="312.54,-278.03 318.96,-269.6 308.69,-272.19 312.54,-278.03"/>
</a>
</g>
</g>
<!-- Node17 -->
<g id="Node000017" class="node">
<title>Node17</title>
<g id="a_Node000017"><a xlink:href="inline_8hpp.html" target="_top" xlink:title=" ">
<polygon fill="white" stroke="#666666" points="511.12,-334.88 408.88,-334.88 408.88,-315.62 511.12,-315.62 511.12,-334.88"/>
<text text-anchor="middle" x="460" y="-321.38" font-family="Helvetica,sans-Serif" font-size="10.00">yaclib/exe/inline.hpp</text>
</a>
</g>
</g>
<!-- Node3&#45;&gt;Node17 -->
<g id="edge22_Node000003_Node000017" class="edge">
<title>Node3&#45;&gt;Node17</title>
<g id="a_edge22_Node000003_Node000017"><a xlink:title=" ">
<path fill="none" stroke="#63b8ff" d="M391.2,-376.11C405.28,-365.91 424.05,-352.3 438.43,-341.88"/>
<polygon fill="#63b8ff" stroke="#63b8ff" points="440.3,-344.85 446.34,-336.15 436.19,-339.18 440.3,-344.85"/>
</a>
</g>
</g>
<!-- Node19 -->
<g id="Node000019" class="node">
<title>Node19</title>
<g id="a_Node000019"><a xlink:title=" ">
<polygon fill="#e0e0e0" stroke="#999999" points="333.62,-334.88 288.38,-334.88 288.38,-315.62 333.62,-315.62 333.62,-334.88"/>
<text text-anchor="middle" x="311" y="-321.38" font-family="Helvetica,sans-Serif" font-size="10.00">cstdint</text>
</a>
</g>
</g>
<!-- Node3&#45;&gt;Node19 -->
<g id="edge27_Node000003_Node000019" class="edge">
<title>Node3&#45;&gt;Node19</title>
<g id="a_edge27_Node000003_Node000019"><a xlink:title=" ">
<path fill="none" stroke="#63b8ff" d="M357.39,-376.11C348.29,-366.34 336.3,-353.45 326.79,-343.23"/>
<polygon fill="#63b8ff" stroke="#63b8ff" points="329.61,-341.12 320.24,-336.18 324.49,-345.89 329.61,-341.12"/>
</a>
</g>
</g>
<!-- Node20 -->
<g id="Node000020" class="node">
<title>Node20</title>
<g id="a_Node000020"><a xlink:title=" ">
<polygon fill="#e0e0e0" stroke="#999999" points="390.62,-334.88 351.38,-334.88 351.38,-315.62 390.62,-315.62 390.62,-334.88"/>
<text text-anchor="middle" x="371" y="-321.38" font-family="Helvetica,sans-Serif" font-size="10.00">limits</text>
</a>
</g>
</g>
<!-- Node3&#45;&gt;Node20 -->
<g id="edge28_Node000003_Node000020" class="edge">
<title>Node3&#45;&gt;Node20</title>
<g id="a_edge28_Node000003_Node000020"><a xlink:title=" ">
<path fill="none" stroke="#63b8ff" d="M371,-376.11C371,-367.33 371,-356.02 371,-346.4"/>
<polygon fill="#63b8ff" stroke="#63b8ff" points="374.5,-346.59 371,-336.59 367.5,-346.59 374.5,-346.59"/>
</a>
</g>
</g>
<!-- Node21 -->
<g id="Node000021" class="node">
<title>Node21</title>
<g id="a_Node000021"><a xlink:title=" ">
<polygon fill="#e0e0e0" stroke="#999999" points="696.88,-334.88 605.12,-334.88 605.12,-315.62 696.88,-315.62 696.88,-334.88"/>
<text text-anchor="middle" x="651" y="-321.38" font-family="Helvetica,sans-Serif" font-size="10.00">yaclib_std/atomic</text>
</a>
</g>
</g>
<!-- Node3&#45;&gt;Node21 -->
<g id="edge29_Node000003_Node000021" class="edge">
<title>Node3&#45;&gt;Node21</title>
<g id="a_edge29_Node000003_Node000021"><a xlink:title=" ">
<path fill="none" stroke="#63b8ff" d="M415.37,-380.53C465.79,-368.91 547.92,-349.99 600.69,-337.84"/>
<polygon fill="#63b8ff" stroke="#63b8ff" points="601.38,-341.27 610.34,-335.62 599.81,-334.45 601.38,-341.27"/>
</a>
</g>
</g>
<!-- Node4&#45;&gt;Node5 -->
<g id="edge4_Node000004_Node000005" class="edge">
<title>Node4&#45;&gt;Node5</title>
<g id="a_edge4_Node000004_Node000005"><a xlink:title=" ">
<path fill="none" stroke="#63b8ff" d="M194.24,-316.21C258.95,-304.46 379.32,-282.58 449.76,-269.79"/>
<polygon fill="#63b8ff" stroke="#63b8ff" points="450.33,-273.24 459.55,-268.01 449.08,-266.35 450.33,-273.24"/>
</a>
</g>
</g>
<!-- Node6 -->
<g id="Node000006" class="node">
<title>Node6</title>
<g id="a_Node000006"><a xlink:href="job_8hpp.html" target="_top" xlink:title=" ">
<polygon fill="white" stroke="#666666" points="196.25,-201.88 103.75,-201.88 103.75,-182.62 196.25,-182.62 196.25,-201.88"/>
<text text-anchor="middle" x="150" y="-188.38" font-family="Helvetica,sans-Serif" font-size="10.00">yaclib/exe/job.hpp</text>
</a>
</g>
</g>
<!-- Node4&#45;&gt;Node6 -->
<g id="edge5_Node000004_Node000006" class="edge">
<title>Node4&#45;&gt;Node6</title>
<g id="a_edge5_Node000004_Node000006"><a xlink:title=" ">
<path fill="none" stroke="#63b8ff" d="M150,-309.73C150,-286.37 150,-240.38 150,-213.71"/>
<polygon fill="#63b8ff" stroke="#63b8ff" points="153.5,-213.86 150,-203.86 146.5,-213.86 153.5,-213.86"/>
</a>
</g>
</g>
<!-- Node4&#45;&gt;Node7 -->
<g id="edge13_Node000004_Node000007" class="edge">
<title>Node4&#45;&gt;Node7</title>
<g id="a_edge13_Node000004_Node000007"><a xlink:title=" ">
<path fill="none" stroke="#63b8ff" d="M142.48,-309.76C131.31,-287.93 110.04,-245.16 95,-207.5 83.46,-178.59 81.14,-171.05 73,-141 67.99,-122.5 63.56,-101.09 60.64,-85.87"/>
<polygon fill="#63b8ff" stroke="#63b8ff" points="64.11,-85.42 58.84,-76.23 57.23,-86.7 64.11,-85.42"/>
</a>
</g>
</g>
<!-- Node6&#45;&gt;Node7 -->
<g id="edge6_Node000006_Node000007" class="edge">
<title>Node6&#45;&gt;Node7</title>
<g id="a_edge6_Node000006_Node000007"><a xlink:title=" ">
<path fill="none" stroke="#63b8ff" d="M137.88,-182.3C125.87,-172.99 107.51,-157.48 95,-141 81.9,-123.75 71.23,-101.29 64.57,-85.44"/>
<polygon fill="#63b8ff" stroke="#63b8ff" points="67.83,-84.17 60.85,-76.2 61.34,-86.78 67.83,-84.17"/>
</a>
</g>
</g>
<!-- Node9 -->
<g id="Node000009" class="node">
<title>Node9</title>
<g id="a_Node000009"><a xlink:href="node_8hpp.html" target="_top" xlink:title=" ">
<polygon fill="white" stroke="#666666" points="186.38,-141 103.62,-141 103.62,-110.5 186.38,-110.5 186.38,-141"/>
<text text-anchor="start" x="111.62" y="-127.5" font-family="Helvetica,sans-Serif" font-size="10.00">yaclib/util/detail</text>
<text text-anchor="middle" x="145" y="-116.25" font-family="Helvetica,sans-Serif" font-size="10.00">/node.hpp</text>
</a>
</g>
</g>
<!-- Node6&#45;&gt;Node9 -->
<g id="edge8_Node000006_Node000009" class="edge">
<title>Node6&#45;&gt;Node9</title>
<g id="a_edge8_Node000006_Node000009"><a xlink:title=" ">
<path fill="none" stroke="#63b8ff" d="M149.3,-182.28C148.7,-174.54 147.81,-162.95 146.99,-152.37"/>
<polygon fill="#63b8ff" stroke="#63b8ff" points="150.49,-152.3 146.23,-142.6 143.51,-152.84 150.49,-152.3"/>
</a>
</g>
</g>
<!-- Node10 -->
<g id="Node000010" class="node">
<title>Node10</title>
<g id="a_Node000010"><a xlink:href="func_8hpp.html" target="_top" xlink:title=" ">
<polygon fill="white" stroke="#666666" points="508.12,-135.38 411.88,-135.38 411.88,-116.12 508.12,-116.12 508.12,-135.38"/>
<text text-anchor="middle" x="460" y="-121.88" font-family="Helvetica,sans-Serif" font-size="10.00">yaclib/util/func.hpp</text>
</a>
</g>
</g>
<!-- Node6&#45;&gt;Node10 -->
<g id="edge9_Node000006_Node000010" class="edge">
<title>Node6&#45;&gt;Node10</title>
<g id="a_edge9_Node000006_Node000010"><a xlink:title=" ">
<path fill="none" stroke="#63b8ff" d="M193.76,-182.15C249.18,-170.61 344.72,-150.74 405.02,-138.19"/>
<polygon fill="#63b8ff" stroke="#63b8ff" points="405.66,-141.63 414.73,-136.17 404.23,-134.78 405.66,-141.63"/>
</a>
</g>
</g>
<!-- Node8 -->
<g id="Node000008" class="node">
<title>Node8</title>
<g id="a_Node000008"><a xlink:title=" ">
<polygon fill="#e0e0e0" stroke="#999999" points="89.75,-19.25 24.25,-19.25 24.25,0 89.75,0 89.75,-19.25"/>
<text text-anchor="middle" x="57" y="-5.75" font-family="Helvetica,sans-Serif" font-size="10.00">string_view</text>
</a>
</g>
</g>
<!-- Node7&#45;&gt;Node8 -->
<g id="edge7_Node000007_Node000008" class="edge">
<title>Node7&#45;&gt;Node8</title>
<g id="a_edge7_Node000007_Node000008"><a xlink:title=" ">
<path fill="none" stroke="#63b8ff" d="M57,-55.08C57,-48.57 57,-39.42 57,-31.12"/>
<polygon fill="#63b8ff" stroke="#63b8ff" points="60.5,-31.12 57,-21.12 53.5,-31.12 60.5,-31.12"/>
</a>
</g>
</g>
<!-- Node10&#45;&gt;Node11 -->
<g id="edge10_Node000010_Node000011" class="edge">
<title>Node10&#45;&gt;Node11</title>
<g id="a_edge10_Node000010_Node000011"><a xlink:title=" ">
<path fill="none" stroke="#63b8ff" d="M454.23,-115.81C448.87,-107.51 440.73,-94.89 433.97,-84.42"/>
<polygon fill="#63b8ff" stroke="#63b8ff" points="437.01,-82.68 428.65,-76.17 431.13,-86.47 437.01,-82.68"/>
</a>
</g>
</g>
<!-- Node10&#45;&gt;Node12 -->
<g id="edge11_Node000010_Node000012" class="edge">
<title>Node10&#45;&gt;Node12</title>
<g id="a_edge11_Node000010_Node000012"><a xlink:title=" ">
<path fill="none" stroke="#63b8ff" d="M483.42,-115.68C508.74,-105.87 549.36,-90.14 578.15,-78.98"/>
<polygon fill="#63b8ff" stroke="#63b8ff" points="579.08,-82.38 587.15,-75.5 576.56,-75.85 579.08,-82.38"/>
</a>
</g>
</g>
<!-- Node13 -->
<g id="Node000013" class="node">
<title>Node13</title>
<g id="a_Node000013"><a xlink:title=" ">
<polygon fill="#e0e0e0" stroke="#999999" points="1034.25,-74.5 995.75,-74.5 995.75,-55.25 1034.25,-55.25 1034.25,-74.5"/>
<text text-anchor="middle" x="1015" y="-61" font-family="Helvetica,sans-Serif" font-size="10.00">utility</text>
</a>
</g>
</g>
<!-- Node10&#45;&gt;Node13 -->
<g id="edge12_Node000010_Node000013" class="edge">
<title>Node10&#45;&gt;Node13</title>
<g id="a_edge12_Node000010_Node000013"><a xlink:title=" ">
<path fill="none" stroke="#63b8ff" d="M508.28,-119.63C619.71,-107.81 892.32,-78.89 984.2,-69.14"/>
<polygon fill="#63b8ff" stroke="#63b8ff" points="984.37,-72.64 993.94,-68.11 983.63,-65.68 984.37,-72.64"/>
</a>
</g>
</g>
<!-- Node14&#45;&gt;Node6 -->
<g id="edge16_Node000014_Node000006" class="edge">
<title>Node14&#45;&gt;Node6</title>
<g id="a_edge16_Node000014_Node000006"><a xlink:title=" ">
<path fill="none" stroke="#63b8ff" d="M310.6,-248.65C278.31,-237.51 223.43,-218.58 186.95,-205.99"/>
<polygon fill="#63b8ff" stroke="#63b8ff" points="188.29,-202.75 177.69,-202.8 186,-209.37 188.29,-202.75"/>
</a>
</g>
</g>
<!-- Node15 -->
<g id="Node000015" class="node">
<title>Node15</title>
<g id="a_Node000015"><a xlink:href="intrusive__ptr_8hpp.html" target="_top" xlink:title=" ">
<polygon fill="white" stroke="#666666" points="424.12,-207.5 327.88,-207.5 327.88,-177 424.12,-177 424.12,-207.5"/>
<text text-anchor="start" x="335.88" y="-194" font-family="Helvetica,sans-Serif" font-size="10.00">yaclib/util/intrusive</text>
<text text-anchor="middle" x="376" y="-182.75" font-family="Helvetica,sans-Serif" font-size="10.00">_ptr.hpp</text>
</a>
</g>
</g>
<!-- Node14&#45;&gt;Node15 -->
<g id="edge17_Node000014_Node000015" class="edge">
<title>Node14&#45;&gt;Node15</title>
<g id="a_edge17_Node000014_Node000015"><a xlink:title=" ">
<path fill="none" stroke="#63b8ff" d="M342.42,-248.78C347.36,-240.62 354.87,-228.2 361.54,-217.17"/>
<polygon fill="#63b8ff" stroke="#63b8ff" points="364.36,-219.26 366.54,-208.89 358.37,-215.64 364.36,-219.26"/>
</a>
</g>
</g>
<!-- Node15&#45;&gt;Node11 -->
<g id="edge18_Node000015_Node000011" class="edge">
<title>Node15&#45;&gt;Node11</title>
<g id="a_edge18_Node000015_Node000011"><a xlink:title=" ">
<path fill="none" stroke="#63b8ff" d="M380.53,-176.54C385.63,-160.26 394.35,-133.3 403,-110.5 406.21,-102.04 410.08,-92.81 413.48,-84.96"/>
<polygon fill="#63b8ff" stroke="#63b8ff" points="416.57,-86.63 417.39,-76.07 410.16,-83.81 416.57,-86.63"/>
</a>
</g>
</g>
<!-- Node15&#45;&gt;Node12 -->
<g id="edge19_Node000015_Node000012" class="edge">
<title>Node15&#45;&gt;Node12</title>
<g id="a_edge19_Node000015_Node000012"><a xlink:title=" ">
<path fill="none" stroke="#63b8ff" d="M424.35,-178.31C452.37,-169.77 487.79,-157.18 517,-141 532.76,-132.27 570,-101.56 592.89,-82.21"/>
<polygon fill="#63b8ff" stroke="#63b8ff" points="594.93,-85.07 600.29,-75.93 590.4,-79.73 594.93,-85.07"/>
</a>
</g>
</g>
<!-- Node16 -->
<g id="Node000016" class="node">
<title>Node16</title>
<g id="a_Node000016"><a xlink:href="intrusive__ptr__impl_8hpp.html" target="_top" xlink:title=" ">
<polygon fill="white" stroke="#666666" points="317.75,-141 204.25,-141 204.25,-110.5 317.75,-110.5 317.75,-141"/>
<text text-anchor="start" x="212.25" y="-127.5" font-family="Helvetica,sans-Serif" font-size="10.00">yaclib/util/detail</text>
<text text-anchor="middle" x="261" y="-116.25" font-family="Helvetica,sans-Serif" font-size="10.00">/intrusive_ptr_impl.hpp</text>
</a>
</g>
</g>
<!-- Node15&#45;&gt;Node16 -->
<g id="edge20_Node000015_Node000016" class="edge">
<title>Node15&#45;&gt;Node16</title>
<g id="a_edge20_Node000015_Node000016"><a xlink:title=" ">
<path fill="none" stroke="#63b8ff" d="M349.9,-176.61C334.17,-167.79 313.91,-156.43 296.71,-146.78"/>
<polygon fill="#63b8ff" stroke="#63b8ff" points="298.75,-143.91 288.31,-142.07 295.32,-150.01 298.75,-143.91"/>
</a>
</g>
</g>
<!-- Node16&#45;&gt;Node7 -->
<g id="edge21_Node000016_Node000007" class="edge">
<title>Node16&#45;&gt;Node7</title>
<g id="a_edge21_Node000016_Node000007"><a xlink:title=" ">
<path fill="none" stroke="#63b8ff" d="M210.05,-110.05C175.95,-100.2 131.6,-87.4 99.42,-78.12"/>
<polygon fill="#63b8ff" stroke="#63b8ff" points="100.62,-74.82 90.04,-75.41 98.68,-81.55 100.62,-74.82"/>
</a>
</g>
</g>
<!-- Node17&#45;&gt;Node14 -->
<g id="edge23_Node000017_Node000014" class="edge">
<title>Node17&#45;&gt;Node14</title>
<g id="a_edge23_Node000017_Node000014"><a xlink:title=" ">
<path fill="none" stroke="#63b8ff" d="M442.64,-315.15C422.31,-304.49 388.38,-286.69 364.47,-274.16"/>
<polygon fill="#63b8ff" stroke="#63b8ff" points="366.1,-271.06 355.61,-269.51 362.84,-277.25 366.1,-271.06"/>
</a>
</g>
</g>
<!-- Node18 -->
<g id="Node000018" class="node">
<title>Node18</title>
<g id="a_Node000018"><a xlink:href="fwd_8hpp.html" target="_top" xlink:title=" ">
<polygon fill="white" stroke="#666666" points="1248.75,-74.5 1171.25,-74.5 1171.25,-55.25 1248.75,-55.25 1248.75,-74.5"/>
<text text-anchor="middle" x="1210" y="-61" font-family="Helvetica,sans-Serif" font-size="10.00">yaclib/fwd.hpp</text>
</a>
</g>
</g>
<!-- Node17&#45;&gt;Node18 -->
<g id="edge24_Node000017_Node000018" class="edge">
<title>Node17&#45;&gt;Node18</title>
<g id="a_edge24_Node000017_Node000018"><a xlink:title=" ">
<path fill="none" stroke="#63b8ff" d="M455.42,-315.14C447.97,-298.9 435.63,-264.68 452,-243.5 539.88,-129.77 1004.9,-82.41 1159.77,-69.64"/>
<polygon fill="#63b8ff" stroke="#63b8ff" points="1159.61,-73.17 1169.3,-68.87 1159.05,-66.19 1159.61,-73.17"/>
</a>
</g>
</g>
<!-- Node22&#45;&gt;Node3 -->
<g id="edge31_Node000022_Node000003" class="edge">
<title>Node22&#45;&gt;Node3</title>
<g id="a_edge31_Node000022_Node000003"><a xlink:title=" ">
<path fill="none" stroke="#63b8ff" d="M587.72,-446.31C543.29,-435.33 474.72,-418.38 426.64,-406.5"/>
<polygon fill="#63b8ff" stroke="#63b8ff" points="427.51,-403.11 416.96,-404.11 425.83,-409.91 427.51,-403.11"/>
</a>
</g>
</g>
<!-- Node23 -->
<g id="Node000023" class="node">
<title>Node23</title>
<g id="a_Node000023"><a xlink:href="cast_8hpp.html" target="_top" xlink:title=" ">
<polygon fill="white" stroke="#666666" points="661.12,-401.38 564.88,-401.38 564.88,-382.12 661.12,-382.12 661.12,-401.38"/>
<text text-anchor="middle" x="613" y="-387.88" font-family="Helvetica,sans-Serif" font-size="10.00">yaclib/util/cast.hpp</text>
</a>
</g>
</g>
<!-- Node22&#45;&gt;Node23 -->
<g id="edge32_Node000022_Node000023" class="edge">
<title>Node22&#45;&gt;Node23</title>
<g id="a_edge32_Node000022_Node000023"><a xlink:title=" ">
<path fill="none" stroke="#63b8ff" d="M627.69,-442.61C625.07,-433.73 621.7,-422.27 618.84,-412.58"/>
<polygon fill="#63b8ff" stroke="#63b8ff" points="622.21,-411.63 616.03,-403.02 615.5,-413.61 622.21,-411.63"/>
</a>
</g>
</g>
<!-- Node22&#45;&gt;Node25 -->
<g id="edge35_Node000022_Node000025" class="edge">
<title>Node22&#45;&gt;Node25</title>
<g id="a_edge35_Node000022_Node000025"><a xlink:title=" ">
<path fill="none" stroke="#63b8ff" d="M652.42,-442.61C664.27,-434.12 679.41,-423.27 692.53,-413.87"/>
<polygon fill="#63b8ff" stroke="#63b8ff" points="694.34,-416.88 700.43,-408.21 690.26,-411.19 694.34,-416.88"/>
</a>
</g>
</g>
<!-- Node23&#45;&gt;Node12 -->
<g id="edge34_Node000023_Node000012" class="edge">
<title>Node23&#45;&gt;Node12</title>
<g id="a_edge34_Node000023_Node000012"><a xlink:title=" ">
<path fill="none" stroke="#63b8ff" d="M608.94,-381.72C604.74,-371.83 598.45,-355.4 596,-340.5 593.8,-327.12 595.9,-323.56 596,-310 596.44,-250.88 593.85,-235.97 598,-177 600.25,-145.06 605.4,-108.23 608.78,-86.01"/>
<polygon fill="#63b8ff" stroke="#63b8ff" points="612.22,-86.69 610.31,-76.27 605.3,-85.61 612.22,-86.69"/>
</a>
</g>
</g>
<!-- Node24 -->
<g id="Node000024" class="node">
<title>Node24</title>
<g id="a_Node000024"><a xlink:title=" ">
<polygon fill="#e0e0e0" stroke="#999999" points="765.25,-334.88 714.75,-334.88 714.75,-315.62 765.25,-315.62 765.25,-334.88"/>
<text text-anchor="middle" x="740" y="-321.38" font-family="Helvetica,sans-Serif" font-size="10.00">memory</text>
</a>
</g>
</g>
<!-- Node23&#45;&gt;Node24 -->
<g id="edge33_Node000023_Node000024" class="edge">
<title>Node23&#45;&gt;Node24</title>
<g id="a_edge33_Node000023_Node000024"><a xlink:title=" ">
<path fill="none" stroke="#63b8ff" d="M630.93,-381.65C652.01,-370.94 687.26,-353.03 711.97,-340.49"/>
<polygon fill="#63b8ff" stroke="#63b8ff" points="713.48,-343.64 720.82,-335.99 710.31,-337.4 713.48,-343.64"/>
</a>
</g>
</g>
<!-- Node26&#45;&gt;Node5 -->
<g id="edge37_Node000026_Node000005" class="edge">
<title>Node26&#45;&gt;Node5</title>
<g id="a_edge37_Node000026_Node000005"><a xlink:title=" ">
<path fill="none" stroke="#63b8ff" d="M971.04,-442.59C937.4,-412.55 855.54,-343.97 774,-310 703.78,-280.74 616.17,-268.43 560.39,-263.31"/>
<polygon fill="#63b8ff" stroke="#63b8ff" points="560.77,-259.82 550.5,-262.45 560.16,-266.8 560.77,-259.82"/>
</a>
</g>
</g>
<!-- Node26&#45;&gt;Node13 -->
<g id="edge40_Node000026_Node000013" class="edge">
<title>Node26&#45;&gt;Node13</title>
<g id="a_edge40_Node000026_Node000013"><a xlink:title=" ">
<path fill="none" stroke="#63b8ff" d="M988.03,-442.86C992.29,-383.26 1008.57,-155.7 1013.55,-86.17"/>
<polygon fill="#63b8ff" stroke="#63b8ff" points="1017.03,-86.52 1014.25,-76.3 1010.05,-86.02 1017.03,-86.52"/>
</a>
</g>
</g>
<!-- Node26&#45;&gt;Node21 -->
<g id="edge41_Node000026_Node000021" class="edge">
<title>Node26&#45;&gt;Node21</title>
<g id="a_edge41_Node000026_Node000021"><a xlink:title=" ">
<path fill="none" stroke="#63b8ff" d="M947.96,-442.54C921.66,-432.6 886.2,-419.11 855,-407 794.63,-383.56 724.47,-355.64 684.15,-339.53"/>
<polygon fill="#63b8ff" stroke="#63b8ff" points="685.59,-336.33 675.01,-335.87 682.99,-342.83 685.59,-336.33"/>
</a>
</g>
</g>
<!-- Node27 -->
<g id="Node000027" class="node">
<title>Node27</title>
<g id="a_Node000027"><a xlink:href="default__deleter_8hpp.html" target="_top" xlink:title=" ">
<polygon fill="white" stroke="#666666" points="1199.38,-407 1098.62,-407 1098.62,-376.5 1199.38,-376.5 1199.38,-407"/>
<text text-anchor="start" x="1106.62" y="-393.5" font-family="Helvetica,sans-Serif" font-size="10.00">yaclib/util/detail</text>
<text text-anchor="middle" x="1149" y="-382.25" font-family="Helvetica,sans-Serif" font-size="10.00">/default_deleter.hpp</text>
</a>
</g>
</g>
<!-- Node26&#45;&gt;Node27 -->
<g id="edge38_Node000026_Node000027" class="edge">
<title>Node26&#45;&gt;Node27</title>
<g id="a_edge38_Node000026_Node000027"><a xlink:title=" ">
<path fill="none" stroke="#63b8ff" d="M1023.76,-442.61C1046.77,-433.45 1076.66,-421.55 1101.47,-411.68"/>
<polygon fill="#63b8ff" stroke="#63b8ff" points="1102.7,-414.95 1110.7,-408 1100.11,-408.45 1102.7,-414.95"/>
</a>
</g>
</g>
<!-- Node26&#45;&gt;Node28 -->
<g id="edge39_Node000026_Node000028" class="edge">
<title>Node26&#45;&gt;Node28</title>
<g id="a_edge39_Node000026_Node000028"><a xlink:title=" ">
<path fill="none" stroke="#63b8ff" d="M1002.66,-442.61C1013.22,-432.74 1027.18,-419.69 1038.17,-409.42"/>
<polygon fill="#63b8ff" stroke="#63b8ff" points="1040.54,-411.99 1045.46,-402.61 1035.76,-406.88 1040.54,-411.99"/>
</a>
</g>
</g>
<!-- Node29&#45;&gt;Node5 -->
<g id="edge43_Node000029_Node000005" class="edge">
<title>Node29&#45;&gt;Node5</title>
<g id="a_edge43_Node000029_Node000005"><a xlink:title=" ">
<path fill="none" stroke="#63b8ff" d="M858.91,-316.53C783.82,-304.49 639.17,-281.28 560.03,-268.58"/>
<polygon fill="#63b8ff" stroke="#63b8ff" points="560.77,-265.15 550.34,-267.03 559.66,-272.07 560.77,-265.15"/>
</a>
</g>
</g>
<!-- Node30 -->
<g id="Node000030" class="node">
<title>Node30</title>
<g id="a_Node000030"><a xlink:href="mutex__event_8hpp.html" target="_top" xlink:title=" ">
<polygon fill="white" stroke="#666666" points="891.25,-274 798.75,-274 798.75,-243.5 891.25,-243.5 891.25,-274"/>
<text text-anchor="start" x="806.75" y="-260.5" font-family="Helvetica,sans-Serif" font-size="10.00">yaclib/util/detail</text>
<text text-anchor="middle" x="845" y="-249.25" font-family="Helvetica,sans-Serif" font-size="10.00">/mutex_event.hpp</text>
</a>
</g>
</g>
<!-- Node29&#45;&gt;Node30 -->
<g id="edge44_Node000029_Node000030" class="edge">
<title>Node29&#45;&gt;Node30</title>
<g id="a_edge44_Node000029_Node000030"><a xlink:title=" ">
<path fill="none" stroke="#63b8ff" d="M892.93,-309.61C885.24,-301.61 875.55,-291.53 866.89,-282.53"/>
<polygon fill="#63b8ff" stroke="#63b8ff" points="869.52,-280.2 860.06,-275.42 864.47,-285.05 869.52,-280.2"/>
</a>
</g>
</g>
<!-- Node30&#45;&gt;Node11 -->
<g id="edge45_Node000030_Node000011" class="edge">
<title>Node30&#45;&gt;Node11</title>
<g id="a_edge45_Node000030_Node000011"><a xlink:title=" ">
<path fill="none" stroke="#63b8ff" d="M800.33,-243.04C773.04,-233.68 737.62,-220.83 707,-207.5 620.07,-169.65 602.14,-152.22 517,-110.5 495.39,-99.91 470.79,-88.37 452.04,-79.68"/>
<polygon fill="#63b8ff" stroke="#63b8ff" points="453.66,-76.57 443.11,-75.55 450.72,-82.93 453.66,-76.57"/>
</a>
</g>
</g>
<!-- Node31 -->
<g id="Node000031" class="node">
<title>Node31</title>
<g id="a_Node000031"><a xlink:title=" ">
<polygon fill="#e0e0e0" stroke="#999999" points="867.62,-201.88 822.38,-201.88 822.38,-182.62 867.62,-182.62 867.62,-201.88"/>
<text text-anchor="middle" x="845" y="-188.38" font-family="Helvetica,sans-Serif" font-size="10.00">chrono</text>
</a>
</g>
</g>
<!-- Node30&#45;&gt;Node31 -->
<g id="edge46_Node000030_Node000031" class="edge">
<title>Node30&#45;&gt;Node31</title>
<g id="a_edge46_Node000030_Node000031"><a xlink:title=" ">
<path fill="none" stroke="#63b8ff" d="M845,-243.11C845,-234.33 845,-223.02 845,-213.4"/>
<polygon fill="#63b8ff" stroke="#63b8ff" points="848.5,-213.59 845,-203.59 841.5,-213.59 848.5,-213.59"/>
</a>
</g>
</g>
<!-- Node32 -->
<g id="Node000032" class="node">
<title>Node32</title>
<g id="a_Node000032"><a xlink:title=" ">
<polygon fill="#e0e0e0" stroke="#999999" points="986.75,-207.5 885.25,-207.5 885.25,-177 986.75,-177 986.75,-207.5"/>
<text text-anchor="start" x="893.25" y="-194" font-family="Helvetica,sans-Serif" font-size="10.00">yaclib_std/condition</text>
<text text-anchor="middle" x="936" y="-182.75" font-family="Helvetica,sans-Serif" font-size="10.00">_variable</text>
</a>
</g>
</g>
<!-- Node30&#45;&gt;Node32 -->
<g id="edge47_Node000030_Node000032" class="edge">
<title>Node30&#45;&gt;Node32</title>
<g id="a_edge47_Node000030_Node000032"><a xlink:title=" ">
<path fill="none" stroke="#63b8ff" d="M865.65,-243.11C877.63,-234.62 892.94,-223.77 906.21,-214.37"/>
<polygon fill="#63b8ff" stroke="#63b8ff" points="908.06,-217.34 914.2,-208.7 904.02,-211.63 908.06,-217.34"/>
</a>
</g>
</g>
<!-- Node33 -->
<g id="Node000033" class="node">
<title>Node33</title>
<g id="a_Node000033"><a xlink:title=" ">
<polygon fill="#e0e0e0" stroke="#999999" points="804.38,-201.88 715.62,-201.88 715.62,-182.62 804.38,-182.62 804.38,-201.88"/>
<text text-anchor="middle" x="760" y="-188.38" font-family="Helvetica,sans-Serif" font-size="10.00">yaclib_std/mutex</text>
</a>
</g>
</g>
<!-- Node30&#45;&gt;Node33 -->
<g id="edge48_Node000030_Node000033" class="edge">
<title>Node30&#45;&gt;Node33</title>
<g id="a_edge48_Node000030_Node000033"><a xlink:title=" ">
<path fill="none" stroke="#63b8ff" d="M825.71,-243.11C812.31,-232.94 794.47,-219.41 780.76,-209"/>
<polygon fill="#63b8ff" stroke="#63b8ff" points="782.91,-206.24 772.83,-202.99 778.68,-211.82 782.91,-206.24"/>
</a>
</g>
</g>
<!-- Node34&#45;&gt;Node27 -->
<g id="edge51_Node000034_Node000027" class="edge">
<title>Node34&#45;&gt;Node27</title>
<g id="a_edge51_Node000034_Node000027"><a xlink:title=" ">
<path fill="none" stroke="#63b8ff" d="M1147.45,-442.61C1147.67,-435.52 1147.94,-426.79 1148.2,-418.63"/>
<polygon fill="#63b8ff" stroke="#63b8ff" points="1151.69,-418.94 1148.5,-408.84 1144.69,-418.73 1151.69,-418.94"/>
</a>
</g>
</g>
<!-- Node35&#45;&gt;Node12 -->
<g id="edge58_Node000035_Node000012" class="edge">
<title>Node35&#45;&gt;Node12</title>
<g id="a_edge58_Node000035_Node000012"><a xlink:title=" ">
<path fill="none" stroke="#63b8ff" d="M1129.42,-182.13C1026.81,-159.08 757.76,-98.62 653.82,-75.27"/>
<polygon fill="#63b8ff" stroke="#63b8ff" points="654.84,-71.91 644.32,-73.14 653.31,-78.74 654.84,-71.91"/>
</a>
</g>
</g>
<!-- Node35&#45;&gt;Node13 -->
<g id="edge59_Node000035_Node000013" class="edge">
<title>Node35&#45;&gt;Node13</title>
<g id="a_edge59_Node000035_Node000013"><a xlink:title=" ">
<path fill="none" stroke="#63b8ff" d="M1165.35,-182.36C1156.51,-166.17 1135.82,-131.62 1110,-110.5 1090.69,-94.71 1064.87,-83.05 1045.02,-75.61"/>
<polygon fill="#63b8ff" stroke="#63b8ff" points="1046.42,-72.4 1035.83,-72.33 1044.07,-78.99 1046.42,-72.4"/>
</a>
</g>
</g>
<!-- Node35&#45;&gt;Node18 -->
<g id="edge53_Node000035_Node000018" class="edge">
<title>Node35&#45;&gt;Node18</title>
<g id="a_edge53_Node000035_Node000018"><a xlink:title=" ">
<path fill="none" stroke="#63b8ff" d="M1211.25,-182.13C1233.35,-174.92 1258.7,-162.37 1272,-141 1279.16,-129.49 1278.18,-122.56 1272,-110.5 1265.39,-97.59 1253.11,-87.57 1241.21,-80.32"/>
<polygon fill="#63b8ff" stroke="#63b8ff" points="1243.2,-77.42 1232.76,-75.62 1239.8,-83.54 1243.2,-77.42"/>
</a>
</g>
</g>
<!-- Node36 -->
<g id="Node000036" class="node">
<title>Node36</title>
<g id="a_Node000036"><a xlink:href="type__traits__impl_8hpp.html" target="_top" xlink:title=" ">
<polygon fill="white" stroke="#666666" points="1262.62,-141 1157.38,-141 1157.38,-110.5 1262.62,-110.5 1262.62,-141"/>
<text text-anchor="start" x="1165.38" y="-127.5" font-family="Helvetica,sans-Serif" font-size="10.00">yaclib/util/detail</text>
<text text-anchor="middle" x="1210" y="-116.25" font-family="Helvetica,sans-Serif" font-size="10.00">/type_traits_impl.hpp</text>
</a>
</g>
</g>
<!-- Node35&#45;&gt;Node36 -->
<g id="edge54_Node000035_Node000036" class="edge">
<title>Node35&#45;&gt;Node36</title>
<g id="a_edge54_Node000035_Node000036"><a xlink:title=" ">
<path fill="none" stroke="#63b8ff" d="M1175.56,-182.28C1180.62,-174.12 1188.33,-161.7 1195.17,-150.67"/>
<polygon fill="#63b8ff" stroke="#63b8ff" points="1198.01,-152.72 1200.31,-142.38 1192.06,-149.03 1198.01,-152.72"/>
</a>
</g>
</g>
<!-- Node37 -->
<g id="Node000037" class="node">
<title>Node37</title>
<g id="a_Node000037"><a xlink:title=" ">
<polygon fill="#e0e0e0" stroke="#999999" points="1100.62,-135.38 1043.38,-135.38 1043.38,-116.12 1100.62,-116.12 1100.62,-135.38"/>
<text text-anchor="middle" x="1072" y="-121.88" font-family="Helvetica,sans-Serif" font-size="10.00">exception</text>
</a>
</g>
</g>
<!-- Node35&#45;&gt;Node37 -->
<g id="edge57_Node000035_Node000037" class="edge">
<title>Node35&#45;&gt;Node37</title>
<g id="a_edge57_Node000035_Node000037"><a xlink:title=" ">
<path fill="none" stroke="#63b8ff" d="M1156.37,-182.28C1140.59,-171.89 1114.33,-154.61 1095.29,-142.08"/>
<polygon fill="#63b8ff" stroke="#63b8ff" points="1097.37,-139.26 1087.09,-136.68 1093.52,-145.1 1097.37,-139.26"/>
</a>
</g>
</g>
<!-- Node36&#45;&gt;Node12 -->
<g id="edge56_Node000036_Node000012" class="edge">
<title>Node36&#45;&gt;Node12</title>
<g id="a_edge56_Node000036_Node000012"><a xlink:title=" ">
<path fill="none" stroke="#63b8ff" d="M1157.13,-116.69C1141.94,-114.52 1125.33,-112.28 1110,-110.5 941.59,-90.97 740.28,-75.26 654.3,-68.92"/>
<polygon fill="#63b8ff" stroke="#63b8ff" points="654.68,-65.44 644.45,-68.19 654.17,-72.42 654.68,-65.44"/>
</a>
</g>
</g>
<!-- Node36&#45;&gt;Node18 -->
<g id="edge55_Node000036_Node000018" class="edge">
<title>Node36&#45;&gt;Node18</title>
<g id="a_edge55_Node000036_Node000018"><a xlink:title=" ">
<path fill="none" stroke="#63b8ff" d="M1210,-110.2C1210,-102.96 1210,-94.09 1210,-86.19"/>
<polygon fill="#63b8ff" stroke="#63b8ff" points="1213.5,-86.46 1210,-76.46 1206.5,-86.46 1213.5,-86.46"/>
</a>
</g>
</g>
</g>
</svg>

<g id="navigator" transform="translate(0 0)" fill="#404254">
  <rect fill="#f2f5e9" fill-opacity="0.5" stroke="#606060" stroke-width=".5" x="0" y="0" width="60" height="60"/>
  <use id="zoomplus" xlink:href="#zoomPlus" x="17" y="9" onmousedown="handleZoom(evt,'in')"/>
  <use id="zoomminus" xlink:href="#zoomMin" x="42" y="9" onmousedown="handleZoom(evt,'out')"/>
  <use id="reset" xlink:href="#resetDef" x="30" y="36" onmousedown="handleReset()"/>
   <use id="arrowup" xlink:href="#arrowUp" x="0" y="0" onmousedown="handlePan(0,-1)"/>
  <use id="arrowright" xlink:href="#arrowRight" x="0" y="0" onmousedown="handlePan(1,0)"/>
  <use id="arrowdown" xlink:href="#arrowDown" x="0" y="0" onmousedown="handlePan(0,1)"/>
  <use id="arrowleft" xlink:href="#arrowLeft" x="0" y="0" onmousedown="handlePan(-1,0)"/>
</g>
<svg viewBox="0 0 15 15" width="100%" height="30px" preserveAspectRatio="xMaxYMin meet">
 <g id="arrow_out" transform="scale(0.3 0.3)">
  <a xlink:href="wait__impl_8cpp__incl_org.svg" target="_base">
   <rect id="button" ry="5" rx="5" y="6" x="6" height="38" width="38"
        fill="#f2f5e9" fill-opacity="0.5" stroke="#606060" stroke-width="1.0"/>
   <path id="arrow"
     d="M 11.500037,31.436501 C 11.940474,20.09759 22.043105,11.32322 32.158766,21.979434 L 37.068811,17.246167 C 37.068811,17.246167 37.088388,32 37.088388,32 L 22.160133,31.978069 C 22.160133,31.978069 26.997745,27.140456 26.997745,27.140456 C 18.528582,18.264221 13.291696,25.230495 11.500037,31.436501 z"
     style="fill:#404040;"/>
  </a>
 </g>
</svg>

<style type='text/css'>
<![CDATA[
[data-mouse-over-selected='false'] { opacity: 0.7; }
[data-mouse-over-selected='true']  { opacity: 1.0; }
]]>
</style>
<script type="application/ecmascript"><![CDATA[
document.addEventListener('DOMContentLoaded', (event) => {
  highlightEdges();
  highlightAdjacentNodes();
});
]]></script>
</svg>
