<?xml version="1.0" encoding="UTF-8" standalone="no"?>
<!DOCTYPE svg PUBLIC "-//W3C//DTD SVG 1.1//EN"
 "http://www.w3.org/Graphics/SVG/1.1/DTD/svg11.dtd">
<!-- Generated by graphviz version 3.0.0 (20221109.1736)
 -->
<!-- Title: src/fault/fiber/wakeup_helper.cpp Pages: 1 -->
<!--zoomable 374 -->
<svg id="main" version="1.1" xmlns="http://www.w3.org/2000/svg" xmlns:xlink="http://www.w3.org/1999/xlink" xml:space="preserve" onload="init(evt)">
<style type="text/css"><![CDATA[
.edge:hover path { stroke: red; }
.edge:hover polygon { stroke: red; fill: red; }
]]></style>
<script type="text/javascript"><![CDATA[
var edges = document.getElementsByTagName('g');
if (edges && edges.length) {
  for (var i=0;i<edges.length;i++) {
    if (edges[i].id.substr(0,4)=='edge') {
      edges[i].setAttribute('class','edge');
    }
  }
}
]]></script>
        <defs>
                <circle id="rim" cx="0" cy="0" r="7"/>
                <circle id="rim2" cx="0" cy="0" r="3.5"/>
                <g id="zoomPlus">
                        <use xlink:href="#rim" fill="#404040">
                                <set attributeName="fill" to="#808080" begin="zoomplus.mouseover" end="zoomplus.mouseout"/>
                        </use>
                        <path d="M-4,0h8M0,-4v8" fill="none" stroke="white" stroke-width="1.5" pointer-events="none"/>
                </g>
                <g id="zoomMin">
                        <use xlink:href="#rim" fill="#404040">
                                <set attributeName="fill" to="#808080" begin="zoomminus.mouseover" end="zoomminus.mouseout"/>
                        </use>
                        <path d="M-4,0h8" fill="none" stroke="white" stroke-width="1.5" pointer-events="none"/>
                </g>
                <g id="dirArrow">
                        <path fill="none" stroke="white" stroke-width="1.5" d="M0,-3.0v7 M-2.5,-0.5L0,-3.0L2.5,-0.5"/>
                </g>
               <g id="resetDef">
                       <use xlink:href="#rim2" fill="#404040">
                               <set attributeName="fill" to="#808080" begin="reset.mouseover" end="reset.mouseout"/>
                       </use>
               </g>
        </defs>

<script type="text/javascript">
var viewWidth = 1089;
var viewHeight = 374;
var sectionId = 'dynsection-0';
</script>
<script xlink:href="svgpan.js"/>
<svg id="graph" class="graph">
<g id="viewport">
<title>src/fault/fiber/wakeup_helper.cpp</title>
<!-- Node1 -->
<g id="node1" class="node">
<title>Node1</title>
<g id="a_node1"><a xlink:title=" ">
<polygon fill="#bfbfbf" stroke="black" points="421,-335.5 421,-365.5 531,-365.5 531,-335.5 421,-335.5"/>
<text text-anchor="start" x="429" y="-353.5" font-family="Helvetica,sans-Serif" font-size="10.00">src/fault/fiber/wakeup</text>
<text text-anchor="middle" x="476" y="-342.5" font-family="Helvetica,sans-Serif" font-size="10.00">_helper.cpp</text>
</a>
</g>
</g>
<!-- Node2 -->
<g id="node2" class="node">
<title>Node2</title>
<g id="a_node2"><a xlink:href="fiber__base_8hpp.html" target="_top" xlink:title=" ">
<polygon fill="none" stroke="black" points="424.5,-201.5 424.5,-231.5 527.5,-231.5 527.5,-201.5 424.5,-201.5"/>
<text text-anchor="start" x="432.5" y="-219.5" font-family="Helvetica,sans-Serif" font-size="10.00">yaclib/fault/detail</text>
<text text-anchor="middle" x="476" y="-208.5" font-family="Helvetica,sans-Serif" font-size="10.00">/fiber/fiber_base.hpp</text>
</a>
</g>
</g>
<!-- Node1&#45;&gt;Node2 -->
<g id="edge1" class="edge">
<title>Node1&#45;&gt;Node2</title>
<path fill="none" stroke="midnightblue" d="M476,-335.37C476,-313.04 476,-269.31 476,-241.85"/>
<polygon fill="midnightblue" stroke="midnightblue" points="479.5,-241.52 476,-231.52 472.5,-241.52 479.5,-241.52"/>
</g>
<!-- Node15 -->
<g id="node15" class="node">
<title>Node15</title>
<g id="a_node15"><a xlink:href="wakeup__helper_8hpp.html" target="_top" xlink:title=" ">
<polygon fill="none" stroke="black" points="0,-129 0,-159 124,-159 124,-129 0,-129"/>
<text text-anchor="start" x="8" y="-147" font-family="Helvetica,sans-Serif" font-size="10.00">yaclib/fault/detail</text>
<text text-anchor="middle" x="62" y="-136" font-family="Helvetica,sans-Serif" font-size="10.00">/fiber/wakeup_helper.hpp</text>
</a>
</g>
</g>
<!-- Node1&#45;&gt;Node15 -->
<g id="edge34" class="edge">
<title>Node1&#45;&gt;Node15</title>
<path fill="none" stroke="midnightblue" d="M447.54,-335.44C374.78,-299.5 181.9,-204.22 99.82,-163.68"/>
<polygon fill="midnightblue" stroke="midnightblue" points="100.9,-160.31 90.38,-159.02 97.8,-166.59 100.9,-160.31"/>
</g>
<!-- Node18 -->
<g id="node18" class="node">
<title>Node18</title>
<g id="a_node18"><a xlink:href="scheduler_8hpp.html" target="_top" xlink:title=" ">
<polygon fill="none" stroke="black" points="618.5,-268.5 618.5,-298.5 719.5,-298.5 719.5,-268.5 618.5,-268.5"/>
<text text-anchor="start" x="626.5" y="-286.5" font-family="Helvetica,sans-Serif" font-size="10.00">yaclib/fault/detail</text>
<text text-anchor="middle" x="669" y="-275.5" font-family="Helvetica,sans-Serif" font-size="10.00">/fiber/scheduler.hpp</text>
</a>
</g>
</g>
<!-- Node1&#45;&gt;Node18 -->
<g id="edge24" class="edge">
<title>Node1&#45;&gt;Node18</title>
<path fill="none" stroke="midnightblue" d="M517.88,-335.4C547.09,-325.56 586.26,-312.37 617.4,-301.88"/>
<polygon fill="midnightblue" stroke="midnightblue" points="618.84,-305.09 627.2,-298.58 616.61,-298.45 618.84,-305.09"/>
</g>
<!-- Node3 -->
<g id="node3" class="node">
<title>Node3</title>
<g id="a_node3"><a xlink:title=" ">
<polygon fill="none" stroke="#bfbfbf" points="148,-62 148,-81 236,-81 236,-62 148,-62"/>
<text text-anchor="middle" x="192" y="-69" font-family="Helvetica,sans-Serif" font-size="10.00">yaclib/config.hpp</text>
</a>
</g>
</g>
<!-- Node2&#45;&gt;Node3 -->
<g id="edge2" class="edge">
<title>Node2&#45;&gt;Node3</title>
<path fill="none" stroke="midnightblue" d="M424.45,-214.69C346.14,-212.25 202.89,-202.61 171,-165 152.89,-143.64 168.11,-109.84 180.37,-89.55"/>
<polygon fill="midnightblue" stroke="midnightblue" points="183.38,-91.34 185.82,-81.03 177.48,-87.56 183.38,-91.34"/>
</g>
<!-- Node4 -->
<g id="node4" class="node">
<title>Node4</title>
<g id="a_node4"><a xlink:href="bidirectional__intrusive__list_8hpp.html" target="_top" xlink:title=" ">
<polygon fill="none" stroke="black" points="845.5,-123.5 845.5,-164.5 940.5,-164.5 940.5,-123.5 845.5,-123.5"/>
<text text-anchor="start" x="853.5" y="-152.5" font-family="Helvetica,sans-Serif" font-size="10.00">yaclib/fault/detail</text>
<text text-anchor="start" x="853.5" y="-141.5" font-family="Helvetica,sans-Serif" font-size="10.00">/fiber/bidirectional</text>
<text text-anchor="middle" x="893" y="-130.5" font-family="Helvetica,sans-Serif" font-size="10.00">_intrusive_list.hpp</text>
</a>
</g>
</g>
<!-- Node2&#45;&gt;Node4 -->
<g id="edge3" class="edge">
<title>Node2&#45;&gt;Node4</title>
<path fill="none" stroke="midnightblue" d="M527.75,-206.1C538.08,-204.32 548.88,-202.54 559,-201 678.5,-182.81 713.39,-193.13 835.23,-164.92"/>
<polygon fill="midnightblue" stroke="midnightblue" points="836.39,-168.24 845.32,-162.54 834.79,-161.43 836.39,-168.24"/>
</g>
<!-- Node8 -->
<g id="node8" class="node">
<title>Node8</title>
<g id="a_node8"><a xlink:href="default__allocator_8hpp.html" target="_top" xlink:title=" ">
<polygon fill="none" stroke="black" points="697,-129 697,-159 827,-159 827,-129 697,-129"/>
<text text-anchor="start" x="705" y="-147" font-family="Helvetica,sans-Serif" font-size="10.00">yaclib/fault/detail</text>
<text text-anchor="middle" x="762" y="-136" font-family="Helvetica,sans-Serif" font-size="10.00">/fiber/default_allocator.hpp</text>
</a>
</g>
</g>
<!-- Node2&#45;&gt;Node8 -->
<g id="edge7" class="edge">
<title>Node2&#45;&gt;Node8</title>
<path fill="none" stroke="midnightblue" d="M527.79,-202.73C574.73,-191.16 644.16,-174.05 695.24,-161.46"/>
<polygon fill="midnightblue" stroke="midnightblue" points="696.33,-164.79 705.2,-159 694.65,-158 696.33,-164.79"/>
</g>
<!-- Node9 -->
<g id="node9" class="node">
<title>Node9</title>
<g id="a_node9"><a xlink:href="stack__allocator_8hpp.html" target="_top" xlink:title=" ">
<polygon fill="none" stroke="black" points="497.5,-56.5 497.5,-86.5 622.5,-86.5 622.5,-56.5 497.5,-56.5"/>
<text text-anchor="start" x="505.5" y="-74.5" font-family="Helvetica,sans-Serif" font-size="10.00">yaclib/fault/detail</text>
<text text-anchor="middle" x="560" y="-63.5" font-family="Helvetica,sans-Serif" font-size="10.00">/fiber/stack_allocator.hpp</text>
</a>
</g>
</g>
<!-- Node2&#45;&gt;Node9 -->
<g id="edge20" class="edge">
<title>Node2&#45;&gt;Node9</title>
<path fill="none" stroke="midnightblue" d="M484.36,-201.27C498.89,-176.53 528.92,-125.41 546.45,-95.56"/>
<polygon fill="midnightblue" stroke="midnightblue" points="549.63,-97.07 551.67,-86.68 543.59,-93.53 549.63,-97.07"/>
</g>
<!-- Node12 -->
<g id="node12" class="node">
<title>Node12</title>
<g id="a_node12"><a xlink:href="execution__context_8hpp.html" target="_top" xlink:title=" ">
<polygon fill="none" stroke="black" points="256.5,-129 256.5,-159 393.5,-159 393.5,-129 256.5,-129"/>
<text text-anchor="start" x="264.5" y="-147" font-family="Helvetica,sans-Serif" font-size="10.00">yaclib/fault/detail</text>
<text text-anchor="middle" x="325" y="-136" font-family="Helvetica,sans-Serif" font-size="10.00">/fiber/execution_context.hpp</text>
</a>
</g>
</g>
<!-- Node2&#45;&gt;Node12 -->
<g id="edge13" class="edge">
<title>Node2&#45;&gt;Node12</title>
<path fill="none" stroke="midnightblue" d="M445.81,-201.4C422.45,-190.5 389.92,-175.31 364.5,-163.44"/>
<polygon fill="midnightblue" stroke="midnightblue" points="365.68,-160.13 355.14,-159.07 362.72,-166.47 365.68,-160.13"/>
</g>
<!-- Node14 -->
<g id="node14" class="node">
<title>Node14</title>
<g id="a_node14"><a xlink:href="stack_8hpp.html" target="_top" xlink:title=" ">
<polygon fill="none" stroke="black" points="551.5,-129 551.5,-159 640.5,-159 640.5,-129 551.5,-129"/>
<text text-anchor="start" x="559.5" y="-147" font-family="Helvetica,sans-Serif" font-size="10.00">yaclib/fault/detail</text>
<text text-anchor="middle" x="596" y="-136" font-family="Helvetica,sans-Serif" font-size="10.00">/fiber/stack.hpp</text>
</a>
</g>
</g>
<!-- Node2&#45;&gt;Node14 -->
<g id="edge17" class="edge">
<title>Node2&#45;&gt;Node14</title>
<path fill="none" stroke="midnightblue" d="M500,-201.4C518.15,-190.74 543.27,-175.98 563.26,-164.23"/>
<polygon fill="midnightblue" stroke="midnightblue" points="565.2,-167.16 572.05,-159.07 561.65,-161.12 565.2,-167.16"/>
</g>
<!-- Node2&#45;&gt;Node15 -->
<g id="edge21" class="edge">
<title>Node2&#45;&gt;Node15</title>
<path fill="none" stroke="midnightblue" d="M424.44,-209.57C357.9,-201.51 238.69,-185.71 138,-165 132.74,-163.92 127.3,-162.7 121.86,-161.4"/>
<polygon fill="midnightblue" stroke="midnightblue" points="122.65,-157.99 112.1,-159.01 120.98,-164.79 122.65,-157.99"/>
</g>
<!-- Node16 -->
<g id="node16" class="node">
<title>Node16</title>
<g id="a_node16"><a xlink:title=" ">
<polygon fill="none" stroke="#bfbfbf" points="180,-134.5 180,-153.5 238,-153.5 238,-134.5 180,-134.5"/>
<text text-anchor="middle" x="209" y="-141.5" font-family="Helvetica,sans-Serif" font-size="10.00">exception</text>
</a>
</g>
</g>
<!-- Node2&#45;&gt;Node16 -->
<g id="edge22" class="edge">
<title>Node2&#45;&gt;Node16</title>
<path fill="none" stroke="midnightblue" d="M424.41,-208.17C377.25,-200.53 306.07,-186.61 247,-165 241.97,-163.16 236.76,-160.77 231.88,-158.29"/>
<polygon fill="midnightblue" stroke="midnightblue" points="233.49,-155.18 223.02,-153.53 230.17,-161.35 233.49,-155.18"/>
</g>
<!-- Node17 -->
<g id="node17" class="node">
<title>Node17</title>
<g id="a_node17"><a xlink:title=" ">
<polygon fill="none" stroke="#bfbfbf" points="411.5,-134.5 411.5,-153.5 494.5,-153.5 494.5,-134.5 411.5,-134.5"/>
<text text-anchor="middle" x="453" y="-141.5" font-family="Helvetica,sans-Serif" font-size="10.00">unordered_map</text>
</a>
</g>
</g>
<!-- Node2&#45;&gt;Node17 -->
<g id="edge23" class="edge">
<title>Node2&#45;&gt;Node17</title>
<path fill="none" stroke="midnightblue" d="M471.35,-201.23C467.81,-190.39 462.91,-175.38 459.07,-163.6"/>
<polygon fill="midnightblue" stroke="midnightblue" points="462.33,-162.31 455.9,-153.89 455.68,-164.49 462.33,-162.31"/>
</g>
<!-- Node5 -->
<g id="node5" class="node">
<title>Node5</title>
<g id="a_node5"><a xlink:href="log_8hpp.html" target="_top" xlink:title=" ">
<polygon fill="none" stroke="black" points="900.5,-62 900.5,-81 975.5,-81 975.5,-62 900.5,-62"/>
<text text-anchor="middle" x="938" y="-69" font-family="Helvetica,sans-Serif" font-size="10.00">yaclib/log.hpp</text>
</a>
</g>
</g>
<!-- Node4&#45;&gt;Node5 -->
<g id="edge4" class="edge">
<title>Node4&#45;&gt;Node5</title>
<path fill="none" stroke="midnightblue" d="M905.54,-123.36C912.24,-112.86 920.41,-100.05 926.89,-89.91"/>
<polygon fill="midnightblue" stroke="midnightblue" points="930.03,-91.49 932.46,-81.17 924.13,-87.72 930.03,-91.49"/>
</g>
<!-- Node7 -->
<g id="node7" class="node">
<title>Node7</title>
<g id="a_node7"><a xlink:title=" ">
<polygon fill="none" stroke="#bfbfbf" points="836,-62 836,-81 882,-81 882,-62 836,-62"/>
<text text-anchor="middle" x="859" y="-69" font-family="Helvetica,sans-Serif" font-size="10.00">cstdint</text>
</a>
</g>
</g>
<!-- Node4&#45;&gt;Node7 -->
<g id="edge6" class="edge">
<title>Node4&#45;&gt;Node7</title>
<path fill="none" stroke="midnightblue" d="M883.53,-123.36C878.52,-112.97 872.41,-100.32 867.55,-90.23"/>
<polygon fill="midnightblue" stroke="midnightblue" points="870.68,-88.66 863.18,-81.17 864.37,-91.7 870.68,-88.66"/>
</g>
<!-- Node6 -->
<g id="node6" class="node">
<title>Node6</title>
<g id="a_node6"><a xlink:title=" ">
<polygon fill="none" stroke="#bfbfbf" points="905,-0.5 905,-19.5 971,-19.5 971,-0.5 905,-0.5"/>
<text text-anchor="middle" x="938" y="-7.5" font-family="Helvetica,sans-Serif" font-size="10.00">string_view</text>
</a>
</g>
</g>
<!-- Node5&#45;&gt;Node6 -->
<g id="edge5" class="edge">
<title>Node5&#45;&gt;Node6</title>
<path fill="none" stroke="midnightblue" d="M938,-61.98C938,-53.58 938,-40.48 938,-29.66"/>
<polygon fill="midnightblue" stroke="midnightblue" points="941.5,-29.51 938,-19.51 934.5,-29.51 941.5,-29.51"/>
</g>
<!-- Node8&#45;&gt;Node5 -->
<g id="edge10" class="edge">
<title>Node8&#45;&gt;Node5</title>
<path fill="none" stroke="midnightblue" d="M797.19,-128.9C829.42,-115.99 876.63,-97.08 907.35,-84.78"/>
<polygon fill="midnightblue" stroke="midnightblue" points="908.71,-88 916.7,-81.03 906.11,-81.5 908.71,-88"/>
</g>
<!-- Node8&#45;&gt;Node7 -->
<g id="edge11" class="edge">
<title>Node8&#45;&gt;Node7</title>
<path fill="none" stroke="midnightblue" d="M781.63,-128.73C798.16,-116.72 821.74,-99.58 838.51,-87.39"/>
<polygon fill="midnightblue" stroke="midnightblue" points="841.01,-89.9 847.04,-81.19 836.9,-84.24 841.01,-89.9"/>
</g>
<!-- Node8&#45;&gt;Node9 -->
<g id="edge8" class="edge">
<title>Node8&#45;&gt;Node9</title>
<path fill="none" stroke="midnightblue" d="M721.61,-128.9C689.54,-117.71 644.54,-102.01 610.17,-90.01"/>
<polygon fill="midnightblue" stroke="midnightblue" points="610.92,-86.56 600.32,-86.57 608.61,-93.17 610.92,-86.56"/>
</g>
<!-- Node11 -->
<g id="node11" class="node">
<title>Node11</title>
<g id="a_node11"><a xlink:title=" ">
<polygon fill="none" stroke="#bfbfbf" points="740,-62 740,-81 784,-81 784,-62 740,-62"/>
<text text-anchor="middle" x="762" y="-69" font-family="Helvetica,sans-Serif" font-size="10.00">vector</text>
</a>
</g>
</g>
<!-- Node8&#45;&gt;Node11 -->
<g id="edge12" class="edge">
<title>Node8&#45;&gt;Node11</title>
<path fill="none" stroke="midnightblue" d="M762,-128.73C762,-118 762,-103.19 762,-91.46"/>
<polygon fill="midnightblue" stroke="midnightblue" points="765.5,-91.39 762,-81.39 758.5,-91.39 765.5,-91.39"/>
</g>
<!-- Node10 -->
<g id="node10" class="node">
<title>Node10</title>
<g id="a_node10"><a xlink:title=" ">
<polygon fill="none" stroke="#bfbfbf" points="581.5,-0.5 581.5,-19.5 630.5,-19.5 630.5,-0.5 581.5,-0.5"/>
<text text-anchor="middle" x="606" y="-7.5" font-family="Helvetica,sans-Serif" font-size="10.00">cstddef</text>
</a>
</g>
</g>
<!-- Node9&#45;&gt;Node10 -->
<g id="edge9" class="edge">
<title>Node9&#45;&gt;Node10</title>
<path fill="none" stroke="midnightblue" d="M570.9,-56.4C577.59,-47.75 586.18,-36.64 593.18,-27.58"/>
<polygon fill="midnightblue" stroke="midnightblue" points="595.96,-29.71 599.31,-19.66 590.42,-25.43 595.96,-29.71"/>
</g>
<!-- Node12&#45;&gt;Node3 -->
<g id="edge14" class="edge">
<title>Node12&#45;&gt;Node3</title>
<path fill="none" stroke="midnightblue" d="M298.41,-128.9C274.69,-116.33 240.22,-98.06 217,-85.75"/>
<polygon fill="midnightblue" stroke="midnightblue" points="218.57,-82.62 208.1,-81.03 215.3,-88.81 218.57,-82.62"/>
</g>
<!-- Node12&#45;&gt;Node9 -->
<g id="edge15" class="edge">
<title>Node12&#45;&gt;Node9</title>
<path fill="none" stroke="midnightblue" d="M371.71,-128.99C409.55,-117.64 463,-101.6 503.3,-89.51"/>
<polygon fill="midnightblue" stroke="midnightblue" points="504.4,-92.83 512.98,-86.61 502.39,-86.13 504.4,-92.83"/>
</g>
<!-- Node13 -->
<g id="node13" class="node">
<title>Node13</title>
<g id="a_node13"><a xlink:title=" ">
<polygon fill="none" stroke="#bfbfbf" points="294.5,-62 294.5,-81 355.5,-81 355.5,-62 294.5,-62"/>
<text text-anchor="middle" x="325" y="-69" font-family="Helvetica,sans-Serif" font-size="10.00">ucontext.h</text>
</a>
</g>
</g>
<!-- Node12&#45;&gt;Node13 -->
<g id="edge16" class="edge">
<title>Node12&#45;&gt;Node13</title>
<path fill="none" stroke="midnightblue" d="M325,-128.73C325,-118 325,-103.19 325,-91.46"/>
<polygon fill="midnightblue" stroke="midnightblue" points="328.5,-91.39 325,-81.39 321.5,-91.39 328.5,-91.39"/>
</g>
<!-- Node14&#45;&gt;Node9 -->
<g id="edge18" class="edge">
<title>Node14&#45;&gt;Node9</title>
<path fill="none" stroke="midnightblue" d="M588.71,-128.73C583.88,-119.27 577.43,-106.64 571.87,-95.75"/>
<polygon fill="midnightblue" stroke="midnightblue" points="574.94,-94.06 567.27,-86.75 568.71,-97.24 574.94,-94.06"/>
</g>
<!-- Node14&#45;&gt;Node10 -->
<g id="edge19" class="edge">
<title>Node14&#45;&gt;Node10</title>
<path fill="none" stroke="midnightblue" d="M608.31,-128.94C616.8,-118.25 627.38,-102.75 632,-87 635.88,-73.78 635.57,-69.31 632,-56 629.35,-46.1 623.93,-36.13 618.73,-28.1"/>
<polygon fill="midnightblue" stroke="midnightblue" points="621.46,-25.91 612.89,-19.68 615.71,-29.89 621.46,-25.91"/>
</g>
<!-- Node18&#45;&gt;Node2 -->
<g id="edge26" class="edge">
<title>Node18&#45;&gt;Node2</title>
<path fill="none" stroke="midnightblue" d="M627.12,-268.4C597.91,-258.56 558.74,-245.37 527.6,-234.88"/>
<polygon fill="midnightblue" stroke="midnightblue" points="528.39,-231.45 517.8,-231.58 526.16,-238.09 528.39,-231.45"/>
</g>
<!-- Node18&#45;&gt;Node5 -->
<g id="edge31" class="edge">
<title>Node18&#45;&gt;Node5</title>
<path fill="none" stroke="midnightblue" d="M719.71,-278.21C786.96,-271.64 901.02,-257.11 934,-232 974.27,-201.34 980.04,-171.91 967,-123 963.8,-110.98 956.98,-98.86 950.75,-89.5"/>
<polygon fill="midnightblue" stroke="midnightblue" points="953.51,-87.33 944.89,-81.17 947.79,-91.36 953.51,-87.33"/>
</g>
<!-- Node18&#45;&gt;Node8 -->
<g id="edge25" class="edge">
<title>Node18&#45;&gt;Node8</title>
<path fill="none" stroke="midnightblue" d="M678.6,-268.3C694.68,-244.53 727.19,-196.46 746.53,-167.87"/>
<polygon fill="midnightblue" stroke="midnightblue" points="749.61,-169.57 752.31,-159.33 743.81,-165.65 749.61,-169.57"/>
</g>
<!-- Node18&#45;&gt;Node9 -->
<g id="edge28" class="edge">
<title>Node18&#45;&gt;Node9</title>
<path fill="none" stroke="midnightblue" d="M671.3,-268.27C675.32,-238.51 680.52,-168.68 650,-123 640.77,-109.18 626.41,-98.75 611.86,-91.06"/>
<polygon fill="midnightblue" stroke="midnightblue" points="613.33,-87.88 602.81,-86.62 610.25,-94.17 613.33,-87.88"/>
</g>
<!-- Node18&#45;&gt;Node14 -->
<g id="edge27" class="edge">
<title>Node18&#45;&gt;Node14</title>
<path fill="none" stroke="midnightblue" d="M661.46,-268.3C648.89,-244.63 623.54,-196.88 608.34,-168.24"/>
<polygon fill="midnightblue" stroke="midnightblue" points="611.39,-166.52 603.61,-159.33 605.2,-169.8 611.39,-166.52"/>
</g>
<!-- Node19 -->
<g id="node19" class="node">
<title>Node19</title>
<g id="a_node19"><a xlink:href="inject_8hpp.html" target="_top" xlink:title=" ">
<polygon fill="none" stroke="black" points="817.5,-207 817.5,-226 924.5,-226 924.5,-207 817.5,-207"/>
<text text-anchor="middle" x="871" y="-214" font-family="Helvetica,sans-Serif" font-size="10.00">yaclib/fault/inject.hpp</text>
</a>
</g>
</g>
<!-- Node18&#45;&gt;Node19 -->
<g id="edge29" class="edge">
<title>Node18&#45;&gt;Node19</title>
<path fill="none" stroke="midnightblue" d="M712.83,-268.4C749.37,-256.64 800.8,-240.09 834.98,-229.09"/>
<polygon fill="midnightblue" stroke="midnightblue" points="836.12,-232.4 844.56,-226.01 833.97,-225.74 836.12,-232.4"/>
</g>
<!-- Node20 -->
<g id="node20" class="node">
<title>Node20</title>
<g id="a_node20"><a xlink:title=" ">
<polygon fill="none" stroke="#bfbfbf" points="1035,-207 1035,-226 1081,-226 1081,-207 1035,-207"/>
<text text-anchor="middle" x="1058" y="-214" font-family="Helvetica,sans-Serif" font-size="10.00">chrono</text>
</a>
</g>
</g>
<!-- Node18&#45;&gt;Node20 -->
<g id="edge32" class="edge">
<title>Node18&#45;&gt;Node20</title>
<path fill="none" stroke="midnightblue" d="M719.57,-278.93C788.6,-273.23 915.79,-259.76 1021,-232 1023.66,-231.3 1026.39,-230.46 1029.1,-229.55"/>
<polygon fill="midnightblue" stroke="midnightblue" points="1030.51,-232.76 1038.69,-226.04 1028.1,-226.19 1030.51,-232.76"/>
</g>
<!-- Node21 -->
<g id="node21" class="node">
<title>Node21</title>
<g id="a_node21"><a xlink:title=" ">
<polygon fill="none" stroke="#bfbfbf" points="567.5,-207 567.5,-226 602.5,-226 602.5,-207 567.5,-207"/>
<text text-anchor="middle" x="585" y="-214" font-family="Helvetica,sans-Serif" font-size="10.00">map</text>
</a>
</g>
</g>
<!-- Node18&#45;&gt;Node21 -->
<g id="edge33" class="edge">
<title>Node18&#45;&gt;Node21</title>
<path fill="none" stroke="midnightblue" d="M650.77,-268.4C637.03,-257.76 618.22,-243.2 604.23,-232.38"/>
<polygon fill="midnightblue" stroke="midnightblue" points="606.29,-229.55 596.24,-226.19 602,-235.08 606.29,-229.55"/>
</g>
<!-- Node19&#45;&gt;Node7 -->
<g id="edge30" class="edge">
<title>Node19&#45;&gt;Node7</title>
<path fill="none" stroke="midnightblue" d="M896.28,-206.93C914.82,-199.15 938.66,-185.7 950,-165 958.97,-148.63 959.47,-139.09 950,-123 946.32,-116.75 911.49,-98.49 886.01,-85.73"/>
<polygon fill="midnightblue" stroke="midnightblue" points="887.3,-82.47 876.79,-81.15 884.18,-88.73 887.3,-82.47"/>
</g>
</g>
</svg>
        <g id="navigator" transform="translate(0 0)" fill="#404254">
                <rect fill="#f2f5e9" fill-opacity="0.5" stroke="#606060" stroke-width=".5" x="0" y="0" width="60" height="60"/>
                <use id="zoomplus" xlink:href="#zoomPlus" x="17" y="9" onmousedown="handleZoom(evt,'in')"/>
                <use id="zoomminus" xlink:href="#zoomMin" x="42" y="9" onmousedown="handleZoom(evt,'out')"/>
                <use id="reset" xlink:href="#resetDef" x="30" y="36" onmousedown="handleReset()"/>
                <g id="arrowUp" xlink:href="#dirArrow" transform="translate(30 24)" onmousedown="handlePan(0,-1)">
                  <use xlink:href="#rim" fill="#404040">
                        <set attributeName="fill" to="#808080" begin="arrowUp.mouseover" end="arrowUp.mouseout"/>
                  </use>
                  <path fill="none" stroke="white" stroke-width="1.5" d="M0,-3.0v7 M-2.5,-0.5L0,-3.0L2.5,-0.5"/>
                </g>
                <g id="arrowRight" xlink:href="#dirArrow" transform="rotate(90) translate(36 -43)" onmousedown="handlePan(1,0)">
                  <use xlink:href="#rim" fill="#404040">
                        <set attributeName="fill" to="#808080" begin="arrowRight.mouseover" end="arrowRight.mouseout"/>
                  </use>
                  <path fill="none" stroke="white" stroke-width="1.5" d="M0,-3.0v7 M-2.5,-0.5L0,-3.0L2.5,-0.5"/>
                </g>
                <g id="arrowDown" xlink:href="#dirArrow" transform="rotate(180) translate(-30 -48)" onmousedown="handlePan(0,1)">
                  <use xlink:href="#rim" fill="#404040">
                        <set attributeName="fill" to="#808080" begin="arrowDown.mouseover" end="arrowDown.mouseout"/>
                  </use>
                  <path fill="none" stroke="white" stroke-width="1.5" d="M0,-3.0v7 M-2.5,-0.5L0,-3.0L2.5,-0.5"/>
                </g>
                <g id="arrowLeft" xlink:href="#dirArrow" transform="rotate(270) translate(-36 17)" onmousedown="handlePan(-1,0)">
                  <use xlink:href="#rim" fill="#404040">
                        <set attributeName="fill" to="#808080" begin="arrowLeft.mouseover" end="arrowLeft.mouseout"/>
                  </use>
                  <path fill="none" stroke="white" stroke-width="1.5" d="M0,-3.0v7 M-2.5,-0.5L0,-3.0L2.5,-0.5"/>
                </g>
        </g>
        <svg viewBox="0 0 15 15" width="100%" height="30px" preserveAspectRatio="xMaxYMin meet">
         <g id="arrow_out" transform="scale(0.3 0.3)">
          <a xlink:href="wakeup__helper_8cpp__incl_org.svg" target="_base">
           <rect id="button" ry="5" rx="5" y="6" x="6" height="38" width="38"
                fill="#f2f5e9" fill-opacity="0.5" stroke="#606060" stroke-width="1.0"/>
           <path id="arrow"
             d="M 11.500037,31.436501 C 11.940474,20.09759 22.043105,11.32322 32.158766,21.979434 L 37.068811,17.246167 C 37.068811,17.246167 37.088388,32 37.088388,32 L 22.160133,31.978069 C 22.160133,31.978069 26.997745,27.140456 26.997745,27.140456 C 18.528582,18.264221 13.291696,25.230495 11.500037,31.436501 z"
             style="fill:#404040;"/>
          </a>
         </g>
        </svg>
</svg>
