<?xml version="1.0" encoding="UTF-8" standalone="no"?>
<!DOCTYPE svg PUBLIC "-//W3C//DTD SVG 1.1//EN"
 "http://www.w3.org/Graphics/SVG/1.1/DTD/svg11.dtd">
<!-- Generated by graphviz version 3.0.0 (20220413.0242)
 -->
<!-- Title: src/fault/fiber/wakeup_helper.cpp Pages: 1 -->
<!--zoomable 374 -->
<svg id="main" version="1.1" xmlns="http://www.w3.org/2000/svg" xmlns:xlink="http://www.w3.org/1999/xlink" xml:space="preserve" onload="init(evt)">
<style type="text/css"><![CDATA[
.edge:hover path { stroke: red; }
.edge:hover polygon { stroke: red; fill: red; }
]]></style>
<script type="text/javascript"><![CDATA[
var edges = document.getElementsByTagName('g');
if (edges && edges.length) {
  for (var i=0;i<edges.length;i++) {
    if (edges[i].id.substr(0,4)=='edge') {
      edges[i].setAttribute('class','edge');
    }
  }
}
]]></script>
        <defs>
                <circle id="rim" cx="0" cy="0" r="7"/>
                <circle id="rim2" cx="0" cy="0" r="3.5"/>
                <g id="zoomPlus">
                        <use xlink:href="#rim" fill="#404040">
                                <set attributeName="fill" to="#808080" begin="zoomplus.mouseover" end="zoomplus.mouseout"/>
                        </use>
                        <path d="M-4,0h8M0,-4v8" fill="none" stroke="white" stroke-width="1.5" pointer-events="none"/>
                </g>
                <g id="zoomMin">
                        <use xlink:href="#rim" fill="#404040">
                                <set attributeName="fill" to="#808080" begin="zoomminus.mouseover" end="zoomminus.mouseout"/>
                        </use>
                        <path d="M-4,0h8" fill="none" stroke="white" stroke-width="1.5" pointer-events="none"/>
                </g>
                <g id="dirArrow">
                        <path fill="none" stroke="white" stroke-width="1.5" d="M0,-3.0v7 M-2.5,-0.5L0,-3.0L2.5,-0.5"/>
                </g>
               <g id="resetDef">
                       <use xlink:href="#rim2" fill="#404040">
                               <set attributeName="fill" to="#808080" begin="reset.mouseover" end="reset.mouseout"/>
                       </use>
               </g>
        </defs>

<script type="text/javascript">
var viewWidth = 1114;
var viewHeight = 374;
var sectionId = 'dynsection-0';
</script>
<script xlink:href="svgpan.js"/>
<svg id="graph" class="graph">
<g id="viewport">
<title>src/fault/fiber/wakeup_helper.cpp</title>
<!-- Node1 -->
<g id="node1" class="node">
<title>Node1</title>
<g id="a_node1"><a xlink:title=" ">
<polygon fill="#bfbfbf" stroke="black" points="389,-335.5 389,-365.5 499,-365.5 499,-335.5 389,-335.5"/>
<text text-anchor="start" x="397" y="-353.5" font-family="Helvetica,sans-Serif" font-size="10.00">src/fault/fiber/wakeup</text>
<text text-anchor="middle" x="444" y="-342.5" font-family="Helvetica,sans-Serif" font-size="10.00">_helper.cpp</text>
</a>
</g>
</g>
<!-- Node2 -->
<g id="node2" class="node">
<title>Node2</title>
<g id="a_node2"><a xlink:href="fiber__base_8hpp.html" target="_top" xlink:title=" ">
<polygon fill="none" stroke="black" points="392.5,-201.5 392.5,-231.5 495.5,-231.5 495.5,-201.5 392.5,-201.5"/>
<text text-anchor="start" x="400.5" y="-219.5" font-family="Helvetica,sans-Serif" font-size="10.00">yaclib/fault/detail</text>
<text text-anchor="middle" x="444" y="-208.5" font-family="Helvetica,sans-Serif" font-size="10.00">/fiber/fiber_base.hpp</text>
</a>
</g>
</g>
<!-- Node1&#45;&gt;Node2 -->
<g id="edge1" class="edge">
<title>Node1&#45;&gt;Node2</title>
<path fill="none" stroke="midnightblue" d="M444,-335.37C444,-313.04 444,-269.31 444,-241.85"/>
<polygon fill="midnightblue" stroke="midnightblue" points="447.5,-241.52 444,-231.52 440.5,-241.52 447.5,-241.52"/>
</g>
<!-- Node15 -->
<g id="node15" class="node">
<title>Node15</title>
<g id="a_node15"><a xlink:href="wakeup__helper_8hpp.html" target="_top" xlink:title=" ">
<polygon fill="none" stroke="black" points="0,-129 0,-159 124,-159 124,-129 0,-129"/>
<text text-anchor="start" x="8" y="-147" font-family="Helvetica,sans-Serif" font-size="10.00">yaclib/fault/detail</text>
<text text-anchor="middle" x="62" y="-136" font-family="Helvetica,sans-Serif" font-size="10.00">/fiber/wakeup_helper.hpp</text>
</a>
</g>
</g>
<!-- Node1&#45;&gt;Node15 -->
<g id="edge33" class="edge">
<title>Node1&#45;&gt;Node15</title>
<path fill="none" stroke="midnightblue" d="M417.74,-335.44C350.74,-299.57 173.35,-204.61 97.36,-163.93"/>
<polygon fill="midnightblue" stroke="midnightblue" points="98.66,-160.65 88.19,-159.02 95.35,-166.82 98.66,-160.65"/>
</g>
<!-- Node18 -->
<g id="node18" class="node">
<title>Node18</title>
<g id="a_node18"><a xlink:href="scheduler_8hpp.html" target="_top" xlink:title=" ">
<polygon fill="none" stroke="black" points="583.5,-268.5 583.5,-298.5 684.5,-298.5 684.5,-268.5 583.5,-268.5"/>
<text text-anchor="start" x="591.5" y="-286.5" font-family="Helvetica,sans-Serif" font-size="10.00">yaclib/fault/detail</text>
<text text-anchor="middle" x="634" y="-275.5" font-family="Helvetica,sans-Serif" font-size="10.00">/fiber/scheduler.hpp</text>
</a>
</g>
</g>
<!-- Node1&#45;&gt;Node18 -->
<g id="edge23" class="edge">
<title>Node1&#45;&gt;Node18</title>
<path fill="none" stroke="midnightblue" d="M485.23,-335.4C513.98,-325.56 552.54,-312.37 583.2,-301.88"/>
<polygon fill="midnightblue" stroke="midnightblue" points="584.52,-305.13 592.85,-298.58 582.26,-298.5 584.52,-305.13"/>
</g>
<!-- Node3 -->
<g id="node3" class="node">
<title>Node3</title>
<g id="a_node3"><a xlink:title=" ">
<polygon fill="none" stroke="#bfbfbf" points="110,-62 110,-81 198,-81 198,-62 110,-62"/>
<text text-anchor="middle" x="154" y="-69" font-family="Helvetica,sans-Serif" font-size="10.00">yaclib/config.hpp</text>
</a>
</g>
</g>
<!-- Node2&#45;&gt;Node3 -->
<g id="edge2" class="edge">
<title>Node2&#45;&gt;Node3</title>
<path fill="none" stroke="midnightblue" d="M392.45,-212.79C322.13,-207.98 201.4,-195.44 171,-165 151.72,-145.7 150.37,-112.2 151.75,-91.25"/>
<polygon fill="midnightblue" stroke="midnightblue" points="155.26,-91.35 152.7,-81.07 148.29,-90.7 155.26,-91.35"/>
</g>
<!-- Node4 -->
<g id="node4" class="node">
<title>Node4</title>
<g id="a_node4"><a xlink:href="bidirectional__intrusive__list_8hpp.html" target="_top" xlink:title=" ">
<polygon fill="none" stroke="black" points="846.5,-123.5 846.5,-164.5 941.5,-164.5 941.5,-123.5 846.5,-123.5"/>
<text text-anchor="start" x="854.5" y="-152.5" font-family="Helvetica,sans-Serif" font-size="10.00">yaclib/fault/detail</text>
<text text-anchor="start" x="854.5" y="-141.5" font-family="Helvetica,sans-Serif" font-size="10.00">/fiber/bidirectional</text>
<text text-anchor="middle" x="894" y="-130.5" font-family="Helvetica,sans-Serif" font-size="10.00">_intrusive_list.hpp</text>
</a>
</g>
</g>
<!-- Node2&#45;&gt;Node4 -->
<g id="edge3" class="edge">
<title>Node2&#45;&gt;Node4</title>
<path fill="none" stroke="midnightblue" d="M495.61,-207.71C510.86,-205.47 527.59,-203.07 543,-201 670.28,-183.89 707.03,-194.42 836.44,-164.86"/>
<polygon fill="midnightblue" stroke="midnightblue" points="837.38,-168.24 846.33,-162.57 835.8,-161.42 837.38,-168.24"/>
</g>
<!-- Node8 -->
<g id="node8" class="node">
<title>Node8</title>
<g id="a_node8"><a xlink:href="default__allocator_8hpp.html" target="_top" xlink:title=" ">
<polygon fill="none" stroke="black" points="698,-129 698,-159 828,-159 828,-129 698,-129"/>
<text text-anchor="start" x="706" y="-147" font-family="Helvetica,sans-Serif" font-size="10.00">yaclib/fault/detail</text>
<text text-anchor="middle" x="763" y="-136" font-family="Helvetica,sans-Serif" font-size="10.00">/fiber/default_allocator.hpp</text>
</a>
</g>
</g>
<!-- Node2&#45;&gt;Node8 -->
<g id="edge7" class="edge">
<title>Node2&#45;&gt;Node8</title>
<path fill="none" stroke="midnightblue" d="M495.61,-204.09C548.12,-192.49 629.99,-174.4 689.32,-161.28"/>
<polygon fill="midnightblue" stroke="midnightblue" points="690.37,-164.64 699.37,-159.06 688.85,-157.8 690.37,-164.64"/>
</g>
<!-- Node9 -->
<g id="node9" class="node">
<title>Node9</title>
<g id="a_node9"><a xlink:href="stack__allocator_8hpp.html" target="_top" xlink:title=" ">
<polygon fill="none" stroke="black" points="498.5,-56.5 498.5,-86.5 623.5,-86.5 623.5,-56.5 498.5,-56.5"/>
<text text-anchor="start" x="506.5" y="-74.5" font-family="Helvetica,sans-Serif" font-size="10.00">yaclib/fault/detail</text>
<text text-anchor="middle" x="561" y="-63.5" font-family="Helvetica,sans-Serif" font-size="10.00">/fiber/stack_allocator.hpp</text>
</a>
</g>
</g>
<!-- Node2&#45;&gt;Node9 -->
<g id="edge19" class="edge">
<title>Node2&#45;&gt;Node9</title>
<path fill="none" stroke="midnightblue" d="M463.77,-201.44C476.2,-192 492.08,-178.82 504,-165 522.55,-143.49 539,-115.29 549.4,-95.7"/>
<polygon fill="midnightblue" stroke="midnightblue" points="552.63,-97.08 554.13,-86.59 546.42,-93.85 552.63,-97.08"/>
</g>
<!-- Node12 -->
<g id="node12" class="node">
<title>Node12</title>
<g id="a_node12"><a xlink:href="execution__context_8hpp.html" target="_top" xlink:title=" ">
<polygon fill="none" stroke="black" points="180.5,-129 180.5,-159 317.5,-159 317.5,-129 180.5,-129"/>
<text text-anchor="start" x="188.5" y="-147" font-family="Helvetica,sans-Serif" font-size="10.00">yaclib/fault/detail</text>
<text text-anchor="middle" x="249" y="-136" font-family="Helvetica,sans-Serif" font-size="10.00">/fiber/execution_context.hpp</text>
</a>
</g>
</g>
<!-- Node2&#45;&gt;Node12 -->
<g id="edge12" class="edge">
<title>Node2&#45;&gt;Node12</title>
<path fill="none" stroke="midnightblue" d="M405.01,-201.4C374.05,-190.21 330.61,-174.51 297.43,-162.51"/>
<polygon fill="midnightblue" stroke="midnightblue" points="298.52,-159.18 287.92,-159.07 296.14,-165.76 298.52,-159.18"/>
</g>
<!-- Node14 -->
<g id="node14" class="node">
<title>Node14</title>
<g id="a_node14"><a xlink:href="stack_8hpp.html" target="_top" xlink:title=" ">
<polygon fill="none" stroke="black" points="552.5,-129 552.5,-159 641.5,-159 641.5,-129 552.5,-129"/>
<text text-anchor="start" x="560.5" y="-147" font-family="Helvetica,sans-Serif" font-size="10.00">yaclib/fault/detail</text>
<text text-anchor="middle" x="597" y="-136" font-family="Helvetica,sans-Serif" font-size="10.00">/fiber/stack.hpp</text>
</a>
</g>
</g>
<!-- Node2&#45;&gt;Node14 -->
<g id="edge16" class="edge">
<title>Node2&#45;&gt;Node14</title>
<path fill="none" stroke="midnightblue" d="M474.59,-201.4C498.36,-190.45 531.51,-175.18 557.31,-163.29"/>
<polygon fill="midnightblue" stroke="midnightblue" points="558.84,-166.44 566.46,-159.07 555.91,-160.08 558.84,-166.44"/>
</g>
<!-- Node2&#45;&gt;Node15 -->
<g id="edge20" class="edge">
<title>Node2&#45;&gt;Node15</title>
<path fill="none" stroke="midnightblue" d="M392.29,-208.48C331.22,-199.83 226.72,-183.95 138,-165 132.96,-163.92 127.75,-162.73 122.53,-161.47"/>
<polygon fill="midnightblue" stroke="midnightblue" points="123.08,-158 112.53,-159 121.4,-164.8 123.08,-158"/>
</g>
<!-- Node16 -->
<g id="node16" class="node">
<title>Node16</title>
<g id="a_node16"><a xlink:title=" ">
<polygon fill="none" stroke="#bfbfbf" points="336,-134.5 336,-153.5 394,-153.5 394,-134.5 336,-134.5"/>
<text text-anchor="middle" x="365" y="-141.5" font-family="Helvetica,sans-Serif" font-size="10.00">exception</text>
</a>
</g>
</g>
<!-- Node2&#45;&gt;Node16 -->
<g id="edge21" class="edge">
<title>Node2&#45;&gt;Node16</title>
<path fill="none" stroke="midnightblue" d="M428.01,-201.23C414.87,-189.5 396.27,-172.9 382.68,-160.78"/>
<polygon fill="midnightblue" stroke="midnightblue" points="384.76,-157.94 374.97,-153.89 380.1,-163.16 384.76,-157.94"/>
</g>
<!-- Node17 -->
<g id="node17" class="node">
<title>Node17</title>
<g id="a_node17"><a xlink:title=" ">
<polygon fill="none" stroke="#bfbfbf" points="412.5,-134.5 412.5,-153.5 495.5,-153.5 495.5,-134.5 412.5,-134.5"/>
<text text-anchor="middle" x="454" y="-141.5" font-family="Helvetica,sans-Serif" font-size="10.00">unordered_map</text>
</a>
</g>
</g>
<!-- Node2&#45;&gt;Node17 -->
<g id="edge22" class="edge">
<title>Node2&#45;&gt;Node17</title>
<path fill="none" stroke="midnightblue" d="M446.02,-201.23C447.55,-190.5 449.65,-175.69 451.31,-163.96"/>
<polygon fill="midnightblue" stroke="midnightblue" points="454.8,-164.29 452.74,-153.89 447.87,-163.3 454.8,-164.29"/>
</g>
<!-- Node5 -->
<g id="node5" class="node">
<title>Node5</title>
<g id="a_node5"><a xlink:href="log_8hpp.html" target="_top" xlink:title=" ">
<polygon fill="none" stroke="black" points="856.5,-62 856.5,-81 931.5,-81 931.5,-62 856.5,-62"/>
<text text-anchor="middle" x="894" y="-69" font-family="Helvetica,sans-Serif" font-size="10.00">yaclib/log.hpp</text>
</a>
</g>
</g>
<!-- Node4&#45;&gt;Node5 -->
<g id="edge4" class="edge">
<title>Node4&#45;&gt;Node5</title>
<path fill="none" stroke="midnightblue" d="M894,-123.36C894,-113.3 894,-101.1 894,-91.18"/>
<polygon fill="midnightblue" stroke="midnightblue" points="897.5,-91.17 894,-81.17 890.5,-91.17 897.5,-91.17"/>
</g>
<!-- Node7 -->
<g id="node7" class="node">
<title>Node7</title>
<g id="a_node7"><a xlink:title=" ">
<polygon fill="none" stroke="#bfbfbf" points="989,-62 989,-81 1035,-81 1035,-62 989,-62"/>
<text text-anchor="middle" x="1012" y="-69" font-family="Helvetica,sans-Serif" font-size="10.00">cstdint</text>
</a>
</g>
</g>
<!-- Node4&#45;&gt;Node7 -->
<g id="edge6" class="edge">
<title>Node4&#45;&gt;Node7</title>
<path fill="none" stroke="midnightblue" d="M926.87,-123.36C946.43,-111.67 970.8,-97.12 988.44,-86.57"/>
<polygon fill="midnightblue" stroke="midnightblue" points="990.69,-89.31 997.48,-81.17 987.1,-83.3 990.69,-89.31"/>
</g>
<!-- Node6 -->
<g id="node6" class="node">
<title>Node6</title>
<g id="a_node6"><a xlink:title=" ">
<polygon fill="none" stroke="#bfbfbf" points="861,-0.5 861,-19.5 927,-19.5 927,-0.5 861,-0.5"/>
<text text-anchor="middle" x="894" y="-7.5" font-family="Helvetica,sans-Serif" font-size="10.00">string_view</text>
</a>
</g>
</g>
<!-- Node5&#45;&gt;Node6 -->
<g id="edge5" class="edge">
<title>Node5&#45;&gt;Node6</title>
<path fill="none" stroke="midnightblue" d="M894,-61.98C894,-53.58 894,-40.48 894,-29.66"/>
<polygon fill="midnightblue" stroke="midnightblue" points="897.5,-29.51 894,-19.51 890.5,-29.51 897.5,-29.51"/>
</g>
<!-- Node8&#45;&gt;Node5 -->
<g id="edge10" class="edge">
<title>Node8&#45;&gt;Node5</title>
<path fill="none" stroke="midnightblue" d="M789.19,-128.9C812.45,-116.39 846.2,-98.22 869.07,-85.92"/>
<polygon fill="midnightblue" stroke="midnightblue" points="871,-88.85 878.14,-81.03 867.68,-82.69 871,-88.85"/>
</g>
<!-- Node8&#45;&gt;Node9 -->
<g id="edge8" class="edge">
<title>Node8&#45;&gt;Node9</title>
<path fill="none" stroke="midnightblue" d="M722.61,-128.9C690.54,-117.71 645.54,-102.01 611.17,-90.01"/>
<polygon fill="midnightblue" stroke="midnightblue" points="611.92,-86.56 601.32,-86.57 609.61,-93.17 611.92,-86.56"/>
</g>
<!-- Node11 -->
<g id="node11" class="node">
<title>Node11</title>
<g id="a_node11"><a xlink:title=" ">
<polygon fill="none" stroke="#bfbfbf" points="741,-62 741,-81 785,-81 785,-62 741,-62"/>
<text text-anchor="middle" x="763" y="-69" font-family="Helvetica,sans-Serif" font-size="10.00">vector</text>
</a>
</g>
</g>
<!-- Node8&#45;&gt;Node11 -->
<g id="edge11" class="edge">
<title>Node8&#45;&gt;Node11</title>
<path fill="none" stroke="midnightblue" d="M763,-128.73C763,-118 763,-103.19 763,-91.46"/>
<polygon fill="midnightblue" stroke="midnightblue" points="766.5,-91.39 763,-81.39 759.5,-91.39 766.5,-91.39"/>
</g>
<!-- Node10 -->
<g id="node10" class="node">
<title>Node10</title>
<g id="a_node10"><a xlink:title=" ">
<polygon fill="none" stroke="#bfbfbf" points="582.5,-0.5 582.5,-19.5 631.5,-19.5 631.5,-0.5 582.5,-0.5"/>
<text text-anchor="middle" x="607" y="-7.5" font-family="Helvetica,sans-Serif" font-size="10.00">cstddef</text>
</a>
</g>
</g>
<!-- Node9&#45;&gt;Node10 -->
<g id="edge9" class="edge">
<title>Node9&#45;&gt;Node10</title>
<path fill="none" stroke="midnightblue" d="M571.9,-56.4C578.59,-47.75 587.18,-36.64 594.18,-27.58"/>
<polygon fill="midnightblue" stroke="midnightblue" points="596.96,-29.71 600.31,-19.66 591.42,-25.43 596.96,-29.71"/>
</g>
<!-- Node12&#45;&gt;Node3 -->
<g id="edge13" class="edge">
<title>Node12&#45;&gt;Node3</title>
<path fill="none" stroke="midnightblue" d="M229.78,-128.73C213.58,-116.72 190.49,-99.58 174.07,-87.39"/>
<polygon fill="midnightblue" stroke="midnightblue" points="175.83,-84.34 165.71,-81.19 171.66,-89.96 175.83,-84.34"/>
</g>
<!-- Node12&#45;&gt;Node9 -->
<g id="edge14" class="edge">
<title>Node12&#45;&gt;Node9</title>
<path fill="none" stroke="midnightblue" d="M302.64,-128.96C310.79,-126.91 319.11,-124.86 327,-123 380.89,-110.28 442.06,-97.12 488.34,-87.43"/>
<polygon fill="midnightblue" stroke="midnightblue" points="489.21,-90.82 498.28,-85.35 487.78,-83.97 489.21,-90.82"/>
</g>
<!-- Node13 -->
<g id="node13" class="node">
<title>Node13</title>
<g id="a_node13"><a xlink:title=" ">
<polygon fill="none" stroke="#bfbfbf" points="218.5,-62 218.5,-81 279.5,-81 279.5,-62 218.5,-62"/>
<text text-anchor="middle" x="249" y="-69" font-family="Helvetica,sans-Serif" font-size="10.00">ucontext.h</text>
</a>
</g>
</g>
<!-- Node12&#45;&gt;Node13 -->
<g id="edge15" class="edge">
<title>Node12&#45;&gt;Node13</title>
<path fill="none" stroke="midnightblue" d="M249,-128.73C249,-118 249,-103.19 249,-91.46"/>
<polygon fill="midnightblue" stroke="midnightblue" points="252.5,-91.39 249,-81.39 245.5,-91.39 252.5,-91.39"/>
</g>
<!-- Node14&#45;&gt;Node9 -->
<g id="edge17" class="edge">
<title>Node14&#45;&gt;Node9</title>
<path fill="none" stroke="midnightblue" d="M589.71,-128.73C584.88,-119.27 578.43,-106.64 572.87,-95.75"/>
<polygon fill="midnightblue" stroke="midnightblue" points="575.94,-94.06 568.27,-86.75 569.71,-97.24 575.94,-94.06"/>
</g>
<!-- Node14&#45;&gt;Node10 -->
<g id="edge18" class="edge">
<title>Node14&#45;&gt;Node10</title>
<path fill="none" stroke="midnightblue" d="M609.31,-128.94C617.8,-118.25 628.38,-102.75 633,-87 636.88,-73.78 636.57,-69.31 633,-56 630.35,-46.1 624.93,-36.13 619.73,-28.1"/>
<polygon fill="midnightblue" stroke="midnightblue" points="622.46,-25.91 613.89,-19.68 616.71,-29.89 622.46,-25.91"/>
</g>
<!-- Node18&#45;&gt;Node2 -->
<g id="edge25" class="edge">
<title>Node18&#45;&gt;Node2</title>
<path fill="none" stroke="midnightblue" d="M592.77,-268.4C564.02,-258.56 525.46,-245.37 494.8,-234.88"/>
<polygon fill="midnightblue" stroke="midnightblue" points="495.74,-231.5 485.15,-231.58 493.48,-238.13 495.74,-231.5"/>
</g>
<!-- Node18&#45;&gt;Node5 -->
<g id="edge30" class="edge">
<title>Node18&#45;&gt;Node5</title>
<path fill="none" stroke="midnightblue" d="M684.66,-280.56C757.72,-274.71 890.49,-251.96 951,-165 961.66,-149.68 958.66,-140.02 951,-123 944.23,-107.96 930.53,-95.59 918.25,-86.86"/>
<polygon fill="midnightblue" stroke="midnightblue" points="919.95,-83.78 909.69,-81.15 916.07,-89.61 919.95,-83.78"/>
</g>
<!-- Node18&#45;&gt;Node8 -->
<g id="edge24" class="edge">
<title>Node18&#45;&gt;Node8</title>
<path fill="none" stroke="midnightblue" d="M652.69,-268.37C664.97,-258.7 681.1,-245.28 694,-232 713.85,-211.56 733.78,-185.72 747.08,-167.53"/>
<polygon fill="midnightblue" stroke="midnightblue" points="750.03,-169.43 753.05,-159.27 744.36,-165.33 750.03,-169.43"/>
</g>
<!-- Node18&#45;&gt;Node9 -->
<g id="edge27" class="edge">
<title>Node18&#45;&gt;Node9</title>
<path fill="none" stroke="midnightblue" d="M644.07,-268.26C650.3,-258.55 657.71,-245.12 661,-232 668.07,-203.77 653.86,-127.23 651,-123 641.71,-109.22 627.33,-98.8 612.78,-91.11"/>
<polygon fill="midnightblue" stroke="midnightblue" points="614.26,-87.94 603.74,-86.67 611.17,-94.22 614.26,-87.94"/>
</g>
<!-- Node18&#45;&gt;Node14 -->
<g id="edge26" class="edge">
<title>Node18&#45;&gt;Node14</title>
<path fill="none" stroke="midnightblue" d="M588.33,-268.46C570.97,-260.65 552.99,-248.97 543,-232 529.46,-209.01 550.36,-183.07 569.96,-165.55"/>
<polygon fill="midnightblue" stroke="midnightblue" points="572.27,-168.18 577.62,-159.04 567.74,-162.85 572.27,-168.18"/>
</g>
<!-- Node19 -->
<g id="node19" class="node">
<title>Node19</title>
<g id="a_node19"><a xlink:href="inject_8hpp.html" target="_top" xlink:title=" ">
<polygon fill="none" stroke="black" points="998.5,-207 998.5,-226 1105.5,-226 1105.5,-207 998.5,-207"/>
<text text-anchor="middle" x="1052" y="-214" font-family="Helvetica,sans-Serif" font-size="10.00">yaclib/fault/inject.hpp</text>
</a>
</g>
</g>
<!-- Node18&#45;&gt;Node19 -->
<g id="edge28" class="edge">
<title>Node18&#45;&gt;Node19</title>
<path fill="none" stroke="midnightblue" d="M684.6,-276.28C752.8,-267.64 877.93,-250.94 984,-232 990.63,-230.82 997.59,-229.46 1004.44,-228.06"/>
<polygon fill="midnightblue" stroke="midnightblue" points="1005.25,-231.47 1014.32,-226 1003.82,-224.62 1005.25,-231.47"/>
</g>
<!-- Node20 -->
<g id="node20" class="node">
<title>Node20</title>
<g id="a_node20"><a xlink:title=" ">
<polygon fill="none" stroke="#bfbfbf" points="552,-207 552,-226 598,-226 598,-207 552,-207"/>
<text text-anchor="middle" x="575" y="-214" font-family="Helvetica,sans-Serif" font-size="10.00">chrono</text>
</a>
</g>
</g>
<!-- Node18&#45;&gt;Node20 -->
<g id="edge31" class="edge">
<title>Node18&#45;&gt;Node20</title>
<path fill="none" stroke="midnightblue" d="M621.2,-268.4C611.91,-258.16 599.32,-244.3 589.63,-233.62"/>
<polygon fill="midnightblue" stroke="midnightblue" points="592.2,-231.25 582.89,-226.19 587.02,-235.95 592.2,-231.25"/>
</g>
<!-- Node21 -->
<g id="node21" class="node">
<title>Node21</title>
<g id="a_node21"><a xlink:title=" ">
<polygon fill="none" stroke="#bfbfbf" points="616.5,-207 616.5,-226 651.5,-226 651.5,-207 616.5,-207"/>
<text text-anchor="middle" x="634" y="-214" font-family="Helvetica,sans-Serif" font-size="10.00">map</text>
</a>
</g>
</g>
<!-- Node18&#45;&gt;Node21 -->
<g id="edge32" class="edge">
<title>Node18&#45;&gt;Node21</title>
<path fill="none" stroke="midnightblue" d="M634,-268.4C634,-259.06 634,-246.71 634,-236.52"/>
<polygon fill="midnightblue" stroke="midnightblue" points="637.5,-236.19 634,-226.19 630.5,-236.19 637.5,-236.19"/>
</g>
<!-- Node19&#45;&gt;Node7 -->
<g id="edge29" class="edge">
<title>Node19&#45;&gt;Node7</title>
<path fill="none" stroke="midnightblue" d="M1049.62,-206.98C1043.3,-184.38 1025.99,-122.5 1017.22,-91.18"/>
<polygon fill="midnightblue" stroke="midnightblue" points="1020.48,-89.84 1014.42,-81.15 1013.74,-91.73 1020.48,-89.84"/>
</g>
</g>
</svg>
        <g id="navigator" transform="translate(0 0)" fill="#404254">
                <rect fill="#f2f5e9" fill-opacity="0.5" stroke="#606060" stroke-width=".5" x="0" y="0" width="60" height="60"/>
                <use id="zoomplus" xlink:href="#zoomPlus" x="17" y="9" onmousedown="handleZoom(evt,'in')"/>
                <use id="zoomminus" xlink:href="#zoomMin" x="42" y="9" onmousedown="handleZoom(evt,'out')"/>
                <use id="reset" xlink:href="#resetDef" x="30" y="36" onmousedown="handleReset()"/>
                <g id="arrowUp" xlink:href="#dirArrow" transform="translate(30 24)" onmousedown="handlePan(0,-1)">
                  <use xlink:href="#rim" fill="#404040">
                        <set attributeName="fill" to="#808080" begin="arrowUp.mouseover" end="arrowUp.mouseout"/>
                  </use>
                  <path fill="none" stroke="white" stroke-width="1.5" d="M0,-3.0v7 M-2.5,-0.5L0,-3.0L2.5,-0.5"/>
                </g>
                <g id="arrowRight" xlink:href="#dirArrow" transform="rotate(90) translate(36 -43)" onmousedown="handlePan(1,0)">
                  <use xlink:href="#rim" fill="#404040">
                        <set attributeName="fill" to="#808080" begin="arrowRight.mouseover" end="arrowRight.mouseout"/>
                  </use>
                  <path fill="none" stroke="white" stroke-width="1.5" d="M0,-3.0v7 M-2.5,-0.5L0,-3.0L2.5,-0.5"/>
                </g>
                <g id="arrowDown" xlink:href="#dirArrow" transform="rotate(180) translate(-30 -48)" onmousedown="handlePan(0,1)">
                  <use xlink:href="#rim" fill="#404040">
                        <set attributeName="fill" to="#808080" begin="arrowDown.mouseover" end="arrowDown.mouseout"/>
                  </use>
                  <path fill="none" stroke="white" stroke-width="1.5" d="M0,-3.0v7 M-2.5,-0.5L0,-3.0L2.5,-0.5"/>
                </g>
                <g id="arrowLeft" xlink:href="#dirArrow" transform="rotate(270) translate(-36 17)" onmousedown="handlePan(-1,0)">
                  <use xlink:href="#rim" fill="#404040">
                        <set attributeName="fill" to="#808080" begin="arrowLeft.mouseover" end="arrowLeft.mouseout"/>
                  </use>
                  <path fill="none" stroke="white" stroke-width="1.5" d="M0,-3.0v7 M-2.5,-0.5L0,-3.0L2.5,-0.5"/>
                </g>
        </g>
        <svg viewBox="0 0 15 15" width="100%" height="30px" preserveAspectRatio="xMaxYMin meet">
         <g id="arrow_out" transform="scale(0.3 0.3)">
          <a xlink:href="wakeup__helper_8cpp__incl_org.svg" target="_base">
           <rect id="button" ry="5" rx="5" y="6" x="6" height="38" width="38"
                fill="#f2f5e9" fill-opacity="0.5" stroke="#606060" stroke-width="1.0"/>
           <path id="arrow"
             d="M 11.500037,31.436501 C 11.940474,20.09759 22.043105,11.32322 32.158766,21.979434 L 37.068811,17.246167 C 37.068811,17.246167 37.088388,32 37.088388,32 L 22.160133,31.978069 C 22.160133,31.978069 26.997745,27.140456 26.997745,27.140456 C 18.528582,18.264221 13.291696,25.230495 11.500037,31.436501 z"
             style="fill:#404040;"/>
          </a>
         </g>
        </svg>
</svg>
