<?xml version="1.0" encoding="UTF-8" standalone="no"?>
<!DOCTYPE svg PUBLIC "-//W3C//DTD SVG 1.1//EN"
 "http://www.w3.org/Graphics/SVG/1.1/DTD/svg11.dtd">
<!-- Generated by graphviz version 3.0.0 (20220413.0242)
 -->
<!-- Title: include/yaclib/algo/detail/when_any_impl.hpp Pages: 1 -->
<!--zoomable 486 -->
<svg id="main" version="1.1" xmlns="http://www.w3.org/2000/svg" xmlns:xlink="http://www.w3.org/1999/xlink" xml:space="preserve" onload="init(evt)">
<style type="text/css"><![CDATA[
.edge:hover path { stroke: red; }
.edge:hover polygon { stroke: red; fill: red; }
]]></style>
<script type="text/javascript"><![CDATA[
var edges = document.getElementsByTagName('g');
if (edges && edges.length) {
  for (var i=0;i<edges.length;i++) {
    if (edges[i].id.substr(0,4)=='edge') {
      edges[i].setAttribute('class','edge');
    }
  }
}
]]></script>
        <defs>
                <circle id="rim" cx="0" cy="0" r="7"/>
                <circle id="rim2" cx="0" cy="0" r="3.5"/>
                <g id="zoomPlus">
                        <use xlink:href="#rim" fill="#404040">
                                <set attributeName="fill" to="#808080" begin="zoomplus.mouseover" end="zoomplus.mouseout"/>
                        </use>
                        <path d="M-4,0h8M0,-4v8" fill="none" stroke="white" stroke-width="1.5" pointer-events="none"/>
                </g>
                <g id="zoomMin">
                        <use xlink:href="#rim" fill="#404040">
                                <set attributeName="fill" to="#808080" begin="zoomminus.mouseover" end="zoomminus.mouseout"/>
                        </use>
                        <path d="M-4,0h8" fill="none" stroke="white" stroke-width="1.5" pointer-events="none"/>
                </g>
                <g id="dirArrow">
                        <path fill="none" stroke="white" stroke-width="1.5" d="M0,-3.0v7 M-2.5,-0.5L0,-3.0L2.5,-0.5"/>
                </g>
               <g id="resetDef">
                       <use xlink:href="#rim2" fill="#404040">
                               <set attributeName="fill" to="#808080" begin="reset.mouseover" end="reset.mouseout"/>
                       </use>
               </g>
        </defs>

<script type="text/javascript">
var viewWidth = 1248;
var viewHeight = 486;
var sectionId = 'dynsection-0';
</script>
<script xlink:href="svgpan.js"/>
<svg id="graph" class="graph">
<g id="viewport">
<title>include/yaclib/algo/detail/when_any_impl.hpp</title>
<!-- Node1 -->
<g id="node1" class="node">
<title>Node1</title>
<g id="a_node1"><a xlink:title=" ">
<polygon fill="#bfbfbf" stroke="black" points="784,-447.5 784,-477.5 915,-477.5 915,-447.5 784,-447.5"/>
<text text-anchor="start" x="792" y="-465.5" font-family="Helvetica,sans-Serif" font-size="10.00">include/yaclib/algo</text>
<text text-anchor="middle" x="849.5" y="-454.5" font-family="Helvetica,sans-Serif" font-size="10.00">/detail/when_any_impl.hpp</text>
</a>
</g>
</g>
<!-- Node2 -->
<g id="node2" class="node">
<title>Node2</title>
<g id="a_node2"><a xlink:href="when__policy_8hpp.html" target="_top" xlink:title=" ">
<polygon fill="none" stroke="black" points="0,-386 0,-405 137,-405 137,-386 0,-386"/>
<text text-anchor="middle" x="68.5" y="-393" font-family="Helvetica,sans-Serif" font-size="10.00">yaclib/algo/when_policy.hpp</text>
</a>
</g>
</g>
<!-- Node1&#45;&gt;Node2 -->
<g id="edge1" class="edge">
<title>Node1&#45;&gt;Node2</title>
<path fill="none" stroke="midnightblue" d="M783.85,-458.96C659.89,-453.67 383.02,-439.53 151.5,-411 142.02,-409.83 131.97,-408.32 122.27,-406.71"/>
<polygon fill="midnightblue" stroke="midnightblue" points="122.76,-403.24 112.31,-405 121.58,-410.14 122.76,-403.24"/>
</g>
<!-- Node3 -->
<g id="node3" class="node">
<title>Node3</title>
<g id="a_node3"><a xlink:href="inline__core_8hpp.html" target="_top" xlink:title=" ">
<polygon fill="none" stroke="black" points="231.5,-246.5 231.5,-276.5 327.5,-276.5 327.5,-246.5 231.5,-246.5"/>
<text text-anchor="start" x="239.5" y="-264.5" font-family="Helvetica,sans-Serif" font-size="10.00">yaclib/async/detail</text>
<text text-anchor="middle" x="279.5" y="-253.5" font-family="Helvetica,sans-Serif" font-size="10.00">/inline_core.hpp</text>
</a>
</g>
</g>
<!-- Node1&#45;&gt;Node3 -->
<g id="edge2" class="edge">
<title>Node1&#45;&gt;Node3</title>
<path fill="none" stroke="midnightblue" d="M783.89,-456.12C654.28,-444.14 372.19,-410.88 305.5,-344 290.32,-328.77 283.99,-304.71 281.36,-286.66"/>
<polygon fill="midnightblue" stroke="midnightblue" points="284.82,-286.12 280.18,-276.6 277.87,-286.94 284.82,-286.12"/>
</g>
<!-- Node9 -->
<g id="node9" class="node">
<title>Node9</title>
<g id="a_node9"><a xlink:title=" ">
<polygon fill="none" stroke="#bfbfbf" points="221,-56.5 221,-75.5 260,-75.5 260,-56.5 221,-56.5"/>
<text text-anchor="middle" x="240.5" y="-63.5" font-family="Helvetica,sans-Serif" font-size="10.00">utility</text>
</a>
</g>
</g>
<!-- Node1&#45;&gt;Node9 -->
<g id="edge52" class="edge">
<title>Node1&#45;&gt;Node9</title>
<path fill="none" stroke="midnightblue" d="M783.79,-460.39C690.08,-457.52 513.24,-447.27 367.5,-411 273.56,-387.62 165.5,-426.31 165.5,-329.5 165.5,-329.5 165.5,-329.5 165.5,-193.5 165.5,-148.28 201.4,-105.08 223.53,-82.75"/>
<polygon fill="midnightblue" stroke="midnightblue" points="225.98,-85.24 230.7,-75.75 221.09,-80.23 225.98,-85.24"/>
</g>
<!-- Node11 -->
<g id="node11" class="node">
<title>Node11</title>
<g id="a_node11"><a xlink:href="result__core_8hpp.html" target="_top" xlink:title=" ">
<polygon fill="none" stroke="black" points="522.5,-380.5 522.5,-410.5 618.5,-410.5 618.5,-380.5 522.5,-380.5"/>
<text text-anchor="start" x="530.5" y="-398.5" font-family="Helvetica,sans-Serif" font-size="10.00">yaclib/async/detail</text>
<text text-anchor="middle" x="570.5" y="-387.5" font-family="Helvetica,sans-Serif" font-size="10.00">/result_core.hpp</text>
</a>
</g>
</g>
<!-- Node1&#45;&gt;Node11 -->
<g id="edge10" class="edge">
<title>Node1&#45;&gt;Node11</title>
<path fill="none" stroke="midnightblue" d="M789.3,-447.48C741.6,-436.36 675.36,-420.93 628.29,-409.96"/>
<polygon fill="midnightblue" stroke="midnightblue" points="629.08,-406.55 618.55,-407.69 627.49,-413.37 629.08,-406.55"/>
</g>
<!-- Node15 -->
<g id="node15" class="node">
<title>Node15</title>
<g id="a_node15"><a xlink:href="intrusive__ptr_8hpp.html" target="_top" xlink:title=" ">
<polygon fill="none" stroke="black" points="580,-179.5 580,-209.5 677,-209.5 677,-179.5 580,-179.5"/>
<text text-anchor="start" x="588" y="-197.5" font-family="Helvetica,sans-Serif" font-size="10.00">yaclib/util/intrusive</text>
<text text-anchor="middle" x="628.5" y="-186.5" font-family="Helvetica,sans-Serif" font-size="10.00">_ptr.hpp</text>
</a>
</g>
</g>
<!-- Node1&#45;&gt;Node15 -->
<g id="edge48" class="edge">
<title>Node1&#45;&gt;Node15</title>
<path fill="none" stroke="midnightblue" d="M827.19,-447.43C813.06,-437.99 794.83,-424.8 780.5,-411 717.63,-350.45 664.1,-260.56 640.87,-218.62"/>
<polygon fill="midnightblue" stroke="midnightblue" points="643.87,-216.82 636,-209.73 637.73,-220.18 643.87,-216.82"/>
</g>
<!-- Node17 -->
<g id="node17" class="node">
<title>Node17</title>
<g id="a_node17"><a xlink:href="log_8hpp.html" target="_top" xlink:title=" ">
<polygon fill="none" stroke="black" points="1002,-56.5 1002,-75.5 1077,-75.5 1077,-56.5 1002,-56.5"/>
<text text-anchor="middle" x="1039.5" y="-63.5" font-family="Helvetica,sans-Serif" font-size="10.00">yaclib/log.hpp</text>
</a>
</g>
</g>
<!-- Node1&#45;&gt;Node17 -->
<g id="edge39" class="edge">
<title>Node1&#45;&gt;Node17</title>
<path fill="none" stroke="midnightblue" d="M915.04,-461.99C979.72,-459.97 1079.8,-449.93 1156.5,-411 1202.6,-387.6 1239.5,-381.2 1239.5,-329.5 1239.5,-329.5 1239.5,-329.5 1239.5,-193.5 1239.5,-121.65 1146.17,-88.93 1087.02,-75.41"/>
<polygon fill="midnightblue" stroke="midnightblue" points="1087.63,-71.96 1077.12,-73.25 1086.14,-78.8 1087.63,-71.96"/>
</g>
<!-- Node19 -->
<g id="node19" class="node">
<title>Node19</title>
<g id="a_node19"><a xlink:title=" ">
<polygon fill="none" stroke="#bfbfbf" points="1043.5,-252 1043.5,-271 1135.5,-271 1135.5,-252 1043.5,-252"/>
<text text-anchor="middle" x="1089.5" y="-259" font-family="Helvetica,sans-Serif" font-size="10.00">yaclib_std/atomic</text>
</a>
</g>
</g>
<!-- Node1&#45;&gt;Node19 -->
<g id="edge53" class="edge">
<title>Node1&#45;&gt;Node19</title>
<path fill="none" stroke="midnightblue" d="M915.17,-459.43C958.65,-454.91 1014.62,-442.7 1053.5,-411 1092.32,-379.35 1093.46,-313.61 1091.38,-281.28"/>
<polygon fill="midnightblue" stroke="midnightblue" points="1094.85,-280.68 1090.54,-271 1087.87,-281.26 1094.85,-280.68"/>
</g>
<!-- Node20 -->
<g id="node20" class="node">
<title>Node20</title>
<g id="a_node20"><a xlink:href="result_8hpp.html" target="_top" xlink:title=" ">
<polygon fill="none" stroke="black" points="749.5,-319 749.5,-338 851.5,-338 851.5,-319 749.5,-319"/>
<text text-anchor="middle" x="800.5" y="-326" font-family="Helvetica,sans-Serif" font-size="10.00">yaclib/util/result.hpp</text>
</a>
</g>
</g>
<!-- Node1&#45;&gt;Node20 -->
<g id="edge49" class="edge">
<title>Node1&#45;&gt;Node20</title>
<path fill="none" stroke="midnightblue" d="M823.36,-447.37C810.29,-438.76 795.76,-426.43 788.5,-411 778.92,-390.64 785.65,-364.52 792.26,-347.41"/>
<polygon fill="midnightblue" stroke="midnightblue" points="795.54,-348.63 796.21,-338.05 789.1,-345.9 795.54,-348.63"/>
</g>
<!-- Node22 -->
<g id="node22" class="node">
<title>Node22</title>
<g id="a_node22"><a xlink:href="fwd_8hpp.html" target="_top" xlink:title=" ">
<polygon fill="none" stroke="black" points="915.5,-118 915.5,-137 993.5,-137 993.5,-118 915.5,-118"/>
<text text-anchor="middle" x="954.5" y="-125" font-family="Helvetica,sans-Serif" font-size="10.00">yaclib/fwd.hpp</text>
</a>
</g>
</g>
<!-- Node1&#45;&gt;Node22 -->
<g id="edge38" class="edge">
<title>Node1&#45;&gt;Node22</title>
<path fill="none" stroke="midnightblue" d="M915.05,-458.35C969.54,-453.53 1047.85,-441.42 1109.5,-411 1158.49,-386.83 1201.5,-384.13 1201.5,-329.5 1201.5,-329.5 1201.5,-329.5 1201.5,-260.5 1201.5,-171.75 1075.94,-142.46 1003.86,-132.95"/>
<polygon fill="midnightblue" stroke="midnightblue" points="1003.99,-129.44 993.64,-131.68 1003.13,-136.38 1003.99,-129.44"/>
</g>
<!-- Node24 -->
<g id="node24" class="node">
<title>Node24</title>
<g id="a_node24"><a xlink:title=" ">
<polygon fill="none" stroke="#bfbfbf" points="986.5,-185 986.5,-204 1044.5,-204 1044.5,-185 986.5,-185"/>
<text text-anchor="middle" x="1015.5" y="-192" font-family="Helvetica,sans-Serif" font-size="10.00">exception</text>
</a>
</g>
</g>
<!-- Node1&#45;&gt;Node24 -->
<g id="edge51" class="edge">
<title>Node1&#45;&gt;Node24</title>
<path fill="none" stroke="midnightblue" d="M915.03,-453.45C973.43,-445.16 1053.43,-430.66 1078.5,-411 1140.65,-362.26 1189.02,-311.24 1144.5,-246 1124.55,-216.77 1084.91,-204.46 1054.81,-199.27"/>
<polygon fill="midnightblue" stroke="midnightblue" points="1055.02,-195.76 1044.61,-197.72 1053.97,-202.68 1055.02,-195.76"/>
</g>
<!-- Node26 -->
<g id="node26" class="node">
<title>Node26</title>
<g id="a_node26"><a xlink:href="atomic__counter_8hpp.html" target="_top" xlink:title=" ">
<polygon fill="none" stroke="black" points="797.5,-380.5 797.5,-410.5 901.5,-410.5 901.5,-380.5 797.5,-380.5"/>
<text text-anchor="start" x="805.5" y="-398.5" font-family="Helvetica,sans-Serif" font-size="10.00">yaclib/util/detail</text>
<text text-anchor="middle" x="849.5" y="-387.5" font-family="Helvetica,sans-Serif" font-size="10.00">/atomic_counter.hpp</text>
</a>
</g>
</g>
<!-- Node1&#45;&gt;Node26 -->
<g id="edge40" class="edge">
<title>Node1&#45;&gt;Node26</title>
<path fill="none" stroke="midnightblue" d="M849.5,-447.4C849.5,-439.64 849.5,-429.81 849.5,-420.86"/>
<polygon fill="midnightblue" stroke="midnightblue" points="853,-420.58 849.5,-410.58 846,-420.58 853,-420.58"/>
</g>
<!-- Node28 -->
<g id="node28" class="node">
<title>Node28</title>
<g id="a_node28"><a xlink:title=" ">
<polygon fill="none" stroke="#bfbfbf" points="1027,-319 1027,-338 1076,-338 1076,-319 1027,-319"/>
<text text-anchor="middle" x="1051.5" y="-326" font-family="Helvetica,sans-Serif" font-size="10.00">cstddef</text>
</a>
</g>
</g>
<!-- Node1&#45;&gt;Node28 -->
<g id="edge50" class="edge">
<title>Node1&#45;&gt;Node28</title>
<path fill="none" stroke="midnightblue" d="M915.06,-459.57C954.29,-454.91 1002.25,-442.49 1032.5,-411 1048.59,-394.25 1051.99,-366.65 1052.28,-348.27"/>
<polygon fill="midnightblue" stroke="midnightblue" points="1055.78,-348.16 1052.14,-338.2 1048.78,-348.25 1055.78,-348.16"/>
</g>
<!-- Node29 -->
<g id="node29" class="node">
<title>Node29</title>
<g id="a_node29"><a xlink:href="unique__counter_8hpp.html" target="_top" xlink:title=" ">
<polygon fill="none" stroke="black" points="919.5,-380.5 919.5,-410.5 1023.5,-410.5 1023.5,-380.5 919.5,-380.5"/>
<text text-anchor="start" x="927.5" y="-398.5" font-family="Helvetica,sans-Serif" font-size="10.00">yaclib/util/detail</text>
<text text-anchor="middle" x="971.5" y="-387.5" font-family="Helvetica,sans-Serif" font-size="10.00">/unique_counter.hpp</text>
</a>
</g>
</g>
<!-- Node1&#45;&gt;Node29 -->
<g id="edge46" class="edge">
<title>Node1&#45;&gt;Node29</title>
<path fill="none" stroke="midnightblue" d="M875.97,-447.4C893.56,-438.03 916.85,-425.62 936.04,-415.39"/>
<polygon fill="midnightblue" stroke="midnightblue" points="937.9,-418.37 945.08,-410.58 934.61,-412.19 937.9,-418.37"/>
</g>
<!-- Node4 -->
<g id="node4" class="node">
<title>Node4</title>
<g id="a_node4"><a xlink:href="job_8hpp.html" target="_top" xlink:title=" ">
<polygon fill="none" stroke="black" points="390,-185 390,-204 505,-204 505,-185 390,-185"/>
<text text-anchor="middle" x="447.5" y="-192" font-family="Helvetica,sans-Serif" font-size="10.00">yaclib/executor/job.hpp</text>
</a>
</g>
</g>
<!-- Node3&#45;&gt;Node4 -->
<g id="edge3" class="edge">
<title>Node3&#45;&gt;Node4</title>
<path fill="none" stroke="midnightblue" d="M315.95,-246.4C345.82,-234.84 387.65,-218.66 416.06,-207.66"/>
<polygon fill="midnightblue" stroke="midnightblue" points="417.45,-210.88 425.51,-204.01 414.92,-204.35 417.45,-210.88"/>
</g>
<!-- Node10 -->
<g id="node10" class="node">
<title>Node10</title>
<g id="a_node10"><a xlink:title=" ">
<polygon fill="none" stroke="#bfbfbf" points="256.5,-185 256.5,-204 302.5,-204 302.5,-185 256.5,-185"/>
<text text-anchor="middle" x="279.5" y="-192" font-family="Helvetica,sans-Serif" font-size="10.00">cstdint</text>
</a>
</g>
</g>
<!-- Node3&#45;&gt;Node10 -->
<g id="edge9" class="edge">
<title>Node3&#45;&gt;Node10</title>
<path fill="none" stroke="midnightblue" d="M279.5,-246.4C279.5,-237.06 279.5,-224.71 279.5,-214.52"/>
<polygon fill="midnightblue" stroke="midnightblue" points="283,-214.19 279.5,-204.19 276,-214.19 283,-214.19"/>
</g>
<!-- Node5 -->
<g id="node5" class="node">
<title>Node5</title>
<g id="a_node5"><a xlink:href="node_8hpp.html" target="_top" xlink:title=" ">
<polygon fill="none" stroke="black" points="335,-112.5 335,-142.5 418,-142.5 418,-112.5 335,-112.5"/>
<text text-anchor="start" x="343" y="-130.5" font-family="Helvetica,sans-Serif" font-size="10.00">yaclib/util/detail</text>
<text text-anchor="middle" x="376.5" y="-119.5" font-family="Helvetica,sans-Serif" font-size="10.00">/node.hpp</text>
</a>
</g>
</g>
<!-- Node4&#45;&gt;Node5 -->
<g id="edge4" class="edge">
<title>Node4&#45;&gt;Node5</title>
<path fill="none" stroke="midnightblue" d="M437.92,-184.73C428.14,-175.78 412.59,-161.54 399.59,-149.63"/>
<polygon fill="midnightblue" stroke="midnightblue" points="401.63,-146.76 391.89,-142.59 396.9,-151.92 401.63,-146.76"/>
</g>
<!-- Node6 -->
<g id="node6" class="node">
<title>Node6</title>
<g id="a_node6"><a xlink:href="func_8hpp.html" target="_top" xlink:title=" ">
<polygon fill="none" stroke="black" points="436,-118 436,-137 533,-137 533,-118 436,-118"/>
<text text-anchor="middle" x="484.5" y="-125" font-family="Helvetica,sans-Serif" font-size="10.00">yaclib/util/func.hpp</text>
</a>
</g>
</g>
<!-- Node4&#45;&gt;Node6 -->
<g id="edge5" class="edge">
<title>Node4&#45;&gt;Node6</title>
<path fill="none" stroke="midnightblue" d="M452.49,-184.73C458.09,-174.89 467.33,-158.66 474.45,-146.16"/>
<polygon fill="midnightblue" stroke="midnightblue" points="477.68,-147.55 479.59,-137.13 471.6,-144.09 477.68,-147.55"/>
</g>
<!-- Node7 -->
<g id="node7" class="node">
<title>Node7</title>
<g id="a_node7"><a xlink:href="ref_8hpp.html" target="_top" xlink:title=" ">
<polygon fill="none" stroke="black" points="517,-56.5 517,-75.5 606,-75.5 606,-56.5 517,-56.5"/>
<text text-anchor="middle" x="561.5" y="-63.5" font-family="Helvetica,sans-Serif" font-size="10.00">yaclib/util/ref.hpp</text>
</a>
</g>
</g>
<!-- Node6&#45;&gt;Node7 -->
<g id="edge6" class="edge">
<title>Node6&#45;&gt;Node7</title>
<path fill="none" stroke="midnightblue" d="M495.53,-117.98C507.77,-108.52 527.73,-93.1 542.49,-81.69"/>
<polygon fill="midnightblue" stroke="midnightblue" points="544.72,-84.39 550.49,-75.51 540.44,-78.85 544.72,-84.39"/>
</g>
<!-- Node8 -->
<g id="node8" class="node">
<title>Node8</title>
<g id="a_node8"><a xlink:title=" ">
<polygon fill="none" stroke="#bfbfbf" points="656.5,-56.5 656.5,-75.5 718.5,-75.5 718.5,-56.5 656.5,-56.5"/>
<text text-anchor="middle" x="687.5" y="-63.5" font-family="Helvetica,sans-Serif" font-size="10.00">type_traits</text>
</a>
</g>
</g>
<!-- Node6&#45;&gt;Node8 -->
<g id="edge7" class="edge">
<title>Node6&#45;&gt;Node8</title>
<path fill="none" stroke="midnightblue" d="M513.58,-117.98C549.08,-107.57 609.25,-89.94 648.67,-78.38"/>
<polygon fill="midnightblue" stroke="midnightblue" points="649.86,-81.68 658.47,-75.51 647.89,-74.96 649.86,-81.68"/>
</g>
<!-- Node6&#45;&gt;Node9 -->
<g id="edge8" class="edge">
<title>Node6&#45;&gt;Node9</title>
<path fill="none" stroke="midnightblue" d="M450.47,-117.95C442.6,-115.98 434.26,-113.91 426.5,-112 371.3,-98.42 306.79,-82.89 270.08,-74.08"/>
<polygon fill="midnightblue" stroke="midnightblue" points="270.6,-70.61 260.06,-71.68 268.97,-77.42 270.6,-70.61"/>
</g>
<!-- Node11&#45;&gt;Node3 -->
<g id="edge25" class="edge">
<title>Node11&#45;&gt;Node3</title>
<path fill="none" stroke="midnightblue" d="M522.11,-393.38C473.06,-390.17 396.73,-379.3 341.5,-344 319.18,-329.73 301.83,-304.46 291.24,-285.83"/>
<polygon fill="midnightblue" stroke="midnightblue" points="294.17,-283.9 286.32,-276.78 288.02,-287.24 294.17,-283.9"/>
</g>
<!-- Node11&#45;&gt;Node9 -->
<g id="edge37" class="edge">
<title>Node11&#45;&gt;Node9</title>
<path fill="none" stroke="midnightblue" d="M522.42,-392.35C467.62,-388.34 376.47,-376.87 305.5,-344 262.48,-324.08 242.94,-319.77 222.5,-277 191.48,-212.09 218.72,-123.03 233.03,-85.19"/>
<polygon fill="midnightblue" stroke="midnightblue" points="236.42,-86.14 236.82,-75.56 229.9,-83.58 236.42,-86.14"/>
</g>
<!-- Node12 -->
<g id="node12" class="node">
<title>Node12</title>
<g id="a_node12"><a xlink:href="base__core_8hpp.html" target="_top" xlink:title=" ">
<polygon fill="none" stroke="black" points="503.5,-313.5 503.5,-343.5 599.5,-343.5 599.5,-313.5 503.5,-313.5"/>
<text text-anchor="start" x="511.5" y="-331.5" font-family="Helvetica,sans-Serif" font-size="10.00">yaclib/async/detail</text>
<text text-anchor="middle" x="551.5" y="-320.5" font-family="Helvetica,sans-Serif" font-size="10.00">/base_core.hpp</text>
</a>
</g>
</g>
<!-- Node11&#45;&gt;Node12 -->
<g id="edge11" class="edge">
<title>Node11&#45;&gt;Node12</title>
<path fill="none" stroke="midnightblue" d="M566.38,-380.4C564.06,-372.47 561.11,-362.38 558.45,-353.27"/>
<polygon fill="midnightblue" stroke="midnightblue" points="561.78,-352.19 555.61,-343.58 555.06,-354.16 561.78,-352.19"/>
</g>
<!-- Node11&#45;&gt;Node15 -->
<g id="edge26" class="edge">
<title>Node11&#45;&gt;Node15</title>
<path fill="none" stroke="midnightblue" d="M584.36,-380.29C592.77,-370.8 602.92,-357.6 608.5,-344 625.48,-302.63 628.67,-249.87 628.94,-219.66"/>
<polygon fill="midnightblue" stroke="midnightblue" points="632.44,-219.61 628.93,-209.62 625.44,-219.62 632.44,-219.61"/>
</g>
<!-- Node11&#45;&gt;Node20 -->
<g id="edge27" class="edge">
<title>Node11&#45;&gt;Node20</title>
<path fill="none" stroke="midnightblue" d="M618.72,-380.87C660.76,-368.99 721.04,-351.96 760.47,-340.81"/>
<polygon fill="midnightblue" stroke="midnightblue" points="761.6,-344.13 770.27,-338.04 759.7,-337.39 761.6,-344.13"/>
</g>
<!-- Node12&#45;&gt;Node3 -->
<g id="edge12" class="edge">
<title>Node12&#45;&gt;Node3</title>
<path fill="none" stroke="midnightblue" d="M503.5,-316.03C457.27,-304.98 387.27,-288.25 337.84,-276.44"/>
<polygon fill="midnightblue" stroke="midnightblue" points="338.48,-273 327.94,-274.08 336.85,-279.8 338.48,-273"/>
</g>
<!-- Node12&#45;&gt;Node7 -->
<g id="edge23" class="edge">
<title>Node12&#45;&gt;Node7</title>
<path fill="none" stroke="midnightblue" d="M552.04,-313.49C553.72,-269.76 558.86,-135.7 560.77,-85.89"/>
<polygon fill="midnightblue" stroke="midnightblue" points="564.28,-85.75 561.17,-75.63 557.29,-85.48 564.28,-85.75"/>
</g>
<!-- Node13 -->
<g id="node13" class="node">
<title>Node13</title>
<g id="a_node13"><a xlink:title=" ">
<polygon fill="none" stroke="#bfbfbf" points="693.5,-252 693.5,-271 781.5,-271 781.5,-252 693.5,-252"/>
<text text-anchor="middle" x="737.5" y="-259" font-family="Helvetica,sans-Serif" font-size="10.00">yaclib/config.hpp</text>
</a>
</g>
</g>
<!-- Node12&#45;&gt;Node13 -->
<g id="edge13" class="edge">
<title>Node12&#45;&gt;Node13</title>
<path fill="none" stroke="midnightblue" d="M591.86,-313.4C625.22,-301.74 672.05,-285.37 703.52,-274.38"/>
<polygon fill="midnightblue" stroke="midnightblue" points="704.87,-277.61 713.16,-271.01 702.56,-271 704.87,-277.61"/>
</g>
<!-- Node14 -->
<g id="node14" class="node">
<title>Node14</title>
<g id="a_node14"><a xlink:href="executor_8hpp.html" target="_top" xlink:title=" ">
<polygon fill="none" stroke="black" points="384,-252 384,-271 523,-271 523,-252 384,-252"/>
<text text-anchor="middle" x="453.5" y="-259" font-family="Helvetica,sans-Serif" font-size="10.00">yaclib/executor/executor.hpp</text>
</a>
</g>
</g>
<!-- Node12&#45;&gt;Node14 -->
<g id="edge14" class="edge">
<title>Node12&#45;&gt;Node14</title>
<path fill="none" stroke="midnightblue" d="M530.24,-313.4C513.8,-302.5 491.16,-287.48 474.73,-276.58"/>
<polygon fill="midnightblue" stroke="midnightblue" points="476.59,-273.62 466.33,-271.01 472.72,-279.45 476.59,-273.62"/>
</g>
<!-- Node12&#45;&gt;Node15 -->
<g id="edge22" class="edge">
<title>Node12&#45;&gt;Node15</title>
<path fill="none" stroke="midnightblue" d="M559.74,-313.37C573,-290.65 599.19,-245.75 615.14,-218.4"/>
<polygon fill="midnightblue" stroke="midnightblue" points="618.3,-219.93 620.32,-209.52 612.26,-216.4 618.3,-219.93"/>
</g>
<!-- Node12&#45;&gt;Node19 -->
<g id="edge24" class="edge">
<title>Node12&#45;&gt;Node19</title>
<path fill="none" stroke="midnightblue" d="M599.65,-322.7C681.38,-314.4 852.4,-296.4 996.5,-277 1008.39,-275.4 1021.12,-273.52 1033.21,-271.66"/>
<polygon fill="midnightblue" stroke="midnightblue" points="1033.85,-275.1 1043.2,-270.11 1032.78,-268.19 1033.85,-275.1"/>
</g>
<!-- Node14&#45;&gt;Node4 -->
<g id="edge15" class="edge">
<title>Node14&#45;&gt;Node4</title>
<path fill="none" stroke="midnightblue" d="M452.69,-251.73C451.81,-242.18 450.37,-226.62 449.23,-214.28"/>
<polygon fill="midnightblue" stroke="midnightblue" points="452.7,-213.76 448.3,-204.13 445.73,-214.41 452.7,-213.76"/>
</g>
<!-- Node14&#45;&gt;Node15 -->
<g id="edge16" class="edge">
<title>Node14&#45;&gt;Node15</title>
<path fill="none" stroke="midnightblue" d="M476.74,-251.87C503.23,-242.03 547.22,-225.69 581.04,-213.13"/>
<polygon fill="midnightblue" stroke="midnightblue" points="582.58,-216.29 590.73,-209.53 580.14,-209.73 582.58,-216.29"/>
</g>
<!-- Node15&#45;&gt;Node7 -->
<g id="edge17" class="edge">
<title>Node15&#45;&gt;Node7</title>
<path fill="none" stroke="midnightblue" d="M621.07,-179.48C608.8,-156.31 584.31,-110.07 570.87,-84.69"/>
<polygon fill="midnightblue" stroke="midnightblue" points="573.93,-82.99 566.15,-75.79 567.74,-86.26 573.93,-82.99"/>
</g>
<!-- Node15&#45;&gt;Node8 -->
<g id="edge18" class="edge">
<title>Node15&#45;&gt;Node8</title>
<path fill="none" stroke="midnightblue" d="M635.04,-179.48C645.8,-156.41 667.22,-110.48 679.09,-85.03"/>
<polygon fill="midnightblue" stroke="midnightblue" points="682.35,-86.33 683.4,-75.79 676,-83.37 682.35,-86.33"/>
</g>
<!-- Node16 -->
<g id="node16" class="node">
<title>Node16</title>
<g id="a_node16"><a xlink:href="intrusive__ptr__impl_8hpp.html" target="_top" xlink:title=" ">
<polygon fill="none" stroke="black" points="782.5,-112.5 782.5,-142.5 896.5,-142.5 896.5,-112.5 782.5,-112.5"/>
<text text-anchor="start" x="790.5" y="-130.5" font-family="Helvetica,sans-Serif" font-size="10.00">yaclib/util/detail</text>
<text text-anchor="middle" x="839.5" y="-119.5" font-family="Helvetica,sans-Serif" font-size="10.00">/intrusive_ptr_impl.hpp</text>
</a>
</g>
</g>
<!-- Node15&#45;&gt;Node16 -->
<g id="edge19" class="edge">
<title>Node15&#45;&gt;Node16</title>
<path fill="none" stroke="midnightblue" d="M674.02,-179.48C706.22,-169.56 749.58,-156.2 783.83,-145.65"/>
<polygon fill="midnightblue" stroke="midnightblue" points="785.17,-148.9 793.69,-142.61 783.11,-142.21 785.17,-148.9"/>
</g>
<!-- Node16&#45;&gt;Node17 -->
<g id="edge20" class="edge">
<title>Node16&#45;&gt;Node17</title>
<path fill="none" stroke="midnightblue" d="M886.64,-112.47C921.6,-102.08 968.65,-88.08 1001.27,-78.37"/>
<polygon fill="midnightblue" stroke="midnightblue" points="1002.32,-81.71 1010.91,-75.51 1000.32,-75 1002.32,-81.71"/>
</g>
<!-- Node18 -->
<g id="node18" class="node">
<title>Node18</title>
<g id="a_node18"><a xlink:title=" ">
<polygon fill="none" stroke="#bfbfbf" points="1006.5,-0.5 1006.5,-19.5 1072.5,-19.5 1072.5,-0.5 1006.5,-0.5"/>
<text text-anchor="middle" x="1039.5" y="-7.5" font-family="Helvetica,sans-Serif" font-size="10.00">string_view</text>
</a>
</g>
</g>
<!-- Node17&#45;&gt;Node18 -->
<g id="edge21" class="edge">
<title>Node17&#45;&gt;Node18</title>
<path fill="none" stroke="midnightblue" d="M1039.5,-56.08C1039.5,-49.01 1039.5,-38.86 1039.5,-29.99"/>
<polygon fill="midnightblue" stroke="midnightblue" points="1043,-29.75 1039.5,-19.75 1036,-29.75 1043,-29.75"/>
</g>
<!-- Node21 -->
<g id="node21" class="node">
<title>Node21</title>
<g id="a_node21"><a xlink:href="type__traits_8hpp.html" target="_top" xlink:title=" ">
<polygon fill="none" stroke="black" points="864,-252 864,-271 987,-271 987,-252 864,-252"/>
<text text-anchor="middle" x="925.5" y="-259" font-family="Helvetica,sans-Serif" font-size="10.00">yaclib/util/type_traits.hpp</text>
</a>
</g>
</g>
<!-- Node20&#45;&gt;Node21 -->
<g id="edge28" class="edge">
<title>Node20&#45;&gt;Node21</title>
<path fill="none" stroke="midnightblue" d="M817.1,-318.87C838.21,-307.89 874.88,-288.82 899.66,-275.94"/>
<polygon fill="midnightblue" stroke="midnightblue" points="901.57,-278.89 908.83,-271.17 898.35,-272.68 901.57,-278.89"/>
</g>
<!-- Node20&#45;&gt;Node24 -->
<g id="edge35" class="edge">
<title>Node20&#45;&gt;Node24</title>
<path fill="none" stroke="midnightblue" d="M837.85,-318.93C893.14,-306.08 990.88,-282.75 996.5,-277 1012.73,-260.39 1016.1,-232.75 1016.34,-214.33"/>
<polygon fill="midnightblue" stroke="midnightblue" points="1019.84,-214.18 1016.17,-204.23 1012.84,-214.29 1019.84,-214.18"/>
</g>
<!-- Node25 -->
<g id="node25" class="node">
<title>Node25</title>
<g id="a_node25"><a xlink:title=" ">
<polygon fill="none" stroke="#bfbfbf" points="799.5,-252 799.5,-271 845.5,-271 845.5,-252 799.5,-252"/>
<text text-anchor="middle" x="822.5" y="-259" font-family="Helvetica,sans-Serif" font-size="10.00">variant</text>
</a>
</g>
</g>
<!-- Node20&#45;&gt;Node25 -->
<g id="edge36" class="edge">
<title>Node20&#45;&gt;Node25</title>
<path fill="none" stroke="midnightblue" d="M803.47,-318.73C806.73,-309.09 812.08,-293.3 816.27,-280.91"/>
<polygon fill="midnightblue" stroke="midnightblue" points="819.69,-281.72 819.58,-271.13 813.06,-279.48 819.69,-281.72"/>
</g>
<!-- Node21&#45;&gt;Node8 -->
<g id="edge34" class="edge">
<title>Node21&#45;&gt;Node8</title>
<path fill="none" stroke="midnightblue" d="M900.91,-251.95C877.11,-243.15 840.47,-228.17 811.5,-210 772.5,-185.54 762.19,-178.18 732.5,-143 717.25,-124.93 704.04,-101.05 695.95,-84.92"/>
<polygon fill="midnightblue" stroke="midnightblue" points="698.93,-83.03 691.4,-75.58 692.63,-86.1 698.93,-83.03"/>
</g>
<!-- Node21&#45;&gt;Node22 -->
<g id="edge29" class="edge">
<title>Node21&#45;&gt;Node22</title>
<path fill="none" stroke="midnightblue" d="M927.4,-251.84C932.05,-230.67 944.08,-175.95 950.43,-147.03"/>
<polygon fill="midnightblue" stroke="midnightblue" points="953.9,-147.54 952.63,-137.02 947.06,-146.04 953.9,-147.54"/>
</g>
<!-- Node23 -->
<g id="node23" class="node">
<title>Node23</title>
<g id="a_node23"><a xlink:href="type__traits__impl_8hpp.html" target="_top" xlink:title=" ">
<polygon fill="none" stroke="black" points="820.5,-179.5 820.5,-209.5 926.5,-209.5 926.5,-179.5 820.5,-179.5"/>
<text text-anchor="start" x="828.5" y="-197.5" font-family="Helvetica,sans-Serif" font-size="10.00">yaclib/util/detail</text>
<text text-anchor="middle" x="873.5" y="-186.5" font-family="Helvetica,sans-Serif" font-size="10.00">/type_traits_impl.hpp</text>
</a>
</g>
</g>
<!-- Node21&#45;&gt;Node23 -->
<g id="edge30" class="edge">
<title>Node21&#45;&gt;Node23</title>
<path fill="none" stroke="midnightblue" d="M918.49,-251.73C911.53,-243.03 900.58,-229.34 891.22,-217.65"/>
<polygon fill="midnightblue" stroke="midnightblue" points="893.75,-215.21 884.77,-209.59 888.29,-219.58 893.75,-215.21"/>
</g>
<!-- Node21&#45;&gt;Node24 -->
<g id="edge33" class="edge">
<title>Node21&#45;&gt;Node24</title>
<path fill="none" stroke="midnightblue" d="M937.64,-251.73C952.35,-241.11 977.36,-223.05 995.06,-210.26"/>
<polygon fill="midnightblue" stroke="midnightblue" points="997.5,-212.82 1003.55,-204.13 993.4,-207.14 997.5,-212.82"/>
</g>
<!-- Node23&#45;&gt;Node8 -->
<g id="edge32" class="edge">
<title>Node23&#45;&gt;Node8</title>
<path fill="none" stroke="midnightblue" d="M840.34,-179.36C820.28,-170.18 794.59,-157.3 773.5,-143 746.85,-124.94 719.59,-99.4 703.1,-83.02"/>
<polygon fill="midnightblue" stroke="midnightblue" points="705.45,-80.42 695.92,-75.79 700.48,-85.35 705.45,-80.42"/>
</g>
<!-- Node23&#45;&gt;Node22 -->
<g id="edge31" class="edge">
<title>Node23&#45;&gt;Node22</title>
<path fill="none" stroke="midnightblue" d="M891.08,-179.4C904.21,-168.86 922.13,-154.48 935.57,-143.69"/>
<polygon fill="midnightblue" stroke="midnightblue" points="938.06,-146.18 943.67,-137.19 933.68,-140.72 938.06,-146.18"/>
</g>
<!-- Node26&#45;&gt;Node9 -->
<g id="edge44" class="edge">
<title>Node26&#45;&gt;Node9</title>
<path fill="none" stroke="midnightblue" d="M797.28,-393.03C726.81,-389.72 598.17,-378.96 494.5,-344 436.62,-324.48 418.94,-318.91 374.5,-277 372.43,-275.05 283.19,-134.36 251.51,-84.38"/>
<polygon fill="midnightblue" stroke="midnightblue" points="254.3,-82.23 245.99,-75.66 248.38,-85.98 254.3,-82.23"/>
</g>
<!-- Node26&#45;&gt;Node13 -->
<g id="edge41" class="edge">
<title>Node26&#45;&gt;Node13</title>
<path fill="none" stroke="midnightblue" d="M797.4,-383.1C776.12,-375.66 753.49,-363.54 740.5,-344 728.16,-325.44 729.86,-298.89 733,-281.19"/>
<polygon fill="midnightblue" stroke="midnightblue" points="736.46,-281.74 735.09,-271.24 729.61,-280.31 736.46,-281.74"/>
</g>
<!-- Node26&#45;&gt;Node19 -->
<g id="edge45" class="edge">
<title>Node26&#45;&gt;Node19</title>
<path fill="none" stroke="midnightblue" d="M854.17,-380.4C860.98,-362.06 875.39,-330.35 898.5,-313 910,-304.37 988.39,-285.38 1041.1,-273.3"/>
<polygon fill="midnightblue" stroke="midnightblue" points="1041.98,-276.69 1050.95,-271.06 1040.42,-269.87 1041.98,-276.69"/>
</g>
<!-- Node27 -->
<g id="node27" class="node">
<title>Node27</title>
<g id="a_node27"><a xlink:href="default__deleter_8hpp.html" target="_top" xlink:title=" ">
<polygon fill="none" stroke="black" points="908,-313.5 908,-343.5 1009,-343.5 1009,-313.5 908,-313.5"/>
<text text-anchor="start" x="916" y="-331.5" font-family="Helvetica,sans-Serif" font-size="10.00">yaclib/util/detail</text>
<text text-anchor="middle" x="958.5" y="-320.5" font-family="Helvetica,sans-Serif" font-size="10.00">/default_deleter.hpp</text>
</a>
</g>
</g>
<!-- Node26&#45;&gt;Node27 -->
<g id="edge42" class="edge">
<title>Node26&#45;&gt;Node27</title>
<path fill="none" stroke="midnightblue" d="M873.15,-380.4C888.58,-371.2 908.92,-359.07 925.88,-348.95"/>
<polygon fill="midnightblue" stroke="midnightblue" points="928.1,-351.7 934.89,-343.58 924.51,-345.69 928.1,-351.7"/>
</g>
<!-- Node26&#45;&gt;Node28 -->
<g id="edge43" class="edge">
<title>Node26&#45;&gt;Node28</title>
<path fill="none" stroke="midnightblue" d="M901.82,-380.67C935.49,-371.33 979.98,-358.15 1018.5,-344 1020.16,-343.39 1021.85,-342.74 1023.55,-342.07"/>
<polygon fill="midnightblue" stroke="midnightblue" points="1025.29,-345.13 1033.16,-338.04 1022.59,-338.67 1025.29,-345.13"/>
</g>
<!-- Node29&#45;&gt;Node27 -->
<g id="edge47" class="edge">
<title>Node29&#45;&gt;Node27</title>
<path fill="none" stroke="midnightblue" d="M968.68,-380.4C967.11,-372.56 965.12,-362.6 963.31,-353.57"/>
<polygon fill="midnightblue" stroke="midnightblue" points="966.71,-352.7 961.32,-343.58 959.84,-354.07 966.71,-352.7"/>
</g>
</g>
</svg>
        <g id="navigator" transform="translate(0 0)" fill="#404254">
                <rect fill="#f2f5e9" fill-opacity="0.5" stroke="#606060" stroke-width=".5" x="0" y="0" width="60" height="60"/>
                <use id="zoomplus" xlink:href="#zoomPlus" x="17" y="9" onmousedown="handleZoom(evt,'in')"/>
                <use id="zoomminus" xlink:href="#zoomMin" x="42" y="9" onmousedown="handleZoom(evt,'out')"/>
                <use id="reset" xlink:href="#resetDef" x="30" y="36" onmousedown="handleReset()"/>
                <g id="arrowUp" xlink:href="#dirArrow" transform="translate(30 24)" onmousedown="handlePan(0,-1)">
                  <use xlink:href="#rim" fill="#404040">
                        <set attributeName="fill" to="#808080" begin="arrowUp.mouseover" end="arrowUp.mouseout"/>
                  </use>
                  <path fill="none" stroke="white" stroke-width="1.5" d="M0,-3.0v7 M-2.5,-0.5L0,-3.0L2.5,-0.5"/>
                </g>
                <g id="arrowRight" xlink:href="#dirArrow" transform="rotate(90) translate(36 -43)" onmousedown="handlePan(1,0)">
                  <use xlink:href="#rim" fill="#404040">
                        <set attributeName="fill" to="#808080" begin="arrowRight.mouseover" end="arrowRight.mouseout"/>
                  </use>
                  <path fill="none" stroke="white" stroke-width="1.5" d="M0,-3.0v7 M-2.5,-0.5L0,-3.0L2.5,-0.5"/>
                </g>
                <g id="arrowDown" xlink:href="#dirArrow" transform="rotate(180) translate(-30 -48)" onmousedown="handlePan(0,1)">
                  <use xlink:href="#rim" fill="#404040">
                        <set attributeName="fill" to="#808080" begin="arrowDown.mouseover" end="arrowDown.mouseout"/>
                  </use>
                  <path fill="none" stroke="white" stroke-width="1.5" d="M0,-3.0v7 M-2.5,-0.5L0,-3.0L2.5,-0.5"/>
                </g>
                <g id="arrowLeft" xlink:href="#dirArrow" transform="rotate(270) translate(-36 17)" onmousedown="handlePan(-1,0)">
                  <use xlink:href="#rim" fill="#404040">
                        <set attributeName="fill" to="#808080" begin="arrowLeft.mouseover" end="arrowLeft.mouseout"/>
                  </use>
                  <path fill="none" stroke="white" stroke-width="1.5" d="M0,-3.0v7 M-2.5,-0.5L0,-3.0L2.5,-0.5"/>
                </g>
        </g>
        <svg viewBox="0 0 15 15" width="100%" height="30px" preserveAspectRatio="xMaxYMin meet">
         <g id="arrow_out" transform="scale(0.3 0.3)">
          <a xlink:href="when__any__impl_8hpp__incl_org.svg" target="_base">
           <rect id="button" ry="5" rx="5" y="6" x="6" height="38" width="38"
                fill="#f2f5e9" fill-opacity="0.5" stroke="#606060" stroke-width="1.0"/>
           <path id="arrow"
             d="M 11.500037,31.436501 C 11.940474,20.09759 22.043105,11.32322 32.158766,21.979434 L 37.068811,17.246167 C 37.068811,17.246167 37.088388,32 37.088388,32 L 22.160133,31.978069 C 22.160133,31.978069 26.997745,27.140456 26.997745,27.140456 C 18.528582,18.264221 13.291696,25.230495 11.500037,31.436501 z"
             style="fill:#404040;"/>
          </a>
         </g>
        </svg>
</svg>
