<?xml version="1.0" encoding="UTF-8" standalone="no"?>
<!DOCTYPE svg PUBLIC "-//W3C//DTD SVG 1.1//EN"
 "http://www.w3.org/Graphics/SVG/1.1/DTD/svg11.dtd">
<!-- Generated by graphviz version 9.0.0 (20230911.1827)
 -->
<!-- Title: include/yaclib/coro/yield.hpp Pages: 1 -->
<!--zoomable 337 -->

<svg id="main" version="1.1" xmlns="http://www.w3.org/2000/svg" xmlns:xlink="http://www.w3.org/1999/xlink" xml:space="preserve" onload="init(evt)">
<style type="text/css"><![CDATA[
.node, .edge {opacity: 0.7;}
.node.selected, .edge.selected {opacity: 1;}
.edge:hover path { stroke: red; }
.edge:hover polygon { stroke: red; fill: red; }
]]></style>

<defs>
  <circle id="rim" cx="0" cy="0" r="7"/>
  <circle id="rim2" cx="0" cy="0" r="3.5"/>
  <g id="zoomPlus">
    <use xlink:href="#rim" fill="#404040"><set attributeName="fill" to="#808080" begin="zoomplus.mouseover" end="zoomplus.mouseout"/></use>
    <path d="M-4,0h8M0,-4v8" fill="none" stroke="white" stroke-width="1.5" pointer-events="none"/>
  </g>
  <g id="zoomMin">
    <use xlink:href="#rim" fill="#404040"><set attributeName="fill" to="#808080" begin="zoomminus.mouseover" end="zoomminus.mouseout"/></use>
    <path d="M-4,0h8" fill="none" stroke="white" stroke-width="1.5" pointer-events="none"/>
  </g>
  <g id="arrowUp" transform="translate(30 24)">
    <use xlink:href="#rim"/>
    <path pointer-events="none" fill="none" stroke="white" stroke-width="1.5" d="M0,-3.0v7 M-2.5,-0.5L0,-3.0L2.5,-0.5"/>
  </g>
  <g id="arrowRight" transform="rotate(90) translate(36 -43)">
    <use xlink:href="#rim"/>
    <path pointer-events="none" fill="none" stroke="white" stroke-width="1.5" d="M0,-3.0v7 M-2.5,-0.5L0,-3.0L2.5,-0.5"/>
  </g>
  <g id="arrowDown" transform="rotate(180) translate(-30 -48)">
    <use xlink:href="#rim"/>
    <path pointer-events="none" fill="none" stroke="white" stroke-width="1.5" d="M0,-3.0v7 M-2.5,-0.5L0,-3.0L2.5,-0.5"/>
  </g>
  <g id="arrowLeft" transform="rotate(270) translate(-36 17)">
    <use xlink:href="#rim"/>
    <path pointer-events="none" fill="none" stroke="white" stroke-width="1.5" d="M0,-3.0v7 M-2.5,-0.5L0,-3.0L2.5,-0.5"/>
  </g>
  <g id="resetDef">
    <use xlink:href="#rim2" fill="#404040"><set attributeName="fill" to="#808080" begin="reset.mouseover" end="reset.mouseout"/></use>
  </g>
</defs>
<script type="application/ecmascript">
var viewWidth = 558;
var viewHeight = 337;
var sectionId = 'dynsection-0';
</script>
<script type="application/ecmascript" xlink:href="svg.min.js"/>
<svg id="graph" class="graph">
<g id="viewport">
<title>include/yaclib/coro/yield.hpp</title>
<!-- Node1 -->
<g id="Node000001" class="node">
<title>Node1</title>
<g id="a_Node000001"><a xlink:title=" ">
<polygon fill="#999999" stroke="#666666" points="162.25,-329.25 66,-329.25 66,-298.75 162.25,-298.75 162.25,-329.25"/>
<text text-anchor="start" x="74" y="-315.75" font-family="Helvetica,sans-Serif" font-size="10.00">include/yaclib/coro</text>
<text text-anchor="middle" x="114.12" y="-304.5" font-family="Helvetica,sans-Serif" font-size="10.00">/yield.hpp</text>
</a>
</g>
</g>
<!-- Node2 -->
<g id="Node000002" class="node">
<title>Node2</title>
<g id="a_Node000002"><a xlink:href="coro_8hpp.html" target="_top" xlink:title=" ">
<polygon fill="white" stroke="#666666" points="102.25,-262.75 0,-262.75 0,-243.5 102.25,-243.5 102.25,-262.75"/>
<text text-anchor="middle" x="51.12" y="-249.25" font-family="Helvetica,sans-Serif" font-size="10.00">yaclib/coro/coro.hpp</text>
</a>
</g>
</g>
<!-- Node1&#45;&gt;Node2 -->
<g id="edge1_Node000001_Node000002" class="edge">
<title>Node1&#45;&gt;Node2</title>
<g id="a_edge1_Node000001_Node000002"><a xlink:title=" ">
<path fill="none" stroke="#63b8ff" d="M98.55,-298.45C89.61,-290.09 78.33,-279.55 69.02,-270.85"/>
<polygon fill="#63b8ff" stroke="#63b8ff" points="71.64,-268.51 61.94,-264.23 66.86,-273.62 71.64,-268.51"/>
</a>
</g>
</g>
<!-- Node4 -->
<g id="Node000004" class="node">
<title>Node4</title>
<g id="a_Node000004"><a xlink:href="executor_8hpp.html" target="_top" xlink:title=" ">
<polygon fill="white" stroke="#666666" points="236.38,-262.75 119.88,-262.75 119.88,-243.5 236.38,-243.5 236.38,-262.75"/>
<text text-anchor="middle" x="178.12" y="-249.25" font-family="Helvetica,sans-Serif" font-size="10.00">yaclib/exe/executor.hpp</text>
</a>
</g>
</g>
<!-- Node1&#45;&gt;Node4 -->
<g id="edge3_Node000001_Node000004" class="edge">
<title>Node1&#45;&gt;Node4</title>
<g id="a_edge3_Node000001_Node000004"><a xlink:title=" ">
<path fill="none" stroke="#63b8ff" d="M129.95,-298.45C139.03,-290.09 150.49,-279.55 159.94,-270.85"/>
<polygon fill="#63b8ff" stroke="#63b8ff" points="162.15,-273.57 167.14,-264.23 157.42,-268.42 162.15,-273.57"/>
</a>
</g>
</g>
<!-- Node3 -->
<g id="Node000003" class="node">
<title>Node3</title>
<g id="a_Node000003"><a xlink:title=" ">
<polygon fill="#e0e0e0" stroke="#999999" points="94.75,-201.88 7.5,-201.88 7.5,-182.62 94.75,-182.62 94.75,-201.88"/>
<text text-anchor="middle" x="51.12" y="-188.38" font-family="Helvetica,sans-Serif" font-size="10.00">yaclib/config.hpp</text>
</a>
</g>
</g>
<!-- Node2&#45;&gt;Node3 -->
<g id="edge2_Node000002_Node000003" class="edge">
<title>Node2&#45;&gt;Node3</title>
<g id="a_edge2_Node000002_Node000003"><a xlink:title=" ">
<path fill="none" stroke="#63b8ff" d="M51.12,-243.18C51.12,-235.4 51.12,-223.83 51.12,-213.78"/>
<polygon fill="#63b8ff" stroke="#63b8ff" points="54.63,-213.79 51.13,-203.79 47.63,-213.79 54.63,-213.79"/>
</a>
</g>
</g>
<!-- Node5 -->
<g id="Node000005" class="node">
<title>Node5</title>
<g id="a_Node000005"><a xlink:href="job_8hpp.html" target="_top" xlink:title=" ">
<polygon fill="white" stroke="#666666" points="214.38,-201.88 121.88,-201.88 121.88,-182.62 214.38,-182.62 214.38,-201.88"/>
<text text-anchor="middle" x="168.12" y="-188.38" font-family="Helvetica,sans-Serif" font-size="10.00">yaclib/exe/job.hpp</text>
</a>
</g>
</g>
<!-- Node4&#45;&gt;Node5 -->
<g id="edge4_Node000004_Node000005" class="edge">
<title>Node4&#45;&gt;Node5</title>
<g id="a_edge4_Node000004_Node000005"><a xlink:title=" ">
<path fill="none" stroke="#63b8ff" d="M176.61,-243.18C175.27,-235.32 173.28,-223.57 171.56,-213.45"/>
<polygon fill="#63b8ff" stroke="#63b8ff" points="175.04,-213.04 169.91,-203.77 168.14,-214.21 175.04,-213.04"/>
</a>
</g>
</g>
<!-- Node13 -->
<g id="Node000013" class="node">
<title>Node13</title>
<g id="a_Node000013"><a xlink:href="intrusive__ptr_8hpp.html" target="_top" xlink:title=" ">
<polygon fill="white" stroke="#666666" points="429.25,-207.5 333,-207.5 333,-177 429.25,-177 429.25,-207.5"/>
<text text-anchor="start" x="341" y="-194" font-family="Helvetica,sans-Serif" font-size="10.00">yaclib/util/intrusive</text>
<text text-anchor="middle" x="381.12" y="-182.75" font-family="Helvetica,sans-Serif" font-size="10.00">_ptr.hpp</text>
</a>
</g>
</g>
<!-- Node4&#45;&gt;Node13 -->
<g id="edge12_Node000004_Node000013" class="edge">
<title>Node4&#45;&gt;Node13</title>
<g id="a_edge12_Node000004_Node000013"><a xlink:title=" ">
<path fill="none" stroke="#63b8ff" d="M209.4,-243.05C239.36,-234.36 285.34,-221.03 322.18,-210.35"/>
<polygon fill="#63b8ff" stroke="#63b8ff" points="322.72,-213.83 331.35,-207.69 320.77,-207.11 322.72,-213.83"/>
</a>
</g>
</g>
<!-- Node6 -->
<g id="Node000006" class="node">
<title>Node6</title>
<g id="a_Node000006"><a xlink:href="log_8hpp.html" target="_top" xlink:title=" ">
<polygon fill="white" stroke="#666666" points="220.38,-74.5 145.88,-74.5 145.88,-55.25 220.38,-55.25 220.38,-74.5"/>
<text text-anchor="middle" x="183.12" y="-61" font-family="Helvetica,sans-Serif" font-size="10.00">yaclib/log.hpp</text>
</a>
</g>
</g>
<!-- Node5&#45;&gt;Node6 -->
<g id="edge5_Node000005_Node000006" class="edge">
<title>Node5&#45;&gt;Node6</title>
<g id="a_edge5_Node000005_Node000006"><a xlink:title=" ">
<path fill="none" stroke="#63b8ff" d="M153.53,-182.15C140.96,-173.37 123.68,-158.8 116.12,-141 110.83,-128.52 109.73,-122.45 116.12,-110.5 123.26,-97.18 136.31,-87.15 149.02,-80.01"/>
<polygon fill="#63b8ff" stroke="#63b8ff" points="150.36,-83.26 157.66,-75.59 147.17,-77.03 150.36,-83.26"/>
</a>
</g>
</g>
<!-- Node8 -->
<g id="Node000008" class="node">
<title>Node8</title>
<g id="a_Node000008"><a xlink:href="node_8hpp.html" target="_top" xlink:title=" ">
<polygon fill="white" stroke="#666666" points="207.5,-141 124.75,-141 124.75,-110.5 207.5,-110.5 207.5,-141"/>
<text text-anchor="start" x="132.75" y="-127.5" font-family="Helvetica,sans-Serif" font-size="10.00">yaclib/util/detail</text>
<text text-anchor="middle" x="166.12" y="-116.25" font-family="Helvetica,sans-Serif" font-size="10.00">/node.hpp</text>
</a>
</g>
</g>
<!-- Node5&#45;&gt;Node8 -->
<g id="edge7_Node000005_Node000008" class="edge">
<title>Node5&#45;&gt;Node8</title>
<g id="a_edge7_Node000005_Node000008"><a xlink:title=" ">
<path fill="none" stroke="#63b8ff" d="M167.85,-182.28C167.61,-174.54 167.25,-162.95 166.92,-152.37"/>
<polygon fill="#63b8ff" stroke="#63b8ff" points="170.43,-152.49 166.62,-142.61 163.43,-152.71 170.43,-152.49"/>
</a>
</g>
</g>
<!-- Node9 -->
<g id="Node000009" class="node">
<title>Node9</title>
<g id="a_Node000009"><a xlink:href="func_8hpp.html" target="_top" xlink:title=" ">
<polygon fill="white" stroke="#666666" points="453.25,-135.38 357,-135.38 357,-116.12 453.25,-116.12 453.25,-135.38"/>
<text text-anchor="middle" x="405.12" y="-121.88" font-family="Helvetica,sans-Serif" font-size="10.00">yaclib/util/func.hpp</text>
</a>
</g>
</g>
<!-- Node5&#45;&gt;Node9 -->
<g id="edge8_Node000005_Node000009" class="edge">
<title>Node5&#45;&gt;Node9</title>
<g id="a_edge8_Node000005_Node000009"><a xlink:title=" ">
<path fill="none" stroke="#63b8ff" d="M201.58,-182.15C243.31,-170.79 314.77,-151.34 360.96,-138.77"/>
<polygon fill="#63b8ff" stroke="#63b8ff" points="361.65,-142.21 370.38,-136.21 359.81,-135.45 361.65,-142.21"/>
</a>
</g>
</g>
<!-- Node7 -->
<g id="Node000007" class="node">
<title>Node7</title>
<g id="a_Node000007"><a xlink:title=" ">
<polygon fill="#e0e0e0" stroke="#999999" points="215.88,-19.25 150.38,-19.25 150.38,0 215.88,0 215.88,-19.25"/>
<text text-anchor="middle" x="183.12" y="-5.75" font-family="Helvetica,sans-Serif" font-size="10.00">string_view</text>
</a>
</g>
</g>
<!-- Node6&#45;&gt;Node7 -->
<g id="edge6_Node000006_Node000007" class="edge">
<title>Node6&#45;&gt;Node7</title>
<g id="a_edge6_Node000006_Node000007"><a xlink:title=" ">
<path fill="none" stroke="#63b8ff" d="M183.12,-55.08C183.12,-48.57 183.12,-39.42 183.12,-31.12"/>
<polygon fill="#63b8ff" stroke="#63b8ff" points="186.63,-31.12 183.13,-21.12 179.63,-31.12 186.63,-31.12"/>
</a>
</g>
</g>
<!-- Node10 -->
<g id="Node000010" class="node">
<title>Node10</title>
<g id="a_Node000010"><a xlink:href="ref_8hpp.html" target="_top" xlink:title=" ">
<polygon fill="white" stroke="#666666" points="470.5,-74.5 381.75,-74.5 381.75,-55.25 470.5,-55.25 470.5,-74.5"/>
<text text-anchor="middle" x="426.12" y="-61" font-family="Helvetica,sans-Serif" font-size="10.00">yaclib/util/ref.hpp</text>
</a>
</g>
</g>
<!-- Node9&#45;&gt;Node10 -->
<g id="edge9_Node000009_Node000010" class="edge">
<title>Node9&#45;&gt;Node10</title>
<g id="a_edge9_Node000009_Node000010"><a xlink:title=" ">
<path fill="none" stroke="#63b8ff" d="M408.31,-115.81C411.15,-107.85 415.4,-95.94 419.04,-85.74"/>
<polygon fill="#63b8ff" stroke="#63b8ff" points="422.33,-86.92 422.4,-76.33 415.74,-84.57 422.33,-86.92"/>
</a>
</g>
</g>
<!-- Node11 -->
<g id="Node000011" class="node">
<title>Node11</title>
<g id="a_Node000011"><a xlink:title=" ">
<polygon fill="#e0e0e0" stroke="#999999" points="549.62,-74.5 488.62,-74.5 488.62,-55.25 549.62,-55.25 549.62,-74.5"/>
<text text-anchor="middle" x="519.12" y="-61" font-family="Helvetica,sans-Serif" font-size="10.00">type_traits</text>
</a>
</g>
</g>
<!-- Node9&#45;&gt;Node11 -->
<g id="edge10_Node000009_Node000011" class="edge">
<title>Node9&#45;&gt;Node11</title>
<g id="a_edge10_Node000009_Node000011"><a xlink:title=" ">
<path fill="none" stroke="#63b8ff" d="M422.44,-115.81C440.77,-106.34 469.97,-91.26 491.49,-80.15"/>
<polygon fill="#63b8ff" stroke="#63b8ff" points="493.02,-83.29 500.3,-75.6 489.81,-77.07 493.02,-83.29"/>
</a>
</g>
</g>
<!-- Node12 -->
<g id="Node000012" class="node">
<title>Node12</title>
<g id="a_Node000012"><a xlink:title=" ">
<polygon fill="#e0e0e0" stroke="#999999" points="363.38,-74.5 324.88,-74.5 324.88,-55.25 363.38,-55.25 363.38,-74.5"/>
<text text-anchor="middle" x="344.12" y="-61" font-family="Helvetica,sans-Serif" font-size="10.00">utility</text>
</a>
</g>
</g>
<!-- Node9&#45;&gt;Node12 -->
<g id="edge11_Node000009_Node000012" class="edge">
<title>Node9&#45;&gt;Node12</title>
<g id="a_edge11_Node000009_Node000012"><a xlink:title=" ">
<path fill="none" stroke="#63b8ff" d="M395.86,-115.81C386.81,-107.08 372.82,-93.57 361.66,-82.8"/>
<polygon fill="#63b8ff" stroke="#63b8ff" points="364.19,-80.38 354.57,-75.95 359.33,-85.42 364.19,-80.38"/>
</a>
</g>
</g>
<!-- Node13&#45;&gt;Node10 -->
<g id="edge13_Node000013_Node000010" class="edge">
<title>Node13&#45;&gt;Node10</title>
<g id="a_edge13_Node000013_Node000010"><a xlink:title=" ">
<path fill="none" stroke="#63b8ff" d="M421.05,-176.6C436.78,-168.63 453.19,-157.05 462.12,-141 472.94,-121.56 457.76,-98.36 443.92,-82.94"/>
<polygon fill="#63b8ff" stroke="#63b8ff" points="446.64,-80.71 437.19,-75.93 441.6,-85.57 446.64,-80.71"/>
</a>
</g>
</g>
<!-- Node13&#45;&gt;Node11 -->
<g id="edge14_Node000013_Node000011" class="edge">
<title>Node13&#45;&gt;Node11</title>
<g id="a_edge14_Node000013_Node000011"><a xlink:title=" ">
<path fill="none" stroke="#63b8ff" d="M420.87,-176.68C439.57,-168.36 461.21,-156.48 477.12,-141 493.33,-125.24 505.05,-101.87 511.92,-85.39"/>
<polygon fill="#63b8ff" stroke="#63b8ff" points="515.13,-86.81 515.52,-76.22 508.61,-84.26 515.13,-86.81"/>
</a>
</g>
</g>
<!-- Node14 -->
<g id="Node000014" class="node">
<title>Node14</title>
<g id="a_Node000014"><a xlink:href="intrusive__ptr__impl_8hpp.html" target="_top" xlink:title=" ">
<polygon fill="white" stroke="#666666" points="338.88,-141 225.38,-141 225.38,-110.5 338.88,-110.5 338.88,-141"/>
<text text-anchor="start" x="233.38" y="-127.5" font-family="Helvetica,sans-Serif" font-size="10.00">yaclib/util/detail</text>
<text text-anchor="middle" x="282.12" y="-116.25" font-family="Helvetica,sans-Serif" font-size="10.00">/intrusive_ptr_impl.hpp</text>
</a>
</g>
</g>
<!-- Node13&#45;&gt;Node14 -->
<g id="edge15_Node000013_Node000014" class="edge">
<title>Node13&#45;&gt;Node14</title>
<g id="a_edge15_Node000013_Node000014"><a xlink:title=" ">
<path fill="none" stroke="#63b8ff" d="M358.66,-176.61C345.5,-168.04 328.65,-157.06 314.12,-147.59"/>
<polygon fill="#63b8ff" stroke="#63b8ff" points="316.06,-144.68 305.77,-142.15 312.24,-150.55 316.06,-144.68"/>
</a>
</g>
</g>
<!-- Node14&#45;&gt;Node6 -->
<g id="edge16_Node000014_Node000006" class="edge">
<title>Node14&#45;&gt;Node6</title>
<g id="a_edge16_Node000014_Node000006"><a xlink:title=" ">
<path fill="none" stroke="#63b8ff" d="M257.4,-110.05C242.32,-101.08 223.11,-89.66 208.01,-80.67"/>
<polygon fill="#63b8ff" stroke="#63b8ff" points="209.99,-77.78 199.61,-75.68 206.41,-83.8 209.99,-77.78"/>
</a>
</g>
</g>
</g>
</svg>

<g id="navigator" transform="translate(0 0)" fill="#404254">
  <rect fill="#f2f5e9" fill-opacity="0.5" stroke="#606060" stroke-width=".5" x="0" y="0" width="60" height="60"/>
  <use id="zoomplus" xlink:href="#zoomPlus" x="17" y="9" onmousedown="handleZoom(evt,'in')"/>
  <use id="zoomminus" xlink:href="#zoomMin" x="42" y="9" onmousedown="handleZoom(evt,'out')"/>
  <use id="reset" xlink:href="#resetDef" x="30" y="36" onmousedown="handleReset()"/>
   <use id="arrowup" xlink:href="#arrowUp" x="0" y="0" onmousedown="handlePan(0,-1)"/>
  <use id="arrowright" xlink:href="#arrowRight" x="0" y="0" onmousedown="handlePan(1,0)"/>
  <use id="arrowdown" xlink:href="#arrowDown" x="0" y="0" onmousedown="handlePan(0,1)"/>
  <use id="arrowleft" xlink:href="#arrowLeft" x="0" y="0" onmousedown="handlePan(-1,0)"/>
</g>
<svg viewBox="0 0 15 15" width="100%" height="30px" preserveAspectRatio="xMaxYMin meet">
 <g id="arrow_out" transform="scale(0.3 0.3)">
  <a xlink:href="yield_8hpp__incl_org.svg" target="_base">
   <rect id="button" ry="5" rx="5" y="6" x="6" height="38" width="38"
        fill="#f2f5e9" fill-opacity="0.5" stroke="#606060" stroke-width="1.0"/>
   <path id="arrow"
     d="M 11.500037,31.436501 C 11.940474,20.09759 22.043105,11.32322 32.158766,21.979434 L 37.068811,17.246167 C 37.068811,17.246167 37.088388,32 37.088388,32 L 22.160133,31.978069 C 22.160133,31.978069 26.997745,27.140456 26.997745,27.140456 C 18.528582,18.264221 13.291696,25.230495 11.500037,31.436501 z"
     style="fill:#404040;"/>
  </a>
 </g>
</svg>

<style type='text/css'>
<![CDATA[
[data-mouse-over-selected='false'] { opacity: 0.7; }
[data-mouse-over-selected='true']  { opacity: 1.0; }
]]>
</style>
<script type="application/ecmascript"><![CDATA[
document.addEventListener('DOMContentLoaded', (event) => {
  highlightEdges();
  highlightAdjacentNodes();
});
]]></script>
</svg>
